<svg width="154" height="154" fill="none" xmlns="http://www.w3.org/2000/svg"><rect x=".375" y=".375" width="153.251" height="153.251" rx="17.429" fill="url(#paint0_linear_418_1997)" fill-opacity=".53" stroke="url(#paint1_linear_418_1997)" stroke-width=".749"/><path d="M14.262 30.67v-3.196h.37c.087-.143.179-.338.274-.585a5.12 5.12 0 00.37-1.944l.072-4.65h4.829v7.179h.715v3.195h-1.67V29h-3.29v1.67h-1.67zm2.123-3.196h2.122v-5.652h-1.514l-.048 3.112a6.056 6.056 0 01-.202 1.526c-.128.453-.247.791-.358 1.014zm8.354 1.645c-.58 0-1.089-.107-1.526-.322a2.49 2.49 0 01-1.002-.918c-.23-.397-.346-.858-.346-1.383v-1.55c0-.525.116-.982.346-1.372a2.384 2.384 0 011.002-.918c.437-.222.946-.334 1.526-.334.58 0 1.081.112 1.503.334.429.215.759.52.99.918.238.39.357.847.357 1.372v1.192h-4.018v.358c0 .413.099.727.298.942.198.207.497.31.894.31.278 0 .5-.048.668-.143a.693.693 0 00.346-.394h1.752a2.317 2.317 0 01-.977 1.384c-.501.35-1.105.524-1.813.524zm1.145-3.899v-.298c0-.406-.096-.716-.286-.93-.183-.215-.47-.322-.859-.322-.39 0-.684.111-.882.334-.191.222-.286.536-.286.942v.179l2.432-.024-.12.119zm2.666 3.864v-1.61h.358a.622.622 0 00.513-.263c.135-.174.207-.405.215-.691l.071-4.078h4.96V29H32.88v-4.889h-1.42l-.047 2.528a2.711 2.711 0 01-.322 1.288 2.167 2.167 0 01-.834.858c-.35.2-.76.299-1.229.299h-.477zM36.237 29v-6.558h1.574v2.98c0 .2-.012.45-.036.752a19.15 19.15 0 01-.095.894c-.032.302-.068.569-.108.8l2.075-5.426h2.17V29h-1.574v-2.981c0-.207.012-.441.036-.704.024-.27.052-.54.084-.81.032-.27.063-.501.095-.692L38.408 29h-2.171zm9.046 0v-4.889h-2.147v-1.67h6.082v1.67H47.07V29h-1.788zm8.056.12c-.58 0-1.089-.108-1.526-.323a2.49 2.49 0 01-1.002-.918c-.23-.397-.346-.858-.346-1.383v-1.55c0-.525.116-.982.346-1.372a2.384 2.384 0 011.002-.918c.437-.222.946-.334 1.526-.334.58 0 1.081.112 1.503.334.429.215.759.52.99.918.238.39.357.847.357 1.372v1.192H52.17v.358c0 .413.1.727.299.942.198.207.496.31.894.31.278 0 .5-.048.668-.143a.693.693 0 00.346-.394h1.752c-.143.573-.469 1.034-.977 1.384-.501.35-1.105.524-1.813.524zm1.145-3.9v-.298c0-.406-.096-.716-.286-.93-.183-.215-.47-.322-.859-.322-.39 0-.684.111-.882.334-.191.222-.287.536-.287.942v.179l2.433-.024-.12.119zm6.029 3.9c-.58 0-1.09-.108-1.526-.323a2.472 2.472 0 01-1.014-.918c-.239-.397-.358-.858-.358-1.383v-1.55c0-.533.12-.994.358-1.384a2.398 2.398 0 011.014-.906c.437-.222.945-.334 1.526-.334.866 0 1.558.219 2.075.656.516.437.79 1.034.822 1.789h-1.788a.899.899 0 00-.334-.656c-.19-.159-.45-.239-.775-.239-.358 0-.632.092-.823.275-.19.183-.286.449-.286.799v1.55c0 .342.095.608.286.799.19.183.465.274.823.274.326 0 .584-.075.775-.226.199-.16.31-.382.334-.668h1.788c-.031.755-.306 1.351-.822 1.788-.517.438-1.209.656-2.075.656zm4.372-.12v-6.558h1.788v1.967h1.538c.827 0 1.471.207 1.932.62.47.406.704.97.704 1.693 0 .7-.239 1.256-.716 1.67-.469.405-1.105.608-1.908.608h-3.338zm1.788-1.55h1.431c.302 0 .533-.064.692-.191a.668.668 0 00.25-.549c0-.238-.083-.42-.25-.548-.16-.135-.39-.203-.692-.203h-1.43v1.49zm15.29 1.67c-.58 0-1.09-.108-1.527-.323a2.472 2.472 0 01-1.013-.918c-.239-.397-.358-.858-.358-1.383v-1.55c0-.533.12-.994.358-1.384a2.395 2.395 0 011.013-.906c.438-.222.946-.334 1.527-.334.866 0 1.558.219 2.075.656.516.437.79 1.034.822 1.789h-1.788a.898.898 0 00-.334-.656c-.19-.159-.45-.239-.775-.239-.358 0-.632.092-.823.275-.19.183-.286.449-.286.799v1.55c0 .342.095.608.286.799.19.183.465.274.823.274.326 0 .584-.075.775-.226.199-.16.31-.382.334-.668h1.788c-.031.755-.306 1.351-.822 1.788-.517.438-1.209.656-2.075.656zm-67.7 17.55v-3.184h.369c.135-.136.274-.37.417-.704.151-.342.23-.755.239-1.24l.06-3.1h4.829v5.044h.715v3.183h-1.67V45h-3.29v1.67h-1.67zm2.146-3.184h2.098V39.98h-1.514l-.036 1.55a3.742 3.742 0 01-.203 1.216c-.119.342-.234.589-.345.74zm5.528 3.66v-8.704h1.729v1.252h.417l-.417.417c0-.564.155-1.002.465-1.312.31-.318.735-.477 1.276-.477.66 0 1.188.235 1.586.704.397.461.596 1.081.596 1.86v1.67c0 .516-.091.97-.274 1.359a2.08 2.08 0 01-.751.894c-.326.207-.712.31-1.157.31-.54 0-.966-.155-1.276-.465-.31-.318-.465-.759-.465-1.323l.417.417h-.417l.06 1.61v1.788h-1.789zm2.826-3.577c.334 0 .588-.091.763-.274.183-.191.274-.457.274-.8v-1.55c0-.35-.091-.615-.274-.798-.175-.183-.43-.274-.763-.274-.326 0-.58.095-.763.286-.183.183-.274.445-.274.787v1.55c0 .342.091.608.274.799.183.183.437.274.763.274zm5.41 3.577l.893-2.468-2.456-6.236h1.944l.99 2.861c.07.215.142.477.214.788.08.301.14.548.179.739.04-.191.095-.438.167-.74.08-.31.155-.572.226-.787l.954-2.861h1.86l-3.1 8.704h-1.872zm8.52-2.063c-.731 0-1.34-.178-1.824-.536a2.192 2.192 0 01-.883-1.455h1.73c.055.183.17.33.345.441.175.104.386.155.632.155h.68c.262 0 .469-.06.62-.178a.636.636 0 00.227-.513.59.59 0 00-.227-.49c-.151-.118-.358-.178-.62-.178h-1.538v-1.36H39.3c.247 0 .438-.051.573-.154a.556.556 0 00.203-.454.554.554 0 00-.096-.333.533.533 0 00-.262-.203 1.063 1.063 0 00-.418-.072h-.548c-.246 0-.453.056-.62.167a.747.747 0 00-.334.43H36.07c.103-.613.394-1.098.87-1.455.477-.358 1.082-.537 1.813-.537h.548c.525 0 .978.076 1.36.227.381.143.676.35.882.62.207.262.31.576.31.942a1.3 1.3 0 01-.5 1.061c-.327.27-.76.406-1.3.406v-.12c.588 0 1.061.151 1.419.453.357.294.536.688.536 1.18a1.7 1.7 0 01-.715 1.432c-.477.35-1.117.525-1.92.525h-.68zM43.435 45v-6.558h1.788v1.967h1.538c.827 0 1.471.207 1.932.62.47.406.704.97.704 1.693 0 .7-.239 1.256-.716 1.67-.469.405-1.105.608-1.908.608h-3.338zm1.788-1.55h1.431c.302 0 .533-.064.692-.191a.668.668 0 00.25-.548c0-.239-.083-.422-.25-.549-.16-.135-.39-.203-.692-.203h-1.43v1.49zM50.346 45l1.431-2.301a2.056 2.056 0 01-.99-.752 2.052 2.052 0 01-.358-1.204c0-.723.243-1.288.728-1.693.485-.406 1.157-.608 2.015-.608h2.945V45h-1.776v-2.075h-.787L52.36 45h-2.015zm2.933-3.434h1.074V39.86h-1.074c-.333 0-.596.075-.787.226-.19.151-.286.362-.286.632s.092.481.274.632c.191.143.458.215.8.215zM57.401 45v-6.558h2.015l.775 2.444c.087.278.155.533.203.763.055.223.087.39.095.501.016-.111.044-.278.084-.5a7.93 7.93 0 01.202-.764l.763-2.444h2.016V45H61.92v-1.192c0-.263.004-.557.012-.883l.048-1.025c.023-.358.043-.7.06-1.026.023-.334.047-.628.07-.882l-.87 3.16h-1.514l-.918-3.16c.032.326.063.715.095 1.168.04.454.072.915.096 1.384.023.46.035.882.035 1.264V45h-1.633zm7.436 0v-6.558h1.574v2.98c0 .2-.012.45-.036.752a19.15 19.15 0 01-.095.894c-.032.302-.068.569-.108.8l2.075-5.426h2.17V45h-1.574v-2.981c0-.207.012-.441.036-.704.024-.27.052-.54.084-.81.031-.27.063-.501.095-.692L67.007 45h-2.17z" fill="#CCEC60"/><path d="M78.35 41.542v-.954h7.154v.954H78.35zM17.577 61.095c-.524 0-.978-.099-1.36-.298a2.165 2.165 0 01-.893-.858c-.207-.382-.31-.831-.31-1.348v-1.74c0-.525.103-.974.31-1.348.214-.374.512-.66.894-.859.381-.198.835-.298 1.36-.298.524 0 .977.1 1.359.298.381.2.675.485.882.859.215.373.322.819.322 1.335v1.753c0 .517-.107.966-.322 1.348-.207.373-.5.66-.882.858-.382.199-.835.298-1.36.298zm0-.954c.47 0 .835-.13 1.097-.393.263-.262.394-.648.394-1.157v-1.74c0-.51-.131-.895-.394-1.157-.262-.263-.628-.394-1.097-.394-.46 0-.826.131-1.097.394-.262.262-.393.648-.393 1.156v1.741c0 .51.13.895.393 1.157.27.262.636.393 1.097.393zm6.614.859v-5.616h-2.385v-.942h5.843v.942h-2.385V61H24.19zm5.23 0v-6.558h4.913V61H33.26v-5.58h-2.766V61h-1.073zm7.126 2.146v-8.704h1.073v1.252h.215l-.215.25c0-.5.163-.894.489-1.18.334-.295.771-.442 1.312-.442.66 0 1.184.219 1.574.656.397.43.596 1.022.596 1.777v1.92c0 .5-.092.934-.274 1.3a1.95 1.95 0 01-.752.846c-.317.199-.7.298-1.144.298-.533 0-.966-.147-1.3-.441-.334-.294-.5-.688-.5-1.18l.214.25h-.239l.024 1.49v1.908h-1.073zm2.516-2.957c.453 0 .807-.135 1.061-.405.263-.27.394-.66.394-1.169v-1.788c0-.51-.131-.899-.394-1.17-.254-.27-.608-.404-1.061-.404-.437 0-.787.139-1.05.417-.262.278-.393.664-.393 1.157v1.788c0 .493.131.879.394 1.157.262.278.612.417 1.049.417zm6.542.93c-.692 0-1.236-.175-1.634-.524-.397-.358-.596-.84-.596-1.443 0-.612.199-1.093.596-1.443.398-.35.934-.525 1.61-.525h2.027v-.656c0-.405-.123-.715-.37-.93-.238-.222-.58-.334-1.025-.334-.39 0-.715.084-.978.25-.262.16-.413.378-.453.657h-1.073a1.892 1.892 0 01.799-1.348c.46-.334 1.037-.5 1.729-.5.755 0 1.351.194 1.788.584.438.39.656.918.656 1.586V61h-1.05v-1.252h-.178l.179-.179c0 .477-.187.855-.56 1.133-.366.278-.855.417-1.467.417zm.262-.846c.509 0 .926-.128 1.252-.382.326-.254.49-.58.49-.978v-.93h-2.004c-.358 0-.64.1-.847.298-.207.199-.31.47-.31.811 0 .366.123.656.37.87.254.207.604.31 1.05.31zm5.004.727v-6.558h2.838c.683 0 1.212.155 1.586.465.373.302.56.727.56 1.276 0 .453-.155.818-.465 1.097-.31.27-.72.405-1.228.405v-.095c.556 0 1.002.139 1.335.417.342.278.513.652.513 1.12 0 .59-.199 1.05-.596 1.384-.398.326-.954.489-1.67.489h-2.873zm1.05-.942h1.824c.381 0 .675-.084.882-.25.215-.167.322-.402.322-.704 0-.31-.107-.548-.322-.715-.207-.167-.5-.25-.883-.25H51.92v1.919zm0-2.85h1.788c.334 0 .596-.08.787-.238.198-.16.298-.382.298-.668 0-.286-.096-.509-.286-.668-.191-.167-.458-.25-.8-.25H51.92v1.824zm5.277 3.876v-1.002h.215c.365 0 .62-.143.763-.43.15-.286.23-.798.238-1.538l.072-3.672h4.448V61H61.86v-5.58h-2.313l-.06 2.742c-.016.692-.095 1.252-.238 1.681-.135.43-.35.744-.644.942-.286.2-.664.299-1.133.299h-.274zM64.765 61l1.681-2.528c-.5-.12-.89-.35-1.168-.692-.27-.341-.406-.767-.406-1.276 0-.643.211-1.148.632-1.514.43-.366 1.014-.548 1.753-.548h2.826V61H69.01v-2.444h-1.443L66.017 61h-1.252zm2.492-3.398h1.753v-2.206h-1.753c-.397 0-.711.099-.942.298-.23.19-.345.46-.345.81 0 .342.115.613.345.811.23.191.545.287.942.287zM72.321 61v-6.558h1.025v3.577c0 .23-.008.473-.024.727-.008.255-.024.497-.047.728a7.538 7.538 0 01-.06.572l2.647-5.604h1.371V61h-1.025v-3.577c0-.23.004-.473.012-.728a37.495 37.495 0 01.12-1.311L73.691 61H72.32zm2.504-7.632c-.573 0-1.034-.159-1.383-.477-.35-.318-.525-.735-.525-1.252h.846c0 .31.096.56.287.752.19.19.445.286.763.286.326 0 .584-.096.775-.286.199-.191.298-.442.298-.752h.847c0 .517-.175.934-.525 1.252-.35.318-.81.477-1.383.477zM81.39 61v-5.616h-2.385v-.942h5.844v.942h-2.385V61H81.39zm7.687.12c-.517 0-.97-.104-1.36-.31a2.244 2.244 0 01-.894-.871c-.206-.382-.31-.823-.31-1.324v-1.788c0-.51.104-.95.31-1.324.215-.374.513-.664.895-.87.39-.207.842-.31 1.359-.31s.966.103 1.347.31c.39.206.688.496.895.87.214.373.322.815.322 1.324v1.156h-4.078v.632c0 .517.13.914.393 1.193.262.27.636.405 1.121.405.413 0 .747-.072 1.002-.215a.947.947 0 00.465-.667h1.073c-.072.548-.342.985-.811 1.311-.461.318-1.037.477-1.729.477zm1.514-3.852v-.441c0-.517-.13-.915-.393-1.193-.254-.278-.628-.417-1.121-.417-.485 0-.859.139-1.12.417-.263.278-.394.676-.394 1.193v.345h3.112l-.084.096zm12.81 3.851c-.525 0-.986-.1-1.383-.298a2.148 2.148 0 01-.907-.858c-.214-.382-.322-.831-.322-1.348v-1.788c0-.525.108-.974.322-1.348a2.14 2.14 0 01.907-.858c.397-.2.858-.299 1.383-.299.755 0 1.363.203 1.824.608.461.406.704.958.728 1.658h-1.074c-.023-.421-.167-.743-.429-.966-.254-.23-.604-.346-1.049-.346-.469 0-.843.135-1.121.406-.278.262-.418.64-.418 1.133v1.8c0 .493.14.875.418 1.145.278.27.652.405 1.121.405.445 0 .795-.115 1.049-.346.262-.23.406-.552.429-.965h1.074c-.024.7-.267 1.252-.728 1.657-.461.405-1.069.608-1.824.608zm7.15 0c-.525 0-.986-.1-1.384-.298a2.152 2.152 0 01-.906-.858c-.214-.382-.322-.831-.322-1.348v-1.788c0-.525.108-.974.322-1.348.215-.374.517-.66.906-.858.398-.2.859-.299 1.384-.299.755 0 1.363.203 1.824.608.461.406.704.958.728 1.658h-1.074c-.024-.421-.167-.743-.429-.966-.254-.23-.604-.346-1.049-.346-.469 0-.843.135-1.121.406-.278.262-.418.64-.418 1.133v1.8c0 .493.14.875.418 1.145.278.27.652.405 1.121.405.445 0 .795-.115 1.049-.346.262-.23.405-.552.429-.965h1.074c-.024.7-.267 1.252-.728 1.657-.461.405-1.069.608-1.824.608zm4.324-.119v-6.558h1.001v2.408h.537c.707 0 1.264.187 1.669.56.414.366.62.871.62 1.515 0 .644-.206 1.153-.62 1.527-.405.365-.962.548-1.669.548h-1.538zm1.001-.859h.537c.421 0 .747-.107.978-.322.238-.214.357-.512.357-.894 0-.381-.119-.68-.357-.894-.231-.215-.557-.322-.978-.322h-.537v2.432zm3.601.859v-6.558h1.002V61h-1.002zm2.071.084v-1.002h.214c.366 0 .62-.143.763-.43.151-.286.231-.798.239-1.538l.071-3.672h4.448V61h-1.073v-5.58h-2.313l-.06 2.742c-.016.692-.095 1.252-.238 1.681-.136.43-.35.744-.644.942-.287.2-.664.299-1.133.299h-.274zm8.008-.084v-6.558h1.073v2.706h1.121l1.908-2.706h1.228l-2.206 3.124L134.922 61h-1.252l-1.908-2.922h-1.133V61h-1.073zm8.116 2.146l.966-2.551-2.433-6.153h1.193l1.526 4.054c.056.135.107.298.155.489.048.183.087.338.119.465l.119-.465a5.47 5.47 0 01.144-.49l1.431-4.053h1.156l-3.231 8.704h-1.145zM15.157 77v-6.558h1.073v2.706h1.12l1.909-2.706h1.228l-2.206 3.124L20.523 77H19.27l-1.908-2.921H16.23V77h-1.073zm9.57.095c-.524 0-.977-.099-1.36-.298a2.164 2.164 0 01-.893-.858c-.207-.382-.31-.831-.31-1.348v-1.74c0-.525.103-.975.31-1.348.214-.374.512-.66.894-.859.382-.198.835-.298 1.36-.298.524 0 .977.1 1.359.298.381.2.675.485.882.859.215.373.322.819.322 1.335v1.753c0 .517-.107.966-.322 1.348-.207.373-.5.66-.882.858-.382.199-.835.298-1.36.298zm0-.954c.47 0 .835-.13 1.097-.393.263-.262.394-.648.394-1.157v-1.74c0-.51-.131-.895-.394-1.157-.262-.263-.628-.394-1.097-.394-.46 0-.826.131-1.097.394-.262.262-.393.647-.393 1.156v1.741c0 .51.13.895.393 1.157.27.262.636.393 1.097.393zm3.871.942v-1.001h.215c.365 0 .62-.143.763-.43.15-.286.23-.798.238-1.538l.072-3.672h4.448V77H33.26v-5.58h-2.313l-.06 2.742c-.015.692-.095 1.252-.238 1.681-.135.43-.35.744-.644.942-.286.2-.664.299-1.133.299h-.274zm7.15 0v-1.001h.215c.365 0 .62-.143.763-.43.15-.286.23-.798.238-1.538l.072-3.672h4.448V77H40.41v-5.58h-2.313l-.06 2.742c-.015.692-.095 1.252-.238 1.681-.135.43-.35.744-.644.942-.286.2-.664.299-1.133.299h-.274zm10.43.036c-.518 0-.97-.103-1.36-.31a2.243 2.243 0 01-.895-.87c-.206-.382-.31-.823-.31-1.324v-1.788c0-.51.104-.95.31-1.324.215-.374.513-.664.895-.87.39-.207.842-.31 1.36-.31.516 0 .965.103 1.347.31.39.206.687.496.894.87.215.373.322.815.322 1.323v1.157h-4.078v.632c0 .517.13.914.393 1.193.263.27.636.405 1.121.405.413 0 .747-.072 1.002-.215a.948.948 0 00.465-.667h1.073c-.072.548-.342.985-.81 1.311-.462.318-1.038.477-1.73.477zm1.514-3.851v-.442c0-.516-.132-.914-.394-1.192-.254-.278-.628-.417-1.12-.417-.486 0-.86.139-1.122.417-.262.278-.393.676-.393 1.192v.346h3.112l-.083.096zM51.3 77v-6.558h4.71v.977h-3.637V77H51.3zm8.605.12c-.692 0-1.236-.176-1.634-.525-.397-.358-.596-.84-.596-1.443 0-.612.199-1.093.596-1.443.398-.35.934-.525 1.61-.525h2.027v-.656c0-.405-.123-.715-.37-.93-.238-.222-.58-.334-1.025-.334-.39 0-.716.084-.978.25-.262.16-.413.378-.453.657h-1.073a1.892 1.892 0 01.799-1.348c.46-.334 1.037-.5 1.729-.5.755 0 1.351.194 1.788.584.438.39.656.918.656 1.586V77h-1.05v-1.252h-.178l.179-.179c0 .477-.187.855-.56 1.133-.366.278-.855.417-1.467.417zm.262-.847c.509 0 .926-.128 1.252-.382.326-.254.489-.58.489-.978v-.93h-2.003c-.358 0-.64.1-.847.298-.207.199-.31.47-.31.811 0 .366.123.656.37.87.254.207.604.31 1.05.31zm4.789.727v-6.558h1.455l.858 2.516c.088.254.167.508.239.763.071.246.123.437.155.572.032-.135.08-.326.143-.572.072-.255.147-.513.227-.775l.81-2.504h1.455V77h-1.037v-1.014c0-.357.004-.747.012-1.168l.023-1.276.048-1.216c.016-.39.028-.732.036-1.026l-1.169 3.733H67.08l-1.181-3.709c.016.358.028.803.036 1.335.016.533.028 1.09.036 1.67.016.58.023 1.133.023 1.657V77h-1.037zm8.211 1.908l.954-3.709h1.55l-1.55 3.709h-.954zM15.121 93v-6.558h4.913V93H18.96v-5.58h-2.767V93H15.12zm9.034.12c-.692 0-1.236-.176-1.634-.525-.397-.358-.596-.84-.596-1.443 0-.612.199-1.093.596-1.443.398-.35.934-.525 1.61-.525h2.027v-.656c0-.405-.123-.715-.37-.93-.238-.222-.58-.334-1.025-.334-.39 0-.715.084-.978.25-.262.16-.413.378-.453.657H22.26a1.892 1.892 0 01.799-1.348c.46-.334 1.037-.5 1.729-.5.755 0 1.351.194 1.789.584.437.39.655.918.655 1.586V93h-1.049v-1.252h-.179l.179-.179c0 .477-.187.855-.56 1.133-.366.278-.855.417-1.467.417zm.262-.847c.509 0 .926-.128 1.252-.382.326-.254.49-.58.49-.978v-.93h-2.004c-.358 0-.64.1-.847.298-.206.199-.31.47-.31.811 0 .366.123.656.37.87.254.207.604.31 1.05.31zm4.98 2.873v-8.704h1.073v1.252h.215l-.215.25c0-.5.163-.894.49-1.18.333-.295.77-.442 1.31-.442.66 0 1.185.219 1.575.656.397.43.596 1.022.596 1.777v1.92c0 .5-.091.934-.274 1.3a1.95 1.95 0 01-.752.846c-.318.199-.7.298-1.144.298-.533 0-.966-.147-1.3-.441-.334-.294-.5-.688-.5-1.18l.214.25h-.239l.024 1.49v1.908h-1.073zm2.516-2.957c.453 0 .807-.135 1.061-.405.263-.27.394-.66.394-1.169v-1.788c0-.51-.131-.899-.394-1.17-.254-.27-.608-.404-1.061-.404-.437 0-.787.139-1.05.417-.262.278-.393.664-.393 1.156v1.79c0 .492.131.878.394 1.156.262.278.612.417 1.049.417zm6.578.811v-5.616h-2.385v-.942h5.843v.942h-2.385V93H38.49zm5.23 0v-6.558h1.073v2.73h2.766v-2.73h1.074V93H47.56v-2.85h-2.766V93H43.72zm10.93-7.739a.783.783 0 01-.56-.203c-.136-.135-.203-.318-.203-.548 0-.239.067-.425.202-.56a.758.758 0 01.56-.215c.231 0 .414.071.55.214.142.136.214.322.214.56 0 .231-.072.414-.215.55-.135.135-.318.202-.548.202zm-2.648 0a.783.783 0 01-.56-.203c-.135-.135-.203-.318-.203-.548 0-.239.068-.425.203-.56a.758.758 0 01.56-.215c.231 0 .414.071.549.214.143.136.215.322.215.56 0 .231-.072.414-.215.55-.135.135-.318.202-.548.202zm1.324 7.858c-.517 0-.97-.103-1.36-.31a2.244 2.244 0 01-.894-.87c-.206-.382-.31-.823-.31-1.324v-1.788c0-.51.104-.95.31-1.324.215-.374.513-.664.895-.87.39-.207.842-.31 1.36-.31.516 0 .965.103 1.347.31.39.206.687.496.894.87.215.373.322.815.322 1.323v1.157h-4.078v.632c0 .517.13.914.393 1.193.263.27.636.405 1.121.405.413 0 .747-.072 1.002-.215a.947.947 0 00.465-.667h1.073c-.072.548-.342.985-.81 1.311-.462.318-1.038.477-1.73.477zm1.515-3.851v-.442c0-.516-.132-.914-.394-1.192-.254-.278-.628-.417-1.12-.417-.486 0-.86.139-1.122.417-.262.278-.393.676-.393 1.192v.346h3.112l-.083.096zm3.155 5.878v-8.704h1.073v1.252h.215l-.215.25c0-.5.163-.894.489-1.18.334-.295.771-.442 1.312-.442.66 0 1.184.219 1.574.656.397.43.596 1.022.596 1.777v1.92c0 .5-.092.934-.274 1.3a1.95 1.95 0 01-.752.846c-.318.199-.7.298-1.144.298-.533 0-.966-.147-1.3-.441-.334-.294-.501-.688-.501-1.18l.215.25h-.239l.024 1.49v1.908h-1.073zm2.516-2.957c.453 0 .807-.135 1.061-.405.263-.27.394-.66.394-1.169v-1.788c0-.51-.132-.899-.394-1.17-.254-.27-.608-.404-1.061-.404-.437 0-.787.139-1.05.417-.262.278-.393.664-.393 1.156v1.79c0 .492.131.878.394 1.156.262.278.612.417 1.049.417zm6.542.93c-.692 0-1.237-.175-1.634-.524-.397-.358-.596-.84-.596-1.443 0-.612.199-1.093.596-1.443.397-.35.934-.525 1.61-.525h2.027v-.656c0-.405-.123-.715-.37-.93-.238-.222-.58-.334-1.025-.334-.39 0-.716.084-.978.25-.262.16-.413.378-.453.657h-1.073a1.892 1.892 0 01.799-1.348c.46-.334 1.037-.5 1.729-.5.755 0 1.351.194 1.788.584.438.39.656.918.656 1.586V93h-1.05v-1.252h-.178l.179-.179c0 .477-.187.855-.56 1.133-.366.278-.855.417-1.467.417zm.262-.846c.509 0 .926-.128 1.252-.382.326-.254.489-.58.489-.978v-.93h-2.003c-.358 0-.64.1-.847.298-.207.199-.31.47-.31.811 0 .366.123.656.37.87.254.207.604.31 1.049.31zm4.789.727v-6.558h1.455l.858 2.516c.088.254.167.508.239.763.071.246.123.437.155.572.032-.135.08-.326.143-.572.071-.255.147-.513.227-.775l.81-2.504h1.455V93h-1.037v-1.014c0-.357.004-.747.012-1.168l.023-1.276.048-1.216c.016-.39.028-.732.036-1.026l-1.169 3.733h-1.133l-1.18-3.709c.016.358.028.803.036 1.335.016.533.028 1.09.035 1.67.016.58.024 1.133.024 1.657V93h-1.037zm14.515 0v-6.558h1.025v3.577c0 .23-.008.473-.024.727-.008.255-.024.497-.047.728a7.595 7.595 0 01-.06.572l2.647-5.604h1.371V93h-1.025v-3.577c0-.23.004-.473.012-.728.016-.254.036-.496.06-.727.023-.239.043-.433.059-.584L87.992 93H86.62zm-69.354 16.083c-.691 0-1.26-.147-1.705-.441a1.751 1.751 0 01-.787-1.192h1.133c.056.199.203.362.441.489.247.127.553.191.918.191h.56c.39 0 .692-.092.907-.275a.881.881 0 00.334-.715c0-.318-.108-.569-.322-.751-.207-.183-.513-.275-.918-.275h-1.443v-.93h1.407c.366 0 .644-.087.835-.262a.895.895 0 00.286-.692.908.908 0 00-.131-.501.76.76 0 00-.37-.31 1.551 1.551 0 00-.608-.107h-.596a1.53 1.53 0 00-.823.215c-.23.143-.37.318-.418.524h-1.132c.08-.492.338-.898.775-1.216.437-.318.97-.477 1.598-.477h.596c.469 0 .87.076 1.204.227.334.143.588.349.763.62.183.27.275.592.275.966 0 .389-.127.711-.382.966-.254.246-.612.385-1.073.417v.048c.564.039.974.19 1.228.453.255.262.382.64.382 1.132 0 .581-.215 1.042-.644 1.384-.43.342-1.006.512-1.73.512h-.56zm5.004-.083v-6.558h1.073v2.73h2.766v-2.73h1.074V109H26.11v-2.85h-2.766V109h-1.073zm9.034.119c-.692 0-1.236-.175-1.634-.524-.397-.358-.596-.839-.596-1.443 0-.612.199-1.093.596-1.443.398-.35.934-.525 1.61-.525h2.027v-.656c0-.405-.123-.715-.37-.93-.238-.222-.58-.334-1.025-.334-.39 0-.715.084-.978.251-.262.159-.413.377-.453.656H29.41a1.892 1.892 0 01.799-1.348c.46-.334 1.037-.501 1.729-.501.755 0 1.351.195 1.788.585.438.389.656.918.656 1.586V109h-1.049v-1.252h-.179l.179-.179c0 .477-.187.855-.56 1.133-.366.278-.855.417-1.467.417zm.262-.846c.509 0 .926-.128 1.252-.382.326-.254.49-.58.49-.978v-.93h-2.004c-.358 0-.64.1-.847.298-.206.199-.31.469-.31.811 0 .366.123.656.37.871.254.206.604.31 1.05.31zm5.04.727v-6.558h1.073v2.706h1.12l1.909-2.706h1.228l-2.206 3.124L41.972 109H40.72l-1.907-2.921H37.68V109h-1.073zm9.57.095c-.524 0-.978-.099-1.36-.298a2.162 2.162 0 01-.894-.858c-.206-.382-.31-.831-.31-1.348v-1.741c0-.524.104-.974.31-1.347.215-.374.513-.66.895-.859.381-.198.835-.298 1.36-.298.524 0 .977.1 1.358.298.382.199.676.485.883.859.215.373.322.819.322 1.335v1.753c0 .517-.107.966-.322 1.348-.207.373-.5.66-.883.858-.381.199-.834.298-1.359.298zm0-.954c.47 0 .835-.131 1.097-.393s.394-.648.394-1.157v-1.741c0-.508-.132-.894-.394-1.156-.262-.263-.628-.394-1.097-.394-.46 0-.827.131-1.097.394-.262.262-.393.648-.393 1.156v1.741c0 .509.13.895.393 1.157.27.262.636.393 1.097.393zm4.48.859v-6.558h1.454l.858 2.516c.088.254.167.508.239.763.071.246.123.437.155.572a29 29 0 01.143-.572c.072-.255.147-.513.227-.775l.81-2.504h1.455V109h-1.037v-1.014c0-.357.004-.747.012-1.168l.023-1.276.048-1.216c.016-.39.028-.732.036-1.026l-1.169 3.732H52.78l-1.18-3.708c.015.358.027.803.035 1.336.016.532.028 1.089.036 1.669.015.58.023 1.133.023 1.657V109h-1.037zm7.018 0v-6.558h1.002v2.408h.536c.708 0 1.264.187 1.67.561.413.365.62.87.62 1.514s-.207 1.153-.62 1.526c-.406.366-.962.549-1.67.549h-1.538zm1.002-.859h.536c.421 0 .747-.107.978-.322.238-.214.358-.512.358-.894 0-.381-.12-.68-.358-.894-.23-.215-.557-.322-.978-.322h-.537v2.432zm3.6.859v-6.558h1.002V109h-1.001zm2.679 0v-6.558h1.455l.858 2.516c.088.254.167.508.239.763.071.246.123.437.155.572a29 29 0 01.143-.572c.072-.255.147-.513.227-.775l.81-2.504h1.455V109h-1.037v-1.014c0-.357.004-.747.012-1.168l.023-1.276.048-1.216c.016-.39.028-.732.036-1.026l-1.169 3.732H67.08l-1.181-3.708c.016.358.028.803.036 1.336.016.532.028 1.089.036 1.669.016.58.023 1.133.023 1.657V109h-1.037zm14.515 0v-6.558h2.838c.683 0 1.212.155 1.585.465.374.302.561.727.561 1.276 0 .453-.155.818-.465 1.097-.31.27-.72.405-1.228.405v-.095c.556 0 1.001.139 1.335.417.342.278.513.652.513 1.121 0 .588-.199 1.049-.596 1.383-.398.326-.954.489-1.67.489h-2.873zm1.049-.942h1.824c.382 0 .676-.083.883-.25.214-.167.322-.402.322-.704 0-.31-.108-.548-.322-.715-.207-.167-.501-.251-.883-.251H80.52v1.92zm0-2.85h1.789c.334 0 .596-.079.787-.238.198-.159.298-.382.298-.668 0-.286-.096-.509-.287-.668-.19-.167-.457-.25-.798-.25h-1.79v1.824zM14.906 125v-6.558h1.455l.859 2.516c.087.254.167.508.238.763.072.246.123.437.155.572a29 29 0 01.143-.572c.072-.255.147-.513.227-.775l.81-2.504h1.455V125h-1.037v-1.014c0-.357.004-.747.012-1.168l.024-1.276.047-1.216c.016-.39.028-.732.036-1.026l-1.168 3.732h-1.133l-1.18-3.708c.015.358.027.803.035 1.336.016.532.028 1.089.036 1.669.016.58.024 1.133.024 1.657V125h-1.038zm9.821.119c-.516 0-.97-.103-1.36-.31a2.242 2.242 0 01-.893-.87c-.207-.382-.31-.823-.31-1.324v-1.789c0-.508.103-.95.31-1.323.214-.374.512-.664.894-.871.39-.206.843-.31 1.36-.31.516 0 .965.104 1.347.31.39.207.687.497.894.871.215.373.322.815.322 1.323v1.157h-4.078v.632c0 .517.131.914.393 1.193.263.27.636.405 1.121.405.414 0 .747-.072 1.002-.215a.946.946 0 00.465-.667h1.073c-.071.548-.342.985-.81 1.311-.462.318-1.038.477-1.73.477zm1.515-3.851v-.442c0-.516-.132-.914-.394-1.192-.254-.278-.628-.417-1.12-.417-.486 0-.86.139-1.122.417-.262.278-.393.676-.393 1.192v.346h3.112l-.083.096zm5.66 3.851c-.526 0-.987-.099-1.384-.298a2.151 2.151 0 01-.906-.858c-.215-.382-.322-.831-.322-1.348v-1.789c0-.524.107-.973.322-1.347a2.14 2.14 0 01.906-.859c.397-.198.858-.298 1.383-.298.755 0 1.363.203 1.824.608.462.406.704.958.728 1.658H33.38c-.024-.421-.167-.743-.43-.966-.254-.23-.604-.346-1.049-.346-.469 0-.843.135-1.12.406-.279.262-.418.64-.418 1.133v1.8c0 .493.139.875.417 1.145.278.27.652.405 1.121.405.445 0 .795-.115 1.05-.346.262-.23.405-.552.429-.965h1.073c-.024.699-.266 1.252-.728 1.657-.46.406-1.069.608-1.824.608zm7.15 0c-.526 0-.987-.099-1.384-.298a2.151 2.151 0 01-.906-.858c-.215-.382-.322-.831-.322-1.348v-1.789c0-.524.107-.973.322-1.347a2.14 2.14 0 01.906-.859c.397-.198.858-.298 1.383-.298.755 0 1.363.203 1.825.608.46.406.703.958.727 1.658H40.53c-.024-.421-.167-.743-.43-.966-.254-.23-.604-.346-1.049-.346-.469 0-.843.135-1.12.406-.28.262-.418.64-.418 1.133v1.8c0 .493.139.875.417 1.145.278.27.652.405 1.121.405.445 0 .795-.115 1.05-.346.262-.23.405-.552.429-.965h1.073c-.024.699-.266 1.252-.727 1.657-.462.406-1.07.608-1.825.608zm7.125 0c-.517 0-.97-.103-1.36-.31a2.242 2.242 0 01-.894-.87c-.206-.382-.31-.823-.31-1.324v-1.789c0-.508.104-.95.31-1.323.215-.374.513-.664.895-.871.39-.206.842-.31 1.36-.31.516 0 .965.104 1.347.31.39.207.687.497.894.871.215.373.322.815.322 1.323v1.157h-4.078v.632c0 .517.13.914.393 1.193.263.27.636.405 1.121.405.413 0 .747-.072 1.002-.215a.946.946 0 00.465-.667h1.073c-.072.548-.342.985-.81 1.311-.462.318-1.038.477-1.73.477zm1.515-3.851v-.442c0-.516-.132-.914-.394-1.192-.254-.278-.628-.417-1.12-.417-.486 0-.86.139-1.122.417-.262.278-.393.676-.393 1.192v.346h3.112l-.083.096zM50.87 125v-6.558h1.073v2.73h2.766v-2.73h1.074V125H54.71v-2.85h-2.766V125H50.87zm6.386 1.669v-2.587h.537c.135-.135.274-.402.418-.799.15-.398.23-.902.238-1.515l.072-3.326h4.28v5.64h.835v2.587h-.954V125h-4.471v1.669h-.955zm1.67-2.587h2.802v-4.686h-2.194l-.048 2.396c-.008.628-.075 1.137-.202 1.527-.127.389-.247.644-.358.763zm5.337.918l1.431-3.363-1.335-3.195h1.037l1.145 2.861h.632v-2.861h.906v2.861h.608l1.18-2.861h1.026l-1.335 3.16 1.43 3.398h-1.073l-1.192-2.981h-.644V125h-.906v-2.981h-.644L65.326 125h-1.062zm10.513.119c-.517 0-.97-.103-1.36-.31a2.243 2.243 0 01-.894-.87c-.206-.382-.31-.823-.31-1.324v-1.789c0-.508.104-.95.31-1.323.215-.374.513-.664.895-.871.39-.206.842-.31 1.359-.31s.966.104 1.347.31c.39.207.688.497.895.871.214.373.322.815.322 1.323v1.157h-4.078v.632c0 .517.13.914.393 1.193.262.27.636.405 1.121.405.413 0 .747-.072 1.002-.215a.946.946 0 00.465-.667h1.073c-.072.548-.342.985-.81 1.311-.462.318-1.038.477-1.73.477zm1.514-3.851v-.442c0-.516-.13-.914-.393-1.192-.254-.278-.628-.417-1.121-.417-.485 0-.859.139-1.12.417-.263.278-.394.676-.394 1.192v.346h3.112l-.084.096zm3.156 5.878v-8.704h1.073v1.252h.215l-.215.25c0-.501.163-.894.489-1.18.334-.295.77-.442 1.311-.442.66 0 1.185.219 1.575.656.397.429.596 1.022.596 1.777v1.92c0 .501-.092.934-.275 1.3a1.953 1.953 0 01-.75.846c-.319.199-.7.298-1.145.298-.533 0-.966-.147-1.3-.441-.334-.294-.501-.688-.501-1.18l.215.25h-.239l.024 1.49v1.908h-1.073zm2.516-2.957c.453 0 .807-.135 1.061-.405.262-.271.394-.66.394-1.169v-1.789c0-.508-.132-.898-.394-1.168-.254-.27-.608-.406-1.061-.406-.438 0-.787.14-1.05.418-.262.278-.393.664-.393 1.156v1.789c0 .493.131.879.393 1.157.263.278.612.417 1.05.417zm6.542.93c-.692 0-1.237-.175-1.634-.524-.397-.358-.596-.839-.596-1.443 0-.612.198-1.093.596-1.443.397-.35.934-.525 1.61-.525h2.027v-.656c0-.405-.123-.715-.37-.93-.238-.222-.58-.334-1.025-.334-.39 0-.716.084-.978.251-.262.159-.413.377-.453.656h-1.073a1.893 1.893 0 01.799-1.348c.46-.334 1.037-.501 1.729-.501.755 0 1.351.195 1.788.585.438.389.656.918.656 1.586V125h-1.05v-1.252h-.178l.179-.179c0 .477-.187.855-.56 1.133-.366.278-.855.417-1.467.417zm.262-.846c.509 0 .926-.128 1.252-.382.326-.254.489-.58.489-.978v-.93h-2.003c-.358 0-.64.1-.847.298-.207.199-.31.469-.31.811 0 .366.123.656.37.871.254.206.604.31 1.049.31zm4.479.727l2.325-3.375-2.182-3.183h1.264l1.3 2.027c.055.087.107.183.155.286.055.103.099.187.13.25.025-.063.06-.147.108-.25a4.53 4.53 0 01.167-.286l1.312-2.027h1.252l-2.182 3.195L99.208 125h-1.264l-1.407-2.146a3.482 3.482 0 01-.167-.298 2.57 2.57 0 00-.131-.287c-.032.072-.08.167-.143.287-.056.111-.115.21-.18.298L94.499 125h-1.252zm14.824 0v-6.558h1.026v3.577c0 .23-.008.473-.024.727a10.11 10.11 0 01-.048.728 7.596 7.596 0 01-.059.572l2.647-5.604h1.371V125h-1.025v-3.577c0-.231.004-.473.012-.728.016-.254.035-.497.059-.727l.06-.584-2.647 5.616h-1.372zm6.328.083v-1.001h.214c.366 0 .62-.143.763-.429.151-.287.231-.799.239-1.539l.071-3.672h4.448V125h-1.073v-5.581h-2.313l-.06 2.743c-.016.692-.095 1.252-.238 1.681-.136.43-.35.744-.644.942-.287.199-.664.298-1.133.298h-.274zm7.972-.083v-6.558h1.026v3.577c0 .23-.008.473-.024.727a10.11 10.11 0 01-.048.728 7.596 7.596 0 01-.059.572l2.647-5.604h1.371V125h-1.025v-3.577c0-.231.004-.473.012-.728.016-.254.035-.497.059-.727l.06-.584-2.647 5.616h-1.372zM17.601 141.119c-.524 0-.986-.099-1.383-.298a2.151 2.151 0 01-.906-.858c-.215-.382-.322-.831-.322-1.348v-1.789c0-.524.107-.973.322-1.347a2.14 2.14 0 01.906-.859c.397-.198.858-.298 1.383-.298.755 0 1.364.203 1.825.608.46.406.703.958.727 1.658H19.08c-.024-.421-.167-.743-.43-.966-.254-.23-.604-.346-1.049-.346-.469 0-.842.135-1.12.406-.279.262-.418.64-.418 1.133v1.8c0 .493.139.875.417 1.145.279.27.652.405 1.121.405.445 0 .795-.115 1.05-.346.262-.23.405-.552.429-.965h1.073c-.024.699-.266 1.252-.727 1.657-.461.406-1.07.608-1.825.608zm7.126-.024c-.524 0-.977-.099-1.36-.298a2.162 2.162 0 01-.893-.858c-.207-.382-.31-.831-.31-1.348v-1.741c0-.524.103-.974.31-1.347.214-.374.512-.66.894-.859.382-.198.835-.298 1.36-.298.524 0 .977.1 1.359.298.381.199.675.485.882.859.215.373.322.819.322 1.335v1.753c0 .517-.107.966-.322 1.348-.207.373-.5.66-.882.858-.382.199-.835.298-1.36.298zm0-.954c.47 0 .835-.131 1.097-.393.263-.262.394-.648.394-1.157v-1.741c0-.508-.131-.894-.394-1.156-.262-.263-.628-.394-1.097-.394-.46 0-.826.131-1.097.394-.262.262-.393.648-.393 1.156v1.741c0 .509.13.895.393 1.157.27.262.636.393 1.097.393zm9.356 2.528V141h-4.662v-6.558h1.073v5.604h2.576v-5.604h1.073v5.604h.894v2.623h-.954zM36.571 141v-6.558h1.025v3.577c0 .23-.008.473-.024.727-.008.255-.023.497-.047.728a7.564 7.564 0 01-.06.572l2.647-5.604h1.372V141h-1.026v-3.577c0-.231.004-.473.012-.728a37.495 37.495 0 01.12-1.311L37.941 141H36.57zm9.034.119c-.692 0-1.236-.175-1.634-.524-.397-.358-.596-.839-.596-1.443 0-.612.199-1.093.596-1.443.398-.35.934-.525 1.61-.525h2.027v-.656c0-.405-.123-.715-.37-.93-.238-.222-.58-.334-1.025-.334-.39 0-.715.084-.978.251-.262.159-.413.377-.453.656h-1.073a1.892 1.892 0 01.799-1.348c.46-.334 1.037-.501 1.729-.501.755 0 1.351.195 1.788.585.438.389.656.918.656 1.586V141h-1.05v-1.252h-.178l.179-.179c0 .477-.187.855-.56 1.133-.366.278-.855.417-1.467.417zm.262-.846c.509 0 .926-.128 1.252-.382.326-.254.49-.58.49-.978v-.93h-2.004c-.358 0-.64.1-.847.298-.207.199-.31.469-.31.811 0 .366.123.656.37.871.254.206.604.31 1.05.31zm4.18.81v-1.001h.216c.365 0 .62-.143.763-.429.15-.287.23-.799.238-1.539l.072-3.672h4.448V141H54.71v-5.581h-2.313l-.06 2.743c-.016.692-.095 1.252-.238 1.681-.135.43-.35.744-.644.942-.286.199-.664.298-1.133.298h-.274zm8.021-.083v-6.558h1.074v2.408h1.931c.74 0 1.32.187 1.741.561.43.365.644.87.644 1.514 0 .636-.215 1.141-.644 1.515-.429.373-1.01.56-1.74.56h-3.006zm1.074-.978h1.931c.414 0 .728-.091.942-.274.223-.191.334-.465.334-.823 0-.358-.111-.628-.334-.811-.214-.19-.528-.286-.942-.286h-1.931v2.194zm6.029.978v-6.558h1.073v2.73h2.766v-2.73h1.073V141H69.01v-2.85h-2.766V141H65.17zm6.804 0v-6.558h1.001v2.408h.537c.708 0 1.264.187 1.67.561.413.365.62.87.62 1.514s-.207 1.153-.62 1.526c-.406.366-.962.549-1.67.549h-1.538zm1.001-.859h.537c.421 0 .747-.107.978-.322.238-.214.358-.512.358-.894 0-.381-.12-.68-.358-.894-.23-.215-.557-.322-.978-.322h-.537v2.432zm3.602.859v-6.558h1.001V141h-1.001zm2.368 0l2.325-3.375-2.182-3.183h1.264l1.3 2.027c.055.087.107.183.155.286.055.103.1.187.13.25.025-.063.06-.147.108-.25.056-.103.111-.199.167-.286l1.312-2.027h1.252l-2.182 3.195L84.908 141h-1.264l-1.407-2.146a3.455 3.455 0 01-.167-.298 2.57 2.57 0 00-.131-.287c-.032.072-.08.167-.143.287-.056.111-.115.21-.179.298L80.198 141h-1.252zm17.305.119c-.525 0-.986-.099-1.383-.298a2.151 2.151 0 01-.907-.858c-.214-.382-.322-.831-.322-1.348v-1.789c0-.524.108-.973.322-1.347.215-.374.517-.66.907-.859.397-.198.858-.298 1.383-.298.755 0 1.363.203 1.824.608.461.406.704.958.728 1.658h-1.074c-.023-.421-.167-.743-.429-.966-.254-.23-.604-.346-1.05-.346-.468 0-.842.135-1.12.406-.278.262-.417.64-.417 1.133v1.8c0 .493.139.875.417 1.145.278.27.652.405 1.12.405.446 0 .796-.115 1.05-.346.262-.23.406-.552.43-.965h1.073c-.024.699-.267 1.252-.728 1.657-.46.406-1.069.608-1.824.608zm7.126 0c-.517 0-.97-.103-1.359-.31a2.243 2.243 0 01-.895-.87c-.207-.382-.31-.823-.31-1.324v-1.789c0-.508.103-.95.31-1.323.215-.374.513-.664.895-.871.389-.206.842-.31 1.359-.31s.966.104 1.347.31c.39.207.688.497.895.871.214.373.322.815.322 1.323v1.157h-4.079v.632c0 .517.132.914.394 1.193.262.27.636.405 1.121.405.413 0 .747-.072 1.002-.215a.948.948 0 00.465-.667h1.073c-.072.548-.342.985-.811 1.311-.461.318-1.038.477-1.729.477zm1.514-3.851v-.442c0-.516-.131-.914-.393-1.192-.255-.278-.628-.417-1.121-.417-.485 0-.859.139-1.121.417-.262.278-.394.676-.394 1.192v.346h3.113l-.084.096zM109.99 141v-5.616h-2.385v-.942h5.843v.942h-2.385V141h-1.073zm4.825 0l1.681-2.528c-.501-.119-.89-.35-1.168-.692-.271-.341-.406-.767-.406-1.275 0-.644.211-1.149.632-1.515.43-.366 1.014-.548 1.753-.548h2.826V141h-1.073v-2.444h-1.443l-1.55 2.444h-1.252zm2.492-3.398h1.753v-2.206h-1.753c-.397 0-.711.099-.942.298-.23.19-.346.461-.346.811 0 .341.116.612.346.81.231.191.545.287.942.287zm4.539 3.398l2.325-3.375-2.182-3.183h1.264l1.3 2.027c.055.087.107.183.155.286l.131.25c.024-.063.059-.147.107-.25.056-.103.111-.199.167-.286l1.312-2.027h1.252l-2.182 3.195 2.313 3.363h-1.264l-1.407-2.146a3.455 3.455 0 01-.167-.298 2.791 2.791 0 00-.131-.287c-.032.072-.08.167-.143.287-.056.111-.116.21-.179.298L123.098 141h-1.252z" fill="#000"/><defs><linearGradient id="paint0_linear_418_1997" x1="0" y1="64.888" x2="225.077" y2="64.888" gradientUnits="userSpaceOnUse"><stop stop-color="#F1FFF7"/><stop offset="1" stop-color="#546A65"/></linearGradient><linearGradient id="paint1_linear_418_1997" x1="11.846" y1="7.787" x2="142.781" y2="151.108" gradientUnits="userSpaceOnUse"><stop stop-color="#475E59" stop-opacity=".7"/><stop offset="1" stop-color="#fff" stop-opacity=".7"/></linearGradient></defs></svg>