<svg width="154" height="154" fill="none" xmlns="http://www.w3.org/2000/svg"><rect x=".375" y=".375" width="153.251" height="153.251" rx="17.429" fill="url(#paint0_linear_418_2001)" fill-opacity=".53" stroke="url(#paint1_linear_418_2001)" stroke-width=".749"/><path d="M14.577 28.12c-.604 0-1.133-.1-1.586-.299a2.543 2.543 0 01-1.073-.847 2.438 2.438 0 01-.441-1.3h1.789a.885.885 0 00.393.657c.239.159.545.238.918.238.39 0 .704-.103.942-.31.247-.215.37-.48.37-.799 0-.334-.115-.6-.346-.799-.23-.199-.552-.298-.966-.298h-1.252v-1.61h1.252c.398 0 .708-.103.93-.31.223-.214.334-.469.334-.763a.819.819 0 00-.345-.703c-.223-.167-.53-.25-.919-.25-.326 0-.6.079-.822.238a1.021 1.021 0 00-.418.655H11.55c.047-.5.206-.934.476-1.3.27-.365.628-.647 1.074-.846.453-.199.97-.298 1.55-.298.874 0 1.57.187 2.087.56.524.374.787.887.787 1.539 0 .421-.096.795-.287 1.12a1.913 1.913 0 01-.799.752c-.35.175-.77.262-1.264.262v-.179c.501-.008.939.08 1.312.263.382.182.676.445.883.787.206.333.31.723.31 1.168 0 .533-.128 1.002-.382 1.407a2.549 2.549 0 01-1.085.93c-.461.223-1.006.334-1.634.334zm6.304 0c-.66 0-1.185-.18-1.574-.537-.382-.358-.573-.843-.573-1.455 0-.66.227-1.165.68-1.515.461-.357 1.12-.536 1.98-.536h1.359v-.489a.748.748 0 00-.274-.608c-.175-.151-.414-.227-.716-.227-.278 0-.509.064-.692.191a.782.782 0 00-.333.525h-1.73c.072-.66.358-1.18.86-1.562.508-.39 1.16-.585 1.955-.585.834 0 1.494.207 1.98.62.492.406.738.954.738 1.646V28h-1.729v-1.073h-.286l.298-.418c0 .493-.179.887-.536 1.181-.35.286-.82.43-1.407.43zm.667-1.312c.35 0 .636-.092.859-.275a.916.916 0 00.346-.739v-.704h-1.324c-.27 0-.489.08-.656.239-.167.151-.25.354-.25.608 0 .27.091.485.274.644.183.151.433.227.751.227zm4.539 3.338v-8.704h1.729v1.252h.417l-.417.417c0-.564.155-1.002.465-1.312.31-.318.735-.477 1.276-.477.66 0 1.188.235 1.586.704.397.461.596 1.081.596 1.86v1.67c0 .516-.091.97-.274 1.359a2.08 2.08 0 01-.751.894c-.326.207-.712.31-1.157.31-.54 0-.966-.155-1.276-.465-.31-.318-.465-.759-.465-1.323l.417.417h-.417l.06 1.61v1.788h-1.79zm2.826-3.577c.334 0 .588-.091.763-.274.183-.191.274-.457.274-.8v-1.55c0-.35-.091-.615-.274-.798-.175-.183-.43-.274-.763-.274-.326 0-.58.095-.763.286-.183.183-.274.445-.274.787v1.55c0 .342.091.608.274.799.183.183.437.274.763.274zm6.268 1.55c-.66 0-1.185-.179-1.574-.536-.382-.358-.573-.843-.573-1.455 0-.66.227-1.165.68-1.515.461-.357 1.12-.536 1.98-.536h1.359v-.489a.748.748 0 00-.275-.608c-.175-.151-.413-.227-.715-.227-.278 0-.509.064-.692.191a.782.782 0 00-.334.525h-1.729c.072-.66.358-1.18.859-1.562.509-.39 1.16-.585 1.956-.585.834 0 1.494.207 1.979.62.493.406.74.954.74 1.646V28h-1.73v-1.073h-.286l.298-.418c0 .493-.179.887-.536 1.181-.35.286-.82.43-1.407.43zm.667-1.311c.35 0 .636-.092.859-.275a.916.916 0 00.346-.739v-.704h-1.324c-.27 0-.489.08-.656.239-.167.151-.25.354-.25.608 0 .27.091.485.274.644.183.151.433.227.751.227zm7.33 1.311c-.875-.016-1.57-.254-2.088-.715-.516-.47-.775-1.105-.775-1.908v-2.922c0-1.049.294-1.856.883-2.42.588-.573 1.427-.859 2.516-.859h1.967v1.73h-1.967c-.525 0-.926.13-1.205.393-.27.262-.405.648-.405 1.156v.835h.167l-.143.167c-.008-.445.135-.799.43-1.061.301-.27.73-.406 1.287-.406.691 0 1.228.227 1.61.68.39.453.584 1.081.584 1.884v.823c0 .533-.12 1.002-.358 1.407a2.3 2.3 0 01-.99.918c-.42.207-.926.306-1.514.298zm0-1.55c.349 0 .615-.091.798-.274.183-.191.274-.457.274-.8v-.822c0-.35-.091-.616-.274-.799-.183-.183-.45-.274-.799-.274-.342 0-.608.091-.799.274-.183.183-.274.45-.274.8v.822c0 .342.091.608.274.799.191.183.457.274.8.274zm6.303 1.55c-.66 0-1.185-.179-1.575-.536-.381-.358-.572-.843-.572-1.455 0-.66.227-1.165.68-1.515.46-.357 1.12-.536 1.98-.536h1.359v-.489a.748.748 0 00-.275-.608c-.175-.151-.413-.227-.715-.227-.278 0-.509.064-.692.191a.782.782 0 00-.334.525h-1.729c.072-.66.358-1.18.859-1.562.509-.39 1.16-.585 1.956-.585.834 0 1.494.207 1.979.62.493.406.74.954.74 1.646V28h-1.73v-1.073h-.286l.298-.418c0 .493-.179.887-.536 1.181-.35.286-.82.43-1.407.43zm.667-1.311c.35 0 .636-.092.859-.275a.915.915 0 00.346-.739v-.704h-1.324c-.27 0-.489.08-.656.239-.167.151-.25.354-.25.608 0 .27.091.485.274.644.183.151.433.227.751.227zM56.583 28v-4.889h-2.147v-1.67h6.082v1.67H58.37V28h-1.788zm4.944 0v-6.558h1.49v2.086h.358c.707 0 1.272.207 1.693.62.422.414.632.966.632 1.658 0 .66-.214 1.192-.644 1.598-.421.397-.981.596-1.681.596h-1.848zm1.49-1.371h.358c.286 0 .505-.072.656-.215.159-.143.238-.35.238-.62 0-.286-.08-.505-.238-.656-.151-.159-.37-.238-.656-.238h-.358v1.729zM66.237 28v-6.558h1.49V28h-1.49zm2.738 0v-6.558h2.969c.803 0 1.439.163 1.908.488.477.319.715.752.715 1.3 0 .438-.178.791-.536 1.061-.358.263-.831.394-1.42.394v-.12c.645 0 1.157.144 1.539.43.39.286.584.664.584 1.133 0 .58-.238 1.037-.715 1.371-.47.334-1.11.501-1.92.501h-3.124zm1.753-1.264h1.288c.294 0 .528-.068.703-.203a.667.667 0 00.274-.548.69.69 0 00-.274-.573c-.175-.143-.41-.214-.703-.214h-1.288v1.538zm0-2.588h1.228c.27 0 .485-.063.644-.19a.656.656 0 00.238-.525.67.67 0 00-.238-.537c-.16-.135-.374-.202-.644-.202h-1.228v1.454zm7.352 3.971c-.66 0-1.184-.179-1.574-.536-.381-.358-.572-.843-.572-1.455 0-.66.227-1.165.68-1.515.46-.357 1.12-.536 1.98-.536h1.359v-.489a.748.748 0 00-.275-.608c-.175-.151-.413-.227-.715-.227-.278 0-.509.064-.692.191a.782.782 0 00-.334.525h-1.729c.072-.66.358-1.18.859-1.562.509-.39 1.16-.585 1.955-.585.835 0 1.495.207 1.98.62.493.406.74.954.74 1.646V28h-1.73v-1.073h-.286l.298-.418c0 .493-.179.887-.537 1.181-.35.286-.818.43-1.407.43zm.668-1.311c.35 0 .636-.092.859-.275a.916.916 0 00.346-.739v-.704h-1.324c-.27 0-.489.08-.656.239-.167.151-.25.354-.25.608 0 .27.091.485.274.644.183.151.433.227.751.227zM83.287 28v-6.558h1.574v2.98c0 .2-.012.45-.036.752-.024.294-.056.592-.096.894a11.8 11.8 0 01-.107.8l2.075-5.426h2.17V28h-1.574v-2.981c0-.207.012-.441.036-.704.024-.27.052-.54.084-.81.031-.27.063-.501.095-.692L85.457 28h-2.17zm2.838-7.572c-.652 0-1.185-.163-1.598-.489a1.605 1.605 0 01-.608-1.3h1.37c0 .223.076.406.227.549a.907.907 0 00.609.203c.254 0 .457-.068.608-.203a.723.723 0 00.226-.549h1.372c0 .533-.203.966-.609 1.3-.405.326-.938.489-1.597.489zM92.333 28v-4.889h-2.147v-1.67h6.082v1.67H94.12V28h-1.788zm8.056.12c-.58 0-1.09-.108-1.526-.323a2.49 2.49 0 01-1.002-.918c-.23-.397-.346-.858-.346-1.383v-1.55c0-.525.115-.982.346-1.372a2.384 2.384 0 011.001-.918c.438-.222.947-.334 1.527-.334s1.081.112 1.502.334c.43.215.759.52.99.918.238.39.358.847.358 1.372v1.192H99.22v.358c0 .413.1.727.298.942.2.207.497.31.895.31.278 0 .5-.048.667-.143a.69.69 0 00.346-.394h1.753c-.143.573-.469 1.034-.978 1.384-.501.35-1.105.524-1.812.524zm1.145-3.9v-.298c0-.406-.096-.716-.287-.93-.182-.215-.469-.322-.858-.322-.39 0-.684.111-.883.334-.19.222-.286.536-.286.942v.179l2.433-.024-.119.119zM11.775 44v-6.558h2.97c.802 0 1.438.163 1.907.489.477.318.716.75.716 1.3 0 .436-.18.79-.537 1.06-.358.263-.83.394-1.419.394v-.12c.644 0 1.157.144 1.538.43.39.286.585.664.585 1.133 0 .58-.239 1.037-.716 1.371-.469.334-1.109.501-1.92.501h-3.124zm1.753-1.264h1.288c.294 0 .528-.068.703-.203a.667.667 0 00.275-.548.69.69 0 00-.275-.573c-.175-.143-.41-.214-.703-.214h-1.288v1.538zm0-2.588h1.228c.27 0 .485-.063.644-.19a.656.656 0 00.239-.525.67.67 0 00-.239-.537c-.159-.135-.373-.202-.644-.202h-1.228v1.454zM18.651 44v-6.558h2.015l.775 2.444c.088.278.155.533.203.763a3.2 3.2 0 01.095.501c.016-.111.044-.278.084-.5.047-.231.115-.486.202-.764l.764-2.444h2.015V44H23.17v-1.192c0-.263.004-.557.012-.883l.048-1.025c.024-.358.043-.7.06-1.026.023-.334.047-.628.07-.882l-.87 3.16h-1.514l-.918-3.16c.032.326.064.715.095 1.168.04.454.072.915.096 1.384.024.46.035.882.035 1.264V44h-1.633zm10.238.12c-.58 0-1.089-.108-1.526-.323a2.49 2.49 0 01-1.002-.918c-.23-.397-.346-.858-.346-1.383v-1.55c0-.525.116-.982.346-1.372a2.384 2.384 0 011.002-.918c.437-.222.946-.334 1.526-.334.58 0 1.081.112 1.503.334.429.215.759.52.99.918.238.39.357.847.357 1.372v1.192h-4.018v.358c0 .413.099.727.298.942.198.207.497.31.894.31.278 0 .5-.048.668-.143a.693.693 0 00.346-.394h1.753a2.327 2.327 0 01-.978 1.384c-.501.35-1.105.524-1.813.524zm1.145-3.9v-.298c0-.406-.095-.716-.286-.93-.183-.215-.47-.322-.859-.322-.39 0-.683.111-.882.334-.191.222-.286.536-.286.942v.179l2.432-.024-.12.119zm6.029 3.9c-.58 0-1.09-.108-1.526-.323a2.472 2.472 0 01-1.014-.918c-.238-.397-.358-.858-.358-1.383v-1.55c0-.533.12-.994.358-1.383.239-.39.576-.692 1.014-.907.437-.222.946-.334 1.526-.334.866 0 1.558.219 2.075.656.517.437.79 1.034.823 1.789h-1.79a.899.899 0 00-.333-.656c-.19-.159-.45-.238-.775-.238-.358 0-.632.09-.823.274-.19.183-.286.449-.286.799v1.55c0 .342.095.608.286.799.191.183.465.274.823.274.326 0 .584-.075.775-.227.199-.158.31-.381.334-.667h1.789c-.032.755-.306 1.351-.823 1.788-.517.438-1.209.656-2.075.656zm6.22-.12v-4.889h-2.147v-1.67h6.082v1.67H44.07V44h-1.788zm8.056.12c-.58 0-1.089-.108-1.526-.323a2.49 2.49 0 01-1.002-.918c-.23-.397-.346-.858-.346-1.383v-1.55c0-.525.116-.982.346-1.372a2.384 2.384 0 011.002-.918c.437-.222.946-.334 1.526-.334.58 0 1.081.112 1.503.334.429.215.759.52.99.918.238.39.357.847.357 1.372v1.192H49.17v.358c0 .413.1.727.299.942.198.207.496.31.894.31.278 0 .5-.048.668-.143a.693.693 0 00.346-.394h1.752c-.143.573-.469 1.034-.977 1.384-.501.35-1.105.524-1.813.524zm1.145-3.9v-.298c0-.406-.096-.716-.286-.93-.183-.215-.47-.322-.859-.322-.39 0-.684.111-.882.334-.191.222-.287.536-.287.942v.179l2.433-.024-.12.119zm13.179 3.9c-.58 0-1.09-.108-1.526-.323a2.472 2.472 0 01-1.014-.918c-.238-.397-.358-.858-.358-1.383v-1.55c0-.533.12-.994.358-1.383.238-.39.576-.692 1.014-.907.437-.222.945-.334 1.526-.334.866 0 1.558.219 2.075.656.516.437.79 1.034.823 1.789h-1.79a.899.899 0 00-.333-.656c-.19-.159-.45-.238-.775-.238-.358 0-.632.09-.823.274-.19.183-.286.449-.286.799v1.55c0 .342.095.608.286.799.19.183.465.274.823.274.326 0 .584-.075.775-.227.199-.158.31-.381.334-.667h1.788c-.031.755-.306 1.351-.822 1.788-.517.438-1.209.656-2.075.656zM76.137 44v-6.558h1.788v2.396h2.004v-2.396h1.788V44H79.93v-2.492h-2.004V44h-1.788zm9.093.12c-.66 0-1.184-.18-1.574-.537-.381-.358-.572-.843-.572-1.455 0-.66.227-1.165.68-1.514.46-.358 1.12-.537 1.98-.537h1.358v-.489a.748.748 0 00-.274-.608c-.175-.151-.413-.227-.715-.227-.278 0-.509.064-.692.191a.782.782 0 00-.334.525h-1.729c.072-.66.358-1.18.859-1.562.508-.39 1.16-.585 1.955-.585.835 0 1.495.207 1.98.62.493.406.74.954.74 1.646V44h-1.73v-1.073h-.286l.298-.417c0 .492-.179.886-.537 1.18-.35.286-.818.43-1.407.43zm.668-1.312c.35 0 .636-.092.859-.275a.915.915 0 00.345-.739v-.703H85.78c-.27 0-.49.079-.656.238-.167.151-.25.354-.25.608 0 .27.091.485.274.644.183.151.433.227.751.227zM90.15 44v-6.558h2.016l.775 2.444c.087.278.155.533.202.763.056.223.088.39.096.501.016-.111.044-.278.083-.5a7.93 7.93 0 01.203-.764l.763-2.444h2.015V44H94.67v-1.192c0-.263.004-.557.012-.883l.047-1.025c.024-.358.044-.7.06-1.026.024-.334.048-.628.072-.882l-.87 3.16h-1.515l-.918-3.16c.031.326.063.715.095 1.168.04.454.071.915.095 1.384.024.46.036.882.036 1.264V44H90.15zm7.437 0v-6.558h1.574v2.98c0 .2-.012.45-.036.752-.024.294-.056.592-.096.894a11.8 11.8 0 01-.107.8l2.075-5.426h2.17V44h-1.574v-2.981c0-.207.012-.441.036-.704.024-.27.052-.54.083-.81.032-.27.064-.501.096-.692L99.757 44h-2.17zm-21.283 64v-1.55h2.194v-5.521l-2.218 1.645v-1.848l2.039-1.43h1.967v7.154h1.741V108h-5.723zm9.785.119c-.588 0-1.097-.107-1.526-.322a2.481 2.481 0 01-1.002-.918c-.23-.397-.346-.858-.346-1.383v-3.697c0-.524.115-.981.346-1.371a2.387 2.387 0 011.002-.918c.429-.223.934-.334 1.514-.334.588 0 1.093.111 1.514.334.43.215.76.521.99.918.239.39.358.847.358 1.371v3.697c0 .525-.12.986-.358 1.383a2.4 2.4 0 01-.99.918c-.421.215-.922.322-1.502.322zm-.012-1.55c.374 0 .664-.095.87-.286.215-.191.322-.453.322-.787v-3.697c0-.334-.107-.596-.322-.787-.206-.19-.496-.286-.87-.286s-.668.096-.882.286c-.207.191-.31.453-.31.787v3.697c0 .334.107.596.322.787.214.191.504.286.87.286zm0-2.099a.823.823 0 01-.608-.238.864.864 0 01-.227-.62c0-.255.076-.457.227-.608a.848.848 0 01.608-.227c.254 0 .457.076.608.227.151.151.227.353.227.608a.864.864 0 01-.227.62c-.15.159-.354.238-.608.238zm3.394 3.53l6.296-8.705h1.216L90.687 108h-1.216zm5.425.06c-.516 0-.946-.147-1.287-.442-.334-.294-.501-.683-.501-1.168v-.775c0-.485.167-.875.5-1.169.342-.294.772-.441 1.288-.441.517 0 .942.147 1.276.441.342.294.513.684.513 1.169v.775c0 .485-.17.874-.513 1.168-.334.295-.759.442-1.276.442zm0-1.002c.406 0 .608-.203.608-.608v-.775c0-.414-.202-.62-.608-.62-.405 0-.608.206-.608.62v.775c0 .405.203.608.608.608zm-3.338-3.828c-.501 0-.927-.143-1.276-.429-.342-.286-.513-.68-.513-1.181v-.775c0-.5.17-.894.513-1.18.35-.286.775-.43 1.276-.43.5 0 .922.144 1.263.43.35.286.525.68.525 1.18v.775c0 .501-.175.895-.525 1.181-.341.286-.763.429-1.263.429zm0-.989c.405 0 .608-.207.608-.621v-.775c0-.413-.203-.62-.608-.62-.2 0-.35.052-.454.155-.103.096-.155.251-.155.465v.775c0 .215.052.374.155.477.104.096.255.144.454.144zm15.969 5.878c-.58 0-1.085-.107-1.515-.322a2.478 2.478 0 01-1.001-.918c-.231-.397-.346-.858-.346-1.383v-1.55c0-.525.115-.982.346-1.372a2.385 2.385 0 011.001-.918c.43-.222.935-.334 1.515-.334.588 0 1.093.112 1.514.334.43.215.759.521.99.918.238.39.358.847.358 1.372v1.55c0 .525-.12.986-.358 1.383-.231.39-.56.696-.99.918-.421.215-.926.322-1.514.322zm0-1.55c.35 0 .616-.091.799-.274.183-.191.274-.457.274-.799v-1.55c0-.35-.091-.616-.274-.799-.183-.183-.449-.274-.799-.274-.342 0-.608.091-.799.274-.183.183-.274.449-.274.799v1.55c0 .342.091.608.274.799.191.183.457.274.799.274zm6.255 1.431v-4.889h-2.146v-1.669h6.082v1.669h-2.147V108h-1.789zM11.787 124v-6.558h5.58V124H15.58v-4.889h-2.003V124h-1.789zm9.952.119c-.58 0-1.089-.107-1.526-.322a2.481 2.481 0 01-1.002-.918c-.23-.397-.346-.858-.346-1.383v-1.55c0-.525.116-.982.346-1.372a2.388 2.388 0 011.002-.918c.437-.222.946-.334 1.526-.334.58 0 1.081.112 1.503.334.429.215.759.521.99.918.238.39.357.847.357 1.372v1.192h-4.018v.358c0 .413.099.727.298.942.198.207.497.31.894.31.278 0 .5-.048.668-.143a.696.696 0 00.346-.394h1.752a2.317 2.317 0 01-.977 1.384c-.501.349-1.105.524-1.813.524zm1.145-3.899v-.298c0-.406-.096-.716-.286-.93-.183-.215-.47-.322-.859-.322-.39 0-.684.111-.882.334-.191.222-.286.536-.286.942v.179l2.432-.024-.12.119zm3.203 5.926v-8.704h1.729v1.252h.417l-.417.417c0-.564.155-1.002.465-1.312.31-.318.735-.477 1.276-.477.66 0 1.188.235 1.586.704.397.461.596 1.081.596 1.86v1.67c0 .516-.091.969-.274 1.359-.175.381-.425.68-.751.894-.326.207-.712.31-1.157.31-.54 0-.966-.155-1.276-.465-.31-.318-.465-.759-.465-1.323l.417.417h-.417l.06 1.61v1.788h-1.79zm2.826-3.577c.334 0 .588-.091.763-.274.183-.191.274-.457.274-.799v-1.55c0-.35-.091-.616-.274-.799-.175-.183-.43-.274-.763-.274-.326 0-.58.095-.763.286-.183.183-.274.445-.274.787v1.55c0 .342.091.608.274.799.183.183.437.274.763.274zM33.225 124v-6.558h2.97c.802 0 1.438.163 1.907.488.477.318.716.752.716 1.3 0 .437-.18.791-.537 1.062-.358.262-.83.393-1.42.393v-.119c.645 0 1.158.143 1.54.429.389.286.583.664.583 1.133 0 .58-.238 1.037-.715 1.371-.469.334-1.109.501-1.92.501h-3.124zm1.753-1.264h1.288c.294 0 .528-.068.703-.203a.667.667 0 00.274-.548.692.692 0 00-.274-.573c-.175-.143-.41-.214-.703-.214h-1.288v1.538zm0-2.588h1.228c.27 0 .485-.063.644-.19a.658.658 0 00.239-.525.67.67 0 00-.239-.537c-.159-.135-.374-.202-.644-.202h-1.228v1.454zm8.2 3.971c-.581 0-1.086-.107-1.515-.322a2.481 2.481 0 01-1.002-.918c-.23-.397-.346-.858-.346-1.383v-1.55c0-.525.116-.982.346-1.372a2.388 2.388 0 011.002-.918c.429-.222.934-.334 1.514-.334.588 0 1.093.112 1.515.334.429.215.759.521.99.918.238.39.357.847.357 1.372v1.55c0 .525-.12.986-.358 1.383a2.4 2.4 0 01-.99.918c-.42.215-.926.322-1.514.322zm0-1.55c.349 0 .615-.091.798-.274.183-.191.274-.457.274-.799v-1.55c0-.35-.091-.616-.274-.799-.183-.183-.45-.274-.799-.274-.342 0-.608.091-.799.274-.183.183-.274.449-.274.799v1.55c0 .342.091.608.274.799.191.183.457.274.8.274zM48.12 124v-6.558h5.008v1.669h-3.22V124H48.12zm9.356.119c-.58 0-1.085-.107-1.514-.322a2.48 2.48 0 01-1.002-.918c-.23-.397-.346-.858-.346-1.383v-1.55c0-.525.115-.982.346-1.372a2.387 2.387 0 011.002-.918c.429-.222.934-.334 1.514-.334.588 0 1.093.112 1.515.334.429.215.759.521.99.918.238.39.357.847.357 1.372v1.55c0 .525-.12.986-.358 1.383-.23.39-.56.696-.99.918-.42.215-.926.322-1.514.322zm0-1.55c.35 0 .616-.091.799-.274.183-.191.274-.457.274-.799v-1.55c0-.35-.091-.616-.274-.799-.183-.183-.45-.274-.799-.274-.342 0-.608.091-.799.274-.183.183-.274.449-.274.799v1.55c0 .342.091.608.274.799.191.183.457.274.8.274zM72.731 124v-2.087a5.52 5.52 0 01-.453.084 5.738 5.738 0 01-.68.035c-.866 0-1.55-.214-2.05-.643-.502-.438-.752-1.038-.752-1.801v-2.146h1.789v2.027a.86.86 0 00.322.703c.214.167.504.251.87.251.223 0 .417-.012.584-.036.175-.032.298-.06.37-.084v-2.861h1.789V124h-1.79zm6.208.119c-.58 0-1.09-.107-1.526-.322a2.481 2.481 0 01-1.002-.918c-.23-.397-.346-.858-.346-1.383v-1.55c0-.525.115-.982.346-1.372a2.388 2.388 0 011.002-.918c.437-.222.946-.334 1.526-.334.58 0 1.081.112 1.502.334.43.215.76.521.99.918.239.39.358.847.358 1.372v1.192H77.77v.358c0 .413.1.727.298.942.2.207.497.31.895.31.278 0 .5-.048.668-.143a.696.696 0 00.345-.394h1.753c-.143.573-.469 1.034-.978 1.384-.5.349-1.105.524-1.812.524zm1.145-3.899v-.298c0-.406-.096-.716-.287-.93-.182-.215-.469-.322-.858-.322-.39 0-.684.111-.882.334-.191.222-.287.536-.287.942v.179l2.433-.024-.12.119zm3.238 3.78v-6.558h1.79v2.48h.882l1.37-2.48h1.992l-1.824 3.207 1.86 3.351h-2.027l-1.383-2.576h-.87V124h-1.79zm9.058.119c-.66 0-1.184-.179-1.574-.536-.381-.358-.572-.843-.572-1.455 0-.66.227-1.165.68-1.515.46-.357 1.12-.536 1.979-.536h1.36v-.489a.748.748 0 00-.275-.608c-.175-.151-.413-.227-.715-.227-.279 0-.51.064-.692.191a.781.781 0 00-.334.525h-1.729c.072-.66.358-1.181.859-1.562.508-.39 1.16-.585 1.955-.585.835 0 1.495.207 1.98.62.493.406.74.954.74 1.646V124h-1.73v-1.073h-.286l.298-.418c0 .493-.179.887-.537 1.181-.35.286-.818.429-1.407.429zm.668-1.311c.35 0 .636-.092.859-.275a.914.914 0 00.345-.739v-.704H92.93c-.27 0-.49.08-.656.239-.167.151-.25.354-.25.608 0 .27.091.485.274.644.183.151.433.227.751.227zm7.329 1.311c-.366 0-.66-.107-.882-.322-.215-.222-.323-.516-.323-.882 0-.374.108-.668.323-.883.222-.214.516-.321.882-.321.374 0 .668.107.882.321.215.215.322.509.322.883 0 .366-.107.66-.322.882-.214.215-.508.322-.882.322z" fill="#CCEC60"/><path d="M111.099 40.542v-.954h7.155v.954h-7.155zM12.157 60v-6.558h1.073v2.706h1.12l1.909-2.706h1.228l-2.206 3.124L17.523 60H16.27l-1.908-2.922H13.23V60h-1.073zm9.57.095c-.524 0-.977-.099-1.36-.298a2.164 2.164 0 01-.893-.858c-.207-.382-.31-.831-.31-1.348v-1.74c0-.525.103-.974.31-1.348.214-.374.512-.66.894-.859.382-.198.835-.298 1.36-.298.524 0 .977.1 1.359.298.381.2.675.485.882.859.215.373.322.819.322 1.335v1.753c0 .517-.107.966-.322 1.348-.207.373-.5.66-.882.858-.382.199-.835.298-1.36.298zm0-.954c.47 0 .835-.13 1.097-.393.263-.262.394-.648.394-1.157v-1.74c0-.51-.131-.895-.394-1.157-.262-.263-.628-.394-1.097-.394-.46 0-.826.131-1.097.394-.262.262-.393.648-.393 1.156v1.741c0 .51.13.895.393 1.157.27.262.636.393 1.097.393zM26.85 60v-6.558h4.71v.977h-3.637V60H26.85zm5.958 1.67v-2.588h.536c.135-.135.274-.402.418-.8.15-.397.23-.901.238-1.513l.072-3.327h4.28v5.64h.835v2.587h-.954V60h-4.471v1.67h-.954zm1.669-2.588h2.802v-4.687h-2.194l-.047 2.397c-.008.628-.076 1.137-.203 1.527-.127.39-.247.644-.358.763zm8.128 1.037c-.692 0-1.236-.175-1.634-.524-.397-.358-.596-.84-.596-1.443 0-.612.199-1.093.596-1.443.398-.35.934-.525 1.61-.525h2.027v-.656c0-.405-.123-.715-.37-.93-.238-.222-.58-.334-1.025-.334-.39 0-.715.084-.978.25-.262.16-.413.378-.453.657h-1.073a1.892 1.892 0 01.799-1.348c.46-.334 1.037-.5 1.729-.5.755 0 1.351.194 1.788.584.438.39.656.918.656 1.586V60h-1.05v-1.252h-.178l.179-.179c0 .477-.187.855-.56 1.133-.366.278-.855.417-1.467.417zm.262-.846c.509 0 .926-.128 1.252-.382.326-.254.49-.58.49-.978v-.93h-2.004c-.358 0-.64.1-.847.298-.207.199-.31.47-.31.811 0 .366.123.656.37.87.254.207.604.31 1.05.31zM55.021 60v-6.558h4.913V60H58.86v-5.58h-2.766V60H55.02zm9.606.095c-.525 0-.978-.099-1.36-.298a2.164 2.164 0 01-.894-.858c-.206-.382-.31-.831-.31-1.348v-1.74c0-.525.104-.974.31-1.348.215-.374.513-.66.895-.859.381-.198.834-.298 1.36-.298.524 0 .977.1 1.358.298.382.2.676.485.883.859.215.373.322.819.322 1.335v1.753c0 .517-.108.966-.322 1.348-.207.373-.501.66-.883.858-.381.199-.834.298-1.359.298zm0-.954c.47 0 .835-.13 1.097-.393.262-.262.394-.648.394-1.157v-1.74c0-.51-.132-.895-.394-1.157-.262-.263-.628-.394-1.097-.394-.461 0-.827.131-1.097.394-.262.262-.394.648-.394 1.156v1.741c0 .51.132.895.394 1.157.27.262.636.393 1.097.393zM76.471 60v-6.558h2.838c.683 0 1.212.155 1.585.465.374.302.561.727.561 1.276 0 .453-.155.818-.465 1.097-.31.27-.72.405-1.228.405v-.095c.556 0 1.001.139 1.335.417.342.278.513.652.513 1.12 0 .59-.199 1.05-.596 1.384-.398.326-.954.489-1.67.489h-2.873zm1.049-.942h1.824c.382 0 .676-.084.883-.25.214-.167.322-.402.322-.704 0-.31-.108-.548-.322-.715-.207-.167-.501-.25-.883-.25H77.52v1.919zm0-2.85h1.789c.334 0 .596-.08.787-.238.198-.16.298-.382.298-.668 0-.286-.096-.509-.287-.668-.19-.167-.457-.25-.798-.25h-1.79v1.824zm7.985 3.911c-.692 0-1.237-.175-1.634-.524-.397-.358-.596-.84-.596-1.443 0-.612.198-1.093.596-1.443.397-.35.934-.525 1.61-.525h2.027v-.656c0-.405-.123-.715-.37-.93-.238-.222-.58-.334-1.025-.334-.39 0-.716.084-.978.25-.262.16-.413.378-.453.657h-1.073a1.892 1.892 0 01.799-1.348c.46-.334 1.037-.5 1.729-.5.755 0 1.351.194 1.788.584.438.39.656.918.656 1.586V60h-1.05v-1.252h-.178l.179-.179c0 .477-.187.855-.56 1.133-.366.278-.855.417-1.467.417zm.262-.846c.509 0 .926-.128 1.252-.382.326-.254.489-.58.489-.978v-.93h-2.003c-.358 0-.64.1-.847.298-.207.199-.31.47-.31.811 0 .366.123.656.37.87.254.207.604.31 1.049.31zm4.67.727l-.024-6.558h1.001v5.747h1.396v-5.747h.858v5.747h1.383v-5.747h.99V60h-5.604zm9.94.12c-.517 0-.97-.104-1.36-.31a2.243 2.243 0 01-.894-.871c-.207-.382-.31-.823-.31-1.324v-1.788c0-.51.103-.95.31-1.324a2.24 2.24 0 01.894-.87c.39-.207.843-.31 1.36-.31.517 0 .966.103 1.347.31.39.206.688.496.895.87.214.373.322.815.322 1.324v1.156h-4.079v.632c0 .517.132.914.394 1.193.262.27.636.405 1.121.405.413 0 .747-.072 1.002-.215a.95.95 0 00.465-.667h1.073c-.072.548-.342.985-.811 1.311-.461.318-1.038.477-1.729.477zm1.514-3.852v-.441c0-.517-.131-.915-.393-1.193-.255-.278-.628-.417-1.121-.417-.485 0-.859.139-1.121.417-.262.278-.394.676-.394 1.193v.345h3.113l-.084.096zM105.07 60v-6.558h1.026v3.577c0 .23-.008.473-.024.727a10.11 10.11 0 01-.048.728 7.575 7.575 0 01-.059.572l2.647-5.604h1.371V60h-1.025v-3.577c0-.23.004-.473.012-.728.016-.254.035-.496.059-.727l.06-.584L106.442 60h-1.372zm2.505-7.632c-.573 0-1.034-.159-1.384-.477-.349-.318-.524-.735-.524-1.252h.846c0 .31.096.56.286.752.191.19.446.286.764.286.326 0 .584-.096.775-.286.198-.191.298-.442.298-.752h.846c0 .517-.174.934-.524 1.252-.35.318-.811.477-1.383.477zM14.601 76.12c-.525 0-.986-.1-1.383-.298a2.147 2.147 0 01-.906-.858c-.215-.382-.322-.831-.322-1.348v-1.788c0-.525.107-.974.322-1.348.214-.374.516-.66.906-.858.397-.2.858-.299 1.383-.299.755 0 1.363.203 1.825.608.46.406.703.958.727 1.658H16.08c-.024-.421-.167-.743-.43-.966-.254-.23-.604-.346-1.049-.346-.469 0-.843.135-1.12.406-.279.262-.418.64-.418 1.132v1.801c0 .493.139.875.417 1.145.278.27.652.405 1.121.405.445 0 .795-.115 1.05-.346.262-.23.405-.552.429-.965h1.073c-.024.7-.266 1.252-.727 1.657-.461.406-1.07.608-1.825.608zm7.15 0c-.524 0-.986-.1-1.383-.298a2.148 2.148 0 01-.906-.858c-.215-.382-.322-.831-.322-1.348v-1.788c0-.525.107-.974.322-1.348.214-.374.516-.66.906-.858.397-.2.859-.299 1.383-.299.755 0 1.363.203 1.825.608.46.406.703.958.727 1.658H23.23c-.024-.421-.167-.743-.43-.966-.254-.23-.604-.346-1.049-.346-.469 0-.843.135-1.12.406-.279.262-.418.64-.418 1.132v1.801c0 .493.139.875.417 1.145.279.27.652.405 1.121.405.445 0 .795-.115 1.05-.346.262-.23.405-.552.429-.965h1.073c-.024.7-.266 1.252-.727 1.657-.462.406-1.07.608-1.825.608zm4.324-.12v-6.558h1.002v2.408h.536c.708 0 1.264.187 1.67.56.413.366.62.871.62 1.515 0 .644-.207 1.153-.62 1.526-.406.366-.962.549-1.67.549h-1.538zm1.002-.859h.536c.422 0 .747-.107.978-.322.238-.214.358-.512.358-.894 0-.381-.12-.68-.358-.894-.23-.215-.556-.322-.978-.322h-.536v2.432zm3.6.859v-6.558h1.003V76h-1.002zm2.071.084v-1.002h.215c.365 0 .62-.143.763-.43.15-.286.23-.798.238-1.538l.072-3.672h4.448V76H37.41v-5.58h-2.313l-.06 2.742c-.015.692-.095 1.252-.238 1.681-.135.43-.35.744-.644.942-.286.2-.664.299-1.133.299h-.274zM40.757 76v-6.558h1.073v2.706h1.12l1.908-2.706h1.229l-2.206 3.124L46.123 76H44.87l-1.907-2.921H41.83V76h-1.073zm9.57.12c-.517 0-.97-.104-1.36-.31a2.244 2.244 0 01-.894-.871c-.206-.382-.31-.823-.31-1.324v-1.788c0-.51.104-.95.31-1.324.215-.374.513-.664.895-.87.39-.207.842-.31 1.36-.31.516 0 .965.103 1.347.31.39.206.687.496.894.87.215.373.322.815.322 1.323v1.157h-4.078v.632c0 .517.13.914.393 1.193.263.27.636.405 1.121.405.413 0 .747-.072 1.002-.215a.947.947 0 00.465-.667h1.073c-.072.548-.342.985-.81 1.311-.462.318-1.038.477-1.73.477zm1.515-3.852v-.442c0-.516-.132-.914-.394-1.192-.254-.278-.628-.417-1.12-.417-.486 0-.86.139-1.122.417-.262.278-.393.676-.393 1.192v.346h3.112l-.083.096zm12.785 3.827c-.525 0-.978-.099-1.36-.298a2.164 2.164 0 01-.894-.858c-.206-.382-.31-.831-.31-1.348v-1.74c0-.525.104-.975.31-1.348.215-.374.513-.66.895-.859.381-.198.834-.298 1.36-.298.524 0 .977.1 1.358.298.382.2.676.485.883.859.215.373.322.819.322 1.335v1.753c0 .517-.108.966-.322 1.348-.207.373-.501.66-.883.858-.381.199-.834.298-1.359.298zm0-.954c.47 0 .835-.13 1.097-.393.262-.262.394-.648.394-1.157v-1.74c0-.51-.132-.895-.394-1.157-.262-.263-.628-.394-1.097-.394-.461 0-.827.131-1.097.394-.262.262-.394.647-.394 1.156v1.741c0 .51.132.895.394 1.157.27.262.636.393 1.097.393zm6.673 3.005V76c-.763 0-1.363-.215-1.8-.644-.438-.43-.656-1.017-.656-1.765v-1.764c0-.74.218-1.32.656-1.742.445-.429 1.045-.643 1.8-.643v-2.147h.954v2.147c.763 0 1.363.214 1.8.644.438.42.656 1.001.656 1.74v1.765c0 .748-.218 1.336-.655 1.765-.438.43-1.038.644-1.801.644v2.146H71.3zm.024-2.993v-4.865c-.461 0-.823.135-1.085.406-.263.27-.394.647-.394 1.132v1.765c0 .485.131.867.394 1.145.262.278.624.417 1.085.417zm.906 0c.47 0 .83-.139 1.085-.417.263-.278.394-.66.394-1.145v-1.764c0-.486-.131-.863-.394-1.133-.254-.27-.616-.406-1.085-.406v4.865zm6.697.942c-.525 0-.978-.099-1.36-.298a2.164 2.164 0 01-.894-.858c-.206-.382-.31-.831-.31-1.348v-1.74c0-.525.104-.975.31-1.348.215-.374.513-.66.895-.859.381-.198.834-.298 1.359-.298s.978.1 1.36.298c.38.2.675.485.882.859.214.373.322.819.322 1.335v1.753c0 .517-.108.966-.322 1.348-.207.373-.501.66-.883.858-.381.199-.834.298-1.359.298zm0-.954c.469 0 .835-.13 1.097-.393.262-.262.394-.648.394-1.157v-1.74c0-.51-.132-.895-.394-1.157-.262-.263-.628-.394-1.097-.394-.461 0-.827.131-1.097.394-.262.262-.394.647-.394 1.156v1.741c0 .51.132.895.394 1.157.27.262.636.393 1.097.393zm4.67 3.005v-8.704h1.073v1.252h.215l-.215.25c0-.5.163-.894.489-1.18.334-.295.77-.442 1.311-.442.66 0 1.185.219 1.575.656.397.43.596 1.022.596 1.777v1.92c0 .5-.092.934-.275 1.3a1.95 1.95 0 01-.75.846c-.319.199-.7.298-1.145.298-.533 0-.966-.147-1.3-.441-.334-.294-.501-.688-.501-1.18l.215.25h-.239l.024 1.49v1.908h-1.073zm2.516-2.957c.453 0 .807-.135 1.061-.405.262-.27.393-.66.393-1.169v-1.788c0-.51-.13-.899-.393-1.17-.254-.27-.608-.404-1.061-.404-.438 0-.787.139-1.05.417-.262.278-.393.664-.393 1.156v1.79c0 .492.131.878.393 1.156.263.278.612.417 1.05.417zm4.443.811v-6.558h1.455l.858 2.516c.088.254.167.508.239.763.071.246.123.437.155.572.031-.135.08-.326.143-.572.071-.255.147-.513.226-.775l.811-2.504h1.455V76h-1.037v-1.014c0-.357.004-.747.011-1.168l.024-1.276.048-1.216c.016-.39.028-.732.036-1.026l-1.169 3.733h-1.133l-1.18-3.709c.016.358.028.803.036 1.335.016.533.027 1.09.035 1.67.016.58.024 1.133.024 1.657V76h-1.037zm6.959 0l1.681-2.528c-.5-.12-.89-.35-1.168-.692-.27-.341-.406-.767-.406-1.276 0-.643.211-1.148.632-1.514.43-.366 1.014-.548 1.753-.548h2.826V76h-1.073v-2.445h-1.443L98.767 76h-1.252zm2.492-3.398h1.753v-2.207h-1.753c-.397 0-.711.1-.942.299-.23.19-.346.46-.346.81 0 .342.116.613.346.811.23.191.545.287.942.287zM106.99 76v-5.616h-2.385v-.942h5.843v.942h-2.385V76h-1.073zM14.267 92.084c-.691 0-1.26-.148-1.705-.442a1.753 1.753 0 01-.787-1.192h1.133c.056.199.203.361.441.489.246.127.553.19.918.19h.56c.39 0 .692-.09.907-.274a.882.882 0 00.334-.715c0-.318-.108-.569-.322-.751-.207-.183-.513-.275-.918-.275h-1.443v-.93h1.407c.366 0 .644-.087.835-.262a.894.894 0 00.286-.692.904.904 0 00-.131-.5.758.758 0 00-.37-.31 1.54 1.54 0 00-.608-.108h-.596a1.53 1.53 0 00-.823.215c-.23.143-.37.318-.418.524h-1.132c.08-.493.338-.898.775-1.216.437-.318.97-.477 1.598-.477h.596c.469 0 .87.076 1.204.227.334.143.588.35.763.62.183.27.275.592.275.966 0 .39-.127.711-.382.965-.254.247-.612.386-1.073.418v.048c.564.04.974.19 1.228.453.255.262.382.64.382 1.132 0 .58-.215 1.042-.644 1.384-.43.342-1.006.513-1.73.513h-.56zm6.888.035c-.692 0-1.236-.175-1.634-.524-.397-.358-.596-.84-.596-1.443 0-.612.199-1.093.596-1.443.398-.35.934-.525 1.61-.525h2.027v-.656c0-.405-.123-.715-.37-.93-.238-.222-.58-.334-1.025-.334-.39 0-.715.084-.978.25-.262.16-.413.378-.453.657H19.26a1.892 1.892 0 01.799-1.348c.46-.334 1.037-.5 1.729-.5.755 0 1.351.194 1.789.584.437.39.655.918.655 1.586V92h-1.049v-1.252h-.179l.179-.179c0 .477-.187.855-.56 1.133-.366.278-.855.417-1.467.417zm.262-.846c.509 0 .926-.128 1.252-.382.326-.254.49-.58.49-.978v-.93h-2.004c-.358 0-.64.1-.847.298-.206.199-.31.47-.31.811 0 .366.123.656.37.87.254.207.604.31 1.05.31zm5.04.727v-6.558h1.073v2.706h1.12l1.909-2.706h1.228l-2.206 3.124L31.823 92H30.57l-1.907-2.921H27.53V92h-1.073zm8.998.12c-.692 0-1.236-.176-1.634-.525-.397-.358-.596-.84-.596-1.443 0-.612.199-1.093.596-1.443.398-.35.934-.525 1.61-.525h2.027v-.656c0-.405-.123-.715-.37-.93-.238-.222-.58-.334-1.025-.334-.39 0-.716.084-.978.25-.262.16-.413.378-.453.657H33.56a1.892 1.892 0 01.799-1.348c.46-.334 1.037-.5 1.729-.5.755 0 1.351.194 1.788.584.438.39.656.918.656 1.586V92h-1.049v-1.252h-.179l.179-.179c0 .477-.187.855-.56 1.133-.366.278-.855.417-1.467.417zm.262-.847c.509 0 .926-.128 1.252-.382.326-.254.49-.58.49-.978v-.93h-2.004c-.358 0-.64.1-.847.298-.206.199-.31.47-.31.811 0 .366.123.656.37.87.254.207.604.31 1.05.31zm7.15.81c-.691 0-1.26-.147-1.705-.44a1.753 1.753 0 01-.787-1.193h1.133c.055.199.203.361.441.489.246.127.553.19.918.19h.56c.39 0 .692-.09.907-.274a.882.882 0 00.334-.715c0-.318-.108-.569-.322-.751-.207-.183-.513-.275-.918-.275h-1.443v-.93h1.407c.365 0 .644-.087.834-.262a.894.894 0 00.287-.692.903.903 0 00-.131-.5.758.758 0 00-.37-.31 1.541 1.541 0 00-.608-.108h-.597c-.318 0-.592.072-.822.215-.23.143-.37.318-.418.524h-1.132c.08-.493.337-.898.775-1.216.437-.318.97-.477 1.597-.477h.597c.469 0 .87.076 1.204.227.334.143.588.35.763.62.183.27.274.592.274.966 0 .39-.127.711-.381.965-.255.247-.612.386-1.073.418v.048c.564.04.974.19 1.228.453.254.262.382.64.382 1.132 0 .58-.215 1.042-.644 1.384-.43.342-1.006.513-1.73.513h-.56zm5.85 1.825l.954-3.709h1.55l-1.55 3.709h-.954zM62.171 92v-6.558h2.838c.683 0 1.212.155 1.586.465.373.302.56.727.56 1.276 0 .453-.155.818-.465 1.097-.31.27-.72.405-1.228.405v-.095c.556 0 1.001.139 1.335.417.342.278.513.652.513 1.12 0 .59-.199 1.05-.596 1.384-.398.326-.954.489-1.67.489h-2.873zm1.049-.942h1.824c.382 0 .676-.084.883-.25.214-.167.322-.402.322-.704 0-.31-.108-.549-.322-.715-.207-.167-.501-.25-.883-.25H63.22v1.919zm0-2.85h1.789c.334 0 .596-.08.787-.238.198-.16.298-.382.298-.668 0-.286-.096-.509-.286-.668-.191-.167-.458-.25-.8-.25H63.22v1.824zM68.975 92v-6.558h1.001v2.408h.537c.708 0 1.264.187 1.67.56.413.366.62.871.62 1.515 0 .644-.207 1.153-.62 1.526-.406.366-.962.549-1.67.549h-1.538zm1.001-.859h.537c.421 0 .747-.107.978-.322.238-.214.358-.512.358-.894 0-.381-.12-.68-.358-.894-.23-.215-.557-.322-.978-.322h-.537v2.432zm3.602.859v-6.558h1.001V92h-1.001zM12.12 108v-6.558h4.913V108H15.96v-5.581h-2.767V108H12.12zm9.606.095c-.524 0-.977-.099-1.36-.298a2.162 2.162 0 01-.893-.858c-.207-.382-.31-.831-.31-1.348v-1.741c0-.524.103-.974.31-1.347.214-.374.512-.66.894-.859.382-.198.835-.298 1.36-.298.524 0 .977.1 1.359.298.381.199.675.485.882.859.215.373.322.819.322 1.335v1.753c0 .517-.107.966-.322 1.348-.207.373-.5.66-.882.858-.382.199-.835.298-1.36.298zm0-.954c.47 0 .835-.131 1.097-.393.263-.262.394-.648.394-1.157v-1.741c0-.508-.131-.894-.394-1.156-.262-.263-.628-.394-1.097-.394-.46 0-.826.131-1.097.394-.262.262-.393.648-.393 1.156v1.741c0 .509.13.895.393 1.157.27.262.636.393 1.097.393zm3.871.942v-1.001h.215c.365 0 .62-.143.763-.429.15-.287.23-.799.238-1.539l.072-3.672h4.448V108H30.26v-5.581h-2.314l-.06 2.743c-.015.692-.095 1.252-.238 1.681-.135.43-.35.744-.644.942-.286.199-.664.298-1.133.298h-.274zm8.974 2.063l.966-2.551-2.432-6.153h1.192l1.526 4.054c.056.135.108.298.156.489l.119.465c.032-.127.071-.282.119-.465a5.47 5.47 0 01.143-.489l1.431-4.054h1.157l-3.232 8.704h-1.145zM44.49 108v-2.385a5.181 5.181 0 01-.584.096 9.016 9.016 0 01-.811.035c-.811.008-1.443-.187-1.896-.584-.446-.405-.668-.97-.668-1.693v-2.027h1.073v2.027c0 .405.135.727.406.966.278.23.66.345 1.144.345.334 0 .616-.012.847-.035.238-.032.401-.06.489-.084v-3.219h1.073V108H44.49zm3.382 0v-6.558h1.025v3.577c0 .23-.008.473-.024.727-.008.255-.023.497-.047.728a7.558 7.558 0 01-.06.572l2.647-5.604h1.372V108h-1.026v-3.577c0-.231.004-.473.012-.728a37.495 37.495 0 01.12-1.311L49.241 108H47.87zm9.07 0v-5.616h-2.385v-.942H60.4v.942h-2.385V108H56.94zm7.686.119c-.517 0-.97-.103-1.36-.31a2.242 2.242 0 01-.894-.87c-.206-.382-.31-.823-.31-1.324v-1.789c0-.508.104-.95.31-1.323.215-.374.513-.664.895-.871.39-.206.842-.31 1.36-.31.516 0 .965.104 1.347.31.389.207.687.497.894.871.215.373.322.815.322 1.323v1.157h-4.078v.632c0 .517.13.914.393 1.193.263.27.636.405 1.121.405.413 0 .747-.072 1.002-.215a.946.946 0 00.465-.667h1.073c-.072.548-.342.985-.81 1.311-.462.318-1.038.477-1.73.477zm1.514-3.851v-.442c0-.516-.13-.914-.393-1.192-.254-.278-.628-.417-1.12-.417-.486 0-.86.139-1.122.417-.262.278-.393.676-.393 1.192v.346h3.112l-.084.096z" fill="#000"/><defs><linearGradient id="paint0_linear_418_2001" x1="0" y1="64.888" x2="225.077" y2="64.888" gradientUnits="userSpaceOnUse"><stop stop-color="#F1FFF7"/><stop offset="1" stop-color="#546A65"/></linearGradient><linearGradient id="paint1_linear_418_2001" x1="11.846" y1="7.787" x2="142.781" y2="151.108" gradientUnits="userSpaceOnUse"><stop stop-color="#475E59" stop-opacity=".7"/><stop offset="1" stop-color="#fff" stop-opacity=".7"/></linearGradient></defs></svg>