<svg width="70" height="71" viewBox="0 0 70 71" fill="none" xmlns="http://www.w3.org/2000/svg">
<g clip-path="url(#clip0_519_801)">
<path d="M15.103 14.9919C21.9938 18.9444 34.6597 19.065 35.0001 19.0697C27.9485 18.1383 8.77721 14.1386 11.1648 8.09169C13.5452 2.06136 29.2747 12.7982 34.9433 18.9964C34.9646 19.0177 34.9811 19.039 34.9906 19.0484C34.993 19.0508 34.9953 19.0531 34.9977 19.0579V19.0602C34.9977 19.0602 34.9977 19.0602 35.0001 19.0602C35.0001 19.0602 35.0001 19.0602 35.0024 19.0626V19.0579C35.0048 19.0555 35.0071 19.0531 35.0095 19.0484C35.019 19.0366 35.0379 19.0177 35.0568 18.9964C40.7254 12.7959 56.4549 2.06136 58.8354 8.09169C61.2205 14.1409 42.0516 18.1383 35.0001 19.0697C35.3428 19.065 48.0063 18.9444 54.8971 14.9919C65.1092 9.12944 57.8023 -2.35915 49.4175 1.29545C46.6659 2.49395 44.1697 4.8224 42.0516 7.40379C41.2668 8.3659 40.5316 9.36347 39.8555 10.3516C36.9195 14.6492 35.1183 18.7766 34.9977 19.0508C34.8771 18.7766 33.0758 14.6492 30.1399 10.3516C29.4661 9.36347 28.731 8.3659 27.9438 7.40379C25.8281 4.8224 23.3294 2.49395 20.5778 1.29545C12.1978 -2.36152 4.88858 9.12708 15.103 14.9919Z" fill="#223B38"/>
<path d="M35.0001 19.0697C34.6597 19.065 21.9938 18.9444 15.103 14.9919C4.88858 9.12708 12.1978 -2.36152 20.5778 1.29545C23.3294 2.49395 25.8281 4.8224 27.9438 7.40379C28.731 8.3659 29.4661 9.36347 30.1399 10.3516C33.0758 14.6492 34.8771 18.7766 34.9977 19.0508C35.1183 18.7766 36.9196 14.6492 39.8555 10.3516C40.5316 9.36347 41.2668 8.3659 42.0516 7.40379C44.1697 4.8224 46.6659 2.49395 49.4175 1.29545C57.8023 -2.35915 65.1092 9.12944 54.8971 14.9919C48.0063 18.9444 35.3428 19.065 35.0001 19.0697ZM35.0001 19.0697C27.9485 18.1383 8.77721 14.1386 11.1648 8.09169C13.5452 2.06136 29.2747 12.7982 34.9433 18.9964C34.9646 19.0177 34.9811 19.039 34.9906 19.0484C34.993 19.0508 34.9953 19.0531 34.9977 19.0579V19.0602C34.9977 19.0602 34.9977 19.0602 35.0001 19.0602C35.0001 19.0602 35.0001 19.0602 35.0024 19.0626V19.0579C35.0048 19.0555 35.0071 19.0531 35.0095 19.0484C35.019 19.0366 35.0379 19.0177 35.0568 18.9964C40.7254 12.7959 56.4549 2.06136 58.8353 8.09169C61.2205 14.1409 42.0516 18.1383 35.0001 19.0697Z" stroke="#CCEC60" stroke-width="1.18195" stroke-miterlimit="10"/>
<path d="M68.5915 19.3462H1.40918V30.3124H4.47517V70.409H65.5255V30.3124H68.5915V19.3462Z" fill="#223B38" stroke="#CCEC60" stroke-width="1.18195" stroke-miterlimit="10"/>
<path d="M24.157 55.0673C23.8402 55.0673 23.5234 55.0838 23.209 55.0626C22.8379 55.0389 22.4597 55.0224 22.1051 54.8924C21.812 54.786 21.6087 54.5685 21.5094 54.2706C21.351 53.7931 21.1855 53.318 21.0555 52.8334C21.0011 52.6301 20.883 52.5781 20.7104 52.5214C20.24 52.3653 19.7719 52.1999 19.3133 52.0084C18.9445 51.8547 18.5947 51.6585 18.2377 51.4789C18.181 51.4505 18.1361 51.4505 18.0841 51.4789C17.7484 51.6538 17.4151 51.8287 17.0794 51.9966C16.8572 52.1077 16.6397 52.2282 16.4057 52.3086C16.122 52.4055 15.8431 52.3441 15.5925 52.1786C14.8952 51.7129 14.3042 51.1266 13.7416 50.512C13.4579 50.2024 13.1932 49.869 12.9473 49.5263C12.7204 49.2072 12.7156 48.8455 12.8882 48.498C13.127 48.0181 13.3799 47.5477 13.6281 47.0725C13.6683 46.9945 13.673 46.9307 13.6281 46.8503C13.309 46.2948 13.0442 45.7157 12.8291 45.1129C12.7275 44.8316 12.64 44.5455 12.5525 44.2595C12.5289 44.1791 12.4911 44.1366 12.4107 44.1106C11.8741 43.9427 11.3328 43.7796 10.8032 43.5905C10.4605 43.4699 10.2501 43.2099 10.1792 42.8482C10.009 41.9807 10.0066 41.1037 10.0468 40.2267C10.061 39.9146 10.1012 39.605 10.1413 39.2929C10.2075 38.7705 10.4723 38.4443 10.99 38.2954C11.4746 38.1535 11.9545 37.9904 12.4367 37.8391C12.5005 37.8202 12.5289 37.7824 12.5478 37.7209C12.8031 36.8037 13.1624 35.9291 13.6328 35.1017C13.6707 35.0355 13.6778 34.9788 13.6376 34.9055C13.3988 34.4516 13.1672 33.9954 12.9284 33.5415C12.7062 33.1184 12.7275 32.7189 13.0111 32.3265C13.5548 31.5748 14.2073 30.9247 14.9046 30.3172C15.0985 30.147 15.3041 29.9909 15.5098 29.8373C15.8904 29.5536 16.2899 29.5418 16.7083 29.7664C17.1645 30.0122 17.6255 30.2486 18.0888 30.485C18.129 30.5063 18.1999 30.5015 18.2401 30.4803C18.8334 30.1446 19.4528 29.8633 20.0958 29.6364C20.344 29.5489 20.5969 29.4709 20.8522 29.4C20.9491 29.3716 20.9964 29.322 21.0224 29.2298C21.1075 28.939 21.1997 28.6506 21.2919 28.3622C21.3605 28.1471 21.4267 27.932 21.4976 27.7169C21.637 27.2937 21.942 27.0668 22.3698 26.9935C23.261 26.8422 24.157 26.854 25.0529 26.8966C25.3555 26.9108 25.6557 26.9533 25.9559 27.0053C26.431 27.0881 26.6982 27.393 26.8305 27.8445C26.9535 28.2677 27.0953 28.6861 27.2277 29.1068C27.2371 29.1352 27.2513 29.1612 27.2537 29.1896C27.2655 29.3409 27.3648 29.3811 27.4948 29.4165C27.795 29.504 28.0905 29.6033 28.386 29.7096C28.9179 29.9035 29.4308 30.1351 29.9202 30.4188C30.0738 30.5086 30.1826 30.4992 30.3315 30.4188C30.7925 30.1682 31.2581 29.9247 31.7333 29.6978C32.0666 29.5394 32.407 29.5796 32.7072 29.7924C32.9743 29.9815 33.2391 30.1824 33.4826 30.3999C34.0357 30.8916 34.5582 31.4116 35.0215 31.9908C35.1846 32.1965 35.3666 32.395 35.447 32.6551C35.5297 32.9222 35.5321 33.1917 35.4044 33.4446C35.1704 33.9079 34.9317 34.3689 34.6858 34.8251C34.6196 34.9481 34.622 35.0379 34.6858 35.1679C34.9269 35.6478 35.161 36.1347 35.3666 36.6312C35.5155 36.9857 35.6172 37.3616 35.7354 37.7304C35.7543 37.7895 35.7827 37.8226 35.8418 37.8391C36.2034 37.9526 36.5675 38.0661 36.9268 38.1842C37.1561 38.2599 37.3901 38.3261 37.6076 38.4301C37.8771 38.5601 38.0378 38.7965 38.0946 39.092C38.2648 39.9761 38.2837 40.8673 38.2222 41.7608C38.2009 42.0587 38.1726 42.3589 38.1371 42.6544C38.1017 42.9688 37.9953 43.2548 37.7282 43.4463C37.6218 43.522 37.5012 43.5834 37.3783 43.626C36.863 43.7985 36.3405 43.9593 35.8252 44.1271C35.7898 44.1389 35.7496 44.1815 35.7401 44.2169C35.499 45.0798 35.1728 45.9119 34.7331 46.692C34.6149 46.9 34.6267 47.0442 34.7355 47.2404C34.9718 47.6588 35.1941 48.0843 35.3974 48.5193C35.5581 48.8597 35.5439 49.2095 35.3288 49.531C34.9009 50.174 34.3643 50.7248 33.8041 51.2496C33.5133 51.5214 33.2013 51.7744 32.894 52.0297C32.6387 52.2424 32.3526 52.3795 32.0075 52.3393C31.8066 52.3157 31.634 52.2235 31.4591 52.1313C31.0359 51.9115 30.6128 51.6916 30.1873 51.4765C30.1495 51.4576 30.0856 51.46 30.0455 51.4789C29.7074 51.6443 29.3741 51.824 29.0337 51.98C28.5089 52.2211 27.9652 52.4126 27.4073 52.5663C27.3222 52.5899 27.2844 52.6372 27.2608 52.7128C27.0953 53.2376 26.944 53.7671 26.7644 54.2872C26.6391 54.6536 26.3625 54.8687 25.9819 54.9467C25.3767 55.0696 24.7645 55.0744 24.1522 55.0626L24.157 55.0673ZM33.0311 41.0162C33.0571 36.1229 29.1164 32.1255 24.2113 32.0925C19.24 32.057 15.2758 36.0733 15.2545 40.9477C15.2308 45.8291 19.2069 49.869 24.1333 49.8761C29.0053 49.8832 33.0264 45.9237 33.0311 41.0186V41.0162Z" fill="#2F5954" stroke="#CCEC60" stroke-width="1.18195" stroke-miterlimit="10"/>
<path d="M47.253 64.0312C47.0355 64.0312 46.8157 64.0407 46.5982 64.0288C46.3406 64.0123 46.0805 64.0005 45.8347 63.9106C45.6314 63.8374 45.4919 63.6884 45.4234 63.4804C45.3146 63.1518 45.1988 62.8232 45.109 62.4876C45.0711 62.3481 44.9908 62.3126 44.8702 62.2724C44.5463 62.1637 44.2225 62.0502 43.9057 61.9179C43.6528 61.8115 43.4093 61.6767 43.1635 61.5515C43.1256 61.5325 43.0949 61.5325 43.0571 61.5515C42.8254 61.672 42.5961 61.7926 42.3621 61.9084C42.2084 61.9841 42.0571 62.0692 41.8964 62.1235C41.7002 62.1897 41.5087 62.1495 41.3362 62.0337C40.8539 61.7122 40.445 61.308 40.0573 60.8825C39.8611 60.6674 39.6791 60.4381 39.5089 60.2017C39.3528 59.9818 39.3481 59.7312 39.4687 59.4901C39.6341 59.1592 39.8067 58.833 39.9793 58.5067C40.0076 58.4524 40.01 58.4075 39.9793 58.3531C39.7594 57.9701 39.5774 57.5683 39.4285 57.1522C39.3599 56.9584 39.2985 56.7598 39.237 56.5612C39.2205 56.5069 39.1945 56.4761 39.1377 56.4596C38.7666 56.3438 38.3931 56.2303 38.0267 56.1003C37.7903 56.0175 37.6461 55.8379 37.5965 55.5873C37.4783 54.9892 37.4759 54.3817 37.5043 53.7766C37.5137 53.5614 37.5421 53.3463 37.5681 53.1312C37.613 52.7719 37.7974 52.545 38.1543 52.4433C38.49 52.3464 38.821 52.2329 39.1543 52.1289C39.1992 52.1147 39.2181 52.0887 39.2299 52.0462C39.4072 51.4127 39.6531 50.8099 39.9793 50.2378C40.0053 50.1929 40.01 50.1527 39.984 50.103C39.8185 49.791 39.6601 49.4742 39.4947 49.1622C39.341 48.8691 39.3552 48.5949 39.5514 48.323C39.9273 47.803 40.3788 47.3538 40.8586 46.9354C40.9934 46.8196 41.1352 46.7108 41.2771 46.6045C41.5395 46.4083 41.816 46.4012 42.1044 46.5548C42.4212 46.725 42.738 46.8881 43.0571 47.0512C43.0854 47.0654 43.1327 47.0631 43.1611 47.0489C43.5724 46.8172 43.9979 46.6234 44.4423 46.465C44.6149 46.4035 44.7898 46.3515 44.9648 46.3019C45.0309 46.283 45.064 46.2475 45.083 46.1837C45.142 45.9828 45.2059 45.7842 45.2697 45.5856C45.317 45.4367 45.3643 45.2878 45.4115 45.1412C45.5085 44.8481 45.7188 44.6921 46.0143 44.6424C46.6289 44.5384 47.2483 44.5455 47.8676 44.5739C48.0757 44.5833 48.2837 44.6117 48.4893 44.6471C48.8179 44.7039 49.0023 44.9143 49.0921 45.2263C49.1772 45.5194 49.2742 45.8078 49.3664 46.0986C49.3734 46.1175 49.3829 46.1364 49.3853 46.1553C49.3924 46.2593 49.4633 46.2877 49.5507 46.3137C49.7588 46.3728 49.9621 46.4414 50.1654 46.517C50.5318 46.6494 50.8887 46.8101 51.2244 47.0063C51.3308 47.0678 51.4064 47.0607 51.5081 47.0063C51.8272 46.8338 52.1487 46.6659 52.4749 46.5099C52.7066 46.3988 52.9406 46.4295 53.1462 46.5761C53.3306 46.7061 53.5127 46.8456 53.6829 46.9969C54.0658 47.3349 54.4251 47.6966 54.7442 48.0961C54.8577 48.2379 54.983 48.375 55.0397 48.5547C55.0965 48.7391 55.0988 48.9258 55.009 49.1008C54.8483 49.4199 54.6828 49.739 54.5126 50.0558C54.4677 50.1409 54.4677 50.2023 54.5126 50.2922C54.6804 50.6231 54.8412 50.9588 54.983 51.3016C55.0847 51.5474 55.1556 51.8074 55.2383 52.0604C55.2525 52.1005 55.2714 52.1242 55.3116 52.136C55.5622 52.214 55.8127 52.292 56.0609 52.3748C56.2193 52.4268 56.3824 52.4717 56.5314 52.545C56.7181 52.6348 56.8292 52.7979 56.867 53.0012C56.9852 53.6111 56.9971 54.2281 56.9545 54.845C56.9403 55.0507 56.919 55.2564 56.8954 55.462C56.8694 55.6795 56.7985 55.8757 56.6117 56.0081C56.5385 56.0601 56.4557 56.1026 56.3706 56.131C56.0137 56.2492 55.6544 56.3603 55.2974 56.4761C55.2738 56.4832 55.2454 56.514 55.2383 56.5376C55.0728 57.1333 54.8483 57.7077 54.5433 58.2467C54.4629 58.3909 54.47 58.4902 54.5457 58.6249C54.7088 58.9133 54.8624 59.2088 55.0043 59.509C55.1154 59.7454 55.1059 59.9866 54.957 60.2088C54.6615 60.6532 54.2904 61.0338 53.9027 61.3954C53.7018 61.5846 53.4866 61.7571 53.2739 61.9344C53.0966 62.081 52.9004 62.1755 52.6616 62.1472C52.5222 62.1306 52.404 62.0668 52.2834 62.003C51.9903 61.8517 51.6995 61.698 51.404 61.5515C51.378 61.5373 51.3331 61.5396 51.3071 61.5515C51.0731 61.6649 50.8438 61.7902 50.6074 61.899C50.2457 62.0668 49.8699 62.1968 49.4845 62.3032C49.4255 62.3197 49.3995 62.3528 49.3829 62.4048C49.2694 62.7689 49.1631 63.1329 49.0401 63.4922C48.9527 63.7452 48.7636 63.8941 48.4988 63.9485C48.0804 64.0336 47.6573 64.0359 47.2341 64.0288L47.253 64.0312ZM53.3803 54.325C53.3968 50.9446 50.676 48.1859 47.2885 48.1623C43.8561 48.1386 41.1187 50.9115 41.1021 54.2777C41.0856 57.6486 43.8324 60.4381 47.2341 60.4428C50.598 60.4475 53.3755 57.7125 53.3803 54.325Z" fill="#2F5954" stroke="#CCEC60" stroke-width="0.709173" stroke-miterlimit="10"/>
<path d="M49.5076 42.165C49.3657 42.165 49.2215 42.1721 49.0821 42.165C48.9142 42.1556 48.744 42.1461 48.5856 42.0894C48.4533 42.0421 48.3634 41.9452 48.3185 41.8104C48.2476 41.5953 48.1719 41.3826 48.1152 41.1627C48.0916 41.0705 48.0372 41.0493 47.9616 41.0233C47.7512 40.9524 47.5384 40.8791 47.3328 40.7916C47.1673 40.7231 47.0089 40.6356 46.8482 40.5529C46.8222 40.541 46.8032 40.541 46.7796 40.5529C46.6283 40.6309 46.4794 40.7089 46.3281 40.7869C46.2288 40.8365 46.1295 40.8909 46.0255 40.9264C45.8979 40.9689 45.7726 40.9429 45.6591 40.8673C45.3447 40.6569 45.08 40.3945 44.827 40.1179C44.6994 39.9784 44.5788 39.8295 44.4701 39.6735C44.3684 39.5293 44.3661 39.3685 44.4441 39.2102C44.5504 38.995 44.6639 38.7823 44.7774 38.5695C44.7963 38.5341 44.7987 38.5057 44.7774 38.4702C44.6332 38.2197 44.515 37.9596 44.4181 37.6878C44.3731 37.5601 44.333 37.4325 44.2928 37.3025C44.281 37.267 44.2644 37.2481 44.2289 37.2363C43.9878 37.1606 43.7443 37.0874 43.5056 37.0023C43.3519 36.9479 43.2574 36.8321 43.2243 36.6689C43.1486 36.2789 43.1463 35.8841 43.1652 35.4894C43.1723 35.3499 43.1888 35.2081 43.2077 35.0686C43.2361 34.8346 43.3567 34.688 43.5883 34.6194C43.8058 34.5556 44.0233 34.4823 44.2408 34.4138C44.2691 34.4043 44.2833 34.3878 44.2904 34.3594C44.4062 33.9457 44.567 33.5533 44.7774 33.1798C44.7939 33.1491 44.7963 33.1255 44.7797 33.0924C44.6734 32.8891 44.5693 32.6834 44.4606 32.4777C44.3613 32.2863 44.3708 32.1066 44.4984 31.9317C44.7443 31.5936 45.0374 31.3005 45.3494 31.0263C45.4369 30.9507 45.5291 30.8797 45.6213 30.8112C45.7939 30.6835 45.9735 30.6788 46.1603 30.7781C46.3659 30.8892 46.5739 30.9956 46.782 31.1019C46.8009 31.1114 46.8316 31.109 46.8505 31.1019C47.1176 30.9507 47.3966 30.8254 47.685 30.7214C47.7961 30.6812 47.9119 30.6481 48.0254 30.615C48.0679 30.6032 48.0892 30.5795 48.1034 30.5393C48.1412 30.4093 48.1838 30.2793 48.224 30.1493C48.2547 30.0524 48.2854 29.9554 48.3161 29.8585C48.38 29.6694 48.5147 29.5654 48.7086 29.5323C49.1081 29.4638 49.5123 29.4685 49.9165 29.4874C50.0513 29.4945 50.1884 29.5134 50.3231 29.537C50.5359 29.5749 50.6564 29.712 50.7155 29.9153C50.7722 30.1067 50.8337 30.2935 50.8952 30.4826C50.8999 30.4944 50.907 30.5062 50.907 30.5204C50.9117 30.589 50.9566 30.6055 51.0157 30.6221C51.1505 30.6599 51.2852 30.7048 51.4152 30.7545C51.654 30.8419 51.8856 30.9459 52.1055 31.0736C52.174 31.1138 52.2237 31.109 52.2899 31.0736C52.4979 30.9601 52.7083 30.8514 52.921 30.7497C53.0723 30.6788 53.2236 30.6977 53.3584 30.7923C53.4789 30.8774 53.5971 30.9672 53.7082 31.0665C53.9564 31.2863 54.1928 31.5227 54.4008 31.7827C54.4741 31.8749 54.5569 31.9648 54.5923 32.0806C54.6301 32.2012 54.6301 32.3217 54.5734 32.4352C54.4694 32.6432 54.3607 32.8512 54.2496 33.0569C54.2212 33.1113 54.2212 33.1515 54.2496 33.2106C54.3583 33.4257 54.4623 33.6455 54.5569 33.8677C54.6231 34.0285 54.6703 34.1963 54.7223 34.3618C54.7318 34.3878 54.7436 34.402 54.7696 34.4114C54.9327 34.4634 55.0958 34.5131 55.2589 34.5674C55.363 34.6005 55.467 34.6313 55.5639 34.6785C55.6844 34.7376 55.7577 34.844 55.7837 34.9764C55.8617 35.3735 55.8688 35.7754 55.8405 36.1773C55.831 36.312 55.8192 36.4467 55.8026 36.5791C55.7861 36.721 55.7388 36.8486 55.6183 36.9361C55.571 36.9692 55.5166 36.9975 55.4599 37.0164C55.2282 37.0945 54.9942 37.1654 54.7602 37.241C54.7436 37.2457 54.7271 37.2647 54.7223 37.2812C54.6136 37.6689 54.467 38.0447 54.2685 38.3946C54.2165 38.4892 54.2212 38.553 54.2685 38.6428C54.3748 38.8319 54.4741 39.0234 54.5663 39.2172C54.6396 39.3709 54.6325 39.5269 54.5356 39.6735C54.3418 39.9619 54.1006 40.2101 53.8501 40.4465C53.7177 40.5694 53.5782 40.6829 53.4411 40.7963C53.3253 40.8909 53.1976 40.9547 53.0416 40.9358C52.9518 40.9263 52.8738 40.8838 52.7958 40.8412C52.6043 40.742 52.4152 40.6427 52.2237 40.5458C52.2071 40.5363 52.1788 40.5387 52.1599 40.5458C52.0062 40.619 51.8573 40.7018 51.7036 40.7727C51.4672 40.8814 51.2214 40.9665 50.9708 41.0351C50.933 41.0445 50.9141 41.0682 50.9046 41.1013C50.8313 41.3377 50.7628 41.5764 50.6801 41.8104C50.6233 41.9759 50.5004 42.0728 50.3278 42.1083C50.056 42.1627 49.7794 42.165 49.5052 42.1603L49.5076 42.165ZM53.5002 35.8416C53.512 33.6408 51.7391 31.8418 49.5312 31.8253C47.2949 31.8088 45.5102 33.6171 45.5007 35.8109C45.4913 38.0069 47.2808 39.8248 49.4957 39.8271C51.6871 39.8295 53.4978 38.0471 53.5002 35.8416Z" fill="#2F5954" stroke="#CCEC60" stroke-width="0.709173" stroke-miterlimit="10"/>
</g>
<defs>
<clipPath id="clip0_519_801">
<rect width="68.3643" height="71" fill="white" transform="translate(0.818359)"/>
</clipPath>
</defs>
</svg>
