<svg width="72" height="72" fill="none" xmlns="http://www.w3.org/2000/svg"><path d="M35.952 71.124c-1.46 0-2.918-.056-4.365-.308-1.146-.204-1.889-.845-2.236-1.959-.36-1.16-.746-2.313-1.093-3.476-.095-.315-.238-.483-.568-.578a28.173 28.173 0 01-6.215-2.575c-.267-.15-.466-.13-.722.007-1.086.578-2.19 1.125-3.28 1.7-1.033.546-2.021.493-2.96-.197-2.373-1.741-4.422-3.812-6.188-6.163-.75-.995-.806-2.033-.207-3.133.575-1.05 1.1-2.13 1.668-3.181.154-.284.133-.494-.021-.768a27.46 27.46 0 01-2.547-6.12c-.102-.368-.288-.533-.638-.638-1.163-.347-2.316-.733-3.472-1.097-1.076-.336-1.724-1.048-1.896-2.165-.456-2.909-.438-5.82-.039-8.735.176-1.28.88-2.068 2.127-2.421 1.136-.323 2.25-.719 3.378-1.066.28-.084.427-.22.508-.511a28.342 28.342 0 012.6-6.258c.15-.266.13-.47-.007-.725-.585-1.1-1.153-2.211-1.731-3.319-.519-.998-.477-1.965.19-2.873a29.22 29.22 0 016.19-6.226c1.002-.743 2.036-.799 3.133-.203 1.055.571 2.13 1.097 3.188 1.657.26.137.456.147.722 0a28.517 28.517 0 016.216-2.575c.305-.088.459-.231.55-.536.36-1.195.75-2.38 1.125-3.567.333-1.051 1.026-1.7 2.123-1.878a28.217 28.217 0 018.97-.007c1.132.179 1.846.848 2.183 1.944.36 1.178.753 2.345 1.114 3.522.084.277.21.43.508.515a28.783 28.783 0 016.265 2.593c.245.136.427.143.676.01 1.086-.578 2.186-1.128 3.276-1.703 1.044-.55 2.046-.518 3.006.186a28.763 28.763 0 016.297 6.328c.637.876.672 1.825.171 2.789-.581 1.121-1.156 2.246-1.752 3.36-.14.263-.136.463.008.722a28.11 28.11 0 012.592 6.261c.08.295.239.42.515.508 1.192.365 2.376.754 3.567 1.128 1.076.337 1.724 1.052 1.896 2.166a29.334 29.334 0 010 8.928c-.172 1.11-.827 1.825-1.903 2.161-1.205.375-2.407.775-3.612 1.146-.249.077-.375.2-.445.452a28.432 28.432 0 01-2.642 6.35c-.133.234-.105.406.01.63.593 1.114 1.167 2.242 1.752 3.36.519.999.477 1.966-.189 2.873a29.074 29.074 0 01-6.272 6.286c-.935.687-1.927.746-2.96.2-1.087-.578-2.19-1.125-3.28-1.7-.256-.136-.452-.157-.722-.007a28.122 28.122 0 01-6.265 2.59c-.294.08-.42.238-.504.518-.364 1.195-.757 2.376-1.128 3.567-.344 1.1-1.09 1.713-2.215 1.91-1.478.256-2.968.315-4.464.308l.014-.007zm.067-13.013c12.165 0 22.074-9.898 22.078-22.053.003-12.242-9.857-22.13-22.085-22.144-12.19-.014-22.095 9.88-22.106 22.077-.01 12.215 9.888 22.116 22.113 22.12z" fill="#223B38" stroke="#CCEC60" stroke-width="1.752" stroke-miterlimit="10"/><path d="M36.205 57.277c11.68 0 21.149-9.469 21.149-21.15 0-11.68-9.469-21.148-21.15-21.148-11.68 0-21.148 9.469-21.148 21.149 0 11.68 9.468 21.149 21.149 21.149z" fill="#223B38"/><path d="M34.366 46.124l1.247-2.368c.102-.193.007-.347-.09-.505a128.72 128.72 0 01-.52-.844 5.174 5.174 0 002.317.017c0 .252-.133.414-.249.543-.36.414-.319.789-.042 1.237.36.582.655 1.206.995 1.843.263-.256.315-.553.428-.816.413-.967.812-1.934 1.201-2.912.109-.277.221-.385.54-.284 2.256.698 4.4 1.633 6.314 3.038.939.69 1.53 1.657 2 2.702.593 1.317.862 2.712 1.003 4.141.042.42-.148.659-.435.911-7.046 6.153-17.593 6.42-24.961.62-.025-.02-.053-.042-.077-.063-1.402-1.163-1.202-.69-.999-2.4.207-1.766.771-3.42 1.847-4.87.354-.48.784-.88 1.272-1.223 1.832-1.286 3.857-2.158 5.98-2.835.358-.115.523-.035.66.32.42 1.068.872 2.123 1.317 3.184.063.147.133.291.256.564h-.004zm1.913-22.393c.693.025 1.377.084 2.053.242 2.698.63 4.289 2.54 4.481 5.396.032.442.028.887.028 1.328 0 .231.053.333.323.368.914.119 1.324.711 1.096 1.598-.238.928-.574 1.818-1.279 2.512-.2.196-.196.441-.248.676-.53 2.484-1.934 4.285-4.254 5.315-1.79.8-3.563.628-5.235-.378-1.91-1.15-3.136-2.807-3.552-5.021a1.427 1.427 0 00-.368-.722c-.663-.74-1.024-1.64-1.195-2.607-.126-.721.29-1.289 1.016-1.356.427-.042.455-.238.445-.57-.028-.89.031-1.774.28-2.632.659-2.299 2.428-3.746 4.937-4.037.487-.056.981-.077 1.472-.112z" fill="#CCEC60"/></svg>