<svg width="78" height="63" fill="none" xmlns="http://www.w3.org/2000/svg"><path d="M53.336 45.902c-7.033 3.069-14.066 6.137-21.097 9.21-.237.104-.356.124-.523-.144-.418-.67-1.064-.976-1.853-.92-.781.057-1.342.464-1.678 1.169-.227.474-.277.969-.093 1.468.065.181-.017.242-.16.304-.633.274-1.262.55-1.894.826-2.42 1.056-4.84 2.107-7.255 3.17-.232.102-.338.072-.48-.143-.84-1.272-2.155-1.729-3.593-1.258-.161.051-.225.01-.286-.131a131.4 131.4 0 00-.873-2.001c-.063-.145-.026-.223.09-.316.42-.338.534-.789.326-1.24-.193-.424-.64-.66-1.132-.56-.17.035-.224-.032-.278-.162-.127-.304-.253-.61-.396-.907-.084-.176-.069-.281.09-.415.537-.452.52-1.186-.019-1.605a.934.934 0 00-.798-.172c-.154.032-.231.007-.29-.14-.138-.341-.289-.68-.443-1.014-.056-.13-.03-.204.082-.294.433-.348.549-.778.348-1.233-.199-.448-.617-.664-1.149-.573-.131.023-.196 0-.247-.12a44.252 44.252 0 00-.454-1.042c-.057-.131-.025-.204.086-.29.43-.339.544-.782.34-1.236-.203-.456-.61-.664-1.147-.565-.133.024-.196-.005-.247-.121a43.18 43.18 0 00-.466-1.068c-.054-.125-.015-.182.086-.26.433-.33.557-.778.358-1.233-.2-.458-.615-.678-1.143-.578-.15.028-.211-.01-.265-.138a44.07 44.07 0 00-.454-1.04c-.05-.116-.036-.181.073-.266.433-.33.56-.781.371-1.228-.192-.453-.59-.67-1.138-.596-.152.021-.23-.017-.287-.16-.134-.332-.283-.66-.43-.987-.054-.122-.05-.196.073-.287.43-.324.554-.784.358-1.233-.2-.458-.606-.671-1.141-.581-.144.025-.216-.013-.27-.14a41.83 41.83 0 00-.442-1.015c-.053-.123-.05-.196.07-.29.434-.347.553-.787.361-1.233-.194-.452-.574-.653-1.141-.58-.158.02-.225-.036-.283-.173a103.36 103.36 0 00-.803-1.84c-.073-.168-.047-.256.118-.347 1.355-.758 1.93-2.222 1.437-3.67-.07-.212 0-.27.166-.339 1.255-.542 2.51-1.092 3.762-1.639 1.787-.78 3.575-1.557 5.36-2.344.228-.1.338-.091.473.15.478.847 1.623 1.172 2.548.758.905-.406 1.414-1.476 1.107-2.392-.084-.248.005-.319.203-.406 2.421-1.05 4.839-2.108 7.258-3.164L59.176 1.882c.422-.185.375-.225.604.196.638 1.168 2.248 1.768 3.502 1.311.249-.09.357-.054.454.193.235.586.495 1.159.754 1.734.066.152.073.248-.074.367-.437.356-.533.789-.31 1.263.21.443.593.635 1.134.534.158-.029.206.027.258.146.135.321.27.645.419.96.074.159.06.253-.09.363-.411.31-.518.756-.319 1.211.199.456.6.68 1.108.588.167-.03.249-.002.311.154.13.324.269.646.42.96.073.157.026.239-.1.34-.409.318-.517.764-.319 1.212.204.462.591.678 1.106.586.166-.03.25 0 .313.156.135.332.279.663.43.987.067.145.03.22-.096.309-.405.29-.529.743-.349 1.18.2.482.593.72 1.111.627.18-.03.264.002.332.17.124.315.265.625.407.933.073.154.068.247-.094.357-.406.276-.516.755-.316 1.212.198.456.622.689 1.108.585.172-.037.247.005.31.158.137.33.284.66.431.987.056.127.038.201-.08.29-.444.335-.555.769-.338 1.254.196.443.607.66 1.12.561.159-.03.229.015.287.154.136.331.28.662.43.987.064.14.042.216-.086.314-.434.333-.541.758-.332 1.23.195.45.592.664 1.114.58.166-.027.248.014.31.168.13.323.273.644.419.96.062.136.044.218-.086.315-.433.33-.542.762-.335 1.23.197.451.597.668 1.112.581.166-.027.244.01.309.166.277.653.557 1.301.85 1.947.084.187.039.268-.136.36a3.008 3.008 0 00-1.464 3.542c.055.175.036.266-.141.335-.235.09-.463.2-.693.3l-20.54 8.962-.005.005zm-1.249-2.497l20.298-8.856c.348-.152.35-.153.201-.495L59.926 5.037c-.154-.353-.154-.353-.51-.198l-8.375 3.655-32.139 14.023c-.317.138-.408.362-.273.672l12.58 28.831c.12.277.323.354.608.23l20.27-8.845zm-41.16.271l6.32 14.482c.106.245.282.315.526.209l8.883-3.876c.272-.119.35-.314.231-.585L14.272 24.994c-.112-.258-.293-.332-.544-.223l-8.936 3.9c-.23.1-.296.265-.196.494l6.33 14.509.002.002z" fill="#223B38" stroke="#CCEC60" stroke-width=".731" stroke-miterlimit="10"/><path d="M52.087 43.405l-20.27 8.845c-.285.124-.488.047-.609-.23l-12.58-28.83c-.135-.31-.044-.534.273-.672l32.14-14.023 8.375-3.655c.355-.155.355-.155.51.198l12.66 29.017c.15.342.15.342-.202.495l-20.297 8.856zm-2.539-5.751l20.003-8.728c.232-.101.298-.267.198-.496-2.54-5.822-5.08-11.645-7.615-17.47-.12-.275-.223-.305-.489-.189A43436.343 43436.343 0 0121.611 28.24c-.266.116-.316.21-.195.486 2.546 5.81 5.08 11.625 7.617 17.438.108.248.287.317.537.208l19.976-8.716.002-.001zM30.728 21.22c.292-.128.586-.253.88-.384.693-.31.632-.16.345-.871-.098-.245-.217-.267-.44-.164-.68.31-1.366.6-2.05.899-.647.282-.64.28-.345.927.096.206.202.218.385.132.405-.187.817-.359 1.224-.534v-.005zm3.848-1.68l.88-.383c.607-.265.598-.261.345-.86-.097-.23-.198-.29-.437-.18-.678.312-1.367.597-2.047.902-.731.33-.68.144-.353.935.078.19.18.22.36.136.413-.192.834-.367 1.253-.547l-.001-.002zm3.847-1.675l.853-.372c.636-.278.627-.274.354-.902-.09-.207-.19-.252-.4-.158-.688.31-1.384.604-2.074.91-.728.326-.674.143-.347.936.08.194.188.21.362.13.415-.19.834-.367 1.253-.547l-.001.003zM26.855 22.91l.853-.373c.654-.285.643-.28.339-.924-.095-.198-.175-.23-.373-.14-.678.309-1.365.6-2.048.899-.666.29-.661.288-.338.95.084.174.18.198.344.124.406-.185.817-.357 1.226-.535l-.003-.001zm15.022-7.627l-.824.36c-.654.286-.648.283-.354.944.081.186.165.218.349.135.688-.31 1.384-.606 2.074-.907.645-.282.639-.28.34-.928-.085-.18-.18-.222-.36-.14-.404.187-.814.357-1.222.536h-.003zm11.577-4.995l-.905.395c-.6.262-.592.258-.329.867.089.203.177.228.37.141.697-.317 1.403-.612 2.1-.921.712-.319.665-.146.348-.915-.078-.19-.175-.187-.334-.112-.414.189-.832.365-1.25.545zm3.841-1.676c-.31.136-.626.265-.934.408-.647.3-.61.099-.306.827.084.205.204.241.41.148.689-.31 1.386-.607 2.079-.91.634-.276.628-.273.337-.91-.086-.183-.174-.19-.335-.114-.414.191-.834.367-1.252.549l.001.002zM24.28 23.48c-.039-.09-.082-.177-.116-.266-.048-.128-.124-.15-.25-.096-.86.379-1.723.753-2.585 1.129-.121.052-.15.115-.106.245.239.718.235.716.919.418l.16-.07c.621-.247 1.204-.581 1.856-.756.245-.067.346-.2.194-.444-.029-.049-.046-.107-.07-.161h-.002zm21.824-8.966a787.505 787.505 0 01.88-.384c.616-.27.607-.265.333-.888-.084-.192-.174-.208-.351-.128-.689.31-1.384.606-2.076.908-.655.286-.65.284-.33.934.074.15.15.168.294.106.415-.19.835-.365 1.25-.546v-.002zm3.479-2.537l-.853.373c-.637.277-.63.274-.341.906.081.18.167.193.332.12.69-.308 1.384-.605 2.076-.908.659-.287.652-.284.349-.925-.078-.166-.16-.183-.316-.113-.414.19-.834.367-1.251.55l.004-.003zM36.811 46.386l-.4.174c-.652.285-.648.283-.328.93.073.15.15.172.293.106.38-.173.762-.332 1.144-.499.677-.295.672-.293.332-.95-.07-.137-.142-.156-.273-.097-.254.12-.514.225-.77.337l.002-.001zm3.843-1.678l-.397.174c-.652.285-.648.283-.326.929.073.149.15.172.294.106.376-.172.761-.332 1.143-.499.677-.295.672-.293.332-.95-.07-.137-.14-.157-.273-.097-.254.12-.514.224-.77.337h-.003zm15.769-5.861l.373-.163c.618-.27.614-.268.344-.881-.08-.181-.155-.233-.346-.142-.365.175-.742.33-1.115.492-.655.286-.648.283-.341.925.08.167.163.179.313.108.253-.12.513-.226.77-.338l.002-.001zm3.846-1.678l.373-.163c.63-.275.625-.273.327-.908-.075-.16-.147-.197-.308-.121-.376.174-.761.334-1.143.5-.654.286-.65.285-.334.929.07.144.14.186.29.115.261-.125.531-.232.796-.35l-.001-.002zm3.486-2.54l-.4.175c-.654.285-.65.283-.328.93.073.149.15.171.294.106.379-.174.761-.333 1.143-.5.677-.295.672-.293.332-.95-.07-.137-.142-.156-.273-.096-.254.119-.513.224-.77.336h.002zm-11.203 5.907l.427-.187c.607-.265.603-.263.32-.87-.088-.188-.187-.214-.364-.132-.36.168-.727.32-1.091.48-.681.297-.677.294-.336.949.07.136.144.158.274.096.255-.117.516-.225.773-.337h-.003zm-19.58 7.525l-.347.15c-.654.286-.65.284-.334.928.07.145.142.18.29.113.362-.166.729-.318 1.09-.476.68-.296.675-.294.343-.947-.069-.132-.135-.167-.27-.105-.254.118-.514.224-.77.336h-.003zm11.904-4.176l.346-.151c.634-.277.628-.274.331-.91-.074-.16-.146-.197-.308-.121-.36.167-.727.32-1.09.478-.657.287-.653.285-.34.93.071.144.142.185.29.113.252-.12.515-.225.772-.337l-.001-.002zm3.826-1.67l.8-.348c.248-.106.107-.278.03-.375-.13-.162-.026-.595-.394-.471-.55.184-1.07.453-1.603.683-.21.091-.107.238-.037.33.133.176.037.536.407.524.044 0 .088-.036.133-.055l.665-.29-.001.002zm18.908-9.268c-.266.116-.531.24-.8.347-.2.079-.152.22-.065.32.148.175.054.636.417.526.552-.167 1.07-.45 1.605-.68.156-.068.149-.176.07-.277-.15-.19-.056-.544-.401-.59-.049-.009-.107.04-.16.064l-.666.29zM10.928 43.676l-6.33-14.508c-.1-.23-.035-.395.195-.495l8.936-3.9c.25-.108.432-.034.544.223l12.615 28.912c.118.271.041.466-.231.585l-8.883 3.876c-.244.106-.42.037-.527-.209L10.93 43.678l-.001-.002zm9.334-4.078c-2.06-4.721-4.12-9.44-6.175-14.164-.111-.255-.208-.3-.466-.185a1482.31 1482.31 0 01-8.376 3.655c-.252.11-.302.203-.188.465 4.13 9.446 8.253 18.896 12.37 28.349.105.24.197.288.444.178 2.78-1.223 5.564-2.433 8.347-3.647.242-.106.312-.278.209-.514l-6.168-14.136h.003z" fill="#223B38"/><path d="M21.91 37.172a.434.434 0 01.576.23.463.463 0 01-.238.606c-.214.089-.516-.048-.602-.269-.084-.218.034-.472.263-.569v.002zm1.493 2.339a.441.441 0 01-.22.58.444.444 0 01-.606-.219c-.086-.21.02-.5.22-.593a.454.454 0 01.604.233h.002zm-6.42-14.713a.448.448 0 01-.257.574c-.211.082-.504-.046-.584-.255a.441.441 0 01.247-.579c.24-.1.503.015.596.259h-.002zm1.232 3.955a.453.453 0 11.359.83c-.207.087-.505-.035-.59-.243a.45.45 0 01.23-.587zm7.025 14.969a.45.45 0 01-.822.364c-.09-.2.021-.5.222-.594.231-.11.5-.006.603.23h-.003zm-6.087-12.879c.211-.084.483.034.577.248a.44.44 0 01-.25.59.454.454 0 01-.58-.233.485.485 0 01.251-.604h.002zm4.939 11.367a.471.471 0 01-.604-.257.449.449 0 01.266-.571.446.446 0 01.576.246.442.442 0 01-.236.581l-.002.001zm2.752 6.315a.442.442 0 01-.586-.223c-.095-.203.016-.498.22-.596a.442.442 0 01.604.237.445.445 0 01-.239.58v.002zm1.854 4.205a.473.473 0 01-.598-.206c-.108-.217.005-.513.231-.615a.448.448 0 01.585.232c.1.224.005.492-.215.59h-.003zM17.675 27.45c-.23.108-.49.027-.6-.186a.443.443 0 01.226-.603c.25-.11.47-.033.583.202a.43.43 0 01-.21.584v.003zm3.891 7.851a.449.449 0 01-.231.585.446.446 0 01-.602-.24c-.086-.21.038-.492.251-.582a.446.446 0 01.581.24l.001-.003zm4.593 10.527c.105.24.015.461-.229.573-.24.107-.51.007-.602-.23-.09-.223.02-.47.255-.573a.427.427 0 01.578.229h-.002zm-5.505-12.617a.44.44 0 01-.246.575c-.223.087-.5-.026-.587-.236a.444.444 0 01.26-.591.442.442 0 01.573.252zm7.337 16.816a.432.432 0 01-.214.582.445.445 0 01-.608-.213.452.452 0 01.237-.582.436.436 0 01.586.21v.003zm21.557-12.373l-19.976 8.715c-.25.11-.429.04-.537-.206-2.536-5.814-5.073-11.628-7.616-17.439-.121-.277-.072-.37.194-.486A43436.161 43436.161 0 0061.648 10.77c.265-.116.368-.089.489.188 2.531 5.827 5.074 11.649 7.614 17.471.1.23.034.395-.198.496L49.55 37.653h-.002zM30.728 21.22c-.409.178-.82.35-1.223.536-.183.085-.292.074-.385-.132-.295-.648-.302-.645.346-.927.683-.299 1.37-.59 2.048-.9.224-.102.343-.08.441.164.285.714.348.56-.346.872-.291.13-.585.255-.88.384v.003zm3.848-1.68c-.418.183-.838.359-1.252.55-.179.083-.282.054-.36-.136-.326-.79-.378-.606.353-.935.68-.305 1.37-.59 2.047-.901.237-.11.34-.05.437.179.251.6.26.596-.345.86l-.88.384zm3.847-1.675c-.417.182-.837.36-1.253.547-.175.079-.283.062-.362-.13-.327-.793-.38-.61.347-.935.69-.309 1.387-.6 2.075-.91.21-.095.308-.05.399.157.274.628.283.624-.354.902l-.853.372.001-.003zM26.855 22.91c-.408.178-.82.352-1.226.535-.164.074-.26.05-.344-.124-.323-.662-.328-.66.338-.95.683-.299 1.37-.59 2.048-.9.196-.087.278-.057.373.141.305.644.316.639-.339.924l-.853.372.003.002zm15.023-7.626c.408-.179.817-.352 1.223-.537.18-.084.276-.043.359.141.301.648.306.646-.34.928-.692.302-1.388.597-2.074.907-.184.083-.265.05-.349-.135-.293-.661-.3-.658.354-.944l.825-.36h.002zm11.576-4.995c.417-.183.835-.36 1.25-.546.16-.073.257-.077.334.112.317.768.363.594-.348.915-.698.313-1.404.607-2.1.921-.195.088-.283.063-.37-.141-.263-.609-.271-.605.33-.867l.904-.394zm3.841-1.677c.418-.182.837-.36 1.252-.549.162-.073.252-.07.335.115.29.636.3.632-.337.91-.692.302-1.39.598-2.078.91-.207.092-.326.057-.41-.149-.306-.73-.342-.526.306-.827.307-.142.623-.272.933-.407v-.003zM24.28 23.48c.024.054.04.11.071.16.154.245.051.38-.194.445-.65.174-1.235.51-1.856.756l-.16.07c-.686.3-.682.297-.92-.418-.044-.132-.015-.195.106-.245.863-.374 1.725-.75 2.586-1.129.125-.054.202-.032.25.096.034.091.078.179.116.266l.002-.001zm21.824-8.966c-.417.182-.837.36-1.25.545-.143.063-.22.046-.294-.105-.32-.65-.327-.647.33-.934.692-.302 1.386-.6 2.075-.908.179-.078.268-.064.352.128.274.622.283.618-.334.887l-.453.198-.427.186.001.003zm3.479-2.537c.418-.182.838-.36 1.252-.549.154-.07.236-.052.315.113.304.641.31.638-.348.926-.693.302-1.387.6-2.076.908-.168.073-.251.059-.332-.121-.29-.632-.296-.629.34-.906l.854-.373-.005.002zM36.81 46.386c.258-.113.517-.22.771-.337.131-.06.203-.04.274.096.34.658.344.656-.333.951-.382.167-.763.328-1.143.499-.145.066-.22.045-.294-.106-.323-.649-.326-.644.328-.93l.4-.174h-.002zm3.844-1.677c.257-.113.516-.22.771-.337.13-.06.2-.04.273.096.34.658.343.657-.332.951-.382.167-.764.328-1.144.499-.144.066-.218.042-.293-.106-.32-.647-.324-.645.326-.929l.397-.174h.002zm15.769-5.862c-.257.112-.517.217-.77.338-.15.07-.234.06-.313-.108-.306-.642-.313-.64.341-.925.373-.163.748-.316 1.115-.492.19-.09.266-.036.346.142.268.614.275.611-.344.881l-.373.163h-.002zm3.846-1.678c-.266.116-.535.225-.796.35-.15.07-.22.029-.29-.116-.316-.644-.32-.642.334-.927.382-.167.765-.326 1.143-.502.16-.075.234-.035.308.121.298.636.303.634-.327.909l-.373.162.001.003zm3.486-2.539c.257-.113.516-.22.77-.337.131-.06.204-.04.274.096.34.657.344.655-.332.95-.382.167-.764.329-1.144.5-.144.065-.22.045-.293-.106-.323-.649-.327-.645.328-.93l.4-.175-.003.001zm-11.202 5.906c-.257.112-.518.22-.773.337-.131.06-.203.04-.273-.096-.34-.658-.344-.654.335-.95.364-.159.731-.31 1.091-.478.177-.083.277-.055.363.13.284.608.29.605-.32.871l-.426.186h.003zM32.971 48.06c.257-.111.516-.219.77-.336.137-.064.204-.027.27.106.333.653.337.65-.342.947-.364.159-.73.313-1.09.476-.148.067-.219.034-.29-.113-.316-.644-.32-.642.334-.927l.346-.151.002-.001zm11.905-4.175c-.257.112-.519.218-.773.337-.147.07-.218.029-.288-.113-.316-.644-.32-.642.339-.93.364-.159.73-.31 1.09-.479.162-.075.235-.035.309.121.298.636.303.634-.332.91l-.346.152.001.002zm3.826-1.669l-.666.29c-.044.02-.088.054-.132.055-.368.012-.275-.348-.407-.524-.07-.094-.172-.242.036-.33.534-.233 1.056-.5 1.603-.683.37-.124.266.31.395.471.077.097.218.269-.03.375-.268.114-.535.233-.8.349v-.003zm18.908-9.269l.666-.29c.053-.023.11-.07.16-.065.343.048.253.403.401.59.078.1.084.212-.07.279-.535.228-1.052.512-1.604.679-.364.11-.27-.35-.418-.525-.087-.1-.135-.242.065-.321.27-.107.534-.23.8-.349v.002z" fill="#CCEC60"/><path d="M20.261 39.598l6.168 14.136c.103.236.034.408-.21.514-2.782 1.214-5.566 2.426-8.346 3.647-.248.108-.34.063-.444-.178a21839.87 21839.87 0 00-12.37-28.35c-.114-.26-.064-.354.188-.464a1482.31 1482.31 0 008.376-3.655c.259-.113.355-.07.466.185 2.053 4.724 4.114 9.443 6.172 14.165zm-1.725 8.349c-.525.229-.937.398-1.339.587-.557.264-.704.64-.47 1.146.194.42.56.516 1.11.284.321-.135.643-.27.957-.42.557-.267.66-.623.322-1.14-.09-.14-.044-.173.07-.236.258-.139.55-.184.817-.29.134-.053.248.001.31.136.067.15.028.267-.111.344-.11.059-.225.111-.345.155-.175.067-.203.169-.133.34.078.19.186.153.322.086.105-.051.221-.083.315-.148.19-.128.407-.231.45-.5a.765.765 0 00-.883-.89c-.541.095-1 .407-1.393.543l.001.003zm-4.257-7.1l-.003-.007c-.176.077-.35.172-.533.228-.15.047-.28.005-.35-.169-.066-.163.007-.27.126-.345.112-.073.238-.13.366-.173.2-.066.247-.158.154-.365-.089-.203-.194-.207-.355-.113-.159.093-.323.175-.47.282-.267.193-.387.496-.295.756.106.297.248.617.613.612.688-.007 1.31-.204 1.696-.84.034-.058.049-.133.146-.093.496.206.91-.054 1.31-.275.24-.131.458-.34.428-.67-.027-.313-.128-.582-.434-.733-.37-.187-.693.039-1.03.125-.057.014-.056.09-.048.151.037.263.158.333.41.239a1.48 1.48 0 01.277-.07c.148-.028.28-.004.33.156.05.164-.028.286-.174.358-.183.087-.373.162-.557.248-.24.115-.458.162-.618-.124-.062-.114-.156-.12-.271-.063-.114.058-.162.13-.113.254.088.22-.037.354-.205.451-.124.073-.264.118-.398.177l-.002.003zm3.863 4.557c.762-.41.767-.411 1.06.216.072.154.14.202.307.126.154-.067.21-.14.13-.306a10.38 10.38 0 01-.35-.8c-.068-.18-.158-.204-.328-.125-.494.226-.994.434-1.49.656-.105.045-.27.059-.193.251.056.14.103.272.308.212.134-.04.255.013.291.162.033.13-.035.226-.155.278-.507.221-1.01.446-1.519.663-.123.053-.244.043-.314-.11-.066-.152 0-.245.12-.31.136-.073.283-.127.423-.196.167-.08.1-.2.051-.32-.05-.116-.113-.217-.26-.147-.193.09-.404.142-.572.281-.28.237-.34.56-.165.913.162.328.42.44.79.362.537-.117 1.024-.36 1.504-.606.687-.352.773-.69.357-1.2h.005zm-1.115-2.013l1.226-.535c.083-.035.192-.048.169-.193-.04-.261-.184-.39-.447-.36-.97.11-1.94.224-2.907.34-.373.046-.41.118-.263.458l.035.08c.234.536.236.54-.286.782-.15.068-.208.133-.135.306.079.18.17.21.332.121.101-.055.213-.09.319-.142.124-.062.22-.061.274.088.054.147.154.108.259.063.098-.043.18-.095.114-.215-.084-.16.004-.222.136-.278.393-.166.782-.34 1.173-.511l.001-.004zm-5.194-5.06c.07.16.146.316.21.48.054.141.13.166.27.105.138-.06.169-.135.102-.27-.061-.122-.108-.248-.163-.373-.141-.324-.128-.349.234-.379.495-.04.983.06 1.475.104.639.056 1.172-.198 1.675-.537.302-.204.367-.506.226-.816-.168-.366-.448-.515-.814-.446-.31.058-.583.204-.871.312-.202.074-.205.177-.128.353.074.17.15.224.327.134a7.21 7.21 0 01.694-.298c.13-.045.27-.056.354.098.09.166-.011.242-.132.326-.51.364-1.078.436-1.687.35-.41-.057-.834-.15-1.24-.05-.904.224-.9.075-.541.879l.012.027h-.003zm.869-3.397l1.76-.768c.073-.032.19-.045.167-.166-.02-.113-.056-.23-.203-.251-.256-.038-.433-.205-.61-.37-.067-.06-.116-.135-.22-.098-.074.024-.155.046-.178.133-.036.141.073.208.157.286.249.229.252.23-.06.366l-2.694 1.176c-.157.068-.3.11-.193.35.109.25.245.142.393.078l1.68-.733v-.003z" fill="#223B38"/><path d="M18.536 47.947c.39-.136.85-.448 1.393-.544a.765.765 0 01.883.89c-.044.267-.26.372-.45.5-.095.063-.21.095-.315.148-.136.067-.242.103-.322-.085-.07-.172-.045-.273.133-.34a2.74 2.74 0 00.345-.156c.142-.075.18-.196.11-.343-.061-.136-.175-.19-.309-.137-.27.107-.559.151-.817.29-.114.063-.16.097-.07.236.336.515.233.871-.322 1.14-.314.15-.636.285-.957.42-.552.233-.915.139-1.11-.284-.235-.506-.087-.882.47-1.146.403-.192.816-.359 1.34-.587l-.002-.002zm-.43 1.39l-.002-.005c.203-.089.412-.164.607-.27.153-.083.215-.222.112-.39-.084-.139-.18-.267-.368-.18-.401.184-.83.317-1.19.581-.137.1-.22.208-.133.39.09.187.238.18.39.125.2-.071.39-.167.584-.252zm-3.827-8.49c.134-.058.273-.106.399-.177.17-.098.292-.23.204-.45-.05-.127 0-.197.113-.254.113-.058.207-.05.272.062.16.287.378.24.617.124.183-.088.373-.163.557-.248.147-.072.222-.193.174-.358-.05-.162-.183-.186-.33-.157a1.58 1.58 0 00-.277.071c-.252.094-.372.024-.41-.239-.009-.062-.007-.137.048-.151.338-.086.658-.308 1.03-.125.306.151.407.42.435.733.03.332-.188.54-.428.67-.4.218-.814.48-1.31.275-.098-.04-.11.034-.146.093-.386.639-1.009.833-1.697.84-.362.005-.507-.315-.613-.612-.092-.26.029-.563.295-.756.148-.107.314-.19.47-.282.161-.094.268-.088.355.113.09.206.046.3-.154.366-.128.042-.254.1-.366.172-.118.076-.192.182-.126.345.07.174.2.216.35.17.183-.057.357-.151.534-.228l.003.006v-.003zm3.863 4.557c.414.51.328.849-.357 1.2-.48.247-.967.489-1.503.606-.371.082-.632-.033-.791-.362-.174-.355-.114-.676.165-.912.167-.142.378-.194.572-.282.146-.066.21.031.26.147.052.119.116.24-.051.32-.14.07-.285.122-.423.196-.123.064-.19.157-.12.31.067.154.188.162.314.11.51-.215 1.013-.44 1.519-.663.12-.052.186-.147.155-.277-.036-.15-.157-.203-.291-.163-.205.06-.254-.07-.308-.211-.076-.193.088-.206.193-.252.496-.222.996-.43 1.49-.656.171-.077.26-.055.329.126.105.27.221.538.349.8.08.166.026.235-.13.306-.166.075-.235.028-.308-.127-.292-.627-.296-.625-1.059-.215h-.005zm-1.115-2.012c-.391.17-.781.343-1.173.511-.134.059-.222.118-.137.278.064.121-.015.171-.113.214-.105.046-.208.085-.26-.062-.054-.152-.15-.15-.274-.088-.105.051-.217.087-.318.142-.163.09-.256.06-.332-.121-.075-.172-.015-.236.135-.306.52-.238.518-.245.286-.782l-.035-.08c-.15-.342-.111-.414.263-.458a607.04 607.04 0 012.906-.34c.264-.03.408.098.447.36.022.142-.085.157-.168.193-.408.18-.817.357-1.226.535l-.001.004zm.284-.63c-.008-.017-.012-.037-.016-.054l-1.796.265c-.085.013-.21-.01-.225.088-.027.158.075.294.156.424.06.103.156.03.232-.003l1.649-.72zm-5.478-4.432l-.011-.026c-.361-.803-.363-.656.54-.88.407-.1.83-.006 1.241.052.607.086 1.173.012 1.687-.35.12-.085.222-.161.132-.327-.086-.154-.226-.146-.354-.098a6.54 6.54 0 00-.695.298c-.177.088-.253.033-.326-.134-.078-.176-.074-.279.127-.353.29-.109.565-.255.872-.312.367-.067.65.081.814.445.14.311.075.611-.226.817-.503.341-1.035.595-1.675.537-.49-.045-.978-.145-1.476-.104-.361.03-.374.057-.233.379.054.125.102.253.162.373.067.133.036.21-.102.27-.136.06-.216.036-.27-.105-.062-.162-.139-.32-.209-.48l.002-.002zm.869-3.396l-1.68.733c-.147.064-.282.17-.393-.078-.104-.24.037-.282.193-.35l2.693-1.176c.313-.136.31-.135.061-.367-.084-.077-.193-.144-.156-.285.02-.086.104-.107.178-.133.104-.035.153.04.218.098.178.165.355.332.61.37.146.021.181.139.204.251.022.118-.094.132-.167.166-.586.259-1.173.512-1.76.768l-.001.003z" fill="#CCEC60"/><path d="M18.106 49.336c-.195.085-.385.179-.584.252-.151.056-.3.062-.39-.125-.087-.182-.004-.29.133-.39.363-.265.789-.397 1.19-.58.19-.086.284.04.369.18.102.167.04.306-.113.388-.193.106-.404.182-.607.27l.002.005zm-.796-6.573l-1.648.719c-.073.032-.169.105-.232.003-.079-.13-.183-.266-.156-.424.016-.097.14-.075.225-.088.597-.087 1.196-.176 1.796-.265.008.018.011.038.016.055z" fill="#223B38"/><path d="M35.417 43.075c-.17.074-.342.142-.525.186a.34.34 0 01-.36-.113c-.102-.118-.205-.233-.304-.349-.027-.03-.051-.044-.096-.038a3.644 3.644 0 01-.854.017c-.04-.005-.06.007-.085.037l-.295.365a.327.327 0 01-.354.128 3.755 3.755 0 01-1.035-.404.341.341 0 01-.184-.354c.014-.152.02-.303.033-.455.003-.042-.01-.065-.041-.089a3.496 3.496 0 01-.608-.583c-.03-.037-.061-.047-.106-.041-.154.02-.308.033-.46.049a.325.325 0 01-.331-.156 3.777 3.777 0 01-.45-1.017.342.342 0 01.126-.39c.115-.095.225-.196.339-.296.03-.023.038-.046.034-.086a3.49 3.49 0 01-.014-.86c.004-.04-.01-.064-.037-.086-.125-.097-.246-.198-.37-.298a.323.323 0 01-.124-.345c.083-.366.218-.715.405-1.04a.341.341 0 01.353-.184c.152.013.304.019.455.03.038.002.061-.006.085-.037a3.56 3.56 0 01.593-.615c.03-.027.042-.05.037-.09a31.649 31.649 0 01-.05-.474.32.32 0 01.153-.327c.324-.208.673-.36 1.045-.456a.328.328 0 01.353.115l.31.354a.087.087 0 00.084.035c.285-.04.573-.045.861-.017.036.003.057-.004.079-.034l.295-.366a.334.334 0 01.36-.13c.374.084.725.223 1.054.417.119.07.171.178.162.315-.01.161-.02.32-.033.48a.09.09 0 00.037.085c.23.173.439.372.62.598.024.03.049.038.086.032.157-.018.315-.034.473-.05a.325.325 0 01.331.157c.205.322.357.67.454 1.04a.325.325 0 01-.11.35l-.364.317c-.026.022-.035.042-.028.076a3.6 3.6 0 01.014.874c-.004.034.007.053.032.074.126.1.25.202.374.302.11.09.156.206.124.345-.083.37-.22.72-.411 1.051a.326.326 0 01-.334.172c-.157-.011-.312-.02-.469-.032a.086.086 0 00-.085.037c-.173.23-.373.437-.599.62-.03.024-.037.049-.031.086.018.157.031.316.05.473a.337.337 0 01-.162.336c-.16.104-.33.19-.505.263l.003-.004zm-.655-1.52a2.809 2.809 0 001.452-3.693 2.808 2.808 0 10-5.151 2.24 2.812 2.812 0 003.701 1.453h-.002zm7.031-7.339a4.481 4.481 0 01-.744.263.473.473 0 01-.51-.163c-.144-.166-.29-.328-.431-.495-.038-.045-.076-.063-.136-.055a5.108 5.108 0 01-1.21.023c-.056-.005-.086.01-.119.051-.136.174-.28.344-.417.518a.47.47 0 01-.503.182 5.351 5.351 0 01-1.465-.573.48.48 0 01-.259-.502c.018-.215.028-.43.046-.644.004-.058-.014-.093-.058-.127a4.89 4.89 0 01-.86-.826c-.044-.052-.085-.067-.151-.06-.218.027-.435.047-.653.07a.458.458 0 01-.469-.22 5.391 5.391 0 01-.635-1.438.49.49 0 01.176-.553c.165-.135.32-.28.482-.42.04-.034.056-.067.048-.122a5.058 5.058 0 01-.022-1.219c.005-.055-.012-.088-.052-.12l-.525-.423a.46.46 0 01-.175-.487 5.28 5.28 0 01.572-1.473.487.487 0 01.504-.26c.215.018.431.027.647.045.052.004.086-.008.118-.051.246-.326.526-.616.84-.872.045-.036.06-.071.053-.13-.026-.222-.05-.446-.072-.67a.455.455 0 01.215-.463 5.06 5.06 0 011.48-.646c.2-.053.366.008.5.164.146.168.294.332.437.501.034.041.065.057.12.049a5.25 5.25 0 011.22-.022c.05.004.083-.007.113-.05.136-.173.28-.342.417-.516a.474.474 0 01.51-.185 5.16 5.16 0 011.494.592.45.45 0 01.23.447c-.015.227-.028.454-.046.68a.123.123 0 00.051.118c.327.248.622.53.88.847.035.043.07.052.121.046.223-.026.448-.047.67-.072a.46.46 0 01.47.22c.29.459.504.95.642 1.475a.46.46 0 01-.159.495l-.513.45c-.034.03-.048.06-.041.105a5.1 5.1 0 01.021 1.238c-.006.048.011.075.046.105.178.14.354.287.53.428a.46.46 0 01.175.487 5.225 5.225 0 01-.582 1.488.47.47 0 01-.474.247c-.221-.018-.443-.028-.664-.046-.052-.004-.087.006-.118.052-.249.326-.53.62-.848.878-.043.034-.052.07-.046.12.026.223.047.448.072.671a.47.47 0 01-.229.475 4.657 4.657 0 01-.714.373zm-.927-2.154a3.98 3.98 0 10-3.189-7.293 3.98 3.98 0 003.19 7.293zm10.361 2.668a2.226 2.226 0 01-.38.135.245.245 0 01-.26-.084c-.074-.084-.148-.167-.22-.252-.02-.023-.037-.032-.068-.03a2.54 2.54 0 01-.617.012c-.028-.003-.045.007-.06.027-.07.089-.145.174-.215.263a.239.239 0 01-.257.094 2.777 2.777 0 01-.746-.291.25.25 0 01-.133-.256c.01-.11.014-.219.024-.33.002-.03-.008-.047-.029-.064a2.588 2.588 0 01-.44-.422c-.022-.028-.043-.034-.076-.03-.111.013-.222.021-.333.035a.237.237 0 01-.24-.113 2.761 2.761 0 01-.323-.733.249.249 0 01.09-.282c.084-.068.163-.143.244-.213.022-.017.028-.033.024-.06a2.584 2.584 0 01-.01-.623c.003-.029-.007-.045-.027-.06-.09-.07-.18-.143-.267-.216a.231.231 0 01-.09-.248 2.75 2.75 0 01.292-.752.25.25 0 01.256-.133c.11.01.218.013.328.021.027.002.044-.003.06-.026.125-.166.268-.313.428-.445.024-.018.03-.036.028-.065l-.038-.342a.234.234 0 01.11-.237c.234-.15.485-.26.754-.33a.234.234 0 01.255.084l.223.256c.017.02.034.028.061.024.206-.029.414-.032.623-.011.025.002.04-.005.058-.026.07-.088.141-.175.214-.263a.239.239 0 01.26-.095c.27.06.525.162.762.303.086.05.123.13.116.229-.009.115-.016.232-.024.348a.064.064 0 00.026.06c.167.127.317.269.449.432a.061.061 0 00.061.024c.114-.013.228-.026.341-.035a.234.234 0 01.239.114c.147.234.256.484.327.75.028.1-.002.185-.08.254l-.263.228c-.017.016-.024.03-.021.055.03.21.032.422.01.631-.003.025.005.038.023.054.09.072.18.144.271.219a.231.231 0 01.09.248 2.701 2.701 0 01-.297.76.238.238 0 01-.243.124c-.113-.01-.226-.013-.34-.022-.026-.001-.043.003-.06.026a2.587 2.587 0 01-.431.45c-.022.017-.027.035-.023.062.013.114.023.23.035.342a.237.237 0 01-.116.241 2.312 2.312 0 01-.363.19l.008-.005zm-.474-1.098a2.031 2.031 0 10-2.675-1.05 2.033 2.033 0 002.675 1.05z" fill="#CCEC60" stroke="#223B38" stroke-width=".487" stroke-miterlimit="10"/><path d="M30.437 31.654a1.922 1.922 0 01-.295.105.188.188 0 01-.2-.064c-.058-.065-.116-.13-.171-.197-.016-.017-.03-.024-.055-.02a2.14 2.14 0 01-.48.009c-.021-.001-.035.005-.046.02-.055.07-.111.136-.166.206a.188.188 0 01-.2.071 2.15 2.15 0 01-.58-.226c-.077-.043-.111-.108-.103-.2.008-.085.011-.169.019-.255a.053.053 0 00-.021-.049 1.89 1.89 0 01-.34-.327c-.018-.022-.034-.028-.061-.024-.086.01-.172.019-.26.027a.182.182 0 01-.183-.087 2.125 2.125 0 01-.251-.568c-.025-.088 0-.16.07-.22.064-.051.126-.11.19-.165.016-.012.023-.026.019-.048a1.98 1.98 0 01-.009-.483c.002-.021-.004-.035-.02-.047l-.209-.167a.18.18 0 01-.068-.193c.046-.206.121-.399.227-.583.043-.077.11-.109.2-.103.085.008.17.011.254.017.022 0 .033-.004.047-.02.098-.129.208-.243.333-.346.018-.015.023-.028.02-.051l-.027-.265a.18.18 0 01.085-.183c.18-.116.377-.202.585-.255a.183.183 0 01.198.065c.058.065.116.13.174.198.013.016.027.023.049.019.16-.023.32-.026.482-.009a.044.044 0 00.045-.02l.166-.205a.189.189 0 01.201-.074c.21.047.406.126.591.234.068.04.097.099.09.176-.005.09-.011.18-.018.268-.001.022.005.035.02.047.128.099.246.21.348.335.014.018.028.02.049.019l.264-.028a.182.182 0 01.184.087c.114.182.199.376.255.583a.182.182 0 01-.064.195c-.067.059-.134.12-.205.177a.042.042 0 00-.016.042c.023.163.026.327.01.49-.003.02.004.03.017.04.07.058.14.113.21.17a.18.18 0 01.068.193 2.1 2.1 0 01-.23.59.187.187 0 01-.188.098l-.263-.018c-.02-.002-.034.001-.047.02a1.98 1.98 0 01-.335.348c-.018.014-.02.028-.019.048l.028.265a.188.188 0 01-.09.188 1.99 1.99 0 01-.282.147l.004.003zm-.366-.85a1.574 1.574 0 10-1.262-2.883 1.574 1.574 0 001.262 2.883zm33.313-2.686a1.913 1.913 0 01-.294.105.188.188 0 01-.201-.064 9.77 9.77 0 01-.171-.197c-.016-.017-.03-.024-.055-.021a2.14 2.14 0 01-.48.01.046.046 0 00-.046.02c-.055.07-.11.136-.166.205a.188.188 0 01-.2.072 2.15 2.15 0 01-.58-.226c-.077-.043-.11-.108-.103-.2.008-.085.011-.17.02-.255a.053.053 0 00-.022-.05 1.893 1.893 0 01-.34-.327c-.017-.021-.033-.028-.06-.024-.087.011-.173.02-.26.028a.182.182 0 01-.184-.087 2.126 2.126 0 01-.25-.569c-.026-.087-.001-.159.068-.218.065-.053.127-.112.191-.166.016-.012.024-.026.02-.048a1.978 1.978 0 01-.01-.483c.002-.022-.004-.035-.02-.047l-.208-.167a.18.18 0 01-.069-.193c.046-.207.122-.399.227-.583.043-.078.11-.11.2-.103.086.007.17.01.254.016.022.001.033-.003.047-.02.099-.128.208-.243.334-.345.017-.016.022-.028.02-.052-.01-.088-.02-.177-.028-.264-.008-.079.018-.14.085-.183.18-.116.377-.202.585-.255.079-.021.145.003.199.064l.174.198a.046.046 0 00.048.02 2 2 0 01.483-.01.044.044 0 00.044-.019l.166-.205c.054-.066.12-.092.201-.075.21.047.406.126.592.234.067.04.096.1.09.176l-.019.269c0 .022.005.035.02.047.129.098.246.209.349.334.013.019.027.02.048.02l.264-.028a.183.183 0 01.185.087c.113.181.198.376.254.583a.182.182 0 01-.064.195c-.067.059-.134.12-.204.177a.042.042 0 00-.017.042c.023.162.026.326.01.49-.002.02.005.03.017.04.07.058.14.112.21.17a.18.18 0 01.068.193c-.047.21-.124.405-.23.59a.187.187 0 01-.188.097c-.088-.006-.175-.01-.263-.018-.02-.002-.034.002-.047.02-.097.131-.21.246-.335.349-.018.013-.02.027-.019.048l.028.264a.188.188 0 01-.09.189 2.1 2.1 0 01-.282.147l.004.003zm-.366-.85a1.573 1.573 0 10-1.261-2.883 1.573 1.573 0 001.261 2.882z" fill="#CCEC60" stroke="#223B38" stroke-width=".244" stroke-miterlimit="10"/><path d="M56.425 27.193c-.23.1-.462.191-.705.25a.456.456 0 01-.484-.154c-.135-.156-.274-.31-.41-.47-.037-.042-.071-.059-.129-.05a4.82 4.82 0 01-1.15.02c-.053-.005-.082.013-.114.05-.13.164-.267.327-.397.49a.445.445 0 01-.479.172 5.094 5.094 0 01-1.39-.542.454.454 0 01-.245-.478c.017-.204.026-.408.044-.612.005-.055-.014-.087-.055-.12a4.674 4.674 0 01-.818-.783c-.041-.052-.08-.063-.145-.057-.206.026-.411.044-.62.066a.437.437 0 01-.445-.21 5.1 5.1 0 01-.603-1.364.465.465 0 01.167-.525c.157-.13.304-.265.457-.398.038-.033.052-.063.045-.116a4.835 4.835 0 01-.021-1.158c.006-.053-.012-.082-.05-.114a40.331 40.331 0 01-.497-.402.442.442 0 01-.168-.464 5.03 5.03 0 01.543-1.399.462.462 0 01.478-.245c.204.017.408.026.613.04.05.005.081-.009.114-.05.233-.306.5-.584.798-.828a.123.123 0 00.05-.123c-.026-.212-.045-.425-.067-.636a.432.432 0 01.204-.44c.436-.28.902-.484 1.404-.613.189-.05.346.006.475.155.136.161.278.315.415.476.032.036.062.052.115.045a4.88 4.88 0 011.158-.021c.048.005.077-.007.105-.046.13-.166.265-.326.398-.49a.452.452 0 01.484-.177c.501.114.974.301 1.417.562.16.093.23.24.218.426-.015.217-.027.432-.045.647-.005.05.01.081.05.114.31.235.588.501.834.803.034.041.068.05.116.046.213-.024.424-.045.635-.067a.435.435 0 01.445.21c.275.435.478.9.61 1.398a.437.437 0 01-.149.469c-.164.14-.324.285-.487.425-.035.028-.044.056-.038.101.054.392.062.782.02 1.175-.003.046.013.071.044.098.17.133.336.27.504.407a.443.443 0 01.168.464c-.112.498-.297.97-.553 1.414a.448.448 0 01-.45.234c-.21-.016-.422-.027-.63-.042-.05-.005-.083.007-.114.05a4.88 4.88 0 01-.803.834c-.041.034-.049.066-.044.114.026.212.045.425.068.636a.446.446 0 01-.216.45 4.445 4.445 0 01-.678.354h.003zm-.879-2.044a3.776 3.776 0 10-3.026-6.918 3.776 3.776 0 003.026 6.918z" fill="#CCEC60" stroke="#223B38" stroke-width=".487" stroke-miterlimit="10"/></svg>