<svg width="74" height="73" fill="none" xmlns="http://www.w3.org/2000/svg"><path d="M36.57 72.288c-.803 0-1.608.038-2.408-.011-.945-.059-1.905-.102-2.805-.432-.744-.273-1.26-.82-1.51-1.578-.402-1.21-.822-2.419-1.153-3.65-.14-.517-.438-.645-.873-.791-1.194-.4-2.385-.816-3.545-1.3-.933-.39-1.824-.886-2.728-1.345a.387.387 0 00-.39-.001c-.85.441-1.697.885-2.554 1.314-.562.282-1.118.592-1.71.792-.72.243-1.428.091-2.062-.33-1.771-1.182-3.273-2.67-4.7-4.229a26.51 26.51 0 01-2.017-2.5c-.577-.809-.59-1.727-.15-2.613.604-1.217 1.246-2.416 1.878-3.617.102-.195.116-.362 0-.565a27.235 27.235 0 01-2.028-4.41 47.862 47.862 0 01-.703-2.17c-.062-.202-.157-.31-.361-.376-1.364-.429-2.735-.842-4.082-1.318-.87-.306-1.401-.966-1.582-1.884-.434-2.204-.44-4.429-.336-6.659.037-.79.14-1.58.238-2.369.166-1.324.84-2.152 2.153-2.533 1.232-.358 2.45-.774 3.674-1.158.163-.051.235-.146.279-.302a29.472 29.472 0 012.751-6.65c.095-.168.112-.313.014-.498-.605-1.15-1.192-2.311-1.797-3.463-.566-1.077-.51-2.09.21-3.085 1.381-1.91 3.038-3.56 4.806-5.102a25.411 25.411 0 011.54-1.217c.969-.72 1.982-.75 3.04-.183 1.162.622 2.333 1.226 3.507 1.824a.477.477 0 00.382-.01 29.922 29.922 0 014.709-2.144c.631-.224 1.274-.42 1.92-.6.245-.07.365-.197.435-.433.218-.737.452-1.47.683-2.202.172-.546.344-1.091.523-1.635.355-1.073 1.126-1.649 2.218-1.836 2.259-.386 4.536-.356 6.813-.25.766.036 1.533.143 2.29.275 1.205.207 1.886.981 2.22 2.13.315 1.076.67 2.139 1.01 3.207.022.07.06.14.065.21.028.385.283.485.612.58.761.22 1.514.472 2.259.743a23.955 23.955 0 013.894 1.803c.389.226.668.202 1.047-.004a77.825 77.825 0 013.557-1.828c.848-.406 1.708-.3 2.471.241a22.88 22.88 0 011.971 1.544c1.405 1.246 2.733 2.57 3.905 4.041.417.522.877 1.029 1.083 1.684.212.676.213 1.36-.11 2.005-.593 1.177-1.2 2.346-1.823 3.507-.165.31-.164.539.003.87a57.714 57.714 0 011.731 3.713c.377.903.635 1.857.937 2.79.048.146.123.232.273.278.921.288 1.841.576 2.758.878.582.192 1.178.36 1.726.622.686.33 1.093.931 1.237 1.679.434 2.242.479 4.506.324 6.777a48.568 48.568 0 01-.214 2.272c-.093.796-.359 1.524-1.039 2.011a3.368 3.368 0 01-.887.456c-1.311.436-2.632.844-3.945 1.273a.387.387 0 00-.216.226c-.61 2.194-1.437 4.301-2.555 6.282-.297.526-.27.896.01 1.393a50.296 50.296 0 011.683 3.247c.409.866.375 1.753-.172 2.572-1.088 1.632-2.448 3.032-3.873 4.364-.74.692-1.531 1.332-2.313 1.979-.649.537-1.373.889-2.253.786-.51-.058-.948-.295-1.392-.526a317.373 317.373 0 00-3.23-1.663.463.463 0 00-.358.008c-.86.418-1.703.873-2.572 1.274a26.685 26.685 0 01-4.13 1.487c-.213.058-.314.18-.373.37-.418 1.334-.806 2.677-1.262 4-.319.927-1.017 1.478-1.986 1.675-1.535.31-3.091.322-4.647.29l.004-.002zM59.1 36.61c.063-12.423-9.942-22.57-22.394-22.66-12.62-.091-22.685 10.105-22.742 22.483-.058 12.397 10.038 22.65 22.542 22.668 12.367.017 22.578-10.037 22.592-22.491h.001z" fill="#223B38" stroke="#CCEC60" stroke-width="1.394" stroke-miterlimit="10"/><path d="M29.665 47.734V21.33l20.166 17.008c-.253.145-.451.09-.637.09-2.756.006-5.512.003-8.269.007-.812 0-.994.287-.651 1.024 1.763 3.786 3.524 7.573 5.306 11.35.192.409.127.57-.279.74-.819.344-1.613.743-2.42 1.118-.449.21-.775.097-.978-.339l-4.279-9.185c-.33-.71-.655-1.42-.992-2.125-.287-.599-.655-.645-1.087-.133-1.81 2.15-3.614 4.302-5.425 6.45-.11.131-.189.298-.458.397l.003.002z" fill="#223B38" stroke="#CCEC60" stroke-width="1.394" stroke-miterlimit="10"/></svg>