<svg width="60" height="55" fill="none" xmlns="http://www.w3.org/2000/svg"><path d="M19.495 23.412c6.189 0 11.206-5.017 11.206-11.206C30.7 6.017 25.684 1 19.495 1 13.306 1 8.289 6.017 8.289 12.206c0 6.189 5.017 11.206 11.206 11.206zm17.878 30.391H1.737c-.198-.677-2.843-10.32 3.276-16.949 4.366-4.731 10.458-4.96 13.482-5.073 3.022-.114 10.107-.38 15.153 4.942 6.364 6.713 3.903 16.42 3.725 17.08z" fill="#223B38" stroke="#CCEC60" stroke-width="2" stroke-miterlimit="10"/><path d="M47.905 14.861V25.94h10.656v2.83H47.905v11.172h-3.018V28.77H34.231v-2.83h10.656V14.86h3.018z" fill="#223B38" stroke="#CCEC60" stroke-miterlimit="10"/></svg>