<svg width="68" height="68" fill="none" xmlns="http://www.w3.org/2000/svg"><path d="M.037 26.74l-.022-7.463c0-.467.03-.938-.01-1.402-.037-.417.133-.481.506-.481 7.05.01 14.098.01 21.145 0 .348 0 .506.079.617.442.553 1.836 2.422 2.924 4.367 2.581 1.841-.323 3.122-2.006 3.05-4.006-.066-1.799-1.525-3.327-3.364-3.52-1.853-.194-3.497.855-4.053 2.63-.108.345-.261.414-.592.414-7.05-.01-14.099-.01-21.145 0-.405 0-.534-.077-.531-.511.02-3.206.01-6.415.01-9.621 0-3.224 2.545-5.793 5.78-5.8C11.356-.008 16.92 0 22.481 0h39.585c2.987 0 5.29 1.888 5.85 4.808.062.326.072.664.072.997.005 6.398 0 12.796.012 19.19 0 .43-.084.554-.538.554-5.144-.02-10.29-.013-15.434-.013-2.041 0-3.586 1.516-3.606 3.56-.02 2.021-.015 4.04-.02 6.062-1.762.306-3.487.797-5.264 1.051a161.18 161.18 0 01-4.485.575c-.76.089-1.536-.04-2.281.175-.01-.133-.03-.264-.03-.397V16.517c0-.402.028-.802.176-1.182.39-.987 1.31-1.612 2.43-1.614 3.592-.008 7.183.002 10.775-.012.323 0 .417.126.5.4.559 1.816 2.36 2.961 4.18 2.673 1.915-.306 3.27-1.871 3.27-3.782 0-1.928-1.39-3.515-3.317-3.791-1.807-.257-3.592.886-4.127 2.678-.099.328-.242.4-.553.397-3.557-.01-7.116-.007-10.673-.005-2.426 0-4.117 1.694-4.117 4.132-.002 6.665 0 13.329 0 19.993 0 .183-.01.368-.017.55-1.938-.01-3.878.038-5.815-.103-.01-1.101-.022-2.2-.027-3.3-.01-1.563-.852-2.397-2.424-2.397H13.49c-.246 0-.456.037-.562-.313-.489-1.587-1.568-2.543-3.224-2.73-1.654-.188-2.907.51-3.774 1.922-.024.043-.059.077-.089.116-1.244-.587-2.414-1.308-3.59-2.014C1.5 27.686.836 27.104.036 26.731v.01z" fill="#CCEC60"/><path d="M.037 26.741c.797.373 1.464.955 2.214 1.404 1.177.706 2.347 1.427 3.591 2.015-.59 1.446-.555 2.843.447 4.102 1.745 2.194 5.107 1.843 6.39-.647.062-.119.119-.24.178-.358 1.933.775 3.934 1.348 5.941 1.879 1.567.414 3.157.765 4.764 1.004 1.328.2 2.646.464 3.99.52.006.169.018.334.018.502 0 10.088-.002 20.178.012 30.265 0 .462-.12.568-.57.568-7.066-.015-14.13-.007-21.197-.012-2.782-.003-5.062-1.834-5.662-4.53a5.5 5.5 0 01-.136-1.192C.02 56.498.025 50.737.01 44.974c0-.42.106-.52.52-.518 6.048.014 12.092.01 18.14.01 1.133 0 1.565.436 1.565 1.577 0 3.692-.005 7.382.01 11.075 0 .345-.1.478-.425.582-1.792.573-2.903 2.315-2.646 4.1.271 1.88 1.81 3.295 3.623 3.332 1.963.042 3.53-1.202 3.915-3.105.375-1.854-.728-3.725-2.58-4.317-.362-.116-.473-.267-.47-.654.017-3.725-.03-7.45.029-11.174.024-1.535-1.118-2.898-2.883-2.893-6.062.018-12.127 0-18.189.02-.53 0-.612-.155-.61-.634.018-5.028.01-10.056.013-15.084 0-.182.013-.365.017-.55H.037zm36.338 10.221c.745-.215 1.52-.089 2.28-.175a161.18 161.18 0 004.485-.575c1.777-.255 3.5-.746 5.265-1.052.005 1.133 0 2.269.025 3.401.007.326-.163.363-.405.437a3.831 3.831 0 00-2.695 3.64 3.844 3.844 0 002.643 3.632c1.958.646 4.105-.415 4.771-2.355.689-2.002-.298-4.152-2.275-4.835-.487-.168-.625-.375-.605-.87.05-1.181.034-2.364.044-3.548.847-.032 1.602-.422 2.382-.672 1.644-.523 3.243-1.185 4.858-1.8.338-.127.644-.355 1.034-.327-1.469 1.352-1.933 2.897-1.316 4.477.447 1.14 1.264 1.915 2.436 2.27.329.1.398.243.398.554-.01 3.84-.003 7.683-.008 11.524 0 1.325-.896 2.19-2.263 2.194-2.79.005-5.578 0-8.367 0-2.09 0-3.446 1.353-3.446 3.438 0 3.725-.005 7.45.01 11.174 0 .388-.094.499-.491.496a933.73 933.73 0 00-8.318-.005c-.309 0-.48-.022-.48-.417.01-10.122.008-20.244.01-30.364 0-.082.018-.166.028-.247v.005z" fill="#CCEC60"/><path d="M67.067 27.027c.612-.06.918.212.918.82v34.367c0 2.644-1.678 4.856-4.198 5.571a5.543 5.543 0 01-1.533.203c-4.86 0-9.72-.005-14.58.01-.466 0-.617-.094-.614-.595.024-3.673.012-7.348.014-11.021 0-1.357.716-2.058 2.074-2.058h8.315c2.19 0 3.688-1.491 3.688-3.668 0-3.809.002-7.615-.005-11.423 0-.329.037-.509.427-.627 1.942-.59 3.026-2.55 2.567-4.54-.444-1.917-2.293-3.117-4.389-2.848.052-.217.257-.247.415-.323a89.83 89.83 0 006.46-3.438c.177-.104.407-.168.441-.427v-.003zm-38.01 9.836c1.935.14 3.875.094 5.815.104.005.183.017.368.017.55 0 9.957-.005 19.914.015 29.87 0 .53-.153.623-.635.613-1.587-.03-3.174-.022-4.76-.005-.356.005-.49-.069-.49-.462.01-10.124.008-20.249.01-30.371 0-.099.02-.198.03-.296l-.002-.003z" fill="#CCEC60"/><path d="M67.067 27.027c-.035.26-.264.324-.442.427-2.1 1.244-4.263 2.372-6.46 3.439-.155.076-.362.106-.414.323-.565.116-1.079.355-1.57.65-.387-.028-.694.197-1.034.327-1.614.615-3.214 1.276-4.858 1.8-.78.249-1.535.636-2.382.671-.064-1.933-.096-3.868.013-5.795.061-1.111.933-1.866 2.036-1.869 4.971-.01 9.942-.005 14.913-.002.064 0 .131.02.195.032l.003-.003zm-39.514 9.636c-1.345-.059-2.665-.323-3.99-.52a44.611 44.611 0 01-4.764-1.005c-2.007-.53-4.009-1.103-5.942-1.878.018-.543.319-.635.82-.632 4.307.022 8.614.012 12.921.012.778 0 .975.195.973.973 0 1.017-.01 2.036-.015 3.053l-.003-.003zM25.882 19.02a2.343 2.343 0 01-2.337-2.362 2.37 2.37 0 012.362-2.35c1.281.008 2.35 1.089 2.347 2.375 0 1.281-1.076 2.34-2.374 2.337h.002zm34.531 18.255c-1.19.134-2.335-.945-2.347-2.315-.013-1.28 1.076-2.325 2.381-2.322 1.309 0 2.298 1.039 2.335 2.354.03 1.022-.933 2.429-2.37 2.283zM23.305 61.326c0 1.31-1.039 2.35-2.342 2.347a2.36 2.36 0 01-2.355-2.35c0-1.31 1.027-2.32 2.358-2.322 1.335 0 2.342.997 2.342 2.325h-.003zm28.21-48.316a2.355 2.355 0 012.35-2.355c1.283-.01 2.36 1.057 2.366 2.348.005 1.283-1.063 2.352-2.357 2.357a2.36 2.36 0 01-2.36-2.348v-.002zm-2.36 31.989a2.373 2.373 0 01-2.221-1.573 2.351 2.351 0 01.742-2.614c.292-.232.595-.41 1.003-.333.224.042.466.01.698.008 1.313 0 2.251 1.031 2.13 2.352a2.39 2.39 0 01-2.352 2.157V45zM11.48 32.662c-.497 1.353-1.936 1.962-3.204 1.36-1.234-.587-1.718-2.041-1.062-3.186.896.533 1.862.925 2.822 1.32.469.193.91.491 1.446.509l-.002-.003z" fill="#CCEC60"/><path d="M11.48 32.662c-.534-.017-.976-.316-1.447-.508-.96-.393-1.925-.785-2.821-1.32a2.278 2.278 0 012.895-1.141c1.212.481 1.785 1.725 1.373 2.97z" fill="#CCEC60"/></svg>