<svg width="77" height="61" fill="none" xmlns="http://www.w3.org/2000/svg"><path d="M56.17 59.204c-.238-.63-.479-1.251-.708-1.88-1.47-4.028-2.946-8.054-4.395-12.089-.154-.434-.414-.44-.772-.44a66585.1 66585.1 0 01-43.79 0c-.837 0-1.679.1-2.508-.098-2.019-.482-3.399-2.203-3.399-4.274C.596 28.621.596 16.82.598 5.014c0-2.466 1.957-4.4 4.443-4.4 18.585 0 37.17 0 55.755-.002 3.713 0 7.429.017 11.142-.016 2.329-.022 4.474 1.968 4.466 4.445-.033 11.802-.011 23.604-.016 35.409 0 2.435-1.926 4.351-4.369 4.359-3.294.01-6.587.01-9.881-.008-.481-.002-.727.16-.877.618-1.487 4.53-3.256 8.961-4.85 13.454-.04.116-.05.255-.24.333v-.002zm-7.998-35.578a6.256 6.256 0 006.306 6.134c3.575-.038 6.306-2.814 6.278-6.47-.027-3.401-2.975-6.154-6.507-6.106-3.36.045-6.123 2.976-6.077 6.442zm-29.665-6.442c-3.506-.008-6.369 2.788-6.369 6.241 0 3.53 2.746 6.319 6.269 6.333 3.577.014 6.282-2.786 6.31-6.328.027-3.375-2.833-6.24-6.21-6.249v.003zm17.853 0c-3.472-.008-6.304 2.783-6.309 6.234-.007 3.62 2.8 6.33 6.254 6.34 3.61.01 6.333-2.755 6.306-6.378-.026-3.64-2.986-6.192-6.249-6.196h-.002z" fill="#223B38" stroke="#CCEC60" stroke-width="1.192" stroke-miterlimit="10"/><path d="M54.47 33.283c-.218 0-.44.01-.66-.002-.26-.017-.521-.029-.77-.12a.66.66 0 01-.414-.433c-.11-.332-.226-.663-.317-1.001-.038-.141-.119-.177-.24-.217-.327-.11-.654-.224-.973-.358-.255-.107-.5-.243-.748-.37a.107.107 0 00-.108 0c-.233.122-.464.244-.7.36-.155.077-.308.163-.47.218a.625.625 0 01-.565-.09c-.486-.325-.898-.733-1.289-1.162a7.645 7.645 0 01-.553-.686c-.157-.222-.162-.474-.04-.717.166-.334.34-.663.514-.992.029-.055.031-.1 0-.155a7.51 7.51 0 01-.555-1.21c-.069-.196-.131-.396-.193-.596-.017-.055-.043-.086-.1-.103-.374-.117-.75-.231-1.12-.362a.648.648 0 01-.434-.517c-.12-.603-.121-1.216-.093-1.826.01-.217.038-.434.064-.65.046-.363.232-.591.591-.694.339-.098.673-.212 1.009-.317.045-.014.064-.04.076-.083a8.023 8.023 0 01.755-1.824.126.126 0 00.005-.136c-.167-.314-.326-.633-.493-.948-.155-.296-.14-.572.057-.846.379-.524.834-.977 1.318-1.4a8.04 8.04 0 01.422-.333c.264-.198.543-.205.834-.05.32.172.639.336.96.5a.133.133 0 00.105-.002 8.299 8.299 0 011.292-.588c.174-.062.35-.115.527-.165a.156.156 0 00.119-.119c.06-.203.124-.403.188-.603l.143-.448c.098-.296.31-.453.608-.503.62-.105 1.244-.098 1.868-.07.21.01.42.04.627.075.332.057.517.27.608.584.086.295.184.586.276.88.008.018.017.037.02.056.007.105.078.134.166.16.21.06.415.129.62.205.37.133.73.296 1.068.493.107.062.183.055.286 0 .322-.174.646-.343.975-.5a.64.64 0 01.676.067c.186.13.37.271.541.424.387.34.749.705 1.07 1.108.115.143.241.281.298.462a.712.712 0 01-.03.551 41.16 41.16 0 01-.501.963c-.045.086-.045.148 0 .238.17.334.331.672.474 1.018.103.248.174.51.258.765.014.04.033.064.074.076.252.079.505.157.755.24.16.053.324.099.474.172.189.091.3.255.339.46a7.15 7.15 0 01.088 1.86c-.014.207-.036.414-.06.622-.026.219-.097.417-.286.55a.938.938 0 01-.243.124c-.36.12-.722.231-1.082.348a.109.109 0 00-.06.062 7.61 7.61 0 01-.7 1.723c-.081.145-.074.245.002.381.165.291.32.589.463.892a.684.684 0 01-.048.705c-.298.448-.672.832-1.063 1.197-.203.19-.42.364-.634.543-.179.148-.376.243-.617.215-.14-.017-.26-.082-.382-.146-.295-.152-.588-.307-.886-.455a.126.126 0 00-.098 0c-.236.114-.467.24-.705.35-.365.17-.744.3-1.132.408-.06.016-.086.05-.103.102-.114.367-.221.734-.345 1.097-.089.255-.28.405-.546.46-.422.085-.849.088-1.275.08l.019.003zm6.18-9.784a6.182 6.182 0 00-6.141-6.213c-3.46-.024-6.22 2.772-6.237 6.166-.017 3.398 2.753 6.21 6.182 6.215 3.392.005 6.192-2.752 6.197-6.168z" fill="#223B38" stroke="#CCEC60" stroke-width=".715" stroke-miterlimit="10"/><path d="M27.448 27.651c-.093-.2-.198-.395-.279-.598-.095-.24-.195-.484-.219-.746a.662.662 0 01.217-.558c.255-.24.505-.486.772-.71.112-.095.11-.183.096-.31a14.806 14.806 0 01-.091-1.032c-.012-.276.007-.555.017-.834a.111.111 0 00-.046-.098c-.207-.16-.417-.319-.624-.481-.136-.107-.276-.21-.396-.331-.145-.15-.188-.343-.157-.55.088-.578.281-1.123.503-1.66.112-.271.243-.536.386-.79.134-.24.36-.349.632-.342.371.008.743.029 1.117.046a.149.149 0 00.141-.067 7.6 7.6 0 01.858-1.018 11 11 0 01.457-.426c.043-.039.06-.074.053-.134-.053-.388-.11-.777-.148-1.168a.65.65 0 01.284-.612c.496-.365 1.048-.625 1.613-.858.2-.084.41-.15.615-.217.348-.112.632-.043.88.24.23.265.476.518.715.778.03.033.064.04.107.033a8.028 8.028 0 011.97-.09c.053.004.092-.01.125-.055.214-.284.436-.565.65-.849.2-.264.46-.37.792-.307.636.121 1.237.34 1.825.6.165.072.325.155.482.241.29.157.417.405.398.734-.02.36-.034.722-.045 1.082 0 .031.021.076.047.093a8.27 8.27 0 011.08.92c.129.131.252.267.372.407.045.053.09.067.157.058.207-.031.417-.06.627-.086.155-.022.312-.043.467-.06.307-.035.54.088.715.336.36.518.617 1.085.855 1.664.081.195.143.398.198.6.088.325-.024.582-.271.799-.232.202-.453.415-.68.624-.014.015-.028.031-.045.04-.093.053-.088.127-.072.22.034.215.06.431.08.648.035.391.04.784.004 1.178-.012.124.029.188.121.26.294.216.587.438.868.67a.64.64 0 01.229.64 5.8 5.8 0 01-.155.67c-.145.493-.32.977-.548 1.44-.081.164-.153.336-.293.464a.705.705 0 01-.51.205c-.363-.01-.723-.026-1.082-.045-.096-.005-.153.021-.217.102-.231.294-.47.584-.72.863-.181.198-.386.374-.584.558a.106.106 0 00-.038.1c.036.262.071.524.102.787.02.166.048.333.046.5 0 .21-.105.379-.272.503-.505.37-1.063.643-1.645.87-.195.076-.39.145-.588.212-.21.069-.42.088-.62-.024a.927.927 0 01-.217-.167c-.262-.274-.515-.555-.774-.831a.1.1 0 00-.081-.027 7.695 7.695 0 01-1.857.098c-.164-.012-.255.038-.346.164a14.06 14.06 0 01-.61.796.682.682 0 01-.657.258c-.532-.081-1.037-.255-1.535-.453-.258-.102-.508-.226-.76-.343-.21-.098-.382-.239-.458-.467-.046-.134-.036-.27-.031-.408.014-.331.026-.662.036-.996a.13.13 0 00-.043-.088c-.205-.165-.415-.322-.615-.491a7.38 7.38 0 01-.851-.853.14.14 0 00-.136-.05c-.379.052-.758.111-1.14.152-.266.029-.485-.081-.647-.298-.255-.346-.439-.73-.613-1.12l.007-.005zm11.48 1.442a6.184 6.184 0 003.02-8.198c-1.446-3.144-5.15-4.457-8.23-3.03-3.083 1.428-4.456 5.13-3.005 8.237 1.435 3.072 5.12 4.438 8.216 2.994v-.003z" fill="#223B38" stroke="#CCEC60" stroke-width=".715" stroke-miterlimit="10"/><path d="M11.19 30.087c-.148-.162-.306-.32-.444-.489-.162-.202-.331-.405-.431-.648a.663.663 0 01.04-.598c.172-.305.339-.613.527-.908.079-.124.05-.207 0-.324-.14-.315-.276-.634-.39-.958-.094-.262-.158-.534-.232-.801a.105.105 0 00-.072-.079c-.245-.09-.493-.181-.738-.274-.16-.062-.327-.117-.477-.2a.622.622 0 01-.315-.48c-.088-.576-.064-1.155-.012-1.734a7.25 7.25 0 01.134-.87c.057-.267.24-.439.5-.512.358-.103.72-.194 1.08-.289a.141.141 0 00.115-.105c.135-.424.31-.832.519-1.227.098-.184.203-.365.31-.544a.139.139 0 00.01-.143c-.165-.355-.334-.71-.487-1.07a.647.647 0 01.09-.67c.368-.495.816-.907 1.288-1.298.167-.139.345-.265.524-.389.298-.212.591-.226.91-.03.3.183.61.352.913.53.04.025.074.022.112 0a8.123 8.123 0 011.857-.671c.052-.012.083-.036.102-.088.122-.337.248-.67.37-1.004.114-.312.329-.489.665-.527.643-.073 1.282-.042 1.923.031.179.022.355.053.532.086.324.062.517.262.598.582.088.35.183.698.279 1.046.007.03.043.064.074.076a8.072 8.072 0 011.78.837c.06.036.107.038.17.007.19-.093.38-.179.571-.27.143-.066.284-.133.43-.195.283-.126.543-.076.78.11.496.386.911.853 1.312 1.334.133.163.255.337.367.515.18.284.15.563-.022.844-.16.262-.31.531-.462.796-.01.017-.017.038-.031.052-.072.077-.045.148-.005.232.095.195.184.393.267.595.15.365.272.737.355 1.123.026.122.084.172.193.212.346.12.689.245 1.027.384.239.098.377.29.408.546.029.226.048.455.052.684a8.955 8.955 0 01-.097 1.537c-.029.18-.046.367-.141.531a.705.705 0 01-.427.348c-.348.098-.696.19-1.046.28-.093.023-.14.066-.176.161-.134.35-.274.698-.432 1.037-.114.243-.26.472-.39.705a.108.108 0 00-.008.108c.112.24.224.479.332.722.069.152.145.305.193.465.06.2.014.393-.112.56-.375.502-.825.93-1.314 1.317-.162.13-.33.255-.5.377-.179.129-.374.21-.6.162a.968.968 0 01-.256-.095c-.33-.186-.657-.377-.986-.565a.099.099 0 00-.086 0 7.75 7.75 0 01-1.745.644c-.162.038-.23.111-.28.26-.106.316-.22.63-.346.94a.686.686 0 01-.553.442c-.532.08-1.068.064-1.6.021-.276-.021-.553-.064-.829-.102-.229-.031-.434-.115-.577-.313-.08-.114-.114-.248-.15-.379a143.09 143.09 0 00-.26-.962c-.007-.03-.04-.06-.066-.072-.244-.098-.491-.184-.735-.286a7.448 7.448 0 01-1.065-.562.13.13 0 00-.143-.008c-.348.163-.691.332-1.044.484-.248.107-.488.067-.705-.093-.346-.252-.636-.567-.918-.886l-.005-.005zm11.392-2.03a6.184 6.184 0 00.453-8.726c-2.315-2.574-6.24-2.729-8.76-.453-2.52 2.281-2.733 6.22-.426 8.756 2.284 2.51 6.206 2.72 8.733.42v.002z" fill="#223B38" stroke="#CCEC60" stroke-width=".715" stroke-miterlimit="10"/></svg>