<svg width="153" height="173" fill="none" xmlns="http://www.w3.org/2000/svg"><rect x=".421" y=".421" width="152.158" height="172.158" rx="19.579" fill="url(#paint0_linear_299_144)" fill-opacity=".53" stroke="url(#paint1_linear_299_144)" stroke-width=".842"/><mask id="a" style="mask-type:alpha" maskUnits="userSpaceOnUse" x="0" y="0" width="153" height="172"><rect x=".421" y=".421" width="152.158" height="171.158" rx="19.579" fill="url(#paint2_linear_299_144)" fill-opacity=".53" stroke="url(#paint3_linear_299_144)" stroke-width=".842"/></mask><g filter="url(#filter0_f_299_144)" mask="url(#a)"><path d="M10 199.914c-5.136 0-9.511-1.398-13.125-4.193-3.614-2.818-6.375-6.898-8.284-12.239-1.91-5.364-2.864-11.841-2.864-19.432 0-7.545.955-13.988 2.864-19.329 1.932-5.364 4.704-9.455 8.318-12.273 3.636-2.841 8-4.261 13.091-4.261 5.09 0 9.443 1.42 13.057 4.261 3.636 2.818 6.409 6.909 8.318 12.273 1.932 5.341 2.898 11.784 2.898 19.329 0 7.591-.955 14.068-2.864 19.432-1.909 5.341-4.67 9.421-8.284 12.239-3.614 2.795-7.989 4.193-13.125 4.193zm0-7.5c5.09 0 9.046-2.455 11.864-7.364 2.818-4.909 4.227-11.909 4.227-21 0-6.045-.648-11.193-1.943-15.443-1.273-4.25-3.114-7.489-5.523-9.716-2.386-2.227-5.261-3.341-8.625-3.341-5.045 0-8.989 2.489-11.83 7.466-2.84 4.955-4.26 11.966-4.26 21.034 0 6.046.635 11.182 1.908 15.409 1.273 4.228 3.102 7.444 5.489 9.648 2.409 2.205 5.307 3.307 8.693 3.307zm60.818 7.5c-4.5 0-8.511-.773-12.034-2.318-3.5-1.546-6.284-3.693-8.352-6.443-2.046-2.773-3.16-5.989-3.341-9.648h8.59c.183 2.25.955 4.193 2.319 5.829 1.364 1.614 3.148 2.864 5.352 3.75 2.205.887 4.648 1.33 7.33 1.33 3 0 5.659-.523 7.977-1.568 2.318-1.046 4.136-2.5 5.455-4.364 1.318-1.864 1.977-4.023 1.977-6.477 0-2.568-.636-4.83-1.91-6.784-1.272-1.978-3.135-3.523-5.59-4.637-2.455-1.113-5.455-1.67-9-1.67H64v-7.5h5.59c2.774 0 5.206-.5 7.296-1.5 2.114-1 3.762-2.409 4.944-4.227 1.204-1.819 1.806-3.955 1.806-6.409 0-2.364-.522-4.421-1.568-6.171-1.045-1.75-2.522-3.114-4.432-4.091-1.886-.977-4.113-1.466-6.681-1.466-2.41 0-4.682.443-6.819 1.33-2.113.863-3.84 2.125-5.181 3.784-1.341 1.636-2.069 3.614-2.182 5.932H48.59c.136-3.659 1.239-6.864 3.307-9.614 2.068-2.773 4.772-4.932 8.113-6.477 3.364-1.546 7.057-2.318 11.08-2.318 4.318 0 8.023.875 11.114 2.625 3.09 1.727 5.466 4.011 7.124 6.852a17.94 17.94 0 012.49 9.204c0 3.932-1.035 7.285-3.103 10.057-2.045 2.773-4.83 4.693-8.352 5.762v.545c4.409.727 7.852 2.602 10.33 5.625 2.477 3 3.715 6.716 3.715 11.148 0 3.795-1.034 7.204-3.102 10.227-2.046 3-4.841 5.364-8.386 7.091-3.546 1.727-7.58 2.591-12.103 2.591z" fill="#CCEC60"/></g><path d="M12.932 41l.9-2.22-2.532-6.54h1.944l1.152 3.564c.064.192.12.412.168.66.056.248.096.452.12.612.016-.16.044-.364.084-.612.048-.256.1-.476.156-.66l1.092-3.564H17.9L14.816 41h-1.884zm8.9.12c-.585 0-1.097-.108-1.537-.324a2.488 2.488 0 01-1.02-.924c-.24-.4-.36-.864-.36-1.392v-1.56c0-.536.12-1 .36-1.392.24-.392.58-.696 1.02-.912.44-.224.952-.336 1.536-.336.872 0 1.568.22 2.088.66.52.44.796 1.04.828 1.8h-1.8a.904.904 0 00-.336-.66c-.192-.16-.452-.24-.78-.24-.36 0-.636.092-.828.276-.192.184-.288.452-.288.804v1.56c0 .344.096.612.288.804.192.184.468.276.828.276.328 0 .588-.076.78-.228.2-.16.312-.384.336-.672h1.8c-.032.76-.308 1.36-.828 1.8-.52.44-1.216.66-2.088.66zm4.387-.12v-6.6h1.8v2.496h.888l1.38-2.496h2.004l-1.836 3.228L32.327 41h-2.04l-1.392-2.592h-.876V41h-1.8zm9.967.12c-.584 0-1.092-.108-1.524-.324a2.505 2.505 0 01-1.008-.924c-.232-.4-.348-.864-.348-1.392v-1.56c0-.528.116-.988.348-1.38.24-.4.576-.708 1.008-.924.432-.224.94-.336 1.524-.336.592 0 1.1.112 1.524.336.432.216.764.524.996.924.24.392.36.852.36 1.38v1.56c0 .528-.12.992-.36 1.392-.232.392-.564.7-.996.924-.424.216-.932.324-1.524.324zm0-1.56c.352 0 .62-.092.804-.276.184-.192.276-.46.276-.804v-1.56c0-.352-.092-.62-.276-.804-.184-.184-.452-.276-.804-.276-.344 0-.612.092-.804.276-.184.184-.276.452-.276.804v1.56c0 .344.092.612.276.804.192.184.46.276.804.276zm4.387 3.6V34.4h1.74v1.26h.42l-.42.42c0-.568.156-1.008.468-1.32.312-.32.74-.48 1.284-.48.664 0 1.196.236 1.596.708.4.464.6 1.088.6 1.872v1.68c0 .52-.092.976-.276 1.368a2.093 2.093 0 01-.756.9c-.328.208-.716.312-1.164.312-.544 0-.972-.156-1.284-.468-.312-.32-.468-.764-.468-1.332l.42.42h-.42l.06 1.62v1.8h-1.8zm2.844-3.6c.336 0 .592-.092.768-.276.184-.192.276-.46.276-.804v-1.56c0-.352-.092-.62-.276-.804-.176-.184-.432-.276-.768-.276-.328 0-.584.096-.768.288-.184.184-.276.448-.276.792v1.56c0 .344.092.612.276.804.184.184.44.276.768.276zm7.172 1.56c-.584 0-1.096-.108-1.536-.324a2.505 2.505 0 01-1.008-.924c-.232-.4-.348-.864-.348-1.392v-1.56c0-.528.116-.988.348-1.38.24-.4.576-.708 1.008-.924.44-.224.952-.336 1.536-.336.584 0 1.088.112 1.512.336.432.216.764.524.996.924.24.392.36.852.36 1.38v1.2h-4.044v.36c0 .416.1.732.3.948.2.208.5.312.9.312.28 0 .504-.048.672-.144a.698.698 0 00.348-.396h1.764c-.144.576-.472 1.04-.984 1.392-.504.352-1.112.528-1.824.528zm1.152-3.924v-.3c0-.408-.096-.72-.288-.936-.184-.216-.472-.324-.864-.324s-.688.112-.888.336c-.192.224-.288.54-.288.948v.18l2.448-.024-.12.12zM54.964 41v-6.6h1.8v2.412h2.016V34.4h1.8V41h-1.8v-2.508h-2.016V41h-1.8zm7.195 0v-6.6h1.584v3c0 .2-.012.452-.036.756-.024.296-.056.596-.096.9-.032.304-.068.572-.108.804l2.088-5.46h2.184V41h-1.584v-3c0-.208.012-.444.036-.708.024-.272.052-.544.084-.816.032-.272.064-.504.096-.696L64.343 41H62.16zm10.015.12c-.584 0-1.096-.108-1.536-.324a2.505 2.505 0 01-1.008-.924c-.231-.4-.347-.864-.347-1.392v-1.56c0-.528.115-.988.347-1.38.24-.4.577-.708 1.008-.924.44-.224.953-.336 1.536-.336.584 0 1.088.112 1.512.336.432.216.764.524.996.924.24.392.36.852.36 1.38v1.2H71v.36c0 .416.1.732.3.948.2.208.5.312.9.312.28 0 .504-.048.672-.144a.698.698 0 00.348-.396h1.764A2.342 2.342 0 0174 40.592c-.504.352-1.112.528-1.825.528zm1.152-3.924v-.3c0-.408-.095-.72-.287-.936-.184-.216-.472-.324-.865-.324-.392 0-.688.112-.888.336-.192.224-.287.54-.287.948v.18l2.448-.024-.12.12zM83.746 41v-6.6h5.615V41h-1.8v-4.92h-2.016V41h-1.8zm7.194 2.16V34.4h1.74v1.26h.42l-.42.42c0-.568.156-1.008.468-1.32.312-.32.74-.48 1.284-.48.664 0 1.196.236 1.596.708.4.464.6 1.088.6 1.872v1.68c0 .52-.092.976-.276 1.368a2.093 2.093 0 01-.756.9c-.328.208-.716.312-1.164.312-.544 0-.972-.156-1.284-.468-.312-.32-.468-.764-.468-1.332l.42.42h-.42l.06 1.62v1.8h-1.8zm2.844-3.6c.336 0 .592-.092.768-.276.184-.192.276-.46.276-.804v-1.56c0-.352-.092-.62-.276-.804-.176-.184-.432-.276-.768-.276-.328 0-.584.096-.768.288-.184.184-.276.448-.276.792v1.56c0 .344.092.612.276.804.184.184.44.276.768.276zM98.136 41v-6.6h1.584v3c0 .2-.012.452-.036.756-.024.296-.056.596-.096.9-.032.304-.068.572-.108.804l2.088-5.46h2.184V41h-1.584v-3c0-.208.012-.444.036-.708.024-.272.052-.544.084-.816.032-.272.064-.504.096-.696L100.32 41h-2.184zm7.195 0v-6.6h1.8v2.412h2.016V34.4h1.8V41h-1.8v-2.508h-2.016V41h-1.8zm7.003 0l1.44-2.316a2.07 2.07 0 01-.996-.756 2.065 2.065 0 01-.36-1.212c0-.728.244-1.296.732-1.704.488-.408 1.164-.612 2.028-.612h2.964V41h-1.788v-2.088h-.792l-1.2 2.088h-2.028zm2.952-3.456h1.08v-1.716h-1.08c-.336 0-.6.076-.792.228-.192.152-.288.364-.288.636s.092.484.276.636c.192.144.46.216.804.216zM121.63 41v-4.92h-2.16V34.4h6.12v1.68h-2.16V41h-1.8zm5.287 0v-6.6h1.584v3c0 .2-.012.452-.036.756-.024.296-.056.596-.096.9-.032.304-.068.572-.108.804l2.088-5.46h2.184V41h-1.584v-3c0-.208.012-.444.036-.708.024-.272.052-.544.084-.816.032-.272.064-.504.096-.696L129.101 41h-2.184zm7.003 0l1.44-2.316a2.07 2.07 0 01-.996-.756 2.065 2.065 0 01-.36-1.212c0-.728.244-1.296.732-1.704.488-.408 1.164-.612 2.028-.612h2.964V41h-1.788v-2.088h-.792l-1.2 2.088h-2.028zm2.952-3.456h1.08v-1.716h-1.08c-.336 0-.6.076-.792.228-.192.152-.288.364-.288.636s.092.484.276.636c.192.144.46.216.804.216zM11.792 59.16V50.4h1.74v1.26h.42l-.42.42c0-.568.156-1.008.468-1.32.312-.32.74-.48 1.284-.48.664 0 1.196.236 1.596.708.4.464.6 1.088.6 1.872v1.68c0 .52-.092.976-.276 1.368a2.093 2.093 0 01-.756.9c-.328.208-.716.312-1.164.312-.544 0-.972-.156-1.284-.468-.312-.32-.468-.764-.468-1.332l.42.42h-.42l.06 1.62v1.8h-1.8zm2.844-3.6c.336 0 .592-.092.768-.276.184-.192.276-.46.276-.804v-1.56c0-.352-.092-.62-.276-.804-.176-.184-.432-.276-.768-.276-.328 0-.584.096-.768.288-.184.184-.276.448-.276.792v1.56c0 .344.092.612.276.804.184.184.44.276.768.276zm7.171 1.56c-.584 0-1.096-.108-1.536-.324a2.505 2.505 0 01-1.008-.924c-.232-.4-.348-.864-.348-1.392v-1.56c0-.528.116-.988.348-1.38.24-.4.576-.708 1.008-.924.44-.224.952-.336 1.536-.336.584 0 1.088.112 1.512.336.432.216.764.524.996.924.24.392.36.852.36 1.38v1.2h-4.044v.36c0 .416.1.732.3.948.2.208.5.312.9.312.28 0 .504-.048.672-.144a.698.698 0 00.348-.396h1.764c-.144.576-.472 1.04-.984 1.392-.504.352-1.112.528-1.824.528zm1.152-3.924v-.3c0-.408-.096-.72-.288-.936-.184-.216-.472-.324-.864-.324s-.688.112-.888.336c-.192.224-.288.54-.288.948v.18l2.448-.024-.12.12zM25.871 57v-6.6h1.476v5.4h1.02v-5.4h1.248v5.4h1.02v-5.4h1.476V57h-6.24zm10.327.12c-.584 0-1.096-.108-1.536-.324a2.505 2.505 0 01-1.008-.924c-.232-.4-.348-.864-.348-1.392v-1.56c0-.528.116-.988.348-1.38.24-.4.576-.708 1.008-.924.44-.224.952-.336 1.536-.336.584 0 1.088.112 1.512.336.432.216.764.524.996.924.24.392.36.852.36 1.38v1.2h-4.044v.36c0 .416.1.732.3.948.2.208.5.312.9.312.28 0 .504-.048.672-.144a.698.698 0 00.348-.396h1.764c-.144.576-.472 1.04-.984 1.392-.504.352-1.112.528-1.824.528zm1.152-3.924v-.3c0-.408-.096-.72-.288-.936-.184-.216-.472-.324-.864-.324s-.688.112-.888.336c-.192.224-.288.54-.288.948v.18l2.448-.024-.12.12zM40.573 57v-6.6h1.8v2.412h2.016V50.4h1.8V57h-1.8v-2.508h-2.016V57h-1.8zm7.196 0v-6.6h1.584v3c0 .2-.012.452-.036.756-.024.296-.056.596-.096.9-.032.304-.068.572-.108.804L51.2 50.4h2.184V57H51.8v-3c0-.208.012-.444.036-.708.024-.272.052-.544.084-.816.032-.272.064-.504.096-.696L49.953 57h-2.184zm7.195 0v-6.6h1.584v3c0 .2-.012.452-.036.756-.024.296-.056.596-.096.9-.032.304-.068.572-.108.804l2.088-5.46h2.184V57h-1.584v-3c0-.208.012-.444.036-.708.024-.272.052-.544.084-.816.032-.272.064-.504.096-.696L57.148 57h-2.184zm2.856-7.62c-.656 0-1.192-.164-1.608-.492a1.615 1.615 0 01-.612-1.308h1.38c0 .224.076.408.228.552.16.136.364.204.612.204.256 0 .46-.068.612-.204a.727.727 0 00.228-.552h1.38c0 .536-.204.972-.612 1.308-.408.328-.944.492-1.608.492z" fill="#fff"/><path d="M72.162 57.12c-.776 0-1.392-.228-1.848-.684-.447-.464-.671-1.096-.671-1.896v-3c0-1.056.263-1.868.791-2.436.529-.576 1.285-.864 2.269-.864h1.68v1.08h-1.68c-.648 0-1.14.192-1.477.576-.335.376-.504.924-.504 1.644v.78h.169l-.169.24c.009-.472.169-.84.48-1.104.313-.264.737-.396 1.273-.396.696 0 1.236.224 1.62.672.392.448.588 1.064.588 1.848v.96c0 .536-.1.996-.3 1.38-.2.384-.489.68-.864.888-.377.208-.829.312-1.357.312zm0-.96c.464 0 .82-.14 1.069-.42.248-.28.372-.68.372-1.2v-.96c0-.52-.124-.92-.372-1.2-.248-.28-.605-.42-1.069-.42-.464 0-.82.14-1.068.42-.247.272-.371.672-.371 1.2v.96c0 .52.124.92.371 1.2.249.28.605.42 1.069.42zm3.896.924v-1.008h.216c.368 0 .624-.144.768-.432.152-.288.232-.804.24-1.548l.072-3.696h4.476V57h-1.08v-5.616h-2.328l-.06 2.76c-.016.696-.096 1.26-.24 1.692-.136.432-.352.748-.648.948-.288.2-.668.3-1.14.3h-.276zm9.92.036c-.697 0-1.245-.176-1.645-.528-.4-.36-.6-.844-.6-1.452 0-.616.2-1.1.6-1.452.4-.352.94-.528 1.62-.528h2.04v-.66c0-.408-.124-.72-.372-.936-.24-.224-.584-.336-1.032-.336-.392 0-.72.084-.984.252-.264.16-.416.38-.456.66h-1.08c.072-.568.34-1.02.804-1.356.464-.336 1.044-.504 1.74-.504.76 0 1.36.196 1.8.588.44.392.66.924.66 1.596V57h-1.056v-1.26h-.18l.18-.18c0 .48-.188.86-.564 1.14-.368.28-.86.42-1.476.42zm.263-.852c.512 0 .932-.128 1.26-.384.328-.256.492-.584.492-.984v-.936h-2.016c-.36 0-.644.1-.852.3-.208.2-.312.472-.312.816 0 .368.124.66.372.876.256.208.608.312 1.056.312zm5.467.732v-6.6h4.74v.984h-3.66V57h-1.08zm9.236.096c-.528 0-.984-.1-1.368-.3a2.178 2.178 0 01-.9-.864c-.208-.384-.312-.836-.312-1.356v-1.752c0-.528.104-.98.312-1.356.216-.376.516-.664.9-.864.384-.2.84-.3 1.368-.3.528 0 .984.1 1.368.3.384.2.68.488.888.864.216.376.324.824.324 1.344v1.764c0 .52-.108.972-.324 1.356a2.103 2.103 0 01-.888.864c-.384.2-.84.3-1.368.3zm0-.96c.472 0 .84-.132 1.104-.396.264-.264.396-.652.396-1.164v-1.752c0-.512-.132-.9-.396-1.164-.264-.264-.632-.396-1.104-.396-.464 0-.832.132-1.104.396-.264.264-.396.652-.396 1.164v1.752c0 .512.132.9.396 1.164.272.264.64.396 1.104.396zm3.955 2.544v-2.604h.54c.136-.136.276-.404.42-.804.152-.4.232-.908.24-1.524l.072-3.348h4.308v5.676h.84v2.604h-.96V57h-4.5v1.68h-.96zm1.68-2.604h2.82V51.36h-2.208l-.048 2.412c-.008.632-.076 1.144-.204 1.536-.128.392-.248.648-.36.768zm8.179 1.044c-.696 0-1.244-.176-1.644-.528-.4-.36-.6-.844-.6-1.452 0-.616.2-1.1.6-1.452.4-.352.94-.528 1.62-.528h2.04v-.66c0-.408-.124-.72-.372-.936-.24-.224-.584-.336-1.032-.336-.392 0-.72.084-.984.252-.264.16-.416.38-.456.66h-1.08c.072-.568.34-1.02.804-1.356.464-.336 1.044-.504 1.74-.504.76 0 1.36.196 1.8.588.44.392.66.924.66 1.596V57h-1.056v-1.26h-.18l.18-.18c0 .48-.188.86-.564 1.14-.368.28-.86.42-1.476.42zm.264-.852c.512 0 .932-.128 1.26-.384.328-.256.492-.584.492-.984v-.936h-2.016c-.36 0-.644.1-.852.3-.208.2-.312.472-.312.816 0 .368.124.66.372.876.256.208.608.312 1.056.312zm5.012 2.892V50.4h1.08v1.26h.216l-.216.252c0-.504.164-.9.492-1.188.336-.296.776-.444 1.32-.444.664 0 1.192.22 1.584.66.4.432.6 1.028.6 1.788v1.932c0 .504-.092.94-.276 1.308a1.962 1.962 0 01-.756.852c-.32.2-.704.3-1.152.3-.536 0-.972-.148-1.308-.444-.336-.296-.504-.692-.504-1.188l.216.252h-.24l.024 1.5v1.92h-1.08zm2.532-2.976c.456 0 .812-.136 1.068-.408.264-.272.396-.664.396-1.176v-1.8c0-.512-.132-.904-.396-1.176-.256-.272-.612-.408-1.068-.408-.44 0-.792.14-1.056.42-.264.28-.396.668-.396 1.164v1.8c0 .496.132.884.396 1.164.264.28.616.42 1.056.42zm4.279.816l1.692-2.544c-.504-.12-.896-.352-1.176-.696-.272-.344-.408-.772-.408-1.284 0-.648.212-1.156.636-1.524.432-.368 1.02-.552 1.764-.552h2.844V57h-1.08v-2.46h-1.452l-1.56 2.46h-1.26zm2.508-3.42h1.764v-2.22h-1.764c-.4 0-.716.1-.948.3-.232.192-.348.464-.348.816 0 .344.116.616.348.816.232.192.548.288.948.288zM12.128 73v-6.6h4.944V73h-1.08v-5.616h-2.784V73h-1.08zm7.171 2.16V66.4h1.08v1.26h.216l-.216.252c0-.504.164-.9.492-1.188.336-.296.776-.444 1.32-.444.664 0 1.192.22 1.584.66.4.432.6 1.028.6 1.788v1.932c0 .504-.092.94-.276 1.308a1.962 1.962 0 01-.756.852c-.32.2-.704.3-1.152.3-.536 0-.972-.148-1.308-.444-.336-.296-.504-.692-.504-1.188l.216.252h-.24l.024 1.5v1.92H19.3zm2.532-2.976c.456 0 .812-.136 1.068-.408.264-.272.396-.664.396-1.176v-1.8c0-.512-.132-.904-.396-1.176-.256-.272-.612-.408-1.068-.408-.44 0-.792.14-1.056.42-.264.28-.396.668-.396 1.164v1.8c0 .496.132.884.396 1.164.264.28.616.42 1.056.42zm7.16.912c-.528 0-.984-.1-1.368-.3a2.178 2.178 0 01-.9-.864c-.208-.384-.312-.836-.312-1.356v-1.752c0-.528.104-.98.312-1.356.216-.376.516-.664.9-.864.384-.2.84-.3 1.368-.3.528 0 .984.1 1.368.3.384.2.68.488.888.864.216.376.324.824.324 1.344v1.764c0 .52-.108.972-.324 1.356a2.103 2.103 0 01-.888.864c-.384.2-.84.3-1.368.3zm0-.96c.472 0 .84-.132 1.104-.396.264-.264.396-.652.396-1.164v-1.752c0-.512-.132-.9-.396-1.164-.264-.264-.632-.396-1.104-.396-.464 0-.832.132-1.104.396-.264.264-.396.652-.396 1.164v1.752c0 .512.132.9.396 1.164.272.264.64.396 1.104.396zm6.883.948c-.696 0-1.268-.148-1.716-.444a1.764 1.764 0 01-.792-1.2h1.14c.056.2.204.364.444.492.248.128.556.192.924.192h.564c.392 0 .696-.092.912-.276a.887.887 0 00.336-.72c0-.32-.108-.572-.324-.756-.208-.184-.516-.276-.924-.276h-1.452v-.936h1.416c.368 0 .648-.088.84-.264a.9.9 0 00.288-.696c0-.2-.044-.368-.132-.504a.763.763 0 00-.372-.312 1.551 1.551 0 00-.612-.108h-.6c-.32 0-.596.072-.828.216-.232.144-.372.32-.42.528h-1.14c.08-.496.34-.904.78-1.224.44-.32.976-.48 1.608-.48h.6c.472 0 .876.076 1.212.228.336.144.592.352.768.624.184.272.276.596.276.972 0 .392-.128.716-.384.972-.256.248-.616.388-1.08.42v.048c.568.04.98.192 1.236.456s.384.644.384 1.14c0 .584-.216 1.048-.648 1.392-.432.344-1.012.516-1.74.516h-.564zm5.011 2.076V66.4h1.08v1.26h.216l-.216.252c0-.504.164-.9.492-1.188.336-.296.776-.444 1.32-.444.664 0 1.192.22 1.584.66.4.432.6 1.028.6 1.788v1.932c0 .504-.092.94-.276 1.308a1.962 1.962 0 01-.756.852c-.32.2-.704.3-1.152.3-.536 0-.972-.148-1.308-.444-.336-.296-.504-.692-.504-1.188l.216.252h-.24l.024 1.5v1.92h-1.08zm2.532-2.976c.456 0 .812-.136 1.068-.408.264-.272.396-.664.396-1.176v-1.8c0-.512-.132-.904-.396-1.176-.256-.272-.612-.408-1.068-.408-.44 0-.792.14-1.056.42-.264.28-.396.668-.396 1.164v1.8c0 .496.132.884.396 1.164.264.28.616.42 1.056.42zm6.584.936c-.696 0-1.244-.176-1.644-.528-.4-.36-.6-.844-.6-1.452 0-.616.2-1.1.6-1.452.4-.352.94-.528 1.62-.528h2.04v-.66c0-.408-.124-.72-.372-.936-.24-.224-.584-.336-1.032-.336-.392 0-.72.084-.984.252-.264.16-.416.38-.456.66h-1.08c.072-.568.34-1.02.804-1.356.464-.336 1.044-.504 1.74-.504.76 0 1.36.196 1.8.588.44.392.66.924.66 1.596V73H52.04v-1.26h-.18l.18-.18c0 .48-.188.86-.564 1.14-.368.28-.86.42-1.476.42zm.264-.852c.512 0 .932-.128 1.26-.384.328-.256.492-.584.492-.984v-.936H50c-.36 0-.644.1-.852.3-.208.2-.312.472-.312.816 0 .368.124.66.372.876.256.208.608.312 1.056.312zm8.827.732v-2.4a5.25 5.25 0 01-.588.096 8.757 8.757 0 01-.816.036c-.816.008-1.452-.188-1.908-.588-.448-.408-.672-.976-.672-1.704V66.4h1.08v2.04c0 .408.136.732.408.972.28.232.664.348 1.152.348.336 0 .62-.012.852-.036.24-.032.404-.06.492-.084V66.4h1.08V73h-1.08zm3.403 0v-6.6h1.08v2.748h2.784V66.4h1.08V73h-1.08v-2.868h-2.784V73h-1.08zm9.667.096c-.528 0-.984-.1-1.368-.3a2.178 2.178 0 01-.9-.864c-.208-.384-.312-.836-.312-1.356v-1.752c0-.528.105-.98.313-1.356.216-.376.516-.664.9-.864.383-.2.84-.3 1.367-.3.528 0 .984.1 1.368.3.385.2.68.488.888.864.216.376.325.824.325 1.344v1.764c0 .52-.108.972-.325 1.356a2.103 2.103 0 01-.888.864c-.383.2-.84.3-1.368.3zm0-.96c.472 0 .84-.132 1.104-.396.264-.264.396-.652.396-1.164v-1.752c0-.512-.132-.9-.396-1.164-.264-.264-.632-.396-1.104-.396-.464 0-.832.132-1.104.396-.264.264-.396.652-.396 1.164v1.752c0 .512.132.9.396 1.164.272.264.64.396 1.104.396zm7.22.984c-.528 0-.992-.1-1.392-.3a2.161 2.161 0 01-.912-.864c-.216-.384-.324-.836-.324-1.356v-1.8c0-.528.108-.98.324-1.356.216-.376.52-.664.912-.864.4-.2.864-.3 1.392-.3.76 0 1.372.204 1.836.612.464.408.708.964.732 1.668h-1.08c-.024-.424-.168-.748-.432-.972-.256-.232-.608-.348-1.056-.348-.472 0-.848.136-1.128.408-.28.264-.42.644-.42 1.14V70.6c0 .496.14.88.42 1.152.28.272.656.408 1.128.408.448 0 .8-.116 1.056-.348.264-.232.408-.556.432-.972h1.08c-.024.704-.268 1.26-.732 1.668-.464.408-1.076.612-1.836.612zm6.631-.12v-5.652h-2.4V66.4h5.88v.948h-2.4V73h-1.08zm5.263 0v-6.6h1.032V70c0 .232-.008.476-.024.732-.008.256-.024.5-.048.732a7.615 7.615 0 01-.06.576l2.664-5.64h1.38V73h-1.032v-3.6c0-.232.004-.476.012-.732.016-.256.036-.5.06-.732l.06-.588L92.656 73h-1.38zM12.128 89v-6.6h1.032V86c0 .232-.008.476-.024.732-.008.256-.024.5-.048.732a7.615 7.615 0 01-.06.576l2.664-5.64h1.38V89H16.04v-3.6c0-.232.004-.476.012-.732.016-.256.036-.5.06-.732l.06-.588L13.508 89h-1.38zm15.399 2.16l.972-2.568L26.05 82.4h1.2l1.536 4.08c.056.136.108.3.156.492l.12.468.12-.468c.048-.192.096-.356.144-.492l1.44-4.08h1.164l-3.252 8.76h-1.152zM33.714 89v-6.6h4.944V89h-1.08v-5.616h-2.784V89h-1.08zm9.667.096c-.528 0-.984-.1-1.368-.3a2.178 2.178 0 01-.9-.864c-.208-.384-.312-.836-.312-1.356v-1.752c0-.528.104-.98.312-1.356.216-.376.516-.664.9-.864.384-.2.84-.3 1.368-.3.528 0 .984.1 1.368.3.384.2.68.488.888.864.216.376.324.824.324 1.344v1.764c0 .52-.108.972-.324 1.356a2.103 2.103 0 01-.888.864c-.384.2-.84.3-1.368.3zm0-.96c.472 0 .84-.132 1.104-.396.264-.264.396-.652.396-1.164v-1.752c0-.512-.132-.9-.396-1.164-.264-.264-.632-.396-1.104-.396-.464 0-.832.132-1.104.396-.264.264-.396.652-.396 1.164v1.752c0 .512.132.9.396 1.164.272.264.64.396 1.104.396zm4.7 3.024V82.4h1.08v1.26h.216l-.216.252c0-.504.164-.9.492-1.188.336-.296.776-.444 1.32-.444.664 0 1.192.22 1.584.66.4.432.6 1.028.6 1.788v1.932c0 .504-.092.94-.276 1.308a1.962 1.962 0 01-.756.852c-.32.2-.704.3-1.152.3-.536 0-.972-.148-1.308-.444-.336-.296-.504-.692-.504-1.188l.216.252h-.24l.024 1.5v1.92h-1.08zm2.532-2.976c.456 0 .812-.136 1.068-.408.264-.272.396-.664.396-1.176v-1.8c0-.512-.132-.904-.396-1.176-.256-.272-.612-.408-1.068-.408-.44 0-.792.14-1.056.42-.264.28-.396.668-.396 1.164v1.8c0 .496.132.884.396 1.164.264.28.616.42 1.056.42zm4.279.816l1.692-2.544c-.504-.12-.896-.352-1.176-.696-.272-.344-.408-.772-.408-1.284 0-.648.212-1.156.636-1.524.432-.368 1.02-.552 1.764-.552h2.844V89h-1.08v-2.46h-1.452L56.152 89h-1.26zm2.508-3.42h1.764v-2.22H57.4c-.4 0-.716.1-.948.3-.232.192-.348.464-.348.816 0 .344.116.616.348.816.232.192.548.288.948.288zm4.327 5.1v-2.604h.54c.136-.136.276-.404.42-.804.152-.4.232-.908.24-1.524L63 82.4h4.308v5.676h.84v2.604h-.96V89h-4.5v1.68h-.96zm1.68-2.604h2.82V83.36H64.02l-.048 2.412c-.008.632-.076 1.144-.204 1.536-.128.392-.248.648-.36.768zm8.755 1.02c-.528 0-.984-.1-1.368-.3a2.178 2.178 0 01-.9-.864c-.208-.384-.312-.836-.312-1.356v-1.752c0-.528.105-.98.313-1.356.216-.376.516-.664.9-.864.383-.2.84-.3 1.367-.3.528 0 .984.1 1.368.3.385.2.68.488.888.864.216.376.325.824.325 1.344v1.764c0 .52-.108.972-.325 1.356a2.103 2.103 0 01-.888.864c-.383.2-.84.3-1.368.3zm0-.96c.472 0 .84-.132 1.104-.396.264-.264.396-.652.396-1.164v-1.752c0-.512-.132-.9-.396-1.164-.264-.264-.632-.396-1.104-.396-.464 0-.832.132-1.104.396-.264.264-.396.652-.396 1.164v1.752c0 .512.132.9.396 1.164.272.264.64.396 1.104.396zm8.516.864v-2.4a5.25 5.25 0 01-.588.096 8.757 8.757 0 01-.816.036c-.816.008-1.452-.188-1.908-.588-.448-.408-.672-.976-.672-1.704V82.4h1.08v2.04c0 .408.136.732.408.972.28.232.664.348 1.152.348.336 0 .62-.012.852-.036.24-.032.404-.06.492-.084V82.4h1.08V89h-1.08zm5.875.12c-.52 0-.976-.104-1.368-.312a2.258 2.258 0 01-.9-.876c-.208-.384-.312-.828-.312-1.332v-1.8c0-.512.104-.956.312-1.332.216-.376.516-.668.9-.876.392-.208.848-.312 1.368-.312.52 0 .972.104 1.356.312.392.208.692.5.9.876.216.376.324.82.324 1.332v1.164H85.03v.636c0 .52.132.92.396 1.2.264.272.64.408 1.128.408.416 0 .752-.072 1.008-.216a.953.953 0 00.468-.672h1.08c-.072.552-.344.992-.816 1.32-.464.32-1.044.48-1.74.48zm1.524-3.876V84.8c0-.52-.132-.92-.396-1.2-.256-.28-.632-.42-1.128-.42-.488 0-.864.14-1.128.42-.264.28-.396.68-.396 1.2v.348h3.132l-.084.096zm3.2 3.756v-6.6h1.08v2.748h2.783V82.4h1.08V89h-1.08v-2.868h-2.784V89h-1.08zm7.195 0v-6.6h1.08v2.748h2.784V82.4h1.08V89h-1.08v-2.868h-2.784V89h-1.08zm9.667.096c-.528 0-.984-.1-1.368-.3a2.178 2.178 0 01-.9-.864c-.208-.384-.312-.836-.312-1.356v-1.752c0-.528.104-.98.312-1.356.216-.376.516-.664.9-.864.384-.2.84-.3 1.368-.3.528 0 .984.1 1.368.3.384.2.68.488.888.864.216.376.324.824.324 1.344v1.764c0 .52-.108.972-.324 1.356a2.103 2.103 0 01-.888.864c-.384.2-.84.3-1.368.3zm0-.96c.472 0 .84-.132 1.104-.396.264-.264.396-.652.396-1.164v-1.752c0-.512-.132-.9-.396-1.164-.264-.264-.632-.396-1.104-.396-.464 0-.832.132-1.104.396-.264.264-.396.652-.396 1.164v1.752c0 .512.132.9.396 1.164.272.264.64.396 1.104.396zm7.219.984c-.528 0-.992-.1-1.392-.3a2.161 2.161 0 01-.912-.864c-.216-.384-.324-.836-.324-1.356v-1.8c0-.528.108-.98.324-1.356.216-.376.52-.664.912-.864.4-.2.864-.3 1.392-.3.76 0 1.372.204 1.836.612.464.408.708.964.732 1.668h-1.08c-.024-.424-.168-.748-.432-.972-.256-.232-.608-.348-1.056-.348-.472 0-.848.136-1.128.408-.28.264-.42.644-.42 1.14V86.6c0 .496.14.88.42 1.152.28.272.656.408 1.128.408.448 0 .8-.116 1.056-.348.264-.232.408-.556.432-.972h1.08c-.024.704-.268 1.26-.732 1.668-.464.408-1.076.612-1.836.612zm6.632-.12v-5.652h-2.4V82.4h5.88v.948h-2.4V89h-1.08zm5.263 0v-6.6h1.032V86c0 .232-.008.476-.024.732-.008.256-.024.5-.048.732a7.615 7.615 0 01-.06.576l2.664-5.64h1.38V89h-1.032v-3.6c0-.232.004-.476.012-.732.016-.256.036-.5.06-.732l.06-.588L128.633 89h-1.38zM14.6 105.096c-.528 0-.984-.1-1.368-.3a2.178 2.178 0 01-.9-.864c-.208-.384-.312-.836-.312-1.356v-1.752c0-.528.104-.98.312-1.356.216-.376.516-.664.9-.864.384-.2.84-.3 1.368-.3.528 0 .984.1 1.368.3.384.2.68.488.888.864.216.376.324.824.324 1.344v1.764c0 .52-.108.972-.324 1.356a2.103 2.103 0 01-.888.864c-.384.2-.84.3-1.368.3zm0-.96c.472 0 .84-.132 1.104-.396.264-.264.396-.652.396-1.164v-1.752c0-.512-.132-.9-.396-1.164-.264-.264-.632-.396-1.104-.396-.464 0-.832.132-1.104.396-.264.264-.396.652-.396 1.164v1.752c0 .512.132.9.396 1.164.272.264.64.396 1.104.396zm4.723.864v-6.6h4.944v6.6h-1.08v-5.616h-2.784V105h-1.08zm9.668.12c-.52 0-.976-.104-1.368-.312a2.258 2.258 0 01-.9-.876c-.208-.384-.312-.828-.312-1.332v-1.8c0-.512.104-.956.312-1.332.216-.376.516-.668.9-.876.392-.208.848-.312 1.368-.312.52 0 .972.104 1.356.312.392.208.692.5.9.876.216.376.324.82.324 1.332v1.164h-4.104v.636c0 .52.132.92.396 1.2.264.272.64.408 1.128.408.416 0 .752-.072 1.008-.216a.953.953 0 00.468-.672h1.08c-.072.552-.344.992-.816 1.32-.464.32-1.044.48-1.74.48zm1.524-3.876v-.444c0-.52-.132-.92-.396-1.2-.256-.28-.632-.42-1.128-.42-.488 0-.864.14-1.128.42-.264.28-.396.68-.396 1.2v.348h3.132l-.084.096zm3.175 5.916V98.4h1.08v1.26h.216l-.216.252c0-.504.164-.9.492-1.188.336-.296.776-.444 1.32-.444.664 0 1.192.22 1.584.66.4.432.6 1.028.6 1.788v1.932c0 .504-.092.94-.276 1.308a1.962 1.962 0 01-.756.852c-.32.2-.704.3-1.152.3-.536 0-.972-.148-1.308-.444-.336-.296-.504-.692-.504-1.188l.216.252h-.24l.024 1.5v1.92h-1.08zm2.532-2.976c.456 0 .812-.136 1.068-.408.264-.272.396-.664.396-1.176v-1.8c0-.512-.132-.904-.396-1.176-.256-.272-.612-.408-1.068-.408-.44 0-.792.14-1.056.42-.264.28-.396.668-.396 1.164v1.8c0 .496.132.884.396 1.164.264.28.616.42 1.056.42zm6.583.936c-.696 0-1.244-.176-1.644-.528-.4-.36-.6-.844-.6-1.452 0-.616.2-1.1.6-1.452.4-.352.94-.528 1.62-.528h2.04v-.66c0-.408-.124-.72-.372-.936-.24-.224-.584-.336-1.032-.336-.392 0-.72.084-.984.252-.264.16-.416.38-.456.66h-1.08c.072-.568.34-1.02.804-1.356.464-.336 1.044-.504 1.74-.504.76 0 1.36.196 1.8.588.44.392.66.924.66 1.596V105h-1.056v-1.26h-.18l.18-.18c0 .48-.188.86-.564 1.14-.368.28-.86.42-1.476.42zm.264-.852c.512 0 .932-.128 1.26-.384.328-.256.492-.584.492-.984v-.936h-2.016c-.36 0-.644.1-.852.3-.208.2-.312.472-.312.816 0 .368.124.66.372.876.256.208.608.312 1.056.312zm9.728 2.412V105h-4.692v-6.6h1.08v5.64h2.592V98.4h1.08v5.64h.9v2.64h-.96zM55.3 105v-6.6h1.032v3.6c0 .232-.008.476-.024.732-.008.256-.024.5-.048.732a7.615 7.615 0 01-.06.576l2.664-5.64h1.38v6.6h-1.032v-3.6c0-.232.004-.476.012-.732.016-.256.036-.5.06-.732l.06-.588L56.68 105H55.3zm9.667.096c-.528 0-.984-.1-1.368-.3a2.178 2.178 0 01-.9-.864c-.208-.384-.312-.836-.312-1.356v-1.752c0-.528.104-.98.312-1.356.216-.376.516-.664.9-.864.384-.2.84-.3 1.368-.3.528 0 .984.1 1.368.3.384.2.68.488.888.864.216.376.324.824.324 1.344v1.764c0 .52-.108.972-.324 1.356a2.103 2.103 0 01-.888.864c-.384.2-.84.3-1.368.3zm0-.96c.472 0 .84-.132 1.104-.396.264-.264.396-.652.396-1.164v-1.752c0-.512-.132-.9-.396-1.164-.264-.264-.632-.396-1.104-.396-.464 0-.832.132-1.104.396-.264.264-.396.652-.396 1.164v1.752c0 .512.132.9.396 1.164.272.264.64.396 1.104.396zm4.724.864v-6.6h1.08v2.748h2.784V98.4h1.08v6.6h-1.08v-2.868H70.77V105h-1.08zm7.195 0v-6.6h1.08v2.748h2.784V98.4h1.08v6.6h-1.08v-2.868h-2.784V105h-1.08zm6.847 0v-6.6h1.008v2.424h.54c.712 0 1.272.188 1.68.564.416.368.624.876.624 1.524s-.208 1.16-.624 1.536c-.408.368-.968.552-1.68.552h-1.548zm1.008-.864h.54c.424 0 .752-.108.984-.324.24-.216.36-.516.36-.9s-.12-.684-.36-.9c-.232-.216-.56-.324-.984-.324h-.54v2.448zm3.624.864v-6.6h1.008v6.6h-1.008zm2.383 0l2.34-3.396-2.196-3.204h1.272l1.308 2.04c.056.088.108.184.156.288.056.104.1.188.132.252.024-.064.06-.148.108-.252.056-.104.112-.2.168-.288l1.32-2.04h1.26l-2.196 3.216L96.748 105h-1.272l-1.416-2.16a3.356 3.356 0 01-.168-.3 2.599 2.599 0 00-.132-.288c-.032.072-.08.168-.144.288a2.125 2.125 0 01-.18.3L92.008 105h-1.26zm-78.62 16v-6.6h4.944v6.6h-1.08v-5.616h-2.784V121h-1.08zm7.171 2.16v-8.76h1.08v1.26h.216l-.216.252c0-.504.164-.9.492-1.188.336-.296.776-.444 1.32-.444.664 0 1.192.22 1.584.66.4.432.6 1.028.6 1.788v1.932c0 .504-.092.94-.276 1.308a1.962 1.962 0 01-.756.852c-.32.2-.704.3-1.152.3-.536 0-.972-.148-1.308-.444-.336-.296-.504-.692-.504-1.188l.216.252h-.24l.024 1.5v1.92H19.3zm2.532-2.976c.456 0 .812-.136 1.068-.408.264-.272.396-.664.396-1.176v-1.8c0-.512-.132-.904-.396-1.176-.256-.272-.612-.408-1.068-.408-.44 0-.792.14-1.056.42-.264.28-.396.668-.396 1.164v1.8c0 .496.132.884.396 1.164.264.28.616.42 1.056.42zm7.16.912c-.528 0-.984-.1-1.368-.3a2.178 2.178 0 01-.9-.864c-.208-.384-.312-.836-.312-1.356v-1.752c0-.528.104-.98.312-1.356.216-.376.516-.664.9-.864.384-.2.84-.3 1.368-.3.528 0 .984.1 1.368.3.384.2.68.488.888.864.216.376.324.824.324 1.344v1.764c0 .52-.108.972-.324 1.356a2.103 2.103 0 01-.888.864c-.384.2-.84.3-1.368.3zm0-.96c.472 0 .84-.132 1.104-.396.264-.264.396-.652.396-1.164v-1.752c0-.512-.132-.9-.396-1.164-.264-.264-.632-.396-1.104-.396-.464 0-.832.132-1.104.396-.264.264-.396.652-.396 1.164v1.752c0 .512.132.9.396 1.164.272.264.64.396 1.104.396zm9.415 2.544V121h-4.692v-6.6h1.08v5.64h2.592v-5.64h1.08v5.64h.9v2.64h-.96zm4.975-1.56c-.52 0-.976-.104-1.368-.312a2.258 2.258 0 01-.9-.876c-.208-.384-.312-.828-.312-1.332v-1.8c0-.512.104-.956.312-1.332.216-.376.516-.668.9-.876.392-.208.848-.312 1.368-.312.52 0 .972.104 1.356.312.392.208.692.5.9.876.216.376.324.82.324 1.332v1.164h-4.104v.636c0 .52.132.92.396 1.2.264.272.64.408 1.128.408.416 0 .752-.072 1.008-.216a.953.953 0 00.468-.672h1.08c-.072.552-.344.992-.816 1.32-.464.32-1.044.48-1.74.48zm1.524-3.876v-.444c0-.52-.132-.92-.396-1.2-.256-.28-.632-.42-1.128-.42-.488 0-.864.14-1.128.42-.264.28-.396.68-.396 1.2v.348h3.132l-.084.096zm5.696 3.876c-.528 0-.992-.1-1.392-.3a2.161 2.161 0 01-.912-.864c-.216-.384-.324-.836-.324-1.356v-1.8c0-.528.108-.98.324-1.356.216-.376.52-.664.912-.864.4-.2.864-.3 1.392-.3.76 0 1.372.204 1.836.612.464.408.708.964.732 1.668h-1.08c-.024-.424-.168-.748-.432-.972-.256-.232-.608-.348-1.056-.348-.472 0-.848.136-1.128.408-.28.264-.42.644-.42 1.14v1.812c0 .496.14.88.42 1.152.28.272.656.408 1.128.408.448 0 .8-.116 1.056-.348.264-.232.408-.556.432-.972h1.08c-.024.704-.268 1.26-.732 1.668-.464.408-1.076.612-1.836.612zm7.195 0c-.528 0-.992-.1-1.392-.3a2.161 2.161 0 01-.912-.864c-.216-.384-.324-.836-.324-1.356v-1.8c0-.528.108-.98.324-1.356.216-.376.52-.664.912-.864.4-.2.864-.3 1.392-.3.76 0 1.372.204 1.836.612.464.408.708.964.732 1.668h-1.08c-.024-.424-.168-.748-.432-.972-.256-.232-.608-.348-1.056-.348-.472 0-.848.136-1.128.408-.28.264-.42.644-.42 1.14v1.812c0 .496.14.88.42 1.152.28.272.656.408 1.128.408.448 0 .8-.116 1.056-.348.264-.232.408-.556.432-.972h1.08c-.024.704-.268 1.26-.732 1.668-.464.408-1.076.612-1.836.612zm7.171-.024c-.528 0-.984-.1-1.368-.3a2.178 2.178 0 01-.9-.864c-.208-.384-.312-.836-.312-1.356v-1.752c0-.528.104-.98.312-1.356.216-.376.516-.664.9-.864.384-.2.84-.3 1.368-.3.528 0 .984.1 1.368.3.384.2.68.488.888.864.216.376.324.824.324 1.344v1.764c0 .52-.108.972-.324 1.356a2.103 2.103 0 01-.888.864c-.384.2-.84.3-1.368.3zm0-.96c.472 0 .84-.132 1.104-.396.264-.264.396-.652.396-1.164v-1.752c0-.512-.132-.9-.396-1.164-.264-.264-.632-.396-1.104-.396-.464 0-.832.132-1.104.396-.264.264-.396.652-.396 1.164v1.752c0 .512.132.9.396 1.164.272.264.64.396 1.104.396zm4.724.864v-6.6h2.855c.688 0 1.22.156 1.596.468.377.304.565.732.565 1.284 0 .456-.156.824-.468 1.104-.313.272-.725.408-1.237.408v-.096c.56 0 1.008.14 1.345.42.344.28.516.656.516 1.128 0 .592-.2 1.056-.6 1.392-.4.328-.96.492-1.68.492H69.69zm1.055-.948h1.837c.383 0 .68-.084.888-.252.215-.168.323-.404.323-.708 0-.312-.108-.552-.323-.72-.209-.168-.505-.252-.889-.252h-1.835v1.932zm0-2.868h1.8c.336 0 .6-.08.792-.24.2-.16.3-.384.3-.672 0-.288-.096-.512-.288-.672-.191-.168-.46-.252-.803-.252h-1.8v1.836z" fill="#000"/><defs><linearGradient id="paint0_linear_299_144" x1="0" y1="72.893" x2="223.615" y2="72.893" gradientUnits="userSpaceOnUse"><stop stop-color="#F1FFF7"/><stop offset="1" stop-color="#546A65"/></linearGradient><linearGradient id="paint1_linear_299_144" x1="11.769" y1="8.747" x2="159.382" y2="151.645" gradientUnits="userSpaceOnUse"><stop stop-color="#475E59" stop-opacity=".7"/><stop offset="1" stop-color="#fff" stop-opacity=".7"/></linearGradient><linearGradient id="paint2_linear_299_144" x1="0" y1="72.472" x2="223.615" y2="72.472" gradientUnits="userSpaceOnUse"><stop stop-color="#F1FFF7"/><stop offset="1" stop-color="#546A65"/></linearGradient><linearGradient id="paint3_linear_299_144" x1="11.769" y1="8.697" x2="158.553" y2="151.619" gradientUnits="userSpaceOnUse"><stop stop-color="#475E59" stop-opacity=".7"/><stop offset="1" stop-color="#fff" stop-opacity=".7"/></linearGradient><filter id="filter0_f_299_144" x="-18.273" y="124.187" width="116.682" height="79.727" filterUnits="userSpaceOnUse" color-interpolation-filters="sRGB"><feFlood flood-opacity="0" result="BackgroundImageFix"/><feBlend in="SourceGraphic" in2="BackgroundImageFix" result="shape"/><feGaussianBlur stdDeviation="2" result="effect1_foregroundBlur_299_144"/></filter></defs></svg>