<svg width="153" height="173" fill="none" xmlns="http://www.w3.org/2000/svg"><rect x=".421" y=".421" width="152.158" height="172.158" rx="19.579" fill="url(#paint0_linear_299_165)" fill-opacity=".53" stroke="url(#paint1_linear_299_165)" stroke-width=".842"/><mask id="a" style="mask-type:alpha" maskUnits="userSpaceOnUse" x="0" y="0" width="153" height="172"><rect x=".421" y=".421" width="152.158" height="171.158" rx="19.579" fill="url(#paint2_linear_299_165)" fill-opacity=".53" stroke="url(#paint3_linear_299_165)" stroke-width=".842"/></mask><g filter="url(#filter0_f_299_165)" mask="url(#a)"><path d="M10 199.914c-5.136 0-9.511-1.398-13.125-4.193-3.614-2.818-6.375-6.898-8.284-12.239-1.91-5.364-2.864-11.841-2.864-19.432 0-7.545.955-13.988 2.864-19.329 1.932-5.364 4.704-9.455 8.318-12.273 3.636-2.841 8-4.261 13.091-4.261 5.09 0 9.443 1.42 13.057 4.261 3.636 2.818 6.409 6.909 8.318 12.273 1.932 5.341 2.898 11.784 2.898 19.329 0 7.591-.955 14.068-2.864 19.432-1.909 5.341-4.67 9.421-8.284 12.239-3.614 2.795-7.989 4.193-13.125 4.193zm0-7.5c5.09 0 9.046-2.455 11.864-7.364 2.818-4.909 4.227-11.909 4.227-21 0-6.045-.648-11.193-1.943-15.443-1.273-4.25-3.114-7.489-5.523-9.716-2.386-2.227-5.261-3.341-8.625-3.341-5.045 0-8.989 2.489-11.83 7.466-2.84 4.955-4.26 11.966-4.26 21.034 0 6.046.635 11.182 1.908 15.409 1.273 4.228 3.102 7.444 5.489 9.648 2.409 2.205 5.307 3.307 8.693 3.307zm35.59-7.773v-6.954l30.683-48.546h5.045v10.773H77.91l-23.182 36.682v.545h41.319v7.5H45.59zm32.864 14.318v-69.818H86.5v69.818h-8.046z" fill="#CCEC60"/></g><path d="M9.792 41v-8.76h2.82c.888 0 1.596.204 2.124.612.528.4.792.944.792 1.632 0 .384-.092.72-.276 1.008a1.821 1.821 0 01-.72.672c-.296.16-.62.24-.972.24v.036c.392-.008.748.064 1.068.216.328.152.592.38.792.684.2.304.3.68.3 1.128 0 .512-.124.96-.372 1.344-.24.376-.584.668-1.032.876-.448.208-.98.312-1.596.312H9.792zm1.74-1.452h1.116c.392 0 .7-.104.924-.312.224-.208.336-.496.336-.864s-.112-.656-.336-.864c-.224-.216-.532-.324-.924-.324h-1.116v2.364zm0-3.78h1.056c.352 0 .628-.092.828-.276.2-.192.3-.448.3-.768 0-.328-.1-.58-.3-.756-.2-.184-.476-.276-.828-.276h-1.056v2.076zM16.987 41v-6.6h1.8v2.412h2.016V34.4h1.8V41h-1.8v-2.508h-2.016V41h-1.8zm10.016.12c-.584 0-1.096-.108-1.536-.324a2.505 2.505 0 01-1.008-.924c-.232-.4-.348-.864-.348-1.392v-1.56c0-.528.116-.988.348-1.38.24-.4.576-.708 1.008-.924.44-.224.952-.336 1.536-.336.584 0 1.088.112 1.512.336.432.216.764.524.996.924.24.392.36.852.36 1.38v1.2h-4.044v.36c0 .416.1.732.3.948.2.208.5.312.9.312.28 0 .504-.048.672-.144a.698.698 0 00.348-.396h1.764c-.144.576-.472 1.04-.984 1.392-.504.352-1.112.528-1.824.528zm1.152-3.924v-.3c0-.408-.096-.72-.288-.936-.184-.216-.472-.324-.864-.324s-.688.112-.888.336c-.192.224-.288.54-.288.948v.18l2.448-.024-.12.12zM38.609 41v-6.6h1.8v2.496h.888l1.38-2.496h2.004l-1.836 3.228L44.717 41h-2.04l-1.392-2.592h-.876V41h-1.8zm9.968.12c-.584 0-1.092-.108-1.524-.324a2.505 2.505 0 01-1.008-.924c-.232-.4-.348-.864-.348-1.392v-1.56c0-.528.116-.988.348-1.38.24-.4.576-.708 1.008-.924.432-.224.94-.336 1.524-.336.592 0 1.1.112 1.524.336.432.216.764.524.996.924.24.392.36.852.36 1.38v1.56c0 .528-.12.992-.36 1.392-.232.392-.564.7-.996.924-.424.216-.932.324-1.524.324zm0-1.56c.352 0 .62-.092.804-.276.184-.192.276-.46.276-.804v-1.56c0-.352-.092-.62-.276-.804-.184-.184-.452-.276-.804-.276-.344 0-.612.092-.804.276-.184.184-.276.452-.276.804v1.56c0 .344.092.612.276.804.192.184.46.276.804.276zM52.964 41v-6.6h1.8v2.412h2.016V34.4h1.8V41h-1.8v-2.508h-2.016V41h-1.8zm7.231 0v-6.6h1.8v2.496h.888l1.38-2.496h2.004l-1.836 3.228L66.303 41h-2.04l-1.392-2.592h-.876V41h-1.8zm8.252 2.16l.9-2.484-2.472-6.276h1.956l.995 2.88c.073.216.145.48.217.792.08.304.14.552.18.744.04-.192.096-.44.168-.744.08-.312.155-.576.227-.792l.96-2.88h1.873l-3.12 8.76h-1.885zm6.103 0V34.4h1.74v1.26h.42l-.42.42c0-.568.156-1.008.468-1.32.312-.32.74-.48 1.284-.48.664 0 1.196.236 1.596.708.4.464.6 1.088.6 1.872v1.68c0 .52-.092.976-.276 1.368a2.093 2.093 0 01-.756.9c-.328.208-.716.312-1.164.312-.544 0-.972-.156-1.284-.468-.312-.32-.468-.764-.468-1.332l.42.42h-.42l.06 1.62v1.8h-1.8zm2.844-3.6c.336 0 .592-.092.768-.276.184-.192.276-.46.276-.804v-1.56c0-.352-.092-.62-.276-.804-.176-.184-.432-.276-.768-.276-.328 0-.584.096-.768.288-.184.184-.276.448-.276.792v1.56c0 .344.092.612.276.804.184.184.44.276.768.276zm7.171 1.56c-.584 0-1.096-.108-1.536-.324a2.505 2.505 0 01-1.008-.924c-.232-.4-.348-.864-.348-1.392v-1.56c0-.528.116-.988.348-1.38.24-.4.576-.708 1.008-.924.44-.224.952-.336 1.536-.336.584 0 1.088.112 1.512.336.432.216.764.524.996.924.24.392.36.852.36 1.38v1.2H83.39v.36c0 .416.1.732.3.948.2.208.5.312.9.312.28 0 .504-.048.672-.144a.698.698 0 00.348-.396h1.764c-.144.576-.472 1.04-.984 1.392-.504.352-1.112.528-1.824.528zm1.152-3.924v-.3c0-.408-.096-.72-.288-.936-.184-.216-.472-.324-.864-.324s-.688.112-.888.336c-.192.224-.288.54-.288.948v.18l2.448-.024-.12.12zM88.94 41v-6.6h1.8v2.412h2.016V34.4h1.8V41h-1.8v-2.508H90.74V41h-1.8zm11.66 1.68V41h-4.464v-6.6h1.8v4.92h1.644V34.4h1.8v4.92h.9v3.36h-1.68zm2.731-1.68v-6.6h1.584v3c0 .2-.012.452-.036.756-.024.296-.056.596-.096.9-.032.304-.068.572-.108.804l2.088-5.46h2.184V41h-1.584v-3c0-.208.012-.444.036-.708.024-.272.052-.544.084-.816.032-.272.064-.504.096-.696L105.515 41h-2.184zm7.195 0v-6.6h1.584v3c0 .2-.012.452-.036.756-.024.296-.056.596-.096.9-.032.304-.068.572-.108.804l2.088-5.46h2.184V41h-1.584v-3c0-.208.012-.444.036-.708.024-.272.052-.544.084-.816.032-.272.064-.504.096-.696L112.71 41h-2.184zm10.004-4.56c-.36 0-.652-.1-.876-.3-.216-.2-.324-.46-.324-.78 0-.328.108-.588.324-.78.224-.2.516-.3.876-.3s.648.1.864.3c.224.192.336.452.336.78 0 .32-.112.58-.336.78-.216.2-.504.3-.864.3zm0 4.68c-.36 0-.652-.1-.876-.3-.216-.2-.324-.46-.324-.78 0-.328.108-.588.324-.78.224-.2.516-.3.876-.3s.648.1.864.3c.224.192.336.452.336.78 0 .32-.112.58-.336.78-.216.2-.504.3-.864.3z" fill="#fff"/><path d="M10.128 57v-6.6h2.856c.688 0 1.22.156 1.596.468.376.304.564.732.564 1.284 0 .456-.156.824-.468 1.104-.312.272-.724.408-1.236.408v-.096c.56 0 1.008.14 1.344.42.344.28.516.656.516 1.128 0 .592-.2 1.056-.6 1.392-.4.328-.96.492-1.68.492h-2.892zm1.056-.948h1.836c.384 0 .68-.084.888-.252.216-.168.324-.404.324-.708 0-.312-.108-.552-.324-.72-.208-.168-.504-.252-.888-.252h-1.836v1.932zm0-2.868h1.8c.336 0 .6-.08.792-.24.2-.16.3-.384.3-.672 0-.288-.096-.512-.288-.672-.192-.168-.46-.252-.804-.252h-1.8v1.836zM16.975 57v-6.6h1.008v2.424h.54c.712 0 1.272.188 1.68.564.416.368.624.876.624 1.524s-.208 1.16-.624 1.536c-.408.368-.968.552-1.68.552h-1.548zm1.008-.864h.54c.424 0 .752-.108.984-.324.24-.216.36-.516.36-.9s-.12-.684-.36-.9c-.232-.216-.56-.324-.984-.324h-.54v2.448zm3.624.864v-6.6h1.008V57h-1.008zm12.579.12c-.776 0-1.392-.228-1.848-.684-.448-.464-.672-1.096-.672-1.896v-3c0-1.056.264-1.868.792-2.436.528-.576 1.284-.864 2.268-.864h1.68v1.08h-1.68c-.648 0-1.14.192-1.476.576-.336.376-.504.924-.504 1.644v.78h.168l-.168.24c.008-.472.168-.84.48-1.104.312-.264.736-.396 1.272-.396.696 0 1.236.224 1.62.672.392.448.588 1.064.588 1.848v.96c0 .536-.1.996-.3 1.38-.2.384-.488.68-.864.888-.376.208-.828.312-1.356.312zm0-.96c.464 0 .82-.14 1.068-.42.248-.28.372-.68.372-1.2v-.96c0-.52-.124-.92-.372-1.2-.248-.28-.604-.42-1.068-.42-.464 0-.82.14-1.068.42-.248.272-.372.672-.372 1.2v.96c0 .52.124.92.372 1.2.248.28.604.42 1.068.42zm5.731 3l.972-2.568-2.448-6.192h1.2l1.536 4.08c.056.136.108.3.156.492l.12.468.12-.468c.048-.192.096-.356.144-.492l1.44-4.08h1.164l-3.252 8.76h-1.152zm5.42-.48v-2.604h.54c.136-.136.276-.404.42-.804.152-.4.232-.908.24-1.524l.072-3.348h4.308v5.676h.84v2.604h-.96V57h-4.5v1.68h-.96zm1.68-2.604h2.82V51.36h-2.208l-.048 2.412c-.008.632-.076 1.144-.204 1.536-.128.392-.248.648-.36.768zm8.755 1.044c-.52 0-.976-.104-1.368-.312a2.258 2.258 0 01-.9-.876c-.208-.384-.312-.828-.312-1.332v-1.8c0-.512.104-.956.312-1.332.216-.376.516-.668.9-.876.392-.208.848-.312 1.368-.312.52 0 .972.104 1.356.312.392.208.692.5.9.876.216.376.324.82.324 1.332v1.164h-4.104v.636c0 .52.132.92.396 1.2.264.272.64.408 1.128.408.416 0 .752-.072 1.008-.216a.953.953 0 00.468-.672h1.08c-.072.552-.344.992-.816 1.32-.464.32-1.044.48-1.74.48zm1.524-3.876V52.8c0-.52-.132-.92-.396-1.2-.256-.28-.632-.42-1.128-.42-.488 0-.864.14-1.128.42-.264.28-.396.68-.396 1.2v.348h3.132l-.084.096zM62.427 57v-5.652h-2.4V50.4h5.88v.948h-2.4V57h-1.08zm7.735.12c-.52 0-.976-.104-1.368-.312a2.258 2.258 0 01-.9-.876c-.208-.384-.312-.828-.312-1.332v-1.8c0-.512.105-.956.313-1.332.216-.376.516-.668.9-.876.391-.208.847-.312 1.367-.312s.972.104 1.356.312c.392.208.692.5.9.876.216.376.325.82.325 1.332v1.164h-4.105v.636c0 .52.132.92.396 1.2.264.272.64.408 1.128.408.416 0 .752-.072 1.008-.216a.953.953 0 00.468-.672h1.08c-.072.552-.344.992-.816 1.32-.463.32-1.043.48-1.74.48zm1.524-3.876V52.8c0-.52-.132-.92-.396-1.2-.256-.28-.632-.42-1.128-.42-.488 0-.864.14-1.128.42-.264.28-.396.68-.396 1.2v.348h3.132l-.084.096zM82.081 57v-6.6h2.856c.688 0 1.22.156 1.596.468.376.304.564.732.564 1.284 0 .456-.156.824-.468 1.104-.312.272-.724.408-1.236.408v-.096c.56 0 1.008.14 1.344.42.344.28.516.656.516 1.128 0 .592-.2 1.056-.6 1.392-.4.328-.96.492-1.68.492h-2.892zm1.056-.948h1.836c.384 0 .68-.084.888-.252.216-.168.324-.404.324-.708 0-.312-.108-.552-.324-.72-.208-.168-.504-.252-.888-.252h-1.836v1.932zm0-2.868h1.8c.336 0 .6-.08.792-.24.2-.16.3-.384.3-.672 0-.288-.096-.512-.288-.672-.192-.168-.46-.252-.804-.252h-1.8v1.836zM89.277 57v-6.6h4.943V57h-1.08v-5.616h-2.784V57h-1.08zm9.667.12c-.52 0-.976-.104-1.368-.312a2.258 2.258 0 01-.9-.876c-.208-.384-.312-.828-.312-1.332v-1.8c0-.512.104-.956.312-1.332.216-.376.516-.668.9-.876.392-.208.848-.312 1.368-.312.52 0 .972.104 1.356.312.392.208.692.5.9.876.216.376.324.82.324 1.332v1.164H97.42v.636c0 .52.132.92.396 1.2.264.272.64.408 1.128.408.416 0 .752-.072 1.008-.216a.953.953 0 00.468-.672h1.08c-.072.552-.344.992-.816 1.32-.464.32-1.044.48-1.74.48zm1.524-3.876V52.8c0-.52-.132-.92-.396-1.2-.256-.28-.632-.42-1.128-.42-.488 0-.864.14-1.128.42-.264.28-.396.68-.396 1.2v.348h3.132l-.084.096zm3.175 5.916V50.4h1.08v1.26h.216l-.216.252c0-.504.164-.9.492-1.188.336-.296.776-.444 1.32-.444.664 0 1.192.22 1.584.66.4.432.6 1.028.6 1.788v1.932c0 .504-.092.94-.276 1.308a1.962 1.962 0 01-.756.852c-.32.2-.704.3-1.152.3-.536 0-.972-.148-1.308-.444-.336-.296-.504-.692-.504-1.188l.216.252h-.24l.024 1.5v1.92h-1.08zm2.532-2.976c.456 0 .812-.136 1.068-.408.264-.272.396-.664.396-1.176v-1.8c0-.512-.132-.904-.396-1.176-.256-.272-.612-.408-1.068-.408-.44 0-.792.14-1.056.42-.264.28-.396.668-.396 1.164v1.8c0 .496.132.884.396 1.164.264.28.616.42 1.056.42zm7.159.936c-.52 0-.976-.104-1.368-.312a2.258 2.258 0 01-.9-.876c-.208-.384-.312-.828-.312-1.332v-1.8c0-.512.104-.956.312-1.332.216-.376.516-.668.9-.876.392-.208.848-.312 1.368-.312.52 0 .972.104 1.356.312.392.208.692.5.9.876.216.376.324.82.324 1.332v1.164h-4.104v.636c0 .52.132.92.396 1.2.264.272.64.408 1.128.408.416 0 .752-.072 1.008-.216a.953.953 0 00.468-.672h1.08c-.072.552-.344.992-.816 1.32-.464.32-1.044.48-1.74.48zm1.524-3.876V52.8c0-.52-.132-.92-.396-1.2-.256-.28-.632-.42-1.128-.42-.488 0-.864.14-1.128.42-.264.28-.396.68-.396 1.2v.348h3.132l-.084.096zm2.432 5.436v-2.604h.54c.136-.136.276-.404.42-.804.152-.4.232-.908.24-1.524l.072-3.348h4.308v5.676h.84v2.604h-.96V57h-4.5v1.68h-.96zm1.68-2.604h2.82V51.36h-2.208l-.048 2.412c-.008.632-.076 1.144-.204 1.536-.128.392-.248.648-.36.768zm6.283.924v-6.6h1.032V54c0 .232-.008.476-.024.732-.008.256-.024.5-.048.732a7.615 7.615 0 01-.06.576l2.664-5.64h1.38V57h-1.032v-3.6c0-.232.004-.476.012-.732.016-.256.036-.5.06-.732l.06-.588L126.633 57h-1.38zM10.164 73v-6.6h1.08v2.724h1.128l1.92-2.724h1.236l-2.22 3.144L15.564 73h-1.26l-1.92-2.94h-1.14V73h-1.08zm9.631.096c-.528 0-.984-.1-1.368-.3a2.178 2.178 0 01-.9-.864c-.208-.384-.312-.836-.312-1.356v-1.752c0-.528.104-.98.312-1.356.216-.376.516-.664.9-.864.384-.2.84-.3 1.368-.3.528 0 .984.1 1.368.3.384.2.68.488.888.864.216.376.324.824.324 1.344v1.764c0 .52-.108.972-.324 1.356a2.103 2.103 0 01-.888.864c-.384.2-.84.3-1.368.3zm0-.96c.472 0 .84-.132 1.104-.396.264-.264.396-.652.396-1.164v-1.752c0-.512-.132-.9-.396-1.164-.264-.264-.632-.396-1.104-.396-.464 0-.832.132-1.104.396-.264.264-.396.652-.396 1.164v1.752c0 .512.132.9.396 1.164.272.264.64.396 1.104.396zM24.52 73v-6.6h1.08v2.748h2.784V66.4h1.08V73h-1.08v-2.868H25.6V73h-1.08zm7.23 0v-6.6h1.08v2.724h1.129l1.92-2.724h1.236l-2.22 3.144L37.15 73h-1.26l-1.92-2.94h-1.14V73h-1.08zm8.168 2.16l.972-2.568-2.448-6.192h1.2l1.536 4.08c.056.136.108.3.156.492l.12.468.12-.468c.048-.192.096-.356.144-.492l1.44-4.08h1.164l-3.252 8.76h-1.152zm6.164 0V66.4h1.08v1.26h.216l-.216.252c0-.504.164-.9.492-1.188.336-.296.776-.444 1.32-.444.664 0 1.192.22 1.584.66.4.432.6 1.028.6 1.788v1.932c0 .504-.092.94-.276 1.308a1.962 1.962 0 01-.756.852c-.32.2-.704.3-1.152.3-.536 0-.972-.148-1.308-.444-.336-.296-.504-.692-.504-1.188l.216.252h-.24l.024 1.5v1.92h-1.08zm2.532-2.976c.456 0 .812-.136 1.068-.408.264-.272.396-.664.396-1.176v-1.8c0-.512-.132-.904-.396-1.176-.256-.272-.612-.408-1.068-.408-.44 0-.792.14-1.056.42-.264.28-.396.668-.396 1.164v1.8c0 .496.132.884.396 1.164.264.28.616.42 1.056.42zm7.159.936c-.52 0-.976-.104-1.368-.312a2.258 2.258 0 01-.9-.876c-.208-.384-.312-.828-.312-1.332v-1.8c0-.512.104-.956.312-1.332.216-.376.516-.668.9-.876.392-.208.848-.312 1.368-.312.52 0 .972.104 1.356.312.392.208.692.5.9.876.216.376.324.82.324 1.332v1.164h-4.104v.636c0 .52.132.92.396 1.2.264.272.64.408 1.128.408.416 0 .752-.072 1.008-.216a.953.953 0 00.468-.672h1.08c-.072.552-.344.992-.816 1.32-.464.32-1.044.48-1.74.48zm1.524-3.876V68.8c0-.52-.132-.92-.396-1.2-.256-.28-.632-.42-1.128-.42-.488 0-.864.14-1.128.42-.264.28-.396.68-.396 1.2v.348h3.132l-.084.096zm3.2 3.756v-6.6h1.08v2.748h2.783V66.4h1.08V73h-1.08v-2.868h-2.784V73h-1.08zm9.127 0v-5.652h-2.4V66.4h5.88v.948h-2.4V73h-1.08zm7.735.096c-.528 0-.984-.1-1.368-.3a2.178 2.178 0 01-.9-.864c-.208-.384-.312-.836-.312-1.356v-1.752c0-.528.104-.98.312-1.356.216-.376.516-.664.9-.864.384-.2.84-.3 1.368-.3.528 0 .984.1 1.368.3.384.2.68.488.888.864.216.376.324.824.324 1.344v1.764c0 .52-.108.972-.324 1.356a2.103 2.103 0 01-.888.864c-.384.2-.84.3-1.368.3zm0-.96c.472 0 .84-.132 1.104-.396.264-.264.396-.652.396-1.164v-1.752c0-.512-.132-.9-.396-1.164-.264-.264-.632-.396-1.104-.396-.464 0-.832.132-1.104.396-.264.264-.396.652-.396 1.164v1.752c0 .512.132.9.396 1.164.272.264.64.396 1.104.396zM82.08 73v-6.6h2.856c.688 0 1.22.156 1.596.468.376.304.564.732.564 1.284 0 .456-.156.824-.468 1.104-.312.272-.724.408-1.236.408v-.096c.56 0 1.008.14 1.344.42.344.28.516.656.516 1.128 0 .592-.2 1.056-.6 1.392-.4.328-.96.492-1.68.492H82.08zm1.056-.948h1.836c.384 0 .68-.084.888-.252.216-.168.324-.404.324-.708 0-.312-.108-.552-.324-.72-.208-.168-.504-.252-.888-.252h-1.836v1.932zm0-2.868h1.8c.336 0 .6-.08.792-.24.2-.16.3-.384.3-.672 0-.288-.096-.512-.288-.672-.192-.168-.46-.252-.804-.252h-1.8v1.836zm6.991 5.736l.96-3.732h1.56l-1.56 3.732h-.96zm-80 14.08v-6.6h4.944V89h-1.08v-5.616h-2.784V89h-1.08zm7.171 2.16V82.4h1.08v1.26h.216l-.216.252c0-.504.164-.9.492-1.188.336-.296.776-.444 1.32-.444.664 0 1.192.22 1.584.66.4.432.6 1.028.6 1.788v1.932c0 .504-.092.94-.276 1.308a1.962 1.962 0 01-.756.852c-.32.2-.704.3-1.152.3-.536 0-.972-.148-1.308-.444-.336-.296-.504-.692-.504-1.188l.216.252h-.24l.024 1.5v1.92H17.3zm2.532-2.976c.456 0 .812-.136 1.068-.408.264-.272.396-.664.396-1.176v-1.8c0-.512-.132-.904-.396-1.176-.256-.272-.612-.408-1.068-.408-.44 0-.792.14-1.056.42-.264.28-.396.668-.396 1.164v1.8c0 .496.132.884.396 1.164.264.28.616.42 1.056.42zm7.16.936c-.52 0-.976-.104-1.368-.312a2.258 2.258 0 01-.9-.876c-.208-.384-.312-.828-.312-1.332v-1.8c0-.512.104-.956.312-1.332.216-.376.516-.668.9-.876.392-.208.848-.312 1.368-.312.52 0 .972.104 1.356.312.392.208.692.5.9.876.216.376.324.82.324 1.332v1.164h-4.104v.636c0 .52.132.92.396 1.2.264.272.64.408 1.128.408.416 0 .752-.072 1.008-.216a.953.953 0 00.468-.672h1.08c-.072.552-.344.992-.816 1.32-.464.32-1.044.48-1.74.48zm1.524-3.876V84.8c0-.52-.132-.92-.396-1.2-.256-.28-.632-.42-1.128-.42-.488 0-.864.14-1.128.42-.264.28-.396.68-.396 1.2v.348h3.132l-.084.096zm2.43 5.436v-2.604h.54c.137-.136.277-.404.42-.804.153-.4.233-.908.24-1.524l.073-3.348h4.308v5.676h.84v2.604h-.96V89h-4.5v1.68h-.96zm1.68-2.604h2.82V83.36h-2.207l-.048 2.412c-.008.632-.076 1.144-.204 1.536-.128.392-.248.648-.36.768zm5.456 1.008v-1.008h.216c.368 0 .624-.144.768-.432.152-.288.232-.804.24-1.548l.072-3.696h4.476V89h-1.08v-5.616h-2.328l-.06 2.76c-.016.696-.096 1.26-.24 1.692-.136.432-.352.748-.648.948-.288.2-.668.3-1.14.3h-.276zm9.92.036c-.696 0-1.244-.176-1.644-.528-.4-.36-.6-.844-.6-1.452 0-.616.2-1.1.6-1.452.4-.352.94-.528 1.62-.528h2.04v-.66c0-.408-.124-.72-.372-.936-.24-.224-.584-.336-1.032-.336-.392 0-.72.084-.984.252-.264.16-.416.38-.456.66h-1.08c.072-.568.34-1.02.804-1.356.464-.336 1.044-.504 1.74-.504.76 0 1.36.196 1.8.588.44.392.66.924.66 1.596V89H50.04v-1.26h-.18l.18-.18c0 .48-.188.86-.564 1.14-.368.28-.86.42-1.476.42zm.264-.852c.512 0 .932-.128 1.26-.384.328-.256.492-.584.492-.984v-.936H48c-.36 0-.644.1-.852.3-.208.2-.312.472-.312.816 0 .368.124.66.372.876.256.208.608.312 1.056.312zm5.467.732v-6.6h4.74v.984h-3.66V89h-1.08zm8.66.12c-.697 0-1.245-.176-1.645-.528-.4-.36-.6-.844-.6-1.452 0-.616.2-1.1.6-1.452.4-.352.94-.528 1.62-.528h2.04v-.66c0-.408-.124-.72-.372-.936-.24-.224-.584-.336-1.032-.336-.392 0-.72.084-.984.252-.264.16-.416.38-.456.66h-1.08c.072-.568.34-1.02.804-1.356.464-.336 1.044-.504 1.74-.504.76 0 1.36.196 1.8.588.44.392.66.924.66 1.596V89H64.43v-1.26h-.18l.18-.18c0 .48-.188.86-.564 1.14-.368.28-.86.42-1.476.42zm.263-.852c.512 0 .932-.128 1.26-.384.328-.256.492-.584.492-.984v-.936H62.39c-.36 0-.644.1-.852.3-.208.2-.312.472-.312.816 0 .368.124.66.372.876.256.208.608.312 1.056.312zm4.627.732l1.693-2.544c-.504-.12-.896-.352-1.176-.696-.273-.344-.409-.772-.409-1.284 0-.648.213-1.156.636-1.524.433-.368 1.02-.552 1.764-.552h2.844V89h-1.08v-2.46h-1.451L68.543 89h-1.26zm2.508-3.42h1.764v-2.22H69.79c-.4 0-.716.1-.948.3-.231.192-.347.464-.347.816 0 .344.115.616.347.816.233.192.549.288.948.288zM82.117 89v-6.6h1.08v2.724h1.128l1.92-2.724h1.236l-2.22 3.144L87.517 89h-1.26l-1.92-2.94h-1.14V89h-1.08zm6.331.084v-1.008h.216c.368 0 .624-.144.768-.432.152-.288.232-.804.24-1.548l.072-3.696h4.476V89h-1.08v-5.616h-2.328l-.06 2.76c-.016.696-.096 1.26-.24 1.692-.136.432-.352.748-.648.948-.288.2-.668.3-1.14.3h-.276zM96.472 89v-6.6h1.032V86c0 .232-.008.476-.024.732-.008.256-.024.5-.048.732a7.615 7.615 0 01-.06.576l2.664-5.64h1.38V89h-1.032v-3.6c0-.232.004-.476.012-.732.016-.256.036-.5.06-.732l.06-.588L97.852 89h-1.38zm9.667.12c-.52 0-.976-.104-1.368-.312a2.258 2.258 0 01-.9-.876c-.208-.384-.312-.828-.312-1.332v-1.8c0-.512.104-.956.312-1.332.216-.376.516-.668.9-.876.392-.208.848-.312 1.368-.312.52 0 .972.104 1.356.312.392.208.692.5.9.876.216.376.324.82.324 1.332v1.164h-4.104v.636c0 .52.132.92.396 1.2.264.272.64.408 1.128.408.416 0 .752-.072 1.008-.216a.953.953 0 00.468-.672h1.08c-.072.552-.344.992-.816 1.32-.464.32-1.044.48-1.74.48zm1.524-3.876V84.8c0-.52-.132-.92-.396-1.2-.256-.28-.632-.42-1.128-.42-.488 0-.864.14-1.128.42-.264.28-.396.68-.396 1.2v.348h3.132l-.084.096zM110.862 89v-6.6h1.08v2.748h2.784V82.4h1.08V89h-1.08v-2.868h-2.784V89h-1.08zm9.128 0v-5.652h-2.4V82.4h5.88v.948h-2.4V89h-1.08zm7.159.12c-.696 0-1.244-.176-1.644-.528-.4-.36-.6-.844-.6-1.452 0-.616.2-1.1.6-1.452.4-.352.94-.528 1.62-.528h2.04v-.66c0-.408-.124-.72-.372-.936-.24-.224-.584-.336-1.032-.336-.392 0-.72.084-.984.252-.264.16-.416.38-.456.66h-1.08c.072-.568.34-1.02.804-1.356.464-.336 1.044-.504 1.74-.504.76 0 1.36.196 1.8.588.44.392.66.924.66 1.596V89h-1.056v-1.26h-.18l.18-.18c0 .48-.188.86-.564 1.14-.368.28-.86.42-1.476.42zm.264-.852c.512 0 .932-.128 1.26-.384.328-.256.492-.584.492-.984v-.936h-2.016c-.36 0-.644.1-.852.3-.208.2-.312.472-.312.816 0 .368.124.66.372.876.256.208.608.312 1.056.312zm4.819.732v-6.6h1.464l.864 2.532c.088.256.168.512.24.768.072.248.124.44.156.576.032-.136.08-.328.144-.576.072-.256.148-.516.228-.78l.816-2.52h1.464V89h-1.044v-1.02c0-.36.004-.752.012-1.176l.024-1.284.048-1.224c.016-.392.028-.736.036-1.032l-1.176 3.756h-1.14l-1.188-3.732c.016.36.028.808.036 1.344.016.536.028 1.096.036 1.68.016.584.024 1.14.024 1.668V89h-1.044zM9.3 105.084v-1.008h.216c.368 0 .624-.144.768-.432.152-.288.232-.804.24-1.548l.072-3.696h4.476v6.6h-1.08v-5.616h-2.328l-.06 2.76c-.016.696-.096 1.26-.24 1.692-.136.432-.352.748-.648.948-.288.2-.668.3-1.14.3H9.3zm9.031 2.076l.972-2.568-2.448-6.192h1.2l1.536 4.08c.056.136.108.3.156.492l.12.468.12-.468c.048-.192.096-.356.144-.492l1.44-4.08h1.164l-3.252 8.76h-1.152zm9.98-2.16v-2.4a5.25 5.25 0 01-.588.096 8.757 8.757 0 01-.816.036c-.816.008-1.452-.188-1.908-.588-.448-.408-.672-.976-.672-1.704V98.4h1.08v2.04c0 .408.136.732.408.972.28.232.664.348 1.152.348.336 0 .62-.012.852-.036.24-.032.404-.06.492-.084V98.4h1.08v6.6h-1.08zm3.067 0l-.024-6.6h1.008v5.784h1.404V98.4h.864v5.784h1.392V98.4h.996v6.6h-5.64zm7.531 0v-6.6h1.032v3.6c0 .232-.008.476-.024.732-.008.256-.024.5-.048.732a7.615 7.615 0 01-.06.576l2.664-5.64h1.38v6.6h-1.032v-3.6c0-.232.004-.476.012-.732.016-.256.036-.5.06-.732l.06-.588L40.29 105h-1.38zm7.196 0v-6.6h1.032v3.6c0 .232-.008.476-.024.732-.008.256-.024.5-.048.732a7.615 7.615 0 01-.06.576l2.664-5.64h1.38v6.6h-1.032v-3.6c0-.232.004-.476.012-.732.016-.256.036-.5.06-.732l.06-.588L47.485 105h-1.38zm2.52-7.68c-.576 0-1.04-.16-1.392-.48-.352-.32-.528-.74-.528-1.26h.852c0 .312.096.564.288.756.192.192.448.288.768.288.328 0 .588-.096.78-.288.2-.192.3-.444.3-.756h.852c0 .52-.176.94-.528 1.26-.352.32-.816.48-1.392.48zm14.366 7.8c-.528 0-.992-.1-1.392-.3a2.161 2.161 0 01-.912-.864c-.216-.384-.324-.836-.324-1.356v-1.8c0-.528.108-.98.324-1.356.216-.376.52-.664.912-.864.4-.2.864-.3 1.392-.3.76 0 1.372.204 1.836.612.464.408.708.964.732 1.668h-1.08c-.024-.424-.168-.748-.432-.972-.256-.232-.608-.348-1.056-.348-.472 0-.848.136-1.128.408-.28.264-.42.644-.42 1.14v1.812c0 .496.14.88.42 1.152.28.272.656.408 1.128.408.448 0 .8-.116 1.056-.348.264-.232.408-.556.432-.972h1.08c-.024.704-.268 1.26-.732 1.668-.464.408-1.076.612-1.836.612zm7.171 0c-.52 0-.976-.104-1.368-.312a2.258 2.258 0 01-.9-.876c-.208-.384-.312-.828-.312-1.332v-1.8c0-.512.105-.956.313-1.332.216-.376.516-.668.9-.876.391-.208.847-.312 1.367-.312s.972.104 1.356.312c.392.208.692.5.9.876.216.376.325.82.325 1.332v1.164h-4.105v.636c0 .52.132.92.396 1.2.264.272.64.408 1.128.408.416 0 .752-.072 1.008-.216a.953.953 0 00.468-.672h1.08c-.072.552-.344.992-.816 1.32-.463.32-1.043.48-1.74.48zm1.524-3.876v-.444c0-.52-.132-.92-.396-1.2-.256-.28-.632-.42-1.128-.42-.488 0-.864.14-1.128.42-.264.28-.396.68-.396 1.2v.348h3.132l-.084.096zm3.176 5.916V98.4h1.08v1.26h.216l-.216.252c0-.504.164-.9.492-1.188.336-.296.776-.444 1.32-.444.664 0 1.192.22 1.584.66.4.432.6 1.028.6 1.788v1.932c0 .504-.092.94-.276 1.308a1.962 1.962 0 01-.756.852c-.32.2-.704.3-1.152.3-.536 0-.972-.148-1.308-.444-.336-.296-.504-.692-.504-1.188l.216.252h-.24l.024 1.5v1.92h-1.08zm2.532-2.976c.456 0 .812-.136 1.068-.408.264-.272.396-.664.396-1.176v-1.8c0-.512-.132-.904-.396-1.176-.256-.272-.612-.408-1.068-.408-.44 0-.792.14-1.056.42-.264.28-.396.668-.396 1.164v1.8c0 .496.132.884.396 1.164.264.28.616.42 1.056.42zm4.687.816v-6.6h2.856c.688 0 1.22.156 1.596.468.376.304.564.732.564 1.284 0 .456-.156.824-.468 1.104-.312.272-.724.408-1.236.408v-.096c.56 0 1.008.14 1.344.42.344.28.516.656.516 1.128 0 .592-.2 1.056-.6 1.392-.4.328-.96.492-1.68.492h-2.892zm1.056-.948h1.836c.384 0 .68-.084.888-.252.216-.168.324-.404.324-.708 0-.312-.108-.552-.324-.72-.208-.168-.504-.252-.888-.252h-1.836v1.932zm0-2.868h1.8c.336 0 .6-.08.792-.24.2-.16.3-.384.3-.672 0-.288-.096-.512-.288-.672-.192-.168-.46-.252-.804-.252h-1.8v1.836zm6.14 3.816v-6.6h1.031v3.6c0 .232-.008.476-.024.732-.008.256-.024.5-.048.732a7.615 7.615 0 01-.06.576l2.664-5.64h1.38v6.6h-1.032v-3.6c0-.232.004-.476.012-.732.016-.256.036-.5.06-.732l.06-.588L90.656 105h-1.38zm9.69.12c-.527 0-.991-.1-1.391-.3a2.161 2.161 0 01-.912-.864c-.216-.384-.324-.836-.324-1.356v-1.8c0-.528.108-.98.324-1.356.216-.376.52-.664.912-.864.4-.2.864-.3 1.392-.3.76 0 1.372.204 1.836.612.464.408.708.964.732 1.668h-1.08c-.024-.424-.168-.748-.432-.972-.256-.232-.608-.348-1.056-.348-.472 0-.848.136-1.128.408-.28.264-.42.644-.42 1.14v1.812c0 .496.14.88.42 1.152.28.272.656.408 1.128.408.448 0 .8-.116 1.056-.348.264-.232.408-.556.432-.972h1.08c-.024.704-.268 1.26-.732 1.668-.464.408-1.076.612-1.836.612zM10.129 121v-6.6h1.032v3.6c0 .232-.008.476-.024.732-.008.256-.024.5-.048.732a7.615 7.615 0 01-.06.576l2.664-5.64h1.38v6.6H14.04v-3.6c0-.232.004-.476.012-.732.016-.256.036-.5.06-.732l.06-.588L11.508 121h-1.38zm14.39 0v-6.6h4.945v6.6h-1.08v-5.616H25.6V121h-1.08zm7.172 2.16v-8.76h1.08v1.26h.216l-.216.252c0-.504.164-.9.492-1.188.336-.296.776-.444 1.32-.444.664 0 1.192.22 1.584.66.4.432.6 1.028.6 1.788v1.932c0 .504-.092.94-.276 1.308a1.962 1.962 0 01-.756.852c-.32.2-.704.3-1.152.3-.536 0-.972-.148-1.308-.444-.336-.296-.504-.692-.504-1.188l.216.252h-.24l.024 1.5v1.92h-1.08zm2.532-2.976c.456 0 .812-.136 1.068-.408.264-.272.396-.664.396-1.176v-1.8c0-.512-.132-.904-.396-1.176-.256-.272-.612-.408-1.068-.408-.44 0-.792.14-1.056.42-.264.28-.396.668-.396 1.164v1.8c0 .496.132.884.396 1.164.264.28.616.42 1.056.42zm7.16.912c-.529 0-.985-.1-1.369-.3a2.178 2.178 0 01-.9-.864c-.208-.384-.312-.836-.312-1.356v-1.752c0-.528.104-.98.312-1.356.216-.376.516-.664.9-.864.384-.2.84-.3 1.368-.3.528 0 .984.1 1.368.3.384.2.68.488.888.864.216.376.324.824.324 1.344v1.764c0 .52-.108.972-.324 1.356a2.103 2.103 0 01-.888.864c-.384.2-.84.3-1.368.3zm0-.96c.471 0 .84-.132 1.103-.396.264-.264.396-.652.396-1.164v-1.752c0-.512-.132-.9-.396-1.164-.264-.264-.632-.396-1.104-.396-.464 0-.832.132-1.104.396-.264.264-.396.652-.396 1.164v1.752c0 .512.132.9.396 1.164.272.264.64.396 1.104.396zm3.955 2.544v-2.604h.54c.136-.136.276-.404.42-.804.152-.4.232-.908.24-1.524l.072-3.348h4.308v5.676h.84v2.604h-.96V121h-4.5v1.68h-.96zm1.68-2.604h2.82v-4.716H47.63l-.048 2.412c-.008.632-.076 1.144-.204 1.536-.128.392-.248.648-.36.768zm7.29 3.084l.973-2.568-2.448-6.192h1.2l1.536 4.08c.056.136.108.3.156.492l.12.468.12-.468c.048-.192.096-.356.144-.492l1.44-4.08h1.164l-3.252 8.76h-1.152zm6.224-2.16v-6.6h1.08v2.724h1.128l1.92-2.724h1.236l-2.22 3.144L65.931 121h-1.26l-1.92-2.94h-1.14V121h-1.08zm9.092 0v-5.652h-2.4v-.948h5.88v.948h-2.4V121h-1.08zm4.915 0v-6.6h1.008v2.424h.54c.712 0 1.272.188 1.68.564.416.368.624.876.624 1.524s-.208 1.16-.624 1.536c-.408.368-.968.552-1.68.552h-1.548zm1.008-.864h.54c.424 0 .752-.108.984-.324.24-.216.36-.516.36-.9s-.12-.684-.36-.9c-.232-.216-.56-.324-.984-.324h-.54v2.448zm3.624.864v-6.6h1.008v6.6H79.17z" fill="#000"/><defs><linearGradient id="paint0_linear_299_165" x1="0" y1="72.893" x2="223.615" y2="72.893" gradientUnits="userSpaceOnUse"><stop stop-color="#F1FFF7"/><stop offset="1" stop-color="#546A65"/></linearGradient><linearGradient id="paint1_linear_299_165" x1="11.769" y1="8.747" x2="159.382" y2="151.645" gradientUnits="userSpaceOnUse"><stop stop-color="#475E59" stop-opacity=".7"/><stop offset="1" stop-color="#fff" stop-opacity=".7"/></linearGradient><linearGradient id="paint2_linear_299_165" x1="0" y1="72.472" x2="223.615" y2="72.472" gradientUnits="userSpaceOnUse"><stop stop-color="#F1FFF7"/><stop offset="1" stop-color="#546A65"/></linearGradient><linearGradient id="paint3_linear_299_165" x1="11.769" y1="8.697" x2="158.553" y2="151.619" gradientUnits="userSpaceOnUse"><stop stop-color="#475E59" stop-opacity=".7"/><stop offset="1" stop-color="#fff" stop-opacity=".7"/></linearGradient><filter id="filter0_f_299_165" x="-18.273" y="124.187" width="118.318" height="79.727" filterUnits="userSpaceOnUse" color-interpolation-filters="sRGB"><feFlood flood-opacity="0" result="BackgroundImageFix"/><feBlend in="SourceGraphic" in2="BackgroundImageFix" result="shape"/><feGaussianBlur stdDeviation="2" result="effect1_foregroundBlur_299_165"/></filter></defs></svg>