<svg width="180" height="145" fill="none" xmlns="http://www.w3.org/2000/svg"><g filter="url(#filter0_d_440_639)"><rect x="4" width="172" height="137" rx="16.011" fill="#656565"/></g><path d="M14.903 30.034V23.02h3.958v7.013h-.865v-6.226h-2.228v6.226h-.865zm5.67 1.729V24.75h.865v1.009h.173l-.173.201c0-.403.131-.72.394-.95.269-.238.621-.356 1.057-.356.531 0 .954.176 1.268.528.32.346.48.823.48 1.432v1.546c0 .404-.073.753-.22 1.047a1.57 1.57 0 01-.606.683c-.256.16-.564.24-.922.24-.43 0-.778-.119-1.047-.356-.27-.237-.404-.554-.404-.95l.173.201h-.192l.02 1.2v1.538h-.866zM22.6 29.38c.366 0 .65-.108.855-.326.212-.218.318-.532.318-.942v-1.44c0-.41-.106-.724-.317-.942-.205-.218-.49-.327-.855-.327-.353 0-.634.112-.846.337-.211.224-.317.534-.317.931v1.441c0 .397.106.708.317.932.212.224.493.336.846.336zm5.661.73c-.422 0-.787-.08-1.095-.24a1.743 1.743 0 01-.72-.691c-.167-.308-.25-.67-.25-1.086v-1.402c0-.423.083-.785.25-1.086.173-.301.413-.532.72-.692.308-.16.673-.24 1.095-.24.423 0 .788.08 1.096.24.307.16.544.391.71.692.173.301.26.66.26 1.076v1.412c0 .416-.087.778-.26 1.086a1.683 1.683 0 01-.71.691c-.308.16-.673.24-1.096.24zm0-.768c.378 0 .673-.106.884-.317.212-.211.317-.522.317-.932v-1.402c0-.41-.105-.721-.317-.932-.211-.212-.506-.317-.884-.317-.371 0-.666.105-.883.317-.212.211-.317.522-.317.931v1.403c0 .41.105.72.317.932.217.211.512.317.883.317zm3.711.692V24.75h2.286c.551 0 .977.125 1.278.375.301.243.452.586.452 1.028 0 .365-.125.66-.375.883-.25.218-.58.327-.99.327v-.077c.449 0 .807.112 1.076.336.276.225.413.526.413.903 0 .474-.16.846-.48 1.115-.32.262-.768.394-1.345.394h-2.315zm.845-.76h1.47c.308 0 .545-.067.711-.201.173-.134.26-.323.26-.567 0-.25-.087-.442-.26-.576-.166-.135-.403-.202-.71-.202h-1.47v1.547zm0-2.295h1.441c.27 0 .48-.064.634-.192.16-.128.24-.308.24-.538 0-.23-.076-.41-.23-.538-.154-.135-.368-.202-.644-.202h-1.44v1.47zm6.824 3.15c-.417 0-.782-.082-1.096-.249a1.807 1.807 0 01-.72-.701 2.204 2.204 0 01-.25-1.067v-1.44c0-.41.083-.766.25-1.067.173-.301.413-.535.72-.701.314-.167.68-.25 1.096-.25.416 0 .778.083 1.085.25.314.166.554.4.72.701.174.301.26.656.26 1.066v.932h-3.285v.51c0 .416.105.736.317.96.211.218.512.327.903.327.333 0 .602-.058.807-.173a.763.763 0 00.374-.538h.865a1.472 1.472 0 01-.653 1.056c-.372.257-.836.385-1.393.385zm1.22-3.102v-.356c0-.416-.106-.736-.317-.96-.205-.224-.506-.337-.903-.337-.391 0-.692.113-.903.337-.212.224-.317.544-.317.96v.279h2.507l-.067.077zm1.827 3.074v-.807h.173c.295 0 .5-.115.615-.346.122-.23.186-.643.192-1.24l.058-2.958h3.583v5.284h-.864v-4.496H44.58l-.048 2.21c-.013.556-.077 1.008-.192 1.354-.11.346-.282.599-.519.759-.23.16-.535.24-.913.24h-.22zm6.353-.067V24.75h.826v2.882c0 .186-.006.381-.02.586-.005.205-.018.4-.038.586a6.1 6.1 0 01-.047.461l2.132-4.515H53v5.284h-.826v-2.882c0-.186.003-.381.01-.586.012-.205.028-.4.047-.586l.048-.471-2.132 4.525H49.04zm11.38 0V24.75h2.286c.55 0 .976.125 1.277.375.301.243.452.586.452 1.028 0 .365-.125.66-.375.883-.25.218-.58.327-.99.327v-.077c.449 0 .808.112 1.077.336.275.225.413.526.413.903 0 .474-.16.846-.48 1.115-.32.262-.77.394-1.346.394H60.42zm.845-.76h1.47c.307 0 .544-.067.71-.201.173-.134.26-.323.26-.567 0-.25-.087-.442-.26-.576-.166-.135-.403-.202-.71-.202h-1.47v1.547zm0-2.295h1.44c.27 0 .481-.064.635-.192.16-.128.24-.308.24-.538 0-.23-.077-.41-.23-.538-.154-.135-.369-.202-.644-.202h-1.441v1.47zm6.842 3.15a2.46 2.46 0 01-1.114-.24 1.73 1.73 0 01-.73-.691c-.173-.308-.26-.67-.26-1.086v-1.44c0-.423.087-.785.26-1.086a1.73 1.73 0 01.73-.692c.32-.16.691-.24 1.114-.24.609 0 1.099.163 1.47.49.371.327.567.772.586 1.335h-.865c-.019-.34-.134-.599-.346-.778-.204-.186-.486-.279-.845-.279-.378 0-.679.11-.903.327-.224.211-.336.516-.336.913v1.45c0 .397.112.705.336.923.224.217.525.326.903.326.359 0 .64-.093.846-.278.21-.186.326-.445.345-.778h.865c-.02.563-.215 1.008-.586 1.335-.371.326-.861.49-1.47.49zm5.238-.095v-4.525h-1.921v-.759h4.707v.759h-1.921v4.525h-.865zm4.124 1.729V24.75h.865v1.009h.172l-.172.201c0-.403.13-.72.394-.95.269-.238.62-.356 1.056-.356.532 0 .955.176 1.268.528.32.346.48.823.48 1.432v1.546c0 .404-.073.753-.22 1.047a1.57 1.57 0 01-.606.683c-.256.16-.563.24-.922.24-.429 0-.778-.119-1.047-.356-.269-.237-.403-.554-.403-.95l.172.201h-.192l.02 1.2v1.538h-.865zm2.027-2.383c.365 0 .65-.108.855-.326.211-.218.317-.532.317-.942v-1.44c0-.41-.106-.724-.317-.942-.205-.218-.49-.327-.855-.327-.352 0-.634.112-.845.337-.212.224-.317.534-.317.931v1.441c0 .397.105.708.317.932.211.224.493.336.845.336zm5.66.75c-.415 0-.78-.083-1.094-.25a1.807 1.807 0 01-.72-.701 2.204 2.204 0 01-.25-1.067v-1.44c0-.41.083-.766.25-1.067.172-.301.412-.535.72-.701.313-.167.679-.25 1.095-.25.416 0 .778.083 1.085.25.314.166.554.4.72.701.174.301.26.656.26 1.066v.932h-3.285v.51c0 .416.105.736.317.96.211.218.512.327.903.327.333 0 .602-.058.807-.173a.763.763 0 00.374-.538h.865a1.472 1.472 0 01-.653 1.056c-.372.257-.836.385-1.393.385zm1.22-3.103v-.356c0-.416-.105-.736-.316-.96-.205-.224-.506-.337-.903-.337-.39 0-.692.113-.903.337-.212.224-.317.544-.317.96v.279h2.507l-.067.077zm5.527 3.007v-1.922c-.102.026-.26.052-.47.077-.205.02-.423.029-.654.029-.653.006-1.162-.15-1.527-.47-.359-.327-.538-.782-.538-1.365V24.75h.864v1.633c0 .327.11.586.327.778.224.186.532.279.922.279.27 0 .497-.01.682-.029a3.59 3.59 0 00.394-.067V24.75h.865v5.284h-.865zm2.654 0V24.75h.826v2.882c0 .186-.006.381-.019.586-.006.205-.019.4-.038.586a6.1 6.1 0 01-.048.461l2.132-4.515h1.105v5.284h-.826v-2.882c0-.186.003-.381.01-.586.012-.205.028-.4.048-.586l.048-.471-2.133 4.525h-1.105zm13.378.096c-.423 0-.794-.08-1.115-.24a1.735 1.735 0 01-.73-.692c-.173-.308-.259-.67-.259-1.086v-1.44c0-.423.086-.785.259-1.086.173-.301.417-.532.73-.692.321-.16.692-.24 1.115-.24.608 0 1.098.163 1.47.49.371.327.566.772.586 1.335h-.865c-.019-.34-.135-.599-.346-.778-.205-.186-.487-.279-.845-.279-.378 0-.679.11-.903.327-.224.211-.337.516-.337.913v1.45c0 .397.113.705.337.923.224.217.525.326.903.326.358 0 .64-.093.845-.278.211-.186.327-.445.346-.778h.865c-.02.563-.215 1.008-.586 1.335-.372.326-.862.49-1.47.49zm9.41-.096V24.75h.864v2.18h.903l1.537-2.18h.99l-1.777 2.517 1.806 2.767h-1.009l-1.537-2.354h-.913v2.354h-.864zm7.639.076c-.422 0-.787-.08-1.095-.24a1.745 1.745 0 01-.72-.691c-.167-.308-.25-.67-.25-1.086v-1.402c0-.423.083-.785.25-1.086.173-.301.413-.532.72-.692.308-.16.673-.24 1.095-.24.423 0 .788.08 1.096.24.307.16.544.391.711.692.172.301.259.66.259 1.076v1.412c0 .416-.087.778-.259 1.086a1.689 1.689 0 01-.711.691c-.308.16-.673.24-1.096.24zm0-.768c.378 0 .673-.106.884-.317.212-.211.317-.522.317-.932v-1.402c0-.41-.105-.721-.317-.932-.211-.212-.506-.317-.884-.317-.371 0-.666.105-.883.317-.212.211-.317.522-.317.931v1.403c0 .41.105.72.317.932.217.211.512.317.883.317zm3.538.692V24.75h1.172l.692 2.027c.07.205.134.41.192.615.058.198.099.352.125.461.026-.109.064-.263.115-.461.058-.205.119-.413.183-.625l.653-2.017h1.172v5.284h-.836v-.817c0-.288.003-.602.01-.941l.019-1.028.038-.98c.013-.314.023-.59.029-.826l-.941 3.007h-.913l-.951-2.988c.013.288.023.647.029 1.076.013.429.022.877.029 1.345.013.467.019.912.019 1.335v.817h-.836zm7.381.096c-.558 0-.996-.141-1.316-.423-.321-.288-.481-.676-.481-1.162 0-.494.16-.881.481-1.163.32-.282.752-.423 1.296-.423h1.634v-.528c0-.326-.1-.576-.298-.75-.192-.178-.468-.268-.826-.268-.314 0-.577.067-.788.202a.716.716 0 00-.365.528h-.865c.058-.455.272-.817.644-1.086.371-.269.836-.403 1.393-.403.608 0 1.089.157 1.441.47.352.315.528.74.528 1.278v3.632h-.845v-1.009h-.144l.144-.144c0 .384-.151.688-.452.913-.294.224-.688.336-1.181.336zm.211-.682c.41 0 .746-.103 1.009-.308a.958.958 0 00.394-.788v-.749h-1.614c-.289 0-.516.08-.682.24-.167.16-.25.378-.25.654 0 .294.099.528.298.7.205.167.486.25.845.25zm3.96.586V24.75h.865v2.2h2.229v-2.2h.864v5.284h-.864v-2.296h-2.229v2.296h-.865zm5.075 1.345v-2.085h.433c.108-.109.221-.323.336-.644.121-.32.186-.727.192-1.22l.058-2.68h3.448v4.544h.673v2.085h-.769v-1.345h-3.602v1.345h-.769zm1.345-2.085h2.258v-3.776h-1.768l-.038 1.931c-.007.506-.061.916-.164 1.23-.102.314-.198.519-.288.615zm6.939.816c-.423 0-.788-.08-1.095-.24a1.742 1.742 0 01-.721-.691 2.256 2.256 0 01-.25-1.086v-1.402c0-.423.084-.785.25-1.086.173-.301.413-.532.721-.692.307-.16.672-.24 1.095-.24.422 0 .787.08 1.095.24.307.16.544.391.711.692.173.301.259.66.259 1.076v1.412c0 .416-.086.778-.259 1.086a1.689 1.689 0 01-.711.691c-.308.16-.673.24-1.095.24zm0-.768c.378 0 .672-.106.884-.317.211-.211.317-.522.317-.932v-1.402c0-.41-.106-.721-.317-.932-.212-.212-.506-.317-.884-.317-.372 0-.666.105-.884.317-.211.211-.317.522-.317.931v1.403c0 .41.106.72.317.932.218.211.512.317.884.317zm3.71.692V24.75h.827v2.882c0 .186-.007.381-.02.586a8.08 8.08 0 01-.038.586c-.013.18-.029.333-.048.461l2.133-4.515h1.104v5.284h-.826v-2.882c0-.186.003-.381.01-.586.013-.205.029-.4.048-.586l.048-.471-2.133 4.525h-1.105zm2.018-6.149c-.461 0-.833-.128-1.115-.384-.281-.256-.422-.592-.422-1.009h.682c0 .25.077.452.23.606.154.153.359.23.615.23.263 0 .471-.077.625-.23a.8.8 0 00.24-.606h.682c0 .417-.141.753-.423 1.01-.282.255-.653.383-1.114.383zM14.893 49.034V42.02h1.989c.64 0 1.14.16 1.499.48.365.32.547.765.547 1.335 0 .32-.067.6-.201.836a1.36 1.36 0 01-.577.548c-.243.128-.538.189-.884.182v-.144c.372-.006.692.064.961.212.275.147.487.358.634.634.154.275.23.602.23.98 0 .397-.083.742-.25 1.037a1.699 1.699 0 01-.71.682c-.308.154-.676.23-1.105.23h-2.133zm.846-.779h1.191c.404 0 .72-.105.951-.317.237-.217.356-.512.356-.883 0-.385-.119-.695-.356-.932-.23-.243-.547-.365-.95-.365h-1.192v2.497zm0-3.247h1.133c.372 0 .663-.099.875-.297.217-.199.326-.468.326-.807 0-.34-.105-.609-.317-.807-.211-.199-.503-.298-.874-.298h-1.143v2.21zm6.372 4.122c-.558 0-.996-.141-1.317-.423-.32-.288-.48-.676-.48-1.162 0-.494.16-.881.48-1.163.32-.282.753-.422 1.297-.422h1.633v-.529c0-.326-.099-.576-.297-.75-.192-.178-.468-.268-.826-.268-.314 0-.577.067-.788.202a.718.718 0 00-.365.528h-.865c.058-.455.272-.817.644-1.086.371-.269.835-.403 1.393-.403.608 0 1.088.157 1.44.47.353.314.53.74.53 1.278v3.632h-.846v-1.009H23.6l.144-.144c0 .384-.15.688-.452.913-.294.224-.688.336-1.181.336zm.21-.682c.41 0 .747-.103 1.01-.308a.957.957 0 00.393-.788v-.749h-1.613c-.289 0-.516.08-.683.24-.166.16-.25.378-.25.654 0 .294.1.528.299.7.204.167.486.25.845.25zm3.942.586V43.75h.865v1.009h.182l-.182.201c0-.416.125-.736.374-.96.25-.23.596-.346 1.038-.346.532 0 .954.163 1.268.49.314.327.47.772.47 1.335v3.555h-.864v-3.459c0-.378-.102-.666-.307-.864-.199-.205-.471-.308-.817-.308-.358 0-.643.11-.855.327-.205.218-.307.531-.307.941v3.363h-.865zm7.525.077c-.359 0-.673-.055-.942-.164a1.606 1.606 0 01-.634-.48 1.468 1.468 0 01-.278-.73h.864a.68.68 0 00.308.442c.172.109.4.163.682.163h.403c.34 0 .593-.067.76-.202a.694.694 0 00.249-.557.65.65 0 00-.23-.528c-.148-.135-.369-.224-.664-.27l-.71-.115c-.52-.09-.907-.25-1.163-.48-.25-.237-.374-.58-.374-1.028 0-.474.15-.839.451-1.095.301-.263.753-.394 1.355-.394h.365c.506 0 .912.119 1.22.356.307.236.493.557.557.96h-.865a.614.614 0 00-.288-.394c-.154-.102-.362-.153-.624-.153h-.365c-.327 0-.567.06-.721.182-.147.122-.22.304-.22.548 0 .218.063.378.191.48.128.103.33.176.605.221l.711.115c.57.09.983.257 1.24.5.262.243.394.596.394 1.057 0 .486-.157.87-.471 1.152-.308.276-.775.413-1.403.413h-.403zm4.68 1.652l.779-2.056-1.96-4.957h.96l1.23 3.266c.045.11.087.24.125.394.039.148.07.272.096.375l.096-.375a4.46 4.46 0 01.116-.394l1.152-3.266h.932l-2.603 7.013h-.922zm6.699-1.652a2.5 2.5 0 01-.942-.164 1.606 1.606 0 01-.633-.48 1.468 1.468 0 01-.28-.73h.866c.038.185.14.333.307.442.173.109.4.163.682.163h.404c.339 0 .592-.067.758-.202a.694.694 0 00.25-.557.65.65 0 00-.23-.528c-.148-.135-.369-.224-.663-.27l-.711-.115c-.519-.09-.906-.25-1.163-.48-.25-.237-.374-.58-.374-1.028 0-.474.15-.839.451-1.095.301-.263.753-.394 1.355-.394h.365c.506 0 .913.119 1.22.356.307.236.493.557.557.96h-.864a.614.614 0 00-.289-.394c-.153-.102-.361-.153-.624-.153h-.365c-.327 0-.567.06-.72.182-.148.122-.222.304-.222.548 0 .218.064.378.193.48.128.103.33.176.605.221l.71.115c.57.09.984.257 1.24.5.263.243.394.596.394 1.057 0 .486-.157.87-.471 1.152-.307.276-.775.413-1.402.413h-.404zm8.949 1.268v-2.085h.432c.109-.109.221-.323.336-.644.122-.32.186-.727.193-1.22l.057-2.68h3.449v4.544h.672v2.085h-.768v-1.345h-3.603v1.345h-.768zm1.345-2.085h2.257v-3.775h-1.767l-.039 1.93c-.006.506-.06.916-.163 1.23-.102.314-.199.519-.288.615zm4.296.807v-.807h.173c.295 0 .5-.115.615-.346.122-.23.186-.644.192-1.24l.058-2.958h3.583v5.284h-.864v-4.496H61.65l-.048 2.21c-.013.556-.077 1.008-.192 1.354-.11.346-.282.599-.519.759-.23.16-.535.24-.913.24h-.22zm6.026-.067l1.355-2.037c-.404-.096-.718-.282-.942-.557-.217-.276-.326-.618-.326-1.028 0-.519.17-.925.509-1.22.346-.295.816-.442 1.412-.442h2.277v5.284h-.865v-1.97h-1.162l-1.249 1.97h-1.009zm2.008-2.738h1.412v-1.777h-1.412c-.32 0-.573.08-.759.24-.186.153-.278.371-.278.653 0 .275.092.493.278.653.186.154.439.23.76.23zm11.677 2.815c-.422 0-.788-.08-1.095-.24a1.744 1.744 0 01-.72-.692c-.167-.308-.25-.67-.25-1.086V45.69c0-.422.083-.784.25-1.085a1.74 1.74 0 01.72-.692c.307-.16.672-.24 1.095-.24.423 0 .788.08 1.095.24.308.16.545.391.711.692.173.301.26.66.26 1.076v1.412c0 .416-.087.778-.26 1.086a1.683 1.683 0 01-.71.691c-.308.16-.673.24-1.096.24zm0-.769c.378 0 .673-.106.884-.317.211-.211.317-.522.317-.932V45.69c0-.41-.106-.72-.317-.931-.211-.212-.506-.317-.884-.317-.371 0-.666.105-.884.317-.21.211-.317.522-.317.931v1.403c0 .41.106.72.317.932.218.211.513.317.884.317zm3.71.692V43.75h3.959v5.284h-.865v-4.496h-2.229v4.496h-.864zm5.671 1.729V43.75h.865v1.009h.173l-.173.201c0-.403.131-.72.394-.95.269-.238.621-.356 1.057-.356.531 0 .954.176 1.268.528.32.346.48.823.48 1.432v1.546c0 .404-.074.753-.221 1.048a1.57 1.57 0 01-.605.682c-.256.16-.564.24-.922.24-.43 0-.779-.119-1.048-.356s-.403-.554-.403-.95l.173.201h-.192l.019 1.2v1.538h-.865zm2.027-2.383c.365 0 .65-.108.855-.326.212-.218.317-.532.317-.942v-1.44c0-.41-.105-.724-.317-.942-.205-.218-.49-.327-.855-.327-.352 0-.634.112-.845.337-.211.224-.317.534-.317.931v1.441c0 .397.106.708.317.932.211.224.493.336.845.336zm5.661.75a2.31 2.31 0 01-1.095-.25 1.807 1.807 0 01-.72-.701 2.204 2.204 0 01-.25-1.067v-1.44c0-.41.083-.766.25-1.067.172-.301.413-.535.72-.701.314-.167.679-.25 1.095-.25.416 0 .778.083 1.086.25.314.166.554.4.72.701.173.301.26.656.26 1.066v.932h-3.286v.51c0 .416.106.736.317.96.212.218.513.327.903.327.333 0 .602-.058.807-.173a.763.763 0 00.375-.538h.864a1.472 1.472 0 01-.653 1.056c-.371.257-.836.385-1.393.385zm1.22-3.103v-.356c0-.416-.105-.736-.317-.96-.205-.224-.506-.337-.903-.337-.39 0-.692.112-.903.337-.211.224-.317.544-.317.96v.279h2.508l-.068.077zm1.876 4.352v-2.085h.432c.109-.109.221-.323.337-.644.121-.32.185-.727.192-1.22l.057-2.68h3.449v4.544h.673v2.085h-.769v-1.345h-3.602v1.345h-.769zm1.345-2.085h2.258v-3.775h-1.768l-.039 1.93c-.006.506-.06.916-.163 1.23-.102.314-.198.519-.288.615zm6.938.836a2.31 2.31 0 01-1.095-.25 1.81 1.81 0 01-.72-.701 2.199 2.199 0 01-.25-1.067v-1.44c0-.41.083-.766.25-1.067a1.81 1.81 0 01.72-.701c.314-.167.679-.25 1.095-.25.417 0 .779.083 1.086.25.314.166.554.4.721.701.172.301.259.656.259 1.066v.932h-3.286v.51c0 .416.106.736.317.96.212.218.513.327.903.327.334 0 .603-.058.807-.173a.764.764 0 00.375-.538h.865a1.473 1.473 0 01-.654 1.056c-.371.257-.835.385-1.393.385zm1.221-3.103v-.356c0-.416-.106-.736-.317-.96-.205-.224-.506-.337-.904-.337-.39 0-.691.112-.903.337-.211.224-.317.544-.317.96v.279h2.508l-.067.077zm1.827 3.074v-.807h.173c.295 0 .5-.115.615-.346.122-.23.186-.644.192-1.24l.058-2.958h3.583v5.284h-.864v-4.496h-1.864l-.048 2.21c-.013.556-.077 1.008-.192 1.354-.109.346-.282.599-.519.759-.231.16-.535.24-.913.24h-.221zm8.332.029a2.3 2.3 0 01-1.095-.25 1.806 1.806 0 01-.721-.701 2.21 2.21 0 01-.25-1.067v-1.44c0-.41.084-.766.25-1.067.173-.301.413-.535.721-.701a2.3 2.3 0 011.095-.25c.416 0 .778.083 1.085.25.314.166.554.4.721.701.173.301.259.656.259 1.066v.932h-3.285v.51c0 .416.105.736.317.96.211.218.512.327.903.327.333 0 .602-.058.807-.173a.76.76 0 00.374-.538h.865a1.472 1.472 0 01-.653 1.056c-.372.257-.836.385-1.393.385zm1.22-3.103v-.356c0-.416-.106-.736-.317-.96-.205-.224-.506-.337-.903-.337-.391 0-.692.112-.903.337-.212.224-.317.544-.317.96v.279h2.507l-.067.077zm2.49 3.007V43.75h.865v2.2h2.229v-2.2h.864v5.284h-.864v-2.296h-2.229v2.296h-.865zm5.69 0V43.75h.826v2.882c0 .186-.006.381-.019.586a8.08 8.08 0 01-.038.586c-.013.18-.029.333-.048.461l2.132-4.515h1.105v5.284h-.826v-2.882c0-.186.003-.381.01-.586.012-.205.028-.4.048-.586l.048-.471-2.133 4.525h-1.105zm5.363 0l1.355-2.037c-.404-.096-.718-.282-.942-.557-.218-.276-.326-.618-.326-1.028 0-.519.169-.925.509-1.22.346-.295.816-.442 1.412-.442h2.277v5.284h-.865v-1.97h-1.162l-1.249 1.97h-1.009zm2.008-2.738h1.412v-1.777h-1.412c-.32 0-.573.08-.759.24-.186.153-.279.371-.279.653 0 .275.093.493.279.653.186.154.439.23.759.23zM16.497 69.763v-1.73c-.614 0-1.098-.172-1.45-.518-.352-.346-.528-.82-.528-1.422v-1.422c0-.595.176-1.063.528-1.402.359-.346.842-.519 1.45-.519v-1.73h.77v1.73c.614 0 1.098.173 1.45.519.352.34.528.807.528 1.402v1.422c0 .602-.176 1.076-.528 1.422-.352.346-.836.519-1.45.519v1.729h-.77zm.02-2.411v-3.92c-.372 0-.663.109-.874.327-.212.217-.317.522-.317.912v1.422c0 .39.105.698.317.922.211.225.502.337.874.337zm.73 0c.378 0 .67-.112.874-.337.212-.224.317-.531.317-.922v-1.422c0-.39-.105-.695-.317-.912-.205-.218-.496-.327-.874-.327v3.92zm4.153 2.41l.778-2.055-1.96-4.957h.96l1.23 3.266c.045.11.087.24.125.394.039.148.07.272.096.375l.096-.375a4.4 4.4 0 01.116-.394l1.152-3.266h.932l-2.603 7.013H21.4zm4.882-1.728V62.75h.865v2.2h2.229v-2.2h.864v5.284h-.864v-2.296h-2.229v2.296h-.865zm5.719 0V62.75h.864v2.18h.904l1.537-2.18h.989l-1.777 2.517 1.806 2.767h-1.009l-1.537-2.354h-.913v2.354h-.864zm9.417 1.345v-1.345h-3.756V62.75h.864v4.515h2.075V62.75h.865v4.515h.72v2.114h-.768zm1.933-1.345V62.75h.827v2.882c0 .186-.007.381-.02.586-.006.205-.019.4-.038.586a6.1 6.1 0 01-.048.461l2.133-4.515h1.104v5.284h-.826v-2.882c0-.186.003-.381.01-.586.012-.205.029-.4.048-.586l.048-.471-2.133 4.525h-1.105zm7.669.076c-.423 0-.788-.08-1.095-.24a1.744 1.744 0 01-.72-.691c-.167-.308-.25-.67-.25-1.086V64.69c0-.422.083-.784.25-1.085.172-.301.412-.532.72-.692.307-.16.672-.24 1.095-.24.423 0 .788.08 1.095.24.307.16.544.391.711.692.173.301.26.66.26 1.076v1.412c0 .416-.087.778-.26 1.086a1.683 1.683 0 01-.71.691c-.308.16-.673.24-1.096.24zm0-.768c.378 0 .672-.106.884-.317.211-.211.317-.522.317-.932V64.69c0-.41-.106-.72-.317-.931-.212-.212-.506-.317-.884-.317-.372 0-.666.105-.884.317-.211.211-.317.522-.317.931v1.403c0 .41.106.72.317.932.218.211.512.317.884.317zm3.71.692V62.75h.865v2.2h2.229v-2.2h.865v5.284h-.865v-2.296h-2.229v2.296h-.864zm7.208.096c-.557 0-.996-.141-1.316-.423-.32-.288-.48-.676-.48-1.162 0-.493.16-.881.48-1.163.32-.282.752-.422 1.297-.422h1.633v-.529c0-.326-.1-.576-.298-.75-.192-.178-.467-.268-.826-.268-.314 0-.576.067-.788.202a.718.718 0 00-.365.528h-.864c.057-.455.272-.817.643-1.086.372-.269.836-.403 1.393-.403.609 0 1.09.157 1.441.47.353.314.529.74.529 1.278v3.632h-.846v-1.009h-.144l.144-.144c0 .384-.15.688-.451.912-.295.225-.689.337-1.182.337zm.212-.682c.41 0 .746-.103 1.008-.308a.957.957 0 00.394-.787v-.75h-1.614c-.288 0-.515.08-.682.24-.166.16-.25.378-.25.654 0 .294.1.528.298.7.205.167.487.25.846.25zm3.297.653v-.807h.173c.295 0 .5-.115.615-.346.121-.23.186-.643.192-1.24l.058-2.958h3.583v5.284h-.865v-4.496H67.34l-.048 2.21c-.013.556-.077 1.008-.193 1.354-.109.346-.281.599-.518.759-.23.16-.535.24-.913.24h-.22zm6.391-.067V62.75h.865v1.94h1.556c.596 0 1.063.151 1.403.452.345.295.518.701.518 1.22 0 .513-.173.92-.519 1.22-.345.301-.813.452-1.402.452h-2.421zm.865-.788h1.556c.333 0 .586-.074.759-.221.18-.154.269-.375.269-.663 0-.288-.09-.506-.27-.653-.172-.154-.425-.23-.758-.23h-1.556v1.767zm4.786.788V62.75h.865v2.2h2.229v-2.2h.864v5.284h-.864v-2.296h-2.23v2.296h-.864zm5.411 0V62.75h.807v1.94h.433c.57 0 1.018.151 1.344.452.334.295.5.701.5 1.22s-.166.929-.5 1.23c-.326.294-.774.442-1.344.442H82.9zm.807-.692h.433c.339 0 .602-.087.787-.26.192-.172.288-.412.288-.72 0-.307-.096-.547-.288-.72-.185-.173-.448-.26-.787-.26h-.433v1.96zm2.902.692V62.75h.806v5.284h-.806zm1.837 0l1.873-2.719-1.758-2.565h1.018l1.048 1.633c.044.07.086.147.124.23l.106.202c.02-.05.048-.118.087-.201.044-.084.09-.16.134-.23l1.057-1.634h1.008l-1.758 2.575 1.864 2.709h-1.018l-1.134-1.73a2.58 2.58 0 01-.134-.24 2.064 2.064 0 00-.106-.23 3.791 3.791 0 01-.26.47l-1.142 1.73h-1.01zm13.349 0v-4.525h-1.922v-.759h4.707v.759h-1.921v4.525h-.864zm4.123 1.729V62.75h.865v1.009h.173l-.173.201c0-.403.131-.72.394-.95.269-.238.621-.356 1.057-.356.531 0 .954.176 1.268.528.32.346.48.823.48 1.432v1.546c0 .404-.074.753-.221 1.047a1.575 1.575 0 01-.605.683c-.256.16-.564.24-.922.24-.43 0-.779-.119-1.048-.356s-.403-.554-.403-.95l.173.201h-.192l.019 1.2v1.538h-.865zm2.027-2.383c.365 0 .65-.108.855-.326.212-.218.317-.532.317-.942v-1.44c0-.41-.105-.724-.317-.942-.205-.218-.49-.327-.855-.327-.352 0-.634.112-.845.337-.211.224-.317.534-.317.931v1.441c0 .397.106.708.317.932.211.224.493.336.845.336zm5.661.75a2.31 2.31 0 01-1.095-.25 1.812 1.812 0 01-.721-.701 2.21 2.21 0 01-.249-1.067v-1.44c0-.41.083-.766.249-1.067.173-.301.414-.535.721-.701.314-.167.679-.25 1.095-.25.416 0 .778.083 1.086.25.314.166.554.4.72.701.173.301.26.656.26 1.066v.932h-3.286v.51c0 .416.106.736.317.96.211.218.512.327.903.327.333 0 .602-.058.807-.173a.764.764 0 00.375-.538h.864a1.469 1.469 0 01-.653 1.057c-.371.256-.836.384-1.393.384zm1.22-3.103v-.356c0-.416-.105-.736-.317-.96-.205-.224-.506-.337-.903-.337-.391 0-.692.112-.903.337-.211.224-.317.544-.317.96v.279h2.507l-.067.077zm4.47 3.103c-.621 0-1.115-.183-1.48-.548-.358-.371-.538-.877-.538-1.518v-2.401c0-.846.212-1.496.634-1.95.423-.462 1.028-.692 1.816-.692h1.345v.864h-1.345c-.519 0-.913.154-1.182.462-.269.3-.403.74-.403 1.316v.624h.134l-.134.192c.006-.378.134-.672.384-.884.25-.211.589-.317 1.019-.317.557 0 .989.18 1.296.538.314.359.471.852.471 1.48v.768c0 .43-.08.798-.24 1.105-.16.308-.391.544-.692.711-.301.166-.662.25-1.085.25zm0-.769c.371 0 .656-.112.855-.336.198-.224.298-.544.298-.96v-.77c0-.416-.1-.736-.298-.96-.199-.224-.484-.336-.855-.336-.372 0-.657.112-.855.336-.199.218-.298.538-.298.96v.77c0 .416.099.736.298.96.198.224.483.336.855.336zm5.689.75c-.422 0-.787-.08-1.095-.24a1.745 1.745 0 01-.72-.692c-.167-.308-.25-.67-.25-1.086V64.69c0-.422.083-.784.25-1.085.173-.301.413-.532.72-.692.308-.16.673-.24 1.095-.24.423 0 .788.08 1.096.24.307.16.544.391.711.692.172.301.259.66.259 1.076v1.412c0 .416-.087.778-.259 1.086a1.689 1.689 0 01-.711.691c-.308.16-.673.24-1.096.24zm0-.769c.378 0 .673-.106.884-.317.212-.211.317-.522.317-.932V64.69c0-.41-.105-.72-.317-.931-.211-.212-.506-.317-.884-.317-.371 0-.666.105-.883.317-.212.211-.317.522-.317.931v1.403c0 .41.105.72.317.932.217.211.512.317.883.317zm3.711.692V62.75h2.287c.55 0 .976.125 1.277.375.301.243.452.586.452 1.028 0 .365-.125.66-.375.883-.25.218-.58.327-.989.327v-.077c.448 0 .807.112 1.076.336.275.225.413.526.413.903 0 .474-.16.846-.481 1.115-.32.262-.768.394-1.345.394h-2.315zm.846-.76h1.469c.308 0 .545-.067.711-.201.173-.134.26-.323.26-.567 0-.25-.087-.442-.26-.576-.166-.135-.403-.202-.711-.202h-1.469v1.547zm0-2.295h1.441c.269 0 .48-.064.634-.192a.652.652 0 00.24-.538c0-.23-.077-.41-.231-.538-.154-.135-.368-.202-.643-.202h-1.441v1.47zm6.362 3.15c-.558 0-.996-.14-1.316-.422-.321-.288-.481-.676-.481-1.162 0-.493.16-.881.481-1.163.32-.282.752-.422 1.296-.422h1.634v-.529c0-.326-.1-.576-.298-.75-.192-.178-.468-.268-.826-.268-.314 0-.577.067-.788.202a.716.716 0 00-.365.528h-.865c.058-.455.272-.817.644-1.086.371-.269.836-.403 1.393-.403.608 0 1.089.157 1.441.47.352.314.528.74.528 1.278v3.632h-.845v-1.009h-.144l.144-.144c0 .384-.151.688-.452.912-.294.225-.688.337-1.181.337zm.211-.681c.41 0 .746-.103 1.009-.308a.958.958 0 00.394-.787v-.75h-1.614c-.289 0-.516.08-.682.24-.167.16-.25.378-.25.654 0 .294.099.528.298.7.205.167.486.25.845.25zm3.96.586V62.75h.865v2.2h2.229v-2.2h.864v5.284h-.864v-2.296h-2.229v2.296h-.865zm5.69 0V62.75h.826v2.882c0 .186-.006.381-.019.586a8.08 8.08 0 01-.038.586c-.013.18-.029.333-.048.461l2.132-4.515h1.105v5.284h-.826v-2.882c0-.186.003-.381.009-.586.013-.205.029-.4.049-.586l.048-.471-2.133 4.525h-1.105zm5.69 0V62.75h.826v2.882c0 .186-.006.381-.019.586-.007.205-.02.4-.039.586-.013.18-.029.333-.048.461l2.133-4.515h1.105v5.284h-.826v-2.882c0-.186.003-.381.009-.586.013-.205.029-.4.048-.586l.048-.471-2.132 4.525h-1.105zm2.017-6.149c-.461 0-.832-.128-1.114-.384-.282-.256-.423-.592-.423-1.009h.682c0 .25.077.452.231.606.153.153.358.23.615.23.262 0 .47-.077.624-.23a.8.8 0 00.24-.606h.682c0 .417-.141.753-.422 1.01-.282.255-.654.383-1.115.383zm5.651 6.245c-.243 0-.438-.07-.586-.212-.141-.14-.211-.33-.211-.566 0-.25.07-.449.211-.596.148-.147.343-.221.586-.221.244 0 .436.074.577.221.147.147.221.346.221.596 0 .237-.074.425-.221.566-.141.141-.333.212-.577.212z" fill="#fff"/><defs><filter id="filter0_d_440_639" x=".157" y="0" width="179.685" height="144.685" filterUnits="userSpaceOnUse" color-interpolation-filters="sRGB"><feFlood flood-opacity="0" result="BackgroundImageFix"/><feColorMatrix in="SourceAlpha" values="0 0 0 0 0 0 0 0 0 0 0 0 0 0 0 0 0 0 127 0" result="hardAlpha"/><feOffset dy="3.843"/><feGaussianBlur stdDeviation="1.921"/><feComposite in2="hardAlpha" operator="out"/><feColorMatrix values="0 0 0 0 0 0 0 0 0 0 0 0 0 0 0 0 0 0 0.25 0"/><feBlend in2="BackgroundImageFix" result="effect1_dropShadow_440_639"/><feBlend in="SourceGraphic" in2="effect1_dropShadow_440_639" result="shape"/></filter></defs></svg>