<svg width="180" height="143" fill="none" xmlns="http://www.w3.org/2000/svg"><g filter="url(#filter0_d_441_839)"><rect x="4" width="172" height="135" rx="16.004" fill="#978A49"/></g><path d="M14.903 55.01v-7.009h3.956v7.01h-.865v-6.223h-2.227v6.223h-.864zm5.667 1.73v-7.01h.864v1.008h.173l-.172.201c0-.403.13-.72.393-.95.27-.237.621-.355 1.056-.355.532 0 .954.176 1.268.528.32.345.48.822.48 1.43v1.546c0 .404-.074.753-.22 1.047a1.57 1.57 0 01-.606.682c-.256.16-.563.24-.922.24-.428 0-.777-.119-1.046-.355-.269-.237-.404-.554-.404-.951l.173.201h-.192l.02 1.2v1.537h-.865zm2.026-2.382c.365 0 .65-.109.855-.327.211-.217.317-.531.317-.94V51.65c0-.41-.106-.723-.317-.941-.205-.218-.49-.327-.855-.327-.352 0-.633.113-.845.337-.21.224-.317.534-.317.931v1.44c0 .397.106.708.317.932.212.224.493.336.845.336zm5.659.73c-.423 0-.788-.08-1.095-.24a1.743 1.743 0 01-.72-.692c-.167-.307-.25-.669-.25-1.085V51.67c0-.422.083-.784.25-1.085.173-.3.413-.531.72-.691.307-.16.672-.24 1.095-.24.422 0 .787.08 1.094.24.308.16.544.39.71.691.174.301.26.66.26 1.076v1.411c0 .416-.086.778-.26 1.085a1.667 1.667 0 01-.71.691c-.307.16-.672.24-1.095.24zm0-.769c.377 0 .672-.105.883-.317.211-.21.317-.521.317-.93v-1.403c0-.41-.106-.72-.317-.931-.211-.212-.506-.317-.884-.317-.37 0-.665.105-.883.317-.211.211-.317.522-.317.931v1.402c0 .41.106.72.317.931.218.212.512.317.884.317zm3.708.692v-5.282h2.286c.55 0 .976.125 1.277.375.3.243.451.586.451 1.028 0 .364-.125.659-.374.883-.25.218-.58.326-.99.326v-.077c.449 0 .807.112 1.076.337.275.224.413.525.413.902 0 .474-.16.845-.48 1.114-.32.263-.768.394-1.344.394h-2.315zm.845-.759h1.47c.307 0 .544-.067.71-.202.173-.134.26-.323.26-.566 0-.25-.087-.442-.26-.576-.166-.135-.403-.202-.71-.202h-1.47v1.546zm0-2.295h1.44c.27 0 .48-.064.635-.192.16-.128.24-.307.24-.538 0-.23-.077-.41-.23-.537-.154-.135-.369-.202-.644-.202h-1.44v1.47zm6.82 3.15c-.416 0-.78-.084-1.094-.25a1.807 1.807 0 01-.72-.7 2.203 2.203 0 01-.25-1.067v-1.44c0-.41.083-.765.25-1.066.172-.3.413-.534.72-.7a2.3 2.3 0 011.094-.25c.416 0 .778.083 1.086.25.313.166.553.4.72.7.172.301.259.656.259 1.066v.931h-3.284v.51c0 .415.106.736.317.96.211.217.512.326.902.326.333 0 .602-.058.807-.173.205-.121.33-.3.374-.538h.865a1.471 1.471 0 01-.653 1.057c-.371.256-.836.384-1.393.384zm1.22-3.102v-.355c0-.416-.106-.736-.317-.96-.205-.224-.506-.336-.903-.336-.39 0-.69.112-.902.336-.211.224-.317.544-.317.96v.278h2.506l-.067.077zm2.47 4.734v-7.01h.864v1.009h.173l-.173.201c0-.403.132-.72.394-.95.269-.237.621-.355 1.056-.355.532 0 .954.176 1.268.528.32.345.48.822.48 1.43v1.546c0 .404-.074.753-.221 1.047a1.57 1.57 0 01-.605.682c-.256.16-.563.24-.922.24-.429 0-.777-.119-1.046-.355-.27-.237-.404-.554-.404-.951l.173.201h-.192l.02 1.2v1.537h-.865zm2.026-2.381c.365 0 .65-.109.855-.327.211-.217.317-.531.317-.94V51.65c0-.41-.106-.723-.317-.941-.205-.218-.49-.327-.855-.327-.352 0-.634.113-.845.337-.211.224-.317.534-.317.931v1.44c0 .397.106.708.317.932.211.224.493.336.845.336zm3.68.653v-5.282h.826v2.881c0 .186-.006.381-.02.586-.005.205-.018.4-.038.586a5.306 5.306 0 01-.048.46l2.132-4.512h1.104v5.28h-.825v-2.88c0-.186.003-.38.01-.586.012-.204.028-.4.047-.585l.048-.47-2.131 4.522h-1.105zm5.025.067v-.807h.172c.295 0 .5-.115.615-.345.122-.23.186-.644.192-1.239l.058-2.957h3.581v5.28h-.864v-4.493H55.94l-.048 2.208c-.013.557-.077 1.009-.192 1.354-.109.346-.281.599-.518.759-.23.16-.535.24-.913.24h-.22zm6.35-.067v-5.282h.825v2.881c0 .186-.006.381-.02.586-.006.205-.018.4-.038.586a5.306 5.306 0 01-.048.46l2.132-4.512h1.104v5.28h-.825v-2.88c0-.186.003-.38.01-.586.012-.204.028-.4.047-.585l.048-.47-2.132 4.522h-1.104zm11.373 0v-5.282h3.956v5.282h-.864v-4.494h-2.228v4.494h-.864zm5.668 1.728v-7.01h.864v1.009h.173l-.173.201c0-.403.131-.72.394-.95.269-.237.62-.355 1.056-.355.531 0 .954.176 1.267.528.32.345.48.822.48 1.43v1.546c0 .404-.073.753-.22 1.047a1.57 1.57 0 01-.605.682c-.256.16-.564.24-.922.24-.429 0-.778-.119-1.047-.355-.269-.237-.403-.554-.403-.951l.173.201h-.192l.019 1.2v1.537h-.864zm2.026-2.381c.365 0 .65-.109.855-.327.21-.217.316-.531.316-.94V51.65c0-.41-.105-.723-.317-.941-.204-.218-.49-.327-.854-.327-.352 0-.634.113-.845.337-.211.224-.317.534-.317.931v1.44c0 .397.106.708.317.932.211.224.493.336.845.336zm3.68.653v-5.282h.826v2.881c0 .186-.007.381-.02.586-.006.205-.019.4-.038.586a6.233 6.233 0 01-.048.46l2.132-4.512h1.104v5.28h-.826v-2.88c0-.186.004-.38.01-.586.013-.204.029-.4.048-.585l.048-.47-2.132 4.522h-1.104zm5.024.067v-.807h.173c.295 0 .5-.115.615-.345.121-.23.185-.644.192-1.239l.057-2.957h3.582v5.28h-.864v-4.493h-1.863l-.048 2.208c-.013.557-.077 1.009-.192 1.354-.109.346-.282.599-.519.759-.23.16-.534.24-.912.24h-.22zm8.328.01c-.423 0-.788-.08-1.095-.24a1.742 1.742 0 01-.72-.692c-.166-.307-.25-.669-.25-1.085V51.67c0-.422.084-.784.25-1.085.173-.3.413-.531.72-.691.307-.16.672-.24 1.095-.24.422 0 .787.08 1.095.24.307.16.544.39.71.691.173.301.26.66.26 1.076v1.411c0 .416-.087.778-.26 1.085a1.673 1.673 0 01-.71.691c-.308.16-.673.24-1.095.24zm0-.769c.378 0 .672-.105.883-.317.212-.21.317-.521.317-.93v-1.403c0-.41-.105-.72-.317-.931-.21-.212-.505-.317-.883-.317-.371 0-.666.105-.883.317-.212.211-.317.522-.317.931v1.402c0 .41.105.72.317.931.217.212.512.317.883.317zm2.979.692l1.152-2.708-1.075-2.573h.835l.922 2.304h.509V49.73h.73v2.304h.489l.951-2.304h.826l-1.076 2.544 1.153 2.737h-.865l-.96-2.4h-.518v2.4h-.73v-2.4h-.519l-.969 2.4h-.855zm8.395.096a2.31 2.31 0 01-1.095-.25 1.809 1.809 0 01-.72-.7 2.208 2.208 0 01-.25-1.067v-1.44c0-.41.084-.765.25-1.066.173-.3.413-.534.72-.7.314-.167.679-.25 1.095-.25.416 0 .778.083 1.085.25.314.166.554.4.72.7.173.301.259.656.259 1.066v.931h-3.284v.51c0 .415.106.736.317.96.211.217.512.326.903.326.333 0 .602-.058.806-.173a.76.76 0 00.375-.538h.864a1.472 1.472 0 01-.653 1.057c-.371.256-.835.384-1.392.384zm1.219-3.102v-.355c0-.416-.105-.736-.317-.96-.204-.224-.505-.336-.902-.336-.391 0-.692.112-.903.336-.211.224-.317.544-.317.96v.278h2.506l-.067.077zm2.49 3.006v-5.282h.864v2.2h2.228v-2.2h.864v5.282h-.864v-2.295h-2.228v2.295h-.864zm5.687 0v-5.282h.825v2.881c0 .186-.006.381-.019.586-.006.205-.019.4-.038.586a6.233 6.233 0 01-.048.46l2.131-4.512h1.105v5.28h-.826v-2.88c0-.186.003-.38.01-.586.012-.204.028-.4.048-.585l.048-.47-2.132 4.522h-1.104zm7.665.096a2.31 2.31 0 01-1.095-.25 1.809 1.809 0 01-.72-.7 2.196 2.196 0 01-.25-1.067v-1.44c0-.41.083-.765.25-1.066.173-.3.413-.534.72-.7.314-.167.679-.25 1.095-.25.416 0 .777.083 1.085.25.313.166.553.4.72.7.173.301.259.656.259 1.066v.931h-3.284v.51c0 .415.106.736.317.96.211.217.512.326.903.326.333 0 .601-.058.806-.173a.76.76 0 00.375-.538h.864a1.472 1.472 0 01-.653 1.057c-.371.256-.835.384-1.392.384zm1.219-3.102v-.355c0-.416-.106-.736-.317-.96-.205-.224-.505-.336-.902-.336-.391 0-.692.112-.903.336-.211.224-.317.544-.317.96v.278h2.506l-.067.077zm8.176 3.006v-5.282h.865v2.2h2.227v-2.2h.865v5.282h-.865v-2.295h-2.227v2.295h-.865zm7.205.096c-.557 0-.996-.141-1.316-.423-.32-.288-.48-.675-.48-1.162 0-.492.16-.88.48-1.161.32-.282.752-.423 1.296-.423h1.633v-.528c0-.326-.099-.576-.298-.749-.192-.18-.467-.269-.826-.269-.313 0-.576.067-.787.202a.718.718 0 00-.365.528h-.864c.057-.455.272-.816.643-1.085s.836-.404 1.392-.404c.609 0 1.089.157 1.441.471.352.314.528.74.528 1.277v3.63h-.845v-1.009h-.144l.144-.144c0 .385-.15.689-.451.913-.295.224-.689.336-1.181.336zm.211-.682c.41 0 .746-.102 1.008-.307a.955.955 0 00.394-.788v-.749h-1.613c-.288 0-.516.08-.682.24-.167.16-.25.378-.25.653 0 .295.099.529.298.701.205.167.486.25.845.25zM14.903 74.011V68.73h.864v2.198h2.227V68.73h.865v5.28h-.865v-2.294h-2.227v2.295h-.864zm7.204.096c-.557 0-.996-.141-1.316-.423-.32-.288-.48-.675-.48-1.162 0-.493.16-.88.48-1.162.32-.281.752-.422 1.296-.422h1.633v-.528c0-.326-.1-.576-.298-.749-.192-.18-.467-.269-.826-.269-.313 0-.576.067-.787.202a.718.718 0 00-.365.528h-.864c.058-.455.272-.816.643-1.085.372-.269.836-.404 1.393-.404.608 0 1.088.157 1.44.471.352.314.528.74.528 1.277v3.63h-.845v-1.008h-.144l.144-.144c0 .384-.15.688-.451.912-.295.224-.688.336-1.181.336zm.21-.682c.41 0 .747-.102 1.01-.307a.956.956 0 00.393-.788v-.749h-1.613c-.288 0-.516.08-.682.24-.166.16-.25.378-.25.653 0 .295.1.528.298.701.205.167.486.25.845.25zm3.297.653v-.807h.173c.294 0 .5-.115.614-.345.122-.23.186-.644.192-1.239l.058-2.957h3.582v5.28h-.865v-4.493h-1.862l-.048 2.208c-.013.557-.077 1.009-.192 1.354-.11.346-.282.599-.519.759-.23.16-.535.24-.912.24h-.221zm6.35-.067V68.73h.825v2.88c0 .186-.006.381-.019.586-.006.205-.02.4-.038.586a6.83 6.83 0 01-.048.46l2.131-4.513h1.105v5.282h-.826v-2.88c0-.187.003-.382.01-.587.012-.204.028-.4.047-.585l.048-.47-2.131 4.522h-1.105zm8.72 0v-1.92c-.102.025-.259.05-.47.076a7.01 7.01 0 01-.653.029c-.653.006-1.162-.15-1.526-.47-.359-.327-.538-.782-.538-1.364V68.73h.864v1.632c0 .326.109.586.326.778.224.185.532.278.922.278.27 0 .496-.01.682-.029a3.52 3.52 0 00.394-.067V68.73h.864v5.282h-.864zm2.653 0V68.73h.826v2.88c0 .186-.006.381-.02.586-.005.205-.018.4-.038.586a5.78 5.78 0 01-.047.46l2.131-4.513h1.104v5.282h-.825v-2.88c0-.187.003-.382.01-.587.012-.204.028-.4.047-.585l.048-.47-2.131 4.522h-1.105zm7.665.096c-.416 0-.78-.084-1.094-.25a1.807 1.807 0 01-.72-.7 2.203 2.203 0 01-.25-1.067v-1.44c0-.41.083-.765.25-1.066.172-.3.412-.534.72-.7a2.3 2.3 0 011.094-.25c.416 0 .778.083 1.085.25.314.166.554.4.72.7.173.301.26.656.26 1.066v.931h-3.284v.51c0 .415.105.736.317.96.211.217.512.326.902.326.333 0 .602-.058.807-.173.205-.121.33-.3.374-.538h.865a1.471 1.471 0 01-.653 1.057c-.372.256-.836.384-1.393.384zm1.22-3.102v-.355c0-.416-.106-.736-.317-.96-.205-.224-.506-.336-.903-.336-.39 0-.691.112-.902.336-.212.224-.317.544-.317.96v.278h2.506l-.067.077zm10.154 3.083c-.422 0-.787-.08-1.094-.24a1.743 1.743 0 01-.72-.692c-.167-.307-.25-.669-.25-1.085V70.67c0-.422.083-.784.25-1.085.172-.3.412-.531.72-.691.307-.16.672-.24 1.094-.24.423 0 .788.08 1.095.24.307.16.544.39.71.691.173.301.26.66.26 1.076v1.411c0 .416-.087.778-.26 1.085a1.678 1.678 0 01-.71.691c-.307.16-.672.24-1.095.24zm0-.769c.378 0 .672-.105.884-.317.21-.21.317-.521.317-.93v-1.403c0-.41-.106-.72-.317-.931-.212-.212-.506-.317-.884-.317-.371 0-.665.105-.883.317-.211.211-.317.522-.317.931v1.402c0 .41.106.72.317.931.218.212.512.317.883.317zm3.44.692l-.019-5.281h.807v4.628h1.123v-4.629h.691v4.629h1.114v-4.629h.797v5.282h-4.513zm5.956 0V68.73h.826v2.88c0 .186-.007.381-.02.586-.006.205-.019.4-.038.586a6.233 6.233 0 01-.048.46l2.132-4.513h1.104v5.282h-.826v-2.88c0-.187.004-.382.01-.587.013-.204.029-.4.048-.585l.048-.47-2.132 4.522h-1.104zm7.665.096c-.62 0-1.114-.183-1.479-.548-.358-.37-.537-.877-.537-1.517v-2.4c0-.845.21-1.495.633-1.95.423-.46 1.028-.69 1.815-.69h1.344v.863H79.87c-.518 0-.912.154-1.18.461-.27.301-.404.74-.404 1.316v.624h.134l-.134.192c.006-.378.134-.672.384-.883.25-.212.589-.317 1.018-.317.557 0 .989.179 1.296.537.314.359.47.852.47 1.48v.767c0 .43-.08.797-.24 1.105-.16.307-.39.544-.69.71-.302.166-.663.25-1.086.25zm0-.768c.371 0 .656-.112.855-.337.198-.224.297-.544.297-.96v-.768c0-.416-.099-.736-.297-.96-.199-.224-.484-.336-.855-.336s-.656.112-.855.336c-.198.218-.297.538-.297.96v.768c0 .416.099.736.297.96.199.225.484.337.855.337zm5.687.749c-.422 0-.787-.08-1.095-.24a1.742 1.742 0 01-.72-.692c-.166-.307-.25-.669-.25-1.085V70.67c0-.422.084-.784.25-1.085.173-.3.413-.531.72-.691.308-.16.672-.24 1.095-.24.422 0 .787.08 1.095.24.307.16.544.39.71.691.173.301.26.66.26 1.076v1.411c0 .416-.087.778-.26 1.085a1.678 1.678 0 01-.71.691c-.308.16-.672.24-1.095.24zm0-.769c.378 0 .672-.105.883-.317.212-.21.317-.521.317-.93v-1.403c0-.41-.105-.72-.317-.931-.21-.212-.505-.317-.883-.317-.371 0-.666.105-.883.317-.212.211-.317.522-.317.931v1.402c0 .41.105.72.317.931.217.212.512.317.883.317zm3.738.692V68.73h.864v2.18h.903l1.536-2.18h.989l-1.776 2.515 1.805 2.766h-1.009l-1.536-2.353h-.912v2.353h-.864zm11.345 0V68.73h.826v2.88c0 .186-.007.381-.02.586-.006.205-.019.4-.038.586a6.233 6.233 0 01-.048.46l2.132-4.513h1.104v5.282h-.826v-2.88c0-.187.003-.382.01-.587.013-.204.029-.4.048-.585l.048-.47-2.132 4.522h-1.104zm13.371.096a2.46 2.46 0 01-1.114-.24 1.729 1.729 0 01-.73-.692c-.172-.307-.259-.669-.259-1.085v-1.44c0-.422.087-.784.259-1.085.173-.3.416-.531.73-.691.32-.16.691-.24 1.114-.24.608 0 1.098.163 1.469.49.371.326.567.77.586 1.334h-.864c-.02-.34-.135-.599-.346-.778-.205-.186-.487-.278-.845-.278-.378 0-.679.108-.903.326-.224.211-.336.516-.336.912v1.45c0 .397.112.704.336.922.224.218.525.327.903.327.358 0 .64-.093.845-.279.211-.186.326-.445.346-.778h.864c-.019.564-.215 1.009-.586 1.335-.371.326-.861.49-1.469.49zm5.668 0c-.621 0-1.114-.183-1.479-.548-.359-.37-.538-.877-.538-1.517v-2.4c0-.845.211-1.495.634-1.95.422-.46 1.027-.69 1.815-.69h1.344v.863h-1.344c-.519 0-.912.154-1.181.461-.269.301-.404.74-.404 1.316v.624h.135l-.135.192c.007-.378.135-.672.385-.883.249-.212.588-.317 1.017-.317.557 0 .989.179 1.297.537.313.359.47.852.47 1.48v.767c0 .43-.08.797-.24 1.105a1.68 1.68 0 01-.691.71c-.301.166-.663.25-1.085.25zm0-.768c.371 0 .656-.112.854-.337.199-.224.298-.544.298-.96v-.768c0-.416-.099-.736-.298-.96-.198-.224-.483-.336-.854-.336-.372 0-.656.112-.855.336-.198.218-.298.538-.298.96v.768c0 .416.1.736.298.96.199.225.483.337.855.337zm5.687.749c-.423 0-.788-.08-1.095-.24a1.745 1.745 0 01-.72-.692c-.167-.307-.25-.669-.25-1.085V70.67c0-.422.083-.784.25-1.085.173-.3.413-.531.72-.691.307-.16.672-.24 1.095-.24.422 0 .787.08 1.094.24.308.16.544.39.711.691.173.301.259.66.259 1.076v1.411c0 .416-.086.778-.259 1.085a1.68 1.68 0 01-.711.691c-.307.16-.672.24-1.094.24zm0-.769c.377 0 .672-.105.883-.317.211-.21.317-.521.317-.93v-1.403c0-.41-.106-.72-.317-.931-.211-.212-.506-.317-.883-.317-.372 0-.666.105-.884.317-.211.211-.317.522-.317.931v1.402c0 .41.106.72.317.931.218.212.512.317.884.317zm5.687.788c-.417 0-.781-.084-1.095-.25a1.809 1.809 0 01-.72-.7 2.196 2.196 0 01-.25-1.067v-1.44c0-.41.083-.765.25-1.066.173-.3.413-.534.72-.7a2.3 2.3 0 011.095-.25c.416 0 .777.083 1.085.25.313.166.553.4.72.7.173.301.259.656.259 1.066v.931H129.4v.51c0 .415.106.736.317.96.211.217.512.326.903.326.332 0 .601-.058.806-.173a.76.76 0 00.375-.538h.864a1.472 1.472 0 01-.653 1.057c-.371.256-.835.384-1.392.384zm1.219-3.102v-.355c0-.416-.106-.736-.317-.96-.205-.224-.506-.336-.902-.336-.391 0-.692.112-.903.336-.211.224-.317.544-.317.96v.278h2.506l-.067.077zm2.489 3.006V68.73h2.286c.55 0 .976.124 1.277.374.301.243.451.586.451 1.028 0 .364-.125.659-.374.883-.25.218-.58.326-.989.326v-.076c.448 0 .806.111 1.075.336.275.224.413.525.413.902 0 .474-.16.845-.48 1.114-.32.262-.768.394-1.344.394h-2.315zm.845-.759h1.47c.307 0 .544-.067.71-.201.173-.135.259-.324.259-.567 0-.25-.086-.442-.259-.576-.166-.135-.403-.202-.71-.202h-1.47v1.546zm0-2.295h1.441c.269 0 .48-.064.634-.192.16-.128.24-.307.24-.537 0-.231-.077-.41-.231-.538-.153-.135-.368-.202-.643-.202h-1.441v1.47zm6.82 3.15c-.243 0-.438-.07-.585-.212-.141-.14-.211-.33-.211-.566 0-.25.07-.448.211-.595.147-.148.342-.221.585-.221.244 0 .436.073.577.22.147.148.22.346.22.596 0 .237-.073.426-.22.567-.141.14-.333.21-.577.21z" fill="#fff"/><defs><filter id="filter0_d_441_839" x=".159" y="0" width="179.682" height="142.682" filterUnits="userSpaceOnUse" color-interpolation-filters="sRGB"><feFlood flood-opacity="0" result="BackgroundImageFix"/><feColorMatrix in="SourceAlpha" values="0 0 0 0 0 0 0 0 0 0 0 0 0 0 0 0 0 0 127 0" result="hardAlpha"/><feOffset dy="3.841"/><feGaussianBlur stdDeviation="1.92"/><feComposite in2="hardAlpha" operator="out"/><feColorMatrix values="0 0 0 0 0 0 0 0 0 0 0 0 0 0 0 0 0 0 0.25 0"/><feBlend in2="BackgroundImageFix" result="effect1_dropShadow_441_839"/><feBlend in="SourceGraphic" in2="effect1_dropShadow_441_839" result="shape"/></filter></defs></svg>