<svg width="180" height="145" fill="none" xmlns="http://www.w3.org/2000/svg"><g filter="url(#filter0_d_441_857)"><rect x="4" width="172" height="137" rx="16.011" fill="#656565"/></g><path d="M16.882 46.096c-.423 0-.788-.08-1.095-.24a1.697 1.697 0 01-.701-.692c-.16-.307-.24-.67-.24-1.085v-3.17c0-.423.08-.785.24-1.086.166-.301.4-.532.7-.692.308-.16.673-.24 1.096-.24.423 0 .785.08 1.086.24.307.16.54.39.7.692.167.3.25.66.25 1.076v3.18c0 .416-.083.778-.25 1.085-.16.301-.393.532-.7.692-.301.16-.663.24-1.086.24zm0-.778c.378 0 .666-.106.865-.317.205-.218.307-.525.307-.922v-3.17c0-.398-.102-.702-.307-.913-.199-.218-.487-.327-.865-.327-.371 0-.66.109-.865.327-.204.211-.307.515-.307.912v3.17c0 .398.102.705.307.923.205.211.494.317.865.317zm5.257.682v-4.525h-1.921v-.759h4.707v.76h-1.921V46h-.865zm6.142.096a2.46 2.46 0 01-1.115-.24 1.73 1.73 0 01-.73-.692c-.173-.307-.26-.67-.26-1.085v-1.441c0-.423.087-.785.26-1.086a1.73 1.73 0 01.73-.692c.32-.16.692-.24 1.114-.24.609 0 1.099.163 1.47.49.372.327.567.772.586 1.336h-.864c-.02-.34-.135-.6-.346-.779-.205-.185-.487-.278-.846-.278-.377 0-.678.109-.902.326-.225.212-.337.516-.337.913v1.45c0 .398.112.705.337.923.224.218.525.327.902.327.36 0 .641-.093.846-.28.211-.185.327-.444.346-.777h.864c-.019.563-.214 1.008-.586 1.335-.371.327-.861.49-1.47.49zm3.028-.029v-.807h.173c.295 0 .5-.115.615-.346.122-.23.186-.643.192-1.239l.058-2.959h3.583V46h-.865v-4.496h-1.863l-.048 2.21c-.013.557-.077 1.008-.193 1.354-.108.346-.281.599-.518.76-.23.16-.535.24-.913.24h-.22zm8.332.03a2.31 2.31 0 01-1.096-.25 1.807 1.807 0 01-.72-.702 2.204 2.204 0 01-.25-1.066v-1.441c0-.41.083-.766.25-1.067.173-.3.413-.535.72-.701.314-.166.68-.25 1.096-.25.416 0 .778.084 1.085.25.314.166.554.4.72.701.174.301.26.657.26 1.067v.931h-3.285v.51c0 .416.105.736.317.96.211.218.512.327.903.327.333 0 .602-.058.807-.173a.763.763 0 00.374-.538h.865a1.472 1.472 0 01-.653 1.057c-.372.256-.836.384-1.393.384zm1.22-3.104v-.355c0-.417-.106-.737-.317-.961-.205-.224-.506-.336-.903-.336-.391 0-.692.112-.903.336-.212.224-.317.544-.317.96v.28h2.507l-.067.076zM42.62 46l1.153-2.71-1.076-2.574h.836l.922 2.306h.51v-2.306h.73v2.306h.49l.95-2.306h.826l-1.075 2.546L48.039 46h-.864l-.96-2.402h-.52V46h-.73v-2.402h-.519L43.477 46h-.855zm6.42 0v-5.284h.826v2.882c0 .186-.006.381-.02.586-.005.205-.018.4-.038.586a6.1 6.1 0 01-.047.461l2.132-4.515H53V46h-.826v-2.882c0-.186.003-.381.01-.586.012-.205.028-.4.047-.586l.048-.47L50.146 46H49.04zm5.69 0v-5.284h2.286c.55 0 .977.125 1.278.375.3.243.451.586.451 1.028 0 .365-.125.66-.374.884-.25.217-.58.326-.99.326v-.077c.448 0 .807.113 1.076.337.275.224.413.525.413.903 0 .474-.16.845-.48 1.114-.32.263-.769.394-1.345.394H54.73zm.845-.759h1.47c.307 0 .544-.067.71-.202.174-.134.26-.323.26-.567 0-.25-.086-.441-.26-.576-.166-.134-.403-.202-.71-.202h-1.47v1.547zm0-2.296h1.441c.269 0 .48-.064.634-.192.16-.128.24-.307.24-.538 0-.23-.077-.41-.23-.538-.154-.135-.369-.202-.644-.202h-1.441v1.47zm6.362 3.151c-.557 0-.996-.14-1.316-.423-.32-.288-.48-.675-.48-1.162 0-.493.16-.88.48-1.163.32-.281.752-.422 1.297-.422h1.633v-.529c0-.326-.1-.576-.298-.749-.192-.18-.467-.269-.826-.269-.314 0-.576.067-.788.202a.718.718 0 00-.365.528h-.864c.057-.454.272-.816.643-1.085.372-.27.836-.404 1.393-.404.609 0 1.09.157 1.441.471.353.314.529.74.529 1.278V46h-.846v-1.009h-.144l.144-.144c0 .384-.15.689-.451.913-.295.224-.689.336-1.182.336zm.212-.682c.41 0 .746-.102 1.008-.307a.957.957 0 00.394-.788v-.75h-1.614c-.288 0-.515.08-.682.24-.166.16-.25.379-.25.654 0 .294.1.528.298.701.205.167.487.25.846.25zm3.297.653v-.807h.173c.295 0 .5-.115.615-.346.121-.23.186-.643.192-1.239l.058-2.959h3.583V46h-.865v-4.496H67.34l-.048 2.21c-.013.557-.077 1.008-.193 1.354-.109.346-.281.599-.518.76-.23.16-.535.24-.913.24h-.22zM71.8 46v-5.284h.826v2.882c0 .186-.007.381-.02.586-.006.205-.019.4-.038.586a6.1 6.1 0 01-.048.461l2.133-4.515h1.105V46h-.827v-2.882c0-.186.004-.381.01-.586.013-.205.029-.4.048-.586l.048-.47L72.904 46H71.8zm11.379 0v-5.284h3.958V46h-.865v-4.496h-2.229V46h-.864zm7.668.077c-.422 0-.787-.08-1.095-.24a1.744 1.744 0 01-.72-.692c-.167-.307-.25-.67-.25-1.086v-1.402c0-.423.083-.785.25-1.086.173-.3.413-.531.72-.691.308-.16.673-.24 1.096-.24.422 0 .787.08 1.095.24.307.16.544.39.71.691.173.301.26.66.26 1.076v1.412c0 .417-.087.779-.26 1.086a1.683 1.683 0 01-.71.692c-.308.16-.673.24-1.096.24zm0-.769c.378 0 .673-.105.884-.317.212-.211.317-.522.317-.932v-1.402c0-.41-.105-.72-.317-.932-.211-.211-.506-.317-.883-.317-.372 0-.666.106-.884.317-.212.211-.317.522-.317.932v1.402c0 .41.105.72.317.932.218.212.512.317.883.317zm3.74.692v-5.284h.865v2.181h.903l1.537-2.18h.99l-1.778 2.516L98.91 46h-1.009l-1.537-2.354h-.912V46h-.865zm7.179.096c-.557 0-.996-.14-1.316-.423-.321-.288-.48-.675-.48-1.162 0-.493.159-.88.48-1.163.32-.281.752-.422 1.297-.422h1.633v-.529c0-.326-.1-.576-.298-.749-.192-.18-.468-.269-.826-.269-.314 0-.577.067-.788.202a.718.718 0 00-.365.528h-.865c.058-.454.272-.816.644-1.085.371-.27.836-.404 1.393-.404.608 0 1.089.157 1.441.471.352.314.528.74.528 1.278V46h-.845v-1.009h-.144l.144-.144c0 .384-.151.689-.452.913-.294.224-.688.336-1.181.336zm.211-.682c.41 0 .746-.102 1.009-.307a.958.958 0 00.394-.788v-.75h-1.614c-.288 0-.516.08-.682.24-.167.16-.25.379-.25.654 0 .294.099.528.298.701.205.167.486.25.845.25zm5.69.653c-.557 0-1.015-.118-1.374-.355a1.411 1.411 0 01-.634-.96h.913c.044.16.163.29.355.393.199.102.445.154.74.154h.451c.314 0 .557-.074.73-.221a.709.709 0 00.269-.577c0-.256-.086-.458-.259-.605-.167-.147-.413-.22-.74-.22h-1.162v-.75h1.133c.295 0 .519-.07.673-.212a.719.719 0 00.23-.557.731.731 0 00-.105-.403.613.613 0 00-.298-.25 1.245 1.245 0 00-.49-.086h-.48c-.256 0-.477.057-.663.172-.186.116-.298.257-.336.423h-.913c.064-.397.272-.724.624-.98.353-.256.782-.384 1.288-.384h.48c.378 0 .701.06.97.183a1.326 1.326 0 01.836 1.277c0 .314-.102.573-.307.778-.205.199-.493.311-.865.337v.038c.455.032.785.154.99.365.205.212.307.516.307.913 0 .467-.173.839-.519 1.114-.346.276-.81.413-1.393.413h-.451zm5.478.03c-.557 0-.996-.142-1.316-.424-.32-.288-.48-.675-.48-1.162 0-.493.16-.88.48-1.163.32-.281.752-.422 1.297-.422h1.633v-.529c0-.326-.099-.576-.298-.749-.192-.18-.467-.269-.826-.269-.314 0-.576.067-.788.202a.718.718 0 00-.365.528h-.864c.057-.454.272-.816.643-1.085.372-.27.836-.404 1.393-.404.609 0 1.089.157 1.441.471.352.314.529.74.529 1.278V46h-.846v-1.009h-.144l.144-.144c0 .384-.15.689-.451.913-.295.224-.689.336-1.182.336zm.211-.683c.41 0 .746-.102 1.009-.307a.956.956 0 00.394-.788v-.75h-1.614c-.288 0-.516.08-.682.24-.167.16-.25.379-.25.654 0 .294.099.528.298.701.205.167.487.25.845.25zm5.508.586v-4.525h-1.922v-.759h4.707v.76h-1.921V46h-.864zm6.121.096c-.416 0-.781-.083-1.095-.25a1.81 1.81 0 01-.72-.701 2.199 2.199 0 01-.25-1.066v-1.441c0-.41.083-.766.25-1.067a1.81 1.81 0 01.72-.701 2.31 2.31 0 011.095-.25c.417 0 .779.084 1.086.25.314.166.554.4.721.701.172.301.259.657.259 1.067v.931h-3.286v.51c0 .416.106.736.317.96.212.218.513.327.903.327.333 0 .602-.058.807-.173a.764.764 0 00.375-.538h.865a1.473 1.473 0 01-.654 1.057c-.371.256-.835.384-1.393.384zm1.221-3.103v-.355c0-.417-.106-.737-.318-.961-.204-.224-.505-.336-.903-.336-.39 0-.691.112-.903.336-.211.224-.317.544-.317.96v.28h2.508l-.067.076zm1.827 3.074v-.807h.173c.295 0 .5-.115.615-.346.122-.23.186-.643.192-1.239l.058-2.959h3.583V46h-.865v-4.496h-1.863l-.048 2.21c-.013.557-.077 1.008-.192 1.354-.109.346-.282.599-.519.76-.231.16-.535.24-.913.24h-.221zm6.353-.067v-5.284h.826v2.882c0 .186-.006.381-.019.586-.007.205-.019.4-.039.586-.012.18-.028.333-.048.461l2.133-4.515h1.105V46h-.826v-2.882c0-.186.003-.381.009-.586.013-.205.029-.4.048-.586l.048-.47L135.491 46h-1.105zM14.903 65v-5.284h.826v2.882c0 .186-.006.381-.019.586-.006.205-.02.4-.038.586a6.21 6.21 0 01-.049.461l2.133-4.515h1.105V65h-.826v-2.882c0-.186.003-.381.01-.586.012-.205.028-.4.047-.586l.049-.47L16.008 65h-1.105zm7.688.096a2.46 2.46 0 01-1.114-.24 1.73 1.73 0 01-.73-.692c-.174-.307-.26-.67-.26-1.085v-1.441c0-.423.087-.785.26-1.086a1.73 1.73 0 01.73-.692c.32-.16.691-.24 1.114-.24.608 0 1.098.163 1.47.49.371.327.567.772.586 1.336h-.865c-.02-.34-.134-.6-.346-.779-.205-.185-.486-.278-.845-.278-.378 0-.679.109-.903.326-.224.212-.336.516-.336.913v1.45c0 .398.112.705.336.923.224.218.525.326.903.326.358 0 .64-.092.845-.278.212-.186.327-.445.346-.778h.865c-.02.563-.215 1.008-.586 1.335-.372.327-.862.49-1.47.49zM26.282 65v-5.284h3.958V65h-.864v-4.496h-2.229V65h-.865zm7.669.077c-.423 0-.788-.08-1.095-.24a1.744 1.744 0 01-.72-.692c-.167-.307-.25-.67-.25-1.086v-1.402c0-.423.083-.785.25-1.086.172-.3.412-.531.72-.691.307-.16.672-.24 1.095-.24.423 0 .788.08 1.095.24.308.16.544.39.711.691.173.301.26.66.26 1.076v1.412c0 .417-.087.779-.26 1.086a1.684 1.684 0 01-.71.692c-.308.16-.673.24-1.096.24zm0-.769c.378 0 .672-.105.884-.317.211-.211.317-.522.317-.932v-1.402c0-.41-.106-.72-.317-.932-.212-.211-.506-.317-.884-.317-.371 0-.666.106-.884.317-.211.211-.317.522-.317.932v1.402c0 .41.106.72.317.932.218.212.513.317.884.317zm3.048.76v-.808h.173c.294 0 .5-.115.614-.346.122-.23.186-.643.193-1.239l.057-2.959h3.584V65h-.865v-4.496h-1.864l-.048 2.21c-.013.557-.077 1.008-.192 1.354-.109.346-.282.599-.519.76-.23.16-.534.24-.912.24h-.221zm6.39-.068v-5.284h.865v1.94h1.557c.595 0 1.063.151 1.402.452.346.295.519.702.519 1.22 0 .513-.173.92-.519 1.22-.346.302-.813.452-1.402.452H43.39zm.865-.788h1.557c.333 0 .586-.073.759-.22.179-.154.269-.375.269-.664 0-.288-.09-.506-.27-.653-.172-.153-.425-.23-.758-.23h-1.557v1.767zm6.516.855c-.557 0-1.015-.118-1.374-.355a1.412 1.412 0 01-.634-.96h.913c.045.16.163.29.356.393.198.103.445.154.74.154h.45c.315 0 .558-.074.73-.221a.71.71 0 00.27-.577c0-.256-.087-.458-.26-.605-.166-.147-.413-.22-.74-.22H50.06v-.75h1.134c.294 0 .519-.07.672-.212a.72.72 0 00.23-.557.727.727 0 00-.105-.403.61.61 0 00-.298-.25 1.243 1.243 0 00-.49-.086h-.48c-.256 0-.477.057-.663.172-.185.116-.297.257-.336.423h-.913c.064-.397.273-.724.625-.98s.781-.384 1.287-.384h.48c.378 0 .702.06.97.183a1.324 1.324 0 01.836 1.277c0 .314-.102.573-.307.778-.205.199-.493.311-.864.337v.038c.454.032.784.154.989.365.205.212.307.516.307.913 0 .467-.172.839-.518 1.114-.346.276-.81.413-1.393.413h-.452zm5.94.01c-.423 0-.788-.08-1.096-.24a1.744 1.744 0 01-.72-.692c-.167-.307-.25-.67-.25-1.086v-1.402c0-.423.083-.785.25-1.086.173-.3.413-.531.72-.691.308-.16.673-.24 1.096-.24.422 0 .787.08 1.095.24.307.16.544.39.71.691.174.301.26.66.26 1.076v1.412c0 .417-.086.779-.26 1.086a1.683 1.683 0 01-.71.692c-.308.16-.673.24-1.095.24zm0-.769c.377 0 .672-.105.883-.317.212-.211.317-.522.317-.932v-1.402c0-.41-.105-.72-.317-.932-.21-.211-.506-.317-.883-.317-.372 0-.666.106-.884.317-.212.211-.317.522-.317.932v1.402c0 .41.105.72.317.932.218.212.512.317.884.317zm3.71.692v-5.284h2.287c.55 0 .976.125 1.277.375.301.243.452.586.452 1.028 0 .365-.125.66-.375.884-.25.217-.58.326-.99.326v-.077c.449 0 .808.113 1.077.337.275.224.413.525.413.903 0 .474-.16.845-.48 1.114-.32.263-.77.394-1.346.394H60.42zm.846-.759h1.47c.307 0 .544-.067.71-.202.173-.134.26-.323.26-.567 0-.25-.087-.441-.26-.576-.166-.134-.403-.202-.71-.202h-1.47v1.547zm0-2.296h1.44c.27 0 .481-.064.635-.192.16-.128.24-.307.24-.538 0-.23-.077-.41-.23-.538-.154-.135-.369-.202-.644-.202h-1.441v1.47zm6.362 3.151c-.557 0-.996-.14-1.316-.423-.32-.288-.48-.675-.48-1.162 0-.493.16-.88.48-1.163.32-.281.752-.422 1.297-.422h1.633v-.529c0-.326-.1-.576-.298-.749-.192-.18-.468-.269-.826-.269-.314 0-.577.067-.788.202a.718.718 0 00-.365.528H66.1c.058-.454.273-.816.644-1.085.371-.27.836-.404 1.393-.404.608 0 1.089.157 1.441.471.352.314.528.74.528 1.278V65h-.845v-1.009h-.144l.144-.144c0 .384-.15.689-.452.913-.294.224-.688.336-1.181.336zm.211-.682c.41 0 .746-.103 1.009-.307a.957.957 0 00.394-.788v-.75h-1.614c-.288 0-.516.08-.682.24-.167.16-.25.379-.25.654 0 .294.1.528.298.701.205.167.487.25.845.25zM71.8 65v-5.284h.865v2.2h2.229v-2.2h.865V65h-.865v-2.296h-2.229V65H71.8zm5.69 0v-5.284h.826v2.882c0 .186-.006.381-.019.586-.006.205-.019.4-.038.586-.013.18-.029.333-.048.461l2.132-4.515h1.105V65h-.826v-2.882c0-.186.003-.381.01-.586.012-.205.028-.4.048-.586l.048-.47L78.594 65h-1.105zm5.363 0l1.355-2.037c-.404-.096-.717-.281-.942-.557-.217-.275-.326-.618-.326-1.028 0-.519.17-.925.509-1.22.346-.294.817-.442 1.412-.442h2.277V65h-.865v-1.97H85.11L83.86 65h-1.009zm2.008-2.738h1.412v-1.777H84.86c-.32 0-.573.08-.759.24-.186.154-.278.371-.278.653 0 .276.092.493.278.654.186.153.439.23.76.23zM94.558 65v-5.284h.826v2.882c0 .186-.006.381-.019.586-.006.205-.019.4-.038.586a6.1 6.1 0 01-.048.461l2.132-4.515h1.105V65h-.826v-2.882c0-.186.003-.381.01-.586.012-.205.028-.4.048-.586l.048-.47L95.663 65h-1.105zm13.378.096c-.423 0-.794-.08-1.115-.24a1.735 1.735 0 01-.73-.692c-.173-.307-.259-.67-.259-1.085v-1.441c0-.423.086-.785.259-1.086.173-.3.417-.532.73-.692.321-.16.692-.24 1.115-.24.608 0 1.098.163 1.47.49.371.327.566.772.586 1.336h-.865c-.019-.34-.135-.6-.346-.779-.205-.185-.487-.278-.845-.278-.378 0-.679.109-.903.326-.224.212-.337.516-.337.913v1.45c0 .398.113.705.337.923.224.218.525.326.903.326.358 0 .64-.092.845-.278.211-.186.327-.445.346-.778h.865c-.02.563-.215 1.008-.586 1.335-.372.327-.862.49-1.47.49zm5.67-.02c-.423 0-.788-.08-1.095-.24a1.748 1.748 0 01-.721-.691c-.166-.307-.249-.67-.249-1.086v-1.402c0-.423.083-.785.249-1.086.173-.3.414-.531.721-.691.307-.16.672-.24 1.095-.24.423 0 .788.08 1.095.24.308.16.545.39.711.691.173.301.26.66.26 1.076v1.412c0 .417-.087.779-.26 1.086a1.677 1.677 0 01-.711.692c-.307.16-.672.24-1.095.24zm0-.768c.378 0 .673-.105.884-.317.211-.211.317-.522.317-.932v-1.402c0-.41-.106-.72-.317-.932-.211-.211-.506-.317-.884-.317-.371 0-.666.106-.884.317-.211.211-.317.522-.317.932v1.402c0 .41.106.72.317.932.218.212.513.317.884.317zm5.69.788c-.621 0-1.115-.183-1.48-.547-.358-.372-.538-.878-.538-1.518v-2.402c0-.846.212-1.495.634-1.95.423-.461 1.028-.692 1.816-.692h1.345v.865h-1.345c-.519 0-.913.153-1.182.46-.269.302-.403.74-.403 1.317v.624h.134l-.134.193c.006-.378.134-.673.384-.884.25-.212.589-.317 1.019-.317.557 0 .989.179 1.296.538.314.358.471.851.471 1.48v.768c0 .429-.08.797-.24 1.104-.16.308-.391.545-.692.711-.301.167-.662.25-1.085.25zm0-.769c.371 0 .656-.112.855-.336.198-.224.298-.544.298-.96v-.769c0-.416-.1-.736-.298-.96-.199-.225-.484-.337-.855-.337-.372 0-.657.112-.855.336-.199.218-.298.538-.298.961v.769c0 .416.099.736.298.96.198.224.483.337.855.337zm3.71.673v-5.284h.827v2.882c0 .186-.007.381-.02.586a8.08 8.08 0 01-.038.586c-.013.18-.029.333-.048.461l2.133-4.515h1.104V65h-.826v-2.882c0-.186.003-.381.01-.586.013-.205.029-.4.048-.586l.048-.47L124.111 65h-1.105zm5.671 1.73v-7.014h.865v1.009h.172l-.172.202c0-.404.131-.72.393-.951.269-.237.622-.356 1.057-.356.532 0 .954.176 1.268.529.32.345.481.823.481 1.431v1.547c0 .403-.074.752-.221 1.047a1.57 1.57 0 01-.606.682c-.256.16-.563.24-.922.24-.429 0-.778-.118-1.047-.355-.269-.237-.403-.554-.403-.951l.172.201h-.192l.02 1.201v1.537h-.865zm2.027-2.383c.365 0 .65-.11.855-.327.211-.218.317-.531.317-.941v-1.441c0-.41-.106-.724-.317-.942-.205-.218-.49-.326-.855-.326-.352 0-.634.112-.845.336-.212.224-.317.535-.317.932v1.44c0 .398.105.708.317.932.211.225.493.337.845.337zm5.2.75c-.558 0-.996-.142-1.316-.424-.321-.288-.481-.675-.481-1.162 0-.493.16-.88.481-1.163.32-.281.752-.422 1.296-.422h1.634v-.529c0-.326-.1-.576-.298-.749-.192-.18-.468-.269-.826-.269-.314 0-.577.067-.788.202a.716.716 0 00-.365.528h-.865c.058-.454.272-.816.644-1.085.371-.27.836-.404 1.393-.404.608 0 1.089.157 1.441.471.352.314.528.74.528 1.278V65h-.845v-1.009h-.144l.144-.144c0 .384-.151.689-.452.913-.294.224-.688.336-1.181.336zm.211-.683c.41 0 .746-.103 1.009-.307a.958.958 0 00.394-.788v-.75h-1.614c-.289 0-.516.08-.682.24-.167.16-.25.379-.25.654 0 .294.099.528.298.701.205.167.486.25.845.25zm3.298.653v-.807h.172c.295 0 .5-.115.615-.346.122-.23.186-.643.192-1.239l.058-2.959h3.583V65h-.864v-4.496h-1.864l-.048 2.21c-.013.557-.077 1.008-.192 1.354-.109.346-.282.599-.519.76-.23.16-.535.24-.912.24h-.221zm6.352-.067v-5.284h.826v2.882c0 .186-.006.381-.019.586a8.08 8.08 0 01-.038.586c-.013.18-.029.333-.048.461l2.132-4.515h1.105V65h-.826v-2.882c0-.186.003-.381.009-.586.013-.205.029-.4.049-.586l.048-.47L146.87 65h-1.105zM16.882 84.077c-.423 0-.788-.08-1.095-.24a1.744 1.744 0 01-.72-.692c-.167-.307-.25-.67-.25-1.086v-1.402c0-.423.083-.785.25-1.086.172-.3.412-.531.72-.691.307-.16.672-.24 1.095-.24.423 0 .788.08 1.095.24.308.16.545.39.711.691.173.301.26.66.26 1.076v1.412c0 .417-.087.779-.26 1.086a1.683 1.683 0 01-.71.692c-.308.16-.673.24-1.096.24zm0-.769c.378 0 .672-.105.884-.317.211-.211.317-.522.317-.932v-1.402c0-.41-.106-.72-.317-.932-.211-.211-.506-.317-.884-.317-.371 0-.666.106-.884.317-.211.211-.317.522-.317.932v1.402c0 .41.106.72.317.932.218.212.513.317.884.317zm5.69.788c-.622 0-1.115-.183-1.48-.547-.358-.372-.538-.878-.538-1.518v-2.402c0-.846.212-1.496.634-1.95.423-.461 1.028-.692 1.816-.692h1.345v.865h-1.345c-.519 0-.913.153-1.182.46-.269.302-.403.74-.403 1.317v.624h.134l-.134.192c.006-.377.134-.672.384-.883.25-.212.59-.317 1.018-.317.558 0 .99.179 1.297.538.314.358.471.851.471 1.48v.768c0 .429-.08.797-.24 1.104-.16.308-.39.545-.692.711-.3.167-.663.25-1.085.25zm0-.769c.371 0 .656-.112.855-.336.198-.224.297-.544.297-.96v-.769c0-.416-.099-.736-.297-.96-.199-.225-.484-.337-.855-.337-.372 0-.657.112-.855.336-.199.218-.298.538-.298.961v.769c0 .416.1.736.298.96.198.224.483.337.855.337zm3.691 2.402v-7.013h.865v1.009h.173l-.173.202c0-.404.131-.72.394-.951.269-.237.62-.356 1.056-.356.532 0 .955.176 1.268.529.32.345.48.823.48 1.431v1.547c0 .403-.073.752-.22 1.047a1.57 1.57 0 01-.605.682c-.257.16-.564.24-.923.24-.429 0-.778-.118-1.047-.355-.269-.237-.403-.554-.403-.951l.173.201h-.192l.019 1.201v1.537h-.865zm2.027-2.382c.365 0 .65-.11.855-.327.212-.218.317-.531.317-.941v-1.441c0-.41-.105-.724-.317-.942-.205-.218-.49-.326-.855-.326-.352 0-.634.112-.845.336-.212.224-.317.535-.317.932v1.44c0 .398.105.708.317.932.211.225.493.337.845.337zm5.2.75c-.557 0-.996-.142-1.316-.424-.32-.288-.48-.675-.48-1.162 0-.493.16-.88.48-1.162.32-.282.752-.423 1.297-.423h1.633v-.529c0-.326-.1-.576-.298-.749-.192-.18-.467-.269-.826-.269-.314 0-.577.067-.788.202a.717.717 0 00-.365.528h-.865c.058-.454.273-.816.644-1.085.371-.27.836-.404 1.393-.404.608 0 1.089.157 1.441.471.352.314.528.74.528 1.278V84h-.845v-1.009h-.144l.144-.144c0 .385-.15.689-.451.913-.295.224-.689.336-1.182.336zm.211-.683c.41 0 .746-.103 1.009-.307a.957.957 0 00.394-.788v-.75H33.49c-.288 0-.516.08-.682.24-.167.16-.25.379-.25.654 0 .294.1.528.298.701.205.167.487.25.845.25zm5.507.586v-4.525h-1.921v-.759h4.707v.76h-1.921V84h-.865zm4.143 0v-5.284h.865v2.2h2.229v-2.2h.864V84h-.864v-2.296h-2.23V84h-.864zm6.497 1.73l.778-2.057-1.96-4.957h.961l1.23 3.267c.044.108.086.24.124.393l.097.375c.025-.102.057-.227.096-.375a4.44 4.44 0 01.115-.393l1.153-3.267h.932L50.77 85.73h-.922zm7.688-1.634c-.442 0-.798-.15-1.067-.451-.269-.301-.403-.695-.403-1.182v-.797h-.845V84h-.798v-5.284h.798v2.258h.845v-.72c0-.494.131-.888.394-1.182.269-.301.627-.452 1.076-.452.474 0 .855.15 1.143.452.288.294.432.688.432 1.181v2.21c0 .487-.144.88-.432 1.182-.288.3-.67.451-1.143.451zm0-.672c.243 0 .432-.084.567-.25.14-.173.21-.41.21-.711v-2.21c0-.3-.07-.534-.21-.7-.135-.174-.324-.26-.567-.26a.667.667 0 00-.557.26c-.135.166-.202.4-.202.7v2.21c0 .3.067.538.202.71.134.167.32.25.557.25zm10.572.672a2.46 2.46 0 01-1.114-.24 1.73 1.73 0 01-.73-.692c-.173-.307-.26-.67-.26-1.085v-1.441c0-.423.087-.785.26-1.086a1.73 1.73 0 01.73-.692c.32-.16.691-.24 1.114-.24.609 0 1.099.163 1.47.49.371.327.567.772.586 1.335h-.865c-.019-.339-.134-.598-.346-.778-.204-.185-.486-.278-.845-.278-.378 0-.679.109-.903.326-.224.212-.336.516-.336.913v1.45c0 .398.112.705.336.923.224.218.525.326.903.326.359 0 .64-.092.846-.278.21-.186.326-.445.345-.778h.865c-.02.563-.215 1.008-.586 1.335-.371.327-.861.49-1.47.49zM71.8 84v-5.284h2.286c.55 0 .977.125 1.278.375.3.243.451.586.451 1.028 0 .365-.125.66-.374.884-.25.217-.58.326-.99.326v-.076c.448 0 .807.112 1.076.336.275.224.413.525.413.903 0 .474-.16.845-.48 1.114-.32.263-.769.394-1.345.394H71.8zm.845-.759h1.47c.307 0 .544-.067.71-.202.174-.134.26-.323.26-.567 0-.25-.086-.441-.26-.576-.166-.134-.403-.202-.71-.202h-1.47v1.547zm0-2.296h1.441c.269 0 .48-.064.634-.192.16-.128.24-.308.24-.538 0-.23-.077-.41-.23-.538-.154-.135-.369-.202-.644-.202h-1.441v1.47zM77.163 84l1.354-2.037c-.403-.096-.717-.281-.941-.557-.218-.275-.327-.618-.327-1.028 0-.519.17-.925.51-1.22.345-.294.816-.442 1.411-.442h2.277V84h-.864v-1.97H79.42L78.171 84h-1.008zm2.007-2.738h1.413v-1.777H79.17c-.32 0-.573.08-.758.24-.186.154-.28.372-.28.653 0 .276.094.493.28.653.185.154.438.231.758.231zm5.738 2.805c-.557 0-1.015-.118-1.374-.355a1.412 1.412 0 01-.634-.96h.913c.045.16.163.29.355.393.199.103.445.154.74.154h.452c.313 0 .557-.074.73-.221a.71.71 0 00.269-.577c0-.256-.087-.458-.26-.605-.166-.147-.413-.22-.74-.22h-1.162v-.75h1.134c.294 0 .519-.07.672-.212a.72.72 0 00.23-.557.728.728 0 00-.105-.403.612.612 0 00-.298-.25 1.243 1.243 0 00-.49-.086h-.48c-.256 0-.477.057-.663.172-.186.116-.298.257-.336.423h-.913c.064-.397.273-.724.625-.98s.781-.384 1.287-.384h.48c.378 0 .702.06.97.183.27.115.475.281.615.5.148.217.222.476.222.777 0 .314-.103.574-.308.778-.205.199-.493.311-.864.337v.038c.454.032.784.154.989.365.205.212.307.516.307.913 0 .467-.173.839-.518 1.114-.346.276-.81.413-1.393.413h-.452zM88.907 84v-5.284h.865v1.94h1.556c.596 0 1.063.151 1.403.452.345.295.518.702.518 1.22 0 .513-.173.92-.518 1.22-.346.302-.814.452-1.403.452h-2.421zm.865-.788h1.556c.333 0 .586-.073.759-.22.18-.154.269-.375.269-.664 0-.288-.09-.505-.27-.653-.172-.153-.425-.23-.758-.23h-1.556v1.767zm6.765.884c-.243 0-.439-.07-.586-.211-.14-.141-.211-.33-.211-.567 0-.25.07-.448.211-.596.148-.147.343-.22.586-.22.244 0 .436.073.577.22.147.148.22.346.22.596 0 .237-.073.426-.22.567-.141.14-.333.211-.577.211z" fill="#fff"/><defs><filter id="filter0_d_441_857" x=".157" y="0" width="179.685" height="144.685" filterUnits="userSpaceOnUse" color-interpolation-filters="sRGB"><feFlood flood-opacity="0" result="BackgroundImageFix"/><feColorMatrix in="SourceAlpha" values="0 0 0 0 0 0 0 0 0 0 0 0 0 0 0 0 0 0 127 0" result="hardAlpha"/><feOffset dy="3.843"/><feGaussianBlur stdDeviation="1.921"/><feComposite in2="hardAlpha" operator="out"/><feColorMatrix values="0 0 0 0 0 0 0 0 0 0 0 0 0 0 0 0 0 0 0.25 0"/><feBlend in2="BackgroundImageFix" result="effect1_dropShadow_441_857"/><feBlend in="SourceGraphic" in2="effect1_dropShadow_441_857" result="shape"/></filter></defs></svg>