<svg width="180" height="145" fill="none" xmlns="http://www.w3.org/2000/svg"><g filter="url(#filter0_d_441_861)"><rect x="4" width="172" height="137" rx="16.011" fill="#656565"/></g><path d="M14.893 46v-7.013h1.989c.64 0 1.14.16 1.499.48.365.32.547.766.547 1.336 0 .32-.067.599-.201.836a1.36 1.36 0 01-.577.547c-.243.128-.538.19-.884.183v-.144c.372-.007.692.064.961.21.275.148.487.36.634.635.154.275.23.602.23.98 0 .397-.083.743-.25 1.037a1.699 1.699 0 01-.71.682c-.308.154-.676.231-1.105.231h-2.133zm.846-.778h1.191c.404 0 .72-.106.951-.317.237-.218.356-.513.356-.884 0-.384-.119-.695-.356-.932-.23-.243-.547-.365-.95-.365h-1.192v2.498zm0-3.247h1.133c.372 0 .663-.1.875-.298.217-.199.326-.468.326-.807 0-.34-.105-.608-.317-.807-.211-.199-.503-.298-.874-.298h-1.143v2.21zM20.593 46v-5.284h.864v2.2h2.23v-2.2h.864V46h-.865v-2.296h-2.229V46h-.864zm7.668.077c-.422 0-.787-.08-1.095-.24a1.743 1.743 0 01-.72-.692c-.167-.307-.25-.67-.25-1.086v-1.402c0-.423.083-.785.25-1.086.173-.3.413-.531.72-.691.308-.16.673-.24 1.095-.24.423 0 .788.08 1.096.24.307.16.544.39.71.691.173.301.26.66.26 1.076v1.412c0 .417-.087.779-.26 1.086a1.683 1.683 0 01-.71.692c-.308.16-.673.24-1.096.24zm0-.769c.378 0 .673-.105.884-.317.212-.211.317-.522.317-.932v-1.402c0-.41-.105-.72-.317-.932-.211-.211-.506-.317-.884-.317-.371 0-.666.106-.883.317-.212.211-.317.522-.317.932v1.402c0 .41.105.72.317.932.217.212.512.317.883.317zm5.71.788c-.423 0-.795-.08-1.115-.24a1.73 1.73 0 01-.73-.692c-.173-.307-.26-.67-.26-1.085v-1.441c0-.423.087-.785.26-1.086a1.73 1.73 0 01.73-.692c.32-.16.691-.24 1.114-.24.609 0 1.099.163 1.47.49.372.327.567.772.586 1.336h-.865c-.019-.34-.134-.6-.345-.779-.205-.185-.487-.278-.846-.278-.378 0-.679.109-.903.326-.224.212-.336.516-.336.913v1.45c0 .398.112.705.336.923.224.218.525.327.903.327.359 0 .64-.093.846-.28.21-.185.326-.444.345-.777h.865c-.02.563-.215 1.008-.586 1.335-.371.327-.861.49-1.47.49zM37.66 46v-5.284h.827v2.882c0 .186-.007.381-.02.586-.006.205-.019.4-.038.586a6.1 6.1 0 01-.048.461l2.133-4.515h1.105V46h-.826v-2.882c0-.186.003-.381.01-.586.012-.205.028-.4.047-.586l.048-.47L38.766 46h-1.104zm5.027.067v-.807h.173c.295 0 .5-.115.615-.346.122-.23.186-.643.192-1.239l.058-2.959h3.583V46h-.864v-4.496H44.58l-.048 2.21c-.013.557-.077 1.008-.192 1.354-.11.346-.282.599-.519.76-.23.16-.535.24-.913.24h-.22zM49.041 46v-5.284h.826v2.882c0 .186-.006.381-.02.586-.005.205-.018.4-.038.586a6.1 6.1 0 01-.047.461l2.132-4.515H53V46h-.826v-2.882c0-.186.003-.381.01-.586.012-.205.028-.4.047-.586l.048-.47L50.146 46H49.04zm12.186 1.73l.778-2.057-1.96-4.957h.961l1.23 3.267c.045.109.086.24.125.394l.096.374c.026-.102.057-.227.096-.374.038-.154.077-.285.115-.394l1.153-3.267h.932L62.15 47.73h-.923zm4.22-1.663v-.807h.173c.295 0 .5-.115.615-.346.121-.23.186-.643.192-1.239l.058-2.959h3.583V46h-.865v-4.496H67.34l-.048 2.21c-.013.557-.077 1.008-.193 1.354-.109.346-.281.599-.518.76-.23.16-.535.24-.913.24h-.22zm7.16 1.662l.778-2.056-1.96-4.957h.96l1.23 3.267c.045.109.087.24.125.394.039.147.07.272.096.374l.096-.374a4.4 4.4 0 01.116-.394l1.152-3.267h.932L73.53 47.73h-.922zM80.525 46v-1.921a4.8 4.8 0 01-.47.077 7.137 7.137 0 01-.654.028c-.653.007-1.162-.15-1.527-.47-.36-.327-.538-.782-.538-1.365v-1.633h.864v1.633c0 .327.109.586.327.779.224.185.531.278.922.278.269 0 .496-.01.682-.029a3.59 3.59 0 00.394-.067v-2.594h.865V46h-.865zm2.385 0l-.02-5.284h.808v4.63h1.124v-4.63h.691v4.63h1.115v-4.63h.797V46H82.91zm7.938.096c-.417 0-.782-.083-1.096-.25a1.807 1.807 0 01-.72-.701 2.203 2.203 0 01-.25-1.066v-1.441c0-.41.083-.766.25-1.067.173-.3.413-.535.72-.701.314-.166.68-.25 1.096-.25.416 0 .778.084 1.085.25.314.166.554.4.72.701.173.301.26.657.26 1.067v.931h-3.285v.51c0 .416.105.736.317.96.21.218.512.327.903.327.333 0 .602-.058.806-.173a.764.764 0 00.375-.538h.865a1.472 1.472 0 01-.654 1.057c-.37.256-.835.384-1.392.384zm1.22-3.103v-.355c0-.417-.106-.737-.317-.961-.205-.224-.506-.336-.904-.336-.39 0-.691.112-.902.336-.212.224-.317.544-.317.96v.28h2.507l-.067.076zM94.558 46v-5.284h.865v2.2h2.229v-2.2h.864V46h-.864v-2.296h-2.23V46h-.864zm5.69 0v-5.284h.826v2.882c0 .186-.006.381-.019.586-.007.205-.019.4-.039.586-.012.18-.028.333-.048.461l2.133-4.515h1.105V46h-.826v-2.882c0-.186.003-.381.009-.586.013-.205.029-.4.048-.586l.048-.47L101.353 46h-1.105zm5.363 0l1.354-2.037c-.403-.096-.717-.281-.941-.557-.218-.275-.327-.618-.327-1.028 0-.519.17-.925.509-1.22.346-.294.817-.442 1.413-.442h2.276V46h-.864v-1.97h-1.163L106.62 46h-1.009zm2.008-2.738h1.412v-1.777h-1.412c-.321 0-.574.08-.759.24-.186.154-.279.371-.279.653 0 .276.093.493.279.654.185.153.438.23.759.23zM117.317 46v-5.284h.864v2.2h2.229v-2.2h.865V46h-.865v-2.296h-2.229V46h-.864zm7.207.096c-.557 0-.996-.14-1.316-.423-.32-.288-.48-.675-.48-1.162 0-.493.16-.88.48-1.163.32-.281.753-.422 1.297-.422h1.633v-.529c0-.326-.099-.576-.298-.749-.192-.18-.467-.269-.826-.269-.314 0-.576.067-.787.202a.717.717 0 00-.366.528h-.864c.058-.454.272-.816.644-1.085.371-.27.835-.404 1.392-.404.609 0 1.089.157 1.442.471.352.314.528.74.528 1.278V46h-.846v-1.009h-.144l.144-.144c0 .384-.15.689-.451.913-.295.224-.689.336-1.182.336zm.212-.682c.41 0 .746-.102 1.008-.307a.956.956 0 00.394-.788v-.75h-1.614c-.288 0-.515.08-.682.24-.166.16-.25.379-.25.654 0 .294.1.528.298.701.205.167.487.25.846.25zm11.629.663c-.423 0-.788-.08-1.095-.24a1.742 1.742 0 01-.721-.692c-.166-.307-.25-.67-.25-1.086v-1.402c0-.423.084-.785.25-1.086.173-.3.413-.531.721-.691.307-.16.672-.24 1.095-.24.422 0 .788.08 1.095.24.307.16.544.39.711.691.173.301.259.66.259 1.076v1.412c0 .417-.086.779-.259 1.086a1.689 1.689 0 01-.711.692c-.307.16-.673.24-1.095.24zm0-.769c.378 0 .672-.105.884-.317.211-.211.317-.522.317-.932v-1.402c0-.41-.106-.72-.317-.932-.212-.211-.506-.317-.884-.317-.372 0-.666.106-.884.317-.211.211-.317.522-.317.932v1.402c0 .41.106.72.317.932.218.212.512.317.884.317zm5.709.788c-.423 0-.795-.08-1.115-.24a1.73 1.73 0 01-.73-.692c-.173-.307-.259-.67-.259-1.085v-1.441c0-.423.086-.785.259-1.086a1.73 1.73 0 01.73-.692c.32-.16.692-.24 1.115-.24.608 0 1.098.163 1.469.49.372.327.567.772.586 1.336h-.864c-.019-.34-.135-.6-.346-.779-.205-.185-.487-.278-.845-.278-.378 0-.679.109-.903.326-.225.212-.337.516-.337.913v1.45c0 .398.112.705.337.923.224.218.525.327.903.327.358 0 .64-.093.845-.28.211-.185.327-.444.346-.777h.864c-.019.563-.214 1.008-.586 1.335-.371.327-.861.49-1.469.49zm3.691-.096v-5.284h.865v2.2h2.228v-2.2h.865V46h-.865v-2.296h-2.228V46h-.865zm7.669.077c-.423 0-.788-.08-1.095-.24a1.742 1.742 0 01-.721-.692c-.166-.307-.25-.67-.25-1.086v-1.402c0-.423.084-.785.25-1.086.173-.3.413-.531.721-.691.307-.16.672-.24 1.095-.24.422 0 .787.08 1.095.24.307.16.544.39.711.691.173.301.259.66.259 1.076v1.412c0 .417-.086.779-.259 1.086a1.689 1.689 0 01-.711.692c-.308.16-.673.24-1.095.24zm0-.769c.378 0 .672-.105.884-.317.211-.211.317-.522.317-.932v-1.402c0-.41-.106-.72-.317-.932-.212-.211-.506-.317-.884-.317-.372 0-.666.106-.884.317-.211.211-.317.522-.317.932v1.402c0 .41.106.72.317.932.218.212.512.317.884.317zm3.71.692v-5.284h2.287c.551 0 .976.125 1.277.375.302.243.452.586.452 1.028 0 .365-.125.66-.375.884-.249.217-.579.326-.989.326v-.077c.448 0 .807.113 1.076.337.275.224.413.525.413.903 0 .474-.16.845-.48 1.114-.321.263-.769.394-1.345.394h-2.316zm.846-.759h1.47c.307 0 .544-.067.711-.202a.679.679 0 00.259-.567c0-.25-.087-.441-.259-.576-.167-.134-.404-.202-.711-.202h-1.47v1.547zm0-2.296h1.441c.269 0 .48-.064.634-.192.16-.128.24-.307.24-.538 0-.23-.077-.41-.231-.538-.153-.135-.368-.202-.643-.202h-1.441v1.47zm6.823 3.151c-.416 0-.781-.083-1.095-.25a1.806 1.806 0 01-.721-.701 2.21 2.21 0 01-.249-1.066v-1.441c0-.41.083-.766.249-1.067.173-.3.413-.535.721-.701a2.31 2.31 0 011.095-.25c.416 0 .778.084 1.086.25.313.166.554.4.72.701.173.301.26.657.26 1.067v.931h-3.286v.51c0 .416.106.736.317.96.211.218.512.327.903.327.333 0 .602-.058.807-.173a.764.764 0 00.375-.538h.864a1.469 1.469 0 01-.653 1.057c-.371.256-.836.384-1.393.384zm1.22-3.103v-.355c0-.417-.106-.737-.317-.961-.205-.224-.506-.336-.903-.336-.391 0-.692.112-.903.336-.211.224-.317.544-.317.96v.28h2.507l-.067.076zM16.882 65.077c-.423 0-.788-.08-1.095-.24a1.744 1.744 0 01-.72-.692c-.167-.307-.25-.67-.25-1.086v-1.402c0-.423.083-.785.25-1.086.172-.3.412-.531.72-.691.307-.16.672-.24 1.095-.24.423 0 .788.08 1.095.24.308.16.545.39.711.691.173.301.26.66.26 1.076v1.412c0 .417-.087.779-.26 1.086a1.683 1.683 0 01-.71.692c-.308.16-.673.24-1.096.24zm0-.769c.378 0 .672-.105.884-.317.211-.211.317-.522.317-.932v-1.402c0-.41-.106-.72-.317-.932-.211-.211-.506-.317-.884-.317-.371 0-.666.106-.884.317-.211.211-.317.522-.317.932v1.402c0 .41.106.72.317.932.218.212.513.317.884.317zm5.257.692v-4.525h-1.921v-.759h4.707v.76h-1.921V65h-.865zm5.873.067c-.558 0-1.016-.118-1.374-.355a1.412 1.412 0 01-.634-.96h.912c.045.16.164.29.356.393.198.103.445.154.74.154h.451c.314 0 .557-.074.73-.221a.71.71 0 00.27-.577c0-.256-.087-.458-.26-.605-.167-.147-.413-.22-.74-.22h-1.162v-.75h1.133c.295 0 .519-.07.673-.212a.72.72 0 00.23-.557.727.727 0 00-.105-.403.61.61 0 00-.298-.25 1.243 1.243 0 00-.49-.086h-.48a1.23 1.23 0 00-.663.172c-.186.116-.298.257-.337.423h-.912c.064-.397.272-.724.624-.98.353-.256.782-.384 1.288-.384h.48c.378 0 .701.06.97.183a1.321 1.321 0 01.835 1.277c0 .314-.101.573-.306.778-.205.199-.494.311-.865.337v.038c.455.032.785.154.99.365.204.212.307.516.307.913 0 .467-.173.839-.519 1.114-.346.276-.81.413-1.393.413h-.451zM31.693 65v-5.284h.807v1.94h.433c.57 0 1.018.151 1.345.452.333.295.5.702.5 1.22 0 .52-.167.93-.5 1.23-.327.295-.775.442-1.345.442h-1.24zm.807-.692h.433c.34 0 .602-.086.787-.26.193-.172.289-.412.289-.72 0-.307-.096-.547-.289-.72-.185-.173-.448-.26-.787-.26H32.5v1.96zm2.902.692v-5.284h.807V65h-.807zm2.26 0v-5.284h2.286c.55 0 .977.125 1.278.375.3.243.451.586.451 1.028 0 .365-.125.66-.374.884-.25.217-.58.326-.99.326v-.077c.448 0 .807.113 1.076.337.275.224.413.525.413.903 0 .474-.16.845-.48 1.114-.32.263-.769.394-1.345.394h-2.315zm.845-.759h1.47c.307 0 .544-.067.71-.202.174-.134.26-.323.26-.567 0-.25-.086-.441-.26-.576-.166-.134-.403-.202-.71-.202h-1.47v1.547zm0-2.296h1.441c.269 0 .48-.064.634-.192.16-.128.24-.307.24-.538 0-.23-.077-.41-.23-.538-.154-.135-.368-.202-.644-.202h-1.441v1.47zm6.823 3.132c-.422 0-.788-.08-1.095-.24a1.744 1.744 0 01-.72-.692c-.167-.307-.25-.67-.25-1.086v-1.402c0-.423.083-.785.25-1.086.172-.3.413-.531.72-.691.307-.16.673-.24 1.095-.24.423 0 .788.08 1.096.24.307.16.544.39.71.691.173.301.26.66.26 1.076v1.412c0 .417-.087.779-.26 1.086a1.684 1.684 0 01-.71.692c-.308.16-.673.24-1.096.24zm0-.769c.378 0 .673-.105.884-.317.212-.211.317-.522.317-.932v-1.402c0-.41-.105-.72-.317-.932-.211-.211-.506-.317-.884-.317-.371 0-.666.106-.883.317-.212.211-.318.522-.318.932v1.402c0 .41.106.72.318.932.217.212.512.317.883.317zm3.711.692v-5.284h2.286c.551 0 .977.125 1.278.375.301.243.452.586.452 1.028 0 .365-.125.66-.375.884-.25.217-.58.326-.99.326v-.077c.449 0 .807.113 1.076.337.276.224.413.525.413.903 0 .474-.16.845-.48 1.114-.32.263-.768.394-1.345.394h-2.315zm.845-.759h1.47c.308 0 .545-.067.711-.202.173-.134.26-.323.26-.567 0-.25-.087-.441-.26-.576-.166-.134-.403-.202-.71-.202h-1.47v1.547zm0-2.296h1.441c.27 0 .48-.064.634-.192.16-.128.24-.307.24-.538 0-.23-.076-.41-.23-.538-.154-.135-.368-.202-.644-.202h-1.44v1.47zM60.42 65v-5.284h3.958V65h-.864v-4.496h-2.23V65h-.864zm7.669.077c-.423 0-.788-.08-1.095-.24a1.744 1.744 0 01-.72-.692c-.167-.307-.25-.67-.25-1.086v-1.402c0-.423.083-.785.25-1.086.172-.3.412-.531.72-.691.307-.16.672-.24 1.095-.24.423 0 .788.08 1.095.24.308.16.544.39.711.691.173.301.26.66.26 1.076v1.412c0 .417-.087.779-.26 1.086a1.683 1.683 0 01-.71.692c-.308.16-.673.24-1.096.24zm0-.769c.378 0 .672-.105.884-.317.211-.211.317-.522.317-.932v-1.402c0-.41-.106-.72-.317-.932-.212-.211-.506-.317-.884-.317-.371 0-.666.106-.884.317-.211.211-.317.522-.317.932v1.402c0 .41.106.72.317.932.218.212.513.317.884.317zm3.048.76v-.808h.173c.294 0 .5-.115.614-.346.122-.23.186-.643.193-1.239l.057-2.959h3.584V65h-.865v-4.496h-1.864l-.048 2.21c-.013.557-.077 1.008-.192 1.354-.109.346-.282.599-.519.76-.23.16-.534.24-.912.24h-.221zm6.39-.068v-5.284h.865v1.94h1.557c.595 0 1.063.151 1.402.452.346.295.519.702.519 1.22 0 .513-.173.92-.519 1.22-.346.302-.813.452-1.402.452h-2.421zm.865-.788h1.557c.333 0 .586-.073.758-.22.18-.154.27-.375.27-.664 0-.288-.09-.506-.27-.653-.172-.153-.425-.23-.758-.23h-1.557v1.767zm6.516.855c-.557 0-1.015-.118-1.374-.355a1.412 1.412 0 01-.634-.96h.913c.045.16.163.29.355.393.199.103.445.154.74.154h.452c.313 0 .557-.074.73-.221a.71.71 0 00.269-.577c0-.256-.087-.458-.26-.605-.166-.147-.413-.22-.74-.22h-1.162v-.75h1.134c.294 0 .519-.07.672-.212a.72.72 0 00.23-.557.728.728 0 00-.105-.403.612.612 0 00-.298-.25 1.243 1.243 0 00-.49-.086h-.48c-.256 0-.477.057-.663.172-.186.116-.298.257-.336.423h-.913c.064-.397.273-.724.625-.98s.781-.384 1.287-.384h.48c.378 0 .702.06.97.183.27.115.475.281.615.5.148.217.222.476.222.777 0 .314-.103.573-.308.778-.205.199-.493.311-.864.337v.038c.454.032.784.154.989.365.205.212.307.516.307.913 0 .467-.173.839-.518 1.114-.346.276-.81.413-1.393.413h-.452zm5.94.01c-.423 0-.788-.08-1.096-.24a1.744 1.744 0 01-.72-.692c-.167-.307-.25-.67-.25-1.086v-1.402c0-.423.083-.785.25-1.086.173-.3.413-.531.72-.691.308-.16.673-.24 1.096-.24.422 0 .787.08 1.095.24.307.16.544.39.71.691.173.301.26.66.26 1.076v1.412c0 .417-.087.779-.26 1.086a1.683 1.683 0 01-.71.692c-.308.16-.673.24-1.096.24zm0-.769c.377 0 .672-.105.883-.317.212-.211.317-.522.317-.932v-1.402c0-.41-.105-.72-.317-.932-.211-.211-.506-.317-.883-.317-.372 0-.666.106-.884.317-.212.211-.317.522-.317.932v1.402c0 .41.105.72.317.932.218.212.512.317.883.317zm3.71.692v-5.284h2.287c.55 0 .976.125 1.277.375.301.243.452.586.452 1.028 0 .365-.125.66-.375.884-.25.217-.58.326-.99.326v-.077c.449 0 .808.113 1.077.337.275.224.413.525.413.903 0 .474-.16.845-.48 1.114-.32.263-.77.394-1.346.394h-2.315zm.846-.759h1.47c.307 0 .544-.067.71-.202.173-.134.26-.323.26-.567 0-.25-.087-.441-.26-.576-.166-.134-.403-.202-.71-.202h-1.47v1.547zm0-2.296h1.44c.27 0 .48-.064.635-.192.16-.128.24-.307.24-.538 0-.23-.077-.41-.23-.538-.154-.135-.369-.202-.644-.202h-1.441v1.47zm6.362 3.151c-.557 0-.996-.14-1.316-.423-.321-.288-.48-.675-.48-1.162 0-.493.159-.88.48-1.163.32-.281.752-.422 1.297-.422h1.633v-.529c0-.326-.1-.576-.298-.749-.192-.18-.468-.269-.826-.269-.314 0-.577.067-.788.202a.718.718 0 00-.365.528h-.865c.058-.454.272-.816.644-1.085.371-.27.836-.404 1.393-.404.608 0 1.089.157 1.441.471.352.314.528.74.528 1.278V65h-.845v-1.009h-.144l.144-.144c0 .384-.151.689-.452.913-.294.224-.688.336-1.181.336zm.211-.682c.41 0 .746-.103 1.009-.307a.958.958 0 00.394-.788v-.75h-1.614c-.288 0-.516.08-.682.24-.167.16-.25.379-.25.654 0 .294.099.528.298.701.205.167.486.25.845.25zm5.507.586v-4.525h-1.921v-.759h4.707v.76h-1.921V65h-.865zm6.122.096c-.416 0-.781-.083-1.095-.25a1.812 1.812 0 01-.721-.701 2.21 2.21 0 01-.249-1.066v-1.441c0-.41.083-.766.249-1.067.173-.3.414-.535.721-.701a2.31 2.31 0 011.095-.25c.416 0 .778.084 1.086.25.314.166.554.4.72.701.173.301.26.657.26 1.067v.931h-3.286v.51c0 .416.106.736.317.96.211.218.512.327.903.327.333 0 .602-.058.807-.173a.764.764 0 00.375-.538h.864a1.469 1.469 0 01-.653 1.057c-.371.256-.836.384-1.393.384zm1.22-3.103v-.355c0-.417-.105-.737-.317-.961-.205-.224-.506-.336-.903-.336-.391 0-.692.112-.903.336-.211.224-.317.544-.317.96v.28h2.507l-.067.076zm1.828 3.074v-.807h.173c.294 0 .499-.115.615-.346.121-.23.185-.643.192-1.239l.057-2.959h3.584V65h-.865v-4.496h-1.864l-.048 2.21c-.012.557-.076 1.008-.192 1.354-.109.346-.281.599-.518.76-.231.16-.535.24-.913.24h-.221zm8.331.03a2.31 2.31 0 01-1.095-.25 1.81 1.81 0 01-.72-.702 2.199 2.199 0 01-.25-1.066v-1.441c0-.41.083-.766.25-1.067a1.81 1.81 0 01.72-.701 2.31 2.31 0 011.095-.25c.417 0 .779.084 1.086.25.314.166.554.4.721.701.172.301.259.657.259 1.067v.931h-3.286v.51c0 .416.106.736.317.96.212.218.513.327.903.327.333 0 .602-.058.807-.173a.764.764 0 00.375-.538h.865a1.473 1.473 0 01-.654 1.057c-.371.256-.835.384-1.393.384zm1.221-3.104v-.355c0-.417-.106-.737-.318-.961-.204-.224-.505-.336-.903-.336-.39 0-.691.112-.903.336-.211.224-.317.544-.317.96v.28h2.508l-.067.076zm2.49 3.007v-5.284h.826v2.882c0 .186-.006.381-.019.586a8.08 8.08 0 01-.038.586c-.013.18-.029.333-.048.461l2.132-4.515h1.105V65h-.826v-2.882c0-.186.003-.381.01-.586.012-.205.028-.4.048-.586l.048-.47L129.801 65h-1.105zm2.018-6.148c-.462 0-.833-.128-1.115-.385-.282-.256-.423-.592-.423-1.008h.683c0 .25.076.451.23.605.154.154.359.23.615.23.263 0 .471-.076.624-.23a.802.802 0 00.241-.605h.682c0 .416-.141.752-.423 1.008-.282.257-.653.385-1.114.385zM140.075 65v-5.284h.827v2.882c0 .186-.007.381-.02.586a8.08 8.08 0 01-.038.586c-.013.18-.029.333-.048.461l2.133-4.515h1.104V65h-.826v-2.882c0-.186.003-.381.01-.586.013-.205.029-.4.048-.586l.048-.47L141.18 65h-1.105zM14.903 84v-5.284h3.958V84h-.865v-4.496h-2.228V84h-.865zm7.669.077c-.423 0-.788-.08-1.095-.24a1.744 1.744 0 01-.721-.692c-.166-.307-.25-.67-.25-1.086v-1.402c0-.423.084-.785.25-1.086.173-.3.413-.531.72-.691.308-.16.673-.24 1.096-.24.422 0 .787.08 1.095.24.307.16.544.39.71.691.174.301.26.66.26 1.076v1.412c0 .417-.086.779-.26 1.086a1.683 1.683 0 01-.71.692c-.308.16-.673.24-1.095.24zm0-.769c.378 0 .672-.105.884-.317.21-.211.317-.522.317-.932v-1.402c0-.41-.106-.72-.317-.932-.212-.211-.506-.317-.884-.317-.372 0-.666.106-.884.317-.211.211-.317.522-.317.932v1.402c0 .41.106.72.317.932.218.212.512.317.884.317zm5.257.692v-4.525h-1.921v-.759h4.707v.76h-1.921V84h-.865zm4.124 1.73v-7.014h.864v1.009h.173l-.173.202c0-.404.132-.72.394-.951.27-.237.622-.356 1.057-.356.532 0 .954.176 1.268.529.32.345.48.823.48 1.431v1.547c0 .403-.073.752-.22 1.047a1.573 1.573 0 01-.606.682c-.256.16-.563.24-.922.24-.43 0-.778-.118-1.047-.355-.27-.237-.404-.554-.404-.951l.173.201h-.192l.02 1.201v1.537h-.865zm2.027-2.383c.365 0 .65-.11.855-.327.211-.218.317-.531.317-.941v-1.441c0-.41-.106-.724-.317-.942-.205-.218-.49-.326-.855-.326-.352 0-.634.112-.846.336-.21.224-.317.535-.317.932v1.44c0 .398.106.708.317.932.212.225.494.337.846.337zm5.66.75c-.416 0-.78-.084-1.095-.25a1.807 1.807 0 01-.72-.702 2.204 2.204 0 01-.25-1.066v-1.441c0-.41.083-.766.25-1.067.173-.3.413-.534.72-.701.314-.166.68-.25 1.096-.25.416 0 .778.084 1.085.25.314.166.554.4.72.701.174.301.26.657.26 1.067v.931h-3.285v.51c0 .416.105.736.317.96.211.218.512.327.903.327.333 0 .602-.058.807-.173a.763.763 0 00.374-.538h.865a1.472 1.472 0 01-.653 1.057c-.372.256-.836.384-1.393.384zm1.22-3.104v-.355c0-.417-.105-.737-.316-.961-.205-.224-.506-.336-.903-.336-.391 0-.692.112-.903.336-.212.224-.317.544-.317.96v.28h2.507l-.067.076zm4.47 3.103c-.62 0-1.114-.183-1.48-.547-.358-.372-.537-.878-.537-1.518v-2.402c0-.846.211-1.496.634-1.95.423-.461 1.028-.692 1.816-.692h1.345v.865h-1.345c-.52 0-.913.153-1.182.46-.269.302-.404.74-.404 1.317v.624h.135l-.134.192c.006-.377.134-.672.384-.883.25-.212.589-.317 1.018-.317.557 0 .99.179 1.297.538.314.358.47.851.47 1.48v.768c0 .429-.08.797-.24 1.104-.16.308-.39.545-.691.711-.301.167-.663.25-1.086.25zm0-.769c.372 0 .657-.112.855-.336.199-.224.298-.544.298-.96v-.769c0-.416-.1-.736-.298-.96-.198-.225-.483-.337-.855-.337-.371 0-.656.112-.855.336-.198.218-.297.538-.297.961v.769c0 .416.099.736.297.96.199.224.484.337.855.337zm3.711.673v-5.284h.865v2.2h2.228v-2.2H53V84h-.865v-2.296h-2.228V84h-.865zm7.669.077c-.423 0-.788-.08-1.096-.24a1.744 1.744 0 01-.72-.692c-.167-.307-.25-.67-.25-1.086v-1.402c0-.423.083-.785.25-1.086.173-.3.413-.531.72-.691.308-.16.673-.24 1.096-.24.422 0 .787.08 1.095.24.307.16.544.39.71.691.174.301.26.66.26 1.076v1.412c0 .417-.086.779-.26 1.086a1.683 1.683 0 01-.71.692c-.308.16-.673.24-1.095.24zm0-.769c.377 0 .672-.105.883-.317.212-.211.317-.522.317-.932v-1.402c0-.41-.105-.72-.317-.932-.21-.211-.506-.317-.883-.317-.372 0-.666.106-.884.317-.212.211-.317.522-.317.932v1.402c0 .41.105.72.317.932.218.212.512.317.884.317zm5.709.788c-.423 0-.795-.08-1.115-.24a1.73 1.73 0 01-.73-.692c-.173-.307-.26-.67-.26-1.085v-1.441c0-.423.087-.785.26-1.086a1.73 1.73 0 01.73-.692c.32-.16.692-.24 1.114-.24.609 0 1.099.163 1.47.49.372.327.567.772.586 1.335h-.864c-.02-.339-.135-.598-.346-.778-.205-.185-.487-.278-.846-.278-.377 0-.678.109-.903.326-.224.212-.336.516-.336.913v1.45c0 .398.112.705.336.923.225.218.526.326.904.326.358 0 .64-.092.845-.278.211-.186.326-.445.346-.778h.864c-.019.563-.214 1.008-.586 1.335-.371.327-.861.49-1.47.49zM67.657 84v-4.525h-1.922v-.759h4.708v.76H68.52V84h-.864zm6.122.096c-.417 0-.782-.083-1.096-.25a1.807 1.807 0 01-.72-.701 2.204 2.204 0 01-.25-1.066v-1.441c0-.41.083-.766.25-1.067.173-.3.413-.534.72-.701.314-.166.68-.25 1.096-.25.416 0 .778.084 1.085.25.314.166.554.4.72.701.174.301.26.657.26 1.067v.931h-3.285v.51c0 .416.105.736.317.96.21.218.512.327.903.327.333 0 .602-.058.806-.173a.763.763 0 00.375-.538h.865a1.472 1.472 0 01-.654 1.057c-.37.256-.835.384-1.392.384zm1.22-3.103v-.355c0-.417-.106-.737-.317-.961-.205-.224-.506-.336-.903-.336-.391 0-.692.112-.903.336-.212.224-.318.544-.318.96v.28h2.508l-.067.076zM77.489 84v-5.284h.826v2.882c0 .186-.006.381-.019.586-.006.205-.019.4-.038.586a6.36 6.36 0 01-.048.462l2.132-4.516h1.105V84h-.826v-2.882c0-.186.003-.381.01-.586.012-.205.028-.4.048-.586l.048-.47L78.594 84h-1.105zm2.018-6.148c-.462 0-.833-.128-1.115-.385-.281-.256-.422-.592-.422-1.008h.682c0 .25.076.451.23.605.154.154.359.23.615.23.263 0 .47-.076.624-.23a.8.8 0 00.24-.605h.683c0 .416-.141.752-.423 1.008-.282.257-.653.385-1.114.385zM88.897 84v-5.284h.865v2.181h.903l1.537-2.18h.99l-1.778 2.516L93.22 84h-1.008l-1.537-2.354h-.913V84h-.865zm4.998.067v-.807h.173c.295 0 .5-.115.615-.346.122-.23.186-.643.192-1.239l.058-2.959h3.583V84h-.864v-4.496h-1.864l-.048 2.21c-.013.557-.077 1.008-.192 1.354-.11.346-.282.599-.52.76-.23.16-.534.24-.912.24h-.22zm6.353-.067v-5.284h.826v2.882c0 .186-.006.381-.019.586-.007.205-.019.4-.039.586-.012.18-.028.333-.048.462l2.133-4.516h1.105V84h-.826v-2.882c0-.186.003-.381.009-.586.013-.205.029-.4.048-.586l.048-.47L101.353 84h-1.105zm7.668.096c-.416 0-.781-.083-1.095-.25a1.81 1.81 0 01-.72-.701 2.199 2.199 0 01-.25-1.066v-1.441c0-.41.083-.766.25-1.067a1.81 1.81 0 01.72-.701 2.31 2.31 0 011.095-.25c.417 0 .779.084 1.086.25.314.166.554.4.721.701.172.301.259.657.259 1.067v.931h-3.286v.51c0 .416.106.736.317.96.212.218.513.327.903.327.334 0 .603-.058.807-.173a.764.764 0 00.375-.538h.865a1.473 1.473 0 01-.654 1.057c-.371.256-.835.384-1.393.384zm1.221-3.103v-.355c0-.417-.106-.737-.317-.961-.205-.224-.506-.336-.904-.336-.39 0-.691.112-.903.336-.211.224-.317.544-.317.96v.28h2.508l-.067.076zm2.49 3.007v-5.284h.865v2.2h2.229v-2.2h.864V84h-.864v-2.296h-2.229V84h-.865zm7.237 0v-4.525h-1.922v-.759h4.707v.76h-1.921V84h-.864zm5.66.096c-.557 0-.996-.14-1.316-.423-.32-.288-.48-.675-.48-1.162 0-.493.16-.88.48-1.162.32-.282.753-.423 1.297-.423h1.633v-.529c0-.326-.099-.576-.298-.749-.192-.18-.467-.269-.826-.269-.314 0-.576.067-.787.202a.717.717 0 00-.366.528h-.864c.058-.454.272-.816.644-1.085.371-.27.835-.404 1.392-.404.609 0 1.089.157 1.442.471.352.314.528.74.528 1.278V84h-.846v-1.009h-.144l.144-.144c0 .385-.15.689-.451.913-.295.224-.689.336-1.182.336zm.212-.682c.41 0 .746-.103 1.008-.307a.956.956 0 00.394-.788v-.75h-1.614c-.288 0-.515.08-.682.24-.166.16-.25.379-.25.654 0 .294.1.528.298.701.205.167.487.25.846.25zm5.939.682c-.243 0-.439-.07-.586-.211-.141-.141-.211-.33-.211-.567 0-.25.07-.448.211-.596.147-.147.343-.22.586-.22.243 0 .436.073.577.22.147.148.22.346.22.596 0 .237-.073.426-.22.567-.141.14-.334.211-.577.211z" fill="#fff"/><defs><filter id="filter0_d_441_861" x=".157" y="0" width="179.685" height="144.685" filterUnits="userSpaceOnUse" color-interpolation-filters="sRGB"><feFlood flood-opacity="0" result="BackgroundImageFix"/><feColorMatrix in="SourceAlpha" values="0 0 0 0 0 0 0 0 0 0 0 0 0 0 0 0 0 0 127 0" result="hardAlpha"/><feOffset dy="3.843"/><feGaussianBlur stdDeviation="1.921"/><feComposite in2="hardAlpha" operator="out"/><feColorMatrix values="0 0 0 0 0 0 0 0 0 0 0 0 0 0 0 0 0 0 0.25 0"/><feBlend in2="BackgroundImageFix" result="effect1_dropShadow_441_861"/><feBlend in="SourceGraphic" in2="effect1_dropShadow_441_861" result="shape"/></filter></defs></svg>