<svg width="180" height="145" fill="none" xmlns="http://www.w3.org/2000/svg"><g filter="url(#filter0_d_440_681)"><rect x="4" width="172" height="137" rx="16.011" fill="#656565"/></g><path d="M15.92 26.17c-.422 0-.79-.08-1.104-.24a1.743 1.743 0 01-.72-.692c-.167-.308-.25-.67-.25-1.086v-3.17c0-.423.083-.785.25-1.086.172-.3.412-.532.72-.692.313-.16.682-.24 1.104-.24.423 0 .788.084 1.096.25.307.16.544.39.71.692.167.3.25.66.25 1.076h-.864c0-.397-.106-.702-.317-.913-.205-.218-.497-.327-.875-.327-.377 0-.675.106-.893.317-.211.212-.317.516-.317.913v3.18c0 .397.106.704.317.922.218.211.516.317.893.317.378 0 .67-.105.875-.317.211-.218.317-.525.317-.922h.864c0 .41-.083.768-.25 1.076a1.743 1.743 0 01-.71.701c-.308.16-.673.24-1.096.24zm5.652-.02c-.423 0-.788-.08-1.095-.24a1.743 1.743 0 01-.721-.692c-.166-.307-.25-.669-.25-1.085V22.73c0-.423.084-.785.25-1.085a1.74 1.74 0 01.72-.692c.308-.16.673-.24 1.096-.24.422 0 .787.08 1.095.24.307.16.544.39.71.692.174.3.26.66.26 1.076v1.412c0 .416-.086.778-.26 1.085a1.682 1.682 0 01-.71.692c-.308.16-.673.24-1.095.24zm0-.768c.378 0 .672-.106.884-.318.21-.21.317-.521.317-.931V22.73c0-.41-.106-.72-.317-.932-.212-.211-.506-.317-.884-.317-.372 0-.666.106-.884.317-.211.212-.317.522-.317.932v1.403c0 .41.106.72.317.931.218.212.512.318.884.318zm5.709.787a2.46 2.46 0 01-1.115-.24 1.73 1.73 0 01-.73-.691c-.173-.308-.26-.67-.26-1.086V22.71c0-.423.087-.785.26-1.086a1.73 1.73 0 01.73-.691c.32-.16.692-.24 1.114-.24.609 0 1.099.163 1.47.49.372.326.567.771.586 1.335h-.864c-.02-.34-.135-.6-.346-.778-.205-.186-.487-.279-.846-.279-.377 0-.678.109-.902.327-.225.211-.337.515-.337.912v1.45c0 .398.112.705.337.923.224.218.525.327.902.327.36 0 .641-.093.846-.279.211-.186.327-.445.346-.778h.864c-.019.564-.214 1.009-.586 1.335-.371.327-.861.49-1.47.49zm5.238-.096V21.55h-1.922v-.76h4.708v.76h-1.922v4.524h-.864zm5.66.096c-.557 0-.995-.14-1.316-.422-.32-.289-.48-.676-.48-1.163 0-.493.16-.88.48-1.162.32-.282.753-.423 1.297-.423h1.634v-.528c0-.327-.1-.577-.298-.75-.193-.179-.468-.269-.827-.269-.313 0-.576.068-.787.202a.718.718 0 00-.365.529h-.865c.058-.455.272-.817.644-1.086.371-.269.836-.404 1.393-.404.608 0 1.088.157 1.44.471.353.314.53.74.53 1.278v3.631h-.846v-1.009h-.144l.144-.144c0 .385-.15.689-.452.913-.294.224-.688.336-1.181.336zm.212-.682c.41 0 .746-.102 1.009-.307a.956.956 0 00.394-.788v-.75H38.18c-.289 0-.516.08-.683.24-.166.161-.25.379-.25.654 0 .295.1.528.298.701.205.167.487.25.846.25zm3.96.586V20.79h2.287c.55 0 .976.125 1.277.375.301.244.452.586.452 1.028 0 .365-.125.66-.375.884-.25.218-.58.327-.99.327v-.077c.45 0 .808.112 1.077.336.275.224.413.525.413.903 0 .474-.16.845-.48 1.114-.32.263-.77.394-1.346.394h-2.315zm.846-.759h1.47c.307 0 .544-.067.71-.201a.679.679 0 00.26-.567c0-.25-.087-.442-.26-.577-.166-.134-.403-.201-.71-.201h-1.47v1.546zm0-2.296h1.44c.27 0 .481-.064.635-.192.16-.128.24-.307.24-.538 0-.23-.077-.41-.23-.538-.154-.134-.369-.201-.644-.201h-1.441v1.47zm4.844 3.055V20.79h.826v2.883c0 .185-.006.38-.02.586-.005.204-.018.4-.038.586a5.78 5.78 0 01-.047.46l2.132-4.514H52v5.283h-.826v-2.882c0-.185.003-.38.01-.586.012-.205.028-.4.047-.586l.048-.47-2.132 4.524H48.04zm5.027.067v-.806h.173c.294 0 .5-.116.614-.346.122-.23.186-.644.193-1.24l.057-2.959h3.584v5.284h-.865v-4.496H54.96l-.048 2.21c-.013.557-.077 1.009-.192 1.354-.109.346-.282.6-.519.76-.23.16-.534.24-.912.24h-.221zm6.352-.067V20.79h.826v2.883c0 .185-.006.38-.019.586a8.13 8.13 0 01-.038.586 6.233 6.233 0 01-.048.46l2.133-4.514h1.104v5.283h-.826v-2.882c0-.185.003-.38.01-.586.013-.205.029-.4.048-.586l.048-.47-2.133 4.524H59.42zm11.38 0V20.79h3.958v5.284h-.865v-4.496h-2.229v4.496H70.8zm7.668.077c-.422 0-.788-.08-1.095-.24a1.743 1.743 0 01-.72-.692c-.167-.307-.25-.669-.25-1.085V22.73c0-.423.083-.785.25-1.085.172-.302.413-.532.72-.692.307-.16.672-.24 1.095-.24.423 0 .788.08 1.095.24.308.16.545.39.711.692.173.3.26.66.26 1.076v1.412c0 .416-.087.778-.26 1.085a1.683 1.683 0 01-.71.692c-.308.16-.673.24-1.096.24zm0-.768c.378 0 .673-.106.884-.318.211-.21.317-.521.317-.931V22.73c0-.41-.106-.72-.317-.932-.211-.211-.506-.317-.884-.317-.371 0-.666.106-.884.317-.21.212-.317.522-.317.932v1.403c0 .41.106.72.317.931.218.212.513.318.884.318zm3.096 2.036v-2.084h.432c.11-.11.221-.324.337-.644.121-.32.185-.727.192-1.22l.057-2.68h3.45v4.544h.672v2.084h-.769v-1.345h-3.602v1.345h-.769zm1.345-2.084h2.258v-3.776h-1.768l-.038 1.931c-.007.506-.061.916-.164 1.23-.102.313-.198.518-.288.614zm4.94 2.468V20.79h.865v1.008h.173l-.173.202c0-.404.131-.72.394-.951.269-.237.621-.355 1.057-.355.531 0 .954.176 1.268.528.32.346.48.823.48 1.431V24.2c0 .403-.074.753-.221 1.047a1.57 1.57 0 01-.605.682c-.256.16-.564.24-.922.24-.43 0-.779-.118-1.048-.355s-.403-.554-.403-.951l.173.201h-.192l.019 1.201v1.537h-.865zm2.027-2.382c.365 0 .65-.109.855-.327.212-.217.317-.531.317-.941V22.71c0-.41-.105-.724-.317-.942-.205-.217-.49-.326-.855-.326-.352 0-.634.112-.845.336-.211.224-.317.535-.317.932v1.44c0 .398.106.709.317.933.211.224.493.336.845.336zm5.661.73c-.422 0-.788-.08-1.095-.24a1.743 1.743 0 01-.72-.692c-.167-.307-.25-.669-.25-1.085V22.73c0-.423.083-.785.25-1.085.172-.302.413-.532.72-.692.307-.16.673-.24 1.095-.24.423 0 .788.08 1.095.24.308.16.545.39.711.692.173.3.26.66.26 1.076v1.412c0 .416-.087.778-.26 1.085a1.683 1.683 0 01-.71.692c-.308.16-.673.24-1.096.24zm0-.768c.378 0 .673-.106.884-.318.211-.21.317-.521.317-.931V22.73c0-.41-.106-.72-.317-.932-.211-.211-.506-.317-.884-.317-.371 0-.666.106-.884.317-.211.212-.317.522-.317.932v1.403c0 .41.106.72.317.931.218.212.513.318.884.318zm5.69.787c-.621 0-1.115-.182-1.48-.547-.358-.372-.538-.878-.538-1.518v-2.402c0-.845.212-1.495.635-1.95.422-.461 1.027-.692 1.815-.692h1.345v.865h-1.345c-.519 0-.912.154-1.181.461-.269.301-.404.74-.404 1.316v.625h.135l-.135.192c.006-.378.135-.673.384-.884.25-.211.59-.317 1.019-.317.557 0 .989.18 1.297.538.313.358.47.852.47 1.48v.768c0 .429-.08.797-.24 1.105a1.68 1.68 0 01-.692.71c-.301.167-.662.25-1.085.25zm0-.768c.371 0 .656-.112.855-.337.198-.224.298-.544.298-.96v-.769c0-.416-.1-.736-.298-.96-.199-.224-.484-.337-.855-.337-.372 0-.657.113-.855.337-.199.217-.298.538-.298.96v.769c0 .416.099.736.298.96.198.225.483.337.855.337zm3.711.672V20.79h.864v2.2h2.229v-2.2h.864v5.284h-.864v-2.296h-2.229v2.296h-.864zm7.668.077c-.423 0-.788-.08-1.095-.24a1.747 1.747 0 01-.721-.692c-.166-.307-.249-.669-.249-1.085V22.73c0-.423.083-.785.249-1.085.173-.302.414-.532.721-.692.307-.16.672-.24 1.095-.24.423 0 .788.08 1.095.24.308.16.545.39.711.692.173.3.26.66.26 1.076v1.412c0 .416-.087.778-.26 1.085a1.677 1.677 0 01-.711.692c-.307.16-.672.24-1.095.24zm0-.768c.378 0 .673-.106.884-.318.211-.21.317-.521.317-.931V22.73c0-.41-.106-.72-.317-.932-.211-.211-.506-.317-.884-.317-.371 0-.666.106-.884.317-.211.212-.317.522-.317.932v1.403c0 .41.106.72.317.931.218.212.513.318.884.318zm5.69.787a2.3 2.3 0 01-1.095-.25 1.805 1.805 0 01-.721-.7 2.21 2.21 0 01-.25-1.067V22.71c0-.41.084-.765.25-1.066.173-.302.413-.535.721-.702a2.3 2.3 0 011.095-.25c.416 0 .778.084 1.085.25.314.167.554.4.721.701.173.302.259.657.259 1.067v.932h-3.285v.509c0 .416.105.736.317.96.211.218.512.327.903.327.333 0 .602-.057.807-.173a.76.76 0 00.374-.538h.865a1.472 1.472 0 01-.653 1.057c-.372.256-.836.384-1.393.384zm1.22-3.103v-.355c0-.416-.106-.737-.317-.96-.205-.225-.506-.337-.903-.337-.391 0-.692.112-.903.336-.212.224-.317.545-.317.96v.28h2.507l-.067.076zm9.727 3.007v-6.235h-1.922v-.787h4.708v.788h-1.922v6.234h-.864zm6.026.096c-.436 0-.82-.076-1.153-.23a1.951 1.951 0 01-.797-.654 1.952 1.952 0 01-.327-.989h.865c.038.34.185.608.441.807.257.198.58.298.971.298.435 0 .778-.116 1.028-.346.256-.23.384-.532.384-.903 0-.378-.128-.679-.384-.903-.257-.23-.599-.346-1.028-.346h-.865v-.788h.855c.391 0 .705-.121.942-.365a1.23 1.23 0 00.355-.893c0-.359-.118-.634-.355-.826-.231-.199-.545-.298-.942-.298-.391 0-.704.112-.941.336-.237.218-.356.506-.356.865h-.864c0-.397.089-.743.269-1.038a1.8 1.8 0 01.749-.682c.327-.166.708-.25 1.143-.25.673 0 1.207.154 1.604.461.398.308.596.747.596 1.316 0 .32-.07.609-.211.865-.135.25-.33.445-.586.586-.25.141-.548.208-.894.202v-.144c.372-.007.692.067.961.22.275.148.487.363.634.644.154.276.231.602.231.98 0 .404-.097.762-.289 1.076a1.932 1.932 0 01-.807.73c-.345.18-.755.27-1.229.27zm4.489 1.441l.768-2.987h1.249l-1.249 2.987h-.768zM13.903 45.073V39.79h2.286c.551 0 .977.125 1.278.375.301.244.452.586.452 1.028 0 .365-.125.66-.375.884-.25.218-.58.327-.99.327v-.077c.449 0 .808.112 1.076.336.276.224.414.525.414.903 0 .474-.16.845-.48 1.114-.321.263-.77.394-1.346.394h-2.315zm.845-.759h1.47c.308 0 .545-.067.711-.201a.679.679 0 00.26-.567c0-.25-.087-.442-.26-.577-.166-.134-.403-.201-.71-.201h-1.47v1.546zm0-2.296h1.441c.27 0 .48-.064.634-.192.16-.128.24-.307.24-.538 0-.23-.076-.41-.23-.538-.154-.134-.368-.202-.644-.202h-1.44v1.47zm4.874 3.055V39.79h.864v2.181h.903l1.537-2.18h.99l-1.777 2.517 1.806 2.766h-1.01L21.4 42.72h-.913v2.353h-.864zm4.997.068v-.807h.173c.295 0 .5-.116.615-.346.122-.23.186-.644.192-1.24l.058-2.959h3.583v5.284h-.864v-4.496h-1.864l-.048 2.21c-.013.557-.077 1.008-.192 1.354-.109.346-.282.6-.519.76-.23.16-.535.24-.913.24h-.22zm9.158.028c-.442 0-.797-.15-1.066-.451-.27-.301-.404-.695-.404-1.182v-.797h-.845v2.334h-.797V39.79h.797v2.258h.845v-.72c0-.493.132-.887.394-1.182.27-.301.628-.452 1.076-.452.474 0 .855.151 1.143.452.289.295.433.688.433 1.182v2.21c0 .486-.144.88-.433 1.18-.288.302-.669.452-1.143.452zm0-.672c.243 0 .432-.083.567-.25.14-.173.211-.41.211-.71v-2.21c0-.301-.07-.535-.211-.702a.679.679 0 00-.567-.26.667.667 0 00-.557.26c-.134.167-.202.4-.202.702v2.21c0 .3.068.537.202.71.135.167.32.25.557.25zm5.92.576v-1.921a4.17 4.17 0 01-.47.077 7.093 7.093 0 01-.654.029c-.653.006-1.162-.15-1.527-.471-.359-.327-.538-.782-.538-1.364v-1.634h.865v1.634c0 .326.108.586.326.778.224.186.532.278.922.278.27 0 .497-.01.682-.028.193-.026.324-.048.394-.068V39.79h.865v5.284h-.865zm4.172.096c-.557 0-.996-.14-1.316-.422-.32-.289-.48-.676-.48-1.163 0-.493.16-.88.48-1.162.32-.282.753-.423 1.297-.423h1.633v-.528c0-.327-.1-.577-.298-.75-.192-.179-.467-.269-.826-.269-.314 0-.576.068-.788.202a.718.718 0 00-.365.528h-.864c.057-.454.272-.816.643-1.085.372-.269.836-.404 1.393-.404.609 0 1.09.157 1.441.471.353.314.529.74.529 1.278v3.631h-.846v-1.008h-.144l.144-.145c0 .385-.15.689-.451.913-.295.224-.689.336-1.182.336zm.212-.682c.41 0 .746-.102 1.008-.307a.956.956 0 00.394-.788v-.75H43.87c-.288 0-.515.08-.682.24-.166.161-.25.379-.25.654 0 .295.1.529.298.701.205.167.487.25.846.25zm6.765.682c-.442 0-.797-.15-1.066-.451-.27-.301-.404-.695-.404-1.182v-.797h-.845v2.334h-.797V39.79h.797v2.258h.845v-.72c0-.493.132-.887.394-1.182.27-.301.628-.452 1.076-.452.474 0 .855.151 1.143.452.289.295.433.688.433 1.182v2.21c0 .486-.144.88-.433 1.18-.288.302-.669.452-1.143.452zm0-.672c.244 0 .432-.083.567-.25.14-.173.211-.41.211-.71v-2.21c0-.301-.07-.535-.211-.702a.677.677 0 00-.567-.26.667.667 0 00-.557.26c-.135.167-.202.4-.202.702v2.21c0 .3.067.537.202.71.134.167.32.25.557.25zm6.737 1.921v-1.345h-4.14V39.79h.778v4.554h1.114V39.79h.672v4.554h1.115V39.79h.778v4.554h.452v2.075h-.77zm3.816-1.249c-.416 0-.781-.083-1.095-.25a1.807 1.807 0 01-.72-.7 2.204 2.204 0 01-.25-1.067V41.71c0-.41.083-.765.25-1.066.172-.302.413-.535.72-.702a2.31 2.31 0 011.095-.25c.417 0 .778.084 1.086.25.314.167.554.4.72.702.173.3.26.656.26 1.066v.932h-3.286v.509c0 .416.106.736.317.96.212.218.513.327.903.327.333 0 .602-.057.807-.173a.763.763 0 00.375-.538h.864a1.471 1.471 0 01-.653 1.057c-.371.256-.836.384-1.393.384zm1.22-3.103v-.355c0-.416-.105-.737-.317-.96-.205-.225-.506-.337-.903-.337-.39 0-.691.112-.903.336-.211.224-.317.545-.317.96v.28h2.508l-.068.076zm4.47 3.103c-.416 0-.781-.083-1.095-.25a1.807 1.807 0 01-.72-.7 2.204 2.204 0 01-.25-1.067V41.71c0-.41.083-.765.25-1.066.172-.302.412-.535.72-.702a2.31 2.31 0 011.095-.25c.416 0 .778.084 1.085.25.314.167.554.4.721.702.173.3.26.656.26 1.066v.932h-3.286v.509c0 .416.106.736.317.96.211.218.512.327.903.327.333 0 .602-.057.807-.173a.763.763 0 00.374-.538h.865a1.472 1.472 0 01-.653 1.057c-.372.256-.836.384-1.393.384zm1.22-3.103v-.355c0-.416-.106-.737-.317-.96-.205-.225-.506-.337-.903-.337-.39 0-.692.112-.903.336-.212.224-.317.545-.317.96v.28h2.507l-.067.076zm10.16 3.084c-.423 0-.788-.08-1.096-.24a1.743 1.743 0 01-.72-.692c-.167-.307-.25-.669-.25-1.085V41.73c0-.423.083-.784.25-1.085.172-.302.413-.532.72-.692.307-.16.672-.24 1.095-.24.423 0 .788.08 1.095.24.308.16.545.39.711.691.173.302.26.66.26 1.077v1.412c0 .416-.087.778-.26 1.085a1.683 1.683 0 01-.71.692c-.308.16-.673.24-1.096.24zm0-.768c.377 0 .672-.106.883-.317.211-.212.317-.522.317-.932V41.73c0-.41-.106-.72-.317-.932-.211-.211-.506-.317-.884-.317-.371 0-.666.106-.884.317-.21.212-.317.522-.317.932v1.403c0 .41.106.72.317.931.218.212.513.318.884.318zm3.71.691V39.79h3.958v5.284h-.865v-4.496h-2.229v4.496h-.864zm5.69 0V39.79h.826v2.883c0 .185-.007.38-.02.586a8.13 8.13 0 01-.038.586 6.233 6.233 0 01-.048.46l2.133-4.515h1.105v5.284H91v-2.882c0-.186.004-.38.01-.586.013-.205.029-.4.048-.586l.048-.47-2.133 4.524h-1.105zm7.687.096a2.46 2.46 0 01-1.114-.24 1.73 1.73 0 01-.73-.692c-.173-.307-.26-.669-.26-1.085V41.71c0-.423.087-.785.26-1.086a1.73 1.73 0 01.73-.691c.32-.16.692-.24 1.114-.24.609 0 1.099.163 1.47.49.372.326.567.771.586 1.335h-.864c-.02-.34-.135-.6-.346-.778-.205-.186-.487-.279-.846-.279-.377 0-.678.109-.903.327-.224.211-.336.515-.336.912v1.45c0 .398.112.705.336.923.224.218.525.327.903.327.36 0 .64-.093.846-.279.211-.186.326-.445.346-.778h.864c-.019.564-.214 1.009-.586 1.335-.371.327-.861.49-1.47.49zm5.21 0c-.557 0-.996-.14-1.316-.422-.32-.289-.48-.676-.48-1.163 0-.493.16-.88.48-1.162.32-.282.752-.423 1.297-.423h1.633v-.528c0-.327-.1-.577-.298-.75-.192-.179-.468-.269-.826-.269-.314 0-.577.068-.788.202a.719.719 0 00-.365.528h-.865c.058-.454.272-.816.644-1.085.371-.269.836-.404 1.393-.404.608 0 1.089.157 1.441.471.352.314.528.74.528 1.278v3.631h-.845v-1.008h-.144l.144-.145c0 .385-.151.689-.452.913-.294.224-.688.336-1.181.336zm.211-.682c.41 0 .746-.102 1.009-.307a.958.958 0 00.394-.788v-.75h-1.614c-.288 0-.516.08-.682.24-.167.161-.25.379-.25.654 0 .295.1.529.298.701.205.167.486.25.845.25zm3.961.586V39.79h.864v2.2h2.229v-2.2h.864v5.284h-.864v-2.296h-2.229v2.296h-.864zm5.689 0V39.79h.826v2.883c0 .185-.006.38-.019.586a8.13 8.13 0 01-.038.586 6.233 6.233 0 01-.048.46l2.132-4.515h1.105v5.284h-.826v-2.882c0-.186.003-.38.01-.586.012-.205.028-.4.048-.586l.048-.47-2.133 4.524h-1.105zm7.669.096a2.3 2.3 0 01-1.095-.25 1.805 1.805 0 01-.721-.7 2.21 2.21 0 01-.25-1.067V41.71c0-.41.084-.765.25-1.066.173-.302.413-.535.721-.702a2.3 2.3 0 011.095-.25c.416 0 .778.084 1.085.25.314.167.554.4.721.702.173.3.259.656.259 1.066v.932h-3.285v.509c0 .416.105.736.317.96.211.218.512.327.903.327.333 0 .602-.057.807-.173a.76.76 0 00.374-.538h.865a1.472 1.472 0 01-.653 1.057c-.372.256-.836.384-1.393.384zm1.22-3.103v-.355c0-.416-.106-.737-.317-.96-.205-.225-.506-.337-.903-.337-.391 0-.692.112-.903.336-.212.224-.317.545-.317.96v.28h2.507l-.067.076zM15.498 65.802v-1.729c-.615 0-1.099-.173-1.45-.518-.353-.346-.53-.82-.53-1.422V60.71c0-.596.177-1.063.53-1.403.358-.346.841-.519 1.45-.519V57.06h.768v1.73c.615 0 1.099.172 1.45.518.353.34.53.807.53 1.403v1.422c0 .602-.177 1.076-.53 1.421-.351.346-.835.52-1.45.52v1.728h-.768zm.019-2.41v-3.92c-.371 0-.663.108-.874.326-.212.218-.317.522-.317.913v1.422c0 .39.105.698.317.922.211.224.502.336.874.336zm.73 0c.378 0 .67-.113.874-.337.212-.224.317-.532.317-.922V60.71c0-.39-.105-.695-.317-.913-.205-.218-.496-.326-.874-.326v3.92zm4.153 2.41l.778-2.055-1.96-4.958h.96l1.23 3.267a2.9 2.9 0 01.125.394c.039.147.07.272.096.374l.096-.374a4.4 4.4 0 01.116-.394l1.152-3.267h.932l-2.603 7.013H20.4zm4.882-1.729V58.79h.865v2.2h2.229v-2.2h.864v5.283h-.864v-2.296h-2.229v2.296h-.865zm5.719 0V58.79h.864v2.18h.904l1.537-2.18h.989l-1.777 2.517 1.806 2.766h-1.009l-1.537-2.353h-.913v2.353h-.864zm9.417 1.345v-1.345h-3.756V58.79h.864v4.515h2.075v-4.516h.865v4.516h.72v2.113h-.768zm1.933-1.345V58.79h.827v2.882c0 .185-.007.38-.02.586a8.13 8.13 0 01-.038.586 6.233 6.233 0 01-.048.46l2.133-4.515h1.104v5.284h-.826v-2.882c0-.186.003-.38.01-.586.012-.205.029-.4.048-.586l.048-.47-2.133 4.524h-1.105zm7.669.077c-.423 0-.788-.08-1.095-.24a1.743 1.743 0 01-.72-.692c-.167-.307-.25-.669-.25-1.085V60.73c0-.423.083-.784.25-1.085.172-.302.412-.532.72-.692.307-.16.672-.24 1.095-.24.423 0 .788.08 1.095.24.307.16.544.39.711.691.173.302.26.66.26 1.077v1.412c0 .416-.087.778-.26 1.085a1.683 1.683 0 01-.71.692c-.308.16-.673.24-1.096.24zm0-.768c.378 0 .672-.106.884-.317.211-.212.317-.522.317-.932V60.73c0-.41-.106-.72-.317-.932-.212-.211-.506-.317-.884-.317-.372 0-.666.106-.884.317-.211.212-.317.522-.317.932v1.403c0 .41.106.72.317.931.218.212.512.318.884.318zm3.71.691V58.79h.865v2.2h2.229v-2.2h.865v5.283h-.865v-2.296h-2.229v2.296h-.864zm7.208.096c-.557 0-.996-.14-1.316-.422-.32-.289-.48-.676-.48-1.163 0-.493.16-.88.48-1.162.32-.282.752-.423 1.297-.423h1.633v-.528c0-.327-.1-.577-.298-.75-.192-.179-.467-.269-.826-.269-.314 0-.576.068-.788.202a.718.718 0 00-.365.528h-.864c.057-.454.272-.816.643-1.085.372-.269.836-.404 1.393-.404.609 0 1.09.157 1.441.471.353.314.529.74.529 1.278v3.631h-.846v-1.008h-.144l.144-.145c0 .385-.15.689-.451.913-.295.224-.689.336-1.182.336zm.212-.682c.41 0 .746-.102 1.008-.307a.956.956 0 00.394-.788v-.75h-1.614c-.288 0-.515.08-.682.24-.166.161-.25.379-.25.654 0 .295.1.529.298.701.205.167.487.25.846.25zm3.297.654v-.808h.173c.295 0 .5-.115.615-.345.121-.23.186-.644.192-1.24l.058-2.959h3.583v5.284h-.865v-4.496H66.34l-.048 2.21c-.013.557-.077 1.008-.193 1.354-.109.346-.281.6-.518.76-.23.16-.535.24-.913.24h-.22zm7.87.028c-.557 0-.995-.14-1.316-.422-.32-.289-.48-.676-.48-1.163 0-.493.16-.88.48-1.162.32-.282.753-.423 1.297-.423h1.633v-.528c0-.327-.099-.577-.297-.75-.193-.179-.468-.269-.827-.269-.313 0-.576.068-.787.202a.718.718 0 00-.365.528h-.865c.058-.454.272-.816.644-1.085.371-.269.835-.404 1.393-.404.608 0 1.088.157 1.44.471.353.314.529.74.529 1.278v3.631h-.845v-1.008h-.144l.144-.145c0 .385-.15.689-.452.913-.294.224-.688.336-1.182.336zm.212-.682c.41 0 .746-.102 1.008-.307a.956.956 0 00.394-.788v-.75h-1.614c-.288 0-.515.08-.682.24-.166.161-.25.379-.25.654 0 .295.1.529.298.701.205.167.487.25.846.25zm4.642 2.123l.769-2.987h1.249l-1.25 2.987h-.768zM13.903 84.073V78.79h3.958v5.283h-.865v-4.496h-2.228v4.496h-.865zm7.669.077c-.423 0-.788-.08-1.095-.24a1.743 1.743 0 01-.721-.692c-.166-.307-.25-.669-.25-1.085V80.73c0-.423.084-.785.25-1.086.173-.3.413-.531.72-.691.308-.16.673-.24 1.096-.24.422 0 .787.08 1.095.24.307.16.544.39.71.691.174.301.26.66.26 1.076v1.413c0 .416-.086.778-.26 1.085a1.682 1.682 0 01-.71.692c-.308.16-.673.24-1.095.24zm0-.768c.378 0 .672-.106.884-.318.21-.21.317-.521.317-.931V80.73c0-.41-.106-.72-.317-.932-.212-.211-.506-.317-.884-.317-.372 0-.666.106-.884.317-.211.212-.317.522-.317.932v1.403c0 .41.106.72.317.931.218.212.512.318.884.318zm3.047.758v-.806h.173c.295 0 .5-.116.615-.346.122-.23.186-.644.192-1.24l.058-2.959h3.583v5.284h-.864v-4.496h-1.864l-.048 2.21c-.013.557-.077 1.008-.192 1.354-.109.346-.282.6-.519.76-.23.16-.535.24-.913.24h-.22zm6.391-.067V78.79h.865v1.94h1.556c.596 0 1.064.15 1.403.452.346.294.519.7.519 1.22 0 .512-.173.919-.52 1.22-.345.3-.813.451-1.402.451h-2.42zm.865-.787h1.556c.333 0 .586-.074.76-.222.179-.153.268-.374.268-.662 0-.288-.09-.506-.269-.654-.173-.153-.426-.23-.759-.23h-1.556v1.767zm6.516.855c-.557 0-1.015-.119-1.374-.356a1.412 1.412 0 01-.634-.96h.913c.044.16.163.29.355.393.199.103.445.154.74.154h.451c.314 0 .558-.074.73-.221a.71.71 0 00.27-.576c0-.257-.087-.458-.26-.606-.166-.147-.413-.22-.74-.22H37.68v-.75h1.134c.294 0 .518-.07.672-.211a.72.72 0 00.23-.557.727.727 0 00-.105-.404.61.61 0 00-.298-.25 1.24 1.24 0 00-.49-.086h-.48c-.256 0-.477.058-.663.173-.186.115-.298.256-.336.422h-.913c.064-.397.272-.723.625-.98.352-.256.78-.384 1.287-.384h.48c.378 0 .702.061.97.183a1.327 1.327 0 01.836 1.278c0 .313-.102.573-.307.778-.205.198-.493.31-.865.336v.038c.455.032.785.154.99.365.205.212.307.516.307.913 0 .468-.173.839-.519 1.114-.346.276-.81.413-1.393.413h-.451zm5.94.01c-.423 0-.789-.081-1.096-.241a1.743 1.743 0 01-.72-.692c-.167-.307-.25-.669-.25-1.085V80.73c0-.423.083-.785.25-1.086.172-.3.413-.531.72-.691.307-.16.673-.24 1.095-.24.423 0 .788.08 1.096.24.307.16.544.39.71.691.173.301.26.66.26 1.076v1.413c0 .416-.087.778-.26 1.085a1.683 1.683 0 01-.71.692c-.308.16-.673.24-1.096.24zm0-.77c.377 0 .672-.105.883-.317.212-.21.317-.521.317-.931V80.73c0-.41-.105-.72-.317-.932-.211-.211-.506-.317-.884-.317-.371 0-.666.106-.883.317-.212.212-.318.522-.318.932v1.403c0 .41.106.72.318.931.217.212.512.318.883.318zm3.71.692V78.79h2.286c.551 0 .977.124 1.278.374.301.244.452.586.452 1.028 0 .365-.125.66-.375.884-.25.218-.58.327-.99.327v-.077c.449 0 .807.112 1.076.336.276.224.413.525.413.903 0 .474-.16.845-.48 1.114-.32.263-.768.394-1.345.394h-2.315zm.845-.759h1.47c.308 0 .545-.067.711-.201a.679.679 0 00.26-.567c0-.25-.087-.442-.26-.577-.166-.134-.403-.201-.71-.201h-1.47v1.546zm0-2.296h1.441c.27 0 .48-.064.634-.192.16-.128.24-.307.24-.538 0-.23-.076-.41-.23-.538-.154-.134-.368-.201-.644-.201h-1.44v1.47zm6.362 3.151c-.557 0-.995-.14-1.316-.422-.32-.289-.48-.676-.48-1.163 0-.493.16-.88.48-1.162.32-.282.753-.423 1.297-.423h1.633v-.528c0-.327-.099-.577-.297-.75-.192-.179-.468-.269-.827-.269-.313 0-.576.068-.787.202a.718.718 0 00-.365.529h-.865c.058-.455.272-.817.644-1.086.371-.269.835-.403 1.393-.403.608 0 1.088.156 1.44.47.353.314.529.74.529 1.278v3.631h-.845v-1.008h-.145l.145-.145c0 .385-.15.689-.452.913-.294.224-.688.336-1.181.336zm.212-.682c.41 0 .746-.102 1.008-.307a.956.956 0 00.394-.788v-.75h-1.614c-.288 0-.515.08-.682.24-.166.161-.25.379-.25.654 0 .295.1.528.298.701.205.167.487.25.846.25zm5.507.586V79.55h-1.921v-.76h4.707v.76h-1.921v4.524h-.865zm6.122.096c-.416 0-.781-.083-1.095-.25a1.807 1.807 0 01-.72-.7 2.204 2.204 0 01-.25-1.067V80.71c0-.41.083-.766.25-1.067.172-.3.412-.534.72-.7.314-.167.679-.25 1.095-.25.416 0 .778.083 1.085.25.314.166.554.4.721.7.173.301.26.657.26 1.067v.932h-3.286v.509c0 .416.106.736.317.96.211.218.512.327.903.327.333 0 .602-.057.807-.173a.763.763 0 00.374-.538h.865a1.472 1.472 0 01-.653 1.057c-.372.256-.836.384-1.393.384zm1.22-3.103v-.355c0-.416-.106-.737-.317-.96-.205-.225-.506-.337-.903-.337-.39 0-.692.112-.903.336-.212.224-.317.545-.317.96v.28h2.507l-.067.076zm1.828 3.075v-.808h.173c.294 0 .5-.115.614-.345.122-.23.186-.644.193-1.24l.057-2.959h3.584v5.284h-.865v-4.496h-1.864l-.048 2.21c-.013.557-.077 1.008-.192 1.354-.109.346-.282.6-.519.76-.23.16-.534.24-.912.24h-.221zm6.39-.068V78.79h.865v1.94h1.557c.595 0 1.063.15 1.402.452.346.294.519.7.519 1.22 0 .512-.173.919-.519 1.22-.346.3-.813.451-1.402.451h-2.421zm.865-.787h1.557c.333 0 .586-.074.758-.222.18-.153.27-.374.27-.662 0-.288-.09-.506-.27-.654-.172-.153-.425-.23-.758-.23h-1.557v1.767zm6.785.883a2.46 2.46 0 01-1.114-.24 1.73 1.73 0 01-.73-.692c-.173-.307-.26-.669-.26-1.085V80.71c0-.423.087-.785.26-1.086a1.73 1.73 0 01.73-.691c.32-.16.691-.24 1.114-.24.608 0 1.098.163 1.47.49.371.326.567.771.586 1.335h-.865c-.019-.34-.134-.6-.346-.778-.205-.186-.486-.279-.845-.279-.378 0-.679.109-.903.327-.224.211-.336.515-.336.912v1.45c0 .398.112.705.336.923.224.218.525.327.903.327.359 0 .64-.093.845-.279.212-.186.327-.445.346-.778h.865c-.02.564-.215 1.009-.586 1.335-.372.327-.862.49-1.47.49zm3.72-.096V78.79h.865v2.18h.903l1.537-2.18h.99l-1.778 2.516 1.806 2.767h-1.008l-1.537-2.353h-.913v2.353h-.865zm5.661 0V78.79h.826v2.882c0 .185-.006.38-.019.586-.006.205-.019.4-.038.586a6.83 6.83 0 01-.048.46l2.132-4.514h1.105v5.283h-.826v-2.882c0-.186.003-.38.01-.586.012-.205.028-.4.048-.586l.048-.47-2.133 4.524h-1.105zm5.267 0l1.873-2.718-1.758-2.566h1.019l1.047 1.634c.045.07.086.147.125.23.045.084.08.15.105.202.02-.051.048-.118.087-.202.045-.083.09-.16.134-.23l1.057-1.633h1.009l-1.758 2.574 1.864 2.71h-1.019l-1.133-1.73c-.045-.07-.09-.15-.135-.24a1.997 1.997 0 00-.106-.23 3.573 3.573 0 01-.115.23 1.74 1.74 0 01-.144.24l-1.143 1.73h-1.009zm13.8.096a2.46 2.46 0 01-1.114-.24 1.729 1.729 0 01-.73-.692c-.173-.307-.26-.669-.26-1.085V80.71c0-.423.087-.785.26-1.086a1.73 1.73 0 01.73-.691c.32-.16.692-.24 1.114-.24.609 0 1.099.163 1.47.49.372.326.567.771.586 1.335h-.864c-.02-.34-.135-.6-.346-.778-.205-.186-.487-.279-.846-.279-.378 0-.679.109-.903.327-.224.211-.336.515-.336.912v1.45c0 .398.112.705.336.923.224.218.525.327.903.327.359 0 .641-.093.846-.279.211-.186.326-.445.346-.778h.864c-.019.564-.214 1.009-.586 1.335-.371.327-.861.49-1.47.49zm7.448 1.25v-1.346h-3.756V78.79h.864v4.515h2.075v-4.516h.865v4.516h.721v2.113h-.769zm3.912-1.25c-.416 0-.781-.083-1.095-.25a1.809 1.809 0 01-.72-.7 2.198 2.198 0 01-.25-1.067V80.71c0-.41.083-.766.25-1.067a1.81 1.81 0 01.72-.7c.314-.167.679-.25 1.095-.25.417 0 .779.083 1.086.25.314.166.554.4.721.7.172.301.259.657.259 1.067v.932h-3.286v.509c0 .416.106.736.317.96.212.218.513.327.903.327.333 0 .602-.057.807-.173a.764.764 0 00.375-.538h.865a1.473 1.473 0 01-.654 1.057c-.371.256-.835.384-1.393.384zm1.221-3.103v-.355c0-.416-.106-.737-.318-.96-.204-.225-.505-.337-.903-.337-.39 0-.691.112-.903.336-.211.224-.317.545-.317.96v.28h2.508l-.067.076zm2.49 3.007V78.79h.865v2.2h2.228v-2.2h.865v5.283h-.865v-2.296h-2.228v2.296h-.865zm7.208.096c-.558 0-.996-.14-1.316-.422-.321-.289-.481-.676-.481-1.163 0-.493.16-.88.481-1.162.32-.282.752-.423 1.296-.423h1.634v-.528c0-.327-.1-.577-.298-.75-.192-.179-.468-.269-.826-.269-.314 0-.577.068-.788.202a.716.716 0 00-.365.529h-.865c.058-.455.272-.817.644-1.086.371-.269.836-.403 1.393-.403.608 0 1.089.156 1.441.47.352.314.528.74.528 1.278v3.631h-.845v-1.008h-.144l.144-.145c0 .385-.151.689-.452.913-.294.224-.688.336-1.181.336zm.211-.682c.41 0 .746-.102 1.009-.307a.958.958 0 00.394-.788v-.75h-1.614c-.289 0-.516.08-.682.24-.167.161-.25.379-.25.654 0 .295.099.528.298.701.205.167.486.25.845.25zm3.941 2.316V78.79h.865v1.008h.173l-.173.202c0-.403.131-.72.394-.951.269-.237.621-.356 1.056-.356.532 0 .955.177 1.269.529.32.346.48.823.48 1.431V82.2c0 .403-.074.752-.221 1.047a1.574 1.574 0 01-.605.682c-.256.16-.564.24-.923.24-.429 0-.778-.118-1.047-.355-.269-.237-.403-.554-.403-.951l.173.201h-.192l.019 1.201v1.537h-.865zm2.027-2.383c.365 0 .65-.109.855-.327.212-.217.317-.531.317-.941V80.71c0-.41-.105-.724-.317-.942-.205-.217-.49-.326-.855-.326-.352 0-.634.112-.845.336-.211.224-.317.535-.317.932v1.44c0 .398.106.709.317.933.211.224.493.336.845.336zm3.682.653V78.79h.826v2.882c0 .185-.006.38-.019.586-.006.205-.019.4-.038.586a6.233 6.233 0 01-.048.46l2.132-4.514h1.105v5.283h-.826v-2.882c0-.186.003-.38.009-.586.013-.205.029-.4.049-.586l.048-.47-2.133 4.524h-1.105zm7.669.096c-.417 0-.782-.083-1.095-.25a1.805 1.805 0 01-.721-.7 2.21 2.21 0 01-.25-1.067V80.71c0-.41.084-.766.25-1.067.173-.3.413-.534.721-.7.313-.167.678-.25 1.095-.25.416 0 .778.083 1.085.25.314.166.554.4.721.7.173.301.259.657.259 1.067v.932h-3.285v.509c0 .416.105.736.317.96.211.218.512.327.903.327.333 0 .602-.057.807-.173a.76.76 0 00.374-.538h.865a1.472 1.472 0 01-.653 1.057c-.372.256-.836.384-1.393.384zm1.22-3.103v-.355c0-.416-.106-.737-.317-.96-.205-.225-.506-.337-.903-.337-.391 0-.692.112-.903.336-.212.224-.317.545-.317.96v.28h2.507l-.067.076zm2.49 3.007V78.79h2.287c.551 0 .976.124 1.277.374.302.244.452.586.452 1.028 0 .365-.125.66-.375.884-.249.218-.579.327-.989.327v-.077c.448 0 .807.112 1.076.336.275.224.413.525.413.903 0 .474-.16.845-.48 1.114-.321.263-.769.394-1.345.394h-2.316zm.846-.759h1.47c.307 0 .544-.067.711-.201a.68.68 0 00.259-.567c0-.25-.087-.442-.259-.577-.167-.134-.404-.201-.711-.201h-1.47v1.546zm0-2.296h1.441c.269 0 .48-.064.634-.192.16-.128.24-.307.24-.538 0-.23-.077-.41-.231-.538-.153-.134-.368-.201-.643-.201h-1.441v1.47zM13.903 103.073V97.79h.826v2.882c0 .185-.006.381-.019.586a8.2 8.2 0 01-.038.586 6.053 6.053 0 01-.049.461l2.133-4.516h1.105v5.284h-.826v-2.882c0-.186.003-.38.01-.586.012-.205.028-.4.047-.586l.049-.47-2.133 4.524h-1.105zm12.926 0v-4.524h-1.921v-.76h4.707v.76h-1.921v4.524h-.865zm6.122.096a2.31 2.31 0 01-1.095-.249 1.812 1.812 0 01-.72-.702 2.203 2.203 0 01-.25-1.066v-1.441c0-.41.083-.766.25-1.067.172-.3.412-.534.72-.7.314-.167.679-.25 1.095-.25.416 0 .778.083 1.085.25.314.166.554.4.721.7.173.301.26.657.26 1.067v.932H31.73v.509c0 .416.106.736.317.961.211.217.512.326.903.326.333 0 .602-.057.807-.173a.762.762 0 00.375-.538h.864a1.473 1.473 0 01-.653 1.057c-.372.256-.836.384-1.393.384zm1.22-3.103v-.355c0-.416-.106-.737-.317-.96-.205-.225-.506-.337-.903-.337-.39 0-.692.112-.903.336-.211.224-.317.545-.317.96v.28h2.507l-.067.076zm2.068 3.007l1.873-2.718-1.758-2.566h1.019l1.047 1.634c.044.07.086.147.125.23.044.084.08.15.105.202.02-.051.048-.118.087-.202.044-.083.09-.16.134-.23l1.057-1.633h1.009l-1.758 2.574 1.863 2.709h-1.018l-1.134-1.729a2.6 2.6 0 01-.134-.24 2.11 2.11 0 00-.106-.231 3.669 3.669 0 01-.115.231c-.045.09-.093.17-.144.24l-1.143 1.729h-1.009zm6.112 0V97.79h.865v2.2h2.229v-2.2h.864v5.283h-.864v-2.296h-2.23v2.296h-.864zm5.69 0V97.79h.826v2.882c0 .185-.006.381-.02.586a8.2 8.2 0 01-.038.586 6.11 6.11 0 01-.047.461l2.132-4.516H52v5.284h-.826v-2.882c0-.186.003-.38.01-.586.012-.205.028-.4.047-.586l.048-.47-2.132 4.524H48.04zm8.725 0v-1.921a4.19 4.19 0 01-.47.077 7.082 7.082 0 01-.654.029c-.653.006-1.162-.151-1.527-.471-.359-.327-.538-.782-.538-1.364V97.79h.864v1.633c0 .326.11.586.327.778.224.186.532.278.922.278.27 0 .497-.009.683-.028a3.38 3.38 0 00.393-.068V97.79h.865v5.283h-.865zm4.633.096a2.31 2.31 0 01-1.095-.249 1.812 1.812 0 01-.72-.702 2.203 2.203 0 01-.25-1.066v-1.441c0-.41.083-.766.25-1.067.172-.3.413-.534.72-.7.314-.167.679-.25 1.095-.25.417 0 .778.083 1.086.25.314.166.554.4.72.7.173.301.26.657.26 1.067v.932h-3.286v.509c0 .416.106.736.317.961.212.217.513.326.903.326.333 0 .602-.057.807-.173a.762.762 0 00.375-.538h.864a1.473 1.473 0 01-.653 1.057c-.371.256-.836.384-1.393.384zm1.22-3.103v-.355c0-.416-.105-.737-.317-.96-.205-.225-.506-.337-.903-.337-.39 0-.691.112-.903.336-.211.224-.317.545-.317.96v.28h2.508l-.068.076zm4.49 3.103a2.46 2.46 0 01-1.115-.24 1.73 1.73 0 01-.73-.692c-.173-.307-.26-.669-.26-1.085v-1.441c0-.423.087-.785.26-1.086a1.73 1.73 0 01.73-.691c.32-.16.691-.24 1.114-.24.609 0 1.099.163 1.47.49.371.326.567.771.586 1.335h-.865c-.019-.34-.134-.6-.346-.778-.204-.186-.486-.279-.845-.279-.378 0-.679.109-.903.327-.224.211-.336.515-.336.912v1.451c0 .397.112.704.336.922.224.218.525.327.903.327.359 0 .64-.093.846-.279.21-.186.326-.445.345-.778h.865c-.02.564-.215 1.009-.586 1.335-.371.327-.861.49-1.47.49zm3.72-.096V97.79h.864v2.18h.903l1.537-2.18h.99l-1.778 2.517 1.806 2.766h-1.008l-1.537-2.353h-.913v2.353h-.865zm5.66 0V97.79h.826v2.882c0 .185-.006.381-.019.586a8.2 8.2 0 01-.038.586 6.053 6.053 0 01-.048.461l2.132-4.516h1.105v5.284h-.826v-2.882c0-.186.003-.38.01-.586.012-.205.028-.4.048-.586l.048-.47-2.133 4.524h-1.105zm5.267 0l1.873-2.718-1.758-2.566h1.019l1.047 1.634c.045.07.086.147.125.23.045.084.08.15.106.202.019-.051.047-.118.086-.202.045-.083.09-.16.134-.23l1.057-1.633h1.009l-1.758 2.574 1.864 2.709h-1.02l-1.133-1.729c-.045-.07-.09-.15-.135-.24a2.148 2.148 0 00-.105-.231 3.68 3.68 0 01-.116.231c-.045.09-.093.17-.144.24l-1.143 1.729h-1.009zm13.8.096c-.422 0-.794-.08-1.114-.24a1.73 1.73 0 01-.73-.692c-.173-.307-.26-.669-.26-1.085v-1.441c0-.423.087-.785.26-1.086a1.73 1.73 0 01.73-.691c.32-.16.692-.24 1.114-.24.609 0 1.099.163 1.47.49.372.326.567.771.586 1.335h-.864c-.02-.34-.135-.6-.346-.778-.205-.186-.487-.279-.846-.279-.377 0-.678.109-.903.327-.224.211-.336.515-.336.912v1.451c0 .397.112.704.336.922.224.218.525.327.903.327.36 0 .64-.093.846-.279.211-.186.326-.445.346-.778h.864c-.019.564-.214 1.009-.586 1.335-.371.327-.861.49-1.47.49zm3.692-.096V97.79h3.958v5.283h-.865v-4.496h-2.229v4.496h-.864zm7.668.096a2.31 2.31 0 01-1.095-.249 1.814 1.814 0 01-.72-.702 2.197 2.197 0 01-.25-1.066v-1.441c0-.41.083-.766.25-1.067a1.81 1.81 0 01.72-.7c.314-.167.679-.25 1.095-.25.417 0 .779.083 1.086.25.314.166.554.4.721.7.172.301.259.657.259 1.067v.932h-3.286v.509c0 .416.106.736.317.961.212.217.513.326.903.326.334 0 .603-.057.807-.173a.763.763 0 00.375-.538h.865a1.474 1.474 0 01-.654 1.057c-.371.256-.835.384-1.393.384zm1.221-3.103v-.355c0-.416-.106-.737-.317-.96-.205-.225-.506-.337-.904-.337-.39 0-.691.112-.903.336-.211.224-.317.545-.317.96v.28h2.508l-.067.076zm6.246 4.352v-1.345h-3.756V97.79h.865v4.515h2.075v-4.516h.864v4.516h.721v2.113h-.769zm1.934-1.345V97.79h.826v2.882c0 .185-.006.381-.019.586-.007.205-.019.4-.039.586a5.376 5.376 0 01-.048.461l2.133-4.516h1.105v5.284h-.826v-2.882c0-.186.003-.38.009-.586.013-.205.029-.4.048-.586l.048-.47-2.132 4.524h-1.105zm7.284 1.729v-1.729c-.615 0-1.098-.173-1.45-.519-.353-.345-.529-.819-.529-1.421v-1.422c0-.596.176-1.063.529-1.403.358-.346.842-.519 1.45-.519V96.06h.769v1.73c.615 0 1.098.172 1.45.518.353.34.529.807.529 1.403v1.422c0 .602-.176 1.076-.529 1.421-.352.346-.835.519-1.45.519v1.729h-.769zm.019-2.411v-3.92c-.371 0-.662.11-.874.327-.211.218-.317.522-.317.913v1.422c0 .39.106.698.317.922.212.224.503.336.874.336zm.731 0c.377 0 .669-.112.874-.336.211-.224.317-.532.317-.922v-1.422c0-.39-.106-.695-.317-.913-.205-.218-.497-.326-.874-.326v3.919zm3.345.682V97.79h.826v2.882c0 .185-.006.381-.019.586-.006.205-.019.4-.038.586a6.326 6.326 0 01-.048.461l2.132-4.516h1.105v5.284h-.826v-2.882c0-.186.003-.38.01-.586.012-.205.028-.4.048-.586l.048-.47-2.133 4.524h-1.105zm5.719 0V97.79h.864v2.18h.903l1.537-2.18h.99l-1.777 2.517 1.806 2.766h-1.009l-1.537-2.353h-.913v2.353h-.864zm7.178.096c-.557 0-.996-.141-1.316-.422-.32-.289-.48-.676-.48-1.163 0-.493.16-.88.48-1.162.32-.282.753-.423 1.297-.423h1.633v-.528c0-.327-.099-.577-.298-.75-.192-.179-.467-.269-.826-.269-.314 0-.576.068-.788.202a.719.719 0 00-.365.529h-.864c.057-.455.272-.817.643-1.086.372-.269.836-.403 1.393-.403.609 0 1.089.156 1.441.47.353.314.529.74.529 1.278v3.631h-.846v-1.008h-.144l.144-.145c0 .385-.15.689-.451.913-.295.224-.689.336-1.182.336zm.212-.682c.41 0 .746-.102 1.008-.307a.956.956 0 00.394-.788v-.749h-1.614c-.288 0-.515.08-.682.24-.166.16-.25.378-.25.653 0 .295.1.529.298.701.205.167.487.25.846.25zm7.716 1.931v-1.345h-3.756V97.79h.865v4.515h2.075v-4.516h.864v4.516h.721v2.113h-.769zm1.934-1.345V97.79h.826v2.882c0 .185-.006.381-.019.586-.007.205-.02.4-.039.586a6.326 6.326 0 01-.048.461l2.133-4.516h1.105v5.284h-.826v-2.882c0-.186.003-.38.009-.586.013-.205.029-.4.048-.586l.048-.47-2.132 4.524h-1.105zm5.689 0V97.79h.827v2.882c0 .185-.007.381-.02.586-.006.205-.019.4-.038.586a6.326 6.326 0 01-.048.461l2.133-4.516h1.104v5.284h-.826v-2.882c0-.186.003-.38.01-.586.013-.205.029-.4.048-.586l.048-.47-2.133 4.524h-1.105zm2.018-6.148c-.461 0-.833-.128-1.115-.384-.281-.257-.422-.593-.422-1.01h.682c0 .25.077.453.23.606.154.154.359.23.615.23.263 0 .471-.076.625-.23a.801.801 0 00.24-.605h.682c0 .416-.141.752-.423 1.009-.282.256-.653.384-1.114.384zm5.651 6.244c-.243 0-.439-.07-.586-.211-.141-.141-.211-.33-.211-.567 0-.25.07-.448.211-.595.147-.148.343-.221.586-.221.243 0 .436.073.576.221.148.147.221.345.221.595 0 .237-.073.426-.221.567-.14.141-.333.211-.576.211z" fill="#fff"/><defs><filter id="filter0_d_440_681" x=".157" y="0" width="179.685" height="144.685" filterUnits="userSpaceOnUse" color-interpolation-filters="sRGB"><feFlood flood-opacity="0" result="BackgroundImageFix"/><feColorMatrix in="SourceAlpha" values="0 0 0 0 0 0 0 0 0 0 0 0 0 0 0 0 0 0 127 0" result="hardAlpha"/><feOffset dy="3.843"/><feGaussianBlur stdDeviation="1.921"/><feComposite in2="hardAlpha" operator="out"/><feColorMatrix values="0 0 0 0 0 0 0 0 0 0 0 0 0 0 0 0 0 0 0.25 0"/><feBlend in2="BackgroundImageFix" result="effect1_dropShadow_440_681"/><feBlend in="SourceGraphic" in2="effect1_dropShadow_440_681" result="shape"/></filter></defs></svg>