<svg width="180" height="143" fill="none" xmlns="http://www.w3.org/2000/svg"><g filter="url(#filter0_d_440_810)"><rect x="4" width="172" height="135" rx="16.004" fill="#978A49"/></g><path d="M14.903 50.01v-7.009h3.956v7.01h-.865v-6.223h-2.227v6.223h-.864zm7.665.078c-.423 0-.788-.08-1.095-.24a1.742 1.742 0 01-.72-.692c-.167-.307-.25-.669-.25-1.085V46.67c0-.422.083-.784.25-1.085.173-.3.413-.531.72-.691.307-.16.672-.24 1.095-.24.422 0 .787.08 1.094.24.308.16.544.39.71.691.174.301.26.66.26 1.076v1.411c0 .416-.086.778-.26 1.085a1.667 1.667 0 01-.71.691c-.307.16-.672.24-1.094.24zm0-.769c.377 0 .672-.105.883-.317.211-.21.317-.521.317-.93v-1.403c0-.41-.106-.72-.317-.931-.211-.212-.506-.317-.883-.317-.372 0-.666.105-.884.317-.211.211-.317.522-.317.931v1.402c0 .41.106.72.317.931.218.212.512.317.884.317zm3.046.759v-.807h.173c.294 0 .5-.115.614-.345.122-.23.186-.644.192-1.239l.058-2.957h3.582v5.28h-.865v-4.493h-1.862l-.048 2.208c-.013.557-.077 1.009-.192 1.354-.11.346-.282.599-.519.759-.23.16-.535.24-.912.24h-.221zm7.156 1.661l.778-2.055-1.959-4.954h.96l1.23 3.264c.044.11.086.24.124.394l.096.375.096-.375c.038-.154.077-.285.115-.394l1.153-3.264h.931l-2.602 7.01h-.922zm7.915-1.728v-1.92c-.103.025-.26.05-.47.076a7.01 7.01 0 01-.654.029c-.653.006-1.162-.15-1.526-.47-.359-.327-.538-.782-.538-1.364v-1.633h.864v1.633c0 .326.109.586.326.778.224.185.532.278.922.278.27 0 .496-.01.682-.029a3.52 3.52 0 00.394-.067V44.73h.864v5.282h-.864zm2.652 0v-5.282h.826v2.881c0 .186-.006.381-.02.586-.005.205-.018.4-.038.586a5.78 5.78 0 01-.047.46l2.131-4.512h1.104v5.28h-.825v-2.88c0-.186.003-.38.01-.586.012-.204.028-.4.047-.585l.048-.47-2.131 4.522h-1.105zm5.025.067v-.807h.173c.294 0 .499-.115.614-.345.122-.23.186-.644.192-1.239l.058-2.957h3.581v5.28h-.864v-4.493h-1.863l-.048 2.208c-.012.557-.076 1.009-.192 1.354-.108.346-.281.599-.518.759-.23.16-.535.24-.912.24h-.221zm6.35-.067v-5.282h.825v2.881c0 .186-.006.381-.02.586-.006.205-.018.4-.038.586a5.306 5.306 0 01-.048.46l2.132-4.512h1.104v5.28h-.825v-2.88c0-.186.003-.38.01-.586.012-.204.028-.4.047-.585l.048-.47-2.132 4.522h-1.104zm13.351.077c-.422 0-.787-.08-1.094-.24a1.743 1.743 0 01-.72-.692c-.167-.307-.25-.669-.25-1.085V46.67c0-.422.083-.784.25-1.085.172-.3.412-.531.72-.691.307-.16.672-.24 1.094-.24.423 0 .788.08 1.095.24.307.16.544.39.71.691.173.301.26.66.26 1.076v1.411c0 .416-.087.778-.26 1.085a1.673 1.673 0 01-.71.691c-.307.16-.672.24-1.095.24zm0-.769c.378 0 .672-.105.884-.317.21-.21.316-.521.316-.93v-1.403c0-.41-.105-.72-.316-.931-.212-.212-.506-.317-.884-.317-.371 0-.666.105-.883.317-.212.211-.317.522-.317.931v1.402c0 .41.106.72.317.931.217.212.512.317.883.317zm5.687.788c-.62 0-1.114-.183-1.479-.548-.358-.37-.537-.877-.537-1.517v-2.4c0-.845.21-1.495.633-1.95.423-.46 1.028-.69 1.815-.69h1.344v.863h-1.344c-.518 0-.912.154-1.18.461-.27.301-.404.74-.404 1.316v.624h.134l-.134.192c.006-.378.134-.672.384-.883.25-.212.589-.317 1.018-.317.557 0 .989.179 1.296.537.314.359.47.852.47 1.48v.767c0 .43-.08.797-.24 1.105-.16.307-.39.544-.69.71-.302.166-.663.25-1.086.25zm0-.768c.371 0 .656-.112.855-.337.198-.224.297-.544.297-.96v-.768c0-.416-.099-.736-.297-.96-.199-.224-.484-.336-.855-.336s-.656.112-.855.336c-.198.218-.297.538-.297.96v.768c0 .416.1.736.297.96.199.225.484.337.855.337zm3.69 2.4v-7.01h.864v1.009h.173l-.173.201c0-.403.131-.72.394-.95.269-.237.62-.355 1.056-.355.531 0 .954.176 1.267.528.32.345.48.822.48 1.43v1.546c0 .404-.073.753-.22 1.047a1.57 1.57 0 01-.605.682c-.256.16-.564.24-.922.24-.429 0-.778-.119-1.047-.355-.269-.237-.403-.554-.403-.951l.173.201h-.192l.019 1.2v1.537h-.864zm2.026-2.381c.365 0 .65-.109.855-.327.21-.217.316-.531.316-.94V46.65c0-.41-.105-.723-.317-.941-.204-.218-.49-.327-.854-.327-.352 0-.634.113-.845.337-.211.224-.317.534-.317.931v1.44c0 .397.106.708.317.932.211.224.493.336.845.336zm5.197.749c-.557 0-.995-.141-1.315-.423-.32-.288-.48-.675-.48-1.162 0-.492.16-.88.48-1.161.32-.282.752-.423 1.296-.423h1.632v-.528c0-.326-.099-.576-.297-.749-.192-.18-.468-.269-.826-.269-.314 0-.576.067-.788.202a.717.717 0 00-.364.528h-.865c.058-.455.272-.816.644-1.085.371-.269.835-.404 1.392-.404.608 0 1.088.157 1.44.471.352.314.529.74.529 1.277v3.63h-.846v-1.009h-.144l.145-.144c0 .385-.151.689-.452.913-.294.224-.688.336-1.18.336zm.211-.682c.41 0 .746-.102 1.009-.307a.956.956 0 00.393-.788v-.749h-1.613c-.288 0-.515.08-.682.24-.166.16-.25.378-.25.653 0 .295.1.529.298.701.205.167.487.25.845.25zm5.505.586v-4.523h-1.92v-.758h4.704v.758h-1.92v4.523h-.864zm4.14 0v-5.282h.865v2.2h2.228v-2.2h.864v5.282h-.864v-2.295h-2.228v2.295h-.864zm6.494 1.728l.778-2.055-1.959-4.954h.961l1.229 3.264c.044.11.086.24.124.394.039.147.071.272.096.375l.096-.375a4.4 4.4 0 01.116-.394l1.152-3.264h.931l-2.602 7.01h-.922zm7.685-1.632c-.442 0-.797-.15-1.066-.451-.269-.301-.404-.695-.404-1.182v-.797h-.845v2.334h-.797v-5.282h.797v2.257h.845v-.72c0-.493.132-.887.394-1.181.269-.301.627-.452 1.076-.452.473 0 .854.151 1.142.452.288.294.432.688.432 1.18v2.21c0 .486-.144.88-.432 1.18-.288.301-.669.452-1.142.452zm0-.672c.243 0 .432-.084.566-.25.141-.173.211-.41.211-.71v-2.21c0-.3-.07-.534-.211-.7-.134-.173-.323-.26-.566-.26a.666.666 0 00-.557.26c-.135.166-.202.4-.202.7v2.21c0 .3.067.537.202.71.134.166.32.25.557.25zm10.567.672a2.46 2.46 0 01-1.114-.24 1.729 1.729 0 01-.73-.692c-.173-.307-.259-.669-.259-1.085v-1.44c0-.422.086-.784.259-1.085.173-.3.416-.531.73-.691.32-.16.691-.24 1.114-.24.608 0 1.098.163 1.469.49.371.326.567.77.586 1.334h-.864c-.02-.34-.135-.599-.346-.778-.205-.185-.487-.278-.845-.278-.378 0-.679.108-.903.326-.224.211-.336.515-.336.912v1.45c0 .397.112.704.336.922.224.218.525.327.903.327.358 0 .64-.093.845-.279.211-.186.326-.445.346-.778h.864c-.019.564-.215 1.009-.586 1.335-.371.327-.861.49-1.469.49zm3.69-.096v-5.282h2.285c.55 0 .976.125 1.277.375.301.243.451.586.451 1.028 0 .364-.125.659-.374.883-.25.218-.58.326-.989.326v-.077c.448 0 .806.112 1.075.337.276.224.413.525.413.902 0 .474-.16.845-.48 1.114-.32.263-.768.394-1.344.394h-2.314zm.845-.759h1.469c.307 0 .544-.067.71-.202.173-.134.26-.323.26-.566 0-.25-.087-.442-.26-.576-.166-.135-.403-.202-.71-.202H123.8v1.546zm0-2.295h1.44c.269 0 .48-.064.634-.192.16-.128.24-.307.24-.538 0-.23-.077-.41-.231-.537-.153-.135-.368-.202-.643-.202h-1.44v1.47zm4.515 3.054l1.354-2.036c-.403-.096-.717-.282-.941-.557-.218-.275-.327-.618-.327-1.027 0-.519.17-.925.509-1.22.346-.294.817-.441 1.412-.441h2.276v5.28h-.865v-1.968h-1.161l-1.249 1.969h-1.008zm2.007-2.737h1.411v-1.776h-1.411c-.32 0-.573.08-.759.24-.185.153-.278.371-.278.653 0 .275.093.493.278.653.186.153.439.23.759.23zm5.735 2.804c-.557 0-1.015-.119-1.373-.355a1.41 1.41 0 01-.634-.96h.912c.045.16.163.29.356.393.198.103.444.154.739.154h.451c.314 0 .557-.074.73-.221a.71.71 0 00.269-.576c0-.256-.087-.458-.259-.605-.167-.147-.413-.221-.74-.221h-1.162v-.749h1.133c.295 0 .519-.07.673-.211a.721.721 0 00.23-.557.723.723 0 00-.106-.403.61.61 0 00-.297-.25 1.245 1.245 0 00-.49-.087h-.48c-.256 0-.477.058-.663.173-.185.116-.297.256-.336.423h-.912c.064-.397.272-.724.624-.98s.781-.384 1.287-.384h.48c.378 0 .701.061.97.183a1.326 1.326 0 01.835 1.277c0 .313-.102.573-.307.778-.205.198-.493.31-.864.336v.038c.454.032.784.154.989.365.205.211.307.515.307.912 0 .468-.173.839-.519 1.114-.345.275-.809.413-1.392.413h-.451zm3.997-.067v-5.282h.864v1.94h1.556c.595 0 1.062.15 1.402.452.345.294.518.7.518 1.219 0 .512-.173.919-.518 1.22-.346.3-.813.45-1.402.45h-2.42zm.864-.788h1.556c.332 0 .585-.073.758-.22.179-.154.269-.375.269-.663 0-.288-.09-.506-.269-.653-.173-.154-.426-.23-.758-.23h-1.556v1.766zm12.449.865c-.422 0-.787-.08-1.094-.24a1.733 1.733 0 01-.72-.692c-.167-.307-.25-.669-.25-1.085V46.67c0-.422.083-.784.25-1.085.172-.3.412-.531.72-.691.307-.16.672-.24 1.094-.24.423 0 .788.08 1.095.24.307.16.544.39.711.691.172.301.259.66.259 1.076v1.411c0 .416-.087.778-.259 1.085a1.68 1.68 0 01-.711.691c-.307.16-.672.24-1.095.24zm0-.769c.378 0 .673-.105.884-.317.211-.21.317-.521.317-.93v-1.403c0-.41-.106-.72-.317-.931-.211-.212-.506-.317-.884-.317-.371 0-.665.105-.883.317-.211.211-.317.522-.317.931v1.402c0 .41.106.72.317.931.218.212.512.317.883.317zm5.255.692v-4.523h-1.92v-.758h4.705v.758h-1.921v4.523h-.864zm-143.729 19V62h1.988c.64 0 1.14.16 1.498.48.364.32.547.765.547 1.335 0 .32-.067.599-.202.835a1.36 1.36 0 01-.576.548c-.243.128-.538.189-.883.182v-.144c.371-.006.691.064.96.211.275.148.486.359.634.634.153.275.23.602.23.98 0 .396-.083.742-.25 1.037a1.698 1.698 0 01-.71.681c-.307.154-.675.23-1.104.23h-2.132zm.845-.778h1.19c.404 0 .72-.106.951-.317.237-.218.356-.512.356-.883 0-.384-.119-.695-.356-.932-.23-.243-.547-.365-.95-.365h-1.191v2.497zm0-3.246h1.133c.371 0 .663-.099.874-.297.217-.199.326-.468.326-.807 0-.34-.105-.608-.317-.806-.21-.199-.502-.298-.873-.298h-1.143v2.208zm6.369 4.12c-.557 0-.996-.141-1.316-.423-.32-.288-.48-.675-.48-1.162 0-.493.16-.88.48-1.162.32-.281.752-.422 1.296-.422h1.633v-.528c0-.326-.1-.576-.298-.749-.192-.18-.467-.269-.826-.269-.313 0-.576.067-.787.202a.718.718 0 00-.365.528h-.864c.058-.455.272-.816.643-1.085.372-.269.836-.404 1.393-.404.608 0 1.088.157 1.44.471.352.314.528.74.528 1.277v3.63h-.845v-1.008h-.144l.144-.144c0 .384-.15.688-.451.912-.295.224-.688.336-1.181.336zm.21-.682c.41 0 .747-.102 1.01-.307a.956.956 0 00.393-.788v-.749h-1.613c-.288 0-.516.08-.682.24-.166.16-.25.378-.25.653 0 .295.1.528.298.701.205.167.486.25.845.25zm3.94.586V63.73h.864v1.008h.183l-.182.201c0-.416.124-.736.374-.96.25-.23.595-.346 1.037-.346.531 0 .954.164 1.267.49.314.327.471.772.471 1.335v3.553h-.864v-3.457c0-.378-.103-.666-.308-.864-.198-.205-.47-.308-.816-.308-.358 0-.643.11-.854.327-.205.218-.307.531-.307.941v3.36h-.865zm7.521.077c-.358 0-.672-.055-.94-.164a1.604 1.604 0 01-.635-.48 1.468 1.468 0 01-.278-.73h.864a.679.679 0 00.307.442c.173.109.4.163.682.163h.404c.339 0 .592-.067.758-.201a.693.693 0 00.25-.557.65.65 0 00-.23-.528c-.148-.135-.369-.224-.663-.27l-.71-.114c-.52-.09-.907-.25-1.163-.48-.25-.237-.374-.58-.374-1.028 0-.474.15-.839.451-1.095.301-.262.752-.393 1.354-.393h.365c.506 0 .912.118 1.22.355.307.237.492.557.556.96h-.864a.615.615 0 00-.288-.394c-.154-.102-.362-.153-.624-.153h-.365c-.326 0-.566.06-.72.182-.147.122-.22.304-.22.548 0 .217.063.377.191.48.128.102.33.176.605.22l.71.116c.57.09.983.256 1.24.5.262.242.393.594.393 1.055 0 .487-.157.871-.47 1.153-.308.275-.775.413-1.403.413h-.403zm4.679 1.651l.778-2.055-1.96-4.954h.961l1.23 3.264c.044.11.086.24.124.394l.096.374.096-.374c.039-.154.077-.285.115-.394l1.153-3.264h.931l-2.602 7.01h-.922zm6.695-1.651c-.358 0-.672-.055-.94-.164a1.604 1.604 0 01-.635-.48 1.468 1.468 0 01-.278-.73h.864a.679.679 0 00.307.442c.173.109.4.163.682.163h.403c.34 0 .593-.067.759-.201a.694.694 0 00.25-.557.65.65 0 00-.23-.528c-.148-.135-.369-.224-.663-.27l-.71-.114c-.52-.09-.907-.25-1.163-.48-.25-.237-.374-.58-.374-1.028 0-.474.15-.839.451-1.095.3-.262.752-.393 1.354-.393h.365c.506 0 .912.118 1.22.355.307.237.492.557.556.96h-.864a.615.615 0 00-.288-.394c-.154-.102-.362-.153-.624-.153h-.365c-.326 0-.567.06-.72.182-.147.122-.221.304-.221.548 0 .217.064.377.192.48.128.102.33.176.605.22l.71.116c.57.09.983.256 1.24.5.262.242.393.594.393 1.055 0 .487-.157.871-.47 1.153-.308.275-.775.413-1.403.413h-.403zm9.56-.077V63.73h.825v2.88c0 .186-.006.381-.02.586-.006.205-.018.4-.038.586a5.306 5.306 0 01-.048.46l2.132-4.513h1.104v5.282h-.825v-2.88c0-.187.003-.382.01-.587.012-.204.028-.4.047-.585l.048-.47-2.132 4.522h-1.104zm11.373 0V63.73h2.285c.551 0 .977.124 1.277.374.301.243.452.586.452 1.028 0 .364-.125.659-.375.883-.25.218-.579.326-.989.326v-.076c.448 0 .807.111 1.076.336.275.224.413.525.413.902 0 .474-.16.845-.48 1.114-.32.262-.769.394-1.345.394h-2.314zm.845-.759h1.47c.306 0 .543-.067.71-.201a.679.679 0 00.26-.567c0-.25-.087-.442-.26-.576-.167-.135-.403-.202-.71-.202h-1.47v1.546zm0-2.295h1.44c.27 0 .48-.064.634-.192.16-.128.24-.307.24-.537 0-.231-.077-.41-.23-.538-.154-.135-.368-.202-.644-.202h-1.44v1.47zm4.842 3.054V63.73h.864v2.198h2.228V63.73h.864v5.28h-.864v-2.294h-2.228v2.295h-.864zm7.665.096c-.416 0-.78-.084-1.095-.25a1.806 1.806 0 01-.72-.7 2.202 2.202 0 01-.25-1.067v-1.44c0-.41.084-.765.25-1.066.173-.3.413-.534.72-.7.314-.167.679-.25 1.095-.25.416 0 .778.083 1.085.25.314.166.554.4.72.7.173.301.26.656.26 1.066v.931h-3.284v.51c0 .415.105.736.316.96.212.217.513.326.903.326.333 0 .602-.058.807-.173a.76.76 0 00.374-.538h.864a1.471 1.471 0 01-.653 1.057c-.37.256-.835.384-1.392.384zm1.22-3.102v-.355c0-.416-.106-.736-.317-.96-.205-.224-.506-.336-.903-.336-.39 0-.691.112-.903.336-.21.224-.316.544-.316.96v.278h2.506l-.068.077zm4.486 3.102a2.46 2.46 0 01-1.114-.24 1.729 1.729 0 01-.73-.692c-.172-.307-.259-.669-.259-1.085v-1.44c0-.422.087-.784.26-1.085.172-.3.416-.531.73-.691.32-.16.69-.24 1.113-.24.608 0 1.098.163 1.47.49.37.326.566.77.585 1.334h-.864c-.02-.34-.135-.599-.346-.778-.205-.186-.486-.278-.845-.278-.377 0-.678.108-.902.326-.224.211-.337.516-.337.912v1.45c0 .397.113.704.337.922.224.218.525.327.902.327.359 0 .64-.093.845-.279.212-.186.327-.445.346-.778h.864c-.02.564-.214 1.009-.586 1.335-.37.326-.86.49-1.469.49zm3.027-.029v-.807h.173c.295 0 .5-.115.615-.345.121-.23.185-.644.192-1.239l.057-2.957h3.582v5.28h-.864v-4.493h-1.863l-.048 2.208c-.013.557-.077 1.009-.192 1.354-.109.346-.282.599-.519.759-.23.16-.534.24-.912.24h-.22zm6.35-.067V63.73h.826v2.88c0 .186-.007.381-.02.586-.006.205-.019.4-.038.586a6.233 6.233 0 01-.048.46l2.132-4.513h1.104v5.282h-.826v-2.88c0-.187.003-.382.01-.587.013-.204.029-.4.048-.585l.048-.47-2.132 4.522H94.52zm11.374 0V63.73h.864v2.198h2.228V63.73h.864v5.28h-.864v-2.294h-2.228v2.295h-.864zm7.665.096a2.31 2.31 0 01-1.095-.25 1.809 1.809 0 01-.72-.7 2.208 2.208 0 01-.25-1.067v-1.44c0-.41.084-.765.25-1.066.173-.3.413-.534.72-.7.314-.167.679-.25 1.095-.25.416 0 .778.083 1.085.25.313.166.554.4.72.7.173.301.259.656.259 1.066v.931h-3.284v.51c0 .415.106.736.317.96.211.217.512.326.903.326.333 0 .601-.058.806-.173a.76.76 0 00.375-.538h.864a1.472 1.472 0 01-.653 1.057c-.371.256-.835.384-1.392.384zm1.219-3.102v-.355c0-.416-.105-.736-.317-.96-.204-.224-.505-.336-.902-.336-.391 0-.692.112-.903.336-.211.224-.317.544-.317.96v.278h2.506l-.067.077zm4.468 3.083c-.423 0-.788-.08-1.095-.24a1.745 1.745 0 01-.72-.692c-.167-.307-.25-.669-.25-1.085V65.67c0-.422.083-.784.25-1.085.173-.3.413-.531.72-.691.307-.16.672-.24 1.095-.24.422 0 .787.08 1.094.24.308.16.544.39.711.691.173.301.259.66.259 1.076v1.411c0 .416-.086.778-.259 1.085a1.68 1.68 0 01-.711.691c-.307.16-.672.24-1.094.24zm0-.769c.377 0 .672-.105.883-.317.211-.21.317-.521.317-.93v-1.403c0-.41-.106-.72-.317-.931-.211-.212-.506-.317-.883-.317-.372 0-.666.105-.884.317-.211.211-.317.522-.317.931v1.402c0 .41.106.72.317.931.218.212.512.317.884.317zm5.687.788c-.621 0-1.114-.183-1.479-.548-.359-.37-.538-.877-.538-1.517v-2.4c0-.845.211-1.495.634-1.95.422-.46 1.027-.69 1.815-.69h1.344v.863h-1.344c-.519 0-.912.154-1.181.461-.269.301-.404.74-.404 1.316v.624h.135l-.135.192c.007-.378.135-.672.384-.883.25-.212.589-.317 1.018-.317.557 0 .989.179 1.297.537.313.359.47.852.47 1.48v.767c0 .43-.08.797-.24 1.105a1.68 1.68 0 01-.691.71c-.301.166-.663.25-1.085.25zm0-.768c.371 0 .656-.112.854-.337.199-.224.298-.544.298-.96v-.768c0-.416-.099-.736-.298-.96-.198-.224-.483-.336-.854-.336-.372 0-.657.112-.855.336-.198.218-.298.538-.298.96v.768c0 .416.1.736.298.96.198.225.483.337.855.337zm3.286.672l1.872-2.718-1.757-2.564h1.018l1.047 1.633c.045.07.086.147.125.23.044.084.08.15.105.202.019-.051.048-.118.087-.202.044-.083.089-.16.134-.23l1.056-1.632h1.009l-1.758 2.573 1.863 2.708h-1.018l-1.133-1.729a2.704 2.704 0 01-.134-.24 2.2 2.2 0 00-.106-.23 3.524 3.524 0 01-.115.23c-.045.09-.093.17-.144.24l-1.143 1.729h-1.008zm8.088.077c-.423 0-.788-.08-1.095-.24a1.745 1.745 0 01-.72-.692c-.167-.307-.25-.669-.25-1.085V65.67c0-.422.083-.784.25-1.085.173-.3.413-.531.72-.691.307-.16.672-.24 1.095-.24.422 0 .787.08 1.094.24.307.16.544.39.711.691.173.301.259.66.259 1.076v1.411c0 .416-.086.778-.259 1.085a1.686 1.686 0 01-.711.691c-.307.16-.672.24-1.094.24zm0-.769c.377 0 .672-.105.883-.317.211-.21.317-.521.317-.93v-1.403c0-.41-.106-.72-.317-.931-.211-.212-.506-.317-.883-.317-.372 0-.666.105-.884.317-.211.211-.317.522-.317.931v1.402c0 .41.106.72.317.931.218.212.512.317.884.317zm3.094 2.036v-2.084h.432c.109-.108.221-.323.336-.643.122-.32.186-.727.192-1.22l.058-2.678h3.447v4.541h.672v2.084h-.768v-1.344h-3.601v1.344h-.768zm1.344-2.084h2.257v-3.773h-1.767l-.038 1.93c-.007.505-.061.915-.164 1.229-.102.314-.198.518-.288.614zm4.957.74V63.73h.826v2.88c0 .186-.006.381-.019.586-.006.205-.019.4-.038.586a6.233 6.233 0 01-.048.46l2.131-4.513h1.104v5.282h-.825v-2.88c0-.187.003-.382.009-.587.013-.204.029-.4.048-.585l.048-.47-2.131 4.522h-1.105zm5.514 0V63.73h1.172l.691 2.026c.071.204.135.41.192.614.058.199.1.352.125.461.026-.109.064-.262.115-.46.058-.206.119-.414.183-.625l.653-2.016h1.171v5.28h-.835v-.815c0-.288.003-.602.009-.941l.02-1.028c.012-.346.025-.672.038-.98.013-.313.022-.588.029-.825l-.941 3.005h-.912l-.951-2.986c.013.288.022.647.029 1.076.013.428.022.877.029 1.344.012.467.019.912.019 1.335v.816h-.836zm5.582 0V63.73h.806v1.94h.432c.57 0 1.018.15 1.345.45.333.295.499.701.499 1.22s-.166.928-.499 1.229c-.327.294-.775.442-1.345.442h-1.238zm.806-.692h.432c.34 0 .602-.086.788-.259.192-.173.288-.413.288-.72s-.096-.547-.288-.72c-.186-.173-.448-.26-.788-.26h-.432v1.96zm2.9.692V63.73h.807v5.28h-.807zm4.237.096c-.416 0-.781-.084-1.094-.25a1.805 1.805 0 01-.721-.7 2.207 2.207 0 01-.249-1.067v-1.44c0-.41.083-.765.249-1.066.173-.3.413-.534.721-.7a2.29 2.29 0 011.094-.25c.416 0 .778.083 1.085.25.314.166.554.4.72.7.173.301.26.656.26 1.066v.931h-3.284v.51c0 .415.105.736.317.96.211.217.512.326.902.326.333 0 .602-.058.807-.173a.76.76 0 00.374-.538h.865a1.475 1.475 0 01-.653 1.057c-.372.256-.836.384-1.393.384zm1.22-3.102v-.355c0-.416-.106-.736-.317-.96-.205-.224-.506-.336-.903-.336-.39 0-.691.112-.902.336-.212.224-.317.544-.317.96v.278h2.506l-.067.077zM14.903 88.011V82.73h3.956v5.28h-.865v-4.493h-2.227v4.494h-.864zm5.667 1.728v-7.01h.864v1.009h.173l-.172.201c0-.403.13-.72.393-.95.27-.237.621-.356 1.056-.356.532 0 .954.177 1.268.529.32.345.48.822.48 1.43v1.546c0 .404-.074.752-.22 1.047a1.57 1.57 0 01-.606.682c-.256.16-.563.24-.922.24-.428 0-.777-.119-1.046-.356-.269-.236-.404-.553-.404-.95l.173.201h-.192l.02 1.2v1.537h-.865zm2.026-2.381c.365 0 .65-.109.855-.327.211-.217.317-.531.317-.94V84.65c0-.41-.106-.723-.317-.941-.205-.218-.49-.327-.855-.327-.352 0-.633.112-.845.337-.21.224-.317.534-.317.931v1.44c0 .397.106.708.317.932.212.224.493.336.845.336zm5.198.749c-.557 0-.996-.141-1.316-.423-.32-.288-.48-.675-.48-1.162 0-.493.16-.88.48-1.162.32-.281.752-.422 1.296-.422h1.633v-.528c0-.326-.1-.576-.298-.749-.192-.18-.467-.269-.826-.269-.313 0-.576.067-.787.202a.717.717 0 00-.365.528h-.864c.058-.455.272-.816.643-1.085.372-.269.836-.404 1.393-.404.608 0 1.088.157 1.44.471.352.314.528.74.528 1.277v3.63h-.845v-1.008h-.144l.144-.144c0 .384-.15.688-.451.912-.295.224-.688.336-1.181.336zm.21-.682c.41 0 .747-.102 1.01-.307a.956.956 0 00.393-.788v-.749h-1.613c-.288 0-.516.08-.682.24-.167.16-.25.378-.25.653 0 .295.1.528.298.701.205.167.486.25.845.25zm3.96.586V82.73h2.285c.55 0 .976.124 1.277.374.3.243.451.586.451 1.028 0 .364-.125.659-.374.883-.25.218-.58.326-.99.326v-.076c.449 0 .807.111 1.076.336.275.224.413.525.413.902 0 .474-.16.845-.48 1.114-.32.262-.768.394-1.344.394h-2.315zm.844-.759h1.47c.307 0 .544-.067.71-.201a.679.679 0 00.26-.567c0-.25-.087-.442-.26-.576-.166-.135-.403-.202-.71-.202h-1.47v1.546zm0-2.295h1.44c.27 0 .48-.064.635-.192.16-.128.24-.307.24-.537 0-.231-.077-.41-.23-.538-.154-.135-.369-.202-.644-.202h-1.44v1.47zm4.871 3.054V82.73h.864v2.18h.903l1.536-2.18h.99l-1.777 2.515L42 88.011h-1.008l-1.536-2.353h-.913v2.353h-.864zm5.658 0V82.73h.826v2.88c0 .186-.006.381-.02.586-.005.205-.018.4-.038.586a5.78 5.78 0 01-.047.46l2.131-4.513h1.104v5.282h-.825v-2.88c0-.187.003-.382.01-.587.012-.204.028-.4.047-.585l.048-.47-2.131 4.522h-1.105zm7.665.096c-.243 0-.438-.07-.585-.212-.141-.14-.212-.33-.212-.566 0-.25.07-.448.212-.595.147-.148.342-.221.585-.221.244 0 .436.073.576.22.148.148.221.346.221.596 0 .237-.073.426-.22.567-.141.14-.333.21-.577.21z" fill="#fff"/><defs><filter id="filter0_d_440_810" x=".159" y="0" width="179.682" height="142.682" filterUnits="userSpaceOnUse" color-interpolation-filters="sRGB"><feFlood flood-opacity="0" result="BackgroundImageFix"/><feColorMatrix in="SourceAlpha" values="0 0 0 0 0 0 0 0 0 0 0 0 0 0 0 0 0 0 127 0" result="hardAlpha"/><feOffset dy="3.841"/><feGaussianBlur stdDeviation="1.92"/><feComposite in2="hardAlpha" operator="out"/><feColorMatrix values="0 0 0 0 0 0 0 0 0 0 0 0 0 0 0 0 0 0 0.25 0"/><feBlend in2="BackgroundImageFix" result="effect1_dropShadow_440_810"/><feBlend in="SourceGraphic" in2="effect1_dropShadow_440_810" result="shape"/></filter></defs></svg>