<svg width="180" height="145" fill="none" xmlns="http://www.w3.org/2000/svg"><g filter="url(#filter0_d_440_813)"><rect x="4" width="172" height="137" rx="16.004" fill="#978A49"/></g><path d="M16.834 50l.71-1.815-2.064-5.195h.941l1.258 3.428a5.863 5.863 0 01.298 1.057 7.452 7.452 0 01.259-1.057l1.104-3.428h.941L17.756 50h-.922zm6.302 0v-4.523h-1.92v-.758h4.704v.758H24V50h-.864zm4.14 0v-5.281h2.286c.55 0 .976.125 1.277.374.3.243.451.586.451 1.028 0 .365-.125.66-.374.883-.25.218-.58.327-.99.327v-.077c.449 0 .807.112 1.076.336.275.224.413.525.413.902 0 .474-.16.846-.48 1.114-.32.263-.768.394-1.344.394h-2.315zm.846-.759h1.469c.307 0 .544-.067.71-.201a.677.677 0 00.26-.567c0-.25-.087-.441-.26-.576-.166-.134-.403-.201-.71-.201h-1.47v1.545zm0-2.294h1.44c.269 0 .48-.065.634-.193.16-.128.24-.307.24-.537 0-.23-.077-.41-.23-.538-.154-.134-.369-.202-.644-.202h-1.44v1.47zm6.82 3.149c-.417 0-.782-.083-1.095-.25a1.807 1.807 0 01-.72-.7 2.202 2.202 0 01-.25-1.066v-1.44c0-.41.083-.766.25-1.067.172-.3.413-.534.72-.7a2.29 2.29 0 011.094-.25c.417 0 .778.083 1.085.25.314.166.554.4.72.7.173.301.26.657.26 1.066v.932h-3.284v.509c0 .416.106.736.317.96.211.217.512.326.902.326.333 0 .602-.057.807-.173a.76.76 0 00.375-.537h.864a1.471 1.471 0 01-.653 1.056c-.372.256-.836.384-1.393.384zm1.219-3.101v-.356c0-.416-.106-.736-.317-.96-.205-.224-.506-.336-.903-.336-.39 0-.69.112-.902.336-.211.224-.317.544-.317.96v.279h2.506l-.067.077zm2.47 4.733v-7.01h.864v1.009h.173l-.173.202c0-.404.132-.72.394-.95.269-.238.621-.356 1.056-.356.532 0 .954.176 1.268.528.32.346.48.822.48 1.43v1.547c0 .403-.074.752-.22 1.046a1.57 1.57 0 01-.606.682c-.256.16-.563.24-.922.24-.429 0-.778-.118-1.046-.355-.27-.237-.404-.554-.404-.95l.173.2h-.192l.02 1.201v1.536h-.865zm2.026-2.38c.365 0 .65-.11.855-.327.211-.218.317-.532.317-.941v-1.44c0-.41-.106-.724-.317-.942-.205-.217-.49-.326-.855-.326-.352 0-.633.112-.845.336-.211.224-.317.534-.317.931v1.44c0 .398.106.708.317.932.212.224.493.336.845.336zm3.066 1.996v-2.083h.432c.109-.11.22-.324.336-.644.122-.32.186-.726.192-1.22l.058-2.678h3.447v4.542h.672v2.083h-.768V50H44.49v1.344h-.768zm1.344-2.083h2.257v-3.774h-1.767l-.039 1.93c-.006.506-.06.915-.163 1.23-.102.313-.198.518-.288.614zm4.957.739v-5.281h.826v2.88c0 .186-.006.381-.02.586-.005.205-.018.4-.038.586-.012.18-.028.333-.048.46l2.132-4.512h1.104V50h-.825v-2.88c0-.186.003-.381.01-.586.012-.205.028-.4.047-.586l.048-.47L51.13 50h-1.105zm5.025.067v-.806h.172c.295 0 .5-.116.615-.346.122-.23.186-.643.192-1.239l.058-2.957h3.581V50h-.864v-4.494H56.94l-.048 2.209c-.013.557-.077 1.008-.192 1.354-.109.345-.281.598-.518.758-.23.16-.535.24-.913.24h-.22zm6.35-.067v-5.281h.825v2.88c0 .186-.006.381-.02.586-.006.205-.018.4-.038.586-.012.18-.028.333-.048.46l2.132-4.512h1.104V50h-.826v-2.88c0-.186.004-.381.01-.586.013-.205.029-.4.048-.586l.048-.47L62.502 50h-1.104zm12.967 1.728V50c-.615 0-1.098-.173-1.45-.519-.352-.345-.528-.819-.528-1.42v-1.422c0-.595.176-1.062.528-1.402.359-.345.842-.518 1.45-.518V42.99h.768v1.729c.615 0 1.098.173 1.45.518.352.34.528.807.528 1.402v1.421c0 .602-.176 1.076-.528 1.421-.352.346-.835.519-1.45.519v1.728h-.768zm.02-2.41v-3.917c-.372 0-.663.108-.875.326-.21.218-.316.522-.316.912v1.421c0 .39.105.698.316.922.212.224.503.336.874.336zm.729 0c.378 0 .669-.112.874-.336.211-.224.317-.531.317-.922v-1.42c0-.391-.106-.695-.317-.913-.205-.218-.496-.326-.874-.326v3.917zm3.344.682v-5.281h.826v2.88c0 .186-.007.381-.02.586-.006.205-.019.4-.038.586a6.09 6.09 0 01-.048.46l2.132-4.512h1.104V50h-.826v-2.88c0-.186.004-.381.01-.586.013-.205.029-.4.048-.586l.048-.47L79.563 50H78.46zm5.687 0v-5.281h.864v2.199h2.228v-2.2h.864V50h-.864v-2.295H85.01V50h-.864zm7.204.096c-.557 0-.995-.14-1.315-.422-.32-.288-.48-.676-.48-1.162 0-.493.16-.88.48-1.162.32-.282.752-.423 1.296-.423h1.632V46.4c0-.326-.099-.576-.297-.749-.192-.179-.468-.269-.826-.269-.314 0-.576.068-.788.202a.717.717 0 00-.365.528h-.864c.058-.454.272-.816.644-1.085.37-.269.835-.403 1.392-.403.608 0 1.088.157 1.44.47.352.314.528.74.528 1.277V50h-.845v-1.008h-.144l.144-.144c0 .384-.15.688-.45.912-.295.224-.689.336-1.182.336zm.211-.682c.41 0 .746-.102 1.008-.307a.956.956 0 00.394-.787v-.75H91.35c-.288 0-.515.08-.682.24-.166.16-.25.378-.25.654 0 .294.1.528.298.7.205.167.487.25.845.25zm3.296.653v-.806h.173c.295 0 .5-.116.615-.346.121-.23.185-.643.192-1.239l.057-2.957h3.582V50h-.864v-4.494h-1.863l-.048 2.209c-.013.557-.077 1.008-.192 1.354-.109.345-.282.598-.519.758-.23.16-.534.24-.912.24h-.22zm6.388-.067v-5.281h.864v1.94h1.556c.595 0 1.063.15 1.402.45.346.295.518.702.518 1.22 0 .512-.172.919-.518 1.22-.346.3-.813.451-1.402.451h-2.42zm.864-.787h1.556c.333 0 .586-.074.759-.221.179-.154.268-.375.268-.663 0-.288-.089-.505-.268-.653-.173-.153-.426-.23-.759-.23h-1.556v1.767zm4.785.787v-5.281h.864v2.199h2.228v-2.2h.864V50h-.864v-2.295h-2.228V50h-.864zm5.408 0v-5.281h.807v1.94h.432c.57 0 1.018.15 1.344.45.333.295.5.702.5 1.22 0 .519-.167.928-.5 1.23-.326.294-.774.441-1.344.441h-1.239zm.807-.691h.432c.339 0 .602-.087.787-.26.192-.172.288-.413.288-.72s-.096-.547-.288-.72c-.185-.173-.448-.26-.787-.26h-.432v1.96zm2.9.691v-5.281h.806V50h-.806zm2.259 0v-5.281h.825v2.88c0 .186-.006.381-.019.586-.006.205-.019.4-.038.586-.013.18-.029.333-.048.46l2.131-4.512h1.105V50h-.826v-2.88c0-.186.003-.381.01-.586.012-.205.028-.4.048-.586l.048-.47L119.372 50h-1.104zm2.016-6.145c-.461 0-.832-.128-1.114-.384-.281-.256-.422-.593-.422-1.009h.682c0 .25.076.452.23.605.154.154.358.23.615.23.262 0 .47-.076.624-.23a.8.8 0 00.24-.605h.681c0 .416-.14.752-.422 1.008-.282.257-.653.385-1.114.385zm8.743 7.49V49.26h.432c.109-.11.221-.324.336-.644.122-.32.186-.726.192-1.22l.058-2.678h3.447v4.542h.672v2.083h-.768V50h-3.601v1.344h-.768zm1.344-2.084h2.257v-3.774h-1.767l-.038 1.93c-.007.506-.061.915-.164 1.23-.102.313-.198.518-.288.614zm4.957.739v-5.281h.826v2.88c0 .186-.006.381-.019.586-.006.205-.019.4-.038.586-.013.18-.029.333-.048.46l2.131-4.512h1.105V50h-.826v-2.88c0-.186.003-.381.009-.586.013-.205.029-.4.048-.586l.048-.47L136.433 50h-1.105zm7.416.067c-.557 0-1.015-.118-1.373-.355a1.41 1.41 0 01-.634-.96h.912c.045.16.163.291.355.393.199.103.445.154.74.154h.451c.314 0 .557-.074.73-.22a.71.71 0 00.269-.577c0-.256-.087-.458-.26-.605-.166-.147-.412-.22-.739-.22h-1.162v-.75h1.133c.295 0 .519-.07.672-.21a.719.719 0 00.231-.558.723.723 0 00-.106-.403.61.61 0 00-.297-.25 1.245 1.245 0 00-.49-.086h-.48c-.256 0-.477.057-.663.173-.185.115-.297.256-.336.422h-.912c.064-.397.272-.723.624-.98.352-.255.781-.383 1.287-.383h.48c.378 0 .701.06.97.182a1.33 1.33 0 01.835 1.277c0 .314-.102.573-.307.778-.205.198-.493.31-.864.336v.038c.454.032.784.154.989.365.205.212.307.516.307.913 0 .467-.173.838-.519 1.113-.345.276-.809.413-1.392.413h-.451zm5.476.029c-.557 0-.996-.14-1.316-.422-.32-.288-.48-.676-.48-1.162 0-.493.16-.88.48-1.162.32-.282.752-.423 1.296-.423h1.633V46.4c0-.326-.1-.576-.298-.749-.192-.179-.467-.269-.826-.269-.313 0-.576.068-.787.202a.718.718 0 00-.365.528h-.864c.057-.454.272-.816.643-1.085s.836-.403 1.392-.403c.609 0 1.089.157 1.441.47.352.314.528.74.528 1.277V50h-.845v-1.008h-.144l.144-.144c0 .384-.151.688-.451.912-.295.224-.689.336-1.181.336zm.211-.682c.409 0 .746-.102 1.008-.307a.957.957 0 00.394-.787v-.75h-1.613c-.289 0-.516.08-.682.24-.167.16-.25.378-.25.654 0 .294.099.528.298.7.205.167.486.25.845.25zm3.958.586v-5.281h.826v2.88c0 .186-.006.381-.019.586-.006.205-.019.4-.038.586-.013.18-.029.333-.049.46l2.132-4.512h1.104V50h-.825v-2.88c0-.186.003-.381.009-.586.013-.205.029-.4.048-.586l.048-.47L153.494 50h-1.105zm2.017-6.145c-.461 0-.832-.128-1.114-.384-.282-.256-.423-.593-.423-1.009h.682c0 .25.077.452.231.605.153.154.358.23.614.23.263 0 .471-.076.624-.23a.8.8 0 00.24-.605h.682c0 .416-.141.752-.422 1.008-.282.257-.653.385-1.114.385zm3.67 6.145v-5.281h.864v2.199h2.228v-2.2h.864V50h-.864v-2.295h-2.228V50h-.864zM15.903 69v-5.281h3.956V69h-.865v-4.494h-2.227V69h-.864zm7.665.096c-.417 0-.781-.083-1.095-.25a1.807 1.807 0 01-.72-.7 2.203 2.203 0 01-.25-1.066v-1.44c0-.41.083-.766.25-1.067.173-.3.413-.534.72-.7.314-.167.678-.25 1.095-.25.416 0 .777.083 1.085.25.313.166.553.4.72.7.173.301.26.657.26 1.066v.932h-3.285v.509c0 .416.106.736.317.96.211.217.512.326.903.326.332 0 .601-.057.806-.173a.76.76 0 00.375-.537h.864a1.471 1.471 0 01-.653 1.056c-.371.256-.835.384-1.392.384zm1.22-3.102v-.355c0-.416-.107-.736-.318-.96-.205-.224-.505-.336-.902-.336-.39 0-.692.112-.903.336-.211.224-.317.544-.317.96v.279h2.506l-.067.076zm2.47 4.734v-7.01h.864v1.009h.172l-.172.202c0-.404.13-.72.393-.95.269-.238.621-.356 1.056-.356.532 0 .954.176 1.268.528.32.346.48.823.48 1.43v1.547c0 .403-.074.752-.22 1.046a1.57 1.57 0 01-.606.682c-.256.16-.563.24-.922.24-.429 0-.777-.118-1.046-.355-.27-.237-.403-.554-.403-.95l.172.2h-.192l.02 1.201v1.536h-.865zm2.025-2.38c.365 0 .65-.11.855-.327.211-.218.317-.532.317-.941v-1.44c0-.41-.106-.724-.317-.942-.205-.217-.49-.326-.855-.326-.352 0-.633.112-.845.336-.21.224-.316.534-.316.931v1.44c0 .398.105.708.316.932.212.224.493.336.845.336zm5.658.748c-.416 0-.78-.083-1.094-.25a1.807 1.807 0 01-.72-.7 2.202 2.202 0 01-.25-1.066v-1.44c0-.41.083-.766.25-1.067.172-.3.413-.534.72-.7a2.29 2.29 0 011.094-.25c.417 0 .778.083 1.085.25.314.166.554.4.72.7.173.301.26.657.26 1.066v.932h-3.284v.509c0 .416.106.736.317.96.211.217.512.326.902.326.333 0 .602-.057.807-.173a.76.76 0 00.375-.537h.864a1.471 1.471 0 01-.653 1.056c-.372.256-.836.384-1.393.384zm1.22-3.102v-.355c0-.416-.106-.736-.317-.96-.205-.224-.506-.336-.903-.336-.39 0-.69.112-.902.336-.211.224-.317.544-.317.96v.279h2.506l-.067.076zm1.875 4.35v-2.083h.432c.109-.11.22-.324.336-.644.122-.32.186-.726.192-1.22l.058-2.678H42.5v4.542h.672v2.083h-.768V69h-3.601v1.344h-.768zm1.344-2.083h2.257v-3.774H39.87l-.038 1.93c-.007.506-.061.915-.164 1.23-.102.313-.198.518-.288.614zM50.024 69v-5.281h.864v2.199h2.228v-2.2h.864V69h-.864v-2.295H50.89V69h-.865zm7.204.096c-.557 0-.995-.14-1.315-.422-.32-.289-.48-.676-.48-1.162 0-.493.16-.88.48-1.162.32-.282.752-.423 1.296-.423h1.633V65.4c0-.326-.1-.576-.298-.749-.192-.179-.467-.269-.826-.269-.314 0-.576.068-.787.202a.717.717 0 00-.365.528h-.864c.057-.454.272-.816.643-1.085s.835-.403 1.392-.403c.608 0 1.088.157 1.44.47.353.314.529.74.529 1.277V69h-.845v-1.008h-.144l.144-.144c0 .384-.15.688-.452.912-.294.224-.688.336-1.18.336zm.212-.682c.41 0 .745-.102 1.008-.307a.956.956 0 00.394-.787v-.75h-1.614c-.288 0-.515.08-.681.24-.167.16-.25.378-.25.654 0 .294.1.528.298.7.205.167.486.25.845.25zm6.993.586v-1.92a4.55 4.55 0 01-.471.076 7.01 7.01 0 01-.653.03c-.653.006-1.162-.151-1.527-.471-.358-.327-.537-.781-.537-1.364V63.72h.864v1.632c0 .327.109.586.326.778.224.186.532.278.922.278.269 0 .496-.01.682-.028.192-.026.323-.048.394-.068V63.72h.864V69h-.864zm4.17.096c-.558 0-.996-.14-1.316-.422-.32-.289-.48-.676-.48-1.162 0-.493.16-.88.48-1.162.32-.282.752-.423 1.296-.423h1.632V65.4c0-.326-.099-.576-.297-.749-.192-.179-.468-.269-.826-.269-.314 0-.576.068-.787.202a.717.717 0 00-.365.528h-.864c.057-.454.272-.816.643-1.085s.835-.403 1.392-.403c.608 0 1.088.157 1.44.47.353.314.529.74.529 1.277V69h-.845v-1.008h-.144l.144-.144c0 .384-.15.688-.452.912-.294.224-.688.336-1.18.336zm.21-.682c.41 0 .746-.102 1.009-.307a.956.956 0 00.393-.787v-.75h-1.613c-.288 0-.515.08-.681.24-.167.16-.25.378-.25.654 0 .294.1.528.297.7.205.167.487.25.846.25zm3.296.653v-.806h.173c.295 0 .5-.116.615-.346.121-.23.185-.643.192-1.239l.058-2.957h3.581V69h-.864v-4.494h-1.863l-.048 2.209c-.013.557-.077 1.008-.192 1.354-.109.345-.282.598-.518.758-.23.16-.535.24-.913.24h-.22zm8.328.01c-.422 0-.787-.08-1.095-.24a1.743 1.743 0 01-.72-.692c-.166-.307-.25-.668-.25-1.085v-1.402c0-.422.084-.784.25-1.085.173-.3.413-.53.72-.691.308-.16.673-.24 1.095-.24.423 0 .787.08 1.095.24.307.16.544.39.71.691.173.301.26.66.26 1.076v1.411c0 .416-.087.778-.26 1.085a1.68 1.68 0 01-.71.692c-.308.16-.672.24-1.095.24zm0-.768c.378 0 .672-.106.883-.317.212-.212.317-.522.317-.932v-1.402c0-.41-.105-.72-.317-.931-.21-.211-.505-.317-.883-.317-.371 0-.666.106-.883.317-.212.211-.317.522-.317.931v1.402c0 .41.105.72.317.932.217.211.512.317.883.317zm3.536.691v-5.281h1.172l.69 2.026c.071.205.135.41.193.614.058.199.1.353.125.461.025-.108.064-.262.115-.46.058-.205.118-.413.183-.625l.652-2.016h1.172V69h-.836v-.816c0-.288.004-.602.01-.941l.02-1.028c.012-.345.025-.672.038-.98.012-.313.022-.588.028-.825l-.94 3.006h-.913l-.95-2.987c.013.288.022.647.028 1.076.013.429.023.877.03 1.344.012.467.018.912.018 1.335V69h-.835zm11.528 1.728v-7.01h.864v1.009h.173l-.173.202c0-.404.131-.72.394-.95.268-.238.62-.356 1.056-.356.531 0 .954.176 1.267.528.32.346.48.823.48 1.43v1.547c0 .403-.073.752-.22 1.046a1.57 1.57 0 01-.605.682c-.256.16-.564.24-.922.24-.43 0-.778-.118-1.047-.355-.269-.237-.403-.554-.403-.95l.173.2h-.192l.019 1.201v1.536H95.5zm2.026-2.38c.365 0 .65-.11.854-.327.212-.218.317-.532.317-.941v-1.44c0-.41-.105-.724-.317-.942-.204-.217-.49-.326-.854-.326-.352 0-.634.112-.845.336-.212.224-.317.534-.317.931v1.44c0 .398.106.708.317.932.211.224.493.336.845.336zm5.197.748c-.557 0-.995-.14-1.316-.422-.32-.289-.48-.676-.48-1.162 0-.493.16-.88.48-1.162.321-.282.753-.423 1.297-.423h1.632V65.4c0-.326-.099-.576-.298-.749-.192-.179-.467-.269-.825-.269-.314 0-.576.068-.788.202a.718.718 0 00-.365.528h-.864c.058-.454.272-.816.644-1.085.371-.269.835-.403 1.392-.403.608 0 1.088.157 1.44.47.352.314.528.74.528 1.277V69h-.845v-1.008h-.144l.144-.144c0 .384-.15.688-.451.912-.294.224-.688.336-1.181.336zm.211-.682c.41 0 .746-.102 1.008-.307a.955.955 0 00.394-.787v-.75h-1.613c-.288 0-.515.08-.682.24-.166.16-.249.378-.249.654 0 .294.099.528.297.7.205.167.487.25.845.25zm5.687.653c-.557 0-1.014-.118-1.373-.355a1.414 1.414 0 01-.634-.96h.912c.045.16.164.291.356.393.198.103.445.154.739.154h.451c.314 0 .557-.074.73-.22a.71.71 0 00.269-.577c0-.256-.086-.458-.259-.605-.167-.147-.413-.22-.74-.22h-1.161v-.75h1.133c.294 0 .518-.07.672-.21a.722.722 0 00.23-.558.731.731 0 00-.105-.403.613.613 0 00-.298-.25 1.242 1.242 0 00-.49-.086h-.48c-.256 0-.477.057-.662.173-.186.115-.298.256-.336.422h-.913c.064-.397.272-.723.624-.98.353-.255.781-.383 1.287-.383h.48c.378 0 .701.06.97.182.269.115.474.282.615.5.147.217.22.476.22.777 0 .314-.102.573-.307.778-.205.198-.493.31-.864.336v.038c.454.032.784.154.989.365.205.212.307.516.307.912 0 .468-.173.84-.518 1.114-.346.276-.81.413-1.393.413h-.451zm3.94 1.661v-7.01h.864v1.009h.173l-.173.202c0-.404.131-.72.393-.95.269-.238.621-.356 1.057-.356.531 0 .953.176 1.267.528.32.346.48.823.48 1.43v1.547c0 .403-.073.752-.221 1.046a1.56 1.56 0 01-.605.682c-.256.16-.563.24-.921.24-.429 0-.778-.118-1.047-.355-.269-.237-.403-.554-.403-.95l.173.2h-.193l.02 1.201v1.536h-.864zm2.026-2.38c.364 0 .649-.11.854-.327.211-.218.317-.532.317-.941v-1.44c0-.41-.106-.724-.317-.942-.205-.217-.49-.326-.854-.326-.353 0-.634.112-.845.336-.212.224-.317.534-.317.931v1.44c0 .398.105.708.317.932.211.224.492.336.845.336zm5.197.748c-.557 0-.996-.14-1.316-.422-.32-.289-.48-.676-.48-1.162 0-.493.16-.88.48-1.162.32-.282.752-.423 1.297-.423h1.632V65.4c0-.326-.099-.576-.298-.749-.192-.179-.467-.269-.825-.269-.314 0-.577.068-.788.202a.718.718 0 00-.365.528h-.864c.058-.454.272-.816.643-1.085.372-.269.836-.403 1.393-.403.608 0 1.088.157 1.44.47.352.314.528.74.528 1.277V69h-.845v-1.008h-.144l.144-.144c0 .384-.15.688-.451.912-.295.224-.688.336-1.181.336zm.211-.682c.41 0 .746-.102 1.008-.307a.955.955 0 00.394-.787v-.75h-1.613c-.288 0-.516.08-.682.24-.166.16-.25.378-.25.654 0 .294.1.528.298.7.205.167.487.25.845.25zm5.937.682c-.621 0-1.114-.182-1.479-.547-.359-.372-.538-.877-.538-1.517V64.63c0-.845.211-1.495.634-1.95.422-.46 1.027-.69 1.815-.69h1.344v.864h-1.344c-.519 0-.912.153-1.181.46-.269.301-.404.74-.404 1.316v.624h.135l-.135.192c.007-.377.135-.672.384-.883.25-.211.589-.317 1.018-.317.557 0 .989.18 1.297.538.313.358.47.851.47 1.478v.769c0 .428-.08.797-.24 1.104a1.68 1.68 0 01-.691.71c-.301.167-.663.25-1.085.25zm0-.768c.371 0 .656-.112.854-.336.199-.224.298-.544.298-.96v-.769c0-.416-.099-.736-.298-.96-.198-.224-.483-.336-.854-.336-.372 0-.657.112-.855.336-.198.218-.298.538-.298.96v.769c0 .416.1.736.298.96.198.224.483.336.855.336zm5.687.749c-.423 0-.788-.08-1.095-.24a1.745 1.745 0 01-.72-.692c-.167-.307-.25-.668-.25-1.085v-1.402c0-.422.083-.784.25-1.085.173-.3.413-.53.72-.691.307-.16.672-.24 1.095-.24.422 0 .787.08 1.094.24.308.16.544.39.711.691.173.301.259.66.259 1.076v1.411c0 .416-.086.778-.259 1.085a1.683 1.683 0 01-.711.692c-.307.16-.672.24-1.094.24zm0-.768c.377 0 .672-.106.883-.317.211-.212.317-.522.317-.932v-1.402c0-.41-.106-.72-.317-.931-.211-.211-.506-.317-.883-.317-.372 0-.666.106-.884.317-.211.211-.317.522-.317.931v1.402c0 .41.106.72.317.932.218.211.512.317.884.317zm5.254.691v-4.523h-1.92v-.758h4.705v.758h-1.92V69h-.865zm4.17 0v-5.281h.864v2.18h.903l1.536-2.18h.989l-1.776 2.516L145.365 69h-1.008l-1.536-2.353h-.913V69h-.864zm5.658 0v-5.281h.826v2.88c0 .186-.006.381-.019.586-.006.205-.019.4-.038.586-.013.18-.029.333-.048.46l2.131-4.512h1.104V69h-.825v-2.88c0-.186.003-.382.009-.586.013-.205.029-.4.048-.586l.048-.47L147.807 69h-1.105zm7.665.096c-.243 0-.438-.07-.585-.211-.141-.141-.212-.33-.212-.567 0-.25.071-.448.212-.595.147-.147.342-.22.585-.22.244 0 .436.073.577.22.147.147.22.346.22.595 0 .237-.073.426-.22.567-.141.14-.333.211-.577.211z" fill="#fff"/><defs><filter id="filter0_d_440_813" x=".159" y="0" width="179.682" height="144.682" filterUnits="userSpaceOnUse" color-interpolation-filters="sRGB"><feFlood flood-opacity="0" result="BackgroundImageFix"/><feColorMatrix in="SourceAlpha" values="0 0 0 0 0 0 0 0 0 0 0 0 0 0 0 0 0 0 127 0" result="hardAlpha"/><feOffset dy="3.841"/><feGaussianBlur stdDeviation="1.92"/><feComposite in2="hardAlpha" operator="out"/><feColorMatrix values="0 0 0 0 0 0 0 0 0 0 0 0 0 0 0 0 0 0 0.25 0"/><feBlend in2="BackgroundImageFix" result="effect1_dropShadow_440_813"/><feBlend in="SourceGraphic" in2="effect1_dropShadow_440_813" result="shape"/></filter></defs></svg>