<svg width="180" height="145" fill="none" xmlns="http://www.w3.org/2000/svg"><g filter="url(#filter0_d_440_821)"><rect x="4" width="172" height="137" rx="16.011" fill="#656565"/></g><path d="M14.865 30.034V23.02h.835v3.938c0 .231-.006.478-.019.74a25.581 25.581 0 01-.067 1.326l2.133-6.004h1.152v7.013h-.835v-3.94c0-.236.003-.483.01-.739.012-.262.025-.509.038-.74l.048-.585-2.143 6.004h-1.152zm7.726.096a2.46 2.46 0 01-1.114-.24 1.73 1.73 0 01-.73-.692c-.174-.308-.26-.67-.26-1.086v-1.44c0-.423.087-.785.26-1.086a1.73 1.73 0 01.73-.692c.32-.16.691-.24 1.114-.24.608 0 1.098.163 1.47.49.371.327.567.772.586 1.335h-.865c-.02-.34-.134-.599-.346-.778-.205-.186-.486-.279-.845-.279-.378 0-.679.11-.903.327-.224.211-.336.516-.336.913v1.45c0 .397.112.705.336.923.224.217.525.326.903.326.358 0 .64-.093.845-.278.212-.186.327-.445.346-.778h.865c-.02.563-.215 1.008-.586 1.335-.372.326-.862.49-1.47.49zm3.691-.096V24.75h3.958v5.284h-.864v-4.496h-2.229v4.496h-.865zm7.669.076c-.423 0-.788-.08-1.095-.24a1.744 1.744 0 01-.72-.691c-.167-.308-.25-.67-.25-1.086v-1.402c0-.423.083-.785.25-1.086.172-.301.412-.532.72-.692.307-.16.672-.24 1.095-.24.423 0 .788.08 1.095.24.308.16.544.391.711.692.173.301.26.66.26 1.076v1.412c0 .416-.087.778-.26 1.086a1.684 1.684 0 01-.71.691c-.308.16-.673.24-1.096.24zm0-.768c.378 0 .672-.106.884-.317.211-.211.317-.522.317-.932v-1.402c0-.41-.106-.721-.317-.932-.212-.212-.506-.317-.884-.317-.371 0-.666.105-.884.317-.211.211-.317.522-.317.931v1.403c0 .41.106.72.317.932.218.211.513.317.884.317zm3.048.759v-.807h.173c.294 0 .5-.115.614-.346.122-.23.186-.643.193-1.24l.057-2.958h3.584v5.284h-.865v-4.496h-1.864l-.048 2.21c-.013.556-.077 1.008-.192 1.354-.109.346-.282.599-.519.759-.23.16-.534.24-.912.24h-.221zm6.39-.067V24.75h.865v1.94h1.557c.595 0 1.063.151 1.402.452.346.295.519.701.519 1.22 0 .513-.173.92-.519 1.22-.346.301-.813.452-1.402.452H43.39zm.865-.788h1.557c.333 0 .586-.074.759-.221.179-.154.269-.375.269-.663 0-.288-.09-.506-.27-.653-.172-.154-.425-.23-.758-.23h-1.557v1.767zm6.516.855c-.557 0-1.015-.118-1.374-.355a1.412 1.412 0 01-.634-.961h.913c.045.16.163.291.356.394.198.102.445.153.74.153h.45c.315 0 .558-.073.73-.22a.71.71 0 00.27-.577c0-.256-.087-.458-.26-.605-.166-.148-.413-.221-.74-.221H50.06v-.75h1.134c.294 0 .519-.07.672-.21a.72.72 0 00.23-.558.727.727 0 00-.105-.403.61.61 0 00-.298-.25 1.243 1.243 0 00-.49-.087h-.48c-.256 0-.477.058-.663.173-.185.116-.297.256-.336.423h-.913c.064-.397.273-.724.625-.98s.781-.384 1.287-.384h.48c.378 0 .702.06.97.182.27.116.475.282.616.5.147.218.22.477.22.778 0 .314-.102.573-.307.778-.205.199-.493.31-.864.336v.039c.454.032.784.154.989.365.205.211.307.515.307.912 0 .468-.172.84-.518 1.115-.346.275-.81.413-1.393.413h-.452zm5.94.01c-.423 0-.788-.08-1.096-.24a1.744 1.744 0 01-.72-.692c-.167-.308-.25-.67-.25-1.086v-1.402c0-.423.083-.785.25-1.086.173-.301.413-.532.72-.692.308-.16.673-.24 1.096-.24.422 0 .787.08 1.095.24.307.16.544.391.71.692.174.301.26.66.26 1.076v1.412c0 .416-.086.778-.26 1.086a1.683 1.683 0 01-.71.691c-.308.16-.673.24-1.095.24zm0-.769c.377 0 .672-.106.883-.317.212-.211.317-.522.317-.932v-1.402c0-.41-.105-.721-.317-.932-.21-.212-.506-.317-.883-.317-.372 0-.666.105-.884.317-.212.211-.317.522-.317.931v1.403c0 .41.105.72.317.932.218.211.512.317.884.317zm3.71.692V24.75h2.287c.55 0 .976.125 1.277.375.301.243.452.586.452 1.028 0 .365-.125.66-.375.883-.25.218-.58.327-.99.327v-.077c.449 0 .808.112 1.077.336.275.225.413.526.413.903 0 .474-.16.846-.48 1.115-.32.262-.77.394-1.346.394H60.42zm.846-.76h1.47c.307 0 .544-.067.71-.201.173-.134.26-.323.26-.567 0-.25-.087-.442-.26-.576-.166-.135-.403-.202-.71-.202h-1.47v1.547zm0-2.295h1.44c.27 0 .481-.064.635-.192.16-.128.24-.308.24-.538 0-.23-.077-.41-.23-.538-.154-.135-.369-.202-.644-.202h-1.441v1.47zm6.362 3.15c-.557 0-.996-.14-1.316-.422-.32-.288-.48-.676-.48-1.162 0-.494.16-.881.48-1.163.32-.282.752-.423 1.297-.423h1.633v-.528c0-.326-.1-.576-.298-.75-.192-.178-.468-.268-.826-.268-.314 0-.577.067-.788.202a.718.718 0 00-.365.528H66.1c.058-.455.273-.817.644-1.086.371-.269.836-.403 1.393-.403.608 0 1.089.157 1.441.47.352.315.528.74.528 1.278v3.632h-.845v-1.009h-.144l.144-.144c0 .384-.15.688-.452.913-.294.224-.688.336-1.181.336zm.211-.681c.41 0 .746-.103 1.009-.308a.957.957 0 00.394-.788v-.749h-1.614c-.288 0-.516.08-.682.24-.167.16-.25.378-.25.654 0 .294.1.528.298.7.205.167.487.25.845.25zm3.298.653v-.807h.173c.294 0 .5-.115.614-.346.122-.23.186-.643.193-1.24l.057-2.958h3.584v5.284h-.865v-4.496h-1.864l-.048 2.21c-.013.556-.077 1.008-.192 1.354-.109.346-.282.599-.519.759-.23.16-.534.24-.912.24h-.221zm6.352-.067V24.75h.826v2.882c0 .186-.006.381-.019.586-.006.205-.019.4-.038.586-.013.18-.029.333-.048.461l2.132-4.515h1.105v5.284h-.826v-2.882c0-.186.003-.381.01-.586.012-.205.028-.4.048-.586l.048-.471-2.133 4.525h-1.105zm13.378.096c-.423 0-.794-.08-1.115-.24a1.73 1.73 0 01-.73-.692c-.173-.308-.26-.67-.26-1.086v-1.44c0-.423.087-.785.26-1.086a1.73 1.73 0 01.73-.692c.32-.16.692-.24 1.115-.24.608 0 1.098.163 1.47.49.371.327.566.772.586 1.335h-.865c-.02-.34-.135-.599-.346-.778-.205-.186-.487-.279-.845-.279-.378 0-.68.11-.903.327-.224.211-.337.516-.337.913v1.45c0 .397.113.705.337.923.224.217.525.326.903.326.358 0 .64-.093.845-.278.212-.186.327-.445.346-.778h.865c-.02.563-.215 1.008-.586 1.335-.372.326-.862.49-1.47.49zm5.67-.02c-.422 0-.788-.08-1.095-.24a1.744 1.744 0 01-.72-.691c-.167-.308-.25-.67-.25-1.086v-1.402c0-.423.083-.785.25-1.086a1.74 1.74 0 01.72-.692c.307-.16.673-.24 1.095-.24.423 0 .788.08 1.095.24.308.16.545.391.711.692.173.301.26.66.26 1.076v1.412c0 .416-.087.778-.26 1.086a1.684 1.684 0 01-.71.691c-.308.16-.673.24-1.096.24zm0-.768c.378 0 .673-.106.884-.317.211-.211.317-.522.317-.932v-1.402c0-.41-.106-.721-.317-.932-.211-.212-.506-.317-.884-.317-.371 0-.666.105-.884.317-.211.211-.317.522-.317.931v1.403c0 .41.106.72.317.932.218.211.513.317.884.317zm3.711.692V24.75h2.286c.551 0 .977.125 1.278.375.301.243.451.586.451 1.028 0 .365-.124.66-.374.883-.25.218-.58.327-.99.327v-.077c.449 0 .807.112 1.076.336.276.225.413.526.413.903 0 .474-.16.846-.48 1.115-.32.262-.769.394-1.345.394h-2.315zm.845-.76h1.47c.307 0 .544-.067.711-.201.173-.134.259-.323.259-.567 0-.25-.086-.442-.259-.576-.167-.135-.404-.202-.711-.202h-1.47v1.547zm0-2.295h1.441c.269 0 .481-.064.634-.192.16-.128.24-.308.24-.538 0-.23-.076-.41-.23-.538-.154-.135-.368-.202-.644-.202h-1.441v1.47zm4.825 4.784V24.75h.865v1.009h.173l-.173.201c0-.403.131-.72.394-.95.269-.238.621-.356 1.057-.356.531 0 .954.176 1.268.528.32.346.48.823.48 1.432v1.546c0 .404-.074.753-.221 1.047a1.575 1.575 0 01-.605.683c-.256.16-.564.24-.922.24-.43 0-.779-.119-1.048-.356s-.403-.554-.403-.95l.173.201h-.192l.019 1.2v1.538h-.865zm2.027-2.383c.365 0 .65-.108.855-.326.212-.218.317-.532.317-.942v-1.44c0-.41-.105-.724-.317-.942-.205-.218-.49-.327-.855-.327-.352 0-.634.112-.845.337-.211.224-.317.534-.317.931v1.441c0 .397.106.708.317.932.211.224.493.336.845.336zm5.661.75c-.416 0-.781-.083-1.095-.25a1.812 1.812 0 01-.721-.701 2.21 2.21 0 01-.249-1.067v-1.44c0-.41.083-.766.249-1.067.173-.301.414-.535.721-.701.314-.167.679-.25 1.095-.25.416 0 .778.083 1.086.25.314.166.554.4.72.701.173.301.26.656.26 1.066v.932h-3.286v.51c0 .416.106.736.317.96.211.218.512.327.903.327.333 0 .602-.058.807-.173a.764.764 0 00.375-.538h.864a1.469 1.469 0 01-.653 1.056c-.371.257-.836.385-1.393.385zm1.22-3.103v-.356c0-.416-.105-.736-.317-.96-.205-.224-.506-.337-.903-.337-.391 0-.692.113-.903.337-.211.224-.317.544-.317.96v.279h2.507l-.067.077zm2.318 3.007V24.75h1.172l.692 2.027c.07.205.134.41.192.615.057.198.099.352.125.461a20.9 20.9 0 01.115-.461c.058-.205.118-.413.182-.625l.654-2.017h1.172v5.284h-.836v-.817c0-.288.003-.602.01-.941l.019-1.028c.013-.346.025-.673.038-.98.013-.314.023-.59.029-.826l-.941 3.007h-.913l-.951-2.988c.013.288.022.647.029 1.076.012.429.022.877.028 1.345.013.467.02.912.02 1.335v.817h-.836zm7.841.096c-.416 0-.781-.083-1.095-.25a1.81 1.81 0 01-.72-.701 2.199 2.199 0 01-.25-1.067v-1.44c0-.41.083-.766.25-1.067a1.81 1.81 0 01.72-.701c.314-.167.679-.25 1.095-.25.417 0 .779.083 1.086.25.314.166.554.4.721.701.172.301.259.656.259 1.066v.932h-3.286v.51c0 .416.106.736.317.96.212.218.513.327.903.327.333 0 .602-.058.807-.173a.764.764 0 00.375-.538h.865a1.473 1.473 0 01-.654 1.056c-.371.257-.835.385-1.393.385zm1.221-3.103v-.356c0-.416-.106-.736-.318-.96-.204-.224-.505-.337-.903-.337-.39 0-.691.113-.903.337-.211.224-.317.544-.317.96v.279h2.508l-.067.077zm2.49 3.007V24.75h.865v2.2h2.228v-2.2h.865v5.284h-.865v-2.296h-2.228v2.296h-.865zm5.69 0V24.75h.864v2.2h2.229v-2.2h.865v5.284h-.865v-2.296h-2.229v2.296h-.864zm5.411 0V24.75h.807v1.94h.432c.57 0 1.018.151 1.345.452.333.295.5.701.5 1.22s-.167.929-.5 1.23c-.327.294-.775.442-1.345.442h-1.239zm.807-.692h.432c.34 0 .602-.086.788-.26.192-.172.288-.413.288-.72s-.096-.547-.288-.72c-.186-.173-.448-.26-.788-.26h-.432v1.96zm2.901.692V24.75h.807v5.284h-.807zm4.239.096c-.416 0-.781-.083-1.095-.25a1.806 1.806 0 01-.721-.701 2.21 2.21 0 01-.249-1.067v-1.44c0-.41.083-.766.249-1.067.173-.301.413-.535.721-.701.314-.167.679-.25 1.095-.25.416 0 .778.083 1.086.25.313.166.554.4.72.701.173.301.26.656.26 1.066v.932h-3.286v.51c0 .416.106.736.317.96.211.218.512.327.903.327.333 0 .602-.058.807-.173a.764.764 0 00.375-.538h.864a1.469 1.469 0 01-.653 1.056c-.371.257-.836.385-1.393.385zm1.22-3.103v-.356c0-.416-.106-.736-.317-.96-.205-.224-.506-.337-.903-.337-.391 0-.692.113-.903.337-.211.224-.317.544-.317.96v.279h2.507l-.067.077zM16.45 49.034v-4.525h-1.922v-.759h4.708v.759h-1.922v4.525h-.864zm6.122.096c-.417 0-.782-.084-1.095-.25a1.807 1.807 0 01-.721-.701 2.204 2.204 0 01-.25-1.067v-1.44c0-.41.084-.766.25-1.067.173-.301.413-.535.72-.701.314-.167.68-.25 1.096-.25.416 0 .778.083 1.085.25.314.166.554.4.72.701.174.301.26.656.26 1.066v.932h-3.285v.51c0 .416.105.736.317.96.211.218.512.327.903.327.333 0 .602-.058.807-.173a.763.763 0 00.374-.538h.865a1.472 1.472 0 01-.653 1.056c-.372.257-.836.385-1.393.385zm1.22-3.103v-.356c0-.416-.106-.736-.317-.96-.205-.224-.506-.337-.903-.337-.391 0-.692.112-.903.337-.212.224-.317.544-.317.96v.279h2.507l-.067.077zm2.068 3.007l1.873-2.719-1.758-2.565h1.018l1.047 1.633c.045.07.087.147.125.23l.106.202c.02-.05.048-.118.086-.201.045-.084.09-.16.135-.23l1.057-1.634h1.008L28.8 46.325l1.864 2.709h-1.018l-1.134-1.73a2.69 2.69 0 01-.134-.24 2.064 2.064 0 00-.106-.23 3.791 3.791 0 01-.26.47l-1.143 1.73H25.86zm6.112 0V43.75h.865v2.2h2.228v-2.2h.865v5.284h-.865v-2.296h-2.228v2.296h-.865zm7.669.077c-.423 0-.788-.08-1.096-.24a1.744 1.744 0 01-.72-.692c-.167-.308-.25-.67-.25-1.086V45.69c0-.422.083-.784.25-1.085.173-.301.413-.532.72-.692.308-.16.673-.24 1.096-.24.422 0 .787.08 1.095.24.307.16.544.391.71.692.174.301.26.66.26 1.076v1.412c0 .416-.086.778-.26 1.086a1.683 1.683 0 01-.71.691c-.308.16-.673.24-1.095.24zm0-.769c.378 0 .672-.106.884-.317.21-.211.317-.522.317-.932V45.69c0-.41-.106-.72-.317-.931-.212-.212-.506-.317-.884-.317-.372 0-.666.105-.884.317-.212.211-.317.522-.317.931v1.403c0 .41.105.72.317.932.218.211.512.317.884.317zm3.047.759v-.807h.173c.295 0 .5-.115.615-.346.122-.23.186-.644.192-1.24l.058-2.958h3.583v5.284h-.864v-4.496H44.58l-.048 2.21c-.013.556-.077 1.008-.192 1.354-.11.346-.282.599-.519.759-.23.16-.535.24-.913.24h-.22zm8.332.01c-.423 0-.788-.08-1.095-.24a1.744 1.744 0 01-.72-.692c-.167-.308-.25-.67-.25-1.086V45.69c0-.422.083-.784.25-1.085.172-.301.412-.532.72-.692.307-.16.672-.24 1.095-.24.423 0 .788.08 1.095.24.307.16.544.391.711.692.173.301.26.66.26 1.076v1.412c0 .416-.087.778-.26 1.086a1.683 1.683 0 01-.71.691c-.308.16-.673.24-1.096.24zm0-.769c.378 0 .672-.106.884-.317.211-.211.317-.522.317-.932V45.69c0-.41-.106-.72-.317-.931-.212-.212-.506-.317-.884-.317-.372 0-.666.105-.884.317-.211.211-.317.522-.317.931v1.403c0 .41.106.72.317.932.218.211.512.317.884.317zm4.056.692V43.75h3.795v.788h-2.93v4.496h-.864zm5.344 0V43.75h.826v2.882c0 .186-.006.381-.019.586-.006.205-.019.4-.038.586a6.1 6.1 0 01-.048.461l2.133-4.515h1.104v5.284h-.826v-2.882c0-.186.003-.381.01-.586.013-.205.029-.4.048-.586l.048-.471-2.133 4.525H60.42zm5.69 0V43.75h.826v2.882c0 .186-.006.381-.02.586-.005.205-.018.4-.037.586a6.21 6.21 0 01-.049.461l2.133-4.515h1.105v5.284h-.826v-2.882c0-.186.003-.381.01-.586.012-.205.028-.4.047-.586l.048-.471-2.132 4.525H66.11zm10.764 1.345v-2.085h.433c.109-.109.22-.323.336-.644.122-.32.186-.727.192-1.22l.058-2.68h3.448v4.544h.673v2.085h-.768v-1.345h-3.603v1.345h-.769zm1.345-2.085h2.258v-3.775h-1.768l-.038 1.93c-.007.506-.061.916-.164 1.23-.102.314-.198.519-.288.615zm4.297.807v-.807h.173c.295 0 .5-.115.615-.346.121-.23.186-.644.192-1.24l.058-2.958h3.583v5.284h-.865v-4.496H84.41l-.049 2.21c-.012.556-.076 1.008-.192 1.354-.109.346-.281.599-.518.759-.23.16-.535.24-.913.24h-.221zm6.026-.067l1.355-2.037c-.404-.096-.718-.282-.942-.557-.218-.276-.327-.618-.327-1.028 0-.519.17-.925.51-1.22.345-.295.816-.442 1.412-.442h2.276v5.284h-.864v-1.97h-1.163l-1.248 1.97h-1.01zm2.008-2.738h1.412v-1.777H90.55c-.32 0-.573.08-.76.24-.185.153-.278.371-.278.653 0 .275.093.493.279.653.186.154.439.23.759.23zm11.677 2.815c-.423 0-.788-.08-1.095-.24a1.742 1.742 0 01-.721-.692 2.256 2.256 0 01-.25-1.086V45.69c0-.422.084-.784.25-1.085.173-.301.413-.532.721-.692.307-.16.672-.24 1.095-.24.423 0 .788.08 1.095.24.307.16.544.391.711.692.173.301.259.66.259 1.076v1.412c0 .416-.086.778-.259 1.086a1.689 1.689 0 01-.711.691c-.307.16-.672.24-1.095.24zm0-.769c.378 0 .672-.106.884-.317.211-.211.317-.522.317-.932V45.69c0-.41-.106-.72-.317-.931-.212-.212-.506-.317-.884-.317-.372 0-.666.105-.884.317-.211.211-.317.522-.317.931v1.403c0 .41.106.72.317.932.218.211.512.317.884.317zm5.689.788c-.621 0-1.114-.183-1.479-.548-.359-.371-.538-.877-.538-1.518v-2.401c0-.846.211-1.496.634-1.95.423-.462 1.028-.692 1.816-.692h1.345v.864h-1.345c-.519 0-.913.154-1.182.462-.269.3-.403.74-.403 1.316v.624h.134l-.134.192c.006-.378.134-.672.384-.884.25-.211.589-.317 1.018-.317.557 0 .99.18 1.297.538.314.359.471.852.471 1.48v.768c0 .43-.08.798-.24 1.105-.16.308-.391.545-.692.711-.301.166-.663.25-1.086.25zm0-.769c.372 0 .657-.112.856-.336.198-.224.297-.544.297-.96v-.77c0-.416-.099-.736-.297-.96-.199-.224-.484-.336-.856-.336-.371 0-.656.112-.855.336-.198.218-.297.538-.297.96v.77c0 .416.099.736.297.96.199.224.484.336.855.336zm5.69.769a2.31 2.31 0 01-1.095-.25 1.812 1.812 0 01-.721-.701 2.21 2.21 0 01-.249-1.067v-1.44c0-.41.083-.766.249-1.067.173-.301.414-.535.721-.701.314-.167.679-.25 1.095-.25.416 0 .778.083 1.086.25.314.166.554.4.72.701.173.301.26.656.26 1.066v.932h-3.286v.51c0 .416.106.736.317.96.211.218.512.327.903.327.333 0 .602-.058.807-.173a.764.764 0 00.375-.538h.864a1.469 1.469 0 01-.653 1.056c-.371.257-.836.385-1.393.385zm1.22-3.103v-.356c0-.416-.105-.736-.317-.96-.205-.224-.506-.337-.903-.337-.391 0-.692.112-.903.337-.211.224-.317.544-.317.96v.279h2.507l-.067.077zm4.489 3.103a2.46 2.46 0 01-1.114-.24 1.723 1.723 0 01-.73-.692c-.173-.307-.26-.67-.26-1.086v-1.44c0-.423.087-.785.26-1.086.172-.301.416-.532.73-.692.32-.16.691-.24 1.114-.24.608 0 1.098.163 1.47.49.371.327.567.772.586 1.335h-.865c-.019-.34-.134-.599-.346-.778-.205-.186-.486-.279-.845-.279-.378 0-.679.11-.903.327-.224.211-.336.516-.336.913v1.45c0 .397.112.705.336.923.224.217.525.326.903.326.359 0 .64-.093.845-.278.212-.186.327-.445.346-.779h.865c-.019.564-.215 1.01-.586 1.336-.372.326-.862.49-1.47.49zm3.691-.096V43.75h3.958v5.284h-.864v-4.496h-2.229v4.496h-.865zm7.669.096a2.31 2.31 0 01-1.095-.25 1.812 1.812 0 01-.721-.701 2.21 2.21 0 01-.249-1.067v-1.44c0-.41.083-.766.249-1.067.173-.301.414-.535.721-.701.314-.167.679-.25 1.095-.25.416 0 .778.083 1.086.25.313.166.554.4.72.701.173.301.26.656.26 1.066v.932h-3.286v.51c0 .416.106.736.317.96.211.218.512.327.903.327.333 0 .602-.058.807-.173a.764.764 0 00.375-.538h.864a1.469 1.469 0 01-.653 1.056c-.371.257-.836.385-1.393.385zm1.22-3.103v-.356c0-.416-.106-.736-.317-.96-.205-.224-.506-.337-.903-.337-.391 0-.692.112-.903.337-.211.224-.317.544-.317.96v.279h2.507l-.067.077zm5.527 3.007v-1.922a4.22 4.22 0 01-.471.077 7.02 7.02 0 01-.653.029c-.654.006-1.163-.15-1.528-.47-.359-.327-.538-.782-.538-1.365V43.75h.865v1.633c0 .327.109.586.326.778.224.186.532.279.923.279.269 0 .496-.01.682-.029.192-.026.323-.048.394-.067V43.75h.864v5.284h-.864zm4.632.096a2.31 2.31 0 01-1.095-.25 1.81 1.81 0 01-.72-.701 2.199 2.199 0 01-.25-1.067v-1.44c0-.41.083-.766.25-1.067a1.81 1.81 0 01.72-.701c.314-.167.679-.25 1.095-.25.417 0 .779.083 1.086.25.314.166.554.4.72.701.173.301.26.656.26 1.066v.932h-3.286v.51c0 .416.106.736.317.96.212.218.513.327.903.327.333 0 .602-.058.807-.173a.764.764 0 00.375-.538h.865a1.473 1.473 0 01-.654 1.056c-.371.257-.835.385-1.393.385zm1.22-3.103v-.356c0-.416-.105-.736-.317-.96-.204-.224-.505-.337-.903-.337-.39 0-.691.112-.903.337-.211.224-.317.544-.317.96v.279h2.508l-.068.077zm2.491 3.007V43.75h.865v2.2h2.228v-2.2h.865v5.284h-.865v-2.296h-2.228v2.296h-.865zm5.69 0V43.75h.826v2.882c0 .186-.006.381-.019.586-.007.205-.02.4-.039.586-.013.18-.029.333-.048.461l2.133-4.515h1.105v5.284h-.826v-2.882c0-.186.003-.381.009-.586.013-.205.029-.4.048-.586l.048-.471-2.132 4.525h-1.105zm5.363 0l1.354-2.037c-.403-.096-.717-.282-.941-.557-.218-.276-.327-.618-.327-1.028 0-.519.17-.925.509-1.22.346-.295.817-.442 1.413-.442h2.276v5.284h-.864v-1.97h-1.163l-1.249 1.97h-1.008zm2.008-2.738h1.412v-1.777h-1.412c-.321 0-.574.08-.759.24-.186.153-.279.371-.279.653 0 .275.093.493.279.653.185.154.438.23.759.23zM16.901 68.13a2.46 2.46 0 01-1.114-.24 1.73 1.73 0 01-.73-.692c-.173-.307-.26-.67-.26-1.086v-1.44c0-.423.087-.785.26-1.086a1.73 1.73 0 01.73-.692c.32-.16.691-.24 1.114-.24.609 0 1.099.163 1.47.49.372.327.567.772.586 1.335h-.864c-.02-.34-.135-.599-.346-.778-.205-.186-.487-.279-.846-.279-.378 0-.679.11-.903.327-.224.211-.336.516-.336.913v1.45c0 .397.112.705.336.923.224.217.525.326.903.326.359 0 .64-.093.846-.278.211-.186.326-.445.346-.778h.864c-.02.563-.215 1.008-.586 1.335-.371.326-.861.49-1.47.49zm5.238-.096v-4.525h-1.921v-.759h4.707v.759h-1.921v4.525h-.865zm5.661.096c-.557 0-.996-.141-1.316-.423-.32-.288-.48-.676-.48-1.162 0-.493.16-.881.48-1.163.32-.282.753-.422 1.297-.422h1.633v-.529c0-.326-.1-.576-.298-.75-.192-.178-.467-.268-.826-.268-.314 0-.576.067-.788.202a.718.718 0 00-.365.528h-.864c.057-.455.272-.817.643-1.086.372-.269.836-.403 1.393-.403.609 0 1.09.157 1.441.47.353.314.529.74.529 1.278v3.632h-.846v-1.009h-.144l.144-.144c0 .384-.15.688-.451.912-.295.225-.689.337-1.182.337zm.212-.682c.41 0 .746-.103 1.008-.308a.957.957 0 00.394-.787v-.75H27.8c-.288 0-.515.08-.682.24-.166.16-.25.378-.25.654 0 .294.1.528.298.7.205.167.487.25.846.25zm5.939.682c-.621 0-1.114-.183-1.48-.548-.358-.371-.537-.877-.537-1.518v-2.401c0-.846.21-1.496.634-1.95.422-.462 1.028-.692 1.815-.692h1.345v.864h-1.345c-.519 0-.912.154-1.181.462-.27.3-.404.74-.404 1.316v.624h.135l-.135.192c.007-.378.135-.672.384-.884.25-.211.59-.317 1.019-.317.557 0 .99.18 1.297.538.314.359.47.852.47 1.48v.768c0 .43-.08.798-.24 1.105-.16.308-.39.544-.692.711-.3.166-.662.25-1.085.25zm0-.769c.371 0 .656-.112.855-.336.199-.224.298-.544.298-.96v-.77c0-.416-.1-.736-.298-.96-.199-.224-.484-.336-.855-.336s-.657.112-.855.336c-.199.218-.298.538-.298.96v.77c0 .416.1.736.298.96.199.224.484.336.855.336zm3.71.673V62.75h.827v2.882c0 .186-.007.381-.02.586-.006.205-.019.4-.038.586a6.1 6.1 0 01-.048.461l2.133-4.515h1.105v5.284h-.826v-2.882c0-.186.003-.381.01-.586.012-.205.028-.4.047-.586l.048-.471-2.133 4.525h-1.104zm5.027.067v-.807h.173c.295 0 .5-.115.615-.346.122-.23.186-.643.192-1.24l.058-2.958h3.583v5.284h-.864v-4.496H44.58l-.048 2.21c-.013.556-.077 1.008-.192 1.354-.11.346-.282.599-.519.759-.23.16-.535.24-.913.24h-.22zm6.391-.067V62.75h.865v1.94H51.5c.596 0 1.063.151 1.403.452.346.295.519.701.519 1.22 0 .513-.173.92-.52 1.22-.345.301-.813.452-1.402.452h-2.42zm.865-.788H51.5c.333 0 .586-.074.76-.221.178-.154.268-.375.268-.663 0-.288-.09-.506-.269-.653-.173-.154-.426-.23-.759-.23h-1.556v1.767zm4.787.788V62.75h.864v2.2h2.229v-2.2h.865v5.284h-.865v-2.296h-2.229v2.296h-.864zm7.668.076c-.422 0-.788-.08-1.095-.24a1.744 1.744 0 01-.72-.691c-.167-.308-.25-.67-.25-1.086V64.69c0-.422.083-.784.25-1.085a1.74 1.74 0 01.72-.692c.307-.16.673-.24 1.095-.24.423 0 .788.08 1.095.24.308.16.545.391.711.692.173.301.26.66.26 1.076v1.412c0 .416-.087.778-.26 1.086a1.683 1.683 0 01-.71.691c-.308.16-.673.24-1.096.24zm0-.768c.378 0 .673-.106.884-.317.211-.211.317-.522.317-.932V64.69c0-.41-.106-.72-.317-.931-.211-.212-.506-.317-.884-.317-.371 0-.666.105-.884.317-.21.211-.317.522-.317.931v1.403c0 .41.106.72.317.932.218.211.513.317.884.317zm3.71.692V62.75h.827v2.882c0 .186-.006.381-.02.586-.005.205-.018.4-.037.586a6.21 6.21 0 01-.049.461l2.133-4.515h1.105v5.284h-.826v-2.882c0-.186.003-.381.01-.586.012-.205.028-.4.047-.586l.048-.471-2.132 4.525H66.11zm2.018-6.149c-.46 0-.832-.128-1.114-.384-.282-.256-.423-.592-.423-1.009h.682c0 .25.077.452.23.606.155.153.36.23.616.23.262 0 .47-.077.624-.23a.8.8 0 00.24-.606h.682c0 .417-.14.753-.422 1.01-.282.255-.654.383-1.115.383zm9.343 7.878V62.75h.865v1.009h.172l-.172.201c0-.403.13-.72.394-.95.269-.238.62-.356 1.056-.356.532 0 .955.176 1.268.528.32.346.48.823.48 1.432v1.546c0 .404-.073.753-.22 1.047a1.57 1.57 0 01-.606.683c-.256.16-.563.24-.922.24-.429 0-.778-.119-1.047-.356-.269-.237-.403-.554-.403-.95l.172.201h-.192l.02 1.2v1.538h-.865zm2.027-2.383c.365 0 .65-.108.855-.326.211-.218.317-.532.317-.942v-1.44c0-.41-.106-.724-.317-.942-.205-.218-.49-.327-.855-.327-.352 0-.634.112-.845.337-.212.224-.317.534-.317.931v1.441c0 .397.105.708.317.932.211.224.493.336.845.336zm5.2.75c-.557 0-.996-.141-1.316-.423-.32-.288-.48-.676-.48-1.162 0-.493.16-.881.48-1.163.32-.282.752-.422 1.296-.422h1.634v-.529c0-.326-.1-.576-.298-.75-.192-.178-.468-.268-.826-.268-.314 0-.577.067-.788.202a.718.718 0 00-.365.528h-.865c.058-.455.273-.817.644-1.086.371-.269.836-.403 1.393-.403.608 0 1.089.157 1.44.47.353.314.53.74.53 1.278v3.632h-.846v-1.009h-.144l.144-.144c0 .384-.15.688-.452.912-.294.225-.688.337-1.181.337zm.211-.682c.41 0 .746-.103 1.009-.308a.957.957 0 00.394-.787v-.75h-1.614c-.288 0-.516.08-.682.24-.167.16-.25.378-.25.654 0 .294.1.528.298.7.205.167.486.25.845.25zm5.94.682c-.622 0-1.115-.183-1.48-.548-.359-.371-.538-.877-.538-1.518v-2.401c0-.846.212-1.496.634-1.95.423-.462 1.028-.692 1.816-.692h1.345v.864H91.28c-.519 0-.913.154-1.182.462-.269.3-.403.74-.403 1.316v.624h.134l-.134.192c.006-.378.134-.672.384-.884.25-.211.59-.317 1.018-.317.558 0 .99.18 1.297.538.314.359.471.852.471 1.48v.768c0 .43-.08.798-.24 1.105-.16.308-.39.544-.692.711-.3.166-.663.25-1.086.25zm0-.769c.371 0 .656-.112.855-.336.198-.224.297-.544.297-.96v-.77c0-.416-.099-.736-.297-.96-.199-.224-.484-.336-.856-.336-.37 0-.656.112-.854.336-.199.218-.298.538-.298.96v.77c0 .416.099.736.298.96.198.224.483.336.855.336zm5.69.75c-.423 0-.789-.08-1.096-.24a1.744 1.744 0 01-.72-.692c-.167-.308-.25-.67-.25-1.086V64.69c0-.422.083-.784.25-1.085a1.74 1.74 0 01.72-.692c.307-.16.673-.24 1.095-.24.423 0 .788.08 1.095.24.308.16.545.391.711.692.173.301.26.66.26 1.076v1.412c0 .416-.087.778-.26 1.086a1.684 1.684 0 01-.71.691c-.308.16-.673.24-1.096.24zm0-.769c.377 0 .672-.106.883-.317.211-.211.317-.522.317-.932V64.69c0-.41-.106-.72-.317-.931-.211-.212-.506-.317-.884-.317-.371 0-.666.105-.884.317-.211.211-.317.522-.317.931v1.403c0 .41.106.72.317.932.218.211.513.317.884.317zm5.257.692v-4.525h-1.922v-.759h4.707v.759h-1.921v4.525h-.864zm3.864 0V62.75h.807v1.94h.432c.57 0 1.019.151 1.345.452.333.295.5.701.5 1.22s-.167.929-.5 1.23c-.326.294-.775.442-1.345.442h-1.239zm.807-.692h.432c.34 0 .602-.087.788-.26.192-.172.288-.412.288-.72 0-.307-.096-.547-.288-.72-.186-.173-.448-.26-.788-.26h-.432v1.96zm2.901.692V62.75h.807v5.284h-.807zm-94.464 20V82.75h3.958v5.284h-.865v-4.496h-2.228v4.496h-.865zm5.67 1.729V82.75h.865v1.009h.173l-.173.201c0-.403.131-.72.394-.95.269-.238.621-.356 1.057-.356.531 0 .954.176 1.268.528.32.346.48.823.48 1.432v1.546c0 .404-.073.753-.22 1.047a1.57 1.57 0 01-.606.683c-.256.16-.564.24-.922.24-.43 0-.778-.119-1.047-.356-.27-.237-.404-.554-.404-.95l.173.201h-.192l.02 1.2v1.538h-.866zM22.6 87.38c.366 0 .65-.108.855-.326.212-.218.318-.532.318-.942v-1.44c0-.41-.106-.724-.317-.942-.205-.218-.49-.327-.855-.327-.353 0-.634.112-.846.337-.211.224-.317.534-.317.931v1.441c0 .397.106.708.317.932.212.224.493.336.846.336zm3.682.654V82.75h.826v2.882c0 .186-.006.381-.019.586-.006.205-.019.4-.038.586-.013.18-.029.333-.048.461l2.133-4.515h1.104v5.284h-.826v-2.882c0-.186.003-.381.01-.586.013-.205.029-.4.048-.586l.048-.471-2.133 4.525h-1.105zm5.027.067v-.807h.173c.295 0 .5-.115.615-.346.122-.23.186-.643.192-1.24l.058-2.958h3.583v5.284h-.865v-4.496h-1.863l-.048 2.21c-.013.556-.077 1.008-.193 1.354-.108.346-.281.599-.518.759-.23.16-.535.24-.913.24h-.22zm8.332.01c-.423 0-.788-.08-1.096-.24a1.744 1.744 0 01-.72-.692c-.167-.308-.25-.67-.25-1.086V84.69c0-.422.083-.784.25-1.085.173-.301.413-.532.72-.692.308-.16.673-.24 1.096-.24.422 0 .787.08 1.095.24.307.16.544.391.71.692.174.301.26.66.26 1.076v1.412c0 .416-.086.778-.26 1.086a1.683 1.683 0 01-.71.691c-.308.16-.673.24-1.095.24zm0-.769c.378 0 .672-.106.884-.317.21-.211.317-.522.317-.932V84.69c0-.41-.106-.72-.317-.931-.212-.212-.506-.317-.884-.317-.372 0-.666.105-.884.317-.212.211-.317.522-.317.931v1.403c0 .41.105.72.317.932.218.211.512.317.884.317zm2.98.692l1.153-2.71-1.076-2.574h.836l.922 2.306h.51V82.75h.73v2.306h.49l.95-2.306h.826l-1.075 2.546 1.152 2.738h-.864l-.96-2.402h-.52v2.402h-.73v-2.402h-.519l-.97 2.402h-.855zm8.399.096a2.31 2.31 0 01-1.095-.25 1.807 1.807 0 01-.72-.701 2.204 2.204 0 01-.25-1.067v-1.44c0-.41.083-.766.25-1.067.172-.301.412-.535.72-.701.314-.167.679-.25 1.095-.25.416 0 .778.083 1.085.25.314.166.555.4.721.701.173.301.26.656.26 1.066v.932H49.8v.51c0 .416.106.736.317.96.211.218.512.327.903.327.333 0 .602-.058.807-.173a.763.763 0 00.375-.538h.864a1.472 1.472 0 01-.653 1.057c-.371.256-.836.384-1.393.384zm1.22-3.103v-.356c0-.416-.106-.736-.317-.96-.205-.224-.506-.337-.903-.337-.39 0-.692.113-.903.337-.211.224-.317.544-.317.96v.279h2.507l-.067.077zm2.49 3.007V82.75h.865v2.2h2.229v-2.2h.865v5.284h-.865v-2.296h-2.229v2.296h-.864zm5.69 0V82.75h.826v2.882c0 .186-.006.381-.019.586-.006.205-.019.4-.038.586a6.1 6.1 0 01-.048.461l2.133-4.515h1.104v5.284h-.826v-2.882c0-.186.003-.381.01-.586.013-.205.029-.4.048-.586l.048-.471-2.133 4.525H60.42zm5.363 0l1.355-2.037c-.404-.096-.718-.282-.942-.557-.217-.275-.326-.618-.326-1.028 0-.519.17-.925.509-1.22.346-.295.816-.442 1.412-.442h2.277v5.284h-.865v-1.97h-1.162l-1.249 1.97h-1.009zm2.008-2.738h1.412v-1.778h-1.412c-.32 0-.573.08-.759.24-.186.154-.278.372-.278.654 0 .275.092.493.278.653.186.154.439.23.76.23zm5.988 2.834c-.244 0-.44-.07-.586-.212-.141-.14-.212-.33-.212-.566 0-.25.07-.449.212-.596.147-.147.342-.221.586-.221.243 0 .435.074.576.221.147.147.22.346.22.596 0 .237-.073.425-.22.566-.14.141-.333.212-.576.212z" fill="#fff"/><defs><filter id="filter0_d_440_821" x=".157" y="0" width="179.685" height="144.685" filterUnits="userSpaceOnUse" color-interpolation-filters="sRGB"><feFlood flood-opacity="0" result="BackgroundImageFix"/><feColorMatrix in="SourceAlpha" values="0 0 0 0 0 0 0 0 0 0 0 0 0 0 0 0 0 0 127 0" result="hardAlpha"/><feOffset dy="3.843"/><feGaussianBlur stdDeviation="1.921"/><feComposite in2="hardAlpha" operator="out"/><feColorMatrix values="0 0 0 0 0 0 0 0 0 0 0 0 0 0 0 0 0 0 0.25 0"/><feBlend in2="BackgroundImageFix" result="effect1_dropShadow_440_821"/><feBlend in="SourceGraphic" in2="effect1_dropShadow_440_821" result="shape"/></filter></defs></svg>