<svg width="180" height="145" fill="none" xmlns="http://www.w3.org/2000/svg"><g filter="url(#filter0_d_440_828)"><rect x="4" width="172" height="137" rx="16.011" fill="#656565"/></g><path d="M14.893 30v-7.013h.865v2.997h2.248v-2.997h.865V30h-.865v-3.228h-2.248V30h-.865zm7.218.096c-.558 0-.996-.14-1.317-.423-.32-.288-.48-.675-.48-1.162 0-.493.16-.88.48-1.162.32-.282.753-.423 1.297-.423h1.633v-.528c0-.327-.099-.577-.297-.75-.192-.18-.468-.269-.826-.269-.314 0-.577.067-.788.202a.718.718 0 00-.365.528h-.865c.058-.454.272-.816.644-1.085.371-.27.835-.404 1.393-.404.608 0 1.088.157 1.44.471.353.314.53.74.53 1.278V30h-.846v-1.009H23.6l.144-.144c0 .384-.15.689-.452.913-.294.224-.688.336-1.181.336zm.21-.682c.41 0 .747-.103 1.01-.307a.957.957 0 00.393-.788v-.75h-1.613c-.289 0-.516.08-.683.24-.166.16-.25.378-.25.654 0 .294.1.528.299.701.204.167.486.25.845.25zm5.96.682a2.46 2.46 0 01-1.115-.24 1.73 1.73 0 01-.73-.692c-.173-.307-.26-.67-.26-1.085v-1.441c0-.423.087-.785.26-1.086a1.73 1.73 0 01.73-.692c.32-.16.692-.24 1.114-.24.609 0 1.099.163 1.47.49.372.327.567.772.586 1.335h-.864c-.02-.339-.135-.598-.346-.778-.205-.185-.487-.278-.846-.278-.377 0-.678.109-.902.326-.225.212-.337.516-.337.913v1.45c0 .398.112.705.337.923.224.218.525.326.902.326.36 0 .641-.092.846-.278.211-.186.327-.445.346-.778h.864c-.019.563-.214 1.008-.586 1.335-.371.327-.861.49-1.47.49zM33.519 30v-4.525h-1.922v-.759h4.708v.76h-1.922V30h-.864zm4.123 1.73v-7.014h.865v1.009h.173l-.173.202c0-.404.131-.72.394-.951.269-.237.621-.356 1.057-.356.531 0 .954.176 1.268.529.32.345.48.823.48 1.431v1.547c0 .403-.074.752-.22 1.047a1.57 1.57 0 01-.606.682c-.256.16-.564.24-.922.24-.43 0-.779-.118-1.047-.355-.27-.237-.404-.554-.404-.951l.173.201h-.192l.019 1.201v1.537h-.865zm2.027-2.383c.366 0 .65-.11.856-.327.21-.218.317-.532.317-.941v-1.441c0-.41-.106-.724-.317-.942-.206-.218-.49-.326-.855-.326-.353 0-.635.112-.846.336-.211.224-.317.535-.317.932v1.44c0 .398.106.708.317.933.211.224.493.336.846.336zm5.661.73c-.422 0-.788-.08-1.095-.24a1.744 1.744 0 01-.72-.692c-.167-.307-.25-.67-.25-1.086v-1.402c0-.423.083-.785.25-1.086.172-.3.413-.531.72-.691.307-.16.673-.24 1.095-.24.423 0 .788.08 1.096.24.307.16.544.39.71.691.173.301.26.66.26 1.076v1.412c0 .417-.087.779-.26 1.086a1.684 1.684 0 01-.71.692c-.308.16-.673.24-1.096.24zm0-.769c.378 0 .673-.105.884-.317.212-.211.317-.522.317-.932v-1.402c0-.41-.105-.72-.317-.932-.211-.211-.506-.317-.884-.317-.371 0-.666.106-.883.317-.212.211-.318.522-.318.932v1.402c0 .41.106.72.318.932.217.212.512.317.883.317zm3.711.692v-5.284h.826v2.882c0 .186-.006.381-.02.586-.005.205-.018.4-.038.586a6.1 6.1 0 01-.047.462l2.132-4.516H53V30h-.826v-2.882c0-.186.003-.381.01-.586.012-.205.028-.4.047-.586l.048-.47L50.146 30H49.04zm5.027.067v-.807h.173c.294 0 .5-.115.614-.346.122-.23.186-.643.193-1.239l.057-2.959h3.584V30h-.865v-4.496H55.96l-.048 2.21c-.013.557-.077 1.008-.192 1.354-.109.346-.282.599-.519.76-.23.16-.534.24-.912.24h-.221zM60.42 30v-5.284h.826v2.882c0 .186-.006.381-.019.586-.006.205-.019.4-.038.586a6.1 6.1 0 01-.048.462l2.133-4.516h1.104V30h-.826v-2.882c0-.186.003-.381.01-.586.013-.205.029-.4.048-.586l.048-.47L61.525 30H60.42zm11.38 0v-5.284h2.286c.55 0 .977.125 1.278.375.3.243.451.586.451 1.028 0 .365-.125.66-.374.884-.25.217-.58.326-.99.326v-.076c.448 0 .807.112 1.076.336.275.224.413.525.413.903 0 .474-.16.845-.48 1.114-.32.263-.769.394-1.345.394H71.8zm.845-.759h1.47c.307 0 .544-.067.71-.202.174-.134.26-.323.26-.567 0-.25-.086-.441-.26-.576-.166-.134-.403-.202-.71-.202h-1.47v1.547zm0-2.296h1.441c.269 0 .48-.064.634-.192.16-.128.24-.308.24-.538 0-.23-.077-.41-.23-.538-.154-.134-.369-.202-.644-.202h-1.441v1.47zm6.573 3.122c-.557 0-1.015-.118-1.373-.355a1.412 1.412 0 01-.634-.96h.912c.045.16.164.29.356.393.198.102.445.154.74.154h.451c.314 0 .557-.074.73-.221a.71.71 0 00.27-.577c0-.256-.087-.458-.26-.605-.167-.147-.413-.22-.74-.22h-1.163v-.75h1.134c.295 0 .519-.07.673-.211a.72.72 0 00.23-.558.727.727 0 00-.105-.403.61.61 0 00-.298-.25 1.243 1.243 0 00-.49-.086h-.48c-.257 0-.478.057-.664.172-.185.116-.297.257-.336.423h-.912c.064-.397.272-.724.624-.98s.782-.384 1.287-.384h.48c.379 0 .702.06.971.183.269.115.474.281.615.5.147.217.22.476.22.777 0 .314-.102.573-.307.778-.204.199-.493.311-.864.337v.038c.455.032.784.154.99.365.204.212.307.516.307.913 0 .467-.173.839-.52 1.114-.345.276-.81.413-1.392.413h-.452zm5.479.03c-.557 0-.996-.142-1.316-.424-.32-.288-.48-.675-.48-1.162 0-.493.16-.88.48-1.162.32-.282.752-.423 1.296-.423h1.634v-.528c0-.327-.1-.577-.298-.75-.192-.18-.468-.269-.826-.269-.314 0-.577.067-.788.202a.718.718 0 00-.365.528h-.865c.058-.454.273-.816.644-1.085.371-.27.836-.404 1.393-.404.608 0 1.089.157 1.44.471.353.314.53.74.53 1.278V30h-.846v-1.009h-.144l.144-.144c0 .384-.15.689-.452.913-.294.224-.688.336-1.181.336zm.211-.683c.41 0 .746-.103 1.009-.307a.957.957 0 00.394-.788v-.75h-1.614c-.288 0-.516.08-.682.24-.167.16-.25.378-.25.654 0 .294.1.528.298.701.205.167.486.25.845.25zm3.96.586v-5.284h.827v2.882c0 .186-.007.381-.02.586-.006.205-.019.4-.038.586a6.1 6.1 0 01-.048.462l2.133-4.516h1.105V30H92v-2.882c0-.186.004-.381.01-.586.013-.205.029-.4.048-.586l.048-.47L89.973 30h-1.105zm5.517 0v-5.284h1.172l.692 2.027c.07.205.135.41.192.615.058.199.1.352.125.461.026-.109.064-.262.115-.46.058-.206.119-.414.183-.625l.653-2.018h1.172V30h-.836v-.817c0-.288.004-.602.01-.941l.02-1.028c.012-.346.025-.672.038-.98.012-.314.022-.59.028-.826l-.941 3.007h-.913l-.95-2.988c.012.288.022.647.028 1.076.013.43.022.878.029 1.345.013.468.02.913.02 1.335V30h-.837zm7.842.077c-.423 0-.788-.08-1.095-.24a1.742 1.742 0 01-.721-.692c-.166-.307-.25-.67-.25-1.086v-1.402c0-.423.084-.785.25-1.086.173-.3.413-.531.721-.691.307-.16.672-.24 1.095-.24.423 0 .788.08 1.095.24.307.16.544.39.711.691.173.301.259.66.259 1.076v1.412c0 .417-.086.779-.259 1.086a1.689 1.689 0 01-.711.692c-.307.16-.672.24-1.095.24zm0-.769c.378 0 .672-.105.884-.317.211-.211.317-.522.317-.932v-1.402c0-.41-.106-.72-.317-.932-.212-.211-.506-.317-.884-.317-.372 0-.666.106-.884.317-.211.211-.317.522-.317.932v1.402c0 .41.106.72.317.932.218.212.512.317.884.317zm3.096 2.037V29.26h.432c.109-.109.221-.323.336-.643.122-.32.186-.727.192-1.22l.058-2.68h3.449v4.543h.672v2.085h-.768V30h-3.603v1.345h-.768zm1.345-2.085h2.257v-3.775h-1.767l-.039 1.93c-.006.507-.061.917-.163 1.23-.103.314-.199.52-.288.615zm6.938.836c-.416 0-.781-.083-1.095-.25a1.812 1.812 0 01-.721-.701 2.21 2.21 0 01-.249-1.066v-1.441c0-.41.083-.766.249-1.067.173-.3.414-.535.721-.701.314-.167.679-.25 1.095-.25.416 0 .778.083 1.086.25.314.166.554.4.72.701.173.301.26.657.26 1.067v.931h-3.286v.51c0 .416.106.736.317.96.211.218.512.327.903.327.333 0 .602-.058.807-.173a.764.764 0 00.375-.538h.864a1.469 1.469 0 01-.653 1.057c-.371.256-.836.384-1.393.384zm1.22-3.103v-.355c0-.417-.105-.737-.317-.961-.205-.224-.506-.336-.903-.336-.391 0-.692.112-.903.336-.211.224-.317.544-.317.96v.28h2.507l-.067.076zM117.317 30v-5.284h.826v2.882c0 .186-.006.381-.019.586-.007.205-.019.4-.039.586-.012.18-.028.333-.048.462l2.133-4.516h1.105V30h-.826v-2.882c0-.186.003-.381.009-.586.013-.205.029-.4.048-.586l.048-.47L118.422 30h-1.105zm2.017-6.148c-.461 0-.832-.128-1.114-.385-.282-.256-.423-.592-.423-1.008h.682c0 .25.077.451.231.605.154.154.358.23.615.23.262 0 .47-.076.624-.23a.8.8 0 00.24-.605h.682c0 .416-.141.752-.422 1.008-.282.257-.654.385-1.115.385zm5.671 6.244c-.423 0-.794-.08-1.115-.24a1.73 1.73 0 01-.73-.692c-.173-.307-.259-.67-.259-1.085v-1.441c0-.423.086-.785.259-1.086a1.73 1.73 0 01.73-.692c.321-.16.692-.24 1.115-.24.608 0 1.098.163 1.47.49.371.327.566.772.586 1.335h-.865c-.019-.339-.135-.598-.346-.778-.205-.185-.487-.278-.845-.278-.378 0-.679.109-.903.326-.225.212-.337.516-.337.913v1.45c0 .398.112.705.337.923.224.218.525.326.903.326.358 0 .64-.092.845-.278.211-.186.327-.445.346-.778h.865c-.02.563-.215 1.008-.586 1.335-.372.327-.862.49-1.47.49zm5.238-.096v-4.525h-1.922v-.759h4.708v.76h-1.922V30h-.864zm4.143 0v-5.284h2.286c.551 0 .977.125 1.278.375.301.243.451.586.451 1.028 0 .365-.124.66-.374.884-.25.217-.58.326-.99.326v-.076c.449 0 .807.112 1.076.336.276.224.413.525.413.903 0 .474-.16.845-.48 1.114-.32.263-.769.394-1.345.394h-2.315zm.845-.759h1.47c.307 0 .544-.067.711-.202.173-.134.259-.323.259-.567 0-.25-.086-.441-.259-.576-.167-.134-.404-.202-.711-.202h-1.47v1.547zm0-2.296h1.441c.269 0 .481-.064.634-.192.16-.128.24-.308.24-.538 0-.23-.076-.41-.23-.538-.154-.134-.368-.202-.644-.202h-1.441v1.47zM140.075 30v-5.284h.827v2.882c0 .186-.007.381-.02.586a8.08 8.08 0 01-.038.586 6.36 6.36 0 01-.048.462l2.133-4.516h1.104V30h-.826v-2.882c0-.186.003-.381.01-.586.013-.205.029-.4.048-.586l.048-.47L141.18 30h-1.105zm7.669.096c-.416 0-.781-.083-1.095-.25a1.806 1.806 0 01-.721-.701 2.21 2.21 0 01-.249-1.066v-1.441c0-.41.083-.766.249-1.067.173-.3.413-.535.721-.701.314-.167.679-.25 1.095-.25.416 0 .778.083 1.086.25.313.166.554.4.72.701.173.301.26.657.26 1.067v.931h-3.286v.51c0 .416.106.736.317.96.211.218.512.327.903.327.333 0 .602-.058.807-.173a.764.764 0 00.375-.538h.864a1.469 1.469 0 01-.653 1.057c-.371.256-.836.384-1.393.384zm1.22-3.103v-.355c0-.417-.106-.737-.317-.961-.205-.224-.506-.336-.903-.336-.391 0-.692.112-.903.336-.211.224-.317.544-.317.96v.28h2.507l-.067.076zM14.903 49v-5.284h3.958V49h-.865v-4.496h-2.228V49h-.865zm5.67 1.73v-7.014h.865v1.009h.173l-.173.202c0-.404.131-.72.394-.951.269-.237.621-.356 1.057-.356.531 0 .954.176 1.268.529.32.345.48.823.48 1.431v1.547c0 .403-.073.752-.22 1.047a1.57 1.57 0 01-.606.682c-.256.16-.564.24-.922.24-.43 0-.778-.118-1.047-.355-.27-.237-.404-.554-.404-.951l.173.201h-.192l.02 1.201v1.537h-.866zm2.027-2.383c.366 0 .65-.11.855-.327.212-.218.318-.532.318-.941v-1.441c0-.41-.106-.724-.317-.942-.205-.218-.49-.326-.855-.326-.353 0-.634.112-.846.336-.211.224-.317.535-.317.932v1.44c0 .398.106.708.317.932.212.225.493.337.846.337zm3.682.653v-5.284h.826v2.882c0 .186-.006.381-.019.586-.006.205-.019.4-.038.586-.013.18-.029.333-.048.461l2.133-4.515h1.104V49h-.826v-2.882c0-.186.003-.381.01-.586.013-.205.029-.4.048-.586l.048-.47L27.387 49h-1.105zm5.027.067v-.807h.173c.295 0 .5-.115.615-.346.122-.23.186-.643.192-1.239l.058-2.959h3.583V49h-.865v-4.496h-1.863l-.048 2.21c-.013.557-.077 1.008-.193 1.354-.108.346-.281.599-.518.76-.23.16-.535.24-.913.24h-.22zm8.332.01c-.423 0-.788-.08-1.096-.24a1.744 1.744 0 01-.72-.692c-.167-.307-.25-.67-.25-1.086v-1.402c0-.423.083-.785.25-1.086.173-.3.413-.531.72-.691.308-.16.673-.24 1.096-.24.422 0 .787.08 1.095.24.307.16.544.39.71.691.174.301.26.66.26 1.076v1.412c0 .417-.086.779-.26 1.086a1.683 1.683 0 01-.71.692c-.308.16-.673.24-1.095.24zm0-.769c.378 0 .672-.105.884-.317.21-.211.317-.522.317-.932v-1.402c0-.41-.106-.72-.317-.932-.212-.211-.506-.317-.884-.317-.372 0-.666.106-.884.317-.212.211-.317.522-.317.932v1.402c0 .41.105.72.317.932.218.212.512.317.884.317zm2.98.692l1.153-2.71-1.076-2.574h.836l.922 2.306h.51v-2.306h.73v2.306h.49l.95-2.306h.826l-1.075 2.546L48.039 49h-.864l-.96-2.402h-.52V49h-.73v-2.402h-.519L43.477 49h-.855zm8.399.096c-.416 0-.781-.083-1.095-.25a1.807 1.807 0 01-.72-.701 2.204 2.204 0 01-.25-1.066v-1.441c0-.41.083-.766.25-1.067a1.8 1.8 0 01.72-.701 2.31 2.31 0 011.095-.25c.416 0 .778.084 1.085.25.314.166.555.4.721.701.173.301.26.657.26 1.067v.931H49.8v.51c0 .416.106.736.317.96.211.218.512.327.903.327.333 0 .602-.058.807-.173a.763.763 0 00.375-.538h.864a1.472 1.472 0 01-.653 1.057c-.371.256-.836.384-1.393.384zm1.22-3.103v-.355c0-.417-.106-.737-.317-.961-.205-.224-.506-.336-.903-.336-.39 0-.692.112-.903.336-.211.224-.317.544-.317.96v.28h2.507l-.067.076zM54.73 49v-5.284h.865v2.2h2.229v-2.2h.865V49h-.865v-2.296h-2.229V49h-.864zm5.69 0v-5.284h.826v2.882c0 .186-.006.381-.019.586-.006.205-.019.4-.038.586a6.1 6.1 0 01-.048.461l2.133-4.515h1.104V49h-.826v-2.882c0-.186.003-.381.01-.586.013-.205.029-.4.048-.586l.048-.47L61.525 49H60.42zm5.363 0l1.355-2.037c-.404-.096-.718-.281-.942-.557-.217-.275-.326-.618-.326-1.028 0-.519.17-.925.509-1.22.346-.294.816-.442 1.412-.442h2.277V49h-.865v-1.97h-1.162L66.792 49h-1.009zm2.008-2.738h1.412v-1.777h-1.412c-.32 0-.573.08-.759.24-.186.154-.278.371-.278.653 0 .276.092.493.278.654.186.153.439.23.76.23zm11.696 2.834a2.46 2.46 0 01-1.114-.24 1.73 1.73 0 01-.73-.692c-.173-.307-.26-.67-.26-1.085v-1.441c0-.423.087-.785.26-1.086a1.73 1.73 0 01.73-.692c.32-.16.692-.24 1.114-.24.609 0 1.099.163 1.47.49.372.327.567.772.586 1.336h-.864c-.02-.34-.135-.6-.346-.779-.205-.185-.487-.278-.846-.278-.377 0-.678.109-.903.326-.224.212-.336.516-.336.913v1.45c0 .398.112.705.336.923.225.218.526.327.903.327.36 0 .64-.093.846-.28.211-.185.326-.444.346-.777h.864c-.019.563-.214 1.008-.586 1.335-.371.327-.861.49-1.47.49zm11.36 0c-.62 0-1.114-.182-1.479-.547-.359-.372-.538-.878-.538-1.518v-2.402c0-.846.212-1.495.634-1.95.423-.461 1.028-.692 1.816-.692h1.345v.865H91.28c-.519 0-.913.153-1.182.46-.269.302-.403.74-.403 1.317v.624h.134l-.134.193c.006-.378.134-.673.384-.884.25-.212.59-.317 1.018-.317.558 0 .99.179 1.297.538.314.358.471.851.471 1.48v.768c0 .429-.08.797-.24 1.104-.16.308-.39.545-.692.711-.3.167-.663.25-1.086.25zm0-.768c.372 0 .657-.113.856-.337.198-.224.297-.544.297-.96v-.769c0-.416-.099-.736-.297-.96-.199-.225-.484-.337-.856-.337-.37 0-.656.112-.854.336-.199.218-.298.538-.298.961v.769c0 .416.099.736.298.96.198.224.483.337.855.337zm5.23.768c-.558 0-.997-.14-1.317-.423-.32-.288-.48-.675-.48-1.162 0-.493.16-.88.48-1.163.32-.281.752-.422 1.297-.422h1.633v-.529c0-.326-.1-.576-.298-.749-.192-.18-.467-.269-.826-.269-.314 0-.576.067-.788.202a.717.717 0 00-.365.528h-.864c.057-.454.272-.816.643-1.085.372-.27.836-.404 1.393-.404.609 0 1.089.157 1.441.471.353.314.529.74.529 1.278V49h-.846v-1.009h-.144l.144-.144c0 .384-.15.689-.451.913-.295.224-.689.336-1.182.336zm.21-.682c.41 0 .746-.102 1.01-.307a.957.957 0 00.393-.788v-.75h-1.614c-.288 0-.515.08-.682.24-.166.16-.25.379-.25.654 0 .294.1.528.298.701.205.167.487.25.845.25zm5.69.653c-.557 0-1.015-.118-1.374-.355a1.413 1.413 0 01-.634-.96h.913c.045.16.163.29.355.393.199.102.445.154.74.154h.452c.313 0 .557-.074.73-.221a.712.712 0 00.269-.577c0-.256-.087-.458-.26-.605-.166-.147-.413-.22-.739-.22h-1.163v-.75h1.134c.294 0 .519-.07.672-.212a.72.72 0 00.231-.557.723.723 0 00-.106-.403.609.609 0 00-.298-.25 1.238 1.238 0 00-.49-.086h-.48c-.256 0-.477.057-.663.172-.186.116-.298.257-.336.423h-.913c.064-.397.272-.724.625-.98.352-.256.781-.384 1.287-.384h.48c.378 0 .702.06.971.183a1.327 1.327 0 01.835 1.277c0 .314-.102.573-.307.778-.205.199-.493.311-.865.337v.038c.455.032.785.154.99.365.205.212.307.516.307.913 0 .467-.173.839-.518 1.114-.346.276-.811.413-1.393.413h-.452zm5.478.03c-.557 0-.996-.142-1.316-.424-.32-.288-.48-.675-.48-1.162 0-.493.16-.88.48-1.163.32-.281.753-.422 1.297-.422h1.633v-.529c0-.326-.099-.576-.297-.749-.193-.18-.468-.269-.827-.269-.314 0-.576.067-.787.202a.716.716 0 00-.365.528h-.865c.058-.454.272-.816.644-1.085.371-.27.835-.404 1.393-.404.608 0 1.088.157 1.441.471.352.314.528.74.528 1.278V49h-.845v-1.009h-.145l.145-.144c0 .384-.151.689-.452.913-.295.224-.688.336-1.182.336zm.212-.683c.41 0 .746-.102 1.008-.307a.956.956 0 00.394-.788v-.75h-1.614c-.288 0-.515.08-.682.24-.166.16-.249.379-.249.654 0 .294.099.528.297.701.205.167.487.25.846.25zm3.787.586v-5.284h1.172l.692 2.027c.07.205.134.41.192.615.058.199.099.352.125.461.026-.109.064-.262.115-.46.058-.206.119-.414.183-.625l.653-2.018h1.172V49h-.836v-.817c0-.288.003-.602.01-.941l.019-1.028.039-.98c.012-.314.022-.59.028-.826l-.941 3.007h-.913l-.951-2.988c.013.288.023.647.029 1.076.013.43.022.878.029 1.345.013.468.019.913.019 1.335V49h-.836zm5.863 0v-5.284h.826v2.882c0 .186-.006.381-.019.586-.007.205-.019.4-.039.586-.012.18-.028.333-.048.461l2.133-4.515h1.105V49h-.826v-2.882c0-.186.003-.381.009-.586.013-.205.029-.4.048-.586l.048-.47L118.422 49h-1.105zm10.764 1.345V48.26h.433c.108-.109.221-.323.336-.643.122-.32.186-.727.192-1.22l.058-2.68h3.448v4.543h.673v2.085h-.769V49h-3.602v1.345h-.769zm1.345-2.085h2.258v-3.775h-1.768l-.038 1.93c-.007.507-.061.917-.164 1.23-.102.314-.198.52-.288.615zm6.478.836c-.558 0-.996-.14-1.316-.423-.321-.288-.481-.675-.481-1.162 0-.493.16-.88.481-1.163.32-.281.752-.422 1.296-.422h1.634v-.529c0-.326-.1-.576-.298-.749-.192-.18-.468-.269-.826-.269-.314 0-.577.067-.788.202a.716.716 0 00-.365.528h-.865c.058-.454.272-.816.644-1.085.371-.27.836-.404 1.393-.404.608 0 1.089.157 1.441.471.352.314.528.74.528 1.278V49h-.845v-1.009h-.144l.144-.144c0 .384-.151.689-.452.913-.294.224-.688.336-1.181.336zm.211-.682c.41 0 .746-.102 1.009-.307a.958.958 0 00.394-.788v-.75h-1.614c-.289 0-.516.08-.682.24-.167.16-.25.379-.25.654 0 .294.099.528.298.701.205.167.486.25.845.25zm3.96.586v-5.284h.865v2.2h2.229v-2.2h.864V49h-.864v-2.296h-2.229V49h-.865zm5.69 0v-5.284h.865v2.2h2.228v-2.2h.865V49h-.865v-2.296h-2.228V49h-.865zm5.411 0v-5.284h.807v1.94h.432c.57 0 1.019.151 1.345.452.333.295.5.702.5 1.22 0 .52-.167.93-.5 1.23-.326.295-.775.442-1.345.442h-1.239zm.807-.692h.432c.34 0 .602-.086.788-.26.192-.172.288-.412.288-.72 0-.307-.096-.547-.288-.72-.186-.173-.448-.26-.788-.26h-.432v1.96zm2.901.692v-5.284h.807V49h-.807zm1.838 0l1.873-2.719-1.758-2.565h1.018l1.047 1.633c.045.07.087.148.125.231.045.083.08.15.106.202.019-.051.048-.119.086-.202a3.6 3.6 0 01.135-.23l1.057-1.634h1.008l-1.758 2.575L161.525 49h-1.018l-1.134-1.73c-.045-.07-.09-.15-.134-.24a2.19 2.19 0 00-.106-.23 4.158 4.158 0 01-.115.23c-.045.09-.093.17-.144.24L157.73 49h-1.008zM14.903 68v-5.284h.826v2.882c0 .186-.006.381-.019.586-.006.205-.02.4-.038.586-.013.18-.03.333-.049.462l2.133-4.516h1.105V68h-.826v-2.882c0-.186.003-.381.01-.586.012-.205.028-.4.047-.586l.049-.47L16.008 68h-1.105zm13.377.096a2.46 2.46 0 01-1.114-.24 1.73 1.73 0 01-.73-.692c-.173-.307-.26-.67-.26-1.085v-1.441c0-.423.087-.785.26-1.086a1.73 1.73 0 01.73-.692c.32-.16.692-.24 1.114-.24.609 0 1.099.163 1.47.49.372.327.567.772.586 1.335h-.864c-.02-.339-.135-.598-.346-.778-.205-.185-.487-.278-.846-.278-.377 0-.678.109-.902.326-.225.212-.337.516-.337.913v1.45c0 .398.112.705.337.923.224.218.525.326.902.326.36 0 .641-.092.846-.278.211-.186.327-.445.346-.778h.864c-.019.563-.214 1.008-.586 1.335-.371.327-.861.49-1.47.49zM31.973 68v-5.284h.826v2.882c0 .186-.006.381-.019.586-.006.205-.02.4-.039.586a6.1 6.1 0 01-.047.462l2.132-4.516h1.105V68h-.826v-2.882c0-.186.003-.381.01-.586.012-.205.028-.4.047-.586l.048-.47L33.078 68h-1.105zm7.688.096a2.46 2.46 0 01-1.114-.24 1.73 1.73 0 01-.73-.692c-.174-.307-.26-.67-.26-1.085v-1.441c0-.423.086-.785.26-1.086a1.73 1.73 0 01.73-.692c.32-.16.691-.24 1.114-.24.608 0 1.098.163 1.47.49.371.327.566.772.586 1.335h-.865c-.02-.339-.134-.598-.346-.778-.205-.185-.486-.278-.845-.278-.378 0-.679.109-.903.326-.224.212-.336.516-.336.913v1.45c0 .398.112.705.336.923.224.218.525.326.903.326.359 0 .64-.092.845-.278.212-.186.327-.445.346-.778h.865c-.02.563-.215 1.008-.586 1.335-.372.327-.862.49-1.47.49zM44.898 68v-4.525h-1.921v-.759h4.707v.76h-1.921V68h-.865zm6.122.096c-.416 0-.781-.083-1.095-.25a1.807 1.807 0 01-.72-.701 2.204 2.204 0 01-.25-1.066v-1.441c0-.41.083-.766.25-1.067a1.8 1.8 0 01.72-.701 2.31 2.31 0 011.095-.25c.416 0 .778.084 1.085.25.314.166.555.4.721.701.173.301.26.657.26 1.067v.931H49.8v.51c0 .416.106.736.317.96.211.218.512.327.903.327.333 0 .602-.058.807-.173a.763.763 0 00.375-.538h.864a1.472 1.472 0 01-.653 1.057c-.371.256-.836.384-1.393.384zm1.22-3.103v-.355c0-.417-.106-.737-.317-.961-.205-.224-.506-.336-.903-.336-.39 0-.692.112-.903.336-.211.224-.317.544-.317.96v.28h2.507l-.067.076zM54.558 68v-5.284h1.172l.691 2.027c.07.205.135.41.193.615.057.199.099.352.124.461.026-.109.065-.262.116-.46.057-.206.118-.414.182-.625l.654-2.018h1.172V68h-.836v-.817c0-.288.003-.602.01-.941l.019-1.028c.012-.346.025-.672.038-.98.013-.314.022-.59.029-.826l-.942 3.007h-.912l-.951-2.988c.012.288.022.647.028 1.076.013.43.023.878.03 1.345.012.468.019.913.019 1.335V68h-.836zm7.38.096c-.557 0-.996-.14-1.316-.423-.32-.288-.48-.675-.48-1.162 0-.493.16-.88.48-1.162.32-.282.752-.423 1.297-.423h1.633v-.529c0-.326-.1-.576-.298-.749-.192-.18-.467-.269-.826-.269-.314 0-.576.067-.788.202a.718.718 0 00-.365.528h-.864c.057-.454.272-.816.643-1.085.372-.27.836-.404 1.393-.404.609 0 1.09.157 1.441.471.353.314.529.74.529 1.278V68h-.846v-1.009h-.144l.144-.144c0 .385-.15.689-.451.913-.295.224-.689.336-1.182.336zm.212-.682c.41 0 .746-.103 1.008-.307a.957.957 0 00.394-.788v-.75h-1.614c-.288 0-.515.08-.682.24-.166.16-.25.379-.25.654 0 .294.1.528.298.701.205.167.487.25.846.25zm3.787.586v-5.284h1.172l.692 2.027c.07.205.134.41.192.615.058.199.1.352.125.461.025-.109.064-.262.115-.46.058-.206.118-.414.182-.625l.654-2.018h1.172V68h-.836v-.817c0-.288.003-.602.01-.941l.019-1.028.038-.98c.013-.314.023-.59.03-.826l-.942 3.007h-.913l-.951-2.988c.013.288.022.647.029 1.076.013.43.022.878.029 1.345.012.468.019.913.019 1.335V68h-.836zm5.863 0v-5.284h.826v2.882c0 .186-.007.381-.02.586-.006.205-.019.4-.038.586a6.1 6.1 0 01-.048.462l2.133-4.516h1.105V68h-.827v-2.882c0-.186.004-.381.01-.586.013-.205.029-.4.048-.586l.048-.47L72.904 68H71.8zm11.408 0v-5.284h.864v2.181h.903l1.537-2.18h.99l-1.777 2.516L87.53 68h-1.009l-1.537-2.354h-.913V68h-.864zm7.64.077c-.423 0-.788-.08-1.096-.24a1.744 1.744 0 01-.72-.692c-.167-.307-.25-.67-.25-1.086v-1.402c0-.423.083-.785.25-1.086.173-.3.413-.531.72-.691.308-.16.673-.24 1.096-.24.422 0 .787.08 1.095.24.307.16.544.39.71.691.173.301.26.66.26 1.076v1.412c0 .417-.087.779-.26 1.086a1.683 1.683 0 01-.71.692c-.308.16-.673.24-1.096.24zm0-.769c.377 0 .672-.105.883-.317.212-.211.317-.522.317-.932v-1.402c0-.41-.105-.72-.317-.932-.211-.211-.506-.317-.883-.317-.372 0-.666.106-.884.317-.212.211-.317.522-.317.932v1.402c0 .41.105.72.317.932.218.212.512.317.883.317zm3.537.692v-5.284h1.172l.692 2.027c.07.205.135.41.192.615.058.199.1.352.125.461.026-.109.064-.262.115-.46.058-.206.119-.414.183-.625l.653-2.018h1.172V68h-.836v-.817c0-.288.004-.602.01-.941l.02-1.028c.012-.346.025-.672.038-.98.012-.314.022-.59.028-.826l-.941 3.007h-.913l-.95-2.988c.012.288.022.647.028 1.076.013.43.022.878.029 1.345.013.468.02.913.02 1.335V68h-.837zm5.863 0v-5.284h3.958V68h-.865v-4.496h-2.229V68h-.864zm7.207.096c-.557 0-.996-.14-1.316-.423-.32-.288-.48-.675-.48-1.162 0-.493.16-.88.48-1.162.32-.282.753-.423 1.297-.423h1.633v-.529c0-.326-.099-.576-.297-.749-.193-.18-.468-.269-.827-.269-.314 0-.576.067-.787.202a.716.716 0 00-.365.528h-.865c.058-.454.272-.816.644-1.085.371-.27.835-.404 1.393-.404.608 0 1.088.157 1.441.471.352.314.528.74.528 1.278V68h-.845v-1.009h-.145l.145-.144c0 .385-.151.689-.452.913-.295.224-.688.336-1.182.336zm.212-.682c.41 0 .746-.103 1.008-.307a.956.956 0 00.394-.788v-.75h-1.614c-.288 0-.515.08-.682.24-.166.16-.249.379-.249.654 0 .294.099.528.297.701.205.167.487.25.846.25zm3.96.586v-5.284h.865v2.2h2.229v-2.2h.864V68h-.864v-2.296h-2.229V68h-.865zm5.69 0v-5.284h.826v2.882c0 .186-.006.381-.019.586-.007.205-.019.4-.039.586-.012.18-.028.333-.048.462l2.133-4.516h1.105V68h-.826v-2.882c0-.186.003-.381.009-.586.013-.205.029-.4.048-.586l.048-.47L118.422 68h-1.105zm5.689 0v-5.284h.827v2.882c0 .186-.007.381-.02.586a8.08 8.08 0 01-.038.586 6.36 6.36 0 01-.048.462l2.133-4.516h1.104V68h-.826v-2.882c0-.186.003-.381.01-.586.013-.205.029-.4.048-.586l.048-.47L124.111 68h-1.105zm10.765 1.345V67.26h.432c.109-.109.221-.323.336-.643.122-.32.186-.727.193-1.22l.057-2.68h3.449v4.543h.673v2.085h-.769V68h-3.603v1.345h-.768zm1.345-2.085h2.257v-3.775h-1.767l-.039 1.93c-.006.507-.06.917-.163 1.23-.102.314-.198.52-.288.615zm4.297.807v-.807h.172c.295 0 .5-.115.615-.346.122-.23.186-.643.192-1.239l.058-2.959h3.583V68h-.864v-4.496h-1.864l-.048 2.21c-.013.557-.077 1.008-.192 1.354-.109.346-.282.599-.519.76-.23.16-.535.24-.912.24h-.221zm6.025-.067l1.355-2.037c-.403-.096-.717-.281-.941-.557-.218-.275-.327-.618-.327-1.028 0-.519.17-.925.509-1.22.346-.294.817-.442 1.412-.442h2.277V68h-.865v-1.97h-1.162L146.447 68h-1.009zm2.008-2.738h1.412v-1.777h-1.412c-.32 0-.573.08-.759.24-.185.154-.278.372-.278.653 0 .276.093.493.278.653.186.154.439.231.759.231zM16.421 88.096c-.557 0-.996-.14-1.316-.423-.32-.288-.48-.675-.48-1.162 0-.493.16-.88.48-1.162.32-.282.752-.423 1.297-.423h1.633v-.529c0-.326-.1-.576-.298-.749-.192-.18-.467-.269-.826-.269-.314 0-.577.067-.788.202a.718.718 0 00-.365.528h-.865c.058-.454.273-.816.644-1.085.371-.27.836-.404 1.393-.404.608 0 1.089.157 1.441.471.352.314.528.74.528 1.278V88h-.845v-1.009h-.144l.144-.144c0 .385-.15.689-.451.913-.295.224-.689.336-1.182.336zm.211-.682c.41 0 .746-.103 1.009-.307a.957.957 0 00.394-.788v-.75H16.42c-.288 0-.516.08-.682.24-.167.16-.25.379-.25.654 0 .294.1.528.298.701.205.167.487.25.845.25zm3.99.586v-5.284h.864v2.181h.903l1.537-2.18h.99l-1.777 2.516L24.945 88h-1.01L22.4 85.646h-.913V88h-.864zm7.207 0v-4.525h-1.921v-.759h4.707v.76h-1.921V88h-.865zm4.95 1.73l.778-2.057-1.96-4.957h.961l1.23 3.267a2.9 2.9 0 01.125.393l.096.375c.025-.102.057-.227.096-.375.038-.153.077-.285.115-.393l1.153-3.267h.932L33.7 89.73h-.922zm6.4-1.634c-.557 0-.995-.14-1.316-.423-.32-.288-.48-.675-.48-1.162 0-.493.16-.88.48-1.162.32-.282.753-.423 1.297-.423h1.634v-.529c0-.326-.1-.576-.298-.749-.193-.18-.468-.269-.827-.269-.313 0-.576.067-.787.202a.718.718 0 00-.365.528h-.865c.058-.454.272-.816.644-1.085.371-.27.836-.404 1.393-.404.608 0 1.088.157 1.44.471.353.314.53.74.53 1.278V88h-.846v-1.009h-.144l.144-.144c0 .385-.15.689-.452.913-.294.224-.688.336-1.181.336zm.212-.682c.41 0 .746-.103 1.009-.307a.957.957 0 00.394-.788v-.75H39.18c-.289 0-.516.08-.683.24-.166.16-.25.379-.25.654 0 .294.1.528.298.701.205.167.487.25.846.25zm3.297.653v-.807h.173c.295 0 .5-.115.615-.346.122-.23.186-.643.192-1.239l.058-2.959h3.583V88h-.864v-4.496H44.58l-.048 2.21c-.013.557-.077 1.008-.192 1.354-.11.346-.282.599-.519.76-.23.16-.535.24-.913.24h-.22zM49.041 88v-5.284h.826v2.882c0 .186-.006.381-.02.586-.005.205-.018.4-.038.586a6.1 6.1 0 01-.047.462l2.132-4.516H53V88h-.826v-2.882c0-.186.003-.381.01-.586.012-.205.028-.4.047-.586l.048-.47L50.146 88H49.04zm7.419.067c-.557 0-1.015-.118-1.374-.355a1.412 1.412 0 01-.634-.96h.913c.044.16.163.29.355.393.199.103.445.154.74.154h.451c.314 0 .557-.074.73-.221a.71.71 0 00.27-.577c0-.256-.087-.458-.26-.605-.167-.147-.413-.22-.74-.22H55.75v-.75h1.133c.295 0 .52-.07.673-.212a.72.72 0 00.23-.557.728.728 0 00-.105-.403.611.611 0 00-.298-.25 1.243 1.243 0 00-.49-.086h-.48c-.256 0-.477.057-.663.172-.186.116-.298.257-.336.423H54.5c.064-.397.272-.724.624-.98.353-.256.782-.384 1.288-.384h.48c.378 0 .701.06.97.183.27.115.474.281.615.5.148.217.221.476.221.777 0 .314-.102.574-.307.778-.205.199-.493.311-.865.337v.038c.455.032.785.154.99.365.205.212.307.516.307.913 0 .467-.173.839-.519 1.114-.346.276-.81.413-1.393.413h-.451zm5.478.03c-.557 0-.996-.142-1.316-.424-.32-.288-.48-.675-.48-1.162 0-.493.16-.88.48-1.162.32-.282.752-.423 1.297-.423h1.633v-.529c0-.326-.1-.576-.298-.749-.192-.18-.467-.269-.826-.269-.314 0-.576.067-.788.202a.718.718 0 00-.365.528h-.864c.057-.454.272-.816.643-1.085.372-.27.836-.404 1.393-.404.609 0 1.09.157 1.441.471.353.314.529.74.529 1.278V88h-.846v-1.009h-.144l.144-.144c0 .385-.15.689-.451.913-.295.224-.689.336-1.182.336zm.212-.683c.41 0 .746-.103 1.008-.307a.957.957 0 00.394-.788v-.75h-1.614c-.288 0-.515.08-.682.24-.166.16-.25.379-.25.654 0 .294.1.528.298.701.205.167.487.25.846.25zm7.716 1.93V88H66.11v-5.284h.865v4.516h2.075v-4.516h.864v4.516h.72v2.113h-.768zM71.8 88v-5.284h.826v2.882c0 .186-.007.381-.02.586-.006.205-.019.4-.038.586a6.1 6.1 0 01-.048.462l2.133-4.516h1.105V88h-.827v-2.882c0-.186.004-.381.01-.586.013-.205.029-.4.048-.586l.048-.47L72.904 88H71.8zm5.69 0v-5.284h.825v2.882c0 .186-.006.381-.019.586-.006.205-.019.4-.038.586a6.36 6.36 0 01-.048.462l2.132-4.516h1.105V88h-.826v-2.882c0-.186.003-.381.01-.586.012-.205.028-.4.048-.586l.048-.47L78.594 88h-1.105zm11.379 0v-5.284h.826v2.882c0 .186-.007.381-.02.586-.006.205-.019.4-.038.586a6.1 6.1 0 01-.048.462l2.133-4.516h1.105V88H92v-2.882c0-.186.004-.381.01-.586.013-.205.029-.4.048-.586l.048-.47L89.973 88h-1.105zm5.69 0v-5.284h.864v2.2h2.229v-2.2h.864V88h-.864v-2.296h-2.23V88h-.864zm7.284 1.73V88c-.615 0-1.099-.173-1.451-.519-.352-.346-.528-.82-.528-1.422v-1.421c0-.596.176-1.064.528-1.403.359-.346.842-.519 1.451-.519v-1.729h.768v1.73c.615 0 1.098.172 1.451.518.352.34.528.807.528 1.403v1.421c0 .603-.176 1.076-.528 1.422-.353.346-.836.519-1.451.519v1.73h-.768zm.019-2.412v-3.92c-.372 0-.663.11-.874.327-.212.218-.317.522-.317.913v1.421c0 .391.105.698.317.923.211.224.502.336.874.336zm.73 0c.378 0 .669-.112.874-.336.211-.225.317-.532.317-.923v-1.421c0-.391-.106-.695-.317-.913-.205-.218-.496-.327-.874-.327v3.92zm5.324.759c-.422 0-.787-.08-1.095-.24a1.745 1.745 0 01-.72-.692c-.167-.307-.25-.67-.25-1.086v-1.402c0-.423.083-.785.25-1.086.173-.3.413-.531.72-.691.308-.16.673-.24 1.095-.24.423 0 .788.08 1.096.24.307.16.544.39.711.691.172.301.259.66.259 1.076v1.412c0 .417-.087.779-.259 1.086a1.689 1.689 0 01-.711.692c-.308.16-.673.24-1.096.24zm0-.769c.378 0 .673-.105.884-.317.212-.211.317-.522.317-.932v-1.402c0-.41-.105-.72-.317-.932-.211-.211-.506-.317-.884-.317-.371 0-.666.106-.883.317-.212.211-.317.522-.317.932v1.402c0 .41.105.72.317.932.217.212.512.317.883.317zm3.692 2.421v-7.013h.865v1.009h.172l-.172.202c0-.404.131-.72.393-.951.269-.237.622-.356 1.057-.356.532 0 .954.176 1.268.529.32.345.481.823.481 1.431v1.547c0 .403-.074.752-.221 1.047a1.57 1.57 0 01-.606.682c-.256.16-.563.24-.922.24-.429 0-.778-.118-1.047-.355-.269-.237-.403-.554-.403-.951l.172.201h-.192l.02 1.201v1.537h-.865zm2.027-2.382c.365 0 .65-.11.855-.327.211-.218.317-.531.317-.941v-1.441c0-.41-.106-.724-.317-.942-.205-.218-.49-.326-.855-.326-.352 0-.634.112-.845.336-.212.224-.317.535-.317.932v1.44c0 .398.105.708.317.932.211.225.493.337.845.337zm3.509.653v-5.284h1.172l.692 2.027c.07.205.134.41.192.615.057.199.099.352.125.461a20.9 20.9 0 01.115-.46c.058-.206.118-.414.182-.625l.654-2.018h1.172V88h-.836v-.817c0-.288.003-.602.01-.941l.019-1.028c.013-.346.025-.672.038-.98.013-.314.023-.59.029-.826l-.941 3.007h-.913l-.951-2.988c.013.288.022.647.029 1.076.012.43.022.878.028 1.345.013.468.02.913.02 1.335V88h-.836zm7.38.096c-.557 0-.996-.14-1.316-.423-.32-.288-.48-.675-.48-1.162 0-.493.16-.88.48-1.162.32-.282.753-.423 1.297-.423h1.633v-.529c0-.326-.099-.576-.298-.749-.192-.18-.467-.269-.826-.269-.314 0-.576.067-.787.202a.717.717 0 00-.366.528h-.864c.058-.454.272-.816.644-1.085.371-.27.835-.404 1.392-.404.609 0 1.089.157 1.442.471.352.314.528.74.528 1.278V88h-.846v-1.009h-.144l.144-.144c0 .385-.15.689-.451.913-.295.224-.689.336-1.182.336zm.212-.682c.41 0 .746-.103 1.008-.307a.956.956 0 00.394-.788v-.75h-1.614c-.288 0-.515.08-.682.24-.166.16-.25.379-.25.654 0 .294.1.528.298.701.205.167.487.25.846.25zm7.716 1.93V88h-3.756v-5.284h.865v4.516h2.075v-4.516h.864v4.516h.721v2.113h-.769zM134.386 88v-5.284h.826v2.882c0 .186-.006.381-.019.586-.007.205-.019.4-.039.586-.012.18-.028.333-.048.462l2.133-4.516h1.105V88h-.826v-2.882c0-.186.003-.381.009-.586.013-.205.029-.4.048-.586l.048-.47L135.491 88h-1.105zm5.689 0v-5.284h.827v2.882c0 .186-.007.381-.02.586a8.08 8.08 0 01-.038.586 6.36 6.36 0 01-.048.462l2.133-4.516h1.104V88h-.826v-2.882c0-.186.003-.381.01-.586.013-.205.029-.4.048-.586l.048-.47L141.18 88h-1.105zm7.669.096c-.243 0-.439-.07-.586-.211-.141-.141-.211-.33-.211-.567 0-.25.07-.448.211-.596.147-.147.343-.22.586-.22.243 0 .436.073.576.22.148.148.221.346.221.596 0 .237-.073.426-.221.567-.14.14-.333.211-.576.211z" fill="#fff"/><defs><filter id="filter0_d_440_828" x=".157" y="0" width="179.685" height="144.685" filterUnits="userSpaceOnUse" color-interpolation-filters="sRGB"><feFlood flood-opacity="0" result="BackgroundImageFix"/><feColorMatrix in="SourceAlpha" values="0 0 0 0 0 0 0 0 0 0 0 0 0 0 0 0 0 0 127 0" result="hardAlpha"/><feOffset dy="3.843"/><feGaussianBlur stdDeviation="1.921"/><feComposite in2="hardAlpha" operator="out"/><feColorMatrix values="0 0 0 0 0 0 0 0 0 0 0 0 0 0 0 0 0 0 0.25 0"/><feBlend in2="BackgroundImageFix" result="effect1_dropShadow_440_828"/><feBlend in="SourceGraphic" in2="effect1_dropShadow_440_828" result="shape"/></filter></defs></svg>