<svg width="153" height="173" fill="none" xmlns="http://www.w3.org/2000/svg"><rect x=".421" y=".421" width="152.158" height="172.158" rx="19.579" fill="url(#paint0_linear_2003_38)" fill-opacity=".53" stroke="url(#paint1_linear_2003_38)" stroke-width=".842"/><mask id="a" style="mask-type:alpha" maskUnits="userSpaceOnUse" x="0" y="0" width="153" height="159"><rect x=".421" y=".421" width="152.158" height="158.158" rx="19.579" fill="url(#paint2_linear_2003_38)" fill-opacity=".53" stroke="#D4D5C8" stroke-width=".842"/></mask><g filter="url(#filter0_f_2003_38)" mask="url(#a)"><path d="M10 191.905c-5.136 0-9.511-1.397-13.125-4.193-3.614-2.818-6.375-6.898-8.284-12.239-1.91-5.363-2.864-11.84-2.864-19.431 0-7.546.955-13.989 2.864-19.33 1.932-5.364 4.704-9.455 8.318-12.273 3.636-2.841 8-4.261 13.091-4.261 5.09 0 9.443 1.42 13.057 4.261 3.636 2.818 6.409 6.909 8.318 12.273 1.932 5.341 2.898 11.784 2.898 19.33 0 7.591-.955 14.068-2.864 19.431-1.909 5.341-4.67 9.421-8.284 12.239-3.614 2.796-7.989 4.193-13.125 4.193zm0-7.5c5.09 0 9.046-2.454 11.864-7.363 2.818-4.909 4.227-11.909 4.227-21 0-6.046-.648-11.194-1.943-15.444-1.273-4.25-3.114-7.488-5.523-9.716-2.386-2.227-5.261-3.34-8.625-3.34-5.045 0-8.989 2.488-11.83 7.465-2.84 4.955-4.26 11.966-4.26 21.035 0 6.045.635 11.181 1.908 15.409 1.273 4.227 3.102 7.443 5.489 9.647 2.409 2.205 5.307 3.307 8.693 3.307zm61.773-63.273v69.819h-8.455v-60.955h-.409l-17.045 11.318v-8.591l17.454-11.591h8.455z" fill="#CCEC60"/></g><path d="M11.792 36.96V28.2h1.8v3.36h2.016V28.2h1.8v8.76h-1.8v-3.72h-2.016v3.72h-1.8zm10.015.12c-.584 0-1.096-.108-1.536-.325a2.505 2.505 0 01-1.008-.924c-.232-.4-.348-.864-.348-1.392v-1.56c0-.527.116-.987.348-1.38.24-.4.576-.707 1.008-.923.44-.224.952-.337 1.536-.337.584 0 1.088.113 1.512.337.432.215.764.523.996.924.24.392.36.852.36 1.38v1.2h-4.044v.36c0 .416.1.732.3.948.2.208.5.312.9.312.28 0 .504-.049.672-.145a.698.698 0 00.348-.395h1.764c-.144.576-.472 1.04-.984 1.392-.504.352-1.112.528-1.824.528zm1.152-3.924v-.3c0-.409-.096-.72-.288-.937-.184-.216-.472-.323-.864-.323s-.688.111-.888.335c-.192.225-.288.54-.288.948v.18l2.448-.023-.12.12zm6.032 3.924c-.584 0-1.092-.108-1.524-.325a2.505 2.505 0 01-1.008-.924c-.232-.4-.348-.864-.348-1.392v-1.56c0-.527.116-.987.348-1.38.24-.4.576-.707 1.008-.923.432-.224.94-.337 1.524-.337.592 0 1.1.113 1.524.337.432.215.764.523.996.924.24.392.36.852.36 1.38v1.56c0 .528-.12.992-.36 1.392-.232.392-.564.7-.996.923-.424.216-.932.325-1.524.325zm0-1.56c.352 0 .62-.093.804-.277.184-.192.276-.46.276-.803v-1.56c0-.352-.092-.62-.276-.805-.184-.184-.452-.276-.804-.276-.344 0-.612.093-.804.276-.184.184-.276.453-.276.804v1.56c0 .344.092.612.276.804.192.184.46.276.804.276zm4.387 1.44v-6.6h5.616v6.6h-1.8v-4.92h-2.016v4.92h-1.8zm7.195 2.16v-8.76h1.74v1.26h.42l-.42.42c0-.569.156-1.008.468-1.32.312-.32.74-.48 1.284-.48.664 0 1.196.236 1.596.708.4.463.6 1.087.6 1.871v1.68c0 .52-.092.976-.276 1.368a2.093 2.093 0 01-.756.9c-.328.208-.716.313-1.164.313-.544 0-.972-.157-1.284-.468-.312-.32-.468-.765-.468-1.333l.42.42h-.42l.06 1.62v1.8h-1.8zm2.844-3.6c.336 0 .592-.093.768-.277.184-.192.276-.46.276-.803v-1.56c0-.352-.092-.62-.276-.805-.176-.184-.432-.276-.768-.276-.328 0-.584.096-.768.288-.184.184-.276.448-.276.792v1.56c0 .344.092.612.276.804.184.184.44.276.768.276zm7.172 1.56c-.584 0-1.096-.108-1.536-.325a2.505 2.505 0 01-1.008-.924c-.232-.4-.348-.864-.348-1.392v-1.56c0-.527.116-.987.348-1.38.24-.4.576-.707 1.008-.923.44-.224.952-.337 1.536-.337.584 0 1.088.113 1.512.337.432.215.764.523.996.924.24.392.36.852.36 1.38v1.2h-4.044v.36c0 .416.1.732.3.948.2.208.5.312.9.312.28 0 .504-.049.672-.145a.698.698 0 00.348-.395h1.764c-.144.576-.472 1.04-.984 1.392-.504.352-1.112.528-1.824.528zm1.152-3.924v-.3c0-.409-.096-.72-.288-.937-.184-.216-.472-.323-.864-.323s-.688.111-.888.335c-.192.225-.288.54-.288.948v.18l2.448-.023-.12.12zm2.695 5.483v-3.204h.372c.136-.136.276-.372.42-.708.152-.343.232-.76.24-1.247l.06-3.12h4.86v5.075h.72v3.204h-1.68v-1.68h-3.312v1.68h-1.68zm2.16-3.204h2.112v-3.528h-1.524l-.036 1.56a3.767 3.767 0 01-.204 1.224c-.12.344-.236.592-.348.744zm8.383 1.645c-.584 0-1.096-.108-1.536-.325a2.505 2.505 0 01-1.008-.924c-.232-.4-.348-.864-.348-1.392v-1.56c0-.527.116-.987.348-1.38.24-.4.576-.707 1.008-.923.44-.224.952-.337 1.536-.337.584 0 1.088.113 1.512.337.432.215.764.523.996.924.24.392.36.852.36 1.38v1.2h-4.044v.36c0 .416.1.732.3.948.2.208.5.312.9.312.28 0 .504-.049.672-.145a.698.698 0 00.348-.395h1.764c-.144.576-.472 1.04-.984 1.392-.504.352-1.112.528-1.824.528zm1.152-3.924v-.3c0-.409-.096-.72-.288-.937-.184-.216-.472-.323-.864-.323s-.688.111-.888.335c-.192.225-.288.54-.288.948v.18l2.448-.023-.12.12zm2.683 3.888v-1.62h.36c.208 0 .38-.088.516-.264.136-.176.209-.408.216-.696l.072-4.104h4.993v6.6h-1.8v-4.92h-1.428l-.048 2.544c-.008.487-.116.92-.324 1.295-.2.369-.48.657-.84.864-.353.2-.765.3-1.237.3h-.48zm12.008-7.728c-.296 0-.532-.084-.708-.252-.168-.169-.252-.396-.252-.684 0-.288.084-.517.252-.684.176-.169.412-.253.708-.253s.528.084.696.252c.176.168.264.396.264.684 0 .288-.088.516-.264.684-.168.169-.4.253-.696.253zm-2.928 0c-.296 0-.532-.084-.708-.252-.168-.169-.252-.396-.252-.684 0-.288.084-.517.252-.684.176-.169.412-.253.708-.253s.528.084.696.252c.176.168.264.396.264.684 0 .288-.088.516-.264.684-.168.169-.4.253-.696.253zm1.476 7.764c-.584 0-1.096-.108-1.536-.325a2.505 2.505 0 01-1.008-.924c-.232-.4-.348-.864-.348-1.392v-1.56c0-.527.116-.987.348-1.38.24-.4.576-.707 1.008-.923.44-.224.952-.337 1.536-.337.584 0 1.088.113 1.512.337.432.215.764.523.996.924.24.392.36.852.36 1.38v1.2h-4.044v.36c0 .416.1.732.3.948.2.208.5.312.9.312.28 0 .504-.049.672-.145a.698.698 0 00.348-.395h1.764c-.144.576-.472 1.04-.984 1.392-.504.352-1.112.528-1.824.528zm1.152-3.924v-.3c0-.409-.096-.72-.288-.937-.184-.216-.472-.323-.864-.323s-.688.111-.888.335c-.192.225-.288.54-.288.948v.18l2.448-.023-.12.12zm3.223 3.803v-6.6h1.8v2.413h2.016V30.36h1.8v6.6h-1.8v-2.508h-2.016v2.508h-1.8zm7.195 0v-6.6h1.8v2.413h2.016V30.36h1.8v6.6h-1.8v-2.508H92.74v2.508h-1.8zm10.004.12c-.584 0-1.092-.108-1.524-.324a2.505 2.505 0 01-1.008-.924c-.232-.4-.348-.864-.348-1.392v-1.56c0-.527.116-.987.348-1.38.24-.4.576-.707 1.008-.923.432-.224.94-.337 1.524-.337.592 0 1.1.113 1.524.337.432.215.764.523.996.924.24.392.36.852.36 1.38v1.56c0 .528-.12.992-.36 1.392-.232.392-.564.7-.996.923-.424.216-.932.325-1.524.325zm0-1.56c.352 0 .62-.091.804-.276.184-.192.276-.46.276-.803v-1.56c0-.352-.092-.62-.276-.805-.184-.184-.452-.276-.804-.276-.344 0-.612.093-.804.276-.184.184-.276.453-.276.804v1.56c0 .344.092.612.276.804.192.184.46.276.804.276zm7.231 1.56c-.584 0-1.096-.108-1.536-.324a2.488 2.488 0 01-1.02-.924c-.24-.4-.36-.864-.36-1.392v-1.56c0-.535.12-1 .36-1.391.24-.392.58-.697 1.02-.912.44-.224.952-.337 1.536-.337.872 0 1.568.22 2.088.66.52.44.796 1.04.828 1.8h-1.8a.904.904 0 00-.336-.66c-.192-.16-.452-.24-.78-.24-.36 0-.636.093-.828.276-.192.184-.288.453-.288.804v1.56c0 .344.096.612.288.804.192.184.468.276.828.276.328 0 .588-.075.78-.227.2-.16.312-.385.336-.672h1.8c-.032.76-.308 1.36-.828 1.8-.52.44-1.216.66-2.088.66zm6.259-.12v-4.92h-2.16v-1.68h6.12v1.68h-2.16v4.92h-1.8zm5.336 0v-6.6h1.8v1.98h1.548c.832 0 1.48.209 1.944.625.472.407.708.976.708 1.703 0 .704-.24 1.264-.72 1.68-.472.408-1.112.612-1.92.612h-3.36zm1.8-1.56h1.44c.304 0 .536-.063.696-.191a.673.673 0 00.252-.552c0-.24-.084-.425-.252-.553-.16-.136-.392-.203-.696-.203h-1.44v1.5zm12.53 1.56v-6.6h2.988c.808 0 1.448.164 1.92.492.48.32.72.757.72 1.309 0 .44-.18.796-.54 1.068-.36.264-.836.395-1.428.395v-.12c.648 0 1.164.145 1.548.432.392.288.588.668.588 1.14 0 .584-.24 1.044-.72 1.38-.472.337-1.116.505-1.932.505H134.1zm1.764-1.272h1.296c.296 0 .532-.067.708-.203a.671.671 0 00.276-.553.694.694 0 00-.276-.575c-.176-.145-.412-.217-.708-.217h-1.296v1.548zm0-2.603h1.236c.272 0 .488-.065.648-.193a.66.66 0 00.24-.527.674.674 0 00-.24-.54c-.16-.137-.376-.205-.648-.205h-1.236v1.465zM11.792 52.959v-6.6h5.616v6.6h-1.8v-4.92h-2.016v4.92h-1.8zm10.003.12c-.584 0-1.092-.108-1.524-.324a2.505 2.505 0 01-1.008-.924c-.232-.4-.348-.864-.348-1.392v-1.56c0-.527.116-.987.348-1.38.24-.4.576-.708 1.008-.924.432-.224.94-.336 1.524-.336.592 0 1.1.113 1.524.337.432.215.764.523.996.923.24.392.36.852.36 1.38v1.56c0 .529-.12.992-.36 1.392-.232.392-.564.7-.996.924-.424.216-.932.325-1.524.325zm0-1.56c.352 0 .62-.091.804-.276.184-.192.276-.46.276-.803v-1.56c0-.352-.092-.62-.276-.805-.184-.184-.452-.276-.804-.276-.344 0-.612.093-.804.276-.184.184-.276.453-.276.804v1.56c0 .344.092.612.276.804.192.184.46.276.804.276zm4.388 1.44v-6.6h1.8v2.413h2.016v-2.413h1.8v6.6h-1.8v-2.508h-2.016v2.508h-1.8zm7.195 0v-6.6h1.584v3c0 .2-.012.453-.036.756-.024.296-.056.596-.096.9-.032.304-.068.572-.108.804l2.088-5.46h2.184v6.6H37.41v-3c0-.208.012-.444.036-.708.024-.271.052-.543.084-.816.032-.272.064-.504.096-.696l-2.064 5.22h-2.184zm6.907 0v-6.6h2.028l.78 2.46c.088.28.156.536.204.768.056.224.088.392.096.505.016-.112.044-.28.084-.505.048-.232.116-.488.204-.768l.768-2.46h2.028v6.6h-1.644v-1.2c0-.264.004-.56.012-.888l.048-1.032c.024-.36.044-.703.06-1.032.024-.336.048-.632.072-.888l-.876 3.18h-1.524l-.924-3.18c.032.329.064.72.096 1.177.04.456.072.92.096 1.392.024.464.036.888.036 1.272v1.2h-1.644zm9.44.12c-.664 0-1.192-.18-1.584-.54-.384-.36-.576-.848-.576-1.464 0-.664.228-1.172.684-1.524.464-.36 1.128-.54 1.992-.54h1.368v-.492a.753.753 0 00-.276-.611c-.176-.153-.416-.229-.72-.229-.28 0-.512.064-.696.192a.787.787 0 00-.336.529h-1.74c.072-.664.36-1.188.864-1.572.512-.393 1.168-.589 1.968-.589.84 0 1.504.209 1.992.625.496.408.744.96.744 1.656v4.44h-1.74v-1.08h-.288l.3-.42c0 .495-.18.892-.54 1.188-.352.287-.824.431-1.416.431zm.672-1.32c.352 0 .64-.092.864-.276a.921.921 0 00.348-.743v-.709h-1.332c-.272 0-.492.08-.66.24-.168.152-.252.356-.252.612 0 .273.092.488.276.648.184.153.436.229.756.229zm4.567 1.2v-6.6h1.8v2.413h2.016v-2.413h1.8v6.6h-1.8v-2.508h-2.016v2.508h-1.8zm7.195 0v-6.6h1.584v3c0 .2-.012.453-.036.756-.024.296-.056.596-.096.9-.032.304-.068.572-.108.804l2.088-5.46h2.184v6.6h-1.584v-3c0-.208.012-.444.036-.708.024-.271.052-.543.084-.816.032-.272.064-.504.096-.696l-2.064 5.22H62.16zm7.196 0v-6.6h1.584v3c0 .2-.012.453-.036.756a18.15 18.15 0 01-.097.9c-.031.304-.067.572-.108.804l2.089-5.46h2.183v6.6h-1.584v-3c0-.208.013-.444.037-.708.023-.271.052-.543.084-.816.031-.272.063-.504.096-.696l-2.064 5.22h-2.184zm18.854 1.68v-1.68h-4.464v-6.6h1.8v4.92h1.644v-4.92h1.8v4.92h.9v3.36h-1.68zm5.551-1.56c-.584 0-1.096-.108-1.536-.324a2.505 2.505 0 01-1.008-.924c-.232-.4-.348-.864-.348-1.392v-1.56c0-.527.116-.987.348-1.38.24-.4.576-.708 1.008-.924.44-.224.952-.336 1.536-.336.584 0 1.088.113 1.512.337.432.215.764.523.996.923.24.392.36.852.36 1.38v1.2h-4.044v.36c0 .416.1.733.3.949.2.208.5.312.9.312.28 0 .504-.049.672-.145a.698.698 0 00.348-.395h1.764c-.144.576-.472 1.04-.984 1.392-.504.352-1.112.528-1.824.528zm1.152-3.923v-.3c0-.409-.096-.72-.288-.937-.184-.215-.472-.323-.864-.323s-.688.112-.888.336c-.192.224-.288.54-.288.947v.18l2.448-.023-.12.12zm2.684 3.888v-1.62h.36c.208 0 .38-.088.516-.264.136-.176.208-.408.216-.696l.072-4.105h4.992v6.6h-1.8v-4.92h-1.428l-.048 2.544c-.008.489-.116.92-.324 1.297-.2.367-.48.655-.84.863-.352.2-.764.3-1.236.3h-.48zm10.555.036c-.584 0-1.096-.108-1.536-.325a2.505 2.505 0 01-1.008-.924c-.232-.4-.348-.864-.348-1.392v-1.56c0-.527.116-.987.348-1.38.24-.4.576-.708 1.008-.924.44-.224.952-.336 1.536-.336.584 0 1.088.113 1.512.337.432.215.764.523.996.923.24.392.36.852.36 1.38v1.2h-4.044v.36c0 .416.1.733.3.949.2.208.5.312.9.312.28 0 .504-.049.672-.145a.698.698 0 00.348-.395h1.764c-.144.576-.472 1.04-.984 1.392-.504.352-1.112.528-1.824.528zm1.152-3.924v-.3c0-.409-.096-.72-.288-.937-.184-.215-.472-.323-.864-.323s-.688.112-.888.336c-.192.224-.288.54-.288.947v.18l2.448-.023-.12.12zm3.211 3.803v-6.6h2.988c.808 0 1.448.164 1.92.492.48.32.72.757.72 1.309 0 .44-.18.796-.54 1.068-.36.264-.836.395-1.428.395v-.12c.648 0 1.164.145 1.548.432.392.288.588.668.588 1.14 0 .584-.24 1.044-.72 1.38-.472.337-1.116.505-1.932.505h-3.144zm1.764-1.272h1.296c.296 0 .532-.067.708-.203a.671.671 0 00.276-.553.694.694 0 00-.276-.575c-.176-.145-.412-.217-.708-.217h-1.296v1.548zm0-2.603h1.236c.272 0 .488-.065.648-.193a.66.66 0 00.24-.527.674.674 0 00-.24-.54c-.16-.136-.376-.204-.648-.204h-1.236v1.464zm8.252 3.995c-.584 0-1.092-.108-1.524-.324a2.505 2.505 0 01-1.008-.924c-.232-.4-.348-.864-.348-1.392v-1.56c0-.527.116-.987.348-1.38.24-.4.576-.708 1.008-.924.432-.224.94-.336 1.524-.336.592 0 1.1.113 1.524.337.432.215.764.523.996.923.24.392.36.852.36 1.38v1.56c0 .529-.12.992-.36 1.392-.232.392-.564.7-.996.924-.424.216-.932.325-1.524.325zm0-1.56c.352 0 .62-.091.804-.276.184-.192.276-.46.276-.803v-1.56c0-.352-.092-.62-.276-.805-.184-.184-.452-.276-.804-.276-.344 0-.612.093-.804.276-.184.184-.276.453-.276.804v1.56c0 .344.092.612.276.804.192.184.46.276.804.276zm4.387 1.44v-6.6h1.584v3c0 .2-.012.453-.036.756-.024.296-.056.596-.096.9-.032.304-.068.572-.108.804l2.088-5.46h2.184v6.6h-1.584v-3c0-.208.012-.444.036-.708.024-.271.052-.543.084-.816.032-.272.064-.504.096-.696l-2.064 5.22h-2.184zm2.856-7.62c-.656 0-1.192-.163-1.608-.492a1.615 1.615 0 01-.612-1.308h1.38a.73.73 0 00.228.553c.16.136.364.203.612.203.256 0 .46-.068.612-.203a.727.727 0 00.228-.553h1.38c0 .536-.204.972-.612 1.308-.408.328-.944.492-1.608.492zM13.748 69.08c-.664 0-1.192-.18-1.584-.54-.384-.36-.576-.847-.576-1.463 0-.664.228-1.172.684-1.524.464-.36 1.128-.54 1.992-.54h1.368v-.493a.753.753 0 00-.276-.612c-.176-.151-.416-.227-.72-.227-.28 0-.512.063-.696.191a.787.787 0 00-.336.529h-1.74c.072-.665.36-1.189.864-1.573.512-.392 1.168-.587 1.968-.587.84 0 1.504.207 1.992.623.496.409.744.96.744 1.656v4.44h-1.74v-1.08h-.288l.3-.42c0 .496-.18.892-.54 1.188-.352.288-.824.432-1.416.432zm.672-1.32c.352 0 .64-.091.864-.275a.921.921 0 00.348-.744v-.709H14.3c-.272 0-.492.08-.66.24a.786.786 0 00-.252.612c0 .273.092.489.276.648.184.152.436.228.756.228zm5.66 3.36l.9-2.484-2.473-6.276h1.956l.996 2.88c.072.216.144.48.216.792.08.304.14.552.18.744.04-.192.096-.44.168-.744.08-.312.156-.576.228-.791l.96-2.88h1.872l-3.12 8.76H20.08zm5.575-.48v-3.203h.372c.136-.137.276-.373.42-.709.152-.344.232-.76.24-1.248l.06-3.12h4.86v5.077h.72v3.203h-1.68v-1.68h-3.312v1.68h-1.68zm2.16-3.203h2.112v-3.529h-1.524l-.036 1.56a3.767 3.767 0 01-.204 1.225c-.12.344-.236.592-.348.744zm5.563 1.523v-6.6h1.584v3c0 .2-.012.453-.036.757-.024.296-.056.596-.096.9-.032.303-.068.572-.108.803l2.088-5.46h2.184v6.6H37.41v-3c0-.208.012-.444.036-.708.024-.272.052-.544.084-.816.032-.272.064-.504.096-.696l-2.064 5.22h-2.184zm9.103 0v-4.92h-2.16v-1.68h6.12v1.68h-2.16v4.92h-1.8zm8.096.12c-.584 0-1.092-.107-1.524-.323a2.505 2.505 0 01-1.008-.924c-.232-.4-.348-.864-.348-1.392v-1.56c0-.528.116-.988.348-1.38a2.4 2.4 0 011.008-.925c.432-.224.94-.336 1.524-.336.592 0 1.1.113 1.524.337.432.215.764.523.996.923.24.392.36.852.36 1.38v1.56c0 .529-.12.993-.36 1.393-.232.392-.564.7-.996.924-.424.216-.932.323-1.524.323zm0-1.56c.352 0 .62-.092.804-.276.184-.191.276-.46.276-.803v-1.56c0-.352-.092-.62-.276-.804-.184-.184-.452-.276-.804-.276-.344 0-.612.092-.804.276-.184.184-.276.452-.276.803v1.56c0 .345.092.613.276.805.192.183.46.275.804.275zm4.387 3.6v-8.76h1.74v1.26h.42l-.42.42c0-.568.156-1.008.468-1.32.312-.32.74-.48 1.284-.48.664 0 1.196.236 1.596.709.4.463.6 1.087.6 1.872v1.68c0 .52-.092.975-.276 1.368a2.093 2.093 0 01-.756.9c-.328.207-.716.311-1.164.311-.544 0-.972-.155-1.284-.467-.312-.32-.468-.764-.468-1.332l.42.42h-.42l.06 1.62v1.8h-1.8zm2.844-3.6c.336 0 .592-.092.768-.276.184-.191.276-.46.276-.803v-1.56c0-.352-.092-.62-.276-.804-.176-.184-.432-.276-.768-.276-.328 0-.584.096-.768.288-.184.184-.276.448-.276.791v1.56c0 .345.092.613.276.805.184.183.44.275.768.275zm4.351 1.44v-6.6h1.584v3c0 .2-.012.453-.036.757-.024.296-.056.596-.096.9-.032.303-.068.572-.108.803l2.088-5.46h2.184v6.6h-1.584v-3c0-.208.012-.444.036-.708.024-.272.052-.544.084-.816.032-.272.064-.504.096-.696l-2.064 5.22H62.16zm7.196 0v-6.6h1.584v3c0 .2-.012.453-.036.757a18.15 18.15 0 01-.097.9c-.031.303-.067.572-.108.803l2.089-5.46h2.183v6.6h-1.584v-3c0-.208.013-.444.037-.708.023-.272.052-.544.084-.816.031-.272.063-.504.096-.696l-2.064 5.22h-2.184zm10.003-4.56c-.36 0-.652-.1-.876-.3-.216-.2-.324-.46-.324-.78 0-.328.108-.588.324-.78.224-.2.516-.3.876-.3s.648.1.864.3c.224.192.336.453.336.78 0 .32-.112.58-.336.78-.216.2-.504.3-.864.3zm0 4.68c-.36 0-.652-.1-.876-.3-.216-.2-.324-.46-.324-.78 0-.328.108-.587.324-.78.224-.2.516-.3.876-.3s.648.1.864.3c.224.193.336.453.336.78 0 .32-.112.58-.336.78-.216.2-.504.3-.864.3z" fill="#5A482D"/><path d="M14.6 85.08c-.528 0-.984-.1-1.368-.3a2.12 2.12 0 01-.876-.865c-.2-.384-.3-.836-.3-1.356V78.6c0-.528.1-.98.3-1.356.208-.375.5-.663.876-.864.384-.2.84-.3 1.368-.3.528 0 .98.1 1.356.3.384.2.676.489.876.864.208.377.312.825.312 1.345v3.972c0 .52-.104.971-.312 1.355a2.03 2.03 0 01-.876.864c-.376.2-.828.3-1.356.3zm0-.972c.472 0 .832-.133 1.08-.397.256-.272.384-.656.384-1.151V78.6c0-.496-.128-.876-.384-1.14-.248-.272-.608-.408-1.08-.408-.464 0-.824.135-1.08.407-.256.264-.384.644-.384 1.14v3.96c0 .496.128.88.384 1.153.256.263.616.395 1.08.395zm6.655.852v-5.652h-2.4v-.949h5.88v.949h-2.4v5.651h-1.08zm7.76.12c-.528 0-.992-.1-1.392-.3a2.161 2.161 0 01-.912-.865c-.216-.384-.324-.836-.324-1.356v-1.8c0-.528.108-.98.324-1.356.216-.376.52-.663.912-.864.4-.2.864-.3 1.392-.3.76 0 1.372.204 1.836.612.464.409.708.965.732 1.668h-1.08c-.024-.424-.168-.748-.432-.972-.256-.231-.608-.347-1.056-.347-.472 0-.848.135-1.128.407-.28.264-.42.644-.42 1.14v1.813c0 .495.14.88.42 1.151.28.273.656.409 1.128.409.448 0 .8-.117 1.056-.349.264-.231.408-.555.432-.972h1.08c-.024.704-.268 1.26-.732 1.668-.464.409-1.076.612-1.836.612zm5.707 2.04l.972-2.569-2.448-6.192h1.2l1.536 4.08c.056.137.108.3.156.493a42 42 0 01.12.468l.12-.469c.048-.191.096-.355.144-.492l1.44-4.08h1.164l-3.252 8.76h-1.152zm8.12-2.16v-5.652h-2.4v-.949h5.88v.949h-2.4v5.651h-1.08zm7.759.12c-.528 0-.992-.1-1.392-.3a2.161 2.161 0 01-.912-.865c-.216-.384-.324-.836-.324-1.356v-1.8c0-.528.108-.98.324-1.356.216-.376.52-.663.912-.864.4-.2.864-.3 1.392-.3.76 0 1.372.204 1.836.612.464.409.708.965.732 1.668h-1.08c-.024-.424-.168-.748-.432-.972-.256-.231-.608-.347-1.056-.347-.472 0-.848.135-1.128.407-.28.264-.42.644-.42 1.14v1.813c0 .495.14.88.42 1.151.28.273.656.409 1.128.409.448 0 .8-.117 1.056-.349.264-.231.408-.555.432-.972h1.08c-.024.704-.268 1.26-.732 1.668-.464.409-1.076.612-1.836.612zm6.63-.12v-5.652h-2.4v-.949h5.88v.949h-2.4v5.651h-1.08zm5.264 0v-6.6h2.856c.688 0 1.22.156 1.596.468.376.303.564.731.564 1.284 0 .456-.156.824-.468 1.104-.312.272-.724.408-1.236.408v-.096c.56 0 1.008.14 1.344.42.344.28.516.656.516 1.128 0 .592-.2 1.056-.6 1.392-.4.328-.96.492-1.68.492h-2.892zm1.056-.948h1.836c.384 0 .68-.085.888-.252.216-.169.324-.404.324-.709 0-.311-.108-.552-.324-.72-.208-.168-.504-.252-.888-.252h-1.836v1.933zm0-2.868h1.8c.336 0 .6-.08.792-.24.2-.16.3-.385.3-.672 0-.288-.096-.513-.288-.672-.192-.169-.46-.252-.804-.252h-1.8v1.835zm6.14 3.816v-6.6h1.031v3.6c0 .232-.007.476-.023.732-.008.256-.025.5-.049.732a7.615 7.615 0 01-.06.575l2.664-5.64h1.38v6.6h-1.031v-3.6c0-.231.004-.475.012-.731.016-.257.035-.5.06-.733.023-.24.044-.435.06-.587l-2.665 5.651h-1.38zm9.667.12c-.52 0-.976-.105-1.368-.313a2.258 2.258 0 01-.9-.876c-.208-.384-.312-.828-.312-1.332v-1.8c0-.511.104-.956.312-1.332.216-.376.516-.668.9-.876.392-.207.848-.311 1.368-.311.52 0 .972.104 1.356.312.392.207.692.5.9.875.216.376.324.82.324 1.332v1.165h-4.104v.635c0 .52.132.92.396 1.2.264.272.64.409 1.128.409.416 0 .752-.073 1.008-.217a.953.953 0 00.468-.671h1.08c-.072.552-.344.992-.816 1.32-.464.32-1.044.48-1.74.48zm1.524-3.876v-.444c0-.52-.132-.92-.396-1.2-.256-.28-.632-.42-1.128-.42-.488 0-.864.14-1.128.42-.264.28-.396.68-.396 1.2v.347h3.132l-.084.097zm14.186 3.756v-2.4a5.25 5.25 0 01-.588.096 8.757 8.757 0 01-.816.035c-.816.008-1.452-.188-1.908-.588-.448-.407-.672-.975-.672-1.703v-2.04h1.08v2.04c0 .407.136.731.408.971.28.233.664.349 1.152.349.336 0 .62-.013.852-.037.24-.032.404-.06.492-.084v-3.24h1.08v6.6h-1.08zm7.208-7.788a.788.788 0 01-.564-.204c-.136-.136-.204-.32-.204-.553 0-.24.068-.428.204-.564a.763.763 0 01.564-.216c.232 0 .416.072.552.216.144.136.216.325.216.564 0 .232-.072.416-.216.552-.136.136-.32.204-.552.204zm-2.664 0a.788.788 0 01-.564-.204c-.136-.136-.204-.32-.204-.553 0-.24.068-.428.204-.564a.763.763 0 01.564-.216c.232 0 .416.072.552.216.144.136.216.325.216.564 0 .232-.072.416-.216.552-.136.136-.32.204-.552.204zm1.332 7.907c-.52 0-.976-.103-1.368-.311a2.258 2.258 0 01-.9-.877c-.208-.384-.312-.828-.312-1.332v-1.8c0-.511.104-.956.312-1.332.216-.376.516-.668.9-.876.392-.207.848-.311 1.368-.311.52 0 .972.104 1.356.312.392.207.692.5.9.875.216.376.324.82.324 1.332v1.165H99.42v.635c0 .52.132.92.396 1.2.264.272.64.409 1.128.409.416 0 .752-.073 1.008-.217a.953.953 0 00.468-.671h1.08c-.072.552-.344.992-.816 1.32-.464.32-1.044.48-1.74.48zm1.524-3.875v-.444c0-.52-.132-.92-.396-1.2-.256-.28-.632-.42-1.128-.42-.488 0-.864.14-1.128.42-.264.28-.396.68-.396 1.2v.347h3.132l-.084.097zm5.131 3.756v-5.652h-2.4v-.949h5.88v.949h-2.4v5.651h-1.08zm5.299 0v-6.6h1.08v2.724h1.128l1.92-2.725h1.236l-2.22 3.145 2.256 3.456h-1.26l-1.92-2.94h-1.14v2.94h-1.08zm9.632.096c-.528 0-.984-.1-1.368-.3a2.178 2.178 0 01-.9-.865c-.208-.384-.312-.836-.312-1.356v-1.751c0-.529.104-.98.312-1.357.216-.376.516-.664.9-.864.384-.2.84-.3 1.368-.3.528 0 .984.1 1.368.3.384.2.68.489.888.864.216.376.324.824.324 1.344v1.764c0 .52-.108.972-.324 1.356a2.103 2.103 0 01-.888.864c-.384.2-.84.3-1.368.3zm0-.96c.472 0 .84-.133 1.104-.397.264-.263.396-.651.396-1.163v-1.752c0-.513-.132-.9-.396-1.165-.264-.263-.632-.395-1.104-.395-.464 0-.832.132-1.104.395-.264.264-.396.653-.396 1.165v1.751c0 .513.132.9.396 1.165.272.263.64.395 1.104.395zm5.155.864v-6.6h4.74v.984h-3.66v5.616h-1.08zm9.235.096c-.528 0-.984-.1-1.368-.3a2.178 2.178 0 01-.9-.865c-.208-.384-.312-.836-.312-1.356v-1.751c0-.529.104-.98.312-1.357.216-.376.516-.664.9-.864.384-.2.84-.3 1.368-.3.528 0 .984.1 1.368.3.384.2.68.489.888.864.216.376.324.824.324 1.344v1.764c0 .52-.108.972-.324 1.356a2.103 2.103 0 01-.888.864c-.384.2-.84.3-1.368.3zm0-.96c.472 0 .84-.133 1.104-.397.264-.263.396-.651.396-1.163v-1.752c0-.513-.132-.9-.396-1.165-.264-.263-.632-.395-1.104-.395-.464 0-.832.132-1.104.395-.264.264-.396.653-.396 1.165v1.751c0 .513.132.9.396 1.165.272.263.64.395 1.104.395zM12.128 100.959v-6.6h4.944v6.6h-1.08v-5.615h-2.784v5.615h-1.08zm7.171 2.16v-8.76h1.08v1.26h.216l-.216.252c0-.503.164-.9.492-1.188.336-.296.776-.444 1.32-.444.664 0 1.192.22 1.584.66.4.433.6 1.028.6 1.788v1.933c0 .504-.092.94-.276 1.307a1.964 1.964 0 01-.756.852c-.32.2-.704.3-1.152.3-.536 0-.972-.148-1.308-.444-.336-.296-.504-.692-.504-1.188l.216.252h-.24l.024 1.5v1.92H19.3zm2.532-2.976c.456 0 .812-.136 1.068-.407.264-.273.396-.665.396-1.177v-1.8c0-.511-.132-.903-.396-1.175-.256-.273-.612-.409-1.068-.409-.44 0-.792.14-1.056.42-.264.28-.396.668-.396 1.165v1.8c0 .495.132.883.396 1.163s.616.42 1.056.42zm7.16.936c-.52 0-.976-.104-1.368-.312a2.26 2.26 0 01-.9-.876c-.208-.384-.312-.828-.312-1.332v-1.8c0-.511.104-.956.312-1.332.216-.376.516-.668.9-.876.392-.207.848-.311 1.368-.311.52 0 .972.104 1.356.312.392.207.692.5.9.875.216.376.324.82.324 1.332v1.165h-4.104v.635c0 .52.132.92.396 1.2.264.272.64.408 1.128.408.416 0 .752-.072 1.008-.216a.953.953 0 00.468-.671h1.08c-.072.552-.344.991-.816 1.319-.464.32-1.044.48-1.74.48zm1.524-3.875v-.444c0-.52-.132-.92-.396-1.2-.256-.28-.632-.42-1.128-.42-.488 0-.864.14-1.128.42-.264.28-.396.68-.396 1.2v.347h3.132l-.084.097zm2.43 5.435v-2.604h.54c.137-.135.277-.403.42-.803.153-.4.233-.909.24-1.525l.073-3.347h4.308v5.675h.84v2.604h-.96v-1.68h-4.5v1.68h-.96zm1.68-2.604h2.82V95.32h-2.207l-.048 2.412c-.008.632-.076 1.144-.204 1.535-.128.392-.248.648-.36.768zm8.78 1.044c-.528 0-.992-.1-1.392-.3a2.163 2.163 0 01-.912-.864c-.216-.384-.324-.836-.324-1.356v-1.8c0-.528.108-.98.324-1.356.216-.376.52-.663.912-.864.4-.2.864-.3 1.392-.3.76 0 1.372.204 1.836.612.464.409.708.965.732 1.668h-1.08c-.024-.424-.168-.748-.432-.972-.256-.231-.608-.347-1.056-.347-.472 0-.848.135-1.128.407-.28.264-.42.644-.42 1.14v1.813c0 .495.14.88.42 1.151.28.273.656.408 1.128.408.448 0 .8-.116 1.056-.347.264-.233.408-.556.432-.973h1.08c-.024.704-.268 1.26-.732 1.668-.464.408-1.076.612-1.836.612zm6.632-.12v-5.651h-2.4v-.949h5.88v.949h-2.4v5.651h-1.08zm7.159.12c-.696 0-1.244-.176-1.644-.528-.4-.36-.6-.844-.6-1.451 0-.616.2-1.1.6-1.453.4-.352.94-.528 1.62-.528h2.04v-.66c0-.407-.124-.72-.372-.936-.24-.224-.584-.335-1.032-.335-.392 0-.72.084-.984.251-.264.16-.416.38-.456.66h-1.08c.072-.568.34-1.02.804-1.356.464-.335 1.044-.503 1.74-.503.76 0 1.36.196 1.8.588.44.391.66.923.66 1.596v4.535h-1.056v-1.26h-.18l.18-.18c0 .48-.188.86-.564 1.14-.368.28-.86.42-1.476.42zm.264-.852c.512 0 .932-.128 1.26-.383.328-.256.492-.584.492-.984v-.936h-2.016c-.36 0-.644.1-.852.3-.208.2-.312.471-.312.816 0 .367.124.66.372.875.256.208.608.312 1.056.312zm5.035.732v-6.6h2.856c.688 0 1.22.157 1.596.469.376.303.564.731.564 1.284 0 .456-.156.824-.468 1.104-.312.272-.724.408-1.236.408v-.096c.56 0 1.008.14 1.344.42.344.28.516.656.516 1.128 0 .592-.2 1.055-.6 1.391-.4.328-.96.492-1.68.492h-2.892zm1.056-.948h1.836c.384 0 .68-.084.888-.251.216-.169.324-.404.324-.709 0-.311-.108-.552-.324-.72-.208-.168-.504-.252-.888-.252h-1.836v1.932zm0-2.867h1.8c.336 0 .6-.08.792-.24.2-.16.3-.385.3-.672 0-.288-.096-.513-.288-.672-.192-.169-.46-.252-.804-.252h-1.8v1.835zm5.311 3.899v-1.008h.217c.368 0 .624-.144.768-.431.152-.288.232-.805.24-1.549l.072-3.696h4.475v6.6h-1.08v-5.615h-2.328l-.06 2.76c-.016.695-.096 1.26-.24 1.692-.136.431-.352.747-.648.947-.288.2-.668.3-1.14.3h-.276zm10.496.036c-.52 0-.976-.104-1.368-.312a2.26 2.26 0 01-.9-.876c-.208-.384-.312-.828-.312-1.332v-1.8c0-.511.104-.956.312-1.332.216-.376.516-.668.9-.876.392-.207.848-.311 1.368-.311.52 0 .972.104 1.356.312.392.207.692.5.9.875.216.376.324.82.324 1.332v1.165h-4.104v.635c0 .52.132.92.396 1.2.264.272.64.408 1.128.408.416 0 .752-.072 1.008-.216a.953.953 0 00.468-.671h1.08c-.072.552-.344.991-.816 1.319-.464.32-1.044.48-1.74.48zm1.524-3.875v-.444c0-.52-.132-.92-.396-1.2-.256-.28-.632-.42-1.128-.42-.488 0-.864.14-1.128.42-.264.28-.396.68-.396 1.2v.347h3.132l-.084.097zm3.2 3.755v-6.6h1.08v2.749h2.783v-2.749h1.08v6.6h-1.08v-2.868h-2.784v2.868h-1.08zm7.194 0v-6.6h1.032v3.6c0 .233-.008.477-.024.733-.008.256-.024.5-.048.732a7.615 7.615 0 01-.06.575l2.664-5.64h1.38v6.6h-1.032v-3.6c0-.231.004-.475.012-.731.016-.257.036-.5.06-.733l.06-.587-2.664 5.651h-1.38zm6.788 0l1.692-2.544c-.504-.12-.896-.352-1.176-.696-.272-.343-.408-.771-.408-1.283 0-.649.212-1.157.636-1.525.432-.368 1.02-.552 1.764-.552h2.844v6.6h-1.08v-2.46h-1.452l-1.56 2.46h-1.26zm2.508-3.42h1.764v-2.22h-1.764c-.4 0-.716.1-.948.3-.232.192-.348.465-.348.817 0 .343.116.615.348.815.232.192.548.288.948.288zm14.762 3.516c-.528 0-.984-.1-1.368-.3a2.18 2.18 0 01-.9-.864c-.208-.384-.312-.836-.312-1.356v-1.751c0-.529.104-.98.312-1.357.216-.376.516-.664.9-.864.384-.2.84-.3 1.368-.3.528 0 .984.1 1.368.3.384.2.68.489.888.864.216.376.324.824.324 1.344v1.764c0 .52-.108.972-.324 1.356a2.104 2.104 0 01-.888.864c-.384.2-.84.3-1.368.3zm0-.96c.472 0 .84-.132 1.104-.395.264-.264.396-.653.396-1.165v-1.751c0-.513-.132-.9-.396-1.165-.264-.263-.632-.395-1.104-.395-.464 0-.832.132-1.104.395-.264.264-.396.653-.396 1.165v1.751c0 .513.132.9.396 1.165.272.263.64.395 1.104.395zM12.128 116.959v-6.6h4.944v6.6h-1.08v-5.616h-2.784v5.616h-1.08zm9.667.096c-.528 0-.984-.1-1.368-.3a2.178 2.178 0 01-.9-.864c-.208-.384-.312-.836-.312-1.356v-1.752c0-.528.104-.98.312-1.356.216-.376.516-.664.9-.864.384-.2.84-.3 1.368-.3.528 0 .984.1 1.368.3.384.2.68.488.888.864.216.376.324.824.324 1.344v1.764c0 .52-.108.972-.324 1.356a2.103 2.103 0 01-.888.864c-.384.2-.84.3-1.368.3zm0-.96c.472 0 .84-.132 1.104-.396.264-.264.396-.652.396-1.164v-1.752c0-.512-.132-.9-.396-1.164-.264-.264-.632-.396-1.104-.396-.464 0-.832.132-1.104.396-.264.264-.396.652-.396 1.164v1.752c0 .512.132.9.396 1.164.272.264.64.396 1.104.396zm6.656.864v-5.652h-2.4v-.948h5.88v.948h-2.4v5.652h-1.08zm5.239 2.16v-8.76h1.08v1.26h.216l-.216.252c0-.504.164-.9.492-1.188.336-.296.776-.444 1.32-.444.664 0 1.192.22 1.584.66.4.432.6 1.028.6 1.788v1.932c0 .504-.092.94-.276 1.308a1.962 1.962 0 01-.756.852c-.32.2-.704.3-1.152.3-.536 0-.972-.148-1.308-.444-.336-.296-.504-.692-.504-1.188l.216.252h-.24l.024 1.5v1.92h-1.08zm2.532-2.976c.456 0 .812-.136 1.068-.408.264-.272.396-.664.396-1.176v-1.8c0-.512-.132-.904-.396-1.176-.256-.272-.612-.408-1.068-.408-.44 0-.792.14-1.056.42-.264.28-.396.668-.396 1.164v1.8c0 .496.132.884.396 1.164.264.28.616.42 1.056.42zm7.16.936c-.52 0-.977-.104-1.369-.312a2.258 2.258 0 01-.9-.876c-.208-.384-.312-.828-.312-1.332v-1.8c0-.512.104-.956.312-1.332.216-.376.516-.668.9-.876.392-.208.848-.312 1.368-.312.52 0 .972.104 1.356.312.392.208.692.5.9.876.216.376.324.82.324 1.332v1.164h-4.104v.636c0 .52.132.92.396 1.2.264.272.64.408 1.128.408.416 0 .752-.072 1.008-.216a.953.953 0 00.468-.672h1.08c-.072.552-.344.992-.816 1.32-.464.32-1.044.48-1.74.48zm1.523-3.876v-.444c0-.52-.132-.92-.396-1.2-.256-.28-.632-.42-1.128-.42-.488 0-.864.14-1.128.42-.264.28-.396.68-.396 1.2v.348h3.132l-.084.096zm5.672 3.876c-.776 0-1.392-.228-1.848-.684-.448-.464-.672-1.096-.672-1.896v-3c0-1.056.264-1.868.792-2.436.528-.576 1.284-.864 2.268-.864h1.68v1.08h-1.68c-.648 0-1.14.192-1.476.576-.336.376-.504.924-.504 1.644v.78h.168l-.168.24c.008-.472.168-.84.48-1.104.312-.264.736-.396 1.272-.396.696 0 1.236.224 1.62.672.392.448.588 1.064.588 1.848v.96c0 .536-.1.996-.3 1.38-.2.384-.488.68-.864.888-.376.208-.828.312-1.356.312zm0-.96c.464 0 .82-.14 1.068-.42.248-.28.372-.68.372-1.2v-.96c0-.52-.124-.92-.372-1.2-.248-.28-.604-.42-1.068-.42-.464 0-.82.14-1.068.42-.248.272-.372.672-.372 1.2v.96c0 .52.124.92.372 1.2.248.28.604.42 1.068.42zm4.723.84v-6.6h1.08v2.748h2.784v-2.748h1.08v6.6h-1.08v-2.868H56.38v2.868H55.3zm9.667.096c-.528 0-.984-.1-1.368-.3a2.178 2.178 0 01-.9-.864c-.208-.384-.312-.836-.312-1.356v-1.752c0-.528.104-.98.312-1.356.216-.376.516-.664.9-.864.384-.2.84-.3 1.368-.3.528 0 .984.1 1.368.3.384.2.68.488.888.864.216.376.324.824.324 1.344v1.764c0 .52-.108.972-.324 1.356a2.103 2.103 0 01-.888.864c-.384.2-.84.3-1.368.3zm0-.96c.472 0 .84-.132 1.104-.396.264-.264.396-.652.396-1.164v-1.752c0-.512-.132-.9-.396-1.164-.264-.264-.632-.396-1.104-.396-.464 0-.832.132-1.104.396-.264.264-.396.652-.396 1.164v1.752c0 .512.132.9.396 1.164.272.264.64.396 1.104.396zm7.22.984c-.528 0-.992-.1-1.392-.3a2.161 2.161 0 01-.913-.864c-.216-.384-.324-.836-.324-1.356v-1.8c0-.528.108-.98.324-1.356.216-.376.52-.664.912-.864.4-.2.865-.3 1.392-.3.76 0 1.372.204 1.836.612.465.408.709.964.732 1.668h-1.08c-.024-.424-.168-.748-.431-.972-.256-.232-.608-.348-1.056-.348-.472 0-.849.136-1.129.408-.28.264-.42.644-.42 1.14v1.812c0 .496.14.88.42 1.152.28.272.656.408 1.128.408.448 0 .8-.116 1.056-.348.264-.232.408-.556.432-.972h1.08c-.023.704-.267 1.26-.732 1.668-.464.408-1.076.612-1.836.612zm6.63-.12v-5.652h-2.4v-.948h5.88v.948h-2.4v5.652h-1.08zm4.856 0l1.692-2.544c-.504-.12-.896-.352-1.176-.696-.272-.344-.408-.772-.408-1.284 0-.648.212-1.156.636-1.524.432-.368 1.02-.552 1.764-.552h2.844v6.6h-1.08v-2.46h-1.452l-1.56 2.46h-1.26zm2.508-3.42h1.764v-2.22h-1.764c-.4 0-.716.1-.948.3-.232.192-.348.464-.348.816 0 .344.116.616.348.816.232.192.548.288.948.288zm4.567 3.42l2.34-3.396-2.196-3.204h1.272l1.308 2.04c.056.088.108.184.156.288.056.104.1.188.132.252.024-.064.06-.148.108-.252.056-.104.112-.2.168-.288l1.32-2.04h1.26l-2.196 3.216 2.328 3.384h-1.272l-1.416-2.16a3.356 3.356 0 01-.168-.3 2.599 2.599 0 00-.132-.288c-.032.072-.08.168-.144.288a2.125 2.125 0 01-.18.3l-1.428 2.16h-1.26zm14.919 0v-6.6h1.032v3.6c0 .232-.008.476-.024.732-.008.256-.024.5-.048.732a7.615 7.615 0 01-.06.576l2.664-5.64h1.38v6.6h-1.032v-3.6c0-.232.004-.476.012-.732.016-.256.036-.5.06-.732l.06-.588-2.664 5.652h-1.38zm-94.451 16l1.44-3.384-1.344-3.216h1.044l1.152 2.88h.636v-2.88h.912v2.88h.612l1.188-2.88h1.032l-1.344 3.18 1.44 3.42h-1.08l-1.2-3h-.648v3h-.912v-3h-.648l-1.212 3h-1.068zm10.58.12c-.52 0-.977-.104-1.369-.312a2.258 2.258 0 01-.9-.876c-.208-.384-.312-.828-.312-1.332v-1.8c0-.512.104-.956.312-1.332.216-.376.516-.668.9-.876.392-.208.848-.312 1.368-.312.52 0 .972.104 1.356.312.392.208.692.5.9.876.216.376.324.82.324 1.332v1.164h-4.104v.636c0 .52.132.92.396 1.2.264.272.64.408 1.128.408.416 0 .752-.072 1.008-.216a.953.953 0 00.468-.672h1.08c-.072.552-.344.992-.816 1.32-.464.32-1.044.48-1.74.48zm1.523-3.876v-.444c0-.52-.132-.92-.396-1.2-.256-.28-.632-.42-1.128-.42-.488 0-.864.14-1.128.42-.264.28-.396.68-.396 1.2v.348h3.132l-.084.096zm2.372 3.84v-1.008h.216c.368 0 .624-.144.768-.432.152-.288.232-.804.24-1.548l.072-3.696h4.476v6.6h-1.08v-5.616h-2.328l-.06 2.76c-.016.696-.096 1.26-.24 1.692-.136.432-.352.748-.648.948-.288.2-.668.3-1.14.3h-.276zm9.919.036c-.696 0-1.244-.176-1.644-.528-.4-.36-.6-.844-.6-1.452 0-.616.2-1.1.6-1.452.4-.352.94-.528 1.62-.528h2.04v-.66c0-.408-.124-.72-.372-.936-.24-.224-.584-.336-1.032-.336-.392 0-.72.084-.984.252-.264.16-.416.38-.456.66h-1.08c.072-.568.34-1.02.804-1.356.464-.336 1.044-.504 1.74-.504.76 0 1.36.196 1.8.588.44.392.66.924.66 1.596v4.536H37.65v-1.26h-.18l.18-.18c0 .48-.188.86-.564 1.14-.368.28-.86.42-1.476.42zm.264-.852c.512 0 .932-.128 1.26-.384.328-.256.492-.584.492-.984v-.936H35.61c-.36 0-.644.1-.852.3-.208.2-.312.472-.312.816 0 .368.124.66.372.876.256.208.608.312 1.056.312zm5.035.732v-6.6h1.08v2.748h2.784v-2.748h1.08v6.6h-1.08v-2.868H41.99v2.868h-1.08zm7.196 0v-6.6h1.032v3.6c0 .232-.008.476-.024.732-.008.256-.024.5-.048.732a7.615 7.615 0 01-.06.576l2.664-5.64h1.38v6.6h-1.032v-3.6c0-.232.004-.476.012-.732.016-.256.036-.5.06-.732l.06-.588-2.664 5.652h-1.38zm6.787 0l1.692-2.544c-.504-.12-.896-.352-1.176-.696-.272-.344-.408-.772-.408-1.284 0-.648.212-1.156.636-1.524.432-.368 1.02-.552 1.764-.552h2.844v6.6h-1.08v-2.46h-1.452l-1.56 2.46h-1.26zm2.508-3.42h1.764v-2.22H57.4c-.4 0-.716.1-.948.3-.232.192-.348.464-.348.816 0 .344.116.616.348.816.232.192.548.288.948.288zm4.567 3.42l2.34-3.396-2.196-3.204h1.272l1.308 2.04c.056.088.108.184.156.288.056.104.1.188.132.252.024-.064.06-.148.108-.252.056-.104.112-.2.168-.288l1.32-2.04h1.26l-2.196 3.216 2.328 3.384h-1.272l-1.416-2.16a3.356 3.356 0 01-.168-.3 2.599 2.599 0 00-.132-.288c-.032.072-.08.168-.144.288a2.125 2.125 0 01-.18.3l-1.428 2.16h-1.26zm14.955 0v-6.6h1.08v2.724h1.128l1.92-2.724h1.236l-2.22 3.144 2.256 3.456h-1.26l-1.92-2.94h-1.14v2.94h-1.08zm6.331.084v-1.008h.216c.368 0 .624-.144.768-.432.152-.288.232-.804.24-1.548l.072-3.696h4.476v6.6h-1.08v-5.616h-2.328l-.06 2.76c-.016.696-.096 1.26-.24 1.692-.136.432-.352.748-.648.948-.288.2-.668.3-1.14.3h-.276zm8.023-.084v-6.6h1.032v3.6c0 .232-.008.476-.024.732-.008.256-.024.5-.048.732a7.615 7.615 0 01-.06.576l2.664-5.64h1.38v6.6h-1.032v-3.6c0-.232.004-.476.012-.732.016-.256.036-.5.06-.732l.06-.588-2.664 5.652h-1.38zm9.668.12c-.52 0-.976-.104-1.368-.312a2.258 2.258 0 01-.9-.876c-.208-.384-.312-.828-.312-1.332v-1.8c0-.512.104-.956.312-1.332.216-.376.516-.668.9-.876.392-.208.848-.312 1.368-.312.52 0 .972.104 1.356.312.392.208.692.5.9.876.216.376.324.82.324 1.332v1.164H99.42v.636c0 .52.132.92.396 1.2.264.272.64.408 1.128.408.416 0 .752-.072 1.008-.216a.953.953 0 00.468-.672h1.08c-.072.552-.344.992-.816 1.32-.464.32-1.044.48-1.74.48zm1.524-3.876v-.444c0-.52-.132-.92-.396-1.2-.256-.28-.632-.42-1.128-.42-.488 0-.864.14-1.128.42-.264.28-.396.68-.396 1.2v.348h3.132l-.084.096zm3.199 3.756v-6.6h1.08v2.748h2.784v-2.748h1.08v6.6h-1.08v-2.868h-2.784v2.868h-1.08zm9.127 0v-5.652h-2.4v-.948h5.88v.948h-2.4v5.652h-1.08zm7.736.096c-.528 0-.984-.1-1.368-.3a2.178 2.178 0 01-.9-.864c-.208-.384-.312-.836-.312-1.356v-1.752c0-.528.104-.98.312-1.356.216-.376.516-.664.9-.864.384-.2.84-.3 1.368-.3.528 0 .984.1 1.368.3.384.2.68.488.888.864.216.376.324.824.324 1.344v1.764c0 .52-.108.972-.324 1.356a2.103 2.103 0 01-.888.864c-.384.2-.84.3-1.368.3zm0-.96c.472 0 .84-.132 1.104-.396.264-.264.396-.652.396-1.164v-1.752c0-.512-.132-.9-.396-1.164-.264-.264-.632-.396-1.104-.396-.464 0-.832.132-1.104.396-.264.264-.396.652-.396 1.164v1.752c0 .512.132.9.396 1.164.272.264.64.396 1.104.396zm4.723.864v-6.6h2.856c.688 0 1.22.156 1.596.468.376.304.564.732.564 1.284 0 .456-.156.824-.468 1.104-.312.272-.724.408-1.236.408v-.096c.56 0 1.008.14 1.344.42.344.28.516.656.516 1.128 0 .592-.2 1.056-.6 1.392-.4.328-.96.492-1.68.492h-2.892zm1.056-.948h1.836c.384 0 .68-.084.888-.252.216-.168.324-.404.324-.708 0-.312-.108-.552-.324-.72-.208-.168-.504-.252-.888-.252h-1.836v1.932zm0-2.868h1.8c.336 0 .6-.08.792-.24.2-.16.3-.384.3-.672 0-.288-.096-.512-.288-.672-.192-.168-.46-.252-.804-.252h-1.8v1.836zm8.611 3.936c-.304 0-.548-.088-.732-.264-.176-.176-.264-.412-.264-.708 0-.312.088-.56.264-.744.184-.184.428-.276.732-.276s.544.092.72.276c.184.184.276.432.276.744 0 .296-.092.532-.276.708-.176.176-.416.264-.72.264z" fill="#000"/><defs><linearGradient id="paint0_linear_2003_38" x1="0" y1="72.893" x2="223.615" y2="72.893" gradientUnits="userSpaceOnUse"><stop stop-color="#F1FFF7"/><stop offset="1" stop-color="#C1A678"/></linearGradient><linearGradient id="paint1_linear_2003_38" x1="11.769" y1="8.747" x2="159.382" y2="151.645" gradientUnits="userSpaceOnUse"><stop stop-color="#CCEC60"/><stop offset="1" stop-color="#fff" stop-opacity=".7"/></linearGradient><linearGradient id="paint2_linear_2003_38" x1="0" y1="66.994" x2="223.615" y2="66.994" gradientUnits="userSpaceOnUse"><stop stop-color="#F1FFF7"/><stop offset="1" stop-color="#546A65"/></linearGradient><filter id="filter0_f_2003_38" x="-18.273" y="116.178" width="94.045" height="79.728" filterUnits="userSpaceOnUse" color-interpolation-filters="sRGB"><feFlood flood-opacity="0" result="BackgroundImageFix"/><feBlend in="SourceGraphic" in2="BackgroundImageFix" result="shape"/><feGaussianBlur stdDeviation="2" result="effect1_foregroundBlur_2003_38"/></filter></defs></svg>