<svg width="153" height="173" fill="none" xmlns="http://www.w3.org/2000/svg"><rect x=".421" y=".421" width="152.158" height="172.158" rx="19.579" fill="url(#paint0_linear_2003_37)" fill-opacity=".53" stroke="url(#paint1_linear_2003_37)" stroke-width=".842"/><mask id="a" style="mask-type:alpha" maskUnits="userSpaceOnUse" x="0" y="0" width="153" height="172"><rect x=".421" y=".421" width="152.158" height="171.158" rx="19.579" fill="url(#paint2_linear_2003_37)" fill-opacity=".53" stroke="url(#paint3_linear_2003_37)" stroke-width=".842"/></mask><g filter="url(#filter0_f_2003_37)" mask="url(#a)"><path d="M10 199.914c-5.136 0-9.511-1.398-13.125-4.193-3.614-2.818-6.375-6.898-8.284-12.239-1.91-5.363-2.864-11.841-2.864-19.432 0-7.545.955-13.988 2.864-19.329 1.932-5.364 4.704-9.455 8.318-12.273 3.636-2.841 8-4.261 13.091-4.261 5.09 0 9.443 1.42 13.057 4.261 3.636 2.818 6.409 6.909 8.318 12.273 1.932 5.341 2.898 11.784 2.898 19.329 0 7.591-.955 14.069-2.864 19.432-1.909 5.341-4.67 9.421-8.284 12.239-3.614 2.795-7.989 4.193-13.125 4.193zm0-7.5c5.09 0 9.046-2.455 11.864-7.364 2.818-4.909 4.227-11.909 4.227-21 0-6.045-.648-11.193-1.943-15.443-1.273-4.25-3.114-7.488-5.523-9.716-2.386-2.227-5.261-3.341-8.625-3.341-5.045 0-8.989 2.489-11.83 7.466-2.84 4.955-4.26 11.966-4.26 21.034 0 6.046.635 11.182 1.908 15.409 1.273 4.228 3.102 7.444 5.489 9.648 2.409 2.205 5.307 3.307 8.693 3.307zm35.59-7.773v-6.954l30.683-48.546h5.045v10.773H77.91l-23.182 36.682v.545h41.319v7.5H45.59zm32.864 14.318v-69.818H86.5v69.818h-8.046z" fill="#CCEC60"/></g><path d="M12.792 31v-8.76h1.8v3.36h2.016v-3.36h1.8V31h-1.8v-3.72h-2.016V31h-1.8zm10.015.12c-.584 0-1.096-.108-1.536-.324a2.505 2.505 0 01-1.008-.924c-.232-.4-.348-.864-.348-1.392v-1.56c0-.528.116-.988.348-1.38.24-.4.576-.708 1.008-.924.44-.224.952-.336 1.536-.336.584 0 1.088.112 1.512.336.432.216.764.524.996.924.24.392.36.852.36 1.38v1.2h-4.044v.36c0 .416.1.732.3.948.2.208.5.312.9.312.28 0 .504-.048.672-.144a.698.698 0 00.348-.396h1.764c-.144.576-.472 1.04-.984 1.392-.504.352-1.112.528-1.824.528zm1.152-3.924v-.3c0-.408-.096-.72-.288-.936-.184-.216-.472-.324-.864-.324s-.688.112-.888.336c-.192.224-.288.54-.288.948v.18l2.448-.024-.12.12zm6.032 3.924c-.584 0-1.092-.108-1.524-.324a2.505 2.505 0 01-1.008-.924c-.232-.4-.348-.864-.348-1.392v-1.56c0-.528.116-.988.348-1.38.24-.4.576-.708 1.008-.924.432-.224.94-.336 1.524-.336.592 0 1.1.112 1.524.336.432.216.764.524.996.924.24.392.36.852.36 1.38v1.56c0 .528-.12.992-.36 1.392-.232.392-.564.7-.996.924-.424.216-.932.324-1.524.324zm0-1.56c.352 0 .62-.092.804-.276.184-.192.276-.46.276-.804v-1.56c0-.352-.092-.62-.276-.804-.184-.184-.452-.276-.804-.276-.344 0-.612.092-.804.276-.184.184-.276.452-.276.804v1.56c0 .344.092.612.276.804.192.184.46.276.804.276zm7.195 1.56c-.88-.016-1.58-.256-2.1-.72-.52-.472-.78-1.112-.78-1.92v-2.94c0-1.056.296-1.868.888-2.436.592-.576 1.436-.864 2.532-.864h1.98v1.74h-1.98c-.528 0-.932.132-1.212.396-.272.264-.408.652-.408 1.164v.84h.168l-.144.168c-.008-.448.136-.804.432-1.068.304-.272.736-.408 1.296-.408.696 0 1.236.228 1.62.684.392.456.588 1.088.588 1.896v.828c0 .536-.12 1.008-.36 1.416-.232.4-.564.708-.996.924-.424.208-.932.308-1.524.3zm0-1.56c.352 0 .62-.092.804-.276.184-.192.276-.46.276-.804v-.828c0-.352-.092-.62-.276-.804-.184-.184-.452-.276-.804-.276-.344 0-.612.092-.804.276-.184.184-.276.452-.276.804v.828c0 .344.092.612.276.804.192.184.46.276.804.276zM41.093 31l2.28-3.42-2.124-3.18h2.004l.816 1.32c.064.104.124.22.18.348.056.128.1.232.132.312.032-.08.076-.184.132-.312.064-.128.124-.244.18-.348l.816-1.32h2.004l-2.112 3.18L47.67 31h-2.004l-.96-1.56a13.623 13.623 0 01-.192-.348c-.056-.128-.1-.232-.132-.312a4.748 4.748 0 01-.312.66L43.097 31h-2.004zm10.484.12c-.584 0-1.092-.108-1.524-.324a2.505 2.505 0 01-1.008-.924c-.232-.4-.348-.864-.348-1.392v-1.56c0-.528.116-.988.348-1.38.24-.4.576-.708 1.008-.924.432-.224.94-.336 1.524-.336.592 0 1.1.112 1.524.336.432.216.764.524.996.924.24.392.36.852.36 1.38v1.56c0 .528-.12.992-.36 1.392-.232.392-.564.7-.996.924-.424.216-.932.324-1.524.324zm0-1.56c.352 0 .62-.092.804-.276.184-.192.276-.46.276-.804v-1.56c0-.352-.092-.62-.276-.804-.184-.184-.452-.276-.804-.276-.344 0-.612.092-.804.276-.184.184-.276.452-.276.804v1.56c0 .344.092.612.276.804.192.184.46.276.804.276zm3.859 3.12v-3.204h.372c.136-.136.276-.372.42-.708.152-.344.232-.76.24-1.248l.06-3.12h4.86v5.076h.72v3.204h-1.68V31h-3.312v1.68h-1.68zm2.16-3.204h2.112v-3.528h-1.524l-.036 1.56a3.767 3.767 0 01-.204 1.224c-.12.344-.236.592-.348.744zM63.159 31v-6.6h1.584v3c0 .2-.012.452-.036.756-.024.296-.056.596-.096.9-.032.304-.068.572-.108.804l2.088-5.46h2.184V31h-1.584v-3c0-.208.012-.444.036-.708.024-.272.052-.544.084-.816.032-.272.064-.504.096-.696L65.343 31H63.16zm6.908 0v-6.6h2.028l.78 2.46c.088.28.156.536.204.768.056.224.088.392.096.504.016-.112.044-.28.084-.504a7.43 7.43 0 01.204-.768l.768-2.46h2.028V31h-1.644v-1.2c0-.264.004-.56.011-.888l.048-1.032c.024-.36.044-.704.06-1.032a47.4 47.4 0 01.073-.888l-.877 3.18h-1.524l-.924-3.18c.032.328.064.72.097 1.176.04.456.072.92.096 1.392.023.464.035.888.035 1.272V31h-1.643zm10.29.12c-.583 0-1.091-.108-1.523-.324a2.505 2.505 0 01-1.008-.924c-.232-.4-.348-.864-.348-1.392v-1.56c0-.528.116-.988.348-1.38.24-.4.576-.708 1.008-.924.432-.224.94-.336 1.524-.336.592 0 1.1.112 1.524.336.432.216.764.524.996.924.24.392.36.852.36 1.38v1.56c0 .528-.12.992-.36 1.392-.232.392-.564.7-.996.924-.424.216-.932.324-1.524.324zm0-1.56c.353 0 .62-.092.805-.276.184-.192.276-.46.276-.804v-1.56c0-.352-.092-.62-.276-.804-.184-.184-.452-.276-.804-.276-.344 0-.612.092-.804.276-.184.184-.276.452-.276.804v1.56c0 .344.092.612.276.804.192.184.46.276.804.276zm7.232 1.56c-.584 0-1.096-.108-1.536-.324a2.488 2.488 0 01-1.02-.924c-.24-.4-.36-.864-.36-1.392v-1.56c0-.536.12-1 .36-1.392.24-.392.58-.696 1.02-.912.44-.224.952-.336 1.536-.336.872 0 1.568.22 2.088.66.52.44.796 1.04.828 1.8h-1.8a.904.904 0 00-.336-.66c-.192-.16-.452-.24-.78-.24-.36 0-.636.092-.828.276-.192.184-.288.452-.288.804v1.56c0 .344.096.612.288.804.192.184.468.276.828.276.328 0 .588-.076.78-.228.2-.16.312-.384.336-.672h1.8c-.032.76-.308 1.36-.828 1.8-.52.44-1.216.66-2.088.66zm6.26-.12v-4.92h-2.16V24.4h6.12v1.68h-2.16V31h-1.8zm5.335 0v-6.6h1.8v1.98h1.548c.832 0 1.48.208 1.944.624.472.408.708.976.708 1.704 0 .704-.24 1.264-.72 1.68-.472.408-1.112.612-1.92.612h-3.36zm1.8-1.56h1.44c.304 0 .536-.064.696-.192a.673.673 0 00.252-.552c0-.24-.084-.424-.252-.552-.16-.136-.392-.204-.696-.204h-1.44v1.5zm12.53 1.56v-6.6h2.988c.808 0 1.448.164 1.92.492.48.32.72.756.72 1.308 0 .44-.18.796-.54 1.068-.36.264-.836.396-1.428.396v-.12c.648 0 1.164.144 1.548.432.392.288.588.668.588 1.14 0 .584-.24 1.044-.72 1.38-.472.336-1.116.504-1.932.504h-3.144zm1.764-1.272h1.296c.296 0 .532-.068.708-.204a.671.671 0 00.276-.552.694.694 0 00-.276-.576c-.176-.144-.412-.216-.708-.216h-1.296v1.548zm0-2.604h1.236c.272 0 .488-.064.648-.192a.66.66 0 00.24-.528.674.674 0 00-.24-.54c-.16-.136-.376-.204-.648-.204h-1.236v1.464zM13.884 49.16l.9-2.484-2.472-6.276h1.956l.996 2.88c.072.216.144.48.216.792.08.304.14.552.18.744.04-.192.096-.44.168-.744.08-.312.156-.576.228-.792l.96-2.88h1.872l-3.12 8.76h-1.884zm5.563-2.076v-1.62h.36c.208 0 .38-.088.516-.264.136-.176.208-.408.216-.696l.072-4.104h4.992V47h-1.8v-4.92h-1.428l-.048 2.544c-.008.488-.116.92-.324 1.296-.2.368-.48.656-.84.864-.352.2-.764.3-1.236.3h-.48zm8.828 2.076l.9-2.484-2.472-6.276h1.956l.996 2.88c.072.216.144.48.216.792.08.304.14.552.18.744.04-.192.096-.44.168-.744.08-.312.156-.576.228-.792l.96-2.88h1.872l-3.12 8.76h-1.884zm9.87-2.16v-2.1a5.583 5.583 0 01-.455.084c-.2.024-.428.036-.684.036-.872 0-1.56-.216-2.064-.648-.504-.44-.756-1.044-.756-1.812V40.4h1.8v2.04c0 .296.108.532.324.708.216.168.508.252.876.252.224 0 .42-.012.588-.036.176-.032.3-.06.372-.084V40.4h1.8V47h-1.8zm3.116 0v-6.6h1.476v5.4h1.02v-5.4h1.248v5.4h1.02v-5.4h1.476V47h-6.24zm10.328.12c-.584 0-1.096-.108-1.536-.324a2.505 2.505 0 01-1.008-.924c-.232-.4-.348-.864-.348-1.392v-1.56c0-.528.116-.988.348-1.38.24-.4.576-.708 1.008-.924.44-.224.952-.336 1.536-.336.584 0 1.088.112 1.512.336.432.216.764.524.996.924.24.392.36.852.36 1.38v1.2h-4.044v.36c0 .416.1.732.3.948.2.208.5.312.9.312.28 0 .504-.048.672-.144a.698.698 0 00.348-.396h1.764c-.144.576-.472 1.04-.984 1.392-.504.352-1.112.528-1.824.528zm1.152-3.924v-.3c0-.408-.096-.72-.288-.936-.184-.216-.472-.324-.864-.324s-.688.112-.888.336c-.192.224-.288.54-.288.948v.18l2.448-.024-.12.12zM55.964 47v-6.6h1.8v2.412h2.016V40.4h1.8V47h-1.8v-2.508h-2.016V47h-1.8zm7.195 0v-6.6h1.584v3c0 .2-.012.452-.036.756-.024.296-.056.596-.096.9-.032.304-.068.572-.108.804l2.088-5.46h2.184V47h-1.584v-3c0-.208.012-.444.036-.708.024-.272.052-.544.084-.816.032-.272.064-.504.096-.696L65.343 47H63.16zm7.196 0v-6.6h1.584v3c0 .2-.012.452-.036.756a18.15 18.15 0 01-.097.9c-.031.304-.067.572-.108.804l2.089-5.46h2.183V47h-1.584v-3c0-.208.013-.444.037-.708.023-.272.052-.544.084-.816.031-.272.063-.504.096-.696L72.538 47h-2.184zM12.78 63v-6.6h2.988c.808 0 1.448.164 1.92.492.48.32.72.756.72 1.308 0 .44-.18.796-.54 1.068-.36.264-.836.396-1.428.396v-.12c.648 0 1.164.144 1.548.432.392.288.588.668.588 1.14 0 .584-.24 1.044-.72 1.38-.472.336-1.116.504-1.932.504H12.78zm1.764-1.272h1.296c.296 0 .532-.068.708-.204a.671.671 0 00.276-.552.694.694 0 00-.276-.576c-.176-.144-.412-.216-.708-.216h-1.296v1.548zm0-2.604h1.236c.272 0 .488-.064.648-.192a.66.66 0 00.24-.528.674.674 0 00-.24-.54c-.16-.136-.376-.204-.648-.204h-1.236v1.464zM19.987 63v-6.6h1.8v2.412h2.016V56.4h1.8V63h-1.8v-2.508h-2.016V63h-1.8zm8.288 2.16l.9-2.484-2.472-6.276h1.956l.996 2.88c.072.216.144.48.216.792.08.304.14.552.18.744.04-.192.096-.44.168-.744.08-.312.156-.576.228-.792l.96-2.88h1.872l-3.12 8.76h-1.884zm8.01-2.16v-4.92h-2.16V56.4h6.12v1.68h-2.16V63h-1.8zm5.288 2.16V56.4h1.74v1.26h.42l-.42.42c0-.568.156-1.008.468-1.32.312-.32.74-.48 1.284-.48.664 0 1.196.236 1.596.708.4.464.6 1.088.6 1.872v1.68c0 .52-.092.976-.276 1.368a2.093 2.093 0 01-.756.9c-.328.208-.716.312-1.164.312-.544 0-.972-.156-1.284-.468-.312-.32-.468-.764-.468-1.332l.42.42h-.42l.06 1.62v1.8h-1.8zm2.844-3.6c.336 0 .592-.092.768-.276.184-.192.276-.46.276-.804v-1.56c0-.352-.092-.62-.276-.804-.176-.184-.432-.276-.768-.276-.328 0-.584.096-.768.288-.184.184-.276.448-.276.792v1.56c0 .344.092.612.276.804.184.184.44.276.768.276zm7.172 1.56c-.584 0-1.096-.108-1.536-.324a2.505 2.505 0 01-1.008-.924c-.232-.4-.348-.864-.348-1.392v-1.56c0-.528.116-.988.348-1.38.24-.4.576-.708 1.008-.924.44-.224.952-.336 1.536-.336.584 0 1.088.112 1.512.336.432.216.764.524.996.924.24.392.36.852.36 1.38v1.2h-4.044v.36c0 .416.1.732.3.948.2.208.5.312.9.312.28 0 .504-.048.672-.144a.698.698 0 00.348-.396h1.764c-.144.576-.472 1.04-.984 1.392-.504.352-1.112.528-1.824.528zm1.152-3.924v-.3c0-.408-.096-.72-.288-.936-.184-.216-.472-.324-.864-.324s-.688.112-.888.336c-.192.224-.288.54-.288.948v.18l2.448-.024-.12.12zM55.964 63v-6.6h1.8v2.412h2.016V56.4h1.8V63h-1.8v-2.508h-2.016V63h-1.8zm7.195 0v-6.6h1.8v2.412h2.016V56.4h1.8V63h-1.8v-2.508H64.96V63h-1.8zm10.015.12c-.584 0-1.096-.108-1.536-.324a2.505 2.505 0 01-1.008-.924c-.231-.4-.347-.864-.347-1.392v-1.56c0-.528.115-.988.347-1.38.24-.4.577-.708 1.008-.924.44-.224.953-.336 1.536-.336.584 0 1.088.112 1.512.336.432.216.764.524.996.924.24.392.36.852.36 1.38v1.2H72v.36c0 .416.1.732.3.948.2.208.5.312.9.312.28 0 .504-.048.672-.144a.698.698 0 00.348-.396h1.764A2.342 2.342 0 0175 62.592c-.504.352-1.112.528-1.825.528zm1.152-3.924v-.3c0-.408-.095-.72-.287-.936-.184-.216-.472-.324-.865-.324-.392 0-.688.112-.888.336-.192.224-.287.54-.287.948v.18l2.448-.024-.12.12zM77.55 63v-6.6h1.584v3c0 .2-.012.452-.036.756-.024.296-.056.596-.096.9-.032.304-.068.572-.108.804l2.088-5.46h2.184V63h-1.584v-3c0-.208.012-.444.036-.708.024-.272.052-.544.084-.816.032-.272.064-.504.096-.696L79.734 63H77.55zm2.856-7.62c-.656 0-1.192-.164-1.608-.492a1.615 1.615 0 01-.612-1.308h1.38c0 .224.076.408.228.552.16.136.364.204.612.204.256 0 .46-.068.612-.204a.727.727 0 00.228-.552h1.38c0 .536-.204.972-.612 1.308-.408.328-.944.492-1.608.492zM12.828 79v-6.6h1.8v2.496h.888l1.38-2.496H18.9l-1.836 3.228L18.936 79h-2.04l-1.392-2.592h-.876V79h-1.8zm9.967.12c-.584 0-1.092-.108-1.524-.324a2.505 2.505 0 01-1.008-.924c-.232-.4-.348-.864-.348-1.392v-1.56c0-.528.116-.988.348-1.38.24-.4.576-.708 1.008-.924.432-.224.94-.336 1.524-.336.592 0 1.1.112 1.524.336.432.216.764.524.996.924.24.392.36.852.36 1.38v1.56c0 .528-.12.992-.36 1.392-.232.392-.564.7-.996.924-.424.216-.932.324-1.524.324zm0-1.56c.352 0 .62-.092.804-.276.184-.192.276-.46.276-.804v-1.56c0-.352-.092-.62-.276-.804-.184-.184-.452-.276-.804-.276-.344 0-.612.092-.804.276-.184.184-.276.452-.276.804v1.56c0 .344.092.612.276.804.192.184.46.276.804.276zm4.1 1.44v-6.6h2.028l.78 2.46c.088.28.156.536.204.768.056.224.088.392.096.504.016-.112.044-.28.084-.504.048-.232.116-.488.204-.768l.768-2.46h2.028V79h-1.644v-1.2c0-.264.004-.56.012-.888l.048-1.032c.024-.36.044-.704.06-1.032.024-.336.048-.632.072-.888l-.876 3.18h-1.524l-.924-3.18c.032.328.064.72.096 1.176.04.456.072.92.096 1.392.024.464.036.888.036 1.272V79h-1.644zm7.195 0v-6.6h2.028l.78 2.46c.088.28.156.536.204.768.056.224.088.392.096.504.016-.112.044-.28.084-.504.048-.232.116-.488.204-.768l.768-2.46h2.028V79h-1.644v-1.2c0-.264.004-.56.012-.888l.048-1.032c.024-.36.044-.704.06-1.032.024-.336.048-.632.072-.888l-.876 3.18H36.43l-.924-3.18c.032.328.064.72.096 1.176.04.456.072.92.096 1.392.024.464.036.888.036 1.272V79H34.09zm8.575 2.16l.9-2.484-2.472-6.276h1.956l.996 2.88c.072.216.144.48.216.792.08.304.14.552.18.744.04-.192.096-.44.168-.744.08-.312.156-.576.228-.792l.96-2.88h1.872l-3.12 8.76h-1.884zM48.77 79v-6.6h1.8v2.412h2.016V72.4h1.8V79h-1.8v-2.508H50.57V79h-1.8zm7.195 0v-6.6h1.584v3c0 .2-.012.452-.036.756-.024.296-.056.596-.096.9-.032.304-.068.572-.108.804l2.088-5.46h2.184V79h-1.584v-3c0-.208.012-.444.036-.708.024-.272.052-.544.084-.816.032-.272.064-.504.096-.696L58.148 79h-2.184zm7.231 0v-6.6h1.8v2.496h.888l1.38-2.496h2.004l-1.836 3.228L69.303 79h-2.04l-1.392-2.592h-.876V79h-1.8zm9.116.12c-.665 0-1.193-.18-1.585-.54-.383-.36-.576-.848-.576-1.464 0-.664.228-1.172.684-1.524.465-.36 1.129-.54 1.992-.54h1.369v-.492a.753.753 0 00-.276-.612c-.176-.152-.416-.228-.72-.228-.28 0-.513.064-.697.192a.787.787 0 00-.335.528h-1.74c.072-.664.36-1.188.863-1.572.512-.392 1.168-.588 1.968-.588.84 0 1.505.208 1.993.624.495.408.743.96.743 1.656V79h-1.74v-1.08h-.288l.3-.42c0 .496-.18.892-.54 1.188-.352.288-.823.432-1.415.432zm.671-1.32c.353 0 .64-.092.865-.276a.921.921 0 00.348-.744v-.708h-1.332c-.272 0-.492.08-.66.24-.169.152-.252.356-.252.612 0 .272.092.488.276.648.183.152.435.228.755.228zm9.032 2.88V79H77.55v-6.6h1.8v4.92h1.644V72.4h1.8v4.92h.9v3.36h-1.68zm2.73-1.68v-6.6h1.584v3c0 .2-.012.452-.036.756-.024.296-.056.596-.096.9-.032.304-.068.572-.108.804l2.088-5.46h2.184V79h-1.584v-3c0-.208.012-.444.036-.708.024-.272.052-.544.084-.816.032-.272.064-.504.096-.696L86.93 79h-2.184zm7.195 0v-6.6h1.584v3c0 .2-.012.452-.036.756-.024.296-.056.596-.096.9-.032.304-.068.572-.108.804l2.088-5.46h2.184V79h-1.584v-3c0-.208.012-.444.036-.708.024-.272.052-.544.084-.816.032-.272.064-.504.096-.696L94.124 79H91.94zm10.004-4.56c-.36 0-.652-.1-.876-.3-.216-.2-.324-.46-.324-.78 0-.328.108-.588.324-.78.224-.2.516-.3.876-.3s.648.1.864.3c.224.192.336.452.336.78 0 .32-.112.58-.336.78-.216.2-.504.3-.864.3zm0 4.68c-.36 0-.652-.1-.876-.3-.216-.2-.324-.46-.324-.78 0-.328.108-.588.324-.78.224-.2.516-.3.876-.3s.648.1.864.3c.224.192.336.452.336.78 0 .32-.112.58-.336.78-.216.2-.504.3-.864.3z" fill="#5A482D"/><path d="M15.06 95v-7.788h-2.4v-.984h5.88v.984h-2.4V95h-1.08zm5.24 2.16V88.4h1.08v1.26h.215l-.216.252c0-.504.164-.9.492-1.188.336-.296.776-.444 1.32-.444.664 0 1.192.22 1.584.66.4.432.6 1.028.6 1.788v1.932c0 .504-.092.94-.276 1.308a1.962 1.962 0 01-.756.852c-.32.2-.704.3-1.152.3-.536 0-.972-.148-1.308-.444-.336-.296-.504-.692-.504-1.188l.216.252h-.24l.024 1.5v1.92H20.3zm2.531-2.976c.456 0 .812-.136 1.068-.408.264-.272.396-.664.396-1.176v-1.8c0-.512-.132-.904-.396-1.176-.256-.272-.612-.408-1.068-.408-.44 0-.792.14-1.056.42-.264.28-.396.668-.396 1.164v1.8c0 .496.132.884.396 1.164.264.28.616.42 1.056.42zm7.16.936c-.52 0-.976-.104-1.368-.312a2.258 2.258 0 01-.9-.876c-.208-.384-.312-.828-.312-1.332v-1.8c0-.512.104-.956.312-1.332.216-.376.516-.668.9-.876.392-.208.848-.312 1.368-.312.52 0 .972.104 1.356.312.392.208.692.5.9.876.216.376.324.82.324 1.332v1.164h-4.104v.636c0 .52.132.92.396 1.2.264.272.64.408 1.128.408.416 0 .752-.072 1.008-.216a.953.953 0 00.468-.672h1.08c-.072.552-.344.992-.816 1.32-.464.32-1.044.48-1.74.48zm1.524-3.876V90.8c0-.52-.132-.92-.396-1.2-.256-.28-.632-.42-1.128-.42-.488 0-.864.14-1.128.42-.264.28-.396.68-.396 1.2v.348h3.132l-.084.096zm5.67 3.876c-.775 0-1.391-.228-1.847-.684-.448-.464-.672-1.096-.672-1.896v-3c0-1.056.264-1.868.792-2.436.528-.576 1.284-.864 2.268-.864h1.68v1.08h-1.68c-.648 0-1.14.192-1.476.576-.336.376-.504.924-.504 1.644v.78h.168l-.168.24c.008-.472.168-.84.48-1.104.312-.264.736-.396 1.272-.396.696 0 1.236.224 1.62.672.392.448.588 1.064.588 1.848v.96c0 .536-.1.996-.3 1.38-.2.384-.488.68-.864.888-.376.208-.828.312-1.356.312zm0-.96c.465 0 .82-.14 1.069-.42.248-.28.372-.68.372-1.2v-.96c0-.52-.124-.92-.372-1.2-.248-.28-.604-.42-1.068-.42-.464 0-.82.14-1.068.42-.248.272-.372.672-.372 1.2v.96c0 .52.124.92.372 1.2.248.28.604.42 1.068.42zm7.196.936c-.528 0-.984-.1-1.368-.3a2.178 2.178 0 01-.9-.864c-.208-.384-.312-.836-.312-1.356v-1.752c0-.528.104-.98.312-1.356.216-.376.516-.664.9-.864.384-.2.84-.3 1.368-.3.528 0 .984.1 1.368.3.384.2.68.488.888.864.216.376.324.824.324 1.344v1.764c0 .52-.108.972-.324 1.356a2.103 2.103 0 01-.888.864c-.384.2-.84.3-1.368.3zm0-.96c.472 0 .84-.132 1.104-.396.264-.264.396-.652.396-1.164v-1.752c0-.512-.132-.9-.396-1.164-.264-.264-.632-.396-1.104-.396-.464 0-.832.132-1.104.396-.264.264-.396.652-.396 1.164v1.752c0 .512.132.9.396 1.164.272.264.64.396 1.104.396zm4.724.864v-6.6h2.856c.688 0 1.22.156 1.596.468.376.304.564.732.564 1.284 0 .456-.156.824-.468 1.104-.312.272-.724.408-1.236.408v-.096c.56 0 1.008.14 1.344.42.344.28.516.656.516 1.128 0 .592-.2 1.056-.6 1.392-.4.328-.96.492-1.68.492h-2.892zm1.056-.948h1.836c.384 0 .68-.084.888-.252.216-.168.324-.404.324-.708 0-.312-.108-.552-.324-.72-.208-.168-.504-.252-.888-.252H50.16v1.932zm0-2.868h1.8c.336 0 .6-.08.792-.24.2-.16.3-.384.3-.672 0-.288-.096-.512-.288-.672-.192-.168-.46-.252-.804-.252h-1.8v1.836zm8.035 3.936c-.696 0-1.244-.176-1.644-.528-.4-.36-.6-.844-.6-1.452 0-.616.2-1.1.6-1.452.4-.352.94-.528 1.62-.528h2.04v-.66c0-.408-.124-.72-.372-.936-.24-.224-.584-.336-1.032-.336-.392 0-.72.084-.984.252-.264.16-.416.38-.456.66h-1.08c.072-.568.34-1.02.804-1.356.464-.336 1.044-.504 1.74-.504.76 0 1.36.196 1.8.588.44.392.66.924.66 1.596V95h-1.056v-1.26h-.18l.18-.18c0 .48-.188.86-.564 1.14-.368.28-.86.42-1.476.42zm.264-.852c.512 0 .932-.128 1.26-.384.328-.256.492-.584.492-.984v-.936h-2.016c-.36 0-.644.1-.852.3-.208.2-.312.472-.312.816 0 .368.124.66.372.876.256.208.608.312 1.056.312zm4.207.816v-1.008h.216c.368 0 .624-.144.768-.432.152-.288.232-.804.24-1.548l.072-3.696h4.476V95h-1.08v-5.616h-2.328l-.06 2.76c-.016.696-.096 1.26-.24 1.692-.136.432-.352.748-.648.948-.288.2-.668.3-1.14.3h-.276zm10.495.012c-.528 0-.984-.1-1.368-.3a2.178 2.178 0 01-.9-.864c-.208-.384-.312-.836-.312-1.356v-1.752c0-.528.105-.98.313-1.356.216-.376.516-.664.9-.864.383-.2.84-.3 1.367-.3.528 0 .984.1 1.368.3.385.2.68.488.888.864.216.376.325.824.325 1.344v1.764c0 .52-.108.972-.325 1.356a2.103 2.103 0 01-.888.864c-.383.2-.84.3-1.368.3zm0-.96c.472 0 .84-.132 1.104-.396.264-.264.396-.652.396-1.164v-1.752c0-.512-.132-.9-.396-1.164-.264-.264-.632-.396-1.104-.396-.464 0-.832.132-1.104.396-.264.264-.396.652-.396 1.164v1.752c0 .512.132.9.396 1.164.272.264.64.396 1.104.396zm7.22.984c-.528 0-.992-.1-1.392-.3a2.161 2.161 0 01-.912-.864c-.216-.384-.324-.836-.324-1.356v-1.8c0-.528.108-.98.324-1.356.216-.376.52-.664.912-.864.4-.2.864-.3 1.392-.3.76 0 1.372.204 1.836.612.464.408.708.964.732 1.668h-1.08c-.024-.424-.168-.748-.432-.972-.256-.232-.608-.348-1.056-.348-.472 0-.848.136-1.128.408-.28.264-.42.644-.42 1.14V92.6c0 .496.14.88.42 1.152.28.272.656.408 1.128.408.448 0 .8-.116 1.056-.348.264-.232.408-.556.432-.972h1.08c-.024.704-.268 1.26-.732 1.668-.464.408-1.076.612-1.836.612zm4.747-.12v-6.6h1.08v2.424h1.944c.744 0 1.328.188 1.752.564.432.368.648.876.648 1.524 0 .64-.216 1.148-.648 1.524-.432.376-1.016.564-1.752.564H85.13zm1.08-.984h1.944c.416 0 .732-.092.948-.276.224-.192.336-.468.336-.828 0-.36-.112-.632-.336-.816-.216-.192-.532-.288-.948-.288H86.21v2.208zM15.6 111.096c-.528 0-.984-.1-1.368-.3a2.178 2.178 0 01-.9-.864c-.208-.384-.312-.836-.312-1.356v-1.752c0-.528.104-.98.312-1.356.216-.376.516-.664.9-.864.384-.2.84-.3 1.368-.3.528 0 .984.1 1.368.3.384.2.68.488.888.864.216.376.324.824.324 1.344v1.764c0 .52-.108.972-.324 1.356a2.103 2.103 0 01-.888.864c-.384.2-.84.3-1.368.3zm0-.96c.472 0 .84-.132 1.104-.396.264-.264.396-.652.396-1.164v-1.752c0-.512-.132-.9-.396-1.164-.264-.264-.632-.396-1.104-.396-.464 0-.832.132-1.104.396-.264.264-.396.652-.396 1.164v1.752c0 .512.132.9.396 1.164.272.264.64.396 1.104.396zm7.195.984c-.776 0-1.392-.228-1.848-.684-.448-.464-.672-1.096-.672-1.896v-3c0-1.056.264-1.868.792-2.436.528-.576 1.284-.864 2.268-.864h1.68v1.08h-1.68c-.648 0-1.14.192-1.476.576-.336.376-.504.924-.504 1.644v.78h.168l-.168.24c.008-.472.168-.84.48-1.104.312-.264.736-.396 1.272-.396.696 0 1.236.224 1.62.672.392.448.588 1.064.588 1.848v.96c0 .536-.1.996-.3 1.38-.2.384-.488.68-.864.888-.376.208-.828.312-1.356.312zm0-.96c.464 0 .82-.14 1.068-.42.248-.28.372-.68.372-1.2v-.96c0-.52-.124-.92-.372-1.2-.248-.28-.604-.42-1.068-.42-.464 0-.82.14-1.068.42-.248.272-.372.672-.372 1.2v.96c0 .52.124.92.372 1.2.248.28.604.42 1.068.42zm5.276.84v-5.64h-1.68v-.96h2.76v2.424h1.44c.744 0 1.328.188 1.752.564.432.368.648.876.648 1.524 0 .64-.216 1.148-.648 1.524-.432.376-1.016.564-1.752.564h-2.52zm1.08-.984h1.44c.416 0 .732-.092.948-.276.224-.192.336-.468.336-.828 0-.36-.112-.632-.336-.816-.216-.192-.532-.288-.948-.288h-1.44v2.208zm8.035 1.104c-.52 0-.976-.104-1.368-.312a2.258 2.258 0 01-.9-.876c-.208-.384-.312-.828-.312-1.332v-1.8c0-.512.104-.956.312-1.332.216-.376.516-.668.9-.876.392-.208.848-.312 1.368-.312.52 0 .972.104 1.356.312.392.208.692.5.9.876.216.376.324.82.324 1.332v1.164h-4.104v.636c0 .52.132.92.396 1.2.264.272.64.408 1.128.408.416 0 .752-.072 1.008-.216a.953.953 0 00.468-.672h1.08c-.072.552-.344.992-.816 1.32-.464.32-1.044.48-1.74.48zm1.524-3.876v-.444c0-.52-.132-.92-.396-1.2-.256-.28-.632-.42-1.128-.42-.488 0-.864.14-1.128.42-.264.28-.396.68-.396 1.2v.348h3.132l-.084.096zm2.431 5.436v-2.604h.54c.136-.136.276-.404.42-.804.152-.4.232-.908.24-1.524l.072-3.348h4.308v5.676h.84v2.604h-.96V111h-4.5v1.68h-.96zm1.68-2.604h2.82v-4.716h-2.208l-.048 2.412c-.008.632-.076 1.144-.204 1.536-.128.392-.248.648-.36.768zm6.284.924v-6.6h1.032v3.6c0 .232-.008.476-.024.732-.008.256-.024.5-.048.732a7.615 7.615 0 01-.06.576l2.664-5.64h1.38v6.6h-1.032v-3.6c0-.232.004-.476.012-.732.016-.256.036-.5.06-.732l.06-.588L50.485 111h-1.38zm7.195 0v-6.6h1.08v2.748h2.784V104.4h1.08v6.6h-1.08v-2.868H57.38V111H56.3zm7.195 0v-6.6h1.032v3.6c0 .232-.008.476-.024.732-.008.256-.024.5-.048.732a7.615 7.615 0 01-.06.576l2.664-5.64h1.38v6.6h-1.032v-3.6c0-.232.004-.476.012-.732.016-.256.036-.5.06-.732l.06-.588L64.875 111h-1.38zm9.128 0v-5.652h-2.4v-.948h5.88v.948h-2.4V111h-1.08zm5.31 0v-6.6h1.08v2.424h1.945c.744 0 1.328.188 1.752.564.432.368.648.876.648 1.524 0 .64-.216 1.148-.648 1.524-.432.376-1.016.564-1.752.564h-3.024zm1.08-.984h1.945c.416 0 .732-.092.948-.276.224-.192.336-.468.336-.828 0-.36-.112-.632-.336-.816-.216-.192-.532-.288-.948-.288h-1.944v2.208zm12.495 2.664v-2.604h.54c.136-.136.276-.404.42-.804.152-.4.232-.908.24-1.524l.072-3.348h4.308v5.676h.84v2.604h-.96V111h-4.5v1.68h-.96zm1.68-2.604h2.82v-4.716H93.8l-.048 2.412c-.008.632-.076 1.144-.204 1.536-.128.392-.248.648-.36.768zm8.18 1.044c-.696 0-1.244-.176-1.644-.528-.4-.36-.6-.844-.6-1.452 0-.616.2-1.1.6-1.452.4-.352.94-.528 1.62-.528h2.04v-.66c0-.408-.124-.72-.372-.936-.24-.224-.584-.336-1.032-.336-.392 0-.72.084-.984.252-.264.16-.416.38-.456.66h-1.08c.072-.568.34-1.02.804-1.356.464-.336 1.044-.504 1.74-.504.76 0 1.36.196 1.8.588.44.392.66.924.66 1.596V111h-1.056v-1.26h-.18l.18-.18c0 .48-.188.86-.564 1.14-.368.28-.86.42-1.476.42zm.264-.852c.512 0 .932-.128 1.26-.384.328-.256.492-.584.492-.984v-.936h-2.016c-.36 0-.644.1-.852.3-.208.2-.312.472-.312.816 0 .368.124.66.372.876.256.208.608.312 1.056.312zm5.035.732v-6.6h1.08v2.748h2.784V104.4h1.08v6.6h-1.08v-2.868h-2.784V111h-1.08zm7.195 0v-6.6h1.08v2.748h2.784V104.4h1.08v6.6h-1.08v-2.868h-2.784V111h-1.08zm6.848 0v-6.6h1.008v2.424h.54c.712 0 1.272.188 1.68.564.416.368.624.876.624 1.524s-.208 1.16-.624 1.536c-.408.368-.968.552-1.68.552h-1.548zm1.008-.864h.54c.424 0 .752-.108.984-.324.24-.216.36-.516.36-.9s-.12-.684-.36-.9c-.232-.216-.56-.324-.984-.324h-.54v2.448zm3.624.864v-6.6h1.008v6.6h-1.008zm5.383.12c-.52 0-.976-.104-1.368-.312a2.258 2.258 0 01-.9-.876c-.208-.384-.312-.828-.312-1.332v-1.8c0-.512.104-.956.312-1.332.216-.376.516-.668.9-.876.392-.208.848-.312 1.368-.312.52 0 .972.104 1.356.312.392.208.692.5.9.876.216.376.324.82.324 1.332v1.164h-4.104v.636c0 .52.132.92.396 1.2.264.272.64.408 1.128.408.416 0 .752-.072 1.008-.216a.953.953 0 00.468-.672h1.08c-.072.552-.344.992-.816 1.32-.464.32-1.044.48-1.74.48zm1.524-3.876v-.444c0-.52-.132-.92-.396-1.2-.256-.28-.632-.42-1.128-.42-.488 0-.864.14-1.128.42-.264.28-.396.68-.396 1.2v.348h3.132l-.084.096zM13.128 127v-6.6h1.032v3.6c0 .232-.008.476-.024.732-.008.256-.024.5-.048.732a7.615 7.615 0 01-.06.576l2.664-5.64h1.38v6.6H17.04v-3.6c0-.232.004-.476.012-.732.016-.256.036-.5.06-.732l.06-.588L14.508 127h-1.38zm9.355.084c-.696 0-1.268-.148-1.716-.444a1.764 1.764 0 01-.792-1.2h1.14c.056.2.204.364.444.492.248.128.556.192.924.192h.564c.392 0 .696-.092.912-.276a.887.887 0 00.336-.72c0-.32-.108-.572-.324-.756-.208-.184-.516-.276-.924-.276h-1.452v-.936h1.416c.368 0 .648-.088.84-.264a.9.9 0 00.288-.696c0-.2-.044-.368-.132-.504a.763.763 0 00-.372-.312 1.551 1.551 0 00-.612-.108h-.6c-.32 0-.596.072-.828.216-.232.144-.372.32-.42.528h-1.14c.08-.496.34-.904.78-1.224.44-.32.976-.48 1.608-.48h.6c.472 0 .876.076 1.212.228.336.144.592.352.768.624.184.272.276.596.276.972 0 .392-.128.716-.384.972-.256.248-.616.388-1.08.42v.048c.568.04.98.192 1.236.456s.384.644.384 1.14c0 .584-.216 1.048-.648 1.392-.432.344-1.012.516-1.74.516h-.564zm12.207 2.076v-8.76h1.08v1.26h.216l-.216.252c0-.504.164-.9.492-1.188.336-.296.776-.444 1.32-.444.664 0 1.192.22 1.584.66.4.432.6 1.028.6 1.788v1.932c0 .504-.092.94-.276 1.308a1.962 1.962 0 01-.756.852c-.32.2-.704.3-1.152.3-.536 0-.972-.148-1.308-.444-.336-.296-.504-.692-.504-1.188l.216.252h-.24l.024 1.5v1.92h-1.08zm2.532-2.976c.456 0 .812-.136 1.068-.408.264-.272.396-.664.396-1.176v-1.8c0-.512-.132-.904-.396-1.176-.256-.272-.612-.408-1.068-.408-.44 0-.792.14-1.056.42-.264.28-.396.668-.396 1.164v1.8c0 .496.132.884.396 1.164.264.28.616.42 1.056.42zm6.583.936c-.696 0-1.244-.176-1.644-.528-.4-.36-.6-.844-.6-1.452 0-.616.2-1.1.6-1.452.4-.352.94-.528 1.62-.528h2.04v-.66c0-.408-.124-.72-.372-.936-.24-.224-.584-.336-1.032-.336-.392 0-.72.084-.984.252-.264.16-.416.38-.456.66h-1.08c.072-.568.34-1.02.804-1.356.464-.336 1.044-.504 1.74-.504.76 0 1.36.196 1.8.588.44.392.66.924.66 1.596V127h-1.056v-1.26h-.18l.18-.18c0 .48-.188.86-.564 1.14-.368.28-.86.42-1.476.42zm.264-.852c.512 0 .932-.128 1.26-.384.328-.256.492-.584.492-.984v-.936h-2.016c-.36 0-.644.1-.852.3-.208.2-.312.472-.312.816 0 .368.124.66.372.876.256.208.608.312 1.056.312zm7.196.816c-.696 0-1.268-.148-1.716-.444a1.764 1.764 0 01-.792-1.2h1.14c.056.2.204.364.444.492.248.128.556.192.924.192h.564c.392 0 .696-.092.912-.276a.887.887 0 00.336-.72c0-.32-.108-.572-.324-.756-.208-.184-.516-.276-.924-.276h-1.452v-.936h1.416c.368 0 .648-.088.84-.264a.9.9 0 00.288-.696c0-.2-.044-.368-.132-.504a.763.763 0 00-.372-.312 1.551 1.551 0 00-.612-.108h-.6c-.32 0-.596.072-.828.216-.232.144-.372.32-.42.528h-1.14c.08-.496.34-.904.78-1.224.44-.32.976-.48 1.608-.48h.6c.472 0 .876.076 1.212.228.336.144.592.352.768.624.184.272.276.596.276.972 0 .392-.128.716-.384.972-.256.248-.616.388-1.08.42v.048c.568.04.98.192 1.236.456s.384.644.384 1.14c0 .584-.216 1.048-.648 1.392-.432.344-1.012.516-1.74.516h-.564zM56.3 127v-6.6h1.08v2.748h2.784V120.4h1.08v6.6h-1.08v-2.868H57.38V127H56.3zm6.847 0v-6.6h1.008v2.424h.54c.712 0 1.272.188 1.68.564.416.368.624.876.624 1.524s-.208 1.16-.624 1.536c-.408.368-.968.552-1.68.552h-1.548zm1.008-.864h.54c.424 0 .752-.108.984-.324.24-.216.36-.516.36-.9s-.12-.684-.36-.9c-.232-.216-.56-.324-.984-.324h-.54v2.448zm3.624.864v-6.6h1.008v6.6H67.78zm2.383 0l2.34-3.396-2.195-3.204h1.272l1.308 2.04c.055.088.108.184.156.288.055.104.1.188.131.252.024-.064.06-.148.108-.252.056-.104.112-.2.169-.288l1.32-2.04h1.26l-2.197 3.216L76.163 127H74.89l-1.415-2.16a3.356 3.356 0 01-.168-.3 2.599 2.599 0 00-.133-.288c-.032.072-.08.168-.144.288a2.125 2.125 0 01-.18.3L71.423 127h-1.26zm17.415.12c-.528 0-.992-.1-1.392-.3a2.161 2.161 0 01-.912-.864c-.216-.384-.324-.836-.324-1.356v-1.8c0-.528.108-.98.324-1.356.216-.376.52-.664.912-.864.4-.2.864-.3 1.392-.3.76 0 1.372.204 1.836.612.464.408.708.964.732 1.668h-1.08c-.024-.424-.168-.748-.432-.972-.256-.232-.608-.348-1.056-.348-.472 0-.848.136-1.128.408-.28.264-.42.644-.42 1.14v1.812c0 .496.14.88.42 1.152.28.272.656.408 1.128.408.448 0 .8-.116 1.056-.348.264-.232.408-.556.432-.972h1.08c-.024.704-.268 1.26-.732 1.668-.464.408-1.076.612-1.836.612zm4.7-.12v-6.6h1.031v3.6c0 .232-.008.476-.024.732-.008.256-.024.5-.048.732a7.615 7.615 0 01-.06.576l2.664-5.64h1.38v6.6h-1.032v-3.6c0-.232.004-.476.012-.732.016-.256.036-.5.06-.732l.06-.588L93.656 127h-1.38zm9.691.12c-.528 0-.992-.1-1.392-.3a2.161 2.161 0 01-.912-.864c-.216-.384-.324-.836-.324-1.356v-1.8c0-.528.108-.98.324-1.356.216-.376.52-.664.912-.864.4-.2.864-.3 1.392-.3.76 0 1.372.204 1.836.612.464.408.708.964.732 1.668h-1.08c-.024-.424-.168-.748-.432-.972-.256-.232-.608-.348-1.056-.348-.472 0-.848.136-1.128.408-.28.264-.42.644-.42 1.14v1.812c0 .496.14.88.42 1.152.28.272.656.408 1.128.408.448 0 .8-.116 1.056-.348.264-.232.408-.556.432-.972h1.08c-.024.704-.268 1.26-.732 1.668-.464.408-1.076.612-1.836.612zm6.631-.12v-5.652h-2.4v-.948h5.88v.948h-2.4V127h-1.08zm7.735.12c-.52 0-.976-.104-1.368-.312a2.258 2.258 0 01-.9-.876c-.208-.384-.312-.828-.312-1.332v-1.8c0-.512.104-.956.312-1.332.216-.376.516-.668.9-.876.392-.208.848-.312 1.368-.312.52 0 .972.104 1.356.312.392.208.692.5.9.876.216.376.324.82.324 1.332v1.164h-4.104v.636c0 .52.132.92.396 1.2.264.272.64.408 1.128.408.416 0 .752-.072 1.008-.216a.953.953 0 00.468-.672h1.08c-.072.552-.344.992-.816 1.32-.464.32-1.044.48-1.74.48zm1.524-3.876v-.444c0-.52-.132-.92-.396-1.2-.256-.28-.632-.42-1.128-.42-.488 0-.864.14-1.128.42-.264.28-.396.68-.396 1.2v.348h3.132l-.084.096zm2.984 3.756v-6.6h1.464l.864 2.532c.088.256.168.512.24.768.072.248.124.44.156.576.032-.136.08-.328.144-.576.072-.256.148-.516.228-.78l.816-2.52h1.464v6.6h-1.044v-1.02c0-.36.004-.752.012-1.176l.024-1.284.048-1.224c.016-.392.028-.736.036-1.032l-1.176 3.756h-1.14l-1.188-3.732c.016.36.028.808.036 1.344.016.536.028 1.096.036 1.68.016.584.024 1.14.024 1.668V127h-1.044zM12.36 144.68v-2.604h.54c.136-.136.276-.404.42-.804.152-.4.232-.908.24-1.524l.072-3.348h4.308v5.676h.84v2.604h-.96V143h-4.5v1.68h-.96zm1.68-2.604h2.82v-4.716h-2.208l-.048 2.412c-.008.632-.076 1.144-.204 1.536-.128.392-.248.648-.36.768zm5.455 1.008v-1.008h.216c.368 0 .624-.144.768-.432.152-.288.232-.804.24-1.548l.072-3.696h4.476v6.6h-1.08v-5.616H21.86l-.06 2.76c-.016.696-.096 1.26-.24 1.692-.136.432-.352.748-.648.948-.288.2-.668.3-1.14.3h-.276zm7.616-.084l1.692-2.544c-.504-.12-.896-.352-1.176-.696-.272-.344-.408-.772-.408-1.284 0-.648.212-1.156.636-1.524.432-.368 1.02-.552 1.764-.552h2.844v6.6h-1.08v-2.46H29.93L28.37 143h-1.26zm2.508-3.42h1.764v-2.22h-1.764c-.4 0-.716.1-.948.3-.232.192-.348.464-.348.816 0 .344.116.616.348.816.232.192.548.288.948.288zm14.762 3.516c-.528 0-.984-.1-1.368-.3a2.178 2.178 0 01-.9-.864c-.208-.384-.312-.836-.312-1.356v-1.752c0-.528.104-.98.312-1.356.216-.376.516-.664.9-.864.384-.2.84-.3 1.368-.3.528 0 .984.1 1.368.3.384.2.68.488.888.864.216.376.324.824.324 1.344v1.764c0 .52-.108.972-.324 1.356a2.103 2.103 0 01-.888.864c-.384.2-.84.3-1.368.3zm0-.96c.472 0 .84-.132 1.104-.396.264-.264.396-.652.396-1.164v-1.752c0-.512-.132-.9-.396-1.164-.264-.264-.632-.396-1.104-.396-.464 0-.832.132-1.104.396-.264.264-.396.652-.396 1.164v1.752c0 .512.132.9.396 1.164.272.264.64.396 1.104.396zm4.724.864v-6.6h4.944v6.6h-1.08v-5.616h-2.784V143h-1.08zm9.127 0v-5.652h-2.4v-.948h5.88v.948h-2.4V143h-1.08zm5.263 0v-6.6h1.032v3.6c0 .232-.008.476-.024.732-.008.256-.024.5-.048.732a7.615 7.615 0 01-.06.576l2.664-5.64h1.38v6.6h-1.032v-3.6c0-.232.004-.476.012-.732.016-.256.036-.5.06-.732l.06-.588L64.875 143h-1.38zm6.98 0v-6.6h1.464l.864 2.532c.088.256.168.512.24.768.072.248.123.44.155.576.033-.136.08-.328.145-.576.072-.256.147-.516.227-.78l.817-2.52h1.463v6.6h-1.043v-1.02c0-.36.004-.752.011-1.176l.025-1.284c.016-.432.031-.84.047-1.224.016-.392.028-.736.037-1.032l-1.177 3.756h-1.14l-1.188-3.732c.017.36.029.808.037 1.344a94.1 94.1 0 01.035 1.68c.016.584.025 1.14.025 1.668V143h-1.044zm7.41 0v-6.6h1.033v3.6c0 .232-.008.476-.024.732-.008.256-.024.5-.048.732a7.615 7.615 0 01-.06.576l2.664-5.64h1.38v6.6h-1.032v-3.6c0-.232.004-.476.012-.732.016-.256.036-.5.06-.732l.06-.588L79.266 143h-1.38zm9.356.084c-.696 0-1.268-.148-1.716-.444a1.764 1.764 0 01-.792-1.2h1.14c.056.2.204.364.444.492.248.128.556.192.924.192h.564c.392 0 .696-.092.912-.276a.887.887 0 00.336-.72c0-.32-.108-.572-.324-.756-.208-.184-.516-.276-.924-.276h-1.452v-.936h1.416c.368 0 .648-.088.84-.264a.9.9 0 00.288-.696c0-.2-.044-.368-.132-.504a.763.763 0 00-.372-.312 1.551 1.551 0 00-.612-.108h-.6c-.32 0-.596.072-.828.216-.232.144-.372.32-.42.528h-1.14c.08-.496.34-.904.78-1.224.44-.32.976-.48 1.608-.48h.6c.472 0 .876.076 1.212.228.336.144.592.352.768.624.184.272.276.596.276.972 0 .392-.128.716-.384.972-.256.248-.616.388-1.08.42v.048c.568.04.98.192 1.236.456s.384.644.384 1.14c0 .584-.216 1.048-.648 1.392-.432.344-1.012.516-1.74.516h-.564zm6.931.036c-.696 0-1.244-.176-1.644-.528-.4-.36-.6-.844-.6-1.452 0-.616.2-1.1.6-1.452.4-.352.94-.528 1.62-.528h2.04v-.66c0-.408-.124-.72-.372-.936-.24-.224-.584-.336-1.032-.336-.392 0-.72.084-.984.252-.264.16-.416.38-.456.66h-1.08c.072-.568.34-1.02.804-1.356.464-.336 1.044-.504 1.74-.504.76 0 1.36.196 1.8.588.44.392.66.924.66 1.596V143h-1.056v-1.26h-.18l.18-.18c0 .48-.188.86-.564 1.14-.368.28-.86.42-1.476.42zm.264-.852c.512 0 .932-.128 1.26-.384.328-.256.492-.584.492-.984v-.936h-2.016c-.36 0-.644.1-.852.3-.208.2-.312.472-.312.816 0 .368.124.66.372.876.256.208.608.312 1.056.312zm9.728 2.412V143h-4.692v-6.6h1.08v5.64h2.592v-5.64h1.08v5.64h.9v2.64h-.96zm2.503-1.68v-6.6h1.032v3.6c0 .232-.008.476-.024.732-.008.256-.024.5-.048.732a7.615 7.615 0 01-.06.576l2.664-5.64h1.38v6.6h-1.032v-3.6c0-.232.004-.476.012-.732.016-.256.036-.5.06-.732l.06-.588-2.664 5.652h-1.38zm7.195 0v-6.6h1.032v3.6c0 .232-.008.476-.024.732-.008.256-.024.5-.048.732a7.615 7.615 0 01-.06.576l2.664-5.64h1.38v6.6h-1.032v-3.6c0-.232.004-.476.012-.732.016-.256.036-.5.06-.732l.06-.588-2.664 5.652h-1.38zM13.104 161.16v-8.76h1.08v1.26h.216l-.216.252c0-.504.164-.9.492-1.188.336-.296.776-.444 1.32-.444.664 0 1.192.22 1.584.66.4.432.6 1.028.6 1.788v1.932c0 .504-.092.94-.276 1.308a1.962 1.962 0 01-.756.852c-.32.2-.704.3-1.152.3-.536 0-.972-.148-1.308-.444-.336-.296-.504-.692-.504-1.188l.216.252h-.24l.024 1.5v1.92h-1.08zm2.532-2.976c.456 0 .812-.136 1.068-.408.264-.272.396-.664.396-1.176v-1.8c0-.512-.132-.904-.396-1.176-.256-.272-.612-.408-1.068-.408-.44 0-.792.14-1.056.42-.264.28-.396.668-.396 1.164v1.8c0 .496.132.884.396 1.164.264.28.616.42 1.056.42zm6.583.936c-.696 0-1.244-.176-1.644-.528-.4-.36-.6-.844-.6-1.452 0-.616.2-1.1.6-1.452.4-.352.94-.528 1.62-.528h2.04v-.66c0-.408-.124-.72-.372-.936-.24-.224-.584-.336-1.032-.336-.392 0-.72.084-.984.252-.264.16-.416.38-.456.66h-1.08c.072-.568.34-1.02.804-1.356.464-.336 1.044-.504 1.74-.504.76 0 1.36.196 1.8.588.44.392.66.924.66 1.596V159H24.26v-1.26h-.18l.18-.18c0 .48-.188.86-.564 1.14-.368.28-.86.42-1.476.42zm.264-.852c.512 0 .932-.128 1.26-.384.328-.256.492-.584.492-.984v-.936H22.22c-.36 0-.644.1-.852.3-.208.2-.312.472-.312.816 0 .368.124.66.372.876.256.208.608.312 1.056.312zm7.508.852c-.776 0-1.392-.228-1.848-.684-.448-.464-.672-1.096-.672-1.896v-3c0-1.056.264-1.868.792-2.436.528-.576 1.284-.864 2.268-.864h1.68v1.08h-1.68c-.648 0-1.14.192-1.476.576-.336.376-.504.924-.504 1.644v.78h.168l-.168.24c.008-.472.168-.84.48-1.104.312-.264.736-.396 1.272-.396.696 0 1.236.224 1.62.672.392.448.588 1.064.588 1.848v.96c0 .536-.1.996-.3 1.38-.2.384-.488.68-.864.888-.376.208-.828.312-1.356.312zm0-.96c.464 0 .82-.14 1.068-.42.248-.28.372-.68.372-1.2v-.96c0-.52-.124-.92-.372-1.2-.248-.28-.604-.42-1.068-.42-.464 0-.82.14-1.068.42-.248.272-.372.672-.372 1.2v.96c0 .52.124.92.372 1.2.248.28.604.42 1.068.42zm7.195.936c-.528 0-.984-.1-1.368-.3a2.178 2.178 0 01-.9-.864c-.208-.384-.312-.836-.312-1.356v-1.752c0-.528.104-.98.312-1.356.216-.376.516-.664.9-.864.384-.2.84-.3 1.368-.3.528 0 .984.1 1.368.3.384.2.68.488.888.864.216.376.324.824.324 1.344v1.764c0 .52-.108.972-.324 1.356a2.103 2.103 0 01-.888.864c-.384.2-.84.3-1.368.3zm0-.96c.472 0 .84-.132 1.104-.396.264-.264.396-.652.396-1.164v-1.752c0-.512-.132-.9-.396-1.164-.264-.264-.632-.396-1.104-.396-.464 0-.832.132-1.104.396-.264.264-.396.652-.396 1.164v1.752c0 .512.132.9.396 1.164.272.264.64.396 1.104.396zm6.655.864v-5.652h-2.4v-.948h5.88v.948h-2.4V159h-1.08zm4.916 0v-6.6h1.008v2.424h.54c.712 0 1.272.188 1.68.564.416.368.624.876.624 1.524s-.208 1.16-.624 1.536c-.408.368-.968.552-1.68.552h-1.548zm1.008-.864h.54c.424 0 .752-.108.984-.324.24-.216.36-.516.36-.9s-.12-.684-.36-.9c-.232-.216-.56-.324-.984-.324h-.54v2.448zm3.624.864v-6.6h1.008v6.6h-1.008zm5.383.12c-.304 0-.548-.088-.732-.264-.176-.176-.264-.412-.264-.708 0-.312.088-.56.264-.744.184-.184.428-.276.732-.276s.544.092.72.276c.184.184.276.432.276.744 0 .296-.092.532-.276.708-.176.176-.416.264-.72.264z" fill="#000"/><defs><linearGradient id="paint0_linear_2003_37" x1="0" y1="72.893" x2="223.615" y2="72.893" gradientUnits="userSpaceOnUse"><stop stop-color="#F1FFF7"/><stop offset="1" stop-color="#C1A678"/></linearGradient><linearGradient id="paint1_linear_2003_37" x1="11.769" y1="8.747" x2="159.382" y2="151.645" gradientUnits="userSpaceOnUse"><stop stop-color="#CCEC60"/><stop offset="1" stop-color="#fff" stop-opacity=".7"/></linearGradient><linearGradient id="paint2_linear_2003_37" x1="0" y1="72.472" x2="223.615" y2="72.472" gradientUnits="userSpaceOnUse"><stop stop-color="#F1FFF7"/><stop offset="1" stop-color="#546A65"/></linearGradient><linearGradient id="paint3_linear_2003_37" x1="11.769" y1="8.697" x2="158.553" y2="151.619" gradientUnits="userSpaceOnUse"><stop stop-color="#CCEC60"/><stop offset="1" stop-color="#fff" stop-opacity=".7"/></linearGradient><filter id="filter0_f_2003_37" x="-18.273" y="124.187" width="118.318" height="79.728" filterUnits="userSpaceOnUse" color-interpolation-filters="sRGB"><feFlood flood-opacity="0" result="BackgroundImageFix"/><feBlend in="SourceGraphic" in2="BackgroundImageFix" result="shape"/><feGaussianBlur stdDeviation="2" result="effect1_foregroundBlur_2003_37"/></filter></defs></svg>