<svg width="72" height="73" fill="none" xmlns="http://www.w3.org/2000/svg"><g clip-path="url(#clip0_245_62)"><path d="M60.165 68.306c-.307.01-.413-.261-.582-.43-4.868-4.859-9.737-9.716-14.587-14.593-.442-.445-.738-.527-1.316-.173-11.5 7.034-26.14 5.155-35.442-4.621C3.484 43.493.833 37.502.458 30.579-.344 15.766 9.935 3.058 24.548.753c15.2-2.396 29.803 8.122 32.309 23.29 1.247 7.553-.28 14.52-4.576 20.857-.382.563-.258.826.16 1.241 4.824 4.795 9.63 9.608 14.441 14.417.177.177.332.375.498.563-1.414 1.362-2.77 2.78-4.206 4.121-1.044.976-2.108 1.942-3.008 3.063h0zm-10.99-39.449C49.164 17.83 40.24 8.9 29.23 8.895c-11.034-.004-19.981 8.96-19.985 20.02-.003 10.988 8.993 19.98 19.967 19.96a19.955 19.955 0 0019.965-20.018z" fill="#223B38" stroke="#CCEC60" stroke-width=".828" stroke-miterlimit="10"/><path d="M60.165 68.306c.9-1.121 1.963-2.087 3.007-3.062 1.436-1.342 2.793-2.76 4.207-4.122 1.325 1.296 2.694 2.55 3.96 3.901.9.96.762 2.167.282 3.26-1.047 2.383-2.78 4.027-5.393 4.59-.913.197-1.734.001-2.411-.697-1.12-1.153-2.256-2.29-3.383-3.436-.122-.123-.269-.233-.268-.434h-.001zM28.907 17.477c0 3.572.012 7.144-.013 10.715-.004.53.17.825.622 1.067 3.574 1.904 7.139 3.824 10.705 5.74 1.152.62 2.29 1.264 3.454 1.86.438.224.513.44.274.875-1.358 2.47-3.312 4.347-5.72 5.76-4.318 2.53-8.93 3.17-13.727 1.785-4.524-1.308-7.942-4.093-10.205-8.258-1.567-2.882-2.26-5.963-2.034-9.224.266-3.863 1.551-7.332 4.096-10.316 2.762-3.238 6.288-4.992 10.448-5.57.545-.075 1.107-.012 1.659-.05.485-.033.594.196.59.63-.017 1.662-.007 3.324-.007 4.986h-.142z" fill="#CCEC60"/><path d="M30.994 24.069c.205-3.804.097-7.424.156-11.042.016-1.02.081-1.105 1.072-1.022 2.826.238 5.37 1.23 7.593 2.993.787.625.764.689.074 1.385-2.677 2.693-5.35 5.389-8.036 8.073-.212.212-.387.663-.74.493-.272-.13-.08-.552-.119-.842-.01-.074 0-.15 0-.038zm6.884 7.137c-.546-.042-1.038-.7-.851-1.283.924-2.895 1.865-5.785 2.797-8.677.178-.55.39-1.092.506-1.655.16-.781.64-1.351 1.136-1.916.172-.195.351-.483.688-.29.34.195.356.467.235.837-.951 2.913-1.88 5.834-2.817 8.752-.406 1.268-.807 2.538-1.223 3.803-.063.192-.061.484-.471.43v-.001zm6.115-11.366c-.066.252-.127.548-.219.834a3353.934 3353.934 0 01-3.512 10.837c-.114.349-.122.878-.742.71-.561-.152-.844-.697-.665-1.259 1.236-3.854 2.467-7.71 3.72-11.557.101-.31.05-.962.52-.812.445.142.871.597.897 1.247h.001zm.467.739c.58.904 1.043 1.745.617 2.953-1.054 2.98-1.964 6.01-2.947 9.013-.095.292-.112.849-.632.585-.394-.199-1.116-.228-.85-1.049 1.197-3.7 2.374-7.406 3.567-11.108.042-.128.022-.307.246-.394zm-4.947-.831c.189.278.082.46.022.647-1 3.105-1.997 6.211-3.003 9.315-.086.265-.124.722-.533.56-.395-.158-.957-.276-.928-.902.01-.22.087-.442.156-.656.64-1.982 1.342-3.947 1.912-5.949.39-1.372 1.513-2.045 2.375-3.016v.001zm6.228 3.727c.277.666.4 1.374.54 2.078.18.898-.292 1.661-.532 2.462-.562 1.875-1.185 3.733-1.806 5.59-.08.24-.046.739-.495.582-.418-.145-.966-.263-.976-.895-.002-.123.028-.25.066-.368.986-3.059 1.974-6.116 2.962-9.174.038-.117.061-.248.241-.276zm-9.181-.622c.002.616-.368 1.118-.532 1.677-.41 1.391-.893 2.762-1.36 4.136-.076.22-.045.655-.474.464-.38-.17-1.046-.208-.92-.808.452-2.145 1.106-4.205 3.107-5.484.031-.02.091.006.18.015zm9.7 5.307c.277 2.234-.131 4.326-1.015 6.326-.095.215-.118.595-.552.42-.42-.167-.483-.476-.365-.855.344-1.1.693-2.198 1.052-3.293.284-.869.585-1.732.88-2.598zM33.253 26.2c-.023.675-.369 1.266-.54 1.901-.073.27-.325.366-.488.087-.139-.239-.865-.158-.422-.71.4-.497.83-.972 1.246-1.457l.204.18z" fill="#CCEC60"/></g><defs><clipPath id="clip0_245_62"><path fill="#fff" d="M0 0h72v72.945H0z"/></clipPath></defs></svg>