<svg width="78" height="77" fill="none" xmlns="http://www.w3.org/2000/svg"><path d="M38.574 76.478c-.852 0-1.706.041-2.555-.011-1.003-.062-2.021-.108-2.977-.459-.79-.29-1.337-.87-1.604-1.674-.425-1.286-.87-2.567-1.222-3.873-.147-.548-.465-.685-.927-.84-1.266-.423-2.53-.865-3.761-1.38-.991-.414-1.936-.94-2.896-1.426a.406.406 0 00-.413-.002c-.902.469-1.802.94-2.71 1.395-.596.3-1.186.628-1.814.84-.763.259-1.517.097-2.189-.35-1.88-1.253-3.474-2.833-4.988-4.488a28.323 28.323 0 01-2.139-2.654c-.612-.859-.625-1.833-.16-2.771.641-1.292 1.323-2.563 1.994-3.84.11-.207.124-.385 0-.6a29.016 29.016 0 01-2.152-4.68 48.73 48.73 0 01-.746-2.303c-.065-.216-.165-.33-.382-.399-1.448-.455-2.901-.894-4.331-1.399-.923-.325-1.488-1.025-1.68-2-.459-2.338-.466-4.7-.355-7.066.04-.84.149-1.678.254-2.514.176-1.404.891-2.283 2.284-2.687 1.308-.38 2.599-.823 3.9-1.23.172-.053.25-.155.296-.32a31.192 31.192 0 012.92-7.057c.101-.177.119-.332.015-.528-.643-1.221-1.266-2.453-1.908-3.675-.599-1.141-.539-2.218.224-3.274 1.466-2.027 3.224-3.777 5.1-5.415a26.802 26.802 0 011.634-1.292c1.028-.765 2.103-.795 3.227-.194 1.231.66 2.474 1.301 3.72 1.935a.497.497 0 00.406-.012 31.909 31.909 0 014.997-2.275c.67-.238 1.353-.445 2.037-.639.26-.073.388-.208.462-.459.231-.781.48-1.559.725-2.336.183-.58.365-1.16.556-1.736.377-1.139 1.194-1.75 2.352-1.948 2.398-.41 4.814-.378 7.23-.264a19.82 19.82 0 012.43.29c1.279.22 2.001 1.043 2.357 2.26.332 1.142.711 2.27 1.07 3.403.024.075.064.148.07.223.03.408.299.513.65.615.807.233 1.606.501 2.397.788a25.339 25.339 0 014.132 1.913c.412.24.709.214 1.11-.003a81.54 81.54 0 013.776-1.94c.9-.43 1.813-.317 2.623.256a24.07 24.07 0 012.091 1.637c1.49 1.322 2.9 2.728 4.145 4.29.441.553.93 1.09 1.148 1.786.225.719.228 1.445-.117 2.128a170.673 170.673 0 01-1.933 3.722c-.176.33-.175.572.003.924.65 1.294 1.28 2.602 1.837 3.94.399.957.672 1.969.994 2.959.05.156.13.246.289.296.977.306 1.954.611 2.926.932.617.204 1.25.38 1.833.661.728.35 1.16.989 1.313 1.781.46 2.38.508 4.782.345 7.192a51.237 51.237 0 01-.227 2.411c-.099.845-.382 1.616-1.103 2.134-.283.204-.61.372-.94.483-1.392.463-2.794.896-4.189 1.35a.407.407 0 00-.229.241c-.646 2.328-1.525 4.565-2.71 6.667-.317.56-.289.952.008 1.48a53.144 53.144 0 011.787 3.446c.433.918.397 1.86-.183 2.729-1.155 1.732-2.597 3.217-4.109 4.63-.786.735-1.626 1.413-2.455 2.1-.689.57-1.458.943-2.39.835-.54-.062-1.006-.315-1.477-.559-1.14-.592-2.28-1.185-3.428-1.764a.49.49 0 00-.38.008c-.913.444-1.807.927-2.729 1.353a28.371 28.371 0 01-4.382 1.577c-.226.063-.332.193-.396.393-.443 1.416-.856 2.842-1.338 4.243-.34.985-1.08 1.57-2.108 1.778-1.629.33-3.28.342-4.93.31l-.005.002zm23.909-37.862c.067-13.183-10.549-23.95-23.765-24.046-13.391-.096-24.072 10.724-24.133 23.86-.06 13.155 10.652 24.035 23.922 24.054 13.125.019 23.96-10.651 23.975-23.867h0z" fill="#223B38" stroke="#CCEC60" stroke-width="1.013" stroke-miterlimit="10"/><path d="M38.735 61.069c-5.067-.033-9.476-1.468-13.442-4.296-.47-.334-.604-.637-.412-1.201 1.286-3.778 3.612-6.674 7.13-8.6.382-.21.623-.189.967.097 3.31 2.747 7.762 2.762 11.086.032.396-.325.677-.329 1.094-.096 3.474 1.94 5.797 4.813 7.059 8.575.177.529.084.827-.374 1.154-3.982 2.849-8.413 4.287-13.106 4.333l-.002.002z" fill="#CCEC60"/><path d="M31.269 39.248c0-.37-.002-.74 0-1.11.02-4.061 3.238-7.298 7.26-7.305 3.996-.006 7.226 3.183 7.278 7.213.014 1.154.053 2.321-.088 3.462-.46 3.716-3.83 6.493-7.513 6.27-3.876-.235-6.874-3.323-6.934-7.142-.007-.463 0-.926 0-1.388h-.003zm-13.686-1.355c0-.531-.054-1.068.009-1.591.344-2.871 2.798-4.945 5.712-4.858 2.827.084 5.145 2.351 5.306 5.226.046.829.048 1.665-.005 2.493a5.524 5.524 0 01-5.636 5.178 5.545 5.545 0 01-5.423-5.408c-.009-.346-.001-.693-.001-1.04h.038zm30.884-.015c0-.37-.01-.74.002-1.109.1-2.852 2.398-5.196 5.212-5.32 2.959-.13 5.48 1.931 5.791 4.824.114 1.05.115 2.13.007 3.18-.299 2.904-2.86 5.041-5.748 4.884a5.537 5.537 0 01-5.264-5.42c-.008-.345-.001-.692 0-1.038v-.001z" fill="#CCEC60"/><path d="M30.804 46.074c-3.573 2.183-5.938 5.24-7.267 9.198-.224-.178-.388-.288-.528-.422a22.571 22.571 0 01-5.924-9.474c-.122-.379-.227-.737.25-.92.502-.192.854-.901 1.571-.343 2.638 2.054 5.71 2.042 8.362.028.173-.13.494-.26.651-.188 1.071.498 1.997 1.207 2.886 2.12zm22.749 9.25c-1.338-4.017-3.693-7.063-7.27-9.24.878-.938 1.836-1.64 2.929-2.144.15-.069.466.096.645.232 2.613 1.98 5.74 1.986 8.314-.059.494-.392.8-.12 1.166.086.882.494.88.5.568 1.443-1.132 3.422-2.991 6.394-5.545 8.934-.224.223-.465.432-.807.75v-.002z" fill="#CCEC60"/></svg>