<svg width="69" height="71" fill="none" xmlns="http://www.w3.org/2000/svg"><path d="M67.719 15.074c-.008-.35-.035-1.119-.497-1.875-.373-.61-.95-1.09-1.706-1.426a2233.804 2233.804 0 00-13.304-5.88c-1.671-.731-3.77.024-4.491 1.569-.126.27-.262.423-.771 1.355a91.772 91.772 0 01-1.572 2.762 322.771 322.771 0 00-3.318 5.872c-.36.656-.994 1.834-1.923 3.447l-1.493 2.592a.093.093 0 00-.025.063l-.307.535a.105.105 0 00-.03.065l-.401.699a.09.09 0 00-.027.062c-.595 1.052-1.188 2.105-1.782 3.157l-.736 1.293-.334.597c-.318.57-.56.994-.672 1.187a948.972 948.972 0 00-2.988 5.281l-.522.934c-.053.096-.15.234-.288.25-.17.02-.319-.16-.372-.222-1.09-1.293-5.057-5.079-5.457-5.453a5.215 5.215 0 00-1.342-.907 3.388 3.388 0 00-.844-.282 3.166 3.166 0 00-1.89.242c-.12.056-.216.11-.288.153l-.375.236c-.26.152-.877.558-1.276 1.352-.454.906-.33 1.802-.27 2.15.179 1.044.747 1.754 1.01 2.077 1.057 1.289 4.681 5.672 9.25 9.389a4.71 4.71 0 001.504.84c.471.155.836.185.957.193.292.019.885.05 1.534-.248.303-.14.522-.314.621-.392.23-.181.4-.364.52-.51a20.499 20.499 0 001.1-1.526c.371-.566.627-1.017.722-1.174a92.25 92.25 0 002.88-5.128c1.264-2.24 2.793-4.95 4.18-7.403l2.364-4.182c2.363-4.18 4.726-8.359 7.082-12.543.184-.327.334-.351.662-.204a551.755 551.755 0 007.154 3.163c.35.152.453.34.445.7a75.646 75.646 0 01-.268 4.666c-.341 3.989-.242 4.797-1.788 10.845a50.46 50.46 0 01-.977 3.402c-.194.594-1.02 3.314-2.767 6.783-.406.805-.816 1.608-1.224 2.412l-.252.426-.479.822-.336.52a45.156 45.156 0 01-2.794 3.841l-1.423 1.623-.207.232-1.008 1.032-2.138 1.95-.416.347-1.622 1.258-.753.531-1.293.845c-.008.002-.021.004-.035.01a.105.105 0 00-.03.022l-.78.481c-.986.676-2.34 1.495-3.862 2.086-.597.233-1.15.403-1.842.446a5.514 5.514 0 01-1.86-.208 81.968 81.968 0 01-2.419-1.236c-.436-.232-1.207-.618-2.686-1.5a53.696 53.696 0 01-2.034-1.277l-.338-.249-.005-.003-1.11-.83-.754-.622-.18-.151-.417-.359-.265-.234-1.605-1.553-.17-.174-.699-.754-.402-.444-.2-.235-.31-.361-.116-.15-.491-.597-.417-.525-.684-.934-.422-.6-.274-.408-.24-.356-.19-.306-.01-.012-.394-.62a52.893 52.893 0 01-2.031-3.882 50.13 50.13 0 01-3.01-7.98 66.49 66.49 0 01-1.907-9.433c-.35-2.696-.553-5.4-.676-8.115-.034-.73.184-1.069.869-1.373 2.832-1.256 5.698-2.433 8.498-3.766.849-.405 1.721-.806 2.616-1.142 1.179-.441 2.319-.987 3.472-1.497a2467.83 2467.83 0 007.263-3.224c.83-.37 1.408-1.005 1.765-1.82.61-1.391.266-3.029-.812-4.076C30.418.494 28.756.221 27.394.837a397.893 397.893 0 01-3.375 1.509c-3.537 1.56-7.078 3.116-10.613 4.679C9.869 8.588 6.335 10.16 2.8 11.723c-1.505.665-2.27 1.813-2.287 3.453a87.33 87.33 0 00.239 7.088c.18 2.526.462 5.038.864 7.538a70.706 70.706 0 002.35 10.031c1.776 5.641 3.71 8.992 4.159 9.763.36.62.675 1.127.894 1.472.236.403.58.98 1.02 1.657 3.372 5.207 7.124 8.522 8.887 9.938 3.901 3.133 8.206 5.503 13.029 6.893 1.152.332 2.293.552 3.507.188 3.019-.907 5.842-2.235 8.535-3.851 4.409-2.647 8.196-6.016 11.413-10.017 2.596-3.229 4.729-6.745 6.447-10.523 1.602-3.524 2.765-7.482 3.394-9.564.36-1.188.648-2.312.648-2.312a56.65 56.65 0 00.739-3.28s1.274-6.535 1.079-15.121l.002-.002z" fill="#223B38" stroke="#CCEC60" stroke-width="1.021" stroke-miterlimit="10"/></svg>