<svg width="53" height="70" fill="none" xmlns="http://www.w3.org/2000/svg"><g clip-path="url(#clip0_235_282)"><path d="M52.648 5.831c-.008-2.011-.892-3.614-2.62-4.686C49.006.512 47.85.341 46.667.34H16.975C13.364.34 9.752.333 6.14.34c-1.259.003-2.486.212-3.523.97C1.127 2.4.34 3.887.34 5.753l.001 41.379c0 .23-.011.463.018.69.187 1.484.84 2.723 2 3.675.985.809 2.152 1.133 3.4 1.15 1.876.026 3.753.012 5.63.013.137 0 .287.037.4-.085.508.077 1.02.079 1.532.079 4.856 0 9.711.002 14.566.001.175 0 .351-.026.526-.039.022 1.005-.32 1.948-.527 2.91-.524 2.435-1.138 4.85-1.658 7.285-.328 1.532-.361 3.076.507 4.473.593.955 1.382 1.641 2.632 1.541 1.192-.095 2.16-.653 3-1.437 1.74-1.625 3.007-3.645 4.475-5.497 1.908-2.407 3.777-4.846 5.652-7.28.48-.623 1.067-1.174 1.395-1.91l.209-.085a23.14 23.14 0 003.648-.015c.235-.019.55.063.724-.219l.303-.053c1.026-.16 1.855-.705 2.505-1.463.996-1.16 1.38-2.564 1.38-4.082-.002-6.41-.001-12.819 0-19.228 0-7.242.018-14.484-.009-21.725h-.001zm-42.31 35.99c-.556-.056-1.103-.46-1.179-.912-.07-.414-.137-.83-.128-1.26.012-.601.354-.927.836-1.17.155-.078.32-.14.479-.208l.364-.013c.031-.113.082-.177.144-.213-.061.035-.112.1-.143.213.23.008.46.023.689.023 7.117.001 14.234.005 21.35.001 2.974-.001 5.948-.016 8.921-.025h.81c.019-.031.038-.052.057-.06-.02.009-.038.029-.056.06h.15l.153.012c.054-.064.096-.094.13-.102-.034.008-.076.038-.13.102.07.082.162.103.264.096a.35.35 0 00.269.118c.172.202.35.397.512.606.504.655.44 1.484-.087 2.135-.414.513-.931.628-1.547.627-10.406-.01-20.813-.013-31.22-.017-.212 0-.426.008-.637-.014zm.17-22.303c1.021-.123 2.036-.042 3.058-.013 1.336.038 2.683.132 4.02-.056.174-.024.354-.011.53-.011 8.015-.004 16.03-.002 24.045-.02.774-.002 1.373.245 1.832.857.386.987.23 1.554-.653 2.366l-.088.068-.018.012c-.084-.007-.154.014-.197.093-.244.146-.515.105-.777.105-10.65-.002-21.3-.007-31.95-.013-.284-.292-.67-.44-.918-.809-.71-1.056-.148-2.427 1.118-2.58l-.001.001zm33.048 12.45c-.074.007-.15.01-.148.116a.06.06 0 00-.058.042c-.66.107-1.315-.023-1.973-.023-3.77 0-7.54.04-11.308-.024-2.067-.036-4.135-.042-6.2-.108-.853-.027-1.707.018-2.566-.052-.796-.064-1.614.079-2.427.075-2.345-.01-4.69.02-7.035-.017-.597-.009-1.22.132-1.805-.188-.465-.255-.835-1.093-.707-1.756.075-.386.728-.928 1.164-.957.176-.012.353-.005.53-.005 6.336 0 12.673.072 19.008-.028 4.068-.064 8.135-.01 12.201-.082a2.513 2.513 0 011.537.457c.025-.036.048-.056.069-.05-.02-.005-.044.014-.069.05l.105.011.006.108.311.722c.027.659-.137 1.245-.633 1.709h-.002zm.352-2.53c.005.003.01.005.014.009-.003-.004-.008-.006-.014-.01zM16.773 10.06c3.735 0 7.472.06 11.206-.017 4.718-.098 9.435-.045 14.154-.076 1.288-.008 1.808.425 2.075 1.7.142.02.187.094.196.198-.01-.104-.054-.178-.196-.197-.241 1.306-.812 1.788-2.121 1.788l-10.004-.006c-.115.004-.23.01-.344.016.115-.005.23-.012.344-.016-.094-.272-.326-.159-.5-.164-6.845-.216-13.694-.084-20.54-.095-1.353-.003-1.875-.911-1.822-1.822a1.409 1.409 0 011.39-1.307c2.054-.005 4.107-.002 6.161-.002z" fill="#223B38"/><path d="M43.993 20.275c-.459-.612-1.058-.86-1.832-.857-8.015.018-16.03.016-24.045.02-.176 0-.356-.013-.53.011-1.337.188-2.684.094-4.02.056-1.022-.03-2.037-.11-3.057.013v-.001c-1.265.153-1.827 1.524-1.117 2.58.248.369.634.517.918.81 10.65.005 21.3.01 31.95.012.262 0 .533.04.777-.105.043-.08.113-.1.197-.093l.018-.012.088-.068c.882-.812 1.038-1.379.653-2.366zm0 0c.167-.014.248.049.296.168m-.94 11.683a.06.06 0 01.06-.042c-.004-.105.073-.109.147-.116h.002c.496-.464.66-1.05.633-1.709m-.841 1.867c-.218.384-.574.375-.924.367m.924-.367c-.66.107-1.315-.023-1.973-.023-3.77 0-7.54.04-11.308-.024-2.067-.036-4.135-.042-6.2-.108-.853-.027-1.707.018-2.566-.052-.796-.064-1.614.079-2.427.075-2.345-.01-4.69.02-7.035-.017-.597-.009-1.22.132-1.805-.188-.465-.255-.835-1.093-.707-1.756.075-.386.728-.928 1.164-.957.176-.012.353-.005.53-.005 6.336 0 12.673.072 19.008-.028 4.068-.064 8.135-.01 12.201-.082a2.513 2.513 0 011.537.457c.025-.036.048-.056.069-.05-.02-.005-.044.014-.069.05l.105.011.006.108.311.722m0 0a.26.26 0 01.148.06m-.461-.896l.024.01m-33.01 8.595a.196.196 0 00-.027.012m33.343-26.372c-.267-1.276-.787-1.709-2.075-1.7-4.719.03-9.436-.023-14.155.075-3.733.078-7.47.017-11.205.017h-.001c-2.054 0-4.107-.003-6.161.002a1.409 1.409 0 00-1.39 1.307c-.053.91.47 1.82 1.821 1.822 6.847.011 13.696-.12 20.542.095.173.005.405-.108.499.164m12.125-1.782c.142.02.187.093.196.197-.01-.104-.054-.178-.196-.197zm0 0c-.241 1.306-.812 1.788-2.121 1.788l-10.004-.006m0 0c-.115.004-.23.01-.344.016m.344-.016c-.115.004-.23.01-.344.016m0 0a7.32 7.32 0 010 0zM9.737 9.944c-.022-.01-.048-.028-.068-.033m42.979-4.08c-.008-2.011-.892-3.614-2.62-4.686C49.006.512 47.85.341 46.667.34H16.975C13.364.34 9.752.333 6.14.34c-1.259.003-2.486.212-3.523.97C1.127 2.4.34 3.887.34 5.753l.001 41.379c0 .23-.011.463.018.69.187 1.484.84 2.723 2 3.675.985.809 2.152 1.133 3.4 1.15 1.876.026 3.753.012 5.63.013.137 0 .287.037.4-.085.508.077 1.02.079 1.532.079 4.856 0 9.711.002 14.566.001.175 0 .351-.026.526-.039.022 1.005-.32 1.948-.527 2.91-.524 2.435-1.138 4.85-1.658 7.285-.328 1.532-.361 3.076.507 4.473.593.955 1.382 1.641 2.632 1.541 1.192-.095 2.16-.653 3-1.437 1.74-1.625 3.007-3.645 4.475-5.497 1.908-2.407 3.777-4.846 5.652-7.28.48-.623 1.067-1.174 1.395-1.91l.209-.085a23.14 23.14 0 003.648-.015c.235-.019.55.063.724-.219l.303-.053c1.026-.16 1.855-.705 2.505-1.463.996-1.16 1.38-2.564 1.38-4.082-.002-6.41-.001-12.819 0-19.228 0-7.242.018-14.484-.009-21.725h-.001zm-42.31 35.99c-.556-.056-1.103-.46-1.179-.912-.07-.414-.137-.83-.128-1.26.012-.601.354-.927.836-1.17.155-.078.32-.14.479-.208l.364-.013c.031-.113.082-.177.144-.213-.061.035-.112.1-.143.213.23.008.46.023.689.023 7.117.001 14.234.005 21.35.001 2.974-.001 5.948-.016 8.921-.025h.81c.019-.031.038-.052.057-.06-.02.009-.038.029-.056.06h.15l.153.012c.054-.064.096-.094.13-.102-.034.008-.076.038-.13.102.07.082.162.103.264.096a.35.35 0 00.269.118.257.257 0 010 0c.172.202.35.397.512.606.504.655.44 1.484-.087 2.135-.414.513-.931.628-1.547.627-10.406-.01-20.813-.013-31.22-.017-.212 0-.426.008-.637-.014h0zm33.57-12.384l.014.01c-.003-.004-.008-.006-.014-.01z" stroke="#CCEC60" stroke-width=".676" stroke-miterlimit="10"/></g><defs><clipPath id="clip0_235_282"><path fill="#fff" d="M0 0h53v69.174H0z"/></clipPath></defs></svg>