<svg width="70" height="51" fill="none" xmlns="http://www.w3.org/2000/svg"><path d="M57.268 25.585c-.347.372-.693.746-1.043 1.116-.11.116-.214.243-.382.282-.316-.332-.643-.35-.981-.054a10 10 0 01-.25.212c-.21.174-.52.309-.607.53-.106.274.288.448.373.717-.583.318-1.16.646-1.661 1.088-.07-.1-.165-.192-.205-.303-.137-.382-.325-.374-.671-.206-.39.19-.53.365-.256.744.053.073.066.177.098.267-.512.104-.965.368-1.455.535-1.87.635-3.793.945-5.759.844-3.457-.177-6.563-1.322-9.233-3.554-3.013-2.518-4.82-5.736-5.48-9.6a6.783 6.783 0 01-.105-1.18c.002-.352-.13-.444-.461-.426-.408.021-.817-.01-1.227-.018l-3.618.005c-.058-.006-.083.018-.068.077-.002 3.29-.004 6.579-.004 9.87 0 .091-.022.194.071.263-.123.316-.203.64.082.907.49.46.647 1.008.414 1.63-.21.562-.662.875-1.252.9-.647.027-1.112-.302-1.39-.889-.023-.048-.059-.09-.09-.134-.085-.608.038-1.145.548-1.538.13-.101.128-.229.128-.366 0-3.47-.003-6.94.004-10.41 0-.243-.06-.333-.318-.332-2.419.008-4.837.005-7.255.004-.17 0-.332-.014-.355.225-.012.122-.124.128-.222.128-.328 0-.656-.006-.984.003-.196.006-.269-.08-.266-.268.005-.41.019-.82-.003-1.229-.014-.279.093-.343.354-.34 1.38.01 2.76-.008 4.14.013.337.005.406-.103.401-.414a179.99 179.99 0 01-.003-3.524.59.59 0 00-.208-.495c-.638-.586-.657-1.483-.066-2.074a1.42 1.42 0 012.024.005c.579.58.553 1.488-.08 2.077a.56.56 0 00-.195.46 373.68 373.68 0 010 3.606c0 .211.002.357.294.356 2.623-.012 5.246-.009 7.869-.01.04 0 .08-.014.12-.02.397.001.794-.016 1.188.01.306.02.403-.098.419-.391a14.27 14.27 0 011.344-5.325c1.385-2.962 3.474-5.3 6.31-6.956C40.066.784 43.065.102 46.252.329c3.296.235 6.22 1.441 8.781 3.535 1.752 1.433 3.092 3.185 4.1 5.2.043.085.1.163.15.244-.7.391-.665.38-.526.832.13.424.333.495.696.289.08-.046.182-.055.274-.082l.535 1.912c-.479.146-.673.472-.583.979.014.08.025.16.037.24.081.536.386.799.913.79-.02.665.07 1.33-.008 1.995-.47-.001-.725.24-.764.722-.01.109-.018.217-.03.326-.054.524.168.847.665.97l-.425 1.943c-.507-.108-.852.092-1.034.6a8.652 8.652 0 01-.071.19c-.19.5-.059.875.392 1.124-.291.594-.65 1.153-.883 1.776-.258-.084-.495-.415-.71-.325-.223.094-.344.43-.51.661l-.094.134c-.15.21-.409.414-.422.633-.016.266.377.346.53.568h.002zm-5.991-.98c.166.017.24-.095.324-.18.716-.713 1.423-1.436 2.15-2.14.19-.182.181-.318.06-.525-.346-.588-.662-1.195-1.013-1.78-.163-.273-.214-.518-.039-.795a.803.803 0 00.11-.264c.077-.387.328-.55.696-.64.623-.15 1.235-.348 1.855-.512.261-.069.387-.188.383-.48a100.17 100.17 0 010-2.952c.004-.287-.1-.407-.38-.472-.504-.116-.99-.326-1.498-.415-.628-.112-1.015-.406-1.195-1.036-.079-.275-.099-.473.05-.722.362-.61.694-1.24 1.044-1.857.088-.155.131-.27-.026-.427-.738-.73-1.466-1.47-2.188-2.217-.187-.194-.35-.195-.572-.062-.444.269-.924.481-1.35.776-.514.356-.989.478-1.568.123-.24-.147-.404-.274-.477-.55-.181-.686-.395-1.363-.576-2.05-.06-.229-.175-.308-.403-.306a215.63 215.63 0 01-3.115 0c-.216-.002-.318.075-.372.284-.134.515-.33 1.017-.426 1.538-.12.645-.384 1.089-1.073 1.252-.245.058-.419.085-.642-.047-.612-.36-1.243-.688-1.858-1.043-.207-.12-.349-.132-.531.056-.724.745-1.46 1.478-2.203 2.204-.158.154-.167.272-.06.457.277.471.5.976.806 1.426.355.523.437 1.01.118 1.582-.132.235-.256.386-.52.455-.674.176-1.337.394-2.012.564-.262.065-.353.173-.35.443.015 1.01.015 2.022 0 3.033-.003.273.1.386.351.45.542.138 1.072.334 1.62.445.56.113.9.378 1.076.948.105.337.1.576-.08.872-.347.57-.65 1.17-.984 1.748-.105.18-.111.299.051.457.744.725 1.478 1.46 2.205 2.201.165.168.297.18.497.064.614-.357 1.245-.685 1.858-1.043.235-.138.438-.175.68-.028.138.084.298.139.455.184.248.072.378.222.445.476.178.686.385 1.366.57 2.051.061.224.155.345.42.34 1.024-.014 2.05-.013 3.074 0 .245.004.335-.098.39-.313.124-.476.308-.94.391-1.42.118-.689.4-1.173 1.133-1.347.227-.054.395-.092.605.031.612.36 1.237.698 1.857 1.045.083.046.17.086.237.12v-.001z" fill="#223B38" stroke="#CCEC60" stroke-width=".574" stroke-miterlimit="10"/><path d="M14.87 40.517c0 1.08 0 1.066-1.09 1.077-.309.004-.405-.08-.39-.388.025-.477.019-.956.002-1.434-.008-.255.088-.351.334-.318.027.004.055 0 .082 0 .707-.005 1.061.35 1.062 1.063zM13.389 29.94c-.001-1.07-.001-1.056 1.057-1.071.335-.005.462.081.44.43-.028.476-.013.955-.005 1.432.003.206-.07.31-.285.288-.04-.004-.082 0-.123 0-.723.009-1.084-.351-1.085-1.08zm1.491-3.522c0 1.082 0 1.068-1.089 1.082-.33.004-.425-.098-.408-.416.024-.462.02-.927.001-1.39-.01-.274.09-.365.356-.348.271.018.546.017.817 0 .256-.015.34.093.326.335-.014.244-.003.49-.002.736h-.001zm-1.49-3.529c0-1.07 0-1.055 1.058-1.073.35-.006.447.11.432.439-.022.475-.017.953-.008 1.43.003.208-.066.308-.282.283-.04-.005-.082 0-.122 0-.719.007-1.079-.353-1.079-1.08zm1.485-3.492c.018 1.057.018 1.04-1.038 1.06-.363.007-.48-.096-.455-.458.03-.462.015-.928.003-1.392-.005-.225.07-.302.305-.311 1.165-.044 1.165-.051 1.185 1.101zm-.005 14.081c0 1.084 0 1.072-1.097 1.075-.31 0-.403-.094-.39-.397.023-.49.012-.98.003-1.471-.003-.207.067-.31.283-.285.04.005.082 0 .122 0 .719-.006 1.078.353 1.078 1.077v.001zm-.01 3.529c0 1.065 0 1.054-1.066 1.063-.292.002-.421-.055-.405-.38.026-.476.014-.955-.001-1.433-.009-.24.055-.37.317-.333.013.002.027 0 .041 0 .743-.014 1.115.347 1.115 1.082v.001zm20.152 13.109H2.992c-1.57 0-2.709-.935-2.956-2.41-.268-1.6 1.003-3.158 2.638-3.182 1.776-.026 3.553-.007 5.33-.007 1.668 0 3.335-.01 5.002.007.33.003.456-.098.406-.418-.002-.013 0-.027 0-.04.005-1.17.005-1.164 1.166-1.088.213.014.289.087.282.295-.01.314.015.63-.008.942-.02.285.103.36.358.333.19-.02.381-.03.572-.03 17.098-.005 34.194-.009 51.291-.011 1.991 0 3.336 1.718 2.816 3.588-.322 1.155-1.445 2.006-2.691 2.033-.355.007-.71.001-1.066.001H35.013v-.013zm-3.99-2.08c.67 0 1.004-.332 1.002-.995 0-.055-.007-.11 0-.164.034-.244-.084-.303-.307-.295-.396.014-.795.03-1.189-.004-.387-.034-.515.075-.502.485.032.971.01.972.995.972zm11.93 0c.644 0 .966-.33.964-.988 0-.068-.006-.137 0-.204.018-.192-.059-.266-.257-.261-.437.011-.875.028-1.31-.004-.353-.026-.43.103-.425.435.018 1.021.004 1.021 1.026 1.021h.002zm-15.894 0c.668 0 1.002-.33 1-.991 0-.054-.006-.11.001-.163.034-.242-.085-.302-.306-.295-.395.013-.793.03-1.185-.004-.387-.034-.515.08-.503.485.03.968.008.969.992.969v-.001zm7.938 0c.661 0 .991-.334.99-1.002 0-.054-.005-.11 0-.163.025-.212-.063-.29-.278-.284-.422.012-.847.029-1.267-.005-.367-.03-.457.096-.45.454.024.999.007.999 1.006.999h-.001zm3.965 0c.661 0 .99-.333.99-.998 0-.027-.004-.055 0-.081.041-.274-.05-.392-.35-.372a8.262 8.262 0 01-1.184 0c-.36-.03-.465.084-.456.45.023 1.002.005 1.002 1 1.002v-.001zm8.032-.739c0-.068-.01-.138.002-.204.079-.42-.095-.537-.508-.512-.683.044-.573-.07-.585.596-.003.205 0 .41 0 .614 0 .114.008.204.154.243.664.18.936-.018.937-.696v-.041zm-22.9.024c0-.109-.013-.22.002-.327.042-.313-.06-.427-.398-.413-.693.028-.694.008-.693.694v.533c0 .119.028.197.171.23.703.161.917-.001.917-.716zm33.175-21.736c-.154-.222-.547-.302-.53-.569.014-.218.272-.422.421-.632l.095-.134c.166-.23.286-.567.51-.66.214-.09.451.24.71.324.319.254.36.559.12.914-.175.258-.371.504-.535.768-.178.292-.365.369-.624.1-.045-.047-.11-.075-.166-.111h-.001zm2.088-3.447c-.45-.25-.58-.625-.392-1.124.024-.063.049-.126.072-.19.182-.508.526-.708 1.033-.6.424.16.552.463.384.912-.1.269-.217.53-.306.803-.105.323-.274.453-.597.261-.057-.033-.128-.042-.193-.062zm1.138-3.856c-.498-.123-.72-.446-.665-.97.011-.108.02-.217.03-.326.039-.483.294-.723.764-.722.736.056.738.056.677.822-.024.297-.065.593-.095.89-.026.264-.104.442-.427.318-.084-.032-.188-.01-.283-.012zm.136-4.013c-.528.008-.832-.255-.913-.79-.012-.08-.024-.161-.038-.24-.09-.507.105-.833.584-.98.451-.058.72.147.803.616.046.266.075.536.134.8.074.327.045.563-.374.548-.065-.003-.131.03-.197.046h.001zm-6.253 14.119c-.084-.269-.478-.443-.373-.717.087-.221.398-.356.608-.53.084-.07.167-.14.249-.212.338-.296.665-.278.981.054.349.372.328.723-.063 1.05-.22.184-.462.344-.663.545-.264.262-.455.243-.624-.086-.022-.042-.077-.07-.116-.103zm-2.695 1.59c-.032-.09-.045-.193-.098-.268-.273-.378-.134-.554.256-.743.346-.168.534-.175.672.206.04.11.134.202.204.303.038.26.42.533-.115.756-.596.25-.58.291-.919-.254zm8.046-19.63c-.092.026-.193.035-.274.08-.363.207-.564.135-.696-.288-.14-.451-.174-.44.525-.832.61-.187.596-.18.854.348.151.308.145.51-.231.596-.063.015-.12.063-.179.095h.001z" fill="#CCEC60"/><path d="M51.277 24.606c-.067-.034-.154-.074-.237-.12-.62-.346-1.245-.685-1.857-1.044-.211-.123-.378-.086-.605-.032-.733.174-1.015.658-1.133 1.346-.083.482-.267.946-.39 1.421-.056.215-.145.317-.39.314a116.71 116.71 0 00-3.075 0c-.265.004-.358-.117-.42-.34-.186-.686-.392-1.365-.57-2.052-.066-.254-.197-.404-.445-.476a1.88 1.88 0 01-.455-.184c-.24-.147-.445-.11-.68.028-.613.359-1.244.687-1.858 1.044-.2.116-.332.104-.497-.064a132.639 132.639 0 00-2.205-2.201c-.162-.159-.156-.277-.052-.457.335-.58.638-1.178.986-1.75.18-.295.184-.534.08-.871-.177-.569-.516-.835-1.078-.948-.547-.11-1.076-.306-1.62-.444-.25-.064-.354-.178-.35-.45a98.986 98.986 0 000-3.034c-.004-.271.088-.378.35-.443.675-.17 1.338-.388 2.011-.564.265-.069.39-.22.52-.454.32-.572.238-1.06-.117-1.583-.306-.45-.529-.955-.805-1.426-.108-.184-.1-.302.059-.457.742-.726 1.479-1.459 2.202-2.204.183-.188.325-.176.532-.056.614.356 1.246.683 1.858 1.043.223.131.397.104.642.047.689-.162.953-.607 1.073-1.252.096-.52.291-1.023.426-1.538.054-.21.157-.285.372-.284 1.038.008 2.077.008 3.115 0 .227-.001.343.077.403.306.181.687.395 1.364.576 2.051.073.276.237.402.477.549.58.355 1.054.234 1.569-.123.425-.295.905-.507 1.35-.775.221-.135.383-.133.571.061.722.747 1.45 1.487 2.188 2.217.157.156.114.272.026.427-.35.618-.68 1.247-1.044 1.857-.148.25-.128.448-.05.722.18.63.567.925 1.195 1.036.508.09.994.299 1.499.415.28.065.383.186.379.472a100.17 100.17 0 000 2.952c.005.292-.122.411-.383.48-.62.163-1.232.363-1.855.513-.368.088-.62.252-.696.639a.788.788 0 01-.11.264c-.175.277-.125.523.039.795.352.585.667 1.192 1.013 1.78.121.207.129.343-.06.526-.727.703-1.434 1.426-2.15 2.14-.084.085-.157.196-.324.18zm-6.11-14.28c-2.992-.025-5.48 2.403-5.568 5.318-.086 2.836 2.12 5.638 5.437 5.7 3.053.055 5.523-2.394 5.61-5.401.09-3.052-2.551-5.723-5.48-5.618z" fill="#223B38"/><path d="M24.343 16.584l-.068.077c-.015-.06.01-.083.068-.077z" fill="#ADB4EA"/><path d="M31.021 48.036c-.986 0-.963 0-.995-.973-.014-.41.116-.518.503-.484.394.034.793.018 1.189.004.223-.008.341.05.308.294-.008.054-.001.11-.001.164.001.664-.333.995-1.003.995zm11.931 0c-1.023 0-1.009 0-1.026-1.02-.006-.333.07-.462.425-.436.434.032.873.015 1.31.004.198-.005.275.068.257.26-.007.068-.001.137 0 .205.002.658-.32.988-.965.988l-.002-.001zm-15.894 0c-.984 0-.962 0-.992-.97-.012-.404.117-.517.503-.484.392.034.79.017 1.184.004.222-.007.34.053.307.295-.007.053 0 .109 0 .163.001.661-.333.991-1.001.99l-.001.002zm7.938 0c-.998 0-.982 0-1.005-1-.008-.357.082-.483.45-.453.42.034.844.017 1.266.005.215-.007.304.072.279.284-.006.054 0 .109 0 .163 0 .668-.33 1.002-.99 1.002v-.001zm3.965 0c-.994 0-.977 0-1-1.004-.008-.365.096-.479.456-.45a7.8 7.8 0 001.184 0c.3-.019.392.1.35.373-.004.027 0 .055 0 .082.002.665-.328.997-.989.997v.002zm8.032-.739v.041c0 .679-.274.877-.937.697-.146-.04-.153-.13-.154-.243 0-.205-.003-.41 0-.614.01-.666-.1-.553.585-.596.413-.026.587.091.508.512-.012.066-.002.136-.002.204zm-22.901.024c0 .715-.214.877-.917.716-.142-.033-.171-.111-.171-.23v-.532c0-.687 0-.666.693-.694.338-.015.44.1.398.412-.015.108-.003.218-.003.327v.001z" fill="#223B38"/><path d="M45.166 10.325c2.929-.106 5.57 2.566 5.481 5.618-.089 3.007-2.558 5.456-5.611 5.4-3.317-.06-5.523-2.862-5.437-5.7.088-2.914 2.577-5.342 5.567-5.318z" fill="#CCEC60"/></svg>