<svg width="62" height="60" fill="none" xmlns="http://www.w3.org/2000/svg"><path d="M61.608 25.31c.002 10.618.007 21.235.004 31.853 0 1.288-.788 2.044-2.082 2.044-18.895 0-37.79 0-56.685-.002-1.426 0-2.179-.746-2.18-2.185-.003-10.562 0-21.125 0-31.687.22-.015.44-.045.659-.045 19.855-.002 39.71-.002 59.565-.001.239 0 .478.015.717.024l.002-.001zm-35.926 5.943v.732c0 6.947 0 13.893.005 20.84 0 .25-.133.605.078.728.249.145.491-.168.703-.311 3.396-2.296 6.781-4.609 10.172-6.913 1.689-1.147 3.388-2.28 5.073-3.431.554-.379.541-.424.008-.787-3.576-2.424-7.151-4.849-10.73-7.271-1.732-1.173-3.467-2.343-5.31-3.587z" fill="#223B38" stroke="#CCEC60" stroke-width=".775" stroke-miterlimit="10"/><path d="M61.608 25.31c-.239-.009-.478-.024-.717-.024H1.326c-.22 0-.44.03-.659.046-.035-.495-.064-.988.018-1.482.4.153.569-.156.754-.395.864-1.115 1.742-2.223 2.567-3.367.402-.557.949-1.024 1.159-1.713 2.928-.024 5.856-.063 8.785.02l-3.73 4.92c-.108.143-.306.285-.233.469.084.21.325.105.495.106 2.136.006 4.274-.017 6.408.018.528.009.862-.18 1.157-.571a1137.3 1137.3 0 013.438-4.522c.102-.134.22-.254.166-.442 2.84-.004 5.68-.01 8.518-.012.09 0 .18.029.27.044-1.252 1.656-2.507 3.31-3.753 4.972-.092.122-.285.249-.205.42.083.178.295.093.45.093 2.191.005 4.383-.007 6.574.011.433.003.721-.137.978-.48 1.128-1.496 2.278-2.978 3.411-4.472.125-.165.331-.318.245-.581l8.447-.014c.11 0 .223 0 .308.089-.098.155-.184.318-.294.462-1.142 1.51-2.288 3.017-3.431 4.526-.084.112-.27.206-.2.36.083.188.292.097.445.098 2.247.006 4.493-.003 6.739.011.352.002.583-.114.789-.39.791-1.06 1.617-2.096 2.39-3.17.467-.65 1.08-1.2 1.393-1.962 2.166-.01 4.333-.012 6.5-.031.336-.004.396.155.392.439-.011.735-.003 1.469-.003 2.203-.796.765-1.385 1.698-2.04 2.575-.216.288.057.326.271.326.587 0 1.175-.009 1.761-.014l.002 1.432v.002z" fill="#CCEC60"/><path d="M5.165 18.378c-.21.688-.757 1.154-1.159 1.712-.825 1.144-1.703 2.25-2.567 3.367-.185.24-.354.548-.754.395-.004-.92-.043-1.843-.006-2.763.102-2.499-.22-4.964-.53-7.431-.207-1.648.435-2.543 2.074-2.845 2.427-.447 4.852-.908 7.278-1.36.18-.034.364-.043.546-.063-.923 1.604-1.853 3.204-2.766 4.813-.605 1.067-1.312 2.076-1.805 3.206-1.075.392-2.218.455-3.321.71-.09.02-.18.033-.27.048-.276-.064-.502.057-.732.182.24.095.472.16.705.014l3.31.015h-.003z" fill="#223B38" stroke="#CCEC60" stroke-width=".221" stroke-miterlimit="10"/><path d="M30.683 12.711c-1.166.373-2.387.492-3.58.743-1.5.318-3.015.563-4.522.849-.2.037-.395.073-.597.035.034-.084.056-.175.101-.252 1.081-1.854 2.177-3.7 3.243-5.562.424-.742.975-1.418 1.21-2.261 1.896-.36 3.792-.724 5.689-1.078 1.02-.19 2.034-.427 3.07-.531-.86 1.491-1.727 2.978-2.573 4.477-.675 1.195-1.457 2.33-2.039 3.58h-.002zm12.448-9.544c1.9-.362 3.8-.732 5.702-1.08.986-.182 1.96-.438 2.967-.494-.047.118-.078.245-.14.354-1.072 1.838-2.16 3.666-3.214 5.513-.412.724-.956 1.381-1.185 2.206-2.753.519-5.508 1.036-8.26 1.558a.916.916 0 01-.435 0c.029-.086.042-.183.086-.259 1.171-2.003 2.356-3.997 3.51-6.01.336-.587.769-1.126.97-1.787h-.001zM5.475 17.408c.493-1.129 1.2-2.139 1.805-3.206.914-1.609 1.844-3.21 2.766-4.813.833-.28 1.708-.357 2.564-.527 1.939-.385 3.889-.721 5.834-1.074.088-.016.18-.004.27-.005-1.043 1.81-2.105 3.61-3.125 5.434-.49.876-1.123 1.673-1.446 2.64-2.782.53-5.563 1.062-8.346 1.587-.102.018-.215-.021-.322-.035z" fill="#CCEC60"/><path d="M47.259 9.665c.229-.824.772-1.481 1.185-2.206 1.054-1.848 2.143-3.675 3.213-5.513.063-.109.095-.236.14-.355.905-.337 1.867-.401 2.804-.593C56.063.698 57.532.442 59 .173c.197-.037.4-.037.6-.055.044.245-.113.414-.222.604L55.075 8.16c-1.67.418-3.376.656-5.063.992-.915.183-1.836.342-2.753.512v0zm-33.115 6.19c.322-.967.956-1.765 1.445-2.64 1.02-1.823 2.08-3.623 3.125-5.434.855-.289 1.752-.38 2.632-.55 1.729-.335 3.46-.647 5.191-.97-.235.843-.787 1.52-1.21 2.262-1.066 1.862-2.162 3.708-3.243 5.562-.045.077-.067.168-.1.252-.961.329-1.972.424-2.961.615-1.624.315-3.253.603-4.88.901v.002zM43.13 3.167c-.2.661-.633 1.199-.97 1.787-1.153 2.013-2.34 4.007-3.509 6.01-.045.077-.059.173-.086.259-2.08.549-4.215.829-6.32 1.25-.516.103-1.016.325-1.562.24.582-1.249 1.363-2.384 2.038-3.58.847-1.498 1.715-2.985 2.573-4.477 1.696-.42 3.426-.666 5.138-1.004.896-.176 1.8-.324 2.699-.485zM21.651 18.373c.053.188-.064.308-.166.442a1253.327 1253.327 0 00-3.438 4.522c-.295.39-.629.58-1.157.57-2.136-.034-4.272-.01-6.408-.017-.17 0-.411.104-.495-.106-.073-.183.125-.324.233-.468l3.73-4.92 7.7-.024.001.001zm16.488-.004c.086.263-.12.415-.245.58-1.133 1.495-2.282 2.977-3.41 4.474-.258.34-.547.483-.98.48-2.19-.018-4.381-.007-6.573-.012-.154 0-.367.085-.45-.093-.08-.171.113-.296.204-.42 1.247-1.662 2.502-3.316 3.754-4.972 1.521-.012 3.043-.027 4.563-.035 1.046-.005 2.09 0 3.137 0v-.002zm16.586.01c-.313.761-.926 1.311-1.394 1.962-.771 1.075-1.598 2.11-2.39 3.17-.205.276-.436.392-.788.39-2.247-.014-4.493-.005-6.739-.01-.153 0-.363.089-.446-.098-.07-.156.116-.25.2-.361 1.144-1.51 2.29-3.016 3.432-4.525.11-.145.196-.308.294-.463.38-.097.767-.075 1.153-.075 2.227.002 4.452.006 6.679.01h-.001z" fill="#223B38" stroke="#CCEC60" stroke-width=".221" stroke-miterlimit="10"/><path d="M55.077 8.16L59.379.722c.11-.189.267-.359.223-.604 1.031.2 1.527.683 1.654 1.697.2 1.581.364 3.167.557 4.75.059.485-.332.427-.576.475-1.6.316-3.205.61-4.81.905-.447.082-.88.277-1.352.213l.002.002z" fill="#CCEC60"/><path d="M61.606 23.878c-.587.006-1.174.013-1.76.014-.216 0-.489-.037-.272-.326.655-.877 1.243-1.808 2.04-2.574l-.007 2.885h0z" fill="#223B38" stroke="#CCEC60" stroke-width=".221" stroke-miterlimit="10"/><path d="M25.682 31.253c1.842 1.244 3.578 2.414 5.31 3.587l10.729 7.27c.535.362.546.409-.008.787-1.685 1.153-3.384 2.285-5.073 3.432-3.39 2.304-6.776 4.617-10.172 6.913-.212.142-.454.456-.703.31-.212-.122-.078-.477-.078-.728-.005-6.946-.004-13.892-.005-20.838v-.733z" fill="#CCEC60"/><path d="M32.325 57.827c-.345 0-.692.016-1.036-.005-.407-.025-.82-.044-1.207-.186a1.045 1.045 0 01-.65-.68c-.173-.52-.354-1.04-.497-1.57-.06-.223-.189-.279-.376-.342a22.737 22.737 0 01-1.526-.56c-.402-.168-.785-.38-1.174-.578a.164.164 0 00-.168 0c-.366.19-.73.382-1.1.566-.24.12-.48.255-.735.341-.31.105-.616.04-.888-.142-.762-.508-1.409-1.148-2.023-1.82a11.24 11.24 0 01-.868-1.077c-.248-.348-.253-.743-.065-1.124.26-.524.537-1.04.81-1.557.043-.084.049-.156 0-.244a11.744 11.744 0 01-.874-1.899 18.44 18.44 0 01-.302-.934c-.027-.087-.068-.134-.155-.161-.588-.185-1.178-.363-1.758-.568-.374-.133-.603-.416-.68-.811-.186-.949-.19-1.907-.144-2.867.015-.34.06-.68.103-1.019.072-.57.362-.926.926-1.09.531-.154 1.055-.333 1.582-.5.07-.021.102-.062.12-.129.28-1.001.67-1.957 1.186-2.863.04-.072.047-.135.005-.213-.261-.496-.513-.995-.773-1.491-.244-.463-.22-.9.09-1.328.595-.822 1.308-1.533 2.07-2.197.212-.185.437-.356.663-.524.417-.31.853-.323 1.309-.079.499.268 1.004.528 1.51.785a.204.204 0 00.164-.006 13 13 0 012.028-.923c.272-.096.549-.18.826-.259a.242.242 0 00.188-.186c.094-.317.194-.632.294-.948.074-.235.148-.47.226-.704.152-.463.484-.71.954-.79.972-.166 1.953-.153 2.932-.107.33.015.66.061.986.117.52.09.812.423.957.917.135.463.288.921.433 1.38.01.03.026.06.028.091.012.165.122.208.263.249.328.094.652.204.973.32.58.211 1.143.465 1.677.776.167.097.288.087.45-.001a33.24 33.24 0 011.532-.787c.365-.175.736-.129 1.065.104.293.207.58.426.848.664a14.116 14.116 0 011.681 1.74c.18.224.378.442.466.724.092.291.092.587-.047.864a74.534 74.534 0 01-.785 1.51c-.072.133-.07.23 0 .373.265.525.52 1.056.745 1.598.161.389.273.8.404 1.201.02.063.053.1.117.12.396.123.793.247 1.188.378.25.083.507.155.743.268.296.141.47.4.533.723.187.965.206 1.94.14 2.917a20.72 20.72 0 01-.093.978c-.04.343-.155.655-.447.865a1.435 1.435 0 01-.382.196c-.564.188-1.133.363-1.698.548a.165.165 0 00-.093.097 12.03 12.03 0 01-1.1 2.705c-.129.227-.118.386.003.6.258.457.5.923.725 1.398.176.373.161.755-.074 1.107-.47.702-1.054 1.304-1.667 1.879-.319.297-.66.573-.996.852-.28.231-.591.383-.97.338-.219-.025-.408-.127-.598-.226-.463-.24-.925-.48-1.391-.716a.196.196 0 00-.154.003c-.37.18-.734.376-1.107.549-.573.264-1.169.472-1.777.64-.092.025-.135.077-.16.159-.18.574-.348 1.153-.544 1.722-.137.4-.438.636-.855.721-.661.134-1.33.139-2.001.126l-.005.002zm9.7-15.359a9.705 9.705 0 00-9.641-9.754c-5.433-.039-9.766 4.35-9.79 9.679-.024 5.336 4.322 9.75 9.705 9.758 5.324.007 9.718-4.321 9.725-9.683z" fill="#223B38" stroke="#CCEC60" stroke-width=".775" stroke-miterlimit="10"/></svg>