<svg width="154" height="214" fill="none" xmlns="http://www.w3.org/2000/svg"><rect x=".421" y=".421" width="152.36" height="212.79" rx="19.579" fill="url(#paint0_linear_2022_105)" fill-opacity=".53" stroke="url(#paint1_linear_2022_105)" stroke-width=".842"/><mask id="a" style="mask-type:alpha" maskUnits="userSpaceOnUse" x="0" y="0" width="154" height="214"><rect x=".421" y=".421" width="152.36" height="212.79" rx="19.579" fill="url(#paint2_linear_2022_105)" fill-opacity=".53" stroke="url(#paint3_linear_2022_105)" stroke-width=".842"/></mask><g filter="url(#filter0_f_2022_105)" mask="url(#a)"><path d="M10 236.955c-5.136 0-9.511-1.398-13.125-4.194-3.614-2.818-6.375-6.897-8.284-12.238-1.91-5.364-2.864-11.841-2.864-19.432 0-7.546.955-13.989 2.864-19.33 1.932-5.363 4.704-9.454 8.318-12.272 3.636-2.841 8-4.262 13.091-4.262 5.09 0 9.443 1.421 13.057 4.262 3.636 2.818 6.409 6.909 8.318 12.272 1.932 5.341 2.898 11.784 2.898 19.33 0 7.591-.955 14.068-2.864 19.432-1.909 5.341-4.67 9.42-8.284 12.238-3.614 2.796-7.989 4.194-13.125 4.194zm0-7.5c5.09 0 9.046-2.455 11.864-7.364 2.818-4.909 4.227-11.909 4.227-21 0-6.046-.648-11.193-1.943-15.443-1.273-4.25-3.114-7.489-5.523-9.716-2.386-2.227-5.261-3.341-8.625-3.341-5.045 0-8.989 2.489-11.83 7.466-2.84 4.954-4.26 11.966-4.26 21.034 0 6.045.635 11.182 1.908 15.409s3.102 7.443 5.489 9.648c2.409 2.204 5.307 3.307 8.693 3.307zm61.773-63.273V236h-8.455v-60.955h-.409l-17.045 11.319v-8.591l17.454-11.591h8.455z" fill="#CCEC60"/></g><mask id="b" style="mask-type:alpha" maskUnits="userSpaceOnUse" x="0" y="0" width="153" height="176"><rect x=".494" y=".494" width="152.011" height="175.011" rx="19.506" fill="url(#paint4_linear_2022_105)" fill-opacity=".53" stroke="url(#paint5_linear_2022_105)" stroke-width=".989"/></mask><g mask="url(#b)"><path fill="#C9D9CD" d="M0 0h153.038v52H0z"/></g><path d="M12.9 70.1c-.453 0-.853-.08-1.2-.24a2.036 2.036 0 01-.83-.68 2.037 2.037 0 01-.34-1.03h.9c.04.353.193.633.46.84.267.207.603.31 1.01.31.453 0 .81-.12 1.07-.36.267-.24.4-.553.4-.94 0-.393-.133-.707-.4-.94-.267-.24-.623-.36-1.07-.36H12v-.82h.89c.407 0 .733-.127.98-.38s.37-.563.37-.93c0-.373-.123-.66-.37-.86-.24-.207-.567-.31-.98-.31-.407 0-.733.117-.98.35-.247.227-.37.527-.37.9h-.9c0-.413.093-.773.28-1.08.187-.307.447-.543.78-.71.34-.173.737-.26 1.19-.26.7 0 1.257.16 1.67.48.413.32.62.777.62 1.37 0 .333-.073.633-.22.9-.14.26-.343.463-.61.61-.26.147-.57.217-.93.21v-.15c.387-.007.72.07 1 .23.287.153.507.377.66.67.16.287.24.627.24 1.02 0 .42-.1.793-.3 1.12-.193.32-.473.573-.84.76-.36.187-.787.28-1.28.28zm5.616 0c-.58 0-1.037-.147-1.37-.44-.333-.3-.5-.703-.5-1.21 0-.513.167-.917.5-1.21.333-.293.783-.44 1.35-.44h1.7v-.55c0-.34-.103-.6-.31-.78-.2-.187-.487-.28-.86-.28-.327 0-.6.07-.82.21a.747.747 0 00-.38.55h-.9c.06-.473.283-.85.67-1.13.387-.28.87-.42 1.45-.42.633 0 1.133.163 1.5.49.367.327.55.77.55 1.33V70h-.88v-1.05h-.15l.15-.15c0 .4-.157.717-.47.95-.307.233-.717.35-1.23.35zm.22-.71c.427 0 .777-.107 1.05-.32a.996.996 0 00.41-.82v-.78h-1.68c-.3 0-.537.083-.71.25-.173.167-.26.393-.26.68 0 .307.103.55.31.73.213.173.507.26.88.26zm10.222.61v-5.5h.9v2.27h.94l1.6-2.27h1.03l-1.85 2.62 1.88 2.88h-1.05l-1.6-2.45h-.95V70h-.9zm7.546.1c-.58 0-1.036-.147-1.37-.44-.333-.3-.5-.703-.5-1.21 0-.513.167-.917.5-1.21.334-.293.784-.44 1.35-.44h1.7v-.55c0-.34-.103-.6-.31-.78-.2-.187-.486-.28-.86-.28-.326 0-.6.07-.82.21a.747.747 0 00-.38.55h-.9c.06-.473.284-.85.67-1.13.387-.28.87-.42 1.45-.42.634 0 1.134.163 1.5.49.367.327.55.77.55 1.33V70h-.88v-1.05h-.15l.15-.15c0 .4-.156.717-.47.95-.306.233-.716.35-1.23.35zm.22-.71c.427 0 .777-.107 1.05-.32a.996.996 0 00.41-.82v-.78h-1.68c-.3 0-.536.083-.71.25-.173.167-.26.393-.26.68 0 .307.104.55.31.73.214.173.507.26.88.26zm3.437.61l1.2-2.82-1.12-2.68h.87l.96 2.4h.53v-2.4h.76v2.4h.51l.99-2.4h.86l-1.12 2.65L45.8 70h-.9l-1-2.5h-.54V70h-.76v-2.5h-.54L41.05 70h-.89zm6.116 1.4v-2.17h.45c.113-.113.23-.337.35-.67.126-.333.193-.757.2-1.27l.06-2.79h3.59v4.73h.7v2.17h-.8V70h-3.75v1.4h-.8zm1.4-2.17h2.35V65.3h-1.84l-.04 2.01c-.007.527-.064.953-.17 1.28-.107.327-.207.54-.3.64zm6.076 2.57l.81-2.14-2.04-5.16h1l1.28 3.4c.046.113.09.25.13.41l.1.39c.026-.107.06-.237.1-.39.04-.16.08-.297.12-.41l1.2-3.4h.97l-2.71 7.3h-.96zm8.076-1.7c-.46 0-.83-.157-1.11-.47-.28-.313-.42-.723-.42-1.23v-.83h-.88V70h-.83v-5.5h.83v2.35h.88v-.75c0-.513.136-.923.41-1.23.28-.313.653-.47 1.12-.47.493 0 .89.157 1.19.47.3.307.45.717.45 1.23v2.3c0 .507-.15.917-.45 1.23-.3.313-.697.47-1.19.47zm0-.7c.253 0 .45-.087.59-.26.146-.18.22-.427.22-.74v-2.3c0-.313-.074-.557-.22-.73-.14-.18-.337-.27-.59-.27-.247 0-.44.09-.58.27-.14.173-.21.417-.21.73v2.3c0 .313.07.56.21.74.14.173.333.26.58.26zm9.072.6v-5.5h4.12V70h-.9v-4.68H71.8V70h-.9zm8.056.08c-.44 0-.82-.083-1.14-.25a1.815 1.815 0 01-.75-.72c-.173-.32-.26-.697-.26-1.13v-1.46c0-.44.087-.817.26-1.13.18-.313.43-.553.75-.72.32-.167.7-.25 1.14-.25.44 0 .82.083 1.14.25.32.167.567.407.74.72.18.313.27.687.27 1.12v1.47c0 .433-.09.81-.27 1.13-.173.313-.42.553-.74.72-.32.167-.7.25-1.14.25zm0-.8c.393 0 .7-.11.92-.33.22-.22.33-.543.33-.97v-1.46c0-.427-.11-.75-.33-.97-.22-.22-.527-.33-.92-.33-.387 0-.693.11-.92.33-.22.22-.33.543-.33.97v1.46c0 .427.11.75.33.97.227.22.533.33.92.33zm3.966.72v-5.5h.9v2.27h.94l1.6-2.27h1.03l-1.85 2.62 1.88 2.88h-1.05l-1.6-2.45h-.95V70h-.9zm6.806 1.8l.81-2.14-2.04-5.16h1l1.28 3.4c.047.113.09.25.13.41.04.153.074.283.1.39l.1-.39c.04-.16.08-.297.12-.41l1.2-3.4h.97l-2.71 7.3h-.96zm5.156-1.8v-5.5h4.12V70h-.9v-4.68h-2.32V70h-.9zm6.026 0v-5.5h.9v2.27h.94l1.6-2.27h1.03l-1.85 2.62 1.88 2.88h-1.05l-1.6-2.45h-.95V70h-.9zm6.807 1.8l.81-2.14-2.04-5.16h1l1.28 3.4c.046.113.09.25.13.41l.1.39c.026-.107.06-.237.1-.39.04-.16.08-.297.12-.41l1.2-3.4h.97l-2.71 7.3h-.96zM118.87 70v-5.5h.86v3c0 .193-.007.397-.02.61a8.72 8.72 0 01-.04.61 6.67 6.67 0 01-.05.48l2.22-4.7h1.15V70h-.86v-3c0-.193.003-.397.01-.61.013-.213.03-.417.05-.61.02-.2.036-.363.05-.49L120.02 70h-1.15zm5.306.07v-.84h.18c.306 0 .52-.12.64-.36.126-.24.193-.67.2-1.29l.06-3.08h3.73V70h-.9v-4.68h-1.94l-.05 2.3c-.014.58-.08 1.05-.2 1.41-.114.36-.294.623-.54.79-.24.167-.557.25-.95.25h-.23zm6.686-.07v-5.5h.86v3c0 .193-.007.397-.02.61a8.72 8.72 0 01-.04.61c-.013.187-.03.347-.05.48l2.22-4.7h1.15V70h-.86v-3c0-.193.003-.397.01-.61.013-.213.03-.417.05-.61l.05-.49-2.22 4.71h-1.15zM10.3 84.4v-2.17h.45c.113-.113.23-.337.35-.67.127-.333.193-.757.2-1.27l.06-2.79h3.59v4.73h.7v2.17h-.8V83H11.1v1.4h-.8zm1.4-2.17h2.35V78.3h-1.84l-.04 2.01c-.007.527-.063.953-.17 1.28-.107.327-.207.54-.3.64zm7.296.87c-.433 0-.813-.087-1.14-.26a1.881 1.881 0 01-.75-.73c-.173-.32-.26-.69-.26-1.11v-1.5c0-.427.087-.797.26-1.11.18-.313.43-.557.75-.73.327-.173.707-.26 1.14-.26.433 0 .81.087 1.13.26a1.8 1.8 0 01.75.73c.18.313.27.683.27 1.11v.97h-3.42V81c0 .433.11.767.33 1 .22.227.533.34.94.34.347 0 .627-.06.84-.18a.795.795 0 00.39-.56h.9c-.06.46-.287.827-.68 1.1-.387.267-.87.4-1.45.4zm1.27-3.23v-.37c0-.433-.11-.767-.33-1-.213-.233-.527-.35-.94-.35-.407 0-.72.117-.94.35-.22.233-.33.567-.33 1v.29h2.61l-.07.08zM22.932 83v-5.5h.86v3c0 .193-.007.397-.02.61-.006.213-.02.417-.04.61-.013.187-.03.347-.05.48l2.22-4.7h1.15V83h-.86v-3c0-.193.003-.397.01-.61.013-.213.03-.417.05-.61l.05-.49-2.22 4.71h-1.15zm2.1-6.4c-.48 0-.866-.133-1.16-.4-.293-.267-.44-.617-.44-1.05h.71c0 .26.08.47.24.63.16.16.373.24.64.24.274 0 .49-.08.65-.24.167-.16.25-.37.25-.63h.71c0 .433-.147.783-.44 1.05-.293.267-.68.4-1.16.4zm5.976 6.5a2.56 2.56 0 01-1.16-.25 1.801 1.801 0 01-.76-.72c-.18-.32-.27-.697-.27-1.13v-1.5c0-.44.09-.817.27-1.13.18-.313.434-.553.76-.72a2.56 2.56 0 011.16-.25c.634 0 1.144.17 1.53.51.387.34.59.803.61 1.39h-.9c-.02-.353-.14-.623-.36-.81-.213-.193-.506-.29-.88-.29-.393 0-.706.113-.94.34-.233.22-.35.537-.35.95V81c0 .413.117.733.35.96.234.227.547.34.94.34.374 0 .667-.097.88-.29.22-.193.34-.463.36-.81h.9c-.02.587-.223 1.05-.61 1.39-.386.34-.896.51-1.53.51zm5.526-.1v-4.71h-2v-.79h4.9v.79h-2V83h-.9zm4.386 0v-5.5h2.38c.574 0 1.017.13 1.33.39.314.253.47.61.47 1.07 0 .38-.13.687-.39.92-.26.227-.603.34-1.03.34v-.08c.467 0 .84.117 1.12.35.287.233.43.547.43.94 0 .493-.166.88-.5 1.16-.333.273-.8.41-1.4.41h-2.41zm.88-.79h1.53c.32 0 .567-.07.74-.21.18-.14.27-.337.27-.59 0-.26-.09-.46-.27-.6-.173-.14-.42-.21-.74-.21H41.8v1.61zm0-2.39h1.5c.28 0 .5-.067.66-.2.167-.133.25-.32.25-.56 0-.24-.08-.427-.24-.56-.16-.14-.383-.21-.67-.21h-1.5v1.53zM46.917 83v-5.5h.86v3c0 .193-.007.397-.02.61a8.72 8.72 0 01-.04.61 6.67 6.67 0 01-.05.48l2.22-4.7h1.15V83h-.86v-3c0-.193.003-.397.01-.61.013-.213.03-.417.05-.61.02-.2.036-.363.05-.49L48.067 83h-1.15zm8.056.1c-.434 0-.814-.087-1.14-.26a1.881 1.881 0 01-.75-.73c-.174-.32-.26-.69-.26-1.11v-1.5c0-.427.086-.797.26-1.11.18-.313.43-.557.75-.73.326-.173.706-.26 1.14-.26.433 0 .81.087 1.13.26.326.173.576.417.75.73.18.313.27.683.27 1.11v.97h-3.42V81c0 .433.11.767.33 1 .22.227.533.34.94.34.346 0 .626-.06.84-.18a.795.795 0 00.39-.56h.9c-.06.46-.287.827-.68 1.1-.387.267-.87.4-1.45.4zm1.27-3.23v-.37c0-.433-.11-.767-.33-1-.214-.233-.527-.35-.94-.35-.407 0-.72.117-.94.35-.22.233-.33.567-.33 1v.29h2.61l-.07.08zm12.572 4.33c-.947-.233-1.683-.693-2.21-1.38-.527-.687-.79-1.527-.79-2.52v-1.8c0-.653.12-1.243.36-1.77a3.771 3.771 0 011.04-1.35 4.08 4.08 0 011.6-.78v.85a2.44 2.44 0 00-1.11.58c-.314.28-.557.63-.73 1.05-.173.42-.26.893-.26 1.42v1.8c0 .513.083.98.25 1.4.173.42.416.77.73 1.05.32.273.693.46 1.12.56v.89zm4.146-1.12c-.44 0-.82-.083-1.14-.25a1.815 1.815 0 01-.75-.72c-.173-.32-.26-.697-.26-1.13v-1.46c0-.44.087-.817.26-1.13.18-.313.43-.553.75-.72.32-.167.7-.25 1.14-.25.44 0 .82.083 1.14.25.32.167.567.407.74.72.18.313.27.687.27 1.12v1.47c0 .433-.09.81-.27 1.13-.173.313-.42.553-.74.72-.32.167-.7.25-1.14.25zm0-.8c.393 0 .7-.11.92-.33.22-.22.33-.543.33-.97v-1.46c0-.427-.11-.75-.33-.97-.22-.22-.527-.33-.92-.33-.387 0-.693.11-.92.33-.22.22-.33.543-.33.97v1.46c0 .427.11.75.33.97.227.22.533.33.92.33zm5.546.72v-4.71h-2v-.79h4.9v.79h-2V83h-.9zm6.186.07c-.58 0-1.056-.123-1.43-.37a1.47 1.47 0 01-.66-1h.95c.047.167.17.303.37.41.207.107.463.16.77.16h.47c.327 0 .58-.077.76-.23a.74.74 0 00.28-.6c0-.267-.09-.477-.27-.63-.173-.153-.43-.23-.77-.23h-1.21v-.78h1.18c.307 0 .54-.073.7-.22a.75.75 0 00.24-.58.757.757 0 00-.11-.42.636.636 0 00-.31-.26c-.14-.06-.31-.09-.51-.09h-.5c-.267 0-.496.06-.69.18-.193.12-.31.267-.35.44h-.95c.067-.413.283-.753.65-1.02.367-.267.814-.4 1.34-.4h.5c.394 0 .73.063 1.01.19.28.12.493.293.64.52.153.227.23.497.23.81 0 .327-.106.597-.32.81-.213.207-.513.323-.9.35v.04c.474.033.817.16 1.03.38.213.22.32.537.32.95 0 .487-.18.873-.54 1.16-.36.287-.843.43-1.45.43h-.47zM88.6 83v-5.5h.84v2.02h.45c.594 0 1.06.157 1.4.47.347.307.52.73.52 1.27s-.173.967-.52 1.28c-.34.307-.806.46-1.4.46H88.6zm.84-.72h.45c.354 0 .627-.09.82-.27.2-.18.3-.43.3-.75s-.1-.57-.3-.75c-.193-.18-.466-.27-.82-.27h-.45v2.04zm3.02.72v-5.5h.84V83h-.84zm2.426 0v-5.5h2.38c.574 0 1.017.13 1.33.39.314.253.47.61.47 1.07 0 .38-.13.687-.39.92-.26.227-.603.34-1.03.34v-.08c.467 0 .84.117 1.12.35.287.233.43.547.43.94 0 .493-.166.88-.5 1.16-.333.273-.8.41-1.4.41h-2.41zm.88-.79h1.53c.32 0 .567-.07.74-.21.18-.14.27-.337.27-.59 0-.26-.09-.46-.27-.6-.173-.14-.42-.21-.74-.21h-1.53v1.61zm0-2.39h1.5c.28 0 .5-.067.66-.2.167-.133.25-.32.25-.56 0-.24-.08-.427-.24-.56-.16-.14-.383-.21-.67-.21h-1.5v1.53zm5.826 4.78l.8-3.11h1.3l-1.3 3.11h-.8zM10.94 96v-5.5h4.12V96h-.9v-4.68h-2.32V96h-.9zm5.976 1.8v-7.3h.9v1.05h.18l-.18.21c0-.42.137-.75.41-.99.28-.247.647-.37 1.1-.37.553 0 .993.183 1.32.55.333.36.5.857.5 1.49v1.61c0 .42-.077.783-.23 1.09a1.636 1.636 0 01-.63.71c-.267.167-.587.25-.96.25-.447 0-.81-.123-1.09-.37s-.42-.577-.42-.99l.18.21h-.2l.02 1.25v1.6h-.9zm2.11-2.48c.38 0 .677-.113.89-.34.22-.227.33-.553.33-.98v-1.5c0-.427-.11-.753-.33-.98-.213-.227-.51-.34-.89-.34-.367 0-.66.117-.88.35-.22.233-.33.557-.33.97V94c0 .413.11.737.33.97.22.233.513.35.88.35zm3.906.68v-5.5h.86v3c0 .193-.007.397-.02.61-.006.213-.02.417-.04.61-.013.187-.03.347-.05.48l2.22-4.7h1.15V96h-.86v-3c0-.193.003-.397.01-.61.013-.213.03-.417.05-.61l.05-.49-2.22 4.71h-1.15zm6.356 0v-5.5h3.95v.82h-3.05V96h-.9zm4.946.07v-.84h.18c.307 0 .52-.12.64-.36.127-.24.194-.67.2-1.29l.06-3.08h3.73V96h-.9v-4.68h-1.94l-.05 2.3c-.013.58-.08 1.05-.2 1.41-.113.36-.293.623-.54.79-.24.167-.556.25-.95.25h-.23zm8.267.03c-.58 0-1.037-.147-1.37-.44-.334-.3-.5-.703-.5-1.21 0-.513.166-.917.5-1.21.333-.293.783-.44 1.35-.44h1.7v-.55c0-.34-.104-.6-.31-.78-.2-.187-.487-.28-.86-.28-.327 0-.6.07-.82.21a.747.747 0 00-.38.55h-.9c.06-.473.283-.85.67-1.13.386-.28.87-.42 1.45-.42.633 0 1.133.163 1.5.49.366.327.55.77.55 1.33V96h-.88v-1.05h-.15l.15-.15c0 .4-.157.717-.47.95-.307.233-.717.35-1.23.35zm.22-.71c.426 0 .776-.107 1.05-.32a.996.996 0 00.41-.82v-.78H42.5c-.3 0-.537.083-.71.25-.174.167-.26.393-.26.68 0 .307.103.55.31.73.213.173.506.26.88.26zm3.916.61l-.02-5.5h.84v4.82h1.17V90.5h.72v4.82h1.16V90.5h.83V96h-4.7zm8.336.1c-.434 0-.814-.087-1.14-.26a1.881 1.881 0 01-.75-.73c-.174-.32-.26-.69-.26-1.11v-1.5c0-.427.086-.797.26-1.11.18-.313.43-.557.75-.73.326-.173.706-.26 1.14-.26.433 0 .81.087 1.13.26.326.173.576.417.75.73.18.313.27.683.27 1.11v.97h-3.42V94c0 .433.11.767.33 1 .22.227.533.34.94.34.346 0 .626-.06.84-.18a.795.795 0 00.39-.56h.9c-.06.46-.287.827-.68 1.1-.387.267-.87.4-1.45.4zm1.27-3.23v-.37c0-.433-.11-.767-.33-1-.214-.233-.527-.35-.94-.35-.407 0-.72.117-.94.35-.22.233-.33.567-.33 1v.29h2.61l-.07.08zM58.909 96v-5.5h.9v2.29h2.32V90.5h.9V96h-.9v-2.39h-2.32V96h-.9zm5.996 0v-5.5h.86v3c0 .193-.007.397-.02.61a8.72 8.72 0 01-.04.61c-.013.187-.03.347-.05.48l2.22-4.7h1.15V96h-.86v-3c0-.193.003-.397.01-.61.013-.213.03-.417.05-.61l.05-.49-2.22 4.71h-1.15zm8.056.1c-.433 0-.813-.087-1.14-.26a1.881 1.881 0 01-.75-.73c-.173-.32-.26-.69-.26-1.11v-1.5c0-.427.087-.797.26-1.11.18-.313.43-.557.75-.73.327-.173.707-.26 1.14-.26.433 0 .81.087 1.13.26a1.8 1.8 0 01.75.73c.18.313.27.683.27 1.11v.97h-3.42V94c0 .433.11.767.33 1 .22.227.533.34.94.34.347 0 .627-.06.84-.18a.794.794 0 00.39-.56h.9c-.06.46-.287.827-.68 1.1-.387.267-.87.4-1.45.4zm1.27-3.23v-.37c0-.433-.11-.767-.33-1-.213-.233-.527-.35-.94-.35-.407 0-.72.117-.94.35-.22.233-.33.567-.33 1v.29h2.61l-.07.08zm8.022 4.53v-2.17h.45c.114-.113.23-.337.35-.67.127-.333.194-.757.2-1.27l.06-2.79h3.59v4.73h.7v2.17h-.8V96h-3.75v1.4h-.8zm1.4-2.17h2.35V91.3h-1.84l-.04 2.01c-.007.527-.063.953-.17 1.28-.106.327-.207.54-.3.64zm5.216 2.57v-7.3h.9v1.05h.18l-.18.21c0-.42.137-.75.41-.99.28-.247.647-.37 1.1-.37.554 0 .994.183 1.32.55.334.36.5.857.5 1.49v1.61c0 .42-.076.783-.23 1.09a1.634 1.634 0 01-.63.71c-.266.167-.586.25-.96.25-.446 0-.81-.123-1.09-.37s-.42-.577-.42-.99l.18.21h-.2l.02 1.25v1.6h-.9zm2.11-2.48c.38 0 .677-.113.89-.34.22-.227.33-.553.33-.98v-1.5c0-.427-.11-.753-.33-.98-.213-.227-.51-.34-.89-.34-.366 0-.66.117-.88.35-.22.233-.33.557-.33.97V94c0 .413.11.737.33.97.22.233.514.35.88.35zm4.746 2.48l.81-2.14-2.04-5.16h1l1.28 3.4c.047.113.09.25.13.41.04.153.074.283.1.39l.1-.39c.04-.16.08-.297.12-.41l1.2-3.4h.97l-2.71 7.3h-.96zm5.516-1.8v-5.5h3.95v.82h-3.05V96h-.9zm7.217.1c-.58 0-1.037-.147-1.37-.44-.334-.3-.5-.703-.5-1.21 0-.513.166-.917.5-1.21.333-.293.783-.44 1.35-.44h1.7v-.55c0-.34-.104-.6-.31-.78-.2-.187-.487-.28-.86-.28-.327 0-.6.07-.82.21a.746.746 0 00-.38.55h-.9c.06-.473.283-.85.67-1.13.386-.28.87-.42 1.45-.42.633 0 1.133.163 1.5.49.366.327.55.77.55 1.33V96h-.88v-1.05h-.15l.15-.15c0 .4-.157.717-.47.95-.307.233-.717.35-1.23.35zm.22-.71c.426 0 .776-.107 1.05-.32a.996.996 0 00.41-.82v-.78h-1.68c-.3 0-.537.083-.71.25-.174.167-.26.393-.26.68 0 .307.103.55.31.73.213.173.506.26.88.26zm4.406 1.81v-.89c.433-.1.806-.287 1.12-.56.313-.28.553-.63.72-1.05.173-.42.26-.887.26-1.4v-1.8c0-.527-.087-1-.26-1.42a2.845 2.845 0 00-.73-1.05 2.446 2.446 0 00-1.11-.58v-.85c.62.153 1.153.413 1.6.78.446.367.79.817 1.03 1.35.246.527.37 1.117.37 1.77v1.8c0 .993-.264 1.833-.79 2.52-.527.687-1.264 1.147-2.21 1.38zM10.97 109v-5.5h.9v2.27h.94l1.6-2.27h1.03l-1.85 2.62 1.88 2.88h-1.05l-1.6-2.45h-.95V109h-.9zm5.276.07v-.84h.18c.307 0 .52-.12.64-.36.127-.24.193-.67.2-1.29l.06-3.08h3.73v5.5h-.9v-4.68h-1.94l-.05 2.3c-.013.58-.08 1.05-.2 1.41-.113.36-.293.623-.54.79-.24.167-.557.25-.95.25h-.23zm6.686-.07v-5.5h.86v3c0 .193-.007.397-.02.61-.006.213-.02.417-.04.61-.013.187-.03.347-.05.48l2.22-4.7h1.15v5.5h-.86v-3c0-.193.003-.397.01-.61.013-.213.03-.417.05-.61l.05-.49-2.22 4.71h-1.15zm8.056.1a2.4 2.4 0 01-1.14-.26 1.881 1.881 0 01-.75-.73c-.173-.32-.26-.69-.26-1.11v-1.5c0-.427.087-.797.26-1.11.18-.313.43-.557.75-.73a2.4 2.4 0 011.14-.26c.434 0 .81.087 1.13.26.327.173.577.417.75.73.18.313.27.683.27 1.11v.97h-3.42v.53c0 .433.11.767.33 1 .22.227.534.34.94.34.347 0 .627-.06.84-.18a.795.795 0 00.39-.56h.9a1.53 1.53 0 01-.68 1.1c-.386.267-.87.4-1.45.4zm1.27-3.23v-.37c0-.433-.11-.767-.33-1-.213-.233-.526-.35-.94-.35-.406 0-.72.117-.94.35-.22.233-.33.567-.33 1v.29h2.61l-.07.08zm2.666 3.13v-5.5h.9v2.29h2.32v-2.29h.9v5.5h-.9v-2.39h-2.32V109h-.9zm7.607 0v-4.71h-2v-.79h4.9v.79h-2V109h-.9zm10.382 0v-5.5h4.12v5.5h-.9v-4.68h-2.32V109h-.9zm8.056.08c-.44 0-.82-.083-1.14-.25a1.82 1.82 0 01-.75-.72c-.174-.32-.26-.697-.26-1.13v-1.46c0-.44.086-.817.26-1.13.18-.313.43-.553.75-.72.32-.167.7-.25 1.14-.25.44 0 .82.083 1.14.25.32.167.566.407.74.72.18.313.27.687.27 1.12v1.47c0 .433-.09.81-.27 1.13a1.76 1.76 0 01-.74.72c-.32.167-.7.25-1.14.25zm0-.8c.393 0 .7-.11.92-.33.22-.22.33-.543.33-.97v-1.46c0-.427-.11-.75-.33-.97-.22-.22-.527-.33-.92-.33-.387 0-.694.11-.92.33-.22.22-.33.543-.33.97v1.46c0 .427.11.75.33.97.226.22.533.33.92.33zm3.246.79v-.84h.18c.306 0 .52-.12.64-.36.127-.24.193-.67.2-1.29l.06-3.08h3.73v5.5h-.9v-4.68h-1.94l-.05 2.3c-.014.58-.08 1.05-.2 1.41-.114.36-.294.623-.54.79-.24.167-.557.25-.95.25h-.23zm7.526 1.73l.81-2.14-2.04-5.16h1l1.28 3.4c.047.113.09.25.13.41l.1.39.1-.39c.04-.16.08-.297.12-.41l1.2-3.4h.97l-2.71 7.3h-.96zm8.316-1.8v-2c-.107.027-.27.053-.49.08-.213.02-.44.03-.68.03-.68.007-1.21-.157-1.59-.49-.373-.34-.56-.813-.56-1.42v-1.7h.9v1.7c0 .34.113.61.34.81.233.193.553.29.96.29.28 0 .517-.01.71-.03.2-.027.337-.05.41-.07v-2.7h.9v5.5h-.9zm4.416.1c-.58 0-1.037-.147-1.37-.44-.333-.3-.5-.703-.5-1.21 0-.513.167-.917.5-1.21.334-.293.784-.44 1.35-.44h1.7v-.55c0-.34-.103-.6-.31-.78-.2-.187-.487-.28-.86-.28-.327 0-.6.07-.82.21a.747.747 0 00-.38.55h-.9c.06-.473.284-.85.67-1.13.387-.28.87-.42 1.45-.42.633 0 1.133.163 1.5.49.367.327.55.77.55 1.33V109h-.88v-1.05h-.15l.15-.15c0 .4-.157.717-.47.95-.306.233-.716.35-1.23.35zm.22-.71c.427 0 .777-.107 1.05-.32a.995.995 0 00.41-.82v-.78h-1.68c-.3 0-.537.083-.71.25-.173.167-.26.393-.26.68 0 .307.103.55.31.73.213.173.507.26.88.26zm6.256.71c-.433 0-.813-.087-1.14-.26a1.881 1.881 0 01-.75-.73c-.173-.32-.26-.69-.26-1.11v-1.5c0-.427.087-.797.26-1.11.18-.313.43-.557.75-.73.327-.173.707-.26 1.14-.26.434 0 .81.087 1.13.26a1.8 1.8 0 01.75.73c.18.313.27.683.27 1.11v.97h-3.42v.53c0 .433.11.767.33 1 .22.227.534.34.94.34.347 0 .627-.06.84-.18a.794.794 0 00.39-.56h.9a1.53 1.53 0 01-.68 1.1c-.386.267-.87.4-1.45.4zm1.27-3.23v-.37c0-.433-.11-.767-.33-1-.213-.233-.526-.35-.94-.35-.406 0-.72.117-.94.35-.22.233-.33.567-.33 1v.29h2.61l-.07.08zm4.276 3.13v-4.71h-2v-.79h4.9v.79h-2V109h-.9zm12.443.1c-.647 0-1.16-.19-1.54-.57-.374-.387-.56-.913-.56-1.58v-2.5c0-.88.22-1.557.66-2.03.44-.48 1.07-.72 1.89-.72h1.4v.9h-1.4c-.54 0-.95.16-1.23.48-.28.313-.42.77-.42 1.37v.65h.14l-.14.2c.006-.393.14-.7.4-.92.26-.22.613-.33 1.06-.33.58 0 1.03.187 1.35.56.326.373.49.887.49 1.54v.8c0 .447-.084.83-.25 1.15-.167.32-.407.567-.72.74-.314.173-.69.26-1.13.26zm0-.8c.386 0 .683-.117.89-.35.206-.233.31-.567.31-1v-.8c0-.433-.104-.767-.31-1-.207-.233-.504-.35-.89-.35-.387 0-.684.117-.89.35-.207.227-.31.56-.31 1v.8c0 .433.103.767.31 1 .206.233.503.35.89.35zm5.516.8c-.58 0-1.037-.147-1.37-.44-.334-.3-.5-.703-.5-1.21 0-.513.166-.917.5-1.21.333-.293.783-.44 1.35-.44h1.7v-.55c0-.34-.104-.6-.31-.78-.2-.187-.487-.28-.86-.28-.327 0-.6.07-.82.21a.746.746 0 00-.38.55h-.9c.06-.473.283-.85.67-1.13.386-.28.87-.42 1.45-.42.633 0 1.133.163 1.5.49.366.327.55.77.55 1.33V109h-.88v-1.05h-.15l.15-.15c0 .4-.157.717-.47.95-.307.233-.717.35-1.23.35zm.22-.71c.426 0 .776-.107 1.05-.32a.996.996 0 00.41-.82v-.78h-1.68c-.3 0-.537.083-.71.25-.174.167-.26.393-.26.68 0 .307.103.55.31.73.213.173.506.26.88.26zm3.506.68v-.84h.18c.306 0 .52-.12.64-.36.126-.24.193-.67.2-1.29l.06-3.08h3.73v5.5h-.9v-4.68h-1.94l-.05 2.3c-.014.58-.08 1.05-.2 1.41-.114.36-.294.623-.54.79-.24.167-.557.25-.95.25h-.23zm5.996 0v-.84h.18c.306 0 .52-.12.64-.36.126-.24.193-.67.2-1.29l.06-3.08h3.73v5.5h-.9v-4.68h-1.94l-.05 2.3c-.014.58-.08 1.05-.2 1.41-.114.36-.294.623-.54.79-.24.167-.557.25-.95.25h-.23zm6.396-.07v-5.5h.84v2.02h.45c.593 0 1.06.157 1.4.47.347.307.52.73.52 1.27s-.173.967-.52 1.28c-.34.307-.807.46-1.4.46h-1.29zm.84-.72h.45c.353 0 .627-.09.82-.27.2-.18.3-.43.3-.75s-.1-.57-.3-.75c-.193-.18-.467-.27-.82-.27h-.45v2.04zm3.02.72v-5.5h.84v5.5h-.84zm4.486.1c-.253 0-.457-.073-.61-.22-.147-.147-.22-.343-.22-.59 0-.26.073-.467.22-.62.153-.153.357-.23.61-.23s.453.077.6.23c.153.153.23.36.23.62 0 .247-.077.443-.23.59-.147.147-.347.22-.6.22z" fill="#000"/><path d="M24.193 25v-7.3h1.5v2.8h1.68v-2.8h1.5V25h-1.5v-3.1h-1.68V25h-1.5zm7.626.1c-.553 0-.993-.15-1.32-.45-.32-.3-.48-.707-.48-1.22 0-.553.19-.977.57-1.27.387-.3.94-.45 1.66-.45h1.14v-.41a.628.628 0 00-.23-.51c-.146-.127-.346-.19-.6-.19a.992.992 0 00-.58.16.656.656 0 00-.28.44h-1.45c.06-.553.3-.99.72-1.31.427-.327.974-.49 1.64-.49.7 0 1.254.173 1.66.52.414.34.62.8.62 1.38V25h-1.45v-.9h-.24l.25-.35c0 .413-.15.743-.45.99-.293.24-.686.36-1.18.36zm.56-1.1c.294 0 .534-.077.72-.23a.768.768 0 00.29-.62v-.59h-1.11a.765.765 0 00-.55.2.654.654 0 00-.21.51.68.68 0 00.23.54c.154.127.364.19.63.19zm6.946 1v-1.75a4.67 4.67 0 01-.38.07 4.83 4.83 0 01-.57.03c-.726 0-1.3-.18-1.72-.54-.42-.367-.63-.87-.63-1.51v-1.8h1.5v1.7c0 .247.09.443.27.59.18.14.424.21.73.21.187 0 .35-.01.49-.03.147-.027.25-.05.31-.07v-2.4h1.5V25h-1.5zm2.856 0v-5.5h1.32V22c0 .167-.01.377-.03.63-.02.247-.046.497-.08.75a9.533 9.533 0 01-.09.67l1.74-4.55h1.82V25h-1.32v-2.5c0-.173.01-.37.03-.59a26.1 26.1 0 01.07-.68c.027-.227.054-.42.08-.58L44.002 25h-1.82zm8.367.1c-.487 0-.914-.09-1.28-.27a2.073 2.073 0 01-.85-.77c-.2-.333-.3-.72-.3-1.16v-1.3c0-.447.1-.833.3-1.16.2-.327.483-.58.85-.76.366-.187.793-.28 1.28-.28.726 0 1.306.183 1.74.55.433.367.663.867.69 1.5h-1.5a.754.754 0 00-.28-.55c-.16-.133-.377-.2-.65-.2-.3 0-.53.077-.69.23-.16.153-.24.377-.24.67v1.3c0 .287.08.51.24.67.16.153.39.23.69.23.273 0 .49-.063.65-.19a.763.763 0 00.28-.56h1.5c-.027.633-.257 1.133-.69 1.5-.434.367-1.014.55-1.74.55zm3.176-.03v-1.35h.3a.522.522 0 00.43-.22c.113-.147.173-.34.18-.58l.06-3.42h4.16V25h-1.5v-4.1h-1.19l-.04 2.12a2.274 2.274 0 01-.27 1.08c-.167.307-.4.547-.7.72a2.05 2.05 0 01-1.03.25h-.4zm8.796.03c-.487 0-.914-.09-1.28-.27a2.087 2.087 0 01-.84-.77 2.27 2.27 0 01-.29-1.16v-1.3c0-.44.096-.823.29-1.15a2 2 0 01.84-.77c.366-.187.793-.28 1.28-.28.486 0 .906.093 1.26.28.36.18.636.437.83.77.2.327.3.71.3 1.15v1h-3.37v.3c0 .347.083.61.25.79.166.173.416.26.75.26.233 0 .42-.04.56-.12a.582.582 0 00.29-.33h1.47c-.12.48-.394.867-.82 1.16-.42.293-.927.44-1.52.44zm.96-3.27v-.25c0-.34-.08-.6-.24-.78-.154-.18-.394-.27-.72-.27-.327 0-.574.093-.74.28-.16.187-.24.45-.24.79v.15l2.04-.02-.1.1zM66.166 25v-5.5h1.5v2.01h1.68V19.5h1.5V25h-1.5v-2.09h-1.68V25h-1.5zm5.996 0v-5.5h1.32V22c0 .167-.01.377-.03.63-.02.247-.047.497-.08.75-.027.253-.057.477-.09.67l1.74-4.55h1.82V25h-1.32v-2.5c0-.173.01-.37.03-.59.02-.227.043-.453.07-.68.027-.227.053-.42.08-.58L73.982 25h-1.82zm8.346.1c-.487 0-.913-.09-1.28-.27a2.087 2.087 0 01-.84-.77 2.27 2.27 0 01-.29-1.16v-1.3c0-.44.097-.823.29-1.15a2 2 0 01.84-.77c.367-.187.793-.28 1.28-.28s.907.093 1.26.28c.36.18.637.437.83.77.2.327.3.71.3 1.15v1h-3.37v.3c0 .347.083.61.25.79.167.173.417.26.75.26.233 0 .42-.04.56-.12a.581.581 0 00.29-.33h1.47c-.12.48-.393.867-.82 1.16-.42.293-.927.44-1.52.44zm.96-3.27v-.25c0-.34-.08-.6-.24-.78-.153-.18-.393-.27-.72-.27-.327 0-.573.093-.74.28-.16.187-.24.45-.24.79v.15l2.04-.02-.1.1zM92.49 25.1c-.733-.013-1.316-.213-1.75-.6-.433-.393-.65-.927-.65-1.6v-2.45c0-.88.247-1.557.74-2.03.494-.48 1.197-.72 2.11-.72h1.65v1.45h-1.65c-.44 0-.776.11-1.01.33-.226.22-.34.543-.34.97v.7h.14l-.12.14c-.006-.373.114-.67.36-.89.254-.227.614-.34 1.08-.34.58 0 1.03.19 1.35.57.327.38.49.907.49 1.58v.69c0 .447-.1.84-.3 1.18-.193.333-.47.59-.83.77-.353.173-.776.257-1.27.25zm0-1.3c.294 0 .517-.077.67-.23.154-.16.23-.383.23-.67v-.69c0-.293-.076-.517-.23-.67-.153-.153-.376-.23-.67-.23-.286 0-.51.077-.67.23-.153.153-.23.377-.23.67v.69c0 .287.077.51.23.67.16.153.384.23.67.23zm5.286 1.3c-.553 0-.993-.15-1.32-.45-.32-.3-.48-.707-.48-1.22 0-.553.19-.977.57-1.27.387-.3.94-.45 1.66-.45h1.14v-.41a.627.627 0 00-.23-.51c-.146-.127-.346-.19-.6-.19a.992.992 0 00-.58.16.656.656 0 00-.28.44h-1.45c.06-.553.3-.99.72-1.31.427-.327.974-.49 1.64-.49.7 0 1.254.173 1.66.52.414.34.62.8.62 1.38V25h-1.45v-.9h-.24l.25-.35c0 .413-.15.743-.45.99-.293.24-.686.36-1.18.36zm.56-1.1c.294 0 .534-.077.72-.23a.768.768 0 00.29-.62v-.59h-1.11a.765.765 0 00-.55.2.654.654 0 00-.21.51.68.68 0 00.23.54c.154.127.364.19.63.19zm3.356 1.07v-1.35h.3a.52.52 0 00.43-.22c.114-.147.174-.34.18-.58l.06-3.42h4.16V25h-1.5v-4.1h-1.19l-.04 2.12a2.258 2.258 0 01-.27 1.08 1.81 1.81 0 01-.7.72c-.293.167-.636.25-1.03.25h-.4zm5.997 0v-1.35h.3a.523.523 0 00.43-.22c.113-.147.173-.34.18-.58l.06-3.42h4.16V25h-1.5v-4.1h-1.19l-.04 2.12a2.28 2.28 0 01-.27 1.08 1.82 1.82 0 01-.7.72c-.294.167-.637.25-1.03.25h-.4zm8.786.03c-.487 0-.91-.09-1.27-.27a2.087 2.087 0 01-.84-.77 2.263 2.263 0 01-.29-1.16v-1.3c0-.44.096-.823.29-1.15a2 2 0 01.84-.77c.36-.187.783-.28 1.27-.28.493 0 .916.093 1.27.28.36.18.636.437.83.77.2.327.3.71.3 1.15v1.3c0 .44-.1.827-.3 1.16-.194.327-.47.583-.83.77-.354.18-.777.27-1.27.27zm0-1.3c.293 0 .516-.077.67-.23.153-.16.23-.383.23-.67v-1.3c0-.293-.077-.517-.23-.67-.154-.153-.377-.23-.67-.23-.287 0-.51.077-.67.23-.154.153-.23.377-.23.67v1.3c0 .287.076.51.23.67.16.153.383.23.67.23zm3.646 1.2v-5.5h2.49c.673 0 1.206.137 1.6.41.4.267.6.63.6 1.09 0 .367-.15.663-.45.89-.3.22-.697.33-1.19.33v-.1c.54 0 .97.12 1.29.36.326.24.49.557.49.95 0 .487-.2.87-.6 1.15-.394.28-.93.42-1.61.42h-2.62zm1.47-1.06h1.08c.246 0 .443-.057.59-.17a.56.56 0 00.23-.46.58.58 0 00-.23-.48c-.147-.12-.344-.18-.59-.18h-1.08v1.29zm0-2.17h1.03c.226 0 .406-.053.54-.16.133-.113.2-.26.2-.44a.562.562 0 00-.2-.45c-.134-.113-.314-.17-.54-.17h-1.03v1.22zM42.181 38v-5.5h1.32V35c0 .167-.01.377-.03.63-.02.247-.046.497-.08.75a9.533 9.533 0 01-.09.67l1.74-4.55h1.82V38h-1.32v-2.5c0-.173.01-.37.03-.59a26.1 26.1 0 01.07-.68c.027-.227.054-.42.08-.58L44.002 38h-1.82zm5.547.07v-1.35h.3a.522.522 0 00.43-.22c.113-.147.173-.34.18-.58l.06-3.42h4.16V38h-1.5v-4.1h-1.19l-.04 2.12a2.274 2.274 0 01-.27 1.08c-.167.307-.4.547-.7.72a2.05 2.05 0 01-1.03.25h-.4zm6.446-.07v-5.5h1.32V35c0 .167-.01.377-.03.63-.02.247-.047.497-.08.75-.027.253-.057.477-.09.67l1.74-4.55h1.82V38h-1.32v-2.5c0-.173.01-.37.03-.59.02-.227.043-.453.07-.68.026-.227.053-.42.08-.58L55.994 38h-1.82zm14.332.1c-.734-.013-1.317-.213-1.75-.6-.433-.393-.65-.927-.65-1.6v-2.45c0-.88.247-1.557.74-2.03.493-.48 1.197-.72 2.11-.72h1.65v1.45h-1.65c-.44 0-.777.11-1.01.33-.227.22-.34.543-.34.97v.7h.14l-.12.14c-.007-.373.113-.67.36-.89.253-.227.613-.34 1.08-.34.58 0 1.03.19 1.35.57.327.38.49.907.49 1.58v.69c0 .447-.1.84-.3 1.18a1.94 1.94 0 01-.83.77c-.353.173-.777.257-1.27.25zm0-1.3c.293 0 .516-.077.67-.23.153-.16.23-.383.23-.67v-.69c0-.293-.077-.517-.23-.67-.154-.153-.377-.23-.67-.23-.287 0-.51.077-.67.23-.153.153-.23.377-.23.67v.69c0 .287.077.51.23.67.16.153.383.23.67.23zm5.996 1.3c-.487 0-.91-.09-1.27-.27a2.087 2.087 0 01-.84-.77 2.27 2.27 0 01-.29-1.16v-1.3c0-.44.097-.823.29-1.15a2 2 0 01.84-.77c.36-.187.783-.28 1.27-.28.493 0 .917.093 1.27.28.36.18.637.437.83.77.2.327.3.71.3 1.15v1.3c0 .44-.1.827-.3 1.16-.193.327-.47.583-.83.77-.353.18-.777.27-1.27.27zm0-1.3c.293 0 .517-.077.67-.23.153-.16.23-.383.23-.67v-1.3c0-.293-.077-.517-.23-.67-.153-.153-.377-.23-.67-.23-.287 0-.51.077-.67.23-.153.153-.23.377-.23.67v1.3c0 .287.077.51.23.67.16.153.383.23.67.23zm3.656 1.2v-5.5h1.5v2.01h1.68V32.5h1.5V38h-1.5v-2.09h-1.68V38h-1.5zm6.906 1.8l.75-2.07-2.06-5.23h1.63l.83 2.4c.06.18.12.4.18.66.067.253.117.46.15.62.034-.16.08-.367.14-.62.067-.26.13-.48.19-.66l.8-2.4h1.56l-2.6 7.3h-1.57zm7.456-1.7c-.486 0-.913-.09-1.28-.27a2.073 2.073 0 01-.85-.77c-.2-.333-.3-.72-.3-1.16v-1.3c0-.447.1-.833.3-1.16.2-.327.484-.58.85-.76.367-.187.794-.28 1.28-.28.727 0 1.307.183 1.74.55.434.367.664.867.69 1.5h-1.5a.754.754 0 00-.28-.55c-.16-.133-.376-.2-.65-.2-.3 0-.53.077-.69.23-.16.153-.24.377-.24.67v1.3c0 .287.08.51.24.67.16.153.39.23.69.23.274 0 .49-.063.65-.19a.763.763 0 00.28-.56h1.5c-.026.633-.256 1.133-.69 1.5-.433.367-1.013.55-1.74.55zm5.966 0c-.486 0-.91-.09-1.27-.27a2.087 2.087 0 01-.84-.77 2.27 2.27 0 01-.29-1.16v-1.3c0-.44.097-.823.29-1.15a2 2 0 01.84-.77c.36-.187.784-.28 1.27-.28.494 0 .917.093 1.27.28.36.18.637.437.83.77.2.327.3.71.3 1.15v1.3c0 .44-.1.827-.3 1.16-.193.327-.47.583-.83.77-.353.18-.776.27-1.27.27zm0-1.3c.294 0 .517-.077.67-.23.154-.16.23-.383.23-.67v-1.3c0-.293-.076-.517-.23-.67-.153-.153-.376-.23-.67-.23-.286 0-.51.077-.67.23-.153.153-.23.377-.23.67v1.3c0 .287.077.51.23.67.16.153.384.23.67.23zm3.646 1.2v-5.5h2.49c.674 0 1.207.137 1.6.41.4.267.6.63.6 1.09 0 .367-.15.663-.45.89-.3.22-.696.33-1.19.33v-.1c.54 0 .97.12 1.29.36.327.24.49.557.49.95 0 .487-.2.87-.6 1.15-.393.28-.93.42-1.61.42h-2.62zm1.47-1.06h1.08c.247 0 .444-.057.59-.17a.557.557 0 00.23-.46c0-.2-.076-.36-.23-.48-.146-.12-.343-.18-.59-.18h-1.08v1.29zm0-2.17h1.03c.227 0 .407-.053.54-.16.134-.113.2-.26.2-.44a.56.56 0 00-.2-.45c-.133-.113-.313-.17-.54-.17h-1.03v1.22z" fill="#fff"/><defs><linearGradient id="paint0_linear_2022_105" x1="0" y1="90.013" x2="223.91" y2="90.013" gradientUnits="userSpaceOnUse"><stop stop-color="#F1FFF7"/><stop offset="1" stop-color="#546A65"/></linearGradient><linearGradient id="paint1_linear_2022_105" x1="11.785" y1="10.802" x2="188.944" y2="149.868" gradientUnits="userSpaceOnUse"><stop stop-color="#475E59" stop-opacity=".7"/><stop offset="1" stop-color="#fff" stop-opacity=".7"/></linearGradient><linearGradient id="paint2_linear_2022_105" x1="0" y1="90.013" x2="223.91" y2="90.013" gradientUnits="userSpaceOnUse"><stop stop-color="#F1FFF7"/><stop offset="1" stop-color="#546A65"/></linearGradient><linearGradient id="paint3_linear_2022_105" x1="11.785" y1="10.802" x2="188.944" y2="149.868" gradientUnits="userSpaceOnUse"><stop stop-color="#475E59" stop-opacity=".7"/><stop offset="1" stop-color="#fff" stop-opacity=".7"/></linearGradient><linearGradient id="paint4_linear_2022_105" x1="0" y1="74.157" x2="223.615" y2="74.157" gradientUnits="userSpaceOnUse"><stop stop-color="#F1FFF7"/><stop offset="1" stop-color="#546A65"/></linearGradient><linearGradient id="paint5_linear_2022_105" x1="11.769" y1="8.899" x2="161.835" y2="151.696" gradientUnits="userSpaceOnUse"><stop stop-color="#475E59" stop-opacity=".7"/><stop offset="1" stop-color="#fff" stop-opacity=".7"/></linearGradient><filter id="filter0_f_2022_105" x="-18.273" y="161.227" width="94.045" height="79.728" filterUnits="userSpaceOnUse" color-interpolation-filters="sRGB"><feFlood flood-opacity="0" result="BackgroundImageFix"/><feBlend in="SourceGraphic" in2="BackgroundImageFix" result="shape"/><feGaussianBlur stdDeviation="2" result="effect1_foregroundBlur_2022_105"/></filter></defs></svg>