<svg width="27" height="25" fill="none" xmlns="http://www.w3.org/2000/svg"><path d="M5.094 24.25l.3-2.353c.098-.767.195-1.534.29-2.301.119-.94.235-1.879.353-2.819.021-.172.04-.345.068-.516.03-.17-.062-.274-.171-.384-1.89-1.884-3.778-3.773-5.67-5.657-.19-.19-.307-.396-.249-.673.077-.37.268-.506.791-.584 1.513-.224 3.024-.451 4.536-.676 1.091-.161 2.183-.32 3.275-.48a.423.423 0 00.348-.237c.783-1.566 1.569-3.13 2.353-4.695.399-.795.794-1.591 1.197-2.383.098-.193.197-.389.436-.457.348-.099.654.01.818.332.442.868.871 1.743 1.312 2.612.69 1.361 1.383 2.72 2.075 4.079.008.015.024.028.026.045.103.604.548.704 1.06.755 1.46.148 2.92.314 4.38.477 1.052.118 2.105.242 3.158.365.293.034.499.184.597.472.098.286-.016.504-.208.705-1.255 1.32-2.51 2.64-3.762 3.961-.563.594-1.113 1.202-1.69 1.782a.683.683 0 00-.209.63c.205 1.508.412 3.014.614 4.522.145 1.085.282 2.171.423 3.257.04.31.007.597-.28.789-.268.18-.527.108-.786-.035-.96-.534-1.92-1.065-2.88-1.597l-3.474-1.922c-.045-.025-.094-.046-.139-.072-.818-.475-.478-.437-1.285.005-1.245.681-2.478 1.386-3.715 2.083-.94.53-1.878 1.066-2.821 1.593-.368.205-.687.156-.928-.105-.142-.153-.132-.333-.142-.518z" fill="#C2D76C"/></svg>