<svg width="220" height="140" fill="none" xmlns="http://www.w3.org/2000/svg"><g filter="url(#filter0_ii_2014_24)"><rect y="11" width="170" height="78" rx="17.073" fill="#223B38"/></g><g filter="url(#filter1_f_2014_24)"><rect x="109" y="25" width="47" height="47" rx="23.5" fill="url(#paint0_linear_2014_24)" fill-opacity=".6"/></g><g filter="url(#filter2_dii_2014_24)"><rect x="110" y="26" width="45" height="45" rx="22.5" fill="#223B38"/></g><path d="M127 39l11 9.5-11 9.5" stroke="#CCEC60" stroke-width="2"/><path d="M13 52.1c-.487 0-.91-.09-1.27-.27a2.087 2.087 0 01-.84-.77 2.27 2.27 0 01-.29-1.16v-3.1c0-.44.097-.823.29-1.15a2 2 0 01.84-.77c.36-.187.783-.28 1.27-.28.493 0 .917.093 1.27.28.36.18.637.437.83.77.2.327.3.71.3 1.15v3.1c0 .44-.1.827-.3 1.16-.193.327-.47.583-.83.77-.353.18-.777.27-1.27.27zm0-1.3c.3 0 .523-.077.67-.23.153-.16.23-.383.23-.67v-3.1c0-.293-.073-.517-.22-.67-.147-.153-.373-.23-.68-.23-.307 0-.533.077-.68.23-.147.153-.22.377-.22.67v3.1c0 .287.073.51.22.67.153.153.38.23.68.23zm5.963 1.3c-.487 0-.914-.09-1.28-.27a2.143 2.143 0 01-.86-.77c-.2-.333-.3-.72-.3-1.16v-3.1c0-.447.1-.833.3-1.16.206-.327.493-.58.86-.76.366-.187.793-.28 1.28-.28.493 0 .92.093 1.28.28.366.18.65.433.85.76.206.327.31.713.31 1.16h-1.5c0-.293-.084-.517-.25-.67-.16-.153-.39-.23-.69-.23-.3 0-.534.077-.7.23-.16.153-.24.377-.24.67v3.1c0 .287.08.51.24.67.166.153.4.23.7.23.3 0 .53-.077.69-.23.166-.16.25-.383.25-.67h1.5c0 .44-.104.827-.31 1.16-.2.327-.484.583-.85.77-.36.18-.787.27-1.28.27zm5.132-.1v-5.9h-1.85v-1.4h5.2v1.4h-1.85V52h-1.5zm3.923 0l1.79-7.3h1.9l1.81 7.3h-1.53l-.35-1.65h-1.74l-.35 1.65h-1.53zm2.13-2.85h1.23l-.35-1.76a25.11 25.11 0 00-.15-.75l-.11-.59-.11.58c-.04.247-.087.497-.14.75l-.37 1.77zM34.35 52v-7.3h2.35c.74 0 1.33.17 1.77.51.44.333.66.787.66 1.36 0 .32-.076.6-.23.84-.146.24-.346.427-.6.56-.246.133-.516.2-.81.2v.03c.327-.007.624.053.89.18.274.127.494.317.66.57.167.253.25.567.25.94 0 .427-.103.8-.31 1.12-.2.313-.486.557-.86.73-.373.173-.816.26-1.33.26h-2.44zm1.45-1.21h.93c.327 0 .584-.087.77-.26.187-.173.28-.413.28-.72s-.093-.547-.28-.72c-.186-.18-.443-.27-.77-.27h-.93v1.97zm0-3.15h.88c.294 0 .524-.077.69-.23.167-.16.25-.373.25-.64 0-.273-.083-.483-.25-.63-.166-.153-.396-.23-.69-.23h-.88v1.73zM40.213 52v-7.3h1.32v3.2c0 .227-.01.49-.03.79a37.489 37.489 0 01-.11 1.66l1.87-5.65h1.75V52h-1.32v-3c0-.233.007-.51.02-.83.02-.32.043-.643.07-.97l.07-.85-1.89 5.65h-1.75zm7.572 0v-5.9h-1.85v-1.4h5.2v1.4h-1.85V52h-1.5zm4.333 0v-7.3h1.5v2.85h.94c.527 0 .983.093 1.37.28.393.18.697.437.91.77.213.327.32.717.32 1.17 0 .447-.107.84-.32 1.18a2.138 2.138 0 01-.91.78c-.387.18-.843.27-1.37.27h-2.44zm1.5-1.3h.94c.333 0 .6-.083.8-.25.2-.167.3-.39.3-.67 0-.287-.1-.513-.3-.68-.2-.167-.467-.25-.8-.25h-.94v1.85zm12.685 1.4c-.507 0-.95-.083-1.33-.25a2.134 2.134 0 01-.9-.71 2.051 2.051 0 01-.37-1.09h1.5a.742.742 0 00.33.55c.2.133.457.2.77.2.327 0 .59-.087.79-.26a.853.853 0 00.31-.67.84.84 0 00-.29-.67c-.193-.167-.463-.25-.81-.25h-1.05V47.6h1.05c.333 0 .593-.087.78-.26a.86.86 0 00.28-.64.686.686 0 00-.29-.59c-.187-.14-.443-.21-.77-.21a1.16 1.16 0 00-.69.2.856.856 0 00-.35.55h-1.5c.04-.42.173-.783.4-1.09.227-.307.527-.543.9-.71a3.2 3.2 0 011.3-.25c.733 0 1.317.157 1.75.47.44.313.66.743.66 1.29 0 .353-.08.667-.24.94a1.613 1.613 0 01-.67.63c-.293.147-.647.22-1.06.22V48c.42-.007.787.067 1.1.22a1.7 1.7 0 01.74.66c.173.28.26.607.26.98 0 .447-.107.84-.32 1.18a2.138 2.138 0 01-.91.78c-.387.187-.843.28-1.37.28zm3.173-.1l1.79-7.3h1.9l1.81 7.3h-1.53l-.35-1.65h-1.74l-.35 1.65h-1.53zm2.13-2.85h1.23l-.35-1.76a24.491 24.491 0 00-.15-.75l-.11-.59-.11.58c-.04.247-.087.497-.14.75l-.37 1.77zM75.518 52l1.35-3a1.965 1.965 0 01-.93-.8 2.45 2.45 0 01-.34-1.28c0-.453.103-.847.31-1.18.213-.333.51-.59.89-.77.387-.18.837-.27 1.35-.27h2.34V52h-1.49v-2.76h-.7L77.128 52h-1.61zm2.63-4.06h.85V46h-.85c-.326 0-.583.087-.77.26-.186.173-.28.417-.28.73 0 .3.094.533.28.7.187.167.444.25.77.25zM81.731 52v-7.3h2.35c.74 0 1.33.17 1.77.51.44.333.66.787.66 1.36 0 .32-.077.6-.23.84a1.52 1.52 0 01-.6.56c-.247.133-.517.2-.81.2v.03c.326-.007.623.053.89.18.273.127.493.317.66.57.166.253.25.567.25.94 0 .427-.104.8-.31 1.12a1.98 1.98 0 01-.86.73c-.374.173-.817.26-1.33.26h-2.44zm1.45-1.21h.93c.326 0 .583-.087.77-.26.186-.173.28-.413.28-.72s-.094-.547-.28-.72c-.187-.18-.444-.27-.77-.27h-.93v1.97zm0-3.15h.88c.293 0 .523-.077.69-.23.166-.16.25-.373.25-.64 0-.273-.084-.483-.25-.63-.167-.153-.397-.23-.69-.23h-.88v1.73zM87.643 52v-7.3h1.5v2.83h.71l1.2-2.83h1.63l-1.5 3.49 1.56 3.81h-1.65l-1.24-3.09h-.71V52h-1.5zm6.883 0l.75-1.85-2.11-5.45h1.62l.96 2.97c.053.16.1.343.14.55.047.207.08.377.1.51.013-.133.037-.303.07-.51a5.14 5.14 0 01.13-.55l.91-2.97h1.57l-2.57 7.3h-1.57z" fill="#fff"/><defs><filter id="filter0_ii_2014_24" x="-19.634" y="-5.22" width="207.561" height="115.561" filterUnits="userSpaceOnUse" color-interpolation-filters="sRGB"><feFlood flood-opacity="0" result="BackgroundImageFix"/><feBlend in="SourceGraphic" in2="BackgroundImageFix" result="shape"/><feColorMatrix in="SourceAlpha" values="0 0 0 0 0 0 0 0 0 0 0 0 0 0 0 0 0 0 127 0" result="hardAlpha"/><feOffset dx="-19.634" dy="-16.22"/><feGaussianBlur stdDeviation="21.341"/><feComposite in2="hardAlpha" operator="arithmetic" k2="-1" k3="1"/><feColorMatrix values="0 0 0 0 0.343661 0 0 0 0 0.440702 0 0 0 0 0.428572 0 0 0 0.25 0"/><feBlend in2="shape" result="effect1_innerShadow_2014_24"/><feColorMatrix in="SourceAlpha" values="0 0 0 0 0 0 0 0 0 0 0 0 0 0 0 0 0 0 127 0" result="hardAlpha"/><feOffset dx="17.927" dy="21.341"/><feGaussianBlur stdDeviation="21.341"/><feComposite in2="hardAlpha" operator="arithmetic" k2="-1" k3="1"/><feColorMatrix values="0 0 0 0 0.394406 0 0 0 0 0.391552 0 0 0 0 0.391552 0 0 0 0.15 0"/><feBlend in2="effect1_innerShadow_2014_24" result="effect2_innerShadow_2014_24"/></filter><filter id="filter1_f_2014_24" x="105.891" y="21.891" width="53.218" height="53.218" filterUnits="userSpaceOnUse" color-interpolation-filters="sRGB"><feFlood flood-opacity="0" result="BackgroundImageFix"/><feBlend in="SourceGraphic" in2="BackgroundImageFix" result="shape"/><feGaussianBlur stdDeviation="1.555" result="effect1_foregroundBlur_2014_24"/></filter><filter id="filter2_dii_2014_24" x="80.241" y=".94" width="138.975" height="138.975" filterUnits="userSpaceOnUse" color-interpolation-filters="sRGB"><feFlood flood-opacity="0" result="BackgroundImageFix"/><feColorMatrix in="SourceAlpha" values="0 0 0 0 0 0 0 0 0 0 0 0 0 0 0 0 0 0 127 0" result="hardAlpha"/><feOffset dx="17.229" dy="21.928"/><feGaussianBlur stdDeviation="23.494"/><feComposite in2="hardAlpha" operator="out"/><feColorMatrix values="0 0 0 0 0.14132 0 0 0 0 0.140397 0 0 0 0 0.138553 0 0 0 0.25 0"/><feBlend in2="BackgroundImageFix" result="effect1_dropShadow_2014_24"/><feBlend in="SourceGraphic" in2="effect1_dropShadow_2014_24" result="shape"/><feColorMatrix in="SourceAlpha" values="0 0 0 0 0 0 0 0 0 0 0 0 0 0 0 0 0 0 127 0" result="hardAlpha"/><feOffset dx="-18.012" dy="-14.879"/><feGaussianBlur stdDeviation="19.578"/><feComposite in2="hardAlpha" operator="arithmetic" k2="-1" k3="1"/><feColorMatrix values="0 0 0 0 0.327949 0 0 0 0 0.51169 0 0 0 0 0.494986 0 0 0 0.25 0"/><feBlend in2="shape" result="effect2_innerShadow_2014_24"/><feColorMatrix in="SourceAlpha" values="0 0 0 0 0 0 0 0 0 0 0 0 0 0 0 0 0 0 127 0" result="hardAlpha"/><feOffset dx="16.446" dy="19.578"/><feGaussianBlur stdDeviation="19.578"/><feComposite in2="hardAlpha" operator="arithmetic" k2="-1" k3="1"/><feColorMatrix values="0 0 0 0 0.333396 0 0 0 0 0.480826 0 0 0 0 0.461596 0 0 0 0.15 0"/><feBlend in2="effect2_innerShadow_2014_24" result="effect3_innerShadow_2014_24"/></filter><linearGradient id="paint0_linear_2014_24" x1="152.223" y1="66.754" x2="114.665" y2="35.491" gradientUnits="userSpaceOnUse"><stop offset=".415" stop-color="#1B1B1B"/><stop offset="1" stop-color="#1B1B1B"/></linearGradient></defs></svg>