<svg width="159" height="317" fill="none" xmlns="http://www.w3.org/2000/svg"><rect x=".355" y=".355" width="158.29" height="316.29" rx="16.508" fill="url(#paint0_linear_311_1306)" fill-opacity=".53" stroke="url(#paint1_linear_311_1306)" stroke-width=".71"/><path d="M30.454 81v-6.155H34.4V81h-1.265v-4.975H31.72V81h-1.265zm7.029.084a2.38 2.38 0 01-1.071-.227 1.76 1.76 0 01-.708-.65 1.914 1.914 0 01-.245-.978v-1.096c0-.37.082-.694.245-.97.168-.28.404-.497.708-.648.303-.158.66-.237 1.07-.237.417 0 .774.08 1.072.236.303.152.536.369.7.65.168.275.252.598.252.97v1.095c0 .371-.084.697-.253.978a1.702 1.702 0 01-.7.65c-.297.151-.654.227-1.07.227zm0-1.096c.247 0 .435-.064.565-.194.129-.135.194-.323.194-.565v-1.096c0-.247-.065-.435-.194-.565-.13-.129-.318-.194-.565-.194-.242 0-.43.065-.565.194-.13.13-.194.318-.194.565v1.096c0 .242.065.43.194.565.135.13.323.194.565.194zm5.08 1.096c-.41 0-.77-.076-1.079-.227a1.748 1.748 0 01-.716-.65 1.864 1.864 0 01-.253-.978v-1.096c0-.376.084-.702.253-.978.168-.275.407-.489.716-.64.31-.158.67-.237 1.08-.237.612 0 1.101.155 1.467.464.365.31.559.73.581 1.265h-1.264a.636.636 0 00-.236-.464c-.135-.112-.318-.169-.549-.169-.252 0-.446.065-.581.194-.135.13-.203.318-.203.565v1.096c0 .242.068.43.203.565.135.13.329.194.581.194.231 0 .414-.053.549-.16a.645.645 0 00.236-.472h1.264c-.022.534-.216.955-.581 1.265-.366.309-.855.463-1.468.463zM46.962 81v-3.457h-1.517v-1.18h4.3v1.18h-1.518V81h-1.265zm5.688.084c-.41 0-.767-.076-1.07-.227a1.76 1.76 0 01-.709-.65 1.914 1.914 0 01-.244-.978v-1.096c0-.37.081-.694.244-.97.169-.28.405-.497.709-.648.303-.158.66-.237 1.07-.237.416 0 .773.08 1.071.236.304.152.537.369.7.65.169.275.253.598.253.97v1.095c0 .371-.084.697-.253.978a1.702 1.702 0 01-.7.65c-.298.151-.655.227-1.07.227zm0-1.096c.248 0 .436-.064.565-.194.13-.135.194-.323.194-.565v-1.096c0-.247-.065-.435-.194-.565-.13-.129-.317-.194-.565-.194-.241 0-.43.065-.565.194-.129.13-.194.318-.194.565v1.096c0 .242.065.43.194.565.135.13.324.194.565.194zM55.597 81l1.012-1.627a1.454 1.454 0 01-.7-.531 1.45 1.45 0 01-.253-.852c0-.511.171-.91.514-1.197.343-.287.818-.43 1.425-.43h2.083V81h-1.256v-1.467h-.557L57.022 81h-1.425zm2.074-2.428h.759v-1.206h-.759c-.236 0-.422.053-.556.16a.538.538 0 00-.203.447c0 .191.065.34.194.447.135.101.323.152.565.152zM60.787 81v-4.637h1.265v1.695h1.417v-1.695h1.264V81H63.47v-1.762h-1.417V81h-1.265zm5.056 0v-4.637h1.265v1.695h1.416v-1.695h1.265V81h-1.265v-1.762h-1.416V81h-1.265zm7.028.084c-.41 0-.767-.076-1.07-.227a1.76 1.76 0 01-.709-.65 1.914 1.914 0 01-.244-.978v-1.096c0-.37.081-.694.244-.97.169-.28.405-.497.709-.648.303-.158.66-.237 1.07-.237.416 0 .773.08 1.071.236.304.152.537.369.7.65.169.275.253.598.253.97v1.095c0 .371-.084.697-.253.978a1.702 1.702 0 01-.7.65c-.298.151-.655.227-1.07.227zm0-1.096c.248 0 .436-.064.565-.194.13-.135.194-.323.194-.565v-1.096c0-.247-.064-.435-.194-.565-.129-.129-.317-.194-.565-.194-.241 0-.43.065-.564.194-.13.13-.194.318-.194.565v1.096c0 .242.064.43.194.565.134.13.323.194.564.194zm5.064 1.096c-.41 0-.77-.076-1.079-.227a1.76 1.76 0 01-.708-.65 1.914 1.914 0 01-.245-.978v-1.096c0-.37.082-.694.245-.97.169-.28.405-.497.708-.648.31-.158.67-.237 1.08-.237.41 0 .764.08 1.062.236.303.152.536.369.7.65.168.275.253.598.253.97v.843h-2.842v.252c0 .293.07.515.21.666.141.147.352.22.633.22a.949.949 0 00.472-.102.49.49 0 00.245-.278h1.24a1.64 1.64 0 01-.692.978c-.354.248-.781.371-1.282.371zm.81-2.757v-.21c0-.287-.068-.506-.203-.658-.129-.152-.331-.228-.607-.228-.275 0-.483.079-.624.236-.134.158-.202.38-.202.666v.127l1.72-.017-.084.084zm7.32 4.19v-6.154h1.223v.885h.295l-.295.295c0-.399.11-.708.328-.927.22-.225.52-.338.903-.338.466 0 .84.166 1.121.498.281.326.421.764.421 1.315v1.18c0 .366-.064.686-.193.962a1.47 1.47 0 01-.532.632c-.23.146-.503.22-.817.22-.383 0-.683-.11-.903-.33-.219-.224-.328-.536-.328-.935l.295.295h-.295l.042 1.138v1.265h-1.265zm1.998-2.529c.236 0 .416-.064.54-.194.13-.135.194-.323.194-.565v-1.096c0-.247-.065-.435-.194-.565-.124-.129-.304-.194-.54-.194-.23 0-.41.068-.54.203-.129.13-.193.315-.193.556v1.096c0 .242.064.43.194.565.129.13.309.194.54.194zm4.432 1.096c-.467 0-.838-.126-1.113-.38-.27-.252-.405-.595-.405-1.028 0-.466.16-.823.48-1.07.327-.253.793-.38 1.4-.38h.962v-.346a.529.529 0 00-.194-.43c-.124-.106-.293-.16-.506-.16a.837.837 0 00-.49.135.553.553 0 00-.235.371H91.17c.05-.467.253-.835.607-1.104.36-.276.82-.414 1.383-.414.59 0 1.057.147 1.4.439.348.287.522.674.522 1.163V81H93.86v-.759h-.203l.211-.295c0 .349-.126.627-.38.835-.246.202-.578.303-.994.303zm.472-.927c.247 0 .45-.065.607-.194a.647.647 0 00.245-.523v-.497h-.936a.645.645 0 00-.464.168.551.551 0 00-.177.43c0 .192.065.343.194.456.13.106.306.16.531.16zm4.946.902c-.517 0-.947-.126-1.29-.38a1.55 1.55 0 01-.624-1.028h1.223a.55.55 0 00.244.312c.124.073.273.11.447.11h.48c.186 0 .332-.043.439-.127a.45.45 0 00.16-.362.417.417 0 00-.16-.346c-.107-.085-.253-.127-.438-.127h-1.088v-.96h1.037c.174 0 .31-.037.405-.11a.393.393 0 00.143-.32.392.392 0 00-.067-.237.377.377 0 00-.186-.143.752.752 0 00-.295-.05h-.388a.77.77 0 00-.438.117.529.529 0 00-.236.304h-1.223c.073-.433.278-.776.616-1.029.337-.253.764-.38 1.281-.38h.388c.371 0 .691.054.961.16.27.102.478.248.624.44.146.185.219.407.219.665a.92.92 0 01-.354.75c-.23.192-.537.288-.919.288v-.085c.416 0 .75.107 1.004.32.252.209.379.487.379.835 0 .422-.169.76-.506 1.012-.337.247-.79.371-1.357.371h-.481zm3.31-.059v-4.637h2.1c.567 0 1.017.115 1.349.345.337.225.506.532.506.92a.897.897 0 01-.38.75c-.253.185-.587.278-1.003.278v-.084c.455 0 .818.1 1.087.303.276.203.414.47.414.801 0 .41-.169.734-.506.97-.332.236-.784.354-1.358.354h-2.209zm1.24-.894h.91c.208 0 .374-.047.498-.143a.472.472 0 00.194-.388.489.489 0 00-.194-.405c-.124-.1-.29-.151-.498-.151h-.91v1.087zm0-1.83h.868c.191 0 .343-.044.455-.134a.463.463 0 00.169-.371.472.472 0 00-.169-.38c-.112-.095-.264-.143-.455-.143h-.868v1.029zM106.287 81v-4.637h1.113v2.108c0 .14-.008.317-.025.53-.017.209-.04.42-.068.633a7.883 7.883 0 01-.076.565l1.468-3.836h1.534V81h-1.113v-2.108c0-.146.009-.312.025-.497.017-.191.037-.382.059-.574.023-.19.045-.354.068-.489L107.822 81h-1.535zm6.396 0v-3.457h-1.517v-1.18h4.3v1.18h-1.518V81h-1.265zm3.715 0v-4.637h1.113v2.108c0 .14-.008.317-.025.53-.017.209-.039.42-.068.633a8.552 8.552 0 01-.075.565l1.467-3.836h1.534V81h-1.113v-2.108c0-.146.009-.312.025-.497.017-.191.037-.382.059-.574.023-.19.045-.354.068-.489L117.933 81h-1.535zm7.037.084c-.41 0-.77-.076-1.079-.227a1.753 1.753 0 01-.708-.65 1.915 1.915 0 01-.245-.978v-1.096c0-.37.082-.694.245-.97.168-.28.404-.497.708-.648a2.348 2.348 0 011.079-.237c.41 0 .765.08 1.062.236.304.152.537.369.7.65.169.275.253.598.253.97v.843h-2.841v.252c0 .293.07.515.211.666.14.147.351.22.632.22a.948.948 0 00.472-.102.492.492 0 00.245-.278h1.239a1.64 1.64 0 01-.691.978c-.354.248-.782.371-1.282.371zm.81-2.757v-.21c0-.287-.068-.506-.203-.658-.129-.152-.331-.228-.607-.228-.275 0-.483.079-.624.236-.135.158-.202.38-.202.666v.127l1.72-.017-.084.084zM50.676 92v-4.637h1.113v2.108c0 .14-.008.317-.025.53-.017.209-.04.42-.067.633a8.778 8.778 0 01-.076.565l1.467-3.836h1.534V92H53.51v-2.108c0-.146.009-.312.026-.497.017-.191.036-.382.059-.574.022-.19.045-.354.067-.489L52.211 92h-1.535zm10.111 0v-4.637h3.946V92H63.47v-3.457h-1.417V92h-1.265zm7.029.084c-.41 0-.767-.076-1.07-.227a1.76 1.76 0 01-.71-.65 1.914 1.914 0 01-.244-.978v-1.096c0-.37.082-.694.245-.97.168-.28.405-.497.708-.648.304-.158.66-.237 1.07-.237.417 0 .774.08 1.072.236.303.152.537.369.7.65.168.275.252.598.252.97v1.095c0 .371-.084.697-.252.978a1.702 1.702 0 01-.7.65c-.298.151-.655.227-1.071.227zm0-1.096c.247 0 .435-.064.565-.194.13-.135.194-.323.194-.565v-1.096c0-.247-.065-.435-.194-.565-.13-.129-.318-.194-.565-.194-.242 0-.43.065-.565.194-.13.13-.194.318-.194.565v1.096c0 .242.065.43.194.565.135.13.323.194.565.194zm2.712 2.192v-2.25h.26c.096-.096.195-.262.296-.498a2.26 2.26 0 00.169-.877l.042-2.192h3.415v3.566h.505v2.251h-1.18V92h-2.327v1.18h-1.18zm1.517-2.25h1.484v-2.48h-1.07l-.026 1.096a2.644 2.644 0 01-.143.86c-.085.242-.166.416-.245.523zm3.538 2.25v-2.25h.261c.096-.096.194-.262.296-.498a2.28 2.28 0 00.168-.877l.042-2.192h3.415v3.566h.506v2.251h-1.18V92h-2.328v1.18h-1.18zm1.518-2.25h1.484v-2.48h-1.071l-.025 1.096a2.647 2.647 0 01-.144.86 2.104 2.104 0 01-.244.523zm5.89 1.154c-.41 0-.77-.076-1.08-.227a1.76 1.76 0 01-.707-.65 1.914 1.914 0 01-.245-.978v-1.096c0-.37.081-.694.245-.97.168-.28.404-.497.708-.648a2.34 2.34 0 011.079-.237c.41 0 .764.08 1.062.236.304.152.537.369.7.65.169.275.253.598.253.97v.843h-2.841v.252c0 .293.07.515.21.666.14.147.352.22.633.22a.949.949 0 00.472-.102.49.49 0 00.244-.278h1.24a1.64 1.64 0 01-.692.978c-.354.248-.78.371-1.281.371zm.81-2.757v-.21c0-.287-.068-.506-.203-.658-.13-.152-.332-.228-.607-.228-.275 0-.484.079-.624.236-.135.158-.202.38-.202.666v.127l1.72-.017-.085.084zm2.264 4.19v-6.154h1.223v.885h.295l-.295.295c0-.399.11-.708.328-.927.22-.225.52-.338.903-.338.466 0 .84.166 1.121.498.281.326.421.764.421 1.315v1.18c0 .366-.064.686-.193.962a1.47 1.47 0 01-.532.632c-.23.146-.503.22-.817.22-.383 0-.683-.11-.903-.33-.219-.224-.328-.536-.328-.935l.295.295h-.295l.042 1.138v1.265h-1.265zm1.998-2.529c.236 0 .416-.064.54-.194.13-.135.194-.323.194-.565v-1.096c0-.247-.065-.435-.194-.565-.124-.129-.304-.194-.54-.194-.23 0-.41.068-.54.203-.129.13-.193.315-.193.556v1.096c0 .242.064.43.194.565.129.13.309.194.54.194zM90.59 92l.886-2.378-.818-2.26h1.096l.683 2.066h.227v-2.065h.86v2.065h.228l.75-2.065h1.03l-.819 2.234.886 2.403h-1.063l-.775-2.15h-.237V92h-.86v-2.15h-.244L91.711 92h-1.122zm5.612 0v-4.637h1.265v1.754h.624l.97-1.754h1.408l-1.29 2.268L100.493 92H99.06l-.978-1.821h-.616V92h-1.265zm6.405.084c-.467 0-.838-.126-1.113-.38-.27-.252-.405-.595-.405-1.028 0-.466.161-.823.481-1.07.326-.253.792-.38 1.4-.38h.961v-.346a.53.53 0 00-.194-.43c-.124-.106-.293-.16-.506-.16a.836.836 0 00-.489.135.553.553 0 00-.236.371h-1.223c.051-.467.253-.835.607-1.104.36-.276.821-.414 1.383-.414.59 0 1.057.147 1.4.439.348.287.522.674.522 1.163V92h-1.222v-.759h-.203l.211-.295c0 .349-.126.627-.379.835-.247.202-.579.303-.995.303zm.472-.927c.247 0 .45-.065.607-.194a.648.648 0 00.245-.523v-.497h-.936a.646.646 0 00-.464.168.551.551 0 00-.177.43c0 .192.065.343.194.456.129.106.306.16.531.16zm5.182-2.36c-.253 0-.458-.071-.615-.212a.712.712 0 01-.228-.548c0-.23.076-.413.228-.548.157-.14.362-.21.615-.21s.455.07.607.21a.683.683 0 01.236.548.698.698 0 01-.236.548c-.152.14-.354.211-.607.211zm0 3.287c-.253 0-.458-.07-.615-.21a.712.712 0 01-.228-.548c0-.231.076-.414.228-.548.157-.141.362-.211.615-.211s.455.07.607.21a.682.682 0 01.236.549.698.698 0 01-.236.548c-.152.14-.354.21-.607.21z" fill="#fff"/><path d="M27.77 109.476v-7.3h1.25v2.93h1.96v-2.93h1.25v7.3h-1.25v-3.21h-1.96v3.21h-1.25zm7.616.1c-.567 0-1.013-.15-1.34-.45-.327-.3-.49-.703-.49-1.21 0-.54.18-.957.54-1.25.36-.293.87-.44 1.53-.44h1.37v-.47c0-.267-.087-.473-.26-.62-.173-.153-.41-.23-.71-.23-.273 0-.5.06-.68.18a.702.702 0 00-.32.49h-1.22c.06-.52.293-.933.7-1.24.407-.307.927-.46 1.56-.46.673 0 1.203.17 1.59.51.393.333.59.787.59 1.36v3.73h-1.21v-.96h-.2l.2-.27c0 .407-.15.73-.45.97-.3.24-.7.36-1.2.36zm.41-.94c.353 0 .64-.09.86-.27a.852.852 0 00.34-.7v-.67h-1.35c-.253 0-.457.073-.61.22a.766.766 0 00-.23.58c0 .26.087.467.26.62.18.147.423.22.73.22zm6.216.94c-.467 0-.877-.087-1.23-.26a2.001 2.001 0 01-.81-.75c-.193-.327-.29-.71-.29-1.15v-1.38c0-.447.097-.83.29-1.15.194-.32.463-.567.81-.74.354-.18.764-.27 1.23-.27.694 0 1.247.18 1.66.54.414.353.63.837.65 1.45h-1.25c-.02-.287-.123-.507-.31-.66-.18-.16-.43-.24-.75-.24-.333 0-.596.093-.79.28-.193.18-.29.44-.29.78v1.39c0 .34.097.603.29.79.194.187.457.28.79.28.32 0 .57-.077.75-.23.187-.16.29-.383.31-.67h1.25c-.02.613-.236 1.1-.65 1.46-.413.353-.966.53-1.66.53zm5.346-.1v-4.35h-1.88v-1.15h5.02v1.15h-1.88v4.35h-1.26zm4.396 1.8v-7.3h1.22v1.05h.28l-.28.29c0-.447.134-.797.4-1.05.267-.26.627-.39 1.08-.39.554 0 .997.19 1.33.57.334.38.5.89.5 1.53v1.49c0 .427-.076.8-.23 1.12a1.69 1.69 0 01-.63.73c-.273.173-.596.26-.97.26-.453 0-.813-.127-1.08-.38-.266-.26-.4-.613-.4-1.06l.28.29h-.29l.04 1.31v1.54h-1.25zm2.26-2.78c.32 0 .57-.093.75-.28.18-.187.27-.453.27-.8v-1.38c0-.347-.09-.613-.27-.8-.18-.187-.43-.28-.75-.28-.313 0-.56.097-.74.29-.18.187-.27.45-.27.79v1.38c0 .34.09.607.27.8.18.187.427.28.74.28zm5.966 1.07c-.466 0-.873-.087-1.22-.26-.34-.18-.606-.43-.8-.75-.186-.327-.28-.71-.28-1.15v-1.36c0-.44.094-.82.28-1.14.194-.327.46-.577.8-.75.347-.18.754-.27 1.22-.27.474 0 .88.09 1.22.27.34.173.604.423.79.75.194.32.29.697.29 1.13v1.37c0 .44-.096.823-.29 1.15-.186.32-.45.57-.79.75-.34.173-.746.26-1.22.26zm0-1.09c.334 0 .59-.09.77-.27.187-.187.28-.453.28-.8v-1.36c0-.353-.093-.62-.28-.8-.18-.18-.436-.27-.77-.27-.326 0-.583.09-.77.27-.186.18-.28.447-.28.8v1.36c0 .347.094.613.28.8.187.18.444.27.77.27zm6.897 1.1c-.5 0-.894-.153-1.18-.46-.28-.307-.42-.713-.42-1.22v-.77h-.8v2.35h-1.07v-5.5h1.07v2.29h.8v-.72c0-.5.14-.903.42-1.21.28-.307.673-.46 1.18-.46.513 0 .926.153 1.24.46.32.3.48.703.48 1.21v2.35c0 .507-.16.913-.48 1.22-.32.307-.734.46-1.24.46zm0-.93c.193 0 .35-.067.47-.2.12-.14.18-.323.18-.55v-2.35c0-.22-.06-.397-.18-.53a.59.59 0 00-.47-.21.6.6 0 00-.48.21c-.114.133-.17.31-.17.53v2.35c0 .227.056.41.17.55.12.133.28.2.48.2zm11.112.93c-.467 0-.877-.087-1.23-.26a2.001 2.001 0 01-.81-.75c-.194-.327-.29-.71-.29-1.15v-1.38c0-.447.096-.83.29-1.15.193-.32.463-.567.81-.74.353-.18.763-.27 1.23-.27.693 0 1.246.18 1.66.54.413.353.63.837.65 1.45h-1.25c-.02-.287-.124-.507-.31-.66-.18-.16-.43-.24-.75-.24-.334 0-.597.093-.79.28-.194.18-.29.44-.29.78v1.39c0 .34.096.603.29.79.193.187.456.28.79.28.32 0 .57-.077.75-.23.186-.16.29-.383.31-.67h1.25c-.02.613-.237 1.1-.65 1.46-.414.353-.967.53-1.66.53zm3.756-.1v-5.5h1.13v2.71c0 .173-.01.38-.03.62a14.4 14.4 0 01-.14 1.28l1.94-4.61h1.54v5.5h-1.13v-2.71c0-.18.006-.38.02-.6l.06-.65c.026-.213.053-.393.08-.54l-1.93 4.5h-1.54zm8.236.1c-.467 0-.877-.087-1.23-.26a2.003 2.003 0 01-.81-.75c-.193-.327-.29-.71-.29-1.15v-1.38c0-.447.097-.83.29-1.15.193-.32.463-.567.81-.74.353-.18.763-.27 1.23-.27.693 0 1.247.18 1.66.54.413.353.63.837.65 1.45h-1.25c-.02-.287-.123-.507-.31-.66-.18-.16-.43-.24-.75-.24-.333 0-.597.093-.79.28-.193.18-.29.44-.29.78v1.39c0 .34.097.603.29.79.193.187.457.28.79.28.32 0 .57-.077.75-.23.187-.16.29-.383.31-.67h1.25c-.02.613-.237 1.1-.65 1.46-.413.353-.967.53-1.66.53zm5.346-.1v-4.35h-1.88v-1.15h5.02v1.15h-1.88v4.35h-1.26zm6.636.1c-.467 0-.873-.09-1.22-.27a1.997 1.997 0 01-.81-.75 2.26 2.26 0 01-.28-1.14v-1.38c0-.433.093-.81.28-1.13.193-.327.463-.58.81-.76.347-.18.753-.27 1.22-.27.46 0 .86.09 1.2.27.347.18.613.433.8.76.193.32.29.697.29 1.13v.99h-3.39v.39c0 .387.093.68.28.88.187.193.463.29.83.29.28 0 .507-.047.68-.14a.669.669 0 00.33-.43h1.23a1.763 1.763 0 01-.76 1.14c-.407.28-.903.42-1.49.42zm1.08-3.25v-.3c0-.38-.09-.67-.27-.87-.18-.207-.45-.31-.81-.31-.36 0-.633.103-.82.31-.187.207-.28.5-.28.88v.21l2.27-.02-.09.1zm2.466 3.15v-5.5h1.5l.68 2.07c.074.227.134.44.18.64.054.2.087.35.1.45l.09-.45c.047-.2.107-.413.18-.64l.65-2.07h1.5v5.5h-1.16v-.94a43.812 43.812 0 01.04-1.78l.04-.93c.02-.3.037-.563.05-.79l-.83 2.85h-1.14l-.86-2.84c.02.28.04.627.06 1.04.027.407.047.827.06 1.26.014.427.02.823.02 1.19v.94h-1.16zm7.096 1.8l.77-2.1-2.05-5.2h1.37l1.02 2.81c.054.153.107.34.16.56a8.7 8.7 0 01.12.53l.13-.53a6.44 6.44 0 01.16-.56l.96-2.81h1.32l-2.65 7.3h-1.31zm-85.045 11.2v-5.5h1.5l.68 2.07c.073.227.133.44.18.64.053.2.087.35.1.45l.09-.45c.047-.2.107-.413.18-.64l.65-2.07h1.5v5.5h-1.16v-.94a47.688 47.688 0 01.04-1.78c.013-.327.027-.637.04-.93.02-.3.037-.563.05-.79l-.83 2.85h-1.14l-.86-2.84c.02.28.04.627.06 1.04a38.366 38.366 0 01.08 2.45v.94h-1.16zm8.436.09c-.467 0-.873-.087-1.22-.26-.34-.18-.607-.43-.8-.75-.187-.327-.28-.71-.28-1.15v-1.36c0-.44.093-.82.28-1.14.193-.327.46-.577.8-.75.347-.18.753-.27 1.22-.27.473 0 .88.09 1.22.27.34.173.603.423.79.75.193.32.29.697.29 1.13v1.37c0 .44-.097.823-.29 1.15-.187.32-.45.57-.79.75-.34.173-.747.26-1.22.26zm0-1.09c.333 0 .59-.09.77-.27.187-.187.28-.453.28-.8v-1.36c0-.353-.093-.62-.28-.8-.18-.18-.437-.27-.77-.27-.327 0-.583.09-.77.27-.187.18-.28.447-.28.8v1.36c0 .347.093.613.28.8.187.18.443.27.77.27zm5.366 1v-4.35h-1.88v-1.15h5.02v1.15h-1.88v4.35h-1.26zm4.406 0v-5.5h1.13v2.71c0 .173-.01.38-.03.62a11.7 11.7 0 01-.06.69c-.026.227-.053.423-.08.59l1.94-4.61h1.54v5.5h-1.13v-2.71c0-.18.007-.38.02-.6l.06-.65c.027-.213.054-.393.08-.54l-1.93 4.5h-1.54zm5.986 0v-5.5h2.44c.634 0 1.13.133 1.49.4.367.26.55.62.55 1.08 0 .373-.143.673-.43.9-.28.227-.653.34-1.12.34v-.09c.507 0 .914.12 1.22.36.307.233.46.547.46.94 0 .487-.186.87-.56 1.15-.366.28-.873.42-1.52.42h-2.53zm1.23-.95h1.26c.28 0 .5-.063.66-.19a.618.618 0 00.24-.51.638.638 0 00-.24-.53c-.16-.127-.38-.19-.66-.19h-1.26v1.42zm0-2.26h1.22c.247 0 .444-.06.59-.18a.6.6 0 00.22-.49.6.6 0 00-.22-.49c-.14-.127-.336-.19-.59-.19h-1.22v1.35zm6.386 3.31c-.566 0-1.013-.15-1.34-.45-.326-.3-.49-.703-.49-1.21 0-.54.18-.957.54-1.25.36-.293.87-.44 1.53-.44h1.37v-.47c0-.267-.086-.473-.26-.62-.173-.153-.41-.23-.71-.23-.273 0-.5.06-.68.18a.702.702 0 00-.32.49h-1.22c.06-.52.294-.933.7-1.24.407-.307.927-.46 1.56-.46.674 0 1.204.17 1.59.51.394.333.59.787.59 1.36v3.73h-1.21v-.96h-.2l.2-.27c0 .407-.15.73-.45.97-.3.24-.7.36-1.2.36zm.41-.94c.354 0 .64-.09.86-.27a.853.853 0 00.34-.7v-.67h-1.35c-.253 0-.456.073-.61.22a.766.766 0 00-.23.58c0 .26.087.467.26.62.18.147.424.22.73.22zm7.777 2.24v-1.4h-3.8v-5.5h1.25v4.35h1.7v-4.35h1.25v4.35h.75v2.55h-1.15zm2.196-1.4v-5.5h1.13v2.71c0 .173-.01.38-.03.62a11.7 11.7 0 01-.06.69c-.027.227-.054.423-.08.59l1.94-4.61h1.54v5.5h-1.13v-2.71c0-.18.006-.38.02-.6l.06-.65c.026-.213.053-.393.08-.54l-1.93 4.5h-1.54zm5.996 0v-5.5h1.13v2.71c0 .173-.01.38-.03.62a11.7 11.7 0 01-.06.69c-.027.227-.054.423-.08.59l1.94-4.61h1.54v5.5h-1.13v-2.71c0-.18.006-.38.02-.6l.06-.65c.026-.213.053-.393.08-.54l-1.93 4.5h-1.54zm6.716 1.6l.8-3.11h1.6l-1.3 3.11h-1.1zm14.592-1.6v-2c-.107.027-.27.053-.49.08-.213.02-.44.03-.68.03-.68.007-1.21-.157-1.59-.49-.373-.34-.56-.813-.56-1.42v-1.7h.9v1.7c0 .34.113.61.34.81.233.193.553.29.96.29.28 0 .517-.01.71-.03.2-.027.337-.05.41-.07v-2.7h.9v5.5h-.9zm4.446 0v-4.71h-2v-.79h4.9v.79h-2v4.71h-.9zm6.446.08c-.44 0-.82-.083-1.14-.25a1.82 1.82 0 01-.75-.72c-.173-.32-.26-.697-.26-1.13v-1.46c0-.44.087-.817.26-1.13.18-.313.43-.553.75-.72.32-.167.7-.25 1.14-.25.44 0 .82.083 1.14.25.32.167.567.407.74.72.18.313.27.687.27 1.12v1.47c0 .433-.09.81-.27 1.13-.173.313-.42.553-.74.72-.32.167-.7.25-1.14.25zm0-.8c.394 0 .7-.11.92-.33.22-.22.33-.543.33-.97v-1.46c0-.427-.11-.75-.33-.97-.22-.22-.526-.33-.92-.33-.386 0-.693.11-.92.33-.22.22-.33.543-.33.97v1.46c0 .427.11.75.33.97.227.22.534.33.92.33zm5.996.82c-.646 0-1.16-.19-1.54-.57-.373-.387-.56-.913-.56-1.58v-2.5c0-.88.22-1.557.66-2.03.44-.48 1.07-.72 1.89-.72h1.4v.9h-1.4c-.54 0-.95.16-1.23.48-.28.313-.42.77-.42 1.37v.65h.14l-.14.2c.007-.393.14-.7.4-.92.26-.22.614-.33 1.06-.33.58 0 1.03.187 1.35.56.327.373.49.887.49 1.54v.8c0 .447-.083.83-.25 1.15-.166.32-.406.567-.72.74-.313.173-.69.26-1.13.26zm0-.8c.387 0 .684-.117.89-.35.207-.233.31-.567.31-1v-.8c0-.433-.103-.767-.31-1-.206-.233-.503-.35-.89-.35-.386 0-.683.117-.89.35-.206.227-.31.56-.31 1v.8c0 .433.104.767.31 1 .207.233.504.35.89.35zm3.646.7v-5.5h.84v2.02h.45c.594 0 1.06.157 1.4.47.347.307.52.73.52 1.27s-.173.967-.52 1.28c-.34.307-.806.46-1.4.46h-1.29zm.84-.72h.45c.354 0 .627-.09.82-.27.2-.18.3-.43.3-.75s-.1-.57-.3-.75c-.193-.18-.466-.27-.82-.27h-.45v2.04zm3.02.72v-5.5h.84v5.5h-.84zm-93.511 13v-5.5h4.12v5.5h-.9v-4.68h-2.32v4.68h-.9zm8.056.08c-.44 0-.82-.083-1.14-.25a1.82 1.82 0 01-.75-.72c-.173-.32-.26-.697-.26-1.13v-1.46c0-.44.087-.817.26-1.13.18-.313.43-.553.75-.72.32-.167.7-.25 1.14-.25.44 0 .82.083 1.14.25.32.167.567.407.74.72.18.313.27.687.27 1.12v1.47c0 .433-.09.81-.27 1.13-.173.313-.42.553-.74.72-.32.167-.7.25-1.14.25zm0-.8c.393 0 .7-.11.92-.33.22-.22.33-.543.33-.97v-1.46c0-.427-.11-.75-.33-.97-.22-.22-.527-.33-.92-.33-.387 0-.693.11-.92.33-.22.22-.33.543-.33.97v1.46c0 .427.11.75.33.97.227.22.533.33.92.33zm3.296 2.12v-2.17h.45c.114-.113.23-.337.35-.67.127-.333.194-.757.2-1.27l.06-2.79h3.59v4.73h.7v2.17h-.8v-1.4h-3.75v1.4h-.8zm1.4-2.17h2.35v-3.93h-1.84l-.04 2.01c-.006.527-.063.953-.17 1.28-.106.327-.206.54-.3.64zm4.596 2.17v-2.17h.45c.114-.113.23-.337.35-.67.127-.333.194-.757.2-1.27l.06-2.79h3.59v4.73h.7v2.17h-.8v-1.4h-3.75v1.4h-.8zm1.4-2.17h2.35v-3.93h-1.84l-.04 2.01c-.006.527-.063.953-.17 1.28-.106.327-.206.54-.3.64zm7.296.87a2.4 2.4 0 01-1.14-.26 1.881 1.881 0 01-.75-.73c-.173-.32-.26-.69-.26-1.11v-1.5c0-.427.087-.797.26-1.11.18-.313.43-.557.75-.73a2.4 2.4 0 011.14-.26c.434 0 .81.087 1.13.26.327.173.577.417.75.73.18.313.27.683.27 1.11v.97h-3.42v.53c0 .433.11.767.33 1 .22.227.534.34.94.34.347 0 .627-.06.84-.18a.795.795 0 00.39-.56h.9a1.53 1.53 0 01-.68 1.1c-.386.267-.87.4-1.45.4zm1.27-3.23v-.37c0-.433-.11-.767-.33-1-.213-.233-.526-.35-.94-.35-.406 0-.72.117-.94.35-.22.233-.33.567-.33 1v.29h2.61l-.07.08zm2.647 4.93v-7.3h.9v1.05h.18l-.18.21c0-.42.136-.75.41-.99.28-.247.646-.37 1.1-.37.553 0 .993.183 1.32.55.333.36.5.857.5 1.49v1.61c0 .42-.077.783-.23 1.09a1.636 1.636 0 01-.63.71c-.267.167-.587.25-.96.25-.447 0-.81-.123-1.09-.37s-.42-.577-.42-.99l.18.21h-.2l.02 1.25v1.6h-.9zm2.11-2.48c.38 0 .676-.113.89-.34.22-.227.33-.553.33-.98v-1.5c0-.427-.11-.753-.33-.98-.214-.227-.51-.34-.89-.34-.367 0-.66.117-.88.35-.22.233-.33.557-.33.97v1.5c0 .413.11.737.33.97.22.233.513.35.88.35zm3.146.68l1.2-2.82-1.12-2.68h.87l.96 2.4h.53v-2.4h.76v2.4h.51l.99-2.4h.86l-1.12 2.65 1.2 2.85h-.9l-1-2.5h-.54v2.5h-.76v-2.5h-.54l-1.01 2.5h-.89zm6.756 0v-5.5h.86v3c0 .193-.007.397-.02.61a8.72 8.72 0 01-.04.61 6.67 6.67 0 01-.05.48l2.22-4.7h1.15v5.5h-.86v-3c0-.193.003-.397.01-.61.013-.213.03-.417.05-.61.02-.2.036-.363.05-.49l-2.22 4.71h-1.15zm5.996 0v-5.5h2.38c.573 0 1.016.13 1.33.39.313.253.47.61.47 1.07 0 .38-.13.687-.39.92-.26.227-.604.34-1.03.34v-.08c.466 0 .84.117 1.12.35.286.233.43.547.43.94 0 .493-.167.88-.5 1.16-.334.273-.8.41-1.4.41h-2.41zm.88-.79h1.53c.32 0 .566-.07.74-.21.18-.14.27-.337.27-.59 0-.26-.09-.46-.27-.6-.174-.14-.42-.21-.74-.21h-1.53v1.61zm0-2.39h1.5c.28 0 .5-.067.66-.2.166-.133.25-.32.25-.56 0-.24-.08-.427-.24-.56-.16-.14-.384-.21-.67-.21h-1.5v1.53zm6.696 3.28c-.58 0-1.037-.147-1.37-.44-.334-.3-.5-.703-.5-1.21 0-.513.166-.917.5-1.21.333-.293.783-.44 1.35-.44h1.7v-.55c0-.34-.104-.6-.31-.78-.2-.187-.487-.28-.86-.28-.327 0-.6.07-.82.21a.747.747 0 00-.38.55h-.9c.06-.473.283-.85.67-1.13.386-.28.87-.42 1.45-.42.633 0 1.133.163 1.5.49.367.327.55.77.55 1.33v3.78h-.88v-1.05h-.15l.15-.15c0 .4-.157.717-.47.95-.307.233-.717.35-1.23.35zm.22-.71c.427 0 .776-.107 1.05-.32a.995.995 0 00.41-.82v-.78h-1.68c-.3 0-.537.083-.71.25-.174.167-.26.393-.26.68 0 .307.103.55.31.73.213.173.507.26.88.26zm5.806.61v-4.71h-2v-.79h4.9v.79h-2v4.71h-.9zm4.426 0v-5.5h.9v2.02h1.62c.62 0 1.107.157 1.46.47.36.307.54.73.54 1.27 0 .533-.18.957-.54 1.27-.36.313-.847.47-1.46.47h-2.52zm.9-.82h1.62c.347 0 .61-.077.79-.23.187-.16.28-.39.28-.69 0-.3-.093-.527-.28-.68-.18-.16-.443-.24-.79-.24h-1.62v1.84zm11.052.82v-5.5h2.38c.574 0 1.017.13 1.33.39.314.253.47.61.47 1.07 0 .38-.13.687-.39.92-.26.227-.603.34-1.03.34v-.08c.467 0 .84.117 1.12.35.287.233.43.547.43.94 0 .493-.166.88-.5 1.16-.333.273-.8.41-1.4.41h-2.41zm.88-.79h1.53c.32 0 .567-.07.74-.21.18-.14.27-.337.27-.59 0-.26-.09-.46-.27-.6-.173-.14-.42-.21-.74-.21h-1.53v1.61zm0-2.39h1.5c.28 0 .5-.067.66-.2.167-.133.25-.32.25-.56 0-.24-.08-.427-.24-.56-.16-.14-.383-.21-.67-.21h-1.5v1.53zm4.826 3.18v-5.5h.84v2.02h.45c.594 0 1.06.157 1.4.47.347.307.52.73.52 1.27s-.173.967-.52 1.28c-.34.307-.806.46-1.4.46h-1.29zm.84-.72h.45c.354 0 .627-.09.82-.27.2-.18.3-.43.3-.75s-.1-.57-.3-.75c-.193-.18-.466-.27-.82-.27h-.45v2.04zm3.02.72v-5.5h.84v5.5h-.84zm4.506.1a2.56 2.56 0 01-1.16-.25 1.809 1.809 0 01-.76-.72c-.18-.32-.27-.697-.27-1.13v-1.5c0-.44.09-.817.27-1.13.18-.313.434-.553.76-.72a2.56 2.56 0 011.16-.25c.634 0 1.144.17 1.53.51.387.34.59.803.61 1.39h-.9c-.02-.353-.14-.623-.36-.81-.213-.193-.506-.29-.88-.29-.393 0-.706.113-.94.34-.233.22-.35.537-.35.95v1.51c0 .413.117.733.35.96.234.227.547.34.94.34.374 0 .667-.097.88-.29.22-.193.34-.463.36-.81h.9c-.02.587-.223 1.05-.61 1.39-.386.34-.896.51-1.53.51zm5.977-.02c-.44 0-.82-.083-1.14-.25a1.82 1.82 0 01-.75-.72c-.174-.32-.26-.697-.26-1.13v-1.46c0-.44.086-.817.26-1.13.18-.313.43-.553.75-.72.32-.167.7-.25 1.14-.25.44 0 .82.083 1.14.25.32.167.566.407.74.72.18.313.27.687.27 1.12v1.47c0 .433-.09.81-.27 1.13a1.76 1.76 0 01-.74.72c-.32.167-.7.25-1.14.25zm0-.8c.393 0 .7-.11.92-.33.22-.22.33-.543.33-.97v-1.46c0-.427-.11-.75-.33-.97-.22-.22-.527-.33-.92-.33-.387 0-.694.11-.92.33-.22.22-.33.543-.33.97v1.46c0 .427.11.75.33.97.226.22.533.33.92.33zm3.966.72v-5.5h.9v2.27h.94l1.6-2.27h1.03l-1.85 2.62 1.88 2.88h-1.05l-1.6-2.45h-.95v2.45h-.9zm5.966 0v-5.5h.86v3c0 .193-.007.397-.02.61a8.72 8.72 0 01-.04.61 6.67 6.67 0 01-.05.48l2.22-4.7h1.15v5.5h-.86v-3c0-.193.003-.397.01-.61.013-.213.03-.417.05-.61.02-.2.036-.363.05-.49l-2.22 4.71h-1.15zm5.996 0v-5.5h.86v3c0 .193-.007.397-.02.61a8.72 8.72 0 01-.04.61 6.67 6.67 0 01-.05.48l2.22-4.7h1.15v5.5h-.86v-3c0-.193.003-.397.01-.61.013-.213.03-.417.05-.61.02-.2.036-.363.05-.49l-2.22 4.71h-1.15zm2.1-6.4c-.48 0-.867-.133-1.16-.4-.294-.267-.44-.617-.44-1.05h.71c0 .26.08.47.24.63.16.16.373.24.64.24.273 0 .49-.08.65-.24.166-.16.25-.37.25-.63h.71c0 .433-.147.783-.44 1.05-.294.267-.68.4-1.16.4zm-115.186 21.2l.81-2.14-2.04-5.16h1l1.28 3.4c.047.113.09.25.13.41l.1.39.1-.39c.04-.16.08-.297.12-.41l1.2-3.4h.97l-2.71 7.3h-.96zm5.136 0v-7.3h.9v1.05h.18l-.18.21c0-.42.137-.75.41-.99.28-.247.647-.37 1.1-.37.553 0 .993.183 1.32.55.333.36.5.857.5 1.49v1.61c0 .42-.077.783-.23 1.09a1.636 1.636 0 01-.63.71c-.267.167-.587.25-.96.25-.447 0-.81-.123-1.09-.37s-.42-.577-.42-.99l.18.21h-.2l.02 1.25v1.6h-.9zm2.11-2.48c.38 0 .677-.113.89-.34.22-.227.33-.553.33-.98v-1.5c0-.427-.11-.753-.33-.98-.213-.227-.51-.34-.89-.34-.367 0-.66.117-.88.35-.22.233-.33.557-.33.97v1.5c0 .413.11.737.33.97.22.233.513.35.88.35zm5.966.76c-.44 0-.82-.083-1.14-.25a1.82 1.82 0 01-.75-.72c-.173-.32-.26-.697-.26-1.13v-1.46c0-.44.087-.817.26-1.13.18-.313.43-.553.75-.72.32-.167.7-.25 1.14-.25.44 0 .82.083 1.14.25.32.167.567.407.74.72.18.313.27.687.27 1.12v1.47c0 .433-.09.81-.27 1.13-.173.313-.42.553-.74.72-.32.167-.7.25-1.14.25zm0-.8c.394 0 .7-.11.92-.33.22-.22.33-.543.33-.97v-1.46c0-.427-.11-.75-.33-.97-.22-.22-.526-.33-.92-.33-.386 0-.693.11-.92.33-.22.22-.33.543-.33.97v1.46c0 .427.11.75.33.97.227.22.533.33.92.33zm3.936.72v-5.5h2.38c.574 0 1.017.13 1.33.39.314.253.47.61.47 1.07 0 .38-.13.687-.39.92-.26.227-.603.34-1.03.34v-.08c.467 0 .84.117 1.12.35.287.233.43.547.43.94 0 .493-.166.88-.5 1.16-.333.273-.8.41-1.4.41h-2.41zm.88-.79h1.53c.32 0 .567-.07.74-.21.18-.14.27-.337.27-.59 0-.26-.09-.46-.27-.6-.173-.14-.42-.21-.74-.21h-1.53v1.61zm0-2.39h1.5c.28 0 .5-.067.66-.2.167-.133.25-.32.25-.56 0-.24-.08-.427-.24-.56-.16-.14-.383-.21-.67-.21h-1.5v1.53zm7.176 3.28a2.4 2.4 0 01-1.14-.26 1.881 1.881 0 01-.75-.73c-.173-.32-.26-.69-.26-1.11v-1.5c0-.427.087-.797.26-1.11.18-.313.43-.557.75-.73a2.4 2.4 0 011.14-.26c.434 0 .81.087 1.13.26.327.173.577.417.75.73.18.313.27.683.27 1.11v.97h-3.42v.53c0 .433.11.767.33 1 .22.227.534.34.94.34.347 0 .627-.06.84-.18a.795.795 0 00.39-.56h.9a1.53 1.53 0 01-.68 1.1c-.386.267-.87.4-1.45.4zm1.27-3.23v-.37c0-.433-.11-.767-.33-1-.213-.233-.526-.35-.94-.35-.406 0-.72.117-.94.35-.22.233-.33.567-.33 1v.29h2.61l-.07.08zm2.666 3.13v-5.5h.9v2.29h2.32v-2.29h.9v5.5h-.9v-2.39h-2.32v2.39h-.9zm6.037 0v-5.5h.9v2.02h1.62c.62 0 1.106.157 1.46.47.36.307.54.73.54 1.27 0 .533-.18.957-.54 1.27-.36.313-.847.47-1.46.47h-2.52zm.9-.82h1.62c.346 0 .61-.077.79-.23.186-.16.28-.39.28-.69 0-.3-.094-.527-.28-.68-.18-.16-.444-.24-.79-.24h-1.62v1.84zm11.052.82v-5.5h4.12v5.5h-.9v-4.68h-2.32v4.68h-.9zm5.976 1.8v-7.3h.9v1.05h.18l-.18.21c0-.42.136-.75.41-.99.28-.247.647-.37 1.1-.37.553 0 .993.183 1.32.55.333.36.5.857.5 1.49v1.61c0 .42-.077.783-.23 1.09a1.634 1.634 0 01-.63.71c-.267.167-.587.25-.96.25-.447 0-.81-.123-1.09-.37s-.42-.577-.42-.99l.18.21h-.2l.02 1.25v1.6h-.9zm2.11-2.48c.38 0 .676-.113.89-.34.22-.227.33-.553.33-.98v-1.5c0-.427-.11-.753-.33-.98-.214-.227-.51-.34-.89-.34-.367 0-.66.117-.88.35-.22.233-.33.557-.33.97v1.5c0 .413.11.737.33.97.22.233.513.35.88.35zm5.966.76c-.44 0-.82-.083-1.14-.25a1.82 1.82 0 01-.75-.72c-.173-.32-.26-.697-.26-1.13v-1.46c0-.44.087-.817.26-1.13.18-.313.43-.553.75-.72.32-.167.7-.25 1.14-.25.44 0 .82.083 1.14.25.32.167.567.407.74.72.18.313.27.687.27 1.12v1.47c0 .433-.09.81-.27 1.13-.173.313-.42.553-.74.72-.32.167-.7.25-1.14.25zm0-.8c.393 0 .7-.11.92-.33.22-.22.33-.543.33-.97v-1.46c0-.427-.11-.75-.33-.97-.22-.22-.527-.33-.92-.33-.387 0-.693.11-.92.33-.22.22-.33.543-.33.97v1.46c0 .427.11.75.33.97.227.22.533.33.92.33zm3.296 2.12v-2.17h.45c.113-.113.23-.337.35-.67.127-.333.193-.757.2-1.27l.06-2.79h3.59v4.73h.7v2.17h-.8v-1.4h-3.75v1.4h-.8zm1.4-2.17h2.35v-3.93h-1.84l-.04 2.01c-.007.527-.063.953-.17 1.28-.107.327-.207.54-.3.64zm6.816.87c-.58 0-1.037-.147-1.37-.44-.333-.3-.5-.703-.5-1.21 0-.513.167-.917.5-1.21.333-.293.783-.44 1.35-.44h1.7v-.55c0-.34-.103-.6-.31-.78-.2-.187-.487-.28-.86-.28-.327 0-.6.07-.82.21a.746.746 0 00-.38.55h-.9c.06-.473.283-.85.67-1.13.387-.28.87-.42 1.45-.42.633 0 1.133.163 1.5.49.367.327.55.77.55 1.33v3.78h-.88v-1.05h-.15l.15-.15c0 .4-.157.717-.47.95-.307.233-.717.35-1.23.35zm.22-.71c.427 0 .777-.107 1.05-.32a.996.996 0 00.41-.82v-.78h-1.68c-.3 0-.537.083-.71.25-.173.167-.26.393-.26.68 0 .307.103.55.31.73.213.173.507.26.88.26zm3.436.61l1.2-2.82-1.12-2.68h.87l.96 2.4h.53v-2.4h.76v2.4h.51l.99-2.4h.86l-1.12 2.65 1.2 2.85h-.9l-1-2.5h-.54v2.5h-.76v-2.5h-.54l-1.01 2.5h-.89zm8.816.1c-.253 0-.456-.073-.61-.22-.146-.147-.22-.343-.22-.59 0-.26.074-.467.22-.62.154-.153.357-.23.61-.23.254 0 .454.077.6.23.154.153.23.36.23.62 0 .247-.076.443-.23.59-.146.147-.346.22-.6.22zM27.76 164v-7.3h1.25v2.95h.87l1.37-2.95h1.36l-1.63 3.5 1.71 3.8H31.3l-1.44-3.21h-.85V164h-1.25zm8.236.09c-.467 0-.873-.087-1.22-.26-.34-.18-.607-.43-.8-.75-.187-.327-.28-.71-.28-1.15v-1.36c0-.44.093-.82.28-1.14.193-.327.46-.577.8-.75.347-.18.753-.27 1.22-.27.473 0 .88.09 1.22.27.34.173.603.423.79.75.193.32.29.697.29 1.13v1.37c0 .44-.097.823-.29 1.15-.187.32-.45.57-.79.75-.34.173-.747.26-1.22.26zm0-1.09c.333 0 .59-.09.77-.27.187-.187.28-.453.28-.8v-1.36c0-.353-.093-.62-.28-.8-.18-.18-.437-.27-.77-.27-.327 0-.583.09-.77.27-.187.18-.28.447-.28.8v1.36c0 .347.093.613.28.8.187.18.443.27.77.27zm3.776 1v-5.5h1.25v2.13h1.94v-2.13h1.25v5.5h-1.25v-2.21h-1.94V164h-1.25zm8.236.1c-.466 0-.876-.087-1.23-.26a2.001 2.001 0 01-.81-.75c-.193-.327-.29-.71-.29-1.15v-1.38c0-.447.097-.83.29-1.15a1.94 1.94 0 01.81-.74c.354-.18.764-.27 1.23-.27.694 0 1.247.18 1.66.54.414.353.63.837.65 1.45h-1.25c-.02-.287-.123-.507-.31-.66-.18-.16-.43-.24-.75-.24-.333 0-.596.093-.79.28-.193.18-.29.44-.29.78v1.39c0 .34.097.603.29.79.194.187.457.28.79.28.32 0 .57-.077.75-.23.187-.16.29-.383.31-.67h1.25c-.02.613-.236 1.1-.65 1.46-.413.353-.966.53-1.66.53zm4.636 1.7l.77-2.1-2.05-5.2h1.37l1.02 2.81c.054.153.107.34.16.56a8.7 8.7 0 01.12.53l.13-.53a6.44 6.44 0 01.16-.56l.96-2.81h1.32l-2.65 7.3h-1.31zm4.567-1.73v-1.14h.25c.226 0 .396-.09.51-.27.12-.187.183-.48.19-.88l.06-3.28h3.98v5.5h-1.25v-4.34h-1.5l-.04 2.19c-.014.48-.094.887-.24 1.22a1.667 1.667 0 01-.63.75c-.274.167-.607.25-1 .25h-.33zm6.586-.07v-5.5h1.25v1.8h1.42c.666 0 1.186.167 1.56.5.38.327.57.78.57 1.36 0 .567-.194 1.017-.58 1.35-.38.327-.894.49-1.54.49h-2.68zm1.25-1.1h1.37c.293 0 .516-.063.67-.19.16-.133.24-.32.24-.56 0-.24-.08-.423-.24-.55-.154-.133-.377-.2-.67-.2h-1.37v1.5zm6.296 1.1v-4.35h-1.88v-1.15h5.02v1.15h-1.88V164h-1.26zm4.406 0v-5.5h1.13v2.71c0 .173-.01.38-.03.62a11.7 11.7 0 01-.06.69c-.027.227-.054.423-.08.59l1.94-4.61h1.54v5.5h-1.13v-2.71c0-.18.006-.38.02-.6l.06-.65c.026-.213.053-.393.08-.54l-1.93 4.5h-1.54zm5.986 1.8v-7.3h1.22v1.05h.28l-.28.29c0-.447.133-.797.4-1.05.266-.26.626-.39 1.08-.39.553 0 .996.19 1.33.57.333.38.5.89.5 1.53v1.49c0 .427-.077.8-.23 1.12a1.688 1.688 0 01-.63.73c-.273.173-.597.26-.97.26-.454 0-.814-.127-1.08-.38-.267-.26-.4-.613-.4-1.06l.28.29h-.29l.04 1.31v1.54h-1.25zm2.26-2.78c.32 0 .57-.093.75-.28.18-.187.27-.453.27-.8v-1.38c0-.347-.09-.613-.27-.8-.18-.187-.43-.28-.75-.28-.314 0-.56.097-.74.29-.18.187-.27.45-.27.79v1.38c0 .34.09.607.27.8.18.187.427.28.74.28zm4.626 2.78l.77-2.1-2.05-5.2h1.37l1.02 2.81a10.537 10.537 0 01.28 1.09c.033-.14.077-.317.13-.53.053-.22.107-.407.16-.56l.96-2.81h1.32l-2.65 7.3h-1.31zm8.236-1.7c-.5 0-.893-.153-1.18-.46-.28-.307-.42-.713-.42-1.22v-.77h-.8V164h-1.07v-5.5h1.07v2.29h.8v-.72c0-.5.14-.903.42-1.21.28-.307.673-.46 1.18-.46.513 0 .927.153 1.24.46.32.3.48.703.48 1.21v2.35c0 .507-.16.913-.48 1.22-.32.307-.733.46-1.24.46zm0-.93c.193 0 .35-.067.47-.2.12-.14.18-.323.18-.55v-2.35c0-.22-.06-.397-.18-.53a.59.59 0 00-.47-.21.6.6 0 00-.48.21c-.113.133-.17.31-.17.53v2.35c0 .227.057.41.17.55.12.133.28.2.48.2zM27.77 178.8v-7.3h1.22v1.05h.28l-.28.29c0-.447.133-.797.4-1.05.267-.26.627-.39 1.08-.39.553 0 .997.19 1.33.57.333.38.5.89.5 1.53v1.49c0 .427-.077.8-.23 1.12a1.69 1.69 0 01-.63.73c-.273.173-.597.26-.97.26-.453 0-.813-.127-1.08-.38-.267-.26-.4-.613-.4-1.06l.28.29h-.29l.04 1.31v1.54h-1.25zm2.26-2.78c.32 0 .57-.093.75-.28.18-.187.27-.453.27-.8v-1.38c0-.347-.09-.613-.27-.8-.18-.187-.43-.28-.75-.28-.313 0-.56.097-.74.29-.18.187-.27.45-.27.79v1.38c0 .34.09.607.27.8.18.187.427.28.74.28zm4.626 2.78l.77-2.1-2.05-5.2h1.37l1.02 2.81a10.537 10.537 0 01.28 1.09c.033-.14.077-.317.13-.53.053-.22.107-.407.16-.56l.96-2.81h1.32l-2.65 7.3h-1.31zm5.146-1.8v-5.5h1.25v2.16h.82l1.34-2.16h1.4l-1.66 2.66 1.69 2.84h-1.43l-1.34-2.28h-.82V177h-1.25zm8.186.09c-.466 0-.873-.087-1.22-.26-.34-.18-.606-.43-.8-.75-.186-.327-.28-.71-.28-1.15v-1.36c0-.44.094-.82.28-1.14.194-.327.46-.577.8-.75.347-.18.754-.27 1.22-.27.474 0 .88.09 1.22.27.34.173.604.423.79.75.194.32.29.697.29 1.13v1.37c0 .44-.096.823-.29 1.15-.186.32-.45.57-.79.75-.34.173-.746.26-1.22.26zm0-1.09c.334 0 .59-.09.77-.27.187-.187.28-.453.28-.8v-1.36c0-.353-.093-.62-.28-.8-.18-.18-.436-.27-.77-.27-.326 0-.583.09-.77.27-.186.18-.28.447-.28.8v1.36c0 .347.094.613.28.8.187.18.444.27.77.27zm3.766 1v-5.5h2.44c.634 0 1.13.133 1.49.4.367.26.55.62.55 1.08 0 .373-.143.673-.43.9-.28.227-.653.34-1.12.34v-.09c.507 0 .914.12 1.22.36.307.233.46.547.46.94 0 .487-.186.87-.56 1.15-.366.28-.873.42-1.52.42h-2.53zm1.23-.95h1.26c.28 0 .5-.063.66-.19a.618.618 0 00.24-.51.638.638 0 00-.24-.53c-.16-.127-.38-.19-.66-.19h-1.26v1.42zm0-2.26h1.22c.247 0 .444-.06.59-.18a.6.6 0 00.22-.49.6.6 0 00-.22-.49c-.14-.127-.336-.19-.59-.19h-1.22v1.35zm6.996 3.3c-.466 0-.873-.087-1.22-.26-.34-.18-.606-.43-.8-.75-.186-.327-.28-.71-.28-1.15v-1.36c0-.44.094-.82.28-1.14.194-.327.46-.577.8-.75.347-.18.754-.27 1.22-.27.474 0 .88.09 1.22.27.34.173.604.423.79.75.194.32.29.697.29 1.13v1.37c0 .44-.096.823-.29 1.15-.186.32-.45.57-.79.75-.34.173-.746.26-1.22.26zm0-1.09c.334 0 .59-.09.77-.27.187-.187.28-.453.28-.8v-1.36c0-.353-.093-.62-.28-.8-.18-.18-.436-.27-.77-.27-.326 0-.583.09-.77.27-.186.18-.28.447-.28.8v1.36c0 .347.094.613.28.8.187.18.444.27.77.27zm3.247 2.4v-2.46h.37c.113-.113.23-.32.35-.62.126-.307.193-.687.2-1.14l.06-2.68h3.85v4.44h.65v2.46h-1.15V177h-3.18v1.4h-1.15zm1.64-2.46h2v-3.35h-1.5l-.04 1.59c-.007.447-.064.823-.17 1.13-.1.3-.197.51-.29.63zm7.126 1.16c-.467 0-.877-.087-1.23-.26a2.001 2.001 0 01-.81-.75c-.194-.327-.29-.71-.29-1.15v-1.38c0-.447.096-.83.29-1.15.193-.32.463-.567.81-.74.353-.18.763-.27 1.23-.27.693 0 1.246.18 1.66.54.413.353.63.837.65 1.45h-1.25c-.02-.287-.124-.507-.31-.66-.18-.16-.43-.24-.75-.24-.334 0-.597.093-.79.28-.194.18-.29.44-.29.78v1.39c0 .34.096.603.29.79.193.187.456.28.79.28.32 0 .57-.077.75-.23.186-.16.29-.383.31-.67h1.25c-.02.613-.237 1.1-.65 1.46-.414.353-.967.53-1.66.53zm5.346-.1v-4.35h-1.88v-1.15h5.02v1.15h-1.88V177h-1.26zm4.396 0v-5.5h2.44c.633 0 1.13.133 1.49.4.366.26.55.62.55 1.08 0 .373-.144.673-.43.9-.28.227-.653.34-1.12.34v-.09c.506 0 .913.12 1.22.36.306.233.46.547.46.94 0 .487-.187.87-.56 1.15-.367.28-.873.42-1.52.42h-2.53zm1.23-.95h1.26c.28 0 .5-.063.66-.19a.618.618 0 00.24-.51.638.638 0 00-.24-.53c-.16-.127-.38-.19-.66-.19h-1.26v1.42zm0-2.26h1.22c.246 0 .443-.06.59-.18a.599.599 0 00.22-.49.599.599 0 00-.22-.49c-.14-.127-.337-.19-.59-.19h-1.22v1.35zm6.996 3.3c-.467 0-.873-.087-1.22-.26-.34-.18-.607-.43-.8-.75-.187-.327-.28-.71-.28-1.15v-1.36c0-.44.093-.82.28-1.14.193-.327.46-.577.8-.75.347-.18.753-.27 1.22-.27.473 0 .88.09 1.22.27.34.173.603.423.79.75.193.32.29.697.29 1.13v1.37c0 .44-.097.823-.29 1.15-.187.32-.45.57-.79.75-.34.173-.747.26-1.22.26zm0-1.09c.333 0 .59-.09.77-.27.187-.187.28-.453.28-.8v-1.36c0-.353-.093-.62-.28-.8-.18-.18-.437-.27-.77-.27-.327 0-.583.09-.77.27-.187.18-.28.447-.28.8v1.36c0 .347.093.613.28.8.187.18.443.27.77.27zm9.932 1v-5.5h4.12v5.5h-.9v-4.68h-2.32V177h-.9zm8.056.08c-.44 0-.82-.083-1.14-.25a1.82 1.82 0 01-.75-.72c-.173-.32-.26-.697-.26-1.13v-1.46c0-.44.087-.817.26-1.13.18-.313.43-.553.75-.72.32-.167.7-.25 1.14-.25.44 0 .82.083 1.14.25.32.167.567.407.74.72.18.313.27.687.27 1.12v1.47c0 .433-.09.81-.27 1.13-.173.313-.42.553-.74.72-.32.167-.7.25-1.14.25zm0-.8c.394 0 .7-.11.92-.33.22-.22.33-.543.33-.97v-1.46c0-.427-.11-.75-.33-.97-.22-.22-.526-.33-.92-.33-.386 0-.693.11-.92.33-.22.22-.33.543-.33.97v1.46c0 .427.11.75.33.97.227.22.534.33.92.33zM27.94 190v-5.5h2.38c.573 0 1.017.13 1.33.39.313.253.47.61.47 1.07 0 .38-.13.687-.39.92-.26.227-.603.34-1.03.34v-.08c.467 0 .84.117 1.12.35.287.233.43.547.43.94 0 .493-.167.88-.5 1.16-.333.273-.8.41-1.4.41h-2.41zm.88-.79h1.53c.32 0 .567-.07.74-.21.18-.14.27-.337.27-.59 0-.26-.09-.46-.27-.6-.173-.14-.42-.21-.74-.21h-1.53v1.61zm0-2.39h1.5c.28 0 .5-.067.66-.2.167-.133.25-.32.25-.56 0-.24-.08-.427-.24-.56-.16-.14-.383-.21-.67-.21h-1.5v1.53zm7.176 3.26c-.44 0-.82-.083-1.14-.25a1.82 1.82 0 01-.75-.72c-.173-.32-.26-.697-.26-1.13v-1.46c0-.44.087-.817.26-1.13.18-.313.43-.553.75-.72.32-.167.7-.25 1.14-.25.44 0 .82.083 1.14.25.32.167.567.407.74.72.18.313.27.687.27 1.12v1.47c0 .433-.09.81-.27 1.13-.173.313-.42.553-.74.72-.32.167-.7.25-1.14.25zm0-.8c.393 0 .7-.11.92-.33.22-.22.33-.543.33-.97v-1.46c0-.427-.11-.75-.33-.97-.22-.22-.527-.33-.92-.33-.387 0-.693.11-.92.33-.22.22-.33.543-.33.97v1.46c0 .427.11.75.33.97.227.22.533.33.92.33zm3.936.72v-5.5h4.12v5.5h-.9v-4.68h-2.32V190h-.9zm5.976 1.8v-7.3h.9v1.05h.18l-.18.21c0-.42.137-.75.41-.99.28-.247.647-.37 1.1-.37.554 0 .994.183 1.32.55.334.36.5.857.5 1.49v1.61c0 .42-.076.783-.23 1.09a1.636 1.636 0 01-.63.71c-.266.167-.586.25-.96.25-.446 0-.81-.123-1.09-.37s-.42-.577-.42-.99l.18.21h-.2l.02 1.25v1.6h-.9zm2.11-2.48c.38 0 .677-.113.89-.34.22-.227.33-.553.33-.98v-1.5c0-.427-.11-.753-.33-.98-.213-.227-.51-.34-.89-.34-.366 0-.66.117-.88.35-.22.233-.33.557-.33.97v1.5c0 .413.11.737.33.97.22.233.514.35.88.35zm5.966.76c-.44 0-.82-.083-1.14-.25a1.82 1.82 0 01-.75-.72c-.173-.32-.26-.697-.26-1.13v-1.46c0-.44.087-.817.26-1.13.18-.313.43-.553.75-.72.32-.167.7-.25 1.14-.25.44 0 .82.083 1.14.25.32.167.567.407.74.72.18.313.27.687.27 1.12v1.47c0 .433-.09.81-.27 1.13-.173.313-.42.553-.74.72-.32.167-.7.25-1.14.25zm0-.8c.394 0 .7-.11.92-.33.22-.22.33-.543.33-.97v-1.46c0-.427-.11-.75-.33-.97-.22-.22-.526-.33-.92-.33-.386 0-.693.11-.92.33-.22.22-.33.543-.33.97v1.46c0 .427.11.75.33.97.227.22.534.33.92.33zm6.017.82c-.44 0-.827-.083-1.16-.25a1.805 1.805 0 01-.76-.72c-.18-.32-.27-.697-.27-1.13v-1.5c0-.44.09-.817.27-1.13.18-.313.433-.553.76-.72.333-.167.72-.25 1.16-.25.633 0 1.143.17 1.53.51.386.34.59.803.61 1.39h-.9c-.02-.353-.14-.623-.36-.81-.214-.193-.507-.29-.88-.29-.394 0-.707.113-.94.34-.234.22-.35.537-.35.95V188c0 .413.116.733.35.96.233.227.546.34.94.34.373 0 .666-.097.88-.29.22-.193.34-.463.36-.81h.9c-.02.587-.224 1.05-.61 1.39-.387.34-.897.51-1.53.51zm5.496 0c-.58 0-1.037-.147-1.37-.44-.334-.3-.5-.703-.5-1.21 0-.513.166-.917.5-1.21.333-.293.783-.44 1.35-.44h1.7v-.55c0-.34-.104-.6-.31-.78-.2-.187-.487-.28-.86-.28-.327 0-.6.07-.82.21a.747.747 0 00-.38.55h-.9c.06-.473.283-.85.67-1.13.386-.28.87-.42 1.45-.42.633 0 1.133.163 1.5.49.366.327.55.77.55 1.33V190h-.88v-1.05h-.15l.15-.15c0 .4-.157.717-.47.95-.307.233-.717.35-1.23.35zm.22-.71c.426 0 .776-.107 1.05-.32a.996.996 0 00.41-.82v-.78h-1.68c-.3 0-.537.083-.71.25-.174.167-.26.393-.26.68 0 .307.103.55.31.73.213.173.506.26.88.26zm4.016.61v-5.5h1.22l.72 2.11c.073.213.14.427.2.64.06.207.103.367.13.48.026-.113.066-.273.12-.48.06-.213.123-.43.19-.65l.68-2.1h1.22v5.5h-.87v-.85c0-.3.003-.627.01-.98l.02-1.07c.013-.36.026-.7.04-1.02.013-.327.023-.613.03-.86l-.98 3.13h-.95l-.99-3.11c.013.3.023.673.03 1.12.013.447.023.913.03 1.4.013.487.02.95.02 1.39v.85h-.87zM29.96 203.1c-.633 0-1.14-.17-1.52-.51-.38-.34-.58-.803-.6-1.39h.9c.02.347.137.617.35.81.213.193.503.29.87.29.393 0 .697-.113.91-.34.22-.227.33-.547.33-.96v-.4h-1.95v-.8h1.95v-.31c0-.413-.11-.73-.33-.95-.213-.227-.517-.34-.91-.34-.367 0-.657.097-.87.29-.213.187-.33.457-.35.81h-.9c.02-.587.22-1.05.6-1.39.38-.34.887-.51 1.52-.51.447 0 .827.083 1.14.25.32.167.567.407.74.72.173.313.26.69.26 1.13v1.5c0 .433-.087.81-.26 1.13-.173.313-.42.553-.74.72-.313.167-.693.25-1.14.25zm5.636 1.7V203c-.64 0-1.143-.18-1.51-.54-.367-.36-.55-.853-.55-1.48v-1.48c0-.62.183-1.107.55-1.46.373-.36.877-.54 1.51-.54v-1.8h.8v1.8c.64 0 1.143.18 1.51.54.367.353.55.84.55 1.46v1.48c0 .627-.183 1.12-.55 1.48-.367.36-.87.54-1.51.54v1.8h-.8zm.02-2.51v-4.08c-.387 0-.69.113-.91.34-.22.227-.33.543-.33.95v1.48c0 .407.11.727.33.96.22.233.523.35.91.35zm.76 0c.393 0 .697-.117.91-.35.22-.233.33-.553.33-.96v-1.48c0-.407-.11-.723-.33-.95-.213-.227-.517-.34-.91-.34v4.08zm5.216 2.51V203c-.64 0-1.143-.18-1.51-.54-.367-.36-.55-.853-.55-1.48v-1.48c0-.62.184-1.107.55-1.46.373-.36.877-.54 1.51-.54v-1.8h.8v1.8c.64 0 1.143.18 1.51.54.367.353.55.84.55 1.46v1.48c0 .627-.183 1.12-.55 1.48-.367.36-.87.54-1.51.54v1.8h-.8zm.02-2.51v-4.08c-.387 0-.69.113-.91.34-.22.227-.33.543-.33.95v1.48c0 .407.11.727.33.96.22.233.523.35.91.35zm.76 0c.394 0 .697-.117.91-.35.22-.233.33-.553.33-.96v-1.48c0-.407-.11-.723-.33-.95-.213-.227-.516-.34-.91-.34v4.08zm5.616.81a2.4 2.4 0 01-1.14-.26 1.881 1.881 0 01-.75-.73c-.173-.32-.26-.69-.26-1.11v-1.5c0-.427.087-.797.26-1.11.18-.313.43-.557.75-.73a2.4 2.4 0 011.14-.26c.434 0 .81.087 1.13.26.327.173.577.417.75.73.18.313.27.683.27 1.11v.97h-3.42v.53c0 .433.11.767.33 1 .22.227.534.34.94.34.347 0 .627-.06.84-.18a.795.795 0 00.39-.56h.9a1.53 1.53 0 01-.68 1.1c-.386.267-.87.4-1.45.4zm1.27-3.23v-.37c0-.433-.11-.767-.33-1-.213-.233-.526-.35-.94-.35-.406 0-.72.117-.94.35-.22.233-.33.567-.33 1v.29h2.61l-.07.08zm2.696 3.13v-5.5h.9v2.27h.94l1.6-2.27h1.03l-1.85 2.62 1.88 2.88h-1.05l-1.6-2.45h-.95V203h-.9zm7.577 0v-4.71h-2v-.79h4.9v.79h-2V203h-.9zm4.386 0v-5.5h.86v3c0 .193-.007.397-.02.61a8.72 8.72 0 01-.04.61 6.67 6.67 0 01-.05.48l2.22-4.7h1.15v5.5h-.86v-3c0-.193.003-.397.01-.61.013-.213.03-.417.05-.61.02-.2.036-.363.05-.49l-2.22 4.71h-1.15zm5.996 0v-5.5h2.38c.573 0 1.016.13 1.33.39.313.253.47.61.47 1.07 0 .38-.13.687-.39.92-.26.227-.604.34-1.03.34v-.08c.466 0 .84.117 1.12.35.286.233.43.547.43.94 0 .493-.167.88-.5 1.16-.334.273-.8.41-1.4.41h-2.41zm.88-.79h1.53c.32 0 .566-.07.74-.21.18-.14.27-.337.27-.59 0-.26-.09-.46-.27-.6-.174-.14-.42-.21-.74-.21h-1.53v1.61zm0-2.39h1.5c.28 0 .5-.067.66-.2.166-.133.25-.32.25-.56 0-.24-.08-.427-.24-.56-.16-.14-.384-.21-.67-.21h-1.5v1.53zm5.116 3.18v-5.5h.9v2.29h2.32v-2.29h.9v5.5h-.9v-2.39h-2.32V203h-.9zm8.056.08c-.44 0-.82-.083-1.14-.25a1.82 1.82 0 01-.75-.72c-.174-.32-.26-.697-.26-1.13v-1.46c0-.44.087-.817.26-1.13.18-.313.43-.553.75-.72.32-.167.7-.25 1.14-.25.44 0 .82.083 1.14.25.32.167.566.407.74.72.18.313.27.687.27 1.12v1.47c0 .433-.09.81-.27 1.13a1.76 1.76 0 01-.74.72c-.32.167-.7.25-1.14.25zm0-.8c.393 0 .7-.11.92-.33.22-.22.33-.543.33-.97v-1.46c0-.427-.11-.75-.33-.97-.22-.22-.527-.33-.92-.33-.387 0-.694.11-.92.33-.22.22-.33.543-.33.97v1.46c0 .427.11.75.33.97.227.22.533.33.92.33zm4.296.72v-5.5h3.95v.82h-3.05V203h-.9zm7.696.08c-.44 0-.82-.083-1.14-.25a1.82 1.82 0 01-.75-.72c-.173-.32-.26-.697-.26-1.13v-1.46c0-.44.087-.817.26-1.13.18-.313.43-.553.75-.72.32-.167.7-.25 1.14-.25.44 0 .82.083 1.14.25.32.167.567.407.74.72.18.313.27.687.27 1.12v1.47c0 .433-.09.81-.27 1.13-.173.313-.42.553-.74.72-.32.167-.7.25-1.14.25zm0-.8c.393 0 .7-.11.92-.33.22-.22.33-.543.33-.97v-1.46c0-.427-.11-.75-.33-.97-.22-.22-.527-.33-.92-.33-.387 0-.693.11-.92.33-.22.22-.33.543-.33.97v1.46c0 .427.11.75.33.97.227.22.533.33.92.33zM28.78 217.8l.81-2.14-2.04-5.16h1l1.28 3.4c.047.113.09.25.13.41l.1.39.1-.39c.04-.16.08-.297.12-.41l1.2-3.4h.97l-2.71 7.3h-.96zm5.156-1.8v-5.5h4.12v5.5h-.9v-4.68h-2.32V216h-.9zm5.976 1.8v-7.3h.9v1.05h.18l-.18.21c0-.42.137-.75.41-.99.28-.247.647-.37 1.1-.37.553 0 .993.183 1.32.55.333.36.5.857.5 1.49v1.61c0 .42-.077.783-.23 1.09a1.636 1.636 0 01-.63.71c-.266.167-.586.25-.96.25-.447 0-.81-.123-1.09-.37s-.42-.577-.42-.99l.18.21h-.2l.02 1.25v1.6h-.9zm2.11-2.48c.38 0 .677-.113.89-.34.22-.227.33-.553.33-.98v-1.5c0-.427-.11-.753-.33-.98-.213-.227-.51-.34-.89-.34-.366 0-.66.117-.88.35-.22.233-.33.557-.33.97v1.5c0 .413.11.737.33.97.22.233.514.35.88.35zm5.486.78c-.58 0-1.036-.147-1.37-.44-.333-.3-.5-.703-.5-1.21 0-.513.167-.917.5-1.21.334-.293.784-.44 1.35-.44h1.7v-.55c0-.34-.103-.6-.31-.78-.2-.187-.486-.28-.86-.28-.326 0-.6.07-.82.21a.747.747 0 00-.38.55h-.9c.06-.473.284-.85.67-1.13.387-.28.87-.42 1.45-.42.634 0 1.134.163 1.5.49.367.327.55.77.55 1.33V216h-.88v-1.05h-.15l.15-.15c0 .4-.156.717-.47.95-.306.233-.716.35-1.23.35zm.22-.71c.427 0 .777-.107 1.05-.32a.996.996 0 00.41-.82v-.78h-1.68c-.3 0-.536.083-.71.25-.173.167-.26.393-.26.68 0 .307.104.55.31.73.214.173.507.26.88.26zm4.196.61v-5.5h2.38c.574 0 1.017.13 1.33.39.314.253.47.61.47 1.07 0 .38-.13.687-.39.92-.26.227-.603.34-1.03.34v-.08c.467 0 .84.117 1.12.35.287.233.43.547.43.94 0 .493-.166.88-.5 1.16-.333.273-.8.41-1.4.41h-2.41zm.88-.79h1.53c.32 0 .567-.07.74-.21.18-.14.27-.337.27-.59 0-.26-.09-.46-.27-.6-.173-.14-.42-.21-.74-.21h-1.53v1.61zm0-2.39h1.5c.28 0 .5-.067.66-.2.167-.133.25-.32.25-.56 0-.24-.08-.427-.24-.56-.16-.14-.383-.21-.67-.21h-1.5v1.53zm4.426 3.25v-.84h.18c.307 0 .52-.12.64-.36.127-.24.194-.67.2-1.29l.06-3.08h3.73v5.5h-.9v-4.68H59.2l-.05 2.3c-.013.58-.08 1.05-.2 1.41-.113.36-.293.623-.54.79-.24.167-.556.25-.95.25h-.23zm8.747.03a2.4 2.4 0 01-1.14-.26 1.881 1.881 0 01-.75-.73c-.174-.32-.26-.69-.26-1.11v-1.5c0-.427.086-.797.26-1.11.18-.313.43-.557.75-.73a2.4 2.4 0 011.14-.26c.433 0 .81.087 1.13.26.326.173.576.417.75.73.18.313.27.683.27 1.11v.97h-3.42v.53c0 .433.11.767.33 1 .22.227.533.34.94.34.346 0 .626-.06.84-.18a.795.795 0 00.39-.56h.9c-.06.46-.287.827-.68 1.1-.387.267-.87.4-1.45.4zm1.27-3.23v-.37c0-.433-.11-.767-.33-1-.214-.233-.527-.35-.94-.35-.407 0-.72.117-.94.35-.22.233-.33.567-.33 1v.29h2.61l-.07.08zm2.666 3.13v-5.5h.9v2.29h2.32v-2.29h.9v5.5h-.9v-2.39h-2.32V216h-.9zm5.996 0v-5.5h.86v3c0 .193-.007.397-.02.61a8.72 8.72 0 01-.04.61 6.67 6.67 0 01-.05.48l2.22-4.7h1.15v5.5h-.86v-3c0-.193.003-.397.01-.61.013-.213.03-.417.05-.61.02-.2.036-.363.05-.49l-2.22 4.71h-1.15zm5.656 0l1.41-2.12c-.42-.1-.747-.293-.98-.58-.227-.287-.34-.643-.34-1.07 0-.54.177-.963.53-1.27.36-.307.85-.46 1.47-.46h2.37v5.5h-.9v-2.05h-1.21l-1.3 2.05h-1.05zm2.09-2.85h1.47v-1.85h-1.47c-.334 0-.597.083-.79.25-.194.16-.29.387-.29.68 0 .287.096.513.29.68.193.16.457.24.79.24zm12.302 2.93c-.44 0-.82-.083-1.14-.25a1.82 1.82 0 01-.75-.72c-.173-.32-.26-.697-.26-1.13v-1.46c0-.44.087-.817.26-1.13.18-.313.43-.553.75-.72.32-.167.7-.25 1.14-.25.44 0 .82.083 1.14.25.32.167.567.407.74.72.18.313.27.687.27 1.12v1.47c0 .433-.09.81-.27 1.13-.173.313-.42.553-.74.72-.32.167-.7.25-1.14.25zm0-.8c.393 0 .7-.11.92-.33.22-.22.33-.543.33-.97v-1.46c0-.427-.11-.75-.33-.97-.22-.22-.527-.33-.92-.33-.387 0-.693.11-.92.33-.22.22-.33.543-.33.97v1.46c0 .427.11.75.33.97.227.22.533.33.92.33zm5.546.72v-4.71h-2v-.79h4.9v.79h-2V216h-.9zm3.746 1.4v-2.17h.45c.114-.113.23-.337.35-.67.127-.333.194-.757.2-1.27l.06-2.79h3.59v4.73h.7v2.17h-.8V216h-3.75v1.4h-.8zm1.4-2.17h2.35v-3.93h-1.84l-.04 2.01c-.006.527-.063.953-.17 1.28-.106.327-.206.54-.3.64zm7.296.87c-.433 0-.813-.087-1.14-.26a1.881 1.881 0 01-.75-.73c-.173-.32-.26-.69-.26-1.11v-1.5c0-.427.087-.797.26-1.11.18-.313.43-.557.75-.73.327-.173.707-.26 1.14-.26.434 0 .81.087 1.13.26.327.173.577.417.75.73.18.313.27.683.27 1.11v.97h-3.42v.53c0 .433.11.767.33 1 .22.227.534.34.94.34.347 0 .627-.06.84-.18a.79.79 0 00.39-.56h.9a1.53 1.53 0 01-.68 1.1c-.386.267-.87.4-1.45.4zm1.27-3.23v-.37c0-.433-.11-.767-.33-1-.213-.233-.526-.35-.94-.35-.406 0-.72.117-.94.35-.22.233-.33.567-.33 1v.29h2.61l-.07.08zm1.976 3.2v-.84h.18c.307 0 .52-.12.64-.36.127-.24.194-.67.2-1.29l.06-3.08h3.73v5.5h-.9v-4.68h-1.94l-.05 2.3c-.013.58-.08 1.05-.2 1.41-.113.36-.293.623-.54.79-.24.167-.556.25-.95.25h-.23zm8.747.01c-.44 0-.82-.083-1.14-.25a1.82 1.82 0 01-.75-.72c-.174-.32-.26-.697-.26-1.13v-1.46c0-.44.086-.817.26-1.13.18-.313.43-.553.75-.72.32-.167.7-.25 1.14-.25.44 0 .82.083 1.14.25.32.167.566.407.74.72.18.313.27.687.27 1.12v1.47c0 .433-.09.81-.27 1.13a1.76 1.76 0 01-.74.72c-.32.167-.7.25-1.14.25zm0-.8c.393 0 .7-.11.92-.33.22-.22.33-.543.33-.97v-1.46c0-.427-.11-.75-.33-.97-.22-.22-.527-.33-.92-.33-.387 0-.694.11-.92.33-.22.22-.33.543-.33.97v1.46c0 .427.11.75.33.97.226.22.533.33.92.33zm3.756.72v-5.5h1.22l.72 2.11c.073.213.14.427.2.64.06.207.103.367.13.48.026-.113.066-.273.12-.48.06-.213.123-.43.19-.65l.68-2.1h1.22v5.5h-.87v-.85c0-.3.003-.627.01-.98l.02-1.07c.013-.36.026-.7.04-1.02.013-.327.023-.613.03-.86l-.98 3.13h-.95l-.99-3.11c.013.3.023.673.03 1.12.013.447.023.913.03 1.4.013.487.02.95.02 1.39v.85h-.87zM27.94 229v-5.5h4.12v5.5h-.9v-4.68h-2.32V229h-.9zm5.976 1.8v-7.3h.9v1.05h.18l-.18.21c0-.42.137-.75.41-.99.28-.247.647-.37 1.1-.37.553 0 .993.183 1.32.55.333.36.5.857.5 1.49v1.61c0 .42-.077.783-.23 1.09a1.636 1.636 0 01-.63.71c-.267.167-.587.25-.96.25-.447 0-.81-.123-1.09-.37s-.42-.577-.42-.99l.18.21h-.2l.02 1.25v1.6h-.9zm2.11-2.48c.38 0 .677-.113.89-.34.22-.227.33-.553.33-.98v-1.5c0-.427-.11-.753-.33-.98-.213-.227-.51-.34-.89-.34-.367 0-.66.117-.88.35-.22.233-.33.557-.33.97v1.5c0 .413.11.737.33.97.22.233.513.35.88.35zm5.966.76c-.44 0-.82-.083-1.14-.25a1.82 1.82 0 01-.75-.72c-.173-.32-.26-.697-.26-1.13v-1.46c0-.44.087-.817.26-1.13.18-.313.43-.553.75-.72.32-.167.7-.25 1.14-.25.44 0 .82.083 1.14.25.32.167.567.407.74.72.18.313.27.687.27 1.12v1.47c0 .433-.09.81-.27 1.13-.173.313-.42.553-.74.72-.32.167-.7.25-1.14.25zm0-.8c.394 0 .7-.11.92-.33.22-.22.33-.543.33-.97v-1.46c0-.427-.11-.75-.33-.97-.22-.22-.526-.33-.92-.33-.386 0-.693.11-.92.33-.22.22-.33.543-.33.97v1.46c0 .427.11.75.33.97.227.22.533.33.92.33zm3.296 2.12v-2.17h.45c.114-.113.23-.337.35-.67.127-.333.194-.757.2-1.27l.06-2.79h3.59v4.73h.7v2.17h-.8V229h-3.75v1.4h-.8zm1.4-2.17h2.35v-3.93h-1.84l-.04 2.01c-.006.527-.063.953-.17 1.28-.106.327-.206.54-.3.64zm6.816.87c-.58 0-1.036-.147-1.37-.44-.333-.3-.5-.703-.5-1.21 0-.513.167-.917.5-1.21.334-.293.784-.44 1.35-.44h1.7v-.55c0-.34-.103-.6-.31-.78-.2-.187-.486-.28-.86-.28-.326 0-.6.07-.82.21a.747.747 0 00-.38.55h-.9c.06-.473.284-.85.67-1.13.387-.28.87-.42 1.45-.42.634 0 1.134.163 1.5.49.367.327.55.77.55 1.33V229h-.88v-1.05h-.15l.15-.15c0 .4-.156.717-.47.95-.306.233-.716.35-1.23.35zm.22-.71c.427 0 .777-.107 1.05-.32a.996.996 0 00.41-.82v-.78h-1.68c-.3 0-.536.083-.71.25-.173.167-.26.393-.26.68 0 .307.104.55.31.73.214.173.507.26.88.26zm3.437.61l1.2-2.82-1.12-2.68h.87l.96 2.4h.53v-2.4h.76v2.4h.51l.99-2.4h.86l-1.12 2.65 1.2 2.85h-.9l-1-2.5h-.54v2.5h-.76v-2.5h-.54l-1.01 2.5h-.89zm8.816.1c-.254 0-.457-.073-.61-.22-.147-.147-.22-.343-.22-.59 0-.26.073-.467.22-.62.153-.153.356-.23.61-.23.253 0 .453.077.6.23.153.153.23.36.23.62 0 .247-.077.443-.23.59-.147.147-.347.22-.6.22zM27.76 245v-7.3h4.44v7.3h-1.25v-6.14h-1.94V245h-1.25zm5.986 1.8v-7.3h1.22v1.05h.28l-.28.29c0-.447.133-.797.4-1.05.267-.26.627-.39 1.08-.39.553 0 .997.19 1.33.57.333.38.5.89.5 1.53v1.49c0 .427-.077.8-.23 1.12a1.688 1.688 0 01-.63.73c-.273.173-.597.26-.97.26-.453 0-.813-.127-1.08-.38-.267-.26-.4-.613-.4-1.06l.28.29h-.29l.04 1.31v1.54h-1.25zm2.26-2.78c.32 0 .57-.093.75-.28.18-.187.27-.453.27-.8v-1.38c0-.347-.09-.613-.27-.8-.18-.187-.43-.28-.75-.28-.313 0-.56.097-.74.29-.18.187-.27.45-.27.79v1.38c0 .34.09.607.27.8.18.187.427.28.74.28zm5.966 1.07c-.467 0-.873-.087-1.22-.26-.34-.18-.607-.43-.8-.75-.187-.327-.28-.71-.28-1.15v-1.36c0-.44.093-.82.28-1.14.193-.327.46-.577.8-.75.347-.18.753-.27 1.22-.27.473 0 .88.09 1.22.27.34.173.603.423.79.75.193.32.29.697.29 1.13v1.37c0 .44-.097.823-.29 1.15-.187.32-.45.57-.79.75-.34.173-.747.26-1.22.26zm0-1.09c.333 0 .59-.09.77-.27.187-.187.28-.453.28-.8v-1.36c0-.353-.093-.62-.28-.8-.18-.18-.437-.27-.77-.27-.327 0-.583.09-.77.27-.187.18-.28.447-.28.8v1.36c0 .347.093.613.28.8.187.18.443.27.77.27zm3.766 1v-5.5h2.44c.633 0 1.13.133 1.49.4.367.26.55.62.55 1.08 0 .373-.143.673-.43.9-.28.227-.653.34-1.12.34v-.09c.507 0 .913.12 1.22.36.307.233.46.547.46.94 0 .487-.187.87-.56 1.15-.367.28-.873.42-1.52.42h-2.53zm1.23-.95h1.26c.28 0 .5-.063.66-.19a.618.618 0 00.24-.51.638.638 0 00-.24-.53c-.16-.127-.38-.19-.66-.19h-1.26v1.42zm0-2.26h1.22c.247 0 .443-.06.59-.18a.599.599 0 00.22-.49.599.599 0 00-.22-.49c-.14-.127-.337-.19-.59-.19h-1.22v1.35zm6.996 3.3c-.467 0-.873-.087-1.22-.26-.34-.18-.607-.43-.8-.75-.187-.327-.28-.71-.28-1.15v-1.36c0-.44.093-.82.28-1.14.193-.327.46-.577.8-.75.347-.18.753-.27 1.22-.27.473 0 .88.09 1.22.27.34.173.603.423.79.75.193.32.29.697.29 1.13v1.37c0 .44-.097.823-.29 1.15-.187.32-.45.57-.79.75-.34.173-.747.26-1.22.26zm0-1.09c.333 0 .59-.09.77-.27.187-.187.28-.453.28-.8v-1.36c0-.353-.093-.62-.28-.8-.18-.18-.437-.27-.77-.27-.327 0-.583.09-.77.27-.187.18-.28.447-.28.8v1.36c0 .347.093.613.28.8.187.18.443.27.77.27zm3.086 1l1.11-2.82-1.03-2.68h1.12l.88 2.43h.37v-2.43h.92v2.43h.37l.93-2.43h1.07l-1.03 2.65 1.11 2.85h-1.11l-.96-2.53h-.38V245h-.92v-2.53h-.39L58.2 245h-1.15zm7.566 1.8l.77-2.1-2.05-5.2h1.37l1.02 2.81c.054.153.107.34.16.56a8.7 8.7 0 01.12.53l.13-.53a6.44 6.44 0 01.16-.56l.96-2.81h1.32l-2.65 7.3h-1.31zm11.103 0v-7.3h1.22v1.05h.28l-.28.29c0-.447.133-.797.4-1.05.266-.26.626-.39 1.08-.39.553 0 .996.19 1.33.57.333.38.5.89.5 1.53v1.49c0 .427-.077.8-.23 1.12a1.69 1.69 0 01-.63.73c-.274.173-.597.26-.97.26-.454 0-.814-.127-1.08-.38-.267-.26-.4-.613-.4-1.06l.28.29h-.29l.04 1.31v1.54h-1.25zm2.26-2.78c.32 0 .57-.093.75-.28.18-.187.27-.453.27-.8v-1.38c0-.347-.09-.613-.27-.8-.18-.187-.43-.28-.75-.28-.314 0-.56.097-.74.29-.18.187-.27.45-.27.79v1.38c0 .34.09.607.27.8.18.187.426.28.74.28zm5.976 1.08c-.467 0-.874-.09-1.22-.27a2.001 2.001 0 01-.81-.75 2.26 2.26 0 01-.28-1.14v-1.38c0-.433.093-.81.28-1.13.193-.327.463-.58.81-.76.346-.18.753-.27 1.22-.27.46 0 .86.09 1.2.27.346.18.613.433.8.76.193.32.29.697.29 1.13v.99h-3.39v.39c0 .387.093.68.28.88.186.193.463.29.83.29.28 0 .506-.047.68-.14a.667.667 0 00.33-.43h1.23a1.763 1.763 0 01-.76 1.14c-.407.28-.904.42-1.49.42zm1.08-3.25v-.3c0-.38-.09-.67-.27-.87-.18-.207-.45-.31-.81-.31-.36 0-.634.103-.82.31-.187.207-.28.5-.28.88v.21l2.27-.02-.09.1zM88.15 245v-5.5h4.1v1.16H89.4V245h-1.25zm6.446 1.8l.77-2.1-2.05-5.2h1.37l1.02 2.81a10.537 10.537 0 01.28 1.09c.033-.14.076-.317.13-.53.053-.22.106-.407.16-.56l.96-2.81h1.32l-2.65 7.3h-1.31zm4.566-1.73v-1.14h.25c.227 0 .397-.09.51-.27.12-.187.183-.48.19-.88l.06-3.28h3.98v5.5h-1.25v-4.34h-1.5l-.04 2.19c-.013.48-.093.887-.24 1.22a1.671 1.671 0 01-.63.75c-.273.167-.607.25-1 .25h-.33zm6.306-.07l1.29-2.01a1.714 1.714 0 01-.89-.61 1.68 1.68 0 01-.32-1.03c0-.58.193-1.033.58-1.36.387-.327.92-.49 1.6-.49h2.42v5.5h-1.24v-1.87h-.89l-1.12 1.87h-1.43zm2.31-2.87h1.13v-1.6h-1.13c-.307 0-.547.07-.72.21-.173.14-.26.34-.26.6 0 .247.087.44.26.58.173.14.413.21.72.21zm3.916 4.67v-7.3h1.22v1.05h.28l-.28.29c0-.447.133-.797.4-1.05.267-.26.627-.39 1.08-.39.553 0 .997.19 1.33.57.333.38.5.89.5 1.53v1.49c0 .427-.077.8-.23 1.12a1.693 1.693 0 01-.63.73c-.273.173-.597.26-.97.26-.453 0-.813-.127-1.08-.38-.267-.26-.4-.613-.4-1.06l.28.29h-.29l.04 1.31v1.54h-1.25zm2.26-2.78c.32 0 .57-.093.75-.28.18-.187.27-.453.27-.8v-1.38c0-.347-.09-.613-.27-.8-.18-.187-.43-.28-.75-.28-.313 0-.56.097-.74.29-.18.187-.27.45-.27.79v1.38c0 .34.09.607.27.8.18.187.427.28.74.28zm3.746.98v-5.5h1.25v2.13h1.94v-2.13h1.25v5.5h-1.25v-2.21h-1.94V245h-1.25zm5.716 0v-5.5h1.08v1.86h.37c.594 0 1.064.167 1.41.5.347.333.52.78.52 1.34 0 .547-.176.983-.53 1.31-.346.327-.813.49-1.4.49h-1.45zm1.08-.97h.37c.287 0 .507-.073.66-.22.16-.147.24-.35.24-.61 0-.273-.08-.487-.24-.64-.153-.153-.373-.23-.66-.23h-.37v1.7zm2.84.97v-5.5h1.08v5.5h-1.08zm4.586.1c-.466 0-.873-.09-1.22-.27a2.01 2.01 0 01-.81-.75 2.266 2.266 0 01-.28-1.14v-1.38c0-.433.094-.81.28-1.13.194-.327.464-.58.81-.76.347-.18.754-.27 1.22-.27.46 0 .86.09 1.2.27.347.18.614.433.8.76.194.32.29.697.29 1.13v.99h-3.39v.39c0 .387.094.68.28.88.187.193.464.29.83.29.28 0 .507-.047.68-.14a.663.663 0 00.33-.43h1.23a1.76 1.76 0 01-.76 1.14c-.406.28-.903.42-1.49.42zm1.08-3.25v-.3c0-.38-.09-.67-.27-.87-.18-.207-.45-.31-.81-.31-.36 0-.633.103-.82.31-.186.207-.28.5-.28.88v.21l2.27-.02-.09.1zM30 258.1c-.467 0-.877-.087-1.23-.26a2.003 2.003 0 01-.81-.75c-.194-.327-.29-.71-.29-1.15v-1.38c0-.447.096-.83.29-1.15.193-.32.463-.567.81-.74.353-.18.763-.27 1.23-.27.693 0 1.246.18 1.66.54.413.353.63.837.65 1.45h-1.25c-.02-.287-.124-.507-.31-.66-.18-.16-.43-.24-.75-.24-.334 0-.597.093-.79.28-.194.18-.29.44-.29.78v1.39c0 .34.096.603.29.79.193.187.456.28.79.28.32 0 .57-.077.75-.23.186-.16.29-.383.31-.67h1.25c-.02.613-.237 1.1-.65 1.46-.414.353-.967.53-1.66.53zm5.986 0c-.467 0-.873-.09-1.22-.27a2.003 2.003 0 01-.81-.75 2.26 2.26 0 01-.28-1.14v-1.38c0-.433.093-.81.28-1.13a1.98 1.98 0 01.81-.76c.346-.18.753-.27 1.22-.27.46 0 .86.09 1.2.27.346.18.613.433.8.76.193.32.29.697.29 1.13v.99h-3.39v.39c0 .387.093.68.28.88.187.193.463.29.83.29.28 0 .506-.047.68-.14a.666.666 0 00.33-.43h1.23a1.762 1.762 0 01-.76 1.14c-.407.28-.904.42-1.49.42zm1.08-3.25v-.3c0-.38-.09-.67-.27-.87-.18-.207-.45-.31-.81-.31-.36 0-.633.103-.82.31-.187.207-.28.5-.28.88v.21l2.27-.02-.09.1zm4.926 3.25c-.467 0-.877-.087-1.23-.26a2.003 2.003 0 01-.81-.75c-.193-.327-.29-.71-.29-1.15v-1.38c0-.447.097-.83.29-1.15.193-.32.463-.567.81-.74.353-.18.763-.27 1.23-.27.693 0 1.247.18 1.66.54.413.353.63.837.65 1.45h-1.25c-.02-.287-.123-.507-.31-.66-.18-.16-.43-.24-.75-.24-.333 0-.597.093-.79.28-.193.18-.29.44-.29.78v1.39c0 .34.097.603.29.79.193.187.457.28.79.28.32 0 .57-.077.75-.23.187-.16.29-.383.31-.67h1.25c-.02.613-.237 1.1-.65 1.46-.413.353-.967.53-1.66.53zm5.996 0c-.467 0-.877-.087-1.23-.26a2.003 2.003 0 01-.81-.75c-.193-.327-.29-.71-.29-1.15v-1.38c0-.447.097-.83.29-1.15.193-.32.463-.567.81-.74.353-.18.763-.27 1.23-.27.693 0 1.247.18 1.66.54.413.353.63.837.65 1.45h-1.25c-.02-.287-.123-.507-.31-.66-.18-.16-.43-.24-.75-.24-.333 0-.597.093-.79.28-.193.18-.29.44-.29.78v1.39c0 .34.097.603.29.79.193.187.457.28.79.28.32 0 .57-.077.75-.23.187-.16.29-.383.31-.67h1.25c-.02.613-.237 1.1-.65 1.46-.413.353-.967.53-1.66.53zm3.756-.1v-5.5h1.13v2.71c0 .173-.01.38-.03.62-.013.233-.033.463-.06.69-.027.227-.053.423-.08.59l1.94-4.61h1.54v5.5h-1.13v-2.71c0-.18.007-.38.02-.6l.06-.65c.027-.213.053-.393.08-.54l-1.93 4.5h-1.54zm5.996 0v-5.5h1.13v2.71c0 .173-.01.38-.03.62a12.982 12.982 0 01-.14 1.28l1.94-4.61h1.54v5.5h-1.13v-2.71c0-.18.007-.38.02-.6l.06-.65c.027-.213.053-.393.08-.54l-1.93 4.5h-1.54zm14.212.09c-.466 0-.873-.087-1.22-.26-.34-.18-.606-.43-.8-.75-.186-.327-.28-.71-.28-1.15v-1.36c0-.44.094-.82.28-1.14.194-.327.46-.577.8-.75.347-.18.754-.27 1.22-.27.474 0 .88.09 1.22.27.34.173.604.423.79.75.194.32.29.697.29 1.13v1.37c0 .44-.096.823-.29 1.15-.186.32-.45.57-.79.75-.34.173-.746.26-1.22.26zm0-1.09c.334 0 .59-.09.77-.27.187-.187.28-.453.28-.8v-1.36c0-.353-.093-.62-.28-.8-.18-.18-.436-.27-.77-.27-.326 0-.583.09-.77.27-.186.18-.28.447-.28.8v1.36c0 .347.094.613.28.8.187.18.444.27.77.27zm5.996 1.1c-.7-.007-1.256-.203-1.67-.59-.406-.387-.61-.917-.61-1.59v-2.47c0-.88.237-1.557.71-2.03.474-.48 1.147-.72 2.02-.72h1.55v1.22h-1.55c-.48 0-.846.13-1.1.39-.246.26-.37.64-.37 1.14v.68h.14l-.13.16c0-.38.127-.68.38-.9.254-.22.61-.33 1.07-.33.58 0 1.03.19 1.35.57.327.373.49.893.49 1.56v.73c0 .447-.093.837-.28 1.17-.186.327-.45.58-.79.76-.333.173-.736.257-1.21.25zm0-1.09c.334 0 .587-.093.76-.28.174-.193.26-.463.26-.81v-.73c0-.353-.086-.623-.26-.81-.173-.187-.426-.28-.76-.28-.326 0-.58.093-.76.28-.173.18-.26.45-.26.81v.73c0 .347.087.617.26.81.18.187.434.28.76.28zm3.777.99v-5.5h1.25v2.13h1.94v-2.13h1.25v5.5h-1.25v-2.21h-1.94V258h-1.25zm8.216.09c-.467 0-.874-.087-1.22-.26-.34-.18-.607-.43-.8-.75-.187-.327-.28-.71-.28-1.15v-1.36c0-.44.093-.82.28-1.14.193-.327.46-.577.8-.75.346-.18.753-.27 1.22-.27.473 0 .88.09 1.22.27.34.173.603.423.79.75.193.32.29.697.29 1.13v1.37c0 .44-.097.823-.29 1.15-.187.32-.45.57-.79.75-.34.173-.747.26-1.22.26zm0-1.09c.333 0 .59-.09.77-.27.186-.187.28-.453.28-.8v-1.36c0-.353-.094-.62-.28-.8-.18-.18-.437-.27-.77-.27-.327 0-.584.09-.77.27-.187.18-.28.447-.28.8v1.36c0 .347.093.613.28.8.186.18.443.27.77.27zm3.766 1v-5.5h2.44c.633 0 1.13.133 1.49.4.366.26.55.62.55 1.08 0 .373-.144.673-.43.9-.28.227-.654.34-1.12.34v-.09c.506 0 .913.12 1.22.36.306.233.46.547.46.94 0 .487-.187.87-.56 1.15-.367.28-.874.42-1.52.42h-2.53zm1.23-.95h1.26c.28 0 .5-.063.66-.19a.618.618 0 00.24-.51.638.638 0 00-.24-.53c-.16-.127-.38-.19-.66-.19h-1.26v1.42zm0-2.26h1.22c.246 0 .443-.06.59-.18a.6.6 0 00.22-.49.6.6 0 00-.22-.49c-.14-.127-.337-.19-.59-.19h-1.22v1.35zm4.226 3.28v-1.14h.25c.227 0 .397-.09.51-.27.12-.187.183-.48.19-.88l.06-3.28h3.98v5.5h-1.25v-4.34h-1.5l-.04 2.19c-.013.48-.093.887-.24 1.22a1.671 1.671 0 01-.63.75c-.273.167-.607.25-1 .25h-.33zm8.776.03c-.467 0-.873-.09-1.22-.27a1.998 1.998 0 01-.81-.75 2.256 2.256 0 01-.28-1.14v-1.38c0-.433.093-.81.28-1.13.193-.327.463-.58.81-.76.347-.18.753-.27 1.22-.27.46 0 .86.09 1.2.27.347.18.613.433.8.76.193.32.29.697.29 1.13v.99h-3.39v.39c0 .387.093.68.28.88.187.193.463.29.83.29.28 0 .507-.047.68-.14a.669.669 0 00.33-.43h1.23a1.763 1.763 0 01-.76 1.14c-.407.28-.903.42-1.49.42zm1.08-3.25v-.3c0-.38-.09-.67-.27-.87-.18-.207-.45-.31-.81-.31-.36 0-.633.103-.82.31-.187.207-.28.5-.28.88v.21l2.27-.02-.09.1zm2.686 3.15v-5.5h1.25v2.13h1.94v-2.13h1.25v5.5h-1.25v-2.21h-1.94V258h-1.25zm5.996 0v-5.5h1.13v2.71c0 .173-.01.38-.03.62-.013.233-.033.463-.06.69-.027.227-.053.423-.08.59l1.94-4.61h1.54v5.5h-1.13v-2.71c0-.18.007-.38.02-.6l.06-.65c.027-.213.053-.393.08-.54l-1.93 4.5h-1.54zm5.756 0l1.29-2.01a1.718 1.718 0 01-.89-.61 1.68 1.68 0 01-.32-1.03c0-.58.194-1.033.58-1.36.387-.327.92-.49 1.6-.49h2.42v5.5h-1.24v-1.87h-.89l-1.12 1.87h-1.43zm2.31-2.87h1.13v-1.6h-1.13c-.306 0-.546.07-.72.21-.173.14-.26.34-.26.6 0 .247.087.44.26.58.174.14.414.21.72.21zM29.71 271.07c-.6 0-1.097-.137-1.49-.41-.394-.28-.63-.66-.71-1.14h1.25c.046.16.153.29.32.39.173.093.383.14.63.14h.53c.26 0 .463-.06.61-.18a.617.617 0 00.23-.5.61.61 0 00-.22-.5c-.147-.12-.354-.18-.62-.18h-1.26v-1h1.21c.246 0 .436-.057.57-.17a.572.572 0 00.2-.46.55.55 0 00-.35-.54 1.1 1.1 0 00-.42-.07h-.47c-.234 0-.434.05-.6.15-.16.1-.26.233-.3.4h-1.25a1.73 1.73 0 01.7-1.14c.386-.287.87-.43 1.45-.43h.47c.42 0 .78.063 1.08.19.306.12.543.293.71.52.166.22.25.487.25.8 0 .347-.127.63-.38.85-.254.22-.59.337-1.01.35v-.04c.48.013.853.14 1.12.38.266.233.4.557.4.97 0 .493-.194.887-.58 1.18-.38.293-.894.44-1.54.44h-.53zm4.046-.07v-5.5h1.25v2.13h1.94v-2.13h1.25v5.5h-1.25v-2.21h-1.94V271h-1.25zm7.606.1c-.567 0-1.013-.15-1.34-.45-.327-.3-.49-.703-.49-1.21 0-.54.18-.957.54-1.25.36-.293.87-.44 1.53-.44h1.37v-.47c0-.267-.087-.473-.26-.62-.173-.153-.41-.23-.71-.23-.273 0-.5.06-.68.18a.702.702 0 00-.32.49h-1.22c.06-.52.293-.933.7-1.24.407-.307.927-.46 1.56-.46.673 0 1.203.17 1.59.51.393.333.59.787.59 1.36V271h-1.21v-.96h-.2l.2-.27c0 .407-.15.73-.45.97-.3.24-.7.36-1.2.36zm.41-.94c.353 0 .64-.09.86-.27a.852.852 0 00.34-.7v-.67h-1.35c-.253 0-.457.073-.61.22a.766.766 0 00-.23.58c0 .26.087.467.26.62.18.147.423.22.73.22zm3.976.84v-5.5h1.25v2.13h1.94v-2.13h1.25v5.5h-1.25v-2.21h-1.94V271h-1.25zm5.996 0v-5.5h1.13v2.71c0 .173-.01.38-.03.62-.013.233-.033.463-.06.69-.027.227-.053.423-.08.59l1.94-4.61h1.54v5.5h-1.13v-2.71c0-.18.007-.38.02-.6l.06-.65c.027-.213.053-.393.08-.54l-1.93 4.5h-1.54zm5.996 0v-5.5h1.13v2.71c0 .173-.01.38-.03.62a12.982 12.982 0 01-.14 1.28l1.94-4.61h1.54v5.5h-1.13v-2.71c0-.18.007-.38.02-.6l.06-.65c.027-.213.053-.393.08-.54l-1.93 4.5h-1.54zm2.26-6.37c-.52 0-.943-.137-1.27-.41-.32-.273-.48-.63-.48-1.07h.97c0 .22.07.397.21.53.147.133.337.2.57.2.233 0 .42-.067.56-.2a.681.681 0 00.22-.53h.97c0 .44-.16.797-.48 1.07-.32.273-.743.41-1.27.41zm4.456 7.97l.8-3.11h1.6l-1.3 3.11h-1.1zm12.272.2l.81-2.14-2.04-5.16h1l1.28 3.4c.047.113.09.25.13.41.04.153.074.283.1.39l.1-.39c.04-.16.08-.297.12-.41l1.2-3.4h.97l-2.71 7.3h-.96zm8.317-1.8v-2c-.107.027-.27.053-.49.08-.214.02-.44.03-.68.03-.68.007-1.21-.157-1.59-.49-.374-.34-.56-.813-.56-1.42v-1.7h.9v1.7c0 .34.113.61.34.81.233.193.553.29.96.29.28 0 .516-.01.71-.03a3.8 3.8 0 00.41-.07v-2.7h.9v5.5h-.9zm2.836 0v-5.5h.86v3c0 .193-.007.397-.02.61a8.72 8.72 0 01-.04.61 6.67 6.67 0 01-.05.48l2.22-4.7H92v5.5h-.86v-3c0-.193.003-.397.01-.61.013-.213.03-.417.05-.61.02-.2.036-.363.05-.49L89.03 271h-1.15zm7.606 0v-4.71h-2v-.79h4.9v.79h-2V271h-.9zm4.096 0v-5.5h.84v2.02h.45c.593 0 1.06.157 1.4.47.347.307.52.73.52 1.27s-.173.967-.52 1.28c-.34.307-.807.46-1.4.46h-1.29zm.84-.72h.45c.353 0 .627-.09.82-.27.2-.18.3-.43.3-.75s-.1-.57-.3-.75c-.193-.18-.467-.27-.82-.27h-.45v2.04zm3.02.72v-5.5h.84v5.5h-.84zm2.426 0v-5.5h2.38c.573 0 1.017.13 1.33.39.313.253.47.61.47 1.07 0 .38-.13.687-.39.92-.26.227-.603.34-1.03.34v-.08c.467 0 .84.117 1.12.35.287.233.43.547.43.94 0 .493-.167.88-.5 1.16-.333.273-.8.41-1.4.41h-2.41zm.88-.79h1.53c.32 0 .567-.07.74-.21.18-.14.27-.337.27-.59 0-.26-.09-.46-.27-.6-.173-.14-.42-.21-.74-.21h-1.53v1.61zm0-2.39h1.5c.28 0 .5-.067.66-.2.167-.133.25-.32.25-.56 0-.24-.08-.427-.24-.56-.16-.14-.383-.21-.67-.21h-1.5v1.53zm6.696 3.28c-.58 0-1.037-.147-1.37-.44-.333-.3-.5-.703-.5-1.21 0-.513.167-.917.5-1.21.333-.293.783-.44 1.35-.44h1.7v-.55c0-.34-.103-.6-.31-.78-.2-.187-.487-.28-.86-.28-.327 0-.6.07-.82.21a.746.746 0 00-.38.55h-.9c.06-.473.283-.85.67-1.13.387-.28.87-.42 1.45-.42.633 0 1.133.163 1.5.49.367.327.55.77.55 1.33V271h-.88v-1.05h-.15l.15-.15c0 .4-.157.717-.47.95-.307.233-.717.35-1.23.35zm.22-.71c.427 0 .777-.107 1.05-.32a.996.996 0 00.41-.82v-.78h-1.68c-.3 0-.537.083-.71.25-.173.167-.26.393-.26.68 0 .307.103.55.31.73.213.173.507.26.88.26zm3.856.61l1.41-2.12c-.42-.1-.747-.293-.98-.58-.227-.287-.34-.643-.34-1.07 0-.54.177-.963.53-1.27.36-.307.85-.46 1.47-.46h2.37v5.5h-.9v-2.05h-1.21l-1.3 2.05h-1.05zm2.09-2.85h1.47v-1.85h-1.47c-.333 0-.597.083-.79.25-.193.16-.29.387-.29.68 0 .287.097.513.29.68.193.16.457.24.79.24zM27.92 284v-5.5h.86v3c0 .193-.007.397-.02.61a8.72 8.72 0 01-.04.61 6.67 6.67 0 01-.05.48l2.22-4.7h1.15v5.5h-.86v-3c0-.193.003-.397.01-.61.013-.213.03-.417.05-.61.02-.2.036-.363.05-.49L29.07 284h-1.15zm7.796.07c-.58 0-1.057-.123-1.43-.37a1.471 1.471 0 01-.66-1h.95c.047.167.17.303.37.41.207.107.463.16.77.16h.47c.327 0 .58-.077.76-.23a.739.739 0 00.28-.6c0-.267-.09-.477-.27-.63-.174-.153-.43-.23-.77-.23h-1.21v-.78h1.18c.306 0 .54-.073.7-.22a.75.75 0 00.24-.58.755.755 0 00-.11-.42.637.637 0 00-.31-.26c-.14-.06-.31-.09-.51-.09h-.5c-.267 0-.497.06-.69.18-.194.12-.31.267-.35.44h-.95c.066-.413.283-.753.65-1.02.367-.267.813-.4 1.34-.4h.5c.393 0 .73.063 1.01.19.28.12.493.293.64.52.153.227.23.497.23.81 0 .327-.107.597-.32.81-.213.207-.514.323-.9.35v.04c.473.033.816.16 1.03.38.213.22.32.537.32.95 0 .487-.18.873-.54 1.16-.36.287-.844.43-1.45.43h-.47zm4.016-.07v-5.5h1.22l.72 2.11c.073.213.14.427.2.64.06.207.103.367.13.48.027-.113.067-.273.12-.48.06-.213.123-.43.19-.65l.68-2.1h1.22v5.5h-.87v-.85c0-.3.003-.627.01-.98l.02-1.07c.013-.36.027-.7.04-1.02.013-.327.023-.613.03-.86l-.98 3.13h-.95l-.99-3.11c.013.3.023.673.03 1.12.013.447.023.913.03 1.4.013.487.02.95.02 1.39v.85h-.87zm8.236.1c-.433 0-.813-.087-1.14-.26a1.881 1.881 0 01-.75-.73c-.173-.32-.26-.69-.26-1.11v-1.5c0-.427.087-.797.26-1.11.18-.313.43-.557.75-.73.327-.173.707-.26 1.14-.26.433 0 .81.087 1.13.26a1.8 1.8 0 01.75.73c.18.313.27.683.27 1.11v.97h-3.42v.53c0 .433.11.767.33 1 .22.227.533.34.94.34.347 0 .627-.06.84-.18a.794.794 0 00.39-.56h.9c-.06.46-.287.827-.68 1.1-.387.267-.87.4-1.45.4zm1.27-3.23v-.37c0-.433-.11-.767-.33-1-.213-.233-.527-.35-.94-.35-.407 0-.72.117-.94.35-.22.233-.33.567-.33 1v.29h2.61l-.07.08zm2.666 3.13v-5.5h.9v2.29h2.32v-2.29h.9v5.5h-.9v-2.39h-2.32V284h-.9zm8.056.1c-.433 0-.813-.087-1.14-.26a1.881 1.881 0 01-.75-.73c-.173-.32-.26-.69-.26-1.11v-1.5c0-.427.087-.797.26-1.11.18-.313.43-.557.75-.73.327-.173.707-.26 1.14-.26.434 0 .81.087 1.13.26a1.8 1.8 0 01.75.73c.18.313.27.683.27 1.11v.97h-3.42v.53c0 .433.11.767.33 1 .22.227.533.34.94.34.347 0 .627-.06.84-.18a.795.795 0 00.39-.56h.9c-.06.46-.287.827-.68 1.1-.386.267-.87.4-1.45.4zm1.27-3.23v-.37c0-.433-.11-.767-.33-1-.213-.233-.526-.35-.94-.35-.407 0-.72.117-.94.35-.22.233-.33.567-.33 1v.29h2.61l-.07.08zm2.666 3.13v-5.5h.9v2.29h2.32v-2.29h.9v5.5h-.9v-2.39h-2.32V284h-.9zm5.996 0v-5.5h.86v3c0 .193-.006.397-.02.61-.006.213-.02.417-.04.61-.013.187-.03.347-.05.48l2.22-4.7h1.15v5.5h-.86v-3c0-.193.004-.397.01-.61.014-.213.03-.417.05-.61l.05-.49-2.22 4.71h-1.15zm5.657 0l1.41-2.12c-.42-.1-.747-.293-.98-.58-.227-.287-.34-.643-.34-1.07 0-.54.176-.963.53-1.27.36-.307.85-.46 1.47-.46h2.37v5.5h-.9v-2.05h-1.21l-1.3 2.05h-1.05zm2.09-2.85h1.47v-1.85h-1.47c-.334 0-.597.083-.79.25-.194.16-.29.387-.29.68 0 .287.096.513.29.68.193.16.456.24.79.24zm10.222 4.65v-7.3h.9v1.05h.18l-.18.21c0-.42.136-.75.41-.99.28-.247.646-.37 1.1-.37.553 0 .993.183 1.32.55.333.36.5.857.5 1.49v1.61c0 .42-.077.783-.23 1.09a1.636 1.636 0 01-.63.71c-.267.167-.587.25-.96.25-.447 0-.81-.123-1.09-.37s-.42-.577-.42-.99l.18.21h-.2l.02 1.25v1.6h-.9zm2.11-2.48c.38 0 .676-.113.89-.34.22-.227.33-.553.33-.98v-1.5c0-.427-.11-.753-.33-.98-.214-.227-.51-.34-.89-.34-.367 0-.66.117-.88.35-.22.233-.33.557-.33.97v1.5c0 .413.11.737.33.97.22.233.513.35.88.35zm3.616.68v-5.5h.84v2.02h.45c.593 0 1.06.157 1.4.47.346.307.52.73.52 1.27s-.174.967-.52 1.28c-.34.307-.807.46-1.4.46h-1.29zm.84-.72h.45c.353 0 .626-.09.82-.27.2-.18.3-.43.3-.75s-.1-.57-.3-.75c-.194-.18-.467-.27-.82-.27h-.45v2.04zm3.02.72v-5.5h.84v5.5h-.84zm2.426 0v-5.5h.9v2.29h2.32v-2.29h.9v5.5h-.9v-2.39h-2.32V284h-.9zm6.026 0v-5.5h.9v2.27h.94l1.6-2.27h1.03l-1.85 2.62 1.88 2.88h-1.05l-1.6-2.45h-.95V284h-.9zm7.546.1c-.58 0-1.037-.147-1.37-.44-.333-.3-.5-.703-.5-1.21 0-.513.167-.917.5-1.21.333-.293.783-.44 1.35-.44h1.7v-.55c0-.34-.103-.6-.31-.78-.2-.187-.487-.28-.86-.28-.327 0-.6.07-.82.21a.746.746 0 00-.38.55h-.9c.06-.473.283-.85.67-1.13.387-.28.87-.42 1.45-.42.633 0 1.133.163 1.5.49.367.327.55.77.55 1.33V284h-.88v-1.05h-.15l.15-.15c0 .4-.157.717-.47.95-.307.233-.717.35-1.23.35zm.22-.71c.427 0 .777-.107 1.05-.32a.996.996 0 00.41-.82v-.78h-1.68c-.3 0-.537.083-.71.25-.173.167-.26.393-.26.68 0 .307.103.55.31.73.213.173.507.26.88.26zm10.192.61v-5.5h.86v3c0 .193-.006.397-.02.61-.006.213-.02.417-.04.61-.013.187-.03.347-.05.48l2.22-4.7h1.15v5.5h-.86v-3c0-.193.004-.397.01-.61.014-.213.03-.417.05-.61l.05-.49-2.22 4.71h-1.15zM27.92 297v-5.5h.9v2.29h2.32v-2.29h.9v5.5h-.9v-2.39h-2.32V297h-.9zm8.056.08c-.44 0-.82-.083-1.14-.25a1.82 1.82 0 01-.75-.72c-.173-.32-.26-.697-.26-1.13v-1.46c0-.44.087-.817.26-1.13.18-.313.43-.553.75-.72.32-.167.7-.25 1.14-.25.44 0 .82.083 1.14.25.32.167.566.407.74.72.18.313.27.687.27 1.12v1.47c0 .433-.09.81-.27 1.13a1.76 1.76 0 01-.74.72c-.32.167-.7.25-1.14.25zm0-.8c.393 0 .7-.11.92-.33.22-.22.33-.543.33-.97v-1.46c0-.427-.11-.75-.33-.97-.22-.22-.527-.33-.92-.33-.387 0-.694.11-.92.33-.22.22-.33.543-.33.97v1.46c0 .427.11.75.33.97.227.22.533.33.92.33zm3.936.72v-5.5h2.38c.573 0 1.017.13 1.33.39.313.253.47.61.47 1.07 0 .38-.13.687-.39.92-.26.227-.603.34-1.03.34v-.08c.467 0 .84.117 1.12.35.287.233.43.547.43.94 0 .493-.167.88-.5 1.16-.333.273-.8.41-1.4.41h-2.41zm.88-.79h1.53c.32 0 .567-.07.74-.21.18-.14.27-.337.27-.59 0-.26-.09-.46-.27-.6-.173-.14-.42-.21-.74-.21h-1.53v1.61zm0-2.39h1.5c.28 0 .5-.067.66-.2.167-.133.25-.32.25-.56 0-.24-.08-.427-.24-.56-.16-.14-.383-.21-.67-.21h-1.5v1.53zm4.826 3.18v-5.5h.84v2.02h.45c.593 0 1.06.157 1.4.47.347.307.52.73.52 1.27s-.173.967-.52 1.28c-.34.307-.807.46-1.4.46h-1.29zm.84-.72h.45c.353 0 .627-.09.82-.27.2-.18.3-.43.3-.75s-.1-.57-.3-.75c-.193-.18-.467-.27-.82-.27h-.45v2.04zm3.02.72v-5.5h.84v5.5h-.84zm4.486.1c-.433 0-.813-.087-1.14-.26a1.881 1.881 0 01-.75-.73c-.173-.32-.26-.69-.26-1.11v-1.5c0-.427.087-.797.26-1.11.18-.313.43-.557.75-.73.327-.173.707-.26 1.14-.26.433 0 .81.087 1.13.26a1.8 1.8 0 01.75.73c.18.313.27.683.27 1.11v.97h-3.42v.53c0 .433.11.767.33 1 .22.227.533.34.94.34.347 0 .627-.06.84-.18a.795.795 0 00.39-.56h.9c-.06.46-.287.827-.68 1.1-.387.267-.87.4-1.45.4zm1.27-3.23v-.37c0-.433-.11-.767-.33-1-.213-.233-.527-.35-.94-.35-.407 0-.72.117-.94.35-.22.233-.33.567-.33 1v.29h2.61l-.07.08zM65.506 297v-4.71h-2v-.79h4.9v.79h-2V297h-.9zm6.446.1c-.433 0-.813-.087-1.14-.26a1.881 1.881 0 01-.75-.73c-.173-.32-.26-.69-.26-1.11v-1.5c0-.427.087-.797.26-1.11.18-.313.43-.557.75-.73.327-.173.707-.26 1.14-.26.434 0 .81.087 1.13.26a1.8 1.8 0 01.75.73c.18.313.27.683.27 1.11v.97h-3.42v.53c0 .433.11.767.33 1 .22.227.534.34.94.34.347 0 .627-.06.84-.18a.795.795 0 00.39-.56h.9a1.53 1.53 0 01-.68 1.1c-.386.267-.87.4-1.45.4zm1.27-3.23v-.37c0-.433-.11-.767-.33-1-.213-.233-.526-.35-.94-.35-.406 0-.72.117-.94.35-.22.233-.33.567-.33 1v.29h2.61l-.07.08zm2.666 3.13v-5.5h.9v2.29h2.32v-2.29h.9v5.5h-.9v-2.39h-2.32V297h-.9zm5.357 1.4v-2.17h.45c.113-.113.23-.337.35-.67.126-.333.193-.757.2-1.27l.06-2.79h3.59v4.73h.7v2.17h-.8V297h-3.75v1.4h-.8zm1.4-2.17h2.35v-3.93h-1.84l-.04 2.01c-.007.527-.064.953-.17 1.28-.107.327-.207.54-.3.64zm7.296.87a2.4 2.4 0 01-1.14-.26 1.881 1.881 0 01-.75-.73c-.174-.32-.26-.69-.26-1.11v-1.5c0-.427.086-.797.26-1.11.18-.313.43-.557.75-.73a2.4 2.4 0 011.14-.26c.433 0 .81.087 1.13.26.326.173.576.417.75.73.18.313.27.683.27 1.11v.97h-3.42v.53c0 .433.11.767.33 1 .22.227.533.34.94.34.346 0 .626-.06.84-.18a.795.795 0 00.39-.56h.9c-.06.46-.287.827-.68 1.1-.387.267-.87.4-1.45.4zm1.27-3.23v-.37c0-.433-.11-.767-.33-1-.214-.233-.527-.35-.94-.35-.407 0-.72.117-.94.35-.22.233-.33.567-.33 1v.29h2.61l-.07.08zm2.666 3.13v-5.5h.9v2.29h2.32v-2.29h.9v5.5h-.9v-2.39h-2.32V297h-.9zm9.906 1.4V297h-3.91v-5.5h.9v4.7h2.16v-4.7h.9v4.7h.75v2.2h-.8zm2.086-1.4v-5.5h.86v3c0 .193-.007.397-.02.61a8.72 8.72 0 01-.04.61c-.013.187-.03.347-.05.48l2.22-4.7h1.15v5.5h-.86v-3c0-.193.003-.397.01-.61.013-.213.03-.417.05-.61l.05-.49-2.22 4.71h-1.15zm5.996 0v-5.5h.86v3c0 .193-.007.397-.02.61a8.72 8.72 0 01-.04.61c-.013.187-.03.347-.05.48l2.22-4.7h1.15v5.5h-.86v-3c0-.193.003-.397.01-.61.013-.213.03-.417.05-.61l.05-.49-2.22 4.71h-1.15zm8.056.1c-.253 0-.457-.073-.61-.22-.147-.147-.22-.343-.22-.59 0-.26.073-.467.22-.62.153-.153.357-.23.61-.23s.453.077.6.23c.153.153.23.36.23.62 0 .247-.077.443-.23.59-.147.147-.347.22-.6.22z" fill="#000"/><circle cx="20.59" cy="104.535" r="2.951" stroke="#CCEC60" stroke-width=".843"/><circle cx="20.393" cy="159.059" r="2.951" stroke="#CCEC60" stroke-width=".843"/><circle cx="20.372" cy="240.059" r="2.951" stroke="#CCEC60" stroke-width=".843"/><g filter="url(#filter0_d_311_1306)"><path stroke="#CCEC60" stroke-width=".843" d="M23.218 64.243h110.451"/></g><mask id="a" style="mask-type:alpha" maskUnits="userSpaceOnUse" x="29" y="6" width="125" height="59"><rect x="29.904" y="6.343" width="123.941" height="58.176" rx="9.275" fill="#D9D9D9"/></mask><g mask="url(#a)"><path d="M60.348 77.016c-3.529 0-6.61-.685-9.243-2.054-2.58-1.422-4.581-3.397-6.003-5.925-1.422-2.58-2.133-5.582-2.133-9.005V34.754c0-3.476.711-6.477 2.133-9.005 1.422-2.528 3.423-4.476 6.003-5.846 2.634-1.421 5.714-2.132 9.243-2.132 3.58 0 6.661.71 9.242 2.132 2.58 1.37 4.581 3.318 6.003 5.846 1.422 2.528 2.133 5.53 2.133 9.005v25.278c0 3.423-.71 6.425-2.133 9.005-1.422 2.528-3.449 4.503-6.082 5.925-2.58 1.369-5.635 2.053-9.163 2.053zm0-6.083c3.16 0 5.687-1 7.583-3.002 1.948-2.053 2.923-4.687 2.923-7.899V34.754c0-3.212-.975-5.819-2.923-7.82-1.896-2.054-4.424-3.08-7.583-3.08-3.16 0-5.714 1.026-7.663 3.08-1.896 2.001-2.843 4.608-2.843 7.82v25.278c0 3.212.947 5.846 2.843 7.9 1.949 2 4.503 3.001 7.663 3.001zm0-18.88c-1.422 0-2.58-.447-3.476-1.342-.843-.895-1.264-2.08-1.264-3.555 0-1.422.421-2.554 1.264-3.397.895-.895 2.054-1.343 3.476-1.343 1.422 0 2.554.448 3.396 1.343.896.843 1.343 1.975 1.343 3.397 0 1.475-.447 2.66-1.343 3.555-.842.895-1.974 1.343-3.396 1.343zm56.054 24.173v-12.64H90.334V52.45l22.829-33.888h7.742L97.444 53.95v3.16h18.958V43.047h7.109v33.178h-7.109z" fill="#CCEC60"/></g><defs><linearGradient id="paint0_linear_311_1306" x1="0" y1="133.567" x2="232.385" y2="133.567" gradientUnits="userSpaceOnUse"><stop stop-color="#F1FFF7"/><stop offset="1" stop-color="#546A65"/></linearGradient><linearGradient id="paint1_linear_311_1306" x1="12.231" y1="16.028" x2="240.564" y2="141.39" gradientUnits="userSpaceOnUse"><stop stop-color="#475E59" stop-opacity=".7"/><stop offset="1" stop-color="#fff" stop-opacity=".7"/></linearGradient><filter id="filter0_d_311_1306" x="17.316" y="54.547" width="122.255" height="12.647" filterUnits="userSpaceOnUse" color-interpolation-filters="sRGB"><feFlood flood-opacity="0" result="BackgroundImageFix"/><feColorMatrix in="SourceAlpha" values="0 0 0 0 0 0 0 0 0 0 0 0 0 0 0 0 0 0 127 0" result="hardAlpha"/><feOffset dy="-3.373"/><feGaussianBlur stdDeviation="2.951"/><feComposite in2="hardAlpha" operator="out"/><feColorMatrix values="0 0 0 0 0 0 0 0 0 0 0 0 0 0 0 0 0 0 1 0"/><feBlend in2="BackgroundImageFix" result="effect1_dropShadow_311_1306"/><feBlend in="SourceGraphic" in2="effect1_dropShadow_311_1306" result="shape"/></filter></defs></svg>