<svg width="153" height="129" fill="none" xmlns="http://www.w3.org/2000/svg"><rect width="153" height="129" rx="20" fill="#223B38"/><path d="M9.66 39v-7.3h2.49c.513 0 .96.097 1.34.29.387.194.683.463.89.81.213.347.32.754.32 1.22 0 .46-.107.867-.32 1.22-.213.347-.51.617-.89.81-.38.194-.827.29-1.34.29h-.99V39h-1.5zm1.5-4.01h.99c.32 0 .573-.087.76-.26.193-.18.29-.416.29-.71 0-.293-.097-.527-.29-.7-.187-.18-.44-.27-.76-.27h-.99v1.94zm6.836 4.11c-.487 0-.91-.09-1.27-.27a2.087 2.087 0 01-.84-.77 2.27 2.27 0 01-.29-1.16v-1.3c0-.44.097-.823.29-1.15a2 2 0 01.84-.77c.36-.187.783-.28 1.27-.28.493 0 .917.093 1.27.28.36.18.637.437.83.77.2.327.3.71.3 1.15v1.3c0 .44-.1.827-.3 1.16a2.01 2.01 0 01-.83.77c-.353.18-.777.27-1.27.27zm0-1.3c.293 0 .517-.076.67-.23.153-.16.23-.383.23-.67v-1.3c0-.293-.077-.517-.23-.67-.153-.153-.377-.23-.67-.23-.287 0-.51.077-.67.23-.153.154-.23.377-.23.67v1.3c0 .287.077.51.23.67.16.154.383.23.67.23zm6.026 1.3c-.486 0-.913-.09-1.28-.27a2.072 2.072 0 01-.85-.77c-.2-.333-.3-.72-.3-1.16v-1.3c0-.447.1-.833.3-1.16.2-.326.483-.58.85-.76.367-.187.793-.28 1.28-.28.727 0 1.307.184 1.74.55.433.367.663.867.69 1.5h-1.5a.754.754 0 00-.28-.55c-.16-.133-.377-.2-.65-.2-.3 0-.53.077-.69.23-.16.154-.24.377-.24.67v1.3c0 .287.08.51.24.67.16.154.39.23.69.23.274 0 .49-.063.65-.19a.763.763 0 00.28-.56h1.5c-.027.634-.257 1.134-.69 1.5-.433.367-1.013.55-1.74.55zm5.216-.1v-4.1h-1.8v-1.4h5.1v1.4h-1.8V39h-1.5zm12.773.1c-.487 0-.914-.09-1.28-.27a2.072 2.072 0 01-.85-.77c-.2-.333-.3-.72-.3-1.16v-1.3c0-.447.1-.833.3-1.16.2-.326.483-.58.85-.76.366-.187.793-.28 1.28-.28.726 0 1.306.184 1.74.55.433.367.663.867.69 1.5h-1.5a.754.754 0 00-.28-.55c-.16-.133-.377-.2-.65-.2-.3 0-.53.077-.69.23-.16.154-.24.377-.24.67v1.3c0 .287.08.51.24.67.16.154.39.23.69.23.273 0 .49-.063.65-.19a.763.763 0 00.28-.56h1.5c-.027.634-.257 1.134-.69 1.5-.434.367-1.014.55-1.74.55zm3.626 1.7v-7.3h1.45v1.05h.35l-.35.35c0-.473.13-.84.39-1.1.26-.267.616-.4 1.07-.4.553 0 .996.197 1.33.59.333.387.5.907.5 1.56v1.4c0 .433-.077.813-.23 1.14-.147.32-.357.57-.63.75-.274.173-.597.26-.97.26-.454 0-.81-.13-1.07-.39-.26-.267-.39-.636-.39-1.11l.35.35h-.35l.05 1.35v1.5h-1.5zm2.37-3c.28 0 .493-.076.64-.23.153-.16.23-.383.23-.67v-1.3c0-.293-.077-.517-.23-.67-.147-.153-.36-.23-.64-.23-.274 0-.487.08-.64.24-.154.154-.23.373-.23.66v1.3c0 .287.076.51.23.67.153.154.366.23.64.23zm5.976 1.3c-.487 0-.914-.09-1.28-.27a2.087 2.087 0 01-.84-.77 2.27 2.27 0 01-.29-1.16v-1.3c0-.44.096-.823.29-1.15a2 2 0 01.84-.77c.366-.187.793-.28 1.28-.28.486 0 .906.093 1.26.28.36.18.636.437.83.77.2.327.3.71.3 1.15v1h-3.37v.3c0 .347.083.61.25.79.166.174.416.26.75.26.233 0 .42-.04.56-.12a.582.582 0 00.29-.33h1.47c-.12.48-.394.867-.82 1.16-.42.294-.927.44-1.52.44zm.96-3.27v-.25c0-.34-.08-.6-.24-.78-.154-.18-.394-.27-.72-.27-.327 0-.574.093-.74.28-.16.187-.24.45-.24.79v.15l2.04-.02-.1.1zm2.246 4.57v-2.67h.31c.113-.113.23-.31.35-.59.126-.287.193-.633.2-1.04l.05-2.6h4.05v4.23h.6v2.67h-1.4V39h-2.76v1.4h-1.4zm1.8-2.67h1.76v-2.94h-1.27l-.03 1.3a3.142 3.142 0 01-.17 1.02c-.1.287-.197.493-.29.62zM63.625 39v-5.5h1.5v2.01h1.68V33.5h1.5V39h-1.5v-2.09h-1.68V39h-1.5zm8.346.1c-.487 0-.913-.09-1.28-.27a2.087 2.087 0 01-.84-.77 2.27 2.27 0 01-.29-1.16v-1.3c0-.44.097-.823.29-1.15a2 2 0 01.84-.77c.367-.187.793-.28 1.28-.28s.907.093 1.26.28c.36.18.637.437.83.77.2.327.3.71.3 1.15v1h-3.37v.3c0 .347.083.61.25.79.167.174.417.26.75.26.233 0 .42-.04.56-.12a.581.581 0 00.29-.33h1.47c-.12.48-.393.867-.82 1.16-.42.294-.927.44-1.52.44zm.96-3.27v-.25c0-.34-.08-.6-.24-.78-.153-.18-.393-.27-.72-.27-.327 0-.573.093-.74.28-.16.187-.24.45-.24.79v.15l2.04-.02-.1.1zM76.107 39v-5.5h4.2v1.4h-2.7V39h-1.5zm7.846.1c-.487 0-.91-.09-1.27-.27a2.087 2.087 0 01-.84-.77 2.27 2.27 0 01-.29-1.16v-1.3c0-.44.097-.823.29-1.15a2 2 0 01.84-.77c.36-.187.783-.28 1.27-.28.493 0 .917.093 1.27.28.36.18.637.437.83.77.2.327.3.71.3 1.15v1.3c0 .44-.1.827-.3 1.16a2.01 2.01 0 01-.83.77c-.353.18-.776.27-1.27.27zm0-1.3c.293 0 .517-.076.67-.23.153-.16.23-.383.23-.67v-1.3c0-.293-.076-.517-.23-.67-.153-.153-.377-.23-.67-.23-.287 0-.51.077-.67.23-.153.154-.23.377-.23.67v1.3c0 .287.077.51.23.67.16.154.383.23.67.23zM96.745 39v-1.75c-.08.02-.206.044-.38.07a4.83 4.83 0 01-.57.03c-.726 0-1.3-.18-1.72-.54-.42-.367-.63-.87-.63-1.51v-1.8h1.5v1.7c0 .247.09.444.27.59.18.14.424.21.73.21.187 0 .35-.01.49-.03.147-.026.25-.05.31-.07v-2.4h1.5V39h-1.5zm5.206.1c-.486 0-.913-.09-1.28-.27a2.083 2.083 0 01-.84-.77 2.27 2.27 0 01-.29-1.16v-1.3c0-.44.097-.823.29-1.15a2 2 0 01.84-.77c.367-.187.794-.28 1.28-.28.487 0 .907.093 1.26.28.36.18.637.437.83.77.2.327.3.71.3 1.15v1h-3.37v.3c0 .347.084.61.25.79.167.174.417.26.75.26.234 0 .42-.04.56-.12a.578.578 0 00.29-.33h1.47c-.12.48-.393.867-.82 1.16-.42.294-.926.44-1.52.44zm.96-3.27v-.25c0-.34-.08-.6-.24-.78-.153-.18-.393-.27-.72-.27-.326 0-.573.093-.74.28-.16.187-.24.45-.24.79v.15l2.04-.02-.1.1zm2.717 3.17v-5.5h1.5v2.08h.74l1.15-2.08h1.67l-1.53 2.69 1.56 2.81h-1.7l-1.16-2.16h-.73V39h-1.5zm7.596.1c-.554 0-.994-.15-1.32-.45-.32-.3-.48-.706-.48-1.22 0-.553.19-.977.57-1.27.386-.3.94-.45 1.66-.45h1.14v-.41a.629.629 0 00-.23-.51c-.147-.127-.347-.19-.6-.19a.99.99 0 00-.58.16.653.653 0 00-.28.44h-1.45c.06-.553.3-.99.72-1.31.426-.327.973-.49 1.64-.49.7 0 1.253.174 1.66.52.413.34.62.8.62 1.38V39h-1.45v-.9h-.24l.25-.35c0 .413-.15.743-.45.99-.294.24-.687.36-1.18.36zm.56-1.1c.293 0 .533-.077.72-.23a.769.769 0 00.29-.62v-.59h-1.11a.764.764 0 00-.55.2.654.654 0 00-.21.51c0 .227.076.407.23.54.153.127.363.19.63.19zm9.802 1v-5.5h1.5v2.01h1.68V33.5h1.5V39h-1.5v-2.09h-1.68V39h-1.5zm7.626.1c-.553 0-.993-.15-1.32-.45-.32-.3-.48-.706-.48-1.22 0-.553.19-.977.57-1.27.387-.3.94-.45 1.66-.45h1.14v-.41a.629.629 0 00-.23-.51c-.147-.127-.347-.19-.6-.19a.993.993 0 00-.58.16.656.656 0 00-.28.44h-1.45c.06-.553.3-.99.72-1.31.427-.327.973-.49 1.64-.49.7 0 1.253.174 1.66.52.413.34.62.8.62 1.38V39h-1.45v-.9h-.24l.25-.35c0 .413-.15.743-.45.99-.293.24-.687.36-1.18.36zm.56-1.1c.293 0 .533-.077.72-.23a.769.769 0 00.29-.62v-.59h-1.11a.764.764 0 00-.55.2.654.654 0 00-.21.51.68.68 0 00.23.54c.153.127.363.19.63.19zM9.7 52v-1.41l2.32-2.24c.273-.267.477-.513.61-.74.14-.227.21-.473.21-.74 0-.293-.08-.52-.24-.68-.153-.16-.367-.24-.64-.24-.3 0-.537.09-.71.27-.167.174-.25.417-.25.73H9.5c0-.48.1-.893.3-1.24.207-.353.497-.627.87-.82.373-.193.813-.29 1.32-.29.473 0 .883.09 1.23.27.353.174.627.417.82.73.2.313.3.683.3 1.11 0 .474-.117.927-.35 1.36-.233.434-.607.887-1.12 1.36l-1.32 1.22h2.87V52H9.7zm8.286.1c-.727 0-1.303-.18-1.73-.54-.427-.36-.647-.846-.66-1.46h1.5c.013.22.097.393.25.52.153.12.367.18.64.18.293 0 .517-.073.67-.22.16-.153.24-.363.24-.63v-.71c0-.273-.077-.48-.23-.62-.153-.146-.38-.22-.68-.22-.18 0-.337.027-.47.08a.632.632 0 00-.3.22h-1.45l.05-4h4.31v1.35h-2.9l-.02 1.9h.31l-.32.25c0-.306.117-.547.35-.72.24-.18.563-.27.97-.27.593 0 1.053.18 1.38.54.333.353.5.85.5 1.49v.71c0 .667-.213 1.194-.64 1.58-.427.38-1.017.57-1.77.57zm2.856-.1l5.28-7.3h1.02l-5.28 7.3h-1.02zm4.55.05c-.433 0-.793-.123-1.08-.37-.28-.246-.42-.573-.42-.98v-.65c0-.406.14-.733.42-.98.287-.246.647-.37 1.08-.37.434 0 .79.123 1.07.37.287.247.43.574.43.98v.65c0 .407-.143.733-.43.98-.28.247-.636.37-1.07.37zm0-.84c.34 0 .51-.17.51-.51v-.65c0-.346-.17-.52-.51-.52-.34 0-.51.173-.51.52v.65c0 .34.17.51.51.51zm-2.8-3.21c-.42 0-.776-.12-1.07-.36-.287-.24-.43-.57-.43-.99V46c0-.42.143-.75.43-.99.294-.24.65-.36 1.07-.36.42 0 .774.12 1.06.36.293.24.44.57.44.99v.65c0 .42-.146.75-.44.99-.287.24-.64.36-1.06.36zm0-.83c.34 0 .51-.173.51-.52V46c0-.346-.17-.52-.51-.52-.166 0-.293.044-.38.13-.087.08-.13.21-.13.39v.65c0 .18.043.314.13.4.087.08.213.12.38.12z" fill="#CCEC60"/><path d="M35.984 52.1c-.646 0-1.16-.19-1.54-.57-.373-.386-.56-.913-.56-1.58v-2.5c0-.88.22-1.556.66-2.03.44-.48 1.07-.72 1.89-.72h1.4v.9h-1.4c-.54 0-.95.16-1.23.48-.28.314-.42.77-.42 1.37v.65h.14l-.14.2c.007-.393.14-.7.4-.92.26-.22.614-.33 1.06-.33.58 0 1.03.187 1.35.56.327.373.49.887.49 1.54v.8c0 .447-.083.83-.25 1.15-.166.32-.406.567-.72.74-.313.173-.69.26-1.13.26zm0-.8c.387 0 .684-.116.89-.35.207-.233.31-.567.31-1v-.8c0-.433-.103-.767-.31-1-.206-.233-.503-.35-.89-.35-.386 0-.683.117-.89.35-.206.227-.31.56-.31 1v.8c0 .433.104.767.31 1 .207.233.504.35.89.35zm3.246.77v-.84h.18c.307 0 .52-.12.64-.36.127-.24.194-.67.2-1.29l.06-3.08h3.73V52h-.9v-4.68H41.2l-.05 2.3c-.013.58-.08 1.05-.2 1.41-.113.36-.293.623-.54.79-.24.167-.556.25-.95.25h-.23zm8.267.03c-.58 0-1.037-.147-1.37-.44-.334-.3-.5-.703-.5-1.21 0-.513.166-.917.5-1.21.333-.293.783-.44 1.35-.44h1.7v-.55c0-.34-.104-.6-.31-.78-.2-.187-.487-.28-.86-.28-.327 0-.6.07-.82.21a.747.747 0 00-.38.55h-.9c.06-.473.283-.85.67-1.13.386-.28.87-.42 1.45-.42.633 0 1.133.163 1.5.49.366.327.55.77.55 1.33V52h-.88v-1.05h-.15l.15-.15c0 .4-.157.717-.47.95-.307.233-.717.35-1.23.35zm.22-.71c.426 0 .776-.107 1.05-.32a.995.995 0 00.41-.82v-.78h-1.68c-.3 0-.537.084-.71.25-.174.167-.26.394-.26.68 0 .307.103.55.31.73.213.173.506.26.88.26zm4.556.61v-5.5h3.95v.82h-3.05V52h-.9zm7.696.08c-.44 0-.82-.083-1.14-.25a1.814 1.814 0 01-.75-.72c-.174-.32-.26-.697-.26-1.13v-1.46c0-.44.086-.817.26-1.13.18-.313.43-.553.75-.72.32-.166.7-.25 1.14-.25.44 0 .82.084 1.14.25.32.167.566.407.74.72.18.313.27.687.27 1.12v1.47c0 .434-.09.81-.27 1.13a1.76 1.76 0 01-.74.72c-.32.167-.7.25-1.14.25zm0-.8c.393 0 .7-.11.92-.33.22-.22.33-.543.33-.97v-1.46c0-.427-.11-.75-.33-.97-.22-.22-.527-.33-.92-.33-.387 0-.694.11-.92.33-.22.22-.33.544-.33.97v1.46c0 .427.11.75.33.97.226.22.533.33.92.33zm3.296 2.12v-2.17h.45c.113-.113.23-.336.35-.67.127-.333.193-.757.2-1.27l.06-2.79h3.59v4.73h.7v2.17h-.8V52h-3.75v1.4h-.8zm1.4-2.17h2.35V47.3h-1.84l-.04 2.01c-.007.527-.064.953-.17 1.28-.107.327-.207.54-.3.64zm6.816.87c-.58 0-1.037-.147-1.37-.44-.333-.3-.5-.703-.5-1.21 0-.513.167-.917.5-1.21.333-.293.783-.44 1.35-.44h1.7v-.55c0-.34-.103-.6-.31-.78-.2-.187-.487-.28-.86-.28-.327 0-.6.07-.82.21a.747.747 0 00-.38.55h-.9c.06-.473.283-.85.67-1.13.387-.28.87-.42 1.45-.42.633 0 1.133.163 1.5.49.367.327.55.77.55 1.33V52h-.88v-1.05h-.15l.15-.15c0 .4-.157.717-.47.95-.307.233-.717.35-1.23.35zm.22-.71c.427 0 .777-.107 1.05-.32a.995.995 0 00.41-.82v-.78h-1.68c-.3 0-.537.084-.71.25-.173.167-.26.394-.26.68 0 .307.103.55.31.73.213.173.507.26.88.26zm4.176 2.41v-7.3h.9v1.05h.18l-.18.21c0-.42.137-.75.41-.99.28-.247.647-.37 1.1-.37.553 0 .993.184 1.32.55.333.36.5.857.5 1.49v1.61c0 .42-.077.784-.23 1.09a1.634 1.634 0 01-.63.71c-.267.167-.587.25-.96.25-.447 0-.81-.123-1.09-.37-.28-.246-.42-.576-.42-.99l.18.21h-.2l.02 1.25v1.6h-.9zm2.11-2.48c.38 0 .677-.113.89-.34.22-.226.33-.553.33-.98v-1.5c0-.426-.11-.753-.33-.98-.213-.227-.51-.34-.89-.34-.367 0-.66.117-.88.35-.22.233-.33.557-.33.97V50c0 .413.11.737.33.97.22.233.513.35.88.35zm3.566.68l1.41-2.12c-.42-.1-.746-.293-.98-.58-.227-.286-.34-.643-.34-1.07 0-.54.177-.963.53-1.27.36-.306.85-.46 1.47-.46h2.37V52h-.9v-2.05h-1.21l-1.3 2.05h-1.05zm2.09-2.85h1.47V47.3h-1.47c-.333 0-.597.084-.79.25-.193.16-.29.387-.29.68 0 .287.097.514.29.68.194.16.457.24.79.24zM9.94 65v-5.5h2.38c.573 0 1.017.13 1.33.39.313.254.47.61.47 1.07 0 .38-.13.687-.39.92-.26.227-.603.34-1.03.34v-.08c.467 0 .84.117 1.12.35.287.233.43.547.43.94 0 .493-.167.88-.5 1.16-.333.273-.8.41-1.4.41H9.94zm.88-.79h1.53c.32 0 .567-.07.74-.21.18-.14.27-.337.27-.59 0-.26-.09-.46-.27-.6-.173-.14-.42-.21-.74-.21h-1.53v1.61zm0-2.39h1.5c.28 0 .5-.066.66-.2.167-.133.25-.32.25-.56 0-.24-.08-.427-.24-.56-.16-.14-.383-.21-.67-.21h-1.5v1.53zM15.936 65v-5.5h.9v2.29h2.32V59.5h.9V65h-.9v-2.39h-2.32V65h-.9zm8.056.1c-.433 0-.813-.087-1.14-.26a1.88 1.88 0 01-.75-.73c-.173-.32-.26-.69-.26-1.11v-1.5c0-.426.087-.797.26-1.11.18-.313.43-.556.75-.73.327-.173.707-.26 1.14-.26.433 0 .81.087 1.13.26a1.8 1.8 0 01.75.73c.18.313.27.684.27 1.11v.97h-3.42V63c0 .434.11.767.33 1 .22.227.534.34.94.34.347 0 .627-.06.84-.18a.794.794 0 00.39-.56h.9c-.06.46-.287.827-.68 1.1-.387.267-.87.4-1.45.4zm1.27-3.23v-.37c0-.433-.11-.767-.33-1-.213-.233-.526-.35-.94-.35-.407 0-.72.117-.94.35-.22.233-.33.567-.33 1v.29h2.61l-.07.08zm2.026 4.53v-2.17h.45c.114-.113.23-.337.35-.67.127-.333.194-.757.2-1.27l.06-2.79h3.59v4.73h.7v2.17h-.8V65h-3.75v1.4h-.8zm1.4-2.17h2.35V60.3h-1.84l-.04 2.01c-.006.527-.063.953-.17 1.28-.106.327-.206.54-.3.64zm5.216 2.57v-7.3h.9v1.05h.18l-.18.21c0-.42.137-.75.41-.99.28-.247.647-.37 1.1-.37.554 0 .994.184 1.32.55.334.36.5.857.5 1.49v1.61c0 .42-.076.784-.23 1.09a1.635 1.635 0 01-.63.71c-.266.167-.586.25-.96.25-.446 0-.81-.123-1.09-.37-.28-.246-.42-.577-.42-.99l.18.21h-.2l.02 1.25v1.6h-.9zm2.11-2.48c.38 0 .677-.113.89-.34.22-.226.33-.553.33-.98v-1.5c0-.426-.11-.753-.33-.98-.213-.227-.51-.34-.89-.34-.366 0-.66.117-.88.35-.22.233-.33.557-.33.97V63c0 .413.11.737.33.97.22.234.514.35.88.35zm5.966.78c-.433 0-.813-.087-1.14-.26a1.88 1.88 0 01-.75-.73c-.173-.32-.26-.69-.26-1.11v-1.5c0-.426.087-.797.26-1.11.18-.313.43-.556.75-.73.327-.173.707-.26 1.14-.26.434 0 .81.087 1.13.26.327.174.577.417.75.73.18.313.27.684.27 1.11v.97h-3.42V63c0 .434.11.767.33 1 .22.227.534.34.94.34.347 0 .627-.06.84-.18a.794.794 0 00.39-.56h.9a1.53 1.53 0 01-.68 1.1c-.386.267-.87.4-1.45.4zm1.27-3.23v-.37c0-.433-.11-.767-.33-1-.213-.233-.526-.35-.94-.35-.406 0-.72.117-.94.35-.22.233-.33.567-.33 1v.29h2.61l-.07.08zM45.918 65v-5.5h.9v2.29h2.32V59.5h.9V65h-.9v-2.39h-2.32V65h-.9zm5.996 0v-5.5h.86v3c0 .194-.007.397-.02.61a8.68 8.68 0 01-.04.61 6.67 6.67 0 01-.05.48l2.22-4.7h1.15V65h-.86v-3c0-.193.003-.397.01-.61.013-.213.03-.416.05-.61.02-.2.036-.363.05-.49L53.063 65h-1.15zm8.916.1c-.46 0-.83-.156-1.11-.47-.28-.313-.42-.723-.42-1.23v-.83h-.88V65h-.83v-5.5h.83v2.35h.88v-.75c0-.513.136-.923.41-1.23.28-.313.653-.47 1.12-.47.493 0 .89.157 1.19.47.3.307.45.717.45 1.23v2.3c0 .507-.15.917-.45 1.23-.3.314-.697.47-1.19.47zm0-.7c.253 0 .45-.087.59-.26.146-.18.22-.426.22-.74v-2.3c0-.313-.074-.556-.22-.73-.14-.18-.337-.27-.59-.27-.247 0-.44.09-.58.27-.14.174-.21.417-.21.73v2.3c0 .314.07.56.21.74.14.174.333.26.58.26zm10.682.6v-4.71h-2v-.79h4.9v.79h-2V65h-.9zm6.446.1c-.433 0-.813-.087-1.14-.26a1.88 1.88 0 01-.75-.73c-.173-.32-.26-.69-.26-1.11v-1.5c0-.426.087-.797.26-1.11.18-.313.43-.556.75-.73.327-.173.707-.26 1.14-.26.433 0 .81.087 1.13.26a1.8 1.8 0 01.75.73c.18.313.27.684.27 1.11v.97h-3.42V63c0 .434.11.767.33 1 .22.227.533.34.94.34.347 0 .627-.06.84-.18a.794.794 0 00.39-.56h.9c-.06.46-.287.827-.68 1.1-.387.267-.87.4-1.45.4zm1.27-3.23v-.37c0-.433-.11-.767-.33-1-.213-.233-.527-.35-.94-.35-.407 0-.72.117-.94.35-.22.233-.33.567-.33 1v.29h2.61l-.07.08zM81.453 65l1.95-2.83-1.83-2.67h1.06l1.09 1.7c.047.073.09.153.13.24.047.087.084.157.11.21.02-.053.05-.123.09-.21.047-.087.094-.166.14-.24l1.1-1.7h1.05l-1.83 2.68 1.94 2.82h-1.06l-1.18-1.8a2.807 2.807 0 01-.14-.25 2.05 2.05 0 00-.11-.24c-.026.06-.066.14-.12.24a1.753 1.753 0 01-.15.25l-1.19 1.8h-1.05zm6.436 0v-5.5h.9v2.29h2.32V59.5h.9V65h-.9v-2.39h-2.32V65h-.9zm5.996 0v-5.5h.86v3c0 .194-.006.397-.02.61-.006.214-.02.417-.04.61-.013.187-.03.347-.05.48l2.22-4.7h1.15V65h-.86v-3c0-.193.004-.397.01-.61.014-.213.03-.416.05-.61l.05-.49-2.22 4.71h-1.15zm6.026 0v-5.5h.9v2.27h.94l1.6-2.27h1.03l-1.85 2.62 1.88 2.88h-1.05l-1.6-2.45h-.95V65h-.9zM12.04 78.1c-.44 0-.827-.083-1.16-.25a1.8 1.8 0 01-.76-.72c-.18-.32-.27-.697-.27-1.13v-1.5c0-.44.09-.817.27-1.13.18-.313.433-.553.76-.72a2.57 2.57 0 011.16-.25c.633 0 1.143.17 1.53.51.387.34.59.803.61 1.39h-.9c-.02-.353-.14-.623-.36-.81-.213-.193-.507-.29-.88-.29-.393 0-.707.114-.94.34-.233.22-.35.537-.35.95V76c0 .413.117.734.35.96.233.227.547.34.94.34.373 0 .667-.096.88-.29.22-.193.34-.463.36-.81h.9c-.02.587-.223 1.05-.61 1.39-.387.34-.897.51-1.53.51zm4.066-.1v-5.5h.88v1.05h.21l-.29.65c0-.593.127-1.04.38-1.34.26-.306.643-.46 1.15-.46.58 0 1.04.183 1.38.55.347.36.52.85.52 1.47v.33h-.9v-.25c0-.433-.107-.763-.32-.99-.207-.233-.503-.35-.89-.35-.38 0-.68.117-.9.35-.213.233-.32.563-.32.99V78h-.9zm7.886.08c-.44 0-.82-.083-1.14-.25a1.814 1.814 0 01-.75-.72c-.173-.32-.26-.697-.26-1.13v-1.46c0-.44.087-.816.26-1.13.18-.313.43-.553.75-.72.32-.166.7-.25 1.14-.25.44 0 .82.084 1.14.25.32.167.567.407.74.72.18.314.27.687.27 1.12v1.47c0 .433-.09.81-.27 1.13-.173.314-.42.553-.74.72-.32.167-.7.25-1.14.25zm0-.8c.393 0 .7-.11.92-.33.22-.22.33-.543.33-.97v-1.46c0-.426-.11-.75-.33-.97-.22-.22-.526-.33-.92-.33-.387 0-.693.11-.92.33-.22.22-.33.544-.33.97v1.46c0 .427.11.75.33.97.227.22.534.33.92.33zm5.826.8c-.373 0-.7-.056-.98-.17a1.67 1.67 0 01-.66-.5 1.528 1.528 0 01-.29-.76h.9c.04.194.147.347.32.46.18.114.417.17.71.17h.42c.354 0 .617-.07.79-.21a.723.723 0 00.26-.58.678.678 0 00-.24-.55c-.153-.14-.383-.233-.69-.28l-.74-.12c-.54-.093-.943-.26-1.21-.5-.26-.247-.39-.603-.39-1.07 0-.493.157-.873.47-1.14.314-.273.784-.41 1.41-.41h.38c.527 0 .95.123 1.27.37.32.247.514.58.58 1h-.9a.64.64 0 00-.3-.41c-.16-.106-.376-.16-.65-.16h-.38c-.34 0-.59.064-.75.19-.153.127-.23.317-.23.57 0 .227.067.394.2.5.134.107.344.183.63.23l.74.12c.594.094 1.024.267 1.29.52.274.254.41.62.41 1.1 0 .507-.163.907-.49 1.2-.32.287-.806.43-1.46.43h-.42zm5.996 0c-.373 0-.7-.056-.98-.17a1.67 1.67 0 01-.66-.5 1.528 1.528 0 01-.29-.76h.9c.04.194.147.347.32.46.18.114.417.17.71.17h.42c.354 0 .617-.07.79-.21a.723.723 0 00.26-.58.678.678 0 00-.24-.55c-.153-.14-.383-.233-.69-.28l-.74-.12c-.54-.093-.943-.26-1.21-.5-.26-.247-.39-.603-.39-1.07 0-.493.157-.873.47-1.14.314-.273.784-.41 1.41-.41h.38c.527 0 .95.123 1.27.37.32.247.514.58.58 1h-.9a.64.64 0 00-.3-.41c-.16-.106-.376-.16-.65-.16h-.38c-.34 0-.59.064-.75.19-.153.127-.23.317-.23.57 0 .227.067.394.2.5.134.107.344.183.63.23l.74.12c.594.094 1.024.267 1.29.52.274.254.41.62.41 1.1 0 .507-.163.907-.49 1.2-.32.287-.806.43-1.46.43h-.42zm4.566-2.98v-.8h3.2v.8h-3.2zm7.427 2.98c-.374 0-.7-.056-.98-.17a1.67 1.67 0 01-.66-.5 1.528 1.528 0 01-.29-.76h.9c.04.194.146.347.32.46.18.114.416.17.71.17h.42c.353 0 .616-.07.79-.21a.723.723 0 00.26-.58.678.678 0 00-.24-.55c-.154-.14-.384-.233-.69-.28l-.74-.12c-.54-.093-.944-.26-1.21-.5-.26-.247-.39-.603-.39-1.07 0-.493.156-.873.47-1.14.313-.273.783-.41 1.41-.41h.38c.526 0 .95.123 1.27.37.32.247.513.58.58 1h-.9a.64.64 0 00-.3-.41c-.16-.106-.377-.16-.65-.16h-.38c-.34 0-.59.064-.75.19-.154.127-.23.317-.23.57 0 .227.066.394.2.5.133.107.343.183.63.23l.74.12c.593.094 1.023.267 1.29.52.273.254.41.62.41 1.1 0 .507-.164.907-.49 1.2-.32.287-.807.43-1.46.43h-.42zm6.166.02c-.434 0-.814-.087-1.14-.26a1.88 1.88 0 01-.75-.73c-.174-.32-.26-.69-.26-1.11v-1.5c0-.427.086-.796.26-1.11.18-.313.43-.556.75-.73.326-.173.706-.26 1.14-.26.433 0 .81.087 1.13.26.326.174.576.417.75.73.18.314.27.683.27 1.11v.97h-3.42V76c0 .433.11.767.33 1 .22.227.533.34.94.34.346 0 .626-.06.84-.18a.794.794 0 00.39-.56h.9c-.06.46-.287.827-.68 1.1-.387.267-.87.4-1.45.4zm1.27-3.23v-.37c0-.433-.11-.766-.33-1-.214-.233-.527-.35-.94-.35-.407 0-.72.117-.94.35-.22.234-.33.567-.33 1v.29h2.61l-.07.08zM60.719 78c-.32 0-.6-.063-.84-.19a1.365 1.365 0 01-.56-.54 1.623 1.623 0 01-.2-.82v-4.93h-1.85v-.82h2.75v5.75c0 .227.063.407.19.54.126.127.296.19.51.19h1.75V78h-1.75zm5.996 0c-.32 0-.6-.063-.84-.19a1.365 1.365 0 01-.56-.54 1.625 1.625 0 01-.2-.82v-4.93h-1.85v-.82h2.75v5.75c0 .227.063.407.19.54.127.127.296.19.51.19h1.75V78h-1.75zm9.182 0v-5.5h.86v3c0 .194-.007.397-.02.61a8.48 8.48 0 01-.04.61c-.013.187-.03.347-.05.48l2.22-4.7h1.15V78h-.86v-3c0-.193.003-.397.01-.61.013-.213.03-.416.05-.61l.05-.49-2.22 4.71h-1.15zm14.042.1c-.633 0-1.14-.186-1.52-.56-.38-.38-.57-.893-.57-1.54v-3.5h.9V76c0 .413.107.737.32.97.214.227.504.34.87.34.374 0 .667-.113.88-.34.22-.233.33-.556.33-.97v-3.5h.9V76c0 .647-.193 1.16-.58 1.54-.386.373-.896.56-1.53.56zm3.926 1.7v-7.3h.9v1.05h.18l-.18.21c0-.42.137-.75.41-.99.28-.246.647-.37 1.1-.37.554 0 .994.183 1.32.55.334.36.5.857.5 1.49v1.61c0 .42-.076.784-.23 1.09a1.635 1.635 0 01-.63.71c-.266.167-.586.25-.96.25-.446 0-.81-.123-1.09-.37-.28-.246-.42-.577-.42-.99l.18.21h-.2l.02 1.25v1.6h-.9zm2.11-2.48c.38 0 .677-.113.89-.34.22-.227.33-.553.33-.98v-1.5c0-.427-.11-.753-.33-.98-.213-.227-.51-.34-.89-.34-.366 0-.66.117-.88.35-.22.233-.33.557-.33.97V76c0 .413.11.737.33.97.22.234.514.35.88.35zm4.366-2.22v-.8h3.2v.8h-3.2zm7.427 2.98c-.374 0-.7-.056-.98-.17a1.661 1.661 0 01-.66-.5 1.525 1.525 0 01-.29-.76h.9c.04.194.146.347.32.46.18.114.416.17.71.17h.42c.353 0 .616-.07.79-.21a.723.723 0 00.26-.58.678.678 0 00-.24-.55c-.154-.14-.384-.233-.69-.28l-.74-.12c-.54-.093-.944-.26-1.21-.5-.26-.247-.39-.603-.39-1.07 0-.493.156-.873.47-1.14.313-.273.783-.41 1.41-.41h.38c.526 0 .95.123 1.27.37.32.247.513.58.579 1h-.899a.64.64 0 00-.3-.41c-.16-.106-.377-.16-.65-.16h-.38c-.34 0-.59.064-.75.19-.154.127-.23.317-.23.57 0 .227.066.394.2.5.133.107.343.183.63.23l.74.12c.593.094 1.023.267 1.29.52.273.254.41.62.41 1.1 0 .507-.164.907-.49 1.2-.32.287-.807.43-1.46.43h-.42zm6.166.02c-.434 0-.814-.087-1.14-.26a1.88 1.88 0 01-.75-.73c-.174-.32-.26-.69-.26-1.11v-1.5c0-.427.086-.796.26-1.11.18-.313.43-.556.75-.73.326-.173.706-.26 1.14-.26.433 0 .81.087 1.13.26.326.174.576.417.75.73.18.314.27.683.27 1.11v.97h-3.42V76c0 .433.11.767.33 1 .22.227.533.34.94.34.346 0 .626-.06.84-.18a.796.796 0 00.39-.56h.9c-.06.46-.287.827-.68 1.1-.387.267-.87.4-1.45.4zm1.27-3.23v-.37c0-.433-.11-.766-.33-1-.214-.233-.527-.35-.94-.35-.407 0-.72.117-.94.35-.22.234-.33.567-.33 1v.29h2.61l-.07.08zM120.68 78c-.32 0-.6-.063-.84-.19a1.363 1.363 0 01-.56-.54 1.617 1.617 0 01-.2-.82v-4.93h-1.85v-.82h2.75v5.75c0 .227.063.407.19.54.126.127.296.19.51.19h1.75V78h-1.75zm5.996 0c-.32 0-.6-.063-.84-.19a1.363 1.363 0 01-.56-.54 1.617 1.617 0 01-.2-.82v-4.93h-1.85v-.82h2.75v5.75c0 .227.063.407.19.54.126.127.296.19.51.19h1.75V78h-1.75zm5.246.1c-.253 0-.457-.073-.61-.22-.147-.146-.22-.343-.22-.59 0-.26.073-.467.22-.62.153-.153.357-.23.61-.23s.453.077.6.23c.153.153.23.36.23.62 0 .247-.077.444-.23.59-.147.147-.347.22-.6.22z" fill="#fff"/></svg>