<svg width="180" height="179" fill="none" xmlns="http://www.w3.org/2000/svg"><g filter="url(#filter0_d_394_1494)"><rect x="4" width="171.961" height="171" rx="16.011" fill="#E1EDE4"/></g><mask id="a" style="mask-type:alpha" maskUnits="userSpaceOnUse" x="4" y="0" width="172" height="43"><path fill="#C9D9CD" d="M4 0h171.961v42.27H4z"/></mask><g mask="url(#a)"><rect x="4" y="-1.69" width="171.961" height="118.355" rx="16.011" fill="#C09F6D"/></g><path d="M18.59 17.096c-.448 0-.839-.083-1.172-.25a1.872 1.872 0 01-.759-.72c-.173-.314-.26-.682-.26-1.105v-3.055c0-.423.087-.788.26-1.095.18-.314.432-.554.759-.72.333-.174.724-.26 1.172-.26.455 0 .845.086 1.172.26.327.166.576.406.75.72.179.307.268.67.268 1.085v3.065c0 .423-.09.791-.269 1.105a1.808 1.808 0 01-.749.72c-.327.167-.717.25-1.172.25zm0-1.057c.327 0 .573-.086.74-.26.166-.178.25-.431.25-.758v-3.055c0-.333-.084-.586-.25-.759-.167-.173-.413-.26-.74-.26s-.573.087-.74.26c-.166.173-.25.426-.25.76v3.054c0 .327.084.58.25.759.173.173.42.26.74.26zm5.69 1.057c-.673-.006-1.208-.195-1.605-.567-.39-.371-.586-.88-.586-1.527v-2.373c0-.845.228-1.495.682-1.95.455-.461 1.102-.692 1.941-.692h1.489v1.172h-1.489c-.461 0-.813.125-1.057.375-.237.25-.355.615-.355 1.095v.653h.134l-.125.154c0-.365.122-.653.365-.865.244-.211.587-.317 1.028-.317.558 0 .99.183 1.297.548.314.359.471.858.471 1.498v.702c0 .429-.09.804-.269 1.124-.18.314-.432.557-.759.73-.32.166-.708.246-1.162.24zm0-1.047c.32 0 .563-.09.73-.27.166-.185.25-.444.25-.777V14.3c0-.339-.084-.598-.25-.778-.167-.179-.41-.269-.73-.269-.314 0-.558.09-.73.27-.167.172-.25.432-.25.777v.702c0 .333.083.592.25.778.172.18.416.269.73.269zm4.402 2.68l.74-2.017-1.97-4.996h1.316l.98 2.7c.052.147.103.326.154.538.051.205.09.374.115.509.032-.135.074-.304.125-.51.052-.21.103-.39.154-.537l.922-2.7h1.268l-2.545 7.013h-1.259zM36.542 17v-1.777a5.284 5.284 0 01-.403.067c-.179.02-.378.029-.595.029-.68 0-1.21-.167-1.595-.5-.384-.34-.576-.81-.576-1.412v-1.69h1.2v1.632c0 .276.096.494.289.654.192.153.454.23.787.23.218 0 .407-.01.567-.029.16-.025.27-.048.327-.067v-2.42h1.21V17h-1.21zm4.816.096c-.448 0-.839-.086-1.172-.26a1.923 1.923 0 01-.778-.72 2.17 2.17 0 01-.269-1.095v-1.326c0-.416.09-.778.27-1.085.185-.314.444-.557.777-.73.333-.173.724-.26 1.172-.26.442 0 .826.087 1.153.26.333.172.59.416.769.73.185.307.278.669.278 1.085v.951h-3.257v.375c0 .371.09.653.27.845.179.186.445.279.797.279.269 0 .487-.045.653-.134a.642.642 0 00.317-.414h1.182c-.09.455-.333.82-.73 1.096-.391.269-.868.403-1.432.403zm1.038-3.122v-.288c0-.365-.087-.644-.26-.836-.172-.199-.432-.298-.778-.298-.346 0-.608.1-.787.298-.18.198-.27.48-.27.845v.202l2.181-.02-.086.097zM44.906 17v-5.284h1.2v2.046h1.864v-2.046h1.201V17h-1.2v-2.123h-1.865V17h-1.2zm5.69 0v-5.284h1.085v2.604c0 .166-.01.365-.029.595a10.89 10.89 0 01-.058.663c-.025.218-.05.407-.077.567l1.864-4.429h1.48V17h-1.086v-2.603c0-.173.007-.366.02-.577.018-.211.038-.42.057-.624a9.79 9.79 0 01.077-.519L52.075 17h-1.48zm7.831.096c-.448 0-.839-.086-1.172-.26a1.923 1.923 0 01-.778-.72 2.168 2.168 0 01-.269-1.095v-1.326c0-.416.09-.778.27-1.085.185-.314.444-.557.777-.73.333-.173.724-.26 1.172-.26.442 0 .826.087 1.153.26.333.172.59.416.769.73.185.307.278.669.278 1.085v.951H57.37v.375c0 .371.09.653.27.845.179.186.445.279.797.279.269 0 .487-.045.653-.134a.642.642 0 00.317-.414h1.182c-.09.455-.333.82-.73 1.096-.391.269-.868.403-1.432.403zm1.038-3.122v-.288c0-.365-.087-.644-.26-.836-.173-.199-.432-.298-.778-.298-.346 0-.608.1-.788.298-.179.198-.269.48-.269.845v.202l2.181-.02-.086.097zm8.2 3.026v-5.284h4.265V17h-1.201v-4.17h-1.864V17h-1.2zm5.68 1.73v-7.014h1.171v1.009h.27l-.27.279c0-.43.128-.766.385-1.01.256-.249.602-.374 1.037-.374.532 0 .958.183 1.278.548.32.365.48.855.48 1.47v1.431c0 .41-.073.769-.22 1.076a1.631 1.631 0 01-.606.701 1.7 1.7 0 01-.932.25c-.435 0-.781-.122-1.037-.365-.257-.25-.385-.59-.385-1.018l.27.278h-.28l.04 1.259v1.48h-1.202zm2.17-2.672c.308 0 .548-.09.72-.268.174-.18.26-.436.26-.769v-1.326c0-.333-.086-.589-.26-.768-.172-.18-.412-.27-.72-.27-.3 0-.538.094-.71.28-.173.179-.26.432-.26.758v1.326c0 .327.087.583.26.769.172.179.41.268.71.268zm5.661 1.029c-.448 0-.839-.084-1.172-.25a1.938 1.938 0 01-.768-.72c-.18-.315-.27-.683-.27-1.106v-1.306c0-.423.09-.788.27-1.095.185-.314.442-.554.768-.72.333-.174.724-.26 1.172-.26.455 0 .846.086 1.172.26.327.166.58.406.76.72.185.307.278.669.278 1.085v1.316c0 .423-.093.791-.279 1.105-.18.308-.432.548-.759.72-.326.167-.717.25-1.172.25zm0-1.048c.32 0 .567-.086.74-.26.18-.178.269-.435.269-.768v-1.306c0-.34-.09-.596-.269-.769-.173-.173-.42-.259-.74-.259-.314 0-.56.086-.74.26-.179.172-.269.428-.269.768v1.306c0 .333.09.59.27.769.179.173.425.26.74.26zm3.048 2.306v-2.363h.355c.11-.11.221-.308.337-.596.121-.294.185-.66.192-1.095l.057-2.575h3.7v4.266h.624v2.363h-1.105V17h-3.055v1.345h-1.105zm1.575-2.363h1.922v-3.219H86.28l-.039 1.528c-.006.429-.06.79-.163 1.085-.096.289-.189.49-.279.606zm6.17 1.114c-.544 0-.973-.144-1.287-.432-.314-.288-.47-.676-.47-1.163 0-.518.172-.919.518-1.2.346-.282.836-.423 1.47-.423h1.316v-.452c0-.256-.083-.454-.25-.595-.166-.148-.393-.221-.682-.221-.262 0-.48.057-.653.173a.675.675 0 00-.307.47h-1.172c.057-.5.282-.896.672-1.19.39-.296.89-.443 1.499-.443.647 0 1.156.164 1.527.49.378.32.567.756.567 1.307V17h-1.162v-.922h-.193l.193-.26c0 .391-.145.702-.433.932-.288.23-.672.346-1.153.346zm.394-.903c.34 0 .615-.086.827-.26a.82.82 0 00.326-.672v-.643H92.22c-.243 0-.438.07-.586.21a.736.736 0 00-.22.558c0 .25.083.448.25.596.172.14.406.211.7.211zM95.45 17l1.066-2.71-.99-2.574h1.076l.846 2.335h.355v-2.335h.884v2.335h.356l.893-2.335h1.028l-.99 2.546L101.041 17h-1.067l-.922-2.43h-.365V17h-.884v-2.43h-.374L96.554 17H95.45zm7.899.096c-.545 0-.974-.144-1.287-.432-.314-.288-.471-.676-.471-1.163 0-.518.173-.919.519-1.2.345-.282.835-.423 1.469-.423h1.317v-.452c0-.256-.084-.454-.25-.595-.167-.148-.394-.221-.682-.221-.263 0-.481.057-.654.173a.674.674 0 00-.307.47h-1.172c.058-.5.282-.896.672-1.19.391-.296.891-.443 1.499-.443.647 0 1.156.164 1.528.49.377.32.566.756.566 1.307V17h-1.162v-.922h-.192l.192-.26c0 .391-.144.702-.432.932-.289.23-.673.346-1.153.346zm.394-.903c.339 0 .615-.086.826-.26a.82.82 0 00.327-.672v-.643h-1.297c-.244 0-.439.07-.586.21a.733.733 0 00-.221.558c0 .25.083.448.249.596.173.14.407.211.702.211zm3.537.807v-5.284h1.441l.654 1.989c.07.218.128.423.173.615.051.192.083.336.096.432l.086-.432a7.93 7.93 0 01.173-.615l.625-1.989h1.441V17h-1.115v-.903a41.312 41.312 0 01.039-1.71c.012-.314.025-.612.038-.893l.048-.76-.797 2.739h-1.095l-.827-2.729c.02.27.039.602.058 1a39.412 39.412 0 01.077 2.354V17h-1.115zM19.166 31.87l-.125-1.624v-1.259h1.211v1.259l-.115 1.623h-.97zm-2.113 0l-.125-1.624v-1.259h1.21v1.259l-.115 1.623h-.97zM22.147 36v-5.284h1.086v2.604c0 .166-.01.365-.03.595-.012.224-.031.445-.057.663-.026.218-.051.407-.077.567l1.864-4.429h1.48V36h-1.086v-2.603c0-.173.006-.365.019-.577.02-.211.038-.42.058-.624.025-.205.05-.378.076-.519L23.627 36h-1.479zm7.563.067c-.576 0-1.054-.131-1.431-.394a1.62 1.62 0 01-.683-1.095h1.201a.645.645 0 00.308.375c.166.09.368.134.605.134h.51c.249 0 .444-.057.585-.173a.592.592 0 00.221-.48.586.586 0 00-.211-.48c-.141-.115-.34-.173-.596-.173h-1.21v-.96h1.162c.237 0 .42-.055.548-.164a.55.55 0 00.192-.442.525.525 0 00-.336-.519 1.062 1.062 0 00-.404-.067h-.451a1.1 1.1 0 00-.577.144.613.613 0 00-.288.384h-1.2c.076-.454.3-.82.672-1.095.371-.275.835-.413 1.393-.413h.451c.404 0 .75.06 1.038.183.294.115.522.281.682.5.16.21.24.467.24.768 0 .333-.122.605-.365.816-.244.212-.567.324-.97.337v-.039c.46.013.82.135 1.076.365.256.224.384.535.384.932 0 .474-.186.852-.557 1.134-.366.281-.859.422-1.48.422h-.509zm11.658.03a2.66 2.66 0 01-1.182-.25 1.923 1.923 0 01-.778-.721c-.186-.314-.279-.682-.279-1.105v-1.326c0-.429.093-.797.28-1.105.185-.307.444-.544.777-.71a2.57 2.57 0 011.182-.26c.666 0 1.197.173 1.595.519.397.34.605.804.624 1.393h-1.2c-.02-.275-.12-.487-.299-.634-.173-.154-.413-.23-.72-.23-.32 0-.573.089-.76.268-.185.173-.278.423-.278.75v1.335c0 .327.093.58.279.759.186.18.439.269.759.269.307 0 .547-.074.72-.221.18-.154.279-.368.298-.644h1.201c-.02.59-.227 1.057-.624 1.403-.398.34-.93.51-1.595.51zm5.67-.01c-.448 0-.839-.084-1.172-.25a1.94 1.94 0 01-.768-.72c-.18-.315-.27-.683-.27-1.106v-1.306c0-.423.09-.788.27-1.095.185-.314.442-.554.768-.72.333-.174.724-.26 1.172-.26.455 0 .846.086 1.172.26.327.166.58.406.76.72.185.307.278.669.278 1.085v1.316c0 .423-.093.791-.279 1.105-.18.308-.432.548-.759.72-.326.167-.717.25-1.172.25zm0-1.048c.32 0 .567-.086.74-.26.18-.178.269-.435.269-.768v-1.306c0-.34-.09-.596-.269-.769-.173-.173-.42-.259-.74-.259-.313 0-.56.086-.74.26-.179.172-.268.428-.268.768v1.306c0 .333.09.59.269.769.179.173.425.26.74.26zm5.71 1.057c-.45 0-.843-.083-1.182-.25a1.923 1.923 0 01-.779-.72c-.185-.314-.278-.682-.278-1.105v-1.326c0-.429.093-.797.278-1.105a1.86 1.86 0 01.779-.71c.339-.173.733-.26 1.181-.26.666 0 1.198.173 1.595.519.397.34.605.804.624 1.393h-1.2c-.02-.275-.119-.487-.298-.634-.173-.154-.413-.23-.72-.23-.321 0-.574.089-.76.268-.185.173-.278.423-.278.75v1.335c0 .327.093.58.278.759.186.18.439.269.76.269.307 0 .547-.074.72-.221.179-.154.278-.368.297-.644h1.201c-.019.59-.227 1.057-.624 1.403-.397.34-.929.51-1.595.51zM57.811 36v-4.179h-1.806v-1.105h4.823v1.105h-1.806V36h-1.21zm6.295.087c-.448 0-.839-.084-1.172-.25a1.938 1.938 0 01-.768-.72c-.18-.315-.27-.683-.27-1.106v-1.306c0-.423.09-.788.27-1.095.185-.314.442-.554.768-.72.333-.174.724-.26 1.172-.26.455 0 .846.086 1.172.26.327.166.58.406.76.72.185.307.278.669.278 1.085v1.316c0 .423-.093.791-.279 1.105-.18.308-.432.548-.759.72-.326.167-.717.25-1.172.25zm0-1.048c.32 0 .567-.086.74-.26.18-.178.269-.435.269-.768v-1.306c0-.34-.09-.596-.269-.769-.173-.173-.42-.259-.74-.259-.314 0-.56.086-.74.26-.179.172-.268.428-.268.768v1.306c0 .333.09.59.269.769.179.173.425.26.74.26zm3.327.961l1.239-1.931a1.65 1.65 0 01-.855-.586 1.611 1.611 0 01-.308-.99c0-.557.186-.992.558-1.306.371-.314.883-.47 1.537-.47h2.325V36h-1.192v-1.797h-.855L68.807 36h-1.373zm2.219-2.757h1.085v-1.537h-1.085c-.295 0-.525.067-.692.201-.166.135-.25.327-.25.577 0 .237.084.423.25.557.167.135.397.202.692.202zm3.7 2.757v-5.284h1.202v2.047h1.863v-2.047h1.201V36h-1.2v-2.123h-1.864V36h-1.201zm5.69 0v-5.284h1.086v2.604c0 .166-.01.365-.029.595-.012.224-.032.445-.057.663-.026.218-.052.407-.077.567l1.864-4.429h1.479V36h-1.086v-2.603c0-.173.007-.365.02-.577l.057-.624c.026-.205.052-.378.077-.519L80.523 36h-1.48zm5.46 0l1.239-1.931a1.648 1.648 0 01-.855-.586 1.611 1.611 0 01-.308-.99c0-.557.186-.992.558-1.306.371-.314.883-.47 1.537-.47h2.325V36h-1.192v-1.797h-.855L85.876 36h-1.373zm2.219-2.757h1.085v-1.537h-1.085c-.295 0-.525.067-.692.201-.166.135-.25.327-.25.577 0 .237.084.423.25.557.167.135.397.202.692.202zm8.862 2.824v-1.095h.24a.54.54 0 00.49-.26c.116-.179.176-.46.183-.845l.057-3.15h3.824V36h-1.2v-4.17h-1.442l-.038 2.105c-.013.46-.09.851-.23 1.172a1.617 1.617 0 01-.606.72c-.263.16-.583.24-.96.24h-.318zm9.215.03c-.48 0-.858-.148-1.133-.443-.269-.294-.404-.685-.404-1.172v-.74h-.768V36h-1.028v-5.284h1.028v2.2h.768v-.691c0-.48.135-.868.404-1.163.269-.295.647-.442 1.133-.442.494 0 .891.147 1.192.442.307.288.461.676.461 1.163v2.257c0 .487-.154.878-.461 1.172-.308.295-.705.442-1.192.442zm0-.894a.579.579 0 00.452-.193.785.785 0 00.173-.528v-2.257a.734.734 0 00-.173-.51.566.566 0 00-.452-.201.578.578 0 00-.461.201c-.109.128-.163.298-.163.51v2.257c0 .218.054.394.163.529a.59.59 0 00.461.192zm4.826.893c-.673-.006-1.208-.195-1.605-.567-.39-.371-.586-.88-.586-1.527v-2.373c0-.846.228-1.495.682-1.95.455-.461 1.102-.692 1.941-.692h1.489v1.172h-1.489c-.461 0-.814.125-1.057.375-.237.25-.355.615-.355 1.095v.653h.134l-.125.154c0-.365.122-.653.365-.865.244-.211.586-.317 1.028-.317.557 0 .99.183 1.297.548.314.358.471.858.471 1.498v.702c0 .429-.09.804-.269 1.124a1.85 1.85 0 01-.759.73c-.32.166-.708.246-1.162.24zm0-1.047c.32 0 .563-.09.73-.27.166-.185.249-.444.249-.777V33.3c0-.339-.083-.598-.249-.778-.167-.179-.41-.269-.73-.269-.314 0-.558.09-.731.27-.166.172-.249.432-.249.777v.702c0 .333.083.592.249.778.173.18.417.269.731.269zm3.547.951v-5.284h2.344c.608 0 1.085.128 1.431.385.353.25.529.595.529 1.037 0 .359-.138.647-.413.865-.269.217-.628.326-1.076.326v-.086c.486 0 .877.115 1.172.346.294.224.442.525.442.903 0 .467-.18.836-.538 1.105-.353.268-.839.403-1.461.403h-2.43zm1.181-.913h1.211c.269 0 .48-.06.634-.182a.592.592 0 00.231-.49.612.612 0 00-.231-.51c-.154-.121-.365-.182-.634-.182h-1.211v1.364zm0-2.17h1.173c.236 0 .425-.058.566-.174a.576.576 0 00.212-.47.576.576 0 00-.212-.471c-.134-.122-.323-.183-.566-.183h-1.173v1.297zM118.871 36v-5.284h1.086v2.604c0 .166-.01.365-.029.595a12.385 12.385 0 01-.135 1.23l1.864-4.429h1.48V36h-1.086v-2.603c0-.173.006-.365.019-.577l.058-.624c.025-.205.051-.378.077-.519L120.351 36h-1.48zm8.399-4.13l-.125-1.624v-1.259h1.21v1.259l-.115 1.623h-.97zm-2.114 0l-.124-1.624v-1.259h1.21v1.259l-.115 1.623h-.971zm7.227.364c-.269 0-.487-.074-.653-.22a.778.778 0 01-.24-.587c0-.243.08-.439.24-.586.166-.147.384-.22.653-.22s.484.073.644.22c.166.147.25.343.25.586a.765.765 0 01-.25.586c-.16.148-.375.221-.644.221zm0 3.862c-.269 0-.487-.074-.653-.22a.758.758 0 01-.24-.587c0-.243.08-.439.24-.586.166-.147.384-.22.653-.22s.484.073.644.22c.166.147.25.343.25.586a.746.746 0 01-.25.586c-.16.147-.375.221-.644.221zM16.611 60v-7.013h3.958V60h-.865v-6.225h-2.228V60h-.865zm5.67 1.73v-7.014h.865v1.009h.173l-.173.202c0-.404.131-.72.394-.951.269-.237.621-.356 1.057-.356.531 0 .954.176 1.268.529.32.345.48.823.48 1.431v1.547c0 .403-.073.752-.22 1.047a1.58 1.58 0 01-.606.682c-.256.16-.564.24-.922.24-.43 0-.778-.118-1.047-.355-.27-.237-.404-.554-.404-.951l.173.201h-.192l.02 1.201v1.537h-.865zm2.027-2.383c.366 0 .65-.11.855-.327.212-.218.317-.532.317-.941v-1.441c0-.41-.105-.724-.317-.942-.204-.218-.49-.326-.855-.326-.352 0-.634.112-.845.336-.211.224-.317.535-.317.932v1.44c0 .398.106.708.317.932.211.225.493.337.845.337zm5.661.73c-.422 0-.787-.08-1.095-.24a1.744 1.744 0 01-.72-.692c-.167-.307-.25-.67-.25-1.086v-1.402c0-.423.083-.785.25-1.086.173-.3.413-.531.72-.691.308-.16.673-.24 1.095-.24.423 0 .788.08 1.095.24.308.16.545.39.711.691.173.301.26.66.26 1.076v1.412c0 .417-.087.779-.26 1.086a1.683 1.683 0 01-.71.692c-.308.16-.673.24-1.096.24zm0-.769c.378 0 .673-.105.884-.317.211-.211.317-.522.317-.932v-1.402c0-.41-.106-.72-.317-.932-.211-.211-.506-.317-.884-.317-.371 0-.666.106-.884.317-.21.211-.317.522-.317.932v1.402c0 .41.106.72.317.932.218.212.513.317.884.317zM33.68 60v-5.284h2.286c.551 0 .977.125 1.278.375.301.243.452.586.452 1.028 0 .365-.125.66-.375.884-.25.217-.58.326-.99.326v-.077c.449 0 .807.113 1.076.337.276.224.414.525.414.903 0 .474-.16.845-.48 1.114-.321.263-.77.394-1.346.394H33.68zm.845-.759h1.47c.308 0 .545-.067.711-.202.173-.134.26-.323.26-.567 0-.25-.087-.441-.26-.576-.166-.134-.403-.202-.71-.202h-1.47v1.547zm0-2.296h1.441c.27 0 .48-.064.634-.192.16-.128.24-.307.24-.538 0-.23-.076-.41-.23-.538-.154-.135-.368-.202-.644-.202h-1.44v1.47zm6.824 3.151c-.417 0-.782-.083-1.095-.25a1.807 1.807 0 01-.721-.701 2.204 2.204 0 01-.25-1.066v-1.441c0-.41.084-.766.25-1.067.173-.3.413-.535.72-.701.314-.166.68-.25 1.096-.25.416 0 .778.084 1.085.25.314.166.554.4.72.701.174.301.26.657.26 1.067v.931H40.13v.51c0 .416.105.736.317.96.211.218.512.327.903.327.333 0 .602-.058.807-.173a.763.763 0 00.374-.538h.865a1.472 1.472 0 01-.653 1.057c-.372.256-.836.384-1.393.384zm1.22-3.103v-.355c0-.417-.106-.737-.317-.961-.205-.224-.506-.336-.903-.336-.391 0-.692.112-.903.336-.212.224-.317.544-.317.96v.28h2.507l-.067.076zm1.827 3.074v-.807h.173c.295 0 .5-.115.615-.346.122-.23.186-.643.192-1.239l.058-2.959h3.583V60h-.864v-4.496h-1.864l-.048 2.21c-.013.557-.077 1.008-.192 1.354-.11.346-.282.599-.519.76-.23.16-.535.24-.913.24h-.22zM50.75 60v-5.284h.826v2.882c0 .186-.006.381-.02.586-.005.205-.018.4-.038.586a6.1 6.1 0 01-.048.461l2.133-4.515h1.105V60h-.826v-2.882c0-.186.003-.381.01-.586.012-.205.028-.4.047-.586l.048-.47L51.854 60h-1.105zm12.926 0v-4.525h-1.921v-.759h4.707v.76H64.54V60h-.865zm4.124 1.73v-7.014h.864v1.009h.173l-.173.202c0-.404.132-.72.394-.951.27-.237.621-.356 1.057-.356.531 0 .954.176 1.268.529.32.345.48.823.48 1.431v1.547c0 .403-.073.752-.22 1.047a1.57 1.57 0 01-.606.682c-.256.16-.563.24-.922.24-.43 0-.778-.118-1.047-.355-.27-.237-.404-.554-.404-.951l.173.201h-.192l.02 1.201v1.537H67.8zm2.027-2.383c.365 0 .65-.11.855-.327.211-.218.317-.532.317-.941v-1.441c0-.41-.106-.724-.317-.942-.205-.218-.49-.326-.855-.326-.352 0-.634.112-.846.336-.211.224-.317.535-.317.932v1.44c0 .398.106.708.317.932.212.225.493.337.846.337zm5.66.75c-.416 0-.78-.084-1.095-.25a1.807 1.807 0 01-.72-.702 2.204 2.204 0 01-.25-1.066v-1.441c0-.41.083-.766.25-1.067.173-.3.413-.535.72-.701.314-.166.68-.25 1.096-.25.416 0 .778.084 1.085.25.314.166.554.4.72.701.174.301.26.657.26 1.067v.931h-3.286v.51c0 .416.106.736.317.96.212.218.513.327.904.327.333 0 .602-.058.806-.173a.763.763 0 00.375-.538h.865a1.472 1.472 0 01-.653 1.057c-.372.256-.836.384-1.393.384zm1.22-3.104v-.355c0-.417-.105-.737-.316-.961-.205-.224-.506-.336-.903-.336-.391 0-.692.112-.903.336-.212.224-.318.544-.318.96v.28h2.508l-.067.076zM79.198 60v-5.284h.865v2.2h2.229v-2.2h.864V60h-.864v-2.296h-2.23V60h-.864zm5.69 0v-5.284h.826v2.882c0 .186-.006.381-.02.586-.005.205-.018.4-.038.586a6.1 6.1 0 01-.048.461l2.133-4.515h1.105V60h-.826v-2.882c0-.186.003-.381.01-.586.012-.205.028-.4.047-.586l.048-.47L85.992 60h-1.105zm5.69 0v-5.284h.864v2.2h2.229v-2.2h.864V60h-.864v-2.296H91.44V60h-.864zm6.035 0v-5.284h3.795v.788h-2.93V60h-.865zm5.344 0v-5.284h.826v2.882c0 .186-.006.381-.019.586-.007.205-.019.4-.039.586-.012.18-.028.333-.048.461l2.133-4.515h1.105V60h-.826v-2.882c0-.186.003-.381.009-.586.013-.205.029-.4.048-.586l.048-.47L103.061 60h-1.105zm11.379 0v-5.284h3.958V60h-.864v-4.496h-2.23V60h-.865zm7.669.077c-.423 0-.788-.08-1.095-.24a1.742 1.742 0 01-.721-.692c-.166-.307-.25-.67-.25-1.086v-1.402c0-.423.084-.785.25-1.086.173-.3.413-.531.721-.691.307-.16.672-.24 1.095-.24.423 0 .788.08 1.095.24.307.16.544.39.711.691.173.301.259.66.259 1.076v1.412c0 .417-.086.779-.259 1.086a1.689 1.689 0 01-.711.692c-.307.16-.672.24-1.095.24zm0-.769c.378 0 .672-.105.884-.317.211-.211.317-.522.317-.932v-1.402c0-.41-.106-.72-.317-.932-.212-.211-.506-.317-.884-.317-.372 0-.666.106-.884.317-.211.211-.317.522-.317.932v1.402c0 .41.106.72.317.932.218.212.512.317.884.317zM16.438 79v-5.284h1.172l.692 2.027c.07.205.134.41.192.615.058.199.1.352.125.461.026-.109.064-.262.115-.46.058-.206.119-.414.183-.625l.653-2.018h1.172V79h-.836v-.817c0-.288.003-.602.01-.941l.019-1.028.038-.98c.013-.314.023-.59.03-.826l-.942 3.007h-.913l-.95-2.988c.012.288.021.647.028 1.076.013.43.022.878.029 1.345.012.468.019.913.019 1.335V79h-.836zm5.536 0l1.355-2.037c-.404-.096-.718-.281-.942-.557-.218-.275-.326-.618-.326-1.028 0-.519.17-.925.509-1.22.346-.294.816-.442 1.412-.442h2.277V79h-.865v-1.97h-1.162L22.982 79h-1.008zm2.008-2.738h1.412v-1.777h-1.412c-.32 0-.573.08-.76.24-.185.154-.278.372-.278.653 0 .276.093.493.279.653.186.154.439.231.759.231zM28.336 79v-5.284h3.795v.788H29.2V79h-.865zm5.373 0v-5.284h.864v2.181h.904l1.537-2.18h.989l-1.777 2.516L38.032 79h-1.009l-1.537-2.354h-.913V79h-.864zm5.66 0v-5.284h.827v2.882c0 .186-.007.381-.02.586-.006.205-.019.4-.038.586a6.1 6.1 0 01-.048.462l2.133-4.516h1.105V79H42.5v-2.882c0-.186.004-.381.01-.586.013-.205.029-.4.048-.586l.048-.47L40.474 79H39.37zm5.517 0v-5.284h1.172l.692 2.027c.07.205.135.41.192.615.058.199.1.352.125.461.026-.109.064-.262.115-.46.058-.206.119-.414.183-.625l.653-2.018h1.172V79h-.836v-.817c0-.288.004-.602.01-.941l.02-1.028c.012-.346.025-.672.038-.98.013-.314.022-.59.029-.826l-.942 3.007h-.913l-.95-2.988c.012.288.022.647.028 1.076.013.43.023.878.029 1.345.013.468.02.913.02 1.335V79h-.837zm13.1 0v-4.525h-1.922v-.759h4.707v.76H58.85V79h-.865zm6.121.096c-.416 0-.781-.083-1.095-.25a1.807 1.807 0 01-.72-.701 2.204 2.204 0 01-.25-1.066v-1.441c0-.41.083-.766.25-1.067.172-.3.413-.534.72-.701a2.31 2.31 0 011.095-.25c.417 0 .778.084 1.086.25.314.166.554.4.72.701.173.301.26.657.26 1.067v.931h-3.286v.51c0 .416.106.736.317.96.212.218.513.327.903.327.333 0 .602-.058.807-.173a.763.763 0 00.375-.538h.864a1.472 1.472 0 01-.653 1.057c-.371.256-.835.384-1.393.384zm1.22-3.103v-.355c0-.417-.105-.737-.317-.961-.205-.224-.506-.336-.903-.336-.39 0-.691.112-.903.336-.211.224-.317.544-.317.96v.28h2.508l-.068.076zM67.395 79l1.874-2.719-1.759-2.565h1.019l1.047 1.633c.045.07.086.148.125.231.045.083.08.15.106.202.019-.051.048-.119.086-.202a3.6 3.6 0 01.135-.23l1.056-1.634h1.009l-1.758 2.575L72.199 79H71.18l-1.133-1.73a2.69 2.69 0 01-.135-.24 2.061 2.061 0 00-.106-.23 3.794 3.794 0 01-.259.47L68.404 79h-1.009zm6.113 0v-5.284h.864v2.2h2.229v-2.2h.865V79H76.6v-2.296h-2.229V79h-.864zm5.69 0v-5.284h.825v2.882c0 .186-.006.381-.019.586-.006.205-.019.4-.038.586a6.36 6.36 0 01-.048.462l2.132-4.516h1.105V79h-.826v-2.882c0-.186.003-.381.01-.586.013-.205.029-.4.048-.586l.048-.47L80.302 79h-1.105zm5.718 0v-5.284h.864v2.181h.903l1.537-2.18h.99l-1.777 2.516L89.239 79H88.23l-1.537-2.354h-.913V79h-.864zm7.178.096c-.557 0-.995-.14-1.316-.423-.32-.288-.48-.675-.48-1.162 0-.493.16-.88.48-1.162.32-.282.753-.423 1.297-.423h1.633v-.529c0-.326-.099-.576-.297-.749-.193-.18-.468-.269-.827-.269-.314 0-.576.067-.787.202a.718.718 0 00-.365.528h-.865c.058-.454.272-.816.644-1.085.371-.27.835-.404 1.393-.404.608 0 1.088.157 1.44.471.353.314.529.74.529 1.278V79h-.845v-1.009h-.144l.144-.144c0 .385-.15.689-.452.913-.295.224-.688.336-1.182.336zm.212-.682c.41 0 .746-.103 1.008-.307a.957.957 0 00.394-.788v-.75h-1.614c-.288 0-.515.08-.682.24-.166.16-.25.379-.25.654 0 .294.1.528.298.701.205.167.487.25.846.25zm3.787.586v-5.284h1.172l.692 2.027c.07.205.135.41.192.615.058.199.1.352.125.461.026-.109.064-.262.115-.46.058-.206.119-.414.183-.625l.653-2.018h1.172V79h-.836v-.817c0-.288.003-.602.01-.941l.02-1.028c.012-.346.025-.672.038-.98.012-.314.022-.59.028-.826l-.941 3.007h-.913l-.95-2.988c.012.288.022.647.028 1.076.013.43.022.878.029 1.345.013.468.02.913.02 1.335V79h-.837zM16.611 98v-5.284h3.958V98h-.865v-4.496h-2.228V98h-.865zm5.67 1.73v-7.014h.865v1.009h.173l-.173.202c0-.404.131-.72.394-.951.269-.237.621-.356 1.057-.356.531 0 .954.176 1.268.529.32.345.48.823.48 1.431v1.547c0 .403-.073.752-.22 1.047a1.58 1.58 0 01-.606.682c-.256.16-.564.24-.922.24-.43 0-.778-.118-1.047-.355-.27-.237-.404-.554-.404-.951l.173.201h-.192l.02 1.201v1.537h-.865zm2.027-2.383c.366 0 .65-.11.855-.327.212-.218.317-.531.317-.941v-1.441c0-.41-.105-.724-.317-.942-.204-.218-.49-.326-.855-.326-.352 0-.634.112-.845.336-.211.224-.317.535-.317.932v1.44c0 .398.106.708.317.932.211.225.493.337.845.337zm5.661.73c-.422 0-.787-.08-1.095-.24a1.744 1.744 0 01-.72-.692c-.167-.307-.25-.67-.25-1.086v-1.402c0-.423.083-.785.25-1.086.173-.3.413-.531.72-.691.308-.16.673-.24 1.095-.24.423 0 .788.08 1.095.24.308.16.545.39.711.691.173.301.26.66.26 1.076v1.412c0 .417-.087.779-.26 1.086a1.683 1.683 0 01-.71.692c-.308.16-.673.24-1.096.24zm0-.769c.378 0 .673-.105.884-.317.211-.211.317-.522.317-.932v-1.402c0-.41-.106-.72-.317-.932-.211-.211-.506-.317-.884-.317-.371 0-.666.106-.884.317-.21.211-.317.522-.317.932v1.402c0 .41.106.72.317.932.218.212.513.317.884.317zm3.096 2.037V97.26h.433c.108-.109.22-.323.336-.643.121-.32.185-.727.192-1.22l.057-2.68h3.45v4.543h.672v2.085h-.769V98h-3.602v1.345h-.769zm1.345-2.085h2.258v-3.775H34.9l-.038 1.93c-.007.507-.061.917-.164 1.23-.102.314-.198.52-.288.615zm6.478.836c-.558 0-.996-.14-1.317-.423-.32-.288-.48-.675-.48-1.162 0-.493.16-.88.48-1.162.32-.282.753-.423 1.297-.423h1.633v-.529c0-.326-.099-.576-.297-.749-.193-.18-.468-.269-.827-.269-.313 0-.576.067-.787.202a.718.718 0 00-.365.528h-.865c.058-.454.272-.816.644-1.085.371-.27.836-.404 1.393-.404.608 0 1.088.157 1.44.471.353.314.53.74.53 1.278V98h-.846v-1.009h-.144l.144-.144c0 .385-.15.689-.452.913-.294.224-.688.336-1.181.336zm.21-.682c.41 0 .747-.103 1.01-.307a.957.957 0 00.394-.788v-.75h-1.614c-.289 0-.516.08-.683.24-.166.16-.25.379-.25.654 0 .294.1.528.299.701.204.167.486.25.845.25zM44.33 98l1.153-2.71-1.076-2.574h.836l.922 2.306h.51v-2.306h.73v2.306h.49l.95-2.306h.827l-1.076 2.546L49.747 98h-.864l-.96-2.402h-.52V98h-.73v-2.402h-.519L45.184 98h-.855zm7.102 1.537l.769-2.988h1.248L52.2 99.537h-.769zm12.676-1.46c-.422 0-.788-.08-1.095-.24a1.744 1.744 0 01-.72-.692c-.167-.307-.25-.67-.25-1.086v-1.402c0-.423.083-.785.25-1.086.172-.3.413-.531.72-.691.307-.16.673-.24 1.095-.24.423 0 .788.08 1.095.24.308.16.545.39.711.691.173.301.26.66.26 1.076v1.412c0 .417-.087.779-.26 1.086a1.683 1.683 0 01-.71.692c-.308.16-.673.24-1.096.24zm0-.769c.378 0 .673-.105.884-.317.211-.211.317-.522.317-.932v-1.402c0-.41-.106-.72-.317-.932-.211-.211-.506-.317-.884-.317-.371 0-.666.106-.884.317-.21.211-.317.522-.317.932v1.402c0 .41.106.72.317.932.218.212.513.317.884.317zm5.71.788a2.46 2.46 0 01-1.115-.24 1.73 1.73 0 01-.73-.692c-.173-.307-.26-.67-.26-1.085v-1.441c0-.423.087-.785.26-1.086a1.73 1.73 0 01.73-.692c.32-.16.691-.24 1.114-.24.609 0 1.099.163 1.47.49.371.327.567.772.586 1.335h-.865c-.019-.339-.134-.598-.346-.778-.204-.185-.486-.278-.845-.278-.378 0-.679.109-.903.326-.224.212-.336.516-.336.913v1.45c0 .398.112.705.336.923.224.218.525.326.903.326.359 0 .64-.092.846-.278.21-.186.326-.445.345-.778h.865c-.02.563-.215 1.008-.586 1.335-.371.327-.861.49-1.47.49zm3.69-.096v-5.284h.865v2.2h2.229v-2.2h.865V98H76.6v-2.296h-2.229V98h-.864zm7.67.077c-.424 0-.789-.08-1.096-.24a1.743 1.743 0 01-.72-.692c-.167-.307-.25-.67-.25-1.086v-1.402c0-.423.083-.785.25-1.086.172-.3.413-.531.72-.691.307-.16.672-.24 1.095-.24.423 0 .788.08 1.095.24.308.16.545.39.711.691.173.301.26.66.26 1.076v1.412c0 .417-.087.779-.26 1.086a1.683 1.683 0 01-.71.692c-.308.16-.673.24-1.096.24zm0-.769c.377 0 .672-.105.883-.317.211-.211.317-.522.317-.932v-1.402c0-.41-.106-.72-.317-.932-.211-.211-.506-.317-.884-.317-.371 0-.666.106-.884.317-.21.211-.317.522-.317.932v1.402c0 .41.106.72.317.932.218.212.513.317.884.317zm3.71.692v-5.284h2.286c.551 0 .977.125 1.278.375.301.243.452.586.452 1.028 0 .365-.125.66-.375.884-.25.217-.58.326-.99.326v-.076c.449 0 .807.112 1.076.336.276.224.413.525.413.903 0 .474-.16.845-.48 1.114-.32.263-.769.394-1.345.394h-2.315zm.845-.759h1.47c.308 0 .544-.067.711-.202.173-.134.26-.323.26-.567 0-.25-.087-.441-.26-.576-.166-.134-.403-.202-.71-.202h-1.47v1.547zm0-2.296h1.441c.27 0 .48-.064.634-.192.16-.128.24-.308.24-.538 0-.23-.076-.41-.23-.538-.154-.135-.368-.202-.644-.202h-1.44v1.47zm6.362 3.151c-.557 0-.995-.14-1.316-.423-.32-.288-.48-.675-.48-1.162 0-.493.16-.88.48-1.162.32-.282.753-.423 1.297-.423h1.633v-.529c0-.326-.099-.576-.297-.749-.193-.18-.468-.269-.827-.269-.314 0-.576.067-.787.202a.718.718 0 00-.365.528h-.865c.058-.454.272-.816.644-1.085.371-.27.835-.404 1.393-.404.608 0 1.088.157 1.44.471.353.314.529.74.529 1.278V98h-.845v-1.009h-.144l.144-.144c0 .385-.15.689-.452.913-.295.224-.688.336-1.182.336zm.212-.682c.41 0 .746-.103 1.008-.307a.957.957 0 00.394-.788v-.75h-1.614c-.288 0-.515.08-.682.24-.166.16-.25.379-.25.654 0 .294.1.528.298.701.205.167.487.25.846.25zm3.96.586v-5.284h.865v2.2h2.229v-2.2h.864V98h-.864v-2.296h-2.23V98h-.864zm5.69 0v-5.284h.864v2.2h2.229v-2.2h.865V98h-.865v-2.296h-2.229V98h-.864zm5.411 0v-5.284h.807v1.94h.432c.57 0 1.019.151 1.345.452.333.295.5.702.5 1.22 0 .52-.167.93-.5 1.23-.326.295-.775.442-1.345.442h-1.239zm.807-.692h.432c.34 0 .602-.086.788-.26.192-.172.288-.412.288-.72 0-.307-.096-.547-.288-.72-.186-.173-.448-.26-.788-.26h-.432v1.96zm2.901.692v-5.284h.807V98h-.807zm2.087 0v-5.284h1.172l.692 2.027c.07.205.134.41.192.615.058.199.099.352.125.461.026-.109.064-.262.115-.46.058-.206.119-.414.183-.625l.653-2.018h1.172V98h-.836v-.817c0-.288.003-.602.01-.941l.019-1.028.039-.98c.012-.314.022-.59.028-.826l-.941 3.007h-.913l-.951-2.988c.013.288.023.647.029 1.076.013.43.022.878.029 1.345.013.468.019.913.019 1.335V98h-.836zm11.552 0v-5.284h.865v2.2h2.229v-2.2h.864V98h-.864v-2.296h-2.229V98h-.865zm7.208.096c-.557 0-.996-.14-1.316-.423-.32-.288-.48-.675-.48-1.162 0-.493.16-.88.48-1.162.32-.282.752-.423 1.297-.423h1.633v-.529c0-.326-.099-.576-.298-.749-.192-.18-.467-.269-.826-.269-.314 0-.576.067-.788.202a.718.718 0 00-.365.528h-.864c.057-.454.272-.816.643-1.085.372-.27.836-.404 1.393-.404.609 0 1.089.157 1.441.471.352.314.529.74.529 1.278V98h-.846v-1.009h-.144l.144-.144c0 .385-.15.689-.451.913-.295.224-.689.336-1.182.336zm.211-.682c.41 0 .746-.103 1.009-.307a.956.956 0 00.394-.788v-.75h-1.614c-.288 0-.516.08-.682.24-.167.16-.25.379-.25.654 0 .294.099.528.298.701.205.167.487.25.845.25zM18.34 118.067c-.557 0-1.015-.118-1.373-.355a1.412 1.412 0 01-.635-.961h.913c.045.16.163.292.355.394.2.102.446.154.74.154h.452c.314 0 .557-.074.73-.221a.713.713 0 00.269-.577c0-.256-.087-.458-.26-.605-.166-.147-.413-.221-.74-.221H17.63v-.749h1.134c.295 0 .519-.071.672-.212a.718.718 0 00.231-.557.726.726 0 00-.106-.403.612.612 0 00-.297-.25 1.236 1.236 0 00-.49-.086h-.48c-.257 0-.478.057-.664.173-.185.115-.298.256-.336.422h-.912c.064-.397.272-.724.624-.98s.781-.384 1.287-.384h.48c.378 0 .702.061.97.183.27.115.475.281.616.499.147.218.22.477.22.778 0 .314-.102.573-.307.778-.205.199-.493.311-.864.337v.038c.454.032.784.154.99.365.204.211.306.516.306.913 0 .467-.172.839-.518 1.114-.346.276-.81.413-1.393.413h-.452zm5.479.029c-.558 0-.996-.141-1.317-.423-.32-.288-.48-.675-.48-1.162 0-.493.16-.881.48-1.162.32-.282.753-.423 1.297-.423h1.634v-.529c0-.326-.1-.576-.298-.749-.192-.179-.468-.269-.827-.269-.313 0-.576.067-.787.202a.717.717 0 00-.365.528h-.865c.058-.454.272-.816.644-1.085.371-.269.835-.404 1.393-.404.608 0 1.088.157 1.44.471.353.314.53.74.53 1.278V118h-.846v-1.009h-.144l.144-.144c0 .384-.15.689-.452.913-.294.224-.688.336-1.181.336zm.21-.682c.41 0 .747-.102 1.01-.307a.957.957 0 00.393-.788v-.75H23.82c-.289 0-.516.081-.682.241-.167.16-.25.378-.25.653 0 .295.099.528.297.701.206.167.487.25.846.25zm5.94.682c-.62 0-1.114-.182-1.48-.548-.358-.371-.537-.877-.537-1.517v-2.402c0-.845.211-1.496.634-1.95.423-.461 1.028-.692 1.816-.692h1.345v.865h-1.345c-.52 0-.913.153-1.182.461-.269.301-.403.74-.403 1.316v.624h.134l-.134.193c.006-.378.134-.673.384-.884.25-.212.589-.317 1.018-.317.557 0 .99.179 1.297.538.314.358.47.851.47 1.479v.769c0 .429-.08.797-.24 1.104-.16.308-.39.545-.691.711-.301.167-.663.25-1.086.25zm0-.768c.372 0 .657-.113.855-.337.199-.224.298-.544.298-.96v-.769c0-.416-.1-.736-.298-.961-.198-.224-.483-.336-.855-.336-.371 0-.656.112-.855.336-.198.218-.297.538-.297.961v.769c0 .416.099.736.297.96.199.224.484.337.855.337zm5.69.749c-.423 0-.788-.08-1.095-.24a1.744 1.744 0 01-.72-.692c-.167-.307-.25-.669-.25-1.086v-1.402c0-.423.083-.785.25-1.086.172-.301.412-.531.72-.691.307-.161.672-.241 1.095-.241.423 0 .788.08 1.095.241.308.16.544.39.711.691.173.301.26.66.26 1.076v1.412c0 .417-.087.779-.26 1.086a1.684 1.684 0 01-.71.692c-.308.16-.673.24-1.096.24zm0-.769c.378 0 .672-.105.884-.317.211-.211.317-.522.317-.932v-1.402c0-.41-.106-.721-.317-.932-.212-.211-.506-.317-.884-.317-.371 0-.666.106-.884.317-.211.211-.317.522-.317.932v1.402c0 .41.106.721.317.932.218.212.513.317.884.317zm5.257.692v-4.525h-1.921v-.759h4.707v.759h-1.921V118h-.865zm6.122.096c-.416 0-.781-.083-1.095-.25a1.804 1.804 0 01-.72-.701 2.203 2.203 0 01-.25-1.066v-1.441c0-.41.083-.766.25-1.067a1.81 1.81 0 01.72-.701c.314-.167.679-.25 1.095-.25.417 0 .778.083 1.086.25.314.167.554.4.72.701.173.301.26.657.26 1.067v.931h-3.286v.51c0 .416.106.736.317.96.212.218.513.327.903.327.333 0 .602-.058.807-.173a.764.764 0 00.375-.538h.864a1.473 1.473 0 01-.653 1.057c-.371.256-.835.384-1.393.384zm1.22-3.103v-.355c0-.417-.105-.737-.317-.961-.205-.224-.506-.336-.903-.336-.39 0-.691.112-.903.336-.211.224-.317.544-.317.961v.278h2.508l-.068.077zm10.16 3.084c-.423 0-.788-.08-1.096-.24a1.744 1.744 0 01-.72-.692c-.167-.307-.25-.669-.25-1.086v-1.402c0-.423.083-.785.25-1.086.173-.301.413-.531.72-.691.308-.161.673-.241 1.096-.241.422 0 .787.08 1.095.241.307.16.544.39.71.691.174.301.26.66.26 1.076v1.412c0 .417-.086.779-.26 1.086a1.683 1.683 0 01-.71.692c-.308.16-.673.24-1.095.24zm0-.769c.377 0 .672-.105.883-.317.212-.211.317-.522.317-.932v-1.402c0-.41-.105-.721-.317-.932-.21-.211-.506-.317-.883-.317-.372 0-.666.106-.884.317-.212.211-.317.522-.317.932v1.402c0 .41.105.721.317.932.218.212.512.317.884.317zm9.429.692v-5.284h.864v2.181h.903l1.537-2.181h.99l-1.777 2.517L72.17 118h-1.01l-1.537-2.354h-.913V118h-.864zm4.998.067v-.807h.173c.294 0 .5-.115.614-.346.122-.23.186-.643.193-1.239l.057-2.959h3.584V118H76.6v-4.496h-1.864l-.048 2.21c-.013.557-.077 1.008-.192 1.354-.109.346-.282.599-.519.759-.23.16-.534.24-.912.24h-.221zm6.352-.067v-5.284h.826v2.882c0 .186-.006.381-.019.586a8.055 8.055 0 01-.038.586c-.013.18-.029.333-.048.461l2.132-4.515h1.105V118h-.826v-2.882c0-.186.003-.381.01-.586.013-.205.029-.4.048-.586l.048-.471L80.302 118h-1.105zm7.669.096c-.416 0-.781-.083-1.095-.25a1.803 1.803 0 01-.72-.701 2.203 2.203 0 01-.25-1.066v-1.441c0-.41.083-.766.25-1.067a1.81 1.81 0 01.72-.701c.314-.167.679-.25 1.095-.25.416 0 .778.083 1.085.25.314.167.554.4.721.701.173.301.26.657.26 1.067v.931h-3.286v.51c0 .416.105.736.317.96.211.218.512.327.903.327.333 0 .602-.058.807-.173a.764.764 0 00.374-.538h.865a1.473 1.473 0 01-.653 1.057c-.372.256-.836.384-1.393.384zm1.22-3.103v-.355c0-.417-.106-.737-.317-.961-.205-.224-.506-.336-.903-.336-.39 0-.692.112-.903.336-.212.224-.317.544-.317.961v.278h2.507l-.067.077zm2.49 3.007v-5.284h.865v2.2h2.229v-2.2h.864V118h-.864v-2.296h-2.23V118h-.864zm7.237 0v-4.525H95.89v-.759h4.708v.759h-1.922V118h-.864zm6.122.096c-.416 0-.781-.083-1.095-.25a1.802 1.802 0 01-.721-.701 2.209 2.209 0 01-.25-1.066v-1.441c0-.41.084-.766.25-1.067.173-.301.413-.534.721-.701.314-.167.679-.25 1.095-.25.416 0 .778.083 1.085.25.314.167.554.4.721.701.173.301.259.657.259 1.067v.931h-3.285v.51c0 .416.105.736.317.96.211.218.512.327.903.327.333 0 .602-.058.807-.173a.76.76 0 00.374-.538h.865a1.473 1.473 0 01-.653 1.057c-.372.256-.836.384-1.393.384zm1.22-3.103v-.355c0-.417-.106-.737-.317-.961-.205-.224-.506-.336-.903-.336-.391 0-.692.112-.903.336-.212.224-.317.544-.317.961v.278h2.507l-.067.077zm4.47 3.103c-.244 0-.439-.07-.587-.211-.14-.141-.211-.33-.211-.567 0-.25.071-.448.211-.596.148-.147.343-.221.587-.221.243 0 .435.074.576.221.147.148.221.346.221.596 0 .237-.074.426-.221.567-.141.141-.333.211-.576.211z" fill="#000"/><defs><filter id="filter0_d_394_1494" x=".157" y="0" width="179.646" height="178.685" filterUnits="userSpaceOnUse" color-interpolation-filters="sRGB"><feFlood flood-opacity="0" result="BackgroundImageFix"/><feColorMatrix in="SourceAlpha" values="0 0 0 0 0 0 0 0 0 0 0 0 0 0 0 0 0 0 127 0" result="hardAlpha"/><feOffset dy="3.843"/><feGaussianBlur stdDeviation="1.921"/><feComposite in2="hardAlpha" operator="out"/><feColorMatrix values="0 0 0 0 0 0 0 0 0 0 0 0 0 0 0 0 0 0 0.25 0"/><feBlend in2="BackgroundImageFix" result="effect1_dropShadow_394_1494"/><feBlend in="SourceGraphic" in2="effect1_dropShadow_394_1494" result="shape"/></filter></defs></svg>