<svg width="180" height="179" fill="none" xmlns="http://www.w3.org/2000/svg"><g filter="url(#filter0_d_394_1207)"><rect x="4" width="171.961" height="171" rx="16.011" fill="#E1EDE4"/></g><mask id="a" style="mask-type:alpha" maskUnits="userSpaceOnUse" x="4" y="0" width="172" height="43"><path fill="#C9D9CD" d="M4 0h171.961v42.27H4z"/></mask><g mask="url(#a)"><rect x="4" y="-1.69" width="171.961" height="118.355" rx="16.011" fill="#C09F6D"/></g><path d="M14.865 61v-7.013h.835v3.939c0 .23-.006.477-.019.74a25.581 25.581 0 01-.067 1.325l2.133-6.004h1.152V61h-.835v-3.939c0-.237.003-.483.01-.74.012-.262.025-.509.038-.74l.048-.585L16.017 61h-1.152zm5.728 0v-5.284h.864v2.2h2.23v-2.2h.864V61h-.865v-2.296h-2.229V61h-.864zm7.236 0v-4.525h-1.921v-.759h4.707v.76h-1.921V61h-.865zm6.122.096c-.416 0-.781-.083-1.095-.25a1.807 1.807 0 01-.72-.701 2.204 2.204 0 01-.25-1.066v-1.441c0-.41.083-.766.25-1.067a1.8 1.8 0 01.72-.701 2.31 2.31 0 011.095-.25c.416 0 .778.084 1.085.25.314.166.554.4.721.701.173.301.26.657.26 1.067v.931H32.73v.51c0 .416.106.736.317.96.211.218.512.327.903.327.333 0 .602-.058.807-.173a.763.763 0 00.375-.538h.864a1.472 1.472 0 01-.653 1.057c-.372.256-.836.384-1.393.384zm1.22-3.103v-.355c0-.417-.106-.737-.317-.961-.205-.224-.506-.336-.903-.336-.39 0-.692.112-.903.336-.211.224-.317.544-.317.96v.28h2.507l-.067.076zM38.008 61v-5.284h3.794v.788h-2.93V61h-.864zm5.324 1.73v-7.014h.865v1.009h.173l-.173.202c0-.404.131-.72.394-.951.269-.237.62-.356 1.056-.356.532 0 .955.176 1.268.529.32.345.48.823.48 1.431v1.547c0 .403-.073.752-.22 1.047a1.577 1.577 0 01-.605.682c-.257.16-.564.24-.923.24-.429 0-.778-.118-1.047-.355-.269-.237-.403-.554-.403-.951l.173.201h-.192l.019 1.201v1.537h-.865zm2.027-2.383c.365 0 .65-.11.855-.327.212-.218.317-.532.317-.941v-1.441c0-.41-.105-.724-.317-.942-.205-.218-.49-.326-.855-.326-.352 0-.634.112-.845.336-.212.224-.317.535-.317.932v1.44c0 .398.105.708.317.932.211.225.493.337.845.337zm3.682.653v-5.284h.826v2.882c0 .186-.006.381-.02.586-.005.205-.018.4-.038.586a6.1 6.1 0 01-.047.461l2.132-4.515H53V61h-.826v-2.882c0-.186.003-.381.01-.586.012-.205.028-.4.047-.586l.048-.47L50.146 61H49.04zm5.67 1.73v-7.014h.865v1.009h.173l-.173.202c0-.404.131-.72.394-.951.269-.237.621-.356 1.057-.356.531 0 .954.176 1.268.529.32.345.48.823.48 1.431v1.547c0 .403-.074.752-.22 1.047a1.57 1.57 0 01-.606.682c-.256.16-.564.24-.922.24-.43 0-.779-.118-1.047-.355-.27-.237-.404-.554-.404-.951l.173.201h-.192l.019 1.201v1.537h-.865zm2.027-2.383c.365 0 .65-.11.855-.327.212-.218.317-.532.317-.941v-1.441c0-.41-.105-.724-.317-.942-.205-.218-.49-.326-.855-.326-.352 0-.634.112-.845.336-.211.224-.317.535-.317.932v1.44c0 .398.106.708.317.932.211.225.493.337.845.337zm5.661.73c-.422 0-.788-.08-1.095-.24a1.744 1.744 0 01-.72-.692c-.167-.307-.25-.67-.25-1.086v-1.402c0-.423.083-.785.25-1.086.172-.3.413-.531.72-.691.307-.16.673-.24 1.095-.24.423 0 .788.08 1.095.24.308.16.545.39.711.691.173.301.26.66.26 1.076v1.412c0 .417-.087.779-.26 1.086a1.683 1.683 0 01-.71.692c-.308.16-.673.24-1.096.24zm0-.769c.378 0 .673-.105.884-.317.211-.211.317-.522.317-.932v-1.402c0-.41-.106-.72-.317-.932-.211-.211-.506-.317-.884-.317-.371 0-.666.106-.884.317-.21.211-.317.522-.317.932v1.402c0 .41.106.72.317.932.218.212.513.317.884.317zm3.71.692v-5.284h2.287c.551 0 .977.125 1.278.375.301.243.451.586.451 1.028 0 .365-.124.66-.374.884-.25.217-.58.326-.99.326v-.077c.449 0 .807.113 1.076.337.276.224.413.525.413.903 0 .474-.16.845-.48 1.114-.32.263-.768.394-1.345.394H66.11zm.846-.759h1.47c.308 0 .544-.067.711-.202.173-.134.26-.323.26-.567 0-.25-.087-.441-.26-.576-.166-.134-.403-.202-.71-.202h-1.47v1.547zm0-2.296h1.441c.27 0 .48-.064.634-.192.16-.128.24-.307.24-.538 0-.23-.076-.41-.23-.538-.154-.135-.368-.202-.644-.202h-1.44v1.47zm6.362 3.151c-.557 0-.995-.14-1.316-.423-.32-.288-.48-.675-.48-1.162 0-.493.16-.88.48-1.163.32-.281.753-.422 1.297-.422h1.633v-.529c0-.326-.099-.576-.297-.749-.193-.18-.468-.269-.827-.269-.313 0-.576.067-.787.202a.718.718 0 00-.365.528h-.865c.058-.454.272-.816.644-1.085.371-.27.835-.404 1.393-.404.608 0 1.088.157 1.44.471.353.314.529.74.529 1.278V61h-.845v-1.009h-.144l.144-.144c0 .384-.15.689-.452.913-.294.224-.688.336-1.182.336zm.212-.682c.41 0 .746-.102 1.008-.307a.957.957 0 00.394-.788v-.75h-1.614c-.288 0-.515.08-.682.24-.166.16-.25.379-.25.654 0 .294.1.528.298.701.205.167.487.25.846.25zm3.297.653v-.807H77c.295 0 .5-.115.615-.346.122-.23.186-.643.192-1.239l.058-2.959h3.583V61h-.864v-4.496H78.72l-.048 2.21c-.013.557-.077 1.008-.192 1.354-.11.346-.282.599-.519.76-.23.16-.535.24-.913.24h-.22zM83.18 61v-5.284h.826v2.882c0 .186-.006.381-.02.586-.005.205-.018.4-.038.586a6.1 6.1 0 01-.048.461l2.133-4.515h1.105V61h-.826v-2.882c0-.186.003-.381.01-.586.012-.205.028-.4.047-.586l.048-.47L84.284 61h-1.105zm13.358.077c-.422 0-.788-.08-1.095-.24a1.744 1.744 0 01-.72-.692c-.167-.307-.25-.67-.25-1.086v-1.402c0-.423.083-.785.25-1.086.172-.3.413-.531.72-.691.307-.16.673-.24 1.095-.24.423 0 .788.08 1.095.24.308.16.545.39.711.691.173.301.26.66.26 1.076v1.412c0 .417-.087.779-.26 1.086a1.684 1.684 0 01-.71.692c-.308.16-.673.24-1.096.24zm0-.769c.378 0 .673-.105.884-.317.211-.211.317-.522.317-.932v-1.402c0-.41-.106-.72-.317-.932-.211-.211-.506-.317-.884-.317-.371 0-.666.106-.884.317-.211.211-.317.522-.317.932v1.402c0 .41.106.72.317.932.218.212.513.317.884.317zm3.711.692v-5.284h.864v2.2h2.229v-2.2h.865V61h-.865v-2.296h-2.229V61h-.864zm5.027.067v-.807h.173c.294 0 .499-.115.614-.346.122-.23.186-.643.193-1.239l.057-2.959h3.583V61h-.864v-4.496h-1.864l-.048 2.21c-.013.557-.077 1.008-.192 1.354-.109.346-.282.599-.519.76-.23.16-.535.24-.912.24h-.221zm7.87.03c-.557 0-.996-.142-1.316-.424-.32-.288-.48-.675-.48-1.162 0-.493.16-.88.48-1.163.32-.281.752-.422 1.297-.422h1.633v-.529c0-.326-.099-.576-.298-.749-.192-.18-.467-.269-.826-.269-.314 0-.576.067-.788.202a.718.718 0 00-.365.528h-.864c.057-.454.272-.816.643-1.085.372-.27.836-.404 1.393-.404.609 0 1.089.157 1.441.471.352.314.529.74.529 1.278V61h-.846v-1.009h-.144l.144-.144c0 .384-.15.689-.451.913-.295.224-.689.336-1.182.336zm.211-.683c.41 0 .746-.102 1.009-.307a.956.956 0 00.394-.788v-.75h-1.614c-.288 0-.516.08-.682.24-.167.16-.25.379-.25.654 0 .294.099.528.298.701.205.167.487.25.845.25zm3.961.586v-5.284h.826v2.882c0 .186-.006.381-.019.586-.007.205-.019.4-.039.586-.012.18-.028.333-.048.461l2.133-4.515h1.105V61h-.826v-2.882c0-.186.003-.381.009-.586.013-.205.029-.4.048-.586l.048-.47L118.422 61h-1.105zm2.017-6.148c-.461 0-.832-.128-1.114-.385-.282-.256-.423-.592-.423-1.008h.682c0 .25.077.451.231.605.154.154.358.23.615.23.262 0 .47-.076.624-.23a.8.8 0 00.24-.605h.682c0 .416-.141.752-.422 1.008-.282.257-.654.385-1.115.385zM123.006 61v-5.284h.865v2.2h2.229v-2.2h.864V61h-.864v-2.296h-2.229V61h-.865zm6.132-2.786v-.768h3.074v.768h-3.074zM137.422 61v-1.921c-.103.025-.26.05-.471.077a7.02 7.02 0 01-.653.028c-.654.007-1.163-.15-1.528-.47-.359-.327-.538-.782-.538-1.365v-1.633h.865v1.633c0 .327.109.586.326.779.224.185.532.278.923.278.269 0 .496-.01.682-.029a3.52 3.52 0 00.394-.067v-2.594h.864V61h-.864zm4.171.096c-.557 0-.996-.14-1.316-.423-.32-.288-.48-.675-.48-1.162 0-.493.16-.88.48-1.163.32-.281.753-.422 1.297-.422h1.633v-.529c0-.326-.099-.576-.298-.749-.192-.18-.467-.269-.826-.269-.314 0-.576.067-.788.202a.718.718 0 00-.365.528h-.864c.057-.454.272-.816.643-1.085.372-.27.836-.404 1.393-.404.609 0 1.089.157 1.441.471.353.314.529.74.529 1.278V61h-.846v-1.009h-.144l.144-.144c0 .384-.15.689-.451.913-.295.224-.689.336-1.182.336zm.212-.682c.41 0 .746-.102 1.008-.307a.956.956 0 00.394-.788v-.75h-1.614c-.288 0-.515.08-.682.24-.166.16-.25.379-.25.654 0 .294.1.528.298.701.205.167.487.25.846.25zm5.507.586v-4.525h-1.922v-.759h4.708v.76h-1.922V61h-.864zm4.825 1.537l.768-2.988h1.249l-1.249 2.988h-.768zM16.882 80.077c-.423 0-.788-.08-1.095-.24a1.744 1.744 0 01-.72-.692c-.167-.307-.25-.67-.25-1.086v-1.402c0-.423.083-.785.25-1.086.172-.3.412-.531.72-.691.307-.16.672-.24 1.095-.24.423 0 .788.08 1.095.24.308.16.545.39.711.691.173.301.26.66.26 1.076v1.412c0 .417-.087.779-.26 1.086a1.683 1.683 0 01-.71.692c-.308.16-.673.24-1.096.24zm0-.769c.378 0 .672-.105.884-.317.211-.211.317-.522.317-.932v-1.402c0-.41-.106-.72-.317-.932-.211-.211-.506-.317-.884-.317-.371 0-.666.106-.884.317-.211.211-.317.522-.317.932v1.402c0 .41.106.72.317.932.218.212.513.317.884.317zm5.69.788c-.622 0-1.115-.183-1.48-.547-.358-.372-.538-.878-.538-1.518v-2.402c0-.846.212-1.496.634-1.95.423-.461 1.028-.692 1.816-.692h1.345v.865h-1.345c-.519 0-.913.153-1.182.46-.269.302-.403.74-.403 1.317v.624h.134l-.134.192c.006-.377.134-.672.384-.883.25-.212.59-.317 1.018-.317.558 0 .99.179 1.297.538.314.358.471.851.471 1.48v.768c0 .429-.08.797-.24 1.104-.16.308-.39.545-.692.711-.3.167-.663.25-1.085.25zm0-.769c.371 0 .656-.112.855-.336.198-.224.297-.544.297-.96v-.769c0-.416-.099-.736-.297-.96-.199-.225-.484-.337-.855-.337-.372 0-.657.112-.855.336-.199.218-.298.538-.298.961v.769c0 .416.1.736.298.96.198.224.483.337.855.337zm3.691 2.402v-7.013h.865v1.009h.173l-.173.202c0-.404.131-.72.394-.951.269-.237.62-.356 1.056-.356.532 0 .955.176 1.268.529.32.345.48.823.48 1.431v1.547c0 .403-.073.752-.22 1.047a1.57 1.57 0 01-.605.682c-.257.16-.564.24-.923.24-.429 0-.778-.118-1.047-.355-.269-.237-.403-.554-.403-.951l.173.201h-.192l.019 1.201v1.537h-.865zm2.027-2.382c.365 0 .65-.11.855-.327.212-.218.317-.531.317-.941v-1.441c0-.41-.105-.724-.317-.942-.205-.218-.49-.326-.855-.326-.352 0-.634.112-.845.336-.212.224-.317.535-.317.932v1.44c0 .398.105.708.317.932.211.225.493.337.845.337zm5.2.75c-.557 0-.996-.142-1.316-.424-.32-.288-.48-.675-.48-1.162 0-.493.16-.88.48-1.162.32-.282.752-.423 1.297-.423h1.633v-.529c0-.326-.1-.576-.298-.749-.192-.18-.467-.269-.826-.269-.314 0-.577.067-.788.202a.717.717 0 00-.365.528h-.865c.058-.454.273-.816.644-1.085.371-.27.836-.404 1.393-.404.608 0 1.089.157 1.441.471.352.314.528.74.528 1.278V80h-.845v-1.009h-.144l.144-.144c0 .385-.15.689-.451.913-.295.224-.689.336-1.182.336zm.211-.683c.41 0 .746-.103 1.009-.307a.957.957 0 00.394-.788v-.75H33.49c-.288 0-.516.08-.682.24-.167.16-.25.379-.25.654 0 .294.1.528.298.701.205.167.487.25.845.25zm5.507.586v-4.525h-1.921v-.759h4.707v.76h-1.921V80h-.865zm4.143 0v-5.284h.865v2.2h2.229v-2.2h.864V80h-.864v-2.296h-2.23V80h-.864zm5.411 0v-5.284h.807v1.94h.433c.57 0 1.018.151 1.345.452.333.295.5.702.5 1.22 0 .52-.167.93-.5 1.23-.327.295-.775.442-1.345.442h-1.24zm.807-.692h.433c.34 0 .602-.086.787-.26.192-.172.289-.412.289-.72 0-.307-.097-.547-.289-.72-.185-.173-.448-.26-.787-.26h-.433v1.96zm2.902.692v-5.284h.807V80h-.807zm2.26 0v-5.284h.826v2.882c0 .186-.007.381-.02.586-.006.205-.019.4-.038.586a6.36 6.36 0 01-.048.462l2.133-4.516h1.105V80h-.827v-2.882c0-.186.004-.381.01-.586.013-.205.029-.4.048-.586l.048-.47L55.835 80h-1.104zm2.017-6.148c-.461 0-.833-.128-1.114-.385-.282-.256-.423-.592-.423-1.008h.682c0 .25.077.451.23.605.154.154.36.23.615.23.263 0 .471-.076.625-.23a.8.8 0 00.24-.605h.682c0 .416-.14.752-.423 1.008-.281.257-.653.385-1.114.385zm11.091 6.215c-.557 0-1.015-.118-1.374-.355a1.412 1.412 0 01-.634-.96h.913c.045.16.163.29.355.393.199.103.445.154.74.154h.452c.314 0 .557-.074.73-.221a.71.71 0 00.269-.577c0-.256-.087-.458-.26-.605-.166-.147-.413-.22-.74-.22h-1.162v-.75h1.134c.294 0 .519-.07.672-.212a.72.72 0 00.23-.557.728.728 0 00-.105-.403.61.61 0 00-.298-.25 1.243 1.243 0 00-.49-.086h-.48c-.256 0-.477.057-.663.172-.186.116-.298.257-.336.423h-.913c.064-.397.273-.724.625-.98s.781-.384 1.287-.384h.48c.378 0 .702.06.97.183a1.324 1.324 0 01.836 1.277c0 .314-.102.574-.307.778-.205.199-.493.311-.864.337v.038c.454.032.784.154.989.365.205.212.307.516.307.913 0 .467-.172.839-.518 1.114-.346.276-.81.413-1.393.413h-.452zM71.8 80v-5.284h2.287c.55 0 .977.125 1.278.375.3.243.451.586.451 1.028 0 .365-.125.66-.374.884-.25.217-.58.326-.99.326v-.076c.448 0 .807.112 1.076.336.275.224.413.525.413.903 0 .474-.16.845-.48 1.114-.32.263-.769.394-1.345.394H71.8zm.846-.759h1.47c.307 0 .544-.067.71-.202.174-.134.26-.323.26-.567 0-.25-.086-.441-.26-.576-.166-.134-.403-.202-.71-.202h-1.47v1.547zm0-2.296h1.441c.269 0 .48-.064.634-.192.16-.128.24-.308.24-.538 0-.23-.077-.41-.23-.538-.154-.135-.369-.202-.644-.202h-1.441v1.47zm6.823 3.132c-.422 0-.788-.08-1.095-.24a1.744 1.744 0 01-.72-.692c-.167-.307-.25-.67-.25-1.086v-1.402c0-.423.083-.785.25-1.086.172-.3.413-.531.72-.691.307-.16.672-.24 1.095-.24.423 0 .788.08 1.095.24.308.16.545.39.711.691.173.301.26.66.26 1.076v1.412c0 .417-.087.779-.26 1.086a1.683 1.683 0 01-.71.692c-.308.16-.673.24-1.096.24zm0-.769c.378 0 .673-.105.884-.317.211-.211.317-.522.317-.932v-1.402c0-.41-.106-.72-.317-.932-.211-.211-.506-.317-.884-.317-.371 0-.666.106-.884.317-.21.211-.317.522-.317.932v1.402c0 .41.106.72.317.932.218.212.513.317.884.317zm3.71.692v-5.284h.865v2.2h2.23v-2.2h.864V80h-.865v-2.296h-2.229V80h-.864zm7.67.077c-.423 0-.788-.08-1.096-.24a1.744 1.744 0 01-.72-.692c-.167-.307-.25-.67-.25-1.086v-1.402c0-.423.083-.785.25-1.086.173-.3.413-.531.72-.691.308-.16.673-.24 1.096-.24.422 0 .787.08 1.095.24.307.16.544.39.71.691.173.301.26.66.26 1.076v1.412c0 .417-.087.779-.26 1.086a1.683 1.683 0 01-.71.692c-.308.16-.673.24-1.096.24zm0-.769c.377 0 .672-.105.883-.317.212-.211.317-.522.317-.932v-1.402c0-.41-.105-.72-.317-.932-.211-.211-.506-.317-.883-.317-.372 0-.666.106-.884.317-.212.211-.317.522-.317.932v1.402c0 .41.105.72.317.932.218.212.512.317.883.317zm3.739.692v-5.284h.865v2.181h.903l1.537-2.18h.99l-1.778 2.516L98.91 80h-1.009l-1.537-2.354h-.912V80h-.865zm11.351 0v-5.284h.826v2.882c0 .186-.007.381-.02.586a8.08 8.08 0 01-.038.586 6.36 6.36 0 01-.048.462l2.133-4.516h1.104V80h-.826v-2.882c0-.186.004-.381.01-.586.013-.205.029-.4.048-.586l.048-.47L107.042 80h-1.104zm10.764 1.345V79.26h.432c.109-.109.221-.323.337-.643.121-.32.185-.727.192-1.22l.057-2.68h3.449v4.543h.673v2.085h-.769V80h-3.602v1.345h-.769zm1.345-2.085h2.258v-3.775h-1.768l-.039 1.93c-.006.507-.06.917-.163 1.23-.102.314-.198.52-.288.615zm4.94 2.47v-7.014h.865v1.009h.173l-.173.202c0-.404.131-.72.394-.951.269-.237.621-.356 1.056-.356.532 0 .955.176 1.269.529.32.345.48.823.48 1.431v1.547c0 .403-.074.752-.221 1.047a1.575 1.575 0 01-.605.682c-.256.16-.564.24-.923.24-.429 0-.778-.118-1.047-.355-.269-.237-.403-.554-.403-.951l.173.201h-.192l.019 1.201v1.537h-.865zm2.027-2.383c.365 0 .65-.11.855-.327.212-.218.317-.531.317-.941v-1.441c0-.41-.105-.724-.317-.942-.205-.218-.49-.326-.855-.326-.352 0-.634.112-.845.336-.211.224-.317.535-.317.932v1.44c0 .398.106.708.317.932.211.225.493.337.845.337zm4.489 2.382l.778-2.056-1.96-4.957h.961l1.23 3.267c.045.108.086.24.125.393l.096.375c.025-.102.057-.227.096-.375.038-.153.077-.285.115-.393l1.153-3.267h.932l-2.604 7.013h-.922zM134.732 80v-5.284h3.794v.788h-2.93V80h-.864zm5.343 0v-5.284h.827v2.882c0 .186-.007.381-.02.586a8.08 8.08 0 01-.038.586 6.36 6.36 0 01-.048.462l2.133-4.516h1.104V80h-.826v-2.882c0-.186.003-.381.01-.586.013-.205.029-.4.048-.586l.048-.47L141.18 80h-1.105zm7.669.096c-.416 0-.781-.083-1.095-.25a1.806 1.806 0 01-.721-.701 2.21 2.21 0 01-.249-1.066v-1.441c0-.41.083-.766.249-1.067.173-.3.413-.534.721-.701a2.31 2.31 0 011.095-.25c.416 0 .778.084 1.086.25.313.166.554.4.72.701.173.301.26.657.26 1.067v.931h-3.286v.51c0 .416.106.736.317.96.211.218.512.327.903.327.333 0 .602-.058.807-.173a.764.764 0 00.375-.538h.864a1.469 1.469 0 01-.653 1.057c-.371.256-.836.384-1.393.384zm1.22-3.103v-.355c0-.417-.106-.737-.317-.961-.205-.224-.506-.336-.903-.336-.391 0-.692.112-.903.336-.211.224-.317.544-.317.96v.28h2.507l-.067.076zM14.903 99v-5.284h.826v2.882c0 .186-.006.381-.019.586-.006.205-.02.4-.038.586-.013.18-.03.333-.049.462l2.133-4.516h1.105V99h-.826v-2.882c0-.186.003-.381.01-.586.012-.205.028-.4.047-.586l.049-.47L16.008 99h-1.105zm5.69 0v-5.284h.864v2.2h2.23v-2.2h.864V99h-.865v-2.296h-2.229V99h-.864zm7.688.096a2.46 2.46 0 01-1.115-.24 1.73 1.73 0 01-.73-.692c-.173-.307-.26-.67-.26-1.085v-1.441c0-.423.087-.785.26-1.086a1.73 1.73 0 01.73-.692c.32-.16.692-.24 1.114-.24.609 0 1.099.163 1.47.49.372.327.567.772.586 1.335h-.864c-.02-.339-.135-.598-.346-.778-.205-.185-.487-.278-.846-.278-.377 0-.678.109-.902.326-.225.212-.337.516-.337.913v1.45c0 .398.112.705.337.923.224.218.525.326.902.326.36 0 .641-.092.846-.278.211-.186.327-.445.346-.778h.864c-.019.563-.214 1.008-.586 1.335-.371.327-.861.49-1.47.49zM33.519 99v-4.525h-1.922v-.759h4.708v.76h-1.922V99h-.864zm4.123 1.729v-7.013h.865v1.009h.173l-.173.202c0-.404.131-.72.394-.951.269-.237.621-.356 1.057-.356.531 0 .954.176 1.268.529.32.345.48.823.48 1.431v1.547c0 .403-.074.752-.22 1.047a1.57 1.57 0 01-.606.682c-.256.16-.564.24-.922.24-.43 0-.779-.118-1.047-.355-.27-.237-.404-.554-.404-.951l.173.201h-.192l.019 1.201v1.537h-.865zm2.027-2.382c.366 0 .65-.11.856-.327.21-.218.317-.531.317-.941v-1.441c0-.41-.106-.724-.317-.942-.206-.218-.49-.326-.855-.326-.353 0-.635.112-.846.336-.211.224-.317.535-.317.932v1.44c0 .398.106.708.317.932.211.225.493.337.846.337zm4.49 2.382l.777-2.056-1.96-4.957h.961l1.23 3.267a2.9 2.9 0 01.125.393l.096.375.096-.375c.038-.153.077-.285.115-.393l1.153-3.267h.932l-2.603 7.013h-.923zM48.867 99v-5.284h1.172l.692 2.027c.07.205.134.41.192.615.057.199.1.352.125.461.025-.109.064-.262.115-.46.058-.206.118-.414.183-.625L52 93.716h1.172V99h-.836v-.817c0-.288.003-.602.01-.941l.019-1.028.038-.98c.013-.314.023-.59.03-.826l-.942 3.007h-.913l-.951-2.988c.013.288.022.647.029 1.076.013.43.022.878.029 1.345.012.468.019.913.019 1.335V99h-.836zm7.842.096c-.417 0-.782-.083-1.096-.25a1.808 1.808 0 01-.72-.701 2.204 2.204 0 01-.25-1.066v-1.441c0-.41.083-.766.25-1.067.173-.3.413-.534.72-.701.314-.166.68-.25 1.096-.25.416 0 .778.084 1.085.25.314.166.554.4.72.701.174.301.26.657.26 1.067v.931H55.49v.51c0 .416.105.736.317.96.21.218.512.327.903.327.333 0 .602-.058.807-.173a.763.763 0 00.374-.538h.865a1.472 1.472 0 01-.653 1.057c-.372.256-.836.384-1.393.384zm1.22-3.103v-.355c0-.417-.106-.737-.317-.961-.205-.224-.506-.336-.903-.336-.391 0-.692.112-.903.336-.212.224-.318.544-.318.96v.28h2.508l-.067.076zM60.42 99v-5.284h.865v2.2h2.229v-2.2h.864V99h-.864v-2.296h-2.23V99h-.864zm7.237 0v-4.525h-1.922v-.759h4.708v.76H68.52V99h-.864zm3.864 0v-5.284h.807v1.94h.432c.57 0 1.019.151 1.345.452.333.295.5.702.5 1.22 0 .52-.167.93-.5 1.23-.326.295-.775.442-1.345.442h-1.239zm.807-.692h.432c.34 0 .602-.086.788-.26.192-.172.288-.412.288-.72 0-.307-.096-.547-.288-.72-.186-.173-.448-.26-.788-.26h-.432v1.96zm2.901.692v-5.284h.807V99h-.807zm7.335 1.345V98.26h.432c.11-.109.221-.323.337-.643.121-.32.185-.727.192-1.22l.057-2.68h3.45v4.543h.672v2.085h-.769V99h-3.602v1.345h-.769zm1.345-2.085h2.258v-3.775h-1.768l-.038 1.93c-.007.507-.061.917-.164 1.23-.102.314-.198.52-.288.615zm4.297.807v-.807h.173c.294 0 .5-.115.614-.346.122-.23.186-.643.193-1.239l.057-2.959h3.584V99h-.865v-4.496h-1.864l-.048 2.21c-.013.557-.077 1.008-.192 1.354-.109.346-.282.599-.519.76-.23.16-.534.24-.912.24h-.221zM94.232 99l1.354-2.037c-.403-.096-.717-.281-.941-.557-.218-.275-.327-.618-.327-1.028 0-.519.17-.925.51-1.22.345-.294.816-.442 1.411-.442h2.277V99h-.864v-1.97h-1.163L95.24 99h-1.008zm2.007-2.738h1.413v-1.777h-1.413c-.32 0-.573.08-.759.24-.185.154-.278.372-.278.653 0 .276.093.493.278.653.186.154.44.231.76.231zm10.505 4.467l.779-2.056-1.96-4.957h.961l1.229 3.267c.045.108.087.24.125.393.038.148.071.273.096.375l.096-.375c.039-.153.077-.285.115-.393l1.153-3.267h.932l-2.603 7.013h-.923zm4.268-.384V98.26h.433c.109-.109.221-.323.336-.643.122-.32.186-.727.192-1.22l.058-2.68h3.448v4.543h.673v2.085h-.769V99h-3.602v1.345h-.769zm1.345-2.085h2.258v-3.775h-1.768l-.038 1.93c-.007.507-.061.917-.164 1.23-.102.314-.198.52-.288.615zm6.939.817c-.423 0-.788-.08-1.095-.24a1.742 1.742 0 01-.721-.692c-.166-.307-.25-.67-.25-1.086v-1.402c0-.423.084-.785.25-1.086.173-.3.413-.531.721-.691.307-.16.672-.24 1.095-.24.423 0 .788.08 1.095.24.307.16.544.39.711.691.173.301.259.66.259 1.076v1.412c0 .417-.086.779-.259 1.086a1.689 1.689 0 01-.711.692c-.307.16-.672.24-1.095.24zm0-.769c.378 0 .672-.105.884-.317.211-.211.317-.522.317-.932v-1.402c0-.41-.106-.72-.317-.932-.212-.211-.506-.317-.884-.317-.372 0-.666.106-.884.317-.211.211-.317.522-.317.932v1.402c0 .41.106.72.317.932.218.212.512.317.884.317zm5.689.788c-.621 0-1.114-.183-1.479-.547-.359-.372-.538-.878-.538-1.518v-2.402c0-.846.211-1.496.634-1.95.423-.461 1.028-.692 1.816-.692h1.345v.865h-1.345c-.519 0-.913.153-1.182.46-.269.302-.403.74-.403 1.317v.624h.134l-.134.192c.006-.377.134-.672.384-.883.25-.212.589-.317 1.018-.317.557 0 .99.179 1.297.538.314.358.471.851.471 1.48v.768c0 .429-.08.797-.24 1.104-.16.308-.391.545-.692.711-.301.167-.663.25-1.086.25zm0-.769c.372 0 .657-.112.855-.336.199-.224.298-.544.298-.96v-.769c0-.416-.099-.736-.298-.96-.198-.225-.483-.337-.855-.337-.371 0-.656.112-.855.336-.198.218-.297.538-.297.961v.769c0 .416.099.736.297.96.199.224.484.337.855.337zm5.709.77a2.46 2.46 0 01-1.114-.241 1.73 1.73 0 01-.73-.692c-.173-.307-.26-.67-.26-1.085v-1.441c0-.423.087-.785.26-1.086a1.73 1.73 0 01.73-.692c.32-.16.692-.24 1.114-.24.609 0 1.099.163 1.47.49.372.327.567.772.586 1.335h-.864c-.02-.339-.135-.598-.346-.778-.205-.185-.487-.278-.846-.278-.378 0-.679.109-.903.326-.224.212-.336.516-.336.913v1.45c0 .398.112.705.336.923.224.218.525.326.903.326.359 0 .641-.092.846-.278.211-.186.326-.445.346-.778h.864c-.019.563-.214 1.008-.586 1.335-.371.327-.861.49-1.47.49zm5.238-.097v-4.525h-1.921v-.759h4.707v.76h-1.921V99h-.865zm4.143 0v-5.284h2.287c.551 0 .977.125 1.278.375.301.243.451.586.451 1.028 0 .365-.125.66-.375.884-.249.217-.579.326-.989.326v-.076c.448 0 .807.112 1.076.336.275.224.413.525.413.903 0 .474-.16.845-.48 1.114-.321.263-.769.394-1.345.394h-2.316zm.846-.759h1.47c.307 0 .544-.067.711-.202a.679.679 0 00.259-.567c0-.25-.087-.441-.259-.576-.167-.134-.404-.202-.711-.202h-1.47v1.547zm0-2.296h1.441c.269 0 .48-.064.634-.192.16-.128.24-.308.24-.538 0-.23-.077-.41-.231-.538-.153-.135-.368-.202-.643-.202h-1.441v1.47zm6.362 3.151c-.557 0-.996-.14-1.316-.423-.32-.288-.481-.675-.481-1.162 0-.493.161-.88.481-1.162.32-.282.752-.423 1.297-.423h1.633v-.529c0-.326-.099-.576-.298-.749-.192-.18-.467-.269-.826-.269-.314 0-.577.067-.788.202a.718.718 0 00-.365.528h-.865c.058-.454.273-.816.644-1.085.372-.27.836-.404 1.393-.404.609 0 1.089.157 1.441.471.352.314.528.74.528 1.278V99h-.845v-1.009h-.144l.144-.144c0 .385-.15.689-.451.913-.295.224-.689.336-1.182.336zm.211-.682c.41 0 .746-.103 1.009-.307a.956.956 0 00.394-.788v-.75h-1.614c-.288 0-.516.08-.682.24-.167.16-.25.379-.25.654 0 .294.099.528.298.701.205.167.487.25.845.25zM14.932 119v-5.284h.864v2.181h.904l1.537-2.181h.99l-1.778 2.517L19.255 119h-1.009l-1.537-2.354h-.912V119h-.865zm4.998.067v-.807h.173c.294 0 .5-.115.615-.346.121-.23.185-.643.192-1.239l.057-2.959h3.584V119h-.865v-4.496h-1.864l-.048 2.21c-.012.557-.076 1.008-.192 1.354-.109.346-.282.599-.519.759-.23.16-.534.24-.912.24h-.221zm6.352-.067v-5.284h.826v2.882c0 .186-.006.381-.019.586a8.055 8.055 0 01-.038.586c-.013.18-.029.333-.048.461l2.133-4.515h1.104V119h-.826v-2.882c0-.186.003-.381.01-.586.013-.205.029-.4.048-.586l.048-.471L27.387 119h-1.105zm7.669.096c-.416 0-.781-.083-1.095-.25a1.803 1.803 0 01-.72-.701 2.203 2.203 0 01-.25-1.066v-1.441c0-.41.083-.766.25-1.067a1.81 1.81 0 01.72-.701c.314-.167.679-.25 1.095-.25.416 0 .778.083 1.085.25.314.167.554.4.721.701.173.301.26.657.26 1.067v.931H32.73v.51c0 .416.106.736.317.96.211.218.512.327.903.327.333 0 .602-.058.807-.173a.764.764 0 00.375-.538h.864a1.473 1.473 0 01-.653 1.057c-.372.256-.836.384-1.393.384zm1.22-3.103v-.355c0-.417-.106-.737-.317-.961-.205-.224-.506-.336-.903-.336-.39 0-.692.112-.903.336-.211.224-.317.544-.317.961v.278h2.507l-.067.077zm2.49 3.007v-5.284h.865v2.2h2.229v-2.2h.865V119h-.865v-2.296h-2.229V119h-.864zm7.237 0v-4.525h-1.921v-.759h4.707v.759h-1.921V119h-.865zm6.122.077c-.423 0-.788-.08-1.095-.24a1.744 1.744 0 01-.72-.692c-.167-.307-.25-.669-.25-1.086v-1.402c0-.423.083-.785.25-1.086.172-.301.412-.531.72-.691.307-.161.672-.241 1.095-.241.423 0 .788.08 1.095.241.307.16.544.39.711.691.173.301.26.66.26 1.076v1.412c0 .417-.087.779-.26 1.086a1.683 1.683 0 01-.71.692c-.308.16-.673.24-1.096.24zm0-.769c.378 0 .672-.105.884-.317.211-.211.317-.522.317-.932v-1.402c0-.41-.106-.721-.317-.932-.212-.211-.506-.317-.884-.317-.372 0-.666.106-.884.317-.211.211-.317.522-.317.932v1.402c0 .41.106.721.317.932.218.212.512.317.884.317zm3.71.692v-5.284h2.287c.55 0 .977.125 1.278.375.3.243.451.586.451 1.028 0 .365-.125.66-.374.884-.25.217-.58.326-.99.326v-.077c.448 0 .807.113 1.076.337.275.224.413.525.413.903 0 .474-.16.845-.48 1.114-.32.263-.769.394-1.345.394H54.73zm.846-.759h1.47c.307 0 .544-.067.71-.202.174-.134.26-.323.26-.566 0-.25-.086-.442-.26-.577-.166-.134-.403-.202-.71-.202h-1.47v1.547zm0-2.296h1.441c.269 0 .48-.064.634-.192.16-.128.24-.307.24-.538 0-.231-.077-.41-.23-.538-.154-.135-.369-.202-.644-.202h-1.441v1.47zm6.823 3.151c-.243 0-.438-.07-.586-.211-.14-.141-.211-.33-.211-.567 0-.25.07-.448.211-.596.148-.147.343-.221.586-.221.244 0 .436.074.577.221.147.148.22.346.22.596 0 .237-.073.426-.22.567-.141.141-.333.211-.577.211zM14.662 17l.72-1.796-2.046-5.217h1.307l1.056 3.093a4.8 4.8 0 01.164.567c.051.199.083.356.096.471a6.283 6.283 0 01.22-1.038l.971-3.093h1.278L15.93 17h-1.268zm6.929.096c-.448 0-.842-.083-1.182-.25a1.923 1.923 0 01-.778-.72c-.186-.314-.279-.682-.279-1.105v-1.326c0-.429.093-.797.28-1.104.185-.308.444-.545.777-.711.34-.173.734-.26 1.182-.26.666 0 1.197.173 1.595.519.397.34.605.804.624 1.393h-1.2c-.02-.275-.12-.487-.299-.634-.172-.154-.413-.23-.72-.23-.32 0-.573.089-.759.268-.186.173-.279.423-.279.75v1.335c0 .327.093.58.279.759.186.18.439.269.759.269.307 0 .547-.074.72-.221.18-.154.279-.368.298-.644h1.201c-.02.59-.227 1.057-.624 1.403-.398.34-.929.51-1.595.51zM26.656 17v-4.179H24.85v-1.105h4.823v1.105h-1.806V17h-1.21zm5.709.096c-.544 0-.974-.144-1.287-.432-.314-.288-.471-.676-.471-1.163 0-.518.173-.919.519-1.2.345-.282.835-.423 1.47-.423h1.316v-.452c0-.256-.084-.454-.25-.595-.167-.148-.394-.221-.682-.221-.263 0-.48.057-.653.173a.675.675 0 00-.308.47h-1.172c.058-.5.282-.896.673-1.19.39-.296.89-.443 1.498-.443.647 0 1.156.164 1.528.49.378.32.566.756.566 1.307V17H33.95v-.922h-.192l.192-.26c0 .391-.144.702-.432.932-.288.23-.673.346-1.153.346zm.394-.903c.34 0 .615-.086.826-.26a.82.82 0 00.327-.672v-.643h-1.297c-.244 0-.439.07-.586.21a.736.736 0 00-.221.558c0 .25.083.448.25.596.172.14.406.211.7.211zm3.749.807v-5.284h1.2v2.046h1.864v-2.046h1.201V17h-1.2v-2.123h-1.864V17h-1.201zm7.822.087c-.448 0-.839-.084-1.172-.25a1.939 1.939 0 01-.768-.72c-.18-.315-.27-.683-.27-1.106v-1.306c0-.423.09-.788.27-1.095.185-.314.442-.554.768-.72.333-.174.724-.26 1.172-.26.455 0 .846.086 1.172.26.327.166.58.406.76.72.185.307.278.669.278 1.085v1.316c0 .423-.093.791-.279 1.105-.18.308-.432.548-.759.72-.326.167-.717.25-1.172.25zm0-1.048c.32 0 .567-.086.74-.26.18-.178.269-.435.269-.768v-1.306c0-.34-.09-.596-.269-.769-.173-.173-.42-.259-.74-.259-.313 0-.56.086-.74.26-.179.172-.268.428-.268.768v1.306c0 .333.09.59.269.769.179.173.425.26.74.26zm3.548.961v-5.284h2.344c.608 0 1.085.128 1.431.385.352.25.529.595.529 1.037 0 .359-.138.647-.414.865-.269.217-.627.326-1.076.326v-.086c.487 0 .878.115 1.172.346.295.224.442.525.442.903 0 .467-.179.835-.538 1.104-.352.27-.839.404-1.46.404h-2.43zm1.181-.913h1.21c.27 0 .481-.06.635-.182a.593.593 0 00.23-.49.613.613 0 00-.23-.51c-.154-.121-.365-.182-.634-.182h-1.21v1.364zm0-2.17h1.172c.237 0 .426-.058.567-.174a.576.576 0 00.211-.47.576.576 0 00-.21-.471c-.135-.122-.324-.183-.568-.183H49.06v1.297zM53.606 17v-5.284h1.2v2.075h.788l1.288-2.075h1.345l-1.595 2.556L58.255 17h-1.373l-1.288-2.19h-.787V17h-1.201zm7.207.096c-.544 0-.973-.144-1.287-.432-.314-.288-.47-.676-.47-1.163 0-.518.172-.919.518-1.2.346-.282.836-.423 1.47-.423h1.316v-.452c0-.256-.083-.454-.25-.595-.166-.148-.394-.221-.682-.221-.262 0-.48.057-.653.173a.675.675 0 00-.308.47h-1.172c.058-.5.282-.896.673-1.19.39-.296.89-.443 1.498-.443.647 0 1.157.164 1.528.49.378.32.567.756.567 1.307V17h-1.163v-.922h-.192l.192-.26c0 .391-.144.702-.432.932-.288.23-.672.346-1.153.346zm.394-.903c.34 0 .615-.086.826-.26a.82.82 0 00.327-.672v-.643h-1.297c-.243 0-.439.07-.586.21a.736.736 0 00-.22.558c0 .25.082.448.249.596.173.14.407.211.701.211zm8.93 2.152v-2.363h.355c.109-.11.221-.308.336-.596.122-.294.186-.66.192-1.095l.058-2.575h3.699v4.266h.624v2.363h-1.105V17h-3.055v1.345h-1.104zm1.575-2.363h1.922v-3.219h-1.441l-.039 1.528c-.006.429-.06.79-.163 1.085-.096.289-.19.49-.279.606zm6.756 1.105c-.448 0-.839-.084-1.172-.25a1.938 1.938 0 01-.768-.72c-.18-.315-.27-.683-.27-1.106v-1.306c0-.423.09-.788.27-1.095.185-.314.442-.554.768-.72.333-.174.724-.26 1.172-.26.455 0 .846.086 1.172.26.327.166.58.406.76.72.185.307.278.669.278 1.085v1.316c0 .423-.093.791-.279 1.105-.18.308-.432.548-.759.72-.326.167-.717.25-1.172.25zm0-1.048c.32 0 .567-.086.74-.26.18-.178.269-.435.269-.768v-1.306c0-.34-.09-.596-.27-.769-.172-.173-.419-.259-.739-.259-.314 0-.56.086-.74.26-.179.172-.268.428-.268.768v1.306c0 .333.09.59.269.769.179.173.425.26.74.26zm3.557.961v-5.284h4.266V17H85.09v-4.17h-1.864V17h-1.2zm7.822.087c-.448 0-.838-.084-1.171-.25a1.938 1.938 0 01-.769-.72c-.18-.315-.269-.683-.269-1.106v-1.306c0-.423.09-.788.269-1.095.186-.314.442-.554.769-.72.332-.174.723-.26 1.171-.26.455 0 .846.086 1.173.26.326.166.58.406.758.72.186.307.28.669.28 1.085v1.316c0 .423-.094.791-.28 1.105a1.86 1.86 0 01-.758.72c-.327.167-.718.25-1.172.25zm0-1.048c.32 0 .567-.086.74-.26.18-.178.27-.435.27-.768v-1.306c0-.34-.09-.596-.27-.769-.173-.173-.42-.259-.74-.259-.313 0-.56.086-.74.26-.178.172-.268.428-.268.768v1.306c0 .333.09.59.269.769.18.173.426.26.74.26zm3.03 1.028v-1.095h.24a.54.54 0 00.49-.26c.115-.179.175-.46.182-.845l.057-3.15h3.824V17h-1.201v-4.17h-1.441l-.038 2.105c-.013.46-.09.851-.231 1.172-.14.313-.343.554-.605.72-.263.16-.583.24-.96.24h-.318zM99.093 17v-5.284h1.201v2.046h1.864v-2.046h1.201V17h-1.201v-2.123h-1.864V17h-1.2zm5.69 0v-5.284h1.085v2.604c0 .166-.009.365-.028.595a13.964 13.964 0 01-.135 1.23l1.864-4.429h1.479V17h-1.085v-2.603c0-.173.006-.366.019-.577l.057-.624c.026-.205.052-.378.077-.519L106.263 17h-1.479zM112 17v-4.179h-1.806v-1.105h4.822v1.105h-1.806V17H112zm6.304.096c-.448 0-.839-.086-1.172-.26a1.925 1.925 0 01-.778-.72 2.172 2.172 0 01-.269-1.095v-1.326c0-.416.09-.778.269-1.085.186-.314.445-.557.778-.73.333-.173.724-.26 1.172-.26.442 0 .827.087 1.153.26.333.172.589.416.769.73.185.307.278.669.278 1.085v.951h-3.256v.375c0 .371.089.653.269.845.179.186.445.279.797.279.269 0 .487-.045.653-.134a.64.64 0 00.317-.414h1.182c-.09.455-.333.82-.73 1.096-.391.269-.868.403-1.432.403zm1.038-3.122v-.288c0-.365-.087-.644-.259-.836-.173-.199-.433-.298-.779-.298-.345 0-.608.1-.787.298-.18.198-.269.48-.269.845v.202l2.18-.02-.086.097zm1.981 3.093v-1.095h.241a.542.542 0 00.49-.26c.115-.179.176-.46.182-.845l.058-3.15h3.823V17h-1.201v-4.17h-1.441l-.038 2.105c-.013.46-.09.851-.231 1.172a1.602 1.602 0 01-.605.72c-.262.16-.583.24-.961.24h-.317zM127.58 17v-5.284h1.201v1.73h1.364c.64 0 1.14.16 1.498.48.366.314.548.75.548 1.306 0 .545-.186.977-.557 1.297-.365.314-.858.471-1.48.471h-2.574zm1.201-1.057h1.316c.282 0 .496-.06.643-.182.154-.128.231-.308.231-.538 0-.23-.077-.407-.231-.529-.147-.128-.361-.192-.643-.192h-1.316v1.441zm4.45 1.057v-5.284h1.201v2.046h1.864v-2.046h1.2V17h-1.2v-2.123h-1.864V17h-1.201zm5.421 0v-5.284h1.037v1.787h.356c.57 0 1.021.16 1.354.48.333.32.5.75.5 1.288 0 .525-.17.944-.509 1.258-.333.314-.782.471-1.345.471h-1.393zm1.037-.932h.356c.275 0 .486-.07.634-.211.153-.141.23-.336.23-.586 0-.263-.077-.468-.23-.615-.148-.147-.359-.221-.634-.221h-.356v1.633zm2.729.932v-5.284h1.037V17h-1.037zm1.789 0l1.844-2.728-1.719-2.556h1.354l.817 1.297c.051.077.096.164.134.26l.106.23.106-.23a3.22 3.22 0 01.134-.26l.826-1.297h1.355l-1.72 2.556L149.28 17h-1.364l-.913-1.45a2.74 2.74 0 01-.144-.27 3.414 3.414 0 00-.115-.23l-.106.23a2.372 2.372 0 01-.144.27l-.932 1.45h-1.354zM13.74 36v-5.284h2.344c.608 0 1.085.128 1.431.385.352.25.529.595.529 1.037 0 .359-.138.647-.414.865-.268.217-.627.326-1.075.326v-.086c.486 0 .877.115 1.172.346.294.224.441.525.441.903 0 .467-.179.836-.538 1.105-.352.268-.838.403-1.46.403h-2.43zm1.181-.913h1.21c.27 0 .481-.06.635-.182a.592.592 0 00.23-.49.613.613 0 00-.23-.51c-.154-.121-.365-.182-.634-.182h-1.21v1.364zm0-2.17h1.172c.237 0 .426-.058.567-.174a.576.576 0 00.212-.47.576.576 0 00-.212-.471c-.134-.122-.323-.183-.567-.183h-1.172v1.297zM19.44 36v-5.284h1.085v2.604c0 .166-.01.365-.028.595a13.981 13.981 0 01-.134 1.23l1.863-4.429h1.48V36H22.62v-2.603c0-.173.006-.365.019-.577.02-.211.038-.42.058-.624.025-.205.05-.378.076-.519L20.919 36H19.44zm5.18 1.345v-2.363h.356c.109-.11.22-.308.336-.596.122-.294.186-.66.192-1.095l.058-2.575h3.698v4.266h.625v2.363H28.78V36h-3.055v1.345H24.62zm1.576-2.363h1.921v-3.219h-1.44l-.04 1.528c-.005.429-.06.79-.162 1.086-.096.288-.19.49-.279.605zM30.155 36l1.067-2.71-.99-2.574h1.076l.846 2.335h.355v-2.335h.884v2.335h.355l.894-2.335h1.028l-.99 2.546L35.746 36H34.68l-.922-2.43h-.365V36h-.884v-2.43h-.375L31.26 36h-1.105zm8.495.096c-.448 0-.839-.086-1.172-.26a1.923 1.923 0 01-.778-.72 2.17 2.17 0 01-.269-1.095v-1.326c0-.416.09-.778.27-1.085.185-.314.444-.558.777-.73.333-.173.724-.26 1.172-.26.442 0 .826.087 1.153.26.333.172.59.416.769.73.185.307.278.669.278 1.085v.951h-3.257v.375c0 .371.09.653.27.845.179.186.445.279.797.279.269 0 .487-.045.653-.135a.642.642 0 00.317-.413h1.182c-.09.455-.333.82-.73 1.096-.391.269-.868.403-1.432.403zm1.038-3.122v-.288c0-.365-.087-.644-.26-.836-.172-.199-.432-.298-.778-.298-.346 0-.608.1-.788.298-.179.198-.269.48-.269.845v.202l2.181-.02-.086.097zM43.725 36v-4.179H41.92v-1.105h4.823v1.105h-1.806V36h-1.21zm6.295.087c-.448 0-.839-.084-1.172-.25a1.938 1.938 0 01-.769-.72 2.2 2.2 0 01-.269-1.106v-1.306c0-.423.09-.788.27-1.095a1.84 1.84 0 01.768-.72c.333-.174.724-.26 1.172-.26.455 0 .845.086 1.172.26.327.166.58.406.759.72.186.307.279.669.279 1.085v1.316c0 .423-.093.791-.28 1.105a1.848 1.848 0 01-.758.72c-.327.167-.717.25-1.172.25zm0-1.048c.32 0 .567-.086.74-.26.179-.178.269-.435.269-.768v-1.306c0-.34-.09-.596-.27-.769-.172-.173-.419-.259-.739-.259-.314 0-.56.086-.74.26-.18.172-.269.428-.269.768v1.306c0 .333.09.59.27.769.179.173.425.26.739.26zm3.547.961v-5.284h2.344c.609 0 1.086.128 1.432.385.352.25.528.595.528 1.037 0 .359-.138.647-.413.865-.269.217-.628.326-1.076.326v-.086c.487 0 .878.115 1.172.346.295.224.442.525.442.903 0 .467-.18.836-.538 1.105-.352.268-.839.403-1.46.403h-2.43zm1.182-.913h1.21c.27 0 .48-.06.634-.182a.593.593 0 00.231-.49.613.613 0 00-.23-.51c-.154-.121-.366-.182-.635-.182h-1.21v1.364zm0-2.17h1.172c.237 0 .426-.058.567-.174a.576.576 0 00.211-.47.576.576 0 00-.211-.471c-.135-.122-.324-.183-.567-.183h-1.172v1.297zm6.65-.683c-.269 0-.486-.074-.653-.22a.777.777 0 01-.24-.587c0-.243.08-.439.24-.586.166-.147.384-.22.653-.22.27 0 .484.073.644.22.166.147.25.343.25.586a.763.763 0 01-.25.586c-.16.148-.375.221-.644.221zm0 3.862c-.269 0-.486-.074-.653-.22a.758.758 0 01-.24-.587c0-.243.08-.439.24-.586.166-.147.384-.22.653-.22.27 0 .484.073.644.22.166.147.25.343.25.586a.744.744 0 01-.25.586c-.16.147-.375.221-.644.221z" fill="#000"/><defs><filter id="filter0_d_394_1207" x=".157" y="0" width="179.646" height="178.685" filterUnits="userSpaceOnUse" color-interpolation-filters="sRGB"><feFlood flood-opacity="0" result="BackgroundImageFix"/><feColorMatrix in="SourceAlpha" values="0 0 0 0 0 0 0 0 0 0 0 0 0 0 0 0 0 0 127 0" result="hardAlpha"/><feOffset dy="3.843"/><feGaussianBlur stdDeviation="1.921"/><feComposite in2="hardAlpha" operator="out"/><feColorMatrix values="0 0 0 0 0 0 0 0 0 0 0 0 0 0 0 0 0 0 0.25 0"/><feBlend in2="BackgroundImageFix" result="effect1_dropShadow_394_1207"/><feBlend in="SourceGraphic" in2="effect1_dropShadow_394_1207" result="shape"/></filter></defs></svg>