<svg width="181" height="179" fill="none" xmlns="http://www.w3.org/2000/svg"><g filter="url(#filter0_d_394_1347)"><rect x="4.646" width="171.961" height="171" rx="16.011" fill="#E1EDE4"/></g><mask id="a" style="mask-type:alpha" maskUnits="userSpaceOnUse" x="4" y="0" width="173" height="43"><path fill="#C9D9CD" d="M4.646 0h171.961v42.27H4.646z"/></mask><g mask="url(#a)"><rect x="4.646" y="-1.69" width="171.961" height="118.355" rx="16.011" fill="#C09F6D"/></g><path d="M14.894 62v-7.013h1.989c.64 0 1.14.16 1.498.48.365.32.548.766.548 1.336 0 .32-.067.599-.202.836a1.36 1.36 0 01-.576.547c-.244.128-.538.19-.884.183v-.144c.371-.007.692.064.96.21.276.148.487.36.634.635.154.275.231.602.231.98 0 .397-.083.743-.25 1.037a1.699 1.699 0 01-.71.682c-.308.154-.676.231-1.105.231h-2.133zm.845-.778h1.191c.404 0 .721-.106.952-.317.237-.218.355-.513.355-.884 0-.384-.118-.695-.355-.932-.23-.243-.548-.365-.952-.365h-1.19v2.498zm0-3.247h1.134c.371 0 .663-.1.874-.298.218-.199.327-.468.327-.807 0-.34-.106-.608-.317-.807-.212-.199-.503-.298-.875-.298H15.74v2.21zM20.315 62v-5.284h.806v1.94h.433c.57 0 1.018.151 1.345.452.333.295.5.702.5 1.22 0 .52-.167.93-.5 1.23-.327.295-.775.442-1.345.442h-1.24zm.806-.692h.433c.34 0 .602-.086.788-.26.192-.172.288-.412.288-.72 0-.307-.096-.547-.288-.72-.186-.173-.449-.26-.788-.26h-.432v1.96zm2.902.692v-5.284h.807V62h-.807zm1.933 0l1.355-2.037c-.404-.096-.718-.281-.942-.557-.218-.275-.326-.618-.326-1.028 0-.519.17-.925.509-1.22.346-.294.816-.442 1.412-.442h2.277V62h-.865v-1.97h-1.162L26.964 62h-1.008zm2.008-2.738h1.412v-1.777h-1.412c-.32 0-.573.08-.759.24-.186.154-.278.371-.278.653 0 .276.092.493.278.654.186.153.439.23.759.23zM31.973 62v-5.284h2.286c.55 0 .977.125 1.278.375.3.243.451.586.451 1.028 0 .365-.125.66-.375.884-.25.217-.58.326-.99.326v-.077c.45 0 .808.113 1.077.337.275.224.413.525.413.903 0 .474-.16.845-.48 1.114-.32.263-.769.394-1.345.394h-2.315zm.845-.759h1.47c.307 0 .544-.067.71-.202.174-.134.26-.323.26-.567 0-.25-.087-.441-.26-.576-.166-.134-.403-.202-.71-.202h-1.47v1.547zm0-2.296h1.44c.27 0 .481-.064.635-.192.16-.128.24-.307.24-.538 0-.23-.077-.41-.23-.538-.154-.135-.369-.202-.644-.202h-1.441v1.47zM37.662 62v-5.284h.826v2.882c0 .186-.006.381-.019.586-.006.205-.02.4-.038.586-.013.18-.03.333-.048.461l2.132-4.515h1.105V62h-.826v-2.882c0-.186.003-.381.01-.586.012-.205.028-.4.048-.586l.048-.47L38.767 62h-1.105zm5.027.067v-.807h.173c.294 0 .5-.115.615-.346.121-.23.185-.643.192-1.239l.058-2.959h3.583V62h-.865v-4.496h-1.864l-.048 2.21c-.012.557-.076 1.008-.192 1.354-.109.346-.282.599-.519.76-.23.16-.534.24-.912.24h-.221zM49.04 62v-5.284h.827v2.882c0 .186-.007.381-.02.586-.006.205-.019.4-.038.586a6.1 6.1 0 01-.048.461l2.133-4.515h1.104V62h-.826v-2.882c0-.186.003-.381.01-.586.013-.205.029-.4.048-.586l.048-.47L50.146 62h-1.105zm11.207 0v-5.284h1.172l.691 2.027c.071.205.135.41.193.615.057.199.099.352.125.461.025-.109.064-.262.115-.46.058-.206.118-.414.182-.625l.654-2.018h1.172V62h-.836v-.817c0-.288.003-.602.01-.941l.019-1.028c.013-.346.025-.672.038-.98.013-.314.023-.59.029-.826l-.941 3.007h-.913l-.951-2.988c.013.288.022.647.029 1.076.012.43.022.878.028 1.345.013.468.02.913.02 1.335V62h-.836zm5.862 0v-5.284h.827v2.882c0 .186-.007.381-.02.586-.006.205-.019.4-.038.586-.013.18-.029.333-.048.461l2.133-4.515h1.104V62h-.826v-2.882c0-.186.003-.381.01-.586.013-.205.029-.4.048-.586l.048-.47L67.215 62H66.11zm5.69 0v-5.284h.865v2.2h2.228v-2.2h.865V62h-.865v-2.296h-2.228V62H71.8zm5.69 0v-5.284h.826v2.882c0 .186-.007.381-.02.586-.006.205-.019.4-.038.586-.012.18-.029.333-.048.461l2.133-4.515h1.105V62h-.826v-2.882c0-.186.003-.381.01-.586.012-.205.028-.4.047-.586l.048-.47L78.594 62H77.49zm5.517 0v-5.284h1.171l.692 2.027c.07.205.135.41.192.615.058.199.1.352.125.461.026-.109.064-.262.115-.46.058-.206.119-.414.183-.625l.653-2.018h1.172V62h-.835v-.817c0-.288.003-.602.01-.941l.018-1.028.039-.98c.013-.314.022-.59.029-.826l-.942 3.007h-.913l-.95-2.988c.012.288.022.647.028 1.076.013.43.023.878.029 1.345.013.468.02.913.02 1.335V62h-.837zm7.38.096c-.557 0-.996-.14-1.316-.423-.32-.288-.48-.675-.48-1.162 0-.493.16-.88.48-1.163.32-.281.752-.422 1.297-.422H92v-.529c0-.326-.1-.576-.298-.749-.192-.18-.468-.269-.826-.269-.314 0-.577.067-.788.202a.718.718 0 00-.365.528h-.865c.058-.454.273-.816.644-1.085.371-.27.836-.404 1.393-.404.608 0 1.089.157 1.441.471.352.314.528.74.528 1.278V62h-.845v-1.009h-.144l.144-.144c0 .384-.15.689-.451.913-.295.224-.689.336-1.182.336zm.211-.682c.41 0 .746-.102 1.009-.307a.957.957 0 00.394-.788v-.75h-1.614c-.288 0-.516.08-.682.24-.167.16-.25.379-.25.654 0 .294.1.528.298.701.205.167.487.25.845.25zm3.298.653v-.807h.173c.294 0 .5-.115.615-.346.121-.23.185-.643.192-1.239l.057-2.959h3.584V62h-.865v-4.496h-1.864l-.048 2.21c-.012.557-.076 1.008-.192 1.354-.109.346-.282.599-.519.76-.23.16-.534.24-.912.24h-.221zm6.391-.067v-5.284h.864v1.94h1.557c.595 0 1.063.151 1.402.452.346.295.519.702.519 1.22 0 .513-.173.92-.519 1.22-.346.301-.813.452-1.402.452h-2.421zm.864-.788h1.557c.333 0 .586-.073.759-.22.179-.154.269-.375.269-.664 0-.288-.09-.506-.269-.653-.173-.153-.426-.23-.759-.23h-1.557v1.767zm4.787.788v-5.284h.865v2.2h2.228v-2.2h.865V62h-.865v-2.296h-2.228V62h-.865zm7.669.077c-.423 0-.788-.08-1.096-.24a1.745 1.745 0 01-.72-.692c-.167-.307-.25-.67-.25-1.086v-1.402c0-.423.083-.785.25-1.086.173-.3.413-.531.72-.691.308-.16.673-.24 1.096-.24.422 0 .787.08 1.095.24.307.16.544.39.711.691.173.301.259.66.259 1.076v1.412c0 .417-.086.779-.259 1.086a1.689 1.689 0 01-.711.692c-.308.16-.673.24-1.095.24zm0-.769c.378 0 .672-.105.883-.317.212-.211.317-.522.317-.932v-1.402c0-.41-.105-.72-.317-.932-.211-.211-.505-.317-.883-.317-.372 0-.666.106-.884.317-.212.211-.317.522-.317.932v1.402c0 .41.105.72.317.932.218.212.512.317.884.317zm5.689.788c-.416 0-.781-.083-1.095-.25a1.81 1.81 0 01-.72-.701 2.199 2.199 0 01-.25-1.066v-1.441c0-.41.083-.766.25-1.067a1.81 1.81 0 01.72-.701 2.31 2.31 0 011.095-.25c.417 0 .778.084 1.086.25.314.166.554.4.72.701.173.301.26.657.26 1.067v.931h-3.286v.51c0 .416.106.736.317.96.212.218.513.327.903.327.333 0 .602-.058.807-.173a.764.764 0 00.375-.538h.865a1.473 1.473 0 01-.654 1.057c-.371.256-.836.384-1.393.384zm1.22-3.103v-.355c0-.417-.105-.737-.317-.961-.205-.224-.506-.336-.903-.336-.39 0-.691.112-.903.336-.211.224-.317.544-.317.96v.28h2.508l-.068.076zM14.932 81v-5.284h.865v2.181h.903l1.537-2.18h.99l-1.778 2.516L19.255 81h-1.008l-1.537-2.354h-.913V81h-.865zm7.64.077c-.422 0-.788-.08-1.095-.24a1.744 1.744 0 01-.72-.692c-.167-.307-.25-.67-.25-1.086v-1.402c0-.423.083-.785.25-1.086.172-.3.413-.531.72-.691.307-.16.672-.24 1.095-.24.423 0 .788.08 1.095.24.308.16.545.39.711.691.173.301.26.66.26 1.076v1.412c0 .417-.087.779-.26 1.086a1.683 1.683 0 01-.71.692c-.308.16-.673.24-1.096.24zm0-.769c.378 0 .673-.105.884-.317.211-.211.317-.522.317-.932v-1.402c0-.41-.106-.72-.317-.932-.211-.211-.506-.317-.884-.317-.371 0-.666.106-.884.317-.211.211-.317.522-.317.932v1.402c0 .41.106.72.317.932.218.212.513.317.884.317zm3.048.76v-.808h.173c.294 0 .5-.115.615-.346.121-.23.185-.643.192-1.239l.057-2.959h3.584V81h-.865v-4.496h-1.864l-.047 2.21c-.013.557-.077 1.008-.193 1.354-.109.346-.281.599-.518.76-.231.16-.535.24-.913.24h-.221zM31.972 81v-5.284h.827v2.882c0 .186-.007.381-.02.586-.006.205-.019.4-.038.586a6.1 6.1 0 01-.048.462l2.133-4.516h1.105V81h-.827v-2.882c0-.186.004-.381.01-.586.013-.205.029-.4.048-.586l.048-.47L33.077 81h-1.104zm8.726 0v-1.921a4.8 4.8 0 01-.47.077 7.137 7.137 0 01-.654.028c-.653.007-1.163-.15-1.528-.47-.358-.327-.538-.782-.538-1.365v-1.633h.865v1.633c0 .327.109.586.327.779.224.185.531.278.922.278.269 0 .496-.01.682-.029a3.59 3.59 0 00.394-.067v-2.594h.864V81h-.864zm4.633.096c-.417 0-.782-.083-1.095-.25a1.807 1.807 0 01-.72-.701 2.204 2.204 0 01-.25-1.066v-1.441c0-.41.083-.766.25-1.067.172-.3.412-.534.72-.701.313-.166.678-.25 1.095-.25.416 0 .778.084 1.085.25.314.166.554.4.72.701.174.301.26.657.26 1.067v.931h-3.285v.51c0 .416.105.736.317.96.211.218.512.327.903.327.333 0 .602-.058.807-.173a.763.763 0 00.374-.538h.865a1.472 1.472 0 01-.653 1.057c-.372.256-.836.384-1.393.384zm1.22-3.103v-.355c0-.417-.106-.737-.317-.961-.205-.224-.506-.336-.903-.336-.39 0-.692.112-.903.336-.212.224-.317.544-.317.96v.28h2.507l-.067.076zm4.489 3.103c-.423 0-.794-.08-1.115-.24a1.73 1.73 0 01-.73-.692c-.173-.307-.26-.67-.26-1.085v-1.441c0-.423.087-.785.26-1.086a1.73 1.73 0 01.73-.692c.32-.16.692-.24 1.115-.24.608 0 1.098.163 1.47.49.37.327.566.772.586 1.335h-.865c-.02-.339-.135-.598-.346-.778-.205-.185-.487-.278-.845-.278-.378 0-.68.109-.903.326-.224.212-.337.516-.337.913v1.45c0 .398.113.705.337.923.224.218.525.326.903.326.358 0 .64-.092.845-.278.211-.186.327-.445.346-.778h.864c-.019.563-.214 1.008-.585 1.335-.372.327-.862.49-1.47.49zM56.278 81v-4.525h-1.922v-.759h4.708v.76h-1.922V81h-.864zm4.143 0v-5.284h2.286c.551 0 .977.125 1.278.375.3.243.451.586.451 1.028 0 .365-.125.66-.374.884-.25.217-.58.326-.99.326v-.076c.448 0 .807.112 1.076.336.276.224.413.525.413.903 0 .474-.16.845-.48 1.114-.32.263-.769.394-1.345.394h-2.315zm.845-.759h1.47c.307 0 .544-.067.71-.202.174-.134.26-.323.26-.567 0-.25-.086-.441-.26-.576-.166-.134-.403-.202-.71-.202h-1.47v1.547zm0-2.296h1.441c.27 0 .48-.064.634-.192.16-.128.24-.308.24-.538 0-.23-.077-.41-.23-.538-.154-.135-.368-.202-.644-.202h-1.44v1.47zm6.823 3.132c-.422 0-.787-.08-1.095-.24a1.744 1.744 0 01-.72-.692c-.167-.307-.25-.67-.25-1.086v-1.402c0-.423.083-.785.25-1.086.173-.3.413-.531.72-.691.308-.16.673-.24 1.095-.24.423 0 .788.08 1.096.24.307.16.544.39.71.691.173.301.26.66.26 1.076v1.412c0 .417-.087.779-.26 1.086a1.683 1.683 0 01-.71.692c-.308.16-.673.24-1.096.24zm0-.769c.378 0 .673-.105.884-.317.212-.211.317-.522.317-.932v-1.402c0-.41-.105-.72-.317-.932-.211-.211-.506-.317-.884-.317-.371 0-.666.106-.883.317-.212.211-.317.522-.317.932v1.402c0 .41.105.72.317.932.217.212.512.317.883.317zm9.4.692v-5.284h3.959V81h-.865v-4.496h-2.229V81h-.864zm5.671 1.73v-7.014h.865v1.009h.173l-.173.202c0-.404.131-.72.394-.951.269-.237.62-.356 1.056-.356.532 0 .955.176 1.269.529.32.345.48.823.48 1.431v1.547c0 .403-.074.752-.221 1.047a1.57 1.57 0 01-.605.682c-.257.16-.564.24-.923.24-.429 0-.778-.118-1.047-.355-.269-.237-.403-.554-.403-.951l.173.201h-.192l.019 1.201v1.537h-.865zm2.027-2.383c.365 0 .65-.11.855-.327.212-.218.317-.531.317-.941v-1.441c0-.41-.105-.724-.317-.942-.205-.218-.49-.326-.855-.326-.352 0-.634.112-.845.336-.212.224-.317.535-.317.932v1.44c0 .398.105.708.317.932.211.225.493.337.845.337zm5.661.73c-.423 0-.788-.08-1.095-.24a1.743 1.743 0 01-.72-.692c-.167-.307-.25-.67-.25-1.086v-1.402c0-.423.083-.785.25-1.086.172-.3.412-.531.72-.691.307-.16.672-.24 1.095-.24.423 0 .788.08 1.095.24.308.16.545.39.711.691.173.301.26.66.26 1.076v1.412c0 .417-.087.779-.26 1.086a1.683 1.683 0 01-.71.692c-.308.16-.673.24-1.096.24zm0-.769c.378 0 .672-.105.884-.317.211-.211.317-.522.317-.932v-1.402c0-.41-.106-.72-.317-.932-.212-.211-.506-.317-.884-.317-.371 0-.666.106-.884.317-.211.211-.317.522-.317.932v1.402c0 .41.106.72.317.932.218.212.513.317.884.317zm3.096 2.037V80.26h.432c.109-.109.221-.323.336-.643.122-.32.186-.727.192-1.22l.058-2.68h3.449v4.543h.672v2.085h-.768V81h-3.603v1.345h-.768zm1.345-2.085h2.257v-3.775H95.78l-.039 1.93c-.006.507-.06.917-.163 1.23-.102.314-.198.52-.288.615zm6.477.836c-.557 0-.996-.14-1.316-.423-.32-.288-.48-.675-.48-1.162 0-.493.16-.88.48-1.162.32-.282.753-.423 1.297-.423h1.633v-.529c0-.326-.099-.576-.298-.749-.192-.18-.467-.269-.826-.269-.314 0-.576.067-.788.202a.718.718 0 00-.365.528h-.864c.057-.454.272-.816.643-1.085.372-.27.836-.404 1.393-.404.609 0 1.089.157 1.441.471.353.314.529.74.529 1.278V81h-.846v-1.009h-.144l.144-.144c0 .385-.15.689-.451.913-.295.224-.689.336-1.182.336zm.212-.682c.409 0 .746-.103 1.008-.307a.956.956 0 00.394-.788v-.75h-1.614c-.288 0-.515.08-.682.24-.166.16-.25.379-.25.654 0 .294.1.528.298.701.205.167.487.25.846.25zm3.23.586l1.153-2.71-1.076-2.574h.836l.922 2.306h.509v-2.306h.73v2.306h.49l.951-2.306h.826l-1.076 2.546L110.626 81h-.865l-.96-2.402h-.519V81h-.73v-2.402h-.519l-.97 2.402h-.855zm11.494 1.345V80.26h.433c.109-.109.221-.323.336-.643.122-.32.186-.727.192-1.22l.058-2.68h3.449v4.543h.672v2.085h-.768V81h-3.603v1.345h-.769zm1.345-2.085h2.258v-3.775h-1.768l-.038 1.93c-.006.507-.061.917-.163 1.23-.103.314-.199.52-.289.615zm4.297.807v-.807h.173c.295 0 .5-.115.615-.346.122-.23.186-.643.192-1.239l.058-2.959h3.583V81h-.865v-4.496h-1.863l-.048 2.21c-.013.557-.077 1.008-.193 1.354-.108.346-.281.599-.518.76-.231.16-.535.24-.913.24h-.221zM128.37 81l1.355-2.037c-.404-.096-.718-.281-.942-.557-.218-.275-.327-.618-.327-1.028 0-.519.17-.925.51-1.22.345-.294.816-.442 1.412-.442h2.277V81h-.865v-1.97h-1.162L129.379 81h-1.009zm2.008-2.738h1.412v-1.777h-1.412c-.32 0-.573.08-.759.24-.186.154-.279.372-.279.653 0 .276.093.493.279.653.186.154.439.231.759.231zM14.904 100v-5.284h3.957V100h-.864v-4.496h-2.229V100h-.865zm7.668.077c-.422 0-.788-.08-1.095-.24a1.744 1.744 0 01-.72-.692c-.167-.307-.25-.67-.25-1.086v-1.402c0-.423.083-.785.25-1.086.172-.3.413-.531.72-.691.307-.16.672-.24 1.095-.24.423 0 .788.08 1.095.24.308.16.545.39.711.691.173.301.26.66.26 1.076v1.412c0 .417-.087.779-.26 1.086a1.683 1.683 0 01-.71.692c-.308.16-.673.24-1.096.24zm0-.769c.378 0 .673-.105.884-.317.211-.211.317-.522.317-.932v-1.402c0-.41-.106-.72-.317-.932-.211-.211-.506-.317-.884-.317-.371 0-.666.106-.884.317-.211.211-.317.522-.317.932v1.402c0 .41.106.72.317.932.218.212.513.317.884.317zm3.74.692v-5.284h.864v2.181h.903l1.537-2.18h.99l-1.777 2.516L30.635 100h-1.009l-1.537-2.354h-.913V100h-.864zm5.641 1.729v-7.013h.865v1.009h.173l-.173.202c0-.404.131-.72.394-.951.269-.237.621-.356 1.056-.356.532 0 .955.176 1.269.529.32.345.48.823.48 1.431v1.547c0 .403-.074.752-.221 1.047a1.57 1.57 0 01-.605.682c-.256.16-.564.24-.922.24-.43 0-.779-.118-1.048-.355s-.403-.554-.403-.951l.173.201h-.192l.019 1.201v1.537h-.865zm2.027-2.382c.365 0 .65-.11.855-.327.212-.218.317-.531.317-.941v-1.441c0-.41-.105-.724-.317-.942-.205-.218-.49-.326-.855-.326-.352 0-.634.112-.845.336-.211.224-.317.535-.317.932v1.44c0 .398.106.708.317.932.211.225.493.337.845.337zm3.404.653v-5.284h.806v1.94h.433c.57 0 1.018.151 1.345.452.333.295.5.702.5 1.22 0 .52-.167.93-.5 1.23-.327.295-.775.442-1.345.442h-1.24zm.806-.692h.433c.34 0 .602-.086.788-.26.192-.172.288-.412.288-.72 0-.307-.096-.547-.288-.72-.186-.173-.449-.26-.788-.26h-.432v1.96zm2.902.692v-5.284h.807V100h-.807zm3.806 0v-4.525h-1.92v-.759h4.706v.76h-1.92V100h-.866zm4.143 0v-5.284h.827v2.882c0 .186-.007.381-.02.586-.006.205-.019.4-.038.586a6.1 6.1 0 01-.048.462l2.133-4.516h1.104V100h-.826v-2.882c0-.186.003-.381.01-.586.013-.205.029-.4.048-.586l.048-.47L50.146 100h-1.105zm5.364 0l1.354-2.037c-.404-.096-.717-.281-.941-.557-.218-.275-.327-.618-.327-1.028 0-.519.17-.925.51-1.22.345-.294.816-.442 1.411-.442h2.277V100h-.864v-1.97h-1.163L55.413 100h-1.008zm2.007-2.738h1.413v-1.777h-1.413c-.32 0-.573.08-.759.24-.185.154-.278.372-.278.653 0 .276.093.493.278.653.186.154.44.231.76.231zm11.428 2.805c-.558 0-1.016-.118-1.374-.355a1.412 1.412 0 01-.634-.96h.913c.044.16.163.29.355.393.198.103.445.154.74.154h.451c.314 0 .557-.074.73-.221a.71.71 0 00.27-.577c0-.256-.087-.458-.26-.605-.167-.147-.413-.22-.74-.22H67.13v-.75h1.133c.295 0 .52-.07.673-.212a.72.72 0 00.23-.557.728.728 0 00-.105-.403.611.611 0 00-.298-.25 1.243 1.243 0 00-.49-.086h-.48a1.23 1.23 0 00-.663.172c-.186.116-.298.257-.337.423h-.912c.064-.397.272-.724.624-.98s.782-.384 1.288-.384h.48c.378 0 .701.06.97.183.27.115.474.281.615.5.147.217.221.476.221.777 0 .314-.103.574-.307.778-.205.199-.494.311-.865.337v.038c.455.032.784.154.99.365.204.212.307.516.307.913 0 .467-.173.839-.519 1.114-.346.276-.81.413-1.393.413h-.451zm5.478.029c-.557 0-.996-.14-1.316-.423-.32-.288-.48-.675-.48-1.162 0-.493.16-.88.48-1.162.32-.282.752-.423 1.297-.423h1.633v-.529c0-.326-.1-.576-.298-.749-.192-.18-.468-.269-.826-.269-.314 0-.577.067-.788.202a.718.718 0 00-.365.528h-.865c.058-.454.273-.816.644-1.085.372-.27.836-.404 1.393-.404.609 0 1.089.157 1.441.471.352.314.528.74.528 1.278V100h-.845v-1.009h-.144l.144-.144c0 .385-.15.689-.451.913-.295.224-.689.336-1.182.336zm.211-.682c.41 0 .746-.103 1.009-.307a.957.957 0 00.394-.788v-.75h-1.614c-.288 0-.516.08-.682.24-.167.16-.25.379-.25.654 0 .294.1.528.298.701.205.167.487.25.845.25zm5.507.586v-4.525h-1.92v-.759h4.706v.76h-1.921V100h-.865zm4.124 1.729v-7.013h.865v1.009h.173l-.173.202c0-.404.131-.72.394-.951.269-.237.62-.356 1.056-.356.532 0 .955.176 1.269.529.32.345.48.823.48 1.431v1.547c0 .403-.074.752-.221 1.047a1.57 1.57 0 01-.605.682c-.257.16-.564.24-.923.24-.429 0-.778-.118-1.047-.355-.269-.237-.403-.554-.403-.951l.173.201h-.192l.019 1.201v1.537h-.865zm2.027-2.382c.365 0 .65-.11.855-.327.212-.218.317-.531.317-.941v-1.441c0-.41-.105-.724-.317-.942-.205-.218-.49-.326-.855-.326-.352 0-.634.112-.845.336-.212.224-.317.535-.317.932v1.44c0 .398.105.708.317.932.211.225.493.337.845.337zm5.2.749c-.557 0-.996-.14-1.316-.423-.32-.288-.48-.675-.48-1.162 0-.493.16-.88.48-1.162.32-.282.752-.423 1.297-.423H92v-.529c0-.326-.1-.576-.298-.749-.192-.18-.468-.269-.826-.269-.314 0-.577.067-.788.202a.718.718 0 00-.365.528h-.865c.058-.454.273-.816.644-1.085.371-.27.836-.404 1.393-.404.608 0 1.089.157 1.441.471.352.314.528.74.528 1.278V100h-.845v-1.009h-.144l.144-.144c0 .385-.15.689-.451.913-.295.224-.689.336-1.182.336zm.211-.682c.41 0 .746-.103 1.009-.307a.957.957 0 00.394-.788v-.75h-1.614c-.288 0-.516.08-.682.24-.167.16-.25.379-.25.654 0 .294.1.528.298.701.205.167.487.25.845.25zm5.507.586v-4.525h-1.921v-.759h4.707v.76H96.97V100h-.865zm6.122.096c-.243 0-.438-.07-.586-.211-.141-.141-.211-.33-.211-.567 0-.25.07-.448.211-.596.148-.147.343-.22.586-.22.244 0 .436.073.577.22.147.148.221.346.221.596 0 .237-.074.426-.221.567-.141.141-.333.211-.577.211zm-85.344-84c-.449 0-.84-.083-1.172-.25a1.872 1.872 0 01-.76-.72c-.172-.314-.259-.682-.259-1.105v-3.055c0-.423.087-.788.26-1.095.179-.314.432-.554.758-.72.334-.174.724-.26 1.172-.26.455 0 .846.086 1.172.26.327.166.577.406.75.72.18.307.269.67.269 1.085v3.065c0 .423-.09.791-.27 1.105a1.808 1.808 0 01-.748.72c-.327.167-.718.25-1.172.25zm0-1.057c.326 0 .573-.086.74-.26.166-.178.249-.431.249-.758v-3.055c0-.333-.083-.586-.25-.759-.166-.173-.413-.26-.74-.26-.326 0-.573.087-.74.26-.166.173-.249.426-.249.76v3.054c0 .327.083.58.25.759.173.173.42.26.74.26zm3.556.961v-5.284h4.266V16h-1.201v-4.17H21.64V16h-1.2zm5.68 1.73v-7.014h1.172v1.009h.27l-.27.279c0-.43.129-.766.385-1.01.256-.249.602-.374 1.037-.374.532 0 .958.183 1.278.548.32.365.48.855.48 1.47v1.431c0 .41-.073.769-.22 1.076a1.625 1.625 0 01-.606.701c-.262.167-.573.25-.932.25-.435 0-.781-.122-1.037-.365-.256-.25-.384-.59-.384-1.018l.268.278h-.278l.038 1.259v1.48h-1.2zm2.172-2.671c.307 0 .547-.09.72-.27.173-.179.26-.435.26-.768v-1.326c0-.333-.087-.589-.26-.768-.173-.18-.413-.27-.72-.27-.301 0-.538.094-.711.28-.173.179-.26.432-.26.758v1.326c0 .327.087.583.26.769.173.179.41.269.71.269zm5.67 1.037c-.448 0-.839-.086-1.172-.26a1.923 1.923 0 01-.778-.72 2.17 2.17 0 01-.27-1.095v-1.326c0-.416.09-.778.27-1.085.186-.314.445-.557.778-.73.333-.173.724-.26 1.172-.26.442 0 .826.087 1.153.26.333.172.59.416.768.73.186.307.279.669.279 1.085v.951h-3.257v.375c0 .371.09.653.27.845.179.186.444.279.797.279.269 0 .486-.045.653-.134a.642.642 0 00.317-.414h1.182c-.09.455-.333.82-.73 1.096-.391.269-.868.403-1.432.403zM35 12.974v-.288c0-.365-.087-.644-.26-.836-.173-.199-.432-.298-.778-.298-.346 0-.608.1-.788.298-.179.198-.269.48-.269.845v.202l2.181-.02-.086.097zm2 4.37v-2.362h.356c.109-.11.22-.308.336-.596.122-.294.186-.66.192-1.095l.058-2.575h3.698v4.266h.625v2.363H41.16V16h-3.055v1.345H37zm1.576-2.362h1.921v-3.219h-1.44l-.04 1.528c-.006.429-.06.79-.163 1.085-.096.289-.189.49-.278.606zm6.765 1.114c-.448 0-.839-.086-1.172-.26a1.923 1.923 0 01-.778-.72 2.17 2.17 0 01-.269-1.095v-1.326c0-.416.09-.778.27-1.085.185-.314.444-.557.777-.73.333-.173.724-.26 1.172-.26.442 0 .827.087 1.153.26.333.172.59.416.769.73.185.307.278.669.278 1.085v.951h-3.256v.375c0 .371.09.653.269.845.179.186.445.279.797.279.269 0 .487-.045.653-.134a.642.642 0 00.317-.414h1.182c-.09.455-.333.82-.73 1.096-.39.269-.868.403-1.432.403zm1.038-3.122v-.288c0-.365-.087-.644-.26-.836-.172-.199-.432-.298-.778-.298-.346 0-.608.1-.787.298-.18.198-.27.48-.27.845v.202l2.181-.02-.086.097zm1.981 3.093v-1.095h.24a.54.54 0 00.49-.26c.116-.179.177-.46.183-.845l.058-3.15h3.823V16h-1.2v-4.17H50.51l-.038 2.105c-.013.46-.09.851-.23 1.172a1.61 1.61 0 01-.606.72c-.263.16-.583.24-.96.24h-.318zm8.36.03c-.448 0-.838-.087-1.171-.26a1.923 1.923 0 01-.779-.72 2.17 2.17 0 01-.268-1.096v-1.326c0-.416.09-.778.269-1.085.185-.314.445-.557.778-.73.333-.173.723-.26 1.172-.26.442 0 .826.087 1.153.26.333.172.589.416.768.73.186.307.279.669.279 1.085v.951h-3.257v.375c0 .371.09.653.269.845.18.186.445.279.797.279.27 0 .487-.045.654-.134a.642.642 0 00.317-.414h1.181c-.09.455-.333.82-.73 1.096-.39.269-.868.403-1.431.403zm1.038-3.123v-.288c0-.365-.086-.644-.26-.836-.172-.199-.431-.298-.777-.298-.346 0-.609.1-.788.298-.18.198-.269.48-.269.845v.202l2.18-.02-.086.097zM60.267 16v-5.284h1.2v2.046h1.865v-2.046h1.2V16h-1.2v-2.123h-1.864V16h-1.2zm5.69 0v-5.284h1.085v2.604c0 .166-.01.365-.029.595-.012.225-.032.445-.057.663-.026.218-.051.407-.077.567l1.864-4.429h1.48V16h-1.087v-2.603c0-.173.007-.366.02-.577l.057-.624c.026-.205.052-.378.077-.519L67.436 16h-1.48zm7.832.096c-.449 0-.84-.086-1.172-.26a1.923 1.923 0 01-.779-.72 2.17 2.17 0 01-.268-1.095v-1.326c0-.416.09-.778.269-1.085.185-.314.445-.557.778-.73.333-.173.723-.26 1.172-.26.442 0 .826.087 1.153.26.333.172.589.416.768.73.186.307.279.669.279 1.085v.951h-3.257v.375c0 .371.09.653.269.845.18.186.445.279.797.279.27 0 .487-.045.653-.134a.642.642 0 00.318-.414h1.181c-.09.455-.333.82-.73 1.096-.39.269-.868.403-1.431.403zm1.037-3.122v-.288c0-.365-.086-.644-.26-.836-.172-.199-.431-.298-.777-.298-.346 0-.609.1-.788.298-.18.198-.27.48-.27.845v.202l2.182-.02-.087.097zM84.553 16v-4.179h-1.806v-1.105h4.823v1.105h-1.806V16h-1.21zm6.295.087c-.448 0-.839-.084-1.172-.25a1.938 1.938 0 01-.769-.72 2.2 2.2 0 01-.269-1.106v-1.306c0-.423.09-.788.27-1.095a1.84 1.84 0 01.768-.72c.333-.174.724-.26 1.172-.26.455 0 .845.086 1.172.26.327.166.58.406.759.72.186.307.279.669.279 1.085v1.316c0 .423-.093.791-.279 1.105-.18.308-.432.548-.759.72-.327.167-.717.25-1.172.25zm0-1.048c.32 0 .567-.086.74-.26.18-.178.269-.435.269-.768v-1.306c0-.34-.09-.596-.27-.769-.172-.173-.419-.259-.739-.259-.314 0-.56.086-.74.26-.179.172-.269.428-.269.768v1.306c0 .333.09.59.27.769.179.173.425.26.739.26zm6.573.961v-1.777a5.374 5.374 0 01-.403.067 5.43 5.43 0 01-.596.029c-.678 0-1.21-.167-1.594-.5-.385-.34-.577-.81-.577-1.412v-1.69h1.201v1.632c0 .276.096.494.288.654.193.153.455.23.788.23.218 0 .407-.01.567-.029.16-.025.269-.048.326-.067v-2.42h1.21V16h-1.21zm4.816.096c-.448 0-.839-.086-1.172-.26a1.918 1.918 0 01-.778-.72 2.162 2.162 0 01-.269-1.095v-1.326c0-.416.089-.778.269-1.085.185-.314.445-.557.778-.73.333-.173.724-.26 1.172-.26.442 0 .826.087 1.153.26.333.172.589.416.768.73.186.307.279.669.279 1.085v.951h-3.257v.375c0 .371.09.653.269.845.18.186.445.279.798.279.269 0 .486-.045.653-.134a.644.644 0 00.317-.414h1.181a1.69 1.69 0 01-.73 1.096c-.39.269-.867.403-1.431.403zm1.037-3.122v-.288c0-.365-.086-.644-.259-.836-.173-.199-.432-.298-.778-.298-.346 0-.608.1-.788.298-.179.198-.269.48-.269.845v.202l2.181-.02-.087.097zM105.813 16v-5.284h1.201v2.075h.788l1.287-2.075h1.345l-1.595 2.556L110.463 16h-1.374l-1.287-2.19h-.788V16h-1.201zm-88.93 19.096c-.673-.006-1.208-.195-1.605-.567-.39-.371-.586-.88-.586-1.527v-2.373c0-.846.227-1.495.682-1.95.455-.461 1.102-.692 1.94-.692h1.49v1.172h-1.49c-.46 0-.813.125-1.056.375-.237.25-.355.615-.355 1.095v.653h.134l-.125.154c0-.365.122-.653.365-.865.244-.211.586-.317 1.028-.317.557 0 .99.183 1.297.548.314.358.47.858.47 1.498v.702c0 .429-.089.804-.268 1.124a1.85 1.85 0 01-.76.73c-.32.166-.707.246-1.162.24zm0-1.047c.32 0 .563-.09.73-.27.166-.185.25-.444.25-.777V32.3c0-.339-.084-.598-.25-.778-.167-.179-.41-.269-.73-.269-.314 0-.558.09-.73.27-.167.172-.25.432-.25.777v.702c0 .333.083.592.25.778.172.18.416.269.73.269zm5.699 1.047c-.448 0-.84-.086-1.172-.26a1.923 1.923 0 01-.778-.72 2.17 2.17 0 01-.27-1.095v-1.326c0-.416.09-.778.27-1.085a1.89 1.89 0 01.778-.73c.333-.173.724-.26 1.172-.26.442 0 .826.087 1.153.26.333.172.589.416.768.73.186.307.279.669.279 1.085v.951h-3.257v.375c0 .371.09.653.269.845.18.186.445.279.797.279.27 0 .487-.045.654-.135a.642.642 0 00.317-.413h1.181c-.09.455-.333.82-.73 1.096-.39.269-.868.403-1.431.403zm1.037-3.122v-.288c0-.365-.086-.644-.26-.836-.172-.199-.431-.298-.777-.298-.346 0-.609.1-.788.298-.18.198-.269.48-.269.845v.202l2.18-.02-.086.097zm4.383 3.093c-.576 0-1.053-.131-1.431-.394a1.62 1.62 0 01-.682-1.095h1.2a.645.645 0 00.308.375c.167.09.369.134.605.134h.51c.25 0 .445-.057.586-.173a.592.592 0 00.22-.48.586.586 0 00-.21-.48c-.142-.115-.34-.173-.596-.173h-1.21v-.96h1.162c.237 0 .42-.055.547-.164a.55.55 0 00.192-.442.524.524 0 00-.336-.519 1.06 1.06 0 00-.403-.067h-.452a1.1 1.1 0 00-.576.144.613.613 0 00-.289.384h-1.2a1.66 1.66 0 01.672-1.095c.372-.275.836-.413 1.393-.413h.452c.403 0 .749.06 1.037.183.295.115.522.281.682.5.16.21.24.467.24.768 0 .333-.121.605-.365.816-.243.212-.567.324-.97.336v-.038c.461.013.82.135 1.076.365.256.224.384.535.384.932 0 .474-.185.852-.557 1.134-.365.281-.858.422-1.48.422h-.509zm4.662 1.662l.74-2.017-1.97-4.996h1.317l.98 2.7c.05.147.102.326.153.538.051.205.09.374.115.509.032-.135.074-.304.125-.51a5.89 5.89 0 01.154-.537l.922-2.7h1.268l-2.545 7.013h-1.259zm6.977-1.633c-.672-.006-1.207-.195-1.604-.567-.39-.371-.586-.88-.586-1.527v-2.373c0-.846.227-1.495.682-1.95.455-.461 1.101-.692 1.94-.692h1.49v1.172h-1.49c-.46 0-.813.125-1.056.375-.237.25-.356.615-.356 1.095v.653h.135l-.125.154c0-.365.121-.653.365-.865.243-.211.586-.317 1.028-.317.557 0 .99.183 1.297.548.314.358.47.858.47 1.498v.702c0 .429-.09.804-.269 1.124a1.852 1.852 0 01-.758.73c-.32.166-.708.246-1.163.24zm0-1.047c.32 0 .564-.09.73-.27.167-.185.25-.444.25-.777V32.3c0-.339-.083-.598-.25-.778-.166-.179-.41-.269-.73-.269-.314 0-.557.09-.73.27-.166.172-.25.432-.25.777v.702c0 .333.084.592.25.778.173.18.416.269.73.269zM42.93 35v-5.284h1.038v1.787h.355c.57 0 1.022.16 1.355.48.333.32.5.75.5 1.288 0 .525-.17.944-.51 1.258-.333.314-.781.471-1.345.471H42.93zm1.038-.932h.355c.275 0 .487-.07.634-.211.154-.141.23-.336.23-.586 0-.263-.076-.468-.23-.615-.147-.147-.359-.221-.634-.221h-.355v1.633zm2.728.932v-5.284h1.038V35h-1.038zm3.72 0v-4.179H48.61v-1.105h4.823v1.105h-1.806V35h-1.21zm6.295.087c-.448 0-.839-.084-1.172-.25a1.939 1.939 0 01-.768-.72c-.18-.315-.27-.683-.27-1.106v-1.306c0-.423.09-.788.27-1.095a1.84 1.84 0 01.768-.72c.333-.174.724-.26 1.172-.26.455 0 .846.086 1.172.26.327.166.58.406.759.72.186.307.279.669.279 1.085v1.316c0 .423-.093.791-.279 1.105-.18.308-.432.548-.759.72-.326.167-.717.25-1.172.25zm0-1.048c.32 0 .567-.086.74-.26.18-.178.269-.435.269-.768v-1.306c0-.34-.09-.596-.27-.769-.172-.173-.419-.259-.739-.259-.314 0-.56.086-.74.26-.179.172-.269.428-.269.768v1.306c0 .333.09.59.27.769.179.173.425.26.74.26zm6.574.961v-1.777a5.518 5.518 0 01-.404.067 5.43 5.43 0 01-.596.029c-.678 0-1.21-.167-1.594-.5-.384-.34-.577-.81-.577-1.412v-1.69h1.201v1.632c0 .276.096.494.288.654.193.153.455.23.788.23.218 0 .407-.01.567-.029.16-.025.269-.048.327-.067v-2.42h1.21V35h-1.21zm2.673 0v-5.284h1.2v2.046h1.864v-2.046h1.201V35h-1.2v-2.123h-1.864V35h-1.201zm7.822.087c-.448 0-.839-.084-1.172-.25a1.938 1.938 0 01-.769-.72c-.179-.315-.268-.683-.268-1.106v-1.306c0-.423.09-.788.269-1.095a1.84 1.84 0 01.768-.72c.333-.174.724-.26 1.172-.26.455 0 .845.086 1.172.26.327.166.58.406.759.72.186.307.279.669.279 1.085v1.316c0 .423-.093.791-.279 1.105-.18.308-.432.548-.759.72-.327.167-.717.25-1.172.25zm0-1.048c.32 0 .567-.086.74-.26.18-.178.269-.435.269-.768v-1.306c0-.34-.09-.596-.27-.769-.172-.173-.419-.259-.739-.259-.314 0-.56.086-.74.26-.179.172-.269.428-.269.768v1.306c0 .333.09.59.27.769.179.173.425.26.74.26zm5.709 1.057c-.448 0-.842-.083-1.182-.25a1.924 1.924 0 01-.778-.72c-.186-.314-.278-.682-.278-1.105v-1.326c0-.429.092-.797.278-1.105a1.86 1.86 0 01.778-.71c.34-.173.734-.26 1.182-.26.666 0 1.198.173 1.595.519.397.34.605.804.624 1.393h-1.2c-.02-.275-.12-.487-.299-.634-.172-.154-.413-.23-.72-.23-.32 0-.573.089-.759.268-.186.173-.279.423-.279.75v1.335c0 .327.093.58.279.759.186.18.439.269.759.269.307 0 .547-.074.72-.221.18-.154.279-.368.298-.644h1.201c-.02.59-.227 1.057-.624 1.403-.397.34-.929.51-1.595.51zM84.553 35v-4.179h-1.806v-1.105h4.823v1.105h-1.806V35h-1.21zm4.162 0v-5.284h1.086v2.604c0 .166-.01.365-.029.595a13.998 13.998 0 01-.134 1.23l1.863-4.429h1.48V35h-1.086v-2.603c0-.173.007-.365.02-.577l.057-.624c.026-.205.051-.378.077-.519L90.195 35h-1.48zm7.823-3.766c-.27 0-.487-.074-.654-.22a.777.777 0 01-.24-.587c0-.243.08-.439.24-.586.167-.147.385-.22.654-.22s.483.073.643.22c.167.147.25.343.25.586a.763.763 0 01-.25.586c-.16.147-.374.221-.643.221zm0 3.862c-.27 0-.487-.074-.654-.22a.758.758 0 01-.24-.587c0-.243.08-.439.24-.586.167-.147.385-.22.654-.22s.483.073.643.22c.167.147.25.343.25.586a.744.744 0 01-.25.586c-.16.147-.374.221-.643.221z" fill="#000"/><defs><filter id="filter0_d_394_1347" x=".804" y="0" width="179.646" height="178.685" filterUnits="userSpaceOnUse" color-interpolation-filters="sRGB"><feFlood flood-opacity="0" result="BackgroundImageFix"/><feColorMatrix in="SourceAlpha" values="0 0 0 0 0 0 0 0 0 0 0 0 0 0 0 0 0 0 127 0" result="hardAlpha"/><feOffset dy="3.843"/><feGaussianBlur stdDeviation="1.921"/><feComposite in2="hardAlpha" operator="out"/><feColorMatrix values="0 0 0 0 0 0 0 0 0 0 0 0 0 0 0 0 0 0 0.25 0"/><feBlend in2="BackgroundImageFix" result="effect1_dropShadow_394_1347"/><feBlend in="SourceGraphic" in2="effect1_dropShadow_394_1347" result="shape"/></filter></defs></svg>