<svg width="180" height="179" fill="none" xmlns="http://www.w3.org/2000/svg"><g filter="url(#filter0_d_394_1354)"><rect x="4" width="171.961" height="171" rx="16.011" fill="#E1EDE4"/></g><mask id="a" style="mask-type:alpha" maskUnits="userSpaceOnUse" x="4" y="0" width="172" height="43"><path fill="#C9D9CD" d="M4 0h171.961v42.27H4z"/></mask><g mask="url(#a)"><rect x="4" y="-1.69" width="171.961" height="118.355" rx="16.011" fill="#C09F6D"/></g><path d="M14.219 62v-7.013h.835v3.939c0 .23-.006.477-.019.74a25.581 25.581 0 01-.067 1.325l2.133-6.004h1.152V62h-.835v-3.939c0-.237.003-.483.01-.74.012-.262.025-.509.038-.74l.048-.585L15.37 62h-1.15zm7.726.096a2.46 2.46 0 01-1.114-.24 1.73 1.73 0 01-.73-.692c-.174-.307-.26-.67-.26-1.085v-1.441c0-.423.086-.785.26-1.086a1.73 1.73 0 01.73-.692c.32-.16.691-.24 1.114-.24.608 0 1.098.163 1.47.49.371.327.567.772.586 1.336h-.865c-.02-.34-.134-.6-.346-.779-.205-.185-.486-.278-.845-.278-.378 0-.679.109-.903.326-.224.212-.336.516-.336.913v1.45c0 .398.112.705.336.923.224.218.525.327.903.327.358 0 .64-.093.845-.28.212-.185.327-.444.346-.777h.865c-.02.563-.215 1.008-.586 1.335-.372.327-.862.49-1.47.49zM25.636 62v-5.284h3.958V62h-.864v-4.496H26.5V62h-.865zm7.669.077c-.423 0-.788-.08-1.095-.24a1.744 1.744 0 01-.72-.692c-.167-.307-.25-.67-.25-1.086v-1.402c0-.423.083-.785.25-1.086.172-.3.412-.531.72-.691.307-.16.672-.24 1.095-.24.423 0 .788.08 1.095.24.308.16.544.39.711.691.173.301.26.66.26 1.076v1.412c0 .417-.087.779-.26 1.086a1.684 1.684 0 01-.71.692c-.308.16-.673.24-1.096.24zm0-.769c.378 0 .672-.105.884-.317.211-.211.317-.522.317-.932v-1.402c0-.41-.106-.72-.317-.932-.212-.211-.506-.317-.884-.317-.371 0-.666.106-.884.317-.211.211-.317.522-.317.932v1.402c0 .41.106.72.317.932.218.212.513.317.884.317zm3.048.76v-.808h.173c.294 0 .5-.115.614-.346.122-.23.186-.643.193-1.239l.057-2.959h3.584V62h-.865v-4.496h-1.864l-.048 2.21c-.013.557-.077 1.008-.192 1.354-.109.346-.282.599-.519.76-.23.16-.534.24-.912.24h-.221zm6.39-.068v-5.284h.865v1.94h1.557c.595 0 1.063.151 1.402.452.346.295.519.702.519 1.22 0 .513-.173.92-.519 1.22-.346.301-.813.452-1.402.452h-2.421zm.865-.788h1.557c.333 0 .586-.073.759-.22.179-.154.269-.375.269-.664 0-.288-.09-.506-.27-.653-.172-.153-.425-.23-.758-.23h-1.557v1.767zm6.516.855c-.557 0-1.015-.118-1.374-.355a1.412 1.412 0 01-.634-.96h.913c.045.16.163.29.355.393.199.102.446.154.74.154h.452c.313 0 .557-.074.73-.221a.71.71 0 00.269-.577c0-.256-.087-.458-.26-.605-.166-.147-.413-.22-.74-.22h-1.162v-.75h1.134c.295 0 .519-.07.672-.212a.72.72 0 00.23-.557.727.727 0 00-.105-.403.61.61 0 00-.298-.25 1.243 1.243 0 00-.49-.086h-.48c-.256 0-.477.057-.663.172-.185.116-.297.257-.336.423h-.913c.064-.397.273-.724.625-.98s.781-.384 1.287-.384h.48c.378 0 .702.06.97.183a1.324 1.324 0 01.836 1.277c0 .314-.102.573-.307.778-.205.199-.493.311-.864.337v.038c.454.032.784.154.989.365.205.212.307.516.307.913 0 .467-.172.839-.518 1.114-.346.276-.81.413-1.393.413h-.452zm5.94.01c-.423 0-.788-.08-1.096-.24a1.744 1.744 0 01-.72-.692c-.167-.307-.25-.67-.25-1.086v-1.402c0-.423.083-.785.25-1.086.173-.3.413-.531.72-.691.308-.16.673-.24 1.096-.24.422 0 .787.08 1.095.24.307.16.544.39.71.691.174.301.26.66.26 1.076v1.412c0 .417-.086.779-.26 1.086a1.683 1.683 0 01-.71.692c-.308.16-.673.24-1.095.24zm0-.769c.377 0 .672-.105.883-.317.212-.211.317-.522.317-.932v-1.402c0-.41-.105-.72-.317-.932-.21-.211-.506-.317-.883-.317-.372 0-.666.106-.884.317-.212.211-.317.522-.317.932v1.402c0 .41.105.72.317.932.218.212.512.317.884.317zm3.71.692v-5.284h2.287c.55 0 .976.125 1.277.375.301.243.452.586.452 1.028 0 .365-.125.66-.375.884-.25.217-.58.326-.99.326v-.077c.45 0 .808.113 1.077.337.275.224.413.525.413.903 0 .474-.16.845-.48 1.114-.32.263-.77.394-1.346.394h-2.315zm.846-.759h1.47c.307 0 .544-.067.71-.202.173-.134.26-.323.26-.567 0-.25-.087-.441-.26-.576-.166-.134-.403-.202-.71-.202h-1.47v1.547zm0-2.296h1.44c.27 0 .481-.064.635-.192.16-.128.24-.307.24-.538 0-.23-.077-.41-.23-.538-.154-.135-.369-.202-.644-.202H60.62v1.47zm6.362 3.151c-.557 0-.996-.14-1.316-.423-.32-.288-.48-.675-.48-1.162 0-.493.16-.88.48-1.163.32-.281.752-.422 1.297-.422h1.633v-.529c0-.326-.1-.576-.298-.749-.192-.18-.468-.269-.826-.269-.314 0-.577.067-.788.202a.718.718 0 00-.365.528h-.865c.058-.454.273-.816.644-1.085.371-.27.836-.404 1.393-.404.608 0 1.089.157 1.441.471.352.314.528.74.528 1.278V62h-.845v-1.009h-.144l.144-.144c0 .384-.15.689-.452.913-.294.224-.688.336-1.181.336zm.211-.682c.41 0 .746-.102 1.009-.307a.957.957 0 00.394-.788v-.75h-1.614c-.288 0-.516.08-.682.24-.167.16-.25.379-.25.654 0 .294.1.528.298.701.205.167.487.25.845.25zm3.298.653v-.807h.173c.294 0 .5-.115.614-.346.122-.23.186-.643.193-1.239l.057-2.959h3.584V62h-.865v-4.496h-1.864l-.048 2.21c-.013.557-.077 1.008-.192 1.354-.109.346-.282.599-.519.76-.23.16-.534.24-.912.24h-.221zM76.843 62v-5.284h.826v2.882c0 .186-.006.381-.019.586-.006.205-.019.4-.038.586-.013.18-.029.333-.048.461l2.132-4.515h1.105V62h-.826v-2.882c0-.186.003-.381.01-.586.013-.205.028-.4.048-.586l.048-.47L77.948 62h-1.105zm10.765 1.345V61.26h.432c.109-.109.221-.323.336-.643.122-.32.186-.727.192-1.22l.058-2.68h3.449v4.543h.672v2.085h-.768V62h-3.603v1.345h-.768zm1.345-2.085h2.257v-3.775h-1.767l-.039 1.93c-.006.507-.06.917-.163 1.23-.103.314-.199.52-.288.615zm6.477.836c-.557 0-.996-.14-1.316-.423-.32-.288-.48-.675-.48-1.162 0-.493.16-.88.48-1.163.32-.281.752-.422 1.297-.422h1.633v-.529c0-.326-.1-.576-.298-.749-.192-.18-.467-.269-.826-.269-.314 0-.576.067-.788.202a.717.717 0 00-.365.528h-.864c.057-.454.272-.816.643-1.085.372-.27.836-.404 1.393-.404.609 0 1.089.157 1.441.471.353.314.529.74.529 1.278V62h-.846v-1.009h-.144l.144-.144c0 .384-.15.689-.451.913-.295.224-.689.336-1.182.336zm.211-.682c.41 0 .746-.102 1.01-.307a.957.957 0 00.393-.788v-.75H95.43c-.288 0-.516.08-.682.24-.166.16-.25.379-.25.654 0 .294.1.528.298.701.205.167.487.25.845.25zm3.96.586v-5.284h.865v2.2h2.229v-2.2h.865V62h-.865v-2.296h-2.229V62h-.864zm5.691 0v-5.284h.864v2.2h2.229v-2.2h.864V62h-.864v-2.296h-2.229V62h-.864zm5.411 0v-5.284h.807v1.94h.432c.57 0 1.018.151 1.345.452.333.295.499.702.499 1.22 0 .52-.166.93-.499 1.23-.327.295-.775.442-1.345.442h-1.239zm.807-.692h.432c.339 0 .602-.086.788-.26.192-.172.288-.412.288-.72 0-.307-.096-.547-.288-.72-.186-.173-.449-.26-.788-.26h-.432v1.96zm2.901.692v-5.284h.807V62h-.807zm4.239.096a2.3 2.3 0 01-1.095-.25 1.806 1.806 0 01-.721-.701 2.21 2.21 0 01-.25-1.066v-1.441c0-.41.084-.766.25-1.067.173-.3.413-.535.721-.701a2.3 2.3 0 011.095-.25c.416 0 .778.084 1.085.25.314.166.554.4.721.701.173.301.259.657.259 1.067v.931h-3.285v.51c0 .416.105.736.317.96.211.218.512.327.903.327.333 0 .602-.058.807-.173a.76.76 0 00.374-.538h.865a1.472 1.472 0 01-.653 1.057c-.372.256-.836.384-1.393.384zm1.22-3.103v-.355c0-.417-.106-.737-.317-.961-.205-.224-.506-.336-.903-.336-.391 0-.692.112-.903.336-.212.224-.317.544-.317.96v.28h2.507l-.067.076zm10.985 3.103c-.442 0-.797-.15-1.066-.451-.269-.302-.404-.695-.404-1.182v-.797h-.845V62h-.797v-5.284h.797v2.258h.845v-.72c0-.494.132-.888.394-1.182.269-.301.628-.452 1.076-.452.474 0 .855.15 1.143.452.289.294.433.688.433 1.181v2.21c0 .487-.144.88-.433 1.182-.288.3-.669.451-1.143.451zm0-.672c.244 0 .433-.084.567-.25.141-.173.211-.41.211-.711v-2.21c0-.3-.07-.534-.211-.7-.134-.174-.323-.26-.567-.26a.667.667 0 00-.557.26c-.134.166-.202.4-.202.7v2.21c0 .3.068.538.202.71.135.167.32.25.557.25zm2.885.576v-5.284h.864v2.2h2.229v-2.2h.865V62h-.865v-2.296h-2.229V62h-.864zm5.689 0v-5.284h.827v2.882c0 .186-.007.381-.02.586a8.08 8.08 0 01-.038.586c-.013.18-.029.333-.048.461l2.133-4.515h1.104V62h-.826v-2.882c0-.186.003-.381.01-.586.013-.205.029-.4.048-.586l.048-.47L140.534 62h-1.105zm7.237 0v-4.525h-1.922v-.759h4.708v.76h-1.922V62h-.864zm4.585-2.786v-.768h3.074v.768h-3.074zM16.198 81.096c-.609 0-1.096-.163-1.46-.49-.366-.326-.558-.772-.577-1.335h.865c.019.333.13.592.336.778.205.186.483.278.836.278.378 0 .669-.108.874-.326.211-.218.317-.525.317-.922v-.385h-1.873v-.768h1.873v-.298c0-.397-.106-.701-.317-.913-.205-.217-.496-.326-.874-.326-.353 0-.631.093-.836.278-.205.18-.317.44-.336.778h-.865c.02-.563.211-1.008.576-1.335.365-.326.852-.49 1.46-.49.43 0 .795.08 1.096.24.307.16.544.391.71.692.167.301.25.663.25 1.086v1.44c0 .417-.083.779-.25 1.086a1.683 1.683 0 01-.71.692c-.301.16-.666.24-1.095.24zM19.975 81v-5.284h.865v2.181h.903l1.537-2.18h.99l-1.777 2.516L24.299 81h-1.01l-1.536-2.354h-.913V81h-.864zm7.64.077c-.422 0-.787-.08-1.095-.24a1.744 1.744 0 01-.72-.692c-.167-.307-.25-.67-.25-1.086v-1.402c0-.423.083-.785.25-1.086.173-.3.413-.531.72-.691.308-.16.673-.24 1.095-.24.423 0 .788.08 1.096.24.307.16.544.39.71.691.173.301.26.66.26 1.076v1.412c0 .417-.087.779-.26 1.086a1.683 1.683 0 01-.71.692c-.308.16-.673.24-1.096.24zm0-.769c.378 0 .673-.105.884-.317.212-.211.317-.522.317-.932v-1.402c0-.41-.105-.72-.317-.932-.211-.211-.506-.317-.884-.317-.371 0-.666.106-.883.317-.212.211-.317.522-.317.932v1.402c0 .41.105.72.317.932.217.212.512.317.883.317zm3.711.692v-5.284h.865v2.2h2.228v-2.2h.865V81h-.865v-2.296h-2.228V81h-.865zm7.669.077c-.423 0-.788-.08-1.095-.24a1.744 1.744 0 01-.721-.692c-.166-.307-.25-.67-.25-1.086v-1.402c0-.423.084-.785.25-1.086.173-.3.413-.531.72-.691.308-.16.673-.24 1.096-.24.422 0 .787.08 1.095.24.307.16.544.39.71.691.174.301.26.66.26 1.076v1.412c0 .417-.086.779-.26 1.086a1.683 1.683 0 01-.71.692c-.308.16-.673.24-1.095.24zm0-.769c.378 0 .672-.105.884-.317.21-.211.317-.522.317-.932v-1.402c0-.41-.106-.72-.317-.932-.212-.211-.506-.317-.884-.317-.372 0-.666.106-.884.317-.211.211-.317.522-.317.932v1.402c0 .41.106.72.317.932.218.212.512.317.884.317zm3.537.692v-5.284h1.172l.692 2.027c.07.205.135.41.192.615.058.199.1.352.125.461.026-.109.064-.262.115-.46.058-.206.119-.414.183-.625l.653-2.018h1.172V81H46v-.817c0-.288.004-.602.01-.941l.02-1.028c.012-.346.025-.672.038-.98.013-.314.022-.59.029-.826l-.942 3.007h-.913l-.95-2.988c.012.288.022.647.028 1.076.013.43.023.878.029 1.345.013.468.02.913.02 1.335V81h-.837zm5.863 0v-5.284h.826v2.882c0 .186-.006.381-.02.586-.005.205-.018.4-.038.586a6.1 6.1 0 01-.047.462l2.132-4.516h1.105V81h-.826v-2.882c0-.186.003-.381.01-.586.012-.205.028-.4.047-.586l.048-.47L49.5 81h-1.105zm5.718 0v-5.284h.865v2.181h.903l1.537-2.18h.99l-1.778 2.516L58.436 81h-1.008l-1.537-2.354h-.913V81h-.865zm5.661 0v-5.284h.826v2.882c0 .186-.006.381-.019.586-.006.205-.019.4-.038.586a6.1 6.1 0 01-.048.462l2.133-4.516h1.104V81h-.826v-2.882c0-.186.003-.381.01-.586.013-.205.029-.4.048-.586l.048-.47L60.879 81h-1.105zm10.765 1.345V80.26h.432c.109-.109.221-.323.336-.643.122-.32.186-.727.192-1.22l.058-2.68h3.449v4.543h.672v2.085h-.768V81h-3.603v1.345h-.768zm1.345-2.085h2.257v-3.775h-1.767l-.039 1.93c-.006.507-.06.917-.163 1.23-.103.314-.199.52-.288.615zm4.296.807v-.807h.173c.295 0 .5-.115.615-.346.122-.23.186-.643.192-1.239l.058-2.959H80.8V81h-.864v-4.496h-1.864l-.048 2.21c-.013.557-.077 1.008-.192 1.354-.11.346-.282.599-.519.76-.23.16-.535.24-.913.24h-.22zM82.206 81l1.355-2.037c-.404-.096-.718-.281-.942-.557-.217-.275-.326-.618-.326-1.028 0-.519.17-.925.509-1.22.346-.294.816-.442 1.412-.442h2.277V81h-.865v-1.97h-1.162L83.215 81h-1.009zm2.008-2.738h1.412v-1.777h-1.412c-.32 0-.573.08-.759.24-.186.154-.278.372-.278.653 0 .276.092.493.278.653.186.154.439.231.76.231zM93.941 81v-5.284h.865v2.181h.903l1.537-2.18h.99l-1.778 2.516L98.264 81h-1.009l-1.537-2.354h-.912V81h-.865zm7.64.077c-.423 0-.788-.08-1.095-.24a1.74 1.74 0 01-.72-.692c-.167-.307-.25-.67-.25-1.086v-1.402c0-.423.083-.785.25-1.086a1.74 1.74 0 01.72-.691c.307-.16.672-.24 1.095-.24.423 0 .788.08 1.095.24.307.16.544.39.711.691.173.301.259.66.259 1.076v1.412c0 .417-.086.779-.259 1.086a1.689 1.689 0 01-.711.692c-.307.16-.672.24-1.095.24zm0-.769c.378 0 .672-.105.884-.317.211-.211.317-.522.317-.932v-1.402c0-.41-.106-.72-.317-.932-.212-.211-.506-.317-.884-.317-.372 0-.666.106-.884.317-.211.211-.317.522-.317.932v1.402c0 .41.106.72.317.932.218.212.512.317.884.317zm3.691 2.421v-7.013h.865v1.009h.173l-.173.202c0-.404.131-.72.394-.951.269-.237.621-.356 1.057-.356.531 0 .954.176 1.268.529.32.345.48.823.48 1.431v1.547c0 .403-.074.752-.221 1.047a1.575 1.575 0 01-.605.682c-.256.16-.564.24-.922.24-.43 0-.779-.118-1.048-.355s-.403-.554-.403-.951l.173.201h-.192l.019 1.201v1.537h-.865zm2.027-2.382c.365 0 .65-.11.855-.327.212-.218.317-.531.317-.941v-1.441c0-.41-.105-.724-.317-.942-.205-.218-.49-.326-.855-.326-.352 0-.634.112-.845.336-.211.224-.317.535-.317.932v1.44c0 .398.106.708.317.932.211.225.493.337.845.337zm3.663 2.382v-7.013h.865v1.009h.172l-.172.202c0-.404.131-.72.393-.951.269-.237.622-.356 1.057-.356.532 0 .954.176 1.268.529.32.345.481.823.481 1.431v1.547c0 .403-.074.752-.221 1.047a1.57 1.57 0 01-.606.682c-.256.16-.563.24-.922.24-.429 0-.778-.118-1.047-.355-.269-.237-.403-.554-.403-.951l.172.201h-.192l.02 1.201v1.537h-.865zm2.027-2.382c.365 0 .65-.11.855-.327.211-.218.317-.531.317-.941v-1.441c0-.41-.106-.724-.317-.942-.205-.218-.49-.326-.855-.326-.352 0-.634.112-.845.336-.212.224-.317.535-.317.932v1.44c0 .398.105.708.317.932.211.225.493.337.845.337zm5.661.75a2.3 2.3 0 01-1.095-.25 1.806 1.806 0 01-.721-.702 2.21 2.21 0 01-.25-1.066v-1.441c0-.41.084-.766.25-1.067.173-.3.413-.534.721-.701a2.3 2.3 0 011.095-.25c.416 0 .778.084 1.085.25.314.166.554.4.721.701.173.301.259.657.259 1.067v.931h-3.285v.51c0 .416.105.736.317.96.211.218.512.327.903.327.333 0 .602-.058.807-.173a.76.76 0 00.374-.538h.865a1.472 1.472 0 01-.653 1.057c-.372.256-.836.384-1.393.384zm1.22-3.104v-.355c0-.417-.106-.737-.317-.961-.205-.224-.506-.336-.903-.336-.391 0-.692.112-.903.336-.212.224-.317.544-.317.96v.28h2.507l-.067.076zM122.389 81v-5.284h.865v2.181h.903l1.537-2.18h.99l-1.778 2.516L126.712 81h-1.008l-1.537-2.354h-.913V81h-.865zm7.208 0v-4.525h-1.922v-.759h4.708v.76h-1.922V81h-.864zm4.143 0v-5.284h.826v2.882c0 .186-.006.381-.019.586-.007.205-.019.4-.039.586-.012.18-.028.333-.048.462l2.133-4.516h1.105V81h-.826v-2.882c0-.186.003-.381.009-.586.013-.205.029-.4.048-.586l.048-.47L134.845 81h-1.105zm5.67 1.73v-7.014h.865v1.009h.173l-.173.202c0-.404.131-.72.394-.951.269-.237.621-.356 1.056-.356.532 0 .955.176 1.269.529.32.345.48.823.48 1.431v1.547c0 .403-.074.752-.221 1.047a1.575 1.575 0 01-.605.682c-.256.16-.564.24-.923.24-.429 0-.778-.118-1.047-.355-.269-.237-.403-.554-.403-.951l.173.201h-.192l.019 1.201v1.537h-.865zm2.027-2.383c.365 0 .65-.11.855-.327.212-.218.317-.531.317-.941v-1.441c0-.41-.105-.724-.317-.942-.205-.218-.49-.326-.855-.326-.352 0-.634.112-.845.336-.211.224-.317.535-.317.932v1.44c0 .398.106.708.317.932.211.225.493.337.845.337zm5.661.73c-.423 0-.788-.08-1.095-.24a1.748 1.748 0 01-.721-.692c-.166-.307-.249-.67-.249-1.086v-1.402c0-.423.083-.785.249-1.086.173-.3.414-.531.721-.691.307-.16.672-.24 1.095-.24.423 0 .788.08 1.095.24.308.16.545.39.711.691.173.301.26.66.26 1.076v1.412c0 .417-.087.779-.26 1.086a1.677 1.677 0 01-.711.692c-.307.16-.672.24-1.095.24zm0-.769c.378 0 .673-.105.884-.317.211-.211.317-.522.317-.932v-1.402c0-.41-.106-.72-.317-.932-.211-.211-.506-.317-.884-.317-.371 0-.666.106-.884.317-.211.211-.317.522-.317.932v1.402c0 .41.106.72.317.932.218.212.513.317.884.317zm3.711.692v-5.284h2.286c.551 0 .977.125 1.278.375.301.243.451.586.451 1.028 0 .365-.125.66-.374.884-.25.217-.58.326-.99.326v-.076c.449 0 .807.112 1.076.336.276.224.413.525.413.903 0 .474-.16.845-.48 1.114-.32.263-.769.394-1.345.394h-2.315zm.845-.759h1.47c.307 0 .544-.067.711-.202.173-.134.259-.323.259-.567 0-.25-.086-.441-.259-.576-.167-.134-.404-.202-.711-.202h-1.47v1.547zm0-2.296h1.441c.269 0 .48-.064.634-.192.16-.128.24-.308.24-.538 0-.23-.076-.41-.23-.538-.154-.135-.368-.202-.644-.202h-1.441v1.47zM156.527 81v-5.284h.865v2.181h.903l1.537-2.18h.989l-1.777 2.516L160.85 81h-1.008l-1.538-2.354h-.912V81h-.865zm5.661 0v-5.284h.826v2.882c0 .186-.006.381-.019.586a8.08 8.08 0 01-.038.586 6.36 6.36 0 01-.048.462l2.132-4.516h1.105V81h-.826v-2.882c0-.186.003-.381.009-.586.013-.205.029-.4.049-.586l.048-.47L163.293 81h-1.105zM18.013 101.345V100h-3.756v-5.284h.865v4.516h2.075v-4.516h.864v4.516h.72v2.113h-.768zm3.913-1.249a2.3 2.3 0 01-1.095-.25 1.807 1.807 0 01-.721-.701 2.204 2.204 0 01-.25-1.066v-1.441c0-.41.084-.766.25-1.067.173-.3.413-.534.72-.701.314-.166.68-.25 1.096-.25.416 0 .778.084 1.085.25.314.166.554.4.72.701.174.301.26.657.26 1.067v.931h-3.285v.51c0 .416.105.736.317.96.211.218.512.327.903.327.333 0 .602-.058.807-.173a.763.763 0 00.374-.538h.865a1.472 1.472 0 01-.653 1.057c-.372.256-.836.384-1.393.384zm1.22-3.103v-.355c0-.417-.106-.737-.317-.961-.205-.224-.506-.336-.903-.336-.391 0-.692.112-.903.336-.212.224-.317.544-.317.96v.28h2.507l-.067.076zm2.49 3.007v-5.284h.865v2.2h2.229v-2.2h.864V100h-.864v-2.296H26.5V100h-.865zm7.669.077c-.423 0-.788-.08-1.095-.24a1.744 1.744 0 01-.72-.692c-.167-.307-.25-.67-.25-1.086v-1.402c0-.423.083-.785.25-1.086.172-.3.412-.531.72-.691.307-.16.672-.24 1.095-.24.423 0 .788.08 1.095.24.308.16.544.39.711.691.173.301.26.66.26 1.076v1.412c0 .417-.087.779-.26 1.086a1.684 1.684 0 01-.71.692c-.308.16-.673.24-1.096.24zm0-.769c.378 0 .672-.105.884-.317.211-.211.317-.522.317-.932v-1.402c0-.41-.106-.72-.317-.932-.212-.211-.506-.317-.884-.317-.371 0-.666.106-.884.317-.211.211-.317.522-.317.932v1.402c0 .41.106.72.317.932.218.212.513.317.884.317zm3.71.692v-5.284h2.287c.55 0 .977.125 1.278.375.3.243.451.586.451 1.028 0 .365-.125.66-.374.884-.25.217-.58.326-.99.326v-.076c.448 0 .807.112 1.076.336.276.224.413.525.413.903 0 .474-.16.845-.48 1.114-.32.263-.769.394-1.345.394h-2.315zm.846-.759h1.47c.307 0 .544-.067.71-.202.174-.134.26-.323.26-.567 0-.25-.086-.441-.26-.576-.166-.134-.403-.202-.71-.202h-1.47v1.547zm0-2.296h1.441c.27 0 .48-.064.634-.192.16-.128.24-.308.24-.538 0-.23-.077-.41-.23-.538-.154-.135-.368-.202-.644-.202h-1.44v1.47zm6.823 3.132c-.422 0-.787-.08-1.095-.24a1.744 1.744 0 01-.72-.692c-.167-.307-.25-.67-.25-1.086v-1.402c0-.423.083-.785.25-1.086.172-.3.413-.531.72-.691.308-.16.673-.24 1.095-.24.423 0 .788.08 1.096.24.307.16.544.39.71.691.173.301.26.66.26 1.076v1.412c0 .417-.087.779-.26 1.086a1.684 1.684 0 01-.71.692c-.308.16-.673.24-1.096.24zm0-.769c.378 0 .673-.105.884-.317.212-.211.317-.522.317-.932v-1.402c0-.41-.105-.72-.317-.932-.211-.211-.506-.317-.884-.317-.371 0-.666.106-.883.317-.212.211-.318.522-.318.932v1.402c0 .41.106.72.318.932.217.212.512.317.883.317zm3.711.692v-5.284h.826v2.882c0 .186-.006.381-.02.586-.005.205-.018.4-.038.586a6.1 6.1 0 01-.047.462l2.132-4.516h1.105V100h-.826v-2.882c0-.186.003-.381.01-.586.012-.205.028-.4.047-.586l.048-.47L49.5 100h-1.105zm2.017-6.148c-.46 0-.832-.128-1.114-.385-.282-.256-.423-.592-.423-1.008h.682c0 .25.077.451.23.605.155.154.36.23.616.23.262 0 .47-.076.624-.23a.8.8 0 00.24-.605h.682c0 .416-.14.752-.422 1.008-.282.257-.654.385-1.115.385zM59.774 100v-5.284h3.958V100h-.864v-4.496h-2.23V100h-.864zm7.669.077c-.423 0-.788-.08-1.095-.24a1.744 1.744 0 01-.72-.692c-.167-.307-.25-.67-.25-1.086v-1.402c0-.423.083-.785.25-1.086.172-.3.412-.531.72-.691.307-.16.672-.24 1.095-.24.423 0 .788.08 1.095.24.308.16.544.39.711.691.173.301.26.66.26 1.076v1.412c0 .417-.087.779-.26 1.086a1.683 1.683 0 01-.71.692c-.308.16-.673.24-1.096.24zm0-.769c.378 0 .672-.105.884-.317.211-.211.317-.522.317-.932v-1.402c0-.41-.106-.72-.317-.932-.212-.211-.506-.317-.884-.317-.371 0-.666.106-.884.317-.211.211-.317.522-.317.932v1.402c0 .41.106.72.317.932.218.212.513.317.884.317zm3.048.759v-.807h.173c.294 0 .5-.115.614-.346.122-.23.186-.643.193-1.239l.057-2.959h3.584V100h-.865v-4.496h-1.864l-.048 2.21c-.013.557-.077 1.008-.192 1.354-.109.346-.282.599-.519.76-.23.16-.534.239-.912.239h-.221zm6.352-.067v-5.284h.826v2.882c0 .186-.006.381-.019.586-.006.205-.019.4-.038.586a6.36 6.36 0 01-.048.462l2.132-4.516h1.105V100h-.826v-2.882c0-.186.003-.381.01-.586.013-.205.028-.4.048-.586l.048-.47L77.948 100h-1.105zm7.237 0v-4.525h-1.922v-.759h4.707v.76h-1.92V100h-.865zm4.143 0v-5.284h.826v2.882c0 .186-.007.381-.02.586-.006.205-.019.4-.038.586a6.1 6.1 0 01-.048.462l2.133-4.516h1.105V100h-.827v-2.882c0-.186.004-.381.01-.586.013-.205.029-.4.048-.586l.048-.47L89.327 100h-1.104zm5.718 0v-5.284h.865v2.181h.903l1.537-2.18h.99l-1.778 2.516L98.264 100h-1.009l-1.537-2.354h-.912V100h-.865zm5.66 0v-5.284h.827v2.882c0 .186-.006.381-.019.586-.007.205-.019.4-.039.586-.012.18-.028.333-.048.462l2.133-4.516h1.105V100h-.826v-2.882c0-.186.003-.381.009-.586.013-.205.029-.4.048-.586l.048-.47-2.132 4.524h-1.105zm-85.344 20v-5.284h.826v2.882c0 .186-.006.381-.019.586a8.66 8.66 0 01-.038.586 6.21 6.21 0 01-.049.461l2.133-4.515h1.105V120h-.826v-2.882c0-.186.003-.381.01-.586.012-.205.028-.4.047-.586l.048-.471L15.362 120h-1.105zm12.897.096c-.557 0-.996-.141-1.316-.423-.32-.288-.48-.675-.48-1.162 0-.493.16-.881.48-1.162.32-.282.753-.423 1.297-.423h1.633v-.529c0-.326-.1-.576-.298-.749-.192-.179-.467-.269-.826-.269-.314 0-.576.067-.788.202a.717.717 0 00-.365.528h-.864c.057-.454.272-.816.643-1.085.372-.269.836-.404 1.393-.404.609 0 1.09.157 1.441.471.353.314.529.74.529 1.278V120h-.846v-1.009h-.144l.144-.144c0 .384-.15.689-.451.913-.295.224-.689.336-1.182.336zm.212-.682c.41 0 .746-.102 1.008-.307a.957.957 0 00.394-.788v-.75h-1.614c-.288 0-.515.081-.682.241-.166.16-.25.378-.25.653 0 .295.1.528.298.701.205.167.487.25.846.25zm5.958.682c-.422 0-.794-.08-1.114-.24a1.73 1.73 0 01-.73-.692c-.173-.307-.26-.669-.26-1.085v-1.441c0-.423.087-.785.26-1.086.173-.301.416-.531.73-.692.32-.16.691-.24 1.114-.24.609 0 1.099.164 1.47.49.372.327.567.772.586 1.336h-.865c-.019-.34-.134-.599-.345-.779-.205-.185-.487-.278-.846-.278-.378 0-.679.109-.903.326-.224.212-.336.516-.336.913v1.451c0 .397.112.704.336.922.224.218.525.327.903.327.359 0 .64-.093.846-.279.21-.186.326-.445.345-.778h.865c-.02.563-.215 1.008-.586 1.335-.371.327-.861.49-1.47.49zm5.69 0a2.46 2.46 0 01-1.114-.24 1.73 1.73 0 01-.73-.692c-.174-.307-.26-.669-.26-1.085v-1.441c0-.423.086-.785.26-1.086a1.73 1.73 0 01.73-.692c.32-.16.691-.24 1.114-.24.608 0 1.098.164 1.47.49.371.327.566.772.586 1.336h-.865c-.02-.34-.134-.599-.346-.779-.205-.185-.486-.278-.845-.278-.378 0-.679.109-.903.326-.224.212-.336.516-.336.913v1.451c0 .397.112.704.336.922.224.218.525.327.903.327.358 0 .64-.093.845-.279.212-.186.327-.445.346-.778h.865c-.02.563-.215 1.008-.586 1.335-.372.327-.862.49-1.47.49zm5.67-.019c-.422 0-.787-.08-1.095-.24a1.744 1.744 0 01-.72-.692c-.167-.307-.25-.669-.25-1.086v-1.402c0-.423.083-.785.25-1.086.172-.301.413-.531.72-.691.308-.161.673-.241 1.095-.241.423 0 .788.08 1.096.241.307.16.544.39.71.691.173.301.26.66.26 1.076v1.412c0 .417-.087.779-.26 1.086a1.684 1.684 0 01-.71.692c-.308.16-.673.24-1.096.24zm0-.769c.378 0 .673-.105.884-.317.212-.211.317-.522.317-.932v-1.402c0-.41-.105-.721-.317-.932-.211-.211-.506-.317-.884-.317-.371 0-.666.106-.883.317-.212.211-.318.522-.318.932v1.402c0 .41.106.721.318.932.217.212.512.317.883.317zm3.692 2.421v-7.013h.864v1.009h.173l-.173.202c0-.404.132-.721.394-.951.27-.237.621-.356 1.057-.356.532 0 .954.176 1.268.529.32.345.48.823.48 1.431v1.547c0 .403-.073.752-.22 1.047a1.573 1.573 0 01-.606.682c-.256.16-.563.24-.922.24-.43 0-.778-.118-1.047-.355-.27-.237-.404-.554-.404-.951l.173.201h-.192l.02 1.201v1.537h-.865zm2.027-2.382c.365 0 .65-.109.855-.327.211-.218.317-.531.317-.941v-1.441c0-.41-.106-.724-.317-.942-.205-.218-.49-.326-.855-.326-.352 0-.634.112-.846.336-.211.224-.317.535-.317.932v1.441c0 .397.106.707.317.932.212.224.493.336.846.336zm5.228.653v-4.525H53.71v-.759h4.707v.759h-1.921V120h-.865zm4.143 0v-5.284h.826v2.882c0 .186-.006.381-.019.586a8.055 8.055 0 01-.038.586c-.013.18-.029.333-.048.461l2.133-4.515h1.104V120h-.826v-2.882c0-.186.003-.381.01-.586.013-.205.029-.4.048-.586l.048-.471L60.879 120h-1.105zm5.517 0v-5.284h1.172l.692 2.027c.07.205.134.41.192.615.058.199.1.352.125.461.025-.109.064-.262.115-.461.058-.205.118-.413.182-.624l.654-2.018h1.172V120h-.836v-.817c0-.288.003-.602.01-.941l.019-1.028.038-.98c.013-.314.023-.589.03-.826l-.942 3.007H67l-.951-2.988c.013.288.022.647.029 1.076.013.429.022.878.029 1.345.012.468.019.913.019 1.335V120h-.836zm7.842.096c-.417 0-.782-.083-1.096-.25a1.803 1.803 0 01-.72-.701 2.203 2.203 0 01-.25-1.066v-1.441c0-.41.083-.766.25-1.067a1.81 1.81 0 01.72-.701c.314-.167.68-.25 1.096-.25.416 0 .778.083 1.085.25.314.167.554.4.72.701.174.301.26.657.26 1.067v.931h-3.285v.51c0 .416.105.736.317.96.21.218.512.327.903.327.333 0 .602-.058.806-.173a.764.764 0 00.375-.538h.865a1.473 1.473 0 01-.654 1.057c-.37.256-.835.384-1.392.384zm1.22-3.103v-.355c0-.417-.106-.737-.317-.961-.205-.224-.506-.336-.903-.336-.391 0-.692.112-.903.336-.212.224-.318.544-.318.961v.278h2.508l-.067.077zm2.49 3.007v-5.284h.865v2.2h2.229v-2.2h.864V120h-.864v-2.296h-2.23V120h-.864zm7.237 0v-4.525h-1.922v-.759h4.707v.759h-1.92V120h-.865zm5.66.096c-.557 0-.995-.141-1.316-.423-.32-.288-.48-.675-.48-1.162 0-.493.16-.881.48-1.162.32-.282.753-.423 1.297-.423h1.633v-.529c0-.326-.099-.576-.297-.749-.193-.179-.468-.269-.827-.269-.314 0-.576.067-.787.202a.717.717 0 00-.365.528h-.865c.058-.454.272-.816.644-1.085.371-.269.835-.404 1.393-.404.608 0 1.088.157 1.44.471.353.314.529.74.529 1.278V120h-.845v-1.009h-.144l.144-.144c0 .384-.15.689-.452.913-.295.224-.688.336-1.182.336zm.212-.682c.41 0 .746-.102 1.008-.307a.957.957 0 00.394-.788v-.75H89.74c-.288 0-.515.081-.682.241-.166.16-.25.378-.25.653 0 .295.1.528.298.701.205.167.487.25.846.25zm10.457 2.315l.778-2.056-1.96-4.957h.961l1.23 3.267c.044.108.086.24.124.393.039.148.071.273.096.375l.097-.375c.038-.153.076-.285.115-.393l1.153-3.267h.931l-2.603 7.013h-.922zm6.881-1.633c-.423 0-.794-.08-1.115-.24a1.735 1.735 0 01-.73-.692c-.173-.307-.259-.669-.259-1.085v-1.441c0-.423.086-.785.259-1.086.173-.301.417-.531.73-.692.321-.16.692-.24 1.115-.24.608 0 1.098.164 1.47.49.371.327.566.772.586 1.336h-.865c-.019-.34-.135-.599-.346-.779-.205-.185-.487-.278-.845-.278-.378 0-.679.109-.903.326-.224.212-.337.516-.337.913v1.451c0 .397.113.704.337.922.224.218.525.327.903.327.358 0 .64-.093.845-.279.211-.186.327-.445.346-.778h.865c-.02.563-.215 1.008-.586 1.335-.372.327-.862.49-1.47.49zm3.028-.029v-.807h.173c.295 0 .5-.115.615-.346.122-.23.186-.643.192-1.239l.058-2.959h3.583V120h-.864v-4.496h-1.864l-.048 2.21c-.013.557-.077 1.008-.192 1.354-.109.346-.282.599-.519.759-.231.16-.535.24-.913.24h-.221zm7.16 1.662l.778-2.056-1.96-4.957h.961l1.229 3.267c.045.108.087.24.125.393.039.148.071.273.096.375l.097-.375c.038-.153.076-.285.115-.393l1.153-3.267h.931l-2.603 7.013h-.922zm5.228-1.729v-5.284h3.795v.788h-2.93V120h-.865zm7.323.096c-.243 0-.439-.07-.586-.211-.141-.141-.211-.33-.211-.567 0-.25.07-.448.211-.596.147-.147.343-.221.586-.221.243 0 .436.074.577.221.147.148.22.346.22.596 0 .237-.073.426-.22.567-.141.141-.334.211-.577.211zm-113.755-104c-.448 0-.842-.083-1.181-.25a1.923 1.923 0 01-.778-.72c-.18-.314-.27-.682-.27-1.105v-3.055c0-.429.09-.797.27-1.105.185-.307.445-.544.778-.71.34-.174.733-.26 1.181-.26.455 0 .846.086 1.172.26.333.166.593.403.779.71.185.308.278.676.278 1.105h-1.21c0-.333-.09-.586-.27-.759-.172-.173-.422-.26-.748-.26-.327 0-.58.087-.76.26-.179.173-.269.423-.269.75v3.064c0 .327.09.58.27.759.179.173.432.26.758.26.327 0 .577-.087.75-.26.18-.18.269-.432.269-.759h1.21c0 .416-.093.781-.278 1.095a1.903 1.903 0 01-.779.73c-.326.167-.717.25-1.172.25zM21.32 16v-4.179h-1.806v-1.105h4.823v1.105h-1.806V16h-1.21zm4.153 1.73v-7.014h1.172v1.009h.269l-.269.279c0-.43.128-.766.384-1.01.256-.249.602-.374 1.038-.374.531 0 .957.183 1.277.548.32.365.48.855.48 1.47v1.431c0 .41-.073.769-.22 1.076a1.623 1.623 0 01-.605.701 1.7 1.7 0 01-.932.25c-.436 0-.782-.122-1.038-.365-.256-.25-.384-.59-.384-1.018l.269.278h-.279l.039 1.259v1.48h-1.201zm2.171-2.671c.308 0 .548-.09.72-.27.174-.179.26-.435.26-.768v-1.326c0-.333-.086-.589-.26-.768-.172-.18-.412-.27-.72-.27-.3 0-.538.094-.71.28-.174.179-.26.432-.26.758v1.326c0 .327.086.583.26.769.172.179.41.269.71.269zm5.075 1.037c-.544 0-.974-.144-1.287-.432-.314-.288-.471-.676-.471-1.163 0-.518.173-.919.519-1.2.346-.282.835-.423 1.47-.423h1.316v-.452c0-.256-.084-.454-.25-.595-.167-.148-.394-.221-.682-.221-.263 0-.48.057-.653.173a.675.675 0 00-.308.47h-1.172c.058-.5.282-.896.673-1.19.39-.296.89-.443 1.498-.443.647 0 1.156.164 1.528.49.378.32.567.756.567 1.307V16h-1.163v-.922h-.192l.192-.26c0 .391-.144.702-.432.932-.288.23-.673.346-1.153.346zm.394-.903c.34 0 .615-.086.826-.26a.82.82 0 00.327-.672v-.643h-1.297c-.244 0-.439.07-.586.21a.736.736 0 00-.221.558c0 .25.083.448.25.596.172.14.406.211.7.211zm5.276.807v-4.179h-1.806v-1.105h4.823v1.105H39.6V16h-1.21zm6.305.096c-.448 0-.84-.086-1.172-.26a1.923 1.923 0 01-.778-.72 2.17 2.17 0 01-.27-1.095v-1.326c0-.416.09-.778.27-1.085.185-.314.445-.557.778-.73.333-.173.724-.26 1.172-.26.442 0 .826.087 1.153.26.333.172.589.416.768.73.186.307.279.669.279 1.085v.951h-3.257v.375c0 .371.09.653.27.845.179.186.444.279.797.279.268 0 .486-.045.653-.134a.642.642 0 00.317-.414h1.181c-.09.455-.333.82-.73 1.096-.39.269-.867.403-1.431.403zm1.037-3.122v-.288c0-.365-.086-.644-.259-.836-.173-.199-.432-.298-.778-.298-.346 0-.608.1-.788.298-.18.198-.269.48-.269.845v.202l2.18-.02-.086.097zM48.654 16v-5.284h3.94v1.115h-2.739V16h-1.2zm5.277 0v-5.284h1.086v2.604c0 .166-.01.365-.03.595-.012.225-.031.445-.057.663-.026.218-.051.407-.077.567l1.864-4.429h1.48V16H57.11v-2.603c0-.173.006-.366.019-.577.02-.211.038-.42.058-.624.025-.205.05-.378.076-.519L55.41 16h-1.48zm8.706 0v-1.777a5.468 5.468 0 01-.403.067 5.43 5.43 0 01-.596.029c-.679 0-1.21-.167-1.595-.5-.384-.34-.576-.81-.576-1.412v-1.69h1.2v1.632c0 .276.097.494.289.654.192.153.455.23.788.23.217 0 .406-.01.566-.029.16-.025.27-.048.327-.067v-2.42h1.21V16h-1.21zm4.816.096c-.449 0-.84-.086-1.172-.26a1.923 1.923 0 01-.779-.72 2.168 2.168 0 01-.269-1.095v-1.326c0-.416.09-.778.27-1.085.185-.314.445-.557.778-.73.332-.173.723-.26 1.171-.26.442 0 .827.087 1.153.26.333.172.59.416.769.73.186.307.279.669.279 1.085v.951h-3.257v.375c0 .371.09.653.269.845.18.186.445.279.797.279.27 0 .487-.045.653-.134a.642.642 0 00.317-.414h1.182c-.09.455-.333.82-.73 1.096-.39.269-.868.403-1.431.403zm1.037-3.122v-.288c0-.365-.086-.644-.26-.836-.172-.199-.432-.298-.778-.298-.345 0-.608.1-.787.298-.18.198-.27.48-.27.845v.202l2.181-.02-.086.097zm4.662 3.122c-.448 0-.842-.083-1.182-.25a1.923 1.923 0 01-.778-.72c-.186-.314-.279-.682-.279-1.105v-1.326c0-.429.093-.797.279-1.104.186-.308.445-.545.778-.711.34-.173.734-.26 1.182-.26.666 0 1.197.173 1.594.519.398.34.606.804.625 1.393h-1.2c-.02-.275-.12-.487-.299-.634-.173-.154-.413-.23-.72-.23-.32 0-.573.089-.76.268-.185.173-.278.423-.278.75v1.335c0 .327.093.58.279.759.186.18.439.269.759.269.307 0 .547-.074.72-.221.18-.154.279-.368.298-.644h1.2c-.018.59-.226 1.057-.624 1.403-.397.34-.928.51-1.594.51zM76.718 16v-5.284h1.201v2.075h.788l1.287-2.075h1.345l-1.594 2.556L81.368 16h-1.374l-1.287-2.19h-.788V16h-1.2zm7.794.087c-.448 0-.84-.084-1.172-.25a1.939 1.939 0 01-.769-.72 2.2 2.2 0 01-.269-1.106v-1.306c0-.423.09-.788.27-1.095a1.84 1.84 0 01.768-.72c.333-.174.724-.26 1.172-.26.455 0 .845.086 1.172.26.326.166.58.406.759.72.186.307.278.669.278 1.085v1.316c0 .423-.092.791-.278 1.105-.18.308-.433.548-.76.72-.326.167-.716.25-1.171.25zm0-1.048c.32 0 .567-.086.74-.26.179-.178.269-.435.269-.768v-1.306c0-.34-.09-.596-.27-.769-.172-.173-.419-.259-.74-.259-.313 0-.56.086-.739.26-.18.172-.269.428-.269.768v1.306c0 .333.09.59.27.769.178.173.425.26.739.26zm5.7 1.057c-.45 0-.84-.086-1.173-.26a1.923 1.923 0 01-.778-.72 2.17 2.17 0 01-.269-1.095v-1.326c0-.416.09-.778.269-1.085.186-.314.445-.557.778-.73.333-.173.724-.26 1.172-.26.442 0 .826.087 1.153.26.333.172.59.416.768.73.186.307.28.669.28 1.085v.951h-3.258v.375c0 .371.09.653.27.845.179.186.444.279.797.279.269 0 .486-.045.653-.134a.642.642 0 00.317-.414h1.182c-.09.455-.333.82-.73 1.096-.391.269-.868.403-1.432.403zm1.037-3.122v-.288c0-.365-.087-.644-.26-.836-.173-.199-.432-.298-.778-.298-.346 0-.608.1-.788.298-.179.198-.269.48-.269.845v.202l2.181-.02-.086.097zM14.103 35v-5.284h4.266V35h-1.201v-4.17h-1.864V35h-1.2zm5.162.067v-1.095h.24a.54.54 0 00.49-.26c.115-.179.176-.46.182-.845l.058-3.15h3.823V35h-1.2v-4.17h-1.442l-.038 2.105c-.013.46-.09.851-.23 1.172a1.604 1.604 0 01-.606.72c-.262.16-.583.24-.96.24h-.317zm7.764.03c-.544 0-.973-.145-1.287-.433-.314-.288-.47-.676-.47-1.163 0-.518.172-.919.518-1.2.346-.282.836-.423 1.47-.423h1.316v-.452c0-.256-.083-.454-.25-.595-.166-.148-.394-.221-.682-.221-.262 0-.48.057-.653.173a.675.675 0 00-.308.47h-1.171c.057-.5.281-.896.672-1.19.39-.296.89-.443 1.499-.443.646 0 1.156.163 1.527.49.378.32.567.756.567 1.307V35h-1.163v-.922h-.192l.192-.26c0 .391-.144.702-.432.932-.288.23-.672.346-1.153.346zm.394-.904c.34 0 .615-.086.826-.26a.82.82 0 00.327-.672v-.644h-1.297c-.243 0-.439.071-.586.212a.736.736 0 00-.22.557c0 .25.082.448.249.596.173.14.407.211.701.211zm3.75.807v-5.284h1.2v2.046h1.864v-2.046h1.2V35h-1.2v-2.123h-1.864V35h-1.2zm5.689 0v-5.284h1.085v2.604c0 .166-.01.365-.028.595a13.906 13.906 0 01-.135 1.23l1.864-4.429h1.48V35h-1.086v-2.603c0-.173.006-.365.019-.577.02-.211.038-.42.058-.624a9.79 9.79 0 01.077-.519L38.34 35h-1.48zm5.68 1.73v-7.014h1.172v1.009h.269l-.269.279c0-.43.128-.766.384-1.01.257-.249.602-.374 1.038-.374.531 0 .957.183 1.277.548.32.365.48.855.48 1.47v1.431c0 .41-.073.769-.22 1.076a1.623 1.623 0 01-.605.701 1.7 1.7 0 01-.932.25c-.436 0-.782-.122-1.038-.365-.256-.25-.384-.59-.384-1.018l.269.278h-.279l.039 1.259v1.48h-1.201zm2.171-2.671c.307 0 .548-.09.72-.27.173-.179.26-.435.26-.768v-1.326c0-.333-.087-.589-.26-.768-.172-.18-.413-.27-.72-.27-.3 0-.538.094-.71.28-.174.179-.26.432-.26.758v1.326c0 .327.086.583.26.769.172.179.41.269.71.269zm5.661 1.028c-.448 0-.839-.084-1.172-.25a1.938 1.938 0 01-.769-.72 2.2 2.2 0 01-.269-1.106v-1.306c0-.423.09-.788.27-1.095a1.84 1.84 0 01.768-.72c.333-.174.724-.26 1.172-.26.455 0 .845.086 1.172.26.327.166.58.406.759.72.186.307.279.669.279 1.085v1.316c0 .423-.093.791-.28 1.105a1.848 1.848 0 01-.758.72c-.327.167-.717.25-1.172.25zm0-1.048c.32 0 .567-.086.74-.26.179-.178.269-.435.269-.768v-1.306c0-.34-.09-.596-.27-.769-.172-.173-.419-.259-.739-.259-.314 0-.56.086-.74.26-.18.172-.269.428-.269.768v1.306c0 .333.09.59.27.769.179.173.425.26.739.26zm3.547.961v-5.284h2.344c.609 0 1.086.128 1.432.385.352.25.528.595.528 1.037 0 .359-.138.647-.413.865-.269.217-.628.326-1.076.326v-.086c.487 0 .878.115 1.172.346.295.224.442.525.442.903 0 .467-.18.836-.538 1.105-.352.268-.839.403-1.46.403h-2.43zm1.182-.913h1.21c.27 0 .48-.06.634-.182a.593.593 0 00.231-.49.613.613 0 00-.23-.51c-.154-.121-.366-.182-.635-.182h-1.21v1.364zm0-2.17h1.172c.237 0 .426-.058.567-.174a.576.576 0 00.211-.47.576.576 0 00-.211-.471c-.135-.122-.324-.183-.567-.183h-1.172v1.297zm6.064 3.18c-.544 0-.973-.145-1.287-.433-.314-.288-.47-.676-.47-1.163 0-.518.172-.919.518-1.2.346-.282.836-.423 1.47-.423h1.316v-.452c0-.256-.083-.454-.25-.595-.166-.148-.394-.221-.682-.221-.262 0-.48.057-.653.173a.675.675 0 00-.308.47H59.65c.058-.5.282-.896.673-1.19.39-.296.89-.443 1.498-.443.647 0 1.157.163 1.528.49.378.32.567.756.567 1.307V35h-1.163v-.922h-.192l.192-.26c0 .391-.144.702-.432.932-.288.23-.672.346-1.153.346zm.394-.904c.34 0 .615-.086.826-.26a.82.82 0 00.327-.672v-.644h-1.297c-.243 0-.439.071-.586.212a.736.736 0 00-.22.557c0 .25.082.448.249.596.173.14.407.211.701.211zm3.75.807v-5.284h1.2v2.046h1.864v-2.046h1.2V35h-1.2v-2.123H66.51V35h-1.2zM71 35v-5.284h1.085v2.604c0 .166-.01.365-.028.595a13.981 13.981 0 01-.135 1.23l1.864-4.429h1.48V35H74.18v-2.603c0-.173.006-.365.019-.577.02-.211.038-.42.058-.624.025-.205.05-.378.076-.519L72.48 35H71zm7.832.096c-.448 0-.84-.086-1.172-.26a1.923 1.923 0 01-.778-.72 2.168 2.168 0 01-.27-1.095v-1.326c0-.416.09-.778.27-1.085a1.89 1.89 0 01.778-.73c.333-.173.724-.26 1.172-.26.442 0 .826.087 1.153.26.333.172.589.416.768.73.186.307.279.669.279 1.085v.951h-3.257v.375c0 .371.09.653.27.845.178.186.444.279.796.279.27 0 .487-.045.654-.135a.642.642 0 00.317-.413h1.181c-.09.455-.333.82-.73 1.096-.39.269-.868.403-1.431.403zm1.037-3.122v-.288c0-.365-.086-.644-.259-.836-.173-.199-.432-.298-.778-.298-.346 0-.609.1-.788.298-.18.198-.269.48-.269.845v.202l2.18-.02-.086.097zm4.643-.74c-.27 0-.487-.074-.653-.22a.777.777 0 01-.24-.587c0-.243.08-.439.24-.586.166-.147.384-.22.653-.22s.483.073.644.22c.166.147.25.343.25.586a.762.762 0 01-.25.586c-.16.147-.375.221-.644.221zm0 3.862c-.27 0-.487-.074-.653-.22a.758.758 0 01-.24-.587c0-.243.08-.439.24-.586.166-.147.384-.22.653-.22s.483.073.644.22c.166.147.25.343.25.586a.744.744 0 01-.25.586c-.16.147-.375.221-.644.221z" fill="#000"/><defs><filter id="filter0_d_394_1354" x=".157" y="0" width="179.646" height="178.685" filterUnits="userSpaceOnUse" color-interpolation-filters="sRGB"><feFlood flood-opacity="0" result="BackgroundImageFix"/><feColorMatrix in="SourceAlpha" values="0 0 0 0 0 0 0 0 0 0 0 0 0 0 0 0 0 0 127 0" result="hardAlpha"/><feOffset dy="3.843"/><feGaussianBlur stdDeviation="1.921"/><feComposite in2="hardAlpha" operator="out"/><feColorMatrix values="0 0 0 0 0 0 0 0 0 0 0 0 0 0 0 0 0 0 0.25 0"/><feBlend in2="BackgroundImageFix" result="effect1_dropShadow_394_1354"/><feBlend in="SourceGraphic" in2="effect1_dropShadow_394_1354" result="shape"/></filter></defs></svg>