<svg width="182" height="179" fill="none" xmlns="http://www.w3.org/2000/svg"><g filter="url(#filter0_d_394_1221)"><rect x="4" width="171.961" height="171" rx="16.011" fill="#E1EDE4"/></g><mask id="a" style="mask-type:alpha" maskUnits="userSpaceOnUse" x="4" y="0" width="172" height="49"><path fill="#C9D9CD" d="M4 0h171.961v49H4z"/></mask><g mask="url(#a)"><rect x="4" y="-1.959" width="171.961" height="137.2" rx="16.011" fill="#C09F6D"/></g><path d="M16.844 70.096c-.417 0-.779-.08-1.086-.24a1.744 1.744 0 01-.71-.701 2.298 2.298 0 01-.241-1.076h.865c0 .397.102.704.307.922.205.218.493.326.865.326.377 0 .669-.108.874-.326.211-.218.317-.525.317-.922v-1.22h-2.162v-.788h2.162v-1.172c0-.397-.106-.701-.317-.913-.205-.218-.497-.326-.874-.326-.372 0-.66.108-.865.326-.205.218-.307.525-.307.922h-.865c0-.416.08-.775.24-1.075.167-.301.404-.532.711-.692.307-.167.67-.25 1.086-.25.429 0 .794.08 1.095.24.307.16.544.39.71.692.167.3.25.663.25 1.085v3.17c0 .417-.083.779-.25 1.086a1.684 1.684 0 01-.71.692c-.301.16-.666.24-1.095.24zM22.139 70v-4.525h-1.921v-.759h4.707v.76h-1.921V70h-.865zm6.122.077c-.422 0-.787-.08-1.095-.24a1.743 1.743 0 01-.72-.692c-.167-.307-.25-.67-.25-1.086v-1.402c0-.423.083-.785.25-1.086.173-.3.413-.531.72-.691.308-.16.673-.24 1.095-.24.423 0 .788.08 1.096.24.307.16.544.39.71.691.173.301.26.66.26 1.076v1.412c0 .417-.087.779-.26 1.086a1.683 1.683 0 01-.71.692c-.308.16-.673.24-1.096.24zm0-.769c.378 0 .673-.105.884-.317.212-.211.317-.522.317-.932v-1.402c0-.41-.105-.72-.317-.932-.211-.211-.506-.317-.884-.317-.371 0-.666.106-.883.317-.212.211-.317.522-.317.932v1.402c0 .41.105.72.317.932.217.212.512.317.883.317zm9.4.692v-5.284h3.959V70h-.865v-4.496h-2.229V70h-.864zm7.67.077c-.423 0-.789-.08-1.096-.24a1.744 1.744 0 01-.72-.692c-.167-.307-.25-.67-.25-1.086v-1.402c0-.423.083-.785.25-1.086.172-.3.413-.531.72-.691.307-.16.673-.24 1.095-.24.423 0 .788.08 1.096.24.307.16.544.39.71.691.173.301.26.66.26 1.076v1.412c0 .417-.087.779-.26 1.086a1.684 1.684 0 01-.71.692c-.308.16-.673.24-1.096.24zm0-.769c.377 0 .672-.105.883-.317.212-.211.317-.522.317-.932v-1.402c0-.41-.105-.72-.317-.932-.211-.211-.506-.317-.884-.317-.371 0-.666.106-.883.317-.212.211-.318.522-.318.932v1.402c0 .41.106.72.318.932.217.212.512.317.883.317zm5.44.76c-.558 0-1.016-.12-1.375-.356a1.412 1.412 0 01-.634-.96h.913c.045.16.163.29.356.393.198.103.445.154.74.154h.45c.315 0 .558-.074.73-.221a.71.71 0 00.27-.577c0-.256-.087-.458-.26-.605-.166-.147-.413-.22-.74-.22H50.06v-.75h1.134c.294 0 .519-.07.672-.212a.72.72 0 00.23-.557.727.727 0 00-.105-.403.61.61 0 00-.298-.25 1.243 1.243 0 00-.49-.086h-.48c-.256 0-.477.057-.663.172-.185.116-.297.257-.336.423h-.913c.064-.397.273-.724.625-.98s.781-.384 1.287-.384h.48c.378 0 .702.06.97.183a1.324 1.324 0 01.836 1.277c0 .314-.102.574-.307.778-.205.199-.493.311-.864.337v.038c.454.032.784.154.989.365.205.212.307.516.307.913 0 .467-.172.839-.518 1.114-.346.276-.81.413-1.393.413h-.452zM54.73 70v-5.284h2.286c.55 0 .977.125 1.278.375.3.243.451.586.451 1.028 0 .365-.125.66-.374.884-.25.217-.58.326-.99.326v-.076c.448 0 .807.112 1.076.336.275.224.413.525.413.903 0 .474-.16.845-.48 1.114-.32.263-.769.394-1.345.394H54.73zm.845-.759h1.47c.307 0 .544-.067.71-.202.174-.134.26-.323.26-.567 0-.25-.086-.441-.26-.576-.166-.134-.403-.202-.71-.202h-1.47v1.547zm0-2.296h1.441c.269 0 .48-.064.634-.192.16-.128.24-.308.24-.538 0-.23-.077-.41-.23-.538-.154-.135-.369-.202-.644-.202h-1.441v1.47zm6.823 3.132c-.422 0-.788-.08-1.095-.24a1.744 1.744 0 01-.72-.692c-.167-.307-.25-.67-.25-1.086v-1.402c0-.423.083-.785.25-1.086.172-.3.413-.531.72-.691.307-.16.673-.24 1.095-.24.423 0 .788.08 1.095.24.308.16.545.39.711.691.173.301.26.66.26 1.076v1.412c0 .417-.087.779-.26 1.086a1.683 1.683 0 01-.71.692c-.308.16-.673.24-1.096.24zm0-.769c.378 0 .673-.105.884-.317.211-.211.317-.522.317-.932v-1.402c0-.41-.106-.72-.317-.932-.211-.211-.506-.317-.884-.317-.371 0-.666.106-.884.317-.21.211-.317.522-.317.932v1.402c0 .41.106.72.317.932.218.212.513.317.884.317zm3.048.76v-.808h.173c.295 0 .5-.115.615-.346.121-.23.186-.643.192-1.239l.058-2.959h3.583V70h-.865v-4.496H67.34l-.048 2.21c-.013.557-.077 1.008-.193 1.354-.109.346-.281.599-.518.76-.23.16-.535.24-.913.24h-.22zM71.8 70v-5.284h.826v2.882c0 .186-.007.381-.02.586-.006.205-.019.4-.038.586a6.1 6.1 0 01-.048.462l2.133-4.516h1.105V70h-.827v-2.882c0-.186.004-.381.01-.586.013-.205.029-.4.048-.586l.048-.47L72.904 70H71.8zm5.026.067v-.807H77c.295 0 .5-.115.615-.346.122-.23.186-.643.192-1.239l.058-2.959h3.583V70h-.864v-4.496H78.72l-.048 2.21c-.013.557-.077 1.008-.192 1.354-.11.346-.282.599-.519.76-.23.16-.535.24-.913.24h-.22zm8.332.01c-.423 0-.788-.08-1.095-.24a1.744 1.744 0 01-.72-.692c-.167-.307-.25-.67-.25-1.086v-1.402c0-.423.083-.785.25-1.086.172-.3.412-.531.72-.691.307-.16.672-.24 1.095-.24.423 0 .788.08 1.095.24.308.16.544.39.71.691.174.301.26.66.26 1.076v1.412c0 .417-.086.779-.26 1.086a1.683 1.683 0 01-.71.692c-.307.16-.672.24-1.095.24zm0-.769c.378 0 .672-.105.884-.317.211-.211.317-.522.317-.932v-1.402c0-.41-.106-.72-.317-.932-.212-.211-.506-.317-.884-.317-.372 0-.666.106-.884.317-.211.211-.317.522-.317.932v1.402c0 .41.106.72.317.932.218.212.512.317.884.317zM18.659 90.345V89h-3.756v-5.284h.865v4.516h2.075v-4.516h.864v4.516h.72v2.113h-.768zm3.913-1.249c-.417 0-.782-.083-1.095-.25a1.807 1.807 0 01-.721-.701 2.204 2.204 0 01-.25-1.066v-1.441c0-.41.084-.766.25-1.067.173-.3.413-.534.72-.701.314-.166.68-.25 1.096-.25.416 0 .778.084 1.085.25.314.166.554.4.72.701.174.301.26.657.26 1.067v.931h-3.285v.51c0 .416.105.736.317.96.211.218.512.327.903.327.333 0 .602-.058.807-.173a.763.763 0 00.374-.538h.865a1.472 1.472 0 01-.653 1.057c-.372.256-.836.384-1.393.384zm1.22-3.103v-.355c0-.417-.106-.737-.317-.961-.205-.224-.506-.336-.903-.336-.391 0-.692.112-.903.336-.212.224-.317.544-.317.96v.28h2.507l-.067.076zM26.282 89v-5.284h.865v2.2h2.229v-2.2h.864V89h-.864v-2.296h-2.229V89h-.865zm7.237 0v-4.525h-1.922v-.759h4.708v.76h-1.922V89h-.864zm4.123 1.73v-7.014h.865v1.009h.173l-.173.202c0-.404.131-.72.394-.951.269-.237.621-.356 1.057-.356.531 0 .954.176 1.268.529.32.345.48.823.48 1.431v1.547c0 .403-.074.752-.22 1.047a1.57 1.57 0 01-.606.682c-.256.16-.564.24-.922.24-.43 0-.779-.118-1.047-.355-.27-.237-.404-.554-.404-.951l.173.201h-.192l.019 1.201v1.537h-.865zm2.027-2.383c.366 0 .65-.11.856-.327.21-.218.317-.531.317-.941v-1.441c0-.41-.106-.724-.317-.942-.206-.218-.49-.326-.855-.326-.353 0-.635.112-.846.336-.211.224-.317.535-.317.932v1.44c0 .398.106.708.317.932.211.225.493.337.846.337zm5.2.75c-.557 0-.996-.142-1.316-.424-.32-.288-.48-.675-.48-1.162 0-.493.16-.88.48-1.162.32-.282.753-.423 1.297-.423h1.633v-.529c0-.326-.1-.576-.298-.749-.192-.18-.467-.269-.826-.269-.314 0-.576.067-.788.202a.717.717 0 00-.365.528h-.864c.057-.454.272-.816.643-1.085.372-.27.836-.404 1.393-.404.609 0 1.09.157 1.441.471.353.314.529.74.529 1.278V89h-.846v-1.009h-.144l.144-.144c0 .385-.15.689-.451.913-.295.224-.689.336-1.182.336zm.212-.683c.41 0 .746-.103 1.008-.307a.957.957 0 00.394-.788v-.75H44.87c-.288 0-.515.08-.682.24-.166.16-.25.379-.25.654 0 .294.1.528.298.701.205.167.487.25.846.25zm3.297.653v-.807h.173c.295 0 .5-.115.615-.346.122-.23.186-.643.192-1.239l.058-2.959h3.583V89h-.865v-4.496h-1.863l-.048 2.21c-.013.557-.077 1.008-.192 1.354-.11.346-.282.599-.52.76-.23.16-.534.24-.912.24h-.22zM54.731 89v-5.284h.826v2.882c0 .186-.007.381-.02.586-.006.205-.019.4-.038.586a6.36 6.36 0 01-.048.462l2.133-4.516h1.105V89h-.827v-2.882c0-.186.004-.381.01-.586.013-.205.029-.4.048-.586l.048-.47L55.835 89h-1.104zm7.419.067c-.558 0-1.016-.118-1.374-.355a1.412 1.412 0 01-.634-.96h.912c.045.16.164.29.356.393.198.103.445.154.74.154h.451c.314 0 .557-.074.73-.221a.71.71 0 00.27-.577c0-.256-.087-.458-.26-.605-.167-.147-.413-.22-.74-.22h-1.162v-.75h1.133c.295 0 .519-.07.673-.212a.72.72 0 00.23-.557.727.727 0 00-.105-.403.61.61 0 00-.298-.25 1.243 1.243 0 00-.49-.086h-.48a1.23 1.23 0 00-.663.172c-.186.116-.298.257-.337.423h-.912c.064-.397.272-.724.624-.98s.782-.384 1.288-.384h.48c.378 0 .701.06.97.183a1.321 1.321 0 01.835 1.277c0 .314-.102.574-.307.778-.204.199-.493.311-.864.337v.038c.455.032.784.154.99.365.204.212.307.516.307.913 0 .467-.173.839-.519 1.114-.346.276-.81.413-1.393.413h-.451zm5.939.01c-.423 0-.788-.08-1.095-.24a1.744 1.744 0 01-.72-.692c-.167-.307-.25-.67-.25-1.086v-1.402c0-.423.083-.785.25-1.086.172-.3.412-.531.72-.691.307-.16.672-.24 1.095-.24.423 0 .788.08 1.095.24.308.16.544.39.711.691.173.301.26.66.26 1.076v1.412c0 .417-.087.779-.26 1.086a1.683 1.683 0 01-.71.692c-.308.16-.673.24-1.096.24zm0-.769c.378 0 .672-.105.884-.317.211-.211.317-.522.317-.932v-1.402c0-.41-.106-.72-.317-.932-.212-.211-.506-.317-.884-.317-.371 0-.666.106-.884.317-.211.211-.317.522-.317.932v1.402c0 .41.106.72.317.932.218.212.513.317.884.317zm3.71.692v-5.284h2.287c.55 0 .977.125 1.278.375.3.243.451.586.451 1.028 0 .365-.125.66-.374.884-.25.217-.58.326-.99.326v-.076c.448 0 .807.112 1.076.336.275.224.413.525.413.903 0 .474-.16.845-.48 1.114-.32.263-.769.394-1.345.394H71.8zm.846-.759h1.47c.307 0 .544-.067.71-.202.174-.134.26-.323.26-.567 0-.25-.086-.441-.26-.576-.166-.134-.403-.202-.71-.202h-1.47v1.547zm0-2.296h1.441c.269 0 .48-.064.634-.192.16-.128.24-.308.24-.538 0-.23-.077-.41-.23-.538-.154-.135-.369-.202-.644-.202h-1.441v1.47zm6.362 3.151c-.557 0-.996-.14-1.316-.423-.32-.288-.48-.675-.48-1.162 0-.493.16-.88.48-1.162.32-.282.752-.423 1.297-.423h1.633v-.529c0-.326-.1-.576-.298-.749-.192-.18-.467-.269-.826-.269-.314 0-.576.067-.788.202a.718.718 0 00-.365.528h-.864c.057-.454.272-.816.643-1.085.372-.27.836-.404 1.393-.404.609 0 1.089.157 1.441.471.353.314.529.74.529 1.278V89h-.846v-1.009h-.144l.144-.144c0 .385-.15.689-.451.913-.295.224-.689.336-1.182.336zm.211-.682c.41 0 .747-.103 1.01-.307a.957.957 0 00.393-.788v-.75h-1.614c-.288 0-.516.08-.682.24-.166.16-.25.379-.25.654 0 .294.1.528.298.701.205.167.487.25.845.25zm5.508.586v-4.525h-1.922v-.759h4.707v.76h-1.92V89h-.865zm4.181 0v-5.284h.865v1.94h1.556c.596 0 1.063.151 1.403.452.345.295.518.702.518 1.22 0 .513-.173.92-.518 1.22-.346.302-.814.452-1.403.452h-2.421zm.865-.788h1.556c.333 0 .586-.073.759-.22.18-.154.269-.375.269-.664 0-.288-.09-.505-.27-.653-.172-.153-.425-.23-.758-.23h-1.556v1.767zm11.283 2.517l.778-2.056-1.96-4.957h.961l1.23 3.267c.044.108.086.24.124.393.039.148.071.273.096.375l.097-.375a4.13 4.13 0 01.115-.393l1.153-3.267h.931l-2.603 7.013h-.922zM105.938 89v-5.284h3.957V89h-.864v-4.496h-2.229V89h-.864zm5.67 1.73v-7.014h.865v1.009h.172l-.172.202c0-.404.131-.72.393-.951.269-.237.622-.356 1.057-.356.532 0 .954.176 1.268.529.32.345.481.823.481 1.431v1.547c0 .403-.074.752-.221 1.047a1.57 1.57 0 01-.606.682c-.256.16-.563.24-.922.24-.429 0-.778-.118-1.047-.355-.269-.237-.403-.554-.403-.951l.172.201h-.192l.02 1.201v1.537h-.865zm2.027-2.383c.365 0 .65-.11.855-.327.211-.218.317-.531.317-.941v-1.441c0-.41-.106-.724-.317-.942-.205-.218-.49-.326-.855-.326-.352 0-.634.112-.845.336-.212.224-.317.535-.317.932v1.44c0 .398.105.708.317.932.211.225.493.337.845.337zm5.2.75c-.558 0-.996-.142-1.316-.424-.321-.288-.481-.675-.481-1.162 0-.493.16-.88.481-1.162.32-.282.752-.423 1.296-.423h1.634v-.529c0-.326-.1-.576-.298-.749-.192-.18-.468-.269-.826-.269-.314 0-.577.067-.788.202a.718.718 0 00-.365.528h-.865c.058-.454.272-.816.644-1.085.371-.27.836-.404 1.393-.404.608 0 1.089.157 1.441.471.352.314.528.74.528 1.278V89h-.845v-1.009h-.144l.144-.144c0 .385-.151.689-.452.913-.294.224-.688.336-1.181.336zm.211-.683c.41 0 .746-.103 1.009-.307a.958.958 0 00.394-.788v-.75h-1.614c-.289 0-.516.08-.682.24-.167.16-.25.379-.25.654 0 .294.099.528.298.701.205.167.486.25.845.25zm3.96.586v-5.284h2.287c.551 0 .977.125 1.278.375.301.243.451.586.451 1.028 0 .365-.125.66-.375.884-.249.217-.579.326-.989.326v-.076c.448 0 .807.112 1.076.336.275.224.413.525.413.903 0 .474-.16.845-.48 1.114-.321.263-.769.394-1.345.394h-2.316zm.846-.759h1.47c.307 0 .544-.067.711-.202.173-.134.259-.323.259-.567 0-.25-.086-.441-.259-.576-.167-.134-.404-.202-.711-.202h-1.47v1.547zm0-2.296h1.441c.269 0 .48-.064.634-.192.16-.128.24-.308.24-.538 0-.23-.077-.41-.23-.538-.154-.135-.369-.202-.644-.202h-1.441v1.47zm4.181 3.122v-.807h.173c.295 0 .5-.115.615-.346.122-.23.186-.643.192-1.239l.058-2.959h3.583V89h-.865v-4.496h-1.863l-.048 2.21c-.013.557-.077 1.008-.192 1.354-.109.346-.282.599-.519.76-.231.16-.535.24-.913.24h-.221zm8.332.03c-.417 0-.782-.084-1.095-.25a1.806 1.806 0 01-.721-.702 2.21 2.21 0 01-.25-1.066v-1.441c0-.41.084-.766.25-1.067.173-.3.413-.534.721-.701.313-.166.678-.25 1.095-.25.416 0 .778.084 1.085.25.314.166.554.4.721.701.173.301.259.657.259 1.067v.931h-3.285v.51c0 .416.105.736.317.96.211.218.512.327.903.327.333 0 .602-.058.807-.173a.76.76 0 00.374-.538h.865a1.472 1.472 0 01-.653 1.057c-.372.256-.836.384-1.393.384zm1.22-3.104v-.355c0-.417-.106-.737-.317-.961-.205-.224-.506-.336-.903-.336-.391 0-.692.112-.903.336-.212.224-.317.544-.317.96v.28h2.507l-.067.076zm2.49 3.007v-5.284h.865v2.2h2.229v-2.2h.864V89h-.864v-2.296h-2.229V89h-.865zm5.69 0v-5.284h.826v2.882c0 .186-.006.381-.019.586a8.08 8.08 0 01-.038.586 6.36 6.36 0 01-.048.462l2.132-4.516h1.105V89h-.826v-2.882c0-.186.003-.381.009-.586.013-.205.029-.4.049-.586l.048-.47L146.87 89h-1.105zm7.669.096c-.417 0-.782-.083-1.095-.25a1.806 1.806 0 01-.721-.701 2.21 2.21 0 01-.25-1.066v-1.441c0-.41.084-.766.25-1.067.173-.3.413-.534.721-.701.313-.166.678-.25 1.095-.25.416 0 .778.084 1.085.25.314.166.554.4.721.701.173.301.259.657.259 1.067v.931h-3.285v.51c0 .416.105.736.317.96.211.218.512.327.903.327.333 0 .602-.058.807-.173a.76.76 0 00.374-.538h.865a1.472 1.472 0 01-.653 1.057c-.372.256-.836.384-1.393.384zm1.22-3.103v-.355c0-.417-.106-.737-.317-.961-.205-.224-.506-.336-.903-.336-.391 0-.692.112-.903.336-.212.224-.317.544-.317.96v.28h2.507l-.067.076zM16.632 108.067c-.557 0-1.015-.118-1.374-.355a1.412 1.412 0 01-.634-.961h.913c.045.16.163.292.355.394.2.102.446.154.74.154h.452c.314 0 .557-.074.73-.221a.713.713 0 00.269-.577c0-.256-.087-.458-.26-.605-.166-.147-.413-.221-.74-.221h-1.162v-.749h1.134c.295 0 .519-.071.672-.212a.718.718 0 00.231-.557.726.726 0 00-.106-.403.612.612 0 00-.297-.25 1.236 1.236 0 00-.49-.086h-.48c-.257 0-.478.057-.664.173-.185.115-.297.256-.336.422h-.913c.064-.397.273-.724.625-.98s.781-.384 1.287-.384h.48c.378 0 .702.061.97.183.27.115.475.281.616.499.147.218.22.477.22.778 0 .314-.102.573-.307.778-.205.199-.493.311-.864.337v.038c.454.032.784.154.99.365.204.211.306.516.306.913 0 .467-.172.839-.518 1.114-.346.276-.81.413-1.393.413h-.452zm5.479.029c-.558 0-.996-.141-1.317-.423-.32-.288-.48-.675-.48-1.162 0-.493.16-.881.48-1.162.32-.282.753-.423 1.297-.423h1.633v-.529c0-.326-.099-.576-.297-.749-.192-.179-.468-.269-.826-.269-.314 0-.577.067-.788.202a.717.717 0 00-.365.528h-.865c.058-.454.272-.816.644-1.085.371-.269.835-.404 1.393-.404.608 0 1.088.157 1.44.471.353.314.53.74.53 1.278V108h-.846v-1.009H23.6l.144-.144c0 .384-.15.689-.452.913-.294.224-.688.336-1.181.336zm.21-.682c.41 0 .747-.102 1.01-.307a.957.957 0 00.393-.788v-.75h-1.613c-.289 0-.516.081-.683.241-.166.16-.25.378-.25.653 0 .295.1.528.299.701.204.167.486.25.845.25zm3.961.586v-5.284h3.958V108h-.864v-4.496h-2.229V108h-.865zm5.69 0v-5.284h.826v2.882c0 .186-.006.381-.019.586-.006.205-.02.401-.039.586-.012.18-.028.333-.047.461l2.132-4.515h1.105V108h-.826v-2.882c0-.186.003-.381.01-.586.012-.205.028-.4.047-.586l.048-.471L33.078 108h-1.105zm7.688.096a2.46 2.46 0 01-1.114-.24 1.73 1.73 0 01-.73-.692c-.174-.307-.26-.669-.26-1.085v-1.441c0-.423.086-.785.26-1.086a1.73 1.73 0 01.73-.692c.32-.16.691-.24 1.114-.24.608 0 1.098.164 1.47.49.371.327.566.772.586 1.336h-.865c-.02-.34-.134-.599-.346-.779-.205-.185-.486-.278-.845-.278-.378 0-.679.109-.903.326-.224.212-.336.516-.336.913v1.451c0 .397.112.704.336.922.224.218.525.327.903.327.359 0 .64-.093.845-.279.212-.186.327-.445.346-.778h.865c-.02.563-.215 1.008-.586 1.335-.372.327-.862.49-1.47.49zm3.365-.096l1.354-2.037c-.403-.096-.717-.281-.941-.557-.218-.275-.327-.618-.327-1.028 0-.519.17-.925.51-1.22.345-.294.816-.442 1.411-.442h2.277V108h-.864v-1.969h-1.163L44.033 108h-1.008zm2.008-2.738h1.412v-1.777h-1.413c-.32 0-.573.08-.758.24-.186.154-.279.371-.279.653 0 .276.093.493.279.654.185.153.438.23.758.23zM48.867 108v-5.284h1.172l.692 2.027c.07.205.134.41.192.615.057.199.1.352.125.461.025-.109.064-.262.115-.461.058-.205.118-.413.183-.624l.653-2.018h1.172V108h-.836v-.817c0-.288.003-.602.01-.941l.019-1.028.038-.98c.013-.314.023-.589.03-.826l-.942 3.007h-.913l-.951-2.988c.013.288.022.647.029 1.076.013.429.022.878.029 1.345.012.468.019.913.019 1.335V108h-.836zm5.863 0v-5.284h.826v2.882c0 .186-.007.381-.02.586a8.055 8.055 0 01-.038.586 6.1 6.1 0 01-.048.461l2.133-4.515h1.105V108h-.827v-2.882c0-.186.004-.381.01-.586.013-.205.029-.4.048-.586l.048-.471L55.835 108h-1.104zm6.371 1.537l.769-2.988h1.249l-1.25 2.988h-.768zM71.828 108v-5.284h.865v2.181h.903l1.537-2.181h.99l-1.778 2.517L76.151 108h-1.008l-1.537-2.354h-.913V108h-.865zm4.998.067v-.807H77c.295 0 .5-.115.615-.346.122-.23.186-.643.192-1.239l.058-2.959h3.583V108h-.864v-4.496H78.72l-.048 2.21c-.013.557-.077 1.008-.192 1.354-.11.346-.282.599-.519.759-.23.16-.535.24-.913.24h-.22zM83.18 108v-5.284h.826v2.882c0 .186-.006.381-.02.586a8.16 8.16 0 01-.038.586c-.012.18-.028.333-.048.461l2.133-4.515h1.105V108h-.826v-2.882c0-.186.003-.381.01-.586.012-.205.028-.4.047-.586l.048-.471L84.284 108h-1.105zm7.668.096a2.3 2.3 0 01-1.095-.25 1.803 1.803 0 01-.72-.701 2.202 2.202 0 01-.25-1.066v-1.441c0-.41.083-.766.25-1.067a1.81 1.81 0 01.72-.701c.314-.167.68-.25 1.096-.25.416 0 .778.083 1.085.25.314.167.554.4.72.701.173.301.26.657.26 1.067v.931h-3.285v.51c0 .416.105.736.317.96.21.218.512.327.903.327.333 0 .602-.058.806-.173a.764.764 0 00.375-.538h.865a1.473 1.473 0 01-.654 1.057c-.37.256-.835.384-1.392.384zm1.22-3.103v-.355c0-.417-.105-.737-.316-.961-.205-.224-.506-.336-.904-.336-.39 0-.691.112-.902.336-.212.224-.317.544-.317.961v.278h2.507l-.067.077zM94.559 108v-5.284h.865v2.2h2.229v-2.2h.864V108h-.864v-2.296h-2.23V108h-.864zm7.237 0v-4.525h-1.922v-.759h4.707v.759h-1.921V108h-.864zm5.66.096c-.557 0-.996-.141-1.316-.423-.32-.288-.48-.675-.48-1.162 0-.493.16-.881.48-1.162.32-.282.753-.423 1.297-.423h1.633v-.529c0-.326-.099-.576-.297-.749-.193-.179-.468-.269-.827-.269-.314 0-.576.067-.787.202a.715.715 0 00-.365.528h-.865c.058-.454.272-.816.644-1.085.371-.269.835-.404 1.393-.404.608 0 1.088.157 1.441.471.352.314.528.74.528 1.278V108h-.845v-1.009h-.145l.145-.144c0 .384-.151.689-.452.913-.295.224-.688.336-1.182.336zm.212-.682c.41 0 .746-.102 1.008-.307a.956.956 0 00.394-.788v-.75h-1.614c-.288 0-.515.081-.682.241-.166.16-.249.378-.249.653 0 .295.099.528.297.701.205.167.487.25.846.25zm3.787.586v-5.284h1.172l.692 2.027c.07.205.134.41.192.615.058.199.099.352.125.461.026-.109.064-.262.115-.461.058-.205.119-.413.183-.624l.653-2.018h1.172V108h-.836v-.817c0-.288.003-.602.01-.941l.019-1.028.039-.98c.012-.314.022-.589.028-.826l-.941 3.007h-.913l-.951-2.988c.013.288.023.647.029 1.076.013.429.022.878.029 1.345.013.468.019.913.019 1.335V108h-.836zm5.863 0v-5.284h.826v2.882c0 .186-.006.381-.019.586a8.038 8.038 0 01-.039.586c-.012.18-.028.333-.048.461l2.133-4.515h1.105V108h-.826v-2.882c0-.186.003-.381.009-.586.013-.205.029-.4.048-.586l.048-.471-2.132 4.525h-1.105zM14.903 128v-5.284h.826v2.882c0 .186-.006.381-.019.586a8.66 8.66 0 01-.038.586 6.21 6.21 0 01-.049.461l2.133-4.515h1.105V128h-.826v-2.882c0-.186.003-.381.01-.586.012-.205.028-.4.047-.586l.049-.471L16.008 128h-1.105zm11.38 0v-5.284h3.957V128h-.864v-4.496h-2.229V128h-.865zm5.67 1.729v-7.013h.864v1.009h.173l-.173.202c0-.404.132-.721.394-.951.27-.237.622-.356 1.057-.356.532 0 .954.176 1.268.529.32.345.48.823.48 1.431v1.547c0 .403-.073.752-.22 1.047a1.573 1.573 0 01-.606.682c-.256.16-.563.24-.922.24-.43 0-.778-.118-1.047-.355-.27-.237-.404-.554-.404-.951l.173.201h-.192l.02 1.201v1.537h-.865zm2.027-2.382c.365 0 .65-.109.855-.327.211-.218.317-.531.317-.941v-1.441c0-.41-.106-.724-.317-.942-.205-.218-.49-.326-.855-.326-.352 0-.634.112-.846.336-.21.224-.317.535-.317.932v1.441c0 .397.106.707.317.932.212.224.494.336.846.336zm5.66.73c-.422 0-.787-.08-1.095-.24a1.744 1.744 0 01-.72-.692c-.167-.307-.25-.669-.25-1.086v-1.402c0-.423.083-.785.25-1.086.173-.301.413-.531.72-.691.308-.161.673-.241 1.096-.241.422 0 .787.08 1.095.241.307.16.544.39.71.691.174.301.26.66.26 1.076v1.412c0 .417-.086.779-.26 1.086a1.683 1.683 0 01-.71.692c-.308.16-.673.24-1.095.24zm0-.769c.379 0 .673-.105.885-.317.21-.211.317-.522.317-.932v-1.402c0-.41-.106-.721-.317-.932-.212-.211-.506-.317-.884-.317-.372 0-.666.106-.884.317-.212.211-.317.522-.317.932v1.402c0 .41.105.721.317.932.218.212.512.317.884.317zm3.096 2.037v-2.085h.433c.109-.109.22-.323.336-.643.122-.321.186-.727.192-1.22l.058-2.681h3.449v4.544h.672v2.085h-.768V128h-3.603v1.345h-.769zm1.345-2.085h2.258v-3.775h-1.768l-.038 1.931c-.007.506-.06.916-.163 1.229-.103.314-.199.519-.289.615zm6.478.836c-.557 0-.996-.141-1.316-.423-.32-.288-.48-.675-.48-1.162 0-.493.16-.881.48-1.162.32-.282.752-.423 1.297-.423h1.633v-.529c0-.326-.1-.576-.298-.749-.192-.179-.468-.269-.826-.269-.314 0-.577.067-.788.202a.717.717 0 00-.365.528h-.865c.058-.454.273-.816.644-1.085.372-.269.836-.404 1.393-.404.608 0 1.089.157 1.441.471.352.314.528.74.528 1.278V128h-.845v-1.009h-.144l.144-.144c0 .384-.15.689-.452.913-.294.224-.688.336-1.181.336zm.211-.682c.41 0 .746-.102 1.009-.307a.957.957 0 00.394-.788v-.75h-1.614c-.288 0-.516.081-.682.241-.167.16-.25.378-.25.653 0 .295.1.528.298.701.205.167.486.25.845.25zM54 128l1.153-2.709-1.076-2.575h.836l.922 2.306h.51v-2.306h.73v2.306h.49l.95-2.306h.827l-1.076 2.546L59.419 128h-.865l-.96-2.402h-.52V128h-.73v-2.402h-.518l-.97 2.402H54zm7.938.096c-.557 0-.996-.141-1.316-.423-.32-.288-.48-.675-.48-1.162 0-.493.16-.881.48-1.162.32-.282.752-.423 1.297-.423h1.633v-.529c0-.326-.1-.576-.298-.749-.192-.179-.467-.269-.826-.269-.314 0-.576.067-.788.202a.717.717 0 00-.365.528h-.864c.057-.454.272-.816.643-1.085.372-.269.836-.404 1.393-.404.609 0 1.09.157 1.441.471.353.314.529.74.529 1.278V128h-.846v-1.009h-.144l.144-.144c0 .384-.15.689-.451.913-.295.224-.689.336-1.182.336zm.212-.682c.41 0 .746-.102 1.008-.307a.957.957 0 00.394-.788v-.75h-1.614c-.288 0-.515.081-.682.241-.166.16-.25.378-.25.653 0 .295.1.528.298.701.205.167.487.25.846.25zm3.787.586v-5.284h1.172l.692 2.027c.07.205.134.41.192.615.058.199.1.352.125.461.025-.109.064-.262.115-.461.058-.205.118-.413.182-.624l.654-2.018h1.172V128h-.836v-.817c0-.288.003-.602.01-.941l.019-1.028.038-.98c.013-.314.023-.589.03-.826l-.942 3.007h-.913l-.951-2.988c.013.288.022.647.029 1.076.013.429.022.878.029 1.345.012.468.019.913.019 1.335V128h-.836zm5.863 0v-5.284h.826v2.882c0 .186-.007.381-.02.586a8.055 8.055 0 01-.038.586c-.013.18-.029.333-.048.461l2.133-4.515h1.105V128h-.827v-2.882c0-.186.004-.381.01-.586.013-.205.029-.4.048-.586l.048-.471L72.904 128H71.8zm7.668.096c-.243 0-.439-.07-.586-.211-.14-.141-.211-.33-.211-.567 0-.25.07-.448.211-.596.147-.147.343-.221.586-.221.244 0 .436.074.577.221.147.148.22.346.22.596 0 .237-.073.426-.22.567-.141.141-.333.211-.577.211zM14.74 14V6.987h2.152c.678 0 1.216.163 1.614.49.397.32.595.759.595 1.316 0 .314-.07.586-.211.817a1.46 1.46 0 01-.577.538 1.71 1.71 0 01-.826.192v-.04c.34-.006.64.058.903.192.27.129.48.32.634.577.16.256.24.567.24.932 0 .403-.092.755-.278 1.056a1.866 1.866 0 01-.788.702c-.333.16-.733.24-1.2.24H14.74zm1.172-1h1.008c.353 0 .628-.092.827-.278.205-.192.307-.451.307-.778s-.102-.59-.307-.788c-.199-.205-.474-.307-.827-.307h-1.008v2.152zm0-3.121h.96c.32 0 .57-.084.75-.25.186-.173.278-.407.278-.701 0-.295-.092-.526-.278-.692-.18-.167-.43-.25-.75-.25h-.96V9.88zM20.439 14V8.716h1.2v2.046h1.864V8.716h1.201V14h-1.2v-2.123H21.64V14h-1.201zm7.832.096c-.448 0-.839-.086-1.172-.26a1.923 1.923 0 01-.778-.72 2.168 2.168 0 01-.27-1.095v-1.326c0-.416.09-.778.27-1.085.185-.314.445-.557.778-.73.333-.173.724-.26 1.172-.26.442 0 .826.087 1.153.26.333.173.589.416.768.73.186.307.279.669.279 1.085v.951h-3.257v.375c0 .371.09.653.27.845.178.186.444.279.796.279.27 0 .487-.045.654-.134a.642.642 0 00.317-.414h1.181c-.09.455-.333.82-.73 1.096-.39.269-.868.403-1.431.403zm1.037-3.122v-.288c0-.365-.086-.644-.259-.836-.173-.199-.432-.298-.778-.298-.346 0-.608.1-.788.298-.18.198-.269.48-.269.845v.202l2.18-.02-.085.097zm2.001 4.37v-2.362h.356c.108-.11.22-.308.336-.596.122-.294.186-.66.192-1.095l.058-2.575h3.698v4.266h.625v2.363h-1.105V14h-3.055v1.345h-1.105zm1.576-2.362h1.921V9.763h-1.441l-.038 1.528c-.007.429-.061.79-.164 1.085-.096.289-.189.49-.278.606zm4.613 2.747V8.716h1.172v1.009h.27l-.27.279c0-.43.128-.766.385-1.01.256-.249.602-.374 1.037-.374.532 0 .958.183 1.278.548.32.365.48.855.48 1.47v1.431c0 .41-.074.769-.22 1.076a1.625 1.625 0 01-.606.701 1.7 1.7 0 01-.932.25c-.435 0-.781-.122-1.037-.365-.257-.25-.385-.59-.385-1.018l.27.278h-.28l.04 1.259v1.48h-1.202zm2.172-2.67c.307 0 .547-.09.72-.27.173-.179.26-.435.26-.768v-1.326c0-.333-.087-.589-.26-.768-.173-.18-.413-.27-.72-.27-.302 0-.538.094-.711.28-.173.179-.26.432-.26.758v1.326c0 .327.087.583.26.769.172.179.41.269.71.269zm5.67 1.037c-.448 0-.84-.086-1.172-.26a1.923 1.923 0 01-.778-.72 2.17 2.17 0 01-.27-1.095v-1.326c0-.416.09-.778.27-1.085.185-.314.445-.557.778-.73.333-.173.724-.26 1.172-.26.442 0 .826.087 1.153.26.333.173.589.416.768.73.186.307.279.669.279 1.085v.951h-3.257v.375c0 .371.09.653.27.845.178.186.444.279.797.279.268 0 .486-.045.653-.134a.642.642 0 00.317-.414h1.18c-.09.455-.333.82-.73 1.096-.39.269-.867.403-1.431.403zm1.037-3.122v-.288c0-.365-.086-.644-.259-.836-.173-.199-.432-.298-.778-.298-.346 0-.609.1-.788.298-.18.198-.269.48-.269.845v.202l2.18-.02-.086.097zM48.887 14V8.716h1.201v2.046h1.864V8.716h1.2V14h-1.2v-2.123h-1.864V14h-1.2zm5.69 0V8.716h1.086v2.604c0 .166-.01.365-.03.595-.012.225-.031.445-.057.663-.026.218-.051.407-.077.567l1.864-4.429h1.48V14h-1.086v-2.603c0-.173.006-.366.019-.577.02-.211.038-.42.058-.624.025-.205.05-.378.076-.519L56.056 14h-1.48zm7.832.096c-.448 0-.84-.086-1.172-.26a1.923 1.923 0 01-.778-.72 2.17 2.17 0 01-.27-1.095v-1.326c0-.416.09-.778.27-1.085.185-.314.445-.557.778-.73.333-.173.724-.26 1.172-.26.442 0 .826.087 1.153.26.333.173.589.416.768.73.186.307.279.669.279 1.085v.951h-3.257v.375c0 .371.09.653.27.845.178.186.444.279.797.279.269 0 .486-.045.653-.134a.642.642 0 00.317-.414h1.181c-.09.455-.333.82-.73 1.096-.39.269-.868.403-1.431.403zm1.037-3.122v-.288c0-.365-.086-.644-.259-.836-.173-.199-.432-.298-.778-.298-.346 0-.609.1-.788.298-.18.198-.269.48-.269.845v.202l2.18-.02-.086.097zm10.371 3.122c-.448 0-.842-.083-1.182-.25a1.923 1.923 0 01-.778-.72c-.18-.314-.269-.682-.269-1.105V8.966c0-.429.09-.797.27-1.105.185-.307.444-.544.777-.71.34-.174.734-.26 1.182-.26.455 0 .845.086 1.172.26.333.166.592.403.778.71.186.308.279.676.279 1.105h-1.21c0-.333-.09-.586-.27-.759-.173-.173-.422-.26-.749-.26s-.58.087-.759.26c-.18.173-.269.423-.269.75v3.064c0 .327.09.58.27.759.178.173.431.26.758.26s.576-.087.75-.26c.179-.18.268-.432.268-.759h1.21c0 .416-.092.781-.278 1.095a1.903 1.903 0 01-.778.73c-.327.167-.717.25-1.172.25zm3.5-.096V6.987h2.219c.467 0 .87.087 1.21.26.346.172.615.416.807.73.192.307.288.672.288 1.095 0 .46-.118.868-.355 1.22-.23.352-.545.602-.942.75L81.937 14h-1.345l-1.22-2.786h-.855V14h-1.2zm1.2-3.843h1.019c.339 0 .605-.093.797-.278.192-.186.288-.442.288-.769 0-.333-.096-.592-.288-.778-.192-.192-.458-.288-.797-.288h-1.019v2.113zM82.814 14V6.987h1.422l.682 2.229c.07.224.128.429.173.615.044.185.073.32.086.403a5.51 5.51 0 01.087-.403c.044-.186.099-.391.163-.615l.653-2.229h1.422V14h-1.124v-2.18c0-.321.01-.67.029-1.048.019-.378.041-.756.067-1.133.026-.378.054-.737.087-1.076.038-.34.07-.638.095-.894l-.94 3.314H84.62l-.97-3.314a35.462 35.462 0 01.182 1.921c.032.372.058.75.077 1.134.02.384.029.75.029 1.095V14h-1.124zm6.497-2.613v-1.114h3.074v1.114H89.31zm7.245 2.71c-.448 0-.842-.084-1.181-.25a1.923 1.923 0 01-.778-.721c-.186-.314-.279-.682-.279-1.105v-1.326c0-.429.093-.797.279-1.104.185-.308.445-.545.778-.711.34-.173.733-.26 1.181-.26.666 0 1.198.173 1.595.519.397.34.605.804.625 1.393h-1.201c-.02-.275-.119-.487-.298-.634-.173-.154-.413-.23-.72-.23-.32 0-.574.089-.76.268-.185.173-.278.423-.278.75v1.335c0 .327.093.58.278.759.186.18.44.269.76.269.307 0 .547-.074.72-.221.18-.154.278-.368.298-.644h1.2c-.019.59-.227 1.057-.624 1.403-.397.34-.928.51-1.595.51zm3.538-.097V8.716h1.086v2.604c0 .166-.01.365-.029.595a12.385 12.385 0 01-.135 1.23l1.864-4.429h1.48V14h-1.086v-2.603c0-.173.006-.366.019-.577l.058-.624c.025-.205.051-.378.077-.519L101.574 14h-1.48zm7.842.096c-.449 0-.842-.083-1.182-.25a1.925 1.925 0 01-.778-.72c-.186-.314-.279-.682-.279-1.105v-1.326c0-.429.093-.797.279-1.104a1.86 1.86 0 01.778-.711 2.57 2.57 0 011.182-.26c.666 0 1.197.173 1.594.519.398.34.606.804.625 1.393h-1.201c-.019-.275-.118-.487-.298-.634-.173-.154-.413-.23-.72-.23-.321 0-.573.089-.759.268-.186.173-.279.423-.279.75v1.335c0 .327.093.58.279.759.186.18.438.269.759.269.307 0 .547-.074.72-.221.18-.154.279-.368.298-.644h1.201c-.019.59-.227 1.057-.625 1.403-.397.34-.928.51-1.594.51zm5.065-.096V9.821h-1.806V8.716h4.822v1.105h-1.806V14h-1.21zm6.304.096c-.448 0-.839-.086-1.172-.26a1.925 1.925 0 01-.778-.72 2.172 2.172 0 01-.269-1.095v-1.326c0-.416.09-.778.269-1.085.186-.314.445-.557.778-.73.333-.173.724-.26 1.172-.26.442 0 .827.087 1.153.26.333.173.589.416.769.73.185.307.278.669.278 1.085v.951h-3.256v.375c0 .371.089.653.269.845.179.186.445.279.797.279.269 0 .487-.045.653-.134a.64.64 0 00.317-.414h1.182c-.09.455-.333.82-.73 1.096-.391.269-.868.403-1.432.403zm1.038-3.122v-.288c0-.365-.087-.644-.259-.836-.173-.199-.433-.298-.779-.298-.345 0-.608.1-.787.298-.18.198-.269.48-.269.845v.202l2.18-.02-.086.097zM122.641 14V8.716h1.441l.654 1.989c.07.218.128.423.173.615.051.192.083.336.096.432l.086-.432a7.93 7.93 0 01.173-.615l.624-1.989h1.442V14h-1.115v-.903a41.312 41.312 0 01.039-1.71c.012-.314.025-.612.038-.893l.048-.76-.797 2.739h-1.096l-.826-2.729c.02.27.039.602.058 1a39.412 39.412 0 01.077 2.354V14h-1.115zm5.632 0V8.716h1.038v1.787h.355c.57 0 1.022.16 1.355.48.333.32.5.75.5 1.288 0 .525-.17.944-.51 1.258-.333.314-.781.471-1.345.471h-1.393zm1.038-.932h.355c.276 0 .487-.07.634-.211.154-.141.231-.336.231-.586 0-.263-.077-.468-.231-.615-.147-.147-.358-.221-.634-.221h-.355v1.633zm2.728.932V8.716h1.038V14h-1.038zM16.277 28v-2.546l-2.056-4.467h1.258l1.096 2.43a5.61 5.61 0 01.326 1c.026-.103.064-.247.116-.433a5.61 5.61 0 01.21-.566l1.067-2.43h1.25l-2.057 4.466V28h-1.21zm6.333.096c-.448 0-.842-.083-1.181-.25a1.923 1.923 0 01-.779-.72c-.179-.314-.269-.682-.269-1.105v-3.055c0-.429.09-.797.27-1.105.185-.307.444-.544.777-.71.34-.174.734-.26 1.182-.26.455 0 .846.087 1.172.26.333.166.593.403.778.71.186.308.279.676.279 1.105h-1.21c0-.333-.09-.586-.27-.759-.173-.173-.422-.26-.749-.26-.326 0-.58.087-.759.26-.18.173-.269.423-.269.75v3.064c0 .327.09.58.27.759.178.173.431.26.758.26s.576-.087.75-.26c.179-.18.268-.432.268-.759h1.21c0 .416-.092.781-.278 1.095a1.903 1.903 0 01-.778.73c-.326.167-.717.25-1.172.25zM29.068 28a1.9 1.9 0 01-.912-.211 1.546 1.546 0 01-.606-.596 1.814 1.814 0 01-.22-.903v-4.217h-1.691v-1.086h2.891v5.303c0 .192.055.346.164.461a.644.644 0 00.46.163h1.596V28h-1.682zm2.731 0v-1.095h1.845v-3.103h-1.605v-1.086h2.757v4.189h1.633V28H31.8zm2.325-6.168c-.244 0-.436-.06-.577-.182a.655.655 0 01-.21-.51c0-.21.07-.377.21-.499.141-.128.334-.192.577-.192.243 0 .435.064.576.192a.626.626 0 01.212.5c0 .211-.07.38-.212.509-.14.122-.333.183-.576.183zm5.526 6.264c-.448 0-.839-.086-1.172-.26a1.923 1.923 0 01-.778-.72 2.17 2.17 0 01-.269-1.095v-1.326c0-.416.09-.778.27-1.085.185-.314.444-.558.777-.73.333-.173.724-.26 1.172-.26.442 0 .826.087 1.153.26.333.172.59.416.769.73.185.307.278.669.278 1.085v.951h-3.257v.375c0 .371.09.653.27.845.179.186.445.279.797.279.269 0 .487-.045.653-.134a.642.642 0 00.317-.414h1.182c-.09.455-.333.82-.73 1.096-.391.269-.868.403-1.432.403zm1.038-3.122v-.288c0-.365-.087-.644-.26-.836-.172-.199-.432-.298-.778-.298-.346 0-.608.1-.788.298-.179.198-.269.48-.269.845v.202l2.181-.02-.086.097zm2.5 3.026v-5.284h1.172v1.009h.327l-.327.279c0-.436.125-.775.375-1.019.256-.243.605-.365 1.047-.365.519 0 .932.173 1.24.519.313.346.47.81.47 1.393V28H46.29v-3.343c0-.32-.083-.567-.25-.74-.166-.173-.4-.26-.701-.26-.295 0-.529.09-.701.27-.167.18-.25.435-.25.768V28h-1.201zm8.408 0c-.506 0-.903-.14-1.19-.423-.283-.282-.424-.669-.424-1.162v-2.613h-1.431v-1.086h1.431v-1.489h1.21v1.49h2.028v1.085h-2.027v2.613c0 .333.163.5.49.5h1.44V28h-1.527zm4.912.087c-.404 0-.756-.065-1.057-.193a1.73 1.73 0 01-.71-.528 1.45 1.45 0 01-.27-.807h1.201a.523.523 0 00.24.403c.154.103.352.154.596.154h.423c.294 0 .515-.058.662-.173a.566.566 0 00.221-.47.512.512 0 00-.201-.433c-.129-.109-.33-.18-.606-.211l-.653-.096c-.602-.083-1.044-.244-1.326-.48-.281-.238-.422-.593-.422-1.067 0-.493.166-.874.5-1.143.332-.276.822-.413 1.47-.413h.364c.59 0 1.06.131 1.412.394.353.262.542.614.567 1.056h-1.2a.48.48 0 00-.24-.345c-.135-.09-.315-.135-.539-.135h-.365c-.275 0-.477.051-.605.154-.122.096-.183.24-.183.432 0 .18.055.314.164.404.108.083.285.144.528.182l.682.096c.628.09 1.089.26 1.383.51.302.243.452.605.452 1.085 0 .512-.176.913-.528 1.2-.346.283-.859.424-1.537.424h-.423zM65.956 28v-5.284h1.086v2.604c0 .166-.01.365-.029.595a13.998 13.998 0 01-.135 1.23l1.864-4.429h1.48V28h-1.086v-2.603c0-.173.007-.365.02-.577.018-.211.038-.42.057-.624.026-.205.051-.378.077-.519L67.436 28h-1.48zm11.38 0v-5.284h1.085v2.604c0 .166-.01.365-.029.595a11.758 11.758 0 01-.134 1.23l1.864-4.429H81.6V28h-1.086v-2.603c0-.173.007-.365.02-.577l.057-.624c.026-.205.051-.378.077-.519L78.815 28h-1.48zm5.69 0v-5.284h1.2v2.046h1.864v-2.046h1.2V28h-1.2v-2.123h-1.864V28h-1.2zm7.216 0v-4.179h-1.806v-1.105h4.823v1.105h-1.806V28h-1.21zm6.305.096c-.448 0-.84-.086-1.172-.26a1.923 1.923 0 01-.778-.72 2.17 2.17 0 01-.27-1.095v-1.326c0-.416.09-.778.27-1.085a1.89 1.89 0 01.778-.73c.333-.173.724-.26 1.172-.26.442 0 .826.087 1.153.26.333.172.589.416.768.73.186.307.279.669.279 1.085v.951H95.49v.375c0 .371.09.653.269.845.18.186.445.279.797.279.27 0 .487-.045.654-.134a.642.642 0 00.317-.414h1.181c-.09.455-.333.82-.73 1.096-.39.269-.868.403-1.431.403zm1.037-3.122v-.288c0-.365-.086-.644-.26-.836-.172-.199-.431-.298-.777-.298-.346 0-.609.1-.788.298-.18.198-.269.48-.269.845v.202l2.18-.02-.086.097zM100.507 28v-5.284h3.939v1.115h-2.738V28h-1.201zm5.267 1.73v-7.014h1.172v1.009h.269l-.269.279c0-.43.128-.766.384-1.01.257-.249.603-.374 1.038-.374.532 0 .957.183 1.278.548.32.365.48.855.48 1.47v1.431c0 .41-.074.769-.221 1.076a1.626 1.626 0 01-.605.701 1.7 1.7 0 01-.932.25c-.435 0-.781-.122-1.038-.365-.256-.25-.384-.59-.384-1.018l.269.278h-.278l.038 1.259v1.48h-1.201zm2.171-2.672c.308 0 .548-.09.721-.268.173-.18.259-.436.259-.769v-1.326c0-.333-.086-.589-.259-.768-.173-.18-.413-.27-.721-.27-.301 0-.538.094-.711.28-.173.179-.259.432-.259.758v1.326c0 .327.086.583.259.769.173.179.41.268.711.268zm5.075 1.038c-.544 0-.973-.144-1.287-.432-.314-.288-.471-.676-.471-1.163 0-.518.173-.919.519-1.2.346-.282.836-.423 1.47-.423h1.316v-.452c0-.256-.083-.454-.25-.595-.166-.148-.394-.221-.682-.221-.263 0-.48.057-.653.173a.676.676 0 00-.308.47h-1.172c.058-.5.282-.896.673-1.19.39-.296.89-.443 1.498-.443.647 0 1.156.163 1.528.49.378.32.567.756.567 1.307V28h-1.163v-.922h-.192l.192-.26c0 .391-.144.702-.432.932-.288.23-.673.346-1.153.346zm.394-.903c.339 0 .615-.086.826-.26a.82.82 0 00.327-.672v-.643h-1.297c-.243 0-.439.07-.586.21a.737.737 0 00-.221.558c0 .25.083.448.25.596.173.14.406.211.701.211zm7.4 2.152V28h-3.651v-5.284h1.201v4.18h1.633v-4.18h1.201v4.18h.72v2.449h-1.104zM122.853 28v-5.284h1.085v2.604c0 .166-.009.365-.028.595a13.964 13.964 0 01-.135 1.23l1.864-4.429h1.479V28h-1.085v-2.603c0-.173.006-.365.019-.577l.057-.624c.026-.205.052-.378.077-.519L124.332 28h-1.479zm5.459 0l1.239-1.931a1.65 1.65 0 01-.855-.586 1.61 1.61 0 01-.307-.99c0-.557.185-.992.557-1.306.371-.314.884-.47 1.537-.47h2.325V28h-1.191v-1.797h-.855L129.686 28h-1.374zm2.219-2.757h1.086v-1.537h-1.086c-.295 0-.525.067-.692.201-.166.135-.249.327-.249.577 0 .237.083.423.249.557.167.135.397.202.692.202zM16.901 42.096c-.448 0-.842-.083-1.181-.25a1.923 1.923 0 01-.779-.72c-.185-.314-.278-.682-.278-1.105v-1.326c0-.429.093-.797.278-1.105a1.86 1.86 0 01.779-.71c.339-.173.733-.26 1.181-.26.666 0 1.198.173 1.595.519.397.34.605.804.624 1.393h-1.2c-.02-.275-.119-.487-.298-.634-.173-.154-.413-.23-.72-.23-.321 0-.574.089-.76.268-.185.173-.278.423-.278.75v1.335c0 .327.093.58.278.759.186.18.439.269.76.269.307 0 .547-.074.72-.221.18-.154.278-.368.298-.644h1.2c-.019.59-.227 1.057-.624 1.403-.397.34-.929.51-1.595.51zM25.715 42l1.768-7.013h1.547L30.807 42h-1.23l-.384-1.7H27.33l-.384 1.7h-1.23zm1.835-2.68h1.422l-.423-1.883a47.22 47.22 0 01-.182-.846 19.948 19.948 0 01-.106-.557 18.73 18.73 0 01-.105.557c-.045.25-.106.529-.183.836l-.423 1.893zM31.568 42v-5.284h.98v.711h.202l-.163.173c0-.294.083-.532.25-.71a.839.839 0 01.643-.27c.282 0 .5.116.654.346.16.23.24.541.24.932l-.212-.47h.327l-.125.172c0-.294.083-.532.25-.71.166-.18.387-.27.663-.27a.94.94 0 01.778.365c.192.244.288.574.288.99V42h-1.057v-3.977c0-.173-.038-.308-.115-.404a.394.394 0 00-.336-.153.422.422 0 00-.336.144c-.077.096-.116.233-.116.413V42h-.864v-3.977c0-.18-.039-.317-.116-.413-.076-.096-.188-.144-.336-.144-.147 0-.26.048-.336.144-.07.096-.106.233-.106.413V42H31.57zm8.073.087c-.449 0-.84-.084-1.172-.25a1.938 1.938 0 01-.769-.72c-.18-.315-.269-.683-.269-1.106v-1.306c0-.423.09-.788.27-1.095a1.84 1.84 0 01.768-.72c.333-.174.723-.26 1.172-.26.454 0 .845.086 1.172.26.326.166.58.406.759.72.185.307.278.669.278 1.085v1.316c0 .423-.093.791-.278 1.105-.18.308-.433.548-.76.72-.326.167-.717.25-1.171.25zm0-1.048c.32 0 .566-.086.74-.26.179-.178.268-.435.268-.768v-1.306c0-.34-.09-.596-.269-.769-.173-.173-.42-.259-.74-.259-.313 0-.56.086-.74.26-.178.172-.268.428-.268.768v1.306c0 .333.09.59.269.769.18.173.426.26.74.26zm5.728 1.057c-.449 0-.843-.083-1.182-.25a1.924 1.924 0 01-.778-.72c-.18-.314-.269-.682-.269-1.105v-3.055c0-.429.09-.797.269-1.105a1.86 1.86 0 01.778-.71c.34-.174.733-.26 1.182-.26.454 0 .845.087 1.172.26.333.166.592.403.778.71.186.308.278.676.278 1.105h-1.21c0-.333-.09-.586-.269-.759-.173-.173-.423-.26-.75-.26-.326 0-.579.087-.758.26-.18.173-.27.423-.27.75v3.064c0 .327.09.58.27.759.18.173.432.26.759.26.326 0 .576-.087.749-.26.18-.18.269-.432.269-.759h1.21c0 .416-.092.781-.278 1.095a1.902 1.902 0 01-.778.73c-.327.167-.718.25-1.172.25zM48.868 42v-7.013h2.22c.467 0 .87.087 1.21.26.346.172.614.416.807.73.192.307.288.672.288 1.095 0 .46-.119.868-.356 1.22a1.88 1.88 0 01-.941.75L53.489 42h-1.345l-1.22-2.786h-.855V42h-1.201zm1.2-3.843h1.02c.339 0 .604-.093.797-.278.192-.186.288-.442.288-.769 0-.333-.096-.592-.288-.778-.193-.192-.458-.288-.798-.288H50.07v2.113zM54.367 42v-7.013h1.421l.682 2.229c.07.224.128.429.173.615.045.185.074.32.087.403.013-.083.041-.218.086-.403.045-.186.1-.391.164-.615l.653-2.229h1.422V42H57.93v-2.18c0-.321.01-.67.029-1.048.019-.378.041-.756.067-1.133.025-.378.054-.737.086-1.076.039-.34.07-.638.096-.894l-.941 3.315h-1.095l-.97-3.315a35.426 35.426 0 01.183 1.921c.03.372.056.75.076 1.134.019.384.029.75.029 1.095V42h-1.124zm8.033-3.766c-.269 0-.486-.074-.653-.22a.777.777 0 01-.24-.587.76.76 0 01.24-.586c.166-.147.384-.22.653-.22.27 0 .484.073.644.22.166.148.25.343.25.586a.763.763 0 01-.25.586c-.16.148-.375.221-.644.221zm0 3.862c-.269 0-.486-.074-.653-.22a.758.758 0 01-.24-.587c0-.243.08-.439.24-.586.166-.147.384-.22.653-.22.27 0 .484.073.644.22.166.147.25.343.25.586a.744.744 0 01-.25.586c-.16.147-.375.221-.644.221z" fill="#000"/><defs><filter id="filter0_d_394_1221" x=".157" y="0" width="179.646" height="178.685" filterUnits="userSpaceOnUse" color-interpolation-filters="sRGB"><feFlood flood-opacity="0" result="BackgroundImageFix"/><feColorMatrix in="SourceAlpha" values="0 0 0 0 0 0 0 0 0 0 0 0 0 0 0 0 0 0 127 0" result="hardAlpha"/><feOffset dy="3.843"/><feGaussianBlur stdDeviation="1.921"/><feComposite in2="hardAlpha" operator="out"/><feColorMatrix values="0 0 0 0 0 0 0 0 0 0 0 0 0 0 0 0 0 0 0.25 0"/><feBlend in2="BackgroundImageFix" result="effect1_dropShadow_394_1221"/><feBlend in="SourceGraphic" in2="effect1_dropShadow_394_1221" result="shape"/></filter></defs></svg>