<svg width="181" height="179" fill="none" xmlns="http://www.w3.org/2000/svg"><g filter="url(#filter0_d_394_1361)"><rect x="4.646" width="171.961" height="171" rx="16.011" fill="#E1EDE4"/></g><mask id="a" style="mask-type:alpha" maskUnits="userSpaceOnUse" x="4" y="0" width="173" height="49"><path fill="#C9D9CD" d="M4.646 0h171.961v49H4.646z"/></mask><g mask="url(#a)"><rect x="4.646" y="-1.959" width="171.961" height="137.2" rx="16.011" fill="#C09F6D"/></g><path d="M16.883 70.096c-.423 0-.788-.08-1.096-.24a1.697 1.697 0 01-.7-.692c-.161-.307-.241-.67-.241-1.085v-3.17c0-.423.08-.785.24-1.086a1.7 1.7 0 01.701-.692c.308-.16.673-.24 1.095-.24.423 0 .785.08 1.086.24.308.16.541.39.701.692.167.3.25.66.25 1.076v3.18c0 .416-.083.778-.25 1.085-.16.301-.393.532-.7.692-.302.16-.664.24-1.087.24zm0-.778c.377 0 .666-.106.864-.317.205-.218.308-.525.308-.922v-3.17c0-.398-.103-.702-.308-.913-.198-.218-.487-.327-.864-.327-.372 0-.66.109-.865.327-.205.211-.308.515-.308.912v3.17c0 .398.103.705.308.923.205.211.493.317.864.317zm5.69.778c-.622 0-1.115-.183-1.48-.547-.359-.372-.538-.878-.538-1.518v-2.402c0-.846.211-1.496.634-1.95.422-.461 1.028-.692 1.816-.692h1.344v.865h-1.345c-.518 0-.912.153-1.181.46-.27.302-.404.74-.404 1.317v.624h.135l-.135.192c.007-.377.135-.672.385-.883.25-.212.589-.317 1.018-.317.557 0 .99.179 1.297.538.314.358.47.851.47 1.48v.768c0 .429-.08.797-.24 1.104-.16.308-.39.545-.691.711-.301.167-.663.25-1.086.25zm0-.769c.37 0 .656-.112.854-.336.199-.224.298-.544.298-.96v-.769c0-.416-.1-.736-.298-.96-.198-.225-.483-.337-.855-.337-.371 0-.656.112-.855.336-.198.218-.298.538-.298.961v.769c0 .416.1.736.298.96.199.224.484.337.855.337zm5.689.77c-.416 0-.782-.084-1.095-.25a1.808 1.808 0 01-.72-.702 2.204 2.204 0 01-.25-1.066v-1.441c0-.41.083-.766.25-1.067.172-.3.412-.534.72-.701.313-.166.678-.25 1.095-.25.416 0 .778.084 1.085.25.314.166.554.4.72.701.174.301.26.657.26 1.067v.931h-3.285v.51c0 .416.105.736.317.96.211.218.512.327.903.327.333 0 .602-.058.807-.173a.763.763 0 00.374-.538h.865a1.472 1.472 0 01-.653 1.057c-.372.256-.836.384-1.393.384zm1.22-3.104v-.355c0-.417-.106-.737-.317-.961-.205-.224-.506-.336-.903-.336-.39 0-.692.112-.903.336-.212.224-.317.544-.317.96v.28h2.507l-.067.076zm4.489 3.103c-.423 0-.794-.08-1.115-.24a1.73 1.73 0 01-.73-.692c-.173-.307-.26-.67-.26-1.085v-1.441c0-.423.087-.785.26-1.086a1.73 1.73 0 01.73-.692c.32-.16.692-.24 1.115-.24.608 0 1.098.163 1.47.49.371.327.566.772.585 1.335h-.864c-.02-.339-.135-.598-.346-.778-.205-.185-.487-.278-.845-.278-.378 0-.68.109-.903.326-.224.212-.337.516-.337.913v1.45c0 .398.112.705.337.923.224.218.525.326.903.326.358 0 .64-.092.845-.278.211-.186.327-.445.346-.778h.864c-.019.563-.214 1.008-.586 1.335-.37.327-.86.49-1.47.49zM37.662 70v-5.284h3.958V70h-.864v-4.496h-2.23V70h-.864zm7.669.096c-.417 0-.782-.083-1.095-.25a1.807 1.807 0 01-.72-.701 2.204 2.204 0 01-.25-1.066v-1.441c0-.41.083-.766.25-1.067.172-.3.412-.534.72-.701.313-.166.678-.25 1.095-.25.416 0 .778.084 1.085.25.314.166.554.4.72.701.174.301.26.657.26 1.067v.931h-3.285v.51c0 .416.105.736.317.96.211.218.512.327.903.327.333 0 .602-.058.807-.173a.763.763 0 00.374-.538h.865a1.472 1.472 0 01-.653 1.057c-.372.256-.836.384-1.393.384zm1.22-3.103v-.355c0-.417-.106-.737-.317-.961-.205-.224-.506-.336-.903-.336-.39 0-.692.112-.903.336-.212.224-.317.544-.317.96v.28h2.507l-.067.076zM52.077 70v-1.921c-.102.025-.26.05-.47.077a7.121 7.121 0 01-.654.028c-.653.007-1.162-.15-1.527-.47-.359-.327-.538-.782-.538-1.365v-1.633h.864v1.633c0 .327.11.586.327.779.224.185.532.278.922.278.27 0 .497-.01.682-.029a3.59 3.59 0 00.394-.067v-2.594h.865V70h-.865zm2.654 0v-5.284h.826v2.882c0 .186-.006.381-.019.586-.006.205-.02.4-.038.586a6.1 6.1 0 01-.048.462l2.132-4.516h1.105V70h-.826v-2.882c0-.186.003-.381.01-.586.012-.205.028-.4.047-.586l.049-.47L55.836 70H54.73zm5.027.067v-.807h.173c.294 0 .5-.115.615-.346.121-.23.185-.643.192-1.239l.057-2.959h3.584V70h-.865v-4.496H61.65l-.048 2.21c-.012.557-.076 1.008-.192 1.354-.109.346-.281.599-.518.76-.231.16-.535.24-.913.24h-.221zM66.11 70v-5.284h.827v2.882c0 .186-.007.381-.02.586-.006.205-.019.4-.038.586a6.36 6.36 0 01-.048.462l2.133-4.516h1.104V70h-.826v-2.882c0-.186.003-.381.01-.586.013-.205.029-.4.048-.586l.048-.47L67.215 70H66.11zm12.187 1.73l.778-2.057-1.96-4.957h.96l1.23 3.267c.045.108.087.24.125.393.039.148.07.273.096.375l.096-.375c.039-.153.077-.285.116-.393l1.153-3.267h.931L79.22 71.73h-.922zm4.267-.385V69.26h.433c.109-.109.22-.323.336-.643.122-.32.186-.727.192-1.22l.058-2.68h3.449v4.543h.672v2.085h-.768V70h-3.603v1.345h-.769zm1.346-2.085h2.257v-3.775H84.4l-.038 1.93c-.006.507-.06.917-.163 1.23-.103.314-.199.52-.288.615zm6.938.817c-.423 0-.788-.08-1.095-.24a1.743 1.743 0 01-.72-.692c-.167-.307-.25-.67-.25-1.086v-1.402c0-.423.083-.785.25-1.086.172-.3.412-.531.72-.691.307-.16.672-.24 1.095-.24.423 0 .788.08 1.095.24.308.16.545.39.711.691.173.301.26.66.26 1.076v1.412c0 .417-.087.779-.26 1.086a1.683 1.683 0 01-.71.692c-.308.16-.673.24-1.096.24zm0-.769c.378 0 .672-.105.884-.317.211-.211.317-.522.317-.932v-1.402c0-.41-.106-.72-.317-.932-.212-.211-.506-.317-.884-.317-.371 0-.666.106-.884.317-.211.211-.317.522-.317.932v1.402c0 .41.106.72.317.932.218.212.513.317.884.317zm5.69.788c-.622 0-1.115-.183-1.48-.547-.358-.372-.538-.878-.538-1.518v-2.402c0-.846.212-1.496.634-1.95.423-.461 1.028-.692 1.816-.692h1.345v.865H96.97c-.519 0-.913.153-1.182.46-.269.302-.403.74-.403 1.317v.624h.134l-.134.192c.006-.377.134-.672.384-.883.25-.212.59-.317 1.018-.317.558 0 .99.179 1.297.538.314.358.471.851.471 1.48v.768c0 .429-.08.797-.24 1.104-.16.308-.39.545-.692.711-.3.167-.663.25-1.085.25zm0-.769c.371 0 .656-.112.855-.336.198-.224.297-.544.297-.96v-.769c0-.416-.099-.736-.297-.96-.199-.225-.484-.337-.855-.337-.372 0-.657.112-.855.336-.199.218-.298.538-.298.961v.769c0 .416.1.736.298.96.198.224.483.337.855.337zm5.709.77c-.423 0-.795-.081-1.115-.241a1.73 1.73 0 01-.73-.692c-.173-.307-.259-.67-.259-1.085v-1.441c0-.423.086-.785.259-1.086a1.73 1.73 0 01.73-.692c.32-.16.692-.24 1.115-.24.608 0 1.098.163 1.469.49.372.327.567.772.586 1.335h-.864c-.019-.339-.135-.598-.346-.778-.205-.185-.487-.278-.845-.278-.378 0-.679.109-.903.326-.225.212-.337.516-.337.913v1.45c0 .398.112.705.337.923.224.218.525.326.903.326.358 0 .64-.092.845-.278.211-.186.327-.445.346-.778h.864c-.019.563-.214 1.008-.586 1.335-.371.327-.861.49-1.469.49zm5.238-.097v-4.525h-1.922v-.759h4.708v.76h-1.922V70h-.864zm4.143 0v-5.284h2.286c.551 0 .977.125 1.278.375.301.243.451.586.451 1.028 0 .365-.125.66-.374.884-.25.217-.58.326-.99.326v-.076c.448 0 .807.112 1.076.336.275.224.413.525.413.903 0 .474-.16.845-.48 1.114-.32.263-.769.394-1.345.394h-2.315zm.845-.759h1.47c.307 0 .544-.067.711-.202.173-.134.259-.323.259-.567 0-.25-.086-.441-.259-.576-.167-.134-.404-.202-.711-.202h-1.47v1.547zm0-2.296h1.441c.269 0 .48-.064.634-.192.16-.128.24-.308.24-.538 0-.23-.077-.41-.23-.538-.154-.135-.369-.202-.644-.202h-1.441v1.47zm6.823 3.132c-.422 0-.787-.08-1.095-.24a1.745 1.745 0 01-.72-.692c-.167-.307-.25-.67-.25-1.086v-1.402c0-.423.083-.785.25-1.086.173-.3.413-.531.72-.691.308-.16.673-.24 1.095-.24.423 0 .788.08 1.095.24.308.16.545.39.711.691.173.301.26.66.26 1.076v1.412c0 .417-.087.779-.26 1.086a1.677 1.677 0 01-.711.692c-.307.16-.672.24-1.095.24zm0-.769c.378 0 .673-.105.884-.317.211-.211.317-.522.317-.932v-1.402c0-.41-.106-.72-.317-.932-.211-.211-.506-.317-.884-.317-.371 0-.666.106-.884.317-.211.211-.317.522-.317.932v1.402c0 .41.106.72.317.932.218.212.513.317.884.317zm8.786 2.037V69.26h.432c.109-.109.221-.323.336-.643.122-.32.186-.727.192-1.22l.058-2.68h3.449v4.543h.672v2.085h-.768V70h-3.603v1.345h-.768zm1.345-2.085h2.257v-3.775h-1.767l-.039 1.93c-.006.507-.061.917-.163 1.23-.103.314-.199.52-.288.615zm4.296.807v-.807h.173c.295 0 .5-.115.615-.346.122-.23.186-.643.192-1.239l.058-2.959h3.583V70h-.864v-4.496h-1.864l-.048 2.21c-.013.557-.077 1.008-.192 1.354-.109.346-.282.599-.519.76-.231.16-.535.24-.913.24h-.221zm6.026-.067l1.355-2.037c-.404-.096-.717-.281-.942-.557-.217-.275-.326-.618-.326-1.028 0-.519.169-.925.509-1.22.346-.294.816-.442 1.412-.442h2.277V70h-.865v-1.97h-1.162L140.758 70h-1.009zm2.008-2.738h1.412v-1.777h-1.412c-.32 0-.573.08-.759.24-.186.154-.278.372-.278.653 0 .276.092.493.278.653.186.154.439.231.759.231zM14.932 89v-5.284h.865v2.181h.903l1.537-2.18h.99l-1.778 2.516L19.255 89h-1.008l-1.537-2.354h-.913V89h-.865zm4.998.067v-.807h.173c.295 0 .5-.115.615-.346.122-.23.186-.643.192-1.239l.058-2.959h3.583V89h-.864v-4.496h-1.864l-.048 2.21c-.013.557-.077 1.008-.192 1.354-.11.346-.282.599-.52.76-.23.16-.534.24-.912.24h-.22zM26.283 89v-5.284h.826v2.882c0 .186-.006.381-.02.586-.006.205-.018.4-.038.586-.012.18-.028.333-.048.462l2.133-4.516h1.105V89h-.826v-2.882c0-.186.003-.381.01-.586.012-.205.028-.4.047-.586l.048-.47L27.388 89h-1.105zm7.669.096c-.417 0-.782-.083-1.096-.25a1.807 1.807 0 01-.72-.701 2.204 2.204 0 01-.25-1.066v-1.441c0-.41.083-.766.25-1.067.173-.3.413-.534.72-.701.314-.166.68-.25 1.096-.25.416 0 .778.084 1.085.25.314.166.554.4.72.701.174.301.26.657.26 1.067v.931H32.73v.51c0 .416.106.736.317.96.212.218.513.327.904.327.333 0 .602-.058.806-.173a.763.763 0 00.375-.538h.865a1.472 1.472 0 01-.654 1.057c-.371.256-.835.384-1.392.384zm1.22-3.103v-.355c0-.417-.106-.737-.317-.961-.205-.224-.506-.336-.903-.336-.391 0-.692.112-.904.336-.21.224-.317.544-.317.96v.28h2.508l-.067.076zM37.662 89v-5.284h.865v2.2h2.228v-2.2h.865V89h-.864v-2.296h-2.23V89h-.864zm7.236 0v-4.525h-1.92v-.759h4.706v.76h-1.92V89h-.866zm6.122.077c-.422 0-.787-.08-1.095-.24a1.744 1.744 0 01-.72-.692c-.167-.307-.25-.67-.25-1.086v-1.402c0-.423.083-.785.25-1.086.173-.3.413-.531.72-.691.308-.16.673-.24 1.095-.24.423 0 .788.08 1.096.24.307.16.544.39.71.691.173.301.26.66.26 1.076v1.412c0 .417-.087.779-.26 1.086a1.683 1.683 0 01-.71.692c-.308.16-.673.24-1.096.24zm0-.769c.378 0 .673-.105.884-.317.212-.211.317-.522.317-.932v-1.402c0-.41-.105-.72-.317-.932-.211-.211-.506-.317-.884-.317-.371 0-.666.106-.883.317-.212.211-.317.522-.317.932v1.402c0 .41.105.72.317.932.217.212.512.317.883.317zm3.711.692v-5.284h2.286c.551 0 .977.125 1.278.375.301.243.452.586.452 1.028 0 .365-.125.66-.375.884-.25.217-.58.326-.99.326v-.076c.449 0 .808.112 1.077.336.275.224.413.525.413.903 0 .474-.16.845-.48 1.114-.321.263-.77.394-1.346.394h-2.315zm.846-.759h1.47c.307 0 .544-.067.71-.202.173-.134.26-.323.26-.567 0-.25-.087-.441-.26-.576-.166-.134-.403-.202-.71-.202h-1.47v1.547zm0-2.296h1.44c.27 0 .48-.064.635-.192.16-.128.24-.308.24-.538 0-.23-.077-.41-.23-.538-.154-.135-.37-.202-.645-.202h-1.44v1.47zM66.11 89v-5.284h3.958V89h-.864v-4.496h-2.229V89h-.865zm5.67 1.73v-7.014h.865v1.009h.173l-.172.202c0-.404.13-.72.393-.951.27-.237.622-.356 1.057-.356.532 0 .954.176 1.268.529.32.345.48.823.48 1.431v1.547c0 .403-.073.752-.22 1.047a1.57 1.57 0 01-.606.682c-.256.16-.563.24-.922.24-.429 0-.778-.118-1.047-.355-.269-.237-.404-.554-.404-.951l.173.201h-.192l.02 1.201v1.537h-.865zm2.028-2.383c.365 0 .65-.11.855-.327.211-.218.317-.531.317-.941v-1.441c0-.41-.106-.724-.317-.942-.205-.218-.49-.326-.855-.326-.352 0-.634.112-.846.336-.21.224-.317.535-.317.932v1.44c0 .398.106.708.318.932.21.225.493.337.845.337zM77.49 89v-5.284h.826v2.882c0 .186-.007.381-.02.586-.006.205-.019.4-.038.586-.012.18-.029.333-.048.462l2.133-4.516h1.105V89h-.826v-2.882c0-.186.003-.381.01-.586.012-.205.028-.4.047-.586l.048-.47L78.594 89H77.49zm13.358.096c-.621 0-1.114-.183-1.48-.547-.358-.372-.537-.878-.537-1.518v-2.402c0-.846.211-1.496.634-1.95.422-.461 1.028-.692 1.815-.692h1.345v.865H91.28c-.518 0-.912.153-1.181.46-.27.302-.404.74-.404 1.317v.624h.135l-.135.192c.007-.377.135-.672.385-.883.25-.212.589-.317 1.018-.317.557 0 .99.179 1.297.538.314.358.47.851.47 1.48v.768c0 .429-.08.797-.24 1.104-.16.308-.39.545-.691.711-.301.167-.663.25-1.086.25zm0-.769c.371 0 .656-.112.855-.336.199-.224.298-.544.298-.96v-.769c0-.416-.1-.736-.298-.96-.199-.225-.484-.337-.855-.337s-.656.112-.855.336c-.198.218-.298.538-.298.961v.769c0 .416.1.736.298.96.199.224.484.337.855.337zm3.692 2.402v-7.013h.864v1.009h.173l-.173.202c0-.404.131-.72.394-.951.269-.237.621-.356 1.057-.356.531 0 .954.176 1.268.529.32.345.48.823.48 1.431v1.547c0 .403-.073.752-.22 1.047a1.57 1.57 0 01-.606.682c-.256.16-.564.24-.922.24-.43 0-.778-.118-1.047-.355-.27-.237-.404-.554-.404-.951l.173.201h-.192l.02 1.201v1.537h-.865zm2.026-2.382c.366 0 .65-.11.855-.327.212-.218.317-.531.317-.941v-1.441c0-.41-.105-.724-.317-.942-.204-.218-.49-.326-.855-.326-.352 0-.633.112-.845.336-.211.224-.317.535-.317.932v1.44c0 .398.106.708.317.932.212.225.493.337.846.337zm5.661.73c-.422 0-.787-.08-1.095-.24a1.745 1.745 0 01-.72-.692c-.167-.307-.25-.67-.25-1.086v-1.402c0-.423.083-.785.25-1.086.173-.3.413-.531.72-.691.308-.16.673-.24 1.095-.24.423 0 .788.08 1.095.24.308.16.545.39.711.691.173.301.26.66.26 1.076v1.412c0 .417-.087.779-.26 1.086a1.677 1.677 0 01-.711.692c-.307.16-.672.24-1.095.24zm0-.769c.378 0 .673-.105.884-.317.211-.211.317-.522.317-.932v-1.402c0-.41-.106-.72-.317-.932-.211-.211-.506-.317-.884-.317-.371 0-.666.106-.883.317-.212.211-.318.522-.318.932v1.402c0 .41.106.72.318.932.217.212.512.317.883.317zm3.711.692v-5.284h.865v2.2h2.228v-2.2h.865V89h-.865v-2.296h-2.228V89h-.865zm5.69 0v-5.284h.826v2.882c0 .186-.007.381-.019.586-.007.205-.02.4-.039.586a6.36 6.36 0 01-.048.462l2.133-4.516h1.105V89h-.827v-2.882c0-.186.004-.381.01-.586.013-.205.029-.4.048-.586l.048-.47L112.732 89h-1.104zm5.67 1.73v-7.014h.865v1.009h.173l-.173.202c0-.404.131-.72.394-.951.269-.237.621-.356 1.056-.356.532 0 .955.176 1.268.529.321.345.481.823.481 1.431v1.547c0 .403-.074.752-.221 1.047a1.575 1.575 0 01-.605.682c-.257.16-.564.24-.923.24-.429 0-.778-.118-1.047-.355-.269-.237-.403-.554-.403-.951l.173.201h-.193l.02 1.201v1.537h-.865zm2.027-2.383c.365 0 .65-.11.855-.327.211-.218.317-.531.317-.941v-1.441c0-.41-.106-.724-.317-.942-.205-.218-.49-.326-.855-.326-.352 0-.634.112-.845.336-.212.224-.317.535-.317.932v1.44c0 .398.105.708.317.932.211.225.493.337.845.337zm5.661.73c-.423 0-.788-.08-1.095-.24a1.742 1.742 0 01-.721-.692c-.166-.307-.249-.67-.249-1.086v-1.402c0-.423.083-.785.249-1.086.173-.3.413-.531.721-.691.307-.16.672-.24 1.095-.24.423 0 .788.08 1.095.24.308.16.545.39.711.691.173.301.259.66.259 1.076v1.412c0 .417-.086.779-.259 1.086a1.677 1.677 0 01-.711.692c-.307.16-.672.24-1.095.24zm0-.769c.378 0 .672-.105.884-.317.211-.211.317-.522.317-.932v-1.402c0-.41-.106-.72-.317-.932-.212-.211-.506-.317-.884-.317-.372 0-.666.106-.884.317-.211.211-.317.522-.317.932v1.402c0 .41.106.72.317.932.218.212.512.317.884.317zm3.711.692v-5.284h2.286c.551 0 .977.125 1.278.375.301.243.451.586.451 1.028 0 .365-.125.66-.374.884-.25.217-.58.326-.99.326v-.076c.448 0 .807.112 1.076.336.275.224.413.525.413.903 0 .474-.16.845-.48 1.114-.32.263-.769.394-1.345.394h-2.315zm.845-.759h1.47c.307 0 .544-.067.711-.202.173-.134.259-.323.259-.567 0-.25-.086-.441-.259-.576-.167-.134-.404-.202-.711-.202h-1.47v1.547zm0-2.296h1.441c.269 0 .48-.064.634-.192.16-.128.24-.308.24-.538 0-.23-.077-.41-.23-.538-.154-.135-.369-.202-.644-.202h-1.441v1.47zm6.362 3.151c-.557 0-.996-.14-1.316-.423-.32-.288-.48-.675-.48-1.162 0-.493.16-.88.48-1.162.32-.282.753-.423 1.297-.423h1.633v-.529c0-.326-.099-.576-.298-.749-.192-.18-.467-.269-.826-.269-.314 0-.576.067-.788.202a.718.718 0 00-.365.528h-.864c.057-.454.272-.816.643-1.085.372-.27.836-.404 1.393-.404.609 0 1.089.157 1.441.471.353.314.529.74.529 1.278V89h-.846v-1.009h-.144l.144-.144c0 .385-.15.689-.451.913-.295.224-.689.336-1.182.336zm.211-.682c.41 0 .747-.103 1.009-.307a.956.956 0 00.394-.788v-.75h-1.614c-.288 0-.515.08-.682.24-.166.16-.25.379-.25.654 0 .294.1.528.298.701.205.167.487.25.845.25zm3.961.586v-5.284h.865v2.2h2.228v-2.2h.865V89h-.865v-2.296h-2.228V89h-.865zm5.69 0v-5.284h.826v2.882c0 .186-.007.381-.019.586-.007.205-.02.4-.039.586a6.36 6.36 0 01-.048.462l2.133-4.516h1.105V89h-.827v-2.882c0-.186.004-.381.01-.586.013-.205.029-.4.048-.586l.048-.47L146.87 89h-1.104zm5.689 0v-5.284h.826v2.882c0 .186-.006.381-.019.586a8.08 8.08 0 01-.038.586 6.36 6.36 0 01-.048.462l2.132-4.516h1.105V89h-.826v-2.882c0-.186.003-.381.01-.586.012-.205.028-.4.048-.586l.048-.47L152.56 89h-1.105zM15.71 109.729l.779-2.056-1.96-4.957h.96l1.23 3.267c.045.108.087.24.125.393l.096.375.096-.375c.039-.153.077-.285.115-.393l1.153-3.267h.932l-2.603 7.013h-.922zm6.881-1.633c-.422 0-.794-.08-1.114-.24a1.73 1.73 0 01-.73-.692c-.173-.307-.26-.669-.26-1.085v-1.441c0-.423.087-.785.26-1.086.173-.301.416-.531.73-.692.32-.16.692-.24 1.114-.24.609 0 1.099.164 1.47.49.372.327.567.772.586 1.336h-.864c-.02-.34-.135-.599-.346-.779-.205-.185-.487-.278-.846-.278-.378 0-.678.109-.903.326-.224.212-.336.516-.336.913v1.451c0 .397.112.704.336.922.225.218.526.327.903.327.359 0 .64-.093.846-.279.211-.186.326-.445.346-.778h.864c-.019.563-.214 1.008-.586 1.335-.371.327-.861.49-1.47.49zm3.029-.029v-.807h.173c.294 0 .5-.115.615-.346.121-.23.185-.643.192-1.239l.057-2.959h3.584V108h-.865v-4.496h-1.864l-.047 2.21c-.013.557-.077 1.008-.193 1.354-.109.346-.281.599-.518.759-.231.16-.535.24-.913.24h-.221zm7.16 1.662l.778-2.056-1.96-4.957h.96l1.23 3.267c.045.108.087.24.125.393.039.148.07.273.096.375l.096-.375c.039-.153.077-.285.116-.393l1.152-3.267h.932l-2.603 7.013h-.922zM38.008 108v-5.284h3.795v.788h-2.93V108h-.865zm14.07 0v-1.921c-.103.025-.26.051-.472.077a7.097 7.097 0 01-.653.028c-.653.007-1.162-.15-1.527-.47-.359-.327-.538-.782-.538-1.365v-1.633h.864v1.633c0 .327.11.586.327.779.224.185.532.278.922.278.27 0 .497-.009.682-.029a3.49 3.49 0 00.394-.067v-2.594h.865V108h-.865zm4.632.096c-.416 0-.781-.083-1.095-.25a1.803 1.803 0 01-.72-.701 2.203 2.203 0 01-.25-1.066v-1.441c0-.41.083-.766.25-1.067a1.81 1.81 0 01.72-.701c.314-.167.679-.25 1.095-.25.416 0 .778.083 1.086.25.313.167.554.4.72.701.173.301.26.657.26 1.067v.931H55.49v.51c0 .416.106.736.317.96.211.218.512.327.903.327.333 0 .602-.058.807-.173a.764.764 0 00.375-.538h.864a1.473 1.473 0 01-.653 1.057c-.371.256-.836.384-1.393.384zm1.22-3.103v-.355c0-.417-.105-.737-.317-.961-.205-.224-.506-.336-.903-.336-.39 0-.692.112-.903.336-.211.224-.317.544-.317.961v.278h2.507l-.067.077zm2.471 4.736v-7.013h.865v1.009h.173l-.173.202c0-.404.131-.721.394-.951.269-.237.621-.356 1.057-.356.531 0 .954.176 1.268.529.32.345.48.823.48 1.431v1.547c0 .403-.074.752-.22 1.047a1.58 1.58 0 01-.606.682c-.256.16-.564.24-.922.24-.43 0-.778-.118-1.047-.355-.27-.237-.404-.554-.404-.951l.173.201h-.192l.02 1.201v1.537H60.4zm2.028-2.382c.365 0 .65-.109.855-.327.21-.218.317-.531.317-.941v-1.441c0-.41-.106-.724-.317-.942-.205-.218-.49-.326-.855-.326-.353 0-.635.112-.846.336-.211.224-.317.535-.317.932v1.441c0 .397.106.707.317.932.212.224.493.336.846.336zm5.66.749a2.3 2.3 0 01-1.095-.25 1.804 1.804 0 01-.72-.701 2.203 2.203 0 01-.25-1.066v-1.441c0-.41.083-.766.25-1.067a1.81 1.81 0 01.72-.701 2.3 2.3 0 011.095-.25c.417 0 .779.083 1.086.25.314.167.554.4.72.701.173.301.26.657.26 1.067v.931h-3.286v.51c0 .416.106.736.317.96.212.218.513.327.903.327.333 0 .602-.058.807-.173a.764.764 0 00.375-.538h.865a1.473 1.473 0 01-.654 1.057c-.371.256-.835.384-1.393.384zm1.22-3.103v-.355c0-.417-.105-.737-.317-.961-.205-.224-.505-.336-.903-.336-.39 0-.691.112-.903.336-.211.224-.317.544-.317.961v.278h2.508l-.067.077zm4.22 3.074c-.557 0-1.015-.118-1.373-.355a1.412 1.412 0 01-.635-.961h.913c.045.16.163.292.356.394.198.102.445.154.74.154h.45c.315 0 .558-.074.73-.221a.713.713 0 00.27-.577c0-.256-.087-.458-.26-.605-.166-.147-.413-.221-.74-.221h-1.162v-.749h1.134c.295 0 .519-.071.672-.212a.717.717 0 00.231-.557.726.726 0 00-.106-.403.612.612 0 00-.297-.25 1.236 1.236 0 00-.49-.086h-.48c-.257 0-.478.057-.664.173-.185.115-.297.256-.336.422h-.912c.064-.397.272-.724.624-.98s.781-.384 1.287-.384h.48c.378 0 .702.061.97.183.27.115.475.281.616.499.147.218.22.477.22.778 0 .314-.102.573-.307.778-.205.199-.493.311-.864.337v.038c.454.032.784.154.99.365.204.211.306.516.306.913 0 .467-.172.839-.518 1.114-.346.276-.81.413-1.393.413h-.452zm11.649.029c-.423 0-.795-.08-1.115-.24a1.73 1.73 0 01-.73-.692c-.173-.307-.26-.669-.26-1.085v-1.441c0-.423.087-.785.26-1.086.173-.301.416-.531.73-.692.32-.16.692-.24 1.115-.24.608 0 1.098.164 1.47.49.37.327.566.772.585 1.336h-.864c-.02-.34-.135-.599-.346-.779-.205-.185-.487-.278-.845-.278-.378 0-.68.109-.903.326-.225.212-.337.516-.337.913v1.451c0 .397.112.704.337.922.224.218.525.327.903.327.358 0 .64-.093.845-.279.211-.186.327-.445.346-.778h.864c-.019.563-.214 1.008-.586 1.335-.371.327-.861.49-1.47.49zm5.209 0c-.557 0-.996-.141-1.316-.423-.32-.288-.48-.675-.48-1.162 0-.493.16-.881.48-1.162.32-.282.752-.423 1.297-.423H92v-.529c0-.326-.1-.576-.298-.749-.192-.179-.468-.269-.826-.269-.314 0-.577.067-.788.202a.717.717 0 00-.365.528h-.865c.058-.454.273-.816.644-1.085s.836-.404 1.393-.404c.608 0 1.089.157 1.441.471.352.314.528.74.528 1.278V108h-.845v-1.009h-.144l.144-.144c0 .384-.15.689-.451.913-.295.224-.689.336-1.182.336zm.211-.682c.41 0 .746-.102 1.009-.307a.957.957 0 00.394-.788v-.75h-1.614c-.288 0-.516.081-.682.241-.167.16-.25.378-.25.653 0 .295.1.528.298.701.205.167.487.25.845.25zm3.96.586v-5.284h.827v2.882c0 .186-.007.381-.02.586a8.16 8.16 0 01-.038.586c-.013.18-.029.333-.048.461l2.133-4.515h1.105V108h-.826v-2.882c0-.186.003-.381.01-.586.012-.205.028-.4.047-.586l.048-.471L95.663 108H94.56zm2.018-6.148c-.461 0-.832-.128-1.114-.385-.282-.256-.423-.592-.423-1.008h.682a.82.82 0 00.23.605c.154.154.36.23.616.23.262 0 .47-.076.624-.23a.802.802 0 00.24-.605h.682c0 .416-.14.752-.422 1.008-.282.257-.654.385-1.115.385zm5.219 6.148v-4.525h-1.921v-.759h4.707v.759h-1.921V108h-.865zm9.833 0v-5.284h.826v2.882c0 .186-.007.381-.019.586a8.64 8.64 0 01-.039.586c-.013.18-.029.333-.048.461l2.133-4.515h1.105V108h-.827v-2.882c0-.186.004-.381.01-.586.013-.205.029-.4.048-.586l.048-.471-2.133 4.525h-1.104zm11.206 0v-5.284h1.172l.692 2.027c.07.205.134.41.192.615.058.199.099.352.125.461.025-.109.064-.262.115-.461.058-.205.119-.413.183-.624l.653-2.018h1.172V108h-.836v-.817c0-.288.003-.602.01-.941l.019-1.028.038-.98c.013-.314.023-.589.029-.826l-.941 3.007h-.913l-.951-2.988c.013.288.022.647.029 1.076.013.429.022.878.029 1.345.012.468.019.913.019 1.335V108h-.836zm7.842.077c-.423 0-.788-.08-1.096-.24a1.745 1.745 0 01-.72-.692c-.167-.307-.25-.669-.25-1.086v-1.402c0-.423.083-.785.25-1.086.173-.301.413-.531.72-.691.308-.161.673-.241 1.096-.241.422 0 .787.08 1.095.241.307.16.544.39.711.691.173.301.259.66.259 1.076v1.412c0 .417-.086.779-.259 1.086a1.689 1.689 0 01-.711.692c-.308.16-.673.24-1.095.24zm0-.769c.377 0 .672-.105.883-.317.212-.211.317-.522.317-.932v-1.402c0-.41-.105-.721-.317-.932-.211-.211-.506-.317-.883-.317-.372 0-.666.106-.884.317-.212.211-.317.522-.317.932v1.402c0 .41.105.721.317.932.218.212.512.317.884.317zm5.689.788c-.621 0-1.114-.182-1.479-.548-.359-.371-.538-.877-.538-1.517v-2.402c0-.845.211-1.496.634-1.95.423-.461 1.028-.692 1.816-.692h1.345v.865h-1.345c-.519 0-.913.153-1.182.461-.269.301-.404.74-.404 1.316v.624h.135l-.135.193c.007-.378.135-.673.385-.884.249-.212.589-.317 1.018-.317.557 0 .99.179 1.297.538.314.358.471.851.471 1.479v.769c0 .429-.08.797-.24 1.104a1.683 1.683 0 01-.692.711c-.301.167-.663.25-1.086.25zm0-.768c.372 0 .657-.113.855-.337.199-.224.298-.544.298-.96v-.769c0-.416-.099-.736-.298-.961-.198-.224-.483-.336-.855-.336-.371 0-.656.112-.855.336-.198.218-.298.538-.298.961v.769c0 .416.1.736.298.96.199.224.484.337.855.337zm3.711.672v-5.284h.826v2.882c0 .186-.006.381-.019.586a8.038 8.038 0 01-.039.586c-.012.18-.028.333-.048.461l2.133-4.515h1.105V108h-.826v-2.882c0-.186.003-.381.009-.586.013-.205.029-.4.048-.586l.048-.471-2.132 4.525h-1.105zm5.027.067v-.807h.173c.294 0 .499-.115.614-.346.122-.23.186-.643.193-1.239l.057-2.959h3.584V108h-.865v-4.496h-1.864l-.048 2.21c-.013.557-.077 1.008-.192 1.354-.109.346-.282.599-.519.759-.23.16-.534.24-.912.24h-.221zm6.391-.067v-5.284h.864v1.941h1.557c.595 0 1.063.15 1.402.451.346.295.519.702.519 1.22 0 .513-.173.919-.519 1.22-.346.301-.813.452-1.402.452h-2.421zm.864-.788h1.557c.333 0 .586-.073.758-.221.18-.153.269-.374.269-.663 0-.288-.089-.506-.269-.653-.172-.154-.425-.23-.758-.23h-1.557v1.767zm4.787.788v-5.284h.864v2.2h2.229v-2.2h.865V108h-.865v-2.296h-2.229V108h-.864zm5.411 0v-5.284h.807v1.941h.432c.57 0 1.019.15 1.345.451.333.295.5.702.5 1.22 0 .519-.167.929-.5 1.23-.326.295-.775.442-1.345.442h-1.239zm.807-.692h.432c.34 0 .602-.086.788-.259.192-.173.288-.413.288-.721 0-.307-.096-.547-.288-.72-.186-.173-.448-.259-.788-.259h-.432v1.959zm2.901.692v-5.284h.807V108h-.807zm4.239.096c-.416 0-.781-.083-1.095-.25a1.799 1.799 0 01-.72-.701 2.197 2.197 0 01-.25-1.066v-1.441c0-.41.083-.766.25-1.067.172-.301.413-.534.72-.701.314-.167.679-.25 1.095-.25.416 0 .778.083 1.086.25.314.167.554.4.72.701.173.301.26.657.26 1.067v.931h-3.286v.51c0 .416.106.736.317.96.212.218.513.327.903.327.333 0 .602-.058.807-.173a.765.765 0 00.375-.538h.864a1.47 1.47 0 01-.653 1.057c-.371.256-.836.384-1.393.384zm1.22-3.103v-.355c0-.417-.105-.737-.317-.961-.205-.224-.506-.336-.903-.336-.39 0-.691.112-.903.336-.211.224-.317.544-.317.961v.278h2.507l-.067.077zM15.71 129.729l.779-2.056-1.96-4.957h.96l1.23 3.267c.045.108.087.24.125.393l.096.375.096-.375c.039-.153.077-.285.115-.393l1.153-3.267h.932l-2.603 7.013h-.922zm6.881-1.633c-.422 0-.794-.08-1.114-.24a1.73 1.73 0 01-.73-.692c-.173-.307-.26-.669-.26-1.085v-1.441c0-.423.087-.785.26-1.086.173-.301.416-.531.73-.692.32-.16.692-.24 1.114-.24.609 0 1.099.164 1.47.49.372.327.567.772.586 1.336h-.864c-.02-.34-.135-.599-.346-.779-.205-.185-.487-.278-.846-.278-.378 0-.678.109-.903.326-.224.212-.336.516-.336.913v1.451c0 .397.112.704.336.922.225.218.526.327.903.327.359 0 .64-.093.846-.279.211-.186.326-.445.346-.778h.864c-.019.563-.214 1.008-.586 1.335-.371.327-.861.49-1.47.49zM27.83 128v-4.525h-1.92v-.759h4.707v.759h-1.922V128h-.864zm4.124 1.729v-7.013h.865v1.009h.173l-.173.202c0-.404.131-.721.394-.951.269-.237.621-.356 1.056-.356.532 0 .955.176 1.269.529.32.345.48.823.48 1.431v1.547c0 .403-.074.752-.221 1.047-.14.294-.343.522-.605.682-.256.16-.564.24-.922.24-.43 0-.779-.118-1.048-.355s-.403-.554-.403-.951l.173.201H32.8l.019 1.201v1.537h-.865zm2.027-2.382c.365 0 .65-.109.855-.327.212-.218.317-.531.317-.941v-1.441c0-.41-.105-.724-.317-.942-.205-.218-.49-.326-.855-.326-.352 0-.634.112-.845.336-.211.224-.317.535-.317.932v1.441c0 .397.106.707.317.932.211.224.493.336.845.336zm5.661.73c-.423 0-.788-.08-1.095-.24a1.743 1.743 0 01-.72-.692c-.167-.307-.25-.669-.25-1.086v-1.402c0-.423.083-.785.25-1.086a1.74 1.74 0 01.72-.691c.307-.161.672-.241 1.095-.241.423 0 .788.08 1.095.241.308.16.545.39.711.691.173.301.26.66.26 1.076v1.412c0 .417-.087.779-.26 1.086a1.683 1.683 0 01-.71.692c-.308.16-.673.24-1.096.24zm0-.769c.378 0 .673-.105.884-.317.211-.211.317-.522.317-.932v-1.402c0-.41-.106-.721-.317-.932-.211-.211-.506-.317-.884-.317-.371 0-.666.106-.884.317-.211.211-.317.522-.317.932v1.402c0 .41.106.721.317.932.218.212.513.317.884.317zm3.71.692v-5.284h.827v2.882c0 .186-.006.381-.02.586a8.16 8.16 0 01-.038.586c-.012.18-.028.333-.048.461l2.133-4.515h1.105V128h-.826v-2.882c0-.186.003-.381.01-.586.012-.205.028-.4.047-.586l.048-.471L44.457 128h-1.105zm2.018-6.148c-.46 0-.832-.128-1.114-.385-.282-.256-.423-.592-.423-1.008h.682a.82.82 0 00.23.605c.154.154.36.23.616.23.262 0 .47-.076.624-.23a.802.802 0 00.24-.605h.682c0 .416-.14.752-.422 1.008-.282.257-.654.385-1.115.385zm5.67 6.244c-.422 0-.794-.08-1.114-.24a1.73 1.73 0 01-.73-.692c-.173-.307-.26-.669-.26-1.085v-1.441c0-.423.087-.785.26-1.086.173-.301.416-.531.73-.692.32-.16.692-.24 1.115-.24.608 0 1.098.164 1.47.49.37.327.566.772.586 1.336h-.865c-.02-.34-.135-.599-.346-.779-.205-.185-.487-.278-.845-.278-.378 0-.68.109-.903.326-.224.212-.337.516-.337.913v1.451c0 .397.113.704.337.922.224.218.525.327.903.327.358 0 .64-.093.845-.279.211-.186.327-.445.346-.778h.864c-.019.563-.214 1.008-.585 1.335-.372.327-.862.49-1.47.49zm5.239-.096v-4.525h-1.922v-.759h4.708v.759h-1.922V128h-.864zm4.143 0v-5.284h2.286c.551 0 .977.125 1.278.375.3.243.451.586.451 1.028 0 .365-.125.66-.374.884-.25.217-.58.326-.99.326v-.077c.448 0 .807.113 1.076.337.276.224.413.525.413.903 0 .474-.16.845-.48 1.114-.32.263-.769.394-1.345.394h-2.315zm.845-.759h1.47c.307 0 .544-.067.71-.202.174-.134.26-.323.26-.566 0-.25-.086-.442-.26-.577-.166-.134-.403-.202-.71-.202h-1.47v1.547zm0-2.296h1.441c.27 0 .48-.064.634-.192.16-.128.24-.307.24-.538 0-.231-.077-.41-.23-.538-.154-.135-.368-.202-.644-.202h-1.44v1.47zm6.362 3.151c-.557 0-.996-.141-1.316-.423-.32-.288-.48-.675-.48-1.162 0-.493.16-.881.48-1.162.32-.282.753-.423 1.297-.423h1.633v-.529c0-.326-.1-.576-.298-.749-.192-.179-.467-.269-.826-.269-.314 0-.576.067-.787.202a.717.717 0 00-.366.528h-.864c.057-.454.272-.816.644-1.085.37-.269.835-.404 1.392-.404.609 0 1.09.157 1.441.471.353.314.529.74.529 1.278V128h-.846v-1.009h-.144l.144-.144c0 .384-.15.689-.451.913-.295.224-.689.336-1.182.336zm.212-.682c.41 0 .746-.102 1.008-.307a.957.957 0 00.394-.788v-.75h-1.614c-.288 0-.515.081-.682.241-.166.16-.25.378-.25.653 0 .295.1.528.298.701.205.167.487.25.846.25zm5.94.682c-.244 0-.44-.07-.587-.211-.14-.141-.211-.33-.211-.567 0-.25.07-.448.211-.596.147-.147.343-.221.586-.221.243 0 .436.074.577.221.147.148.22.346.22.596 0 .237-.073.426-.22.567-.141.141-.334.211-.577.211zM14.74 25v-7.013h1.201v2.815h1.883v-2.815h1.2V25h-1.2v-3.084h-1.883V25h-1.2zm7.246.096c-.544 0-.973-.144-1.287-.432-.314-.288-.47-.676-.47-1.163 0-.518.172-.919.518-1.2.346-.282.836-.423 1.47-.423h1.316v-.452c0-.256-.083-.454-.25-.595-.167-.148-.394-.221-.682-.221-.263 0-.48.057-.653.173a.675.675 0 00-.308.47h-1.172c.058-.5.282-.896.673-1.19.39-.296.89-.443 1.498-.443.647 0 1.156.163 1.528.49.378.32.567.756.567 1.307V25H23.57v-.922h-.192l.192-.26c0 .391-.144.702-.432.932-.288.23-.672.346-1.153.346zm.394-.903c.34 0 .615-.086.826-.26a.82.82 0 00.327-.672v-.643h-1.297c-.243 0-.439.07-.586.21a.736.736 0 00-.221.558c0 .25.083.448.25.596.173.14.406.211.701.211zm5.901.903c-.448 0-.842-.083-1.182-.25a1.923 1.923 0 01-.778-.72c-.186-.314-.278-.682-.278-1.105v-1.326c0-.429.093-.797.278-1.105.186-.307.445-.544.778-.71.34-.173.734-.26 1.182-.26.666 0 1.198.173 1.595.519.397.34.605.804.624 1.393h-1.2c-.02-.275-.12-.487-.299-.634-.172-.154-.413-.23-.72-.23-.32 0-.573.089-.759.268-.186.173-.278.423-.278.75v1.335c0 .327.092.58.278.759.186.18.439.269.759.269.307 0 .548-.074.72-.221.18-.154.28-.368.298-.644H30.5c-.019.59-.227 1.057-.624 1.403-.397.34-.929.51-1.595.51zM33.346 25v-4.179H31.54v-1.105h4.823v1.105h-1.806V25h-1.21zm4.153 1.73v-7.014h1.172v1.009h.269l-.27.279c0-.43.129-.766.385-1.01.256-.249.602-.374 1.038-.374.531 0 .957.183 1.277.548.32.365.48.855.48 1.47v1.431c0 .41-.073.769-.22 1.076a1.623 1.623 0 01-.605.701c-.263.167-.574.25-.932.25-.436 0-.782-.122-1.038-.365-.256-.25-.384-.59-.384-1.018l.269.278h-.279l.039 1.259v1.48h-1.201zm2.171-2.672c.307 0 .547-.09.72-.268.173-.18.26-.436.26-.769v-1.326c0-.333-.087-.589-.26-.768-.172-.18-.413-.27-.72-.27-.301 0-.538.094-.71.28-.174.179-.26.432-.26.758v1.326c0 .327.086.583.26.769.172.179.409.268.71.268zm5.66 1.029c-.447 0-.838-.084-1.171-.25a1.939 1.939 0 01-.769-.72c-.18-.315-.269-.683-.269-1.106v-1.306c0-.423.09-.788.27-1.095a1.84 1.84 0 01.768-.72c.333-.174.724-.26 1.172-.26.454 0 .845.086 1.172.26.326.166.58.406.759.72.185.307.278.669.278 1.085v1.316c0 .423-.093.791-.278 1.105-.18.308-.433.548-.76.72-.326.167-.717.25-1.171.25zm0-1.048c.321 0 .568-.086.74-.26.18-.178.27-.435.27-.768v-1.306c0-.34-.09-.596-.27-.769-.172-.173-.419-.259-.74-.259-.313 0-.56.086-.739.26-.18.172-.269.428-.269.768v1.306c0 .333.09.59.27.769.178.173.425.26.739.26zm3.558.961v-5.284h1.085v2.604c0 .166-.01.365-.029.595-.012.225-.032.445-.057.663-.026.218-.051.407-.077.567l1.864-4.429h1.48V25h-1.086v-2.603c0-.173.006-.365.019-.577l.057-.624c.026-.205.052-.378.077-.519L50.367 25h-1.48zm2.17-6.12c-.499 0-.905-.13-1.22-.393a1.287 1.287 0 01-.46-1.028h.931a.67.67 0 00.202.509.784.784 0 00.548.192c.224 0 .403-.064.538-.192a.655.655 0 00.211-.51h.932c0 .423-.154.766-.461 1.029-.308.262-.714.394-1.22.394zM54.607 25v-5.284h1.201v2.075h.788l1.287-2.075h1.345l-1.595 2.556L59.256 25h-1.374l-1.287-2.19h-.788V25h-1.2zm7.208.096c-.545 0-.974-.144-1.288-.432-.313-.288-.47-.676-.47-1.163 0-.518.173-.919.519-1.2.345-.282.835-.423 1.47-.423h1.315v-.452c0-.256-.083-.454-.25-.595-.166-.148-.393-.221-.681-.221-.263 0-.48.057-.654.173a.675.675 0 00-.307.47h-1.172c.057-.5.282-.896.672-1.19.391-.296.89-.443 1.499-.443.647 0 1.156.163 1.528.49.377.32.566.756.566 1.307V25H63.4v-.922h-.192l.192-.26c0 .391-.144.702-.432.932-.289.23-.673.346-1.153.346zm.394-.903c.34 0 .614-.086.826-.26a.82.82 0 00.326-.672v-.643h-1.297c-.243 0-.438.07-.586.21a.736.736 0 00-.22.558c0 .25.083.448.25.596.172.14.406.211.7.211zm11.571.893c-.448 0-.839-.083-1.172-.25a1.938 1.938 0 01-.769-.72c-.179-.314-.268-.682-.268-1.105v-1.306c0-.423.09-.788.269-1.095a1.84 1.84 0 01.768-.72c.333-.174.724-.26 1.172-.26.455 0 .845.086 1.172.26.327.166.58.406.759.72.186.307.279.669.279 1.085v1.316c0 .423-.093.791-.279 1.105-.18.308-.432.548-.759.72-.327.167-.717.25-1.172.25zm0-1.047c.32 0 .567-.086.74-.26.18-.178.269-.435.269-.768v-1.306c0-.34-.09-.596-.27-.769-.172-.173-.419-.259-.739-.259-.314 0-.56.086-.74.26-.179.172-.269.428-.269.768v1.306c0 .333.09.59.27.769.179.173.425.26.74.26zm3.557.961v-5.284h1.2v2.046h1.865v-2.046h1.2V25h-1.2v-2.123h-1.864V25h-1.201zm5.161.067v-1.095h.24a.54.54 0 00.49-.26c.116-.179.176-.46.183-.845l.058-3.15h3.823V25h-1.2v-4.17H84.65l-.038 2.105c-.013.46-.09.851-.23 1.172a1.61 1.61 0 01-.606.72c-.263.16-.583.24-.96.24h-.318zm7.765.03c-.544 0-.974-.145-1.287-.433-.314-.288-.471-.676-.471-1.163 0-.518.173-.919.519-1.2.346-.282.836-.423 1.47-.423h1.316v-.452c0-.256-.084-.454-.25-.595-.167-.148-.394-.221-.682-.221-.263 0-.48.057-.653.173a.675.675 0 00-.308.47h-1.172c.058-.5.282-.896.673-1.19.39-.296.89-.443 1.498-.443.647 0 1.156.163 1.528.49.378.32.567.756.567 1.307V25h-1.163v-.922h-.192l.192-.26c0 .391-.144.702-.432.932-.288.23-.673.346-1.153.346zm.394-.904c.34 0 .615-.086.826-.26a.82.82 0 00.327-.672v-.643h-1.297c-.244 0-.439.07-.586.21a.736.736 0 00-.221.558c0 .25.083.448.25.596.172.14.406.211.7.211zm3.749.807v-5.284h1.085v2.604c0 .166-.01.365-.028.595a13.981 13.981 0 01-.134 1.23l1.863-4.429h1.48V25h-1.086v-2.603c0-.173.006-.365.019-.577.02-.211.038-.42.058-.624.025-.205.05-.378.076-.519L95.885 25h-1.479zm2.171-6.12c-.5 0-.906-.13-1.22-.393a1.287 1.287 0 01-.461-1.028h.932a.67.67 0 00.201.509.784.784 0 00.548.192c.224 0 .404-.064.538-.192a.655.655 0 00.211-.51h.932c0 .423-.153.766-.46 1.029-.308.262-.715.394-1.22.394zm3.519 6.12v-5.284h1.2v2.046h1.864v-2.046h1.201V25h-1.201v-2.123h-1.864V25h-1.2zm6.285-2.613v-1.114h3.074v1.114h-3.074zm6.967 2.68c-.576 0-1.053-.131-1.431-.394a1.62 1.62 0 01-.682-1.095h1.201a.642.642 0 00.307.375c.167.09.368.134.605.134h.509c.25 0 .446-.057.586-.173a.59.59 0 00.221-.48.586.586 0 00-.211-.48c-.141-.116-.339-.173-.596-.173h-1.21v-.96h1.162c.237 0 .42-.055.548-.164a.55.55 0 00.192-.442.526.526 0 00-.336-.519 1.065 1.065 0 00-.404-.067h-.451c-.224 0-.416.048-.577.144a.617.617 0 00-.288.384h-1.201a1.66 1.66 0 01.673-1.095c.371-.275.836-.413 1.393-.413h.451c.404 0 .75.06 1.038.183.295.115.522.281.682.5.16.21.24.467.24.768 0 .333-.122.605-.365.816-.243.212-.567.324-.97.337v-.039c.461.013.82.135 1.076.365.256.224.384.535.384.932 0 .474-.186.852-.557 1.134-.365.281-.858.422-1.48.422h-.509zm5.363.03c-.544 0-.973-.145-1.287-.433-.314-.288-.471-.676-.471-1.163 0-.518.173-.919.519-1.2.346-.282.836-.423 1.47-.423h1.316v-.452c0-.256-.083-.454-.25-.595-.166-.148-.394-.221-.682-.221-.262 0-.48.057-.653.173a.676.676 0 00-.308.47h-1.172c.058-.5.282-.896.673-1.19.391-.296.89-.443 1.499-.443.646 0 1.156.163 1.527.49.378.32.567.756.567 1.307V25h-1.163v-.922h-.192l.192-.26c0 .391-.144.702-.432.932-.288.23-.672.346-1.153.346zm.394-.904c.34 0 .615-.086.826-.26a.82.82 0 00.327-.672v-.643h-1.297c-.243 0-.439.07-.586.21a.737.737 0 00-.221.558c0 .25.083.448.25.596.173.14.407.211.701.211zm3.749.807v-5.284h4.266V25h-1.201v-4.17h-1.864V25h-1.201zm5.69 0v-5.284h1.085v2.604c0 .166-.009.365-.028.595a13.964 13.964 0 01-.135 1.23l1.864-4.429h1.479V25h-1.085v-2.603c0-.173.006-.365.019-.577.019-.211.038-.42.058-.624.025-.205.051-.378.076-.519L130.022 25h-1.479zm7.841.096c-.448 0-.842-.083-1.181-.25a1.918 1.918 0 01-.778-.72c-.186-.314-.279-.682-.279-1.105v-1.326c0-.429.093-.797.279-1.105.185-.307.445-.544.778-.71.339-.173.733-.26 1.181-.26.667 0 1.198.173 1.595.519.397.34.605.804.625 1.393h-1.201c-.019-.275-.119-.487-.298-.634-.173-.154-.413-.23-.721-.23-.32 0-.573.089-.758.268-.186.173-.279.423-.279.75v1.335c0 .327.093.58.279.759.185.18.438.269.758.269.308 0 .548-.074.721-.221.179-.154.279-.368.298-.644h1.201c-.02.59-.228 1.057-.625 1.403-.397.34-.928.51-1.595.51zm3.538-.096v-5.284h1.086v2.604c0 .166-.01.365-.029.595a12.385 12.385 0 01-.135 1.23l1.864-4.429h1.48V25h-1.086v-2.603c0-.173.006-.365.019-.577l.058-.624c.026-.205.051-.378.077-.519L141.402 25h-1.48zm7.823-3.766c-.269 0-.487-.074-.654-.22a.778.778 0 01-.24-.587c0-.243.08-.439.24-.586.167-.147.385-.22.654-.22s.483.073.643.22c.167.147.25.343.25.586a.761.761 0 01-.25.586c-.16.147-.374.221-.643.221zm0 3.862c-.269 0-.487-.074-.654-.22a.758.758 0 01-.24-.587c0-.243.08-.439.24-.586.167-.147.385-.22.654-.22s.483.073.643.22c.167.147.25.343.25.586a.743.743 0 01-.25.586c-.16.147-.374.221-.643.221z" fill="#000"/><defs><filter id="filter0_d_394_1361" x=".804" y="0" width="179.646" height="178.685" filterUnits="userSpaceOnUse" color-interpolation-filters="sRGB"><feFlood flood-opacity="0" result="BackgroundImageFix"/><feColorMatrix in="SourceAlpha" values="0 0 0 0 0 0 0 0 0 0 0 0 0 0 0 0 0 0 127 0" result="hardAlpha"/><feOffset dy="3.843"/><feGaussianBlur stdDeviation="1.921"/><feComposite in2="hardAlpha" operator="out"/><feColorMatrix values="0 0 0 0 0 0 0 0 0 0 0 0 0 0 0 0 0 0 0.25 0"/><feBlend in2="BackgroundImageFix" result="effect1_dropShadow_394_1361"/><feBlend in="SourceGraphic" in2="effect1_dropShadow_394_1361" result="shape"/></filter></defs></svg>