<svg width="181" height="179" fill="none" xmlns="http://www.w3.org/2000/svg"><g filter="url(#filter0_d_394_1312)"><rect x="4.646" width="171.961" height="171" rx="16.011" fill="#C09F6D"/></g><mask id="a" style="mask-type:alpha" maskUnits="userSpaceOnUse" x="4" y="0" width="173" height="43"><path fill="#C9D9CD" d="M4.646 0h171.961v42.27H4.646z"/></mask><g mask="url(#a)"><rect x="4.646" y="-1.69" width="171.961" height="118.355" rx="16.011" fill="#E1EDE4"/></g><path d="M14.48 62l1.826-7.013h1.162L19.284 62h-.874l-.461-1.864h-2.123L15.365 62h-.884zM16 59.406h1.767l-.538-2.161c-.102-.41-.182-.753-.24-1.028a13.273 13.273 0 01-.105-.538c-.013.083-.049.262-.106.538-.058.275-.138.615-.24 1.018L16 59.406zM20.593 62v-5.284h2.287c.55 0 .976.125 1.277.375.301.243.452.586.452 1.028 0 .365-.125.66-.375.884-.25.217-.58.326-.99.326v-.077c.449 0 .808.113 1.077.337.275.224.413.525.413.903 0 .474-.16.845-.48 1.114-.32.263-.77.394-1.346.394h-2.315zm.846-.759h1.47c.307 0 .544-.067.71-.202.173-.134.26-.323.26-.567 0-.25-.087-.441-.26-.576-.166-.134-.403-.202-.71-.202h-1.47v1.547zm0-2.296h1.44c.27 0 .48-.064.635-.192.16-.128.24-.307.24-.538 0-.23-.077-.41-.23-.538-.155-.135-.369-.202-.644-.202h-1.441v1.47zM27.829 62v-4.525h-1.92v-.759h4.707v.76h-1.922V62h-.864zm6.123.077c-.423 0-.788-.08-1.096-.24a1.744 1.744 0 01-.72-.692c-.167-.307-.25-.67-.25-1.086v-1.402c0-.423.083-.785.25-1.086.173-.3.413-.531.72-.691.308-.16.673-.24 1.096-.24.422 0 .787.08 1.095.24.307.16.544.39.71.691.174.301.26.66.26 1.076v1.412c0 .417-.087.779-.26 1.086a1.683 1.683 0 01-.71.692c-.308.16-.673.24-1.095.24zm0-.769c.377 0 .672-.105.883-.317.212-.211.317-.522.317-.932v-1.402c0-.41-.105-.72-.317-.932-.211-.211-.506-.317-.883-.317-.372 0-.667.106-.884.317-.212.211-.317.522-.317.932v1.402c0 .41.105.72.317.932.217.212.512.317.884.317zm3.537.692v-5.284h1.172l.692 2.027c.07.205.134.41.192.615.058.199.1.352.125.461.026-.109.064-.262.115-.46.058-.206.119-.414.183-.625l.653-2.018h1.172V62h-.836v-.817c0-.288.004-.602.01-.941l.02-1.028c.012-.346.025-.672.038-.98.012-.314.022-.59.028-.826l-.941 3.007h-.913l-.95-2.988c.012.288.022.647.028 1.076.013.43.022.878.029 1.345.013.468.019.913.019 1.335V62h-.836zm7.38.096c-.556 0-.995-.14-1.316-.423-.32-.288-.48-.675-.48-1.162 0-.493.16-.88.48-1.163.32-.281.753-.422 1.297-.422h1.634v-.529c0-.326-.1-.576-.298-.749-.192-.18-.468-.269-.826-.269-.314 0-.577.067-.788.202a.717.717 0 00-.365.528h-.865c.058-.454.272-.816.644-1.085.371-.27.836-.404 1.393-.404.608 0 1.089.157 1.44.471.353.314.53.74.53 1.278V62h-.846v-1.009h-.144l.144-.144c0 .384-.15.689-.452.913-.294.224-.688.336-1.181.336zm.212-.682c.41 0 .746-.102 1.009-.307a.957.957 0 00.394-.788v-.75H44.87c-.288 0-.516.08-.682.24-.167.16-.25.379-.25.654 0 .294.1.528.298.701.205.167.486.25.845.25zm5.507.586v-4.525h-1.921v-.759h4.707v.76h-1.921V62h-.865zm4.143 0v-5.284h.826v2.882c0 .186-.006.381-.019.586-.006.205-.02.4-.038.586a6.1 6.1 0 01-.048.461l2.132-4.515h1.105V62h-.826v-2.882c0-.186.003-.381.01-.586.012-.205.028-.4.047-.586l.049-.47L55.836 62H54.73zm8.725 0v-1.921c-.102.025-.259.05-.47.077a7.1 7.1 0 01-.653.028c-.654.007-1.163-.15-1.528-.47-.359-.327-.538-.782-.538-1.365v-1.633h.865v1.633c0 .327.108.586.326.779.224.185.532.278.922.278.27 0 .497-.01.683-.029a3.59 3.59 0 00.393-.067v-2.594h.865V62h-.864zm4.633.096a2.3 2.3 0 01-1.095-.25 1.808 1.808 0 01-.72-.701 2.204 2.204 0 01-.25-1.066v-1.441c0-.41.083-.766.25-1.067.173-.3.413-.535.72-.701.314-.166.68-.25 1.095-.25.417 0 .779.084 1.086.25.314.166.554.4.72.701.173.301.26.657.26 1.067v.931h-3.286v.51c0 .416.106.736.317.96.212.218.513.327.903.327.333 0 .602-.058.807-.173a.763.763 0 00.375-.538h.865a1.472 1.472 0 01-.654 1.057c-.371.256-.835.384-1.393.384zm1.22-3.103v-.355c0-.417-.105-.737-.317-.961-.205-.224-.505-.336-.903-.336-.39 0-.691.112-.903.336-.211.224-.317.544-.317.96v.28h2.508l-.067.076zm4.49 3.103c-.423 0-.795-.08-1.115-.24a1.73 1.73 0 01-.73-.692c-.173-.307-.26-.67-.26-1.085v-1.441c0-.423.087-.785.26-1.086a1.73 1.73 0 01.73-.692c.32-.16.692-.24 1.114-.24.609 0 1.099.163 1.47.49.372.327.567.772.586 1.336h-.864c-.02-.34-.135-.6-.346-.779-.205-.185-.487-.278-.846-.278-.378 0-.679.109-.903.326-.224.212-.336.516-.336.913v1.45c0 .398.112.705.336.923.224.218.525.327.903.327.359 0 .64-.093.846-.28.211-.185.326-.444.346-.777h.864c-.02.563-.214 1.008-.586 1.335-.371.327-.861.49-1.47.49zm3.72-.096v-5.284h.864v2.181h.903l1.537-2.18h.99l-1.778 2.516L81.843 62h-1.01l-1.536-2.354h-.913V62h-.864zm5.66 0v-5.284h.827v2.882c0 .186-.007.381-.02.586-.006.205-.019.4-.038.586a6.1 6.1 0 01-.048.461l2.133-4.515h1.104V62h-.826v-2.882c0-.186.003-.381.01-.586.013-.205.029-.4.048-.586l.048-.47L84.284 62H83.18zm7.669.096c-.416 0-.781-.083-1.095-.25a1.807 1.807 0 01-.72-.701 2.203 2.203 0 01-.25-1.066v-1.441c0-.41.083-.766.25-1.067a1.8 1.8 0 01.72-.701 2.31 2.31 0 011.095-.25c.416 0 .778.084 1.086.25.313.166.554.4.72.701.173.301.26.657.26 1.067v.931h-3.286v.51c0 .416.106.736.317.96.211.218.512.327.903.327.333 0 .602-.058.807-.173a.764.764 0 00.375-.538h.864a1.472 1.472 0 01-.653 1.057c-.371.256-.836.384-1.393.384zm1.22-3.103v-.355c0-.417-.106-.737-.317-.961-.205-.224-.506-.336-.903-.336-.39 0-.692.112-.903.336-.211.224-.317.544-.317.96v.28h2.507l-.067.076zm8.987 4.736l.778-2.056-1.96-4.957h.961l1.23 3.267c.045.109.086.24.125.394l.096.374.096-.374c.038-.154.077-.285.115-.394l1.153-3.267h.932l-2.603 7.013h-.923zM105.938 62v-5.284h2.286c.551 0 .977.125 1.278.375.301.243.452.586.452 1.028 0 .365-.125.66-.375.884-.25.217-.58.326-.99.326v-.077c.449 0 .807.113 1.076.337.276.224.414.525.414.903 0 .474-.161.845-.481 1.114-.32.263-.768.394-1.345.394h-2.315zm.845-.759h1.47c.308 0 .545-.067.711-.202.173-.134.26-.323.26-.567 0-.25-.087-.441-.26-.576-.166-.134-.403-.202-.711-.202h-1.47v1.547zm0-2.296h1.441c.269 0 .481-.064.634-.192.161-.128.241-.307.241-.538 0-.23-.077-.41-.231-.538-.154-.135-.368-.202-.644-.202h-1.441v1.47zm6.824 3.151c-.417 0-.782-.083-1.096-.25a1.81 1.81 0 01-.72-.701 2.199 2.199 0 01-.25-1.066v-1.441c0-.41.083-.766.25-1.067a1.81 1.81 0 01.72-.701 2.31 2.31 0 011.096-.25c.416 0 .778.084 1.085.25.314.166.554.4.721.701.173.301.259.657.259 1.067v.931h-3.285v.51c0 .416.105.736.317.96.211.218.512.327.903.327.333 0 .602-.058.807-.173a.763.763 0 00.374-.538h.865a1.475 1.475 0 01-.653 1.057c-.372.256-.836.384-1.393.384zm1.22-3.103v-.355c0-.417-.106-.737-.317-.961-.205-.224-.506-.336-.903-.336-.391 0-.692.112-.903.336-.212.224-.317.544-.317.96v.28h2.507l-.067.076zm1.875 4.352V61.26h.433c.109-.109.221-.323.336-.643.122-.32.186-.727.192-1.22l.058-2.68h3.449v4.543h.672v2.085h-.768V62h-3.603v1.345h-.769zm1.345-2.085h2.258v-3.775h-1.768l-.038 1.93c-.006.507-.061.917-.163 1.23-.103.314-.199.52-.289.615zm6.939.817c-.423 0-.788-.08-1.095-.24a1.742 1.742 0 01-.721-.692c-.166-.307-.249-.67-.249-1.086v-1.402c0-.423.083-.785.249-1.086.173-.3.413-.531.721-.691.307-.16.672-.24 1.095-.24.423 0 .788.08 1.095.24.308.16.545.39.711.691.173.301.259.66.259 1.076v1.412c0 .417-.086.779-.259 1.086a1.677 1.677 0 01-.711.692c-.307.16-.672.24-1.095.24zm0-.769c.378 0 .672-.105.884-.317.211-.211.317-.522.317-.932v-1.402c0-.41-.106-.72-.317-.932-.212-.211-.506-.317-.884-.317-.372 0-.666.106-.884.317-.211.211-.317.522-.317.932v1.402c0 .41.106.72.317.932.218.212.512.317.884.317zm3.538.692v-5.284h1.172l.691 2.027c.071.205.135.41.193.615.057.199.099.352.124.461.026-.109.064-.262.116-.46.057-.206.118-.414.182-.625l.653-2.018h1.173V62h-.836v-.817c0-.288.003-.602.009-.941l.02-1.028c.012-.346.025-.672.038-.98.013-.314.022-.59.029-.826l-.942 3.007h-.912l-.951-2.988c.012.288.022.647.028 1.076.013.43.023.878.029 1.345.013.468.019.913.019 1.335V62h-.835zm5.199.067v-.807h.173c.295 0 .5-.115.615-.346.122-.23.186-.643.192-1.239l.058-2.959h3.583V62h-.864v-4.496h-1.864l-.048 2.21c-.013.557-.077 1.008-.192 1.354-.109.346-.282.599-.519.76-.231.16-.535.24-.913.24h-.221zm8.332.03a2.31 2.31 0 01-1.095-.25 1.806 1.806 0 01-.721-.702 2.21 2.21 0 01-.25-1.066v-1.441c0-.41.084-.766.25-1.067.173-.3.413-.535.721-.701a2.31 2.31 0 011.095-.25c.416 0 .778.084 1.085.25.314.166.554.4.721.701.173.301.259.657.259 1.067v.931h-3.285v.51c0 .416.106.736.317.96.211.218.512.327.903.327.333 0 .602-.058.807-.173a.764.764 0 00.375-.538h.864a1.469 1.469 0 01-.653 1.057c-.372.256-.836.384-1.393.384zm1.22-3.104v-.355c0-.417-.106-.737-.317-.961-.205-.224-.506-.336-.903-.336-.391 0-.692.112-.903.336-.211.224-.317.544-.317.96v.28h2.507l-.067.076zM145.766 62v-5.284h.864v2.2h2.229v-2.2h.865V62h-.865v-2.296h-2.229V62h-.864zm5.689 0v-5.284h.826v2.882c0 .186-.006.381-.019.586a8.08 8.08 0 01-.038.586c-.013.18-.029.333-.048.461l2.132-4.515h1.105V62h-.826v-2.882c0-.186.003-.381.01-.586.012-.205.028-.4.048-.586l.048-.47L152.56 62h-1.105zm5.363 0l1.355-2.037c-.404-.096-.717-.281-.942-.557-.217-.275-.326-.618-.326-1.028 0-.519.169-.925.509-1.22.346-.294.816-.442 1.412-.442h2.277V62h-.865v-1.97h-1.162L157.827 62h-1.009zm2.008-2.738h1.412v-1.777h-1.412c-.32 0-.573.08-.759.24-.186.154-.278.371-.278.653 0 .276.092.493.278.654.186.153.439.23.759.23zM14.289 82.345V80.26h.432c.109-.109.22-.323.336-.643.122-.32.186-.727.192-1.22l.058-2.68h3.449v4.543h.672v2.085h-.768V81h-3.603v1.345h-.768zm1.345-2.085h2.257v-3.775h-1.767l-.039 1.93c-.006.507-.06.917-.163 1.23-.103.314-.199.52-.288.615zm4.296.807v-.807h.173c.295 0 .5-.115.615-.346.122-.23.186-.643.192-1.239l.058-2.959h3.583V81h-.864v-4.496h-1.864l-.048 2.21c-.013.557-.077 1.008-.192 1.354-.11.346-.282.599-.52.76-.23.16-.534.24-.912.24h-.22zM25.956 81l1.355-2.037c-.404-.096-.718-.281-.942-.557-.218-.275-.326-.618-.326-1.028 0-.519.17-.925.509-1.22.346-.294.816-.442 1.412-.442h2.277V81h-.865v-1.97h-1.162L26.964 81h-1.008zm2.008-2.738h1.412v-1.777h-1.412c-.32 0-.573.08-.759.24-.186.154-.278.372-.278.653 0 .276.092.493.278.653.186.154.439.231.759.231zM37.691 81v-5.284h.865v2.181h.903l1.537-2.18h.99l-1.778 2.516L42.014 81h-1.009l-1.537-2.354h-.912V81h-.865zm4.998.067v-.807h.173c.294 0 .5-.115.615-.346.121-.23.185-.643.192-1.239l.058-2.959h3.583V81h-.865v-4.496h-1.864l-.048 2.21c-.012.557-.076 1.008-.192 1.354-.109.346-.282.599-.519.76-.23.16-.534.24-.912.24h-.221zM49.04 81v-5.284h.827v2.882c0 .186-.007.381-.02.586-.006.205-.019.4-.038.586a6.1 6.1 0 01-.048.462l2.133-4.516h1.104V81h-.826v-2.882c0-.186.003-.381.01-.586.013-.205.029-.4.048-.586l.048-.47L50.146 81h-1.105zm7.67.096c-.417 0-.782-.083-1.096-.25a1.807 1.807 0 01-.72-.701 2.204 2.204 0 01-.25-1.066v-1.441c0-.41.083-.766.25-1.067.172-.3.412-.534.72-.701a2.31 2.31 0 011.095-.25c.416 0 .778.084 1.086.25.313.166.554.4.72.701.173.301.26.657.26 1.067v.931H55.49v.51c0 .416.106.736.317.96.211.218.512.327.903.327.333 0 .602-.058.807-.173a.763.763 0 00.375-.538h.864a1.472 1.472 0 01-.653 1.057c-.371.256-.836.384-1.393.384zm1.22-3.103v-.355c0-.417-.106-.737-.318-.961-.205-.224-.506-.336-.903-.336-.39 0-.692.112-.903.336-.211.224-.317.544-.317.96v.28h2.507l-.067.076zM60.42 81v-5.284h.864v2.2h2.23v-2.2h.864V81h-.865v-2.296h-2.229V81h-.864zm7.236 0v-4.525h-1.921v-.759h4.707v.76h-1.921V81h-.865zm6.122.077c-.423 0-.788-.08-1.095-.24a1.744 1.744 0 01-.72-.692c-.167-.307-.25-.67-.25-1.086v-1.402c0-.423.083-.785.25-1.086.172-.3.412-.531.72-.691.307-.16.672-.24 1.095-.24.423 0 .788.08 1.095.24.308.16.545.39.711.691.173.301.26.66.26 1.076v1.412c0 .417-.087.779-.26 1.086a1.683 1.683 0 01-.71.692c-.308.16-.673.24-1.096.24zm0-.769c.378 0 .672-.105.884-.317.211-.211.317-.522.317-.932v-1.402c0-.41-.106-.72-.317-.932-.212-.211-.506-.317-.884-.317-.371 0-.666.106-.884.317-.211.211-.317.522-.317.932v1.402c0 .41.106.72.317.932.218.212.513.317.884.317zm3.71.692v-5.284h2.287c.55 0 .977.125 1.278.375.3.243.451.586.451 1.028 0 .365-.124.66-.374.884-.25.217-.58.326-.99.326v-.076c.448 0 .807.112 1.076.336.276.224.413.525.413.903 0 .474-.16.845-.48 1.114-.32.263-.769.394-1.345.394H77.49zm.846-.759h1.47c.307 0 .544-.067.71-.202.174-.134.26-.323.26-.567 0-.25-.086-.441-.26-.576-.166-.134-.403-.202-.71-.202h-1.47v1.547zm0-2.296h1.441c.27 0 .48-.064.634-.192.16-.128.24-.308.24-.538 0-.23-.077-.41-.23-.538-.154-.135-.368-.202-.644-.202h-1.44v1.47zM88.87 81v-5.284h.826v2.882c0 .186-.006.381-.019.586-.006.205-.02.4-.038.586-.013.18-.03.333-.049.462l2.133-4.516h1.105V81h-.826v-2.882c0-.186.003-.381.01-.586.012-.205.028-.4.047-.586l.048-.47L89.974 81h-1.105zm13.378.096c-.423 0-.795-.08-1.115-.24a1.73 1.73 0 01-.73-.692c-.173-.307-.259-.67-.259-1.085v-1.441c0-.423.086-.785.259-1.086a1.73 1.73 0 01.73-.692c.32-.16.692-.24 1.115-.24.608 0 1.098.163 1.469.49.372.327.567.772.586 1.335h-.864c-.019-.339-.135-.598-.346-.778-.205-.185-.487-.278-.845-.278-.378 0-.679.109-.903.326-.225.212-.337.516-.337.913v1.45c0 .398.112.705.337.923.224.218.525.326.903.326.358 0 .64-.092.845-.278.211-.186.327-.445.346-.778h.864c-.019.563-.214 1.008-.586 1.335-.371.327-.861.49-1.469.49zm5.67-.02c-.423 0-.788-.08-1.095-.24a1.742 1.742 0 01-.721-.691c-.166-.307-.249-.67-.249-1.086v-1.402c0-.423.083-.785.249-1.086.173-.3.413-.531.721-.691.307-.16.672-.24 1.095-.24.423 0 .788.08 1.095.24.308.16.545.39.711.691.173.301.259.66.259 1.076v1.412c0 .417-.086.779-.259 1.086a1.677 1.677 0 01-.711.692c-.307.16-.672.24-1.095.24zm0-.768c.378 0 .672-.105.884-.317.211-.211.317-.522.317-.932v-1.402c0-.41-.106-.72-.317-.932-.212-.211-.506-.317-.884-.317-.371 0-.666.106-.884.317-.211.211-.317.522-.317.932v1.402c0 .41.106.72.317.932.218.212.513.317.884.317zm5.257.692v-4.525h-1.921v-.759h4.707v.76h-1.921V81h-.865zm4.124 1.73v-7.014h.865v1.009h.173l-.173.202c0-.404.131-.72.394-.951.269-.237.621-.356 1.056-.356.532 0 .955.176 1.268.529.321.345.481.823.481 1.431v1.547c0 .403-.074.752-.221 1.047a1.575 1.575 0 01-.605.682c-.257.16-.564.24-.923.24-.429 0-.778-.118-1.047-.355-.269-.237-.403-.554-.403-.951l.173.201h-.193l.02 1.201v1.537h-.865zm2.027-2.383c.365 0 .65-.11.855-.327.211-.218.317-.531.317-.941v-1.441c0-.41-.106-.724-.317-.942-.205-.218-.49-.326-.855-.326-.352 0-.634.112-.845.336-.212.224-.317.535-.317.932v1.44c0 .398.105.708.317.932.211.225.493.337.845.337zm4.489 2.382l.778-2.056-1.96-4.957h.961l1.23 3.267c.044.108.086.24.125.393l.096.375c.025-.102.057-.227.096-.375.038-.153.077-.285.115-.393l1.153-3.267h.932l-2.604 7.013h-.922zm4.268-.384V80.26h.432c.109-.109.221-.323.336-.643.122-.32.186-.727.192-1.22l.058-2.68h3.449v4.543h.672v2.085h-.768V81h-3.603v1.345h-.768zm1.345-2.085h2.257v-3.775h-1.767l-.039 1.93c-.006.507-.061.917-.163 1.23-.103.314-.199.52-.288.615zm4.959.74v-5.284h.865v2.2h2.229v-2.2h.864V81h-.864v-2.296h-2.229V81h-.865zm5.69 0v-5.284h.826v2.882c0 .186-.006.381-.019.586-.007.205-.019.4-.039.586-.012.18-.028.333-.048.462l2.133-4.516h1.105V81h-.826v-2.882c0-.186.003-.381.009-.586.013-.205.029-.4.048-.586l.048-.47L141.181 81h-1.105zm5.718 0v-5.284h.865v2.181h.903l1.537-2.18h.99l-1.778 2.516L150.117 81h-1.008l-1.537-2.354h-.913V81h-.865zm7.64.077c-.422 0-.788-.08-1.095-.24a1.74 1.74 0 01-.72-.692c-.167-.307-.25-.67-.25-1.086v-1.402c0-.423.083-.785.25-1.086a1.74 1.74 0 01.72-.691c.307-.16.673-.24 1.095-.24.423 0 .788.08 1.095.24.308.16.545.39.711.691.173.301.26.66.26 1.076v1.412c0 .417-.087.779-.26 1.086a1.677 1.677 0 01-.711.692c-.307.16-.672.24-1.095.24zm0-.769c.378 0 .673-.105.884-.317.211-.211.317-.522.317-.932v-1.402c0-.41-.106-.72-.317-.932-.211-.211-.506-.317-.884-.317-.371 0-.666.106-.884.317-.211.211-.317.522-.317.932v1.402c0 .41.106.72.317.932.218.212.513.317.884.317zm3.711.692v-5.284h2.286c.551 0 .977.125 1.278.375.301.243.452.586.452 1.028 0 .365-.125.66-.375.884-.25.217-.58.326-.99.326v-.076c.449 0 .807.112 1.076.336.276.224.413.525.413.903 0 .474-.16.845-.48 1.114-.32.263-.768.394-1.345.394h-2.315zm.845-.759h1.47c.308 0 .544-.067.711-.202.173-.134.259-.323.259-.567 0-.25-.086-.441-.259-.576-.167-.134-.403-.202-.711-.202h-1.47v1.547zm0-2.296h1.441c.269 0 .481-.064.634-.192a.651.651 0 00.241-.538c0-.23-.077-.41-.231-.538-.154-.135-.368-.202-.644-.202h-1.441v1.47zM16.882 100.077c-.422 0-.787-.08-1.095-.24a1.744 1.744 0 01-.72-.692c-.167-.307-.25-.67-.25-1.086v-1.402c0-.423.083-.785.25-1.086.173-.3.413-.531.72-.691.308-.16.673-.24 1.095-.24.423 0 .788.08 1.096.24.307.16.544.39.71.691.174.301.26.66.26 1.076v1.412c0 .417-.087.779-.26 1.086a1.683 1.683 0 01-.71.692c-.308.16-.673.24-1.096.24zm0-.769c.378 0 .673-.105.884-.317.212-.211.317-.522.317-.932v-1.402c0-.41-.105-.72-.317-.932-.211-.211-.506-.317-.883-.317-.372 0-.667.106-.884.317-.212.211-.317.522-.317.932v1.402c0 .41.105.72.317.932.217.212.512.317.883.317zm9.4.692v-5.284h3.959V100h-.865v-4.496h-2.229V100h-.864zm5.671 1.729v-7.013h.865v1.009h.173l-.173.202c0-.404.131-.72.394-.951.269-.237.621-.356 1.056-.356.532 0 .955.176 1.269.529.32.345.48.823.48 1.431v1.547c0 .403-.074.752-.221 1.047a1.57 1.57 0 01-.605.682c-.256.16-.564.24-.922.24-.43 0-.779-.118-1.048-.355s-.403-.554-.403-.951l.173.201h-.192l.019 1.201v1.537h-.865zm2.027-2.382c.365 0 .65-.11.855-.327.212-.218.317-.531.317-.941v-1.441c0-.41-.105-.724-.317-.942-.205-.218-.49-.326-.855-.326-.352 0-.634.112-.845.336-.211.224-.317.535-.317.932v1.44c0 .398.106.708.317.932.211.225.493.337.845.337zm5.661.749a2.3 2.3 0 01-1.095-.25 1.807 1.807 0 01-.72-.701 2.203 2.203 0 01-.25-1.066v-1.441c0-.41.083-.766.25-1.067.172-.3.413-.534.72-.701a2.31 2.31 0 011.095-.25c.416 0 .778.084 1.086.25.314.166.554.4.72.701.173.301.26.657.26 1.067v.931H38.42v.51c0 .416.106.736.317.96.211.218.513.327.903.327.333 0 .602-.058.807-.173a.764.764 0 00.375-.538h.864a1.472 1.472 0 01-.653 1.057c-.371.256-.836.384-1.393.384zm1.22-3.103v-.355c0-.417-.105-.737-.317-.961-.205-.224-.506-.336-.903-.336-.39 0-.692.112-.903.336-.211.224-.317.544-.317.96v.28h2.507l-.067.076zm1.876 4.352V99.26h.432c.11-.109.221-.323.337-.643.121-.32.185-.727.192-1.22l.057-2.68h3.45v4.543h.672v2.085h-.769V100h-3.602v1.345h-.769zm1.345-2.085h2.258v-3.775h-1.768l-.039 1.93c-.006.507-.06.917-.163 1.23-.102.314-.198.52-.288.615zm6.958.836c-.423 0-.794-.08-1.115-.24a1.73 1.73 0 01-.73-.692c-.173-.307-.26-.67-.26-1.085v-1.441c0-.423.087-.785.26-1.086a1.73 1.73 0 01.73-.692c.32-.16.692-.24 1.115-.24.608 0 1.098.163 1.47.49.37.327.566.772.586 1.335h-.865c-.02-.339-.135-.598-.346-.778-.205-.185-.487-.278-.845-.278-.378 0-.68.109-.903.326-.224.212-.337.516-.337.913v1.45c0 .398.113.705.337.923.224.218.525.326.903.326.358 0 .64-.092.845-.278.211-.186.327-.445.346-.778h.864c-.019.563-.214 1.008-.585 1.335-.372.327-.862.49-1.47.49zm5.238-.096v-4.525h-1.922v-.759h4.708v.76h-1.922V100h-.864zm6.122.077c-.423 0-.788-.08-1.095-.24a1.744 1.744 0 01-.72-.692c-.167-.307-.25-.67-.25-1.086v-1.402c0-.423.083-.785.25-1.086.172-.3.412-.531.72-.691.307-.16.672-.24 1.095-.24.422 0 .788.08 1.095.24.307.16.544.39.71.691.174.301.26.66.26 1.076v1.412c0 .417-.086.779-.26 1.086a1.683 1.683 0 01-.71.692c-.307.16-.673.24-1.095.24zm0-.769c.378 0 .672-.105.884-.317.21-.211.317-.522.317-.932v-1.402c0-.41-.106-.72-.317-.932-.212-.211-.506-.317-.884-.317-.372 0-.666.106-.884.317-.211.211-.317.522-.317.932v1.402c0 .41.106.72.317.932.218.212.512.317.884.317zm3.384.692l1.354-2.037c-.403-.096-.717-.281-.941-.557-.218-.275-.327-.618-.327-1.028 0-.519.17-.925.51-1.22.345-.294.816-.442 1.412-.442h2.276V100h-.864v-1.97H68.04L66.793 100h-1.01zm2.008-2.738h1.412v-1.777h-1.412c-.32 0-.574.08-.76.24-.185.154-.278.372-.278.653 0 .276.093.493.279.653.185.154.438.231.759.231zm7.86 4.083V100h-4.14v-5.284h.778v4.554h1.114v-4.554h.673v4.554h1.114v-4.554h.778v4.554h.452v2.075h-.769zM77.49 100v-5.284h.826v2.882c0 .186-.007.381-.02.586-.006.205-.019.4-.038.586-.012.18-.029.333-.048.462l2.133-4.516h1.105V100h-.826v-2.882c0-.186.003-.381.01-.586.012-.205.028-.4.047-.586l.048-.47L78.594 100H77.49zm5.267 0l1.873-2.719-1.758-2.565h1.018l1.047 1.633c.045.07.087.148.125.231.045.083.08.15.106.202.02-.051.048-.119.086-.202a3.6 3.6 0 01.135-.23l1.057-1.634h1.008l-1.758 2.575L87.56 100h-1.018l-1.134-1.73c-.045-.07-.09-.15-.134-.24a2.082 2.082 0 00-.106-.23 3.806 3.806 0 01-.26.47L83.766 100h-1.008zm13.53.067c-.556 0-1.014-.118-1.373-.355a1.412 1.412 0 01-.634-.96h.913c.045.16.163.29.355.393.199.103.445.154.74.154h.451c.314 0 .558-.074.73-.221a.71.71 0 00.27-.577c0-.256-.087-.458-.26-.605-.166-.147-.413-.22-.74-.22h-1.162v-.75h1.134c.294 0 .518-.07.672-.212a.72.72 0 00.23-.557.728.728 0 00-.105-.403.611.611 0 00-.298-.25 1.242 1.242 0 00-.49-.086h-.48c-.256 0-.477.057-.663.172-.186.116-.298.257-.336.423h-.913c.064-.397.272-.724.625-.98.352-.256.78-.384 1.287-.384h.48c.378 0 .701.06.97.183.27.115.474.281.615.5.148.217.221.476.221.777 0 .314-.102.574-.307.778-.205.199-.493.311-.865.337v.038c.455.032.785.154.99.365.205.212.307.516.307.913 0 .467-.173.839-.519 1.114-.345.276-.81.413-1.393.413h-.451zm5.479.029c-.557 0-.996-.14-1.316-.423-.32-.288-.48-.675-.48-1.162 0-.493.16-.88.48-1.162.32-.282.753-.423 1.297-.423h1.633v-.529c0-.326-.099-.576-.298-.749-.192-.18-.467-.269-.826-.269-.314 0-.576.067-.788.202a.718.718 0 00-.365.528h-.864c.057-.454.272-.816.643-1.085.372-.27.836-.404 1.393-.404.609 0 1.089.157 1.441.471.353.314.529.74.529 1.278V100h-.846v-1.009h-.144l.144-.144c0 .385-.15.689-.451.913-.295.224-.689.336-1.182.336zm.212-.682c.409 0 .746-.103 1.008-.307a.956.956 0 00.394-.788v-.75h-1.614c-.288 0-.515.08-.682.24-.166.16-.25.379-.25.654 0 .294.1.528.298.701.205.167.487.25.846.25zm3.96.586v-5.284h.865v2.2h2.228v-2.2h.865V100h-.865v-2.296h-2.228V100h-.865zm5.363 0l1.355-2.037c-.404-.096-.718-.281-.942-.557-.218-.275-.327-.618-.327-1.028 0-.519.17-.925.51-1.22.345-.294.816-.442 1.412-.442h2.277V100h-.865v-1.97h-1.162L112.31 100h-1.009zm2.008-2.738h1.412v-1.777h-1.412c-.32 0-.573.08-.759.24-.186.154-.279.372-.279.653 0 .276.093.493.279.653.186.154.439.231.759.231zm5.555 2.738v-4.525h-1.921v-.759h4.707v.76h-1.921V100h-.865zm4.143 0v-5.284h.826v2.882c0 .186-.006.381-.019.586a8.08 8.08 0 01-.038.586c-.013.18-.029.333-.049.462l2.133-4.516h1.105V100h-.826v-2.882c0-.186.003-.381.009-.586.013-.205.029-.4.048-.586l.048-.47-2.132 4.524h-1.105zm5.363 0l1.355-2.037c-.404-.096-.718-.281-.942-.557-.218-.275-.327-.618-.327-1.028 0-.519.17-.925.51-1.22.345-.294.816-.442 1.412-.442h2.277V100h-.865v-1.97h-1.162l-1.249 1.97h-1.009zm2.008-2.738h1.412v-1.777h-1.412c-.32 0-.573.08-.759.24-.186.154-.279.372-.279.653 0 .276.093.493.279.653.186.154.439.231.759.231zm3.586 2.738l1.873-2.719-1.758-2.565h1.018l1.047 1.633c.045.07.087.148.125.231.045.083.08.15.106.202.019-.051.048-.119.086-.202a3.6 3.6 0 01.135-.23l1.057-1.634h1.008l-1.758 2.575 1.864 2.709h-1.018l-1.134-1.73c-.045-.07-.09-.15-.134-.24a2.19 2.19 0 00-.106-.23 4.158 4.158 0 01-.115.23 1.65 1.65 0 01-.145.24l-1.143 1.73h-1.008zm6.794 1.537l.769-2.988h1.248l-1.248 2.988h-.769zM14.903 120v-5.284h.827v2.882c0 .186-.007.381-.02.586a8.055 8.055 0 01-.038.586 6.05 6.05 0 01-.048.461l2.133-4.515h1.104V120h-.826v-2.882c0-.186.003-.381.01-.586.013-.205.029-.4.048-.586l.048-.471L16.008 120h-1.104zm7.42.067c-.558 0-1.016-.118-1.374-.355a1.412 1.412 0 01-.634-.961h.912c.045.16.163.292.356.394.198.102.445.154.74.154h.45c.315 0 .558-.074.731-.221a.713.713 0 00.269-.577c0-.256-.087-.458-.26-.605-.166-.147-.413-.221-.74-.221h-1.162v-.749h1.134c.295 0 .519-.071.673-.212a.718.718 0 00.23-.557.726.726 0 00-.106-.403.612.612 0 00-.297-.25 1.236 1.236 0 00-.49-.086h-.48c-.257 0-.478.057-.663.173-.186.115-.298.256-.337.422h-.912c.064-.397.272-.724.624-.98s.781-.384 1.287-.384h.48c.379 0 .702.061.971.183.269.115.474.281.615.499.147.218.22.477.22.778 0 .314-.102.573-.307.778-.205.199-.493.311-.864.337v.038c.454.032.784.154.99.365.204.211.307.516.307.913 0 .467-.173.839-.52 1.114-.345.276-.81.413-1.392.413h-.452zM26.11 120v-5.284h1.172l.692 2.027c.07.205.134.41.192.615.057.199.099.352.125.461.025-.109.064-.262.115-.461.058-.205.118-.413.182-.624l.654-2.018h1.172V120h-.836v-.817c0-.288.003-.602.01-.941l.019-1.028c.013-.346.025-.672.038-.98.013-.314.023-.589.029-.826l-.941 3.007h-.913l-.951-2.988c.013.288.022.647.029 1.076.012.429.022.878.029 1.345.012.468.019.913.019 1.335V120h-.836zm7.842.096c-.417 0-.782-.083-1.096-.25a1.803 1.803 0 01-.72-.701 2.203 2.203 0 01-.25-1.066v-1.441c0-.41.083-.766.25-1.067a1.81 1.81 0 01.72-.701c.314-.167.68-.25 1.096-.25.416 0 .778.083 1.085.25.314.167.554.4.72.701.174.301.26.657.26 1.067v.931H32.73v.51c0 .416.106.736.317.96.212.218.513.327.904.327.333 0 .602-.058.806-.173a.764.764 0 00.375-.538h.865a1.473 1.473 0 01-.654 1.057c-.371.256-.835.384-1.392.384zm1.22-3.103v-.355c0-.417-.106-.737-.317-.961-.205-.224-.506-.336-.903-.336-.391 0-.692.112-.904.336-.21.224-.317.544-.317.961v.278h2.508l-.067.077zm2.49 3.007v-5.284h.865v2.2h2.228v-2.2h.865V120h-.864v-2.296h-2.23V120h-.864zm7.669.096c-.417 0-.782-.083-1.095-.25a1.803 1.803 0 01-.72-.701 2.203 2.203 0 01-.25-1.066v-1.441c0-.41.083-.766.25-1.067a1.81 1.81 0 01.72-.701c.313-.167.678-.25 1.095-.25.416 0 .778.083 1.085.25.314.167.554.4.72.701.174.301.26.657.26 1.067v.931h-3.285v.51c0 .416.105.736.317.96.211.218.512.327.903.327.333 0 .602-.058.807-.173a.764.764 0 00.374-.538h.865a1.473 1.473 0 01-.653 1.057c-.372.256-.836.384-1.393.384zm1.22-3.103v-.355c0-.417-.106-.737-.317-.961-.205-.224-.506-.336-.903-.336-.39 0-.692.112-.903.336-.212.224-.317.544-.317.961v.278h2.507l-.067.077zM49.04 120v-5.284h.865v2.2h2.229v-2.2h.864V120h-.864v-2.296h-2.229V120h-.864zm5.69 0v-5.284h.826v2.882c0 .186-.006.381-.019.586a8.66 8.66 0 01-.038.586c-.013.18-.03.333-.048.461l2.132-4.515h1.105V120h-.826v-2.882c0-.186.003-.381.01-.586.012-.205.028-.4.047-.586l.049-.471L55.836 120H54.73zm5.363 0l1.355-2.037c-.404-.096-.718-.281-.942-.557-.218-.275-.326-.618-.326-1.028 0-.519.17-.925.509-1.22.346-.294.816-.442 1.412-.442h2.277V120h-.865v-1.969h-1.162L61.102 120h-1.008zm2.008-2.738h1.412v-1.777h-1.412c-.32 0-.573.08-.759.24-.186.154-.279.371-.279.653 0 .276.093.493.279.654.186.153.439.23.759.23zM65.688 120l1.873-2.719-1.758-2.565h1.018l1.047 1.633c.045.071.087.148.125.231.045.083.08.151.106.202a3.08 3.08 0 01.087-.202c.044-.083.09-.16.134-.231l1.057-1.633h1.008l-1.758 2.575L70.491 120h-1.018l-1.134-1.729a2.835 2.835 0 01-.134-.24 2.129 2.129 0 00-.106-.231 3.625 3.625 0 01-.26.471L66.697 120h-1.008zm11.802 0v-5.284h2.286c.55 0 .977.125 1.278.375.3.243.451.586.451 1.028 0 .365-.124.66-.374.884-.25.217-.58.326-.99.326v-.077c.448 0 .807.113 1.076.337.276.224.413.525.413.903 0 .474-.16.845-.48 1.114-.32.263-.769.394-1.345.394H77.49zm.845-.759h1.47c.307 0 .544-.067.71-.202.174-.134.26-.323.26-.566 0-.25-.086-.442-.26-.577-.166-.134-.403-.202-.71-.202h-1.47v1.547zm0-2.296h1.441c.27 0 .48-.064.634-.192.16-.128.24-.307.24-.538 0-.231-.077-.41-.23-.538-.154-.135-.368-.202-.644-.202h-1.44v1.47zm10.515 4.784v-7.013h.864v1.009h.173l-.173.202c0-.404.132-.721.394-.951.27-.237.621-.356 1.057-.356.532 0 .954.176 1.268.529.32.345.48.823.48 1.431v1.547c0 .403-.073.752-.22 1.047a1.573 1.573 0 01-.606.682c-.256.16-.563.24-.922.24-.43 0-.778-.118-1.047-.355-.27-.237-.404-.554-.404-.951l.173.201h-.192l.02 1.201v1.537h-.865zm2.027-2.382c.365 0 .65-.109.855-.327.211-.218.317-.531.317-.941v-1.441c0-.41-.106-.724-.317-.942-.205-.218-.49-.326-.855-.326-.352 0-.634.112-.846.336-.21.224-.317.535-.317.932v1.441c0 .397.106.707.317.932.212.224.494.336.846.336zm5.2.749c-.558 0-.996-.141-1.317-.423-.32-.288-.48-.675-.48-1.162 0-.493.16-.881.48-1.162.32-.282.753-.423 1.297-.423h1.633v-.529c0-.326-.099-.576-.297-.749-.192-.179-.468-.269-.826-.269-.314 0-.577.067-.788.202a.717.717 0 00-.365.528h-.865c.058-.454.272-.816.644-1.085.371-.269.835-.404 1.393-.404.608 0 1.088.157 1.44.471.353.314.53.74.53 1.278V120h-.846v-1.009h-.144l.144-.144c0 .384-.15.689-.452.913-.294.224-.688.336-1.181.336zm.21-.682c.41 0 .747-.102 1.01-.307a.957.957 0 00.394-.788v-.75h-1.614c-.289 0-.516.081-.683.241-.166.16-.25.378-.25.653 0 .295.1.528.298.701.206.167.487.25.846.25zm5.96.682c-.423 0-.795-.08-1.115-.24a1.73 1.73 0 01-.73-.692c-.173-.307-.259-.669-.259-1.085v-1.441c0-.423.086-.785.259-1.086.173-.301.416-.531.73-.692.32-.16.692-.24 1.115-.24.608 0 1.098.164 1.469.49.372.327.567.772.586 1.336h-.864c-.019-.34-.135-.599-.346-.779-.205-.185-.487-.278-.845-.278-.378 0-.679.109-.903.326-.225.212-.337.516-.337.913v1.451c0 .397.112.704.337.922.224.218.525.327.903.327.358 0 .64-.093.845-.279.211-.186.327-.445.346-.778h.864c-.019.563-.214 1.008-.586 1.335-.371.327-.861.49-1.469.49zm3.691-.096v-5.284h3.958V120h-.865v-4.496h-2.228V120h-.865zm5.69 0v-5.284h.826v2.882c0 .186-.007.381-.019.586a8.64 8.64 0 01-.039.586c-.013.18-.029.333-.048.461l2.133-4.515h1.105V120h-.827v-2.882c0-.186.004-.381.01-.586.013-.205.029-.4.048-.586l.048-.471-2.133 4.525h-1.104zm7.688.096c-.423 0-.795-.08-1.115-.24a1.73 1.73 0 01-.73-.692c-.173-.307-.259-.669-.259-1.085v-1.441c0-.423.086-.785.259-1.086.173-.301.416-.531.73-.692.32-.16.692-.24 1.115-.24.608 0 1.098.164 1.469.49.372.327.567.772.586 1.336h-.864c-.019-.34-.135-.599-.346-.779-.205-.185-.487-.278-.845-.278-.378 0-.679.109-.904.326-.224.212-.336.516-.336.913v1.451c0 .397.112.704.336.922.225.218.526.327.904.327.358 0 .64-.093.845-.279.211-.186.327-.445.346-.778h.864c-.019.563-.214 1.008-.586 1.335-.371.327-.861.49-1.469.49zm5.209 0c-.557 0-.996-.141-1.316-.423-.321-.288-.481-.675-.481-1.162 0-.493.16-.881.481-1.162.32-.282.752-.423 1.297-.423h1.633v-.529c0-.326-.1-.576-.298-.749-.192-.179-.468-.269-.826-.269-.314 0-.577.067-.788.202a.718.718 0 00-.365.528h-.865c.058-.454.273-.816.644-1.085s.836-.404 1.393-.404c.608 0 1.089.157 1.441.471.352.314.528.74.528 1.278V120h-.845v-1.009h-.144l.144-.144c0 .384-.151.689-.452.913-.294.224-.688.336-1.181.336zm.211-.682c.41 0 .746-.102 1.009-.307a.959.959 0 00.394-.788v-.75h-1.614c-.288 0-.516.081-.682.241-.167.16-.25.378-.25.653 0 .295.099.528.298.701.205.167.487.25.845.25zm3.961.586v-5.284h.864v2.2h2.229v-2.2h.865V120h-.865v-2.296h-2.229V120h-.864zm5.689 0v-5.284h.826v2.882c0 .186-.006.381-.019.586a8.055 8.055 0 01-.038.586c-.013.18-.029.333-.048.461l2.132-4.515h1.105V120h-.826v-2.882c0-.186.003-.381.01-.586.012-.205.028-.4.048-.586l.048-.471-2.133 4.525h-1.105zm5.69 0v-5.284h.826v2.882c0 .186-.006.381-.019.586a8.038 8.038 0 01-.039.586c-.012.18-.028.333-.048.461l2.133-4.515h1.105V120h-.826v-2.882c0-.186.003-.381.009-.586.013-.205.029-.4.048-.586l.048-.471-2.132 4.525h-1.105zM14.904 139v-5.284h.826v2.882c0 .186-.007.381-.02.586a8.055 8.055 0 01-.038.586 6.05 6.05 0 01-.048.461l2.133-4.515h1.104V139h-.826v-2.882c0-.186.003-.381.01-.586.013-.205.029-.4.048-.586l.048-.471L16.008 139h-1.104zm12.925 0v-4.525h-1.92v-.759h4.707v.759h-1.922V139h-.864zm6.123.096c-.244 0-.44-.07-.587-.211-.14-.141-.21-.33-.21-.567 0-.25.07-.448.21-.596.148-.147.343-.221.587-.221.243 0 .435.074.576.221.147.148.22.346.22.596 0 .237-.073.426-.22.567-.141.141-.333.211-.576.211zm3.095 1.249v-2.085h.433c.109-.109.22-.323.336-.643.121-.321.186-.727.192-1.22l.058-2.681h3.448v4.544h.673v2.085h-.769V139h-3.602v1.345h-.769zm1.345-2.085h2.258v-3.775h-1.768l-.038 1.931c-.007.506-.061.916-.163 1.229-.103.314-.2.519-.289.615zm6.939.836c-.244 0-.439-.07-.586-.211-.141-.141-.212-.33-.212-.567 0-.25.07-.448.212-.596.147-.147.342-.221.586-.221.243 0 .435.074.576.221.148.148.221.346.221.596 0 .237-.074.426-.22.567-.142.141-.334.211-.577.211zM14.74 18v-7.013h2.152c.679 0 1.217.163 1.614.49.397.32.596.759.596 1.316 0 .314-.07.586-.212.817-.14.23-.333.41-.576.538a1.71 1.71 0 01-.826.192v-.04c.34-.006.64.058.903.192.269.129.48.32.634.577.16.256.24.567.24.932 0 .403-.093.756-.279 1.056a1.866 1.866 0 01-.787.702c-.333.16-.734.24-1.201.24H14.74zm1.172-1h1.009c.352 0 .628-.092.826-.278.205-.192.308-.451.308-.778s-.103-.59-.308-.788c-.198-.205-.474-.307-.826-.307h-1.009v2.152zm0-3.121h.96c.321 0 .57-.084.75-.25.186-.173.279-.407.279-.701 0-.295-.093-.526-.279-.692-.18-.167-.429-.25-.75-.25h-.96v1.893zM20.44 18v-5.284h1.201v2.046h1.864v-2.046h1.2V18h-1.2v-2.123H21.64V18h-1.2zm7.832.096c-.448 0-.839-.086-1.172-.26a1.923 1.923 0 01-.778-.72 2.168 2.168 0 01-.269-1.095v-1.326c0-.416.09-.778.27-1.085.185-.314.444-.557.777-.73.333-.173.724-.26 1.172-.26.442 0 .827.087 1.153.26.333.172.59.416.769.73.185.307.278.669.278 1.085v.951h-3.256v.375c0 .371.09.653.269.845.179.186.445.279.797.279.269 0 .487-.045.653-.134a.642.642 0 00.317-.414h1.182c-.09.455-.333.82-.73 1.096-.39.269-.868.403-1.432.403zm1.038-3.122v-.288c0-.365-.087-.644-.26-.836-.172-.199-.432-.298-.778-.298-.345 0-.608.1-.787.298-.18.198-.27.48-.27.845v.202l2.181-.02-.086.097zm2 4.37v-2.362h.356c.109-.11.221-.308.336-.596.122-.294.186-.66.192-1.095l.058-2.575h3.699v4.266h.624v2.363H35.47V18h-3.055v1.345H31.31zm1.576-2.362h1.922v-3.219h-1.442l-.038 1.528c-.006.429-.06.79-.163 1.085-.096.289-.19.49-.279.606zm4.614 2.747v-7.013h1.172v1.009h.269l-.27.279c0-.43.129-.766.385-1.01.256-.249.602-.374 1.038-.374.531 0 .957.183 1.277.548.32.365.48.855.48 1.47v1.431c0 .41-.073.769-.22 1.076a1.623 1.623 0 01-.605.701c-.263.167-.574.25-.932.25-.436 0-.782-.122-1.038-.365-.256-.25-.384-.59-.384-1.018l.269.278h-.279l.039 1.259v1.48H37.5zm2.171-2.67c.307 0 .547-.09.72-.27.173-.179.26-.435.26-.768v-1.326c0-.333-.087-.589-.26-.768-.172-.18-.413-.27-.72-.27-.301 0-.538.094-.71.28-.174.179-.26.432-.26.758v1.326c0 .327.086.583.26.769.172.179.409.268.71.268zm5.67 1.037c-.448 0-.839-.086-1.172-.26a1.923 1.923 0 01-.778-.72 2.17 2.17 0 01-.269-1.095v-1.326c0-.416.09-.778.27-1.085.185-.314.444-.557.777-.73.333-.173.724-.26 1.172-.26.442 0 .827.087 1.153.26.333.172.59.416.769.73.185.307.278.669.278 1.085v.951h-3.256v.375c0 .371.09.653.269.845.179.186.445.279.797.279.269 0 .487-.045.653-.134a.642.642 0 00.317-.414h1.182c-.09.455-.333.82-.73 1.096-.39.269-.868.403-1.432.403zm1.038-3.122v-.288c0-.365-.087-.644-.26-.836-.172-.199-.432-.298-.778-.298-.346 0-.608.1-.787.298-.18.198-.27.48-.27.845v.202l2.181-.02-.086.097zM48.888 18v-5.284h1.2v2.046h1.864v-2.046h1.201V18h-1.2v-2.123h-1.864V18h-1.201zm5.69 0v-5.284h1.085v2.604c0 .166-.01.365-.029.595a11.758 11.758 0 01-.134 1.23l1.863-4.429h1.48V18h-1.086v-2.603c0-.173.007-.366.02-.577l.057-.624c.026-.205.051-.378.077-.519L56.057 18h-1.48zm7.831.096c-.448 0-.839-.086-1.172-.26a1.923 1.923 0 01-.778-.72 2.17 2.17 0 01-.269-1.095v-1.326c0-.416.09-.778.27-1.085.185-.314.444-.557.777-.73.333-.173.724-.26 1.172-.26.442 0 .827.087 1.153.26.333.172.59.416.769.73.185.307.278.669.278 1.085v.951h-3.256v.375c0 .371.09.653.269.845.179.186.445.279.797.279.269 0 .487-.045.653-.134a.642.642 0 00.317-.414h1.182c-.09.455-.333.82-.73 1.096-.39.269-.868.403-1.432.403zm1.038-3.122v-.288c0-.365-.087-.644-.26-.836-.172-.199-.432-.298-.778-.298-.346 0-.608.1-.787.298-.18.198-.27.48-.27.845v.202l2.181-.02-.086.097zm8.2 3.026v-5.284h1.2v2.046h1.864v-2.046h1.2V18h-1.2v-2.123h-1.864V18h-1.2zm7.236.096c-.545 0-.974-.144-1.288-.432-.313-.288-.47-.676-.47-1.163 0-.518.173-.919.518-1.2.346-.282.836-.423 1.47-.423h1.316v-.452c0-.256-.083-.454-.25-.595-.166-.148-.393-.221-.681-.221-.263 0-.48.057-.654.173a.675.675 0 00-.307.47h-1.172c.058-.5.282-.896.672-1.19.391-.296.89-.443 1.499-.443.647 0 1.156.164 1.527.49.378.32.567.756.567 1.307V18h-1.162v-.922h-.192l.192-.26c0 .391-.144.702-.433.932-.288.23-.672.346-1.152.346zm.394-.903c.339 0 .614-.086.826-.26a.82.82 0 00.326-.672v-.643h-1.297c-.243 0-.438.07-.586.21a.736.736 0 00-.22.558c0 .25.083.448.25.596.172.14.406.211.7.211zm3.749.807v-5.284h4.265V18h-1.2v-4.17h-1.864V18h-1.201zm7.822.087c-.448 0-.839-.084-1.172-.25a1.938 1.938 0 01-.769-.72 2.2 2.2 0 01-.269-1.106v-1.306c0-.423.09-.788.27-1.095a1.84 1.84 0 01.768-.72c.333-.174.724-.26 1.172-.26.455 0 .845.086 1.172.26.327.166.58.406.759.72.186.307.279.669.279 1.085v1.316c0 .423-.093.791-.279 1.105-.18.308-.432.548-.759.72-.327.167-.717.25-1.172.25zm0-1.048c.32 0 .567-.086.74-.26.18-.178.269-.435.269-.768v-1.306c0-.34-.09-.596-.27-.769-.172-.173-.419-.259-.739-.259-.314 0-.56.086-.74.26-.179.172-.269.428-.269.768v1.306c0 .333.09.59.27.769.179.173.425.26.739.26zm3.346.961v-5.284h1.44l.654 1.989c.07.218.128.423.173.615.051.192.083.336.096.432l.086-.432c.045-.192.103-.397.173-.615l.625-1.989h1.44V18h-1.114v-.903a37.41 37.41 0 01.039-1.71c.013-.314.025-.612.038-.894a98.7 98.7 0 00.048-.758l-.797 2.738H96l-.826-2.729c.019.27.038.602.057 1a36.781 36.781 0 01.077 2.354V18h-1.114zm5.901 0v-5.284h1.085v2.604c0 .166-.009.365-.029.595-.012.225-.032.445-.057.663-.026.218-.052.407-.077.567l1.864-4.429h1.479V18h-1.086v-2.603c0-.173.007-.366.02-.577l.057-.624c.026-.205.052-.378.077-.519L101.574 18h-1.479zm5.689 0v-5.284h1.201v2.046h1.864v-2.046h1.201V18h-1.201v-2.123h-1.864V18h-1.201zm7.237.096c-.545 0-.974-.144-1.288-.432-.313-.288-.47-.676-.47-1.163 0-.518.173-.919.518-1.2.346-.282.836-.423 1.47-.423h1.316v-.452c0-.256-.083-.454-.249-.595-.167-.148-.394-.221-.683-.221-.262 0-.48.057-.653.173a.674.674 0 00-.307.47h-1.172c.057-.5.282-.896.672-1.19.391-.296.89-.443 1.499-.443.647 0 1.156.164 1.527.49.378.32.567.756.567 1.307V18h-1.162v-.922h-.192l.192-.26c0 .391-.144.702-.433.932-.288.23-.672.346-1.152.346zm.394-.903c.339 0 .614-.086.826-.26a.82.82 0 00.326-.672v-.643h-1.297c-.243 0-.438.07-.586.21a.737.737 0 00-.221.558c0 .25.084.448.25.596.173.14.407.211.702.211zm3.749.807v-5.284h1.2v2.046h1.864v-2.046h1.201V18h-1.201v-2.123h-1.864V18h-1.2zm5.689 0v-5.284h1.086v2.604c0 .166-.01.365-.029.595a14.138 14.138 0 01-.134 1.23l1.863-4.429h1.48V18h-1.086v-2.603c0-.173.006-.366.019-.577l.058-.624c.026-.205.051-.378.077-.519L124.333 18h-1.48zm5.69 0v-5.284h1.085v2.604c0 .166-.009.365-.028.595a13.964 13.964 0 01-.135 1.23l1.864-4.429h1.479V18h-1.085v-2.603c0-.173.006-.366.019-.577.019-.211.038-.42.058-.624.025-.205.051-.378.076-.519L130.022 18h-1.479zm2.171-6.12c-.5 0-.906-.13-1.22-.393a1.289 1.289 0 01-.461-1.028h.932c0 .211.067.38.201.509a.784.784 0 00.548.192c.224 0 .404-.064.538-.192a.654.654 0 00.211-.51h.932c0 .423-.153.766-.461 1.029-.307.262-.714.393-1.22.393zM14.75 37v-5.284h1.085v2.604c0 .166-.01.365-.028.595a13.998 13.998 0 01-.134 1.23l1.863-4.429h1.48V37H17.93v-2.603c0-.173.006-.365.019-.577l.057-.624c.026-.205.052-.378.077-.519L16.23 37h-1.48zm13.512.087c-.448 0-.84-.084-1.172-.25a1.938 1.938 0 01-.769-.72c-.18-.315-.269-.683-.269-1.106v-1.306c0-.423.09-.788.27-1.095a1.84 1.84 0 01.768-.72c.333-.174.724-.26 1.172-.26.454 0 .845.086 1.172.26.326.166.58.406.759.72.185.307.278.669.278 1.085v1.316c0 .423-.093.791-.278 1.105-.18.308-.433.548-.76.72-.326.167-.716.25-1.171.25zm0-1.048c.32 0 .567-.086.74-.26.179-.178.268-.435.268-.768v-1.306c0-.34-.09-.596-.268-.769-.173-.173-.42-.259-.74-.259-.314 0-.56.086-.74.26-.18.172-.269.428-.269.768v1.306c0 .333.09.59.27.769.178.173.425.26.739.26zm3.557.961v-5.284h4.265V37h-1.2v-4.17H33.02V37h-1.201zm7.822.087c-.448 0-.839-.084-1.172-.25a1.938 1.938 0 01-.768-.72c-.18-.315-.27-.683-.27-1.106v-1.306c0-.423.09-.788.27-1.095a1.84 1.84 0 01.768-.72c.333-.174.724-.26 1.172-.26.455 0 .846.086 1.172.26.327.166.58.406.76.72.185.307.278.669.278 1.085v1.316c0 .423-.093.791-.279 1.105-.18.308-.432.548-.759.72-.327.167-.717.25-1.172.25zm0-1.048c.32 0 .567-.086.74-.26.18-.178.269-.435.269-.768v-1.306c0-.34-.09-.596-.27-.769-.172-.173-.419-.259-.739-.259-.314 0-.56.086-.74.26-.179.172-.269.428-.269.768v1.306c0 .333.09.59.27.769.179.173.425.26.74.26zm3.547.961v-5.284h2.344c.609 0 1.086.128 1.432.385.352.25.528.595.528 1.037 0 .359-.137.647-.413.865-.269.217-.627.326-1.076.326v-.086c.487 0 .878.115 1.172.346.295.224.442.525.442.903 0 .467-.18.836-.538 1.105-.352.268-.839.403-1.46.403h-2.43zm1.182-.913h1.21c.27 0 .48-.06.635-.182a.593.593 0 00.23-.49.613.613 0 00-.23-.51c-.154-.121-.366-.182-.634-.182h-1.21v1.364zm0-2.17h1.172c.237 0 .426-.058.567-.174a.576.576 0 00.211-.47.576.576 0 00-.211-.471c-.135-.122-.324-.183-.567-.183H44.37v1.297zm6.66 3.18c-.448 0-.839-.087-1.172-.26a1.923 1.923 0 01-.778-.72 2.17 2.17 0 01-.27-1.096v-1.326c0-.416.09-.778.27-1.085.186-.314.445-.557.778-.73.333-.173.724-.26 1.172-.26.442 0 .826.087 1.153.26.333.173.59.416.768.73.186.307.279.669.279 1.085v.951h-3.257v.375c0 .371.09.653.27.845.179.186.444.279.797.279.269 0 .486-.045.653-.135a.642.642 0 00.317-.413h1.182a1.7 1.7 0 01-.73 1.096c-.391.269-.868.403-1.432.403zm1.038-3.123v-.288c0-.365-.087-.644-.26-.836-.173-.199-.432-.298-.778-.298-.346 0-.608.1-.788.298-.179.198-.269.48-.269.845v.202l2.181-.02-.086.097zm6.304 4.37V37H54.3v-5.284h.96v4.42h.904v-4.42h.835v4.42h.913v-4.42h.951v4.42h.557v2.209h-1.047zm4.037-1.248c-.448 0-.839-.086-1.172-.26a1.923 1.923 0 01-.778-.72 2.17 2.17 0 01-.269-1.095v-1.326c0-.416.09-.778.27-1.085.185-.314.444-.557.777-.73.333-.173.724-.26 1.172-.26.442 0 .827.087 1.153.26.333.173.59.416.769.73.185.307.278.669.278 1.085v.951h-3.256v.375c0 .371.09.653.269.845.179.186.445.279.797.279.269 0 .487-.045.653-.135a.642.642 0 00.317-.413h1.182c-.09.455-.333.82-.73 1.096-.39.269-.868.403-1.432.403zm1.038-3.122v-.288c0-.365-.087-.644-.26-.836-.172-.199-.432-.298-.778-.298-.346 0-.608.1-.787.298-.18.198-.27.48-.27.845v.202l2.181-.02-.086.097zM65.957 37v-5.284h1.2v2.047h1.864v-2.047h1.201V37h-1.2v-2.123h-1.864V37h-1.201zm5.69 0v-5.284h1.085v2.604c0 .166-.01.365-.029.595a12.475 12.475 0 01-.134 1.23l1.863-4.429h1.48V37h-1.086v-2.603c0-.173.007-.365.02-.577l.057-.624a9.79 9.79 0 01.077-.519L73.126 37h-1.48zm5.689 0v-5.284h1.086v2.604c0 .166-.01.365-.03.595a12.34 12.34 0 01-.134 1.23l1.864-4.429h1.48V37h-1.086v-2.603c0-.173.006-.365.02-.577.018-.211.037-.42.057-.624.025-.205.05-.378.077-.519L78.815 37h-1.479zm2.171-6.12c-.5 0-.906-.13-1.22-.393a1.287 1.287 0 01-.461-1.028h.932a.67.67 0 00.202.509.78.78 0 00.547.192c.224 0 .404-.064.538-.192a.655.655 0 00.212-.51h.931c0 .423-.153.766-.46 1.029-.308.262-.715.394-1.22.394zm5.651 2.354c-.269 0-.486-.074-.653-.22a.777.777 0 01-.24-.587c0-.243.08-.439.24-.586.167-.147.384-.22.653-.22.27 0 .484.073.644.22.166.147.25.343.25.586a.763.763 0 01-.25.586c-.16.148-.375.221-.644.221zm0 3.862c-.269 0-.486-.074-.653-.22a.758.758 0 01-.24-.587c0-.243.08-.439.24-.586.167-.147.384-.22.653-.22.27 0 .484.073.644.22.166.147.25.343.25.586a.744.744 0 01-.25.586c-.16.147-.375.221-.644.221z" fill="#000"/><defs><filter id="filter0_d_394_1312" x=".804" y="0" width="179.646" height="178.685" filterUnits="userSpaceOnUse" color-interpolation-filters="sRGB"><feFlood flood-opacity="0" result="BackgroundImageFix"/><feColorMatrix in="SourceAlpha" values="0 0 0 0 0 0 0 0 0 0 0 0 0 0 0 0 0 0 127 0" result="hardAlpha"/><feOffset dy="3.843"/><feGaussianBlur stdDeviation="1.921"/><feComposite in2="hardAlpha" operator="out"/><feColorMatrix values="0 0 0 0 0 0 0 0 0 0 0 0 0 0 0 0 0 0 0.25 0"/><feBlend in2="BackgroundImageFix" result="effect1_dropShadow_394_1312"/><feBlend in="SourceGraphic" in2="effect1_dropShadow_394_1312" result="shape"/></filter></defs></svg>