<svg width="180" height="179" fill="none" xmlns="http://www.w3.org/2000/svg"><g filter="url(#filter0_d_394_1200)"><rect x="4" width="171.961" height="171" rx="16.011" fill="#E1EDE4"/></g><mask id="a" style="mask-type:alpha" maskUnits="userSpaceOnUse" x="4" y="0" width="172" height="43"><path fill="#C9D9CD" d="M4 0h171.961v42.27H4z"/></mask><g mask="url(#a)"><rect x="4" y="-1.69" width="171.961" height="118.355" rx="16.011" fill="#C09F6D"/></g><path d="M16.882 61.096c-.423 0-.788-.08-1.095-.24a1.697 1.697 0 01-.701-.692c-.16-.307-.24-.67-.24-1.085v-3.17c0-.423.08-.785.24-1.086.166-.301.4-.532.7-.692.308-.16.673-.24 1.096-.24.423 0 .785.08 1.086.24.307.16.54.39.7.692.167.3.25.66.25 1.076v3.18c0 .416-.083.778-.25 1.085-.16.301-.393.532-.7.692-.301.16-.663.24-1.086.24zm0-.778c.378 0 .666-.106.865-.317.205-.218.307-.525.307-.922v-3.17c0-.398-.102-.702-.307-.913-.199-.218-.487-.327-.865-.327-.371 0-.66.109-.865.327-.204.211-.307.515-.307.912v3.17c0 .398.102.705.307.923.205.211.494.317.865.317zm5.69.778c-.622 0-1.115-.182-1.48-.547-.358-.372-.538-.878-.538-1.518v-2.402c0-.846.212-1.495.634-1.95.423-.461 1.028-.692 1.816-.692h1.345v.865h-1.345c-.519 0-.913.153-1.182.46-.269.302-.403.74-.403 1.317v.624h.134l-.134.193c.006-.378.134-.673.384-.884.25-.212.59-.317 1.018-.317.558 0 .99.179 1.297.538.314.358.471.851.471 1.48v.768c0 .429-.08.797-.24 1.104-.16.308-.39.545-.692.711-.3.167-.663.25-1.085.25zm0-.768c.371 0 .656-.113.855-.337.198-.224.297-.544.297-.96v-.769c0-.416-.099-.736-.297-.96-.199-.225-.484-.337-.855-.337-.372 0-.657.112-.855.336-.199.218-.298.538-.298.961v.769c0 .416.1.736.298.96.198.224.483.337.855.337zm4.152.672v-4.515H25.38v-.769h2.21v1.94h1.153c.595 0 1.063.151 1.402.452.346.295.519.702.519 1.22 0 .513-.173.92-.519 1.22-.346.301-.813.452-1.402.452h-2.018zm.865-.788h1.153c.333 0 .586-.073.759-.22.179-.154.269-.375.269-.664 0-.288-.09-.506-.27-.653-.172-.153-.425-.23-.758-.23h-1.153v1.767zm6.362.884c-.416 0-.781-.083-1.095-.25a1.807 1.807 0 01-.72-.701 2.204 2.204 0 01-.25-1.066v-1.441c0-.41.083-.766.25-1.067a1.8 1.8 0 01.72-.701 2.31 2.31 0 011.095-.25c.416 0 .778.084 1.085.25.314.166.554.4.721.701.173.301.26.657.26 1.067v.931H32.73v.51c0 .416.106.736.317.96.211.218.512.327.903.327.333 0 .602-.058.807-.173a.763.763 0 00.375-.538h.864a1.472 1.472 0 01-.653 1.057c-.372.256-.836.384-1.393.384zm1.22-3.103v-.355c0-.417-.106-.737-.317-.961-.205-.224-.506-.336-.903-.336-.39 0-.692.112-.903.336-.211.224-.317.544-.317.96v.28h2.507l-.067.076zm1.876 4.352V60.26h.432c.109-.109.221-.323.336-.643.122-.32.186-.727.193-1.22l.057-2.68h3.449v4.543h.672v2.085h-.768V61h-3.603v1.345h-.768zm1.345-2.085h2.257v-3.775h-1.767l-.039 1.93c-.006.507-.06.917-.163 1.23-.102.314-.199.52-.288.615zm4.96.74v-5.284h.826v2.882c0 .186-.007.381-.02.586-.006.205-.019.4-.038.586a6.1 6.1 0 01-.048.461l2.133-4.515h1.104V61h-.826v-2.882c0-.186.003-.381.01-.586.012-.205.029-.4.048-.586l.048-.47L44.456 61h-1.105zm5.689 0v-5.284h.865v2.2h2.228v-2.2H53V61h-.865v-2.296h-2.228V61h-.865zm5.69 0v-5.284h.826v2.882c0 .186-.007.381-.02.586-.006.205-.019.4-.038.586-.013.18-.029.333-.048.461l2.133-4.515h1.105V61h-.827v-2.882c0-.186.004-.381.01-.586.013-.205.029-.4.048-.586l.048-.47L55.835 61h-1.104zm5.026.067v-.807h.173c.295 0 .5-.115.615-.346.122-.23.186-.643.192-1.239l.058-2.959h3.583V61h-.864v-4.496H61.65l-.048 2.21c-.013.557-.077 1.008-.192 1.354-.11.346-.282.599-.519.76-.23.16-.535.24-.913.24h-.22zM66.11 61v-5.284h.826v2.882c0 .186-.006.381-.02.586-.005.205-.018.4-.037.586a6.21 6.21 0 01-.049.461l2.133-4.515h1.105V61h-.826v-2.882c0-.186.003-.381.01-.586.012-.205.028-.4.047-.586l.048-.47L67.215 61H66.11zm10.764 1.345V60.26h.433c.109-.109.22-.323.336-.643.122-.32.186-.727.192-1.22l.058-2.68h3.448v4.543h.673v2.085h-.768V61h-3.603v1.345h-.769zm1.345-2.085h2.258v-3.775h-1.768l-.038 1.93c-.007.507-.061.917-.164 1.23-.102.314-.198.52-.288.615zm6.478.836c-.557 0-.996-.14-1.316-.423-.32-.288-.48-.675-.48-1.162 0-.493.16-.88.48-1.163.32-.281.752-.422 1.296-.422h1.634v-.529c0-.326-.1-.576-.298-.749-.192-.18-.468-.269-.826-.269-.314 0-.577.067-.788.202a.718.718 0 00-.365.528h-.865c.058-.454.273-.816.644-1.085.371-.27.836-.404 1.393-.404.608 0 1.089.157 1.44.471.353.314.53.74.53 1.278V61h-.846v-1.009h-.144l.144-.144c0 .384-.15.689-.452.913-.294.224-.688.336-1.181.336zm.211-.682c.41 0 .746-.102 1.009-.307a.957.957 0 00.394-.788v-.75h-1.614c-.288 0-.516.08-.682.24-.167.16-.25.379-.25.654 0 .294.1.528.298.701.205.167.486.25.845.25zm3.96.586v-5.284h.865v2.2h2.229v-2.2h.864V61h-.864v-2.296h-2.229V61h-.865zm5.69 0v-5.284h.865v2.2h2.229v-2.2h.864V61h-.864v-2.296h-2.23V61h-.864zm5.411 0v-5.284h.807v1.94h.433c.57 0 1.018.151 1.344.452.334.295.5.702.5 1.22 0 .52-.166.93-.5 1.23-.326.295-.774.442-1.344.442h-1.24zm.807-.692h.433c.339 0 .602-.086.787-.26.192-.172.288-.412.288-.72 0-.307-.096-.547-.288-.72-.185-.173-.448-.26-.787-.26h-.433v1.96zm2.901.692v-5.284h.807V61h-.807zm4.239.096c-.416 0-.781-.083-1.095-.25a1.81 1.81 0 01-.72-.701 2.199 2.199 0 01-.25-1.066v-1.441c0-.41.083-.766.25-1.067a1.81 1.81 0 01.72-.701 2.31 2.31 0 011.095-.25c.417 0 .779.084 1.086.25.314.166.554.4.721.701.172.301.259.657.259 1.067v.931h-3.286v.51c0 .416.106.736.317.96.212.218.513.327.903.327.334 0 .603-.058.807-.173a.764.764 0 00.375-.538h.865a1.473 1.473 0 01-.654 1.057c-.371.256-.835.384-1.393.384zm1.221-3.103v-.355c0-.417-.106-.737-.317-.961-.205-.224-.506-.336-.904-.336-.39 0-.691.112-.903.336-.211.224-.317.544-.317.96v.28h2.508l-.067.076zM16.882 80.077c-.423 0-.788-.08-1.095-.24a1.744 1.744 0 01-.72-.692c-.167-.307-.25-.67-.25-1.086v-1.402c0-.423.083-.785.25-1.086.172-.3.412-.531.72-.691.307-.16.672-.24 1.095-.24.423 0 .788.08 1.095.24.308.16.545.39.711.691.173.301.26.66.26 1.076v1.412c0 .417-.087.779-.26 1.086a1.683 1.683 0 01-.71.692c-.308.16-.673.24-1.096.24zm0-.769c.378 0 .672-.105.884-.317.211-.211.317-.522.317-.932v-1.402c0-.41-.106-.72-.317-.932-.211-.211-.506-.317-.884-.317-.371 0-.666.106-.884.317-.211.211-.317.522-.317.932v1.402c0 .41.106.72.317.932.218.212.513.317.884.317zm9.43.692v-5.284h.864v2.181h.903l1.537-2.18h.99l-1.778 2.516L30.634 80h-1.009l-1.537-2.354h-.912V80h-.865zm4.997.067v-.807h.173c.295 0 .5-.115.615-.346.122-.23.186-.643.192-1.239l.058-2.959h3.583V80h-.865v-4.496h-1.863l-.048 2.21c-.013.557-.077 1.008-.193 1.354-.108.346-.281.599-.518.76-.23.16-.535.24-.913.24h-.22zM37.662 80v-5.284h.826v2.882c0 .186-.007.381-.02.586-.006.205-.019.4-.038.586a6.1 6.1 0 01-.048.462l2.133-4.516h1.105V80h-.826v-2.882c0-.186.003-.381.01-.586.012-.205.028-.4.047-.586l.048-.47L38.766 80h-1.104zm7.668.096c-.416 0-.781-.083-1.095-.25a1.807 1.807 0 01-.72-.701 2.204 2.204 0 01-.25-1.066v-1.441c0-.41.083-.766.25-1.067.172-.3.413-.534.72-.701a2.31 2.31 0 011.095-.25c.417 0 .778.084 1.086.25.314.166.554.4.72.701.173.301.26.657.26 1.067v.931H44.11v.51c0 .416.106.736.317.96.212.218.513.327.903.327.333 0 .602-.058.807-.173a.763.763 0 00.375-.538h.864a1.472 1.472 0 01-.653 1.057c-.371.256-.835.384-1.393.384zm1.22-3.103v-.355c0-.417-.105-.737-.317-.961-.205-.224-.506-.336-.903-.336-.39 0-.691.112-.903.336-.211.224-.317.544-.317.96v.28h2.508l-.068.076zM49.041 80v-5.284h.865v2.2h2.228v-2.2H53V80h-.865v-2.296h-2.228V80h-.865zm7.236 0v-4.525h-1.921v-.759h4.707v.76h-1.921V80h-.865zm5.661.096c-.557 0-.996-.14-1.316-.423-.32-.288-.48-.675-.48-1.162 0-.493.16-.88.48-1.162.32-.282.752-.423 1.297-.423h1.633v-.529c0-.326-.1-.576-.298-.749-.192-.18-.467-.269-.826-.269-.314 0-.576.067-.788.202a.718.718 0 00-.365.528h-.864c.057-.454.272-.816.643-1.085.372-.27.836-.404 1.393-.404.609 0 1.09.157 1.441.471.353.314.529.74.529 1.278V80h-.846v-1.009h-.144l.144-.144c0 .385-.15.689-.451.913-.295.224-.689.336-1.182.336zm.212-.682c.41 0 .746-.103 1.008-.307a.957.957 0 00.394-.788v-.75h-1.614c-.288 0-.515.08-.682.24-.166.16-.25.379-.25.654 0 .294.1.528.298.701.205.167.487.25.846.25zm3.537.586l1.874-2.719-1.759-2.565h1.019l1.047 1.633c.045.07.086.148.125.231.045.083.08.15.106.202.019-.051.048-.119.086-.202a3.6 3.6 0 01.135-.23l1.056-1.634h1.009l-1.758 2.575L70.49 80h-1.019l-1.133-1.73a2.69 2.69 0 01-.135-.24 2.08 2.08 0 00-.105-.23 3.747 3.747 0 01-.26.47L66.696 80h-1.009zm11.802 0v-5.284h.826v2.882c0 .186-.006.381-.019.586-.006.205-.019.4-.038.586a6.36 6.36 0 01-.048.462l2.132-4.516h1.105V80h-.826v-2.882c0-.186.003-.381.01-.586.012-.205.028-.4.048-.586l.048-.47L78.594 80h-1.105zm11.38 0v-5.284h3.957V80h-.864v-4.496h-2.229V80h-.865zm5.67 1.73v-7.014h.865v1.009h.172l-.172.202c0-.404.13-.72.394-.951.269-.237.62-.356 1.056-.356.532 0 .954.176 1.268.529.32.345.48.823.48 1.431v1.547c0 .403-.073.752-.22 1.047a1.573 1.573 0 01-.606.682c-.256.16-.563.24-.922.24-.429 0-.778-.118-1.047-.355-.269-.237-.403-.554-.403-.951l.172.201h-.192l.02 1.201v1.537h-.865zm2.027-2.383c.365 0 .65-.11.855-.327.211-.218.317-.531.317-.941v-1.441c0-.41-.106-.724-.317-.942-.205-.218-.49-.326-.855-.326-.352 0-.634.112-.845.336-.212.224-.317.535-.317.932v1.44c0 .398.105.708.317.932.211.225.493.337.845.337zm5.661.73c-.423 0-.788-.08-1.095-.24a1.742 1.742 0 01-.721-.692c-.166-.307-.25-.67-.25-1.086v-1.402c0-.423.084-.785.25-1.086.173-.3.413-.531.721-.691.307-.16.672-.24 1.095-.24.423 0 .788.08 1.095.24.307.16.544.39.711.691.173.301.259.66.259 1.076v1.412c0 .417-.086.779-.259 1.086a1.689 1.689 0 01-.711.692c-.307.16-.672.24-1.095.24zm0-.769c.378 0 .672-.105.884-.317.211-.211.317-.522.317-.932v-1.402c0-.41-.106-.72-.317-.932-.212-.211-.506-.317-.884-.317-.372 0-.666.106-.884.317-.211.211-.317.522-.317.932v1.402c0 .41.106.72.317.932.218.212.512.317.884.317zm3.096 2.037V79.26h.432c.109-.109.221-.323.336-.643.122-.32.186-.727.192-1.22l.058-2.68h3.449v4.543h.672v2.085h-.768V80h-3.603v1.345h-.768zm1.345-2.085h2.257v-3.775h-1.767l-.039 1.93c-.006.507-.061.917-.163 1.23-.103.314-.199.52-.288.615zm6.477.836c-.557 0-.996-.14-1.316-.423-.32-.288-.48-.675-.48-1.162 0-.493.16-.88.48-1.162.32-.282.752-.423 1.297-.423h1.633v-.529c0-.326-.099-.576-.298-.749-.192-.18-.467-.269-.826-.269-.314 0-.576.067-.788.202a.718.718 0 00-.365.528h-.864c.057-.454.272-.816.643-1.085.372-.27.836-.404 1.393-.404.609 0 1.089.157 1.441.471.352.314.529.74.529 1.278V80h-.846v-1.009h-.144l.144-.144c0 .385-.15.689-.451.913-.295.224-.689.336-1.182.336zm.211-.682c.41 0 .746-.103 1.009-.307a.956.956 0 00.394-.788v-.75h-1.614c-.288 0-.516.08-.682.24-.167.16-.25.379-.25.654 0 .294.099.528.298.701.205.167.487.25.845.25zm3.231.586l1.153-2.71-1.076-2.574h.835l.923 2.306h.509v-2.306h.73v2.306h.49l.951-2.306h.826l-1.076 2.546L122.005 80h-.865l-.96-2.402h-.519V80h-.73v-2.402h-.519l-.97 2.402h-.855zm7.937.096c-.557 0-.996-.14-1.316-.423-.32-.288-.48-.675-.48-1.162 0-.493.16-.88.48-1.162.32-.282.753-.423 1.297-.423h1.633v-.529c0-.326-.099-.576-.298-.749-.192-.18-.467-.269-.826-.269-.314 0-.576.067-.787.202a.717.717 0 00-.366.528h-.864c.058-.454.272-.816.644-1.085.371-.27.835-.404 1.392-.404.609 0 1.089.157 1.442.471.352.314.528.74.528 1.278V80h-.846v-1.009h-.144l.144-.144c0 .385-.15.689-.451.913-.295.224-.689.336-1.182.336zm.212-.682c.41 0 .746-.103 1.008-.307a.956.956 0 00.394-.788v-.75h-1.614c-.288 0-.515.08-.682.24-.166.16-.25.379-.25.654 0 .294.1.528.298.701.205.167.487.25.846.25zm3.537.586l1.874-2.719-1.758-2.565h1.018l1.047 1.633c.045.07.087.148.125.231.045.083.08.15.106.202.019-.051.048-.119.086-.202a3.6 3.6 0 01.135-.23l1.056-1.634h1.009l-1.758 2.575L133.077 80h-1.019l-1.133-1.73c-.045-.07-.09-.15-.135-.24a2.022 2.022 0 00-.105-.23 3.657 3.657 0 01-.116.23c-.044.09-.092.17-.144.24L129.282 80h-1.009zm11.188 1.345V79.26h.432c.109-.109.221-.323.336-.643.122-.32.186-.727.192-1.22l.058-2.68h3.449v4.543h.672v2.085h-.768V80h-3.603v1.345h-.768zm1.345-2.085h2.257v-3.775h-1.768l-.038 1.93c-.006.507-.061.917-.163 1.23-.103.314-.199.52-.288.615zm4.296.807v-.807h.173c.295 0 .5-.115.615-.346.122-.23.186-.643.192-1.239l.058-2.959h3.583V80h-.865v-4.496h-1.863l-.048 2.21c-.013.557-.077 1.008-.192 1.354-.109.346-.282.599-.519.76-.231.16-.535.24-.913.24h-.221zm6.026-.067l1.355-2.037c-.404-.096-.718-.281-.942-.557-.218-.275-.326-.618-.326-1.028 0-.519.169-.925.509-1.22.346-.294.816-.442 1.412-.442h2.277V80h-.865v-1.97h-1.162L152.137 80h-1.009zm2.008-2.738h1.412v-1.777h-1.412c-.32 0-.573.08-.759.24-.186.154-.279.372-.279.653 0 .276.093.493.279.653.186.154.439.231.759.231zM16.882 99.096c-.621 0-1.114-.183-1.48-.547-.358-.372-.537-.878-.537-1.518v-2.402c0-.846.211-1.496.634-1.95.422-.461 1.028-.692 1.815-.692h1.345v.865h-1.345c-.518 0-.912.153-1.181.46-.27.302-.404.74-.404 1.317v.624h.135l-.135.192c.007-.377.135-.672.384-.883.25-.212.59-.317 1.019-.317.557 0 .99.179 1.297.538.314.358.47.851.47 1.48v.768c0 .429-.08.797-.24 1.104-.16.308-.39.545-.691.711-.301.167-.663.25-1.086.25zm0-.769c.371 0 .656-.112.855-.336.199-.224.298-.544.298-.96v-.769c0-.416-.1-.736-.298-.96-.198-.225-.483-.337-.855-.337-.371 0-.656.112-.855.336-.199.218-.298.538-.298.961v.769c0 .416.1.736.298.96.199.224.484.337.855.337zm5.69.75c-.423 0-.788-.08-1.095-.24a1.744 1.744 0 01-.721-.692c-.166-.307-.25-.67-.25-1.086v-1.402c0-.423.084-.785.25-1.086.173-.3.413-.531.72-.691.308-.16.673-.24 1.096-.24.422 0 .787.08 1.095.24.307.16.544.39.71.691.174.301.26.66.26 1.076v1.412c0 .417-.086.779-.26 1.086a1.683 1.683 0 01-.71.692c-.308.16-.673.24-1.095.24zm0-.769c.378 0 .672-.105.884-.317.21-.211.317-.522.317-.932v-1.402c0-.41-.106-.72-.317-.932-.212-.211-.506-.317-.884-.317-.372 0-.666.106-.884.317-.211.211-.317.522-.317.932v1.402c0 .41.106.72.317.932.218.212.512.317.884.317zm3.047.76v-.808h.173c.295 0 .5-.115.615-.346.122-.23.186-.643.192-1.239l.058-2.959h3.583V99h-.864v-4.496h-1.864l-.048 2.21c-.013.557-.077 1.008-.192 1.354-.109.346-.282.599-.519.76-.23.16-.535.24-.913.24h-.22zm8.332.028c-.416 0-.781-.083-1.095-.25a1.807 1.807 0 01-.72-.701 2.204 2.204 0 01-.25-1.066v-1.441c0-.41.083-.766.25-1.067.172-.3.412-.534.72-.701a2.31 2.31 0 011.095-.25c.416 0 .778.084 1.085.25.314.166.554.4.721.701.173.301.26.657.26 1.067v.931H32.73v.51c0 .416.106.736.317.96.211.218.512.327.903.327.333 0 .602-.058.807-.173a.763.763 0 00.375-.538h.864a1.472 1.472 0 01-.653 1.057c-.372.256-.836.384-1.393.384zm1.22-3.103v-.355c0-.417-.106-.737-.317-.961-.205-.224-.506-.336-.903-.336-.39 0-.692.112-.903.336-.211.224-.317.544-.317.96v.28h2.507l-.067.076zm4.47 3.103c-.417 0-.782-.083-1.096-.25a1.807 1.807 0 01-.72-.701 2.204 2.204 0 01-.25-1.066v-1.441c0-.41.083-.766.25-1.067.173-.3.413-.534.72-.701.314-.166.68-.25 1.096-.25.416 0 .778.084 1.085.25.314.166.554.4.72.701.174.301.26.657.26 1.067v.931h-3.285v.51c0 .416.105.736.317.96.211.218.512.327.903.327.333 0 .602-.058.807-.173a.763.763 0 00.374-.538h.865a1.472 1.472 0 01-.653 1.057c-.372.256-.836.384-1.393.384zm1.22-3.103v-.355c0-.417-.106-.737-.317-.961-.205-.224-.506-.336-.903-.336-.391 0-.692.112-.903.336-.212.224-.317.544-.317.96v.28h2.507l-.067.076zm10.12 3.103c-.608 0-1.095-.163-1.46-.49-.365-.326-.557-.772-.576-1.335h.864c.02.333.132.592.337.778.205.186.483.278.835.278.378 0 .67-.108.875-.326.211-.218.317-.525.317-.922v-.385h-1.874v-.768h1.874v-.298c0-.397-.106-.701-.317-.913-.205-.217-.497-.326-.875-.326-.352 0-.63.093-.835.278-.205.18-.317.44-.337.778h-.864c.02-.563.211-1.008.576-1.335.365-.326.852-.49 1.46-.49.43 0 .795.08 1.096.24.307.16.544.391.71.692.167.301.25.663.25 1.086v1.44c0 .417-.083.779-.25 1.086a1.683 1.683 0 01-.71.692c-.301.16-.666.24-1.096.24zm5.344 1.633V99c-.614 0-1.098-.173-1.45-.519-.352-.346-.529-.82-.529-1.422v-1.421c0-.596.177-1.064.529-1.403.358-.346.842-.519 1.45-.519v-1.729h.769v1.73c.615 0 1.098.172 1.45.518.353.34.529.807.529 1.403v1.421c0 .603-.176 1.076-.529 1.422-.352.346-.835.519-1.45.519v1.729h-.769zm.02-2.411v-3.92c-.372 0-.663.11-.875.327-.211.218-.317.522-.317.913v1.421c0 .391.106.698.317.923.212.224.503.336.874.336zm.73 0c.377 0 .669-.112.874-.336.211-.225.317-.532.317-.923v-1.421c0-.391-.106-.695-.317-.913-.205-.218-.496-.327-.874-.327v3.92zm4.94 2.411V99c-.615 0-1.098-.173-1.45-.519-.353-.346-.529-.82-.529-1.422v-1.421c0-.596.176-1.064.528-1.403.359-.346.843-.519 1.451-.519v-1.729h.768v1.73c.615 0 1.099.172 1.451.518.352.34.529.807.529 1.403v1.421c0 .603-.177 1.076-.529 1.422-.352.346-.836.519-1.45.519v1.729h-.769zm.02-2.411v-3.92c-.372 0-.664.11-.875.327-.211.218-.317.522-.317.913v1.421c0 .391.106.698.317.923.211.224.503.336.874.336zm.73 0c.377 0 .669-.112.873-.336.212-.225.318-.532.318-.923v-1.421c0-.391-.106-.695-.318-.913-.204-.218-.496-.327-.874-.327v3.92zm5.324.778c-.416 0-.781-.083-1.095-.25a1.808 1.808 0 01-.72-.701 2.204 2.204 0 01-.25-1.066v-1.441c0-.41.083-.766.25-1.067.172-.3.412-.534.72-.701a2.31 2.31 0 011.095-.25c.416 0 .778.084 1.085.25.314.166.554.4.721.701.173.301.26.657.26 1.067v.931h-3.286v.51c0 .416.106.736.317.96.211.218.512.327.903.327.333 0 .602-.058.807-.173a.763.763 0 00.374-.538h.865a1.472 1.472 0 01-.653 1.057c-.372.256-.836.384-1.393.384zm1.22-3.103v-.355c0-.417-.106-.737-.317-.961-.205-.224-.506-.336-.903-.336-.39 0-.692.112-.903.336-.212.224-.317.544-.317.96v.28h2.507l-.067.076zM71.829 99v-5.284h.864v2.181h.903l1.537-2.18h.99l-1.778 2.516L76.151 99h-1.008l-1.537-2.354h-.913V99h-.865zm7.207 0v-4.525h-1.921v-.759h4.707v.76H79.9V99h-.864zm4.143 0v-5.284h.826v2.882c0 .186-.006.381-.02.586-.005.205-.018.4-.038.586a6.1 6.1 0 01-.048.462l2.133-4.516h1.105V99h-.826v-2.882c0-.186.003-.381.01-.586.012-.205.028-.4.047-.586l.048-.47L84.284 99h-1.105zm5.69 0v-5.284h2.286c.55 0 .977.125 1.278.375.3.243.451.586.451 1.028 0 .365-.125.66-.374.884-.25.217-.58.326-.99.326v-.076c.448 0 .807.112 1.076.336.275.224.413.525.413.903 0 .474-.16.845-.48 1.114-.32.263-.769.394-1.345.394h-2.316zm.845-.759h1.47c.307 0 .544-.067.71-.202.174-.134.26-.323.26-.567 0-.25-.086-.441-.26-.576-.166-.134-.403-.202-.71-.202h-1.47v1.547zm0-2.296h1.441c.269 0 .48-.064.634-.192.16-.128.24-.308.24-.538 0-.23-.077-.41-.23-.538-.154-.135-.369-.202-.644-.202h-1.441v1.47zM94.558 99v-5.284h.865v2.2h2.229v-2.2h.864V99h-.864v-2.296h-2.23V99h-.864zm7.669.077c-.423 0-.788-.08-1.095-.24a1.742 1.742 0 01-.721-.692c-.166-.307-.25-.67-.25-1.086v-1.402c0-.423.084-.785.25-1.086.173-.3.413-.531.721-.691.307-.16.672-.24 1.095-.24.423 0 .788.08 1.095.24.307.16.544.39.711.691.173.301.259.66.259 1.076v1.412c0 .417-.086.779-.259 1.086a1.689 1.689 0 01-.711.692c-.307.16-.672.24-1.095.24zm0-.769c.378 0 .672-.105.884-.317.211-.211.317-.522.317-.932v-1.402c0-.41-.106-.72-.317-.932-.212-.211-.506-.317-.884-.317-.372 0-.666.106-.884.317-.211.211-.317.522-.317.932v1.402c0 .41.106.72.317.932.218.212.512.317.884.317zm4.056.692v-5.284h3.795v.788h-2.93V99h-.865zm7.323.077c-.423 0-.788-.08-1.095-.24a1.748 1.748 0 01-.721-.692c-.166-.307-.249-.67-.249-1.086v-1.402c0-.423.083-.785.249-1.086.173-.3.414-.531.721-.691.307-.16.672-.24 1.095-.24.423 0 .788.08 1.095.24.308.16.545.39.711.691.173.301.26.66.26 1.076v1.412c0 .417-.087.779-.26 1.086a1.677 1.677 0 01-.711.692c-.307.16-.672.24-1.095.24zm0-.769c.378 0 .673-.105.884-.317.211-.211.317-.522.317-.932v-1.402c0-.41-.106-.72-.317-.932-.211-.211-.506-.317-.884-.317-.371 0-.666.106-.884.317-.211.211-.317.522-.317.932v1.402c0 .41.106.72.317.932.218.212.513.317.884.317zM15.71 120.73l.778-2.056-1.96-4.957h.961l1.23 3.267c.044.108.086.24.125.393l.096.375c.025-.102.057-.227.096-.375.038-.153.077-.285.115-.393l1.153-3.267h.932l-2.604 7.013h-.922zm4.883-1.73v-5.284h3.958V119h-.865v-4.496h-2.229V119h-.864zm5.67 1.729v-7.013h.865v1.009h.173l-.173.202c0-.404.131-.721.394-.951.269-.237.62-.356 1.056-.356.532 0 .955.176 1.268.529.32.345.48.823.48 1.431v1.547c0 .403-.073.752-.22 1.047a1.577 1.577 0 01-.605.682c-.257.16-.564.24-.923.24-.429 0-.778-.118-1.047-.355-.269-.237-.403-.554-.403-.951l.173.201h-.192l.019 1.201v1.537h-.865zm2.027-2.382c.365 0 .65-.109.855-.327.212-.218.317-.531.317-.941v-1.441c0-.41-.105-.724-.317-.942-.205-.218-.49-.326-.855-.326-.352 0-.634.112-.845.336-.212.224-.317.535-.317.932v1.441c0 .397.105.707.317.932.211.224.493.336.845.336zm5.2.749c-.557 0-.996-.141-1.316-.423-.32-.288-.48-.675-.48-1.162 0-.493.16-.881.48-1.162.32-.282.752-.423 1.297-.423h1.633v-.529c0-.326-.1-.576-.298-.749-.192-.179-.467-.269-.826-.269-.314 0-.577.067-.788.202a.717.717 0 00-.365.528h-.865c.058-.454.273-.816.644-1.085s.836-.404 1.393-.404c.608 0 1.089.157 1.441.471.352.314.528.74.528 1.278V119h-.845v-1.009h-.144l.144-.144c0 .384-.15.689-.451.913-.295.224-.689.336-1.182.336zm.211-.682c.41 0 .746-.102 1.009-.307a.957.957 0 00.394-.788v-.75H33.49c-.288 0-.516.081-.682.241-.167.16-.25.378-.25.653 0 .295.1.528.298.701.205.167.487.25.845.25zm3.96.586v-5.284h2.287c.55 0 .977.125 1.278.375.3.243.451.586.451 1.028 0 .365-.125.66-.374.884-.25.217-.58.326-.99.326v-.077c.448 0 .807.113 1.076.337.275.224.413.525.413.903 0 .474-.16.845-.48 1.114-.32.263-.769.394-1.345.394h-2.315zm.846-.759h1.47c.307 0 .544-.067.71-.202.174-.134.26-.323.26-.566 0-.25-.086-.442-.26-.577-.166-.134-.403-.202-.71-.202h-1.47v1.547zm0-2.296h1.441c.269 0 .48-.064.634-.192.16-.128.24-.307.24-.538 0-.231-.077-.41-.23-.538-.154-.135-.368-.202-.644-.202h-1.441v1.47zm4.181 3.122v-.807h.173c.295 0 .5-.115.615-.346.122-.23.186-.643.192-1.239l.058-2.959h3.583V119h-.864v-4.496H44.58l-.048 2.21c-.013.557-.077 1.008-.192 1.354-.11.346-.282.599-.519.759-.23.16-.535.24-.913.24h-.22zm8.332.029c-.416 0-.781-.083-1.095-.25a1.803 1.803 0 01-.72-.701 2.203 2.203 0 01-.25-1.066v-1.441c0-.41.083-.766.25-1.067a1.81 1.81 0 01.72-.701c.314-.167.679-.25 1.095-.25.416 0 .778.083 1.085.25.314.167.555.4.721.701.173.301.26.657.26 1.067v.931H49.8v.51c0 .416.106.736.317.96.211.218.512.327.903.327.333 0 .602-.058.807-.173a.764.764 0 00.375-.538h.864a1.473 1.473 0 01-.653 1.057c-.371.256-.836.384-1.393.384zm1.22-3.103v-.355c0-.417-.106-.737-.317-.961-.205-.224-.506-.336-.903-.336-.39 0-.692.112-.903.336-.211.224-.317.544-.317.961v.278h2.507l-.067.077zM54.73 119v-5.284h.865v2.2h2.229v-2.2h.865V119h-.865v-2.296h-2.229V119h-.864zm5.69 0v-5.284h.826v2.882c0 .186-.006.381-.019.586a8.055 8.055 0 01-.038.586c-.013.18-.029.333-.048.461l2.133-4.515h1.104V119h-.826v-2.882c0-.186.003-.381.01-.586.013-.205.029-.4.048-.586l.048-.471L61.525 119H60.42zm5.363 0l1.355-2.037c-.404-.096-.718-.281-.942-.557-.217-.275-.326-.618-.326-1.028 0-.519.17-.925.509-1.22.346-.294.816-.442 1.412-.442h2.277V119h-.865v-1.969h-1.162L66.792 119h-1.009zm2.008-2.738h1.412v-1.777h-1.412c-.32 0-.573.08-.759.24-.186.154-.278.371-.278.653 0 .276.092.493.278.654.186.153.439.23.76.23zm5.988 2.834c-.244 0-.44-.07-.586-.211-.141-.141-.212-.33-.212-.567 0-.25.07-.448.212-.596.147-.147.342-.221.586-.221.243 0 .435.074.576.221.147.148.22.346.22.596 0 .237-.073.426-.22.567-.14.141-.333.211-.576.211zm-57.859-95c-.448 0-.842-.083-1.181-.25a1.923 1.923 0 01-.778-.72c-.18-.314-.27-.682-.27-1.105v-3.055c0-.429.09-.797.27-1.105.185-.307.445-.544.778-.71.34-.174.733-.26 1.181-.26.455 0 .846.087 1.173.26.332.166.592.403.778.71.185.308.278.676.278 1.105h-1.21c0-.333-.09-.586-.27-.759-.172-.173-.422-.26-.749-.26-.326 0-.58.087-.758.26-.18.173-.27.423-.27.75v3.064c0 .327.09.58.27.759.179.173.432.26.758.26.327 0 .577-.087.75-.26.18-.18.269-.432.269-.759h1.21c0 .416-.093.781-.278 1.095a1.903 1.903 0 01-.778.73c-.327.167-.718.25-1.173.25zM19.43 24v-5.284h2.343c.609 0 1.086.128 1.432.385.352.25.528.595.528 1.037 0 .359-.137.647-.413.865-.269.217-.628.326-1.076.326v-.086c.487 0 .878.115 1.172.346.295.224.442.525.442.903 0 .467-.18.835-.538 1.104-.352.27-.839.404-1.46.404h-2.43zm1.181-.913h1.21c.27 0 .48-.06.634-.182a.593.593 0 00.231-.49.613.613 0 00-.23-.51c-.154-.121-.366-.182-.634-.182H20.61v1.364zm0-2.17h1.172c.237 0 .426-.058.567-.174a.576.576 0 00.211-.47.576.576 0 00-.211-.471c-.135-.122-.324-.183-.567-.183h-1.172v1.297zM24.898 24l1.24-1.931a1.65 1.65 0 01-.856-.586 1.611 1.611 0 01-.307-.99c0-.557.186-.992.557-1.306.372-.314.884-.47 1.537-.47h2.325V24h-1.191v-1.797h-.855L26.272 24h-1.374zm2.22-2.757h1.085v-1.537h-1.086c-.294 0-.525.067-.692.201-.166.135-.25.327-.25.577 0 .237.084.423.25.557.167.135.398.202.692.202zm5.574 2.824c-.577 0-1.054-.131-1.432-.394a1.621 1.621 0 01-.682-1.095h1.201a.645.645 0 00.307.375c.167.09.369.134.606.134h.509c.25 0 .445-.057.586-.173a.592.592 0 00.22-.48.586.586 0 00-.21-.48c-.141-.116-.34-.173-.596-.173h-1.21v-.96h1.162c.237 0 .42-.055.547-.164a.55.55 0 00.192-.442.525.525 0 00-.336-.519 1.062 1.062 0 00-.403-.067H32.7a1.1 1.1 0 00-.576.144.613.613 0 00-.288.384h-1.201c.077-.454.3-.82.672-1.095.372-.275.836-.413 1.393-.413h.452c.403 0 .75.06 1.037.183.295.115.522.281.682.5.16.21.24.467.24.768 0 .333-.121.605-.365.816-.243.212-.566.324-.97.337v-.039c.461.013.82.135 1.076.365.256.224.384.535.384.932 0 .474-.185.852-.557 1.134-.365.281-.858.422-1.48.422h-.508zM36.546 24v-5.284h1.201v1.73h1.364c.64 0 1.14.16 1.499.48.365.314.548.75.548 1.306 0 .545-.186.977-.558 1.297-.365.314-.858.471-1.479.471h-2.575zm1.201-1.057h1.316c.282 0 .497-.06.644-.182.154-.128.23-.308.23-.538 0-.23-.076-.407-.23-.529-.147-.128-.362-.192-.644-.192h-1.316v1.441zM49.415 24v-2.546l-2.056-4.467h1.258l1.096 2.43a5.61 5.61 0 01.326 1c.026-.103.064-.247.115-.433a5.61 5.61 0 01.212-.566l1.066-2.43h1.249l-2.056 4.466V24h-1.21zm6.333.096c-.448 0-.842-.083-1.182-.25a1.923 1.923 0 01-.778-.72c-.18-.314-.269-.682-.269-1.105v-3.055c0-.429.09-.797.27-1.105.185-.307.444-.544.777-.71.34-.174.734-.26 1.182-.26.455 0 .845.087 1.172.26.333.166.593.403.778.71.186.308.279.676.279 1.105h-1.21c0-.333-.09-.586-.27-.759-.173-.173-.422-.26-.749-.26s-.58.087-.759.26c-.18.173-.269.423-.269.75v3.064c0 .327.09.58.27.759.178.173.431.26.758.26s.576-.087.75-.26c.179-.18.268-.432.268-.759h1.21c0 .416-.092.781-.278 1.095a1.903 1.903 0 01-.778.73c-.327.167-.717.25-1.172.25zM62.206 24c-.346 0-.65-.07-.912-.211a1.546 1.546 0 01-.606-.596 1.814 1.814 0 01-.22-.903v-4.217h-1.691v-1.086h2.891v5.303c0 .192.055.346.164.461a.644.644 0 00.46.163h1.595V24h-1.68zm2.731 0v-1.095h1.844v-3.103h-1.604v-1.086h2.757v4.189h1.633V24h-4.63zm2.325-6.168c-.243 0-.436-.06-.577-.182a.655.655 0 01-.21-.51c0-.21.07-.377.21-.499.141-.128.334-.192.577-.192.243 0 .435.064.576.192a.626.626 0 01.212.5c0 .211-.07.38-.212.509-.14.122-.333.183-.576.183zm5.526 6.264c-.448 0-.839-.086-1.172-.26a1.923 1.923 0 01-.778-.72 2.17 2.17 0 01-.269-1.095v-1.326c0-.416.09-.778.269-1.085.186-.314.445-.558.778-.73.333-.173.724-.26 1.172-.26.442 0 .826.087 1.153.26.333.172.59.416.769.73.185.307.278.669.278 1.085v.951h-3.257v.375c0 .371.09.653.27.845.179.186.444.279.797.279.269 0 .486-.045.653-.134a.642.642 0 00.317-.414h1.182c-.09.455-.333.82-.73 1.096-.391.269-.868.403-1.432.403zm1.038-3.122v-.288c0-.365-.087-.644-.26-.836-.173-.199-.432-.298-.778-.298-.346 0-.608.1-.788.298-.179.198-.269.48-.269.845v.202l2.181-.02-.086.097zm2.5 3.026v-5.284h1.172v1.009h.327l-.327.279c0-.436.125-.775.375-1.019.256-.243.605-.365 1.047-.365.519 0 .932.173 1.239.519.314.346.47.81.47 1.393V24h-1.2v-3.343c0-.32-.083-.567-.25-.74-.166-.173-.4-.26-.701-.26-.295 0-.528.09-.701.27-.167.18-.25.435-.25.768V24h-1.201zm8.408 0c-.506 0-.903-.14-1.191-.423-.282-.282-.423-.669-.423-1.162v-2.613h-1.43v-1.086h1.431v-1.489h1.21v1.49h2.028v1.085H84.33v2.613c0 .333.163.5.49.5h1.44V24h-1.527zm4.912.087c-.404 0-.756-.065-1.057-.193a1.73 1.73 0 01-.71-.528c-.167-.23-.257-.5-.27-.807h1.201a.523.523 0 00.24.403c.154.103.352.154.596.154h.422c.295 0 .516-.058.663-.173a.566.566 0 00.221-.47.512.512 0 00-.201-.433c-.129-.109-.33-.18-.606-.211l-.653-.096c-.602-.083-1.044-.244-1.326-.48-.281-.238-.422-.593-.422-1.067 0-.493.166-.874.5-1.143.332-.276.822-.413 1.469-.413h.365c.59 0 1.06.131 1.412.394.353.262.541.614.567 1.056h-1.2a.48.48 0 00-.24-.345c-.135-.09-.315-.135-.539-.135h-.365c-.275 0-.477.051-.605.154-.122.096-.183.24-.183.432 0 .18.055.314.164.404.109.083.285.144.528.182l.682.096c.628.09 1.089.26 1.383.51.301.243.452.605.452 1.085 0 .512-.176.913-.528 1.2-.346.283-.859.424-1.537.424h-.423zm11.6.01c-.448 0-.842-.084-1.182-.25a1.924 1.924 0 01-.778-.721c-.186-.314-.278-.682-.278-1.105v-1.326c0-.429.093-.797.278-1.105a1.86 1.86 0 01.778-.71c.34-.173.734-.26 1.182-.26.666 0 1.198.173 1.595.519.397.34.605.804.624 1.393h-1.201c-.019-.275-.118-.487-.297-.634-.173-.154-.414-.23-.721-.23-.32 0-.573.089-.759.268-.186.173-.278.423-.278.75v1.335c0 .327.092.58.278.759.186.18.439.269.759.269.307 0 .548-.074.721-.221.179-.154.278-.368.297-.644h1.201c-.019.59-.227 1.057-.624 1.403-.397.34-.929.51-1.595.51zM110.06 24l1.768-7.013h1.547L115.152 24h-1.23l-.384-1.7h-1.864l-.384 1.7h-1.23zm1.835-2.68h1.422l-.423-1.883c-.07-.314-.131-.596-.182-.846a20.245 20.245 0 01-.106-.557 16.54 16.54 0 01-.106.557c-.044.25-.105.529-.182.836l-.423 1.893zm4.018 2.68v-5.284h.98v.711h.202l-.163.173c0-.295.083-.532.249-.71a.84.84 0 01.644-.27c.282 0 .5.115.653.346.16.23.241.541.241.932l-.212-.47h.327l-.125.172c0-.295.083-.532.25-.71.166-.18.387-.27.663-.27a.94.94 0 01.778.365c.192.244.288.573.288.99V24h-1.057v-3.977c0-.173-.038-.308-.115-.404a.395.395 0 00-.336-.153.425.425 0 00-.337.144c-.076.096-.115.233-.115.413V24h-.864v-3.977c0-.18-.039-.317-.116-.413-.077-.096-.189-.144-.336-.144-.147 0-.259.048-.336.144-.071.096-.106.233-.106.413V24h-1.057zm8.072.087c-.448 0-.839-.084-1.172-.25a1.943 1.943 0 01-.768-.72 2.2 2.2 0 01-.269-1.106v-1.306c0-.423.09-.788.269-1.095.186-.314.442-.554.768-.72.333-.174.724-.26 1.172-.26.455 0 .846.086 1.172.26.327.166.58.406.759.72.186.307.279.669.279 1.085v1.316c0 .423-.093.791-.279 1.105a1.868 1.868 0 01-.759.72c-.326.167-.717.25-1.172.25zm0-1.048c.321 0 .567-.086.74-.26.18-.178.269-.435.269-.768v-1.306c0-.34-.089-.596-.269-.769-.173-.173-.419-.259-.74-.259-.313 0-.56.086-.739.26-.18.172-.269.428-.269.768v1.306c0 .333.089.59.269.769.179.173.426.26.739.26zm5.729 1.057c-.449 0-.843-.083-1.182-.25a1.918 1.918 0 01-.778-.72c-.18-.314-.269-.682-.269-1.105v-3.055c0-.429.089-.797.269-1.105.185-.307.445-.544.778-.71.339-.174.733-.26 1.182-.26.454 0 .845.087 1.172.26.333.166.592.403.778.71.185.308.278.676.278 1.105h-1.21c0-.333-.09-.586-.269-.759-.173-.173-.423-.26-.749-.26-.327 0-.58.087-.759.26-.18.173-.269.423-.269.75v3.064c0 .327.089.58.269.759.179.173.432.26.759.26.326 0 .576-.087.749-.26.179-.18.269-.432.269-.759h1.21c0 .416-.093.781-.278 1.095a1.904 1.904 0 01-.778.73c-.327.167-.718.25-1.172.25zm3.499-.096v-7.013h2.219c.468 0 .871.087 1.21.26.346.172.615.416.807.73.193.307.289.672.289 1.095 0 .46-.119.868-.356 1.22a1.88 1.88 0 01-.941.75L137.834 24h-1.345l-1.22-2.786h-.855V24h-1.201zm1.201-3.843h1.018c.339 0 .605-.093.797-.278.193-.186.289-.442.289-.769 0-.333-.096-.592-.289-.778-.192-.192-.458-.288-.797-.288h-1.018v2.113zM138.71 24v-7.013h1.422l.682 2.229a9.276 9.276 0 01.26 1.018 4.96 4.96 0 01.086-.403c.045-.186.099-.391.163-.615l.654-2.229h1.421V24h-1.124v-2.18c0-.321.01-.67.029-1.048.02-.378.042-.756.068-1.133.025-.378.054-.737.086-1.076.038-.34.07-.638.096-.894l-.941 3.314h-1.096l-.97-3.314a36.732 36.732 0 01.183 1.921c.032.372.057.75.077 1.134.019.384.028.75.028 1.095V24h-1.124zm8.034-3.766c-.269 0-.487-.074-.653-.22a.778.778 0 01-.24-.587c0-.243.08-.439.24-.586.166-.147.384-.22.653-.22s.484.073.644.22c.166.147.25.343.25.586a.765.765 0 01-.25.586c-.16.147-.375.221-.644.221zm0 3.862c-.269 0-.487-.074-.653-.22a.758.758 0 01-.24-.587c0-.243.08-.439.24-.586.166-.147.384-.22.653-.22s.484.073.644.22c.166.147.25.343.25.586a.746.746 0 01-.25.586c-.16.147-.375.221-.644.221z" fill="#000"/><defs><filter id="filter0_d_394_1200" x=".157" y="0" width="179.646" height="178.685" filterUnits="userSpaceOnUse" color-interpolation-filters="sRGB"><feFlood flood-opacity="0" result="BackgroundImageFix"/><feColorMatrix in="SourceAlpha" values="0 0 0 0 0 0 0 0 0 0 0 0 0 0 0 0 0 0 127 0" result="hardAlpha"/><feOffset dy="3.843"/><feGaussianBlur stdDeviation="1.921"/><feComposite in2="hardAlpha" operator="out"/><feColorMatrix values="0 0 0 0 0 0 0 0 0 0 0 0 0 0 0 0 0 0 0.25 0"/><feBlend in2="BackgroundImageFix" result="effect1_dropShadow_394_1200"/><feBlend in="SourceGraphic" in2="effect1_dropShadow_394_1200" result="shape"/></filter></defs></svg>