<svg width="180" height="179" fill="none" xmlns="http://www.w3.org/2000/svg"><g filter="url(#filter0_d_440_402)"><rect x="4" width="171.879" height="170.919" rx="16.004" fill="#46767D"/></g><mask id="a" style="mask-type:alpha" maskUnits="userSpaceOnUse" x="4" y="0" width="172" height="43"><path fill="#C9D9CD" d="M4 0h171.879v42.249H4z"/></mask><g mask="url(#a)"><rect x="4" y="-1.69" width="171.879" height="118.299" rx="16.004" fill="#223B38"/></g><path d="M14.883 61v-7.01h2.257c.435 0 .813.087 1.133.26.32.166.567.403.74.71.179.307.268.672.268 1.095 0 .416-.09.78-.269 1.095a1.818 1.818 0 01-.739.72c-.32.166-.698.25-1.133.25h-1.392V61h-.865zm.865-3.658h1.392c.378 0 .678-.116.902-.346.231-.237.346-.55.346-.941 0-.397-.115-.71-.346-.941-.224-.23-.524-.346-.902-.346h-1.392v2.574zm6.359 3.754c-.557 0-.996-.14-1.316-.422-.32-.288-.48-.676-.48-1.162 0-.493.16-.88.48-1.162.32-.282.752-.423 1.296-.423h1.633V57.4c0-.326-.1-.576-.298-.749-.192-.179-.467-.269-.826-.269-.313 0-.576.068-.787.202a.718.718 0 00-.365.528h-.864c.058-.454.272-.816.643-1.085.372-.269.836-.403 1.393-.403.608 0 1.088.157 1.44.47.352.314.528.74.528 1.277V61h-.845v-1.008h-.144l.144-.144c0 .384-.15.688-.451.912-.295.224-.688.336-1.181.336zm.21-.682c.41 0 .747-.102 1.01-.307a.956.956 0 00.393-.787v-.75h-1.613c-.288 0-.516.08-.682.24-.166.16-.25.378-.25.654 0 .294.1.528.298.7.205.167.486.25.845.25zm5.688.653c-.557 0-1.015-.118-1.373-.355a1.412 1.412 0 01-.634-.96h.912c.045.16.163.291.355.393.199.103.445.154.74.154h.451c.314 0 .557-.074.73-.22a.71.71 0 00.269-.577c0-.256-.087-.458-.26-.605-.166-.147-.412-.22-.739-.22h-1.162v-.75h1.133c.295 0 .519-.07.672-.21a.72.72 0 00.231-.558.728.728 0 00-.106-.403.611.611 0 00-.297-.25 1.242 1.242 0 00-.49-.086h-.48c-.256 0-.477.057-.663.173-.185.115-.297.256-.336.422h-.912c.064-.397.272-.723.624-.98.352-.255.781-.383 1.287-.383h.48c.378 0 .7.06.97.182a1.324 1.324 0 01.835 1.277c0 .314-.102.573-.307.778-.205.198-.493.31-.864.336v.038c.454.032.784.154.989.365.205.212.307.516.307.913 0 .467-.173.838-.518 1.113-.346.276-.81.413-1.393.413h-.451zm3.344 1.277v-2.083h.432c.109-.11.22-.324.336-.644.122-.32.186-.726.192-1.22l.058-2.678h3.447v4.542h.672v2.083h-.768V61h-3.6v1.344h-.77zm1.344-2.083h2.257v-3.774h-1.767l-.038 1.93c-.007.506-.061.915-.164 1.23-.102.313-.198.518-.288.614zm6.935.835c-.416 0-.78-.083-1.094-.25a1.807 1.807 0 01-.72-.7 2.203 2.203 0 01-.25-1.066v-1.44c0-.41.083-.766.25-1.067.172-.3.413-.534.72-.7a2.29 2.29 0 011.094-.25c.416 0 .778.083 1.086.25.313.166.553.4.72.7.172.301.259.657.259 1.066v.932h-3.284v.509c0 .416.106.736.317.96.211.217.512.326.902.326.333 0 .602-.057.807-.173.205-.121.33-.3.374-.537h.865a1.471 1.471 0 01-.653 1.056c-.371.256-.836.384-1.393.384zm1.22-3.101v-.356c0-.416-.106-.736-.317-.96-.205-.224-.506-.336-.903-.336-.39 0-.69.112-.902.336-.211.224-.317.544-.317.96v.279h2.506l-.067.077zm1.827 3.072v-.806h.173c.294 0 .499-.116.614-.346.122-.23.186-.643.192-1.239l.058-2.957h3.581V61h-.864v-4.494h-1.863l-.048 2.209c-.012.557-.076 1.008-.192 1.354-.108.345-.281.598-.518.758-.23.16-.535.24-.912.24h-.221zm6.35-.067v-5.281h.825v2.88c0 .186-.006.381-.02.586-.005.205-.018.4-.038.586-.012.18-.028.333-.048.46l2.132-4.512h1.104V61h-.825v-2.88c0-.186.003-.381.01-.586.012-.205.028-.4.047-.586l.048-.47L50.13 61h-1.105zm5.024.067v-.806h.172c.295 0 .5-.116.615-.346.122-.23.186-.643.192-1.239l.058-2.957h3.581V61h-.864v-4.494H55.94l-.048 2.209c-.013.557-.077 1.008-.192 1.354-.109.345-.281.598-.518.758-.23.16-.535.24-.913.24h-.22zm6.35-.067v-5.281h.825v2.88c0 .186-.006.381-.02.586-.006.205-.018.4-.038.586-.012.18-.028.333-.048.46l2.132-4.512h1.104V61h-.825v-2.88c0-.186.003-.381.01-.586.012-.205.028-.4.047-.586l.048-.47L61.502 61h-1.104zM71.8 61v-5.281h.864v2.18h.903l1.536-2.18h.989l-1.776 2.516L76.122 61h-1.008l-1.537-2.352h-.912V61h-.864zm4.995.067v-.806h.173c.295 0 .5-.116.615-.346.121-.23.185-.643.192-1.239l.058-2.957h3.581V61h-.864v-4.494h-1.863l-.048 2.209c-.013.557-.077 1.008-.192 1.354-.109.345-.282.598-.518.758-.23.16-.535.24-.913.24h-.22zm6.35-.067v-5.281h.826v2.88c0 .186-.007.381-.02.586-.006.205-.019.4-.038.586a6.09 6.09 0 01-.048.46l2.132-4.512h1.104V61h-.826v-2.88c0-.186.004-.381.01-.586.013-.205.029-.4.048-.586l.048-.47L84.25 61h-1.104zm7.665.096c-.416 0-.781-.083-1.095-.25a1.806 1.806 0 01-.72-.7 2.202 2.202 0 01-.25-1.066v-1.44c0-.41.084-.766.25-1.067.173-.3.413-.534.72-.7.314-.167.679-.25 1.095-.25.416 0 .778.083 1.085.25.314.166.554.4.72.7.173.301.26.657.26 1.066v.932H89.59v.509c0 .416.106.736.317.96.212.217.513.326.903.326.333 0 .602-.057.806-.173a.76.76 0 00.375-.537h.864a1.47 1.47 0 01-.653 1.056c-.371.256-.835.384-1.392.384zm1.22-3.101v-.356c0-.416-.106-.736-.317-.96-.205-.224-.506-.336-.903-.336-.39 0-.691.112-.903.336-.21.224-.317.544-.317.96v.279h2.507l-.068.077zM94.52 61v-5.281h.864v2.199h2.228v-2.2h.864V61h-.864v-2.295h-2.228V61h-.864zm7.233 0v-4.523h-1.92v-.758h4.704v.758h-1.92V61h-.864zm6.119.077c-.423 0-.788-.08-1.095-.24a1.745 1.745 0 01-.72-.692c-.166-.307-.25-.669-.25-1.085v-1.402c0-.422.084-.784.25-1.085.173-.3.413-.53.72-.691.307-.16.672-.24 1.095-.24.422 0 .787.08 1.094.24.308.16.545.39.711.691.173.301.259.66.259 1.076v1.411c0 .416-.086.778-.259 1.085a1.677 1.677 0 01-.711.692c-.307.16-.672.24-1.094.24zm0-.768c.377 0 .672-.106.883-.317.211-.211.317-.522.317-.932v-1.402c0-.41-.106-.72-.317-.931-.211-.211-.506-.317-.883-.317-.371 0-.666.106-.884.317-.211.211-.316.522-.316.931v1.402c0 .41.105.72.316.932.218.211.513.317.884.317zm3.709.691v-5.281h2.285c.551 0 .976.125 1.277.374.301.243.451.586.451 1.028 0 .365-.124.66-.374.883-.25.218-.579.327-.989.327v-.077c.448 0 .806.112 1.075.336.276.224.413.525.413.902 0 .474-.16.846-.48 1.114-.32.263-.768.394-1.344.394h-2.314zm.845-.759h1.469c.307 0 .544-.067.71-.201a.677.677 0 00.26-.567c0-.25-.087-.441-.26-.576-.166-.134-.403-.201-.71-.201h-1.469v1.545zm0-2.294h1.44c.269 0 .48-.065.634-.193.16-.128.24-.307.24-.537 0-.23-.077-.41-.231-.538-.153-.134-.368-.202-.643-.202h-1.44v1.47zM122.955 61v-5.281h.864v2.199h2.227v-2.2h.865V61h-.865v-2.295h-2.227V61h-.864zm7.204.096c-.557 0-.996-.14-1.316-.422-.32-.288-.48-.676-.48-1.162 0-.493.16-.88.48-1.162.32-.282.752-.423 1.296-.423h1.633V57.4c0-.326-.099-.576-.298-.749-.192-.179-.467-.269-.826-.269-.313 0-.576.068-.787.202a.718.718 0 00-.365.528h-.864c.058-.454.272-.816.643-1.085.372-.269.836-.403 1.393-.403.608 0 1.088.157 1.44.47.352.314.528.74.528 1.277V61h-.845v-1.008h-.144l.144-.144c0 .384-.15.688-.451.912-.295.224-.688.336-1.181.336zm.211-.682c.41 0 .746-.102 1.008-.307a.955.955 0 00.394-.787v-.75h-1.613c-.288 0-.516.08-.682.24-.167.16-.25.378-.25.654 0 .294.099.528.298.7.205.167.486.25.845.25zM15.248 80v-5.281h3.793v.787h-2.928V80h-.865zm5.322 1.728v-7.01h.864v1.009h.173l-.172.202c0-.404.13-.72.393-.95.27-.238.621-.356 1.056-.356.532 0 .954.176 1.268.528.32.346.48.823.48 1.43v1.547c0 .403-.074.752-.22 1.046a1.57 1.57 0 01-.606.682c-.256.16-.563.24-.922.24-.428 0-.777-.118-1.046-.355s-.404-.554-.404-.95l.173.2h-.192l.02 1.201v1.536h-.865zm2.026-2.38c.365 0 .65-.11.855-.327.211-.218.317-.532.317-.941v-1.44c0-.41-.106-.724-.317-.942-.205-.217-.49-.326-.855-.326-.352 0-.633.112-.845.336-.21.224-.317.534-.317.931v1.44c0 .398.106.708.317.932.212.224.493.336.845.336zm4.487 2.38l.778-2.054-1.959-4.955h.96l1.23 3.265c.044.108.086.24.124.393l.096.375.096-.375c.039-.153.077-.285.115-.393l1.153-3.265h.931l-2.602 7.01h-.922zM31.963 80v-5.281h3.956V80h-.864v-4.494h-2.227V80h-.865zm5.687 0v-5.281h3.956V80h-.864v-4.494h-2.227V80h-.865zm5.409 0v-5.281h.806v1.94h.433c.57 0 1.017.15 1.344.45.333.295.5.702.5 1.22 0 .519-.167.928-.5 1.23-.327.294-.775.441-1.344.441h-1.24zm.806-.691h.433c.339 0 .601-.087.787-.26.192-.173.288-.413.288-.72s-.096-.547-.288-.72c-.186-.173-.448-.26-.787-.26h-.433v1.96zm2.9.691v-5.281h.807V80h-.807zm7.946 0v-5.281h3.956V80h-.864v-4.494h-2.228V80h-.864zm7.665.077c-.422 0-.787-.08-1.094-.24a1.743 1.743 0 01-.72-.692c-.167-.307-.25-.668-.25-1.085v-1.402c0-.422.083-.784.25-1.085.172-.3.412-.53.72-.691.307-.16.672-.24 1.094-.24.423 0 .788.08 1.095.24.307.16.544.39.71.691.173.301.26.66.26 1.076v1.411c0 .416-.087.778-.26 1.085a1.68 1.68 0 01-.71.692c-.307.16-.672.24-1.095.24zm0-.768c.378 0 .672-.106.884-.317.21-.212.317-.522.317-.932v-1.402c0-.41-.106-.72-.317-.931-.212-.211-.506-.317-.884-.317-.371 0-.665.106-.883.317-.211.211-.317.522-.317.931v1.402c0 .41.106.72.317.932.218.211.512.317.883.317zm9.377 2.42v-7.01h.864v1.008h.173l-.173.202c0-.404.131-.72.394-.95.269-.238.62-.356 1.056-.356.531 0 .954.176 1.268.528.32.346.48.823.48 1.43v1.547c0 .403-.074.752-.221 1.046a1.57 1.57 0 01-.605.682c-.256.16-.564.24-.922.24-.429 0-.778-.118-1.047-.355-.269-.237-.403-.554-.403-.95l.173.2h-.192l.02 1.201v1.536h-.865zm2.026-2.382c.365 0 .65-.109.855-.326.21-.218.316-.532.316-.941v-1.44c0-.41-.105-.724-.317-.942-.204-.217-.49-.326-.854-.326-.352 0-.634.112-.845.336-.211.224-.317.534-.317.931v1.44c0 .398.106.708.317.932.211.224.493.336.845.336zm5.197.749c-.557 0-.995-.14-1.315-.422-.32-.289-.48-.676-.48-1.162 0-.493.16-.88.48-1.162.32-.282.752-.423 1.296-.423h1.632V76.4c0-.326-.099-.576-.297-.749-.192-.179-.468-.269-.826-.269-.314 0-.576.068-.787.202a.717.717 0 00-.365.528h-.865c.058-.454.273-.816.644-1.085s.835-.403 1.392-.403c.608 0 1.088.157 1.44.47.353.314.529.74.529 1.277V80h-.845v-1.008h-.144l.144-.144c0 .384-.15.688-.452.912-.294.224-.688.336-1.18.336zm.211-.682c.41 0 .746-.102 1.009-.307a.956.956 0 00.393-.787v-.75h-1.613c-.288 0-.515.08-.682.24-.166.16-.25.378-.25.654 0 .294.1.528.298.7.205.167.487.25.845.25zm5.687.653c-.557 0-1.014-.118-1.373-.355a1.411 1.411 0 01-.633-.96h.912c.044.16.163.291.355.393.198.103.445.154.74.154h.45c.314 0 .558-.074.73-.22a.71.71 0 00.27-.577c0-.256-.087-.458-.26-.605-.166-.147-.413-.22-.74-.22h-1.161v-.75h1.133c.294 0 .518-.07.672-.21a.72.72 0 00.23-.558.728.728 0 00-.105-.403.61.61 0 00-.298-.25 1.242 1.242 0 00-.49-.086h-.48c-.256 0-.477.057-.662.173-.186.115-.298.256-.336.422h-.913c.064-.397.273-.723.625-.98.352-.255.78-.383 1.286-.383h.48c.378 0 .701.06.97.182.27.115.474.282.615.5.147.217.22.476.22.777 0 .314-.102.573-.307.778-.204.198-.493.31-.864.336v.038c.455.032.784.154.99.365.204.212.306.516.306.912 0 .468-.172.84-.518 1.114-.346.276-.81.413-1.392.413h-.452zm3.296 0v-.806h.173c.295 0 .5-.116.615-.346.121-.23.185-.643.192-1.239l.057-2.957h3.582V80h-.864v-4.494h-1.863l-.048 2.209c-.013.557-.077 1.008-.192 1.354-.109.345-.282.598-.519.758-.23.16-.534.24-.912.24h-.22zM94.52 80v-5.281h.826v2.88c0 .186-.007.381-.02.586-.006.205-.019.4-.038.586a6.09 6.09 0 01-.048.46l2.132-4.512h1.104V80h-.826v-2.88c0-.186.003-.382.01-.586.013-.205.029-.4.048-.586l.048-.47L95.624 80H94.52zm8.721 0v-1.92a4.18 4.18 0 01-.47.076 7.02 7.02 0 01-.653.03c-.653.006-1.162-.151-1.527-.471-.359-.327-.538-.781-.538-1.364V74.72h.864v1.632c0 .327.109.586.327.778.224.186.531.278.922.278.269 0 .496-.01.681-.028.192-.026.324-.048.394-.068V74.72h.864V80h-.864zm2.653 0v-5.281h.864v2.199h2.228v-2.2h.864V80h-.864v-2.295h-2.228V80h-.864zm5.408 0v-5.281h.807v1.94h.432c.57 0 1.018.15 1.344.45.333.295.5.702.5 1.22 0 .519-.167.928-.5 1.23-.326.294-.774.441-1.344.441h-1.239zm.807-.691h.432c.339 0 .602-.087.787-.26.192-.173.288-.413.288-.72s-.096-.547-.288-.72c-.185-.173-.448-.26-.787-.26h-.432v1.96zm2.9.691v-5.281h.806V80h-.806zm2.086 0v-5.281h1.171l.692 2.026c.07.205.134.41.192.614.057.199.099.353.125.461.025-.108.064-.262.115-.46.057-.205.118-.413.182-.625l.653-2.016h1.172V80h-.836v-.816c0-.288.003-.602.01-.941l.019-1.028.038-.98c.013-.313.023-.588.029-.825l-.941 3.006h-.912l-.951-2.987c.013.288.023.647.029 1.076.013.429.023.877.029 1.344.013.467.019.912.019 1.335V80h-.835zM14.931 99v-5.281h.865v2.18h.902l1.537-2.18h.989l-1.777 2.516L19.252 99h-1.008l-1.536-2.353h-.912V99h-.865zm5.64 1.728v-7.01h.863v1.009h.173l-.172.202c0-.404.13-.72.393-.95.27-.238.621-.356 1.056-.356.532 0 .954.176 1.268.528.32.346.48.823.48 1.43v1.547c0 .403-.074.752-.22 1.046a1.57 1.57 0 01-.606.682c-.256.16-.563.24-.922.24-.428 0-.777-.118-1.046-.355s-.404-.554-.404-.95l.173.2h-.192l.02 1.201v1.536h-.865zm2.025-2.38c.365 0 .65-.11.855-.327.211-.218.317-.532.317-.941v-1.44c0-.41-.106-.724-.317-.942-.205-.217-.49-.326-.855-.326-.352 0-.633.112-.845.336-.21.224-.317.534-.317.931v1.44c0 .398.106.708.317.932.212.224.493.336.845.336zm3.68.652v-5.281h.826v2.88c0 .186-.006.381-.019.586-.006.205-.02.4-.038.586a6.09 6.09 0 01-.048.46l2.131-4.512h1.105V99h-.826v-2.88c0-.186.003-.382.01-.586.012-.205.028-.4.047-.586l.048-.47L27.381 99h-1.105zm7.233 0v-4.523h-1.92v-.758h4.705v.758h-1.92V99h-.865zm6.12.096c-.417 0-.782-.083-1.095-.25a1.807 1.807 0 01-.72-.7 2.203 2.203 0 01-.25-1.066v-1.44c0-.41.083-.766.25-1.067.172-.3.413-.534.72-.7a2.29 2.29 0 011.094-.25c.416 0 .778.083 1.086.25.313.166.553.4.72.7.172.301.259.657.259 1.066v.932h-3.284v.509c0 .416.106.736.317.96.211.217.512.326.902.326.333 0 .602-.057.807-.173.205-.121.33-.3.374-.537h.865a1.471 1.471 0 01-.653 1.056c-.371.256-.836.384-1.393.384zm1.219-3.102v-.355c0-.416-.106-.736-.317-.96-.205-.224-.506-.336-.903-.336-.39 0-.69.112-.902.336-.211.224-.317.544-.317.96v.279h2.506l-.067.076zm2.47 4.734v-7.01h.864v1.009h.173l-.173.202c0-.404.132-.72.394-.95.269-.238.621-.356 1.056-.356.532 0 .954.176 1.268.528.32.346.48.823.48 1.43v1.547c0 .403-.074.752-.221 1.046a1.57 1.57 0 01-.605.682c-.256.16-.563.24-.922.24-.429 0-.777-.118-1.046-.355-.27-.237-.404-.554-.404-.95l.173.2h-.192l.02 1.201v1.536h-.865zm2.026-2.38c.365 0 .65-.11.855-.327.211-.218.317-.532.317-.941v-1.44c0-.41-.106-.724-.317-.942-.205-.217-.49-.326-.855-.326-.352 0-.634.112-.845.336-.211.224-.317.534-.317.931v1.44c0 .398.106.708.317.932.211.224.493.336.845.336zm3.68.652v-5.281h.826v2.88c0 .186-.006.381-.02.586-.005.205-.018.4-.038.586-.012.18-.028.333-.048.46l2.132-4.512h1.104V99h-.825v-2.88c0-.186.003-.382.01-.586.012-.205.028-.4.047-.586l.048-.47L50.13 99h-1.105zm5.36 0l1.355-2.036c-.404-.096-.717-.281-.941-.557-.218-.275-.327-.617-.327-1.027 0-.518.17-.925.51-1.22.345-.294.815-.441 1.41-.441h2.276V99h-.864v-1.968h-1.162L55.393 99h-1.008zm2.008-2.737h1.411v-1.776h-1.411c-.32 0-.573.08-.759.24-.186.154-.278.371-.278.653 0 .275.092.493.278.653.186.154.438.23.759.23zM60.225 99v-5.281h1.172l.691 2.026c.07.205.135.41.192.614.058.199.1.353.125.461.026-.108.064-.262.115-.46.058-.205.119-.413.183-.625l.653-2.016h1.171V99h-.835v-.816c0-.288.003-.602.01-.941l.019-1.028c.012-.345.025-.672.038-.98.013-.313.022-.588.029-.825l-.941 3.006h-.913l-.95-2.987c.013.288.022.647.029 1.076.013.429.022.877.029 1.344.012.467.019.912.019 1.335V99h-.836zm15.301 1.152c-.908-.224-1.616-.665-2.122-1.325-.505-.66-.758-1.466-.758-2.42V94.68c0-.627.115-1.194.346-1.7a3.62 3.62 0 01.998-1.296 3.919 3.919 0 011.537-.749v.816a2.34 2.34 0 00-1.066.557 2.72 2.72 0 00-.701 1.008c-.167.404-.25.858-.25 1.364v1.728c0 .493.08.941.24 1.345.167.403.4.74.701 1.008.307.262.666.442 1.076.538v.854zm2.74.576l.777-2.054-1.959-4.955h.96l1.23 3.265a2.9 2.9 0 01.125.393l.096.375c.025-.103.057-.227.096-.375.038-.153.077-.285.115-.393l1.152-3.265h.932l-2.603 7.009h-.921zm4.86 0v-7.01h.865v1.009h.173l-.173.202c0-.404.131-.72.394-.95.268-.238.62-.356 1.056-.356.531 0 .954.176 1.267.528.32.346.48.823.48 1.43v1.547c0 .403-.073.752-.22 1.046a1.57 1.57 0 01-.605.682c-.256.16-.564.24-.922.24-.429 0-.778-.118-1.047-.355-.269-.237-.403-.554-.403-.95l.173.2h-.192l.019 1.201v1.536h-.864zm2.027-2.38c.365 0 .65-.11.854-.327.212-.218.317-.532.317-.941v-1.44c0-.41-.105-.724-.317-.942-.204-.217-.49-.326-.854-.326-.352 0-.634.112-.845.336-.211.224-.317.534-.317.931v1.44c0 .398.106.708.317.932.211.224.493.336.845.336zm5.658.729c-.423 0-.787-.08-1.095-.24a1.743 1.743 0 01-.72-.692c-.166-.307-.25-.668-.25-1.085v-1.402c0-.422.084-.784.25-1.085.173-.3.413-.53.72-.691.308-.16.672-.24 1.095-.24.422 0 .787.08 1.095.24.307.16.544.39.71.691.173.301.26.66.26 1.076v1.411c0 .416-.087.778-.26 1.085a1.68 1.68 0 01-.71.692c-.308.16-.672.24-1.095.24zm0-.768c.378 0 .672-.106.883-.317.212-.212.317-.522.317-.932v-1.402c0-.41-.105-.72-.317-.931-.21-.211-.505-.317-.883-.317-.371 0-.666.106-.883.317-.212.211-.317.522-.317.931v1.402c0 .41.105.72.317.932.217.211.512.317.883.317zM94.52 99v-5.281h2.285c.55 0 .976.125 1.277.374.301.243.452.586.452 1.028 0 .365-.125.66-.375.883-.25.218-.58.327-.989.327v-.077c.448 0 .807.112 1.076.336.275.224.412.525.412.903 0 .473-.16.845-.48 1.113-.32.263-.768.394-1.344.394H94.52zm.845-.759h1.469c.307 0 .544-.067.71-.201a.679.679 0 00.26-.567c0-.25-.087-.441-.26-.576-.166-.134-.403-.202-.71-.202h-1.47v1.546zm0-2.294h1.44c.269 0 .48-.065.634-.193.16-.128.24-.307.24-.537 0-.23-.077-.41-.23-.538-.154-.134-.369-.202-.644-.202h-1.44v1.47zm6.82 3.149c-.416 0-.781-.083-1.095-.25a1.81 1.81 0 01-.72-.7 2.208 2.208 0 01-.25-1.066v-1.44c0-.41.084-.766.25-1.067.173-.3.413-.534.72-.7.314-.167.679-.25 1.095-.25.416 0 .778.083 1.085.25.314.166.554.4.72.7.173.301.259.657.259 1.066v.932h-3.284v.509c0 .416.106.736.317.96.212.217.512.326.903.326.333 0 .602-.057.806-.173a.76.76 0 00.375-.537h.864a1.468 1.468 0 01-.653 1.056c-.371.256-.835.384-1.392.384zm1.219-3.102v-.355c0-.416-.105-.736-.317-.96-.204-.224-.505-.336-.902-.336-.391 0-.691.112-.903.336-.211.224-.317.544-.317.96v.279h2.507l-.068.076zm2.49 3.006v-5.281h.864v2.199h2.228v-2.2h.864V99h-.864v-2.295h-2.228V99h-.864zm5.725 0v-5.281h.864v1.94h1.556c.595 0 1.063.15 1.402.45.345.295.518.702.518 1.22 0 .512-.173.919-.518 1.22-.346.3-.813.451-1.402.451h-2.42zm.864-.787h1.556c.333 0 .586-.074.758-.221.18-.154.269-.375.269-.663 0-.288-.089-.505-.269-.653-.172-.153-.425-.23-.758-.23h-1.556v1.767zm12.2.854c-.557 0-1.015-.118-1.373-.355a1.414 1.414 0 01-.634-.96h.912c.045.16.164.291.356.393.198.103.445.154.739.154h.451c.314 0 .557-.074.73-.22a.71.71 0 00.269-.577c0-.256-.087-.458-.259-.605-.167-.147-.413-.22-.74-.22h-1.162v-.75h1.133c.295 0 .519-.07.673-.21a.722.722 0 00.23-.558.723.723 0 00-.106-.403.61.61 0 00-.297-.25 1.245 1.245 0 00-.49-.086h-.48c-.256 0-.477.057-.663.173-.185.115-.297.256-.336.422h-.912c.064-.397.272-.723.624-.98.352-.255.781-.383 1.287-.383h.48c.378 0 .701.06.97.182a1.327 1.327 0 01.835 1.277c0 .314-.102.573-.307.778-.205.198-.493.31-.864.336v.038c.454.032.784.154.989.365.205.212.307.516.307.912 0 .468-.173.84-.518 1.114-.346.276-.81.413-1.393.413h-.451zm3.959-.067v-5.281h.864v2.199h2.227v-2.2h.865V99h-.865v-2.295h-2.227V99h-.864zm7.204.096c-.557 0-.996-.14-1.316-.422-.32-.289-.48-.676-.48-1.162 0-.493.16-.88.48-1.162.32-.282.752-.423 1.296-.423h1.633V95.4c0-.326-.099-.576-.298-.749-.192-.179-.467-.269-.826-.269-.313 0-.576.068-.787.202a.718.718 0 00-.365.528h-.864c.058-.454.272-.816.643-1.085.372-.269.836-.403 1.393-.403.608 0 1.088.157 1.44.47.352.314.528.74.528 1.277V99h-.845v-1.008h-.144l.144-.144c0 .384-.15.688-.451.912-.295.224-.688.336-1.181.336zm.211-.682c.41 0 .746-.102 1.008-.307a.955.955 0 00.394-.787v-.75h-1.613c-.288 0-.516.08-.682.24-.167.16-.25.378-.25.654 0 .294.099.528.298.7.205.167.486.25.845.25zm3.958.586v-5.281h.865v2.199h2.227v-2.2h.865V99h-.865v-2.295h-2.227V99h-.865zm5.687 0v-5.281h.826v2.88c0 .186-.006.381-.019.586-.006.205-.019.4-.038.586-.013.18-.029.333-.048.46l2.131-4.512h1.104V99h-.825v-2.88c0-.186.003-.382.009-.586.013-.205.029-.4.048-.586l.048-.47L146.807 99h-1.105zm5.687 0v-5.281h.826v2.88c0 .186-.006.381-.019.586-.006.205-.019.4-.038.586-.013.18-.029.333-.049.46l2.132-4.512h1.104V99h-.825v-2.88c0-.186.003-.382.009-.586.013-.205.029-.4.048-.586l.048-.47L152.494 99h-1.105zm2.017-6.145c-.461 0-.832-.128-1.114-.385-.282-.255-.423-.592-.423-1.008h.682c0 .25.077.452.231.605.153.154.358.23.614.23.263 0 .471-.076.624-.23a.8.8 0 00.24-.605h.682c0 .416-.141.752-.422 1.008-.282.257-.653.385-1.114.385zm4.352 7.681l.768-2.986h1.248l-1.248 2.986h-.768zM16.42 119.096c-.557 0-.996-.141-1.316-.422-.32-.289-.48-.676-.48-1.162 0-.493.16-.881.48-1.162.32-.282.752-.423 1.297-.423h1.632v-.528c0-.326-.1-.576-.298-.749-.192-.179-.467-.269-.825-.269-.314 0-.577.068-.788.202a.717.717 0 00-.365.528h-.864c.058-.454.272-.816.643-1.085.372-.269.836-.403 1.393-.403.608 0 1.088.157 1.44.47.352.314.528.74.528 1.277V119h-.845v-1.008h-.144l.144-.144c0 .384-.15.688-.451.912-.295.224-.688.336-1.181.336zm.211-.682c.41 0 .746-.102 1.008-.307a.955.955 0 00.394-.787v-.749H16.42c-.288 0-.516.08-.682.24-.166.16-.25.377-.25.653 0 .294.1.528.298.701.205.166.487.249.845.249zm3.987.586v-5.281h.865v2.179h.902l1.537-2.179h.988l-1.776 2.516L24.94 119h-1.008l-1.536-2.353h-.912V119h-.865zm7.204 0v-4.523h-1.92v-.758h4.705v.758h-1.92V119h-.865zm4.141 0v-5.281h.826v2.88c0 .186-.006.381-.019.586a8.2 8.2 0 01-.038.586 6.11 6.11 0 01-.048.461l2.131-4.513h1.105V119h-.826v-2.881c0-.185.003-.381.01-.585.012-.205.028-.4.047-.586l.048-.471L33.068 119h-1.105zm5.687 0v-5.281h2.286c.55 0 .976.125 1.277.374.3.244.451.586.451 1.028 0 .365-.125.659-.374.883-.25.218-.58.327-.99.327v-.077c.449 0 .807.112 1.076.336.275.224.413.525.413.902 0 .474-.16.845-.48 1.114-.32.263-.768.394-1.344.394H37.65zm.845-.759h1.47c.307 0 .544-.067.71-.201a.677.677 0 00.26-.567c0-.249-.087-.441-.26-.576-.166-.134-.403-.202-.71-.202h-1.47v1.546zm0-2.294h1.44c.27 0 .48-.065.634-.193.16-.128.24-.307.24-.537 0-.231-.076-.41-.23-.538-.154-.134-.368-.202-.643-.202h-1.44v1.47zM43.337 119v-5.281h.864v2.199h2.228v-2.199h.864V119h-.864v-2.295h-2.227V119h-.865zm7.665.077c-.422 0-.787-.08-1.094-.24a1.744 1.744 0 01-.72-.692c-.167-.307-.25-.669-.25-1.085v-1.402c0-.422.083-.784.25-1.085.172-.3.412-.531.72-.691.307-.16.672-.24 1.094-.24.423 0 .788.08 1.095.24.307.16.544.391.71.691.173.301.26.66.26 1.076v1.411c0 .416-.087.778-.26 1.085a1.683 1.683 0 01-.71.692c-.307.16-.672.24-1.095.24zm0-.768c.378 0 .672-.106.884-.317.211-.211.317-.522.317-.932v-1.402c0-.409-.106-.72-.317-.931-.212-.211-.506-.317-.884-.317-.371 0-.665.106-.883.317-.211.211-.317.522-.317.931v1.402c0 .41.106.721.317.932.218.211.512.317.883.317zm5.706.787a2.46 2.46 0 01-1.113-.24 1.733 1.733 0 01-.73-.691c-.173-.308-.26-.669-.26-1.085v-1.441c0-.422.087-.784.26-1.085.173-.301.416-.531.73-.691.32-.16.691-.24 1.114-.24.608 0 1.097.163 1.469.489.37.327.566.772.585 1.335H57.9c-.02-.339-.134-.598-.346-.778-.204-.185-.486-.278-.844-.278-.378 0-.68.109-.903.326-.224.212-.336.516-.336.913v1.45c0 .396.112.704.336.921.224.218.525.327.903.327.358 0 .64-.093.844-.279.212-.185.327-.445.346-.777h.864c-.019.563-.214 1.008-.585 1.334-.372.327-.861.49-1.47.49zm5.236-.096v-4.523h-1.92v-.758h4.705v.758h-1.92V119h-.865zm4.18 0v-5.281h.864v1.939h1.555c.596 0 1.063.151 1.402.452.346.294.519.701.519 1.219 0 .512-.173.919-.519 1.22-.345.301-.813.451-1.402.451h-2.42zm.864-.787h1.555c.333 0 .586-.074.759-.221.18-.154.269-.375.269-.663 0-.288-.09-.505-.27-.653-.172-.153-.425-.23-.758-.23h-1.555v1.767zm5.466 2.323l.768-2.986h1.248l-1.248 2.986h-.768zM83.146 119v-5.281h.826v2.88c0 .186-.007.381-.02.586a8.2 8.2 0 01-.038.586 6.11 6.11 0 01-.048.461l2.132-4.513h1.104V119h-.826v-2.881c0-.185.004-.381.01-.585.013-.205.029-.4.048-.586l.048-.471L84.25 119h-1.104zm5.687 0v-5.281h.864v2.199h2.228v-2.199h.864V119h-.864v-2.295h-2.228V119h-.864zm7.233 0v-4.523h-1.92v-.758h4.704v.758h-1.92V119h-.864zm6.119.096c-.416 0-.781-.083-1.095-.25a1.805 1.805 0 01-.72-.701 2.205 2.205 0 01-.25-1.065v-1.441c0-.409.084-.765.25-1.066.173-.3.413-.534.72-.701a2.31 2.31 0 011.095-.249c.416 0 .778.083 1.085.249.314.167.554.401.72.701.173.301.259.657.259 1.066v.932h-3.284v.509c0 .416.106.736.317.96.212.217.512.326.903.326.333 0 .602-.057.806-.173a.76.76 0 00.375-.537h.864a1.47 1.47 0 01-.653 1.056c-.371.256-.835.384-1.392.384zm1.219-3.101v-.356c0-.416-.105-.736-.317-.96-.204-.224-.505-.336-.902-.336-.391 0-.691.112-.903.336-.211.224-.317.544-.317.96v.279h2.507l-.068.077zm2.471 4.733v-7.009h.864v1.008h.173l-.173.202c0-.404.131-.72.393-.951.269-.237.621-.355 1.057-.355.531 0 .953.176 1.267.528.32.346.48.822.48 1.431v1.546c0 .403-.073.752-.221 1.046a1.56 1.56 0 01-.605.682c-.256.16-.563.24-.921.24-.429 0-.778-.118-1.047-.355-.269-.237-.403-.554-.403-.951l.173.202h-.192l.019 1.2v1.536h-.864zm2.026-2.381c.364 0 .649-.109.854-.326.211-.218.317-.532.317-.941v-1.441c0-.409-.106-.723-.317-.941-.205-.217-.49-.326-.854-.326-.352 0-.634.112-.845.336-.212.224-.317.534-.317.931v1.441c0 .396.105.707.317.931.211.224.493.336.845.336zm5.658.749c-.416 0-.781-.083-1.095-.25a1.805 1.805 0 01-.72-.701 2.205 2.205 0 01-.25-1.065v-1.441c0-.409.084-.765.25-1.066.173-.3.413-.534.72-.701a2.31 2.31 0 011.095-.249c.416 0 .778.083 1.085.249.313.167.554.401.72.701.173.301.259.657.259 1.066v.932h-3.284v.509c0 .416.106.736.317.96.211.217.512.326.903.326.333 0 .601-.057.806-.173a.76.76 0 00.375-.537h.864a1.473 1.473 0 01-.653 1.056c-.371.256-.835.384-1.392.384zm1.219-3.101v-.356c0-.416-.105-.736-.317-.96-.204-.224-.505-.336-.902-.336-.391 0-.692.112-.903.336-.211.224-.317.544-.317.96v.279h2.506l-.067.077zm4.487 3.101a2.46 2.46 0 01-1.114-.24 1.733 1.733 0 01-.73-.691c-.173-.308-.259-.669-.259-1.085v-1.441c0-.422.086-.784.259-1.085.173-.301.416-.531.73-.691.32-.16.691-.24 1.114-.24.608 0 1.098.163 1.469.489.371.327.567.772.586 1.335h-.864c-.02-.339-.135-.598-.346-.778-.205-.185-.487-.278-.845-.278-.378 0-.679.109-.903.326-.224.212-.336.516-.336.913v1.45c0 .396.112.704.336.921.224.218.525.327.903.327.358 0 .64-.093.845-.279.211-.185.326-.445.346-.777h.864c-.019.563-.215 1.008-.586 1.334-.371.327-.861.49-1.469.49zm3.411-.096v-5.281h.807v1.939h.432c.57 0 1.018.151 1.344.452.333.294.499.701.499 1.219 0 .519-.166.928-.499 1.229-.326.295-.774.442-1.344.442h-1.239zm.807-.691h.432c.339 0 .602-.087.787-.26.192-.172.288-.413.288-.72s-.096-.547-.288-.72c-.185-.173-.448-.259-.787-.259h-.432v1.959zm2.9.691v-5.281h.806V119h-.806zm-111.48 19v-5.281h.825v2.88c0 .186-.006.381-.019.586a8.2 8.2 0 01-.038.586 6.11 6.11 0 01-.048.461l2.131-4.513h1.105V138h-.826v-2.881c0-.185.003-.381.01-.585.012-.205.028-.4.047-.586l.049-.471L16.006 138h-1.104zm12.92 0v-4.523h-1.921v-.758h4.705v.758h-1.92V138h-.865zm6.118.096c-.243 0-.438-.07-.585-.211-.141-.141-.212-.33-.212-.567 0-.249.07-.448.212-.595.147-.147.342-.221.585-.221.244 0 .436.074.577.221.147.147.22.346.22.595 0 .237-.073.426-.22.567-.141.141-.333.211-.577.211zm3.095 1.248v-2.083h.432c.109-.109.22-.324.336-.644.122-.32.186-.726.192-1.219l.058-2.679H41.5v4.542h.672v2.083h-.768V138h-3.601v1.344h-.768zm1.344-2.083h2.257v-3.774H38.87l-.038 1.93c-.007.506-.061.915-.164 1.229-.102.314-.198.519-.288.615zm6.935.835c-.243 0-.438-.07-.585-.211-.141-.141-.212-.33-.212-.567 0-.249.07-.448.212-.595.147-.147.342-.221.585-.221.244 0 .436.074.577.221.147.147.22.346.22.595 0 .237-.073.426-.22.567-.141.141-.333.211-.577.211zm3.91 1.056v-.854a2.447 2.447 0 001.076-.538 2.63 2.63 0 00.692-1.008c.166-.404.25-.852.25-1.345v-1.728c0-.506-.084-.96-.25-1.363-.167-.404-.4-.74-.701-1.009a2.345 2.345 0 00-1.066-.557v-.816a3.832 3.832 0 011.536.749c.43.352.759.784.99 1.296.236.506.355 1.073.355 1.7v1.728c0 .954-.253 1.761-.759 2.42-.506.66-1.213 1.101-2.122 1.325zm7.464-1.056c-.243 0-.438-.07-.586-.211-.14-.141-.21-.33-.21-.567 0-.249.07-.448.21-.595.148-.147.343-.221.586-.221.243 0 .436.074.576.221.148.147.221.346.221.595 0 .237-.073.426-.22.567-.141.141-.334.211-.577.211zM15.056 27v-7.01h4.081v.788H15.92V27h-.864zm4.871.067v-.806h.173c.294 0 .5-.116.614-.346.122-.23.186-.643.192-1.239l.058-2.957h3.582V27h-.865v-4.494H21.82l-.048 2.209c-.013.557-.077 1.008-.192 1.354-.11.345-.282.598-.519.758-.23.16-.534.24-.912.24h-.221zm7.156 1.661l.778-2.055-1.959-4.954h.96l1.23 3.264c.044.11.086.24.124.394l.096.375.096-.375c.039-.153.077-.285.115-.393l1.153-3.265h.931l-2.602 7.01h-.922zm6.858-1.632c-.62 0-1.113-.182-1.478-.547-.359-.372-.538-.877-.538-1.517V22.63c0-.845.211-1.495.634-1.95.422-.46 1.027-.69 1.815-.69h1.344v.864h-1.344c-.519 0-.913.153-1.181.46-.27.301-.404.74-.404 1.316v.624h.135l-.135.192c.007-.377.135-.672.384-.883.25-.212.59-.317 1.018-.317.557 0 .99.18 1.296.538.314.358.47.851.47 1.478v.769c0 .428-.08.796-.24 1.104-.16.307-.39.544-.69.71-.301.167-.663.25-1.086.25zm0-.768c.372 0 .657-.112.855-.336.199-.224.298-.544.298-.96v-.769c0-.416-.1-.736-.298-.96-.198-.224-.483-.336-.855-.336-.37 0-.656.112-.854.336-.199.218-.298.538-.298.96v.769c0 .416.1.736.298.96.198.224.483.336.854.336zm5.687.749c-.422 0-.787-.08-1.094-.24a1.743 1.743 0 01-.72-.692c-.167-.307-.25-.668-.25-1.085v-1.402c0-.422.083-.784.25-1.085.172-.3.413-.53.72-.691.307-.16.672-.24 1.094-.24.423 0 .788.08 1.095.24.307.16.544.39.71.691.173.301.26.66.26 1.076v1.411c0 .417-.087.778-.26 1.085a1.68 1.68 0 01-.71.692c-.307.16-.672.24-1.095.24zm0-.768c.378 0 .673-.106.884-.317.211-.212.317-.522.317-.932v-1.402c0-.41-.106-.72-.317-.931-.211-.211-.506-.317-.884-.317-.37 0-.665.106-.883.317-.211.211-.317.522-.317.931v1.402c0 .41.106.72.317.932.218.211.512.317.883.317zm3.738.691v-5.281h.864v2.18h.903l1.536-2.18h.99l-1.777 2.516L47.687 27H46.68l-1.537-2.352h-.912V27h-.864zm7.636.077c-.422 0-.787-.08-1.094-.24a1.743 1.743 0 01-.72-.692c-.167-.307-.25-.668-.25-1.085v-1.402c0-.422.083-.784.25-1.085.172-.3.412-.53.72-.691.307-.16.672-.24 1.094-.24.423 0 .788.08 1.095.24.307.16.544.39.71.691.173.301.26.66.26 1.076v1.411c0 .417-.087.778-.26 1.085a1.68 1.68 0 01-.71.692c-.307.16-.672.24-1.095.24zm0-.768c.378 0 .672-.106.884-.317.211-.212.317-.522.317-.932v-1.402c0-.41-.106-.72-.317-.931-.212-.211-.506-.317-.884-.317-.371 0-.665.106-.883.317-.211.211-.317.522-.317.931v1.402c0 .41.106.72.317.932.218.211.512.317.883.317zm5.687.787c-.416 0-.78-.083-1.094-.25a1.807 1.807 0 01-.72-.7 2.202 2.202 0 01-.25-1.066v-1.44c0-.41.083-.766.25-1.067.172-.3.412-.534.72-.7a2.29 2.29 0 011.094-.25c.416 0 .778.083 1.085.25.314.166.554.4.72.7.173.301.26.657.26 1.066v.932H55.47v.509c0 .416.105.736.317.96.21.217.512.326.902.326.333 0 .602-.057.807-.173.205-.121.33-.3.374-.537h.864a1.47 1.47 0 01-.652 1.056c-.372.256-.836.384-1.393.384zm1.22-3.102v-.355c0-.416-.106-.736-.317-.96-.205-.224-.506-.336-.903-.336-.39 0-.691.112-.902.336-.212.224-.317.544-.317.96v.279h2.506l-.067.076zm10.173 3.102a2.46 2.46 0 01-1.113-.24 1.73 1.73 0 01-.73-.691c-.173-.308-.26-.67-.26-1.085v-1.44c0-.423.087-.785.26-1.086.173-.3.416-.531.73-.691.32-.16.69-.24 1.113-.24.609 0 1.098.163 1.47.49.37.326.566.77.585 1.334h-.864c-.02-.34-.134-.598-.346-.778-.205-.185-.486-.278-.845-.278-.377 0-.678.109-.902.326-.224.212-.336.516-.336.913v1.45c0 .397.112.704.336.921.224.218.525.327.902.327.359 0 .64-.093.845-.279.212-.185.327-.444.346-.777h.864c-.019.563-.214 1.008-.585 1.334-.372.327-.862.49-1.47.49zm5.668 0c-.416 0-.78-.083-1.094-.25a1.807 1.807 0 01-.72-.7 2.203 2.203 0 01-.25-1.066v-1.44c0-.41.083-.766.25-1.067.172-.3.412-.534.72-.7a2.29 2.29 0 011.094-.25c.416 0 .778.083 1.085.25.314.166.554.4.72.7.173.301.26.657.26 1.066v.932H72.53v.509c0 .416.105.736.316.96.212.217.513.326.903.326.333 0 .602-.057.807-.173a.76.76 0 00.374-.537h.864a1.47 1.47 0 01-.653 1.056c-.37.256-.835.384-1.392.384zm1.22-3.102v-.355c0-.416-.106-.736-.317-.96-.205-.224-.506-.336-.903-.336-.39 0-.691.112-.903.336-.21.224-.316.544-.316.96v.279h2.506l-.067.076zM77.805 27v-5.281h3.793v.787h-2.93V27h-.863zm5.168 0v-5.281h1.172l.69 2.026c.071.205.135.41.193.614.058.199.1.352.125.461.025-.108.064-.262.115-.46.058-.205.118-.413.183-.625l.652-2.016h1.172V27h-.836v-.816c0-.288.004-.602.01-.941l.02-1.028c.012-.345.025-.672.038-.98.012-.313.022-.588.028-.825l-.94 3.006h-.913l-.95-2.987c.013.288.022.647.028 1.076.013.429.023.877.03 1.344.012.467.018.912.018 1.335V27h-.835zm7.838.096c-.416 0-.781-.083-1.095-.25a1.806 1.806 0 01-.72-.7 2.202 2.202 0 01-.25-1.066v-1.44c0-.41.084-.766.25-1.067.173-.3.413-.534.72-.7.314-.167.679-.25 1.095-.25.416 0 .778.083 1.085.25.314.166.554.4.72.7.173.301.26.657.26 1.066v.932H89.59v.509c0 .416.106.736.317.96.212.217.513.326.903.326.333 0 .602-.057.806-.173a.76.76 0 00.375-.537h.864a1.47 1.47 0 01-.653 1.056c-.371.256-.835.384-1.392.384zm1.22-3.102v-.355c0-.416-.106-.736-.317-.96-.205-.224-.506-.336-.903-.336-.39 0-.691.112-.903.336-.21.224-.317.544-.317.96v.279h2.507l-.068.076zM94.52 27v-5.281h.864v2.199h2.228v-2.2h.864V27h-.864v-2.295h-2.228V27h-.864zm7.233 0v-4.523h-1.92v-.758h4.704v.758h-1.92V27h-.864zm4.141 0v-5.281h.826v2.88c0 .186-.007.381-.02.586-.006.205-.019.4-.038.586-.013.18-.029.333-.048.46l2.132-4.512h1.104V27h-.826v-2.88c0-.186.003-.382.01-.586.012-.205.028-.4.048-.586l.048-.47L106.998 27h-1.104zm5.668 1.728v-7.01h.864v1.009h.173l-.173.202c0-.404.131-.72.393-.95.269-.238.621-.356 1.057-.356.531 0 .953.176 1.267.528.32.346.48.823.48 1.43v1.547c0 .403-.073.752-.221 1.046a1.56 1.56 0 01-.605.682c-.256.16-.563.24-.921.24-.429 0-.778-.118-1.047-.355-.269-.237-.403-.554-.403-.95l.173.2h-.193l.02 1.201v1.536h-.864zm2.026-2.38c.364 0 .649-.11.854-.327.211-.218.317-.532.317-.941v-1.44c0-.41-.106-.724-.317-.942-.205-.217-.49-.326-.854-.326-.353 0-.634.112-.845.336-.212.224-.317.534-.317.931v1.44c0 .398.105.708.317.932.211.224.492.336.845.336zm5.658.729c-.423 0-.788-.08-1.095-.24a1.745 1.745 0 01-.72-.692c-.167-.307-.25-.668-.25-1.085v-1.402c0-.422.083-.784.25-1.085.173-.3.413-.53.72-.691.307-.16.672-.24 1.095-.24.422 0 .787.08 1.094.24.308.16.544.39.711.691.173.301.259.66.259 1.076v1.411c0 .417-.086.778-.259 1.085a1.683 1.683 0 01-.711.692c-.307.16-.672.24-1.094.24zm0-.768c.377 0 .672-.106.883-.317.211-.212.317-.522.317-.932v-1.402c0-.41-.106-.72-.317-.931-.211-.211-.506-.317-.883-.317-.372 0-.666.106-.884.317-.211.211-.317.522-.317.931v1.402c0 .41.106.72.317.932.218.211.512.317.884.317zm3.709.691v-5.281h2.285c.55 0 .976.125 1.277.374.301.244.451.586.451 1.028 0 .365-.125.66-.374.883-.25.218-.58.327-.989.327v-.077c.448 0 .806.112 1.075.336.276.224.413.525.413.902 0 .474-.16.845-.48 1.114-.32.263-.768.394-1.344.394h-2.314zm.845-.759h1.469c.307 0 .544-.067.71-.201a.677.677 0 00.26-.567c0-.25-.087-.441-.26-.576-.166-.134-.403-.201-.71-.201H123.8v1.545zm0-2.294h1.44c.269 0 .48-.064.634-.192a.652.652 0 00.24-.538c0-.23-.077-.41-.231-.538-.153-.134-.368-.202-.643-.202h-1.44v1.47zm6.359 3.149c-.557 0-.996-.14-1.316-.422-.32-.288-.48-.676-.48-1.162 0-.493.16-.88.48-1.162.32-.282.752-.423 1.296-.423h1.633V23.4c0-.326-.099-.576-.298-.749-.192-.179-.467-.269-.826-.269-.313 0-.576.068-.787.202a.718.718 0 00-.365.528h-.864c.058-.454.272-.816.643-1.085.372-.269.836-.403 1.393-.403.608 0 1.088.157 1.44.47.352.314.528.74.528 1.277V27h-.845v-1.008h-.144l.144-.144c0 .384-.15.688-.451.912-.295.224-.688.336-1.181.336zm.211-.682c.41 0 .746-.102 1.008-.307a.955.955 0 00.394-.787v-.75h-1.613c-.288 0-.516.08-.682.24-.167.16-.25.378-.25.654 0 .294.099.528.298.7.205.167.486.25.845.25zm3.958.586v-5.281h.865v2.199h2.227v-2.2h.865V27h-.865v-2.295h-2.227V27h-.865zm5.687 0v-5.281h.826v2.88c0 .186-.006.381-.019.586-.006.205-.019.4-.038.586-.013.18-.029.333-.048.46l2.131-4.512h1.105V27h-.826v-2.88c0-.186.003-.382.009-.586.013-.205.029-.4.048-.586l.048-.47L141.12 27h-1.105zm7.665.096a2.29 2.29 0 01-1.094-.25 1.803 1.803 0 01-.72-.7 2.197 2.197 0 01-.25-1.066v-1.44c0-.41.083-.766.25-1.067.172-.3.413-.534.72-.7a2.29 2.29 0 011.094-.25c.417 0 .778.083 1.085.25.314.166.554.4.721.7.172.301.259.657.259 1.066v.932h-3.284v.509c0 .416.106.736.317.96.211.217.512.326.902.326.333 0 .602-.057.807-.173a.76.76 0 00.374-.537h.865a1.474 1.474 0 01-.653 1.056c-.372.256-.836.384-1.393.384zm1.22-3.102v-.355c0-.416-.106-.736-.317-.96-.205-.224-.506-.336-.903-.336-.39 0-.691.112-.902.336-.211.224-.317.544-.317.96v.279h2.506l-.067.076zm4.467-.93c-.236 0-.429-.065-.576-.193a.683.683 0 01-.221-.528c0-.218.074-.39.221-.519.147-.134.34-.201.576-.201.244 0 .436.067.577.201.147.128.22.301.22.519a.682.682 0 01-.22.528c-.141.128-.333.192-.577.192zm0 4.032c-.236 0-.429-.064-.576-.192a.683.683 0 01-.221-.528c0-.218.074-.39.221-.519.147-.134.34-.201.576-.201.244 0 .436.067.577.201.147.128.22.301.22.519a.682.682 0 01-.22.528c-.141.128-.333.192-.577.192z" fill="#fff"/><defs><filter id="filter0_d_440_402" x=".159" y="0" width="179.561" height="178.6" filterUnits="userSpaceOnUse" color-interpolation-filters="sRGB"><feFlood flood-opacity="0" result="BackgroundImageFix"/><feColorMatrix in="SourceAlpha" values="0 0 0 0 0 0 0 0 0 0 0 0 0 0 0 0 0 0 127 0" result="hardAlpha"/><feOffset dy="3.841"/><feGaussianBlur stdDeviation="1.92"/><feComposite in2="hardAlpha" operator="out"/><feColorMatrix values="0 0 0 0 0 0 0 0 0 0 0 0 0 0 0 0 0 0 0.25 0"/><feBlend in2="BackgroundImageFix" result="effect1_dropShadow_440_402"/><feBlend in="SourceGraphic" in2="effect1_dropShadow_440_402" result="shape"/></filter></defs></svg>