<svg width="181" height="179" fill="none" xmlns="http://www.w3.org/2000/svg"><g filter="url(#filter0_d_440_444)"><rect x="4.561" width="171.879" height="170.919" rx="16.004" fill="#46767D"/></g><mask id="a" style="mask-type:alpha" maskUnits="userSpaceOnUse" x="4" y="0" width="173" height="43"><path fill="#C9D9CD" d="M4.561 0H176.44v42.249H4.561z"/></mask><g mask="url(#a)"><rect x="4.561" y="-1.69" width="171.879" height="118.299" rx="16.004" fill="#223B38"/></g><path d="M14.24 61.395v-2.084h.432c.07-.128.144-.3.221-.518.077-.218.144-.464.202-.74a4.69 4.69 0 00.096-.864l.067-4.148h3.591v6.27h.672v2.084h-.768v-1.344h-3.745v1.344h-.768zm1.335-2.084h2.41V53.81h-1.901l-.048 3.38a5.273 5.273 0 01-.164 1.306c-.102.378-.201.65-.297.816zm4.352.807v-.807h.173c.294 0 .5-.115.614-.345.122-.23.186-.644.192-1.239l.058-2.957h3.582v5.28h-.865v-4.493H21.82l-.048 2.209c-.013.556-.077 1.008-.192 1.353-.11.346-.282.599-.519.759-.23.16-.534.24-.912.24h-.221zm6.023-.067l1.354-2.036c-.403-.096-.717-.282-.941-.557-.218-.275-.327-.617-.327-1.027 0-.519.17-.925.51-1.22.345-.294.816-.441 1.41-.441h2.277v5.28h-.865v-1.968h-1.162l-1.248 1.969H25.95zm2.007-2.737h1.411v-1.776h-1.411c-.32 0-.573.08-.759.24-.185.154-.278.371-.278.653 0 .275.093.493.278.653.186.153.439.23.759.23zm9.722 2.737V54.77h.864v2.18h.903l1.536-2.18h.99l-1.777 2.515L42 60.051h-1.008l-1.536-2.353h-.913v2.353h-.864zm7.175.096c-.556 0-.995-.141-1.315-.423-.32-.288-.48-.675-.48-1.162 0-.492.16-.88.48-1.161.32-.282.752-.423 1.296-.423h1.633v-.528c0-.327-.1-.576-.298-.749-.192-.18-.467-.269-.826-.269-.313 0-.576.067-.787.202a.717.717 0 00-.365.528h-.864c.057-.455.272-.816.643-1.085s.836-.403 1.392-.403c.608 0 1.089.156 1.44.47.353.314.529.74.529 1.277v3.63h-.845v-1.008h-.144l.144-.145c0 .385-.15.689-.452.913-.294.224-.688.336-1.18.336zm.212-.682c.41 0 .745-.102 1.008-.307a.956.956 0 00.394-.788v-.749h-1.614c-.288 0-.515.08-.681.24-.167.16-.25.378-.25.653 0 .295.1.529.298.701.205.167.486.25.845.25zm3.228.586l1.153-2.708-1.076-2.573h.836l.922 2.304h.508V54.77h.73v2.304h.49l.95-2.304h.826l-1.075 2.544 1.152 2.737h-.864l-.96-2.4h-.519v2.4h-.73v-2.4h-.518l-.97 2.4h-.855zm5.803 1.344v-2.084h.432c.109-.108.22-.323.336-.643.121-.32.185-.727.192-1.22l.057-2.678h3.448v4.541h.672v2.084h-.768v-1.344h-3.601v1.344h-.768zm1.344-2.084h2.256v-3.773h-1.766l-.039 1.93c-.006.505-.06.915-.163 1.229-.102.313-.198.518-.288.614zm6.935.817c-.422 0-.787-.08-1.094-.24a1.743 1.743 0 01-.72-.692c-.167-.307-.25-.669-.25-1.085V56.71c0-.422.083-.784.25-1.085.172-.3.412-.531.72-.691.307-.16.672-.24 1.094-.24.423 0 .788.08 1.095.24.307.16.544.39.71.691.173.301.26.66.26 1.076v1.411c0 .416-.087.778-.26 1.085a1.68 1.68 0 01-.71.692c-.307.16-.672.24-1.095.24zm0-.769c.378 0 .672-.105.884-.316.21-.212.317-.522.317-.932V56.71c0-.41-.106-.72-.317-.931-.212-.211-.506-.317-.884-.317-.371 0-.665.106-.883.317-.211.211-.317.522-.317.931v1.402c0 .41.106.72.317.932.218.21.512.316.883.316zm3.71.692V54.77h.825v2.88c0 .186-.007.381-.02.586-.006.205-.019.4-.038.586a5.306 5.306 0 01-.048.46l2.132-4.512h1.104v5.28h-.826v-2.88c0-.186.004-.38.01-.586.013-.204.029-.4.048-.585l.048-.47-2.132 4.522h-1.104zm2.016-6.146c-.461 0-.833-.128-1.114-.384-.282-.256-.423-.592-.423-1.008h.682c0 .25.077.451.23.605.154.154.359.23.615.23.262 0 .47-.076.624-.23a.8.8 0 00.24-.605h.682c0 .416-.14.752-.423 1.008-.281.256-.653.384-1.113.384zm11.354 6.242a2.46 2.46 0 01-1.114-.24 1.728 1.728 0 01-.73-.692c-.172-.307-.259-.669-.259-1.085v-1.44c0-.422.087-.784.26-1.085.172-.3.416-.531.73-.691.32-.16.69-.24 1.113-.24.608 0 1.098.163 1.47.49.37.326.566.77.585 1.334h-.864c-.02-.34-.135-.599-.346-.778-.205-.185-.486-.278-.845-.278-.377 0-.678.109-.902.326-.224.212-.336.515-.336.912v1.45c0 .397.112.704.336.922.224.218.525.327.902.327.359 0 .64-.093.845-.279.212-.186.327-.445.346-.778h.864c-.02.564-.214 1.009-.586 1.335-.37.327-.86.49-1.469.49zm5.668 0a2.3 2.3 0 01-1.095-.25 1.806 1.806 0 01-.72-.7 2.204 2.204 0 01-.25-1.067v-1.44c0-.41.084-.765.25-1.066.173-.3.413-.534.72-.7.314-.167.679-.25 1.095-.25.416 0 .778.083 1.085.25.314.166.554.4.72.7.173.301.26.656.26 1.066v.931h-3.284v.51c0 .415.105.736.316.96.212.217.513.326.903.326.333 0 .602-.058.807-.173a.76.76 0 00.374-.538h.864a1.47 1.47 0 01-.653 1.057c-.371.256-.835.384-1.392.384zm1.22-3.102v-.355c0-.416-.106-.736-.317-.96-.205-.224-.506-.336-.903-.336-.39 0-.691.112-.903.336-.21.224-.317.544-.317.96v.279h2.507l-.067.076zm2.835 3.006V54.77h3.793v.787h-2.93v4.494h-.863zm5.168 0V54.77h1.172l.69 2.026c.071.205.135.41.193.614.058.199.1.352.125.461.025-.109.064-.262.115-.46.058-.206.118-.414.182-.625l.653-2.016h1.172v5.28h-.836v-.815c0-.288.004-.602.01-.941l.02-1.028c.012-.346.025-.672.038-.98.012-.313.022-.588.028-.825l-.94 3.005h-.913l-.95-2.986c.012.288.022.647.028 1.076.013.428.023.877.03 1.344.012.467.018.912.018 1.335v.816h-.835zm7.838.096c-.416 0-.781-.083-1.095-.25a1.808 1.808 0 01-.72-.7 2.208 2.208 0 01-.25-1.067v-1.44c0-.41.084-.765.25-1.066.173-.3.413-.534.72-.7.314-.167.679-.25 1.095-.25.416 0 .778.083 1.085.25.314.166.554.4.72.7.173.301.259.656.259 1.066v.931h-3.284v.51c0 .415.106.736.317.96.212.217.512.326.903.326.333 0 .602-.058.806-.173a.76.76 0 00.375-.538h.864a1.468 1.468 0 01-.653 1.057c-.371.256-.835.384-1.392.384zm1.219-3.102v-.355c0-.416-.105-.736-.317-.96-.204-.224-.505-.336-.902-.336-.391 0-.691.112-.903.336-.211.224-.317.544-.317.96v.279h2.507l-.068.076zm2.49 3.006V54.77h.864v2.198h2.228V54.77h.864v5.28h-.864v-2.294h-2.228v2.295h-.864zm7.233 0v-4.523h-1.921v-.758h4.705v.758h-1.92v4.523h-.864zm4.141 0V54.77h.825v2.88c0 .186-.006.381-.019.586-.006.205-.019.4-.038.586a6.31 6.31 0 01-.048.46l2.131-4.512h1.105v5.28h-.826v-2.88c0-.186.003-.38.01-.586.012-.204.028-.4.048-.585l.048-.47-2.132 4.522h-1.104zm5.667 1.728v-7.01h.865v1.009h.172l-.172.202c0-.404.131-.72.393-.951.269-.237.621-.355 1.057-.355.531 0 .953.176 1.267.528.32.345.48.822.48 1.43v1.546c0 .404-.074.753-.221 1.047a1.567 1.567 0 01-.605.682c-.256.16-.563.24-.921.24-.429 0-.778-.119-1.047-.355-.269-.237-.403-.554-.403-.951l.172.202h-.192l.02 1.2v1.536h-.865zm2.026-2.381c.365 0 .65-.109.855-.327.211-.217.317-.531.317-.94V56.69c0-.41-.106-.723-.317-.941-.205-.218-.49-.327-.855-.327-.352 0-.633.113-.845.337-.211.224-.316.534-.316.931v1.44c0 .397.105.708.316.932.212.224.493.336.845.336zm5.659.73c-.423 0-.788-.08-1.095-.24a1.744 1.744 0 01-.72-.692c-.167-.307-.25-.669-.25-1.085V56.71c0-.422.083-.784.25-1.085.173-.3.413-.531.72-.691.307-.16.672-.24 1.095-.24.422 0 .787.08 1.094.24.308.16.544.39.711.691.173.301.259.66.259 1.076v1.411c0 .416-.086.778-.259 1.085a1.683 1.683 0 01-.711.692c-.307.16-.672.24-1.094.24zm0-.769c.377 0 .672-.105.883-.316.211-.212.317-.522.317-.932V56.71c0-.41-.106-.72-.317-.931-.211-.211-.506-.317-.883-.317-.372 0-.666.106-.884.317-.211.211-.317.522-.317.931v1.402c0 .41.106.72.317.932.218.21.512.316.884.316zm3.708.692V54.77h2.286c.55 0 .976.124 1.277.374.301.243.451.586.451 1.028 0 .364-.125.659-.374.883-.25.218-.58.326-.989.326v-.076c.448 0 .806.112 1.075.336.275.224.413.525.413.902 0 .474-.16.845-.48 1.114-.32.263-.768.394-1.344.394h-2.315zm.845-.759h1.47c.307 0 .544-.067.71-.201.173-.135.259-.324.259-.567 0-.25-.086-.442-.259-.576-.166-.135-.403-.202-.71-.202h-1.47v1.546zm0-2.295h1.441c.269 0 .48-.064.634-.192.16-.128.24-.307.24-.538 0-.23-.077-.41-.231-.537-.153-.135-.368-.202-.643-.202h-1.441v1.47zm6.36 3.15c-.557 0-.996-.141-1.316-.423-.32-.288-.48-.675-.48-1.162 0-.492.16-.88.48-1.161.32-.282.752-.423 1.296-.423h1.633v-.528c0-.327-.099-.576-.298-.749-.192-.18-.467-.269-.826-.269-.313 0-.576.067-.787.202a.718.718 0 00-.365.528h-.864c.057-.455.272-.816.643-1.085s.836-.403 1.392-.403c.609 0 1.089.156 1.441.47.352.314.528.74.528 1.277v3.63h-.845v-1.008h-.144l.144-.145c0 .385-.15.689-.451.913-.295.224-.689.336-1.181.336zm.211-.682c.41 0 .746-.102 1.008-.307a.955.955 0 00.394-.788v-.749h-1.613c-.288 0-.516.08-.682.24-.167.16-.25.378-.25.653 0 .295.099.529.298.701.205.167.486.25.845.25zm3.958.586V54.77h.865v2.198h2.227V54.77h.864v5.28h-.864v-2.294h-2.227v2.295h-.865zm5.687 0V54.77h.865v2.198h2.227V54.77h.864v5.28h-.864v-2.294h-2.227v2.295h-.865zm7.665.077c-.422 0-.787-.08-1.094-.24a1.733 1.733 0 01-.72-.692c-.167-.307-.25-.669-.25-1.085V56.71c0-.422.083-.784.25-1.085.172-.3.412-.531.72-.691.307-.16.672-.24 1.094-.24.423 0 .788.08 1.095.24.307.16.544.39.711.691.172.301.259.66.259 1.076v1.411c0 .416-.087.778-.259 1.085a1.689 1.689 0 01-.711.692c-.307.16-.672.24-1.095.24zm0-.769c.378 0 .672-.105.884-.316.211-.212.317-.522.317-.932V56.71c0-.41-.106-.72-.317-.931-.212-.211-.506-.317-.884-.317-.371 0-.665.106-.883.317-.211.211-.317.522-.317.931v1.402c0 .41.106.72.317.932.218.21.512.316.883.316zm3.709.692V54.77h.826v2.88c0 .186-.006.381-.019.586a8.06 8.06 0 01-.039.586 5.306 5.306 0 01-.048.46l2.132-4.512h1.104v5.28h-.825v-2.88c0-.186.003-.38.009-.586.013-.204.029-.4.048-.585l.048-.47-2.132 4.522h-1.104zm2.017-6.146c-.461 0-.833-.128-1.114-.384-.282-.256-.423-.592-.423-1.008h.682c0 .25.077.451.231.605.153.154.358.23.614.23.263 0 .471-.076.624-.23a.8.8 0 00.24-.605h.682c0 .416-.141.752-.422 1.008-.282.256-.653.384-1.114.384zM15.248 79.051V73.77h3.793v.787h-2.928v4.494h-.865zm5.322 1.728v-7.01h.864v1.009h.173l-.172.201c0-.403.13-.72.393-.95.27-.237.621-.355 1.056-.355.532 0 .954.176 1.268.528.32.345.48.822.48 1.43v1.546c0 .404-.074.752-.22 1.047a1.57 1.57 0 01-.606.682c-.256.16-.563.24-.922.24-.428 0-.777-.119-1.046-.356-.269-.236-.404-.553-.404-.95l.173.202h-.192l.02 1.2v1.536h-.865zm2.026-2.381c.365 0 .65-.109.855-.327.211-.217.317-.531.317-.94V75.69c0-.41-.106-.723-.317-.941-.205-.218-.49-.326-.855-.326-.352 0-.633.112-.845.336-.21.224-.317.534-.317.931v1.44c0 .397.106.708.317.932.212.224.493.336.845.336zm4.487 2.381l.778-2.055-1.959-4.954h.96l1.23 3.264c.044.11.086.24.124.394l.096.374.096-.374c.039-.154.077-.285.115-.394l1.153-3.264h.931l-2.602 7.01h-.922zm4.88-1.728V73.77h3.956v5.28h-.864v-4.493h-2.227v4.494h-.865zm5.687 0V73.77h3.956v5.28h-.864v-4.493h-2.227v4.494h-.865zm5.409 0V73.77h.806v1.94h.433c.57 0 1.017.15 1.344.45.333.295.5.702.5 1.22 0 .519-.167.928-.5 1.23-.327.293-.775.44-1.344.44h-1.24zm.806-.692h.433c.339 0 .601-.086.787-.259.192-.173.288-.413.288-.72s-.096-.547-.288-.72c-.186-.173-.448-.26-.787-.26h-.433v1.96zm2.9.692V73.77h.807v5.28h-.807zm7.927 1.728v-7.01h.864v1.009h.173l-.173.201c0-.403.132-.72.394-.95.269-.237.62-.355 1.056-.355.532 0 .954.176 1.268.528.32.345.48.822.48 1.43v1.546c0 .404-.074.752-.221 1.047a1.57 1.57 0 01-.605.682c-.256.16-.563.24-.922.24-.429 0-.778-.119-1.047-.356-.268-.236-.403-.553-.403-.95l.173.202h-.192l.02 1.2v1.536h-.865zm2.026-2.381c.365 0 .65-.109.855-.327.21-.217.317-.531.317-.94V75.69c0-.41-.106-.723-.317-.941-.205-.218-.49-.326-.855-.326-.352 0-.634.112-.845.336-.211.224-.317.534-.317.931v1.44c0 .397.106.708.317.932.211.224.493.336.845.336zm5.197.749c-.557 0-.995-.141-1.315-.423-.32-.288-.48-.675-.48-1.162 0-.492.16-.88.48-1.161.32-.282.752-.423 1.296-.423h1.633v-.528c0-.326-.1-.576-.298-.749-.192-.18-.468-.269-.826-.269-.314 0-.576.067-.787.202a.717.717 0 00-.365.528h-.864c.057-.455.272-.816.643-1.085s.835-.403 1.392-.403c.608 0 1.089.156 1.44.47.353.314.529.74.529 1.277v3.63h-.845v-1.008h-.144l.144-.145c0 .385-.15.689-.452.913-.294.224-.688.336-1.18.336zm.212-.682c.41 0 .745-.102 1.008-.307a.956.956 0 00.394-.788v-.749h-1.614c-.288 0-.515.08-.681.24-.167.16-.25.378-.25.653 0 .295.1.529.298.701.204.167.486.25.845.25zm5.687.653c-.557 0-1.015-.118-1.374-.355a1.411 1.411 0 01-.633-.96h.912c.045.16.163.29.355.393.199.103.445.154.74.154h.45c.315 0 .558-.074.73-.221a.71.71 0 00.27-.576c0-.256-.087-.458-.26-.605-.166-.147-.413-.22-.74-.22h-1.161v-.75h1.133c.294 0 .518-.07.672-.211a.72.72 0 00.23-.557.728.728 0 00-.105-.403.61.61 0 00-.298-.25 1.241 1.241 0 00-.49-.087h-.48c-.256 0-.476.058-.662.173-.186.116-.298.256-.336.423h-.912c.064-.397.272-.724.624-.98s.78-.384 1.287-.384h.48c.377 0 .7.061.97.183.268.115.473.281.614.5.147.217.22.476.22.777 0 .314-.102.573-.306.778-.205.198-.493.31-.865.336v.038c.455.032.784.154.99.365.204.211.307.515.307.912 0 .468-.173.839-.519 1.114-.346.275-.81.413-1.392.413h-.451zm3.939 1.661v-7.01h.864v1.009h.173l-.173.201c0-.403.131-.72.394-.95.269-.237.62-.355 1.056-.355.531 0 .954.176 1.268.528.32.345.48.822.48 1.43v1.546c0 .404-.074.752-.221 1.047a1.577 1.577 0 01-.605.682c-.256.16-.564.24-.922.24-.429 0-.778-.119-1.047-.356-.269-.236-.403-.553-.403-.95l.173.202h-.192l.02 1.2v1.536h-.865zm2.026-2.381c.365 0 .65-.109.855-.327.21-.217.316-.531.316-.94V75.69c0-.41-.105-.723-.317-.941-.204-.218-.49-.326-.854-.326-.352 0-.634.112-.845.336-.211.224-.317.534-.317.931v1.44c0 .397.106.708.317.932.211.224.493.336.845.336zm5.197.749c-.557 0-.995-.141-1.315-.423-.32-.288-.48-.675-.48-1.162 0-.492.16-.88.48-1.161.32-.282.752-.423 1.296-.423h1.632v-.528c0-.326-.099-.576-.297-.749-.192-.18-.468-.269-.826-.269-.314 0-.576.067-.787.202a.717.717 0 00-.365.528h-.865c.058-.455.273-.816.644-1.085s.835-.403 1.392-.403c.608 0 1.088.156 1.44.47.353.314.529.74.529 1.277v3.63h-.845v-1.008h-.144l.144-.145c0 .385-.15.689-.452.913-.294.224-.688.336-1.18.336zm.211-.682c.41 0 .746-.102 1.009-.307a.956.956 0 00.393-.788v-.749h-1.613c-.288 0-.515.08-.682.24-.166.16-.25.378-.25.653 0 .295.1.529.298.701.205.167.487.25.845.25zm5.937.682c-.62 0-1.114-.183-1.479-.547-.358-.372-.537-.877-.537-1.518v-2.4c0-.845.21-1.495.633-1.95.423-.46 1.028-.69 1.815-.69H86.9v.863h-1.344c-.518 0-.912.154-1.181.461-.269.301-.403.74-.403 1.316v.624h.134l-.134.192c.006-.378.134-.672.384-.883.25-.212.589-.317 1.018-.317.557 0 .989.179 1.296.537.314.359.47.852.47 1.48v.767c0 .43-.08.797-.24 1.105-.16.307-.39.544-.69.71-.302.167-.663.25-1.086.25zm0-.768c.371 0 .656-.112.855-.336.198-.225.297-.545.297-.96v-.769c0-.416-.099-.736-.297-.96-.199-.224-.484-.336-.855-.336s-.656.112-.855.336c-.198.218-.297.538-.297.96v.768c0 .416.099.737.297.96.199.225.484.337.855.337zm5.687.749c-.423 0-.787-.08-1.095-.24a1.742 1.742 0 01-.72-.692c-.166-.307-.25-.669-.25-1.085V75.71c0-.422.084-.784.25-1.085.173-.3.413-.531.72-.691.308-.16.672-.24 1.095-.24.422 0 .787.08 1.095.24.307.16.544.39.71.691.173.301.26.66.26 1.076v1.411c0 .416-.087.778-.26 1.085a1.68 1.68 0 01-.71.692c-.308.16-.672.24-1.095.24zm0-.769c.378 0 .672-.105.883-.316.212-.212.317-.522.317-.932V75.71c0-.41-.105-.72-.317-.931-.21-.211-.505-.317-.883-.317-.371 0-.666.106-.883.317-.212.211-.317.521-.317.931v1.402c0 .41.105.72.317.932.217.21.512.316.883.316zm5.255.692v-4.523h-1.92v-.758h4.704v.758h-1.92v4.523h-.864zm5.658.096c-.557 0-.995-.141-1.316-.423-.32-.288-.48-.675-.48-1.162 0-.492.16-.88.48-1.161.321-.282.753-.423 1.297-.423h1.632v-.528c0-.326-.099-.576-.298-.749-.192-.18-.467-.269-.825-.269-.314 0-.576.067-.788.202a.718.718 0 00-.365.528h-.864c.058-.455.272-.816.644-1.085.371-.269.835-.403 1.392-.403.608 0 1.088.156 1.44.47.352.314.528.74.528 1.277v3.63h-.845v-1.008h-.144l.144-.145c0 .385-.15.689-.451.913-.294.224-.688.336-1.181.336zm.211-.682c.41 0 .746-.102 1.008-.307a.955.955 0 00.394-.788v-.749h-1.613c-.288 0-.515.08-.682.24-.166.16-.249.378-.249.653 0 .295.099.529.297.701.205.167.487.25.845.25zm3.296.653v-.807h.173c.295 0 .499-.115.615-.345.121-.23.185-.644.192-1.239l.057-2.957h3.582v5.28h-.864v-4.493h-1.863l-.048 2.209c-.013.556-.077 1.008-.192 1.353-.109.346-.282.599-.519.759-.23.16-.534.24-.912.24h-.221zm6.35-.067V73.77h.825v2.88c0 .186-.006.381-.019.586-.006.205-.019.4-.038.586a6.31 6.31 0 01-.048.46l2.132-4.512h1.104v5.28h-.826v-2.88c0-.186.003-.38.01-.586.012-.204.028-.4.048-.585l.048-.47-2.132 4.522h-1.104zm-96.678 19V92.77h.825v2.88c0 .186-.006.381-.019.586-.006.205-.019.4-.038.586a6.233 6.233 0 01-.048.46l2.131-4.512h1.105v5.28h-.826v-2.88c0-.186.003-.38.01-.586.012-.204.028-.4.047-.585l.049-.47-2.132 4.522h-1.104zm5.687 0V92.77h.864v2.199h2.227v-2.2h.865v5.282h-.865v-2.295h-2.227v2.295h-.864zm5.072 1.344v-2.084h.432c.109-.108.22-.323.336-.643.122-.32.186-.727.192-1.22l.058-2.678h3.447v4.541h.672v2.084h-.768v-1.344h-3.6v1.344h-.769zm1.344-2.084h2.257v-3.773h-1.767l-.038 1.93c-.007.505-.061.915-.164 1.229-.102.313-.198.518-.288.614zm4.957.74V92.77h.826v2.88c0 .186-.006.381-.019.586-.006.205-.02.4-.038.586a6.83 6.83 0 01-.048.46l2.131-4.512h1.105v5.28h-.826v-2.88c0-.186.003-.38.01-.586.012-.204.028-.4.047-.585l.048-.47-2.131 4.522h-1.105zm5.687 0V92.77h2.286c.55 0 .976.124 1.277.374.3.243.451.586.451 1.027 0 .365-.125.66-.374.884-.25.218-.58.326-.99.326v-.076c.449 0 .807.112 1.076.336.275.224.413.525.413.902 0 .474-.16.845-.48 1.114-.32.263-.768.394-1.344.394H37.65zm.845-.759h1.47c.307 0 .544-.067.71-.201a.679.679 0 00.26-.567c0-.25-.087-.442-.26-.576-.166-.134-.403-.202-.71-.202h-1.47v1.546zm0-2.295h1.44c.27 0 .48-.064.634-.192.16-.128.24-.307.24-.538 0-.23-.076-.41-.23-.537-.154-.135-.368-.202-.643-.202h-1.44v1.47zm4.842 3.054V92.77h.826v2.88c0 .186-.006.381-.02.586-.005.205-.018.4-.038.586a5.78 5.78 0 01-.047.46l2.131-4.512h1.104v5.28h-.825v-2.88c0-.186.003-.38.01-.586.012-.204.028-.4.047-.585l.048-.47-2.131 4.522h-1.105zm5.073 1.344v-2.084h.432c.109-.108.22-.323.336-.643.122-.32.186-.727.192-1.22l.058-2.678h3.447v4.541h.672v2.084h-.768v-1.344h-3.601v1.344h-.768zm1.344-2.084h2.257v-3.773h-1.767l-.039 1.93c-.006.505-.06.915-.163 1.229-.102.313-.198.518-.288.614zm5.764 2.468l.778-2.055-1.96-4.954h.961l1.229 3.264c.045.11.086.24.125.394l.096.374c.026-.102.057-.227.096-.374.038-.154.077-.285.115-.394l1.152-3.264h.932l-2.602 7.01h-.922zm6.397-1.632c-.557 0-.995-.141-1.315-.423-.32-.288-.48-.675-.48-1.162 0-.492.16-.88.48-1.161.32-.282.752-.423 1.296-.423h1.633v-.528c0-.326-.1-.576-.298-.749-.192-.18-.468-.269-.826-.269-.314 0-.576.067-.787.202a.717.717 0 00-.365.528h-.864c.057-.455.272-.816.643-1.085s.835-.403 1.392-.403c.608 0 1.089.156 1.44.47.353.314.529.74.529 1.277v3.63h-.845v-1.008h-.144l.144-.145c0 .385-.15.689-.452.913-.294.224-.688.336-1.18.336zm.212-.682c.41 0 .745-.102 1.008-.307a.956.956 0 00.394-.788v-.749h-1.614c-.288 0-.515.08-.681.24-.167.16-.25.378-.25.653 0 .295.1.529.298.701.204.167.486.25.845.25zm3.296.653v-.807h.172c.295 0 .5-.115.615-.345.122-.23.186-.644.192-1.239l.058-2.957h3.581v5.28h-.864v-4.493h-1.863l-.048 2.209c-.013.556-.077 1.008-.192 1.353-.109.346-.281.599-.518.759-.23.16-.535.24-.913.24h-.22zm6.388-.067V92.77h.864v1.94h1.555c.596 0 1.063.15 1.402.45.346.295.519.702.519 1.22 0 .512-.173.919-.519 1.22-.346.3-.813.45-1.402.45h-2.42zm.864-.788h1.555c.333 0 .586-.073.759-.22.179-.154.269-.375.269-.663 0-.288-.09-.506-.27-.653-.172-.154-.425-.23-.758-.23h-1.555v1.766zm4.784.788V92.77h.864v2.199h2.228v-2.2h.864v5.282h-.864v-2.295h-2.228v2.295h-.864zm5.409 0V92.77h.806v1.94h.432c.57 0 1.018.15 1.345.45.332.295.499.702.499 1.22 0 .519-.167.928-.5 1.23-.326.293-.774.44-1.344.44h-1.238zm.806-.692h.432c.34 0 .602-.086.788-.259.192-.173.288-.413.288-.72s-.096-.547-.288-.72c-.186-.173-.449-.26-.788-.26h-.432v1.96zm2.9.692V92.77h.806v5.28h-.806zm4.237.096c-.416 0-.781-.083-1.095-.25a1.805 1.805 0 01-.72-.7 2.203 2.203 0 01-.25-1.067v-1.44c0-.41.084-.765.25-1.066.173-.3.413-.534.72-.7.314-.167.679-.25 1.095-.25.416 0 .778.083 1.085.25.314.166.554.4.72.7.173.301.26.656.26 1.066v.931H89.59v.51c0 .415.106.736.317.96.212.217.513.326.903.326.333 0 .602-.058.806-.173a.76.76 0 00.375-.537h.864a1.47 1.47 0 01-.653 1.056c-.371.256-.835.384-1.392.384zm1.22-3.102v-.355c0-.416-.106-.736-.317-.96-.205-.224-.506-.336-.903-.336-.39 0-.691.112-.903.336-.21.224-.317.544-.317.96v.279h2.507l-.068.076zm8.176 3.006V92.77h3.956v5.28h-.864v-4.493h-2.228v4.494h-.864zm7.665.077c-.423 0-.788-.08-1.095-.24a1.744 1.744 0 01-.72-.692c-.166-.307-.25-.669-.25-1.085V94.71c0-.422.084-.784.25-1.085.173-.3.413-.531.72-.691.307-.16.672-.24 1.095-.24.422 0 .787.08 1.094.24.308.16.545.39.711.691.173.301.259.66.259 1.076v1.411c0 .416-.086.778-.259 1.085a1.677 1.677 0 01-.711.692c-.307.16-.672.24-1.094.24zm0-.769c.377 0 .672-.105.883-.316.211-.212.317-.522.317-.932V94.71c0-.41-.106-.72-.317-.931-.211-.211-.506-.317-.883-.317-.371 0-.666.106-.884.317-.211.211-.316.521-.316.931v1.402c0 .41.105.72.316.932.218.21.513.316.884.316zm3.094 2.036v-2.084h.432c.109-.108.221-.323.336-.643.122-.32.186-.727.192-1.22l.058-2.678h3.447v4.541h.672v2.084h-.768v-1.344h-3.601v1.344h-.768zm1.344-2.084h2.257v-3.773H112.8l-.038 1.93c-.007.505-.061.915-.163 1.229-.103.313-.199.518-.289.614zm4.535.74l1.873-2.718-1.758-2.563h1.018l1.047 1.632c.045.07.086.147.125.23.044.084.08.15.105.202a3.29 3.29 0 01.087-.202c.045-.083.089-.16.134-.23l1.056-1.632h1.009l-1.758 2.573 1.863 2.708h-1.018l-1.133-1.729a2.949 2.949 0 01-.134-.24 2 2 0 00-.106-.23 3.552 3.552 0 01-.115.23c-.045.09-.093.17-.144.24l-1.143 1.729h-1.008zm8.088.077c-.423 0-.788-.08-1.095-.24a1.744 1.744 0 01-.72-.692c-.167-.307-.25-.669-.25-1.085V94.71c0-.422.083-.784.25-1.085.173-.3.413-.531.72-.691.307-.16.672-.24 1.095-.24.422 0 .787.08 1.094.24.308.16.544.39.711.691.173.301.259.66.259 1.076v1.411c0 .416-.086.778-.259 1.085a1.683 1.683 0 01-.711.692c-.307.16-.672.24-1.094.24zm0-.769c.377 0 .672-.105.883-.316.211-.212.317-.522.317-.932V94.71c0-.41-.106-.72-.317-.931-.211-.211-.506-.317-.883-.317-.372 0-.666.106-.884.317-.211.211-.317.521-.317.931v1.402c0 .41.106.72.317.932.218.21.512.316.884.316zm3.094 2.036v-2.084h.432c.109-.108.221-.323.336-.643.122-.32.186-.727.192-1.22l.058-2.678h3.447v4.541h.672v2.084h-.768v-1.344h-3.601v1.344h-.768zm1.344-2.084h2.257v-3.773h-1.767l-.038 1.93c-.007.505-.061.915-.164 1.229-.102.313-.198.518-.288.614zm4.679.74V92.77h.807v1.94h.432c.569 0 1.018.15 1.344.45.333.295.499.702.499 1.22 0 .519-.166.928-.499 1.23-.326.293-.775.44-1.344.44h-1.239zm.807-.692h.432c.339 0 .601-.086.787-.259.192-.173.288-.413.288-.72s-.096-.547-.288-.72c-.186-.173-.448-.26-.787-.26h-.432v1.96zm2.899.692V92.77h.807v5.28h-.807zm-122.853 20v-5.281h.825v2.88c0 .186-.006.381-.019.586a8.2 8.2 0 01-.038.586 6.11 6.11 0 01-.048.461l2.131-4.513h1.105v5.281h-.826v-2.881c0-.186.003-.381.01-.586.012-.204.028-.4.047-.585l.049-.471-2.132 4.523h-1.104zm11.373 0v-5.281h3.957v5.281h-.865v-4.494h-2.227v4.494h-.864zm5.668 1.728v-7.009h.864v1.008h.173l-.173.201c0-.403.132-.72.394-.95.269-.237.621-.355 1.056-.355.532 0 .954.176 1.268.528.32.345.48.822.48 1.43v1.546c0 .404-.074.753-.22 1.047a1.58 1.58 0 01-.606.682c-.256.16-.563.24-.922.24-.428 0-.777-.119-1.046-.355-.27-.237-.404-.554-.404-.951l.173.202h-.192l.02 1.2v1.536h-.865zm2.026-2.381c.365 0 .65-.109.855-.327.211-.217.317-.531.317-.941v-1.44c0-.41-.106-.723-.317-.941-.205-.218-.49-.326-.855-.326-.352 0-.633.112-.845.336-.21.224-.317.534-.317.931v1.44c0 .397.106.708.317.932.212.224.493.336.845.336zm5.658.749c-.416 0-.78-.083-1.094-.25a1.803 1.803 0 01-.72-.701 2.201 2.201 0 01-.25-1.066v-1.44c0-.41.083-.765.25-1.066a1.81 1.81 0 01.72-.701 2.306 2.306 0 011.094-.249c.416 0 .778.083 1.086.249.313.167.553.4.72.701.172.301.259.656.259 1.066v.931h-3.284v.509c0 .416.106.737.317.961.211.217.512.326.902.326.333 0 .602-.058.807-.173a.762.762 0 00.374-.538h.865a1.473 1.473 0 01-.653 1.057c-.371.256-.836.384-1.393.384zm1.22-3.102v-.355c0-.416-.106-.736-.317-.96-.205-.224-.506-.336-.903-.336-.39 0-.69.112-.902.336-.211.224-.317.544-.317.96v.278h2.506l-.067.077zm1.875 4.35v-2.084h.432c.109-.108.22-.323.336-.643.122-.32.186-.726.192-1.219l.058-2.679h3.447v4.541h.672v2.084h-.768v-1.344H43.49v1.344h-.768zm1.344-2.084h2.257v-3.773h-1.767l-.039 1.93c-.006.506-.06.915-.163 1.229-.102.314-.198.518-.288.614zm4.295.807v-.807h.173c.294 0 .499-.115.614-.345.122-.231.186-.644.192-1.239l.058-2.957h3.581v5.281h-.864v-4.494h-1.863l-.048 2.208c-.012.557-.076 1.009-.192 1.354-.108.346-.281.599-.518.759-.23.16-.535.24-.912.24h-.221zm8.327.01c-.422 0-.787-.08-1.094-.24a1.743 1.743 0 01-.72-.692c-.167-.307-.25-.669-.25-1.085v-1.402c0-.422.083-.784.25-1.085a1.74 1.74 0 01.72-.691c.307-.16.672-.24 1.094-.24.423 0 .788.08 1.095.24.307.16.544.39.71.691.173.301.26.66.26 1.076v1.411c0 .416-.087.778-.26 1.085a1.683 1.683 0 01-.71.692c-.307.16-.672.24-1.095.24zm0-.769c.378 0 .672-.105.884-.316.21-.212.317-.522.317-.932v-1.402c0-.409-.106-.72-.317-.931-.212-.211-.506-.317-.884-.317-.371 0-.666.106-.883.317-.211.211-.317.522-.317.931v1.402c0 .41.106.72.317.932.218.211.512.316.883.316zm2.98.692l1.152-2.708-1.076-2.573h.836l.921 2.304h.51v-2.304h.73v2.304h.489l.95-2.304h.826l-1.075 2.544 1.152 2.737h-.864l-.96-2.401h-.519v2.401h-.73v-2.401h-.518l-.97 2.401h-.855zm8.394.096c-.416 0-.78-.083-1.094-.25a1.803 1.803 0 01-.72-.701 2.2 2.2 0 01-.25-1.066v-1.44c0-.41.083-.765.25-1.066a1.81 1.81 0 01.72-.701 2.307 2.307 0 011.094-.249c.416 0 .778.083 1.085.249.314.167.554.4.72.701.173.301.26.656.26 1.066v.931h-3.284v.509c0 .416.105.737.317.961.21.217.512.326.902.326.333 0 .602-.058.807-.173a.762.762 0 00.374-.538h.864a1.473 1.473 0 01-.653 1.057c-.37.256-.835.384-1.392.384zm1.22-3.102v-.355c0-.416-.106-.736-.317-.96-.205-.224-.506-.336-.903-.336-.39 0-.691.112-.902.336-.212.224-.317.544-.317.96v.278h2.506l-.067.077zm2.49 3.006v-5.281h.863v2.198h2.228v-2.198h.864v5.281h-.864v-2.295h-2.228v2.295h-.864zm5.686 0v-5.281h.826v2.88c0 .186-.007.381-.02.586a8.2 8.2 0 01-.038.586 6.11 6.11 0 01-.048.461l2.132-4.513h1.104v5.281h-.826v-2.881c0-.186.004-.381.01-.586.013-.204.029-.4.048-.585l.048-.471-2.132 4.523H77.46zm5.36 0l1.354-2.036c-.403-.096-.717-.282-.94-.557-.218-.275-.327-.618-.327-1.027 0-.519.17-.925.509-1.22.345-.294.816-.441 1.411-.441h2.276v5.281h-.864v-1.969h-1.162l-1.248 1.969H82.82zm2.007-2.737h1.412v-1.776h-1.412c-.32 0-.573.08-.758.24-.186.153-.279.371-.279.653 0 .275.093.493.279.653.185.153.438.23.758.23zm5.985 2.833c-.243 0-.439-.071-.586-.211-.14-.141-.211-.33-.211-.567 0-.25.07-.448.211-.595.148-.148.343-.221.586-.221.243 0 .435.073.576.221.147.147.22.345.22.595 0 .237-.073.426-.22.567-.14.14-.333.211-.576.211zM14.903 17V9.99h3.956V17h-.865v-6.222h-2.227V17h-.864zm7.665.096c-.417 0-.781-.083-1.095-.25a1.807 1.807 0 01-.72-.7 2.203 2.203 0 01-.25-1.066v-1.44c0-.41.083-.766.25-1.067.173-.3.413-.534.72-.7.314-.167.678-.25 1.095-.25.416 0 .777.083 1.085.25.313.166.553.4.72.7.173.301.26.656.26 1.066v.932h-3.285v.509c0 .416.106.736.317.96.211.217.512.326.903.326.332 0 .601-.057.806-.173a.76.76 0 00.375-.537h.864a1.471 1.471 0 01-.653 1.056c-.371.256-.835.384-1.392.384zm1.22-3.101v-.356c0-.416-.107-.736-.318-.96-.205-.224-.505-.336-.902-.336-.39 0-.692.112-.903.336-.211.224-.317.544-.317.96v.279h2.506l-.067.077zm2.47 4.733v-7.01h.864v1.009h.172l-.172.202c0-.404.13-.72.393-.95.269-.238.621-.356 1.056-.356.532 0 .954.176 1.268.528.32.346.48.822.48 1.43v1.547c0 .403-.074.752-.22 1.046a1.57 1.57 0 01-.606.682c-.256.16-.563.24-.922.24-.429 0-.777-.118-1.046-.355-.27-.237-.403-.554-.403-.95l.172.2h-.192l.02 1.201v1.536h-.865zm2.025-2.38c.365 0 .65-.11.855-.327.211-.218.317-.532.317-.941v-1.44c0-.41-.106-.724-.317-.942-.205-.217-.49-.326-.855-.326-.352 0-.633.112-.845.336-.21.224-.316.534-.316.931v1.44c0 .397.105.708.316.932.212.224.493.336.845.336zm5.678.748a2.46 2.46 0 01-1.114-.24 1.73 1.73 0 01-.73-.691c-.173-.308-.26-.67-.26-1.085v-1.44c0-.423.087-.785.26-1.086.173-.3.416-.531.73-.691.32-.16.691-.24 1.114-.24.608 0 1.098.163 1.469.49.371.326.566.77.586 1.334h-.865c-.019-.34-.134-.598-.345-.778-.205-.185-.487-.278-.845-.278-.378 0-.679.109-.903.326-.224.212-.336.516-.336.913v1.45c0 .396.112.704.336.921.224.218.525.327.903.327.358 0 .64-.093.845-.279.21-.185.326-.444.345-.777h.865c-.02.563-.215 1.008-.586 1.334-.371.327-.861.49-1.47.49zm5.667-.02c-.422 0-.787-.08-1.094-.24a1.743 1.743 0 01-.72-.69c-.167-.308-.25-.67-.25-1.086v-1.402c0-.422.083-.784.25-1.085.172-.3.413-.53.72-.691.307-.16.672-.24 1.094-.24.423 0 .788.08 1.095.24.307.16.544.39.71.691.173.301.26.66.26 1.076v1.411c0 .416-.087.778-.26 1.085a1.68 1.68 0 01-.71.692c-.307.16-.672.24-1.095.24zm0-.767c.378 0 .673-.106.884-.317.211-.212.317-.522.317-.932v-1.402c0-.41-.106-.72-.317-.931-.211-.211-.506-.317-.884-.317-.37 0-.665.106-.883.317-.211.211-.317.522-.317.931v1.402c0 .41.106.72.317.932.218.211.512.317.883.317zm3.71.691v-5.281h.864v2.199h2.227v-2.2h.864V17h-.864v-2.295h-2.227V17h-.865zm7.203.096c-.556 0-.995-.14-1.315-.422-.32-.288-.48-.676-.48-1.162 0-.493.16-.88.48-1.162.32-.282.752-.423 1.296-.423h1.633V13.4c0-.326-.1-.576-.298-.749-.192-.179-.467-.269-.826-.269-.313 0-.576.068-.787.202a.717.717 0 00-.365.528h-.864c.057-.454.272-.816.643-1.085s.835-.403 1.392-.403c.608 0 1.089.157 1.44.47.353.314.529.74.529 1.277V17h-.845v-1.008h-.144l.144-.144c0 .384-.15.688-.452.912-.294.224-.688.336-1.18.336zm.212-.682c.41 0 .745-.102 1.008-.307a.956.956 0 00.394-.787v-.75H50.54c-.288 0-.515.08-.681.24-.167.16-.25.378-.25.654 0 .294.1.528.298.7.204.167.486.25.845.25zm3.296.653v-.806h.172c.295 0 .5-.116.615-.346.122-.23.186-.643.192-1.239l.058-2.957h3.581V17h-.864v-4.494H55.94l-.048 2.209c-.013.557-.077 1.008-.192 1.354-.109.345-.281.598-.518.758-.23.16-.535.24-.913.24h-.22zm6.35-.067v-5.281h.825v2.88c0 .186-.006.381-.02.586-.006.205-.018.4-.038.586-.012.18-.028.333-.048.46l2.132-4.512h1.104V17h-.825v-2.88c0-.186.003-.381.01-.586.012-.205.028-.4.047-.586l.048-.47L61.502 17h-1.104zm7.415.067c-.557 0-1.015-.118-1.374-.355a1.411 1.411 0 01-.633-.96h.912c.045.16.163.291.355.393.199.103.445.154.74.154h.45c.315 0 .558-.074.73-.22a.71.71 0 00.27-.577c0-.256-.087-.458-.26-.605-.166-.147-.413-.22-.74-.22h-1.161v-.75h1.133c.294 0 .518-.07.672-.21a.72.72 0 00.23-.558.728.728 0 00-.105-.403.61.61 0 00-.298-.25 1.241 1.241 0 00-.49-.086h-.48a1.23 1.23 0 00-.662.173c-.186.115-.298.256-.336.422h-.912c.064-.397.272-.723.624-.98.352-.255.78-.383 1.287-.383h.48c.377 0 .7.06.97.182.268.115.473.282.614.5.147.217.22.476.22.777 0 .314-.102.573-.306.778-.205.198-.493.31-.865.336v.038c.455.032.784.154.99.365.204.211.307.516.307.912 0 .468-.173.84-.519 1.114-.346.276-.81.413-1.392.413h-.451zM71.772 17v-5.281h.826v2.88c0 .186-.007.381-.02.586-.006.205-.019.4-.038.586a6.09 6.09 0 01-.048.46l2.132-4.512h1.104V17h-.826v-2.88c0-.186.004-.381.01-.586.013-.205.029-.4.048-.586l.048-.47L72.876 17h-1.104zm5.668 1.728v-7.01h.864v1.009h.173l-.173.202c0-.404.131-.72.394-.95.269-.238.62-.356 1.056-.356.531 0 .954.176 1.267.528.32.346.48.822.48 1.43v1.547c0 .403-.073.752-.22 1.046a1.57 1.57 0 01-.605.682c-.256.16-.564.24-.922.24-.429 0-.778-.118-1.047-.355-.269-.237-.403-.554-.403-.95l.173.2h-.192l.019 1.201v1.536h-.864zm2.026-2.38c.365 0 .65-.11.855-.327.21-.218.316-.532.316-.941v-1.44c0-.41-.105-.724-.317-.942-.204-.217-.49-.326-.854-.326-.352 0-.634.112-.845.336-.211.224-.317.534-.317.931v1.44c0 .397.106.708.317.932.211.224.493.336.845.336zm5.658.729c-.422 0-.787-.08-1.095-.24a1.743 1.743 0 01-.72-.692c-.166-.307-.25-.668-.25-1.085v-1.402c0-.422.084-.784.25-1.085.173-.3.413-.53.72-.691.308-.16.672-.24 1.095-.24.422 0 .787.08 1.095.24.307.16.544.39.71.691.173.301.26.66.26 1.076v1.411c0 .416-.087.778-.26 1.085a1.68 1.68 0 01-.71.692c-.308.16-.672.24-1.095.24zm0-.768c.378 0 .672-.106.883-.317.212-.212.317-.522.317-.932v-1.402c0-.41-.105-.72-.317-.931-.21-.211-.505-.317-.883-.317-.371 0-.666.106-.883.317-.212.211-.317.522-.317.931v1.402c0 .41.105.72.317.932.217.211.512.317.883.317zm3.709.691v-5.281h2.285c.55 0 .977.125 1.277.374.301.243.452.586.452 1.028 0 .365-.125.66-.375.883-.25.218-.58.327-.989.327v-.077c.448 0 .807.112 1.076.336.275.224.413.525.413.902 0 .474-.16.845-.48 1.114-.32.263-.769.394-1.345.394h-2.314zm.845-.759h1.469c.307 0 .544-.067.71-.201a.677.677 0 00.26-.567c0-.25-.087-.441-.26-.576-.166-.134-.403-.202-.71-.202h-1.47v1.546zm0-2.294h1.44c.27 0 .48-.064.634-.192a.652.652 0 00.24-.538c0-.23-.077-.41-.23-.538-.154-.134-.368-.202-.644-.202h-1.44v1.47zm6.359 3.149c-.557 0-.995-.14-1.316-.422-.32-.288-.48-.676-.48-1.162 0-.493.16-.88.48-1.162.32-.282.753-.423 1.297-.423h1.632V13.4c0-.326-.1-.576-.297-.749-.192-.179-.468-.269-.826-.269-.314 0-.576.068-.788.202a.717.717 0 00-.365.528h-.864c.058-.454.272-.816.644-1.085.37-.269.835-.403 1.392-.403.608 0 1.088.157 1.44.47.352.314.528.74.528 1.277V17h-.845v-1.008h-.144l.144-.144c0 .384-.15.688-.45.912-.295.224-.69.336-1.182.336zm.211-.682c.41 0 .746-.102 1.008-.307a.956.956 0 00.394-.787v-.75h-1.613c-.288 0-.515.08-.682.24-.166.16-.25.378-.25.654 0 .294.1.528.298.7.205.167.487.25.845.25zm3.959.586v-5.281h.864v2.199h2.228v-2.2h.864V17h-.864v-2.295h-2.228V17h-.864zm5.687 0v-5.281h.864v2.199h2.228v-2.2h.864V17h-.864v-2.295h-2.228V17h-.864zm5.408 0v-5.281h.807v1.94h.432c.57 0 1.018.15 1.344.45.333.295.5.702.5 1.22 0 .519-.167.928-.5 1.23-.326.294-.774.441-1.344.441h-1.239zm.807-.691h.432c.339 0 .602-.087.787-.26.192-.172.288-.412.288-.72 0-.307-.096-.547-.288-.72-.185-.173-.448-.26-.787-.26h-.432v1.96zm2.9.691v-5.281h.806V17h-.806zm4.237.096c-.416 0-.781-.083-1.095-.25a1.81 1.81 0 01-.72-.7 2.197 2.197 0 01-.25-1.066v-1.44c0-.41.083-.766.25-1.067.173-.3.413-.534.72-.7.314-.167.679-.25 1.095-.25.416 0 .777.083 1.085.25.313.166.553.4.72.7.173.301.259.656.259 1.066v.932h-3.284v.509c0 .416.106.736.317.96.211.217.512.326.903.326.333 0 .601-.057.806-.173a.76.76 0 00.375-.537h.864a1.471 1.471 0 01-.653 1.056c-.371.256-.835.384-1.392.384zm1.219-3.101v-.356c0-.416-.105-.736-.317-.96-.205-.224-.505-.336-.902-.336-.391 0-.692.112-.903.336-.211.224-.317.544-.317.96v.279h2.506l-.067.077zM16.9 36.096a2.46 2.46 0 01-1.114-.24 1.73 1.73 0 01-.73-.691c-.173-.308-.259-.67-.259-1.085v-1.44c0-.423.086-.785.26-1.086.172-.3.415-.531.729-.691.32-.16.691-.24 1.114-.24.608 0 1.098.163 1.469.49.371.326.567.77.586 1.334h-.864c-.02-.34-.135-.598-.346-.778-.205-.185-.487-.278-.845-.278-.378 0-.679.109-.903.326-.224.212-.336.516-.336.913v1.45c0 .397.112.704.336.921.224.218.525.327.903.327.358 0 .64-.093.845-.279.211-.185.326-.444.345-.777h.865c-.02.563-.215 1.008-.586 1.334-.371.327-.861.49-1.47.49zM22.136 36v-4.523h-1.92v-.758h4.704v.758H23V36h-.864zm4.121 1.728v-7.01h.864v1.009h.173l-.172.202c0-.404.13-.72.393-.95.269-.238.621-.356 1.056-.356.532 0 .954.176 1.268.528.32.346.48.823.48 1.43v1.547c0 .403-.074.752-.22 1.046a1.57 1.57 0 01-.606.682c-.256.16-.563.24-.922.24-.429 0-.777-.118-1.046-.355-.27-.237-.403-.554-.403-.95l.172.2h-.192l.02 1.201v1.536h-.865zm2.026-2.38c.365 0 .65-.11.855-.327.211-.218.317-.532.317-.941v-1.44c0-.41-.106-.724-.317-.942-.205-.217-.49-.326-.855-.326-.352 0-.633.112-.845.336-.21.224-.316.534-.316.931v1.44c0 .398.105.708.316.932.212.224.493.336.845.336zm5.198.748c-.557 0-.996-.14-1.316-.422-.32-.288-.48-.676-.48-1.162 0-.493.16-.88.48-1.162.32-.282.752-.423 1.296-.423h1.633V32.4c0-.326-.1-.576-.298-.749-.192-.179-.467-.269-.826-.269-.313 0-.576.068-.787.202a.717.717 0 00-.365.528h-.864c.057-.454.272-.816.643-1.085s.836-.403 1.392-.403c.609 0 1.089.157 1.44.47.353.314.529.74.529 1.277V36h-.845v-1.008h-.144l.144-.144c0 .384-.15.688-.451.912-.295.224-.688.336-1.181.336zm.21-.682c.41 0 .747-.102 1.01-.307a.956.956 0 00.393-.787v-.75H33.48c-.288 0-.516.08-.682.24-.167.16-.25.378-.25.654 0 .294.1.528.298.7.205.167.486.25.845.25zm5.505.586v-4.523h-1.92v-.758h4.705v.758h-1.92V36h-.865zm6.12.096c-.417 0-.782-.083-1.095-.25a1.807 1.807 0 01-.72-.7 2.202 2.202 0 01-.25-1.066v-1.44c0-.41.083-.766.25-1.067.172-.3.413-.534.72-.7a2.29 2.29 0 011.094-.25c.416 0 .778.083 1.085.25.314.166.554.4.72.7.173.301.26.657.26 1.066v.932h-3.284v.509c0 .416.106.736.317.96.211.217.512.326.902.326.333 0 .602-.057.807-.173.205-.121.33-.3.374-.537h.865a1.47 1.47 0 01-.653 1.056c-.372.256-.836.384-1.393.384zm1.219-3.101v-.356c0-.416-.106-.736-.317-.96-.205-.224-.506-.336-.903-.336-.39 0-.691.112-.902.336-.211.224-.317.544-.317.96v.279h2.506l-.067.077zM49.37 36v-5.281h3.793v.787h-2.929V36h-.864zm5.341 0v-5.281h.826v2.88c0 .186-.006.381-.02.586-.006.205-.018.4-.038.586a6.09 6.09 0 01-.048.46l2.132-4.512h1.104V36h-.825v-2.88c0-.186.003-.381.01-.586.012-.205.028-.4.047-.586l.048-.47L55.815 36h-1.104zm5.687 0v-5.281h.826v2.88c0 .186-.006.381-.02.586-.006.205-.018.4-.038.586-.012.18-.028.333-.048.46l2.132-4.512h1.104V36h-.825v-2.88c0-.186.003-.381.01-.586.012-.205.028-.4.047-.586l.048-.47L61.502 36h-1.104zm7.665-3.937c-.237 0-.429-.064-.576-.192a.682.682 0 01-.22-.528c0-.218.073-.39.22-.519.147-.134.34-.201.576-.201.243 0 .436.067.576.201a.65.65 0 01.221.519.682.682 0 01-.22.528c-.141.128-.334.192-.577.192zm0 4.033c-.237 0-.429-.064-.576-.192a.682.682 0 01-.22-.528c0-.218.073-.39.22-.519.147-.134.34-.201.576-.201.243 0 .436.067.576.201a.65.65 0 01.221.519.682.682 0 01-.22.528c-.141.128-.334.192-.577.192z" fill="#fff"/><defs><filter id="filter0_d_440_444" x=".72" y="0" width="179.561" height="178.6" filterUnits="userSpaceOnUse" color-interpolation-filters="sRGB"><feFlood flood-opacity="0" result="BackgroundImageFix"/><feColorMatrix in="SourceAlpha" values="0 0 0 0 0 0 0 0 0 0 0 0 0 0 0 0 0 0 127 0" result="hardAlpha"/><feOffset dy="3.841"/><feGaussianBlur stdDeviation="1.92"/><feComposite in2="hardAlpha" operator="out"/><feColorMatrix values="0 0 0 0 0 0 0 0 0 0 0 0 0 0 0 0 0 0 0.25 0"/><feBlend in2="BackgroundImageFix" result="effect1_dropShadow_440_444"/><feBlend in="SourceGraphic" in2="effect1_dropShadow_440_444" result="shape"/></filter></defs></svg>