<svg width="180" height="179" fill="none" xmlns="http://www.w3.org/2000/svg"><g filter="url(#filter0_d_440_472)"><rect x="4.121" width="171.879" height="170.919" rx="16.004" fill="#46767D"/></g><mask id="a" style="mask-type:alpha" maskUnits="userSpaceOnUse" x="4" y="0" width="172" height="43"><path fill="#C9D9CD" d="M4.121 0H176v42.249H4.121z"/></mask><g mask="url(#a)"><rect x="4.121" y="-1.69" width="171.879" height="118.299" rx="16.004" fill="#223B38"/></g><path d="M14.903 60.05v-7.009h3.956v7.01h-.865v-6.222h-2.227v6.222h-.864zm5.667 1.73v-7.01h.864v1.008h.173l-.172.202c0-.404.13-.72.393-.951.27-.237.621-.355 1.056-.355.532 0 .954.176 1.268.528.32.345.48.822.48 1.43v1.546c0 .404-.074.753-.22 1.047a1.57 1.57 0 01-.606.682c-.256.16-.563.24-.922.24-.428 0-.777-.119-1.046-.355-.269-.237-.404-.554-.404-.951l.173.202h-.192l.02 1.2v1.536h-.865zm2.026-2.382c.365 0 .65-.109.855-.327.211-.217.317-.531.317-.94V56.69c0-.41-.106-.723-.317-.941-.205-.218-.49-.327-.855-.327-.352 0-.633.113-.845.337-.21.224-.317.534-.317.931v1.44c0 .397.106.708.317.932.212.224.493.336.845.336zm3.68.653V54.77h.826v2.88c0 .186-.006.381-.019.586-.006.205-.02.4-.038.586a6.83 6.83 0 01-.048.46l2.131-4.512h1.105v5.28h-.826v-2.88c0-.186.003-.38.01-.586.012-.204.028-.4.047-.585l.048-.47-2.131 4.522h-1.105zm5.515 0V54.77h1.171l.691 2.026a12.388 12.388 0 01.317 1.075c.026-.109.064-.262.116-.46.057-.206.118-.414.182-.625l.653-2.016h1.171v5.28h-.835v-.815c0-.288.003-.602.01-.941l.019-1.028c.013-.346.025-.672.038-.98.013-.313.023-.588.029-.825l-.941 3.005H33.5l-.95-2.986c.012.288.022.647.028 1.076.013.428.022.877.029 1.344.013.467.019.912.019 1.335v.816h-.835zm7.837.096a2.3 2.3 0 01-1.094-.25 1.806 1.806 0 01-.72-.7 2.204 2.204 0 01-.25-1.067v-1.44c0-.41.083-.765.25-1.066.172-.3.413-.534.72-.7a2.29 2.29 0 011.094-.25c.416 0 .778.083 1.086.25.313.166.553.4.72.7.172.301.259.656.259 1.066v.931h-3.284v.51c0 .415.106.736.317.96.211.217.512.326.902.326.333 0 .602-.058.807-.173.205-.121.33-.3.374-.538h.865a1.471 1.471 0 01-.653 1.057c-.371.256-.836.384-1.393.384zm1.22-3.102v-.355c0-.416-.106-.736-.317-.96-.205-.224-.506-.336-.903-.336-.39 0-.69.112-.902.336-.211.224-.317.544-.317.96v.279h2.506l-.067.076zm2.49 3.006V54.77h.864v2.198h2.227V54.77h.864v5.28h-.864v-2.294h-2.227v2.295h-.865zm5.686 0V54.77h.826v2.88c0 .186-.006.381-.02.586-.005.205-.018.4-.038.586a5.306 5.306 0 01-.048.46l2.132-4.512h1.104v5.28h-.825v-2.88c0-.186.003-.38.01-.586.012-.204.028-.4.047-.585l.048-.47-2.131 4.522h-1.105zm5.025.067v-.807h.172c.295 0 .5-.115.615-.345.122-.23.186-.644.192-1.239l.058-2.957h3.581v5.28h-.864v-4.493H55.94l-.048 2.209c-.013.556-.077 1.008-.192 1.353-.109.346-.281.599-.518.759-.23.16-.535.24-.913.24h-.22zm6.35-.067V54.77h.825v2.88c0 .186-.006.381-.02.586-.006.205-.018.4-.038.586a5.306 5.306 0 01-.048.46l2.132-4.512h1.104v5.28h-.825v-2.88c0-.186.003-.38.01-.586.012-.204.028-.4.047-.585l.048-.47-2.132 4.522h-1.104zm12.18 1.728l.777-2.055-1.958-4.954h.96l1.229 3.264c.045.11.086.24.125.394l.096.375c.025-.103.057-.228.096-.375.038-.154.077-.285.115-.394l1.152-3.264h.932L73.5 61.78h-.922zm4.88-1.728V54.77h.864v2.198h2.228V54.77h.864v5.28h-.864v-2.294h-2.228v2.295h-.864zm5.687 0V54.77h.826v2.88c0 .186-.007.381-.02.586-.006.205-.019.4-.038.586a6.233 6.233 0 01-.048.46l2.132-4.512h1.104v5.28h-.826v-2.88c0-.186.004-.38.01-.586.013-.204.029-.4.048-.585l.048-.47-2.132 4.522h-1.104zm5.716 0V54.77h.864v2.18h.903l1.536-2.18h.989l-1.776 2.515 1.805 2.766h-1.009l-1.536-2.353h-.912v2.353h-.864zm7.175.096c-.557 0-.995-.141-1.316-.423-.32-.288-.48-.675-.48-1.162 0-.492.16-.88.48-1.161.32-.282.753-.423 1.297-.423h1.632v-.528c0-.327-.1-.576-.297-.749-.192-.18-.468-.269-.826-.269-.314 0-.576.067-.788.202a.717.717 0 00-.365.528h-.864c.058-.455.272-.816.644-1.085.37-.269.835-.403 1.392-.403.608 0 1.088.156 1.44.47.352.314.528.74.528 1.277v3.63h-.845v-1.008h-.144l.144-.145c0 .385-.15.689-.45.913-.295.224-.69.336-1.182.336zm.211-.682c.41 0 .746-.102 1.008-.307a.956.956 0 00.394-.788v-.749h-1.613c-.288 0-.515.08-.682.24-.166.16-.25.378-.25.653 0 .295.1.529.298.701.205.167.487.25.845.25zm3.296.653v-.807h.173c.295 0 .499-.115.615-.345.121-.23.185-.644.192-1.239l.057-2.957h3.582v5.28h-.864v-4.493h-1.863l-.048 2.209c-.013.556-.077 1.008-.192 1.353-.109.346-.282.599-.519.759-.23.16-.534.24-.912.24h-.22zm6.388-.067V54.77h.864v1.94h1.556c.595 0 1.063.15 1.402.45.346.295.518.702.518 1.22 0 .512-.172.919-.518 1.22-.346.3-.813.45-1.402.45h-2.42zm.864-.788h1.556c.333 0 .586-.073.758-.22.18-.154.269-.375.269-.663 0-.288-.089-.506-.269-.653-.172-.154-.425-.23-.758-.23h-1.556v1.766zm4.785.788V54.77h.864v2.198h2.228V54.77h.864v5.28h-.864v-2.294h-2.228v2.295h-.864zm5.408 0V54.77h.807v1.94h.432c.57 0 1.018.15 1.344.45.333.295.499.702.499 1.22s-.166.928-.499 1.23c-.326.294-.774.44-1.344.44h-1.239zm.807-.692h.432c.339 0 .602-.086.787-.259.192-.173.288-.413.288-.72s-.096-.547-.288-.72c-.185-.173-.448-.26-.787-.26h-.432v1.96zm2.9.692V54.77h.806v5.28h-.806zm4.237.096c-.416 0-.781-.083-1.095-.25a1.808 1.808 0 01-.72-.7 2.197 2.197 0 01-.25-1.067v-1.44c0-.41.083-.765.25-1.066.173-.3.413-.534.72-.7.314-.167.679-.25 1.095-.25.416 0 .777.083 1.085.25.313.166.553.4.72.7.173.301.259.656.259 1.066v.931h-3.284v.51c0 .415.106.736.317.96.211.217.512.326.903.326.333 0 .601-.058.806-.173a.76.76 0 00.375-.538h.864a1.471 1.471 0 01-.653 1.057c-.371.256-.835.384-1.392.384zm1.219-3.102v-.355c0-.416-.106-.736-.317-.96-.205-.224-.505-.336-.902-.336-.391 0-.692.112-.903.336-.211.224-.317.544-.317.96v.279h2.506l-.067.076zM16.449 79.051v-4.523h-1.92v-.758h4.704v.758h-1.92v4.523h-.864zm6.119.096a2.3 2.3 0 01-1.095-.25 1.806 1.806 0 01-.72-.7 2.204 2.204 0 01-.25-1.067v-1.44c0-.41.083-.765.25-1.066.173-.3.413-.534.72-.7.314-.167.678-.25 1.095-.25.416 0 .777.083 1.085.25.313.166.553.4.72.7.173.301.26.656.26 1.066v.931h-3.285v.51c0 .415.106.736.317.96.211.217.512.326.903.326.332 0 .601-.058.806-.173a.76.76 0 00.375-.537h.864a1.471 1.471 0 01-.653 1.056c-.371.256-.835.384-1.392.384zm1.22-3.102v-.355c0-.416-.107-.736-.318-.96-.205-.224-.505-.336-.902-.336-.39 0-.692.112-.903.336-.211.224-.317.544-.317.96v.279h2.506l-.067.076zm2.066 3.006l1.872-2.718-1.757-2.563h1.018l1.047 1.632c.044.07.086.147.125.23.044.084.08.15.105.202.02-.051.048-.118.087-.202.044-.083.09-.16.134-.23l1.056-1.632h1.008l-1.757 2.573 1.863 2.708h-1.018l-1.133-1.729c-.045-.07-.09-.15-.134-.24a2.059 2.059 0 00-.106-.23 3.796 3.796 0 01-.26.47l-1.142 1.729h-1.008zm6.11 0V73.77h.864v2.199h2.227v-2.2h.864v5.282h-.864v-2.295h-2.227v2.295h-.865zm5.686 0V73.77h.826v2.88c0 .186-.006.381-.019.586-.006.205-.02.4-.038.586a6.83 6.83 0 01-.048.46l2.131-4.512h1.104v5.28h-.825v-2.88c0-.186.003-.38.01-.586.012-.204.028-.4.047-.585l.048-.47-2.131 4.522H37.65zm5.716 0V73.77h.864v2.18h.903l1.536-2.18h.99l-1.777 2.515 1.805 2.766H46.68l-1.537-2.353h-.912v2.353h-.864zm5.658 0V73.77h.826v2.88c0 .186-.006.381-.02.586-.005.205-.018.4-.038.586a5.306 5.306 0 01-.048.46l2.132-4.512h1.104v5.28h-.825v-2.88c0-.186.003-.38.01-.586.012-.204.028-.4.047-.585l.048-.47-2.131 4.522h-1.105zm6.369 1.536l.768-2.986h1.248l-1.248 2.986h-.768zm10.673.192v-7.01h.864v1.009h.173l-.173.201c0-.403.131-.72.394-.95.269-.237.62-.355 1.056-.355.531 0 .954.176 1.267.528.32.345.48.822.48 1.43v1.546c0 .404-.073.752-.22 1.047a1.57 1.57 0 01-.605.682c-.256.16-.564.24-.922.24-.429 0-.778-.119-1.047-.356-.269-.236-.403-.553-.403-.95l.173.202h-.192l.02 1.2v1.536h-.865zm2.026-2.381c.365 0 .65-.109.855-.327.21-.217.316-.531.316-.94V75.69c0-.41-.105-.723-.316-.941-.205-.218-.49-.326-.855-.326-.352 0-.634.112-.845.336-.211.224-.317.534-.317.931v1.44c0 .397.106.708.317.932.211.224.493.336.845.336zm5.197.749c-.557 0-.995-.141-1.315-.423-.32-.288-.48-.675-.48-1.162 0-.492.16-.88.48-1.161.32-.282.752-.423 1.296-.423h1.632v-.528c0-.326-.099-.576-.297-.749-.192-.18-.468-.269-.826-.269-.314 0-.576.067-.787.202a.717.717 0 00-.365.528h-.864c.057-.455.271-.816.643-1.085.371-.269.835-.403 1.392-.403.608 0 1.088.156 1.44.47.353.314.529.74.529 1.277v3.63h-.845v-1.008h-.144l.144-.145c0 .385-.15.689-.452.913-.294.224-.688.336-1.18.336zm.212-.682c.41 0 .745-.102 1.008-.307a.956.956 0 00.393-.788v-.749H73.29c-.288 0-.515.08-.681.24-.167.16-.25.378-.25.653 0 .295.099.529.297.701.205.167.487.25.846.25zm5.686.653c-.556 0-1.014-.118-1.373-.355a1.411 1.411 0 01-.633-.96h.912c.045.16.163.29.355.393.199.103.445.154.74.154h.45c.314 0 .558-.074.73-.221a.71.71 0 00.27-.576c0-.256-.087-.458-.26-.605-.166-.147-.413-.22-.74-.22h-1.161v-.75h1.133c.294 0 .518-.07.672-.211a.72.72 0 00.23-.557.728.728 0 00-.105-.403.61.61 0 00-.298-.25 1.241 1.241 0 00-.49-.087h-.48a1.23 1.23 0 00-.662.173c-.186.116-.298.256-.336.423h-.912c.064-.397.272-.724.624-.98s.78-.384 1.286-.384h.48c.378 0 .701.061.97.183a1.321 1.321 0 01.835 1.277c0 .314-.102.573-.307.778-.204.198-.493.31-.864.336v.038c.455.032.784.154.99.365.204.211.306.515.306.912 0 .468-.172.839-.518 1.114-.346.275-.81.413-1.392.413h-.452zm3.94 1.661v-7.01h.864v1.009h.173l-.173.201c0-.403.131-.72.394-.95.268-.237.62-.355 1.056-.355.531 0 .954.176 1.267.528.32.345.48.822.48 1.43v1.546c0 .404-.073.752-.22 1.047a1.577 1.577 0 01-.605.682c-.256.16-.564.24-.922.24-.429 0-.778-.119-1.047-.356-.269-.236-.403-.553-.403-.95l.173.202h-.192l.019 1.2v1.536h-.864zm2.026-2.381c.365 0 .65-.109.854-.327.212-.217.317-.531.317-.94V75.69c0-.41-.105-.723-.317-.941-.204-.218-.49-.326-.854-.326-.352 0-.634.112-.845.336-.211.224-.317.534-.317.931v1.44c0 .397.106.708.317.932.211.224.493.336.845.336zm5.197.749c-.557 0-.995-.141-1.315-.423-.32-.288-.48-.675-.48-1.162 0-.492.16-.88.48-1.161.32-.282.752-.423 1.296-.423h1.632v-.528c0-.326-.099-.576-.297-.749-.192-.18-.468-.269-.826-.269-.314 0-.576.067-.788.202a.717.717 0 00-.365.528h-.864c.058-.455.272-.816.644-1.085.37-.269.835-.403 1.392-.403.608 0 1.088.156 1.44.47.352.314.528.74.528 1.277v3.63h-.845v-1.008h-.144l.144-.145c0 .385-.15.689-.45.913-.295.224-.689.336-1.182.336zm.211-.682c.41 0 .746-.102 1.008-.307a.956.956 0 00.394-.788v-.749H90.35c-.288 0-.515.08-.682.24-.166.16-.25.378-.25.653 0 .295.1.529.298.701.205.167.487.25.845.25zm5.937.682c-.621 0-1.114-.183-1.479-.547-.358-.372-.538-.877-.538-1.518v-2.4c0-.845.212-1.495.634-1.95.423-.46 1.028-.69 1.815-.69h1.344v.863H96.93c-.519 0-.912.154-1.181.461-.269.301-.403.74-.403 1.316v.624h.134l-.134.192c.006-.378.134-.672.384-.883.25-.212.589-.317 1.018-.317.556 0 .989.179 1.296.537.314.359.47.852.47 1.48v.767c0 .43-.08.797-.24 1.105-.16.307-.39.544-.691.71-.3.167-.663.25-1.085.25zm0-.768c.371 0 .656-.112.855-.336.198-.225.297-.545.297-.96v-.769c0-.416-.1-.736-.297-.96-.199-.224-.484-.336-.855-.336s-.656.112-.855.336c-.198.218-.297.538-.297.96v.768c0 .416.099.737.297.96.199.225.484.337.855.337zm5.687.749c-.423 0-.788-.08-1.095-.24a1.744 1.744 0 01-.72-.692c-.166-.307-.25-.669-.25-1.085V75.71c0-.422.084-.784.25-1.085.173-.3.413-.531.72-.691.307-.16.672-.24 1.095-.24.422 0 .787.08 1.095.24.307.16.544.39.71.691.173.301.259.66.259 1.076v1.411c0 .416-.086.778-.259 1.085a1.68 1.68 0 01-.71.692c-.308.16-.673.24-1.095.24zm0-.769c.378 0 .672-.105.883-.316.212-.212.317-.522.317-.932V75.71c0-.41-.105-.72-.317-.931-.211-.211-.505-.317-.883-.317-.371 0-.666.106-.884.317-.211.211-.316.521-.316.931v1.402c0 .41.105.72.316.932.218.21.513.316.884.316zm5.255.692v-4.523h-1.921v-.758h4.705v.758h-1.92v4.523h-.864zm5.658.096c-.557 0-.996-.141-1.316-.423-.32-.288-.48-.675-.48-1.162 0-.492.16-.88.48-1.161.32-.282.753-.423 1.297-.423h1.632v-.528c0-.326-.099-.576-.298-.749-.192-.18-.467-.269-.825-.269-.314 0-.577.067-.788.202a.718.718 0 00-.365.528h-.864c.058-.455.272-.816.643-1.085.372-.269.836-.403 1.393-.403.608 0 1.088.156 1.44.47.352.314.528.74.528 1.277v3.63h-.845v-1.008h-.144l.144-.145c0 .385-.15.689-.451.913-.295.224-.688.336-1.181.336zm.211-.682c.41 0 .746-.102 1.008-.307a.955.955 0 00.394-.788v-.749h-1.613c-.288 0-.515.08-.682.24-.166.16-.25.378-.25.653 0 .295.1.529.298.701.205.167.487.25.845.25zm3.959.586V73.77h.864v2.199h2.228v-2.2h.864v5.282h-.864v-2.295h-2.228v2.295h-.864zm5.687 0V73.77h.864v2.199h2.227v-2.2h.865v5.282h-.865v-2.295h-2.227v2.295h-.864zm5.408 0V73.77h.807v1.94h.432c.569 0 1.018.15 1.344.45.333.295.499.702.499 1.22 0 .519-.166.928-.499 1.23-.326.293-.775.44-1.344.44h-1.239zm.807-.692h.432c.339 0 .601-.086.787-.259.192-.173.288-.413.288-.72s-.096-.547-.288-.72c-.186-.173-.448-.26-.787-.26h-.432v1.96zm2.9.692V73.77h.806v5.28h-.806zm4.237.096a2.3 2.3 0 01-1.095-.25 1.808 1.808 0 01-.72-.7 2.197 2.197 0 01-.25-1.067v-1.44c0-.41.083-.765.25-1.066.173-.3.413-.534.72-.7.314-.167.678-.25 1.095-.25.416 0 .777.083 1.085.25.313.166.553.4.72.7.173.301.259.656.259 1.066v.931h-3.284v.51c0 .415.106.736.317.96.211.217.512.326.903.326.332 0 .601-.058.806-.173a.76.76 0 00.375-.537h.864a1.471 1.471 0 01-.653 1.056c-.371.256-.836.384-1.392.384zm1.219-3.102v-.355c0-.416-.106-.736-.317-.96-.205-.224-.506-.336-.902-.336-.391 0-.692.112-.903.336-.211.224-.317.544-.317.96v.279h2.506l-.067.076zM16.9 98.147a2.46 2.46 0 01-1.114-.24 1.729 1.729 0 01-.73-.692c-.173-.307-.259-.669-.259-1.085v-1.44c0-.422.086-.784.26-1.085.172-.3.415-.531.729-.691.32-.16.691-.24 1.114-.24.608 0 1.098.163 1.469.49.371.326.567.77.586 1.334h-.864c-.02-.34-.135-.599-.346-.778-.205-.185-.487-.278-.845-.278-.378 0-.679.109-.903.326-.224.212-.336.516-.336.912v1.45c0 .397.112.705.336.922.224.218.525.327.903.327.358 0 .64-.093.845-.279.211-.185.326-.445.345-.778h.865c-.02.564-.215 1.009-.586 1.335-.371.327-.861.49-1.47.49zm3.69-.096V92.77h3.956v5.28h-.865v-4.493h-2.227v4.494h-.864zm7.665.096c-.416 0-.781-.083-1.095-.25a1.806 1.806 0 01-.72-.7 2.204 2.204 0 01-.25-1.067v-1.44c0-.41.083-.765.25-1.066.173-.3.413-.534.72-.7.314-.167.678-.25 1.095-.25.416 0 .777.083 1.085.25.313.166.553.4.72.7.173.301.259.656.259 1.066v.931h-3.284v.51c0 .415.106.736.317.96.211.217.512.326.902.326.333 0 .602-.058.807-.173a.76.76 0 00.375-.537h.864a1.471 1.471 0 01-.653 1.056c-.371.256-.835.384-1.392.384zm1.219-3.102v-.355c0-.416-.106-.736-.317-.96-.205-.224-.506-.336-.902-.336-.39 0-.692.112-.903.336-.211.224-.317.544-.317.96v.279h2.506l-.067.076zm6.244 4.35v-1.344h-3.755V92.77h.865v4.513h2.074V92.77h.864v4.513h.72v2.112h-.768zm1.932-1.344V92.77h.826v2.88c0 .186-.006.381-.019.586-.006.205-.02.4-.038.586a6.83 6.83 0 01-.048.46l2.131-4.512h1.104v5.28h-.825v-2.88c0-.186.003-.38.01-.586.012-.204.028-.4.047-.585l.048-.47-2.131 4.522H37.65zm7.205.096c-.557 0-.996-.141-1.316-.423-.32-.288-.48-.675-.48-1.162 0-.492.16-.88.48-1.161.32-.282.752-.423 1.296-.423h1.633v-.528c0-.326-.1-.576-.298-.749-.192-.18-.467-.269-.826-.269-.313 0-.576.067-.787.202a.717.717 0 00-.365.528h-.864c.057-.455.272-.816.643-1.085s.836-.403 1.392-.403c.608 0 1.089.156 1.44.47.353.314.529.74.529 1.277v3.63h-.845v-1.008h-.144l.144-.145c0 .385-.15.689-.452.913-.294.224-.688.336-1.18.336zm.21-.682c.41 0 .747-.102 1.009-.307a.956.956 0 00.394-.788v-.749h-1.614c-.288 0-.515.08-.681.24-.167.16-.25.378-.25.653 0 .295.1.529.298.701.205.167.486.25.845.25zm3.297.653v-.807h.173c.294 0 .499-.115.614-.345.122-.23.186-.644.192-1.239l.058-2.957h3.581v5.28h-.864v-4.493h-1.863l-.048 2.209c-.012.556-.076 1.008-.192 1.353-.108.346-.281.599-.518.759-.23.16-.535.24-.912.24h-.221zm6.388-.067V92.77h.864v1.94h1.555c.596 0 1.063.15 1.402.45.346.295.519.702.519 1.22 0 .512-.173.919-.519 1.22-.345.3-.813.45-1.402.45h-2.42zm.864-.788h1.555c.333 0 .586-.073.759-.22.18-.154.269-.375.269-.663 0-.288-.09-.506-.269-.653-.173-.154-.426-.23-.759-.23h-1.555v1.766zm4.784.788V92.77h.864v2.199h2.228v-2.2h.864v5.282h-.864v-2.295h-2.228v2.295h-.864zm7.665.077c-.422 0-.787-.08-1.094-.24a1.742 1.742 0 01-.72-.692c-.167-.307-.25-.669-.25-1.085V94.71c0-.422.083-.784.25-1.085.172-.3.412-.531.72-.691.307-.16.672-.24 1.094-.24.423 0 .788.08 1.095.24.307.16.544.39.71.691.173.301.26.66.26 1.076v1.411c0 .416-.087.778-.26 1.085a1.68 1.68 0 01-.71.692c-.307.16-.672.24-1.095.24zm0-.769c.378 0 .672-.105.884-.316.21-.212.316-.522.316-.932V94.71c0-.41-.105-.72-.316-.931-.212-.211-.506-.317-.884-.317-.371 0-.666.106-.883.317-.212.211-.317.521-.317.931v1.402c0 .41.106.72.317.932.217.21.512.316.883.316zm8.781 2.036v-2.084h.433c.108-.108.22-.323.336-.643.121-.32.185-.727.192-1.22l.057-2.678h3.448v4.541h.672v2.084h-.769v-1.344h-3.6v1.344h-.769zm1.345-2.084h2.256v-3.773H78.68l-.039 1.93c-.006.505-.06.915-.163 1.229-.103.313-.199.518-.288.614zm4.294.807v-.807h.173c.295 0 .5-.115.615-.345.121-.23.185-.644.192-1.239l.058-2.957h3.581v5.28h-.864v-4.493h-1.863l-.048 2.209c-.013.556-.077 1.008-.192 1.353-.109.346-.282.599-.519.759-.23.16-.534.24-.912.24h-.22zm6.023-.067l1.354-2.036c-.403-.096-.717-.281-.94-.557-.218-.275-.327-.617-.327-1.027 0-.519.17-.925.509-1.22.346-.294.816-.441 1.411-.441h2.276v5.28h-.864v-1.968h-1.162l-1.248 1.969h-1.009zm2.007-2.737h1.412v-1.776h-1.412c-.32 0-.573.08-.758.24-.186.153-.279.371-.279.653 0 .275.093.493.279.653.185.153.438.23.758.23zm9.521 2.737V92.77h1.171l.692 2.026c.07.204.134.41.192.614.057.199.099.352.125.461.025-.109.064-.262.115-.46.058-.206.118-.414.182-.625l.653-2.016h1.172v5.28h-.836v-.815c0-.288.004-.602.01-.941l.019-1.028.039-.98c.012-.313.022-.588.028-.825l-.941 3.005h-.912l-.95-2.986c.012.288.022.647.028 1.076.013.428.023.877.029 1.344.013.467.019.912.019 1.335v.816h-.835zm7.377.096c-.557 0-.996-.141-1.316-.423-.32-.288-.48-.675-.48-1.162 0-.492.16-.88.48-1.161.32-.282.753-.423 1.297-.423h1.632v-.528c0-.326-.099-.576-.298-.749-.192-.18-.467-.269-.825-.269-.314 0-.577.067-.788.202a.718.718 0 00-.365.528h-.864c.058-.455.272-.816.643-1.085.372-.269.836-.403 1.393-.403.608 0 1.088.156 1.44.47.352.314.528.74.528 1.277v3.63h-.845v-1.008h-.144l.144-.145c0 .385-.15.689-.451.913-.295.224-.688.336-1.181.336zm.211-.682c.41 0 .746-.102 1.008-.307a.955.955 0 00.394-.788v-.749h-1.613c-.288 0-.515.08-.682.24-.166.16-.25.378-.25.653 0 .295.1.529.298.701.205.167.487.25.845.25zm3.988.586V92.77h.864v2.18h.902l1.537-2.18h.989l-1.777 2.515 1.805 2.766h-1.008l-1.536-2.353h-.912v2.353h-.864zm7.655.096a2.46 2.46 0 01-1.114-.24 1.728 1.728 0 01-.73-.692c-.173-.307-.259-.669-.259-1.085v-1.44c0-.422.086-.784.259-1.085.173-.3.416-.531.73-.691.32-.16.691-.24 1.114-.24.608 0 1.098.163 1.469.49.371.326.567.77.586 1.334h-.864c-.02-.34-.135-.599-.346-.778-.205-.185-.487-.278-.845-.278-.378 0-.679.109-.903.326-.224.212-.336.516-.336.912v1.45c0 .397.112.705.336.922.224.218.525.327.903.327.358 0 .64-.093.845-.279.211-.185.326-.445.346-.778h.864c-.019.564-.215 1.009-.586 1.335-.371.327-.861.49-1.469.49zm3.69-.096V92.77h.825v2.88c0 .186-.006.381-.019.586-.006.205-.019.4-.038.586a6.31 6.31 0 01-.048.46l2.131-4.512h1.105v5.28h-.826v-2.88c0-.186.003-.38.01-.586.012-.204.028-.4.048-.585l.048-.47-2.132 4.522h-1.104zm5.514 0V92.77h1.171l.692 2.026c.07.204.134.41.192.614.057.199.099.352.124.461.026-.109.064-.262.116-.46.057-.206.118-.414.182-.625l.653-2.016h1.171v5.28h-.835v-.815c0-.288.003-.602.01-.941l.019-1.028c.013-.346.025-.672.038-.98.013-.313.023-.588.029-.825l-.941 3.005h-.912l-.951-2.986c.013.288.023.647.029 1.076.013.428.022.877.029 1.344.013.467.019.912.019 1.335v.816h-.835zm7.377.096c-.557 0-.996-.141-1.316-.423-.32-.288-.48-.675-.48-1.162 0-.492.16-.88.48-1.161.32-.282.752-.423 1.296-.423h1.633v-.528c0-.326-.099-.576-.298-.749-.192-.18-.467-.269-.826-.269-.313 0-.576.067-.787.202a.718.718 0 00-.365.528h-.864c.058-.455.272-.816.643-1.085.372-.269.836-.403 1.393-.403.608 0 1.088.156 1.44.47.352.314.528.74.528 1.277v3.63h-.845v-1.008h-.144l.144-.145c0 .385-.15.689-.451.913-.295.224-.688.336-1.181.336zm.211-.682c.41 0 .746-.102 1.008-.307a.955.955 0 00.394-.788v-.749h-1.613c-.288 0-.516.08-.682.24-.167.16-.25.378-.25.653 0 .295.099.529.298.701.205.167.486.25.845.25zm3.296.653v-.807h.173c.294 0 .499-.115.614-.345.122-.23.186-.644.192-1.239l.058-2.957h3.582v5.28h-.865v-4.493h-1.862l-.048 2.209c-.013.556-.077 1.008-.193 1.353-.108.346-.281.599-.518.759-.231.16-.535.24-.912.24h-.221zm6.388-.067V92.77h.864v1.94h1.556c.595 0 1.062.15 1.401.45.346.295.519.702.519 1.22 0 .512-.173.919-.519 1.22-.345.3-.813.45-1.401.45h-2.42zm.864-.788h1.556c.332 0 .585-.073.758-.22.179-.154.269-.375.269-.663 0-.288-.09-.506-.269-.653-.173-.154-.426-.23-.758-.23h-1.556v1.766zm4.784.788V92.77h.865v2.199h2.227v-2.2h.864v5.282h-.864v-2.295h-2.227v2.295h-.865zm7.665.077c-.422 0-.787-.08-1.094-.24a1.733 1.733 0 01-.72-.692c-.167-.307-.25-.669-.25-1.085V94.71c0-.422.083-.784.25-1.085.172-.3.412-.531.72-.691.307-.16.672-.24 1.094-.24.423 0 .788.08 1.095.24.307.16.544.39.711.691.172.301.259.66.259 1.076v1.411c0 .416-.087.778-.259 1.085a1.689 1.689 0 01-.711.692c-.307.16-.672.24-1.095.24zm0-.769c.378 0 .672-.105.884-.316.211-.212.317-.522.317-.932V94.71c0-.41-.106-.72-.317-.931-.212-.211-.506-.317-.884-.317-.371 0-.665.106-.883.317-.211.211-.317.521-.317.931v1.402c0 .41.106.72.317.932.218.21.512.316.883.316zm3.709.692V92.77h.826v2.88c0 .186-.006.381-.019.586a8.06 8.06 0 01-.039.586 5.306 5.306 0 01-.048.46l2.132-4.512h1.104v5.28h-.825v-2.88c0-.186.003-.38.009-.586.013-.204.029-.4.048-.585l.048-.47-2.132 4.522h-1.104zm2.017-6.146c-.461 0-.833-.128-1.114-.384-.282-.256-.423-.592-.423-1.008h.682c0 .25.077.451.231.605.153.154.358.23.614.23.263 0 .471-.076.624-.23a.8.8 0 00.24-.605h.682c0 .416-.141.752-.422 1.008-.282.256-.653.384-1.114.384zM16.842 118.147c-.608 0-1.094-.163-1.46-.49-.364-.326-.556-.771-.575-1.335h.864c.019.333.131.593.336.778.205.186.483.279.835.279.378 0 .67-.109.874-.327.211-.217.317-.525.317-.922v-.384H16.16v-.768h1.873v-.298c0-.396-.106-.701-.317-.912-.205-.217-.496-.326-.874-.326-.352 0-.63.093-.835.278-.205.179-.317.439-.336.778h-.864c.019-.563.21-1.008.576-1.335.365-.326.851-.489 1.46-.489.428 0 .793.08 1.094.24.307.16.544.39.71.691.167.301.25.663.25 1.085v1.44c0 .416-.083.778-.25 1.085a1.683 1.683 0 01-.71.692c-.301.16-.666.24-1.095.24zm5.341 1.632v-1.728c-.614 0-1.097-.173-1.45-.519-.352-.345-.527-.819-.527-1.421v-1.421c0-.595.175-1.063.528-1.402.358-.346.841-.518 1.45-.518v-1.729h.768v1.729c.614 0 1.097.172 1.45.518.352.339.528.807.528 1.402v1.421c0 .602-.176 1.076-.528 1.421-.353.346-.836.519-1.45.519v1.728h-.769zm.02-2.41v-3.918c-.372 0-.663.109-.874.327-.211.217-.317.522-.317.912v1.421c0 .391.106.698.317.922.211.224.502.336.874.336zm.73 0c.377 0 .668-.112.873-.336.211-.224.317-.531.317-.922v-1.421c0-.39-.106-.695-.317-.912-.205-.218-.496-.327-.873-.327v3.918zm4.938 2.41v-1.728c-.615 0-1.098-.173-1.45-.519-.352-.345-.529-.819-.529-1.421v-1.421c0-.595.177-1.063.529-1.402.358-.346.841-.518 1.45-.518v-1.729h.768v1.729c.614 0 1.098.172 1.45.518.352.339.528.807.528 1.402v1.421c0 .602-.176 1.076-.528 1.421-.352.346-.836.519-1.45.519v1.728h-.768zm.019-2.41v-3.918c-.372 0-.663.109-.874.327-.211.217-.317.522-.317.912v1.421c0 .391.106.698.317.922.211.224.502.336.874.336zm.73 0c.377 0 .668-.112.873-.336.212-.224.317-.531.317-.922v-1.421c0-.39-.105-.695-.317-.912-.205-.218-.496-.327-.874-.327v3.918zm5.321.778c-.416 0-.78-.083-1.094-.25a1.803 1.803 0 01-.72-.701 2.2 2.2 0 01-.25-1.066v-1.44c0-.41.083-.765.25-1.066a1.81 1.81 0 01.72-.701 2.307 2.307 0 011.094-.249c.417 0 .778.083 1.085.249.314.167.554.4.72.701.173.301.26.656.26 1.066v.931h-3.284v.509c0 .416.106.737.317.961.211.217.512.326.902.326.333 0 .602-.058.807-.173a.762.762 0 00.375-.538h.864a1.473 1.473 0 01-.653 1.057c-.372.256-.836.384-1.393.384zm1.22-3.102v-.355c0-.416-.106-.736-.317-.96-.205-.224-.506-.336-.903-.336-.39 0-.69.112-.902.336-.211.224-.317.544-.317.96v.278h2.506l-.067.077zm2.518 3.006v-5.281h.864v2.179h.903l1.536-2.179h.99l-1.777 2.515L42 118.051h-1.008l-1.536-2.353h-.913v2.353h-.864zm7.204 0v-4.523h-1.92v-.758h4.705v.758h-1.92v4.523h-.865zm4.141 0v-5.281h.826v2.88c0 .186-.006.381-.02.586a8.2 8.2 0 01-.038.586 6.053 6.053 0 01-.048.461l2.132-4.513h1.104v5.281h-.825v-2.881c0-.186.003-.381.01-.586.012-.204.028-.4.047-.585l.048-.471-2.131 4.523h-1.105zm5.687 0v-5.281h2.285c.551 0 .977.124 1.278.374.3.243.45.586.45 1.028 0 .364-.124.659-.373.883-.25.218-.58.326-.99.326v-.076c.449 0 .807.112 1.076.336.275.224.413.525.413.902 0 .474-.16.845-.48 1.114-.32.263-.768.394-1.345.394h-2.314zm.845-.759h1.47c.307 0 .543-.067.71-.201a.679.679 0 00.26-.567c0-.25-.087-.442-.26-.576-.166-.135-.403-.202-.71-.202h-1.47v1.546zm0-2.295h1.44c.27 0 .48-.064.634-.192.16-.128.24-.307.24-.537 0-.231-.076-.41-.23-.538-.154-.135-.368-.202-.644-.202h-1.44v1.469zm4.842 3.054v-5.281h.864v2.198h2.228v-2.198h.864v5.281h-.864v-2.295h-2.228v2.295h-.864zm7.665.077c-.422 0-.787-.08-1.094-.24a1.743 1.743 0 01-.72-.692c-.167-.307-.25-.669-.25-1.085v-1.402c0-.422.083-.784.25-1.085a1.74 1.74 0 01.72-.691c.307-.16.672-.24 1.094-.24.423 0 .788.08 1.095.24.307.16.544.39.71.691.173.301.26.66.26 1.076v1.411c0 .416-.087.778-.26 1.085a1.683 1.683 0 01-.71.692c-.307.16-.672.24-1.095.24zm0-.769c.378 0 .672-.105.884-.316.21-.212.316-.522.316-.932v-1.402c0-.409-.105-.72-.316-.931-.212-.211-.506-.317-.884-.317-.371 0-.666.106-.883.317-.212.211-.317.522-.317.931v1.402c0 .41.106.72.317.932.217.211.512.316.883.316zm5.706.788a2.46 2.46 0 01-1.114-.24 1.73 1.73 0 01-.73-.692c-.172-.307-.259-.669-.259-1.085v-1.44c0-.422.087-.784.26-1.085.172-.301.416-.531.73-.691.32-.16.69-.24 1.113-.24.608 0 1.098.163 1.47.489.37.327.566.772.585 1.335h-.864c-.02-.339-.134-.599-.346-.778-.205-.185-.486-.278-.845-.278-.377 0-.678.109-.902.326-.224.211-.336.516-.336.912v1.45c0 .397.112.705.336.922.224.218.525.327.902.327.359 0 .64-.093.845-.279.212-.185.327-.445.346-.778h.864c-.019.564-.214 1.009-.585 1.335-.372.327-.862.49-1.47.49zm5.236-.096v-4.523h-1.92v-.758h4.705v.758h-1.92v4.523h-.865zm4.141 0v-5.281h.826v2.88c0 .186-.007.381-.02.586a8.2 8.2 0 01-.038.586 6.11 6.11 0 01-.048.461l2.132-4.513h1.104v5.281h-.826v-2.881c0-.186.004-.381.01-.586.013-.204.029-.4.048-.585l.048-.471-2.132 4.523h-1.104zm11.374 0v-5.281h2.285c.55 0 .976.124 1.277.374.301.243.452.586.452 1.028 0 .364-.125.659-.375.883-.25.218-.58.326-.989.326v-.076c.448 0 .807.112 1.076.336.275.224.412.525.412.902 0 .474-.16.845-.48 1.114-.32.263-.768.394-1.344.394H94.52zm.845-.759h1.469c.307 0 .544-.067.71-.201a.679.679 0 00.26-.567c0-.25-.087-.442-.26-.576-.166-.135-.403-.202-.71-.202h-1.47v1.546zm0-2.295h1.44c.269 0 .48-.064.634-.192.16-.128.24-.307.24-.537 0-.231-.077-.41-.23-.538-.154-.135-.369-.202-.644-.202h-1.44v1.469zm6.57 3.121c-.557 0-1.014-.118-1.373-.355a1.412 1.412 0 01-.634-.961h.913c.044.161.163.292.355.394.198.103.445.154.739.154h.452c.313 0 .556-.074.729-.221a.707.707 0 00.269-.576c0-.256-.086-.458-.259-.605-.167-.147-.413-.221-.739-.221h-1.162v-.749h1.133c.294 0 .518-.07.672-.211a.723.723 0 00.23-.557.728.728 0 00-.105-.403.615.615 0 00-.298-.25 1.235 1.235 0 00-.49-.086h-.48a1.23 1.23 0 00-.662.172c-.186.116-.298.256-.336.423h-.913c.064-.397.272-.723.624-.98.353-.256.781-.384 1.287-.384h.48c.378 0 .701.061.97.183.269.115.474.281.615.499.147.218.221.477.221.778 0 .314-.103.573-.308.778-.205.198-.493.31-.864.336v.038c.455.032.784.154.989.365.205.211.307.515.307.912 0 .468-.173.839-.518 1.114-.346.275-.81.413-1.392.413h-.452zm5.476.029c-.557 0-.996-.141-1.316-.423-.32-.288-.48-.675-.48-1.162 0-.492.16-.88.48-1.161.32-.282.753-.423 1.297-.423h1.632v-.528c0-.327-.099-.576-.298-.749-.192-.179-.467-.269-.825-.269-.314 0-.577.067-.788.202a.718.718 0 00-.365.528h-.864c.058-.455.272-.816.643-1.085.372-.269.836-.403 1.393-.403.608 0 1.088.156 1.44.47.352.314.528.739.528 1.277v3.63h-.845v-1.008h-.144l.144-.144c0 .384-.15.688-.451.912-.295.224-.688.336-1.181.336zm.211-.682c.41 0 .746-.102 1.008-.307a.956.956 0 00.394-.788v-.749h-1.613c-.288 0-.515.08-.682.24-.166.161-.25.378-.25.653 0 .295.1.529.298.701.205.167.487.25.845.25zm3.959.586v-5.281h.825v2.88c0 .186-.006.381-.019.586-.006.205-.019.4-.038.586a6.326 6.326 0 01-.048.461l2.132-4.513h1.104v5.281h-.826v-2.881c0-.186.003-.381.01-.586.012-.204.028-.4.048-.585l.048-.471-2.132 4.523h-1.104zm5.514 0v-5.281h1.171l.692 2.026c.07.204.134.409.192.614.057.199.099.352.125.461.025-.109.064-.262.115-.461.057-.205.118-.413.182-.624l.653-2.016h1.172v5.281h-.836v-.816c0-.288.003-.602.01-.941l.019-1.028.038-.979c.013-.314.023-.589.029-.826l-.941 3.005h-.912l-.951-2.986c.013.288.023.647.029 1.076.013.428.023.877.029 1.344.013.467.019.912.019 1.335v.816h-.835zm7.838.077c-.423 0-.788-.08-1.095-.24a1.745 1.745 0 01-.72-.692c-.167-.307-.25-.669-.25-1.085v-1.402c0-.422.083-.784.25-1.085.173-.301.413-.531.72-.691.307-.16.672-.24 1.095-.24.422 0 .787.08 1.094.24.308.16.544.39.711.691.173.301.259.66.259 1.076v1.411c0 .416-.086.778-.259 1.085a1.683 1.683 0 01-.711.692c-.307.16-.672.24-1.094.24zm0-.769c.377 0 .672-.105.883-.316.211-.212.317-.522.317-.932v-1.402c0-.409-.106-.72-.317-.931-.211-.211-.506-.317-.883-.317-.372 0-.666.106-.884.317-.211.211-.317.522-.317.931v1.402c0 .41.106.72.317.932.218.211.512.316.884.316zm3.094 2.036v-2.084h.432c.109-.108.221-.323.336-.643.122-.32.186-.726.192-1.219l.058-2.679h3.447v4.541h.672v2.084h-.768v-1.344h-3.601v1.344h-.768zm1.344-2.084h2.257v-3.773h-1.767l-.038 1.93c-.007.506-.061.915-.164 1.229-.102.314-.198.518-.288.614zm6.936.836c-.417 0-.781-.083-1.095-.25a1.805 1.805 0 01-.72-.701 2.195 2.195 0 01-.25-1.066v-1.44c0-.41.083-.765.25-1.066.173-.301.413-.534.72-.701a2.306 2.306 0 011.095-.249c.416 0 .777.083 1.085.249.313.167.553.4.72.701.173.301.259.656.259 1.066v.931h-3.284v.509c0 .416.106.737.317.961.211.217.512.326.903.326.332 0 .601-.058.806-.173a.763.763 0 00.375-.538h.864a1.473 1.473 0 01-.653 1.057c-.371.256-.836.384-1.392.384zm1.219-3.102v-.355c0-.416-.106-.736-.317-.96-.205-.224-.506-.336-.902-.336-.391 0-.692.112-.903.336-.211.224-.317.544-.317.96v.278h2.506l-.067.077zm2.489 3.006v-5.281h.826v2.88c0 .186-.006.381-.019.586-.006.205-.019.4-.038.586a6.326 6.326 0 01-.048.461l2.131-4.513h1.105v5.281h-.826v-2.881c0-.186.003-.381.009-.586.013-.204.029-.4.048-.585l.048-.471-2.131 4.523h-1.105zm2.017-6.146c-.461 0-.832-.128-1.114-.384-.282-.256-.422-.592-.422-1.008h.681c0 .25.077.451.231.605.153.154.358.23.614.23.263 0 .471-.076.624-.23a.8.8 0 00.24-.605h.682c0 .416-.141.752-.422 1.008-.282.256-.653.384-1.114.384zm5.668 6.242a2.46 2.46 0 01-1.114-.24 1.73 1.73 0 01-.73-.692c-.173-.307-.259-.669-.259-1.085v-1.44c0-.422.086-.784.259-1.085.173-.301.416-.531.73-.691.32-.16.691-.24 1.114-.24.608 0 1.097.163 1.469.489.371.327.566.772.585 1.335h-.864c-.019-.339-.134-.599-.345-.778-.205-.185-.487-.278-.845-.278-.378 0-.679.109-.903.326-.224.211-.336.516-.336.912v1.45c0 .397.112.705.336.922.224.218.525.327.903.327.358 0 .64-.093.845-.279.211-.185.326-.445.345-.778h.864c-.019.564-.214 1.009-.585 1.335-.372.327-.861.49-1.469.49zm5.235-.096v-4.523h-1.92v-.758h4.705v.758h-1.921v4.523h-.864zm4.141 0v-5.281h2.286c.55 0 .976.124 1.277.374.301.243.451.586.451 1.028 0 .364-.125.659-.374.883-.25.218-.58.326-.99.326v-.076c.449 0 .807.112 1.076.336.275.224.413.525.413.902 0 .474-.16.845-.48 1.114-.32.263-.768.394-1.345.394h-2.314zm.845-.759h1.469c.308 0 .545-.067.711-.201.173-.135.259-.324.259-.567 0-.25-.086-.442-.259-.576-.166-.135-.403-.202-.711-.202h-1.469v1.546zm0-2.295h1.441c.268 0 .48-.064.633-.192.16-.128.24-.307.24-.537 0-.231-.076-.41-.23-.538-.154-.135-.368-.202-.643-.202h-1.441v1.469zm4.842 3.054v-5.281h.826v2.88c0 .186-.006.381-.019.586-.007.205-.019.4-.039.586a5.376 5.376 0 01-.048.461l2.132-4.513h1.104v5.281h-.825v-2.881c0-.186.003-.381.009-.586.013-.204.029-.4.048-.585l.048-.471-2.132 4.523h-1.104zm5.361 0l1.354-2.036c-.404-.096-.717-.282-.941-.557-.218-.275-.327-.618-.327-1.027 0-.519.17-.925.509-1.22.346-.294.816-.441 1.412-.441h2.275v5.281h-.864v-1.969h-1.162l-1.248 1.969h-1.008zm2.007-2.737h1.411v-1.776h-1.411c-.321 0-.573.08-.759.24-.186.153-.278.371-.278.653 0 .275.092.493.278.653.186.153.438.23.759.23zM16.9 137.147a2.46 2.46 0 01-1.114-.24 1.73 1.73 0 01-.73-.692c-.173-.307-.259-.669-.259-1.085v-1.44c0-.422.086-.784.26-1.085.172-.301.415-.531.729-.691.32-.16.691-.24 1.114-.24.608 0 1.098.163 1.469.489.371.327.567.772.586 1.335h-.864c-.02-.339-.135-.599-.346-.778-.205-.185-.487-.278-.845-.278-.378 0-.679.109-.903.326-.224.211-.336.516-.336.912v1.45c0 .397.112.705.336.922.224.218.525.327.903.327.358 0 .64-.093.845-.279.211-.185.326-.445.345-.778h.865c-.02.564-.215 1.009-.586 1.335-.371.327-.861.49-1.47.49zm9.405-.096v-5.281h.864v2.179h.903l1.537-2.179h.988l-1.776 2.515 1.805 2.766h-1.008l-1.536-2.353h-.913v2.353h-.864zm4.996.067v-.807h.173c.294 0 .499-.115.614-.345.122-.231.186-.644.192-1.239l.058-2.957h3.581v5.281h-.864v-4.494h-1.862l-.048 2.208c-.013.557-.077 1.009-.193 1.354-.108.346-.281.599-.518.759-.23.16-.535.24-.912.24H31.3zm6.35-.067v-5.281h.825v2.88c0 .186-.006.381-.019.586a8.2 8.2 0 01-.038.586 6.11 6.11 0 01-.048.461l2.131-4.513h1.104v5.281h-.825v-2.881c0-.186.003-.381.01-.586.012-.204.028-.4.047-.585l.048-.471-2.131 4.523H37.65zm7.664.096c-.416 0-.78-.083-1.094-.25a1.803 1.803 0 01-.72-.701 2.2 2.2 0 01-.25-1.066v-1.44c0-.41.083-.765.25-1.066a1.81 1.81 0 01.72-.701 2.307 2.307 0 011.094-.249c.416 0 .778.083 1.085.249.314.167.554.4.72.701.173.301.26.656.26 1.066v.931h-3.284v.509c0 .416.106.737.317.961.211.217.512.326.902.326.333 0 .602-.058.807-.173a.762.762 0 00.374-.538h.865a1.473 1.473 0 01-.653 1.057c-.372.256-.836.384-1.393.384zm1.22-3.102v-.355c0-.416-.106-.736-.317-.96-.205-.224-.506-.336-.903-.336-.39 0-.691.112-.902.336-.211.224-.317.544-.317.96v.278h2.506l-.067.077zm2.49 3.006v-5.281h.864v2.198h2.227v-2.198h.864v5.281h-.864v-2.295H49.89v2.295h-.865zm7.232 0v-4.523h-1.92v-.758h4.705v.758h-1.92v4.523h-.865zm5.658.096c-.557 0-.995-.141-1.315-.423-.32-.288-.48-.675-.48-1.162 0-.492.16-.88.48-1.161.32-.282.752-.423 1.296-.423h1.633v-.528c0-.327-.1-.576-.298-.749-.192-.179-.468-.269-.826-.269-.314 0-.576.067-.787.202a.717.717 0 00-.365.528h-.864c.057-.455.272-.816.643-1.085s.835-.403 1.392-.403c.608 0 1.089.156 1.44.47.353.314.529.739.529 1.277v3.63h-.845v-1.008h-.144l.144-.144c0 .384-.15.688-.452.912-.294.224-.688.336-1.18.336zm.212-.682c.41 0 .745-.102 1.008-.307a.957.957 0 00.394-.788v-.749h-1.614c-.288 0-.515.08-.681.24-.167.161-.25.378-.25.653 0 .295.1.529.298.701.204.167.486.25.845.25zm3.785.586v-5.281h1.172l.691 2.026c.07.204.134.409.192.614.058.199.1.352.125.461.026-.109.064-.262.115-.461.058-.205.119-.413.183-.624l.653-2.016h1.171v5.281h-.835v-.816c0-.288.003-.602.01-.941l.019-1.028c.012-.346.025-.672.038-.979.013-.314.022-.589.029-.826l-.941 3.005h-.913l-.95-2.986c.013.288.022.647.029 1.076.013.428.022.877.028 1.344.013.467.02.912.02 1.335v.816h-.836zm5.86 0v-5.281h.826v2.88c0 .186-.007.381-.02.586-.006.205-.019.4-.038.586a6.11 6.11 0 01-.048.461l2.132-4.513h1.104v5.281h-.826v-2.881c0-.186.004-.381.01-.586.013-.204.029-.4.048-.585l.048-.471-2.132 4.523h-1.104zm7.665.096c-.243 0-.438-.071-.586-.211-.14-.141-.21-.33-.21-.567 0-.25.07-.448.21-.595.148-.148.343-.221.586-.221.243 0 .435.073.576.221.147.147.221.345.221.595 0 .237-.074.426-.22.567-.142.14-.334.211-.577.211zM14.48 17l1.825-7.01h1.161L19.281 17h-.874l-.46-1.863h-2.123L15.364 17h-.884zm1.517-2.593h1.767l-.538-2.16c-.102-.41-.182-.752-.24-1.027a13.373 13.373 0 01-.105-.538c-.013.083-.048.262-.106.537-.058.276-.138.615-.24 1.018l-.538 2.17zM20.59 17v-5.281h2.285c.55 0 .976.125 1.277.374.3.243.451.586.451 1.028 0 .365-.125.66-.374.883-.25.218-.58.327-.99.327v-.077c.449 0 .807.112 1.076.336.275.224.413.525.413.902 0 .474-.16.845-.48 1.114-.32.263-.768.394-1.344.394H20.59zm.845-.759h1.469c.307 0 .544-.067.71-.201a.677.677 0 00.26-.567c0-.25-.087-.441-.26-.576-.166-.134-.403-.202-.71-.202h-1.47v1.546zm0-2.294h1.44c.269 0 .48-.064.634-.192a.652.652 0 00.24-.538c0-.23-.077-.41-.23-.538-.154-.134-.369-.202-.644-.202h-1.44v1.47zM27.822 17v-4.523h-1.92v-.758h4.705v.758h-1.92V17h-.865zm6.12.077c-.423 0-.788-.08-1.095-.24a1.743 1.743 0 01-.72-.692c-.167-.307-.25-.668-.25-1.085v-1.402c0-.422.083-.784.25-1.085.172-.3.413-.53.72-.691.307-.16.672-.24 1.094-.24.423 0 .788.08 1.095.24.307.16.544.39.71.691.173.301.26.66.26 1.076v1.411c0 .416-.087.778-.26 1.085a1.68 1.68 0 01-.71.692c-.307.16-.672.24-1.095.24zm0-.768c.377 0 .672-.106.883-.317.211-.212.317-.522.317-.932v-1.402c0-.41-.106-.72-.317-.931-.211-.211-.506-.317-.884-.317-.37 0-.665.106-.883.317-.211.211-.317.522-.317.931v1.402c0 .41.106.72.317.932.218.211.512.317.883.317zm3.69 2.42v-7.01h.863v1.008h.173l-.173.202c0-.404.132-.72.394-.95.269-.238.621-.356 1.056-.356.532 0 .954.176 1.268.528.32.346.48.822.48 1.43v1.547c0 .403-.074.752-.22 1.046a1.57 1.57 0 01-.606.682c-.256.16-.563.24-.922.24-.429 0-.778-.118-1.046-.355-.27-.237-.404-.554-.404-.95l.173.2h-.192l.02 1.201v1.536h-.865zm2.025-2.382c.365 0 .65-.109.855-.326.211-.218.317-.532.317-.941v-1.44c0-.41-.106-.724-.317-.942-.205-.217-.49-.326-.855-.326-.352 0-.633.112-.845.336-.211.224-.317.534-.317.931v1.44c0 .397.106.708.317.932.212.224.493.336.845.336zm5.678.749a2.46 2.46 0 01-1.114-.24 1.73 1.73 0 01-.73-.691c-.173-.308-.26-.67-.26-1.085v-1.44c0-.423.087-.785.26-1.086.173-.3.416-.531.73-.691.32-.16.691-.24 1.114-.24.608 0 1.097.163 1.469.49.371.326.566.77.585 1.334h-.864c-.019-.34-.134-.598-.345-.778-.205-.185-.487-.278-.845-.278-.378 0-.679.109-.903.326-.224.212-.336.516-.336.913v1.45c0 .396.112.704.336.921.224.218.525.327.903.327.358 0 .64-.093.845-.279.21-.185.326-.444.345-.777h.864c-.019.563-.214 1.008-.585 1.334-.372.327-.861.49-1.47.49zM49.053 17v-5.281h.864v2.18h.903l1.536-2.18h.99l-1.777 2.516L53.374 17h-1.008l-1.536-2.352h-.913V17h-.864zm5.658 0v-5.281h.826v2.88c0 .186-.006.381-.02.586-.006.205-.018.4-.038.586a6.09 6.09 0 01-.048.46l2.132-4.512h1.104V17h-.825v-2.88c0-.186.003-.381.01-.586.012-.205.028-.4.047-.586l.048-.47L55.815 17h-1.104zm5.687 0v-5.281h.826v2.88c0 .186-.006.381-.02.586-.006.205-.018.4-.038.586-.012.18-.028.333-.048.46l2.132-4.512h1.104V17h-.825v-2.88c0-.186.003-.381.01-.586.012-.205.028-.4.047-.586l.048-.47L61.502 17h-1.104zm2.017-6.145c-.461 0-.833-.128-1.114-.385-.282-.256-.423-.592-.423-1.008h.682c0 .25.077.452.23.605.154.154.359.23.615.23.262 0 .47-.076.624-.23a.8.8 0 00.24-.605h.682c0 .416-.14.752-.422 1.008-.282.257-.654.385-1.114.385zM71.599 17v-5.281h1.172l.691 2.026c.07.205.135.41.192.614.058.199.1.352.125.461.026-.109.064-.262.115-.46.058-.205.119-.413.183-.625l.653-2.016h1.17V17h-.835v-.816c0-.288.003-.602.01-.941l.018-1.028.039-.98c.013-.313.022-.588.029-.825l-.941 3.006h-.913l-.95-2.987c.013.288.022.647.029 1.076.012.429.022.877.028 1.344.013.467.02.912.02 1.335V17h-.836zm7.838.096a2.3 2.3 0 01-1.095-.25 1.806 1.806 0 01-.72-.7 2.202 2.202 0 01-.25-1.066v-1.44c0-.41.084-.766.25-1.067.173-.3.413-.534.72-.7.314-.167.679-.25 1.095-.25.416 0 .778.083 1.085.25.314.166.554.4.72.7.173.301.26.656.26 1.066v.932h-3.284v.509c0 .416.105.736.316.96.212.217.513.326.903.326.333 0 .602-.057.807-.173a.76.76 0 00.374-.537h.864a1.47 1.47 0 01-.653 1.056c-.37.256-.835.384-1.392.384zm1.22-3.101v-.356c0-.416-.106-.736-.317-.96-.205-.224-.506-.336-.903-.336-.39 0-.691.112-.903.336-.21.224-.316.544-.316.96v.279h2.506l-.068.077zM84.691 17v-4.523h-1.92v-.758h4.704v.758h-1.92V17h-.864zm6.119.077c-.423 0-.787-.08-1.095-.24a1.743 1.743 0 01-.72-.692c-.166-.307-.25-.668-.25-1.085v-1.402c0-.422.084-.784.25-1.085.173-.3.413-.53.72-.691.308-.16.672-.24 1.095-.24.422 0 .787.08 1.095.24.307.16.544.39.71.691.173.301.26.66.26 1.076v1.411c0 .416-.087.778-.26 1.085a1.68 1.68 0 01-.71.692c-.308.16-.672.24-1.095.24zm0-.768c.378 0 .672-.106.883-.317.212-.212.317-.522.317-.932v-1.402c0-.41-.105-.72-.317-.931-.21-.211-.505-.317-.883-.317-.371 0-.666.106-.883.317-.212.211-.317.522-.317.931v1.402c0 .41.105.72.317.932.217.211.512.317.883.317zm3.094 2.035v-2.083h.432c.11-.11.221-.324.337-.644.121-.32.185-.726.191-1.22l.058-2.678h3.447v4.542h.672v2.083h-.768V17h-3.6v1.344h-.769zm1.345-2.083h2.256v-3.774H95.74l-.038 1.93c-.006.506-.06.915-.163 1.23-.103.313-.199.518-.288.614zm10.625 2.467v-7.01h.864v1.009h.173l-.173.202c0-.404.131-.72.393-.95.269-.238.621-.356 1.057-.356.531 0 .953.176 1.267.528.32.346.48.822.48 1.43v1.547c0 .403-.073.752-.221 1.046a1.56 1.56 0 01-.605.682c-.256.16-.563.24-.921.24-.429 0-.778-.118-1.047-.355-.269-.237-.403-.554-.403-.95l.173.2h-.192l.019 1.201v1.536h-.864zm2.026-2.38c.364 0 .649-.11.854-.327.211-.218.317-.532.317-.941v-1.44c0-.41-.106-.724-.317-.942-.205-.217-.49-.326-.854-.326-.352 0-.634.112-.845.336-.212.224-.317.534-.317.931v1.44c0 .397.105.708.317.932.211.224.493.336.845.336zm5.197.748c-.557 0-.996-.14-1.316-.422-.32-.288-.48-.676-.48-1.162 0-.493.16-.88.48-1.162.32-.282.753-.423 1.297-.423h1.632V13.4c0-.326-.099-.576-.298-.749-.192-.179-.467-.269-.825-.269-.314 0-.577.068-.788.202a.718.718 0 00-.365.528h-.864c.058-.454.272-.816.643-1.085.372-.269.836-.403 1.393-.403.608 0 1.088.157 1.44.47.352.314.528.74.528 1.277V17h-.845v-1.008h-.144l.144-.144c0 .384-.15.688-.451.912-.295.224-.688.336-1.181.336zm.211-.682c.41 0 .746-.102 1.008-.307a.955.955 0 00.394-.787v-.75h-1.613c-.288 0-.515.08-.682.24-.166.16-.25.378-.25.654 0 .294.1.528.298.7.205.167.487.25.845.25zm5.937.682c-.621 0-1.114-.182-1.479-.547-.359-.372-.538-.877-.538-1.517V12.63c0-.845.211-1.495.634-1.95.422-.46 1.027-.69 1.815-.69h1.344v.864h-1.344c-.519 0-.912.153-1.181.46-.269.301-.404.74-.404 1.316v.624h.135l-.135.192c.007-.377.135-.672.385-.883.249-.212.588-.317 1.017-.317.557 0 .989.18 1.297.538.313.358.47.851.47 1.478v.769c0 .428-.08.796-.24 1.104a1.68 1.68 0 01-.691.71c-.301.167-.663.25-1.085.25zm0-.768c.371 0 .656-.112.854-.336.199-.224.298-.544.298-.96v-.769c0-.416-.099-.736-.298-.96-.198-.224-.483-.336-.854-.336-.372 0-.656.112-.855.336-.198.218-.298.538-.298.96v.769c0 .416.1.736.298.96.199.224.483.336.855.336zm5.687.749c-.423 0-.788-.08-1.095-.24a1.745 1.745 0 01-.72-.692c-.167-.307-.25-.668-.25-1.085v-1.402c0-.422.083-.784.25-1.085.173-.3.413-.53.72-.691.307-.16.672-.24 1.095-.24.422 0 .787.08 1.094.24.308.16.544.39.711.691.173.301.259.66.259 1.076v1.411c0 .416-.086.778-.259 1.085a1.683 1.683 0 01-.711.692c-.307.16-.672.24-1.094.24zm0-.768c.377 0 .672-.106.883-.317.211-.212.317-.522.317-.932v-1.402c0-.41-.106-.72-.317-.931-.211-.211-.506-.317-.883-.317-.372 0-.666.106-.884.317-.211.211-.317.522-.317.931v1.402c0 .41.106.72.317.932.218.211.512.317.884.317zm5.254.691v-4.523h-1.92v-.758h4.705v.758h-1.92V17h-.865zm3.863 0v-5.281h.807v1.94h.432c.569 0 1.018.15 1.344.45.333.295.499.702.499 1.22 0 .519-.166.928-.499 1.23-.326.294-.775.441-1.344.441h-1.239zm.807-.691h.432c.339 0 .601-.087.787-.26.192-.172.288-.412.288-.72 0-.307-.096-.547-.288-.72-.186-.173-.448-.26-.787-.26h-.432v1.96zm2.899.691v-5.281h.807V17h-.807zM16.9 36.096a2.46 2.46 0 01-1.114-.24 1.73 1.73 0 01-.73-.691c-.173-.308-.259-.67-.259-1.085v-1.44c0-.423.086-.785.26-1.086.172-.3.415-.531.729-.691.32-.16.691-.24 1.114-.24.608 0 1.098.163 1.469.49.371.326.567.77.586 1.334h-.864c-.02-.34-.135-.598-.346-.778-.205-.185-.487-.278-.845-.278-.378 0-.679.109-.903.326-.224.212-.336.516-.336.913v1.45c0 .397.112.704.336.921.224.218.525.327.903.327.358 0 .64-.093.845-.279.211-.185.326-.444.345-.777h.865c-.02.563-.215 1.008-.586 1.334-.371.327-.861.49-1.47.49zm10.894 0c-.557 0-.996-.14-1.316-.422-.32-.288-.48-.676-.48-1.162 0-.493.16-.88.48-1.162.32-.282.752-.423 1.296-.423h1.633V32.4c0-.326-.1-.576-.298-.749-.192-.179-.467-.269-.826-.269-.313 0-.576.068-.787.202a.717.717 0 00-.365.528h-.864c.058-.454.272-.816.643-1.085.372-.269.836-.403 1.393-.403.608 0 1.088.157 1.44.47.352.314.528.74.528 1.277V36h-.845v-1.008h-.144l.144-.144c0 .384-.15.688-.451.912-.295.224-.688.336-1.181.336zm.21-.682c.41 0 .747-.102 1.01-.307a.956.956 0 00.393-.787v-.75h-1.613c-.288 0-.516.08-.682.24-.167.16-.25.378-.25.654 0 .294.1.528.298.7.205.167.486.25.845.25zm4.766 2.314l.778-2.055-1.959-4.954h.96l1.23 3.264c.044.11.086.24.124.394l.096.375.096-.375a4.53 4.53 0 01.115-.394l1.153-3.264h.931l-2.602 7.01h-.922zm4.266-.384v-2.083h.432c.109-.11.22-.324.336-.644.122-.32.186-.726.192-1.22l.058-2.678H41.5v4.542h.672v2.083h-.768V36h-3.601v1.344h-.768zm1.344-2.083h2.257v-3.774H38.87l-.038 1.93c-.007.506-.061.915-.164 1.23-.102.313-.198.518-.288.614zm4.957.739v-5.281h.826v2.88c0 .186-.006.381-.02.586-.005.205-.018.4-.038.586a6.09 6.09 0 01-.047.46l2.131-4.512h1.104V36h-.825v-2.88c0-.186.003-.381.01-.586.012-.205.028-.4.047-.586l.048-.47L44.442 36h-1.105zm7.233 0v-4.523h-1.92v-.758h4.705v.758h-1.92V36h-.865zm6.12.077c-.423 0-.788-.08-1.095-.24a1.743 1.743 0 01-.72-.692c-.167-.307-.25-.669-.25-1.085v-1.402c0-.422.083-.784.25-1.085.172-.3.412-.53.72-.691.307-.16.672-.24 1.094-.24.423 0 .788.08 1.095.24.307.16.544.39.71.691.173.301.26.66.26 1.076v1.411c0 .416-.087.778-.26 1.085a1.68 1.68 0 01-.71.692c-.307.16-.672.24-1.095.24zm0-.768c.377 0 .671-.106.883-.317.21-.211.317-.522.317-.932v-1.402c0-.41-.106-.72-.317-.931-.212-.211-.506-.317-.884-.317-.371 0-.666.106-.883.317-.211.211-.317.522-.317.931v1.402c0 .41.106.72.317.932.218.211.512.317.883.317zm3.689 2.42v-7.01h.864v1.008h.173l-.173.202c0-.404.131-.72.394-.95.269-.238.62-.356 1.056-.356.531 0 .954.176 1.268.528.32.346.48.823.48 1.43v1.547c0 .403-.074.752-.221 1.046a1.57 1.57 0 01-.605.682c-.256.16-.563.24-.922.24-.429 0-.778-.118-1.046-.355-.27-.237-.404-.554-.404-.95l.173.2h-.192l.02 1.201v1.536h-.865zm2.026-2.382c.365 0 .65-.109.855-.326.21-.218.317-.532.317-.941v-1.44c0-.41-.106-.724-.317-.942-.205-.217-.49-.326-.855-.326-.352 0-.634.112-.845.336-.211.224-.317.534-.317.931v1.44c0 .398.106.708.317.932.211.224.493.336.845.336zm3.68.653v-5.281h.826v2.88c0 .186-.007.381-.02.586-.006.205-.019.4-.038.586a6.09 6.09 0 01-.048.46l2.132-4.512h1.104V36h-.826v-2.88c0-.186.004-.381.01-.586.013-.205.029-.4.048-.586l.048-.47L67.19 36h-1.104zm7.665.096c-.416 0-.78-.083-1.094-.25a1.807 1.807 0 01-.72-.7 2.203 2.203 0 01-.25-1.066v-1.44c0-.41.083-.766.25-1.067.172-.3.412-.534.72-.7a2.29 2.29 0 011.094-.25c.416 0 .778.083 1.085.25.314.166.554.4.72.7.173.301.26.657.26 1.066v.932H72.53v.509c0 .416.105.736.316.96.212.217.513.326.903.326.333 0 .602-.057.807-.173a.76.76 0 00.374-.537h.864a1.47 1.47 0 01-.653 1.056c-.37.256-.835.384-1.392.384zm1.22-3.101v-.356c0-.416-.106-.736-.317-.96-.205-.224-.506-.336-.903-.336-.39 0-.691.112-.903.336-.21.224-.316.544-.316.96v.279h2.506l-.067.077zM77.459 36v-5.281h.826v2.88c0 .186-.007.381-.02.586-.006.205-.019.4-.038.586a6.09 6.09 0 01-.048.46l2.132-4.512h1.104V36h-.826v-2.88c0-.186.004-.381.01-.586.013-.205.029-.4.048-.586l.048-.47L78.563 36H77.46zm2.016-6.145c-.46 0-.832-.128-1.113-.384-.282-.256-.423-.593-.423-1.009h.682c0 .25.077.452.23.605.154.154.359.23.615.23.262 0 .47-.076.624-.23a.8.8 0 00.24-.605h.682c0 .416-.141.753-.423 1.009-.281.256-.653.384-1.114.384zm5.649 2.208c-.237 0-.429-.064-.576-.192a.682.682 0 01-.221-.528c0-.218.074-.39.22-.519a.826.826 0 01.577-.201c.243 0 .435.067.576.201a.653.653 0 01.221.519.681.681 0 01-.22.528c-.142.128-.334.192-.577.192zm0 4.033c-.237 0-.429-.064-.576-.192a.682.682 0 01-.221-.528c0-.218.074-.39.22-.519a.826.826 0 01.577-.201c.243 0 .435.067.576.201a.653.653 0 01.221.519.681.681 0 01-.22.528c-.142.128-.334.192-.577.192z" fill="#fff"/><defs><filter id="filter0_d_440_472" x=".28" y="0" width="179.561" height="178.6" filterUnits="userSpaceOnUse" color-interpolation-filters="sRGB"><feFlood flood-opacity="0" result="BackgroundImageFix"/><feColorMatrix in="SourceAlpha" values="0 0 0 0 0 0 0 0 0 0 0 0 0 0 0 0 0 0 127 0" result="hardAlpha"/><feOffset dy="3.841"/><feGaussianBlur stdDeviation="1.92"/><feComposite in2="hardAlpha" operator="out"/><feColorMatrix values="0 0 0 0 0 0 0 0 0 0 0 0 0 0 0 0 0 0 0.25 0"/><feBlend in2="BackgroundImageFix" result="effect1_dropShadow_440_472"/><feBlend in="SourceGraphic" in2="effect1_dropShadow_440_472" result="shape"/></filter></defs></svg>