<svg width="181" height="180" fill="none" xmlns="http://www.w3.org/2000/svg"><g filter="url(#filter0_d_440_381)"><rect x="4" width="172.85" height="171.884" rx="16.094" fill="#223B38"/></g><mask id="a" style="mask-type:alpha" maskUnits="userSpaceOnUse" x="4" y="0" width="173" height="43"><path fill="#C9D9CD" d="M4 0h172.85v42.488H4z"/></mask><g mask="url(#a)"><rect x="4" y="-1.699" width="172.85" height="118.967" rx="16.094" fill="#46767D"/></g><path d="M14.936 61.379c-.425 0-.796-.08-1.11-.242a1.753 1.753 0 01-.725-.695c-.168-.309-.251-.673-.251-1.091v-3.187c0-.425.084-.788.25-1.09.175-.303.416-.535.725-.696.316-.161.686-.242 1.11-.242.425 0 .792.084 1.101.252.31.16.548.392.715.695.167.302.251.663.251 1.081h-.869c0-.399-.106-.705-.319-.917-.206-.219-.499-.328-.878-.328-.38 0-.68.106-.899.318-.212.213-.318.518-.318.918v3.196c0 .4.106.708.319.927.218.212.518.319.898.319s.672-.107.878-.319c.213-.219.319-.528.319-.927h.869c0 .412-.084.773-.251 1.081a1.753 1.753 0 01-.715.705c-.309.161-.676.242-1.1.242zm5.68-.02c-.425 0-.792-.08-1.1-.24a1.754 1.754 0 01-.725-.696c-.167-.31-.251-.673-.251-1.091v-1.41c0-.425.084-.789.25-1.091.175-.303.416-.535.725-.696.31-.16.676-.241 1.101-.241.425 0 .792.08 1.1.241.31.161.548.393.715.696.174.302.261.663.261 1.081v1.42c0 .418-.087.782-.26 1.09a1.692 1.692 0 01-.715.696c-.31.161-.676.241-1.101.241zm0-.772c.38 0 .676-.106.888-.319.213-.212.32-.524.32-.936v-1.41c0-.412-.107-.724-.32-.937-.212-.212-.508-.319-.888-.319-.373 0-.67.107-.888.32-.213.212-.319.524-.319.936v1.41c0 .412.106.724.319.936.218.213.515.319.888.319zm5.468.763c-.56 0-1.02-.12-1.38-.358a1.42 1.42 0 01-.638-.965h.917c.045.16.164.293.357.396.2.103.448.154.744.154h.454c.315 0 .56-.074.734-.222a.714.714 0 00.27-.58c0-.257-.087-.46-.26-.608-.168-.148-.416-.222-.744-.222h-1.169v-.753h1.14c.296 0 .521-.07.676-.212a.724.724 0 00.232-.56.731.731 0 00-.107-.406.614.614 0 00-.299-.251 1.249 1.249 0 00-.492-.087h-.483c-.258 0-.48.058-.667.174-.186.116-.299.257-.337.425h-.918c.064-.4.274-.728.628-.985.354-.258.785-.386 1.294-.386h.483c.38 0 .705.06.975.183.27.116.476.283.618.502.148.22.222.48.222.782 0 .316-.103.576-.309.782-.206.2-.496.313-.87.339v.038c.458.032.79.155.995.367.207.212.31.518.31.917 0 .47-.174.844-.522 1.12-.348.277-.814.416-1.4.416h-.454zm3.363 1.284V60.54h.434c.11-.11.223-.325.338-.647.123-.322.187-.731.194-1.227l.058-2.694h3.466v4.568h.676v2.095h-.772v-1.352h-3.622v1.352h-.772zm1.352-2.095h2.27v-3.795H31.29l-.038 1.94c-.007.51-.061.921-.165 1.237-.103.315-.199.521-.29.618zm6.51.84c-.56 0-1-.142-1.322-.425-.322-.29-.483-.68-.483-1.169 0-.495.16-.885.483-1.168.322-.283.756-.425 1.303-.425h1.642v-.53c0-.33-.1-.58-.3-.754-.192-.18-.47-.27-.83-.27-.315 0-.58.067-.792.202a.721.721 0 00-.367.531h-.869a1.53 1.53 0 01.647-1.09c.374-.271.84-.406 1.4-.406.612 0 1.095.157 1.449.473.354.315.531.743.531 1.284v3.65h-.85v-1.014h-.145l.145-.145c0 .387-.151.693-.453.918-.297.225-.693.338-1.188.338zm.213-.686c.412 0 .75-.103 1.014-.309a.961.961 0 00.396-.792v-.753H37.31c-.29 0-.519.08-.686.242-.167.16-.25.38-.25.656 0 .296.099.531.298.705.206.167.49.251.85.251zm3.315.657v-.811h.174c.296 0 .502-.116.618-.348.122-.232.186-.647.193-1.246l.058-2.974h3.602v5.311h-.87v-4.519H42.74l-.048 2.221c-.013.56-.077 1.014-.193 1.362-.11.347-.283.602-.522.762-.231.161-.537.242-.917.242h-.222zm6.385-.068v-5.31h.83v2.896c0 .187-.006.383-.019.59a8.187 8.187 0 01-.038.588 6.37 6.37 0 01-.049.464l2.144-4.539h1.11v5.311h-.83v-2.897a19 19 0 01.01-.589c.013-.206.029-.402.048-.589l.048-.473-2.143 4.548h-1.11zm13.389.097c-.612 0-1.1-.164-1.468-.493-.367-.328-.56-.775-.58-1.342h.87c.02.335.132.596.338.782.206.187.486.28.84.28.38 0 .673-.11.879-.328.212-.219.318-.528.318-.927v-.386h-1.883v-.773h1.883v-.3c0-.398-.106-.704-.318-.917-.206-.218-.5-.328-.88-.328-.353 0-.633.093-.84.28-.205.18-.318.441-.337.782h-.87c.02-.566.213-1.014.58-1.342.367-.328.856-.492 1.468-.492.431 0 .798.08 1.1.241.31.161.548.393.715.695.168.303.251.667.251 1.092v1.448c0 .418-.083.782-.25 1.091a1.692 1.692 0 01-.715.695c-.303.161-.67.242-1.101.242zm5.371 1.641v-1.738c-.618 0-1.104-.174-1.458-.521-.354-.348-.53-.824-.53-1.43v-1.428c0-.6.176-1.07.53-1.41.36-.348.847-.522 1.458-.522v-1.738h.773v1.738c.618 0 1.104.174 1.458.522.354.34.531.81.531 1.41v1.429c0 .605-.177 1.081-.531 1.429-.354.347-.84.521-1.458.521v1.738h-.773zm.02-2.423v-3.94c-.374 0-.667.11-.879.328-.213.219-.319.525-.319.918v1.429c0 .392.106.701.319.927.212.225.505.338.879.338zm.734 0c.38 0 .672-.113.878-.338.213-.226.319-.535.319-.927v-1.43c0-.392-.106-.698-.319-.917-.206-.219-.499-.328-.878-.328v3.94zM71.7 63.02v-1.738c-.617 0-1.104-.174-1.458-.521-.354-.348-.53-.824-.53-1.43v-1.428c0-.6.176-1.07.53-1.41.36-.348.847-.522 1.459-.522v-1.738h.772v1.738c.618 0 1.104.174 1.458.522.354.34.531.81.531 1.41v1.429c0 .605-.177 1.081-.53 1.429-.355.347-.841.521-1.459.521v1.738H71.7zm.02-2.423v-3.94c-.374 0-.666.11-.879.328-.212.219-.319.525-.319.918v1.429c0 .392.107.701.32.927.212.225.504.338.878.338zm.734 0c.38 0 .672-.113.878-.338.213-.226.32-.535.32-.927v-1.43c0-.392-.107-.698-.32-.917-.206-.219-.498-.328-.878-.328v3.94zm5.352.782c-.419 0-.786-.084-1.101-.251a1.817 1.817 0 01-.724-.705 2.216 2.216 0 01-.251-1.072v-1.448c0-.413.083-.77.25-1.072.175-.303.416-.538.725-.705a2.314 2.314 0 011.1-.251c.42 0 .783.083 1.092.25.315.168.557.403.724.706.174.302.26.66.26 1.072v.936H76.58v.512c0 .418.107.74.32.966.212.218.514.328.907.328.335 0 .605-.058.81-.174a.767.767 0 00.377-.54h.87a1.48 1.48 0 01-.657 1.062c-.373.257-.84.386-1.4.386zm1.226-3.12v-.356c0-.419-.106-.74-.319-.966-.206-.225-.508-.338-.907-.338-.393 0-.695.113-.908.338-.212.225-.319.547-.319.966v.28h2.52l-.067.077zm2.533 3.023v-5.31h.869v2.191h.907l1.545-2.192h.995l-1.786 2.53 1.815 2.781h-1.014l-1.545-2.366h-.917v2.366h-.87zm7.244 0v-4.548h-1.93v-.763h4.73v.763h-1.93v4.548h-.87zm4.165 0v-5.31h.83v2.896c0 .187-.006.383-.019.59a8.79 8.79 0 01-.039.588c-.013.18-.029.335-.048.464l2.144-4.539h1.11v5.311h-.83v-2.897c0-.186.003-.383.01-.589.012-.206.028-.402.048-.589l.048-.473-2.144 4.548h-1.11zm5.719 0v-5.31h2.298c.554 0 .982.125 1.284.376.303.244.454.589.454 1.033 0 .367-.125.663-.376.888-.251.22-.583.329-.995.329v-.078c.451 0 .811.113 1.082.338.276.226.415.528.415.908 0 .477-.161.85-.483 1.12-.322.264-.773.396-1.352.396h-2.327zm.85-.763h1.477c.309 0 .547-.067.715-.202.173-.136.26-.325.26-.57 0-.251-.087-.444-.26-.58-.168-.135-.406-.202-.715-.202h-1.477v1.554zm0-2.307h1.448c.271 0 .483-.065.637-.194a.654.654 0 00.242-.54c0-.232-.077-.412-.232-.541-.154-.135-.37-.203-.647-.203h-1.448v1.477zm4.869 3.07v-5.31h.869v2.21h2.24v-2.21h.869v5.31h-.869v-2.308h-2.24v2.308h-.869zm5.439 0v-5.31h.811v1.95h.435c.573 0 1.023.151 1.352.454.334.296.502.705.502 1.226 0 .522-.168.934-.502 1.236-.329.296-.779.444-1.352.444h-1.246zm.811-.695h.435c.341 0 .605-.087.792-.26.193-.175.289-.416.289-.725s-.096-.55-.289-.724c-.187-.174-.451-.26-.792-.26h-.435v1.969zm2.916.695v-5.31h.812v5.31h-.812zm4.261.097a2.31 2.31 0 01-1.1-.251 1.82 1.82 0 01-.725-.705 2.22 2.22 0 01-.251-1.072v-1.448c0-.413.084-.77.251-1.072a1.82 1.82 0 01.725-.705 2.31 2.31 0 011.1-.251c.419 0 .783.083 1.092.25.315.168.556.403.724.706.174.302.261.66.261 1.072v.936h-3.303v.512c0 .418.106.74.319.966.212.218.515.328.907.328.335 0 .606-.058.812-.174a.766.766 0 00.376-.54h.869a1.481 1.481 0 01-.656 1.062c-.374.257-.841.386-1.401.386zm1.227-3.12v-.356c0-.419-.106-.74-.319-.966-.206-.225-.508-.338-.908-.338-.392 0-.695.113-.907.338-.213.225-.319.547-.319.966v.28h2.52l-.067.077zm8.048 3.023v-5.31h1.179l.695 2.037c.071.206.135.412.193.618.058.2.1.354.126.463.025-.11.064-.264.115-.463.058-.206.119-.416.184-.628l.656-2.028h1.179v5.311h-.841v-.82c0-.29.004-.606.01-.947l.019-1.033.039-.985c.013-.316.023-.592.029-.83l-.946 3.022h-.918l-.956-3.003c.013.29.023.65.029 1.081.013.432.023.882.029 1.352.013.47.02.917.02 1.342v.821h-.841zm7.883.097c-.419 0-.786-.084-1.101-.251a1.811 1.811 0 01-.724-.705 2.209 2.209 0 01-.252-1.072v-1.448c0-.413.084-.77.252-1.072.173-.303.415-.538.724-.705a2.312 2.312 0 011.101-.251c.418 0 .782.083 1.091.25.315.168.557.403.724.706.174.302.261.66.261 1.072v.936h-3.303v.512c0 .418.106.74.319.966.212.218.515.328.908.328.334 0 .605-.058.811-.174a.766.766 0 00.376-.54h.869a1.478 1.478 0 01-.656 1.062c-.374.257-.84.386-1.4.386zm1.226-3.12v-.356c0-.419-.106-.74-.319-.966-.206-.225-.508-.338-.907-.338-.393 0-.696.113-.908.338-.213.225-.319.547-.319.966v.28h2.521l-.068.077zm2.079 3.023l1.883-2.732-1.768-2.579h1.024l1.053 1.642c.045.07.087.148.125.231.045.084.081.152.106.203.02-.051.049-.119.087-.203.045-.083.09-.16.135-.231l1.063-1.642h1.014l-1.768 2.588 1.874 2.723h-1.024l-1.139-1.738a2.703 2.703 0 01-.135-.241 1.994 1.994 0 00-.107-.232 3.222 3.222 0 01-.116.232c-.045.09-.093.17-.144.241l-1.149 1.738h-1.014zm7.669.097c-.56 0-1.001-.142-1.323-.425-.322-.29-.482-.68-.482-1.169 0-.495.16-.885.482-1.168.322-.283.757-.425 1.304-.425h1.642v-.53c0-.33-.1-.58-.3-.754-.193-.18-.47-.27-.83-.27-.316 0-.58.067-.792.202a.72.72 0 00-.367.531h-.869a1.53 1.53 0 01.647-1.09c.373-.271.84-.406 1.4-.406.612 0 1.094.157 1.449.473.354.315.531.743.531 1.284v3.65h-.85v-1.014h-.145l.145-.145c0 .387-.151.693-.454.918-.296.225-.692.338-1.188.338zm.213-.686c.412 0 .75-.103 1.014-.309a.961.961 0 00.396-.792v-.753h-1.623c-.289 0-.518.08-.685.242-.168.16-.251.38-.251.656 0 .296.099.531.299.705.206.167.489.251.85.251zm3.981.59V55.97h.869v2.212h2.24V55.97h.869v5.311h-.869v-2.308h-2.24v2.308h-.869zm5.719 0V55.97h.83v2.897c0 .187-.006.383-.019.59a8.15 8.15 0 01-.039.588c-.013.18-.029.335-.048.464l2.144-4.539h1.11v5.311h-.83v-2.897c0-.186.003-.383.009-.589.013-.206.029-.402.049-.589l.048-.473-2.144 4.548h-1.11zm5.748 0V55.97h.869v2.192h.908l1.545-2.192h.994l-1.786 2.53 1.815 2.781h-1.014l-1.545-2.366h-.917v2.366h-.869zm5.69 0V55.97h.83v2.897c0 .187-.006.383-.019.59a7.618 7.618 0 01-.039.588c-.012.18-.029.335-.048.464l2.144-4.539h1.11v5.311h-.83v-2.897c0-.186.003-.383.01-.589a12.2 12.2 0 01.048-.589l.048-.473-2.144 4.548h-1.11zM12.29 81.633V79.54h.434c.11-.11.222-.325.338-.647.123-.322.187-.731.193-1.227l.058-2.694h3.467v4.568h.676v2.095h-.773v-1.352h-3.62v1.352h-.773zm1.352-2.095h2.269v-3.795h-1.777l-.039 1.94c-.006.51-.06.921-.164 1.237-.103.315-.2.521-.29.618zm4.319.81v-.81h.173c.296 0 .502-.116.618-.348.123-.232.187-.647.193-1.246l.058-2.974h3.602v5.311h-.869v-4.519h-1.873l-.049 2.221c-.012.56-.077 1.014-.193 1.362-.109.347-.283.602-.521.762-.232.161-.538.242-.917.242h-.223zm6.056-.067l1.362-2.047c-.405-.097-.72-.283-.946-.56-.22-.277-.328-.621-.328-1.033 0-.522.17-.93.511-1.227.348-.296.821-.444 1.42-.444h2.288v5.311h-.869v-1.98h-1.168l-1.255 1.98h-1.015zm2.019-2.752h1.42v-1.786h-1.42c-.322 0-.576.08-.763.241-.187.155-.28.374-.28.657 0 .277.093.496.28.656.187.155.44.232.763.232zm9.748 2.752v-5.31h3.979v5.31h-.87v-4.519h-2.24v4.52h-.869zm5.7 1.738V74.97h.869v1.014h.174l-.174.203c0-.406.132-.724.396-.956.27-.238.624-.357 1.062-.357.534 0 .96.177 1.275.53.322.348.483.828.483 1.44v1.554c0 .406-.075.757-.223 1.053a1.58 1.58 0 01-.608.685c-.258.161-.566.242-.927.242-.431 0-.782-.12-1.053-.358-.27-.238-.405-.556-.405-.956l.174.203h-.193l.019 1.207v1.545h-.87zm2.037-2.394c.367 0 .654-.11.86-.329.212-.219.318-.534.318-.946v-1.448c0-.413-.106-.728-.318-.947-.206-.219-.493-.328-.86-.328-.354 0-.637.112-.85.338-.212.225-.318.537-.318.937v1.448c0 .4.106.711.319.937.212.225.495.338.85.338zm3.701.656v-5.31h.83v2.896c0 .187-.006.383-.019.59a8.187 8.187 0 01-.038.588 6.37 6.37 0 01-.049.464l2.144-4.539h1.11v5.311h-.83v-2.897a19 19 0 01.01-.589c.013-.206.029-.402.048-.589l.048-.473-2.143 4.548h-1.11zm5.72 0v-5.31h2.297c.554 0 .982.125 1.285.376.302.244.454.589.454 1.033 0 .367-.126.663-.377.888-.251.22-.583.329-.995.329v-.078c.451 0 .812.113 1.082.339.277.225.415.527.415.907 0 .477-.16.85-.483 1.12-.322.264-.772.396-1.351.396H52.94zm.849-.763h1.478c.309 0 .547-.067.714-.202.174-.136.26-.325.26-.57 0-.251-.086-.444-.26-.58-.167-.135-.405-.202-.714-.202H53.79v1.554zm0-2.308h1.449c.27 0 .482-.064.637-.193.16-.128.241-.309.241-.54 0-.232-.077-.412-.232-.541-.154-.135-.37-.203-.647-.203h-1.448v1.478zm4.203 3.139v-.811h.174c.296 0 .502-.116.618-.348.122-.232.187-.647.193-1.246l.058-2.974h3.602v5.311h-.87v-4.519h-1.873l-.048 2.221c-.013.56-.077 1.014-.193 1.362-.11.347-.283.602-.522.762-.231.161-.537.242-.917.242h-.222zm8.375.029c-.419 0-.786-.084-1.101-.251a1.817 1.817 0 01-.724-.705 2.215 2.215 0 01-.251-1.072v-1.448c0-.413.083-.77.25-1.072.174-.303.416-.538.725-.705a2.314 2.314 0 011.1-.251c.42 0 .783.083 1.092.25.315.168.557.403.724.706.174.302.26.66.26 1.072v.936h-3.302v.512c0 .418.107.74.319.966.212.219.515.328.908.328.334 0 .605-.058.81-.174a.767.767 0 00.377-.54h.87a1.48 1.48 0 01-.657 1.062c-.374.257-.84.386-1.4.386zm1.226-3.12v-.356c0-.419-.106-.74-.319-.966-.206-.225-.508-.338-.907-.338-.393 0-.696.112-.908.338-.212.225-.319.547-.319.966v.28h2.52l-.067.077zm5.555 3.023V78.35a4.21 4.21 0 01-.473.077 6.81 6.81 0 01-.657.03c-.656.006-1.168-.152-1.535-.474-.36-.328-.541-.785-.541-1.371V74.97h.87v1.642c0 .328.109.589.327.782.226.187.535.28.927.28.27 0 .5-.01.686-.029a3.57 3.57 0 00.396-.068V74.97h.869v5.311h-.87zm4.657.097c-.419 0-.786-.084-1.101-.251a1.817 1.817 0 01-.724-.705 2.216 2.216 0 01-.251-1.072v-1.448c0-.413.083-.77.25-1.072.175-.303.416-.538.725-.705a2.314 2.314 0 011.1-.251c.42 0 .783.083 1.092.25.315.168.557.403.724.706.174.302.26.66.26 1.072v.936H76.58v.512c0 .418.107.74.32.966.212.219.514.328.907.328.335 0 .605-.058.81-.174a.767.767 0 00.377-.54h.87a1.48 1.48 0 01-.657 1.062c-.373.257-.84.386-1.4.386zm1.226-3.12v-.356c0-.419-.106-.74-.319-.966-.206-.225-.508-.338-.907-.338-.393 0-.695.112-.908.338-.212.225-.319.547-.319.966v.28h2.52l-.067.077zm2.504 3.023v-5.31h.869v2.21h2.24v-2.21h.87v5.31h-.87v-2.308h-2.24v2.308h-.87zm5.719 0v-5.31h.83v2.896c0 .187-.006.383-.02.59a7.175 7.175 0 01-.038.588c-.013.18-.029.335-.048.464l2.144-4.539h1.11v5.311h-.83v-2.897c0-.186.003-.383.01-.589.012-.206.028-.402.048-.589l.048-.473-2.144 4.548h-1.11zm5.39 0l1.362-2.047c-.405-.097-.72-.283-.946-.56-.22-.277-.329-.621-.329-1.033 0-.522.171-.93.512-1.227.348-.296.821-.444 1.42-.444h2.288v5.311h-.869v-1.98h-1.168l-1.256 1.98h-1.013zm2.019-2.752h1.42v-1.786h-1.42c-.322 0-.577.08-.763.241-.187.155-.28.374-.28.657 0 .277.093.496.28.656.186.155.44.232.763.232zm9.748 2.752v-5.31h.869v2.21h2.24v-2.21h.869v5.31h-.869v-2.308h-2.24v2.308h-.869zm7.708.078c-.425 0-.792-.081-1.101-.242a1.753 1.753 0 01-.724-.695c-.167-.31-.251-.673-.251-1.091v-1.41c0-.425.084-.789.251-1.091.174-.303.415-.535.724-.696.309-.16.676-.241 1.101-.241.425 0 .792.08 1.101.241.309.161.547.393.715.696.174.302.26.663.26 1.081v1.42c0 .418-.086.782-.26 1.09a1.697 1.697 0 01-.715.696c-.309.161-.676.242-1.101.242zm0-.773c.38 0 .676-.106.889-.319.212-.212.318-.524.318-.936v-1.41c0-.412-.106-.724-.318-.937-.213-.212-.509-.319-.889-.319-.373 0-.669.107-.888.32-.213.212-.319.524-.319.936v1.41c0 .412.106.724.319.936.219.213.515.319.888.319zm3.73.695v-5.31h2.298c.554 0 .982.125 1.285.376.302.244.454.589.454 1.033 0 .367-.126.663-.377.888-.251.22-.583.329-.995.329v-.078c.451 0 .811.113 1.082.339.277.225.415.527.415.907 0 .477-.161.85-.483 1.12-.322.264-.772.396-1.352.396h-2.327zm.85-.763h1.477c.309 0 .548-.067.715-.202.174-.136.261-.325.261-.57 0-.251-.087-.444-.261-.58-.167-.135-.406-.202-.715-.202h-1.477v1.554zm0-2.308h1.448c.271 0 .483-.064.638-.193.161-.128.241-.309.241-.54 0-.232-.077-.412-.232-.541-.154-.135-.37-.203-.647-.203h-1.448v1.478zm4.589 3.071v-5.31h.811v1.95h.435c.573 0 1.023.151 1.352.454.335.296.502.705.502 1.226 0 .522-.167.933-.502 1.236-.329.296-.779.444-1.352.444h-1.246zm.811-.695h.435c.341 0 .605-.087.792-.26.193-.175.289-.416.289-.725s-.096-.55-.289-.724c-.187-.174-.451-.26-.792-.26h-.435v1.969zm2.917.695v-5.31h.811v5.31h-.811zm1.846 0l1.883-2.733-1.767-2.578h1.024l1.052 1.642c.046.07.087.148.126.231.045.084.08.152.106.203.02-.051.048-.119.087-.203.045-.083.09-.16.135-.231l1.062-1.642h1.014l-1.767 2.588 1.874 2.723h-1.024l-1.139-1.738a2.697 2.697 0 01-.136-.241 2.013 2.013 0 00-.106-.232 3.709 3.709 0 01-.116.232 1.66 1.66 0 01-.145.241l-1.149 1.738h-1.014zM13.719 102.02l.782-2.066-1.97-4.983h.966l1.236 3.283c.045.11.087.242.125.396l.097.377.096-.377a5.4 5.4 0 01.116-.396l1.16-3.283h.936l-2.617 7.049h-.927zm7.96-1.738v-1.931a4.277 4.277 0 01-.474.077 6.81 6.81 0 01-.657.03c-.656.006-1.168-.152-1.535-.474-.36-.328-.54-.785-.54-1.371V94.97h.868v1.642c0 .328.11.589.329.782.225.187.534.28.927.28.27 0 .499-.01.685-.029.193-.026.325-.048.396-.068V94.97h.87v5.311h-.87zm4.656.097c-.418 0-.785-.084-1.1-.251a1.82 1.82 0 01-.725-.705 2.215 2.215 0 01-.251-1.072v-1.448c0-.413.084-.77.251-1.072.174-.303.415-.538.724-.705a2.314 2.314 0 011.101-.251c.418 0 .782.083 1.091.25.316.168.557.403.725.706.173.302.26.66.26 1.072v.936H25.11v.512c0 .418.106.74.318.966.213.219.515.328.908.328.335 0 .605-.058.811-.174a.767.767 0 00.377-.54h.869a1.48 1.48 0 01-.657 1.062c-.373.257-.84.386-1.4.386zm1.226-3.12v-.356c0-.419-.106-.74-.318-.966-.206-.225-.509-.338-.908-.338-.393 0-.695.112-.908.338-.212.225-.318.547-.318.966v.28h2.52l-.068.077zm2.504 3.023v-5.31h.869v2.21h2.24v-2.21h.87v5.31h-.87v-2.308h-2.24v2.308h-.87zm5.719 0v-5.31h.83v2.896c0 .187-.006.383-.019.59-.006.205-.02.401-.038.588a6.37 6.37 0 01-.049.464l2.144-4.539h1.11v5.311h-.83v-2.897c0-.186.003-.383.01-.589.013-.206.029-.402.048-.589l.048-.473-2.143 4.548h-1.111zm5.748 0v-5.31h.87v2.191h.907l1.545-2.192h.995l-1.787 2.53 1.816 2.781h-1.014l-1.545-2.366H42.4v2.366h-.869zm7.68.077c-.426 0-.792-.08-1.101-.241a1.753 1.753 0 01-.725-.695c-.167-.31-.25-.673-.25-1.091v-1.41c0-.425.083-.789.25-1.091.174-.303.416-.535.725-.696.309-.16.675-.241 1.1-.241.425 0 .792.08 1.101.241.31.161.547.393.715.696.174.302.26.663.26 1.081v1.42c0 .418-.086.782-.26 1.09a1.692 1.692 0 01-.715.696c-.309.161-.676.241-1.1.241zm0-.772c.38 0 .675-.106.888-.319.212-.212.319-.524.319-.936v-1.41c0-.412-.107-.724-.32-.937-.212-.212-.508-.319-.888-.319-.373 0-.67.107-.888.32-.212.212-.319.524-.319.936v1.41c0 .412.107.724.319.936.219.213.515.319.888.319zm3.73.695v-5.31h2.297c.554 0 .982.125 1.285.376.302.244.454.589.454 1.033 0 .367-.126.663-.377.888-.251.22-.583.329-.995.329v-.078c.451 0 .812.113 1.082.339.277.225.415.527.415.907 0 .477-.16.85-.483 1.12-.322.264-.772.396-1.351.396H52.94zm.849-.763h1.478c.309 0 .547-.067.714-.202.174-.136.26-.325.26-.57 0-.251-.086-.444-.26-.58-.167-.135-.405-.202-.714-.202H53.79v1.554zm0-2.308h1.449c.27 0 .482-.064.637-.193.16-.128.241-.309.241-.54 0-.232-.077-.412-.232-.541-.154-.135-.37-.203-.647-.203h-1.448v1.478zm5.555 4.616l.773-3.003h1.255l-1.256 3.003h-.772zm10.753-1.545v-5.31h2.298c.553 0 .981.125 1.284.376.303.244.454.589.454 1.033 0 .367-.126.663-.377.888-.25.22-.582.329-.994.329v-.078c.45 0 .81.113 1.081.339.277.225.415.527.415.907 0 .477-.16.85-.482 1.12-.322.264-.773.396-1.352.396h-2.328zm.85-.763h1.477c.309 0 .547-.067.714-.202.174-.136.261-.325.261-.57 0-.251-.087-.444-.26-.58-.168-.135-.406-.202-.715-.202h-1.478v1.554zm0-2.308h1.448c.27 0 .483-.064.637-.193.161-.128.241-.309.241-.54 0-.232-.077-.412-.231-.541-.155-.135-.37-.203-.647-.203h-1.449v1.478zm4.898 3.071v-5.31h.869v2.191h.907l1.545-2.192h.995l-1.787 2.53 1.816 2.781h-1.014l-1.545-2.366h-.917v2.366h-.87zm5.023.068v-.811h.174c.296 0 .502-.116.618-.348.122-.232.187-.647.193-1.246l.058-2.974h3.602v5.311h-.869v-4.519h-1.873l-.049 2.221c-.013.56-.077 1.014-.193 1.362-.11.347-.283.602-.521.762-.232.161-.538.242-.918.242h-.222zm9.205.029c-.444 0-.801-.151-1.071-.454-.27-.303-.406-.698-.406-1.188v-.801h-.85v2.346h-.801v-5.31h.801v2.269h.85v-.725c0-.496.132-.891.396-1.188.27-.302.63-.453 1.081-.453.477 0 .86.15 1.15.454.29.296.434.692.434 1.187v2.221c0 .49-.145.885-.434 1.188-.29.303-.673.454-1.15.454zm0-.676c.245 0 .435-.084.57-.251.142-.174.213-.412.213-.715v-2.22c0-.303-.071-.538-.213-.706-.135-.174-.325-.26-.57-.26a.67.67 0 00-.56.26c-.135.168-.202.403-.202.705v2.221c0 .303.067.541.202.715a.68.68 0 00.56.25zm5.951.579v-1.931a4.21 4.21 0 01-.473.077c-.206.02-.425.03-.656.03-.657.006-1.169-.152-1.536-.474-.36-.328-.54-.785-.54-1.371V94.97h.868v1.642c0 .328.11.589.329.782.225.187.534.28.927.28.27 0 .499-.01.685-.029.194-.026.325-.048.396-.068V94.97h.87v5.311h-.87zm4.194.097c-.56 0-1.001-.142-1.323-.425-.322-.29-.483-.68-.483-1.168 0-.496.16-.886.483-1.169.322-.283.756-.425 1.303-.425h1.642v-.53c0-.33-.1-.58-.299-.754-.194-.18-.47-.27-.831-.27-.315 0-.579.067-.792.202a.721.721 0 00-.367.531h-.869a1.53 1.53 0 01.647-1.09c.374-.271.84-.406 1.4-.406.612 0 1.095.157 1.449.473.354.315.531.743.531 1.284v3.65h-.85v-1.014h-.145l.145-.144c0 .386-.151.692-.454.917-.296.225-.692.338-1.187.338zm.212-.686c.412 0 .75-.103 1.014-.309a.961.961 0 00.396-.792v-.753h-1.622c-.29 0-.519.08-.686.242-.167.16-.251.38-.251.656 0 .296.1.531.3.705.205.168.489.251.849.251zm3.653.589l1.361-2.047c-.405-.097-.721-.283-.946-.56-.219-.277-.328-.621-.328-1.033 0-.522.17-.93.511-1.227.348-.296.821-.444 1.42-.444h2.288v5.311h-.869v-1.98h-1.168l-1.255 1.98h-1.014zm2.018-2.752h1.419v-1.786h-1.419c-.322 0-.576.08-.763.241-.187.155-.28.374-.28.657 0 .277.093.496.28.656.187.155.441.232.763.232zm-93.215 23.49v-7.049h.87v1.014h.173l-.173.203c0-.406.131-.724.395-.956.27-.238.625-.357 1.063-.357.534 0 .959.177 1.274.531.322.347.483.827.483 1.439v1.554c0 .406-.074.757-.222 1.053a1.58 1.58 0 01-.608.685c-.258.161-.567.242-.927.242-.432 0-.783-.119-1.053-.357-.27-.239-.405-.557-.405-.956l.173.202h-.193l.02 1.207v1.545h-.87zm2.038-2.394c.367 0 .653-.11.86-.329.212-.219.318-.534.318-.946v-1.449c0-.412-.106-.727-.319-.946-.206-.219-.492-.328-.86-.328-.353 0-.636.112-.849.338-.212.225-.319.537-.319.936v1.449c0 .399.107.711.32.937.212.225.495.338.849.338zm5.69.753c-.418 0-.785-.084-1.1-.251a1.826 1.826 0 01-.725-.705 2.216 2.216 0 01-.251-1.072v-1.449c0-.412.084-.769.25-1.071.175-.303.416-.538.725-.705a2.307 2.307 0 011.101-.251c.419 0 .782.083 1.091.251.316.167.557.402.724.705.174.302.261.659.261 1.071v.937H19.39v.512c0 .418.106.74.318.966.213.218.515.328.908.328.335 0 .605-.058.811-.174a.765.765 0 00.377-.541h.869a1.48 1.48 0 01-.657 1.063c-.373.257-.84.386-1.4.386zm1.226-3.119v-.358c0-.418-.106-.74-.318-.965-.206-.225-.509-.338-.908-.338-.393 0-.695.113-.908.338-.212.225-.318.547-.318.965v.281h2.52l-.068.077zm4.107 4.76v-1.738c-.618 0-1.104-.174-1.458-.521-.354-.348-.531-.824-.531-1.429v-1.43c0-.598.177-1.068.53-1.409.361-.348.847-.522 1.459-.522v-1.738h.772v1.738c.618 0 1.104.174 1.459.522.354.341.53.811.53 1.409v1.43c0 .605-.177 1.081-.53 1.429-.355.347-.84.521-1.459.521v1.738h-.772zm.02-2.423v-3.94c-.374 0-.667.109-.88.328-.212.219-.318.525-.318.917v1.43c0 .392.106.701.318.927.213.225.506.338.88.338zm.733 0c.38 0 .673-.113.879-.338.212-.226.318-.535.318-.927v-1.43c0-.392-.106-.698-.318-.917-.206-.219-.5-.328-.879-.328v3.94zm5.352.782a2.32 2.32 0 01-1.1-.251 1.825 1.825 0 01-.725-.705 2.215 2.215 0 01-.251-1.072v-1.449c0-.412.084-.769.251-1.071.174-.303.415-.538.724-.705a2.308 2.308 0 011.101-.251c.419 0 .782.083 1.091.251.316.167.557.402.725.705.173.302.26.659.26 1.071v.937h-3.302v.512c0 .418.106.74.319.966.212.218.515.328.907.328.335 0 .605-.058.811-.174a.765.765 0 00.377-.541h.869a1.48 1.48 0 01-.657 1.063c-.373.257-.84.386-1.4.386zm1.227-3.119v-.358c0-.418-.107-.74-.32-.965-.205-.225-.508-.338-.907-.338-.393 0-.695.113-.908.338-.212.225-.318.547-.318.965v.281h2.52l-.067.077zm2.484 4.76v-7.049h.869v1.014h.174l-.174.203c0-.406.132-.724.396-.956.27-.238.624-.357 1.062-.357.534 0 .96.177 1.275.531.321.347.482.827.482 1.439v1.554c0 .406-.074.757-.222 1.053a1.578 1.578 0 01-.608.685c-.258.161-.567.242-.927.242-.431 0-.782-.119-1.053-.357-.27-.239-.405-.557-.405-.956l.174.202h-.194l.02 1.207v1.545h-.87zm2.037-2.394c.367 0 .654-.11.86-.329.212-.219.318-.534.318-.946v-1.449c0-.412-.106-.727-.318-.946-.206-.219-.493-.328-.86-.328-.354 0-.637.112-.85.338-.212.225-.318.537-.318.936v1.449c0 .399.106.711.319.937.212.225.495.338.85.338zm5.227.753c-.56 0-1.001-.142-1.323-.425-.322-.29-.483-.679-.483-1.169 0-.495.161-.885.483-1.168.322-.283.756-.425 1.303-.425h1.642v-.531c0-.328-.1-.579-.3-.753-.192-.18-.47-.271-.83-.271-.315 0-.58.068-.791.203a.722.722 0 00-.367.531h-.87c.058-.457.274-.82.647-1.091.374-.27.84-.405 1.4-.405.612 0 1.095.157 1.45.473.353.315.53.743.53 1.284v3.65h-.85v-1.014h-.144l.144-.145c0 .387-.15.692-.453.918-.297.225-.692.338-1.188.338zm.212-.686c.412 0 .75-.103 1.014-.309a.962.962 0 00.396-.792v-.753H43.03c-.29 0-.518.081-.686.242-.167.161-.25.379-.25.656 0 .296.099.531.298.705.206.167.49.251.85.251zm3.315.657v-.811h.174c.296 0 .502-.116.618-.348.122-.232.186-.647.193-1.246l.058-2.974H51.2v5.311h-.87v-4.519h-1.873l-.048 2.221c-.013.56-.077 1.014-.193 1.362-.11.347-.283.601-.522.762-.231.161-.537.242-.917.242h-.222zm6.424-.068v-5.311h.869v1.951h1.564c.599 0 1.069.151 1.41.454.348.296.522.705.522 1.226 0 .515-.174.924-.522 1.226-.348.303-.817.454-1.41.454H52.98zm.869-.792h1.564c.335 0 .59-.074.763-.222.18-.154.27-.376.27-.666 0-.29-.09-.509-.27-.657-.174-.154-.428-.231-.763-.231H53.85v1.776zm4.811.792v-5.311h.87v2.212h2.24v-2.212h.869v5.311h-.87v-2.308h-2.24v2.308h-.869zm5.44 0v-5.311h.81v1.951h.435c.573 0 1.024.151 1.352.454.335.296.502.705.502 1.226s-.167.933-.502 1.236c-.328.296-.779.444-1.352.444H64.1zm.81-.695h.435c.341 0 .605-.087.792-.261.193-.174.29-.415.29-.724s-.097-.55-.29-.724c-.187-.174-.45-.261-.792-.261h-.434v1.97zm2.917.695v-5.311h.81v5.311h-.81zm4.26.097c-.418 0-.785-.084-1.1-.251a1.825 1.825 0 01-.724-.705 2.215 2.215 0 01-.251-1.072v-1.449c0-.412.083-.769.25-1.071.174-.303.416-.538.725-.705a2.307 2.307 0 011.1-.251c.42 0 .783.083 1.092.251.315.167.557.402.724.705.174.302.26.659.26 1.071v.937h-3.302v.512c0 .418.107.74.319.966.212.218.515.328.908.328.335 0 .605-.058.81-.174a.765.765 0 00.377-.541h.87a1.48 1.48 0 01-.657 1.063c-.373.257-.84.386-1.4.386zm1.227-3.119v-.358c0-.418-.106-.74-.319-.965-.206-.225-.508-.338-.907-.338-.393 0-.695.113-.908.338-.212.225-.319.547-.319.965v.281h2.52l-.067.077zm8.223 3.022v-5.311h3.978v5.311h-.869v-4.519h-2.24v4.519h-.87zm5.7 1.738v-7.049h.869v1.014h.173l-.173.203c0-.406.132-.724.395-.956.27-.238.625-.357 1.063-.357.534 0 .959.177 1.274.531.322.347.483.827.483 1.439v1.554c0 .406-.074.757-.222 1.053a1.578 1.578 0 01-.608.685c-.258.161-.567.242-.927.242-.432 0-.782-.119-1.053-.357-.27-.239-.405-.557-.405-.956l.173.202h-.193l.02 1.207v1.545h-.87zm2.037-2.394c.367 0 .653-.11.86-.329.212-.219.318-.534.318-.946v-1.449c0-.412-.106-.727-.319-.946-.206-.219-.492-.328-.86-.328-.353 0-.636.112-.849.338-.212.225-.319.537-.319.936v1.449c0 .399.107.711.32.937.212.225.495.338.849.338zm5.69.733c-.425 0-.792-.08-1.1-.241a1.756 1.756 0 01-.725-.695c-.167-.309-.251-.673-.251-1.091v-1.41c0-.425.084-.789.251-1.091.174-.303.415-.535.724-.696.31-.161.676-.241 1.101-.241.425 0 .792.08 1.1.241.31.161.548.393.716.696.173.302.26.663.26 1.081v1.42c0 .418-.087.782-.26 1.091a1.695 1.695 0 01-.715.695c-.31.161-.676.241-1.1.241zm0-.772c.38 0 .676-.106.888-.319.213-.212.32-.524.32-.936v-1.41c0-.412-.107-.724-.32-.937-.212-.212-.508-.319-.888-.319-.373 0-.67.107-.888.319-.213.213-.319.525-.319.937v1.41c0 .412.106.724.319.936.219.213.515.319.888.319zm4.078.695v-5.311h3.814v.792h-2.945v4.519h-.87zm5.352 1.738v-7.049h.869v1.014h.174l-.174.203c0-.406.132-.724.396-.956.27-.238.624-.357 1.062-.357.534 0 .959.177 1.275.531.321.347.482.827.482 1.439v1.554c0 .406-.074.757-.222 1.053a1.573 1.573 0 01-.608.685c-.258.161-.567.242-.927.242-.431 0-.782-.119-1.053-.357-.27-.239-.405-.557-.405-.956l.174.202h-.194l.02 1.207v1.545h-.869zm2.037-2.394c.367 0 .654-.11.86-.329.212-.219.318-.534.318-.946v-1.449c0-.412-.106-.727-.318-.946-.206-.219-.493-.328-.86-.328-.354 0-.637.112-.85.338-.212.225-.318.537-.318.936v1.449c0 .399.106.711.318.937.213.225.496.338.85.338zm5.227.753c-.56 0-1.001-.142-1.323-.425-.322-.29-.483-.679-.483-1.169 0-.495.161-.885.483-1.168.322-.283.756-.425 1.303-.425h1.642v-.531c0-.328-.1-.579-.299-.753-.193-.18-.47-.271-.831-.271-.315 0-.579.068-.792.203a.726.726 0 00-.367.531h-.869c.058-.457.274-.82.647-1.091.374-.27.841-.405 1.401-.405.611 0 1.094.157 1.448.473.354.315.531.743.531 1.284v3.65h-.85v-1.014h-.144l.144-.145c0 .387-.151.692-.453.918-.297.225-.693.338-1.188.338zm.212-.686c.412 0 .75-.103 1.014-.309a.961.961 0 00.396-.792v-.753h-1.622c-.29 0-.518.081-.686.242-.167.161-.251.379-.251.656 0 .296.1.531.299.705.206.167.49.251.85.251zm3.807.589v-5.311h1.178l.696 2.038c.07.206.135.412.193.618.058.199.1.354.125.463.026-.109.065-.264.116-.463.058-.206.119-.416.184-.628l.656-2.028h1.178v5.311h-.84v-.821c0-.289.004-.605.01-.946l.019-1.033.039-.985c.013-.316.022-.592.029-.831l-.946 3.023h-.918l-.956-3.003c.013.289.023.65.029 1.081.013.432.023.882.029 1.352.013.47.019.918.019 1.342v.821h-.84zm5.719 0v-5.311h1.179l.695 2.038c.071.206.135.412.193.618.058.199.1.354.125.463.026-.109.065-.264.116-.463.058-.206.119-.416.184-.628l.656-2.028h1.178v5.311h-.84v-.821c0-.289.004-.605.01-.946l.019-1.033.039-.985c.013-.316.023-.592.029-.831l-.946 3.023h-.918l-.956-3.003c.013.289.023.65.029 1.081.013.432.023.882.029 1.352.013.47.02.918.02 1.342v.821h-.841zm5.613 0v-5.311h.811v1.951h.435c.573 0 1.024.151 1.352.454.335.296.502.705.502 1.226s-.167.933-.502 1.236c-.328.296-.779.444-1.352.444h-1.246zm.811-.695h.435c.341 0 .605-.087.792-.261.193-.174.289-.415.289-.724s-.096-.55-.289-.724c-.187-.174-.451-.261-.792-.261h-.435v1.97zm2.917.695v-5.311h.811v5.311h-.811zm-117.83 19v-5.311h.831v2.897c0 .187-.006.383-.02.589a7.609 7.609 0 01-.038.589 6.19 6.19 0 01-.048.464l2.144-4.539h1.11v5.311h-.83v-2.897c0-.186.003-.383.01-.589.012-.206.028-.402.048-.589l.048-.473-2.144 4.548h-1.11zm13.447.097c-.424 0-.798-.081-1.12-.242a1.736 1.736 0 01-.734-.695c-.173-.309-.26-.673-.26-1.091v-1.449c0-.424.087-.788.26-1.091.174-.302.419-.534.734-.695a2.472 2.472 0 011.12-.241c.612 0 1.105.164 1.478.492.373.328.57.776.589 1.342h-.87c-.018-.341-.134-.602-.347-.782-.206-.187-.49-.28-.85-.28-.38 0-.682.11-.907.328-.226.213-.338.519-.338.918v1.458c0 .399.112.708.338.927.225.219.528.328.907.328.36 0 .644-.093.85-.28.213-.186.328-.447.348-.782h.869c-.02.567-.216 1.014-.59 1.342-.372.329-.865.493-1.477.493zm3.71-.097v-5.311h3.98v5.311h-.87v-4.519h-2.24v4.519h-.87zm7.71.097a2.32 2.32 0 01-1.102-.251 1.825 1.825 0 01-.724-.705 2.215 2.215 0 01-.25-1.072v-1.449c0-.412.083-.769.25-1.071.174-.303.415-.538.724-.705a2.307 2.307 0 011.101-.251c.419 0 .782.083 1.091.251.316.167.557.402.725.705.174.302.26.659.26 1.071v.937h-3.302v.512c0 .418.106.74.319.966.212.218.515.328.907.328.335 0 .605-.058.811-.174a.765.765 0 00.377-.541h.87a1.48 1.48 0 01-.658 1.063c-.373.257-.84.386-1.4.386zM39 135.26v-.358c0-.418-.107-.74-.319-.965-.206-.225-.509-.338-.908-.338-.392 0-.695.113-.908.338-.212.225-.318.547-.318.965v.281h2.52l-.067.077zm6.279 4.374v-1.352h-3.776v-5.311h.87v4.539h2.085v-4.539h.87v4.539h.723v2.124h-.772zm1.943-1.352v-5.311h.83v2.897c0 .187-.006.383-.019.589a8.14 8.14 0 01-.038.589 6.19 6.19 0 01-.049.464l2.144-4.539h1.11v5.311h-.83v-2.897c0-.186.003-.383.01-.589.013-.206.029-.402.048-.589l.048-.473-2.143 4.548h-1.11zm7.245.097c-.56 0-1.001-.142-1.323-.425-.322-.29-.483-.679-.483-1.169 0-.495.161-.885.483-1.168.322-.283.757-.425 1.304-.425h1.641v-.531c0-.328-.1-.579-.3-.753-.192-.18-.469-.271-.83-.271-.315 0-.579.068-.791.203a.722.722 0 00-.367.531h-.87c.059-.457.274-.82.648-1.091.373-.27.84-.405 1.4-.405.611 0 1.094.157 1.448.473.354.315.531.743.531 1.284v3.65h-.85v-1.014h-.144l.145-.145c0 .387-.152.692-.454.918-.296.225-.692.338-1.188.338zm.212-.686c.412 0 .75-.103 1.014-.309a.961.961 0 00.396-.792v-.753h-1.622c-.29 0-.518.081-.686.242-.167.161-.25.379-.25.656 0 .296.1.531.299.705.206.167.489.251.85.251zm3.315.657v-.811h.174c.296 0 .502-.116.618-.348.122-.232.187-.647.193-1.246l.058-2.974h3.602v5.311h-.87v-4.519h-1.873l-.048 2.221c-.013.56-.077 1.014-.193 1.362-.11.347-.283.601-.522.762-.231.161-.537.242-.917.242h-.222zm6.424-.068v-5.311h.87v1.951h1.564c.598 0 1.068.151 1.41.454.347.296.52.705.52 1.226 0 .515-.173.924-.52 1.226-.348.303-.818.454-1.41.454h-2.434zm.87-.792h1.564c.334 0 .588-.074.762-.222.18-.154.27-.376.27-.666 0-.29-.09-.509-.27-.657-.174-.154-.428-.231-.763-.231h-1.564v1.776zm4.81.792v-5.311h.87v2.212h2.24v-2.212h.869v5.311h-.87v-2.308h-2.24v2.308H70.1zm5.44 0v-5.311h.81v1.951h.435c.573 0 1.024.151 1.352.454.335.296.502.705.502 1.226s-.167.933-.502 1.236c-.328.296-.779.444-1.352.444h-1.246zm.81-.695h.435c.341 0 .605-.087.792-.261.193-.174.29-.415.29-.724s-.097-.55-.29-.724c-.187-.174-.45-.261-.792-.261h-.434v1.97zm2.917.695v-5.311h.811v5.311h-.811zm4.26.097c-.418 0-.785-.084-1.1-.251a1.824 1.824 0 01-.724-.705 2.214 2.214 0 01-.251-1.072v-1.449c0-.412.083-.769.25-1.071.175-.303.416-.538.725-.705a2.307 2.307 0 011.1-.251c.42 0 .783.083 1.092.251.316.167.557.402.724.705.174.302.261.659.261 1.071v.937h-3.303v.512c0 .418.107.74.32.966.212.218.514.328.907.328.335 0 .605-.058.811-.174a.765.765 0 00.377-.541h.869a1.48 1.48 0 01-.657 1.063c-.373.257-.84.386-1.4.386zm1.227-3.119v-.358c0-.418-.106-.74-.318-.965-.206-.225-.509-.338-.908-.338-.393 0-.695.113-.908.338-.212.225-.319.547-.319.965v.281h2.52l-.067.077zm8.223 3.022v-5.311h3.978v5.311h-.869v-4.519h-2.24v4.519h-.87zm5.7 1.738v-7.049h.869v1.014h.174l-.174.203c0-.406.132-.724.396-.956.27-.238.624-.357 1.062-.357.534 0 .959.177 1.274.531.322.347.483.827.483 1.439v1.554c0 .406-.074.757-.222 1.053a1.573 1.573 0 01-.608.685c-.258.161-.567.242-.927.242-.432 0-.782-.119-1.053-.357-.27-.239-.405-.557-.405-.956l.174.202h-.194l.02 1.207v1.545h-.87zm2.037-2.394c.367 0 .654-.11.86-.329.212-.219.318-.534.318-.946v-1.449c0-.412-.106-.727-.318-.946-.206-.219-.493-.328-.86-.328-.354 0-.637.112-.85.338-.212.225-.318.537-.318.936v1.449c0 .399.106.711.318.937.213.225.496.338.85.338zm5.69.753c-.418 0-.785-.084-1.101-.251a1.825 1.825 0 01-.724-.705 2.219 2.219 0 01-.251-1.072v-1.449c0-.412.084-.769.251-1.071.174-.303.415-.538.724-.705a2.31 2.31 0 011.101-.251c.419 0 .782.083 1.091.251.316.167.557.402.725.705.173.302.26.659.26 1.071v.937h-3.302v.512c0 .418.106.74.319.966.212.218.515.328.907.328.335 0 .605-.058.811-.174a.766.766 0 00.377-.541h.869a1.48 1.48 0 01-.657 1.063c-.373.257-.84.386-1.4.386zm1.227-3.119v-.358c0-.418-.107-.74-.319-.965-.206-.225-.509-.338-.908-.338-.392 0-.695.113-.907.338-.213.225-.319.547-.319.965v.281h2.52l-.067.077zm1.885 4.374v-2.095h.435c.109-.11.222-.325.338-.647.122-.322.186-.731.193-1.227l.058-2.694h3.466v4.568h.676v2.095h-.772v-1.352h-3.621v1.352h-.773zm1.352-2.095h2.269v-3.795h-1.777l-.038 1.941c-.007.508-.061.92-.164 1.236-.103.315-.2.521-.29.618zm4.319.811v-.811h.174c.296 0 .502-.116.618-.348.122-.232.186-.647.193-1.246l.058-2.974h3.602v5.311h-.869v-4.519h-1.874l-.048 2.221c-.013.56-.077 1.014-.193 1.362-.11.347-.283.601-.522.762-.231.161-.537.242-.917.242h-.222zm8.374.009c-.424 0-.791-.08-1.1-.241a1.759 1.759 0 01-.725-.695c-.167-.309-.251-.673-.251-1.091v-1.41c0-.425.084-.789.251-1.091.174-.303.416-.535.725-.696.309-.161.676-.241 1.1-.241.425 0 .792.08 1.101.241.309.161.547.393.715.696.174.302.261.663.261 1.081v1.42c0 .418-.087.782-.261 1.091a1.7 1.7 0 01-.715.695c-.309.161-.676.241-1.101.241zm0-.772c.38 0 .676-.106.889-.319.212-.212.319-.524.319-.936v-1.41c0-.412-.107-.724-.319-.937-.213-.212-.509-.319-.889-.319-.373 0-.669.107-.888.319-.212.213-.319.525-.319.937v1.41c0 .412.107.724.319.936.219.213.515.319.888.319zm2.996.695l1.159-2.723-1.081-2.588h.84l.927 2.318h.512v-2.318h.733v2.318h.493l.956-2.318h.83l-1.081 2.559 1.159 2.752h-.869l-.966-2.414h-.522v2.414h-.733v-2.414h-.522l-.975 2.414h-.86zm8.443.097c-.419 0-.786-.084-1.101-.251a1.82 1.82 0 01-.724-.705 2.208 2.208 0 01-.252-1.072v-1.449c0-.412.084-.769.252-1.071.173-.303.415-.538.724-.705.315-.168.682-.251 1.101-.251.418 0 .782.083 1.091.251.315.167.557.402.724.705.174.302.261.659.261 1.071v.937h-3.303v.512c0 .418.106.74.319.966.212.218.515.328.908.328.334 0 .605-.058.811-.174a.764.764 0 00.376-.541h.869a1.478 1.478 0 01-.656 1.063c-.374.257-.84.386-1.4.386zm1.226-3.119v-.358c0-.418-.106-.74-.319-.965-.206-.225-.508-.338-.907-.338-.393 0-.696.113-.908.338-.213.225-.319.547-.319.965v.281h2.521l-.068.077zm2.503 3.022v-5.311h.87v2.212h2.24v-2.212h.869v5.311h-.869v-2.308h-2.24v2.308h-.87zm5.72 0v-5.311h.83v2.897c0 .187-.006.383-.019.589-.007.206-.02.403-.039.589-.013.18-.029.335-.048.464l2.144-4.539h1.11v5.311h-.83v-2.897c0-.186.003-.383.009-.589.013-.206.029-.402.048-.589l.049-.473-2.144 4.548h-1.11zm5.39 0l1.362-2.047c-.406-.097-.721-.283-.946-.56-.219-.277-.329-.621-.329-1.033 0-.522.171-.93.512-1.227.348-.296.821-.444 1.419-.444h2.289v5.311h-.869v-1.979h-1.168l-1.256 1.979h-1.014zm2.018-2.752h1.42v-1.786h-1.42c-.321 0-.576.08-.762.241-.187.155-.28.373-.28.657 0 .277.093.495.28.656.186.155.441.232.762.232zm6.019 2.849c-.245 0-.441-.071-.589-.213-.142-.141-.213-.331-.213-.569 0-.251.071-.451.213-.599.148-.148.344-.222.589-.222s.438.074.579.222c.148.148.222.348.222.599 0 .238-.074.428-.222.569-.141.142-.334.213-.579.213zM12.888 17.588v-7.05h2.27c.437 0 .817.088 1.14.261.321.168.569.406.743.715.18.309.27.676.27 1.1 0 .42-.09.786-.27 1.102-.174.309-.422.55-.744.724-.322.167-.702.251-1.14.251h-1.4v2.897h-.869zm.87-3.68h1.4c.38 0 .682-.115.907-.347.232-.238.348-.553.348-.946 0-.4-.116-.715-.348-.947-.225-.231-.528-.347-.907-.347h-1.4v2.588zm6.395 3.777c-.56 0-1.002-.142-1.323-.425-.322-.29-.483-.68-.483-1.169 0-.496.16-.885.483-1.168.322-.284.756-.425 1.303-.425h1.642v-.531c0-.329-.1-.58-.3-.754-.193-.18-.47-.27-.83-.27-.316 0-.58.068-.792.203a.721.721 0 00-.367.531h-.869c.058-.457.274-.82.647-1.091.373-.27.84-.406 1.4-.406.612 0 1.095.158 1.449.473.354.316.53.744.53 1.285v3.65h-.849v-1.014h-.145l.145-.145c0 .386-.151.692-.454.918-.296.225-.692.337-1.188.337zm.212-.686c.412 0 .75-.103 1.014-.31a.961.961 0 00.396-.791v-.753h-1.622c-.29 0-.519.08-.686.241-.168.161-.251.38-.251.657 0 .296.1.531.3.705.205.167.488.25.849.25zm5.719.657c-.56 0-1.02-.12-1.38-.358a1.42 1.42 0 01-.638-.965h.917c.045.16.164.293.357.396.2.102.448.154.744.154h.454c.315 0 .56-.074.734-.222a.714.714 0 00.27-.58c0-.257-.087-.46-.26-.608-.168-.148-.416-.222-.744-.222h-1.169v-.753h1.14c.296 0 .521-.071.676-.213a.724.724 0 00.232-.56.731.731 0 00-.107-.405.614.614 0 00-.299-.251 1.247 1.247 0 00-.492-.087h-.483c-.258 0-.48.058-.667.174-.186.115-.299.257-.337.425h-.918c.064-.4.274-.728.628-.986.354-.257.785-.386 1.294-.386h.483c.38 0 .705.061.975.184.27.116.476.283.618.502.148.219.222.48.222.782 0 .316-.103.576-.309.782-.206.2-.496.312-.87.338v.039c.458.032.79.154.995.367.207.212.31.518.31.917 0 .47-.174.843-.522 1.12-.348.277-.814.416-1.4.416h-.454zm3.962 1.67v-7.05h.869v1.015h.174l-.174.203c0-.406.132-.725.396-.956.27-.239.624-.358 1.062-.358.534 0 .959.177 1.275.531.321.348.482.828.482 1.44v1.554c0 .405-.074.756-.222 1.052a1.578 1.578 0 01-.608.686c-.258.161-.567.241-.927.241-.431 0-.782-.119-1.053-.357-.27-.238-.405-.557-.405-.956l.174.203h-.194l.02 1.207v1.545h-.87zm2.037-2.395c.367 0 .654-.11.86-.328.212-.219.318-.534.318-.946v-1.449c0-.412-.106-.727-.318-.946-.206-.22-.493-.329-.86-.329-.354 0-.637.113-.85.338-.212.226-.318.538-.318.937v1.449c0 .399.106.711.318.936.213.226.496.338.85.338zm5.227.753c-.56 0-1.001-.141-1.323-.424-.322-.29-.483-.68-.483-1.169 0-.496.16-.885.483-1.168.322-.284.756-.425 1.303-.425h1.642v-.531c0-.329-.1-.58-.3-.754-.192-.18-.47-.27-.83-.27-.315 0-.58.068-.792.203a.722.722 0 00-.367.531h-.869c.058-.457.274-.82.647-1.091.374-.27.84-.406 1.4-.406.612 0 1.095.158 1.449.473.354.316.531.744.531 1.285v3.65h-.85v-1.014h-.145l.145-.145c0 .386-.151.692-.453.918-.297.225-.693.337-1.188.337zm.212-.685c.412 0 .75-.103 1.014-.31a.961.961 0 00.396-.791v-.753H37.31c-.29 0-.519.08-.686.241-.167.161-.25.38-.25.657 0 .296.099.531.298.705.206.167.49.25.85.25zm5.97.686c-.624 0-1.12-.184-1.487-.551-.36-.373-.54-.882-.54-1.526v-2.414c0-.85.212-1.503.637-1.96.425-.463 1.033-.695 1.825-.695h1.352v.869h-1.352c-.522 0-.917.154-1.188.463-.27.303-.405.744-.405 1.323v.628h.135l-.135.193c.006-.38.135-.676.386-.888.25-.213.592-.319 1.023-.319.56 0 .995.18 1.304.54.316.361.473.857.473 1.488v.772c0 .432-.08.802-.241 1.11a1.692 1.692 0 01-.696.715c-.302.168-.666.252-1.09.252zm0-.773c.374 0 .66-.113.86-.338.2-.225.3-.547.3-.966v-.772c0-.419-.1-.74-.3-.966-.2-.225-.486-.338-.86-.338-.373 0-.66.113-.86.338-.199.219-.298.54-.298.966v.772c0 .419.1.74.299.966.2.225.486.338.86.338zm5.72.753c-.426 0-.792-.08-1.101-.241a1.753 1.753 0 01-.725-.695c-.167-.31-.25-.673-.25-1.092v-1.41c0-.424.083-.788.25-1.09.174-.303.416-.535.725-.696.309-.16.675-.241 1.1-.241.425 0 .792.08 1.101.241.31.161.547.393.715.695.174.303.26.663.26 1.082v1.42c0 .418-.086.781-.26 1.09a1.692 1.692 0 01-.715.696c-.309.16-.676.241-1.1.241zm0-.772c.38 0 .675-.107.888-.319.212-.213.319-.525.319-.937v-1.41c0-.412-.107-.724-.32-.936-.212-.213-.508-.319-.888-.319-.373 0-.67.106-.888.319-.212.212-.319.524-.319.936v1.41c0 .412.107.724.319.937.219.212.515.319.888.319zm5.284.695V13.04h-1.931v-.763h4.731v.763h-1.931v4.548h-.869zm4.193 0v-5.311h.87v2.192h.907l1.545-2.192h.995l-1.787 2.53 1.816 2.78H62.02l-1.545-2.365h-.918v2.366h-.869zm7.216.096c-.56 0-1-.141-1.323-.424-.322-.29-.483-.68-.483-1.169 0-.496.161-.885.483-1.168.322-.284.757-.425 1.304-.425h1.641v-.531c0-.329-.1-.58-.299-.754-.193-.18-.47-.27-.83-.27-.316 0-.58.068-.792.203a.722.722 0 00-.367.531h-.87c.059-.457.274-.82.648-1.091.373-.27.84-.406 1.4-.406.611 0 1.094.158 1.448.473.355.316.532.744.532 1.285v3.65h-.85v-1.014h-.145l.145-.145c0 .386-.152.692-.454.918-.296.225-.692.337-1.188.337zm.213-.685c.412 0 .75-.103 1.014-.31a.961.961 0 00.395-.791v-.753h-1.622c-.29 0-.518.08-.686.241-.167.161-.25.38-.25.657 0 .296.1.531.299.705.206.167.49.25.85.25zm11.708.686c-.425 0-.798-.081-1.12-.242a1.739 1.739 0 01-.734-.695c-.174-.31-.26-.673-.26-1.091v-1.449c0-.425.086-.789.26-1.091a1.74 1.74 0 01.734-.695 2.472 2.472 0 011.12-.242c.612 0 1.104.165 1.478.493.373.328.57.775.589 1.342h-.87c-.019-.341-.135-.602-.347-.782-.206-.187-.49-.28-.85-.28-.38 0-.682.11-.908.328-.225.213-.338.518-.338.917v1.459c0 .399.113.708.338.927.226.218.528.328.908.328.36 0 .644-.093.85-.28.212-.187.328-.448.347-.782h.87c-.02.566-.216 1.014-.59 1.342-.373.328-.865.492-1.477.492zm5.265-.097V13.04h-1.93v-.763h4.73v.763h-1.93v4.548h-.87zm4.145 1.738v-7.05h.87v1.015h.173l-.173.203c0-.406.132-.725.395-.956.27-.239.625-.358 1.063-.358.534 0 .959.177 1.274.531.322.348.483.828.483 1.44v1.554c0 .405-.074.756-.222 1.052a1.578 1.578 0 01-.608.686c-.258.161-.567.241-.927.241-.432 0-.782-.119-1.053-.357-.27-.238-.405-.557-.405-.956l.173.203h-.193l.02 1.207v1.545h-.87zm2.038-2.395c.367 0 .653-.11.86-.328.212-.219.318-.534.318-.946v-1.449c0-.412-.106-.727-.319-.946-.206-.22-.492-.329-.86-.329-.353 0-.636.113-.849.338-.212.226-.319.538-.319.937v1.449c0 .399.107.711.32.936.212.226.495.338.849.338zm5.227.753c-.56 0-1.002-.141-1.323-.424-.322-.29-.483-.68-.483-1.169 0-.496.16-.885.483-1.168.322-.284.756-.425 1.303-.425h1.642v-.531c0-.329-.1-.58-.3-.754-.193-.18-.47-.27-.83-.27-.315 0-.58.068-.792.203a.722.722 0 00-.367.531h-.869c.058-.457.274-.82.647-1.091.374-.27.84-.406 1.4-.406.612 0 1.095.158 1.449.473.354.316.53.744.53 1.285v3.65h-.849v-1.014h-.145l.145-.145c0 .386-.151.692-.454.918-.296.225-.692.337-1.188.337zm.212-.685c.412 0 .75-.103 1.014-.31a.961.961 0 00.396-.791v-.753H94.5c-.29 0-.518.08-.685.241-.167.161-.251.38-.251.657 0 .296.1.531.3.705.205.167.489.25.849.25zm5.536.589V13.04h-1.932v-.763h4.732v.763h-1.931v4.548h-.869zm6.153.096c-.418 0-.785-.083-1.101-.25a1.818 1.818 0 01-.724-.706 2.22 2.22 0 01-.251-1.071v-1.449c0-.412.084-.77.251-1.072.174-.302.415-.537.724-.705a2.318 2.318 0 011.101-.25c.419 0 .782.083 1.091.25.316.168.557.403.725.705.173.303.26.66.26 1.072v.937h-3.302v.512c0 .418.106.74.319.965.212.22.515.329.907.329.335 0 .605-.058.811-.174a.768.768 0 00.377-.541h.869a1.48 1.48 0 01-.657 1.062c-.373.258-.84.387-1.4.387zm1.227-3.119v-.357c0-.418-.107-.74-.319-.966-.206-.225-.509-.338-.908-.338-.392 0-.695.113-.907.338-.213.226-.319.548-.319.966v.28h2.52l-.067.077zm2.851 3.023v-5.311h3.814v.792h-2.945v4.519h-.869zm5.371 0v-5.311h.831v2.897c0 .187-.007.383-.02.589a8.17 8.17 0 01-.038.589 5.82 5.82 0 01-.049.463l2.144-4.538h1.111v5.31h-.831v-2.896c0-.187.003-.383.01-.59.013-.205.029-.401.048-.588l.048-.473-2.143 4.548h-1.111zm5.719 0v-5.311h.831v2.897c0 .187-.007.383-.02.589a8.17 8.17 0 01-.038.589 5.82 5.82 0 01-.049.463l2.144-4.538h1.111v5.31h-.831v-2.896c0-.187.003-.383.01-.59.013-.205.029-.401.048-.588l.048-.473-2.143 4.548h-1.111zm2.028-6.18c-.463 0-.837-.129-1.12-.386-.283-.258-.425-.596-.425-1.014h.686c0 .25.077.453.231.608.155.155.361.232.618.232.264 0 .474-.078.628-.232a.805.805 0 00.242-.608h.685c0 .418-.142.756-.425 1.014-.283.257-.656.386-1.12.386zm-110.69 25.18v-5.311h3.978v5.31h-.869V32.07h-2.24v4.519h-.87zm5.7 1.738v-7.05h.869v1.015h.173l-.173.203c0-.406.131-.725.395-.956.27-.239.625-.358 1.063-.358.534 0 .959.177 1.274.531.322.348.483.828.483 1.44v1.554c0 .406-.074.756-.222 1.052a1.578 1.578 0 01-.608.686c-.258.161-.567.242-.927.242-.432 0-.782-.12-1.053-.358-.27-.238-.405-.557-.405-.956l.173.203h-.193l.02 1.207v1.545h-.87zm2.037-2.395c.367 0 .653-.11.86-.328.212-.219.318-.534.318-.946v-1.449c0-.412-.106-.727-.319-.946-.206-.22-.492-.329-.859-.329-.354 0-.637.113-.85.339-.212.225-.319.537-.319.936v1.449c0 .399.107.711.32.936.212.226.495.338.849.338zm3.7.657v-5.311h.831v2.897c0 .187-.006.383-.019.589-.006.206-.02.402-.039.589-.012.18-.029.335-.048.463l2.144-4.538h1.11v5.31h-.83v-2.896c0-.187.003-.383.01-.59.012-.205.028-.401.048-.588l.048-.473-2.144 4.548h-1.11zm5.72 0v-5.311h2.298c.554 0 .982.125 1.285.377.302.244.453.588.453 1.033 0 .367-.125.663-.376.888-.251.219-.583.328-.995.328v-.077c.45 0 .811.113 1.082.338.277.225.415.528.415.908 0 .476-.161.85-.483 1.12-.322.264-.773.396-1.352.396h-2.327zm.85-.763h1.477c.31 0 .547-.068.715-.203.174-.135.26-.325.26-.57 0-.25-.086-.444-.26-.579-.168-.135-.406-.203-.715-.203h-1.477v1.555zm0-2.308h1.448c.27 0 .483-.064.638-.193.16-.129.24-.309.24-.54 0-.233-.076-.413-.23-.541-.155-.136-.371-.203-.648-.203h-1.448v1.477zm4.203 3.139v-.812h.173c.297 0 .503-.116.619-.347.122-.232.186-.647.193-1.246l.058-2.974h3.602v5.31h-.87V32.07H37.02l-.048 2.22c-.013.56-.078 1.015-.193 1.362-.11.348-.284.602-.522.763-.232.161-.537.242-.917.242h-.222zm8.374.029c-.418 0-.785-.084-1.1-.252a1.817 1.817 0 01-.725-.705 2.215 2.215 0 01-.25-1.071v-1.449c0-.412.083-.77.25-1.072.174-.302.416-.537.724-.705a2.314 2.314 0 011.101-.25c.419 0 .783.083 1.092.25.315.168.556.403.724.705.174.303.26.66.26 1.072v.937h-3.302v.512c0 .418.106.74.319.965.212.22.515.329.907.329.335 0 .605-.058.812-.174a.767.767 0 00.376-.541h.87a1.48 1.48 0 01-.657 1.062c-.374.258-.84.386-1.4.386zm1.227-3.12v-.357c0-.418-.107-.74-.319-.965-.206-.226-.508-.339-.908-.339-.392 0-.695.113-.907.338-.213.226-.319.548-.319.966v.28h2.52l-.067.077zm5.555 3.023v-1.931a4.22 4.22 0 01-.474.077 7.05 7.05 0 01-.656.029c-.657.006-1.169-.151-1.536-.473-.36-.329-.54-.786-.54-1.372v-1.641h.869v1.641c0 .329.11.59.328.783.225.186.534.28.927.28.27 0 .499-.01.686-.03a3.6 3.6 0 00.396-.067v-2.607h.869v5.31h-.87zm4.657.096c-.419 0-.786-.083-1.101-.25a1.817 1.817 0 01-.725-.706 2.215 2.215 0 01-.25-1.071v-1.449c0-.412.083-.77.25-1.072.174-.302.416-.537.725-.705a2.314 2.314 0 011.1-.25c.419 0 .783.083 1.092.25.315.168.556.403.724.705.174.303.26.66.26 1.072v.937h-3.302v.512c0 .418.106.74.319.965.212.22.515.329.907.329.335 0 .606-.058.812-.174a.767.767 0 00.376-.541h.87a1.48 1.48 0 01-.657 1.062c-.374.258-.84.386-1.4.386zm1.226-3.119v-.357c0-.418-.106-.74-.319-.965-.206-.226-.508-.339-.907-.339-.393 0-.696.113-.908.338-.213.226-.319.548-.319.966v.28h2.52l-.067.077zm2.503 3.023v-5.311h.87v2.211h2.24v-2.211h.869v5.31h-.87V34.28h-2.24v2.308h-.869zm5.72 0v-5.311h.83v2.897c0 .187-.007.383-.02.589a8.178 8.178 0 01-.038.589c-.013.18-.029.335-.048.463l2.143-4.538h1.11v5.31h-.83v-2.896c0-.187.004-.383.01-.59.013-.205.029-.401.048-.588l.049-.473-2.144 4.548h-1.11zm5.39 0l1.362-2.047c-.406-.097-.721-.283-.947-.56-.219-.277-.328-.622-.328-1.034 0-.521.17-.93.512-1.226.347-.296.82-.444 1.42-.444h2.288v5.31h-.87v-1.979H72.04l-1.255 1.98H69.77zm2.018-2.752h1.42v-1.787h-1.42c-.322 0-.576.08-.763.242-.186.154-.28.373-.28.656 0 .277.094.496.28.657.187.155.441.232.763.232zm6.019-1.207a.859.859 0 01-.58-.193.686.686 0 01-.222-.532c0-.218.074-.392.222-.52.148-.136.342-.204.58-.204.244 0 .438.068.58.203a.655.655 0 01.221.521.685.685 0 01-.222.532c-.141.128-.335.193-.58.193zm0 4.056c-.238 0-.431-.065-.58-.194a.686.686 0 01-.222-.53c0-.22.074-.393.222-.522a.829.829 0 01.58-.203c.244 0 .438.068.58.203a.655.655 0 01.221.521.685.685 0 01-.222.531c-.141.13-.335.194-.58.194z" fill="#fff"/><defs><filter id="filter0_d_440_381" x=".137" y="0" width="180.575" height="179.609" filterUnits="userSpaceOnUse" color-interpolation-filters="sRGB"><feFlood flood-opacity="0" result="BackgroundImageFix"/><feColorMatrix in="SourceAlpha" values="0 0 0 0 0 0 0 0 0 0 0 0 0 0 0 0 0 0 127 0" result="hardAlpha"/><feOffset dy="3.863"/><feGaussianBlur stdDeviation="1.931"/><feComposite in2="hardAlpha" operator="out"/><feColorMatrix values="0 0 0 0 0 0 0 0 0 0 0 0 0 0 0 0 0 0 0.25 0"/><feBlend in2="BackgroundImageFix" result="effect1_dropShadow_440_381"/><feBlend in="SourceGraphic" in2="effect1_dropShadow_440_381" result="shape"/></filter></defs></svg>