<svg width="180" height="179" fill="none" xmlns="http://www.w3.org/2000/svg"><g filter="url(#filter0_d_440_409)"><rect x="4" width="171.879" height="170.919" rx="16.004" fill="#46767D"/></g><mask id="a" style="mask-type:alpha" maskUnits="userSpaceOnUse" x="4" y="0" width="172" height="43"><path fill="#C9D9CD" d="M4 0h171.879v42.249H4z"/></mask><g mask="url(#a)"><rect x="4" y="-1.69" width="171.879" height="118.299" rx="16.004" fill="#223B38"/></g><path d="M14.883 61v-7.01h2.257c.435 0 .813.087 1.133.26.32.166.567.403.74.71.179.307.268.672.268 1.095 0 .416-.09.78-.269 1.095a1.818 1.818 0 01-.739.72c-.32.166-.698.25-1.133.25h-1.392V61h-.865zm.865-3.658h1.392c.378 0 .678-.116.902-.346.231-.237.346-.55.346-.941 0-.397-.115-.71-.346-.941-.224-.23-.524-.346-.902-.346h-1.392v2.574zm6.359 3.754c-.557 0-.996-.14-1.316-.422-.32-.288-.48-.676-.48-1.162 0-.493.16-.88.48-1.162.32-.282.752-.423 1.296-.423h1.633V57.4c0-.326-.1-.576-.298-.749-.192-.179-.467-.269-.826-.269-.313 0-.576.068-.787.202a.718.718 0 00-.365.528h-.864c.058-.454.272-.816.643-1.085.372-.269.836-.403 1.393-.403.608 0 1.088.157 1.44.47.352.314.528.74.528 1.277V61h-.845v-1.008h-.144l.144-.144c0 .384-.15.688-.451.912-.295.224-.688.336-1.181.336zm.21-.682c.41 0 .747-.102 1.01-.307a.956.956 0 00.393-.787v-.75h-1.613c-.288 0-.516.08-.682.24-.166.16-.25.378-.25.654 0 .294.1.528.298.7.205.167.486.25.845.25zm5.688.653c-.557 0-1.015-.118-1.373-.355a1.412 1.412 0 01-.634-.96h.912c.045.16.163.291.355.393.199.103.445.154.74.154h.451c.314 0 .557-.074.73-.22a.71.71 0 00.269-.577c0-.256-.087-.458-.26-.605-.166-.147-.412-.22-.739-.22h-1.162v-.75h1.133c.295 0 .519-.07.672-.21a.72.72 0 00.231-.558.728.728 0 00-.106-.403.611.611 0 00-.297-.25 1.242 1.242 0 00-.49-.086h-.48c-.256 0-.477.057-.663.173-.185.115-.297.256-.336.422h-.912c.064-.397.272-.723.624-.98.352-.255.781-.383 1.287-.383h.48c.378 0 .7.06.97.182a1.324 1.324 0 01.835 1.277c0 .314-.102.573-.307.778-.205.198-.493.31-.864.336v.038c.454.032.784.154.989.365.205.212.307.516.307.913 0 .467-.173.838-.518 1.113-.346.276-.81.413-1.393.413h-.451zm3.94 1.661v-7.01h.863v1.009h.173l-.173.202c0-.404.132-.72.394-.95.269-.238.621-.356 1.056-.356.532 0 .954.176 1.268.528.32.346.48.822.48 1.43v1.547c0 .403-.074.752-.22 1.046a1.57 1.57 0 01-.606.682c-.256.16-.563.24-.922.24-.428 0-.777-.118-1.046-.355-.27-.237-.404-.554-.404-.95l.173.2h-.192l.02 1.201v1.536h-.865zm2.025-2.38c.365 0 .65-.11.855-.327.211-.218.317-.532.317-.941v-1.44c0-.41-.106-.724-.317-.942-.205-.217-.49-.326-.855-.326-.352 0-.633.112-.845.336-.21.224-.317.534-.317.931v1.44c0 .398.106.708.317.932.212.224.493.336.845.336zm5.197.748c-.556 0-.995-.14-1.315-.422-.32-.288-.48-.676-.48-1.162 0-.493.16-.88.48-1.162.32-.282.752-.423 1.296-.423h1.633V57.4c0-.326-.1-.576-.298-.749-.192-.179-.467-.269-.826-.269-.313 0-.576.068-.787.202a.717.717 0 00-.365.528h-.864c.057-.454.272-.816.643-1.085s.836-.403 1.392-.403c.609 0 1.089.157 1.44.47.353.314.529.74.529 1.277V61H40.8v-1.008h-.144l.144-.144c0 .384-.15.688-.451.912-.295.224-.689.336-1.181.336zm.212-.682c.41 0 .746-.102 1.008-.307a.956.956 0 00.394-.787v-.75h-1.614c-.288 0-.515.08-.681.24-.167.16-.25.378-.25.654 0 .294.1.528.298.7.205.167.486.25.845.25zm5.936.682c-.62 0-1.113-.182-1.478-.547-.359-.372-.538-.877-.538-1.517V56.63c0-.845.211-1.495.634-1.95.422-.46 1.027-.69 1.815-.69h1.344v.864h-1.344c-.519 0-.913.153-1.182.46-.268.301-.403.74-.403 1.316v.624h.135l-.135.192c.007-.378.135-.672.384-.883.25-.212.59-.317 1.018-.317.557 0 .99.18 1.296.538.314.358.47.851.47 1.478v.769c0 .429-.08.797-.24 1.104-.16.307-.39.544-.69.71-.301.167-.663.25-1.086.25zm0-.768c.372 0 .657-.112.855-.336.198-.224.298-.544.298-.96v-.769c0-.416-.1-.736-.298-.96-.199-.224-.483-.336-.855-.336-.37 0-.656.112-.854.336-.199.218-.298.538-.298.96v.769c0 .416.1.736.298.96.198.224.483.336.854.336zm5.687.749c-.422 0-.787-.08-1.094-.24a1.743 1.743 0 01-.72-.692c-.167-.307-.25-.669-.25-1.085v-1.402c0-.422.083-.784.25-1.085.172-.3.412-.53.72-.691.307-.16.672-.24 1.094-.24.423 0 .788.08 1.095.24.307.16.544.39.71.691.173.301.26.66.26 1.076v1.411c0 .416-.087.778-.26 1.085a1.68 1.68 0 01-.71.692c-.307.16-.672.24-1.095.24zm0-.768c.378 0 .672-.106.884-.317.211-.211.317-.522.317-.932v-1.402c0-.41-.106-.72-.317-.931-.212-.211-.506-.317-.884-.317-.371 0-.665.106-.883.317-.211.211-.317.522-.317.931v1.402c0 .41.106.72.317.932.218.211.512.317.883.317zm5.255.691v-4.523h-1.92v-.758h4.705v.758h-1.92V61h-.865zm5.658.096c-.557 0-.995-.14-1.315-.422-.32-.288-.48-.676-.48-1.162 0-.493.16-.88.48-1.162.32-.282.752-.423 1.296-.423h1.633V57.4c0-.326-.1-.576-.298-.749-.192-.179-.468-.269-.826-.269-.314 0-.576.068-.787.202a.717.717 0 00-.365.528h-.864c.057-.454.272-.816.643-1.085s.835-.403 1.392-.403c.608 0 1.089.157 1.44.47.353.314.529.74.529 1.277V61h-.845v-1.008h-.144l.144-.144c0 .384-.15.688-.452.912-.294.224-.688.336-1.18.336zm.212-.682c.41 0 .745-.102 1.008-.307a.956.956 0 00.394-.787v-.75h-1.614c-.288 0-.515.08-.681.24-.167.16-.25.378-.25.654 0 .294.1.528.298.7.204.167.486.25.845.25zm3.296.653v-.806h.172c.295 0 .5-.116.615-.346.122-.23.186-.643.192-1.239l.058-2.957h3.581V61h-.864v-4.494h-1.863l-.048 2.209c-.013.557-.077 1.008-.192 1.354-.109.345-.281.598-.518.758-.23.16-.535.24-.913.24h-.22zm6.35-.067v-5.281h.825v2.88c0 .186-.007.381-.02.586-.006.205-.019.4-.038.586a6.09 6.09 0 01-.048.46l2.132-4.512h1.104V61h-.826v-2.88c0-.186.004-.381.01-.586.013-.205.029-.4.048-.586l.048-.47L72.876 61h-1.104zm13.37.096a2.46 2.46 0 01-1.114-.24 1.73 1.73 0 01-.73-.691 2.19 2.19 0 01-.259-1.085v-1.44c0-.423.087-.785.26-1.086.172-.3.416-.531.73-.691.32-.16.69-.24 1.113-.24.608 0 1.098.163 1.47.49.37.326.566.77.585 1.334h-.864c-.02-.34-.135-.598-.346-.778-.205-.185-.486-.278-.845-.278-.377 0-.678.109-.902.326-.224.212-.337.516-.337.913v1.45c0 .397.113.704.337.921.224.218.525.327.902.327.359 0 .64-.093.845-.279.212-.185.327-.444.346-.777h.864c-.02.563-.214 1.008-.586 1.334-.37.327-.86.49-1.469.49zM90.38 61v-4.523h-1.92v-.758h4.704v.758h-1.92V61h-.864zm4.122 1.728v-7.01h.864v1.009h.173l-.173.202c0-.404.131-.72.394-.95.268-.238.62-.356 1.056-.356.531 0 .954.176 1.267.528.32.346.48.822.48 1.43v1.547c0 .403-.073.752-.22 1.046a1.57 1.57 0 01-.605.682c-.256.16-.564.24-.922.24-.43 0-.778-.118-1.047-.355-.269-.237-.403-.554-.403-.95l.173.2h-.192l.019 1.201v1.536H94.5zm2.026-2.38c.365 0 .65-.11.854-.327.212-.218.317-.532.317-.941v-1.44c0-.41-.105-.724-.317-.942-.204-.217-.49-.326-.854-.326-.352 0-.634.112-.845.336-.212.224-.317.534-.317.931v1.44c0 .398.106.708.317.932.211.224.493.336.845.336zm4.486 2.38l.778-2.055-1.959-4.954h.961l1.229 3.264c.044.11.086.24.124.394.039.148.071.272.096.375l.096-.375a4.42 4.42 0 01.116-.394l1.152-3.264h.931l-2.602 7.01h-.922zm4.91-1.728v-5.281h.864v2.18h.902l1.537-2.18h.989l-1.777 2.516L110.244 61h-1.009l-1.536-2.352h-.912V61h-.864zm7.204 0v-4.523h-1.921v-.758h4.705v.758h-1.92V61h-.864zm4.947 1.728l.778-2.055-1.959-4.954h.96l1.229 3.264c.045.11.087.24.125.394.039.148.071.272.096.375l.096-.375a4.42 4.42 0 01.116-.394l1.152-3.264h.931l-2.602 7.01h-.922zm4.861 0v-7.01h.865v1.009h.172l-.172.202c0-.404.131-.72.393-.95.269-.238.621-.356 1.057-.356.531 0 .953.176 1.267.528.32.346.48.822.48 1.43v1.547c0 .403-.074.752-.221 1.046a1.568 1.568 0 01-.605.682c-.256.16-.563.24-.921.24-.429 0-.778-.118-1.047-.355-.269-.237-.403-.554-.403-.95l.172.2h-.192l.02 1.201v1.536h-.865zm2.026-2.38c.365 0 .65-.11.855-.327.211-.218.317-.532.317-.941v-1.44c0-.41-.106-.724-.317-.942-.205-.217-.49-.326-.855-.326-.352 0-.633.112-.845.336-.211.224-.316.534-.316.931v1.44c0 .398.105.708.316.932.212.224.493.336.845.336zm4.487 2.38l.778-2.055-1.959-4.954h.96l1.229 3.264c.045.11.087.24.125.394.039.148.071.272.096.375l.096-.375c.039-.153.077-.285.115-.394l1.153-3.264h.931l-2.602 7.01h-.922zm5.562-.192l.768-2.986h1.249l-1.249 2.986h-.768zM14.903 80v-5.281h3.956V80h-.865v-4.494h-2.227V80h-.864zm7.665.077c-.423 0-.788-.08-1.095-.24a1.743 1.743 0 01-.72-.692c-.167-.307-.25-.668-.25-1.085v-1.402c0-.422.083-.784.25-1.085.173-.3.413-.53.72-.691.307-.16.672-.24 1.095-.24.422 0 .787.08 1.094.24.308.16.544.39.71.691.174.301.26.66.26 1.076v1.411c0 .416-.086.778-.26 1.085a1.675 1.675 0 01-.71.692c-.307.16-.672.24-1.094.24zm0-.768c.377 0 .672-.106.883-.317.211-.212.317-.522.317-.932v-1.402c0-.41-.106-.72-.317-.931-.211-.211-.506-.317-.883-.317-.372 0-.666.106-.884.317-.211.211-.317.522-.317.931v1.402c0 .41.106.72.317.932.218.211.512.317.884.317zm5.437.758c-.557 0-1.015-.118-1.373-.355a1.412 1.412 0 01-.634-.96h.912c.045.16.163.291.355.393.199.103.445.154.74.154h.451c.314 0 .557-.074.73-.22a.71.71 0 00.269-.577c0-.256-.087-.458-.26-.605-.166-.147-.412-.22-.739-.22h-1.162v-.75h1.133c.295 0 .519-.07.672-.21a.72.72 0 00.231-.558.728.728 0 00-.106-.403.611.611 0 00-.297-.25 1.242 1.242 0 00-.49-.086h-.48c-.256 0-.477.057-.663.173-.185.115-.297.256-.336.422h-.912c.064-.397.272-.723.624-.98.352-.255.781-.383 1.287-.383h.48c.378 0 .7.06.97.182a1.324 1.324 0 01.835 1.277c0 .314-.102.573-.307.778-.205.198-.493.31-.864.336v.038c.454.032.784.154.989.365.205.212.307.516.307.912 0 .468-.173.84-.518 1.114-.346.276-.81.413-1.393.413h-.451zM31.963 80v-5.281h2.286c.55 0 .976.125 1.277.374.3.243.451.586.451 1.028 0 .365-.125.66-.374.883-.25.218-.58.327-.99.327v-.077c.449 0 .807.112 1.076.336.275.224.413.525.413.903 0 .473-.16.845-.48 1.113-.32.263-.768.394-1.344.394h-2.315zm.845-.759h1.47c.307 0 .544-.067.71-.201a.679.679 0 00.26-.567c0-.25-.087-.441-.26-.576-.166-.134-.403-.202-.71-.202h-1.47v1.546zm0-2.294h1.44c.27 0 .48-.065.635-.193.16-.128.24-.307.24-.537 0-.23-.077-.41-.23-.538-.154-.134-.369-.202-.644-.202h-1.44v1.47zm6.82 3.13c-.422 0-.787-.08-1.094-.24a1.743 1.743 0 01-.72-.692c-.167-.307-.25-.668-.25-1.085v-1.402c0-.422.083-.784.25-1.085.172-.3.413-.53.72-.691.307-.16.672-.24 1.094-.24.423 0 .788.08 1.095.24.307.16.544.39.71.691.173.301.26.66.26 1.076v1.411c0 .416-.087.778-.26 1.085a1.68 1.68 0 01-.71.692c-.307.16-.672.24-1.095.24zm0-.768c.378 0 .673-.106.884-.317.211-.212.317-.522.317-.932v-1.402c0-.41-.106-.72-.317-.931-.211-.211-.506-.317-.884-.317-.37 0-.665.106-.883.317-.211.211-.317.522-.317.931v1.402c0 .41.106.72.317.932.218.211.512.317.883.317zm3.047.758v-.806h.173c.294 0 .499-.116.614-.346.122-.23.186-.643.192-1.239l.058-2.957h3.581V80h-.864v-4.494h-1.863l-.048 2.209c-.012.557-.076 1.008-.192 1.354-.108.345-.281.598-.518.758-.23.16-.535.24-.912.24h-.221zM48.698 80l1.354-2.036c-.404-.096-.717-.281-.941-.557-.218-.275-.327-.617-.327-1.027 0-.518.17-.925.51-1.22.345-.294.815-.441 1.41-.441h2.276V80h-.864v-1.968h-1.162L49.706 80h-1.008zm2.007-2.737h1.411v-1.776h-1.411c-.32 0-.573.08-.759.24-.185.154-.278.371-.278.653 0 .275.093.493.278.653.186.154.439.23.759.23zm6.81 2.833c-.442 0-.797-.15-1.066-.451-.269-.301-.403-.695-.403-1.181v-.797H55.2V80h-.797v-5.281h.797v2.256h.845v-.72c0-.493.131-.886.394-1.18.269-.302.627-.452 1.075-.452.474 0 .855.15 1.143.451.288.295.432.688.432 1.181v2.209c0 .486-.144.88-.432 1.18-.288.302-.67.452-1.143.452zm0-.672c.243 0 .432-.083.567-.25.14-.173.21-.41.21-.71v-2.209c0-.3-.07-.534-.21-.7-.135-.174-.324-.26-.567-.26a.667.667 0 00-.557.26c-.134.166-.201.4-.201.7v2.209c0 .3.067.537.201.71.135.167.32.25.557.25zm6.734 1.92V80H60.11v-5.281h.778v4.551h1.114v-4.55h.672v4.551h1.114V74.72h.778v4.551h.45v2.074h-.767zm2.643.384l.778-2.054-1.96-4.955h.96l1.23 3.265c.045.108.086.24.125.393l.096.375c.025-.103.057-.227.096-.375.038-.153.077-.285.115-.393l1.152-3.265h.932l-2.602 7.01h-.922zm7.684-1.632c-.442 0-.797-.15-1.066-.451-.269-.301-.403-.695-.403-1.181v-.797h-.845V80h-.797v-5.281h.797v2.256h.845v-.72c0-.493.131-.886.394-1.18.268-.302.627-.452 1.075-.452.474 0 .855.15 1.143.451.288.295.432.688.432 1.181v2.209c0 .486-.144.88-.432 1.18-.288.302-.67.452-1.143.452zm0-.672c.243 0 .432-.083.566-.25.141-.173.212-.41.212-.71v-2.209c0-.3-.07-.534-.212-.7-.134-.174-.323-.26-.566-.26a.666.666 0 00-.557.26c-.134.166-.202.4-.202.7v2.209c0 .3.068.537.202.71.134.167.32.25.557.25zm10.548.653c-.422 0-.787-.08-1.095-.24a1.743 1.743 0 01-.72-.692c-.166-.307-.25-.668-.25-1.085v-1.402c0-.422.084-.784.25-1.085.173-.3.413-.53.72-.691.308-.16.672-.24 1.095-.24.422 0 .787.08 1.095.24.307.16.544.39.71.691.173.301.26.66.26 1.076v1.411c0 .416-.087.778-.26 1.085a1.68 1.68 0 01-.71.692c-.308.16-.672.24-1.095.24zm0-.768c.378 0 .672-.106.883-.317.212-.212.317-.522.317-.932v-1.402c0-.41-.105-.72-.317-.931-.21-.211-.505-.317-.883-.317-.371 0-.666.106-.883.317-.212.211-.317.522-.317.931v1.402c0 .41.105.72.317.932.217.211.512.317.883.317zm5.255.691v-4.523h-1.92v-.758h4.704v.758h-1.92V80h-.864zm6.138.096a2.46 2.46 0 01-1.114-.24 1.73 1.73 0 01-.73-.691 2.19 2.19 0 01-.259-1.085v-1.44c0-.423.087-.785.26-1.086.172-.3.416-.531.73-.691.32-.16.69-.24 1.113-.24.608 0 1.098.163 1.47.49.37.326.566.77.585 1.334h-.864c-.02-.34-.135-.598-.346-.778-.205-.185-.486-.278-.845-.278-.378 0-.678.109-.902.326-.224.212-.337.516-.337.913v1.45c0 .397.112.704.337.921.224.218.524.327.902.327.359 0 .64-.093.845-.279.211-.185.327-.445.346-.777h.864c-.02.563-.215 1.008-.586 1.334-.371.327-.86.49-1.469.49zm3.027-.029v-.806h.173c.295 0 .499-.116.615-.346.121-.23.185-.643.192-1.239l.057-2.957h3.582V80h-.864v-4.494h-1.863l-.048 2.209c-.013.557-.077 1.008-.192 1.354-.109.345-.282.598-.519.758-.23.16-.534.24-.912.24h-.22zm8.328.029c-.416 0-.781-.083-1.095-.25a1.81 1.81 0 01-.72-.7 2.208 2.208 0 01-.25-1.066v-1.44c0-.41.084-.766.25-1.067.173-.3.413-.534.72-.7.314-.167.679-.25 1.095-.25.416 0 .778.083 1.085.25.314.166.554.4.72.7.173.301.259.657.259 1.066v.932h-3.284v.509c0 .416.106.736.317.96.211.217.512.326.903.326.333 0 .602-.057.806-.173a.76.76 0 00.375-.537h.864a1.471 1.471 0 01-.653 1.056c-.371.256-.835.384-1.392.384zm1.219-3.102v-.355c0-.416-.105-.736-.317-.96-.204-.224-.505-.336-.902-.336-.391 0-.692.112-.903.336-.211.224-.317.544-.317.96v.279h2.506l-.067.076zm1.76 3.006l1.152-2.708-1.075-2.573h.835l.922 2.304h.509V74.72h.73v2.304h.489l.951-2.304h.826l-1.076 2.544L116.267 80h-.865l-.96-2.4h-.518V80h-.73v-2.4h-.519l-.969 2.4h-.855zm6.417 0v-5.281h.825v2.88c0 .186-.006.381-.019.586-.006.205-.019.4-.038.586-.013.18-.029.333-.048.46l2.131-4.512h1.105V80h-.826v-2.88c0-.186.003-.382.01-.586.012-.205.028-.4.048-.586l.048-.47L118.372 80h-1.104zm5.687 0v-5.281h2.285c.55 0 .976.125 1.277.374.301.243.451.586.451 1.028 0 .365-.125.66-.374.883-.25.218-.58.327-.989.327v-.077c.448 0 .806.112 1.075.336.276.224.413.525.413.903 0 .473-.16.845-.48 1.113-.32.263-.768.394-1.344.394h-2.314zm.845-.759h1.469c.307 0 .544-.067.71-.201a.679.679 0 00.26-.567c0-.25-.087-.441-.26-.576-.166-.134-.403-.202-.71-.202H123.8v1.546zm0-2.294h1.44c.269 0 .48-.065.634-.193.16-.128.24-.307.24-.537 0-.23-.077-.41-.231-.538-.153-.134-.368-.202-.643-.202h-1.44v1.47zm6.359 3.149c-.557 0-.996-.14-1.316-.422-.32-.289-.48-.676-.48-1.162 0-.493.16-.88.48-1.162.32-.282.752-.423 1.296-.423h1.633V76.4c0-.326-.099-.576-.298-.749-.192-.179-.467-.269-.826-.269-.313 0-.576.068-.787.202a.718.718 0 00-.365.528h-.864c.058-.454.272-.816.643-1.085.372-.269.836-.403 1.393-.403.608 0 1.088.157 1.44.47.352.314.528.74.528 1.277V80h-.845v-1.008h-.144l.144-.144c0 .384-.15.688-.451.912-.295.224-.688.336-1.181.336zm.211-.682c.41 0 .746-.102 1.008-.307a.955.955 0 00.394-.787v-.75h-1.613c-.288 0-.516.08-.682.24-.167.16-.25.378-.25.654 0 .294.099.528.298.7.205.167.486.25.845.25zm5.504.586v-4.523h-1.92v-.758h4.705v.758h-1.92V80h-.865zm4.18 0v-5.281h.864v1.94h1.556c.595 0 1.062.15 1.402.45.345.295.518.702.518 1.22 0 .512-.173.919-.518 1.22-.346.3-.813.451-1.402.451h-2.42zm.864-.787h1.556c.332 0 .585-.074.758-.221.179-.154.269-.375.269-.663 0-.288-.09-.505-.269-.653-.173-.153-.426-.23-.758-.23h-1.556v1.767zM14.903 99v-5.281h3.956V99h-.865v-4.494h-2.227V99h-.864zm6.493 1.728l.778-2.054-1.959-4.955h.96l1.23 3.265c.044.108.086.24.124.393.039.148.07.272.096.375l.096-.375a4.44 4.44 0 01.116-.393l1.152-3.265h.931l-2.602 7.009h-.922zM27.822 99v-4.523h-1.92v-.758h4.705v.758h-1.92V99h-.865zm4.18 0v-5.281h.864v1.94h1.556c.595 0 1.062.15 1.402.45.345.295.518.702.518 1.22 0 .512-.173.919-.518 1.22-.346.3-.813.451-1.402.451h-2.42zm.864-.787h1.556c.333 0 .585-.074.758-.221.18-.154.269-.375.269-.663 0-.288-.09-.505-.269-.653-.173-.153-.425-.23-.758-.23h-1.556v1.767zm10.5.787v-5.281h.864v2.18h.903l1.536-2.18h.99l-1.777 2.516L47.687 99H46.68l-1.537-2.353h-.912V99h-.864zm4.996.067v-.806h.173c.294 0 .499-.116.614-.346.122-.23.186-.643.192-1.239l.058-2.957h3.581V99h-.864v-4.494h-1.863l-.048 2.209c-.012.557-.076 1.008-.192 1.354-.108.345-.281.598-.518.758-.23.16-.535.24-.912.24h-.221zm6.35-.067v-5.281h.825v2.88c0 .186-.006.381-.02.586-.006.205-.018.4-.038.586a6.09 6.09 0 01-.048.46l2.132-4.512h1.104V99h-.825v-2.88c0-.186.003-.382.01-.586.012-.205.028-.4.047-.586l.048-.47L55.815 99h-1.104zm7.664.096c-.416 0-.78-.083-1.094-.25a1.807 1.807 0 01-.72-.7 2.203 2.203 0 01-.25-1.066v-1.44c0-.41.083-.766.25-1.067.172-.3.412-.534.72-.7a2.29 2.29 0 011.094-.25c.416 0 .778.083 1.085.25.314.166.554.4.72.7.173.301.26.657.26 1.066v.932h-3.284v.509c0 .416.105.736.317.96.21.217.512.326.902.326.333 0 .602-.057.807-.173.205-.121.33-.3.374-.537h.864a1.47 1.47 0 01-.653 1.056c-.37.256-.835.384-1.392.384zm1.22-3.102v-.355c0-.416-.106-.736-.317-.96-.205-.224-.506-.336-.903-.336-.39 0-.691.112-.902.336-.212.224-.317.544-.317.96v.279h2.506l-.067.076zM66.086 99v-5.281h.863v2.199h2.228v-2.2h.864V99h-.864v-2.295h-2.228V99h-.864zm7.232 0v-4.523h-1.92v-.758h4.705v.758h-1.92V99h-.865zm5.658.096c-.557 0-.995-.14-1.315-.422-.32-.289-.48-.676-.48-1.162 0-.493.16-.88.48-1.162.32-.282.752-.423 1.296-.423h1.632V95.4c0-.326-.099-.576-.297-.749-.192-.179-.468-.269-.826-.269-.314 0-.576.068-.787.202a.717.717 0 00-.365.528h-.865c.058-.454.273-.816.644-1.085s.835-.403 1.392-.403c.608 0 1.088.157 1.44.47.353.314.529.74.529 1.277V99h-.845v-1.008h-.144l.144-.144c0 .384-.15.688-.452.912-.294.224-.688.336-1.18.336zm.211-.682c.41 0 .746-.102 1.009-.307a.956.956 0 00.393-.787v-.75h-1.613c-.288 0-.515.08-.682.24-.166.16-.25.378-.25.654 0 .294.1.528.298.7.205.167.487.25.845.25zm11.624.663c-.423 0-.787-.08-1.095-.24a1.743 1.743 0 01-.72-.692c-.166-.307-.25-.668-.25-1.085v-1.402c0-.422.084-.784.25-1.085.173-.3.413-.53.72-.691.308-.16.672-.24 1.095-.24.422 0 .787.08 1.095.24.307.16.544.39.71.691.173.301.26.66.26 1.076v1.411c0 .416-.087.778-.26 1.085a1.68 1.68 0 01-.71.692c-.308.16-.672.24-1.095.24zm0-.768c.378 0 .672-.106.883-.317.212-.212.317-.522.317-.932v-1.402c0-.41-.105-.72-.317-.931-.21-.211-.505-.317-.883-.317-.371 0-.666.106-.883.317-.212.211-.317.522-.317.931v1.402c0 .41.105.72.317.932.217.211.512.317.883.317zm5.255.691v-4.523h-1.92v-.758h4.704v.758h-1.92V99h-.864zm9.828 0v-5.281h3.956V99h-.864v-4.494h-2.228V99h-.864zm7.665.096c-.416 0-.781-.083-1.095-.25a1.81 1.81 0 01-.72-.7 2.208 2.208 0 01-.25-1.066v-1.44c0-.41.084-.766.25-1.067.173-.3.413-.534.72-.7.314-.167.679-.25 1.095-.25.416 0 .778.083 1.085.25.313.166.554.4.72.7.173.301.259.657.259 1.066v.932h-3.284v.509c0 .416.106.736.317.96.211.217.512.326.903.326.333 0 .601-.057.806-.173a.76.76 0 00.375-.537h.864a1.471 1.471 0 01-.653 1.056c-.371.256-.835.384-1.392.384zm1.219-3.102v-.355c0-.416-.105-.736-.317-.96-.204-.224-.505-.336-.902-.336-.391 0-.692.112-.903.336-.211.224-.317.544-.317.96v.279h2.506l-.067.076zm2.47 4.734v-7.01h.865v1.009h.172l-.172.202c0-.404.131-.72.393-.95.269-.238.621-.356 1.057-.356.531 0 .953.176 1.267.528.32.346.48.823.48 1.43v1.547c0 .403-.073.752-.221 1.046a1.568 1.568 0 01-.605.682c-.256.16-.563.24-.921.24-.429 0-.778-.118-1.047-.355-.269-.237-.403-.554-.403-.95l.172.2h-.192l.02 1.201v1.536h-.865zm2.027-2.38c.364 0 .649-.11.854-.327.211-.218.317-.532.317-.941v-1.44c0-.41-.106-.724-.317-.942-.205-.217-.49-.326-.854-.326-.353 0-.634.112-.845.336-.212.224-.317.534-.317.931v1.44c0 .398.105.708.317.932.211.224.492.336.845.336zm3.68.652v-5.281h2.285c.55 0 .976.125 1.277.374.301.243.451.586.451 1.028 0 .365-.125.66-.374.883-.25.218-.58.327-.989.327v-.077c.448 0 .806.112 1.075.336.276.224.413.525.413.903 0 .473-.16.845-.48 1.113-.32.263-.768.394-1.344.394h-2.314zm.845-.759h1.469c.307 0 .544-.067.71-.201a.679.679 0 00.26-.567c0-.25-.087-.441-.26-.576-.166-.134-.403-.202-.71-.202H123.8v1.546zm0-2.294h1.44c.269 0 .48-.065.634-.193.16-.128.24-.307.24-.537 0-.23-.077-.41-.231-.538-.153-.134-.368-.202-.643-.202h-1.44v1.47zm6.82 3.13c-.423 0-.788-.08-1.095-.24a1.745 1.745 0 01-.72-.692c-.167-.307-.25-.668-.25-1.085v-1.402c0-.422.083-.784.25-1.085.173-.3.413-.53.72-.691.307-.16.672-.24 1.095-.24.422 0 .787.08 1.094.24.308.16.544.39.711.691.173.301.259.66.259 1.076v1.411c0 .416-.086.778-.259 1.085a1.683 1.683 0 01-.711.692c-.307.16-.672.24-1.094.24zm0-.768c.377 0 .672-.106.883-.317.211-.212.317-.522.317-.932v-1.402c0-.41-.106-.72-.317-.931-.211-.211-.506-.317-.883-.317-.372 0-.666.106-.884.317-.211.211-.317.522-.317.931v1.402c0 .41.106.72.317.932.218.211.512.317.884.317zm4.054.691v-5.281h3.793v.787h-2.929V99h-.864zm7.319.077c-.422 0-.787-.08-1.094-.24a1.745 1.745 0 01-.72-.692c-.167-.307-.25-.668-.25-1.085v-1.402c0-.422.083-.784.25-1.085.173-.3.413-.53.72-.691.307-.16.672-.24 1.094-.24.423 0 .788.08 1.095.24.307.16.544.39.711.691.173.301.259.66.259 1.076v1.411c0 .416-.086.778-.259 1.085a1.689 1.689 0 01-.711.692c-.307.16-.672.24-1.095.24zm0-.768c.378 0 .673-.106.884-.317.211-.212.317-.522.317-.932v-1.402c0-.41-.106-.72-.317-.931-.211-.211-.506-.317-.884-.317-.371 0-.665.106-.883.317-.211.211-.317.522-.317.931v1.402c0 .41.106.72.317.932.218.211.512.317.883.317zM14.931 119v-5.281h.865v2.179h.902l1.537-2.179h.989l-1.777 2.516L19.252 119h-1.008l-1.536-2.353h-.912V119h-.865zm7.637.077c-.423 0-.788-.08-1.095-.24a1.743 1.743 0 01-.72-.692c-.167-.307-.25-.669-.25-1.085v-1.402c0-.422.083-.784.25-1.085.173-.3.413-.531.72-.691.307-.16.672-.24 1.095-.24.422 0 .787.08 1.094.24.308.16.544.391.71.691.174.301.26.66.26 1.076v1.411c0 .416-.086.778-.26 1.085a1.683 1.683 0 01-.71.692c-.307.16-.672.24-1.094.24zm0-.768c.377 0 .672-.106.883-.317.211-.211.317-.522.317-.932v-1.402c0-.409-.106-.72-.317-.931-.211-.211-.506-.317-.883-.317-.372 0-.666.106-.884.317-.211.211-.317.522-.317.931v1.402c0 .41.106.721.317.932.218.211.512.317.884.317zm3.708.691v-5.281h.865v2.199h2.227v-2.199h.865V119h-.865v-2.295h-2.227V119h-.864zm7.233 0v-4.523h-1.92v-.758h4.705v.758h-1.92V119h-.865zm5.658.096c-.556 0-.995-.141-1.315-.422-.32-.289-.48-.676-.48-1.162 0-.493.16-.881.48-1.162.32-.282.752-.423 1.296-.423h1.633v-.528c0-.326-.1-.576-.298-.749-.192-.179-.467-.269-.826-.269-.313 0-.576.068-.787.202a.717.717 0 00-.365.528h-.864c.057-.454.272-.816.643-1.085s.836-.403 1.392-.403c.609 0 1.089.157 1.44.47.353.314.529.74.529 1.277V119H40.8v-1.008h-.144l.144-.144c0 .384-.15.688-.451.912-.295.224-.689.336-1.181.336zm.212-.682c.41 0 .746-.102 1.008-.307a.955.955 0 00.394-.787v-.749h-1.614c-.288 0-.515.08-.681.24-.167.16-.25.377-.25.653 0 .294.1.528.298.701.205.166.486.249.845.249zm3.987.586v-5.281h.864v2.179h.903l1.536-2.179h.99l-1.777 2.516L47.687 119H46.68l-1.537-2.353h-.912V119h-.864zm7.204 0v-4.523h-1.92v-.758h4.705v.758h-1.92V119h-.865zm5.658.096c-.557 0-.995-.141-1.315-.422-.32-.289-.48-.676-.48-1.162 0-.493.16-.881.48-1.162.32-.282.752-.423 1.296-.423h1.633v-.528c0-.326-.1-.576-.298-.749-.192-.179-.467-.269-.826-.269-.314 0-.576.068-.787.202a.717.717 0 00-.365.528h-.864c.057-.454.272-.816.643-1.085s.835-.403 1.392-.403c.608 0 1.088.157 1.44.47.353.314.529.74.529 1.277V119h-.845v-1.008h-.144l.144-.144c0 .384-.15.688-.452.912-.294.224-.688.336-1.18.336zm.212-.682c.41 0 .745-.102 1.008-.307a.956.956 0 00.394-.787v-.749h-1.614c-.288 0-.515.08-.681.24-.167.16-.25.377-.25.653 0 .294.1.528.298.701.205.166.486.249.845.249zm9.03 1.93v-2.083h.433c.108-.109.22-.324.336-.644.121-.32.185-.726.192-1.219l.057-2.679h3.448v4.542h.672v2.083h-.768V119h-3.601v1.344h-.768zm1.345-2.083h2.256v-3.774h-1.766l-.039 1.93c-.006.506-.06.915-.163 1.229-.102.314-.198.519-.288.615zm6.935.816c-.422 0-.787-.08-1.094-.24a1.743 1.743 0 01-.72-.692c-.167-.307-.25-.669-.25-1.085v-1.402c0-.422.083-.784.25-1.085.172-.3.412-.531.72-.691.307-.16.672-.24 1.094-.24.423 0 .787.08 1.095.24.307.16.544.391.71.691.173.301.26.66.26 1.076v1.411c0 .416-.087.778-.26 1.085a1.683 1.683 0 01-.71.692c-.308.16-.672.24-1.095.24zm0-.768c.378 0 .672-.106.883-.317.212-.211.317-.522.317-.932v-1.402c0-.409-.105-.72-.317-.931-.21-.211-.505-.317-.883-.317-.371 0-.666.106-.883.317-.212.211-.317.522-.317.931v1.402c0 .41.106.721.317.932.217.211.512.317.883.317zm11.393.787a2.46 2.46 0 01-1.114-.24 1.733 1.733 0 01-.73-.691 2.188 2.188 0 01-.259-1.085v-1.441c0-.422.087-.784.26-1.085.172-.301.416-.531.73-.691.32-.16.69-.24 1.113-.24.608 0 1.098.163 1.47.489.37.327.566.772.585 1.335h-.864c-.02-.339-.135-.598-.346-.778-.205-.185-.486-.278-.845-.278-.377 0-.678.109-.902.326-.224.212-.337.516-.337.913v1.45c0 .396.113.704.337.921.224.218.525.327.902.327.359 0 .64-.093.845-.279.212-.185.327-.445.346-.777h.864c-.02.563-.214 1.008-.586 1.334-.37.327-.86.49-1.469.49zM90.38 119v-4.523h-1.92v-.758h4.704v.758h-1.92V119h-.864zm5.658.096c-.557 0-.995-.141-1.316-.422-.32-.289-.48-.676-.48-1.162 0-.493.16-.881.48-1.162.32-.282.753-.423 1.297-.423h1.632v-.528c0-.326-.1-.576-.297-.749-.192-.179-.468-.269-.826-.269-.314 0-.576.068-.788.202a.717.717 0 00-.365.528h-.864c.058-.454.272-.816.644-1.085.37-.269.835-.403 1.392-.403.608 0 1.088.157 1.44.47.352.314.528.74.528 1.277V119h-.845v-1.008h-.144l.144-.144c0 .384-.15.688-.45.912-.295.224-.69.336-1.182.336zm.211-.682c.41 0 .746-.102 1.008-.307a.956.956 0 00.394-.787v-.749h-1.613c-.288 0-.515.08-.682.24-.166.16-.25.377-.25.653 0 .294.1.528.298.701.205.166.487.249.845.249zm5.505.586v-4.523h-1.92v-.758h4.704v.758h-1.92V119h-.864zm4.947 1.728l.778-2.054-1.959-4.955h.96l1.23 3.265c.044.108.086.24.124.393.039.147.071.272.096.375l.096-.375c.039-.153.077-.285.116-.393l1.152-3.265h.931l-2.602 7.009h-.922zm6.878-1.632a2.46 2.46 0 01-1.114-.24 1.733 1.733 0 01-.73-.691 2.188 2.188 0 01-.259-1.085v-1.441c0-.422.087-.784.259-1.085.173-.301.416-.531.73-.691.32-.16.691-.24 1.114-.24.608 0 1.098.163 1.469.489.371.327.567.772.586 1.335h-.864c-.02-.339-.135-.598-.346-.778-.205-.185-.487-.278-.845-.278-.378 0-.679.109-.903.326-.224.212-.336.516-.336.913v1.45c0 .396.112.704.336.921.224.218.525.327.903.327.358 0 .64-.093.845-.279.211-.185.326-.445.346-.777h.864c-.019.563-.215 1.008-.586 1.334-.371.327-.861.49-1.469.49zm5.207 0c-.557 0-.996-.141-1.316-.422-.32-.289-.48-.676-.48-1.162 0-.493.16-.881.48-1.162.32-.282.752-.423 1.297-.423h1.632v-.528c0-.326-.099-.576-.298-.749-.192-.179-.467-.269-.825-.269-.314 0-.577.068-.788.202a.718.718 0 00-.365.528h-.864c.058-.454.272-.816.643-1.085.372-.269.836-.403 1.393-.403.608 0 1.088.157 1.44.47.352.314.528.74.528 1.277V119h-.845v-1.008h-.144l.144-.144c0 .384-.15.688-.451.912-.295.224-.688.336-1.181.336zm.211-.682c.41 0 .746-.102 1.008-.307a.954.954 0 00.394-.787v-.749h-1.613c-.288 0-.516.08-.682.24-.166.16-.25.377-.25.653 0 .294.1.528.298.701.205.166.487.249.845.249zM18.465 137.616l-1.94-2.305 1.93-2.304h1.018l-1.978 2.285 1.978 2.324h-1.008zm-2.237 0l-1.94-2.305 1.93-2.304h1.018l-1.978 2.285 1.978 2.324h-1.008zm4.362.384v-5.281h3.956V138h-.865v-4.494h-2.227V138h-.864zm7.665.077c-.423 0-.788-.08-1.095-.24a1.744 1.744 0 01-.72-.692c-.167-.307-.25-.669-.25-1.085v-1.402c0-.422.083-.784.25-1.085.173-.3.413-.531.72-.691.307-.16.672-.24 1.095-.24.422 0 .787.08 1.094.24.308.16.544.391.71.691.174.301.26.66.26 1.076v1.411c0 .416-.086.778-.26 1.085a1.683 1.683 0 01-.71.692c-.307.16-.672.24-1.095.24zm0-.768c.377 0 .672-.106.883-.317.211-.211.317-.522.317-.932v-1.402c0-.409-.106-.72-.317-.931-.211-.211-.506-.317-.884-.317-.37 0-.665.106-.883.317-.211.211-.317.522-.317.931v1.402c0 .41.106.721.317.932.218.211.512.317.884.317zm5.706.787a2.46 2.46 0 01-1.114-.24 1.733 1.733 0 01-.73-.691c-.173-.308-.26-.669-.26-1.085v-1.441c0-.422.087-.784.26-1.085.173-.301.416-.531.73-.691.32-.16.691-.24 1.114-.24.608 0 1.098.163 1.469.489.371.327.566.772.586 1.335h-.865c-.019-.339-.134-.598-.345-.778-.205-.185-.487-.278-.845-.278-.378 0-.679.109-.903.326-.224.212-.336.516-.336.913v1.45c0 .396.112.704.336.921.224.218.525.327.903.327.358 0 .64-.093.845-.279.21-.185.326-.445.345-.777h.865c-.02.563-.215 1.008-.586 1.334-.371.327-.861.49-1.47.49zm5.235-.096v-4.523h-1.92v-.758h4.705v.758h-1.92V138h-.865zm6.12.077c-.423 0-.788-.08-1.095-.24a1.743 1.743 0 01-.72-.692c-.167-.307-.25-.669-.25-1.085v-1.402c0-.422.083-.784.25-1.085.172-.3.413-.531.72-.691.307-.16.672-.24 1.094-.24.423 0 .788.08 1.095.24.307.16.544.391.71.691.173.301.26.66.26 1.076v1.411c0 .416-.087.778-.26 1.085a1.683 1.683 0 01-.71.692c-.307.16-.672.24-1.095.24zm0-.768c.377 0 .671-.106.883-.317.211-.211.317-.522.317-.932v-1.402c0-.409-.106-.72-.317-.931-.212-.211-.506-.317-.884-.317-.37 0-.665.106-.883.317-.211.211-.317.522-.317.931v1.402c0 .41.106.721.317.932.218.211.512.317.883.317zm3.382.691l1.354-2.036c-.404-.096-.717-.281-.941-.557-.218-.275-.327-.617-.327-1.027 0-.519.17-.925.51-1.219.345-.295.815-.442 1.41-.442h2.276V138h-.864v-1.968h-1.162L49.706 138h-1.008zm2.007-2.737h1.411v-1.776h-1.411c-.32 0-.573.08-.759.24-.185.154-.278.371-.278.653 0 .275.093.493.278.653.186.154.439.23.759.23zM54.71 138v-5.281h.864v2.199h2.228v-2.199h.864V138h-.864v-2.295h-2.228V138h-.864zm5.687 0v-5.281h.864v2.199h2.228v-2.199h.864V138h-.864v-2.295h-2.228V138h-.864zm5.409 0v-5.281h.806v1.939h.432c.57 0 1.018.151 1.345.452.332.294.499.701.499 1.219 0 .519-.166.928-.5 1.229-.326.295-.774.442-1.344.442h-1.238zm.806-.691h.432c.34 0 .602-.087.788-.26.192-.172.288-.413.288-.72s-.096-.547-.288-.72c-.186-.173-.448-.259-.788-.259h-.432v1.959zm2.9.691v-5.281h.807V138h-.807zm2.26 0v-5.281h.825v2.88c0 .186-.007.381-.02.586-.006.205-.019.4-.038.586a6.11 6.11 0 01-.048.461l2.132-4.513h1.104V138h-.826v-2.881c0-.185.004-.381.01-.585.013-.205.029-.4.048-.586l.048-.471L72.876 138h-1.104zm2.016-6.145c-.461 0-.833-.128-1.114-.384-.282-.257-.423-.593-.423-1.009h.682c0 .25.077.452.23.605.154.154.359.231.615.231.262 0 .47-.077.624-.231a.8.8 0 00.24-.605h.682c0 .416-.141.752-.423 1.009-.281.256-.653.384-1.114.384zM83.174 138v-5.281h.864v2.179h.903l1.536-2.179h.989l-1.776 2.516L87.496 138h-1.008l-1.537-2.353h-.912V138h-.864zm4.995.067v-.806h.173c.295 0 .5-.116.615-.346.121-.23.185-.643.192-1.239l.057-2.957h3.582V138h-.864v-4.494h-1.863l-.048 2.209c-.013.557-.077 1.008-.192 1.354-.109.345-.282.598-.519.758-.23.16-.534.24-.912.24h-.22zm6.35-.067v-5.281h.826v2.88c0 .186-.007.381-.02.586a8.2 8.2 0 01-.038.586 6.11 6.11 0 01-.048.461l2.132-4.513h1.104V138h-.826v-2.881c0-.185.003-.381.01-.585.013-.205.029-.4.048-.586l.048-.471L95.624 138H94.52zm7.665.096c-.416 0-.781-.083-1.095-.25a1.805 1.805 0 01-.72-.701 2.205 2.205 0 01-.25-1.065v-1.441c0-.409.084-.765.25-1.066.173-.3.413-.534.72-.701a2.31 2.31 0 011.095-.249c.416 0 .778.083 1.085.249.314.167.554.401.72.701.173.301.259.657.259 1.066v.932h-3.284v.509c0 .416.106.736.317.96.212.217.512.326.903.326.333 0 .602-.057.806-.173a.76.76 0 00.375-.537h.864a1.47 1.47 0 01-.653 1.056c-.371.256-.835.384-1.392.384zm1.219-3.101v-.356c0-.416-.105-.736-.317-.96-.204-.224-.505-.336-.902-.336-.391 0-.691.112-.903.336-.211.224-.317.544-.317.96v.279h2.507l-.068.077zm2.49 3.005v-5.281h.864v2.199h2.228v-2.199h.864V138h-.864v-2.295h-2.228V138h-.864zm7.233 0v-4.523h-1.921v-.758h4.705v.758h-1.92V138h-.864zm5.773-.384l1.94-2.314-1.95-2.295h1.009l1.939 2.304-1.93 2.305H118.9zm-2.237 0l1.939-2.314-1.949-2.295h1.008l1.94 2.304-1.93 2.305h-1.008zm8.27.48c-.244 0-.439-.07-.586-.211-.141-.141-.211-.33-.211-.567 0-.249.07-.448.211-.595.147-.147.342-.221.586-.221.243 0 .435.074.576.221.147.147.221.346.221.595 0 .237-.074.426-.221.567-.141.141-.333.211-.576.211zm-108.012-121c-.423 0-.792-.08-1.105-.24a1.743 1.743 0 01-.72-.691c-.167-.308-.25-.67-.25-1.085v-3.17c0-.422.083-.783.25-1.084.172-.301.412-.532.72-.692.313-.16.682-.24 1.104-.24.423 0 .787.084 1.095.25.307.16.544.39.71.691.167.301.25.66.25 1.076h-.864c0-.397-.106-.701-.317-.912-.205-.218-.496-.327-.874-.327s-.675.106-.893.317c-.211.211-.317.515-.317.912v3.179c0 .396.106.704.317.921.218.212.515.317.893.317s.669-.105.874-.317c.211-.217.317-.525.317-.921h.864c0 .41-.083.768-.25 1.075a1.75 1.75 0 01-.71.701c-.308.16-.672.24-1.095.24zm5.648-.02c-.423 0-.788-.08-1.095-.24a1.743 1.743 0 01-.72-.69c-.167-.308-.25-.67-.25-1.086v-1.402c0-.422.083-.784.25-1.085.173-.3.413-.53.72-.691.307-.16.672-.24 1.095-.24.422 0 .787.08 1.094.24.308.16.544.39.71.691.174.301.26.66.26 1.076v1.411c0 .416-.086.778-.26 1.085a1.675 1.675 0 01-.71.692c-.307.16-.672.24-1.094.24zm0-.767c.377 0 .672-.106.883-.317.211-.212.317-.522.317-.932v-1.402c0-.41-.106-.72-.317-.931-.211-.211-.506-.317-.883-.317-.372 0-.666.106-.884.317-.211.211-.317.522-.317.931v1.402c0 .41.106.72.317.932.218.211.512.317.884.317zm5.437.758c-.557 0-1.015-.118-1.373-.355a1.412 1.412 0 01-.634-.96h.912c.045.16.163.291.355.393.199.103.445.154.74.154h.451c.314 0 .557-.074.73-.22a.71.71 0 00.269-.577c0-.256-.087-.458-.26-.605-.166-.147-.412-.22-.739-.22h-1.162v-.75h1.133c.295 0 .519-.07.672-.21a.72.72 0 00.231-.558.728.728 0 00-.106-.403.611.611 0 00-.297-.25 1.242 1.242 0 00-.49-.086h-.48c-.256 0-.477.057-.663.173-.185.115-.297.256-.336.422h-.912c.064-.397.272-.723.624-.98.352-.255.781-.383 1.287-.383h.48c.378 0 .7.06.97.182a1.324 1.324 0 01.835 1.277c0 .314-.102.573-.307.778-.205.198-.493.31-.864.336v.038c.454.032.784.154.989.365.205.211.307.516.307.912 0 .468-.173.84-.518 1.114-.346.276-.81.413-1.393.413h-.451zm3.344 1.277v-2.083h.432c.109-.11.22-.324.336-.644.122-.32.186-.726.192-1.22l.058-2.678h3.447v4.542h.672v2.083h-.768V17h-3.6v1.344h-.77zm1.344-2.083h2.257v-3.774h-1.767l-.038 1.93c-.007.506-.061.915-.164 1.23-.102.313-.198.518-.288.614zm6.474.835c-.556 0-.995-.14-1.315-.422-.32-.288-.48-.676-.48-1.162 0-.493.16-.88.48-1.162.32-.282.752-.423 1.296-.423h1.633V13.4c0-.326-.1-.576-.298-.749-.192-.179-.467-.269-.826-.269-.313 0-.576.068-.787.202a.717.717 0 00-.365.528h-.864c.057-.454.272-.816.643-1.085s.836-.403 1.392-.403c.609 0 1.089.157 1.44.47.353.314.529.74.529 1.277V17H40.8v-1.008h-.144l.144-.144c0 .384-.15.688-.451.912-.295.224-.689.336-1.181.336zm.212-.682c.41 0 .746-.102 1.008-.307a.956.956 0 00.394-.787v-.75h-1.614c-.288 0-.515.08-.681.24-.167.16-.25.378-.25.654 0 .294.1.528.298.7.205.167.486.25.845.25zm3.958.586v-5.281h.864v2.199h2.228v-2.2h.864V17h-.864v-2.295h-2.227V17h-.865zm5.687 0v-5.281h.826v2.88c0 .186-.006.381-.02.586-.005.205-.018.4-.038.586-.012.18-.028.333-.048.46l2.132-4.512h1.104V17h-.825v-2.88c0-.186.003-.381.01-.586.012-.205.028-.4.047-.586l.048-.47L50.13 17h-1.105zm7.665.096c-.416 0-.78-.083-1.094-.25a1.807 1.807 0 01-.72-.7 2.202 2.202 0 01-.25-1.066v-1.44c0-.41.083-.766.25-1.067.172-.3.412-.534.72-.7a2.29 2.29 0 011.094-.25c.416 0 .778.083 1.085.25.314.166.554.4.72.7.173.301.26.656.26 1.066v.932H55.47v.509c0 .416.105.736.317.96.21.217.512.326.902.326.333 0 .602-.057.807-.173.205-.121.33-.3.374-.537h.864a1.47 1.47 0 01-.652 1.056c-.372.256-.836.384-1.393.384zm1.22-3.101v-.356c0-.416-.106-.736-.317-.96-.205-.224-.506-.336-.903-.336-.39 0-.691.112-.902.336-.212.224-.317.544-.317.96v.279h2.506l-.067.077zM66.085 17v-5.281h3.956V17h-.864v-4.494h-2.228V17h-.864zm5.668 1.728v-7.01h.864v1.009h.173l-.173.202c0-.404.131-.72.394-.95.269-.238.62-.356 1.056-.356.531 0 .954.176 1.268.528.32.346.48.822.48 1.43v1.547c0 .403-.074.752-.221 1.046a1.57 1.57 0 01-.605.682c-.256.16-.564.24-.922.24-.429 0-.778-.118-1.047-.355-.269-.237-.403-.554-.403-.95l.173.2h-.192l.02 1.201v1.536h-.865zm2.026-2.38c.365 0 .65-.11.855-.327.21-.218.316-.532.316-.941v-1.44c0-.41-.105-.724-.317-.942-.204-.217-.49-.326-.854-.326-.352 0-.634.112-.845.336-.211.224-.317.534-.317.931v1.44c0 .397.106.708.317.932.211.224.493.336.845.336zm5.658.729c-.422 0-.787-.08-1.095-.24a1.743 1.743 0 01-.72-.692c-.166-.307-.25-.668-.25-1.085v-1.402c0-.422.084-.784.25-1.085.173-.3.413-.53.72-.691.308-.16.673-.24 1.095-.24.423 0 .787.08 1.095.24.307.16.544.39.71.691.173.301.26.66.26 1.076v1.411c0 .416-.087.778-.26 1.085a1.68 1.68 0 01-.71.692c-.308.16-.672.24-1.095.24zm0-.768c.378 0 .672-.106.883-.317.212-.212.317-.522.317-.932v-1.402c0-.41-.105-.72-.317-.931-.21-.211-.505-.317-.883-.317-.371 0-.666.106-.883.317-.212.211-.317.522-.317.931v1.402c0 .41.105.72.317.932.217.211.512.317.883.317zm5.437.758c-.557 0-1.014-.118-1.373-.355a1.411 1.411 0 01-.633-.96h.912c.044.16.163.291.355.393.198.103.445.154.74.154h.45c.314 0 .558-.074.73-.22a.71.71 0 00.27-.577c0-.256-.087-.458-.26-.605-.166-.147-.413-.22-.74-.22h-1.161v-.75h1.133c.294 0 .518-.07.672-.21a.72.72 0 00.23-.558.728.728 0 00-.105-.403.61.61 0 00-.298-.25 1.242 1.242 0 00-.49-.086h-.48c-.256 0-.477.057-.662.173-.186.115-.298.256-.336.422h-.913c.064-.397.273-.723.625-.98.352-.255.78-.383 1.286-.383h.48c.378 0 .701.06.97.182.27.115.474.282.615.5.147.217.22.476.22.777 0 .314-.102.573-.307.778-.204.198-.493.31-.864.336v.038c.455.032.784.154.99.365.204.211.306.516.306.912 0 .468-.172.84-.518 1.114-.346.276-.81.413-1.392.413h-.452zm3.94 1.661v-7.01h.864v1.009h.173l-.173.202c0-.404.131-.72.394-.95.269-.238.62-.356 1.056-.356.531 0 .954.176 1.267.528.32.346.48.822.48 1.43v1.547c0 .403-.073.752-.22 1.046a1.57 1.57 0 01-.605.682c-.256.16-.564.24-.922.24-.43 0-.778-.118-1.047-.355-.269-.237-.403-.554-.403-.95l.173.2h-.192l.019 1.201v1.536h-.864zm2.026-2.38c.365 0 .65-.11.854-.327.212-.218.317-.532.317-.941v-1.44c0-.41-.105-.724-.317-.942-.204-.217-.49-.326-.854-.326-.352 0-.634.112-.845.336-.212.224-.317.534-.317.931v1.44c0 .397.106.708.317.932.211.224.493.336.845.336zm5.197.748c-.557 0-.995-.14-1.316-.422-.32-.288-.48-.676-.48-1.162 0-.493.16-.88.48-1.162.32-.282.753-.423 1.297-.423h1.632V13.4c0-.326-.1-.576-.297-.749-.192-.179-.468-.269-.826-.269-.314 0-.576.068-.788.202a.717.717 0 00-.365.528h-.864c.058-.454.272-.816.644-1.085.37-.269.835-.403 1.392-.403.608 0 1.088.157 1.44.47.352.314.528.74.528 1.277V17h-.845v-1.008h-.144l.144-.144c0 .384-.15.688-.45.912-.295.224-.69.336-1.182.336zm.211-.682c.41 0 .746-.102 1.008-.307a.956.956 0 00.394-.787v-.75h-1.613c-.288 0-.515.08-.682.24-.166.16-.25.378-.25.654 0 .294.1.528.298.7.205.167.487.25.845.25zm6.993.586v-1.92a4.18 4.18 0 01-.47.076 7.02 7.02 0 01-.653.03c-.653.006-1.162-.151-1.527-.471-.359-.327-.538-.781-.538-1.364V11.72h.864v1.632c0 .327.109.586.327.778.224.186.531.278.922.278.269 0 .496-.01.681-.028.192-.026.324-.048.394-.068V11.72h.864V17h-.864zm2.653 0v-5.281h.864v2.199h2.228v-2.2h.864V17h-.864v-2.295h-2.228V17h-.864zm7.665.077c-.423 0-.788-.08-1.095-.24a1.745 1.745 0 01-.72-.692c-.166-.307-.25-.668-.25-1.085v-1.402c0-.422.084-.784.25-1.085.173-.3.413-.53.72-.691.307-.16.672-.24 1.095-.24.422 0 .787.08 1.094.24.308.16.545.39.711.691.173.301.259.66.259 1.076v1.411c0 .416-.086.778-.259 1.085a1.677 1.677 0 01-.711.692c-.307.16-.672.24-1.094.24zm0-.768c.377 0 .672-.106.883-.317.211-.212.317-.522.317-.932v-1.402c0-.41-.106-.72-.317-.931-.211-.211-.506-.317-.883-.317-.372 0-.666.106-.884.317-.211.211-.317.522-.317.931v1.402c0 .41.106.72.317.932.218.211.512.317.884.317zm3.709.691v-5.281h.825v2.88c0 .186-.006.381-.019.586-.006.205-.019.4-.038.586-.013.18-.029.333-.048.46l2.131-4.512h1.105V17h-.826v-2.88c0-.186.003-.381.01-.586.012-.205.028-.4.048-.586l.048-.47L118.372 17h-1.104zm2.016-6.145c-.461 0-.832-.128-1.114-.385-.281-.256-.422-.592-.422-1.008h.682c0 .25.076.452.23.605.154.154.358.23.615.23.262 0 .47-.076.624-.23a.8.8 0 00.24-.605h.681c0 .416-.14.752-.422 1.008-.282.257-.653.385-1.114.385zM14.903 36v-5.281h2.285c.55 0 .976.125 1.277.374.3.244.451.586.451 1.028 0 .365-.125.66-.374.883-.25.218-.58.327-.99.327v-.077c.449 0 .807.112 1.076.336.276.224.413.525.413.902 0 .474-.16.846-.48 1.114-.32.263-.768.394-1.344.394h-2.314zm.845-.759h1.469c.307 0 .544-.067.71-.201a.677.677 0 00.26-.567c0-.25-.087-.441-.26-.576-.166-.134-.403-.201-.71-.201h-1.47v1.545zm0-2.294h1.44c.269 0 .48-.065.634-.193.16-.128.24-.307.24-.537 0-.23-.077-.41-.23-.538-.154-.134-.369-.202-.644-.202h-1.44v1.47zm6.82 3.13c-.423 0-.788-.08-1.095-.24a1.743 1.743 0 01-.72-.692c-.167-.307-.25-.669-.25-1.085v-1.402c0-.422.083-.784.25-1.085.173-.3.413-.53.72-.691.307-.16.672-.24 1.095-.24.422 0 .787.08 1.094.24.308.16.544.39.71.691.174.301.26.66.26 1.076v1.411c0 .416-.086.778-.26 1.085a1.675 1.675 0 01-.71.692c-.307.16-.672.24-1.094.24zm0-.768c.377 0 .672-.106.883-.317.211-.211.317-.522.317-.932v-1.402c0-.41-.106-.72-.317-.931-.211-.211-.506-.317-.883-.317-.372 0-.666.106-.884.317-.211.211-.317.522-.317.931v1.402c0 .41.106.72.317.932.218.211.512.317.884.317zm3.69 2.42v-7.01h.864v1.008h.172l-.172.202c0-.404.13-.72.393-.95.269-.238.621-.356 1.056-.356.532 0 .954.176 1.268.528.32.346.48.823.48 1.43v1.547c0 .403-.074.752-.22 1.046a1.57 1.57 0 01-.606.682c-.256.16-.563.24-.922.24-.429 0-.777-.118-1.046-.355-.27-.237-.403-.554-.403-.95l.172.2h-.192l.02 1.201v1.536h-.865zm2.025-2.382c.365 0 .65-.109.855-.326.211-.218.317-.532.317-.941v-1.44c0-.41-.106-.724-.317-.942-.205-.217-.49-.326-.855-.326-.352 0-.633.112-.845.336-.21.224-.316.534-.316.931v1.44c0 .398.105.708.316.932.212.224.493.336.845.336zm5.658.73c-.422 0-.787-.08-1.094-.24a1.743 1.743 0 01-.72-.692c-.167-.307-.25-.669-.25-1.085v-1.402c0-.422.083-.784.25-1.085.172-.3.413-.53.72-.691.307-.16.672-.24 1.094-.24.423 0 .788.08 1.095.24.307.16.544.39.71.691.173.301.26.66.26 1.076v1.411c0 .416-.087.778-.26 1.085a1.68 1.68 0 01-.71.692c-.307.16-.672.24-1.095.24zm0-.768c.378 0 .673-.106.884-.317.211-.211.317-.522.317-.932v-1.402c0-.41-.106-.72-.317-.931-.211-.211-.506-.317-.884-.317-.37 0-.665.106-.883.317-.211.211-.317.522-.317.931v1.402c0 .41.106.72.317.932.218.211.512.317.883.317zm3.71.691v-5.281h.864v2.199h2.227v-2.2h.864V36h-.864v-2.295h-2.227V36h-.865zm5.715 0v-5.281h.864v2.18h.903l1.536-2.18h.99l-1.777 2.516L47.687 36H46.68l-1.537-2.352h-.912V36h-.864zm5.658 0v-5.281h.826v2.88c0 .186-.006.381-.02.586-.005.205-.018.4-.038.586-.012.18-.028.333-.048.46l2.132-4.512h1.104V36h-.825v-2.88c0-.186.003-.381.01-.586.012-.205.028-.4.047-.586l.048-.47L50.13 36h-1.105zm11.374 0v-5.281h3.956V36h-.864v-4.494h-2.228V36h-.864zm5.668 1.728v-7.01h.864v1.009h.173l-.173.202c0-.404.131-.72.394-.95.269-.238.62-.356 1.056-.356.531 0 .954.176 1.267.528.32.346.48.823.48 1.43v1.547c0 .403-.073.752-.22 1.046a1.57 1.57 0 01-.605.682c-.256.16-.564.24-.922.24-.429 0-.778-.118-1.047-.355-.269-.237-.403-.554-.403-.95l.173.2h-.192l.02 1.201v1.536h-.865zm2.026-2.38c.365 0 .65-.11.855-.327.21-.218.316-.532.316-.941v-1.44c0-.41-.105-.724-.316-.942-.205-.217-.49-.326-.855-.326-.352 0-.634.112-.845.336-.211.224-.317.534-.317.931v1.44c0 .398.106.708.317.932.211.224.493.336.845.336zm5.658.729c-.422 0-.787-.08-1.094-.24a1.743 1.743 0 01-.72-.692c-.167-.307-.25-.669-.25-1.085v-1.402c0-.422.083-.784.25-1.085.172-.3.412-.53.72-.691.307-.16.672-.24 1.094-.24.423 0 .787.08 1.095.24.307.16.544.39.71.691.173.301.26.66.26 1.076v1.411c0 .416-.087.778-.26 1.085a1.68 1.68 0 01-.71.692c-.308.16-.672.24-1.095.24zm0-.768c.378 0 .672-.106.883-.317.212-.211.317-.522.317-.932v-1.402c0-.41-.105-.72-.317-.931-.21-.211-.505-.317-.883-.317-.371 0-.666.106-.883.317-.212.211-.317.522-.317.931v1.402c0 .41.106.72.317.932.217.211.512.317.883.317zm3.094 2.035v-2.083h.433c.108-.11.22-.324.336-.644.121-.32.185-.726.192-1.22l.057-2.678h3.448v4.542h.672v2.083h-.769V36h-3.6v1.344h-.769zm1.345-2.083h2.256v-3.774H78.68l-.039 1.93c-.006.506-.06.915-.163 1.23-.103.313-.199.518-.288.614zm6.474.835c-.557 0-.995-.14-1.315-.422-.32-.288-.48-.676-.48-1.162 0-.493.16-.88.48-1.162.32-.282.752-.423 1.296-.423h1.632V32.4c0-.326-.099-.576-.297-.749-.192-.179-.468-.269-.826-.269-.314 0-.576.068-.788.202a.717.717 0 00-.364.528h-.865c.058-.454.272-.816.644-1.085.371-.269.835-.403 1.392-.403.608 0 1.088.157 1.44.47.352.314.529.74.529 1.277V36h-.846v-1.008h-.144l.145-.144c0 .384-.151.688-.452.912-.294.224-.688.336-1.18.336zm.211-.682c.41 0 .746-.102 1.009-.307a.956.956 0 00.393-.787v-.75h-1.613c-.288 0-.515.08-.682.24-.166.16-.25.378-.25.654 0 .294.1.528.298.7.205.167.487.25.845.25zm3.23.586l1.151-2.708-1.075-2.573h.835l.922 2.304h.51V30.72h.729v2.304h.49l.95-2.304h.826l-1.075 2.544L93.519 36h-.864l-.96-2.4h-.52V36h-.729v-2.4h-.518l-.97 2.4h-.855zm8.394-3.937c-.237 0-.429-.064-.576-.192a.681.681 0 01-.221-.528c0-.218.074-.39.22-.519a.826.826 0 01.577-.201c.243 0 .435.067.576.201.147.128.22.301.22.519a.681.681 0 01-.22.528c-.14.128-.333.192-.576.192zm0 4.033c-.237 0-.429-.064-.576-.192a.681.681 0 01-.221-.528c0-.218.074-.39.22-.519a.826.826 0 01.577-.201c.243 0 .435.067.576.201.147.128.22.301.22.519a.681.681 0 01-.22.528c-.14.128-.333.192-.576.192z" fill="#fff"/><defs><filter id="filter0_d_440_409" x=".159" y="0" width="179.561" height="178.6" filterUnits="userSpaceOnUse" color-interpolation-filters="sRGB"><feFlood flood-opacity="0" result="BackgroundImageFix"/><feColorMatrix in="SourceAlpha" values="0 0 0 0 0 0 0 0 0 0 0 0 0 0 0 0 0 0 127 0" result="hardAlpha"/><feOffset dy="3.841"/><feGaussianBlur stdDeviation="1.92"/><feComposite in2="hardAlpha" operator="out"/><feColorMatrix values="0 0 0 0 0 0 0 0 0 0 0 0 0 0 0 0 0 0 0.25 0"/><feBlend in2="BackgroundImageFix" result="effect1_dropShadow_440_409"/><feBlend in="SourceGraphic" in2="effect1_dropShadow_440_409" result="shape"/></filter></defs></svg>