<svg width="180" height="179" fill="none" xmlns="http://www.w3.org/2000/svg"><g filter="url(#filter0_d_440_479)"><rect x="4.121" width="171.879" height="170.919" rx="16.004" fill="#46767D"/></g><mask id="a" style="mask-type:alpha" maskUnits="userSpaceOnUse" x="4" y="0" width="172" height="43"><path fill="#C9D9CD" d="M4.121 0H176v42.249H4.121z"/></mask><g mask="url(#a)"><rect x="4.121" y="-1.69" width="171.879" height="118.299" rx="16.004" fill="#223B38"/></g><path d="M14.903 60.05v-7.009h3.956v7.01h-.865v-6.222h-2.227v6.222h-.864zm5.667 1.73v-7.01h.864v1.008h.173l-.172.202c0-.404.13-.72.393-.951.27-.237.621-.355 1.056-.355.532 0 .954.176 1.268.528.32.345.48.822.48 1.43v1.546c0 .404-.074.753-.22 1.047a1.57 1.57 0 01-.606.682c-.256.16-.563.24-.922.24-.428 0-.777-.119-1.046-.355-.269-.237-.404-.554-.404-.951l.173.202h-.192l.02 1.2v1.536h-.865zm2.026-2.382c.365 0 .65-.109.855-.327.211-.217.317-.531.317-.94V56.69c0-.41-.106-.723-.317-.941-.205-.218-.49-.327-.855-.327-.352 0-.633.113-.845.337-.21.224-.317.534-.317.931v1.44c0 .397.106.708.317.932.212.224.493.336.845.336zm5.659.73c-.423 0-.788-.08-1.095-.24a1.743 1.743 0 01-.72-.692c-.167-.307-.25-.669-.25-1.085V56.71c0-.422.083-.784.25-1.085.173-.3.413-.531.72-.691.307-.16.672-.24 1.095-.24.422 0 .787.08 1.094.24.308.16.544.39.71.691.174.301.26.66.26 1.076v1.411c0 .416-.086.778-.26 1.085a1.675 1.675 0 01-.71.692c-.307.16-.672.24-1.095.24zm0-.769c.377 0 .672-.105.883-.316.211-.212.317-.522.317-.932V56.71c0-.41-.106-.72-.317-.931-.211-.211-.506-.317-.884-.317-.37 0-.665.106-.883.317-.211.211-.317.522-.317.931v1.402c0 .41.106.72.317.932.218.21.512.316.884.316zm3.708.692V54.77h2.286c.55 0 .976.124 1.277.374.3.243.451.586.451 1.028 0 .364-.125.659-.374.883-.25.218-.58.326-.99.326v-.076c.449 0 .807.112 1.076.336.275.224.413.525.413.902 0 .474-.16.845-.48 1.114-.32.263-.768.394-1.344.394h-2.315zm.845-.759h1.47c.307 0 .544-.067.71-.201a.679.679 0 00.26-.567c0-.25-.087-.442-.26-.576-.166-.135-.403-.202-.71-.202h-1.47v1.546zm0-2.295h1.44c.27 0 .48-.064.635-.192.16-.128.24-.307.24-.538 0-.23-.077-.41-.23-.537-.154-.135-.369-.202-.644-.202h-1.44v1.47zm6.82 3.15a2.3 2.3 0 01-1.094-.25 1.806 1.806 0 01-.72-.7 2.204 2.204 0 01-.25-1.067v-1.44c0-.41.083-.765.25-1.066.172-.3.413-.534.72-.7a2.29 2.29 0 011.094-.25c.416 0 .778.083 1.086.25.313.166.553.4.72.7.172.301.259.656.259 1.066v.931h-3.284v.51c0 .415.106.736.317.96.211.217.512.326.902.326.333 0 .602-.058.807-.173.205-.121.33-.3.374-.538h.865a1.471 1.471 0 01-.653 1.057c-.371.256-.836.384-1.393.384zm1.22-3.102v-.355c0-.416-.106-.736-.317-.96-.205-.224-.506-.336-.903-.336-.39 0-.69.112-.902.336-.211.224-.317.544-.317.96v.279h2.506l-.067.076zm1.827 3.073v-.807h.173c.294 0 .499-.115.614-.345.122-.23.186-.644.192-1.239l.058-2.957h3.581v5.28h-.864v-4.493h-1.863l-.048 2.209c-.012.556-.076 1.008-.192 1.353-.108.346-.281.599-.518.759-.23.16-.535.24-.912.24h-.221zm6.35-.067V54.77h.825v2.88c0 .186-.006.381-.02.586-.005.205-.018.4-.038.586a5.306 5.306 0 01-.048.46l2.132-4.512h1.104v5.28h-.825v-2.88c0-.186.003-.38.01-.586.012-.204.028-.4.047-.585l.048-.47-2.131 4.522h-1.105zm12.92 0v-4.523h-1.921v-.758h4.705v.758h-1.92v4.523h-.865zm4.12 1.728v-7.01h.865v1.009h.173l-.173.202c0-.404.131-.72.394-.951.269-.237.62-.355 1.056-.355.531 0 .954.176 1.267.528.32.345.48.822.48 1.43v1.546c0 .404-.073.753-.22 1.047a1.57 1.57 0 01-.605.682c-.256.16-.564.24-.922.24-.429 0-.778-.119-1.047-.355-.269-.237-.403-.554-.403-.951l.173.202h-.192l.02 1.2v1.536h-.865zm2.027-2.381c.365 0 .65-.109.855-.327.21-.217.316-.531.316-.94V56.69c0-.41-.105-.723-.316-.941-.205-.218-.49-.327-.855-.327-.352 0-.634.113-.845.337-.211.224-.317.534-.317.931v1.44c0 .397.106.708.317.932.211.224.493.336.845.336zm5.658.749a2.3 2.3 0 01-1.094-.25 1.806 1.806 0 01-.72-.7 2.204 2.204 0 01-.25-1.067v-1.44c0-.41.083-.765.25-1.066.172-.3.412-.534.72-.7a2.29 2.29 0 011.094-.25c.416 0 .778.083 1.085.25.314.166.554.4.72.7.173.301.26.656.26 1.066v.931H72.53v.51c0 .415.105.736.316.96.212.217.513.326.903.326.333 0 .602-.058.807-.173a.76.76 0 00.374-.538h.864a1.47 1.47 0 01-.653 1.057c-.37.256-.835.384-1.392.384zm1.22-3.102v-.355c0-.416-.106-.736-.317-.96-.205-.224-.506-.336-.903-.336-.39 0-.691.112-.903.336-.21.224-.316.544-.316.96v.279h2.506l-.067.076zm2.489 3.006V54.77h.864v2.198h2.228V54.77h.864v5.28h-.864v-2.294h-2.228v2.295h-.864zm5.687 0V54.77h.826v2.88c0 .186-.007.381-.02.586-.006.205-.019.4-.038.586a6.233 6.233 0 01-.048.46l2.132-4.512h1.104v5.28h-.826v-2.88c0-.186.004-.38.01-.586.013-.204.029-.4.048-.585l.048-.47-2.132 4.522h-1.104zm5.687 0V54.77h.864v2.198h2.228V54.77h.864v5.28h-.864v-2.294h-2.228v2.295h-.864zm6.032 0V54.77h3.793v.787H95.73v4.494h-.865zm5.342 0V54.77h.826v2.88c0 .186-.007.381-.02.586-.006.205-.019.4-.038.586a6.31 6.31 0 01-.048.46l2.132-4.512h1.104v5.28h-.826v-2.88c0-.186.003-.38.01-.586.013-.204.029-.4.048-.585l.048-.47-2.132 4.522h-1.104zm10.759 1.344v-2.084h.432c.109-.108.221-.323.336-.643.122-.32.186-.727.192-1.22l.058-2.678h3.447v4.541h.672v2.084h-.768v-1.344h-3.601v1.344h-.768zm1.344-2.084h2.257v-3.773H112.8l-.038 1.93c-.007.505-.061.915-.163 1.229-.103.313-.199.518-.289.614zm4.295.807v-.807h.173c.294 0 .499-.115.614-.345.122-.23.186-.644.193-1.239l.057-2.957h3.582v5.28h-.864v-4.493h-1.863l-.048 2.209c-.013.556-.077 1.008-.192 1.353-.109.346-.282.599-.519.759-.23.16-.534.24-.912.24h-.221zm6.023-.067l1.354-2.036c-.403-.096-.717-.282-.941-.557-.218-.275-.326-.617-.326-1.027 0-.519.169-.925.508-1.22.346-.294.817-.441 1.412-.441h2.276v5.28h-.865v-1.968h-1.161l-1.249 1.969h-1.008zm2.007-2.737h1.411v-1.776h-1.411c-.32 0-.573.08-.759.24-.185.154-.278.371-.278.653 0 .275.093.493.278.653.186.153.439.23.759.23zM16.9 79.147a2.46 2.46 0 01-1.114-.24 1.729 1.729 0 01-.73-.692c-.173-.307-.259-.669-.259-1.085v-1.44c0-.422.086-.784.26-1.085.172-.3.415-.531.729-.691.32-.16.691-.24 1.114-.24.608 0 1.098.163 1.469.49.371.326.567.77.586 1.334h-.864c-.02-.34-.135-.599-.346-.778-.205-.185-.487-.278-.845-.278-.378 0-.679.109-.903.326-.224.212-.336.516-.336.912v1.45c0 .397.112.705.336.922.224.218.525.327.903.327.358 0 .64-.093.845-.279.211-.185.326-.445.345-.778h.865c-.02.564-.215 1.009-.586 1.335-.371.327-.861.49-1.47.49zm5.668-.02c-.423 0-.788-.08-1.095-.24a1.742 1.742 0 01-.72-.69c-.167-.308-.25-.67-.25-1.086V75.71c0-.422.083-.784.25-1.085.173-.3.413-.531.72-.691.307-.16.672-.24 1.095-.24.422 0 .787.08 1.094.24.308.16.544.39.71.691.174.301.26.66.26 1.076v1.411c0 .416-.086.778-.26 1.085a1.675 1.675 0 01-.71.692c-.307.16-.672.24-1.094.24zm0-.768c.377 0 .672-.105.883-.316.211-.212.317-.522.317-.932V75.71c0-.41-.106-.72-.317-.931-.211-.211-.506-.317-.883-.317-.372 0-.666.106-.884.317-.211.211-.317.521-.317.931v1.402c0 .41.106.72.317.932.218.21.512.316.884.316zm5.254.692v-4.523h-1.92v-.758h4.705v.758h-1.92v4.523h-.865zm4.122 1.728v-7.01h.864v1.009h.173l-.173.201c0-.403.132-.72.394-.95.269-.237.621-.355 1.056-.355.532 0 .954.176 1.268.528.32.345.48.822.48 1.43v1.546c0 .404-.074.752-.22 1.047a1.57 1.57 0 01-.606.682c-.256.16-.563.24-.922.24-.428 0-.777-.119-1.046-.356-.27-.236-.404-.553-.404-.95l.173.202h-.192l.02 1.2v1.536h-.865zm2.026-2.381c.365 0 .65-.109.855-.327.211-.217.317-.531.317-.94V75.69c0-.41-.106-.723-.317-.941-.205-.218-.49-.326-.855-.326-.352 0-.633.112-.845.336-.21.224-.317.534-.317.931v1.44c0 .397.106.708.317.932.212.224.493.336.845.336zm4.487 2.381l.778-2.055-1.96-4.954h.961l1.23 3.264c.044.11.086.24.124.394l.096.374.096-.374c.039-.154.077-.285.115-.394l1.153-3.264h.931l-2.602 7.01h-.922zm4.266-.384v-2.084h.432c.109-.108.22-.323.336-.643.122-.32.186-.727.192-1.22l.058-2.678h3.447v4.541h.672v2.084h-.768v-1.344H43.49v1.344h-.768zm1.344-2.084h2.257v-3.773h-1.767l-.039 1.93c-.006.505-.06.915-.163 1.229-.102.313-.198.518-.288.614zm4.957.74V73.77h.864v2.199h2.228v-2.2h.864v5.282h-.864v-2.295H49.89v2.295h-.865zm5.687 0V73.77h.826v2.88c0 .186-.006.381-.02.586-.006.205-.018.4-.038.586a5.306 5.306 0 01-.048.46l2.132-4.512h1.104v5.28h-.825v-2.88c0-.186.003-.38.01-.586.012-.204.028-.4.047-.585l.048-.47-2.132 4.522h-1.104zm5.716 0V73.77h.864v2.18h.903l1.536-2.18h.99l-1.777 2.515 1.805 2.766H63.74l-1.537-2.353h-.912v2.353h-.864zm7.636.077c-.422 0-.787-.08-1.094-.24a1.742 1.742 0 01-.72-.692c-.167-.307-.25-.669-.25-1.085V75.71c0-.422.083-.784.25-1.085.172-.3.412-.531.72-.691.307-.16.672-.24 1.094-.24.423 0 .788.08 1.095.24.307.16.544.39.71.691.173.301.26.66.26 1.076v1.411c0 .416-.087.778-.26 1.085a1.68 1.68 0 01-.71.692c-.307.16-.672.24-1.095.24zm0-.769c.378 0 .672-.105.884-.316.21-.212.316-.522.316-.932V75.71c0-.41-.105-.72-.316-.931-.212-.211-.506-.317-.884-.317-.371 0-.666.106-.883.317-.212.211-.317.521-.317.931v1.402c0 .41.106.72.317.932.217.21.512.316.883.316zm3.71.692V73.77h2.284c.55 0 .977.124 1.278.374.3.243.45.586.45 1.027 0 .365-.124.66-.374.884-.25.218-.579.326-.989.326v-.076c.448 0 .807.112 1.076.336.275.224.413.525.413.902 0 .474-.16.845-.48 1.114-.32.263-.769.394-1.345.394h-2.314zm.844-.759h1.47c.306 0 .543-.067.71-.201.173-.135.259-.324.259-.567 0-.25-.086-.442-.26-.576-.166-.134-.403-.202-.71-.202h-1.469v1.546zm0-2.295h1.44c.27 0 .48-.064.634-.192.16-.128.24-.307.24-.538 0-.23-.077-.41-.23-.537-.154-.135-.368-.202-.644-.202h-1.44v1.47zm10.529 3.054V73.77h3.956v5.28h-.864v-4.493H84.01v4.494h-.864zm7.665.077c-.423 0-.787-.08-1.095-.24a1.742 1.742 0 01-.72-.692c-.166-.307-.25-.669-.25-1.085V75.71c0-.422.084-.784.25-1.085.173-.3.413-.531.72-.691.308-.16.672-.24 1.095-.24.422 0 .787.08 1.095.24.307.16.544.39.71.691.173.301.26.66.26 1.076v1.411c0 .416-.087.778-.26 1.085a1.68 1.68 0 01-.71.692c-.308.16-.672.24-1.095.24zm0-.769c.378 0 .672-.105.883-.316.212-.212.317-.522.317-.932V75.71c0-.41-.105-.72-.317-.931-.21-.211-.505-.317-.883-.317-.371 0-.666.106-.883.317-.212.211-.317.521-.317.931v1.402c0 .41.105.72.317.932.217.21.512.316.883.316zm9.377 2.42v-7.01h.864v1.009h.173l-.173.201c0-.403.131-.72.393-.95.269-.237.621-.355 1.057-.355.531 0 .954.176 1.267.528.32.345.48.822.48 1.43v1.546c0 .404-.073.752-.221 1.047-.14.294-.342.522-.604.682-.257.16-.564.24-.922.24-.429 0-.778-.119-1.047-.356-.269-.236-.403-.553-.403-.95l.173.202h-.192l.019 1.2v1.536h-.864zm2.026-2.381c.365 0 .649-.109.854-.327.212-.217.317-.531.317-.94V75.69c0-.41-.105-.723-.317-.941-.205-.218-.489-.326-.854-.326-.352 0-.634.112-.845.336-.212.224-.317.534-.317.931v1.44c0 .397.105.708.317.932.211.224.493.336.845.336zm5.197.749c-.557 0-.996-.141-1.316-.423-.32-.288-.48-.675-.48-1.162 0-.492.16-.88.48-1.161.32-.282.753-.423 1.297-.423h1.632v-.528c0-.326-.099-.576-.298-.749-.192-.18-.467-.269-.825-.269-.314 0-.577.067-.788.202a.718.718 0 00-.365.528h-.864c.058-.455.272-.816.643-1.085.372-.269.836-.403 1.393-.403.608 0 1.088.156 1.44.47.352.314.528.74.528 1.277v3.63h-.845v-1.008h-.144l.144-.145c0 .385-.15.689-.451.913-.295.224-.688.336-1.181.336zm.211-.682c.41 0 .746-.102 1.008-.307a.955.955 0 00.394-.788v-.749h-1.613c-.288 0-.515.08-.682.24-.166.16-.25.378-.25.653 0 .295.1.529.298.701.205.167.487.25.845.25zm5.937.682c-.621 0-1.114-.183-1.479-.547-.358-.372-.538-.877-.538-1.518v-2.4c0-.845.212-1.495.634-1.95.423-.46 1.027-.69 1.815-.69h1.344v.863h-1.344c-.519 0-.912.154-1.181.461-.269.301-.404.74-.404 1.316v.624h.135l-.135.192c.007-.378.135-.672.385-.883.249-.212.589-.317 1.017-.317.557 0 .989.179 1.297.537.313.359.47.852.47 1.48v.767c0 .43-.08.797-.24 1.105a1.68 1.68 0 01-.691.71c-.301.167-.663.25-1.085.25zm0-.768c.371 0 .656-.112.854-.336.199-.225.298-.545.298-.96v-.769c0-.416-.099-.736-.298-.96-.198-.224-.483-.336-.854-.336-.372 0-.656.112-.855.336-.198.218-.298.538-.298.96v.768c0 .416.1.737.298.96.199.225.483.337.855.337zm5.687.749c-.423 0-.788-.08-1.095-.24a1.744 1.744 0 01-.72-.692c-.167-.307-.25-.669-.25-1.085V75.71c0-.422.083-.784.25-1.085.173-.3.413-.531.72-.691.307-.16.672-.24 1.095-.24.422 0 .787.08 1.094.24.308.16.544.39.711.691.173.301.259.66.259 1.076v1.411c0 .416-.086.778-.259 1.085a1.683 1.683 0 01-.711.692c-.307.16-.672.24-1.094.24zm0-.769c.377 0 .672-.105.883-.316.211-.212.317-.522.317-.932V75.71c0-.41-.106-.72-.317-.931-.211-.211-.506-.317-.883-.317-.372 0-.666.106-.884.317-.211.211-.317.521-.317.931v1.402c0 .41.106.72.317.932.218.21.512.316.884.316zm5.255.692v-4.523h-1.921v-.758h4.705v.758h-1.92v4.523h-.864zm6.119.096a2.3 2.3 0 01-1.095-.25 1.808 1.808 0 01-.72-.7 2.197 2.197 0 01-.25-1.067v-1.44c0-.41.083-.765.25-1.066.173-.3.413-.534.72-.7.314-.167.678-.25 1.095-.25.416 0 .777.083 1.085.25.313.166.553.4.72.7.173.301.259.656.259 1.066v.931H129.4v.51c0 .415.106.736.317.96.211.217.512.326.903.326.332 0 .601-.058.806-.173a.76.76 0 00.375-.537h.864a1.471 1.471 0 01-.653 1.056c-.371.256-.835.384-1.392.384zm1.219-3.102v-.355c0-.416-.106-.736-.317-.96-.205-.224-.506-.336-.902-.336-.391 0-.692.112-.903.336-.211.224-.317.544-.317.96v.279h2.506l-.067.076zm10.174 3.102a2.46 2.46 0 01-1.114-.24 1.728 1.728 0 01-.73-.692c-.173-.307-.259-.669-.259-1.085v-1.44c0-.422.086-.784.259-1.085.173-.3.416-.531.73-.691.32-.16.691-.24 1.114-.24.608 0 1.098.163 1.469.49.371.326.566.77.586 1.334h-.865c-.019-.34-.134-.599-.345-.778-.205-.185-.487-.278-.845-.278-.378 0-.679.109-.903.326-.224.212-.336.516-.336.912v1.45c0 .397.112.705.336.922.224.218.525.327.903.327.358 0 .64-.093.845-.279.211-.185.326-.445.345-.778h.865c-.02.564-.215 1.009-.586 1.335-.371.327-.861.49-1.469.49zM14.903 98.05v-5.28h.864v2.199h2.227v-2.2h.865v5.282h-.865v-2.295h-2.227v2.295h-.864zm7.665.077c-.423 0-.788-.08-1.095-.24a1.742 1.742 0 01-.72-.692c-.167-.307-.25-.669-.25-1.085v-1.4c0-.422.083-.784.25-1.085.173-.3.413-.531.72-.691.307-.16.672-.24 1.095-.24.422 0 .787.08 1.094.24.308.16.544.39.71.691.174.301.26.66.26 1.076v1.411c0 .416-.086.778-.26 1.085a1.675 1.675 0 01-.71.692c-.307.16-.672.24-1.094.24zm0-.769c.377 0 .672-.105.883-.316.211-.212.317-.522.317-.932v-1.4c0-.41-.106-.72-.317-.931-.211-.211-.506-.317-.883-.317-.372 0-.666.106-.884.317-.211.211-.317.521-.317.931v1.402c0 .41.106.72.317.932.218.21.512.316.884.316zm3.708.692v-5.28h2.286c.55 0 .976.124 1.277.374.3.243.451.586.451 1.027 0 .365-.125.66-.374.884-.25.218-.58.326-.99.326v-.076c.449 0 .807.112 1.076.336.275.224.413.525.413.902 0 .474-.16.845-.48 1.114-.32.263-.768.394-1.344.394h-2.315zm.846-.759h1.469c.307 0 .544-.067.71-.201a.679.679 0 00.26-.567c0-.25-.087-.442-.26-.576-.166-.134-.403-.202-.71-.202h-1.47v1.546zm0-2.295h1.44c.269 0 .48-.064.634-.192.16-.128.24-.307.24-.538 0-.23-.077-.41-.23-.537-.154-.135-.369-.202-.644-.202h-1.44v1.47zm6.82 3.13c-.423 0-.788-.08-1.095-.24a1.742 1.742 0 01-.72-.69c-.167-.308-.25-.67-.25-1.086v-1.4c0-.422.083-.784.25-1.085.172-.3.413-.531.72-.691.307-.16.672-.24 1.094-.24.423 0 .788.08 1.095.24.307.16.544.39.71.691.173.301.26.66.26 1.076v1.411c0 .416-.087.778-.26 1.085a1.68 1.68 0 01-.71.692c-.307.16-.672.24-1.095.24zm0-.768c.377 0 .672-.105.883-.316.211-.212.317-.522.317-.932v-1.4c0-.41-.106-.72-.317-.931-.211-.211-.506-.317-.884-.317-.37 0-.665.106-.883.317-.211.211-.317.521-.317.931v1.402c0 .41.106.72.317.932.218.21.512.316.883.316zm3.708.692v-5.28h.826v2.88c0 .186-.006.381-.019.586-.006.205-.02.4-.038.586a6.83 6.83 0 01-.048.46l2.131-4.512h1.104v5.28h-.825v-2.88c0-.186.003-.38.01-.586.012-.204.028-.4.047-.585l.048-.47-2.131 4.522H37.65zm2.017-6.146c-.461 0-.832-.128-1.114-.384-.282-.256-.422-.592-.422-1.008h.681c0 .25.077.451.23.605.154.154.36.23.615.23.263 0 .47-.076.624-.23a.8.8 0 00.24-.605h.682c0 .416-.14.752-.422 1.008s-.653.384-1.114.384zm11.355 6.242a2.46 2.46 0 01-1.114-.24 1.729 1.729 0 01-.73-.692c-.173-.307-.26-.669-.26-1.085v-1.44c0-.422.087-.784.26-1.085.173-.3.416-.531.73-.691.32-.16.691-.24 1.114-.24.608 0 1.097.163 1.469.49.371.326.566.77.585 1.334h-.864c-.019-.34-.134-.599-.346-.778-.204-.185-.486-.278-.844-.278-.378 0-.679.109-.903.326-.224.212-.336.516-.336.912v1.45c0 .397.112.705.336.922.224.218.525.327.903.327.358 0 .64-.093.845-.279.21-.185.326-.445.345-.778h.864c-.019.564-.214 1.009-.585 1.335-.372.327-.861.49-1.47.49zm3.69-.096v-5.28h.825v2.88c0 .186-.006.381-.02.586-.006.205-.018.4-.038.586a5.306 5.306 0 01-.048.46l2.132-4.512h1.104v5.28h-.825v-2.88c0-.186.003-.38.01-.586.012-.204.028-.4.047-.585l.048-.47-2.132 4.522h-1.104zm7.683.096c-.422 0-.793-.08-1.113-.24a1.729 1.729 0 01-.73-.692c-.173-.307-.26-.669-.26-1.085v-1.44c0-.422.087-.784.26-1.085.173-.3.416-.531.73-.691.32-.16.69-.24 1.113-.24.609 0 1.098.163 1.47.49.37.326.566.77.585 1.334h-.864c-.02-.34-.134-.599-.346-.778-.204-.185-.486-.278-.845-.278-.377 0-.678.109-.902.326-.224.212-.336.516-.336.912v1.45c0 .397.112.705.336.922.224.218.525.327.902.327.359 0 .64-.093.845-.279.212-.185.327-.445.346-.778h.864c-.019.564-.214 1.009-.585 1.335-.372.327-.861.49-1.47.49zm5.236-.096v-4.523h-1.92v-.758h4.705v.758h-1.92v4.523h-.865zm6.12.096a2.3 2.3 0 01-1.096-.25 1.806 1.806 0 01-.72-.7 2.204 2.204 0 01-.25-1.067v-1.44c0-.41.084-.765.25-1.066.173-.3.413-.534.72-.7.314-.167.679-.25 1.095-.25.416 0 .778.083 1.085.25.314.166.554.4.72.7.173.301.26.656.26 1.066v.931H72.53v.51c0 .415.105.736.316.96.212.217.513.326.903.326.333 0 .602-.058.807-.173a.76.76 0 00.374-.537h.864a1.47 1.47 0 01-.653 1.056c-.37.256-.835.384-1.392.384zm1.219-3.102v-.355c0-.416-.106-.736-.317-.96-.205-.224-.506-.336-.903-.336-.39 0-.691.112-.903.336-.21.224-.316.544-.316.96v.279h2.506l-.067.076zm2.316 3.006v-5.28h1.172l.691 2.026c.07.204.134.41.192.614.058.199.1.352.125.461.026-.109.064-.262.115-.46.058-.206.118-.414.182-.625l.653-2.016h1.172v5.28h-.835v-.815c0-.288.003-.602.01-.941l.018-1.028.039-.98c.013-.313.022-.588.029-.825l-.941 3.005h-.913l-.95-2.986c.013.288.022.647.029 1.076.012.428.022.877.028 1.344.013.467.02.912.02 1.335v.816h-.836zm7.838.077c-.422 0-.787-.08-1.095-.24a1.742 1.742 0 01-.72-.692c-.166-.307-.25-.669-.25-1.085v-1.4c0-.422.084-.784.25-1.085.173-.3.413-.531.72-.691.308-.16.672-.24 1.095-.24.422 0 .787.08 1.095.24.307.16.544.39.71.691.173.301.26.66.26 1.076v1.411c0 .416-.087.778-.26 1.085a1.68 1.68 0 01-.71.692c-.308.16-.672.24-1.095.24zm0-.769c.378 0 .672-.105.883-.316.212-.212.317-.522.317-.932v-1.4c0-.41-.105-.72-.317-.931-.21-.211-.505-.317-.883-.317-.371 0-.666.106-.883.317-.212.211-.317.521-.317.931v1.402c0 .41.105.72.317.932.217.21.512.316.883.316zm3.709.692v-5.28h.826v2.88c0 .186-.007.381-.02.586-.006.205-.019.4-.038.586a6.233 6.233 0 01-.048.46l2.132-4.512h1.104v5.28h-.826v-2.88c0-.186.003-.38.01-.586.013-.204.029-.4.048-.585l.048-.47-2.132 4.522h-1.104zm2.016-6.146c-.46 0-.832-.128-1.114-.384-.281-.256-.422-.592-.422-1.008h.682c0 .25.077.451.23.605.154.154.359.23.615.23.262 0 .47-.076.624-.23a.8.8 0 00.24-.605h.682c0 .416-.141.752-.423 1.008-.281.256-.653.384-1.114.384zM14.903 118.05v-5.281h.825v2.88c0 .186-.006.381-.019.586a8.2 8.2 0 01-.038.586 6.11 6.11 0 01-.048.461l2.131-4.513h1.105v5.281h-.826v-2.881c0-.186.003-.381.01-.586.012-.204.028-.4.047-.585l.049-.471-2.132 4.523h-1.104zm13.313.096c-.608 0-1.095-.163-1.46-.49-.364-.326-.556-.771-.576-1.335h.865c.019.333.13.593.336.778.205.186.483.279.835.279.378 0 .67-.109.874-.327.211-.217.317-.525.317-.922v-.384h-1.873v-.768h1.873v-.298c0-.396-.106-.701-.317-.912-.205-.217-.496-.326-.874-.326-.352 0-.63.093-.835.278-.205.179-.317.439-.336.778h-.865c.02-.563.212-1.008.577-1.335.364-.326.851-.489 1.46-.489.428 0 .793.08 1.094.24.307.16.544.39.71.691.167.301.25.663.25 1.085v1.44c0 .416-.083.778-.25 1.085a1.682 1.682 0 01-.71.692c-.301.16-.666.24-1.095.24zm5.341 1.632v-1.728c-.614 0-1.097-.173-1.45-.519-.352-.345-.528-.819-.528-1.421v-1.421c0-.595.176-1.063.529-1.402.358-.346.841-.518 1.45-.518v-1.729h.768v1.729c.614 0 1.097.172 1.45.518.352.339.528.807.528 1.402v1.421c0 .602-.176 1.076-.529 1.421-.352.346-.835.519-1.45.519v1.728h-.768zm.02-2.41v-3.918c-.372 0-.663.109-.874.327-.211.217-.317.522-.317.912v1.421c0 .391.106.698.317.922.211.224.502.336.874.336zm.73 0c.377 0 .668-.112.873-.336.211-.224.317-.531.317-.922v-1.421c0-.39-.106-.695-.317-.912-.205-.218-.496-.327-.874-.327v3.918zm4.937 2.41v-1.728c-.614 0-1.097-.173-1.45-.519-.352-.345-.528-.819-.528-1.421v-1.421c0-.595.176-1.063.528-1.402.359-.346.842-.518 1.45-.518v-1.729h.769v1.729c.614 0 1.097.172 1.45.518.352.339.528.807.528 1.402v1.421c0 .602-.176 1.076-.529 1.421-.352.346-.835.519-1.45.519v1.728h-.768zm.02-2.41v-3.918c-.372 0-.663.109-.874.327-.212.217-.317.522-.317.912v1.421c0 .391.105.698.317.922.211.224.502.336.874.336zm.73 0c.377 0 .668-.112.873-.336.211-.224.317-.531.317-.922v-1.421c0-.39-.106-.695-.317-.912-.205-.218-.496-.327-.874-.327v3.918zm5.321.778c-.416 0-.78-.083-1.094-.25a1.803 1.803 0 01-.72-.701 2.2 2.2 0 01-.25-1.066v-1.44c0-.41.083-.765.25-1.066a1.81 1.81 0 01.72-.701 2.307 2.307 0 011.094-.249c.416 0 .778.083 1.085.249.314.167.554.4.72.701.173.301.26.656.26 1.066v.931h-3.284v.509c0 .416.106.737.317.961.211.217.512.326.902.326.333 0 .602-.058.807-.173a.762.762 0 00.374-.538h.865a1.473 1.473 0 01-.653 1.057c-.372.256-.836.384-1.393.384zm1.22-3.102v-.355c0-.416-.106-.736-.317-.96-.205-.224-.506-.336-.903-.336-.39 0-.691.112-.902.336-.211.224-.317.544-.317.96v.278h2.506l-.067.077zm2.518 3.006v-5.281h.864v2.179h.903l1.536-2.179h.99l-1.777 2.515 1.805 2.766h-1.008l-1.536-2.353h-.913v2.353h-.864zm7.204 0v-4.523h-1.92v-.758h4.705v.758h-1.92v4.523h-.865zm4.141 0v-5.281h.826v2.88c0 .186-.006.381-.02.586a8.2 8.2 0 01-.038.586 6.157 6.157 0 01-.048.461l2.132-4.513h1.104v5.281h-.825v-2.881c0-.186.003-.381.01-.586.012-.204.028-.4.047-.585l.048-.471-2.132 4.523h-1.104zm5.687 0v-5.281h2.285c.551 0 .977.124 1.277.374.301.243.452.586.452 1.028 0 .364-.125.659-.375.883-.25.218-.579.326-.989.326v-.076c.448 0 .807.112 1.076.336.275.224.413.525.413.902 0 .474-.16.845-.48 1.114-.32.263-.769.394-1.345.394h-2.314zm.845-.759h1.47c.306 0 .543-.067.71-.201a.679.679 0 00.26-.567c0-.25-.087-.442-.26-.576-.167-.135-.403-.202-.71-.202h-1.47v1.546zm0-2.295h1.44c.27 0 .48-.064.634-.192.16-.128.24-.307.24-.537 0-.231-.077-.41-.23-.538-.154-.135-.368-.202-.644-.202h-1.44v1.469zm4.842 3.054v-5.281h.864v2.198h2.228v-2.198h.864v5.281h-.864v-2.295h-2.228v2.295h-.864zm7.665.077c-.422 0-.787-.08-1.095-.24a1.743 1.743 0 01-.72-.692c-.166-.307-.25-.669-.25-1.085v-1.402c0-.422.084-.784.25-1.085a1.74 1.74 0 01.72-.691c.308-.16.673-.24 1.095-.24.423 0 .787.08 1.095.24.307.16.544.39.71.691.173.301.26.66.26 1.076v1.411c0 .416-.087.778-.26 1.085a1.683 1.683 0 01-.71.692c-.308.16-.672.24-1.095.24zm0-.769c.378 0 .672-.105.883-.316.212-.212.317-.522.317-.932v-1.402c0-.409-.105-.72-.317-.931-.21-.211-.505-.317-.883-.317-.371 0-.666.106-.883.317-.212.211-.317.522-.317.931v1.402c0 .41.105.72.317.932.217.211.512.316.883.316zm3.536.692v-5.281h1.172l.69 2.026c.071.204.135.409.193.614.058.199.1.352.125.461.025-.109.064-.262.115-.461.058-.205.118-.413.183-.624l.652-2.016h1.172v5.281h-.836v-.816c0-.288.004-.602.01-.941l.02-1.028c.012-.346.025-.672.038-.979.012-.314.022-.589.028-.826l-.94 3.005h-.913l-.95-2.986c.013.288.022.647.028 1.076.013.428.023.877.03 1.344.012.467.018.912.018 1.335v.816h-.835zm6.666 1.728l.778-2.055-1.959-4.954h.96l1.23 3.264c.044.109.086.24.125.394l.096.374c.025-.102.057-.227.096-.374.038-.154.076-.285.115-.394l1.152-3.264h.931l-2.602 7.009h-.922zm10.568-1.728v-5.281h2.285c.551 0 .976.124 1.277.374.301.243.452.586.452 1.028 0 .364-.125.659-.375.883-.25.218-.579.326-.989.326v-.076c.448 0 .807.112 1.075.336.276.224.413.525.413.902 0 .474-.16.845-.48 1.114-.32.263-.768.394-1.344.394h-2.314zm.845-.759h1.469c.307 0 .544-.067.71-.201a.679.679 0 00.26-.567c0-.25-.087-.442-.26-.576-.166-.135-.403-.202-.71-.202h-1.469v1.546zm0-2.295h1.44c.269 0 .48-.064.634-.192.16-.128.24-.307.24-.537 0-.231-.077-.41-.231-.538-.153-.135-.368-.202-.643-.202h-1.44v1.469zm6.82 3.15c-.416 0-.781-.083-1.095-.25a1.805 1.805 0 01-.72-.701 2.206 2.206 0 01-.25-1.066v-1.44c0-.41.084-.765.25-1.066.173-.301.413-.534.72-.701a2.31 2.31 0 011.095-.249c.416 0 .778.083 1.085.249.314.167.554.4.72.701.173.301.259.656.259 1.066v.931h-3.284v.509c0 .416.106.737.317.961.211.217.512.326.903.326.333 0 .602-.058.806-.173a.763.763 0 00.375-.538h.864a1.473 1.473 0 01-.653 1.057c-.371.256-.835.384-1.392.384zm1.219-3.102v-.355c0-.416-.105-.736-.317-.96-.204-.224-.505-.336-.902-.336-.391 0-.692.112-.903.336-.211.224-.317.544-.317.96v.278h2.506l-.067.077zm1.875 4.35v-2.084h.432c.109-.108.221-.323.336-.643.122-.32.186-.726.192-1.219l.058-2.679h3.447v4.541h.672v2.084h-.768v-1.344h-3.601v1.344h-.768zm1.344-2.084h2.257v-3.773H112.8l-.038 1.93c-.007.506-.061.915-.163 1.229-.103.314-.199.518-.289.614zm6.936.836c-.416 0-.781-.083-1.095-.25a1.805 1.805 0 01-.72-.701 2.195 2.195 0 01-.25-1.066v-1.44c0-.41.083-.765.25-1.066.173-.301.413-.534.72-.701a2.31 2.31 0 011.095-.249c.416 0 .777.083 1.085.249.313.167.553.4.72.701.173.301.259.656.259 1.066v.931h-3.284v.509c0 .416.106.737.317.961.211.217.512.326.903.326.333 0 .601-.058.806-.173a.763.763 0 00.375-.538h.864a1.473 1.473 0 01-.653 1.057c-.371.256-.835.384-1.392.384zm1.219-3.102v-.355c0-.416-.105-.736-.317-.96-.205-.224-.505-.336-.902-.336-.391 0-.692.112-.903.336-.211.224-.317.544-.317.96v.278h2.506l-.067.077zm2.49 3.006v-5.281h.864v2.198h2.227v-2.198h.865v5.281h-.865v-2.295h-2.227v2.295h-.864zm5.687 0v-5.281h.825v2.88c0 .186-.006.381-.019.586-.006.205-.019.4-.038.586a6.326 6.326 0 01-.048.461l2.131-4.513h1.105v5.281h-.826v-2.881c0-.186.003-.381.009-.586.013-.204.029-.4.048-.585l.048-.471-2.131 4.523h-1.104zm8.49.096c-.441 0-.797-.151-1.066-.451-.268-.301-.403-.695-.403-1.182v-.797h-.845v2.334h-.797v-5.281h.797v2.256h.845v-.72c0-.493.131-.887.394-1.181.269-.301.627-.451 1.075-.451.474 0 .855.15 1.143.451.288.294.432.688.432 1.181v2.208c0 .487-.144.881-.432 1.182-.288.3-.669.451-1.143.451zm0-.672c.244 0 .432-.084.567-.25.141-.173.211-.41.211-.711v-2.208c0-.301-.07-.535-.211-.701-.135-.173-.323-.259-.567-.259a.666.666 0 00-.557.259c-.134.166-.201.4-.201.701v2.208c0 .301.067.538.201.711.135.166.32.25.557.25zm-122.2 19.576v-5.281h.864v2.179h.902l1.537-2.179h.989l-1.777 2.515 1.805 2.766h-1.008l-1.536-2.353h-.912v2.353h-.865zm4.995.067v-.807h.173c.294 0 .5-.115.614-.345.122-.231.186-.644.192-1.239l.058-2.957h3.582v5.281h-.865v-4.494H21.82l-.048 2.208c-.013.557-.077 1.009-.192 1.354-.11.346-.282.599-.519.759-.23.16-.534.24-.912.24h-.221zm6.35-.067v-5.281h.825v2.88c0 .186-.006.381-.019.586a8.2 8.2 0 01-.038.586 6.11 6.11 0 01-.048.461l2.131-4.513h1.105v5.281h-.826v-2.881c0-.186.003-.381.01-.586.012-.204.028-.4.047-.585l.048-.471-2.131 4.523h-1.105zm7.664.096c-.416 0-.78-.083-1.094-.25a1.803 1.803 0 01-.72-.701 2.2 2.2 0 01-.25-1.066v-1.44c0-.41.083-.765.25-1.066a1.81 1.81 0 01.72-.701 2.307 2.307 0 011.094-.249c.417 0 .778.083 1.085.249.314.167.554.4.72.701.173.301.26.656.26 1.066v.931h-3.284v.509c0 .416.106.737.317.961.211.217.512.326.902.326.333 0 .602-.058.807-.173a.762.762 0 00.375-.538h.864a1.473 1.473 0 01-.653 1.057c-.372.256-.836.384-1.393.384zm1.22-3.102v-.355c0-.416-.106-.736-.317-.96-.205-.224-.506-.336-.903-.336-.39 0-.69.112-.902.336-.211.224-.317.544-.317.96v.278h2.506l-.067.077zm2.49 3.006v-5.281h.864v2.198h2.227v-2.198h.864v5.281h-.864v-2.295h-2.227v2.295h-.865zm7.232 0v-4.523h-1.92v-.758h4.705v.758h-1.92v4.523h-.865zm6.12.077c-.423 0-.788-.08-1.095-.24a1.744 1.744 0 01-.72-.692c-.167-.307-.25-.669-.25-1.085v-1.402c0-.422.083-.784.25-1.085.172-.301.412-.531.72-.691.307-.16.672-.24 1.094-.24.423 0 .788.08 1.095.24.307.16.544.39.71.691.173.301.26.66.26 1.076v1.411c0 .416-.087.778-.26 1.085a1.683 1.683 0 01-.71.692c-.307.16-.672.24-1.095.24zm0-.769c.377 0 .672-.105.883-.316.211-.212.317-.522.317-.932v-1.402c0-.409-.106-.72-.317-.931-.212-.211-.506-.317-.884-.317-.371 0-.665.106-.883.317-.211.211-.317.522-.317.931v1.402c0 .41.106.72.317.932.218.211.512.316.883.316zm3.708.692v-5.281h2.285c.551 0 .977.124 1.278.374.3.243.45.586.45 1.028 0 .364-.124.659-.373.883-.25.218-.58.326-.99.326v-.076c.449 0 .807.112 1.076.336.275.224.413.525.413.902 0 .474-.16.845-.48 1.114-.32.263-.768.394-1.345.394h-2.314zm.845-.759h1.47c.307 0 .543-.067.71-.201a.679.679 0 00.26-.567c0-.25-.087-.442-.26-.576-.166-.135-.403-.202-.71-.202h-1.47v1.546zm0-2.295h1.44c.27 0 .48-.064.634-.192.16-.128.24-.307.24-.537 0-.231-.076-.41-.23-.538-.154-.135-.368-.202-.644-.202h-1.44v1.469zm13.563 3.054v-1.921a3.95 3.95 0 01-.47.077 7.075 7.075 0 01-.653.029c-.653.006-1.162-.15-1.527-.471-.358-.326-.537-.781-.537-1.363v-1.632h.864v1.632c0 .326.108.586.326.778.224.185.531.278.922.278.269 0 .496-.009.682-.029a3.48 3.48 0 00.393-.067v-2.592h.865v5.281h-.865zm4.631.096c-.416 0-.78-.083-1.094-.25a1.803 1.803 0 01-.72-.701 2.201 2.201 0 01-.25-1.066v-1.44c0-.41.083-.765.25-1.066a1.81 1.81 0 01.72-.701 2.306 2.306 0 011.094-.249c.416 0 .778.083 1.085.249.314.167.554.4.72.701.173.301.26.656.26 1.066v.931H72.53v.509c0 .416.105.737.316.961.212.217.513.326.903.326.333 0 .602-.058.807-.173a.762.762 0 00.374-.538h.864a1.473 1.473 0 01-.653 1.057c-.37.256-.835.384-1.392.384zm1.22-3.102v-.355c0-.416-.106-.736-.317-.96-.205-.224-.506-.336-.903-.336-.39 0-.691.112-.903.336-.21.224-.316.544-.316.96v.278h2.506l-.067.077zm2.47 4.734v-7.009h.864v1.008h.173l-.173.201c0-.403.131-.72.394-.95.269-.237.62-.355 1.056-.355.531 0 .954.176 1.267.528.32.345.48.822.48 1.43v1.546c0 .404-.073.753-.22 1.047a1.577 1.577 0 01-.605.682c-.256.16-.564.24-.922.24-.429 0-.778-.119-1.047-.355-.269-.237-.403-.554-.403-.951l.173.202h-.192l.019 1.2v1.536h-.864zm2.026-2.381c.365 0 .65-.109.855-.327.21-.217.316-.531.316-.941v-1.44c0-.41-.105-.723-.317-.941-.204-.218-.49-.326-.854-.326-.352 0-.634.112-.845.336-.211.224-.317.534-.317.931v1.44c0 .397.106.708.317.932.211.224.493.336.845.336zm5.658.749c-.416 0-.781-.083-1.095-.25a1.803 1.803 0 01-.72-.701 2.201 2.201 0 01-.25-1.066v-1.44c0-.41.084-.765.25-1.066a1.81 1.81 0 01.72-.701 2.306 2.306 0 011.095-.249c.416 0 .778.083 1.085.249.314.167.554.4.72.701.173.301.26.656.26 1.066v.931h-3.284v.509c0 .416.105.737.316.961.212.217.513.326.903.326.333 0 .602-.058.807-.173a.762.762 0 00.374-.538h.864a1.473 1.473 0 01-.653 1.057c-.371.256-.835.384-1.392.384zm1.22-3.102v-.355c0-.416-.106-.736-.317-.96-.205-.224-.506-.336-.903-.336-.39 0-.691.112-.903.336-.21.224-.317.544-.317.96v.278h2.507l-.067.077zm4.217 3.073c-.557 0-1.014-.118-1.373-.355a1.412 1.412 0 01-.633-.961h.912c.044.161.163.292.355.394.198.103.445.154.74.154h.45c.314 0 .558-.074.73-.221a.71.71 0 00.27-.576c0-.256-.087-.458-.26-.605-.166-.147-.413-.221-.74-.221h-1.161v-.749h1.133c.294 0 .518-.07.672-.211a.72.72 0 00.23-.557.725.725 0 00-.105-.403.612.612 0 00-.298-.25 1.235 1.235 0 00-.49-.086h-.48a1.23 1.23 0 00-.662.172c-.186.116-.298.256-.336.423h-.912c.064-.397.272-.723.624-.98.352-.256.78-.384 1.286-.384h.48c.378 0 .701.061.97.183.27.115.474.281.615.499.147.218.22.477.22.778 0 .314-.102.573-.307.778-.204.198-.493.31-.864.336v.038c.455.032.784.154.99.365.204.211.306.515.306.912 0 .468-.172.839-.518 1.114-.346.275-.81.413-1.392.413h-.452zm9.646-.067v-5.281h2.285c.551 0 .976.124 1.277.374.301.243.452.586.452 1.028 0 .364-.125.659-.375.883-.25.218-.579.326-.989.326v-.076c.448 0 .807.112 1.075.336.276.224.413.525.413.902 0 .474-.16.845-.48 1.114-.32.263-.768.394-1.344.394h-2.314zm.845-.759h1.469c.307 0 .544-.067.71-.201a.679.679 0 00.26-.567c0-.25-.087-.442-.26-.576-.166-.135-.403-.202-.71-.202h-1.469v1.546zm0-2.295h1.44c.269 0 .48-.064.634-.192.16-.128.24-.307.24-.537 0-.231-.077-.41-.231-.538-.153-.135-.368-.202-.643-.202h-1.44v1.469zm6.82 3.131c-.423 0-.788-.08-1.095-.24a1.745 1.745 0 01-.72-.692c-.166-.307-.25-.669-.25-1.085v-1.402c0-.422.084-.784.25-1.085.173-.301.413-.531.72-.691.307-.16.672-.24 1.095-.24.422 0 .787.08 1.094.24.308.16.545.39.711.691.173.301.259.66.259 1.076v1.411c0 .416-.086.778-.259 1.085a1.677 1.677 0 01-.711.692c-.307.16-.672.24-1.094.24zm0-.769c.377 0 .672-.105.883-.316.211-.212.317-.522.317-.932v-1.402c0-.409-.106-.72-.317-.931-.211-.211-.506-.317-.883-.317-.371 0-.666.106-.884.317-.211.211-.316.522-.316.931v1.402c0 .41.105.72.316.932.218.211.513.316.884.316zm3.69 2.42v-7.009h.864v1.008h.173l-.173.201c0-.403.131-.72.393-.95.269-.237.621-.355 1.057-.355.531 0 .953.176 1.267.528.32.345.48.822.48 1.43v1.546c0 .404-.073.753-.221 1.047-.14.294-.342.522-.605.682-.256.16-.563.24-.921.24-.429 0-.778-.119-1.047-.355-.269-.237-.403-.554-.403-.951l.173.202h-.193l.02 1.2v1.536h-.864zm2.026-2.381c.364 0 .649-.109.854-.327.211-.217.317-.531.317-.941v-1.44c0-.41-.106-.723-.317-.941-.205-.218-.49-.326-.854-.326-.353 0-.634.112-.845.336-.212.224-.317.534-.317.931v1.44c0 .397.105.708.317.932.211.224.492.336.845.336zm5.658.73c-.423 0-.788-.08-1.095-.24a1.745 1.745 0 01-.72-.692c-.167-.307-.25-.669-.25-1.085v-1.402c0-.422.083-.784.25-1.085.173-.301.413-.531.72-.691.307-.16.672-.24 1.095-.24.422 0 .787.08 1.094.24.308.16.544.39.711.691.173.301.259.66.259 1.076v1.411c0 .416-.086.778-.259 1.085a1.683 1.683 0 01-.711.692c-.307.16-.672.24-1.094.24zm0-.769c.377 0 .672-.105.883-.316.211-.212.317-.522.317-.932v-1.402c0-.409-.106-.72-.317-.931-.211-.211-.506-.317-.883-.317-.372 0-.666.106-.884.317-.211.211-.317.522-.317.931v1.402c0 .41.106.72.317.932.218.211.512.316.884.316zm3.709.692v-5.281h.864v2.198h2.227v-2.198h.865v5.281h-.865v-2.295h-2.227v2.295h-.864zm5.715 0v-5.281h.865v2.179h.902l1.536-2.179h.99l-1.777 2.515 1.805 2.766h-1.008l-1.536-2.353h-.912v2.353h-.865zm6.465 1.728l.778-2.055-1.959-4.954h.96l1.229 3.264c.045.109.087.24.125.394.039.147.071.272.096.374l.096-.374c.039-.154.077-.285.115-.394l1.153-3.264h.931l-2.602 7.009h-.922zM14.903 156.051v-5.281h3.956v5.281h-.865v-4.494h-2.227v4.494h-.864zm5.667 1.728v-7.009h.864v1.008h.173l-.172.201c0-.403.13-.72.393-.95.27-.237.621-.355 1.056-.355.532 0 .954.176 1.268.528.32.345.48.822.48 1.43v1.546c0 .404-.074.753-.22 1.047a1.58 1.58 0 01-.606.682c-.256.16-.563.24-.922.24-.428 0-.777-.119-1.046-.355-.269-.237-.404-.554-.404-.951l.173.202h-.192l.02 1.2v1.536h-.865zm2.026-2.381c.365 0 .65-.109.855-.327.211-.217.317-.531.317-.941v-1.44c0-.41-.106-.723-.317-.941-.205-.218-.49-.326-.855-.326-.352 0-.633.112-.845.336-.21.224-.317.534-.317.931v1.44c0 .397.106.708.317.932.212.224.493.336.845.336zm5.659.73c-.423 0-.788-.08-1.095-.24a1.744 1.744 0 01-.72-.692c-.167-.307-.25-.669-.25-1.085v-1.402c0-.422.083-.784.25-1.085.173-.301.413-.531.72-.691.307-.16.672-.24 1.095-.24.422 0 .787.08 1.094.24.308.16.544.39.71.691.174.301.26.66.26 1.076v1.411c0 .416-.086.778-.26 1.085a1.683 1.683 0 01-.71.692c-.307.16-.672.24-1.095.24zm0-.769c.377 0 .672-.105.883-.316.211-.212.317-.522.317-.932v-1.402c0-.409-.106-.72-.317-.931-.211-.211-.506-.317-.884-.317-.37 0-.665.106-.883.317-.211.211-.317.522-.317.931v1.402c0 .41.106.72.317.932.218.211.512.316.884.316zm3.094 2.036v-2.084h.432c.109-.108.22-.323.336-.643.122-.32.186-.726.192-1.219l.058-2.679h3.447v4.541h.672v2.084h-.768v-1.344h-3.6v1.344h-.77zm1.344-2.084h2.257v-3.773h-1.767l-.038 1.93c-.007.506-.061.915-.164 1.229-.102.314-.198.518-.288.614zm6.474.836c-.556 0-.995-.141-1.315-.423-.32-.288-.48-.675-.48-1.162 0-.492.16-.88.48-1.161.32-.282.752-.423 1.296-.423h1.633v-.528c0-.327-.1-.576-.298-.749-.192-.179-.467-.269-.826-.269-.313 0-.576.067-.787.202a.717.717 0 00-.365.528h-.864c.057-.455.272-.816.643-1.085s.836-.403 1.392-.403c.609 0 1.089.156 1.44.47.353.314.529.739.529 1.277v3.63H40.8v-1.008h-.144l.144-.144c0 .384-.15.688-.451.912-.295.224-.689.336-1.181.336zm.212-.682c.41 0 .746-.102 1.008-.307a.957.957 0 00.394-.788v-.749h-1.614c-.288 0-.515.08-.681.24-.167.161-.25.378-.25.653 0 .295.1.529.298.701.205.167.486.25.845.25zm3.229.586l1.152-2.708-1.076-2.573h.836l.922 2.304h.508v-2.304h.73v2.304h.49l.95-2.304h.826l-1.075 2.544 1.152 2.737h-.864l-.96-2.401h-.519v2.401h-.73v-2.401h-.518l-.97 2.401h-.854zm8.394.096c-.243 0-.438-.071-.585-.211-.141-.141-.212-.33-.212-.567 0-.25.07-.448.212-.595.147-.148.342-.221.585-.221.244 0 .436.073.576.221.148.147.221.345.221.595 0 .237-.073.426-.22.567-.141.14-.333.211-.577.211zM16.88 24.096c-.422 0-.787-.08-1.094-.24-.3-.16-.534-.39-.701-.691-.16-.308-.24-.67-.24-1.085v-3.17c0-.422.08-.783.24-1.084.166-.301.4-.532.701-.692.307-.16.672-.24 1.095-.24.422 0 .784.08 1.085.24.307.16.54.39.7.692.167.3.25.66.25 1.075v3.179c0 .416-.083.777-.25 1.085-.16.3-.393.53-.7.691-.301.16-.663.24-1.085.24zm0-.778c.378 0 .666-.105.865-.317.205-.217.307-.524.307-.921v-3.17c0-.396-.102-.7-.307-.911-.199-.218-.487-.327-.864-.327-.372 0-.66.109-.864.327-.205.21-.308.515-.308.912v3.169c0 .397.103.704.308.921.204.212.492.317.864.317zm5.688.778c-.621 0-1.114-.182-1.48-.547-.358-.372-.537-.877-.537-1.517V19.63c0-.845.211-1.495.634-1.95.422-.46 1.027-.69 1.815-.69h1.344v.864H23c-.519 0-.913.153-1.181.46-.27.301-.404.74-.404 1.316v.624h.135l-.135.192c.007-.377.135-.672.384-.883.25-.212.59-.317 1.018-.317.557 0 .99.18 1.296.538.314.358.471.851.471 1.478v.769c0 .428-.08.796-.24 1.104-.16.307-.39.544-.691.71-.301.167-.663.25-1.085.25zm0-.768c.37 0 .656-.112.854-.336.199-.224.298-.544.298-.96v-.769c0-.416-.1-.736-.298-.96-.198-.224-.483-.336-.854-.336-.372 0-.657.112-.855.336-.198.218-.298.538-.298.96v.769c0 .416.1.736.298.96.198.224.483.336.855.336zm4.515 2.4l.778-2.055-1.959-4.954h.96l1.23 3.264c.044.11.086.24.124.394l.096.375.096-.375c.039-.153.077-.285.115-.393l1.153-3.265h.931l-2.602 7.01h-.922zM34.998 24v-1.92c-.103.025-.26.05-.47.076-.206.02-.423.03-.654.03-.653.006-1.162-.151-1.527-.471-.358-.327-.537-.781-.537-1.364V18.72h.864v1.632c0 .327.109.586.327.778.224.186.53.278.921.278.27 0 .496-.01.682-.028.192-.026.323-.048.394-.068V18.72h.864V24h-.864zm4.63.096c-.416 0-.78-.083-1.094-.25a1.807 1.807 0 01-.72-.7 2.203 2.203 0 01-.25-1.066v-1.44c0-.41.083-.766.25-1.067.172-.3.413-.534.72-.7a2.29 2.29 0 011.094-.25c.416 0 .778.083 1.086.25.313.166.553.4.72.7.172.301.259.657.259 1.066v.932h-3.284v.509c0 .416.106.736.317.96.211.217.512.326.902.326.333 0 .602-.057.807-.173.205-.121.33-.3.374-.537h.865a1.471 1.471 0 01-.653 1.056c-.371.256-.836.384-1.393.384zm1.22-3.102v-.355c0-.416-.106-.736-.317-.96-.205-.224-.506-.336-.903-.336-.39 0-.69.112-.902.336-.211.224-.317.544-.317.96v.279h2.506l-.067.076zM43.338 24v-5.281h.864v2.199h2.227v-2.2h.864V24h-.864v-2.295h-2.227V24h-.865zm5.686 0v-5.281h.826v2.88c0 .186-.006.381-.02.586-.005.205-.018.4-.038.586-.012.18-.028.333-.048.46l2.132-4.512h1.104V24h-.825v-2.88c0-.186.003-.382.01-.586.012-.205.028-.4.047-.586l.048-.47L50.13 24h-1.105zm7.665.096c-.416 0-.78-.083-1.094-.25a1.807 1.807 0 01-.72-.7 2.202 2.202 0 01-.25-1.066v-1.44c0-.41.083-.766.25-1.067.172-.3.412-.534.72-.7a2.29 2.29 0 011.094-.25c.416 0 .778.083 1.085.25.314.166.554.4.72.7.173.301.26.657.26 1.066v.932H55.47v.509c0 .416.105.736.317.96.21.217.512.326.902.326.333 0 .602-.057.807-.173.205-.121.33-.3.374-.537h.864a1.47 1.47 0 01-.652 1.056c-.372.256-.836.384-1.393.384zm1.22-3.102v-.355c0-.416-.106-.736-.317-.96-.205-.224-.506-.336-.903-.336-.39 0-.691.112-.902.336-.212.224-.317.544-.317.96v.279h2.506l-.067.076zM66.114 24v-5.281h.864v2.18h.903l1.536-2.18h.99l-1.777 2.516L70.435 24h-1.008l-1.537-2.352h-.912V24h-.864zm7.636.077c-.422 0-.787-.08-1.094-.24a1.743 1.743 0 01-.72-.692c-.167-.307-.25-.668-.25-1.085v-1.402c0-.422.083-.784.25-1.085.172-.3.412-.53.72-.691.307-.16.672-.24 1.094-.24.423 0 .787.08 1.095.24.307.16.544.39.71.691.173.301.26.66.26 1.076v1.411c0 .417-.087.778-.26 1.085a1.68 1.68 0 01-.71.692c-.308.16-.672.24-1.095.24zm0-.768c.378 0 .672-.106.883-.317.212-.212.317-.522.317-.932v-1.402c0-.41-.105-.72-.317-.931-.21-.211-.505-.317-.883-.317-.371 0-.666.106-.883.317-.212.211-.317.522-.317.931v1.402c0 .41.106.72.317.932.217.211.512.317.883.317zm3.536.691v-5.281h1.172l.691 2.026c.07.205.134.41.192.614.058.199.1.352.125.461.026-.108.064-.262.115-.46.058-.205.118-.413.182-.625l.653-2.016h1.172V24h-.835v-.816c0-.288.003-.602.01-.941l.018-1.028.039-.98c.013-.313.022-.588.029-.825l-.941 3.006h-.913l-.95-2.987c.013.288.022.647.029 1.076.012.429.022.877.028 1.344.013.467.02.912.02 1.335V24h-.836zm7.377.096c-.557 0-.995-.14-1.315-.422-.32-.288-.48-.676-.48-1.162 0-.493.16-.88.48-1.162.32-.282.752-.423 1.296-.423h1.632V20.4c0-.326-.099-.576-.297-.749-.192-.179-.468-.269-.826-.269-.314 0-.576.068-.788.202a.717.717 0 00-.364.528h-.865c.058-.454.272-.816.644-1.085.371-.269.835-.403 1.392-.403.608 0 1.088.157 1.44.47.352.314.529.74.529 1.277V24h-.846v-1.008h-.144l.145-.144c0 .384-.151.688-.452.912-.294.224-.688.336-1.18.336zm.211-.682c.41 0 .746-.102 1.009-.307a.956.956 0 00.393-.787v-.75h-1.613c-.288 0-.515.08-.682.24-.166.16-.25.378-.25.654 0 .294.1.528.298.7.205.167.487.25.845.25zm3.959.586v-5.281h.864v2.199h2.228v-2.2h.864V24h-.864v-2.295h-2.228V24h-.864zm5.072 1.344v-2.083h.432c.11-.11.221-.324.337-.644.121-.32.185-.726.191-1.22l.058-2.678h3.447v4.542h.672v2.083h-.768V24h-3.6v1.344h-.769zm1.345-2.083h2.256v-3.774H95.74l-.038 1.93c-.006.506-.06.915-.163 1.23-.103.313-.199.518-.288.614zm4.678.739v-5.281h.807v1.94h.432c.57 0 1.018.15 1.344.45.333.295.5.702.5 1.22 0 .519-.167.928-.5 1.23-.326.294-.774.441-1.344.441h-1.239zm.807-.691h.432c.339 0 .602-.087.787-.26.192-.172.288-.412.288-.72 0-.307-.096-.547-.288-.72-.185-.173-.448-.26-.787-.26h-.432v1.96zm2.9.691v-5.281h.806V24h-.806zm4.237-3.937c-.237 0-.429-.064-.576-.192a.68.68 0 01-.221-.528.65.65 0 01.221-.519c.147-.134.339-.201.576-.201.243 0 .435.067.576.201a.653.653 0 01.221.519.683.683 0 01-.221.528c-.141.128-.333.192-.576.192zm0 4.033c-.237 0-.429-.064-.576-.192a.68.68 0 01-.221-.528.65.65 0 01.221-.519c.147-.134.339-.201.576-.201.243 0 .435.067.576.201a.653.653 0 01.221.519.683.683 0 01-.221.528c-.141.128-.333.192-.576.192z" fill="#fff"/><defs><filter id="filter0_d_440_479" x=".28" y="0" width="179.561" height="178.6" filterUnits="userSpaceOnUse" color-interpolation-filters="sRGB"><feFlood flood-opacity="0" result="BackgroundImageFix"/><feColorMatrix in="SourceAlpha" values="0 0 0 0 0 0 0 0 0 0 0 0 0 0 0 0 0 0 127 0" result="hardAlpha"/><feOffset dy="3.841"/><feGaussianBlur stdDeviation="1.92"/><feComposite in2="hardAlpha" operator="out"/><feColorMatrix values="0 0 0 0 0 0 0 0 0 0 0 0 0 0 0 0 0 0 0.25 0"/><feBlend in2="BackgroundImageFix" result="effect1_dropShadow_440_479"/><feBlend in="SourceGraphic" in2="effect1_dropShadow_440_479" result="shape"/></filter></defs></svg>