<svg width="181" height="179" fill="none" xmlns="http://www.w3.org/2000/svg"><g filter="url(#filter0_d_440_437)"><rect x="4.561" width="171.879" height="170.919" rx="16.004" fill="#46767D"/></g><mask id="a" style="mask-type:alpha" maskUnits="userSpaceOnUse" x="4" y="0" width="173" height="43"><path fill="#C9D9CD" d="M4.561 0H176.44v42.249H4.561z"/></mask><g mask="url(#a)"><rect x="4.561" y="-1.69" width="171.879" height="118.299" rx="16.004" fill="#223B38"/></g><path d="M14.893 60.05v-7.009h.864v2.996h2.247v-2.996h.864v7.01h-.864v-3.227h-2.247v3.227h-.864zm7.214.097c-.557 0-.996-.141-1.316-.423-.32-.288-.48-.675-.48-1.162 0-.492.16-.88.48-1.161.32-.282.752-.423 1.296-.423h1.633v-.528c0-.327-.1-.576-.298-.749-.192-.18-.467-.269-.826-.269-.313 0-.576.067-.787.202a.718.718 0 00-.365.528h-.864c.058-.455.272-.816.643-1.085.372-.269.836-.403 1.393-.403.608 0 1.088.156 1.44.47.352.314.528.74.528 1.277v3.63h-.845v-1.008h-.144l.144-.145c0 .385-.15.689-.451.913-.295.224-.688.336-1.181.336zm.21-.682c.41 0 .747-.102 1.01-.307a.956.956 0 00.393-.788v-.749h-1.613c-.288 0-.516.08-.682.24-.166.16-.25.378-.25.653 0 .295.1.529.298.701.205.167.486.25.845.25zm5.957.682a2.46 2.46 0 01-1.114-.24 1.729 1.729 0 01-.73-.692c-.173-.307-.26-.669-.26-1.085v-1.44c0-.422.087-.784.26-1.085.173-.3.416-.531.73-.691.32-.16.691-.24 1.114-.24.608 0 1.098.163 1.469.49.371.326.566.77.586 1.334h-.865c-.019-.34-.134-.599-.345-.778-.205-.185-.487-.278-.845-.278-.378 0-.679.109-.903.326-.224.212-.336.515-.336.912v1.45c0 .397.112.704.336.922.224.218.525.327.903.327.358 0 .64-.093.845-.279.211-.186.326-.445.345-.778h.865c-.02.564-.215 1.009-.586 1.335-.371.327-.861.49-1.47.49zm5.235-.096v-4.523h-1.92v-.758h4.705v.758h-1.92v4.523h-.865zm4.122 1.728v-7.01h.864v1.009h.173l-.173.202c0-.404.132-.72.394-.951.269-.237.621-.355 1.056-.355.532 0 .954.176 1.268.528.32.345.48.822.48 1.43v1.546c0 .404-.074.753-.22 1.047a1.57 1.57 0 01-.606.682c-.256.16-.563.24-.922.24-.429 0-.778-.119-1.046-.355-.27-.237-.404-.554-.404-.951l.173.202h-.192l.02 1.2v1.536h-.865zm2.026-2.381c.365 0 .65-.109.855-.327.211-.217.317-.531.317-.94V56.69c0-.41-.106-.723-.317-.941-.205-.218-.49-.327-.855-.327-.352 0-.633.113-.845.337-.211.224-.317.534-.317.931v1.44c0 .397.106.708.317.932.212.224.493.336.845.336zm5.658.73c-.422 0-.787-.08-1.094-.24a1.742 1.742 0 01-.72-.692c-.167-.307-.25-.669-.25-1.085V56.71c0-.422.083-.784.25-1.085.172-.3.413-.531.72-.691.307-.16.672-.24 1.094-.24.423 0 .788.08 1.095.24.307.16.544.39.71.691.173.301.26.66.26 1.076v1.411c0 .416-.087.778-.26 1.085a1.68 1.68 0 01-.71.692c-.307.16-.672.24-1.095.24zm0-.769c.378 0 .672-.105.884-.316.211-.212.317-.522.317-.932V56.71c0-.41-.106-.72-.317-.931-.212-.211-.506-.317-.884-.317-.37 0-.665.106-.883.317-.211.211-.317.522-.317.931v1.402c0 .41.106.72.317.932.218.21.512.316.883.316zm3.71.692V54.77h.825v2.88c0 .186-.006.381-.02.586-.005.205-.018.4-.038.586a5.306 5.306 0 01-.048.46l2.132-4.512h1.104v5.28h-.825v-2.88c0-.186.003-.38.01-.586.012-.204.028-.4.047-.585l.048-.47-2.131 4.522h-1.105zm5.024.067v-.807h.172c.295 0 .5-.115.615-.345.122-.23.186-.644.192-1.239l.058-2.957h3.581v5.28h-.864v-4.493H55.94l-.048 2.209c-.013.556-.077 1.008-.192 1.353-.109.346-.281.599-.518.759-.23.16-.535.24-.913.24h-.22zm6.35-.067V54.77h.825v2.88c0 .186-.006.381-.02.586-.006.205-.018.4-.038.586a5.306 5.306 0 01-.048.46l2.132-4.512h1.104v5.28h-.825v-2.88c0-.186.003-.38.01-.586.012-.204.028-.4.047-.585l.048-.47-2.132 4.522h-1.104zm13.37.096c-.422 0-.794-.08-1.114-.24a1.728 1.728 0 01-.73-.692c-.172-.307-.259-.669-.259-1.085v-1.44c0-.422.087-.784.26-1.085.172-.3.416-.531.73-.691.32-.16.69-.24 1.113-.24.608 0 1.098.163 1.47.49.37.326.566.77.585 1.334h-.864c-.02-.34-.134-.599-.346-.778-.205-.185-.486-.278-.845-.278-.377 0-.678.109-.902.326-.224.212-.336.515-.336.912v1.45c0 .397.112.704.336.922.224.218.525.327.902.327.359 0 .64-.093.845-.279.212-.186.327-.445.346-.778h.864c-.019.564-.214 1.009-.585 1.335-.372.327-.862.49-1.47.49zm3.69-.096V54.77h.826v2.88c0 .186-.007.381-.02.586-.006.205-.019.4-.038.586a6.233 6.233 0 01-.048.46l2.132-4.512h1.104v5.28h-.826v-2.88c0-.186.004-.38.01-.586.013-.204.029-.4.048-.585l.048-.47-2.132 4.522H77.46zm7.684.096c-.422 0-.794-.08-1.114-.24a1.728 1.728 0 01-.73-.692c-.172-.307-.259-.669-.259-1.085v-1.44c0-.422.087-.784.26-1.085.172-.3.416-.531.73-.691.32-.16.69-.24 1.113-.24.608 0 1.098.163 1.47.49.37.326.566.77.585 1.334h-.864c-.02-.34-.135-.599-.346-.778-.205-.185-.486-.278-.845-.278-.377 0-.678.109-.902.326-.224.212-.337.515-.337.912v1.45c0 .397.113.704.337.922.224.218.525.327.902.327.359 0 .64-.093.845-.279.212-.186.327-.445.346-.778h.864c-.02.564-.214 1.009-.586 1.335-.37.327-.86.49-1.469.49zm5.236-.096v-4.523h-1.92v-.758h4.704v.758h-1.92v4.523h-.864zm6.119.096a2.3 2.3 0 01-1.095-.25 1.806 1.806 0 01-.72-.7 2.204 2.204 0 01-.25-1.067v-1.44c0-.41.084-.765.25-1.066.173-.3.413-.534.72-.7.314-.167.679-.25 1.095-.25.416 0 .778.083 1.085.25.314.166.554.4.72.7.173.301.26.656.26 1.066v.931h-3.285v.51c0 .415.106.736.317.96.212.217.512.326.903.326.333 0 .602-.058.806-.173a.76.76 0 00.375-.538h.864a1.47 1.47 0 01-.653 1.057c-.371.256-.835.384-1.392.384zm1.22-3.102v-.355c0-.416-.106-.736-.318-.96-.204-.224-.505-.336-.902-.336-.39 0-.691.112-.903.336-.21.224-.317.544-.317.96v.279h2.507l-.068.076zm2.316 3.006V54.77h1.171l.692 2.026c.07.205.134.41.192.614.057.199.099.352.125.461.025-.109.064-.262.115-.46.058-.206.118-.414.182-.625l.653-2.016h1.172v5.28h-.836v-.815c0-.288.004-.602.01-.941l.019-1.028.039-.98c.012-.313.022-.588.028-.825l-.941 3.005h-.912l-.95-2.986c.012.288.022.647.028 1.076.013.428.023.877.029 1.344.013.467.019.912.019 1.335v.816h-.835zm6.666 1.728l.778-2.055-1.959-4.954h.96l1.23 3.264c.044.11.086.24.124.394.039.147.071.272.096.375l.096-.375a4.42 4.42 0 01.116-.394l1.152-3.264h.931l-2.602 7.01h-.922zM16.88 79.128c-.422 0-.787-.08-1.094-.24a1.743 1.743 0 01-.72-.692c-.167-.307-.25-.669-.25-1.085V75.71c0-.422.083-.784.25-1.085.173-.3.413-.531.72-.691.307-.16.672-.24 1.095-.24.422 0 .787.08 1.094.24.308.16.544.39.71.691.174.301.26.66.26 1.076v1.411c0 .416-.086.778-.26 1.085a1.675 1.675 0 01-.71.692c-.307.16-.672.24-1.094.24zm0-.769c.378 0 .673-.105.884-.316.211-.212.317-.522.317-.932V75.71c0-.41-.106-.72-.317-.931-.211-.211-.506-.317-.883-.317-.372 0-.666.106-.884.317-.211.211-.317.521-.317.931v1.402c0 .41.106.72.317.932.218.21.512.316.884.316zm5.256.692v-4.523h-1.92v-.758h4.704v.758H23v4.523h-.864zm6.138.096a2.46 2.46 0 01-1.114-.24 1.729 1.729 0 01-.73-.692c-.173-.307-.26-.669-.26-1.085v-1.44c0-.422.087-.784.26-1.085.173-.3.416-.531.73-.691.32-.16.691-.24 1.114-.24.608 0 1.098.163 1.469.49.371.326.566.77.586 1.334h-.865c-.019-.34-.134-.599-.345-.778-.205-.185-.487-.278-.845-.278-.378 0-.679.109-.903.326-.224.212-.336.516-.336.912v1.45c0 .397.112.705.336.922.224.218.525.327.903.327.358 0 .64-.093.845-.279.211-.185.326-.445.345-.778h.865c-.02.564-.215 1.009-.586 1.335-.371.327-.861.49-1.47.49zm3.027-.029v-.807h.173c.294 0 .499-.115.614-.345.122-.23.186-.644.192-1.239l.058-2.957h3.581v5.28h-.864v-4.493h-1.862l-.048 2.209c-.013.556-.077 1.008-.193 1.353-.108.346-.281.599-.518.759-.23.16-.535.24-.912.24H31.3zm8.327.029a2.3 2.3 0 01-1.094-.25 1.806 1.806 0 01-.72-.7 2.204 2.204 0 01-.25-1.067v-1.44c0-.41.083-.765.25-1.066.172-.3.413-.534.72-.7a2.29 2.29 0 011.094-.25c.416 0 .778.083 1.086.25.313.166.553.4.72.7.172.301.259.656.259 1.066v.931h-3.284v.51c0 .415.106.736.317.96.211.217.512.326.902.326.333 0 .602-.058.807-.173.205-.121.33-.3.374-.537h.865a1.471 1.471 0 01-.653 1.056c-.371.256-.836.384-1.393.384zm1.22-3.102v-.355c0-.416-.106-.736-.317-.96-.205-.224-.506-.336-.903-.336-.39 0-.69.112-.902.336-.211.224-.317.544-.317.96v.279h2.506l-.067.076zm1.76 3.006l1.152-2.708-1.076-2.573h.836l.922 2.304h.508V73.77h.73v2.304h.49l.95-2.304h.826l-1.075 2.544 1.152 2.737h-.864l-.96-2.4h-.519v2.4h-.73v-2.4h-.518l-.97 2.4h-.854zm6.416 0V73.77h.826v2.88c0 .186-.006.381-.02.586-.005.205-.018.4-.038.586a5.306 5.306 0 01-.048.46l2.132-4.512h1.104v5.28h-.825v-2.88c0-.186.003-.38.01-.586.012-.204.028-.4.047-.585l.048-.47-2.131 4.522h-1.105zm5.687 0V73.77h2.285c.551 0 .977.124 1.278.374.3.243.45.586.45 1.027 0 .365-.124.66-.373.884-.25.218-.58.326-.99.326v-.076c.449 0 .807.112 1.076.336.275.224.413.525.413.902 0 .474-.16.845-.48 1.114-.32.263-.768.394-1.345.394h-2.314zm.845-.759h1.47c.307 0 .543-.067.71-.201a.679.679 0 00.26-.567c0-.25-.087-.442-.26-.576-.166-.134-.403-.202-.71-.202h-1.47v1.546zm0-2.295h1.44c.27 0 .48-.064.634-.192.16-.128.24-.307.24-.538 0-.23-.076-.41-.23-.537-.154-.135-.368-.202-.644-.202h-1.44v1.47zm6.36 3.15c-.558 0-.996-.141-1.316-.423-.32-.288-.48-.675-.48-1.162 0-.492.16-.88.48-1.161.32-.282.752-.423 1.296-.423h1.633v-.528c0-.326-.1-.576-.298-.749-.192-.18-.468-.269-.826-.269-.314 0-.576.067-.787.202a.717.717 0 00-.365.528h-.864c.057-.455.272-.816.643-1.085s.835-.403 1.392-.403c.608 0 1.089.156 1.44.47.353.314.529.74.529 1.277v3.63h-.845v-1.008h-.144l.144-.145c0 .385-.15.689-.452.913-.294.224-.688.336-1.18.336zm.21-.682c.41 0 .746-.102 1.009-.307a.956.956 0 00.394-.788v-.749h-1.614c-.288 0-.515.08-.681.24-.167.16-.25.378-.25.653 0 .295.1.529.298.701.204.167.486.25.845.25zm3.96.586V73.77h.863v2.199h2.228v-2.2h.864v5.282h-.864v-2.295h-2.228v2.295h-.864zm5.686 0V73.77h.826v2.88c0 .186-.007.381-.02.586-.006.205-.019.4-.038.586a6.233 6.233 0 01-.048.46l2.132-4.512h1.104v5.28h-.826v-2.88c0-.186.004-.38.01-.586.013-.204.029-.4.048-.585l.048-.47-2.132 4.522h-1.104zm5.36 0l1.355-2.036c-.404-.096-.718-.281-.942-.557-.217-.275-.326-.617-.326-1.027 0-.519.17-.925.509-1.22.346-.294.816-.441 1.411-.441h2.276v5.28h-.864v-1.968h-1.162l-1.248 1.969h-1.009zm2.007-2.737h1.412v-1.776h-1.412c-.32 0-.572.08-.758.24-.186.153-.279.371-.279.653 0 .275.093.493.279.653.186.153.438.23.758.23zm11.422 2.804c-.557 0-1.014-.118-1.373-.355a1.411 1.411 0 01-.633-.96h.912c.044.16.163.29.355.393.198.103.445.154.74.154h.45c.314 0 .558-.074.73-.221a.71.71 0 00.27-.576c0-.256-.087-.458-.26-.605-.166-.147-.413-.22-.74-.22h-1.161v-.75h1.133c.294 0 .518-.07.672-.211a.72.72 0 00.23-.557.728.728 0 00-.105-.403.61.61 0 00-.298-.25 1.242 1.242 0 00-.49-.087h-.48a1.23 1.23 0 00-.662.173c-.186.116-.298.256-.336.423h-.912c.064-.397.272-.724.624-.98s.78-.384 1.286-.384h.48c.378 0 .701.061.97.183a1.321 1.321 0 01.835 1.277c0 .314-.102.573-.307.778-.204.198-.493.31-.864.336v.038c.455.032.784.154.99.365.204.211.306.515.306.912 0 .468-.172.839-.518 1.114-.346.275-.81.413-1.392.413h-.452zm3.959-.067V73.77h2.285c.55 0 .976.124 1.277.374.301.243.452.586.452 1.027 0 .365-.125.66-.375.884-.25.218-.58.326-.989.326v-.076c.448 0 .807.112 1.076.336.275.224.412.525.412.902 0 .474-.16.845-.48 1.114-.32.263-.768.394-1.344.394H94.52zm.845-.759h1.469c.307 0 .544-.067.71-.201a.679.679 0 00.26-.567c0-.25-.087-.442-.26-.576-.166-.134-.403-.202-.71-.202h-1.47v1.546zm0-2.295h1.44c.269 0 .48-.064.634-.192.16-.128.24-.307.24-.538 0-.23-.077-.41-.23-.537-.154-.135-.369-.202-.644-.202h-1.44v1.47zm6.82 3.13c-.423 0-.788-.08-1.095-.24a1.744 1.744 0 01-.72-.69 2.256 2.256 0 01-.25-1.086V75.71c0-.422.084-.784.25-1.085.173-.3.413-.531.72-.691.307-.16.672-.24 1.095-.24.422 0 .787.08 1.095.24.307.16.544.39.71.691.173.301.259.66.259 1.076v1.411c0 .416-.086.778-.259 1.085a1.68 1.68 0 01-.71.692c-.308.16-.673.24-1.095.24zm0-.768c.378 0 .672-.105.883-.316.212-.212.317-.522.317-.932V75.71c0-.41-.105-.72-.317-.931-.211-.211-.505-.317-.883-.317-.371 0-.666.106-.884.317-.211.211-.316.521-.316.931v1.402c0 .41.105.72.316.932.218.21.513.316.884.316zm3.709.692V73.77h.864v2.199h2.228v-2.2h.864v5.282h-.864v-2.295h-2.228v2.295h-.864zm5.716 0V73.77h.864v2.18h.902l1.537-2.18h.989l-1.777 2.515 1.805 2.766h-1.008l-1.536-2.353h-.912v2.353h-.864zm7.636.077c-.423 0-.788-.08-1.095-.24a1.744 1.744 0 01-.72-.692c-.167-.307-.25-.669-.25-1.085V75.71c0-.422.083-.784.25-1.085.173-.3.413-.531.72-.691.307-.16.672-.24 1.095-.24.422 0 .787.08 1.094.24.308.16.544.39.711.691.173.301.259.66.259 1.076v1.411c0 .416-.086.778-.259 1.085a1.683 1.683 0 01-.711.692c-.307.16-.672.24-1.094.24zm0-.769c.377 0 .672-.105.883-.316.211-.212.317-.522.317-.932V75.71c0-.41-.106-.72-.317-.931-.211-.211-.506-.317-.883-.317-.372 0-.666.106-.884.317-.211.211-.317.521-.317.931v1.402c0 .41.106.72.317.932.218.21.512.316.884.316zm3.709.692V73.77h2.285c.55 0 .976.124 1.277.374.301.243.451.586.451 1.027 0 .365-.125.66-.374.884-.25.218-.58.326-.989.326v-.076c.448 0 .806.112 1.075.336.276.224.413.525.413.902 0 .474-.16.845-.48 1.114-.32.263-.768.394-1.344.394h-2.314zm.845-.759h1.469c.307 0 .544-.067.71-.201a.679.679 0 00.26-.567c0-.25-.087-.442-.26-.576-.166-.134-.403-.202-.71-.202H123.8v1.546zm0-2.295h1.44c.269 0 .48-.064.634-.192.16-.128.24-.307.24-.538 0-.23-.077-.41-.231-.537-.153-.135-.368-.202-.643-.202h-1.44v1.47zm9.914 4.398v-2.084h.432c.109-.108.221-.323.336-.643.122-.32.186-.727.192-1.22l.058-2.678h3.447v4.541h.672v2.084h-.768v-1.344h-3.601v1.344h-.768zm1.344-2.084h2.257v-3.773h-1.767l-.038 1.93c-.007.505-.061.915-.164 1.229-.102.313-.198.518-.288.614zm4.295.807v-.807h.173c.294 0 .499-.115.614-.345.122-.23.186-.644.192-1.239l.058-2.957h3.582v5.28h-.865v-4.493h-1.862l-.048 2.209c-.013.556-.077 1.008-.193 1.353-.108.346-.281.599-.518.759-.231.16-.535.24-.912.24h-.221zm6.023-.067l1.354-2.036c-.403-.096-.717-.281-.941-.557-.218-.275-.327-.617-.327-1.027 0-.519.17-.925.509-1.22.346-.294.816-.441 1.412-.441h2.275v5.28h-.864v-1.968h-1.162l-1.248 1.969h-1.008zm2.007-2.737h1.411v-1.776h-1.411c-.32 0-.573.08-.759.24-.185.153-.278.371-.278.653 0 .275.093.493.278.653.186.153.439.23.759.23zM14.73 98.051V92.77h1.17l.692 2.026c.07.204.134.41.192.614.057.199.099.352.125.461.025-.109.064-.262.115-.46.057-.206.118-.414.182-.625l.653-2.016h1.172v5.28h-.836v-.815c0-.288.003-.602.01-.941l.019-1.028.038-.98c.013-.313.023-.588.03-.825l-.942 3.005h-.912l-.95-2.986c.012.288.022.647.028 1.076.013.428.023.877.029 1.344.013.467.02.912.02 1.335v.816h-.836zm7.838.077c-.423 0-.788-.08-1.095-.24a1.742 1.742 0 01-.72-.692c-.167-.307-.25-.669-.25-1.085V94.71c0-.422.083-.784.25-1.085.173-.3.413-.531.72-.691.307-.16.672-.24 1.095-.24.422 0 .787.08 1.094.24.308.16.544.39.71.691.174.301.26.66.26 1.076v1.411c0 .416-.086.778-.26 1.085a1.675 1.675 0 01-.71.692c-.307.16-.672.24-1.094.24zm0-.769c.377 0 .672-.105.883-.316.211-.212.317-.522.317-.932V94.71c0-.41-.106-.72-.317-.931-.211-.211-.506-.317-.883-.317-.372 0-.666.106-.884.317-.211.211-.317.521-.317.931v1.402c0 .41.106.72.317.932.218.21.512.316.884.316zm3.708.692V92.77h.865v2.199h2.227v-2.2h.865v5.282h-.865v-2.295h-2.227v2.295h-.864zm5.687 0V92.77h.826v2.88c0 .186-.006.381-.019.586-.006.205-.02.4-.038.586a6.83 6.83 0 01-.048.46l2.131-4.512h1.105v5.28h-.826v-2.88c0-.186.003-.38.01-.586.012-.204.028-.4.047-.585l.048-.47-2.131 4.522h-1.105zm7.233 0v-4.523h-1.92v-.758h4.705v.758h-1.92v4.523h-.865zm6.12.077c-.423 0-.788-.08-1.095-.24a1.742 1.742 0 01-.72-.692c-.167-.307-.25-.669-.25-1.085V94.71c0-.422.083-.784.25-1.085.172-.3.413-.531.72-.691.307-.16.672-.24 1.094-.24.423 0 .788.08 1.095.24.307.16.544.39.71.691.173.301.26.66.26 1.076v1.411c0 .416-.087.778-.26 1.085a1.68 1.68 0 01-.71.692c-.307.16-.672.24-1.095.24zm0-.769c.377 0 .671-.105.883-.316.211-.212.317-.522.317-.932V94.71c0-.41-.106-.72-.317-.931-.212-.211-.506-.317-.884-.317-.37 0-.665.106-.883.317-.211.211-.317.521-.317.931v1.402c0 .41.106.72.317.932.218.21.512.316.883.316zm3.69 2.42v-7.01h.863v1.009h.173l-.173.201c0-.403.132-.72.394-.95.269-.237.62-.355 1.056-.355.531 0 .954.176 1.268.528.32.345.48.822.48 1.43v1.546c0 .404-.074.752-.221 1.047-.14.294-.342.522-.605.682-.256.16-.563.24-.922.24-.429 0-.778-.119-1.046-.356-.27-.236-.404-.553-.404-.95l.173.202h-.192l.02 1.2v1.536h-.865zm2.025-2.381c.365 0 .65-.109.855-.327.211-.217.317-.531.317-.94V94.69c0-.41-.106-.723-.317-.941-.205-.218-.49-.326-.855-.326-.352 0-.634.112-.845.336-.211.224-.317.534-.317.931v1.44c0 .397.106.708.317.932.211.224.493.336.845.336zm3.68.653V92.77h.826v2.88c0 .186-.006.381-.02.586-.006.205-.018.4-.038.586a5.306 5.306 0 01-.048.46l2.132-4.512h1.104v5.28h-.825v-2.88c0-.186.003-.38.01-.586.012-.204.028-.4.047-.585l.048-.47-2.132 4.522h-1.104zm5.687 0V92.77h.864v2.199h2.228v-2.2h.864v5.282h-.864v-2.295h-2.228v2.295h-.864zm6.033 0V92.77h3.793v.787h-2.929v4.494h-.864zm6.858.096c-.557 0-.995-.141-1.315-.423-.32-.288-.48-.675-.48-1.162 0-.492.16-.88.48-1.161.32-.282.752-.423 1.296-.423h1.632v-.528c0-.326-.099-.576-.297-.749-.192-.18-.468-.269-.826-.269-.314 0-.576.067-.787.202a.717.717 0 00-.365.528h-.864c.057-.455.271-.816.643-1.085.371-.269.835-.403 1.392-.403.608 0 1.088.156 1.44.47.353.314.529.74.529 1.277v3.63h-.845v-1.008h-.144l.144-.145c0 .385-.15.689-.452.913-.294.224-.688.336-1.18.336zm.212-.682c.41 0 .745-.102 1.008-.307a.956.956 0 00.393-.788v-.749H73.29c-.288 0-.515.08-.681.24-.167.16-.25.378-.25.653 0 .295.099.529.297.701.205.167.487.25.846.25zm11.585.682c-.608 0-1.095-.163-1.46-.49-.365-.326-.557-.771-.576-1.335h.864c.02.333.131.593.336.778.205.186.484.279.836.279.377 0 .669-.11.873-.327.212-.218.317-.525.317-.922v-.384h-1.872v-.768h1.872v-.298c0-.397-.105-.7-.317-.912-.204-.217-.496-.326-.873-.326-.352 0-.63.093-.836.278-.205.18-.317.439-.336.778h-.864c.02-.563.211-1.008.576-1.335.365-.326.852-.49 1.46-.49.428 0 .793.08 1.094.24.307.16.544.391.71.692.167.3.25.662.25 1.085v1.44c0 .416-.083.778-.25 1.085a1.68 1.68 0 01-.71.692c-.3.16-.666.24-1.094.24zm5.34 1.632v-1.728c-.614 0-1.097-.173-1.45-.519-.351-.345-.527-.82-.527-1.42V94.69c0-.595.176-1.063.528-1.402.358-.346.842-.518 1.45-.518v-1.73h.768v1.729c.615 0 1.098.172 1.45.518.352.34.528.807.528 1.402v1.421c0 .602-.176 1.076-.528 1.421-.352.346-.835.519-1.45.519v1.728h-.768zm.02-2.41v-3.918c-.371 0-.662.11-.874.327-.211.218-.317.521-.317.912v1.421c0 .39.106.698.317.922.212.224.503.336.874.336zm.73 0c.377 0 .669-.112.874-.336.21-.224.317-.531.317-.922V94.69c0-.39-.106-.694-.317-.912-.205-.218-.496-.327-.874-.327v3.918zm4.938 2.41v-1.728c-.615 0-1.098-.173-1.45-.519-.352-.345-.528-.82-.528-1.42V94.69c0-.595.176-1.063.528-1.402.358-.346.842-.518 1.45-.518v-1.73h.768v1.729c.614 0 1.098.172 1.45.518.352.34.528.807.528 1.402v1.421c0 .602-.176 1.076-.528 1.421-.352.346-.835.519-1.45.519v1.728h-.768zm.019-2.41v-3.918c-.371 0-.662.11-.874.327-.211.218-.317.521-.317.912v1.421c0 .39.106.698.317.922.212.224.503.336.874.336zm.73 0c.377 0 .669-.112.874-.336.21-.224.317-.531.317-.922V94.69c0-.39-.106-.694-.317-.912-.205-.218-.496-.327-.874-.327v3.918zm5.322.778c-.416 0-.781-.083-1.095-.25a1.808 1.808 0 01-.72-.7 2.208 2.208 0 01-.25-1.067v-1.44c0-.41.084-.765.25-1.066.173-.3.413-.534.72-.7.314-.167.679-.25 1.095-.25.416 0 .778.083 1.085.25.314.166.554.4.72.7.173.301.259.656.259 1.066v.931h-3.284v.51c0 .415.106.736.317.96.212.217.512.326.903.326.333 0 .602-.058.806-.173a.76.76 0 00.375-.537h.864a1.468 1.468 0 01-.653 1.056c-.371.256-.835.384-1.392.384zm1.219-3.102v-.355c0-.416-.105-.736-.317-.96-.204-.224-.505-.336-.902-.336-.391 0-.691.112-.903.336-.211.224-.317.544-.317.96v.279h2.507l-.068.076zm2.519 3.006V92.77h.864v2.18h.902l1.537-2.18h.989l-1.777 2.515 1.806 2.766h-1.009l-1.536-2.353h-.912v2.353h-.864zm7.204 0v-4.523h-1.921v-.758h4.705v.758h-1.92v4.523h-.864zm4.141 0V92.77h.825v2.88c0 .186-.006.381-.019.586-.006.205-.019.4-.038.586a6.31 6.31 0 01-.048.46l2.131-4.512h1.105v5.28h-.826v-2.88c0-.186.003-.38.01-.586.012-.204.028-.4.048-.585l.048-.47-2.132 4.522h-1.104zm5.687 0V92.77h2.285c.55 0 .976.124 1.277.374.301.243.451.586.451 1.027 0 .365-.125.66-.374.884-.25.218-.58.326-.989.326v-.076c.448 0 .806.112 1.075.336.276.224.413.525.413.902 0 .474-.16.845-.48 1.114-.32.263-.768.394-1.344.394h-2.314zm.845-.759h1.469c.307 0 .544-.067.71-.201a.679.679 0 00.26-.567c0-.25-.087-.442-.26-.576-.166-.134-.403-.202-.71-.202H123.8v1.546zm0-2.295h1.44c.269 0 .48-.064.634-.192.16-.128.24-.307.24-.538 0-.23-.077-.41-.231-.537-.153-.135-.368-.202-.643-.202h-1.44v1.47zm4.842 3.054V92.77h.864v2.199h2.227v-2.2h.865v5.282h-.865v-2.295h-2.227v2.295h-.864zm7.665.077c-.423 0-.788-.08-1.095-.24a1.744 1.744 0 01-.72-.692c-.167-.307-.25-.669-.25-1.085V94.71c0-.422.083-.784.25-1.085.173-.3.413-.531.72-.691.307-.16.672-.24 1.095-.24.422 0 .787.08 1.094.24.307.16.544.39.711.691.173.301.259.66.259 1.076v1.411c0 .416-.086.778-.259 1.085a1.689 1.689 0 01-.711.692c-.307.16-.672.24-1.094.24zm0-.769c.377 0 .672-.105.883-.316.211-.212.317-.522.317-.932V94.71c0-.41-.106-.72-.317-.931-.211-.211-.506-.317-.883-.317-.372 0-.666.106-.884.317-.211.211-.317.521-.317.931v1.402c0 .41.106.72.317.932.218.21.512.316.884.316zm5.706.788a2.46 2.46 0 01-1.114-.24 1.728 1.728 0 01-.73-.692c-.173-.307-.259-.669-.259-1.085v-1.44c0-.422.086-.784.259-1.085.173-.3.416-.531.73-.691.32-.16.691-.24 1.114-.24.608 0 1.098.163 1.469.49.371.326.566.77.586 1.334h-.865c-.019-.34-.134-.599-.345-.778-.205-.185-.487-.278-.845-.278-.378 0-.679.109-.903.326-.224.212-.336.516-.336.912v1.45c0 .397.112.705.336.922.224.218.525.327.903.327.358 0 .64-.093.845-.279.211-.185.326-.445.345-.778h.865c-.02.564-.215 1.009-.586 1.335-.371.327-.861.49-1.469.49zm5.235-.096v-4.523h-1.92v-.758h4.705v.758h-1.92v4.523h-.865zm4.141 0V92.77h.826v2.88c0 .186-.006.381-.019.586-.006.205-.019.4-.038.586a5.684 5.684 0 01-.049.46l2.132-4.512h1.104v5.28h-.825v-2.88c0-.186.003-.38.009-.586.013-.204.029-.4.048-.585l.048-.47-2.131 4.522h-1.105zM14.883 119.779v-7.009h.865v1.008h.172l-.172.201c0-.403.13-.72.393-.95.27-.237.621-.355 1.057-.355.53 0 .953.176 1.267.528.32.345.48.822.48 1.43v1.546c0 .404-.073.753-.22 1.047a1.58 1.58 0 01-.606.682c-.256.16-.563.24-.921.24-.43 0-.778-.119-1.047-.355-.269-.237-.403-.554-.403-.951l.172.202h-.192l.02 1.2v1.536h-.865zm2.027-2.381c.364 0 .65-.109.854-.327.211-.217.317-.531.317-.941v-1.44c0-.41-.106-.723-.317-.941-.205-.218-.49-.326-.854-.326-.353 0-.634.112-.846.336-.21.224-.316.534-.316.931v1.44c0 .397.105.708.316.932.212.224.493.336.846.336zm5.658.749c-.417 0-.781-.083-1.095-.25a1.803 1.803 0 01-.72-.701 2.201 2.201 0 01-.25-1.066v-1.44c0-.41.083-.765.25-1.066a1.81 1.81 0 01.72-.701 2.306 2.306 0 011.095-.249c.416 0 .777.083 1.085.249.313.167.553.4.72.701.173.301.26.656.26 1.066v.931h-3.285v.509c0 .416.106.737.317.961.211.217.512.326.903.326.332 0 .601-.058.806-.173a.762.762 0 00.375-.538h.864a1.473 1.473 0 01-.653 1.057c-.371.256-.835.384-1.392.384zm1.22-3.102v-.355c0-.416-.107-.736-.318-.96-.205-.224-.505-.336-.902-.336-.39 0-.692.112-.903.336-.211.224-.317.544-.317.96v.278h2.506l-.067.077zm2.517 3.006v-5.281h.864v2.179h.903l1.537-2.179h.988l-1.776 2.515 1.805 2.766h-1.008l-1.536-2.353h-.913v2.353h-.864zm4.996.067v-.807h.173c.294 0 .499-.115.614-.345.122-.231.186-.644.192-1.239l.058-2.957h3.581v5.281h-.864v-4.494h-1.862l-.048 2.208c-.013.557-.077 1.009-.193 1.354-.108.346-.281.599-.518.759-.23.16-.535.24-.912.24H31.3zm7.866.029c-.556 0-.995-.141-1.315-.423-.32-.288-.48-.675-.48-1.162 0-.492.16-.88.48-1.161.32-.282.752-.423 1.296-.423h1.633v-.528c0-.327-.1-.576-.298-.749-.192-.179-.467-.269-.826-.269-.313 0-.576.067-.787.202a.717.717 0 00-.365.528h-.864c.057-.455.272-.816.643-1.085s.836-.403 1.392-.403c.609 0 1.089.156 1.44.47.353.314.529.739.529 1.277v3.63H40.8v-1.008h-.144l.144-.144c0 .384-.15.688-.451.912-.295.224-.689.336-1.181.336zm.212-.682c.41 0 .746-.102 1.008-.307a.957.957 0 00.394-.788v-.749h-1.614c-.288 0-.515.08-.681.24-.167.161-.25.378-.25.653 0 .295.1.529.298.701.205.167.486.25.845.25zm3.785.586v-5.281h1.172l.691 2.026c.07.204.135.409.192.614.058.199.1.352.125.461.026-.109.064-.262.115-.461.058-.205.119-.413.183-.624l.653-2.016h1.171v5.281h-.835v-.816c0-.288.003-.602.01-.941l.019-1.028c.013-.346.025-.672.038-.979.013-.314.023-.589.029-.826l-.941 3.005h-.912l-.95-2.986c.012.288.022.647.028 1.076.013.428.022.877.029 1.344.012.467.019.912.019 1.335v.816h-.836zm5.86 0v-5.281h.864v2.198h2.228v-2.198h.864v5.281h-.864v-2.295H49.89v2.295h-.865zm5.409 0v-5.281h.806v1.939h.432c.57 0 1.018.151 1.345.452.333.294.5.7.5 1.219 0 .519-.167.928-.5 1.229-.327.295-.775.442-1.345.442h-1.238zm.806-.692h.432c.34 0 .602-.086.788-.259.192-.173.288-.413.288-.72s-.096-.547-.288-.72c-.186-.173-.448-.259-.788-.259h-.432v1.958zm2.9.692v-5.281h.807v5.281h-.807zm1.837 0l1.872-2.718-1.757-2.563h1.018l1.046 1.632c.045.07.087.147.125.23l.106.202a3.47 3.47 0 01.086-.202 3.6 3.6 0 01.135-.23l1.056-1.632h1.008l-1.757 2.573 1.863 2.708h-1.018l-1.133-1.729c-.045-.07-.09-.15-.134-.24a2.033 2.033 0 00-.106-.23 3.994 3.994 0 01-.26.47l-1.142 1.729h-1.008zm11.825 0v-5.281h.864v2.179h.903l1.536-2.179h.989l-1.776 2.515 1.805 2.766h-1.008l-1.537-2.353h-.912v2.353h-.864zm7.175.096c-.557 0-.995-.141-1.315-.423-.32-.288-.48-.675-.48-1.162 0-.492.16-.88.48-1.161.32-.282.752-.423 1.296-.423h1.632v-.528c0-.327-.099-.576-.297-.749-.192-.179-.468-.269-.826-.269-.314 0-.576.067-.787.202a.717.717 0 00-.365.528h-.865c.058-.455.273-.816.644-1.085s.835-.403 1.392-.403c.608 0 1.088.156 1.44.47.353.314.529.739.529 1.277v3.63h-.845v-1.008h-.144l.144-.144c0 .384-.15.688-.452.912-.294.224-.688.336-1.18.336zm.211-.682c.41 0 .746-.102 1.009-.307a.957.957 0 00.393-.788v-.749h-1.613c-.288 0-.515.08-.682.24-.166.161-.25.378-.25.653 0 .295.1.529.298.701.205.167.487.25.845.25zm3.786.586v-5.281h1.172l.69 2.026c.071.204.135.409.193.614.058.199.1.352.125.461.025-.109.064-.262.115-.461.058-.205.118-.413.183-.624l.652-2.016h1.172v5.281h-.836v-.816c0-.288.004-.602.01-.941l.02-1.028c.012-.346.025-.672.038-.979.012-.314.022-.589.028-.826l-.94 3.005h-.913l-.95-2.986c.013.288.022.647.028 1.076.013.428.023.877.03 1.344.012.467.018.912.018 1.335v.816h-.835zm5.86 0v-5.281h3.956v5.281h-.864v-4.494h-2.228v4.494h-.864zm7.204.096c-.557 0-.995-.141-1.316-.423-.32-.288-.48-.675-.48-1.162 0-.492.16-.88.48-1.161.32-.282.753-.423 1.297-.423h1.632v-.528c0-.327-.1-.576-.297-.749-.192-.179-.468-.269-.826-.269-.314 0-.576.067-.788.202a.717.717 0 00-.365.528h-.864c.058-.455.272-.816.644-1.085.37-.269.835-.403 1.392-.403.608 0 1.088.156 1.44.47.352.314.528.739.528 1.277v3.63h-.845v-1.008h-.144l.144-.144c0 .384-.15.688-.45.912-.295.224-.69.336-1.182.336zm.211-.682c.41 0 .746-.102 1.008-.307a.957.957 0 00.394-.788v-.749h-1.613c-.288 0-.515.08-.682.24-.166.161-.25.378-.25.653 0 .295.1.529.298.701.205.167.487.25.845.25zm3.959.586v-5.281h.864v2.198h2.228v-2.198h.864v5.281h-.864v-2.295h-2.228v2.295h-.864zm5.687 0v-5.281h.826v2.88c0 .186-.007.381-.02.586-.006.205-.019.4-.038.586a6.326 6.326 0 01-.048.461l2.132-4.513h1.104v5.281h-.826v-2.881c0-.186.003-.381.01-.586.012-.204.028-.4.048-.585l.048-.471-2.132 4.523h-1.104zm5.687 0v-5.281h.825v2.88c0 .186-.006.381-.019.586-.006.205-.019.4-.038.586a6.326 6.326 0 01-.048.461l2.132-4.513h1.104v5.281h-.826v-2.881c0-.186.003-.381.01-.586.012-.204.028-.4.048-.585l.048-.471-2.132 4.523h-1.104zm2.016-6.146c-.461 0-.832-.128-1.114-.384-.281-.256-.422-.592-.422-1.008h.682c0 .25.076.451.23.605.154.154.359.23.615.23.262 0 .47-.076.624-.23a.8.8 0 00.24-.605h.682c0 .416-.141.752-.423 1.008-.282.256-.653.384-1.114.384zm9.358 6.146v-5.281h.825v2.88c0 .186-.006.381-.019.586-.006.205-.019.4-.038.586a6.326 6.326 0 01-.048.461l2.131-4.513h1.105v5.281h-.826v-2.881c0-.186.003-.381.01-.586.012-.204.028-.4.048-.585l.048-.471-2.132 4.523h-1.104zm11.354 1.728v-7.009h.864v1.008h.173l-.173.201c0-.403.132-.72.394-.95.269-.237.621-.355 1.056-.355.532 0 .954.176 1.268.528.32.345.48.822.48 1.43v1.546c0 .404-.074.753-.221 1.047a1.571 1.571 0 01-.605.682c-.256.16-.563.24-.922.24-.428 0-.777-.119-1.046-.355-.269-.237-.404-.554-.404-.951l.173.202h-.192l.019 1.2v1.536h-.864zm2.026-2.381c.365 0 .65-.109.855-.327.211-.217.317-.531.317-.941v-1.44c0-.41-.106-.723-.317-.941-.205-.218-.49-.326-.855-.326-.352 0-.633.112-.845.336-.211.224-.317.534-.317.931v1.44c0 .397.106.708.317.932.212.224.493.336.845.336zm5.198.749c-.557 0-.996-.141-1.316-.423-.32-.288-.48-.675-.48-1.162 0-.492.16-.88.48-1.161.32-.282.752-.423 1.296-.423h1.633v-.528c0-.327-.099-.576-.298-.749-.192-.179-.467-.269-.826-.269-.313 0-.576.067-.787.202a.718.718 0 00-.365.528h-.864c.057-.455.272-.816.643-1.085s.836-.403 1.392-.403c.609 0 1.089.156 1.441.47.352.314.528.739.528 1.277v3.63h-.845v-1.008h-.144l.144-.144c0 .384-.15.688-.451.912-.295.224-.689.336-1.181.336zm.211-.682c.41 0 .746-.102 1.008-.307a.956.956 0 00.394-.788v-.749h-1.613c-.288 0-.516.08-.682.24-.167.161-.25.378-.25.653 0 .295.099.529.298.701.205.167.486.25.845.25zm5.936.682c-.621 0-1.113-.183-1.478-.548-.359-.371-.538-.877-.538-1.517v-2.4c0-.845.211-1.495.634-1.949.422-.461 1.027-.692 1.815-.692h1.344v.864h-1.344c-.519 0-.913.154-1.182.461-.268.301-.403.74-.403 1.316v.624h.135l-.135.192c.007-.378.135-.672.384-.883.25-.212.589-.317 1.018-.317.557 0 .989.179 1.296.537.314.359.471.852.471 1.479v.768c0 .429-.08.797-.24 1.105a1.68 1.68 0 01-.692.71c-.3.167-.662.25-1.085.25zm0-.768c.372 0 .657-.112.855-.336.198-.224.298-.545.298-.961v-.768c0-.416-.1-.736-.298-.96-.198-.224-.483-.336-.855-.336-.371 0-.656.112-.854.336-.199.218-.298.538-.298.96v.768c0 .416.099.737.298.961.198.224.483.336.854.336zm5.687.749c-.422 0-.787-.08-1.094-.24a1.734 1.734 0 01-.72-.692c-.167-.307-.25-.669-.25-1.085v-1.402c0-.422.083-.784.25-1.085.172-.301.412-.531.72-.691.307-.16.672-.24 1.094-.24.423 0 .788.08 1.095.24.307.16.544.39.711.691.172.301.259.66.259 1.076v1.411c0 .416-.087.778-.259 1.085a1.689 1.689 0 01-.711.692c-.307.16-.672.24-1.095.24zm0-.769c.378 0 .673-.105.884-.316.211-.212.317-.522.317-.932v-1.402c0-.409-.106-.72-.317-.931-.211-.211-.506-.317-.884-.317-.371 0-.665.106-.883.317-.211.211-.317.522-.317.931v1.402c0 .41.106.72.317.932.218.211.512.316.883.316zm5.255.692v-4.523h-1.92v-.758h4.705v.758h-1.921v4.523h-.864zm3.863 0v-5.281h.806v1.939h.432c.57 0 1.018.151 1.345.452.333.294.499.7.499 1.219 0 .519-.166.928-.499 1.229-.327.295-.775.442-1.345.442h-1.238zm.806-.692h.432c.34 0 .602-.086.788-.259.192-.173.288-.413.288-.72s-.096-.547-.288-.72c-.186-.173-.448-.259-.788-.259h-.432v1.958zm2.9.692v-5.281h.807v5.281h-.807zm-151.461 19v-5.281h1.17l.692 2.026c.07.204.134.409.192.614.057.199.099.352.125.461.025-.109.064-.262.115-.461.057-.205.118-.413.182-.624l.653-2.016h1.172v5.281h-.836v-.816c0-.288.003-.602.01-.941l.019-1.028.038-.979c.013-.314.023-.589.03-.826l-.942 3.005h-.912l-.95-2.986c.012.288.022.647.028 1.076.013.428.023.877.029 1.344.013.467.02.912.02 1.335v.816h-.836zm7.838.096c-.417 0-.781-.083-1.095-.25a1.803 1.803 0 01-.72-.701 2.201 2.201 0 01-.25-1.066v-1.44c0-.41.083-.765.25-1.066a1.81 1.81 0 01.72-.701 2.306 2.306 0 011.095-.249c.416 0 .777.083 1.085.249.313.167.553.4.72.701.173.301.26.656.26 1.066v.931h-3.285v.509c0 .416.106.737.317.961.211.217.512.326.903.326.332 0 .601-.058.806-.173a.762.762 0 00.375-.538h.864a1.473 1.473 0 01-.653 1.057c-.371.256-.835.384-1.392.384zm1.22-3.102v-.355c0-.416-.107-.736-.318-.96-.205-.224-.505-.336-.902-.336-.39 0-.692.112-.903.336-.211.224-.317.544-.317.96v.278h2.506l-.067.077zm2.488 3.006v-5.281h.865v2.198h2.227v-2.198h.865v5.281h-.865v-2.295h-2.227v2.295h-.864zm7.665.096c-.416 0-.78-.083-1.094-.25a1.803 1.803 0 01-.72-.701 2.2 2.2 0 01-.25-1.066v-1.44c0-.41.083-.765.25-1.066a1.81 1.81 0 01.72-.701 2.307 2.307 0 011.094-.249c.417 0 .778.083 1.085.249.314.167.554.4.72.701.173.301.26.656.26 1.066v.931h-3.284v.509c0 .416.106.737.317.961.211.217.512.326.902.326.333 0 .602-.058.807-.173a.762.762 0 00.375-.538h.864a1.473 1.473 0 01-.653 1.057c-.372.256-.836.384-1.393.384zm1.22-3.102v-.355c0-.416-.106-.736-.317-.96-.205-.224-.506-.336-.903-.336-.39 0-.69.112-.902.336-.211.224-.317.544-.317.96v.278h2.506l-.067.077zm1.875 4.35v-2.084h.432c.109-.108.22-.323.336-.643.122-.32.186-.726.192-1.219l.058-2.679H41.5v4.541h.672v2.084h-.768v-1.344h-3.601v1.344h-.768zm1.344-2.084h2.257v-3.773H38.87l-.038 1.93c-.007.506-.061.915-.164 1.229-.102.314-.198.518-.288.614zm4.228.74l1.152-2.708-1.076-2.573h.836l.922 2.304h.508v-2.304h.73v2.304h.49l.95-2.304h.826l-1.075 2.544 1.152 2.737h-.864l-.96-2.401h-.519v2.401h-.73v-2.401h-.518l-.97 2.401h-.854zm8.394.096c-.416 0-.78-.083-1.094-.25a1.803 1.803 0 01-.72-.701 2.201 2.201 0 01-.25-1.066v-1.44c0-.41.083-.765.25-1.066a1.81 1.81 0 01.72-.701 2.306 2.306 0 011.094-.249c.416 0 .778.083 1.085.249.314.167.554.4.72.701.173.301.26.656.26 1.066v.931h-3.284v.509c0 .416.105.737.317.961.211.217.512.326.902.326.333 0 .602-.058.807-.173a.762.762 0 00.374-.538h.865a1.473 1.473 0 01-.653 1.057c-.372.256-.836.384-1.393.384zm1.22-3.102v-.355c0-.416-.106-.736-.317-.96-.205-.224-.506-.336-.903-.336-.39 0-.691.112-.902.336-.212.224-.317.544-.317.96v.278h2.506l-.067.077zm2.47 4.734v-7.009h.864v1.008h.173l-.173.201c0-.403.132-.72.394-.95.269-.237.62-.355 1.056-.355.532 0 .954.176 1.268.528.32.345.48.822.48 1.43v1.546c0 .404-.074.753-.221 1.047-.14.294-.343.522-.605.682-.256.16-.563.24-.922.24-.429 0-.778-.119-1.047-.355-.268-.237-.403-.554-.403-.951l.173.202h-.192l.02 1.2v1.536h-.865zm2.026-2.381c.365 0 .65-.109.855-.327.21-.217.317-.531.317-.941v-1.44c0-.41-.106-.723-.317-.941-.205-.218-.49-.326-.855-.326-.352 0-.634.112-.845.336-.211.224-.317.534-.317.931v1.44c0 .397.106.708.317.932.211.224.493.336.845.336zm5.658.73c-.422 0-.787-.08-1.094-.24a1.744 1.744 0 01-.72-.692c-.167-.307-.25-.669-.25-1.085v-1.402c0-.422.083-.784.25-1.085.172-.301.412-.531.72-.691.307-.16.672-.24 1.094-.24.423 0 .788.08 1.095.24.307.16.544.39.71.691.173.301.26.66.26 1.076v1.411c0 .416-.087.778-.26 1.085a1.683 1.683 0 01-.71.692c-.307.16-.672.24-1.095.24zm0-.769c.378 0 .672-.105.884-.316.21-.212.317-.522.317-.932v-1.402c0-.409-.106-.72-.317-.931-.212-.211-.506-.317-.884-.317-.371 0-.665.106-.883.317-.211.211-.317.522-.317.931v1.402c0 .41.106.72.317.932.218.211.512.316.883.316zm3.71.692v-5.281h2.284c.551 0 .977.124 1.277.374.301.243.452.586.452 1.028 0 .364-.125.659-.375.883-.25.218-.579.326-.989.326v-.076c.448 0 .807.112 1.076.336.275.224.413.525.413.902 0 .474-.16.845-.48 1.114-.32.263-.769.394-1.345.394h-2.314zm.844-.759h1.47c.306 0 .543-.067.71-.201a.679.679 0 00.26-.567c0-.25-.087-.442-.26-.576-.167-.135-.403-.202-.71-.202h-1.47v1.546zm0-2.295h1.44c.27 0 .48-.064.634-.192.16-.128.24-.307.24-.537 0-.231-.077-.41-.23-.538-.154-.135-.368-.202-.644-.202h-1.44v1.469zm10.529 3.054v-5.281h3.956v5.281h-.864v-4.494h-2.228v4.494h-.864zm5.668 1.728v-7.009h.864v1.008h.173l-.173.201c0-.403.131-.72.394-.95.268-.237.62-.355 1.056-.355.531 0 .954.176 1.267.528.32.345.48.822.48 1.43v1.546c0 .404-.073.753-.22 1.047a1.577 1.577 0 01-.605.682c-.256.16-.564.24-.922.24-.429 0-.778-.119-1.047-.355-.269-.237-.403-.554-.403-.951l.173.202h-.192l.019 1.2v1.536h-.864zm2.026-2.381c.365 0 .65-.109.854-.327.212-.217.317-.531.317-.941v-1.44c0-.41-.105-.723-.317-.941-.204-.218-.49-.326-.854-.326-.352 0-.634.112-.845.336-.211.224-.317.534-.317.931v1.44c0 .397.106.708.317.932.211.224.493.336.845.336zm5.658.73c-.423 0-.787-.08-1.095-.24a1.743 1.743 0 01-.72-.692c-.166-.307-.25-.669-.25-1.085v-1.402c0-.422.084-.784.25-1.085a1.74 1.74 0 01.72-.691c.308-.16.672-.24 1.095-.24.422 0 .787.08 1.095.24.307.16.544.39.71.691.173.301.26.66.26 1.076v1.411c0 .416-.087.778-.26 1.085a1.683 1.683 0 01-.71.692c-.308.16-.672.24-1.095.24zm0-.769c.378 0 .672-.105.883-.316.212-.212.317-.522.317-.932v-1.402c0-.409-.105-.72-.317-.931-.21-.211-.505-.317-.883-.317-.371 0-.666.106-.883.317-.212.211-.317.522-.317.931v1.402c0 .41.105.72.317.932.217.211.512.316.883.316zm3.094 2.036v-2.084h.432c.11-.108.221-.323.337-.643.121-.32.185-.726.191-1.219l.058-2.679h3.447v4.541h.672v2.084h-.768v-1.344h-3.6v1.344h-.769zm1.345-2.084h2.256v-3.773H95.74l-.038 1.93c-.006.506-.06.915-.163 1.229-.103.314-.199.518-.288.614zm6.474.836c-.557 0-.995-.141-1.316-.423-.32-.288-.48-.675-.48-1.162 0-.492.16-.88.48-1.161.321-.282.753-.423 1.297-.423h1.632v-.528c0-.327-.099-.576-.298-.749-.192-.179-.467-.269-.825-.269-.314 0-.576.067-.788.202a.718.718 0 00-.365.528h-.864c.058-.455.272-.816.644-1.085.371-.269.835-.403 1.392-.403.608 0 1.088.156 1.44.47.352.314.528.739.528 1.277v3.63h-.845v-1.008h-.144l.144-.144c0 .384-.15.688-.451.912-.294.224-.688.336-1.181.336zm.211-.682c.41 0 .746-.102 1.008-.307a.956.956 0 00.394-.788v-.749h-1.613c-.288 0-.515.08-.682.24-.166.161-.249.378-.249.653 0 .295.099.529.297.701.205.167.487.25.845.25zm3.229.586l1.152-2.708-1.075-2.573h.835l.922 2.304h.509v-2.304h.73v2.304h.489l.951-2.304h.826l-1.076 2.544 1.153 2.737h-.865l-.96-2.401h-.518v2.401h-.73v-2.401h-.519l-.969 2.401h-.855zm8.395.096c-.244 0-.439-.071-.586-.211-.141-.141-.211-.33-.211-.567 0-.25.07-.448.211-.595.147-.148.342-.221.586-.221.243 0 .435.073.576.221.147.147.221.345.221.595 0 .237-.074.426-.221.567-.141.14-.333.211-.576.211zM14.893 26.443v-7.01h1.988c.64 0 1.14.16 1.498.48.364.32.547.765.547 1.335 0 .32-.067.599-.202.835a1.36 1.36 0 01-.576.548c-.243.128-.538.189-.883.182v-.144c.371-.006.691.064.96.212.275.147.486.358.634.633.153.276.23.602.23.98 0 .396-.083.742-.25 1.037a1.698 1.698 0 01-.71.681c-.307.154-.675.23-1.104.23h-2.132zm.845-.778h1.19c.404 0 .72-.105.951-.317.237-.217.356-.512.356-.883 0-.384-.119-.695-.356-.932-.23-.243-.547-.364-.95-.364h-1.191v2.496zm0-3.245h1.133c.371 0 .663-.1.874-.298.217-.199.326-.467.326-.807 0-.339-.105-.608-.317-.806-.21-.199-.502-.298-.873-.298h-1.143v2.209zm4.852 4.023v-5.281h.864v2.199h2.227v-2.2h.865v5.282h-.865v-2.295h-2.227v2.295h-.864zm7.665.096c-.416 0-.781-.083-1.095-.25a1.807 1.807 0 01-.72-.7 2.204 2.204 0 01-.25-1.067v-1.44c0-.41.083-.765.25-1.066.173-.3.413-.534.72-.7.314-.167.678-.25 1.095-.25.416 0 .777.083 1.085.25.313.166.553.4.72.7.173.301.259.656.259 1.066v.931h-3.284v.51c0 .416.106.736.317.96.211.217.512.326.902.326.333 0 .602-.058.807-.173a.76.76 0 00.375-.537h.864a1.471 1.471 0 01-.653 1.056c-.371.256-.835.384-1.392.384zm1.219-3.102v-.355c0-.416-.106-.736-.317-.96-.205-.224-.506-.336-.902-.336-.39 0-.692.112-.903.336-.211.224-.317.544-.317.96v.279h2.506l-.067.076zm1.875 4.35v-2.084h.432c.109-.108.22-.323.336-.643.122-.32.186-.726.192-1.22l.058-2.678h3.447v4.541h.672v2.084h-.768v-1.344h-3.6v1.344h-.77zm1.344-2.084h2.257V21.93h-1.767l-.038 1.93c-.007.506-.061.915-.164 1.229-.102.314-.198.519-.288.614zm4.938 2.468v-7.01h.864v1.009h.173l-.173.202c0-.404.132-.72.394-.951.269-.237.621-.355 1.056-.355.532 0 .954.176 1.268.528.32.345.48.822.48 1.43v1.546c0 .404-.074.753-.22 1.047a1.57 1.57 0 01-.606.682c-.256.16-.563.24-.922.24-.429 0-.778-.119-1.046-.355-.27-.237-.404-.554-.404-.951l.173.202h-.192l.02 1.2v1.536h-.865zm2.026-2.381c.365 0 .65-.109.855-.327.211-.217.317-.53.317-.94v-1.44c0-.41-.106-.724-.317-.942-.205-.218-.49-.326-.855-.326-.352 0-.633.112-.845.336-.211.224-.317.534-.317.931v1.44c0 .397.106.708.317.932.212.224.493.336.845.336zm5.658.749c-.416 0-.78-.083-1.094-.25a1.807 1.807 0 01-.72-.7 2.203 2.203 0 01-.25-1.067v-1.44c0-.41.083-.765.25-1.066.172-.3.413-.534.72-.7a2.29 2.29 0 011.094-.25c.416 0 .778.083 1.085.25.314.166.554.4.72.7.173.301.26.656.26 1.066v.931h-3.284v.51c0 .416.106.736.317.96.211.217.512.326.902.326.333 0 .602-.058.807-.173.205-.121.33-.3.374-.537h.865a1.47 1.47 0 01-.653 1.056c-.372.256-.836.384-1.393.384zm1.22-3.102v-.355c0-.416-.106-.736-.317-.96-.205-.224-.506-.336-.903-.336-.39 0-.691.112-.902.336-.211.224-.317.544-.317.96v.279h2.506l-.067.076zm2.49 3.006v-5.281h.864v2.199h2.227v-2.2h.864v5.282h-.864v-2.295H49.89v2.295h-.865zm5.686 0v-5.281h.826v2.88c0 .186-.006.381-.02.586-.006.205-.018.4-.038.586a5.306 5.306 0 01-.048.46l2.132-4.512h1.104v5.28h-.825v-2.88c0-.185.003-.38.01-.585.012-.205.028-.4.047-.586l.048-.47-2.132 4.522h-1.104zm7.665.096a2.3 2.3 0 01-1.094-.25 1.807 1.807 0 01-.72-.7 2.204 2.204 0 01-.25-1.067v-1.44c0-.41.083-.765.25-1.066.172-.3.412-.534.72-.7a2.29 2.29 0 011.094-.25c.416 0 .778.083 1.085.25.314.166.554.4.72.7.173.301.26.656.26 1.066v.931h-3.284v.51c0 .416.105.736.317.96.21.217.512.326.902.326.333 0 .602-.058.807-.173.205-.121.33-.3.374-.537h.864a1.471 1.471 0 01-.653 1.056c-.37.256-.835.384-1.392.384zm1.22-3.102v-.355c0-.416-.106-.736-.317-.96-.205-.224-.506-.336-.903-.336-.39 0-.691.112-.902.336-.212.224-.317.544-.317.96v.279h2.506l-.067.076zm10.193 3.102a2.46 2.46 0 01-1.114-.24 1.729 1.729 0 01-.73-.691c-.173-.308-.26-.67-.26-1.086v-1.44c0-.422.087-.784.26-1.085.173-.3.416-.531.73-.691.32-.16.691-.24 1.114-.24.608 0 1.097.163 1.469.49.37.326.566.77.585 1.334h-.864c-.019-.34-.134-.599-.346-.778-.204-.185-.486-.278-.844-.278-.378 0-.679.109-.903.326-.224.212-.336.516-.336.913v1.45c0 .396.112.704.336.921.224.218.525.327.903.327.358 0 .64-.093.844-.279.212-.185.327-.445.346-.777h.864c-.019.563-.214 1.008-.585 1.334-.372.327-.861.49-1.47.49zm5.187 0c-.557 0-.995-.14-1.315-.423-.32-.288-.48-.675-.48-1.162 0-.492.16-.88.48-1.161.32-.282.752-.423 1.296-.423h1.632v-.528c0-.326-.099-.576-.297-.749-.192-.18-.468-.269-.826-.269-.314 0-.576.067-.787.202a.717.717 0 00-.365.528h-.865c.058-.454.273-.816.644-1.085s.835-.403 1.392-.403c.608 0 1.088.157 1.44.47.353.314.529.74.529 1.277v3.63h-.845v-1.008h-.144l.144-.144c0 .384-.15.688-.452.912-.294.224-.688.336-1.18.336zm.211-.682c.41 0 .746-.102 1.009-.307a.956.956 0 00.393-.788v-.748h-1.613c-.288 0-.515.08-.682.24-.166.16-.25.377-.25.652 0 .295.1.529.298.702.205.166.487.25.845.25zm6.657.586c-.307 0-.576-.06-.806-.183a1.31 1.31 0 01-.538-.518 1.559 1.559 0 01-.192-.788v-4.733H82.53v-.788h2.641v5.521c0 .218.06.391.183.52a.662.662 0 00.49.181h1.68v.788h-1.68zm5.687 0c-.307 0-.576-.06-.806-.183a1.312 1.312 0 01-.538-.518 1.56 1.56 0 01-.192-.788v-4.733h-1.777v-.788h2.641v5.521c0 .218.06.391.182.52a.662.662 0 00.49.181h1.68v.788h-1.68zm3.43-2.785v-.768h3.073v.768h-3.072zm6.792 2.785V21.92h-1.92v-.758h4.704v.758h-1.92v4.523h-.864zm4.122 1.728v-7.01h.864v1.009h.173l-.173.202c0-.404.131-.72.393-.951.269-.237.621-.355 1.057-.355.531 0 .953.176 1.267.528.32.345.48.822.48 1.43v1.546c0 .404-.073.753-.221 1.047a1.56 1.56 0 01-.605.682c-.256.16-.563.24-.921.24-.429 0-.778-.119-1.047-.355-.269-.237-.403-.554-.403-.951l.173.202h-.192l.019 1.2v1.536h-.864zm2.026-2.381c.364 0 .649-.109.854-.327.211-.217.317-.53.317-.94v-1.44c0-.41-.106-.724-.317-.942-.205-.218-.49-.326-.854-.326-.352 0-.634.112-.845.336-.212.224-.317.534-.317.931v1.44c0 .397.105.708.317.932.211.224.493.336.845.336zm5.658.749c-.416 0-.781-.083-1.095-.25a1.809 1.809 0 01-.72-.7 2.208 2.208 0 01-.25-1.067v-1.44c0-.41.084-.765.25-1.066.173-.3.413-.534.72-.7.314-.167.679-.25 1.095-.25.416 0 .778.083 1.085.25.313.166.554.4.72.7.173.301.259.656.259 1.066v.931h-3.284v.51c0 .416.106.736.317.96.211.217.512.326.903.326.333 0 .601-.058.806-.173a.76.76 0 00.375-.537h.864a1.471 1.471 0 01-.653 1.056c-.371.256-.835.384-1.392.384zm1.219-3.102v-.355c0-.416-.105-.736-.317-.96-.204-.224-.505-.336-.902-.336-.391 0-.692.112-.903.336-.211.224-.317.544-.317.96v.279h2.506l-.067.076zm2.518 3.006v-5.281h.865v2.18h.902l1.537-2.18h.989l-1.777 2.515 1.805 2.766h-1.008l-1.536-2.353h-.912v2.353h-.865zm5.659 0v-5.281h.825v2.88c0 .186-.006.381-.019.586-.006.205-.019.4-.038.586a6.31 6.31 0 01-.048.46l2.131-4.512h1.105v5.28h-.826v-2.88c0-.185.003-.38.01-.585.012-.205.028-.4.048-.586l.048-.47-2.132 4.522h-1.104zm5.687 0v-5.281h.864v2.199h2.227v-2.2h.865v5.282h-.865v-2.295h-2.227v2.295h-.864zm6.032 0v-5.281h3.793v.787h-2.929v4.494h-.864zm6.859.096c-.557 0-.996-.14-1.316-.423-.32-.288-.48-.675-.48-1.162 0-.492.16-.88.48-1.161.32-.282.752-.423 1.296-.423h1.633v-.528c0-.326-.099-.576-.298-.749-.192-.18-.467-.269-.826-.269-.313 0-.576.067-.787.202a.718.718 0 00-.365.528h-.864c.057-.454.272-.816.643-1.085s.836-.403 1.392-.403c.609 0 1.089.157 1.441.47.352.314.528.74.528 1.277v3.63h-.845v-1.008h-.144l.144-.144c0 .384-.15.688-.451.912-.295.224-.689.336-1.181.336zm.211-.682c.41 0 .746-.102 1.008-.307a.955.955 0 00.394-.788v-.748h-1.613c-.288 0-.516.08-.682.24-.167.16-.25.377-.25.652 0 .295.099.529.298.702.205.166.486.25.845.25zm5.936-3.351c-.236 0-.428-.064-.576-.192a.682.682 0 01-.221-.528c0-.218.074-.39.221-.519a.824.824 0 01.576-.201c.244 0 .436.067.577.201.147.128.22.301.22.519a.681.681 0 01-.22.528c-.141.128-.333.192-.577.192zm0 4.033c-.236 0-.428-.064-.576-.192a.682.682 0 01-.221-.528c0-.218.074-.39.221-.519a.824.824 0 01.576-.201c.244 0 .436.067.577.201.147.128.22.301.22.519a.681.681 0 01-.22.528c-.141.128-.333.192-.577.192z" fill="#fff"/><defs><filter id="filter0_d_440_437" x=".72" y="0" width="179.561" height="178.6" filterUnits="userSpaceOnUse" color-interpolation-filters="sRGB"><feFlood flood-opacity="0" result="BackgroundImageFix"/><feColorMatrix in="SourceAlpha" values="0 0 0 0 0 0 0 0 0 0 0 0 0 0 0 0 0 0 127 0" result="hardAlpha"/><feOffset dy="3.841"/><feGaussianBlur stdDeviation="1.92"/><feComposite in2="hardAlpha" operator="out"/><feColorMatrix values="0 0 0 0 0 0 0 0 0 0 0 0 0 0 0 0 0 0 0.25 0"/><feBlend in2="BackgroundImageFix" result="effect1_dropShadow_440_437"/><feBlend in="SourceGraphic" in2="effect1_dropShadow_440_437" result="shape"/></filter></defs></svg>