<svg width="180" height="179" fill="none" xmlns="http://www.w3.org/2000/svg"><g filter="url(#filter0_d_440_465)"><rect x="4.121" width="171.879" height="170.919" rx="16.004" fill="#46767D"/></g><mask id="a" style="mask-type:alpha" maskUnits="userSpaceOnUse" x="4" y="0" width="172" height="43"><path fill="#C9D9CD" d="M4.121 0H176v42.249H4.121z"/></mask><g mask="url(#a)"><rect x="4.121" y="-1.69" width="171.879" height="118.299" rx="16.004" fill="#223B38"/></g><path d="M14.903 60.05v-7.009h3.956v7.01h-.865v-6.222h-2.227v6.222h-.864zm7.665.078c-.423 0-.788-.08-1.095-.24a1.742 1.742 0 01-.72-.692c-.167-.307-.25-.669-.25-1.085V56.71c0-.422.083-.784.25-1.085.173-.3.413-.531.72-.691.307-.16.672-.24 1.095-.24.422 0 .787.08 1.094.24.308.16.544.39.71.691.174.301.26.66.26 1.076v1.411c0 .416-.086.778-.26 1.085a1.675 1.675 0 01-.71.692c-.307.16-.672.24-1.094.24zm0-.769c.377 0 .672-.105.883-.316.211-.212.317-.522.317-.932V56.71c0-.41-.106-.72-.317-.931-.211-.211-.506-.317-.883-.317-.372 0-.666.106-.884.317-.211.211-.317.522-.317.931v1.402c0 .41.106.72.317.932.218.21.512.316.884.316zm3.094 2.036v-2.084h.432c.109-.108.22-.323.336-.643.122-.32.186-.727.192-1.22l.058-2.678h3.447v4.541h.672v2.084h-.768v-1.344h-3.6v1.344h-.769zm1.344-2.084h2.257v-3.773h-1.767l-.038 1.93c-.007.505-.061.915-.164 1.229-.102.313-.198.518-.288.614zm4.986.74V54.77h.864v2.18h.903l1.536-2.18h.99l-1.777 2.515 1.805 2.766h-1.008l-1.536-2.353h-.913v2.353h-.864zm4.996.067v-.807h.173c.294 0 .499-.115.614-.345.122-.23.186-.644.192-1.239l.058-2.957h3.581v5.28h-.864v-4.493H38.88l-.049 2.209c-.012.556-.076 1.008-.192 1.353-.108.346-.281.599-.518.759-.23.16-.535.24-.912.24h-.221zm9.153.029c-.441 0-.797-.15-1.066-.451-.269-.301-.403-.695-.403-1.182v-.797h-.845v2.334h-.797V54.77h.797v2.256h.845v-.72c0-.493.131-.887.394-1.181.269-.301.627-.451 1.075-.451.474 0 .855.15 1.143.45.288.295.432.689.432 1.182v2.208c0 .487-.144.88-.432 1.181-.288.301-.67.452-1.143.452zm0-.672c.243 0 .432-.084.567-.25.14-.173.21-.41.21-.71v-2.21c0-.3-.07-.534-.21-.7a.679.679 0 00-.567-.26.666.666 0 00-.557.26c-.134.166-.201.4-.201.7v2.21c0 .3.067.537.201.71.135.166.32.25.557.25zm5.918.576v-1.92c-.103.025-.26.05-.47.076a7.01 7.01 0 01-.654.029c-.653.006-1.162-.15-1.527-.47-.358-.327-.537-.782-.537-1.364V54.77h.864v1.632c0 .326.109.586.326.778.224.185.532.278.922.278.269 0 .496-.01.682-.029a3.52 3.52 0 00.394-.067V54.77h.864v5.28h-.864zm2.652 0V54.77h.826v2.88c0 .186-.006.381-.02.586-.006.205-.018.4-.038.586a5.306 5.306 0 01-.048.46l2.132-4.512h1.104v5.28h-.825v-2.88c0-.186.003-.38.01-.586.012-.204.028-.4.047-.585l.048-.47-2.132 4.522h-1.104zm5.025.067v-.807h.172c.295 0 .5-.115.615-.345.122-.23.186-.644.192-1.239l.058-2.957h3.581v5.28h-.864v-4.493h-1.863l-.048 2.209c-.013.556-.077 1.008-.192 1.353-.109.346-.282.599-.518.759-.23.16-.535.24-.913.24h-.22zm6.35-.067V54.77h.825v2.88c0 .186-.007.381-.02.586-.006.205-.019.4-.038.586a5.306 5.306 0 01-.048.46l2.132-4.512h1.104v5.28h-.826v-2.88c0-.186.004-.38.01-.586.013-.204.029-.4.048-.585l.048-.47-2.132 4.522h-1.104zm13.37.096a2.46 2.46 0 01-1.114-.24 1.728 1.728 0 01-.73-.692c-.172-.307-.259-.669-.259-1.085v-1.44c0-.422.087-.784.26-1.085.172-.3.416-.531.73-.691.32-.16.69-.24 1.113-.24.608 0 1.098.163 1.47.49.37.326.566.77.585 1.334h-.864c-.02-.34-.135-.599-.346-.778-.205-.185-.486-.278-.845-.278-.377 0-.678.109-.902.326-.224.212-.336.515-.336.912v1.45c0 .397.112.704.336.922.224.218.525.327.902.327.359 0 .64-.093.845-.279.212-.186.327-.445.346-.778h.864c-.02.564-.214 1.009-.586 1.335-.37.327-.86.49-1.469.49zm5.668 0a2.3 2.3 0 01-1.095-.25 1.806 1.806 0 01-.72-.7 2.204 2.204 0 01-.25-1.067v-1.44c0-.41.084-.765.25-1.066.173-.3.413-.534.72-.7.314-.167.679-.25 1.095-.25.416 0 .778.083 1.085.25.314.166.554.4.72.7.173.301.26.656.26 1.066v.931h-3.284v.51c0 .415.105.736.316.96.212.217.513.326.903.326.333 0 .602-.058.807-.173a.76.76 0 00.374-.538h.864a1.47 1.47 0 01-.653 1.057c-.371.256-.835.384-1.392.384zm1.22-3.102v-.355c0-.416-.106-.736-.317-.96-.205-.224-.506-.336-.903-.336-.39 0-.691.112-.903.336-.21.224-.317.544-.317.96v.279h2.507l-.067.076zm2.47 4.734v-7.01h.864v1.009h.173l-.173.202c0-.404.131-.72.394-.951.269-.237.62-.355 1.056-.355.531 0 .954.176 1.267.528.32.345.48.822.48 1.43v1.546c0 .404-.073.753-.22 1.047a1.57 1.57 0 01-.605.682c-.256.16-.564.24-.922.24-.43 0-.778-.119-1.047-.355-.269-.237-.403-.554-.403-.951l.173.202h-.192l.019 1.2v1.536h-.864zm2.026-2.381c.365 0 .65-.109.854-.327.212-.217.317-.531.317-.94V56.69c0-.41-.105-.723-.317-.941-.204-.218-.49-.327-.854-.327-.352 0-.634.113-.845.337-.212.224-.317.534-.317.931v1.44c0 .397.106.708.317.932.211.224.493.336.845.336zm3.68.653V54.77h2.285c.55 0 .976.124 1.277.374.301.243.452.586.452 1.028 0 .364-.125.659-.375.883-.25.218-.58.326-.989.326v-.076c.448 0 .807.112 1.076.336.275.224.412.525.412.902 0 .474-.16.845-.48 1.114-.32.263-.768.394-1.344.394H94.52zm.845-.759h1.469c.307 0 .544-.067.71-.201a.679.679 0 00.26-.567c0-.25-.087-.442-.26-.576-.166-.135-.403-.202-.71-.202h-1.47v1.546zm0-2.295h1.44c.269 0 .48-.064.634-.192.16-.128.24-.307.24-.538 0-.23-.077-.41-.23-.537-.154-.135-.369-.202-.644-.202h-1.44v1.47zm4.842 3.054V54.77h.826v2.88c0 .186-.007.381-.02.586-.006.205-.019.4-.038.586a6.31 6.31 0 01-.048.46l2.132-4.512h1.104v5.28h-.826v-2.88c0-.186.003-.38.01-.586.013-.204.029-.4.048-.585l.048-.47-2.132 4.522h-1.104zm7.684.096a2.46 2.46 0 01-1.114-.24 1.728 1.728 0 01-.73-.692c-.172-.307-.259-.669-.259-1.085v-1.44c0-.422.087-.784.259-1.085.173-.3.416-.531.73-.691.32-.16.692-.24 1.114-.24.608 0 1.098.163 1.469.49.371.326.567.77.586 1.334h-.864c-.02-.34-.135-.599-.346-.778-.205-.185-.487-.278-.845-.278-.378 0-.679.109-.903.326-.224.212-.336.515-.336.912v1.45c0 .397.112.704.336.922.224.218.525.327.903.327.358 0 .64-.093.845-.279.211-.186.326-.445.346-.778h.864c-.019.564-.215 1.009-.586 1.335-.371.327-.861.49-1.469.49zm3.411-.096V54.77h.807v1.94h.432c.57 0 1.018.15 1.344.45.333.295.5.702.5 1.22s-.167.928-.5 1.23c-.326.294-.774.44-1.344.44h-1.239zm.807-.692h.432c.339 0 .602-.086.787-.259.192-.173.288-.413.288-.72s-.096-.547-.288-.72c-.185-.173-.448-.26-.787-.26h-.432v1.96zm2.9.692V54.77h.806v5.28h-.806zm7.331 1.344v-2.084h.432c.109-.108.221-.323.336-.643.122-.32.186-.727.192-1.22l.058-2.678h3.447v4.541h.672v2.084h-.768v-1.344h-3.601v1.344h-.768zm1.344-2.084h2.257v-3.773h-1.767l-.038 1.93c-.007.505-.061.915-.164 1.229-.102.313-.198.518-.288.614zm4.295.807v-.807h.173c.294 0 .499-.115.614-.345.122-.23.186-.644.192-1.239l.058-2.957h3.582v5.28h-.865v-4.493h-1.862l-.048 2.209c-.013.556-.077 1.008-.192 1.353-.109.346-.282.599-.519.759-.23.16-.534.24-.912.24h-.221zm6.023-.067l1.354-2.036c-.403-.096-.717-.282-.941-.557-.218-.275-.327-.617-.327-1.027 0-.519.17-.925.509-1.22.346-.294.817-.441 1.412-.441h2.276v5.28h-.865v-1.968h-1.161l-1.249 1.969h-1.008zm2.007-2.737h1.411v-1.776h-1.411c-.32 0-.573.08-.759.24-.185.154-.278.371-.278.653 0 .275.093.493.278.653.186.153.439.23.759.23zM14.903 79.051V73.77h3.956v5.28h-.865v-4.493h-2.227v4.494h-.864zm5.024.067v-.807h.173c.294 0 .5-.115.614-.345.122-.23.186-.644.192-1.239l.058-2.957h3.582v5.28h-.865v-4.493H21.82l-.048 2.209c-.013.556-.077 1.008-.192 1.353-.11.346-.282.599-.519.759-.23.16-.534.24-.912.24h-.221zm7.867.029c-.557 0-.996-.141-1.316-.423-.32-.288-.48-.675-.48-1.162 0-.492.16-.88.48-1.161.32-.282.752-.423 1.296-.423h1.633v-.528c0-.326-.1-.576-.298-.749-.192-.18-.467-.269-.826-.269-.313 0-.576.067-.787.202a.717.717 0 00-.365.528h-.864c.058-.455.272-.816.643-1.085.372-.269.836-.403 1.393-.403.608 0 1.088.156 1.44.47.352.314.528.74.528 1.277v3.63h-.845v-1.008h-.144l.144-.145c0 .385-.15.689-.451.913-.295.224-.688.336-1.181.336zm.21-.682c.41 0 .747-.102 1.01-.307a.956.956 0 00.393-.788v-.749h-1.613c-.288 0-.516.08-.682.24-.167.16-.25.378-.25.653 0 .295.1.529.298.701.205.167.486.25.845.25zm3.96.586V73.77h.864v2.199h2.227v-2.2h.864v5.282h-.864v-2.295h-2.227v2.295h-.865zm5.686 0V73.77h.826v2.88c0 .186-.006.381-.019.586-.006.205-.02.4-.038.586a6.83 6.83 0 01-.048.46l2.131-4.512h1.104v5.28h-.825v-2.88c0-.186.003-.38.01-.586.012-.204.028-.4.047-.585l.048-.47-2.131 4.522H37.65zm5.668 1.728v-7.01h.864v1.009h.173l-.173.201c0-.403.132-.72.394-.95.269-.237.621-.355 1.056-.355.532 0 .954.176 1.268.528.32.345.48.822.48 1.43v1.546c0 .404-.074.752-.221 1.047a1.57 1.57 0 01-.605.682c-.256.16-.563.24-.922.24-.429 0-.777-.119-1.046-.356-.27-.236-.404-.553-.404-.95l.173.202h-.192l.02 1.2v1.536h-.865zm2.026-2.381c.365 0 .65-.109.855-.327.211-.217.317-.531.317-.94V75.69c0-.41-.106-.723-.317-.941-.205-.218-.49-.326-.855-.326-.352 0-.634.112-.845.336-.211.224-.317.534-.317.931v1.44c0 .397.106.708.317.932.211.224.493.336.845.336zm5.658.73c-.422 0-.787-.08-1.094-.24a1.743 1.743 0 01-.72-.692c-.167-.307-.25-.669-.25-1.085V75.71c0-.422.083-.784.25-1.085.172-.3.412-.531.72-.691.307-.16.672-.24 1.094-.24.423 0 .788.08 1.095.24.307.16.544.39.71.691.173.301.26.66.26 1.076v1.411c0 .416-.087.778-.26 1.085a1.68 1.68 0 01-.71.692c-.307.16-.672.24-1.095.24zm0-.769c.378 0 .672-.105.884-.316.211-.212.317-.522.317-.932V75.71c0-.41-.106-.72-.317-.931-.212-.211-.506-.317-.884-.317-.371 0-.665.106-.883.317-.211.211-.317.521-.317.931v1.402c0 .41.106.72.317.932.218.21.512.316.883.316zm3.71.692V73.77h2.284c.551 0 .977.124 1.278.374.3.243.45.586.45 1.027 0 .365-.124.66-.373.884-.25.218-.58.326-.99.326v-.076c.449 0 .807.112 1.076.336.275.224.413.525.413.902 0 .474-.16.845-.48 1.114-.32.263-.768.394-1.345.394h-2.314zm.844-.759h1.47c.307 0 .543-.067.71-.201a.679.679 0 00.26-.567c0-.25-.087-.442-.26-.576-.166-.134-.403-.202-.71-.202h-1.47v1.546zm0-2.295h1.44c.27 0 .48-.064.634-.192.16-.128.24-.307.24-.538 0-.23-.076-.41-.23-.537-.154-.135-.368-.202-.644-.202h-1.44v1.47zm6.36 3.15c-.558 0-.996-.141-1.316-.423-.32-.288-.48-.675-.48-1.162 0-.492.16-.88.48-1.161.32-.282.752-.423 1.296-.423h1.633v-.528c0-.326-.1-.576-.298-.749-.192-.18-.468-.269-.826-.269-.314 0-.576.067-.787.202a.717.717 0 00-.365.528h-.864c.057-.455.272-.816.643-1.085s.835-.403 1.392-.403c.608 0 1.089.156 1.44.47.353.314.529.74.529 1.277v3.63h-.845v-1.008h-.144l.144-.145c0 .385-.15.689-.452.913-.294.224-.688.336-1.18.336zm.21-.682c.41 0 .746-.102 1.009-.307a.956.956 0 00.394-.788v-.749h-1.614c-.288 0-.515.08-.681.24-.167.16-.25.378-.25.653 0 .295.1.529.298.701.204.167.486.25.845.25zm3.96.586V73.77h.863v2.199h2.228v-2.2h.864v5.282h-.864v-2.295h-2.228v2.295h-.864zm5.686 0V73.77h.826v2.88c0 .186-.007.381-.02.586-.006.205-.019.4-.038.586a6.233 6.233 0 01-.048.46l2.132-4.512h1.104v5.28h-.826v-2.88c0-.186.004-.38.01-.586.013-.204.029-.4.048-.585l.048-.47-2.132 4.522h-1.104zm5.36 0l1.355-2.036c-.404-.096-.718-.281-.942-.557-.217-.275-.326-.617-.326-1.027 0-.519.17-.925.509-1.22.346-.294.816-.441 1.411-.441h2.276v5.28h-.864v-1.968h-1.162l-1.248 1.969h-1.009zm2.007-2.737h1.412v-1.776h-1.412c-.32 0-.572.08-.758.24-.186.153-.279.371-.279.653 0 .275.093.493.279.653.186.153.438.23.758.23zm11.422 2.804c-.557 0-1.014-.118-1.373-.355a1.411 1.411 0 01-.633-.96h.912c.044.16.163.29.355.393.198.103.445.154.74.154h.45c.314 0 .558-.074.73-.221a.71.71 0 00.27-.576c0-.256-.087-.458-.26-.605-.166-.147-.413-.22-.74-.22h-1.161v-.75h1.133c.294 0 .518-.07.672-.211a.72.72 0 00.23-.557.728.728 0 00-.105-.403.61.61 0 00-.298-.25 1.242 1.242 0 00-.49-.087h-.48a1.23 1.23 0 00-.662.173c-.186.116-.298.256-.336.423h-.912c.064-.397.272-.724.624-.98s.78-.384 1.286-.384h.48c.378 0 .701.061.97.183a1.321 1.321 0 01.835 1.277c0 .314-.102.573-.307.778-.204.198-.493.31-.864.336v.038c.455.032.784.154.99.365.204.211.306.515.306.912 0 .468-.172.839-.518 1.114-.346.275-.81.413-1.392.413h-.452zm5.476.029c-.557 0-.995-.141-1.316-.423-.32-.288-.48-.675-.48-1.162 0-.492.16-.88.48-1.161.32-.282.753-.423 1.297-.423h1.632v-.528c0-.326-.1-.576-.297-.749-.192-.18-.468-.269-.826-.269-.314 0-.576.067-.788.202a.717.717 0 00-.365.528h-.864c.058-.455.272-.816.644-1.085.37-.269.835-.403 1.392-.403.608 0 1.088.156 1.44.47.352.314.528.74.528 1.277v3.63h-.845v-1.008h-.144l.144-.145c0 .385-.15.689-.45.913-.295.224-.69.336-1.182.336zm.211-.682c.41 0 .746-.102 1.008-.307a.956.956 0 00.394-.788v-.749h-1.613c-.288 0-.515.08-.682.24-.166.16-.25.378-.25.653 0 .295.1.529.298.701.205.167.487.25.845.25zm3.344 1.93v-2.084h.432c.109-.108.221-.323.336-.643.122-.32.186-.727.192-1.22l.058-2.678h3.447v4.541h.672v2.084h-.768v-1.344h-3.601v1.344h-.768zm1.345-2.084h2.256v-3.773h-1.767l-.038 1.93c-.007.505-.061.915-.163 1.229-.103.313-.199.518-.288.614zm6.474.836c-.557 0-.996-.141-1.316-.423-.32-.288-.48-.675-.48-1.162 0-.492.16-.88.48-1.161.32-.282.753-.423 1.297-.423h1.632v-.528c0-.326-.099-.576-.298-.749-.192-.18-.467-.269-.825-.269-.314 0-.577.067-.788.202a.718.718 0 00-.365.528h-.864c.058-.455.272-.816.643-1.085.372-.269.836-.403 1.393-.403.608 0 1.088.156 1.44.47.352.314.528.74.528 1.277v3.63h-.845v-1.008h-.144l.144-.145c0 .385-.15.689-.451.913-.295.224-.688.336-1.181.336zm.211-.682c.41 0 .746-.102 1.008-.307a.955.955 0 00.394-.788v-.749h-1.613c-.288 0-.515.08-.682.24-.166.16-.25.378-.25.653 0 .295.1.529.298.701.205.167.487.25.845.25zm6.993.586v-1.92a4.139 4.139 0 01-.471.076c-.204.02-.422.029-.652.029-.653.006-1.162-.15-1.527-.47-.359-.327-.538-.782-.538-1.364V73.77h.864v1.632c0 .326.109.586.327.778.224.185.531.278.922.278.268 0 .496-.01.681-.029.192-.025.324-.048.394-.067V73.77h.864v5.28h-.864zm3.334 1.536l.769-2.986h1.248l-1.248 2.986h-.769zm10.721-1.536V73.77h.865v2.18h.902l1.536-2.18h.99l-1.777 2.515 1.805 2.766h-1.008l-1.536-2.353h-.912v2.353h-.865zm7.637.077c-.423 0-.788-.08-1.095-.24a1.744 1.744 0 01-.72-.692c-.167-.307-.25-.669-.25-1.085V75.71c0-.422.083-.784.25-1.085.173-.3.413-.531.72-.691.307-.16.672-.24 1.095-.24.422 0 .787.08 1.094.24.307.16.544.39.711.691.173.301.259.66.259 1.076v1.411c0 .416-.086.778-.259 1.085a1.689 1.689 0 01-.711.692c-.307.16-.672.24-1.094.24zm0-.769c.377 0 .672-.105.883-.316.211-.212.317-.522.317-.932V75.71c0-.41-.106-.72-.317-.931-.211-.211-.506-.317-.883-.317-.372 0-.666.106-.884.317-.211.211-.317.521-.317.931v1.402c0 .41.106.72.317.932.218.21.512.316.884.316zm3.708.692V73.77h.865v2.199h2.227v-2.2h.865v5.282h-.865v-2.295h-2.227v2.295h-.865zm7.233 0v-4.523h-1.92v-.758h4.705v.758h-1.92v4.523h-.865zm4.122 1.728v-7.01h.864v1.009h.173l-.173.201c0-.403.132-.72.394-.95.269-.237.621-.355 1.056-.355.532 0 .954.176 1.268.528.32.345.48.822.48 1.43v1.546c0 .404-.074.752-.221 1.047a1.567 1.567 0 01-.605.682c-.256.16-.563.24-.922.24-.429 0-.778-.119-1.046-.356-.269-.236-.404-.553-.404-.95l.173.202h-.192l.019 1.2v1.536h-.864zm2.026-2.381c.365 0 .65-.109.855-.327.211-.217.317-.531.317-.94V75.69c0-.41-.106-.723-.317-.941-.205-.218-.49-.326-.855-.326-.352 0-.634.112-.845.336-.211.224-.317.534-.317.931v1.44c0 .397.106.708.317.932.211.224.493.336.845.336zm5.658.73c-.422 0-.787-.08-1.094-.24a1.733 1.733 0 01-.72-.692c-.167-.307-.25-.669-.25-1.085V75.71c0-.422.083-.784.25-1.085.172-.3.412-.531.72-.691.307-.16.672-.24 1.094-.24.423 0 .788.08 1.095.24.307.16.544.39.711.691.172.301.259.66.259 1.076v1.411c0 .416-.087.778-.259 1.085a1.689 1.689 0 01-.711.692c-.307.16-.672.24-1.095.24zm0-.769c.378 0 .672-.105.884-.316.211-.212.317-.522.317-.932V75.71c0-.41-.106-.72-.317-.931-.212-.211-.506-.317-.884-.317-.371 0-.665.106-.883.317-.211.211-.317.521-.317.931v1.402c0 .41.106.72.317.932.218.21.512.316.883.316zm3.047.759v-.807h.173c.294 0 .499-.115.614-.345.122-.23.186-.644.192-1.239l.058-2.957h3.581v5.28h-.864v-4.493h-1.863l-.048 2.209c-.013.556-.077 1.008-.192 1.353-.109.346-.281.599-.518.759-.231.16-.535.24-.912.24h-.221zm6.023-.067l1.354-2.036c-.404-.096-.717-.281-.941-.557-.218-.275-.327-.617-.327-1.027 0-.519.17-.925.509-1.22.346-.294.816-.441 1.412-.441h2.275v5.28h-.864v-1.968h-1.162l-1.248 1.969h-1.008zm2.007-2.737h1.411v-1.776h-1.411c-.321 0-.573.08-.759.24-.186.153-.278.371-.278.653 0 .275.092.493.278.653.186.153.438.23.759.23zM14.903 98.051V92.77h2.285c.55 0 .976.124 1.277.374.3.243.451.586.451 1.027 0 .365-.125.66-.374.884-.25.218-.58.326-.99.326v-.076c.449 0 .807.112 1.076.336.276.224.413.525.413.902 0 .474-.16.845-.48 1.114-.32.263-.768.394-1.344.394h-2.314zm.845-.759h1.469c.307 0 .544-.067.71-.201a.679.679 0 00.26-.567c0-.25-.087-.442-.26-.576-.166-.134-.403-.202-.71-.202h-1.47v1.546zm0-2.295h1.44c.269 0 .48-.064.634-.192.16-.128.24-.307.24-.538 0-.23-.077-.41-.23-.537-.154-.135-.369-.202-.644-.202h-1.44v1.47zm4.563 3.054V92.77h.807v1.94h.432c.57 0 1.018.15 1.344.45.333.295.5.702.5 1.22 0 .519-.167.928-.5 1.23-.326.293-.774.44-1.344.44h-1.24zm.807-.692h.432c.339 0 .601-.086.787-.259.192-.173.288-.413.288-.72s-.096-.547-.288-.72c-.186-.173-.448-.26-.787-.26h-.432v1.96zm2.9.692V92.77h.806v5.28h-.807zm2.258 0V92.77h3.957v5.28h-.865v-4.493h-2.227v4.494h-.864zm7.665.077c-.422 0-.787-.08-1.094-.24a1.742 1.742 0 01-.72-.692c-.167-.307-.25-.669-.25-1.085V94.71c0-.422.083-.784.25-1.085.172-.3.413-.531.72-.691.307-.16.672-.24 1.094-.24.423 0 .788.08 1.095.24.307.16.544.39.71.691.173.301.26.66.26 1.076v1.411c0 .416-.087.778-.26 1.085a1.68 1.68 0 01-.71.692c-.307.16-.672.24-1.095.24zm0-.769c.378 0 .673-.105.884-.316.211-.212.317-.522.317-.932V94.71c0-.41-.106-.72-.317-.931-.211-.211-.506-.317-.884-.317-.37 0-.665.106-.883.317-.211.211-.317.521-.317.931v1.402c0 .41.106.72.317.932.218.21.512.316.883.316zm3.047.759v-.807h.173c.294 0 .499-.115.614-.345.122-.23.186-.644.192-1.239l.058-2.957h3.581v5.28h-.864v-4.493H38.88l-.049 2.209c-.012.556-.076 1.008-.192 1.353-.108.346-.281.599-.518.759-.23.16-.535.24-.912.24h-.221zm6.35-.067V92.77h.864v2.199h2.227v-2.2h.864v5.282h-.864v-2.295h-2.227v2.295h-.865zm7.664.096a2.3 2.3 0 01-1.094-.25 1.806 1.806 0 01-.72-.7 2.204 2.204 0 01-.25-1.067v-1.44c0-.41.083-.765.25-1.066.172-.3.412-.534.72-.7a2.29 2.29 0 011.094-.25c.416 0 .778.083 1.085.25.314.166.554.4.72.7.173.301.26.656.26 1.066v.931h-3.284v.51c0 .415.105.736.317.96.211.217.512.326.902.326.333 0 .602-.058.807-.173.205-.121.33-.3.374-.537h.865a1.47 1.47 0 01-.653 1.056c-.372.256-.836.384-1.393.384zm1.22-3.102v-.355c0-.416-.106-.736-.317-.96-.205-.224-.506-.336-.903-.336-.39 0-.691.112-.902.336-.212.224-.317.544-.317.96v.279h2.506l-.067.076zm2.49 3.006V92.77h.863v2.199h2.228v-2.2h.864v5.282h-.864v-2.295h-2.228v2.295h-.864zm5.686 0V92.77h.826v2.88c0 .186-.006.381-.02.586-.006.205-.018.4-.038.586a5.306 5.306 0 01-.048.46l2.132-4.512h1.104v5.28h-.825v-2.88c0-.186.003-.38.01-.586.012-.204.028-.4.047-.585l.048-.47-2.132 4.522h-1.104zm5.36 0l1.355-2.036c-.404-.096-.717-.281-.942-.557-.217-.275-.326-.617-.326-1.027 0-.519.17-.925.509-1.22.346-.294.816-.441 1.412-.441h2.275v5.28h-.864v-1.968h-1.162l-1.248 1.969h-1.008zm2.008-2.737h1.411v-1.776h-1.412c-.32 0-.572.08-.758.24-.186.153-.279.371-.279.653 0 .275.093.493.279.653.186.153.438.23.758.23zm9.693 2.737V92.77h.826v2.88c0 .186-.007.381-.02.586-.006.205-.019.4-.038.586a6.233 6.233 0 01-.048.46l2.132-4.512h1.104v5.28h-.826v-2.88c0-.186.004-.38.01-.586.013-.204.029-.4.048-.585l.048-.47-2.132 4.522H77.46zm13.352.077c-.423 0-.787-.08-1.095-.24a1.742 1.742 0 01-.72-.692c-.166-.307-.25-.669-.25-1.085V94.71c0-.422.084-.784.25-1.085.173-.3.413-.531.72-.691.308-.16.672-.24 1.095-.24.422 0 .787.08 1.095.24.307.16.544.39.71.691.173.301.26.66.26 1.076v1.411c0 .416-.087.778-.26 1.085a1.68 1.68 0 01-.71.692c-.308.16-.672.24-1.095.24zm0-.769c.378 0 .672-.105.883-.316.212-.212.317-.522.317-.932V94.71c0-.41-.105-.72-.317-.931-.21-.211-.505-.317-.883-.317-.371 0-.666.106-.883.317-.212.211-.317.521-.317.931v1.402c0 .41.105.72.317.932.217.21.512.316.883.316zm5.687.788c-.621 0-1.114-.183-1.479-.547-.358-.372-.538-.877-.538-1.518v-2.4c0-.845.212-1.495.634-1.95.423-.46 1.028-.69 1.815-.69h1.344v.863H96.93c-.519 0-.912.154-1.181.461-.269.301-.403.74-.403 1.316v.624h.134l-.134.192c.006-.378.134-.672.384-.883.25-.212.589-.317 1.018-.317.556 0 .989.179 1.296.537.314.359.47.852.47 1.48v.767c0 .43-.08.797-.24 1.105-.16.307-.39.544-.691.71-.3.167-.663.25-1.085.25zm0-.768c.371 0 .656-.112.855-.336.198-.225.297-.545.297-.96v-.769c0-.416-.1-.736-.297-.96-.199-.224-.484-.336-.855-.336s-.656.112-.855.336c-.198.218-.297.538-.297.96v.768c0 .416.099.737.297.96.199.225.484.337.855.337zm3.536.672V92.77h1.171l.692 2.026c.07.204.134.41.192.614.057.199.099.352.125.461.025-.109.064-.262.115-.46.058-.206.118-.414.182-.625l.653-2.016h1.172v5.28h-.836v-.815c0-.288.004-.602.01-.941l.019-1.028.039-.98c.012-.313.022-.588.028-.825l-.941 3.005h-.912l-.95-2.986c.012.288.022.647.028 1.076.013.428.023.877.029 1.344.013.467.019.912.019 1.335v.816h-.835zm7.838.096c-.416 0-.781-.083-1.095-.25a1.808 1.808 0 01-.72-.7 2.208 2.208 0 01-.25-1.067v-1.44c0-.41.084-.765.25-1.066.173-.3.413-.534.72-.7.314-.167.679-.25 1.095-.25.416 0 .778.083 1.085.25.314.166.554.4.72.7.173.301.259.656.259 1.066v.931h-3.284v.51c0 .415.106.736.317.96.211.217.512.326.903.326.333 0 .602-.058.806-.173a.76.76 0 00.375-.537h.864a1.471 1.471 0 01-.653 1.056c-.371.256-.835.384-1.392.384zm1.219-3.102v-.355c0-.416-.105-.736-.317-.96-.204-.224-.505-.336-.902-.336-.391 0-.692.112-.903.336-.211.224-.317.544-.317.96v.279h2.506l-.067.076zm2.49 3.006V92.77h.864v2.199h2.228v-2.2h.864v5.282h-.864v-2.295h-2.228v2.295h-.864zm7.204.096c-.557 0-.996-.141-1.316-.423-.32-.288-.48-.675-.48-1.162 0-.492.16-.88.48-1.161.32-.282.752-.423 1.297-.423h1.632v-.528c0-.326-.099-.576-.298-.749-.192-.18-.467-.269-.825-.269-.314 0-.577.067-.788.202a.718.718 0 00-.365.528h-.864c.058-.455.272-.816.643-1.085.372-.269.836-.403 1.393-.403.608 0 1.088.156 1.44.47.352.314.528.74.528 1.277v3.63h-.845v-1.008h-.144l.144-.145c0 .385-.15.689-.451.913-.295.224-.688.336-1.181.336zm.211-.682c.41 0 .746-.102 1.008-.307a.955.955 0 00.394-.788v-.749h-1.613c-.288 0-.516.08-.682.24-.166.16-.25.378-.25.653 0 .295.1.529.298.701.205.167.487.25.845.25zM14.903 118.051v-5.281h.825v2.88c0 .186-.006.381-.019.586a8.2 8.2 0 01-.038.586 6.11 6.11 0 01-.048.461l2.131-4.513h1.105v5.281h-.826v-2.881c0-.186.003-.381.01-.586.012-.204.028-.4.047-.585l.049-.471-2.132 4.523h-1.104zm5.687 0v-5.281h.864v2.198h2.227v-2.198h.865v5.281h-.865v-2.295h-2.227v2.295h-.864zm7.28 1.728v-1.728c-.614 0-1.097-.173-1.45-.519-.352-.345-.528-.819-.528-1.421v-1.421c0-.595.177-1.063.529-1.402.358-.346.841-.518 1.45-.518v-1.729h.768v1.729c.614 0 1.098.172 1.45.518.352.339.528.807.528 1.402v1.421c0 .602-.176 1.076-.528 1.421-.352.346-.836.519-1.45.519v1.728h-.768zm.02-2.41v-3.918c-.372 0-.663.109-.874.327-.211.217-.317.522-.317.912v1.421c0 .391.106.698.317.922.211.224.502.336.874.336zm.73 0c.377 0 .668-.112.873-.336.212-.224.317-.531.317-.922v-1.421c0-.39-.105-.695-.317-.912-.205-.218-.496-.327-.874-.327v3.918zm5.321.759c-.422 0-.787-.08-1.094-.24a1.743 1.743 0 01-.72-.692c-.167-.307-.25-.669-.25-1.085v-1.402c0-.422.083-.784.25-1.085a1.74 1.74 0 01.72-.691c.307-.16.672-.24 1.094-.24.423 0 .788.08 1.095.24.307.16.544.39.71.691.173.301.26.66.26 1.076v1.411c0 .416-.087.778-.26 1.085a1.683 1.683 0 01-.71.692c-.307.16-.672.24-1.095.24zm0-.769c.378 0 .673-.105.884-.316.211-.212.317-.522.317-.932v-1.402c0-.409-.106-.72-.317-.931-.211-.211-.506-.317-.884-.317-.37 0-.665.106-.883.317-.211.211-.317.522-.317.931v1.402c0 .41.106.72.317.932.218.211.512.316.883.316zm3.69 2.42v-7.009h.864v1.008h.173l-.173.201c0-.403.132-.72.394-.95.269-.237.621-.355 1.056-.355.532 0 .954.176 1.268.528.32.345.48.822.48 1.43v1.546c0 .404-.074.753-.22 1.047a1.58 1.58 0 01-.606.682c-.256.16-.563.24-.922.24-.429 0-.778-.119-1.046-.355-.27-.237-.404-.554-.404-.951l.173.202h-.192l.02 1.2v1.536h-.865zm2.026-2.381c.365 0 .65-.109.855-.327.211-.217.317-.531.317-.941v-1.44c0-.41-.106-.723-.317-.941-.205-.218-.49-.326-.855-.326-.352 0-.633.112-.845.336-.211.224-.317.534-.317.931v1.44c0 .397.106.708.317.932.212.224.493.336.845.336zm3.508.653v-5.281h1.171l.691 2.026c.07.204.135.409.192.614.058.199.1.352.125.461.026-.109.064-.262.115-.461.058-.205.119-.413.183-.624l.653-2.016h1.171v5.281h-.835v-.816c0-.288.003-.602.01-.941l.019-1.028c.013-.346.025-.672.038-.979.013-.314.023-.589.029-.826l-.941 3.005h-.912l-.95-2.986c.012.288.022.647.028 1.076.013.428.022.877.029 1.344.012.467.019.912.019 1.335v.816h-.836zm7.376.096c-.556 0-.995-.141-1.315-.423-.32-.288-.48-.675-.48-1.162 0-.492.16-.88.48-1.161.32-.282.752-.423 1.296-.423h1.633v-.528c0-.327-.1-.576-.298-.749-.192-.179-.467-.269-.826-.269-.313 0-.576.067-.787.202a.717.717 0 00-.365.528h-.864c.057-.455.272-.816.643-1.085s.835-.403 1.392-.403c.608 0 1.089.156 1.44.47.353.314.529.739.529 1.277v3.63h-.845v-1.008h-.144l.144-.144c0 .384-.15.688-.452.912-.294.224-.688.336-1.18.336zm.212-.682c.41 0 .745-.102 1.008-.307a.957.957 0 00.394-.788v-.749H50.54c-.288 0-.515.08-.681.24-.167.161-.25.378-.25.653 0 .295.1.529.298.701.204.167.486.25.845.25zm7.713 1.93v-1.344H54.71v-5.281h.864v4.513h2.075v-4.513h.864v4.513h.72v2.112h-.768zm1.932-1.344v-5.281h.826v2.88c0 .186-.006.381-.02.586a8.2 8.2 0 01-.038.586 6.157 6.157 0 01-.048.461l2.132-4.513h1.104v5.281h-.825v-2.881c0-.186.003-.381.01-.586.012-.204.028-.4.047-.585l.048-.471-2.132 4.523h-1.104zm7.665.096c-.416 0-.78-.083-1.094-.25a1.803 1.803 0 01-.72-.701 2.2 2.2 0 01-.25-1.066v-1.44c0-.41.083-.765.25-1.066a1.81 1.81 0 01.72-.701 2.307 2.307 0 011.094-.249c.416 0 .778.083 1.085.249.314.167.554.4.72.701.173.301.26.656.26 1.066v.931h-3.284v.509c0 .416.105.737.317.961.21.217.512.326.902.326.333 0 .602-.058.807-.173a.762.762 0 00.374-.538h.864a1.473 1.473 0 01-.653 1.057c-.37.256-.835.384-1.392.384zm1.22-3.102v-.355c0-.416-.106-.736-.317-.96-.205-.224-.506-.336-.903-.336-.39 0-.691.112-.902.336-.212.224-.317.544-.317.96v.278h2.506l-.067.077zm2.49 3.006v-5.281h.825v2.88c0 .186-.007.381-.02.586-.006.205-.019.4-.038.586a6.11 6.11 0 01-.048.461l2.132-4.513h1.104v5.281h-.826v-2.881c0-.186.004-.381.01-.586.013-.204.029-.4.048-.585l.048-.471-2.132 4.523h-1.104zm2.016-6.146c-.461 0-.833-.128-1.114-.384-.282-.256-.423-.592-.423-1.008h.682c0 .25.077.451.23.605.154.154.359.23.615.23.262 0 .47-.076.624-.23a.8.8 0 00.24-.605h.682c0 .416-.141.752-.423 1.008-.281.256-.653.384-1.114.384zm9.357 6.146v-5.281h2.285c.55 0 .977.124 1.277.374.301.243.452.586.452 1.028 0 .364-.125.659-.375.883-.25.218-.58.326-.989.326v-.076c.448 0 .807.112 1.076.336.275.224.412.525.412.902 0 .474-.16.845-.48 1.114-.32.263-.768.394-1.344.394h-2.314zm.845-.759h1.47c.306 0 .543-.067.71-.201a.68.68 0 00.259-.567c0-.25-.087-.442-.26-.576-.166-.135-.403-.202-.71-.202h-1.469v1.546zm0-2.295h1.44c.27 0 .48-.064.634-.192.16-.128.24-.307.24-.537 0-.231-.077-.41-.23-.538-.154-.135-.368-.202-.644-.202h-1.44v1.469zm4.842 3.054v-5.281h.864v2.198h2.228v-2.198h.864v5.281h-.864v-2.295h-2.228v2.295h-.864zm6.493 1.728l.778-2.055-1.959-4.954h.96l1.23 3.264c.044.109.086.24.125.394l.096.374c.025-.102.057-.227.096-.374.038-.154.076-.285.115-.394l1.152-3.264h.931l-2.602 7.009h-.922zm6.427-1.728v-4.523h-1.92v-.758h4.704v.758h-1.92v4.523h-.864zm4.122 1.728v-7.009h.864v1.008h.173l-.173.201c0-.403.131-.72.393-.95.269-.237.621-.355 1.057-.355.531 0 .953.176 1.267.528.32.345.48.822.48 1.43v1.546c0 .404-.073.753-.221 1.047-.14.294-.342.522-.605.682-.256.16-.563.24-.921.24-.429 0-.778-.119-1.047-.355-.269-.237-.403-.554-.403-.951l.173.202h-.192l.019 1.2v1.536h-.864zm2.026-2.381c.364 0 .649-.109.854-.327.211-.217.317-.531.317-.941v-1.44c0-.41-.106-.723-.317-.941-.205-.218-.49-.326-.854-.326-.352 0-.634.112-.845.336-.212.224-.317.534-.317.931v1.44c0 .397.105.708.317.932.211.224.493.336.845.336zm3.68.653v-5.281h.825v2.88c0 .186-.006.381-.019.586-.006.205-.019.4-.038.586a6.326 6.326 0 01-.048.461l2.132-4.513h1.104v5.281h-.826v-2.881c0-.186.003-.381.01-.586.012-.204.028-.4.048-.585l.048-.471-2.132 4.523h-1.104zm11.402 0v-5.281h.865v2.179h.902l1.537-2.179h.989l-1.777 2.515 1.805 2.766h-1.008l-1.536-2.353h-.912v2.353h-.865zm7.637.077c-.423 0-.788-.08-1.095-.24a1.745 1.745 0 01-.72-.692c-.167-.307-.25-.669-.25-1.085v-1.402c0-.422.083-.784.25-1.085.173-.301.413-.531.72-.691.307-.16.672-.24 1.095-.24.422 0 .787.08 1.094.24.308.16.544.39.711.691.173.301.259.66.259 1.076v1.411c0 .416-.086.778-.259 1.085a1.683 1.683 0 01-.711.692c-.307.16-.672.24-1.094.24zm0-.769c.377 0 .672-.105.883-.316.211-.212.317-.522.317-.932v-1.402c0-.409-.106-.72-.317-.931-.211-.211-.506-.317-.883-.317-.372 0-.666.106-.884.317-.211.211-.317.522-.317.931v1.402c0 .41.106.72.317.932.218.211.512.316.884.316zm3.536.692v-5.281h1.171l.691 2.026c.071.204.135.409.193.614.057.199.099.352.124.461.026-.109.064-.262.116-.461.057-.205.118-.413.182-.624l.653-2.016h1.171v5.281h-.835v-.816c0-.288.003-.602.01-.941l.019-1.028c.013-.346.025-.672.038-.979.013-.314.023-.589.029-.826l-.941 3.005h-.912l-.951-2.986c.013.288.023.647.029 1.076.013.428.022.877.029 1.344.013.467.019.912.019 1.335v.816h-.835zm7.377.096c-.557 0-.996-.141-1.316-.423-.32-.288-.48-.675-.48-1.162 0-.492.16-.88.48-1.161.32-.282.752-.423 1.296-.423h1.633v-.528c0-.327-.099-.576-.298-.749-.192-.179-.467-.269-.826-.269-.313 0-.576.067-.787.202a.718.718 0 00-.365.528h-.864c.057-.455.272-.816.643-1.085s.836-.403 1.392-.403c.609 0 1.089.156 1.441.47.352.314.528.739.528 1.277v3.63h-.845v-1.008h-.144l.144-.144c0 .384-.15.688-.451.912-.295.224-.689.336-1.181.336zm.211-.682c.41 0 .746-.102 1.008-.307a.956.956 0 00.394-.788v-.749h-1.613c-.288 0-.516.08-.682.24-.167.161-.25.378-.25.653 0 .295.099.529.298.701.205.167.486.25.845.25zm3.958.586v-5.281h.865v2.198h2.227v-2.198h.864v5.281h-.864v-2.295h-2.227v2.295h-.865zm5.073 1.344v-2.084h.432c.109-.108.221-.323.336-.643.122-.32.186-.726.192-1.219l.058-2.679h3.447v4.541h.672v2.084h-.768v-1.344h-3.601v1.344h-.768zm1.344-2.084h2.257v-3.773h-1.767l-.039 1.93c-.006.506-.06.915-.163 1.229-.102.314-.198.518-.288.614zm4.679.74v-5.281h.806v1.939h.432c.57 0 1.018.151 1.345.452.333.294.499.7.499 1.219 0 .519-.166.928-.499 1.229-.327.295-.775.442-1.345.442h-1.238zm.806-.692h.432c.34 0 .602-.086.788-.259.192-.173.288-.413.288-.72s-.096-.547-.288-.72c-.186-.173-.448-.259-.788-.259h-.432v1.958zm2.9.692v-5.281h.807v5.281h-.807zm4.237.096c-.243 0-.438-.071-.585-.211-.141-.141-.212-.33-.212-.567 0-.25.071-.448.212-.595.147-.148.342-.221.585-.221.244 0 .436.073.576.221.148.147.221.345.221.595 0 .237-.073.426-.221.567-.14.14-.332.211-.576.211zM14.24 27.708v-2.084h.432c.07-.128.144-.301.221-.519.077-.217.144-.464.202-.739a4.69 4.69 0 00.096-.864l.067-4.148h3.591v6.27h.672v2.084h-.768v-1.345h-3.745v1.345h-.768zm1.335-2.084h2.41v-5.502h-1.901l-.048 3.38a5.273 5.273 0 01-.164 1.306c-.102.377-.201.65-.297.816zm6.993.816c-.423 0-.788-.08-1.095-.24a1.742 1.742 0 01-.72-.691c-.167-.308-.25-.67-.25-1.085v-1.402c0-.423.083-.784.25-1.085.173-.301.413-.532.72-.692.307-.16.672-.24 1.095-.24.422 0 .787.08 1.094.24.308.16.544.39.71.692.174.3.26.659.26 1.075v1.412c0 .416-.086.777-.26 1.085-.166.3-.402.531-.71.691-.307.16-.672.24-1.094.24zm0-.768c.377 0 .672-.106.883-.317.211-.211.317-.522.317-.931v-1.402c0-.41-.106-.72-.317-.932-.211-.21-.506-.317-.883-.317-.372 0-.666.106-.884.317-.211.212-.317.522-.317.932v1.402c0 .41.106.72.317.931.218.211.512.317.884.317zm3.708.691v-5.28h3.957v5.28h-.865V21.87h-2.227v4.494h-.864zm7.665.077c-.422 0-.787-.08-1.094-.24a1.742 1.742 0 01-.72-.691c-.167-.308-.25-.67-.25-1.085v-1.402c0-.423.083-.784.25-1.085a1.74 1.74 0 01.72-.692c.307-.16.672-.24 1.094-.24.423 0 .788.08 1.095.24.307.16.544.39.71.692.173.3.26.659.26 1.075v1.412c0 .416-.087.777-.26 1.085-.166.3-.403.531-.71.691-.307.16-.672.24-1.095.24zm0-.768c.378 0 .673-.106.884-.317.211-.211.317-.522.317-.931v-1.402c0-.41-.106-.72-.317-.932-.211-.21-.506-.317-.884-.317-.37 0-.665.106-.883.317-.211.212-.317.522-.317.932v1.402c0 .41.106.72.317.931.218.211.512.317.883.317zm3.047.758v-.806h.173c.294 0 .499-.115.614-.346.122-.23.186-.643.192-1.238l.058-2.958h3.581v5.281h-.864V21.87H38.88l-.049 2.209c-.012.557-.076 1.008-.192 1.354-.108.346-.281.598-.518.758-.23.16-.535.24-.912.24h-.221zm6.35-.067v-5.28h.864v2.198h2.227v-2.199h.864v5.281h-.864v-2.295h-2.227v2.295h-.865zm5.686 0v-5.28h.826v2.88c0 .185-.006.38-.02.585-.005.205-.018.4-.038.586-.012.18-.028.333-.048.461l2.132-4.513h1.104v5.281h-.825v-2.88c0-.186.003-.381.01-.586.012-.205.028-.4.047-.586l.048-.47-2.131 4.522h-1.105zm7.233 0v-4.522h-1.92v-.759h4.705v.759h-1.92v4.522h-.865zm6.12.096a2.3 2.3 0 01-1.095-.25 1.806 1.806 0 01-.72-.7 2.204 2.204 0 01-.25-1.066v-1.44c0-.41.083-.765.25-1.066.172-.301.412-.535.72-.701a2.29 2.29 0 011.094-.25c.416 0 .778.083 1.085.25.314.166.554.4.72.7.173.302.26.657.26 1.067v.93h-3.284v.51c0 .416.105.736.317.96.21.218.512.327.902.327.333 0 .602-.058.807-.173a.76.76 0 00.374-.538h.864a1.47 1.47 0 01-.653 1.056c-.37.256-.835.384-1.392.384zm1.219-3.101v-.355c0-.417-.106-.737-.317-.96-.205-.225-.506-.337-.903-.337-.39 0-.691.112-.902.336-.212.224-.317.544-.317.96v.279h2.506l-.067.077zm1.827 3.072v-.806h.172c.295 0 .5-.115.615-.346.122-.23.186-.643.192-1.238l.058-2.958h3.581v5.281h-.864V21.87h-1.863l-.048 2.209c-.013.557-.077 1.008-.192 1.354-.109.346-.281.598-.518.758-.23.16-.535.24-.913.24h-.22zm6.388-.067v-5.28h.864v1.939h1.555c.596 0 1.063.15 1.402.451.346.294.519.701.519 1.22 0 .512-.173.918-.519 1.219-.346.3-.813.451-1.402.451h-2.42zm.864-.787h1.555c.333 0 .586-.074.759-.22.179-.155.269-.375.269-.664 0-.288-.09-.505-.27-.652-.172-.154-.425-.23-.758-.23h-1.555v1.766zm4.784.787v-5.28h.864v2.198h2.228v-2.199h.864v5.281h-.864v-2.295h-2.228v2.295h-.864zm5.409 0v-5.28h.806v1.939h.432c.57 0 1.018.15 1.345.451.332.294.499.701.499 1.22 0 .518-.167.928-.5 1.229-.326.294-.774.441-1.344.441h-1.238zm.806-.691h.432c.34 0 .602-.087.788-.26.192-.172.288-.412.288-.72 0-.307-.096-.547-.288-.72-.186-.173-.449-.259-.788-.259h-.432v1.959zm2.9.691v-5.28h.806v5.28h-.806zm4.237.096c-.416 0-.781-.083-1.095-.25a1.805 1.805 0 01-.72-.7 2.203 2.203 0 01-.25-1.066v-1.44c0-.41.084-.765.25-1.066.173-.301.413-.535.72-.701.314-.167.679-.25 1.095-.25.416 0 .778.083 1.085.25.314.166.554.4.72.7.173.302.26.657.26 1.067v.93H89.59v.51c0 .416.106.736.317.96.212.218.513.327.903.327.333 0 .602-.058.806-.173a.765.765 0 00.375-.538h.864a1.47 1.47 0 01-.653 1.056c-.371.256-.835.384-1.392.384zm1.22-3.101v-.355c0-.417-.106-.737-.317-.96-.205-.225-.506-.337-.903-.337-.39 0-.691.112-.903.336-.21.224-.317.544-.317.96v.279h2.507l-.068.077zm8.176 3.005v-5.28h.826v2.88c0 .185-.007.38-.02.585-.006.205-.019.4-.038.586a6.31 6.31 0 01-.048.461l2.132-4.513h1.104v5.281h-.826v-2.88c0-.186.003-.381.01-.586.013-.205.029-.4.048-.586l.048-.47-2.132 4.522h-1.104zm5.687 0v-5.28h.864v2.198h2.228v-2.199h.864v5.281h-.864v-2.295h-2.228v2.295h-.864zm7.684.096a2.46 2.46 0 01-1.114-.24 1.728 1.728 0 01-.73-.691c-.172-.307-.259-.67-.259-1.085v-1.44c0-.423.087-.785.259-1.085a1.73 1.73 0 01.73-.692c.32-.16.691-.24 1.114-.24.608 0 1.098.163 1.469.49.371.326.567.771.586 1.335h-.864c-.02-.34-.135-.6-.346-.778-.205-.186-.487-.279-.845-.279-.378 0-.679.11-.903.327-.224.211-.336.515-.336.912v1.45c0 .397.112.704.336.922.224.217.525.326.903.326.358 0 .64-.093.845-.278.211-.186.326-.445.346-.778h.864c-.019.563-.215 1.008-.586 1.335-.371.326-.861.49-1.469.49zm5.236-.096v-4.522h-1.921v-.759h4.705v.759h-1.92v4.522h-.864zm4.121 1.729v-7.01h.865v1.008h.172l-.172.202c0-.403.131-.72.393-.95.269-.237.621-.356 1.057-.356.531 0 .953.176 1.267.528.32.346.48.823.48 1.43v1.547c0 .403-.074.752-.221 1.047a1.567 1.567 0 01-.605.681c-.256.16-.563.24-.921.24-.429 0-.778-.118-1.047-.355-.269-.237-.403-.554-.403-.95l.172.201h-.192l.02 1.2v1.537h-.865zm2.026-2.382c.365 0 .65-.108.855-.326.211-.218.317-.532.317-.941v-1.44c0-.41-.106-.724-.317-.942-.205-.217-.49-.326-.855-.326-.352 0-.633.112-.845.336-.211.224-.316.535-.316.931v1.44c0 .398.105.708.316.932.212.224.493.336.845.336zm4.487 2.382l.778-2.055-1.959-4.955h.96l1.229 3.265c.045.109.087.24.125.393.039.148.071.273.096.375l.096-.374c.039-.154.077-.285.115-.394l1.153-3.265h.931l-2.602 7.01h-.922zm4.708-1.729v-5.28h1.171l.691 2.025c.071.205.135.41.193.615.057.198.099.352.124.46.026-.108.064-.262.116-.46.057-.205.118-.413.182-.624l.653-2.017h1.171v5.281h-.835v-.816c0-.288.003-.602.01-.94l.019-1.028c.013-.346.025-.672.038-.98.013-.313.023-.589.029-.826l-.941 3.006h-.912l-.951-2.986c.013.288.023.646.029 1.075.013.429.022.877.029 1.344.013.468.019.913.019 1.335v.816h-.835zm7.837.096a2.3 2.3 0 01-1.094-.25 1.808 1.808 0 01-.72-.7 2.197 2.197 0 01-.25-1.066v-1.44c0-.41.083-.765.25-1.066.173-.301.413-.535.72-.701a2.3 2.3 0 011.094-.25c.417 0 .778.083 1.086.25.313.166.553.4.72.7.173.302.259.657.259 1.067v.93h-3.284v.51c0 .416.106.736.317.96.211.218.512.327.902.327.333 0 .602-.058.807-.173a.765.765 0 00.375-.538h.864a1.474 1.474 0 01-.653 1.056c-.371.256-.836.384-1.393.384zm1.22-3.101v-.355c0-.417-.106-.737-.317-.96-.205-.225-.506-.337-.903-.337-.39 0-.691.112-.902.336-.211.224-.317.544-.317.96v.279h2.506l-.067.077zm2.489 3.005v-5.28h.865v2.198h2.227v-2.199h.864v5.281h-.864v-2.295h-2.227v2.295h-.865zm7.233 0v-4.522h-1.92v-.759h4.705v.759h-1.921v4.522h-.864zm3.863 0v-5.28h.806v1.939h.432c.57 0 1.018.15 1.345.451.333.294.499.701.499 1.22 0 .518-.166.928-.499 1.229-.327.294-.775.441-1.345.441h-1.238zm.806-.691h.432c.34 0 .602-.087.788-.26.192-.172.288-.412.288-.72 0-.307-.096-.547-.288-.72-.186-.173-.448-.259-.788-.259h-.432v1.959zm2.9.691v-5.28h.807v5.28h-.807zm4.237-3.937c-.237 0-.429-.064-.576-.192a.682.682 0 01-.221-.528c0-.217.074-.39.221-.518.147-.135.339-.202.576-.202.244 0 .436.067.576.202a.65.65 0 01.221.518.679.679 0 01-.221.528c-.14.128-.332.192-.576.192zm0 4.033c-.237 0-.429-.064-.576-.192a.683.683 0 01-.221-.528c0-.218.074-.39.221-.518.147-.135.339-.202.576-.202.244 0 .436.067.576.202a.65.65 0 01.221.518.68.68 0 01-.221.528c-.14.128-.332.192-.576.192z" fill="#fff"/><defs><filter id="filter0_d_440_465" x=".28" y="0" width="179.561" height="178.6" filterUnits="userSpaceOnUse" color-interpolation-filters="sRGB"><feFlood flood-opacity="0" result="BackgroundImageFix"/><feColorMatrix in="SourceAlpha" values="0 0 0 0 0 0 0 0 0 0 0 0 0 0 0 0 0 0 127 0" result="hardAlpha"/><feOffset dy="3.841"/><feGaussianBlur stdDeviation="1.92"/><feComposite in2="hardAlpha" operator="out"/><feColorMatrix values="0 0 0 0 0 0 0 0 0 0 0 0 0 0 0 0 0 0 0.25 0"/><feBlend in2="BackgroundImageFix" result="effect1_dropShadow_440_465"/><feBlend in="SourceGraphic" in2="effect1_dropShadow_440_465" result="shape"/></filter></defs></svg>