<svg width="180" height="179" fill="none" xmlns="http://www.w3.org/2000/svg"><g filter="url(#filter0_d_440_430)"><rect x="4.336" width="171.664" height="170.705" rx="15.984" fill="#223B38"/></g><mask id="a" style="mask-type:alpha" maskUnits="userSpaceOnUse" x="4" y="0" width="172" height="43"><path fill="#C9D9CD" d="M4.336 0H176v42.197H4.336z"/></mask><g mask="url(#a)"><rect x="4.336" y="-1.688" width="171.664" height="118.151" rx="15.984" fill="#46767D"/></g><path d="M16.915 61.096c-.422 0-.79-.08-1.102-.24a1.741 1.741 0 01-.72-.69c-.166-.307-.25-.668-.25-1.084v-3.165c0-.422.084-.783.25-1.084.173-.3.413-.53.72-.69.313-.16.68-.24 1.102-.24.422 0 .787.083 1.094.25.307.16.543.39.71.69.166.3.249.659.249 1.074h-.863c0-.396-.106-.7-.317-.91-.204-.218-.495-.327-.873-.327-.377 0-.674.106-.892.317-.21.21-.316.514-.316.91v3.175c0 .396.105.703.316.92.218.212.515.317.892.317.378 0 .669-.105.873-.316.211-.218.317-.525.317-.921h.863c0 .41-.083.767-.25 1.074a1.74 1.74 0 01-.71.7c-.306.16-.67.24-1.093.24zm5.642-.02c-.422 0-.787-.08-1.093-.239a1.741 1.741 0 01-.72-.69c-.166-.307-.249-.669-.249-1.084v-1.4c0-.422.083-.784.25-1.084.172-.3.412-.53.719-.69.306-.16.67-.24 1.093-.24.422 0 .786.08 1.093.24.307.16.544.39.71.69.172.3.259.658.259 1.074v1.41c0 .415-.087.777-.26 1.084-.165.3-.402.53-.709.69-.307.16-.671.24-1.093.24zm0-.767c.377 0 .671-.105.882-.316.211-.211.317-.521.317-.93v-1.4c0-.41-.106-.72-.317-.93-.21-.212-.505-.317-.882-.317-.37 0-.665.105-.882.316-.211.211-.317.521-.317.93v1.4c0 .41.106.72.317.931.217.211.511.316.882.316zm5.43.758c-.556 0-1.013-.118-1.371-.355a1.41 1.41 0 01-.633-.959h.911c.045.16.163.291.355.394.198.102.444.153.738.153h.451c.313 0 .556-.074.729-.22a.71.71 0 00.268-.576c0-.256-.086-.457-.258-.604-.167-.147-.413-.22-.739-.22h-1.16v-.749h1.131c.294 0 .518-.07.672-.21a.719.719 0 00.23-.557.726.726 0 00-.106-.403.61.61 0 00-.297-.25 1.24 1.24 0 00-.49-.086h-.479a1.23 1.23 0 00-.661.173c-.186.115-.298.256-.336.422h-.911c.064-.396.272-.722.623-.978.352-.256.78-.384 1.285-.384h.48c.377 0 .7.061.968.182a1.325 1.325 0 01.834 1.276c0 .313-.101.572-.306.777-.205.198-.492.31-.863.335v.039c.454.032.783.153.988.364.204.211.307.515.307.911 0 .467-.173.838-.518 1.113-.346.275-.81.412-1.39.412h-.452zm3.34 1.276v-2.081h.432c.108-.11.22-.323.335-.643.122-.32.186-.726.192-1.218l.058-2.676h3.443v4.537h.671v2.08h-.767V61h-3.597v1.343h-.767zm1.343-2.081h2.253v-3.77H33.16l-.038 1.928c-.007.505-.061.914-.163 1.228-.103.313-.199.518-.288.614zm6.466.834c-.556 0-.994-.14-1.314-.422-.32-.288-.48-.675-.48-1.16 0-.493.16-.88.48-1.16.32-.282.751-.423 1.295-.423h1.63v-.527c0-.326-.099-.576-.297-.748-.192-.18-.467-.269-.825-.269-.313 0-.575.067-.786.202a.717.717 0 00-.365.527h-.863c.058-.454.272-.815.643-1.084.37-.268.834-.402 1.39-.402.608 0 1.087.156 1.439.47.352.313.527.738.527 1.275V61h-.844v-1.007h-.143l.143-.144c0 .384-.15.688-.45.911-.294.224-.688.336-1.18.336zm.211-.681c.41 0 .745-.102 1.007-.307a.955.955 0 00.393-.786v-.748h-1.61c-.289 0-.516.08-.682.24-.166.16-.25.377-.25.652 0 .294.1.527.298.7.205.166.486.249.844.249zm3.292.652v-.805h.173c.294 0 .498-.115.613-.346.122-.23.186-.642.192-1.237l.058-2.954h3.577V61h-.863v-4.488h-1.86l-.049 2.206c-.012.556-.076 1.006-.192 1.352-.108.345-.28.597-.517.757-.23.16-.534.24-.912.24h-.22zM48.98 61v-5.275h.825v2.877c0 .186-.006.38-.019.586-.006.204-.02.399-.038.584a6.14 6.14 0 01-.048.46l2.129-4.507h1.103V61h-.825v-2.877c0-.185.003-.38.01-.585.012-.205.028-.4.047-.585l.048-.47L50.083 61h-1.102zm13.336.096c-.62 0-1.113-.182-1.477-.547-.358-.37-.537-.876-.537-1.515v-2.398c0-.844.21-1.492.633-1.946.422-.46 1.026-.69 1.812-.69h1.343v.862h-1.343c-.518 0-.91.154-1.18.46-.268.301-.402.74-.402 1.314v.624h.134l-.134.192c.006-.378.134-.672.383-.883.25-.21.589-.316 1.017-.316.556 0 .988.179 1.295.537.313.358.47.85.47 1.477v.767c0 .428-.08.796-.24 1.103a1.68 1.68 0 01-.69.71c-.301.166-.662.249-1.084.249zm0-.767c.37 0 .655-.112.853-.336.199-.224.298-.543.298-.959v-.767c0-.416-.1-.735-.298-.96-.198-.223-.482-.335-.853-.335s-.656.112-.854.336c-.198.217-.297.537-.297.959v.767c0 .416.099.735.297.959.198.224.483.336.854.336zm5.68.748c-.422 0-.787-.08-1.094-.24a1.741 1.741 0 01-.719-.69c-.166-.307-.25-.669-.25-1.084v-1.4c0-.422.084-.784.25-1.084.173-.3.412-.53.72-.69.306-.16.67-.24 1.093-.24.422 0 .786.08 1.093.24.307.16.543.39.71.69.172.3.258.658.258 1.074v1.41c0 .415-.086.777-.258 1.084-.167.3-.403.53-.71.69-.307.16-.671.24-1.093.24zm0-.767c.377 0 .67-.106.882-.317.21-.211.316-.521.316-.93v-1.4c0-.41-.105-.72-.316-.93-.211-.212-.505-.317-.882-.317-.371 0-.665.105-.883.316-.21.211-.316.521-.316.93v1.4c0 .41.105.72.316.931.218.211.512.316.883.316zm5.248.69v-4.517h-1.918v-.758h4.699v.758h-1.918V61h-.863zm5.65.096c-.555 0-.993-.14-1.313-.422-.32-.288-.48-.675-.48-1.16 0-.493.16-.88.48-1.16.32-.282.751-.423 1.295-.423h1.63v-.527c0-.326-.099-.576-.297-.748-.192-.18-.467-.269-.825-.269-.313 0-.575.067-.786.202a.716.716 0 00-.365.527h-.863c.058-.454.272-.815.643-1.084.37-.268.834-.402 1.39-.402.608 0 1.087.156 1.439.47.351.313.527.738.527 1.275V61h-.844v-1.007h-.144l.144-.144c0 .384-.15.688-.45.911-.295.224-.688.336-1.18.336zm.212-.681c.41 0 .745-.102 1.007-.307a.955.955 0 00.393-.786v-.748h-1.611c-.288 0-.515.08-.681.24-.166.16-.25.377-.25.652 0 .294.1.527.298.7.205.166.486.249.844.249zm4.634 2.12l.768-2.983h1.246l-1.246 2.982h-.768zm12.655-1.458c-.422 0-.787-.08-1.093-.24a1.74 1.74 0 01-.72-.69c-.166-.307-.25-.669-.25-1.084v-1.4c0-.422.084-.784.25-1.084.173-.3.413-.53.72-.69.306-.16.67-.24 1.093-.24.422 0 .786.08 1.093.24.307.16.543.39.71.69.172.3.259.658.259 1.074v1.41c0 .415-.087.777-.26 1.084-.166.3-.402.53-.709.69-.307.16-.671.24-1.093.24zm0-.767c.377 0 .671-.106.882-.317.211-.211.317-.521.317-.93v-1.4c0-.41-.106-.72-.317-.93-.21-.212-.505-.317-.882-.317-.371 0-.665.105-.882.316-.212.211-.317.521-.317.93v1.4c0 .41.106.72.317.931.217.211.51.316.882.316zm5.68.786c-.621 0-1.113-.182-1.477-.547-.358-.37-.537-.876-.537-1.515v-2.398c0-.844.211-1.492.633-1.946.422-.46 1.026-.69 1.812-.69h1.343v.862h-1.343c-.518 0-.911.154-1.179.46-.269.301-.403.74-.403 1.314v.624h.134l-.134.192c.006-.378.134-.672.383-.883.25-.21.589-.316 1.017-.316.556 0 .988.179 1.295.537.313.358.47.85.47 1.477v.767c0 .428-.08.796-.24 1.103a1.68 1.68 0 01-.691.71c-.3.166-.661.249-1.083.249zm0-.767c.37 0 .655-.112.853-.336.198-.224.297-.543.297-.959v-.767c0-.416-.099-.735-.297-.96-.198-.223-.483-.335-.853-.335-.371 0-.656.112-.854.336-.198.217-.297.537-.297.959v.767c0 .416.099.735.297.959.198.224.483.336.854.336zm3.042.738v-.805h.173c.294 0 .498-.115.614-.346.121-.23.185-.642.191-1.237l.058-2.954h3.577V61h-.863v-4.488h-1.861l-.048 2.206c-.012.556-.076 1.006-.191 1.352-.109.345-.282.597-.518.757-.23.16-.534.24-.911.24h-.221zm8.317.029a2.29 2.29 0 01-1.093-.25 1.8 1.8 0 01-.719-.7 2.192 2.192 0 01-.25-1.064v-1.439c0-.409.083-.764.25-1.064a1.8 1.8 0 01.719-.7c.313-.166.678-.25 1.093-.25.416 0 .777.084 1.084.25.313.166.553.4.719.7.173.3.259.655.259 1.064v.93h-3.28v.509c0 .416.106.735.317.959.211.217.511.326.901.326.333 0 .601-.057.806-.173a.764.764 0 00.374-.537h.863a1.471 1.471 0 01-.652 1.055c-.371.256-.835.384-1.391.384zm1.218-3.098v-.355c0-.415-.105-.735-.316-.959-.205-.223-.505-.335-.902-.335-.39 0-.69.112-.901.335-.211.224-.317.544-.317.96v.278h2.503l-.067.076zM117.484 61v-5.275h3.788v.787h-2.925V61h-.863zm8.365 0v-1.918a4.21 4.21 0 01-.47.077 7.065 7.065 0 01-.652.029c-.652.006-1.161-.15-1.525-.47-.358-.327-.537-.78-.537-1.362v-1.63h.863v1.63c0 .326.109.585.326.776.224.186.531.279.921.279.268 0 .495-.01.681-.03.191-.025.323-.047.393-.066v-2.59h.863V61h-.863zm4.164.096c-.556 0-.994-.14-1.313-.422-.32-.288-.48-.675-.48-1.16 0-.493.16-.88.48-1.16.319-.282.751-.423 1.294-.423h1.631v-.527c0-.326-.099-.576-.298-.748-.191-.18-.466-.269-.824-.269-.314 0-.576.067-.787.202a.716.716 0 00-.364.527h-.863a1.52 1.52 0 01.642-1.084c.371-.268.835-.402 1.391-.402.607 0 1.087.156 1.438.47.352.313.528.738.528 1.275V61h-.844v-1.007h-.144l.144-.144c0 .384-.15.688-.451.911-.294.224-.687.336-1.18.336zm.211-.681c.41 0 .745-.102 1.007-.307a.953.953 0 00.394-.786v-.748h-1.612c-.287 0-.514.08-.68.24-.167.16-.25.377-.25.652 0 .294.099.527.298.7.204.166.485.249.843.249zm6.754.68c-.441 0-.796-.15-1.064-.45-.269-.3-.403-.694-.403-1.18v-.795h-.844V61h-.796v-5.275h.796v2.254h.844v-.72c0-.492.131-.885.393-1.179.269-.3.627-.45 1.074-.45.473 0 .854.15 1.142.45.287.294.431.688.431 1.18v2.206c0 .486-.144.879-.431 1.18-.288.3-.669.45-1.142.45zm0-.67c.243 0 .432-.083.566-.25.141-.172.211-.409.211-.71V57.26c0-.3-.07-.534-.211-.7-.134-.173-.323-.26-.566-.26a.665.665 0 00-.556.26c-.134.166-.201.4-.201.7v2.206c0 .3.067.537.201.71.134.166.32.249.556.249zm6.726 1.918V61h-4.134v-5.275h.777v4.546h1.112v-4.546h.672v4.546h1.112v-4.546h.777v4.546h.451v2.072h-.767zm3.809-1.247a2.29 2.29 0 01-1.093-.25 1.8 1.8 0 01-.719-.7 2.203 2.203 0 01-.25-1.064v-1.439c0-.409.084-.764.25-1.064a1.8 1.8 0 01.719-.7c.313-.166.678-.25 1.093-.25.416 0 .777.084 1.084.25.313.166.553.4.719.7.173.3.259.655.259 1.064v.93h-3.28v.509c0 .416.106.735.317.959.211.217.511.326.901.326.333 0 .601-.057.806-.173a.764.764 0 00.374-.537h.863a1.471 1.471 0 01-.652 1.055c-.371.256-.834.384-1.391.384zm1.218-3.098v-.355c0-.415-.105-.735-.316-.959-.205-.223-.505-.335-.902-.335-.39 0-.69.112-.901.335-.211.224-.317.544-.317.96v.278h2.503l-.067.076zM151.563 61v-5.275h3.788v.787h-2.925V61h-.863zm7.31.077c-.422 0-.786-.08-1.093-.24a1.744 1.744 0 01-.72-.69c-.166-.307-.249-.669-.249-1.084v-1.4c0-.422.083-.784.249-1.084.173-.3.413-.53.72-.69.307-.16.671-.24 1.093-.24.422 0 .786.08 1.093.24.307.16.544.39.71.69.173.3.259.658.259 1.074v1.41c0 .415-.086.777-.259 1.084-.166.3-.403.53-.71.69-.307.16-.671.24-1.093.24zm0-.767c.377 0 .671-.106.882-.317.211-.211.317-.521.317-.93v-1.4c0-.41-.106-.72-.317-.93-.211-.212-.505-.317-.882-.317-.371 0-.665.105-.882.316-.211.211-.317.521-.317.93v1.4c0 .41.106.72.317.931.217.211.511.316.882.316zM14.93 80v-5.275h.863v2.177h.902l1.534-2.177h.988l-1.774 2.513L19.246 80h-1.007l-1.535-2.35h-.91V80h-.864zm7.627.077c-.422 0-.787-.08-1.093-.24a1.741 1.741 0 01-.72-.69c-.166-.307-.249-.669-.249-1.084v-1.4c0-.422.083-.784.25-1.084.172-.3.412-.53.719-.69.306-.16.67-.24 1.093-.24.422 0 .786.08 1.093.24.307.16.544.39.71.69.172.3.259.659.259 1.074v1.41c0 .415-.087.777-.26 1.084-.165.3-.402.53-.709.69-.307.16-.671.24-1.093.24zm0-.767c.377 0 .671-.106.882-.317.211-.211.317-.521.317-.93v-1.4c0-.41-.106-.72-.317-.93-.21-.212-.505-.317-.882-.317-.37 0-.665.105-.882.316-.211.211-.317.521-.317.93v1.4c0 .41.106.72.317.931.217.211.511.317.882.317zm3.532.69v-5.275h1.17l.69 2.024c.07.205.134.41.192.614.057.198.099.351.125.46.025-.109.063-.262.115-.46.057-.205.118-.413.182-.624l.652-2.014h1.17V80h-.834v-.815c0-.288.003-.601.01-.94l.018-1.026.039-.978c.013-.314.022-.588.029-.825l-.94 3.002h-.911l-.95-2.983c.013.288.023.646.029 1.074.013.428.022.876.029 1.343.012.466.019.91.019 1.333V80h-.834zm5.68 0v-5.275h1.17l.69 2.024c.07.205.134.41.192.614.057.198.099.351.124.46.026-.109.064-.262.115-.46.058-.205.119-.413.183-.624l.652-2.014h1.17V80h-.835v-.815c0-.288.004-.601.01-.94l.02-1.026c.012-.345.025-.671.038-.978.012-.314.022-.588.028-.825l-.94 3.002h-.91l-.95-2.983c.013.288.022.646.029 1.074.013.428.022.876.029 1.343.012.466.019.91.019 1.333V80h-.835zm6.657 1.726l.777-2.052-1.956-4.949h.959l1.227 3.261c.045.109.087.24.125.393l.096.374c.025-.102.057-.227.096-.374.038-.153.077-.284.115-.393l1.15-3.26h.931l-2.599 7h-.92zM43.301 80v-5.275h.863v2.197h2.225v-2.197h.863V80h-.863v-2.292h-2.225V80H43.3zm5.68 0v-5.275h.824v2.878c0 .185-.006.38-.019.585-.006.204-.02.399-.038.584a6.14 6.14 0 01-.048.46l2.129-4.507h1.103V80h-.825v-2.877c0-.186.003-.38.01-.585.012-.205.028-.4.047-.585l.048-.47L50.083 80h-1.102zm5.708 0v-5.275h.863v2.177h.902l1.534-2.177h.988l-1.774 2.513L59.005 80h-1.007l-1.535-2.35h-.91V80h-.864zm7.166.096c-.556 0-.994-.14-1.313-.422-.32-.288-.48-.675-.48-1.16 0-.493.16-.88.48-1.16.32-.282.75-.423 1.294-.423h1.63v-.527c0-.326-.099-.576-.297-.748-.191-.18-.466-.269-.825-.269-.313 0-.575.067-.786.201a.716.716 0 00-.364.528h-.863a1.52 1.52 0 01.642-1.084c.37-.268.834-.403 1.39-.403.608 0 1.088.157 1.44.47.35.314.527.739.527 1.276V80h-.844v-1.007h-.144l.144-.144c0 .384-.15.688-.451.911-.294.224-.687.336-1.18.336zm.211-.681c.41 0 .745-.102 1.007-.307a.955.955 0 00.394-.786v-.748h-1.612c-.287 0-.514.08-.68.24-.167.16-.25.377-.25.652 0 .294.1.527.297.7.205.166.486.249.844.249zm7.704 1.928V80h-3.75v-5.275h.863v4.508h2.072v-4.508h.863v4.508h.719v2.11h-.767zM71.7 80v-5.275h.825v2.878c0 .185-.007.38-.02.585a8.035 8.035 0 01-.038.584 6.082 6.082 0 01-.048.46l2.13-4.507h1.102V80h-.825v-2.877c0-.186.003-.38.01-.585.013-.205.029-.4.048-.585l.048-.47L72.802 80H71.7zm8.48.096c-.441 0-.796-.15-1.065-.45-.268-.301-.402-.695-.402-1.18v-.796h-.844V80h-.796v-5.275h.796v2.254h.844v-.72c0-.492.13-.885.393-1.179.268-.3.627-.45 1.074-.45.473 0 .853.15 1.141.45.288.294.432.688.432 1.18v2.206c0 .486-.144.879-.432 1.18-.287.3-.668.45-1.141.45zm0-.671c.243 0 .432-.084.566-.25.14-.172.21-.409.21-.71V76.26c0-.3-.07-.534-.21-.7-.134-.173-.323-.26-.566-.26a.665.665 0 00-.556.26c-.134.166-.202.4-.202.7v2.206c0 .3.068.537.202.71.134.165.32.249.556.249zm10.554.67a2.45 2.45 0 01-1.112-.239 1.727 1.727 0 01-.73-.69c-.172-.307-.258-.668-.258-1.084v-1.439c0-.421.086-.783.259-1.083.172-.3.415-.53.729-.69.32-.16.69-.24 1.112-.24.608 0 1.097.163 1.467.489.371.326.566.77.585 1.333h-.863c-.019-.34-.134-.598-.345-.777-.205-.186-.486-.278-.844-.278-.377 0-.678.108-.901.326-.224.21-.336.514-.336.91v1.449c0 .396.112.703.336.92.223.218.524.327.901.327.358 0 .64-.093.844-.278.211-.186.326-.445.345-.777h.863c-.019.562-.214 1.007-.585 1.333-.37.326-.86.489-1.467.489zM14.902 99v-5.275h3.95V99h-.863v-4.488h-2.224V99H14.9zm5.66 1.726v-7h.863v1.006h.173l-.173.202c0-.403.131-.72.393-.95.269-.236.62-.355 1.055-.355.531 0 .953.176 1.266.528.32.345.48.822.48 1.429v1.544c0 .403-.074.751-.22 1.045a1.58 1.58 0 01-.605.681c-.256.16-.563.24-.92.24-.429 0-.777-.118-1.046-.355-.268-.237-.403-.553-.403-.95l.173.202h-.192l.02 1.199v1.534h-.864zm2.024-2.378c.364 0 .649-.109.853-.326.211-.218.317-.53.317-.94v-1.439c0-.409-.106-.722-.317-.94-.204-.217-.489-.326-.853-.326-.352 0-.633.112-.844.336-.211.224-.317.534-.317.93v1.439c0 .396.106.706.317.93.21.224.492.336.844.336zm5.65.748a2.3 2.3 0 01-1.093-.25 1.805 1.805 0 01-.719-.7 2.2 2.2 0 01-.25-1.064v-1.439c0-.409.084-.764.25-1.064.173-.3.413-.534.72-.7.313-.166.677-.25 1.093-.25.415 0 .777.084 1.083.25.314.166.553.4.72.7.172.3.259.655.259 1.064v.93h-3.28v.509c0 .416.105.735.316.959.211.217.512.326.902.326.332 0 .6-.058.805-.173.205-.121.33-.3.374-.537h.863a1.47 1.47 0 01-.652 1.055c-.37.256-.834.384-1.39.384zm1.219-3.098v-.355c0-.415-.106-.735-.317-.959-.204-.223-.505-.335-.901-.335-.39 0-.69.112-.902.335-.21.224-.316.544-.316.96v.278h2.503l-.067.076zM31.94 99v-5.275h3.951V99h-.863v-4.488h-2.225V99h-.863zm7.655.077c-.422 0-.786-.08-1.093-.24a1.74 1.74 0 01-.72-.69c-.165-.307-.248-.669-.248-1.084v-1.4c0-.422.083-.784.249-1.084.172-.3.412-.53.72-.69.306-.16.67-.24 1.092-.24.422 0 .787.08 1.094.24.307.16.543.39.71.69.172.3.258.659.258 1.074v1.41c0 .415-.086.777-.259 1.084-.166.3-.402.53-.71.69-.306.16-.67.24-1.093.24zm0-.767c.378 0 .672-.106.883-.317.21-.211.316-.521.316-.93v-1.4c0-.41-.105-.72-.316-.93-.211-.212-.505-.317-.883-.317-.37 0-.664.105-.882.316-.21.211-.316.521-.316.93v1.4c0 .41.105.72.316.931.218.211.512.317.882.317zm3.09 2.033v-2.081h.432c.11-.11.221-.323.336-.643.122-.32.185-.726.192-1.218l.057-2.676h3.443v4.537h.672v2.081h-.768V99h-3.596v1.343h-.767zm1.343-2.081h2.254v-3.77H44.52l-.039 1.928c-.006.505-.06.915-.163 1.228-.102.313-.198.518-.288.614zm6.467.834c-.556 0-.994-.14-1.314-.422-.32-.288-.48-.675-.48-1.16 0-.493.16-.88.48-1.16.32-.282.751-.423 1.295-.423h1.63v-.527c0-.326-.1-.576-.297-.748-.192-.18-.467-.269-.825-.269-.313 0-.576.067-.787.201a.717.717 0 00-.364.528h-.863c.057-.454.272-.815.642-1.084.371-.268.835-.403 1.391-.403.607 0 1.087.157 1.439.47.351.314.527.739.527 1.276V99h-.844v-1.007h-.144l.144-.144c0 .384-.15.688-.45.911-.295.224-.688.336-1.18.336zm.21-.681c.41 0 .746-.102 1.008-.307a.955.955 0 00.393-.786v-.748h-1.611c-.288 0-.515.08-.681.24-.166.16-.25.377-.25.652 0 .294.1.527.298.7.204.166.486.249.844.249zM54.66 99v-5.275h2.283c.55 0 .975.125 1.275.374.3.243.451.585.451 1.027 0 .364-.125.658-.374.882-.25.217-.579.326-.988.326v-.077c.448 0 .806.112 1.074.336.275.224.413.524.413.901 0 .474-.16.844-.48 1.113-.32.262-.767.393-1.342.393H54.66zm.844-.758h1.468c.306 0 .543-.067.71-.201.172-.134.258-.323.258-.566 0-.25-.086-.441-.259-.575-.166-.135-.403-.202-.71-.202h-1.467v1.544zm0-2.292h1.439c.268 0 .48-.064.633-.192.16-.127.24-.306.24-.536 0-.23-.077-.41-.23-.538-.154-.134-.368-.201-.643-.201h-1.439v1.467zm6.351 3.146c-.556 0-.994-.14-1.313-.422-.32-.288-.48-.675-.48-1.16 0-.493.16-.88.48-1.16.32-.282.75-.423 1.294-.423h1.63v-.527c0-.326-.099-.576-.297-.748-.191-.18-.466-.269-.825-.269-.313 0-.575.067-.786.201a.716.716 0 00-.364.528h-.863a1.52 1.52 0 01.642-1.084c.37-.268.834-.403 1.39-.403.608 0 1.088.157 1.44.47.35.314.527.739.527 1.276V99h-.844v-1.007h-.144l.144-.144c0 .384-.15.688-.451.911-.294.224-.687.336-1.18.336zm.211-.681c.41 0 .745-.102 1.007-.307a.955.955 0 00.394-.786v-.748h-1.612c-.287 0-.514.08-.68.24-.167.16-.25.377-.25.652 0 .294.1.527.297.7.205.166.486.249.844.249zm5.498.585v-4.517h-1.918v-.758h4.7v.758h-1.919V99h-.863zm6.111.096a2.3 2.3 0 01-1.093-.25 1.805 1.805 0 01-.72-.7 2.2 2.2 0 01-.248-1.064v-1.439c0-.409.083-.764.249-1.064.172-.3.412-.534.72-.7.312-.166.677-.25 1.092-.25.416 0 .777.084 1.084.25.313.166.553.4.72.7.172.3.258.655.258 1.064v.93h-3.28v.509c0 .416.106.735.317.959.21.217.511.326.901.326.333 0 .601-.058.806-.173.205-.121.33-.3.374-.537h.863a1.47 1.47 0 01-.652 1.055c-.37.256-.834.384-1.39.384zm1.218-3.098v-.355c0-.415-.105-.735-.316-.959-.205-.223-.505-.335-.902-.335-.39 0-.69.112-.901.335-.211.224-.317.544-.317.96v.278h2.504l-.068.076zm1.825 3.07v-.806h.173c.294 0 .498-.115.613-.346.122-.23.186-.642.192-1.237l.058-2.954h3.577V99h-.863v-4.488h-1.86l-.049 2.206c-.013.556-.076 1.007-.191 1.352-.11.345-.282.598-.518.757-.23.16-.534.24-.911.24h-.221zM82.733 99l1.353-2.033c-.403-.096-.716-.281-.94-.556-.218-.275-.326-.617-.326-1.026 0-.518.17-.924.508-1.218.345-.294.815-.442 1.41-.442h2.273V99h-.864v-1.966h-1.16L83.74 99h-1.007zm2.005-2.733h1.41v-1.774h-1.41c-.32 0-.572.08-.758.24-.185.153-.278.37-.278.651 0 .275.093.493.278.653.186.153.438.23.758.23zM88.567 99v-5.275h1.17l.69 2.024c.07.205.134.41.192.614.058.198.1.351.125.46.025-.109.064-.262.115-.46.057-.205.118-.413.182-.624l.652-2.014h1.17V99h-.834v-.815c0-.288.003-.601.01-.94l.019-1.026c.012-.345.025-.671.038-.978.013-.314.022-.588.029-.825l-.94 3.002h-.911l-.95-2.983c.013.288.023.646.03 1.074.012.428.022.876.028 1.343.013.466.02.91.02 1.333V99h-.835zm5.852 0v-5.275h.825v2.878c0 .185-.007.38-.02.585a7.508 7.508 0 01-.038.584 6.082 6.082 0 01-.048.46l2.13-4.507h1.102V99h-.824v-2.877c0-.186.003-.38.01-.585.012-.205.028-.4.047-.585l.048-.47L95.522 99H94.42zm6.361 1.534l.767-2.982h1.247l-1.247 2.982h-.767zM14.901 119v-5.275h3.952V119h-.864v-4.488h-2.224V119H14.9zm5.661 1.726v-7.001h.863v1.007h.173l-.173.202c0-.403.131-.719.393-.95.269-.236.62-.354 1.055-.354.531 0 .953.175 1.266.527.32.345.48.822.48 1.429v1.544c0 .403-.074.751-.22 1.045a1.57 1.57 0 01-.605.681c-.256.16-.563.24-.92.24-.429 0-.777-.118-1.046-.355-.268-.236-.403-.553-.403-.949l.173.201h-.192l.02 1.199v1.534h-.864zm2.024-2.378c.364 0 .649-.109.853-.326.211-.218.317-.531.317-.94v-1.439c0-.409-.106-.722-.317-.939-.204-.218-.489-.326-.853-.326-.352 0-.633.111-.844.335-.211.224-.317.534-.317.93v1.439c0 .396.106.706.317.93.21.224.492.336.844.336zm5.65.748c-.415 0-.78-.083-1.093-.249a1.809 1.809 0 01-.719-.701 2.195 2.195 0 01-.25-1.064v-1.439c0-.409.084-.764.25-1.064a1.8 1.8 0 01.72-.7 2.301 2.301 0 011.093-.249c.415 0 .777.083 1.083.249.314.166.553.399.72.7.172.3.259.655.259 1.064v.931h-3.28v.508c0 .416.105.735.316.959.211.217.512.326.902.326.332 0 .6-.057.805-.173a.76.76 0 00.374-.537h.863a1.467 1.467 0 01-.652 1.055c-.37.256-.834.384-1.39.384zm1.219-3.098v-.355c0-.415-.106-.735-.317-.959-.204-.223-.505-.335-.901-.335-.39 0-.69.112-.902.335-.21.224-.316.544-.316.959v.279h2.503l-.067.076zm1.872 4.345v-2.081h.432c.108-.109.22-.323.335-.643.122-.32.186-.726.192-1.218l.058-2.676h3.443v4.537h.671v2.081h-.767V119h-3.597v1.343h-.767zm1.343-2.081h2.253v-3.769H33.16l-.038 1.927c-.007.505-.061.915-.163 1.228-.103.313-.199.518-.288.614zm6.926.815c-.422 0-.786-.08-1.093-.24a1.74 1.74 0 01-.72-.691c-.165-.306-.248-.668-.248-1.083v-1.4c0-.422.083-.784.249-1.084a1.74 1.74 0 01.72-.691c.306-.159.67-.239 1.092-.239.422 0 .787.08 1.094.239.307.16.543.39.71.691.172.3.258.658.258 1.074v1.41c0 .415-.086.777-.259 1.083a1.68 1.68 0 01-.71.691c-.306.16-.67.24-1.093.24zm0-.767c.378 0 .672-.106.883-.317.21-.211.316-.521.316-.93v-1.4c0-.41-.105-.72-.316-.931-.211-.211-.505-.316-.883-.316-.37 0-.664.105-.882.316-.21.211-.316.521-.316.931v1.4c0 .409.105.719.316.93.218.211.512.317.882.317zm5.7.786c-.423 0-.793-.08-1.113-.24a1.73 1.73 0 01-.729-.69c-.172-.307-.259-.668-.259-1.084v-1.439c0-.422.087-.783.26-1.083.172-.301.415-.531.728-.691.32-.16.69-.239 1.112-.239.608 0 1.097.163 1.468.489.37.326.566.77.585 1.333h-.863c-.02-.339-.135-.598-.346-.777-.204-.186-.486-.278-.844-.278-.377 0-.677.108-.901.326-.224.211-.336.514-.336.911v1.448c0 .396.112.703.336.921.224.217.524.326.901.326.358 0 .64-.093.844-.278.211-.186.326-.445.346-.777h.863c-.02.562-.215 1.007-.585 1.333-.371.326-.86.489-1.468.489zm5.229-.096v-4.517h-1.919v-.758h4.7v.758h-1.918V119h-.863zm5.65.096c-.556 0-.994-.141-1.313-.422-.32-.288-.48-.675-.48-1.16 0-.493.16-.88.48-1.161.32-.281.751-.422 1.294-.422h1.63v-.527c0-.326-.098-.576-.297-.748-.191-.179-.466-.269-.824-.269-.314 0-.576.067-.787.202a.713.713 0 00-.364.527h-.863a1.52 1.52 0 01.642-1.084c.371-.268.835-.402 1.39-.402.608 0 1.088.156 1.44.469.351.314.527.739.527 1.276V119h-.844v-1.007h-.144l.144-.144c0 .384-.15.687-.45.911-.295.224-.688.336-1.18.336zm.212-.681c.409 0 .744-.102 1.007-.307a.954.954 0 00.393-.786v-.748h-1.611c-.288 0-.515.08-.681.239-.167.16-.25.378-.25.653 0 .294.1.527.298.7.204.166.486.249.844.249zm3.953.585v-5.275h2.283c.55 0 .975.125 1.275.374.3.243.45.585.45 1.027 0 .364-.124.658-.373.882-.25.217-.579.326-.988.326v-.077c.448 0 .806.112 1.074.336.275.224.412.524.412.901 0 .473-.16.844-.479 1.113-.32.262-.767.393-1.343.393h-2.31zm.844-.758h1.467c.307 0 .544-.067.71-.201.173-.134.259-.323.259-.566 0-.249-.086-.441-.259-.575-.166-.135-.403-.202-.71-.202h-1.467v1.544zm0-2.292h1.439c.268 0 .48-.064.633-.191.16-.128.24-.307.24-.538 0-.23-.077-.409-.23-.537-.154-.134-.368-.201-.643-.201h-1.439v1.467zm4.174 3.117v-.805h.173c.294 0 .499-.116.614-.346.121-.23.185-.642.192-1.237l.057-2.954h3.577V119h-.863v-4.488h-1.86l-.048 2.206c-.013.556-.077 1.007-.192 1.352-.109.345-.281.598-.518.757-.23.16-.534.24-.911.24h-.22zm6.016-.067l1.352-2.033c-.403-.096-.716-.281-.94-.556-.217-.275-.326-.617-.326-1.026 0-.518.17-.924.508-1.218.346-.295.816-.442 1.41-.442h2.273V119h-.863v-1.966h-1.16L72.38 119h-1.007zm2.004-2.733h1.41v-1.774h-1.41c-.32 0-.572.08-.757.239-.186.154-.279.371-.279.653 0 .274.093.492.279.652.185.153.437.23.757.23zM77.054 119l1.352-2.033c-.403-.096-.716-.281-.94-.556-.217-.275-.326-.617-.326-1.026 0-.518.17-.924.508-1.218.345-.295.815-.442 1.41-.442h2.273V119h-.863v-1.966h-1.16L78.06 119h-1.007zm2.004-2.733h1.41v-1.774h-1.41c-.32 0-.572.08-.758.239-.185.154-.278.371-.278.653 0 .274.093.492.278.652.186.153.438.23.758.23zM88.739 119v-5.275h.825v2.877c0 .186-.006.381-.02.585-.005.205-.018.4-.037.585a6.11 6.11 0 01-.048.461l2.129-4.508h1.103V119h-.825v-2.877c0-.185.003-.38.01-.585.012-.205.028-.4.047-.585l.048-.47L89.842 119H88.74zm5.508 0v-5.275h1.17l.69 2.024c.07.205.134.409.192.614.057.198.099.351.124.46.026-.109.064-.262.116-.46.057-.205.118-.413.182-.624l.652-2.014h1.17V119h-.834v-.815c0-.288.003-.601.01-.94l.018-1.026.039-.978c.013-.314.022-.589.029-.825l-.94 3.002h-.911l-.95-2.983c.013.288.023.646.029 1.074.013.429.022.876.029 1.343.013.467.019.911.019 1.333V119h-.834zm13.047.096c-.556 0-.994-.141-1.314-.422-.319-.288-.479-.675-.479-1.16 0-.493.16-.88.479-1.161.32-.281.751-.422 1.295-.422h1.63v-.527c0-.326-.099-.576-.297-.748-.192-.179-.467-.269-.825-.269-.313 0-.575.067-.786.202a.714.714 0 00-.365.527h-.863c.058-.454.272-.815.643-1.084.371-.268.834-.402 1.39-.402.608 0 1.087.156 1.439.469.352.314.527.739.527 1.276V119h-.844v-1.007h-.143l.143-.144c0 .384-.15.687-.45.911-.294.224-.688.336-1.18.336zm.211-.681c.409 0 .745-.102 1.007-.307a.954.954 0 00.393-.786v-.748h-1.611c-.288 0-.515.08-.681.239-.166.16-.249.378-.249.653 0 .294.099.527.297.7.205.166.486.249.844.249zm3.982.585v-5.275h.864v2.177h.901l1.534-2.177h.988L114 116.238l1.803 2.762h-1.007l-1.534-2.35h-.911V119h-.864zm7.196 0v-4.517h-1.918v-.758h4.699v.758h-1.918V119h-.863zm4.941 1.726l.777-2.052-1.957-4.949h.959l1.228 3.261c.045.109.086.24.125.393l.095.374.096-.374c.039-.153.077-.284.115-.393l1.151-3.261h.931l-2.599 7.001h-.921zm6.389-1.63c-.556 0-.994-.141-1.313-.422-.32-.288-.48-.675-.48-1.16 0-.493.16-.88.48-1.161.319-.281.751-.422 1.294-.422h1.631v-.527c0-.326-.099-.576-.298-.748-.191-.179-.466-.269-.824-.269-.314 0-.576.067-.787.202a.713.713 0 00-.364.527h-.863a1.52 1.52 0 01.642-1.084c.371-.268.835-.402 1.391-.402.607 0 1.087.156 1.438.469.352.314.528.739.528 1.276V119h-.844v-1.007h-.144l.144-.144c0 .384-.15.687-.451.911-.294.224-.687.336-1.18.336zm.211-.681c.41 0 .745-.102 1.007-.307a.953.953 0 00.394-.786v-.748h-1.612c-.287 0-.514.08-.68.239-.167.16-.25.378-.25.653 0 .294.099.527.298.7.204.166.485.249.843.249zm3.292.652v-.805h.173c.294 0 .499-.116.614-.346.121-.23.185-.642.192-1.237l.057-2.954h3.577V119h-.863v-4.488h-1.86l-.048 2.206c-.013.556-.077 1.007-.192 1.352-.109.345-.281.598-.518.757-.23.16-.534.24-.911.24h-.221zm6.38-.067v-5.275h.863v1.938h1.554c.595 0 1.061.15 1.4.45.345.294.518.7.518 1.218 0 .512-.173.918-.518 1.218-.345.301-.812.451-1.4.451h-2.417zm.863-.786h1.554c.332 0 .585-.074.758-.221.179-.153.268-.374.268-.662 0-.287-.089-.505-.268-.652-.173-.153-.426-.23-.758-.23h-1.554v1.765zm4.779.786v-5.275h.863v2.197h2.225v-2.197h.863V119h-.863v-2.292h-2.225V119h-.863zm6.485 1.726l.777-2.052-1.956-4.949h.959l1.227 3.261c.045.109.086.24.125.393l.096.374c.025-.102.057-.227.096-.374.038-.153.076-.284.115-.393l1.15-3.261h.931l-2.599 7.001h-.921zm7.675-1.63c-.441 0-.796-.15-1.065-.451-.268-.3-.403-.694-.403-1.179v-.796h-.844V119h-.795v-5.275h.795v2.254h.844v-.719c0-.492.131-.886.394-1.18.268-.3.626-.45 1.074-.45.473 0 .853.15 1.141.45.288.294.432.688.432 1.18v2.206c0 .485-.144.879-.432 1.179-.288.301-.668.451-1.141.451zm0-.671c.243 0 .431-.084.566-.25.14-.172.211-.409.211-.709v-2.206c0-.301-.071-.534-.211-.7-.135-.173-.323-.259-.566-.259a.666.666 0 00-.557.259c-.134.166-.201.399-.201.7v2.206c0 .3.067.537.201.709.135.166.32.25.557.25zM14.901 138v-5.275h.825v2.877a9.2 9.2 0 01-.019.585c-.006.205-.02.4-.038.585a6.11 6.11 0 01-.048.461l2.129-4.508h1.103V138h-.825v-2.877c0-.185.003-.38.01-.585.012-.205.028-.4.047-.585l.048-.47L16.004 138h-1.103zm5.68 0v-5.275h.863v2.197h2.225v-2.197h.863V138h-.863v-2.292h-2.225V138h-.863zm7.272 1.726V138c-.614 0-1.096-.173-1.448-.518-.352-.345-.527-.818-.527-1.419v-1.42c0-.594.175-1.061.527-1.4.358-.345.84-.518 1.448-.518v-1.726h.767v1.726c.614 0 1.097.173 1.448.518.352.339.528.806.528 1.4v1.42c0 .601-.176 1.074-.528 1.419-.351.345-.834.518-1.448.518v1.726h-.767zm.02-2.407v-3.913c-.372 0-.662.109-.873.326-.211.218-.317.521-.317.911v1.42c0 .39.106.697.317.92.21.224.502.336.872.336zm.728 0c.377 0 .668-.112.873-.336.21-.223.316-.53.316-.92v-1.42c0-.39-.105-.693-.316-.911-.205-.217-.496-.326-.873-.326v3.913zm5.316.758c-.422 0-.787-.08-1.094-.24a1.74 1.74 0 01-.719-.691c-.166-.306-.25-.668-.25-1.083v-1.4c0-.422.084-.784.25-1.084a1.74 1.74 0 01.72-.691c.306-.159.67-.239 1.093-.239.422 0 .786.08 1.093.239.307.16.543.39.71.691.172.3.258.658.258 1.074v1.41c0 .415-.086.777-.259 1.083a1.68 1.68 0 01-.71.691c-.306.16-.67.24-1.092.24zm0-.767c.377 0 .67-.106.882-.317.21-.211.316-.521.316-.93v-1.4c0-.41-.105-.72-.316-.931-.211-.211-.505-.316-.882-.316-.371 0-.665.105-.883.316-.21.211-.316.521-.316.931v1.4c0 .409.105.719.316.93.218.211.512.317.883.317zm3.685 2.416v-7.001h.863v1.007h.172l-.172.202c0-.403.13-.719.393-.95.269-.236.62-.354 1.055-.354.53 0 .953.175 1.266.527.32.345.48.822.48 1.429v1.544c0 .403-.074.751-.221 1.045a1.57 1.57 0 01-.605.681c-.255.16-.562.24-.92.24-.428 0-.777-.118-1.045-.355-.269-.236-.403-.553-.403-.949l.172.201h-.191l.019 1.199v1.534h-.863zm2.023-2.378c.365 0 .65-.109.854-.326.21-.218.316-.531.316-.94v-1.439c0-.409-.105-.722-.316-.939-.205-.218-.49-.326-.854-.326-.352 0-.633.111-.844.335-.21.224-.316.534-.316.93v1.439c0 .396.105.706.316.93.211.224.492.336.844.336zm3.503.652v-5.275h1.17l.69 2.024c.07.205.135.409.192.614.058.198.1.351.125.46a22.7 22.7 0 01.115-.46c.058-.205.118-.413.182-.624l.652-2.014h1.17V138h-.834v-.815c0-.288.003-.601.01-.94l.019-1.026c.013-.345.025-.671.038-.978.013-.314.023-.589.029-.825l-.94 3.002h-.91l-.95-2.983c.012.288.022.646.028 1.074.013.429.023.876.03 1.343.012.467.018.911.018 1.333V138h-.834zm7.368.096c-.556 0-.994-.141-1.314-.422-.32-.288-.48-.675-.48-1.16 0-.493.16-.88.48-1.161.32-.281.751-.422 1.295-.422h1.63v-.527c0-.326-.1-.576-.297-.748-.192-.179-.467-.269-.825-.269-.313 0-.576.067-.787.202a.714.714 0 00-.364.527h-.863c.057-.454.272-.815.642-1.084.371-.268.835-.402 1.391-.402.607 0 1.087.156 1.439.469.351.314.527.739.527 1.276V138h-.844v-1.007h-.144l.144-.144c0 .384-.15.687-.45.911-.295.224-.688.336-1.18.336zm.21-.681c.41 0 .746-.102 1.008-.307a.954.954 0 00.393-.786v-.748h-1.611c-.288 0-.515.08-.681.239-.166.16-.25.378-.25.653 0 .294.1.527.298.7.204.166.486.249.844.249zm7.704 1.928V138h-3.75v-5.275h.863v4.508h2.072v-4.508h.863v4.508h.72v2.11h-.768zM60.34 138v-5.275h.825v2.877c0 .186-.007.381-.02.585-.006.205-.018.4-.038.585a6.11 6.11 0 01-.048.461l2.13-4.508h1.102V138h-.824v-2.877c0-.185.003-.38.01-.585.012-.205.028-.4.047-.585l.048-.47L61.443 138H60.34zm8.48.096c-.44 0-.796-.15-1.064-.451-.269-.3-.403-.694-.403-1.179v-.796h-.844V138h-.796v-5.275h.796v2.254h.844v-.719c0-.492.131-.886.393-1.18.269-.3.627-.45 1.074-.45.473 0 .854.15 1.142.45.287.294.431.688.431 1.18v2.206c0 .485-.144.879-.431 1.179-.288.301-.669.451-1.142.451zm0-.671c.243 0 .432-.084.566-.25.14-.172.211-.409.211-.709v-2.206c0-.301-.07-.534-.21-.7-.135-.173-.324-.259-.567-.259a.665.665 0 00-.556.259c-.134.166-.201.399-.201.7v2.206c0 .3.067.537.201.709.134.166.32.25.556.25zm10.535.652c-.422 0-.786-.08-1.093-.24a1.74 1.74 0 01-.72-.691c-.166-.306-.249-.668-.249-1.083v-1.4c0-.422.083-.784.25-1.084a1.74 1.74 0 01.719-.691c.307-.159.671-.239 1.093-.239.422 0 .787.08 1.093.239.307.16.544.39.71.691.173.3.26.658.26 1.074v1.41c0 .415-.087.777-.26 1.083a1.68 1.68 0 01-.71.691c-.306.16-.67.24-1.093.24zm0-.767c.377 0 .672-.106.882-.317.212-.211.317-.521.317-.93v-1.4c0-.41-.106-.72-.317-.931-.21-.211-.504-.316-.882-.316-.37 0-.665.105-.882.316-.211.211-.317.521-.317.931v1.4c0 .409.106.719.317.93.217.211.511.317.882.317zm11.11.757c-.556 0-1.013-.118-1.37-.355a1.408 1.408 0 01-.634-.959h.911c.045.16.163.291.355.393.198.103.444.154.739.154h.45c.314 0 .556-.074.73-.221a.71.71 0 00.268-.575c0-.256-.087-.457-.26-.604-.165-.147-.412-.221-.738-.221h-1.16v-.748h1.132c.294 0 .517-.07.67-.211a.718.718 0 00.231-.556.727.727 0 00-.106-.403.604.604 0 00-.297-.249 1.231 1.231 0 00-.489-.087h-.48a1.23 1.23 0 00-.661.173c-.186.115-.297.256-.336.422h-.91c.063-.396.27-.722.622-.978s.78-.384 1.286-.384h.48c.376 0 .7.061.968.182.268.116.473.282.614.499.147.218.22.476.22.777 0 .313-.102.572-.307.777-.204.198-.492.31-.863.335v.039c.454.032.783.153.988.364.204.211.307.515.307.911 0 .467-.173.838-.518 1.113-.345.275-.809.412-1.39.412h-.451zm5.47.029c-.557 0-.995-.141-1.314-.422-.32-.288-.48-.675-.48-1.16 0-.493.16-.88.48-1.161.32-.281.75-.422 1.294-.422h1.63v-.527c0-.326-.099-.576-.297-.748-.192-.179-.466-.269-.825-.269-.313 0-.575.067-.786.202a.714.714 0 00-.364.527h-.863a1.52 1.52 0 01.642-1.084c.371-.268.834-.402 1.39-.402.608 0 1.088.156 1.44.469.35.314.527.739.527 1.276V138h-.844v-1.007h-.144l.144-.144c0 .384-.15.687-.451.911-.294.224-.687.336-1.18.336zm.21-.681c.41 0 .745-.102 1.007-.307a.954.954 0 00.394-.786v-.748h-1.612c-.287 0-.514.08-.68.239-.167.16-.25.378-.25.653 0 .294.1.527.297.7.205.166.486.249.844.249zm3.954.585v-5.275h.863v2.197h2.225v-2.197h.863V138h-.863v-2.292h-2.225V138h-.863zm5.354 0l1.352-2.033c-.403-.096-.716-.281-.94-.556-.217-.275-.326-.617-.326-1.026 0-.518.17-.924.508-1.218.346-.295.816-.442 1.41-.442h2.273V138h-.863v-1.966h-1.161L106.46 138h-1.007zm2.004-2.733h1.41v-1.774h-1.41c-.32 0-.572.08-.757.239-.186.154-.279.371-.279.653 0 .274.093.492.279.652.185.153.437.23.757.23zm5.546 2.733v-4.517h-1.918v-.758h4.699v.758h-1.918V138h-.863zm4.136 0v-5.275h.824v2.877a9.2 9.2 0 01-.019.585c-.006.205-.019.4-.038.585a6.326 6.326 0 01-.048.461l2.129-4.508h1.103V138h-.825v-2.877c0-.185.003-.38.01-.585.012-.205.028-.4.047-.585l.048-.47-2.129 4.517h-1.102zm5.353 0l1.353-2.033c-.403-.096-.717-.281-.94-.556-.218-.275-.326-.617-.326-1.026 0-.518.169-.924.508-1.218.345-.295.815-.442 1.41-.442h2.273V138h-.864v-1.966h-1.16L123.499 138h-1.007zm2.005-2.733h1.409v-1.774h-1.409c-.32 0-.573.08-.758.239-.185.154-.278.371-.278.653 0 .274.093.492.278.652.185.153.438.23.758.23zm3.579 2.733l1.87-2.714-1.755-2.561h1.017l1.045 1.631c.045.07.087.147.125.23.045.083.08.15.105.201a3.33 3.33 0 01.087-.201c.044-.083.089-.16.134-.23l1.055-1.631h1.007l-1.755 2.571 1.86 2.704h-1.016l-1.132-1.726a2.715 2.715 0 01-.134-.24 1.943 1.943 0 00-.106-.23 3.723 3.723 0 01-.115.23c-.044.09-.092.169-.144.24L129.083 138h-1.007zM14.902 157v-5.275h.824v2.877a9.2 9.2 0 01-.019.585c-.006.205-.02.4-.038.585a6.11 6.11 0 01-.048.461l2.129-4.508h1.103V157h-.825v-2.877c0-.185.003-.38.01-.585.012-.205.028-.4.047-.585l.048-.47L16.004 157h-1.103zm11.36 0v-5.275h.824v2.877c0 .186-.006.381-.02.585-.006.205-.018.4-.038.585a6.11 6.11 0 01-.048.461l2.13-4.508h1.102V157h-.825v-2.877c0-.185.004-.38.01-.585.013-.205.029-.4.048-.585l.048-.47L27.364 157h-1.103zm7.405.067c-.556 0-1.013-.118-1.371-.355a1.408 1.408 0 01-.633-.959h.91c.046.16.164.291.356.393.198.103.444.154.738.154h.451c.313 0 .556-.074.729-.221a.71.71 0 00.268-.575c0-.256-.086-.457-.259-.604-.166-.147-.412-.221-.738-.221h-1.16v-.748h1.131c.294 0 .518-.07.672-.211a.718.718 0 00.23-.556.728.728 0 00-.106-.403.605.605 0 00-.297-.249 1.231 1.231 0 00-.49-.087h-.479a1.23 1.23 0 00-.661.173c-.186.115-.298.256-.336.422h-.911c.064-.396.272-.722.623-.978.352-.256.78-.384 1.285-.384h.48c.377 0 .7.061.968.182.269.116.474.282.614.499.147.218.22.476.22.777 0 .313-.102.572-.306.777-.205.198-.492.31-.863.335v.039c.454.032.783.153.987.364.205.211.307.515.307.911 0 .467-.172.838-.518 1.113-.345.275-.808.412-1.39.412h-.45zm3.781-.067v-5.275h1.17l.69 2.024c.071.205.135.409.193.614.057.198.099.351.124.46.026-.109.064-.262.115-.46.058-.205.118-.413.182-.624l.653-2.014h1.17V157h-.835v-.815c0-.288.003-.601.01-.94l.019-1.026.038-.978c.013-.314.023-.589.03-.825l-.94 3.002h-.912l-.95-2.983c.014.288.023.646.03 1.074.012.429.022.876.028 1.343.013.467.02.911.02 1.333V157h-.835zm7.828.096c-.415 0-.78-.083-1.093-.249a1.808 1.808 0 01-.72-.701 2.195 2.195 0 01-.249-1.064v-1.439c0-.409.084-.764.25-1.064a1.8 1.8 0 01.719-.7 2.301 2.301 0 011.093-.249c.416 0 .777.083 1.084.249.313.166.553.399.72.7.172.3.258.655.258 1.064v.931h-3.28v.508c0 .416.106.735.317.959.21.217.511.326.901.326.333 0 .601-.057.806-.173a.76.76 0 00.374-.537h.863a1.467 1.467 0 01-.652 1.055c-.371.256-.834.384-1.39.384zm1.218-3.098v-.355c0-.415-.105-.735-.316-.959-.205-.223-.505-.335-.902-.335-.39 0-.69.112-.901.335-.211.224-.317.544-.317.959v.279h2.503l-.067.076zM48.98 157v-5.275h.864v2.197h2.224v-2.197h.864V157h-.864v-2.292h-2.224V157h-.864zm7.656.096c-.416 0-.78-.083-1.093-.249a1.808 1.808 0 01-.72-.701 2.194 2.194 0 01-.249-1.064v-1.439c0-.409.083-.764.25-1.064.172-.301.412-.534.719-.7a2.301 2.301 0 011.093-.249c.415 0 .777.083 1.084.249.313.166.553.399.719.7.172.3.259.655.259 1.064v.931h-3.28v.508c0 .416.105.735.316.959.211.217.512.326.902.326.332 0 .6-.057.805-.173a.76.76 0 00.374-.537h.864a1.467 1.467 0 01-.653 1.055c-.37.256-.834.384-1.39.384zm1.218-3.098v-.355c0-.415-.106-.735-.317-.959-.204-.223-.505-.335-.901-.335-.39 0-.69.112-.902.335-.21.224-.316.544-.316.959v.279h2.503l-.067.076zM60.34 157v-5.275h.863v2.197h2.225v-2.197h.863V157h-.863v-2.292h-2.225V157h-.863zm5.68 0v-5.275h.825v2.877c0 .186-.007.381-.02.585-.006.205-.019.4-.038.585a6.168 6.168 0 01-.048.461l2.13-4.508h1.102V157h-.825v-2.877c0-.185.004-.38.01-.585.013-.205.029-.4.048-.585l.048-.47-2.13 4.517H66.02zm5.354 0l1.352-2.033c-.403-.096-.716-.281-.94-.556-.217-.275-.326-.617-.326-1.026 0-.518.17-.924.508-1.218.346-.295.816-.442 1.41-.442h2.273V157h-.863v-1.966h-1.16L72.38 157h-1.007zm2.004-2.733h1.41v-1.774h-1.41c-.32 0-.572.08-.757.239-.186.154-.279.371-.279.653 0 .274.093.492.279.652.185.153.437.23.757.23zm3.58 2.733l1.87-2.714-1.755-2.561h1.016l1.046 1.631c.044.07.086.147.124.23.045.083.08.15.106.201a3.14 3.14 0 01.086-.201c.045-.083.09-.16.134-.23l1.055-1.631h1.007l-1.755 2.571 1.86 2.704h-1.016l-1.131-1.726a2.714 2.714 0 01-.135-.24 2.002 2.002 0 00-.105-.23 3.967 3.967 0 01-.26.47L77.966 157h-1.007zm8.077.096c-.243 0-.438-.07-.585-.211-.14-.141-.21-.329-.21-.566 0-.249.07-.447.21-.594.147-.148.342-.221.585-.221.243 0 .435.073.576.221.146.147.22.345.22.594 0 .237-.074.425-.22.566-.141.141-.333.211-.576.211zM14.902 23v-7h3.893v.786h-3.03v2.11h1.16c.447 0 .831.086 1.15.258.32.167.567.403.74.71.178.307.268.668.268 1.084 0 .415-.09.776-.269 1.083a1.82 1.82 0 01-.738.72c-.32.166-.704.249-1.151.249h-2.024zm.863-.786h1.16c.396 0 .706-.112.93-.336.224-.23.336-.54.336-.93 0-.397-.112-.707-.336-.93-.224-.224-.534-.336-.93-.336h-1.16v2.532zm6.792.863c-.422 0-.787-.08-1.093-.24a1.741 1.741 0 01-.72-.69c-.166-.307-.249-.669-.249-1.084v-1.4c0-.422.083-.784.25-1.084.172-.3.412-.53.719-.69.306-.16.67-.24 1.093-.24.422 0 .786.08 1.093.24.307.16.544.39.71.69.172.3.259.659.259 1.074v1.41c0 .415-.087.777-.26 1.084-.165.3-.402.53-.709.69-.307.16-.671.24-1.093.24zm0-.768c.377 0 .671-.105.882-.316.211-.211.317-.521.317-.93v-1.4c0-.41-.106-.72-.317-.93-.21-.212-.505-.317-.882-.317-.37 0-.665.105-.882.316-.211.211-.317.521-.317.93v1.4c0 .41.106.72.317.931.217.211.511.317.882.317zm5.248.691v-4.517h-1.918v-.758h4.7v.758h-1.919V23h-.863zm9.202 1.343v-2.081h.432c.108-.11.22-.323.335-.643.122-.32.186-.726.192-1.218l.058-2.676h3.443v4.537h.67v2.08h-.766V23h-3.597v1.343h-.767zm1.343-2.081h2.253v-3.77H38.84l-.04 1.928c-.006.505-.06.914-.163 1.228-.102.313-.198.518-.287.614zm4.289.805v-.805h.173c.294 0 .498-.116.613-.346.122-.23.186-.642.192-1.237l.058-2.954h3.577V23h-.863v-4.488h-1.86l-.049 2.206c-.012.556-.076 1.006-.192 1.352-.108.345-.28.598-.517.757-.23.16-.534.24-.912.24h-.22zM48.654 23l1.353-2.033c-.403-.096-.716-.281-.94-.556-.218-.275-.326-.617-.326-1.027 0-.517.17-.923.508-1.217.345-.295.815-.442 1.41-.442h2.273V23h-.864v-1.966h-1.16L49.661 23h-1.007zm2.005-2.733h1.41v-1.774h-1.41c-.32 0-.572.08-.758.24-.185.153-.278.37-.278.651 0 .275.093.493.278.653.186.153.438.23.758.23zM60.34 23v-5.275h3.951V23h-.863v-4.488h-2.225V23h-.863zM66 24.726v-7h.864v1.006h.173l-.173.202c0-.403.131-.72.393-.95.269-.236.62-.355 1.055-.355.53 0 .953.176 1.266.528.32.345.48.822.48 1.429v1.544c0 .403-.074.751-.221 1.045-.14.294-.342.521-.604.681-.256.16-.563.24-.92.24-.43 0-.778-.118-1.046-.355-.269-.236-.403-.553-.403-.95l.173.202h-.192l.019 1.199v1.534H66zm2.024-2.378c.365 0 .65-.109.854-.326.21-.218.316-.53.316-.94v-1.439c0-.409-.105-.722-.316-.94-.205-.217-.49-.325-.854-.325-.351 0-.633.111-.844.335-.21.224-.316.534-.316.93v1.439c0 .396.105.706.316.93.211.224.493.336.844.336zm5.651.748a2.3 2.3 0 01-1.093-.25 1.805 1.805 0 01-.72-.7 2.2 2.2 0 01-.248-1.064v-1.439c0-.409.083-.764.249-1.064.172-.3.412-.534.72-.7.312-.166.677-.25 1.092-.25.416 0 .777.084 1.084.25.313.166.553.4.72.7.172.3.258.655.258 1.064v.93h-3.28v.509c0 .415.106.735.317.959.21.217.511.326.901.326.333 0 .601-.058.806-.173.205-.121.33-.3.374-.537h.863a1.47 1.47 0 01-.652 1.055c-.37.256-.834.384-1.39.384zm1.218-3.098v-.355c0-.415-.105-.735-.316-.959-.205-.223-.505-.335-.902-.335-.39 0-.69.112-.901.335-.211.224-.317.544-.317.96v.278h2.504l-.068.076zM77.38 23v-5.275h3.95V23h-.862v-4.488h-2.225V23h-.863zm7.655.077c-.422 0-.786-.08-1.093-.24a1.741 1.741 0 01-.72-.69c-.166-.307-.249-.669-.249-1.084v-1.4c0-.422.083-.784.25-1.084.172-.3.412-.53.719-.69.307-.16.671-.24 1.093-.24.422 0 .787.08 1.093.24.307.16.544.39.71.69.173.3.259.659.259 1.074v1.41c0 .415-.086.777-.259 1.084-.166.3-.403.53-.71.69-.306.16-.67.24-1.093.24zm0-.768c.377 0 .671-.105.882-.316.211-.211.317-.521.317-.93v-1.4c0-.41-.106-.72-.317-.93-.21-.212-.505-.317-.882-.317-.37 0-.665.105-.882.316-.211.211-.317.521-.317.93v1.4c0 .41.106.72.317.931.217.211.511.317.882.317zm3.09 2.034v-2.081h.432c.109-.11.22-.323.336-.643.121-.32.185-.726.192-1.218l.057-2.676h3.443v4.537h.671v2.08h-.767V23h-3.596v1.343h-.767zm1.343-2.081h2.254v-3.77h-1.765l-.038 1.928c-.007.505-.06.914-.163 1.228-.102.313-.198.518-.288.614zm6.466.834c-.556 0-.994-.14-1.313-.422-.32-.288-.48-.675-.48-1.16 0-.493.16-.88.48-1.16.32-.282.75-.423 1.294-.423h1.63v-.527c0-.326-.099-.576-.297-.748-.192-.18-.466-.269-.825-.269-.313 0-.575.067-.786.201a.717.717 0 00-.364.528h-.863a1.52 1.52 0 01.642-1.084c.371-.268.834-.402 1.39-.402.608 0 1.088.156 1.44.47.35.313.527.738.527 1.275V23h-.844v-1.007h-.144l.144-.144c0 .384-.15.688-.451.911-.294.224-.687.336-1.18.336zm.211-.681c.41 0 .745-.102 1.007-.307a.955.955 0 00.394-.786v-.748h-1.612c-.287 0-.514.08-.68.24-.167.16-.25.377-.25.652 0 .294.1.527.297.7.205.166.486.249.844.249zM100.1 23v-5.275h2.282c.55 0 .975.125 1.276.374.3.243.451.585.451 1.027 0 .364-.125.658-.374.882-.25.217-.579.326-.988.326v-.077c.447 0 .805.112 1.074.336.275.224.412.524.412.901 0 .474-.159.844-.479 1.113-.32.262-.767.393-1.343.393H100.1zm.844-.758h1.467c.307 0 .544-.067.71-.201.173-.134.259-.323.259-.566 0-.25-.086-.441-.259-.575-.166-.134-.403-.202-.71-.202h-1.467v1.544zm0-2.292h1.438c.269 0 .48-.064.633-.191.16-.128.24-.307.24-.538 0-.23-.077-.409-.23-.537-.153-.134-.368-.201-.643-.201h-1.438v1.467zm6.351 3.146c-.556 0-.994-.14-1.314-.422-.319-.288-.479-.675-.479-1.16 0-.493.16-.88.479-1.16.32-.282.751-.423 1.295-.423h1.63v-.527c0-.326-.099-.576-.297-.748-.192-.18-.467-.269-.825-.269-.313 0-.575.067-.786.201a.717.717 0 00-.365.528h-.863c.058-.454.272-.815.643-1.084.371-.268.834-.402 1.39-.402.608 0 1.087.156 1.439.47.352.313.527.738.527 1.275V23h-.844v-1.007h-.143l.143-.144c0 .384-.15.688-.45.911-.294.224-.688.336-1.18.336zm.211-.681c.409 0 .745-.102 1.007-.307a.955.955 0 00.393-.786v-.748h-1.611c-.288 0-.515.08-.681.24-.166.16-.249.377-.249.652 0 .294.099.527.297.7.205.166.486.249.844.249zm5.498.585v-4.517h-1.918v-.758h4.699v.758h-1.918V23h-.863zm6.111.096a2.29 2.29 0 01-1.093-.25 1.8 1.8 0 01-.719-.7 2.192 2.192 0 01-.25-1.064v-1.439c0-.409.083-.764.25-1.064a1.8 1.8 0 01.719-.7c.313-.166.678-.25 1.093-.25.416 0 .777.084 1.084.25.313.166.553.4.719.7.173.3.259.655.259 1.064v.93h-3.28v.509c0 .415.106.735.317.959.211.217.511.326.901.326.333 0 .601-.058.806-.173a.764.764 0 00.374-.537h.863a1.471 1.471 0 01-.652 1.055c-.371.256-.835.384-1.391.384zm1.218-3.098v-.355c0-.415-.105-.735-.316-.959-.205-.223-.506-.335-.902-.335-.39 0-.69.112-.901.335-.211.224-.317.544-.317.96v.278h2.503l-.067.076zm1.825 3.07v-.806h.172c.294 0 .499-.116.614-.346.122-.23.185-.642.192-1.237l.057-2.954h3.578V23h-.864v-4.488h-1.86l-.048 2.206c-.013.556-.077 1.006-.192 1.352-.109.345-.281.598-.518.757-.23.16-.534.24-.911.24h-.22zm8.317.028c-.416 0-.78-.083-1.093-.25a1.808 1.808 0 01-.72-.7 2.203 2.203 0 01-.249-1.064v-1.439c0-.409.083-.764.249-1.064.173-.3.413-.534.72-.7.313-.166.677-.25 1.093-.25.415 0 .777.084 1.083.25.314.166.554.4.72.7.172.3.259.655.259 1.064v.93h-3.28v.509c0 .415.105.735.316.959.211.217.512.326.902.326.332 0 .601-.058.805-.173.205-.121.33-.3.374-.537h.863a1.465 1.465 0 01-.652 1.055c-.37.256-.834.384-1.39.384zm1.218-3.098v-.355c0-.415-.106-.735-.317-.959-.204-.223-.505-.335-.901-.335-.39 0-.691.112-.902.335-.211.224-.316.544-.316.96v.278h2.503l-.067.076zM134.178 23v-5.275h.825v2.877c0 .186-.007.38-.019.585-.007.205-.02.4-.039.585a6.296 6.296 0 01-.048.46l2.129-4.507h1.103V23h-.825v-2.877c0-.186.004-.38.01-.585.013-.205.029-.4.048-.585l.048-.47L135.281 23h-1.103zm2.014-6.138c-.46 0-.831-.128-1.112-.383-.282-.256-.422-.592-.422-1.007h.68c0 .25.077.45.231.604.153.153.358.23.613.23.263 0 .47-.077.624-.23a.799.799 0 00.24-.604h.68c0 .415-.14.751-.422 1.007-.281.255-.652.383-1.112.383zm5.641 2.206c-.236 0-.428-.064-.575-.192a.681.681 0 01-.221-.527c0-.218.074-.39.221-.518.147-.134.339-.201.575-.201.243 0 .435.067.576.2.147.129.22.301.22.519a.68.68 0 01-.22.527c-.141.128-.333.192-.576.192zm0 4.028c-.236 0-.428-.064-.575-.192a.681.681 0 01-.221-.527c0-.218.074-.39.221-.518.147-.135.339-.202.575-.202.243 0 .435.067.576.202.147.128.22.3.22.518a.68.68 0 01-.22.527c-.141.128-.333.192-.576.192z" fill="#fff"/><defs><filter id="filter0_d_440_430" x=".5" y="0" width="179.336" height="178.377" filterUnits="userSpaceOnUse" color-interpolation-filters="sRGB"><feFlood flood-opacity="0" result="BackgroundImageFix"/><feColorMatrix in="SourceAlpha" values="0 0 0 0 0 0 0 0 0 0 0 0 0 0 0 0 0 0 127 0" result="hardAlpha"/><feOffset dy="3.836"/><feGaussianBlur stdDeviation="1.918"/><feComposite in2="hardAlpha" operator="out"/><feColorMatrix values="0 0 0 0 0 0 0 0 0 0 0 0 0 0 0 0 0 0 0.25 0"/><feBlend in2="BackgroundImageFix" result="effect1_dropShadow_440_430"/><feBlend in="SourceGraphic" in2="effect1_dropShadow_440_430" result="shape"/></filter></defs></svg>