<svg width="307" height="82" fill="none" xmlns="http://www.w3.org/2000/svg"><path d="M10.384 25v-8.03h.957v4.51c0 .264-.007.546-.021.847a29.018 29.018 0 01-.078 1.518l2.442-6.875h1.32V25h-.957v-4.51c0-.271.004-.554.011-.847l.044-.847c.022-.271.04-.495.056-.671L11.704 25h-1.32zm6.64 0v-6.05h.99v2.519h2.552V18.95h.99V25h-.99v-2.629h-2.552V25h-.99zm8.367 0v-5.181h-2.2v-.869h5.39v.869h-2.2V25h-.99zm7.09.11c-.476 0-.894-.095-1.253-.286a2.07 2.07 0 01-.825-.803 2.524 2.524 0 01-.286-1.221v-1.65c0-.47.095-.876.286-1.221a2.07 2.07 0 01.825-.803c.359-.19.777-.286 1.254-.286.476 0 .89.095 1.243.286.359.19.634.458.825.803.198.345.297.752.297 1.221v1.067h-3.762v.583c0 .477.12.843.363 1.1.242.25.586.374 1.034.374.381 0 .689-.066.924-.198a.874.874 0 00.429-.616h.99c-.066.506-.316.91-.748 1.21-.426.293-.957.44-1.595.44zm1.398-3.553v-.407c0-.477-.121-.843-.363-1.1-.235-.257-.58-.385-1.034-.385-.448 0-.792.128-1.034.385s-.363.623-.363 1.1v.319h2.87l-.076.088zm2.91 5.423v-8.03h.99v1.155h.198l-.198.231c0-.462.15-.825.451-1.089.308-.271.712-.407 1.21-.407.609 0 1.093.202 1.452.605.367.396.55.942.55 1.639v1.771c0 .462-.084.862-.253 1.199a1.798 1.798 0 01-.693.781c-.293.183-.645.275-1.056.275-.491 0-.89-.136-1.199-.407-.308-.271-.462-.634-.462-1.089l.198.231h-.22l.022 1.375v1.76h-.99zm2.321-2.728c.418 0 .745-.125.98-.374.241-.25.362-.609.362-1.078v-1.65c0-.47-.12-.829-.363-1.078-.234-.25-.56-.374-.979-.374-.403 0-.726.128-.968.385s-.363.612-.363 1.067v1.65c0 .455.121.81.363 1.067.242.257.565.385.968.385zm6.035.858c-.638 0-1.14-.161-1.507-.484-.367-.33-.55-.774-.55-1.331 0-.565.183-1.008.55-1.331.367-.323.862-.484 1.485-.484h1.87v-.605c0-.374-.114-.66-.341-.858-.22-.205-.535-.308-.946-.308-.36 0-.66.077-.902.231-.242.147-.381.348-.418.605h-.99c.066-.52.312-.935.737-1.243.425-.308.957-.462 1.595-.462.697 0 1.247.18 1.65.539.403.36.605.847.605 1.463V25h-.968v-1.155h-.165l.165-.165c0 .44-.172.788-.517 1.045-.337.257-.788.385-1.353.385zm.242-.781c.47 0 .854-.117 1.155-.352.3-.235.451-.535.451-.902v-.858h-1.848c-.33 0-.59.092-.781.275-.19.183-.286.433-.286.748 0 .337.114.605.341.803.235.19.557.286.968.286zm4.649.671v-6.05h.99v2.497h1.034l1.76-2.497h1.133l-2.035 2.882L54.986 25H53.83l-1.76-2.695h-1.045V25h-.99zm8.334 0v-5.181h-2.2v-.869h5.39v.869h-2.2V25h-.99zm4.824 0v-6.05h.946v3.3c0 .213-.007.436-.022.671a9.413 9.413 0 01-.044.671 7.002 7.002 0 01-.055.528l2.442-5.17h1.265V25h-.946v-3.3c0-.213.004-.436.011-.671.015-.235.033-.458.055-.671l.055-.539L64.46 25h-1.265zm6.596 0v-6.05h2.618c.63 0 1.118.143 1.463.429.345.279.517.671.517 1.177 0 .418-.143.755-.43 1.012-.285.25-.663.374-1.132.374v-.088c.513 0 .924.128 1.232.385.315.257.473.601.473 1.034 0 .543-.184.968-.55 1.276-.367.3-.88.451-1.54.451H69.79zm.968-.869h1.683c.352 0 .623-.077.814-.231.198-.154.297-.37.297-.649 0-.286-.1-.506-.297-.66-.19-.154-.462-.231-.814-.231h-1.683v1.771zm0-2.629h1.65c.308 0 .55-.073.726-.22.183-.147.275-.352.275-.616s-.088-.47-.264-.616c-.176-.154-.422-.231-.737-.231h-1.65v1.683zM76.386 25v-6.05h.99v2.519h2.552V18.95h.99V25h-.99v-2.629h-2.552V25h-.99zm6.276 0v-6.05h.924v2.222h.495c.653 0 1.166.172 1.54.517.382.337.572.803.572 1.397s-.19 1.063-.572 1.408c-.374.337-.887.506-1.54.506h-1.419zm.924-.792h.495c.389 0 .69-.099.902-.297.22-.198.33-.473.33-.825s-.11-.627-.33-.825c-.212-.198-.513-.297-.902-.297h-.495v2.244zm3.322.792v-6.05h.924V25h-.924zm4.935.11c-.477 0-.895-.095-1.254-.286a2.07 2.07 0 01-.825-.803 2.523 2.523 0 01-.286-1.221v-1.65c0-.47.095-.876.286-1.221a2.07 2.07 0 01.825-.803c.36-.19.777-.286 1.254-.286s.891.095 1.243.286c.36.19.634.458.825.803.198.345.297.752.297 1.221v1.067h-3.762v.583c0 .477.121.843.363 1.1.242.25.587.374 1.034.374.381 0 .69-.066.924-.198a.874.874 0 00.429-.616h.99c-.066.506-.315.91-.748 1.21-.425.293-.957.44-1.595.44zm1.397-3.553v-.407c0-.477-.121-.843-.363-1.1-.235-.257-.58-.385-1.034-.385-.447 0-.792.128-1.034.385s-.363.623-.363 1.1v.319h2.871l-.077.088zM102.801 25v-6.05h.99v2.497h1.034l1.76-2.497h1.133l-2.035 2.882L107.751 25h-1.155l-1.76-2.695h-1.045V25h-.99zm6.563 0v-6.05h2.618c.631 0 1.118.143 1.463.429.345.279.517.671.517 1.177 0 .418-.143.755-.429 1.012-.286.25-.664.374-1.133.374v-.088c.513 0 .924.128 1.232.385.315.257.473.601.473 1.034 0 .543-.183.968-.55 1.276-.367.3-.88.451-1.54.451h-2.651zm.968-.869h1.683c.352 0 .623-.077.814-.231.198-.154.297-.37.297-.649 0-.286-.099-.506-.297-.66-.191-.154-.462-.231-.814-.231h-1.683v1.771zm0-2.629h1.65c.308 0 .55-.073.726-.22.183-.147.275-.352.275-.616s-.088-.47-.264-.616c-.176-.154-.422-.231-.737-.231h-1.65v1.683zM115.96 25v-6.05h.946v3.3c0 .213-.008.436-.022.671a9.779 9.779 0 01-.044.671 7.162 7.162 0 01-.055.528l2.442-5.17h1.265V25h-.946v-3.3c0-.213.003-.436.011-.671.014-.235.033-.458.055-.671l.055-.539L117.225 25h-1.265zm8.575.077c-.638 0-1.162-.136-1.573-.407a1.619 1.619 0 01-.726-1.1h1.045c.052.183.187.334.407.451.228.117.51.176.847.176h.517c.36 0 .638-.084.836-.253a.812.812 0 00.308-.66c0-.293-.099-.524-.297-.693-.19-.169-.473-.253-.847-.253h-1.331v-.858h1.298c.338 0 .594-.08.77-.242a.824.824 0 00.264-.638.83.83 0 00-.121-.462.698.698 0 00-.341-.286 1.422 1.422 0 00-.561-.099h-.55c-.293 0-.546.066-.759.198-.212.132-.341.293-.385.484h-1.045c.074-.455.312-.829.715-1.122.404-.293.895-.44 1.474-.44h.55c.433 0 .803.07 1.111.209.308.132.543.323.704.572.169.25.253.546.253.891 0 .36-.117.656-.352.891-.234.227-.564.356-.99.385v.044c.521.037.899.176 1.133.418.235.242.352.59.352 1.045 0 .535-.198.96-.594 1.276-.396.315-.927.473-1.595.473h-.517zm4.297-.077v-6.05h.924v2.222h.495c.653 0 1.166.172 1.54.517.382.337.572.803.572 1.397s-.19 1.063-.572 1.408c-.374.337-.887.506-1.54.506h-1.419zm.924-.792h.495c.389 0 .69-.099.902-.297.22-.198.33-.473.33-.825s-.11-.627-.33-.825c-.212-.198-.513-.297-.902-.297h-.495v2.244zm3.322.792v-6.05h.924V25h-.924zm9.265 0v-6.05h.946v3.3c0 .213-.008.436-.022.671a9.779 9.779 0 01-.044.671 7.162 7.162 0 01-.055.528l2.442-5.17h1.265V25h-.946v-3.3c0-.213.003-.436.011-.671.014-.235.033-.458.055-.671l.055-.539L143.608 25h-1.265zm15.457.088c-.484 0-.902-.092-1.254-.275a1.996 1.996 0 01-.825-.792c-.191-.352-.286-.766-.286-1.243v-1.606c0-.484.095-.898.286-1.243.198-.345.473-.609.825-.792.352-.183.77-.275 1.254-.275s.902.092 1.254.275c.352.183.623.447.814.792.198.345.297.755.297 1.232v1.617c0 .477-.099.891-.297 1.243a1.929 1.929 0 01-.814.792c-.352.183-.77.275-1.254.275zm0-.88c.433 0 .77-.121 1.012-.363s.363-.598.363-1.067v-1.606c0-.47-.121-.825-.363-1.067s-.579-.363-1.012-.363c-.425 0-.763.121-1.012.363-.242.242-.363.598-.363 1.067v1.606c0 .47.121.825.363 1.067.249.242.587.363 1.012.363zm4.33.792v-6.05h4.532V25h-.99v-5.148h-2.552V25h-.99zm6.573 1.98v-8.03h.99v1.155h.198l-.198.231c0-.462.151-.825.451-1.089.308-.271.712-.407 1.21-.407.609 0 1.093.202 1.452.605.367.396.55.942.55 1.639v1.771c0 .462-.084.862-.253 1.199a1.795 1.795 0 01-.693.781c-.293.183-.645.275-1.056.275-.491 0-.891-.136-1.199-.407-.308-.271-.462-.634-.462-1.089l.198.231h-.22l.022 1.375v1.76h-.99zm2.321-2.728c.418 0 .745-.125.979-.374.242-.25.363-.609.363-1.078v-1.65c0-.47-.121-.829-.363-1.078-.234-.25-.561-.374-.979-.374-.403 0-.726.128-.968.385s-.363.612-.363 1.067v1.65c0 .455.121.81.363 1.067.242.257.565.385.968.385zm6.563.836c-.484 0-.902-.092-1.254-.275a1.996 1.996 0 01-.825-.792c-.191-.352-.286-.766-.286-1.243v-1.606c0-.484.095-.898.286-1.243.198-.345.473-.609.825-.792.352-.183.77-.275 1.254-.275s.902.092 1.254.275c.352.183.623.447.814.792.198.345.297.755.297 1.232v1.617c0 .477-.099.891-.297 1.243a1.929 1.929 0 01-.814.792c-.352.183-.77.275-1.254.275zm0-.88c.433 0 .77-.121 1.012-.363s.363-.598.363-1.067v-1.606c0-.47-.121-.825-.363-1.067s-.579-.363-1.012-.363c-.425 0-.763.121-1.012.363-.242.242-.363.598-.363 1.067v1.606c0 .47.121.825.363 1.067.249.242.587.363 1.012.363zm6.618.902c-.484 0-.91-.092-1.276-.275a1.977 1.977 0 01-.836-.792c-.198-.352-.297-.766-.297-1.243v-1.65c0-.484.099-.898.297-1.243.198-.345.476-.609.836-.792.366-.183.792-.275 1.276-.275.696 0 1.257.187 1.683.561.425.374.649.884.671 1.529h-.99c-.022-.389-.154-.686-.396-.891-.235-.213-.558-.319-.968-.319-.433 0-.778.125-1.034.374-.257.242-.385.59-.385 1.045V22.8c0 .455.128.807.385 1.056.256.25.601.374 1.034.374.41 0 .733-.106.968-.319.242-.213.374-.51.396-.891h.99c-.022.645-.246 1.155-.671 1.529-.426.374-.987.561-1.683.561zm3.989-.11v-6.05h.924v2.222h.495c.652 0 1.166.172 1.54.517.381.337.572.803.572 1.397s-.191 1.063-.572 1.408c-.374.337-.888.506-1.54.506h-1.419zm.924-.792h.495c.388 0 .689-.099.902-.297.22-.198.33-.473.33-.825s-.11-.627-.33-.825c-.213-.198-.514-.297-.902-.297h-.495v2.244zm3.322.792v-6.05h.924V25h-.924zm9.264 0v-6.05h2.618c.631 0 1.118.143 1.463.429.345.279.517.671.517 1.177 0 .418-.143.755-.429 1.012-.286.25-.664.374-1.133.374v-.088c.513 0 .924.128 1.232.385.315.257.473.601.473 1.034 0 .543-.183.968-.55 1.276-.367.3-.88.451-1.54.451h-2.651zm.968-.869h1.683c.352 0 .623-.077.814-.231.198-.154.297-.37.297-.649 0-.286-.099-.506-.297-.66-.191-.154-.462-.231-.814-.231h-1.683v1.771zm0-2.629h1.65c.308 0 .55-.073.726-.22.183-.147.275-.352.275-.616s-.088-.47-.264-.616c-.176-.154-.422-.231-.737-.231h-1.65v1.683zM216.666 25v-7.139h-2.2v-.902h5.39v.902h-2.2V25h-.99zm7.091.11c-.477 0-.895-.095-1.254-.286a2.07 2.07 0 01-.825-.803c-.191-.352-.286-.759-.286-1.221v-1.65c0-.47.095-.876.286-1.221a2.07 2.07 0 01.825-.803c.359-.19.777-.286 1.254-.286s.891.095 1.243.286c.359.19.634.458.825.803.198.345.297.752.297 1.221v1.067h-3.762v.583c0 .477.121.843.363 1.1.242.25.587.374 1.034.374.381 0 .689-.066.924-.198a.872.872 0 00.429-.616h.99c-.066.506-.315.91-.748 1.21-.425.293-.957.44-1.595.44zm1.397-3.553v-.407c0-.477-.121-.843-.363-1.1-.235-.257-.579-.385-1.034-.385-.447 0-.792.128-1.034.385s-.363.623-.363 1.1v.319h2.871l-.077.088zM231.178 25c-.352 0-.66-.07-.924-.209a1.498 1.498 0 01-.616-.594 1.783 1.783 0 01-.22-.902v-5.423h-2.035v-.902h3.025v6.325c0 .25.069.447.209.594.139.14.326.209.561.209h1.925V25h-1.925zm5.77.11c-.476 0-.894-.095-1.254-.286a2.07 2.07 0 01-.825-.803 2.531 2.531 0 01-.286-1.221v-1.65c0-.47.096-.876.286-1.221a2.07 2.07 0 01.825-.803c.36-.19.778-.286 1.254-.286.477 0 .891.095 1.243.286.36.19.635.458.825.803.198.345.297.752.297 1.221v1.067h-3.762v.583c0 .477.121.843.363 1.1.242.25.587.374 1.034.374.382 0 .69-.066.924-.198a.872.872 0 00.429-.616h.99c-.066.506-.315.91-.748 1.21-.425.293-.957.44-1.595.44zm1.397-3.553v-.407c0-.477-.121-.843-.363-1.1-.234-.257-.579-.385-1.034-.385-.447 0-.792.128-1.034.385s-.363.623-.363 1.1v.319h2.871l-.077.088zm3.67 5.423v-.902h1.925c.308 0 .532-.07.671-.209.147-.14.22-.356.22-.649v-.77l.022-1.1h-.198l.187-.165c0 .44-.147.788-.44 1.045-.293.257-.686.385-1.177.385-.623 0-1.115-.202-1.474-.605-.359-.41-.539-.96-.539-1.65v-1.276c0-.69.18-1.236.539-1.639.359-.403.851-.605 1.474-.605.491 0 .884.128 1.177.385.293.257.44.605.44 1.045l-.187-.165h.187V18.95h.979v6.27c0 .543-.169.972-.506 1.287-.33.315-.792.473-1.386.473h-1.914zm1.507-3.223c.411 0 .733-.128.968-.385s.352-.612.352-1.067V21.15c0-.455-.117-.81-.352-1.067-.235-.257-.557-.385-.968-.385-.418 0-.744.125-.979.374-.227.25-.341.609-.341 1.078v1.155c0 .47.114.829.341 1.078.235.25.561.374.979.374zM248.061 25v-6.05h.968v1.155h.231l-.319.715c0-.653.139-1.144.418-1.474.286-.337.708-.506 1.265-.506.638 0 1.144.202 1.518.605.381.396.572.935.572 1.617v.363h-.99v-.275c0-.477-.117-.84-.352-1.089-.227-.257-.554-.385-.979-.385-.418 0-.748.128-.99.385-.235.257-.352.62-.352 1.089V25h-.99zm8.147.11c-.638 0-1.141-.161-1.507-.484-.367-.33-.55-.774-.55-1.331 0-.565.183-1.008.55-1.331.366-.323.861-.484 1.485-.484h1.87v-.605c0-.374-.114-.66-.341-.858-.22-.205-.536-.308-.946-.308-.36 0-.66.077-.902.231-.242.147-.382.348-.418.605h-.99c.066-.52.311-.935.737-1.243.425-.308.957-.462 1.595-.462.696 0 1.246.18 1.65.539.403.36.605.847.605 1.463V25h-.968v-1.155h-.165l.165-.165c0 .44-.173.788-.517 1.045-.338.257-.789.385-1.353.385zm.242-.781c.469 0 .854-.117 1.155-.352.3-.235.451-.535.451-.902v-.858h-1.848c-.33 0-.591.092-.781.275-.191.183-.286.433-.286.748 0 .337.113.605.341.803.234.19.557.286.968.286zm4.307.671v-6.05h.869v.726h.198l-.154.264c0-.337.088-.605.264-.803.184-.198.429-.297.737-.297.338 0 .598.125.781.374.184.25.275.601.275 1.056l-.297-.594h.462l-.209.264c0-.337.092-.605.275-.803.191-.198.44-.297.748-.297.382 0 .675.143.88.429.213.286.319.664.319 1.133V25h-.913v-4.609c0-.25-.055-.444-.165-.583-.102-.14-.256-.209-.462-.209a.588.588 0 00-.473.209c-.11.132-.165.323-.165.572V25h-.792v-4.609c0-.257-.058-.451-.176-.583-.11-.14-.267-.209-.473-.209-.205 0-.359.07-.462.209-.102.132-.154.323-.154.572V25h-.913zm7.41-3.19v-.88h3.52v.88h-3.52zm8.356 3.3c-.712 0-1.276-.209-1.694-.627-.411-.425-.616-1.005-.616-1.738v-2.75c0-.968.242-1.712.726-2.233.484-.528 1.177-.792 2.079-.792h1.54v.99h-1.54c-.594 0-1.045.176-1.353.528-.308.345-.462.847-.462 1.507v.715h.154l-.154.22c.007-.433.154-.77.44-1.012.286-.242.674-.363 1.166-.363.638 0 1.133.205 1.485.616.359.41.539.975.539 1.694v.88c0 .491-.092.913-.275 1.265a1.935 1.935 0 01-.792.814c-.345.19-.759.286-1.243.286zm0-.88c.425 0 .751-.128.979-.385.227-.257.341-.623.341-1.1v-.88c0-.477-.114-.843-.341-1.1-.228-.257-.554-.385-.979-.385-.426 0-.752.128-.979.385-.228.25-.341.616-.341 1.1v.88c0 .477.113.843.341 1.1.227.257.553.385.979.385zm6.595.858c-.484 0-.902-.092-1.254-.275a1.996 1.996 0 01-.825-.792c-.19-.352-.286-.766-.286-1.243v-1.606c0-.484.096-.898.286-1.243.198-.345.473-.609.825-.792.352-.183.77-.275 1.254-.275s.902.092 1.254.275c.352.183.624.447.814.792.198.345.297.755.297 1.232v1.617c0 .477-.099.891-.297 1.243a1.92 1.92 0 01-.814.792c-.352.183-.77.275-1.254.275zm0-.88c.433 0 .77-.121 1.012-.363s.363-.598.363-1.067v-1.606c0-.47-.121-.825-.363-1.067s-.579-.363-1.012-.363c-.425 0-.762.121-1.012.363-.242.242-.363.598-.363 1.067v1.606c0 .47.121.825.363 1.067.25.242.587.363 1.012.363zm6.101.792v-5.181h-2.2v-.869h5.39v.869h-2.2V25h-.99zm7.091.11c-.477 0-.895-.095-1.254-.286a2.07 2.07 0 01-.825-.803c-.191-.352-.286-.759-.286-1.221v-1.65c0-.47.095-.876.286-1.221a2.07 2.07 0 01.825-.803c.359-.19.777-.286 1.254-.286.476 0 .891.095 1.243.286.359.19.634.458.825.803.198.345.297.752.297 1.221v1.067h-3.762v.583c0 .477.121.843.363 1.1.242.25.586.374 1.034.374.381 0 .689-.066.924-.198a.878.878 0 00.429-.616h.99c-.066.506-.316.91-.748 1.21-.426.293-.957.44-1.595.44zm1.397-3.553v-.407c0-.477-.121-.843-.363-1.1-.235-.257-.58-.385-1.034-.385-.448 0-.792.128-1.034.385s-.363.623-.363 1.1v.319h2.871l-.077.088zM20.322 40v-6.05h4.532V40h-.99v-5.148h-2.552V40h-.99zm8.862.088c-.484 0-.902-.092-1.254-.275a1.996 1.996 0 01-.825-.792c-.19-.352-.286-.766-.286-1.243v-1.606c0-.484.095-.898.286-1.243.198-.345.473-.609.825-.792.352-.183.77-.275 1.254-.275s.902.092 1.254.275c.352.183.623.447.814.792.198.345.297.755.297 1.232v1.617c0 .477-.1.891-.297 1.243a1.92 1.92 0 01-.814.792c-.352.183-.77.275-1.254.275zm0-.88c.432 0 .77-.121 1.012-.363s.363-.598.363-1.067v-1.606c0-.47-.121-.825-.363-1.067s-.58-.363-1.012-.363c-.425 0-.763.121-1.012.363-.242.242-.363.598-.363 1.067v1.606c0 .47.12.825.363 1.067.25.242.587.363 1.012.363zm4.131.792v-6.05h1.343l.791 2.321c.081.235.154.47.22.704.067.227.114.403.144.528.029-.125.073-.3.131-.528a37.3 37.3 0 01.21-.715l.747-2.31h1.342V40h-.957v-.935c0-.33.004-.69.011-1.078l.023-1.177c.014-.396.029-.77.044-1.122.014-.36.025-.675.033-.946l-1.078 3.443h-1.046l-1.089-3.421c.015.33.026.74.034 1.232.014.491.025 1.005.032 1.54a55.8 55.8 0 01.023 1.529V40h-.958zm9.06.088c-.484 0-.902-.092-1.254-.275a1.996 1.996 0 01-.825-.792c-.19-.352-.286-.766-.286-1.243v-1.606c0-.484.096-.898.286-1.243.198-.345.473-.609.825-.792.352-.183.77-.275 1.254-.275s.902.092 1.254.275c.352.183.623.447.814.792.198.345.297.755.297 1.232v1.617c0 .477-.099.891-.297 1.243a1.92 1.92 0 01-.814.792c-.352.183-.77.275-1.254.275zm0-.88c.433 0 .77-.121 1.012-.363s.363-.598.363-1.067v-1.606c0-.47-.12-.825-.363-1.067-.242-.242-.58-.363-1.012-.363-.425 0-.763.121-1.012.363-.242.242-.363.598-.363 1.067v1.606c0 .47.121.825.363 1.067.25.242.587.363 1.012.363zm4.726.792v-6.05h4.345v.902H48.09V40h-.99zm7.938.11c-.638 0-1.14-.161-1.507-.484-.367-.33-.55-.774-.55-1.331 0-.565.183-1.008.55-1.331.366-.323.861-.484 1.485-.484h1.87v-.605c0-.374-.114-.66-.341-.858-.22-.205-.536-.308-.946-.308-.36 0-.66.077-.902.231-.242.147-.382.348-.418.605h-.99c.066-.52.311-.935.737-1.243.425-.308.957-.462 1.595-.462.696 0 1.246.18 1.65.539.403.36.605.847.605 1.463V40h-.968v-1.155h-.165l.165-.165c0 .44-.173.788-.517 1.045-.338.257-.789.385-1.353.385zm.242-.781c.469 0 .854-.117 1.155-.352.3-.235.45-.535.45-.902v-.858H55.04c-.33 0-.59.092-.781.275-.191.183-.286.433-.286.748 0 .337.113.605.34.803.235.19.558.286.969.286zm7.827.781c-.506 0-.913-.172-1.22-.517-.309-.345-.463-.796-.463-1.353v-.913h-.968V40h-.913v-6.05h.913v2.585h.968v-.825c0-.565.15-1.016.451-1.353.308-.345.719-.517 1.232-.517.543 0 .98.172 1.31.517.33.337.494.788.494 1.353v2.53c0 .557-.165 1.008-.495 1.353-.33.345-.766.517-1.309.517zm0-.77c.279 0 .495-.095.65-.286.16-.198.241-.47.241-.814v-2.53c0-.345-.08-.612-.242-.803-.154-.198-.37-.297-.649-.297a.763.763 0 00-.638.297c-.154.19-.23.458-.23.803v2.53c0 .345.076.616.23.814.154.19.367.286.638.286zm5.155.66v-5.181h-2.2v-.869h5.39v.869h-2.2V40h-.99zm11.42 0v-6.05h.99v2.519h2.552V33.95h.99V40h-.99v-2.629h-2.552V40h-.99zm8.862.11c-.477 0-.895-.095-1.254-.286a2.07 2.07 0 01-.825-.803 2.524 2.524 0 01-.286-1.221v-1.65c0-.47.095-.876.286-1.221a2.07 2.07 0 01.825-.803c.36-.19.778-.286 1.254-.286.477 0 .891.095 1.243.286.36.19.635.458.825.803.198.345.297.752.297 1.221v1.067h-3.762v.583c0 .477.121.843.363 1.1.242.25.587.374 1.034.374.382 0 .69-.066.924-.198a.874.874 0 00.43-.616h.99c-.067.506-.316.91-.749 1.21-.425.293-.957.44-1.595.44zm1.397-3.553v-.407c0-.477-.12-.843-.363-1.1-.234-.257-.58-.385-1.034-.385-.447 0-.792.128-1.034.385s-.363.623-.363 1.1v.319h2.871l-.077.088zm11.3 3.443v-5.181h-2.2v-.869h5.39v.869h-2.2V40h-.99zm7.09.088c-.484 0-.902-.092-1.254-.275a1.996 1.996 0 01-.825-.792c-.19-.352-.286-.766-.286-1.243v-1.606c0-.484.096-.898.286-1.243.198-.345.473-.609.825-.792.352-.183.77-.275 1.254-.275s.902.092 1.254.275c.352.183.624.447.814.792.198.345.297.755.297 1.232v1.617c0 .477-.099.891-.297 1.243a1.92 1.92 0 01-.814.792c-.352.183-.77.275-1.254.275zm0-.88c.433 0 .77-.121 1.012-.363s.363-.598.363-1.067v-1.606c0-.47-.121-.825-.363-1.067s-.579-.363-1.012-.363c-.425 0-.762.121-1.012.363-.242.242-.363.598-.363 1.067v1.606c0 .47.121.825.363 1.067.25.242.587.363 1.012.363zm3.571.869v-.924h.198c.337 0 .572-.132.704-.396.139-.264.213-.737.22-1.419l.066-3.388h4.103V40h-.99v-5.148h-2.134l-.055 2.53c-.015.638-.088 1.155-.22 1.551-.125.396-.323.686-.594.869-.264.183-.612.275-1.045.275h-.253zm7.399-.077v-6.05h.99v2.222h1.782c.682 0 1.217.172 1.606.517.396.337.594.803.594 1.397 0 .587-.198 1.052-.594 1.397-.396.345-.932.517-1.606.517h-2.772zm.99-.902h1.782c.381 0 .671-.084.869-.253.205-.176.308-.429.308-.759s-.103-.58-.308-.748c-.198-.176-.488-.264-.869-.264h-1.782v2.024zm5.594.902v-6.05h.99v2.497h1.034l1.76-2.497h1.133l-2.035 2.882L130.836 40h-1.155l-1.76-2.695h-1.045V40h-.99zm8.829.088c-.484 0-.902-.092-1.254-.275a1.996 1.996 0 01-.825-.792c-.191-.352-.286-.766-.286-1.243v-1.606c0-.484.095-.898.286-1.243.198-.345.473-.609.825-.792.352-.183.77-.275 1.254-.275s.902.092 1.254.275c.352.183.623.447.814.792.198.345.297.755.297 1.232v1.617c0 .477-.099.891-.297 1.243a1.929 1.929 0 01-.814.792c-.352.183-.77.275-1.254.275zm0-.88c.433 0 .77-.121 1.012-.363s.363-.598.363-1.067v-1.606c0-.47-.121-.825-.363-1.067s-.579-.363-1.012-.363c-.425 0-.763.121-1.012.363-.242.242-.363.598-.363 1.067v1.606c0 .47.121.825.363 1.067.249.242.587.363 1.012.363zM145.64 40v-6.05h2.618c.631 0 1.119.143 1.463.429.345.279.517.671.517 1.177 0 .418-.143.755-.429 1.012-.286.25-.663.374-1.133.374v-.088c.514 0 .924.128 1.232.385.316.257.473.601.473 1.034 0 .543-.183.968-.55 1.276-.366.3-.88.451-1.54.451h-2.651zm.968-.869h1.683c.352 0 .624-.077.814-.231.198-.154.297-.37.297-.649 0-.286-.099-.506-.297-.66-.19-.154-.462-.231-.814-.231h-1.683v1.771zm0-2.629h1.65c.308 0 .55-.073.726-.22.184-.147.275-.352.275-.616s-.088-.47-.264-.616c-.176-.154-.421-.231-.737-.231h-1.65v1.683zm7.894 3.586c-.484 0-.902-.092-1.254-.275a1.996 1.996 0 01-.825-.792c-.191-.352-.286-.766-.286-1.243v-1.606c0-.484.095-.898.286-1.243.198-.345.473-.609.825-.792.352-.183.77-.275 1.254-.275s.902.092 1.254.275c.352.183.623.447.814.792.198.345.297.755.297 1.232v1.617c0 .477-.099.891-.297 1.243a1.929 1.929 0 01-.814.792c-.352.183-.77.275-1.254.275zm0-.88c.433 0 .77-.121 1.012-.363s.363-.598.363-1.067v-1.606c0-.47-.121-.825-.363-1.067s-.579-.363-1.012-.363c-.425 0-.763.121-1.012.363-.242.242-.363.598-.363 1.067v1.606c0 .47.121.825.363 1.067.249.242.587.363 1.012.363zm4.33.792v-6.05h2.618c.631 0 1.118.143 1.463.429.345.279.517.671.517 1.177 0 .418-.143.755-.429 1.012-.286.25-.664.374-1.133.374v-.088c.513 0 .924.128 1.232.385.315.257.473.601.473 1.034 0 .543-.183.968-.55 1.276-.367.3-.88.451-1.54.451h-2.651zm.968-.869h1.683c.352 0 .623-.077.814-.231.198-.154.297-.37.297-.649 0-.286-.099-.506-.297-.66-.191-.154-.462-.231-.814-.231H159.8v1.771zm0-2.629h1.65c.308 0 .55-.073.726-.22.183-.147.275-.352.275-.616s-.088-.47-.264-.616c-.176-.154-.422-.231-.737-.231h-1.65v1.683zm4.869 3.575v-.924h.198c.337 0 .572-.132.704-.396.139-.264.212-.737.22-1.419l.066-3.388h4.103V40h-.99v-5.148h-2.134l-.055 2.53c-.015.638-.088 1.155-.22 1.551-.125.396-.323.686-.594.869-.264.183-.613.275-1.045.275h-.253zm9.62.033c-.476 0-.894-.095-1.254-.286a2.07 2.07 0 01-.825-.803 2.531 2.531 0 01-.286-1.221v-1.65c0-.47.096-.876.286-1.221a2.07 2.07 0 01.825-.803c.36-.19.778-.286 1.254-.286.477 0 .891.095 1.243.286.36.19.635.458.825.803.198.345.297.752.297 1.221v1.067h-3.762v.583c0 .477.121.843.363 1.1.242.25.587.374 1.034.374.382 0 .69-.066.924-.198a.872.872 0 00.429-.616h.99c-.066.506-.315.91-.748 1.21-.425.293-.957.44-1.595.44zm1.397-3.553v-.407c0-.477-.121-.843-.363-1.1-.234-.257-.579-.385-1.034-.385-.447 0-.792.128-1.034.385s-.363.623-.363 1.1v.319h2.871l-.077.088zM182.095 40v-2.2c-.117.03-.297.059-.539.088a8.033 8.033 0 01-.748.033c-.748.007-1.331-.172-1.749-.539-.411-.374-.616-.895-.616-1.562v-1.87h.99v1.87c0 .374.125.671.374.891.257.213.609.319 1.056.319.308 0 .568-.011.781-.033.22-.03.37-.055.451-.077v-2.97h.99V40h-.99zm3.164 0v-6.05h.99v2.222h1.782c.682 0 1.217.172 1.606.517.396.337.594.803.594 1.397 0 .587-.198 1.052-.594 1.397-.396.345-.932.517-1.606.517h-2.772zm.99-.902h1.782c.381 0 .671-.084.869-.253.205-.176.308-.429.308-.759s-.103-.58-.308-.748c-.198-.176-.488-.264-.869-.264h-1.782v2.024zm13.895 1.012c-.638 0-1.14-.161-1.507-.484-.367-.33-.55-.774-.55-1.331 0-.565.183-1.008.55-1.331.367-.323.862-.484 1.485-.484h1.87v-.605c0-.374-.114-.66-.341-.858-.22-.205-.535-.308-.946-.308-.359 0-.66.077-.902.231a.823.823 0 00-.418.605h-.99c.066-.52.312-.935.737-1.243.425-.308.957-.462 1.595-.462.697 0 1.247.18 1.65.539.403.36.605.847.605 1.463V40h-.968v-1.155h-.165l.165-.165c0 .44-.172.788-.517 1.045-.337.257-.788.385-1.353.385zm.242-.781c.469 0 .854-.117 1.155-.352.301-.235.451-.535.451-.902v-.858h-1.848c-.33 0-.59.092-.781.275-.191.183-.286.433-.286.748 0 .337.114.605.341.803.235.19.557.286.968.286zm5.54 2.651l.891-2.354-2.244-5.676h1.1l1.408 3.74c.051.125.099.275.143.451l.11.429.11-.429a5.08 5.08 0 01.132-.451l1.32-3.74h1.067l-2.981 8.03h-1.056zm4.967-.44v-2.387h.495c.125-.125.253-.37.385-.737.14-.367.213-.832.22-1.397l.066-3.069h3.949v5.203h.77v2.387h-.88V40h-4.125v1.54h-.88zm1.54-2.387h2.585V34.83h-2.024l-.044 2.211c-.007.58-.069 1.049-.187 1.408-.117.36-.227.594-.33.704zm5.76.847v-6.05h.946v3.3c0 .213-.007.436-.022.671a9.185 9.185 0 01-.044.671 6.655 6.655 0 01-.055.528l2.442-5.17h1.265V40h-.946v-3.3c0-.213.004-.436.011-.671.015-.235.033-.458.055-.671l.055-.539L219.458 40h-1.265zm8.367 0v-5.181h-2.2v-.869h5.39v.869h-2.2V40h-.99zm7.091.088c-.484 0-.902-.092-1.254-.275a1.996 1.996 0 01-.825-.792c-.191-.352-.286-.766-.286-1.243v-1.606c0-.484.095-.898.286-1.243.198-.345.473-.609.825-.792.352-.183.77-.275 1.254-.275s.902.092 1.254.275c.352.183.623.447.814.792.198.345.297.755.297 1.232v1.617c0 .477-.099.891-.297 1.243a1.929 1.929 0 01-.814.792c-.352.183-.77.275-1.254.275zm0-.88c.432 0 .77-.121 1.012-.363s.363-.598.363-1.067v-1.606c0-.47-.121-.825-.363-1.067s-.58-.363-1.012-.363c-.426 0-.763.121-1.012.363-.242.242-.363.598-.363 1.067v1.606c0 .47.121.825.363 1.067.249.242.586.363 1.012.363zm4.307 2.772v-8.03h.99v1.155h.198l-.198.231c0-.462.151-.825.451-1.089.308-.271.712-.407 1.21-.407.609 0 1.093.202 1.452.605.367.396.55.942.55 1.639v1.771c0 .462-.084.862-.253 1.199a1.795 1.795 0 01-.693.781c-.293.183-.645.275-1.056.275-.491 0-.891-.136-1.199-.407-.308-.271-.462-.634-.462-1.089l.198.231h-.22l.022 1.375v1.76h-.99zm2.321-2.728c.418 0 .745-.125.979-.374.242-.25.363-.609.363-1.078v-1.65c0-.47-.121-.829-.363-1.078-.234-.25-.561-.374-.979-.374-.403 0-.726.128-.968.385s-.363.612-.363 1.067v1.65c0 .455.121.81.363 1.067.242.257.565.385.968.385zm4.297.748v-6.05h.946v3.3c0 .213-.007.436-.022.671a9.185 9.185 0 01-.044.671 7.162 7.162 0 01-.055.528l2.442-5.17h1.265V40h-.946v-3.3c0-.213.004-.436.011-.671.015-.235.033-.458.055-.671l.055-.539L245.841 40h-1.265zm9.808.11c-.506 0-.913-.172-1.221-.517-.308-.345-.462-.796-.462-1.353v-.913h-.968V40h-.913v-6.05h.913v2.585h.968v-.825c0-.565.15-1.016.451-1.353.308-.345.718-.517 1.232-.517.542 0 .979.172 1.309.517.33.337.495.788.495 1.353v2.53c0 .557-.165 1.008-.495 1.353-.33.345-.767.517-1.309.517zm0-.77c.278 0 .495-.095.649-.286.161-.198.242-.47.242-.814v-2.53c0-.345-.081-.612-.242-.803-.154-.198-.371-.297-.649-.297a.763.763 0 00-.638.297c-.154.19-.231.458-.231.803v2.53c0 .345.077.616.231.814.154.19.366.286.638.286zm4.164 2.42l.88-3.421h1.43l-1.43 3.421h-.88zM270.959 40v-6.05h.99v2.519h2.552V33.95h.99V40h-.99v-2.629h-2.552V40h-.99zm8.862.088c-.484 0-.902-.092-1.254-.275a1.996 1.996 0 01-.825-.792c-.191-.352-.286-.766-.286-1.243v-1.606c0-.484.095-.898.286-1.243.198-.345.473-.609.825-.792.352-.183.77-.275 1.254-.275s.902.092 1.254.275c.352.183.623.447.814.792.198.345.297.755.297 1.232v1.617c0 .477-.099.891-.297 1.243a1.929 1.929 0 01-.814.792c-.352.183-.77.275-1.254.275zm0-.88c.432 0 .77-.121 1.012-.363s.363-.598.363-1.067v-1.606c0-.47-.121-.825-.363-1.067s-.58-.363-1.012-.363c-.426 0-.763.121-1.012.363-.242.242-.363.598-.363 1.067v1.606c0 .47.121.825.363 1.067.249.242.586.363 1.012.363zM26.918 55v-6.05h.946v3.3c0 .213-.008.436-.022.671a9.355 9.355 0 01-.044.671 7.002 7.002 0 01-.055.528l2.442-5.17h1.265V55h-.946v-3.3c0-.213.003-.436.01-.671.015-.235.034-.458.056-.671l.055-.539L28.183 55h-1.265zm15.48.11c-.485 0-.91-.092-1.277-.275a1.98 1.98 0 01-.836-.792c-.198-.352-.297-.766-.297-1.243v-1.65c0-.484.1-.898.297-1.243a1.98 1.98 0 01.836-.792c.367-.183.792-.275 1.276-.275.697 0 1.258.187 1.683.561.425.374.65.884.671 1.529h-.99c-.022-.389-.154-.686-.396-.891-.235-.213-.557-.319-.968-.319-.432 0-.777.125-1.034.374-.257.242-.385.59-.385 1.045V52.8c0 .455.128.807.385 1.056.257.25.602.374 1.034.374.41 0 .733-.106.968-.319.242-.213.374-.51.396-.891h.99c-.022.645-.245 1.155-.67 1.529-.426.374-.987.561-1.684.561zm6.573-.022c-.484 0-.902-.092-1.254-.275a1.996 1.996 0 01-.825-.792c-.19-.352-.286-.766-.286-1.243v-1.606c0-.484.095-.898.286-1.243.198-.345.473-.609.825-.792.352-.183.77-.275 1.254-.275s.902.092 1.254.275c.352.183.623.447.814.792.198.345.297.755.297 1.232v1.617c0 .477-.1.891-.297 1.243a1.92 1.92 0 01-.814.792c-.352.183-.77.275-1.254.275zm0-.88c.433 0 .77-.121 1.012-.363s.363-.598.363-1.067v-1.606c0-.47-.121-.825-.363-1.067s-.58-.363-1.012-.363c-.425 0-.763.121-1.012.363-.242.242-.363.598-.363 1.067v1.606c0 .47.12.825.363 1.067.25.242.587.363 1.012.363zm6.596.902c-.712 0-1.276-.209-1.694-.627-.411-.425-.616-1.005-.616-1.738v-2.75c0-.968.242-1.712.726-2.233.484-.528 1.177-.792 2.079-.792h1.54v.99h-1.54c-.594 0-1.045.176-1.353.528-.308.345-.462.847-.462 1.507v.715h.154l-.154.22c.007-.433.154-.77.44-1.012.286-.242.674-.363 1.166-.363.638 0 1.133.205 1.485.616.359.41.539.975.539 1.694v.88c0 .491-.092.913-.275 1.265a1.927 1.927 0 01-.792.814c-.345.19-.76.286-1.243.286zm0-.88c.425 0 .751-.128.979-.385.227-.257.34-.623.34-1.1v-.88c0-.477-.113-.843-.34-1.1-.228-.257-.554-.385-.98-.385-.425 0-.751.128-.978.385-.228.25-.341.616-.341 1.1v.88c0 .477.113.843.34 1.1.228.257.554.385.98.385zm4.307 2.75v-8.03h.99v1.155h.198l-.198.231c0-.462.15-.825.451-1.089.308-.271.712-.407 1.21-.407.609 0 1.093.202 1.452.605.367.396.55.942.55 1.639v1.771c0 .462-.084.862-.253 1.199a1.798 1.798 0 01-.693.781c-.293.183-.645.275-1.056.275-.491 0-.89-.136-1.199-.407-.308-.271-.462-.634-.462-1.089l.198.231h-.22l.022 1.375v1.76h-.99zm2.321-2.728c.418 0 .745-.125.98-.374.241-.25.362-.609.362-1.078v-1.65c0-.47-.12-.829-.363-1.078-.234-.25-.56-.374-.979-.374-.403 0-.726.128-.968.385s-.363.612-.363 1.067v1.65c0 .455.121.81.363 1.067.242.257.565.385.968.385zm6.035.858c-.638 0-1.14-.161-1.507-.484-.367-.33-.55-.774-.55-1.331 0-.565.183-1.008.55-1.331.367-.323.862-.484 1.485-.484h1.87v-.605c0-.374-.114-.66-.341-.858-.22-.205-.535-.308-.946-.308-.36 0-.66.077-.902.231-.242.147-.381.348-.418.605h-.99c.066-.52.312-.935.737-1.243.425-.308.957-.462 1.595-.462.697 0 1.247.18 1.65.539.403.36.605.847.605 1.463V55H70.1v-1.155h-.165l.165-.165c0 .44-.172.788-.517 1.045-.337.257-.788.385-1.353.385zm.242-.781c.47 0 .854-.117 1.155-.352.3-.235.451-.535.451-.902v-.858H68.23c-.33 0-.59.092-.781.275-.19.183-.286.433-.286.748 0 .337.114.605.341.803.235.19.557.286.968.286zm6.387.671v-5.181h-2.2v-.869h5.39v.869h-2.2V55h-.99zm4.868 0v-6.05h.99v2.222H82.5c.682 0 1.218.172 1.606.517.396.337.594.803.594 1.397 0 .587-.198 1.052-.594 1.397-.396.345-.93.517-1.606.517h-2.772zm.99-.902H82.5c.382 0 .671-.084.87-.253.205-.176.307-.429.307-.759s-.102-.58-.308-.748c-.198-.176-.487-.264-.869-.264h-1.782v2.024zm16.459 2.442V55h-4.301v-6.05h.99v5.17h2.376v-5.17h.99v5.17h.825v2.42h-.88zm4.561-1.43c-.477 0-.895-.095-1.254-.286a2.07 2.07 0 01-.826-.803 2.524 2.524 0 01-.285-1.221v-1.65c0-.47.095-.876.285-1.221a2.07 2.07 0 01.826-.803c.359-.19.777-.286 1.254-.286.476 0 .891.095 1.243.286.359.19.634.458.825.803.198.345.297.752.297 1.221v1.067h-3.762v.583c0 .477.121.843.363 1.1.242.25.586.374 1.034.374.381 0 .689-.066.924-.198a.878.878 0 00.429-.616h.99c-.066.506-.316.91-.748 1.21-.426.293-.957.44-1.595.44zm1.397-3.553v-.407c0-.477-.121-.843-.363-1.1-.235-.257-.58-.385-1.034-.385-.448 0-.792.128-1.034.385s-.363.623-.363 1.1v.319h2.871l-.077.088zM106.066 55v-6.05h.99v2.519h2.552V48.95h.99V55h-.99v-2.629h-2.552V55h-.99zm6.596 0v-6.05h.99v2.519h2.552V48.95h.99V55h-.99v-2.629h-2.552V55h-.99zm7.52 1.98l.891-2.354-2.244-5.676h1.1l1.408 3.74c.051.125.099.275.143.451l.11.429.11-.429a5.08 5.08 0 01.132-.451l1.32-3.74h1.067l-2.981 8.03h-1.056zm8.883-1.87c-.506 0-.913-.172-1.221-.517-.308-.345-.462-.796-.462-1.353v-.913h-.968V55h-.913v-6.05h.913v2.585h.968v-.825c0-.565.151-1.016.451-1.353.308-.345.719-.517 1.232-.517.543 0 .979.172 1.309.517.33.337.495.788.495 1.353v2.53c0 .557-.165 1.008-.495 1.353-.33.345-.766.517-1.309.517zm0-.77c.279 0 .495-.095.649-.286.162-.198.242-.47.242-.814v-2.53c0-.345-.08-.612-.242-.803-.154-.198-.37-.297-.649-.297a.764.764 0 00-.638.297c-.154.19-.231.458-.231.803v2.53c0 .345.077.616.231.814.154.19.367.286.638.286zm9.98.66v-6.05h.946v3.3c0 .213-.008.436-.022.671a9.779 9.779 0 01-.044.671 7.162 7.162 0 01-.055.528l2.442-5.17h1.265V55h-.946v-3.3c0-.213.003-.436.011-.671.014-.235.033-.458.055-.671l.055-.539L140.31 55h-1.265zm6.595 0v-6.05h.99v2.519h2.552V48.95h.99V55h-.99v-2.629h-2.552V55h-.99zm8.422 1.98V55c-.704 0-1.258-.198-1.661-.594-.403-.396-.605-.939-.605-1.628V51.15c0-.682.202-1.217.605-1.606.411-.396.964-.594 1.661-.594v-1.98h.88v1.98c.704 0 1.258.198 1.661.594.403.389.605.924.605 1.606v1.628c0 .69-.202 1.232-.605 1.628-.403.396-.957.594-1.661.594v1.98h-.88zm.022-2.761v-4.488c-.425 0-.759.125-1.001.374-.242.25-.363.598-.363 1.045v1.628c0 .447.121.8.363 1.056.242.257.576.385 1.001.385zm.836 0c.433 0 .766-.128 1.001-.385.242-.257.363-.609.363-1.056V51.15c0-.447-.121-.796-.363-1.045-.235-.25-.568-.374-1.001-.374v4.488zm6.178.869c-.484 0-.902-.092-1.254-.275a1.996 1.996 0 01-.825-.792c-.191-.352-.286-.766-.286-1.243v-1.606c0-.484.095-.898.286-1.243.198-.345.473-.609.825-.792.352-.183.77-.275 1.254-.275s.902.092 1.254.275c.352.183.623.447.814.792.198.345.297.755.297 1.232v1.617c0 .477-.099.891-.297 1.243a1.929 1.929 0 01-.814.792c-.352.183-.77.275-1.254.275zm0-.88c.433 0 .77-.121 1.012-.363s.363-.598.363-1.067v-1.606c0-.47-.121-.825-.363-1.067s-.579-.363-1.012-.363c-.425 0-.763.121-1.012.363-.242.242-.363.598-.363 1.067v1.606c0 .47.121.825.363 1.067.249.242.587.363 1.012.363zm4.308 2.772v-8.03h.99v1.155h.198l-.198.231c0-.462.15-.825.451-1.089.308-.271.711-.407 1.21-.407.608 0 1.092.202 1.452.605.366.396.55.942.55 1.639v1.771c0 .462-.085.862-.253 1.199a1.807 1.807 0 01-.693.781c-.294.183-.646.275-1.056.275-.492 0-.891-.136-1.199-.407-.308-.271-.462-.634-.462-1.089l.198.231h-.22l.022 1.375v1.76h-.99zm2.321-2.728c.418 0 .744-.125.979-.374.242-.25.363-.609.363-1.078v-1.65c0-.47-.121-.829-.363-1.078-.235-.25-.561-.374-.979-.374-.404 0-.726.128-.968.385s-.363.612-.363 1.067v1.65c0 .455.121.81.363 1.067.242.257.564.385.968.385zm4.098.748v-6.05h1.342l.792 2.321c.081.235.154.47.22.704.066.227.114.403.143.528.03-.125.074-.3.132-.528a39.6 39.6 0 01.209-.715l.748-2.31h1.342V55h-.957v-.935c0-.33.004-.69.011-1.078l.022-1.177.044-1.122c.015-.36.026-.675.033-.946l-1.078 3.443h-1.045l-1.089-3.421c.015.33.026.74.033 1.232.015.491.026 1.005.033 1.54.015.535.022 1.045.022 1.529V55h-.957zm8.532.11c-.638 0-1.14-.161-1.507-.484-.367-.33-.55-.774-.55-1.331 0-.565.183-1.008.55-1.331.367-.323.862-.484 1.485-.484h1.87v-.605c0-.374-.114-.66-.341-.858-.22-.205-.535-.308-.946-.308-.359 0-.66.077-.902.231a.823.823 0 00-.418.605h-.99c.066-.52.312-.935.737-1.243.425-.308.957-.462 1.595-.462.697 0 1.247.18 1.65.539.403.36.605.847.605 1.463V55h-.968v-1.155h-.165l.165-.165c0 .44-.172.788-.517 1.045-.337.257-.788.385-1.353.385zm.242-.781c.469 0 .854-.117 1.155-.352.301-.235.451-.535.451-.902v-.858h-1.848c-.33 0-.59.092-.781.275-.191.183-.286.433-.286.748 0 .337.114.605.341.803.235.19.557.286.968.286zm8.917 2.211V55h-4.301v-6.05h.99v5.17h2.376v-5.17h.99v5.17h.825v2.42h-.88zM191.81 55v-6.05h.946v3.3c0 .213-.007.436-.022.671a9.185 9.185 0 01-.044.671 6.655 6.655 0 01-.055.528l2.442-5.17h1.265V55h-.946v-3.3c0-.213.004-.436.011-.671.015-.235.033-.458.055-.671l.055-.539L193.075 55h-1.265zm9.808.11c-.506 0-.913-.172-1.221-.517-.308-.345-.462-.796-.462-1.353v-.913h-.968V55h-.913v-6.05h.913v2.585h.968v-.825c0-.565.15-1.016.451-1.353.308-.345.719-.517 1.232-.517.543 0 .979.172 1.309.517.33.337.495.788.495 1.353v2.53c0 .557-.165 1.008-.495 1.353-.33.345-.766.517-1.309.517zm0-.77c.279 0 .495-.095.649-.286.161-.198.242-.47.242-.814v-2.53c0-.345-.081-.612-.242-.803-.154-.198-.37-.297-.649-.297a.764.764 0 00-.638.297c-.154.19-.231.458-.231.803v2.53c0 .345.077.616.231.814.154.19.367.286.638.286zm12.245.748c-.484 0-.902-.092-1.254-.275a1.996 1.996 0 01-.825-.792c-.19-.352-.286-.766-.286-1.243v-1.606c0-.484.096-.898.286-1.243.198-.345.473-.609.825-.792.352-.183.77-.275 1.254-.275s.902.092 1.254.275c.352.183.624.447.814.792.198.345.297.755.297 1.232v1.617c0 .477-.099.891-.297 1.243a1.92 1.92 0 01-.814.792c-.352.183-.77.275-1.254.275zm0-.88c.433 0 .77-.121 1.012-.363s.363-.598.363-1.067v-1.606c0-.47-.121-.825-.363-1.067s-.579-.363-1.012-.363c-.425 0-.762.121-1.012.363-.242.242-.363.598-.363 1.067v1.606c0 .47.121.825.363 1.067.25.242.587.363 1.012.363zm10.959.792v-6.05h.99v2.497h1.034l1.76-2.497h1.133l-2.035 2.882L229.772 55h-1.155l-1.76-2.695h-1.045V55h-.99zm5.804.077v-.924h.198c.337 0 .572-.132.704-.396.139-.264.212-.737.22-1.419l.066-3.388h4.103V55h-.99v-5.148h-2.134l-.055 2.53c-.015.638-.088 1.155-.22 1.551-.125.396-.323.686-.594.869-.264.183-.613.275-1.045.275h-.253zM237.98 55v-6.05h.946v3.3c0 .213-.007.436-.022.671a9.185 9.185 0 01-.044.671 6.655 6.655 0 01-.055.528l2.442-5.17h1.265V55h-.946v-3.3c0-.213.004-.436.011-.671.015-.235.033-.458.055-.671l.055-.539L239.245 55h-1.265zm8.862.11c-.477 0-.895-.095-1.254-.286a2.07 2.07 0 01-.825-.803c-.191-.352-.286-.759-.286-1.221v-1.65c0-.47.095-.876.286-1.221a2.07 2.07 0 01.825-.803c.359-.19.777-.286 1.254-.286s.891.095 1.243.286c.359.19.634.458.825.803.198.345.297.752.297 1.221v1.067h-3.762v.583c0 .477.121.843.363 1.1.242.25.587.374 1.034.374.381 0 .689-.066.924-.198a.872.872 0 00.429-.616h.99c-.066.506-.315.91-.748 1.21-.425.293-.957.44-1.595.44zm1.397-3.553v-.407c0-.477-.121-.843-.363-1.1-.235-.257-.579-.385-1.034-.385-.447 0-.792.128-1.034.385s-.363.623-.363 1.1v.319h2.871l-.077.088zM251.172 55v-6.05h.99v2.519h2.552V48.95h.99V55h-.99v-2.629h-2.552V55h-.99zm8.366 0v-5.181h-2.2v-.869h5.39v.869h-2.2V55h-.99zm6.563.11c-.638 0-1.14-.161-1.507-.484-.367-.33-.55-.774-.55-1.331 0-.565.183-1.008.55-1.331.367-.323.862-.484 1.485-.484h1.87v-.605c0-.374-.114-.66-.341-.858-.22-.205-.535-.308-.946-.308-.359 0-.66.077-.902.231a.823.823 0 00-.418.605h-.99c.066-.52.312-.935.737-1.243.425-.308.957-.462 1.595-.462.697 0 1.247.18 1.65.539.403.36.605.847.605 1.463V55h-.968v-1.155h-.165l.165-.165c0 .44-.172.788-.517 1.045-.337.257-.788.385-1.353.385zm.242-.781c.469 0 .854-.117 1.155-.352.301-.235.451-.535.451-.902v-.858h-1.848c-.33 0-.59.092-.781.275-.191.183-.286.433-.286.748 0 .337.114.605.341.803.235.19.557.286.968.286zm4.132.671l2.145-3.113-2.013-2.937h1.166l1.199 1.87c.051.08.099.169.143.264.051.095.091.172.121.231.022-.059.055-.136.099-.231a3.93 3.93 0 01.154-.264l1.21-1.87h1.155l-2.013 2.948L275.975 55h-1.166l-1.298-1.98a2.846 2.846 0 01-.154-.275 2.512 2.512 0 00-.121-.264c-.03.066-.074.154-.132.264a2.083 2.083 0 01-.165.275L271.63 55h-1.155zm9.346.11c-.279 0-.503-.08-.671-.242-.162-.161-.242-.378-.242-.649 0-.286.08-.513.242-.682.168-.169.392-.253.671-.253.278 0 .498.084.66.253.168.169.253.396.253.682 0 .271-.085.488-.253.649-.162.161-.382.242-.66.242z" fill="#fff"/><rect x=".5" y=".5" width="305" height="72" rx="10.5" stroke="#CCEC60"/></svg>