<svg width="153" height="200" fill="none" xmlns="http://www.w3.org/2000/svg"><rect x=".421" y=".421" width="152.158" height="199.158" rx="19.579" fill="url(#paint0_linear_441_988)" fill-opacity=".53" stroke="url(#paint1_linear_441_988)" stroke-width=".842"/><mask id="a" style="mask-type:alpha" maskUnits="userSpaceOnUse" x="0" y="28" width="153" height="172"><rect x=".421" y="28.421" width="152.158" height="171.158" rx="19.579" fill="url(#paint2_linear_441_988)" fill-opacity=".53" stroke="url(#paint3_linear_441_988)" stroke-width=".842"/></mask><g filter="url(#filter0_f_441_988)" mask="url(#a)"><path d="M10 227.914c-5.136 0-9.511-1.398-13.125-4.193-3.614-2.818-6.375-6.898-8.284-12.239-1.91-5.363-2.864-11.841-2.864-19.432 0-7.545.955-13.988 2.864-19.329 1.932-5.364 4.704-9.455 8.318-12.273 3.636-2.841 8-4.261 13.091-4.261 5.09 0 9.443 1.42 13.057 4.261 3.636 2.818 6.409 6.909 8.318 12.273 1.932 5.341 2.898 11.784 2.898 19.329 0 7.591-.955 14.069-2.864 19.432-1.909 5.341-4.67 9.421-8.284 12.239-3.614 2.795-7.989 4.193-13.125 4.193zm0-7.5c5.09 0 9.046-2.455 11.864-7.364 2.818-4.909 4.227-11.909 4.227-21 0-6.045-.648-11.193-1.943-15.443-1.273-4.25-3.114-7.488-5.523-9.716-2.386-2.227-5.261-3.341-8.625-3.341-5.045 0-8.989 2.489-11.83 7.466-2.84 4.955-4.26 11.966-4.26 21.034 0 6.046.635 11.182 1.908 15.409 1.273 4.228 3.102 7.444 5.489 9.648 2.409 2.205 5.307 3.307 8.693 3.307zm37.227 6.545v-6.136l23.046-25.227c2.704-2.955 4.931-5.523 6.681-7.705 1.75-2.204 3.046-4.272 3.887-6.204.864-1.955 1.295-4 1.295-6.137 0-2.454-.59-4.579-1.772-6.375-1.16-1.795-2.75-3.181-4.773-4.159-2.023-.977-4.295-1.466-6.818-1.466-2.682 0-5.023.557-7.023 1.671a11.501 11.501 0 00-4.602 4.602c-1.069 1.977-1.603 4.296-1.603 6.955H47.5c0-4.091.943-7.682 2.83-10.773 1.886-3.091 4.454-5.5 7.704-7.227 3.273-1.728 6.943-2.591 11.012-2.591 4.09 0 7.715.863 10.874 2.591 3.16 1.727 5.637 4.056 7.432 6.988 1.796 2.932 2.694 6.193 2.694 9.784 0 2.569-.467 5.08-1.398 7.534-.91 2.432-2.5 5.148-4.773 8.148-2.25 2.977-5.375 6.614-9.375 10.909l-15.682 16.773v.545h32.455v7.5H47.227z" fill="#CCEC60"/></g><path d="M9.792 28v-8.76h1.8v3.36h2.016v-3.36h1.8V28h-1.8v-3.72h-2.016V28h-1.8zm10.015.12c-.584 0-1.096-.108-1.536-.324a2.505 2.505 0 01-1.008-.924c-.232-.4-.348-.864-.348-1.392v-1.56c0-.528.116-.988.348-1.38.24-.4.576-.708 1.008-.924.44-.224.952-.336 1.536-.336.584 0 1.088.112 1.512.336.432.216.764.524.996.924.24.392.36.852.36 1.38v1.2h-4.044v.36c0 .416.1.732.3.948.2.208.5.312.9.312.28 0 .504-.048.672-.144a.698.698 0 00.348-.396h1.764c-.144.576-.472 1.04-.984 1.392-.504.352-1.112.528-1.824.528zm1.152-3.924v-.3c0-.408-.096-.72-.288-.936-.184-.216-.472-.324-.864-.324s-.688.112-.888.336c-.192.224-.288.54-.288.948v.18l2.448-.024-.12.12zm5.996 3.924c-.872 0-1.568-.22-2.088-.66-.52-.44-.796-1.04-.828-1.8h1.8c.024.288.132.512.324.672.2.152.464.228.792.228.36 0 .636-.092.828-.276.192-.192.288-.46.288-.804v-.12h-1.884v-1.368h1.884v-.072c0-.352-.096-.62-.288-.804-.192-.184-.468-.276-.828-.276-.32 0-.58.08-.78.24-.2.16-.312.38-.336.66h-1.8c.032-.76.308-1.36.828-1.8.52-.44 1.216-.66 2.088-.66.592 0 1.104.112 1.536.336.44.216.78.52 1.02.912s.36.856.36 1.392v1.56c0 .528-.12.992-.36 1.392-.24.392-.58.7-1.02.924-.432.216-.944.324-1.536.324zm6.499 2.04V28c-.76 0-1.36-.22-1.8-.66-.432-.448-.648-1.056-.648-1.824v-1.644c0-.76.22-1.36.66-1.8.44-.448 1.036-.672 1.788-.672v-2.16h1.464v2.16c.76 0 1.356.224 1.788.672.44.44.66 1.04.66 1.8v1.644c0 .768-.22 1.376-.66 1.824-.432.44-1.028.66-1.788.66v2.16h-1.464zm.084-3.576v-3.78c-.312 0-.56.096-.744.288-.176.184-.264.444-.264.78v1.644c0 .336.088.6.264.792.184.184.432.276.744.276zm1.296 0c.312 0 .556-.092.732-.276.184-.192.276-.456.276-.792v-1.644c0-.336-.092-.596-.276-.78-.176-.192-.42-.288-.732-.288v3.78zm5.815 3.576V28c-.76 0-1.36-.22-1.8-.66-.432-.448-.648-1.056-.648-1.824v-1.644c0-.76.22-1.36.66-1.8.44-.448 1.036-.672 1.788-.672v-2.16h1.464v2.16c.76 0 1.356.224 1.788.672.44.44.66 1.04.66 1.8v1.644c0 .768-.22 1.376-.66 1.824-.432.44-1.028.66-1.788.66v2.16H40.65zm.084-3.576v-3.78c-.312 0-.56.096-.744.288-.176.184-.264.444-.264.78v1.644c0 .336.088.6.264.792.184.184.432.276.744.276zm1.296 0c.312 0 .556-.092.732-.276.184-.192.276-.456.276-.792v-1.644c0-.336-.092-.596-.276-.78-.176-.192-.42-.288-.732-.288v3.78zm6.56 1.536c-.584 0-1.096-.108-1.536-.324a2.505 2.505 0 01-1.008-.924c-.232-.4-.348-.864-.348-1.392v-1.56c0-.528.116-.988.348-1.38.24-.4.576-.708 1.008-.924.44-.224.952-.336 1.536-.336.584 0 1.088.112 1.512.336.432.216.764.524.996.924.24.392.36.852.36 1.38v1.2h-4.044v.36c0 .416.1.732.3.948.2.208.5.312.9.312.28 0 .504-.048.672-.144a.698.698 0 00.348-.396h1.764c-.144.576-.472 1.04-.984 1.392-.504.352-1.112.528-1.824.528zm1.152-3.924v-.3c0-.408-.096-.72-.288-.936-.184-.216-.472-.324-.864-.324s-.688.112-.888.336c-.192.224-.288.54-.288.948v.18l2.448-.024-.12.12zM53 28v-6.6h1.8v2.496h.888l1.38-2.496h2.004l-1.836 3.228L59.108 28h-2.04l-1.392-2.592H54.8V28H53zm9.067 0v-4.92h-2.16V21.4h6.12v1.68h-2.16V28h-1.8zm5.288 0v-6.6h1.584v3c0 .2-.012.452-.036.756a18.15 18.15 0 01-.097.9c-.031.304-.067.572-.108.804l2.089-5.46h2.183V28h-1.584v-3c0-.208.013-.444.037-.708.023-.272.052-.544.084-.816.031-.272.063-.504.096-.696L69.538 28h-2.184zm7.183 0v-6.6h2.988c.808 0 1.448.164 1.92.492.48.32.72.756.72 1.308 0 .44-.18.796-.54 1.068-.36.264-.836.396-1.428.396v-.12c.648 0 1.164.144 1.548.432.392.288.588.668.588 1.14 0 .584-.24 1.044-.72 1.38-.472.336-1.116.504-1.932.504h-3.144zm1.764-1.272h1.296c.296 0 .532-.068.708-.204a.671.671 0 00.276-.552.694.694 0 00-.276-.576c-.176-.144-.412-.216-.708-.216h-1.296v1.548zm0-2.604h1.236c.272 0 .488-.064.648-.192a.66.66 0 00.24-.528.674.674 0 00-.24-.54c-.16-.136-.376-.204-.648-.204h-1.236v1.464zM81.745 28v-6.6h1.8v2.412h2.016V21.4h1.8V28h-1.8v-2.508h-2.016V28h-1.8zm9.151.12c-.664 0-1.192-.18-1.584-.54-.384-.36-.576-.848-.576-1.464 0-.664.228-1.172.684-1.524.464-.36 1.128-.54 1.992-.54h1.368v-.492a.753.753 0 00-.276-.612c-.176-.152-.416-.228-.72-.228-.28 0-.512.064-.696.192a.787.787 0 00-.336.528h-1.74c.072-.664.36-1.188.864-1.572.512-.392 1.168-.588 1.968-.588.84 0 1.504.208 1.992.624.496.408.744.96.744 1.656V28h-1.74v-1.08h-.288l.3-.42c0 .496-.18.892-.54 1.188-.352.288-.824.432-1.416.432zm.672-1.32c.352 0 .64-.092.864-.276a.921.921 0 00.348-.744v-.708h-1.332c-.272 0-.492.08-.66.24-.168.152-.252.356-.252.612 0 .272.092.488.276.648.184.152.436.228.756.228zm4.376 1.2l1.44-2.316a2.07 2.07 0 01-.996-.756 2.065 2.065 0 01-.36-1.212c0-.728.244-1.296.732-1.704.488-.408 1.164-.612 2.028-.612h2.964V28h-1.788v-2.088h-.792L97.972 28h-2.028zm2.952-3.456h1.08v-1.716h-1.08c-.336 0-.6.076-.792.228-.192.152-.288.364-.288.636s.092.484.276.636c.192.144.46.216.804.216zM9.792 44v-6.6h5.616V44h-1.8v-4.92h-2.016V44h-1.8zm10.003.12c-.584 0-1.092-.108-1.524-.324a2.505 2.505 0 01-1.008-.924c-.232-.4-.348-.864-.348-1.392v-1.56c0-.528.116-.988.348-1.38.24-.4.576-.708 1.008-.924.432-.224.94-.336 1.524-.336.592 0 1.1.112 1.524.336.432.216.764.524.996.924.24.392.36.852.36 1.38v1.56c0 .528-.12.992-.36 1.392-.232.392-.564.7-.996.924-.424.216-.932.324-1.524.324zm0-1.56c.352 0 .62-.092.804-.276.184-.192.276-.46.276-.804v-1.56c0-.352-.092-.62-.276-.804-.184-.184-.452-.276-.804-.276-.344 0-.612.092-.804.276-.184.184-.276.452-.276.804v1.56c0 .344.092.612.276.804.192.184.46.276.804.276zm7.232 1.56c-.584 0-1.096-.108-1.536-.324a2.488 2.488 0 01-1.02-.924c-.24-.4-.36-.864-.36-1.392v-1.56c0-.536.12-1 .36-1.392.24-.392.58-.696 1.02-.912.44-.224.952-.336 1.536-.336.872 0 1.568.22 2.088.66.52.44.796 1.04.828 1.8h-1.8a.904.904 0 00-.336-.66c-.192-.16-.452-.24-.78-.24-.36 0-.636.092-.828.276-.192.184-.288.452-.288.804v1.56c0 .344.096.612.288.804.192.184.468.276.828.276.328 0 .588-.076.78-.228.2-.16.312-.384.336-.672h1.8c-.032.76-.308 1.36-.828 1.8-.52.44-1.216.66-2.088.66zm6.307 0c-.664 0-1.192-.18-1.584-.54-.384-.36-.576-.848-.576-1.464 0-.664.228-1.172.684-1.524.464-.36 1.128-.54 1.992-.54h1.368v-.492a.753.753 0 00-.276-.612c-.176-.152-.416-.228-.72-.228-.28 0-.512.064-.696.192a.787.787 0 00-.336.528h-1.74c.072-.664.36-1.188.864-1.572.512-.392 1.168-.588 1.968-.588.84 0 1.504.208 1.992.624.496.408.744.96.744 1.656V44h-1.74v-1.08h-.288l.3-.42c0 .496-.18.892-.54 1.188-.352.288-.824.432-1.416.432zm.672-1.32c.352 0 .64-.092.864-.276a.921.921 0 00.348-.744v-.708h-1.332c-.272 0-.492.08-.66.24-.168.152-.252.356-.252.612 0 .272.092.488.276.648.184.152.436.228.756.228zm4.04 2.88v-3.204h.371c.136-.136.276-.372.42-.708.152-.344.232-.76.24-1.248l.06-3.12h4.86v5.076h.72v3.204h-1.68V44h-3.312v1.68h-1.68zm2.16-3.204h2.111v-3.528h-1.524l-.036 1.56a3.767 3.767 0 01-.204 1.224c-.12.344-.236.592-.348.744zm8.37 1.644c-.583 0-1.091-.108-1.523-.324a2.505 2.505 0 01-1.008-.924c-.232-.4-.348-.864-.348-1.392v-1.56c0-.528.116-.988.348-1.38.24-.4.576-.708 1.008-.924.432-.224.94-.336 1.524-.336.592 0 1.1.112 1.524.336.432.216.764.524.996.924.24.392.36.852.36 1.38v1.56c0 .528-.12.992-.36 1.392-.232.392-.564.7-.996.924-.424.216-.932.324-1.524.324zm0-1.56c.353 0 .62-.092.805-.276.184-.192.276-.46.276-.804v-1.56c0-.352-.092-.62-.276-.804-.184-.184-.452-.276-.804-.276-.344 0-.612.092-.804.276-.184.184-.276.452-.276.804v1.56c0 .344.092.612.276.804.192.184.46.276.804.276zM56.733 44v-2.1a5.583 5.583 0 01-.456.084c-.2.024-.428.036-.684.036-.872 0-1.56-.216-2.064-.648-.504-.44-.756-1.044-.756-1.812V37.4h1.8v2.04c0 .296.108.532.324.708.216.168.508.252.876.252.224 0 .42-.012.588-.036.176-.032.3-.06.372-.084V37.4h1.8V44h-1.8zm3.427 0v-6.6h1.8v2.412h2.016V37.4h1.8V44h-1.8v-2.508H61.96V44h-1.8zm9.152.12c-.665 0-1.193-.18-1.585-.54-.383-.36-.576-.848-.576-1.464 0-.664.228-1.172.684-1.524.465-.36 1.129-.54 1.992-.54h1.369v-.492a.753.753 0 00-.276-.612c-.176-.152-.416-.228-.72-.228-.28 0-.513.064-.697.192a.787.787 0 00-.335.528h-1.74c.072-.664.36-1.188.863-1.572.512-.392 1.168-.588 1.968-.588.84 0 1.505.208 1.993.624.495.408.743.96.743 1.656V44h-1.74v-1.08h-.288l.3-.42c0 .496-.18.892-.54 1.188-.352.288-.823.432-1.415.432zm.671-1.32c.353 0 .64-.092.865-.276a.921.921 0 00.348-.744v-.708h-1.332c-.272 0-.492.08-.66.24-.169.152-.252.356-.252.612 0 .272.092.488.276.648.183.152.435.228.755.228zm4.376 1.2l1.44-2.316a2.07 2.07 0 01-.996-.756 2.065 2.065 0 01-.36-1.212c0-.728.244-1.296.732-1.704.488-.408 1.164-.612 2.028-.612h2.964V44h-1.788v-2.088h-.792L76.386 44h-2.028zm2.952-3.456h1.08v-1.716h-1.08c-.336 0-.6.076-.792.228-.192.152-.288.364-.288.636s.092.484.276.636c.192.144.46.216.804.216zM12.636 60.12c-.584 0-1.096-.108-1.536-.324a2.488 2.488 0 01-1.02-.924c-.24-.4-.36-.864-.36-1.392v-1.56c0-.536.12-1 .36-1.392.24-.392.58-.696 1.02-.912.44-.224.952-.336 1.536-.336.872 0 1.568.22 2.088.66.52.44.796 1.04.828 1.8h-1.8a.904.904 0 00-.336-.66c-.192-.16-.452-.24-.78-.24-.36 0-.636.092-.828.276-.192.184-.288.452-.288.804v1.56c0 .344.096.612.288.804.192.184.468.276.828.276.328 0 .588-.076.78-.228.2-.16.312-.384.336-.672h1.8c-.032.76-.308 1.36-.828 1.8-.52.44-1.216.66-2.088.66zm6.26-.12v-4.92h-2.16V53.4h6.12v1.68h-2.16V60h-1.8zm5.287 2.16V53.4h1.74v1.26h.42l-.42.42c0-.568.156-1.008.468-1.32.312-.32.74-.48 1.284-.48.664 0 1.196.236 1.596.708.4.464.6 1.088.6 1.872v1.68c0 .52-.092.976-.276 1.368a2.093 2.093 0 01-.756.9c-.328.208-.716.312-1.164.312-.544 0-.972-.156-1.284-.468-.312-.32-.468-.764-.468-1.332l.42.42h-.42l.06 1.62v1.8h-1.8zm2.844-3.6c.336 0 .592-.092.768-.276.184-.192.276-.46.276-.804v-1.56c0-.352-.092-.62-.276-.804-.176-.184-.432-.276-.768-.276-.328 0-.584.096-.768.288-.184.184-.276.448-.276.792v1.56c0 .344.092.612.276.804.184.184.44.276.768.276zm6.307 1.56c-.664 0-1.192-.18-1.584-.54-.384-.36-.576-.848-.576-1.464 0-.664.228-1.172.684-1.524.464-.36 1.128-.54 1.992-.54h1.368v-.492a.753.753 0 00-.276-.612c-.176-.152-.416-.228-.72-.228-.28 0-.512.064-.696.192a.787.787 0 00-.336.528h-1.74c.072-.664.36-1.188.864-1.572.512-.392 1.168-.588 1.968-.588.84 0 1.504.208 1.992.624.496.408.744.96.744 1.656V60h-1.74v-1.08h-.288l.3-.42c0 .496-.18.892-.54 1.188-.352.288-.824.432-1.416.432zm.672-1.32c.352 0 .64-.092.864-.276a.921.921 0 00.348-.744v-.708h-1.332c-.272 0-.492.08-.66.24-.168.152-.252.356-.252.612 0 .272.092.488.276.648.184.152.436.228.756.228zm4.567 1.2v-6.6h1.8v2.412h2.016V53.4h1.8V60h-1.8v-2.508h-2.016V60h-1.8zm7.196 0v-6.6h1.584v3c0 .2-.012.452-.036.756-.024.296-.056.596-.096.9-.032.304-.068.572-.108.804L49.2 53.4h2.184V60H49.8v-3c0-.208.012-.444.036-.708.024-.272.052-.544.084-.816.032-.272.064-.504.096-.696L47.953 60h-2.184zm11.659 1.68V60h-4.464v-6.6h1.8v4.92h1.644V53.4h1.8v4.92h.9v3.36h-1.68zm4.687-1.56c-.664 0-1.192-.18-1.584-.54-.384-.36-.576-.848-.576-1.464 0-.664.228-1.172.684-1.524.464-.36 1.128-.54 1.992-.54H64v-.492a.753.753 0 00-.276-.612c-.176-.152-.416-.228-.72-.228-.28 0-.512.064-.696.192a.787.787 0 00-.336.528h-1.74c.072-.664.36-1.188.864-1.572.512-.392 1.168-.588 1.968-.588.84 0 1.504.208 1.992.624.496.408.744.96.744 1.656V60h-1.74v-1.08h-.288l.3-.42c0 .496-.18.892-.54 1.188-.352.288-.824.432-1.416.432zm.672-1.32c.352 0 .64-.092.864-.276A.921.921 0 0064 57.78v-.708h-1.332c-.272 0-.492.08-.66.24-.168.152-.252.356-.252.612 0 .272.092.488.276.648.184.152.436.228.756.228zm7.375-3.36c-.36 0-.652-.1-.876-.3-.216-.2-.323-.46-.323-.78 0-.328.108-.588.324-.78.223-.2.515-.3.875-.3s.648.1.864.3c.225.192.337.452.337.78 0 .32-.112.58-.337.78-.215.2-.504.3-.864.3zm0 4.68c-.36 0-.652-.1-.876-.3-.216-.2-.323-.46-.323-.78 0-.328.108-.588.324-.78.223-.2.515-.3.875-.3s.648.1.864.3c.225.192.337.452.337.78 0 .32-.112.58-.337.78-.215.2-.504.3-.864.3zM10.128 76v-6.6h1.08v2.748h2.784V69.4h1.08V76h-1.08v-2.868h-2.784V76h-1.08zm9.667.12c-.52 0-.976-.104-1.368-.312a2.258 2.258 0 01-.9-.876c-.208-.384-.312-.828-.312-1.332v-1.8c0-.512.104-.956.312-1.332.216-.376.516-.668.9-.876.392-.208.848-.312 1.368-.312.52 0 .972.104 1.356.312.392.208.692.5.9.876.216.376.324.82.324 1.332v1.164h-4.104v.636c0 .52.132.92.396 1.2.264.272.64.408 1.128.408.416 0 .752-.072 1.008-.216a.953.953 0 00.468-.672h1.08c-.072.552-.344.992-.816 1.32-.464.32-1.044.48-1.74.48zm1.524-3.876V71.8c0-.52-.132-.92-.396-1.2-.256-.28-.632-.42-1.128-.42-.488 0-.864.14-1.128.42-.264.28-.396.68-.396 1.2v.348h3.132l-.084.096zm2.432 5.436v-2.604h.54c.136-.136.276-.404.42-.804.152-.4.232-.908.24-1.524l.072-3.348h4.308v5.676h.84v2.604h-.96V76h-4.5v1.68h-.96zm1.68-2.604h2.82V70.36h-2.208l-.048 2.412c-.008.632-.076 1.144-.204 1.536-.128.392-.248.648-.36.768zm8.755 1.02c-.528 0-.984-.1-1.368-.3a2.178 2.178 0 01-.9-.864c-.208-.384-.312-.836-.312-1.356v-1.752c0-.528.104-.98.312-1.356.216-.376.516-.664.9-.864.384-.2.84-.3 1.368-.3.528 0 .984.1 1.368.3.384.2.68.488.888.864.216.376.324.824.324 1.344v1.764c0 .52-.108.972-.324 1.356a2.103 2.103 0 01-.888.864c-.384.2-.84.3-1.368.3zm0-.96c.472 0 .84-.132 1.104-.396.264-.264.396-.652.396-1.164v-1.752c0-.512-.132-.9-.396-1.164-.264-.264-.632-.396-1.104-.396-.464 0-.832.132-1.104.396-.264.264-.396.652-.396 1.164v1.752c0 .512.132.9.396 1.164.272.264.64.396 1.104.396zm7.22.984c-.529 0-.993-.1-1.393-.3a2.161 2.161 0 01-.912-.864c-.216-.384-.324-.836-.324-1.356v-1.8c0-.528.108-.98.324-1.356.216-.376.52-.664.912-.864.4-.2.864-.3 1.392-.3.76 0 1.372.204 1.836.612.464.408.708.964.732 1.668h-1.08c-.024-.424-.168-.748-.432-.972-.256-.232-.608-.348-1.056-.348-.472 0-.848.136-1.128.408-.28.264-.42.644-.42 1.14V73.6c0 .496.14.88.42 1.152.28.272.656.408 1.128.408.448 0 .8-.116 1.056-.348.264-.232.408-.556.432-.972h1.08c-.024.704-.268 1.26-.732 1.668-.464.408-1.076.612-1.836.612zm6.63-.12v-5.652h-2.4V69.4h5.88v.948h-2.4V76h-1.08zm7.16.12c-.696 0-1.244-.176-1.644-.528-.4-.36-.6-.844-.6-1.452 0-.616.2-1.1.6-1.452.4-.352.94-.528 1.62-.528h2.04v-.66c0-.408-.124-.72-.372-.936-.24-.224-.584-.336-1.032-.336-.392 0-.72.084-.984.252-.264.16-.416.38-.456.66h-1.08c.072-.568.34-1.02.804-1.356.464-.336 1.044-.504 1.74-.504.76 0 1.36.196 1.8.588.44.392.66.924.66 1.596V76h-1.056v-1.26h-.18l.18-.18c0 .48-.188.86-.564 1.14-.368.28-.86.42-1.476.42zm.264-.852c.512 0 .932-.128 1.26-.384.328-.256.492-.584.492-.984v-.936h-2.016c-.36 0-.644.1-.852.3-.208.2-.312.472-.312.816 0 .368.124.66.372.876.256.208.608.312 1.056.312zm6.967.732v-5.652h-2.4V69.4h5.88v.948h-2.4V76h-1.08zm7.735.096c-.528 0-.984-.1-1.368-.3a2.178 2.178 0 01-.9-.864c-.208-.384-.312-.836-.312-1.356v-1.752c0-.528.105-.98.313-1.356.216-.376.516-.664.9-.864.383-.2.84-.3 1.367-.3.528 0 .984.1 1.368.3.385.2.68.488.888.864.216.376.325.824.325 1.344v1.764c0 .52-.108.972-.325 1.356a2.103 2.103 0 01-.888.864c-.383.2-.84.3-1.368.3zm0-.96c.472 0 .84-.132 1.104-.396.264-.264.396-.652.396-1.164v-1.752c0-.512-.132-.9-.396-1.164-.264-.264-.632-.396-1.104-.396-.464 0-.832.132-1.104.396-.264.264-.396.652-.396 1.164v1.752c0 .512.132.9.396 1.164.272.264.64.396 1.104.396zm8.516.864v-2.4a5.25 5.25 0 01-.588.096 8.757 8.757 0 01-.816.036c-.816.008-1.452-.188-1.908-.588-.448-.408-.672-.976-.672-1.704V69.4h1.08v2.04c0 .408.136.732.408.972.28.232.664.348 1.152.348.336 0 .62-.012.852-.036.24-.032.404-.06.492-.084V69.4h1.08V76h-1.08zm3.403 0v-6.6h1.08v2.748h2.784V69.4h1.08V76h-1.08v-2.868h-2.784V76h-1.08zm9.667.096c-.528 0-.984-.1-1.368-.3a2.178 2.178 0 01-.9-.864c-.208-.384-.312-.836-.312-1.356v-1.752c0-.528.104-.98.312-1.356.216-.376.516-.664.9-.864.384-.2.84-.3 1.368-.3.528 0 .984.1 1.368.3.384.2.68.488.888.864.216.376.324.824.324 1.344v1.764c0 .52-.108.972-.324 1.356a2.103 2.103 0 01-.888.864c-.384.2-.84.3-1.368.3zm0-.96c.472 0 .84-.132 1.104-.396.264-.264.396-.652.396-1.164v-1.752c0-.512-.132-.9-.396-1.164-.264-.264-.632-.396-1.104-.396-.464 0-.832.132-1.104.396-.264.264-.396.652-.396 1.164v1.752c0 .512.132.9.396 1.164.272.264.64.396 1.104.396zM11.136 94.16l.972-2.568L9.66 85.4h1.2l1.536 4.08c.056.136.108.3.156.492l.12.468.12-.468c.048-.192.096-.356.144-.492l1.44-4.08h1.164l-3.252 8.76h-1.152zm8.66-2.04c-.777 0-1.393-.228-1.849-.684-.448-.464-.672-1.096-.672-1.896v-3c0-1.056.264-1.868.792-2.436.528-.576 1.284-.864 2.268-.864h1.68v1.08h-1.68c-.648 0-1.14.192-1.476.576-.336.376-.504.924-.504 1.644v.78h.168l-.168.24c.008-.472.168-.84.48-1.104.312-.264.736-.396 1.272-.396.696 0 1.236.224 1.62.672.392.448.588 1.064.588 1.848v.96c0 .536-.1.996-.3 1.38-.2.384-.488.68-.864.888-.376.208-.828.312-1.356.312zm0-.96c.463 0 .82-.14 1.067-.42.248-.28.372-.68.372-1.2v-.96c0-.52-.124-.92-.372-1.2-.248-.28-.604-.42-1.068-.42-.464 0-.82.14-1.068.42-.248.272-.372.672-.372 1.2v.96c0 .52.124.92.372 1.2.248.28.604.42 1.068.42zm7.195.96c-.52 0-.976-.104-1.368-.312a2.258 2.258 0 01-.9-.876c-.208-.384-.312-.828-.312-1.332v-1.8c0-.512.104-.956.312-1.332.216-.376.516-.668.9-.876.392-.208.848-.312 1.368-.312.52 0 .972.104 1.356.312.392.208.692.5.9.876.216.376.324.82.324 1.332v1.164h-4.104v.636c0 .52.132.92.396 1.2.264.272.64.408 1.128.408.416 0 .752-.072 1.008-.216a.953.953 0 00.468-.672h1.08c-.072.552-.344.992-.816 1.32-.464.32-1.044.48-1.74.48zm1.524-3.876V87.8c0-.52-.132-.92-.396-1.2-.256-.28-.632-.42-1.128-.42-.488 0-.864.14-1.128.42-.264.28-.396.68-.396 1.2v.348h3.132l-.084.096zm2.43 5.436v-2.604h.54c.137-.136.277-.404.42-.804.153-.4.233-.908.24-1.524l.073-3.348h4.308v5.676h.84v2.604h-.96V92h-4.5v1.68h-.96zm1.68-2.604h2.82V86.36h-2.207l-.048 2.412c-.008.632-.076 1.144-.204 1.536-.128.392-.248.648-.36.768zM38.91 92v-6.6h1.032V89c0 .232-.008.476-.024.732-.008.256-.024.5-.048.732a7.615 7.615 0 01-.06.576l2.664-5.64h1.38V92h-1.032v-3.6c0-.232.004-.476.012-.732.016-.256.036-.5.06-.732l.06-.588L40.29 92h-1.38zm9.128 0v-5.652h-2.4V85.4h5.88v.948h-2.4V92h-1.08zm7.735.12c-.52 0-.976-.104-1.368-.312a2.258 2.258 0 01-.9-.876c-.208-.384-.312-.828-.312-1.332v-1.8c0-.512.104-.956.312-1.332.216-.376.516-.668.9-.876.392-.208.848-.312 1.368-.312.52 0 .972.104 1.356.312.392.208.692.5.9.876.216.376.324.82.324 1.332v1.164h-4.104v.636c0 .52.132.92.396 1.2.264.272.64.408 1.128.408.416 0 .752-.072 1.008-.216a.953.953 0 00.468-.672h1.08c-.072.552-.344.992-.816 1.32-.464.32-1.044.48-1.74.48zm1.524-3.876V87.8c0-.52-.132-.92-.396-1.2-.256-.28-.632-.42-1.128-.42-.488 0-.864.14-1.128.42-.264.28-.396.68-.396 1.2v.348h3.132l-.084.096zm2.371 3.84v-1.008h.216c.368 0 .624-.144.768-.432.152-.288.232-.804.24-1.548l.072-3.696h4.476V92h-1.08v-5.616h-2.328l-.06 2.76c-.016.696-.096 1.26-.24 1.692-.136.432-.352.748-.648.948-.288.2-.668.3-1.14.3h-.276zM67.74 92v-6.6h1.08v2.424h1.944c.743 0 1.328.188 1.751.564.433.368.648.876.648 1.524 0 .64-.216 1.148-.648 1.524-.431.376-1.015.564-1.751.564h-3.025zm1.08-.984h1.944c.415 0 .731-.092.947-.276.225-.192.337-.468.337-.828 0-.36-.112-.632-.337-.816-.215-.192-.531-.288-.947-.288h-1.945v2.208zm6.067.984v-6.6h1.08v2.748h2.784V85.4h1.08V92h-1.08v-2.868h-2.784V92h-1.08zm9.667.096c-.528 0-.984-.1-1.368-.3a2.178 2.178 0 01-.9-.864c-.208-.384-.312-.836-.312-1.356v-1.752c0-.528.104-.98.312-1.356.216-.376.516-.664.9-.864.384-.2.84-.3 1.368-.3.528 0 .984.1 1.368.3.384.2.68.488.888.864.216.376.324.824.324 1.344v1.764c0 .52-.108.972-.324 1.356a2.103 2.103 0 01-.888.864c-.384.2-.84.3-1.368.3zm0-.96c.472 0 .84-.132 1.104-.396.264-.264.396-.652.396-1.164v-1.752c0-.512-.132-.9-.396-1.164-.264-.264-.632-.396-1.104-.396-.464 0-.832.132-1.104.396-.264.264-.396.652-.396 1.164v1.752c0 .512.132.9.396 1.164.272.264.64.396 1.104.396zm7.195.984c-.52 0-.976-.104-1.368-.312a2.258 2.258 0 01-.9-.876c-.208-.384-.312-.828-.312-1.332v-1.8c0-.512.104-.956.312-1.332.216-.376.516-.668.9-.876.392-.208.848-.312 1.368-.312.52 0 .972.104 1.356.312.392.208.692.5.9.876.216.376.324.82.324 1.332v1.164h-4.104v.636c0 .52.132.92.396 1.2.264.272.64.408 1.128.408.416 0 .752-.072 1.008-.216a.953.953 0 00.468-.672h1.08c-.072.552-.344.992-.816 1.32-.464.32-1.044.48-1.74.48zm1.524-3.876V87.8c0-.52-.132-.92-.396-1.2-.256-.28-.632-.42-1.128-.42-.488 0-.864.14-1.128.42-.264.28-.396.68-.396 1.2v.348h3.132l-.084.096zM10.128 108v-6.6h4.944v6.6h-1.08v-5.616h-2.784V108h-1.08zm7.171 2.16v-8.76h1.08v1.26h.216l-.216.252c0-.504.164-.9.492-1.188.336-.296.776-.444 1.32-.444.664 0 1.192.22 1.584.66.4.432.6 1.028.6 1.788v1.932c0 .504-.092.94-.276 1.308a1.962 1.962 0 01-.756.852c-.32.2-.704.3-1.152.3-.536 0-.972-.148-1.308-.444-.336-.296-.504-.692-.504-1.188l.216.252h-.24l.024 1.5v1.92H17.3zm2.532-2.976c.456 0 .812-.136 1.068-.408.264-.272.396-.664.396-1.176v-1.8c0-.512-.132-.904-.396-1.176-.256-.272-.612-.408-1.068-.408-.44 0-.792.14-1.056.42-.264.28-.396.668-.396 1.164v1.8c0 .496.132.884.396 1.164.264.28.616.42 1.056.42zm7.16.936c-.52 0-.976-.104-1.368-.312a2.258 2.258 0 01-.9-.876c-.208-.384-.312-.828-.312-1.332v-1.8c0-.512.104-.956.312-1.332.216-.376.516-.668.9-.876.392-.208.848-.312 1.368-.312.52 0 .972.104 1.356.312.392.208.692.5.9.876.216.376.324.82.324 1.332v1.164h-4.104v.636c0 .52.132.92.396 1.2.264.272.64.408 1.128.408.416 0 .752-.072 1.008-.216a.953.953 0 00.468-.672h1.08c-.072.552-.344.992-.816 1.32-.464.32-1.044.48-1.74.48zm1.524-3.876v-.444c0-.52-.132-.92-.396-1.2-.256-.28-.632-.42-1.128-.42-.488 0-.864.14-1.128.42-.264.28-.396.68-.396 1.2v.348h3.132l-.084.096zm2.43 5.436v-2.604h.54c.137-.136.277-.404.42-.804.153-.4.233-.908.24-1.524l.073-3.348h4.308v5.676h.84v2.604h-.96V108h-4.5v1.68h-.96zm1.68-2.604h2.82v-4.716h-2.207l-.048 2.412c-.008.632-.076 1.144-.204 1.536-.128.392-.248.648-.36.768zm8.78 1.044c-.528 0-.992-.1-1.392-.3a2.161 2.161 0 01-.912-.864c-.216-.384-.324-.836-.324-1.356v-1.8c0-.528.108-.98.324-1.356.216-.376.52-.664.912-.864.4-.2.864-.3 1.392-.3.76 0 1.372.204 1.836.612.464.408.708.964.732 1.668h-1.08c-.024-.424-.168-.748-.432-.972-.256-.232-.608-.348-1.056-.348-.472 0-.848.136-1.128.408-.28.264-.42.644-.42 1.14v1.812c0 .496.14.88.42 1.152.28.272.656.408 1.128.408.448 0 .8-.116 1.056-.348.264-.232.408-.556.432-.972h1.08c-.024.704-.268 1.26-.732 1.668-.464.408-1.076.612-1.836.612zm6.632-.12v-5.652h-2.4v-.948h5.88v.948h-2.4V108h-1.08zm7.159.12c-.696 0-1.244-.176-1.644-.528-.4-.36-.6-.844-.6-1.452 0-.616.2-1.1.6-1.452.4-.352.94-.528 1.62-.528h2.04v-.66c0-.408-.124-.72-.372-.936-.24-.224-.584-.336-1.032-.336-.392 0-.72.084-.984.252-.264.16-.416.38-.456.66h-1.08c.072-.568.34-1.02.804-1.356.464-.336 1.044-.504 1.74-.504.76 0 1.36.196 1.8.588.44.392.66.924.66 1.596V108h-1.056v-1.26h-.18l.18-.18c0 .48-.188.86-.564 1.14-.368.28-.86.42-1.476.42zm.264-.852c.512 0 .932-.128 1.26-.384.328-.256.492-.584.492-.984v-.936h-2.016c-.36 0-.644.1-.852.3-.208.2-.312.472-.312.816 0 .368.124.66.372.876.256.208.608.312 1.056.312zm5.035.732v-6.6h2.856c.688 0 1.22.156 1.596.468.376.304.564.732.564 1.284 0 .456-.156.824-.468 1.104-.312.272-.724.408-1.236.408v-.096c.56 0 1.008.14 1.344.42.344.28.516.656.516 1.128 0 .592-.2 1.056-.6 1.392-.4.328-.96.492-1.68.492h-2.892zm1.056-.948h1.836c.384 0 .68-.084.888-.252.216-.168.324-.404.324-.708 0-.312-.108-.552-.324-.72-.208-.168-.504-.252-.888-.252h-1.836v1.932zm0-2.868h1.8c.336 0 .6-.08.792-.24.2-.16.3-.384.3-.672 0-.288-.096-.512-.288-.672-.192-.168-.46-.252-.804-.252h-1.8v1.836zm5.311 3.9v-1.008h.217c.368 0 .624-.144.768-.432.152-.288.232-.804.24-1.548l.072-3.696h4.475v6.6h-1.08v-5.616h-2.328l-.06 2.76c-.016.696-.096 1.26-.24 1.692-.136.432-.352.748-.648.948-.288.2-.668.3-1.14.3h-.276zm10.496.036c-.52 0-.976-.104-1.368-.312a2.258 2.258 0 01-.9-.876c-.208-.384-.312-.828-.312-1.332v-1.8c0-.512.104-.956.312-1.332.216-.376.516-.668.9-.876.392-.208.848-.312 1.368-.312.52 0 .972.104 1.356.312.392.208.692.5.9.876.216.376.324.82.324 1.332v1.164h-4.104v.636c0 .52.132.92.396 1.2.264.272.64.408 1.128.408.416 0 .752-.072 1.008-.216a.953.953 0 00.468-.672h1.08c-.072.552-.344.992-.816 1.32-.464.32-1.044.48-1.74.48zm1.524-3.876v-.444c0-.52-.132-.92-.396-1.2-.256-.28-.632-.42-1.128-.42-.488 0-.864.14-1.128.42-.264.28-.396.68-.396 1.2v.348h3.132l-.084.096zm3.2 3.756v-6.6h1.08v2.748h2.783V101.4h1.08v6.6h-1.08v-2.868h-2.784V108h-1.08zm7.194 0v-6.6h1.032v3.6c0 .232-.008.476-.024.732-.008.256-.024.5-.048.732a7.615 7.615 0 01-.06.576l2.664-5.64h1.38v6.6h-1.032v-3.6c0-.232.004-.476.012-.732.016-.256.036-.5.06-.732l.06-.588L90.656 108h-1.38zm9.668.12c-.52 0-.976-.104-1.368-.312a2.258 2.258 0 01-.9-.876c-.208-.384-.312-.828-.312-1.332v-1.8c0-.512.104-.956.312-1.332.216-.376.516-.668.9-.876.392-.208.848-.312 1.368-.312.52 0 .972.104 1.356.312.392.208.692.5.9.876.216.376.324.82.324 1.332v1.164H97.42v.636c0 .52.132.92.396 1.2.264.272.64.408 1.128.408.416 0 .752-.072 1.008-.216a.953.953 0 00.468-.672h1.08c-.072.552-.344.992-.816 1.32-.464.32-1.044.48-1.74.48zm1.524-3.876v-.444c0-.52-.132-.92-.396-1.2-.256-.28-.632-.42-1.128-.42-.488 0-.864.14-1.128.42-.264.28-.396.68-.396 1.2v.348h3.132l-.084.096zm10.43 3.756v-6.6h1.08v2.724h1.128l1.92-2.724h1.236l-2.22 3.144 2.256 3.456h-1.26l-1.92-2.94h-1.14V108h-1.08zm8.168 2.16l.972-2.568-2.448-6.192h1.2l1.536 4.08c.056.136.108.3.156.492l.12.468.12-.468c.048-.192.096-.356.144-.492l1.44-4.08h1.164l-3.252 8.76h-1.152zm6.163 0v-8.76h1.08v1.26h.216l-.216.252c0-.504.164-.9.492-1.188.336-.296.776-.444 1.32-.444.664 0 1.192.22 1.584.66.4.432.6 1.028.6 1.788v1.932c0 .504-.092.94-.276 1.308a1.962 1.962 0 01-.756.852c-.32.2-.704.3-1.152.3-.536 0-.972-.148-1.308-.444-.336-.296-.504-.692-.504-1.188l.216.252h-.24l.024 1.5v1.92h-1.08zm2.532-2.976c.456 0 .812-.136 1.068-.408.264-.272.396-.664.396-1.176v-1.8c0-.512-.132-.904-.396-1.176-.256-.272-.612-.408-1.068-.408-.44 0-.792.14-1.056.42-.264.28-.396.668-.396 1.164v1.8c0 .496.132.884.396 1.164.264.28.616.42 1.056.42zm7.183.936c-.528 0-.992-.1-1.392-.3a2.161 2.161 0 01-.912-.864c-.216-.384-.324-.836-.324-1.356v-1.8c0-.528.108-.98.324-1.356.216-.376.52-.664.912-.864.4-.2.864-.3 1.392-.3.76 0 1.372.204 1.836.612.464.408.708.964.732 1.668h-1.08c-.024-.424-.168-.748-.432-.972-.256-.232-.608-.348-1.056-.348-.472 0-.848.136-1.128.408-.28.264-.42.644-.42 1.14v1.812c0 .496.14.88.42 1.152.28.272.656.408 1.128.408.448 0 .8-.116 1.056-.348.264-.232.408-.556.432-.972h1.08c-.024.704-.268 1.26-.732 1.668-.464.408-1.076.612-1.836.612zm6.596 0c-.696 0-1.244-.176-1.644-.528-.4-.36-.6-.844-.6-1.452 0-.616.2-1.1.6-1.452.4-.352.94-.528 1.62-.528h2.04v-.66c0-.408-.124-.72-.372-.936-.24-.224-.584-.336-1.032-.336-.392 0-.72.084-.984.252-.264.16-.416.38-.456.66h-1.08c.072-.568.34-1.02.804-1.356.464-.336 1.044-.504 1.74-.504.76 0 1.36.196 1.8.588.44.392.66.924.66 1.596V108h-1.056v-1.26h-.18l.18-.18c0 .48-.188.86-.564 1.14-.368.28-.86.42-1.476.42zm.264-.852c.512 0 .932-.128 1.26-.384.328-.256.492-.584.492-.984v-.936h-2.016c-.36 0-.644.1-.852.3-.208.2-.312.472-.312.816 0 .368.124.66.372.876.256.208.608.312 1.056.312zM10.128 124v-6.6h1.032v3.6c0 .232-.008.476-.024.732-.008.256-.024.5-.048.732a7.615 7.615 0 01-.06.576l2.664-5.64h1.38v6.6H14.04v-3.6c0-.232.004-.476.012-.732.016-.256.036-.5.06-.732l.06-.588L11.508 124h-1.38zm16.863.12c-.52 0-.976-.104-1.368-.312a2.258 2.258 0 01-.9-.876c-.208-.384-.312-.828-.312-1.332v-1.8c0-.512.104-.956.312-1.332.216-.376.516-.668.9-.876.392-.208.848-.312 1.368-.312.52 0 .972.104 1.356.312.392.208.692.5.9.876.216.376.324.82.324 1.332v1.164h-4.104v.636c0 .52.132.92.396 1.2.264.272.64.408 1.128.408.416 0 .752-.072 1.008-.216a.953.953 0 00.468-.672h1.08c-.072.552-.344.992-.816 1.32-.464.32-1.044.48-1.74.48zm1.524-3.876v-.444c0-.52-.132-.92-.396-1.2-.256-.28-.632-.42-1.128-.42-.488 0-.864.14-1.128.42-.264.28-.396.68-.396 1.2v.348h3.132l-.084.096zm3.63 3.756v-6.6h4.74v.984h-3.66V124h-1.08zm9.236.096c-.528 0-.984-.1-1.368-.3a2.178 2.178 0 01-.9-.864c-.208-.384-.312-.836-.312-1.356v-1.752c0-.528.104-.98.312-1.356.216-.376.516-.664.9-.864.384-.2.84-.3 1.368-.3.528 0 .984.1 1.368.3.384.2.68.488.888.864.216.376.324.824.324 1.344v1.764c0 .52-.108.972-.324 1.356a2.103 2.103 0 01-.888.864c-.384.2-.84.3-1.368.3zm0-.96c.472 0 .84-.132 1.104-.396.264-.264.396-.652.396-1.164v-1.752c0-.512-.132-.9-.396-1.164-.264-.264-.632-.396-1.104-.396-.464 0-.832.132-1.104.396-.264.264-.396.652-.396 1.164v1.752c0 .512.132.9.396 1.164.272.264.64.396 1.104.396zM53.3 124v-6.6h4.944v6.6h-1.08v-5.616H54.38V124H53.3zm7.171 2.16v-8.76h1.08v1.26h.216l-.216.252c0-.504.164-.9.492-1.188.336-.296.776-.444 1.32-.444.664 0 1.192.22 1.584.66.4.432.6 1.028.6 1.788v1.932c0 .504-.092.94-.276 1.308a1.962 1.962 0 01-.756.852c-.32.2-.704.3-1.152.3-.536 0-.972-.148-1.308-.444-.336-.296-.504-.692-.504-1.188l.216.252h-.24l.024 1.5v1.92h-1.08zm2.532-2.976c.456 0 .812-.136 1.068-.408.264-.272.396-.664.396-1.176v-1.8c0-.512-.132-.904-.396-1.176-.256-.272-.612-.408-1.068-.408-.44 0-.792.14-1.056.42-.264.28-.396.668-.396 1.164v1.8c0 .496.132.884.396 1.164.264.28.616.42 1.056.42zm7.16.936c-.52 0-.977-.104-1.368-.312a2.258 2.258 0 01-.9-.876c-.209-.384-.313-.828-.313-1.332v-1.8c0-.512.105-.956.313-1.332.216-.376.516-.668.9-.876.391-.208.847-.312 1.367-.312s.972.104 1.356.312c.392.208.692.5.9.876.216.376.325.82.325 1.332v1.164h-4.105v.636c0 .52.132.92.396 1.2.264.272.64.408 1.128.408.416 0 .752-.072 1.008-.216a.953.953 0 00.468-.672h1.08c-.072.552-.344.992-.816 1.32-.463.32-1.043.48-1.74.48zm1.523-3.876v-.444c0-.52-.132-.92-.396-1.2-.256-.28-.632-.42-1.128-.42-.488 0-.864.14-1.128.42-.264.28-.396.68-.396 1.2v.348h3.132l-.084.096zm3.2 3.756v-6.6h1.032v3.6c0 .232-.008.476-.024.732-.008.256-.024.5-.048.732a7.615 7.615 0 01-.06.576l2.664-5.64h1.38v6.6h-1.032v-3.6c0-.232.004-.476.012-.732.016-.256.036-.5.06-.732l.06-.588L76.266 124h-1.38zm6.98 0v-6.6h1.463l.864 2.532c.088.256.168.512.24.768.072.248.124.44.156.576.032-.136.08-.328.144-.576.072-.256.148-.516.228-.78l.816-2.52h1.464v6.6h-1.044v-1.02c0-.36.004-.752.012-1.176l.024-1.284.048-1.224c.016-.392.028-.736.036-1.032l-1.176 3.756h-1.14l-1.188-3.732c.016.36.028.808.036 1.344.016.536.028 1.096.036 1.68.016.584.024 1.14.024 1.668V124h-1.044zm8.418 2.16l.972-2.568-2.448-6.192h1.2l1.536 4.08c.056.136.108.3.156.492l.12.468.12-.468c.048-.192.096-.356.144-.492l1.44-4.08h1.164l-3.252 8.76h-1.152zm11-.48V124h-5.172v-6.6h.972v5.688h1.392V117.4h.84v5.688h1.392V117.4h.972v5.688h.564v2.592h-.96zm4.855-1.56c-.52 0-.976-.104-1.368-.312a2.258 2.258 0 01-.9-.876c-.208-.384-.312-.828-.312-1.332v-1.8c0-.512.104-.956.312-1.332.216-.376.516-.668.9-.876.392-.208.848-.312 1.368-.312.52 0 .972.104 1.356.312.392.208.692.5.9.876.216.376.324.82.324 1.332v1.164h-4.104v.636c0 .52.132.92.396 1.2.264.272.64.408 1.128.408.416 0 .752-.072 1.008-.216a.953.953 0 00.468-.672h1.08c-.072.552-.344.992-.816 1.32-.464.32-1.044.48-1.74.48zm1.524-3.876v-.444c0-.52-.132-.92-.396-1.2-.256-.28-.632-.42-1.128-.42-.488 0-.864.14-1.128.42-.264.28-.396.68-.396 1.2v.348h3.132l-.084.096zm5.695 3.876c-.528 0-.992-.1-1.392-.3a2.161 2.161 0 01-.912-.864c-.216-.384-.324-.836-.324-1.356v-1.8c0-.528.108-.98.324-1.356.216-.376.52-.664.912-.864.4-.2.864-.3 1.392-.3.76 0 1.372.204 1.836.612.464.408.708.964.732 1.668h-1.08c-.024-.424-.168-.748-.432-.972-.256-.232-.608-.348-1.056-.348-.472 0-.848.136-1.128.408-.28.264-.42.644-.42 1.14v1.812c0 .496.14.88.42 1.152.28.272.656.408 1.128.408.448 0 .8-.116 1.056-.348.264-.232.408-.556.432-.972h1.08c-.024.704-.268 1.26-.732 1.668-.464.408-1.076.612-1.836.612zm6.632-.12v-5.652h-2.4v-.948h5.88v.948h-2.4V124h-1.08zm5.263 0v-6.6h2.856c.688 0 1.22.156 1.596.468.376.304.564.732.564 1.284 0 .456-.156.824-.468 1.104-.312.272-.724.408-1.236.408v-.096c.56 0 1.008.14 1.344.42.344.28.516.656.516 1.128 0 .592-.2 1.056-.6 1.392-.4.328-.96.492-1.68.492h-2.892zm1.056-.948h1.836c.384 0 .68-.084.888-.252.216-.168.324-.404.324-.708 0-.312-.108-.552-.324-.72-.208-.168-.504-.252-.888-.252h-1.836v1.932zm0-2.868h1.8c.336 0 .6-.08.792-.24.2-.16.3-.384.3-.672 0-.288-.096-.512-.288-.672-.192-.168-.46-.252-.804-.252h-1.8v1.836zm8.611 3.936c-.304 0-.548-.088-.732-.264-.176-.176-.264-.412-.264-.708 0-.312.088-.56.264-.744.184-.184.428-.276.732-.276s.544.092.72.276c.184.184.276.432.276.744 0 .296-.092.532-.276.708-.176.176-.416.264-.72.264z" fill="#000"/><defs><linearGradient id="paint0_linear_441_988" x1="0" y1="84.27" x2="223.615" y2="84.27" gradientUnits="userSpaceOnUse"><stop stop-color="#F1FFF7"/><stop offset="1" stop-color="#546A65"/></linearGradient><linearGradient id="paint1_linear_441_988" x1="11.769" y1="10.112" x2="179.855" y2="150.863" gradientUnits="userSpaceOnUse"><stop stop-color="#475E59" stop-opacity=".7"/><stop offset="1" stop-color="#fff" stop-opacity=".7"/></linearGradient><linearGradient id="paint2_linear_441_988" x1="0" y1="100.472" x2="223.615" y2="100.472" gradientUnits="userSpaceOnUse"><stop stop-color="#F1FFF7"/><stop offset="1" stop-color="#546A65"/></linearGradient><linearGradient id="paint3_linear_441_988" x1="11.769" y1="36.697" x2="158.553" y2="179.619" gradientUnits="userSpaceOnUse"><stop stop-color="#475E59" stop-opacity=".7"/><stop offset="1" stop-color="#fff" stop-opacity=".7"/></linearGradient><filter id="filter0_f_441_988" x="-18.273" y="152.187" width="113.546" height="79.728" filterUnits="userSpaceOnUse" color-interpolation-filters="sRGB"><feFlood flood-opacity="0" result="BackgroundImageFix"/><feBlend in="SourceGraphic" in2="BackgroundImageFix" result="shape"/><feGaussianBlur stdDeviation="2" result="effect1_foregroundBlur_441_988"/></filter></defs></svg>