<svg width="329" height="118" fill="none" xmlns="http://www.w3.org/2000/svg"><path d="M27.334 18.11c-.484 0-.905-.092-1.265-.275a1.996 1.996 0 01-.825-.792c-.19-.352-.286-.766-.286-1.243v-3.63c0-.484.096-.898.286-1.243.198-.345.473-.609.825-.792.36-.183.781-.275 1.265-.275.484 0 .902.095 1.254.286.352.183.624.447.814.792.19.345.286.755.286 1.232h-.99c0-.455-.12-.803-.363-1.045-.234-.25-.568-.374-1-.374-.433 0-.774.121-1.024.363-.242.242-.363.59-.363 1.045V15.8c0 .455.121.807.363 1.056.25.242.59.363 1.023.363.433 0 .767-.121 1.001-.363.242-.25.363-.601.363-1.056h.99c0 .47-.095.88-.286 1.232-.19.345-.462.612-.814.803-.352.183-.77.275-1.254.275zm6.552-.022c-.484 0-.902-.092-1.254-.275a1.996 1.996 0 01-.825-.792c-.19-.352-.286-.766-.286-1.243v-1.606c0-.484.095-.898.286-1.243.198-.345.473-.609.825-.792.352-.183.77-.275 1.254-.275s.902.092 1.254.275c.352.183.623.447.814.792.198.345.297.755.297 1.232v1.617c0 .477-.1.891-.297 1.243a1.92 1.92 0 01-.814.792c-.352.183-.77.275-1.254.275zm0-.88c.433 0 .77-.121 1.012-.363s.363-.598.363-1.067v-1.606c0-.47-.121-.825-.363-1.067s-.58-.363-1.012-.363c-.425 0-.763.121-1.012.363-.242.242-.363.598-.363 1.067v1.606c0 .47.12.825.363 1.067.25.242.587.363 1.012.363zm6.31.869c-.638 0-1.163-.136-1.573-.407a1.617 1.617 0 01-.726-1.1h1.045c.051.183.187.334.407.451.227.117.51.176.847.176h.517c.359 0 .638-.084.836-.253a.813.813 0 00.308-.66c0-.293-.1-.524-.297-.693-.191-.169-.473-.253-.847-.253h-1.331v-.858h1.298c.337 0 .594-.08.77-.242a.824.824 0 00.264-.638.833.833 0 00-.121-.462.699.699 0 00-.341-.286 1.422 1.422 0 00-.561-.099h-.55a1.41 1.41 0 00-.76.198c-.212.132-.34.293-.384.484h-1.045c.073-.455.311-.829.715-1.122.403-.293.894-.44 1.474-.44h.55c.432 0 .803.07 1.11.209.309.132.543.323.705.572.168.25.253.546.253.891 0 .36-.118.656-.352.891-.235.227-.565.356-.99.385v.044c.52.037.898.176 1.133.418.234.242.352.59.352 1.045 0 .535-.198.96-.594 1.276-.396.315-.928.473-1.595.473h-.517zm3.911 1.463v-2.387h.495c.125-.125.253-.37.385-.737.14-.367.213-.832.22-1.397l.066-3.069h3.95v5.203h.77v2.387h-.88V18h-4.126v1.54h-.88zm1.54-2.387h2.585V12.83h-2.024l-.044 2.211c-.007.58-.07 1.049-.187 1.408-.117.36-.227.594-.33.704zm7.498.957c-.638 0-1.14-.161-1.507-.484-.367-.33-.55-.774-.55-1.331 0-.565.183-1.008.55-1.331.367-.323.862-.484 1.485-.484h1.87v-.605c0-.374-.114-.66-.341-.858-.22-.205-.535-.308-.946-.308-.36 0-.66.077-.902.231-.242.147-.381.348-.418.605h-.99c.066-.52.312-.935.737-1.243.425-.308.957-.462 1.595-.462.697 0 1.247.18 1.65.539.403.36.605.847.605 1.463V18h-.968v-1.155h-.165l.165-.165c0 .44-.172.788-.517 1.045-.337.257-.788.385-1.353.385zm.242-.781c.47 0 .854-.117 1.155-.352.3-.235.451-.535.451-.902v-.858h-1.848c-.33 0-.59.092-.781.275-.19.183-.286.433-.286.748 0 .337.114.605.341.803.235.19.557.286.968.286zm4.616.671v-6.05h.99v2.519h2.552V11.95h.99V18h-.99v-2.629h-2.552V18h-.99zm6.596 0v-6.05h.945v3.3c0 .213-.007.436-.022.671a9.413 9.413 0 01-.044.671 7.002 7.002 0 01-.054.528l2.441-5.17h1.266V18h-.947v-3.3c0-.213.004-.436.011-.671.015-.235.034-.458.056-.671.021-.22.04-.4.054-.539L65.863 18H64.6zm8.861.11c-.476 0-.894-.095-1.254-.286a2.07 2.07 0 01-.825-.803 2.523 2.523 0 01-.286-1.221v-1.65c0-.47.096-.876.286-1.221a2.07 2.07 0 01.825-.803c.36-.19.778-.286 1.254-.286.477 0 .891.095 1.243.286.36.19.635.458.825.803.198.345.297.752.297 1.221v1.067h-3.762v.583c0 .477.121.843.363 1.1.242.25.587.374 1.034.374.382 0 .69-.066.924-.198a.874.874 0 00.43-.616h.99c-.067.506-.316.91-.749 1.21-.425.293-.957.44-1.595.44zm1.397-3.553v-.407c0-.477-.12-.843-.363-1.1-.234-.257-.58-.385-1.034-.385-.447 0-.792.128-1.034.385s-.363.623-.363 1.1v.319h2.871l-.077.088zm11.267 3.553c-.638 0-1.14-.161-1.507-.484-.367-.33-.55-.774-.55-1.331 0-.565.183-1.008.55-1.331.366-.323.861-.484 1.485-.484h1.87v-.605c0-.374-.114-.66-.341-.858-.22-.205-.536-.308-.946-.308-.36 0-.66.077-.902.231-.242.147-.382.348-.418.605h-.99c.066-.52.311-.935.737-1.243.425-.308.957-.462 1.595-.462.696 0 1.246.18 1.65.539.403.36.605.847.605 1.463V18h-.968v-1.155h-.165l.165-.165c0 .44-.173.788-.517 1.045-.338.257-.789.385-1.353.385zm.242-.781c.469 0 .854-.117 1.155-.352.3-.235.45-.535.45-.902v-.858h-1.847c-.33 0-.59.092-.781.275-.191.183-.286.433-.286.748 0 .337.113.605.34.803.235.19.558.286.969.286zM90.98 18v-6.05h2.62c.63 0 1.119.143 1.463.429.345.279.517.671.517 1.177 0 .418-.143.755-.429 1.012-.286.25-.663.374-1.133.374v-.088c.514 0 .924.128 1.232.385.316.257.473.601.473 1.034 0 .543-.183.968-.55 1.276-.366.3-.88.451-1.54.451h-2.65zm.968-.869h1.683c.352 0 .624-.077.814-.231.198-.154.297-.37.297-.649 0-.286-.099-.506-.297-.66-.19-.154-.462-.231-.814-.231H91.95v1.771zm0-2.629h1.65c.308 0 .55-.073.726-.22.184-.147.275-.352.275-.616s-.088-.47-.264-.616c-.176-.154-.421-.231-.737-.231h-1.65v1.683zm7.4 3.498v-5.181h-2.2v-.869h5.39v.869h-2.2V18h-.99zm7.091.088c-.484 0-.902-.092-1.254-.275a1.996 1.996 0 01-.825-.792c-.191-.352-.286-.766-.286-1.243v-1.606c0-.484.095-.898.286-1.243.198-.345.473-.609.825-.792.352-.183.77-.275 1.254-.275s.902.092 1.254.275c.352.183.623.447.814.792.198.345.297.755.297 1.232v1.617c0 .477-.099.891-.297 1.243a1.929 1.929 0 01-.814.792c-.352.183-.77.275-1.254.275zm0-.88c.432 0 .77-.121 1.012-.363s.363-.598.363-1.067v-1.606c0-.47-.121-.825-.363-1.067s-.58-.363-1.012-.363c-.426 0-.763.121-1.012.363-.242.242-.363.598-.363 1.067v1.606c0 .47.121.825.363 1.067.249.242.586.363 1.012.363zm4.131.792v-6.05h1.342l.792 2.321c.081.235.154.47.22.704.066.227.114.403.143.528.03-.125.074-.3.132-.528a39.6 39.6 0 01.209-.715l.748-2.31h1.342V18h-.957v-.935c0-.33.004-.69.011-1.078l.022-1.177.044-1.122c.015-.36.026-.675.033-.946l-1.078 3.443h-1.045l-1.089-3.421c.015.33.026.74.033 1.232.015.491.026 1.005.033 1.54.015.535.022 1.045.022 1.529V18h-.957zm8.532.11c-.638 0-1.14-.161-1.507-.484-.367-.33-.55-.774-.55-1.331 0-.565.183-1.008.55-1.331.367-.323.862-.484 1.485-.484h1.87v-.605c0-.374-.114-.66-.341-.858-.22-.205-.535-.308-.946-.308-.359 0-.66.077-.902.231a.823.823 0 00-.418.605h-.99c.066-.52.312-.935.737-1.243.425-.308.957-.462 1.595-.462.697 0 1.247.18 1.65.539.403.36.605.847.605 1.463V18h-.968v-1.155h-.165l.165-.165c0 .44-.172.788-.517 1.045-.337.257-.788.385-1.353.385zm.242-.781c.469 0 .854-.117 1.155-.352.301-.235.451-.535.451-.902v-.858h-1.848c-.33 0-.59.092-.781.275-.191.183-.286.433-.286.748 0 .337.114.605.341.803.235.19.557.286.968.286zm6.387.671v-5.181h-2.2v-.869h5.39v.869h-2.2V18h-.99zm4.824 0v-6.05h.946v3.3c0 .213-.007.436-.022.671a9.185 9.185 0 01-.044.671 6.655 6.655 0 01-.055.528l2.442-5.17h1.265V18h-.946v-3.3c0-.213.004-.436.011-.671.015-.235.033-.458.055-.671l.055-.539L131.82 18h-1.265zm8.576.077c-.638 0-1.162-.136-1.573-.407a1.619 1.619 0 01-.726-1.1h1.045c.052.183.187.334.407.451.228.117.51.176.847.176h.517c.36 0 .638-.084.836-.253a.812.812 0 00.308-.66c0-.293-.099-.524-.297-.693-.19-.169-.473-.253-.847-.253h-1.331v-.858h1.298c.338 0 .594-.08.77-.242a.824.824 0 00.264-.638.83.83 0 00-.121-.462.698.698 0 00-.341-.286 1.422 1.422 0 00-.561-.099h-.55c-.293 0-.546.066-.759.198-.212.132-.341.293-.385.484h-1.045c.074-.455.312-.829.715-1.122.404-.293.895-.44 1.474-.44h.55c.433 0 .803.07 1.111.209.308.132.543.323.704.572.169.25.253.546.253.891 0 .36-.117.656-.352.891-.234.227-.564.356-.99.385v.044c.521.037.899.176 1.133.418.235.242.352.59.352 1.045 0 .535-.198.96-.594 1.276-.396.315-.927.473-1.595.473h-.517zm4.616-.077v-6.05h.946v3.3c0 .213-.007.436-.022.671a9.185 9.185 0 01-.044.671 7.162 7.162 0 01-.055.528l2.442-5.17h1.265V18h-.946v-3.3c0-.213.004-.436.011-.671.015-.235.033-.458.055-.671l.055-.539L145.012 18h-1.265zm6.574 1.98v-8.03h.99v1.155h.198l-.198.231c0-.462.15-.825.451-1.089.308-.271.711-.407 1.21-.407.608 0 1.092.202 1.452.605.366.396.55.942.55 1.639v1.771c0 .462-.085.862-.253 1.199a1.807 1.807 0 01-.693.781c-.294.183-.646.275-1.056.275-.492 0-.891-.136-1.199-.407-.308-.271-.462-.634-.462-1.089l.198.231h-.22l.022 1.375v1.76h-.99zm2.321-2.728c.418 0 .744-.125.979-.374.242-.25.363-.609.363-1.078v-1.65c0-.47-.121-.829-.363-1.078-.235-.25-.561-.374-.979-.374-.404 0-.726.128-.968.385s-.363.612-.363 1.067v1.65c0 .455.121.81.363 1.067.242.257.564.385.968.385zm6.562.836c-.484 0-.902-.092-1.254-.275a1.996 1.996 0 01-.825-.792c-.19-.352-.286-.766-.286-1.243v-1.606c0-.484.096-.898.286-1.243.198-.345.473-.609.825-.792.352-.183.77-.275 1.254-.275s.902.092 1.254.275c.352.183.624.447.814.792.198.345.297.755.297 1.232v1.617c0 .477-.099.891-.297 1.243a1.92 1.92 0 01-.814.792c-.352.183-.77.275-1.254.275zm0-.88c.433 0 .77-.121 1.012-.363s.363-.598.363-1.067v-1.606c0-.47-.121-.825-.363-1.067s-.579-.363-1.012-.363c-.425 0-.762.121-1.012.363-.242.242-.363.598-.363 1.067v1.606c0 .47.121.825.363 1.067.25.242.587.363 1.012.363zm4.33.792v-6.05h2.618c.631 0 1.118.143 1.463.429.345.279.517.671.517 1.177 0 .418-.143.755-.429 1.012-.286.25-.664.374-1.133.374v-.088c.513 0 .924.128 1.232.385.315.257.473.601.473 1.034 0 .543-.183.968-.55 1.276-.367.3-.88.451-1.54.451h-2.651zm.968-.869h1.683c.352 0 .623-.077.814-.231.198-.154.297-.37.297-.649 0-.286-.099-.506-.297-.66-.191-.154-.462-.231-.814-.231h-1.683v1.771zm0-2.629h1.65c.308 0 .55-.073.726-.22.183-.147.275-.352.275-.616s-.088-.47-.264-.616c-.176-.154-.422-.231-.737-.231h-1.65v1.683zm7.366 3.608c-.638 0-1.141-.161-1.507-.484-.367-.33-.55-.774-.55-1.331 0-.565.183-1.008.55-1.331.366-.323.861-.484 1.485-.484h1.87v-.605c0-.374-.114-.66-.341-.858-.22-.205-.536-.308-.946-.308-.36 0-.66.077-.902.231-.242.147-.382.348-.418.605h-.99c.066-.52.311-.935.737-1.243.425-.308.957-.462 1.595-.462.696 0 1.246.18 1.65.539.403.36.605.847.605 1.463V18h-.968v-1.155h-.165l.165-.165c0 .44-.173.788-.517 1.045-.338.257-.789.385-1.353.385zm.242-.781c.469 0 .854-.117 1.155-.352.3-.235.451-.535.451-.902v-.858h-1.848c-.33 0-.591.092-.781.275-.191.183-.286.433-.286.748 0 .337.113.605.341.803.234.19.557.286.968.286zm4.615.671v-6.05h.99v2.519h2.552V11.95h.99V18h-.99v-2.629h-2.552V18h-.99zm6.596 0v-6.05h.99v2.519h2.552V11.95h.99V18h-.99v-2.629h-2.552V18h-.99zm8.862.088c-.484 0-.902-.092-1.254-.275a1.996 1.996 0 01-.825-.792c-.191-.352-.286-.766-.286-1.243v-1.606c0-.484.095-.898.286-1.243.198-.345.473-.609.825-.792.352-.183.77-.275 1.254-.275s.902.092 1.254.275c.352.183.623.447.814.792.198.345.297.755.297 1.232v1.617c0 .477-.099.891-.297 1.243a1.929 1.929 0 01-.814.792c-.352.183-.77.275-1.254.275zm0-.88c.432 0 .77-.121 1.012-.363s.363-.598.363-1.067v-1.606c0-.47-.121-.825-.363-1.067s-.58-.363-1.012-.363c-.426 0-.763.121-1.012.363-.242.242-.363.598-.363 1.067v1.606c0 .47.121.825.363 1.067.249.242.586.363 1.012.363zm4.726.792v-6.05h4.345v.902h-3.355V18h-.99zm8.465.088c-.484 0-.902-.092-1.254-.275a1.996 1.996 0 01-.825-.792c-.19-.352-.286-.766-.286-1.243v-1.606c0-.484.096-.898.286-1.243.198-.345.473-.609.825-.792.352-.183.77-.275 1.254-.275s.902.092 1.254.275c.352.183.624.447.814.792.198.345.297.755.297 1.232v1.617c0 .477-.099.891-.297 1.243a1.92 1.92 0 01-.814.792c-.352.183-.77.275-1.254.275zm0-.88c.433 0 .77-.121 1.012-.363s.363-.598.363-1.067v-1.606c0-.47-.121-.825-.363-1.067s-.579-.363-1.012-.363c-.425 0-.762.121-1.012.363-.242.242-.363.598-.363 1.067v1.606c0 .47.121.825.363 1.067.25.242.587.363 1.012.363zm13.192.902c-.712 0-1.276-.209-1.694-.627-.411-.425-.616-1.005-.616-1.738v-2.75c0-.968.242-1.712.726-2.233.484-.528 1.177-.792 2.079-.792h1.54v.99h-1.54c-.594 0-1.045.176-1.353.528-.308.345-.462.847-.462 1.507v.715h.154l-.154.22c.007-.433.154-.77.44-1.012.286-.242.674-.363 1.166-.363.638 0 1.133.205 1.485.616.359.41.539.975.539 1.694v.88c0 .491-.092.913-.275 1.265a1.935 1.935 0 01-.792.814c-.345.19-.759.286-1.243.286zm0-.88c.425 0 .751-.128.979-.385.227-.257.341-.623.341-1.1v-.88c0-.477-.114-.843-.341-1.1-.228-.257-.554-.385-.979-.385-.426 0-.752.128-.979.385-.228.25-.341.616-.341 1.1v.88c0 .477.113.843.341 1.1.227.257.553.385.979.385zm6.595.858c-.484 0-.902-.092-1.254-.275a1.996 1.996 0 01-.825-.792c-.19-.352-.286-.766-.286-1.243v-1.606c0-.484.096-.898.286-1.243.198-.345.473-.609.825-.792.352-.183.77-.275 1.254-.275s.902.092 1.254.275c.352.183.624.447.814.792.198.345.297.755.297 1.232v1.617c0 .477-.099.891-.297 1.243a1.92 1.92 0 01-.814.792c-.352.183-.77.275-1.254.275zm0-.88c.433 0 .77-.121 1.012-.363s.363-.598.363-1.067v-1.606c0-.47-.121-.825-.363-1.067s-.579-.363-1.012-.363c-.425 0-.762.121-1.012.363-.242.242-.363.598-.363 1.067v1.606c0 .47.121.825.363 1.067.25.242.587.363 1.012.363zm6.101.792v-5.181h-2.2v-.869h5.39v.869h-2.2V18h-.99zm6.563.11c-.638 0-1.141-.161-1.507-.484-.367-.33-.55-.774-.55-1.331 0-.565.183-1.008.55-1.331.366-.323.861-.484 1.485-.484h1.87v-.605c0-.374-.114-.66-.341-.858-.22-.205-.536-.308-.946-.308-.36 0-.66.077-.902.231-.242.147-.382.348-.418.605h-.99c.066-.52.311-.935.737-1.243.425-.308.957-.462 1.595-.462.696 0 1.246.18 1.65.539.403.36.605.847.605 1.463V18h-.968v-1.155h-.165l.165-.165c0 .44-.173.788-.517 1.045-.338.257-.789.385-1.353.385zm.242-.781c.469 0 .854-.117 1.155-.352.3-.235.451-.535.451-.902v-.858h-1.848c-.33 0-.591.092-.781.275-.191.183-.286.433-.286.748 0 .337.113.605.341.803.234.19.557.286.968.286zm5.396 2.431l.88-3.421h1.43l-1.43 3.421h-.88zM255.907 18v-6.05h.99v2.497h1.034l1.76-2.497h1.133l-2.035 2.882L260.857 18h-1.155l-1.76-2.695h-1.045V18h-.99zm8.829.088c-.484 0-.902-.092-1.254-.275a1.996 1.996 0 01-.825-.792c-.191-.352-.286-.766-.286-1.243v-1.606c0-.484.095-.898.286-1.243.198-.345.473-.609.825-.792.352-.183.77-.275 1.254-.275s.902.092 1.254.275c.352.183.623.447.814.792.198.345.297.755.297 1.232v1.617c0 .477-.099.891-.297 1.243a1.929 1.929 0 01-.814.792c-.352.183-.77.275-1.254.275zm0-.88c.432 0 .77-.121 1.012-.363s.363-.598.363-1.067v-1.606c0-.47-.121-.825-.363-1.067s-.58-.363-1.012-.363c-.426 0-.763.121-1.012.363-.242.242-.363.598-.363 1.067v1.606c0 .47.121.825.363 1.067.249.242.586.363 1.012.363zm6.1.792v-5.181h-2.2v-.869h5.39v.869h-2.2V18h-.99zm7.091.088c-.484 0-.902-.092-1.254-.275a1.996 1.996 0 01-.825-.792c-.191-.352-.286-.766-.286-1.243v-1.606c0-.484.095-.898.286-1.243.198-.345.473-.609.825-.792.352-.183.77-.275 1.254-.275s.902.092 1.254.275c.352.183.623.447.814.792.198.345.297.755.297 1.232v1.617c0 .477-.099.891-.297 1.243a1.929 1.929 0 01-.814.792c-.352.183-.77.275-1.254.275zm0-.88c.433 0 .77-.121 1.012-.363s.363-.598.363-1.067v-1.606c0-.47-.121-.825-.363-1.067s-.579-.363-1.012-.363c-.425 0-.763.121-1.012.363-.242.242-.363.598-.363 1.067v1.606c0 .47.121.825.363 1.067.249.242.587.363 1.012.363zm4.308 2.772v-8.03h.99v1.155h.198l-.198.231c0-.462.15-.825.451-1.089.308-.271.711-.407 1.21-.407.608 0 1.092.202 1.452.605.366.396.55.942.55 1.639v1.771c0 .462-.085.862-.253 1.199a1.807 1.807 0 01-.693.781c-.294.183-.646.275-1.056.275-.492 0-.891-.136-1.199-.407-.308-.271-.462-.634-.462-1.089l.198.231h-.22l.022 1.375v1.76h-.99zm2.321-2.728c.418 0 .744-.125.979-.374.242-.25.363-.609.363-1.078v-1.65c0-.47-.121-.829-.363-1.078-.235-.25-.561-.374-.979-.374-.404 0-.726.128-.968.385s-.363.612-.363 1.067v1.65c0 .455.121.81.363 1.067.242.257.564.385.968.385zm3.977.748v-6.05h.924v2.222h.495c.653 0 1.166.172 1.54.517.382.337.572.803.572 1.397s-.19 1.063-.572 1.408c-.374.337-.887.506-1.54.506h-1.419zm.924-.792h.495c.389 0 .69-.099.902-.297.22-.198.33-.473.33-.825s-.11-.627-.33-.825c-.212-.198-.513-.297-.902-.297h-.495v2.244zm3.322.792v-6.05h.924V18h-.924zm2.669 0v-6.05h.946v3.3c0 .213-.007.436-.022.671a9.185 9.185 0 01-.044.671 7.162 7.162 0 01-.055.528l2.442-5.17h1.265V18h-.946v-3.3c0-.213.004-.436.011-.671.015-.235.033-.458.055-.671l.055-.539L296.713 18h-1.265zm2.31-7.04c-.528 0-.953-.147-1.276-.44-.323-.293-.484-.678-.484-1.155h.781c0 .286.088.517.264.693.176.176.411.264.704.264.301 0 .539-.088.715-.264.183-.176.275-.407.275-.693h.781c0 .477-.161.862-.484 1.155-.323.293-.748.44-1.276.44zM19.353 34.98l.89-2.354L18 26.95h1.1l1.407 3.74c.052.125.1.275.143.451.045.169.081.312.11.429l.11-.429a5.08 5.08 0 01.133-.451l1.32-3.74h1.067l-2.982 8.03h-1.056zM25.024 33v-6.05h4.532V33h-.99v-5.148h-2.552V33h-.99zm6.574 1.98v-8.03h.99v1.155h.198l-.198.231c0-.462.15-.825.45-1.089.309-.271.712-.407 1.21-.407.61 0 1.094.202 1.453.605.367.396.55.942.55 1.639v1.771c0 .462-.084.862-.253 1.199a1.798 1.798 0 01-.693.781c-.293.183-.645.275-1.056.275-.491 0-.891-.136-1.2-.407-.307-.271-.461-.634-.461-1.089l.198.231h-.22l.022 1.375v1.76h-.99zm2.32-2.728c.419 0 .745-.125.98-.374.242-.25.363-.609.363-1.078v-1.65c0-.47-.121-.829-.363-1.078-.235-.25-.561-.374-.98-.374-.402 0-.725.128-.967.385s-.363.612-.363 1.067v1.65c0 .455.12.81.363 1.067.242.257.565.385.968.385zm6.036.858c-.638 0-1.14-.161-1.507-.484-.367-.33-.55-.774-.55-1.331 0-.565.183-1.008.55-1.331.366-.323.861-.484 1.485-.484h1.87v-.605c0-.374-.114-.66-.341-.858-.22-.205-.536-.308-.946-.308-.36 0-.66.077-.902.231-.242.147-.382.348-.418.605h-.99c.066-.52.311-.935.737-1.243.425-.308.957-.462 1.595-.462.696 0 1.246.18 1.65.539.403.36.605.847.605 1.463V33h-.968v-1.155h-.165l.165-.165c0 .44-.173.788-.517 1.045-.338.257-.789.385-1.353.385zm.242-.781c.469 0 .854-.117 1.155-.352.3-.235.45-.535.45-.902v-.858h-1.847c-.33 0-.59.092-.781.275-.191.183-.286.433-.286.748 0 .337.113.605.34.803.235.19.558.286.969.286zM44.81 33v-6.05h2.618c.631 0 1.119.143 1.463.429.345.279.517.671.517 1.177 0 .418-.143.755-.429 1.012-.286.25-.663.374-1.133.374v-.088c.514 0 .924.128 1.232.385.316.257.473.601.473 1.034 0 .543-.183.968-.55 1.276-.366.3-.88.451-1.54.451h-2.65zm.968-.869h1.683c.352 0 .624-.077.814-.231.198-.154.297-.37.297-.649 0-.286-.099-.506-.297-.66-.19-.154-.462-.231-.814-.231H45.78v1.771zm0-2.629h1.65c.308 0 .55-.073.726-.22.184-.147.275-.352.275-.616s-.088-.47-.264-.616c-.176-.154-.421-.231-.737-.231h-1.65v1.683zm4.869 3.575v-.924h.198c.337 0 .572-.132.704-.396.14-.264.213-.737.22-1.419l.066-3.388h4.103V33h-.99v-5.148h-2.134l-.055 2.53c-.015.638-.088 1.155-.22 1.551-.125.396-.323.686-.594.869-.264.183-.612.275-1.045.275h-.253zm6.98-.077l1.552-2.332c-.462-.11-.822-.323-1.078-.638-.25-.315-.374-.708-.374-1.177 0-.594.194-1.06.583-1.397.396-.337.935-.506 1.617-.506h2.607V33h-.99v-2.255h-1.331L58.784 33h-1.155zm2.3-3.135h1.617V27.83h-1.617c-.367 0-.657.092-.87.275-.212.176-.318.425-.318.748 0 .315.106.565.319.748.212.176.502.264.869.264zm6.937 3.245c-.477 0-.895-.095-1.254-.286a2.07 2.07 0 01-.826-.803A2.523 2.523 0 0164.5 30.8v-1.65c0-.47.095-.876.285-1.221a2.07 2.07 0 01.826-.803c.359-.19.777-.286 1.254-.286.476 0 .89.095 1.243.286.359.19.634.458.825.803.197.345.296.752.296 1.221v1.067h-3.761v.583c0 .477.12.843.362 1.1.243.25.587.374 1.035.374.38 0 .689-.066.924-.198a.874.874 0 00.428-.616h.99c-.066.506-.315.91-.747 1.21-.426.293-.957.44-1.595.44zm1.397-3.553v-.407c0-.477-.121-.843-.364-1.1-.234-.257-.579-.385-1.033-.385-.448 0-.792.128-1.034.385-.243.257-.364.623-.364 1.1v.319h2.871l-.076.088zM72.965 33v-5.181h-2.2v-.869h5.39v.869h-2.2V33h-.99zm10.717 1.54v-2.387h.495c.124-.125.253-.37.385-.737.139-.367.212-.832.22-1.397l.066-3.069h3.949v5.203h.77v2.387h-.88V33h-4.125v1.54h-.88zm1.54-2.387h2.585V27.83h-2.024l-.044 2.211c-.008.58-.07 1.049-.187 1.408-.118.36-.228.594-.33.704zm8.025.935c-.484 0-.902-.092-1.254-.275a1.996 1.996 0 01-.825-.792c-.19-.352-.286-.766-.286-1.243v-1.606c0-.484.096-.898.286-1.243.198-.345.473-.609.825-.792.352-.183.77-.275 1.254-.275s.902.092 1.254.275c.352.183.624.447.814.792.198.345.297.755.297 1.232v1.617c0 .477-.099.891-.297 1.243a1.92 1.92 0 01-.814.792c-.352.183-.77.275-1.254.275zm0-.88c.433 0 .77-.121 1.012-.363s.363-.598.363-1.067v-1.606c0-.47-.12-.825-.363-1.067-.242-.242-.58-.363-1.012-.363-.425 0-.762.121-1.012.363-.242.242-.363.598-.363 1.067v1.606c0 .47.121.825.363 1.067.25.242.587.363 1.012.363zm6.618.902c-.484 0-.91-.092-1.276-.275a1.98 1.98 0 01-.836-.792c-.198-.352-.297-.766-.297-1.243v-1.65c0-.484.099-.898.297-1.243a1.98 1.98 0 01.836-.792c.367-.183.792-.275 1.276-.275.697 0 1.258.187 1.683.561.425.374.649.884.671 1.529h-.99c-.022-.389-.154-.686-.396-.891-.235-.213-.557-.319-.968-.319-.433 0-.777.125-1.034.374-.257.242-.385.59-.385 1.045V30.8c0 .455.128.807.385 1.056.257.25.601.374 1.034.374.411 0 .733-.106.968-.319.242-.213.374-.51.396-.891h.99c-.022.645-.246 1.155-.671 1.529-.425.374-.986.561-1.683.561zm6.079-.11v-5.181h-2.2v-.869h5.39v.869h-2.2V33h-.99zm5.748 1.98l.891-2.354-2.244-5.676h1.1l1.408 3.74c.052.125.099.275.143.451l.11.429.11-.429a5.08 5.08 0 01.132-.451l1.32-3.74h1.067l-2.981 8.03h-1.056zm5.672-1.98v-6.05h4.532V33h-.99v-5.148h-2.552V33h-.99zm8.862.088c-.484 0-.902-.092-1.254-.275a1.996 1.996 0 01-.825-.792c-.191-.352-.286-.766-.286-1.243v-1.606c0-.484.095-.898.286-1.243.198-.345.473-.609.825-.792.352-.183.77-.275 1.254-.275s.902.092 1.254.275c.352.183.623.447.814.792.198.345.297.755.297 1.232v1.617c0 .477-.099.891-.297 1.243a1.929 1.929 0 01-.814.792c-.352.183-.77.275-1.254.275zm0-.88c.432 0 .77-.121 1.012-.363s.363-.598.363-1.067v-1.606c0-.47-.121-.825-.363-1.067s-.58-.363-1.012-.363c-.426 0-.763.121-1.012.363-.242.242-.363.598-.363 1.067v1.606c0 .47.121.825.363 1.067.249.242.586.363 1.012.363zm4.131.792v-6.05h1.342l.792 2.321c.081.235.154.47.22.704.066.227.114.403.143.528.03-.125.074-.3.132-.528a39.6 39.6 0 01.209-.715l.748-2.31h1.342V33h-.957v-.935c0-.33.004-.69.011-1.078l.022-1.177.044-1.122c.015-.36.026-.675.033-.946l-1.078 3.443h-1.045l-1.089-3.421c.015.33.026.74.033 1.232.015.491.026 1.005.033 1.54.015.535.022 1.045.022 1.529V33h-.957zm13.39 0v-6.05h4.532V33h-.99v-5.148h-2.552V33h-.99zm8.862.088c-.484 0-.902-.092-1.254-.275a1.996 1.996 0 01-.825-.792c-.191-.352-.286-.766-.286-1.243v-1.606c0-.484.095-.898.286-1.243.198-.345.473-.609.825-.792.352-.183.77-.275 1.254-.275s.902.092 1.254.275c.352.183.623.447.814.792.198.345.297.755.297 1.232v1.617c0 .477-.099.891-.297 1.243a1.929 1.929 0 01-.814.792c-.352.183-.77.275-1.254.275zm0-.88c.432 0 .77-.121 1.012-.363s.363-.598.363-1.067v-1.606c0-.47-.121-.825-.363-1.067s-.58-.363-1.012-.363c-.426 0-.763.121-1.012.363-.242.242-.363.598-.363 1.067v1.606c0 .47.121.825.363 1.067.249.242.586.363 1.012.363zm3.57.869v-.924h.198c.338 0 .572-.132.704-.396.14-.264.213-.737.22-1.419l.066-3.388h4.103V33h-.99v-5.148h-2.134l-.055 2.53c-.014.638-.088 1.155-.22 1.551-.124.396-.322.686-.594.869-.264.183-.612.275-1.045.275h-.253zm7.399-.077v-6.05h.99v2.222h1.782c.682 0 1.217.172 1.606.517.396.337.594.803.594 1.397 0 .587-.198 1.052-.594 1.397-.396.345-.931.517-1.606.517h-2.772zm.99-.902h1.782c.381 0 .671-.084.869-.253.205-.176.308-.429.308-.759s-.103-.58-.308-.748c-.198-.176-.488-.264-.869-.264h-1.782v2.024zm7.542.979c-.638 0-1.163-.136-1.573-.407a1.612 1.612 0 01-.726-1.1h1.045c.051.183.187.334.407.451.227.117.509.176.847.176h.517c.359 0 .638-.084.836-.253a.815.815 0 00.308-.66c0-.293-.099-.524-.297-.693-.191-.169-.473-.253-.847-.253h-1.331v-.858h1.298c.337 0 .594-.08.77-.242a.824.824 0 00.264-.638.839.839 0 00-.121-.462.702.702 0 00-.341-.286 1.422 1.422 0 00-.561-.099h-.55c-.294 0-.547.066-.759.198-.213.132-.341.293-.385.484h-1.045c.073-.455.311-.829.715-1.122.403-.293.894-.44 1.474-.44h.55c.432 0 .803.07 1.111.209.308.132.542.323.704.572.168.25.253.546.253.891 0 .36-.118.656-.352.891-.235.227-.565.356-.99.385v.044c.52.037.898.176 1.133.418.234.242.352.59.352 1.045 0 .535-.198.96-.594 1.276-.396.315-.928.473-1.595.473h-.517zm6.881.011c-.484 0-.902-.092-1.254-.275a1.996 1.996 0 01-.825-.792c-.19-.352-.286-.766-.286-1.243v-1.606c0-.484.096-.898.286-1.243.198-.345.473-.609.825-.792.352-.183.77-.275 1.254-.275s.902.092 1.254.275c.352.183.624.447.814.792.198.345.297.755.297 1.232v1.617c0 .477-.099.891-.297 1.243a1.92 1.92 0 01-.814.792c-.352.183-.77.275-1.254.275zm0-.88c.433 0 .77-.121 1.012-.363s.363-.598.363-1.067v-1.606c0-.47-.121-.825-.363-1.067s-.579-.363-1.012-.363c-.425 0-.762.121-1.012.363-.242.242-.363.598-.363 1.067v1.606c0 .47.121.825.363 1.067.25.242.587.363 1.012.363zm4.33.792v-6.05h2.618c.631 0 1.118.143 1.463.429.345.279.517.671.517 1.177 0 .418-.143.755-.429 1.012-.286.25-.664.374-1.133.374v-.088c.513 0 .924.128 1.232.385.315.257.473.601.473 1.034 0 .543-.183.968-.55 1.276-.367.3-.88.451-1.54.451h-2.651zm.968-.869h1.683c.352 0 .623-.077.814-.231.198-.154.297-.37.297-.649 0-.286-.099-.506-.297-.66-.191-.154-.462-.231-.814-.231h-1.683v1.771zm0-2.629h1.65c.308 0 .55-.073.726-.22.183-.147.275-.352.275-.616s-.088-.47-.264-.616c-.176-.154-.422-.231-.737-.231h-1.65v1.683zm7.366 3.608c-.638 0-1.141-.161-1.507-.484-.367-.33-.55-.774-.55-1.331 0-.565.183-1.008.55-1.331.366-.323.861-.484 1.485-.484h1.87v-.605c0-.374-.114-.66-.341-.858-.22-.205-.536-.308-.946-.308-.36 0-.66.077-.902.231-.242.147-.382.348-.418.605h-.99c.066-.52.311-.935.737-1.243.425-.308.957-.462 1.595-.462.696 0 1.246.18 1.65.539.403.36.605.847.605 1.463V33h-.968v-1.155h-.165l.165-.165c0 .44-.173.788-.517 1.045-.338.257-.789.385-1.353.385zm.242-.781c.469 0 .854-.117 1.155-.352.3-.235.451-.535.451-.902v-.858h-1.848c-.33 0-.591.092-.781.275-.191.183-.286.433-.286.748 0 .337.113.605.341.803.234.19.557.286.968.286zm6.387.671v-5.181h-2.2v-.869h5.39v.869h-2.2V33h-.99zm7.09.11c-.476 0-.894-.095-1.254-.286a2.07 2.07 0 01-.825-.803 2.531 2.531 0 01-.286-1.221v-1.65c0-.47.096-.876.286-1.221a2.07 2.07 0 01.825-.803c.36-.19.778-.286 1.254-.286.477 0 .891.095 1.243.286.36.19.635.458.825.803.198.345.297.752.297 1.221v1.067h-3.762v.583c0 .477.121.843.363 1.1.242.25.587.374 1.034.374.382 0 .69-.066.924-.198a.872.872 0 00.429-.616h.99c-.066.506-.315.91-.748 1.21-.425.293-.957.44-1.595.44zm1.397-3.553v-.407c0-.477-.121-.843-.363-1.1-.234-.257-.579-.385-1.034-.385-.447 0-.792.128-1.034.385s-.363.623-.363 1.1v.319h2.871l-.077.088zm2.174 3.52v-.924h.198c.337 0 .572-.132.704-.396.139-.264.213-.737.22-1.419l.066-3.388h4.103V33h-.99v-5.148h-2.134l-.055 2.53c-.015.638-.088 1.155-.22 1.551-.125.396-.323.686-.594.869-.264.183-.612.275-1.045.275h-.253zm9.621.033c-.477 0-.895-.095-1.254-.286a2.07 2.07 0 01-.825-.803c-.191-.352-.286-.759-.286-1.221v-1.65c0-.47.095-.876.286-1.221a2.07 2.07 0 01.825-.803c.359-.19.777-.286 1.254-.286.476 0 .891.095 1.243.286.359.19.634.458.825.803.198.345.297.752.297 1.221v1.067h-3.762v.583c0 .477.121.843.363 1.1.242.25.586.374 1.034.374.381 0 .689-.066.924-.198a.878.878 0 00.429-.616h.99c-.066.506-.316.91-.748 1.21-.426.293-.957.44-1.595.44zm1.397-3.553v-.407c0-.477-.121-.843-.363-1.1-.235-.257-.58-.385-1.034-.385-.448 0-.792.128-1.034.385s-.363.623-.363 1.1v.319h2.871l-.077.088zM222.895 33v-6.05h.946v3.3c0 .213-.007.436-.022.671a9.185 9.185 0 01-.044.671 6.655 6.655 0 01-.055.528l2.442-5.17h1.265V33h-.946v-3.3c0-.213.004-.436.011-.671.015-.235.033-.458.055-.671l.055-.539L224.16 33h-1.265zm2.31-7.04c-.528 0-.953-.147-1.276-.44-.322-.293-.484-.678-.484-1.155h.781c0 .286.088.517.264.693.176.176.411.264.704.264.301 0 .539-.088.715-.264.184-.176.275-.407.275-.693h.781c0 .477-.161.862-.484 1.155-.322.293-.748.44-1.276.44zM236.12 33v-6.05h.99v2.497h1.034l1.76-2.497h1.133l-2.035 2.882L241.07 33h-1.155l-1.76-2.695h-1.045V33h-.99zm15.138.077c-.638 0-1.162-.136-1.573-.407a1.619 1.619 0 01-.726-1.1h1.045c.051.183.187.334.407.451.227.117.51.176.847.176h.517c.359 0 .638-.084.836-.253a.815.815 0 00.308-.66c0-.293-.099-.524-.297-.693-.191-.169-.473-.253-.847-.253h-1.331v-.858h1.298c.337 0 .594-.08.77-.242a.824.824 0 00.264-.638.83.83 0 00-.121-.462.698.698 0 00-.341-.286 1.422 1.422 0 00-.561-.099h-.55c-.293 0-.546.066-.759.198-.213.132-.341.293-.385.484h-1.045c.073-.455.312-.829.715-1.122.403-.293.895-.44 1.474-.44h.55c.433 0 .803.07 1.111.209.308.132.543.323.704.572.169.25.253.546.253.891 0 .36-.117.656-.352.891-.235.227-.565.356-.99.385v.044c.521.037.898.176 1.133.418s.352.59.352 1.045c0 .535-.198.96-.594 1.276-.396.315-.928.473-1.595.473h-.517zm6.354.033c-.638 0-1.14-.161-1.507-.484-.367-.33-.55-.774-.55-1.331 0-.565.183-1.008.55-1.331.367-.323.862-.484 1.485-.484h1.87v-.605c0-.374-.114-.66-.341-.858-.22-.205-.535-.308-.946-.308-.359 0-.66.077-.902.231a.823.823 0 00-.418.605h-.99c.066-.52.312-.935.737-1.243.425-.308.957-.462 1.595-.462.697 0 1.247.18 1.65.539.403.36.605.847.605 1.463V33h-.968v-1.155h-.165l.165-.165c0 .44-.172.788-.517 1.045-.337.257-.788.385-1.353.385zm.242-.781c.469 0 .854-.117 1.155-.352.301-.235.451-.535.451-.902v-.858h-1.848c-.33 0-.59.092-.781.275-.191.183-.286.433-.286.748 0 .337.114.605.341.803.235.19.557.286.968.286zm4.649.671v-6.05h.99v2.497h1.034l1.76-2.497h1.133l-2.035 2.882L267.453 33h-1.155l-1.76-2.695h-1.045V33h-.99zm6.54 1.98v-8.03h.99v1.155h.198l-.198.231c0-.462.151-.825.451-1.089.308-.271.712-.407 1.21-.407.609 0 1.093.202 1.452.605.367.396.55.942.55 1.639v1.771c0 .462-.084.862-.253 1.199a1.795 1.795 0 01-.693.781c-.293.183-.645.275-1.056.275-.491 0-.891-.136-1.199-.407-.308-.271-.462-.634-.462-1.089l.198.231h-.22l.022 1.375v1.76h-.99zm2.321-2.728c.418 0 .745-.125.979-.374.242-.25.363-.609.363-1.078v-1.65c0-.47-.121-.829-.363-1.078-.234-.25-.561-.374-.979-.374-.403 0-.726.128-.968.385s-.363.612-.363 1.067v1.65c0 .455.121.81.363 1.067.242.257.565.385.968.385zm3.978.748v-6.05h.924v2.222h.495c.653 0 1.166.172 1.54.517.381.337.572.803.572 1.397s-.191 1.063-.572 1.408c-.374.337-.887.506-1.54.506h-1.419zm.924-.792h.495c.389 0 .689-.099.902-.297.22-.198.33-.473.33-.825s-.11-.627-.33-.825c-.213-.198-.513-.297-.902-.297h-.495v2.244zm3.322.792v-6.05h.924V33h-.924zm4.44 0v-5.181h-2.2v-.869h5.39v.869h-2.2V33h-.99zm7.09.088c-.484 0-.902-.092-1.254-.275a1.996 1.996 0 01-.825-.792c-.19-.352-.286-.766-.286-1.243v-1.606c0-.484.096-.898.286-1.243.198-.345.473-.609.825-.792.352-.183.77-.275 1.254-.275s.902.092 1.254.275c.352.183.624.447.814.792.198.345.297.755.297 1.232v1.617c0 .477-.099.891-.297 1.243a1.92 1.92 0 01-.814.792c-.352.183-.77.275-1.254.275zm0-.88c.433 0 .77-.121 1.012-.363s.363-.598.363-1.067v-1.606c0-.47-.121-.825-.363-1.067s-.579-.363-1.012-.363c-.425 0-.762.121-1.012.363-.242.242-.363.598-.363 1.067v1.606c0 .47.121.825.363 1.067.25.242.587.363 1.012.363zm4.132.792v-6.05h1.342l.792 2.321c.081.235.154.47.22.704.066.227.114.403.143.528.029-.125.073-.3.132-.528a39.6 39.6 0 01.209-.715l.748-2.31h1.342V33h-.957v-.935c0-.33.004-.69.011-1.078l.022-1.177c.015-.396.029-.77.044-1.122.015-.36.026-.675.033-.946l-1.078 3.443h-1.045l-1.089-3.421c.015.33.026.74.033 1.232.015.491.026 1.005.033 1.54.015.535.022 1.045.022 1.529V33h-.957zm7.718 1.98l.891-2.354-2.244-5.676h1.1l1.408 3.74c.051.125.099.275.143.451l.11.429.11-.429a5.08 5.08 0 01.132-.451l1.32-3.74h1.067l-2.981 8.03h-1.056zM13.604 48v-7.139h-2.2v-.902h5.39v.902h-2.2V48h-.99zm7.09.11c-.476 0-.894-.095-1.253-.286a2.07 2.07 0 01-.825-.803 2.524 2.524 0 01-.287-1.221v-1.65c0-.47.096-.876.287-1.221a2.07 2.07 0 01.825-.803c.359-.19.777-.286 1.254-.286.476 0 .89.095 1.242.286.36.19.635.458.825.803.198.345.297.752.297 1.221v1.067h-3.762v.583c0 .477.122.843.363 1.1.242.25.587.374 1.035.374.38 0 .689-.066.924-.198a.874.874 0 00.428-.616h.99c-.066.506-.315.91-.747 1.21-.426.293-.957.44-1.595.44zm1.398-3.553v-.407c0-.477-.121-.843-.363-1.1-.235-.257-.58-.385-1.034-.385-.448 0-.793.128-1.035.385-.241.257-.363.623-.363 1.1v.319h2.872l-.078.088zM28.114 48c-.352 0-.66-.07-.924-.209a1.502 1.502 0 01-.616-.594 1.788 1.788 0 01-.22-.902v-5.423H24.32v-.902h3.025v6.325c0 .25.07.447.21.594.139.14.326.209.56.209h1.925V48h-1.925zm5.77.11c-.476 0-.894-.095-1.253-.286a2.07 2.07 0 01-.825-.803 2.524 2.524 0 01-.286-1.221v-1.65c0-.47.095-.876.286-1.221a2.07 2.07 0 01.825-.803c.36-.19.777-.286 1.254-.286s.89.095 1.243.286c.36.19.634.458.825.803.198.345.297.752.297 1.221v1.067h-3.762v.583c0 .477.12.843.363 1.1.242.25.587.374 1.034.374.381 0 .69-.066.924-.198a.874.874 0 00.429-.616h.99c-.066.506-.315.91-.748 1.21-.425.293-.957.44-1.595.44zm1.398-3.553v-.407c0-.477-.121-.843-.363-1.1-.235-.257-.58-.385-1.034-.385-.447 0-.792.128-1.034.385s-.363.623-.363 1.1v.319h2.87l-.076.088zm3.67 5.423v-.902h1.925c.308 0 .531-.07.67-.209.147-.14.22-.356.22-.649v-.77l.023-1.1h-.198l.187-.165c0 .44-.147.788-.44 1.045-.294.257-.686.385-1.177.385-.624 0-1.115-.202-1.474-.605-.36-.41-.54-.96-.54-1.65v-1.276c0-.69.18-1.236.54-1.639.359-.403.85-.605 1.474-.605.491 0 .883.128 1.177.385.293.257.44.605.44 1.045l-.187-.165h.187V41.95h.979v6.27c0 .543-.169.972-.506 1.287-.33.315-.792.473-1.386.473h-1.914zm1.507-3.223c.41 0 .733-.128.968-.385.234-.257.352-.612.352-1.067V44.15c0-.455-.118-.81-.352-1.067-.235-.257-.558-.385-.968-.385-.418 0-.745.125-.98.374-.227.25-.34.609-.34 1.078v1.155c0 .47.113.829.34 1.078.235.25.562.374.98.374zM44.998 48v-6.05h.968v1.155h.231l-.319.715c0-.653.14-1.144.418-1.474.286-.337.708-.506 1.265-.506.638 0 1.144.202 1.518.605.382.396.572.935.572 1.617v.363h-.99v-.275c0-.477-.117-.84-.352-1.089-.227-.257-.553-.385-.979-.385-.418 0-.748.128-.99.385-.234.257-.352.62-.352 1.089V48h-.99zm8.147.11c-.638 0-1.14-.161-1.507-.484-.367-.33-.55-.774-.55-1.331 0-.565.183-1.008.55-1.331.367-.323.862-.484 1.485-.484h1.87v-.605c0-.374-.114-.66-.341-.858-.22-.205-.535-.308-.946-.308-.36 0-.66.077-.902.231-.242.147-.381.348-.418.605h-.99c.066-.52.312-.935.737-1.243.425-.308.957-.462 1.595-.462.697 0 1.247.18 1.65.539.403.36.605.847.605 1.463V48h-.968v-1.155h-.165l.165-.165c0 .44-.172.788-.517 1.045-.337.257-.788.385-1.353.385zm.242-.781c.47 0 .854-.117 1.155-.352.3-.235.451-.535.451-.902v-.858h-1.848c-.33 0-.59.092-.781.275-.19.183-.286.433-.286.748 0 .337.114.605.341.803.235.19.557.286.968.286zm4.308.671v-6.05h.869v.726h.198l-.154.264c0-.337.088-.605.264-.803.183-.198.429-.297.737-.297.337 0 .597.125.78.374.184.25.276.601.276 1.056l-.297-.594h.462l-.21.264c0-.337.092-.605.276-.803.19-.198.44-.297.748-.297.381 0 .674.143.88.429.212.286.319.664.319 1.133V48h-.913v-4.609c0-.25-.055-.444-.165-.583-.103-.14-.257-.209-.462-.209a.587.587 0 00-.473.209c-.11.132-.165.323-.165.572V48h-.792v-4.609c0-.257-.059-.451-.176-.583-.11-.14-.268-.209-.473-.209-.206 0-.36.07-.462.209-.103.132-.154.323-.154.572V48h-.913zm7.41-3.19v-.88h3.52v.88h-3.52zM71.227 48v-6.05h.99v2.497h1.034l1.76-2.497h1.133l-2.035 2.882L76.177 48h-1.155l-1.76-2.695h-1.045V48h-.99zm8.3.11c-.637 0-1.14-.161-1.506-.484-.367-.33-.55-.774-.55-1.331 0-.565.183-1.008.55-1.331.367-.323.861-.484 1.485-.484h1.87v-.605c0-.374-.114-.66-.341-.858-.22-.205-.535-.308-.946-.308-.36 0-.66.077-.902.231-.242.147-.382.348-.418.605h-.99c.066-.52.312-.935.737-1.243.425-.308.957-.462 1.595-.462.697 0 1.246.18 1.65.539.403.36.605.847.605 1.463V48h-.968v-1.155h-.165l.165-.165c0 .44-.172.788-.517 1.045-.338.257-.788.385-1.353.385zm.243-.781c.47 0 .854-.117 1.155-.352.3-.235.45-.535.45-.902v-.858h-1.847c-.33 0-.59.092-.781.275-.19.183-.286.433-.286.748 0 .337.114.605.34.803.236.19.558.286.969.286zm4.616.671v-6.05h.99v2.519h2.552V41.95h.99V48h-.99v-2.629h-2.552V48h-.99zm8.333.11c-.638 0-1.14-.161-1.507-.484-.366-.33-.55-.774-.55-1.331 0-.565.184-1.008.55-1.331.367-.323.862-.484 1.485-.484h1.87v-.605c0-.374-.113-.66-.34-.858-.22-.205-.536-.308-.947-.308-.36 0-.66.077-.902.231-.242.147-.381.348-.418.605h-.99c.066-.52.312-.935.737-1.243.426-.308.957-.462 1.595-.462.697 0 1.247.18 1.65.539.404.36.605.847.605 1.463V48h-.968v-1.155h-.165l.165-.165c0 .44-.172.788-.517 1.045-.337.257-.788.385-1.353.385zm.242-.781c.47 0 .855-.117 1.155-.352.3-.235.451-.535.451-.902v-.858H92.72c-.33 0-.59.092-.78.275-.191.183-.287.433-.287.748 0 .337.114.605.341.803.235.19.558.286.968.286zm3.857.748v-.924h.198c.337 0 .572-.132.704-.396.14-.264.213-.737.22-1.419l.066-3.388h4.103V48h-.99v-5.148h-2.134l-.055 2.53c-.015.638-.088 1.155-.22 1.551-.125.396-.323.686-.594.869-.264.183-.612.275-1.045.275h-.253zm8.279 1.903l.891-2.354-2.244-5.676h1.1l1.408 3.74c.051.125.099.275.143.451l.11.429.11-.429a5.08 5.08 0 01.132-.451l1.32-3.74h1.067l-2.981 8.03h-1.056zM117.364 48v-6.05h.99v2.519h2.552V41.95h.99V48h-.99v-2.629h-2.552V48h-.99zm8.334.11c-.638 0-1.141-.161-1.507-.484-.367-.33-.55-.774-.55-1.331 0-.565.183-1.008.55-1.331.366-.323.861-.484 1.485-.484h1.87v-.605c0-.374-.114-.66-.341-.858-.22-.205-.536-.308-.946-.308-.36 0-.66.077-.902.231-.242.147-.382.348-.418.605h-.99c.066-.52.311-.935.737-1.243.425-.308.957-.462 1.595-.462.696 0 1.246.18 1.65.539.403.36.605.847.605 1.463V48h-.968v-1.155h-.165l.165-.165c0 .44-.173.788-.517 1.045-.338.257-.789.385-1.353.385zm.242-.781c.469 0 .854-.117 1.155-.352.3-.235.451-.535.451-.902v-.858h-1.848c-.33 0-.591.092-.781.275-.191.183-.286.433-.286.748 0 .337.113.605.341.803.234.19.557.286.968.286zm13.477.759c-.484 0-.902-.092-1.254-.275a1.996 1.996 0 01-.825-.792c-.19-.352-.286-.766-.286-1.243v-1.606c0-.484.096-.898.286-1.243.198-.345.473-.609.825-.792.352-.183.77-.275 1.254-.275s.902.092 1.254.275c.352.183.624.447.814.792.198.345.297.755.297 1.232v1.617c0 .477-.099.891-.297 1.243a1.92 1.92 0 01-.814.792c-.352.183-.77.275-1.254.275zm0-.88c.433 0 .77-.121 1.012-.363s.363-.598.363-1.067v-1.606c0-.47-.121-.825-.363-1.067s-.579-.363-1.012-.363c-.425 0-.762.121-1.012.363-.242.242-.363.598-.363 1.067v1.606c0 .47.121.825.363 1.067.25.242.587.363 1.012.363zm6.618.902c-.484 0-.909-.092-1.276-.275a1.982 1.982 0 01-.836-.792c-.198-.352-.297-.766-.297-1.243v-1.65c0-.484.099-.898.297-1.243.198-.345.477-.609.836-.792.367-.183.792-.275 1.276-.275.697 0 1.258.187 1.683.561.425.374.649.884.671 1.529h-.99c-.022-.389-.154-.686-.396-.891-.235-.213-.557-.319-.968-.319-.433 0-.777.125-1.034.374-.257.242-.385.59-.385 1.045V45.8c0 .455.128.807.385 1.056.257.25.601.374 1.034.374.411 0 .733-.106.968-.319.242-.213.374-.51.396-.891h.99c-.022.645-.246 1.155-.671 1.529-.425.374-.986.561-1.683.561zm4.308-.11v-6.05h.99v2.519h2.552V41.95h.99V48h-.99v-2.629h-2.552V48h-.99zm8.861.088c-.484 0-.902-.092-1.254-.275a1.996 1.996 0 01-.825-.792c-.19-.352-.286-.766-.286-1.243v-1.606c0-.484.096-.898.286-1.243.198-.345.473-.609.825-.792.352-.183.77-.275 1.254-.275s.902.092 1.254.275c.352.183.624.447.814.792.198.345.297.755.297 1.232v1.617c0 .477-.099.891-.297 1.243a1.92 1.92 0 01-.814.792c-.352.183-.77.275-1.254.275zm0-.88c.433 0 .77-.121 1.012-.363s.363-.598.363-1.067v-1.606c0-.47-.121-.825-.363-1.067s-.579-.363-1.012-.363c-.425 0-.762.121-1.012.363-.242.242-.363.598-.363 1.067v1.606c0 .47.121.825.363 1.067.25.242.587.363 1.012.363zm4.33.792v-6.05h2.618c.631 0 1.118.143 1.463.429.345.279.517.671.517 1.177 0 .418-.143.755-.429 1.012-.286.25-.664.374-1.133.374v-.088c.513 0 .924.128 1.232.385.315.257.473.601.473 1.034 0 .543-.183.968-.55 1.276-.367.3-.88.451-1.54.451h-2.651zm.968-.869h1.683c.352 0 .623-.077.814-.231.198-.154.297-.37.297-.649 0-.286-.099-.506-.297-.66-.191-.154-.462-.231-.814-.231h-1.683v1.771zm0-2.629h1.65c.308 0 .55-.073.726-.22.183-.147.275-.352.275-.616s-.088-.47-.264-.616c-.176-.154-.422-.231-.737-.231h-1.65v1.683zm7.894 3.608c-.477 0-.895-.095-1.254-.286a2.07 2.07 0 01-.825-.803c-.191-.352-.286-.759-.286-1.221v-1.65c0-.47.095-.876.286-1.221a2.07 2.07 0 01.825-.803c.359-.19.777-.286 1.254-.286.476 0 .891.095 1.243.286.359.19.634.458.825.803.198.345.297.752.297 1.221v1.067h-3.762v.583c0 .477.121.843.363 1.1.242.25.586.374 1.034.374.381 0 .689-.066.924-.198a.878.878 0 00.429-.616h.99c-.066.506-.316.91-.748 1.21-.426.293-.957.44-1.595.44zm1.397-3.553v-.407c0-.477-.121-.843-.363-1.1-.235-.257-.58-.385-1.034-.385-.448 0-.792.128-1.034.385s-.363.623-.363 1.1v.319h2.871l-.077.088zm11.794 3.531c-.484 0-.902-.092-1.254-.275a1.996 1.996 0 01-.825-.792c-.191-.352-.286-.766-.286-1.243v-1.606c0-.484.095-.898.286-1.243.198-.345.473-.609.825-.792.352-.183.77-.275 1.254-.275s.902.092 1.254.275c.352.183.623.447.814.792.198.345.297.755.297 1.232v1.617c0 .477-.099.891-.297 1.243a1.929 1.929 0 01-.814.792c-.352.183-.77.275-1.254.275zm0-.88c.433 0 .77-.121 1.012-.363s.363-.598.363-1.067v-1.606c0-.47-.121-.825-.363-1.067s-.579-.363-1.012-.363c-.425 0-.763.121-1.012.363-.242.242-.363.598-.363 1.067v1.606c0 .47.121.825.363 1.067.249.242.587.363 1.012.363zm4.33.792v-6.05h4.532V48h-.99v-5.148h-2.552V48h-.99zm5.837.077v-.924h.198c.337 0 .572-.132.704-.396.139-.264.212-.737.22-1.419l.066-3.388h4.103V48h-.99v-5.148h-2.134l-.055 2.53c-.015.638-.088 1.155-.22 1.551-.125.396-.323.686-.594.869-.264.183-.613.275-1.045.275h-.253zm9.092.033c-.638 0-1.14-.161-1.507-.484-.366-.33-.55-.774-.55-1.331 0-.565.184-1.008.55-1.331.367-.323.862-.484 1.485-.484h1.87v-.605c0-.374-.113-.66-.341-.858-.22-.205-.535-.308-.946-.308-.359 0-.66.077-.902.231a.823.823 0 00-.418.605h-.99c.066-.52.312-.935.737-1.243.426-.308.957-.462 1.595-.462.697 0 1.247.18 1.65.539.404.36.605.847.605 1.463V48h-.968v-1.155h-.165l.165-.165c0 .44-.172.788-.517 1.045-.337.257-.788.385-1.353.385zm.242-.781c.47 0 .855-.117 1.155-.352.301-.235.451-.535.451-.902v-.858h-1.848c-.33 0-.59.092-.781.275-.19.183-.286.433-.286.748 0 .337.114.605.341.803.235.19.558.286.968.286zm8.092.671v-2.2c-.117.03-.297.059-.539.088a8.033 8.033 0 01-.748.033c-.748.007-1.331-.172-1.749-.539-.411-.374-.616-.895-.616-1.562v-1.87h.99v1.87c0 .374.125.671.374.891.257.213.609.319 1.056.319.308 0 .568-.011.781-.033.22-.03.37-.055.451-.077v-2.97h.99V48h-.99zm5.386.11c-.477 0-.895-.095-1.254-.286a2.07 2.07 0 01-.825-.803c-.191-.352-.286-.759-.286-1.221v-1.65c0-.47.095-.876.286-1.221a2.07 2.07 0 01.825-.803c.359-.19.777-.286 1.254-.286.476 0 .891.095 1.243.286.359.19.634.458.825.803.198.345.297.752.297 1.221v1.067h-3.762v.583c0 .477.121.843.363 1.1.242.25.586.374 1.034.374.381 0 .689-.066.924-.198a.878.878 0 00.429-.616h.99c-.066.506-.316.91-.748 1.21-.426.293-.957.44-1.595.44zm1.397-3.553v-.407c0-.477-.121-.843-.363-1.1-.235-.257-.58-.385-1.034-.385-.448 0-.792.128-1.034.385s-.363.623-.363 1.1v.319h2.871l-.077.088zM222.895 48v-6.05h.99v2.519h2.552V41.95h.99V48h-.99v-2.629h-2.552V48h-.99zm6.596 0v-6.05h.99v2.519h2.552V41.95h.99V48h-.99v-2.629h-2.552V48h-.99zm8.862.088c-.484 0-.902-.092-1.254-.275a1.996 1.996 0 01-.825-.792c-.191-.352-.286-.766-.286-1.243v-1.606c0-.484.095-.898.286-1.243.198-.345.473-.609.825-.792.352-.183.77-.275 1.254-.275s.902.092 1.254.275c.352.183.623.447.814.792.198.345.297.755.297 1.232v1.617c0 .477-.099.891-.297 1.243a1.929 1.929 0 01-.814.792c-.352.183-.77.275-1.254.275zm0-.88c.432 0 .77-.121 1.012-.363s.363-.598.363-1.067v-1.606c0-.47-.121-.825-.363-1.067s-.58-.363-1.012-.363c-.426 0-.763.121-1.012.363-.242.242-.363.598-.363 1.067v1.606c0 .47.121.825.363 1.067.249.242.586.363 1.012.363zm4.329.792v-6.05h.946v3.3c0 .213-.007.436-.022.671a9.185 9.185 0 01-.044.671 6.655 6.655 0 01-.055.528l2.442-5.17h1.265V48h-.946v-3.3c0-.213.004-.436.011-.671.015-.235.033-.458.055-.671l.055-.539L243.947 48h-1.265zm2.31-7.04c-.528 0-.953-.147-1.276-.44-.322-.293-.484-.678-.484-1.155h.781c0 .286.088.517.264.693.176.176.411.264.704.264.301 0 .539-.088.715-.264.184-.176.275-.407.275-.693h.781c0 .477-.161.862-.484 1.155-.322.293-.748.44-1.276.44zM255.874 48v-6.05h4.532V48h-.99v-5.148h-2.552V48h-.99zm8.862.088c-.484 0-.902-.092-1.254-.275a1.996 1.996 0 01-.825-.792c-.191-.352-.286-.766-.286-1.243v-1.606c0-.484.095-.898.286-1.243.198-.345.473-.609.825-.792.352-.183.77-.275 1.254-.275s.902.092 1.254.275c.352.183.623.447.814.792.198.345.297.755.297 1.232v1.617c0 .477-.099.891-.297 1.243a1.929 1.929 0 01-.814.792c-.352.183-.77.275-1.254.275zm0-.88c.432 0 .77-.121 1.012-.363s.363-.598.363-1.067v-1.606c0-.47-.121-.825-.363-1.067s-.58-.363-1.012-.363c-.426 0-.763.121-1.012.363-.242.242-.363.598-.363 1.067v1.606c0 .47.121.825.363 1.067.249.242.586.363 1.012.363zm3.625 2.332v-2.387h.495c.125-.125.253-.37.385-.737.14-.367.213-.832.22-1.397l.066-3.069h3.949v5.203h.77v2.387h-.88V48h-4.125v1.54h-.88zm1.54-2.387h2.585V42.83h-2.024l-.044 2.211c-.007.58-.069 1.049-.187 1.408-.117.36-.227.594-.33.704zm5.76.847v-6.05h4.532V48h-.99v-5.148h-2.552V48h-.99zm6.596 0v-6.05h.946v3.3c0 .213-.008.436-.022.671a9.779 9.779 0 01-.044.671 7.162 7.162 0 01-.055.528l2.442-5.17h1.265V48h-.946v-3.3c0-.213.003-.436.011-.671.014-.235.033-.458.055-.671l.055-.539L283.522 48h-1.265zm8.883.11c-.484 0-.909-.092-1.276-.275a1.982 1.982 0 01-.836-.792c-.198-.352-.297-.766-.297-1.243v-1.65c0-.484.099-.898.297-1.243.198-.345.477-.609.836-.792.367-.183.792-.275 1.276-.275.697 0 1.258.187 1.683.561.426.374.649.884.671 1.529h-.99c-.022-.389-.154-.686-.396-.891-.234-.213-.557-.319-.968-.319-.432 0-.777.125-1.034.374-.256.242-.385.59-.385 1.045V45.8c0 .455.129.807.385 1.056.257.25.602.374 1.034.374.411 0 .734-.106.968-.319.242-.213.374-.51.396-.891h.99c-.022.645-.245 1.155-.671 1.529-.425.374-.986.561-1.683.561zm4.341-.11v-6.05h.99v2.497h1.034l1.76-2.497h1.133l-2.035 2.882L300.431 48h-1.155l-1.76-2.695h-1.045V48h-.99zm6.563 0v-6.05h.946v3.3c0 .213-.008.436-.022.671a9.779 9.779 0 01-.044.671 7.162 7.162 0 01-.055.528l2.442-5.17h1.265V48h-.946v-3.3c0-.213.003-.436.011-.671.014-.235.033-.458.055-.671l.055-.539L303.309 48h-1.265zm8.861.11c-.278 0-.502-.08-.671-.242-.161-.161-.242-.378-.242-.649 0-.286.081-.513.242-.682.169-.169.393-.253.671-.253.279 0 .499.084.66.253.169.169.253.396.253.682 0 .271-.084.488-.253.649-.161.161-.381.242-.66.242zM8.535 63v-8.03h4.466v.902H9.525v2.42h1.331c.513 0 .953.099 1.32.297.367.19.649.462.847.814.205.352.308.766.308 1.243 0 .477-.103.891-.308 1.243-.198.352-.48.627-.847.825-.367.19-.807.286-1.32.286H8.535zm.99-.902h1.331c.455 0 .81-.128 1.067-.385.257-.264.385-.62.385-1.067 0-.455-.128-.81-.385-1.067-.257-.257-.612-.385-1.067-.385H9.525v2.904zm7.872.99c-.484 0-.902-.092-1.254-.275a1.996 1.996 0 01-.825-.792c-.191-.352-.286-.766-.286-1.243v-1.606c0-.484.095-.898.286-1.243.198-.345.473-.609.825-.792.352-.183.77-.275 1.254-.275s.902.092 1.254.275c.352.183.623.447.814.792.198.345.297.755.297 1.232v1.617c0 .477-.1.891-.297 1.243a1.925 1.925 0 01-.814.792c-.352.183-.77.275-1.254.275zm0-.88c.432 0 .77-.121 1.012-.363s.363-.598.363-1.067v-1.606c0-.47-.121-.825-.363-1.067s-.58-.363-1.012-.363c-.426 0-.763.121-1.012.363-.242.242-.363.598-.363 1.067v1.606c0 .47.12.825.363 1.067.249.242.586.363 1.012.363zm6.1.792v-5.181h-2.2v-.869h5.39v.869h-2.2V63h-.99zm11.454 0v-6.05h.99v2.497h1.034l1.76-2.497h1.133l-2.035 2.882L39.9 63h-1.155l-1.76-2.695H35.94V63h-.99zm8.828.088c-.484 0-.902-.092-1.254-.275a1.996 1.996 0 01-.825-.792c-.19-.352-.286-.766-.286-1.243v-1.606c0-.484.096-.898.286-1.243.198-.345.473-.609.825-.792.352-.183.77-.275 1.255-.275.483 0 .901.092 1.253.275.352.183.624.447.814.792.198.345.297.755.297 1.232v1.617c0 .477-.099.891-.297 1.243a1.92 1.92 0 01-.814.792c-.352.183-.77.275-1.254.275zm0-.88c.433 0 .77-.121 1.012-.363s.364-.598.364-1.067v-1.606c0-.47-.122-.825-.364-1.067-.241-.242-.579-.363-1.011-.363-.426 0-.763.121-1.013.363-.242.242-.363.598-.363 1.067v1.606c0 .47.121.825.363 1.067.25.242.587.363 1.012.363zm4.33.792v-6.05h.99v2.519h2.552V56.95h.99V63h-.99v-2.629H49.1V63h-.99zm8.367 0v-5.181h-2.2v-.869h5.39v.869h-2.2V63h-.99zm4.803 1.98v-8.03h.99v1.155h.198l-.198.231c0-.462.15-.825.45-1.089.309-.271.712-.407 1.21-.407.61 0 1.093.202 1.453.605.366.396.55.942.55 1.639v1.771c0 .462-.085.862-.253 1.199a1.798 1.798 0 01-.693.781c-.294.183-.646.275-1.056.275-.492 0-.891-.136-1.2-.407-.307-.271-.461-.634-.461-1.089l.198.231h-.22l.022 1.375v1.76h-.99zm2.32-2.728c.419 0 .745-.125.98-.374.242-.25.363-.609.363-1.078v-1.65c0-.47-.121-.829-.363-1.078-.235-.25-.561-.374-.98-.374-.403 0-.725.128-.967.385s-.363.612-.363 1.067v1.65c0 .455.12.81.363 1.067.242.257.564.385.968.385zm6.563.836c-.484 0-.902-.092-1.254-.275a1.996 1.996 0 01-.825-.792c-.19-.352-.286-.766-.286-1.243v-1.606c0-.484.096-.898.286-1.243.198-.345.473-.609.825-.792.352-.183.77-.275 1.254-.275s.902.092 1.254.275c.352.183.624.447.814.792.198.345.297.755.297 1.232v1.617c0 .477-.099.891-.297 1.243a1.92 1.92 0 01-.814.792c-.352.183-.77.275-1.254.275zm0-.88c.433 0 .77-.121 1.012-.363s.363-.598.363-1.067v-1.606c0-.47-.12-.825-.363-1.067-.242-.242-.579-.363-1.012-.363-.425 0-.762.121-1.012.363-.242.242-.363.598-.363 1.067v1.606c0 .47.121.825.363 1.067.25.242.587.363 1.012.363zm3.571.869v-.924h.198c.337 0 .572-.132.704-.396.14-.264.213-.737.22-1.419l.066-3.388h4.103V63h-.99v-5.148H75.9l-.055 2.53c-.015.638-.088 1.155-.22 1.551-.125.396-.323.686-.594.869-.264.183-.612.275-1.045.275h-.253zM81.088 63v-6.05h.946v3.3c0 .213-.008.436-.022.671a9.355 9.355 0 01-.044.671 7.002 7.002 0 01-.055.528l2.442-5.17h1.265V63h-.946v-3.3c0-.213.003-.436.01-.671.015-.235.034-.458.056-.671l.055-.539L82.353 63h-1.265zm6.573 1.98v-8.03h.99v1.155h.198l-.198.231c0-.462.15-.825.451-1.089.308-.271.712-.407 1.21-.407.61 0 1.093.202 1.452.605.367.396.55.942.55 1.639v1.771c0 .462-.084.862-.253 1.199a1.798 1.798 0 01-.693.781c-.293.183-.645.275-1.056.275-.49 0-.89-.136-1.199-.407-.308-.271-.462-.634-.462-1.089l.198.231h-.22l.022 1.375v1.76h-.99zm2.321-2.728c.418 0 .745-.125.98-.374.241-.25.362-.609.362-1.078v-1.65c0-.47-.12-.829-.363-1.078-.234-.25-.56-.374-.979-.374-.403 0-.726.128-.968.385s-.363.612-.363 1.067v1.65c0 .455.121.81.363 1.067.242.257.565.385.968.385zm5.221 2.728l.891-2.354-2.244-5.676h1.1l1.408 3.74c.051.125.1.275.143.451l.11.429.11-.429a5.08 5.08 0 01.132-.451l1.32-3.74h1.067l-2.98 8.03h-1.057zm7.938-1.87c-.477 0-.895-.095-1.254-.286a2.07 2.07 0 01-.825-.803c-.191-.352-.286-.759-.286-1.221v-1.65c0-.47.095-.876.286-1.221a2.07 2.07 0 01.825-.803c.359-.19.777-.286 1.254-.286.476 0 .891.095 1.243.286.359.19.634.458.825.803.198.345.297.752.297 1.221v1.067h-3.762v.583c0 .477.121.843.363 1.1.242.25.586.374 1.034.374.381 0 .689-.066.924-.198a.878.878 0 00.429-.616h.99c-.066.506-.316.91-.748 1.21-.426.293-.957.44-1.595.44zm1.397-3.553v-.407c0-.477-.121-.843-.363-1.1-.235-.257-.58-.385-1.034-.385-.448 0-.792.128-1.034.385s-.363.623-.363 1.1v.319h2.871l-.077.088zM109.242 63v-5.181h-2.2v-.869h5.39v.869h-2.2V63h-.99zm13.708.11c-.484 0-.909-.092-1.276-.275a1.982 1.982 0 01-.836-.792c-.198-.352-.297-.766-.297-1.243v-1.65c0-.484.099-.898.297-1.243.198-.345.477-.609.836-.792.367-.183.792-.275 1.276-.275.697 0 1.258.187 1.683.561.425.374.649.884.671 1.529h-.99c-.022-.389-.154-.686-.396-.891-.235-.213-.557-.319-.968-.319-.433 0-.777.125-1.034.374-.257.242-.385.59-.385 1.045V60.8c0 .455.128.807.385 1.056.257.25.601.374 1.034.374.411 0 .733-.106.968-.319.242-.213.374-.51.396-.891h.99c-.022.645-.246 1.155-.671 1.529-.425.374-.986.561-1.683.561zm4.286 1.87v-8.03h.99v1.155h.198l-.198.231c0-.462.15-.825.451-1.089.308-.271.711-.407 1.21-.407.608 0 1.092.202 1.452.605.366.396.55.942.55 1.639v1.771c0 .462-.085.862-.253 1.199a1.807 1.807 0 01-.693.781c-.294.183-.646.275-1.056.275-.492 0-.891-.136-1.199-.407-.308-.271-.462-.634-.462-1.089l.198.231h-.22l.022 1.375v1.76h-.99zm2.321-2.728c.418 0 .744-.125.979-.374.242-.25.363-.609.363-1.078v-1.65c0-.47-.121-.829-.363-1.078-.235-.25-.561-.374-.979-.374-.404 0-.726.128-.968.385s-.363.612-.363 1.067v1.65c0 .455.121.81.363 1.067.242.257.564.385.968.385zm6.562.836c-.484 0-.902-.092-1.254-.275a1.996 1.996 0 01-.825-.792c-.19-.352-.286-.766-.286-1.243v-1.606c0-.484.096-.898.286-1.243.198-.345.473-.609.825-.792.352-.183.77-.275 1.254-.275s.902.092 1.254.275c.352.183.624.447.814.792.198.345.297.755.297 1.232v1.617c0 .477-.099.891-.297 1.243a1.92 1.92 0 01-.814.792c-.352.183-.77.275-1.254.275zm0-.88c.433 0 .77-.121 1.012-.363s.363-.598.363-1.067v-1.606c0-.47-.121-.825-.363-1.067s-.579-.363-1.012-.363c-.425 0-.762.121-1.012.363-.242.242-.363.598-.363 1.067v1.606c0 .47.121.825.363 1.067.25.242.587.363 1.012.363zm4.363.792v-6.05h.99v2.497h1.034l1.76-2.497h1.133l-2.035 2.882L145.432 63h-1.155l-1.76-2.695h-1.045V63h-.99zm12.454 1.54v-2.387h.495c.125-.125.253-.37.385-.737.14-.367.213-.832.22-1.397l.066-3.069h3.949v5.203h.77v2.387h-.88V63h-4.125v1.54h-.88zm1.54-2.387h2.585V57.83h-2.024l-.044 2.211c-.007.58-.069 1.049-.187 1.408-.117.36-.227.594-.33.704zm8.026.957c-.477 0-.895-.095-1.254-.286a2.07 2.07 0 01-.825-.803c-.191-.352-.286-.759-.286-1.221v-1.65c0-.47.095-.876.286-1.221a2.07 2.07 0 01.825-.803c.359-.19.777-.286 1.254-.286s.891.095 1.243.286c.359.19.634.458.825.803.198.345.297.752.297 1.221v1.067h-3.762v.583c0 .477.121.843.363 1.1.242.25.587.374 1.034.374.381 0 .689-.066.924-.198a.872.872 0 00.429-.616h.99c-.066.506-.315.91-.748 1.21-.425.293-.957.44-1.595.44zm1.397-3.553v-.407c0-.477-.121-.843-.363-1.1-.235-.257-.579-.385-1.034-.385-.447 0-.792.128-1.034.385s-.363.623-.363 1.1v.319h2.871l-.077.088zM166.832 63v-6.05h.946v3.3c0 .213-.007.436-.022.671a9.185 9.185 0 01-.044.671 7.162 7.162 0 01-.055.528l2.442-5.17h1.265V63h-.946v-3.3c0-.213.004-.436.011-.671.015-.235.033-.458.055-.671l.055-.539L168.097 63h-1.265zm2.31-7.04c-.528 0-.953-.147-1.276-.44-.323-.293-.484-.678-.484-1.155h.781c0 .286.088.517.264.693.176.176.411.264.704.264.301 0 .539-.088.715-.264.183-.176.275-.407.275-.693h.781c0 .477-.161.862-.484 1.155-.323.293-.748.44-1.276.44zm6.574 7.15c-.484 0-.91-.092-1.276-.275a1.977 1.977 0 01-.836-.792c-.198-.352-.297-.766-.297-1.243v-1.65c0-.484.099-.898.297-1.243.198-.345.476-.609.836-.792.366-.183.792-.275 1.276-.275.696 0 1.257.187 1.683.561.425.374.649.884.671 1.529h-.99c-.022-.389-.154-.686-.396-.891-.235-.213-.558-.319-.968-.319-.433 0-.778.125-1.034.374-.257.242-.385.59-.385 1.045V60.8c0 .455.128.807.385 1.056.256.25.601.374 1.034.374.41 0 .733-.106.968-.319.242-.213.374-.51.396-.891h.99c-.022.645-.246 1.155-.671 1.529-.426.374-.987.561-1.683.561zm6.078-.11v-5.181h-2.2v-.869h5.39v.869h-2.2V63h-.99zm4.825 0v-6.05h2.618c.631 0 1.118.143 1.463.429.345.279.517.671.517 1.177 0 .418-.143.755-.429 1.012-.286.25-.664.374-1.133.374v-.088c.513 0 .924.128 1.232.385.315.257.473.601.473 1.034 0 .543-.183.968-.55 1.276-.367.3-.88.451-1.54.451h-2.651zm.968-.869h1.683c.352 0 .623-.077.814-.231.198-.154.297-.37.297-.649 0-.286-.099-.506-.297-.66-.191-.154-.462-.231-.814-.231h-1.683v1.771zm0-2.629h1.65c.308 0 .55-.073.726-.22.183-.147.275-.352.275-.616s-.088-.47-.264-.616c-.176-.154-.422-.231-.737-.231h-1.65v1.683zM193.215 63v-6.05h.946v3.3c0 .213-.008.436-.022.671a9.779 9.779 0 01-.044.671 7.162 7.162 0 01-.055.528l2.442-5.17h1.265V63h-.946v-3.3c0-.213.003-.436.011-.671.014-.235.033-.458.055-.671l.055-.539L194.48 63h-1.265zm6.221 0l1.551-2.332c-.462-.11-.821-.323-1.078-.638-.249-.315-.374-.708-.374-1.177 0-.594.195-1.06.583-1.397.396-.337.935-.506 1.617-.506h2.607V63h-.99v-2.255h-1.331L200.591 63h-1.155zm2.299-3.135h1.617V57.83h-1.617c-.366 0-.656.092-.869.275-.212.176-.319.425-.319.748 0 .315.107.565.319.748.213.176.503.264.869.264zM213.002 63v-6.05h4.532V63h-.99v-5.148h-2.552V63h-.99zm8.861.088c-.484 0-.902-.092-1.254-.275a1.996 1.996 0 01-.825-.792c-.19-.352-.286-.766-.286-1.243v-1.606c0-.484.096-.898.286-1.243.198-.345.473-.609.825-.792.352-.183.77-.275 1.254-.275s.902.092 1.254.275c.352.183.624.447.814.792.198.345.297.755.297 1.232v1.617c0 .477-.099.891-.297 1.243a1.92 1.92 0 01-.814.792c-.352.183-.77.275-1.254.275zm0-.88c.433 0 .77-.121 1.012-.363s.363-.598.363-1.067v-1.606c0-.47-.121-.825-.363-1.067s-.579-.363-1.012-.363c-.425 0-.762.121-1.012.363-.242.242-.363.598-.363 1.067v1.606c0 .47.121.825.363 1.067.25.242.587.363 1.012.363zm3.626 2.332v-2.387h.495c.125-.125.253-.37.385-.737.14-.367.213-.832.22-1.397l.066-3.069h3.949v5.203h.77v2.387h-.88V63h-4.125v1.54h-.88zm1.54-2.387h2.585V57.83h-2.024l-.044 2.211c-.007.58-.069 1.049-.187 1.408-.117.36-.227.594-.33.704zm5.76.847v-6.05h4.532V63h-.99v-5.148h-2.552V63h-.99zm6.596 0v-6.05h.946v3.3c0 .213-.008.436-.022.671a9.779 9.779 0 01-.044.671 7.162 7.162 0 01-.055.528l2.442-5.17h1.265V63h-.946v-3.3c0-.213.003-.436.011-.671.014-.235.033-.458.055-.671l.055-.539L240.65 63h-1.265zm8.883.11c-.484 0-.909-.092-1.276-.275a1.982 1.982 0 01-.836-.792c-.198-.352-.297-.766-.297-1.243v-1.65c0-.484.099-.898.297-1.243.198-.345.477-.609.836-.792.367-.183.792-.275 1.276-.275.697 0 1.258.187 1.683.561.426.374.649.884.671 1.529h-.99c-.022-.389-.154-.686-.396-.891-.234-.213-.557-.319-.968-.319-.432 0-.777.125-1.034.374-.256.242-.385.59-.385 1.045V60.8c0 .455.129.807.385 1.056.257.25.602.374 1.034.374.411 0 .734-.106.968-.319.242-.213.374-.51.396-.891h.99c-.022.645-.245 1.155-.671 1.529-.425.374-.986.561-1.683.561zm4.341-.11v-6.05h.99v2.497h1.034l1.76-2.497h1.133l-2.035 2.882L257.559 63h-1.155l-1.76-2.695h-1.045V63h-.99zm6.563 0v-6.05h.946v3.3c0 .213-.008.436-.022.671a9.779 9.779 0 01-.044.671 7.162 7.162 0 01-.055.528l2.442-5.17h1.265V63h-.946v-3.3c0-.213.003-.436.011-.671.014-.235.033-.458.055-.671l.055-.539L260.437 63h-1.265zm13.224 0v-6.05h.99v2.497h1.034l1.76-2.497h1.133l-2.035 2.882L277.346 63h-1.155l-1.76-2.695h-1.045V63h-.99zm8.301.11c-.638 0-1.141-.161-1.507-.484-.367-.33-.55-.774-.55-1.331 0-.565.183-1.008.55-1.331.366-.323.861-.484 1.485-.484h1.87v-.605c0-.374-.114-.66-.341-.858-.22-.205-.536-.308-.946-.308-.36 0-.66.077-.902.231-.242.147-.382.348-.418.605h-.99c.066-.52.311-.935.737-1.243.425-.308.957-.462 1.595-.462.696 0 1.246.18 1.65.539.403.36.605.847.605 1.463V63h-.968v-1.155h-.165l.165-.165c0 .44-.173.788-.517 1.045-.338.257-.789.385-1.353.385zm.242-.781c.469 0 .854-.117 1.155-.352.3-.235.451-.535.451-.902v-.858h-1.848c-.33 0-.591.092-.781.275-.191.183-.286.433-.286.748 0 .337.113.605.341.803.234.19.557.286.968.286zm3.78.671l1.32-3.102-1.232-2.948h.957l1.056 2.64h.583v-2.64h.836v2.64h.561l1.089-2.64h.946l-1.232 2.915 1.32 3.135h-.99l-1.1-2.75h-.594V63h-.836v-2.75h-.594L285.698 63h-.979zm6.727 1.54v-2.387h.495c.125-.125.253-.37.385-.737.14-.367.213-.832.22-1.397l.066-3.069h3.949v5.203h.77v2.387h-.88V63h-4.125v1.54h-.88zm1.54-2.387h2.585V57.83h-2.024l-.044 2.211c-.007.58-.069 1.049-.187 1.408-.117.36-.227.594-.33.704zm8.026.935c-.484 0-.902-.092-1.254-.275a1.996 1.996 0 01-.825-.792c-.191-.352-.286-.766-.286-1.243v-1.606c0-.484.095-.898.286-1.243.198-.345.473-.609.825-.792.352-.183.77-.275 1.254-.275s.902.092 1.254.275c.352.183.623.447.814.792.198.345.297.755.297 1.232v1.617c0 .477-.099.891-.297 1.243a1.929 1.929 0 01-.814.792c-.352.183-.77.275-1.254.275zm0-.88c.433 0 .77-.121 1.012-.363s.363-.598.363-1.067v-1.606c0-.47-.121-.825-.363-1.067s-.579-.363-1.012-.363c-.425 0-.763.121-1.012.363-.242.242-.363.598-.363 1.067v1.606c0 .47.121.825.363 1.067.249.242.587.363 1.012.363zm4.726.792v-6.05h4.345v.902h-3.355V63h-.99zm8.465.088c-.484 0-.902-.092-1.254-.275a1.996 1.996 0 01-.825-.792c-.19-.352-.286-.766-.286-1.243v-1.606c0-.484.096-.898.286-1.243.198-.345.473-.609.825-.792.352-.183.77-.275 1.254-.275s.902.092 1.254.275c.352.183.624.447.814.792.198.345.297.755.297 1.232v1.617c0 .477-.099.891-.297 1.243a1.92 1.92 0 01-.814.792c-.352.183-.77.275-1.254.275zm0-.88c.433 0 .77-.121 1.012-.363s.363-.598.363-1.067v-1.606c0-.47-.121-.825-.363-1.067s-.579-.363-1.012-.363c-.425 0-.762.121-1.012.363-.242.242-.363.598-.363 1.067v1.606c0 .47.121.825.363 1.067.25.242.587.363 1.012.363zM5.237 78v-6.05H9.77V78h-.99v-5.148H6.227V78h-.99zm8.862.088c-.484 0-.902-.092-1.254-.275a1.996 1.996 0 01-.825-.792c-.19-.352-.286-.766-.286-1.243v-1.606c0-.484.095-.898.286-1.243.198-.345.473-.609.825-.792.352-.183.77-.275 1.254-.275s.902.092 1.254.275c.352.183.623.447.814.792.198.345.297.755.297 1.232v1.617c0 .477-.1.891-.297 1.243a1.92 1.92 0 01-.814.792c-.352.183-.77.275-1.254.275zm0-.88c.432 0 .77-.121 1.012-.363s.363-.598.363-1.067v-1.606c0-.47-.121-.825-.363-1.067s-.58-.363-1.012-.363c-.425 0-.763.121-1.012.363-.242.242-.363.598-.363 1.067v1.606c0 .47.12.825.363 1.067.25.242.587.363 1.012.363zm3.57.869v-.924h.198c.338 0 .572-.132.704-.396.14-.264.213-.737.22-1.419l.067-3.388h4.102V78h-.99v-5.148h-2.133l-.055 2.53c-.015.638-.088 1.155-.22 1.551-.125.396-.323.686-.595.869-.264.183-.612.275-1.044.275h-.253zm7.4-.077v-6.05h.99v2.222h1.781c.682 0 1.218.172 1.606.517.396.337.594.803.594 1.397 0 .587-.198 1.052-.594 1.397-.396.345-.931.517-1.606.517h-2.772zm.99-.902h1.781c.382 0 .671-.084.87-.253.205-.176.307-.429.307-.759s-.102-.58-.308-.748c-.198-.176-.487-.264-.869-.264h-1.782v2.024zm7.54.979c-.637 0-1.161-.136-1.572-.407a1.617 1.617 0 01-.726-1.1h1.045c.051.183.187.334.407.451.227.117.51.176.847.176h.517c.36 0 .638-.084.836-.253a.813.813 0 00.308-.66c0-.293-.1-.524-.297-.693-.19-.169-.473-.253-.847-.253h-1.331v-.858h1.298c.337 0 .594-.08.77-.242a.824.824 0 00.264-.638.833.833 0 00-.121-.462.699.699 0 00-.341-.286 1.422 1.422 0 00-.561-.099h-.55a1.41 1.41 0 00-.76.198c-.212.132-.34.293-.384.484h-1.045c.073-.455.312-.829.715-1.122.403-.293.895-.44 1.474-.44h.55c.433 0 .803.07 1.11.209.309.132.544.323.705.572.169.25.253.546.253.891 0 .36-.117.656-.352.891-.235.227-.565.356-.99.385v.044c.52.037.898.176 1.133.418s.352.59.352 1.045c0 .535-.198.96-.594 1.276-.396.315-.928.473-1.595.473H33.6zm6.883.011c-.484 0-.902-.092-1.254-.275a1.996 1.996 0 01-.825-.792c-.191-.352-.286-.766-.286-1.243v-1.606c0-.484.095-.898.286-1.243.198-.345.473-.609.825-.792.352-.183.77-.275 1.254-.275s.902.092 1.254.275c.352.183.623.447.814.792.198.345.297.755.297 1.232v1.617c0 .477-.1.891-.297 1.243a1.925 1.925 0 01-.814.792c-.352.183-.77.275-1.254.275zm0-.88c.432 0 .77-.121 1.012-.363s.363-.598.363-1.067v-1.606c0-.47-.121-.825-.363-1.067s-.58-.363-1.012-.363c-.426 0-.763.121-1.012.363-.242.242-.363.598-.363 1.067v1.606c0 .47.12.825.363 1.067.249.242.586.363 1.012.363zm4.33.792v-6.05h2.617c.631 0 1.119.143 1.463.429.345.279.517.671.517 1.177 0 .418-.143.755-.429 1.012-.286.25-.663.374-1.133.374v-.088c.514 0 .924.128 1.232.385.316.257.473.601.473 1.034 0 .543-.183.968-.55 1.276-.366.3-.88.451-1.54.451h-2.65zm.967-.869h1.683c.352 0 .624-.077.814-.231.198-.154.297-.37.297-.649 0-.286-.099-.506-.297-.66-.19-.154-.462-.231-.814-.231H45.78v1.771zm0-2.629h1.65c.308 0 .55-.073.726-.22.184-.147.275-.352.275-.616s-.088-.47-.264-.616c-.176-.154-.421-.231-.737-.231h-1.65v1.683zm7.366 3.608c-.638 0-1.14-.161-1.507-.484-.367-.33-.55-.774-.55-1.331 0-.565.183-1.008.55-1.331.367-.323.862-.484 1.485-.484h1.87v-.605c0-.374-.114-.66-.341-.858-.22-.205-.535-.308-.946-.308-.36 0-.66.077-.902.231-.242.147-.381.348-.418.605h-.99c.066-.52.312-.935.737-1.243.425-.308.957-.462 1.595-.462.697 0 1.247.18 1.65.539.403.36.605.847.605 1.463V78h-.968v-1.155h-.165l.165-.165c0 .44-.172.788-.517 1.045-.337.257-.788.385-1.353.385zm.242-.781c.47 0 .854-.117 1.155-.352.3-.235.451-.535.451-.902v-.858h-1.848c-.33 0-.59.092-.781.275-.19.183-.286.433-.286.748 0 .337.114.605.341.803.235.19.557.286.968.286zm6.387.671v-5.181h-2.2v-.869h5.39v.869h-2.2V78h-.99zm7.09.11c-.476 0-.894-.095-1.254-.286a2.07 2.07 0 01-.825-.803A2.523 2.523 0 0164.5 75.8v-1.65c0-.47.095-.876.285-1.221a2.07 2.07 0 01.826-.803c.359-.19.777-.286 1.254-.286.476 0 .89.095 1.243.286.359.19.634.458.825.803.197.345.296.752.296 1.221v1.067h-3.761v.583c0 .477.12.843.362 1.1.243.25.587.374 1.035.374.38 0 .689-.066.924-.198a.874.874 0 00.428-.616h.99c-.066.506-.315.91-.747 1.21-.426.293-.957.44-1.595.44zm1.397-3.553v-.407c0-.477-.12-.843-.362-1.1-.235-.257-.58-.385-1.034-.385-.448 0-.792.128-1.034.385-.243.257-.364.623-.364 1.1v.319h2.871l-.076.088zm2.174 3.52v-.924h.198c.338 0 .572-.132.704-.396.14-.264.213-.737.22-1.419l.066-3.388h4.103V78h-.99v-5.148h-2.134l-.055 2.53c-.014.638-.088 1.155-.22 1.551-.124.396-.323.686-.594.869-.264.183-.612.275-1.045.275h-.253zm6.98-.077l1.552-2.332c-.462-.11-.822-.323-1.078-.638-.25-.315-.374-.708-.374-1.177 0-.594.194-1.06.583-1.397.396-.337.935-.506 1.617-.506h2.607V78h-.99v-2.255H80L78.57 78h-1.155zm2.3-3.135h1.617V72.83h-1.617c-.367 0-.657.092-.87.275-.212.176-.318.425-.318.748 0 .315.106.565.319.748.212.176.502.264.869.264zm5.452 4.895l.88-3.421h1.43l-1.43 3.421h-.88zm14.676-1.672c-.484 0-.902-.092-1.254-.275a1.996 1.996 0 01-.825-.792c-.19-.352-.286-.766-.286-1.243v-1.606c0-.484.095-.898.286-1.243.198-.345.473-.609.825-.792.352-.183.77-.275 1.254-.275s.902.092 1.254.275c.352.183.623.447.814.792.198.345.297.755.297 1.232v1.617c0 .477-.099.891-.297 1.243a1.929 1.929 0 01-.814.792c-.352.183-.77.275-1.254.275zm0-.88c.433 0 .77-.121 1.012-.363s.363-.598.363-1.067v-1.606c0-.47-.121-.825-.363-1.067s-.579-.363-1.012-.363c-.425 0-.763.121-1.012.363-.242.242-.363.598-.363 1.067v1.606c0 .47.121.825.363 1.067.25.242.587.363 1.012.363zm6.101.792v-5.181h-2.2v-.869h5.39v.869h-2.2V78h-.99zm4.824 0v-6.05h4.532V78h-.99v-5.148h-2.552V78h-.99zm6.574 1.98v-8.03h.99v1.155h.198l-.198.231c0-.462.15-.825.451-1.089.308-.271.711-.407 1.21-.407.609 0 1.093.202 1.452.605.367.396.55.942.55 1.639v1.771c0 .462-.084.862-.253 1.199a1.795 1.795 0 01-.693.781c-.293.183-.645.275-1.056.275-.491 0-.891-.136-1.199-.407-.308-.271-.462-.634-.462-1.089l.198.231h-.22l.022 1.375v1.76h-.99zm2.321-2.728c.418 0 .744-.125.979-.374.242-.25.363-.609.363-1.078v-1.65c0-.47-.121-.829-.363-1.078-.235-.25-.561-.374-.979-.374-.403 0-.726.128-.968.385s-.363.612-.363 1.067v1.65c0 .455.121.81.363 1.067.242.257.565.385.968.385zm6.035.858c-.638 0-1.141-.161-1.507-.484-.367-.33-.55-.774-.55-1.331 0-.565.183-1.008.55-1.331.366-.323.861-.484 1.485-.484h1.87v-.605c0-.374-.114-.66-.341-.858-.22-.205-.536-.308-.946-.308-.36 0-.66.077-.902.231-.242.147-.382.348-.418.605h-.99c.066-.52.311-.935.737-1.243.425-.308.957-.462 1.595-.462.696 0 1.246.18 1.65.539.403.36.605.847.605 1.463V78h-.968v-1.155h-.165l.165-.165c0 .44-.173.788-.517 1.045-.338.257-.789.385-1.353.385zm.242-.781c.469 0 .854-.117 1.155-.352.3-.235.451-.535.451-.902v-.858h-1.848c-.33 0-.591.092-.781.275-.191.183-.286.433-.286.748 0 .337.113.605.341.803.234.19.557.286.968.286zm4.615.671v-6.05h2.618c.631 0 1.119.143 1.463.429.345.279.517.671.517 1.177 0 .418-.143.755-.429 1.012-.286.25-.663.374-1.133.374v-.088c.514 0 .924.128 1.232.385.316.257.473.601.473 1.034 0 .543-.183.968-.55 1.276-.366.3-.88.451-1.54.451h-2.651zm.968-.869h1.683c.352 0 .624-.077.814-.231.198-.154.297-.37.297-.649 0-.286-.099-.506-.297-.66-.19-.154-.462-.231-.814-.231h-1.683v1.771zm0-2.629h1.65c.308 0 .55-.073.726-.22.184-.147.275-.352.275-.616s-.088-.47-.264-.616c-.176-.154-.421-.231-.737-.231h-1.65v1.683zm4.869 3.575v-.924h.198c.338 0 .572-.132.704-.396.14-.264.213-.737.22-1.419l.066-3.388h4.103V78h-.99v-5.148h-2.134l-.055 2.53c-.014.638-.088 1.155-.22 1.551-.124.396-.322.686-.594.869-.264.183-.612.275-1.045.275h-.253zm6.981-.077l1.551-2.332c-.462-.11-.821-.323-1.078-.638-.249-.315-.374-.708-.374-1.177 0-.594.194-1.06.583-1.397.396-.337.935-.506 1.617-.506h2.607V78h-.99v-2.255h-1.331L144.528 78h-1.155zm2.299-3.135h1.617V72.83h-1.617c-.367 0-.656.092-.869.275-.213.176-.319.425-.319.748 0 .315.106.565.319.748.213.176.502.264.869.264zm6.937 3.245c-.477 0-.895-.095-1.254-.286a2.07 2.07 0 01-.825-.803c-.191-.352-.286-.759-.286-1.221v-1.65c0-.47.095-.876.286-1.221a2.07 2.07 0 01.825-.803c.359-.19.777-.286 1.254-.286.476 0 .891.095 1.243.286.359.19.634.458.825.803.198.345.297.752.297 1.221v1.067h-3.762v.583c0 .477.121.843.363 1.1.242.25.586.374 1.034.374.381 0 .689-.066.924-.198a.878.878 0 00.429-.616h.99c-.066.506-.316.91-.748 1.21-.426.293-.957.44-1.595.44zm1.397-3.553v-.407c0-.477-.121-.843-.363-1.1-.235-.257-.58-.385-1.034-.385-.448 0-.792.128-1.034.385s-.363.623-.363 1.1v.319h2.871l-.077.088zM158.709 78v-5.181h-2.2v-.869h5.39v.869h-2.2V78h-.99zm11.421 0v-6.05h.99v2.519h2.552V71.95h.99V78h-.99v-2.629h-2.552V78h-.99zm8.333.11c-.638 0-1.14-.161-1.507-.484-.366-.33-.55-.774-.55-1.331 0-.565.184-1.008.55-1.331.367-.323.862-.484 1.485-.484h1.87v-.605c0-.374-.113-.66-.341-.858-.22-.205-.535-.308-.946-.308-.359 0-.66.077-.902.231a.823.823 0 00-.418.605h-.99c.066-.52.312-.935.737-1.243.426-.308.957-.462 1.595-.462.697 0 1.247.18 1.65.539.404.36.605.847.605 1.463V78h-.968v-1.155h-.165l.165-.165c0 .44-.172.788-.517 1.045-.337.257-.788.385-1.353.385zm.242-.781c.47 0 .855-.117 1.155-.352.301-.235.451-.535.451-.902v-.858h-1.848c-.33 0-.59.092-.781.275-.19.183-.286.433-.286.748 0 .337.114.605.341.803.235.19.558.286.968.286zm4.616.671v-6.05h4.532V78h-.99v-5.148h-2.552V78h-.99zm8.862.088c-.484 0-.902-.092-1.254-.275a1.996 1.996 0 01-.825-.792c-.191-.352-.286-.766-.286-1.243v-1.606c0-.484.095-.898.286-1.243.198-.345.473-.609.825-.792.352-.183.77-.275 1.254-.275s.902.092 1.254.275c.352.183.623.447.814.792.198.345.297.755.297 1.232v1.617c0 .477-.099.891-.297 1.243a1.929 1.929 0 01-.814.792c-.352.183-.77.275-1.254.275zm0-.88c.432 0 .77-.121 1.012-.363s.363-.598.363-1.067v-1.606c0-.47-.121-.825-.363-1.067s-.58-.363-1.012-.363c-.426 0-.763.121-1.012.363-.242.242-.363.598-.363 1.067v1.606c0 .47.121.825.363 1.067.249.242.586.363 1.012.363zm4.132.792v-6.05h1.342l.792 2.321c.08.235.154.47.22.704.066.227.113.403.143.528.029-.125.073-.3.132-.528.066-.235.135-.473.209-.715l.748-2.31h1.342V78h-.957v-.935c0-.33.003-.69.011-1.078l.022-1.177c.014-.396.029-.77.044-1.122.014-.36.025-.675.033-.946l-1.078 3.443h-1.045l-1.089-3.421c.014.33.025.74.033 1.232.014.491.025 1.005.033 1.54.014.535.022 1.045.022 1.529V78h-.957zm6.793 0v-6.05h.946v3.3c0 .213-.007.436-.022.671a9.185 9.185 0 01-.044.671 6.655 6.655 0 01-.055.528l2.442-5.17h1.265V78h-.946v-3.3c0-.213.004-.436.011-.671.015-.235.033-.458.055-.671l.055-.539L204.373 78h-1.265zm6.596 0v-6.05h.99v2.519h2.552V71.95h.99V78h-.99v-2.629h-2.552V78h-.99zm8.334.11c-.638 0-1.141-.161-1.507-.484-.367-.33-.55-.774-.55-1.331 0-.565.183-1.008.55-1.331.366-.323.861-.484 1.485-.484h1.87v-.605c0-.374-.114-.66-.341-.858-.22-.205-.536-.308-.946-.308-.36 0-.66.077-.902.231-.242.147-.382.348-.418.605h-.99c.066-.52.311-.935.737-1.243.425-.308.957-.462 1.595-.462.696 0 1.246.18 1.65.539.403.36.605.847.605 1.463V78h-.968v-1.155h-.165l.165-.165c0 .44-.173.788-.517 1.045-.338.257-.789.385-1.353.385zm.242-.781c.469 0 .854-.117 1.155-.352.3-.235.451-.535.451-.902v-.858h-1.848c-.33 0-.591.092-.781.275-.191.183-.286.433-.286.748 0 .337.113.605.341.803.234.19.557.286.968.286zm4.615.671v-6.05h.99v2.519h2.552V71.95h.99V78h-.99v-2.629h-2.552V78h-.99zm6.596 0v-6.05h.946v3.3c0 .213-.007.436-.022.671a9.185 9.185 0 01-.044.671 7.162 7.162 0 01-.055.528l2.442-5.17h1.265V78h-.946v-3.3c0-.213.004-.436.011-.671.015-.235.033-.458.055-.671l.055-.539L230.756 78h-1.265zm6.222 0l1.551-2.332c-.462-.11-.822-.323-1.078-.638-.25-.315-.374-.708-.374-1.177 0-.594.194-1.06.583-1.397.396-.337.935-.506 1.617-.506h2.607V78h-.99v-2.255h-1.331L236.868 78h-1.155zm2.299-3.135h1.617V72.83h-1.617c-.367 0-.657.092-.869.275-.213.176-.319.425-.319.748 0 .315.106.565.319.748.212.176.502.264.869.264zm13.532 3.223c-.484 0-.902-.092-1.254-.275a1.996 1.996 0 01-.825-.792c-.191-.352-.286-.766-.286-1.243v-1.606c0-.484.095-.898.286-1.243.198-.345.473-.609.825-.792.352-.183.77-.275 1.254-.275s.902.092 1.254.275c.352.183.623.447.814.792.198.345.297.755.297 1.232v1.617c0 .477-.099.891-.297 1.243a1.929 1.929 0 01-.814.792c-.352.183-.77.275-1.254.275zm0-.88c.433 0 .77-.121 1.012-.363s.363-.598.363-1.067v-1.606c0-.47-.121-.825-.363-1.067s-.579-.363-1.012-.363c-.425 0-.763.121-1.012.363-.242.242-.363.598-.363 1.067v1.606c0 .47.121.825.363 1.067.249.242.587.363 1.012.363zm6.596.902c-.711 0-1.276-.209-1.694-.627-.411-.425-.616-1.005-.616-1.738v-2.75c0-.968.242-1.712.726-2.233.484-.528 1.177-.792 2.079-.792h1.54v.99h-1.54c-.594 0-1.045.176-1.353.528-.308.345-.462.847-.462 1.507v.715h.154l-.154.22c.007-.433.154-.77.44-1.012.286-.242.675-.363 1.166-.363.638 0 1.133.205 1.485.616.359.41.539.975.539 1.694v.88c0 .491-.092.913-.275 1.265a1.924 1.924 0 01-.792.814c-.345.19-.759.286-1.243.286zm0-.88c.425 0 .752-.128.979-.385.227-.257.341-.623.341-1.1v-.88c0-.477-.114-.843-.341-1.1-.227-.257-.554-.385-.979-.385-.425 0-.752.128-.979.385-.227.25-.341.616-.341 1.1v.88c0 .477.114.843.341 1.1.227.257.554.385.979.385zm13.191.858c-.484 0-.902-.092-1.254-.275a1.996 1.996 0 01-.825-.792c-.19-.352-.286-.766-.286-1.243v-1.606c0-.484.096-.898.286-1.243.198-.345.473-.609.825-.792.352-.183.77-.275 1.254-.275s.902.092 1.254.275c.352.183.624.447.814.792.198.345.297.755.297 1.232v1.617c0 .477-.099.891-.297 1.243a1.92 1.92 0 01-.814.792c-.352.183-.77.275-1.254.275zm0-.88c.433 0 .77-.121 1.012-.363s.363-.598.363-1.067v-1.606c0-.47-.121-.825-.363-1.067s-.579-.363-1.012-.363c-.425 0-.762.121-1.012.363-.242.242-.363.598-.363 1.067v1.606c0 .47.121.825.363 1.067.25.242.587.363 1.012.363zm4.33.792v-6.05h4.532V78h-.99v-5.148h-2.552V78h-.99zm5.837.077v-.924h.198c.337 0 .572-.132.704-.396.139-.264.212-.737.22-1.419l.066-3.388h4.103V78h-.99v-5.148h-2.134l-.055 2.53c-.015.638-.088 1.155-.22 1.551-.125.396-.323.686-.594.869-.264.183-.613.275-1.045.275h-.253zm9.092.033c-.638 0-1.14-.161-1.507-.484-.366-.33-.55-.774-.55-1.331 0-.565.184-1.008.55-1.331.367-.323.862-.484 1.485-.484h1.87v-.605c0-.374-.113-.66-.341-.858-.22-.205-.535-.308-.946-.308-.359 0-.66.077-.902.231a.823.823 0 00-.418.605h-.99c.066-.52.312-.935.737-1.243.426-.308.957-.462 1.595-.462.697 0 1.247.18 1.65.539.404.36.605.847.605 1.463V78h-.968v-1.155h-.165l.165-.165c0 .44-.172.788-.517 1.045-.337.257-.788.385-1.353.385zm.242-.781c.47 0 .855-.117 1.155-.352.301-.235.451-.535.451-.902v-.858h-1.848c-.33 0-.59.092-.781.275-.19.183-.286.433-.286.748 0 .337.114.605.341.803.235.19.558.286.968.286zm6.387.671v-5.181h-2.2v-.869h5.39v.869h-2.2V78h-.99zm7.091.11c-.477 0-.895-.095-1.254-.286a2.07 2.07 0 01-.825-.803c-.191-.352-.286-.759-.286-1.221v-1.65c0-.47.095-.876.286-1.221a2.07 2.07 0 01.825-.803c.359-.19.777-.286 1.254-.286.476 0 .891.095 1.243.286.359.19.634.458.825.803.198.345.297.752.297 1.221v1.067h-3.762v.583c0 .477.121.843.363 1.1.242.25.586.374 1.034.374.381 0 .689-.066.924-.198a.878.878 0 00.429-.616h.99c-.066.506-.316.91-.748 1.21-.426.293-.957.44-1.595.44zm1.397-3.553v-.407c0-.477-.121-.843-.363-1.1-.235-.257-.58-.385-1.034-.385-.448 0-.792.128-1.034.385s-.363.623-.363 1.1v.319h2.871l-.077.088zM315.235 78v-6.05h.946v3.3c0 .213-.007.436-.022.671a9.185 9.185 0 01-.044.671 6.655 6.655 0 01-.055.528l2.442-5.17h1.265V78h-.946v-3.3c0-.213.004-.436.011-.671.015-.235.033-.458.055-.671l.055-.539L316.5 78h-1.265zM16.869 93.11c-.638 0-1.14-.161-1.507-.484-.367-.33-.55-.774-.55-1.331 0-.565.183-1.008.55-1.331.366-.323.861-.484 1.485-.484h1.87v-.605c0-.374-.114-.66-.341-.858-.22-.205-.536-.308-.946-.308-.36 0-.66.077-.902.231-.242.147-.382.348-.418.605h-.99c.066-.52.311-.935.737-1.243.425-.308.957-.462 1.595-.462.696 0 1.246.18 1.65.539.403.36.605.847.605 1.463V93h-.968v-1.155h-.165l.165-.165c0 .44-.173.788-.517 1.045-.338.257-.789.385-1.353.385zm.242-.781c.469 0 .854-.117 1.155-.352.3-.235.45-.535.45-.902v-.858H16.87c-.33 0-.59.092-.781.275-.191.183-.286.433-.286.748 0 .337.113.605.34.803.235.19.558.286.969.286zm4.615.671v-6.05h2.618c.631 0 1.119.143 1.463.429.345.279.517.671.517 1.177 0 .418-.143.755-.429 1.012-.286.25-.663.374-1.133.374v-.088c.514 0 .924.128 1.232.385.316.257.473.601.473 1.034 0 .543-.183.968-.55 1.276-.366.3-.88.451-1.54.451h-2.65zm.968-.869h1.683c.352 0 .624-.077.814-.231.198-.154.297-.37.297-.649 0-.286-.099-.506-.297-.66-.19-.154-.462-.231-.814-.231h-1.683v1.771zm0-2.629h1.65c.308 0 .55-.073.726-.22.184-.147.275-.352.275-.616s-.088-.47-.264-.616c-.176-.154-.421-.231-.737-.231h-1.65v1.683zm7.4 3.498v-5.181h-2.2v-.869h5.39v.869h-2.2V93h-.99zm7.09.088c-.484 0-.902-.092-1.254-.275a1.996 1.996 0 01-.825-.792c-.19-.352-.286-.766-.286-1.243v-1.606c0-.484.095-.898.286-1.243.198-.345.473-.609.825-.792.352-.183.77-.275 1.254-.275s.902.092 1.254.275c.352.183.623.447.814.792.198.345.297.755.297 1.232v1.617c0 .477-.1.891-.297 1.243a1.92 1.92 0 01-.814.792c-.352.183-.77.275-1.254.275zm0-.88c.433 0 .77-.121 1.012-.363s.363-.598.363-1.067v-1.606c0-.47-.121-.825-.363-1.067s-.58-.363-1.012-.363c-.425 0-.763.121-1.012.363-.242.242-.363.598-.363 1.067v1.606c0 .47.12.825.363 1.067.25.242.587.363 1.012.363zm4.132.792v-6.05h1.341l.793 2.321a14.976 14.976 0 01.362 1.232c.03-.125.074-.3.133-.528a37.3 37.3 0 01.209-.715l.747-2.31h1.342V93h-.957v-.935c0-.33.004-.69.011-1.078l.023-1.177c.014-.396.029-.77.044-1.122.014-.36.025-.675.033-.946l-1.078 3.443h-1.046l-1.089-3.421c.015.33.026.74.034 1.232.014.491.025 1.005.032 1.54a55.8 55.8 0 01.023 1.529V93h-.958zm8.531.11c-.638 0-1.14-.161-1.507-.484-.367-.33-.55-.774-.55-1.331 0-.565.184-1.008.55-1.331.367-.323.862-.484 1.485-.484h1.87v-.605c0-.374-.114-.66-.34-.858-.22-.205-.536-.308-.947-.308-.36 0-.66.077-.902.231-.242.147-.381.348-.418.605h-.99c.066-.52.312-.935.737-1.243.425-.308.957-.462 1.595-.462.697 0 1.247.18 1.65.539.404.36.605.847.605 1.463V93h-.968v-1.155h-.165l.165-.165c0 .44-.172.788-.517 1.045-.337.257-.788.385-1.353.385zm.242-.781c.47 0 .855-.117 1.155-.352.3-.235.451-.535.451-.902v-.858h-1.848c-.33 0-.59.092-.78.275-.191.183-.287.433-.287.748 0 .337.114.605.341.803.235.19.557.286.968.286zm6.387.671v-5.181h-2.2v-.869h5.39v.869h-2.2V93h-.99zm4.825 0v-6.05h.946v3.3c0 .213-.008.436-.022.671a9.355 9.355 0 01-.044.671 7.002 7.002 0 01-.055.528l2.442-5.17h1.265V93h-.946v-3.3c0-.213.003-.436.01-.671.015-.235.034-.458.056-.671l.055-.539L62.566 93H61.3zm10.071 0v-2.2a4.81 4.81 0 01-.539.088 8.028 8.028 0 01-.748.033c-.748.007-1.33-.172-1.749-.539-.41-.374-.616-.895-.616-1.562v-1.87h.99v1.87c0 .374.125.671.374.891.257.213.609.319 1.056.319.308 0 .569-.011.781-.033.22-.03.37-.055.451-.077v-2.97h.99V93h-.99zm5.386.11c-.477 0-.895-.095-1.254-.286a2.07 2.07 0 01-.825-.803 2.523 2.523 0 01-.286-1.221v-1.65c0-.47.095-.876.286-1.221a2.07 2.07 0 01.825-.803c.36-.19.777-.286 1.254-.286s.891.095 1.243.286c.36.19.634.458.825.803.198.345.297.752.297 1.221v1.067h-3.762v.583c0 .477.121.843.363 1.1.242.25.587.374 1.034.374.381 0 .69-.066.924-.198a.874.874 0 00.429-.616h.99c-.066.506-.315.91-.748 1.21-.425.293-.957.44-1.595.44zm1.397-3.553v-.407c0-.477-.121-.843-.363-1.1-.235-.257-.58-.385-1.034-.385-.447 0-.792.128-1.034.385s-.363.623-.363 1.1v.319h2.871l-.077.088zm5.22 3.553c-.483 0-.909-.092-1.275-.275a1.98 1.98 0 01-.836-.792c-.198-.352-.297-.766-.297-1.243v-1.65c0-.484.099-.898.297-1.243a1.98 1.98 0 01.836-.792c.366-.183.792-.275 1.276-.275.696 0 1.257.187 1.683.561.425.374.649.884.67 1.529h-.99c-.021-.389-.153-.686-.395-.891-.235-.213-.558-.319-.968-.319-.433 0-.778.125-1.034.374-.257.242-.385.59-.385 1.045V90.8c0 .455.128.807.385 1.056.256.25.601.374 1.034.374.41 0 .733-.106.968-.319.242-.213.374-.51.396-.891h.99c-.022.645-.246 1.155-.671 1.529-.426.374-.987.561-1.683.561zm4.341-.11v-6.05h.99v2.497h1.034l1.76-2.497h1.133l-2.035 2.882L92.666 93h-1.155l-1.76-2.695h-1.045V93h-.99zm6.563 0v-6.05h.946v3.3c0 .213-.007.436-.022.671a9.355 9.355 0 01-.044.671 6.95 6.95 0 01-.055.528l2.442-5.17h1.265V93h-.946v-3.3c0-.213.004-.436.011-.671.015-.235.033-.458.055-.671l.055-.539L95.544 93H94.28zm14.116 1.98l.891-2.354-2.244-5.676h1.1l1.408 3.74c.051.125.099.275.143.451l.11.429.11-.429a5.08 5.08 0 01.132-.451l1.32-3.74h1.067l-2.981 8.03h-1.056zm4.967-.44v-2.387h.495c.125-.125.253-.37.385-.737.14-.367.213-.832.22-1.397l.066-3.069h3.949v5.203h.77v2.387h-.88V93h-4.125v1.54h-.88zm1.54-2.387h2.585V87.83h-2.024l-.044 2.211c-.007.58-.069 1.049-.187 1.408-.117.36-.227.594-.33.704zm7.498.957c-.638 0-1.14-.161-1.507-.484-.367-.33-.55-.774-.55-1.331 0-.565.183-1.008.55-1.331.367-.323.862-.484 1.485-.484h1.87v-.605c0-.374-.114-.66-.341-.858-.22-.205-.535-.308-.946-.308-.359 0-.66.077-.902.231a.823.823 0 00-.418.605h-.99c.066-.52.312-.935.737-1.243.425-.308.957-.462 1.595-.462.697 0 1.247.18 1.65.539.403.36.605.847.605 1.463V93h-.968v-1.155h-.165l.165-.165c0 .44-.172.788-.517 1.045-.337.257-.788.385-1.353.385zm.242-.781c.469 0 .854-.117 1.155-.352.301-.235.451-.535.451-.902v-.858H122.4c-.33 0-.59.092-.781.275-.191.183-.286.433-.286.748 0 .337.114.605.341.803.235.19.557.286.968.286zm3.857.748v-.924h.198c.337 0 .572-.132.704-.396.139-.264.212-.737.22-1.419l.066-3.388h4.103V93h-.99v-5.148h-2.134l-.055 2.53c-.015.638-.088 1.155-.22 1.551-.125.396-.323.686-.594.869-.264.183-.613.275-1.045.275h-.253zm6.98-.077l1.551-2.332c-.462-.11-.821-.323-1.078-.638-.249-.315-.374-.708-.374-1.177 0-.594.195-1.06.583-1.397.396-.337.935-.506 1.617-.506h2.607V93h-.99v-2.255h-1.331L134.634 93h-1.155zm2.299-3.135h1.617V87.83h-1.617c-.366 0-.656.092-.869.275-.212.176-.319.425-.319.748 0 .315.107.565.319.748.213.176.503.264.869.264zm6.937 3.245c-.477 0-.895-.095-1.254-.286a2.07 2.07 0 01-.825-.803c-.191-.352-.286-.759-.286-1.221v-1.65c0-.47.095-.876.286-1.221a2.07 2.07 0 01.825-.803c.359-.19.777-.286 1.254-.286s.891.095 1.243.286c.359.19.634.458.825.803.198.345.297.752.297 1.221v1.067h-3.762v.583c0 .477.121.843.363 1.1.242.25.587.374 1.034.374.381 0 .689-.066.924-.198a.872.872 0 00.429-.616h.99c-.066.506-.315.91-.748 1.21-.425.293-.957.44-1.595.44zm1.397-3.553v-.407c0-.477-.121-.843-.363-1.1-.235-.257-.579-.385-1.034-.385-.447 0-.792.128-1.034.385s-.363.623-.363 1.1v.319h2.871l-.077.088zM148.816 93v-5.181h-2.2v-.869h5.39v.869h-2.2V93h-.99zm11.42 0v-6.05h.946v3.3c0 .213-.007.436-.022.671a9.185 9.185 0 01-.044.671 7.162 7.162 0 01-.055.528l2.442-5.17h1.265V93h-.946v-3.3c0-.213.004-.436.011-.671.015-.235.033-.458.055-.671l.055-.539L161.501 93h-1.265zm5.837.077v-.924h.198c.337 0 .572-.132.704-.396.139-.264.213-.737.22-1.419l.066-3.388h4.103V93h-.99v-5.148h-2.134l-.055 2.53c-.015.638-.088 1.155-.22 1.551-.125.396-.323.686-.594.869-.264.183-.612.275-1.045.275h-.253zm7.355-.077v-6.05h.946v3.3c0 .213-.008.436-.022.671a9.779 9.779 0 01-.044.671 7.162 7.162 0 01-.055.528l2.442-5.17h1.265V93h-.946v-3.3c0-.213.003-.436.011-.671.014-.235.033-.458.055-.671l.055-.539L174.693 93h-1.265zm15.457.088c-.484 0-.902-.092-1.254-.275a1.996 1.996 0 01-.825-.792c-.191-.352-.286-.766-.286-1.243v-1.606c0-.484.095-.898.286-1.243.198-.345.473-.609.825-.792.352-.183.77-.275 1.254-.275s.902.092 1.254.275c.352.183.623.447.814.792.198.345.297.755.297 1.232v1.617c0 .477-.099.891-.297 1.243a1.929 1.929 0 01-.814.792c-.352.183-.77.275-1.254.275zm0-.88c.433 0 .77-.121 1.012-.363s.363-.598.363-1.067v-1.606c0-.47-.121-.825-.363-1.067s-.579-.363-1.012-.363c-.425 0-.763.121-1.012.363-.242.242-.363.598-.363 1.067v1.606c0 .47.121.825.363 1.067.249.242.587.363 1.012.363zm4.726.792v-6.05h4.345v.902h-3.355V93h-.99zm6.177 1.98v-8.03h.99v1.155h.198l-.198.231c0-.462.151-.825.451-1.089.308-.271.712-.407 1.21-.407.609 0 1.093.202 1.452.605.367.396.55.942.55 1.639v1.771c0 .462-.084.862-.253 1.199a1.795 1.795 0 01-.693.781c-.293.183-.645.275-1.056.275-.491 0-.891-.136-1.199-.407-.308-.271-.462-.634-.462-1.089l.198.231h-.22l.022 1.375v1.76h-.99zm2.321-2.728c.418 0 .745-.125.979-.374.242-.25.363-.609.363-1.078v-1.65c0-.47-.121-.829-.363-1.078-.234-.25-.561-.374-.979-.374-.403 0-.726.128-.968.385s-.363.612-.363 1.067v1.65c0 .455.121.81.363 1.067.242.257.565.385.968.385zm6.035.858c-.638 0-1.14-.161-1.507-.484-.367-.33-.55-.774-.55-1.331 0-.565.183-1.008.55-1.331.367-.323.862-.484 1.485-.484h1.87v-.605c0-.374-.114-.66-.341-.858-.22-.205-.535-.308-.946-.308-.359 0-.66.077-.902.231a.823.823 0 00-.418.605h-.99c.066-.52.312-.935.737-1.243.425-.308.957-.462 1.595-.462.697 0 1.247.18 1.65.539.403.36.605.847.605 1.463V93h-.968v-1.155h-.165l.165-.165c0 .44-.172.788-.517 1.045-.337.257-.788.385-1.353.385zm.242-.781c.469 0 .854-.117 1.155-.352.301-.235.451-.535.451-.902v-.858h-1.848c-.33 0-.59.092-.781.275-.191.183-.286.433-.286.748 0 .337.114.605.341.803.235.19.557.286.968.286zm4.616.671v-6.05h.99v2.519h2.552V86.95h.99V93h-.99v-2.629h-2.552V93h-.99zm6.595 0v-6.05h.946v3.3c0 .213-.007.436-.022.671a9.185 9.185 0 01-.044.671 6.655 6.655 0 01-.055.528l2.442-5.17h1.265V93h-.946v-3.3c0-.213.004-.436.011-.671.015-.235.033-.458.055-.671l.055-.539L220.862 93h-1.265zm10.072 0v-2.2c-.117.03-.297.059-.539.088a8.017 8.017 0 01-.748.033c-.748.007-1.331-.172-1.749-.539-.41-.374-.616-.895-.616-1.562v-1.87h.99v1.87c0 .374.125.671.374.891.257.213.609.319 1.056.319.308 0 .569-.011.781-.033.22-.03.371-.055.451-.077v-2.97h.99V93h-.99zm3.12 0v-6.05h.946v3.3c0 .213-.007.436-.022.671a9.185 9.185 0 01-.044.671 7.162 7.162 0 01-.055.528l2.442-5.17h1.265V93h-.946v-3.3c0-.213.004-.436.011-.671.015-.235.033-.458.055-.671l.055-.539L234.054 93h-1.265zm6.596 0v-6.05h2.618c.63 0 1.118.143 1.463.429.344.279.517.671.517 1.177 0 .418-.143.755-.429 1.012-.286.25-.664.374-1.133.374v-.088c.513 0 .924.128 1.232.385.315.257.473.601.473 1.034 0 .543-.184.968-.55 1.276-.367.3-.88.451-1.54.451h-2.651zm.968-.869h1.683c.352 0 .623-.077.814-.231.198-.154.297-.37.297-.649 0-.286-.099-.506-.297-.66-.191-.154-.462-.231-.814-.231h-1.683v1.771zm0-2.629h1.65c.308 0 .55-.073.726-.22.183-.147.275-.352.275-.616s-.088-.47-.264-.616c-.176-.154-.422-.231-.737-.231h-1.65v1.683zm7.365 3.608c-.638 0-1.14-.161-1.507-.484-.366-.33-.55-.774-.55-1.331 0-.565.184-1.008.55-1.331.367-.323.862-.484 1.485-.484h1.87v-.605c0-.374-.113-.66-.341-.858-.22-.205-.535-.308-.946-.308-.359 0-.66.077-.902.231a.823.823 0 00-.418.605h-.99c.066-.52.312-.935.737-1.243.426-.308.957-.462 1.595-.462.697 0 1.247.18 1.65.539.404.36.605.847.605 1.463V93h-.968v-1.155h-.165l.165-.165c0 .44-.172.788-.517 1.045-.337.257-.788.385-1.353.385zm.242-.781c.47 0 .855-.117 1.155-.352.301-.235.451-.535.451-.902v-.858h-1.848c-.33 0-.59.092-.781.275-.19.183-.286.433-.286.748 0 .337.114.605.341.803.235.19.558.286.968.286zm6.882.781c-.477 0-.895-.095-1.254-.286a2.07 2.07 0 01-.825-.803c-.191-.352-.286-.759-.286-1.221v-1.65c0-.47.095-.876.286-1.221a2.07 2.07 0 01.825-.803c.359-.19.777-.286 1.254-.286s.891.095 1.243.286c.359.19.634.458.825.803.198.345.297.752.297 1.221v1.067h-3.762v.583c0 .477.121.843.363 1.1.242.25.587.374 1.034.374.381 0 .689-.066.924-.198a.872.872 0 00.429-.616h.99c-.066.506-.315.91-.748 1.21-.425.293-.957.44-1.595.44zm1.397-3.553v-.407c0-.477-.121-.843-.363-1.1-.235-.257-.579-.385-1.034-.385-.447 0-.792.128-1.034.385s-.363.623-.363 1.1v.319h2.871l-.077.088zM260.943 93v-5.181h-2.2v-.869h5.39v.869h-2.2V93h-.99zm10.716 1.54v-2.387h.495c.125-.125.253-.37.385-.737.139-.367.213-.832.22-1.397l.066-3.069h3.949v5.203h.77v2.387h-.88V93h-4.125v1.54h-.88zm1.54-2.387h2.585V87.83h-2.024l-.044 2.211c-.007.58-.07 1.049-.187 1.408-.117.36-.227.594-.33.704zm8.026.935c-.484 0-.902-.092-1.254-.275a1.996 1.996 0 01-.825-.792c-.191-.352-.286-.766-.286-1.243v-1.606c0-.484.095-.898.286-1.243.198-.345.473-.609.825-.792.352-.183.77-.275 1.254-.275s.902.092 1.254.275c.352.183.623.447.814.792.198.345.297.755.297 1.232v1.617c0 .477-.099.891-.297 1.243a1.929 1.929 0 01-.814.792c-.352.183-.77.275-1.254.275zm0-.88c.432 0 .77-.121 1.012-.363s.363-.598.363-1.067v-1.606c0-.47-.121-.825-.363-1.067s-.58-.363-1.012-.363c-.426 0-.763.121-1.012.363-.242.242-.363.598-.363 1.067v1.606c0 .47.121.825.363 1.067.249.242.586.363 1.012.363zm6.618.902c-.484 0-.91-.092-1.276-.275a1.977 1.977 0 01-.836-.792c-.198-.352-.297-.766-.297-1.243v-1.65c0-.484.099-.898.297-1.243.198-.345.476-.609.836-.792.366-.183.792-.275 1.276-.275.696 0 1.257.187 1.683.561.425.374.649.884.671 1.529h-.99c-.022-.389-.154-.686-.396-.891-.235-.213-.558-.319-.968-.319-.433 0-.778.125-1.034.374-.257.242-.385.59-.385 1.045V90.8c0 .455.128.807.385 1.056.256.25.601.374 1.034.374.41 0 .733-.106.968-.319.242-.213.374-.51.396-.891h.99c-.022.645-.246 1.155-.671 1.529-.426.374-.987.561-1.683.561zm6.078-.11v-5.181h-2.2v-.869h5.39v.869h-2.2V93h-.99zm5.749 1.98l.891-2.354-2.244-5.676h1.1l1.408 3.74c.051.125.099.275.143.451l.11.429.11-.429a5.08 5.08 0 01.132-.451l1.32-3.74h1.067l-2.981 8.03h-1.056zm5.672-1.98v-6.05h4.532V93h-.99v-5.148h-2.552V93h-.99zM61.301 108v-6.05h4.532V108h-.99v-5.148H62.29V108h-.99zm8.861.088c-.484 0-.902-.092-1.254-.275a1.992 1.992 0 01-.825-.792c-.19-.352-.286-.766-.286-1.243v-1.606c0-.484.096-.898.286-1.243.198-.345.473-.609.825-.792.352-.183.77-.275 1.254-.275s.902.092 1.254.275c.352.183.624.447.814.792.198.345.297.755.297 1.232v1.617c0 .477-.099.891-.297 1.243a1.92 1.92 0 01-.814.792c-.352.183-.77.275-1.254.275zm0-.88c.433 0 .77-.121 1.012-.363s.363-.598.363-1.067v-1.606c0-.469-.12-.825-.363-1.067-.242-.242-.579-.363-1.012-.363-.425 0-.762.121-1.012.363-.242.242-.363.598-.363 1.067v1.606c0 .469.121.825.363 1.067.25.242.587.363 1.012.363zm6.618.902c-.484 0-.91-.092-1.276-.275a1.977 1.977 0 01-.836-.792c-.198-.352-.297-.766-.297-1.243v-1.65c0-.484.099-.898.297-1.243.198-.345.477-.609.836-.792.367-.183.792-.275 1.276-.275.697 0 1.258.187 1.683.561.425.374.649.884.671 1.529h-.99c-.022-.389-.154-.686-.396-.891-.235-.213-.557-.319-.968-.319-.433 0-.777.125-1.034.374-.257.242-.385.59-.385 1.045v1.661c0 .455.128.807.385 1.056s.601.374 1.034.374c.41 0 .733-.106.968-.319.242-.213.374-.51.396-.891h.99c-.022.645-.246 1.155-.671 1.529-.425.374-.986.561-1.683.561zm3.549-.033v-.924h.198c.337 0 .572-.132.704-.396.139-.264.212-.737.22-1.419l.066-3.388h4.103V108h-.99v-5.148h-2.134l-.055 2.53c-.015.638-.088 1.155-.22 1.551-.125.396-.323.686-.594.869-.264.183-.613.275-1.045.275h-.253zm9.62.033c-.476 0-.894-.095-1.254-.286a2.07 2.07 0 01-.825-.803 2.523 2.523 0 01-.286-1.221v-1.65c0-.469.096-.876.286-1.221a2.07 2.07 0 01.825-.803c.36-.191.778-.286 1.254-.286.477 0 .891.095 1.243.286.36.191.635.458.825.803.198.345.297.752.297 1.221v1.067h-3.762v.583c0 .477.121.843.363 1.1.242.249.587.374 1.034.374.382 0 .69-.066.924-.198a.874.874 0 00.43-.616h.99a1.69 1.69 0 01-.749 1.21c-.425.293-.957.44-1.595.44zm1.397-3.553v-.407c0-.477-.12-.843-.363-1.1-.234-.257-.579-.385-1.034-.385-.447 0-.792.128-1.034.385s-.363.623-.363 1.1v.319h2.871l-.077.088zm9.529 3.443v-6.05h.946v3.3c0 .213-.008.436-.022.671a9.779 9.779 0 01-.044.671 7.197 7.197 0 01-.055.528l2.442-5.17h1.265V108h-.946v-3.3c0-.213.003-.436.011-.671.014-.235.033-.458.055-.671l.055-.539L102.14 108h-1.265zm8.884.11c-.484 0-.91-.092-1.276-.275a1.973 1.973 0 01-.836-.792c-.198-.352-.297-.766-.297-1.243v-1.65c0-.484.099-.898.297-1.243.198-.345.476-.609.836-.792.366-.183.792-.275 1.276-.275.696 0 1.257.187 1.683.561.425.374.649.884.671 1.529h-.99c-.022-.389-.154-.686-.396-.891-.235-.213-.558-.319-.968-.319-.433 0-.778.125-1.034.374-.257.242-.385.59-.385 1.045v1.661c0 .455.128.807.385 1.056.256.249.601.374 1.034.374.41 0 .733-.106.968-.319.242-.213.374-.51.396-.891h.99c-.022.645-.246 1.155-.671 1.529-.426.374-.987.561-1.683.561zm6.078-.11v-5.181h-2.2v-.869h5.39v.869h-2.2V108h-.99zm7.091.11c-.477 0-.895-.095-1.254-.286a2.07 2.07 0 01-.825-.803c-.191-.352-.286-.759-.286-1.221v-1.65c0-.469.095-.876.286-1.221a2.07 2.07 0 01.825-.803c.359-.191.777-.286 1.254-.286s.891.095 1.243.286c.359.191.634.458.825.803.198.345.297.752.297 1.221v1.067h-3.762v.583c0 .477.121.843.363 1.1.242.249.587.374 1.034.374.381 0 .689-.066.924-.198a.872.872 0 00.429-.616h.99a1.685 1.685 0 01-.748 1.21c-.425.293-.957.44-1.595.44zm1.397-3.553v-.407c0-.477-.121-.843-.363-1.1-.235-.257-.579-.385-1.034-.385-.447 0-.792.128-1.034.385s-.363.623-.363 1.1v.319h2.871l-.077.088zm6.409 3.443v-2.2a4.84 4.84 0 01-.539.088 8.033 8.033 0 01-.748.033c-.748.007-1.331-.172-1.749-.539-.411-.374-.616-.895-.616-1.562v-1.87h.99v1.87c0 .374.124.671.374.891.256.213.608.319 1.056.319.308 0 .568-.011.781-.033.22-.029.37-.055.451-.077v-2.97h.99V108h-.99zm5.385.11c-.476 0-.894-.095-1.254-.286a2.07 2.07 0 01-.825-.803 2.531 2.531 0 01-.286-1.221v-1.65c0-.469.096-.876.286-1.221a2.07 2.07 0 01.825-.803c.36-.191.778-.286 1.254-.286.477 0 .891.095 1.243.286.36.191.635.458.825.803.198.345.297.752.297 1.221v1.067h-3.762v.583c0 .477.121.843.363 1.1.242.249.587.374 1.034.374.382 0 .69-.066.924-.198a.872.872 0 00.429-.616h.99a1.685 1.685 0 01-.748 1.21c-.425.293-.957.44-1.595.44zm1.397-3.553v-.407c0-.477-.121-.843-.363-1.1-.234-.257-.579-.385-1.034-.385-.447 0-.792.128-1.034.385s-.363.623-.363 1.1v.319h2.871l-.077.088zm2.933 3.443v-6.05h.99v2.519h2.552v-2.519h.99V108h-.99v-2.629h-2.552V108h-.99zm6.596 0v-6.05h.946v3.3c0 .213-.008.436-.022.671a9.779 9.779 0 01-.044.671 7.197 7.197 0 01-.055.528l2.442-5.17h1.265V108h-.946v-3.3c0-.213.003-.436.011-.671.014-.235.033-.458.055-.671l.055-.539L148.31 108h-1.265zm6.221 0l1.551-2.332c-.462-.11-.821-.323-1.078-.638-.249-.315-.374-.708-.374-1.177 0-.594.195-1.06.583-1.397.396-.337.935-.506 1.617-.506h2.607V108h-.99v-2.255h-1.331l-1.43 2.255h-1.155zm2.299-3.135h1.617v-2.035h-1.617c-.366 0-.656.092-.869.275-.212.176-.319.425-.319.748 0 .315.107.565.319.748.213.176.503.264.869.264zm13.555 3.245c-.484 0-.909-.092-1.276-.275a1.979 1.979 0 01-.836-.792c-.198-.352-.297-.766-.297-1.243v-1.65c0-.484.099-.898.297-1.243.198-.345.477-.609.836-.792.367-.183.792-.275 1.276-.275.697 0 1.258.187 1.683.561.425.374.649.884.671 1.529h-.99c-.022-.389-.154-.686-.396-.891-.235-.213-.557-.319-.968-.319-.433 0-.777.125-1.034.374-.257.242-.385.59-.385 1.045v1.661c0 .455.128.807.385 1.056s.601.374 1.034.374c.411 0 .733-.106.968-.319.242-.213.374-.51.396-.891h.99c-.022.645-.246 1.155-.671 1.529-.425.374-.986.561-1.683.561zm4.286 1.87v-8.03h.99v1.155h.198l-.198.231c0-.462.15-.825.451-1.089.308-.271.711-.407 1.21-.407.608 0 1.092.202 1.452.605.366.396.55.942.55 1.639v1.771c0 .462-.085.862-.253 1.199a1.807 1.807 0 01-.693.781c-.294.183-.646.275-1.056.275-.492 0-.891-.136-1.199-.407-.308-.271-.462-.634-.462-1.089l.198.231h-.22l.022 1.375v1.76h-.99zm2.321-2.728c.418 0 .744-.125.979-.374.242-.249.363-.609.363-1.078v-1.65c0-.469-.121-.829-.363-1.078-.235-.249-.561-.374-.979-.374-.404 0-.726.128-.968.385s-.363.612-.363 1.067v1.65c0 .455.121.81.363 1.067.242.257.564.385.968.385zm6.562.836c-.484 0-.902-.092-1.254-.275a1.992 1.992 0 01-.825-.792c-.19-.352-.286-.766-.286-1.243v-1.606c0-.484.096-.898.286-1.243.198-.345.473-.609.825-.792.352-.183.77-.275 1.254-.275s.902.092 1.254.275c.352.183.624.447.814.792.198.345.297.755.297 1.232v1.617c0 .477-.099.891-.297 1.243a1.92 1.92 0 01-.814.792c-.352.183-.77.275-1.254.275zm0-.88c.433 0 .77-.121 1.012-.363s.363-.598.363-1.067v-1.606c0-.469-.121-.825-.363-1.067s-.579-.363-1.012-.363c-.425 0-.762.121-1.012.363-.242.242-.363.598-.363 1.067v1.606c0 .469.121.825.363 1.067.25.242.587.363 1.012.363zm4.363.792v-6.05h.99v2.497h1.034l1.76-2.497h1.133l-2.035 2.882 2.068 3.168h-1.155l-1.76-2.695h-1.045V108h-.99zm8.301.11c-.638 0-1.141-.161-1.507-.484-.367-.33-.55-.774-.55-1.331 0-.565.183-1.008.55-1.331.366-.323.861-.484 1.485-.484h1.87v-.605c0-.374-.114-.66-.341-.858-.22-.205-.536-.308-.946-.308-.36 0-.66.077-.902.231-.242.147-.382.348-.418.605h-.99c.066-.521.311-.935.737-1.243.425-.308.957-.462 1.595-.462.696 0 1.246.18 1.65.539.403.359.605.847.605 1.463V108h-.968v-1.155h-.165l.165-.165c0 .44-.173.788-.517 1.045-.338.257-.789.385-1.353.385zm.242-.781c.469 0 .854-.117 1.155-.352.3-.235.451-.535.451-.902v-.858h-1.848c-.33 0-.591.092-.781.275-.191.183-.286.433-.286.748 0 .337.113.605.341.803.234.191.557.286.968.286zm11.211.671v-6.05h4.532V108h-.99v-5.148h-2.552V108h-.99zm8.862.088c-.484 0-.902-.092-1.254-.275a1.992 1.992 0 01-.825-.792c-.191-.352-.286-.766-.286-1.243v-1.606c0-.484.095-.898.286-1.243.198-.345.473-.609.825-.792.352-.183.77-.275 1.254-.275s.902.092 1.254.275c.352.183.623.447.814.792.198.345.297.755.297 1.232v1.617c0 .477-.099.891-.297 1.243a1.925 1.925 0 01-.814.792c-.352.183-.77.275-1.254.275zm0-.88c.432 0 .77-.121 1.012-.363s.363-.598.363-1.067v-1.606c0-.469-.121-.825-.363-1.067s-.58-.363-1.012-.363c-.426 0-.763.121-1.012.363-.242.242-.363.598-.363 1.067v1.606c0 .469.121.825.363 1.067.249.242.586.363 1.012.363zm3.625 2.332v-2.387h.495c.125-.125.253-.37.385-.737.14-.367.213-.832.22-1.397l.066-3.069h3.949v5.203h.77v2.387h-.88V108h-4.125v1.54h-.88zm1.54-2.387h2.585v-4.323h-2.024l-.044 2.211c-.007.579-.069 1.049-.187 1.408-.117.359-.227.594-.33.704zm5.76.847v-6.05h4.532V108h-.99v-5.148h-2.552V108h-.99zm6.596 0v-6.05h.946v3.3c0 .213-.007.436-.022.671a9.185 9.185 0 01-.044.671 7.197 7.197 0 01-.055.528l2.442-5.17h1.265V108h-.946v-3.3c0-.213.004-.436.011-.671.015-.235.033-.458.055-.671l.055-.539-2.442 5.181h-1.265zm8.884.11c-.484 0-.91-.092-1.276-.275a1.973 1.973 0 01-.836-.792c-.198-.352-.297-.766-.297-1.243v-1.65c0-.484.099-.898.297-1.243.198-.345.476-.609.836-.792.366-.183.792-.275 1.276-.275.696 0 1.257.187 1.683.561.425.374.649.884.671 1.529h-.99c-.022-.389-.154-.686-.396-.891-.235-.213-.558-.319-.968-.319-.433 0-.778.125-1.034.374-.257.242-.385.59-.385 1.045v1.661c0 .455.128.807.385 1.056.256.249.601.374 1.034.374.41 0 .733-.106.968-.319.242-.213.374-.51.396-.891h.99c-.022.645-.246 1.155-.671 1.529-.426.374-.987.561-1.683.561zm4.34-.11v-6.05h.99v2.497h1.034l1.76-2.497h1.133l-2.035 2.882 2.068 3.168h-1.155l-1.76-2.695h-1.045V108h-.99zm6.563 0v-6.05h.946v3.3c0 .213-.007.436-.022.671a9.185 9.185 0 01-.044.671 7.197 7.197 0 01-.055.528l2.442-5.17h1.265V108h-.946v-3.3c0-.213.004-.436.011-.671.015-.235.033-.458.055-.671l.055-.539-2.442 5.181h-1.265zm8.862.11c-.279 0-.503-.081-.671-.242-.162-.161-.242-.378-.242-.649 0-.286.08-.513.242-.682.168-.169.392-.253.671-.253.278 0 .498.084.66.253.168.169.253.396.253.682 0 .271-.085.488-.253.649-.162.161-.382.242-.66.242z" fill="#fff"/><rect x=".5" y=".5" width="328" height="117" rx="10.5" stroke="#CCEC60"/></svg>