<svg width="356" height="127" fill="none" xmlns="http://www.w3.org/2000/svg"><rect width="356" height="127" rx="11" fill="#CCEC60"/><path d="M6.3 31.68v-2.604h.54c.088-.16.18-.376.276-.648.096-.272.18-.58.252-.924.072-.344.112-.704.12-1.08l.084-5.184h4.488v7.836h.84v2.604h-.96V30H7.26v1.68H6.3zm1.668-2.604h3.012V22.2H8.604l-.06 4.224a6.588 6.588 0 01-.204 1.632c-.128.472-.252.812-.372 1.02zm8.178 1.044c-.696 0-1.244-.176-1.644-.528-.4-.36-.6-.844-.6-1.452 0-.616.2-1.1.6-1.452.4-.352.94-.528 1.62-.528h2.04v-.66c0-.408-.124-.72-.372-.936-.24-.224-.584-.336-1.032-.336-.392 0-.72.084-.984.252-.264.16-.416.38-.456.66h-1.08c.072-.568.34-1.02.804-1.356.464-.336 1.044-.504 1.74-.504.76 0 1.36.196 1.8.588.44.392.66.924.66 1.596V30h-1.056v-1.26h-.18l.18-.18c0 .48-.188.86-.564 1.14-.368.28-.86.42-1.476.42zm.264-.852c.512 0 .932-.128 1.26-.384.328-.256.492-.584.492-.984v-.936h-2.016c-.36 0-.644.1-.852.3-.208.2-.312.472-.312.816 0 .368.124.66.372.876.256.208.608.312 1.056.312zm4.962.732v-6.6h1.08v2.748h2.784V23.4h1.08V30h-1.08v-2.868h-2.784V30h-1.08zm7.121 0v-6.6h1.08v2.748h2.784V23.4h1.08V30h-1.08v-2.868h-2.784V30h-1.08zm6.774 0v-6.6h1.008v2.424h.54c.712 0 1.272.188 1.68.564.416.368.624.876.624 1.524s-.208 1.16-.624 1.536c-.408.368-.968.552-1.68.552h-1.548zm1.008-.864h.54c.424 0 .752-.108.984-.324.24-.216.36-.516.36-.9s-.12-.684-.36-.9c-.232-.216-.56-.324-.984-.324h-.54v2.448zM39.9 30v-6.6h1.008V30H39.9zm2.838 0v-6.6h1.032V27c0 .232-.008.476-.024.732-.008.256-.024.5-.048.732a7.615 7.615 0 01-.06.576L46.3 23.4h1.38V30h-1.032v-3.6c0-.232.004-.476.012-.732.016-.256.036-.5.06-.732l.06-.588L44.117 30h-1.38zm2.52-7.68c-.576 0-1.04-.16-1.392-.48-.352-.32-.528-.74-.528-1.26h.852c0 .312.096.564.288.756.192.192.448.288.768.288.328 0 .588-.096.78-.288.2-.192.3-.444.3-.756h.852c0 .52-.176.94-.528 1.26-.352.32-.816.48-1.392.48zM57.017 30v-6.6h1.08v2.724h1.127l1.92-2.724h1.236l-2.22 3.144L62.417 30h-1.26l-1.92-2.94h-1.14V30h-1.08zm9.557.12c-.52 0-.976-.104-1.368-.312a2.258 2.258 0 01-.9-.876c-.208-.384-.312-.828-.312-1.332v-1.8c0-.512.104-.956.312-1.332.216-.376.516-.668.9-.876.392-.208.848-.312 1.368-.312.52 0 .972.104 1.356.312.392.208.692.5.9.876.216.376.324.82.324 1.332v1.164H65.05v.636c0 .52.132.92.396 1.2.264.272.64.408 1.128.408.416 0 .752-.072 1.008-.216a.953.953 0 00.468-.672h1.08c-.072.552-.344.992-.816 1.32-.464.32-1.044.48-1.74.48zm1.524-3.876V25.8c0-.52-.132-.92-.396-1.2-.256-.28-.632-.42-1.128-.42-.488 0-.864.14-1.128.42-.264.28-.396.68-.396 1.2v.348h3.132l-.084.096zM71.224 30v-6.6h1.032V27c0 .232-.008.476-.024.732-.008.256-.024.5-.048.732a7.615 7.615 0 01-.06.576l2.664-5.64h1.38V30h-1.032v-3.6c0-.232.004-.476.012-.732.016-.256.036-.5.06-.732l.06-.588L72.604 30h-1.38zm2.52-7.68c-.576 0-1.04-.16-1.392-.48-.352-.32-.528-.74-.528-1.26h.852c0 .312.096.564.288.756.192.192.448.288.768.288.328 0 .588-.096.78-.288.2-.192.3-.444.3-.756h.852c0 .52-.176.94-.528 1.26-.352.32-.816.48-1.392.48zm7.098 7.8c-.528 0-.992-.1-1.392-.3a2.161 2.161 0 01-.912-.864c-.216-.384-.324-.836-.324-1.356v-1.8c0-.528.108-.98.324-1.356.216-.376.52-.664.912-.864.4-.2.864-.3 1.392-.3.76 0 1.372.204 1.836.612.464.408.708.964.732 1.668h-1.08c-.024-.424-.168-.748-.432-.972-.256-.232-.608-.348-1.056-.348-.472 0-.848.136-1.128.408-.28.264-.42.644-.42 1.14V27.6c0 .496.14.88.42 1.152.28.272.656.408 1.128.408.448 0 .8-.116 1.056-.348.264-.232.408-.556.432-.972h1.08c-.024.704-.268 1.26-.732 1.668-.464.408-1.076.612-1.836.612zm10.98 1.56v-2.604h.54c.135-.136.275-.404.42-.804.151-.4.231-.908.24-1.524l.071-3.348h4.308v5.676h.84v2.604h-.96V30h-4.5v1.68h-.96zm1.68-2.604h2.82V24.36h-2.209l-.048 2.412c-.008.632-.076 1.144-.204 1.536-.128.392-.248.648-.36.768zm8.681 1.044c-.52 0-.976-.104-1.368-.312a2.256 2.256 0 01-.9-.876c-.208-.384-.312-.828-.312-1.332v-1.8c0-.512.104-.956.312-1.332.216-.376.516-.668.9-.876.392-.208.848-.312 1.368-.312.52 0 .972.104 1.356.312.392.208.692.5.9.876.216.376.324.82.324 1.332v1.164h-4.104v.636c0 .52.132.92.396 1.2.264.272.64.408 1.128.408.416 0 .752-.072 1.008-.216a.953.953 0 00.468-.672h1.08c-.072.552-.344.992-.816 1.32-.464.32-1.044.48-1.74.48zm1.524-3.876V25.8c0-.52-.132-.92-.396-1.2-.256-.28-.632-.42-1.128-.42-.488 0-.864.14-1.128.42-.264.28-.396.68-.396 1.2v.348h3.132l-.084.096zm2.91 3.756v-6.6h1.464l.864 2.532c.088.256.168.512.24.768.072.248.124.44.156.576.032-.136.08-.328.144-.576.072-.256.148-.516.228-.78l.816-2.52h1.464V30h-1.044v-1.02c0-.36.004-.752.012-1.176l.024-1.284.048-1.224c.016-.392.028-.736.036-1.032l-1.176 3.756h-1.14l-1.188-3.732c.016.36.028.808.036 1.344.016.536.028 1.096.036 1.68.016.584.024 1.14.024 1.668V30h-1.044zm9.81.096c-.528 0-.984-.1-1.368-.3a2.178 2.178 0 01-.9-.864c-.208-.384-.312-.836-.312-1.356v-1.752c0-.528.104-.98.312-1.356.216-.376.516-.664.9-.864.384-.2.84-.3 1.368-.3.528 0 .984.1 1.368.3.384.2.68.488.888.864.216.376.324.824.324 1.344v1.764c0 .52-.108.972-.324 1.356a2.103 2.103 0 01-.888.864c-.384.2-.84.3-1.368.3zm0-.96c.472 0 .84-.132 1.104-.396.264-.264.396-.652.396-1.164v-1.752c0-.512-.132-.9-.396-1.164-.264-.264-.632-.396-1.104-.396-.464 0-.832.132-1.104.396-.264.264-.396.652-.396 1.164v1.752c0 .512.132.9.396 1.164.272.264.64.396 1.104.396zm4.65.864v-6.6h1.08v2.748h2.784V23.4h1.08V30h-1.08v-2.868h-2.784V30h-1.08zm9.617.12c-.528 0-.992-.1-1.392-.3a2.161 2.161 0 01-.912-.864c-.216-.384-.324-.836-.324-1.356v-1.8c0-.528.108-.98.324-1.356.216-.376.52-.664.912-.864.4-.2.864-.3 1.392-.3.76 0 1.372.204 1.836.612.464.408.708.964.732 1.668h-1.08c-.024-.424-.168-.748-.432-.972-.256-.232-.608-.348-1.056-.348-.472 0-.848.136-1.128.408-.28.264-.42.644-.42 1.14V27.6c0 .496.14.88.42 1.152.28.272.656.408 1.128.408.448 0 .8-.116 1.056-.348.264-.232.408-.556.432-.972h1.08c-.024.704-.268 1.26-.732 1.668-.464.408-1.076.612-1.836.612zm6.558-.12v-5.652h-2.4V23.4h5.88v.948h-2.4V30h-1.08zm5.166 2.16V23.4h1.08v1.26h.216l-.216.252c0-.504.164-.9.492-1.188.336-.296.776-.444 1.32-.444.664 0 1.192.22 1.584.66.4.432.6 1.028.6 1.788v1.932c0 .504-.092.94-.276 1.308a1.962 1.962 0 01-.756.852c-.32.2-.704.3-1.152.3-.536 0-.972-.148-1.308-.444-.336-.296-.504-.692-.504-1.188l.216.252h-.24l.024 1.5v1.92h-1.08zm2.532-2.976c.456 0 .812-.136 1.068-.408.264-.272.396-.664.396-1.176v-1.8c0-.512-.132-.904-.396-1.176-.256-.272-.612-.408-1.068-.408-.44 0-.792.14-1.056.42-.264.28-.396.668-.396 1.164v1.8c0 .496.132.884.396 1.164.264.28.616.42 1.056.42zm4.614.816v-6.6h1.032V27c0 .232-.008.476-.024.732-.008.256-.024.5-.048.732a7.615 7.615 0 01-.06.576l2.664-5.64h1.38V30h-1.032v-3.6c0-.232.004-.476.012-.732.016-.256.036-.5.06-.732l.06-.588L150.944 30h-1.38zm7.097 2.16V23.4h1.08v1.26h.216l-.216.252c0-.504.164-.9.492-1.188.336-.296.776-.444 1.32-.444.664 0 1.192.22 1.584.66.4.432.6 1.028.6 1.788v1.932c0 .504-.092.94-.276 1.308a1.962 1.962 0 01-.756.852c-.32.2-.704.3-1.152.3-.536 0-.972-.148-1.308-.444-.336-.296-.504-.692-.504-1.188l.216.252h-.24l.024 1.5v1.92h-1.08zm2.532-2.976c.456 0 .812-.136 1.068-.408.264-.272.396-.664.396-1.176v-1.8c0-.512-.132-.904-.396-1.176-.256-.272-.612-.408-1.068-.408-.44 0-.792.14-1.056.42-.264.28-.396.668-.396 1.164v1.8c0 .496.132.884.396 1.164.264.28.616.42 1.056.42zm5.622 2.976l.972-2.568-2.448-6.192h1.2l1.536 4.08c.056.136.108.3.156.492l.12.468.12-.468c.048-.192.096-.356.144-.492l1.44-4.08h1.164l-3.252 8.76h-1.152zm8.586-2.04c-.52 0-.976-.104-1.368-.312a2.258 2.258 0 01-.9-.876c-.208-.384-.312-.828-.312-1.332v-1.8c0-.512.104-.956.312-1.332.216-.376.516-.668.9-.876.392-.208.848-.312 1.368-.312.52 0 .972.104 1.356.312.392.208.692.5.9.876.216.376.324.82.324 1.332v1.164h-4.104v.636c0 .52.132.92.396 1.2.264.272.64.408 1.128.408.416 0 .752-.072 1.008-.216a.953.953 0 00.468-.672h1.08c-.072.552-.344.992-.816 1.32-.464.32-1.044.48-1.74.48zm1.524-3.876V25.8c0-.52-.132-.92-.396-1.2-.256-.28-.632-.42-1.128-.42-.488 0-.864.14-1.128.42-.264.28-.396.68-.396 1.2v.348h3.132l-.084.096zM179.983 30v-5.652h-2.4V23.4h5.88v.948h-2.4V30h-1.08zm6.042 1.92l.96-3.732h1.56l-1.56 3.732h-.96zM199.452 30v-6.6h1.08v2.724h1.128l1.92-2.724h1.236l-2.22 3.144L204.852 30h-1.26l-1.92-2.94h-1.14V30h-1.08zm8.982.12c-.696 0-1.244-.176-1.644-.528-.4-.36-.6-.844-.6-1.452 0-.616.2-1.1.6-1.452.4-.352.94-.528 1.62-.528h2.04v-.66c0-.408-.124-.72-.372-.936-.24-.224-.584-.336-1.032-.336-.392 0-.72.084-.984.252-.264.16-.416.38-.456.66h-1.08c.072-.568.34-1.02.804-1.356.464-.336 1.044-.504 1.74-.504.76 0 1.36.196 1.8.588.44.392.66.924.66 1.596V30h-1.056v-1.26h-.18l.18-.18c0 .48-.188.86-.564 1.14-.368.28-.86.42-1.476.42zm.264-.852c.512 0 .932-.128 1.26-.384.328-.256.492-.584.492-.984v-.936h-2.016c-.36 0-.644.1-.852.3-.208.2-.312.472-.312.816 0 .368.124.66.372.876.256.208.608.312 1.056.312zm4.998.732v-6.6h1.08v2.724h1.128l1.92-2.724h1.236l-2.22 3.144L219.096 30h-1.26l-1.92-2.94h-1.14V30h-1.08zm14.243 0v-6.6h1.08v2.724h1.128l1.92-2.724h1.236l-2.22 3.144L233.339 30h-1.26l-1.92-2.94h-1.14V30h-1.08zm9.558.096c-.528 0-.984-.1-1.368-.3a2.178 2.178 0 01-.9-.864c-.208-.384-.312-.836-.312-1.356v-1.752c0-.528.104-.98.312-1.356.216-.376.516-.664.9-.864.384-.2.84-.3 1.368-.3.528 0 .984.1 1.368.3.384.2.68.488.888.864.216.376.324.824.324 1.344v1.764c0 .52-.108.972-.324 1.356a2.103 2.103 0 01-.888.864c-.384.2-.84.3-1.368.3zm0-.96c.472 0 .84-.132 1.104-.396.264-.264.396-.652.396-1.164v-1.752c0-.512-.132-.9-.396-1.164-.264-.264-.632-.396-1.104-.396-.464 0-.832.132-1.104.396-.264.264-.396.652-.396 1.164v1.752c0 .512.132.9.396 1.164.272.264.64.396 1.104.396zm4.434.864v-6.6h1.464l.864 2.532c.088.256.168.512.24.768.072.248.124.44.156.576.032-.136.08-.328.144-.576.072-.256.148-.516.228-.78l.816-2.52h1.464V30h-1.044v-1.02c0-.36.004-.752.012-1.176l.024-1.284.048-1.224c.016-.392.028-.736.036-1.032l-1.176 3.756h-1.14l-1.188-3.732c.016.36.028.808.036 1.344.016.536.028 1.096.036 1.68.016.584.024 1.14.024 1.668V30h-1.044zm7.338 0v-6.6h4.944V30h-1.08v-5.616h-2.784V30h-1.08zm6.293.084v-1.008h.216c.368 0 .624-.144.768-.432.152-.288.232-.804.24-1.548l.072-3.696h4.476V30h-1.08v-5.616h-2.328l-.06 2.76c-.016.696-.096 1.26-.24 1.692-.136.432-.352.748-.648.948-.288.2-.668.3-1.14.3h-.276zm10.422.036c-.52 0-.976-.104-1.368-.312a2.258 2.258 0 01-.9-.876c-.208-.384-.312-.828-.312-1.332v-1.8c0-.512.104-.956.312-1.332.216-.376.516-.668.9-.876.392-.208.848-.312 1.368-.312.52 0 .972.104 1.356.312.392.208.692.5.9.876.216.376.324.82.324 1.332v1.164h-4.104v.636c0 .52.132.92.396 1.2.264.272.64.408 1.128.408.416 0 .752-.072 1.008-.216a.953.953 0 00.468-.672h1.08c-.072.552-.344.992-.816 1.32-.464.32-1.044.48-1.74.48zm1.524-3.876V25.8c0-.52-.132-.92-.396-1.2-.256-.28-.632-.42-1.128-.42-.488 0-.864.14-1.128.42-.264.28-.396.68-.396 1.2v.348h3.132l-.084.096zM270.67 30v-6.6h1.08v2.724h1.128l1.92-2.724h1.236l-2.22 3.144L276.07 30h-1.26l-1.92-2.94h-1.14V30h-1.08zm9.582.12c-.528 0-.992-.1-1.392-.3a2.161 2.161 0 01-.912-.864c-.216-.384-.324-.836-.324-1.356v-1.8c0-.528.108-.98.324-1.356.216-.376.52-.664.912-.864.4-.2.864-.3 1.392-.3.76 0 1.372.204 1.836.612.464.408.708.964.732 1.668h-1.08c-.024-.424-.168-.748-.432-.972-.256-.232-.608-.348-1.056-.348-.472 0-.848.136-1.128.408-.28.264-.42.644-.42 1.14V27.6c0 .496.14.88.42 1.152.28.272.656.408 1.128.408.448 0 .8-.116 1.056-.348.264-.232.408-.556.432-.972h1.08c-.024.704-.268 1.26-.732 1.668-.464.408-1.076.612-1.836.612zm4.626-.12v-6.6h1.08v2.748h2.784V23.4h1.08V30h-1.08v-2.868h-2.784V30h-1.08zm6.773 0v-6.6h1.008v2.424h.54c.712 0 1.272.188 1.68.564.416.368.624.876.624 1.524s-.208 1.16-.624 1.536c-.408.368-.968.552-1.68.552h-1.548zm1.008-.864h.54c.424 0 .752-.108.984-.324.24-.216.36-.516.36-.9s-.12-.684-.36-.9c-.232-.216-.56-.324-.984-.324h-.54v2.448zm3.624.864v-6.6h1.008V30h-1.008zm2.838 0v-6.6h1.032V27c0 .232-.008.476-.024.732-.008.256-.024.5-.048.732a7.615 7.615 0 01-.06.576l2.664-5.64h1.38V30h-1.032v-3.6c0-.232.004-.476.012-.732.016-.256.036-.5.06-.732l.06-.588L300.501 30h-1.38zm2.52-7.68c-.576 0-1.04-.16-1.392-.48-.352-.32-.528-.74-.528-1.26h.852c0 .312.096.564.288.756.192.192.448.288.768.288.328 0 .588-.096.78-.288.2-.192.3-.444.3-.756h.852c0 .52-.176.94-.528 1.26-.352.32-.816.48-1.392.48zM313.365 30v-6.6h1.032V27c0 .232-.008.476-.024.732-.008.256-.024.5-.048.732a7.615 7.615 0 01-.06.576l2.664-5.64h1.38V30h-1.032v-3.6c0-.232.004-.476.012-.732.016-.256.036-.5.06-.732l.06-.588L314.745 30h-1.38zM9.624 56.12c-.528 0-.992-.1-1.392-.3a2.161 2.161 0 01-.912-.864c-.216-.384-.324-.836-.324-1.356v-1.8c0-.528.108-.98.324-1.356.216-.376.52-.664.912-.864.4-.2.864-.3 1.392-.3.76 0 1.372.204 1.836.612.464.408.708.964.732 1.668h-1.08c-.024-.424-.168-.748-.432-.972-.256-.232-.608-.348-1.056-.348-.472 0-.848.136-1.128.408-.28.264-.42.644-.42 1.14V53.6c0 .496.14.88.42 1.152.28.272.656.408 1.128.408.448 0 .8-.116 1.056-.348.264-.232.408-.556.432-.972h1.08c-.024.704-.268 1.26-.732 1.668-.464.408-1.076.612-1.836.612zm6.558-.12v-5.652h-2.4V49.4h5.88v.948h-2.4V56h-1.08zm5.166 2.16V49.4h1.08v1.26h.216l-.216.252c0-.504.164-.9.492-1.188.336-.296.776-.444 1.32-.444.664 0 1.192.22 1.584.66.4.432.6 1.028.6 1.788v1.932c0 .504-.092.94-.276 1.308a1.962 1.962 0 01-.756.852c-.32.2-.704.3-1.152.3-.536 0-.972-.148-1.308-.444-.336-.296-.504-.692-.504-1.188l.216.252h-.24l.024 1.5v1.92h-1.08zm2.532-2.976c.456 0 .812-.136 1.068-.408.264-.272.396-.664.396-1.176v-1.8c0-.512-.132-.904-.396-1.176-.256-.272-.612-.408-1.068-.408-.44 0-.792.14-1.056.42-.264.28-.396.668-.396 1.164v1.8c0 .496.132.884.396 1.164.264.28.616.42 1.056.42zm6.51.936c-.697 0-1.245-.176-1.645-.528-.4-.36-.6-.844-.6-1.452 0-.616.2-1.1.6-1.452.4-.352.94-.528 1.62-.528h2.04v-.66c0-.408-.124-.72-.372-.936-.24-.224-.584-.336-1.032-.336-.392 0-.72.084-.984.252-.264.16-.416.38-.456.66h-1.08c.072-.568.34-1.02.804-1.356.464-.336 1.044-.504 1.74-.504.76 0 1.36.196 1.8.588.44.392.66.924.66 1.596V56H32.43v-1.26h-.18l.18-.18c0 .48-.188.86-.564 1.14-.368.28-.86.42-1.476.42zm.263-.852c.512 0 .932-.128 1.26-.384.328-.256.492-.584.492-.984v-.936H30.39c-.36 0-.644.1-.852.3-.208.2-.312.472-.312.816 0 .368.124.66.372.876.256.208.608.312 1.056.312zm6.894.732v-5.652h-2.4V49.4h5.88v.948h-2.4V56h-1.08zm7.662.12c-.52 0-.976-.104-1.368-.312a2.258 2.258 0 01-.9-.876c-.208-.384-.312-.828-.312-1.332v-1.8c0-.512.104-.956.312-1.332.216-.376.516-.668.9-.876.392-.208.848-.312 1.368-.312.52 0 .972.104 1.356.312.392.208.692.5.9.876.216.376.324.82.324 1.332v1.164h-4.104v.636c0 .52.132.92.396 1.2.264.272.64.408 1.128.408.416 0 .752-.072 1.008-.216a.953.953 0 00.468-.672h1.08c-.072.552-.344.992-.816 1.32-.464.32-1.044.48-1.74.48zm1.524-3.876V51.8c0-.52-.132-.92-.396-1.2-.256-.28-.632-.42-1.128-.42-.488 0-.864.14-1.128.42-.264.28-.396.68-.396 1.2v.348h3.132l-.084.096zM50.29 56v-6.6h4.74v.984h-3.66V56h-1.08zm6.69 0v-6.6h1.032V53c0 .232-.008.476-.024.732-.008.256-.024.5-.048.732a7.615 7.615 0 01-.06.576l2.663-5.64h1.38V56h-1.032v-3.6c0-.232.005-.476.012-.732.016-.256.036-.5.06-.732l.06-.588L58.362 56h-1.38zm10.913 0v-2.4a5.25 5.25 0 01-.588.096 8.757 8.757 0 01-.816.036c-.816.008-1.452-.188-1.908-.588-.448-.408-.672-.976-.672-1.704V49.4h1.08v2.04c0 .408.136.732.408.972.28.232.664.348 1.152.348.336 0 .62-.012.852-.036.24-.032.404-.06.492-.084V49.4h1.08V56h-1.08zm5.802.12c-.52 0-.976-.104-1.368-.312a2.258 2.258 0 01-.9-.876c-.208-.384-.312-.828-.312-1.332v-1.8c0-.512.104-.956.312-1.332.216-.376.516-.668.9-.876.392-.208.848-.312 1.368-.312.52 0 .972.104 1.356.312.392.208.692.5.9.876.216.376.324.82.324 1.332v1.164h-4.104v.636c0 .52.132.92.396 1.2.264.272.64.408 1.128.408.416 0 .752-.072 1.008-.216a.953.953 0 00.468-.672h1.08c-.072.552-.344.992-.816 1.32-.464.32-1.044.48-1.74.48zm1.524-3.876V51.8c0-.52-.132-.92-.396-1.2-.256-.28-.632-.42-1.128-.42-.488 0-.864.14-1.128.42-.264.28-.396.68-.396 1.2v.348h3.132l-.084.096zm5.622 3.876c-.528 0-.992-.1-1.392-.3a2.161 2.161 0 01-.912-.864c-.216-.384-.324-.836-.324-1.356v-1.8c0-.528.108-.98.324-1.356.216-.376.52-.664.912-.864.4-.2.864-.3 1.392-.3.76 0 1.372.204 1.836.612.464.408.708.964.732 1.668h-1.08c-.024-.424-.168-.748-.432-.972-.256-.232-.608-.348-1.056-.348-.472 0-.848.136-1.128.408-.28.264-.42.644-.42 1.14V53.6c0 .496.14.88.42 1.152.28.272.656.408 1.128.408.448 0 .8-.116 1.056-.348.264-.232.408-.556.432-.972h1.08c-.024.704-.268 1.26-.732 1.668-.464.408-1.076.612-1.836.612zm4.662-.12v-6.6h1.08v2.724h1.128l1.92-2.724h1.236l-2.22 3.144L90.904 56h-1.26l-1.92-2.94h-1.14V56h-1.08zm7.085 0v-6.6h1.032V53c0 .232-.008.476-.024.732-.008.256-.024.5-.048.732a7.615 7.615 0 01-.06.576l2.664-5.64h1.38V56H96.5v-3.6c0-.232.004-.476.012-.732.016-.256.036-.5.06-.732l.06-.588L93.97 56h-1.38zm7.122 0v-6.6h1.032V53c0 .232-.008.476-.024.732-.008.256-.024.5-.048.732a7.615 7.615 0 01-.06.576l2.664-5.64h1.38V56h-1.032v-3.6c0-.232.004-.476.012-.732.016-.256.036-.5.06-.732l.06-.588L101.091 56h-1.38zm2.52-7.68c-.576 0-1.04-.16-1.392-.48-.352-.32-.528-.74-.528-1.26h.852c0 .312.096.564.288.756.192.192.448.288.768.288.328 0 .588-.096.78-.288.2-.192.3-.444.3-.756h.852c0 .52-.176.94-.528 1.26-.352.32-.816.48-1.392.48zM113.955 56v-6.6h4.944V56h-1.08v-5.616h-2.784V56h-1.08zm9.594.096c-.528 0-.984-.1-1.368-.3a2.178 2.178 0 01-.9-.864c-.208-.384-.312-.836-.312-1.356v-1.752c0-.528.104-.98.312-1.356.216-.376.516-.664.9-.864.384-.2.84-.3 1.368-.3.528 0 .984.1 1.368.3.384.2.68.488.888.864.216.376.324.824.324 1.344v1.764c0 .52-.108.972-.324 1.356a2.103 2.103 0 01-.888.864c-.384.2-.84.3-1.368.3zm0-.96c.472 0 .84-.132 1.104-.396.264-.264.396-.652.396-1.164v-1.752c0-.512-.132-.9-.396-1.164-.264-.264-.632-.396-1.104-.396-.464 0-.832.132-1.104.396-.264.264-.396.652-.396 1.164v1.752c0 .512.132.9.396 1.164.272.264.64.396 1.104.396zm3.881 2.544v-2.604h.54c.136-.136.276-.404.42-.804.152-.4.232-.908.24-1.524l.072-3.348h4.308v5.676h.84v2.604h-.96V56h-4.5v1.68h-.96zm1.68-2.604h2.82V50.36h-2.208l-.048 2.412c-.008.632-.076 1.144-.204 1.536-.128.392-.248.648-.36.768zm5.682.924l2.34-3.396-2.196-3.204h1.272l1.308 2.04c.056.088.108.184.156.288.056.104.1.188.132.252.024-.064.06-.148.108-.252.056-.104.112-.2.168-.288l1.32-2.04h1.26l-2.196 3.216L140.792 56h-1.272l-1.416-2.16a3.356 3.356 0 01-.168-.3 2.599 2.599 0 00-.132-.288c-.032.072-.08.168-.144.288a2.125 2.125 0 01-.18.3L136.052 56h-1.26zm10.122.096c-.528 0-.984-.1-1.368-.3a2.178 2.178 0 01-.9-.864c-.208-.384-.312-.836-.312-1.356v-1.752c0-.528.104-.98.312-1.356.216-.376.516-.664.9-.864.384-.2.84-.3 1.368-.3.528 0 .984.1 1.368.3.384.2.68.488.888.864.216.376.324.824.324 1.344v1.764c0 .52-.108.972-.324 1.356a2.103 2.103 0 01-.888.864c-.384.2-.84.3-1.368.3zm0-.96c.472 0 .84-.132 1.104-.396.264-.264.396-.652.396-1.164v-1.752c0-.512-.132-.9-.396-1.164-.264-.264-.632-.396-1.104-.396-.464 0-.832.132-1.104.396-.264.264-.396.652-.396 1.164v1.752c0 .512.132.9.396 1.164.272.264.64.396 1.104.396zm3.882 2.544v-2.604h.54c.136-.136.276-.404.42-.804.152-.4.232-.908.24-1.524l.072-3.348h4.308v5.676h.84v2.604h-.96V56h-4.5v1.68h-.96zm1.68-2.604h2.82V50.36h-2.208l-.048 2.412c-.008.632-.076 1.144-.204 1.536-.128.392-.248.648-.36.768zm13.367.924v-6.6h1.08v2.724h1.128l1.92-2.724h1.236l-2.22 3.144L169.243 56h-1.26l-1.92-2.94h-1.14V56h-1.08zm9.558.096c-.528 0-.984-.1-1.368-.3a2.178 2.178 0 01-.9-.864c-.208-.384-.312-.836-.312-1.356v-1.752c0-.528.104-.98.312-1.356.216-.376.516-.664.9-.864.384-.2.84-.3 1.368-.3.528 0 .984.1 1.368.3.384.2.68.488.888.864.216.376.324.824.324 1.344v1.764c0 .52-.108.972-.324 1.356a2.103 2.103 0 01-.888.864c-.384.2-.84.3-1.368.3zm0-.96c.472 0 .84-.132 1.104-.396.264-.264.396-.652.396-1.164v-1.752c0-.512-.132-.9-.396-1.164-.264-.264-.632-.396-1.104-.396-.464 0-.832.132-1.104.396-.264.264-.396.652-.396 1.164v1.752c0 .512.132.9.396 1.164.272.264.64.396 1.104.396zm4.434.864v-6.6h1.464l.864 2.532c.088.256.168.512.24.768.072.248.124.44.156.576.032-.136.08-.328.144-.576.072-.256.148-.516.228-.78l.816-2.52h1.464V56h-1.044v-1.02c0-.36.004-.752.012-1.176l.024-1.284.048-1.224c.016-.392.028-.736.036-1.032l-1.176 3.756h-1.14l-1.188-3.732c.016.36.028.808.036 1.344.016.536.028 1.096.036 1.68.016.584.024 1.14.024 1.668V56h-1.044zm9.234.12c-.696 0-1.244-.176-1.644-.528-.4-.36-.6-.844-.6-1.452 0-.616.2-1.1.6-1.452.4-.352.94-.528 1.62-.528h2.04v-.66c0-.408-.124-.72-.372-.936-.24-.224-.584-.336-1.032-.336-.392 0-.72.084-.984.252-.264.16-.416.38-.456.66h-1.08c.072-.568.34-1.02.804-1.356.464-.336 1.044-.504 1.74-.504.76 0 1.36.196 1.8.588.44.392.66.924.66 1.596V56h-1.056v-1.26h-.18l.18-.18c0 .48-.188.86-.564 1.14-.368.28-.86.42-1.476.42zm.264-.852c.512 0 .932-.128 1.26-.384.328-.256.492-.584.492-.984v-.936h-2.016c-.36 0-.644.1-.852.3-.208.2-.312.472-.312.816 0 .368.124.66.372.876.256.208.608.312 1.056.312zm4.961.732v-6.6h1.08v2.748h2.784V49.4h1.08V56h-1.08v-2.868h-2.784V56h-1.08zm6.354 1.68v-2.604h.54c.136-.136.276-.404.42-.804.152-.4.232-.908.24-1.524l.072-3.348h4.308v5.676h.84v2.604h-.96V56h-4.5v1.68h-.96zm1.68-2.604h2.82V50.36h-2.208l-.048 2.412c-.008.632-.076 1.144-.204 1.536-.128.392-.248.648-.36.768zm13.116.924v-6.6h1.464l.864 2.532c.088.256.168.512.24.768.072.248.124.44.156.576.032-.136.08-.328.144-.576.072-.256.148-.516.228-.78l.816-2.52h1.464V56h-1.044v-1.02c0-.36.004-.752.012-1.176l.024-1.284.048-1.224c.016-.392.028-.736.036-1.032l-1.176 3.756h-1.14l-1.188-3.732c.016.36.028.808.036 1.344.016.536.028 1.096.036 1.68.016.584.024 1.14.024 1.668V56h-1.044zm9.809.096c-.528 0-.984-.1-1.368-.3a2.178 2.178 0 01-.9-.864c-.208-.384-.312-.836-.312-1.356v-1.752c0-.528.104-.98.312-1.356.216-.376.516-.664.9-.864.384-.2.84-.3 1.368-.3.528 0 .984.1 1.368.3.384.2.68.488.888.864.216.376.324.824.324 1.344v1.764c0 .52-.108.972-.324 1.356a2.103 2.103 0 01-.888.864c-.384.2-.84.3-1.368.3zm0-.96c.472 0 .84-.132 1.104-.396.264-.264.396-.652.396-1.164v-1.752c0-.512-.132-.9-.396-1.164-.264-.264-.632-.396-1.104-.396-.464 0-.832.132-1.104.396-.264.264-.396.652-.396 1.164v1.752c0 .512.132.9.396 1.164.272.264.64.396 1.104.396zm3.738.864l1.44-3.384-1.344-3.216h1.044l1.152 2.88h.636V49.4h.912v2.88h.612l1.188-2.88h1.032l-1.344 3.18 1.44 3.42h-1.08l-1.2-3h-.648v3h-.912v-3h-.648l-1.212 3h-1.068zm10.506.12c-.52 0-.976-.104-1.368-.312a2.258 2.258 0 01-.9-.876c-.208-.384-.312-.828-.312-1.332v-1.8c0-.512.104-.956.312-1.332.216-.376.516-.668.9-.876.392-.208.848-.312 1.368-.312.52 0 .972.104 1.356.312.392.208.692.5.9.876.216.376.324.82.324 1.332v1.164h-4.104v.636c0 .52.132.92.396 1.2.264.272.64.408 1.128.408.416 0 .752-.072 1.008-.216a.953.953 0 00.468-.672h1.08c-.072.552-.344.992-.816 1.32-.464.32-1.044.48-1.74.48zm1.524-3.876V51.8c0-.52-.132-.92-.396-1.2-.256-.28-.632-.42-1.128-.42-.488 0-.864.14-1.128.42-.264.28-.396.68-.396 1.2v.348h3.132l-.084.096zM244.079 56v-5.652h-2.4V49.4h5.88v.948h-2.4V56h-1.08zm12.311 0v-6.6h4.944V56h-1.08v-5.616h-2.784V56h-1.08zm7.098 2.16V49.4h1.08v1.26h.216l-.216.252c0-.504.164-.9.492-1.188.336-.296.776-.444 1.32-.444.664 0 1.192.22 1.584.66.4.432.6 1.028.6 1.788v1.932c0 .504-.092.94-.276 1.308a1.962 1.962 0 01-.756.852c-.32.2-.704.3-1.152.3-.536 0-.972-.148-1.308-.444-.336-.296-.504-.692-.504-1.188l.216.252h-.24l.024 1.5v1.92h-1.08zm2.532-2.976c.456 0 .812-.136 1.068-.408.264-.272.396-.664.396-1.176v-1.8c0-.512-.132-.904-.396-1.176-.256-.272-.612-.408-1.068-.408-.44 0-.792.14-1.056.42-.264.28-.396.668-.396 1.164v1.8c0 .496.132.884.396 1.164.264.28.616.42 1.056.42zm7.086.936c-.52 0-.976-.104-1.368-.312a2.258 2.258 0 01-.9-.876c-.208-.384-.312-.828-.312-1.332v-1.8c0-.512.104-.956.312-1.332.216-.376.516-.668.9-.876.392-.208.848-.312 1.368-.312.52 0 .972.104 1.356.312.392.208.692.5.9.876.216.376.324.82.324 1.332v1.164h-4.104v.636c0 .52.132.92.396 1.2.264.272.64.408 1.128.408.416 0 .752-.072 1.008-.216a.953.953 0 00.468-.672h1.08c-.072.552-.344.992-.816 1.32-.464.32-1.044.48-1.74.48zm1.524-3.876V51.8c0-.52-.132-.92-.396-1.2-.256-.28-.632-.42-1.128-.42-.488 0-.864.14-1.128.42-.264.28-.396.68-.396 1.2v.348h3.132l-.084.096zm5.598 3.852c-.528 0-.984-.1-1.368-.3a2.178 2.178 0 01-.9-.864c-.208-.384-.312-.836-.312-1.356v-1.752c0-.528.104-.98.312-1.356.216-.376.516-.664.9-.864.384-.2.84-.3 1.368-.3.528 0 .984.1 1.368.3.384.2.68.488.888.864.216.376.324.824.324 1.344v1.764c0 .52-.108.972-.324 1.356a2.103 2.103 0 01-.888.864c-.384.2-.84.3-1.368.3zm0-.96c.472 0 .84-.132 1.104-.396.264-.264.396-.652.396-1.164v-1.752c0-.512-.132-.9-.396-1.164-.264-.264-.632-.396-1.104-.396-.464 0-.832.132-1.104.396-.264.264-.396.652-.396 1.164v1.752c0 .512.132.9.396 1.164.272.264.64.396 1.104.396zm7.122.984c-.776 0-1.392-.228-1.848-.684-.448-.464-.672-1.096-.672-1.896v-3c0-1.056.264-1.868.792-2.436.528-.576 1.284-.864 2.268-.864h1.68v1.08h-1.68c-.648 0-1.14.192-1.476.576-.336.376-.504.924-.504 1.644v.78h.168l-.168.24c.008-.472.168-.84.48-1.104.312-.264.736-.396 1.272-.396.696 0 1.236.224 1.62.672.392.448.588 1.064.588 1.848v.96c0 .536-.1.996-.3 1.38-.2.384-.488.68-.864.888-.376.208-.828.312-1.356.312zm0-.96c.464 0 .82-.14 1.068-.42.248-.28.372-.68.372-1.2v-.96c0-.52-.124-.92-.372-1.2-.248-.28-.604-.42-1.068-.42-.464 0-.82.14-1.068.42-.248.272-.372.672-.372 1.2v.96c0 .52.124.92.372 1.2.248.28.604.42 1.068.42zm4.625 3V49.4h1.08v1.26h.216l-.216.252c0-.504.164-.9.492-1.188.336-.296.776-.444 1.32-.444.664 0 1.192.22 1.584.66.4.432.6 1.028.6 1.788v1.932c0 .504-.092.94-.276 1.308a1.962 1.962 0 01-.756.852c-.32.2-.704.3-1.152.3-.536 0-.972-.148-1.308-.444-.336-.296-.504-.692-.504-1.188l.216.252h-.24l.024 1.5v1.92h-1.08zm2.532-2.976c.456 0 .812-.136 1.068-.408.264-.272.396-.664.396-1.176v-1.8c0-.512-.132-.904-.396-1.176-.256-.272-.612-.408-1.068-.408-.44 0-.792.14-1.056.42-.264.28-.396.668-.396 1.164v1.8c0 .496.132.884.396 1.164.264.28.616.42 1.056.42zm6.51.936c-.696 0-1.244-.176-1.644-.528-.4-.36-.6-.844-.6-1.452 0-.616.2-1.1.6-1.452.4-.352.94-.528 1.62-.528h2.04v-.66c0-.408-.124-.72-.372-.936-.24-.224-.584-.336-1.032-.336-.392 0-.72.084-.984.252-.264.16-.416.38-.456.66h-1.08c.072-.568.34-1.02.804-1.356.464-.336 1.044-.504 1.74-.504.76 0 1.36.196 1.8.588.44.392.66.924.66 1.596V56h-1.056v-1.26h-.18l.18-.18c0 .48-.188.86-.564 1.14-.368.28-.86.42-1.476.42zm.264-.852c.512 0 .932-.128 1.26-.384.328-.256.492-.584.492-.984v-.936h-2.016c-.36 0-.644.1-.852.3-.208.2-.312.472-.312.816 0 .368.124.66.372.876.256.208.608.312 1.056.312zm7.122.816c-.696 0-1.268-.148-1.716-.444a1.764 1.764 0 01-.792-1.2h1.14c.056.2.204.364.444.492.248.128.556.192.924.192h.564c.392 0 .696-.092.912-.276a.887.887 0 00.336-.72c0-.32-.108-.572-.324-.756-.208-.184-.516-.276-.924-.276h-1.452v-.936h1.416c.368 0 .648-.088.84-.264a.9.9 0 00.288-.696c0-.2-.044-.368-.132-.504a.763.763 0 00-.372-.312 1.551 1.551 0 00-.612-.108h-.6c-.32 0-.596.072-.828.216-.232.144-.372.32-.42.528h-1.14c.08-.496.34-.904.78-1.224.44-.32.976-.48 1.608-.48h.6c.472 0 .876.076 1.212.228.336.144.592.352.768.624.184.272.276.596.276.972 0 .392-.128.716-.384.972-.256.248-.616.388-1.08.42v.048c.568.04.98.192 1.236.456s.384.644.384 1.14c0 .584-.216 1.048-.648 1.392-.432.344-1.012.516-1.74.516h-.564zm4.962-.084v-6.6h1.032V53c0 .232-.008.476-.024.732-.008.256-.024.5-.048.732a7.615 7.615 0 01-.06.576l2.664-5.64h1.38V56h-1.032v-3.6c0-.232.004-.476.012-.732.016-.256.036-.5.06-.732l.06-.588L314.745 56h-1.38zm9.053 0v-5.652h-2.4V49.4h5.88v.948h-2.4V56h-1.08zm5.238 0v-6.6h1.08v2.424h1.944c.744 0 1.328.188 1.752.564.432.368.648.876.648 1.524 0 .64-.216 1.148-.648 1.524-.432.376-1.016.564-1.752.564h-3.024zm1.08-.984h1.944c.416 0 .732-.092.948-.276.224-.192.336-.468.336-.828 0-.36-.112-.632-.336-.816-.216-.192-.532-.288-.948-.288h-1.944v2.208zM9.624 82.12c-.528 0-.992-.1-1.392-.3a2.161 2.161 0 01-.912-.864c-.216-.384-.324-.836-.324-1.356v-1.8c0-.528.108-.98.324-1.356.216-.376.52-.664.912-.864.4-.2.864-.3 1.392-.3.76 0 1.372.204 1.836.612.464.408.708.964.732 1.668h-1.08c-.024-.424-.168-.748-.432-.972-.256-.232-.608-.348-1.056-.348-.472 0-.848.136-1.128.408-.28.264-.42.644-.42 1.14V79.6c0 .496.14.88.42 1.152.28.272.656.408 1.128.408.448 0 .8-.116 1.056-.348.264-.232.408-.556.432-.972h1.08c-.024.704-.268 1.26-.732 1.668-.464.408-1.076.612-1.836.612zM14.25 82v-6.6h1.032V79c0 .232-.008.476-.024.732-.008.256-.024.5-.048.732a7.615 7.615 0 01-.06.576l2.664-5.64h1.38V82h-1.032v-3.6c0-.232.004-.476.012-.732.016-.256.036-.5.06-.732l.06-.588L15.63 82h-1.38zm9.054 0v-5.652h-2.4V75.4h5.88v.948h-2.4V82h-1.08zm6.197 2.16l.972-2.568-2.448-6.192h1.2l1.536 4.08c.056.136.108.3.156.492l.12.468.12-.468c.048-.192.096-.356.144-.492l1.44-4.08h1.164l-3.252 8.76h-1.152zm8.01-2.04c-.696 0-1.244-.176-1.644-.528-.4-.36-.6-.844-.6-1.452 0-.616.2-1.1.6-1.452.4-.352.94-.528 1.62-.528h2.04v-.66c0-.408-.124-.72-.372-.936-.24-.224-.584-.336-1.032-.336-.392 0-.72.084-.984.252-.264.16-.416.38-.456.66h-1.08c.072-.568.34-1.02.804-1.356.464-.336 1.044-.504 1.74-.504.76 0 1.36.196 1.8.588.44.392.66.924.66 1.596V82h-1.056v-1.26h-.18l.18-.18c0 .48-.188.86-.564 1.14-.368.28-.86.42-1.476.42zm.264-.852c.512 0 .932-.128 1.26-.384.328-.256.492-.584.492-.984v-.936h-2.016c-.36 0-.644.1-.852.3-.208.2-.312.472-.312.816 0 .368.124.66.372.876.256.208.608.312 1.056.312zm9.654 2.412V82h-4.692v-6.6h1.08v5.64h2.592V75.4h1.08v5.64h.9v2.64h-.96zm2.43-1.68v-6.6h1.032V79c0 .232-.008.476-.024.732-.008.256-.024.5-.048.732a7.615 7.615 0 01-.06.576l2.664-5.64h1.38V82H53.77v-3.6c0-.232.004-.476.012-.732.016-.256.036-.5.06-.732l.06-.588L51.239 82h-1.38zm10.625.12c-.552 0-.995-.188-1.331-.564-.337-.376-.505-.868-.505-1.476v-.996h-1.056V82h-.995v-6.6h.995v2.82h1.056v-.9c0-.616.164-1.108.492-1.476.337-.376.785-.564 1.344-.564.593 0 1.069.188 1.428.564.36.368.54.86.54 1.476v2.76c0 .608-.18 1.1-.54 1.476-.36.376-.835.564-1.428.564zm0-.84c.304 0 .54-.104.709-.312.175-.216.264-.512.264-.888v-2.76c0-.376-.089-.668-.264-.876-.168-.216-.404-.324-.709-.324-.296 0-.528.108-.696.324-.167.208-.252.5-.252.876v2.76c0 .376.084.672.252.888.169.208.4.312.697.312zm9.972 2.4v-2.604h.54c.136-.136.276-.404.42-.804.152-.4.232-.908.24-1.524l.072-3.348h4.308v5.676h.84v2.604h-.96V82h-4.5v1.68h-.96zm1.68-2.604h2.82V76.36h-2.208l-.048 2.412c-.008.632-.076 1.144-.204 1.536-.128.392-.248.648-.36.768zm8.106 1.044c-.696 0-1.244-.176-1.644-.528-.4-.36-.6-.844-.6-1.452 0-.616.2-1.1.6-1.452.4-.352.94-.528 1.62-.528h2.04v-.66c0-.408-.124-.72-.372-.936-.24-.224-.584-.336-1.032-.336-.392 0-.72.084-.984.252-.264.16-.416.38-.456.66h-1.08c.072-.568.34-1.02.804-1.356.464-.336 1.044-.504 1.74-.504.76 0 1.36.196 1.8.588.44.392.66.924.66 1.596V82h-1.056v-1.26h-.18l.18-.18c0 .48-.188.86-.564 1.14-.368.28-.86.42-1.476.42zm.264-.852c.512 0 .932-.128 1.26-.384.328-.256.492-.584.492-.984v-.936h-2.016c-.36 0-.644.1-.852.3-.208.2-.312.472-.312.816 0 .368.124.66.372.876.256.208.608.312 1.056.312zm4.05.732l1.44-3.384-1.344-3.216h1.044l1.152 2.88h.636V75.4h.912v2.88h.612l1.188-2.88h1.032l-1.344 3.18 1.44 3.42h-1.08l-1.2-3h-.648v3h-.912v-3h-.648l-1.212 3h-1.068zm10.505.12c-.52 0-.976-.104-1.368-.312a2.258 2.258 0 01-.9-.876c-.208-.384-.312-.828-.312-1.332v-1.8c0-.512.104-.956.312-1.332.216-.376.516-.668.9-.876.392-.208.848-.312 1.368-.312.52 0 .972.104 1.356.312.392.208.692.5.9.876.216.376.324.82.324 1.332v1.164h-4.104v.636c0 .52.132.92.396 1.2.264.272.64.408 1.128.408.416 0 .752-.072 1.008-.216a.953.953 0 00.468-.672h1.08c-.072.552-.344.992-.816 1.32-.464.32-1.044.48-1.74.48zm1.524-3.876V77.8c0-.52-.132-.92-.396-1.2-.256-.28-.632-.42-1.128-.42-.488 0-.864.14-1.128.42-.264.28-.396.68-.396 1.2v.348h3.132l-.084.096zM106.833 82v-6.6h4.944V82h-1.08v-5.616h-2.784V82h-1.08zm7.098 2.16V75.4h1.08v1.26h.216l-.216.252c0-.504.164-.9.492-1.188.336-.296.776-.444 1.32-.444.664 0 1.192.22 1.584.66.4.432.6 1.028.6 1.788v1.932c0 .504-.092.94-.276 1.308a1.962 1.962 0 01-.756.852c-.32.2-.704.3-1.152.3-.536 0-.972-.148-1.308-.444-.336-.296-.504-.692-.504-1.188l.216.252h-.24l.024 1.5v1.92h-1.08zm2.532-2.976c.456 0 .812-.136 1.068-.408.264-.272.396-.664.396-1.176v-1.8c0-.512-.132-.904-.396-1.176-.256-.272-.612-.408-1.068-.408-.44 0-.792.14-1.056.42-.264.28-.396.668-.396 1.164v1.8c0 .496.132.884.396 1.164.264.28.616.42 1.056.42zm4.614.816v-6.6h1.032V79c0 .232-.008.476-.024.732-.008.256-.024.5-.048.732a7.615 7.615 0 01-.06.576l2.664-5.64h1.38V82h-1.032v-3.6c0-.232.004-.476.012-.732.016-.256.036-.5.06-.732l.06-.588L122.457 82h-1.38zm16.715.096c-.528 0-.984-.1-1.368-.3a2.178 2.178 0 01-.9-.864c-.208-.384-.312-.836-.312-1.356v-1.752c0-.528.104-.98.312-1.356.216-.376.516-.664.9-.864.384-.2.84-.3 1.368-.3.528 0 .984.1 1.368.3.384.2.68.488.888.864.216.376.324.824.324 1.344v1.764c0 .52-.108.972-.324 1.356a2.103 2.103 0 01-.888.864c-.384.2-.84.3-1.368.3zm0-.96c.472 0 .84-.132 1.104-.396.264-.264.396-.652.396-1.164v-1.752c0-.512-.132-.9-.396-1.164-.264-.264-.632-.396-1.104-.396-.464 0-.832.132-1.104.396-.264.264-.396.652-.396 1.164v1.752c0 .512.132.9.396 1.164.272.264.64.396 1.104.396zm6.582.864v-5.652h-2.4V75.4h5.88v.948h-2.4V82h-1.08zm7.686.12c-.528 0-.992-.1-1.392-.3a2.161 2.161 0 01-.912-.864c-.216-.384-.324-.836-.324-1.356v-1.8c0-.528.108-.98.324-1.356.216-.376.52-.664.912-.864.4-.2.864-.3 1.392-.3.76 0 1.372.204 1.836.612.464.408.708.964.732 1.668h-1.08c-.024-.424-.168-.748-.432-.972-.256-.232-.608-.348-1.056-.348-.472 0-.848.136-1.128.408-.28.264-.42.644-.42 1.14V79.6c0 .496.14.88.42 1.152.28.272.656.408 1.128.408.448 0 .8-.116 1.056-.348.264-.232.408-.556.432-.972h1.08c-.024.704-.268 1.26-.732 1.668-.464.408-1.076.612-1.836.612zm5.633 2.04l.972-2.568-2.448-6.192h1.2l1.536 4.08c.056.136.108.3.156.492l.12.468.12-.468c.048-.192.096-.356.144-.492l1.44-4.08h1.164l-3.252 8.76h-1.152zm8.046-2.16v-5.652h-2.4V75.4h5.88v.948h-2.4V82h-1.08zm7.686.12c-.528 0-.992-.1-1.392-.3a2.161 2.161 0 01-.912-.864c-.216-.384-.324-.836-.324-1.356v-1.8c0-.528.108-.98.324-1.356.216-.376.52-.664.912-.864.4-.2.864-.3 1.392-.3.76 0 1.372.204 1.836.612.464.408.708.964.732 1.668h-1.08c-.024-.424-.168-.748-.432-.972-.256-.232-.608-.348-1.056-.348-.472 0-.848.136-1.128.408-.28.264-.42.644-.42 1.14V79.6c0 .496.14.88.42 1.152.28.272.656.408 1.128.408.448 0 .8-.116 1.056-.348.264-.232.408-.556.432-.972h1.08c-.024.704-.268 1.26-.732 1.668-.464.408-1.076.612-1.836.612zm6.558-.12v-5.652h-2.4V75.4h5.88v.948h-2.4V82h-1.08zm5.19 0v-6.6h2.856c.688 0 1.22.156 1.596.468.376.304.564.732.564 1.284 0 .456-.156.824-.468 1.104-.312.272-.724.408-1.236.408v-.096c.56 0 1.008.14 1.344.42.344.28.516.656.516 1.128 0 .592-.2 1.056-.6 1.392-.4.328-.96.492-1.68.492h-2.892zm1.056-.948h1.836c.384 0 .68-.084.888-.252.216-.168.324-.404.324-.708 0-.312-.108-.552-.324-.72-.208-.168-.504-.252-.888-.252h-1.836v1.932zm0-2.868h1.8c.336 0 .6-.08.792-.24.2-.16.3-.384.3-.672 0-.288-.096-.512-.288-.672-.192-.168-.46-.252-.804-.252h-1.8v1.836zM192.294 82v-6.6h1.032V79c0 .232-.008.476-.024.732-.008.256-.024.5-.048.732a7.615 7.615 0 01-.06.576l2.664-5.64h1.38V82h-1.032v-3.6c0-.232.004-.476.012-.732.016-.256.036-.5.06-.732l.06-.588L193.674 82h-1.38zm7.122 0v-6.6h1.032V79c0 .232-.008.476-.024.732-.008.256-.024.5-.048.732a7.615 7.615 0 01-.06.576l2.664-5.64h1.38V82h-1.032v-3.6c0-.232.004-.476.012-.732.016-.256.036-.5.06-.732l.06-.588L200.796 82h-1.38zm14.244 0v-6.6h4.944V82h-1.08v-5.616h-2.784V82h-1.08zm9.593.12c-.52 0-.976-.104-1.368-.312a2.258 2.258 0 01-.9-.876c-.208-.384-.312-.828-.312-1.332v-1.8c0-.512.104-.956.312-1.332.216-.376.516-.668.9-.876.392-.208.848-.312 1.368-.312.52 0 .972.104 1.356.312.392.208.692.5.9.876.216.376.324.82.324 1.332v1.164h-4.104v.636c0 .52.132.92.396 1.2.264.272.64.408 1.128.408.416 0 .752-.072 1.008-.216a.953.953 0 00.468-.672h1.08c-.072.552-.344.992-.816 1.32-.464.32-1.044.48-1.74.48zm1.524-3.876V77.8c0-.52-.132-.92-.396-1.2-.256-.28-.632-.42-1.128-.42-.488 0-.864.14-1.128.42-.264.28-.396.68-.396 1.2v.348h3.132l-.084.096zm3.102 5.916V75.4h1.08v1.26h.216l-.216.252c0-.504.164-.9.492-1.188.336-.296.776-.444 1.32-.444.664 0 1.192.22 1.584.66.4.432.6 1.028.6 1.788v1.932c0 .504-.092.94-.276 1.308a1.962 1.962 0 01-.756.852c-.32.2-.704.3-1.152.3-.536 0-.972-.148-1.308-.444-.336-.296-.504-.692-.504-1.188l.216.252h-.24l.024 1.5v1.92h-1.08zm2.532-2.976c.456 0 .812-.136 1.068-.408.264-.272.396-.664.396-1.176v-1.8c0-.512-.132-.904-.396-1.176-.256-.272-.612-.408-1.068-.408-.44 0-.792.14-1.056.42-.264.28-.396.668-.396 1.164v1.8c0 .496.132.884.396 1.164.264.28.616.42 1.056.42zm4.614.816v-6.6h2.856c.688 0 1.22.156 1.596.468.376.304.564.732.564 1.284 0 .456-.156.824-.468 1.104-.312.272-.724.408-1.236.408v-.096c.56 0 1.008.14 1.344.42.344.28.516.656.516 1.128 0 .592-.2 1.056-.6 1.392-.4.328-.96.492-1.68.492h-2.892zm1.056-.948h1.836c.384 0 .68-.084.888-.252.216-.168.324-.404.324-.708 0-.312-.108-.552-.324-.72-.208-.168-.504-.252-.888-.252h-1.836v1.932zm0-2.868h1.8c.336 0 .6-.08.792-.24.2-.16.3-.384.3-.672 0-.288-.096-.512-.288-.672-.192-.168-.46-.252-.804-.252h-1.8v1.836zm8.538 3.912c-.528 0-.984-.1-1.368-.3a2.178 2.178 0 01-.9-.864c-.208-.384-.312-.836-.312-1.356v-1.752c0-.528.104-.98.312-1.356.216-.376.516-.664.9-.864.384-.2.84-.3 1.368-.3.528 0 .984.1 1.368.3.384.2.68.488.888.864.216.376.324.824.324 1.344v1.764c0 .52-.108.972-.324 1.356a2.103 2.103 0 01-.888.864c-.384.2-.84.3-1.368.3zm0-.96c.472 0 .84-.132 1.104-.396.264-.264.396-.652.396-1.164v-1.752c0-.512-.132-.9-.396-1.164-.264-.264-.632-.396-1.104-.396-.464 0-.832.132-1.104.396-.264.264-.396.652-.396 1.164v1.752c0 .512.132.9.396 1.164.272.264.64.396 1.104.396zm4.65.864v-6.6h1.08v2.748h2.784V75.4h1.08V82h-1.08v-2.868h-2.784V82h-1.08zm9.017.12c-.696 0-1.244-.176-1.644-.528-.4-.36-.6-.844-.6-1.452 0-.616.2-1.1.6-1.452.4-.352.94-.528 1.62-.528h2.04v-.66c0-.408-.124-.72-.372-.936-.24-.224-.584-.336-1.032-.336-.392 0-.72.084-.984.252-.264.16-.416.38-.456.66h-1.08c.072-.568.34-1.02.804-1.356.464-.336 1.044-.504 1.74-.504.76 0 1.36.196 1.8.588.44.392.66.924.66 1.596V82h-1.056v-1.26h-.18l.18-.18c0 .48-.188.86-.564 1.14-.368.28-.86.42-1.476.42zm.264-.852c.512 0 .932-.128 1.26-.384.328-.256.492-.584.492-.984v-.936h-2.016c-.36 0-.644.1-.852.3-.208.2-.312.472-.312.816 0 .368.124.66.372.876.256.208.608.312 1.056.312zm8.754.732v-2.4a5.25 5.25 0 01-.588.096 8.757 8.757 0 01-.816.036c-.816.008-1.452-.188-1.908-.588-.448-.408-.672-.976-.672-1.704V75.4h1.08v2.04c0 .408.136.732.408.972.28.232.664.348 1.152.348.336 0 .62-.012.852-.036.24-.032.404-.06.492-.084V75.4h1.08V82h-1.08zm5.226.12c-.696 0-1.244-.176-1.644-.528-.4-.36-.6-.844-.6-1.452 0-.616.2-1.1.6-1.452.4-.352.94-.528 1.62-.528h2.04v-.66c0-.408-.124-.72-.372-.936-.24-.224-.584-.336-1.032-.336-.392 0-.72.084-.984.252-.264.16-.416.38-.456.66h-1.08c.072-.568.34-1.02.804-1.356.464-.336 1.044-.504 1.74-.504.76 0 1.36.196 1.8.588.44.392.66.924.66 1.596V82h-1.056v-1.26h-.18l.18-.18c0 .48-.188.86-.564 1.14-.368.28-.86.42-1.476.42zm.264-.852c.512 0 .932-.128 1.26-.384.328-.256.492-.584.492-.984v-.936h-2.016c-.36 0-.644.1-.852.3-.208.2-.312.472-.312.816 0 .368.124.66.372.876.256.208.608.312 1.056.312zm4.134.816v-1.008h.216c.368 0 .624-.144.768-.432.152-.288.232-.804.24-1.548l.072-3.696h4.476V82h-1.08v-5.616h-2.328l-.06 2.76c-.016.696-.096 1.26-.24 1.692-.136.432-.352.748-.648.948-.288.2-.668.3-1.14.3h-.276zm7.998-.084v-6.6h1.08v2.424h1.944c.744 0 1.328.188 1.752.564.432.368.648.876.648 1.524 0 .64-.216 1.148-.648 1.524-.432.376-1.016.564-1.752.564h-3.024zm1.08-.984h1.944c.416 0 .732-.092.948-.276.224-.192.336-.468.336-.828 0-.36-.112-.632-.336-.816-.216-.192-.532-.288-.948-.288h-1.944v2.208zm5.993.984v-6.6h1.08v2.748h2.784V75.4h1.08V82h-1.08v-2.868h-2.784V82h-1.08zm6.774 0v-6.6h1.008v2.424h.54c.712 0 1.272.188 1.68.564.416.368.624.876.624 1.524s-.208 1.16-.624 1.536c-.408.368-.968.552-1.68.552h-1.548zm1.008-.864h.54c.424 0 .752-.108.984-.324.24-.216.36-.516.36-.9s-.12-.684-.36-.9c-.232-.216-.56-.324-.984-.324h-.54v2.448zm3.624.864v-6.6h1.008V82h-1.008zm2.31 0l2.34-3.396-2.196-3.204h1.272l1.308 2.04c.056.088.108.184.156.288.056.104.1.188.132.252.024-.064.06-.148.108-.252.056-.104.112-.2.168-.288l1.32-2.04h1.26l-2.196 3.216L311.715 82h-1.272l-1.416-2.16a3.356 3.356 0 01-.168-.3 2.599 2.599 0 00-.132-.288c-.032.072-.08.168-.144.288a2.125 2.125 0 01-.18.3L306.975 82h-1.26zM7.128 109v-6.6h4.944v6.6h-1.08v-5.616H8.208V109h-1.08zm7.098 2.16v-8.76h1.08v1.26h.216l-.216.252c0-.504.164-.9.492-1.188.336-.296.776-.444 1.32-.444.664 0 1.192.22 1.584.66.4.432.6 1.028.6 1.788v1.932c0 .504-.092.94-.276 1.308a1.962 1.962 0 01-.756.852c-.32.2-.704.3-1.152.3-.536 0-.972-.148-1.308-.444-.336-.296-.504-.692-.504-1.188l.216.252h-.24l.024 1.5v1.92h-1.08zm2.532-2.976c.456 0 .812-.136 1.068-.408.264-.272.396-.664.396-1.176v-1.8c0-.512-.132-.904-.396-1.176-.256-.272-.612-.408-1.068-.408-.44 0-.792.14-1.056.42-.264.28-.396.668-.396 1.164v1.8c0 .496.132.884.396 1.164.264.28.616.42 1.056.42zm7.086.912c-.528 0-.984-.1-1.368-.3a2.178 2.178 0 01-.9-.864c-.208-.384-.312-.836-.312-1.356v-1.752c0-.528.104-.98.312-1.356.216-.376.516-.664.9-.864.384-.2.84-.3 1.368-.3.528 0 .984.1 1.368.3.384.2.68.488.888.864.216.376.324.824.324 1.344v1.764c0 .52-.108.972-.324 1.356a2.103 2.103 0 01-.888.864c-.384.2-.84.3-1.368.3zm0-.96c.472 0 .84-.132 1.104-.396.264-.264.396-.652.396-1.164v-1.752c0-.512-.132-.9-.396-1.164-.264-.264-.632-.396-1.104-.396-.464 0-.832.132-1.104.396-.264.264-.396.652-.396 1.164v1.752c0 .512.132.9.396 1.164.272.264.64.396 1.104.396zm3.881 2.544v-2.604h.54c.136-.136.276-.404.42-.804.152-.4.232-.908.24-1.524l.072-3.348h4.308v5.676h.84v2.604h-.96V109h-4.5v1.68h-.96zm1.68-2.604h2.82v-4.716h-2.208l-.048 2.412c-.008.632-.076 1.144-.204 1.536-.128.392-.248.648-.36.768zm8.106 1.044c-.696 0-1.244-.176-1.644-.528-.4-.36-.6-.844-.6-1.452 0-.616.2-1.1.6-1.452.4-.352.94-.528 1.62-.528h2.04v-.66c0-.408-.124-.72-.372-.936-.24-.224-.584-.336-1.032-.336-.392 0-.72.084-.984.252-.264.16-.416.38-.456.66h-1.08c.072-.568.34-1.02.804-1.356.464-.336 1.044-.504 1.74-.504.76 0 1.36.196 1.8.588.44.392.66.924.66 1.596V109h-1.056v-1.26h-.18l.18-.18c0 .48-.188.86-.564 1.14-.368.28-.86.42-1.476.42zm.264-.852c.512 0 .932-.128 1.26-.384.328-.256.492-.584.492-.984v-.936h-2.016c-.36 0-.644.1-.852.3-.208.2-.312.472-.312.816 0 .368.124.66.372.876.256.208.608.312 1.056.312zm4.05.732l1.44-3.384-1.344-3.216h1.044l1.152 2.88h.636v-2.88h.912v2.88h.612l1.188-2.88h1.032l-1.344 3.18 1.44 3.42h-1.08l-1.2-3h-.648v3h-.912v-3h-.648l-1.212 3h-1.068zm10.506.12c-.304 0-.548-.088-.732-.264-.176-.176-.264-.412-.264-.708 0-.312.088-.56.264-.744.184-.184.428-.276.732-.276s.544.092.72.276c.184.184.276.432.276.744 0 .296-.092.532-.276.708-.176.176-.416.264-.72.264z" fill="#000"/></svg>