<svg width="180" height="215" fill="none" xmlns="http://www.w3.org/2000/svg"><g filter="url(#filter0_d_441_1675)"><rect x="4" width="172" height="207" rx="16.011" fill="#6E6DC0"/></g><mask id="a" style="mask-type:alpha" maskUnits="userSpaceOnUse" x="4" y="0" width="172" height="43"><path fill="#C9D9CD" d="M4 0h171.961v42.27H4z"/></mask><g mask="url(#a)"><rect x="4" y="-1.69" width="171.961" height="118.355" rx="16.011" fill="#E0F4FF"/></g><path d="M19.73 58.646a1.12 1.12 0 01-.826-.326 1.12 1.12 0 01-.326-.827c0-.339.109-.614.326-.826a1.12 1.12 0 01.827-.326c.339 0 .614.109.826.326.218.212.326.487.326.826 0 .334-.108.609-.326.827-.212.218-.487.326-.826.326zm8.61 2.45c-.423 0-.788-.08-1.096-.24a1.697 1.697 0 01-.701-.692c-.16-.307-.24-.67-.24-1.085v-3.17c0-.423.08-.785.24-1.086.166-.301.4-.532.701-.692.308-.16.673-.24 1.096-.24.422 0 .784.08 1.085.24.308.16.541.39.701.692.167.3.25.66.25 1.076v3.18c0 .416-.083.778-.25 1.085-.16.301-.393.532-.701.692-.301.16-.663.24-1.085.24zm0-.778c.377 0 .666-.106.864-.317.205-.218.308-.525.308-.922v-3.17c0-.398-.103-.702-.308-.913-.198-.218-.487-.327-.864-.327-.372 0-.66.109-.865.327-.205.211-.308.515-.308.912v3.17c0 .398.103.705.308.923.205.211.493.317.864.317zm5.69.778c-.622 0-1.115-.182-1.48-.547-.359-.372-.538-.878-.538-1.518v-2.402c0-.846.211-1.495.634-1.95.422-.461 1.028-.692 1.815-.692h1.345v.865h-1.345c-.518 0-.912.153-1.181.46-.27.302-.404.74-.404 1.317v.624h.135l-.135.193c.007-.378.135-.673.385-.884.25-.212.589-.317 1.018-.317.557 0 .99.179 1.297.538.314.358.47.851.47 1.48v.768c0 .429-.08.797-.24 1.104-.16.308-.39.545-.691.711-.301.167-.663.25-1.086.25zm0-.768c.37 0 .656-.113.854-.337.199-.224.298-.544.298-.96v-.769c0-.416-.1-.736-.298-.96-.198-.225-.483-.337-.855-.337-.371 0-.656.112-.855.336-.198.218-.298.538-.298.961v.769c0 .416.1.736.298.96.199.224.484.337.855.337zm5.708.768a2.46 2.46 0 01-1.114-.24 1.73 1.73 0 01-.73-.692c-.173-.307-.26-.67-.26-1.085v-1.441c0-.423.087-.785.26-1.086a1.73 1.73 0 01.73-.692c.32-.16.691-.24 1.114-.24.608 0 1.098.163 1.47.49.371.327.567.772.586 1.336h-.865c-.019-.34-.134-.6-.346-.779-.205-.185-.486-.278-.845-.278-.378 0-.679.109-.903.326-.224.212-.336.516-.336.913v1.45c0 .398.112.705.336.923.224.218.525.327.903.327.359 0 .64-.093.845-.28.212-.185.327-.444.346-.777h.865c-.02.563-.215 1.008-.586 1.335-.372.327-.862.49-1.47.49zm4.498 1.633l.779-2.056-1.96-4.957h.96l1.23 3.267c.045.109.087.24.125.394l.096.374.096-.374a4.47 4.47 0 01.115-.394l1.153-3.267h.932L45.16 62.73h-.923zm4.268-.384V60.26h.433c.108-.109.22-.323.336-.643.121-.32.185-.727.192-1.22l.058-2.68h3.448v4.543h.673v2.085h-.769V61h-3.602v1.345h-.769zm1.345-2.085h2.258v-3.775h-1.768l-.038 1.93c-.007.507-.061.917-.164 1.23-.102.314-.198.52-.288.615zm4.96.74v-5.284h.826v2.882c0 .186-.006.381-.02.586-.006.205-.019.4-.038.586a6.1 6.1 0 01-.048.461l2.133-4.515h1.105V61h-.826v-2.882c0-.186.003-.381.01-.586.012-.205.028-.4.047-.586l.048-.47L55.913 61H54.81zm5.027.067v-.807h.172c.295 0 .5-.115.615-.346.122-.23.186-.643.192-1.239l.058-2.959h3.583V61h-.864v-4.496h-1.864l-.048 2.21c-.013.557-.077 1.008-.192 1.354-.109.346-.282.599-.519.76-.23.16-.535.24-.913.24h-.22zM66.188 61v-5.284h.826v2.882c0 .186-.006.381-.019.586-.006.205-.02.4-.038.586a6.1 6.1 0 01-.048.461l2.132-4.515h1.105V61h-.826v-2.882c0-.186.003-.381.01-.586.012-.205.028-.4.047-.586l.049-.47L67.293 61h-1.105zm15.136 1.345V61h-3.757v-5.284h.865v4.515h2.075v-4.515h.865v4.515h.72v2.114h-.768zm3.912-1.249c-.416 0-.781-.083-1.095-.25a1.807 1.807 0 01-.72-.701 2.203 2.203 0 01-.25-1.066v-1.441c0-.41.083-.766.25-1.067a1.8 1.8 0 01.72-.701 2.31 2.31 0 011.095-.25c.416 0 .778.084 1.086.25.313.166.554.4.72.701.173.301.26.657.26 1.067v.931h-3.286v.51c0 .416.106.736.317.96.211.218.512.327.903.327.333 0 .602-.058.807-.173a.764.764 0 00.375-.538h.864a1.472 1.472 0 01-.653 1.057c-.372.256-.836.384-1.393.384zm1.22-3.103v-.355c0-.417-.106-.737-.317-.961-.205-.224-.506-.336-.903-.336-.39 0-.692.112-.903.336-.211.224-.317.544-.317.96v.28h2.507l-.067.076zm1.828 3.074v-.807h.173c.294 0 .5-.115.615-.346.121-.23.185-.643.192-1.239l.057-2.959h3.584V61h-.865v-4.496h-1.864l-.048 2.21c-.013.557-.076 1.008-.192 1.354-.109.346-.282.599-.519.76-.23.16-.534.24-.912.24h-.221zM94.636 61v-5.284h.827v2.882c0 .186-.007.381-.02.586-.006.205-.019.4-.038.586-.013.18-.029.333-.048.461l2.133-4.515h1.104V61h-.826v-2.882c0-.186.003-.381.01-.586.013-.205.029-.4.048-.586l.048-.47L95.74 61h-1.105zm12.187 1.73l.778-2.057-1.96-4.957h.961l1.229 3.267c.045.109.087.24.125.394.039.147.071.272.096.374l.096-.374a4.4 4.4 0 01.116-.394l1.152-3.267h.932l-2.603 7.013h-.922zm7.918-1.73v-1.921a4.167 4.167 0 01-.471.077 7.084 7.084 0 01-.653.028c-.653.007-1.162-.15-1.527-.47-.359-.327-.538-.782-.538-1.365v-1.633h.864v1.633c0 .327.109.586.327.779.224.185.531.278.922.278.269 0 .496-.01.682-.029.192-.025.324-.048.394-.067v-2.594h.865V61h-.865zm4.172.096c-.557 0-.996-.14-1.316-.423-.321-.288-.481-.675-.481-1.162 0-.493.16-.88.481-1.163.32-.281.752-.422 1.297-.422h1.633v-.529c0-.326-.1-.576-.298-.749-.192-.18-.468-.269-.826-.269-.314 0-.577.067-.788.202a.718.718 0 00-.365.528h-.865c.058-.454.273-.816.644-1.085.371-.27.836-.404 1.393-.404.608 0 1.089.157 1.441.471.352.314.528.74.528 1.278V61h-.845v-1.009h-.144l.144-.144c0 .384-.151.689-.452.913-.294.224-.688.336-1.181.336zm.211-.682c.41 0 .746-.102 1.009-.307a.958.958 0 00.394-.788v-.75h-1.614c-.288 0-.516.08-.682.24-.167.16-.25.379-.25.654 0 .294.099.528.298.701.205.167.487.25.845.25zm5.959.682c-.423 0-.794-.08-1.115-.24a1.735 1.735 0 01-.73-.692c-.173-.307-.259-.67-.259-1.085v-1.441c0-.423.086-.785.259-1.086.173-.3.417-.532.73-.692.321-.16.692-.24 1.115-.24.608 0 1.098.163 1.47.49.371.327.566.772.586 1.336h-.865c-.019-.34-.134-.6-.346-.779-.205-.185-.487-.278-.845-.278-.378 0-.679.109-.903.326-.224.212-.336.516-.336.913v1.45c0 .398.112.705.336.923.224.218.525.327.903.327.358 0 .64-.093.845-.28.212-.185.327-.444.346-.777h.865c-.02.563-.215 1.008-.586 1.335-.372.327-.862.49-1.47.49zm5.238-.096v-4.525H128.4v-.759h4.707v.76h-1.921V61h-.865zm4.143 0v-5.284h.826v2.882c0 .186-.006.381-.019.586-.007.205-.019.4-.039.586-.012.18-.028.333-.048.461l2.133-4.515h1.105V61h-.826v-2.882c0-.186.003-.381.009-.586.013-.205.029-.4.048-.586l.048-.47L135.569 61h-1.105zm5.363 0l1.355-2.037c-.404-.096-.718-.281-.942-.557-.218-.275-.327-.618-.327-1.028 0-.519.17-.925.51-1.22.345-.294.816-.442 1.412-.442h2.277V61h-.865v-1.97h-1.162L140.836 61h-1.009zm2.008-2.738h1.412v-1.777h-1.412c-.32 0-.573.08-.759.24-.186.154-.279.371-.279.653 0 .276.093.493.279.654.186.153.439.23.759.23zM151.533 61v-5.284h2.286c.551 0 .977.125 1.278.375.301.243.452.586.452 1.028 0 .365-.125.66-.375.884-.25.217-.58.326-.99.326v-.077c.449 0 .807.113 1.076.337.276.224.413.525.413.903 0 .474-.16.845-.48 1.114-.32.263-.768.394-1.345.394h-2.315zm.845-.759h1.47c.308 0 .544-.067.711-.202.173-.134.259-.323.259-.567 0-.25-.086-.441-.259-.576-.167-.134-.403-.202-.711-.202h-1.47v1.547zm0-2.296h1.441c.269 0 .481-.064.634-.192a.651.651 0 00.241-.538c0-.23-.077-.41-.231-.538-.154-.135-.368-.202-.644-.202h-1.441v1.47zM26.361 80v-5.284h2.286c.55 0 .977.125 1.278.375.3.243.451.586.451 1.028 0 .365-.125.66-.375.884-.25.217-.58.326-.99.326v-.076c.45 0 .808.112 1.077.336.275.224.413.525.413.903 0 .474-.16.845-.48 1.114-.32.263-.769.394-1.345.394H26.36zm.845-.759h1.47c.307 0 .544-.067.71-.202.174-.134.26-.323.26-.567 0-.25-.087-.441-.26-.576-.166-.134-.403-.202-.71-.202h-1.47v1.547zm0-2.296h1.44c.27 0 .481-.064.635-.192.16-.128.24-.308.24-.538 0-.23-.077-.41-.23-.538-.154-.135-.369-.202-.644-.202h-1.441v1.47zM31.772 80v-5.284h.806v1.94h.433c.57 0 1.018.151 1.345.452.333.295.5.702.5 1.22 0 .52-.167.93-.5 1.23-.327.295-.775.442-1.345.442h-1.24zm.806-.692h.433c.34 0 .602-.086.788-.26.192-.172.288-.412.288-.72 0-.307-.096-.547-.288-.72-.186-.173-.449-.26-.788-.26h-.433v1.96zM35.48 80v-5.284h.807V80h-.807zm4.258.096a2.46 2.46 0 01-1.114-.24 1.73 1.73 0 01-.73-.692c-.173-.307-.26-.67-.26-1.085v-1.441c0-.423.087-.785.26-1.086a1.73 1.73 0 01.73-.692c.32-.16.691-.24 1.114-.24.608 0 1.098.163 1.47.49.371.327.567.772.586 1.335h-.865c-.019-.339-.134-.598-.346-.778-.205-.185-.486-.278-.845-.278-.378 0-.679.109-.903.326-.224.212-.336.516-.336.913v1.45c0 .398.112.705.336.923.224.218.525.326.903.326.359 0 .64-.092.845-.278.212-.186.327-.445.346-.778h.865c-.02.563-.215 1.008-.586 1.335-.372.327-.862.49-1.47.49zM44.976 80v-4.525h-1.921v-.759h4.707v.76h-1.921V80h-.865zm5.661.096c-.557 0-.996-.14-1.316-.423-.32-.288-.48-.675-.48-1.162 0-.493.16-.88.48-1.162.32-.282.752-.423 1.297-.423h1.633v-.529c0-.326-.1-.576-.298-.749-.192-.18-.467-.269-.826-.269-.314 0-.577.067-.788.202a.717.717 0 00-.365.528h-.864c.057-.454.272-.816.643-1.085.372-.27.836-.404 1.393-.404.609 0 1.089.157 1.441.471.352.314.528.74.528 1.278V80h-.845v-1.009h-.144l.144-.144c0 .385-.15.689-.451.913-.295.224-.689.336-1.182.336zm.211-.682c.41 0 .746-.103 1.009-.307a.957.957 0 00.394-.788v-.75h-1.614c-.288 0-.516.08-.682.24-.167.16-.25.379-.25.654 0 .294.1.528.298.701.205.167.487.25.845.25zm3.96.586v-5.284h2.287c.551 0 .977.125 1.278.375.3.243.451.586.451 1.028 0 .365-.124.66-.374.884-.25.217-.58.326-.99.326v-.076c.448 0 .807.112 1.076.336.276.224.413.525.413.903 0 .474-.16.845-.48 1.114-.32.263-.769.394-1.345.394h-2.315zm.846-.759h1.47c.307 0 .544-.067.71-.202.174-.134.26-.323.26-.567 0-.25-.086-.441-.26-.576-.166-.134-.403-.202-.71-.202h-1.47v1.547zm0-2.296h1.441c.27 0 .48-.064.634-.192.16-.128.24-.308.24-.538 0-.23-.077-.41-.23-.538-.154-.135-.368-.202-.644-.202h-1.44v1.47zM60.527 80v-5.284h.865v2.181h.903l1.537-2.18h.99l-1.778 2.516L64.85 80h-1.008l-1.538-2.354h-.912V80h-.865zm7.64.096c-.416 0-.781-.083-1.095-.25a1.807 1.807 0 01-.72-.701 2.204 2.204 0 01-.25-1.066v-1.441c0-.41.083-.766.25-1.067.172-.3.412-.534.72-.701a2.31 2.31 0 011.095-.25c.416 0 .778.084 1.086.25.313.166.554.4.72.701.173.301.26.657.26 1.067v.931h-3.286v.51c0 .416.106.736.317.96.211.218.512.327.903.327.333 0 .602-.058.807-.173a.763.763 0 00.375-.538h.864a1.472 1.472 0 01-.653 1.057c-.371.256-.836.384-1.393.384zm1.22-3.103v-.355c0-.417-.106-.737-.317-.961-.205-.224-.506-.336-.903-.336-.39 0-.692.112-.903.336-.211.224-.317.544-.317.96v.28h2.507l-.067.076zM77.567 80v-5.284h.827v2.882c0 .186-.007.381-.02.586-.006.205-.019.4-.038.586a6.1 6.1 0 01-.048.462l2.133-4.516h1.104V80H80.7v-2.882c0-.186.003-.381.01-.586.013-.205.029-.4.048-.586l.048-.47L78.672 80h-1.105zm13.359.077c-.423 0-.788-.08-1.096-.24a1.744 1.744 0 01-.72-.692c-.166-.307-.25-.67-.25-1.086v-1.402c0-.423.084-.785.25-1.086.173-.3.413-.531.72-.691.308-.16.673-.24 1.096-.24.422 0 .787.08 1.095.24.307.16.544.39.71.691.174.301.26.66.26 1.076v1.412c0 .417-.086.779-.26 1.086a1.683 1.683 0 01-.71.692c-.308.16-.673.24-1.095.24zm0-.769c.377 0 .672-.105.883-.317.212-.211.317-.522.317-.932v-1.402c0-.41-.105-.72-.317-.932-.21-.211-.505-.317-.883-.317-.372 0-.666.106-.884.317-.212.211-.317.522-.317.932v1.402c0 .41.106.72.317.932.218.212.512.317.884.317zm2.98.692l1.153-2.71-1.076-2.574h.836l.922 2.306h.51v-2.306h.73v2.306h.49l.95-2.306h.827l-1.076 2.546L99.324 80h-.864l-.96-2.402h-.52V80h-.73v-2.402h-.519L94.761 80h-.855zm6.42 0v-5.284h.826v2.882c0 .186-.006.381-.019.586a8.08 8.08 0 01-.038.586 6.36 6.36 0 01-.048.462l2.132-4.516h1.105V80h-.826v-2.882c0-.186.003-.381.009-.586.013-.205.029-.4.048-.586l.048-.47L101.431 80h-1.105zm5.075 1.345V79.26h.432c.109-.109.221-.323.336-.643.122-.32.186-.727.192-1.22l.058-2.68h3.449v4.543h.672v2.085h-.768V80h-3.603v1.345h-.768zm1.345-2.085h2.257v-3.775h-1.767l-.039 1.93c-.006.507-.061.917-.163 1.23-.103.314-.199.52-.288.615zm6.477.836c-.557 0-.996-.14-1.316-.423-.32-.288-.48-.675-.48-1.162 0-.493.16-.88.48-1.162.32-.282.753-.423 1.297-.423h1.633v-.529c0-.326-.099-.576-.298-.749-.192-.18-.467-.269-.826-.269-.314 0-.576.067-.788.202a.718.718 0 00-.365.528h-.864c.057-.454.272-.816.643-1.085.372-.27.836-.404 1.393-.404.609 0 1.089.157 1.441.471.353.314.529.74.529 1.278V80h-.846v-1.009h-.144l.144-.144c0 .385-.15.689-.451.913-.295.224-.689.336-1.182.336zm.212-.682c.409 0 .746-.103 1.008-.307a.956.956 0 00.394-.788v-.75h-1.614c-.288 0-.515.08-.682.24-.166.16-.25.379-.25.654 0 .294.1.528.298.701.205.167.487.25.846.25zm5.939.682c-.416 0-.781-.083-1.095-.25a1.806 1.806 0 01-.721-.701 2.21 2.21 0 01-.249-1.066v-1.441c0-.41.083-.766.249-1.067.173-.3.413-.534.721-.701a2.31 2.31 0 011.095-.25c.416 0 .778.084 1.086.25.313.166.554.4.72.701.173.301.259.657.259 1.067v.931h-3.285v.51c0 .416.106.736.317.96.211.218.512.327.903.327.333 0 .602-.058.807-.173a.764.764 0 00.375-.538h.864a1.469 1.469 0 01-.653 1.057c-.372.256-.836.384-1.393.384zm1.22-3.103v-.355c0-.417-.106-.737-.317-.961-.205-.224-.506-.336-.903-.336-.391 0-.692.112-.903.336-.211.224-.317.544-.317.96v.28h2.507l-.067.076zM122.912 80v-5.284h1.172l.691 2.027c.071.205.135.41.193.615.057.199.099.352.124.461.026-.109.064-.262.116-.46.057-.206.118-.414.182-.625l.653-2.018h1.173V80h-.836v-.817c0-.288.003-.602.009-.941l.02-1.028c.012-.346.025-.672.038-.98.013-.314.022-.59.029-.826l-.942 3.007h-.912l-.951-2.988c.012.288.022.647.028 1.076.013.43.023.878.029 1.345.013.468.019.913.019 1.335V80h-.835zm5.584 0v-5.284h.807v1.94h.432c.57 0 1.018.151 1.345.452.333.295.499.702.499 1.22 0 .52-.166.93-.499 1.23-.327.295-.775.442-1.345.442h-1.239zm.807-.692h.432c.339 0 .602-.086.788-.26.192-.172.288-.412.288-.72 0-.307-.096-.547-.288-.72-.186-.173-.449-.26-.788-.26h-.432v1.96zm2.901.692v-5.284h.807V80h-.807zm4.239.096c-.416 0-.781-.083-1.095-.25a1.806 1.806 0 01-.721-.701 2.21 2.21 0 01-.25-1.066v-1.441c0-.41.084-.766.25-1.067.173-.3.413-.534.721-.701a2.31 2.31 0 011.095-.25c.416 0 .778.084 1.085.25.314.166.554.4.721.701.173.301.259.657.259 1.067v.931h-3.285v.51c0 .416.106.736.317.96.211.218.512.327.903.327.333 0 .602-.058.807-.173a.764.764 0 00.375-.538h.864a1.469 1.469 0 01-.653 1.057c-.372.256-.836.384-1.393.384zm1.22-3.103v-.355c0-.417-.106-.737-.317-.961-.205-.224-.506-.336-.903-.336-.391 0-.692.112-.903.336-.211.224-.317.544-.317.96v.28h2.507l-.067.076zM26.341 100.73v-7.013h.865v1.009h.173l-.173.202c0-.404.131-.72.394-.951.269-.237.621-.356 1.056-.356.532 0 .955.176 1.269.529.32.345.48.823.48 1.431v1.547c0 .403-.074.752-.221 1.047a1.57 1.57 0 01-.605.682c-.256.16-.564.24-.922.24-.43 0-.779-.118-1.048-.355s-.403-.554-.403-.951l.173.201h-.192l.019 1.201v1.537h-.865zm2.027-2.382c.365 0 .65-.11.855-.327.212-.218.317-.531.317-.941v-1.441c0-.41-.105-.724-.317-.942-.205-.218-.49-.326-.855-.326-.352 0-.634.112-.845.336-.211.224-.317.535-.317.932v1.44c0 .398.106.708.317.932.211.225.493.337.845.337zm5.661.75a2.31 2.31 0 01-1.095-.25 1.807 1.807 0 01-.72-.702 2.203 2.203 0 01-.25-1.066v-1.441c0-.41.083-.766.25-1.067.172-.3.413-.534.72-.701a2.31 2.31 0 011.095-.25c.416 0 .778.084 1.086.25.313.166.554.4.72.701.173.301.26.657.26 1.067v.931h-3.286v.51c0 .416.106.736.317.96.211.218.513.327.903.327.333 0 .602-.058.807-.173a.764.764 0 00.375-.538h.864a1.472 1.472 0 01-.653 1.057c-.371.256-.836.384-1.393.384zm1.22-3.104v-.355c0-.417-.105-.737-.317-.961-.205-.224-.506-.336-.903-.336-.39 0-.692.112-.903.336-.211.224-.317.544-.317.96v.28h2.507l-.067.076zm4.22 3.074c-.557 0-1.015-.118-1.374-.355a1.412 1.412 0 01-.634-.96h.913c.045.16.163.29.355.393.199.103.445.154.74.154h.451c.314 0 .558-.074.73-.221a.71.71 0 00.27-.577c0-.256-.087-.458-.26-.605-.166-.147-.413-.22-.74-.22h-1.162v-.75h1.134c.294 0 .518-.07.672-.212a.72.72 0 00.23-.557.728.728 0 00-.105-.403.611.611 0 00-.298-.25 1.243 1.243 0 00-.49-.086h-.48c-.256 0-.477.057-.663.172-.186.116-.298.257-.336.423h-.913c.064-.397.272-.724.625-.98.352-.256.781-.384 1.287-.384h.48c.378 0 .702.06.97.183.27.115.474.281.615.5.148.217.221.476.221.777 0 .314-.102.574-.307.778-.205.199-.493.311-.865.337v.038c.455.032.785.154.99.365.205.212.307.516.307.913 0 .467-.173.839-.519 1.114-.345.276-.81.413-1.393.413h-.451zm4.767 1.662l.779-2.056-1.96-4.957h.96l1.23 3.267c.045.108.087.24.125.393l.096.375.096-.375a4.47 4.47 0 01.115-.393l1.153-3.267h.932l-2.603 7.013h-.923zm4.22-1.662v-.807h.173c.295 0 .5-.115.615-.346.122-.23.186-.643.192-1.239l.058-2.959h3.583V99h-.864v-4.496h-1.864l-.048 2.21c-.013.557-.077 1.008-.192 1.354-.11.346-.282.599-.52.76-.23.16-.534.24-.912.24h-.22zM54.847 99v-5.284h.865v1.94h1.556c.596 0 1.063.151 1.403.452.346.295.518.702.518 1.22 0 .513-.172.92-.518 1.22-.346.302-.814.452-1.403.452h-2.42zm.865-.788h1.556c.333 0 .586-.073.759-.22.18-.154.269-.375.269-.664 0-.288-.09-.505-.269-.653-.173-.153-.426-.23-.759-.23h-1.556v1.767zm6.333.788v-4.525h-1.921v-.759h4.707v.76H62.91V99h-.865zm5.66.096c-.556 0-.995-.14-1.315-.423-.32-.288-.48-.675-.48-1.162 0-.493.16-.88.48-1.162.32-.282.752-.423 1.297-.423h1.633v-.529c0-.326-.1-.576-.298-.749-.192-.18-.468-.269-.826-.269-.314 0-.576.067-.788.202a.718.718 0 00-.365.528h-.865c.058-.454.273-.816.644-1.085.372-.27.836-.404 1.393-.404.608 0 1.089.157 1.441.471.352.314.528.74.528 1.278V99h-.845v-1.009h-.144l.144-.144c0 .385-.15.689-.451.913-.295.224-.689.336-1.182.336zm.212-.682c.41 0 .746-.103 1.009-.307a.957.957 0 00.394-.788v-.75h-1.614c-.288 0-.516.08-.682.24-.167.16-.25.379-.25.654 0 .294.1.528.298.701.205.167.487.25.845.25zm5.507.586v-4.525h-1.92v-.759h4.706v.76h-1.92V99h-.865zm3.865 0v-5.284h.807v1.94h.432c.57 0 1.018.151 1.345.452.333.295.5.702.5 1.22 0 .52-.167.93-.5 1.23-.327.295-.775.442-1.345.442h-1.24zm.807-.692h.432c.34 0 .602-.086.788-.26.192-.172.288-.412.288-.72 0-.307-.096-.547-.288-.72-.186-.173-.448-.26-.788-.26h-.432v1.96zm2.901.692v-5.284h.807V99h-.807zm4.239.096c-.243 0-.439-.07-.586-.211-.14-.141-.211-.33-.211-.567 0-.25.07-.448.211-.596.147-.147.343-.22.586-.22.243 0 .435.073.576.22.148.148.221.346.221.596 0 .237-.073.426-.22.567-.142.14-.334.211-.577.211zm-65.505 17.55c-.333 0-.609-.109-.827-.326a1.12 1.12 0 01-.326-.826c0-.34.109-.615.326-.827.218-.217.494-.326.827-.326.339 0 .614.109.826.326.218.212.326.487.326.827 0 .333-.108.608-.326.826-.212.217-.487.326-.826.326zm8.608 2.45c-.422 0-.787-.08-1.095-.24a1.697 1.697 0 01-.701-.692c-.16-.307-.24-.669-.24-1.085v-3.171c0-.422.08-.784.24-1.085.166-.301.4-.532.701-.692.308-.16.673-.24 1.096-.24.422 0 .784.08 1.085.24.308.16.541.391.701.692.167.301.25.66.25 1.076v3.18c0 .416-.083.778-.25 1.085-.16.301-.393.532-.701.692-.301.16-.663.24-1.085.24zm0-.778c.378 0 .667-.106.865-.317.205-.218.308-.525.308-.922v-3.171c0-.397-.103-.701-.308-.912-.198-.218-.487-.327-.864-.327-.372 0-.66.109-.865.327-.205.211-.308.515-.308.912v3.171c0 .397.103.704.308.922.205.211.493.317.864.317zm3.711.682v-5.284h3.958V119h-.864v-4.496h-2.23V119h-.864zm5.67 1.729v-7.013h.865v1.009h.173l-.173.202c0-.404.132-.721.394-.951.27-.237.621-.356 1.057-.356.531 0 .954.176 1.268.529.32.345.48.823.48 1.431v1.547c0 .403-.073.752-.22 1.047a1.58 1.58 0 01-.606.682c-.256.16-.563.24-.922.24-.43 0-.778-.118-1.047-.355-.27-.237-.404-.554-.404-.951l.173.201h-.192l.02 1.201v1.537h-.865zm2.028-2.382c.365 0 .65-.109.855-.327.211-.218.317-.531.317-.941v-1.441c0-.41-.106-.724-.317-.942-.205-.218-.49-.326-.855-.326-.353 0-.634.112-.846.336-.211.224-.317.535-.317.932v1.441c0 .397.106.707.317.932.212.224.493.336.846.336zm5.66.749a2.3 2.3 0 01-1.095-.25 1.803 1.803 0 01-.72-.701 2.202 2.202 0 01-.25-1.066v-1.441c0-.41.083-.766.25-1.067a1.81 1.81 0 01.72-.701 2.3 2.3 0 011.095-.25c.417 0 .779.083 1.086.25.314.167.554.4.72.701.173.301.26.657.26 1.067v.931h-3.286v.51c0 .416.106.736.317.96.212.218.513.327.903.327.334 0 .602-.058.807-.173a.764.764 0 00.375-.538h.865a1.473 1.473 0 01-.654 1.057c-.371.256-.835.384-1.393.384zm1.22-3.103v-.355c0-.417-.105-.737-.316-.961-.206-.224-.506-.336-.904-.336-.39 0-.691.112-.903.336-.21.224-.317.544-.317.961v.278h2.508l-.067.077zm1.876 4.352v-2.085h.433c.108-.109.22-.323.336-.643.121-.321.185-.727.192-1.22l.058-2.681h3.448v4.544h.673v2.085h-.769V119h-3.602v1.345h-.769zm1.345-2.085h2.258v-3.775h-1.768l-.038 1.931c-.007.506-.061.916-.164 1.229-.102.314-.198.519-.288.615zm6.939.836c-.416 0-.782-.083-1.095-.25a1.803 1.803 0 01-.72-.701 2.203 2.203 0 01-.25-1.066v-1.441c0-.41.083-.766.25-1.067a1.81 1.81 0 01.72-.701c.313-.167.678-.25 1.095-.25.416 0 .778.083 1.085.25.314.167.554.4.72.701.174.301.26.657.26 1.067v.931h-3.285v.51c0 .416.105.736.317.96.211.218.512.327.903.327.333 0 .602-.058.807-.173a.764.764 0 00.374-.538h.865a1.473 1.473 0 01-.653 1.057c-.372.256-.836.384-1.393.384zm1.22-3.103v-.355c0-.417-.106-.737-.317-.961-.205-.224-.506-.336-.903-.336-.39 0-.692.112-.903.336-.212.224-.317.544-.317.961v.278h2.507l-.067.077zm1.828 3.074v-.807h.172c.295 0 .5-.115.615-.346.122-.23.186-.643.192-1.239l.058-2.959h3.583V119h-.864v-4.496h-1.864l-.048 2.21c-.013.557-.077 1.008-.192 1.354-.109.346-.282.599-.519.759-.23.16-.535.24-.913.24h-.22zm6.352-.067v-5.284h.826v2.882c0 .186-.006.381-.019.586a8.66 8.66 0 01-.038.586c-.013.18-.03.333-.048.461l2.132-4.515h1.105V119h-.826v-2.882c0-.186.003-.381.01-.586.012-.205.028-.4.047-.586l.049-.471L67.293 119h-1.105zm5.027.067v-.807h.173c.294 0 .5-.115.615-.346.121-.23.185-.643.192-1.239l.057-2.959h3.584V119h-.865v-4.496h-1.864l-.048 2.21c-.013.557-.076 1.008-.192 1.354-.109.346-.282.599-.519.759-.23.16-.534.24-.912.24h-.221zm6.352-.067v-5.284h.827v2.882c0 .186-.007.381-.02.586a8.055 8.055 0 01-.038.586c-.013.18-.029.333-.048.461l2.133-4.515h1.104V119H80.7v-2.882c0-.186.003-.381.01-.586.013-.205.029-.4.048-.586l.048-.471L78.672 119h-1.105zm11.409 0v-5.284h.864v2.181h.903l1.537-2.181h.99l-1.777 2.517L93.299 119h-1.01l-1.536-2.354h-.913V119h-.865zm4.998.067v-.807h.172c.295 0 .5-.115.615-.346.122-.23.186-.643.192-1.239l.058-2.959h3.583V119h-.864v-4.496h-1.864l-.048 2.21c-.013.557-.077 1.008-.192 1.354-.109.346-.282.599-.519.759-.23.16-.535.24-.913.24h-.22zm9.157.029c-.442 0-.797-.15-1.066-.451-.269-.301-.404-.695-.404-1.182v-.797h-.845V119h-.797v-5.284h.797v2.258h.845v-.721c0-.493.132-.887.394-1.181.269-.301.628-.452 1.076-.452.474 0 .855.151 1.143.452.289.294.433.688.433 1.181v2.21c0 .487-.144.881-.433 1.182-.288.301-.669.451-1.143.451zm0-.672c.244 0 .432-.084.567-.25.141-.173.211-.41.211-.711v-2.21c0-.301-.07-.534-.211-.701-.135-.173-.323-.259-.567-.259a.665.665 0 00-.557.259c-.135.167-.202.4-.202.701v2.21c0 .301.067.538.202.711.134.166.32.25.557.25zm5.92.576v-1.921a4.418 4.418 0 01-.47.077 7.106 7.106 0 01-.654.028c-.653.007-1.162-.15-1.527-.47-.359-.327-.538-.782-.538-1.365v-1.633h.865v1.633c0 .327.108.586.326.779.224.185.532.278.922.278.269 0 .497-.009.683-.029.192-.025.323-.048.393-.067v-2.594h.865V119h-.865zm4.633.096c-.416 0-.781-.083-1.095-.25a1.805 1.805 0 01-.72-.701 2.197 2.197 0 01-.25-1.066v-1.441c0-.41.083-.766.25-1.067.173-.301.413-.534.72-.701.314-.167.679-.25 1.095-.25.417 0 .778.083 1.086.25.314.167.554.4.72.701.173.301.26.657.26 1.067v.931h-3.286v.51c0 .416.106.736.317.96.212.218.513.327.903.327.333 0 .602-.058.807-.173a.765.765 0 00.375-.538h.865a1.474 1.474 0 01-.654 1.057c-.371.256-.836.384-1.393.384zm1.22-3.103v-.355c0-.417-.105-.737-.317-.961-.205-.224-.506-.336-.903-.336-.39 0-.691.112-.903.336-.211.224-.317.544-.317.961v.278h2.508l-.068.077zm2.491 3.007v-5.284h2.286c.551 0 .977.125 1.278.375.301.243.452.586.452 1.028 0 .365-.125.66-.375.884-.25.217-.58.326-.99.326v-.077c.449 0 .807.113 1.076.337.276.224.413.525.413.903 0 .474-.16.845-.48 1.114-.32.263-.768.394-1.345.394h-2.315zm.845-.759h1.47c.308 0 .545-.067.711-.202.173-.134.259-.323.259-.566 0-.25-.086-.442-.259-.577-.166-.134-.403-.202-.711-.202h-1.47v1.547zm0-2.296h1.441c.269 0 .481-.064.634-.192.161-.128.241-.307.241-.538 0-.231-.077-.41-.231-.538-.154-.135-.368-.202-.644-.202h-1.441v1.47zm4.566 3.055v-5.284h.807v1.941h.432c.57 0 1.019.15 1.345.451.333.295.5.702.5 1.22 0 .519-.167.929-.5 1.23-.326.295-.775.442-1.345.442h-1.239zm.807-.692h.432c.34 0 .602-.086.788-.259.192-.173.288-.413.288-.721 0-.307-.096-.547-.288-.72-.186-.173-.448-.259-.788-.259h-.432v1.959zm2.901.692v-5.284h.807V119h-.807zm4.239.096c-.416 0-.781-.083-1.095-.25a1.805 1.805 0 01-.72-.701 2.197 2.197 0 01-.25-1.066v-1.441c0-.41.083-.766.25-1.067.173-.301.413-.534.72-.701.314-.167.679-.25 1.095-.25.417 0 .778.083 1.086.25.314.167.554.4.72.701.173.301.26.657.26 1.067v.931h-3.286v.51c0 .416.106.736.317.96.212.218.513.327.903.327.333 0 .602-.058.807-.173a.765.765 0 00.375-.538h.864a1.47 1.47 0 01-.653 1.057c-.371.256-.836.384-1.393.384zm1.22-3.103v-.355c0-.417-.105-.737-.317-.961-.205-.224-.506-.336-.903-.336-.39 0-.691.112-.903.336-.211.224-.317.544-.317.961v.278h2.508l-.068.077zM26.36 138v-5.284h3.959V138h-.865v-4.496h-2.229V138h-.865zm7.67.077c-.424 0-.789-.08-1.096-.24a1.743 1.743 0 01-.72-.692c-.167-.307-.25-.669-.25-1.086v-1.402c0-.423.083-.785.25-1.086a1.74 1.74 0 01.72-.691c.307-.161.672-.241 1.095-.241.423 0 .788.08 1.095.241.308.16.545.39.711.691.173.301.26.66.26 1.076v1.412c0 .417-.087.779-.26 1.086a1.683 1.683 0 01-.71.692c-.308.16-.673.24-1.096.24zm0-.769c.377 0 .672-.105.883-.317.211-.211.317-.522.317-.932v-1.402c0-.41-.106-.721-.317-.932-.211-.211-.506-.317-.884-.317-.371 0-.666.106-.884.317-.211.211-.317.522-.317.932v1.402c0 .41.106.721.317.932.218.212.513.317.884.317zm3.739.692v-5.284h.864v2.181h.903l1.537-2.181h.99l-1.777 2.517L42.092 138h-1.01l-1.536-2.354h-.913V138h-.864zm7.178.096c-.557 0-.996-.141-1.316-.423-.32-.288-.48-.675-.48-1.162 0-.493.16-.881.48-1.162.32-.282.753-.423 1.297-.423h1.633v-.529c0-.326-.099-.576-.298-.749-.192-.179-.467-.269-.826-.269-.314 0-.576.067-.787.202a.717.717 0 00-.365.528h-.865c.057-.454.272-.816.643-1.085.372-.269.836-.404 1.393-.404.609 0 1.09.157 1.441.471.353.314.529.74.529 1.278V138h-.846v-1.009h-.144l.145-.144c0 .384-.151.689-.452.913-.295.224-.688.336-1.182.336zm.212-.682c.41 0 .746-.102 1.008-.307a.957.957 0 00.394-.788v-.75h-1.614c-.288 0-.515.081-.682.241-.166.16-.25.378-.25.653 0 .295.1.528.298.701.205.167.487.25.846.25zm5.69.653c-.558 0-1.016-.118-1.374-.355a1.412 1.412 0 01-.635-.961h.913c.045.16.163.292.356.394.198.102.445.154.74.154h.45c.315 0 .558-.074.73-.221a.712.712 0 00.27-.577c0-.256-.087-.458-.26-.605-.166-.147-.413-.221-.74-.221h-1.162v-.749h1.134c.295 0 .519-.071.672-.212a.718.718 0 00.231-.557.727.727 0 00-.106-.403.612.612 0 00-.297-.25 1.236 1.236 0 00-.49-.086h-.48c-.257 0-.478.057-.664.173-.185.115-.297.256-.336.422h-.913c.065-.397.273-.724.625-.98s.781-.384 1.287-.384h.48c.378 0 .702.061.97.183.27.115.475.281.616.499.147.218.22.477.22.778 0 .314-.102.573-.307.778-.205.199-.493.311-.864.337v.038c.454.032.784.154.99.365.204.211.307.516.307.913 0 .467-.173.839-.52 1.114-.345.276-.81.413-1.392.413h-.452zm5.478.029c-.558 0-.996-.141-1.316-.423-.32-.288-.48-.675-.48-1.162 0-.493.16-.881.48-1.162.32-.282.752-.423 1.296-.423h1.634v-.529c0-.326-.1-.576-.298-.749-.192-.179-.468-.269-.826-.269-.314 0-.577.067-.788.202a.717.717 0 00-.365.528h-.865c.058-.454.272-.816.644-1.085.371-.269.836-.404 1.393-.404.608 0 1.089.157 1.44.471.353.314.53.74.53 1.278V138h-.846v-1.009h-.144l.144-.144c0 .384-.15.689-.452.913-.294.224-.688.336-1.181.336zm.211-.682c.41 0 .746-.102 1.009-.307a.957.957 0 00.394-.788v-.75h-1.614c-.289 0-.516.081-.682.241-.167.16-.25.378-.25.653 0 .295.099.528.298.701.205.167.486.25.845.25zm5.507.586v-4.525h-1.921v-.759h4.707v.759H62.91V138h-.865zm6.122.096c-.416 0-.781-.083-1.095-.25a1.803 1.803 0 01-.72-.701 2.203 2.203 0 01-.25-1.066v-1.441c0-.41.083-.766.25-1.067a1.81 1.81 0 01.72-.701c.314-.167.679-.25 1.095-.25.416 0 .778.083 1.086.25.313.167.554.4.72.701.173.301.26.657.26 1.067v.931h-3.286v.51c0 .416.106.736.317.96.211.218.512.327.903.327.333 0 .602-.058.807-.173a.764.764 0 00.375-.538h.864a1.473 1.473 0 01-.653 1.057c-.371.256-.836.384-1.393.384zm1.22-3.103v-.355c0-.417-.106-.737-.317-.961-.205-.224-.506-.336-.903-.336-.39 0-.692.112-.903.336-.211.224-.317.544-.317.961v.278h2.507l-.067.077zm1.828 3.074v-.807h.173c.294 0 .5-.115.615-.346.121-.23.185-.643.192-1.239l.057-2.959h3.584V138h-.865v-4.496h-1.864l-.048 2.21c-.013.557-.076 1.008-.192 1.354-.109.346-.282.599-.519.759-.23.16-.534.24-.912.24h-.221zm6.352-.067v-5.284h.827v2.882c0 .186-.007.381-.02.586a8.055 8.055 0 01-.038.586c-.013.18-.029.333-.048.461l2.133-4.515h1.104V138H80.7v-2.882c0-.186.003-.381.01-.586.013-.205.029-.4.048-.586l.048-.471L78.672 138h-1.105zm12.187 1.729l.778-2.056-1.96-4.957h.96l1.23 3.267c.045.108.087.24.125.393.039.148.07.273.096.375l.096-.375c.039-.153.077-.285.116-.393l1.153-3.267h.931l-2.603 7.013h-.922zm6.88-1.633c-.422 0-.794-.08-1.114-.24a1.73 1.73 0 01-.73-.692c-.173-.307-.26-.669-.26-1.085v-1.441c0-.423.087-.785.26-1.086.173-.301.416-.531.73-.692.32-.16.692-.24 1.115-.24.608 0 1.098.164 1.47.49.37.327.566.772.585 1.336h-.864c-.02-.34-.135-.599-.346-.779-.205-.185-.487-.278-.846-.278-.377 0-.678.109-.903.326-.224.212-.336.516-.336.913v1.451c0 .397.112.704.337.922.224.218.525.327.903.327.358 0 .64-.093.845-.279.211-.186.327-.445.346-.778h.864c-.019.563-.214 1.008-.586 1.335-.371.327-.861.49-1.47.49zm3.692-.096v-5.284h3.958V138h-.865v-4.496h-2.228V138h-.865zm7.669.096c-.417 0-.782-.083-1.096-.25a1.805 1.805 0 01-.72-.701 2.197 2.197 0 01-.25-1.066v-1.441c0-.41.083-.766.25-1.067.173-.301.413-.534.72-.701.314-.167.679-.25 1.096-.25.416 0 .778.083 1.085.25.314.167.554.4.721.701.173.301.259.657.259 1.067v.931h-3.285v.51c0 .416.105.736.317.96.211.218.512.327.903.327.333 0 .602-.058.807-.173a.763.763 0 00.374-.538h.865a1.476 1.476 0 01-.653 1.057c-.372.256-.836.384-1.393.384zm1.22-3.103v-.355c0-.417-.106-.737-.317-.961-.205-.224-.506-.336-.903-.336-.391 0-.692.112-.903.336-.212.224-.317.544-.317.961v.278h2.507l-.067.077zm2.068 3.007l1.873-2.719-1.758-2.565h1.018l1.047 1.633c.045.071.087.148.125.231.045.083.08.151.106.202.019-.051.048-.119.086-.202.045-.083.09-.16.135-.231l1.057-1.633h1.008l-1.758 2.575 1.864 2.709h-1.018l-1.134-1.729a2.608 2.608 0 01-.134-.24 2.244 2.244 0 00-.106-.231 4.007 4.007 0 01-.115.231 1.813 1.813 0 01-.144.24L112.291 138h-1.008zm7.63.096c-.557 0-.996-.141-1.316-.423-.321-.288-.481-.675-.481-1.162 0-.493.16-.881.481-1.162.32-.282.752-.423 1.297-.423h1.633v-.529c0-.326-.1-.576-.298-.749-.192-.179-.468-.269-.826-.269-.314 0-.577.067-.788.202a.718.718 0 00-.365.528h-.865c.058-.454.273-.816.644-1.085s.836-.404 1.393-.404c.608 0 1.089.157 1.441.471.352.314.528.74.528 1.278V138h-.845v-1.009h-.144l.144-.144c0 .384-.151.689-.452.913-.294.224-.688.336-1.181.336zm.211-.682c.41 0 .746-.102 1.009-.307a.959.959 0 00.394-.788v-.75h-1.614c-.288 0-.516.081-.682.241-.167.16-.25.378-.25.653 0 .295.099.528.298.701.205.167.487.25.845.25zm5.94-3.353c-.237 0-.429-.064-.577-.192a.682.682 0 01-.221-.528c0-.218.074-.391.221-.519.148-.135.34-.202.577-.202.243 0 .435.067.576.202a.653.653 0 01.221.519.682.682 0 01-.221.528c-.141.128-.333.192-.576.192zm0 4.035c-.237 0-.429-.064-.577-.192a.684.684 0 01-.221-.528c0-.218.074-.391.221-.519.148-.135.34-.202.577-.202.243 0 .435.067.576.202a.653.653 0 01.221.519.684.684 0 01-.221.528c-.141.128-.333.192-.576.192zM26.389 157v-5.284h.865v2.181h.903l1.537-2.181h.99l-1.778 2.517L30.712 157h-1.008l-1.537-2.354h-.913V157h-.865zm7.64.077c-.423 0-.788-.08-1.095-.24a1.743 1.743 0 01-.72-.692c-.167-.307-.25-.669-.25-1.086v-1.402c0-.423.083-.785.25-1.086a1.74 1.74 0 01.72-.691c.307-.161.672-.241 1.095-.241.423 0 .788.08 1.095.241.308.16.545.39.711.691.173.301.26.66.26 1.076v1.412c0 .417-.087.779-.26 1.086a1.683 1.683 0 01-.71.692c-.308.16-.673.24-1.096.24zm0-.769c.378 0 .673-.105.884-.317.211-.211.317-.522.317-.932v-1.402c0-.41-.106-.721-.317-.932-.211-.211-.506-.317-.884-.317-.371 0-.666.106-.884.317-.211.211-.317.522-.317.932v1.402c0 .41.106.721.317.932.218.212.513.317.884.317zm3.048.759v-.807h.173c.294 0 .5-.115.615-.346.121-.23.185-.643.192-1.239l.057-2.959h3.584V157h-.865v-4.496H38.97l-.048 2.21c-.012.557-.076 1.008-.192 1.354-.109.346-.282.599-.518.759-.231.16-.535.24-.913.24h-.221zm6.352-.067v-5.284h.827v2.882c0 .186-.007.381-.02.586a8.055 8.055 0 01-.038.586c-.013.18-.029.333-.048.461l2.133-4.515h1.104V157h-.826v-2.882c0-.186.004-.381.01-.586.013-.205.029-.4.048-.586l.048-.471L44.534 157H43.43zm8.726 0v-1.921a4.51 4.51 0 01-.47.077 7.095 7.095 0 01-.654.028c-.653.007-1.163-.15-1.528-.47-.358-.327-.538-.782-.538-1.365v-1.633h.865v1.633c0 .327.109.586.327.779.224.185.531.278.922.278.269 0 .496-.009.682-.029a3.52 3.52 0 00.394-.067v-2.594h.864V157h-.864zm4.633.096c-.416 0-.782-.083-1.095-.25a1.803 1.803 0 01-.72-.701 2.203 2.203 0 01-.25-1.066v-1.441c0-.41.083-.766.25-1.067a1.81 1.81 0 01.72-.701c.313-.167.678-.25 1.095-.25.416 0 .778.083 1.085.25.314.167.554.4.72.701.174.301.26.657.26 1.067v.931h-3.285v.51c0 .416.105.736.317.96.211.218.512.327.903.327.333 0 .602-.058.807-.173a.764.764 0 00.374-.538h.865a1.473 1.473 0 01-.653 1.057c-.372.256-.836.384-1.393.384zm1.22-3.103v-.355c0-.417-.106-.737-.317-.961-.205-.224-.506-.336-.903-.336-.39 0-.692.112-.903.336-.212.224-.317.544-.317.961v.278h2.507l-.067.077zm4.489 3.103c-.423 0-.794-.08-1.115-.24a1.73 1.73 0 01-.73-.692c-.173-.307-.26-.669-.26-1.085v-1.441c0-.423.087-.785.26-1.086.173-.301.416-.531.73-.692.32-.16.692-.24 1.115-.24.608 0 1.098.164 1.47.49.37.327.566.772.585 1.336h-.864c-.02-.34-.135-.599-.346-.779-.205-.185-.487-.278-.845-.278-.378 0-.68.109-.903.326-.225.212-.337.516-.337.913v1.451c0 .397.112.704.337.922.224.218.525.327.903.327.358 0 .64-.093.845-.279.211-.186.327-.445.346-.778h.864c-.019.563-.214 1.008-.586 1.335-.371.327-.861.49-1.47.49zm5.238-.096v-4.525h-1.922v-.759h4.708v.759h-1.922V157h-.864zm4.143 0v-5.284h2.286c.55 0 .977.125 1.278.375.3.243.451.586.451 1.028 0 .365-.124.66-.374.884-.25.217-.58.326-.99.326v-.077c.449 0 .807.113 1.076.337.275.224.413.525.413.903 0 .474-.16.845-.48 1.114-.32.263-.769.394-1.345.394h-2.315zm.845-.759h1.47c.307 0 .544-.067.71-.202.174-.134.26-.323.26-.566 0-.25-.086-.442-.26-.577-.166-.134-.403-.202-.71-.202h-1.47v1.547zm0-2.296h1.441c.27 0 .48-.064.634-.192.16-.128.24-.307.24-.538 0-.231-.076-.41-.23-.538-.154-.135-.369-.202-.644-.202h-1.44v1.47zm6.823 3.132c-.422 0-.787-.08-1.095-.24a1.744 1.744 0 01-.72-.692c-.167-.307-.25-.669-.25-1.086v-1.402c0-.423.083-.785.25-1.086.173-.301.413-.531.72-.691.308-.161.673-.241 1.095-.241.423 0 .788.08 1.095.241.308.16.545.39.711.691.173.301.26.66.26 1.076v1.412c0 .417-.087.779-.26 1.086a1.683 1.683 0 01-.71.692c-.308.16-.673.24-1.096.24zm0-.769c.378 0 .673-.105.884-.317.211-.211.317-.522.317-.932v-1.402c0-.41-.106-.721-.317-.932-.211-.211-.506-.317-.884-.317-.371 0-.666.106-.884.317-.21.211-.317.522-.317.932v1.402c0 .41.106.721.317.932.218.212.513.317.884.317zm11.399.788a2.46 2.46 0 01-1.114-.24 1.73 1.73 0 01-.73-.692c-.174-.307-.26-.669-.26-1.085v-1.441c0-.423.087-.785.26-1.086a1.73 1.73 0 01.73-.692c.32-.16.691-.24 1.114-.24.608 0 1.098.164 1.47.49.371.327.566.772.586 1.336h-.865c-.02-.34-.134-.599-.346-.779-.205-.185-.487-.278-.845-.278-.378 0-.679.109-.903.326-.224.212-.336.516-.336.913v1.451c0 .397.112.704.336.922.224.218.525.327.903.327.359 0 .64-.093.845-.279.212-.186.327-.445.346-.778h.865c-.02.563-.215 1.008-.586 1.335-.372.327-.862.49-1.47.49zm5.67-.019c-.422 0-.787-.08-1.095-.24a1.743 1.743 0 01-.72-.692c-.167-.307-.25-.669-.25-1.086v-1.402c0-.423.083-.785.25-1.086a1.74 1.74 0 01.72-.691c.308-.161.673-.241 1.095-.241.423 0 .788.08 1.096.241.307.16.544.39.71.691.173.301.26.66.26 1.076v1.412c0 .417-.087.779-.26 1.086a1.683 1.683 0 01-.71.692c-.308.16-.673.24-1.096.24zm0-.769c.378 0 .673-.105.884-.317.212-.211.317-.522.317-.932v-1.402c0-.41-.106-.721-.317-.932-.211-.211-.506-.317-.884-.317-.371 0-.666.106-.883.317-.212.211-.317.522-.317.932v1.402c0 .41.105.721.316.932.218.212.513.317.884.317zm5.69.788c-.621 0-1.114-.182-1.479-.548-.359-.371-.538-.877-.538-1.517v-2.402c0-.845.211-1.496.634-1.95.422-.461 1.028-.692 1.815-.692h1.345v.865h-1.345c-.518 0-.912.153-1.181.461-.269.301-.404.74-.404 1.316v.624h.135l-.135.193c.007-.378.135-.673.384-.884.25-.212.59-.317 1.019-.317.557 0 .989.179 1.297.538.313.358.47.851.47 1.479v.769c0 .429-.08.797-.24 1.104-.16.308-.39.545-.691.711-.301.167-.663.25-1.086.25zm0-.768c.371 0 .656-.113.855-.337.199-.224.298-.544.298-.96v-.769c0-.416-.099-.736-.298-.961-.199-.224-.484-.336-.855-.336s-.656.112-.855.336c-.199.218-.298.538-.298.961v.769c0 .416.099.736.298.96.199.224.484.337.855.337zm3.691 2.401v-7.013h.865v1.009h.173l-.173.202c0-.404.131-.721.394-.951.269-.237.621-.356 1.057-.356.531 0 .954.176 1.268.529.32.345.48.823.48 1.431v1.547c0 .403-.074.752-.221 1.047a1.577 1.577 0 01-.605.682c-.256.16-.564.24-.922.24-.429 0-.778-.118-1.047-.355-.269-.237-.404-.554-.404-.951l.173.201h-.192l.019 1.201v1.537h-.865zm2.027-2.382c.366 0 .651-.109.855-.327.212-.218.317-.531.317-.941v-1.441c0-.41-.105-.724-.317-.942-.204-.218-.489-.326-.855-.326-.352 0-.634.112-.845.336-.211.224-.317.535-.317.932v1.441c0 .397.106.707.317.932.211.224.493.336.845.336zm5.2.749c-.557 0-.996-.141-1.316-.423-.32-.288-.48-.675-.48-1.162 0-.493.16-.881.48-1.162.32-.282.753-.423 1.297-.423h1.633v-.529c0-.326-.099-.576-.298-.749-.192-.179-.467-.269-.826-.269-.314 0-.576.067-.788.202a.718.718 0 00-.365.528h-.864c.057-.454.272-.816.643-1.085.372-.269.836-.404 1.393-.404.609 0 1.089.157 1.441.471.353.314.529.74.529 1.278V157h-.846v-1.009h-.144l.144-.144c0 .384-.15.689-.451.913-.295.224-.689.336-1.182.336zm.212-.682c.409 0 .746-.102 1.008-.307a.956.956 0 00.394-.788v-.75h-1.614c-.288 0-.515.081-.682.241-.166.16-.25.378-.25.653 0 .295.1.528.298.701.205.167.487.25.846.25zm3.96.586v-5.284h.865v2.2h2.228v-2.2h.865V157h-.865v-2.296h-2.228V157h-.865zm5.69 0v-5.284h.864v2.2h2.229v-2.2h.865V157h-.865v-2.296h-2.229V157h-.864zm5.411 0v-5.284h.807v1.941h.432c.57 0 1.018.15 1.345.451.333.295.499.702.499 1.22 0 .519-.166.929-.499 1.23-.327.295-.775.442-1.345.442h-1.239zm.807-.692h.432c.339 0 .602-.086.788-.259.192-.173.288-.413.288-.721 0-.307-.096-.547-.288-.72-.186-.173-.449-.259-.788-.259h-.432v1.959zm2.901.692v-5.284h.807V157h-.807zm1.837 0l1.874-2.719-1.758-2.565h1.018l1.047 1.633c.045.071.086.148.125.231.045.083.08.151.106.202.019-.051.048-.119.086-.202.045-.083.09-.16.134-.231l1.057-1.633h1.009l-1.758 2.575 1.864 2.709h-1.019l-1.133-1.729a2.86 2.86 0 01-.135-.24 2.068 2.068 0 00-.105-.231 4.14 4.14 0 01-.116.231 1.813 1.813 0 01-.144.24L135.05 157h-1.009zM26.389 176v-5.284h.865v2.181h.903l1.537-2.181h.99l-1.778 2.517L30.712 176h-1.008l-1.537-2.354h-.913V176h-.865zm7.64.077c-.423 0-.788-.08-1.095-.24a1.743 1.743 0 01-.72-.692c-.167-.307-.25-.669-.25-1.086v-1.402c0-.423.083-.785.25-1.086a1.74 1.74 0 01.72-.691c.307-.161.672-.241 1.095-.241.423 0 .788.08 1.095.241.308.16.545.39.711.691.173.301.26.66.26 1.076v1.412c0 .417-.087.779-.26 1.086a1.683 1.683 0 01-.71.692c-.308.16-.673.24-1.096.24zm0-.769c.378 0 .673-.105.884-.317.211-.211.317-.522.317-.932v-1.402c0-.41-.106-.721-.317-.932-.211-.211-.506-.317-.884-.317-.371 0-.666.106-.884.317-.211.211-.317.522-.317.932v1.402c0 .41.106.721.317.932.218.212.513.317.884.317zm3.71.692v-5.284h.865v2.2h2.23v-2.2h.864V176h-.865v-2.296h-2.229V176h-.864zm7.237 0v-4.525h-1.921v-.759h4.707v.759h-1.921V176h-.865zm5.661.096c-.557 0-.996-.141-1.316-.423-.32-.288-.48-.675-.48-1.162 0-.493.16-.881.48-1.162.32-.282.752-.423 1.297-.423h1.633v-.529c0-.326-.1-.576-.298-.749-.192-.179-.467-.269-.826-.269-.314 0-.577.067-.788.202a.717.717 0 00-.365.528h-.864c.057-.454.272-.816.643-1.085.372-.269.836-.404 1.393-.404.609 0 1.089.157 1.441.471.352.314.528.74.528 1.278V176h-.845v-1.009h-.144l.144-.144c0 .384-.15.689-.451.913-.295.224-.689.336-1.182.336zm.211-.682c.41 0 .746-.102 1.009-.307a.957.957 0 00.394-.788v-.75h-1.614c-.288 0-.516.081-.682.241-.167.16-.25.378-.25.653 0 .295.1.528.298.701.205.167.487.25.845.25zm3.99.586v-5.284h.864v2.181h.903l1.537-2.181h.99l-1.777 2.517L59.16 176h-1.01l-1.536-2.354h-.913V176h-.864zm7.207 0v-4.525h-1.921v-.759h4.707v.759H62.91V176h-.865zm6.122.077c-.423 0-.788-.08-1.095-.24a1.744 1.744 0 01-.72-.692c-.167-.307-.25-.669-.25-1.086v-1.402c0-.423.083-.785.25-1.086.172-.301.412-.531.72-.691.307-.161.672-.241 1.095-.241.423 0 .788.08 1.095.241.308.16.545.39.711.691.173.301.26.66.26 1.076v1.412c0 .417-.087.779-.26 1.086a1.683 1.683 0 01-.71.692c-.308.16-.673.24-1.096.24zm0-.769c.378 0 .672-.105.884-.317.211-.211.317-.522.317-.932v-1.402c0-.41-.106-.721-.317-.932-.212-.211-.506-.317-.884-.317-.371 0-.666.106-.884.317-.211.211-.317.522-.317.932v1.402c0 .41.106.721.317.932.218.212.513.317.884.317zm3.71.692v-5.284h2.287c.55 0 .977.125 1.278.375.3.243.451.586.451 1.028 0 .365-.124.66-.374.884-.25.217-.58.326-.99.326v-.077c.449 0 .807.113 1.076.337.275.224.413.525.413.903 0 .474-.16.845-.48 1.114-.32.263-.769.394-1.345.394h-2.315zm.846-.759h1.47c.307 0 .544-.067.71-.202.174-.134.26-.323.26-.566 0-.25-.086-.442-.26-.577-.166-.134-.403-.202-.71-.202h-1.47v1.547zm0-2.296h1.441c.27 0 .48-.064.634-.192.16-.128.24-.307.24-.538 0-.231-.076-.41-.23-.538-.154-.135-.369-.202-.644-.202h-1.44v1.47zM83.257 176v-5.284h.826v2.882c0 .186-.006.381-.019.586a8.66 8.66 0 01-.038.586c-.013.18-.03.333-.048.461l2.132-4.515h1.105V176h-.826v-2.882c0-.186.003-.381.01-.586.012-.205.028-.4.047-.586l.049-.471L84.362 176h-1.105zm11.38 0v-5.284h3.957V176h-.864v-4.496H95.5V176h-.864zm7.668.077c-.423 0-.788-.08-1.095-.24a1.742 1.742 0 01-.721-.692c-.166-.307-.249-.669-.249-1.086v-1.402c0-.423.083-.785.249-1.086a1.74 1.74 0 01.721-.691c.307-.161.672-.241 1.095-.241.423 0 .788.08 1.095.241.308.16.545.39.711.691.173.301.259.66.259 1.076v1.412c0 .417-.086.779-.259 1.086a1.677 1.677 0 01-.711.692c-.307.16-.672.24-1.095.24zm0-.769c.378 0 .672-.105.884-.317.211-.211.317-.522.317-.932v-1.402c0-.41-.106-.721-.317-.932-.212-.211-.506-.317-.884-.317-.371 0-.666.106-.884.317-.211.211-.317.522-.317.932v1.402c0 .41.106.721.317.932.218.212.513.317.884.317zm3.096 2.037v-2.085h.432c.109-.109.221-.323.336-.643.122-.321.186-.727.192-1.22l.058-2.681h3.449v4.544h.672v2.085h-.768V176h-3.603v1.345h-.768zm1.345-2.085h2.257v-3.775h-1.767l-.039 1.931c-.006.506-.061.916-.163 1.229-.103.314-.199.519-.288.615zm4.959.74v-5.284h3.958V176h-.864v-4.496h-2.229V176h-.865zm5.69 0v-5.284h.826v2.882c0 .186-.006.381-.019.586a8.055 8.055 0 01-.038.586c-.013.18-.029.333-.049.461l2.133-4.515h1.105V176h-.826v-2.882c0-.186.003-.381.009-.586.013-.205.029-.4.048-.586l.048-.471L118.5 176h-1.105zm7.688.096c-.423 0-.794-.08-1.115-.24a1.735 1.735 0 01-.73-.692c-.173-.307-.259-.669-.259-1.085v-1.441c0-.423.086-.785.259-1.086.173-.301.417-.531.73-.692.321-.16.692-.24 1.115-.24.608 0 1.098.164 1.47.49.371.327.566.772.586 1.336h-.865c-.019-.34-.134-.599-.346-.779-.205-.185-.487-.278-.845-.278-.378 0-.679.109-.903.326-.224.212-.336.516-.336.913v1.451c0 .397.112.704.336.922.224.218.525.327.903.327.358 0 .64-.093.845-.279.212-.186.327-.445.346-.778h.865c-.02.563-.215 1.008-.586 1.335-.372.327-.862.49-1.47.49zm6.727-.096v-1.921a4.401 4.401 0 01-.471.077 7.084 7.084 0 01-.653.028c-.653.007-1.162-.15-1.527-.47-.359-.327-.538-.782-.538-1.365v-1.633h.864v1.633c0 .327.109.586.327.779.224.185.531.278.922.278.269 0 .496-.009.682-.029.192-.025.324-.048.394-.067v-2.594h.865V176h-.865zm2.654 0v-5.284h.826v2.882c0 .186-.006.381-.019.586a8.038 8.038 0 01-.039.586c-.012.18-.028.333-.048.461l2.133-4.515h1.105V176h-.826v-2.882c0-.186.003-.381.009-.586.013-.205.029-.4.048-.586l.048-.471-2.132 4.525h-1.105zm5.718 0v-5.284h.865v2.181h.903l1.537-2.181h.99l-1.778 2.517 1.806 2.767h-1.008l-1.537-2.354h-.913V176h-.865zm7.64.077c-.422 0-.788-.08-1.095-.24a1.74 1.74 0 01-.72-.692c-.167-.307-.25-.669-.25-1.086v-1.402c0-.423.083-.785.25-1.086.172-.301.413-.531.72-.691.307-.161.673-.241 1.095-.241.423 0 .788.08 1.095.241.308.16.545.39.711.691.173.301.26.66.26 1.076v1.412c0 .417-.087.779-.26 1.086a1.677 1.677 0 01-.711.692c-.307.16-.672.24-1.095.24zm0-.769c.378 0 .673-.105.884-.317.211-.211.317-.522.317-.932v-1.402c0-.41-.106-.721-.317-.932-.211-.211-.506-.317-.884-.317-.371 0-.666.106-.884.317-.211.211-.317.522-.317.932v1.402c0 .41.106.721.317.932.218.212.513.317.884.317zm3.711.692v-5.284h2.286c.551 0 .977.125 1.278.375.301.243.452.586.452 1.028 0 .365-.125.66-.375.884-.25.217-.58.326-.99.326v-.077c.449 0 .807.113 1.076.337.276.224.413.525.413.903 0 .474-.16.845-.48 1.114-.32.263-.768.394-1.345.394h-2.315zm.845-.759h1.47c.308 0 .544-.067.711-.202.173-.134.259-.323.259-.566 0-.25-.086-.442-.259-.577-.167-.134-.403-.202-.711-.202h-1.47v1.547zm0-2.296h1.441c.269 0 .481-.064.634-.192a.65.65 0 00.241-.538c0-.231-.077-.41-.231-.538-.154-.135-.368-.202-.644-.202h-1.441v1.47zM26.389 196v-5.284h.865v2.181h.903l1.537-2.181h.99l-1.778 2.517L30.712 196h-1.008l-1.537-2.354h-.913V196h-.865zm7.179.096c-.557 0-.996-.141-1.316-.423-.32-.288-.48-.675-.48-1.162 0-.493.16-.881.48-1.162.32-.282.752-.423 1.297-.423h1.633v-.529c0-.326-.1-.576-.298-.749-.192-.179-.467-.269-.826-.269-.314 0-.577.067-.788.202a.717.717 0 00-.365.528h-.864c.057-.454.272-.816.643-1.085.372-.269.836-.404 1.393-.404.609 0 1.089.157 1.441.471.352.314.529.74.529 1.278V196H35.2v-1.009h-.144l.144-.144c0 .384-.15.689-.451.913-.295.224-.689.336-1.182.336zm.211-.682c.41 0 .746-.102 1.01-.307a.957.957 0 00.393-.788v-.75h-1.614c-.288 0-.516.081-.682.241-.167.16-.25.378-.25.653 0 .295.1.528.298.701.205.167.487.25.845.25zm3.96.586v-5.284h.865v2.2h2.23v-2.2h.864V196h-.865v-2.296h-2.229V196h-.864zm7.208.096c-.557 0-.996-.141-1.316-.423-.32-.288-.48-.675-.48-1.162 0-.493.16-.881.48-1.162.32-.282.753-.423 1.297-.423h1.633v-.529c0-.326-.099-.576-.298-.749-.192-.179-.467-.269-.826-.269-.314 0-.576.067-.787.202a.717.717 0 00-.365.528h-.865c.057-.454.272-.816.643-1.085.372-.269.836-.404 1.393-.404.609 0 1.09.157 1.441.471.353.314.529.74.529 1.278V196h-.846v-1.009h-.144l.145-.144c0 .384-.151.689-.452.913-.295.224-.688.336-1.182.336zm.212-.682c.41 0 .746-.102 1.008-.307a.957.957 0 00.394-.788v-.75h-1.614c-.288 0-.515.081-.682.241-.166.16-.25.378-.25.653 0 .295.1.528.298.701.205.167.487.25.846.25zm3.297.653v-.807h.173c.295 0 .5-.115.615-.346.122-.23.186-.643.192-1.239l.058-2.959h3.583V196h-.864v-4.496h-1.864l-.048 2.21c-.013.557-.077 1.008-.192 1.354-.11.346-.282.599-.52.759-.23.16-.534.24-.912.24h-.22zm7.87.029c-.557 0-.995-.141-1.316-.423-.32-.288-.48-.675-.48-1.162 0-.493.16-.881.48-1.162.32-.282.753-.423 1.297-.423h1.634v-.529c0-.326-.1-.576-.298-.749-.192-.179-.468-.269-.826-.269-.314 0-.577.067-.788.202a.717.717 0 00-.365.528h-.865c.058-.454.272-.816.644-1.085.371-.269.836-.404 1.393-.404.608 0 1.089.157 1.44.471.353.314.53.74.53 1.278V196h-.846v-1.009h-.144l.144-.144c0 .384-.15.689-.452.913-.294.224-.688.336-1.181.336zm.212-.682c.41 0 .746-.102 1.009-.307a.957.957 0 00.394-.788v-.75h-1.614c-.289 0-.516.081-.682.241-.167.16-.25.378-.25.653 0 .295.099.528.298.701.205.167.486.25.845.25zm5.94.682c-.244 0-.44-.07-.587-.211-.14-.141-.211-.33-.211-.567 0-.25.07-.448.211-.596.148-.147.343-.221.586-.221.244 0 .436.074.577.221.147.148.22.346.22.596 0 .237-.073.426-.22.567-.141.141-.333.211-.577.211z" fill="#fff"/><path d="M14.347 17.528v-7.013h2.152c.678 0 1.216.164 1.614.49.397.32.595.76.595 1.316 0 .314-.07.587-.211.817a1.46 1.46 0 01-.577.538 1.711 1.711 0 01-.826.192v-.038c.34-.007.64.057.903.192.27.128.48.32.634.576.16.256.24.567.24.932 0 .404-.092.756-.278 1.057a1.868 1.868 0 01-.788.701c-.333.16-.733.24-1.2.24h-2.258zm1.172-.999h1.008c.353 0 .628-.093.827-.278.204-.193.307-.452.307-.779 0-.326-.103-.589-.307-.787-.199-.205-.474-.308-.827-.308H15.52v2.152zm0-3.122h.96c.32 0 .57-.083.75-.25.185-.173.278-.406.278-.701 0-.295-.093-.525-.278-.692-.18-.166-.43-.25-.75-.25h-.96v1.893zm6.679 4.217c-.448 0-.842-.083-1.182-.25a1.924 1.924 0 01-.778-.72c-.186-.314-.279-.682-.279-1.105v-1.325c0-.43.093-.798.279-1.105a1.86 1.86 0 01.778-.711c.34-.173.734-.26 1.182-.26.666 0 1.197.174 1.595.52.397.339.605.803.624 1.392h-1.2c-.02-.275-.12-.487-.299-.634-.173-.153-.413-.23-.72-.23-.32 0-.573.09-.76.269-.185.173-.278.422-.278.749v1.335c0 .327.093.58.279.76.186.179.439.268.759.268.307 0 .547-.073.72-.22.18-.154.279-.369.298-.644h1.201c-.02.589-.227 1.056-.625 1.402-.397.34-.928.51-1.594.51zm5.065-.096V13.35h-1.806v-1.104h4.823v1.104h-1.806v4.18h-1.211zm4.153 1.73v-7.013h1.172v1.008h.269l-.27.279c0-.43.129-.765.385-1.009.256-.25.602-.374 1.037-.374.532 0 .958.182 1.278.547.32.365.48.855.48 1.47v1.431c0 .41-.073.769-.22 1.076a1.627 1.627 0 01-.606.702c-.262.166-.573.25-.932.25-.435 0-.78-.122-1.037-.366-.256-.25-.384-.589-.384-1.018l.269.279h-.279l.038 1.258v1.48h-1.2zm2.17-2.671c.308 0 .548-.09.721-.27.173-.178.26-.435.26-.768v-1.325c0-.333-.087-.59-.26-.769-.173-.18-.413-.269-.72-.269-.301 0-.538.093-.711.279-.173.179-.26.432-.26.759v1.325c0 .327.087.583.26.769.173.18.41.269.71.269zm5.671 1.037c-.448 0-.839-.086-1.172-.259a1.923 1.923 0 01-.778-.72 2.17 2.17 0 01-.269-1.096v-1.325c0-.417.09-.779.269-1.086.186-.314.445-.557.778-.73.333-.173.724-.26 1.172-.26.442 0 .826.087 1.153.26.333.173.59.416.769.73.185.307.278.67.278 1.086v.95H38.2v.375c0 .372.09.654.27.846.179.186.444.278.797.278.269 0 .486-.044.653-.134a.641.641 0 00.317-.413h1.182c-.09.454-.333.82-.73 1.095-.391.269-.868.403-1.432.403zm1.038-3.122v-.288c0-.365-.087-.644-.26-.836-.173-.198-.432-.298-.778-.298-.346 0-.608.1-.788.298-.179.199-.269.48-.269.846v.201l2.181-.019-.086.096zm5.526 3.026v-1.777a5.11 5.11 0 01-.403.067c-.18.02-.378.03-.596.03-.679 0-1.21-.167-1.595-.5-.384-.34-.576-.81-.576-1.413v-1.69h1.2v1.633c0 .275.097.493.289.653.192.154.455.23.788.23.217 0 .406-.009.566-.028.16-.026.27-.048.327-.068v-2.42h1.21v5.283h-1.21zm4.22.096c-.544 0-.974-.144-1.287-.432-.314-.288-.471-.676-.471-1.162 0-.52.173-.92.519-1.201.345-.282.835-.423 1.47-.423h1.316v-.451c0-.257-.084-.455-.25-.596-.167-.147-.394-.221-.682-.221-.263 0-.48.058-.654.173a.675.675 0 00-.307.47h-1.172a1.67 1.67 0 01.672-1.19c.391-.295.89-.442 1.5-.442.646 0 1.155.163 1.527.49.377.32.566.755.566 1.306v3.583h-1.162v-.922h-.192l.192-.26c0 .391-.144.702-.432.933-.288.23-.673.345-1.153.345zm.394-.903c.34 0 .615-.086.826-.259a.82.82 0 00.327-.672v-.644H50.29c-.244 0-.44.07-.586.211a.736.736 0 00-.221.557c0 .25.083.449.25.596.172.14.406.211.7.211zm11.59.903c-.448 0-.842-.083-1.181-.25a1.923 1.923 0 01-.778-.72c-.186-.314-.279-.682-.279-1.105v-1.325c0-.43.093-.798.279-1.105.185-.308.445-.545.778-.711.34-.173.733-.26 1.181-.26.666 0 1.198.174 1.595.52.397.339.605.803.625 1.392h-1.201c-.02-.275-.119-.487-.298-.634-.173-.153-.413-.23-.72-.23-.32 0-.574.09-.76.269-.185.173-.278.422-.278.749v1.335c0 .327.093.58.279.76.185.179.438.268.758.268.308 0 .548-.073.72-.22.18-.154.28-.369.299-.644h1.2c-.019.589-.227 1.056-.624 1.402-.397.34-.928.51-1.595.51zm9.257-.096v-5.283h1.2v2.075h.788l1.288-2.075h1.344L74.309 14.8l1.623 2.728h-1.373l-1.288-2.19h-.787v2.19h-1.201zm7.793.087c-.448 0-.839-.083-1.172-.25a1.938 1.938 0 01-.768-.72c-.18-.314-.27-.683-.27-1.105v-1.307c0-.423.09-.788.27-1.095a1.84 1.84 0 01.768-.72c.333-.173.724-.26 1.172-.26.455 0 .846.087 1.172.26.327.166.58.406.76.72.185.307.278.67.278 1.086v1.316c0 .422-.093.79-.279 1.105-.18.307-.432.547-.759.72-.326.167-.717.25-1.172.25zm0-1.047c.32 0 .567-.087.74-.26.18-.18.269-.435.269-.768v-1.307c0-.34-.09-.595-.27-.768-.172-.173-.419-.26-.739-.26-.314 0-.56.087-.74.26-.179.173-.269.429-.269.768v1.307c0 .333.09.589.27.768.179.173.425.26.74.26zm3.346.96v-5.283h1.44l.654 1.988c.07.218.128.423.173.615.051.192.083.336.096.432l.087-.432a7.68 7.68 0 01.172-.615l.625-1.988h1.44v5.283h-1.114v-.903a45.428 45.428 0 01.038-1.71c.014-.313.026-.611.04-.893.019-.288.035-.541.047-.76l-.797 2.739h-1.095l-.826-2.729c.019.27.038.603.057 1a36.781 36.781 0 01.077 2.354v.902h-1.114zm7.447.096c-.544 0-.973-.144-1.287-.432-.314-.288-.47-.676-.47-1.162 0-.52.172-.92.518-1.201.346-.282.836-.423 1.47-.423h1.316v-.451c0-.257-.083-.455-.25-.596-.166-.147-.394-.221-.682-.221-.262 0-.48.058-.653.173a.675.675 0 00-.307.47H88.35c.057-.499.281-.896.672-1.19.39-.295.89-.442 1.499-.442.647 0 1.156.163 1.527.49.378.32.567.755.567 1.306v3.583h-1.162v-.922h-.193l.193-.26c0 .391-.144.702-.433.933-.288.23-.672.345-1.153.345zm.394-.903c.34 0 .615-.086.826-.259a.82.82 0 00.327-.672v-.644h-1.297c-.243 0-.438.07-.586.211a.736.736 0 00-.22.557c0 .25.082.449.249.596.173.14.407.211.701.211zm3.75.807v-5.283h1.2v2.046h1.864v-2.046h1.2v5.283h-1.2v-2.123h-1.864v2.123h-1.2zm5.18 1.345V16.51h.355c.11-.109.221-.307.337-.596.121-.294.185-.66.192-1.095l.057-2.574h3.699v4.265h.624v2.363h-1.104v-1.345h-3.055v1.345h-1.105zm1.575-2.363h1.922v-3.218h-1.441l-.039 1.527c-.006.43-.061.791-.163 1.086-.096.288-.189.49-.279.605zm6.756 1.105c-.448 0-.839-.083-1.172-.25a1.943 1.943 0 01-.768-.72c-.179-.314-.269-.683-.269-1.105v-1.307c0-.423.09-.788.269-1.095.186-.314.442-.554.768-.72.333-.173.724-.26 1.172-.26.455 0 .846.087 1.172.26.327.166.58.406.759.72.186.307.279.67.279 1.086v1.316c0 .422-.093.79-.279 1.105a1.868 1.868 0 01-.759.72c-.326.167-.717.25-1.172.25zm0-1.047c.321 0 .567-.087.74-.26.179-.18.269-.435.269-.768v-1.307c0-.34-.09-.595-.269-.768-.173-.173-.419-.26-.74-.26-.313 0-.56.087-.739.26-.18.173-.269.429-.269.768v1.307c0 .333.089.589.269.768.179.173.426.26.739.26zm3.557.96v-5.283h1.086v2.603c0 .167-.01.365-.029.596a14.138 14.138 0 01-.134 1.23l1.863-4.43h1.48v5.284h-1.086v-2.603c0-.173.007-.365.019-.577l.058-.624c.026-.205.051-.378.077-.519l-1.854 4.323h-1.48zm2.172-6.12c-.5 0-.907-.13-1.221-.393a1.288 1.288 0 01-.461-1.028h.932c0 .211.067.381.202.51a.782.782 0 00.548.191c.224 0 .403-.064.537-.192a.655.655 0 00.212-.509h.932c0 .423-.154.765-.461 1.028-.308.262-.715.394-1.22.394zM16.489 36.625c-.685 0-1.223-.185-1.614-.557-.384-.378-.576-.89-.576-1.537v-5.015h1.21v5.005c0 .333.083.593.25.779.166.185.41.278.73.278.314 0 .554-.093.72-.278.173-.186.26-.446.26-.779v-5.005h1.21v5.015c0 .647-.192 1.16-.576 1.537-.384.372-.922.557-1.614.557zm3.547-.096v-5.283h1.172v1.008h.327l-.327.279c0-.436.125-.775.375-1.018.256-.244.605-.366 1.047-.366.519 0 .932.174 1.24.52.313.345.47.81.47 1.392v3.468h-1.2v-3.343c0-.32-.084-.567-.25-.74-.167-.172-.4-.259-.702-.259-.294 0-.528.09-.701.27-.167.178-.25.435-.25.768v3.304h-1.2zm5.68 0v-1.095h1.845V32.33h-1.605v-1.085h2.758v4.188h1.633v1.095h-4.63zm2.325-6.167c-.243 0-.435-.061-.576-.183a.655.655 0 01-.212-.509c0-.211.07-.378.212-.5.14-.128.333-.192.576-.192.244 0 .436.064.577.193.14.121.21.288.21.5 0 .21-.07.38-.21.508-.141.122-.333.183-.577.183zm5.546 6.263c-.449 0-.843-.083-1.182-.25a1.923 1.923 0 01-.778-.72c-.186-.314-.279-.682-.279-1.105v-1.325c0-.43.093-.798.279-1.105.186-.308.445-.545.778-.711a2.57 2.57 0 011.182-.26c.666 0 1.197.174 1.594.52.398.339.606.803.625 1.392h-1.2c-.02-.275-.12-.486-.299-.634-.173-.154-.413-.23-.72-.23-.32 0-.574.09-.76.269-.185.173-.278.422-.278.749v1.335c0 .327.093.58.279.76.185.179.438.268.759.268.307 0 .547-.073.72-.22.18-.154.279-.369.298-.644h1.2c-.018.589-.227 1.056-.623 1.402-.398.34-.93.51-1.595.51zm5.66-.01c-.448 0-.838-.082-1.171-.249a1.938 1.938 0 01-.769-.72c-.18-.314-.269-.683-.269-1.105v-1.307c0-.422.09-.787.269-1.095.186-.314.442-.554.769-.72.333-.173.723-.26 1.172-.26.454 0 .845.087 1.172.26.326.166.58.406.758.72.186.308.28.67.28 1.086v1.316c0 .422-.094.79-.28 1.105a1.873 1.873 0 01-.758.72c-.327.166-.718.25-1.172.25zm0-1.046c.32 0 .567-.087.74-.26.18-.18.27-.435.27-.768v-1.307c0-.34-.09-.595-.27-.768-.173-.173-.42-.26-.74-.26-.313 0-.56.087-.74.26-.178.173-.268.429-.268.768v1.307c0 .333.09.589.269.768.18.173.426.26.74.26zm5.719 1.056c-.448 0-.842-.083-1.182-.25a1.923 1.923 0 01-.778-.72c-.185-.314-.278-.682-.278-1.105v-1.325c0-.43.093-.798.278-1.105.186-.308.445-.545.778-.711.34-.173.734-.26 1.182-.26.666 0 1.198.174 1.595.52.397.339.605.803.624 1.392h-1.2c-.02-.275-.12-.486-.298-.634-.173-.154-.413-.23-.721-.23-.32 0-.573.09-.759.269-.186.173-.279.422-.279.749v1.335c0 .327.093.58.28.76.185.179.438.268.758.268.307 0 .548-.073.72-.22.18-.154.28-.369.298-.644h1.201c-.019.589-.227 1.056-.624 1.402-.397.34-.929.51-1.595.51zm5.66-.01c-.447 0-.838-.082-1.171-.249a1.939 1.939 0 01-.769-.72c-.179-.314-.269-.683-.269-1.105v-1.307c0-.422.09-.787.27-1.095a1.84 1.84 0 01.768-.72c.333-.173.724-.26 1.172-.26.455 0 .845.087 1.172.26.327.166.58.406.759.72.186.308.278.67.278 1.086v1.316c0 .422-.092.79-.278 1.105-.18.307-.432.547-.76.72-.326.166-.716.25-1.171.25zm0-1.046c.321 0 .568-.087.74-.26.18-.18.27-.435.27-.768v-1.307c0-.34-.09-.595-.27-.768-.172-.173-.419-.26-.74-.26-.313 0-.56.087-.739.26-.18.173-.269.429-.269.768v1.307c0 .333.09.589.27.768.178.173.425.26.739.26zm3.308.96v-5.283h.98v.71h.202l-.164.173c0-.294.084-.531.25-.71a.839.839 0 01.644-.27c.282 0 .5.116.653.346.16.23.24.542.24.932l-.211-.47h.327l-.125.172c0-.294.083-.531.25-.71.166-.18.387-.27.662-.27a.94.94 0 01.778.366c.193.243.289.573.289.99v4.024h-1.057v-3.977c0-.173-.039-.307-.115-.403a.394.394 0 00-.337-.154.423.423 0 00-.336.144c-.077.096-.115.234-.115.413v3.977h-.865v-3.977c0-.18-.038-.317-.115-.413-.077-.096-.189-.144-.336-.144-.148 0-.26.048-.337.144-.07.096-.105.234-.105.413v3.977h-1.057zm7.16 0v-3.612h-1.451v-1.085h1.45v-.798c0-.46.154-.83.462-1.105.307-.275.714-.413 1.22-.413h1.546v1.057h-1.517a.527.527 0 00-.375.135.449.449 0 00-.135.345v.779h2.027v1.085h-2.027v3.612h-1.2zm6.602.087c-.448 0-.84-.084-1.172-.25a1.938 1.938 0 01-.769-.72c-.179-.314-.269-.683-.269-1.105v-1.307c0-.422.09-.787.27-1.095a1.84 1.84 0 01.768-.72c.333-.173.724-.26 1.172-.26.455 0 .845.087 1.172.26.327.166.58.406.759.72.186.308.278.67.278 1.086v1.316c0 .422-.093.79-.278 1.105-.18.307-.432.547-.76.72-.326.166-.716.25-1.171.25zm0-1.047c.32 0 .567-.087.74-.26.179-.18.269-.435.269-.768v-1.307c0-.34-.09-.595-.27-.768-.172-.173-.419-.26-.74-.26-.313 0-.56.087-.739.26-.18.173-.269.429-.269.768v1.307c0 .333.09.589.27.768.178.173.425.26.739.26zm3.71.96v-5.283h1.134v1.008h.298l-.355.615c0-.57.128-.999.384-1.287.256-.288.634-.433 1.133-.433.57 0 1.019.177 1.345.529.327.352.49.839.49 1.46v.384h-1.258v-.297c0-.34-.09-.602-.27-.788-.172-.186-.412-.279-.72-.279-.314 0-.557.093-.73.279-.166.186-.25.448-.25.788v3.304h-1.2zm8.246 0c-.506 0-.903-.14-1.192-.422-.281-.282-.422-.67-.422-1.163V32.33h-1.432v-1.085h1.432v-1.49h1.21v1.49h2.027v1.085h-2.027v2.613c0 .333.163.5.49.5h1.441v1.085h-1.527zm5.113-3.765c-.27 0-.487-.074-.653-.221a.777.777 0 01-.24-.587c0-.243.08-.438.24-.585.166-.148.384-.222.653-.222s.483.074.644.221c.166.148.25.343.25.587a.763.763 0 01-.25.585c-.16.148-.375.222-.644.222zm0 3.861c-.27 0-.487-.073-.653-.22a.758.758 0 01-.24-.587.76.76 0 01.24-.586c.166-.147.384-.22.653-.22s.483.073.644.22c.166.148.25.343.25.586a.744.744 0 01-.25.586c-.16.148-.375.221-.644.221z" fill="#000"/><defs><filter id="filter0_d_441_1675" x=".157" y="0" width="179.685" height="214.685" filterUnits="userSpaceOnUse" color-interpolation-filters="sRGB"><feFlood flood-opacity="0" result="BackgroundImageFix"/><feColorMatrix in="SourceAlpha" values="0 0 0 0 0 0 0 0 0 0 0 0 0 0 0 0 0 0 127 0" result="hardAlpha"/><feOffset dy="3.843"/><feGaussianBlur stdDeviation="1.921"/><feComposite in2="hardAlpha" operator="out"/><feColorMatrix values="0 0 0 0 0 0 0 0 0 0 0 0 0 0 0 0 0 0 0.25 0"/><feBlend in2="BackgroundImageFix" result="effect1_dropShadow_441_1675"/><feBlend in="SourceGraphic" in2="effect1_dropShadow_441_1675" result="shape"/></filter></defs></svg>