<svg width="180" height="216" fill="none" xmlns="http://www.w3.org/2000/svg"><g filter="url(#filter0_d_441_1861)"><rect x="4" width="172" height="208" rx="16.011" fill="#6E6DC0"/></g><mask id="a" style="mask-type:alpha" maskUnits="userSpaceOnUse" x="4" y="0" width="172" height="43"><path fill="#C9D9CD" d="M4 0h172v42.005H4z"/></mask><g mask="url(#a)"><rect x="4" y="-1.68" width="172" height="117.615" rx="16.011" fill="#E0F4FF"/></g><path d="M16.73 60.58c-.32 0-.582-.1-.787-.299-.199-.205-.298-.467-.298-.788 0-.32.1-.58.298-.778.205-.205.467-.307.788-.307.32 0 .58.102.778.307.205.199.307.458.307.778s-.102.583-.307.788c-.199.199-.458.298-.778.298zM23.4 63v-7.013h3.881V63h-.768v-6.321h-2.345V63H23.4zm5.68 1.73v-7.014h.759v.932h.202l-.23.317c0-.416.134-.743.403-.98.275-.243.637-.365 1.085-.365.532 0 .954.176 1.268.529.32.345.48.82.48 1.421v1.566c0 .404-.073.753-.22 1.047a1.646 1.646 0 01-.615.673c-.256.16-.56.24-.913.24-.442 0-.8-.122-1.076-.365-.275-.243-.413-.57-.413-.98l.202.317h-.183l.01 1.076v1.585h-.759zm1.979-2.297c.384 0 .682-.115.893-.346.218-.23.327-.557.327-.98V59.61c0-.43-.109-.756-.327-.98-.211-.23-.509-.346-.893-.346-.372 0-.67.119-.893.355-.218.231-.327.555-.327.97v1.5c0 .416.109.742.326.98.225.23.522.345.894.345zm5.66.654c-.41 0-.765-.08-1.066-.24a1.698 1.698 0 01-.7-.692c-.167-.301-.25-.657-.25-1.067v-1.46c0-.416.083-.772.25-1.066.166-.301.4-.532.7-.692.301-.16.657-.24 1.067-.24.41 0 .765.08 1.066.24.301.16.535.39.701.692.167.294.25.647.25 1.056v1.47c0 .41-.083.766-.25 1.067a1.7 1.7 0 01-.7.691c-.302.16-.657.24-1.067.24zm0-.683c.398 0 .705-.112.923-.336.218-.224.327-.55.327-.98v-1.46c0-.43-.112-.756-.337-.98-.217-.224-.522-.336-.912-.336s-.698.112-.922.336c-.218.224-.327.55-.327.98v1.46c0 .43.109.756.327.98.224.224.531.336.922.336zm3.75.596v-5.284h2.267c.525 0 .938.125 1.24.375.3.243.45.583.45 1.018 0 .365-.124.66-.374.884-.243.218-.57.327-.98.327v-.068c.442 0 .798.116 1.067.346.269.224.403.526.403.903 0 .468-.16.836-.48 1.105-.314.263-.75.394-1.307.394h-2.286zm.75-.672h1.536c.314 0 .564-.074.75-.221a.758.758 0 00.278-.615c0-.27-.093-.477-.278-.625-.186-.153-.436-.23-.75-.23h-1.537v1.69zm0-2.354h1.517c.282 0 .506-.07.672-.211a.704.704 0 00.26-.577.704.704 0 00-.26-.576c-.166-.148-.39-.221-.672-.221h-1.518v1.585zm6.88 3.122c-.41 0-.765-.08-1.066-.24a1.76 1.76 0 01-.701-.701 2.127 2.127 0 01-.25-1.047v-1.5c0-.403.083-.752.25-1.046.166-.301.4-.532.7-.692.302-.166.657-.25 1.067-.25.41 0 .765.084 1.066.25.301.16.535.39.702.692.166.294.25.643.25 1.047v.932H46.83v.567c0 .429.109.762.327.999.224.23.538.345.941.345.34 0 .615-.067.826-.201a.89.89 0 00.413-.586h.76a1.54 1.54 0 01-.644 1.047c-.359.256-.81.384-1.355.384zm1.268-3.064v-.423c0-.43-.109-.76-.326-.99-.218-.237-.532-.355-.942-.355-.403 0-.717.118-.941.355-.218.23-.327.56-.327.99v.336h2.613l-.077.087zm1.809 3.035v-.72h.192c.275 0 .477-.112.605-.337.128-.23.195-.611.202-1.143l.067-3.15h3.487V63h-.768v-4.592h-1.97l-.057 2.488c-.007.5-.068.91-.183 1.23-.109.32-.275.557-.5.71-.217.154-.502.231-.854.231h-.221zM57.537 63v-5.284h.74v3.007c0 .18-.007.372-.02.577a14.568 14.568 0 01-.067 1.018l2.239-4.602h.989V63h-.74v-3.007c0-.186.004-.378.01-.576l.038-.567c.02-.186.032-.34.039-.461L58.517 63h-.98zm12.974 1.73V63c-.615 0-1.099-.173-1.45-.519-.353-.346-.53-.82-.53-1.422v-1.421c0-.596.177-1.063.53-1.403.358-.346.841-.519 1.45-.519v-1.729h.692v1.73c.614 0 1.098.172 1.45.518.352.34.528.807.528 1.403v1.421c0 .602-.176 1.076-.528 1.422-.352.346-.836.519-1.45.519v1.73h-.692zm.02-2.345v-4.054c-.404 0-.721.115-.952.346-.224.224-.336.544-.336.96v1.422c0 .417.112.743.336.98.23.23.548.346.951.346zm.652 0c.41 0 .727-.115.951-.346.225-.237.337-.563.337-.98v-1.421c0-.417-.112-.737-.337-.961-.224-.23-.54-.346-.95-.346v4.054zm4.249 2.344l.778-2.065-1.96-4.948h.846l1.249 3.295c.05.128.099.273.144.433.051.153.09.281.115.384.032-.103.07-.234.115-.394s.09-.304.135-.432l1.172-3.286h.816L76.24 64.73h-.807zM80.296 63v-5.284h.768v2.248h2.344v-2.248h.769V63h-.769v-2.344h-2.344V63h-.768zm5.718 0v-5.284h.769v2.22h.999l1.566-2.22h.874l-1.778 2.517L90.26 63h-.893l-1.585-2.402h-1V63h-.768zm9.417 1.345V63h-3.756v-5.284h.768v4.602h2.19v-4.602h.76v4.602h.73v2.027h-.692zM97.364 63v-5.284h.74v3.007c0 .18-.006.372-.02.577a14.568 14.568 0 01-.066 1.018l2.238-4.602h.99V63h-.74v-3.007c0-.186.003-.378.009-.576l.039-.567a9.26 9.26 0 00.038-.461L98.344 63h-.98zm7.631.087c-.41 0-.766-.08-1.067-.24a1.7 1.7 0 01-.701-.692c-.167-.301-.25-.657-.25-1.067v-1.46c0-.416.083-.772.25-1.066a1.7 1.7 0 01.701-.692c.301-.16.657-.24 1.067-.24.41 0 .765.08 1.066.24.301.16.535.39.701.692.167.294.25.647.25 1.056v1.47c0 .41-.083.766-.25 1.067-.166.3-.4.531-.701.691-.301.16-.656.24-1.066.24zm0-.683c.397 0 .704-.112.922-.336.218-.224.327-.55.327-.98v-1.46c0-.43-.113-.756-.337-.98-.217-.224-.522-.336-.912-.336-.391 0-.698.112-.923.336-.217.224-.326.55-.326.98v1.46c0 .43.109.756.326.98.225.224.532.336.923.336zm3.749.596v-5.284h.768v2.248h2.344v-2.248h.769V63h-.769v-2.344h-2.344V63h-.768zm7.217.096c-.557 0-.996-.14-1.316-.423-.32-.288-.481-.675-.481-1.162 0-.48.157-.858.471-1.134.314-.281.737-.422 1.268-.422h1.681v-.557c0-.353-.102-.625-.307-.817-.205-.192-.496-.288-.874-.288-.333 0-.612.073-.836.22a.818.818 0 00-.375.596h-.768c.064-.454.275-.816.634-1.085.365-.27.82-.404 1.364-.404.589 0 1.057.16 1.403.48.345.314.518.74.518 1.278V63h-.749v-1.028h-.125l.144-.154c0 .391-.15.702-.451.932-.301.23-.702.346-1.201.346zm.182-.615c.423 0 .769-.105 1.038-.317a1 1 0 00.403-.826v-.797h-1.671c-.301 0-.541.083-.721.25-.179.166-.269.393-.269.681 0 .308.109.554.327.74.218.18.516.27.893.27zm3.308.586v-.72h.192c.275 0 .477-.112.605-.337.128-.23.195-.611.202-1.143l.067-3.15h3.487V63h-.768v-4.592h-1.97l-.057 2.488c-.007.5-.068.91-.183 1.23-.109.32-.275.557-.499.71-.218.154-.503.231-.855.231h-.221zm6.41-.067v-5.284h.759v1.94h1.585c.589 0 1.053.151 1.393.452.346.295.519.702.519 1.22 0 .513-.173.92-.519 1.22-.34.301-.804.452-1.393.452h-2.344zm.759-.692h1.585c.365 0 .643-.083.836-.25.192-.172.288-.416.288-.73 0-.313-.096-.554-.288-.72-.193-.173-.471-.26-.836-.26h-1.585v1.96zm4.882.692v-5.284h.769v2.248h2.344v-2.248h.768V63h-.768v-2.344h-2.344V63h-.769zm7.631.087c-.41 0-.766-.08-1.067-.24a1.693 1.693 0 01-.701-.692c-.167-.301-.25-.657-.25-1.067v-1.46c0-.416.083-.772.25-1.066.166-.301.4-.532.701-.692.301-.16.657-.24 1.067-.24.409 0 .765.08 1.066.24.301.16.535.39.701.692.167.294.25.647.25 1.056v1.47c0 .41-.083.766-.25 1.067-.166.3-.4.531-.701.691-.301.16-.657.24-1.066.24zm0-.683c.397 0 .704-.112.922-.336.218-.224.326-.55.326-.98v-1.46c0-.43-.112-.756-.336-.98-.218-.224-.522-.336-.912-.336-.391 0-.699.112-.923.336-.217.224-.326.55-.326.98v1.46c0 .43.109.756.326.98.224.224.532.336.923.336zm5.689.692c-.41 0-.765-.08-1.066-.24a1.756 1.756 0 01-.701-.701 2.123 2.123 0 01-.25-1.047v-1.5c0-.403.083-.752.25-1.046.166-.301.4-.532.701-.692.301-.166.656-.25 1.066-.25.41 0 .766.084 1.067.25.301.16.534.39.701.692.166.294.25.643.25 1.047v.932h-3.286v.567c0 .429.109.762.327.999.224.23.538.345.941.345.34 0 .615-.067.826-.201a.887.887 0 00.413-.586h.759c-.07.442-.285.79-.643 1.047-.359.256-.81.384-1.355.384zm1.268-3.064v-.423c0-.43-.109-.76-.326-.99-.218-.237-.532-.355-.942-.355-.403 0-.717.118-.941.355-.218.23-.327.56-.327.99v.336h2.613l-.077.087zM154.261 63v-5.284h.74v3.007c0 .18-.007.372-.02.577a15.46 15.46 0 01-.067 1.018l2.239-4.602h.989V63h-.74v-3.007c0-.186.004-.378.01-.576l.038-.567c.02-.186.032-.34.039-.461L155.241 63h-.98zM23.399 82v-5.284h.768v2.248h2.345v-2.248h.768V82h-.768v-2.344h-2.345V82H23.4zm7.217.096c-.557 0-.996-.14-1.316-.423-.32-.288-.48-.675-.48-1.162 0-.48.157-.858.47-1.134.314-.281.737-.422 1.268-.422h1.682v-.558c0-.352-.103-.624-.308-.816-.205-.192-.496-.288-.874-.288-.333 0-.612.073-.836.22a.819.819 0 00-.375.596h-.768c.064-.454.275-.816.634-1.085.365-.27.82-.404 1.364-.404.59 0 1.057.16 1.403.48.346.314.519.74.519 1.278V82h-.75v-1.028h-.125l.144-.154c0 .391-.15.702-.451.932-.301.23-.701.346-1.201.346zm.183-.615c.422 0 .768-.105 1.037-.317a1 1 0 00.404-.826v-.797h-1.672c-.301 0-.541.083-.72.25-.18.166-.27.393-.27.681 0 .308.11.555.327.74.218.18.516.27.894.27zm4.325.519v-5.284h3.747v.692h-2.988V82h-.759zm5.334 1.73v-7.014h.76v.932h.2l-.23.317c0-.416.135-.743.404-.98.275-.243.637-.365 1.085-.365.532 0 .955.176 1.269.529.32.345.48.82.48 1.421v1.566c0 .404-.074.753-.221 1.047a1.645 1.645 0 01-.615.673c-.256.16-.56.24-.913.24-.441 0-.8-.122-1.075-.365-.276-.243-.414-.57-.414-.98l.202.317h-.182l.01 1.076v1.585h-.76zm1.98-2.297c.383 0 .681-.115.893-.346.217-.23.326-.557.326-.98V78.61c0-.43-.109-.756-.326-.98-.212-.23-.51-.346-.894-.346-.371 0-.669.119-.893.355-.218.231-.327.554-.327.97v1.5c0 .416.11.742.327.98.224.23.522.345.893.345zm4.546 2.296l.778-2.065-1.96-4.948h.846l1.248 3.295c.052.129.1.273.145.433.05.153.09.281.115.384.032-.103.07-.234.115-.394s.09-.304.135-.432l1.172-3.286h.816l-2.603 7.013h-.807zm6.554-1.652c-.55 0-.996-.119-1.335-.356a1.43 1.43 0 01-.615-.96h.797c.051.186.176.34.375.46.205.116.464.174.778.174h.47c.327 0 .584-.08.77-.24a.792.792 0 00.287-.625.85.85 0 00-.268-.653c-.18-.167-.436-.25-.77-.25h-1.18v-.663h1.162c.3 0 .531-.077.691-.23a.774.774 0 00.25-.596.793.793 0 00-.115-.432.727.727 0 00-.336-.279 1.166 1.166 0 00-.51-.106h-.5c-.287 0-.524.065-.71.193a.76.76 0 00-.346.47h-.797c.064-.397.26-.72.586-.97.333-.25.756-.375 1.268-.375h.5c.358 0 .669.061.931.183a1.4 1.4 0 01.606.51c.147.217.22.473.22.768 0 .32-.099.586-.297.797-.192.205-.465.32-.817.346v.038c.423.026.733.15.932.375.199.218.298.519.298.903 0 .455-.17.823-.51 1.105-.332.275-.78.413-1.344.413h-.471zm5.94.01c-.41 0-.766-.08-1.067-.24a1.697 1.697 0 01-.701-.692c-.167-.301-.25-.657-.25-1.067v-1.46c0-.416.083-.772.25-1.066.166-.301.4-.532.701-.692.301-.16.657-.24 1.066-.24.41 0 .766.08 1.067.24.3.16.535.39.701.692.167.294.25.647.25 1.056v1.47c0 .41-.083.766-.25 1.067-.166.3-.4.531-.701.691-.301.16-.657.24-1.067.24zm0-.683c.396 0 .704-.112.922-.336.217-.224.326-.55.326-.98v-1.46c0-.43-.112-.756-.336-.98-.218-.224-.522-.336-.913-.336-.39 0-.698.112-.922.336-.218.224-.327.55-.327.98v1.46c0 .43.11.756.327.98.224.224.532.336.922.336zM66.29 82v-1.95a4.193 4.193 0 01-.48.077 8.45 8.45 0 01-.73.029c-.634.006-1.128-.151-1.48-.471-.346-.32-.519-.772-.519-1.355v-1.614h.76v1.614c0 .359.108.638.326.836.224.199.541.298.951.298.295 0 .544-.01.75-.029.204-.026.345-.048.422-.067v-2.652h.759V82h-.759zm2.625 0v-5.284h.769v2.248h2.344v-2.248h.768V82h-.768v-2.344h-2.344V82h-.769zm7.63.087c-.41 0-.765-.08-1.066-.24a1.697 1.697 0 01-.701-.692c-.167-.301-.25-.657-.25-1.067v-1.46c0-.416.083-.772.25-1.066.166-.301.4-.532.701-.692.301-.16.656-.24 1.066-.24.41 0 .766.08 1.067.24.3.16.534.39.701.692.167.294.25.647.25 1.056v1.47c0 .41-.083.766-.25 1.067-.166.3-.4.531-.701.691-.301.16-.657.24-1.067.24zm0-.683c.397 0 .705-.112.923-.336.217-.224.326-.55.326-.98v-1.46c0-.43-.112-.756-.336-.98-.218-.224-.522-.336-.913-.336-.39 0-.698.112-.922.336-.218.224-.326.55-.326.98v1.46c0 .43.108.756.326.98.224.224.532.336.922.336zm5.69.692c-.41 0-.765-.08-1.066-.24a1.76 1.76 0 01-.702-.701 2.128 2.128 0 01-.25-1.047v-1.5c0-.403.084-.752.25-1.046.167-.301.4-.532.702-.692.3-.166.656-.25 1.066-.25.41 0 .765.084 1.066.25.301.16.535.39.702.692.166.294.25.643.25 1.047v.932h-3.286v.567c0 .429.109.762.327.999.224.23.537.345.941.345.34 0 .615-.067.826-.201a.89.89 0 00.413-.586h.76a1.54 1.54 0 01-.644 1.047c-.36.256-.81.384-1.355.384zm1.268-3.065v-.422c0-.43-.109-.76-.327-.99-.217-.237-.531-.355-.941-.355-.404 0-.717.118-.941.355-.218.23-.327.56-.327.99v.336h2.613l-.077.087zM93.231 82v-4.602H91.31v-.682h4.61v.682H94V82h-.769zm6.074.096c-.41 0-.765-.08-1.066-.24a1.76 1.76 0 01-.702-.701 2.128 2.128 0 01-.25-1.047v-1.5c0-.403.084-.752.25-1.046.167-.301.4-.532.702-.692.3-.166.656-.25 1.066-.25.41 0 .765.084 1.066.25.301.16.535.39.702.692.166.294.249.643.249 1.047v.932h-3.285v.567c0 .429.109.762.326.999.225.23.538.345.942.345.34 0 .615-.067.826-.201a.887.887 0 00.413-.586h.759c-.07.442-.285.79-.643 1.047-.359.256-.81.384-1.355.384zm1.268-3.065v-.422c0-.43-.109-.76-.327-.99-.217-.237-.531-.355-.941-.355-.404 0-.717.118-.942.355-.217.23-.326.56-.326.99v.336h2.613l-.077.087zm4.431 3.065a2.3 2.3 0 01-1.076-.24 1.763 1.763 0 01-.72-.682c-.167-.301-.25-.657-.25-1.067V78.61c0-.41.083-.762.25-1.057.173-.3.413-.532.72-.692a2.3 2.3 0 011.076-.24c.602 0 1.086.163 1.451.49.365.327.554.772.567 1.335h-.759c-.013-.365-.132-.646-.356-.845-.217-.198-.518-.298-.903-.298-.39 0-.701.116-.932.346-.23.224-.345.544-.345.96v1.5c0 .41.115.73.345.96.231.23.542.346.932.346.385 0 .686-.1.903-.298.224-.205.343-.487.356-.845h.759c-.013.563-.202 1.008-.567 1.335-.365.327-.849.49-1.451.49zM110.3 82v-4.602h-1.921v-.682h4.611v.682h-1.921V82h-.769zm4.133 0v-5.284h.74v3.007c0 .18-.006.372-.019.577a15.389 15.389 0 01-.067 1.018l2.238-4.602h.99V82h-.74v-3.007c0-.186.003-.378.009-.576l.039-.567a9.26 9.26 0 00.038-.461L115.413 82h-.98zm5.68 1.73v-7.014h.759v.932h.202l-.23.317c0-.416.134-.743.403-.98.275-.243.637-.365 1.086-.365.531 0 .954.176 1.268.529.32.345.48.82.48 1.421v1.566c0 .404-.074.753-.221 1.047a1.641 1.641 0 01-.615.673c-.256.16-.56.24-.912.24-.442 0-.801-.122-1.076-.365-.276-.243-.413-.57-.413-.98l.201.317h-.182l.009 1.076v1.585h-.759zm1.979-2.297c.385 0 .683-.115.894-.346.218-.23.326-.557.326-.98V78.61c0-.43-.108-.756-.326-.98-.211-.23-.509-.346-.894-.346-.371 0-.669.119-.893.355-.218.231-.327.554-.327.97v1.5c0 .416.109.742.327.98.224.23.522.345.893.345zm5.661.653c-.41 0-.765-.08-1.066-.24a1.693 1.693 0 01-.701-.691c-.167-.301-.25-.657-.25-1.067v-1.46c0-.416.083-.772.25-1.066.166-.301.4-.532.701-.692.301-.16.656-.24 1.066-.24.41 0 .766.08 1.067.24.301.16.534.39.701.692.166.294.25.647.25 1.056v1.47c0 .41-.084.766-.25 1.067a1.7 1.7 0 01-.701.691c-.301.16-.657.24-1.067.24zm0-.682c.397 0 .705-.112.923-.336.217-.224.326-.55.326-.98v-1.46c0-.43-.112-.756-.336-.98-.218-.224-.522-.336-.913-.336-.39 0-.698.112-.922.336-.218.224-.327.55-.327.98v1.46c0 .43.109.756.327.98.224.224.532.336.922.336zm3.749.596v-5.284h2.268c.525 0 .938.125 1.239.375.301.243.451.583.451 1.018 0 .365-.125.66-.374.884-.244.218-.57.327-.98.327v-.067c.442 0 .797.115 1.066.345.269.225.404.526.404.903 0 .468-.161.836-.481 1.105-.314.263-.749.394-1.306.394h-2.287zm.75-.672h1.537c.314 0 .563-.074.749-.221a.757.757 0 00.279-.615c0-.27-.093-.477-.279-.625-.186-.153-.435-.23-.749-.23h-1.537v1.69zm0-2.354h1.518c.281 0 .505-.07.672-.212a.703.703 0 00.259-.576.703.703 0 00-.259-.576c-.167-.148-.391-.221-.672-.221h-1.518v1.585zm6.467 3.122c-.557 0-.995-.14-1.316-.423-.32-.288-.48-.675-.48-1.162 0-.48.157-.858.471-1.134.314-.281.736-.422 1.268-.422h1.681v-.558c0-.352-.102-.624-.307-.816-.205-.192-.497-.288-.875-.288-.333 0-.611.073-.835.22a.818.818 0 00-.375.596h-.769c.064-.454.276-.816.634-1.085.366-.27.82-.404 1.365-.404.589 0 1.056.16 1.402.48.346.314.519.74.519 1.278V82h-.749v-1.028h-.125l.144-.154c0 .391-.151.702-.452.932-.301.23-.701.346-1.201.346zm.183-.615c.423 0 .769-.105 1.038-.317.269-.211.403-.487.403-.826v-.797h-1.672c-.301 0-.541.083-.72.25-.179.166-.269.393-.269.681 0 .308.109.555.327.74.217.18.515.27.893.27zm3.98.519v-5.284h.768v2.248h2.344v-2.248h.769V82h-.769v-2.344h-2.344V82h-.768zm5.689 0v-5.284h.74v3.007c0 .18-.006.372-.019.577a15.389 15.389 0 01-.067 1.018l2.238-4.602h.989V82h-.739v-3.007c0-.186.003-.378.009-.576l.039-.567a9.26 9.26 0 00.038-.461L149.551 82h-.98zm7.631.096c-.41 0-.766-.08-1.067-.24a1.756 1.756 0 01-.701-.701 2.123 2.123 0 01-.25-1.047v-1.5c0-.403.083-.752.25-1.046.166-.301.4-.532.701-.692.301-.166.657-.25 1.067-.25.409 0 .765.084 1.066.25.301.16.535.39.701.692.167.294.25.643.25 1.047v.932h-3.286v.567c0 .429.109.762.327.999.224.23.538.345.942.345.339 0 .614-.067.826-.201a.894.894 0 00.413-.586h.759c-.071.442-.285.79-.644 1.047-.359.256-.81.384-1.354.384zm1.268-3.065v-.422c0-.43-.109-.76-.327-.99-.218-.237-.532-.355-.941-.355-.404 0-.718.118-.942.355-.218.23-.327.56-.327.99v.336h2.613l-.076.087zM23.399 101v-5.284h3.881V101h-.768v-4.592h-2.345V101H23.4zm7.63.096c-.41 0-.765-.08-1.066-.24a1.762 1.762 0 01-.701-.701 2.13 2.13 0 01-.25-1.047v-1.5c0-.403.083-.752.25-1.046.166-.301.4-.532.7-.692.302-.166.657-.25 1.067-.25.41 0 .765.084 1.067.25.3.16.534.39.7.692.167.294.25.643.25 1.047v.932h-3.285v.567c0 .429.109.762.327.999.224.23.538.345.941.345.34 0 .615-.067.826-.201a.892.892 0 00.413-.586h.76a1.537 1.537 0 01-.644 1.047c-.359.256-.81.384-1.355.384zm1.268-3.065v-.422c0-.43-.109-.76-.326-.99-.218-.237-.532-.355-.942-.355-.403 0-.717.118-.941.355-.218.23-.327.56-.327.99v.336h2.613l-.077.087zm2.472 4.698v-7.013h.759v.932h.201l-.23.317c0-.416.134-.743.403-.98.276-.243.637-.365 1.086-.365.531 0 .954.176 1.268.529.32.345.48.82.48 1.421v1.566c0 .404-.073.753-.22 1.047a1.641 1.641 0 01-.616.673c-.256.16-.56.24-.912.24-.442 0-.8-.122-1.076-.365s-.413-.57-.413-.98l.201.317h-.182l.01 1.076v1.585h-.76zm1.979-2.296c.384 0 .682-.115.893-.346.218-.23.327-.557.327-.98V97.61c0-.43-.11-.756-.327-.98-.211-.23-.51-.346-.893-.346-.372 0-.67.119-.894.355-.218.231-.326.554-.326.97v1.5c0 .416.108.742.326.979.224.231.522.346.894.346zm5.66.663c-.41 0-.765-.08-1.066-.24a1.762 1.762 0 01-.701-.701 2.13 2.13 0 01-.25-1.047v-1.5c0-.403.083-.752.25-1.046.166-.301.4-.532.701-.692.301-.166.657-.25 1.066-.25.41 0 .766.084 1.067.25.3.16.535.39.701.692.167.294.25.643.25 1.047v.932H41.14v.567c0 .429.11.762.327.999.224.23.538.345.941.345.34 0 .615-.067.827-.201a.892.892 0 00.413-.586h.759a1.53 1.53 0 01-.644 1.047c-.359.256-.81.384-1.355.384zm1.268-3.065v-.422c0-.43-.108-.76-.326-.99-.218-.237-.532-.355-.942-.355-.403 0-.717.118-.941.355-.218.23-.327.56-.327.99v.336h2.613l-.077.087zm1.867 4.314v-1.998h.432c.109-.122.221-.34.336-.653.122-.32.186-.708.192-1.163l.058-2.815h3.362v4.631h.682v1.998h-.682V101h-3.698v1.345h-.682zm1.249-1.998h2.372v-3.949h-1.883l-.038 2.143c-.006.48-.06.874-.163 1.181-.103.308-.199.516-.288.625zm10.745.653v-5.284h2.267c.525 0 .938.125 1.24.375.3.243.45.583.45 1.018 0 .365-.124.66-.374.884-.243.218-.57.327-.98.327v-.067c.442 0 .798.115 1.067.345.269.225.403.526.403.903 0 .468-.16.836-.48 1.105-.314.263-.75.394-1.307.394h-2.286zm.75-.672h1.536c.314 0 .564-.074.75-.221a.76.76 0 00.278-.615c0-.27-.093-.477-.278-.625-.186-.153-.436-.23-.75-.23h-1.537v1.691zm0-2.354h1.517c.282 0 .506-.07.672-.212a.704.704 0 00.26-.576.704.704 0 00-.26-.576c-.166-.148-.39-.221-.672-.221h-1.518v1.585zm4.66 3.026v-5.284h.721v1.96h.471c.564 0 1.009.15 1.336.452.333.294.499.698.499 1.21s-.163.919-.49 1.22c-.326.295-.775.442-1.345.442h-1.191zm.721-.624h.471c.359 0 .637-.09.836-.269.205-.186.307-.442.307-.769s-.102-.58-.307-.759c-.199-.186-.477-.278-.836-.278h-.47v2.075zm2.998.624v-5.284h.72V101h-.72zm4.2.096a2.3 2.3 0 01-1.076-.24 1.764 1.764 0 01-.72-.682c-.167-.301-.25-.657-.25-1.067V97.61c0-.41.083-.762.25-1.057.173-.3.413-.532.72-.692a2.3 2.3 0 011.076-.24c.602 0 1.086.163 1.45.49.366.327.555.772.568 1.335h-.76c-.012-.365-.13-.646-.355-.845-.217-.198-.518-.298-.903-.298-.39 0-.701.116-.931.346-.231.224-.346.544-.346.96v1.5c0 .41.115.73.346.96.23.231.54.346.931.346.385 0 .686-.099.903-.298.224-.205.343-.487.356-.845h.759c-.013.563-.202 1.008-.567 1.335-.365.327-.849.49-1.45.49zm5.296-.096v-4.602h-1.921v-.682h4.611v.682h-1.921V101h-.769zm5.66.096c-.556 0-.995-.141-1.315-.423-.32-.288-.48-.675-.48-1.162 0-.48.156-.858.47-1.134.314-.281.737-.422 1.268-.422h1.681v-.558c0-.352-.102-.624-.307-.816-.205-.192-.496-.288-.874-.288-.333 0-.612.073-.836.22a.819.819 0 00-.375.596h-.768c.064-.454.275-.816.634-1.085.365-.27.82-.404 1.364-.404.59 0 1.057.16 1.403.48.346.314.518.74.518 1.278V101h-.749v-1.028h-.125l.144-.154c0 .391-.15.702-.451.932-.301.231-.701.346-1.201.346zm.183-.615c.423 0 .769-.105 1.038-.317.269-.211.403-.487.403-.826v-.797h-1.671c-.301 0-.541.083-.72.25-.18.166-.27.393-.27.681 0 .308.11.555.327.74.218.18.516.269.894.269zm3.98.519v-5.284h2.267c.526 0 .939.125 1.24.375.3.243.451.583.451 1.018 0 .365-.125.66-.375.884-.243.218-.57.327-.98.327v-.067c.443 0 .798.115 1.067.345.269.225.403.526.403.903 0 .468-.16.836-.48 1.105-.314.263-.75.394-1.306.394h-2.287zm.75-.672h1.537c.313 0 .563-.074.749-.221a.759.759 0 00.278-.615c0-.27-.092-.477-.278-.625-.186-.153-.436-.23-.75-.23h-1.537v1.691zm0-2.354h1.517c.282 0 .506-.07.673-.212a.704.704 0 00.26-.576.704.704 0 00-.26-.576c-.167-.148-.39-.221-.673-.221h-1.518v1.585zM91.703 101v-5.284h.768v2.22h1l1.565-2.22h.874l-1.777 2.517L95.95 101h-.894l-1.585-2.402h-.999V101h-.768zm7.601.086c-.41 0-.765-.08-1.066-.24a1.695 1.695 0 01-.702-.691c-.166-.301-.25-.657-.25-1.067v-1.46c0-.416.084-.772.25-1.066.167-.301.4-.532.702-.692.3-.16.656-.24 1.066-.24.41 0 .765.08 1.066.24.301.16.535.39.702.692.166.294.249.647.249 1.056v1.47c0 .41-.083.766-.249 1.067a1.7 1.7 0 01-.702.691c-.301.16-.656.24-1.066.24zm0-.682c.397 0 .704-.112.922-.336.218-.224.327-.55.327-.98v-1.46c0-.43-.112-.756-.336-.98-.218-.224-.522-.336-.913-.336-.39 0-.698.112-.922.336-.218.224-.327.55-.327.98v1.46c0 .43.109.756.327.98.224.224.531.336.922.336zm3.749.596v-5.284h.74v3.007c0 .18-.007.372-.019.577a15.389 15.389 0 01-.068 1.018l2.239-4.602h.989V101h-.74v-3.007c0-.186.004-.378.01-.576l.039-.567a9.26 9.26 0 00.038-.461L104.034 101h-.98zm1.979-6.158c-.455 0-.82-.125-1.095-.375-.269-.256-.404-.592-.404-1.008h.615c0 .262.077.474.231.634.16.16.374.24.643.24.276 0 .494-.08.654-.24.16-.16.24-.372.24-.634h.615c0 .416-.138.752-.413 1.008-.269.25-.631.375-1.086.375zm5.651 6.254c-.237 0-.426-.067-.566-.202-.135-.141-.202-.326-.202-.557 0-.243.067-.435.202-.576.14-.141.329-.212.566-.212.237 0 .423.07.557.212.141.14.212.333.212.576a.752.752 0 01-.212.557c-.134.135-.32.202-.557.202zM16.73 118.579c-.32 0-.583-.099-.788-.298-.199-.205-.298-.467-.298-.787 0-.321.1-.58.298-.779.205-.205.467-.307.788-.307.32 0 .58.102.778.307.205.199.307.458.307.779 0 .32-.102.582-.307.787-.199.199-.458.298-.778.298zM24.34 121l.71-1.825-2.065-5.188h.836l1.277 3.43a7.267 7.267 0 01.327 1.095l.115-.461a9.65 9.65 0 01.183-.634l1.143-3.43h.826L25.157 121h-.817zm6.688.096c-.615 0-1.098-.182-1.45-.548-.353-.365-.529-.867-.529-1.508v-2.459c0-.833.208-1.473.625-1.921.416-.449 1.011-.673 1.786-.673h1.307v.759H31.46c-.537 0-.947.16-1.23.48-.281.314-.422.766-.422 1.355v.663h.135l-.135.23c.006-.384.135-.685.384-.903.256-.217.606-.326 1.047-.326.564 0 1 .179 1.307.538.307.352.461.845.461 1.479v.778c0 .429-.08.798-.24 1.105a1.646 1.646 0 01-.672.711c-.295.16-.65.24-1.067.24zm0-.682c.39 0 .692-.118.903-.355.212-.237.317-.577.317-1.019v-.778c0-.435-.105-.775-.317-1.018-.211-.244-.512-.365-.903-.365-.39 0-.692.121-.903.365-.211.243-.317.583-.317 1.018v.778c0 .442.106.782.317 1.019.218.237.519.355.903.355zm5.69.682c-.41 0-.766-.08-1.067-.24a1.762 1.762 0 01-.7-.701 2.129 2.129 0 01-.25-1.048v-1.498c0-.404.083-.753.25-1.047.166-.301.4-.532.7-.692.301-.167.657-.25 1.067-.25.41 0 .765.083 1.066.25.301.16.535.391.701.692.167.294.25.643.25 1.047v.932H35.45v.566c0 .43.109.763.326 1 .224.23.538.345.942.345.34 0 .615-.067.826-.201a.892.892 0 00.413-.586h.759a1.53 1.53 0 01-.644 1.047c-.358.256-.81.384-1.354.384zm1.268-3.064v-.423c0-.429-.109-.759-.327-.99-.217-.237-.531-.355-.941-.355-.404 0-.718.118-.942.355-.217.231-.326.561-.326.99v.336h2.613l-.077.087zm1.866 4.313v-1.998h.432c.11-.122.221-.34.337-.654.121-.32.185-.707.192-1.162l.057-2.815h3.363v4.631h.682v1.998h-.682V121h-3.699v1.345h-.682zm1.249-1.998h2.373v-3.949h-1.883l-.039 2.143c-.006.48-.06.874-.163 1.181-.102.308-.198.516-.288.625zm5.056.653v-5.284h.74v3.007c0 .18-.007.372-.02.577a14.544 14.544 0 01-.067 1.018l2.238-4.602h.99V121h-.74v-3.007c0-.186.003-.378.01-.576.012-.199.025-.388.038-.567.02-.186.032-.34.038-.461L47.137 121h-.98zm5.017.067v-.72h.192c.275 0 .477-.112.605-.336.128-.231.195-.612.202-1.144l.067-3.151h3.487V121h-.768v-4.592h-1.97l-.057 2.488c-.007.5-.068.91-.183 1.23-.109.32-.275.557-.5.711-.217.153-.502.23-.854.23h-.221zm6.362-.067v-5.284h.74v3.007c0 .18-.007.372-.02.577a14.544 14.544 0 01-.067 1.018l2.239-4.602h.989V121h-.74v-3.007c0-.186.004-.378.01-.576l.038-.567c.02-.186.032-.34.039-.461L58.517 121h-.98zm7.64.096c-.41 0-.769-.08-1.076-.24a1.764 1.764 0 01-.72-.682c-.167-.301-.25-.657-.25-1.067v-1.498c0-.41.083-.762.25-1.057a1.75 1.75 0 01.72-.692c.307-.16.666-.24 1.076-.24.602 0 1.085.164 1.45.49.365.327.554.772.567 1.336h-.759c-.013-.366-.131-.647-.355-.846-.218-.198-.52-.298-.903-.298-.391 0-.702.116-.932.346-.23.224-.346.545-.346.961v1.498c0 .41.115.731.346.961.23.231.541.346.932.346.384 0 .685-.099.903-.298.224-.205.342-.487.355-.845h.76c-.014.563-.203 1.008-.568 1.335-.365.327-.848.49-1.45.49zm3.787-.096v-5.284h.76v1.941h1.584c.59 0 1.054.15 1.393.451.346.295.519.702.519 1.22 0 .513-.173.919-.519 1.22-.34.301-.804.452-1.393.452h-2.344zm.76-.692h1.584c.365 0 .644-.083.836-.249.192-.173.288-.417.288-.731 0-.313-.096-.554-.288-.72-.192-.173-.47-.259-.836-.259h-1.585v1.959zm10.572.692v-5.284h2.267c.525 0 .938.125 1.239.375.3.243.451.583.451 1.018 0 .365-.124.66-.374.884-.244.218-.57.327-.98.327v-.068c.442 0 .797.116 1.066.346.27.224.404.525.404.903 0 .468-.16.836-.48 1.105-.314.263-.75.394-1.307.394h-2.286zm.749-.672h1.537c.314 0 .564-.074.75-.221a.759.759 0 00.278-.615c0-.269-.093-.477-.279-.625-.186-.153-.435-.23-.75-.23h-1.536v1.691zm0-2.354h1.518c.281 0 .506-.071.672-.211a.706.706 0 00.26-.577.704.704 0 00-.26-.576c-.166-.148-.39-.221-.672-.221h-1.518v1.585zm12.58 3.122c-.41 0-.769-.08-1.076-.24a1.764 1.764 0 01-.72-.682c-.167-.301-.25-.657-.25-1.067v-1.498c0-.41.083-.762.25-1.057a1.75 1.75 0 01.72-.692c.307-.16.666-.24 1.076-.24.602 0 1.085.164 1.45.49.366.327.554.772.567 1.336h-.759c-.012-.366-.13-.647-.355-.846-.218-.198-.519-.298-.903-.298-.39 0-.701.116-.932.346-.23.224-.346.545-.346.961v1.498c0 .41.116.731.346.961.23.231.541.346.932.346.384 0 .685-.099.903-.298.224-.205.343-.487.355-.845h.76c-.014.563-.202 1.008-.567 1.335-.365.327-.849.49-1.451.49zM98.92 121v-4.602h-1.922v-.682h4.612v.682h-1.922V121h-.768zm5.661.096c-.558 0-.996-.141-1.317-.423-.32-.288-.48-.675-.48-1.162 0-.48.157-.858.471-1.134.314-.281.736-.422 1.268-.422h1.681v-.558c0-.352-.102-.624-.307-.816-.205-.192-.497-.288-.875-.288-.333 0-.611.073-.835.221a.816.816 0 00-.375.595h-.769c.065-.454.276-.816.635-1.085.365-.269.819-.404 1.364-.404.589 0 1.056.16 1.402.481.346.313.519.739.519 1.277V121h-.749v-1.028h-.125l.144-.154c0 .391-.151.702-.452.932-.301.231-.701.346-1.2.346zm.182-.615c.423 0 .769-.105 1.038-.317.269-.211.403-.487.403-.826v-.797h-1.671c-.301 0-.542.083-.721.249-.179.167-.269.394-.269.683 0 .307.109.554.327.739.217.18.515.269.893.269zm5.92.615c-.615 0-1.098-.182-1.45-.548-.353-.365-.529-.867-.529-1.508v-2.459c0-.833.208-1.473.625-1.921.416-.449 1.012-.673 1.787-.673h1.306v.759h-1.306c-.538 0-.948.16-1.23.48-.282.314-.423.766-.423 1.355v.663h.135l-.135.23c.007-.384.135-.685.385-.903.256-.217.605-.326 1.047-.326.563 0 .999.179 1.306.538.308.352.461.845.461 1.479v.778c0 .429-.08.798-.24 1.105a1.65 1.65 0 01-.672.711c-.295.16-.65.24-1.067.24zm0-.682c.391 0 .692-.118.903-.355.212-.237.317-.577.317-1.019v-.778c0-.435-.105-.775-.317-1.018-.211-.244-.512-.365-.903-.365-.39 0-.691.121-.903.365-.211.243-.317.583-.317 1.018v.778c0 .442.106.782.317 1.019.218.237.519.355.903.355zm3.749.586v-5.284h.74v3.007c0 .18-.006.372-.019.577a15.365 15.365 0 01-.067 1.018l2.238-4.602h.99V121h-.74v-3.007c0-.186.003-.378.009-.576l.039-.567a9.26 9.26 0 00.038-.461L115.413 121h-.98zm5.018.067v-.72h.192c.275 0 .477-.112.605-.336.128-.231.195-.612.202-1.144l.067-3.151h3.487V121h-.768v-4.592h-1.97l-.057 2.488c-.007.5-.068.91-.183 1.23-.109.32-.275.557-.499.711-.218.153-.503.23-.855.23h-.221zm6.41-.067v-5.284h.759v1.941h1.585c.589 0 1.053.15 1.393.451.346.295.519.702.519 1.22 0 .513-.173.919-.519 1.22-.34.301-.804.452-1.393.452h-2.344zm.759-.692h1.585c.365 0 .643-.083.836-.249.192-.173.288-.417.288-.731 0-.313-.096-.554-.288-.72-.193-.173-.471-.259-.836-.259h-1.585v1.959zm4.882.692v-5.284h.769v2.248h2.344v-2.248h.768V121h-.768v-2.344h-2.344V121h-.769zm7.631.086c-.41 0-.766-.08-1.067-.24a1.691 1.691 0 01-.701-.691c-.167-.301-.25-.657-.25-1.067v-1.46c0-.416.083-.772.25-1.066.166-.301.4-.532.701-.692.301-.16.657-.24 1.067-.24.409 0 .765.08 1.066.24.301.16.535.391.701.692.167.294.25.647.25 1.056v1.47c0 .41-.083.766-.25 1.067-.166.301-.4.531-.701.691-.301.16-.657.24-1.066.24zm0-.682c.397 0 .704-.112.922-.336.218-.224.326-.551.326-.98v-1.46c0-.429-.112-.756-.336-.98-.218-.224-.522-.336-.912-.336-.391 0-.699.112-.923.336-.217.224-.326.551-.326.98v1.46c0 .429.109.756.326.98.224.224.532.336.923.336zm3.749.596v-5.284h.739v3.007c0 .18-.006.372-.019.577a13.439 13.439 0 01-.067 1.018l2.238-4.602h.99V121h-.74v-3.007c0-.186.003-.378.01-.576.012-.199.025-.388.038-.567.019-.186.032-.34.039-.461L143.862 121h-.98zm1.979-6.158c-.455 0-.82-.125-1.096-.375-.269-.256-.403-.592-.403-1.008h.615c0 .262.077.474.23.634.161.16.375.24.644.24.275 0 .493-.08.653-.24.16-.16.24-.372.24-.634h.615c0 .416-.137.752-.413 1.008-.269.25-.631.375-1.085.375zM23.389 141.729v-7.013h.76v.932h.201l-.23.317c0-.416.134-.743.403-.98.275-.243.637-.365 1.085-.365.532 0 .955.176 1.269.529.32.345.48.819.48 1.421v1.566c0 .404-.074.753-.221 1.047a1.641 1.641 0 01-.615.673c-.256.16-.56.24-.913.24-.441 0-.8-.122-1.076-.365-.275-.243-.413-.57-.413-.98l.202.317h-.182l.01 1.076v1.585h-.76zm1.98-2.296c.384 0 .681-.115.893-.346.218-.23.326-.557.326-.98v-1.498c0-.429-.108-.756-.326-.98-.212-.231-.51-.346-.894-.346-.371 0-.669.119-.893.356-.218.23-.327.554-.327.97v1.498c0 .417.11.743.327.98.224.231.522.346.893.346zm5.247.663c-.557 0-.996-.141-1.316-.423-.32-.288-.48-.675-.48-1.162 0-.48.157-.858.47-1.134.314-.281.737-.422 1.268-.422h1.682v-.558c0-.352-.103-.624-.308-.816-.205-.192-.496-.288-.874-.288-.333 0-.612.073-.836.221a.817.817 0 00-.375.595h-.768a1.58 1.58 0 01.634-1.085c.365-.269.82-.404 1.364-.404.59 0 1.057.16 1.403.481.346.313.519.739.519 1.277V140h-.75v-1.028h-.125l.144-.154c0 .391-.15.702-.451.932-.301.231-.701.346-1.201.346zm.183-.615c.422 0 .768-.105 1.037-.317a1 1 0 00.404-.826v-.797h-1.672c-.301 0-.541.083-.72.249-.18.167-.27.394-.27.683 0 .307.11.554.327.739.218.18.516.269.894.269zm5.92.615c-.615 0-1.099-.182-1.45-.548-.353-.365-.53-.867-.53-1.508v-2.459c0-.833.209-1.473.625-1.921.417-.449 1.012-.673 1.787-.673h1.307v.759H37.15c-.538 0-.948.16-1.23.48-.281.314-.422.766-.422 1.355v.663h.134l-.134.23c.006-.384.134-.685.384-.903.256-.217.605-.326 1.047-.326.564 0 1 .179 1.307.538.307.352.46.845.46 1.479v.778c0 .429-.08.798-.24 1.105a1.645 1.645 0 01-.672.711c-.294.16-.65.24-1.066.24zm0-.682c.39 0 .691-.118.903-.355.211-.237.317-.577.317-1.019v-.778c0-.435-.106-.775-.317-1.018-.212-.244-.513-.365-.903-.365s-.692.121-.903.365c-.212.243-.317.583-.317 1.018v.778c0 .442.105.782.317 1.019.217.237.518.355.903.355zm5.69.672c-.41 0-.766-.08-1.067-.24a1.695 1.695 0 01-.701-.691c-.167-.301-.25-.657-.25-1.067v-1.46c0-.416.083-.772.25-1.066.166-.301.4-.532.701-.692.301-.16.657-.24 1.066-.24.41 0 .766.08 1.067.24.3.16.535.391.701.692.167.294.25.647.25 1.056v1.47c0 .41-.083.766-.25 1.067-.166.301-.4.531-.701.691-.301.16-.657.24-1.067.24zm0-.682c.397 0 .704-.112.922-.336.217-.224.326-.551.326-.98v-1.46c0-.429-.112-.756-.336-.98-.218-.224-.522-.336-.913-.336-.39 0-.698.112-.922.336-.218.224-.326.551-.326.98v1.46c0 .429.108.756.326.98.224.224.532.336.922.336zm5.305.596v-4.602h-1.922v-.682h4.612v.682h-1.922V140h-.768zm6.074.096c-.41 0-.766-.08-1.067-.24a1.762 1.762 0 01-.7-.701 2.13 2.13 0 01-.25-1.048v-1.498c0-.404.083-.753.25-1.047.166-.301.4-.532.7-.692.301-.167.657-.25 1.067-.25.41 0 .765.083 1.066.25.301.16.535.391.701.692.167.294.25.643.25 1.047v.932H52.52v.566c0 .43.108.763.326 1 .224.23.538.345.942.345.34 0 .615-.067.826-.201a.892.892 0 00.413-.586h.759a1.53 1.53 0 01-.644 1.047c-.358.256-.81.384-1.354.384zm1.268-3.064v-.423c0-.429-.109-.759-.327-.99-.218-.237-.531-.355-.941-.355-.404 0-.718.118-.942.355-.217.231-.326.561-.326.99v.336h2.613l-.077.087zm8.17 2.968v-5.284h3.882V140h-.769v-4.592h-2.344V140h-.768zm5.68 1.729v-7.013h.76v.932h.201l-.23.317c0-.416.134-.743.403-.98.275-.243.637-.365 1.086-.365.531 0 .954.176 1.268.529.32.345.48.819.48 1.421v1.566c0 .404-.073.753-.22 1.047a1.641 1.641 0 01-.616.673c-.256.16-.56.24-.912.24-.442 0-.8-.122-1.076-.365s-.413-.57-.413-.98l.201.317h-.182l.01 1.076v1.585h-.76zm1.98-2.296c.384 0 .682-.115.893-.346.218-.23.327-.557.327-.98v-1.498c0-.429-.11-.756-.327-.98-.211-.231-.51-.346-.894-.346-.37 0-.669.119-.893.356-.218.23-.327.554-.327.97v1.498c0 .417.11.743.327.98.224.231.522.346.893.346zm3.72.567v-5.284h.74v3.007c0 .18-.007.372-.02.577a14.544 14.544 0 01-.067 1.018l2.238-4.602h.99V140h-.74v-3.007c0-.186.003-.378.01-.576.013-.199.025-.388.038-.567.02-.186.032-.34.039-.461L75.586 140h-.98zm13.32.086c-.41 0-.766-.08-1.067-.24a1.695 1.695 0 01-.701-.691c-.166-.301-.25-.657-.25-1.067v-1.46c0-.416.084-.772.25-1.066a1.7 1.7 0 01.701-.692c.301-.16.657-.24 1.067-.24.41 0 .765.08 1.066.24.301.16.535.391.701.692.167.294.25.647.25 1.056v1.47c0 .41-.083.766-.25 1.067-.166.301-.4.531-.701.691-.301.16-.656.24-1.066.24zm0-.682c.397 0 .704-.112.922-.336.218-.224.327-.551.327-.98v-1.46c0-.429-.112-.756-.337-.98-.217-.224-.522-.336-.912-.336-.391 0-.698.112-.923.336-.217.224-.326.551-.326.98v1.46c0 .429.109.756.326.98.225.224.532.336.923.336zm3.134 1.941v-1.998h.432c.11-.122.221-.34.337-.654.121-.32.185-.707.192-1.162l.057-2.815h3.363v4.631h.682v1.998h-.682V140h-3.699v1.345h-.682zm1.249-1.998h2.373v-3.949h-1.883l-.039 2.143c-.006.48-.06.874-.163 1.181-.102.308-.198.516-.288.625zm5.055.653v-5.284h.769v2.248h2.344v-2.248h.769V140h-.769v-2.344h-2.344V140h-.769zm7.631.086c-.41 0-.766-.08-1.067-.24a1.697 1.697 0 01-.701-.691c-.167-.301-.25-.657-.25-1.067v-1.46c0-.416.083-.772.25-1.066a1.7 1.7 0 01.701-.692c.301-.16.657-.24 1.067-.24.41 0 .765.08 1.066.24.301.16.535.391.701.692.167.294.25.647.25 1.056v1.47c0 .41-.083.766-.25 1.067-.166.301-.4.531-.701.691-.301.16-.656.24-1.066.24zm0-.682c.397 0 .704-.112.922-.336.218-.224.327-.551.327-.98v-1.46c0-.429-.113-.756-.337-.98-.217-.224-.522-.336-.912-.336-.391 0-.698.112-.923.336-.217.224-.326.551-.326.98v1.46c0 .429.109.756.326.98.225.224.532.336.923.336zm3.749.596v-5.284h2.267c.525 0 .938.125 1.239.375.301.243.452.583.452 1.018 0 .365-.125.66-.375.884-.243.218-.57.327-.98.327v-.068c.442 0 .798.116 1.067.346.269.224.403.525.403.903 0 .468-.16.836-.48 1.105-.314.263-.75.394-1.307.394h-2.286zm.749-.672h1.537c.314 0 .564-.074.749-.221a.758.758 0 00.279-.615c0-.269-.093-.477-.279-.625-.185-.153-.435-.23-.749-.23h-1.537v1.691zm0-2.354h1.518c.282 0 .506-.071.672-.211a.706.706 0 00.26-.577.704.704 0 00-.26-.576c-.166-.148-.39-.221-.672-.221h-1.518v1.585zm4.931 4.755v-7.013h.759v.932h.201l-.23.317c0-.416.134-.743.403-.98.276-.243.638-.365 1.086-.365.532 0 .954.176 1.268.529.32.345.48.819.48 1.421v1.566c0 .404-.073.753-.221 1.047a1.641 1.641 0 01-.614.673c-.257.16-.561.24-.913.24-.442 0-.801-.122-1.076-.365s-.413-.57-.413-.98l.202.317h-.183l.01 1.076v1.585h-.759zm1.979-2.296c.384 0 .682-.115.893-.346.218-.23.327-.557.327-.98v-1.498c0-.429-.109-.756-.327-.98-.211-.231-.509-.346-.893-.346-.372 0-.669.119-.894.356-.217.23-.326.554-.326.97v1.498c0 .417.109.743.326.98.225.231.522.346.894.346zm5.661.663c-.41 0-.766-.08-1.067-.24a1.758 1.758 0 01-.701-.701 2.124 2.124 0 01-.25-1.048v-1.498c0-.404.083-.753.25-1.047.166-.301.4-.532.701-.692.301-.167.657-.25 1.067-.25.409 0 .765.083 1.066.25.301.16.535.391.701.692.167.294.25.643.25 1.047v.932h-3.285v.566c0 .43.108.763.326 1 .224.23.538.345.942.345.339 0 .614-.067.826-.201a.892.892 0 00.413-.586h.759a1.534 1.534 0 01-.644 1.047c-.358.256-.81.384-1.354.384zm1.268-3.064v-.423c0-.429-.109-.759-.327-.99-.218-.237-.532-.355-.941-.355-.404 0-.718.118-.942.355-.218.231-.326.561-.326.99v.336h2.613l-.077.087zM125.64 140v-5.284h1.057l.768 2.152c.064.186.125.375.183.567.057.192.099.343.124.452.032-.109.074-.26.125-.452.058-.192.119-.384.183-.576l.74-2.143h1.047V140h-.74v-1.268c0-.275.003-.57.01-.884l.019-.941c.006-.314.016-.609.029-.884.012-.282.022-.529.028-.74l-1.047 3.132h-.807l-1.047-3.113c.013.256.023.58.029.971l.019 1.22c.013.429.019.842.019 1.239V140h-.739zm7.803.096c-.41 0-.765-.08-1.066-.24a1.767 1.767 0 01-.702-.701 2.135 2.135 0 01-.25-1.048v-1.498c0-.404.084-.753.25-1.047.167-.301.401-.532.702-.692.301-.167.656-.25 1.066-.25.41 0 .765.083 1.066.25.301.16.535.391.702.692.166.294.249.643.249 1.047v.932h-3.285v.566c0 .43.109.763.326 1 .225.23.538.345.942.345.339 0 .615-.067.826-.201a.889.889 0 00.413-.586h.759a1.53 1.53 0 01-.644 1.047c-.358.256-.81.384-1.354.384zm1.268-3.064v-.423c0-.429-.109-.759-.327-.99-.217-.237-.531-.355-.941-.355-.404 0-.717.118-.942.355-.217.231-.326.561-.326.99v.336h2.613l-.077.087zm2.481 2.968v-5.284h.769v2.248h2.344v-2.248h.768V140h-.768v-2.344h-2.344V140h-.769zm5.69 0v-5.284h.768v2.248h2.344v-2.248h.769V140h-.769v-2.344h-2.344V140h-.768zm7.63.086c-.41 0-.765-.08-1.066-.24a1.7 1.7 0 01-.702-.691c-.166-.301-.25-.657-.25-1.067v-1.46c0-.416.084-.772.25-1.066.167-.301.401-.532.702-.692.301-.16.656-.24 1.066-.24.41 0 .765.08 1.066.24.301.16.535.391.702.692.166.294.249.647.249 1.056v1.47c0 .41-.083.766-.249 1.067a1.7 1.7 0 01-.702.691c-.301.16-.656.24-1.066.24zm0-.682c.397 0 .704-.112.922-.336.218-.224.327-.551.327-.98v-1.46c0-.429-.112-.756-.336-.98-.218-.224-.522-.336-.913-.336s-.698.112-.922.336c-.218.224-.327.551-.327.98v1.46c0 .429.109.756.327.98.224.224.531.336.922.336zm3.576.596v-5.284h1.057l.768 2.152c.064.186.125.375.183.567.058.192.099.343.125.452.032-.109.073-.26.125-.452.057-.192.118-.384.182-.576l.74-2.143h1.047V140h-.74v-1.268c0-.275.004-.57.01-.884l.019-.941c.007-.314.016-.609.029-.884.013-.282.022-.529.029-.74l-1.047 3.132h-.807l-1.047-3.113c.012.256.022.58.028.971l.02 1.22c.012.429.019.842.019 1.239V140h-.74zm-130.69 19v-5.284h.74v3.007c0 .18-.006.372-.019.577a14.544 14.544 0 01-.067 1.018l2.239-4.602h.989V159h-.74v-3.007c0-.186.004-.378.01-.576l.038-.567c.02-.186.032-.34.039-.461L24.379 159h-.98zm7.64.096c-.41 0-.768-.08-1.075-.24a1.764 1.764 0 01-.72-.682c-.167-.301-.25-.657-.25-1.067v-1.498c0-.41.083-.762.25-1.057a1.75 1.75 0 01.72-.692c.307-.16.666-.24 1.076-.24.602 0 1.085.164 1.45.49.365.327.554.772.567 1.336h-.759c-.013-.366-.131-.647-.355-.846-.218-.198-.519-.298-.903-.298-.39 0-.702.116-.932.346-.23.224-.346.545-.346.961v1.498c0 .41.115.731.346.961.23.231.541.346.932.346.384 0 .685-.099.903-.298.224-.205.342-.487.355-.845h.76c-.014.563-.203 1.008-.568 1.335-.365.327-.848.49-1.45.49zm3.74-.096v-5.284h3.881V159h-.768v-4.592h-2.344V159h-.769zm7.63.086c-.41 0-.765-.08-1.066-.24a1.695 1.695 0 01-.701-.691c-.167-.301-.25-.657-.25-1.067v-1.46c0-.416.083-.772.25-1.066.166-.301.4-.532.701-.692.301-.16.657-.24 1.066-.24.41 0 .766.08 1.067.24.3.16.535.391.701.692.167.294.25.647.25 1.056v1.47c0 .41-.083.766-.25 1.067-.166.301-.4.531-.701.691-.301.16-.657.24-1.067.24zm0-.682c.398 0 .705-.112.923-.336.217-.224.326-.551.326-.98v-1.46c0-.429-.112-.756-.336-.98-.218-.224-.522-.336-.913-.336-.39 0-.698.112-.922.336-.218.224-.326.551-.326.98v1.46c0 .429.108.756.326.98.224.224.532.336.922.336zm3.077.663v-.72h.192c.276 0 .477-.112.605-.336.129-.231.196-.612.202-1.144l.067-3.151h3.488V159h-.769v-4.592H47.3l-.057 2.488c-.006.5-.067.91-.182 1.23-.11.32-.276.557-.5.711-.218.153-.503.23-.855.23h-.22zm6.41-.067v-5.284h.76v1.941h1.584c.59 0 1.054.15 1.393.451.346.295.519.702.519 1.22 0 .513-.173.919-.519 1.22-.34.301-.803.452-1.393.452h-2.344zm.76-.692h1.584c.365 0 .644-.083.836-.249.192-.173.288-.417.288-.731 0-.313-.096-.554-.288-.72-.192-.173-.47-.259-.836-.259h-1.585v1.959zm6.573.769c-.551 0-.996-.119-1.336-.356a1.43 1.43 0 01-.614-.96h.797c.051.185.176.339.374.461.205.115.465.173.779.173h.47c.327 0 .583-.08.769-.24a.794.794 0 00.288-.625.849.849 0 00-.269-.653c-.18-.167-.435-.25-.768-.25h-1.182v-.663h1.162c.301 0 .532-.077.692-.23a.775.775 0 00.25-.596.79.79 0 00-.115-.432.726.726 0 00-.337-.279 1.173 1.173 0 00-.509-.105h-.5c-.288 0-.525.064-.71.192a.758.758 0 00-.346.47h-.797c.063-.397.259-.72.585-.97.334-.25.756-.375 1.269-.375h.5c.358 0 .668.061.931.183a1.4 1.4 0 01.605.509c.148.218.221.474.221.769 0 .32-.1.586-.298.797-.192.205-.464.32-.816.346v.038c.422.026.733.151.932.375.198.218.297.519.297.903 0 .455-.17.823-.509 1.105-.333.275-.781.413-1.345.413h-.47zm5.94.009c-.41 0-.766-.08-1.067-.24a1.695 1.695 0 01-.702-.691c-.166-.301-.25-.657-.25-1.067v-1.46c0-.416.084-.772.25-1.066.167-.301.4-.532.702-.692.3-.16.656-.24 1.066-.24.41 0 .765.08 1.066.24.301.16.535.391.702.692.166.294.25.647.25 1.056v1.47c0 .41-.084.766-.25 1.067-.167.301-.4.531-.702.691-.3.16-.656.24-1.066.24zm0-.682c.396 0 .704-.112.921-.336.218-.224.327-.551.327-.98v-1.46c0-.429-.112-.756-.336-.98-.218-.224-.522-.336-.913-.336-.39 0-.698.112-.922.336-.218.224-.327.551-.327.98v1.46c0 .429.11.756.327.98.224.224.531.336.922.336zm3.748.596v-5.284h2.267c.525 0 .939.125 1.24.375.3.243.451.583.451 1.018 0 .365-.125.66-.374.884-.244.218-.57.327-.98.327v-.068c.442 0 .797.116 1.066.346.269.224.403.525.403.903 0 .468-.16.836-.48 1.105-.314.263-.75.394-1.306.394h-2.287zm.75-.672h1.537c.313 0 .563-.074.749-.221a.759.759 0 00.279-.615c0-.269-.093-.477-.28-.625-.185-.153-.435-.23-.748-.23h-1.538v1.691zm0-2.354h1.517c.282 0 .506-.071.673-.211a.706.706 0 00.26-.577.704.704 0 00-.26-.576c-.167-.148-.39-.221-.673-.221h-1.518v1.585zm6.467 3.122c-.557 0-.996-.141-1.316-.423-.32-.288-.48-.675-.48-1.162 0-.48.157-.858.47-1.134.314-.281.737-.422 1.269-.422h1.68v-.558c0-.352-.102-.624-.307-.816-.204-.192-.496-.288-.874-.288-.333 0-.611.073-.836.221a.817.817 0 00-.374.595h-.769a1.58 1.58 0 01.634-1.085c.365-.269.82-.404 1.364-.404.59 0 1.057.16 1.403.481.346.313.519.739.519 1.277V159h-.75v-1.028h-.125l.145-.154c0 .391-.15.702-.452.932-.3.231-.701.346-1.2.346zm.183-.615c.422 0 .768-.105 1.037-.317a1 1 0 00.404-.826v-.797h-1.672c-.3 0-.54.083-.72.249-.18.167-.27.394-.27.683 0 .307.11.554.327.739.218.18.516.269.894.269zm3.98.519v-5.284h.768v2.248h2.344v-2.248h.769V159h-.769v-2.344h-2.344V159h-.768zm5.69 0v-5.284h.739v3.007c0 .18-.007.372-.02.577a14.544 14.544 0 01-.067 1.018l2.239-4.602h.99V159h-.74v-3.007c0-.186.003-.378.01-.576.012-.199.025-.388.038-.567a9.26 9.26 0 00.038-.461L86.965 159h-.98zm5.689 0v-5.284h.74v3.007c0 .18-.007.372-.02.577a14.544 14.544 0 01-.067 1.018l2.238-4.602h.99V159h-.74v-3.007c0-.186.003-.378.01-.576.013-.199.025-.388.038-.567.02-.186.032-.34.039-.461L92.655 159h-.98zm13.32.096c-.615 0-1.099-.182-1.451-.548-.352-.365-.528-.867-.528-1.508v-2.459c0-.833.208-1.473.624-1.921.416-.449 1.012-.673 1.787-.673h1.306v.759h-1.306c-.538 0-.948.16-1.23.48-.282.314-.422.766-.422 1.355v.663h.134l-.134.23c.006-.384.134-.685.384-.903.256-.217.605-.326 1.047-.326.564 0 .999.179 1.307.538.307.352.461.845.461 1.479v.778c0 .429-.08.798-.241 1.105a1.638 1.638 0 01-.672.711c-.295.16-.65.24-1.066.24zm0-.682c.39 0 .691-.118.903-.355.211-.237.317-.577.317-1.019v-.778c0-.435-.106-.775-.317-1.018-.212-.244-.513-.365-.903-.365-.391 0-.692.121-.903.365-.212.243-.317.583-.317 1.018v.778c0 .442.105.782.317 1.019.217.237.518.355.903.355zm5.689.672c-.41 0-.765-.08-1.066-.24a1.691 1.691 0 01-.701-.691c-.167-.301-.25-.657-.25-1.067v-1.46c0-.416.083-.772.25-1.066.166-.301.4-.532.701-.692.301-.16.656-.24 1.066-.24.41 0 .766.08 1.067.24a1.7 1.7 0 01.701.692c.166.294.25.647.25 1.056v1.47c0 .41-.084.766-.25 1.067-.167.301-.4.531-.701.691-.301.16-.657.24-1.067.24zm0-.682c.397 0 .705-.112.923-.336.217-.224.326-.551.326-.98v-1.46c0-.429-.112-.756-.336-.98-.218-.224-.522-.336-.913-.336-.39 0-.698.112-.922.336-.218.224-.327.551-.327.98v1.46c0 .429.109.756.327.98.224.224.532.336.922.336zm3.077.663v-.72h.192c.275 0 .477-.112.605-.336.128-.231.196-.612.202-1.144l.067-3.151h3.488V159h-.769v-4.592h-1.969l-.058 2.488c-.006.5-.067.91-.183 1.23-.108.32-.275.557-.499.711-.218.153-.503.23-.855.23h-.221zm6.41-.067v-5.284h.759v1.941h1.585c.589 0 1.054.15 1.393.451.346.295.519.702.519 1.22 0 .513-.173.919-.519 1.22-.339.301-.804.452-1.393.452h-2.344zm.759-.692h1.585c.365 0 .644-.083.836-.249.192-.173.288-.417.288-.731 0-.313-.096-.554-.288-.72-.192-.173-.471-.259-.836-.259h-1.585v1.959zm4.604.692l-.019-5.284h.72v4.698h1.211v-4.698h.634v4.698h1.201v-4.698h.711V159h-4.458zm7.909.086c-.41 0-.765-.08-1.066-.24a1.7 1.7 0 01-.702-.691c-.166-.301-.25-.657-.25-1.067v-1.46c0-.416.084-.772.25-1.066.167-.301.401-.532.702-.692.301-.16.656-.24 1.066-.24.41 0 .765.08 1.066.24.301.16.535.391.702.692.166.294.249.647.249 1.056v1.47c0 .41-.083.766-.249 1.067a1.7 1.7 0 01-.702.691c-.301.16-.656.24-1.066.24zm0-.682c.397 0 .704-.112.922-.336.218-.224.327-.551.327-.98v-1.46c0-.429-.112-.756-.336-.98-.218-.224-.522-.336-.913-.336s-.698.112-.922.336c-.218.224-.327.551-.327.98v1.46c0 .429.109.756.327.98.224.224.531.336.922.336zm4.095.596v-5.284h3.746v.692h-2.987V159h-.759zm7.284.086c-.41 0-.765-.08-1.066-.24a1.691 1.691 0 01-.701-.691c-.167-.301-.25-.657-.25-1.067v-1.46c0-.416.083-.772.25-1.066.166-.301.4-.532.701-.692.301-.16.656-.24 1.066-.24.41 0 .766.08 1.067.24a1.7 1.7 0 01.701.692c.166.294.25.647.25 1.056v1.47c0 .41-.084.766-.25 1.067-.167.301-.4.531-.701.691-.301.16-.657.24-1.067.24zm0-.682c.397 0 .705-.112.922-.336.218-.224.327-.551.327-.98v-1.46c0-.429-.112-.756-.336-.98-.218-.224-.522-.336-.913-.336-.39 0-.698.112-.922.336-.218.224-.327.551-.327.98v1.46c0 .429.109.756.327.98.224.224.532.336.922.336zM26.463 178v-1.95a4.434 4.434 0 01-.48.077 8.447 8.447 0 01-.73.029c-.634.006-1.127-.151-1.48-.471-.345-.32-.518-.772-.518-1.355v-1.614h.759v1.614c0 .359.109.637.326.836.224.199.542.298.951.298.295 0 .545-.01.75-.029.205-.026.346-.048.422-.067v-2.652h.76V178h-.76zm2.626 0v-5.284h.74v3.007c0 .18-.007.372-.02.577a14.544 14.544 0 01-.067 1.018l2.238-4.602h.99V178h-.74v-3.007c0-.186.003-.378.01-.576.012-.199.025-.388.038-.567.02-.186.032-.34.038-.461L30.068 178h-.98zm7.64.096a2.3 2.3 0 01-1.077-.24 1.765 1.765 0 01-.72-.682c-.167-.301-.25-.657-.25-1.067v-1.498c0-.41.083-.762.25-1.057a1.75 1.75 0 01.72-.692 2.3 2.3 0 011.076-.24c.602 0 1.086.164 1.451.49.365.327.554.772.567 1.336h-.76c-.012-.366-.13-.647-.355-.846-.217-.198-.518-.298-.903-.298-.39 0-.7.116-.931.346-.231.224-.346.545-.346.961v1.498c0 .41.115.731.346.961.23.231.54.346.931.346.385 0 .686-.099.903-.298.225-.205.343-.487.356-.845h.759c-.013.563-.202 1.008-.567 1.335-.365.327-.849.49-1.45.49zm3.066-.029v-.72h.192c.276 0 .478-.112.606-.336.128-.231.195-.612.201-1.144l.068-3.151h3.487V178h-.768v-4.592h-1.97l-.058 2.488c-.006.5-.067.91-.182 1.23-.109.32-.276.557-.5.711-.217.153-.502.23-.855.23h-.22zm7.89.029c-.557 0-.996-.141-1.316-.423-.32-.288-.48-.675-.48-1.162 0-.48.156-.858.47-1.134.314-.281.737-.422 1.268-.422h1.681v-.558c0-.352-.102-.624-.307-.816-.205-.192-.496-.288-.874-.288-.333 0-.612.073-.836.221a.817.817 0 00-.374.595h-.77a1.58 1.58 0 01.635-1.085c.365-.269.82-.404 1.364-.404.59 0 1.057.16 1.403.481.346.313.519.739.519 1.277V178h-.75v-1.028h-.125l.144-.154c0 .391-.15.702-.451.932-.301.231-.701.346-1.201.346zm.182-.615c.423 0 .77-.105 1.038-.317.269-.211.404-.487.404-.826v-.797h-1.672c-.301 0-.541.083-.72.249-.18.167-.27.394-.27.683 0 .307.11.554.327.739.218.18.516.269.894.269zm9.67.519v-5.284h3.881V178h-.769v-4.592h-2.344V178h-.768zm7.63.086c-.41 0-.765-.08-1.066-.24a1.695 1.695 0 01-.702-.691c-.166-.301-.25-.657-.25-1.067v-1.46c0-.416.084-.772.25-1.066.167-.301.4-.532.702-.692.3-.16.656-.24 1.066-.24.41 0 .765.08 1.066.24.301.16.535.391.702.692.166.294.25.647.25 1.056v1.47c0 .41-.084.766-.25 1.067-.167.301-.4.531-.702.691-.3.16-.656.24-1.066.24zm0-.682c.397 0 .705-.112.922-.336.218-.224.327-.551.327-.98v-1.46c0-.429-.112-.756-.336-.98-.218-.224-.522-.336-.913-.336-.39 0-.698.112-.922.336-.218.224-.327.551-.327.98v1.46c0 .429.11.756.327.98.224.224.531.336.922.336zm3.077.663v-.72h.192c.275 0 .477-.112.605-.336.128-.231.195-.612.202-1.144l.067-3.151h3.487V178h-.768v-4.592h-1.97l-.057 2.488c-.007.5-.067.91-.183 1.23-.109.32-.275.557-.5.711-.217.153-.502.23-.854.23h-.221zm6.41-.067v-5.284h.759v1.941h1.585c.59 0 1.053.15 1.393.451.346.295.519.702.519 1.22 0 .513-.173.919-.52 1.22-.339.301-.803.452-1.392.452h-2.344zm.759-.692h1.585c.365 0 .643-.083.836-.249.192-.173.288-.417.288-.731 0-.313-.096-.554-.288-.72-.193-.173-.471-.259-.836-.259h-1.585v1.959zm6.573.769c-.55 0-.996-.119-1.335-.356a1.43 1.43 0 01-.615-.96h.797c.052.185.177.339.375.461.205.115.464.173.778.173h.471c.327 0 .583-.08.769-.24a.794.794 0 00.288-.625.848.848 0 00-.27-.653c-.179-.167-.435-.25-.768-.25h-1.181v-.663h1.162c.301 0 .532-.077.692-.23a.775.775 0 00.25-.596.791.791 0 00-.116-.432.727.727 0 00-.336-.279 1.173 1.173 0 00-.51-.105h-.499c-.288 0-.525.064-.71.192a.758.758 0 00-.346.47h-.798c.064-.397.26-.72.586-.97.333-.25.756-.375 1.268-.375h.5c.358 0 .669.061.932.183a1.4 1.4 0 01.605.509c.147.218.22.474.22.769 0 .32-.098.586-.297.797-.192.205-.464.32-.817.346v.038c.423.026.734.151.932.375.199.218.298.519.298.903 0 .455-.17.823-.51 1.105-.332.275-.78.413-1.344.413h-.47zm5.94.009c-.41 0-.766-.08-1.067-.24a1.695 1.695 0 01-.701-.691c-.166-.301-.25-.657-.25-1.067v-1.46c0-.416.084-.772.25-1.066a1.7 1.7 0 01.701-.692c.301-.16.657-.24 1.067-.24.41 0 .765.08 1.066.24.301.16.535.391.701.692.167.294.25.647.25 1.056v1.47c0 .41-.083.766-.25 1.067-.166.301-.4.531-.701.691-.301.16-.656.24-1.066.24zm0-.682c.397 0 .704-.112.922-.336.218-.224.327-.551.327-.98v-1.46c0-.429-.112-.756-.337-.98-.217-.224-.522-.336-.912-.336-.391 0-.698.112-.923.336-.217.224-.326.551-.326.98v1.46c0 .429.109.756.326.98.225.224.532.336.923.336zm3.749.596v-5.284h2.267c.525 0 .938.125 1.24.375.3.243.45.583.45 1.018 0 .365-.124.66-.374.884-.243.218-.57.327-.98.327v-.068c.442 0 .798.116 1.066.346.27.224.404.525.404.903 0 .468-.16.836-.48 1.105-.314.263-.75.394-1.307.394h-2.286zm.75-.672h1.536c.314 0 .564-.074.75-.221a.759.759 0 00.278-.615c0-.269-.093-.477-.279-.625-.185-.153-.435-.23-.749-.23h-1.537v1.691zm0-2.354h1.517c.282 0 .506-.071.672-.211a.705.705 0 00.26-.577.703.703 0 00-.26-.576c-.166-.148-.39-.221-.672-.221h-1.518v1.585zm6.467 3.122c-.557 0-.996-.141-1.316-.423-.32-.288-.48-.675-.48-1.162 0-.48.156-.858.47-1.134.314-.281.737-.422 1.268-.422h1.681v-.558c0-.352-.102-.624-.307-.816-.205-.192-.496-.288-.874-.288-.333 0-.612.073-.836.221a.817.817 0 00-.375.595h-.768a1.58 1.58 0 01.634-1.085c.365-.269.82-.404 1.364-.404.59 0 1.057.16 1.403.481.345.313.518.739.518 1.277V178h-.749v-1.028h-.125l.144-.154c0 .391-.15.702-.451.932-.301.231-.702.346-1.201.346zm.182-.615c.423 0 .769-.105 1.038-.317.269-.211.403-.487.403-.826v-.797h-1.671c-.301 0-.541.083-.72.249-.18.167-.27.394-.27.683 0 .307.11.554.327.739.218.18.516.269.893.269zm5.536.519v-4.602h-1.921v-.682h4.611v.682h-1.921V178h-.769zm6.074.096c-.41 0-.765-.08-1.066-.24a1.758 1.758 0 01-.701-.701 2.124 2.124 0 01-.25-1.048v-1.498c0-.404.083-.753.25-1.047.166-.301.4-.532.701-.692.301-.167.656-.25 1.066-.25.41 0 .766.083 1.067.25a1.7 1.7 0 01.701.692c.166.294.25.643.25 1.047v.932h-3.286v.566c0 .43.109.763.327 1 .224.23.538.345.941.345.34 0 .615-.067.826-.201a.893.893 0 00.414-.586h.759a1.534 1.534 0 01-.644 1.047c-.359.256-.81.384-1.355.384zm1.268-3.064v-.423c0-.429-.108-.759-.326-.99-.218-.237-.532-.355-.942-.355-.403 0-.717.118-.941.355-.218.231-.327.561-.327.99v.336h2.613l-.077.087zm1.809 3.035v-.72h.192c.275 0 .477-.112.605-.336.128-.231.196-.612.202-1.144l.067-3.151h3.488V178h-.769v-4.592h-1.969l-.058 2.488c-.006.5-.067.91-.183 1.23-.108.32-.275.557-.499.711-.218.153-.503.23-.855.23h-.221zm8.303.029c-.41 0-.766-.08-1.067-.24a1.758 1.758 0 01-.701-.701 2.124 2.124 0 01-.25-1.048v-1.498c0-.404.083-.753.25-1.047.166-.301.4-.532.701-.692.301-.167.657-.25 1.067-.25.409 0 .765.083 1.066.25.301.16.535.391.701.692.167.294.25.643.25 1.047v.932h-3.285v.566c0 .43.108.763.326 1 .224.23.538.345.942.345.339 0 .614-.067.826-.201a.892.892 0 00.413-.586h.759a1.534 1.534 0 01-.644 1.047c-.358.256-.81.384-1.354.384zm1.268-3.064v-.423c0-.429-.109-.759-.327-.99-.218-.237-.532-.355-.941-.355-.404 0-.718.118-.942.355-.218.231-.326.561-.326.99v.336h2.613l-.077.087zm2.481 2.968v-5.284h.739v3.007c0 .18-.006.372-.019.577a13.439 13.439 0 01-.067 1.018l2.238-4.602h.99V178h-.74v-3.007c0-.186.003-.378.01-.576.013-.199.025-.388.038-.567.019-.186.032-.34.039-.461L126.793 178h-.98zm1.979-6.158c-.455 0-.82-.125-1.095-.375-.269-.256-.404-.592-.404-1.008h.615c0 .262.077.474.23.634.161.16.375.24.644.24.275 0 .493-.08.653-.24.16-.16.241-.372.241-.634h.614c0 .416-.137.752-.413 1.008-.269.25-.631.375-1.085.375zm5.651 6.254c-.237 0-.426-.067-.567-.202a.775.775 0 01-.202-.557c0-.243.068-.435.202-.576.141-.141.33-.212.567-.212.237 0 .423.071.557.212.141.141.211.333.211.576 0 .231-.07.416-.211.557-.134.135-.32.202-.557.202z" fill="#fff"/><path d="M15.235 22.969V17.07H13.4v-1.114h4.88v1.114h-1.834v5.899h-1.21zm6.305.096c-.448 0-.84-.087-1.172-.26a1.923 1.923 0 01-.778-.72 2.169 2.169 0 01-.27-1.095v-1.326c0-.416.09-.778.27-1.086.185-.313.445-.557.778-.73.333-.173.724-.259 1.172-.259.442 0 .826.086 1.153.26.333.172.589.416.768.73.186.307.279.669.279 1.085v.951h-3.257v.375c0 .371.09.653.269.845.18.186.445.279.797.279.27 0 .487-.045.654-.135a.642.642 0 00.317-.413h1.18c-.09.455-.333.82-.73 1.095-.39.27-.868.404-1.431.404zm1.037-3.122v-.289c0-.365-.086-.643-.26-.835-.172-.199-.431-.298-.777-.298-.346 0-.609.1-.788.298-.18.198-.269.48-.269.845v.202l2.18-.02-.086.097zm4.662 3.122c-.448 0-.842-.083-1.182-.25a1.922 1.922 0 01-.778-.72c-.186-.314-.278-.682-.278-1.105v-1.326c0-.43.092-.797.278-1.105.186-.307.445-.544.778-.71.34-.174.734-.26 1.182-.26.666 0 1.198.173 1.595.519.397.34.605.803.624 1.393h-1.2c-.02-.276-.12-.487-.299-.634-.172-.154-.412-.23-.72-.23-.32 0-.573.089-.759.268-.186.173-.279.423-.279.75v1.335c0 .326.093.58.28.759.185.179.438.269.758.269.308 0 .548-.074.72-.221.18-.154.28-.369.298-.644h1.201c-.019.59-.227 1.057-.624 1.403-.397.34-.929.509-1.595.509zm5.065-.096v-4.18h-1.806v-1.104h4.823v1.105h-1.806v4.179h-1.21zm4.162 0v-5.284h1.086v2.604c0 .166-.01.364-.029.595a14.016 14.016 0 01-.135 1.23l1.864-4.429h1.48v5.284h-1.086v-2.604c0-.173.007-.365.02-.576l.057-.625c.026-.205.051-.377.077-.518l-1.854 4.323h-1.48zm5.68 1.729v-7.013h1.172v1.009h.27l-.27.278c0-.429.129-.765.385-1.008.256-.25.602-.375 1.037-.375.532 0 .958.183 1.278.548.32.365.48.855.48 1.47v1.43c0 .41-.073.77-.22 1.077-.142.3-.343.534-.606.701-.262.167-.573.25-.932.25-.435 0-.781-.122-1.037-.365-.256-.25-.385-.59-.385-1.019l.27.279h-.28l.04 1.258v1.48h-1.201zm2.172-2.67c.307 0 .547-.09.72-.27.173-.179.26-.435.26-.768v-1.326c0-.333-.087-.59-.26-.769-.173-.179-.413-.268-.72-.268-.301 0-.538.092-.711.278-.173.18-.26.432-.26.759v1.326c0 .326.087.583.26.768.173.18.41.27.71.27zm5.66 1.027c-.448 0-.839-.083-1.172-.25a1.938 1.938 0 01-.768-.72c-.18-.314-.27-.682-.27-1.105v-1.306c0-.423.09-.788.27-1.096.186-.313.442-.553.768-.72.334-.173.724-.26 1.172-.26.455 0 .846.087 1.172.26.327.166.58.407.76.72.185.308.278.67.278 1.086v1.316c0 .423-.093.791-.279 1.105a1.873 1.873 0 01-.758.72c-.327.167-.718.25-1.173.25zm0-1.047c.32 0 .567-.086.74-.26.18-.179.27-.435.27-.768v-1.306c0-.34-.09-.596-.27-.769-.173-.173-.42-.26-.74-.26-.313 0-.56.087-.74.26-.179.173-.268.43-.268.769v1.306c0 .333.09.59.269.769.18.173.426.26.74.26zm3.548.96v-5.283h2.344c.608 0 1.085.128 1.431.384.352.25.529.596.529 1.038 0 .358-.138.647-.413.864-.27.218-.628.327-1.076.327v-.086c.486 0 .877.115 1.172.346.294.224.442.525.442.902 0 .468-.18.836-.538 1.105-.353.27-.84.404-1.46.404h-2.431zm1.181-.912h1.21c.27 0 .481-.06.635-.182a.593.593 0 00.23-.49.613.613 0 00-.23-.51c-.154-.121-.365-.182-.634-.182h-1.21v1.364zm0-2.171h1.172c.237 0 .426-.058.567-.173a.576.576 0 00.212-.47.576.576 0 00-.212-.471c-.134-.122-.323-.183-.566-.183h-1.173v1.297zm6.065 3.18c-.545 0-.974-.144-1.288-.433-.313-.288-.47-.675-.47-1.162 0-.519.173-.919.518-1.2.346-.282.836-.423 1.47-.423h1.316v-.452c0-.256-.083-.455-.25-.596-.166-.147-.393-.22-.681-.22-.263 0-.48.057-.654.172a.675.675 0 00-.307.471h-1.172c.058-.5.282-.896.672-1.191.391-.295.89-.442 1.499-.442.647 0 1.156.163 1.528.49.377.32.566.756.566 1.306v3.584h-1.162v-.922h-.192l.192-.26c0 .39-.144.701-.432.932-.289.23-.673.346-1.153.346zm.394-.903c.34 0 .615-.087.826-.26a.82.82 0 00.326-.672v-.644h-1.296c-.244 0-.44.07-.587.212a.736.736 0 00-.22.557c0 .25.083.448.25.595.172.141.406.212.7.212zm3.749.807v-5.284h1.2v2.046h1.864v-2.046h1.201v5.284h-1.2v-2.123h-1.864v2.123h-1.201zm5.69 0v-5.284h1.085v2.604c0 .166-.01.364-.029.595a13.998 13.998 0 01-.135 1.23l1.864-4.429h1.48v5.284h-1.086v-2.604c0-.173.007-.365.02-.576l.057-.625c.026-.205.051-.377.077-.518l-1.854 4.323h-1.48zm7.831.096c-.448 0-.839-.087-1.172-.26a1.923 1.923 0 01-.778-.72 2.168 2.168 0 01-.269-1.095v-1.326c0-.416.09-.778.27-1.086.185-.313.444-.557.777-.73.333-.173.724-.259 1.172-.259.442 0 .826.086 1.153.26.333.172.59.416.769.73.185.307.278.669.278 1.085v.951H77.38v.375c0 .371.09.653.269.845.179.186.445.279.797.279.269 0 .487-.045.653-.135a.642.642 0 00.317-.413h1.182c-.09.455-.333.82-.73 1.095-.39.27-.868.404-1.432.404zm1.038-3.122v-.289c0-.365-.087-.643-.26-.835-.172-.199-.432-.298-.778-.298-.346 0-.608.1-.787.298-.18.198-.27.48-.27.845v.202l2.181-.02-.086.097zm10.332 3.122c-.672-.007-1.207-.196-1.604-.567-.391-.371-.586-.88-.586-1.527v-2.373c0-.846.227-1.496.682-1.95.454-.462 1.101-.692 1.94-.692h1.49v1.172h-1.49c-.46 0-.813.125-1.056.375-.237.25-.356.614-.356 1.095v.653h.135l-.125.154c0-.365.121-.654.365-.865.243-.211.586-.317 1.028-.317.557 0 .99.183 1.297.548.314.358.47.858.47 1.498v.702c0 .429-.09.803-.269 1.123a1.842 1.842 0 01-.759.73c-.32.167-.707.247-1.162.24zm0-1.047c.32 0 .564-.09.73-.27.167-.185.25-.444.25-.777v-.702c0-.34-.083-.599-.25-.778-.166-.18-.41-.269-.73-.269-.314 0-.557.09-.73.27-.167.172-.25.431-.25.777v.702c0 .333.083.592.25.778.173.179.416.269.73.269zm5.69 1.037c-.449 0-.84-.083-1.172-.25a1.939 1.939 0 01-.769-.72c-.18-.314-.269-.682-.269-1.105v-1.306c0-.423.09-.788.27-1.096.185-.313.441-.553.768-.72.333-.173.723-.26 1.172-.26.454 0 .845.087 1.172.26.326.166.58.407.759.72.185.308.278.67.278 1.086v1.316c0 .423-.093.791-.278 1.105-.18.307-.433.547-.76.72-.326.167-.717.25-1.171.25zm0-1.047c.32 0 .567-.086.74-.26.179-.179.268-.435.268-.768v-1.306c0-.34-.09-.596-.269-.769-.172-.173-.42-.26-.74-.26-.313 0-.56.087-.739.26-.18.173-.269.43-.269.769v1.306c0 .333.09.59.269.769.18.173.426.26.74.26zm5.084.96V18.79h-1.806v-1.105h4.823v1.105h-1.806v4.179h-1.211zm5.709.097c-.544 0-.973-.144-1.287-.433-.314-.288-.471-.675-.471-1.162 0-.519.173-.919.519-1.2.346-.282.836-.423 1.47-.423h1.316v-.452c0-.256-.084-.455-.25-.596-.167-.147-.394-.22-.682-.22-.263 0-.481.057-.653.172a.676.676 0 00-.308.471h-1.172c.058-.5.282-.896.673-1.191.39-.295.89-.442 1.498-.442.647 0 1.156.163 1.528.49.378.32.567.756.567 1.306v3.584h-1.163v-.922h-.192l.192-.26c0 .39-.144.701-.432.932-.288.23-.673.346-1.153.346zm.394-.903c.339 0 .615-.087.826-.26a.819.819 0 00.327-.672v-.644h-1.297c-.244 0-.439.07-.586.212a.733.733 0 00-.221.557c0 .25.083.448.25.595.172.141.406.212.701.212zm5.882-2.96c-.269 0-.487-.073-.654-.22a.778.778 0 01-.24-.586c0-.243.08-.439.24-.586.167-.147.385-.221.654-.221s.483.074.643.22c.167.148.25.344.25.587a.761.761 0 01-.25.586c-.16.147-.374.22-.643.22zm0 3.863c-.269 0-.487-.074-.654-.221a.759.759 0 01-.24-.586c0-.243.08-.439.24-.586.167-.148.385-.221.654-.221s.483.073.643.22c.167.148.25.344.25.587a.743.743 0 01-.25.586c-.16.147-.374.22-.643.22z" fill="#000"/><defs><filter id="filter0_d_441_1861" x=".157" y="0" width="179.685" height="215.685" filterUnits="userSpaceOnUse" color-interpolation-filters="sRGB"><feFlood flood-opacity="0" result="BackgroundImageFix"/><feColorMatrix in="SourceAlpha" values="0 0 0 0 0 0 0 0 0 0 0 0 0 0 0 0 0 0 127 0" result="hardAlpha"/><feOffset dy="3.843"/><feGaussianBlur stdDeviation="1.921"/><feComposite in2="hardAlpha" operator="out"/><feColorMatrix values="0 0 0 0 0 0 0 0 0 0 0 0 0 0 0 0 0 0 0.25 0"/><feBlend in2="BackgroundImageFix" result="effect1_dropShadow_441_1861"/><feBlend in="SourceGraphic" in2="effect1_dropShadow_441_1861" result="shape"/></filter></defs></svg>