<svg width="180" height="326" fill="none" xmlns="http://www.w3.org/2000/svg"><g filter="url(#filter0_d_441_1836)"><rect x="4" width="172" height="318" rx="16.011" fill="#E0F4FF"/></g><mask id="a" style="mask-type:alpha" maskUnits="userSpaceOnUse" x="4" y="0" width="172" height="43"><path fill="#C9D9CD" d="M4 0h171.961v42.27H4z"/></mask><g mask="url(#a)"><rect x="4" y="-1.69" width="171.961" height="118.355" rx="16.011" fill="#6E6DC0"/></g><path d="M18.73 69.646a1.12 1.12 0 01-.826-.326 1.12 1.12 0 01-.326-.826c0-.34.109-.615.326-.827a1.12 1.12 0 01.827-.326c.339 0 .614.109.826.326.218.212.326.487.326.826 0 .334-.108.609-.326.827-.212.218-.487.326-.826.326zM25.36 72v-7.013h3.959V72h-.865v-6.225h-2.229V72h-.865zm7.67.096c-.417 0-.782-.083-1.096-.25a1.807 1.807 0 01-.72-.701 2.203 2.203 0 01-.25-1.066v-1.441c0-.41.083-.766.25-1.067.172-.3.413-.534.72-.701a2.31 2.31 0 011.095-.25c.416 0 .778.084 1.086.25.313.166.554.4.72.701.173.301.26.657.26 1.067v.931h-3.286v.51c0 .416.106.736.317.96.211.218.513.327.903.327.333 0 .602-.058.807-.173a.764.764 0 00.375-.538h.864a1.472 1.472 0 01-.653 1.057c-.371.256-.836.384-1.393.384zm1.22-3.103v-.355c0-.417-.106-.737-.318-.961-.205-.224-.506-.336-.903-.336-.39 0-.692.112-.903.336-.211.224-.317.544-.317.96v.28h2.507l-.067.076zm2.47 4.736v-7.013h.865v1.009h.173l-.173.202c0-.404.132-.72.394-.951.27-.237.621-.356 1.057-.356.531 0 .954.176 1.268.529.32.345.48.823.48 1.431v1.547c0 .403-.073.752-.22 1.047a1.58 1.58 0 01-.606.682c-.256.16-.563.24-.922.24-.43 0-.778-.118-1.047-.355-.27-.237-.404-.554-.404-.951l.173.201h-.192l.02 1.201v1.537h-.865zm2.028-2.382c.365 0 .65-.11.855-.327.211-.218.317-.531.317-.941v-1.441c0-.41-.106-.724-.317-.942-.205-.218-.49-.326-.855-.326-.353 0-.634.112-.846.336-.211.224-.317.535-.317.932v1.44c0 .398.106.708.317.932.212.225.493.337.846.337zm5.66.75c-.416 0-.78-.084-1.095-.25a1.807 1.807 0 01-.72-.702 2.203 2.203 0 01-.25-1.066v-1.441c0-.41.083-.766.25-1.067.173-.3.413-.534.72-.701.314-.166.68-.25 1.095-.25.417 0 .779.084 1.086.25.314.166.554.4.72.701.173.301.26.657.26 1.067v.931h-3.286v.51c0 .416.106.736.317.96.212.218.513.327.903.327.334 0 .602-.058.807-.173a.764.764 0 00.375-.538h.865a1.472 1.472 0 01-.654 1.057c-.371.256-.835.384-1.393.384zm1.22-3.104v-.355c0-.417-.105-.737-.316-.961-.206-.224-.506-.336-.904-.336-.39 0-.691.112-.903.336-.21.224-.317.544-.317.96v.28h2.508l-.067.076zm1.876 4.352V71.26h.433c.108-.109.22-.323.336-.643.121-.32.185-.727.192-1.22l.058-2.68h3.448v4.543h.673v2.085h-.769V72h-3.602v1.345h-.769zm1.345-2.085h2.258v-3.775h-1.768l-.038 1.93c-.007.507-.061.917-.164 1.23-.102.314-.198.52-.288.615zM59.5 72v-5.284h3.957V72h-.864v-4.496h-2.229V72h-.865zm7.668.077c-.423 0-.788-.08-1.095-.24a1.744 1.744 0 01-.72-.692c-.167-.307-.25-.67-.25-1.086v-1.402c0-.423.083-.785.25-1.086.172-.3.412-.531.72-.691.307-.16.672-.24 1.095-.24.423 0 .788.08 1.095.24.308.16.545.39.711.691.173.301.26.66.26 1.076v1.412c0 .417-.087.779-.26 1.086a1.683 1.683 0 01-.71.692c-.308.16-.673.24-1.096.24zm0-.769c.378 0 .672-.105.884-.317.211-.211.317-.522.317-.932v-1.402c0-.41-.106-.72-.317-.932-.212-.211-.506-.317-.884-.317-.371 0-.666.106-.884.317-.211.211-.317.522-.317.932v1.402c0 .41.106.72.317.932.218.212.513.317.884.317zm3.048.76v-.808h.173c.294 0 .5-.115.615-.346.121-.23.185-.643.192-1.239l.057-2.959h3.584V72h-.865v-4.496h-1.864l-.048 2.21c-.013.557-.076 1.008-.192 1.354-.109.346-.282.599-.519.76-.23.16-.534.24-.912.24h-.221zm7.16 1.661l.778-2.056-1.96-4.957h.96l1.23 3.267c.045.108.087.24.125.393l.096.375.096-.375c.038-.153.077-.285.115-.393l1.153-3.267h.932l-2.603 7.013h-.923zM85.292 72v-1.921c-.103.025-.26.05-.471.077a7.1 7.1 0 01-.653.028c-.653.007-1.163-.15-1.528-.47-.358-.327-.538-.782-.538-1.365v-1.633h.865v1.633c0 .327.109.586.327.779.224.185.531.278.922.278.269 0 .496-.01.682-.029a3.59 3.59 0 00.394-.067v-2.594h.864V72h-.864zm4.633.096c-.417 0-.782-.083-1.096-.25a1.807 1.807 0 01-.72-.701 2.204 2.204 0 01-.25-1.066v-1.441c0-.41.084-.766.25-1.067.173-.3.413-.534.72-.701.314-.166.68-.25 1.096-.25.416 0 .778.084 1.085.25.314.166.554.4.72.701.174.301.26.657.26 1.067v.931h-3.285v.51c0 .416.105.736.317.96.211.218.512.327.903.327.333 0 .602-.058.807-.173a.763.763 0 00.374-.538h.865a1.472 1.472 0 01-.653 1.057c-.372.256-.836.384-1.393.384zm1.22-3.103v-.355c0-.417-.106-.737-.317-.961-.205-.224-.506-.336-.903-.336-.391 0-.692.112-.903.336-.212.224-.317.544-.317.96v.28h2.507l-.067.076zM93.636 72v-5.284h.865v2.2h2.229v-2.2h.864V72h-.864v-2.296H94.5V72h-.864zm5.69 0v-5.284h.826v2.882c0 .186-.006.381-.019.586a8.08 8.08 0 01-.038.586 6.36 6.36 0 01-.048.462l2.132-4.516h1.105V72h-.826v-2.882c0-.186.003-.381.009-.586.013-.205.029-.4.048-.586l.048-.47L100.431 72h-1.105zm7.669.096c-.417 0-.782-.083-1.096-.25a1.81 1.81 0 01-.72-.701 2.199 2.199 0 01-.25-1.066v-1.441c0-.41.083-.766.25-1.067a1.81 1.81 0 01.72-.701 2.31 2.31 0 011.096-.25c.416 0 .778.084 1.085.25.314.166.554.4.721.701.173.301.259.657.259 1.067v.931h-3.285v.51c0 .416.105.736.317.96.211.218.512.327.903.327.333 0 .602-.058.807-.173a.763.763 0 00.374-.538h.865a1.475 1.475 0 01-.653 1.057c-.372.256-.836.384-1.393.384zm1.22-3.103v-.355c0-.417-.106-.737-.317-.961-.205-.224-.506-.336-.903-.336-.391 0-.692.112-.903.336-.212.224-.317.544-.317.96v.28h2.507l-.067.076zM110.532 72v-5.284h1.172l.692 2.027c.071.205.135.41.192.615.058.199.1.352.125.461.026-.109.064-.262.115-.46.058-.206.119-.414.183-.625l.653-2.018h1.172V72H114v-.817c0-.288.004-.602.01-.941l.019-1.028.039-.98c.012-.314.022-.59.028-.826l-.941 3.007h-.913l-.951-2.988c.013.288.023.647.029 1.076.013.43.023.878.029 1.345.013.468.019.913.019 1.335V72h-.836zM25.361 91v-5.284h3.957V91h-.864v-4.496h-2.229V91h-.865zm7.668.077c-.423 0-.788-.08-1.095-.24a1.743 1.743 0 01-.72-.692c-.167-.307-.25-.67-.25-1.086v-1.402c0-.423.083-.785.25-1.086.172-.3.413-.531.72-.691.307-.16.672-.24 1.095-.24.423 0 .788.08 1.095.24.308.16.545.39.711.691.173.301.26.66.26 1.076v1.412c0 .417-.087.779-.26 1.086a1.683 1.683 0 01-.71.692c-.308.16-.673.24-1.096.24zm0-.769c.378 0 .673-.105.884-.317.211-.211.317-.522.317-.932v-1.402c0-.41-.106-.72-.317-.932-.211-.211-.506-.317-.884-.317-.371 0-.666.106-.884.317-.211.211-.317.522-.317.932v1.402c0 .41.106.72.317.932.218.212.513.317.884.317zm3.692 2.421v-7.013h.864v1.009h.173l-.173.202c0-.404.132-.72.394-.951.27-.237.621-.356 1.057-.356.531 0 .954.176 1.268.529.32.345.48.823.48 1.431v1.547c0 .403-.073.752-.22 1.047a1.58 1.58 0 01-.606.682c-.256.16-.563.24-.922.24-.43 0-.778-.118-1.047-.355-.27-.237-.404-.554-.404-.951l.173.201h-.192l.02 1.201v1.537h-.865zm2.027-2.382c.365 0 .65-.11.855-.327.211-.218.317-.531.317-.941v-1.441c0-.41-.106-.724-.317-.942-.205-.218-.49-.326-.855-.326-.353 0-.634.112-.846.336-.211.224-.317.535-.317.932v1.44c0 .398.106.708.317.932.212.225.493.337.846.337zm3.355.653l1.354-2.037c-.403-.096-.717-.281-.941-.557-.218-.275-.327-.618-.327-1.028 0-.519.17-.925.51-1.22.345-.294.816-.442 1.412-.442h2.276V91h-.864v-1.97H44.36L43.112 91h-1.01zm2.008-2.738h1.412v-1.777H44.11c-.32 0-.574.08-.76.24-.185.154-.278.372-.278.653 0 .276.093.493.279.653.185.154.438.231.759.231zm3.393 4.083V90.26h.433c.108-.109.22-.323.336-.643.121-.32.185-.727.192-1.22l.058-2.68h3.448v4.543h.673v2.085h-.769V91h-3.602v1.345h-.769zm1.345-2.085h2.258v-3.775h-1.768l-.038 1.93c-.007.507-.061.917-.164 1.23-.102.314-.198.52-.288.615zm4.989.74v-5.284h.864v2.181h.903l1.537-2.18h.99l-1.777 2.516L58.16 91h-1.01l-1.536-2.354h-.913V91h-.864zm7.64.077c-.423 0-.788-.08-1.096-.24a1.744 1.744 0 01-.72-.692c-.167-.307-.25-.67-.25-1.086v-1.402c0-.423.083-.785.25-1.086.173-.3.413-.531.72-.691.308-.16.673-.24 1.095-.24.423 0 .788.08 1.096.24.307.16.544.39.71.691.173.301.26.66.26 1.076v1.412c0 .417-.087.779-.26 1.086a1.683 1.683 0 01-.71.692c-.308.16-.673.24-1.096.24zm0-.769c.377 0 .672-.105.883-.317.212-.211.317-.522.317-.932v-1.402c0-.41-.105-.72-.317-.932-.211-.211-.506-.317-.884-.317-.371 0-.666.106-.883.317-.212.211-.317.522-.317.932v1.402c0 .41.105.72.317.932.217.212.512.317.883.317zm3.71.692v-5.284h2.287c.55 0 .976.125 1.277.375.301.243.452.586.452 1.028 0 .365-.125.66-.375.884-.25.217-.58.326-.99.326v-.076c.449 0 .808.112 1.076.336.276.224.414.525.414.903 0 .474-.16.845-.48 1.114-.321.263-.77.394-1.346.394h-2.315zm.846-.759h1.47c.307 0 .544-.067.71-.202.173-.134.26-.323.26-.567 0-.25-.087-.441-.26-.576-.166-.134-.403-.202-.71-.202h-1.47v1.547zm0-2.296h1.44c.27 0 .48-.064.635-.192.16-.128.24-.308.24-.538 0-.23-.077-.41-.23-.538-.155-.135-.37-.202-.644-.202h-1.441v1.47zm6.823 3.132c-.423 0-.788-.08-1.096-.24a1.744 1.744 0 01-.72-.692c-.166-.307-.25-.67-.25-1.086v-1.402c0-.423.084-.785.25-1.086.173-.3.413-.531.72-.691.308-.16.673-.24 1.096-.24.422 0 .787.08 1.095.24.307.16.544.39.71.691.174.301.26.66.26 1.076v1.412c0 .417-.086.779-.26 1.086a1.683 1.683 0 01-.71.692c-.308.16-.673.24-1.095.24zm0-.769c.378 0 .672-.105.883-.317.212-.211.318-.522.318-.932v-1.402c0-.41-.106-.72-.318-.932-.21-.211-.505-.317-.883-.317-.372 0-.666.106-.884.317-.212.211-.317.522-.317.932v1.402c0 .41.105.72.317.932.218.212.512.317.884.317zm4.056.692v-5.284h3.795v.788h-2.93V91h-.865zm7.323.077c-.423 0-.788-.08-1.095-.24a1.743 1.743 0 01-.72-.692c-.167-.307-.25-.67-.25-1.086v-1.402c0-.423.083-.785.25-1.086.172-.3.412-.531.72-.691.307-.16.672-.24 1.095-.24.423 0 .788.08 1.095.24.308.16.545.39.711.691.173.301.26.66.26 1.076v1.412c0 .417-.087.779-.26 1.086a1.683 1.683 0 01-.71.692c-.308.16-.673.24-1.096.24zm0-.769c.378 0 .672-.105.884-.317.211-.211.317-.522.317-.932v-1.402c0-.41-.106-.72-.317-.932-.212-.211-.506-.317-.884-.317-.371 0-.666.106-.884.317-.211.211-.317.522-.317.932v1.402c0 .41.106.72.317.932.218.212.513.317.884.317zm9.4.692v-5.284h.865v2.2h2.229v-2.2h.864V91h-.864v-2.296H94.5V91h-.864zm7.669.077c-.423 0-.788-.08-1.095-.24a1.743 1.743 0 01-.72-.692c-.167-.307-.25-.67-.25-1.086v-1.402c0-.423.083-.785.25-1.086.172-.3.412-.531.72-.691.307-.16.672-.24 1.095-.24.423 0 .788.08 1.095.24.308.16.545.39.711.691.173.301.259.66.259 1.076v1.412c0 .417-.086.779-.259 1.086a1.677 1.677 0 01-.711.692c-.307.16-.672.24-1.095.24zm0-.769c.378 0 .672-.105.884-.317.211-.211.317-.522.317-.932v-1.402c0-.41-.106-.72-.317-.932-.212-.211-.506-.317-.884-.317-.371 0-.666.106-.884.317-.211.211-.317.522-.317.932v1.402c0 .41.106.72.317.932.218.212.513.317.884.317zm3.538.692v-5.284h1.172l.691 2.027c.071.205.135.41.193.615.057.199.099.352.124.461.026-.109.065-.262.116-.46.057-.206.118-.414.182-.625l.654-2.018h1.172V91h-.836v-.817c0-.288.003-.602.009-.941l.02-1.028c.012-.346.025-.672.038-.98.013-.314.022-.59.029-.826l-.942 3.007h-.912l-.951-2.988c.012.288.022.647.028 1.076.013.43.023.878.029 1.345.013.468.02.913.02 1.335V91h-.836zm7.841.096c-.416 0-.781-.083-1.095-.25a1.81 1.81 0 01-.72-.701 2.199 2.199 0 01-.25-1.066v-1.441c0-.41.083-.766.25-1.067a1.81 1.81 0 01.72-.701 2.31 2.31 0 011.095-.25c.417 0 .778.084 1.086.25.314.166.554.4.72.701.173.301.26.657.26 1.067v.931h-3.286v.51c0 .416.106.736.317.96.212.218.513.327.903.327.333 0 .602-.058.807-.173a.764.764 0 00.375-.538h.865a1.473 1.473 0 01-.654 1.057c-.371.256-.836.384-1.393.384zm1.22-3.103v-.355c0-.417-.105-.737-.317-.961-.205-.224-.506-.336-.903-.336-.39 0-.691.112-.903.336-.211.224-.317.544-.317.96v.28h2.508l-.068.076zm2.472 4.736v-7.013h.864v1.009h.173l-.173.202c0-.404.132-.72.394-.951.269-.237.621-.356 1.057-.356.532 0 .954.176 1.268.529.32.345.48.823.48 1.431v1.547c0 .403-.073.752-.221 1.047-.14.294-.342.522-.605.682-.256.16-.563.24-.922.24-.429 0-.778-.118-1.047-.355-.269-.237-.404-.554-.404-.951l.173.201h-.192l.019 1.201v1.537h-.864zm2.027-2.382c.365 0 .65-.11.855-.327.211-.218.317-.531.317-.941v-1.441c0-.41-.106-.724-.317-.942-.205-.218-.49-.326-.855-.326-.352 0-.634.112-.846.336-.211.224-.317.535-.317.932v1.44c0 .398.106.708.317.932.212.225.494.337.846.337zm5.199.75c-.557 0-.995-.142-1.316-.424-.32-.288-.48-.675-.48-1.162 0-.493.16-.88.48-1.162.321-.282.753-.423 1.297-.423h1.633v-.529c0-.326-.099-.576-.297-.749-.193-.18-.468-.269-.827-.269-.313 0-.576.067-.787.202a.716.716 0 00-.365.528h-.865c.058-.454.272-.816.644-1.085.371-.27.835-.404 1.393-.404.608 0 1.088.157 1.441.471.352.314.528.74.528 1.278V91h-.845v-1.009h-.144l.144-.144c0 .385-.151.689-.452.913-.294.224-.688.336-1.182.336zm.212-.683c.41 0 .746-.103 1.009-.307a.957.957 0 00.393-.788v-.75h-1.614c-.288 0-.515.08-.682.24-.166.16-.249.379-.249.654 0 .294.099.528.297.701.205.167.487.25.846.25zm-97.646 21.315l.778-2.056-1.96-4.957h.96l1.23 3.267c.045.108.087.24.125.393.039.148.07.273.096.375l.096-.375c.039-.153.077-.285.116-.393l1.152-3.267h.932l-2.603 7.013h-.922zM34.086 110v-1.921a4.51 4.51 0 01-.47.077 7.094 7.094 0 01-.654.028c-.653.007-1.163-.15-1.528-.47-.358-.327-.538-.782-.538-1.365v-1.633h.865v1.633c0 .327.109.586.327.779.224.185.531.278.922.278.269 0 .496-.009.682-.029a3.49 3.49 0 00.394-.067v-2.594h.864V110h-.864zm4.172.096c-.558 0-.996-.141-1.317-.423-.32-.288-.48-.675-.48-1.162 0-.493.16-.881.48-1.162.32-.282.753-.423 1.297-.423h1.634v-.529c0-.326-.1-.576-.298-.749-.192-.179-.468-.269-.826-.269-.314 0-.577.067-.788.202a.717.717 0 00-.365.528h-.865c.058-.454.272-.816.644-1.085.371-.269.836-.404 1.393-.404.608 0 1.089.157 1.44.471.353.314.53.74.53 1.278V110h-.846v-1.009h-.144l.144-.144c0 .384-.15.689-.452.913-.294.224-.688.336-1.181.336zm.211-.682c.41 0 .746-.102 1.009-.307a.957.957 0 00.394-.788v-.75h-1.614c-.289 0-.516.081-.682.241-.167.16-.25.378-.25.653 0 .295.1.528.298.701.205.167.486.25.845.25zm5.959.682c-.423 0-.794-.08-1.115-.24a1.73 1.73 0 01-.73-.692c-.173-.307-.26-.669-.26-1.085v-1.441c0-.423.087-.785.26-1.086.173-.301.416-.531.73-.692.32-.16.692-.24 1.115-.24.608 0 1.098.164 1.47.49.37.327.566.772.585 1.336h-.864c-.02-.34-.135-.599-.346-.779-.205-.185-.487-.278-.845-.278-.378 0-.68.109-.903.326-.224.212-.337.516-.337.913v1.451c0 .397.112.704.337.922.224.218.525.327.903.327.358 0 .64-.093.845-.279.211-.186.327-.445.346-.778h.864c-.019.563-.214 1.008-.585 1.335-.372.327-.862.49-1.47.49zm5.238-.096v-4.525h-1.922v-.759h4.708v.759H50.53V110h-.864zm4.143 0v-5.284h.864v2.2h2.23v-2.2h.864V110h-.865v-2.296h-2.229V110h-.864zm5.69 0v-5.284h.826v2.882c0 .186-.007.381-.02.586a8.055 8.055 0 01-.038.586 6.1 6.1 0 01-.048.461l2.133-4.515h1.104V110h-.826v-2.882c0-.186.003-.381.01-.586.013-.205.029-.4.048-.586l.048-.471L60.603 110h-1.105zm5.718 0v-5.284h.865v2.181h.903l1.537-2.181h.99l-1.778 2.517L69.54 110h-1.01l-1.537-2.354h-.912V110h-.865zm7.179.096c-.558 0-.996-.141-1.317-.423-.32-.288-.48-.675-.48-1.162 0-.493.16-.881.48-1.162.32-.282.753-.423 1.297-.423h1.633v-.529c0-.326-.099-.576-.297-.749-.192-.179-.468-.269-.827-.269-.313 0-.576.067-.787.202a.717.717 0 00-.365.528h-.865c.058-.454.272-.816.644-1.085.371-.269.836-.404 1.393-.404.608 0 1.088.157 1.44.471.353.314.53.74.53 1.278V110h-.846v-1.009h-.144l.144-.144c0 .384-.15.689-.452.913-.294.224-.688.336-1.181.336zm.21-.682c.41 0 .747-.102 1.01-.307a.957.957 0 00.394-.788v-.75h-1.614c-.289 0-.516.081-.683.241-.166.16-.25.378-.25.653 0 .295.1.528.299.701.204.167.486.25.845.25zm4.644 2.123l.768-2.988h1.249l-1.249 2.988h-.769zm12.676-1.441c-.622 0-1.115-.182-1.48-.548-.358-.371-.538-.877-.538-1.517v-2.402c0-.845.212-1.496.634-1.95.423-.461 1.028-.692 1.816-.692h1.345v.865h-1.345c-.519 0-.913.153-1.182.461-.269.301-.403.74-.403 1.316v.624h.134l-.134.193c.006-.378.134-.673.384-.884.25-.212.59-.317 1.019-.317.557 0 .989.179 1.296.538.314.358.471.851.471 1.479v.769c0 .429-.08.797-.24 1.104-.16.308-.39.545-.692.711-.3.167-.663.25-1.085.25zm0-.768c.371 0 .656-.113.855-.337.198-.224.297-.544.297-.96v-.769c0-.416-.099-.736-.297-.961-.199-.224-.484-.336-.855-.336-.372 0-.657.112-.855.336-.199.218-.298.538-.298.961v.769c0 .416.1.736.298.96.198.224.483.337.855.337zm5.69.749c-.423 0-.788-.08-1.096-.24a1.743 1.743 0 01-.72-.692c-.167-.307-.25-.669-.25-1.086v-1.402c0-.423.083-.785.25-1.086a1.74 1.74 0 01.72-.691c.308-.161.673-.241 1.095-.241.423 0 .788.08 1.096.241.307.16.544.39.71.691.173.301.26.66.26 1.076v1.412c0 .417-.087.779-.26 1.086a1.683 1.683 0 01-.71.692c-.308.16-.673.24-1.096.24zm0-.769c.377 0 .672-.105.883-.317.212-.211.317-.522.317-.932v-1.402c0-.41-.106-.721-.317-.932-.211-.211-.506-.317-.884-.317-.371 0-.666.106-.883.317-.212.211-.317.522-.317.932v1.402c0 .41.105.721.316.932.218.212.513.317.884.317zm5.257.692v-4.525h-1.922v-.759h4.708v.759h-1.922V110h-.864zm9.832 0v-5.284h3.958V110h-.864v-4.496h-2.229V110h-.865zm5.671 1.729v-7.013h.864v1.009h.173l-.173.202c0-.404.132-.721.394-.951.269-.237.621-.356 1.057-.356.532 0 .954.176 1.268.529.32.345.48.823.48 1.431v1.547c0 .403-.073.752-.221 1.047-.14.294-.342.522-.605.682-.256.16-.563.24-.922.24-.429 0-.778-.118-1.047-.355-.269-.237-.404-.554-.404-.951l.173.201h-.192l.019 1.201v1.537h-.864zm2.027-2.382c.365 0 .65-.109.855-.327.211-.218.317-.531.317-.941v-1.441c0-.41-.106-.724-.317-.942-.205-.218-.49-.326-.855-.326-.352 0-.634.112-.846.336-.211.224-.317.535-.317.932v1.441c0 .397.106.707.317.932.212.224.494.336.846.336zm5.661.73c-.423 0-.788-.08-1.096-.24a1.745 1.745 0 01-.72-.692c-.167-.307-.25-.669-.25-1.086v-1.402c0-.423.083-.785.25-1.086.173-.301.413-.531.72-.691.308-.161.673-.241 1.096-.241.422 0 .787.08 1.095.241.307.16.544.39.711.691.173.301.259.66.259 1.076v1.412c0 .417-.086.779-.259 1.086a1.689 1.689 0 01-.711.692c-.308.16-.673.24-1.095.24zm0-.769c.377 0 .672-.105.883-.317.212-.211.317-.522.317-.932v-1.402c0-.41-.105-.721-.317-.932-.211-.211-.506-.317-.883-.317-.372 0-.666.106-.884.317-.212.211-.317.522-.317.932v1.402c0 .41.105.721.317.932.218.212.512.317.884.317zm3.71.692v-5.284h2.287c.55 0 .976.125 1.277.375.301.243.452.586.452 1.028 0 .365-.125.66-.375.884-.25.217-.579.326-.989.326v-.077c.448 0 .807.113 1.076.337.275.224.413.525.413.903 0 .474-.16.845-.481 1.114-.32.263-.768.394-1.345.394h-2.315zm.846-.759h1.469c.308 0 .545-.067.711-.202.173-.134.26-.323.26-.566 0-.25-.087-.442-.26-.577-.166-.134-.403-.202-.711-.202h-1.469v1.547zm0-2.296h1.441c.269 0 .48-.064.634-.192.16-.128.24-.307.24-.538 0-.231-.077-.41-.231-.538-.153-.135-.368-.202-.643-.202h-1.441v1.47zm6.823 3.151c-.416 0-.781-.083-1.095-.25a1.802 1.802 0 01-.721-.701 2.209 2.209 0 01-.25-1.066v-1.441c0-.41.084-.766.25-1.067.173-.301.413-.534.721-.701.314-.167.679-.25 1.095-.25.416 0 .778.083 1.085.25.314.167.554.4.721.701.173.301.259.657.259 1.067v.931h-3.285v.51c0 .416.106.736.317.96.211.218.512.327.903.327.333 0 .602-.058.807-.173a.765.765 0 00.375-.538h.864a1.47 1.47 0 01-.653 1.057c-.372.256-.836.384-1.393.384zm1.22-3.103v-.355c0-.417-.106-.737-.317-.961-.205-.224-.506-.336-.903-.336-.391 0-.692.112-.903.336-.211.224-.317.544-.317.961v.278h2.507l-.067.077zm2.471 4.736v-7.013h.865v1.009h.173l-.173.202c0-.404.131-.721.394-.951.269-.237.621-.356 1.057-.356.531 0 .954.176 1.268.529.32.345.48.823.48 1.431v1.547c0 .403-.074.752-.221 1.047a1.577 1.577 0 01-.605.682c-.256.16-.564.24-.922.24-.43 0-.779-.118-1.048-.355s-.403-.554-.403-.951l.173.201h-.192l.019 1.201v1.537h-.865zm2.027-2.382c.365 0 .65-.109.855-.327.212-.218.317-.531.317-.941v-1.441c0-.41-.105-.724-.317-.942-.205-.218-.49-.326-.855-.326-.352 0-.634.112-.845.336-.211.224-.317.535-.317.932v1.441c0 .397.106.707.317.932.211.224.493.336.845.336zm3.356.653l1.354-2.037c-.403-.096-.717-.281-.941-.557-.218-.275-.327-.618-.327-1.028 0-.519.17-.925.509-1.22.346-.294.817-.442 1.412-.442h2.277V110h-.864v-1.969h-1.163L145.525 110h-1.008zm2.007-2.738h1.413v-1.777h-1.413c-.32 0-.573.08-.759.24-.185.154-.278.371-.278.653 0 .276.093.493.278.654.186.153.439.23.759.23zm5.988 2.834c-.416 0-.781-.083-1.095-.25a1.802 1.802 0 01-.721-.701 2.209 2.209 0 01-.25-1.066v-1.441c0-.41.084-.766.25-1.067.173-.301.413-.534.721-.701.314-.167.679-.25 1.095-.25.416 0 .778.083 1.085.25.314.167.554.4.721.701.173.301.259.657.259 1.067v.931h-3.285v.51c0 .416.105.736.317.96.211.218.512.327.903.327.333 0 .602-.058.807-.173a.765.765 0 00.375-.538h.864a1.473 1.473 0 01-.653 1.057c-.372.256-.836.384-1.393.384zm1.22-3.103v-.355c0-.417-.106-.737-.317-.961-.205-.224-.506-.336-.903-.336-.391 0-.692.112-.903.336-.212.224-.317.544-.317.961v.278h2.507l-.067.077zm4.037 3.007v-4.525h-1.921v-.759h4.707v.759h-1.921V110h-.865zm4.825 1.537l.769-2.988h1.249l-1.249 2.988h-.769zM25.361 130v-5.284h3.957V130h-.864v-4.496h-2.229V130h-.865zm7.668.077c-.423 0-.788-.08-1.095-.24a1.743 1.743 0 01-.72-.692c-.167-.307-.25-.669-.25-1.086v-1.402c0-.423.083-.785.25-1.086a1.74 1.74 0 01.72-.691c.307-.161.672-.241 1.095-.241.423 0 .788.08 1.095.241.308.16.545.39.711.691.173.301.26.66.26 1.076v1.412c0 .417-.087.779-.26 1.086a1.683 1.683 0 01-.71.692c-.308.16-.673.24-1.096.24zm0-.769c.378 0 .673-.105.884-.317.211-.211.317-.522.317-.932v-1.402c0-.41-.106-.721-.317-.932-.211-.211-.506-.317-.884-.317-.371 0-.666.106-.884.317-.211.211-.317.522-.317.932v1.402c0 .41.106.721.317.932.218.212.513.317.884.317zm3.096 2.037v-2.085h.432c.11-.109.221-.323.337-.643.121-.321.185-.727.192-1.22l.057-2.681h3.45v4.544h.672v2.085h-.769V130h-3.602v1.345h-.769zm1.345-2.085h2.258v-3.775H37.96l-.039 1.931c-.006.506-.06.916-.163 1.229-.102.314-.198.519-.288.615zm4.96.74v-5.284h3.957V130h-.864v-4.496h-2.229V130h-.864zm5.69 0v-5.284h.825v2.882c0 .186-.006.381-.019.586a8.66 8.66 0 01-.038.586c-.013.18-.03.333-.048.461l2.132-4.515h1.105V130h-.826v-2.882c0-.186.003-.381.01-.586.012-.205.028-.4.047-.586l.049-.471L49.224 130h-1.105zm7.687.096a2.46 2.46 0 01-1.114-.24 1.73 1.73 0 01-.73-.692c-.174-.307-.26-.669-.26-1.085v-1.441c0-.423.086-.785.26-1.086a1.73 1.73 0 01.73-.692c.32-.16.691-.24 1.114-.24.608 0 1.098.164 1.47.49.371.327.567.772.586 1.336h-.865c-.019-.34-.134-.599-.346-.779-.205-.185-.486-.278-.845-.278-.378 0-.679.109-.903.326-.224.212-.336.516-.336.913v1.451c0 .397.112.704.336.922.224.218.525.327.903.327.359 0 .64-.093.845-.279.212-.186.327-.445.346-.778h.865c-.02.563-.215 1.008-.586 1.335-.372.327-.862.49-1.47.49zm5.21 0c-.558 0-.997-.141-1.317-.423-.32-.288-.48-.675-.48-1.162 0-.493.16-.881.48-1.162.32-.282.753-.423 1.297-.423h1.633v-.529c0-.326-.1-.576-.298-.749-.192-.179-.467-.269-.826-.269-.314 0-.576.067-.788.202a.717.717 0 00-.365.528h-.864c.058-.454.272-.816.644-1.085.37-.269.835-.404 1.392-.404.609 0 1.09.157 1.442.471.352.314.528.74.528 1.278V130h-.846v-1.009h-.144l.144-.144c0 .384-.15.689-.451.913-.295.224-.689.336-1.182.336zm.21-.682c.41 0 .747-.102 1.01-.307a.957.957 0 00.393-.788v-.75h-1.614c-.288 0-.515.081-.682.241-.166.16-.25.378-.25.653 0 .295.1.528.298.701.205.167.487.25.846.25zm3.961.586v-5.284h.865v2.2h2.228v-2.2h.865V130h-.865v-2.296h-2.228V130h-.865zm10.716.067v-.807h.173c.295 0 .5-.115.615-.346.122-.23.186-.643.192-1.239l.058-2.959h3.583V130h-.864v-4.496h-1.864l-.048 2.21c-.013.557-.077 1.008-.192 1.354-.109.346-.282.599-.519.759-.23.16-.535.24-.912.24h-.222zm6.353-.067v-5.284h.826v2.882c0 .186-.006.381-.019.586a8.66 8.66 0 01-.038.586c-.013.18-.03.333-.048.461l2.132-4.515h1.105V130h-.826v-2.882c0-.186.003-.381.01-.586.012-.205.028-.4.047-.586l.049-.471L83.362 130h-1.105zm11.38 0v-5.284h3.957V130h-.864v-4.496H94.5V130h-.864zm7.668.077c-.423 0-.788-.08-1.095-.24a1.743 1.743 0 01-.72-.692c-.167-.307-.25-.669-.25-1.086v-1.402c0-.423.083-.785.25-1.086a1.74 1.74 0 01.72-.691c.307-.161.672-.241 1.095-.241.423 0 .788.08 1.095.241.308.16.545.39.711.691.173.301.259.66.259 1.076v1.412c0 .417-.086.779-.259 1.086a1.677 1.677 0 01-.711.692c-.307.16-.672.24-1.095.24zm0-.769c.378 0 .672-.105.884-.317.211-.211.317-.522.317-.932v-1.402c0-.41-.106-.721-.317-.932-.212-.211-.506-.317-.884-.317-.371 0-.666.106-.884.317-.211.211-.317.522-.317.932v1.402c0 .41.106.721.317.932.218.212.513.317.884.317zm3.048.759v-.807h.173c.294 0 .499-.115.615-.346.121-.23.185-.643.192-1.239l.057-2.959h3.584V130h-.865v-4.496h-1.864l-.048 2.21c-.013.557-.077 1.008-.192 1.354-.109.346-.282.599-.519.759-.23.16-.534.24-.912.24h-.221zm6.391-.067v-5.284h.864v1.941h1.557c.595 0 1.063.15 1.402.451.346.295.519.702.519 1.22 0 .513-.173.919-.519 1.22-.346.301-.813.452-1.402.452h-2.421zm.864-.788h1.557c.333 0 .586-.073.759-.221.179-.153.269-.374.269-.663 0-.288-.09-.506-.269-.653-.173-.154-.426-.23-.759-.23h-1.557v1.767zm6.516.855c-.557 0-1.015-.118-1.374-.355a1.414 1.414 0 01-.634-.961h.913c.045.16.163.292.355.394.199.102.446.154.74.154h.452c.314 0 .557-.074.73-.221a.713.713 0 00.269-.577c0-.256-.087-.458-.26-.605-.166-.147-.413-.221-.739-.221h-1.163v-.749h1.134c.294 0 .519-.071.672-.212a.717.717 0 00.231-.557.722.722 0 00-.106-.403.61.61 0 00-.298-.25 1.232 1.232 0 00-.49-.086h-.48c-.256 0-.477.057-.663.173-.185.115-.298.256-.336.422h-.913c.064-.397.273-.724.625-.98s.781-.384 1.287-.384h.48c.378 0 .702.061.971.183.269.115.474.281.615.499.147.218.221.477.221.778 0 .314-.103.573-.308.778-.205.199-.493.311-.864.337v.038c.454.032.784.154.989.365.205.211.307.516.307.913 0 .467-.172.839-.518 1.114-.346.276-.81.413-1.393.413h-.452zm5.94.01c-.423 0-.788-.08-1.096-.24a1.745 1.745 0 01-.72-.692c-.167-.307-.25-.669-.25-1.086v-1.402c0-.423.083-.785.25-1.086.173-.301.413-.531.72-.691.308-.161.673-.241 1.096-.241.422 0 .787.08 1.095.241.307.16.544.39.711.691.173.301.259.66.259 1.076v1.412c0 .417-.086.779-.259 1.086a1.689 1.689 0 01-.711.692c-.308.16-.673.24-1.095.24zm0-.769c.377 0 .672-.105.883-.317.212-.211.317-.522.317-.932v-1.402c0-.41-.105-.721-.317-.932-.211-.211-.506-.317-.883-.317-.372 0-.666.106-.884.317-.212.211-.317.522-.317.932v1.402c0 .41.105.721.317.932.218.212.512.317.884.317zm3.71.692v-5.284h2.287c.55 0 .976.125 1.277.375.301.243.452.586.452 1.028 0 .365-.125.66-.375.884-.25.217-.579.326-.989.326v-.077c.448 0 .807.113 1.076.337.275.224.413.525.413.903 0 .474-.16.845-.481 1.114-.32.263-.768.394-1.345.394h-2.315zm.846-.759h1.469c.308 0 .545-.067.711-.202.173-.134.26-.323.26-.566 0-.25-.087-.442-.26-.577-.166-.134-.403-.202-.711-.202h-1.469v1.547zm0-2.296h1.441c.269 0 .48-.064.634-.192.16-.128.24-.307.24-.538 0-.231-.077-.41-.231-.538-.153-.135-.368-.202-.643-.202h-1.441v1.47zm6.362 3.151c-.557 0-.996-.141-1.316-.423-.321-.288-.481-.675-.481-1.162 0-.493.16-.881.481-1.162.32-.282.752-.423 1.297-.423h1.633v-.529c0-.326-.1-.576-.298-.749-.192-.179-.468-.269-.826-.269-.314 0-.577.067-.788.202a.718.718 0 00-.365.528h-.865c.058-.454.273-.816.644-1.085s.836-.404 1.393-.404c.608 0 1.089.157 1.441.471.352.314.528.74.528 1.278V130h-.845v-1.009h-.144l.144-.144c0 .384-.151.689-.452.913-.294.224-.688.336-1.181.336zm.211-.682c.41 0 .746-.102 1.009-.307a.959.959 0 00.394-.788v-.75h-1.614c-.288 0-.516.081-.682.241-.167.16-.25.378-.25.653 0 .295.099.528.298.701.205.167.486.25.845.25zm5.507.586v-4.525h-1.921v-.759h4.707v.759h-1.921V130h-.865zm6.122.096c-.416 0-.781-.083-1.095-.25a1.799 1.799 0 01-.72-.701 2.197 2.197 0 01-.25-1.066v-1.441c0-.41.083-.766.25-1.067.172-.301.413-.534.72-.701.314-.167.679-.25 1.095-.25.417 0 .778.083 1.086.25.314.167.554.4.72.701.173.301.26.657.26 1.067v.931h-3.286v.51c0 .416.106.736.317.96.212.218.513.327.903.327.333 0 .602-.058.807-.173a.765.765 0 00.375-.538h.864a1.47 1.47 0 01-.653 1.057c-.371.256-.836.384-1.393.384zm1.22-3.103v-.355c0-.417-.105-.737-.317-.961-.205-.224-.506-.336-.903-.336-.39 0-.691.112-.903.336-.211.224-.317.544-.317.961v.278h2.508l-.068.077zm1.828 3.074v-.807h.173c.295 0 .499-.115.615-.346.121-.23.186-.643.192-1.239l.058-2.959h3.583V130h-.865v-4.496h-1.863l-.048 2.21c-.013.557-.077 1.008-.193 1.354-.108.346-.281.599-.518.759-.231.16-.535.24-.913.24h-.221zm6.391-.067v-5.284h.865v1.941h1.556c.595 0 1.063.15 1.402.451.346.295.519.702.519 1.22 0 .513-.173.919-.519 1.22-.345.301-.813.452-1.402.452h-2.421zm.865-.788h1.556c.333 0 .586-.073.759-.221.179-.153.269-.374.269-.663 0-.288-.09-.506-.269-.653-.173-.154-.426-.23-.759-.23h-1.556v1.767zM25.36 149v-5.284h.865v2.2h2.229v-2.2h.864V149h-.864v-2.296h-2.229V149h-.865zm7.208.096c-.557 0-.996-.141-1.316-.423-.32-.288-.48-.675-.48-1.162 0-.493.16-.881.48-1.162.32-.282.752-.423 1.297-.423h1.633v-.529c0-.326-.1-.576-.298-.749-.192-.179-.467-.269-.826-.269-.314 0-.577.067-.788.202a.717.717 0 00-.365.528h-.864c.057-.454.272-.816.643-1.085.372-.269.836-.404 1.393-.404.609 0 1.089.157 1.441.471.352.314.529.74.529 1.278V149H34.2v-1.009h-.144l.144-.144c0 .384-.15.689-.451.913-.295.224-.689.336-1.182.336zm.211-.682c.41 0 .746-.102 1.01-.307a.957.957 0 00.393-.788v-.75h-1.614c-.288 0-.516.081-.682.241-.167.16-.25.378-.25.653 0 .295.1.528.298.701.205.167.487.25.845.25zm9.68.586v-5.284h.864v2.181h.903l1.537-2.181h.99l-1.778 2.517L46.781 149h-1.008l-1.538-2.354h-.912V149h-.865zm7.178.096c-.557 0-.996-.141-1.316-.423-.32-.288-.48-.675-.48-1.162 0-.493.16-.881.48-1.162.32-.282.752-.423 1.297-.423h1.633v-.529c0-.326-.1-.576-.298-.749-.192-.179-.467-.269-.826-.269-.314 0-.577.067-.788.202a.717.717 0 00-.365.528h-.864c.057-.454.272-.816.643-1.085.372-.269.836-.404 1.393-.404.609 0 1.089.157 1.441.471.352.314.528.74.528 1.278V149h-.845v-1.009h-.144l.144-.144c0 .384-.15.689-.451.913-.295.224-.689.336-1.182.336zm.211-.682c.41 0 .746-.102 1.009-.307a.957.957 0 00.394-.788v-.75h-1.614c-.288 0-.516.081-.682.241-.167.16-.25.378-.25.653 0 .295.1.528.298.701.205.167.487.25.845.25zm3.96.586v-5.284h.865v2.2h2.23v-2.2h.864V149h-.865v-2.296h-2.229V149h-.864zm7.208.096c-.557 0-.996-.141-1.316-.423-.32-.288-.48-.675-.48-1.162 0-.493.16-.881.48-1.162.32-.282.753-.423 1.297-.423h1.633v-.529c0-.326-.1-.576-.298-.749-.192-.179-.467-.269-.826-.269-.314 0-.576.067-.788.202a.717.717 0 00-.365.528h-.864c.058-.454.272-.816.644-1.085.37-.269.835-.404 1.392-.404.609 0 1.09.157 1.442.471.352.314.528.74.528 1.278V149h-.846v-1.009h-.144l.144-.144c0 .384-.15.689-.451.913-.295.224-.689.336-1.182.336zm.212-.682c.41 0 .746-.102 1.008-.307a.957.957 0 00.394-.788v-.75h-1.614c-.288 0-.515.081-.682.241-.166.16-.25.378-.25.653 0 .295.1.528.298.701.205.167.487.25.846.25zm3.297.653v-.807h.173c.295 0 .5-.115.615-.346.122-.23.186-.643.192-1.239l.058-2.959h3.583V149h-.865v-4.496h-1.863l-.048 2.21c-.013.557-.077 1.008-.192 1.354-.11.346-.282.599-.52.759-.23.16-.534.24-.912.24h-.22zm14.021.029c-.653 0-1.152-.179-1.498-.538-.346-.365-.519-.858-.519-1.479v-5.092h.865v5.092c0 .384.092.688.278.912.192.224.484.337.874.337.385 0 .673-.113.865-.337.192-.224.288-.528.288-.912v-5.092h.865v5.092c0 .627-.173 1.12-.519 1.479-.34.359-.839.538-1.499.538zm3.692-.096v-5.284h.864v1.009h.183l-.183.202c0-.417.125-.737.375-.961.25-.23.596-.346 1.038-.346.531 0 .954.164 1.268.49.314.327.47.772.47 1.336V149h-.864v-3.458c0-.378-.103-.666-.308-.865-.198-.205-.47-.307-.816-.307-.359 0-.644.108-.855.326-.205.218-.308.532-.308.942V149h-.864zm5.622 0v-.788h1.874v-3.708H88.1v-.788h2.498v4.496h1.777V149H87.86zm2.21-6.235c-.212 0-.378-.054-.5-.163a.563.563 0 01-.182-.442c0-.192.06-.343.182-.452.122-.115.288-.172.5-.172.211 0 .378.057.5.172.121.109.182.26.182.452a.562.562 0 01-.183.442c-.121.109-.288.163-.5.163zm5.584 6.331c-.423 0-.794-.08-1.115-.24a1.73 1.73 0 01-.73-.692c-.173-.307-.26-.669-.26-1.085v-1.441c0-.423.087-.785.26-1.086.173-.301.417-.531.73-.692.32-.16.692-.24 1.115-.24.608 0 1.098.164 1.47.49.371.327.566.772.586 1.336h-.865c-.02-.34-.135-.599-.346-.779-.205-.185-.487-.278-.845-.278-.378 0-.68.109-.903.326-.224.212-.337.516-.337.913v1.451c0 .397.113.704.337.922.224.218.525.327.903.327.358 0 .64-.093.845-.279.212-.186.327-.445.346-.778h.865c-.02.563-.215 1.008-.586 1.335-.372.327-.862.49-1.47.49zm5.651-.019c-.423 0-.788-.08-1.095-.24a1.743 1.743 0 01-.72-.692c-.167-.307-.25-.669-.25-1.086v-1.402c0-.423.083-.785.25-1.086a1.74 1.74 0 01.72-.691c.307-.161.672-.241 1.095-.241.423 0 .788.08 1.095.241.308.16.545.39.711.691.173.301.259.66.259 1.076v1.412c0 .417-.086.779-.259 1.086a1.677 1.677 0 01-.711.692c-.307.16-.672.24-1.095.24zm0-.769c.378 0 .672-.105.884-.317.211-.211.317-.522.317-.932v-1.402c0-.41-.106-.721-.317-.932-.212-.211-.506-.317-.884-.317-.371 0-.666.106-.884.317-.211.211-.317.522-.317.932v1.402c0 .41.106.721.317.932.218.212.513.317.884.317zm5.728.788a2.46 2.46 0 01-1.114-.24 1.724 1.724 0 01-.73-.692c-.173-.307-.26-.669-.26-1.085v-1.441c0-.423.087-.785.26-1.086a1.73 1.73 0 01.73-.692c.32-.16.691-.24 1.114-.24.608 0 1.098.164 1.47.49.371.327.567.772.586 1.336h-.865c-.019-.34-.134-.599-.346-.779-.204-.185-.486-.278-.845-.278-.378 0-.679.109-.903.326-.224.212-.336.516-.336.913v1.451c0 .397.112.704.336.922.224.218.525.327.903.327.359 0 .641-.093.845-.279.212-.186.327-.445.346-.778h.865c-.019.563-.215 1.008-.586 1.335-.372.327-.862.49-1.47.49zm5.651-.019c-.422 0-.787-.08-1.095-.24a1.745 1.745 0 01-.72-.692c-.167-.307-.25-.669-.25-1.086v-1.402c0-.423.083-.785.25-1.086.173-.301.413-.531.72-.691.308-.161.673-.241 1.095-.241.423 0 .788.08 1.095.241.308.16.545.39.711.691.173.301.26.66.26 1.076v1.412c0 .417-.087.779-.26 1.086a1.677 1.677 0 01-.711.692c-.307.16-.672.24-1.095.24zm0-.769c.378 0 .673-.105.884-.317.211-.211.317-.522.317-.932v-1.402c0-.41-.106-.721-.317-.932-.211-.211-.506-.317-.884-.317-.371 0-.666.106-.884.317-.211.211-.317.522-.317.932v1.402c0 .41.106.721.317.932.218.212.513.317.884.317zm3.442.692v-5.284h.759v.634h.173l-.135.231c0-.295.077-.528.231-.701.16-.173.375-.26.644-.26.294 0 .522.109.682.327.16.218.24.525.24.922l-.26-.519h.404l-.183.231c0-.295.08-.528.241-.701a.865.865 0 01.653-.26c.333 0 .589.125.768.375.186.25.279.579.279.989V149h-.797v-4.025c0-.218-.048-.388-.145-.509-.089-.122-.224-.183-.403-.183a.51.51 0 00-.413.183c-.096.115-.144.281-.144.499V149h-.692v-4.025c0-.224-.051-.394-.154-.509a.494.494 0 00-.413-.183c-.179 0-.314.061-.403.183-.09.115-.135.281-.135.499V149h-.797zm7.169 0v-3.968h-1.537v-.787h1.537v-.913c0-.416.131-.743.394-.98.263-.243.624-.365 1.086-.365h1.546v.788h-1.546c-.199 0-.353.048-.462.144-.102.09-.153.227-.153.413v.913h2.161v.787h-2.161V149h-.865zm6.458.077c-.422 0-.787-.08-1.095-.24a1.745 1.745 0 01-.72-.692c-.167-.307-.25-.669-.25-1.086v-1.402c0-.423.083-.785.25-1.086.173-.301.413-.531.72-.691.308-.161.673-.241 1.095-.241.423 0 .788.08 1.095.241.308.16.545.39.711.691.173.301.26.66.26 1.076v1.412c0 .417-.087.779-.26 1.086a1.677 1.677 0 01-.711.692c-.307.16-.672.24-1.095.24zm0-.769c.378 0 .673-.105.884-.317.211-.211.317-.522.317-.932v-1.402c0-.41-.106-.721-.317-.932-.211-.211-.506-.317-.884-.317-.371 0-.666.106-.884.317-.211.211-.317.522-.317.932v1.402c0 .41.106.721.317.932.218.212.513.317.884.317zm3.874.692v-5.284h.846v1.009h.201l-.278.624c0-.57.121-.999.365-1.287.25-.294.618-.442 1.105-.442.557 0 .999.176 1.325.529.333.345.5.816.5 1.412v.317h-.865v-.24c0-.417-.102-.734-.307-.951-.199-.225-.484-.337-.855-.337-.365 0-.653.112-.865.337-.205.224-.307.541-.307.951V149h-.865zm8.082 0c-.455 0-.81-.122-1.066-.365-.25-.243-.375-.586-.375-1.028v-3.103h-1.489v-.788h1.489v-1.489h.865v1.489h2.113v.788h-2.113v3.103c0 .404.192.605.576.605h1.441V149h-1.441zm5.113.096c-.243 0-.438-.07-.586-.211-.141-.141-.211-.33-.211-.567 0-.25.07-.448.211-.596.148-.147.343-.221.586-.221.244 0 .436.074.577.221.147.148.221.346.221.596 0 .237-.074.426-.221.567-.141.141-.333.211-.577.211zm-128.091 16.55c-.333 0-.609-.109-.827-.326a1.12 1.12 0 01-.326-.826c0-.34.109-.615.326-.827.218-.217.494-.326.827-.326.339 0 .614.109.826.326.218.212.326.487.326.827 0 .333-.108.608-.326.826-.212.217-.487.326-.826.326zM25.418 168v-7.013h4.035v.788h-3.18v2.171h2.844v.778h-2.844v2.488h3.18V168h-4.035zm7.63.096c-.422 0-.794-.08-1.114-.24a1.73 1.73 0 01-.73-.692c-.173-.307-.26-.669-.26-1.085v-1.441c0-.423.087-.785.26-1.086.173-.301.416-.531.73-.692.32-.16.692-.24 1.114-.24.609 0 1.099.164 1.47.49.372.327.567.772.586 1.336h-.864c-.02-.34-.135-.599-.346-.779-.205-.185-.487-.278-.846-.278-.378 0-.678.109-.903.326-.224.212-.336.516-.336.913v1.451c0 .397.112.704.336.922.224.218.525.327.903.327.359 0 .64-.093.846-.279.211-.186.326-.445.346-.778h.864c-.019.563-.214 1.008-.586 1.335-.371.327-.861.49-1.47.49zm3.029-.029v-.807h.173c.294 0 .5-.115.615-.346.121-.23.185-.643.192-1.239l.057-2.959h3.584V168h-.865v-4.496H37.97l-.048 2.21c-.012.557-.076 1.008-.192 1.354-.109.346-.282.599-.518.759-.231.16-.535.24-.913.24h-.221zm6.352-.067v-5.284h.827v2.882c0 .186-.007.381-.02.586a8.055 8.055 0 01-.038.586c-.013.18-.029.333-.048.461l2.133-4.515h1.104V168h-.826v-2.882c0-.186.004-.381.01-.586.013-.205.029-.4.048-.586l.048-.471L43.534 168H42.43zm11.38 0v-5.284h.864v2.2h2.23v-2.2h.864V168h-.865v-2.296h-2.229V168h-.864zm7.668.096a2.3 2.3 0 01-1.095-.25 1.804 1.804 0 01-.72-.701 2.203 2.203 0 01-.25-1.066v-1.441c0-.41.083-.766.25-1.067a1.81 1.81 0 01.72-.701 2.3 2.3 0 011.095-.25c.417 0 .779.083 1.086.25.314.167.554.4.72.701.173.301.26.657.26 1.067v.931h-3.286v.51c0 .416.106.736.317.96.212.218.513.327.903.327.333 0 .602-.058.807-.173a.764.764 0 00.375-.538h.865a1.473 1.473 0 01-.654 1.057c-.371.256-.835.384-1.393.384zm1.22-3.103v-.355c0-.417-.105-.737-.317-.961-.205-.224-.506-.336-.903-.336-.39 0-.691.112-.903.336-.211.224-.317.544-.317.961v.278h2.508l-.068.077zM66.736 168v-4.525h-1.922v-.759h4.708v.759H67.6V168h-.864zm4.825 1.537l.768-2.988h1.25l-1.25 2.988h-.768zm12.676-1.441c-.621 0-1.114-.182-1.48-.548-.358-.371-.537-.877-.537-1.517v-2.402c0-.845.211-1.496.634-1.95.422-.461 1.028-.692 1.815-.692h1.345v.865h-1.345c-.518 0-.912.153-1.181.461-.27.301-.404.74-.404 1.316v.624h.135l-.135.193c.007-.378.135-.673.385-.884.25-.212.589-.317 1.018-.317.557 0 .99.179 1.297.538.314.358.47.851.47 1.479v.769c0 .429-.08.797-.24 1.104-.16.308-.39.545-.691.711-.301.167-.663.25-1.086.25zm0-.768c.371 0 .656-.113.855-.337.199-.224.298-.544.298-.96v-.769c0-.416-.1-.736-.298-.961-.198-.224-.483-.336-.855-.336-.371 0-.656.112-.855.336-.198.218-.298.538-.298.961v.769c0 .416.1.736.298.96.199.224.484.337.855.337zm5.69.749c-.423 0-.788-.08-1.096-.24a1.744 1.744 0 01-.72-.692c-.166-.307-.25-.669-.25-1.086v-1.402c0-.423.084-.785.25-1.086.173-.301.413-.531.72-.691.308-.161.673-.241 1.096-.241.422 0 .787.08 1.095.241.307.16.544.39.71.691.174.301.26.66.26 1.076v1.412c0 .417-.086.779-.26 1.086a1.683 1.683 0 01-.71.692c-.308.16-.673.24-1.095.24zm0-.769c.377 0 .672-.105.883-.317.212-.211.317-.522.317-.932v-1.402c0-.41-.105-.721-.317-.932-.21-.211-.505-.317-.883-.317-.372 0-.666.106-.884.317-.212.211-.317.522-.317.932v1.402c0 .41.106.721.317.932.218.212.512.317.884.317zm5.257.692v-4.525h-1.921v-.759h4.707v.759h-1.921V168h-.865zm9.833 0v-5.284h3.958V168h-.865v-4.496h-2.229V168h-.864zm5.67 1.729v-7.013h.865v1.009h.173l-.173.202c0-.404.131-.721.394-.951.269-.237.621-.356 1.056-.356.532 0 .955.176 1.268.529.321.345.481.823.481 1.431v1.547c0 .403-.074.752-.221 1.047a1.577 1.577 0 01-.605.682c-.257.16-.564.24-.923.24-.429 0-.778-.118-1.047-.355-.269-.237-.403-.554-.403-.951l.173.201h-.193l.02 1.201v1.537h-.865zm2.027-2.382c.365 0 .65-.109.855-.327.211-.218.317-.531.317-.941v-1.441c0-.41-.106-.724-.317-.942-.205-.218-.49-.326-.855-.326-.352 0-.634.112-.845.336-.212.224-.317.535-.317.932v1.441c0 .397.105.707.317.932.211.224.493.336.845.336zm5.661.749c-.416 0-.781-.083-1.095-.25a1.802 1.802 0 01-.721-.701 2.208 2.208 0 01-.249-1.066v-1.441c0-.41.083-.766.249-1.067.173-.301.413-.534.721-.701.314-.167.679-.25 1.095-.25.416 0 .778.083 1.086.25.313.167.554.4.72.701.173.301.259.657.259 1.067v.931h-3.285v.51c0 .416.106.736.317.96.211.218.512.327.903.327.333 0 .602-.058.807-.173a.765.765 0 00.375-.538h.864a1.47 1.47 0 01-.653 1.057c-.372.256-.836.384-1.393.384zm1.22-3.103v-.355c0-.417-.106-.737-.317-.961-.205-.224-.506-.336-.903-.336-.391 0-.692.112-.903.336-.211.224-.317.544-.317.961v.278h2.507l-.067.077zm1.876 4.352v-2.085h.432c.109-.109.221-.323.336-.643.122-.321.186-.727.192-1.22l.058-2.681h3.449v4.544h.672v2.085h-.768V168h-3.603v1.345h-.768zm1.345-2.085h2.257v-3.775h-1.767l-.039 1.931c-.006.506-.061.916-.163 1.229-.103.314-.199.519-.288.615zm4.296.807v-.807h.173c.295 0 .5-.115.615-.346.122-.23.186-.643.192-1.239l.058-2.959h3.583V168h-.864v-4.496h-1.864l-.048 2.21c-.013.557-.077 1.008-.192 1.354-.109.346-.282.599-.519.759-.231.16-.535.24-.913.24h-.221zm7.871.029c-.557 0-.996-.141-1.316-.423-.321-.288-.481-.675-.481-1.162 0-.493.16-.881.481-1.162.32-.282.752-.423 1.297-.423h1.633v-.529c0-.326-.1-.576-.298-.749-.192-.179-.468-.269-.826-.269-.314 0-.577.067-.788.202a.718.718 0 00-.365.528h-.865c.058-.454.273-.816.644-1.085s.836-.404 1.393-.404c.608 0 1.089.157 1.441.471.352.314.528.74.528 1.278V168h-.845v-1.009h-.144l.144-.144c0 .384-.151.689-.452.913-.294.224-.688.336-1.181.336zm.211-.682c.41 0 .746-.102 1.009-.307a.959.959 0 00.394-.788v-.75h-1.614c-.288 0-.516.081-.682.241-.167.16-.25.378-.25.653 0 .295.099.528.298.701.205.167.486.25.845.25zm4.306.586v-5.284h3.795v.788h-2.93V168h-.865zm6.862.096c-.557 0-.996-.141-1.316-.423-.32-.288-.48-.675-.48-1.162 0-.493.16-.881.48-1.162.32-.282.753-.423 1.297-.423h1.633v-.529c0-.326-.099-.576-.298-.749-.192-.179-.467-.269-.826-.269-.314 0-.576.067-.788.202a.718.718 0 00-.365.528h-.864c.057-.454.272-.816.643-1.085.372-.269.836-.404 1.393-.404.609 0 1.089.157 1.441.471.353.314.529.74.529 1.278V168h-.846v-1.009h-.144l.144-.144c0 .384-.15.689-.451.913-.295.224-.689.336-1.182.336zm.211-.682c.41 0 .747-.102 1.009-.307a.956.956 0 00.394-.788v-.75h-1.614c-.288 0-.515.081-.682.241-.166.16-.25.378-.25.653 0 .295.1.528.298.701.205.167.487.25.845.25zm5.94.682c-.416 0-.781-.083-1.095-.25a1.802 1.802 0 01-.721-.701 2.209 2.209 0 01-.25-1.066v-1.441c0-.41.084-.766.25-1.067.173-.301.413-.534.721-.701.314-.167.679-.25 1.095-.25.416 0 .778.083 1.085.25.314.167.554.4.721.701.173.301.259.657.259 1.067v.931h-3.285v.51c0 .416.105.736.317.96.211.218.512.327.903.327.333 0 .602-.058.807-.173a.765.765 0 00.375-.538h.864a1.473 1.473 0 01-.653 1.057c-.372.256-.836.384-1.393.384zm1.22-3.103v-.355c0-.417-.106-.737-.317-.961-.205-.224-.506-.336-.903-.336-.391 0-.692.112-.903.336-.212.224-.317.544-.317.961v.278h2.507l-.067.077zM157.77 168v-4.525h-1.921v-.759h4.707v.759h-1.921V168h-.865zM25.36 187v-5.284h3.959V187h-.865v-4.496h-2.229V187h-.865zm7.67.077c-.424 0-.789-.08-1.096-.24a1.743 1.743 0 01-.72-.692c-.167-.307-.25-.669-.25-1.086v-1.402c0-.423.083-.785.25-1.086a1.74 1.74 0 01.72-.691c.307-.161.672-.241 1.095-.241.423 0 .788.08 1.095.241.308.16.545.39.711.691.173.301.26.66.26 1.076v1.412c0 .417-.087.779-.26 1.086a1.683 1.683 0 01-.71.692c-.308.16-.673.24-1.096.24zm0-.769c.377 0 .672-.105.883-.317.211-.211.317-.522.317-.932v-1.402c0-.41-.106-.721-.317-.932-.211-.211-.506-.317-.884-.317-.371 0-.666.106-.884.317-.211.211-.317.522-.317.932v1.402c0 .41.106.721.317.932.218.212.513.317.884.317zm3.095 2.037v-2.085h.432c.11-.109.221-.323.337-.643.121-.321.185-.727.192-1.22l.057-2.681h3.45v4.544h.672v2.085h-.769V187h-3.602v1.345h-.769zm1.345-2.085h2.258v-3.775H37.96l-.039 1.931c-.006.506-.06.916-.163 1.229-.102.314-.198.519-.288.615zm4.96.74v-5.284h3.957V187h-.864v-4.496h-2.229V187h-.864zm5.69 0v-5.284h.825v2.882c0 .186-.006.381-.019.586a8.66 8.66 0 01-.038.586c-.013.18-.03.333-.048.461l2.132-4.515h1.105V187h-.826v-2.882c0-.186.003-.381.01-.586.012-.205.028-.4.047-.586l.049-.471L49.224 187h-1.105zm7.687.096a2.46 2.46 0 01-1.114-.24 1.73 1.73 0 01-.73-.692c-.174-.307-.26-.669-.26-1.085v-1.441c0-.423.086-.785.26-1.086a1.73 1.73 0 01.73-.692c.32-.16.691-.24 1.114-.24.608 0 1.098.164 1.47.49.371.327.567.772.586 1.336h-.865c-.019-.34-.134-.599-.346-.779-.205-.185-.486-.278-.845-.278-.378 0-.679.109-.903.326-.224.212-.336.516-.336.913v1.451c0 .397.112.704.336.922.224.218.525.327.903.327.359 0 .64-.093.845-.279.212-.186.327-.445.346-.778h.865c-.02.563-.215 1.008-.586 1.335-.372.327-.862.49-1.47.49zm5.21 0c-.558 0-.997-.141-1.317-.423-.32-.288-.48-.675-.48-1.162 0-.493.16-.881.48-1.162.32-.282.753-.423 1.297-.423h1.633v-.529c0-.326-.1-.576-.298-.749-.192-.179-.467-.269-.826-.269-.314 0-.576.067-.788.202a.717.717 0 00-.365.528h-.864c.058-.454.272-.816.644-1.085.37-.269.835-.404 1.392-.404.609 0 1.09.157 1.442.471.352.314.528.74.528 1.278V187h-.846v-1.009h-.144l.144-.144c0 .384-.15.689-.451.913-.295.224-.689.336-1.182.336zm.21-.682c.41 0 .747-.102 1.01-.307a.957.957 0 00.393-.788v-.75h-1.614c-.288 0-.515.081-.682.241-.166.16-.25.378-.25.653 0 .295.1.528.298.701.205.167.487.25.846.25zm5.508.586v-4.525h-1.922v-.759h4.708v.759h-1.922V187h-.864zm4.181 0v-5.284h.865v1.941h1.556c.596 0 1.063.15 1.403.451.346.295.518.702.518 1.22 0 .513-.172.919-.518 1.22-.346.301-.814.452-1.403.452h-2.42zm.865-.788h1.556c.333 0 .586-.073.759-.221.18-.153.269-.374.269-.663 0-.288-.09-.506-.269-.653-.173-.154-.426-.23-.759-.23h-1.556v1.767zm6.785.884c-.423 0-.795-.08-1.115-.24a1.73 1.73 0 01-.73-.692c-.173-.307-.26-.669-.26-1.085v-1.441c0-.423.087-.785.26-1.086.173-.301.416-.531.73-.692.32-.16.692-.24 1.115-.24.608 0 1.098.164 1.47.49.37.327.566.772.585 1.336h-.864c-.02-.34-.135-.599-.346-.779-.205-.185-.487-.278-.845-.278-.378 0-.68.109-.904.326-.224.212-.336.516-.336.913v1.451c0 .397.112.704.337.922.224.218.525.327.903.327.358 0 .64-.093.845-.279.211-.186.327-.445.346-.778h.864c-.019.563-.214 1.008-.586 1.335-.371.327-.861.49-1.47.49zM81.93 187l1.355-2.037c-.403-.096-.717-.281-.941-.557-.218-.275-.327-.618-.327-1.028 0-.519.17-.925.509-1.22.346-.294.817-.442 1.412-.442h2.277V187h-.865v-1.969h-1.162L82.939 187H81.93zm2.008-2.738h1.412v-1.777h-1.412c-.32 0-.573.08-.759.24-.185.154-.278.371-.278.653 0 .276.093.493.278.654.186.153.439.23.76.23zM93.636 187v-5.284h.827v2.882c0 .186-.007.381-.02.586a8.055 8.055 0 01-.038.586c-.013.18-.029.333-.048.461l2.133-4.515h1.104V187h-.826v-2.882c0-.186.003-.381.01-.586.013-.205.029-.4.048-.586l.048-.471L94.74 187h-1.105zm-68.275 20v-5.284h3.957V207h-.864v-4.496h-2.229V207h-.865zm5.67 1.729v-7.013h.864v1.009h.174l-.174.202c0-.404.132-.721.394-.951.27-.237.622-.356 1.057-.356.532 0 .954.176 1.268.529.32.345.48.823.48 1.431v1.547c0 .403-.073.752-.22 1.047a1.573 1.573 0 01-.606.682c-.256.16-.563.24-.922.24-.429 0-.778-.118-1.047-.355-.269-.237-.404-.554-.404-.951l.174.201h-.193l.02 1.201v1.537h-.865zm2.027-2.382c.365 0 .65-.109.855-.327.211-.218.317-.531.317-.941v-1.441c0-.41-.106-.724-.317-.942-.205-.218-.49-.326-.855-.326-.352 0-.634.112-.845.336-.212.224-.318.535-.318.932v1.441c0 .397.106.707.318.932.21.224.493.336.845.336zm5.66.749c-.416 0-.78-.083-1.094-.25a1.803 1.803 0 01-.72-.701 2.203 2.203 0 01-.25-1.066v-1.441c0-.41.083-.766.25-1.067a1.81 1.81 0 01.72-.701c.313-.167.678-.25 1.095-.25.416 0 .778.083 1.085.25.314.167.554.4.72.701.174.301.26.657.26 1.067v.931H37.5v.51c0 .416.105.736.317.96.211.218.512.327.903.327.333 0 .602-.058.807-.173a.764.764 0 00.374-.538h.865a1.473 1.473 0 01-.653 1.057c-.372.256-.836.384-1.393.384zm1.22-3.103v-.355c0-.417-.105-.737-.316-.961-.205-.224-.506-.336-.903-.336-.39 0-.692.112-.903.336-.212.224-.317.544-.317.961v.278h2.507l-.067.077zm1.877 4.352v-2.085h.432c.109-.109.22-.323.336-.643.122-.321.186-.727.192-1.22l.058-2.681h3.449v4.544h.672v2.085h-.768V207h-3.603v1.345h-.768zm1.345-2.085h2.257v-3.775H43.65l-.039 1.931c-.006.506-.06.916-.163 1.229-.103.314-.199.519-.288.615zm6.938.817c-.423 0-.788-.08-1.095-.24a1.744 1.744 0 01-.72-.692c-.167-.307-.25-.669-.25-1.086v-1.402c0-.423.083-.785.25-1.086.172-.301.413-.531.72-.691.307-.161.672-.241 1.095-.241.423 0 .788.08 1.095.241.308.16.545.39.711.691.173.301.26.66.26 1.076v1.412c0 .417-.087.779-.26 1.086a1.684 1.684 0 01-.71.692c-.308.16-.673.24-1.096.24zm0-.769c.378 0 .673-.105.884-.317.211-.211.317-.522.317-.932v-1.402c0-.41-.106-.721-.317-.932-.211-.211-.506-.317-.884-.317-.371 0-.666.106-.884.317-.211.211-.317.522-.317.932v1.402c0 .41.106.721.317.932.218.212.513.317.884.317zm5.709.788a2.46 2.46 0 01-1.114-.24 1.73 1.73 0 01-.73-.692c-.174-.307-.26-.669-.26-1.085v-1.441c0-.423.086-.785.26-1.086a1.73 1.73 0 01.73-.692c.32-.16.691-.24 1.114-.24.608 0 1.098.164 1.47.49.371.327.567.772.586 1.336h-.865c-.019-.34-.134-.599-.346-.779-.205-.185-.486-.278-.845-.278-.378 0-.679.109-.903.326-.224.212-.336.516-.336.913v1.451c0 .397.112.704.336.922.224.218.525.327.903.327.359 0 .64-.093.845-.279.212-.186.327-.445.346-.778h.865c-.02.563-.215 1.008-.586 1.335-.372.327-.862.49-1.47.49zm5.238-.096v-4.525h-1.921v-.759h4.707v.759H61.91V207h-.865zm5.66.096c-.556 0-.995-.141-1.315-.423-.32-.288-.48-.675-.48-1.162 0-.493.16-.881.48-1.162.32-.282.752-.423 1.297-.423h1.633v-.529c0-.326-.1-.576-.298-.749-.192-.179-.468-.269-.826-.269-.314 0-.576.067-.788.202a.717.717 0 00-.365.528h-.865c.058-.454.273-.816.644-1.085.372-.269.836-.404 1.393-.404.608 0 1.089.157 1.441.471.352.314.528.74.528 1.278V207h-.845v-1.009h-.144l.144-.144c0 .384-.15.689-.451.913-.295.224-.689.336-1.182.336zm.212-.682c.41 0 .746-.102 1.009-.307a.957.957 0 00.394-.788v-.75h-1.614c-.288 0-.516.081-.682.241-.167.16-.25.378-.25.653 0 .295.1.528.298.701.205.167.487.25.845.25zm3.96.586v-5.284h2.287c.55 0 .977.125 1.278.375.3.243.451.586.451 1.028 0 .365-.124.66-.374.884-.25.217-.58.326-.99.326v-.077c.449 0 .807.113 1.076.337.275.224.413.525.413.903 0 .474-.16.845-.48 1.114-.32.263-.769.394-1.345.394h-2.315zm.846-.759h1.47c.307 0 .544-.067.71-.202.174-.134.26-.323.26-.566 0-.25-.086-.442-.26-.577-.166-.134-.403-.202-.71-.202h-1.47v1.547zm0-2.296h1.441c.27 0 .48-.064.634-.192.16-.128.24-.307.24-.538 0-.231-.076-.41-.23-.538-.154-.135-.369-.202-.644-.202h-1.44v1.47zm4.181 3.122v-.807h.173c.295 0 .5-.115.615-.346.122-.23.186-.643.192-1.239l.058-2.959h3.583V207h-.864v-4.496h-1.864l-.048 2.21c-.013.557-.077 1.008-.192 1.354-.109.346-.282.599-.519.759-.23.16-.535.24-.912.24h-.222zM81.93 207l1.355-2.037c-.403-.096-.717-.281-.941-.557-.218-.275-.327-.618-.327-1.028 0-.519.17-.925.509-1.22.346-.294.817-.442 1.412-.442h2.277V207h-.865v-1.969h-1.162L82.939 207H81.93zm2.008-2.738h1.412v-1.777h-1.412c-.32 0-.573.08-.759.24-.185.154-.278.371-.278.653 0 .276.093.493.278.654.186.153.439.23.76.23zm5.988 2.834c-.417 0-.782-.083-1.096-.25a1.803 1.803 0 01-.72-.701 2.203 2.203 0 01-.25-1.066v-1.441c0-.41.084-.766.25-1.067a1.81 1.81 0 01.72-.701c.314-.167.68-.25 1.096-.25.416 0 .778.083 1.085.25.314.167.554.4.72.701.174.301.26.657.26 1.067v.931h-3.285v.51c0 .416.105.736.317.96.211.218.512.327.903.327.333 0 .602-.058.807-.173a.764.764 0 00.374-.538h.865a1.473 1.473 0 01-.653 1.057c-.372.256-.836.384-1.393.384zm1.22-3.103v-.355c0-.417-.106-.737-.317-.961-.205-.224-.506-.336-.903-.336-.391 0-.692.112-.903.336-.212.224-.317.544-.317.961v.278h2.507l-.067.077zM95.183 207v-4.525h-1.921v-.759h4.707v.759h-1.921V207h-.865zm11.831.096c-.423 0-.794-.08-1.115-.24a1.735 1.735 0 01-.73-.692c-.173-.307-.259-.669-.259-1.085v-1.441c0-.423.086-.785.259-1.086.173-.301.417-.531.73-.692.321-.16.692-.24 1.115-.24.608 0 1.098.164 1.47.49.371.327.566.772.586 1.336h-.865c-.019-.34-.134-.599-.346-.779-.205-.185-.486-.278-.845-.278-.378 0-.679.109-.903.326-.224.212-.336.516-.336.913v1.451c0 .397.112.704.336.922.224.218.525.327.903.327.359 0 .64-.093.845-.279.212-.186.327-.445.346-.778h.865c-.02.563-.215 1.008-.586 1.335-.372.327-.862.49-1.47.49zm5.69 0c-.423 0-.795-.08-1.115-.24a1.73 1.73 0 01-.73-.692c-.173-.307-.259-.669-.259-1.085v-1.441c0-.423.086-.785.259-1.086.173-.301.416-.531.73-.692.32-.16.692-.24 1.115-.24.608 0 1.098.164 1.469.49.372.327.567.772.586 1.336h-.864c-.019-.34-.135-.599-.346-.779-.205-.185-.487-.278-.845-.278-.378 0-.679.109-.904.326-.224.212-.336.516-.336.913v1.451c0 .397.112.704.336.922.225.218.526.327.904.327.358 0 .64-.093.845-.279.211-.186.327-.445.346-.778h.864c-.019.563-.214 1.008-.586 1.335-.371.327-.861.49-1.469.49zm3.412-.096v-5.284h.807v1.941h.433c.57 0 1.018.15 1.345.451.333.295.499.702.499 1.22 0 .519-.166.929-.499 1.23-.327.295-.775.442-1.345.442h-1.24zm.807-.692h.433c.339 0 .602-.086.787-.259.193-.173.289-.413.289-.721 0-.307-.096-.547-.289-.72-.185-.173-.448-.259-.787-.259h-.433v1.959zm2.902.692v-5.284h.807V207h-.807zm1.597.067v-.807h.173c.294 0 .499-.115.615-.346.121-.23.185-.643.192-1.239l.057-2.959h3.584V207h-.865v-4.496h-1.864l-.048 2.21c-.013.557-.077 1.008-.192 1.354-.109.346-.282.599-.519.759-.23.16-.534.24-.912.24h-.221zm6.381-.067v-5.284h.865v2.181h.903l1.537-2.181h.989l-1.777 2.517 1.806 2.767h-1.009l-1.537-2.354h-.912V207h-.865zm6.468 1.729l.778-2.056-1.96-4.957h.961l1.23 3.267c.044.108.086.24.124.393l.097.375c.025-.102.057-.227.096-.375.038-.153.076-.285.115-.393l1.153-3.267h.932l-2.604 7.013h-.922zM144.843 207v-5.284h.865v2.2h2.229v-2.2h.864V207h-.864v-2.296h-2.229V207h-.865zm7.208.096c-.557 0-.996-.141-1.316-.423-.321-.288-.481-.675-.481-1.162 0-.493.16-.881.481-1.162.32-.282.752-.423 1.297-.423h1.633v-.529c0-.326-.1-.576-.298-.749-.192-.179-.468-.269-.826-.269-.314 0-.577.067-.788.202a.718.718 0 00-.365.528h-.865c.058-.454.272-.816.644-1.085.371-.269.836-.404 1.393-.404.608 0 1.089.157 1.441.471.352.314.528.74.528 1.278V207h-.845v-1.009h-.144l.144-.144c0 .384-.151.689-.452.913-.294.224-.688.336-1.181.336zm.211-.682c.41 0 .746-.102 1.009-.307a.959.959 0 00.394-.788v-.75h-1.614c-.288 0-.516.081-.682.241-.167.16-.25.378-.25.653 0 .295.099.528.298.701.205.167.486.25.845.25zM25.389 226v-5.284h.865v2.181h.903l1.537-2.181h.99l-1.778 2.517L29.712 226h-1.008l-1.537-2.354h-.913V226h-.865zm7.179.096c-.557 0-.996-.141-1.316-.423-.32-.288-.48-.675-.48-1.162 0-.493.16-.881.48-1.162.32-.282.752-.423 1.297-.423h1.633v-.529c0-.326-.1-.576-.298-.749-.192-.179-.467-.269-.826-.269-.314 0-.577.067-.788.202a.717.717 0 00-.365.528h-.864c.057-.454.272-.816.643-1.085.372-.269.836-.404 1.393-.404.609 0 1.089.157 1.441.471.352.314.529.74.529 1.278V226H34.2v-1.009h-.144l.144-.144c0 .384-.15.689-.451.913-.295.224-.689.336-1.182.336zm.211-.682c.41 0 .746-.102 1.01-.307a.957.957 0 00.393-.788v-.75h-1.614c-.288 0-.516.081-.682.241-.167.16-.25.378-.25.653 0 .295.1.528.298.701.205.167.487.25.845.25zm3.96.586v-5.284h.865v2.2h2.23v-2.2h.864V226h-.865v-2.296h-2.229V226h-.864zm7.208.096c-.557 0-.996-.141-1.316-.423-.32-.288-.48-.675-.48-1.162 0-.493.16-.881.48-1.162.32-.282.753-.423 1.297-.423h1.633v-.529c0-.326-.099-.576-.298-.749-.192-.179-.467-.269-.826-.269-.314 0-.576.067-.787.202a.717.717 0 00-.365.528h-.865c.057-.454.272-.816.643-1.085.372-.269.836-.404 1.393-.404.609 0 1.09.157 1.441.471.353.314.529.74.529 1.278V226h-.846v-1.009h-.144l.145-.144c0 .384-.151.689-.452.913-.295.224-.688.336-1.182.336zm.212-.682c.41 0 .746-.102 1.008-.307a.957.957 0 00.394-.788v-.75h-1.614c-.288 0-.515.081-.682.241-.166.16-.25.378-.25.653 0 .295.1.528.298.701.205.167.487.25.846.25zm3.297.653v-.807h.173c.295 0 .5-.115.615-.346.122-.23.186-.643.192-1.239l.058-2.959h3.583V226h-.864v-4.496h-1.864l-.048 2.21c-.013.557-.077 1.008-.192 1.354-.11.346-.282.599-.52.759-.23.16-.534.24-.912.24h-.22zm8.332.029c-.244 0-.439-.07-.586-.211-.141-.141-.212-.33-.212-.567 0-.25.07-.448.212-.596.147-.147.342-.221.586-.221.243 0 .435.074.576.221.148.148.221.346.221.596 0 .237-.074.426-.22.567-.142.141-.334.211-.577.211zm-37.057 16.55c-.333 0-.609-.109-.827-.326a1.12 1.12 0 01-.326-.826c0-.34.109-.615.326-.827.218-.217.494-.326.827-.326.339 0 .614.109.826.326.218.212.326.487.326.827 0 .333-.108.608-.326.826-.212.217-.487.326-.826.326zM25.36 245v-7.013h3.957V245h-.864v-6.225h-2.229V245h-.865zm7.668.077c-.423 0-.788-.08-1.095-.24a1.743 1.743 0 01-.72-.692c-.167-.307-.25-.669-.25-1.086v-1.402c0-.423.083-.785.25-1.086a1.74 1.74 0 01.72-.691c.307-.161.672-.241 1.095-.241.423 0 .788.08 1.095.241.308.16.545.39.711.691.173.301.26.66.26 1.076v1.412c0 .417-.087.779-.26 1.086a1.683 1.683 0 01-.71.692c-.308.16-.673.24-1.096.24zm0-.769c.378 0 .673-.105.884-.317.211-.211.317-.522.317-.932v-1.402c0-.41-.106-.721-.317-.932-.211-.211-.506-.317-.884-.317-.371 0-.666.106-.884.317-.211.211-.317.522-.317.932v1.402c0 .41.106.721.317.932.218.212.513.317.884.317zm5.709.788a2.46 2.46 0 01-1.114-.24 1.73 1.73 0 01-.73-.692c-.173-.307-.26-.669-.26-1.085v-1.441c0-.423.087-.785.26-1.086a1.73 1.73 0 01.73-.692c.32-.16.691-.24 1.114-.24.608 0 1.098.164 1.47.49.371.327.567.772.586 1.336h-.865c-.019-.34-.134-.599-.346-.779-.205-.185-.486-.278-.845-.278-.378 0-.679.109-.903.326-.224.212-.336.516-.336.913v1.451c0 .397.112.704.336.922.224.218.525.327.903.327.359 0 .64-.093.845-.279.212-.186.327-.445.346-.778h.865c-.02.563-.215 1.008-.586 1.335-.372.327-.862.49-1.47.49zm3.029-.029v-.807h.172c.295 0 .5-.115.615-.346.122-.23.186-.643.192-1.239l.058-2.959h3.583V245h-.864v-4.496h-1.864l-.048 2.21c-.013.557-.077 1.008-.192 1.354-.109.346-.282.599-.519.759-.23.16-.535.24-.913.24h-.22zm8.331.029c-.416 0-.781-.083-1.095-.25a1.803 1.803 0 01-.72-.701 2.203 2.203 0 01-.25-1.066v-1.441c0-.41.083-.766.25-1.067a1.81 1.81 0 01.72-.701c.314-.167.679-.25 1.095-.25.416 0 .778.083 1.086.25.314.167.554.4.72.701.173.301.26.657.26 1.067v.931h-3.286v.51c0 .416.106.736.317.96.211.218.512.327.903.327.333 0 .602-.058.807-.173a.764.764 0 00.375-.538h.864a1.473 1.473 0 01-.653 1.057c-.371.256-.836.384-1.393.384zm1.22-3.103v-.355c0-.417-.105-.737-.317-.961-.205-.224-.506-.336-.903-.336-.39 0-.692.112-.903.336-.211.224-.317.544-.317.961v.278h2.507l-.067.077zm8.18 3.007v-5.284h3.958V245h-.864v-4.496h-2.229V245h-.865zm7.67.077c-.424 0-.789-.08-1.096-.24a1.744 1.744 0 01-.72-.692c-.167-.307-.25-.669-.25-1.086v-1.402c0-.423.083-.785.25-1.086.172-.301.412-.531.72-.691.307-.161.672-.241 1.095-.241.423 0 .788.08 1.095.241.308.16.545.39.711.691.173.301.26.66.26 1.076v1.412c0 .417-.087.779-.26 1.086a1.683 1.683 0 01-.71.692c-.308.16-.673.24-1.096.24zm0-.769c.377 0 .671-.105.883-.317.211-.211.317-.522.317-.932v-1.402c0-.41-.106-.721-.317-.932-.212-.211-.506-.317-.884-.317-.371 0-.666.106-.884.317-.211.211-.317.522-.317.932v1.402c0 .41.106.721.317.932.218.212.513.317.884.317zm3.095 2.037v-2.085h.432c.11-.109.221-.323.336-.643.122-.321.186-.727.193-1.22l.057-2.681h3.449v4.544h.672v2.085h-.768V245H71.03v1.345h-.768zm1.345-2.085h2.257v-3.775h-1.767l-.039 1.931c-.006.506-.06.916-.163 1.229-.102.314-.198.519-.288.615zm6.506.74v-4.525h-1.921v-.759H80.9v.759h-1.921V245h-.865zm4.143 0v-5.284h2.286c.551 0 .977.125 1.278.375.301.243.452.586.452 1.028 0 .365-.125.66-.375.884-.25.217-.58.326-.99.326v-.077c.449 0 .808.113 1.076.337.276.224.413.525.413.903 0 .474-.16.845-.48 1.114-.32.263-.768.394-1.345.394h-2.315zm.845-.759h1.47c.308 0 .545-.067.711-.202.173-.134.26-.323.26-.566 0-.25-.087-.442-.26-.577-.166-.134-.403-.202-.71-.202h-1.47v1.547zm0-2.296h1.441c.27 0 .48-.064.634-.192.16-.128.24-.307.24-.538 0-.231-.076-.41-.23-.538-.154-.135-.368-.202-.644-.202h-1.44v1.47zm6.824 3.151c-.417 0-.782-.083-1.096-.25a1.803 1.803 0 01-.72-.701 2.203 2.203 0 01-.25-1.066v-1.441c0-.41.084-.766.25-1.067a1.81 1.81 0 01.72-.701c.314-.167.68-.25 1.096-.25.416 0 .778.083 1.085.25.314.167.554.4.72.701.174.301.26.657.26 1.067v.931h-3.285v.51c0 .416.105.736.317.96.211.218.512.327.903.327.333 0 .602-.058.807-.173a.764.764 0 00.374-.538h.865a1.473 1.473 0 01-.653 1.057c-.372.256-.836.384-1.393.384zm1.22-3.103v-.355c0-.417-.106-.737-.317-.961-.205-.224-.506-.336-.903-.336-.391 0-.692.112-.903.336-.212.224-.317.544-.317.961v.278h2.507l-.067.077zm2.471 4.736v-7.013h.865v1.009h.173l-.173.202c0-.404.131-.721.394-.951.269-.237.62-.356 1.056-.356.532 0 .955.176 1.268.529.32.345.48.823.48 1.431v1.547c0 .403-.073.752-.22 1.047a1.577 1.577 0 01-.605.682c-.257.16-.564.24-.923.24-.429 0-.778-.118-1.047-.355-.269-.237-.403-.554-.403-.951l.173.201h-.192l.019 1.201v1.537h-.865zm2.027-2.382c.365 0 .65-.109.855-.327.212-.218.317-.531.317-.941v-1.441c0-.41-.106-.724-.317-.942-.205-.218-.49-.326-.855-.326-.352 0-.634.112-.845.336-.212.224-.317.535-.317.932v1.441c0 .397.105.707.317.932.211.224.493.336.845.336zm2.952.653l1.153-2.709-1.076-2.575h.835l.923 2.306h.509v-2.306h.73v2.306h.49l.951-2.306h.826l-1.076 2.546 1.153 2.738h-.865l-.96-2.402h-.519V245h-.73v-2.402h-.519L99.45 245h-.855zm5.805 1.345v-2.085h.432c.109-.109.221-.323.336-.643.122-.321.186-.727.192-1.22l.058-2.681h3.449v4.544h.672v2.085h-.768V245h-3.603v1.345h-.768zm1.345-2.085h2.257v-3.775h-1.767l-.039 1.931c-.006.506-.061.916-.163 1.229-.103.314-.199.519-.288.615zm6.938.836c-.416 0-.781-.083-1.095-.25a1.805 1.805 0 01-.72-.701 2.197 2.197 0 01-.25-1.066v-1.441c0-.41.083-.766.25-1.067.173-.301.413-.534.72-.701.314-.167.679-.25 1.095-.25.417 0 .778.083 1.086.25.314.167.554.4.72.701.173.301.26.657.26 1.067v.931h-3.286v.51c0 .416.106.736.317.96.212.218.513.327.903.327.333 0 .602-.058.807-.173a.765.765 0 00.375-.538h.865a1.474 1.474 0 01-.654 1.057c-.371.256-.836.384-1.393.384zm1.22-3.103v-.355c0-.417-.105-.737-.317-.961-.205-.224-.506-.336-.903-.336-.39 0-.691.112-.903.336-.211.224-.317.544-.317.961v.278h2.508l-.068.077zm2.491 3.007v-5.284h.865v2.2h2.228v-2.2h.865V245h-.865v-2.296h-2.228V245h-.865zm5.69 0v-5.284h.826v2.882c0 .186-.007.381-.019.586a8.64 8.64 0 01-.039.586c-.013.18-.029.333-.048.461l2.133-4.515h1.105V245h-.827v-2.882c0-.186.004-.381.01-.586.013-.205.029-.4.048-.586l.048-.471-2.133 4.525h-1.104zm5.363 0l1.354-2.037c-.403-.096-.717-.281-.941-.557-.218-.275-.327-.618-.327-1.028 0-.519.17-.925.509-1.22.346-.294.817-.442 1.412-.442h2.277V245h-.864v-1.969h-1.163L128.456 245h-1.008zm2.007-2.738h1.413v-1.777h-1.413c-.32 0-.573.08-.758.24-.186.154-.279.371-.279.653 0 .276.093.493.279.654.185.153.438.23.758.23zM25.36 264v-5.284h3.959V264h-.865v-4.496h-2.229V264h-.865zm7.67.077c-.424 0-.789-.08-1.096-.24a1.743 1.743 0 01-.72-.692c-.167-.307-.25-.669-.25-1.086v-1.402c0-.423.083-.785.25-1.086a1.74 1.74 0 01.72-.691c.307-.161.672-.241 1.095-.241.423 0 .788.08 1.095.241.308.16.545.39.711.691.173.301.26.66.26 1.076v1.412c0 .417-.087.779-.26 1.086a1.683 1.683 0 01-.71.692c-.308.16-.673.24-1.096.24zm0-.769c.377 0 .672-.105.883-.317.211-.211.317-.522.317-.932v-1.402c0-.41-.106-.721-.317-.932-.211-.211-.506-.317-.884-.317-.371 0-.666.106-.884.317-.211.211-.317.522-.317.932v1.402c0 .41.106.721.317.932.218.212.513.317.884.317zm3.095 2.037v-2.085h.432c.11-.109.221-.323.337-.643.121-.321.185-.727.192-1.22l.057-2.681h3.45v4.544h.672v2.085h-.769V264h-3.602v1.345h-.769zm1.345-2.085h2.258v-3.775H37.96l-.039 1.931c-.006.506-.06.916-.163 1.229-.102.314-.198.519-.288.615zm4.96.74v-5.284h3.957V264h-.864v-4.496h-2.229V264h-.864zm5.69 0v-5.284h.825v2.882c0 .186-.006.381-.019.586a8.66 8.66 0 01-.038.586c-.013.18-.03.333-.048.461l2.132-4.515h1.105V264h-.826v-2.882c0-.186.003-.381.01-.586.012-.205.028-.4.047-.586l.049-.471L49.224 264h-1.105zm7.687.096a2.46 2.46 0 01-1.114-.24 1.73 1.73 0 01-.73-.692c-.174-.307-.26-.669-.26-1.085v-1.441c0-.423.086-.785.26-1.086a1.73 1.73 0 01.73-.692c.32-.16.691-.24 1.114-.24.608 0 1.098.164 1.47.49.371.327.567.772.586 1.336h-.865c-.019-.34-.134-.599-.346-.779-.205-.185-.486-.278-.845-.278-.378 0-.679.109-.903.326-.224.212-.336.516-.336.913v1.451c0 .397.112.704.336.922.224.218.525.327.903.327.359 0 .64-.093.845-.279.212-.186.327-.445.346-.778h.865c-.02.563-.215 1.008-.586 1.335-.372.327-.862.49-1.47.49zm3.72-.096v-5.284h.865v2.181h.903l1.537-2.181h.99l-1.778 2.517L63.85 264h-1.008l-1.538-2.354h-.912V264h-.865zm5.661 0v-5.284h.826v2.882c0 .186-.006.381-.019.586a8.66 8.66 0 01-.038.586c-.013.18-.03.333-.048.461l2.132-4.515h1.105V264h-.826v-2.882c0-.186.003-.381.01-.586.012-.205.028-.4.047-.586l.049-.471L66.293 264h-1.105zm11.38 0v-5.284h3.957V264h-.864v-4.496h-2.229V264h-.865zm7.668.077c-.423 0-.788-.08-1.095-.24a1.743 1.743 0 01-.72-.692c-.167-.307-.25-.669-.25-1.086v-1.402c0-.423.083-.785.25-1.086a1.74 1.74 0 01.72-.691c.307-.161.672-.241 1.095-.241.423 0 .788.08 1.095.241.308.16.545.39.711.691.173.301.26.66.26 1.076v1.412c0 .417-.087.779-.26 1.086a1.683 1.683 0 01-.71.692c-.308.16-.673.24-1.096.24zm0-.769c.378 0 .672-.105.884-.317.211-.211.317-.522.317-.932v-1.402c0-.41-.106-.721-.317-.932-.212-.211-.506-.317-.884-.317-.371 0-.666.106-.884.317-.211.211-.317.522-.317.932v1.402c0 .41.106.721.317.932.218.212.513.317.884.317zm3.048.759v-.807h.173c.294 0 .5-.115.615-.346.121-.23.185-.643.192-1.239l.057-2.959h3.584V264h-.865v-4.496h-1.864l-.048 2.21c-.013.557-.076 1.008-.192 1.354-.109.346-.282.599-.519.759-.23.16-.534.24-.912.24h-.221zm6.39-.067v-5.284h.865v1.941h1.557c.595 0 1.063.15 1.402.451.346.295.519.702.519 1.22 0 .513-.173.919-.519 1.22-.346.301-.813.452-1.402.452h-2.421zm.865-.788h1.557c.333 0 .586-.073.759-.221.179-.153.269-.374.269-.663 0-.288-.09-.506-.27-.653-.172-.154-.425-.23-.758-.23h-1.557v1.767zm6.516.855c-.557 0-1.015-.118-1.374-.355a1.412 1.412 0 01-.634-.961h.913c.045.16.163.292.355.394.199.102.446.154.74.154h.452c.314 0 .557-.074.73-.221a.713.713 0 00.269-.577c0-.256-.087-.458-.26-.605-.166-.147-.413-.221-.739-.221h-1.163v-.749h1.134c.295 0 .519-.071.672-.212a.717.717 0 00.231-.557.722.722 0 00-.106-.403.61.61 0 00-.298-.25 1.23 1.23 0 00-.489-.086h-.481c-.256 0-.477.057-.663.173-.185.115-.297.256-.336.422h-.913c.064-.397.273-.724.625-.98s.781-.384 1.287-.384h.481c.377 0 .701.061.97.183.269.115.474.281.615.499.147.218.221.477.221.778 0 .314-.103.573-.308.778-.205.199-.493.311-.864.337v.038c.454.032.784.154.989.365.205.211.307.516.307.913 0 .467-.172.839-.518 1.114-.346.276-.81.413-1.393.413h-.452zm5.94.01c-.423 0-.788-.08-1.096-.24a1.745 1.745 0 01-.72-.692c-.167-.307-.25-.669-.25-1.086v-1.402c0-.423.083-.785.25-1.086.173-.301.413-.531.72-.691.308-.161.673-.241 1.096-.241.422 0 .787.08 1.095.241.307.16.544.39.711.691.173.301.259.66.259 1.076v1.412c0 .417-.086.779-.259 1.086a1.689 1.689 0 01-.711.692c-.308.16-.673.24-1.095.24zm0-.769c.378 0 .672-.105.883-.317.212-.211.317-.522.317-.932v-1.402c0-.41-.105-.721-.317-.932-.211-.211-.505-.317-.883-.317-.372 0-.666.106-.884.317-.212.211-.317.522-.317.932v1.402c0 .41.105.721.317.932.218.212.512.317.884.317zm3.71.692v-5.284h2.287c.551 0 .976.125 1.277.375.301.243.452.586.452 1.028 0 .365-.125.66-.375.884-.25.217-.579.326-.989.326v-.077c.448 0 .807.113 1.076.337.275.224.413.525.413.903 0 .474-.16.845-.481 1.114-.32.263-.768.394-1.344.394h-2.316zm.846-.759h1.47c.307 0 .544-.067.71-.202.173-.134.26-.323.26-.566 0-.25-.087-.442-.26-.577-.166-.134-.403-.202-.71-.202h-1.47v1.547zm0-2.296h1.441c.269 0 .48-.064.634-.192.16-.128.24-.307.24-.538 0-.231-.077-.41-.231-.538-.153-.135-.368-.202-.643-.202h-1.441v1.47zm6.362 3.151c-.557 0-.996-.141-1.316-.423-.321-.288-.481-.675-.481-1.162 0-.493.16-.881.481-1.162.32-.282.752-.423 1.297-.423h1.633v-.529c0-.326-.1-.576-.298-.749-.192-.179-.468-.269-.826-.269-.314 0-.577.067-.788.202a.718.718 0 00-.365.528h-.865c.058-.454.273-.816.644-1.085s.836-.404 1.393-.404c.608 0 1.089.157 1.441.471.352.314.528.74.528 1.278V264h-.845v-1.009h-.144l.144-.144c0 .384-.151.689-.452.913-.294.224-.688.336-1.181.336zm.211-.682c.41 0 .746-.102 1.009-.307a.959.959 0 00.394-.788v-.75h-1.614c-.288 0-.516.081-.682.241-.167.16-.25.378-.25.653 0 .295.099.528.298.701.205.167.487.25.845.25zm5.507.586v-4.525h-1.921v-.759h4.707v.759h-1.921V264h-.865zm6.122.096c-.416 0-.781-.083-1.095-.25a1.805 1.805 0 01-.72-.701 2.197 2.197 0 01-.25-1.066v-1.441c0-.41.083-.766.25-1.067.173-.301.413-.534.72-.701.314-.167.679-.25 1.095-.25.417 0 .778.083 1.086.25.314.167.554.4.72.701.173.301.26.657.26 1.067v.931h-3.286v.51c0 .416.106.736.317.96.212.218.513.327.903.327.333 0 .602-.058.807-.173a.765.765 0 00.375-.538h.864a1.47 1.47 0 01-.653 1.057c-.371.256-.836.384-1.393.384zm1.22-3.103v-.355c0-.417-.105-.737-.317-.961-.205-.224-.506-.336-.903-.336-.39 0-.691.112-.903.336-.211.224-.317.544-.317.961v.278h2.508l-.068.077zm1.828 3.074v-.807h.173c.295 0 .5-.115.615-.346.121-.23.186-.643.192-1.239l.058-2.959h3.583V264h-.865v-4.496h-1.863l-.048 2.21c-.013.557-.077 1.008-.193 1.354-.108.346-.281.599-.518.759-.231.16-.535.24-.913.24h-.221zm6.391-.067v-5.284h.865v1.941h1.556c.596 0 1.063.15 1.402.451.346.295.519.702.519 1.22 0 .513-.173.919-.519 1.22-.345.301-.813.452-1.402.452h-2.421zm.865-.788h1.556c.333 0 .586-.073.759-.221.179-.153.269-.374.269-.663 0-.288-.09-.506-.269-.653-.173-.154-.426-.23-.759-.23h-1.556v1.767zM25.361 283v-5.284h3.957V283h-.864v-4.496h-2.229V283h-.865zm7.668.077c-.423 0-.788-.08-1.095-.24a1.743 1.743 0 01-.72-.692c-.167-.307-.25-.669-.25-1.086v-1.402c0-.423.083-.785.25-1.086a1.74 1.74 0 01.72-.691c.307-.161.672-.241 1.095-.241.423 0 .788.08 1.095.241.308.16.545.39.711.691.173.301.26.66.26 1.076v1.412c0 .417-.087.779-.26 1.086a1.683 1.683 0 01-.71.692c-.308.16-.673.24-1.096.24zm0-.769c.378 0 .673-.105.884-.317.211-.211.317-.522.317-.932v-1.402c0-.41-.106-.721-.317-.932-.211-.211-.506-.317-.884-.317-.371 0-.666.106-.884.317-.211.211-.317.522-.317.932v1.402c0 .41.106.721.317.932.218.212.513.317.884.317zm3.048.759v-.807h.173c.294 0 .5-.115.615-.346.121-.23.185-.643.192-1.239l.057-2.959h3.584V283h-.865v-4.496H37.97l-.048 2.21c-.012.557-.076 1.008-.192 1.354-.109.346-.282.599-.518.759-.231.16-.535.24-.913.24h-.221zm7.16 1.662l.778-2.056-1.96-4.957h.96l1.23 3.267c.045.108.087.24.125.393l.096.375.096-.375c.039-.153.077-.285.115-.393l1.153-3.267h.932l-2.603 7.013h-.923zM51.154 283v-1.921a4.51 4.51 0 01-.47.077 7.095 7.095 0 01-.654.028c-.653.007-1.163-.15-1.528-.47-.358-.327-.538-.782-.538-1.365v-1.633h.865v1.633c0 .327.109.586.327.779.224.185.531.278.922.278.269 0 .496-.009.682-.029a3.52 3.52 0 00.394-.067v-2.594h.864V283h-.864zm4.172.096c-.558 0-.996-.141-1.316-.423-.32-.288-.48-.675-.48-1.162 0-.493.16-.881.48-1.162.32-.282.752-.423 1.296-.423h1.634v-.529c0-.326-.1-.576-.298-.749-.192-.179-.468-.269-.826-.269-.314 0-.577.067-.788.202a.717.717 0 00-.365.528h-.865c.058-.454.272-.816.644-1.085.371-.269.836-.404 1.393-.404.608 0 1.089.157 1.44.471.353.314.53.74.53 1.278V283h-.846v-1.009h-.144l.144-.144c0 .384-.15.689-.452.913-.294.224-.688.336-1.181.336zm.211-.682c.41 0 .746-.102 1.009-.307a.957.957 0 00.394-.788v-.75h-1.614c-.289 0-.516.081-.682.241-.167.16-.25.378-.25.653 0 .295.099.528.298.701.205.167.486.25.845.25zm5.94.682c-.417 0-.782-.083-1.096-.25a1.804 1.804 0 01-.72-.701 2.203 2.203 0 01-.25-1.066v-1.441c0-.41.083-.766.25-1.067a1.81 1.81 0 01.72-.701 2.3 2.3 0 011.095-.25c.417 0 .779.083 1.086.25.314.167.554.4.72.701.173.301.26.657.26 1.067v.931h-3.286v.51c0 .416.106.736.317.96.212.218.513.327.903.327.333 0 .602-.058.807-.173a.764.764 0 00.375-.538h.865a1.473 1.473 0 01-.654 1.057c-.371.256-.835.384-1.393.384zm1.22-3.103v-.355c0-.417-.106-.737-.318-.961-.205-.224-.506-.336-.903-.336-.39 0-.691.112-.903.336-.211.224-.317.544-.317.961v.278h2.508l-.068.077zM66.734 283v-4.525h-1.922v-.759h4.708v.759h-1.922V283h-.864zm11.83.096c-.422 0-.794-.08-1.114-.24a1.73 1.73 0 01-.73-.692c-.173-.307-.26-.669-.26-1.085v-1.441c0-.423.087-.785.26-1.086.173-.301.416-.531.73-.692.32-.16.692-.24 1.115-.24.608 0 1.098.164 1.47.49.37.327.566.772.585 1.336h-.864c-.02-.34-.135-.599-.346-.779-.205-.185-.487-.278-.845-.278-.378 0-.68.109-.904.326-.224.212-.336.516-.336.913v1.451c0 .397.112.704.337.922.224.218.525.327.903.327.358 0 .64-.093.845-.279.211-.186.327-.445.346-.778h.864c-.019.563-.214 1.008-.586 1.335-.371.327-.861.49-1.47.49zm3.692-.096v-5.284h2.286c.551 0 .977.125 1.278.375.301.243.452.586.452 1.028 0 .365-.125.66-.375.884-.25.217-.58.326-.99.326v-.077c.449 0 .808.113 1.076.337.276.224.413.525.413.903 0 .474-.16.845-.48 1.114-.32.263-.768.394-1.345.394h-2.315zm.845-.759h1.47c.308 0 .545-.067.711-.202.173-.134.26-.323.26-.566 0-.25-.087-.442-.26-.577-.166-.134-.403-.202-.71-.202h-1.47v1.547zm0-2.296h1.441c.27 0 .48-.064.634-.192.16-.128.24-.307.24-.538 0-.231-.076-.41-.23-.538-.154-.135-.368-.202-.644-.202h-1.44v1.47zm6.824 3.132c-.423 0-.788-.08-1.096-.24a1.744 1.744 0 01-.72-.692c-.166-.307-.25-.669-.25-1.086v-1.402c0-.423.084-.785.25-1.086.173-.301.413-.531.72-.691.308-.161.673-.241 1.096-.241.422 0 .787.08 1.095.241.307.16.544.39.71.691.174.301.26.66.26 1.076v1.412c0 .417-.086.779-.26 1.086a1.683 1.683 0 01-.71.692c-.308.16-.673.24-1.095.24zm0-.769c.377 0 .672-.105.883-.317.212-.211.317-.522.317-.932v-1.402c0-.41-.105-.721-.317-.932-.21-.211-.505-.317-.883-.317-.372 0-.666.106-.884.317-.212.211-.317.522-.317.932v1.402c0 .41.106.721.317.932.218.212.512.317.884.317zm3.71.692v-5.284h.827v2.882c0 .186-.007.381-.02.586a8.055 8.055 0 01-.038.586c-.013.18-.029.333-.048.461l2.133-4.515h1.104V283h-.826v-2.882c0-.186.003-.381.01-.586.013-.205.029-.4.048-.586l.048-.471L94.74 283h-1.105zm2.018-6.148c-.461 0-.833-.128-1.115-.385-.281-.256-.422-.592-.422-1.008h.682a.82.82 0 00.23.605c.154.154.359.23.615.23.263 0 .47-.076.625-.23a.802.802 0 00.24-.605h.682c0 .416-.141.752-.423 1.008-.282.257-.653.385-1.114.385zm9.362 6.148v-5.284h3.958V283h-.865v-4.496h-2.229V283h-.864zm7.668.077c-.422 0-.787-.08-1.095-.24a1.745 1.745 0 01-.72-.692c-.167-.307-.25-.669-.25-1.086v-1.402c0-.423.083-.785.25-1.086.173-.301.413-.531.72-.691.308-.161.673-.241 1.095-.241.423 0 .788.08 1.095.241.308.16.545.39.711.691.173.301.26.66.26 1.076v1.412c0 .417-.087.779-.26 1.086a1.677 1.677 0 01-.711.692c-.307.16-.672.24-1.095.24zm0-.769c.378 0 .673-.105.884-.317.211-.211.317-.522.317-.932v-1.402c0-.41-.106-.721-.317-.932-.211-.211-.506-.317-.884-.317-.371 0-.666.106-.884.317-.211.211-.317.522-.317.932v1.402c0 .41.106.721.317.932.218.212.513.317.884.317zm3.692 2.421v-7.013h.864v1.009h.173l-.173.202c0-.404.132-.721.394-.951.269-.237.621-.356 1.057-.356.532 0 .954.176 1.268.529.32.345.48.823.48 1.431v1.547c0 .403-.073.752-.221 1.047-.14.294-.342.522-.605.682-.256.16-.563.24-.922.24-.429 0-.778-.118-1.047-.355-.269-.237-.404-.554-.404-.951l.173.201h-.192l.019 1.201v1.537h-.864zm2.027-2.382c.365 0 .65-.109.855-.327.211-.218.317-.531.317-.941v-1.441c0-.41-.106-.724-.317-.942-.205-.218-.49-.326-.855-.326-.352 0-.634.112-.846.336-.211.224-.317.535-.317.932v1.441c0 .397.106.707.317.932.212.224.494.336.846.336zm3.355.653l1.355-2.037c-.404-.096-.718-.281-.942-.557-.218-.275-.327-.618-.327-1.028 0-.519.17-.925.51-1.22.345-.294.816-.442 1.412-.442h2.277V283h-.865v-1.969h-1.162L122.767 283h-1.009zm2.008-2.738h1.412v-1.777h-1.412c-.32 0-.573.08-.759.24-.186.154-.279.371-.279.653 0 .276.093.493.279.654.186.153.439.23.759.23zm3.393 4.083v-2.085h.433c.109-.109.221-.323.336-.643.122-.321.186-.727.192-1.22l.058-2.681h3.449v4.544h.672v2.085h-.768V283h-3.603v1.345h-.769zm1.345-2.085h2.258v-3.775h-1.768l-.038 1.931c-.007.506-.061.916-.163 1.229-.103.314-.199.519-.289.615zm4.989.74v-5.284h.864v2.181h.903l1.537-2.181h.99l-1.777 2.517 1.806 2.767h-1.009l-1.537-2.354h-.913V283h-.864zm7.64.077c-.423 0-.788-.08-1.096-.24a1.745 1.745 0 01-.72-.692c-.167-.307-.25-.669-.25-1.086v-1.402c0-.423.083-.785.25-1.086.173-.301.413-.531.72-.691.308-.161.673-.241 1.096-.241.422 0 .787.08 1.095.241.307.16.544.39.711.691.173.301.259.66.259 1.076v1.412c0 .417-.086.779-.259 1.086a1.689 1.689 0 01-.711.692c-.308.16-.673.24-1.095.24zm0-.769c.377 0 .672-.105.883-.317.212-.211.317-.522.317-.932v-1.402c0-.41-.105-.721-.317-.932-.211-.211-.506-.317-.883-.317-.372 0-.666.106-.884.317-.212.211-.317.522-.317.932v1.402c0 .41.105.721.317.932.218.212.512.317.884.317zm3.71.692v-5.284h2.287c.55 0 .976.125 1.277.375.301.243.452.586.452 1.028 0 .365-.125.66-.375.884-.25.217-.579.326-.989.326v-.077c.448 0 .807.113 1.076.337.275.224.413.525.413.903 0 .474-.16.845-.481 1.114-.32.263-.768.394-1.345.394h-2.315zm.846-.759h1.469c.308 0 .545-.067.711-.202.173-.134.26-.323.26-.566 0-.25-.087-.442-.26-.577-.166-.134-.403-.202-.711-.202h-1.469v1.547zm0-2.296h1.441c.269 0 .48-.064.634-.192.16-.128.24-.307.24-.538 0-.231-.077-.41-.231-.538-.153-.135-.368-.202-.643-.202h-1.441v1.47zm4.565 3.055v-5.284h.807v1.941h.433c.57 0 1.018.15 1.345.451.333.295.499.702.499 1.22 0 .519-.166.929-.499 1.23-.327.295-.775.442-1.345.442h-1.24zm.807-.692h.433c.339 0 .602-.086.787-.259.192-.173.289-.413.289-.721 0-.307-.097-.547-.289-.72-.185-.173-.448-.259-.787-.259h-.433v1.959zm2.901.692v-5.284h.807V283h-.807zm2.261 0v-5.284h.826v2.882c0 .186-.007.381-.019.586a8.64 8.64 0 01-.039.586c-.013.18-.029.333-.048.461l2.133-4.515h1.105V283h-.827v-2.882c0-.186.004-.381.01-.586.013-.205.029-.4.048-.586l.048-.471-2.133 4.525h-1.104zm2.017-6.148c-.461 0-.833-.128-1.114-.385-.282-.256-.423-.592-.423-1.008h.682c0 .249.077.451.231.605.153.154.358.23.614.23.263 0 .471-.076.625-.23a.802.802 0 00.24-.605h.682c0 .416-.141.752-.423 1.008-.281.257-.653.385-1.114.385zM25.36 303v-5.284h.865v2.2h2.229v-2.2h.864V303h-.864v-2.296h-2.229V303h-.865zm7.67.077c-.424 0-.789-.08-1.096-.24a1.743 1.743 0 01-.72-.692c-.167-.307-.25-.669-.25-1.086v-1.402c0-.423.083-.785.25-1.086a1.74 1.74 0 01.72-.691c.307-.161.672-.241 1.095-.241.423 0 .788.08 1.095.241.308.16.545.39.711.691.173.301.26.66.26 1.076v1.412c0 .417-.087.779-.26 1.086a1.683 1.683 0 01-.71.692c-.308.16-.673.24-1.096.24zm0-.769c.377 0 .672-.105.883-.317.211-.211.317-.522.317-.932v-1.402c0-.41-.106-.721-.317-.932-.211-.211-.506-.317-.884-.317-.371 0-.666.106-.884.317-.211.211-.317.522-.317.932v1.402c0 .41.106.721.317.932.218.212.513.317.884.317zm3.537.692v-5.284h1.172l.692 2.027c.07.205.134.41.192.615.057.199.099.352.125.461.025-.109.064-.262.115-.461a31.6 31.6 0 01.182-.624l.654-2.018h1.172V303h-.836v-.817c0-.288.003-.602.01-.941l.019-1.028c.013-.346.025-.672.038-.98.013-.314.023-.589.029-.826l-.941 3.007h-.913l-.951-2.988c.013.288.022.647.029 1.076.012.429.022.878.028 1.345.013.468.02.913.02 1.335V303h-.836zm7.841.096a2.3 2.3 0 01-1.095-.25 1.803 1.803 0 01-.72-.701 2.202 2.202 0 01-.25-1.066v-1.441c0-.41.083-.766.25-1.067a1.81 1.81 0 01.72-.701 2.3 2.3 0 011.095-.25c.417 0 .779.083 1.086.25.314.167.554.4.72.701.173.301.26.657.26 1.067v.931h-3.286v.51c0 .416.106.736.317.96.212.218.513.327.903.327.334 0 .602-.058.807-.173a.764.764 0 00.375-.538h.865a1.473 1.473 0 01-.654 1.057c-.371.256-.835.384-1.393.384zm1.22-3.103v-.355c0-.417-.105-.737-.316-.961-.206-.224-.506-.336-.904-.336-.39 0-.691.112-.903.336-.21.224-.317.544-.317.961v.278h2.508l-.067.077zm2.472 4.736v-7.013h.864v1.009h.173l-.172.202c0-.404.13-.721.393-.951.27-.237.622-.356 1.057-.356.532 0 .954.176 1.268.529.32.345.48.823.48 1.431v1.547c0 .403-.073.752-.22 1.047a1.573 1.573 0 01-.606.682c-.256.16-.563.24-.922.24-.429 0-.778-.118-1.047-.355-.269-.237-.404-.554-.404-.951l.173.201h-.192l.02 1.201v1.537H48.1zm2.027-2.382c.365 0 .65-.109.855-.327.211-.218.317-.531.317-.941v-1.441c0-.41-.106-.724-.317-.942-.205-.218-.49-.326-.855-.326-.352 0-.634.112-.846.336-.21.224-.316.535-.316.932v1.441c0 .397.105.707.316.932.212.224.494.336.846.336zm5.66.749c-.243 0-.438-.07-.585-.211-.141-.141-.212-.33-.212-.567 0-.25.07-.448.212-.596.147-.147.342-.221.586-.221.243 0 .435.074.576.221.148.148.221.346.221.596 0 .237-.074.426-.22.567-.142.141-.334.211-.577.211z" fill="#000"/><path d="M14.103 17V9.987h4.266V17h-1.201v-5.899h-1.864V17h-1.2zm5.68 1.73v-7.014h1.172v1.009h.27l-.27.279c0-.43.129-.766.385-1.01.256-.249.602-.374 1.037-.374.532 0 .958.183 1.278.548.32.365.48.855.48 1.47v1.431c0 .41-.073.769-.22 1.076a1.625 1.625 0 01-.606.701c-.262.167-.573.25-.932.25-.435 0-.781-.122-1.037-.365-.256-.25-.385-.59-.385-1.018l.27.278h-.28l.04 1.259v1.48h-1.202zm2.171-2.672c.308 0 .548-.09.721-.268.173-.18.26-.436.26-.769v-1.326c0-.333-.087-.589-.26-.768-.173-.18-.413-.27-.72-.27-.301 0-.538.094-.711.28-.173.179-.26.432-.26.758v1.326c0 .327.087.583.26.769.172.179.41.268.71.268zm5.661 1.029c-.448 0-.839-.084-1.172-.25a1.938 1.938 0 01-.768-.72c-.18-.315-.27-.683-.27-1.106v-1.306c0-.423.09-.788.27-1.095.185-.314.442-.554.768-.72.333-.174.724-.26 1.172-.26.455 0 .846.086 1.172.26.327.166.58.406.76.72.185.307.278.669.278 1.085v1.316c0 .423-.093.791-.279 1.105a1.857 1.857 0 01-.759.72c-.326.167-.717.25-1.172.25zm0-1.048c.32 0 .567-.086.74-.26.18-.178.269-.435.269-.768v-1.306c0-.34-.09-.596-.269-.769-.173-.173-.42-.259-.74-.259-.313 0-.56.086-.74.26-.179.172-.268.428-.268.768v1.306c0 .333.09.59.269.769.179.173.425.26.74.26zm3.548.961v-5.284h2.344c.608 0 1.085.128 1.431.385.352.25.529.595.529 1.037 0 .359-.138.647-.414.865-.269.217-.627.326-1.075.326v-.086c.486 0 .877.115 1.172.346.294.224.441.525.441.903 0 .467-.179.835-.538 1.104-.352.27-.839.404-1.46.404h-2.43zm1.181-.913h1.21c.27 0 .481-.06.635-.182a.593.593 0 00.23-.49.613.613 0 00-.23-.51c-.154-.121-.365-.182-.634-.182h-1.21v1.364zm0-2.17h1.172c.237 0 .426-.058.567-.174a.576.576 0 00.212-.47.576.576 0 00-.212-.471c-.134-.122-.323-.183-.567-.183h-1.172v1.297zm6.66 3.18c-.448 0-.839-.087-1.172-.26a1.923 1.923 0 01-.778-.72 2.17 2.17 0 01-.269-1.096v-1.326c0-.416.09-.778.27-1.085.185-.314.444-.557.777-.73.333-.173.724-.26 1.172-.26.442 0 .826.087 1.153.26.333.172.59.416.769.73.185.307.278.669.278 1.085v.951h-3.257v.375c0 .371.09.653.27.845.179.186.445.279.797.279.269 0 .487-.045.653-.134a.642.642 0 00.317-.414h1.182c-.09.455-.333.82-.73 1.096-.391.269-.868.403-1.432.403zm1.038-3.123v-.288c0-.365-.087-.644-.26-.836-.172-.199-.432-.298-.778-.298-.346 0-.608.1-.787.298-.18.198-.27.48-.27.845v.202l2.181-.02-.086.097zm2.5 4.755v-7.013h1.172v1.009h.269l-.269.279c0-.43.128-.766.384-1.01.257-.249.602-.374 1.038-.374.531 0 .957.183 1.277.548.32.365.48.855.48 1.47v1.431c0 .41-.073.769-.22 1.076a1.623 1.623 0 01-.605.701 1.7 1.7 0 01-.932.25c-.436 0-.782-.122-1.038-.365-.256-.25-.384-.59-.384-1.018l.269.278h-.279l.039 1.259v1.48h-1.201zm2.171-2.67c.307 0 .548-.09.72-.27.173-.179.26-.435.26-.768v-1.326c0-.333-.087-.589-.26-.768-.172-.18-.413-.27-.72-.27-.3 0-.538.094-.71.28-.174.179-.26.432-.26.758v1.326c0 .327.086.583.26.769.172.179.41.268.71.268zM48.27 17v-5.284h1.2v2.075h.789l1.287-2.075h1.345l-1.595 2.556L52.92 17h-1.374l-1.287-2.19h-.788V17h-1.2zm7.208.096c-.545 0-.974-.144-1.288-.432-.313-.288-.47-.676-.47-1.163 0-.518.172-.919.518-1.2.346-.282.836-.423 1.47-.423h1.316v-.452c0-.256-.083-.454-.25-.595-.166-.148-.393-.221-.682-.221-.262 0-.48.057-.653.173a.675.675 0 00-.307.47H53.96c.057-.5.282-.896.672-1.19.39-.296.89-.443 1.499-.443.647 0 1.156.164 1.527.49.378.32.567.756.567 1.307V17h-1.162v-.922h-.192l.192-.26c0 .391-.144.702-.433.932-.288.23-.672.346-1.152.346zm.393-.903c.34 0 .615-.086.827-.26a.82.82 0 00.326-.672v-.643h-1.297c-.243 0-.438.07-.586.21a.736.736 0 00-.22.558c0 .25.083.448.25.596.172.14.406.211.7.211zm9.44.807v-5.284h4.265V17h-1.201v-4.17H66.51V17h-1.2zm7.822.087c-.449 0-.84-.084-1.172-.25a1.938 1.938 0 01-.769-.72c-.18-.315-.269-.683-.269-1.106v-1.306c0-.423.09-.788.269-1.095.186-.314.442-.554.769-.72.333-.174.723-.26 1.172-.26.454 0 .845.086 1.172.26.326.166.58.406.758.72.186.307.28.669.28 1.085v1.316c0 .423-.094.791-.28 1.105a1.86 1.86 0 01-.758.72c-.327.167-.718.25-1.172.25zm0-1.048c.32 0 .566-.086.74-.26.179-.178.268-.435.268-.768v-1.306c0-.34-.09-.596-.269-.769-.173-.173-.42-.259-.74-.259-.313 0-.56.086-.74.26-.178.172-.268.428-.268.768v1.306c0 .333.09.59.269.769.18.173.426.26.74.26zm3.047 2.306v-2.363h.356c.109-.11.22-.308.336-.596.122-.294.186-.66.192-1.095l.058-2.575h3.698v4.266h.625v2.363H80.34V17h-3.055v1.345H76.18zm1.576-2.363h1.921v-3.219h-1.44l-.04 1.528c-.006.429-.06.79-.163 1.085-.096.289-.189.49-.278.606zM82.379 17v-5.284h4.266V17h-1.201v-4.17H83.58V17h-1.2zm5.69 0v-5.284h1.085v2.604c0 .166-.01.365-.028.595a13.998 13.998 0 01-.135 1.23l1.864-4.429h1.48V17h-1.086v-2.603c0-.173.006-.366.019-.577.02-.211.038-.42.058-.624.025-.205.05-.378.076-.519L89.548 17h-1.48zm7.841.096c-.448 0-.842-.083-1.181-.25a1.923 1.923 0 01-.778-.72c-.186-.314-.279-.682-.279-1.105v-1.326c0-.429.093-.797.279-1.104.185-.308.445-.545.778-.711.34-.173.733-.26 1.181-.26.666 0 1.198.173 1.595.519.397.34.605.804.625 1.393h-1.201c-.02-.275-.119-.487-.298-.634-.173-.154-.413-.23-.72-.23-.32 0-.574.089-.76.268-.185.173-.278.423-.278.75v1.335c0 .327.093.58.278.759.186.18.44.269.76.269.307 0 .547-.074.72-.221.18-.154.278-.368.298-.644h1.2c-.019.59-.227 1.057-.624 1.403-.397.34-.928.51-1.595.51zM99.477 17v-5.284h1.201v2.075h.788l1.287-2.075h1.345l-1.595 2.556L104.127 17h-1.374l-1.287-2.19h-.788V17h-1.201zm5.661 0v-5.284h1.085v2.604c0 .166-.009.365-.028.595a13.964 13.964 0 01-.135 1.23l1.864-4.429h1.479V17h-1.085v-2.603c0-.173.006-.366.019-.577l.057-.624c.026-.205.052-.378.077-.519L106.617 17h-1.479zm11.379 0v-5.284h1.201v2.046h1.864v-2.046h1.201V17h-1.201v-2.123h-1.864V17h-1.201zm7.236.096c-.544 0-.973-.144-1.287-.432-.314-.288-.471-.676-.471-1.163 0-.518.173-.919.519-1.2.346-.282.836-.423 1.47-.423h1.316v-.452c0-.256-.083-.454-.25-.595-.166-.148-.394-.221-.682-.221-.262 0-.48.057-.653.173a.674.674 0 00-.307.47h-1.172c.057-.5.281-.896.672-1.19.391-.296.89-.443 1.499-.443.647 0 1.156.164 1.527.49.378.32.567.756.567 1.307V17h-1.162v-.922h-.193l.193-.26c0 .391-.145.702-.433.932-.288.23-.672.346-1.153.346zm.394-.903c.34 0 .615-.086.827-.26a.82.82 0 00.326-.672v-.643h-1.297c-.243 0-.438.07-.586.21a.737.737 0 00-.221.558c0 .25.084.448.25.596.173.14.407.211.701.211zM15.631 36v-5.898h-1.835v-1.115h4.88v1.115h-1.835V36h-1.21zm6.304.096c-.448 0-.839-.086-1.172-.26a1.923 1.923 0 01-.778-.72 2.17 2.17 0 01-.269-1.095v-1.326c0-.416.09-.778.27-1.085.185-.314.444-.558.777-.73.333-.173.724-.26 1.172-.26.442 0 .827.087 1.153.26.333.172.59.416.769.73.185.307.278.669.278 1.085v.951h-3.257v.375c0 .371.09.653.27.845.179.186.445.279.797.279.269 0 .487-.045.653-.135a.642.642 0 00.317-.413h1.182c-.09.455-.333.82-.73 1.096-.391.269-.868.403-1.432.403zm1.038-3.122v-.288c0-.365-.087-.644-.26-.836-.172-.199-.432-.298-.778-.298-.346 0-.608.1-.787.298-.18.198-.27.48-.27.845v.202l2.181-.02-.086.097zM28.423 36a1.9 1.9 0 01-.913-.211 1.546 1.546 0 01-.606-.596 1.814 1.814 0 01-.22-.903v-4.217h-1.691v-1.086h2.891v5.303c0 .192.055.346.164.461a.644.644 0 00.46.163h1.596V36h-1.682zm4.892.096c-.449 0-.84-.086-1.172-.26a1.923 1.923 0 01-.779-.72 2.17 2.17 0 01-.269-1.095v-1.326c0-.416.09-.778.27-1.085a1.89 1.89 0 01.778-.73c.333-.173.723-.26 1.172-.26.442 0 .826.087 1.152.26.333.172.59.416.769.73.186.307.279.669.279 1.085v.951h-3.257v.375c0 .371.09.653.269.845.18.186.445.279.797.279.27 0 .487-.045.654-.135a.642.642 0 00.316-.413h1.182c-.09.455-.333.82-.73 1.096-.39.269-.868.403-1.431.403zm1.037-3.122v-.288c0-.365-.086-.644-.26-.836-.172-.199-.432-.298-.777-.298-.346 0-.609.1-.788.298-.18.198-.27.48-.27.845v.202l2.182-.02-.087.097zm3.22 4.755v-.999h1.567c.269 0 .47-.067.605-.202.135-.128.202-.313.202-.557v-.394l.019-.99h-.26l.26-.259c0 .43-.128.766-.384 1.01-.25.236-.59.355-1.019.355-.538 0-.967-.183-1.287-.548-.314-.365-.47-.858-.47-1.48v-1.027c0-.615.156-1.105.47-1.47.32-.365.75-.548 1.287-.548.43 0 .769.122 1.019.365.256.237.384.57.384 1l-.26-.26h.26l-.029-1.009h1.2V36c0 .532-.175.951-.527 1.258-.353.314-.836.471-1.451.471h-1.585zm1.394-3.074c.307 0 .544-.09.71-.269.174-.186.26-.442.26-.769v-.922c0-.326-.086-.58-.26-.759-.166-.185-.403-.278-.71-.278-.308 0-.545.09-.711.269-.167.18-.25.435-.25.768v.922c0 .334.083.59.25.77.166.178.403.268.71.268zM42.706 36v-5.284h1.133v1.009h.298l-.356.615c0-.57.128-1 .385-1.288.256-.288.634-.432 1.133-.432.57 0 1.018.176 1.345.529.327.352.49.839.49 1.46v.384h-1.258v-.298c0-.34-.09-.602-.27-.788-.172-.185-.413-.278-.72-.278-.314 0-.557.093-.73.278-.167.186-.25.449-.25.788V36h-1.2zm7.082.096c-.544 0-.973-.144-1.287-.432-.314-.288-.471-.676-.471-1.163 0-.518.173-.919.519-1.2.346-.282.836-.423 1.47-.423h1.316v-.452c0-.256-.084-.454-.25-.595-.167-.148-.394-.221-.682-.221-.263 0-.48.057-.654.173a.675.675 0 00-.307.47H48.27c.058-.5.282-.896.673-1.19.39-.296.89-.443 1.498-.443.647 0 1.156.163 1.528.49.377.32.566.756.566 1.307V36h-1.162v-.922h-.192l.192-.26c0 .391-.144.702-.432.932-.288.23-.673.346-1.153.346zm.394-.903c.34 0 .615-.086.826-.26a.82.82 0 00.327-.672v-.644h-1.297c-.244 0-.439.071-.586.212a.736.736 0 00-.221.557c0 .25.083.448.25.596.172.14.406.211.7.211zm3.5.807v-5.284h.979v.711h.202l-.163.173c0-.295.083-.532.25-.71a.839.839 0 01.643-.27c.282 0 .5.115.653.346.16.23.24.541.24.932l-.211-.47h.327l-.125.172c0-.295.083-.532.25-.71.166-.18.387-.27.662-.27a.94.94 0 01.778.365c.193.244.289.573.289.99V36h-1.057v-3.977c0-.173-.038-.308-.115-.404a.395.395 0 00-.337-.153.422.422 0 00-.336.144c-.077.096-.115.233-.115.413V36h-.865v-3.977c0-.18-.038-.317-.115-.413-.077-.096-.189-.144-.336-.144-.148 0-.26.048-.336.144-.07.096-.106.233-.106.413V36H53.68zm6.534-2.613v-1.114h3.074v1.114h-3.074zM65.34 36v-5.284h1.2v2.075h.789l1.287-2.075h1.345l-1.595 2.556L69.99 36h-1.374l-1.287-2.19h-.788V36H65.34zm7.208.096c-.545 0-.974-.144-1.288-.432-.314-.288-.47-.676-.47-1.163 0-.518.172-.919.518-1.2.346-.282.836-.423 1.47-.423h1.316v-.452c0-.256-.083-.454-.25-.595-.166-.148-.393-.221-.682-.221-.262 0-.48.057-.653.173a.675.675 0 00-.307.47H71.03c.057-.5.282-.896.672-1.19.39-.296.89-.443 1.499-.443.647 0 1.156.163 1.527.49.378.32.567.756.567 1.307V36h-1.162v-.922h-.193l.193-.26c0 .391-.144.702-.433.932-.288.23-.672.346-1.152.346zm.393-.903c.34 0 .615-.086.827-.26a.82.82 0 00.326-.672v-.644h-1.297c-.243 0-.438.071-.586.212a.736.736 0 00-.22.557c0 .25.083.448.25.596.172.14.406.211.7.211zm3.75.807v-5.284h1.2v2.047h1.864v-2.047h1.2V36h-1.2v-2.123H77.89V36h-1.2zm7.236.096c-.544 0-.974-.144-1.287-.432-.314-.288-.471-.676-.471-1.163 0-.518.173-.919.519-1.2.345-.282.835-.423 1.47-.423h1.316v-.452c0-.256-.084-.454-.25-.595-.167-.148-.394-.221-.682-.221-.263 0-.48.057-.654.173a.675.675 0 00-.307.47h-1.172c.058-.5.282-.896.672-1.19.391-.296.89-.443 1.5-.443.646 0 1.155.163 1.527.49.377.32.566.756.566 1.307V36h-1.162v-.922h-.192l.192-.26c0 .391-.144.702-.432.932-.288.23-.673.346-1.153.346zm.394-.903c.34 0 .615-.086.826-.26a.82.82 0 00.327-.672v-.644h-1.297c-.244 0-.44.071-.586.212a.736.736 0 00-.221.557c0 .25.083.448.25.596.172.14.406.211.7.211zm3.22.874v-1.095h.24a.54.54 0 00.49-.26c.116-.179.177-.46.183-.845l.058-3.15h3.823V36h-1.2v-4.17h-1.442l-.038 2.105c-.013.46-.09.851-.23 1.172a1.61 1.61 0 01-.606.72c-.262.16-.583.24-.96.24h-.318zm8.351-3.833c-.269 0-.487-.074-.653-.22a.777.777 0 01-.24-.587c0-.243.08-.439.24-.586.166-.147.384-.22.653-.22.27 0 .484.073.644.22.166.147.25.343.25.586a.762.762 0 01-.25.586c-.16.148-.375.221-.644.221zm0 3.862c-.269 0-.487-.074-.653-.22a.758.758 0 01-.24-.587c0-.243.08-.439.24-.586.166-.147.384-.22.653-.22.27 0 .484.073.644.22.166.147.25.343.25.586a.744.744 0 01-.25.586c-.16.147-.375.221-.644.221z" fill="#fff"/><defs><filter id="filter0_d_441_1836" x=".157" y="0" width="179.685" height="325.685" filterUnits="userSpaceOnUse" color-interpolation-filters="sRGB"><feFlood flood-opacity="0" result="BackgroundImageFix"/><feColorMatrix in="SourceAlpha" values="0 0 0 0 0 0 0 0 0 0 0 0 0 0 0 0 0 0 127 0" result="hardAlpha"/><feOffset dy="3.843"/><feGaussianBlur stdDeviation="1.921"/><feComposite in2="hardAlpha" operator="out"/><feColorMatrix values="0 0 0 0 0 0 0 0 0 0 0 0 0 0 0 0 0 0 0.25 0"/><feBlend in2="BackgroundImageFix" result="effect1_dropShadow_441_1836"/><feBlend in="SourceGraphic" in2="effect1_dropShadow_441_1836" result="shape"/></filter></defs></svg>