<svg width="180" height="193" fill="none" xmlns="http://www.w3.org/2000/svg"><g filter="url(#filter0_d_441_1689)"><rect x="4" width="172" height="185" rx="16.011" fill="#6E6DC0"/></g><mask id="a" style="mask-type:alpha" maskUnits="userSpaceOnUse" x="4" y="0" width="172" height="43"><path fill="#C9D9CD" d="M4 0h171.961v42.27H4z"/></mask><g mask="url(#a)"><rect x="4" y="-1.69" width="171.961" height="118.355" rx="16.011" fill="#E0F4FF"/></g><path d="M16.337 58.68a1.12 1.12 0 01-.826-.327 1.12 1.12 0 01-.326-.826c0-.34.109-.615.326-.826a1.12 1.12 0 01.826-.327c.34 0 .615.11.827.327.217.211.326.487.326.826a1.117 1.117 0 01-1.153 1.153zm6.592 2.354V54.02h.836v3.938c0 .231-.007.478-.02.74a25.22 25.22 0 01-.067 1.326l2.133-6.004h1.153v7.013h-.836v-3.94c0-.236.003-.483.01-.739.012-.262.025-.509.038-.74l.048-.586-2.142 6.005h-1.153zm7.726.096c-.422 0-.794-.08-1.114-.24a1.73 1.73 0 01-.73-.692c-.173-.307-.26-.67-.26-1.086v-1.44c0-.423.087-.785.26-1.086a1.73 1.73 0 01.73-.692c.32-.16.692-.24 1.114-.24.609 0 1.099.163 1.47.49.372.327.567.772.586 1.335h-.864c-.02-.34-.135-.599-.346-.778-.205-.186-.487-.279-.846-.279-.378 0-.679.11-.903.327-.224.211-.336.516-.336.913v1.45c0 .397.112.705.336.923.224.217.525.326.903.326.359 0 .64-.093.846-.278.211-.186.326-.445.345-.779h.865c-.02.564-.214 1.01-.586 1.336-.371.326-.861.49-1.47.49zm3.692-.096V55.75h3.958v5.284h-.865v-4.496h-2.229v4.496h-.864zm7.668.077c-.422 0-.787-.08-1.095-.24a1.744 1.744 0 01-.72-.692c-.167-.308-.25-.67-.25-1.086V57.69c0-.422.083-.784.25-1.085.173-.301.413-.532.72-.692.308-.16.673-.24 1.095-.24.423 0 .788.08 1.096.24.307.16.544.391.71.692.173.301.26.66.26 1.076v1.412c0 .416-.087.778-.26 1.086a1.683 1.683 0 01-.71.691c-.308.16-.673.24-1.096.24zm0-.769c.378 0 .673-.106.884-.317.212-.211.317-.522.317-.932V57.69c0-.41-.105-.72-.317-.931-.211-.212-.506-.317-.884-.317-.371 0-.666.105-.883.317-.212.211-.317.522-.317.931v1.403c0 .41.105.72.317.932.217.211.512.317.883.317zm3.048.759v-.807h.173c.295 0 .5-.115.615-.346.122-.23.186-.644.192-1.24l.058-2.958h3.583v5.284h-.865v-4.496h-1.863l-.048 2.21c-.013.556-.077 1.008-.193 1.354-.108.346-.281.599-.518.759-.23.16-.535.24-.913.24h-.22zm6.391-.067V55.75h.865v1.94h1.556c.596 0 1.063.151 1.403.452.345.295.518.701.518 1.22 0 .512-.173.92-.518 1.22-.346.301-.814.452-1.403.452h-2.42zm.865-.788h1.556c.333 0 .586-.074.759-.221.18-.154.269-.375.269-.663 0-.288-.09-.506-.269-.653-.173-.154-.426-.23-.759-.23h-1.556v1.767zm6.516.855c-.558 0-1.016-.118-1.374-.355a1.412 1.412 0 01-.634-.961h.912c.045.16.164.291.356.394.198.102.445.153.74.153h.451c.314 0 .557-.073.73-.22a.71.71 0 00.27-.577c0-.256-.087-.458-.26-.605-.167-.148-.413-.221-.74-.221h-1.162v-.75h1.133c.295 0 .519-.07.673-.21a.72.72 0 00.23-.558.727.727 0 00-.105-.404.61.61 0 00-.298-.25 1.243 1.243 0 00-.49-.086h-.48a1.23 1.23 0 00-.663.173c-.186.115-.298.256-.337.423h-.912c.064-.397.272-.724.624-.98s.782-.384 1.287-.384h.48c.379 0 .702.06.971.182.27.115.474.282.615.5.147.218.22.477.22.778 0 .314-.102.573-.306.778-.205.199-.494.31-.865.336v.039c.455.032.784.154.99.365.204.211.307.515.307.913 0 .467-.173.839-.519 1.114-.346.275-.81.413-1.393.413h-.451zm5.939.01c-.423 0-.788-.08-1.095-.24a1.744 1.744 0 01-.72-.692c-.167-.308-.25-.67-.25-1.086V57.69c0-.422.083-.784.25-1.085.172-.301.412-.532.72-.692.307-.16.672-.24 1.095-.24.423 0 .788.08 1.095.24.308.16.544.391.711.692.173.301.26.66.26 1.076v1.412c0 .416-.087.778-.26 1.086a1.684 1.684 0 01-.71.691c-.308.16-.673.24-1.096.24zm0-.769c.378 0 .672-.106.884-.317.211-.211.317-.522.317-.932V57.69c0-.41-.106-.72-.317-.931-.212-.212-.506-.317-.884-.317-.371 0-.666.105-.884.317-.211.211-.317.522-.317.931v1.403c0 .41.106.72.317.932.218.211.513.317.884.317zm3.71.692V55.75h2.287c.55 0 .977.125 1.278.375.3.243.451.586.451 1.028 0 .365-.125.66-.374.883-.25.218-.58.327-.99.327v-.077c.448 0 .807.112 1.076.336.275.225.413.526.413.903 0 .474-.16.846-.48 1.115-.32.262-.769.394-1.345.394h-2.315zm.846-.76h1.47c.307 0 .544-.066.71-.201.174-.135.26-.323.26-.567 0-.25-.086-.442-.26-.576-.166-.135-.403-.202-.71-.202h-1.47v1.547zm0-2.295h1.441c.27 0 .48-.064.634-.192a.652.652 0 00.24-.538c0-.23-.077-.41-.23-.538-.154-.135-.369-.202-.644-.202h-1.44v1.47zm6.362 3.15c-.557 0-.996-.14-1.316-.422-.32-.288-.48-.676-.48-1.162 0-.494.16-.881.48-1.163.32-.282.753-.422 1.297-.422h1.633v-.529c0-.326-.1-.576-.298-.75-.192-.178-.467-.268-.826-.268-.314 0-.576.067-.788.202a.717.717 0 00-.365.528h-.864c.057-.455.272-.817.643-1.086.372-.269.836-.403 1.393-.403.609 0 1.09.157 1.441.47.353.314.529.74.529 1.278v3.632h-.846v-1.009h-.144l.144-.144c0 .384-.15.688-.451.913-.295.224-.689.336-1.182.336zm.212-.681c.41 0 .746-.103 1.008-.308a.957.957 0 00.394-.788v-.749h-1.614c-.288 0-.515.08-.682.24-.166.16-.25.378-.25.654 0 .294.1.528.298.7.205.167.487.25.845.25zm3.297.653v-.807h.173c.295 0 .5-.115.615-.346.121-.23.186-.644.192-1.24l.058-2.958h3.583v5.284h-.865v-4.496h-1.863l-.048 2.21c-.013.556-.077 1.008-.193 1.354-.108.346-.281.599-.518.759-.23.16-.535.24-.913.24h-.22zm6.353-.067V55.75h.826v2.882c0 .186-.007.381-.02.586-.006.205-.019.4-.038.586-.013.18-.029.333-.048.461l2.133-4.515h1.105v5.284h-.827v-2.882c0-.186.004-.381.01-.586.013-.205.029-.4.048-.586l.048-.471-2.133 4.525h-1.104zm12.926 0v-6.235h-1.922v-.788h4.708v.788h-1.922v6.235h-.864zm6.122.096a2.31 2.31 0 01-1.096-.25 1.81 1.81 0 01-.72-.701 2.199 2.199 0 01-.25-1.067v-1.44c0-.41.083-.766.25-1.067a1.81 1.81 0 01.72-.701c.314-.167.679-.25 1.096-.25.416 0 .778.083 1.085.25.314.166.554.4.721.701.173.301.259.656.259 1.066v.932h-3.285v.51c0 .416.105.736.317.96.211.218.512.327.903.327.333 0 .602-.058.807-.173a.766.766 0 00.374-.538h.865a1.475 1.475 0 01-.653 1.056c-.372.257-.836.385-1.393.385zm1.22-3.103v-.356c0-.416-.106-.736-.317-.96-.205-.224-.506-.337-.903-.337-.391 0-.692.112-.903.337-.212.224-.317.544-.317.96v.279h2.507l-.067.077zm5.19 3.007c-.308 0-.577-.061-.807-.183a1.309 1.309 0 01-.538-.519 1.561 1.561 0 01-.192-.787v-4.736h-1.778v-.788h2.642v5.524c0 .217.061.39.183.518a.661.661 0 00.49.183h1.681v.788h-1.681zm4.969.096a2.31 2.31 0 01-1.095-.25 1.806 1.806 0 01-.721-.701 2.21 2.21 0 01-.25-1.067v-1.44c0-.41.084-.766.25-1.067.173-.301.413-.535.721-.701.314-.167.679-.25 1.095-.25.416 0 .778.083 1.085.25.314.166.554.4.721.701.173.301.259.656.259 1.066v.932h-3.285v.51c0 .416.106.736.317.96.211.218.512.327.903.327.333 0 .602-.058.807-.173a.764.764 0 00.375-.538h.864a1.472 1.472 0 01-.653 1.056c-.372.257-.836.385-1.393.385zm1.22-3.103v-.356c0-.416-.106-.736-.317-.96-.205-.224-.506-.337-.903-.337-.391 0-.692.112-.903.337-.211.224-.317.544-.317.96v.279h2.507l-.067.077zm3.134 4.736v-.788h1.681c.269 0 .465-.06.586-.182.128-.122.193-.311.193-.567v-.673l.019-.96h-.173l.163-.144c0 .384-.128.688-.384.912-.256.224-.599.337-1.028.337-.544 0-.974-.177-1.287-.529-.314-.359-.471-.839-.471-1.44v-1.115c0-.602.157-1.08.471-1.432.313-.352.743-.528 1.287-.528.429 0 .772.112 1.028.336.256.224.384.529.384.913l-.163-.144h.163V55.75h.855v5.476c0 .474-.147.848-.442 1.124-.288.275-.691.413-1.21.413h-1.672zm1.316-2.815c.359 0 .641-.112.846-.336.205-.224.307-.535.307-.932v-1.009c0-.397-.102-.707-.307-.931-.205-.225-.487-.337-.846-.337-.365 0-.65.11-.855.327-.198.218-.297.531-.297.941v1.009c0 .41.099.724.297.941.205.218.49.327.855.327zm3.894 1.086V55.75h.845v1.009h.202l-.279.624c0-.57.122-.999.365-1.287.25-.295.618-.442 1.105-.442.557 0 .999.176 1.326.528.333.346.499.817.499 1.412v.317h-.864v-.24c0-.416-.103-.733-.308-.95-.198-.225-.483-.337-.855-.337-.365 0-.653.112-.864.336-.205.224-.308.541-.308.951v3.363h-.864zm7.044.096c-.557 0-.996-.141-1.316-.423-.321-.288-.481-.676-.481-1.162 0-.494.16-.881.481-1.163.32-.282.752-.422 1.297-.422h1.633v-.529c0-.326-.1-.576-.298-.75-.192-.178-.468-.268-.826-.268-.314 0-.577.067-.788.202a.718.718 0 00-.365.528h-.865c.058-.455.272-.817.644-1.086.371-.269.836-.403 1.393-.403.608 0 1.089.157 1.441.47.352.314.528.74.528 1.278v3.632h-.845v-1.009h-.144l.144-.144c0 .384-.151.688-.452.913-.294.224-.688.336-1.181.336zm.211-.682c.41 0 .746-.103 1.009-.308a.958.958 0 00.394-.788v-.749h-1.614c-.288 0-.516.08-.682.24-.167.16-.25.378-.25.654 0 .294.099.528.298.7.205.167.486.25.845.25zm3.692.586V55.75h.758v.634h.173l-.134.23c0-.294.077-.528.23-.7.161-.174.375-.26.644-.26.295 0 .522.109.682.326.16.218.24.526.24.923l-.259-.519h.403l-.182.23c0-.294.08-.528.24-.7a.866.866 0 01.653-.26c.333 0 .59.125.769.375.186.25.278.58.278.99v4.015h-.797v-4.026c0-.217-.048-.387-.144-.509-.09-.121-.224-.182-.403-.182a.515.515 0 00-.414.182c-.096.116-.144.282-.144.5v4.035h-.691v-4.026c0-.224-.052-.393-.154-.509a.495.495 0 00-.413-.182c-.179 0-.314.06-.404.182-.089.116-.134.282-.134.5v4.035h-.797zm11.225 0l1.825-7.013h1.163l1.815 7.013h-.874l-.461-1.864h-2.123l-.461 1.864h-.884zm1.518-2.594h1.768l-.538-2.162c-.103-.41-.183-.752-.241-1.028a14.595 14.595 0 01-.105-.538 13.29 13.29 0 01-.106.538 26.85 26.85 0 01-.24 1.019l-.538 2.17zm4.575 2.594V54.02h2.258c.435 0 .813.086 1.133.26.321.166.567.403.74.71.179.307.269.672.269 1.095 0 .416-.09.782-.269 1.095a1.819 1.819 0 01-.74.72c-.32.167-.698.25-1.133.25h-1.393v2.883h-.865zm.865-3.66h1.393c.378 0 .679-.116.903-.346.23-.237.346-.551.346-.942 0-.397-.116-.71-.346-.941-.224-.23-.525-.346-.903-.346h-1.393v2.575zm4.95 3.66v-.788h1.431v-5.438h-1.431v-.787h3.746v.788h-1.431v5.437h1.431v.788h-3.746zM22.353 81.379v-2.085h.432c.109-.109.22-.323.336-.644.122-.32.186-.727.192-1.22l.058-2.68h3.449v4.544h.672v2.085h-.768v-1.345H23.12v1.345h-.768zm1.345-2.085h2.257v-3.775h-1.767l-.039 1.93c-.006.506-.06.916-.163 1.23-.103.314-.199.519-.288.615zm4.296.807v-.807h.173c.295 0 .5-.115.615-.346.122-.23.186-.643.192-1.24l.058-2.958h3.583v5.284h-.865v-4.496h-1.863l-.048 2.21c-.013.556-.077 1.008-.192 1.354-.11.346-.282.599-.52.759-.23.16-.534.24-.912.24h-.22zm6.026-.067l1.355-2.037c-.404-.096-.718-.282-.942-.557-.218-.275-.326-.618-.326-1.028 0-.519.17-.925.509-1.22.346-.295.816-.442 1.412-.442h2.277v5.284h-.865v-1.97h-1.162l-1.25 1.97H34.02zm2.008-2.738h1.412v-1.778h-1.412c-.32 0-.573.08-.759.24-.186.154-.279.372-.279.654 0 .275.093.493.279.653.186.154.439.23.759.23zm9.698 2.738V74.75h3.958v5.284h-.865v-4.496h-2.228v4.496h-.865zm5.67 1.729V74.75h.865v1.009h.173l-.173.201c0-.403.131-.72.394-.95.269-.238.621-.356 1.057-.356.531 0 .954.176 1.268.528.32.346.48.823.48 1.432v1.546c0 .404-.074.753-.22 1.047a1.576 1.576 0 01-.606.683c-.256.16-.564.24-.922.24-.43 0-.778-.119-1.047-.356-.27-.237-.404-.554-.404-.95l.173.201h-.192l.02 1.2v1.538h-.865zm2.027-2.383c.366 0 .65-.108.855-.326.212-.218.318-.532.318-.942v-1.44c0-.41-.106-.724-.317-.942-.205-.218-.49-.327-.856-.327-.352 0-.634.112-.845.337-.211.224-.317.534-.317.931v1.441c0 .397.106.708.317.932.211.224.493.336.845.336zm5.661.73c-.422 0-.787-.08-1.095-.24a1.744 1.744 0 01-.72-.691c-.167-.308-.25-.67-.25-1.086V76.69c0-.422.083-.784.25-1.085.173-.301.413-.532.72-.692.308-.16.673-.24 1.095-.24.423 0 .788.08 1.095.24.308.16.545.391.711.692.173.301.26.66.26 1.076v1.412c0 .416-.087.778-.26 1.086a1.683 1.683 0 01-.71.691c-.308.16-.673.24-1.096.24zm0-.768c.378 0 .673-.106.884-.317.211-.211.317-.522.317-.932V76.69c0-.41-.105-.72-.317-.931-.211-.212-.506-.317-.884-.317-.371 0-.666.105-.884.317-.21.211-.317.522-.317.931v1.403c0 .41.106.72.317.932.218.211.513.317.884.317zm3.711.692V74.75h2.286c.551 0 .977.125 1.278.375.301.243.452.586.452 1.028 0 .365-.125.66-.375.883-.25.218-.58.327-.99.327v-.077c.449 0 .807.112 1.076.336.276.225.413.526.413.903 0 .474-.16.846-.48 1.115-.32.262-.768.394-1.345.394h-2.315zm.845-.76h1.47c.308 0 .545-.067.711-.201.173-.134.26-.323.26-.567 0-.25-.087-.442-.26-.576-.166-.135-.403-.202-.71-.202h-1.47v1.547zm0-2.295h1.441c.27 0 .48-.064.635-.192a.652.652 0 00.24-.538c0-.23-.077-.41-.23-.538-.155-.135-.37-.202-.645-.202h-1.44v1.47zm6.824 3.15a2.31 2.31 0 01-1.096-.249 1.807 1.807 0 01-.72-.701 2.204 2.204 0 01-.25-1.067v-1.44c0-.41.084-.766.25-1.067.173-.301.413-.535.72-.701.314-.167.68-.25 1.096-.25.416 0 .778.083 1.085.25.314.166.554.4.72.701.174.301.26.656.26 1.066v.932h-3.285v.51c0 .416.105.736.317.96.211.218.512.327.903.327.333 0 .602-.058.807-.173a.763.763 0 00.374-.538h.865a1.472 1.472 0 01-.653 1.057c-.372.256-.836.384-1.393.384zm1.22-3.102v-.356c0-.416-.106-.736-.317-.96-.205-.224-.506-.337-.903-.337-.391 0-.692.113-.903.337-.212.224-.317.544-.317.96v.279h2.507l-.067.077zm2.471 4.736V74.75h.865v1.009h.173l-.173.201c0-.403.131-.72.394-.95.269-.238.62-.356 1.056-.356.532 0 .955.176 1.268.528.32.346.48.823.48 1.432v1.546c0 .404-.073.753-.22 1.047a1.57 1.57 0 01-.605.683c-.257.16-.564.24-.923.24-.429 0-.778-.119-1.047-.356-.269-.237-.403-.554-.403-.95l.173.201H75l.019 1.2v1.538h-.865zm2.027-2.383c.365 0 .65-.108.855-.326.212-.218.317-.532.317-.942v-1.44c0-.41-.105-.724-.317-.942-.205-.218-.49-.327-.855-.327-.352 0-.634.112-.845.337-.212.224-.317.534-.317.931v1.441c0 .397.105.708.317.932.211.224.493.336.845.336zm3.71.654V74.75h.865v2.18h.903l1.538-2.18h.989l-1.777 2.517 1.806 2.767h-1.009L81.67 77.68h-.913v2.354h-.864zm5.662 0V74.75h.826v2.882c0 .186-.007.381-.02.586-.006.205-.019.4-.038.586-.013.18-.029.333-.048.461l2.133-4.515h1.105v5.284h-.827v-2.882c0-.186.004-.381.01-.586.013-.205.029-.4.048-.586l.048-.471-2.133 4.525h-1.104zm13.377.096a2.46 2.46 0 01-1.114-.24 1.73 1.73 0 01-.73-.692c-.173-.307-.26-.67-.26-1.086v-1.44c0-.423.087-.785.26-1.086a1.73 1.73 0 01.73-.692c.32-.16.691-.24 1.114-.24.609 0 1.099.163 1.47.49.371.326.567.772.586 1.335h-.865c-.019-.34-.134-.599-.346-.778-.204-.186-.486-.278-.845-.278-.378 0-.679.108-.903.326-.224.211-.336.516-.336.913v1.45c0 .397.112.705.336.923.224.217.525.326.903.326.359 0 .64-.093.846-.278.21-.186.326-.445.345-.778h.865c-.019.563-.215 1.008-.586 1.335-.371.326-.861.49-1.47.49zm5.238-.096v-4.525h-1.921v-.759h4.707v.759h-1.921v4.525h-.865zm5.661.096c-.557 0-.996-.141-1.316-.423-.32-.288-.48-.676-.48-1.162 0-.493.16-.881.48-1.163.32-.282.753-.422 1.297-.422h1.633v-.529c0-.326-.099-.576-.298-.75-.192-.178-.467-.268-.826-.268-.314 0-.576.067-.788.202a.718.718 0 00-.365.528h-.864c.057-.455.272-.817.643-1.086.372-.269.836-.403 1.393-.403.609 0 1.089.157 1.441.47.353.315.529.74.529 1.278v3.632h-.846v-1.009h-.144l.144-.144c0 .384-.15.688-.451.912-.295.225-.689.337-1.182.337zm.211-.682c.41 0 .747-.103 1.009-.308a.956.956 0 00.394-.787v-.75h-1.614c-.288 0-.515.08-.682.24-.166.16-.25.378-.25.654 0 .294.1.528.298.7.205.167.487.25.845.25zm5.508.586v-4.525h-1.922v-.759h4.708v.759h-1.922v4.525h-.864zm4.95 1.729l.778-2.056-1.96-4.957h.961l1.229 3.266a2.8 2.8 0 01.125.394c.039.148.071.272.096.375l.096-.375a4.4 4.4 0 01.116-.394l1.152-3.266h.932l-2.603 7.013h-.922zm6.88-1.633a2.46 2.46 0 01-1.114-.24 1.73 1.73 0 01-.73-.692c-.173-.307-.259-.67-.259-1.086v-1.44c0-.423.086-.785.259-1.086a1.73 1.73 0 01.73-.692c.32-.16.692-.24 1.114-.24.609 0 1.099.163 1.47.49.372.326.567.772.586 1.335h-.864c-.02-.34-.135-.599-.346-.778-.205-.186-.487-.278-.846-.278-.377 0-.678.108-.903.326-.224.211-.336.516-.336.913v1.45c0 .397.112.705.336.923.225.217.526.326.903.326.359 0 .641-.093.846-.278.211-.186.326-.445.346-.778h.864c-.019.563-.214 1.008-.586 1.335-.371.326-.861.49-1.47.49zm5.21 0c-.557 0-.996-.141-1.316-.423-.321-.288-.481-.676-.481-1.162 0-.493.16-.881.481-1.163.32-.282.752-.422 1.297-.422h1.633v-.529c0-.326-.1-.576-.298-.75-.192-.178-.468-.268-.826-.268-.314 0-.577.067-.788.202a.718.718 0 00-.365.528h-.865c.058-.455.272-.817.644-1.086.371-.269.836-.403 1.393-.403.608 0 1.089.157 1.441.47.352.315.528.74.528 1.278v3.632h-.845v-1.009h-.144l.144-.144c0 .384-.151.688-.452.912-.294.225-.688.337-1.181.337zm.211-.682c.41 0 .746-.103 1.009-.308a.958.958 0 00.394-.787v-.75h-1.614c-.288 0-.516.08-.682.24-.167.16-.25.378-.25.654 0 .294.099.528.298.7.205.167.486.25.845.25zM22.967 99.034V93.75h3.958v5.284h-.864v-4.496h-2.229v4.496h-.865zm7.67.076c-.424 0-.789-.08-1.096-.24a1.744 1.744 0 01-.72-.691c-.167-.308-.25-.67-.25-1.086V95.69c0-.422.083-.784.25-1.085.172-.301.412-.532.72-.692.307-.16.672-.24 1.095-.24.423 0 .788.08 1.095.24.308.16.545.391.711.692.173.301.26.66.26 1.076v1.412c0 .416-.087.778-.26 1.086a1.683 1.683 0 01-.71.691c-.308.16-.673.24-1.096.24zm0-.768c.377 0 .671-.106.883-.317.211-.211.317-.522.317-.932V95.69c0-.41-.106-.72-.317-.931-.212-.212-.506-.317-.884-.317-.371 0-.666.105-.884.317-.211.211-.317.522-.317.931v1.403c0 .41.106.72.317.932.218.211.513.317.884.317zm3.095 2.037v-2.085h.432c.11-.109.221-.323.336-.644.122-.32.186-.727.193-1.22l.057-2.68h3.45v4.544h.672v2.085h-.768v-1.345H34.5v1.345h-.768zm1.345-2.085h2.257v-3.775h-1.767l-.039 1.93c-.006.506-.06.916-.163 1.23-.102.314-.199.519-.288.615zm4.96.74V93.75h3.957v5.284h-.864v-4.496H40.9v4.496h-.865zm5.689 0V93.75h.826v2.882c0 .186-.006.381-.019.586-.006.205-.02.4-.038.586-.013.18-.03.333-.048.461l2.132-4.515h1.105v5.284h-.826v-2.882c0-.186.003-.381.01-.586.012-.205.028-.4.047-.586l.049-.471-2.133 4.525h-1.105zm7.688.096a2.46 2.46 0 01-1.114-.24 1.73 1.73 0 01-.73-.692c-.173-.307-.26-.67-.26-1.086v-1.44c0-.423.087-.785.26-1.086a1.73 1.73 0 01.73-.692c.32-.16.691-.24 1.114-.24.608 0 1.098.163 1.47.49.371.326.566.772.586 1.335h-.865c-.02-.34-.134-.599-.346-.778-.205-.186-.486-.278-.845-.278-.378 0-.679.108-.903.326-.224.211-.336.516-.336.913v1.45c0 .397.112.705.336.923.224.217.525.326.903.326.358 0 .64-.093.845-.278.212-.186.327-.445.346-.778h.865c-.02.563-.215 1.008-.586 1.335-.372.326-.862.49-1.47.49zm3.72-.096V93.75H58v2.18h.903l1.537-2.18h.99l-1.778 2.517 1.806 2.767H60.45l-1.54-2.354H58v2.354h-.865zm5.661 0V93.75h.826v2.882c0 .186-.006.381-.019.586-.006.205-.02.4-.038.586a6.1 6.1 0 01-.048.461l2.132-4.515h1.105v5.284h-.826v-2.882c0-.186.003-.381.01-.586.012-.205.028-.4.047-.586l.049-.471-2.133 4.525h-1.105zm11.38 0V93.75h3.957v5.284h-.864v-4.496h-2.23v4.496h-.864zm7.668.076c-.423 0-.788-.08-1.095-.24a1.744 1.744 0 01-.72-.691c-.167-.308-.25-.67-.25-1.086V95.69c0-.422.083-.784.25-1.085.172-.301.412-.532.72-.692.307-.16.672-.24 1.095-.24.423 0 .788.08 1.095.24.308.16.544.391.711.692.173.301.26.66.26 1.076v1.412c0 .416-.087.778-.26 1.086a1.683 1.683 0 01-.71.691c-.308.16-.673.24-1.096.24zm0-.768c.378 0 .672-.106.884-.317.211-.211.317-.522.317-.932V95.69c0-.41-.106-.72-.317-.931-.212-.212-.506-.317-.884-.317-.371 0-.666.105-.884.317-.211.211-.317.522-.317.931v1.403c0 .41.106.72.317.932.218.211.513.317.884.317zm3.048.759v-.807h.173c.294 0 .5-.115.615-.346.121-.23.185-.643.192-1.24l.057-2.958h3.584v5.284h-.865v-4.496h-1.864l-.048 2.21c-.013.556-.077 1.008-.192 1.354-.109.346-.282.599-.519.759-.23.16-.534.24-.912.24h-.221zm6.39-.067V93.75h.865v1.94h1.557c.595 0 1.063.151 1.402.452.346.295.519.701.519 1.22 0 .513-.173.92-.519 1.22-.346.301-.813.452-1.402.452h-2.421zm.865-.788h1.557c.333 0 .586-.074.758-.221.18-.154.27-.375.27-.663 0-.288-.09-.506-.27-.653-.172-.154-.425-.23-.758-.23h-1.557v1.767zm6.516.855c-.557 0-1.015-.118-1.374-.355a1.412 1.412 0 01-.634-.961h.913c.045.16.163.291.355.394.199.102.446.153.74.153h.452c.313 0 .557-.073.73-.22a.713.713 0 00.269-.577c0-.256-.087-.458-.26-.605-.166-.148-.413-.221-.74-.221h-1.162v-.75h1.134c.294 0 .519-.07.672-.21a.72.72 0 00.23-.558.727.727 0 00-.105-.404.61.61 0 00-.298-.25 1.243 1.243 0 00-.49-.086h-.48c-.256 0-.477.058-.663.173-.185.116-.298.256-.336.423h-.913c.064-.397.273-.724.625-.98s.781-.384 1.287-.384h.48c.378 0 .702.06.971.182.269.116.474.282.615.5.147.218.221.477.221.778 0 .314-.103.573-.308.778-.205.199-.493.31-.865.336v.039c.455.032.785.153.99.365.205.211.307.515.307.912 0 .468-.173.84-.518 1.115-.346.275-.81.413-1.393.413h-.452zm5.94.01c-.423 0-.788-.08-1.096-.24a1.745 1.745 0 01-.72-.692c-.167-.308-.25-.67-.25-1.086V95.69c0-.422.083-.784.25-1.085.173-.301.413-.532.72-.692.308-.16.673-.24 1.096-.24.422 0 .787.08 1.095.24.307.16.544.391.711.692.173.301.259.66.259 1.076v1.412c0 .416-.086.778-.259 1.086a1.689 1.689 0 01-.711.691c-.308.16-.673.24-1.095.24zm0-.769c.377 0 .672-.106.883-.317.212-.211.317-.522.317-.932V95.69c0-.41-.105-.72-.317-.931-.211-.212-.506-.317-.883-.317-.372 0-.666.105-.884.317-.212.211-.317.522-.317.931v1.403c0 .41.105.72.317.932.218.211.512.317.884.317zm3.71.692V93.75h2.287c.55 0 .976.125 1.277.375.301.243.452.586.452 1.028 0 .365-.125.66-.375.883-.25.218-.579.327-.989.327v-.077c.448 0 .807.112 1.076.336.275.225.413.526.413.903 0 .474-.16.846-.481 1.115-.32.262-.768.394-1.345.394h-2.315zm.846-.76h1.469c.308 0 .545-.067.711-.201.173-.134.26-.323.26-.567 0-.25-.087-.442-.26-.576-.166-.135-.403-.202-.711-.202h-1.469v1.547zm0-2.295h1.441c.269 0 .48-.064.634-.192a.652.652 0 00.24-.538c0-.23-.077-.41-.231-.538-.153-.135-.368-.202-.643-.202h-1.441v1.47zm6.362 3.15c-.557 0-.996-.14-1.316-.422-.321-.288-.481-.676-.481-1.162 0-.493.16-.881.481-1.163.32-.282.752-.422 1.297-.422h1.633v-.529c0-.326-.1-.576-.298-.75-.192-.178-.468-.268-.826-.268-.314 0-.577.067-.788.202a.718.718 0 00-.365.528h-.865c.058-.455.272-.817.644-1.086.371-.269.836-.403 1.393-.403.608 0 1.089.157 1.441.47.352.315.528.74.528 1.278v3.632h-.845v-1.009h-.144l.144-.144c0 .384-.151.688-.452.912-.294.225-.688.337-1.181.337zm.211-.681c.41 0 .746-.103 1.009-.308a.958.958 0 00.394-.787v-.75h-1.614c-.288 0-.516.08-.682.24-.167.16-.25.378-.25.654 0 .294.099.528.298.7.205.167.486.25.845.25zm5.507.586v-4.525h-1.921v-.759h4.707v.759h-1.921v4.525h-.865zm6.122.096a2.31 2.31 0 01-1.095-.25 1.803 1.803 0 01-.72-.701 2.199 2.199 0 01-.25-1.067v-1.44c0-.41.083-.766.25-1.067.172-.301.413-.535.72-.701.314-.167.679-.25 1.095-.25.416 0 .778.083 1.086.25.314.166.554.4.72.701.173.301.26.656.26 1.066v.932h-3.286v.51c0 .416.106.736.317.96.212.218.513.327.903.327.333 0 .602-.058.807-.173a.764.764 0 00.375-.538h.864a1.469 1.469 0 01-.653 1.057c-.371.256-.836.384-1.393.384zm1.22-3.103v-.356c0-.416-.105-.736-.317-.96-.205-.224-.506-.337-.903-.337-.39 0-.691.113-.903.337-.211.224-.317.544-.317.96v.279h2.507l-.067.077zm1.828 3.074v-.807h.173c.295 0 .499-.115.615-.346.121-.23.185-.643.192-1.24l.058-2.958h3.583v5.284h-.865v-4.496h-1.863l-.049 2.21c-.012.556-.076 1.008-.192 1.354-.109.346-.281.599-.518.759-.231.16-.535.24-.913.24h-.221zm6.026-.067l1.354-2.037c-.403-.096-.717-.282-.941-.557-.218-.275-.327-.618-.327-1.028 0-.519.17-.925.51-1.22.345-.295.816-.442 1.412-.442h2.276v5.284h-.864v-1.97h-1.163l-1.248 1.97h-1.009zm2.008-2.738h1.412v-1.778h-1.412c-.321 0-.574.08-.759.24-.186.154-.279.372-.279.654 0 .275.093.493.279.653.185.154.438.23.759.23zm5.987 2.834c-.243 0-.439-.07-.586-.212-.141-.14-.211-.33-.211-.566 0-.25.07-.449.211-.596.147-.147.343-.221.586-.221.244 0 .436.074.577.221.147.147.221.346.221.596 0 .237-.074.425-.221.566-.141.141-.333.212-.577.212zM16.338 116.68a1.118 1.118 0 01-1.153-1.153c0-.339.109-.615.326-.826a1.12 1.12 0 01.826-.327c.34 0 .615.109.827.327.217.211.326.487.326.826a1.117 1.117 0 01-1.153 1.153zm8.608 2.45c-.422 0-.787-.08-1.095-.24a1.704 1.704 0 01-.701-.692c-.16-.308-.24-.669-.24-1.086v-3.17c0-.423.08-.784.24-1.085a1.7 1.7 0 01.701-.692c.308-.16.673-.24 1.095-.24.423 0 .785.08 1.086.24.307.16.541.391.701.692.167.301.25.659.25 1.076v3.179c0 .417-.083.778-.25 1.086-.16.301-.394.531-.701.692-.301.16-.663.24-1.086.24zm0-.778c.378 0 .666-.106.865-.317.205-.218.307-.526.307-.923v-3.17c0-.397-.102-.701-.307-.913-.198-.217-.487-.326-.865-.326-.371 0-.66.109-.864.326-.205.212-.308.516-.308.913v3.17c0 .397.103.705.308.923.205.211.493.317.864.317zm5.69.778c-.621 0-1.114-.183-1.48-.548-.358-.371-.537-.877-.537-1.518v-2.401c0-.846.211-1.496.634-1.951.422-.461 1.028-.691 1.815-.691h1.345v.864h-1.345c-.518 0-.912.154-1.181.462-.27.301-.404.739-.404 1.316v.624h.135l-.135.192c.007-.378.135-.672.384-.884.25-.211.59-.317 1.019-.317.557 0 .99.18 1.297.538.314.359.47.852.47 1.48v.768c0 .429-.08.798-.24 1.105a1.68 1.68 0 01-.691.711c-.301.167-.663.25-1.086.25zm0-.769c.372 0 .657-.112.855-.336.199-.224.298-.544.298-.961v-.768c0-.417-.1-.737-.298-.961-.198-.224-.483-.336-.855-.336-.371 0-.656.112-.855.336-.198.218-.298.538-.298.961v.768c0 .417.1.737.298.961.199.224.484.336.855.336zm5.69.769c-.417 0-.782-.083-1.096-.25a1.81 1.81 0 01-.72-.701 2.207 2.207 0 01-.25-1.067v-1.441c0-.41.084-.765.25-1.066.173-.301.413-.535.72-.701.314-.167.68-.25 1.096-.25.416 0 .778.083 1.085.25.314.166.554.4.72.701.174.301.26.656.26 1.066v.932h-3.285v.509c0 .417.105.737.317.961.211.218.512.327.903.327.333 0 .602-.058.807-.173a.764.764 0 00.374-.538h.865a1.47 1.47 0 01-.653 1.056c-.372.257-.836.385-1.393.385zm1.22-3.103v-.356c0-.416-.106-.736-.317-.96-.205-.224-.506-.337-.903-.337-.391 0-.692.113-.903.337-.212.224-.317.544-.317.96v.279h2.507l-.067.077zm4.489 3.103c-.423 0-.795-.08-1.115-.24a1.736 1.736 0 01-.73-.692c-.173-.308-.26-.669-.26-1.086v-1.441c0-.422.087-.784.26-1.085a1.73 1.73 0 01.73-.692c.32-.16.692-.24 1.115-.24.608 0 1.098.163 1.47.49.37.326.566.772.585 1.335h-.864c-.02-.339-.135-.599-.346-.778-.205-.186-.487-.279-.845-.279-.378 0-.68.109-.903.327-.225.211-.337.516-.337.913v1.45c0 .397.112.705.337.923.224.217.525.326.903.326.358 0 .64-.093.845-.278.211-.186.327-.445.346-.779h.864c-.019.564-.214 1.009-.586 1.336-.371.326-.861.49-1.47.49zm3.691-.096v-5.284h3.958v5.284h-.865v-4.496h-2.228v4.496h-.865zm7.669.096c-.417 0-.782-.083-1.096-.25a1.81 1.81 0 01-.72-.701 2.207 2.207 0 01-.25-1.067v-1.441c0-.41.084-.765.25-1.066.173-.301.413-.535.72-.701.314-.167.68-.25 1.096-.25.416 0 .778.083 1.085.25.314.166.554.4.72.701.174.301.26.656.26 1.066v.932h-3.285v.509c0 .417.105.737.317.961.211.218.512.327.903.327.333 0 .602-.058.807-.173a.764.764 0 00.374-.538h.865a1.47 1.47 0 01-.653 1.056c-.372.257-.836.385-1.393.385zm1.22-3.103v-.356c0-.416-.106-.736-.317-.96-.205-.224-.506-.337-.903-.337-.391 0-.692.113-.903.337-.212.224-.317.544-.317.96v.279h2.507l-.067.077zm5.526 3.007v-1.922c-.102.026-.26.052-.47.077a7.084 7.084 0 01-.654.029c-.653.006-1.162-.15-1.527-.471-.359-.326-.538-.781-.538-1.364v-1.633h.864v1.633c0 .327.11.586.327.778.224.186.532.279.922.279.27 0 .497-.01.682-.029.192-.026.324-.048.394-.067v-2.594h.865v5.284h-.865zm2.654 0v-5.284h.826v2.882c0 .186-.006.381-.019.586-.006.205-.02.4-.038.586a6.11 6.11 0 01-.048.461l2.132-4.515h1.105v5.284h-.826v-2.882c0-.186.003-.381.01-.586.012-.205.028-.401.047-.586l.049-.471-2.133 4.525h-1.105zm5.027.067v-.807h.173c.294 0 .5-.115.614-.346.122-.23.186-.644.193-1.239l.057-2.959h3.584v5.284h-.865v-4.496h-1.864l-.048 2.209c-.013.557-.077 1.009-.192 1.355-.109.346-.282.599-.519.759-.23.16-.534.24-.912.24h-.221zm6.352-.067v-5.284H75v2.882c0 .186-.006.381-.019.586a8.2 8.2 0 01-.038.586 6.157 6.157 0 01-.048.461l2.133-4.515h1.104v5.284h-.826v-2.882c0-.186.003-.381.01-.586.013-.205.028-.401.048-.586l.048-.471-2.133 4.525h-1.105zm11.38 0v-5.284h.864v2.2h2.229v-2.2h.865v5.284h-.865v-2.296h-2.229v2.296h-.864zm7.207.096c-.557 0-.996-.141-1.316-.423-.32-.288-.48-.676-.48-1.162 0-.493.16-.881.48-1.163.32-.282.753-.422 1.297-.422h1.633v-.529c0-.326-.1-.576-.298-.749-.192-.179-.467-.269-.826-.269-.314 0-.576.067-.788.202a.717.717 0 00-.365.528h-.864c.057-.455.272-.817.643-1.086.372-.269.836-.403 1.393-.403.609 0 1.09.157 1.441.471.353.313.529.739.529 1.277v3.632h-.846v-1.009h-.144l.144-.144c0 .384-.15.688-.451.913-.295.224-.689.336-1.182.336zm.212-.682c.41 0 .746-.103 1.008-.308a.955.955 0 00.394-.787v-.75h-1.614c-.288 0-.515.08-.682.24-.166.16-.25.378-.25.654 0 .294.1.528.298.701.205.166.487.25.846.25zm3.345 1.931v-2.085h.432c.11-.109.221-.323.337-.644.121-.32.185-.727.192-1.22l.057-2.68h3.449v4.544h.673v2.085h-.769v-1.345h-3.602v1.345h-.769zm1.345-2.085h2.258v-3.775h-1.768l-.038 1.93c-.007.506-.061.916-.164 1.23-.102.314-.198.519-.288.615zm8.005-5.495a.636.636 0 01-.452-.163.602.602 0 01-.163-.442c0-.192.055-.343.163-.452a.614.614 0 01.452-.173.58.58 0 01.442.173c.115.109.173.26.173.452a.581.581 0 01-.173.442.6.6 0 01-.442.163zm-2.133 0a.632.632 0 01-.451-.163.599.599 0 01-.164-.442c0-.192.055-.343.164-.452a.61.61 0 01.451-.173.58.58 0 01.442.173c.115.109.173.26.173.452a.581.581 0 01-.173.442.6.6 0 01-.442.163zm1.067 6.331c-.417 0-.782-.083-1.096-.25a1.812 1.812 0 01-.72-.701 2.201 2.201 0 01-.25-1.067v-1.441c0-.41.083-.765.25-1.066.173-.301.413-.535.72-.701.314-.167.679-.25 1.096-.25.416 0 .778.083 1.085.25.314.166.554.4.721.701.173.301.259.656.259 1.066v.932h-3.285v.509c0 .417.105.737.317.961.211.218.512.327.903.327.333 0 .602-.058.807-.173a.766.766 0 00.374-.538h.865a1.473 1.473 0 01-.653 1.056c-.372.257-.836.385-1.393.385zm1.22-3.103v-.356c0-.416-.106-.736-.317-.96-.205-.224-.506-.337-.903-.337-.391 0-.692.113-.903.337-.212.224-.317.544-.317.96v.279h2.507l-.067.077zm1.76 3.007l1.153-2.709-1.076-2.575h.836l.922 2.306h.509v-2.306h.73v2.306h.49l.951-2.306h.826l-1.075 2.546 1.152 2.738h-.864l-.961-2.402h-.519v2.402h-.73v-2.402h-.519l-.97 2.402h-.855zm6.42 0v-5.284h.865v2.2h2.228v-2.2h.865v5.284h-.865v-2.296h-2.228v2.296h-.865zm6.497 1.729l.778-2.056-1.96-4.957h.961l1.229 3.266c.045.109.087.24.125.394.039.147.071.272.096.375l.096-.375a4.4 4.4 0 01.116-.394l1.152-3.266h.932l-2.603 7.013h-.922zm7.687-1.633c-.442 0-.797-.151-1.066-.452-.269-.301-.403-.695-.403-1.181v-.798h-.846v2.335h-.797v-5.284h.797v2.258h.846v-.721c0-.493.131-.887.393-1.182.269-.301.628-.451 1.076-.451.474 0 .855.15 1.144.451.288.295.432.689.432 1.182v2.21c0 .486-.144.88-.432 1.181-.289.301-.67.452-1.144.452zm0-.673c.244 0 .433-.083.567-.249.141-.173.212-.41.212-.711v-2.21c0-.301-.071-.535-.212-.701-.134-.173-.323-.26-.567-.26a.667.667 0 00-.557.26c-.134.166-.202.4-.202.701v2.21c0 .301.068.538.202.711.135.166.32.249.557.249zm8.555 2.306v-7.013h.865v1.009h.173l-.173.201c0-.403.131-.72.394-.951.269-.237.621-.355 1.057-.355.531 0 .954.176 1.268.528.32.346.48.823.48 1.432v1.546c0 .404-.074.753-.221 1.048a1.583 1.583 0 01-.605.682c-.256.16-.564.24-.922.24-.43 0-.779-.119-1.048-.356s-.403-.554-.403-.951l.173.202h-.192l.019 1.201v1.537h-.865zm2.027-2.383c.365 0 .65-.108.855-.326.212-.218.317-.532.317-.942v-1.441c0-.41-.105-.723-.317-.941-.205-.218-.49-.327-.855-.327-.352 0-.634.112-.845.336-.211.225-.317.535-.317.932v1.441c0 .397.106.708.317.932.211.224.493.336.845.336zm5.2.75c-.557 0-.996-.141-1.316-.423-.32-.288-.48-.676-.48-1.162 0-.493.16-.881.48-1.163.32-.282.752-.422 1.297-.422h1.633v-.529c0-.326-.099-.576-.298-.749-.192-.179-.467-.269-.826-.269-.314 0-.576.067-.788.202a.718.718 0 00-.365.528h-.864c.057-.455.272-.817.643-1.086.372-.269.836-.403 1.393-.403.609 0 1.089.157 1.441.471.352.313.529.739.529 1.277v3.632h-.846v-1.009h-.144l.144-.144c0 .384-.15.688-.451.913-.295.224-.689.336-1.182.336zm.211-.682c.41 0 .747-.103 1.009-.308a.954.954 0 00.394-.787v-.75h-1.614c-.288 0-.516.08-.682.24-.167.16-.25.378-.25.654 0 .294.099.528.298.701.205.166.487.25.845.25zm5.94.682c-.621 0-1.115-.183-1.48-.548-.358-.371-.538-.877-.538-1.518v-2.401c0-.846.212-1.496.634-1.951.423-.461 1.028-.691 1.816-.691h1.345v.864h-1.345c-.519 0-.913.154-1.182.462-.269.301-.403.739-.403 1.316v.624h.134l-.134.192c.006-.378.134-.672.384-.884.25-.211.589-.317 1.019-.317.557 0 .989.18 1.296.538.314.359.471.852.471 1.48v.768c0 .429-.08.798-.24 1.105-.16.308-.391.544-.692.711-.301.167-.662.25-1.085.25zm0-.769c.371 0 .656-.112.855-.336.198-.224.298-.544.298-.961v-.768c0-.417-.1-.737-.298-.961-.199-.224-.484-.336-.855-.336-.372 0-.657.112-.855.336-.199.218-.298.538-.298.961v.768c0 .417.099.737.298.961.198.224.483.336.855.336zm5.689.75c-.422 0-.787-.081-1.095-.241a1.743 1.743 0 01-.72-.691c-.167-.308-.25-.67-.25-1.086v-1.402c0-.423.083-.785.25-1.086.173-.301.413-.532.72-.692.308-.16.673-.24 1.095-.24.423 0 .788.08 1.096.24.307.16.544.391.711.692.172.301.259.66.259 1.076v1.412c0 .416-.087.778-.259 1.086a1.686 1.686 0 01-.711.691c-.308.16-.673.241-1.096.241zm0-.769c.378 0 .673-.106.884-.317.212-.211.317-.522.317-.932v-1.402c0-.41-.105-.721-.317-.932-.211-.212-.506-.317-.884-.317-.371 0-.666.105-.883.317-.212.211-.317.522-.317.932v1.402c0 .41.105.721.317.932.217.211.512.317.883.317zm5.258.692v-4.525h-1.922v-.759h4.708v.759h-1.922v4.525h-.864zm4.95 1.729l.778-2.056-1.96-4.957h.961l1.229 3.266c.045.109.087.24.125.394.039.147.071.272.096.375l.096-.375a4.4 4.4 0 01.116-.394l1.153-3.266h.931l-2.603 7.013h-.922zm-141.454 19v-1.729c-.615 0-1.098-.173-1.45-.519-.353-.346-.529-.82-.529-1.422v-1.422c0-.595.176-1.063.529-1.402.358-.346.842-.519 1.45-.519v-1.729h.769v1.729c.614 0 1.098.173 1.45.519.353.339.529.807.529 1.402v1.422c0 .602-.176 1.076-.529 1.422-.352.346-.835.519-1.45.519v1.729h-.769zm.02-2.411v-3.92c-.372 0-.663.109-.875.327-.211.217-.317.522-.317.912v1.422c0 .391.106.698.317.922.212.225.503.337.874.337zm.73 0c.377 0 .669-.112.874-.337.211-.224.317-.531.317-.922v-1.422c0-.39-.106-.695-.317-.912-.205-.218-.497-.327-.875-.327v3.92zm4.152 2.411l.778-2.056-1.96-4.957h.961l1.23 3.266c.045.109.086.24.125.394l.096.375c.025-.103.057-.228.096-.375.038-.154.077-.285.115-.394l1.153-3.266h.932l-2.604 7.013h-.922zm4.883-1.729v-5.284h.864v2.2h2.23v-2.2h.864v5.284h-.865v-2.296h-2.229v2.296h-.864zm5.718 0v-5.284h.865v2.181h.903l1.537-2.181h.99l-1.778 2.517 1.806 2.767H43.38l-1.538-2.354h-.912v2.354h-.865zm9.417 1.345v-1.345h-3.756v-5.284h.865v4.515h2.075v-4.515h.864v4.515h.72v2.114h-.768zm1.934-1.345v-5.284h.826v2.882c0 .186-.006.381-.02.586-.006.205-.019.4-.038.586a6.11 6.11 0 01-.048.461l2.133-4.515h1.105v5.284h-.827v-2.882c0-.186.004-.381.01-.586.013-.205.029-.401.048-.586l.048-.471-2.133 4.525h-1.104zm5.69 0v-5.284h.825v2.882c0 .186-.006.381-.019.586a8.2 8.2 0 01-.038.586 6.11 6.11 0 01-.048.461l2.133-4.515h1.104v5.284h-.826v-2.882c0-.186.003-.381.01-.586.013-.205.029-.401.048-.586l.048-.471-2.133 4.525h-1.105zm10.764 1.345v-2.085h.432c.109-.109.221-.323.336-.644.122-.32.186-.727.192-1.22l.058-2.68h3.449v4.544h.672v2.085h-.768v-1.345h-3.603v1.345h-.768zm1.345-2.085h2.257v-3.775h-1.767l-.039 1.93c-.006.506-.06.916-.163 1.23-.103.314-.199.519-.288.615zm6.477.836c-.557 0-.996-.141-1.316-.423-.32-.288-.48-.676-.48-1.162 0-.493.16-.881.48-1.163.32-.282.753-.422 1.297-.422h1.633v-.529c0-.326-.1-.576-.298-.749-.192-.179-.467-.269-.826-.269-.314 0-.576.067-.788.202a.717.717 0 00-.365.528h-.864c.057-.455.272-.817.643-1.086.372-.269.836-.403 1.393-.403.609 0 1.09.157 1.441.471.353.313.529.739.529 1.277v3.632h-.846v-1.009h-.144l.144-.144c0 .384-.15.688-.451.913-.295.224-.689.336-1.182.336zm.212-.682c.41 0 .746-.103 1.008-.308a.955.955 0 00.394-.787v-.75h-1.614c-.288 0-.515.08-.682.24-.166.16-.25.378-.25.654 0 .294.1.528.298.701.205.166.487.25.845.25zm3.23.586l1.153-2.709-1.076-2.575h.835l.923 2.306h.509v-2.306h.73v2.306h.49l.951-2.306h.826l-1.076 2.546 1.153 2.738h-.865l-.96-2.402h-.519v2.402h-.73v-2.402h-.519l-.97 2.402h-.855zm8.399.096c-.417 0-.782-.083-1.096-.25a1.81 1.81 0 01-.72-.701 2.207 2.207 0 01-.25-1.067v-1.441c0-.41.083-.765.25-1.066.173-.301.413-.535.72-.701.314-.167.68-.25 1.096-.25.416 0 .778.083 1.085.25.314.166.554.4.72.701.174.301.26.656.26 1.066v.932h-3.285v.509c0 .417.105.737.317.961.21.218.512.327.903.327.333 0 .602-.058.807-.173a.764.764 0 00.374-.538h.865a1.469 1.469 0 01-.653 1.056c-.372.257-.836.385-1.393.385zm1.22-3.103v-.356c0-.416-.106-.736-.317-.96-.205-.224-.506-.337-.903-.337-.391 0-.692.113-.903.337-.212.224-.317.544-.317.96v.279h2.507l-.067.077zm8.18 3.007v-5.284h3.958v5.284h-.865v-4.496h-2.228v4.496h-.865zm5.67 1.729v-7.013h.865v1.009h.173l-.173.201c0-.403.131-.72.394-.951.269-.237.621-.355 1.057-.355.531 0 .954.176 1.268.528.32.346.48.823.48 1.432v1.546c0 .404-.074.753-.221 1.048a1.583 1.583 0 01-.605.682c-.256.16-.564.24-.922.24-.43 0-.779-.119-1.048-.356s-.403-.554-.403-.951l.173.202h-.192l.019 1.201v1.537h-.865zm2.027-2.383c.365 0 .65-.108.855-.326.212-.218.317-.532.317-.942v-1.441c0-.41-.105-.723-.317-.941-.205-.218-.49-.327-.855-.327-.352 0-.634.112-.845.336-.211.225-.317.535-.317.932v1.441c0 .397.106.708.317.932.211.224.493.336.845.336zm3.682.654v-5.284h.826v2.882c0 .186-.006.381-.019.586-.006.205-.019.4-.038.586a6.326 6.326 0 01-.048.461l2.132-4.515h1.105v5.284h-.826v-2.882c0-.186.003-.381.01-.586.012-.205.028-.401.048-.586l.048-.471-2.133 4.525h-1.105zm13.359.096c-.622 0-1.115-.183-1.48-.548-.359-.371-.538-.877-.538-1.518v-2.401c0-.846.211-1.496.634-1.951.423-.461 1.028-.691 1.816-.691h1.345v.864h-1.345c-.519 0-.913.154-1.182.462-.269.301-.403.739-.403 1.316v.624h.134l-.134.192c.006-.378.134-.672.384-.884.25-.211.589-.317 1.018-.317.558 0 .99.18 1.297.538.314.359.471.852.471 1.48v.768c0 .429-.08.798-.24 1.105-.16.308-.391.544-.692.711-.301.167-.663.25-1.085.25zm0-.769c.371 0 .656-.112.855-.336.198-.224.297-.544.297-.961v-.768c0-.417-.099-.737-.297-.961-.199-.224-.484-.336-.855-.336-.372 0-.657.112-.855.336-.199.218-.298.538-.298.961v.768c0 .417.099.737.298.961.198.224.483.336.855.336zm5.689.75c-.423 0-.788-.081-1.095-.241a1.737 1.737 0 01-.72-.691c-.167-.308-.25-.67-.25-1.086v-1.402c0-.423.083-.785.25-1.086a1.74 1.74 0 01.72-.692c.307-.16.672-.24 1.095-.24.423 0 .788.08 1.095.24.308.16.545.391.711.692.173.301.26.66.26 1.076v1.412c0 .416-.087.778-.26 1.086a1.675 1.675 0 01-.711.691c-.307.16-.672.241-1.095.241zm0-.769c.378 0 .673-.106.884-.317.211-.211.317-.522.317-.932v-1.402c0-.41-.106-.721-.317-.932-.211-.212-.506-.317-.884-.317-.371 0-.666.105-.884.317-.211.211-.317.522-.317.932v1.402c0 .41.106.721.317.932.218.211.513.317.884.317zm3.048.759v-.807h.173c.295 0 .499-.115.615-.346.121-.23.185-.644.192-1.239l.058-2.959h3.583v5.284h-.865v-4.496h-1.863l-.049 2.209c-.012.557-.076 1.009-.192 1.355-.109.346-.281.599-.518.759-.231.16-.535.24-.913.24h-.221zm6.391-.067v-5.284h.865v1.941h1.556c.595 0 1.063.15 1.402.451.346.295.519.701.519 1.22 0 .512-.173.919-.519 1.22-.345.301-.813.452-1.402.452h-2.421zm.865-.788h1.556c.333 0 .586-.074.759-.221.179-.154.269-.375.269-.663 0-.288-.09-.506-.269-.653-.173-.154-.426-.231-.759-.231h-1.556v1.768zm4.517.788l-.019-5.284h.807v4.63h1.124v-4.63h.692v4.63h1.114v-4.63h.797v5.284h-4.515zm7.938.077c-.423 0-.788-.081-1.095-.241a1.74 1.74 0 01-.721-.691 2.256 2.256 0 01-.25-1.086v-1.402c0-.423.084-.785.25-1.086.173-.301.413-.532.721-.692.307-.16.672-.24 1.095-.24.423 0 .788.08 1.095.24.307.16.544.391.711.692.173.301.259.66.259 1.076v1.412c0 .416-.086.778-.259 1.086a1.686 1.686 0 01-.711.691c-.307.16-.672.241-1.095.241zm0-.769c.378 0 .672-.106.884-.317.211-.211.317-.522.317-.932v-1.402c0-.41-.106-.721-.317-.932-.212-.212-.506-.317-.884-.317-.372 0-.666.105-.884.317-.211.211-.317.522-.317.932v1.402c0 .41.106.721.317.932.218.211.512.317.884.317zm3.538.692v-5.284h1.172l.691 2.027c.071.205.135.41.192.615.058.198.1.352.125.461.026-.109.064-.263.116-.461.057-.205.118-.413.182-.625l.653-2.017h1.172v5.284h-.835v-.817c0-.288.003-.602.009-.941l.019-1.028.039-.98c.013-.314.022-.589.029-.826l-.942 3.007h-.912l-.952-2.988c.013.288.023.647.029 1.076.013.429.023.877.029 1.345.013.467.019.912.019 1.335v.817h-.835zm-130.69 19v-5.284h.865v2.2h2.229v-2.2h.864v5.284h-.864v-2.296h-2.229v2.296h-.865zm7.208.096c-.557 0-.996-.141-1.316-.423-.32-.288-.48-.676-.48-1.162 0-.493.16-.881.48-1.163.32-.282.752-.422 1.297-.422h1.633v-.529c0-.326-.1-.576-.298-.749-.192-.179-.468-.269-.826-.269-.314 0-.576.067-.788.202a.717.717 0 00-.365.528h-.864c.057-.455.272-.817.643-1.086.372-.269.836-.403 1.393-.403.608 0 1.089.157 1.441.471.352.313.529.739.529 1.277v3.632h-.846v-1.009h-.144l.144-.144c0 .384-.15.688-.451.913-.295.224-.689.336-1.182.336zm.211-.682c.41 0 .746-.103 1.009-.308a.955.955 0 00.394-.787v-.75h-1.614c-.288 0-.516.08-.682.24-.167.16-.25.378-.25.654 0 .294.1.528.298.701.205.166.487.25.845.25zm3.96.586v-5.284h3.959v5.284h-.865v-4.496h-2.229v4.496h-.864zm5.028.067v-.807h.172c.295 0 .5-.115.615-.346.122-.23.186-.644.192-1.239l.058-2.959h3.583v5.284h-.864v-4.496h-1.864l-.048 2.209c-.013.557-.077 1.009-.192 1.355-.109.346-.282.599-.519.759-.23.16-.535.24-.913.24h-.22zm6.073-.067v-5.284h.807v1.941h.433c.57 0 1.018.15 1.345.451.333.295.5.701.5 1.22s-.167.929-.5 1.23c-.327.294-.775.442-1.345.442h-1.24zm.807-.692h.433c.34 0 .602-.086.788-.259.192-.173.288-.413.288-.721 0-.307-.096-.547-.288-.72-.186-.173-.449-.26-.788-.26h-.433v1.96zm2.902.692v-5.284h.807v5.284h-.807zm2.26 0v-5.284h2.286c.55 0 .977.125 1.278.375.3.243.451.586.451 1.028 0 .365-.125.659-.374.883-.25.218-.58.327-.99.327v-.077c.449 0 .807.112 1.076.336.276.225.413.526.413.903 0 .474-.16.846-.48 1.115-.32.262-.769.394-1.345.394h-2.315zm.845-.759h1.47c.307 0 .544-.067.71-.202.174-.134.26-.323.26-.567 0-.25-.086-.442-.26-.576-.166-.135-.403-.202-.71-.202h-1.47v1.547zm0-2.296h1.441c.27 0 .48-.064.634-.192.16-.128.24-.308.24-.538 0-.231-.077-.41-.23-.538-.154-.135-.368-.202-.644-.202h-1.44v1.47zm6.823 3.151c-.416 0-.781-.083-1.095-.25a1.81 1.81 0 01-.72-.701 2.206 2.206 0 01-.25-1.067v-1.441c0-.41.083-.765.25-1.066.173-.301.413-.535.72-.701.314-.167.679-.25 1.095-.25.417 0 .778.083 1.086.25.314.166.554.4.72.701.173.301.26.656.26 1.066v.932h-3.286v.509c0 .417.106.737.317.961.212.218.513.327.903.327.333 0 .602-.058.807-.173a.764.764 0 00.375-.538h.865a1.47 1.47 0 01-.654 1.056c-.371.257-.835.385-1.393.385zm1.22-3.103v-.356c0-.416-.105-.736-.317-.96-.205-.224-.506-.337-.903-.337-.39 0-.691.113-.903.337-.211.224-.317.544-.317.96v.279h2.508l-.068.077zm8.18 3.007v-5.284h3.959v5.284h-.865v-4.496h-2.229v4.496h-.864zm7.67.077c-.423 0-.788-.081-1.096-.241a1.741 1.741 0 01-.72-.691c-.167-.308-.25-.67-.25-1.086v-1.402c0-.423.083-.785.25-1.086a1.74 1.74 0 01.72-.692c.307-.16.673-.24 1.095-.24.423 0 .788.08 1.096.24.307.16.544.391.71.692.173.301.26.66.26 1.076v1.412c0 .416-.087.778-.26 1.086a1.681 1.681 0 01-.71.691c-.308.16-.673.241-1.096.241zm0-.769c.377 0 .672-.106.883-.317.212-.211.317-.522.317-.932v-1.402c0-.41-.105-.721-.317-.932-.211-.212-.506-.317-.884-.317-.371 0-.666.105-.884.317-.21.211-.317.522-.317.932v1.402c0 .41.106.721.317.932.218.211.513.317.884.317zm3.047.759v-.807h.173c.295 0 .5-.115.615-.346.121-.23.186-.644.192-1.239l.058-2.959h3.583v5.284h-.865v-4.496h-1.863l-.048 2.209c-.013.557-.077 1.009-.193 1.355-.108.346-.281.599-.518.759-.23.16-.535.24-.913.24h-.22zm6.391-.067v-5.284h.865v1.941h1.556c.596 0 1.063.15 1.402.451.346.295.52.701.52 1.22 0 .512-.174.919-.52 1.22-.345.301-.813.452-1.402.452h-2.421zm.865-.788h1.556c.333 0 .586-.074.759-.221.18-.154.269-.375.269-.663 0-.288-.09-.506-.27-.653-.172-.154-.425-.231-.758-.231h-1.556v1.768zm6.516.855c-.558 0-1.016-.119-1.374-.356a1.41 1.41 0 01-.634-.96h.912c.045.16.164.291.356.394.198.102.445.153.74.153h.451c.314 0 .557-.073.73-.221a.71.71 0 00.27-.576c0-.256-.087-.458-.26-.605-.167-.147-.413-.221-.74-.221h-1.162v-.749h1.133c.295 0 .519-.071.673-.212a.719.719 0 00.23-.557.724.724 0 00-.106-.403.607.607 0 00-.297-.25 1.235 1.235 0 00-.49-.087h-.48a1.23 1.23 0 00-.663.173c-.186.115-.298.256-.337.423h-.912c.064-.397.272-.724.624-.98s.781-.384 1.287-.384h.48c.379 0 .702.061.971.182.27.116.474.282.615.5.147.218.22.477.22.778 0 .314-.102.573-.307.778-.205.199-.493.311-.864.336v.039c.455.032.784.153.99.365.204.211.307.515.307.912 0 .468-.173.839-.519 1.115-.346.275-.81.413-1.393.413h-.452zm5.939.01c-.423 0-.788-.081-1.095-.241a1.742 1.742 0 01-.72-.691c-.167-.308-.25-.67-.25-1.086v-1.402c0-.423.083-.785.25-1.086.172-.301.412-.532.72-.692.307-.16.672-.24 1.095-.24.423 0 .788.08 1.095.24.308.16.544.391.711.692.173.301.259.66.259 1.076v1.412c0 .416-.086.778-.259 1.086a1.68 1.68 0 01-.711.691c-.307.16-.672.241-1.095.241zm0-.769c.378 0 .672-.106.884-.317.211-.211.317-.522.317-.932v-1.402c0-.41-.106-.721-.317-.932-.212-.212-.506-.317-.884-.317-.372 0-.666.105-.884.317-.211.211-.317.522-.317.932v1.402c0 .41.106.721.317.932.218.211.512.317.884.317zm3.711.692v-5.284h2.286c.551 0 .977.125 1.278.375.301.243.451.586.451 1.028 0 .365-.125.659-.374.883-.25.218-.58.327-.99.327v-.077c.448 0 .807.112 1.076.336.275.225.413.526.413.903 0 .474-.16.846-.48 1.115-.32.262-.769.394-1.345.394h-2.315zm.845-.759h1.47c.307 0 .544-.067.711-.202.173-.134.259-.323.259-.567 0-.25-.086-.442-.259-.576-.167-.135-.404-.202-.711-.202h-1.47v1.547zm0-2.296h1.441c.269 0 .48-.064.634-.192.16-.128.24-.308.24-.538 0-.231-.077-.41-.23-.538-.154-.135-.369-.202-.644-.202h-1.441v1.47zm6.362 3.151c-.557 0-.996-.141-1.316-.423-.32-.288-.48-.676-.48-1.162 0-.493.16-.881.48-1.163.32-.282.753-.422 1.297-.422h1.633v-.529c0-.326-.099-.576-.298-.749-.192-.179-.467-.269-.826-.269-.314 0-.576.067-.788.202a.718.718 0 00-.365.528h-.864c.057-.455.272-.817.643-1.086.372-.269.836-.403 1.393-.403.609 0 1.089.157 1.441.471.353.313.529.739.529 1.277v3.632h-.846v-1.009h-.144l.144-.144c0 .384-.15.688-.451.913-.295.224-.689.336-1.182.336zm.211-.682c.41 0 .747-.103 1.009-.308a.954.954 0 00.394-.787v-.75h-1.614c-.288 0-.515.08-.682.24-.166.16-.25.378-.25.654 0 .294.1.528.298.701.205.166.487.25.845.25zm5.508.586v-4.525h-1.922v-.759h4.708v.759h-1.922v4.525h-.864zm6.122.096c-.417 0-.782-.083-1.096-.25a1.812 1.812 0 01-.72-.701 2.201 2.201 0 01-.25-1.067v-1.441c0-.41.083-.765.25-1.066.173-.301.413-.535.72-.701.314-.167.679-.25 1.096-.25.416 0 .778.083 1.085.25.314.166.554.4.721.701.173.301.259.656.259 1.066v.932h-3.286v.509c0 .417.106.737.318.961.211.218.512.327.903.327.333 0 .602-.058.807-.173a.766.766 0 00.374-.538h.865a1.473 1.473 0 01-.653 1.056c-.372.257-.836.385-1.393.385zm1.22-3.103v-.356c0-.416-.106-.736-.317-.96-.205-.224-.506-.337-.903-.337-.391 0-.692.113-.903.337-.212.224-.318.544-.318.96v.279h2.508l-.067.077zm1.827 3.074v-.807h.173c.295 0 .5-.115.615-.346.122-.23.186-.644.192-1.239l.058-2.959h3.583v5.284h-.864v-4.496h-1.864l-.048 2.209c-.013.557-.077 1.009-.192 1.355-.109.346-.282.599-.519.759-.231.16-.535.24-.913.24h-.221zm8.332.029c-.416 0-.782-.083-1.095-.25a1.808 1.808 0 01-.721-.701 2.213 2.213 0 01-.25-1.067v-1.441c0-.41.084-.765.25-1.066.173-.301.413-.535.721-.701.313-.167.679-.25 1.095-.25.416 0 .778.083 1.085.25.314.166.554.4.721.701.173.301.259.656.259 1.066v.932h-3.285v.509c0 .417.105.737.317.961.211.218.512.327.903.327.333 0 .602-.058.807-.173a.76.76 0 00.374-.538h.865a1.47 1.47 0 01-.653 1.056c-.372.257-.836.385-1.393.385zm1.22-3.103v-.356c0-.416-.106-.736-.317-.96-.205-.224-.506-.337-.903-.337-.391 0-.692.113-.903.337-.212.224-.317.544-.317.96v.279h2.507l-.067.077zm2.491 3.007v-5.284h.826v2.882c0 .186-.007.381-.02.586-.006.205-.019.4-.038.586a6.326 6.326 0 01-.048.461l2.133-4.515h1.104v5.284h-.826v-2.882c0-.186.004-.381.01-.586.013-.205.029-.401.048-.586l.048-.471-2.133 4.525h-1.104zm2.017-6.149c-.461 0-.833-.128-1.114-.384-.282-.256-.423-.592-.423-1.009h.682c0 .25.077.452.23.606.154.153.359.23.615.23.263 0 .471-.077.625-.23a.803.803 0 00.24-.606h.682c0 .417-.141.753-.423 1.009-.281.256-.653.384-1.114.384zm5.651 6.245c-.243 0-.439-.071-.586-.212-.141-.14-.211-.329-.211-.566 0-.25.07-.449.211-.596.147-.147.343-.221.586-.221.244 0 .436.074.577.221.147.147.221.346.221.596 0 .237-.074.426-.221.566-.141.141-.333.212-.577.212z" fill="#fff"/><path d="M15.883 23.528V17.63h-1.835v-1.115h4.88v1.115h-1.834v5.898h-1.21zm6.305.096c-.449 0-.84-.086-1.172-.259a1.923 1.923 0 01-.778-.72 2.168 2.168 0 01-.27-1.096v-1.325c0-.417.09-.779.27-1.086.185-.314.445-.557.778-.73.333-.173.723-.26 1.172-.26.442 0 .826.087 1.152.26.334.173.59.416.77.73.185.307.278.67.278 1.086v.95H21.13v.375c0 .372.09.654.269.846.18.186.445.278.797.278.27 0 .487-.044.654-.134a.641.641 0 00.317-.413h1.181c-.09.454-.333.82-.73 1.095-.39.269-.868.403-1.431.403zm1.037-3.122v-.288c0-.365-.086-.644-.26-.836-.172-.198-.431-.298-.777-.298-.346 0-.609.1-.788.298-.18.199-.269.48-.269.846v.201l2.18-.019-.086.096zm2.107 3.026l1.844-2.728-1.72-2.555h1.355l.817 1.296c.05.077.096.164.134.26l.106.23a7.646 7.646 0 01.24-.49l.826-1.296h1.355l-1.72 2.555 1.835 2.728H29.04l-.913-1.45a2.638 2.638 0 01-.144-.27 3.841 3.841 0 00-.115-.23c-.026.058-.061.135-.106.23a2.657 2.657 0 01-.144.27l-.932 1.45h-1.354zm6.093 0v-5.283h1.2v2.046h1.864v-2.046h1.201v5.283h-1.2v-2.123h-1.864v2.123h-1.201zm5.69 0v-5.283H38.2v2.603c0 .167-.01.365-.029.596a13.805 13.805 0 01-.135 1.23l1.864-4.43h1.48v5.284h-1.086v-2.603c0-.173.007-.365.02-.576l.057-.625c.026-.205.051-.378.077-.519l-1.854 4.323h-1.48zm8.706 0v-1.777c-.084.02-.218.042-.404.067-.18.02-.378.03-.596.03-.678 0-1.21-.167-1.594-.5-.384-.34-.577-.81-.577-1.413v-1.69h1.201v1.633c0 .275.096.493.288.653.192.154.455.23.788.23.218 0 .407-.009.567-.028.16-.026.269-.048.327-.067v-2.421h1.21v5.283h-1.21zm4.815.096c-.448 0-.839-.086-1.172-.259a1.923 1.923 0 01-.778-.72 2.17 2.17 0 01-.27-1.096v-1.325c0-.417.09-.779.27-1.086.186-.314.445-.557.778-.73.333-.173.724-.26 1.172-.26.442 0 .826.087 1.153.26.333.173.589.416.768.73.186.307.279.67.279 1.086v.95h-3.257v.375c0 .372.09.654.27.846.179.186.444.278.797.278.269 0 .486-.044.653-.134a.641.641 0 00.317-.413h1.181a1.69 1.69 0 01-.73 1.095c-.39.269-.867.403-1.431.403zm1.037-3.122v-.288c0-.365-.086-.644-.259-.836-.173-.198-.432-.298-.778-.298-.346 0-.608.1-.788.298-.18.199-.269.48-.269.846v.201l2.181-.019-.087.096zm4.662 3.122c-.448 0-.842-.083-1.181-.25a1.923 1.923 0 01-.779-.72c-.185-.314-.278-.682-.278-1.105v-1.325c0-.43.093-.798.279-1.105.185-.308.445-.545.778-.711.34-.173.733-.26 1.181-.26.666 0 1.198.174 1.595.52.397.339.605.803.624 1.392h-1.2c-.02-.275-.119-.486-.298-.634-.173-.153-.413-.23-.72-.23-.321 0-.574.09-.76.269-.185.173-.278.422-.278.749v1.335c0 .327.093.58.278.76.186.179.439.268.76.268.307 0 .547-.073.72-.22.18-.154.278-.369.298-.644h1.2c-.019.589-.227 1.056-.624 1.402-.397.34-.929.51-1.595.51zm3.567-.096v-5.283h1.2v2.075h.788l1.288-2.075h1.345L62.928 20.8l1.624 2.728h-1.374l-1.288-2.19h-.787v2.19h-1.201zm7.207.096c-.544 0-.973-.144-1.287-.432-.314-.288-.47-.676-.47-1.162 0-.52.172-.92.518-1.201.346-.282.836-.423 1.47-.423h1.316v-.451c0-.257-.083-.455-.25-.596-.166-.147-.394-.221-.682-.221-.262 0-.48.058-.653.173a.675.675 0 00-.308.47h-1.172c.058-.499.282-.896.673-1.19.39-.295.89-.443 1.499-.443.646 0 1.156.164 1.527.49.378.32.567.756.567 1.307v3.583h-1.162v-.922h-.193l.193-.26c0 .391-.145.702-.433.933-.288.23-.672.345-1.153.345zm.394-.903c.34 0 .615-.086.826-.259a.82.82 0 00.327-.672v-.644h-1.297c-.243 0-.439.07-.586.211a.736.736 0 00-.22.557c0 .25.082.449.249.596.173.14.407.211.701.211zm3.519.807l1.239-1.93a1.65 1.65 0 01-.855-.587 1.611 1.611 0 01-.307-.99c0-.556.185-.992.557-1.306.371-.314.884-.47 1.537-.47h2.325v5.283h-1.192v-1.796h-.854l-1.076 1.796h-1.374zm2.219-2.757h1.085v-1.537h-1.085c-.295 0-.525.067-.692.202-.166.134-.25.326-.25.576 0 .237.084.423.25.557.167.135.397.202.692.202zm9.381 4.486v-7.012h1.172v1.008h.269l-.269.279c0-.43.128-.765.384-1.009.257-.25.602-.375 1.038-.375.531 0 .957.183 1.278.548.32.365.48.855.48 1.47v1.431c0 .41-.074.769-.221 1.076a1.631 1.631 0 01-.605.702c-.263.166-.573.25-.932.25-.436 0-.781-.122-1.038-.366-.256-.25-.384-.589-.384-1.018l.269.279h-.279l.039 1.258v1.48h-1.201zm2.171-2.67c.308 0 .548-.09.72-.27.174-.178.26-.435.26-.768v-1.325c0-.333-.086-.59-.26-.769-.172-.18-.412-.269-.72-.269-.3 0-.538.093-.71.279-.174.179-.26.432-.26.759v1.325c0 .327.086.583.26.769.172.18.41.269.71.269zm5.67 1.037c-.448 0-.838-.086-1.171-.259a1.923 1.923 0 01-.779-.72 2.17 2.17 0 01-.269-1.096v-1.325c0-.417.09-.779.27-1.086.185-.314.445-.557.778-.73.333-.173.723-.26 1.172-.26.442 0 .826.087 1.152.26.333.173.59.416.769.73.186.307.278.67.278 1.086v.95h-3.256v.375c0 .372.09.654.269.846.18.186.445.278.797.278.27 0 .487-.044.653-.134a.641.641 0 00.317-.413h1.182c-.09.454-.333.82-.73 1.095-.39.269-.868.403-1.431.403zm1.038-3.122v-.288c0-.365-.086-.644-.26-.836-.172-.198-.432-.298-.777-.298-.346 0-.609.1-.788.298-.18.199-.27.48-.27.846v.201l2.182-.019-.087.096zm4.057 3.122c-.545 0-.974-.144-1.288-.432-.313-.288-.47-.676-.47-1.162 0-.52.172-.92.518-1.201.346-.282.836-.423 1.47-.423h1.316v-.451c0-.257-.083-.455-.25-.596-.166-.147-.393-.221-.681-.221-.263 0-.48.058-.654.173a.675.675 0 00-.307.47H94.04c.057-.499.282-.896.672-1.19.39-.295.89-.443 1.499-.443.647 0 1.156.164 1.527.49.378.32.567.756.567 1.307v3.583h-1.162v-.922h-.192l.192-.26c0 .391-.144.702-.433.933-.288.23-.672.345-1.152.345zm.393-.903c.34 0 .615-.086.827-.259a.82.82 0 00.326-.672v-.644h-1.297c-.243 0-.438.07-.586.211a.736.736 0 00-.22.557c0 .25.083.449.25.596.172.14.406.211.7.211zm3.221.875V22.5h.24a.54.54 0 00.49-.259c.116-.18.176-.461.183-.845l.057-3.151h3.824v5.283h-1.201V19.36h-1.441l-.038 2.104c-.013.461-.09.852-.231 1.172a1.609 1.609 0 01-.605.72c-.263.16-.583.24-.96.24h-.318zm6.218-.068v-5.283h1.086v2.603c0 .167-.01.365-.029.596a12.385 12.385 0 01-.135 1.23l1.864-4.43h1.48v5.284h-1.086v-2.603c0-.173.006-.365.019-.576l.058-.625c.026-.205.051-.378.077-.519l-1.854 4.323h-1.48zm7.563.068c-.576 0-1.053-.132-1.431-.394a1.62 1.62 0 01-.682-1.096h1.201a.642.642 0 00.307.375c.167.09.368.135.605.135h.509c.25 0 .445-.058.586-.173a.59.59 0 00.221-.48.586.586 0 00-.211-.48c-.141-.116-.339-.174-.596-.174h-1.21v-.96h1.162c.237 0 .42-.055.548-.164a.55.55 0 00.192-.442.526.526 0 00-.336-.519 1.067 1.067 0 00-.404-.067h-.451c-.224 0-.416.048-.577.144a.617.617 0 00-.288.385h-1.201a1.66 1.66 0 01.673-1.096c.371-.275.836-.413 1.393-.413h.451c.404 0 .75.061 1.038.183a1.5 1.5 0 01.682.5c.16.21.24.467.24.768 0 .333-.122.605-.365.817-.243.21-.567.323-.97.336v-.039c.461.013.82.135 1.076.365.256.225.384.535.384.932 0 .474-.186.852-.557 1.134-.365.282-.858.423-1.48.423h-.509zm5.363.028c-.544 0-.973-.144-1.287-.432-.314-.288-.471-.676-.471-1.162 0-.52.173-.92.519-1.201.346-.282.836-.423 1.47-.423h1.316v-.451c0-.257-.083-.455-.25-.596-.166-.147-.394-.221-.682-.221-.263 0-.48.058-.653.173a.675.675 0 00-.308.47h-1.172c.058-.499.282-.896.673-1.19.391-.295.89-.443 1.499-.443.646 0 1.156.164 1.527.49.378.32.567.756.567 1.307v3.583h-1.163v-.922h-.192l.192-.26c0 .391-.144.702-.432.933-.288.23-.672.345-1.153.345zm.394-.903c.34 0 .615-.086.826-.259a.819.819 0 00.327-.672v-.644h-1.297c-.243 0-.439.07-.586.211a.737.737 0 00-.221.557c0 .25.083.449.25.596.173.14.407.211.701.211zm7.4 2.152v-1.345h-3.651v-5.283h1.201v4.178h1.633v-4.178h1.201v4.178h.721v2.45h-1.105zm2.039-1.345v-5.283h1.085v2.603c0 .167-.009.365-.028.596a13.964 13.964 0 01-.135 1.23l1.864-4.43h1.479v5.284h-1.085v-2.603c0-.173.006-.365.019-.576l.058-.625c.025-.205.051-.378.076-.519l-1.854 4.323h-1.479zm5.459 0l1.239-1.93a1.65 1.65 0 01-.855-.587 1.61 1.61 0 01-.307-.99c0-.556.186-.992.557-1.306.371-.314.884-.47 1.537-.47h2.325v5.283h-1.191v-1.796h-.855l-1.076 1.796h-1.374zm2.219-2.757h1.086v-1.537h-1.086c-.294 0-.525.067-.692.202-.166.134-.249.326-.249.576 0 .237.083.423.249.557.167.135.398.202.692.202zm5.834-1.009c-.269 0-.487-.073-.653-.22a.775.775 0 01-.241-.587c0-.243.08-.438.241-.585.166-.148.384-.222.653-.222s.483.074.644.221a.745.745 0 01.249.587.764.764 0 01-.249.585c-.161.148-.375.221-.644.221zm0 3.862c-.269 0-.487-.073-.653-.22a.756.756 0 01-.241-.587c0-.243.08-.438.241-.586.166-.147.384-.22.653-.22s.483.073.644.22a.745.745 0 01.249.586.745.745 0 01-.249.586c-.161.148-.375.221-.644.221z" fill="#000"/><defs><filter id="filter0_d_441_1689" x=".157" y="0" width="179.685" height="192.685" filterUnits="userSpaceOnUse" color-interpolation-filters="sRGB"><feFlood flood-opacity="0" result="BackgroundImageFix"/><feColorMatrix in="SourceAlpha" values="0 0 0 0 0 0 0 0 0 0 0 0 0 0 0 0 0 0 127 0" result="hardAlpha"/><feOffset dy="3.843"/><feGaussianBlur stdDeviation="1.921"/><feComposite in2="hardAlpha" operator="out"/><feColorMatrix values="0 0 0 0 0 0 0 0 0 0 0 0 0 0 0 0 0 0 0.25 0"/><feBlend in2="BackgroundImageFix" result="effect1_dropShadow_441_1689"/><feBlend in="SourceGraphic" in2="effect1_dropShadow_441_1689" result="shape"/></filter></defs></svg>