<svg width="180" height="193" fill="none" xmlns="http://www.w3.org/2000/svg"><g filter="url(#filter0_d_441_1724)"><rect x="4" width="172" height="185" rx="16.011" fill="#6E6DC0"/></g><mask id="a" style="mask-type:alpha" maskUnits="userSpaceOnUse" x="3" y="0" width="173" height="43"><path fill="#C9D9CD" d="M3.646 0h171.961v42.27H3.646z"/></mask><g mask="url(#a)"><rect x="3.646" y="-1.69" width="171.961" height="118.355" rx="16.011" fill="#E0F4FF"/></g><path d="M18.73 57.646a1.12 1.12 0 01-.826-.326 1.12 1.12 0 01-.326-.827c0-.339.109-.614.326-.826a1.12 1.12 0 01.827-.326c.339 0 .614.109.826.326.218.212.326.487.326.826 0 .334-.108.609-.326.827-.212.218-.487.326-.826.326zm8.648 2.45c-.423 0-.791-.08-1.105-.24a1.744 1.744 0 01-.72-.692c-.167-.307-.25-.67-.25-1.085v-3.17c0-.423.083-.785.25-1.086a1.74 1.74 0 01.72-.692c.314-.16.682-.24 1.105-.24.423 0 .788.083 1.095.25.308.16.544.39.711.692.166.3.25.66.25 1.075h-.865c0-.397-.105-.7-.317-.912-.205-.218-.496-.327-.874-.327s-.676.106-.893.317c-.212.212-.317.516-.317.913v3.18c0 .397.105.704.317.922.217.211.515.317.893.317s.67-.106.874-.317c.212-.218.317-.525.317-.922h.865c0 .41-.084.768-.25 1.076a1.744 1.744 0 01-.71.7c-.308.161-.673.241-1.096.241zm3.057 1.249V59.26h.433c.109-.109.22-.323.336-.643.122-.32.186-.727.192-1.22l.058-2.68h3.448v4.543h.673v2.085h-.769V60h-3.602v1.345h-.769zm1.345-2.085h2.258v-3.775H32.27l-.038 1.93c-.007.507-.061.917-.163 1.23-.103.314-.2.52-.289.615zm6.939.836c-.416 0-.782-.083-1.095-.25a1.807 1.807 0 01-.72-.701 2.204 2.204 0 01-.25-1.066v-1.441c0-.41.083-.766.25-1.067a1.8 1.8 0 01.72-.701c.313-.166.678-.25 1.095-.25.416 0 .778.084 1.085.25.314.166.554.4.72.701.174.301.26.657.26 1.067v.931H37.5v.51c0 .416.105.736.317.96.211.218.512.327.903.327.333 0 .602-.058.807-.173a.763.763 0 00.374-.538h.865a1.472 1.472 0 01-.653 1.057c-.372.256-.836.384-1.393.384zm1.22-3.103v-.355c0-.417-.106-.737-.317-.961-.205-.224-.506-.336-.903-.336-.39 0-.692.112-.903.336-.212.224-.317.544-.317.96v.28h2.507l-.067.076zm1.828 3.074v-.807h.172c.295 0 .5-.115.615-.346.122-.23.186-.643.192-1.239l.058-2.959h3.583V60h-.864v-4.496h-1.864l-.048 2.21c-.013.557-.077 1.008-.192 1.354-.109.346-.282.599-.519.76-.23.16-.535.24-.913.24h-.22zm7.87.03c-.557 0-.996-.142-1.316-.424-.32-.288-.48-.675-.48-1.162 0-.493.16-.88.48-1.163.32-.281.752-.422 1.297-.422h1.633v-.529c0-.326-.1-.576-.298-.749-.192-.18-.467-.269-.826-.269-.314 0-.577.067-.788.202a.717.717 0 00-.365.528h-.864c.057-.454.272-.816.643-1.085.372-.27.836-.404 1.393-.404.609 0 1.089.157 1.441.471.352.314.528.74.528 1.278V60h-.845v-1.009h-.144l.144-.144c0 .384-.15.689-.451.913-.295.224-.689.336-1.182.336zm.211-.683c.41 0 .746-.102 1.009-.307a.957.957 0 00.394-.788v-.75h-1.614c-.288 0-.516.08-.682.24-.167.16-.25.379-.25.654 0 .294.1.528.298.701.205.167.487.25.845.25zm3.298.653v-.807h.173c.294 0 .5-.115.615-.346.121-.23.185-.643.192-1.239l.057-2.959h3.584V60h-.865v-4.496h-1.864l-.048 2.21c-.012.557-.077 1.008-.192 1.354-.109.346-.282.599-.519.76-.23.16-.534.24-.912.24h-.221zM59.498 60v-5.284h.827v2.882c0 .186-.007.381-.02.586-.006.205-.019.4-.038.586-.013.18-.029.333-.048.461l2.133-4.515h1.104V60h-.826v-2.882c0-.186.003-.381.01-.586.013-.205.029-.4.048-.586l.048-.47L60.603 60h-1.105zm11.38 0v-5.284h3.958V60h-.865v-4.496h-2.229V60h-.864zm5.67 1.73v-7.014h.865v1.009h.173l-.173.202c0-.404.131-.72.394-.951.269-.237.62-.356 1.056-.356.532 0 .955.176 1.269.529.32.345.48.823.48 1.431v1.547c0 .403-.074.752-.221 1.047a1.57 1.57 0 01-.605.682c-.257.16-.564.24-.923.24-.429 0-.778-.118-1.047-.355-.269-.237-.403-.554-.403-.951l.173.201h-.192l.019 1.201v1.537h-.865zm2.027-2.383c.365 0 .65-.11.855-.327.211-.218.317-.532.317-.941v-1.441c0-.41-.106-.724-.317-.942-.205-.218-.49-.326-.855-.326-.352 0-.634.112-.845.336-.212.224-.317.535-.317.932v1.44c0 .398.105.708.317.932.211.225.493.337.845.337zm5.661.73c-.423 0-.788-.08-1.095-.24a1.743 1.743 0 01-.72-.692c-.167-.307-.25-.67-.25-1.086v-1.402c0-.423.083-.785.25-1.086.172-.3.412-.531.72-.691.307-.16.672-.24 1.095-.24.423 0 .788.08 1.095.24.308.16.545.39.711.691.173.301.26.66.26 1.076v1.412c0 .417-.087.779-.26 1.086a1.683 1.683 0 01-.71.692c-.308.16-.673.24-1.096.24zm0-.769c.378 0 .672-.105.884-.317.211-.211.317-.522.317-.932v-1.402c0-.41-.106-.72-.317-.932-.212-.211-.506-.317-.884-.317-.371 0-.666.106-.884.317-.211.211-.317.522-.317.932v1.402c0 .41.106.72.317.932.218.212.513.317.884.317zm7.467 2.037V60h-3.756v-5.284h.864v4.515h2.075v-4.515h.865v4.515h.72v2.114h-.768zm3.912-1.249c-.416 0-.781-.083-1.095-.25a1.807 1.807 0 01-.72-.701 2.203 2.203 0 01-.25-1.066v-1.441c0-.41.083-.766.25-1.067.173-.3.413-.535.72-.701a2.31 2.31 0 011.095-.25c.417 0 .779.084 1.086.25.314.166.554.4.72.701.173.301.26.657.26 1.067v.931h-3.286v.51c0 .416.106.736.317.96.212.218.513.327.903.327.333 0 .602-.058.807-.173a.764.764 0 00.375-.538h.865a1.472 1.472 0 01-.654 1.057c-.371.256-.835.384-1.393.384zm1.22-3.103v-.355c0-.417-.105-.737-.317-.961-.205-.224-.506-.336-.903-.336-.39 0-.691.112-.903.336-.211.224-.317.544-.317.96v.28h2.508l-.068.076zm4.489 3.103a2.46 2.46 0 01-1.114-.24 1.73 1.73 0 01-.73-.692c-.173-.307-.26-.67-.26-1.085v-1.441c0-.423.087-.785.26-1.086a1.73 1.73 0 01.73-.692c.32-.16.692-.24 1.114-.24.609 0 1.099.163 1.47.49.371.327.567.772.586 1.336h-.865c-.019-.34-.134-.6-.345-.779-.205-.185-.487-.278-.846-.278-.378 0-.679.109-.903.326-.224.212-.336.516-.336.913v1.45c0 .398.112.705.336.923.224.218.525.327.903.327.359 0 .641-.093.846-.28.211-.185.326-.444.345-.777h.865c-.019.563-.215 1.008-.586 1.335-.371.327-.861.49-1.47.49zm5.69 0c-.423 0-.794-.08-1.115-.24a1.735 1.735 0 01-.73-.692c-.173-.307-.259-.67-.259-1.085v-1.441c0-.423.086-.785.259-1.086.173-.3.417-.532.73-.692.321-.16.692-.24 1.115-.24.608 0 1.098.163 1.47.49.371.327.566.772.586 1.336h-.865c-.019-.34-.134-.6-.346-.779-.205-.185-.486-.278-.845-.278-.378 0-.679.109-.903.326-.224.212-.336.516-.336.913v1.45c0 .398.112.705.336.923.224.218.525.327.903.327.359 0 .64-.093.845-.28.212-.185.327-.444.346-.777h.865c-.02.563-.215 1.008-.586 1.335-.372.327-.862.49-1.47.49zm9.381-.096v-5.284h3.958V60h-.865v-4.496h-2.228V60h-.865zm5.67 1.73v-7.014h.865v1.009h.173l-.173.202c0-.404.131-.72.394-.951.269-.237.621-.356 1.057-.356.531 0 .954.176 1.268.529.32.345.48.823.48 1.431v1.547c0 .403-.074.752-.221 1.047a1.575 1.575 0 01-.605.682c-.256.16-.564.24-.922.24-.429 0-.779-.118-1.048-.355-.268-.237-.403-.554-.403-.951l.173.201h-.192l.019 1.201v1.537h-.865zm2.027-2.383c.365 0 .65-.11.855-.327.212-.218.317-.532.317-.941v-1.441c0-.41-.105-.724-.317-.942-.205-.218-.49-.326-.855-.326-.352 0-.634.112-.845.336-.211.224-.317.535-.317.932v1.44c0 .398.106.708.317.932.211.225.493.337.845.337zm5.661.73c-.422 0-.787-.08-1.095-.24a1.745 1.745 0 01-.72-.692c-.167-.307-.25-.67-.25-1.086v-1.402c0-.423.083-.785.25-1.086.173-.3.413-.531.72-.691.308-.16.673-.24 1.095-.24.423 0 .788.08 1.095.24.308.16.545.39.711.691.173.301.26.66.26 1.076v1.412c0 .417-.087.779-.26 1.086a1.677 1.677 0 01-.711.692c-.307.16-.672.24-1.095.24zm0-.769c.378 0 .673-.105.884-.317.211-.211.317-.522.317-.932v-1.402c0-.41-.106-.72-.317-.932-.211-.211-.506-.317-.884-.317-.371 0-.666.106-.884.317-.211.211-.317.522-.317.932v1.402c0 .41.106.72.317.932.218.212.513.317.884.317zm3.711.692v-5.284h2.286c.551 0 .977.125 1.278.375.301.243.452.586.452 1.028 0 .365-.125.66-.375.884-.25.217-.58.326-.99.326v-.077c.449 0 .807.113 1.076.337.276.224.413.525.413.903 0 .474-.16.845-.48 1.114-.32.263-.768.394-1.345.394h-2.315zm.845-.759h1.47c.308 0 .545-.067.711-.202.173-.134.259-.323.259-.567 0-.25-.086-.441-.259-.576-.166-.134-.403-.202-.711-.202h-1.47v1.547zm0-2.296h1.441c.269 0 .481-.064.634-.192a.651.651 0 00.241-.538c0-.23-.077-.41-.231-.538-.154-.135-.368-.202-.644-.202h-1.441v1.47zm6.824 3.151c-.417 0-.782-.083-1.096-.25a1.81 1.81 0 01-.72-.701 2.199 2.199 0 01-.25-1.066v-1.441c0-.41.083-.766.25-1.067a1.81 1.81 0 01.72-.701 2.31 2.31 0 011.096-.25c.416 0 .778.084 1.085.25.314.166.554.4.721.701.173.301.259.657.259 1.067v.931h-3.285v.51c0 .416.105.736.317.96.211.218.512.327.903.327.333 0 .602-.058.807-.173a.766.766 0 00.374-.538h.865a1.475 1.475 0 01-.653 1.057c-.372.256-.836.384-1.393.384zm1.22-3.103v-.355c0-.417-.106-.737-.317-.961-.205-.224-.506-.336-.903-.336-.391 0-.692.112-.903.336-.212.224-.317.544-.317.96v.28h2.507l-.067.076zm2.471 4.736v-7.013h.865v1.009h.173l-.173.202c0-.404.131-.72.394-.951.268-.237.621-.356 1.056-.356.532 0 .955.176 1.268.529.321.345.481.823.481 1.431v1.547c0 .403-.074.752-.221 1.047a1.57 1.57 0 01-.606.682c-.256.16-.563.24-.922.24-.429 0-.778-.118-1.047-.355-.269-.237-.403-.554-.403-.951l.173.201h-.193l.02 1.201v1.537h-.865zm2.027-2.382c.365 0 .65-.11.855-.327.211-.218.317-.532.317-.941v-1.441c0-.41-.106-.724-.317-.942-.205-.218-.49-.326-.855-.326-.352 0-.634.112-.845.336-.212.224-.317.535-.317.932v1.44c0 .398.105.708.317.932.211.225.493.337.845.337zm3.711.653v-5.284h.864v2.181h.903l1.537-2.18h.99l-1.777 2.516L154.885 60h-1.009l-1.537-2.354h-.913V60h-.864zm5.661 0v-5.284h.826v2.882c0 .186-.007.381-.019.586-.007.205-.02.4-.039.586-.013.18-.029.333-.048.461l2.133-4.515h1.105V60h-.827v-2.882c0-.186.004-.381.01-.586.013-.205.029-.4.048-.586l.048-.47L157.327 60h-1.104zM25.36 79v-5.284h.865v2.2h2.229v-2.2h.864V79h-.864v-2.296h-2.229V79h-.865zm7.67.096c-.417 0-.782-.083-1.096-.25a1.807 1.807 0 01-.72-.701 2.203 2.203 0 01-.25-1.066v-1.441c0-.41.083-.766.25-1.067.172-.3.413-.534.72-.701a2.31 2.31 0 011.095-.25c.416 0 .778.084 1.086.25.313.166.554.4.72.701.173.301.26.657.26 1.067v.931h-3.286v.51c0 .416.106.736.317.96.211.218.513.327.903.327.333 0 .602-.058.807-.173a.764.764 0 00.375-.538h.864a1.472 1.472 0 01-.653 1.057c-.371.256-.836.384-1.393.384zm1.22-3.103v-.355c0-.417-.106-.737-.318-.961-.205-.224-.506-.336-.903-.336-.39 0-.692.112-.903.336-.211.224-.317.544-.317.96v.28h2.507l-.067.076zm4.219 3.074c-.557 0-1.015-.118-1.374-.355a1.412 1.412 0 01-.634-.96h.913c.045.16.163.29.355.393.199.103.445.154.74.154h.451c.314 0 .558-.074.73-.221a.71.71 0 00.27-.577c0-.256-.087-.458-.26-.605-.166-.147-.413-.22-.74-.22h-1.162v-.75h1.134c.294 0 .518-.07.672-.212a.72.72 0 00.23-.557.728.728 0 00-.105-.403.611.611 0 00-.298-.25 1.243 1.243 0 00-.49-.086h-.48c-.256 0-.477.057-.663.172-.186.116-.298.257-.336.423h-.913c.064-.397.272-.724.625-.98.352-.256.781-.384 1.287-.384h.48c.378 0 .702.06.97.183.27.115.474.281.615.5.148.217.221.476.221.777 0 .314-.102.574-.307.778-.205.199-.493.311-.865.337v.038c.455.032.785.154.99.365.205.212.307.516.307.913 0 .467-.173.839-.519 1.114-.345.276-.81.413-1.393.413h-.451zm5.478.03c-.557 0-.996-.142-1.316-.424-.32-.288-.48-.675-.48-1.162 0-.493.16-.88.48-1.162.32-.282.753-.423 1.297-.423h1.633v-.529c0-.326-.099-.576-.298-.749-.192-.18-.467-.269-.826-.269-.314 0-.576.067-.787.202a.718.718 0 00-.365.528h-.865c.057-.454.272-.816.643-1.085.372-.27.836-.404 1.393-.404.609 0 1.09.157 1.441.471.353.314.529.74.529 1.278V79h-.846v-1.009h-.144l.145-.144c0 .385-.151.689-.452.913-.295.224-.688.336-1.182.336zm.212-.683c.41 0 .746-.103 1.008-.307a.956.956 0 00.394-.788v-.75h-1.614c-.288 0-.515.08-.682.24-.166.16-.25.379-.25.654 0 .294.1.528.298.701.205.167.487.25.846.25zm3.787.586v-5.284h1.172l.692 2.027c.07.205.134.41.192.615.058.199.1.352.125.461.026-.109.064-.262.115-.46.058-.206.119-.414.183-.625l.653-2.018h1.172V79h-.836v-.817c0-.288.003-.602.01-.941l.019-1.028.038-.98c.013-.314.023-.59.03-.826l-.942 3.007h-.913l-.95-2.988c.012.288.021.647.028 1.076.013.43.022.878.029 1.345.013.468.019.913.019 1.335V79h-.836zm7.842.096c-.416 0-.782-.083-1.095-.25a1.807 1.807 0 01-.72-.701 2.204 2.204 0 01-.25-1.066v-1.441c0-.41.083-.766.25-1.067.172-.3.412-.534.72-.701.313-.166.678-.25 1.095-.25.416 0 .778.084 1.085.25.314.166.554.4.72.701.174.301.26.657.26 1.067v.931h-3.285v.51c0 .416.105.736.317.96.211.218.512.327.903.327.333 0 .602-.058.807-.173a.763.763 0 00.374-.538h.865a1.472 1.472 0 01-.653 1.057c-.372.256-.836.384-1.393.384zm1.22-3.103v-.355c0-.417-.106-.737-.317-.961-.205-.224-.506-.336-.903-.336-.39 0-.692.112-.903.336-.212.224-.317.544-.317.96v.28h2.507l-.067.076zM61.045 79v-4.525h-1.921v-.759h4.707v.76H61.91V79h-.865zm4.143 0v-5.284h.865v2.2h2.228v-2.2h.865V79h-.865v-2.296h-2.228V79h-.865zm5.411 0v-5.284h.807v1.94h.432c.57 0 1.019.151 1.345.452.333.295.5.702.5 1.22 0 .52-.167.93-.5 1.23-.326.295-.775.442-1.345.442H70.6zm.807-.692h.432c.34 0 .602-.086.788-.26.192-.172.288-.412.288-.72 0-.307-.096-.547-.288-.72-.186-.173-.448-.26-.788-.26h-.432v1.96zm2.901.692v-5.284h.807V79h-.807zm2.087 0v-5.284h1.172l.692 2.027c.07.205.135.41.192.615.058.199.1.352.125.461.026-.109.064-.262.115-.46.058-.206.119-.414.183-.625l.653-2.018h1.172V79h-.835v-.817c0-.288.003-.602.01-.941l.018-1.028.039-.98c.012-.314.022-.59.029-.826l-.942 3.007h-.912l-.952-2.988c.013.288.023.647.03 1.076.012.43.022.878.028 1.345.013.468.02.913.02 1.335V79h-.837zm11.553 0v-5.284h.826v2.882c0 .186-.007.381-.02.586-.006.205-.019.4-.038.586a6.1 6.1 0 01-.048.462l2.133-4.516h1.105V79h-.826v-2.882c0-.186.003-.381.01-.586.012-.205.028-.4.047-.586l.048-.47L89.052 79h-1.105zm12.186 1.73l.778-2.057-1.96-4.957h.961l1.23 3.267c.045.108.086.24.125.393l.096.375c.025-.102.057-.227.096-.375.038-.153.077-.285.115-.393l1.153-3.267h.932l-2.604 7.013h-.922zm4.268-.385V78.26h.432c.109-.109.221-.323.336-.643.122-.32.186-.727.192-1.22l.058-2.68h3.449v4.543h.672v2.085h-.768V79h-3.603v1.345h-.768zm1.345-2.085h2.257v-3.775h-1.767l-.039 1.93c-.006.507-.061.917-.163 1.23-.103.314-.199.52-.288.615zm6.938.817c-.422 0-.787-.08-1.095-.24a1.745 1.745 0 01-.72-.692c-.167-.307-.25-.67-.25-1.086v-1.402c0-.423.083-.785.25-1.086.173-.3.413-.531.72-.691.308-.16.673-.24 1.095-.24.423 0 .788.08 1.095.24.308.16.545.39.711.691.173.301.26.66.26 1.076v1.412c0 .417-.087.779-.26 1.086a1.677 1.677 0 01-.711.692c-.307.16-.672.24-1.095.24zm0-.769c.378 0 .673-.105.884-.317.211-.211.317-.522.317-.932v-1.402c0-.41-.106-.72-.317-.932-.211-.211-.506-.317-.884-.317-.371 0-.666.106-.884.317-.211.211-.317.522-.317.932v1.402c0 .41.106.72.317.932.218.212.513.317.884.317zm5.69.788c-.621 0-1.114-.183-1.479-.547-.359-.372-.538-.878-.538-1.518v-2.402c0-.846.211-1.496.634-1.95.422-.461 1.028-.692 1.815-.692h1.345v.865h-1.345c-.519 0-.912.153-1.181.46-.269.302-.404.74-.404 1.317v.624h.135l-.135.192c.007-.377.135-.672.384-.883.25-.212.59-.317 1.019-.317.557 0 .989.179 1.297.538.313.358.47.851.47 1.48v.768c0 .429-.08.797-.24 1.104-.16.308-.39.545-.691.711-.301.167-.663.25-1.086.25zm0-.769c.371 0 .656-.112.855-.336.198-.224.298-.544.298-.96v-.769c0-.416-.1-.736-.298-.96-.199-.225-.484-.337-.855-.337-.372 0-.657.112-.855.336-.199.218-.298.538-.298.961v.769c0 .416.099.736.298.96.198.224.483.337.855.337zm3.711.673v-5.284h.864v2.2h2.229v-2.2h.865V79h-.865v-2.296h-2.229V79h-.864zm5.411 0v-5.284h.807v1.94h.432c.57 0 1.018.151 1.345.452.333.295.499.702.499 1.22 0 .52-.166.93-.499 1.23-.327.295-.775.442-1.345.442h-1.239zm.807-.692h.432c.339 0 .602-.086.788-.26.192-.172.288-.412.288-.72 0-.307-.096-.547-.288-.72-.186-.173-.449-.26-.788-.26h-.432v1.96zm2.901.692v-5.284h.807V79h-.807zm2.087 0v-5.284h1.172l.692 2.027c.07.205.134.41.192.615.057.199.099.352.125.461a20.9 20.9 0 01.115-.46c.058-.206.118-.414.183-.625l.653-2.018h1.172V79h-.836v-.817c0-.288.003-.602.01-.941l.019-1.028c.013-.346.025-.672.038-.98.013-.314.023-.59.029-.826l-.941 3.007h-.913l-.951-2.988c.013.288.022.647.029 1.076.013.43.022.878.029 1.345.012.468.019.913.019 1.335V79h-.836zm10.937 1.345V78.26h.433c.109-.109.221-.323.336-.643.122-.32.186-.727.192-1.22l.058-2.68h3.449v4.543h.672v2.085h-.769V79h-3.602v1.345h-.769zm1.345-2.085h2.258v-3.775h-1.768l-.038 1.93c-.007.507-.061.917-.163 1.23-.103.314-.199.52-.289.615zm4.297.807v-.807h.173c.295 0 .499-.115.615-.346.121-.23.186-.643.192-1.239l.058-2.959h3.583V79h-.865v-4.496h-1.863l-.048 2.21c-.013.557-.077 1.008-.193 1.354-.108.346-.281.599-.518.76-.231.16-.535.24-.913.24h-.221zm6.026-.067l1.354-2.037c-.403-.096-.717-.281-.941-.557-.218-.275-.327-.618-.327-1.028 0-.519.17-.925.51-1.22.345-.294.816-.442 1.412-.442h2.277V79h-.865v-1.97h-1.162L156.905 79h-1.009zm2.008-2.738h1.412v-1.777h-1.412c-.32 0-.573.08-.759.24-.186.154-.279.372-.279.653 0 .276.093.493.279.653.186.154.439.231.759.231zM25.361 98v-5.284h3.957V98h-.864v-4.496h-2.229V98h-.865zm7.668.077c-.423 0-.788-.08-1.095-.24a1.743 1.743 0 01-.72-.692c-.167-.307-.25-.67-.25-1.086v-1.402c0-.423.083-.785.25-1.086.172-.3.413-.531.72-.691.307-.16.672-.24 1.095-.24.423 0 .788.08 1.095.24.308.16.545.39.711.691.173.301.26.66.26 1.076v1.412c0 .417-.087.779-.26 1.086a1.683 1.683 0 01-.71.692c-.308.16-.673.24-1.096.24zm0-.769c.378 0 .673-.105.884-.317.211-.211.317-.522.317-.932v-1.402c0-.41-.106-.72-.317-.932-.211-.211-.506-.317-.884-.317-.371 0-.666.106-.884.317-.211.211-.317.522-.317.932v1.402c0 .41.106.72.317.932.218.212.513.317.884.317zm3.048.76v-.808h.173c.294 0 .5-.115.615-.346.121-.23.185-.643.192-1.239l.057-2.959h3.584V98h-.865v-4.496H37.97l-.048 2.21c-.012.557-.076 1.008-.192 1.354-.109.346-.282.599-.518.76-.231.16-.535.24-.913.24h-.221zm6.39-.068v-5.284h.866v1.94h1.556c.595 0 1.063.151 1.402.452.346.295.52.702.52 1.22 0 .513-.174.92-.52 1.22-.345.302-.813.452-1.402.452h-2.421zm.866-.788h1.556c.333 0 .586-.073.759-.22.179-.154.269-.375.269-.664 0-.288-.09-.505-.27-.653-.172-.153-.425-.23-.758-.23h-1.556v1.767zm6.515.855c-.557 0-1.015-.118-1.373-.355a1.412 1.412 0 01-.635-.96h.913c.045.16.163.29.356.393.198.103.445.154.74.154h.45c.315 0 .558-.074.73-.221a.71.71 0 00.27-.577c0-.256-.087-.458-.26-.605-.166-.147-.413-.22-.74-.22h-1.162v-.75h1.134c.295 0 .519-.07.672-.212a.72.72 0 00.231-.557.728.728 0 00-.106-.403.611.611 0 00-.297-.25 1.243 1.243 0 00-.49-.086h-.48c-.257 0-.478.057-.664.172-.185.116-.297.257-.336.423h-.913c.065-.397.273-.724.625-.98s.781-.384 1.287-.384h.48c.378 0 .702.06.97.183a1.324 1.324 0 01.836 1.277c0 .314-.102.574-.307.778-.205.199-.493.311-.864.337v.038c.454.032.784.154.99.365.204.212.307.516.307.913 0 .467-.173.839-.52 1.114-.345.276-.81.413-1.392.413h-.452zm5.94.01c-.423 0-.788-.08-1.095-.24a1.744 1.744 0 01-.72-.692c-.167-.307-.25-.67-.25-1.086v-1.402c0-.423.083-.785.25-1.086.172-.3.412-.531.72-.691.307-.16.672-.24 1.095-.24.422 0 .788.08 1.095.24.307.16.544.39.71.691.174.301.26.66.26 1.076v1.412c0 .417-.086.779-.26 1.086a1.683 1.683 0 01-.71.692c-.308.16-.673.24-1.095.24zm0-.769c.378 0 .672-.105.884-.317.21-.211.317-.522.317-.932v-1.402c0-.41-.106-.72-.317-.932-.212-.211-.506-.317-.884-.317-.372 0-.666.106-.884.317-.211.211-.317.522-.317.932v1.402c0 .41.106.72.317.932.218.212.512.317.884.317zm3.71.692v-5.284h2.287c.55 0 .977.125 1.278.375.3.243.451.586.451 1.028 0 .365-.125.66-.375.884-.25.217-.58.326-.99.326v-.076c.45 0 .808.112 1.077.336.275.224.413.525.413.903 0 .474-.16.845-.48 1.114-.32.263-.769.394-1.345.394h-2.316zm.846-.759h1.47c.307 0 .544-.067.71-.202.173-.134.26-.323.26-.567 0-.25-.087-.441-.26-.576-.166-.134-.403-.202-.71-.202h-1.47v1.547zm0-2.296h1.44c.27 0 .481-.064.635-.192.16-.128.24-.308.24-.538 0-.23-.077-.41-.23-.538-.154-.135-.369-.202-.644-.202h-1.441v1.47zm6.362 3.151c-.557 0-.996-.14-1.316-.423-.32-.288-.48-.675-.48-1.162 0-.493.16-.88.48-1.162.32-.282.752-.423 1.297-.423h1.633v-.529c0-.326-.1-.576-.298-.749-.192-.18-.468-.269-.826-.269-.314 0-.576.067-.788.202a.718.718 0 00-.365.528h-.865c.058-.454.273-.816.644-1.085.372-.27.836-.404 1.393-.404.608 0 1.089.157 1.441.471.352.314.528.74.528 1.278V98h-.845v-1.009h-.144l.144-.144c0 .385-.15.689-.451.913-.295.224-.689.336-1.182.336zm.211-.682c.41 0 .746-.103 1.009-.307a.957.957 0 00.394-.788v-.75h-1.614c-.288 0-.516.08-.682.24-.167.16-.25.379-.25.654 0 .294.1.528.298.701.205.167.487.25.845.25zm5.507.586v-4.525h-1.92v-.759h4.706v.76h-1.92V98h-.865zm6.122.096c-.416 0-.781-.083-1.095-.25a1.807 1.807 0 01-.72-.701 2.204 2.204 0 01-.25-1.066v-1.441c0-.41.083-.766.25-1.067.173-.3.413-.534.72-.701.314-.166.68-.25 1.095-.25.417 0 .778.084 1.086.25.314.166.554.4.72.701.173.301.26.657.26 1.067v.931h-3.286v.51c0 .416.106.736.317.96.212.218.513.327.903.327.333 0 .602-.058.807-.173a.763.763 0 00.375-.538h.865a1.472 1.472 0 01-.654 1.057c-.371.256-.835.384-1.393.384zm1.22-3.103v-.355c0-.417-.105-.737-.317-.961-.204-.224-.506-.336-.903-.336-.39 0-.691.112-.903.336-.211.224-.317.544-.317.96v.28h2.508l-.068.076zm1.828 3.074v-.807h.173c.295 0 .5-.115.615-.346.122-.23.186-.643.192-1.239l.058-2.959h3.583V98h-.865v-4.496h-1.863l-.048 2.21c-.013.557-.077 1.008-.192 1.354-.11.346-.282.599-.52.76-.23.16-.534.24-.912.24h-.22zM87.62 98l1.355-2.037c-.404-.096-.718-.281-.942-.557-.218-.275-.326-.618-.326-1.028 0-.519.17-.925.509-1.22.346-.294.816-.442 1.412-.442h2.277V98h-.865v-1.97h-1.162L88.628 98H87.62zm2.008-2.738h1.412v-1.777h-1.412c-.32 0-.573.08-.76.24-.185.154-.278.372-.278.653 0 .276.093.493.279.653.186.154.439.231.759.231zm5.987 2.834c-.243 0-.438-.07-.586-.211-.14-.141-.211-.33-.211-.567 0-.25.07-.448.211-.596.148-.147.343-.22.586-.22.244 0 .436.073.577.22.147.148.22.346.22.596 0 .237-.073.426-.22.567-.141.14-.333.211-.577.211zm-76.884 17.55c-.333 0-.609-.109-.827-.326a1.12 1.12 0 01-.326-.826c0-.34.109-.615.326-.827.218-.217.494-.326.827-.326.339 0 .614.109.826.326.218.212.326.487.326.827 0 .333-.108.608-.326.826-.212.217-.487.326-.826.326zM25.35 118v-7.013h1.989c.64 0 1.14.16 1.498.48.365.321.548.766.548 1.336 0 .32-.067.599-.202.836a1.359 1.359 0 01-.576.547c-.244.128-.538.189-.884.183v-.144c.371-.007.691.064.96.211.276.147.487.359.634.634.154.275.231.602.231.98 0 .397-.083.743-.25 1.037a1.696 1.696 0 01-.71.682c-.308.154-.676.231-1.105.231H25.35zm.845-.778h1.191c.404 0 .721-.106.952-.317.237-.218.355-.513.355-.884 0-.384-.118-.695-.355-.932-.231-.243-.548-.365-.951-.365h-1.192v2.498zm0-3.247h1.134c.371 0 .663-.099.874-.298.218-.199.327-.468.327-.807s-.106-.608-.317-.807c-.212-.199-.503-.298-.874-.298h-1.144v2.21zm12.542 4.121a2.46 2.46 0 01-1.114-.24 1.73 1.73 0 01-.73-.692c-.173-.307-.26-.669-.26-1.085v-1.441c0-.423.087-.785.26-1.086a1.73 1.73 0 01.73-.692c.32-.16.691-.24 1.114-.24.608 0 1.098.164 1.47.49.371.327.567.772.586 1.336h-.865c-.019-.34-.134-.599-.346-.779-.205-.185-.486-.278-.845-.278-.378 0-.679.109-.903.326-.224.212-.336.516-.336.913v1.451c0 .397.112.704.336.922.224.218.525.327.903.327.359 0 .64-.093.845-.279.212-.186.327-.445.346-.778h.865c-.02.563-.215 1.008-.586 1.335-.372.327-.862.49-1.47.49zm3.029-.029v-.807h.172c.295 0 .5-.115.615-.346.122-.23.186-.643.192-1.239l.058-2.959h3.583V118h-.864v-4.496h-1.864l-.048 2.21c-.013.557-.077 1.008-.192 1.354-.109.346-.282.599-.519.759-.23.16-.535.24-.913.24h-.22zm7.16 1.662l.777-2.056-1.96-4.957h.961l1.23 3.267c.045.108.086.24.125.393l.096.375c.025-.102.057-.227.096-.375.038-.153.077-.285.115-.393l1.153-3.267h.932l-2.604 7.013h-.922zM56.843 118v-1.921a4.418 4.418 0 01-.47.077 7.097 7.097 0 01-.654.028c-.653.007-1.162-.15-1.527-.47-.359-.327-.538-.782-.538-1.365v-1.633h.865v1.633c0 .327.108.586.326.779.224.185.532.278.923.278.269 0 .496-.009.682-.029.192-.025.323-.048.393-.067v-2.594h.865V118h-.865zm4.172.096c-.557 0-.996-.141-1.316-.423-.32-.288-.48-.675-.48-1.162 0-.493.16-.881.48-1.162.32-.282.753-.423 1.297-.423h1.633v-.529c0-.326-.1-.576-.298-.749-.192-.179-.467-.269-.826-.269-.314 0-.576.067-.788.202a.717.717 0 00-.365.528h-.864c.058-.454.272-.816.644-1.085.37-.269.835-.404 1.392-.404.609 0 1.09.157 1.442.471.352.314.528.74.528 1.278V118h-.846v-1.009h-.144l.144-.144c0 .384-.15.689-.451.913-.295.224-.689.336-1.182.336zm.212-.682c.41 0 .746-.102 1.008-.307a.957.957 0 00.394-.788v-.75h-1.614c-.288 0-.515.081-.682.241-.166.16-.25.378-.25.653 0 .295.1.528.298.701.205.167.487.25.846.25zm5.94.682c-.417 0-.782-.083-1.096-.25a1.803 1.803 0 01-.72-.701 2.203 2.203 0 01-.25-1.066v-1.441c0-.41.083-.766.25-1.067a1.81 1.81 0 01.72-.701c.314-.167.679-.25 1.095-.25.416 0 .778.083 1.086.25.313.167.554.4.72.701.173.301.26.657.26 1.067v.931h-3.286v.51c0 .416.106.736.317.96.211.218.512.327.903.327.333 0 .602-.058.807-.173a.764.764 0 00.375-.538h.864a1.473 1.473 0 01-.653 1.057c-.371.256-.836.384-1.393.384zm1.22-3.103v-.355c0-.417-.107-.737-.318-.961-.205-.224-.506-.336-.903-.336-.39 0-.692.112-.903.336-.211.224-.317.544-.317.961v.278h2.507l-.067.077zm8.18 3.007v-5.284h3.957V118h-.864v-4.496h-2.229V118h-.865zm5.67 1.729v-7.013h.864v1.009h.173l-.173.202c0-.404.132-.721.394-.951.27-.237.622-.356 1.057-.356.532 0 .954.176 1.268.529.32.345.48.823.48 1.431v1.547c0 .403-.073.752-.22 1.047a1.573 1.573 0 01-.606.682c-.256.16-.563.24-.922.24-.43 0-.778-.118-1.047-.355-.27-.237-.404-.554-.404-.951l.173.201h-.192l.02 1.201v1.537h-.865zm2.027-2.382c.365 0 .65-.109.855-.327.211-.218.317-.531.317-.941v-1.441c0-.41-.106-.724-.317-.942-.205-.218-.49-.326-.855-.326-.352 0-.634.112-.846.336-.21.224-.317.535-.317.932v1.441c0 .397.106.707.317.932.212.224.494.336.846.336zm5.66.73c-.422 0-.787-.08-1.094-.24a1.744 1.744 0 01-.721-.692c-.166-.307-.25-.669-.25-1.086v-1.402c0-.423.084-.785.25-1.086.173-.301.413-.531.72-.691.308-.161.673-.241 1.096-.241.422 0 .787.08 1.095.241.307.16.544.39.71.691.174.301.26.66.26 1.076v1.412c0 .417-.086.779-.26 1.086a1.683 1.683 0 01-.71.692c-.308.16-.673.24-1.095.24zm0-.769c.379 0 .673-.105.885-.317.21-.211.316-.522.316-.932v-1.402c0-.41-.105-.721-.317-.932-.21-.211-.505-.317-.883-.317-.372 0-.666.106-.884.317-.212.211-.317.522-.317.932v1.402c0 .41.106.721.317.932.218.212.512.317.884.317zm5.69.788c-.62 0-1.114-.182-1.48-.548-.358-.371-.537-.877-.537-1.517v-2.402c0-.845.211-1.496.634-1.95.423-.461 1.028-.692 1.816-.692h1.345v.865h-1.345c-.52 0-.913.153-1.182.461-.269.301-.403.74-.403 1.316v.624h.134l-.134.193c.006-.378.134-.673.384-.884.25-.212.589-.317 1.018-.317.557 0 .99.179 1.297.538.314.358.47.851.47 1.479v.769c0 .429-.08.797-.24 1.104-.16.308-.39.545-.691.711-.301.167-.663.25-1.086.25zm0-.768c.372 0 .657-.113.855-.337.199-.224.298-.544.298-.96v-.769c0-.416-.1-.736-.298-.961-.198-.224-.483-.336-.855-.336-.371 0-.656.112-.855.336-.198.218-.297.538-.297.961v.769c0 .416.099.736.297.96.199.224.484.337.855.337zm3.048.739v-.807h.173c.295 0 .5-.115.615-.346.122-.23.186-.643.192-1.239l.058-2.959h3.583V118h-.865v-4.496h-1.863l-.048 2.21c-.013.557-.077 1.008-.193 1.354-.108.346-.281.599-.518.759-.23.16-.535.24-.913.24h-.22zm8.332.029c-.417 0-.782-.083-1.096-.25a1.805 1.805 0 01-.72-.701 2.197 2.197 0 01-.25-1.066v-1.441c0-.41.083-.766.25-1.067.173-.301.413-.534.72-.701.314-.167.679-.25 1.096-.25.416 0 .778.083 1.085.25.314.167.554.4.721.701.173.301.259.657.259 1.067v.931h-3.285v.51c0 .416.105.736.317.96.211.218.512.327.903.327.333 0 .602-.058.807-.173a.763.763 0 00.374-.538h.865a1.476 1.476 0 01-.653 1.057c-.372.256-.836.384-1.393.384zm1.22-3.103v-.355c0-.417-.106-.737-.317-.961-.205-.224-.506-.336-.903-.336-.391 0-.692.112-.903.336-.212.224-.317.544-.317.961v.278h2.507l-.067.077zm2.317 3.007v-5.284h1.172l.692 2.027c.071.205.135.41.192.615.058.199.1.352.125.461.026-.109.064-.262.115-.461.058-.205.119-.413.183-.624l.653-2.018h1.172V118H114v-.817c0-.288.004-.602.01-.941l.019-1.028.039-.98c.012-.314.022-.589.028-.826l-.941 3.007h-.913l-.951-2.988c.013.288.023.647.029 1.076.013.429.023.878.029 1.345.013.468.019.913.019 1.335V118h-.836zm13.551.096c-.423 0-.794-.08-1.115-.24a1.735 1.735 0 01-.73-.692c-.173-.307-.259-.669-.259-1.085v-1.441c0-.423.086-.785.259-1.086.173-.301.417-.531.73-.692.321-.16.692-.24 1.115-.24.608 0 1.098.164 1.47.49.371.327.566.772.586 1.336h-.865c-.019-.34-.134-.599-.346-.779-.205-.185-.487-.278-.845-.278-.378 0-.679.109-.903.326-.224.212-.336.516-.336.913v1.451c0 .397.112.704.336.922.224.218.525.327.903.327.358 0 .64-.093.845-.279.212-.186.327-.445.346-.778h.865c-.02.563-.215 1.008-.586 1.335-.372.327-.862.49-1.47.49zM25.361 137v-5.284h3.957V137h-.864v-4.496h-2.229V137h-.865zm7.668.077c-.423 0-.788-.08-1.095-.24a1.743 1.743 0 01-.72-.692c-.167-.307-.25-.669-.25-1.086v-1.402c0-.423.083-.785.25-1.086a1.74 1.74 0 01.72-.691c.307-.161.672-.241 1.095-.241.423 0 .788.08 1.095.241.308.16.545.39.711.691.173.301.26.66.26 1.076v1.412c0 .417-.087.779-.26 1.086a1.683 1.683 0 01-.71.692c-.308.16-.673.24-1.096.24zm0-.769c.378 0 .673-.105.884-.317.211-.211.317-.522.317-.932v-1.402c0-.41-.106-.721-.317-.932-.211-.211-.506-.317-.884-.317-.371 0-.666.106-.884.317-.211.211-.317.522-.317.932v1.402c0 .41.106.721.317.932.218.212.513.317.884.317zm3.096 2.037v-2.085h.432c.11-.109.221-.323.337-.643.121-.321.185-.727.192-1.22l.057-2.681h3.45v4.544h.672v2.085h-.769V137h-3.602v1.345h-.769zm1.345-2.085h2.258v-3.775H37.96l-.039 1.931c-.006.506-.06.916-.163 1.229-.102.314-.198.519-.288.615zm4.96.74v-5.284h3.957V137h-.864v-4.496h-2.229V137h-.864zm5.69 0v-5.284h.825v2.882c0 .186-.006.381-.019.586a8.66 8.66 0 01-.038.586c-.013.18-.03.333-.048.461l2.132-4.515h1.105V137h-.826v-2.882c0-.186.003-.381.01-.586.012-.205.028-.4.047-.586l.049-.471L49.224 137h-1.105zm7.687.096a2.46 2.46 0 01-1.114-.24 1.73 1.73 0 01-.73-.692c-.174-.307-.26-.669-.26-1.085v-1.441c0-.423.086-.785.26-1.086a1.73 1.73 0 01.73-.692c.32-.16.691-.24 1.114-.24.608 0 1.098.164 1.47.49.371.327.567.772.586 1.336h-.865c-.019-.34-.134-.599-.346-.779-.205-.185-.486-.278-.845-.278-.378 0-.679.109-.903.326-.224.212-.336.516-.336.913v1.451c0 .397.112.704.336.922.224.218.525.327.903.327.359 0 .64-.093.845-.279.212-.186.327-.445.346-.778h.865c-.02.563-.215 1.008-.586 1.335-.372.327-.862.49-1.47.49zm3.72-.096v-5.284h.865v2.181h.903l1.537-2.181h.99l-1.778 2.517L63.85 137h-1.008l-1.538-2.354h-.912V137h-.865zm7.64.077c-.423 0-.788-.08-1.095-.24a1.744 1.744 0 01-.72-.692c-.167-.307-.25-.669-.25-1.086v-1.402c0-.423.083-.785.25-1.086.172-.301.412-.531.72-.691.307-.161.672-.241 1.095-.241.423 0 .788.08 1.095.241.308.16.545.39.711.691.173.301.26.66.26 1.076v1.412c0 .417-.087.779-.26 1.086a1.683 1.683 0 01-.71.692c-.308.16-.673.24-1.096.24zm0-.769c.378 0 .672-.105.884-.317.211-.211.317-.522.317-.932v-1.402c0-.41-.106-.721-.317-.932-.212-.211-.506-.317-.884-.317-.371 0-.666.106-.884.317-.211.211-.317.522-.317.932v1.402c0 .41.106.721.317.932.218.212.513.317.884.317zm3.71.692v-5.284h.827v2.882c0 .186-.006.381-.02.586a8.055 8.055 0 01-.038.586 6.05 6.05 0 01-.048.461l2.133-4.515h1.105V137h-.826v-2.882c0-.186.003-.381.01-.586.012-.205.028-.4.047-.586l.048-.471L71.983 137h-1.105zm2.018-6.148c-.461 0-.832-.128-1.114-.385-.282-.256-.423-.592-.423-1.008h.682a.82.82 0 00.23.605c.154.154.36.23.615.23.263 0 .471-.076.625-.23a.802.802 0 00.24-.605h.682c0 .416-.14.752-.422 1.008-.282.257-.654.385-1.115.385zm11.341 6.244c-.621 0-1.114-.182-1.48-.548-.358-.371-.537-.877-.537-1.517v-2.402c0-.845.211-1.496.634-1.95.422-.461 1.028-.692 1.815-.692h1.345v.865h-1.345c-.518 0-.912.153-1.181.461-.27.301-.404.74-.404 1.316v.624h.135l-.135.193c.007-.378.135-.673.385-.884.25-.212.589-.317 1.018-.317.557 0 .99.179 1.297.538.314.358.47.851.47 1.479v.769c0 .429-.08.797-.24 1.104-.16.308-.39.545-.691.711-.301.167-.663.25-1.086.25zm0-.768c.371 0 .656-.113.855-.337.199-.224.298-.544.298-.96v-.769c0-.416-.1-.736-.298-.961-.198-.224-.483-.336-.855-.336-.371 0-.656.112-.855.336-.198.218-.298.538-.298.961v.769c0 .416.1.736.298.96.199.224.484.337.855.337zm5.69.749c-.423 0-.788-.08-1.096-.24a1.744 1.744 0 01-.72-.692c-.166-.307-.25-.669-.25-1.086v-1.402c0-.423.084-.785.25-1.086.173-.301.413-.531.72-.691.308-.161.673-.241 1.096-.241.422 0 .787.08 1.095.241.307.16.544.39.71.691.174.301.26.66.26 1.076v1.412c0 .417-.086.779-.26 1.086a1.683 1.683 0 01-.71.692c-.308.16-.673.24-1.095.24zm0-.769c.377 0 .672-.105.883-.317.212-.211.317-.522.317-.932v-1.402c0-.41-.105-.721-.317-.932-.21-.211-.505-.317-.883-.317-.372 0-.666.106-.884.317-.212.211-.317.522-.317.932v1.402c0 .41.106.721.317.932.218.212.512.317.884.317zm5.257.692v-4.525h-1.921v-.759h4.707v.759h-1.921V137h-.865zM25.36 156v-5.284h3.959V156h-.865v-4.496h-2.229V156h-.865zm5.67 1.729v-7.013h.865v1.009h.174l-.174.202c0-.404.132-.721.394-.951.27-.237.622-.356 1.057-.356.532 0 .954.176 1.268.529.32.345.48.823.48 1.431v1.547c0 .403-.073.752-.22 1.047a1.573 1.573 0 01-.606.682c-.256.16-.563.24-.922.24-.429 0-.778-.118-1.047-.355-.269-.237-.404-.554-.404-.951l.174.201h-.193l.02 1.201v1.537h-.865zm2.028-2.382c.365 0 .65-.109.855-.327.211-.218.317-.531.317-.941v-1.441c0-.41-.106-.724-.317-.942-.205-.218-.49-.326-.855-.326-.352 0-.634.112-.845.336-.212.224-.318.535-.318.932v1.441c0 .397.106.707.318.932.21.224.493.336.845.336zm5.66.749c-.416 0-.78-.083-1.094-.25a1.803 1.803 0 01-.72-.701 2.203 2.203 0 01-.25-1.066v-1.441c0-.41.083-.766.25-1.067a1.81 1.81 0 01.72-.701c.313-.167.678-.25 1.095-.25.416 0 .778.083 1.085.25.314.167.554.4.72.701.174.301.26.657.26 1.067v.931H37.5v.51c0 .416.105.736.317.96.211.218.512.327.903.327.333 0 .602-.058.807-.173a.764.764 0 00.374-.538h.865a1.473 1.473 0 01-.653 1.057c-.372.256-.836.384-1.393.384zm1.22-3.103v-.355c0-.417-.105-.737-.316-.961-.205-.224-.506-.336-.903-.336-.39 0-.692.112-.903.336-.212.224-.317.544-.317.961v.278h2.507l-.067.077zm1.877 4.352v-2.085h.432c.109-.109.22-.323.336-.643.122-.321.186-.727.192-1.22l.058-2.681h3.449v4.544h.672v2.085h-.768V156h-3.603v1.345h-.768zm1.345-2.085h2.257v-3.775H43.65l-.039 1.931c-.006.506-.06.916-.163 1.229-.103.314-.199.519-.288.615zm6.938.817c-.423 0-.788-.08-1.095-.24a1.744 1.744 0 01-.72-.692c-.167-.307-.25-.669-.25-1.086v-1.402c0-.423.083-.785.25-1.086.172-.301.413-.531.72-.691.307-.161.672-.241 1.095-.241.423 0 .788.08 1.095.241.308.16.545.39.711.691.173.301.26.66.26 1.076v1.412c0 .417-.087.779-.26 1.086a1.684 1.684 0 01-.71.692c-.308.16-.673.24-1.096.24zm0-.769c.378 0 .673-.105.884-.317.211-.211.317-.522.317-.932v-1.402c0-.41-.106-.721-.317-.932-.211-.211-.506-.317-.884-.317-.371 0-.666.106-.884.317-.211.211-.317.522-.317.932v1.402c0 .41.106.721.317.932.218.212.513.317.884.317zm5.709.788a2.46 2.46 0 01-1.114-.24 1.73 1.73 0 01-.73-.692c-.174-.307-.26-.669-.26-1.085v-1.441c0-.423.086-.785.26-1.086a1.73 1.73 0 01.73-.692c.32-.16.691-.24 1.114-.24.608 0 1.098.164 1.47.49.371.327.567.772.586 1.336h-.865c-.019-.34-.134-.599-.346-.779-.205-.185-.486-.278-.845-.278-.378 0-.679.109-.903.326-.224.212-.336.516-.336.913v1.451c0 .397.112.704.336.922.224.218.525.327.903.327.359 0 .64-.093.845-.279.212-.186.327-.445.346-.778h.865c-.02.563-.215 1.008-.586 1.335-.372.327-.862.49-1.47.49zm5.238-.096v-4.525h-1.921v-.759h4.707v.759H61.91V156h-.865zm5.66.096c-.556 0-.995-.141-1.315-.423-.32-.288-.48-.675-.48-1.162 0-.493.16-.881.48-1.162.32-.282.752-.423 1.297-.423h1.633v-.529c0-.326-.1-.576-.298-.749-.192-.179-.468-.269-.826-.269-.314 0-.576.067-.788.202a.717.717 0 00-.365.528h-.865c.058-.454.273-.816.644-1.085.372-.269.836-.404 1.393-.404.608 0 1.089.157 1.441.471.352.314.528.74.528 1.278V156h-.845v-1.009h-.144l.144-.144c0 .384-.15.689-.451.913-.295.224-.689.336-1.182.336zm.212-.682c.41 0 .746-.102 1.009-.307a.957.957 0 00.394-.788v-.75h-1.614c-.288 0-.516.081-.682.241-.167.16-.25.378-.25.653 0 .295.1.528.298.701.205.167.487.25.845.25zm3.96.586v-5.284h2.287c.55 0 .977.125 1.278.375.3.243.451.586.451 1.028 0 .365-.124.66-.374.884-.25.217-.58.326-.99.326v-.077c.449 0 .807.113 1.076.337.275.224.413.525.413.903 0 .474-.16.845-.48 1.114-.32.263-.769.394-1.345.394h-2.315zm.846-.759h1.47c.307 0 .544-.067.71-.202.174-.134.26-.323.26-.566 0-.25-.086-.442-.26-.577-.166-.134-.403-.202-.71-.202h-1.47v1.547zm0-2.296h1.441c.27 0 .48-.064.634-.192.16-.128.24-.307.24-.538 0-.231-.076-.41-.23-.538-.154-.135-.369-.202-.644-.202h-1.44v1.47zm4.181 3.122v-.807h.173c.295 0 .5-.115.615-.346.122-.23.186-.643.192-1.239l.058-2.959h3.583V156h-.864v-4.496h-1.864l-.048 2.21c-.013.557-.077 1.008-.192 1.354-.109.346-.282.599-.519.759-.23.16-.535.24-.912.24h-.222zM81.93 156l1.355-2.037c-.403-.096-.717-.281-.941-.557-.218-.275-.327-.618-.327-1.028 0-.519.17-.925.509-1.22.346-.294.817-.442 1.412-.442h2.277V156h-.865v-1.969h-1.162L82.939 156H81.93zm2.008-2.738h1.412v-1.777h-1.412c-.32 0-.573.08-.759.24-.185.154-.278.371-.278.653 0 .276.093.493.278.654.186.153.439.23.76.23zm5.988 2.834c-.417 0-.782-.083-1.096-.25a1.803 1.803 0 01-.72-.701 2.203 2.203 0 01-.25-1.066v-1.441c0-.41.084-.766.25-1.067a1.81 1.81 0 01.72-.701c.314-.167.68-.25 1.096-.25.416 0 .778.083 1.085.25.314.167.554.4.72.701.174.301.26.657.26 1.067v.931h-3.285v.51c0 .416.105.736.317.96.211.218.512.327.903.327.333 0 .602-.058.807-.173a.764.764 0 00.374-.538h.865a1.473 1.473 0 01-.653 1.057c-.372.256-.836.384-1.393.384zm1.22-3.103v-.355c0-.417-.106-.737-.317-.961-.205-.224-.506-.336-.903-.336-.391 0-.692.112-.903.336-.212.224-.317.544-.317.961v.278h2.507l-.067.077zM95.183 156v-4.525h-1.921v-.759h4.707v.759h-1.921V156h-.865zm9.833 0v-5.284h3.958V156h-.865v-4.496h-2.229V156h-.864zm7.668.077c-.422 0-.787-.08-1.095-.24a1.745 1.745 0 01-.72-.692c-.167-.307-.25-.669-.25-1.086v-1.402c0-.423.083-.785.25-1.086.173-.301.413-.531.72-.691.308-.161.673-.241 1.095-.241.423 0 .788.08 1.095.241.308.16.545.39.711.691.173.301.26.66.26 1.076v1.412c0 .417-.087.779-.26 1.086a1.677 1.677 0 01-.711.692c-.307.16-.672.24-1.095.24zm0-.769c.378 0 .673-.105.884-.317.211-.211.317-.522.317-.932v-1.402c0-.41-.106-.721-.317-.932-.211-.211-.506-.317-.884-.317-.371 0-.666.106-.884.317-.211.211-.317.522-.317.932v1.402c0 .41.106.721.317.932.218.212.513.317.884.317zm3.711.692v-5.284h.865v2.2h2.228v-2.2h.865V156h-.865v-2.296h-2.228V156h-.865zm5.363 0l1.355-2.037c-.404-.096-.718-.281-.942-.557-.218-.275-.327-.618-.327-1.028 0-.519.17-.925.51-1.22.345-.294.816-.442 1.412-.442h2.277V156h-.865v-1.969h-1.162L122.767 156h-1.009zm2.008-2.738h1.412v-1.777h-1.412c-.32 0-.573.08-.759.24-.186.154-.279.371-.279.653 0 .276.093.493.279.654.186.153.439.23.759.23zm5.555 2.738v-4.525H127.4v-.759h4.707v.759h-1.921V156h-.865zm4.143 0v-5.284h.865v2.2h2.228v-2.2h.865V156h-.865v-2.296h-2.228V156h-.865zm5.411 0v-5.284h.807v1.941h.432c.57 0 1.019.15 1.345.451.333.295.5.702.5 1.22 0 .519-.167.929-.5 1.23-.326.295-.775.442-1.345.442h-1.239zm.807-.692h.432c.34 0 .602-.086.788-.259.192-.173.288-.413.288-.721 0-.307-.096-.547-.288-.72-.186-.173-.448-.259-.788-.259h-.432v1.959zm2.901.692v-5.284h.807V156h-.807zm4.239.096c-.416 0-.781-.083-1.095-.25a1.799 1.799 0 01-.72-.701 2.197 2.197 0 01-.25-1.066v-1.441c0-.41.083-.766.25-1.067.172-.301.413-.534.72-.701.314-.167.679-.25 1.095-.25.417 0 .778.083 1.086.25.314.167.554.4.72.701.173.301.26.657.26 1.067v.931h-3.286v.51c0 .416.106.736.317.96.212.218.513.327.903.327.333 0 .602-.058.807-.173a.765.765 0 00.375-.538h.864a1.47 1.47 0 01-.653 1.057c-.371.256-.836.384-1.393.384zm1.22-3.103v-.355c0-.417-.105-.737-.317-.961-.205-.224-.506-.336-.903-.336-.39 0-.691.112-.903.336-.211.224-.317.544-.317.961v.278h2.508l-.068.077zM25.361 175v-5.284h.826v2.882c0 .186-.007.381-.02.586a8.055 8.055 0 01-.038.586c-.013.18-.029.333-.048.461l2.133-4.515h1.105V175h-.827v-2.882c0-.186.003-.381.01-.586.013-.205.029-.4.048-.586l.048-.471L26.465 175H25.36zm5.69 0v-5.284h.864v2.2h2.229v-2.2h.864V175h-.864v-2.296h-2.23V175h-.864zm7.687.096a2.46 2.46 0 01-1.114-.24 1.73 1.73 0 01-.73-.692c-.173-.307-.26-.669-.26-1.085v-1.441c0-.423.087-.785.26-1.086a1.73 1.73 0 01.73-.692c.32-.16.691-.24 1.114-.24.608 0 1.098.164 1.47.49.371.327.567.772.586 1.336h-.865c-.019-.34-.134-.599-.346-.779-.205-.185-.486-.278-.845-.278-.378 0-.679.109-.903.326-.224.212-.336.516-.336.913v1.451c0 .397.112.704.336.922.224.218.525.327.903.327.359 0 .64-.093.845-.279.212-.186.327-.445.346-.778h.865c-.02.563-.215 1.008-.586 1.335-.372.327-.862.49-1.47.49zm5.238-.096v-4.525h-1.921v-.759h4.707v.759h-1.921V175h-.865zm4.124 1.729v-7.013h.864v1.009h.173l-.172.202c0-.404.13-.721.393-.951.27-.237.622-.356 1.057-.356.532 0 .954.176 1.268.529.32.345.48.823.48 1.431v1.547c0 .403-.073.752-.22 1.047a1.573 1.573 0 01-.606.682c-.256.16-.563.24-.922.24-.429 0-.778-.118-1.047-.355-.269-.237-.404-.554-.404-.951l.173.201h-.192l.02 1.201v1.537H48.1zm2.027-2.382c.365 0 .65-.109.855-.327.211-.218.317-.531.317-.941v-1.441c0-.41-.106-.724-.317-.942-.205-.218-.49-.326-.855-.326-.352 0-.634.112-.846.336-.21.224-.316.535-.316.932v1.441c0 .397.105.707.316.932.212.224.494.336.846.336zm4.489 2.382l.778-2.056-1.96-4.957h.96l1.23 3.267c.045.108.087.24.125.393.039.148.07.273.096.375l.096-.375c.039-.153.077-.285.116-.393l1.152-3.267h.932l-2.603 7.013h-.922zM59.527 175v-5.284h.865v2.181h.903l1.537-2.181h.99l-1.778 2.517L63.85 175h-1.008l-1.538-2.354h-.912V175h-.865zm9.417 1.345V175h-3.756v-5.284h.865v4.515h2.075v-4.515h.864v4.515h.72v2.114h-.768zM70.878 175v-5.284h.826v2.882c0 .186-.006.381-.02.586a8.055 8.055 0 01-.038.586 6.05 6.05 0 01-.048.461l2.133-4.515h1.105V175h-.826v-2.882c0-.186.003-.381.01-.586.012-.205.028-.4.047-.586l.048-.471L71.983 175h-1.105zm5.69 0v-5.284h.826v2.882c0 .186-.007.381-.02.586a8.055 8.055 0 01-.038.586c-.013.18-.029.333-.048.461l2.133-4.515h1.104V175H79.7v-2.882c0-.186.003-.381.01-.586.013-.205.029-.4.048-.586l.048-.471L77.672 175h-1.105zm7.668.096c-.243 0-.439-.07-.586-.211-.14-.141-.211-.33-.211-.567 0-.25.07-.448.211-.596.147-.147.343-.221.586-.221.243 0 .435.074.576.221.148.148.221.346.221.596 0 .237-.073.426-.22.567-.142.141-.334.211-.577.211z" fill="#fff"/><path d="M13.75 24v-7.013h4.265V24h-1.201v-5.898H14.95V24h-1.2zm7.822.087c-.449 0-.84-.084-1.172-.25a1.938 1.938 0 01-.769-.72c-.18-.315-.269-.683-.269-1.106v-1.306c0-.423.09-.788.27-1.095a1.84 1.84 0 01.768-.72c.333-.174.723-.26 1.172-.26.454 0 .845.086 1.172.26.326.166.58.406.759.72.185.307.278.669.278 1.085v1.316c0 .423-.093.791-.278 1.105-.18.308-.433.548-.76.72-.326.167-.717.25-1.171.25zm0-1.048c.32 0 .567-.086.74-.26.179-.178.268-.435.268-.768v-1.306c0-.34-.09-.596-.269-.769-.172-.173-.42-.259-.74-.259-.313 0-.56.086-.739.26-.18.172-.269.428-.269.768v1.306c0 .333.09.59.269.769.18.173.426.26.74.26zm3.028 1.028v-1.095h.24a.54.54 0 00.49-.26c.116-.179.177-.46.183-.845l.057-3.15h3.824V24h-1.2v-4.17h-1.442l-.038 2.105c-.013.46-.09.851-.23 1.172a1.617 1.617 0 01-.606.72c-.263.16-.583.24-.96.24H24.6zM30.857 24v-5.284h1.2v1.73h1.365c.64 0 1.14.16 1.498.48.365.314.548.75.548 1.306 0 .545-.186.977-.557 1.297-.365.314-.858.471-1.48.471h-2.574zm1.2-1.057h1.317c.282 0 .496-.06.643-.182.154-.128.23-.308.23-.538 0-.23-.076-.407-.23-.529-.147-.128-.361-.192-.643-.192h-1.316v1.441zm6.324 1.124c-.576 0-1.053-.131-1.431-.394a1.62 1.62 0 01-.682-1.095h1.2a.646.646 0 00.308.375c.167.09.368.134.605.134h.51c.25 0 .445-.057.585-.173a.592.592 0 00.221-.48.586.586 0 00-.211-.48c-.14-.116-.34-.173-.596-.173h-1.21v-.96h1.162c.237 0 .42-.055.548-.164a.55.55 0 00.192-.442.525.525 0 00-.336-.519 1.062 1.062 0 00-.404-.067h-.451a1.1 1.1 0 00-.576.144.613.613 0 00-.289.384h-1.2c.076-.454.3-.82.672-1.095.371-.275.836-.413 1.393-.413h.451c.404 0 .75.06 1.038.183.294.115.522.281.682.5.16.21.24.467.24.768 0 .333-.121.605-.365.816-.243.212-.567.324-.97.337v-.039c.46.013.82.135 1.076.365.256.224.384.535.384.932 0 .474-.186.852-.557 1.134-.365.281-.858.422-1.48.422h-.509zm5.95.02c-.449 0-.84-.084-1.173-.25a1.939 1.939 0 01-.768-.72c-.18-.315-.27-.683-.27-1.106v-1.306c0-.423.09-.788.27-1.095.185-.314.442-.554.768-.72.333-.174.724-.26 1.172-.26.455 0 .846.086 1.172.26.327.166.58.406.76.72.185.307.278.669.278 1.085v1.316c0 .423-.093.791-.279 1.105-.18.308-.432.548-.759.72-.326.167-.717.25-1.172.25zm0-1.048c.32 0 .566-.086.739-.26.18-.178.269-.435.269-.768v-1.306c0-.34-.09-.596-.269-.769-.173-.173-.42-.259-.74-.259-.313 0-.56.086-.74.26-.179.172-.268.428-.268.768v1.306c0 .333.09.59.269.769.179.173.425.26.74.26zm3.547.961v-5.284h2.344c.608 0 1.085.128 1.431.385.352.25.529.595.529 1.037 0 .359-.138.647-.414.865-.269.217-.627.326-1.076.326v-.086c.487 0 .878.115 1.172.346.295.224.442.525.442.903 0 .467-.179.835-.538 1.104-.352.27-.839.404-1.46.404h-2.43zm1.181-.913h1.21c.27 0 .481-.06.635-.182a.593.593 0 00.23-.49.613.613 0 00-.23-.51c-.154-.121-.365-.182-.634-.182h-1.21v1.364zm0-2.17h1.172c.237 0 .426-.058.567-.174a.576.576 0 00.211-.47.576.576 0 00-.21-.471c-.135-.122-.324-.183-.568-.183H49.06v1.297zm6.065 3.18c-.545 0-.974-.145-1.288-.433-.313-.288-.47-.676-.47-1.163 0-.518.172-.919.518-1.2.346-.282.836-.423 1.47-.423h1.316v-.452c0-.256-.083-.454-.25-.595-.166-.148-.393-.221-.682-.221-.262 0-.48.057-.653.173a.675.675 0 00-.307.47h-1.172c.057-.5.282-.896.672-1.19.39-.296.89-.443 1.499-.443.647 0 1.156.163 1.527.49.378.32.567.756.567 1.307V24H56.71v-.922h-.192l.192-.26c0 .391-.144.702-.433.932-.288.23-.672.346-1.152.346zm.393-.904c.34 0 .615-.086.827-.26a.82.82 0 00.326-.672v-.643h-1.297c-.243 0-.438.07-.586.21a.736.736 0 00-.22.558c0 .25.083.448.25.596.172.14.406.211.7.211zm5.277.807v-4.179h-1.806v-1.105h4.823v1.105h-1.806V24h-1.211zm6.305.096c-.449 0-.84-.086-1.172-.26a1.923 1.923 0 01-.779-.72 2.168 2.168 0 01-.269-1.095v-1.326c0-.416.09-.778.27-1.085a1.89 1.89 0 01.778-.73c.332-.173.723-.26 1.171-.26.442 0 .827.087 1.153.26.333.172.59.416.769.73.186.307.279.669.279 1.085v.951h-3.257v.375c0 .371.09.653.269.845.18.186.445.279.797.279.27 0 .487-.045.653-.134a.642.642 0 00.317-.414h1.182c-.09.455-.333.82-.73 1.096-.39.269-.868.403-1.431.403zm1.037-3.122v-.288c0-.365-.086-.644-.26-.836-.172-.199-.432-.298-.778-.298-.345 0-.608.1-.787.298-.18.198-.27.48-.27.845v.202l2.181-.02-.086.097zm1.982 3.093v-1.095h.24a.54.54 0 00.49-.26c.115-.179.176-.46.182-.845l.058-3.15h3.823V24h-1.2v-4.17h-1.442l-.038 2.105c-.013.46-.09.851-.23 1.172a1.61 1.61 0 01-.606.72c-.262.16-.583.24-.96.24h-.317zM76.374 24v-5.284h1.2v1.73h1.365c.64 0 1.14.16 1.499.48.365.314.547.75.547 1.306 0 .545-.186.977-.557 1.297-.365.314-.858.471-1.48.471h-2.574zm1.2-1.057h1.317c.282 0 .496-.06.644-.182.153-.128.23-.308.23-.538 0-.23-.077-.407-.23-.529-.148-.128-.362-.192-.644-.192h-1.316v1.441zm6.603 1.153c-.448 0-.842-.083-1.181-.25a1.923 1.923 0 01-.779-.72c-.185-.314-.278-.682-.278-1.105v-1.326c0-.429.093-.797.278-1.105.186-.307.445-.544.779-.71.339-.173.733-.26 1.181-.26.666 0 1.198.173 1.595.519.397.34.605.804.624 1.393h-1.2c-.02-.275-.12-.487-.298-.634-.173-.154-.413-.23-.72-.23-.321 0-.574.089-.76.268-.186.173-.278.423-.278.75v1.335c0 .327.092.58.278.759.186.18.439.269.76.269.306 0 .547-.074.72-.221.179-.154.278-.368.297-.644h1.201c-.019.59-.227 1.057-.624 1.403-.397.34-.929.51-1.595.51zM87.744 24v-5.284h1.2v2.075h.788l1.288-2.075h1.345l-1.595 2.556L92.393 24H91.02l-1.288-2.19h-.787V24h-1.201zm5.66 0v-5.284h1.086v2.604c0 .166-.01.365-.029.595a11.758 11.758 0 01-.134 1.23l1.863-4.429h1.48V24h-1.086v-2.603c0-.173.007-.365.02-.577l.057-.624c.026-.205.051-.378.077-.519L94.884 24h-1.48zm5.69 0v-5.284h1.086v2.604c0 .166-.01.365-.029.595a12.385 12.385 0 01-.135 1.23l1.864-4.429h1.48V24h-1.086v-2.603c0-.173.006-.365.019-.577l.058-.624c.025-.205.051-.378.077-.519L100.574 24h-1.48zm2.171-6.12c-.499 0-.906-.13-1.22-.393a1.288 1.288 0 01-.46-1.028h.931c0 .211.067.38.202.509a.781.781 0 00.547.192c.224 0 .404-.064.538-.192a.655.655 0 00.212-.51h.931c0 .423-.153.766-.461 1.029-.307.262-.714.394-1.22.394zm11.341 6.207c-.448 0-.839-.084-1.172-.25a1.93 1.93 0 01-.768-.72c-.18-.315-.269-.683-.269-1.106v-1.306c0-.423.089-.788.269-1.095a1.84 1.84 0 01.768-.72c.333-.174.724-.26 1.172-.26.455 0 .846.086 1.172.26.327.166.58.406.759.72.186.307.279.669.279 1.085v1.316c0 .423-.093.791-.279 1.105a1.868 1.868 0 01-.759.72c-.326.167-.717.25-1.172.25zm0-1.048c.32 0 .567-.086.74-.26.179-.178.269-.435.269-.768v-1.306c0-.34-.09-.596-.269-.769-.173-.173-.42-.259-.74-.259-.314 0-.56.086-.74.26-.179.172-.269.428-.269.768v1.306c0 .333.09.59.269.769.18.173.426.26.74.26zm3.557.961v-5.284h4.266V24h-1.201v-4.17h-1.864V24h-1.201zm5.421 0v-5.284h1.037v1.787h.356c.57 0 1.021.16 1.354.48.333.32.5.75.5 1.288 0 .525-.17.944-.509 1.258-.333.314-.782.471-1.345.471h-1.393zm1.037-.932h.356c.275 0 .486-.07.634-.211.154-.141.23-.336.23-.586 0-.263-.076-.468-.23-.615-.148-.147-.359-.221-.634-.221h-.356v1.633zm2.729.932v-5.284h1.037V24h-1.037zm3.72 0v-4.179h-1.806v-1.105h4.822v1.105h-1.806V24h-1.21zm6.295-3.766c-.269 0-.487-.074-.653-.22a.775.775 0 01-.241-.587c0-.243.08-.439.241-.586.166-.147.384-.22.653-.22s.483.073.643.22c.167.147.25.343.25.586a.761.761 0 01-.25.586c-.16.147-.374.221-.643.221zm0 3.862c-.269 0-.487-.074-.653-.22a.756.756 0 01-.241-.587c0-.243.08-.439.241-.586.166-.147.384-.22.653-.22s.483.073.643.22c.167.147.25.343.25.586a.743.743 0 01-.25.586c-.16.147-.374.221-.643.221z" fill="#000"/><defs><filter id="filter0_d_441_1724" x=".157" y="0" width="179.685" height="192.685" filterUnits="userSpaceOnUse" color-interpolation-filters="sRGB"><feFlood flood-opacity="0" result="BackgroundImageFix"/><feColorMatrix in="SourceAlpha" values="0 0 0 0 0 0 0 0 0 0 0 0 0 0 0 0 0 0 127 0" result="hardAlpha"/><feOffset dy="3.843"/><feGaussianBlur stdDeviation="1.921"/><feComposite in2="hardAlpha" operator="out"/><feColorMatrix values="0 0 0 0 0 0 0 0 0 0 0 0 0 0 0 0 0 0 0.25 0"/><feBlend in2="BackgroundImageFix" result="effect1_dropShadow_441_1724"/><feBlend in="SourceGraphic" in2="effect1_dropShadow_441_1724" result="shape"/></filter></defs></svg>