<svg width="180" height="225" fill="none" xmlns="http://www.w3.org/2000/svg"><g filter="url(#filter0_d_441_1854)"><rect x="4" width="172" height="217" rx="16.011" fill="#E0F4FF"/></g><mask id="a" style="mask-type:alpha" maskUnits="userSpaceOnUse" x="4" y="0" width="172" height="43"><path fill="#C9D9CD" d="M4 0h172v42.005H4z"/></mask><g mask="url(#a)"><rect x="4" y="-1.68" width="172" height="117.615" rx="16.011" fill="#6E6DC0"/></g><path d="M16.73 62.58c-.32 0-.582-.1-.787-.299-.199-.205-.298-.467-.298-.788 0-.32.1-.58.298-.778.205-.205.467-.307.788-.307.32 0 .58.102.778.307.205.199.307.458.307.778s-.102.583-.307.788c-.199.199-.458.298-.778.298zM23.4 65v-7.013h3.881V65h-.768v-6.321h-2.345V65H23.4zm5.68 1.73v-7.014h.759v.932h.202l-.23.317c0-.416.134-.743.403-.98.275-.243.637-.365 1.085-.365.532 0 .954.176 1.268.529.32.345.48.82.48 1.421v1.566c0 .404-.073.753-.22 1.047a1.646 1.646 0 01-.615.673c-.256.16-.56.24-.913.24-.442 0-.8-.122-1.076-.365-.275-.243-.413-.57-.413-.98l.202.317h-.183l.01 1.076v1.585h-.759zm1.979-2.297c.384 0 .682-.115.893-.346.218-.23.327-.557.327-.98V61.61c0-.43-.109-.756-.327-.98-.211-.23-.509-.346-.893-.346-.372 0-.67.119-.893.355-.218.231-.327.555-.327.97v1.5c0 .416.109.742.326.98.225.23.522.345.894.345zm5.66.653c-.41 0-.765-.08-1.066-.24a1.698 1.698 0 01-.7-.691c-.167-.301-.25-.657-.25-1.067v-1.46c0-.416.083-.772.25-1.066.166-.301.4-.532.7-.692.301-.16.657-.24 1.067-.24.41 0 .765.08 1.066.24.301.16.535.39.701.692.167.294.25.647.25 1.056v1.47c0 .41-.083.766-.25 1.067a1.7 1.7 0 01-.7.691c-.302.16-.657.24-1.067.24zm0-.682c.398 0 .705-.112.923-.336.218-.224.327-.55.327-.98v-1.46c0-.43-.112-.756-.337-.98-.217-.224-.522-.336-.912-.336s-.698.112-.922.336c-.218.224-.327.55-.327.98v1.46c0 .43.109.756.327.98.224.224.531.336.922.336zm3.75.596v-5.284h2.267c.525 0 .938.125 1.24.375.3.243.45.583.45 1.018 0 .365-.124.66-.374.884-.243.218-.57.327-.98.327v-.068c.442 0 .798.116 1.067.346.269.224.403.526.403.903 0 .468-.16.836-.48 1.105-.314.263-.75.394-1.307.394h-2.286zm.75-.672h1.536c.314 0 .564-.074.75-.221a.758.758 0 00.278-.615c0-.27-.093-.477-.278-.625-.186-.153-.436-.23-.75-.23h-1.537v1.69zm0-2.354h1.517c.282 0 .506-.07.672-.211a.704.704 0 00.26-.577.704.704 0 00-.26-.576c-.166-.148-.39-.221-.672-.221h-1.518v1.585zm6.88 3.122c-.41 0-.765-.08-1.066-.24a1.76 1.76 0 01-.701-.701 2.127 2.127 0 01-.25-1.047v-1.5c0-.403.083-.752.25-1.046.166-.301.4-.532.7-.692.302-.166.657-.25 1.067-.25.41 0 .765.084 1.066.25.301.16.535.39.702.692.166.294.25.643.25 1.047v.932H46.83v.567c0 .429.109.762.327.999.224.23.538.345.941.345.34 0 .615-.067.826-.201a.89.89 0 00.413-.586h.76a1.54 1.54 0 01-.644 1.047c-.359.256-.81.384-1.355.384zm1.268-3.065v-.422c0-.43-.109-.76-.326-.99-.218-.237-.532-.355-.942-.355-.403 0-.717.118-.941.355-.218.23-.327.56-.327.99v.336h2.613l-.077.087zm1.809 3.036v-.72h.192c.275 0 .477-.112.605-.337.128-.23.195-.611.202-1.143l.067-3.15h3.487V65h-.768v-4.592h-1.97l-.057 2.488c-.007.5-.068.91-.183 1.23-.109.32-.275.557-.5.71-.217.154-.502.231-.854.231h-.221zM57.537 65v-5.284h.74v3.007c0 .18-.007.372-.02.577a14.568 14.568 0 01-.067 1.018l2.239-4.602h.989V65h-.74v-3.007c0-.186.004-.378.01-.576l.038-.567c.02-.186.032-.34.039-.461L58.517 65h-.98zm11.38 0v-5.284h.739v3.007c0 .18-.007.372-.02.577a14.561 14.561 0 01-.067 1.018l2.239-4.602h.99V65h-.74v-3.007c0-.186.003-.378.01-.576.012-.199.025-.388.038-.567a9.26 9.26 0 00.038-.461L69.896 65h-.98zm5.689 0v-5.284h.768v2.248h2.344v-2.248h.769V65h-.769v-2.344h-2.344V65h-.768zm7.64.096c-.41 0-.769-.08-1.076-.24a1.761 1.761 0 01-.72-.682c-.167-.301-.25-.657-.25-1.067V61.61c0-.41.083-.762.25-1.057.172-.3.412-.532.72-.692.307-.16.666-.24 1.076-.24.602 0 1.085.163 1.45.49.365.327.554.772.567 1.336h-.759c-.013-.366-.131-.647-.355-.846-.218-.198-.52-.298-.903-.298-.391 0-.702.116-.932.346-.23.224-.346.544-.346.96v1.5c0 .41.115.73.346.96.23.23.541.346.932.346.384 0 .685-.1.903-.298.224-.205.342-.487.355-.845h.759c-.013.563-.202 1.008-.567 1.335-.365.327-.848.49-1.45.49zM87.54 65v-4.602h-1.92v-.682h4.61v.682h-1.92V65h-.769zm4.124 1.73v-7.014h.76v.932h.2l-.23.317c0-.416.135-.743.404-.98.275-.243.637-.365 1.085-.365.532 0 .955.176 1.268.529.32.345.48.82.48 1.421v1.566c0 .404-.073.753-.22 1.047a1.646 1.646 0 01-.615.673c-.256.16-.56.24-.913.24-.442 0-.8-.122-1.076-.365-.275-.243-.413-.57-.413-.98l.202.317h-.182l.01 1.076v1.585h-.76zm1.98-2.297c.383 0 .681-.115.893-.346.217-.23.326-.557.326-.98V61.61c0-.43-.109-.756-.326-.98-.212-.23-.51-.346-.894-.346-.371 0-.67.119-.893.355-.218.231-.327.555-.327.97v1.5c0 .416.109.742.327.98.224.23.522.345.893.345zm4.546 2.296l.778-2.065-1.96-4.948h.845l1.25 3.295c.05.128.099.273.143.433.052.153.09.281.116.384.032-.103.07-.234.115-.394s.09-.304.134-.432l1.172-3.286h.817l-2.603 7.013h-.807zM103.083 65v-5.284h.768v2.22h1l1.565-2.22h.875l-1.778 2.517L107.329 65h-.893l-1.585-2.402h-1V65h-.768zm7.217 0v-4.602h-1.921v-.682h4.611v.682h-1.921V65h-.769zm5.661.096c-.557 0-.996-.14-1.316-.423-.32-.288-.481-.675-.481-1.162 0-.48.157-.858.471-1.134.314-.281.737-.422 1.268-.422h1.681v-.557c0-.353-.102-.625-.307-.817-.205-.192-.496-.288-.874-.288-.333 0-.612.073-.836.22a.818.818 0 00-.375.596h-.768c.064-.454.275-.816.634-1.085.365-.27.82-.404 1.364-.404.589 0 1.057.16 1.403.48.345.314.518.74.518 1.278V65h-.749v-1.028h-.125l.144-.154c0 .391-.15.702-.451.932-.301.23-.702.346-1.201.346zm.182-.615c.423 0 .769-.105 1.038-.317a1 1 0 00.403-.826v-.797h-1.671c-.301 0-.541.083-.721.25-.179.166-.269.393-.269.681 0 .308.109.554.327.74.218.18.516.27.893.27zm3.26.519l1.152-2.71-1.076-2.574h.74l.951 2.335h.567v-2.335h.653v2.335h.548l.98-2.335h.73l-1.076 2.546L124.725 65h-.769l-.989-2.43h-.577V65h-.653v-2.43h-.576L120.152 65h-.749zm11.485 1.345v-1.998h.432c.109-.122.221-.34.336-.653.122-.32.186-.708.192-1.163l.058-2.815h3.362v4.63h.682v1.999h-.682V65h-3.698v1.345h-.682zm1.248-1.998h2.373v-3.949h-1.883l-.038 2.143c-.006.48-.061.874-.163 1.181-.103.308-.199.516-.289.625zm4.384.72v-.72h.192c.275 0 .477-.112.605-.337.128-.23.195-.611.202-1.143l.067-3.15h3.487V65h-.768v-4.592h-1.97l-.057 2.488c-.007.5-.068.91-.183 1.23-.109.32-.275.557-.5.71-.217.154-.502.231-.855.231h-.22zm6.064-.067l1.345-2.046c-.41-.09-.727-.272-.951-.548-.224-.275-.337-.621-.337-1.037 0-.513.17-.916.51-1.21.345-.295.813-.443 1.402-.443h2.21V65h-.769v-1.979h-1.277L143.468 65h-.884zm1.969-2.661h1.441v-1.94h-1.441c-.346 0-.621.086-.826.259-.205.173-.307.41-.307.71 0 .302.102.539.307.712.205.172.48.259.826.259zM25.349 84.096a2.3 2.3 0 01-1.076-.24 1.761 1.761 0 01-.72-.682c-.167-.301-.25-.657-.25-1.067V80.61c0-.41.083-.762.25-1.057.172-.3.413-.532.72-.692a2.3 2.3 0 011.076-.24c.602 0 1.086.163 1.45.49.366.327.555.772.567 1.335h-.758c-.013-.365-.132-.646-.356-.845-.218-.198-.519-.298-.903-.298-.39 0-.701.116-.932.346-.23.224-.346.544-.346.96v1.5c0 .41.116.73.346.96.23.23.541.346.932.346.384 0 .685-.1.903-.298.224-.205.343-.487.356-.845h.758c-.012.563-.201 1.008-.566 1.335-.365.327-.849.49-1.45.49zm5.68-.01c-.41 0-.765-.08-1.066-.24a1.697 1.697 0 01-.701-.691c-.167-.301-.25-.657-.25-1.067v-1.46c0-.416.083-.772.25-1.066.166-.301.4-.532.7-.692.302-.16.657-.24 1.067-.24.41 0 .765.08 1.067.24.3.16.534.39.7.692.167.294.25.647.25 1.056v1.47c0 .41-.083.766-.25 1.067a1.7 1.7 0 01-.7.691c-.301.16-.657.24-1.067.24zm0-.682c.397 0 .705-.112.922-.336.218-.224.327-.55.327-.98v-1.46c0-.43-.112-.756-.336-.98-.218-.224-.522-.336-.913-.336-.39 0-.698.112-.922.336-.218.224-.327.55-.327.98v1.46c0 .43.11.756.327.98.224.224.532.336.922.336zm5.305.596v-4.602h-1.92v-.682h4.61v.682h-1.92V84h-.77zm4.124 1.73v-7.014h.76v.932h.2l-.23.317c0-.416.135-.743.404-.98.275-.243.637-.365 1.085-.365.532 0 .955.176 1.269.529.32.345.48.82.48 1.421v1.566c0 .404-.074.753-.221 1.047a1.645 1.645 0 01-.615.673c-.256.16-.56.24-.913.24-.441 0-.8-.122-1.075-.365-.276-.243-.414-.57-.414-.98l.202.317h-.182l.01 1.076v1.585h-.76zm1.98-2.297c.383 0 .681-.115.893-.346.217-.23.326-.557.326-.98V80.61c0-.43-.109-.756-.326-.98-.212-.23-.51-.346-.894-.346-.371 0-.669.119-.893.355-.218.231-.327.554-.327.97v1.5c0 .416.11.742.327.98.224.23.522.345.893.345zm4.546 2.296l.778-2.065-1.96-4.948h.846l1.248 3.295c.052.129.1.273.145.433.05.153.09.281.115.384.032-.103.07-.234.115-.394s.09-.304.135-.432l1.172-3.286h.816l-2.603 7.013h-.807zm4.248-.384v-1.998h.433c.108-.122.22-.34.336-.653.122-.32.186-.708.192-1.163l.058-2.815h3.362v4.63h.682v1.999h-.682V84h-3.699v1.345h-.682zm1.25-1.998h2.372v-3.949h-1.883l-.038 2.143c-.007.48-.061.874-.164 1.181-.102.308-.198.516-.288.625zm5.055.653v-5.284h.768v2.248h2.344v-2.248h.769V84h-.769v-2.344h-2.344V84h-.768zm5.69 0v-5.284h.74v3.007c0 .18-.007.372-.02.577a14.568 14.568 0 01-.067 1.018l2.238-4.602h.99V84h-.74v-3.007c0-.186.003-.378.01-.576.012-.199.025-.388.038-.567.02-.186.032-.34.038-.461L64.206 84h-.98zm5.718 0v-5.284h.769v2.22h.999l1.566-2.22h.874l-1.778 2.517L73.192 84h-.893l-1.585-2.402h-1V84h-.768zm7.601.087c-.41 0-.765-.08-1.066-.24a1.697 1.697 0 01-.701-.692c-.167-.301-.25-.657-.25-1.067v-1.46c0-.416.083-.772.25-1.066.166-.301.4-.532.701-.692.301-.16.656-.24 1.066-.24.41 0 .766.08 1.067.24.3.16.534.39.701.692.167.294.25.647.25 1.056v1.47c0 .41-.083.766-.25 1.067-.166.3-.4.531-.701.691-.301.16-.657.24-1.067.24zm0-.683c.397 0 .705-.112.923-.336.217-.224.326-.55.326-.98v-1.46c0-.43-.112-.756-.336-.98-.218-.224-.522-.336-.913-.336-.39 0-.698.112-.922.336-.218.224-.326.55-.326.98v1.46c0 .43.108.756.326.98.224.224.532.336.922.336zm3.75.596v-5.284h2.267c.525 0 .938.125 1.239.375.3.243.451.583.451 1.018 0 .365-.124.66-.374.884-.244.218-.57.327-.98.327v-.067c.442 0 .797.115 1.066.345.27.225.404.526.404.903 0 .468-.16.836-.48 1.105-.314.263-.75.394-1.307.394h-2.286zm.749-.672h1.537c.314 0 .564-.074.75-.221a.758.758 0 00.278-.615c0-.27-.093-.477-.279-.625-.186-.153-.435-.23-.75-.23h-1.536v1.69zm0-2.354h1.518c.281 0 .506-.07.672-.212a.704.704 0 00.26-.576.704.704 0 00-.26-.576c-.166-.148-.39-.221-.672-.221h-1.518v1.585zm12.57 3.122c-.627 0-1.114-.18-1.46-.538-.34-.359-.51-.842-.51-1.45v-5.12h.76v5.12c0 .403.102.723.307.96.205.23.506.346.903.346s.698-.115.903-.346c.205-.237.308-.557.308-.96v-5.12h.759v5.12c0 .614-.17 1.101-.51 1.46-.339.352-.826.528-1.46.528zm3.74-.096v-5.284h.759v.98h.192l-.212.279c0-.423.129-.753.385-.99.262-.243.618-.365 1.066-.365.525 0 .945.167 1.259.5.313.326.47.771.47 1.335V84h-.759v-3.458c0-.404-.105-.715-.317-.932-.21-.218-.5-.327-.864-.327-.378 0-.676.115-.894.346-.217.23-.326.557-.326.98V84h-.76zm5.603 0v-.692h1.883v-3.9h-1.643v-.692h2.411v4.592h1.787V84h-4.438zm2.181-6.254a.722.722 0 01-.481-.154.538.538 0 01-.173-.422.58.58 0 01.173-.442.695.695 0 01.481-.164c.198 0 .355.055.47.164a.563.563 0 01.183.442.54.54 0 01-.183.422c-.115.103-.272.154-.47.154zm5.574 6.35a2.3 2.3 0 01-1.076-.24 1.763 1.763 0 01-.72-.682c-.167-.301-.25-.657-.25-1.067V80.61c0-.41.083-.762.25-1.057.173-.3.413-.532.72-.692a2.3 2.3 0 011.076-.24c.602 0 1.086.163 1.451.49.365.327.554.772.567 1.335h-.759c-.013-.365-.132-.646-.356-.845-.218-.198-.519-.298-.903-.298-.391 0-.701.116-.932.346-.23.224-.346.544-.346.96v1.5c0 .41.116.73.346.96.231.23.541.346.932.346.384 0 .685-.1.903-.298.224-.205.343-.487.356-.845h.759c-.013.563-.202 1.008-.567 1.335-.365.327-.849.49-1.451.49zm5.661-.01c-.41 0-.765-.08-1.066-.24a1.702 1.702 0 01-.702-.691c-.166-.301-.249-.657-.249-1.067v-1.46c0-.416.083-.772.249-1.066.167-.301.401-.532.702-.692.301-.16.656-.24 1.066-.24.41 0 .765.08 1.066.24.301.16.535.39.702.692.166.294.249.647.249 1.056v1.47c0 .41-.083.766-.249 1.067a1.702 1.702 0 01-.702.691c-.301.16-.656.24-1.066.24zm0-.682c.397 0 .704-.112.922-.336.218-.224.327-.55.327-.98v-1.46c0-.43-.112-.756-.336-.98-.218-.224-.522-.336-.913-.336s-.698.112-.922.336c-.218.224-.327.55-.327.98v1.46c0 .43.109.756.327.98.224.224.531.336.922.336zm5.718.692c-.409 0-.768-.08-1.076-.24a1.763 1.763 0 01-.72-.682c-.167-.301-.25-.657-.25-1.067V80.61c0-.41.083-.762.25-1.057.173-.3.413-.532.72-.692.308-.16.667-.24 1.076-.24.602 0 1.086.163 1.451.49.365.327.554.772.567 1.335h-.759c-.013-.365-.131-.646-.356-.845-.217-.198-.518-.298-.903-.298-.39 0-.701.116-.931.346-.231.224-.346.544-.346.96v1.5c0 .41.115.73.346.96.23.23.541.346.931.346.385 0 .686-.1.903-.298.225-.205.343-.487.356-.845h.759c-.013.563-.202 1.008-.567 1.335-.365.327-.849.49-1.451.49zm5.661-.01c-.41 0-.765-.08-1.066-.24a1.693 1.693 0 01-.701-.691c-.167-.301-.25-.657-.25-1.067v-1.46c0-.416.083-.772.25-1.066.166-.301.4-.532.701-.692.301-.16.656-.24 1.066-.24.41 0 .766.08 1.067.24.301.16.534.39.701.692.166.294.25.647.25 1.056v1.47c0 .41-.084.766-.25 1.067a1.7 1.7 0 01-.701.691c-.301.16-.657.24-1.067.24zm0-.682c.397 0 .705-.112.923-.336.217-.224.326-.55.326-.98v-1.46c0-.43-.112-.756-.336-.98-.218-.224-.522-.336-.913-.336-.39 0-.698.112-.922.336-.218.224-.327.55-.327.98v1.46c0 .43.109.756.327.98.224.224.532.336.922.336zm3.471.596v-5.284h.672v.654h.144l-.105.21c0-.294.077-.528.23-.7.16-.173.378-.26.653-.26.289 0 .513.103.673.308.166.205.253.493.259.864l-.201-.422h.317l-.135.21c0-.294.08-.528.24-.7.16-.173.378-.26.654-.26.326 0 .579.122.758.365.186.244.279.567.279.97V84h-.711v-4.044c0-.231-.051-.41-.154-.538a.51.51 0 00-.432-.202.539.539 0 00-.442.202c-.109.128-.163.307-.163.538V84h-.634v-4.044c0-.237-.055-.42-.163-.548a.524.524 0 00-.433-.192.522.522 0 00-.432.192c-.103.128-.157.31-.163.548V84h-.711zm7.188 0v-4.064h-1.556v-.691h1.556v-.951c0-.404.125-.72.375-.951.256-.237.605-.356 1.047-.356h1.527v.692h-1.527c-.211 0-.375.054-.49.163-.109.103-.163.253-.163.452v.95h2.18v.692h-2.18V84h-.769zm6.41.087c-.41 0-.765-.08-1.066-.24a1.693 1.693 0 01-.701-.692c-.167-.301-.25-.657-.25-1.067v-1.46c0-.416.083-.772.25-1.066.166-.301.4-.532.701-.692.301-.16.656-.24 1.066-.24.41 0 .766.08 1.067.24.301.16.534.39.701.692.166.294.25.647.25 1.056v1.47c0 .41-.084.766-.25 1.067a1.7 1.7 0 01-.701.691c-.301.16-.657.24-1.067.24zm0-.683c.397 0 .705-.112.922-.336.218-.224.327-.55.327-.98v-1.46c0-.43-.112-.756-.336-.98-.218-.224-.522-.336-.913-.336-.39 0-.698.112-.922.336-.218.224-.327.55-.327.98v1.46c0 .43.109.756.327.98.224.224.532.336.922.336zm3.913.596v-5.284h.749v.98h.182l-.269.605c.007-.538.138-.95.394-1.239.257-.294.625-.442 1.105-.442.557 0 .999.176 1.326.529.333.345.499.813.499 1.402v.317h-.778v-.26c0-.428-.105-.758-.317-.989-.211-.237-.512-.355-.903-.355-.378 0-.675.118-.893.355-.218.237-.327.567-.327.99V84h-.768zm8.043 0c-.442 0-.785-.115-1.028-.346-.243-.237-.365-.57-.365-.999v-3.247h-1.499v-.692h1.499v-1.489h.769v1.49h2.123v.691h-2.123v3.247c0 .436.208.653.624.653h1.403V84h-1.403zm-133.38 19v-5.284h3.882V103h-.768v-4.592h-2.345V103H23.4zm7.631.086c-.41 0-.765-.08-1.066-.24a1.695 1.695 0 01-.701-.691c-.167-.301-.25-.657-.25-1.067v-1.46c0-.416.083-.772.25-1.066.166-.301.4-.532.7-.692.302-.16.657-.24 1.067-.24.41 0 .765.08 1.067.24.3.16.534.39.7.692.167.294.25.647.25 1.056v1.47c0 .41-.083.766-.25 1.067-.166.301-.4.531-.7.691-.301.16-.657.24-1.067.24zm0-.682c.397 0 .705-.112.922-.336.218-.224.327-.551.327-.98v-1.46c0-.43-.112-.756-.336-.98-.218-.224-.522-.336-.913-.336-.39 0-.698.112-.922.336-.218.224-.327.55-.327.98v1.46c0 .429.11.756.327.98.224.224.532.336.922.336zm9.439.596v-5.284h.74v3.007c0 .18-.007.372-.02.577a14.544 14.544 0 01-.067 1.018l2.238-4.602h.99V103h-.74v-3.007c0-.186.003-.378.01-.576l.038-.567c.02-.186.032-.34.039-.461L41.448 103h-.98zm7.64.096a2.3 2.3 0 01-1.076-.24 1.765 1.765 0 01-.72-.682c-.167-.301-.25-.657-.25-1.067v-1.498c0-.41.083-.762.25-1.057.172-.3.412-.532.72-.692.307-.16.666-.24 1.076-.24.602 0 1.085.163 1.45.49.365.327.554.772.567 1.335h-.759c-.013-.365-.131-.646-.355-.845-.218-.198-.519-.298-.903-.298-.391 0-.702.116-.932.346-.23.224-.346.544-.346.96v1.499c0 .41.115.731.346.961.23.231.541.346.932.346.384 0 .685-.099.903-.298.224-.205.342-.487.355-.845h.76c-.014.563-.203 1.008-.568 1.335-.365.327-.848.49-1.45.49zm3.74-.096v-5.284h3.88V103h-.768v-4.592h-2.344V103h-.769zm7.63.086c-.41 0-.766-.08-1.067-.24a1.694 1.694 0 01-.701-.691c-.167-.301-.25-.657-.25-1.067v-1.46c0-.416.083-.772.25-1.066.166-.301.4-.532.701-.692.301-.16.657-.24 1.066-.24.41 0 .766.08 1.067.24.3.16.535.39.701.692.167.294.25.647.25 1.056v1.47c0 .41-.083.766-.25 1.067-.166.301-.4.531-.701.691-.301.16-.657.24-1.067.24zm0-.682c.396 0 .704-.112.922-.336.217-.224.326-.551.326-.98v-1.46c0-.43-.112-.756-.336-.98-.218-.224-.522-.336-.913-.336-.39 0-.698.112-.922.336-.218.224-.327.55-.327.98v1.46c0 .429.11.756.327.98.224.224.532.336.922.336zm3.076.663v-.72h.192c.276 0 .477-.112.605-.336.129-.231.196-.612.202-1.144l.067-3.15h3.488V103h-.769v-4.592h-1.97l-.057 2.488c-.006.5-.067.91-.183 1.23-.108.32-.275.557-.499.711-.218.153-.503.23-.855.23h-.221zm6.41-.067v-5.284h.76v1.94h1.584c.59 0 1.054.151 1.393.452.346.295.519.702.519 1.22 0 .513-.173.919-.519 1.22-.34.301-.804.452-1.393.452h-2.344zm.76-.692h1.584c.365 0 .644-.083.836-.249.192-.173.288-.417.288-.731 0-.313-.096-.554-.288-.72-.192-.173-.47-.259-.836-.259h-1.585v1.959zm6.573.769c-.551 0-.996-.119-1.336-.356a1.43 1.43 0 01-.615-.96h.798c.051.185.176.339.374.461.205.115.465.173.779.173h.47c.327 0 .583-.08.769-.24a.794.794 0 00.288-.625.849.849 0 00-.269-.653c-.18-.167-.435-.25-.769-.25h-1.181v-.663h1.162c.301 0 .532-.077.692-.23a.774.774 0 00.25-.596.792.792 0 00-.115-.432.727.727 0 00-.337-.279 1.166 1.166 0 00-.509-.106h-.5c-.288 0-.525.065-.71.193a.76.76 0 00-.346.47h-.797c.064-.397.259-.72.586-.97.333-.25.755-.375 1.268-.375h.5c.358 0 .668.061.931.183a1.4 1.4 0 01.605.51c.148.217.221.473.221.768 0 .32-.1.586-.298.797-.192.205-.464.32-.816.346v.038c.422.026.733.151.932.375.198.218.297.519.297.903 0 .455-.17.823-.509 1.105-.333.275-.781.413-1.345.413h-.47zm5.939.009c-.41 0-.765-.08-1.066-.24a1.695 1.695 0 01-.702-.691c-.166-.301-.25-.657-.25-1.067v-1.46c0-.416.084-.772.25-1.066.167-.301.4-.532.702-.692.3-.16.656-.24 1.066-.24.41 0 .765.08 1.066.24.301.16.535.39.702.692.166.294.25.647.25 1.056v1.47c0 .41-.084.766-.25 1.067-.167.301-.4.531-.702.691-.3.16-.656.24-1.066.24zm0-.682c.397 0 .704-.112.922-.336.218-.224.327-.551.327-.98v-1.46c0-.43-.112-.756-.336-.98-.218-.224-.522-.336-.913-.336-.39 0-.698.112-.922.336-.218.224-.327.55-.327.98v1.46c0 .429.109.756.327.98.224.224.531.336.922.336zm3.75.596v-5.284h2.266c.526 0 .939.125 1.24.375.3.243.451.583.451 1.018 0 .365-.125.66-.375.884-.243.218-.57.327-.98.327v-.068c.443 0 .798.116 1.067.346.269.224.403.525.403.903 0 .468-.16.836-.48 1.105-.314.263-.75.394-1.306.394h-2.287zm.748-.672h1.538c.313 0 .563-.074.749-.221a.758.758 0 00.278-.615c0-.269-.092-.477-.278-.625-.186-.153-.436-.23-.75-.23h-1.537v1.691zm0-2.354h1.518c.282 0 .506-.07.673-.212a.704.704 0 00.26-.576.704.704 0 00-.26-.576c-.167-.148-.39-.221-.673-.221h-1.518v1.585zm6.468 3.122c-.557 0-.996-.141-1.316-.423-.32-.288-.48-.675-.48-1.162 0-.48.157-.858.47-1.134.314-.281.737-.422 1.269-.422h1.68v-.558c0-.352-.102-.624-.307-.816-.205-.192-.496-.288-.874-.288-.333 0-.612.073-.836.22a.819.819 0 00-.374.596h-.769c.064-.454.276-.816.634-1.085.365-.27.82-.404 1.364-.404.59 0 1.057.16 1.403.48.346.314.519.74.519 1.278V103h-.75v-1.028h-.124l.144-.154c0 .391-.15.702-.452.932-.3.231-.701.346-1.2.346zm.183-.615c.422 0 .768-.105 1.037-.317a1 1 0 00.404-.826v-.797h-1.672c-.3 0-.541.083-.72.249-.18.167-.27.394-.27.683 0 .307.11.554.327.739.218.18.516.269.894.269zm3.98.519v-5.284h.768v2.248h2.344v-2.248h.769V103h-.769v-2.344h-2.344V103h-.769zm5.689 0v-5.284h.74v3.007c0 .18-.007.372-.019.577a15.365 15.365 0 01-.068 1.018l2.239-4.602h.989V103h-.74v-3.007c0-.186.004-.378.01-.576l.039-.567a9.26 9.26 0 00.038-.461L104.034 103h-.98zm8.456.096c-.441 0-.797-.147-1.066-.442-.262-.301-.394-.698-.394-1.191v-.836h-.912V103h-.702v-5.284h.702v2.296h.912v-.759c0-.5.132-.896.394-1.19.263-.296.618-.443 1.066-.443.468 0 .843.147 1.124.442.282.295.423.692.423 1.191v2.21c0 .493-.141.89-.423 1.191-.281.295-.656.442-1.124.442zm0-.605c.263 0 .468-.09.615-.269.148-.186.221-.439.221-.759v-2.21c0-.32-.073-.57-.221-.749-.147-.186-.352-.279-.615-.279a.731.731 0 00-.605.279c-.147.18-.221.43-.221.75v2.209c0 .32.074.573.221.759a.743.743 0 00.605.269zm10.141.605c-.558 0-.996-.141-1.317-.423-.32-.288-.48-.675-.48-1.162 0-.48.157-.858.471-1.134.314-.281.736-.422 1.268-.422h1.681v-.558c0-.352-.102-.624-.307-.816-.205-.192-.497-.288-.875-.288-.333 0-.611.073-.835.22a.818.818 0 00-.375.596h-.769c.064-.454.276-.816.634-1.085.366-.27.82-.404 1.365-.404.589 0 1.056.16 1.402.48.346.314.519.74.519 1.278V103h-.749v-1.028h-.125l.144-.154c0 .391-.151.702-.452.932-.301.231-.701.346-1.2.346zm.182-.615c.423 0 .769-.105 1.038-.317.269-.211.403-.487.403-.826v-.797h-1.672c-.301 0-.541.083-.72.249-.179.167-.269.394-.269.683 0 .307.109.554.327.739.217.18.515.269.893.269zm3.365 1.864v-1.998h.432c.109-.122.221-.34.336-.654.122-.32.186-.707.193-1.162l.057-2.815h3.363v4.631h.682v1.998h-.682V103h-3.699v1.345h-.682zm1.249-1.998h2.373v-3.949h-1.883l-.039 2.143c-.006.48-.061.874-.163 1.181-.103.308-.199.516-.288.625zm4.882.653v-5.284h1.057l.769 2.152a13.8 13.8 0 01.307 1.019c.032-.109.074-.26.125-.452.058-.192.118-.384.183-.576l.739-2.143h1.047V103h-.739v-1.268c0-.275.003-.57.009-.884l.019-.941c.007-.314.017-.609.029-.884.013-.282.023-.529.029-.74l-1.047 3.132h-.807l-1.047-3.113c.013.256.022.58.029.97l.019 1.221c.013.429.019.842.019 1.239V103h-.74zm5.863 0v-5.284h.74v3.007c0 .18-.007.372-.019.577a15.365 15.365 0 01-.068 1.018l2.239-4.602h.989V103h-.74v-3.007c0-.186.004-.378.01-.576l.038-.567c.02-.186.032-.34.039-.461L138.172 103h-.98zm5.69 0v-5.284h.768v2.248h2.344v-2.248h.769V103h-.769v-2.344h-2.344V103h-.768zm6.093-2.834v-.672h3.074v.672h-3.074zM23.399 123v-5.284h3.881V123h-.768v-4.592h-2.345V123H23.4zm7.217.096c-.557 0-.996-.141-1.316-.423-.32-.288-.48-.675-.48-1.162 0-.48.157-.858.47-1.134.314-.281.737-.422 1.268-.422h1.682v-.558c0-.352-.103-.624-.308-.816-.205-.192-.496-.288-.874-.288-.333 0-.612.073-.836.221a.817.817 0 00-.375.595h-.768a1.58 1.58 0 01.634-1.085c.365-.269.82-.404 1.364-.404.59 0 1.057.16 1.403.481.346.313.519.739.519 1.277V123h-.75v-1.028h-.125l.144-.154c0 .391-.15.702-.451.932-.301.231-.701.346-1.201.346zm.183-.615c.422 0 .768-.105 1.037-.317a1 1 0 00.404-.826v-.797h-1.672c-.301 0-.541.083-.72.249-.18.167-.27.394-.27.683 0 .307.11.554.327.739.218.18.516.269.894.269zm3.98.519v-5.284h.768v2.248h2.344v-2.248h.768V123h-.768v-2.344h-2.344V123h-.769zm7.63.096c-.41 0-.766-.08-1.067-.24a1.762 1.762 0 01-.701-.701 2.13 2.13 0 01-.25-1.048v-1.498c0-.404.083-.753.25-1.047.166-.301.4-.532.701-.692.301-.167.657-.25 1.066-.25.41 0 .766.083 1.067.25.3.16.535.391.701.692.167.294.25.643.25 1.047v.932H41.14v.566c0 .43.11.763.327 1 .224.23.538.345.941.345.34 0 .615-.067.827-.201a.892.892 0 00.413-.586h.759a1.53 1.53 0 01-.644 1.047c-.359.256-.81.384-1.355.384zm1.267-3.064v-.423c0-.429-.108-.759-.326-.99-.218-.237-.532-.355-.942-.355-.403 0-.717.118-.941.355-.218.231-.327.561-.327.99v.336h2.613l-.077.087zm1.81 3.035v-.72h.191c.276 0 .477-.112.605-.336.129-.231.196-.612.202-1.144l.067-3.151h3.488V123h-.769v-4.592H47.3l-.057 2.488c-.006.5-.067.91-.182 1.23-.11.32-.276.557-.5.711-.218.153-.503.23-.855.23h-.22zm6.361-.067v-5.284h.74v3.007c0 .18-.007.372-.02.577a14.544 14.544 0 01-.067 1.018l2.239-4.602h.99V123h-.74v-3.007c0-.186.003-.378.01-.576.012-.199.025-.388.038-.567a9.26 9.26 0 00.038-.461L52.827 123h-.98zm11.38 0v-5.284h.74v3.007c0 .18-.007.372-.02.577a14.544 14.544 0 01-.067 1.018l2.238-4.602h.99V123h-.74v-3.007c0-.186.003-.378.01-.576.012-.199.025-.388.038-.567.02-.186.032-.34.038-.461L64.206 123h-.98zm12.205 1.729l.778-2.065-1.96-4.948h.846l1.249 3.295c.05.128.099.273.144.433.051.153.09.282.115.384.032-.102.07-.234.115-.394s.09-.304.135-.432l1.172-3.286h.816l-2.603 7.013h-.807zM80.296 123v-5.284h3.88V123h-.768v-4.592h-2.344V123h-.768zm5.68 1.729v-7.013h.758v.932h.202l-.23.317c0-.416.134-.743.403-.98.276-.243.637-.365 1.086-.365.531 0 .954.176 1.268.529.32.345.48.819.48 1.421v1.566c0 .404-.074.753-.22 1.047a1.641 1.641 0 01-.616.673c-.256.16-.56.24-.912.24-.442 0-.8-.122-1.076-.365s-.413-.57-.413-.98l.201.317h-.182l.01 1.076v1.585h-.76zm1.978-2.296c.385 0 .683-.115.894-.346.218-.23.327-.557.327-.98v-1.498c0-.429-.11-.756-.327-.98-.211-.231-.51-.346-.894-.346-.371 0-.669.119-.893.356-.218.23-.327.554-.327.97v1.498c0 .417.11.743.327.98.224.231.522.346.893.346zm5.248.663c-.557 0-.996-.141-1.316-.423-.32-.288-.48-.675-.48-1.162 0-.48.157-.858.47-1.134.314-.281.737-.422 1.269-.422h1.68v-.558c0-.352-.102-.624-.307-.816-.205-.192-.496-.288-.874-.288-.333 0-.612.073-.836.221a.817.817 0 00-.374.595h-.769a1.58 1.58 0 01.634-1.085c.365-.269.82-.404 1.364-.404.59 0 1.057.16 1.403.481.346.313.519.739.519 1.277V123h-.75v-1.028h-.124l.144-.154c0 .391-.15.702-.452.932-.3.231-.701.346-1.2.346zm.183-.615c.422 0 .768-.105 1.037-.317a1 1 0 00.404-.826v-.797h-1.672c-.3 0-.541.083-.72.249-.18.167-.27.394-.27.683 0 .307.11.554.327.739.218.18.516.269.894.269zm3.98.519v-5.284h2.267c.525 0 .938.125 1.239.375.301.243.451.583.451 1.018 0 .365-.124.66-.374.884-.244.218-.57.327-.98.327v-.068c.442 0 .797.116 1.066.346.269.224.404.525.404.903 0 .468-.16.836-.481 1.105-.313.263-.749.394-1.306.394h-2.287zm.749-.672h1.537c.314 0 .563-.074.749-.221a.758.758 0 00.279-.615c0-.269-.093-.477-.279-.625-.186-.153-.435-.23-.75-.23h-1.536v1.691zm0-2.354h1.518c.281 0 .506-.071.672-.211a.705.705 0 00.259-.577.703.703 0 00-.259-.576c-.166-.148-.39-.221-.672-.221h-1.518v1.585zm4.268 3.093v-.72h.192c.275 0 .477-.112.605-.336.128-.231.195-.612.202-1.144l.067-3.151h3.487V123h-.768v-4.592h-1.97l-.057 2.488c-.007.5-.068.91-.183 1.23-.109.32-.275.557-.499.711-.218.153-.503.23-.855.23h-.221zm8.302.029c-.41 0-.765-.08-1.066-.24a1.758 1.758 0 01-.701-.701 2.124 2.124 0 01-.25-1.048v-1.498c0-.404.083-.753.25-1.047.166-.301.4-.532.701-.692.301-.167.656-.25 1.066-.25.41 0 .766.083 1.067.25a1.7 1.7 0 01.701.692c.166.294.25.643.25 1.047v.932h-3.286v.566c0 .43.109.763.327 1 .224.23.538.345.941.345.34 0 .615-.067.826-.201a.893.893 0 00.414-.586h.759a1.534 1.534 0 01-.644 1.047c-.359.256-.81.384-1.355.384zm1.268-3.064v-.423c0-.429-.108-.759-.326-.99-.218-.237-.532-.355-.942-.355-.403 0-.717.118-.941.355-.218.231-.327.561-.327.99v.336h2.613l-.077.087zm2.481 2.968v-5.284h.769v2.248h2.344v-2.248h.769V123h-.769v-2.344h-2.344V123h-.769zm5.69 0v-5.284h.74v3.007c0 .18-.007.372-.019.577a15.365 15.365 0 01-.068 1.018l2.239-4.602h.989V123h-.74v-3.007c0-.186.004-.378.01-.576l.038-.567c.02-.186.033-.34.039-.461L121.103 123h-.98zm8.456.096c-.441 0-.797-.147-1.066-.442-.262-.301-.394-.698-.394-1.191v-.836h-.912V123h-.702v-5.284h.702v2.296h.912v-.759c0-.499.132-.896.394-1.191.263-.294.618-.442 1.066-.442.468 0 .843.148 1.124.442.282.295.423.692.423 1.191v2.21c0 .493-.141.89-.423 1.191-.281.295-.656.442-1.124.442zm0-.605c.263 0 .468-.09.615-.269.148-.186.221-.439.221-.759v-2.21c0-.32-.073-.57-.221-.749-.147-.186-.352-.279-.615-.279a.73.73 0 00-.605.279c-.147.179-.221.429-.221.749v2.21c0 .32.074.573.221.759a.743.743 0 00.605.269zm-103.24 19.605c-.614 0-1.098-.182-1.45-.548-.352-.365-.529-.867-.529-1.508v-2.459c0-.833.209-1.473.625-1.921.416-.449 1.012-.673 1.787-.673h1.306v.759h-1.306c-.538 0-.948.16-1.23.48-.282.314-.423.766-.423 1.355v.663h.135l-.135.23c.007-.384.135-.685.385-.903.256-.217.605-.326 1.047-.326.563 0 .999.179 1.306.538.308.352.462.845.462 1.479v.778c0 .429-.08.798-.24 1.105a1.645 1.645 0 01-.673.711c-.295.16-.65.24-1.066.24zm0-.682c.391 0 .692-.118.904-.355.21-.237.317-.577.317-1.019v-.778c0-.435-.106-.775-.317-1.018-.212-.244-.513-.365-.903-.365-.391 0-.692.121-.904.365-.21.243-.317.583-.317 1.018v.778c0 .442.106.782.317 1.019.218.237.52.355.904.355zm5.69.672c-.41 0-.765-.08-1.066-.24a1.695 1.695 0 01-.701-.691c-.167-.301-.25-.657-.25-1.067v-1.46c0-.416.083-.772.25-1.066.166-.301.4-.532.7-.692.302-.16.657-.24 1.067-.24.41 0 .765.08 1.067.24.3.16.534.391.7.692.167.294.25.647.25 1.056v1.47c0 .41-.083.766-.25 1.067-.166.301-.4.531-.7.691-.301.16-.657.24-1.067.24zm0-.682c.397 0 .705-.112.922-.336.218-.224.327-.551.327-.98v-1.46c0-.429-.112-.756-.336-.98-.218-.224-.522-.336-.913-.336-.39 0-.698.112-.922.336-.218.224-.327.551-.327.98v1.46c0 .429.11.756.327.98.224.224.532.336.922.336zm5.305.596v-4.602h-1.92v-.682h4.61v.682h-1.92V142h-.77zm6.074.086c-.41 0-.765-.08-1.066-.24a1.695 1.695 0 01-.701-.691c-.167-.301-.25-.657-.25-1.067v-1.46c0-.416.083-.772.25-1.066.166-.301.4-.532.701-.692.301-.16.657-.24 1.066-.24.41 0 .766.08 1.067.24.3.16.535.391.701.692.167.294.25.647.25 1.056v1.47c0 .41-.083.766-.25 1.067-.166.301-.4.531-.701.691-.301.16-.657.24-1.067.24zm0-.682c.398 0 .705-.112.923-.336.217-.224.326-.551.326-.98v-1.46c0-.429-.112-.756-.336-.98-.218-.224-.522-.336-.913-.336-.39 0-.698.112-.922.336-.218.224-.326.551-.326.98v1.46c0 .429.108.756.326.98.224.224.532.336.922.336zm3.577.596v-5.284h1.056l.769 2.152a13.91 13.91 0 01.307 1.019c.032-.109.074-.26.125-.452.058-.192.119-.384.183-.576l.74-2.143h1.047V142h-.74v-1.268c0-.275.003-.57.01-.884l.019-.941c.006-.314.016-.609.029-.884.012-.282.022-.529.028-.74l-1.047 3.132h-.807l-1.047-3.113c.013.256.023.58.029.971l.02 1.22c.012.429.018.842.018 1.239V142h-.74zm7.803.096c-.237 0-.426-.067-.567-.202a.775.775 0 01-.202-.557c0-.243.068-.435.202-.576.14-.141.33-.212.567-.212.237 0 .422.071.557.212.14.141.211.333.211.576 0 .231-.07.416-.211.557-.135.135-.32.202-.557.202zM16.73 158.579c-.32 0-.583-.099-.788-.298-.199-.205-.298-.467-.298-.787 0-.321.1-.58.298-.779.205-.205.467-.307.788-.307.32 0 .58.102.778.307.205.199.307.458.307.779 0 .32-.102.582-.307.787-.199.199-.458.298-.778.298zM23.399 161v-7.013h3.881V161h-.768v-6.321h-2.345V161H23.4zm5.68 1.729v-7.013h.759v.932h.202l-.23.317c0-.416.134-.743.403-.98.275-.243.637-.365 1.085-.365.532 0 .954.176 1.268.529.32.345.48.819.48 1.421v1.566c0 .404-.073.753-.22 1.047a1.642 1.642 0 01-.615.673c-.256.16-.56.24-.913.24-.442 0-.8-.122-1.076-.365-.275-.243-.413-.57-.413-.98l.202.317h-.183l.01 1.076v1.585h-.759zm1.979-2.296c.384 0 .682-.115.893-.346.218-.23.327-.557.327-.98v-1.498c0-.429-.109-.756-.327-.98-.211-.231-.509-.346-.893-.346-.372 0-.67.119-.893.356-.218.23-.327.554-.327.97v1.498c0 .417.109.743.326.98.225.231.522.346.894.346zm5.66.663c-.41 0-.765-.08-1.066-.24a1.762 1.762 0 01-.7-.701 2.129 2.129 0 01-.25-1.048v-1.498c0-.404.083-.753.25-1.047.166-.301.4-.532.7-.692.301-.167.657-.25 1.067-.25.41 0 .765.083 1.066.25.301.16.535.391.701.692.167.294.25.643.25 1.047v.932h-3.285v.566c0 .43.109.763.326 1 .224.23.538.345.942.345.34 0 .615-.067.826-.201a.892.892 0 00.413-.586h.759a1.53 1.53 0 01-.644 1.047c-.358.256-.81.384-1.354.384zm1.269-3.064v-.423c0-.429-.109-.759-.327-.99-.217-.237-.531-.355-.941-.355-.404 0-.718.118-.942.355-.217.231-.326.561-.326.99v.336h2.613l-.077.087zm1.866 4.313v-1.998h.432c.11-.122.221-.34.337-.654.121-.32.185-.707.192-1.162l.057-2.815h3.363v4.631h.682v1.998h-.682V161h-3.699v1.345h-.682zm1.249-1.998h2.373v-3.949h-1.883l-.039 2.143c-.006.48-.06.874-.163 1.181-.102.308-.198.516-.288.625zm6.996.739c-.41 0-.765-.08-1.066-.24a1.695 1.695 0 01-.701-.691c-.167-.301-.25-.657-.25-1.067v-1.46c0-.416.083-.772.25-1.066.166-.301.4-.532.7-.692.302-.16.657-.24 1.067-.24.41 0 .765.08 1.066.24.301.16.535.391.702.692.166.294.25.647.25 1.056v1.47c0 .41-.084.766-.25 1.067-.167.301-.4.531-.702.691-.3.16-.656.24-1.066.24zm0-.682c.397 0 .705-.112.922-.336.218-.224.327-.551.327-.98v-1.46c0-.429-.112-.756-.336-.98-.218-.224-.522-.336-.913-.336-.39 0-.698.112-.922.336-.218.224-.327.551-.327.98v1.46c0 .429.11.756.327.98.224.224.531.336.922.336zm5.7.692c-.41 0-.77-.08-1.077-.24a1.764 1.764 0 01-.72-.682c-.167-.301-.25-.657-.25-1.067v-1.498c0-.41.083-.762.25-1.057a1.75 1.75 0 01.72-.692c.308-.16.667-.24 1.076-.24.602 0 1.086.164 1.451.49.365.327.554.772.567 1.336h-.76c-.012-.366-.13-.647-.355-.846-.217-.198-.518-.298-.903-.298-.39 0-.7.116-.931.346-.231.224-.346.545-.346.961v1.498c0 .41.115.731.345.961.231.231.542.346.932.346.385 0 .686-.099.903-.298.224-.205.343-.487.356-.845h.759c-.013.563-.202 1.008-.567 1.335-.365.327-.849.49-1.45.49zm5.295-.096v-4.602h-1.921v-.682h4.611v.682h-1.921V161h-.769zm5.661.096c-.557 0-.996-.141-1.316-.423-.32-.288-.48-.675-.48-1.162 0-.48.156-.858.47-1.134.314-.281.737-.422 1.268-.422h1.681v-.558c0-.352-.102-.624-.307-.816-.205-.192-.496-.288-.874-.288-.333 0-.612.073-.836.221a.817.817 0 00-.375.595h-.768a1.58 1.58 0 01.634-1.085c.365-.269.82-.404 1.364-.404.59 0 1.057.16 1.403.481.346.313.518.739.518 1.277V161h-.749v-1.028h-.125l.144-.154c0 .391-.15.702-.451.932-.301.231-.701.346-1.201.346zm.182-.615c.423 0 .769-.105 1.038-.317.269-.211.403-.487.403-.826v-.797h-1.671c-.301 0-.541.083-.72.249-.18.167-.27.394-.27.683 0 .307.11.554.327.739.218.18.516.269.893.269zm3.98.519v-5.284h2.267c.525 0 .939.125 1.24.375.3.243.451.583.451 1.018 0 .365-.125.66-.374.884-.244.218-.57.327-.98.327v-.068c.442 0 .797.116 1.066.346.269.224.403.525.403.903 0 .468-.16.836-.48 1.105-.314.263-.75.394-1.306.394h-2.287zm.75-.672h1.537c.313 0 .563-.074.749-.221a.759.759 0 00.279-.615c0-.269-.093-.477-.28-.625-.185-.153-.435-.23-.748-.23h-1.538v1.691zm0-2.354h1.517c.282 0 .506-.071.673-.211a.706.706 0 00.26-.577.704.704 0 00-.26-.576c-.167-.148-.39-.221-.673-.221h-1.518v1.585zm4.94 3.026v-5.284h.74v3.007c0 .18-.007.372-.02.577a14.544 14.544 0 01-.067 1.018l2.238-4.602h.99V161h-.74v-3.007c0-.186.003-.378.01-.576.013-.199.025-.388.038-.567.02-.186.032-.34.039-.461L75.586 161h-.98zm5.017.067v-.72h.192c.276 0 .477-.112.605-.336.128-.231.196-.612.202-1.144l.067-3.151h3.488V161h-.769v-4.592h-1.97l-.057 2.488c-.006.5-.067.91-.183 1.23-.108.32-.275.557-.5.711-.217.153-.502.23-.854.23h-.221zm6.362-.067v-5.284h.74v3.007c0 .18-.007.372-.02.577a14.544 14.544 0 01-.067 1.018l2.239-4.602h.99V161h-.74v-3.007c0-.186.003-.378.01-.576.012-.199.025-.388.038-.567a9.26 9.26 0 00.038-.461L86.965 161h-.98zm11.38 0v-5.284h3.881V161h-.769v-4.592h-2.344V161h-.769zm7.63.086c-.41 0-.766-.08-1.067-.24a1.697 1.697 0 01-.701-.691c-.167-.301-.25-.657-.25-1.067v-1.46c0-.416.083-.772.25-1.066a1.7 1.7 0 01.701-.692c.301-.16.657-.24 1.067-.24.41 0 .765.08 1.066.24.301.16.535.391.701.692.167.294.25.647.25 1.056v1.47c0 .41-.083.766-.25 1.067-.166.301-.4.531-.701.691-.301.16-.656.24-1.066.24zm0-.682c.397 0 .704-.112.922-.336.218-.224.327-.551.327-.98v-1.46c0-.429-.113-.756-.337-.98-.217-.224-.522-.336-.912-.336-.391 0-.698.112-.923.336-.217.224-.326.551-.326.98v1.46c0 .429.109.756.326.98.225.224.532.336.923.336zm3.134 1.941v-1.998h.432c.109-.122.221-.34.336-.654.122-.32.186-.707.193-1.162l.057-2.815h3.363v4.631h.682v1.998h-.682V161h-3.699v1.345h-.682zm1.249-1.998h2.373v-3.949h-1.883l-.039 2.143c-.006.48-.061.874-.163 1.181-.102.308-.199.516-.288.625zm5.046 2.382v-7.013h.759v.932h.201l-.23.317c0-.416.134-.743.403-.98.276-.243.638-.365 1.086-.365.532 0 .954.176 1.268.529.32.345.48.819.48 1.421v1.566c0 .404-.073.753-.221 1.047a1.641 1.641 0 01-.614.673c-.257.16-.561.24-.913.24-.442 0-.801-.122-1.076-.365s-.413-.57-.413-.98l.202.317h-.183l.01 1.076v1.585h-.759zm1.979-2.296c.384 0 .682-.115.893-.346.218-.23.327-.557.327-.98v-1.498c0-.429-.109-.756-.327-.98-.211-.231-.509-.346-.893-.346-.372 0-.669.119-.894.356-.217.23-.326.554-.326.97v1.498c0 .417.109.743.326.98.225.231.522.346.894.346zm5.661.653c-.41 0-.766-.08-1.067-.24a1.691 1.691 0 01-.701-.691c-.167-.301-.25-.657-.25-1.067v-1.46c0-.416.083-.772.25-1.066.166-.301.4-.532.701-.692.301-.16.657-.24 1.067-.24.409 0 .765.08 1.066.24.301.16.535.391.701.692.167.294.25.647.25 1.056v1.47c0 .41-.083.766-.25 1.067-.166.301-.4.531-.701.691-.301.16-.657.24-1.066.24zm0-.682c.397 0 .704-.112.922-.336.218-.224.326-.551.326-.98v-1.46c0-.429-.112-.756-.336-.98-.218-.224-.522-.336-.912-.336-.391 0-.698.112-.923.336-.217.224-.326.551-.326.98v1.46c0 .429.109.756.326.98.225.224.532.336.923.336zm5.689.692c-.615 0-1.098-.182-1.45-.548-.353-.365-.529-.867-.529-1.508v-2.459c0-.833.208-1.473.625-1.921.416-.449 1.012-.673 1.787-.673h1.306v.759h-1.306c-.538 0-.948.16-1.23.48-.282.314-.423.766-.423 1.355v.663h.135l-.135.23c.007-.384.135-.685.384-.903.257-.217.606-.326 1.048-.326.563 0 .999.179 1.306.538.308.352.461.845.461 1.479v.778c0 .429-.08.798-.24 1.105a1.65 1.65 0 01-.672.711c-.295.16-.65.24-1.067.24zm0-.682c.391 0 .692-.118.903-.355.212-.237.317-.577.317-1.019v-.778c0-.435-.105-.775-.317-1.018-.211-.244-.512-.365-.903-.365-.39 0-.691.121-.903.365-.211.243-.317.583-.317 1.018v.778c0 .442.106.782.317 1.019.218.237.519.355.903.355zm3.749.586v-5.284h.769v2.248h2.344v-2.248h.768V161h-.768v-2.344h-2.344V161h-.769zm7.631.086c-.41 0-.766-.08-1.067-.24a1.691 1.691 0 01-.701-.691c-.167-.301-.25-.657-.25-1.067v-1.46c0-.416.083-.772.25-1.066.166-.301.4-.532.701-.692.301-.16.657-.24 1.067-.24.409 0 .765.08 1.066.24.301.16.535.391.701.692.167.294.25.647.25 1.056v1.47c0 .41-.083.766-.25 1.067-.166.301-.4.531-.701.691-.301.16-.657.24-1.066.24zm0-.682c.397 0 .704-.112.922-.336.218-.224.326-.551.326-.98v-1.46c0-.429-.112-.756-.336-.98-.218-.224-.522-.336-.912-.336-.391 0-.699.112-.923.336-.217.224-.326.551-.326.98v1.46c0 .429.109.756.326.98.224.224.532.336.923.336zm5.689.692c-.41 0-.765-.08-1.066-.24a1.758 1.758 0 01-.701-.701 2.124 2.124 0 01-.25-1.048v-1.498c0-.404.083-.753.25-1.047.166-.301.4-.532.701-.692.301-.167.656-.25 1.066-.25.41 0 .766.083 1.067.25a1.7 1.7 0 01.701.692c.166.294.25.643.25 1.047v.932h-3.286v.566c0 .43.109.763.327 1 .224.23.538.345.941.345.34 0 .615-.067.826-.201a.889.889 0 00.413-.586h.759c-.07.442-.285.791-.643 1.047-.359.256-.81.384-1.355.384zm1.268-3.064v-.423c0-.429-.109-.759-.326-.99-.218-.237-.532-.355-.942-.355-.403 0-.717.118-.941.355-.218.231-.327.561-.327.99v.336h2.613l-.077.087zm-122.7 23.697v-7.013h.758v.932h.202l-.23.317c0-.416.134-.743.403-.98.275-.243.637-.365 1.085-.365.532 0 .955.176 1.269.529.32.345.48.819.48 1.421v1.566c0 .404-.074.753-.221 1.047a1.641 1.641 0 01-.615.673c-.256.16-.56.24-.913.24-.441 0-.8-.122-1.076-.365-.275-.243-.413-.57-.413-.98l.202.317h-.182l.01 1.076v1.585h-.76zm1.978-2.296c.385 0 .682-.115.894-.346.218-.23.326-.557.326-.98v-1.498c0-.429-.108-.756-.326-.98-.212-.231-.51-.346-.894-.346-.371 0-.669.119-.893.356-.218.23-.327.554-.327.97v1.498c0 .417.11.743.327.98.224.231.522.346.893.346zm4.547 2.296l.778-2.065-1.96-4.948h.845l1.25 3.295c.05.128.099.273.143.433.052.153.09.282.116.384.032-.102.07-.234.115-.394s.09-.304.134-.432l1.173-3.286h.816l-2.603 7.013h-.807zM34.807 180v-5.284h.769v2.219h.999l1.566-2.219h.874l-1.778 2.517L39.053 180h-.893l-1.585-2.402h-1V180h-.768zm7.601.086c-.41 0-.765-.08-1.066-.24a1.695 1.695 0 01-.701-.691c-.167-.301-.25-.657-.25-1.067v-1.46c0-.416.083-.772.25-1.066.166-.301.4-.532.701-.692.301-.16.657-.24 1.066-.24.41 0 .766.08 1.067.24.3.16.535.391.701.692.167.294.25.647.25 1.056v1.47c0 .41-.083.766-.25 1.067-.166.301-.4.531-.701.691-.301.16-.657.24-1.067.24zm0-.682c.398 0 .705-.112.923-.336.217-.224.326-.551.326-.98v-1.46c0-.429-.112-.756-.336-.98-.218-.224-.522-.336-.913-.336-.39 0-.698.112-.922.336-.218.224-.326.551-.326.98v1.46c0 .429.108.756.326.98.224.224.532.336.922.336zm3.75.596v-5.284h2.267c.525 0 .938.125 1.239.375.301.243.451.583.451 1.018 0 .365-.124.66-.374.884-.243.218-.57.327-.98.327v-.068c.442 0 .797.116 1.066.346.27.224.404.525.404.903 0 .468-.16.836-.48 1.105-.314.263-.75.394-1.307.394h-2.287zm.749-.672h1.537c.314 0 .563-.074.75-.221a.759.759 0 00.278-.615c0-.269-.093-.477-.279-.625-.185-.153-.435-.23-.75-.23h-1.536v1.691zm0-2.354h1.518c.282 0 .506-.071.672-.211a.706.706 0 00.26-.577.704.704 0 00-.26-.576c-.166-.148-.39-.221-.672-.221h-1.518v1.585zm6.88 3.112c-.41 0-.765-.08-1.066-.24a1.695 1.695 0 01-.7-.691c-.167-.301-.25-.657-.25-1.067v-1.46c0-.416.083-.772.25-1.066.166-.301.4-.532.7-.692.301-.16.657-.24 1.067-.24.41 0 .765.08 1.066.24.301.16.535.391.701.692.167.294.25.647.25 1.056v1.47c0 .41-.083.766-.25 1.067-.166.301-.4.531-.7.691-.302.16-.657.24-1.067.24zm0-.682c.398 0 .705-.112.923-.336.218-.224.327-.551.327-.98v-1.46c0-.429-.112-.756-.337-.98-.217-.224-.522-.336-.912-.336s-.698.112-.922.336c-.218.224-.327.551-.327.98v1.46c0 .429.109.756.326.98.225.224.532.336.923.336zm3.135 1.941v-1.998h.432c.11-.122.221-.34.337-.654.121-.32.185-.707.192-1.162l.057-2.815h3.363v4.631h.682v1.998h-.682V180h-3.699v1.345h-.682zm1.249-1.998h2.373v-3.949H58.66l-.039 2.143c-.006.48-.06.874-.163 1.181-.102.308-.198.516-.288.625zm7.006.749c-.41 0-.769-.08-1.076-.24a1.764 1.764 0 01-.72-.682c-.167-.301-.25-.657-.25-1.067v-1.498c0-.41.083-.762.25-1.057a1.75 1.75 0 01.72-.692c.307-.16.666-.24 1.076-.24.602 0 1.085.164 1.45.49.365.327.554.772.567 1.336h-.759c-.013-.366-.131-.647-.355-.846-.218-.198-.52-.298-.903-.298-.391 0-.702.116-.932.346-.23.224-.346.545-.346.961v1.498c0 .41.115.731.346.961.23.231.541.346.932.346.384 0 .685-.099.903-.298.224-.205.342-.487.355-.845h.76c-.014.563-.203 1.008-.568 1.335-.365.327-.848.49-1.45.49zm5.295-.096v-4.602h-1.92v-.682h4.61v.682h-1.921V180h-.769zm4.134 0v-5.284h2.267c.525 0 .938.125 1.24.375.3.243.45.583.45 1.018 0 .365-.124.66-.374.884-.243.218-.57.327-.98.327v-.068c.442 0 .798.116 1.067.346.269.224.403.525.403.903 0 .468-.16.836-.48 1.105-.314.263-.75.394-1.307.394h-2.286zm.75-.672h1.536c.314 0 .564-.074.75-.221a.758.758 0 00.278-.615c0-.269-.093-.477-.279-.625-.185-.153-.435-.23-.749-.23h-1.537v1.691zm0-2.354h1.517c.282 0 .506-.071.672-.211a.706.706 0 00.26-.577.704.704 0 00-.26-.576c-.166-.148-.39-.221-.672-.221h-1.518v1.585zm6.88 3.112c-.41 0-.765-.08-1.066-.24a1.695 1.695 0 01-.702-.691c-.166-.301-.25-.657-.25-1.067v-1.46c0-.416.084-.772.25-1.066.167-.301.4-.532.702-.692.3-.16.656-.24 1.066-.24.41 0 .765.08 1.066.24.301.16.535.391.702.692.166.294.25.647.25 1.056v1.47c0 .41-.084.766-.25 1.067-.167.301-.4.531-.702.691-.3.16-.656.24-1.066.24zm0-.682c.397 0 .704-.112.922-.336.218-.224.327-.551.327-.98v-1.46c0-.429-.112-.756-.336-.98-.218-.224-.522-.336-.913-.336-.39 0-.698.112-.922.336-.218.224-.327.551-.327.98v1.46c0 .429.109.756.327.98.224.224.531.336.922.336zM23.399 200v-5.284h3.881V200h-.768v-4.592h-2.345V200H23.4zm7.63.086c-.41 0-.765-.08-1.066-.24a1.695 1.695 0 01-.701-.691c-.167-.301-.25-.657-.25-1.067v-1.46c0-.416.083-.772.25-1.066.166-.301.4-.532.7-.692.302-.16.657-.24 1.067-.24.41 0 .765.08 1.067.24.3.16.534.391.7.692.167.294.25.647.25 1.056v1.47c0 .41-.083.766-.25 1.067-.166.301-.4.531-.7.691-.301.16-.657.24-1.067.24zm0-.682c.397 0 .705-.112.922-.336.218-.224.327-.551.327-.98v-1.46c0-.429-.112-.756-.336-.98-.218-.224-.522-.336-.913-.336-.39 0-.698.112-.922.336-.218.224-.327.551-.327.98v1.46c0 .429.11.756.327.98.224.224.532.336.922.336zm3.077.663v-.72h.192c.275 0 .477-.112.605-.336.128-.231.195-.612.202-1.144l.067-3.151h3.487V200h-.768v-4.592h-1.97l-.057 2.488c-.007.5-.067.91-.183 1.23-.109.32-.275.557-.5.711-.217.153-.502.23-.854.23h-.221zm6.41-.067v-5.284h.759v1.941h1.585c.59 0 1.053.15 1.393.451.346.295.519.702.519 1.22 0 .513-.173.919-.52 1.22-.339.301-.803.452-1.392.452h-2.344zm.759-.692h1.585c.365 0 .644-.083.836-.249.192-.173.288-.417.288-.731 0-.313-.096-.554-.288-.72-.192-.173-.471-.259-.836-.259h-1.585v1.959zm6.573.769c-.55 0-.996-.119-1.335-.356a1.43 1.43 0 01-.615-.96h.797c.052.185.177.339.375.461.205.115.465.173.778.173h.471c.327 0 .583-.08.769-.24a.794.794 0 00.288-.625.849.849 0 00-.27-.653c-.178-.167-.435-.25-.768-.25h-1.181v-.663h1.162c.301 0 .532-.077.692-.23a.775.775 0 00.25-.596.79.79 0 00-.116-.432.726.726 0 00-.336-.279 1.173 1.173 0 00-.51-.105H47.8c-.288 0-.525.064-.71.192a.758.758 0 00-.347.47h-.797c.064-.397.26-.72.586-.97.333-.25.756-.375 1.268-.375h.5c.358 0 .67.061.932.183a1.4 1.4 0 01.605.509c.147.218.22.474.22.769 0 .32-.098.586-.297.797-.192.205-.464.32-.816.346v.038c.422.026.733.151.931.375.199.218.298.519.298.903 0 .455-.17.823-.509 1.105-.333.275-.781.413-1.345.413h-.47zm5.94.009c-.41 0-.766-.08-1.067-.24a1.695 1.695 0 01-.7-.691c-.167-.301-.25-.657-.25-1.067v-1.46c0-.416.083-.772.25-1.066.166-.301.4-.532.7-.692.301-.16.657-.24 1.067-.24.41 0 .765.08 1.066.24.301.16.535.391.701.692.167.294.25.647.25 1.056v1.47c0 .41-.083.766-.25 1.067-.166.301-.4.531-.7.691-.302.16-.657.24-1.067.24zm0-.682c.397 0 .704-.112.922-.336.218-.224.327-.551.327-.98v-1.46c0-.429-.112-.756-.337-.98-.217-.224-.522-.336-.912-.336s-.698.112-.922.336c-.218.224-.327.551-.327.98v1.46c0 .429.109.756.326.98.225.224.532.336.923.336zm3.749.596v-5.284h2.267c.525 0 .938.125 1.24.375.3.243.45.583.45 1.018 0 .365-.124.66-.374.884-.243.218-.57.327-.98.327v-.068c.442 0 .798.116 1.067.346.269.224.403.525.403.903 0 .468-.16.836-.48 1.105-.314.263-.75.394-1.307.394h-2.286zm.75-.672h1.536c.314 0 .564-.074.75-.221a.759.759 0 00.278-.615c0-.269-.093-.477-.278-.625-.186-.153-.436-.23-.75-.23h-1.537v1.691zm0-2.354h1.517c.282 0 .506-.071.672-.211a.706.706 0 00.26-.577.704.704 0 00-.26-.576c-.166-.148-.39-.221-.672-.221h-1.518v1.585zm6.467 3.122c-.557 0-.996-.141-1.316-.423-.32-.288-.48-.675-.48-1.162 0-.48.156-.858.47-1.134.314-.281.737-.422 1.268-.422h1.681v-.558c0-.352-.102-.624-.307-.816-.205-.192-.496-.288-.874-.288-.333 0-.612.073-.836.221a.817.817 0 00-.375.595h-.768a1.58 1.58 0 01.634-1.085c.365-.269.82-.404 1.364-.404.59 0 1.057.16 1.403.481.346.313.518.739.518 1.277V200h-.749v-1.028h-.125l.144-.154c0 .391-.15.702-.451.932-.301.231-.701.346-1.201.346zm.182-.615c.423 0 .769-.105 1.038-.317.269-.211.403-.487.403-.826v-.797h-1.671c-.301 0-.541.083-.72.249-.18.167-.27.394-.27.683 0 .307.11.554.327.739.218.18.516.269.893.269zm5.536.519v-4.602h-1.92v-.682h4.61v.682h-1.921V200h-.769zm6.074.096c-.41 0-.765-.08-1.066-.24a1.762 1.762 0 01-.701-.701 2.129 2.129 0 01-.25-1.048v-1.498c0-.404.083-.753.25-1.047.166-.301.4-.532.701-.692.301-.167.656-.25 1.066-.25.41 0 .766.083 1.067.25.3.16.534.391.701.692.167.294.25.643.25 1.047v.932h-3.286v.566c0 .43.11.763.327 1 .224.23.538.345.941.345.34 0 .615-.067.826-.201a.892.892 0 00.414-.586h.759a1.53 1.53 0 01-.644 1.047c-.359.256-.81.384-1.355.384zm1.268-3.064v-.423c0-.429-.108-.759-.326-.99-.218-.237-.532-.355-.942-.355-.403 0-.717.118-.941.355-.218.231-.327.561-.327.99v.336h2.613l-.077.087zm1.809 3.035v-.72h.192c.276 0 .477-.112.605-.336.128-.231.196-.612.202-1.144l.067-3.151h3.488V200h-.769v-4.592h-1.97l-.057 2.488c-.006.5-.067.91-.183 1.23-.108.32-.275.557-.5.711-.217.153-.502.23-.854.23h-.221zm6.064-.067l1.345-2.046c-.41-.09-.727-.272-.95-.548-.225-.275-.337-.621-.337-1.037 0-.513.17-.916.51-1.211.345-.294.813-.442 1.402-.442h2.21V200h-.77v-1.979H87.82L86.571 200h-.884zm1.97-2.661h1.44v-1.941h-1.44c-.346 0-.621.087-.826.26-.205.173-.308.41-.308.711s.103.538.308.711c.204.172.48.259.826.259zm5.958 2.757c-.237 0-.426-.067-.566-.202-.135-.141-.202-.326-.202-.557 0-.243.067-.435.202-.576.14-.141.33-.212.566-.212.237 0 .423.071.558.212.14.141.21.333.21.576 0 .231-.07.416-.21.557-.135.135-.32.202-.558.202z" fill="#000"/><path d="M15.84 19.065c-.448 0-.838-.083-1.171-.25a1.871 1.871 0 01-.76-.72c-.172-.314-.259-.682-.259-1.105v-3.055c0-.423.087-.788.26-1.095.179-.314.432-.554.758-.72.334-.174.724-.26 1.173-.26.454 0 .845.086 1.171.26.327.166.577.406.75.72.18.307.269.669.269 1.085v3.065c0 .423-.09.79-.27 1.105a1.808 1.808 0 01-.748.72c-.327.167-.718.25-1.173.25zm0-1.057c.327 0 .574-.086.74-.26.167-.179.25-.432.25-.758v-3.055c0-.333-.083-.586-.25-.76-.166-.172-.413-.259-.74-.259-.326 0-.573.087-.74.26-.166.173-.249.426-.249.759v3.055c0 .326.083.58.25.759.173.173.42.26.74.26zm5.69 1.057c-.672-.007-1.207-.196-1.604-.567-.39-.371-.586-.88-.586-1.527v-2.373c0-.846.227-1.496.682-1.95.455-.462 1.102-.692 1.94-.692h1.49v1.172h-1.49c-.46 0-.813.125-1.056.374-.237.25-.356.615-.356 1.096v.653h.135l-.125.154c0-.365.122-.654.365-.865.243-.211.586-.317 1.028-.317.557 0 .99.182 1.297.548.314.358.47.858.47 1.498v.702c0 .429-.09.803-.268 1.123a1.85 1.85 0 01-.76.73c-.32.167-.707.247-1.162.24zm0-1.047c.32 0 .564-.09.73-.27.167-.185.25-.444.25-.777v-.702c0-.34-.083-.599-.25-.778-.166-.18-.41-.269-.73-.269-.314 0-.557.09-.73.27-.166.172-.25.431-.25.777v.702c0 .333.084.592.25.778.173.179.416.269.73.269zm4.402 2.68l.74-2.018-1.97-4.995h1.317l.98 2.7a9.66 9.66 0 01.269 1.047c.032-.135.074-.305.125-.51.051-.21.102-.39.154-.538l.922-2.699h1.268l-2.546 7.013h-1.258zm7.861-1.73v-1.776a5.374 5.374 0 01-.403.067 5.69 5.69 0 01-.596.029c-.679 0-1.21-.167-1.594-.5-.385-.34-.577-.81-.577-1.412v-1.691h1.2v1.633c0 .276.097.493.29.653.191.154.454.231.787.231.218 0 .407-.01.567-.029.16-.025.269-.048.326-.067v-2.421h1.21v5.284h-1.21zm4.816.097c-.449 0-.84-.087-1.172-.26a1.923 1.923 0 01-.778-.72 2.169 2.169 0 01-.27-1.095v-1.326c0-.416.09-.778.27-1.085a1.89 1.89 0 01.778-.73c.333-.174.723-.26 1.172-.26.442 0 .826.086 1.153.26.333.172.589.416.768.73.186.307.279.669.279 1.085v.951h-3.257v.375c0 .371.09.653.269.845.18.186.445.279.797.279.27 0 .487-.045.654-.135a.642.642 0 00.317-.413h1.181c-.09.455-.333.82-.73 1.095-.39.27-.868.404-1.431.404zm1.037-3.122v-.289c0-.365-.086-.643-.26-.835-.172-.199-.431-.298-.777-.298-.346 0-.609.1-.788.298-.18.198-.269.48-.269.845v.202l2.18-.02-.086.097zm2.51 3.026v-5.284h1.2v2.046h1.865v-2.046h1.2v5.284h-1.2v-2.123h-1.864v2.123h-1.2zm5.69 0v-5.284h1.085v2.603c0 .167-.01.366-.028.596a10.96 10.96 0 01-.058.663 14.18 14.18 0 01-.077.567l1.864-4.429h1.48v5.284h-1.086v-2.604c0-.173.006-.365.019-.576l.057-.624a9.78 9.78 0 01.077-.52l-1.854 4.324h-1.48zm7.832.096c-.449 0-.84-.087-1.172-.26a1.924 1.924 0 01-.779-.72 2.169 2.169 0 01-.268-1.095v-1.326c0-.416.09-.778.268-1.085a1.9 1.9 0 01.779-.73c.333-.174.723-.26 1.172-.26.442 0 .826.086 1.153.26.333.172.589.416.768.73.186.307.279.669.279 1.085v.951H54.62v.375c0 .371.09.653.269.845.18.186.445.279.797.279.27 0 .487-.045.654-.135a.642.642 0 00.317-.413h1.181c-.09.455-.333.82-.73 1.095-.39.27-.868.404-1.431.404zm1.037-3.122v-.289c0-.365-.086-.643-.26-.835-.172-.199-.431-.298-.777-.298-.346 0-.609.1-.788.298-.18.198-.269.48-.269.845v.202l2.18-.02-.086.097zm8.2 3.026v-5.284h4.265v5.284h-1.2v-4.17h-1.864v4.17h-1.201zm7.832.096c-.449 0-.84-.087-1.172-.26a1.923 1.923 0 01-.779-.72 2.169 2.169 0 01-.269-1.095v-1.326c0-.416.09-.778.27-1.085a1.89 1.89 0 01.778-.73c.333-.174.723-.26 1.172-.26.442 0 .826.086 1.153.26.332.172.589.416.768.73.186.307.279.669.279 1.085v.951H71.69v.375c0 .371.09.653.269.845.18.186.445.279.797.279.27 0 .487-.045.653-.135a.642.642 0 00.318-.413h1.181c-.09.455-.333.82-.73 1.095-.39.27-.868.404-1.431.404zm1.037-3.122v-.289c0-.365-.086-.643-.26-.835-.172-.199-.431-.298-.777-.298-.346 0-.609.1-.788.298-.18.198-.27.48-.27.845v.202l2.182-.02-.087.097zm2.5 4.755v-7.013h1.172v1.009h.27l-.27.278c0-.429.129-.765.385-1.008.256-.25.602-.375 1.037-.375.532 0 .958.182 1.278.548.32.365.48.855.48 1.47v1.43c0 .41-.073.77-.22 1.077-.142.3-.343.534-.606.701a1.7 1.7 0 01-.932.25c-.435 0-.781-.122-1.037-.365-.256-.25-.385-.59-.385-1.019l.27.279h-.28l.04 1.258v1.48h-1.202zm2.171-2.67c.308 0 .548-.09.721-.27.173-.179.26-.435.26-.768v-1.326c0-.333-.087-.59-.26-.768-.173-.18-.413-.27-.72-.27-.302 0-.538.093-.711.28-.173.178-.26.431-.26.758v1.326c0 .326.087.583.26.768.173.18.41.27.71.27zm5.68 1.037c-.448 0-.842-.083-1.181-.25a1.922 1.922 0 01-.778-.72c-.186-.314-.279-.682-.279-1.105v-1.326c0-.43.093-.797.279-1.105.186-.307.445-.544.778-.71.34-.174.733-.26 1.182-.26.666 0 1.197.173 1.594.519.397.34.605.803.625 1.393h-1.201c-.02-.276-.119-.487-.298-.634-.173-.154-.413-.23-.72-.23-.32 0-.574.089-.76.268-.185.173-.278.423-.278.75v1.335c0 .326.093.58.279.759.185.179.438.269.759.269.307 0 .547-.074.72-.221.18-.154.279-.369.298-.644h1.2c-.019.59-.227 1.057-.624 1.403-.397.34-.928.509-1.594.509zm5.671-.01c-.448 0-.839-.083-1.172-.25a1.938 1.938 0 01-.769-.72c-.179-.314-.268-.682-.268-1.105v-1.306c0-.423.09-.788.269-1.095.185-.314.441-.555.768-.721.333-.173.724-.26 1.172-.26.455 0 .845.087 1.172.26.327.166.58.407.759.72.186.308.279.67.279 1.086v1.316c0 .423-.093.791-.279 1.105-.18.307-.432.547-.759.72-.327.167-.717.25-1.172.25zm0-1.047c.32 0 .567-.086.74-.26.18-.179.269-.435.269-.768v-1.306c0-.34-.09-.596-.27-.769-.172-.173-.419-.26-.739-.26-.314 0-.56.087-.74.26-.179.173-.269.43-.269.769v1.306c0 .333.09.59.27.769.179.173.425.26.739.26zm3.557.96v-5.283h1.2v2.046h1.864v-2.046h1.201v5.284h-1.2v-2.123h-1.864v2.123h-1.201zm7.236.097c-.544 0-.973-.144-1.287-.433-.314-.288-.47-.675-.47-1.162 0-.519.172-.919.518-1.2.346-.282.836-.423 1.47-.423h1.316v-.452c0-.256-.083-.455-.25-.596-.166-.147-.394-.22-.682-.22-.262 0-.48.057-.653.172a.679.679 0 00-.308.471h-1.171c.057-.5.281-.896.672-1.191.391-.295.89-.442 1.499-.442.646 0 1.156.163 1.527.49.378.32.567.756.567 1.306v3.584h-1.163v-.922h-.192l.192-.26c0 .39-.144.701-.432.932-.288.23-.672.346-1.153.346zm.394-.903c.34 0 .615-.087.826-.26a.819.819 0 00.327-.672v-.644h-1.297c-.243 0-.439.07-.586.212a.737.737 0 00-.221.557c0 .25.083.448.25.595.173.141.407.212.701.212zm3.221.874v-1.095h.24a.54.54 0 00.49-.26c.115-.179.176-.46.183-.845l.057-3.151h3.824v5.284h-1.201v-4.17h-1.441l-.039 2.104c-.012.461-.089.852-.23 1.172a1.609 1.609 0 01-.605.72c-.263.16-.583.241-.961.241h-.317zm7.765.029c-.545 0-.974-.144-1.288-.433-.313-.288-.47-.675-.47-1.162 0-.519.173-.919.518-1.2.346-.282.836-.423 1.47-.423h1.316v-.452c0-.256-.083-.455-.249-.596-.167-.147-.394-.22-.683-.22-.262 0-.48.057-.653.172a.674.674 0 00-.307.471h-1.172c.057-.5.282-.896.672-1.191.391-.295.89-.442 1.499-.442.647 0 1.156.163 1.527.49.378.32.567.756.567 1.306v3.584h-1.162v-.922h-.192l.192-.26c0 .39-.144.701-.433.932-.288.23-.672.346-1.152.346zm.394-.903c.339 0 .614-.087.826-.26a.82.82 0 00.326-.672v-.644h-1.297c-.243 0-.438.07-.586.212a.737.737 0 00-.221.557c0 .25.084.448.25.595.173.141.407.212.702.212zm5.881-2.96c-.269 0-.486-.073-.653-.22a.778.778 0 01-.24-.586c0-.243.08-.439.24-.586.167-.147.384-.221.653-.221s.484.074.644.22a.75.75 0 01.25.587.765.765 0 01-.25.586c-.16.147-.375.22-.644.22zm0 3.863c-.269 0-.486-.074-.653-.221a.759.759 0 01-.24-.586c0-.243.08-.439.24-.586.167-.148.384-.221.653-.221s.484.073.644.22a.75.75 0 01.25.587.746.746 0 01-.25.586c-.16.147-.375.22-.644.22z" fill="#fff"/><defs><filter id="filter0_d_441_1854" x=".157" y="0" width="179.685" height="224.685" filterUnits="userSpaceOnUse" color-interpolation-filters="sRGB"><feFlood flood-opacity="0" result="BackgroundImageFix"/><feColorMatrix in="SourceAlpha" values="0 0 0 0 0 0 0 0 0 0 0 0 0 0 0 0 0 0 127 0" result="hardAlpha"/><feOffset dy="3.843"/><feGaussianBlur stdDeviation="1.921"/><feComposite in2="hardAlpha" operator="out"/><feColorMatrix values="0 0 0 0 0 0 0 0 0 0 0 0 0 0 0 0 0 0 0.25 0"/><feBlend in2="BackgroundImageFix" result="effect1_dropShadow_441_1854"/><feBlend in="SourceGraphic" in2="effect1_dropShadow_441_1854" result="shape"/></filter></defs></svg>