<svg width="384" height="239" fill="none" xmlns="http://www.w3.org/2000/svg"><path d="M159.589 1v75.142h-13.982l34.437 36.45 34.444-36.45h-13.982V1h-40.917z" fill="#2F5954"/><path d="M85.603 0v131.89H71.621l34.438 36.447 34.443-36.447h-13.985V0H85.604z" fill="#294744"/><path d="M13.986 0v182.295H0l34.44 36.446 34.445-36.446H54.898V0H13.986z" fill="#223B38"/><path d="M96.88 213v-1.43h2.024v-5.093l-2.046 1.518v-1.705l1.881-1.32h1.815v6.6h1.606V213h-5.28zm12.626 0v-6.05h1.859l.715 2.255c.081.257.143.491.187.704.052.205.081.359.088.462.015-.103.041-.257.077-.462a7.51 7.51 0 01.187-.704l.704-2.255h1.859V213h-1.507v-1.1c0-.242.004-.513.011-.814.015-.308.03-.623.044-.946.022-.33.041-.645.055-.946.022-.308.044-.579.066-.814l-.803 2.915h-1.397l-.847-2.915c.03.301.059.66.088 1.078.037.418.066.843.088 1.276.022.425.033.814.033 1.166v1.1h-1.507zm9.372.11c-.536 0-1.005-.099-1.408-.297a2.296 2.296 0 01-.924-.847c-.213-.367-.319-.792-.319-1.276v-1.43c0-.484.106-.906.319-1.265.22-.367.528-.649.924-.847.403-.205.872-.308 1.408-.308.535 0 .997.103 1.386.308.396.198.7.48.913.847.22.359.33.781.33 1.265v1.1H117.8v.33c0 .381.091.671.275.869.183.191.458.286.825.286.256 0 .462-.044.616-.132a.643.643 0 00.319-.363h1.617a2.142 2.142 0 01-.902 1.276c-.462.323-1.02.484-1.672.484zm1.056-3.597v-.275c0-.374-.088-.66-.264-.858-.169-.198-.433-.297-.792-.297-.36 0-.631.103-.814.308-.176.205-.264.495-.264.869v.165l2.244-.022-.11.11zm5.488 3.597c-.536 0-1.005-.099-1.408-.297a2.276 2.276 0 01-.935-.847c-.22-.367-.33-.792-.33-1.276v-1.43c0-.491.11-.917.33-1.276.22-.359.531-.638.935-.836.403-.205.872-.308 1.408-.308.799 0 1.437.202 1.914.605.476.403.729.953.759 1.65h-1.65a.83.83 0 00-.308-.605c-.176-.147-.415-.22-.715-.22-.33 0-.583.084-.759.253-.176.169-.264.414-.264.737v1.43c0 .315.088.561.264.737.176.169.429.253.759.253.3 0 .539-.07.715-.209a.841.841 0 00.308-.616h1.65c-.03.697-.283 1.247-.759 1.65-.477.403-1.115.605-1.914.605zm5.664-.11v-4.51h-1.98v-1.54h5.61v1.54h-1.98V213h-1.65zm7.347.11c-.535 0-1.001-.099-1.397-.297a2.296 2.296 0 01-.924-.847c-.213-.367-.319-.792-.319-1.276v-1.43c0-.484.106-.906.319-1.265.22-.367.528-.649.924-.847.396-.205.862-.308 1.397-.308.543 0 1.008.103 1.397.308.396.198.7.48.913.847.22.359.33.781.33 1.265v1.43c0 .484-.11.909-.33 1.276a2.222 2.222 0 01-.913.847c-.389.198-.854.297-1.397.297zm0-1.43c.323 0 .568-.084.737-.253.169-.176.253-.422.253-.737v-1.43c0-.323-.084-.568-.253-.737-.169-.169-.414-.253-.737-.253-.315 0-.561.084-.737.253-.169.169-.253.414-.253.737v1.43c0 .315.084.561.253.737.176.169.422.253.737.253zm6.522-2.86c-.33 0-.597-.092-.803-.275a.93.93 0 01-.297-.715c0-.301.099-.539.297-.715.206-.183.473-.275.803-.275.33 0 .594.092.792.275.206.176.308.414.308.715a.912.912 0 01-.308.715c-.198.183-.462.275-.792.275zm0 4.29c-.33 0-.597-.092-.803-.275a.93.93 0 01-.297-.715c0-.301.099-.539.297-.715.206-.183.473-.275.803-.275.33 0 .594.092.792.275.206.176.308.414.308.715a.912.912 0 01-.308.715c-.198.183-.462.275-.792.275z" fill="#CCEC60"/><path d="M155.767 213v-8.03h2.519c.491 0 .916.095 1.276.286.366.191.649.462.847.814.198.345.297.755.297 1.232 0 .469-.099.88-.297 1.232a2.11 2.11 0 01-.847.814c-.36.191-.785.286-1.276.286h-1.65V213h-.869zm.869-4.158h1.65c.462 0 .828-.139 1.1-.418.278-.279.418-.653.418-1.122 0-.477-.14-.851-.418-1.122-.272-.279-.638-.418-1.1-.418h-1.65v3.08zm7.413 4.268c-.638 0-1.141-.161-1.507-.484-.367-.33-.55-.774-.55-1.331 0-.55.179-.983.539-1.298.359-.323.843-.484 1.452-.484h1.925v-.638c0-.403-.118-.715-.352-.935-.235-.22-.569-.33-1.001-.33-.382 0-.701.084-.957.253a.934.934 0 00-.429.682h-.88c.073-.521.315-.935.726-1.243.418-.308.938-.462 1.562-.462.674 0 1.21.183 1.606.55.396.359.594.847.594 1.463V213h-.858v-1.177h-.143l.165-.176c0 .447-.173.803-.517 1.067-.345.264-.803.396-1.375.396zm.209-.704c.484 0 .88-.121 1.188-.363.308-.242.462-.557.462-.946v-.913h-1.914c-.345 0-.62.095-.825.286-.206.191-.308.451-.308.781 0 .352.124.634.374.847.249.205.59.308 1.023.308zm6.5.682c-.631 0-1.14-.136-1.529-.407a1.637 1.637 0 01-.704-1.1h.913c.059.213.202.389.429.528.235.132.532.198.891.198h.539c.374 0 .667-.092.88-.275a.908.908 0 00.33-.715.975.975 0 00-.308-.748c-.205-.191-.499-.286-.88-.286h-1.353v-.759h1.331c.345 0 .609-.088.792-.264a.884.884 0 00.286-.682.906.906 0 00-.132-.495.831.831 0 00-.385-.319 1.332 1.332 0 00-.583-.121h-.572c-.33 0-.601.073-.814.22a.868.868 0 00-.396.539h-.913c.073-.455.297-.825.671-1.111.381-.286.865-.429 1.452-.429h.572c.411 0 .766.07 1.067.209a1.6 1.6 0 01.693.583c.169.249.253.543.253.88 0 .367-.114.671-.341.913-.22.235-.532.367-.935.396v.044c.484.029.84.172 1.067.429.227.249.341.594.341 1.034 0 .521-.194.942-.583 1.265-.381.315-.895.473-1.54.473h-.539zm6.808.022c-.704 0-1.258-.209-1.661-.627-.403-.418-.605-.994-.605-1.727v-2.816c0-.953.238-1.687.715-2.2.477-.513 1.159-.77 2.046-.77h1.496v.869h-1.496c-.616 0-1.085.183-1.408.55-.323.359-.484.876-.484 1.551v.759h.154l-.154.264c.007-.44.154-.785.44-1.034.293-.249.693-.374 1.199-.374.645 0 1.144.205 1.496.616.352.403.528.968.528 1.694v.891c0 .491-.092.913-.275 1.265a1.881 1.881 0 01-.77.814c-.337.183-.744.275-1.221.275zm0-.781c.447 0 .792-.136 1.034-.407.242-.271.363-.66.363-1.166v-.891c0-.499-.121-.887-.363-1.166-.242-.279-.587-.418-1.034-.418-.447 0-.792.139-1.034.418-.242.279-.363.667-.363 1.166v.891c0 .506.121.895.363 1.166.249.271.594.407 1.034.407zm6.522.77c-.469 0-.876-.092-1.221-.275a1.945 1.945 0 01-.803-.792c-.19-.345-.286-.752-.286-1.221v-1.672c0-.477.096-.884.286-1.221.191-.345.459-.609.803-.792.345-.183.752-.275 1.221-.275.47 0 .877.092 1.221.275.345.183.613.447.803.792.191.337.286.741.286 1.21v1.683c0 .469-.095.876-.286 1.221-.19.345-.458.609-.803.792-.344.183-.751.275-1.221.275zm0-.781c.455 0 .807-.128 1.056-.385.25-.257.374-.631.374-1.122v-1.672c0-.491-.128-.865-.385-1.122-.249-.257-.597-.385-1.045-.385-.447 0-.799.128-1.056.385-.249.257-.374.631-.374 1.122v1.672c0 .491.125.865.374 1.122.257.257.609.385 1.056.385zm4.289 2.662v-8.03h.869v1.067h.231l-.264.363c0-.477.154-.851.462-1.122.316-.279.73-.418 1.243-.418.609 0 1.093.202 1.452.605.367.396.55.939.55 1.628v1.793c0 .462-.084.862-.253 1.199-.168.33-.403.587-.704.77-.293.183-.641.275-1.045.275-.506 0-.916-.139-1.232-.418-.315-.279-.473-.653-.473-1.122l.231.363h-.209l.011 1.232v1.815h-.869zm2.266-2.629c.44 0 .781-.132 1.023-.396.25-.264.374-.638.374-1.122v-1.716c0-.491-.124-.865-.374-1.122-.242-.264-.583-.396-1.023-.396-.425 0-.766.136-1.023.407-.249.264-.374.634-.374 1.111v1.716c0 .477.125.851.374 1.122.257.264.598.396 1.023.396zm10.79.649v-6.05h2.596c.601 0 1.074.143 1.419.429.344.279.517.667.517 1.166 0 .418-.143.755-.429 1.012-.279.249-.653.374-1.122.374v-.077c.506 0 .913.132 1.221.396.308.257.462.601.462 1.034 0 .535-.184.957-.55 1.265-.36.301-.858.451-1.496.451h-2.618zm.858-.77h1.76c.359 0 .645-.084.858-.253a.87.87 0 00.319-.704c0-.308-.107-.546-.319-.715-.213-.176-.499-.264-.858-.264h-1.76v1.936zm0-2.695h1.738c.322 0 .579-.081.77-.242.198-.161.297-.381.297-.66s-.099-.499-.297-.66c-.191-.169-.448-.253-.77-.253h-1.738v1.815zm7.886 3.564c-.469 0-.876-.092-1.221-.275a1.94 1.94 0 01-.803-.792c-.191-.345-.286-.752-.286-1.221v-1.672c0-.477.095-.884.286-1.221a1.94 1.94 0 01.803-.792c.345-.183.752-.275 1.221-.275.469 0 .876.092 1.221.275.345.183.612.447.803.792.191.337.286.741.286 1.21v1.683c0 .469-.095.876-.286 1.221a1.94 1.94 0 01-.803.792c-.345.183-.752.275-1.221.275zm0-.781c.455 0 .807-.128 1.056-.385s.374-.631.374-1.122v-1.672c0-.491-.128-.865-.385-1.122-.249-.257-.598-.385-1.045-.385-.447 0-.799.128-1.056.385-.249.257-.374.631-.374 1.122v1.672c0 .491.125.865.374 1.122.257.257.609.385 1.056.385zm4.3.682v-6.05h4.444V213h-.88v-5.258h-2.684V213h-.88zm6.511 1.98v-8.03h.869v1.067h.231l-.264.363c0-.477.154-.851.462-1.122.316-.279.73-.418 1.243-.418.609 0 1.093.202 1.452.605.367.396.55.939.55 1.628v1.793c0 .462-.084.862-.253 1.199-.168.33-.403.587-.704.77-.293.183-.641.275-1.045.275-.506 0-.916-.139-1.232-.418-.315-.279-.473-.653-.473-1.122l.231.363h-.209l.011 1.232v1.815h-.869zm2.266-2.629c.44 0 .781-.132 1.023-.396.25-.264.374-.638.374-1.122v-1.716c0-.491-.124-.865-.374-1.122-.242-.264-.583-.396-1.023-.396-.425 0-.766.136-1.023.407-.249.264-.374.634-.374 1.111v1.716c0 .477.125.851.374 1.122.257.264.598.396 1.023.396zm6.489.748c-.469 0-.876-.092-1.221-.275a1.945 1.945 0 01-.803-.792c-.19-.345-.286-.752-.286-1.221v-1.672c0-.477.096-.884.286-1.221.191-.345.459-.609.803-.792.345-.183.752-.275 1.221-.275.47 0 .877.092 1.221.275.345.183.613.447.803.792.191.337.286.741.286 1.21v1.683c0 .469-.095.876-.286 1.221-.19.345-.458.609-.803.792-.344.183-.751.275-1.221.275zm0-.781c.455 0 .807-.128 1.056-.385.25-.257.374-.631.374-1.122v-1.672c0-.491-.128-.865-.385-1.122-.249-.257-.597-.385-1.045-.385-.447 0-.799.128-1.056.385-.249.257-.374.631-.374 1.122v1.672c0 .491.125.865.374 1.122.257.257.609.385 1.056.385zm6.534.792c-.47 0-.88-.092-1.232-.275a2.017 2.017 0 01-.825-.781c-.191-.345-.286-.752-.286-1.221v-1.716c0-.469.095-.873.286-1.21.198-.345.473-.609.825-.792.352-.183.762-.275 1.232-.275.689 0 1.243.187 1.661.561.418.374.634.884.649 1.529h-.869c-.015-.418-.151-.741-.407-.968-.25-.227-.594-.341-1.034-.341-.448 0-.803.132-1.067.396-.264.257-.396.623-.396 1.1v1.716c0 .469.132.836.396 1.1.264.264.619.396 1.067.396.44 0 .784-.114 1.034-.341.256-.235.392-.557.407-.968h.869c-.015.645-.231 1.155-.649 1.529-.418.374-.972.561-1.661.561zm6.511-.011c-.47 0-.877-.092-1.221-.275a1.933 1.933 0 01-.803-.792c-.191-.345-.286-.752-.286-1.221v-1.672c0-.477.095-.884.286-1.221.19-.345.458-.609.803-.792.344-.183.751-.275 1.221-.275.469 0 .876.092 1.221.275.344.183.612.447.803.792.19.337.286.741.286 1.21v1.683c0 .469-.096.876-.286 1.221a1.945 1.945 0 01-.803.792c-.345.183-.752.275-1.221.275zm0-.781c.454 0 .806-.128 1.056-.385.249-.257.374-.631.374-1.122v-1.672c0-.491-.129-.865-.385-1.122-.25-.257-.598-.385-1.045-.385-.448 0-.8.128-1.056.385-.25.257-.374.631-.374 1.122v1.672c0 .491.124.865.374 1.122.256.257.608.385 1.056.385zm4.3.682v-6.05h2.596c.601 0 1.074.143 1.419.429.345.279.517.667.517 1.166 0 .418-.143.755-.429 1.012-.279.249-.653.374-1.122.374v-.077c.506 0 .913.132 1.221.396.308.257.462.601.462 1.034 0 .535-.183.957-.55 1.265-.359.301-.858.451-1.496.451h-2.618zm.858-.77h1.76c.359 0 .645-.084.858-.253a.867.867 0 00.319-.704c0-.308-.106-.546-.319-.715-.213-.176-.499-.264-.858-.264h-1.76v1.936zm0-2.695h1.738c.323 0 .579-.081.77-.242.198-.161.297-.381.297-.66s-.099-.499-.297-.66c-.191-.169-.447-.253-.77-.253h-1.738v1.815zM260.132 213v-6.05h4.444V213h-.88v-5.258h-2.684V213h-.88zm8.745.099c-.47 0-.877-.092-1.221-.275a1.933 1.933 0 01-.803-.792c-.191-.345-.286-.752-.286-1.221v-1.672c0-.477.095-.884.286-1.221.19-.345.458-.609.803-.792.344-.183.751-.275 1.221-.275.469 0 .876.092 1.221.275.344.183.612.447.803.792.19.337.286.741.286 1.21v1.683c0 .469-.096.876-.286 1.221a1.945 1.945 0 01-.803.792c-.345.183-.752.275-1.221.275zm0-.781c.454 0 .806-.128 1.056-.385.249-.257.374-.631.374-1.122v-1.672c0-.491-.129-.865-.385-1.122-.25-.257-.598-.385-1.045-.385-.448 0-.8.128-1.056.385-.25.257-.374.631-.374 1.122v1.672c0 .491.124.865.374 1.122.256.257.608.385 1.056.385zM99.3 233.11c-.704 0-1.258-.209-1.661-.627-.403-.418-.605-.994-.605-1.727v-2.816c0-.953.238-1.687.715-2.2.477-.513 1.159-.77 2.046-.77h1.496v.869h-1.496c-.616 0-1.085.183-1.408.55-.323.359-.484.876-.484 1.551v.759h.154l-.154.264c.007-.44.154-.785.44-1.034.293-.249.693-.374 1.199-.374.645 0 1.144.205 1.496.616.352.403.528.968.528 1.694v.891c0 .491-.092.913-.275 1.265a1.881 1.881 0 01-.77.814c-.337.183-.744.275-1.221.275zm0-.781c.447 0 .792-.136 1.034-.407.242-.271.363-.66.363-1.166v-.891c0-.499-.121-.887-.363-1.166-.242-.279-.587-.418-1.034-.418-.447 0-.792.139-1.034.418-.242.279-.363.667-.363 1.166v.891c0 .506.121.895.363 1.166.25.271.594.407 1.034.407zm4.3.671v-6.05h.847v3.443c0 .205-.007.425-.022.66a15.449 15.449 0 01-.077 1.166l2.563-5.269h1.133V233h-.847v-3.443c0-.213.004-.433.011-.66l.044-.649c.022-.213.037-.389.044-.528l-2.574 5.28H103.6zm8.458.088c-.63 0-1.14-.136-1.529-.407a1.64 1.64 0 01-.704-1.1h.913c.059.213.202.389.429.528.235.132.532.198.891.198h.539c.374 0 .668-.092.88-.275a.908.908 0 00.33-.715c0-.308-.102-.557-.308-.748-.205-.191-.498-.286-.88-.286h-1.353v-.759h1.331c.345 0 .609-.088.792-.264a.884.884 0 00.286-.682.906.906 0 00-.132-.495.831.831 0 00-.385-.319 1.33 1.33 0 00-.583-.121h-.572c-.33 0-.601.073-.814.22a.875.875 0 00-.396.539h-.913c.074-.455.297-.825.671-1.111.382-.286.866-.429 1.452-.429h.572c.411 0 .767.07 1.067.209a1.6 1.6 0 01.693.583c.169.249.253.543.253.88 0 .367-.113.671-.341.913-.22.235-.531.367-.935.396v.044c.484.029.84.172 1.067.429.228.249.341.594.341 1.034 0 .521-.194.942-.583 1.265-.381.315-.894.473-1.54.473h-.539zm4.587-.088v-6.05h.88v2.574h2.684v-2.574h.88V233h-.88v-2.684h-2.684V233h-.88zm8.744.11c-.47 0-.877-.092-1.221-.275a2.008 2.008 0 01-.803-.803c-.191-.345-.286-.744-.286-1.199v-1.716c0-.462.095-.862.286-1.199.19-.345.458-.609.803-.792.344-.191.751-.286 1.221-.286.469 0 .876.095 1.221.286.344.183.612.447.803.792.19.337.286.737.286 1.199v1.067h-3.762v.649c0 .491.124.873.374 1.144.256.264.616.396 1.078.396.388 0 .704-.077.946-.231.249-.154.407-.378.473-.671h.869a1.759 1.759 0 01-.737 1.199c-.411.293-.928.44-1.551.44zm1.452-3.509v-.484c0-.491-.125-.869-.374-1.133-.25-.271-.609-.407-1.078-.407-.462 0-.822.136-1.078.407-.25.264-.374.642-.374 1.133v.385h2.992l-.088.099zm5.081 3.509c-.469 0-.88-.092-1.232-.275a2.017 2.017 0 01-.825-.781c-.191-.345-.286-.752-.286-1.221v-1.716c0-.469.095-.873.286-1.21.198-.345.473-.609.825-.792.352-.183.763-.275 1.232-.275.689 0 1.243.187 1.661.561.418.374.634.884.649 1.529h-.869c-.015-.418-.15-.741-.407-.968-.249-.227-.594-.341-1.034-.341-.447 0-.803.132-1.067.396-.264.257-.396.623-.396 1.1v1.716c0 .469.132.836.396 1.1.264.264.62.396 1.067.396.44 0 .785-.114 1.034-.341.257-.235.392-.557.407-.968h.869c-.015.645-.231 1.155-.649 1.529-.418.374-.972.561-1.661.561zm5.235 1.87l.891-2.365-2.244-5.665h.968l1.43 3.773c.059.147.114.312.165.495.059.176.103.323.132.44.037-.117.081-.268.132-.451.051-.183.103-.348.154-.495l1.342-3.762h.935l-2.981 8.03h-.924z" fill="#fff"/><path d="M157.242 168v-1.551l2.552-2.464a4.03 4.03 0 00.671-.814 1.52 1.52 0 00.231-.814c0-.323-.088-.572-.264-.748-.168-.176-.403-.264-.704-.264-.33 0-.59.099-.781.297-.183.191-.275.458-.275.803h-1.65c0-.528.11-.983.33-1.364.228-.389.547-.689.957-.902.411-.213.895-.319 1.452-.319.521 0 .972.099 1.353.297.389.191.69.458.902.803.22.345.33.752.33 1.221a3.11 3.11 0 01-.385 1.496c-.256.477-.667.975-1.232 1.496l-1.452 1.342h3.157V168h-5.192zm12.737 0v-6.05h1.859l.715 2.255c.08.257.143.491.187.704.051.205.08.359.088.462.014-.103.04-.257.077-.462.044-.213.106-.447.187-.704l.704-2.255h1.859V168h-1.507v-1.1c0-.242.003-.513.011-.814l.044-.946c.022-.33.04-.645.055-.946.022-.308.044-.579.066-.814l-.803 2.915h-1.397l-.847-2.915c.029.301.058.66.088 1.078.036.418.066.843.088 1.276.022.425.033.814.033 1.166v1.1h-1.507zm9.371.11c-.535 0-1.005-.099-1.408-.297a2.296 2.296 0 01-.924-.847c-.213-.367-.319-.792-.319-1.276v-1.43c0-.484.106-.906.319-1.265.22-.367.528-.649.924-.847.403-.205.873-.308 1.408-.308.535 0 .997.103 1.386.308.396.198.7.48.913.847.22.359.33.781.33 1.265v1.1h-3.707v.33c0 .381.092.671.275.869.183.191.458.286.825.286.257 0 .462-.044.616-.132a.64.64 0 00.319-.363h1.617a2.142 2.142 0 01-.902 1.276c-.462.323-1.019.484-1.672.484zm1.056-3.597v-.275c0-.374-.088-.66-.264-.858-.169-.198-.433-.297-.792-.297-.359 0-.631.103-.814.308-.176.205-.264.495-.264.869v.165l2.244-.022-.11.11zm5.488 3.597c-.535 0-1.005-.099-1.408-.297a2.282 2.282 0 01-.935-.847c-.22-.367-.33-.792-.33-1.276v-1.43c0-.491.11-.917.33-1.276.22-.359.532-.638.935-.836.403-.205.873-.308 1.408-.308.799 0 1.437.202 1.914.605.477.403.73.953.759 1.65h-1.65a.83.83 0 00-.308-.605c-.176-.147-.414-.22-.715-.22-.33 0-.583.084-.759.253-.176.169-.264.414-.264.737v1.43c0 .315.088.561.264.737.176.169.429.253.759.253.301 0 .539-.07.715-.209a.841.841 0 00.308-.616h1.65c-.029.697-.282 1.247-.759 1.65-.477.403-1.115.605-1.914.605zm5.664-.11v-4.51h-1.98v-1.54h5.61v1.54h-1.98V168h-1.65zm7.347.11c-.535 0-1.001-.099-1.397-.297a2.296 2.296 0 01-.924-.847c-.212-.367-.319-.792-.319-1.276v-1.43c0-.484.107-.906.319-1.265.22-.367.528-.649.924-.847.396-.205.862-.308 1.397-.308.543 0 1.009.103 1.397.308.396.198.701.48.913.847.22.359.33.781.33 1.265v1.43c0 .484-.11.909-.33 1.276a2.216 2.216 0 01-.913.847c-.388.198-.854.297-1.397.297zm0-1.43c.323 0 .569-.084.737-.253.169-.176.253-.422.253-.737v-1.43c0-.323-.084-.568-.253-.737-.168-.169-.414-.253-.737-.253-.315 0-.561.084-.737.253-.168.169-.253.414-.253.737v1.43c0 .315.085.561.253.737.176.169.422.253.737.253zm6.523-2.86c-.33 0-.598-.092-.803-.275a.93.93 0 01-.297-.715c0-.301.099-.539.297-.715.205-.183.473-.275.803-.275.33 0 .594.092.792.275.205.176.308.414.308.715a.915.915 0 01-.308.715c-.198.183-.462.275-.792.275zm0 4.29c-.33 0-.598-.092-.803-.275a.93.93 0 01-.297-.715c0-.301.099-.539.297-.715.205-.183.473-.275.803-.275.33 0 .594.092.792.275.205.176.308.414.308.715a.915.915 0 01-.308.715c-.198.183-.462.275-.792.275z" fill="#CCEC60"/><path d="M216.239 168v-8.03h2.519c.491 0 .917.095 1.276.286.367.191.649.462.847.814.198.345.297.755.297 1.232 0 .469-.099.88-.297 1.232-.198.345-.48.616-.847.814-.359.191-.785.286-1.276.286h-1.65V168h-.869zm.869-4.158h1.65c.462 0 .829-.139 1.1-.418.279-.279.418-.653.418-1.122 0-.477-.139-.851-.418-1.122-.271-.279-.638-.418-1.1-.418h-1.65v3.08zm7.413 4.268c-.638 0-1.14-.161-1.507-.484-.367-.33-.55-.774-.55-1.331 0-.55.18-.983.539-1.298.359-.323.843-.484 1.452-.484h1.925v-.638c0-.403-.117-.715-.352-.935-.235-.22-.568-.33-1.001-.33-.381 0-.7.084-.957.253a.94.94 0 00-.429.682h-.88c.073-.521.315-.935.726-1.243.418-.308.939-.462 1.562-.462.675 0 1.21.183 1.606.55.396.359.594.847.594 1.463V168h-.858v-1.177h-.143l.165-.176c0 .447-.172.803-.517 1.067-.345.264-.803.396-1.375.396zm.209-.704c.484 0 .88-.121 1.188-.363.308-.242.462-.557.462-.946v-.913h-1.914c-.345 0-.62.095-.825.286-.205.191-.308.451-.308.781 0 .352.125.634.374.847.249.205.59.308 1.023.308zm6.5.682c-.63 0-1.14-.136-1.529-.407a1.64 1.64 0 01-.704-1.1h.913c.059.213.202.389.429.528.235.132.532.198.891.198h.539c.374 0 .668-.092.88-.275a.908.908 0 00.33-.715c0-.308-.102-.557-.308-.748-.205-.191-.498-.286-.88-.286h-1.353v-.759h1.331c.345 0 .609-.088.792-.264a.884.884 0 00.286-.682.906.906 0 00-.132-.495.831.831 0 00-.385-.319 1.33 1.33 0 00-.583-.121h-.572c-.33 0-.601.073-.814.22a.875.875 0 00-.396.539h-.913c.074-.455.297-.825.671-1.111.382-.286.866-.429 1.452-.429h.572c.411 0 .767.07 1.067.209a1.6 1.6 0 01.693.583c.169.249.253.543.253.88 0 .367-.113.671-.341.913-.22.235-.531.367-.935.396v.044c.484.029.84.172 1.067.429.228.249.341.594.341 1.034 0 .521-.194.942-.583 1.265-.381.315-.894.473-1.54.473h-.539zm6.808.022c-.704 0-1.257-.209-1.661-.627-.403-.418-.605-.994-.605-1.727v-2.816c0-.953.239-1.687.715-2.2.477-.513 1.159-.77 2.046-.77h1.496v.869h-1.496c-.616 0-1.085.183-1.408.55-.322.359-.484.876-.484 1.551v.759h.154l-.154.264c.008-.44.154-.785.44-1.034.294-.249.693-.374 1.199-.374.646 0 1.144.205 1.496.616.352.403.528.968.528 1.694v.891c0 .491-.091.913-.275 1.265a1.876 1.876 0 01-.77.814c-.337.183-.744.275-1.221.275zm0-.781c.448 0 .792-.136 1.034-.407.242-.271.363-.66.363-1.166v-.891c0-.499-.121-.887-.363-1.166-.242-.279-.586-.418-1.034-.418-.447 0-.792.139-1.034.418-.242.279-.363.667-.363 1.166v.891c0 .506.121.895.363 1.166.25.271.594.407 1.034.407zm6.523.77c-.47 0-.877-.092-1.221-.275a1.933 1.933 0 01-.803-.792c-.191-.345-.286-.752-.286-1.221v-1.672c0-.477.095-.884.286-1.221.19-.345.458-.609.803-.792.344-.183.751-.275 1.221-.275.469 0 .876.092 1.221.275.344.183.612.447.803.792.19.337.286.741.286 1.21v1.683c0 .469-.096.876-.286 1.221a1.945 1.945 0 01-.803.792c-.345.183-.752.275-1.221.275zm0-.781c.454 0 .806-.128 1.056-.385.249-.257.374-.631.374-1.122v-1.672c0-.491-.129-.865-.385-1.122-.25-.257-.598-.385-1.045-.385-.448 0-.8.128-1.056.385-.25.257-.374.631-.374 1.122v1.672c0 .491.124.865.374 1.122.256.257.608.385 1.056.385zm4.289 2.662v-8.03h.869v1.067h.231l-.264.363c0-.477.154-.851.462-1.122.315-.279.73-.418 1.243-.418.609 0 1.093.202 1.452.605.367.396.55.939.55 1.628v1.793c0 .462-.084.862-.253 1.199-.169.33-.403.587-.704.77-.293.183-.642.275-1.045.275-.506 0-.917-.139-1.232-.418-.315-.279-.473-.653-.473-1.122l.231.363h-.209l.011 1.232v1.815h-.869zm2.266-2.629c.44 0 .781-.132 1.023-.396.249-.264.374-.638.374-1.122v-1.716c0-.491-.125-.865-.374-1.122-.242-.264-.583-.396-1.023-.396-.425 0-.766.136-1.023.407-.249.264-.374.634-.374 1.111v1.716c0 .477.125.851.374 1.122.257.264.598.396 1.023.396zm12.582.649v-7.238h-2.255v-.803h5.368v.803h-2.244V168h-.869zm6.951.11c-.469 0-.876-.092-1.221-.275a2.02 2.02 0 01-.803-.803 2.444 2.444 0 01-.286-1.199v-1.716c0-.462.096-.862.286-1.199.191-.345.459-.609.803-.792.345-.191.752-.286 1.221-.286.47 0 .877.095 1.221.286.345.183.613.447.803.792.191.337.286.737.286 1.199v1.067h-3.762v.649c0 .491.125.873.374 1.144.257.264.616.396 1.078.396.389 0 .704-.077.946-.231.25-.154.407-.378.473-.671h.869c-.08.506-.326.906-.737 1.199-.41.293-.927.44-1.551.44zm1.452-3.509v-.484c0-.491-.124-.869-.374-1.133-.249-.271-.608-.407-1.078-.407-.462 0-.821.136-1.078.407-.249.264-.374.642-.374 1.133v.385h2.992l-.088.099zm5.863 3.399c-.345 0-.646-.066-.902-.198a1.41 1.41 0 01-.583-.572 1.768 1.768 0 01-.209-.88v-5.588h-2.013v-.792h2.882v6.38c0 .271.073.484.22.638.146.147.348.22.605.22h1.925V168h-1.925zm5.73.11c-.47 0-.877-.092-1.221-.275a2.008 2.008 0 01-.803-.803c-.191-.345-.286-.744-.286-1.199v-1.716c0-.462.095-.862.286-1.199.19-.345.458-.609.803-.792.344-.191.751-.286 1.221-.286.469 0 .876.095 1.221.286.344.183.612.447.803.792.19.337.286.737.286 1.199v1.067h-3.762v.649c0 .491.124.873.374 1.144.256.264.616.396 1.078.396.388 0 .704-.077.946-.231.249-.154.407-.378.473-.671h.869a1.759 1.759 0 01-.737 1.199c-.411.293-.928.44-1.551.44zm1.452-3.509v-.484c0-.491-.125-.869-.374-1.133-.25-.271-.609-.407-1.078-.407-.462 0-.822.136-1.078.407-.25.264-.374.642-.374 1.133v.385h2.992l-.088.099zm3.574 5.379v-.792h1.837c.345 0 .598-.081.759-.242.169-.161.253-.407.253-.737v-.704l.022-1.144h-.198l.209-.253c0 .455-.15.818-.451 1.089-.301.271-.704.407-1.21.407-.616 0-1.104-.202-1.463-.605-.359-.411-.539-.957-.539-1.639v-1.287c0-.682.18-1.225.539-1.628.359-.403.847-.605 1.463-.605.506 0 .909.136 1.21.407.301.264.451.623.451 1.078l-.198-.253h.176v-1.122h.858v6.259c0 .557-.165.99-.495 1.298-.323.315-.785.473-1.386.473h-1.837zm1.474-3.135c.433 0 .77-.132 1.012-.396.249-.271.374-.645.374-1.122v-1.21c0-.477-.125-.847-.374-1.111-.242-.271-.579-.407-1.012-.407-.44 0-.781.132-1.023.396-.242.264-.363.638-.363 1.122v1.21c0 .484.121.858.363 1.122.242.264.583.396 1.023.396zm4.509 1.155v-6.05h.858v1.122h.209l-.308.693c.007-.616.158-1.089.451-1.419.293-.337.715-.506 1.265-.506.638 0 1.144.202 1.518.605.381.396.572.931.572 1.606v.363h-.891v-.297c0-.491-.121-.869-.363-1.133-.242-.271-.587-.407-1.034-.407-.433 0-.774.136-1.023.407-.249.271-.374.649-.374 1.133V168h-.88zm8.084.11c-.638 0-1.14-.161-1.507-.484-.366-.33-.55-.774-.55-1.331 0-.55.18-.983.539-1.298.36-.323.844-.484 1.452-.484h1.925v-.638c0-.403-.117-.715-.352-.935-.234-.22-.568-.33-1.001-.33-.381 0-.7.084-.957.253a.94.94 0 00-.429.682h-.88c.074-.521.316-.935.726-1.243.418-.308.939-.462 1.562-.462.675 0 1.21.183 1.606.55.396.359.594.847.594 1.463V168h-.858v-1.177h-.143l.165-.176c0 .447-.172.803-.517 1.067-.344.264-.803.396-1.375.396zm.209-.704c.484 0 .88-.121 1.188-.363.308-.242.462-.557.462-.946v-.913h-1.914c-.344 0-.619.095-.825.286-.205.191-.308.451-.308.781 0 .352.125.634.374.847.25.205.591.308 1.023.308zm4.245.594v-6.05h.77v.748h.165l-.121.242c0-.337.088-.605.264-.803.184-.198.433-.297.748-.297.33 0 .587.117.77.352.191.235.29.565.297.99l-.231-.484h.363l-.154.242c0-.337.092-.605.275-.803.184-.198.433-.297.748-.297.374 0 .664.139.869.418.213.279.319.649.319 1.111V168h-.814v-4.631c0-.264-.058-.469-.176-.616a.585.585 0 00-.495-.231.618.618 0 00-.506.231c-.124.147-.187.352-.187.616V168h-.726v-4.631c0-.271-.062-.48-.187-.627-.117-.147-.282-.22-.495-.22a.599.599 0 00-.495.22c-.117.147-.179.356-.187.627V168h-.814zm7.304-3.245v-.77h3.52v.77h-3.52zm6.093 3.245v-6.05h.88v2.541h1.144l1.793-2.541h1.001l-2.035 2.882L325.5 168h-1.023l-1.815-2.75h-1.144V168h-.88zm8.238.11c-.638 0-1.14-.161-1.507-.484-.367-.33-.55-.774-.55-1.331 0-.55.18-.983.539-1.298.359-.323.843-.484 1.452-.484h1.925v-.638c0-.403-.117-.715-.352-.935-.235-.22-.568-.33-1.001-.33-.381 0-.7.084-.957.253a.94.94 0 00-.429.682h-.88c.073-.521.315-.935.726-1.243.418-.308.939-.462 1.562-.462.675 0 1.21.183 1.606.55.396.359.594.847.594 1.463V168h-.858v-1.177h-.143l.165-.176c0 .447-.172.803-.517 1.067-.345.264-.803.396-1.375.396zm.209-.704c.484 0 .88-.121 1.188-.363.308-.242.462-.557.462-.946v-.913h-1.914c-.345 0-.62.095-.825.286-.205.191-.308.451-.308.781 0 .352.125.634.374.847.249.205.59.308 1.023.308zm4.564.594v-6.05h.88v2.574h2.684v-2.574h.88V168h-.88v-2.684h-2.684V168h-.88zm8.271.11c-.638 0-1.14-.161-1.507-.484-.366-.33-.55-.774-.55-1.331 0-.55.18-.983.539-1.298.36-.323.844-.484 1.452-.484h1.925v-.638c0-.403-.117-.715-.352-.935-.234-.22-.568-.33-1.001-.33-.381 0-.7.084-.957.253a.94.94 0 00-.429.682h-.88c.074-.521.316-.935.726-1.243.418-.308.939-.462 1.562-.462.675 0 1.21.183 1.606.55.396.359.594.847.594 1.463V168h-.858v-1.177h-.143l.165-.176c0 .447-.172.803-.517 1.067-.344.264-.803.396-1.375.396zm.209-.704c.484 0 .88-.121 1.188-.363.308-.242.462-.557.462-.946v-.913h-1.914c-.344 0-.619.095-.825.286-.205.191-.308.451-.308.781 0 .352.125.634.374.847.25.205.591.308 1.023.308zm3.794.671v-.825h.22c.316 0 .547-.128.693-.385.147-.264.224-.7.231-1.309l.077-3.608h3.993V168h-.88v-5.258h-2.255l-.066 2.849c-.007.572-.077 1.041-.209 1.408-.124.367-.315.638-.572.814-.249.176-.575.264-.979.264h-.253zm9.042.033c-.638 0-1.141-.161-1.507-.484-.367-.33-.55-.774-.55-1.331 0-.55.179-.983.539-1.298.359-.323.843-.484 1.452-.484h1.925v-.638c0-.403-.118-.715-.352-.935-.235-.22-.569-.33-1.001-.33-.382 0-.701.084-.957.253a.934.934 0 00-.429.682h-.88c.073-.521.315-.935.726-1.243.418-.308.938-.462 1.562-.462.674 0 1.21.183 1.606.55.396.359.594.847.594 1.463V168h-.858v-1.177h-.143l.165-.176c0 .447-.173.803-.517 1.067-.345.264-.803.396-1.375.396zm.209-.704c.484 0 .88-.121 1.188-.363.308-.242.462-.557.462-.946v-.913h-1.914c-.345 0-.62.095-.825.286-.206.191-.308.451-.308.781 0 .352.124.634.374.847.249.205.59.308 1.023.308z" fill="#fff"/><path d="M249.492 89.11c-.55 0-1.026-.092-1.43-.275a2.199 2.199 0 01-.924-.803c-.22-.352-.33-.763-.33-1.232h1.65c0 .293.088.524.264.693.184.161.44.242.77.242.338 0 .594-.08.77-.242.176-.161.264-.392.264-.693v-.66c0-.3-.091-.532-.275-.693-.176-.169-.429-.253-.759-.253h-.946v-1.419l1.617-1.43h-2.97V80.97h4.653v1.419l-2.354 2.079v-.671c.829 0 1.482.209 1.958.627.484.418.726.986.726 1.705v.671c0 .47-.11.88-.33 1.232-.212.345-.52.612-.924.803-.403.183-.88.275-1.43.275zm10.251-.11v-6.05h1.859l.715 2.255c.08.257.143.491.187.704.051.205.08.36.088.462.014-.103.04-.257.077-.462.044-.213.106-.447.187-.704l.704-2.255h1.859V89h-1.507v-1.1c0-.242.003-.513.011-.814l.044-.946c.022-.33.04-.645.055-.946.022-.308.044-.58.066-.814l-.803 2.915h-1.397l-.847-2.915c.029.3.058.66.088 1.078.036.418.066.843.088 1.276.022.425.033.814.033 1.166V89h-1.507zm9.371.11c-.535 0-1.005-.099-1.408-.297a2.296 2.296 0 01-.924-.847c-.213-.367-.319-.792-.319-1.276v-1.43c0-.484.106-.906.319-1.265.22-.367.528-.649.924-.847.403-.205.873-.308 1.408-.308.535 0 .997.103 1.386.308.396.198.7.48.913.847.22.36.33.781.33 1.265v1.1h-3.707v.33c0 .381.092.671.275.869.183.19.458.286.825.286.257 0 .462-.044.616-.132a.64.64 0 00.319-.363h1.617a2.14 2.14 0 01-.902 1.276c-.462.323-1.019.484-1.672.484zm1.056-3.597v-.275c0-.374-.088-.66-.264-.858-.169-.198-.433-.297-.792-.297-.359 0-.631.103-.814.308-.176.205-.264.495-.264.869v.165l2.244-.022-.11.11zm5.488 3.597c-.535 0-1.005-.099-1.408-.297a2.282 2.282 0 01-.935-.847c-.22-.367-.33-.792-.33-1.276v-1.43c0-.491.11-.917.33-1.276.22-.36.532-.638.935-.836.403-.205.873-.308 1.408-.308.799 0 1.437.202 1.914.605.477.403.73.953.759 1.65h-1.65a.83.83 0 00-.308-.605c-.176-.147-.414-.22-.715-.22-.33 0-.583.084-.759.253-.176.169-.264.414-.264.737v1.43c0 .315.088.561.264.737.176.169.429.253.759.253.301 0 .539-.07.715-.209a.84.84 0 00.308-.616h1.65c-.029.697-.282 1.247-.759 1.65-.477.403-1.115.605-1.914.605zm5.664-.11v-4.51h-1.98v-1.54h5.61v1.54h-1.98V89h-1.65zm7.347.11c-.535 0-1.001-.099-1.397-.297a2.296 2.296 0 01-.924-.847c-.212-.367-.319-.792-.319-1.276v-1.43c0-.484.107-.906.319-1.265.22-.367.528-.649.924-.847.396-.205.862-.308 1.397-.308.543 0 1.009.103 1.397.308.396.198.701.48.913.847.22.36.33.781.33 1.265v1.43c0 .484-.11.91-.33 1.276a2.21 2.21 0 01-.913.847c-.388.198-.854.297-1.397.297zm0-1.43c.323 0 .569-.084.737-.253.169-.176.253-.422.253-.737v-1.43c0-.323-.084-.568-.253-.737-.168-.169-.414-.253-.737-.253-.315 0-.561.084-.737.253-.168.169-.253.414-.253.737v1.43c0 .315.085.561.253.737.176.169.422.253.737.253zm6.523-2.86c-.33 0-.598-.092-.803-.275a.93.93 0 01-.297-.715c0-.3.099-.539.297-.715.205-.183.473-.275.803-.275.33 0 .594.092.792.275.205.176.308.414.308.715a.915.915 0 01-.308.715c-.198.183-.462.275-.792.275zm0 4.29c-.33 0-.598-.092-.803-.275a.93.93 0 01-.297-.715c0-.3.099-.539.297-.715.205-.183.473-.275.803-.275.33 0 .594.092.792.275.205.176.308.414.308.715a.915.915 0 01-.308.715c-.198.183-.462.275-.792.275z" fill="#CCEC60"/><path d="M306.003 89v-8.03h.869v3.487h1.32l1.782-3.487h.957l-1.969 3.85 2.079 4.18h-1.012l-1.859-3.773h-1.298V89h-.869zm6.533 0v-6.05h.88v2.574h2.684V82.95h.88V89h-.88v-2.684h-2.684V89h-.88zm6.522 0v-6.05h.847v3.443c0 .205-.007.425-.022.66a15.449 15.449 0 01-.077 1.166l2.563-5.269h1.133V89h-.847v-3.443c0-.213.004-.433.011-.66l.044-.649c.022-.213.037-.389.044-.528L320.18 89h-1.122zm6.918 0v-6.05h4.29v.792h-3.421V89h-.869zm7.876.11c-.638 0-1.141-.161-1.507-.484-.367-.33-.55-.774-.55-1.331 0-.55.179-.983.539-1.298.359-.323.843-.484 1.452-.484h1.925v-.638c0-.403-.118-.715-.352-.935-.235-.22-.569-.33-1.001-.33-.382 0-.701.084-.957.253a.934.934 0 00-.429.682h-.88c.073-.52.315-.935.726-1.243.418-.308.938-.462 1.562-.462.674 0 1.21.183 1.606.55.396.36.594.847.594 1.463V89h-.858v-1.177h-.143l.165-.176c0 .447-.173.803-.517 1.067-.345.264-.803.396-1.375.396zm.209-.704c.484 0 .88-.121 1.188-.363.308-.242.462-.557.462-.946v-.913h-1.914c-.345 0-.62.095-.825.286-.206.19-.308.451-.308.781 0 .352.124.634.374.847.249.205.59.308 1.023.308zm13.308.693c-.469 0-.876-.092-1.221-.275a1.943 1.943 0 01-.803-.792c-.191-.345-.286-.752-.286-1.221v-1.672c0-.477.095-.884.286-1.221a1.94 1.94 0 01.803-.792c.345-.183.752-.275 1.221-.275.469 0 .876.092 1.221.275.345.183.612.447.803.792.191.337.286.74.286 1.21v1.683c0 .47-.095.876-.286 1.221a1.943 1.943 0 01-.803.792c-.345.183-.752.275-1.221.275zm0-.781c.455 0 .807-.128 1.056-.385s.374-.63.374-1.122v-1.672c0-.491-.128-.865-.385-1.122-.249-.257-.598-.385-1.045-.385-.447 0-.799.128-1.056.385-.249.257-.374.63-.374 1.122v1.672c0 .491.125.865.374 1.122.257.257.609.385 1.056.385zm6.082.682v-5.269h-2.2v-.781h5.28v.781h-2.2V89h-.88zm-103.86 20.11c-.476 0-.891-.092-1.243-.275a1.945 1.945 0 01-.803-.792c-.19-.345-.286-.748-.286-1.21v-3.696c0-.469.096-.873.286-1.21.191-.345.459-.609.803-.792.352-.183.767-.275 1.243-.275.47 0 .877.095 1.221.286.352.183.624.447.814.792.191.345.286.755.286 1.232h-.869c0-.484-.128-.858-.385-1.122-.256-.271-.612-.407-1.067-.407-.454 0-.814.132-1.078.396-.256.257-.385.623-.385 1.1v3.696c0 .469.129.836.385 1.1.264.264.624.396 1.078.396.455 0 .811-.132 1.067-.396.257-.271.385-.649.385-1.133h.869c0 .469-.095.88-.286 1.232-.19.345-.462.612-.814.803-.344.183-.751.275-1.221.275zm4.323-.11v-8.03h4.532v.792h-3.663v2.651h3.278v.781h-3.278v3.014h3.663V109h-4.532zm8.667.11c-.47 0-.877-.092-1.221-.275a1.902 1.902 0 01-.781-.781c-.184-.345-.275-.752-.275-1.221v-3.696c0-.469.091-.873.275-1.21.183-.345.443-.609.781-.792.344-.183.751-.275 1.221-.275.469 0 .872.092 1.21.275.344.183.608.447.792.792.183.337.275.741.275 1.21v3.696c0 .469-.092.876-.275 1.221a1.9 1.9 0 01-.792.781c-.338.183-.741.275-1.21.275zm0-.781c.454 0 .803-.128 1.045-.385.242-.264.363-.634.363-1.111v-3.696c0-.477-.125-.843-.374-1.1-.242-.264-.587-.396-1.034-.396-.448 0-.796.132-1.045.396-.242.257-.363.623-.363 1.1v3.696c0 .477.121.847.363 1.111.249.257.597.385 1.045.385zm11.009.671l-.946-8.03h.825l.649 5.94c.015.154.029.323.044.506.022.176.04.352.055.528.015.169.022.312.022.429.015-.117.029-.26.044-.429l.066-.528a23.1 23.1 0 01.066-.506l.77-5.94h.935l.715 5.94c.022.154.044.323.066.506l.066.528c.022.169.037.312.044.429.015-.117.029-.26.044-.429.015-.176.033-.352.055-.528.022-.183.04-.352.055-.506l.638-5.94h.803l-.957 8.03h-1.122l-.715-5.995a102.14 102.14 0 01-.066-.517 8.801 8.801 0 00-.055-.495 8.166 8.166 0 00-.044-.396 5.438 5.438 0 01-.044.385 23.1 23.1 0 00-.066.506 11.7 11.7 0 01-.055.517l-.781 5.995h-1.111zm6.225 0v-.792h2.156v-4.466h-1.881v-.792h2.761v5.258h2.046V109h-5.082zm2.497-7.161c-.227 0-.41-.059-.55-.176a.614.614 0 01-.198-.484c0-.213.066-.381.198-.506.14-.125.323-.187.55-.187.228 0 .407.062.539.187.14.125.209.293.209.506a.618.618 0 01-.209.484c-.132.117-.311.176-.539.176zm4.124 7.161v-6.05h.869v1.122h.22l-.242.319c0-.484.147-.862.44-1.133.301-.279.708-.418 1.221-.418.602 0 1.082.191 1.441.572.36.374.539.884.539 1.529V109h-.869v-3.96c0-.462-.121-.818-.363-1.067s-.572-.374-.99-.374c-.432 0-.773.132-1.023.396-.249.264-.374.638-.374 1.122V109h-.869zm8.459.11c-.602 0-1.089-.202-1.463-.605-.367-.403-.55-.946-.55-1.628v-1.793c0-.689.183-1.236.55-1.639.366-.403.854-.605 1.463-.605.506 0 .913.139 1.221.418.315.279.473.653.473 1.122l-.231-.363h.209l-.011-1.32v-1.727h.869V109h-.869v-1.067h-.231l.264-.363c0 .477-.158.854-.473 1.133-.308.271-.715.407-1.221.407zm.275-.759c.432 0 .77-.132 1.012-.396.249-.271.374-.645.374-1.122v-1.716c0-.477-.125-.847-.374-1.111-.242-.271-.58-.407-1.012-.407-.44 0-.785.132-1.034.396-.25.264-.374.638-.374 1.122v1.716c0 .484.124.858.374 1.122.249.264.594.396 1.034.396zm6.544.759c-.272 0-.488-.077-.649-.231-.154-.161-.231-.374-.231-.638 0-.279.077-.499.231-.66.161-.161.377-.242.649-.242.271 0 .484.081.638.242.161.161.242.381.242.66 0 .264-.081.477-.242.638-.154.154-.367.231-.638.231zm6.566 0c-.513 0-.957-.088-1.331-.264a2.018 2.018 0 01-.869-.748c-.205-.33-.312-.722-.319-1.177h.88c0 .433.147.777.44 1.034.293.249.693.374 1.199.374.484 0 .862-.121 1.133-.363.279-.242.418-.576.418-1.001 0-.352-.095-.656-.286-.913a1.476 1.476 0 00-.803-.55l-1.045-.33c-.55-.161-.975-.436-1.276-.825a2.267 2.267 0 01-.44-1.386c0-.433.095-.803.286-1.111.191-.315.458-.561.803-.737.352-.176.763-.264 1.232-.264.697 0 1.254.194 1.672.583.418.389.627.909.627 1.562h-.869c0-.418-.128-.748-.385-.99s-.609-.363-1.056-.363c-.447 0-.799.11-1.056.33-.249.213-.374.517-.374.913 0 .345.095.645.286.902.191.257.458.44.803.55l1.045.33c.543.169.964.455 1.265.858.301.403.451.876.451 1.419 0 .433-.103.814-.308 1.144-.198.323-.48.576-.847.759-.359.176-.785.264-1.276.264zm7.138-.11c-.506 0-.898-.132-1.177-.396-.279-.271-.418-.653-.418-1.144v-3.718h-1.716v-.792h1.716v-1.705h.88v1.705h2.431v.792h-2.431v3.718c0 .499.238.748.715.748h1.606V109h-1.606zm5.851.11c-.682 0-1.228-.205-1.639-.616-.403-.411-.605-.968-.605-1.672v-3.872h.869v3.872c0 .477.121.851.363 1.122.25.264.587.396 1.012.396.433 0 .774-.132 1.023-.396.25-.271.374-.645.374-1.122v-3.872h.869v3.872c0 .704-.205 1.261-.616 1.672-.41.411-.96.616-1.65.616zm6.236 0c-.601 0-1.089-.202-1.463-.605-.366-.403-.55-.946-.55-1.628v-1.793c0-.689.184-1.236.55-1.639.367-.403.855-.605 1.463-.605.506 0 .913.139 1.221.418.316.279.473.653.473 1.122l-.231-.363h.209l-.011-1.32v-1.727h.869V109h-.869v-1.067h-.231l.264-.363c0 .477-.157.854-.473 1.133-.308.271-.715.407-1.221.407zm.275-.759c.433 0 .77-.132 1.012-.396.25-.271.374-.645.374-1.122v-1.716c0-.477-.124-.847-.374-1.111-.242-.271-.579-.407-1.012-.407-.44 0-.784.132-1.034.396-.249.264-.374.638-.374 1.122v1.716c0 .484.125.858.374 1.122.25.264.594.396 1.034.396zm4.213.649v-.792h2.156v-4.466h-1.881v-.792h2.761v5.258h2.046V109h-5.082zm2.497-7.161c-.228 0-.411-.059-.55-.176a.614.614 0 01-.198-.484c0-.213.066-.381.198-.506.139-.125.322-.187.55-.187.227 0 .407.062.539.187a.646.646 0 01.209.506c0 .198-.07.359-.209.484-.132.117-.312.176-.539.176zm6.357 7.26c-.47 0-.877-.092-1.221-.275a1.933 1.933 0 01-.803-.792c-.191-.345-.286-.752-.286-1.221v-1.672c0-.477.095-.884.286-1.221.19-.345.458-.609.803-.792.344-.183.751-.275 1.221-.275.469 0 .876.092 1.221.275.344.183.612.447.803.792.19.337.286.741.286 1.21v1.683c0 .469-.096.876-.286 1.221a1.945 1.945 0 01-.803.792c-.345.183-.752.275-1.221.275zm0-.781c.454 0 .806-.128 1.056-.385.249-.257.374-.631.374-1.122v-1.672c0-.491-.129-.865-.385-1.122-.25-.257-.598-.385-1.045-.385-.448 0-.8.128-1.056.385-.25.257-.374.631-.374 1.122v1.672c0 .491.124.865.374 1.122.256.257.608.385 1.056.385zm5.114 2.442l.858-3.421h1.32l-1.419 3.421h-.759zm-96.37 18.35c-.476 0-.891-.092-1.243-.275a1.945 1.945 0 01-.803-.792c-.19-.345-.286-.748-.286-1.21v-3.696c0-.469.096-.873.286-1.21.191-.345.459-.609.803-.792.352-.183.767-.275 1.243-.275.47 0 .877.095 1.221.286.352.183.624.447.814.792.191.345.286.755.286 1.232h-.869c0-.484-.128-.858-.385-1.122-.256-.271-.612-.407-1.067-.407-.454 0-.814.132-1.078.396-.256.257-.385.623-.385 1.1v3.696c0 .469.129.836.385 1.1.264.264.624.396 1.078.396.455 0 .811-.132 1.067-.396.257-.271.385-.649.385-1.133h.869c0 .469-.095.88-.286 1.232-.19.345-.462.612-.814.803-.344.183-.751.275-1.221.275zm6.028-.11v-5.269h-2.2v-.781h5.28v.781h-2.2V129h-.88zm6.962.11c-.47 0-.877-.092-1.221-.275a2.008 2.008 0 01-.803-.803c-.191-.345-.286-.744-.286-1.199v-1.716c0-.462.095-.862.286-1.199.19-.345.458-.609.803-.792.344-.191.751-.286 1.221-.286.469 0 .876.095 1.221.286.344.183.612.447.803.792.19.337.286.737.286 1.199v1.067h-3.762v.649c0 .491.124.873.374 1.144.256.264.616.396 1.078.396.388 0 .704-.077.946-.231.249-.154.407-.378.473-.671h.869a1.759 1.759 0 01-.737 1.199c-.411.293-.928.44-1.551.44zm1.452-3.509v-.484c0-.491-.125-.869-.374-1.133-.25-.271-.609-.407-1.078-.407-.462 0-.822.136-1.078.407-.25.264-.374.642-.374 1.133v.385h2.992l-.088.099zm2.848 3.399v-6.05h4.444V129h-.88v-5.258h-2.684V129h-.88zm8.271.11c-.638 0-1.14-.161-1.507-.484-.367-.33-.55-.774-.55-1.331 0-.55.18-.983.539-1.298.359-.323.843-.484 1.452-.484h1.925v-.638c0-.403-.117-.715-.352-.935-.235-.22-.568-.33-1.001-.33-.381 0-.7.084-.957.253a.94.94 0 00-.429.682h-.88c.073-.521.315-.935.726-1.243.418-.308.939-.462 1.562-.462.675 0 1.21.183 1.606.55.396.359.594.847.594 1.463V129h-.858v-1.177h-.143l.165-.176c0 .447-.172.803-.517 1.067-.345.264-.803.396-1.375.396zm.209-.704c.484 0 .88-.121 1.188-.363.308-.242.462-.557.462-.946v-.913h-1.914c-.345 0-.62.095-.825.286-.205.191-.308.451-.308.781 0 .352.125.634.374.847.249.205.59.308 1.023.308zm4.564.594v-6.05h.88v2.574h2.684v-2.574h.88V129h-.88v-2.684h-2.684V129h-.88zm8.271.11c-.638 0-1.14-.161-1.507-.484-.366-.33-.55-.774-.55-1.331 0-.55.18-.983.539-1.298.36-.323.844-.484 1.452-.484h1.925v-.638c0-.403-.117-.715-.352-.935-.234-.22-.568-.33-1.001-.33-.381 0-.7.084-.957.253a.94.94 0 00-.429.682h-.88c.074-.521.316-.935.726-1.243.418-.308.939-.462 1.562-.462.675 0 1.21.183 1.606.55.396.359.594.847.594 1.463V129h-.858v-1.177h-.143l.165-.176c0 .447-.172.803-.517 1.067-.344.264-.803.396-1.375.396zm.209-.704c.484 0 .88-.121 1.188-.363.308-.242.462-.557.462-.946v-.913h-1.914c-.344 0-.619.095-.825.286-.205.191-.308.451-.308.781 0 .352.125.634.374.847.25.205.591.308 1.023.308zm11.087.594v-8.03h2.211c.718 0 1.283.187 1.694.561.41.367.616.873.616 1.518 0 .367-.077.689-.231.968a1.58 1.58 0 01-.638.638c-.272.147-.602.216-.99.209v-.154c.418 0 .777.084 1.078.253.308.161.546.4.715.715.168.308.253.675.253 1.1 0 .455-.096.851-.286 1.188-.191.33-.462.587-.814.77-.352.176-.774.264-1.265.264h-2.343zm.847-.792h1.419c.491 0 .876-.128 1.155-.385.286-.264.429-.62.429-1.067 0-.462-.143-.832-.429-1.111-.279-.286-.664-.429-1.155-.429h-1.419v2.992zm0-3.751h1.364c.447 0 .799-.121 1.056-.363.256-.242.385-.572.385-.99 0-.418-.129-.744-.385-.979-.25-.242-.602-.363-1.056-.363h-1.364v2.695zm7.897 4.653c-.469 0-.876-.092-1.221-.275a2.015 2.015 0 01-.803-.803c-.191-.345-.286-.744-.286-1.199v-1.716c0-.462.095-.862.286-1.199a1.94 1.94 0 01.803-.792c.345-.191.752-.286 1.221-.286.469 0 .876.095 1.221.286.345.183.612.447.803.792.191.337.286.737.286 1.199v1.067h-3.762v.649c0 .491.125.873.374 1.144.257.264.616.396 1.078.396.389 0 .704-.077.946-.231.249-.154.407-.378.473-.671h.869a1.755 1.755 0 01-.737 1.199c-.411.293-.928.44-1.551.44zm1.452-3.509v-.484c0-.491-.125-.869-.374-1.133-.249-.271-.609-.407-1.078-.407-.462 0-.821.136-1.078.407-.249.264-.374.642-.374 1.133v.385h2.992l-.088.099zm4.63 3.399v-5.269h-2.2v-.781h5.28v.781h-2.2V129h-.88zm4.729 1.98v-8.03h.869v1.067h.231l-.264.363c0-.477.154-.851.462-1.122.316-.279.73-.418 1.243-.418.609 0 1.093.202 1.452.605.367.396.55.939.55 1.628v1.793c0 .462-.084.862-.253 1.199-.168.33-.403.587-.704.77-.293.183-.641.275-1.045.275-.506 0-.916-.139-1.232-.418-.315-.279-.473-.653-.473-1.122l.231.363h-.209l.011 1.232v1.815h-.869zm2.266-2.629c.44 0 .781-.132 1.023-.396.25-.264.374-.638.374-1.122v-1.716c0-.491-.124-.865-.374-1.122-.242-.264-.583-.396-1.023-.396-.425 0-.766.136-1.023.407-.249.264-.374.634-.374 1.111v1.716c0 .477.125.851.374 1.122.257.264.598.396 1.023.396zm6.016.759c-.638 0-1.14-.161-1.507-.484-.366-.33-.55-.774-.55-1.331 0-.55.18-.983.539-1.298.36-.323.844-.484 1.452-.484h1.925v-.638c0-.403-.117-.715-.352-.935-.234-.22-.568-.33-1.001-.33-.381 0-.7.084-.957.253a.94.94 0 00-.429.682h-.88c.074-.521.316-.935.726-1.243.418-.308.939-.462 1.562-.462.675 0 1.21.183 1.606.55.396.359.594.847.594 1.463V129h-.858v-1.177h-.143l.165-.176c0 .447-.172.803-.517 1.067-.344.264-.803.396-1.375.396zm.209-.704c.484 0 .88-.121 1.188-.363.308-.242.462-.557.462-.946v-.913h-1.914c-.344 0-.619.095-.825.286-.205.191-.308.451-.308.781 0 .352.125.634.374.847.25.205.591.308 1.023.308z" fill="#fff"/></svg>