<svg width="305" height="98" fill="none" xmlns="http://www.w3.org/2000/svg"><rect width="299" height="98" rx="11" fill="#223B38"/><g opacity=".2"><mask id="a" style="mask-type:alpha" maskUnits="userSpaceOnUse" x="0" y="0" width="299" height="98"><rect width="299" height="98" rx="11" fill="#223B38"/></mask><g mask="url(#a)" fill="#C9D9CD"><path d="M-36 124.087c-.018-11.271 10.537-19.469 21.53-16.607 1.626.424 2.592.136 3.75-1.035a9488.782 9488.782 0 0139.308-39.631c1.03-1.03 1.349-1.932 1.02-3.395-1.6-7.133 1.226-14.146 7.151-18.116 5.797-3.883 13.59-3.837 19.328.118 5.88 4.052 8.586 11.066 6.918 18.207-.323 1.39-.232 2.338.861 3.418a3895.367 3895.367 0 0126.762 26.725c1.016 1.025 1.832 1.463 3.331.861 3.65-1.463 7.433-1.476 11.157-.223 1.276.428 2.05.232 2.944-.78 14.46-16.41 28.939-32.799 43.477-49.142 1.108-1.244.711-2.27.356-3.518-2.744-9.594 2.994-19.374 12.638-21.584 9.675-2.22 19.186 4.047 20.745 13.882.36 2.265-.187 4.662-.155 7 .014.934.187 2.133.775 2.744 2.948 3.062 6.084 5.942 9.092 8.946.866.866 1.59 1.089 2.775.556 3.664-1.655 7.515-1.887 11.348-.748 1.504.447 2.329.123 3.286-1.025 9.826-11.781 19.67-23.544 29.605-35.238 1.158-1.358.515-2.26.032-3.44-2.648-6.459-1.996-12.575 2.488-17.952 4.539-5.442 10.542-7.397 17.41-5.693 6.676 1.655 10.974 6.048 12.592 12.766 2.761 11.494-6.887 22.331-18.599 20.923-1.641-.196-2.639.2-3.687 1.454a7433.631 7433.631 0 01-30.457 36.304c-.98 1.162-1.217 2.16-.775 3.678 2.028 6.968-.415 14.182-6.089 18.503-5.592 4.261-13.253 4.676-19.282 1.048-6.198-3.733-9.256-10.642-8.126-17.974.146-.93-.228-2.27-.866-2.94-2.989-3.126-6.189-6.052-9.242-9.12-.971-.97-1.796-1.294-3.186-.747-3.423 1.35-6.945 1.308-10.528.47-.811-.192-2.151.16-2.684.76a9727.652 9727.652 0 00-44.056 49.845c-.515.588-.72 1.805-.529 2.602 1.796 7.434-.629 14.502-6.576 18.777-5.706 4.102-13.367 4.293-19.296.478-6.14-3.951-9.024-10.978-7.42-18.411.278-1.295.032-2.083-.88-2.99A5290.315 5290.315 0 0155.04 76.599c-.998-1.008-1.832-1.204-3.177-.725-3.773 1.345-7.629 1.326-11.37-.123-1.358-.524-2.17-.269-3.159.734-12.956 13.139-25.936 26.264-38.988 39.312-1.276 1.276-.88 2.324-.552 3.664 1.714 6.968.028 13.034-5.446 17.692-5.478 4.662-11.772 5.391-18.339 2.525-6.17-2.689-9.999-8.828-10.008-15.591z"/><path d="M121.294 70.51V-63.523c3.259 0 6.49-.037 9.721.05.365.009.866.683 1.017 1.148.177.552.054 1.203.054 1.81 0 38.637-.013 77.275.051 115.913 0 2.15-.607 3.718-2.056 5.254-2.889 3.063-5.615 6.276-8.782 9.858h-.005zM103.739-38.913h10.815c.046.92.114 1.731.114 2.547.005 37.348.023 74.7-.059 112.049 0 1.353-.67 2.921-1.518 4.006-2.142 2.748-4.539 5.305-6.904 7.87-.438.474-1.226.63-1.855.934-.196-.606-.533-1.207-.565-1.822-.082-1.591-.028-3.186-.028-4.781V-38.914zm-34.837-8.81c3.441 0 6.609-.045 9.771.06.41.013.957.738 1.153 1.248.201.533.06 1.199.06 1.805V75.204c-1.112-1.025-1.814-1.618-2.452-2.27-2.812-2.866-6.663-5.309-8.112-8.754-1.418-3.364-.41-7.762-.41-11.708-.01-32.198-.005-64.396-.005-96.59v-3.6l-.005-.005zm17.396 27.477h10.865c.05.793.137 1.586.137 2.383.004 34.454.014 68.908-.037 103.362 0 .976-.319 2.475-.97 2.817-1.345.71-2.703.651-4.275-.597-4.612-3.66-5.93-8.058-5.87-13.946.314-30.275.146-60.559.146-90.838v-3.181h.004zM16.82 70.92V-44.41h10.783c.041.78.114 1.577.114 2.38.005 28.92.018 57.846-.036 86.768 0 1.217-.374 2.552-.953 3.627-2.338 4.344-3.372 8.906-2.84 13.828.07.629.074 1.513-.29 1.905-2.047 2.196-4.216 4.275-6.778 6.822zm17.5-134.462c3.145 0 6.094-.009 9.038.01.51 0 1.026.123 1.618.195v99.949c-3.628 1.135-7.064 2.21-10.655 3.336v-103.49zM-.52-18.081h10.632c.059.884.155 1.686.155 2.488.009 30.375.027 60.75-.05 91.125 0 1.194-.657 2.644-1.486 3.528-2.885 3.08-5.975 5.97-9.252 9.187V-18.082zm219.639-39.896v2.93c0 29.077.018 58.148-.059 87.225 0 1.294-.602 2.798-1.399 3.842-2.197 2.898-4.653 5.6-6.987 8.399-.524.624-.957 1.321-1.435 1.987l-.807-.37c-.109-.742-.31-1.485-.31-2.228-.014-33.1.009-66.196-.05-99.297 0-2.046.629-2.643 2.602-2.534 2.707.15 5.433.037 8.45.037l-.005.009zM225.682-65h10.673c.046.893.119 1.705.119 2.511.005 19.282.009 38.565-.014 57.847 0 1.121-.123 2.284-.424 3.36-1.198 4.283-1.225 8.558.092 12.796.437 1.404.186 2.411-.766 3.514-3.154 3.646-6.216 7.374-9.685 11.508V-65h.005zm-86.969 24.565h10.778v2.56c0 19.807.023 39.614-.045 59.42 0 1.363-.433 2.83-1.049 4.06-2.278 4.572-3.167 9.33-2.21 14.352.287 1.509-.041 2.58-1.08 3.673-2.074 2.188-4.029 4.485-6.394 7.142v-91.208zm-76.346 2.893v80.88c-.683-.46-1.14-.779-1.609-1.075-1.663-1.052-3.213-2.634-5.022-3.04-3.947-.884-4.302-3.235-4.28-6.717.156-22.4.078-44.804.078-67.204v-2.844h10.833zm104.488-20.722v2.452c0 22.249-.018 44.498.032 66.748 0 1.85-.296 2.734-2.434 3.099-2.789.478-5.45 1.681-8.394 2.643-.046-.597-.142-1.308-.142-2.014-.009-23.467.019-46.928-.05-70.394-.004-1.978.483-2.707 2.534-2.58 2.703.169 5.428.041 8.454.041v.005zm23.817 52.852h10.901c.05.866.128 1.604.128 2.343.009 15.495.018 30.99-.028 46.485 0 .857-.36 2.329-.834 2.457-1.463.392-2.944 1.453-4.616-.142-5.515-5.259-5.569-5.195-5.565-12.797.009-11.85.005-23.698.009-35.548v-2.798h.005zm-6.417 24.528c-3.514-1.672-6.836-3.208-10.099-4.867-.442-.224-.811-1.067-.811-1.623-.046-14.406-.023-28.812-.051-43.222 0-1.203.479-1.6 1.623-1.577 2.351.046 4.708.114 7.05-.023 1.782-.105 2.347.479 2.329 2.293-.087 8.112-.036 16.224-.036 24.34v24.679h-.005z"/></g></g><path d="M21.344 29.11c-.484 0-.906-.092-1.265-.275a1.996 1.996 0 01-.825-.792c-.19-.352-.286-.766-.286-1.243v-3.63c0-.484.095-.898.286-1.243.198-.345.473-.609.825-.792.36-.183.781-.275 1.265-.275.484 0 .902.095 1.254.286.352.183.623.447.814.792.19.345.286.755.286 1.232h-.99c0-.455-.121-.803-.363-1.045-.235-.25-.568-.374-1.001-.374-.433 0-.774.121-1.023.363-.242.242-.363.59-.363 1.045V26.8c0 .455.121.807.363 1.056.25.242.59.363 1.023.363.433 0 .766-.121 1.001-.363.242-.25.363-.601.363-1.056h.99c0 .47-.095.88-.286 1.232-.19.345-.462.612-.814.803-.352.183-.77.275-1.254.275zm5.983-.11v-5.181h-2.2v-.869h5.39v.869h-2.2V29h-.99zm6.49.11c-.639 0-1.141-.161-1.508-.484-.366-.33-.55-.774-.55-1.331 0-.565.184-1.008.55-1.331.367-.323.862-.484 1.485-.484h1.87v-.605c0-.374-.113-.66-.34-.858-.22-.205-.536-.308-.947-.308-.359 0-.66.077-.902.231-.242.147-.381.348-.418.605h-.99c.066-.52.312-.935.737-1.243.426-.308.957-.462 1.595-.462.697 0 1.247.18 1.65.539.404.36.605.847.605 1.463V29h-.968v-1.155h-.165l.165-.165c0 .44-.172.788-.517 1.045-.337.257-.788.385-1.353.385zm.241-.781c.47 0 .855-.117 1.155-.352.301-.235.451-.535.451-.902v-.858h-1.848c-.33 0-.59.092-.78.275-.191.183-.287.433-.287.748 0 .337.114.605.341.803.235.19.558.286.968.286zm6.313.671v-5.181h-2.2v-.869h5.39v.869h-2.2V29h-.99zm4.752 0v-6.05h.946v3.3c0 .213-.008.436-.022.671a9.355 9.355 0 01-.044.671 7.002 7.002 0 01-.055.528l2.442-5.17h1.265V29h-.946v-3.3c0-.213.003-.436.01-.671.015-.235.034-.458.056-.671l.055-.539L46.388 29h-1.265zm8.81.11c-.484 0-.91-.092-1.276-.275a1.98 1.98 0 01-.836-.792c-.198-.352-.297-.766-.297-1.243v-1.65c0-.484.099-.898.297-1.243a1.98 1.98 0 01.836-.792c.367-.183.792-.275 1.276-.275.697 0 1.258.187 1.683.561.425.374.649.884.67 1.529h-.99c-.021-.389-.153-.686-.395-.891-.235-.213-.558-.319-.968-.319-.433 0-.777.125-1.034.374-.257.242-.385.59-.385 1.045V26.8c0 .455.128.807.385 1.056.257.25.601.374 1.034.374.41 0 .733-.106.968-.319.242-.213.374-.51.396-.891h.99c-.022.645-.246 1.155-.671 1.529-.425.374-.986.561-1.683.561zm6.005-.11v-5.181h-2.2v-.869h5.39v.869h-2.2V29h-.99zm4.751 0v-6.05h.946v3.3c0 .213-.007.436-.022.671a9.355 9.355 0 01-.044.671 7.002 7.002 0 01-.055.528l2.442-5.17h1.265V29h-.946v-3.3c0-.213.004-.436.011-.671.015-.235.033-.458.055-.671l.055-.539L65.954 29H64.69zm6.555 0v-6.05h.99v2.497h1.034l1.76-2.497h1.133l-2.035 2.882L76.194 29H75.04l-1.76-2.695h-1.045V29h-.99zm8.228.11c-.638 0-1.14-.161-1.507-.484-.367-.33-.55-.774-.55-1.331 0-.565.183-1.008.55-1.331.366-.323.861-.484 1.485-.484h1.87v-.605c0-.374-.114-.66-.341-.858-.22-.205-.536-.308-.946-.308-.36 0-.66.077-.902.231-.242.147-.382.348-.418.605h-.99c.066-.52.311-.935.737-1.243.425-.308.957-.462 1.595-.462.696 0 1.246.18 1.65.539.403.36.605.847.605 1.463V29h-.968v-1.155h-.165l.165-.165c0 .44-.173.788-.517 1.045-.338.257-.789.385-1.353.385zm.242-.781c.469 0 .854-.117 1.155-.352.3-.235.45-.535.45-.902v-.858h-1.847c-.33 0-.59.092-.781.275-.191.183-.286.433-.286.748 0 .337.113.605.34.803.235.19.558.286.969.286zM90.778 29v-6.05h2.618c.63 0 1.118.143 1.463.429.345.279.517.671.517 1.177 0 .418-.143.755-.43 1.012-.285.25-.663.374-1.132.374v-.088c.513 0 .924.128 1.232.385.315.257.473.601.473 1.034 0 .543-.183.968-.55 1.276-.367.3-.88.451-1.54.451h-2.651zm.968-.869h1.683c.352 0 .623-.077.814-.231.198-.154.297-.37.297-.649 0-.286-.1-.506-.297-.66-.19-.154-.462-.231-.814-.231h-1.683v1.771zm0-2.629h1.65c.308 0 .55-.073.726-.22.183-.147.275-.352.275-.616s-.088-.47-.264-.616c-.176-.154-.422-.231-.737-.231h-1.65v1.683zM103.8 30.98v-8.03h.99v1.155h.198l-.198.231c0-.462.151-.825.451-1.089.308-.271.712-.407 1.21-.407.609 0 1.093.202 1.452.605.367.396.55.942.55 1.639v1.771c0 .462-.084.862-.253 1.199a1.795 1.795 0 01-.693.781c-.293.183-.645.275-1.056.275-.491 0-.891-.136-1.199-.407-.308-.271-.462-.634-.462-1.089l.198.231h-.22l.022 1.375v1.76h-.99zm2.321-2.728c.418 0 .745-.125.979-.374.242-.25.363-.609.363-1.078v-1.65c0-.47-.121-.829-.363-1.078-.234-.25-.561-.374-.979-.374-.403 0-.726.128-.968.385s-.363.612-.363 1.067v1.65c0 .455.121.81.363 1.067.242.257.565.385.968.385zm6.489.858c-.476 0-.894-.095-1.254-.286a2.07 2.07 0 01-.825-.803 2.531 2.531 0 01-.286-1.221v-1.65c0-.47.096-.876.286-1.221a2.07 2.07 0 01.825-.803c.36-.19.778-.286 1.254-.286.477 0 .891.095 1.243.286.36.19.635.458.825.803.198.345.297.752.297 1.221v1.067h-3.762v.583c0 .477.121.843.363 1.1.242.25.587.374 1.034.374.382 0 .69-.066.924-.198a.872.872 0 00.429-.616h.99c-.066.506-.315.91-.748 1.21-.425.293-.957.44-1.595.44zm1.397-3.553v-.407c0-.477-.121-.843-.363-1.1-.234-.257-.579-.385-1.034-.385-.447 0-.792.128-1.034.385s-.363.623-.363 1.1v.319h2.871l-.077.088zm4.598 3.553c-.638 0-1.141-.161-1.507-.484-.367-.33-.55-.774-.55-1.331 0-.565.183-1.008.55-1.331.366-.323.861-.484 1.485-.484h1.87v-.605c0-.374-.114-.66-.341-.858-.22-.205-.536-.308-.946-.308-.36 0-.66.077-.902.231-.242.147-.382.348-.418.605h-.99c.066-.52.311-.935.737-1.243.425-.308.957-.462 1.595-.462.696 0 1.246.18 1.65.539.403.36.605.847.605 1.463V29h-.968v-1.155h-.165l.165-.165c0 .44-.173.788-.517 1.045-.338.257-.789.385-1.353.385zm.242-.781c.469 0 .854-.117 1.155-.352.3-.235.451-.535.451-.902v-.858h-1.848c-.33 0-.591.092-.781.275-.191.183-.286.433-.286.748 0 .337.113.605.341.803.234.19.557.286.968.286zm3.783.748v-.924h.198c.337 0 .572-.132.704-.396.139-.264.212-.737.22-1.419l.066-3.388h4.103V29h-.99v-5.148h-2.134l-.055 2.53c-.015.638-.088 1.155-.22 1.551-.125.396-.323.686-.594.869-.264.183-.613.275-1.045.275h-.253zm7.325-.077v-6.05h.99v2.222h1.782c.682 0 1.217.172 1.606.517.396.337.594.803.594 1.397 0 .587-.198 1.052-.594 1.397-.396.345-.931.517-1.606.517h-2.772zm.99-.902h1.782c.381 0 .671-.084.869-.253.205-.176.308-.429.308-.759s-.103-.58-.308-.748c-.198-.176-.488-.264-.869-.264h-1.782v2.024zm5.488.902v-6.05h.99v2.519h2.552V22.95h.99V29h-.99v-2.629h-2.552V29h-.99zm8.788.088c-.484 0-.902-.092-1.254-.275a1.996 1.996 0 01-.825-.792c-.19-.352-.286-.766-.286-1.243v-1.606c0-.484.096-.898.286-1.243.198-.345.473-.609.825-.792.352-.183.77-.275 1.254-.275s.902.092 1.254.275c.352.183.624.447.814.792.198.345.297.755.297 1.232v1.617c0 .477-.099.891-.297 1.243a1.92 1.92 0 01-.814.792c-.352.183-.77.275-1.254.275zm0-.88c.433 0 .77-.121 1.012-.363s.363-.598.363-1.067v-1.606c0-.47-.121-.825-.363-1.067s-.579-.363-1.012-.363c-.425 0-.762.121-1.012.363-.242.242-.363.598-.363 1.067v1.606c0 .47.121.825.363 1.067.25.242.587.363 1.012.363zm4.058.792v-6.05h1.342l.792 2.321c.081.235.154.47.22.704.066.227.114.403.143.528.03-.125.074-.3.132-.528a39.6 39.6 0 01.209-.715l.748-2.31h1.342V29h-.957v-.935c0-.33.004-.69.011-1.078l.022-1.177.044-1.122c.015-.36.026-.675.033-.946l-1.078 3.443h-1.045l-1.089-3.421c.015.33.026.74.033 1.232.015.491.026 1.005.033 1.54.015.535.022 1.045.022 1.529V29h-.957zm13.243 0v-6.05h2.618c.63 0 1.118.143 1.463.429.344.279.517.671.517 1.177 0 .418-.143.755-.429 1.012-.286.25-.664.374-1.133.374v-.088c.513 0 .924.128 1.232.385.315.257.473.601.473 1.034 0 .543-.184.968-.55 1.276-.367.3-.88.451-1.54.451h-2.651zm.968-.869h1.683c.352 0 .623-.077.814-.231.198-.154.297-.37.297-.649 0-.286-.099-.506-.297-.66-.191-.154-.462-.231-.814-.231h-1.683v1.771zm0-2.629h1.65c.308 0 .55-.073.726-.22.183-.147.275-.352.275-.616s-.088-.47-.264-.616c-.176-.154-.422-.231-.737-.231h-1.65v1.683zm5.532 5.478v-8.03h.99v1.155h.198l-.198.231c0-.462.15-.825.451-1.089.308-.271.711-.407 1.21-.407.609 0 1.093.202 1.452.605.367.396.55.942.55 1.639v1.771c0 .462-.084.862-.253 1.199a1.795 1.795 0 01-.693.781c-.293.183-.645.275-1.056.275-.491 0-.891-.136-1.199-.407-.308-.271-.462-.634-.462-1.089l.198.231h-.22l.022 1.375v1.76h-.99zm2.321-2.728c.418 0 .744-.125.979-.374.242-.25.363-.609.363-1.078v-1.65c0-.47-.121-.829-.363-1.078-.235-.25-.561-.374-.979-.374-.403 0-.726.128-.968.385s-.363.612-.363 1.067v1.65c0 .455.121.81.363 1.067.242.257.565.385.968.385zm6.489.858c-.477 0-.895-.095-1.254-.286a2.07 2.07 0 01-.825-.803c-.191-.352-.286-.759-.286-1.221v-1.65c0-.47.095-.876.286-1.221a2.07 2.07 0 01.825-.803c.359-.19.777-.286 1.254-.286s.891.095 1.243.286c.359.19.634.458.825.803.198.345.297.752.297 1.221v1.067h-3.762v.583c0 .477.121.843.363 1.1.242.25.587.374 1.034.374.381 0 .689-.066.924-.198a.872.872 0 00.429-.616h.99c-.066.506-.315.91-.748 1.21-.425.293-.957.44-1.595.44zm1.397-3.553v-.407c0-.477-.121-.843-.363-1.1-.235-.257-.579-.385-1.034-.385-.447 0-.792.128-1.034.385s-.363.623-.363 1.1v.319h2.871l-.077.088zM181.89 29v-6.05h1.342l.792 2.321c.081.235.154.47.22.704.066.227.114.403.143.528.03-.125.074-.3.132-.528a39.6 39.6 0 01.209-.715l.748-2.31h1.342V29h-.957v-.935c0-.33.004-.69.011-1.078l.022-1.177.044-1.122c.015-.36.026-.675.033-.946l-1.078 3.443h-1.045l-1.089-3.421c.015.33.026.74.033 1.232.015.491.026 1.005.033 1.54.015.535.022 1.045.022 1.529V29h-.957zm8.987.11c-.477 0-.895-.095-1.254-.286a2.07 2.07 0 01-.825-.803c-.191-.352-.286-.759-.286-1.221v-1.65c0-.47.095-.876.286-1.221a2.07 2.07 0 01.825-.803c.359-.19.777-.286 1.254-.286.476 0 .891.095 1.243.286.359.19.634.458.825.803.198.345.297.752.297 1.221v1.067h-3.762v.583c0 .477.121.843.363 1.1.242.25.586.374 1.034.374.381 0 .689-.066.924-.198a.878.878 0 00.429-.616h.99c-.066.506-.316.91-.748 1.21-.426.293-.957.44-1.595.44zm1.397-3.553v-.407c0-.477-.121-.843-.363-1.1-.235-.257-.58-.385-1.034-.385-.448 0-.792.128-1.034.385s-.363.623-.363 1.1v.319h2.871l-.077.088zM195.133 29v-6.05h.99v2.519h2.552V22.95h.99V29h-.99v-2.629h-2.552V29h-.99zm6.522 0v-6.05h.946v3.3c0 .213-.007.436-.022.671a9.185 9.185 0 01-.044.671 7.162 7.162 0 01-.055.528l2.442-5.17h1.265V29h-.946v-3.3c0-.213.004-.436.011-.671.015-.235.033-.458.055-.671l.055-.539L202.92 29h-1.265zm12.01-3.19v-.88h6.6v.88h-6.6zM21.3 49.088c-.484 0-.902-.092-1.254-.275a1.996 1.996 0 01-.825-.792c-.19-.352-.286-.766-.286-1.243v-1.606c0-.484.095-.898.286-1.243.198-.345.473-.609.825-.792.352-.183.77-.275 1.254-.275s.902.092 1.254.275c.352.183.623.447.814.792.198.345.297.755.297 1.232v1.617c0 .477-.099.891-.297 1.243a1.92 1.92 0 01-.814.792c-.352.183-.77.275-1.254.275zm0-.88c.433 0 .77-.121 1.012-.363s.363-.598.363-1.067v-1.606c0-.47-.121-.825-.363-1.067s-.58-.363-1.012-.363c-.425 0-.763.121-1.012.363-.242.242-.363.598-.363 1.067v1.606c0 .47.121.825.363 1.067.25.242.587.363 1.012.363zm6.027.792v-5.181h-2.2v-.869h5.39v.869h-2.2V49h-.99zm7.04.11c-.485 0-.91-.092-1.277-.275a1.98 1.98 0 01-.836-.792c-.198-.352-.297-.766-.297-1.243v-1.65c0-.484.1-.898.297-1.243a1.98 1.98 0 01.836-.792c.367-.183.792-.275 1.276-.275.697 0 1.258.187 1.683.561.426.374.65.884.671 1.529h-.99c-.022-.389-.154-.686-.396-.891-.234-.213-.557-.319-.968-.319-.432 0-.777.125-1.034.374-.256.242-.385.59-.385 1.045V46.8c0 .455.129.807.385 1.056.257.25.602.374 1.034.374.411 0 .734-.106.968-.319.242-.213.374-.51.396-.891h.99c-.022.645-.245 1.155-.67 1.529-.426.374-.987.561-1.684.561zm3.475-.033v-.924h.197c.338 0 .572-.132.704-.396.14-.264.213-.737.22-1.419l.066-3.388h4.103V49h-.99v-5.148h-2.134l-.055 2.53c-.014.638-.088 1.155-.22 1.551-.124.396-.322.686-.593.869-.264.183-.613.275-1.046.275h-.252zm9.547.033c-.477 0-.895-.095-1.254-.286a2.07 2.07 0 01-.825-.803 2.523 2.523 0 01-.286-1.221v-1.65c0-.47.095-.876.286-1.221a2.07 2.07 0 01.825-.803c.359-.19.777-.286 1.254-.286.476 0 .89.095 1.243.286.359.19.634.458.825.803.198.345.297.752.297 1.221v1.067h-3.762v.583c0 .477.12.843.363 1.1.242.25.586.374 1.034.374.381 0 .689-.066.924-.198a.874.874 0 00.429-.616h.99c-.066.506-.316.91-.748 1.21-.426.293-.957.44-1.595.44zm1.397-3.553v-.407c0-.477-.121-.843-.363-1.1-.235-.257-.58-.385-1.034-.385-.448 0-.792.128-1.034.385s-.363.623-.363 1.1v.319h2.87l-.076.088zM50.809 49l1.32-3.102-1.232-2.948h.957l1.056 2.64h.583v-2.64h.836v2.64h.56l1.09-2.64h.946l-1.232 2.915L57.013 49h-.99l-1.1-2.75h-.594V49h-.836v-2.75h-.594L51.788 49h-.98zm7.358 0v-6.05h.946v3.3c0 .213-.007.436-.022.671a9.355 9.355 0 01-.044.671 6.95 6.95 0 01-.055.528l2.442-5.17h1.265V49h-.946v-3.3c0-.213.004-.436.011-.671.015-.235.033-.458.055-.671l.055-.539L59.432 49h-1.265zm6.522 0v-6.05h2.618c.63 0 1.118.143 1.463.429.345.279.517.671.517 1.177 0 .418-.143.755-.429 1.012-.286.25-.663.374-1.133.374v-.088c.514 0 .924.128 1.232.385.316.257.473.601.473 1.034 0 .543-.183.968-.55 1.276-.367.3-.88.451-1.54.451h-2.65zm.968-.869h1.683c.352 0 .623-.077.814-.231.198-.154.297-.37.297-.649 0-.286-.099-.506-.297-.66-.19-.154-.462-.231-.814-.231h-1.683v1.771zm0-2.629h1.65c.308 0 .55-.073.726-.22.183-.147.275-.352.275-.616s-.088-.47-.264-.616c-.176-.154-.421-.231-.737-.231h-1.65v1.683zm7.292 3.608c-.638 0-1.14-.161-1.507-.484-.366-.33-.55-.774-.55-1.331 0-.565.184-1.008.55-1.331.367-.323.862-.484 1.485-.484h1.87v-.605c0-.374-.113-.66-.34-.858-.22-.205-.536-.308-.947-.308-.359 0-.66.077-.902.231a.825.825 0 00-.418.605h-.99c.066-.52.312-.935.737-1.243.426-.308.957-.462 1.595-.462.697 0 1.247.18 1.65.539.404.36.605.847.605 1.463V49h-.968v-1.155h-.165l.165-.165c0 .44-.172.788-.517 1.045-.337.257-.788.385-1.353.385zm.242-.781c.47 0 .855-.117 1.155-.352.301-.235.451-.535.451-.902v-.858H72.95c-.33 0-.59.092-.78.275-.191.183-.287.433-.287.748 0 .337.114.605.341.803.235.19.558.286.968.286zm4.543.671v-6.05h.946v3.3c0 .213-.008.436-.022.671a9.413 9.413 0 01-.044.671 7.002 7.002 0 01-.055.528L81 42.95h1.265V49h-.946v-3.3c0-.213.003-.436.01-.671.015-.235.034-.458.056-.671l.055-.539L78.999 49h-1.265zm2.31-7.04c-.528 0-.954-.147-1.276-.44-.323-.293-.484-.678-.484-1.155h.78c0 .286.089.517.265.693.176.176.41.264.704.264.3 0 .539-.088.715-.264.183-.176.275-.407.275-.693h.78c0 .477-.16.862-.483 1.155-.323.293-.748.44-1.276.44zM86.027 49v-5.181h-2.2v-.869h5.39v.869h-2.2V49h-.99zm7.017.11c-.477 0-.895-.095-1.254-.286a2.07 2.07 0 01-.825-.803 2.523 2.523 0 01-.286-1.221v-1.65c0-.47.095-.876.286-1.221a2.07 2.07 0 01.825-.803c.36-.19.777-.286 1.254-.286s.89.095 1.243.286c.36.19.634.458.825.803.198.345.297.752.297 1.221v1.067h-3.762v.583c0 .477.12.843.363 1.1.242.25.587.374 1.034.374.381 0 .69-.066.924-.198a.874.874 0 00.429-.616h.99c-.066.506-.315.91-.748 1.21-.425.293-.957.44-1.595.44zm1.397-3.553v-.407c0-.477-.121-.843-.363-1.1-.235-.257-.58-.385-1.034-.385-.447 0-.792.128-1.034.385s-.363.623-.363 1.1v.319h2.87l-.076.088zM103.855 49v-6.05h.99v2.497h1.034l1.76-2.497h1.133l-2.035 2.882L108.805 49h-1.155l-1.76-2.695h-1.045V49h-.99zm8.755.088c-.484 0-.902-.092-1.254-.275a1.996 1.996 0 01-.825-.792c-.19-.352-.286-.766-.286-1.243v-1.606c0-.484.096-.898.286-1.243.198-.345.473-.609.825-.792.352-.183.77-.275 1.254-.275s.902.092 1.254.275c.352.183.624.447.814.792.198.345.297.755.297 1.232v1.617c0 .477-.099.891-.297 1.243a1.92 1.92 0 01-.814.792c-.352.183-.77.275-1.254.275zm0-.88c.433 0 .77-.121 1.012-.363s.363-.598.363-1.067v-1.606c0-.47-.121-.825-.363-1.067s-.579-.363-1.012-.363c-.425 0-.762.121-1.012.363-.242.242-.363.598-.363 1.067v1.606c0 .47.121.825.363 1.067.25.242.587.363 1.012.363zm3.498.869v-.924h.198c.337 0 .572-.132.704-.396.139-.264.212-.737.22-1.419l.066-3.388h4.103V49h-.99v-5.148h-2.134l-.055 2.53c-.015.638-.088 1.155-.22 1.551-.125.396-.323.686-.594.869-.264.183-.613.275-1.045.275h-.253zm7.281-.077v-6.05h.946v3.3c0 .213-.008.436-.022.671a9.779 9.779 0 01-.044.671 7.162 7.162 0 01-.055.528l2.442-5.17h1.265V49h-.946v-3.3c0-.213.003-.436.011-.671.014-.235.033-.458.055-.671l.055-.539L124.654 49h-1.265zm9.998 0v-2.2c-.117.03-.297.059-.539.088a8.033 8.033 0 01-.748.033c-.748.007-1.331-.172-1.749-.539-.411-.374-.616-.895-.616-1.562v-1.87h.99v1.87c0 .374.125.671.374.891.257.213.609.319 1.056.319.308 0 .568-.011.781-.033.22-.03.37-.055.451-.077v-2.97h.99V49h-.99zm5.312.11c-.477 0-.895-.095-1.254-.286a2.07 2.07 0 01-.825-.803c-.191-.352-.286-.759-.286-1.221v-1.65c0-.47.095-.876.286-1.221a2.07 2.07 0 01.825-.803c.359-.19.777-.286 1.254-.286s.891.095 1.243.286c.359.19.634.458.825.803.198.345.297.752.297 1.221v1.067h-3.762v.583c0 .477.121.843.363 1.1.242.25.587.374 1.034.374.381 0 .689-.066.924-.198a.872.872 0 00.429-.616h.99c-.066.506-.315.91-.748 1.21-.425.293-.957.44-1.595.44zm1.397-3.553v-.407c0-.477-.121-.843-.363-1.1-.235-.257-.579-.385-1.034-.385-.447 0-.792.128-1.034.385s-.363.623-.363 1.1v.319h2.871l-.077.088zm5.147 3.553c-.484 0-.909-.092-1.276-.275a1.982 1.982 0 01-.836-.792c-.198-.352-.297-.766-.297-1.243v-1.65c0-.484.099-.898.297-1.243.198-.345.477-.609.836-.792.367-.183.792-.275 1.276-.275.697 0 1.258.187 1.683.561.426.374.649.884.671 1.529h-.99c-.022-.389-.154-.686-.396-.891-.234-.213-.557-.319-.968-.319-.432 0-.777.125-1.034.374-.256.242-.385.59-.385 1.045V46.8c0 .455.129.807.385 1.056.257.25.602.374 1.034.374.411 0 .734-.106.968-.319.242-.213.374-.51.396-.891h.99c-.022.645-.245 1.155-.671 1.529-.425.374-.986.561-1.683.561zm6.005-.11v-5.181h-2.2v-.869h5.39v.869h-2.2V49h-.99zM156 49v-6.05h2.618c.63 0 1.118.143 1.463.429.344.279.517.671.517 1.177 0 .418-.143.755-.429 1.012-.286.25-.664.374-1.133.374v-.088c.513 0 .924.128 1.232.385.315.257.473.601.473 1.034 0 .543-.184.968-.55 1.276-.367.3-.88.451-1.54.451H156zm.968-.869h1.683c.352 0 .623-.077.814-.231.198-.154.297-.37.297-.649 0-.286-.099-.506-.297-.66-.191-.154-.462-.231-.814-.231h-1.683v1.771zm0-2.629h1.65c.308 0 .55-.073.726-.22.183-.147.275-.352.275-.616s-.088-.47-.264-.616c-.176-.154-.422-.231-.737-.231h-1.65v1.683zm7.82 3.586c-.484 0-.902-.092-1.254-.275a1.996 1.996 0 01-.825-.792c-.191-.352-.286-.766-.286-1.243v-1.606c0-.484.095-.898.286-1.243.198-.345.473-.609.825-.792.352-.183.77-.275 1.254-.275s.902.092 1.254.275c.352.183.623.447.814.792.198.345.297.755.297 1.232v1.617c0 .477-.099.891-.297 1.243a1.929 1.929 0 01-.814.792c-.352.183-.77.275-1.254.275zm0-.88c.432 0 .77-.121 1.012-.363s.363-.598.363-1.067v-1.606c0-.47-.121-.825-.363-1.067s-.58-.363-1.012-.363c-.426 0-.763.121-1.012.363-.242.242-.363.598-.363 1.067v1.606c0 .47.121.825.363 1.067.249.242.586.363 1.012.363zm10.778.792v-6.05h4.532V49h-.99v-5.148h-2.552V49h-.99zm8.788.11c-.476 0-.894-.095-1.254-.286a2.07 2.07 0 01-.825-.803 2.531 2.531 0 01-.286-1.221v-1.65c0-.47.096-.876.286-1.221a2.07 2.07 0 01.825-.803c.36-.19.778-.286 1.254-.286.477 0 .891.095 1.243.286.36.19.635.458.825.803.198.345.297.752.297 1.221v1.067h-3.762v.583c0 .477.121.843.363 1.1.242.25.587.374 1.034.374.382 0 .69-.066.924-.198a.872.872 0 00.429-.616h.99c-.066.506-.315.91-.748 1.21-.425.293-.957.44-1.595.44zm1.397-3.553v-.407c0-.477-.121-.843-.363-1.1-.234-.257-.579-.385-1.034-.385-.447 0-.792.128-1.034.385s-.363.623-.363 1.1v.319h2.871l-.077.088zm2.838 5.423v-8.03h.99v1.155h.198l-.198.231c0-.462.15-.825.451-1.089.308-.271.711-.407 1.21-.407.608 0 1.092.202 1.452.605.366.396.55.942.55 1.639v1.771c0 .462-.085.862-.253 1.199a1.807 1.807 0 01-.693.781c-.294.183-.646.275-1.056.275-.492 0-.891-.136-1.199-.407-.308-.271-.462-.634-.462-1.089l.198.231h-.22l.022 1.375v1.76h-.99zm2.321-2.728c.418 0 .744-.125.979-.374.242-.25.363-.609.363-1.078v-1.65c0-.47-.121-.829-.363-1.078-.235-.25-.561-.374-.979-.374-.404 0-.726.128-.968.385s-.363.612-.363 1.067v1.65c0 .455.121.81.363 1.067.242.257.564.385.968.385zm6.489.858c-.477 0-.895-.095-1.254-.286a2.07 2.07 0 01-.825-.803c-.191-.352-.286-.759-.286-1.221v-1.65c0-.47.095-.876.286-1.221a2.07 2.07 0 01.825-.803c.359-.19.777-.286 1.254-.286.476 0 .891.095 1.243.286.359.19.634.458.825.803.198.345.297.752.297 1.221v1.067h-3.762v.583c0 .477.121.843.363 1.1.242.25.586.374 1.034.374.381 0 .689-.066.924-.198a.878.878 0 00.429-.616h.99c-.066.506-.316.91-.748 1.21-.426.293-.957.44-1.595.44zm1.397-3.553v-.407c0-.477-.121-.843-.363-1.1-.235-.257-.58-.385-1.034-.385-.448 0-.792.128-1.034.385s-.363.623-.363 1.1v.319h2.871l-.077.088zM201.171 49l2.145-3.113-2.013-2.937h1.166l1.199 1.87c.051.08.099.169.143.264.051.095.092.172.121.231.022-.059.055-.136.099-.231a4.23 4.23 0 01.154-.264l1.21-1.87h1.155l-2.013 2.948L206.671 49h-1.166l-1.298-1.98a3.076 3.076 0 01-.154-.275 2.322 2.322 0 00-.121-.264 3.987 3.987 0 01-.132.264 1.887 1.887 0 01-.165.275L202.326 49h-1.155zm9.272.088c-.484 0-.902-.092-1.254-.275a1.996 1.996 0 01-.825-.792c-.191-.352-.286-.766-.286-1.243v-1.606c0-.484.095-.898.286-1.243.198-.345.473-.609.825-.792.352-.183.77-.275 1.254-.275s.902.092 1.254.275c.352.183.623.447.814.792.198.345.297.755.297 1.232v1.617c0 .477-.099.891-.297 1.243a1.929 1.929 0 01-.814.792c-.352.183-.77.275-1.254.275zm0-.88c.433 0 .77-.121 1.012-.363s.363-.598.363-1.067v-1.606c0-.47-.121-.825-.363-1.067s-.579-.363-1.012-.363c-.425 0-.763.121-1.012.363-.242.242-.363.598-.363 1.067v1.606c0 .47.121.825.363 1.067.249.242.587.363 1.012.363zm3.552 2.332v-2.387h.495c.125-.125.253-.37.385-.737.14-.367.213-.832.22-1.397l.066-3.069h3.949v5.203h.77v2.387H219V49h-4.125v1.54h-.88zm1.54-2.387h2.585V43.83h-2.024l-.044 2.211c-.007.58-.069 1.049-.187 1.408-.117.36-.227.594-.33.704zm7.952.935c-.484 0-.902-.092-1.254-.275a1.996 1.996 0 01-.825-.792c-.19-.352-.286-.766-.286-1.243v-1.606c0-.484.096-.898.286-1.243.198-.345.473-.609.825-.792.352-.183.77-.275 1.254-.275s.902.092 1.254.275c.352.183.624.447.814.792.198.345.297.755.297 1.232v1.617c0 .477-.099.891-.297 1.243a1.92 1.92 0 01-.814.792c-.352.183-.77.275-1.254.275zm0-.88c.433 0 .77-.121 1.012-.363s.363-.598.363-1.067v-1.606c0-.47-.121-.825-.363-1.067s-.579-.363-1.012-.363c-.425 0-.762.121-1.012.363-.242.242-.363.598-.363 1.067v1.606c0 .47.121.825.363 1.067.25.242.587.363 1.012.363zm4.257.792v-6.05h2.618c.63 0 1.118.143 1.463.429.344.279.517.671.517 1.177 0 .418-.143.755-.429 1.012-.286.25-.664.374-1.133.374v-.088c.513 0 .924.128 1.232.385.315.257.473.601.473 1.034 0 .543-.184.968-.55 1.276-.367.3-.88.451-1.54.451h-2.651zm.968-.869h1.683c.352 0 .623-.077.814-.231.198-.154.297-.37.297-.649 0-.286-.099-.506-.297-.66-.191-.154-.462-.231-.814-.231h-1.683v1.771zm0-2.629h1.65c.308 0 .55-.073.726-.22.183-.147.275-.352.275-.616s-.088-.47-.264-.616c-.176-.154-.422-.231-.737-.231h-1.65v1.683zM19.034 69v-6.05h.946v3.3c0 .213-.007.436-.022.671a9.355 9.355 0 01-.044.671 7.002 7.002 0 01-.055.528l2.442-5.17h1.265V69h-.946v-3.3c0-.213.004-.436.011-.671.015-.235.033-.458.055-.671l.055-.539L20.299 69h-1.265zm15.024.077c-.638 0-1.162-.136-1.573-.407a1.617 1.617 0 01-.726-1.1h1.045c.052.183.187.334.407.451.228.117.51.176.847.176h.517c.36 0 .638-.084.836-.253a.813.813 0 00.308-.66c0-.293-.099-.524-.297-.693-.19-.169-.473-.253-.847-.253h-1.33v-.858h1.297c.338 0 .594-.08.77-.242a.824.824 0 00.264-.638.833.833 0 00-.12-.462.699.699 0 00-.342-.286 1.422 1.422 0 00-.56-.099h-.55a1.41 1.41 0 00-.76.198c-.212.132-.34.293-.385.484h-1.045c.074-.455.312-.829.715-1.122.404-.293.895-.44 1.474-.44h.55c.433 0 .803.07 1.111.209.308.132.543.323.704.572.169.25.253.546.253.891 0 .36-.117.656-.352.891-.234.227-.564.356-.99.385v.044c.521.037.899.176 1.133.418.235.242.352.59.352 1.045 0 .535-.198.96-.594 1.276-.396.315-.927.473-1.595.473h-.517zm6.28.033c-.638 0-1.14-.161-1.507-.484-.366-.33-.55-.774-.55-1.331 0-.565.184-1.008.55-1.331.367-.323.862-.484 1.485-.484h1.87v-.605c0-.374-.113-.66-.34-.858-.22-.205-.536-.308-.946-.308-.36 0-.66.077-.902.231-.242.147-.382.348-.418.605h-.99c.066-.52.311-.935.736-1.243.426-.308.957-.462 1.596-.462.696 0 1.246.18 1.65.539.403.36.604.847.604 1.463V69h-.968v-1.155h-.164l.165-.165c0 .44-.173.788-.518 1.045-.337.257-.788.385-1.352.385zm.242-.781c.47 0 .855-.117 1.156-.352.3-.235.45-.535.45-.902v-.858H40.34c-.33 0-.59.092-.782.275-.19.183-.285.433-.285.748 0 .337.113.605.34.803.235.19.558.286.968.286zm4.52 2.651v-8.03h.99v1.155h.199l-.198.231c0-.462.15-.825.45-1.089.309-.271.712-.407 1.21-.407.61 0 1.093.202 1.453.605.366.396.55.942.55 1.639v1.771c0 .462-.085.862-.253 1.199a1.798 1.798 0 01-.693.781c-.294.183-.646.275-1.056.275-.492 0-.891-.136-1.2-.407-.307-.271-.461-.634-.461-1.089l.198.231h-.22l.022 1.375v1.76h-.99zm2.322-2.728c.418 0 .744-.125.979-.374.242-.25.363-.609.363-1.078v-1.65c0-.47-.121-.829-.363-1.078-.235-.25-.561-.374-.98-.374-.403 0-.725.128-.967.385s-.363.612-.363 1.067v1.65c0 .455.12.81.363 1.067.242.257.564.385.968.385zm5.96.858c-.637 0-1.14-.161-1.506-.484-.367-.33-.55-.774-.55-1.331 0-.565.183-1.008.55-1.331.367-.323.861-.484 1.485-.484h1.87v-.605c0-.374-.114-.66-.341-.858-.22-.205-.535-.308-.946-.308-.36 0-.66.077-.902.231-.242.147-.382.348-.418.605h-.99c.066-.52.312-.935.737-1.243.425-.308.957-.462 1.595-.462.697 0 1.246.18 1.65.539.403.36.605.847.605 1.463V69h-.968v-1.155h-.165l.165-.165c0 .44-.172.788-.517 1.045-.337.257-.788.385-1.353.385zm.243-.781c.47 0 .854-.117 1.155-.352.3-.235.45-.535.45-.902v-.858h-1.847c-.33 0-.59.092-.781.275-.19.183-.286.433-.286.748 0 .337.113.605.34.803.236.19.558.286.969.286zm6.808.781c-.711 0-1.276-.209-1.694-.627-.41-.425-.616-1.005-.616-1.738v-2.75c0-.968.242-1.712.726-2.233.484-.528 1.177-.792 2.079-.792h1.54v.99h-1.54c-.594 0-1.045.176-1.353.528-.308.345-.462.847-.462 1.507v.715h.154l-.154.22c.007-.433.154-.77.44-1.012.286-.242.675-.363 1.166-.363.638 0 1.133.205 1.485.616.36.41.539.975.539 1.694v.88c0 .491-.092.913-.275 1.265a1.927 1.927 0 01-.792.814c-.345.19-.759.286-1.243.286zm0-.88c.425 0 .752-.128.979-.385.227-.257.341-.623.341-1.1v-.88c0-.477-.114-.843-.341-1.1-.227-.257-.554-.385-.979-.385-.425 0-.752.128-.979.385-.227.25-.341.616-.341 1.1v.88c0 .477.114.843.341 1.1.227.257.554.385.979.385zm6.522.858c-.484 0-.902-.092-1.254-.275a1.996 1.996 0 01-.825-.792c-.19-.352-.286-.766-.286-1.243v-1.606c0-.484.096-.898.286-1.243.198-.345.473-.609.825-.792.352-.183.77-.275 1.254-.275s.902.092 1.254.275c.352.183.623.447.814.792.198.345.297.755.297 1.232v1.617c0 .477-.099.891-.297 1.243a1.92 1.92 0 01-.814.792c-.352.183-.77.275-1.254.275zm0-.88c.433 0 .77-.121 1.012-.363s.363-.598.363-1.067v-1.606c0-.47-.12-.825-.363-1.067-.242-.242-.58-.363-1.012-.363-.425 0-.763.121-1.012.363-.242.242-.363.598-.363 1.067v1.606c0 .47.121.825.363 1.067.25.242.587.363 1.012.363zm6.027.792v-5.181h-2.2v-.869h5.39v.869h-2.2V69h-.99zm6.49.11c-.638 0-1.14-.161-1.507-.484-.367-.33-.55-.774-.55-1.331 0-.565.183-1.008.55-1.331.366-.323.861-.484 1.485-.484h1.87v-.605c0-.374-.114-.66-.341-.858-.22-.205-.536-.308-.946-.308-.36 0-.66.077-.902.231-.242.147-.382.348-.418.605h-.99c.066-.52.311-.935.737-1.243.425-.308.957-.462 1.595-.462.696 0 1.246.18 1.65.539.403.36.605.847.605 1.463V69h-.968v-1.155h-.165l.165-.165c0 .44-.173.788-.517 1.045-.338.257-.789.385-1.353.385zm.242-.781c.469 0 .854-.117 1.155-.352.3-.235.45-.535.45-.902v-.858h-1.847c-.33 0-.59.092-.781.275-.191.183-.286.433-.286.748 0 .337.113.605.34.803.235.19.558.286.969.286zm4.542.671v-6.05h.99v2.519h2.552V62.95h.99V69h-.99v-2.629h-2.552V69h-.99zm6.522 0v-6.05h.99v2.519h2.552V62.95h.99V69h-.99v-2.629h-2.552V69h-.99zm6.203 0v-6.05h.924v2.222h.495c.653 0 1.166.172 1.54.517.381.337.572.803.572 1.397s-.191 1.063-.572 1.408c-.374.337-.887.506-1.54.506h-1.419zm.924-.792h.495c.389 0 .69-.099.902-.297.22-.198.33-.473.33-.825s-.11-.627-.33-.825c-.213-.198-.513-.297-.902-.297h-.495v2.244zm3.322.792v-6.05h.924V69h-.924zm2.111 0l2.145-3.113-2.013-2.937h1.166l1.199 1.87c.052.08.099.169.143.264.052.095.092.172.121.231.022-.059.055-.136.099-.231.052-.095.103-.183.154-.264l1.21-1.87h1.155l-2.013 2.948L108.838 69h-1.166l-1.298-1.98a3.347 3.347 0 01-.154-.275 2.322 2.322 0 00-.121-.264 3.987 3.987 0 01-.132.264 1.887 1.887 0 01-.165.275L104.493 69h-1.155zm12.825 1.54v-2.387h.495c.124-.125.253-.37.385-.737.139-.367.212-.832.22-1.397l.066-3.069h3.949v5.203h.77v2.387h-.88V69h-4.125v1.54h-.88zm1.54-2.387h2.585V63.83h-2.024l-.044 2.211c-.008.58-.07 1.049-.187 1.408-.118.36-.228.594-.33.704zm7.952.957c-.477 0-.895-.095-1.254-.286a2.07 2.07 0 01-.825-.803c-.191-.352-.286-.759-.286-1.221v-1.65c0-.47.095-.876.286-1.221a2.07 2.07 0 01.825-.803c.359-.19.777-.286 1.254-.286.476 0 .891.095 1.243.286.359.19.634.458.825.803.198.345.297.752.297 1.221v1.067h-3.762v.583c0 .477.121.843.363 1.1.242.25.586.374 1.034.374.381 0 .689-.066.924-.198a.878.878 0 00.429-.616h.99c-.066.506-.316.91-.748 1.21-.426.293-.957.44-1.595.44zm1.397-3.553v-.407c0-.477-.121-.843-.363-1.1-.235-.257-.58-.385-1.034-.385-.448 0-.792.128-1.034.385s-.363.623-.363 1.1v.319h2.871l-.077.088zM129.911 69v-6.05h.99v2.519h2.552V62.95h.99V69h-.99v-2.629h-2.552V69h-.99zm8.788.11c-.477 0-.895-.095-1.254-.286a2.07 2.07 0 01-.825-.803c-.191-.352-.286-.759-.286-1.221v-1.65c0-.47.095-.876.286-1.221a2.07 2.07 0 01.825-.803c.359-.19.777-.286 1.254-.286s.891.095 1.243.286c.359.19.634.458.825.803.198.345.297.752.297 1.221v1.067h-3.762v.583c0 .477.121.843.363 1.1.242.25.587.374 1.034.374.381 0 .689-.066.924-.198a.872.872 0 00.429-.616h.99c-.066.506-.315.91-.748 1.21-.425.293-.957.44-1.595.44zm1.397-3.553v-.407c0-.477-.121-.843-.363-1.1-.235-.257-.579-.385-1.034-.385-.447 0-.792.128-1.034.385s-.363.623-.363 1.1v.319h2.871l-.077.088zM143.351 69v-6.05h4.345v.902h-3.355V69h-.99zM156 69v-6.05h2.618c.63 0 1.118.143 1.463.429.344.279.517.671.517 1.177 0 .418-.143.755-.429 1.012-.286.25-.664.374-1.133.374v-.088c.513 0 .924.128 1.232.385.315.257.473.601.473 1.034 0 .543-.184.968-.55 1.276-.367.3-.88.451-1.54.451H156zm.968-.869h1.683c.352 0 .623-.077.814-.231.198-.154.297-.37.297-.649 0-.286-.099-.506-.297-.66-.191-.154-.462-.231-.814-.231h-1.683v1.771zm0-2.629h1.65c.308 0 .55-.073.726-.22.183-.147.275-.352.275-.616s-.088-.47-.264-.616c-.176-.154-.422-.231-.737-.231h-1.65v1.683zm11.317 3.575v-.924h.198c.337 0 .572-.132.704-.396.139-.264.213-.737.22-1.419l.066-3.388h4.103V69h-.99v-5.148h-2.134l-.055 2.53c-.015.638-.088 1.155-.22 1.551-.125.396-.323.686-.594.869-.264.183-.612.275-1.045.275h-.253zm7.281-.077v-6.05h.946v3.3c0 .213-.007.436-.022.671a9.185 9.185 0 01-.044.671 7.162 7.162 0 01-.055.528l2.442-5.17h1.265V69h-.946v-3.3c0-.213.004-.436.011-.671.015-.235.033-.458.055-.671l.055-.539L176.831 69h-1.265zm9.998 0v-2.2c-.117.03-.297.059-.539.088a8.017 8.017 0 01-.748.033c-.748.007-1.331-.172-1.749-.539-.41-.374-.616-.895-.616-1.562v-1.87h.99v1.87c0 .374.125.671.374.891.257.213.609.319 1.056.319.308 0 .569-.011.781-.033.22-.03.371-.055.451-.077v-2.97h.99V69h-.99zm3.047 0v-6.05h.99v2.519h2.552V62.95h.99V69h-.99v-2.629h-2.552V69h-.99zm8.788.088c-.484 0-.902-.092-1.254-.275a1.996 1.996 0 01-.825-.792c-.191-.352-.286-.766-.286-1.243v-1.606c0-.484.095-.898.286-1.243.198-.345.473-.609.825-.792.352-.183.77-.275 1.254-.275s.902.092 1.254.275c.352.183.623.447.814.792.198.345.297.755.297 1.232v1.617c0 .477-.099.891-.297 1.243a1.929 1.929 0 01-.814.792c-.352.183-.77.275-1.254.275zm0-.88c.432 0 .77-.121 1.012-.363s.363-.598.363-1.067v-1.606c0-.47-.121-.825-.363-1.067s-.58-.363-1.012-.363c-.426 0-.763.121-1.012.363-.242.242-.363.598-.363 1.067v1.606c0 .47.121.825.363 1.067.249.242.586.363 1.012.363zm4.058.792v-6.05h1.342l.792 2.321c.081.235.154.47.22.704.066.227.114.403.143.528.029-.125.073-.3.132-.528a39.6 39.6 0 01.209-.715l.748-2.31h1.342V69h-.957v-.935c0-.33.004-.69.011-1.078l.022-1.177c.015-.396.029-.77.044-1.122.015-.36.026-.675.033-.946l-1.078 3.443h-1.045l-1.089-3.421c.015.33.026.74.033 1.232.015.491.026 1.005.033 1.54.015.535.022 1.045.022 1.529V69h-.957zm13.275 0v-6.05h.99v2.497h1.034l1.76-2.497h1.133l-2.035 2.882L219.682 69h-1.155l-1.76-2.695h-1.045V69h-.99zm8.227.11c-.638 0-1.14-.161-1.507-.484-.366-.33-.55-.774-.55-1.331 0-.565.184-1.008.55-1.331.367-.323.862-.484 1.485-.484h1.87v-.605c0-.374-.113-.66-.341-.858-.22-.205-.535-.308-.946-.308-.359 0-.66.077-.902.231a.823.823 0 00-.418.605h-.99c.066-.52.312-.935.737-1.243.426-.308.957-.462 1.595-.462.697 0 1.247.18 1.65.539.404.36.605.847.605 1.463V69h-.968v-1.155h-.165l.165-.165c0 .44-.172.788-.517 1.045-.337.257-.788.385-1.353.385zm.242-.781c.47 0 .855-.117 1.155-.352.301-.235.451-.535.451-.902v-.858h-1.848c-.33 0-.59.092-.781.275-.19.183-.286.433-.286.748 0 .337.114.605.341.803.235.19.558.286.968.286zm6.809.781c-.712 0-1.276-.209-1.694-.627-.411-.425-.616-1.005-.616-1.738v-2.75c0-.968.242-1.712.726-2.233.484-.528 1.177-.792 2.079-.792h1.54v.99h-1.54c-.594 0-1.045.176-1.353.528-.308.345-.462.847-.462 1.507v.715h.154l-.154.22c.007-.433.154-.77.44-1.012.286-.242.674-.363 1.166-.363.638 0 1.133.205 1.485.616.359.41.539.975.539 1.694v.88c0 .491-.092.913-.275 1.265a1.935 1.935 0 01-.792.814c-.345.19-.759.286-1.243.286zm0-.88c.425 0 .751-.128.979-.385.227-.257.341-.623.341-1.1v-.88c0-.477-.114-.843-.341-1.1-.228-.257-.554-.385-.979-.385-.426 0-.752.128-.979.385-.228.25-.341.616-.341 1.1v.88c0 .477.113.843.341 1.1.227.257.553.385.979.385zm4.256.77v-6.05h.946v3.3c0 .213-.008.436-.022.671a9.779 9.779 0 01-.044.671 7.162 7.162 0 01-.055.528l2.442-5.17h1.265V69h-.946v-3.3c0-.213.003-.436.011-.671.014-.235.033-.458.055-.671l.055-.539L235.531 69h-1.265zm6.522 0v-6.05h.99v2.519h2.552V62.95h.99V69h-.99v-2.629h-2.552V69h-.99zm8.788.11c-.477 0-.895-.095-1.254-.286a2.07 2.07 0 01-.825-.803c-.191-.352-.286-.759-.286-1.221v-1.65c0-.47.095-.876.286-1.221a2.07 2.07 0 01.825-.803c.359-.19.777-.286 1.254-.286s.891.095 1.243.286c.359.19.634.458.825.803.198.345.297.752.297 1.221v1.067h-3.762v.583c0 .477.121.843.363 1.1.242.25.587.374 1.034.374.381 0 .689-.066.924-.198a.872.872 0 00.429-.616h.99c-.066.506-.315.91-.748 1.21-.425.293-.957.44-1.595.44zm1.397-3.553v-.407c0-.477-.121-.843-.363-1.1-.235-.257-.579-.385-1.034-.385-.447 0-.792.128-1.034.385s-.363.623-.363 1.1v.319h2.871l-.077.088zm4.63 3.443v-5.181h-2.2v-.869h5.39v.869h-2.2V69h-.99zm7.017.11c-.476 0-.894-.095-1.254-.286a2.07 2.07 0 01-.825-.803 2.531 2.531 0 01-.286-1.221v-1.65c0-.47.096-.876.286-1.221a2.07 2.07 0 01.825-.803c.36-.19.778-.286 1.254-.286.477 0 .891.095 1.243.286.36.19.635.458.825.803.198.345.297.752.297 1.221v1.067h-3.762v.583c0 .477.121.843.363 1.1.242.25.587.374 1.034.374.382 0 .69-.066.924-.198a.872.872 0 00.429-.616h.99c-.066.506-.315.91-.748 1.21-.425.293-.957.44-1.595.44zm1.397-3.553v-.407c0-.477-.121-.843-.363-1.1-.234-.257-.579-.385-1.034-.385-.447 0-.792.128-1.034.385s-.363.623-.363 1.1v.319h2.871l-.077.088zm5.126 3.553c-.279 0-.503-.08-.671-.242-.162-.161-.242-.378-.242-.649 0-.286.08-.513.242-.682.168-.169.392-.253.671-.253.278 0 .498.084.66.253.168.169.253.396.253.682 0 .271-.085.488-.253.649-.162.161-.382.242-.66.242z" fill="#fff"/></svg>