<svg width="348" height="45" fill="none" xmlns="http://www.w3.org/2000/svg"><rect x="348" y="43.5" width="348" height="43.5" rx="20" transform="rotate(-180 348 43.5)" fill="url(#paint0_linear_2015_54)"/><path d="M21.358 32.141l.29-2.274c.094-.742.188-1.483.28-2.224l.34-2.725c.022-.166.04-.334.067-.5.028-.163-.06-.264-.165-.37-1.828-1.822-3.653-3.647-5.48-5.469-.185-.184-.298-.382-.242-.65.075-.358.258-.49.765-.565 1.462-.216 2.923-.436 4.384-.653 1.055-.156 2.11-.31 3.166-.464.152-.022.264-.087.336-.23.757-1.513 1.517-3.025 2.275-4.538.386-.768.768-1.538 1.157-2.304.095-.186.19-.375.422-.44.336-.097.632.009.79.32.428.84.843 1.685 1.269 2.525.666 1.315 1.336 2.628 2.006 3.942.007.015.022.028.025.044.1.584.53.68 1.024.73 1.412.143 2.823.303 4.233.461 1.019.114 2.036.234 3.054.353.283.033.482.178.577.456.095.277-.015.487-.201.682a2913.482 2913.482 0 00-3.636 3.829c-.545.574-1.076 1.161-1.635 1.722a.66.66 0 00-.201.61c.198 1.457.398 2.913.593 4.37.14 1.05.273 2.1.41 3.148.038.301.006.578-.271.764-.26.173-.51.104-.76-.034-.928-.516-1.856-1.03-2.784-1.544-1.119-.62-2.239-1.238-3.358-1.857-.044-.025-.091-.045-.135-.07-.79-.46-.462-.423-1.242.004-1.204.659-2.395 1.34-3.59 2.014-.91.512-1.817 1.03-2.728 1.54-.356.198-.664.15-.897-.102-.137-.147-.128-.322-.137-.5h-.001z" fill="#C2D76C"/><path d="M61.04 18.8c-.487 0-.913-.09-1.28-.27a2.144 2.144 0 01-.86-.77c-.2-.333-.3-.72-.3-1.16v-3.1c0-.447.1-.833.3-1.16.207-.327.493-.58.86-.76.367-.187.793-.28 1.28-.28.493 0 .92.093 1.28.28.367.18.65.433.85.76.207.327.31.713.31 1.16h-1.5c0-.293-.083-.517-.25-.67-.16-.153-.39-.23-.69-.23-.3 0-.533.077-.7.23-.16.153-.24.377-.24.67v3.1c0 .287.08.51.24.67.167.153.4.23.7.23.3 0 .53-.077.69-.23.167-.16.25-.383.25-.67h1.5c0 .44-.103.827-.31 1.16a2.07 2.07 0 01-.85.77c-.36.18-.787.27-1.28.27zm5.206-.1v-4.1h-1.8v-1.4h5.1v1.4h-1.8v4.1h-1.5zm6.756.1c-.486 0-.913-.09-1.28-.27a2.088 2.088 0 01-.84-.77 2.27 2.27 0 01-.29-1.16v-1.3c0-.44.097-.823.29-1.15a2 2 0 01.84-.77c.367-.187.794-.28 1.28-.28.487 0 .907.093 1.26.28.36.18.637.437.83.77.2.327.3.71.3 1.15v1h-3.37v.3c0 .347.084.61.25.79.167.173.417.26.75.26.233 0 .42-.04.56-.12a.582.582 0 00.29-.33h1.47c-.12.48-.393.867-.82 1.16-.42.293-.927.44-1.52.44zm.96-3.27v-.25c0-.34-.08-.6-.24-.78-.153-.18-.393-.27-.72-.27-.326 0-.573.093-.74.28-.16.187-.24.45-.24.79v.15l2.04-.02-.1.1zm2.686 3.17v-5.5h4.68v5.5h-1.5v-4.1h-1.68v4.1h-1.5zm7.626.1c-.553 0-.993-.15-1.32-.45-.32-.3-.48-.707-.48-1.22 0-.553.19-.977.57-1.27.387-.3.94-.45 1.66-.45h1.14V15a.627.627 0 00-.23-.51c-.146-.127-.346-.19-.6-.19a.992.992 0 00-.58.16.655.655 0 00-.28.44h-1.45c.06-.553.3-.99.72-1.31.427-.327.974-.49 1.64-.49.7 0 1.254.173 1.66.52.414.34.62.8.62 1.38v3.7h-1.45v-.9h-.24l.25-.35c0 .413-.15.743-.45.99-.293.24-.686.36-1.18.36zm.56-1.1c.294 0 .534-.077.72-.23a.768.768 0 00.29-.62v-.59h-1.11a.764.764 0 00-.55.2.654.654 0 00-.21.51.68.68 0 00.23.54c.154.127.364.19.63.19zm3.806 1v-5.5h1.5v2.01h1.68V13.2h1.5v5.5h-1.5v-2.09h-1.68v2.09h-1.5zm11.993 0v-7.3h2.35c.74 0 1.33.17 1.77.51.44.333.66.787.66 1.36 0 .32-.077.6-.23.84a1.52 1.52 0 01-.6.56c-.247.133-.517.2-.81.2v.03c.326-.007.623.053.89.18.273.127.493.317.66.57.166.253.25.567.25.94 0 .427-.104.8-.31 1.12a1.98 1.98 0 01-.86.73c-.374.173-.817.26-1.33.26h-2.44zm1.45-1.21h.93c.326 0 .583-.087.77-.26.186-.173.28-.413.28-.72s-.094-.547-.28-.72c-.187-.18-.444-.27-.77-.27h-.93v1.97zm0-3.15h.88c.293 0 .523-.077.69-.23.166-.16.25-.373.25-.64 0-.273-.084-.483-.25-.63-.167-.153-.397-.23-.69-.23h-.88v1.73zm6.896 4.46c-.487 0-.914-.09-1.28-.27a2.088 2.088 0 01-.84-.77 2.264 2.264 0 01-.29-1.16v-1.3c0-.44.096-.823.29-1.15a2 2 0 01.84-.77c.366-.187.793-.28 1.28-.28.486 0 .906.093 1.26.28.36.18.636.437.83.77.2.327.3.71.3 1.15v1h-3.37v.3c0 .347.083.61.25.79.166.173.416.26.75.26.233 0 .42-.04.56-.12a.585.585 0 00.29-.33h1.47c-.12.48-.394.867-.82 1.16-.42.293-.927.44-1.52.44zm.96-3.27v-.25c0-.34-.08-.6-.24-.78-.154-.18-.394-.27-.72-.27-.327 0-.574.093-.74.28-.16.187-.24.45-.24.79v.15l2.04-.02-.1.1zm4.276 3.17v-4.1h-1.8v-1.4h5.1v1.4h-1.8v4.1h-1.5zm6.756.1c-.487 0-.913-.09-1.28-.27a2.088 2.088 0 01-.84-.77 2.274 2.274 0 01-.29-1.16v-1.3c0-.44.097-.823.29-1.15a2 2 0 01.84-.77c.367-.187.793-.28 1.28-.28s.907.093 1.26.28c.36.18.637.437.83.77.2.327.3.71.3 1.15v1h-3.37v.3c0 .347.083.61.25.79.167.173.417.26.75.26.233 0 .42-.04.56-.12a.582.582 0 00.29-.33h1.47c-.12.48-.393.867-.82 1.16-.42.293-.927.44-1.52.44zm.96-3.27v-.25c0-.34-.08-.6-.24-.78-.153-.18-.393-.27-.72-.27-.327 0-.573.093-.74.28-.16.187-.24.45-.24.79v.15l2.04-.02-.1.1zm2.686 4.97v-7.3h1.45v1.05h.35l-.35.35c0-.473.13-.84.39-1.1.26-.267.617-.4 1.07-.4.553 0 .997.197 1.33.59.333.387.5.907.5 1.56v1.4c0 .433-.077.813-.23 1.14-.147.32-.357.57-.63.75-.273.173-.597.26-.97.26-.453 0-.81-.13-1.07-.39-.26-.267-.39-.637-.39-1.11l.35.35h-.35l.05 1.35v1.5h-1.5zm2.37-3c.28 0 .493-.077.64-.23.153-.16.23-.383.23-.67v-1.3c0-.293-.077-.517-.23-.67-.147-.153-.36-.23-.64-.23-.273 0-.487.08-.64.24-.153.153-.23.373-.23.66v1.3c0 .287.077.51.23.67.153.153.367.23.64.23zm4.366 2.8l.8-3.11h1.8l-1.3 3.11h-1.3zM61.04 31.8c-.487 0-.913-.09-1.28-.27a2.144 2.144 0 01-.86-.77c-.2-.333-.3-.72-.3-1.16v-3.1c0-.447.1-.833.3-1.16.207-.327.493-.58.86-.76.367-.187.793-.28 1.28-.28.493 0 .92.093 1.28.28.367.18.65.433.85.76.207.327.31.713.31 1.16h-1.5c0-.293-.083-.517-.25-.67-.16-.153-.39-.23-.69-.23-.3 0-.533.077-.7.23-.16.153-.24.377-.24.67v3.1c0 .287.08.51.24.67.167.153.4.23.7.23.3 0 .53-.077.69-.23.167-.16.25-.383.25-.67h1.5c0 .44-.103.827-.31 1.16a2.07 2.07 0 01-.85.77c-.36.18-.787.27-1.28.27zm3.756-.1v-7.3h4.5v1.28h-3.03v1.64h2.68v1.28h-2.68v1.82h3.03v1.28h-4.5zm8.196.1c-.487 0-.91-.09-1.27-.27a2.088 2.088 0 01-.84-.77 2.27 2.27 0 01-.29-1.16v-3.1c0-.44.097-.823.29-1.15a2 2 0 01.84-.77c.36-.187.784-.28 1.27-.28.493 0 .917.093 1.27.28.36.18.637.437.83.77.2.327.3.71.3 1.15v3.1c0 .44-.1.827-.3 1.16-.193.327-.47.583-.83.77-.353.18-.776.27-1.27.27zm0-1.3c.3 0 .523-.077.67-.23.153-.16.23-.383.23-.67v-3.1c0-.293-.073-.517-.22-.67-.147-.153-.373-.23-.68-.23-.306 0-.533.077-.68.23-.147.153-.22.377-.22.67v3.1c0 .287.073.51.22.67.154.153.38.23.68.23zm9.772 1.2l-.68-7.3h1.23l.37 4.88a53.433 53.433 0 01.04.93c.014.18.02.343.02.49.014-.147.027-.31.04-.49.02-.187.04-.363.06-.53a10 10 0 00.04-.4l.54-4.88h1.14l.52 4.88c.014.093.027.227.04.4.02.167.04.343.06.53.027.18.047.343.06.49a34.1 34.1 0 00.02-.49l.02-.53c.007-.173.014-.307.02-.4l.34-4.88h1.24l-.73 7.3h-1.56l-.49-4.85a12.67 12.67 0 01-.04-.44l-.04-.58c-.013-.2-.026-.377-.04-.53a59.531 59.531 0 01-.07 1.11c-.013.18-.026.327-.04.44l-.54 4.85h-1.57zm6.017 0v-1.3h1.45v-4.7h-1.45v-1.3h4.4v1.3h-1.45v4.7h1.45v1.3h-4.4zm5.796 0v-7.3h1.75l1.89 5.65-.07-.85c-.027-.327-.05-.65-.07-.97a19.67 19.67 0 01-.02-.83v-3h1.32v7.3h-1.75l-1.87-5.65a38.026 38.026 0 01.11 1.65c.02.3.03.567.03.8v3.2h-1.32zm6.026 0v-7.3h2.37c.506 0 .946.097 1.32.29.38.193.673.467.88.82.213.347.32.757.32 1.23v2.61c0 .467-.107.877-.32 1.23-.207.353-.5.63-.88.83-.374.193-.814.29-1.32.29h-2.37zm1.5-1.4h.87c.306 0 .553-.087.74-.26.186-.173.28-.403.28-.69v-2.61a.887.887 0 00-.28-.68c-.187-.173-.434-.26-.74-.26h-.87v4.5zm12.862 1.5c-.513 0-.96-.087-1.34-.26a2.037 2.037 0 01-.88-.73c-.207-.313-.31-.683-.31-1.11h1.5a.71.71 0 00.28.59c.193.14.453.21.78.21.313 0 .557-.07.73-.21.18-.14.27-.333.27-.58a.812.812 0 00-.2-.55 1.003 1.003 0 00-.56-.31l-.74-.17c-.62-.147-1.103-.417-1.45-.81-.34-.4-.51-.887-.51-1.46 0-.427.097-.797.29-1.11.2-.32.48-.567.84-.74.36-.173.787-.26 1.28-.26.747 0 1.337.187 1.77.56.44.367.66.863.66 1.49h-1.5a.665.665 0 00-.25-.55c-.16-.133-.393-.2-.7-.2-.287 0-.507.067-.66.2-.153.127-.23.31-.23.55 0 .213.06.397.18.55a.97.97 0 00.53.3l.78.18c.647.147 1.137.413 1.47.8.333.38.5.867.5 1.46 0 .427-.107.803-.32 1.13-.207.327-.5.58-.88.76-.373.18-.817.27-1.33.27zm6.596-.1c-.56 0-1-.16-1.32-.48-.32-.32-.48-.76-.48-1.32v-2.35h-1.45V26.2h1.45v-1.55h1.5v1.55h2.05v1.35h-2.05v2.35c0 .3.15.45.45.45h1.5v1.35h-1.65zm5.396.1c-.74 0-1.32-.2-1.74-.6-.413-.4-.62-.947-.62-1.64V26.2h1.5v3.35c0 .307.073.543.22.71.147.16.36.24.64.24.273 0 .483-.08.63-.24.153-.167.23-.403.23-.71V26.2h1.5v3.36c0 .7-.21 1.25-.63 1.65-.42.393-.997.59-1.73.59zm5.426 0c-.553 0-.997-.193-1.33-.58-.333-.387-.5-.91-.5-1.57v-1.4c0-.653.167-1.173.5-1.56.333-.393.777-.59 1.33-.59.453 0 .81.133 1.07.4.26.26.39.627.39 1.1l-.35-.35h.35l-.05-1.35v-1.5h1.5v7.3h-1.45v-1.05h-.35l.35-.35c0 .473-.13.843-.39 1.11-.26.26-.617.39-1.07.39zm.54-1.3c.273 0 .487-.077.64-.23.153-.16.23-.383.23-.67v-1.3c0-.287-.077-.507-.23-.66-.153-.16-.367-.24-.64-.24-.28 0-.497.08-.65.24-.147.153-.22.373-.22.66v1.3c0 .287.073.51.22.67.153.153.37.23.65.23zm3.726 1.2v-1.36h1.9v-2.79h-1.65V26.2h3.05v4.14h1.6v1.36h-4.9zm2.5-6.37c-.273 0-.493-.07-.66-.21a.719.719 0 01-.24-.57c0-.24.08-.43.24-.57.167-.14.387-.21.66-.21.274 0 .49.07.65.21.167.14.25.33.25.57 0 .24-.083.43-.25.57-.16.14-.376.21-.65.21zm5.796 6.47c-.486 0-.91-.09-1.27-.27a2.088 2.088 0 01-.84-.77 2.274 2.274 0 01-.29-1.16v-1.3c0-.44.097-.823.29-1.15a2 2 0 01.84-.77c.36-.187.784-.28 1.27-.28.494 0 .917.093 1.27.28.36.18.637.437.83.77.2.327.3.71.3 1.15v1.3c0 .44-.1.827-.3 1.16-.193.327-.47.583-.83.77-.353.18-.776.27-1.27.27zm0-1.3c.294 0 .517-.077.67-.23.154-.16.23-.383.23-.67v-1.3c0-.293-.076-.517-.23-.67-.153-.153-.376-.23-.67-.23-.286 0-.51.077-.67.23-.153.153-.23.377-.23.67v1.3c0 .287.077.51.23.67.16.153.384.23.67.23z" fill="#fff"/><rect x="208.8" y=".967" width="139.2" height="43.5" rx="20" fill="url(#paint1_linear_2015_54)" fill-opacity=".53"/><path d="M229.1 22.2a1 1 0 000 2v-2zm101.24 1.707a1 1 0 000-1.414l-6.364-6.364a1 1 0 10-1.414 1.414l5.657 5.657-5.657 5.657a1 1 0 001.414 1.414l6.364-6.364zM229.1 24.2h100.533v-2H229.1v2z" fill="#CCEC60"/><defs><linearGradient id="paint0_linear_2015_54" x1="348" y1="61.829" x2="711.95" y2="61.829" gradientUnits="userSpaceOnUse"><stop stop-color="#223B38"/><stop offset=".771" stop-color="#223B38"/></linearGradient><linearGradient id="paint1_linear_2015_54" x1="208.8" y1="19.295" x2="354.38" y2="19.295" gradientUnits="userSpaceOnUse"><stop stop-color="#F1FFF7"/><stop offset="1" stop-color="#223B38"/></linearGradient></defs></svg>