<svg width="102" height="102" fill="none" xmlns="http://www.w3.org/2000/svg"><rect x="101.654" y="101.65" width="101.654" height="101.453" rx="7.53" transform="rotate(-180 101.654 101.65)" fill="url(#paint0_linear_440_51)"/><mask id="a" style="mask-type:alpha" maskUnits="userSpaceOnUse" x="0" y="0" width="102" height="102"><rect x="101.654" y="101.453" width="101.654" height="101.453" rx="7.53" transform="rotate(-180 101.654 101.453)" fill="url(#paint1_linear_440_51)"/></mask><g mask="url(#a)"><g filter="url(#filter0_d_440_51)"><ellipse cx="91.447" cy="93.972" rx="14.513" ry="14.484" fill="#5A5A5A"/></g><g filter="url(#filter1_d_440_51)" shape-rendering="crispEdges"><circle cx="14.63" cy="14.63" transform="rotate(44.904 -41.283 129.32) skewX(-.114)" fill="url(#paint2_linear_440_51)" r="14.63"/><path d="M89.28 97.522c-5.526 5.523-14.491 5.529-20.025.014-5.533-5.515-5.54-14.463-.013-19.986 5.526-5.522 14.491-5.528 20.025-.013 5.534 5.515 5.54 14.463.013 19.985z" stroke="url(#paint3_linear_440_51)" stroke-width=".968"/></g><path d="M84.677 81.006c.279.127.568.239.837.386 1.503.822 2.41 2.047 2.537 3.726.109 1.428-.304 2.723-1.287 3.792-.814.885-1.867 1.344-3.093 1.437-.812.062-1.596-.1-2.374-.31-1.058-.286-2.117-.568-3.175-.85-.038-.01-.077-.017-.129-.028-.016.04-.036.077-.047.117-.087.32-.167.643-.262.96-.039.13.003.17.127.203 1.032.271 2.063.549 3.095.825l2.166.579c.32.085.41.238.328.55-.099.373-.201.746-.301 1.12-.103.383-.237.461-.63.356a97914.884 97914.884 0 01-5.373-1.437l-.356 1.323c-.057.215-.11.433-.175.646-.087.281-.244.362-.535.285-.56-.148-1.119-.297-1.678-.448-.297-.079-.391-.238-.314-.526.158-.59.312-1.18.479-1.766.043-.148.02-.207-.143-.247-.709-.18-1.413-.372-2.119-.561-.376-.1-.46-.238-.364-.599.1-.379.201-.757.305-1.136.087-.322.237-.404.57-.316a910.72 910.72 0 012.335.623l.334-1.243-.783-.21-1.53-.409c-.36-.096-.446-.243-.352-.591.122-.447.24-.894.36-1.341.094-.347.244-.428.607-.33.683.182 1.367.368 2.051.549.296.079.253.109.331-.178a4982.63 4982.63 0 001.694-6.31c.054-.201.154-.345.38-.375l6.482 1.734h.002zm-6.078 5.86c.028.017.037.026.046.028 1.237.331 2.47.68 3.715.981.734.178 1.45.063 2.05-.402.815-.628 1.1-1.489.93-2.47-.166-.96-.82-1.568-1.75-1.846-1.2-.36-2.416-.661-3.626-.986-.03-.008-.064-.007-.101-.01L78.6 86.864h-.001z" fill="#CCEC60"/><g filter="url(#filter2_f_440_51)"><g filter="url(#filter3_d_440_51)" shape-rendering="crispEdges"><circle cx="11.716" cy="11.716" transform="matrix(.99709 .08816 -.08834 .99511 -1.285 -8.338)" fill="url(#paint4_linear_440_51)" r="11.716"/><path d="M20.658 5.352C20.105 11.578 14.6 16.178 8.36 15.627 2.123 15.075-2.486 9.58-1.933 3.355-1.381-2.871 4.125-7.471 10.363-6.92 16.6-6.368 21.21-.874 20.658 5.352z" stroke="url(#paint5_linear_440_51)" stroke-width=".775"/></g><path d="M9.328-2.435c.237-.065.473-.145.713-.192 1.347-.266 2.535.022 3.477.988.802.822 1.215 1.83 1.16 2.99-.044.961-.454 1.783-1.16 2.469-.467.454-1.031.756-1.618 1.026-.797.367-1.592.736-2.389 1.105-.028.013-.055.03-.092.05.01.032.017.066.03.095.112.242.229.481.334.725.043.1.09.102.182.06.774-.363 1.55-.721 2.326-1.08l1.629-.755c.24-.112.374-.064.484.17.132.28.261.561.392.842.134.288.092.405-.204.542l-3.87 1.792a275.4 275.4 0 00-.17.08l.462.994c.076.162.156.322.225.487.091.218.037.348-.182.45l-1.261.585c-.223.103-.363.054-.464-.163-.206-.443-.416-.884-.615-1.33-.05-.113-.094-.137-.215-.079-.528.253-1.06.496-1.59.742-.283.13-.405.09-.532-.181-.133-.285-.266-.569-.398-.855-.112-.242-.062-.37.187-.486.534-.249 1.07-.497 1.604-.744l.152-.07-.435-.935a74162.81 74162.81 0 01-1.74.806c-.27.125-.398.078-.52-.184-.154-.336-.312-.672-.468-1.008-.121-.261-.07-.388.202-.514.514-.238 1.03-.475 1.543-.714.222-.103.212-.063.112-.279C5.884 3.413 5.15 1.831 4.412.25c-.07-.152-.083-.29.04-.425l4.875-2.258h.001zM8.61 4.281c.027-.004.036-.003.044-.006.93-.431 1.867-.848 2.786-1.302.543-.267.923-.705 1.054-1.298.176-.804-.091-1.479-.7-1.995-.597-.505-1.311-.543-2.027-.236-.922.394-1.824.832-2.735 1.252-.022.011-.042.029-.067.046L8.61 4.28z" fill="#CCEC60"/></g><g filter="url(#filter4_f_440_51)"><g filter="url(#filter5_d_440_51)" shape-rendering="crispEdges"><circle cx="10.521" cy="10.521" transform="matrix(.99709 .08816 -.08834 .99511 88.419 46.468)" fill="url(#paint6_linear_440_51)" r="10.521"/><path d="M108.124 58.762c-.497 5.59-5.44 9.722-11.043 9.227-5.602-.496-9.741-5.43-9.245-11.021.497-5.591 5.44-9.722 11.043-9.227 5.602.496 9.741 5.43 9.245 11.02z" stroke="url(#paint7_linear_440_51)" stroke-width=".696"/></g><path d="M97.95 51.769c.213-.058.424-.13.64-.173 1.209-.238 2.276.02 3.122.888.72.738 1.091 1.642 1.042 2.685-.04.863-.408 1.6-1.041 2.217-.42.407-.927.679-1.454.921-.716.33-1.43.662-2.145.993-.025.012-.05.026-.083.044.01.03.015.06.027.086.1.217.205.432.3.65.039.09.08.093.163.054.696-.326 1.393-.647 2.089-.97l1.463-.677c.216-.1.336-.058.435.152l.352.756c.12.26.082.364-.183.487l-3.476 1.61-.153.071.416.893c.067.146.14.29.201.438.083.195.033.312-.163.403a387.6 387.6 0 01-1.133.526c-.2.093-.326.048-.416-.147-.185-.397-.373-.794-.552-1.194-.045-.101-.085-.123-.194-.07-.473.227-.95.445-1.428.665-.254.118-.363.08-.477-.162-.12-.256-.24-.51-.357-.767-.1-.218-.056-.333.168-.437l1.44-.669.136-.063-.39-.84-.528.246-1.034.479c-.243.112-.359.07-.467-.165l-.421-.906c-.109-.234-.064-.348.181-.461.462-.214.925-.426 1.386-.642.2-.092.19-.056.1-.25-.66-1.42-1.319-2.84-1.981-4.26-.063-.137-.075-.262.036-.383l4.377-2.027.002-.001zm-.645 6.03c.023-.003.032-.002.039-.005.835-.387 1.677-.761 2.502-1.168.488-.24.829-.634.946-1.166.159-.722-.082-1.328-.629-1.792-.535-.453-1.176-.487-1.82-.212-.827.354-1.637.747-2.455 1.125-.02.01-.039.025-.06.04l1.477 3.178z" fill="#CCEC60"/></g></g><path fill="#CCEC60" d="M.392 22.063h84.482v20.094H.392z"/><path d="M15.924 36.95l-.806-8.645h1.457l.438 5.78c.008.11.016.268.024.473l.024.628c.015.213.023.407.023.58.016-.173.032-.367.048-.58.023-.221.047-.43.07-.628.024-.205.04-.363.048-.474l.64-5.779h1.35l.616 5.78c.015.11.031.268.047.473.024.198.048.407.071.628.032.213.055.407.071.58l.024-.58.024-.628c.008-.205.015-.363.023-.474l.403-5.779h1.469l-.865 8.645h-1.848l-.58-5.743a12.625 12.625 0 01-.047-.521l-.048-.687a31.65 31.65 0 00-.047-.628 80.904 80.904 0 01-.083 1.315c-.016.213-.031.386-.047.52l-.64 5.744h-1.86zm7.125 0v-1.54h1.717v-5.565h-1.717v-1.54h5.21v1.54h-1.716v5.566h1.717v1.54h-5.211zm6.864 0v-8.645h2.073l2.238 6.691c-.023-.292-.051-.627-.083-1.006-.031-.387-.059-.77-.083-1.15a24.697 24.697 0 01-.023-.982v-3.553h1.563v8.645h-2.073l-2.214-6.69a44.592 44.592 0 01.13 1.954c.024.355.036.67.036.947v3.79h-1.564zm7.137 0v-8.645h2.807c.6 0 1.121.114 1.563.343.45.23.798.553 1.042.972.253.41.38.896.38 1.456v3.091c0 .553-.127 1.039-.38 1.457a2.558 2.558 0 01-1.042.983c-.442.229-.963.343-1.563.343H37.05zm1.777-1.658h1.03c.363 0 .655-.102.876-.307.221-.206.332-.478.332-.818v-3.09c0-.332-.11-.6-.332-.806-.22-.205-.513-.308-.876-.308h-1.03v5.33zm12.77 1.658v-8.645h1.065v3.707h1.28l1.918-3.707h1.16l-2.143 4.157 2.262 4.488h-1.22l-2.013-4.003h-1.244v4.003h-1.066zm9.564.119c-.513 0-.963-.103-1.35-.308a2.228 2.228 0 01-.889-.864c-.205-.38-.307-.818-.307-1.315v-1.777c0-.505.102-.943.307-1.314.214-.371.51-.66.889-.865.387-.205.837-.308 1.35-.308.513 0 .96.103 1.338.308.387.205.683.494.888.865.213.37.32.81.32 1.314v1.15h-4.05v.627c0 .513.13.908.39 1.184.261.269.632.403 1.114.403.41 0 .742-.071.995-.213a.94.94 0 00.462-.664h1.065c-.07.545-.34.98-.805 1.303-.458.316-1.03.474-1.717.474zm1.504-3.825v-.439c0-.513-.13-.908-.39-1.184-.254-.276-.625-.414-1.114-.414-.482 0-.853.138-1.114.414-.26.276-.39.671-.39 1.184v.344h3.09l-.082.095zm3.157 3.706v-6.513h1.019v3.553c0 .229-.008.47-.024.722a9.983 9.983 0 01-.047.723 7.47 7.47 0 01-.06.568l2.63-5.566h1.362v6.513h-1.019v-3.552c0-.23.004-.47.012-.723.016-.252.036-.493.06-.722.023-.237.043-.43.059-.58l-2.63 5.577h-1.362zm2.487-7.58c-.568 0-1.026-.157-1.373-.473-.348-.316-.521-.73-.521-1.243h.84c0 .308.095.556.285.746.19.19.442.284.758.284.323 0 .58-.095.77-.284.197-.19.296-.438.296-.746h.84c0 .513-.173.927-.52 1.243-.348.316-.806.474-1.374.474zm7.078 7.699c-.521 0-.979-.099-1.374-.296a2.133 2.133 0 01-.9-.853c-.213-.379-.32-.825-.32-1.338v-1.777c0-.52.107-.967.32-1.338.213-.371.513-.655.9-.853.395-.197.853-.296 1.374-.296.75 0 1.354.202 1.812.604.458.403.699.952.723 1.646h-1.066c-.024-.418-.166-.738-.427-.959-.252-.229-.6-.343-1.042-.343-.466 0-.837.134-1.113.403-.276.26-.415.635-.415 1.125v1.788c0 .49.139.868.415 1.137.276.268.647.402 1.113.402.442 0 .79-.114 1.042-.343.26-.229.403-.549.427-.96h1.066c-.024.696-.265 1.244-.723 1.647-.458.403-1.062.604-1.812.604zM15.528 65.951v-5.84h3.744v5.84h-1.2v-4.72h-1.344v4.72h-1.2zm4.797 1.44v-5.84h1.16v.84h.28l-.28.28c0-.38.104-.672.312-.88.208-.214.493-.32.856-.32.443 0 .797.157 1.064.472.267.309.4.725.4 1.248v1.12c0 .346-.062.65-.184.911a1.396 1.396 0 01-.504.6 1.418 1.418 0 01-.776.209c-.363 0-.648-.105-.856-.313-.208-.213-.312-.509-.312-.888l.28.28h-.28l.04 1.08v1.2h-1.2zm1.896-2.4c.224 0 .395-.062.512-.184.122-.129.184-.307.184-.537v-1.04c0-.234-.062-.413-.184-.535-.117-.123-.288-.184-.512-.184-.219 0-.39.063-.512.191-.123.123-.184.3-.184.529v1.04c0 .229.061.407.184.535.122.123.293.184.512.184zm4.773 1.04c-.39 0-.728-.073-1.016-.217a1.67 1.67 0 01-.672-.615 1.816 1.816 0 01-.232-.928v-1.04c0-.352.077-.66.232-.92a1.6 1.6 0 01.672-.617 2.181 2.181 0 011.016-.224c.394 0 .733.075 1.016.224.288.145.51.35.664.616.16.262.24.569.24.92v1.04c0 .353-.08.662-.24.928a1.614 1.614 0 01-.664.617c-.283.144-.622.216-1.016.216zm0-1.04c.234 0 .413-.062.536-.184.122-.129.184-.307.184-.537v-1.04c0-.234-.062-.413-.184-.535-.123-.123-.302-.184-.536-.184-.23 0-.408.06-.536.183-.123.123-.184.302-.184.536v1.04c0 .23.061.409.184.537.128.122.306.183.536.183zm2.925.96v-4.4h1.056v2c0 .133-.008.3-.024.504a13.04 13.04 0 01-.064.6 8.26 8.26 0 01-.072.535l1.392-3.64h1.456v4.4h-1.056v-2c0-.138.008-.296.024-.472.016-.18.034-.362.056-.544.021-.18.042-.335.064-.463l-1.376 3.48h-1.456zm6.445.056c-.491 0-.9-.12-1.224-.36a1.47 1.47 0 01-.593-.977h1.16a.526.526 0 00.233.296.81.81 0 00.424.105h.456c.175 0 .314-.04.416-.12a.427.427 0 00.152-.344.395.395 0 00-.152-.329c-.102-.08-.24-.12-.416-.12h-1.032v-.912h.984c.165 0 .293-.034.384-.104a.373.373 0 00.136-.303.371.371 0 00-.065-.224.357.357 0 00-.175-.137.713.713 0 00-.28-.047h-.368a.734.734 0 00-.417.111.501.501 0 00-.224.288h-1.16c.07-.41.264-.736.584-.975.32-.24.726-.36 1.217-.36h.367c.352 0 .657.05.913.152.256.096.453.234.592.416a.99.99 0 01.207.631.87.87 0 01-.335.712c-.22.182-.51.273-.873.273v-.08c.395 0 .712.1.953.304.24.197.36.46.36.792 0 .4-.16.72-.48.96-.32.234-.75.352-1.288.352h-.456zm3.14-.056v-4.4h1.992c.539 0 .966.109 1.28.328.32.213.48.504.48.872 0 .293-.12.53-.36.712-.24.175-.557.264-.952.264v-.08c.432 0 .776.096 1.032.288a.9.9 0 01.392.76c0 .389-.16.696-.48.92-.314.224-.744.336-1.288.336h-2.096zm1.176-.848h.864c.198 0 .355-.046.472-.136a.448.448 0 00.184-.368.463.463 0 00-.184-.385c-.117-.096-.274-.144-.472-.144h-.864v1.033zm0-1.736h.824a.672.672 0 00.432-.128.44.44 0 00.16-.352.45.45 0 00-.16-.36.646.646 0 00-.432-.136h-.824v.976zm5.501 2.664c-.39 0-.728-.073-1.016-.217a1.67 1.67 0 01-.672-.615 1.816 1.816 0 01-.232-.928v-1.04c0-.352.078-.66.232-.92a1.6 1.6 0 01.672-.617 2.184 2.184 0 011.016-.224c.395 0 .734.075 1.016.224.288.145.51.35.664.616.16.262.24.569.24.92v1.04c0 .353-.08.662-.24.928a1.614 1.614 0 01-.664.617c-.282.144-.621.216-1.016.216zm0-1.04c.235 0 .414-.062.536-.184.123-.129.184-.307.184-.537v-1.04c0-.234-.061-.413-.184-.535-.122-.123-.301-.184-.536-.184-.23 0-.408.06-.536.183-.122.123-.184.302-.184.536v1.04c0 .23.062.409.184.537.128.122.307.183.536.183zm2.573 2.08v-2.136h.248c.09-.091.184-.249.28-.472.102-.23.155-.507.16-.832l.04-2.08h3.24v3.383h.48v2.136h-1.12v-1.12h-2.208v1.12h-1.12zm1.44-2.136h1.408v-2.352h-1.016l-.024 1.04c-.005.309-.05.58-.136.816-.08.229-.157.394-.232.496zm3.709 1.016v-4.4h1.056v2c0 .133-.008.3-.024.504-.016.197-.037.397-.064.6a8.26 8.26 0 01-.072.535l1.392-3.64h1.456v4.4h-1.056v-2c0-.138.008-.296.024-.472.016-.18.035-.362.056-.544.021-.18.043-.335.064-.463l-1.376 3.48h-1.456zm6.069 0v-3.28h-1.44v-1.12h4.08v1.12h-1.44v3.28h-1.2zm5.405.08c-.39 0-.73-.073-1.024-.217a1.67 1.67 0 01-.672-.615 1.816 1.816 0 01-.232-.928v-1.04c0-.352.077-.66.232-.92a1.6 1.6 0 01.672-.617c.293-.149.634-.224 1.024-.224s.725.075 1.008.224c.288.145.51.35.664.616.16.262.24.569.24.92v.8h-2.696v.24c0 .278.066.489.2.633.133.138.333.207.6.207a.901.901 0 00.448-.096.466.466 0 00.232-.263h1.176a1.556 1.556 0 01-.656.927c-.336.235-.742.353-1.216.353zm.768-2.617v-.2c0-.271-.064-.48-.192-.623-.123-.145-.315-.217-.576-.217-.262 0-.459.075-.592.224-.128.15-.192.36-.192.633v.12l1.632-.017-.08.08zm1.789 2.593v-1.08h.24a.417.417 0 00.344-.177.774.774 0 00.144-.463l.048-2.737h3.328v4.4h-1.2v-3.28h-.952l-.032 1.697a1.817 1.817 0 01-.216.864c-.134.245-.32.437-.56.576-.235.133-.51.2-.824.2h-.32zm5.189-.056v-4.4h1.2v1.32h1.032c.554 0 .986.138 1.295.415.315.273.472.651.472 1.136 0 .47-.16.843-.48 1.12-.314.272-.74.409-1.28.409h-2.24zm1.2-1.04h.96c.202 0 .357-.043.463-.129a.448.448 0 00.169-.367.435.435 0 00-.169-.369c-.106-.09-.26-.136-.463-.136h-.96v1zM17.4 77.03c-.587-.011-1.053-.171-1.4-.48-.347-.315-.52-.742-.52-1.28v-1.96c0-.705.197-1.246.592-1.625.395-.384.957-.576 1.688-.576h1.32v1.16h-1.32c-.352 0-.621.089-.808.264-.181.176-.272.435-.272.776v.56h.112l-.096.112c-.005-.298.09-.535.288-.712.203-.18.49-.271.864-.271.464 0 .824.151 1.08.456.261.303.392.725.392 1.264v.552c0 .357-.08.671-.24.944a1.548 1.548 0 01-.664.615c-.283.14-.621.206-1.016.2zm0-1.04c.235 0 .413-.062.536-.184.123-.129.184-.307.184-.537v-.551c0-.235-.061-.414-.184-.536-.123-.123-.301-.184-.536-.184-.23 0-.408.06-.536.184-.123.122-.184.3-.184.535v.552c0 .23.061.409.184.537.128.122.307.183.536.183zm4.229 1.04c-.443 0-.795-.12-1.056-.36-.256-.24-.384-.566-.384-.977 0-.442.152-.78.456-1.016.31-.24.752-.36 1.328-.36h.912v-.328a.502.502 0 00-.184-.407c-.117-.102-.277-.153-.48-.153a.794.794 0 00-.464.128.525.525 0 00-.224.352h-1.16c.048-.442.24-.791.576-1.047.341-.262.778-.392 1.312-.392.56 0 1.003.138 1.328.415.33.273.496.64.496 1.105v2.96h-1.16v-.72h-.192l.2-.28c0 .33-.12.594-.36.792-.235.192-.55.288-.944.288zm.448-.88a.878.878 0 00.576-.184.614.614 0 00.232-.496v-.472h-.888a.612.612 0 00-.44.16.523.523 0 00-.168.407c0 .182.061.326.184.433.122.1.29.151.504.151zm3.045.8v-4.4h1.2v1.608h1.344V72.55h1.2v4.4h-1.2v-1.672h-1.344v1.672h-1.2zm4.82 0v-4.4h1.2v1.663h.593l.92-1.663h1.336l-1.224 2.151 1.248 2.249h-1.36l-.928-1.728h-.584v1.728h-1.2zm6.645.08c-.389 0-.728-.073-1.016-.217a1.67 1.67 0 01-.671-.615 1.816 1.816 0 01-.233-.928v-1.04c0-.352.078-.66.233-.92a1.6 1.6 0 01.672-.617 2.18 2.18 0 011.015-.224c.395 0 .734.075 1.016.225.288.144.51.349.664.616.16.26.24.567.24.92v1.04c0 .352-.08.66-.24.927a1.614 1.614 0 01-.664.617c-.282.144-.62.216-1.016.216zm0-1.04c.235 0 .414-.062.536-.184.123-.129.184-.307.184-.537v-1.04c0-.234-.06-.413-.184-.535-.122-.123-.3-.184-.535-.184-.23 0-.409.06-.537.184-.122.122-.184.3-.184.536v1.04c0 .229.062.407.184.535.128.123.307.184.536.184zm2.733.96v-4.4h1.352l.52 1.64c.059.186.104.357.136.511.038.15.059.262.064.337.011-.075.03-.187.056-.337.032-.154.078-.325.136-.511l.512-1.64h1.352v4.4h-1.096v-.8c0-.176.003-.374.008-.593l.032-.688c.016-.24.03-.469.04-.688.016-.224.032-.42.048-.591l-.584 2.12H40.88l-.616-2.12c.022.218.043.48.064.784.027.303.048.613.064.927.016.31.024.592.024.848v.8H39.32zm6.293.08c-.442 0-.794-.12-1.056-.36-.256-.24-.384-.566-.384-.977 0-.442.152-.78.456-1.016.31-.24.752-.36 1.328-.36h.912v-.328a.502.502 0 00-.184-.407c-.117-.102-.277-.153-.48-.153a.794.794 0 00-.464.128.525.525 0 00-.224.352h-1.16c.048-.442.24-.791.576-1.047.342-.262.779-.392 1.312-.392.56 0 1.003.138 1.328.415.33.273.496.64.496 1.105v2.96h-1.16v-.72h-.192l.2-.28c0 .33-.12.594-.36.792-.234.192-.55.288-.944.288zm.448-.88a.878.878 0 00.576-.184.614.614 0 00.232-.496v-.472h-.888a.612.612 0 00-.44.16.523.523 0 00-.168.407c0 .182.062.326.184.433.123.1.29.151.504.151zm4.317.8v-3.28h-1.44v-1.12h4.08v1.12h-1.44v3.28h-1.2zm5.397.08c-.39 0-.728-.073-1.016-.217a1.67 1.67 0 01-.672-.615 1.816 1.816 0 01-.232-.928v-1.04c0-.352.077-.66.232-.92a1.6 1.6 0 01.672-.617 2.18 2.18 0 011.016-.224c.395 0 .733.075 1.016.225.288.144.51.349.664.616.16.26.24.567.24.92v1.04c0 .352-.08.66-.24.927a1.614 1.614 0 01-.664.617c-.283.144-.621.216-1.016.216zm0-1.04c.235 0 .413-.062.536-.184.123-.129.184-.307.184-.537v-1.04c0-.234-.061-.413-.184-.535-.123-.123-.301-.184-.536-.184-.23 0-.408.06-.536.184-.123.122-.184.3-.184.536v1.04c0 .229.061.407.184.535.128.123.307.184.536.184zm2.917.96v-4.4h1.992c.538 0 .965.109 1.28.328.32.213.48.503.48.871 0 .294-.12.531-.36.713-.24.175-.558.264-.952.264v-.08c.432 0 .776.096 1.032.287a.9.9 0 01.392.76c0 .39-.16.697-.48.92-.315.224-.744.337-1.288.337h-2.096zm1.176-.848h.864c.197 0 .355-.046.472-.136a.448.448 0 00.184-.368.463.463 0 00-.184-.385c-.117-.096-.275-.144-.472-.144h-.864v1.033zm0-1.736h.824a.672.672 0 00.432-.129.44.44 0 00.16-.352.45.45 0 00-.16-.36.646.646 0 00-.432-.135h-.824v.975zM15.528 87.95v-5.84h1.88c.592 0 1.064.135 1.416.407.352.267.528.63.528 1.088 0 .257-.061.48-.184.672a1.213 1.213 0 01-.48.448 1.34 1.34 0 01-.648.16v.025c.261-.006.499.042.712.144.219.1.395.253.528.455.133.203.2.454.2.752 0 .342-.083.64-.248.897-.16.25-.39.445-.688.584-.299.138-.653.208-1.064.208h-1.952zm1.16-.968h.744c.261 0 .467-.07.616-.209.15-.138.224-.33.224-.576 0-.245-.075-.437-.224-.575-.15-.145-.355-.217-.616-.217h-.744v1.576zm0-2.52h.704c.235 0 .419-.062.552-.184a.677.677 0 00.2-.513c0-.218-.067-.386-.2-.504-.133-.122-.317-.183-.552-.183h-.704v1.384zm4.94 3.568c-.442 0-.794-.12-1.055-.36-.256-.24-.384-.566-.384-.977 0-.442.152-.78.456-1.016.31-.24.752-.36 1.328-.36h.912v-.328a.502.502 0 00-.184-.407c-.117-.102-.277-.153-.48-.153a.794.794 0 00-.464.128.525.525 0 00-.224.352h-1.16c.048-.442.24-.791.576-1.047.341-.262.778-.392 1.312-.392.56 0 1.003.138 1.328.415.33.273.496.64.496 1.105v2.96h-1.16v-.72h-.192l.2-.28c0 .33-.12.594-.36.792-.235.192-.55.288-.944.288zm.449-.88a.878.878 0 00.576-.184.614.614 0 00.232-.496v-.472h-.888a.612.612 0 00-.44.16.523.523 0 00-.168.407c0 .182.061.326.184.433.122.1.29.151.504.151zm3.045.8v-4.4h1.16v.84h.352l-.352.28c0-.374.106-.667.32-.88.213-.214.501-.32.864-.32.426 0 .768.149 1.024.447.261.3.392.697.392 1.192v2.84h-1.2v-2.72c0-.229-.062-.405-.184-.528-.118-.127-.286-.192-.504-.192-.214 0-.379.064-.496.192-.118.123-.176.3-.176.529v2.72h-1.2zm6.485.08c-.363 0-.68-.056-.952-.169a1.562 1.562 0 01-.64-.48 1.168 1.168 0 01-.224-.712h1.2c0 .129.056.233.168.313a.82.82 0 00.448.111h.352c.218 0 .384-.04.496-.12a.384.384 0 00.176-.336.345.345 0 00-.152-.303c-.102-.075-.259-.126-.472-.152l-.512-.065c-.55-.069-.95-.202-1.2-.4-.251-.197-.376-.498-.376-.904 0-.426.146-.757.44-.991.293-.235.722-.352 1.288-.352h.304c.538 0 .968.117 1.288.352.32.234.48.549.48.944h-1.2c0-.107-.054-.192-.16-.257a.711.711 0 00-.408-.104h-.304c-.198 0-.342.035-.432.104-.091.064-.136.163-.136.296 0 .123.04.216.12.28.085.064.218.11.4.136l.552.073c.554.069.965.207 1.232.415.272.209.408.518.408.928 0 .448-.155.792-.464 1.032-.31.24-.766.36-1.368.36h-.352zm3.837 1.36l.6-1.657-1.648-4.183h1.303l.665 1.92c.047.144.096.32.144.528.053.202.093.368.12.496a8.11 8.11 0 01.264-1.024l.64-1.92h1.248l-2.08 5.84h-1.257zm5.756-1.36a2.47 2.47 0 01-.952-.169 1.561 1.561 0 01-.64-.48 1.167 1.167 0 01-.224-.712h1.2c0 .129.056.233.168.313a.82.82 0 00.448.111h.352c.219 0 .384-.04.496-.12a.384.384 0 00.176-.336.345.345 0 00-.152-.303c-.101-.075-.258-.126-.472-.152l-.512-.065c-.549-.069-.949-.202-1.2-.4-.25-.197-.376-.498-.376-.904 0-.426.147-.757.44-.991.294-.235.723-.352 1.288-.352h.304c.539 0 .968.117 1.288.352.32.234.48.549.48.944h-1.2c0-.107-.053-.192-.16-.257a.712.712 0 00-.408-.104h-.304c-.197 0-.341.035-.432.104-.09.064-.136.163-.136.296 0 .123.04.216.12.28.086.064.219.11.4.136l.552.073c.555.069.966.207 1.232.415.272.209.408.518.408.928 0 .448-.154.792-.464 1.032-.309.24-.765.36-1.368.36H41.2z" fill="#223B38"/><defs><linearGradient id="paint0_linear_440_51" x1="197.309" y1="101.502" x2="101.51" y2="203.49" gradientUnits="userSpaceOnUse"><stop stop-color="#C0B36D"/><stop offset="1" stop-color="#9E9D9D"/></linearGradient><linearGradient id="paint1_linear_440_51" x1="197.309" y1="101.305" x2="81.05" y2="223.294" gradientUnits="userSpaceOnUse"><stop stop-color="#C0B36D"/><stop offset="1" stop-color="#2F5954"/></linearGradient><linearGradient id="paint2_linear_440_51" x1="6.57" y1="-3.83" x2="19.536" y2="26.252" gradientUnits="userSpaceOnUse"><stop stop-color="#fff" stop-opacity=".8"/><stop offset="1" stop-color="#fff" stop-opacity=".2"/></linearGradient><linearGradient id="paint3_linear_440_51" x1="108.379" y1="62.522" x2="68.983" y2="97.956" gradientUnits="userSpaceOnUse"><stop stop-color="#fff"/><stop offset=".75" stop-color="#fff" stop-opacity=".05"/></linearGradient><linearGradient id="paint4_linear_440_51" x1="5.262" y1="-3.067" x2="15.645" y2="21.023" gradientUnits="userSpaceOnUse"><stop stop-color="#fff" stop-opacity=".8"/><stop offset="1" stop-color="#fff" stop-opacity=".2"/></linearGradient><linearGradient id="paint5_linear_440_51" x1="14.377" y1="-25.942" x2="8.351" y2="16.015" gradientUnits="userSpaceOnUse"><stop stop-color="#fff"/><stop offset=".75" stop-color="#fff" stop-opacity=".05"/></linearGradient><linearGradient id="paint6_linear_440_51" x1="4.725" y1="-2.754" x2="14.05" y2="18.88" gradientUnits="userSpaceOnUse"><stop stop-color="#fff" stop-opacity=".8"/><stop offset="1" stop-color="#fff" stop-opacity=".2"/></linearGradient><linearGradient id="paint7_linear_440_51" x1="102.484" y1="30.658" x2="97.072" y2="68.338" gradientUnits="userSpaceOnUse"><stop stop-color="#fff"/><stop offset=".75" stop-color="#fff" stop-opacity=".05"/></linearGradient><filter id="filter0_d_440_51" x="72.979" y="79.488" width="36.937" height="36.879" filterUnits="userSpaceOnUse" color-interpolation-filters="sRGB"><feFlood flood-opacity="0" result="BackgroundImageFix"/><feColorMatrix in="SourceAlpha" values="0 0 0 0 0 0 0 0 0 0 0 0 0 0 0 0 0 0 127 0" result="hardAlpha"/><feOffset dy="3.955"/><feGaussianBlur stdDeviation="1.978"/><feComposite in2="hardAlpha" operator="out"/><feColorMatrix values="0 0 0 0 0 0 0 0 0 0 0 0 0 0 0 0 0 0 0.25 0"/><feBlend in2="BackgroundImageFix" result="effect1_dropShadow_440_51"/><feBlend in="SourceGraphic" in2="effect1_dropShadow_440_51" result="shape"/></filter><filter id="filter1_d_440_51" x="60.661" y="72.921" width="37.199" height="37.141" filterUnits="userSpaceOnUse" color-interpolation-filters="sRGB"><feFlood flood-opacity="0" result="BackgroundImageFix"/><feColorMatrix in="SourceAlpha" values="0 0 0 0 0 0 0 0 0 0 0 0 0 0 0 0 0 0 127 0" result="hardAlpha"/><feOffset dy="3.955"/><feGaussianBlur stdDeviation="1.978"/><feComposite in2="hardAlpha" operator="out"/><feColorMatrix values="0 0 0 0 0 0 0 0 0 0 0 0 0 0 0 0 0 0 0.25 0"/><feBlend in2="BackgroundImageFix" result="effect1_dropShadow_440_51"/><feBlend in="SourceGraphic" in2="effect1_dropShadow_440_51" result="shape"/></filter><filter id="filter2_f_440_51" x="-3.167" y="-8.152" width="25.058" height="25.012" filterUnits="userSpaceOnUse" color-interpolation-filters="sRGB"><feFlood flood-opacity="0" result="BackgroundImageFix"/><feBlend in="SourceGraphic" in2="BackgroundImageFix" result="shape"/><feGaussianBlur stdDeviation=".4" result="effect1_foregroundBlur_440_51"/></filter><filter id="filter3_d_440_51" x="-5.533" y="-7.352" width="29.791" height="29.745" filterUnits="userSpaceOnUse" color-interpolation-filters="sRGB"><feFlood flood-opacity="0" result="BackgroundImageFix"/><feColorMatrix in="SourceAlpha" values="0 0 0 0 0 0 0 0 0 0 0 0 0 0 0 0 0 0 127 0" result="hardAlpha"/><feOffset dy="3.167"/><feGaussianBlur stdDeviation="1.584"/><feComposite in2="hardAlpha" operator="out"/><feColorMatrix values="0 0 0 0 0 0 0 0 0 0 0 0 0 0 0 0 0 0 0.25 0"/><feBlend in2="BackgroundImageFix" result="effect1_dropShadow_440_51"/><feBlend in="SourceGraphic" in2="effect1_dropShadow_440_51" result="shape"/></filter><filter id="filter4_f_440_51" x="86.728" y="46.634" width="22.503" height="22.461" filterUnits="userSpaceOnUse" color-interpolation-filters="sRGB"><feFlood flood-opacity="0" result="BackgroundImageFix"/><feBlend in="SourceGraphic" in2="BackgroundImageFix" result="shape"/><feGaussianBlur stdDeviation=".36" result="effect1_foregroundBlur_440_51"/></filter><filter id="filter5_d_440_51" x="84.603" y="47.353" width="26.753" height="26.712" filterUnits="userSpaceOnUse" color-interpolation-filters="sRGB"><feFlood flood-opacity="0" result="BackgroundImageFix"/><feColorMatrix in="SourceAlpha" values="0 0 0 0 0 0 0 0 0 0 0 0 0 0 0 0 0 0 127 0" result="hardAlpha"/><feOffset dy="2.844"/><feGaussianBlur stdDeviation="1.422"/><feComposite in2="hardAlpha" operator="out"/><feColorMatrix values="0 0 0 0 0 0 0 0 0 0 0 0 0 0 0 0 0 0 0.25 0"/><feBlend in2="BackgroundImageFix" result="effect1_dropShadow_440_51"/><feBlend in="SourceGraphic" in2="effect1_dropShadow_440_51" result="shape"/></filter></defs></svg>