<svg width="329" height="78" fill="none" xmlns="http://www.w3.org/2000/svg"><path d="M16.9 21l.814-2.079-2.365-5.951h1.078l1.44 3.927a6.702 6.702 0 01.342 1.21c.015-.11.047-.275.099-.495a7.96 7.96 0 01.198-.715l1.265-3.927h1.078L17.956 21H16.9zm5.529 0v-6.05h4.532V21h-.99v-5.148h-2.552V21h-.99zm6.573 1.98v-8.03h.99v1.155h.198l-.198.231c0-.462.15-.825.451-1.089.308-.271.712-.407 1.21-.407.609 0 1.093.202 1.452.605.367.396.55.942.55 1.639v1.771c0 .462-.084.862-.253 1.199a1.798 1.798 0 01-.693.781c-.293.183-.645.275-1.056.275-.491 0-.89-.136-1.199-.407-.308-.271-.462-.634-.462-1.089l.198.231h-.22l.022 1.375v1.76h-.99zm2.321-2.728c.418 0 .745-.125.98-.374.241-.25.362-.609.362-1.078v-1.65c0-.47-.12-.829-.363-1.078-.234-.25-.56-.374-.979-.374-.403 0-.726.128-.968.385s-.363.612-.363 1.067v1.65c0 .455.121.81.363 1.067.242.257.565.385.968.385zm6.563.836c-.484 0-.902-.092-1.254-.275a1.996 1.996 0 01-.825-.792c-.19-.352-.286-.766-.286-1.243v-1.606c0-.484.095-.898.286-1.243.198-.345.473-.609.825-.792.352-.183.77-.275 1.254-.275s.902.092 1.254.275c.352.183.623.447.814.792.198.345.297.755.297 1.232v1.617c0 .477-.1.891-.297 1.243a1.92 1.92 0 01-.814.792c-.352.183-.77.275-1.254.275zm0-.88c.433 0 .77-.121 1.012-.363s.363-.598.363-1.067v-1.606c0-.47-.121-.825-.363-1.067s-.58-.363-1.012-.363c-.425 0-.763.121-1.012.363-.242.242-.363.598-.363 1.067v1.606c0 .47.12.825.363 1.067.25.242.587.363 1.012.363zm6.618.902c-.484 0-.91-.092-1.276-.275a1.98 1.98 0 01-.836-.792c-.198-.352-.297-.766-.297-1.243v-1.65c0-.484.099-.898.297-1.243a1.98 1.98 0 01.836-.792c.366-.183.792-.275 1.276-.275.696 0 1.257.187 1.683.561.425.374.649.884.67 1.529h-.99c-.021-.389-.153-.686-.395-.891-.235-.213-.558-.319-.968-.319-.433 0-.778.125-1.034.374-.257.242-.385.59-.385 1.045V18.8c0 .455.128.807.385 1.056.256.25.601.374 1.034.374.41 0 .733-.106.968-.319.242-.213.374-.51.396-.891h.99c-.022.645-.246 1.155-.671 1.529-.426.374-.987.561-1.683.561zm6.078-.11v-5.181h-2.2v-.869h5.39v.869h-2.2V21h-.99zm4.825 0v-6.05h.946v3.3c0 .213-.007.436-.022.671a9.355 9.355 0 01-.044.671 6.95 6.95 0 01-.055.528l2.442-5.17h1.265V21h-.946v-3.3c0-.213.004-.436.011-.671.015-.235.033-.458.055-.671l.055-.539L56.672 21h-1.265zm8.367 0v-5.181h-2.2v-.869h5.39v.869h-2.2V21h-.99zm7.09.11c-.476 0-.894-.095-1.254-.286a2.07 2.07 0 01-.825-.803A2.523 2.523 0 0168.5 18.8v-1.65c0-.47.095-.876.285-1.221a2.07 2.07 0 01.826-.803c.359-.19.777-.286 1.254-.286.476 0 .89.095 1.243.286.359.19.634.458.825.803.197.345.296.752.296 1.221v1.067h-3.761v.583c0 .477.12.843.362 1.1.243.25.587.374 1.035.374.38 0 .689-.066.924-.198a.874.874 0 00.428-.616h.99c-.066.506-.315.91-.747 1.21-.426.293-.957.44-1.595.44zm1.397-3.553v-.407c0-.477-.12-.843-.362-1.1-.235-.257-.58-.385-1.034-.385-.448 0-.792.128-1.034.385-.243.257-.364.623-.364 1.1v.319h2.871l-.076.088zM81.79 21v-6.05h4.532V21h-.99v-5.148H82.78V21h-.99zm6.574 1.98v-8.03h.99v1.155h.198l-.198.231c0-.462.15-.825.45-1.089.309-.271.712-.407 1.21-.407.61 0 1.093.202 1.453.605.366.396.55.942.55 1.639v1.771c0 .462-.085.862-.253 1.199a1.8 1.8 0 01-.693.781c-.294.183-.646.275-1.056.275-.492 0-.891-.136-1.2-.407-.307-.271-.461-.634-.461-1.089l.198.231h-.22l.022 1.375v1.76h-.99zm2.32-2.728c.419 0 .745-.125.98-.374.242-.25.363-.609.363-1.078v-1.65c0-.47-.121-.829-.363-1.078-.235-.25-.561-.374-.98-.374-.403 0-.725.128-.967.385s-.363.612-.363 1.067v1.65c0 .455.12.81.363 1.067.242.257.564.385.968.385zm6.563.836c-.484 0-.902-.092-1.254-.275a1.996 1.996 0 01-.825-.792c-.19-.352-.286-.766-.286-1.243v-1.606c0-.484.096-.898.286-1.243.198-.345.473-.609.825-.792.352-.183.77-.275 1.254-.275s.902.092 1.254.275c.352.183.624.447.814.792.198.345.297.755.297 1.232v1.617c0 .477-.099.891-.297 1.243a1.92 1.92 0 01-.814.792c-.352.183-.77.275-1.254.275zm0-.88c.433 0 .77-.121 1.012-.363s.363-.598.363-1.067v-1.606c0-.47-.12-.825-.363-1.067-.242-.242-.58-.363-1.012-.363-.425 0-.762.121-1.012.363-.242.242-.363.598-.363 1.067v1.606c0 .47.121.825.363 1.067.25.242.587.363 1.012.363zm8.631 2.332V21h-4.301v-6.05h.99v5.17h2.376v-5.17h.99v5.17h.825v2.42h-.88zm4.561-1.43c-.477 0-.895-.095-1.254-.286a2.07 2.07 0 01-.825-.803c-.191-.352-.286-.759-.286-1.221v-1.65c0-.47.095-.876.286-1.221a2.07 2.07 0 01.825-.803c.359-.19.777-.286 1.254-.286.476 0 .891.095 1.243.286.359.19.634.458.825.803.198.345.297.752.297 1.221v1.067h-3.762v.583c0 .477.121.843.363 1.1.242.25.586.374 1.034.374.381 0 .689-.066.924-.198a.878.878 0 00.429-.616h.99c-.066.506-.316.91-.748 1.21-.426.293-.957.44-1.595.44zm1.397-3.553v-.407c0-.477-.121-.843-.363-1.1-.235-.257-.58-.385-1.034-.385-.448 0-.792.128-1.034.385s-.363.623-.363 1.1v.319h2.871l-.077.088zm5.22 3.553c-.484 0-.909-.092-1.276-.275a1.982 1.982 0 01-.836-.792c-.198-.352-.297-.766-.297-1.243v-1.65c0-.484.099-.898.297-1.243.198-.345.477-.609.836-.792.367-.183.792-.275 1.276-.275.697 0 1.258.187 1.683.561.426.374.649.884.671 1.529h-.99c-.022-.389-.154-.686-.396-.891-.234-.213-.557-.319-.968-.319-.432 0-.777.125-1.034.374-.256.242-.385.59-.385 1.045V18.8c0 .455.129.807.385 1.056.257.25.602.374 1.034.374.411 0 .734-.106.968-.319.242-.213.374-.51.396-.891h.99c-.022.645-.245 1.155-.671 1.529-.425.374-.986.561-1.683.561zm6.596 0c-.484 0-.909-.092-1.276-.275a1.982 1.982 0 01-.836-.792c-.198-.352-.297-.766-.297-1.243v-1.65c0-.484.099-.898.297-1.243.198-.345.477-.609.836-.792.367-.183.792-.275 1.276-.275.697 0 1.258.187 1.683.561.425.374.649.884.671 1.529h-.99c-.022-.389-.154-.686-.396-.891-.235-.213-.557-.319-.968-.319-.433 0-.777.125-1.034.374-.257.242-.385.59-.385 1.045V18.8c0 .455.128.807.385 1.056.257.25.601.374 1.034.374.411 0 .733-.106.968-.319.242-.213.374-.51.396-.891h.99c-.022.645-.246 1.155-.671 1.529-.425.374-.986.561-1.683.561zm13.169 0c-.711 0-1.276-.209-1.694-.627-.41-.425-.616-1.005-.616-1.738v-2.75c0-.968.242-1.712.726-2.233.484-.528 1.177-.792 2.079-.792h1.54v.99h-1.54c-.594 0-1.045.176-1.353.528-.308.345-.462.847-.462 1.507v.715h.154l-.154.22c.008-.433.154-.77.44-1.012.286-.242.675-.363 1.166-.363.638 0 1.133.205 1.485.616.36.41.539.975.539 1.694v.88c0 .491-.091.913-.275 1.265a1.924 1.924 0 01-.792.814c-.344.19-.759.286-1.243.286zm0-.88c.426 0 .752-.128.979-.385.228-.257.341-.623.341-1.1v-.88c0-.477-.113-.843-.341-1.1-.227-.257-.553-.385-.979-.385-.425 0-.751.128-.979.385-.227.25-.341.616-.341 1.1v.88c0 .477.114.843.341 1.1.228.257.554.385.979.385zm4.308 2.75v-8.03h.99v1.155h.198l-.198.231c0-.462.151-.825.451-1.089.308-.271.712-.407 1.21-.407.609 0 1.093.202 1.452.605.367.396.55.942.55 1.639v1.771c0 .462-.084.862-.253 1.199a1.795 1.795 0 01-.693.781c-.293.183-.645.275-1.056.275-.491 0-.891-.136-1.199-.407-.308-.271-.462-.634-.462-1.089l.198.231h-.22l.022 1.375v1.76h-.99zm2.321-2.728c.418 0 .745-.125.979-.374.242-.25.363-.609.363-1.078v-1.65c0-.47-.121-.829-.363-1.078-.234-.25-.561-.374-.979-.374-.403 0-.726.128-.968.385s-.363.612-.363 1.067v1.65c0 .455.121.81.363 1.067.242.257.565.385.968.385zm6.563.836c-.484 0-.902-.092-1.254-.275a1.996 1.996 0 01-.825-.792c-.191-.352-.286-.766-.286-1.243v-1.606c0-.484.095-.898.286-1.243.198-.345.473-.609.825-.792.352-.183.77-.275 1.254-.275s.902.092 1.254.275c.352.183.623.447.814.792.198.345.297.755.297 1.232v1.617c0 .477-.099.891-.297 1.243a1.929 1.929 0 01-.814.792c-.352.183-.77.275-1.254.275zm0-.88c.433 0 .77-.121 1.012-.363s.363-.598.363-1.067v-1.606c0-.47-.121-.825-.363-1.067s-.579-.363-1.012-.363c-.425 0-.763.121-1.012.363-.242.242-.363.598-.363 1.067v1.606c0 .47.121.825.363 1.067.249.242.587.363 1.012.363zm4.33.792v-6.05h.99v2.519h2.552V14.95h.99V21h-.99v-2.629h-2.552V21h-.99zm6.595 0v-6.05h.946v3.3c0 .213-.007.436-.022.671a9.185 9.185 0 01-.044.671 6.655 6.655 0 01-.055.528l2.442-5.17h1.265V21h-.946v-3.3c0-.213.004-.436.011-.671.015-.235.033-.458.055-.671l.055-.539L162.203 21h-1.265zm6.574 1.98v-8.03h.99v1.155h.198l-.198.231c0-.462.15-.825.451-1.089.308-.271.711-.407 1.21-.407.609 0 1.093.202 1.452.605.367.396.55.942.55 1.639v1.771c0 .462-.084.862-.253 1.199a1.795 1.795 0 01-.693.781c-.293.183-.645.275-1.056.275-.491 0-.891-.136-1.199-.407-.308-.271-.462-.634-.462-1.089l.198.231h-.22l.022 1.375v1.76h-.99zm2.321-2.728c.418 0 .744-.125.979-.374.242-.25.363-.609.363-1.078v-1.65c0-.47-.121-.829-.363-1.078-.235-.25-.561-.374-.979-.374-.403 0-.726.128-.968.385s-.363.612-.363 1.067v1.65c0 .455.121.81.363 1.067.242.257.565.385.968.385zm6.563.836c-.484 0-.902-.092-1.254-.275a1.996 1.996 0 01-.825-.792c-.191-.352-.286-.766-.286-1.243v-1.606c0-.484.095-.898.286-1.243.198-.345.473-.609.825-.792.352-.183.77-.275 1.254-.275s.902.092 1.254.275c.352.183.623.447.814.792.198.345.297.755.297 1.232v1.617c0 .477-.099.891-.297 1.243a1.929 1.929 0 01-.814.792c-.352.183-.77.275-1.254.275zm0-.88c.432 0 .77-.121 1.012-.363s.363-.598.363-1.067v-1.606c0-.47-.121-.825-.363-1.067s-.58-.363-1.012-.363c-.426 0-.763.121-1.012.363-.242.242-.363.598-.363 1.067v1.606c0 .47.121.825.363 1.067.249.242.586.363 1.012.363zm4.329.792v-6.05h2.618c.631 0 1.119.143 1.463.429.345.279.517.671.517 1.177 0 .418-.143.755-.429 1.012-.286.25-.663.374-1.133.374v-.088c.514 0 .924.128 1.232.385.316.257.473.601.473 1.034 0 .543-.183.968-.55 1.276-.366.3-.88.451-1.54.451h-2.651zm.968-.869h1.683c.352 0 .624-.077.814-.231.198-.154.297-.37.297-.649 0-.286-.099-.506-.297-.66-.19-.154-.462-.231-.814-.231h-1.683v1.771zm0-2.629h1.65c.308 0 .55-.073.726-.22.184-.147.275-.352.275-.616s-.088-.47-.264-.616c-.176-.154-.421-.231-.737-.231h-1.65v1.683zm7.366 3.608c-.638 0-1.14-.161-1.507-.484-.367-.33-.55-.774-.55-1.331 0-.565.183-1.008.55-1.331.367-.323.862-.484 1.485-.484h1.87v-.605c0-.374-.114-.66-.341-.858-.22-.205-.535-.308-.946-.308-.359 0-.66.077-.902.231a.823.823 0 00-.418.605h-.99c.066-.52.312-.935.737-1.243.425-.308.957-.462 1.595-.462.697 0 1.247.18 1.65.539.403.36.605.847.605 1.463V21h-.968v-1.155h-.165l.165-.165c0 .44-.172.788-.517 1.045-.337.257-.788.385-1.353.385zm.242-.781c.469 0 .854-.117 1.155-.352.301-.235.451-.535.451-.902v-.858h-1.848c-.33 0-.59.092-.781.275-.191.183-.286.433-.286.748 0 .337.114.605.341.803.235.19.557.286.968.286zm4.616.671v-6.05h.99v2.519h2.552V14.95h.99V21h-.99v-2.629h-2.552V21h-.99zm6.596 0v-6.05h.946v3.3c0 .213-.008.436-.022.671a9.779 9.779 0 01-.044.671 7.162 7.162 0 01-.055.528l2.442-5.17h1.265V21h-.946v-3.3c0-.213.003-.436.011-.671.014-.235.033-.458.055-.671l.055-.539L201.778 21h-1.265zm6.221 0l1.551-2.332c-.462-.11-.821-.323-1.078-.638-.249-.315-.374-.708-.374-1.177 0-.594.195-1.06.583-1.397.396-.337.935-.506 1.617-.506h2.607V21h-.99v-2.255h-1.331L207.889 21h-1.155zm2.299-3.135h1.617V15.83h-1.617c-.366 0-.656.092-.869.275-.212.176-.319.425-.319.748 0 .315.107.565.319.748.213.176.503.264.869.264zm12.191 5.115l.891-2.354-2.244-5.676h1.1l1.408 3.74c.051.125.099.275.143.451l.11.429.11-.429a5.08 5.08 0 01.132-.451l1.32-3.74h1.067l-2.981 8.03h-1.056zm7.959-1.87c-.484 0-.909-.092-1.276-.275a1.982 1.982 0 01-.836-.792c-.198-.352-.297-.766-.297-1.243v-1.65c0-.484.099-.898.297-1.243.198-.345.477-.609.836-.792.367-.183.792-.275 1.276-.275.697 0 1.258.187 1.683.561.426.374.649.884.671 1.529h-.99c-.022-.389-.154-.686-.396-.891-.234-.213-.557-.319-.968-.319-.432 0-.777.125-1.034.374-.256.242-.385.59-.385 1.045V18.8c0 .455.129.807.385 1.056.257.25.602.374 1.034.374.411 0 .734-.106.968-.319.242-.213.374-.51.396-.891h.99c-.022.645-.245 1.155-.671 1.529-.425.374-.986.561-1.683.561zm3.549-.033v-.924h.198c.337 0 .572-.132.704-.396.139-.264.213-.737.22-1.419l.066-3.388h4.103V21h-.99v-5.148h-2.134l-.055 2.53c-.015.638-.088 1.155-.22 1.551-.125.396-.323.686-.594.869-.264.183-.612.275-1.045.275h-.253zm8.279 1.903l.891-2.354-2.244-5.676h1.1l1.408 3.74c.051.125.099.275.143.451l.11.429.11-.429a5.08 5.08 0 01.132-.451l1.32-3.74h1.067l-2.981 8.03h-1.056zm6.067-1.98v-6.05h4.345v.902h-3.355V21h-.99zm12.796 0v-6.05h.946v3.3c0 .213-.007.436-.022.671a9.185 9.185 0 01-.044.671 7.162 7.162 0 01-.055.528l2.442-5.17h1.265V21h-.946v-3.3c0-.213.004-.436.011-.671.015-.235.033-.458.055-.671l.055-.539L261.139 21h-1.265zm13.191 0v-6.05h4.532V21h-.99v-5.148h-2.552V21h-.99zm8.862.088c-.484 0-.902-.092-1.254-.275a1.996 1.996 0 01-.825-.792c-.191-.352-.286-.766-.286-1.243v-1.606c0-.484.095-.898.286-1.243.198-.345.473-.609.825-.792.352-.183.77-.275 1.254-.275s.902.092 1.254.275c.352.183.623.447.814.792.198.345.297.755.297 1.232v1.617c0 .477-.099.891-.297 1.243a1.929 1.929 0 01-.814.792c-.352.183-.77.275-1.254.275zm0-.88c.433 0 .77-.121 1.012-.363s.363-.598.363-1.067v-1.606c0-.47-.121-.825-.363-1.067s-.579-.363-1.012-.363c-.425 0-.763.121-1.012.363-.242.242-.363.598-.363 1.067v1.606c0 .47.121.825.363 1.067.249.242.587.363 1.012.363zm4.363.792v-6.05h.99v2.497h1.034l1.76-2.497h1.133l-2.035 2.882L291.24 21h-1.155l-1.76-2.695h-1.045V21h-.99zm7.486 1.98l.891-2.354-2.244-5.676h1.1l1.408 3.74c.052.125.099.275.143.451l.11.429.11-.429a5.08 5.08 0 01.132-.451l1.32-3.74h1.067l-2.981 8.03h-1.056zm5.672-1.98v-6.05h4.532V21h-.99v-5.148h-2.552V21h-.99zm6.629 0v-6.05h.99v2.497h1.034l1.76-2.497h1.133l-2.035 2.882L311.027 21h-1.155l-1.76-2.695h-1.045V21h-.99zm6.562 0v-6.05h.946v3.3c0 .213-.007.436-.022.671a9.185 9.185 0 01-.044.671 6.655 6.655 0 01-.055.528l2.442-5.17h1.265V21h-.946v-3.3c0-.213.004-.436.011-.671.015-.235.033-.458.055-.671l.055-.539L313.904 21h-1.265zM18.099 36.11c-.712 0-1.276-.209-1.694-.627-.41-.425-.616-1.005-.616-1.738v-2.75c0-.968.242-1.712.726-2.233.484-.528 1.177-.792 2.079-.792h1.54v.99h-1.54c-.594 0-1.045.176-1.353.528-.308.345-.462.847-.462 1.507v.715h.154l-.154.22c.007-.433.154-.77.44-1.012.286-.242.674-.363 1.166-.363.638 0 1.133.205 1.485.616.36.41.539.975.539 1.694v.88c0 .491-.092.913-.275 1.265a1.927 1.927 0 01-.792.814c-.345.19-.76.286-1.243.286zm0-.88c.425 0 .752-.128.979-.385.227-.257.34-.623.34-1.1v-.88c0-.477-.113-.843-.34-1.1-.227-.257-.554-.385-.98-.385-.424 0-.75.128-.978.385-.228.25-.341.616-.341 1.1v.88c0 .477.113.843.34 1.1.228.257.555.385.98.385zm4.33.77v-6.05h.946v3.3c0 .213-.008.436-.023.671a9.355 9.355 0 01-.044.671 6.95 6.95 0 01-.055.528l2.442-5.17h1.265V36h-.945v-3.3c0-.213.003-.436.01-.671.015-.235.034-.458.056-.671.021-.22.04-.4.055-.539L23.694 36h-1.265zm5.836.077v-.924h.198c.338 0 .572-.132.704-.396.14-.264.213-.737.22-1.419l.066-3.388h4.103V36h-.99v-5.148h-2.134l-.055 2.53c-.014.638-.088 1.155-.22 1.551-.124.396-.322.686-.594.869-.264.183-.612.275-1.045.275h-.253zm9.62.033c-.476 0-.894-.095-1.253-.286a2.07 2.07 0 01-.825-.803 2.524 2.524 0 01-.286-1.221v-1.65c0-.47.095-.876.286-1.221a2.07 2.07 0 01.825-.803c.36-.19.777-.286 1.254-.286s.89.095 1.243.286c.36.19.634.458.825.803.198.345.297.752.297 1.221v1.067h-3.762v.583c0 .477.12.843.363 1.1.242.25.587.374 1.034.374.381 0 .69-.066.924-.198a.874.874 0 00.429-.616h.99c-.066.506-.315.91-.748 1.21-.425.293-.957.44-1.595.44zm1.398-3.553v-.407c0-.477-.121-.843-.363-1.1-.235-.257-.58-.385-1.034-.385-.447 0-.792.128-1.034.385s-.363.623-.363 1.1v.319h2.87l-.076.088zM43.987 36v-5.181h-2.2v-.869h5.39v.869h-2.2V36h-.99zm7.09.088c-.484 0-.902-.092-1.254-.275a1.996 1.996 0 01-.825-.792c-.19-.352-.286-.766-.286-1.243v-1.606c0-.484.096-.898.286-1.243.198-.345.473-.609.825-.792.352-.183.77-.275 1.254-.275s.902.092 1.254.275c.352.183.624.447.814.792.198.345.297.755.297 1.232v1.617c0 .477-.099.891-.297 1.243a1.92 1.92 0 01-.814.792c-.352.183-.77.275-1.254.275zm0-.88c.433 0 .77-.121 1.012-.363s.363-.598.363-1.067v-1.606c0-.47-.12-.825-.363-1.067-.242-.242-.579-.363-1.012-.363-.425 0-.762.121-1.012.363-.242.242-.363.598-.363 1.067v1.606c0 .47.121.825.363 1.067.25.242.587.363 1.012.363zm4.33.792v-6.05h2.618c.63 0 1.118.143 1.463.429.345.279.517.671.517 1.177 0 .418-.143.755-.429 1.012-.286.25-.664.374-1.133.374v-.088c.513 0 .924.128 1.232.385.315.257.473.601.473 1.034 0 .543-.183.968-.55 1.276-.367.3-.88.451-1.54.451h-2.651zm.968-.869h1.683c.352 0 .623-.077.814-.231.198-.154.297-.37.297-.649 0-.286-.099-.506-.297-.66-.19-.154-.462-.231-.814-.231h-1.683v1.771zm0-2.629h1.65c.308 0 .55-.073.726-.22.183-.147.275-.352.275-.616s-.088-.47-.264-.616c-.176-.154-.422-.231-.737-.231h-1.65v1.683zM72.075 36v-2.2a4.6 4.6 0 01-.54.088 8.028 8.028 0 01-.748.033c-.748.007-1.33-.172-1.749-.539-.41-.374-.615-.895-.615-1.562v-1.87h.99v1.87c0 .374.124.671.374.891.256.213.608.319 1.055.319a7.8 7.8 0 00.782-.033c.22-.03.37-.055.45-.077v-2.97h.99V36h-.99zm5.385.11c-.476 0-.894-.095-1.254-.286a2.07 2.07 0 01-.825-.803 2.523 2.523 0 01-.286-1.221v-1.65c0-.47.096-.876.286-1.221a2.07 2.07 0 01.825-.803c.36-.19.778-.286 1.254-.286.477 0 .891.095 1.243.286.36.19.635.458.825.803.198.345.297.752.297 1.221v1.067h-3.762v.583c0 .477.121.843.363 1.1.242.25.587.374 1.034.374.382 0 .69-.066.924-.198a.874.874 0 00.43-.616h.99c-.067.506-.316.91-.749 1.21-.425.293-.957.44-1.595.44zm1.397-3.553v-.407c0-.477-.12-.843-.363-1.1-.234-.257-.58-.385-1.034-.385-.447 0-.792.128-1.034.385s-.363.623-.363 1.1v.319h2.871l-.077.088zm2.91 5.423v-8.03h.99v1.155h.199l-.198.231c0-.462.15-.825.45-1.089.309-.271.712-.407 1.21-.407.61 0 1.093.202 1.453.605.367.396.55.942.55 1.639v1.771c0 .462-.085.862-.253 1.199a1.8 1.8 0 01-.693.781c-.293.183-.645.275-1.056.275-.492 0-.891-.136-1.2-.407-.307-.271-.461-.634-.461-1.089l.198.231h-.22l.022 1.375v1.76h-.99zm2.322-2.728c.418 0 .744-.125.979-.374.242-.25.363-.609.363-1.078v-1.65c0-.47-.121-.829-.363-1.078-.235-.25-.561-.374-.98-.374-.402 0-.725.128-.967.385s-.363.612-.363 1.067v1.65c0 .455.12.81.363 1.067.242.257.565.385.968.385zm6.563.858c-.477 0-.895-.095-1.254-.286a2.07 2.07 0 01-.825-.803 2.523 2.523 0 01-.286-1.221v-1.65c0-.47.095-.876.286-1.221a2.07 2.07 0 01.825-.803c.359-.19.777-.286 1.254-.286.476 0 .89.095 1.243.286.359.19.634.458.825.803.198.345.297.752.297 1.221v1.067h-3.762v.583c0 .477.12.843.363 1.1.242.25.586.374 1.034.374.38 0 .689-.066.924-.198a.874.874 0 00.429-.616h.99c-.066.506-.316.91-.748 1.21-.426.293-.957.44-1.595.44zm1.397-3.553v-.407c0-.477-.121-.843-.363-1.1-.235-.257-.58-.385-1.034-.385-.448 0-.792.128-1.034.385s-.363.623-.363 1.1v.319h2.87l-.076.088zm4.912 3.52c-.638 0-1.162-.136-1.573-.407a1.616 1.616 0 01-.726-1.1h1.045c.052.183.187.334.407.451.228.117.51.176.847.176h.517c.36 0 .638-.084.836-.253a.814.814 0 00.308-.66c0-.293-.099-.524-.297-.693-.19-.169-.473-.253-.847-.253h-1.33v-.858h1.297c.338 0 .594-.08.77-.242a.824.824 0 00.264-.638.834.834 0 00-.12-.462.7.7 0 00-.342-.286 1.422 1.422 0 00-.56-.099h-.55a1.41 1.41 0 00-.76.198c-.212.132-.34.293-.385.484h-1.045c.074-.455.312-.829.715-1.122.404-.293.895-.44 1.474-.44h.55c.433 0 .803.07 1.111.209.308.132.543.323.704.572.169.25.253.546.253.891 0 .36-.117.656-.352.891-.234.227-.564.356-.99.385v.044c.52.037.899.176 1.133.418.235.242.352.59.352 1.045 0 .535-.198.96-.594 1.276-.396.315-.927.473-1.595.473h-.517zM109.944 36v-7.139h-2.2v-.902h5.39v.902h-2.2V36h-.99zm7.09.11c-.476 0-.894-.095-1.254-.286a2.07 2.07 0 01-.825-.803 2.531 2.531 0 01-.286-1.221v-1.65c0-.47.096-.876.286-1.221a2.07 2.07 0 01.825-.803c.36-.19.778-.286 1.254-.286.477 0 .891.095 1.243.286.36.19.635.458.825.803.198.345.297.752.297 1.221v1.067h-3.762v.583c0 .477.121.843.363 1.1.242.25.587.374 1.034.374.382 0 .69-.066.924-.198a.872.872 0 00.429-.616h.99c-.066.506-.315.91-.748 1.21-.425.293-.957.44-1.595.44zm1.397-3.553v-.407c0-.477-.121-.843-.363-1.1-.234-.257-.579-.385-1.034-.385-.447 0-.792.128-1.034.385s-.363.623-.363 1.1v.319h2.871l-.077.088zM124.455 36c-.352 0-.66-.07-.924-.209a1.504 1.504 0 01-.616-.594 1.783 1.783 0 01-.22-.902v-5.423h-2.035v-.902h3.025v6.325c0 .25.07.447.209.594.139.14.326.209.561.209h1.925V36h-1.925zm5.771.11c-.477 0-.895-.095-1.254-.286a2.07 2.07 0 01-.825-.803c-.191-.352-.286-.759-.286-1.221v-1.65c0-.47.095-.876.286-1.221a2.07 2.07 0 01.825-.803c.359-.19.777-.286 1.254-.286.476 0 .891.095 1.243.286.359.19.634.458.825.803.198.345.297.752.297 1.221v1.067h-3.762v.583c0 .477.121.843.363 1.1.242.25.586.374 1.034.374.381 0 .689-.066.924-.198a.878.878 0 00.429-.616h.99c-.066.506-.316.91-.748 1.21-.426.293-.957.44-1.595.44zm1.397-3.553v-.407c0-.477-.121-.843-.363-1.1-.235-.257-.58-.385-1.034-.385-.448 0-.792.128-1.034.385s-.363.623-.363 1.1v.319h2.871l-.077.088zm3.669 5.423v-.902h1.925c.308 0 .532-.07.671-.209.147-.14.22-.356.22-.649v-.77l.022-1.1h-.198l.187-.165c0 .44-.146.788-.44 1.045-.293.257-.685.385-1.177.385-.623 0-1.114-.202-1.474-.605-.359-.41-.539-.96-.539-1.65v-1.276c0-.69.18-1.236.539-1.639.36-.403.851-.605 1.474-.605.492 0 .884.128 1.177.385.294.257.44.605.44 1.045l-.187-.165h.187V29.95h.979v6.27c0 .543-.168.972-.506 1.287-.33.315-.792.473-1.386.473h-1.914zm1.507-3.223c.411 0 .734-.128.968-.385.235-.257.352-.612.352-1.067V32.15c0-.455-.117-.81-.352-1.067-.234-.257-.557-.385-.968-.385-.418 0-.744.125-.979.374-.227.25-.341.609-.341 1.078v1.155c0 .47.114.829.341 1.078.235.25.561.374.979.374zM141.338 36v-6.05h.968v1.155h.231l-.319.715c0-.653.14-1.144.418-1.474.286-.337.708-.506 1.265-.506.638 0 1.144.202 1.518.605.382.396.572.935.572 1.617v.363h-.99v-.275c0-.477-.117-.84-.352-1.089-.227-.257-.553-.385-.979-.385-.418 0-.748.128-.99.385-.234.257-.352.62-.352 1.089V36h-.99zm8.147.11c-.638 0-1.14-.161-1.507-.484-.367-.33-.55-.774-.55-1.331 0-.565.183-1.008.55-1.331.367-.323.862-.484 1.485-.484h1.87v-.605c0-.374-.114-.66-.341-.858-.22-.205-.535-.308-.946-.308-.359 0-.66.077-.902.231a.823.823 0 00-.418.605h-.99c.066-.52.312-.935.737-1.243.425-.308.957-.462 1.595-.462.697 0 1.247.18 1.65.539.403.36.605.847.605 1.463V36h-.968v-1.155h-.165l.165-.165c0 .44-.172.788-.517 1.045-.337.257-.788.385-1.353.385zm.242-.781c.469 0 .854-.117 1.155-.352.301-.235.451-.535.451-.902v-.858h-1.848c-.33 0-.59.092-.781.275-.191.183-.286.433-.286.748 0 .337.114.605.341.803.235.19.557.286.968.286zm4.308.671v-6.05h.869v.726h.198l-.154.264c0-.337.088-.605.264-.803.183-.198.429-.297.737-.297.337 0 .597.125.781.374.183.25.275.601.275 1.056l-.297-.594h.462l-.209.264c0-.337.091-.605.275-.803.19-.198.44-.297.748-.297.381 0 .674.143.88.429.212.286.319.664.319 1.133V36h-.913v-4.609c0-.25-.055-.444-.165-.583-.103-.14-.257-.209-.462-.209a.586.586 0 00-.473.209c-.11.132-.165.323-.165.572V36h-.792v-4.609c0-.257-.059-.451-.176-.583-.11-.14-.268-.209-.473-.209-.206 0-.36.07-.462.209-.103.132-.154.323-.154.572V36h-.913zm7.409-3.19v-.88h3.52v.88h-3.52zm8.356 3.3c-.711 0-1.276-.209-1.694-.627-.411-.425-.616-1.005-.616-1.738v-2.75c0-.968.242-1.712.726-2.233.484-.528 1.177-.792 2.079-.792h1.54v.99h-1.54c-.594 0-1.045.176-1.353.528-.308.345-.462.847-.462 1.507v.715h.154l-.154.22c.007-.433.154-.77.44-1.012.286-.242.675-.363 1.166-.363.638 0 1.133.205 1.485.616.359.41.539.975.539 1.694v.88c0 .491-.092.913-.275 1.265a1.924 1.924 0 01-.792.814c-.345.19-.759.286-1.243.286zm0-.88c.425 0 .752-.128.979-.385.227-.257.341-.623.341-1.1v-.88c0-.477-.114-.843-.341-1.1-.227-.257-.554-.385-.979-.385-.425 0-.752.128-.979.385-.227.25-.341.616-.341 1.1v.88c0 .477.114.843.341 1.1.227.257.554.385.979.385zm6.596.858c-.484 0-.902-.092-1.254-.275a1.996 1.996 0 01-.825-.792c-.191-.352-.286-.766-.286-1.243v-1.606c0-.484.095-.898.286-1.243.198-.345.473-.609.825-.792.352-.183.77-.275 1.254-.275s.902.092 1.254.275c.352.183.623.447.814.792.198.345.297.755.297 1.232v1.617c0 .477-.099.891-.297 1.243a1.929 1.929 0 01-.814.792c-.352.183-.77.275-1.254.275zm0-.88c.432 0 .77-.121 1.012-.363s.363-.598.363-1.067v-1.606c0-.47-.121-.825-.363-1.067s-.58-.363-1.012-.363c-.426 0-.763.121-1.012.363-.242.242-.363.598-.363 1.067v1.606c0 .47.121.825.363 1.067.249.242.586.363 1.012.363zm6.1.792v-5.181h-2.2v-.869h5.39v.869h-2.2V36h-.99zm6.563.11c-.638 0-1.14-.161-1.507-.484-.367-.33-.55-.774-.55-1.331 0-.565.183-1.008.55-1.331.367-.323.862-.484 1.485-.484h1.87v-.605c0-.374-.114-.66-.341-.858-.22-.205-.535-.308-.946-.308-.359 0-.66.077-.902.231a.823.823 0 00-.418.605h-.99c.066-.52.312-.935.737-1.243.425-.308.957-.462 1.595-.462.697 0 1.247.18 1.65.539.403.36.605.847.605 1.463V36h-.968v-1.155h-.165l.165-.165c0 .44-.172.788-.517 1.045-.337.257-.788.385-1.353.385zm.242-.781c.469 0 .854-.117 1.155-.352.301-.235.451-.535.451-.902v-.858h-1.848c-.33 0-.59.092-.781.275-.191.183-.286.433-.286.748 0 .337.114.605.341.803.235.19.557.286.968.286zm5.397 2.431l.88-3.421h1.43l-1.43 3.421h-.88zm11.706-.22v-2.387h.495c.125-.125.253-.37.385-.737.14-.367.213-.832.22-1.397l.066-3.069h3.949v5.203h.77v2.387h-.88V36h-4.125v1.54h-.88zm1.54-2.387h2.585V30.83h-2.024l-.044 2.211c-.007.58-.069 1.049-.187 1.408-.117.36-.227.594-.33.704zm8.026.957c-.477 0-.895-.095-1.254-.286a2.07 2.07 0 01-.825-.803c-.191-.352-.286-.759-.286-1.221v-1.65c0-.47.095-.876.286-1.221a2.07 2.07 0 01.825-.803c.359-.19.777-.286 1.254-.286s.891.095 1.243.286c.359.19.634.458.825.803.198.345.297.752.297 1.221v1.067h-3.762v.583c0 .477.121.843.363 1.1.242.25.587.374 1.034.374.381 0 .689-.066.924-.198a.872.872 0 00.429-.616h.99c-.066.506-.315.91-.748 1.21-.425.293-.957.44-1.595.44zm1.397-3.553v-.407c0-.477-.121-.843-.363-1.1-.235-.257-.579-.385-1.034-.385-.447 0-.792.128-1.034.385s-.363.623-.363 1.1v.319h2.871l-.077.088zm2.174 3.52v-.924h.198c.337 0 .572-.132.704-.396.139-.264.212-.737.22-1.419l.066-3.388h4.103V36h-.99v-5.148h-2.134l-.055 2.53c-.015.638-.088 1.155-.22 1.551-.125.396-.323.686-.594.869-.264.183-.613.275-1.045.275h-.253zm9.092.033c-.638 0-1.14-.161-1.507-.484-.366-.33-.55-.774-.55-1.331 0-.565.184-1.008.55-1.331.367-.323.862-.484 1.485-.484h1.87v-.605c0-.374-.113-.66-.341-.858-.22-.205-.535-.308-.946-.308-.359 0-.66.077-.902.231a.823.823 0 00-.418.605h-.99c.066-.52.312-.935.737-1.243.426-.308.957-.462 1.595-.462.697 0 1.247.18 1.65.539.404.36.605.847.605 1.463V36h-.968v-1.155h-.165l.165-.165c0 .44-.172.788-.517 1.045-.337.257-.788.385-1.353.385zm.242-.781c.47 0 .855-.117 1.155-.352.301-.235.451-.535.451-.902v-.858h-1.848c-.33 0-.59.092-.781.275-.19.183-.286.433-.286.748 0 .337.114.605.341.803.235.19.558.286.968.286zm4.242.671l1.551-2.332c-.462-.11-.821-.323-1.078-.638-.249-.315-.374-.708-.374-1.177 0-.594.194-1.06.583-1.397.396-.337.935-.506 1.617-.506h2.607V36h-.99v-2.255h-1.331L234.272 36h-1.155zm2.299-3.135h1.617V30.83h-1.617c-.367 0-.656.092-.869.275-.213.176-.319.425-.319.748 0 .315.106.565.319.748.213.176.502.264.869.264zm13.532 3.245c-.476 0-.894-.095-1.254-.286a2.07 2.07 0 01-.825-.803 2.531 2.531 0 01-.286-1.221v-1.65c0-.47.096-.876.286-1.221a2.07 2.07 0 01.825-.803c.36-.19.778-.286 1.254-.286.477 0 .891.095 1.243.286.36.19.635.458.825.803.198.345.297.752.297 1.221v1.067h-3.762v.583c0 .477.121.843.363 1.1.242.25.587.374 1.034.374.382 0 .69-.066.924-.198a.872.872 0 00.429-.616h.99c-.066.506-.315.91-.748 1.21-.425.293-.957.44-1.595.44zm1.397-3.553v-.407c0-.477-.121-.843-.363-1.1-.234-.257-.579-.385-1.034-.385-.447 0-.792.128-1.034.385s-.363.623-.363 1.1v.319h2.871l-.077.088zM253.674 36v-6.05h4.345v.902h-3.355V36h-.99zm8.466.088c-.484 0-.902-.092-1.254-.275a1.996 1.996 0 01-.825-.792c-.191-.352-.286-.766-.286-1.243v-1.606c0-.484.095-.898.286-1.243.198-.345.473-.609.825-.792.352-.183.77-.275 1.254-.275s.902.092 1.254.275c.352.183.623.447.814.792.198.345.297.755.297 1.232v1.617c0 .477-.099.891-.297 1.243a1.929 1.929 0 01-.814.792c-.352.183-.77.275-1.254.275zm0-.88c.433 0 .77-.121 1.012-.363s.363-.598.363-1.067v-1.606c0-.47-.121-.825-.363-1.067s-.579-.363-1.012-.363c-.425 0-.763.121-1.012.363-.242.242-.363.598-.363 1.067v1.606c0 .47.121.825.363 1.067.249.242.587.363 1.012.363zm13.191.902c-.711 0-1.276-.209-1.694-.627-.41-.425-.616-1.005-.616-1.738v-2.75c0-.968.242-1.712.726-2.233.484-.528 1.177-.792 2.079-.792h1.54v.99h-1.54c-.594 0-1.045.176-1.353.528-.308.345-.462.847-.462 1.507v.715h.154l-.154.22c.008-.433.154-.77.44-1.012.286-.242.675-.363 1.166-.363.638 0 1.133.205 1.485.616.36.41.539.975.539 1.694v.88c0 .491-.091.913-.275 1.265a1.924 1.924 0 01-.792.814c-.344.19-.759.286-1.243.286zm0-.88c.426 0 .752-.128.979-.385.228-.257.341-.623.341-1.1v-.88c0-.477-.113-.843-.341-1.1-.227-.257-.553-.385-.979-.385-.425 0-.751.128-.979.385-.227.25-.341.616-.341 1.1v.88c0 .477.114.843.341 1.1.228.257.554.385.979.385zm4.011.77v-6.05h.924v2.222h.495c.653 0 1.166.172 1.54.517.381.337.572.803.572 1.397s-.191 1.063-.572 1.408c-.374.337-.887.506-1.54.506h-1.419zm.924-.792h.495c.389 0 .689-.099.902-.297.22-.198.33-.473.33-.825s-.11-.627-.33-.825c-.213-.198-.513-.297-.902-.297h-.495v2.244zm3.322.792v-6.05h.924V36h-.924zm4.957.11c-.484 0-.91-.092-1.276-.275a1.977 1.977 0 01-.836-.792c-.198-.352-.297-.766-.297-1.243v-1.65c0-.484.099-.898.297-1.243.198-.345.476-.609.836-.792.366-.183.792-.275 1.276-.275.696 0 1.257.187 1.683.561.425.374.649.884.671 1.529h-.99c-.022-.389-.154-.686-.396-.891-.235-.213-.558-.319-.968-.319-.433 0-.778.125-1.034.374-.257.242-.385.59-.385 1.045V33.8c0 .455.128.807.385 1.056.256.25.601.374 1.034.374.41 0 .733-.106.968-.319.242-.213.374-.51.396-.891h.99c-.022.645-.246 1.155-.671 1.529-.426.374-.987.561-1.683.561zm6.078-.11v-5.181h-2.2v-.869h5.39v.869h-2.2V36h-.99zm4.803 1.98v-8.03h.99v1.155h.198l-.198.231c0-.462.15-.825.451-1.089.308-.271.711-.407 1.21-.407.609 0 1.093.202 1.452.605.367.396.55.942.55 1.639v1.771c0 .462-.084.862-.253 1.199a1.795 1.795 0 01-.693.781c-.293.183-.645.275-1.056.275-.491 0-.891-.136-1.199-.407-.308-.271-.462-.634-.462-1.089l.198.231h-.22l.022 1.375v1.76h-.99zm2.321-2.728c.418 0 .744-.125.979-.374.242-.25.363-.609.363-1.078v-1.65c0-.47-.121-.829-.363-1.078-.235-.25-.561-.374-.979-.374-.403 0-.726.128-.968.385s-.363.612-.363 1.067v1.65c0 .455.121.81.363 1.067.242.257.565.385.968.385zm3.978.748v-6.05h.924v2.222h.495c.652 0 1.166.172 1.54.517.381.337.572.803.572 1.397s-.191 1.063-.572 1.408c-.374.337-.888.506-1.54.506h-1.419zm.924-.792h.495c.388 0 .689-.099.902-.297.22-.198.33-.473.33-.825s-.11-.627-.33-.825c-.213-.198-.514-.297-.902-.297h-.495v2.244zm3.322.792v-6.05h.924V36h-.924zm2.47 0v-6.05h1.342l.792 2.321c.081.235.154.47.22.704.066.227.114.403.143.528.03-.125.074-.3.132-.528a39.6 39.6 0 01.209-.715l.748-2.31h1.342V36h-.957v-.935c0-.33.004-.69.011-1.078l.022-1.177.044-1.122c.015-.36.026-.675.033-.946l-1.078 3.443h-1.045l-1.089-3.421c.015.33.026.74.033 1.232.015.491.026 1.005.033 1.54.015.535.022 1.045.022 1.529V36h-.957zM91.683 51v-6.05h.946v3.3c0 .213-.007.436-.022.671a9.355 9.355 0 01-.044.671 7.002 7.002 0 01-.055.528l2.442-5.17h1.265V51h-.946v-3.3c0-.213.004-.436.011-.671.015-.235.033-.458.055-.671l.055-.539L92.948 51h-1.265zm14.116 1.98l.891-2.354-2.244-5.676h1.1l1.408 3.74c.051.125.099.275.143.451l.11.429.11-.429a5.08 5.08 0 01.132-.451l1.32-3.74h1.067l-2.981 8.03h-1.056zm4.968-.44v-2.387h.495c.124-.125.253-.37.385-.737.139-.367.212-.832.22-1.397l.066-3.069h3.949v5.203h.77v2.387h-.88V51h-4.125v1.54h-.88zm1.54-2.387h2.585V45.83h-2.024l-.044 2.211c-.008.58-.07 1.049-.187 1.408-.118.36-.228.594-.33.704zm8.025.935c-.484 0-.902-.092-1.254-.275a1.996 1.996 0 01-.825-.792c-.19-.352-.286-.766-.286-1.243v-1.606c0-.484.096-.898.286-1.243.198-.345.473-.609.825-.792.352-.183.77-.275 1.254-.275s.902.092 1.254.275c.352.183.624.447.814.792.198.345.297.755.297 1.232v1.617c0 .477-.099.891-.297 1.243a1.92 1.92 0 01-.814.792c-.352.183-.77.275-1.254.275zm0-.88c.433 0 .77-.121 1.012-.363s.363-.598.363-1.067v-1.606c0-.47-.121-.825-.363-1.067s-.579-.363-1.012-.363c-.425 0-.762.121-1.012.363-.242.242-.363.598-.363 1.067v1.606c0 .47.121.825.363 1.067.25.242.587.363 1.012.363zm6.596.902c-.711 0-1.276-.209-1.694-.627-.411-.425-.616-1.005-.616-1.738v-2.75c0-.968.242-1.712.726-2.233.484-.528 1.177-.792 2.079-.792h1.54v.99h-1.54c-.594 0-1.045.176-1.353.528-.308.345-.462.847-.462 1.507v.715h.154l-.154.22c.007-.433.154-.77.44-1.012.286-.242.675-.363 1.166-.363.638 0 1.133.205 1.485.616.359.41.539.975.539 1.694v.88c0 .491-.092.913-.275 1.265a1.924 1.924 0 01-.792.814c-.345.19-.759.286-1.243.286zm0-.88c.425 0 .752-.128.979-.385.227-.257.341-.623.341-1.1v-.88c0-.477-.114-.843-.341-1.1-.227-.257-.554-.385-.979-.385-.425 0-.752.128-.979.385-.227.25-.341.616-.341 1.1v.88c0 .477.114.843.341 1.1.227.257.554.385.979.385zm4.33.77v-6.05h.99v2.519h2.552V44.95h.99V51h-.99v-2.629h-2.552V51h-.99zm6.276 0v-6.05h.924v2.222h.495c.653 0 1.166.172 1.54.517.382.337.572.803.572 1.397s-.19 1.063-.572 1.408c-.374.337-.887.506-1.54.506h-1.419zm.924-.792h.495c.389 0 .69-.099.902-.297.22-.198.33-.473.33-.825s-.11-.627-.33-.825c-.212-.198-.513-.297-.902-.297h-.495v2.244zm3.322.792v-6.05h.924V51h-.924zm2.471 0v-6.05h1.342l.792 2.321c.081.235.154.47.22.704.066.227.114.403.143.528.029-.125.073-.3.132-.528a39.6 39.6 0 01.209-.715l.748-2.31h1.342V51h-.957v-.935c0-.33.004-.69.011-1.078l.022-1.177c.015-.396.029-.77.044-1.122.015-.36.026-.675.033-.946l-1.078 3.443h-1.045l-1.089-3.421c.015.33.026.74.033 1.232.015.491.026 1.005.033 1.54.015.535.022 1.045.022 1.529V51h-.957zm12.685 1.54v-2.387h.495c.125-.125.253-.37.385-.737.14-.367.213-.832.22-1.397l.066-3.069h3.949v5.203h.77v2.387h-.88V51h-4.125v1.54h-.88zm1.54-2.387h2.585V45.83h-2.024l-.044 2.211c-.007.58-.069 1.049-.187 1.408-.117.36-.227.594-.33.704zm5.001.924v-.924h.198c.337 0 .572-.132.704-.396.139-.264.213-.737.22-1.419l.066-3.388h4.103V51h-.99v-5.148h-2.134l-.055 2.53c-.015.638-.088 1.155-.22 1.551-.125.396-.323.686-.594.869-.264.183-.612.275-1.045.275h-.253zm6.981-.077l1.551-2.332c-.462-.11-.821-.323-1.078-.638-.249-.315-.374-.708-.374-1.177 0-.594.194-1.06.583-1.397.396-.337.935-.506 1.617-.506h2.607V51h-.99v-2.255h-1.331L171.613 51h-1.155zm2.299-3.135h1.617V45.83h-1.617c-.367 0-.656.092-.869.275-.213.176-.319.425-.319.748 0 .315.106.565.319.748.213.176.502.264.869.264zM184.056 51v-6.05h.99v2.497h1.034l1.76-2.497h1.133l-2.035 2.882L189.006 51h-1.155l-1.76-2.695h-1.045V51h-.99zm5.804.077v-.924h.198c.337 0 .572-.132.704-.396.139-.264.213-.737.22-1.419l.066-3.388h4.103V51h-.99v-5.148h-2.134l-.055 2.53c-.015.638-.088 1.155-.22 1.551-.125.396-.323.686-.594.869-.264.183-.612.275-1.045.275h-.253zm7.355-.077v-6.05h.946v3.3c0 .213-.008.436-.022.671a9.779 9.779 0 01-.044.671 7.162 7.162 0 01-.055.528l2.442-5.17h1.265V51h-.946v-3.3c0-.213.003-.436.011-.671.014-.235.033-.458.055-.671l.055-.539L198.48 51h-1.265zm8.861.11c-.476 0-.894-.095-1.254-.286a2.07 2.07 0 01-.825-.803 2.531 2.531 0 01-.286-1.221v-1.65c0-.47.096-.876.286-1.221a2.07 2.07 0 01.825-.803c.36-.19.778-.286 1.254-.286.477 0 .891.095 1.243.286.36.19.635.458.825.803.198.345.297.752.297 1.221v1.067h-3.762v.583c0 .477.121.843.363 1.1.242.25.587.374 1.034.374.382 0 .69-.066.924-.198a.872.872 0 00.429-.616h.99c-.066.506-.315.91-.748 1.21-.425.293-.957.44-1.595.44zm1.397-3.553v-.407c0-.477-.121-.843-.363-1.1-.234-.257-.579-.385-1.034-.385-.447 0-.792.128-1.034.385s-.363.623-.363 1.1v.319h2.871l-.077.088zM210.406 51v-6.05h.99v2.519h2.552V44.95h.99V51h-.99v-2.629h-2.552V51h-.99zm8.367 0v-5.181h-2.2v-.869h5.39v.869h-2.2V51h-.99zm7.09.088c-.484 0-.902-.092-1.254-.275a1.996 1.996 0 01-.825-.792c-.19-.352-.286-.766-.286-1.243v-1.606c0-.484.096-.898.286-1.243.198-.345.473-.609.825-.792.352-.183.77-.275 1.254-.275s.902.092 1.254.275c.352.183.624.447.814.792.198.345.297.755.297 1.232v1.617c0 .477-.099.891-.297 1.243a1.92 1.92 0 01-.814.792c-.352.183-.77.275-1.254.275zm0-.88c.433 0 .77-.121 1.012-.363s.363-.598.363-1.067v-1.606c0-.47-.121-.825-.363-1.067s-.579-.363-1.012-.363c-.425 0-.762.121-1.012.363-.242.242-.363.598-.363 1.067v1.606c0 .47.121.825.363 1.067.25.242.587.363 1.012.363zm4.33.792v-6.05h2.618c.631 0 1.119.143 1.463.429.345.279.517.671.517 1.177 0 .418-.143.755-.429 1.012-.286.25-.663.374-1.133.374v-.088c.514 0 .924.128 1.232.385.316.257.473.601.473 1.034 0 .543-.183.968-.55 1.276-.366.3-.88.451-1.54.451h-2.651zm.968-.869h1.683c.352 0 .624-.077.814-.231.198-.154.297-.37.297-.649 0-.286-.099-.506-.297-.66-.19-.154-.462-.231-.814-.231h-1.683v1.771zm0-2.629h1.65c.308 0 .55-.073.726-.22.184-.147.275-.352.275-.616s-.088-.47-.264-.616c-.176-.154-.421-.231-.737-.231h-1.65v1.683zm7.894 3.608c-.279 0-.502-.08-.671-.242-.161-.161-.242-.378-.242-.649 0-.286.081-.513.242-.682.169-.169.392-.253.671-.253s.499.084.66.253c.169.169.253.396.253.682 0 .271-.084.488-.253.649-.161.161-.381.242-.66.242z" fill="#fff"/><rect x=".5" y=".5" width="328" height="68" rx="10.5" stroke="#CCEC60"/></svg>