<svg width="154" height="214" fill="none" xmlns="http://www.w3.org/2000/svg"><rect x=".421" y=".421" width="152.36" height="212.79" rx="19.579" fill="url(#paint0_linear_2004_85)" fill-opacity=".53" stroke="url(#paint1_linear_2004_85)" stroke-width=".842"/><mask id="a" style="mask-type:alpha" maskUnits="userSpaceOnUse" x="0" y="0" width="154" height="214"><rect x=".421" y=".421" width="152.36" height="212.79" rx="19.579" fill="url(#paint2_linear_2004_85)" fill-opacity=".53" stroke="url(#paint3_linear_2004_85)" stroke-width=".842"/></mask><g filter="url(#filter0_f_2004_85)" mask="url(#a)"><path d="M10 236.955c-5.136 0-9.511-1.398-13.125-4.194-3.614-2.818-6.375-6.897-8.284-12.238-1.91-5.364-2.864-11.841-2.864-19.432 0-7.546.955-13.989 2.864-19.33 1.932-5.363 4.704-9.454 8.318-12.272 3.636-2.841 8-4.262 13.091-4.262 5.09 0 9.443 1.421 13.057 4.262 3.636 2.818 6.409 6.909 8.318 12.272 1.932 5.341 2.898 11.784 2.898 19.33 0 7.591-.955 14.068-2.864 19.432-1.909 5.341-4.67 9.42-8.284 12.238-3.614 2.796-7.989 4.194-13.125 4.194zm0-7.5c5.09 0 9.046-2.455 11.864-7.364 2.818-4.909 4.227-11.909 4.227-21 0-6.046-.648-11.193-1.943-15.443-1.273-4.25-3.114-7.489-5.523-9.716-2.386-2.227-5.261-3.341-8.625-3.341-5.045 0-8.989 2.489-11.83 7.466-2.84 4.954-4.26 11.966-4.26 21.034 0 6.045.635 11.182 1.908 15.409s3.102 7.443 5.489 9.648c2.409 2.204 5.307 3.307 8.693 3.307zM47.227 236v-6.136l23.046-25.228c2.704-2.954 4.931-5.522 6.681-7.704 1.75-2.205 3.046-4.273 3.887-6.205a15.02 15.02 0 001.295-6.136c0-2.455-.59-4.58-1.772-6.375-1.16-1.796-2.75-3.182-4.773-4.159-2.023-.977-4.295-1.466-6.818-1.466-2.682 0-5.023.557-7.023 1.67a11.498 11.498 0 00-4.602 4.603c-1.069 1.977-1.603 4.295-1.603 6.954H47.5c0-4.091.943-7.682 2.83-10.773 1.886-3.09 4.454-5.5 7.704-7.227 3.273-1.727 6.943-2.591 11.012-2.591 4.09 0 7.715.864 10.874 2.591 3.16 1.727 5.637 4.057 7.432 6.989 1.796 2.932 2.694 6.193 2.694 9.784 0 2.568-.467 5.079-1.398 7.534-.91 2.432-2.5 5.148-4.773 8.148-2.25 2.977-5.375 6.613-9.375 10.909l-15.682 16.773v.545h32.455v7.5H47.227z" fill="#CCEC60"/></g><mask id="b" style="mask-type:alpha" maskUnits="userSpaceOnUse" x="0" y="0" width="153" height="176"><rect x=".494" y=".494" width="152.011" height="175.011" rx="19.506" fill="url(#paint4_linear_2004_85)" fill-opacity=".53" stroke="url(#paint5_linear_2004_85)" stroke-width=".989"/></mask><g mask="url(#b)"><path fill="#C9D9CD" d="M0 0h153.038v52H0z"/></g><path d="M10.9 70v-7.3h.87v4.1c0 .24-.007.497-.02.77a26.835 26.835 0 01-.07 1.38l2.22-6.25h1.2V70h-.87v-4.1c0-.247.003-.503.01-.77.013-.273.027-.53.04-.77l.05-.61L12.1 70h-1.2zm6.036 0v-5.5h.9v2.29h2.32V64.5h.9V70h-.9v-2.39h-2.32V70h-.9zm7.606 0v-4.71h-2v-.79h4.9v.79h-2V70h-.9zm5.226 1.8l.81-2.14-2.04-5.16h1l1.28 3.4c.047.113.09.25.13.41.04.153.074.283.1.39l.1-.39c.04-.16.08-.297.12-.41l1.2-3.4h.97l-2.71 7.3h-.96zm5.156-1.8v-5.5h.86v3c0 .193-.006.397-.02.61-.006.213-.02.417-.04.61-.013.187-.03.347-.05.48l2.22-4.7h1.15V70h-.86v-3c0-.193.004-.397.01-.61.014-.213.03-.417.05-.61l.05-.49-2.22 4.71h-1.15zm7.607 0v-4.71h-2v-.79h4.9v.79h-2V70h-.9zm4.386 0v-5.5h.86v3c0 .193-.007.397-.02.61a8.72 8.72 0 01-.04.61 6.67 6.67 0 01-.05.48l2.22-4.7h1.15V70h-.86v-3c0-.193.003-.397.01-.61.013-.213.03-.417.05-.61.02-.2.036-.363.05-.49L48.067 70h-1.15zm5.996 0v-5.5h2.38c.573 0 1.016.13 1.33.39.313.253.47.61.47 1.07 0 .38-.13.687-.39.92-.26.227-.604.34-1.03.34v-.08c.466 0 .84.117 1.12.35.286.233.43.547.43.94 0 .493-.167.88-.5 1.16-.334.273-.8.41-1.4.41h-2.41zm.88-.79h1.53c.32 0 .566-.07.74-.21.18-.14.27-.337.27-.59 0-.26-.09-.46-.27-.6-.174-.14-.42-.21-.74-.21h-1.53v1.61zm0-2.39h1.5c.28 0 .5-.067.66-.2.166-.133.25-.32.25-.56 0-.24-.08-.427-.24-.56-.16-.14-.384-.21-.67-.21h-1.5v1.53zM58.909 70v-5.5h.9v2.29h2.32V64.5h.9V70h-.9v-2.39h-2.32V70h-.9zm8.056.08c-.44 0-.82-.083-1.14-.25a1.815 1.815 0 01-.75-.72c-.174-.32-.26-.697-.26-1.13v-1.46c0-.44.087-.817.26-1.13.18-.313.43-.553.75-.72.32-.167.7-.25 1.14-.25.44 0 .82.083 1.14.25.32.167.566.407.74.72.18.313.27.687.27 1.12v1.47c0 .433-.09.81-.27 1.13a1.76 1.76 0 01-.74.72c-.32.167-.7.25-1.14.25zm0-.8c.393 0 .7-.11.92-.33.22-.22.33-.543.33-.97v-1.46c0-.427-.11-.75-.33-.97-.22-.22-.527-.33-.92-.33-.387 0-.694.11-.92.33-.22.22-.33.543-.33.97v1.46c0 .427.11.75.33.97.227.22.533.33.92.33zm9.932.72v-5.5h4.12V70h-.9v-4.68h-2.32V70h-.9zm8.056.08c-.44 0-.82-.083-1.14-.25a1.815 1.815 0 01-.75-.72c-.173-.32-.26-.697-.26-1.13v-1.46c0-.44.087-.817.26-1.13.18-.313.43-.553.75-.72.32-.167.7-.25 1.14-.25.44 0 .82.083 1.14.25.32.167.567.407.74.72.18.313.27.687.27 1.12v1.47c0 .433-.09.81-.27 1.13-.173.313-.42.553-.74.72-.32.167-.7.25-1.14.25zm0-.8c.394 0 .7-.11.92-.33.22-.22.33-.543.33-.97v-1.46c0-.427-.11-.75-.33-.97-.22-.22-.526-.33-.92-.33-.386 0-.693.11-.92.33-.22.22-.33.543-.33.97v1.46c0 .427.11.75.33.97.227.22.534.33.92.33zm3.936.72v-5.5h.9v2.29h2.32V64.5h.9V70h-.9v-2.39h-2.32V70h-.9zm5.656 0l1.41-2.12c-.42-.1-.746-.293-.98-.58-.226-.287-.34-.643-.34-1.07 0-.54.177-.963.53-1.27.36-.307.85-.46 1.47-.46h2.37V70h-.9v-2.05h-1.21l-1.3 2.05h-1.05zm2.09-2.85h1.47V65.3h-1.47c-.333 0-.596.083-.79.25-.193.16-.29.387-.29.68 0 .287.097.513.29.68.194.16.457.24.79.24zm5.856 2.85v-4.71h-2v-.79h4.9v.79h-2V70h-.9zm4.387 0v-5.5h.9v2.29h2.32V64.5h.9V70h-.9v-2.39h-2.32V70h-.9zm5.706 0v-5.5h.84v2.02h.45c.593 0 1.06.157 1.4.47.346.307.52.73.52 1.27s-.174.967-.52 1.28c-.34.307-.807.46-1.4.46h-1.29zm.84-.72h.45c.353 0 .626-.09.82-.27.2-.18.3-.43.3-.75s-.1-.57-.3-.75c-.194-.18-.467-.27-.82-.27h-.45v2.04zm3.02.72v-5.5h.84V70h-.84zm2.426 0v-5.5h.86v3c0 .193-.007.397-.02.61a8.72 8.72 0 01-.04.61 6.67 6.67 0 01-.05.48l2.22-4.7h1.15V70h-.86v-3c0-.193.003-.397.01-.61.013-.213.03-.417.05-.61.02-.2.036-.363.05-.49L120.02 70h-1.15zm2.1-6.4c-.48 0-.867-.133-1.16-.4-.294-.267-.44-.617-.44-1.05h.71c0 .26.08.47.24.63.16.16.373.24.64.24.273 0 .49-.08.65-.24.166-.16.25-.37.25-.63h.71c0 .433-.147.783-.44 1.05-.294.267-.68.4-1.16.4zM10.94 83v-5.5h.86v3c0 .193-.007.397-.02.61a8.72 8.72 0 01-.04.61c-.013.187-.03.347-.05.48l2.22-4.7h1.15V83h-.86v-3c0-.193.003-.397.01-.61.013-.213.03-.417.05-.61l.05-.49L12.09 83h-1.15zm5.996 0v-5.5h.9v2.29h2.32V77.5h.9V83h-.9v-2.39h-2.32V83h-.9zm7.606 0v-4.71h-2v-.79h4.9v.79h-2V83h-.9zm6.446.1c-.433 0-.813-.087-1.14-.26a1.881 1.881 0 01-.75-.73c-.173-.32-.26-.69-.26-1.11v-1.5c0-.427.087-.797.26-1.11.18-.313.43-.557.75-.73.327-.173.707-.26 1.14-.26.434 0 .81.087 1.13.26.327.173.577.417.75.73.18.313.27.683.27 1.11v.97h-3.42V81c0 .433.11.767.33 1 .22.227.534.34.94.34.347 0 .627-.06.84-.18a.795.795 0 00.39-.56h.9a1.53 1.53 0 01-.68 1.1c-.386.267-.87.4-1.45.4zm1.27-3.23v-.37c0-.433-.11-.767-.33-1-.213-.233-.526-.35-.94-.35-.406 0-.72.117-.94.35-.22.233-.33.567-.33 1v.29h2.61l-.07.08zm2.646 4.93v-7.3h.9v1.05h.18l-.18.21c0-.42.137-.75.41-.99.28-.247.647-.37 1.1-.37.554 0 .994.183 1.32.55.334.36.5.857.5 1.49v1.61c0 .42-.076.783-.23 1.09a1.636 1.636 0 01-.63.71c-.266.167-.586.25-.96.25-.446 0-.81-.123-1.09-.37s-.42-.577-.42-.99l.18.21h-.2l.02 1.25v1.6h-.9zm2.11-2.48c.38 0 .677-.113.89-.34.22-.227.33-.553.33-.98v-1.5c0-.427-.11-.753-.33-.98-.213-.227-.51-.34-.89-.34-.366 0-.66.117-.88.35-.22.233-.33.557-.33.97V81c0 .413.11.737.33.97.22.233.514.35.88.35zm5.566 2.48V83c-.64 0-1.143-.18-1.51-.54-.366-.36-.55-.853-.55-1.48V79.5c0-.62.184-1.107.55-1.46.374-.36.877-.54 1.51-.54v-1.8h.8v1.8c.64 0 1.144.18 1.51.54.367.353.55.84.55 1.46v1.48c0 .627-.183 1.12-.55 1.48-.366.36-.87.54-1.51.54v1.8h-.8zm.02-2.51v-4.08c-.386 0-.69.113-.91.34-.22.227-.33.543-.33.95v1.48c0 .407.11.727.33.96.22.233.524.35.91.35zm.76 0c.394 0 .697-.117.91-.35.22-.233.33-.553.33-.96V79.5c0-.407-.11-.723-.33-.95-.213-.227-.516-.34-.91-.34v4.08zm5.617.81c-.434 0-.814-.087-1.14-.26a1.881 1.881 0 01-.75-.73c-.174-.32-.26-.69-.26-1.11v-1.5c0-.427.086-.797.26-1.11.18-.313.43-.557.75-.73.326-.173.706-.26 1.14-.26.433 0 .81.087 1.13.26.326.173.576.417.75.73.18.313.27.683.27 1.11v.97h-3.42V81c0 .433.11.767.33 1 .22.227.533.34.94.34.346 0 .626-.06.84-.18a.795.795 0 00.39-.56h.9c-.06.46-.287.827-.68 1.1-.387.267-.87.4-1.45.4zm1.27-3.23v-.37c0-.433-.11-.767-.33-1-.214-.233-.527-.35-.94-.35-.407 0-.72.117-.94.35-.22.233-.33.567-.33 1v.29h2.61l-.07.08zM52.913 83v-5.5h.86v3c0 .193-.007.397-.02.61a8.72 8.72 0 01-.04.61 6.67 6.67 0 01-.05.48l2.22-4.7h1.15V83h-.86v-3c0-.193.003-.397.01-.61.013-.213.03-.417.05-.61.02-.2.036-.363.05-.49L54.063 83h-1.15zm2.1-6.4c-.48 0-.867-.133-1.16-.4-.294-.267-.44-.617-.44-1.05h.71c0 .26.08.47.24.63.16.16.373.24.64.24.273 0 .49-.08.65-.24.166-.16.25-.37.25-.63h.71c0 .433-.147.783-.44 1.05-.294.267-.68.4-1.16.4zm5.976 6.5c-.44 0-.827-.083-1.16-.25a1.801 1.801 0 01-.76-.72c-.18-.32-.27-.697-.27-1.13v-1.5c0-.44.09-.817.27-1.13.18-.313.433-.553.76-.72.333-.167.72-.25 1.16-.25.633 0 1.143.17 1.53.51.386.34.59.803.61 1.39h-.9c-.02-.353-.14-.623-.36-.81-.214-.193-.507-.29-.88-.29-.394 0-.707.113-.94.34-.234.22-.35.537-.35.95V81c0 .413.116.733.35.96.233.227.546.34.94.34.373 0 .666-.097.88-.29.22-.193.34-.463.36-.81h.9c-.02.587-.224 1.05-.61 1.39-.387.34-.897.51-1.53.51zM70.9 83v-5.5h.86v3c0 .193-.007.397-.02.61a8.72 8.72 0 01-.04.61c-.013.187-.03.347-.05.48l2.22-4.7h1.15V83h-.86v-3c0-.193.003-.397.01-.61.013-.213.03-.417.05-.61l.05-.49L72.05 83H70.9zm14.052.1c-.647 0-1.16-.19-1.54-.57-.373-.387-.56-.913-.56-1.58v-2.5c0-.88.22-1.557.66-2.03.44-.48 1.07-.72 1.89-.72h1.4v.9h-1.4c-.54 0-.95.16-1.23.48-.28.313-.42.77-.42 1.37v.65h.14l-.14.2c.007-.393.14-.7.4-.92.26-.22.613-.33 1.06-.33.58 0 1.03.187 1.35.56.327.373.49.887.49 1.54v.8c0 .447-.083.83-.25 1.15-.166.32-.406.567-.72.74-.313.173-.69.26-1.13.26zm0-.8c.387 0 .683-.117.89-.35.207-.233.31-.567.31-1v-.8c0-.433-.103-.767-.31-1-.207-.233-.503-.35-.89-.35-.386 0-.683.117-.89.35-.207.227-.31.56-.31 1v.8c0 .433.103.767.31 1 .207.233.504.35.89.35zm3.646.7v-5.5h.84v2.02h.45c.594 0 1.06.157 1.4.47.347.307.52.73.52 1.27s-.173.967-.52 1.28c-.34.307-.806.46-1.4.46H88.6zm.84-.72h.45c.354 0 .627-.09.82-.27.2-.18.3-.43.3-.75s-.1-.57-.3-.75c-.193-.18-.466-.27-.82-.27h-.45v2.04zm3.02.72v-5.5h.84V83h-.84zm4.506.1a2.56 2.56 0 01-1.16-.25 1.801 1.801 0 01-.76-.72c-.18-.32-.27-.697-.27-1.13v-1.5c0-.44.09-.817.27-1.13.18-.313.434-.553.76-.72a2.56 2.56 0 011.16-.25c.634 0 1.144.17 1.53.51.387.34.59.803.61 1.39h-.9c-.02-.353-.14-.623-.36-.81-.213-.193-.506-.29-.88-.29-.393 0-.706.113-.94.34-.233.22-.35.537-.35.95V81c0 .413.117.733.35.96.234.227.547.34.94.34.374 0 .667-.097.88-.29.22-.193.34-.463.36-.81h.9c-.02.587-.223 1.05-.61 1.39-.386.34-.896.51-1.53.51zm5.526-.1v-4.71h-2v-.79h4.9v.79h-2V83h-.9zm4.367 1.8v-7.3h.9v1.05h.18l-.18.21c0-.42.136-.75.41-.99.28-.247.646-.37 1.1-.37.553 0 .993.183 1.32.55.333.36.5.857.5 1.49v1.61c0 .42-.077.783-.23 1.09a1.64 1.64 0 01-.63.71c-.267.167-.587.25-.96.25-.447 0-.81-.123-1.09-.37s-.42-.577-.42-.99l.18.21h-.2l.02 1.25v1.6h-.9zm2.11-2.48c.38 0 .676-.113.89-.34.22-.227.33-.553.33-.98v-1.5c0-.427-.11-.753-.33-.98-.214-.227-.51-.34-.89-.34-.367 0-.66.117-.88.35-.22.233-.33.557-.33.97V81c0 .413.11.737.33.97.22.233.513.35.88.35zm3.616.68v-5.5h.84v2.02h.45c.593 0 1.06.157 1.4.47.346.307.52.73.52 1.27s-.174.967-.52 1.28c-.34.307-.807.46-1.4.46h-1.29zm.84-.72h.45c.353 0 .626-.09.82-.27.2-.18.3-.43.3-.75s-.1-.57-.3-.75c-.194-.18-.467-.27-.82-.27h-.45v2.04zm3.02.72v-5.5h.84V83h-.84zm2.426 0v-5.5h.86v3c0 .193-.007.397-.02.61a8.72 8.72 0 01-.04.61 6.67 6.67 0 01-.05.48l2.22-4.7h1.15V83h-.86v-3c0-.193.003-.397.01-.61.013-.213.03-.417.05-.61.02-.2.036-.363.05-.49L120.02 83h-1.15zm2.1-6.4c-.48 0-.867-.133-1.16-.4-.294-.267-.44-.617-.44-1.05h.71c0 .26.08.47.24.63.16.16.373.24.64.24.273 0 .49-.08.65-.24.166-.16.25-.37.25-.63h.71c0 .433-.147.783-.44 1.05-.294.267-.68.4-1.16.4zM10.3 97.4v-2.17h.45c.113-.113.23-.337.35-.67.127-.333.193-.757.2-1.27l.06-2.79h3.59v4.73h.7v2.17h-.8V96H11.1v1.4h-.8zm1.4-2.17h2.35V91.3h-1.84l-.04 2.01c-.007.527-.063.953-.17 1.28-.107.327-.207.54-.3.64zm7.296.85c-.44 0-.82-.083-1.14-.25a1.815 1.815 0 01-.75-.72c-.173-.32-.26-.697-.26-1.13v-1.46c0-.44.087-.817.26-1.13.18-.313.43-.553.75-.72.32-.167.7-.25 1.14-.25.44 0 .82.083 1.14.25.32.167.567.407.74.72.18.313.27.687.27 1.12v1.47c0 .433-.09.81-.27 1.13-.173.313-.42.553-.74.72-.32.167-.7.25-1.14.25zm0-.8c.393 0 .7-.11.92-.33.22-.22.33-.543.33-.97v-1.46c0-.427-.11-.75-.33-.97-.22-.22-.527-.33-.92-.33-.387 0-.693.11-.92.33-.22.22-.33.543-.33.97v1.46c0 .427.11.75.33.97.227.22.533.33.92.33zm6.016.82a2.56 2.56 0 01-1.16-.25 1.801 1.801 0 01-.76-.72c-.18-.32-.27-.697-.27-1.13v-1.5c0-.44.09-.817.27-1.13.18-.313.434-.553.76-.72a2.56 2.56 0 011.16-.25c.633 0 1.143.17 1.53.51.387.34.59.803.61 1.39h-.9c-.02-.353-.14-.623-.36-.81-.213-.193-.506-.29-.88-.29-.393 0-.707.113-.94.34-.233.22-.35.537-.35.95V94c0 .413.117.733.35.96.233.227.547.34.94.34.373 0 .667-.097.88-.29.22-.193.34-.463.36-.81h.9c-.02.587-.223 1.05-.61 1.39-.387.34-.897.51-1.53.51zm5.526-.1v-4.71h-2v-.79h4.9v.79h-2V96h-.9zm5.226 1.8l.81-2.14-2.04-5.16h1l1.28 3.4c.047.113.09.25.13.41.04.153.074.283.1.39l.1-.39c.04-.16.08-.297.12-.41l1.2-3.4h.97l-2.71 7.3h-.96zM40.92 96v-5.5h4.12V96h-.9v-4.68h-2.32V96h-.9zm12.023 0v-5.5h.9v2.27h.94l1.6-2.27h1.03l-1.85 2.62 1.88 2.88h-1.05l-1.6-2.45h-.95V96h-.9zm11.962 0v-5.5h2.38c.573 0 1.017.13 1.33.39.313.253.47.61.47 1.07 0 .38-.13.687-.39.92-.26.227-.603.34-1.03.34v-.08c.466 0 .84.117 1.12.35.287.233.43.547.43.94 0 .493-.167.88-.5 1.16-.334.273-.8.41-1.4.41h-2.41zm.88-.79h1.53c.32 0 .567-.07.74-.21.18-.14.27-.337.27-.59 0-.26-.09-.46-.27-.6-.174-.14-.42-.21-.74-.21h-1.53v1.61zm0-2.39h1.5c.28 0 .5-.067.66-.2.167-.133.25-.32.25-.56 0-.24-.08-.427-.24-.56-.16-.14-.383-.21-.67-.21h-1.5v1.53zm6.696 3.28c-.58 0-1.037-.147-1.37-.44-.333-.3-.5-.703-.5-1.21 0-.513.167-.917.5-1.21.333-.293.783-.44 1.35-.44h1.7v-.55c0-.34-.103-.6-.31-.78-.2-.187-.487-.28-.86-.28-.327 0-.6.07-.82.21a.747.747 0 00-.38.55h-.9c.06-.473.283-.85.67-1.13.387-.28.87-.42 1.45-.42.633 0 1.133.163 1.5.49.367.327.55.77.55 1.33V96h-.88v-1.05h-.15l.15-.15c0 .4-.157.717-.47.95-.307.233-.717.35-1.23.35zm.22-.71c.427 0 .777-.107 1.05-.32a.995.995 0 00.41-.82v-.78h-1.68c-.3 0-.537.083-.71.25-.173.167-.26.393-.26.68 0 .307.103.55.31.73.213.173.507.26.88.26zm3.916.61l-.02-5.5h.84v4.82h1.17V90.5h.72v4.82h1.16V90.5h.83V96h-4.7zm6.276 0v-5.5h.86v3c0 .193-.007.397-.02.61a8.72 8.72 0 01-.04.61c-.013.187-.03.347-.05.48l2.22-4.7h1.15V96h-.86v-3c0-.193.003-.397.01-.61.014-.213.03-.417.05-.61l.05-.49-2.22 4.71h-1.15zm5.816 0v-5.5h1.22l.72 2.11c.074.213.14.427.2.64.06.207.104.367.13.48.027-.113.067-.273.12-.48.06-.213.124-.43.19-.65l.68-2.1h1.22V96h-.87v-.85c0-.3.004-.627.01-.98l.02-1.07.04-1.02c.014-.327.024-.613.03-.86l-.98 3.13h-.95l-.99-3.11c.014.3.024.673.03 1.12.014.447.024.913.03 1.4.014.487.02.95.02 1.39V96h-.87zm13.012 1.8l.81-2.14-2.04-5.16h1l1.28 3.4c.047.113.09.25.13.41.04.153.074.283.1.39l.1-.39c.04-.16.08-.297.12-.41l1.2-3.4h.97l-2.71 7.3h-.96zm7.237-1.7a2.56 2.56 0 01-1.16-.25 1.8 1.8 0 01-.76-.72c-.18-.32-.27-.697-.27-1.13v-1.5c0-.44.09-.817.27-1.13a1.8 1.8 0 01.76-.72 2.56 2.56 0 011.16-.25c.633 0 1.143.17 1.53.51.386.34.59.803.61 1.39h-.9c-.02-.353-.14-.623-.36-.81-.214-.193-.507-.29-.88-.29-.394 0-.707.113-.94.34-.234.22-.35.537-.35.95V94c0 .413.116.733.35.96.233.227.546.34.94.34.373 0 .666-.097.88-.29.22-.193.34-.463.36-.81h.9c-.02.587-.224 1.05-.61 1.39-.387.34-.897.51-1.53.51zm3.226-.03v-.84h.18c.306 0 .52-.12.64-.36.126-.24.193-.67.2-1.29l.06-3.08h3.73V96h-.9v-4.68h-1.94l-.05 2.3c-.014.58-.08 1.05-.2 1.41-.114.36-.294.623-.54.79-.24.167-.557.25-.95.25h-.23zm7.526 1.73l.81-2.14-2.04-5.16h1l1.28 3.4c.046.113.09.25.13.41l.1.39c.026-.107.06-.237.1-.39.04-.16.08-.297.12-.41l1.2-3.4h.97l-2.71 7.3h-.96zm5.516-1.8v-5.5h3.95v.82h-3.05V96h-.9zm7.216.1c-.58 0-1.037-.147-1.37-.44-.333-.3-.5-.703-.5-1.21 0-.513.167-.917.5-1.21.333-.293.783-.44 1.35-.44h1.7v-.55c0-.34-.103-.6-.31-.78-.2-.187-.487-.28-.86-.28-.327 0-.6.07-.82.21a.746.746 0 00-.38.55h-.9c.06-.473.283-.85.67-1.13.387-.28.87-.42 1.45-.42.633 0 1.133.163 1.5.49.367.327.55.77.55 1.33V96h-.88v-1.05h-.15l.15-.15c0 .4-.157.717-.47.95-.307.233-.717.35-1.23.35zm.22-.71c.427 0 .777-.107 1.05-.32a.996.996 0 00.41-.82v-.78h-1.68c-.3 0-.537.083-.71.25-.173.167-.26.393-.26.68 0 .307.103.55.31.73.213.173.507.26.88.26zm4.016.61v-5.5h1.22l.72 2.11c.073.213.14.427.2.64.06.207.103.367.13.48.027-.113.067-.273.12-.48.06-.213.123-.43.19-.65l.68-2.1h1.22V96h-.87v-.85c0-.3.003-.627.01-.98l.02-1.07c.013-.36.027-.7.04-1.02.013-.327.023-.613.03-.86l-.98 3.13h-.95l-.99-3.11c.013.3.023.673.03 1.12.013.447.023.913.03 1.4.013.487.02.95.02 1.39V96h-.87zM10.94 109v-5.5h4.12v5.5h-.9v-4.68h-2.32V109h-.9zm8.056.08c-.44 0-.82-.083-1.14-.25a1.82 1.82 0 01-.75-.72c-.173-.32-.26-.697-.26-1.13v-1.46c0-.44.087-.817.26-1.13.18-.313.43-.553.75-.72.32-.167.7-.25 1.14-.25.44 0 .82.083 1.14.25.32.167.567.407.74.72.18.313.27.687.27 1.12v1.47c0 .433-.09.81-.27 1.13-.173.313-.42.553-.74.72-.32.167-.7.25-1.14.25zm0-.8c.393 0 .7-.11.92-.33.22-.22.33-.543.33-.97v-1.46c0-.427-.11-.75-.33-.97-.22-.22-.527-.33-.92-.33-.387 0-.693.11-.92.33-.22.22-.33.543-.33.97v1.46c0 .427.11.75.33.97.227.22.533.33.92.33zm3.936.72v-5.5h2.38c.573 0 1.017.13 1.33.39.314.253.47.61.47 1.07 0 .38-.13.687-.39.92-.26.227-.603.34-1.03.34v-.08c.467 0 .84.117 1.12.35.287.233.43.547.43.94 0 .493-.166.88-.5 1.16-.333.273-.8.41-1.4.41h-2.41zm.88-.79h1.53c.32 0 .567-.07.74-.21.18-.14.27-.337.27-.59 0-.26-.09-.46-.27-.6-.173-.14-.42-.21-.74-.21h-1.53v1.61zm0-2.39h1.5c.28 0 .5-.067.66-.2.167-.133.25-.32.25-.56 0-.24-.08-.427-.24-.56-.16-.14-.383-.21-.67-.21h-1.5v1.53zm4.826 3.18v-5.5h.84v2.02h.45c.594 0 1.06.157 1.4.47.347.307.52.73.52 1.27s-.173.967-.52 1.28c-.34.307-.806.46-1.4.46h-1.29zm.84-.72h.45c.354 0 .627-.09.82-.27.2-.18.3-.43.3-.75s-.1-.57-.3-.75c-.193-.18-.466-.27-.82-.27h-.45v2.04zm3.02.72v-5.5h.84v5.5h-.84zm2.146 0l-.02-5.5h.84v4.82h1.17v-4.82h.72v4.82h1.16v-4.82h.83v5.5h-4.7zm7.857.1c-.58 0-1.037-.147-1.37-.44-.334-.3-.5-.703-.5-1.21 0-.513.166-.917.5-1.21.333-.293.783-.44 1.35-.44h1.7v-.55c0-.34-.104-.6-.31-.78-.2-.187-.487-.28-.86-.28-.327 0-.6.07-.82.21a.747.747 0 00-.38.55h-.9c.06-.473.283-.85.67-1.13.386-.28.87-.42 1.45-.42.633 0 1.133.163 1.5.49.366.327.55.77.55 1.33V109h-.88v-1.05h-.15l.15-.15c0 .4-.157.717-.47.95-.307.233-.717.35-1.23.35zm.22-.71c.426 0 .776-.107 1.05-.32a.996.996 0 00.41-.82v-.78H42.5c-.3 0-.537.083-.71.25-.174.167-.26.393-.26.68 0 .307.103.55.31.73.213.173.506.26.88.26zm7.116.71c-.46 0-.83-.157-1.11-.47-.28-.313-.42-.723-.42-1.23v-.83h-.88V109h-.83v-5.5h.83v2.35h.88v-.75c0-.513.136-.923.41-1.23.28-.313.653-.47 1.12-.47.493 0 .89.157 1.19.47.3.307.45.717.45 1.23v2.3c0 .507-.15.917-.45 1.23-.3.313-.697.47-1.19.47zm0-.7c.253 0 .45-.087.59-.26.146-.18.22-.427.22-.74v-2.3c0-.313-.074-.557-.22-.73-.14-.18-.337-.27-.59-.27-.247 0-.44.09-.58.27-.14.173-.21.417-.21.73v2.3c0 .313.07.56.21.74.14.173.333.26.58.26zm4.686.6v-4.71h-2v-.79h4.9v.79h-2V109h-.9zM11.78 123.8l.81-2.14-2.04-5.16h1l1.28 3.4c.047.113.09.25.13.41l.1.39.1-.39c.04-.16.08-.297.12-.41l1.2-3.4h.97l-2.71 7.3h-.96zm4.516-.4v-2.17h.45c.113-.113.23-.337.35-.67.127-.333.193-.757.2-1.27l.06-2.79h3.59v4.73h.7v2.17h-.8V122h-3.75v1.4h-.8zm1.4-2.17h2.35v-3.93h-1.84l-.04 2.01c-.007.527-.063.953-.17 1.28-.107.327-.207.54-.3.64zm7.296.85c-.44 0-.82-.083-1.14-.25a1.82 1.82 0 01-.75-.72c-.173-.32-.26-.697-.26-1.13v-1.46c0-.44.087-.817.26-1.13.18-.313.43-.553.75-.72.32-.167.7-.25 1.14-.25.44 0 .82.083 1.14.25.32.167.567.407.74.72.18.313.27.687.27 1.12v1.47c0 .433-.09.81-.27 1.13-.173.313-.42.553-.74.72-.32.167-.7.25-1.14.25zm0-.8c.393 0 .7-.11.92-.33.22-.22.33-.543.33-.97v-1.46c0-.427-.11-.75-.33-.97-.22-.22-.526-.33-.92-.33-.387 0-.693.11-.92.33-.22.22-.33.543-.33.97v1.46c0 .427.11.75.33.97.227.22.534.33.92.33zm3.936.72v-5.5h2.38c.574 0 1.017.13 1.33.39.314.253.47.61.47 1.07 0 .38-.13.687-.39.92-.26.227-.603.34-1.03.34v-.08c.467 0 .84.117 1.12.35.287.233.43.547.43.94 0 .493-.166.88-.5 1.16-.333.273-.8.41-1.4.41h-2.41zm.88-.79h1.53c.32 0 .567-.07.74-.21.18-.14.27-.337.27-.59 0-.26-.09-.46-.27-.6-.173-.14-.42-.21-.74-.21h-1.53v1.61zm0-2.39h1.5c.28 0 .5-.067.66-.2.167-.133.25-.32.25-.56 0-.24-.08-.427-.24-.56-.16-.14-.383-.21-.67-.21h-1.5v1.53zm4.426 3.25v-.84h.18c.307 0 .52-.12.64-.36.127-.24.194-.67.2-1.29l.06-3.08h3.73v5.5h-.9v-4.68h-1.94l-.05 2.3c-.013.58-.08 1.05-.2 1.41-.113.36-.293.623-.54.79-.24.167-.556.25-.95.25h-.23zm8.746.03a2.4 2.4 0 01-1.14-.26 1.881 1.881 0 01-.75-.73c-.173-.32-.26-.69-.26-1.11v-1.5c0-.427.087-.797.26-1.11.18-.313.43-.557.75-.73a2.4 2.4 0 011.14-.26c.434 0 .81.087 1.13.26.327.173.577.417.75.73.18.313.27.683.27 1.11v.97h-3.42v.53c0 .433.11.767.33 1 .22.227.534.34.94.34.347 0 .627-.06.84-.18a.795.795 0 00.39-.56h.9a1.53 1.53 0 01-.68 1.1c-.386.267-.87.4-1.45.4zm1.27-3.23v-.37c0-.433-.11-.767-.33-1-.213-.233-.526-.35-.94-.35-.406 0-.72.117-.94.35-.22.233-.33.567-.33 1v.29h2.61l-.07.08zm4.277 3.13v-4.71h-2v-.79h4.9v.79h-2V122h-.9zm4.386 0v-5.5h2.38c.573 0 1.016.13 1.33.39.313.253.47.61.47 1.07 0 .38-.13.687-.39.92-.26.227-.604.34-1.03.34v-.08c.466 0 .84.117 1.12.35.286.233.43.547.43.94 0 .493-.167.88-.5 1.16-.334.273-.8.41-1.4.41h-2.41zm.88-.79h1.53c.32 0 .566-.07.74-.21.18-.14.27-.337.27-.59 0-.26-.09-.46-.27-.6-.174-.14-.42-.21-.74-.21h-1.53v1.61zm0-2.39h1.5c.28 0 .5-.067.66-.2.166-.133.25-.32.25-.56 0-.24-.08-.427-.24-.56-.16-.14-.384-.21-.67-.21h-1.5v1.53zm7.176 3.26c-.44 0-.82-.083-1.14-.25a1.82 1.82 0 01-.75-.72c-.174-.32-.26-.697-.26-1.13v-1.46c0-.44.086-.817.26-1.13.18-.313.43-.553.75-.72.32-.167.7-.25 1.14-.25.44 0 .82.083 1.14.25.32.167.566.407.74.72.18.313.27.687.27 1.12v1.47c0 .433-.09.81-.27 1.13a1.76 1.76 0 01-.74.72c-.32.167-.7.25-1.14.25zm0-.8c.393 0 .7-.11.92-.33.22-.22.33-.543.33-.97v-1.46c0-.427-.11-.75-.33-.97-.22-.22-.527-.33-.92-.33-.387 0-.694.11-.92.33-.22.22-.33.543-.33.97v1.46c0 .427.11.75.33.97.226.22.533.33.92.33zm3.916 2.52v-7.3h.9v1.05h.18l-.18.21c0-.42.136-.75.41-.99.28-.247.647-.37 1.1-.37.553 0 .993.183 1.32.55.333.36.5.857.5 1.49v1.61c0 .42-.077.783-.23 1.09a1.634 1.634 0 01-.63.71c-.267.167-.587.25-.96.25-.447 0-.81-.123-1.09-.37s-.42-.577-.42-.99l.18.21h-.2l.02 1.25v1.6h-.9zm2.11-2.48c.38 0 .676-.113.89-.34.22-.227.33-.553.33-.98v-1.5c0-.427-.11-.753-.33-.98-.214-.227-.51-.34-.89-.34-.367 0-.66.117-.88.35-.22.233-.33.557-.33.97v1.5c0 .413.11.737.33.97.22.233.513.35.88.35zm5.966.78c-.433 0-.813-.087-1.14-.26a1.881 1.881 0 01-.75-.73c-.173-.32-.26-.69-.26-1.11v-1.5c0-.427.087-.797.26-1.11.18-.313.43-.557.75-.73.327-.173.707-.26 1.14-.26.433 0 .81.087 1.13.26a1.8 1.8 0 01.75.73c.18.313.27.683.27 1.11v.97h-3.42v.53c0 .433.11.767.33 1 .22.227.533.34.94.34.347 0 .627-.06.84-.18a.794.794 0 00.39-.56h.9c-.06.46-.287.827-.68 1.1-.387.267-.87.4-1.45.4zm1.27-3.23v-.37c0-.433-.11-.767-.33-1-.213-.233-.527-.35-.94-.35-.407 0-.72.117-.94.35-.22.233-.33.567-.33 1v.29h2.61l-.07.08zm2.666 3.13v-5.5h.9v2.29h2.32v-2.29h.9v5.5h-.9v-2.39h-2.32V122h-.9zm5.996 0v-5.5h.9v2.29h2.32v-2.29h.9v5.5h-.9v-2.39h-2.32V122h-.9zm8.056.08c-.44 0-.82-.083-1.14-.25a1.82 1.82 0 01-.75-.72c-.173-.32-.26-.697-.26-1.13v-1.46c0-.44.087-.817.26-1.13.18-.313.43-.553.75-.72.32-.167.7-.25 1.14-.25.44 0 .82.083 1.14.25.32.167.567.407.74.72.18.313.27.687.27 1.12v1.47c0 .433-.09.81-.27 1.13-.173.313-.42.553-.74.72-.32.167-.7.25-1.14.25zm0-.8c.394 0 .7-.11.92-.33.22-.22.33-.543.33-.97v-1.46c0-.427-.11-.75-.33-.97-.22-.22-.526-.33-.92-.33-.386 0-.693.11-.92.33-.22.22-.33.543-.33.97v1.46c0 .427.11.75.33.97.227.22.534.33.92.33zm6.016.82a2.56 2.56 0 01-1.16-.25 1.805 1.805 0 01-.76-.72c-.18-.32-.27-.697-.27-1.13v-1.5c0-.44.09-.817.27-1.13.18-.313.434-.553.76-.72a2.56 2.56 0 011.16-.25c.634 0 1.144.17 1.53.51.387.34.59.803.61 1.39h-.9c-.02-.353-.14-.623-.36-.81-.213-.193-.506-.29-.88-.29-.393 0-.706.113-.94.34-.233.22-.35.537-.35.95V120c0 .413.117.733.35.96.234.227.547.34.94.34.374 0 .667-.097.88-.29.22-.193.34-.463.36-.81h.9c-.02.587-.223 1.05-.61 1.39-.386.34-.896.51-1.53.51zm5.526-.1v-4.71h-2v-.79h4.9v.79h-2V122h-.9zm4.427 0v-5.5h.9v2.02h1.62c.62 0 1.106.157 1.46.47.36.307.54.73.54 1.27 0 .533-.18.957-.54 1.27-.36.313-.847.47-1.46.47h-2.52zm.9-.82h1.62c.346 0 .61-.077.79-.23.186-.16.28-.39.28-.69 0-.3-.094-.527-.28-.68-.18-.16-.444-.24-.79-.24h-1.62v1.84zM10.97 135v-5.5h.9v2.27h.94l1.6-2.27h1.03l-1.85 2.62 1.88 2.88h-1.05l-1.6-2.45h-.95V135h-.9zm5.276.07v-.84h.18c.307 0 .52-.12.64-.36.127-.24.193-.67.2-1.29l.06-3.08h3.73v5.5h-.9v-4.68h-1.94l-.05 2.3c-.013.58-.08 1.05-.2 1.41-.113.36-.293.623-.54.79-.24.167-.557.25-.95.25h-.23zm6.686-.07v-5.5h.86v3c0 .193-.007.397-.02.61-.006.213-.02.417-.04.61-.013.187-.03.347-.05.48l2.22-4.7h1.15v5.5h-.86v-3c0-.193.003-.397.01-.61.013-.213.03-.417.05-.61l.05-.49-2.22 4.71h-1.15zm8.056.1a2.4 2.4 0 01-1.14-.26 1.881 1.881 0 01-.75-.73c-.173-.32-.26-.69-.26-1.11v-1.5c0-.427.087-.797.26-1.11.18-.313.43-.557.75-.73a2.4 2.4 0 011.14-.26c.434 0 .81.087 1.13.26.327.173.577.417.75.73.18.313.27.683.27 1.11v.97h-3.42v.53c0 .433.11.767.33 1 .22.227.534.34.94.34.347 0 .627-.06.84-.18a.795.795 0 00.39-.56h.9a1.53 1.53 0 01-.68 1.1c-.386.267-.87.4-1.45.4zm1.27-3.23v-.37c0-.433-.11-.767-.33-1-.213-.233-.526-.35-.94-.35-.406 0-.72.117-.94.35-.22.233-.33.567-.33 1v.29h2.61l-.07.08zm2.666 3.13v-5.5h.9v2.29h2.32v-2.29h.9v5.5h-.9v-2.39h-2.32V135h-.9zm7.607 0v-4.71h-2v-.79h4.9v.79h-2V135h-.9zm6.446.08c-.44 0-.82-.083-1.14-.25a1.82 1.82 0 01-.75-.72c-.174-.32-.26-.697-.26-1.13v-1.46c0-.44.086-.817.26-1.13.18-.313.43-.553.75-.72.32-.167.7-.25 1.14-.25.44 0 .82.083 1.14.25.32.167.566.407.74.72.18.313.27.687.27 1.12v1.47c0 .433-.09.81-.27 1.13a1.76 1.76 0 01-.74.72c-.32.167-.7.25-1.14.25zm0-.8c.393 0 .7-.11.92-.33.22-.22.33-.543.33-.97v-1.46c0-.427-.11-.75-.33-.97-.22-.22-.527-.33-.92-.33-.387 0-.694.11-.92.33-.22.22-.33.543-.33.97v1.46c0 .427.11.75.33.97.226.22.533.33.92.33zm3.936.72v-5.5h2.38c.573 0 1.016.13 1.33.39.313.253.47.61.47 1.07 0 .38-.13.687-.39.92-.26.227-.604.34-1.03.34v-.08c.466 0 .84.117 1.12.35.286.233.43.547.43.94 0 .493-.167.88-.5 1.16-.334.273-.8.41-1.4.41h-2.41zm.88-.79h1.53c.32 0 .566-.07.74-.21.18-.14.27-.337.27-.59 0-.26-.09-.46-.27-.6-.174-.14-.42-.21-.74-.21h-1.53v1.61zm0-2.39h1.5c.28 0 .5-.067.66-.2.166-.133.25-.32.25-.56 0-.24-.08-.427-.24-.56-.16-.14-.384-.21-.67-.21h-1.5v1.53z" fill="#000"/><path d="M48.61 31l.75-1.85-2.11-5.45h1.62l.96 2.97c.053.16.1.343.14.55.047.207.08.377.1.51.013-.133.037-.303.07-.51a5.14 5.14 0 01.13-.55l.91-2.97h1.57L50.18 31h-1.57zm4.606 1.4v-2.67h.31c.113-.113.23-.31.35-.59.127-.287.193-.633.2-1.04l.05-2.6h4.05v4.23h.6v2.67h-1.4V31h-2.76v1.4h-1.4zm1.8-2.67h1.76v-2.94h-1.27l-.03 1.3a3.139 3.139 0 01-.17 1.02c-.1.287-.197.493-.29.62zm6.976 1.37c-.486 0-.91-.09-1.27-.27a2.087 2.087 0 01-.84-.77 2.27 2.27 0 01-.29-1.16v-1.3c0-.44.097-.823.29-1.15a2 2 0 01.84-.77c.36-.187.783-.28 1.27-.28.494 0 .917.093 1.27.28.36.18.637.437.83.77.2.327.3.71.3 1.15v1.3c0 .44-.1.827-.3 1.16-.193.327-.47.583-.83.77-.353.18-.776.27-1.27.27zm0-1.3c.294 0 .517-.077.67-.23.154-.16.23-.383.23-.67v-1.3c0-.293-.077-.517-.23-.67-.153-.153-.377-.23-.67-.23-.286 0-.51.077-.67.23-.153.153-.23.377-.23.67v1.3c0 .287.077.51.23.67.16.153.383.23.67.23zm5.996 1.3c-.733-.013-1.316-.213-1.75-.6-.433-.393-.65-.927-.65-1.6v-2.45c0-.88.247-1.557.74-2.03.494-.48 1.197-.72 2.11-.72h1.65v1.45h-1.65c-.44 0-.776.11-1.01.33-.226.22-.34.543-.34.97v.7h.14l-.12.14c-.006-.373.114-.67.36-.89.254-.227.614-.34 1.08-.34.58 0 1.03.19 1.35.57.327.38.49.907.49 1.58v.69c0 .447-.1.84-.3 1.18-.193.333-.47.59-.83.77-.353.173-.776.257-1.27.25zm0-1.3c.294 0 .517-.077.67-.23.154-.16.23-.383.23-.67v-.69c0-.293-.076-.517-.23-.67-.153-.153-.376-.23-.67-.23-.286 0-.51.077-.67.23-.153.153-.23.377-.23.67v.69c0 .287.077.51.23.67.16.153.384.23.67.23zm6.026 1.3c-.486 0-.913-.09-1.28-.27a2.073 2.073 0 01-.85-.77c-.2-.333-.3-.72-.3-1.16v-1.3c0-.447.1-.833.3-1.16.2-.327.484-.58.85-.76.367-.187.794-.28 1.28-.28.727 0 1.307.183 1.74.55.434.367.664.867.69 1.5h-1.5a.754.754 0 00-.28-.55c-.16-.133-.376-.2-.65-.2-.3 0-.53.077-.69.23-.16.153-.24.377-.24.67v1.3c0 .287.08.51.24.67.16.153.39.23.69.23.274 0 .49-.063.65-.19a.763.763 0 00.28-.56h1.5c-.026.633-.256 1.133-.69 1.5-.433.367-1.013.55-1.74.55zm5.217-.1v-4.1h-1.8v-1.4h5.1v1.4h-1.8V31h-1.5zm4.396 0v-5.5h2.49c.673 0 1.206.137 1.6.41.4.267.6.63.6 1.09 0 .367-.15.663-.45.89-.3.22-.697.33-1.19.33v-.1c.54 0 .97.12 1.29.36.326.24.49.557.49.95 0 .487-.2.87-.6 1.15-.394.28-.93.42-1.61.42h-2.62zm1.47-1.06h1.08c.246 0 .443-.057.59-.17a.56.56 0 00.23-.46.58.58 0 00-.23-.48c-.147-.12-.344-.18-.59-.18h-1.08v1.29zm0-2.17h1.03c.226 0 .406-.053.54-.16a.55.55 0 00.2-.44.561.561 0 00-.2-.45c-.134-.113-.314-.17-.54-.17h-1.03v1.22zm6.876 3.33c-.487 0-.91-.09-1.27-.27a2.087 2.087 0 01-.84-.77 2.27 2.27 0 01-.29-1.16v-1.3c0-.44.096-.823.29-1.15a2 2 0 01.84-.77c.36-.187.783-.28 1.27-.28.493 0 .916.093 1.27.28.36.18.636.437.83.77.2.327.3.71.3 1.15v1.3c0 .44-.1.827-.3 1.16-.194.327-.47.583-.83.77-.354.18-.777.27-1.27.27zm0-1.3c.293 0 .516-.077.67-.23.153-.16.23-.383.23-.67v-1.3c0-.293-.077-.517-.23-.67-.154-.153-.377-.23-.67-.23-.287 0-.51.077-.67.23-.154.153-.23.377-.23.67v1.3c0 .287.076.51.23.67.16.153.383.23.67.23z" fill="#fff"/><defs><linearGradient id="paint0_linear_2004_85" x1="0" y1="90.013" x2="223.91" y2="90.013" gradientUnits="userSpaceOnUse"><stop stop-color="#F1FFF7"/><stop offset="1" stop-color="#546A65"/></linearGradient><linearGradient id="paint1_linear_2004_85" x1="11.785" y1="10.802" x2="188.944" y2="149.868" gradientUnits="userSpaceOnUse"><stop stop-color="#475E59" stop-opacity=".7"/><stop offset="1" stop-color="#fff" stop-opacity=".7"/></linearGradient><linearGradient id="paint2_linear_2004_85" x1="0" y1="90.013" x2="223.91" y2="90.013" gradientUnits="userSpaceOnUse"><stop stop-color="#F1FFF7"/><stop offset="1" stop-color="#546A65"/></linearGradient><linearGradient id="paint3_linear_2004_85" x1="11.785" y1="10.802" x2="188.944" y2="149.868" gradientUnits="userSpaceOnUse"><stop stop-color="#475E59" stop-opacity=".7"/><stop offset="1" stop-color="#fff" stop-opacity=".7"/></linearGradient><linearGradient id="paint4_linear_2004_85" x1="0" y1="74.157" x2="223.615" y2="74.157" gradientUnits="userSpaceOnUse"><stop stop-color="#F1FFF7"/><stop offset="1" stop-color="#546A65"/></linearGradient><linearGradient id="paint5_linear_2004_85" x1="11.769" y1="8.899" x2="161.835" y2="151.696" gradientUnits="userSpaceOnUse"><stop stop-color="#475E59" stop-opacity=".7"/><stop offset="1" stop-color="#fff" stop-opacity=".7"/></linearGradient><filter id="filter0_f_2004_85" x="-18.273" y="161.227" width="113.545" height="79.727" filterUnits="userSpaceOnUse" color-interpolation-filters="sRGB"><feFlood flood-opacity="0" result="BackgroundImageFix"/><feBlend in="SourceGraphic" in2="BackgroundImageFix" result="shape"/><feGaussianBlur stdDeviation="2" result="effect1_foregroundBlur_2004_85"/></filter></defs></svg>