<svg width="154" height="214" viewBox="0 0 154 214" fill="none" xmlns="http://www.w3.org/2000/svg">
<rect x="0.420778" y="0.420778" width="152.36" height="212.79" rx="19.5792" fill="url(#paint0_linear_341_3378)" fill-opacity="0.53" stroke="url(#paint1_linear_341_3378)" stroke-width="0.841557"/>
<mask id="mask0_341_3378" style="mask-type:alpha" maskUnits="userSpaceOnUse" x="0" y="0" width="154" height="214">
<rect x="0.420778" y="0.420778" width="152.36" height="212.79" rx="19.5792" fill="url(#paint2_linear_341_3378)" fill-opacity="0.53" stroke="url(#paint3_linear_341_3378)" stroke-width="0.841557"/>
</mask>
<g mask="url(#mask0_341_3378)">
<g filter="url(#filter0_f_341_3378)">
<path d="M10 236.955C4.86364 236.955 0.488637 235.557 -3.125 232.761C-6.73864 229.943 -9.5 225.864 -11.4091 220.523C-13.3182 215.159 -14.2727 208.682 -14.2727 201.091C-14.2727 193.545 -13.3182 187.102 -11.4091 181.761C-9.47727 176.398 -6.70455 172.307 -3.09091 169.489C0.545455 166.648 4.90909 165.227 10 165.227C15.0909 165.227 19.4432 166.648 23.0568 169.489C26.6932 172.307 29.4659 176.398 31.375 181.761C33.3068 187.102 34.2727 193.545 34.2727 201.091C34.2727 208.682 33.3182 215.159 31.4091 220.523C29.5 225.864 26.7386 229.943 23.125 232.761C19.5114 235.557 15.1364 236.955 10 236.955ZM10 229.455C15.0909 229.455 19.0455 227 21.8636 222.091C24.6818 217.182 26.0909 210.182 26.0909 201.091C26.0909 195.045 25.4432 189.898 24.1477 185.648C22.875 181.398 21.0341 178.159 18.625 175.932C16.2386 173.705 13.3636 172.591 10 172.591C4.95455 172.591 1.01136 175.08 -1.82954 180.057C-4.67045 185.011 -6.09091 192.023 -6.09091 201.091C-6.09091 207.136 -5.45454 212.273 -4.18182 216.5C-2.90909 220.727 -1.07955 223.943 1.30682 226.148C3.71591 228.352 6.61364 229.455 10 229.455ZM47.2273 236V229.864L70.2727 204.636C72.9773 201.682 75.2045 199.114 76.9545 196.932C78.7045 194.727 80 192.659 80.8409 190.727C81.7045 188.773 82.1364 186.727 82.1364 184.591C82.1364 182.136 81.5455 180.011 80.3636 178.216C79.2045 176.42 77.6136 175.034 75.5909 174.057C73.5682 173.08 71.2955 172.591 68.7727 172.591C66.0909 172.591 63.75 173.148 61.75 174.261C59.7727 175.352 58.2386 176.886 57.1477 178.864C56.0795 180.841 55.5455 183.159 55.5455 185.818H47.5C47.5 181.727 48.4432 178.136 50.3295 175.045C52.2159 171.955 54.7841 169.545 58.0341 167.818C61.3068 166.091 64.9773 165.227 69.0455 165.227C73.1364 165.227 76.7614 166.091 79.9205 167.818C83.0795 169.545 85.5568 171.875 87.3523 174.807C89.1477 177.739 90.0455 181 90.0455 184.591C90.0455 187.159 89.5795 189.67 88.6477 192.125C87.7386 194.557 86.1477 197.273 83.875 200.273C81.625 203.25 78.5 206.886 74.5 211.182L58.8182 227.955V228.5H91.2727V236H47.2273Z" fill="#CCEC60"/>
</g>
</g>
<mask id="mask1_341_3378" style="mask-type:alpha" maskUnits="userSpaceOnUse" x="0" y="0" width="153" height="176">
<rect x="0.494382" y="0.494382" width="152.011" height="175.011" rx="19.5056" fill="url(#paint4_linear_341_3378)" fill-opacity="0.53" stroke="url(#paint5_linear_341_3378)" stroke-width="0.988764"/>
</mask>
<g mask="url(#mask1_341_3378)">
<rect width="153.038" height="52" fill="#C9D9CD"/>
</g>
<path d="M10.93 70V62.7H13C13.6667 62.7 14.1867 62.8667 14.56 63.2C14.94 63.5333 15.13 63.9967 15.13 64.59C15.13 64.9233 15.06 65.2133 14.92 65.46C14.78 65.7067 14.58 65.8967 14.32 66.03C14.0667 66.1633 13.76 66.2267 13.4 66.22V66.07C13.7867 66.0633 14.12 66.1367 14.4 66.29C14.6867 66.4433 14.9067 66.6633 15.06 66.95C15.22 67.2367 15.3 67.5767 15.3 67.97C15.3 68.3833 15.2133 68.7433 15.04 69.05C14.8667 69.3567 14.62 69.5933 14.3 69.76C13.98 69.92 13.5967 70 13.15 70H10.93ZM11.81 69.19H13.05C13.47 69.19 13.8 69.08 14.04 68.86C14.2867 68.6333 14.41 68.3267 14.41 67.94C14.41 67.54 14.2867 67.2167 14.04 66.97C13.8 66.7167 13.47 66.59 13.05 66.59H11.81V69.19ZM11.81 65.81H12.99C13.3767 65.81 13.68 65.7067 13.9 65.5C14.1267 65.2933 14.24 65.0133 14.24 64.66C14.24 64.3067 14.13 64.0267 13.91 63.82C13.69 63.6133 13.3867 63.51 13 63.51H11.81V65.81ZM18.9961 70.08C18.5561 70.08 18.1761 69.9967 17.8561 69.83C17.5361 69.6633 17.2861 69.4233 17.1061 69.11C16.9328 68.79 16.8461 68.4133 16.8461 67.98V66.52C16.8461 66.08 16.9328 65.7033 17.1061 65.39C17.2861 65.0767 17.5361 64.8367 17.8561 64.67C18.1761 64.5033 18.5561 64.42 18.9961 64.42C19.4361 64.42 19.8161 64.5033 20.1361 64.67C20.4561 64.8367 20.7028 65.0767 20.8761 65.39C21.0561 65.7033 21.1461 66.0767 21.1461 66.51V67.98C21.1461 68.4133 21.0561 68.79 20.8761 69.11C20.7028 69.4233 20.4561 69.6633 20.1361 69.83C19.8161 69.9967 19.4361 70.08 18.9961 70.08ZM18.9961 69.28C19.3894 69.28 19.6961 69.17 19.9161 68.95C20.1361 68.73 20.2461 68.4067 20.2461 67.98V66.52C20.2461 66.0933 20.1361 65.77 19.9161 65.55C19.6961 65.33 19.3894 65.22 18.9961 65.22C18.6094 65.22 18.3028 65.33 18.0761 65.55C17.8561 65.77 17.7461 66.0933 17.7461 66.52V67.98C17.7461 68.4067 17.8561 68.73 18.0761 68.95C18.3028 69.17 18.6094 69.28 18.9961 69.28ZM24.7322 70.07C24.1522 70.07 23.6755 69.9467 23.3022 69.7C22.9355 69.4533 22.7155 69.12 22.6422 68.7H23.5922C23.6389 68.8667 23.7622 69.0033 23.9622 69.11C24.1689 69.2167 24.4255 69.27 24.7322 69.27H25.2022C25.5289 69.27 25.7822 69.1933 25.9622 69.04C26.1489 68.8867 26.2422 68.6867 26.2422 68.44C26.2422 68.1733 26.1522 67.9633 25.9722 67.81C25.7989 67.6567 25.5422 67.58 25.2022 67.58H23.9922V66.8H25.1722C25.4789 66.8 25.7122 66.7267 25.8722 66.58C26.0322 66.4333 26.1122 66.24 26.1122 66C26.1122 65.8333 26.0755 65.6933 26.0022 65.58C25.9355 65.4667 25.8322 65.38 25.6922 65.32C25.5522 65.26 25.3822 65.23 25.1822 65.23H24.6822C24.4155 65.23 24.1855 65.29 23.9922 65.41C23.7989 65.53 23.6822 65.6767 23.6422 65.85H22.6922C22.7589 65.4367 22.9755 65.0967 23.3422 64.83C23.7089 64.5633 24.1555 64.43 24.6822 64.43H25.1822C25.5755 64.43 25.9122 64.4933 26.1922 64.62C26.4722 64.74 26.6855 64.9133 26.8322 65.14C26.9855 65.3667 27.0622 65.6367 27.0622 65.95C27.0622 66.2767 26.9555 66.5467 26.7422 66.76C26.5289 66.9667 26.2289 67.0833 25.8422 67.11V67.15C26.3155 67.1833 26.6589 67.31 26.8722 67.53C27.0855 67.75 27.1922 68.0667 27.1922 68.48C27.1922 68.9667 27.0122 69.3533 26.6522 69.64C26.2922 69.9267 25.8089 70.07 25.2022 70.07H24.7322ZM28.7483 70V64.5H29.9683L30.6883 66.61C30.7616 66.8233 30.8283 67.0367 30.8883 67.25C30.9483 67.4567 30.9916 67.6167 31.0183 67.73C31.0449 67.6167 31.0849 67.4567 31.1383 67.25C31.1983 67.0367 31.2616 66.82 31.3283 66.6L32.0083 64.5H33.2283V70H32.3583V69.15C32.3583 68.85 32.3616 68.5233 32.3683 68.17C32.3749 67.8167 32.3816 67.46 32.3883 67.1C32.4016 66.74 32.4149 66.4 32.4283 66.08C32.4416 65.7533 32.4516 65.4667 32.4583 65.22L31.4783 68.35H30.5283L29.5383 65.24C29.5516 65.54 29.5616 65.9133 29.5683 66.36C29.5816 66.8067 29.5916 67.2733 29.5983 67.76C29.6116 68.2467 29.6183 68.71 29.6183 69.15V70H28.7483ZM36.9844 70.08C36.5444 70.08 36.1644 69.9967 35.8444 69.83C35.5244 69.6633 35.2744 69.4233 35.0944 69.11C34.921 68.79 34.8344 68.4133 34.8344 67.98V66.52C34.8344 66.08 34.921 65.7033 35.0944 65.39C35.2744 65.0767 35.5244 64.8367 35.8444 64.67C36.1644 64.5033 36.5444 64.42 36.9844 64.42C37.4244 64.42 37.8044 64.5033 38.1244 64.67C38.4444 64.8367 38.691 65.0767 38.8644 65.39C39.0444 65.7033 39.1344 66.0767 39.1344 66.51V67.98C39.1344 68.4133 39.0444 68.79 38.8644 69.11C38.691 69.4233 38.4444 69.6633 38.1244 69.83C37.8044 69.9967 37.4244 70.08 36.9844 70.08ZM36.9844 69.28C37.3777 69.28 37.6844 69.17 37.9044 68.95C38.1244 68.73 38.2344 68.4067 38.2344 67.98V66.52C38.2344 66.0933 38.1244 65.77 37.9044 65.55C37.6844 65.33 37.3777 65.22 36.9844 65.22C36.5977 65.22 36.291 65.33 36.0644 65.55C35.8444 65.77 35.7344 66.0933 35.7344 66.52V67.98C35.7344 68.4067 35.8444 68.73 36.0644 68.95C36.291 69.17 36.5977 69.28 36.9844 69.28ZM40.1605 70L41.3605 67.18L40.2405 64.5H41.1105L42.0705 66.9H42.6005V64.5H43.3605V66.9H43.8705L44.8605 64.5H45.7205L44.6005 67.15L45.8005 70H44.9005L43.9005 67.5H43.3605V70H42.6005V67.5H42.0605L41.0505 70H40.1605ZM46.9166 70V64.5H47.8166V66.79H50.1366V64.5H51.0366V70H50.1366V67.61H47.8166V70H46.9166ZM54.9727 70.08C54.5327 70.08 54.1527 69.9967 53.8327 69.83C53.5127 69.6633 53.2627 69.4233 53.0827 69.11C52.9093 68.79 52.8227 68.4133 52.8227 67.98V66.52C52.8227 66.08 52.9093 65.7033 53.0827 65.39C53.2627 65.0767 53.5127 64.8367 53.8327 64.67C54.1527 64.5033 54.5327 64.42 54.9727 64.42C55.4127 64.42 55.7927 64.5033 56.1127 64.67C56.4327 64.8367 56.6793 65.0767 56.8527 65.39C57.0327 65.7033 57.1227 66.0767 57.1227 66.51V67.98C57.1227 68.4133 57.0327 68.79 56.8527 69.11C56.6793 69.4233 56.4327 69.6633 56.1127 69.83C55.7927 69.9967 55.4127 70.08 54.9727 70.08ZM54.9727 69.28C55.366 69.28 55.6727 69.17 55.8927 68.95C56.1127 68.73 56.2227 68.4067 56.2227 67.98V66.52C56.2227 66.0933 56.1127 65.77 55.8927 65.55C55.6727 65.33 55.366 65.22 54.9727 65.22C54.586 65.22 54.2793 65.33 54.0527 65.55C53.8327 65.77 53.7227 66.0933 53.7227 66.52V67.98C53.7227 68.4067 53.8327 68.73 54.0527 68.95C54.2793 69.17 54.586 69.28 54.9727 69.28ZM60.9888 70.1C60.5488 70.1 60.1621 70.0167 59.8288 69.85C59.5021 69.6833 59.2488 69.4433 59.0688 69.13C58.8888 68.81 58.7988 68.4333 58.7988 68V66.5C58.7988 66.06 58.8888 65.6833 59.0688 65.37C59.2488 65.0567 59.5021 64.8167 59.8288 64.65C60.1621 64.4833 60.5488 64.4 60.9888 64.4C61.6221 64.4 62.1321 64.57 62.5188 64.91C62.9054 65.25 63.1088 65.7133 63.1288 66.3H62.2288C62.2088 65.9467 62.0888 65.6767 61.8688 65.49C61.6554 65.2967 61.3621 65.2 60.9888 65.2C60.5954 65.2 60.2821 65.3133 60.0488 65.54C59.8154 65.76 59.6988 66.0767 59.6988 66.49V68C59.6988 68.4133 59.8154 68.7333 60.0488 68.96C60.2821 69.1867 60.5954 69.3 60.9888 69.3C61.3621 69.3 61.6554 69.2033 61.8688 69.01C62.0888 68.8167 62.2088 68.5467 62.2288 68.2H63.1288C63.1088 68.7867 62.9054 69.25 62.5188 69.59C62.1321 69.93 61.6221 70.1 60.9888 70.1ZM66.5148 70V65.29H64.5148V64.5H69.4148V65.29H67.4148V70H66.5148ZM70.9409 70V64.5H71.8409V66.52H73.4609C74.0809 66.52 74.5676 66.6767 74.9209 66.99C75.2809 67.2967 75.4609 67.72 75.4609 68.26C75.4609 68.7933 75.2809 69.2167 74.9209 69.53C74.5609 69.8433 74.0743 70 73.4609 70H70.9409ZM71.8409 69.18H73.4609C73.8076 69.18 74.0709 69.1033 74.2509 68.95C74.4376 68.79 74.5309 68.56 74.5309 68.26C74.5309 67.96 74.4376 67.7333 74.2509 67.58C74.0709 67.42 73.8076 67.34 73.4609 67.34H71.8409V69.18ZM82.8931 70V64.5H83.7531V67.5C83.7531 67.6933 83.7465 67.8967 83.7331 68.11C83.7265 68.3233 83.7131 68.5267 83.6931 68.72C83.6798 68.9067 83.6631 69.0667 83.6431 69.2L85.8631 64.5H87.0131V70H86.1531V67C86.1531 66.8067 86.1565 66.6033 86.1631 66.39C86.1765 66.1767 86.1931 65.9733 86.2131 65.78C86.2331 65.58 86.2498 65.4167 86.2631 65.29L84.0431 70H82.8931ZM90.6892 70.07C90.1092 70.07 89.6326 69.9467 89.2592 69.7C88.8926 69.4533 88.6726 69.12 88.5992 68.7H89.5492C89.5959 68.8667 89.7192 69.0033 89.9192 69.11C90.1259 69.2167 90.3826 69.27 90.6892 69.27H91.1592C91.4859 69.27 91.7392 69.1933 91.9192 69.04C92.1059 68.8867 92.1992 68.6867 92.1992 68.44C92.1992 68.1733 92.1092 67.9633 91.9292 67.81C91.7559 67.6567 91.4992 67.58 91.1592 67.58H89.9492V66.8H91.1292C91.4359 66.8 91.6692 66.7267 91.8292 66.58C91.9892 66.4333 92.0692 66.24 92.0692 66C92.0692 65.8333 92.0326 65.6933 91.9592 65.58C91.8926 65.4667 91.7892 65.38 91.6492 65.32C91.5092 65.26 91.3392 65.23 91.1392 65.23H90.6392C90.3726 65.23 90.1426 65.29 89.9492 65.41C89.7559 65.53 89.6392 65.6767 89.5992 65.85H88.6492C88.7159 65.4367 88.9326 65.0967 89.2992 64.83C89.6659 64.5633 90.1126 64.43 90.6392 64.43H91.1392C91.5326 64.43 91.8692 64.4933 92.1492 64.62C92.4292 64.74 92.6426 64.9133 92.7892 65.14C92.9426 65.3667 93.0192 65.6367 93.0192 65.95C93.0192 66.2767 92.9126 66.5467 92.6992 66.76C92.4859 66.9667 92.1859 67.0833 91.7992 67.11V67.15C92.2726 67.1833 92.6159 67.31 92.8292 67.53C93.0426 67.75 93.1492 68.0667 93.1492 68.48C93.1492 68.9667 92.9692 69.3533 92.6092 69.64C92.2492 69.9267 91.7659 70.07 91.1592 70.07H90.6892ZM94.7053 70V64.5H95.9253L96.6453 66.61C96.7186 66.8233 96.7853 67.0367 96.8453 67.25C96.9053 67.4567 96.9486 67.6167 96.9753 67.73C97.002 67.6167 97.042 67.4567 97.0953 67.25C97.1553 67.0367 97.2186 66.82 97.2853 66.6L97.9653 64.5H99.1853V70H98.3153V69.15C98.3153 68.85 98.3186 68.5233 98.3253 68.17C98.332 67.8167 98.3386 67.46 98.3453 67.1C98.3586 66.74 98.372 66.4 98.3853 66.08C98.3986 65.7533 98.4086 65.4667 98.4153 65.22L97.4353 68.35H96.4853L95.4953 65.24C95.5086 65.54 95.5186 65.9133 95.5253 66.36C95.5386 66.8067 95.5486 67.2733 95.5553 67.76C95.5686 68.2467 95.5753 68.71 95.5753 69.15V70H94.7053ZM102.941 70.1C102.508 70.1 102.128 70.0133 101.801 69.84C101.481 69.6667 101.231 69.4233 101.051 69.11C100.878 68.79 100.791 68.42 100.791 68V66.5C100.791 66.0733 100.878 65.7033 101.051 65.39C101.231 65.0767 101.481 64.8333 101.801 64.66C102.128 64.4867 102.508 64.4 102.941 64.4C103.375 64.4 103.751 64.4867 104.071 64.66C104.398 64.8333 104.648 65.0767 104.821 65.39C105.001 65.7033 105.091 66.0733 105.091 66.5V67.47H101.671V68C101.671 68.4333 101.781 68.7667 102.001 69C102.221 69.2267 102.535 69.34 102.941 69.34C103.288 69.34 103.568 69.28 103.781 69.16C103.995 69.0333 104.125 68.8467 104.171 68.6H105.071C105.011 69.06 104.785 69.4267 104.391 69.7C104.005 69.9667 103.521 70.1 102.941 70.1ZM104.211 66.87V66.5C104.211 66.0667 104.101 65.7333 103.881 65.5C103.668 65.2667 103.355 65.15 102.941 65.15C102.535 65.15 102.221 65.2667 102.001 65.5C101.781 65.7333 101.671 66.0667 101.671 66.5V66.79H104.281L104.211 66.87ZM106.878 70V64.5H107.778V66.79H110.098V64.5H110.998V70H110.098V67.61H107.778V70H106.878ZM112.874 70V64.5H113.734V67.5C113.734 67.6933 113.727 67.8967 113.714 68.11C113.707 68.3233 113.694 68.5267 113.674 68.72C113.66 68.9067 113.644 69.0667 113.624 69.2L115.844 64.5H116.994V70H116.134V67C116.134 66.8067 116.137 66.6033 116.144 66.39C116.157 66.1767 116.174 65.9733 116.194 65.78C116.214 65.58 116.23 65.4167 116.244 65.29L114.024 70H112.874ZM120.48 70V65.29H118.48V64.5H123.38V65.29H121.38V70H120.48ZM124.906 70V64.5H125.806V66.52H127.426C128.046 66.52 128.532 66.6767 128.886 66.99C129.246 67.2967 129.426 67.72 129.426 68.26C129.426 68.7933 129.246 69.2167 128.886 69.53C128.526 69.8433 128.039 70 127.426 70H124.906ZM125.806 69.18H127.426C127.772 69.18 128.036 69.1033 128.216 68.95C128.402 68.79 128.496 68.56 128.496 68.26C128.496 67.96 128.402 67.7333 128.216 67.58C128.036 67.42 127.772 67.34 127.426 67.34H125.806V69.18ZM10.94 83V77.5H13.32C13.8933 77.5 14.3367 77.63 14.65 77.89C14.9633 78.1433 15.12 78.5 15.12 78.96C15.12 79.34 14.99 79.6467 14.73 79.88C14.47 80.1067 14.1267 80.22 13.7 80.22V80.14C14.1667 80.14 14.54 80.2567 14.82 80.49C15.1067 80.7233 15.25 81.0367 15.25 81.43C15.25 81.9233 15.0833 82.31 14.75 82.59C14.4167 82.8633 13.95 83 13.35 83H10.94ZM11.82 82.21H13.35C13.67 82.21 13.9167 82.14 14.09 82C14.27 81.86 14.36 81.6633 14.36 81.41C14.36 81.15 14.27 80.95 14.09 80.81C13.9167 80.67 13.67 80.6 13.35 80.6H11.82V82.21ZM11.82 79.82H13.32C13.6 79.82 13.82 79.7533 13.98 79.62C14.1467 79.4867 14.23 79.3 14.23 79.06C14.23 78.82 14.15 78.6333 13.99 78.5C13.83 78.36 13.6067 78.29 13.32 78.29H11.82V79.82ZM16.9361 83V77.5H17.8361V79.79H20.1561V77.5H21.0561V83H20.1561V80.61H17.8361V83H16.9361ZM24.9922 83.1C24.5589 83.1 24.1789 83.0133 23.8522 82.84C23.5322 82.6667 23.2822 82.4233 23.1022 82.11C22.9289 81.79 22.8422 81.42 22.8422 81V79.5C22.8422 79.0733 22.9289 78.7033 23.1022 78.39C23.2822 78.0767 23.5322 77.8333 23.8522 77.66C24.1789 77.4867 24.5589 77.4 24.9922 77.4C25.4255 77.4 25.8022 77.4867 26.1222 77.66C26.4489 77.8333 26.6989 78.0767 26.8722 78.39C27.0522 78.7033 27.1422 79.0733 27.1422 79.5V80.47H23.7222V81C23.7222 81.4333 23.8322 81.7667 24.0522 82C24.2722 82.2267 24.5855 82.34 24.9922 82.34C25.3389 82.34 25.6189 82.28 25.8322 82.16C26.0455 82.0333 26.1755 81.8467 26.2222 81.6H27.1222C27.0622 82.06 26.8355 82.4267 26.4422 82.7C26.0555 82.9667 25.5722 83.1 24.9922 83.1ZM26.2622 79.87V79.5C26.2622 79.0667 26.1522 78.7333 25.9322 78.5C25.7189 78.2667 25.4055 78.15 24.9922 78.15C24.5855 78.15 24.2722 78.2667 24.0522 78.5C23.8322 78.7333 23.7222 79.0667 23.7222 79.5V79.79H26.3322L26.2622 79.87ZM28.6483 83L28.6283 77.5H29.4683V82.32H30.6383V77.5H31.3583V82.32H32.5183V77.5H33.3483V83H28.6483ZM34.9244 83V77.5H35.8244V79.79H38.1444V77.5H39.0444V83H38.1444V80.61H35.8244V83H34.9244ZM40.9205 83V77.5H41.7805V80.5C41.7805 80.6933 41.7738 80.8967 41.7605 81.11C41.7538 81.3233 41.7405 81.5267 41.7205 81.72C41.7071 81.9067 41.6905 82.0667 41.6705 82.2L43.8905 77.5H45.0405V83H44.1805V80C44.1805 79.8067 44.1838 79.6033 44.1905 79.39C44.2038 79.1767 44.2205 78.9733 44.2405 78.78C44.2605 78.58 44.2771 78.4167 44.2905 78.29L42.0705 83H40.9205ZM46.9166 83V77.5H47.7766V80.5C47.7766 80.6933 47.7699 80.8967 47.7566 81.11C47.7499 81.3233 47.7366 81.5267 47.7166 81.72C47.7032 81.9067 47.6866 82.0667 47.6666 82.2L49.8866 77.5H51.0366V83H50.1766V80C50.1766 79.8067 50.1799 79.6033 50.1866 79.39C50.1999 79.1767 50.2166 78.9733 50.2366 78.78C50.2566 78.58 50.2732 78.4167 50.2866 78.29L48.0666 83H46.9166ZM49.0166 76.6C48.5366 76.6 48.1499 76.4667 47.8566 76.2C47.5632 75.9333 47.4166 75.5833 47.4166 75.15H48.1266C48.1266 75.41 48.2066 75.62 48.3666 75.78C48.5266 75.94 48.7399 76.02 49.0066 76.02C49.2799 76.02 49.4966 75.94 49.6566 75.78C49.8232 75.62 49.9066 75.41 49.9066 75.15H50.6166C50.6166 75.5833 50.4699 75.9333 50.1766 76.2C49.8832 76.4667 49.4966 76.6 49.0166 76.6ZM58.9088 83V77.5H61.2888C61.8621 77.5 62.3054 77.63 62.6188 77.89C62.9321 78.1433 63.0888 78.5 63.0888 78.96C63.0888 79.34 62.9588 79.6467 62.6988 79.88C62.4388 80.1067 62.0954 80.22 61.6688 80.22V80.14C62.1354 80.14 62.5088 80.2567 62.7888 80.49C63.0754 80.7233 63.2188 81.0367 63.2188 81.43C63.2188 81.9233 63.0521 82.31 62.7188 82.59C62.3854 82.8633 61.9188 83 61.3188 83H58.9088ZM59.7888 82.21H61.3188C61.6388 82.21 61.8854 82.14 62.0588 82C62.2388 81.86 62.3288 81.6633 62.3288 81.41C62.3288 81.15 62.2388 80.95 62.0588 80.81C61.8854 80.67 61.6388 80.6 61.3188 80.6H59.7888V82.21ZM59.7888 79.82H61.2888C61.5688 79.82 61.7888 79.7533 61.9488 79.62C62.1154 79.4867 62.1988 79.3 62.1988 79.06C62.1988 78.82 62.1188 78.6333 61.9588 78.5C61.7988 78.36 61.5754 78.29 61.2888 78.29H59.7888V79.82ZM64.9048 83V77.5H65.7648V80.5C65.7648 80.6933 65.7582 80.8967 65.7448 81.11C65.7382 81.3233 65.7248 81.5267 65.7048 81.72C65.6915 81.9067 65.6748 82.0667 65.6548 82.2L67.8748 77.5H69.0248V83H68.1648V80C68.1648 79.8067 68.1682 79.6033 68.1748 79.39C68.1882 79.1767 68.2048 78.9733 68.2248 78.78C68.2448 78.58 68.2615 78.4167 68.2748 78.29L66.0548 83H64.9048ZM70.2609 84.4V82.23H70.7109C70.8243 82.1167 70.9409 81.8933 71.0609 81.56C71.1876 81.2267 71.2543 80.8033 71.2609 80.29L71.3209 77.5H74.9109V82.23H75.6109V84.4H74.8109V83H71.0609V84.4H70.2609ZM71.6609 82.23H74.0109V78.3H72.1709L72.1309 80.31C72.1243 80.8367 72.0676 81.2633 71.9609 81.59C71.8543 81.9167 71.7543 82.13 71.6609 82.23ZM84.9531 83.1C84.3065 83.1 83.7931 82.91 83.4131 82.53C83.0398 82.1433 82.8531 81.6167 82.8531 80.95V78.45C82.8531 77.57 83.0731 76.8933 83.5131 76.42C83.9531 75.94 84.5831 75.7 85.4031 75.7H86.8031V76.6H85.4031C84.8631 76.6 84.4531 76.76 84.1731 77.08C83.8931 77.3933 83.7531 77.85 83.7531 78.45V79.1H83.8931L83.7531 79.3C83.7598 78.9067 83.8931 78.6 84.1531 78.38C84.4131 78.16 84.7665 78.05 85.2131 78.05C85.7931 78.05 86.2431 78.2367 86.5631 78.61C86.8898 78.9833 87.0531 79.4967 87.0531 80.15V80.95C87.0531 81.3967 86.9698 81.78 86.8031 82.1C86.6365 82.42 86.3965 82.6667 86.0831 82.84C85.7698 83.0133 85.3931 83.1 84.9531 83.1ZM84.9531 82.3C85.3398 82.3 85.6365 82.1833 85.8431 81.95C86.0498 81.7167 86.1531 81.3833 86.1531 80.95V80.15C86.1531 79.7167 86.0498 79.3833 85.8431 79.15C85.6365 78.9167 85.3398 78.8 84.9531 78.8C84.5665 78.8 84.2698 78.9167 84.0631 79.15C83.8565 79.3767 83.7531 79.71 83.7531 80.15V80.95C83.7531 81.3833 83.8565 81.7167 84.0631 81.95C84.2698 82.1833 84.5665 82.3 84.9531 82.3ZM90.9492 83.08C90.5092 83.08 90.1292 82.9967 89.8092 82.83C89.4892 82.6633 89.2392 82.4233 89.0592 82.11C88.8859 81.79 88.7992 81.4133 88.7992 80.98V79.52C88.7992 79.08 88.8859 78.7033 89.0592 78.39C89.2392 78.0767 89.4892 77.8367 89.8092 77.67C90.1292 77.5033 90.5092 77.42 90.9492 77.42C91.3892 77.42 91.7692 77.5033 92.0892 77.67C92.4092 77.8367 92.6559 78.0767 92.8292 78.39C93.0092 78.7033 93.0992 79.0767 93.0992 79.51V80.98C93.0992 81.4133 93.0092 81.79 92.8292 82.11C92.6559 82.4233 92.4092 82.6633 92.0892 82.83C91.7692 82.9967 91.3892 83.08 90.9492 83.08ZM90.9492 82.28C91.3426 82.28 91.6492 82.17 91.8692 81.95C92.0892 81.73 92.1992 81.4067 92.1992 80.98V79.52C92.1992 79.0933 92.0892 78.77 91.8692 78.55C91.6492 78.33 91.3426 78.22 90.9492 78.22C90.5626 78.22 90.2559 78.33 90.0292 78.55C89.8092 78.77 89.6992 79.0933 89.6992 79.52V80.98C89.6992 81.4067 89.8092 81.73 90.0292 81.95C90.2559 82.17 90.5626 82.28 90.9492 82.28ZM96.4953 83V78.29H94.4953V77.5H99.3953V78.29H97.3953V83H96.4953ZM102.461 83.1C101.881 83.1 101.425 82.9533 101.091 82.66C100.758 82.36 100.591 81.9567 100.591 81.45C100.591 80.9367 100.758 80.5333 101.091 80.24C101.425 79.9467 101.875 79.8 102.441 79.8H104.141V79.25C104.141 78.91 104.038 78.65 103.831 78.47C103.631 78.2833 103.345 78.19 102.971 78.19C102.645 78.19 102.371 78.26 102.151 78.4C101.931 78.5333 101.805 78.7167 101.771 78.95H100.871C100.931 78.4767 101.155 78.1 101.541 77.82C101.928 77.54 102.411 77.4 102.991 77.4C103.625 77.4 104.125 77.5633 104.491 77.89C104.858 78.2167 105.041 78.66 105.041 79.22V83H104.161V81.95H104.011L104.161 81.8C104.161 82.2 104.005 82.5167 103.691 82.75C103.385 82.9833 102.975 83.1 102.461 83.1ZM102.681 82.39C103.108 82.39 103.458 82.2833 103.731 82.07C104.005 81.8567 104.141 81.5833 104.141 81.25V80.47H102.461C102.161 80.47 101.925 80.5533 101.751 80.72C101.578 80.8867 101.491 81.1133 101.491 81.4C101.491 81.7067 101.595 81.95 101.801 82.13C102.015 82.3033 102.308 82.39 102.681 82.39ZM107.588 84.6L108.388 81.49H109.688L108.388 84.6H107.588ZM10.94 96V90.5H13.32C13.8933 90.5 14.3367 90.63 14.65 90.89C14.9633 91.1433 15.12 91.5 15.12 91.96C15.12 92.34 14.99 92.6467 14.73 92.88C14.47 93.1067 14.1267 93.22 13.7 93.22V93.14C14.1667 93.14 14.54 93.2567 14.82 93.49C15.1067 93.7233 15.25 94.0367 15.25 94.43C15.25 94.9233 15.0833 95.31 14.75 95.59C14.4167 95.8633 13.95 96 13.35 96H10.94ZM11.82 95.21H13.35C13.67 95.21 13.9167 95.14 14.09 95C14.27 94.86 14.36 94.6633 14.36 94.41C14.36 94.15 14.27 93.95 14.09 93.81C13.9167 93.67 13.67 93.6 13.35 93.6H11.82V95.21ZM11.82 92.82H13.32C13.6 92.82 13.82 92.7533 13.98 92.62C14.1467 92.4867 14.23 92.3 14.23 92.06C14.23 91.82 14.15 91.6333 13.99 91.5C13.83 91.36 13.6067 91.29 13.32 91.29H11.82V92.82ZM16.6461 96V90.5H17.4861V92.52H17.9361C18.5294 92.52 18.9961 92.6767 19.3361 92.99C19.6828 93.2967 19.8561 93.72 19.8561 94.26C19.8561 94.8 19.6828 95.2267 19.3361 95.54C18.9961 95.8467 18.5294 96 17.9361 96H16.6461ZM17.4861 95.28H17.9361C18.2894 95.28 18.5628 95.19 18.7561 95.01C18.9561 94.83 19.0561 94.58 19.0561 94.26C19.0561 93.94 18.9561 93.69 18.7561 93.51C18.5628 93.33 18.2894 93.24 17.9361 93.24H17.4861V95.28ZM20.5061 96V90.5H21.3461V96H20.5061ZM24.9922 96.1C24.3455 96.1 23.8322 95.91 23.4522 95.53C23.0789 95.1433 22.8922 94.6167 22.8922 93.95V91.45C22.8922 90.57 23.1122 89.8933 23.5522 89.42C23.9922 88.94 24.6222 88.7 25.4422 88.7H26.8422V89.6H25.4422C24.9022 89.6 24.4922 89.76 24.2122 90.08C23.9322 90.3933 23.7922 90.85 23.7922 91.45V92.1H23.9322L23.7922 92.3C23.7989 91.9067 23.9322 91.6 24.1922 91.38C24.4522 91.16 24.8055 91.05 25.2522 91.05C25.8322 91.05 26.2822 91.2367 26.6022 91.61C26.9289 91.9833 27.0922 92.4967 27.0922 93.15V93.95C27.0922 94.3967 27.0089 94.78 26.8422 95.1C26.6755 95.42 26.4355 95.6667 26.1222 95.84C25.8089 96.0133 25.4322 96.1 24.9922 96.1ZM24.9922 95.3C25.3789 95.3 25.6755 95.1833 25.8822 94.95C26.0889 94.7167 26.1922 94.3833 26.1922 93.95V93.15C26.1922 92.7167 26.0889 92.3833 25.8822 92.15C25.6755 91.9167 25.3789 91.8 24.9922 91.8C24.6055 91.8 24.3089 91.9167 24.1022 92.15C23.8955 92.3767 23.7922 92.71 23.7922 93.15V93.95C23.7922 94.3833 23.8955 94.7167 24.1022 94.95C24.3089 95.1833 24.6055 95.3 24.9922 95.3ZM28.9283 96V90.5H29.7883V93.5C29.7883 93.6933 29.7816 93.8967 29.7683 94.11C29.7616 94.3233 29.7483 94.5267 29.7283 94.72C29.7149 94.9067 29.6983 95.0667 29.6783 95.2L31.8983 90.5H33.0483V96H32.1883V93C32.1883 92.8067 32.1916 92.6033 32.1983 92.39C32.2116 92.1767 32.2283 91.9733 32.2483 91.78C32.2683 91.58 32.2849 91.4167 32.2983 91.29L30.0783 96H28.9283ZM34.9044 97.8V90.5H35.8044V91.55H35.9844L35.8044 91.76C35.8044 91.34 35.941 91.01 36.2144 90.77C36.4944 90.5233 36.861 90.4 37.3144 90.4C37.8677 90.4 38.3077 90.5833 38.6344 90.95C38.9677 91.31 39.1344 91.8067 39.1344 92.44V94.05C39.1344 94.47 39.0577 94.8333 38.9044 95.14C38.7577 95.4467 38.5477 95.6833 38.2744 95.85C38.0077 96.0167 37.6877 96.1 37.3144 96.1C36.8677 96.1 36.5044 95.9767 36.2244 95.73C35.9444 95.4833 35.8044 95.1533 35.8044 94.74L35.9844 94.95H35.7844L35.8044 96.2V97.8H34.9044ZM37.0144 95.32C37.3944 95.32 37.691 95.2067 37.9044 94.98C38.1244 94.7533 38.2344 94.4267 38.2344 94V92.5C38.2344 92.0733 38.1244 91.7467 37.9044 91.52C37.691 91.2933 37.3944 91.18 37.0144 91.18C36.6477 91.18 36.3544 91.2967 36.1344 91.53C35.9144 91.7633 35.8044 92.0867 35.8044 92.5V94C35.8044 94.4133 35.9144 94.7367 36.1344 94.97C36.3544 95.2033 36.6477 95.32 37.0144 95.32ZM42.5005 96.1C41.9205 96.1 41.4638 95.9533 41.1305 95.66C40.7971 95.36 40.6305 94.9567 40.6305 94.45C40.6305 93.9367 40.7971 93.5333 41.1305 93.24C41.4638 92.9467 41.9138 92.8 42.4805 92.8H44.1805V92.25C44.1805 91.91 44.0771 91.65 43.8705 91.47C43.6705 91.2833 43.3838 91.19 43.0105 91.19C42.6838 91.19 42.4105 91.26 42.1905 91.4C41.9705 91.5333 41.8438 91.7167 41.8105 91.95H40.9105C40.9705 91.4767 41.1938 91.1 41.5805 90.82C41.9671 90.54 42.4505 90.4 43.0305 90.4C43.6638 90.4 44.1638 90.5633 44.5305 90.89C44.8971 91.2167 45.0805 91.66 45.0805 92.22V96H44.2005V94.95H44.0505L44.2005 94.8C44.2005 95.2 44.0438 95.5167 43.7305 95.75C43.4238 95.9833 43.0138 96.1 42.5005 96.1ZM42.7205 95.39C43.1471 95.39 43.4971 95.2833 43.7705 95.07C44.0438 94.8567 44.1805 94.5833 44.1805 94.25V93.47H42.5005C42.2005 93.47 41.9638 93.5533 41.7905 93.72C41.6171 93.8867 41.5305 94.1133 41.5305 94.4C41.5305 94.7067 41.6338 94.95 41.8405 95.13C42.0538 95.3033 42.3471 95.39 42.7205 95.39ZM46.5766 96L47.9866 93.88C47.5666 93.78 47.2399 93.5867 47.0066 93.3C46.7799 93.0133 46.6666 92.6567 46.6666 92.23C46.6666 91.69 46.8432 91.2667 47.1966 90.96C47.5566 90.6533 48.0466 90.5 48.6666 90.5H51.0366V96H50.1366V93.95H48.9266L47.6266 96H46.5766ZM48.6666 93.15H50.1366V91.3H48.6666C48.3332 91.3 48.0699 91.3833 47.8766 91.55C47.6832 91.71 47.5866 91.9367 47.5866 92.23C47.5866 92.5167 47.6832 92.7433 47.8766 92.91C48.0699 93.07 48.3332 93.15 48.6666 93.15ZM58.9088 96V90.5H59.7688V93.5C59.7688 93.6933 59.7621 93.8967 59.7488 94.11C59.7421 94.3233 59.7288 94.5267 59.7088 94.72C59.6954 94.9067 59.6788 95.0667 59.6588 95.2L61.8788 90.5H63.0288V96H62.1688V93C62.1688 92.8067 62.1721 92.6033 62.1788 92.39C62.1921 92.1767 62.2088 91.9733 62.2288 91.78C62.2488 91.58 62.2654 91.4167 62.2788 91.29L60.0588 96H58.9088ZM66.7048 96.07C66.1248 96.07 65.6482 95.9467 65.2748 95.7C64.9082 95.4533 64.6882 95.12 64.6148 94.7H65.5648C65.6115 94.8667 65.7348 95.0033 65.9348 95.11C66.1415 95.2167 66.3982 95.27 66.7048 95.27H67.1748C67.5015 95.27 67.7548 95.1933 67.9348 95.04C68.1215 94.8867 68.2148 94.6867 68.2148 94.44C68.2148 94.1733 68.1248 93.9633 67.9448 93.81C67.7715 93.6567 67.5148 93.58 67.1748 93.58H65.9648V92.8H67.1448C67.4515 92.8 67.6848 92.7267 67.8448 92.58C68.0048 92.4333 68.0848 92.24 68.0848 92C68.0848 91.8333 68.0482 91.6933 67.9748 91.58C67.9082 91.4667 67.8048 91.38 67.6648 91.32C67.5248 91.26 67.3548 91.23 67.1548 91.23H66.6548C66.3882 91.23 66.1582 91.29 65.9648 91.41C65.7715 91.53 65.6548 91.6767 65.6148 91.85H64.6648C64.7315 91.4367 64.9482 91.0967 65.3148 90.83C65.6815 90.5633 66.1282 90.43 66.6548 90.43H67.1548C67.5482 90.43 67.8848 90.4933 68.1648 90.62C68.4448 90.74 68.6582 90.9133 68.8048 91.14C68.9582 91.3667 69.0348 91.6367 69.0348 91.95C69.0348 92.2767 68.9282 92.5467 68.7148 92.76C68.5015 92.9667 68.2015 93.0833 67.8148 93.11V93.15C68.2882 93.1833 68.6315 93.31 68.8448 93.53C69.0582 93.75 69.1648 94.0667 69.1648 94.48C69.1648 94.9667 68.9848 95.3533 68.6248 95.64C68.2648 95.9267 67.7815 96.07 67.1748 96.07H66.7048ZM10.94 109V103.5H15.06V109H14.16V104.32H11.84V109H10.94ZM16.9161 110.8V103.5H17.8161V104.55H17.9961L17.8161 104.76C17.8161 104.34 17.9528 104.01 18.2261 103.77C18.5061 103.523 18.8728 103.4 19.3261 103.4C19.8794 103.4 20.3194 103.583 20.6461 103.95C20.9794 104.31 21.1461 104.807 21.1461 105.44V107.05C21.1461 107.47 21.0694 107.833 20.9161 108.14C20.7694 108.447 20.5594 108.683 20.2861 108.85C20.0194 109.017 19.6994 109.1 19.3261 109.1C18.8794 109.1 18.5161 108.977 18.2361 108.73C17.9561 108.483 17.8161 108.153 17.8161 107.74L17.9961 107.95H17.7961L17.8161 109.2V110.8H16.9161ZM19.0261 108.32C19.4061 108.32 19.7028 108.207 19.9161 107.98C20.1361 107.753 20.2461 107.427 20.2461 107V105.5C20.2461 105.073 20.1361 104.747 19.9161 104.52C19.7028 104.293 19.4061 104.18 19.0261 104.18C18.6594 104.18 18.3661 104.297 18.1461 104.53C17.9261 104.763 17.8161 105.087 17.8161 105.5V107C17.8161 107.413 17.9261 107.737 18.1461 107.97C18.3661 108.203 18.6594 108.32 19.0261 108.32ZM24.9922 109.1C24.5589 109.1 24.1789 109.013 23.8522 108.84C23.5322 108.667 23.2822 108.423 23.1022 108.11C22.9289 107.79 22.8422 107.42 22.8422 107V105.5C22.8422 105.073 22.9289 104.703 23.1022 104.39C23.2822 104.077 23.5322 103.833 23.8522 103.66C24.1789 103.487 24.5589 103.4 24.9922 103.4C25.4255 103.4 25.8022 103.487 26.1222 103.66C26.4489 103.833 26.6989 104.077 26.8722 104.39C27.0522 104.703 27.1422 105.073 27.1422 105.5V106.47H23.7222V107C23.7222 107.433 23.8322 107.767 24.0522 108C24.2722 108.227 24.5855 108.34 24.9922 108.34C25.3389 108.34 25.6189 108.28 25.8322 108.16C26.0455 108.033 26.1755 107.847 26.2222 107.6H27.1222C27.0622 108.06 26.8355 108.427 26.4422 108.7C26.0555 108.967 25.5722 109.1 24.9922 109.1ZM26.2622 105.87V105.5C26.2622 105.067 26.1522 104.733 25.9322 104.5C25.7189 104.267 25.4055 104.15 24.9922 104.15C24.5855 104.15 24.2722 104.267 24.0522 104.5C23.8322 104.733 23.7222 105.067 23.7222 105.5V105.79H26.3322L26.2622 105.87ZM28.2883 110.4V108.23H28.7383C28.8516 108.117 28.9683 107.893 29.0883 107.56C29.2149 107.227 29.2816 106.803 29.2883 106.29L29.3483 103.5H32.9383V108.23H33.6383V110.4H32.8383V109H29.0883V110.4H28.2883ZM29.6883 108.23H32.0383V104.3H30.1983L30.1583 106.31C30.1516 106.837 30.0949 107.263 29.9883 107.59C29.8816 107.917 29.7816 108.13 29.6883 108.23ZM34.2344 109.07V108.23H34.4144C34.721 108.23 34.9344 108.11 35.0544 107.87C35.181 107.63 35.2477 107.2 35.2544 106.58L35.3144 103.5H39.0444V109H38.1444V104.32H36.2044L36.1544 106.62C36.141 107.2 36.0744 107.67 35.9544 108.03C35.841 108.39 35.661 108.653 35.4144 108.82C35.1744 108.987 34.8577 109.07 34.4644 109.07H34.2344ZM42.9805 109.08C42.5405 109.08 42.1605 108.997 41.8405 108.83C41.5205 108.663 41.2705 108.423 41.0905 108.11C40.9171 107.79 40.8305 107.413 40.8305 106.98V105.52C40.8305 105.08 40.9171 104.703 41.0905 104.39C41.2705 104.077 41.5205 103.837 41.8405 103.67C42.1605 103.503 42.5405 103.42 42.9805 103.42C43.4205 103.42 43.8005 103.503 44.1205 103.67C44.4405 103.837 44.6871 104.077 44.8605 104.39C45.0405 104.703 45.1305 105.077 45.1305 105.51V106.98C45.1305 107.413 45.0405 107.79 44.8605 108.11C44.6871 108.423 44.4405 108.663 44.1205 108.83C43.8005 108.997 43.4205 109.08 42.9805 109.08ZM42.9805 108.28C43.3738 108.28 43.6805 108.17 43.9005 107.95C44.1205 107.73 44.2305 107.407 44.2305 106.98V105.52C44.2305 105.093 44.1205 104.77 43.9005 104.55C43.6805 104.33 43.3738 104.22 42.9805 104.22C42.5938 104.22 42.2871 104.33 42.0605 104.55C41.8405 104.77 41.7305 105.093 41.7305 105.52V106.98C41.7305 107.407 41.8405 107.73 42.0605 107.95C42.2871 108.17 42.5938 108.28 42.9805 108.28ZM46.1566 109L47.3566 106.18L46.2366 103.5H47.1066L48.0666 105.9H48.5966V103.5H49.3566V105.9H49.8666L50.8566 103.5H51.7166L50.5966 106.15L51.7966 109H50.8966L49.8966 106.5H49.3566V109H48.5966V106.5H48.0566L47.0466 109H46.1566ZM54.9727 109.1C54.5393 109.1 54.1593 109.013 53.8327 108.84C53.5127 108.667 53.2627 108.423 53.0827 108.11C52.9093 107.79 52.8227 107.42 52.8227 107V105.5C52.8227 105.073 52.9093 104.703 53.0827 104.39C53.2627 104.077 53.5127 103.833 53.8327 103.66C54.1593 103.487 54.5393 103.4 54.9727 103.4C55.406 103.4 55.7827 103.487 56.1027 103.66C56.4293 103.833 56.6793 104.077 56.8527 104.39C57.0327 104.703 57.1227 105.073 57.1227 105.5V106.47H53.7027V107C53.7027 107.433 53.8127 107.767 54.0327 108C54.2527 108.227 54.566 108.34 54.9727 108.34C55.3193 108.34 55.5993 108.28 55.8127 108.16C56.026 108.033 56.156 107.847 56.2027 107.6H57.1027C57.0427 108.06 56.816 108.427 56.4227 108.7C56.036 108.967 55.5527 109.1 54.9727 109.1ZM56.2427 105.87V105.5C56.2427 105.067 56.1327 104.733 55.9127 104.5C55.6993 104.267 55.386 104.15 54.9727 104.15C54.566 104.15 54.2527 104.267 54.0327 104.5C53.8127 104.733 53.7027 105.067 53.7027 105.5V105.79H56.3127L56.2427 105.87ZM58.9088 109V103.5H59.8088V105.79H62.1288V103.5H63.0288V109H62.1288V106.61H59.8088V109H58.9088ZM64.9048 109V103.5H65.8048V105.79H68.1248V103.5H69.0248V109H68.1248V106.61H65.8048V109H64.9048ZM70.6109 109V103.5H71.4509V105.52H71.9009C72.4943 105.52 72.9609 105.677 73.3009 105.99C73.6476 106.297 73.8209 106.72 73.8209 107.26C73.8209 107.8 73.6476 108.227 73.3009 108.54C72.9609 108.847 72.4943 109 71.9009 109H70.6109ZM71.4509 108.28H71.9009C72.2543 108.28 72.5276 108.19 72.7209 108.01C72.9209 107.83 73.0209 107.58 73.0209 107.26C73.0209 106.94 72.9209 106.69 72.7209 106.51C72.5276 106.33 72.2543 106.24 71.9009 106.24H71.4509V108.28ZM74.4709 109V103.5H75.3109V109H74.4709ZM76.457 109L78.407 106.17L76.577 103.5H77.637L78.727 105.2C78.7737 105.273 78.817 105.353 78.857 105.44C78.9037 105.527 78.9404 105.597 78.967 105.65C78.987 105.597 79.017 105.527 79.057 105.44C79.1037 105.353 79.1504 105.273 79.197 105.2L80.297 103.5H81.347L79.517 106.18L81.457 109H80.397L79.217 107.2C79.1704 107.127 79.1237 107.043 79.077 106.95C79.037 106.85 79.0004 106.77 78.967 106.71C78.9404 106.77 78.9004 106.85 78.847 106.95C78.8004 107.043 78.7504 107.127 78.697 107.2L77.507 109H76.457ZM90.4992 109V104.29H88.4992V103.5H93.3992V104.29H91.3992V109H90.4992ZM96.9453 109.1C96.512 109.1 96.132 109.013 95.8053 108.84C95.4853 108.667 95.2353 108.423 95.0553 108.11C94.882 107.79 94.7953 107.42 94.7953 107V105.5C94.7953 105.073 94.882 104.703 95.0553 104.39C95.2353 104.077 95.4853 103.833 95.8053 103.66C96.132 103.487 96.512 103.4 96.9453 103.4C97.3786 103.4 97.7553 103.487 98.0753 103.66C98.402 103.833 98.652 104.077 98.8253 104.39C99.0053 104.703 99.0953 105.073 99.0953 105.5V106.47H95.6753V107C95.6753 107.433 95.7853 107.767 96.0053 108C96.2253 108.227 96.5386 108.34 96.9453 108.34C97.292 108.34 97.572 108.28 97.7853 108.16C97.9986 108.033 98.1286 107.847 98.1753 107.6H99.0753C99.0153 108.06 98.7886 108.427 98.3953 108.7C98.0086 108.967 97.5253 109.1 96.9453 109.1ZM98.2153 105.87V105.5C98.2153 105.067 98.1053 104.733 97.8853 104.5C97.672 104.267 97.3586 104.15 96.9453 104.15C96.5386 104.15 96.2253 104.267 96.0053 104.5C95.7853 104.733 95.6753 105.067 95.6753 105.5V105.79H98.2853L98.2153 105.87ZM100.701 109V103.5H101.921L102.641 105.61C102.715 105.823 102.781 106.037 102.841 106.25C102.901 106.457 102.945 106.617 102.971 106.73C102.998 106.617 103.038 106.457 103.091 106.25C103.151 106.037 103.215 105.82 103.281 105.6L103.961 103.5H105.181V109H104.311V108.15C104.311 107.85 104.315 107.523 104.321 107.17C104.328 106.817 104.335 106.46 104.341 106.1C104.355 105.74 104.368 105.4 104.381 105.08C104.395 104.753 104.405 104.467 104.411 104.22L103.431 107.35H102.481L101.491 104.24C101.505 104.54 101.515 104.913 101.521 105.36C101.535 105.807 101.545 106.273 101.551 106.76C101.565 107.247 101.571 107.71 101.571 108.15V109H100.701ZM112.874 109V103.5H113.734V106.5C113.734 106.693 113.727 106.897 113.714 107.11C113.707 107.323 113.694 107.527 113.674 107.72C113.66 107.907 113.644 108.067 113.624 108.2L115.844 103.5H116.994V109H116.134V106C116.134 105.807 116.137 105.603 116.144 105.39C116.157 105.177 116.174 104.973 116.194 104.78C116.214 104.58 116.23 104.417 116.244 104.29L114.024 109H112.874ZM118.18 109.07V108.23H118.36C118.666 108.23 118.88 108.11 119 107.87C119.126 107.63 119.193 107.2 119.2 106.58L119.26 103.5H122.99V109H122.09V104.32H120.15L120.1 106.62C120.086 107.2 120.02 107.67 119.9 108.03C119.786 108.39 119.606 108.653 119.36 108.82C119.12 108.987 118.803 109.07 118.41 109.07H118.18ZM124.866 109V103.5H125.726V106.5C125.726 106.693 125.719 106.897 125.706 107.11C125.699 107.323 125.686 107.527 125.666 107.72C125.652 107.907 125.636 108.067 125.616 108.2L127.836 103.5H128.986V109H128.126V106C128.126 105.807 128.129 105.603 128.136 105.39C128.149 105.177 128.166 104.973 128.186 104.78C128.206 104.58 128.222 104.417 128.236 104.29L126.016 109H124.866ZM14.85 123.4V122H10.94V116.5H11.84V121.2H14V116.5H14.9V121.2H15.65V123.4H14.85ZM16.9361 122V116.5H19.3161C19.8894 116.5 20.3328 116.63 20.6461 116.89C20.9594 117.143 21.1161 117.5 21.1161 117.96C21.1161 118.34 20.9861 118.647 20.7261 118.88C20.4661 119.107 20.1228 119.22 19.6961 119.22V119.14C20.1628 119.14 20.5361 119.257 20.8161 119.49C21.1028 119.723 21.2461 120.037 21.2461 120.43C21.2461 120.923 21.0794 121.31 20.7461 121.59C20.4128 121.863 19.9461 122 19.3461 122H16.9361ZM17.8161 121.21H19.3461C19.6661 121.21 19.9128 121.14 20.0861 121C20.2661 120.86 20.3561 120.663 20.3561 120.41C20.3561 120.15 20.2661 119.95 20.0861 119.81C19.9128 119.67 19.6661 119.6 19.3461 119.6H17.8161V121.21ZM17.8161 118.82H19.3161C19.5961 118.82 19.8161 118.753 19.9761 118.62C20.1428 118.487 20.2261 118.3 20.2261 118.06C20.2261 117.82 20.1461 117.633 19.9861 117.5C19.8261 117.36 19.6028 117.29 19.3161 117.29H17.8161V118.82ZM24.9922 122.1C24.5589 122.1 24.1789 122.013 23.8522 121.84C23.5322 121.667 23.2822 121.423 23.1022 121.11C22.9289 120.79 22.8422 120.42 22.8422 120V118.5C22.8422 118.073 22.9289 117.703 23.1022 117.39C23.2822 117.077 23.5322 116.833 23.8522 116.66C24.1789 116.487 24.5589 116.4 24.9922 116.4C25.4255 116.4 25.8022 116.487 26.1222 116.66C26.4489 116.833 26.6989 117.077 26.8722 117.39C27.0522 117.703 27.1422 118.073 27.1422 118.5V119.47H23.7222V120C23.7222 120.433 23.8322 120.767 24.0522 121C24.2722 121.227 24.5855 121.34 24.9922 121.34C25.3389 121.34 25.6189 121.28 25.8322 121.16C26.0455 121.033 26.1755 120.847 26.2222 120.6H27.1222C27.0622 121.06 26.8355 121.427 26.4422 121.7C26.0555 121.967 25.5722 122.1 24.9922 122.1ZM26.2622 118.87V118.5C26.2622 118.067 26.1522 117.733 25.9322 117.5C25.7189 117.267 25.4055 117.15 24.9922 117.15C24.5855 117.15 24.2722 117.267 24.0522 117.5C23.8322 117.733 23.7222 118.067 23.7222 118.5V118.79H26.3322L26.2622 118.87ZM30.5383 122V117.29H28.5383V116.5H33.4383V117.29H31.4383V122H30.5383ZM36.9844 122.08C36.5444 122.08 36.1644 121.997 35.8444 121.83C35.5244 121.663 35.2744 121.423 35.0944 121.11C34.921 120.79 34.8344 120.413 34.8344 119.98V118.52C34.8344 118.08 34.921 117.703 35.0944 117.39C35.2744 117.077 35.5244 116.837 35.8444 116.67C36.1644 116.503 36.5444 116.42 36.9844 116.42C37.4244 116.42 37.8044 116.503 38.1244 116.67C38.4444 116.837 38.691 117.077 38.8644 117.39C39.0444 117.703 39.1344 118.077 39.1344 118.51V119.98C39.1344 120.413 39.0444 120.79 38.8644 121.11C38.691 121.423 38.4444 121.663 38.1244 121.83C37.8044 121.997 37.4244 122.08 36.9844 122.08ZM36.9844 121.28C37.3777 121.28 37.6844 121.17 37.9044 120.95C38.1244 120.73 38.2344 120.407 38.2344 119.98V118.52C38.2344 118.093 38.1244 117.77 37.9044 117.55C37.6844 117.33 37.3777 117.22 36.9844 117.22C36.5977 117.22 36.291 117.33 36.0644 117.55C35.8444 117.77 35.7344 118.093 35.7344 118.52V119.98C35.7344 120.407 35.8444 120.73 36.0644 120.95C36.291 121.17 36.5977 121.28 36.9844 121.28ZM40.9205 122V116.5H43.3005C43.8738 116.5 44.3171 116.63 44.6305 116.89C44.9438 117.143 45.1005 117.5 45.1005 117.96C45.1005 118.34 44.9705 118.647 44.7105 118.88C44.4505 119.107 44.1071 119.22 43.6805 119.22V119.14C44.1471 119.14 44.5205 119.257 44.8005 119.49C45.0871 119.723 45.2305 120.037 45.2305 120.43C45.2305 120.923 45.0638 121.31 44.7305 121.59C44.3971 121.863 43.9305 122 43.3305 122H40.9205ZM41.8005 121.21H43.3305C43.6505 121.21 43.8971 121.14 44.0705 121C44.2505 120.86 44.3405 120.663 44.3405 120.41C44.3405 120.15 44.2505 119.95 44.0705 119.81C43.8971 119.67 43.6505 119.6 43.3305 119.6H41.8005V121.21ZM41.8005 118.82H43.3005C43.5805 118.82 43.8005 118.753 43.9605 118.62C44.1271 118.487 44.2105 118.3 44.2105 118.06C44.2105 117.82 44.1305 117.633 43.9705 117.5C43.8105 117.36 43.5871 117.29 43.3005 117.29H41.8005V118.82ZM46.6266 122V116.5H47.4666V118.52H47.9166C48.5099 118.52 48.9766 118.677 49.3166 118.99C49.6632 119.297 49.8366 119.72 49.8366 120.26C49.8366 120.8 49.6632 121.227 49.3166 121.54C48.9766 121.847 48.5099 122 47.9166 122H46.6266ZM47.4666 121.28H47.9166C48.2699 121.28 48.5432 121.19 48.7366 121.01C48.9366 120.83 49.0366 120.58 49.0366 120.26C49.0366 119.94 48.9366 119.69 48.7366 119.51C48.5432 119.33 48.2699 119.24 47.9166 119.24H47.4666V121.28ZM50.4866 122V116.5H51.3266V122H50.4866ZM52.4727 122L54.4227 119.17L52.5927 116.5H53.6527L54.7427 118.2C54.7893 118.273 54.8327 118.353 54.8727 118.44C54.9193 118.527 54.956 118.597 54.9827 118.65C55.0027 118.597 55.0327 118.527 55.0727 118.44C55.1193 118.353 55.166 118.273 55.2127 118.2L56.3127 116.5H57.3627L55.5327 119.18L57.4727 122H56.4127L55.2327 120.2C55.186 120.127 55.1393 120.043 55.0927 119.95C55.0527 119.85 55.016 119.77 54.9827 119.71C54.956 119.77 54.916 119.85 54.8627 119.95C54.816 120.043 54.766 120.127 54.7127 120.2L53.5227 122H52.4727ZM66.9848 122.1C66.5448 122.1 66.1582 122.017 65.8248 121.85C65.4982 121.683 65.2448 121.443 65.0648 121.13C64.8848 120.81 64.7948 120.433 64.7948 120V118.5C64.7948 118.06 64.8848 117.683 65.0648 117.37C65.2448 117.057 65.4982 116.817 65.8248 116.65C66.1582 116.483 66.5448 116.4 66.9848 116.4C67.6182 116.4 68.1282 116.57 68.5148 116.91C68.9015 117.25 69.1048 117.713 69.1248 118.3H68.2248C68.2048 117.947 68.0848 117.677 67.8648 117.49C67.6515 117.297 67.3582 117.2 66.9848 117.2C66.5915 117.2 66.2782 117.313 66.0448 117.54C65.8115 117.76 65.6948 118.077 65.6948 118.49V120C65.6948 120.413 65.8115 120.733 66.0448 120.96C66.2782 121.187 66.5915 121.3 66.9848 121.3C67.3582 121.3 67.6515 121.203 67.8648 121.01C68.0848 120.817 68.2048 120.547 68.2248 120.2H69.1248C69.1048 120.787 68.9015 121.25 68.5148 121.59C68.1282 121.93 67.6182 122.1 66.9848 122.1ZM70.4609 122L72.4109 119.17L70.5809 116.5H71.6409L72.7309 118.2C72.7776 118.273 72.8209 118.353 72.8609 118.44C72.9076 118.527 72.9443 118.597 72.9709 118.65C72.9909 118.597 73.0209 118.527 73.0609 118.44C73.1076 118.353 73.1543 118.273 73.2009 118.2L74.3009 116.5H75.3509L73.5209 119.18L75.4609 122H74.4009L73.2209 120.2C73.1743 120.127 73.1276 120.043 73.0809 119.95C73.0409 119.85 73.0043 119.77 72.9709 119.71C72.9443 119.77 72.9043 119.85 72.8509 119.95C72.8043 120.043 72.7543 120.127 72.7009 120.2L71.5109 122H70.4609ZM78.957 122.1C78.5237 122.1 78.1437 122.013 77.817 121.84C77.497 121.667 77.247 121.423 77.067 121.11C76.8937 120.79 76.807 120.42 76.807 120V118.5C76.807 118.073 76.8937 117.703 77.067 117.39C77.247 117.077 77.497 116.833 77.817 116.66C78.1437 116.487 78.5237 116.4 78.957 116.4C79.3904 116.4 79.767 116.487 80.087 116.66C80.4137 116.833 80.6637 117.077 80.837 117.39C81.017 117.703 81.107 118.073 81.107 118.5V119.47H77.687V120C77.687 120.433 77.797 120.767 78.017 121C78.237 121.227 78.5504 121.34 78.957 121.34C79.3037 121.34 79.5837 121.28 79.797 121.16C80.0104 121.033 80.1404 120.847 80.187 120.6H81.087C81.027 121.06 80.8004 121.427 80.407 121.7C80.0204 121.967 79.537 122.1 78.957 122.1ZM80.227 118.87V118.5C80.227 118.067 80.117 117.733 79.897 117.5C79.6837 117.267 79.3704 117.15 78.957 117.15C78.5504 117.15 78.237 117.267 78.017 117.5C77.797 117.733 77.687 118.067 77.687 118.5V118.79H80.297L80.227 118.87ZM82.7131 122V116.5H83.9331L84.6531 118.61C84.7265 118.823 84.7931 119.037 84.8531 119.25C84.9131 119.457 84.9565 119.617 84.9831 119.73C85.0098 119.617 85.0498 119.457 85.1031 119.25C85.1631 119.037 85.2265 118.82 85.2931 118.6L85.9731 116.5H87.1931V122H86.3231V121.15C86.3231 120.85 86.3265 120.523 86.3331 120.17C86.3398 119.817 86.3465 119.46 86.3531 119.1C86.3665 118.74 86.3798 118.4 86.3931 118.08C86.4065 117.753 86.4165 117.467 86.4231 117.22L85.4431 120.35H84.4931L83.5031 117.24C83.5165 117.54 83.5265 117.913 83.5331 118.36C83.5465 118.807 83.5565 119.273 83.5631 119.76C83.5765 120.247 83.5831 120.71 83.5831 121.15V122H82.7131ZM90.9492 122.1C90.6959 122.1 90.4926 122.027 90.3392 121.88C90.1926 121.733 90.1192 121.537 90.1192 121.29C90.1192 121.03 90.1926 120.823 90.3392 120.67C90.4926 120.517 90.6959 120.44 90.9492 120.44C91.2026 120.44 91.4026 120.517 91.5492 120.67C91.7026 120.823 91.7792 121.03 91.7792 121.29C91.7792 121.537 91.7026 121.733 91.5492 121.88C91.4026 122.027 91.2026 122.1 90.9492 122.1Z" fill="black"/>
<path d="M35.7793 25V19.1H33.9293V17.7H39.1293V19.1H37.2793V25H35.7793ZM42.5354 25.1C42.0487 25.1 41.6221 25.01 41.2554 24.83C40.8954 24.6433 40.6154 24.3867 40.4154 24.06C40.2221 23.7267 40.1254 23.34 40.1254 22.9V21.6C40.1254 21.16 40.2221 20.7767 40.4154 20.45C40.6154 20.1167 40.8954 19.86 41.2554 19.68C41.6221 19.4933 42.0487 19.4 42.5354 19.4C43.0221 19.4 43.4421 19.4933 43.7954 19.68C44.1554 19.86 44.4321 20.1167 44.6254 20.45C44.8254 20.7767 44.9254 21.16 44.9254 21.6V22.6H41.5554V22.9C41.5554 23.2467 41.6387 23.51 41.8054 23.69C41.9721 23.8633 42.2221 23.95 42.5554 23.95C42.7887 23.95 42.9754 23.91 43.1154 23.83C43.2621 23.75 43.3587 23.64 43.4054 23.5H44.8754C44.7554 23.98 44.4821 24.3667 44.0554 24.66C43.6354 24.9533 43.1287 25.1 42.5354 25.1ZM43.4954 21.83V21.58C43.4954 21.24 43.4154 20.98 43.2554 20.8C43.1021 20.62 42.8621 20.53 42.5354 20.53C42.2087 20.53 41.9621 20.6233 41.7954 20.81C41.6354 20.9967 41.5554 21.26 41.5554 21.6V21.75L43.5954 21.73L43.4954 21.83ZM45.9415 25V19.5H47.6315L48.2815 21.55C48.3548 21.7833 48.4115 21.9967 48.4515 22.19C48.4982 22.3767 48.5248 22.5167 48.5315 22.61C48.5448 22.5167 48.5682 22.3767 48.6015 22.19C48.6415 21.9967 48.6982 21.7833 48.7715 21.55L49.4115 19.5H51.1015V25H49.7315V24C49.7315 23.78 49.7348 23.5333 49.7415 23.26C49.7548 22.98 49.7682 22.6933 49.7815 22.4C49.8015 22.1 49.8182 21.8133 49.8315 21.54C49.8515 21.26 49.8715 21.0133 49.8915 20.8L49.1615 23.45H47.8915L47.1215 20.8C47.1482 21.0733 47.1748 21.4 47.2015 21.78C47.2348 22.16 47.2615 22.5467 47.2815 22.94C47.3015 23.3267 47.3115 23.68 47.3115 24V25H45.9415ZM51.9176 25V19.5H53.1676V21.25H53.4676C54.0609 21.25 54.5342 21.4233 54.8876 21.77C55.2409 22.1167 55.4176 22.58 55.4176 23.16C55.4176 23.7133 55.2376 24.16 54.8776 24.5C54.5242 24.8333 54.0542 25 53.4676 25H51.9176ZM53.1676 23.85H53.4676C53.7076 23.85 53.8909 23.79 54.0176 23.67C54.1509 23.55 54.2176 23.3767 54.2176 23.15C54.2176 22.91 54.1509 22.7267 54.0176 22.6C53.8909 22.4667 53.7076 22.4 53.4676 22.4H53.1676V23.85ZM55.8676 25V19.5H57.1176V25H55.8676ZM66.5098 25.1C66.0231 25.1 65.5998 25.01 65.2398 24.83C64.8798 24.6433 64.5998 24.3867 64.3998 24.06C64.2064 23.7267 64.1098 23.34 64.1098 22.9V21.6C64.1098 21.16 64.2064 20.7767 64.3998 20.45C64.5998 20.1167 64.8798 19.86 65.2398 19.68C65.5998 19.4933 66.0231 19.4 66.5098 19.4C67.0031 19.4 67.4264 19.4933 67.7798 19.68C68.1398 19.86 68.4164 20.1167 68.6098 20.45C68.8098 20.7767 68.9098 21.16 68.9098 21.6V22.9C68.9098 23.34 68.8098 23.7267 68.6098 24.06C68.4164 24.3867 68.1398 24.6433 67.7798 24.83C67.4264 25.01 67.0031 25.1 66.5098 25.1ZM66.5098 23.8C66.8031 23.8 67.0264 23.7233 67.1798 23.57C67.3331 23.41 67.4098 23.1867 67.4098 22.9V21.6C67.4098 21.3067 67.3331 21.0833 67.1798 20.93C67.0264 20.7767 66.8031 20.7 66.5098 20.7C66.2231 20.7 65.9998 20.7767 65.8398 20.93C65.6864 21.0833 65.6098 21.3067 65.6098 21.6V22.9C65.6098 23.1867 65.6864 23.41 65.8398 23.57C65.9998 23.7233 66.2231 23.8 66.5098 23.8ZM71.8959 26.8V25C71.2625 25 70.7625 24.8167 70.3959 24.45C70.0359 24.0767 69.8559 23.57 69.8559 22.93V21.56C69.8559 20.9267 70.0392 20.4267 70.4059 20.06C70.7725 19.6867 71.2692 19.5 71.8959 19.5V17.7H73.1159V19.5C73.7492 19.5 74.2459 19.6867 74.6059 20.06C74.9725 20.4267 75.1559 20.9267 75.1559 21.56V22.93C75.1559 23.57 74.9725 24.0767 74.6059 24.45C74.2459 24.8167 73.7492 25 73.1159 25V26.8H71.8959ZM71.9659 23.82V20.67C71.7059 20.67 71.4992 20.75 71.3459 20.91C71.1992 21.0633 71.1259 21.28 71.1259 21.56V22.93C71.1259 23.21 71.1992 23.43 71.3459 23.59C71.4992 23.7433 71.7059 23.82 71.9659 23.82ZM73.0459 23.82C73.3059 23.82 73.5092 23.7433 73.6559 23.59C73.8092 23.43 73.8859 23.21 73.8859 22.93V21.56C73.8859 21.28 73.8092 21.0633 73.6559 20.91C73.5092 20.75 73.3059 20.67 73.0459 20.67V23.82ZM78.502 25.1C78.0153 25.1 77.592 25.01 77.232 24.83C76.872 24.6433 76.592 24.3867 76.392 24.06C76.1986 23.7267 76.102 23.34 76.102 22.9V21.6C76.102 21.16 76.1986 20.7767 76.392 20.45C76.592 20.1167 76.872 19.86 77.232 19.68C77.592 19.4933 78.0153 19.4 78.502 19.4C78.9953 19.4 79.4186 19.4933 79.772 19.68C80.132 19.86 80.4086 20.1167 80.602 20.45C80.802 20.7767 80.902 21.16 80.902 21.6V22.9C80.902 23.34 80.802 23.7267 80.602 24.06C80.4086 24.3867 80.132 24.6433 79.772 24.83C79.4186 25.01 78.9953 25.1 78.502 25.1ZM78.502 23.8C78.7953 23.8 79.0186 23.7233 79.172 23.57C79.3253 23.41 79.402 23.1867 79.402 22.9V21.6C79.402 21.3067 79.3253 21.0833 79.172 20.93C79.0186 20.7767 78.7953 20.7 78.502 20.7C78.2153 20.7 77.992 20.7767 77.832 20.93C77.6786 21.0833 77.602 21.3067 77.602 21.6V22.9C77.602 23.1867 77.6786 23.41 77.832 23.57C77.992 23.7233 78.2153 23.8 78.502 23.8ZM82.158 26.8V19.5H83.608V20.55H83.958L83.608 20.9C83.608 20.4267 83.738 20.06 83.998 19.8C84.258 19.5333 84.6147 19.4 85.068 19.4C85.6214 19.4 86.0647 19.5967 86.398 19.99C86.7314 20.3767 86.898 20.8967 86.898 21.55V22.95C86.898 23.3833 86.8214 23.7633 86.668 24.09C86.5214 24.41 86.3114 24.66 86.038 24.84C85.7647 25.0133 85.4414 25.1 85.068 25.1C84.6147 25.1 84.258 24.97 83.998 24.71C83.738 24.4433 83.608 24.0733 83.608 23.6L83.958 23.95H83.608L83.658 25.3V26.8H82.158ZM84.528 23.8C84.808 23.8 85.0214 23.7233 85.168 23.57C85.3214 23.41 85.398 23.1867 85.398 22.9V21.6C85.398 21.3067 85.3214 21.0833 85.168 20.93C85.0214 20.7767 84.808 20.7 84.528 20.7C84.2547 20.7 84.0414 20.78 83.888 20.94C83.7347 21.0933 83.658 21.3133 83.658 21.6V22.9C83.658 23.1867 83.7347 23.41 83.888 23.57C84.0414 23.7233 84.2547 23.8 84.528 23.8ZM87.9141 25V19.5H89.6041L90.2541 21.55C90.3275 21.7833 90.3841 21.9967 90.4241 22.19C90.4708 22.3767 90.4975 22.5167 90.5041 22.61C90.5175 22.5167 90.5408 22.3767 90.5741 22.19C90.6141 21.9967 90.6708 21.7833 90.7441 21.55L91.3841 19.5H93.0741V25H91.7041V24C91.7041 23.78 91.7075 23.5333 91.7141 23.26C91.7275 22.98 91.7408 22.6933 91.7541 22.4C91.7741 22.1 91.7908 21.8133 91.8041 21.54C91.8241 21.26 91.8441 21.0133 91.8641 20.8L91.1341 23.45H89.8641L89.0941 20.8C89.1208 21.0733 89.1475 21.4 89.1741 21.78C89.2075 22.16 89.2341 22.5467 89.2541 22.94C89.2741 23.3267 89.2841 23.68 89.2841 24V25H87.9141ZM93.7002 25.07V23.72H94.0002C94.1736 23.72 94.3169 23.6467 94.4302 23.5C94.5436 23.3533 94.6036 23.16 94.6102 22.92L94.6702 19.5H98.8302V25H97.3302V20.9H96.1402L96.1002 23.02C96.0936 23.4267 96.0036 23.7867 95.8302 24.1C95.6636 24.4067 95.4302 24.6467 95.1302 24.82C94.8369 24.9867 94.4936 25.07 94.1002 25.07H93.7002ZM102.496 25.1C102.01 25.1 101.583 25.01 101.216 24.83C100.856 24.6433 100.576 24.3867 100.376 24.06C100.183 23.7267 100.086 23.34 100.086 22.9V21.6C100.086 21.16 100.183 20.7767 100.376 20.45C100.576 20.1167 100.856 19.86 101.216 19.68C101.583 19.4933 102.01 19.4 102.496 19.4C102.983 19.4 103.403 19.4933 103.756 19.68C104.116 19.86 104.393 20.1167 104.586 20.45C104.786 20.7767 104.886 21.16 104.886 21.6V22.6H101.516V22.9C101.516 23.2467 101.6 23.51 101.766 23.69C101.933 23.8633 102.183 23.95 102.516 23.95C102.75 23.95 102.936 23.91 103.076 23.83C103.223 23.75 103.32 23.64 103.366 23.5H104.836C104.716 23.98 104.443 24.3667 104.016 24.66C103.596 24.9533 103.09 25.1 102.496 25.1ZM103.456 21.83V21.58C103.456 21.24 103.376 20.98 103.216 20.8C103.063 20.62 102.823 20.53 102.496 20.53C102.17 20.53 101.923 20.6233 101.756 20.81C101.596 20.9967 101.516 21.26 101.516 21.6V21.75L103.556 21.73L103.456 21.83ZM106.142 25V19.5H107.642V21.51H109.322V19.5H110.822V25H109.322V22.91H107.642V25H106.142ZM112.139 25V19.5H113.459V22C113.459 22.1667 113.449 22.3767 113.429 22.63C113.409 22.8767 113.382 23.1267 113.349 23.38C113.322 23.6333 113.292 23.8567 113.259 24.05L114.999 19.5H116.819V25H115.499V22.5C115.499 22.3267 115.509 22.13 115.529 21.91C115.549 21.6833 115.572 21.4567 115.599 21.23C115.625 21.0033 115.652 20.81 115.679 20.65L113.959 25H112.139ZM117.975 25L119.175 23.07C118.821 22.9367 118.545 22.7267 118.345 22.44C118.145 22.1533 118.045 21.8167 118.045 21.43C118.045 20.8233 118.248 20.35 118.655 20.01C119.061 19.67 119.625 19.5 120.345 19.5H122.815V25H121.325V23.26H120.665L119.665 25H117.975ZM120.435 22.12H121.335V20.69H120.435C120.155 20.69 119.935 20.7533 119.775 20.88C119.615 21.0067 119.535 21.1833 119.535 21.41C119.535 21.6367 119.611 21.8133 119.765 21.94C119.925 22.06 120.148 22.12 120.435 22.12Z" fill="white"/>
<defs>
<filter id="filter0_f_341_3378" x="-18.2729" y="161.228" width="113.546" height="79.7266" filterUnits="userSpaceOnUse" color-interpolation-filters="sRGB">
<feFlood flood-opacity="0" result="BackgroundImageFix"/>
<feBlend mode="normal" in="SourceGraphic" in2="BackgroundImageFix" result="shape"/>
<feGaussianBlur stdDeviation="2" result="effect1_foregroundBlur_341_3378"/>
</filter>
<linearGradient id="paint0_linear_341_3378" x1="1.49396e-06" y1="90.0131" x2="223.91" y2="90.0131" gradientUnits="userSpaceOnUse">
<stop stop-color="#F1FFF7"/>
<stop offset="1" stop-color="#546A65"/>
</linearGradient>
<linearGradient id="paint1_linear_341_3378" x1="11.7847" y1="10.8016" x2="188.944" y2="149.868" gradientUnits="userSpaceOnUse">
<stop stop-color="#475E59" stop-opacity="0.7"/>
<stop offset="1" stop-color="white" stop-opacity="0.7"/>
</linearGradient>
<linearGradient id="paint2_linear_341_3378" x1="1.49396e-06" y1="90.0131" x2="223.91" y2="90.0131" gradientUnits="userSpaceOnUse">
<stop stop-color="#F1FFF7"/>
<stop offset="1" stop-color="#546A65"/>
</linearGradient>
<linearGradient id="paint3_linear_341_3378" x1="11.7847" y1="10.8016" x2="188.944" y2="149.868" gradientUnits="userSpaceOnUse">
<stop stop-color="#475E59" stop-opacity="0.7"/>
<stop offset="1" stop-color="white" stop-opacity="0.7"/>
</linearGradient>
<linearGradient id="paint4_linear_341_3378" x1="1.492e-06" y1="74.1573" x2="223.615" y2="74.1573" gradientUnits="userSpaceOnUse">
<stop stop-color="#F1FFF7"/>
<stop offset="1" stop-color="#546A65"/>
</linearGradient>
<linearGradient id="paint5_linear_341_3378" x1="11.7692" y1="8.89887" x2="161.835" y2="151.696" gradientUnits="userSpaceOnUse">
<stop stop-color="#475E59" stop-opacity="0.7"/>
<stop offset="1" stop-color="white" stop-opacity="0.7"/>
</linearGradient>
</defs>
</svg>
