<svg width="354" height="367" fill="none" xmlns="http://www.w3.org/2000/svg"><rect x=".265" y=".265" width="201.47" height="108.336" rx="12.321" fill="#C3BFAB" stroke="#fff" stroke-width=".53"/><path d="M9.26 48V37.05h3.585c.71 0 1.325.135 1.845.405.53.27.935.655 1.215 1.155.29.49.435 1.07.435 1.74 0 .66-.145 1.24-.435 1.74-.29.5-.695.885-1.215 1.155-.52.27-1.135.405-1.845.405H10.88V48H9.26zm1.62-5.805h1.965c.56 0 1.005-.165 1.335-.495.34-.34.51-.79.51-1.35 0-.57-.17-1.02-.51-1.35-.33-.33-.775-.495-1.335-.495H10.88v3.69zm9.716 5.955c-.86 0-1.54-.22-2.04-.66-.49-.45-.735-1.06-.735-1.83 0-.78.26-1.39.78-1.83.53-.45 1.255-.675 2.175-.675h2.295v-.765c0-.45-.14-.8-.42-1.05-.28-.25-.675-.375-1.185-.375-.45 0-.825.1-1.125.3-.3.19-.475.445-.525.765h-1.59c.09-.74.43-1.33 1.02-1.77.6-.44 1.355-.66 2.265-.66.98 0 1.755.25 2.325.75.57.49.855 1.16.855 2.01V48h-1.575v-1.515h-.27l.27-.3c0 .6-.23 1.08-.69 1.44-.46.35-1.07.525-1.83.525zm.48-1.245c.58 0 1.055-.145 1.425-.435.38-.3.57-.68.57-1.14v-1.08h-2.265c-.42 0-.755.115-1.005.345-.24.23-.36.545-.36.945 0 .42.145.755.435 1.005.29.24.69.36 1.2.36zm8.86 1.2c-.88 0-1.605-.195-2.175-.585-.57-.4-.915-.935-1.035-1.605h1.65c.07.24.245.44.525.6.28.15.625.225 1.035.225h.75c.45 0 .8-.105 1.05-.315.25-.21.375-.485.375-.825 0-.35-.125-.63-.375-.84-.24-.21-.59-.315-1.05-.315h-1.845v-1.32h1.785c.42 0 .74-.095.96-.285.22-.2.33-.465.33-.795 0-.22-.05-.405-.15-.555a.833.833 0 00-.42-.36 1.82 1.82 0 00-.705-.12h-.735c-.37 0-.69.085-.96.255-.26.16-.42.365-.48.615h-1.65c.11-.66.445-1.195 1.005-1.605.57-.42 1.265-.63 2.085-.63h.735c.61 0 1.135.095 1.575.285.44.18.775.44 1.005.78.24.34.36.74.36 1.2 0 .51-.175.93-.525 1.26-.35.32-.83.49-1.44.51.72.04 1.26.235 1.62.585.36.34.54.82.54 1.44 0 .73-.28 1.315-.84 1.755-.56.43-1.31.645-2.25.645h-.75zm6.086 2.595V39.75h1.605v1.575h.345l-.345.375c0-.65.2-1.16.6-1.53.41-.38.955-.57 1.635-.57.83 0 1.49.28 1.98.84.5.55.75 1.305.75 2.265v2.325c0 .64-.115 1.195-.345 1.665-.22.46-.535.82-.945 1.08-.4.25-.88.375-1.44.375-.67 0-1.21-.185-1.62-.555-.41-.38-.615-.895-.615-1.545l.345.375h-.375l.045 1.92V50.7h-1.62zm3.285-3.96c.53 0 .94-.15 1.23-.45.3-.31.45-.755.45-1.335v-2.16c0-.58-.15-1.02-.45-1.32-.29-.31-.7-.465-1.23-.465-.51 0-.915.16-1.215.48-.3.31-.45.745-.45 1.305v2.16c0 .56.15 1 .45 1.32.3.31.705.465 1.215.465zm8.05 1.41c-.86 0-1.54-.22-2.04-.66-.49-.45-.735-1.06-.735-1.83 0-.78.26-1.39.78-1.83.53-.45 1.255-.675 2.175-.675h2.295v-.765c0-.45-.14-.8-.42-1.05-.28-.25-.675-.375-1.185-.375-.45 0-.825.1-1.125.3-.3.19-.475.445-.525.765h-1.59c.09-.74.43-1.33 1.02-1.77.6-.44 1.355-.66 2.265-.66.98 0 1.755.25 2.325.75.57.49.855 1.16.855 2.01V48h-1.575v-1.515h-.27l.27-.3c0 .6-.23 1.08-.69 1.44-.46.35-1.07.525-1.83.525zm.48-1.245c.58 0 1.055-.145 1.425-.435.38-.3.57-.68.57-1.14v-1.08h-2.265c-.42 0-.755.115-1.005.345-.24.23-.36.545-.36.945 0 .42.145.755.435 1.005.29.24.69.36 1.2.36zm9.266 1.245c-1.01-.01-1.81-.3-2.4-.87-.59-.58-.885-1.37-.885-2.37v-3.735c0-1.32.34-2.335 1.02-3.045.69-.72 1.67-1.08 2.94-1.08h2.205v1.59h-2.205c-.77 0-1.355.22-1.755.66-.39.43-.585 1.055-.585 1.875v.99h.21l-.195.285c0-.58.19-1.035.57-1.365.39-.34.925-.51 1.605-.51.87 0 1.545.285 2.025.855.49.56.735 1.335.735 2.325v1.155c0 .67-.135 1.25-.405 1.74-.26.48-.635.85-1.125 1.11-.49.26-1.075.39-1.755.39zm0-1.425c.54 0 .95-.155 1.23-.465.29-.32.435-.77.435-1.35v-1.155c0-.59-.145-1.04-.435-1.35-.28-.32-.69-.48-1.23-.48s-.955.155-1.245.465c-.28.31-.42.765-.42 1.365v1.155c0 .58.14 1.03.42 1.35.29.31.705.465 1.245.465zm8.92 1.41c-.68 0-1.27-.13-1.77-.39a2.75 2.75 0 01-1.154-1.11c-.27-.48-.405-1.045-.405-1.695v-2.13c0-.66.135-1.225.405-1.695.27-.48.655-.85 1.155-1.11.5-.26 1.09-.39 1.77-.39.68 0 1.27.13 1.77.39s.885.63 1.155 1.11c.27.47.405 1.035.405 1.695v2.13c0 .65-.135 1.215-.405 1.695s-.655.85-1.155 1.11c-.5.26-1.09.39-1.77.39zm0-1.425c.55 0 .976-.15 1.276-.45.3-.31.45-.75.45-1.32v-2.13c0-.58-.15-1.02-.45-1.32-.3-.3-.725-.45-1.275-.45-.54 0-.965.15-1.275.45-.3.3-.45.74-.45 1.32v2.13c0 .57.15 1.01.45 1.32.31.3.735.45 1.275.45zM74.135 48v-6.795h-2.91V39.75h7.44v1.455h-2.91V48h-1.62zm6.566 0v-8.25h1.62v3.315h1.32l2.19-3.315h1.83l-2.625 3.96 2.67 4.29h-1.86l-2.205-3.54h-1.32V48H80.7zm11.26.15c-.86 0-1.54-.22-2.04-.66-.49-.45-.734-1.06-.734-1.83 0-.78.26-1.39.78-1.83.53-.45 1.255-.675 2.175-.675h2.294v-.765c0-.45-.14-.8-.42-1.05-.28-.25-.674-.375-1.184-.375-.45 0-.826.1-1.126.3-.3.19-.474.445-.525.765h-1.59c.09-.74.43-1.33 1.02-1.77.6-.44 1.356-.66 2.266-.66.98 0 1.754.25 2.325.75.57.49.855 1.16.855 2.01V48H94.48v-1.515h-.27l.27-.3c0 .6-.23 1.08-.69 1.44-.46.35-1.07.525-1.83.525zm.48-1.245c.58 0 1.056-.145 1.425-.435.38-.3.57-.68.57-1.14v-1.08h-2.264c-.42 0-.756.115-1.006.345-.24.23-.36.545-.36.945 0 .42.145.755.435 1.005.29.24.69.36 1.2.36zM109.502 48v-8.85h-2.775v-2.1h7.8v2.1h-2.775V48h-2.25zm10.06.15c-.73 0-1.37-.135-1.92-.405-.54-.28-.96-.665-1.26-1.155-.29-.5-.435-1.08-.435-1.74V42.9c0-.66.145-1.235.435-1.725.3-.5.72-.885 1.26-1.155.55-.28 1.19-.42 1.92-.42s1.36.14 1.89.42c.54.27.955.655 1.245 1.155.3.49.45 1.065.45 1.725v1.5h-5.055v.45c0 .52.125.915.375 1.185.25.26.625.39 1.125.39.35 0 .63-.06.84-.18a.872.872 0 00.435-.495h2.205c-.18.72-.59 1.3-1.23 1.74-.63.44-1.39.66-2.28.66zm1.44-4.905v-.375c0-.51-.12-.9-.36-1.17-.23-.27-.59-.405-1.08-.405-.49 0-.86.14-1.11.42-.24.28-.36.675-.36 1.185v.225l3.06-.03-.15.15zM129.818 48c-.58 0-1.09-.12-1.53-.36a2.708 2.708 0 01-1.035-1.035c-.24-.44-.36-.95-.36-1.53v-6h-2.55V37.05h4.8v8.025c0 .27.08.49.24.66.17.16.39.24.66.24h2.4V48h-2.625zm7.586.15c-.73 0-1.37-.135-1.92-.405-.54-.28-.96-.665-1.26-1.155-.29-.5-.435-1.08-.435-1.74V42.9c0-.66.145-1.235.435-1.725.3-.5.72-.885 1.26-1.155.55-.28 1.19-.42 1.92-.42s1.36.14 1.89.42c.54.27.955.655 1.245 1.155.3.49.45 1.065.45 1.725v1.5h-5.055v.45c0 .52.125.915.375 1.185.25.26.625.39 1.125.39.35 0 .63-.06.84-.18a.872.872 0 00.435-.495h2.205c-.18.72-.59 1.3-1.23 1.74-.63.44-1.39.66-2.28.66zm1.44-4.905v-.375c0-.51-.12-.9-.36-1.17-.23-.27-.59-.405-1.08-.405-.49 0-.86.14-1.11.42-.24.28-.36.675-.36 1.185v.225l3.06-.03-.15.15zm5.14 7.455v-1.8h2.325c.42 0 .74-.105.96-.315.23-.21.345-.5.345-.87V47.4l.03-1.575h-.525l.525-.525c0 .71-.195 1.265-.585 1.665-.39.39-.925.585-1.605.585-.83 0-1.495-.29-1.995-.87-.5-.58-.75-1.365-.75-2.355v-1.5c0-.98.25-1.76.75-2.34.5-.59 1.165-.885 1.995-.885.68 0 1.215.2 1.605.6.39.39.585.94.585 1.65l-.525-.525h.525l-.075-1.575h2.25v8.04c0 .9-.31 1.61-.93 2.13-.61.52-1.445.78-2.505.78h-2.4zm2.28-5.1c.41 0 .73-.115.96-.345.23-.24.345-.575.345-1.005V42.9c0-.43-.115-.76-.345-.99-.23-.24-.55-.36-.96-.36-.42 0-.745.12-.975.36-.22.23-.33.56-.33.99v1.35c0 .43.11.765.33 1.005.23.23.555.345.975.345zm5.696 2.4v-8.25h2.1v1.575h.57l-.645.96c0-.89.205-1.56.615-2.01.41-.45 1.01-.675 1.8-.675.91 0 1.615.275 2.115.825.51.55.765 1.325.765 2.325v.675h-2.4V42.9c0-.45-.125-.8-.375-1.05-.24-.25-.565-.375-.975-.375-.43 0-.76.125-.99.375-.22.25-.33.6-.33 1.05V48h-2.25zm11.125.15c-.83 0-1.49-.225-1.98-.675-.48-.45-.72-1.06-.72-1.83 0-.83.285-1.465.855-1.905.58-.45 1.41-.675 2.49-.675h1.71v-.615a.941.941 0 00-.345-.765c-.22-.19-.52-.285-.9-.285-.35 0-.64.08-.87.24-.23.16-.37.38-.42.66h-2.175c.09-.83.45-1.485 1.08-1.965.64-.49 1.46-.735 2.46-.735 1.05 0 1.88.26 2.49.78.62.51.93 1.2.93 2.07V48h-2.175v-1.35h-.36l.375-.525c0 .62-.225 1.115-.675 1.485-.44.36-1.03.54-1.77.54zm.84-1.65c.44 0 .8-.115 1.08-.345.29-.24.435-.55.435-.93v-.885h-1.665c-.34 0-.615.1-.825.3-.21.19-.315.445-.315.765 0 .34.115.61.345.81.23.19.545.285.945.285zm5.276 1.5v-8.25h1.77v1.2h.36l-.285.21c0-.47.135-.845.405-1.125.27-.29.605-.435 1.005-.435.43 0 .765.185 1.005.555.24.37.36.86.36 1.47l-.27-.675h.42l-.135.21c0-.47.13-.845.39-1.125.26-.29.61-.435 1.05-.435.5 0 .905.19 1.215.57.31.37.465.88.465 1.53V48h-1.935v-6.15c0-.23-.05-.405-.15-.525-.1-.13-.245-.195-.435-.195s-.335.065-.435.195c-.1.12-.15.295-.15.525V48h-1.545v-6.15c0-.23-.05-.405-.15-.525-.1-.13-.245-.195-.435-.195s-.335.065-.435.195c-.1.12-.15.295-.15.525V48h-1.935zm10.391-3.9V42h4.8v2.1h-4.8zM8.99 68v-8.25h7.02V68h-2.25v-6.15h-2.52V68H8.99zm8.92 2.7V59.75h2.176v1.575h.525l-.525.525c0-.71.195-1.26.585-1.65.39-.4.925-.6 1.605-.6.83 0 1.495.295 1.995.885.5.58.75 1.36.75 2.34v2.1c0 .65-.115 1.22-.345 1.71-.22.48-.535.855-.945 1.125-.41.26-.895.39-1.455.39-.68 0-1.215-.195-1.605-.585-.39-.4-.585-.955-.585-1.665l.525.525h-.525l.075 2.025v2.25h-2.25zm3.556-4.5c.42 0 .74-.115.96-.345.23-.24.345-.575.345-1.005V62.9c0-.44-.115-.775-.345-1.005-.22-.23-.54-.345-.96-.345-.41 0-.73.12-.96.36-.23.23-.345.56-.345.99v1.95c0 .43.115.765.345 1.005.23.23.55.345.96.345zM26.83 68v-8.25h1.98v3.75c0 .25-.015.565-.045.945-.03.37-.07.745-.12 1.125-.04.38-.085.715-.135 1.005l2.61-6.825h2.73V68h-1.98v-3.75c0-.26.015-.555.045-.885.03-.34.065-.68.105-1.02.04-.34.08-.63.12-.87L29.561 68h-2.73zm8.246.105V66.08h.45c.26 0 .475-.11.645-.33.17-.22.26-.51.27-.87l.09-5.13h6.24V68h-2.25v-6.15h-1.785l-.06 3.18c-.01.61-.145 1.15-.405 1.62-.25.46-.6.82-1.05 1.08-.44.25-.955.375-1.545.375h-.6zm13.105.045c-.73 0-1.365-.135-1.905-.405-.54-.28-.96-.665-1.26-1.155-.29-.5-.435-1.08-.435-1.74V62.9c0-.66.145-1.235.435-1.725.3-.5.72-.885 1.26-1.155.54-.28 1.175-.42 1.905-.42.74 0 1.375.14 1.905.42.54.27.955.655 1.245 1.155.3.49.45 1.065.45 1.725v1.95c0 .66-.15 1.24-.45 1.74-.29.49-.705.875-1.245 1.155-.53.27-1.165.405-1.905.405zm0-1.95c.44 0 .775-.115 1.005-.345.23-.24.345-.575.345-1.005V62.9c0-.44-.115-.775-.345-1.005-.23-.23-.565-.345-1.005-.345-.43 0-.765.115-1.005.345-.23.23-.345.565-.345 1.005v1.95c0 .43.115.765.345 1.005.24.23.575.345 1.005.345zm4.466 1.8l1.575-4.23-1.455-4.02h1.95l1.215 3.675h.405V59.75h1.53v3.675h.405l1.335-3.675h1.83l-1.455 3.975L61.558 68h-1.89l-1.38-3.825h-.42V68h-1.53v-3.825h-.435L54.643 68h-1.995zm13.39.15c-.73 0-1.37-.135-1.92-.405-.54-.28-.96-.665-1.26-1.155-.29-.5-.434-1.08-.434-1.74V62.9c0-.66.145-1.235.435-1.725.3-.5.72-.885 1.26-1.155.55-.28 1.19-.42 1.92-.42s1.36.14 1.89.42c.54.27.955.655 1.245 1.155.3.49.45 1.065.45 1.725v1.5h-5.055v.45c0 .52.125.915.375 1.185.25.26.625.39 1.125.39.35 0 .63-.06.84-.18a.872.872 0 00.435-.495h2.205c-.18.72-.59 1.3-1.23 1.74-.63.44-1.39.66-2.28.66zm1.44-4.905v-.375c0-.51-.12-.9-.36-1.17-.23-.27-.59-.405-1.08-.405-.49 0-.86.14-1.11.42-.24.28-.36.675-.36 1.185v.225l3.06-.03-.15.15zM71.435 68v-8.25h2.25v3.015h2.52V59.75h2.25V68h-2.25v-3.135h-2.52V68h-2.25zm8.92 0v-8.25h1.98v3.75c0 .25-.014.565-.044.945-.03.37-.07.745-.12 1.125-.04.38-.085.715-.135 1.005l2.61-6.825h2.73V68h-1.98v-3.75c0-.26.015-.555.045-.885.03-.34.065-.68.105-1.02.04-.34.08-.63.12-.87L83.085 68h-2.73zm8.681 0l1.8-2.895c-.53-.2-.944-.515-1.244-.945-.3-.43-.45-.935-.45-1.515 0-.91.304-1.62.914-2.13.61-.51 1.455-.765 2.535-.765h3.706V68H94.06v-2.61h-.99L91.57 68h-2.534zm3.69-4.32h1.35v-2.145h-1.35c-.42 0-.75.095-.99.285-.24.19-.36.455-.36.795s.115.605.346.795c.24.18.575.27 1.004.27z" fill="#000"/><rect x="211.265" y=".265" width="142.47" height="108.47" rx="12.336" fill="#C3BFAB" stroke="#fff" stroke-width=".53"/><path d="M228.56 40.15c-.73 0-1.37-.135-1.92-.405-.55-.28-.98-.665-1.29-1.155-.3-.5-.45-1.08-.45-1.74V32.2c0-.67.15-1.25.45-1.74.31-.49.74-.87 1.29-1.14.55-.28 1.19-.42 1.92-.42.74 0 1.38.14 1.92.42.55.27.975.65 1.275 1.14.31.49.465 1.07.465 1.74h-2.25c0-.44-.125-.775-.375-1.005-.24-.23-.585-.345-1.035-.345-.45 0-.8.115-1.05.345-.24.23-.36.565-.36 1.005v4.65c0 .43.12.765.36 1.005.25.23.6.345 1.05.345.45 0 .795-.115 1.035-.345.25-.24.375-.575.375-1.005h2.25c0 .66-.155 1.24-.465 1.74-.3.49-.725.875-1.275 1.155-.54.27-1.18.405-1.92.405zm8.861 0c-.73 0-1.365-.135-1.905-.405-.54-.28-.96-.665-1.26-1.155-.29-.5-.435-1.08-.435-1.74V34.9c0-.66.145-1.235.435-1.725.3-.5.72-.885 1.26-1.155.54-.28 1.175-.42 1.905-.42.74 0 1.375.14 1.905.42.54.27.955.655 1.245 1.155.3.49.45 1.065.45 1.725v1.95c0 .66-.15 1.24-.45 1.74-.29.49-.705.875-1.245 1.155-.53.27-1.165.405-1.905.405zm0-1.95c.44 0 .775-.115 1.005-.345.23-.24.345-.575.345-1.005V34.9c0-.44-.115-.775-.345-1.005-.23-.23-.565-.345-1.005-.345-.43 0-.765.115-1.005.345-.23.23-.345.565-.345 1.005v1.95c0 .43.115.765.345 1.005.24.23.575.345 1.005.345zm5.41 1.8v-8.25h7.02V40h-2.25v-6.15h-2.52V40h-2.25zm8.921 2.7V31.75h2.175v1.575h.525l-.525.525c0-.71.195-1.26.585-1.65.39-.4.925-.6 1.605-.6.83 0 1.495.295 1.995.885.5.58.75 1.36.75 2.34v2.1c0 .65-.115 1.22-.345 1.71-.22.48-.535.855-.945 1.125-.41.26-.895.39-1.455.39-.68 0-1.215-.195-1.605-.585-.39-.4-.585-.955-.585-1.665l.525.525h-.525l.075 2.025v2.25h-2.25zm3.555-4.5c.42 0 .74-.115.96-.345.23-.24.345-.575.345-1.005V34.9c0-.44-.115-.775-.345-1.005-.22-.23-.54-.345-.96-.345-.41 0-.73.12-.96.36-.23.23-.345.56-.345.99v1.95c0 .43.115.765.345 1.005.23.23.55.345.96.345zm8.875 1.95c-.73 0-1.365-.135-1.905-.405-.54-.28-.96-.665-1.26-1.155-.29-.5-.435-1.08-.435-1.74V34.9c0-.66.145-1.235.435-1.725.3-.5.72-.885 1.26-1.155.54-.28 1.175-.42 1.905-.42.74 0 1.375.14 1.905.42.54.27.955.655 1.245 1.155.3.49.45 1.065.45 1.725v1.95c0 .66-.15 1.24-.45 1.74-.29.49-.705.875-1.245 1.155-.53.27-1.165.405-1.905.405zm0-1.95c.44 0 .775-.115 1.005-.345.23-.24.345-.575.345-1.005V34.9c0-.44-.115-.775-.345-1.005-.23-.23-.565-.345-1.005-.345-.43 0-.765.115-1.005.345-.23.23-.345.565-.345 1.005v1.95c0 .43.115.765.345 1.005.24.23.575.345 1.005.345zm5.396 1.8v-8.25h3.735c1.01 0 1.81.205 2.4.615.6.4.9.945.9 1.635 0 .55-.225.995-.675 1.335-.45.33-1.045.495-1.785.495v-.15c.81 0 1.455.18 1.935.54.49.36.735.835.735 1.425 0 .73-.3 1.305-.9 1.725-.59.42-1.395.63-2.415.63h-3.93zm2.205-1.59h1.62c.37 0 .665-.085.885-.255.23-.18.345-.41.345-.69 0-.3-.115-.54-.345-.72-.22-.18-.515-.27-.885-.27h-1.62v1.935zm0-3.255h1.545c.34 0 .61-.08.81-.24.2-.17.3-.39.3-.66 0-.28-.1-.505-.3-.675-.2-.17-.47-.255-.81-.255h-1.545v1.83zm10.241 4.995c-.73 0-1.365-.135-1.905-.405-.54-.28-.96-.665-1.26-1.155-.29-.5-.435-1.08-.435-1.74V34.9c0-.66.145-1.235.435-1.725.3-.5.72-.885 1.26-1.155.54-.28 1.175-.42 1.905-.42.74 0 1.375.14 1.905.42.54.27.955.655 1.245 1.155.3.49.45 1.065.45 1.725v1.95c0 .66-.15 1.24-.45 1.74-.29.49-.705.875-1.245 1.155-.53.27-1.165.405-1.905.405zm0-1.95c.44 0 .775-.115 1.005-.345.23-.24.345-.575.345-1.005V34.9c0-.44-.115-.775-.345-1.005-.23-.23-.565-.345-1.005-.345-.43 0-.765.115-1.005.345-.23.23-.345.565-.345 1.005v1.95c0 .43.115.765.345 1.005.24.23.575.345 1.005.345zm4.465 1.8l1.575-4.23-1.455-4.02h1.95l1.215 3.675h.405V31.75h1.53v3.675h.405l1.335-3.675h1.83l-1.455 3.975L295.399 40h-1.89l-1.38-3.825h-.42V40h-1.53v-3.825h-.435L288.484 40h-1.995zm9.206 2.1v-4.005h.465c.17-.17.345-.465.525-.885.19-.43.29-.95.3-1.56l.075-3.9h6.075v6.345h.9V42.1h-2.1V40h-4.14v2.1h-2.1zm2.7-4.005h2.64v-4.41h-1.905l-.045 1.95c-.01.58-.095 1.09-.255 1.53-.15.43-.295.74-.435.93zm10.406 2.055c-.731 0-1.371-.135-1.921-.405-.54-.28-.96-.665-1.26-1.155-.29-.5-.435-1.08-.435-1.74V34.9c0-.66.145-1.235.435-1.725.3-.5.72-.885 1.26-1.155.55-.28 1.19-.42 1.921-.42.729 0 1.359.14 1.889.42.541.27.956.655 1.246 1.155.3.49.449 1.065.449 1.725v1.5h-5.055v.45c0 .52.125.915.375 1.185.25.26.625.39 1.125.39.35 0 .631-.06.84-.18a.872.872 0 00.435-.495h2.205c-.18.72-.59 1.3-1.23 1.74-.63.44-1.39.66-2.279.66zm1.439-4.905v-.375c0-.51-.12-.9-.36-1.17-.23-.27-.59-.405-1.079-.405-.491 0-.861.14-1.111.42-.24.28-.36.675-.36 1.185v.225l3.06-.03-.15.15zM314.196 40v-8.25h2.25v3.015h2.52V31.75h2.25V40h-2.25v-3.135h-2.52V40h-2.25zm8.921 0v-8.25h1.98v3.75c0 .25-.015.565-.045.945-.03.37-.07.745-.12 1.125-.04.38-.085.715-.135 1.005l2.61-6.825h2.73V40h-1.98v-3.75c0-.26.015-.555.045-.885.03-.34.065-.68.105-1.02.04-.34.08-.63.12-.87L325.847 40h-2.73zm12.445.15c-.73 0-1.37-.135-1.92-.405-.54-.28-.96-.665-1.26-1.155-.29-.5-.435-1.08-.435-1.74V34.9c0-.66.145-1.235.435-1.725.3-.5.72-.885 1.26-1.155.55-.28 1.19-.42 1.92-.42s1.36.14 1.89.42c.54.27.955.655 1.245 1.155.3.49.45 1.065.45 1.725v1.5h-5.055v.45c0 .52.125.915.375 1.185.25.26.625.39 1.125.39.35 0 .63-.06.84-.18a.872.872 0 00.435-.495h2.205c-.18.72-.59 1.3-1.23 1.74-.63.44-1.39.66-2.28.66zm1.44-4.905v-.375c0-.51-.12-.9-.36-1.17-.23-.27-.59-.405-1.08-.405-.49 0-.86.14-1.11.42-.24.28-.36.675-.36 1.185v.225l3.06-.03-.15.15zM225.47 60v-8.25h1.155v4.695c0 .28-.01.58-.03.9a22.728 22.728 0 01-.105 1.59l3.495-7.185h1.545V60h-1.155v-4.695c0-.29.005-.59.015-.9.02-.31.04-.605.06-.885.03-.29.05-.53.06-.72L227 60h-1.53zm17.361 0v-8.25h7.02V60h-2.25v-6.15h-2.52V60h-2.25zm12.431.15c-.73 0-1.365-.135-1.905-.405-.54-.28-.96-.665-1.26-1.155-.29-.5-.435-1.08-.435-1.74V54.9c0-.66.145-1.235.435-1.725.3-.5.72-.885 1.26-1.155.54-.28 1.175-.42 1.905-.42.74 0 1.375.14 1.905.42.54.27.955.655 1.245 1.155.3.49.45 1.065.45 1.725v1.95c0 .66-.15 1.24-.45 1.74-.29.49-.705.875-1.245 1.155-.53.27-1.165.405-1.905.405zm0-1.95c.44 0 .775-.115 1.005-.345.23-.24.345-.575.345-1.005V54.9c0-.44-.115-.775-.345-1.005-.23-.23-.565-.345-1.005-.345-.43 0-.765.115-1.005.345-.23.23-.345.565-.345 1.005v1.95c0 .43.115.765.345 1.005.24.23.575.345 1.005.345zm4.75 3.9v-4.005h.465c.17-.17.345-.465.525-.885.19-.43.29-.95.3-1.56l.075-3.9h6.075v6.345h.9V62.1h-2.1V60h-4.14v2.1h-2.1zm2.7-4.005h2.64v-4.41h-1.905l-.045 1.95c-.01.58-.095 1.09-.255 1.53-.15.43-.295.74-.435.93zm6.221 4.005v-4.005h.465c.17-.17.345-.465.525-.885.19-.43.29-.95.3-1.56l.075-3.9h6.075v6.345h.9V62.1h-2.1V60h-4.14v2.1h-2.1zm2.7-4.005h2.64v-4.41h-1.905l-.045 1.95c-.01.58-.095 1.09-.255 1.53-.15.43-.295.74-.435.93zm10.406 2.055c-.73 0-1.37-.135-1.92-.405-.54-.28-.96-.665-1.26-1.155-.29-.5-.435-1.08-.435-1.74V54.9c0-.66.145-1.235.435-1.725.3-.5.72-.885 1.26-1.155.55-.28 1.19-.42 1.92-.42s1.36.14 1.89.42c.54.27.955.655 1.245 1.155.3.49.45 1.065.45 1.725v1.5h-5.055v.45c0 .52.125.915.375 1.185.25.26.625.39 1.125.39.35 0 .63-.06.84-.18a.872.872 0 00.435-.495h2.205c-.18.72-.59 1.3-1.23 1.74-.63.44-1.39.66-2.28.66zm1.44-4.905v-.375c0-.51-.12-.9-.36-1.17-.23-.27-.59-.405-1.08-.405-.49 0-.86.14-1.11.42-.24.28-.36.675-.36 1.185v.225l3.06-.03-.15.15zm3.955 7.455V51.75h2.175v1.575h.525l-.525.525c0-.71.195-1.26.585-1.65.39-.4.925-.6 1.605-.6.83 0 1.495.295 1.995.885.5.58.75 1.36.75 2.34v2.1c0 .65-.115 1.22-.345 1.71-.22.48-.535.855-.945 1.125-.41.26-.895.39-1.455.39-.68 0-1.215-.195-1.605-.585-.39-.4-.585-.955-.585-1.665l.525.525h-.525l.075 2.025v2.25h-2.25zm3.555-4.5c.42 0 .74-.115.96-.345.23-.24.345-.575.345-1.005V54.9c0-.44-.115-.775-.345-1.005-.22-.23-.54-.345-.96-.345-.41 0-.73.12-.96.36-.23.23-.345.56-.345.99v1.95c0 .43.115.765.345 1.005.23.23.55.345.96.345zm4.421 1.8l1.575-4.23-1.455-4.02h1.95l1.215 3.675h.405V51.75h1.53v3.675h.405l1.335-3.675h1.83l-1.455 3.975L304.32 60h-1.89l-1.38-3.825h-.42V60h-1.53v-3.825h-.435L297.405 60h-1.995zm9.91 0v-8.25h2.25v3.12h1.11l1.725-3.12h2.506l-2.296 4.035 2.34 4.215h-2.55l-1.74-3.24h-1.095V60h-2.25zm11.321.15c-.83 0-1.49-.225-1.98-.675-.48-.45-.72-1.06-.72-1.83 0-.83.285-1.465.855-1.905.58-.45 1.41-.675 2.49-.675h1.71v-.615a.941.941 0 00-.345-.765c-.22-.19-.52-.285-.9-.285-.35 0-.64.08-.87.24-.23.16-.37.38-.42.66h-2.175c.09-.83.45-1.485 1.08-1.965.64-.49 1.46-.735 2.46-.735 1.05 0 1.88.26 2.49.78.62.51.93 1.2.93 2.07V60h-2.175v-1.35h-.36l.375-.525c0 .62-.225 1.115-.675 1.485-.44.36-1.03.54-1.77.54zm.84-1.65c.44 0 .8-.115 1.08-.345.29-.24.435-.55.435-.93v-.885h-1.665c-.34 0-.615.1-.825.3-.21.19-.315.445-.315.765 0 .34.115.61.345.81.23.19.545.285.945.285zM225.47 80v-8.25h6.06V80h-1.2v-7.17h-3.66V80h-1.2zm11.951.135c-.64 0-1.195-.125-1.665-.375a2.65 2.65 0 01-1.095-1.08c-.26-.47-.39-1.025-.39-1.665v-2.28c0-.65.13-1.205.39-1.665.26-.47.625-.83 1.095-1.08.47-.25 1.025-.375 1.665-.375.64 0 1.195.125 1.665.375s.835.61 1.095 1.08c.26.46.39 1.01.39 1.65v2.295c0 .64-.13 1.195-.39 1.665s-.625.83-1.095 1.08c-.47.25-1.025.375-1.665.375zm0-1.065c.62 0 1.1-.175 1.44-.525.34-.35.51-.86.51-1.53v-2.28c0-.67-.175-1.18-.525-1.53-.34-.35-.815-.525-1.425-.525-.61 0-1.09.175-1.44.525-.34.35-.51.86-.51 1.53v2.28c0 .67.17 1.18.51 1.53.35.35.83.525 1.44.525zm8.935 1.08c-.64 0-1.2-.125-1.68-.375a2.75 2.75 0 01-1.125-1.065c-.26-.47-.39-1.025-.39-1.665v-2.34c0-.64.13-1.19.39-1.65.27-.47.645-.83 1.125-1.08.48-.25 1.04-.375 1.68-.375.94 0 1.695.255 2.265.765.57.51.865 1.205.885 2.085h-1.185c-.02-.57-.205-1.01-.555-1.32-.34-.31-.81-.465-1.41-.465-.61 0-1.095.18-1.455.54-.36.35-.54.85-.54 1.5v2.34c0 .64.18 1.14.54 1.5.36.36.845.54 1.455.54.6 0 1.07-.155 1.41-.465.35-.32.535-.76.555-1.32h1.185c-.02.88-.315 1.575-.885 2.085-.57.51-1.325.765-2.265.765zm4.826-.045V78.98h.3c.43 0 .745-.175.945-.525.2-.36.305-.955.315-1.785l.105-4.92h5.445V80h-1.2v-7.17h-3.075l-.09 3.885c-.01.78-.105 1.42-.285 1.92-.17.5-.43.87-.78 1.11-.34.24-.785.36-1.335.36h-.345zm13 .045c-.64 0-1.195-.125-1.665-.375a2.747 2.747 0 01-1.095-1.095c-.26-.47-.39-1.015-.39-1.635v-2.34c0-.63.13-1.175.39-1.635.26-.47.625-.83 1.095-1.08.47-.26 1.025-.39 1.665-.39.64 0 1.195.13 1.665.39.47.25.835.61 1.095 1.08.26.46.39 1.005.39 1.635v1.455h-5.13v.885c0 .67.17 1.19.51 1.56.35.36.84.54 1.47.54.53 0 .96-.105 1.29-.315.34-.21.555-.515.645-.915h1.185a2.394 2.394 0 01-1.005 1.635c-.56.4-1.265.6-2.115.6zm1.98-4.785v-.66c0-.67-.17-1.185-.51-1.545-.34-.37-.83-.555-1.47-.555-.63 0-1.12.185-1.47.555-.34.36-.51.875-.51 1.545v.525h4.08l-.12.135zm15.472 4.755c-.86 0-1.555-.185-2.085-.555-.53-.37-.85-.87-.96-1.5h1.245c.08.29.275.53.585.72.32.18.725.27 1.215.27h.735c.51 0 .91-.125 1.2-.375.3-.26.45-.585.45-.975 0-.42-.14-.76-.42-1.02-.28-.26-.68-.39-1.2-.39h-1.845V75.26h1.815c.47 0 .83-.12 1.08-.36.26-.24.39-.55.39-.93 0-.26-.06-.485-.18-.675a1.136 1.136 0 00-.525-.435 1.822 1.822 0 00-.795-.165h-.78c-.45 0-.82.1-1.11.3-.29.19-.47.435-.54.735h-1.245c.1-.62.405-1.125.915-1.515.52-.39 1.18-.585 1.98-.585h.78c.56 0 1.045.095 1.455.285.41.19.725.455.945.795.23.34.345.74.345 1.2 0 .5-.155.915-.465 1.245-.3.32-.725.5-1.275.54v.06c.66.04 1.145.235 1.455.585.31.34.465.81.465 1.41 0 .71-.265 1.285-.795 1.725-.52.43-1.22.645-2.1.645h-.735zm8.665.03c-.87 0-1.555-.22-2.055-.66-.5-.45-.75-1.055-.75-1.815 0-.75.245-1.34.735-1.77.49-.44 1.15-.66 1.98-.66h2.625v-.87c0-.55-.16-.975-.48-1.275-.32-.3-.775-.45-1.365-.45-.52 0-.955.115-1.305.345-.34.23-.535.54-.585.93h-1.2c.1-.71.43-1.275.99-1.695.57-.42 1.28-.63 2.13-.63.92 0 1.65.25 2.19.75.54.49.81 1.155.81 1.995V80h-1.17v-1.605h-.195l.225-.24c0 .61-.235 1.095-.705 1.455-.47.36-1.095.54-1.875.54zm.285-.96c.66 0 1.2-.165 1.62-.495.42-.33.63-.76.63-1.29V76.16h-2.61c-.47 0-.845.13-1.125.39s-.42.615-.42 1.065c0 .48.17.865.51 1.155.34.28.805.42 1.395.42zm6.251.81v-8.25h6.06V80h-1.2v-7.17h-3.66V80h-1.2zm10.21 2.7l1.215-3.225-3.06-7.725h1.32l1.95 5.145c.08.2.155.425.225.675.08.24.14.44.18.6.05-.16.11-.365.18-.615.07-.25.14-.475.21-.675l1.83-5.13h1.276l-4.066 10.95h-1.26zm10.676-2.55c-.64 0-1.2-.125-1.68-.375a2.75 2.75 0 01-1.125-1.065c-.26-.47-.39-1.025-.39-1.665v-2.34c0-.64.13-1.19.39-1.65.27-.47.645-.83 1.125-1.08.48-.25 1.04-.375 1.68-.375.94 0 1.695.255 2.265.765.57.51.865 1.205.885 2.085h-1.185c-.02-.57-.205-1.01-.555-1.32-.34-.31-.81-.465-1.41-.465-.61 0-1.095.18-1.455.54-.36.35-.54.85-.54 1.5v2.34c0 .64.18 1.14.54 1.5.36.36.845.54 1.455.54.6 0 1.07-.155 1.41-.465.35-.32.535-.76.555-1.32h1.185c-.02.88-.315 1.575-.885 2.085-.57.51-1.325.765-2.265.765zm5.921-.15v-8.25h1.2v3.465h1.56l2.445-3.465h1.365l-2.775 3.93 2.835 4.32h-1.395l-2.475-3.75h-1.56V80h-1.2zm11.26.15c-.87 0-1.555-.22-2.055-.66-.5-.45-.75-1.055-.75-1.815 0-.75.245-1.34.735-1.77.49-.44 1.15-.66 1.98-.66h2.625v-.87c0-.55-.16-.975-.48-1.275-.32-.3-.775-.45-1.365-.45-.52 0-.955.115-1.305.345-.34.23-.535.54-.585.93h-1.2c.1-.71.43-1.275.99-1.695.57-.42 1.28-.63 2.13-.63.92 0 1.65.25 2.19.75.54.49.81 1.155.81 1.995V80h-1.17v-1.605h-.195l.225-.24c0 .61-.235 1.095-.705 1.455-.47.36-1.095.54-1.875.54zm.285-.96c.66 0 1.2-.165 1.62-.495.42-.33.63-.76.63-1.29V76.16h-2.61c-.47 0-.845.13-1.125.39s-.42.615-.42 1.065c0 .48.17.865.51 1.155.34.28.805.42 1.395.42z" fill="#000"/><rect x="155.265" y="265.265" width="197.47" height="101.47" rx="12.321" fill="#C3BFAB" stroke="#fff" stroke-width=".53"/><path d="M171.33 305.1v-4.02h.465c.11-.18.225-.425.345-.735a6.436 6.436 0 00.465-2.445l.09-5.85h6.075v9.03h.9v4.02h-2.1V303h-4.14v2.1h-2.1zm2.67-4.02h2.67v-7.11h-1.905l-.06 3.915c-.01.7-.095 1.34-.255 1.92-.16.57-.31.995-.45 1.275zm6.911 1.92v-8.25h1.98v3.75c0 .25-.015.565-.045.945-.03.37-.07.745-.12 1.125-.04.38-.085.715-.135 1.005l2.61-6.825h2.73V303h-1.98v-3.75c0-.26.015-.555.045-.885.03-.34.065-.68.105-1.02.04-.34.08-.63.12-.87l-2.58 6.525h-2.73zm12.01.105c-.92 0-1.685-.225-2.295-.675-.61-.45-.98-1.06-1.11-1.83h2.175c.07.23.215.415.435.555.22.13.485.195.795.195h.855c.33 0 .59-.075.78-.225a.8.8 0 00.285-.645.741.741 0 00-.285-.615c-.19-.15-.45-.225-.78-.225h-1.935v-1.71h1.845c.31 0 .55-.065.72-.195a.7.7 0 00.255-.57c0-.17-.04-.31-.12-.42a.67.67 0 00-.33-.255c-.14-.06-.315-.09-.525-.09h-.69c-.31 0-.57.07-.78.21a.94.94 0 00-.42.54h-2.175c.13-.77.495-1.38 1.095-1.83.6-.45 1.36-.675 2.28-.675h.69c.66 0 1.23.095 1.71.285.48.18.85.44 1.11.78.26.33.39.725.39 1.185 0 .55-.21.995-.63 1.335-.41.34-.955.51-1.635.51v-.15c.74 0 1.335.19 1.785.57.45.37.675.865.675 1.485 0 .75-.3 1.35-.9 1.8-.6.44-1.405.66-2.415.66h-.855zm8.276.045c-.83 0-1.49-.225-1.98-.675-.48-.45-.72-1.06-.72-1.83 0-.83.285-1.465.855-1.905.58-.45 1.41-.675 2.49-.675h1.71v-.615a.941.941 0 00-.345-.765c-.22-.19-.52-.285-.9-.285-.35 0-.64.08-.87.24-.23.16-.37.38-.42.66h-2.175c.09-.83.45-1.485 1.08-1.965.64-.49 1.46-.735 2.46-.735 1.05 0 1.88.26 2.49.78.62.51.93 1.2.93 2.07V303h-2.175v-1.35h-.36l.375-.525c0 .62-.225 1.115-.675 1.485-.44.36-1.03.54-1.77.54zm.84-1.65c.44 0 .8-.115 1.08-.345.29-.24.435-.55.435-.93v-.885h-1.665c-.34 0-.615.1-.825.3-.21.19-.315.445-.315.765 0 .34.115.61.345.81.23.19.545.285.945.285zm5.635 1.5v-8.25h1.98v3.75c0 .25-.015.565-.045.945-.03.37-.07.745-.12 1.125-.04.38-.085.715-.135 1.005l2.61-6.825h2.73V303h-1.98v-3.75c0-.26.015-.555.045-.885.03-.34.065-.68.105-1.02.04-.34.08-.63.12-.87l-2.58 6.525h-2.73zm3.57-9.525c-.82 0-1.49-.205-2.01-.615-.51-.42-.765-.965-.765-1.635h1.725c0 .28.095.51.285.69.2.17.455.255.765.255.32 0 .575-.085.765-.255.19-.18.285-.41.285-.69h1.725c0 .67-.255 1.215-.765 1.635-.51.41-1.18.615-2.01.615zm5.351 9.525v-8.25h2.25v3.015h2.52v-3.015h2.25V303h-2.25v-3.135h-2.52V303h-2.25zm-44.123 20v-8.25h6.06V323h-1.2v-7.17h-3.66V323h-1.2zm11.951.135c-.64 0-1.195-.125-1.665-.375a2.65 2.65 0 01-1.095-1.08c-.26-.47-.39-1.025-.39-1.665v-2.28c0-.65.13-1.205.39-1.665.26-.47.625-.83 1.095-1.08.47-.25 1.025-.375 1.665-.375.64 0 1.195.125 1.665.375s.835.61 1.095 1.08c.26.46.39 1.01.39 1.65v2.295c0 .64-.13 1.195-.39 1.665s-.625.83-1.095 1.08c-.47.25-1.025.375-1.665.375zm0-1.065c.62 0 1.1-.175 1.44-.525.34-.35.51-.86.51-1.53v-2.28c0-.67-.175-1.18-.525-1.53-.34-.35-.815-.525-1.425-.525-.61 0-1.09.175-1.44.525-.34.35-.51.86-.51 1.53v2.28c0 .67.17 1.18.51 1.53.35.35.83.525 1.44.525zm4.84 1.035v-1.125h.3c.43 0 .745-.175.945-.525.2-.36.305-.955.315-1.785l.105-4.92h5.445V323h-1.2v-7.17h-3.075l-.09 3.885c-.01.78-.105 1.42-.285 1.92-.17.5-.43.87-.78 1.11-.34.24-.785.36-1.335.36h-.345zm10.046-.105v-8.25h1.185v3.03h2.475c.92 0 1.645.235 2.175.705.54.46.81 1.095.81 1.905 0 .8-.27 1.435-.81 1.905-.53.47-1.255.705-2.175.705h-3.66zm1.185-1.08h2.475c.57 0 1.005-.13 1.305-.39.3-.27.45-.65.45-1.14 0-.49-.15-.865-.45-1.125-.3-.27-.735-.405-1.305-.405h-2.475v3.06zm10.3 1.2c-.86 0-1.555-.185-2.085-.555-.53-.37-.85-.87-.96-1.5h1.245c.08.29.275.53.585.72.32.18.725.27 1.215.27h.735c.51 0 .91-.125 1.2-.375.3-.26.45-.585.45-.975 0-.42-.14-.76-.42-1.02-.28-.26-.68-.39-1.2-.39h-1.845v-1.035h1.815c.47 0 .83-.12 1.08-.36.26-.24.39-.55.39-.93 0-.26-.06-.485-.18-.675a1.136 1.136 0 00-.525-.435 1.822 1.822 0 00-.795-.165h-.78c-.45 0-.82.1-1.11.3-.29.19-.47.435-.54.735h-1.245c.1-.62.405-1.125.915-1.515.52-.39 1.18-.585 1.98-.585h.78c.56 0 1.045.095 1.455.285.41.19.725.455.945.795.23.34.345.74.345 1.2 0 .5-.155.915-.465 1.245-.3.32-.725.5-1.275.54v.06c.66.04 1.145.235 1.455.585.31.34.465.81.465 1.41 0 .71-.265 1.285-.795 1.725-.52.43-1.22.645-2.1.645h-.735zm9.311.015c-.64 0-1.195-.125-1.665-.375a2.65 2.65 0 01-1.095-1.08c-.26-.47-.39-1.025-.39-1.665v-2.28c0-.65.13-1.205.39-1.665.26-.47.625-.83 1.095-1.08.47-.25 1.025-.375 1.665-.375.64 0 1.195.125 1.665.375s.835.61 1.095 1.08c.26.46.39 1.01.39 1.65v2.295c0 .64-.13 1.195-.39 1.665s-.625.83-1.095 1.08c-.47.25-1.025.375-1.665.375zm0-1.065c.62 0 1.1-.175 1.44-.525.34-.35.51-.86.51-1.53v-2.28c0-.67-.175-1.18-.525-1.53-.34-.35-.815-.525-1.425-.525-.61 0-1.09.175-1.44.525-.34.35-.51.86-.51 1.53v2.28c0 .67.17 1.18.51 1.53.35.35.83.525 1.44.525zm5.891.93v-8.25h3.54c.82 0 1.465.195 1.935.585.47.38.705.91.705 1.59 0 .57-.195 1.03-.585 1.38-.38.34-.89.51-1.53.51v-.105c.69 0 1.245.18 1.665.54.42.35.63.82.63 1.41 0 .73-.25 1.305-.75 1.725-.49.41-1.17.615-2.04.615h-3.57zm1.17-1.05h2.4c.49 0 .88-.115 1.17-.345.29-.24.435-.56.435-.96 0-.42-.145-.745-.435-.975-.29-.24-.68-.36-1.17-.36h-2.4v2.64zm0-3.675h2.37c.44 0 .79-.11 1.05-.33.27-.22.405-.52.405-.9s-.135-.68-.405-.9c-.26-.23-.61-.345-1.05-.345h-2.37v2.475zm10.135 4.875c-.87 0-1.555-.22-2.055-.66-.5-.45-.75-1.055-.75-1.815 0-.75.245-1.34.735-1.77.49-.44 1.15-.66 1.98-.66h2.625v-.87c0-.55-.16-.975-.48-1.275-.32-.3-.775-.45-1.365-.45-.52 0-.955.115-1.305.345-.34.23-.535.54-.585.93h-1.2c.1-.71.43-1.275.99-1.695.57-.42 1.28-.63 2.13-.63.92 0 1.65.25 2.19.75.54.49.81 1.155.81 1.995V323h-1.17v-1.605h-.195l.225-.24c0 .61-.235 1.095-.705 1.455-.47.36-1.095.54-1.875.54zm.285-.96c.66 0 1.2-.165 1.62-.495.42-.33.63-.76.63-1.29v-1.245h-2.61c-.47 0-.845.13-1.125.39s-.42.615-.42 1.065c0 .48.17.865.51 1.155.34.28.805.42 1.395.42zm8.681.81v-7.185h-3v-1.065h7.2v1.065h-3V323h-1.2zm9.52.15c-.64 0-1.195-.125-1.665-.375a2.747 2.747 0 01-1.095-1.095c-.26-.47-.39-1.015-.39-1.635v-2.34c0-.63.13-1.175.39-1.635.26-.47.625-.83 1.095-1.08.47-.26 1.025-.39 1.665-.39.64 0 1.195.13 1.665.39.47.25.836.61 1.095 1.08.261.46.391 1.005.391 1.635v1.455h-5.131v.885c0 .67.17 1.19.51 1.56.35.36.84.54 1.47.54.53 0 .96-.105 1.29-.315.34-.21.555-.515.645-.915h1.185a2.394 2.394 0 01-1.005 1.635c-.56.4-1.265.6-2.115.6zm1.98-4.785v-.66c0-.67-.17-1.185-.509-1.545-.341-.37-.831-.555-1.471-.555-.63 0-1.12.185-1.47.555-.34.36-.51.875-.51 1.545v.525h4.08l-.12.135zm2.861 4.74v-1.125h.3c.43 0 .745-.175.945-.525.2-.36.305-.955.315-1.785l.105-4.92h5.445V323h-1.2v-7.17h-3.075l-.09 3.885c-.01.78-.105 1.42-.285 1.92-.17.5-.43.87-.78 1.11-.34.24-.785.36-1.335.36h-.345zm10.046-.105v-8.25h1.185v3.03h2.475c.92 0 1.645.235 2.175.705.54.46.81 1.095.81 1.905 0 .8-.27 1.435-.81 1.905-.53.47-1.255.705-2.175.705h-3.66zm1.185-1.08h2.475c.57 0 1.005-.13 1.305-.39.3-.27.45-.65.45-1.14 0-.49-.15-.865-.45-1.125-.3-.27-.735-.405-1.305-.405h-2.475v3.06zm10.705 1.23c-.64 0-1.2-.125-1.68-.375a2.75 2.75 0 01-1.125-1.065c-.26-.47-.39-1.025-.39-1.665v-2.34c0-.64.13-1.19.39-1.65.27-.47.645-.83 1.125-1.08.48-.25 1.04-.375 1.68-.375.94 0 1.695.255 2.265.765.57.51.865 1.205.885 2.085h-1.185c-.02-.57-.205-1.01-.555-1.32-.34-.31-.81-.465-1.41-.465-.61 0-1.095.18-1.455.54-.36.35-.54.85-.54 1.5v2.34c0 .64.18 1.14.54 1.5.36.36.845.54 1.455.54.6 0 1.07-.155 1.41-.465.35-.32.535-.76.555-1.32h1.185c-.02.88-.315 1.575-.885 2.085-.57.51-1.325.765-2.265.765zm5.921-.15v-8.25h1.2v3.465h1.56l2.445-3.465h1.365l-2.775 3.93 2.835 4.32h-1.395l-2.475-3.75h-1.56V323h-1.2zm11.906.135c-.64 0-1.195-.125-1.665-.375a2.65 2.65 0 01-1.095-1.08c-.26-.47-.39-1.025-.39-1.665v-2.28c0-.65.13-1.205.39-1.665.26-.47.625-.83 1.095-1.08.47-.25 1.025-.375 1.665-.375.64 0 1.195.125 1.665.375s.835.61 1.095 1.08c.26.46.39 1.01.39 1.65v2.295c0 .64-.13 1.195-.39 1.665s-.625.83-1.095 1.08c-.47.25-1.025.375-1.665.375zm0-1.065c.62 0 1.1-.175 1.44-.525.34-.35.51-.86.51-1.53v-2.28c0-.67-.175-1.18-.525-1.53-.34-.35-.815-.525-1.425-.525-.61 0-1.09.175-1.44.525-.34.35-.51.86-.51 1.53v2.28c0 .67.17 1.18.51 1.53.35.35.83.525 1.44.525zm6.43.93v-8.25h5.85v1.08h-4.665V323h-1.185zm11.411.135c-.64 0-1.195-.125-1.665-.375a2.65 2.65 0 01-1.095-1.08c-.26-.47-.39-1.025-.39-1.665v-2.28c0-.65.13-1.205.39-1.665.26-.47.625-.83 1.095-1.08.47-.25 1.025-.375 1.665-.375.64 0 1.195.125 1.665.375s.835.61 1.095 1.08c.26.46.39 1.01.39 1.65v2.295c0 .64-.13 1.195-.39 1.665s-.625.83-1.095 1.08c-.47.25-1.025.375-1.665.375zm0-1.065c.62 0 1.1-.175 1.44-.525.34-.35.51-.86.51-1.53v-2.28c0-.67-.175-1.18-.525-1.53-.34-.35-.815-.525-1.425-.525-.61 0-1.09.175-1.44.525-.34.35-.51.86-.51 1.53v2.28c0 .67.17 1.18.51 1.53.35.35.83.525 1.44.525zM172.47 343v-8.25h1.155v4.695c0 .28-.01.58-.03.9a22.728 22.728 0 01-.105 1.59l3.495-7.185h1.545V343h-1.155v-4.695c0-.29.005-.59.015-.9.02-.31.04-.605.06-.885.03-.29.05-.53.06-.72L174 343h-1.53zm8.921 0v-8.25h1.2v3.51h3.66v-3.51h1.2V343h-1.2v-3.66h-3.66V343h-1.2zm11.35 0v-7.185h-3v-1.065h7.2v1.065h-3V343h-1.2zm9.521.15c-.64 0-1.195-.125-1.665-.375a2.747 2.747 0 01-1.095-1.095c-.26-.47-.39-1.015-.39-1.635v-2.34c0-.63.13-1.175.39-1.635.26-.47.625-.83 1.095-1.08.47-.26 1.025-.39 1.665-.39.64 0 1.195.13 1.665.39.47.25.835.61 1.095 1.08.26.46.39 1.005.39 1.635v1.455h-5.13v.885c0 .67.17 1.19.51 1.56.35.36.84.54 1.47.54.53 0 .96-.105 1.29-.315.34-.21.555-.515.645-.915h1.185a2.394 2.394 0 01-1.005 1.635c-.56.4-1.265.6-2.115.6zm1.98-4.785v-.66c0-.67-.17-1.185-.51-1.545-.34-.37-.83-.555-1.47-.555-.63 0-1.12.185-1.47.555-.34.36-.51.875-.51 1.545v.525h4.08l-.12.135zm3.895 7.335v-10.95h1.185v1.455h.315l-.36.495c0-.65.21-1.16.63-1.53.43-.38.995-.57 1.695-.57.83 0 1.49.275 1.98.825.5.54.75 1.28.75 2.22v2.445c0 .63-.115 1.175-.345 1.635-.23.45-.55.8-.96 1.05-.4.25-.875.375-1.425.375-.69 0-1.25-.19-1.68-.57-.43-.38-.645-.89-.645-1.53l.315.495h-.285l.015 1.68v2.475h-1.185zm3.09-3.585c.6 0 1.065-.18 1.395-.54.34-.36.51-.87.51-1.53v-2.34c0-.67-.17-1.18-.51-1.53-.33-.36-.795-.54-1.395-.54-.58 0-1.045.185-1.395.555-.34.36-.51.865-.51 1.515v2.34c0 .65.17 1.16.51 1.53.35.36.815.54 1.395.54zm8.336 3.585V343c-.96 0-1.715-.27-2.265-.81s-.825-1.28-.825-2.22v-2.22c0-.93.275-1.66.825-2.19.56-.54 1.315-.81 2.265-.81v-2.7h1.08v2.7c.96 0 1.715.27 2.265.81.55.53.825 1.26.825 2.19v2.22c0 .94-.275 1.68-.825 2.22-.55.54-1.305.81-2.265.81v2.7h-1.08zm.03-3.66v-6.33c-.63 0-1.125.18-1.485.54-.35.35-.525.85-.525 1.5v2.22c0 .65.175 1.16.525 1.53.36.36.855.54 1.485.54zm1.02 0c.64 0 1.135-.18 1.485-.54.35-.37.525-.88.525-1.53v-2.22c0-.65-.175-1.15-.525-1.5-.35-.36-.845-.54-1.485-.54v6.33zm8.411 1.11c-.64 0-1.195-.125-1.665-.375a2.747 2.747 0 01-1.095-1.095c-.26-.47-.39-1.015-.39-1.635v-2.34c0-.63.13-1.175.39-1.635.26-.47.625-.83 1.095-1.08.47-.26 1.025-.39 1.665-.39.64 0 1.195.13 1.665.39.47.25.835.61 1.095 1.08.26.46.39 1.005.39 1.635v1.455h-5.13v.885c0 .67.17 1.19.51 1.56.35.36.84.54 1.47.54.53 0 .96-.105 1.29-.315.34-.21.555-.515.645-.915h1.185a2.394 2.394 0 01-1.005 1.635c-.56.4-1.265.6-2.115.6zm1.98-4.785v-.66c0-.67-.17-1.185-.51-1.545-.34-.37-.83-.555-1.47-.555-.63 0-1.12.185-1.47.555-.34.36-.51.875-.51 1.545v.525h4.08l-.12.135zm3.91 4.635v-8.25h1.155v4.695c0 .28-.01.58-.03.9a22.728 22.728 0 01-.105 1.59l3.495-7.185h1.545V343h-1.155v-4.695c0-.29.005-.59.015-.9.02-.31.04-.605.06-.885.03-.29.05-.53.06-.72l-3.51 7.2h-1.53zm3.09-9.615c-.71 0-1.28-.195-1.71-.585-.42-.4-.63-.925-.63-1.575h.96c0 .41.12.74.36.99.25.25.585.375 1.005.375.43 0 .77-.125 1.02-.375s.375-.58.375-.99h.96c0 .65-.215 1.175-.645 1.575-.42.39-.985.585-1.695.585zm8.876 9.765c-.64 0-1.2-.125-1.68-.375a2.75 2.75 0 01-1.125-1.065c-.26-.47-.39-1.025-.39-1.665v-2.34c0-.64.13-1.19.39-1.65.27-.47.645-.83 1.125-1.08.48-.25 1.04-.375 1.68-.375.94 0 1.695.255 2.265.765.57.51.865 1.205.885 2.085h-1.185c-.02-.57-.205-1.01-.555-1.32-.34-.31-.81-.465-1.41-.465-.61 0-1.095.18-1.455.54-.36.35-.54.85-.54 1.5v2.34c0 .64.18 1.14.54 1.5.36.36.845.54 1.455.54.6 0 1.07-.155 1.41-.465.35-.32.535-.76.555-1.32h1.185c-.02.88-.315 1.575-.885 2.085-.57.51-1.325.765-2.265.765zm8.26 0c-.87 0-1.555-.22-2.055-.66-.5-.45-.75-1.055-.75-1.815 0-.75.245-1.34.735-1.77.49-.44 1.15-.66 1.98-.66h2.626v-.87c0-.55-.161-.975-.481-1.275-.32-.3-.775-.45-1.365-.45-.52 0-.955.115-1.305.345-.34.23-.535.54-.585.93h-1.2c.1-.71.43-1.275.99-1.695.57-.42 1.28-.63 2.13-.63.92 0 1.65.25 2.191.75.539.49.809 1.155.809 1.995V343h-1.17v-1.605h-.194l.224-.24c0 .61-.235 1.095-.704 1.455-.471.36-1.096.54-1.876.54zm.285-.96c.66 0 1.2-.165 1.62-.495.42-.33.631-.76.631-1.29v-1.245h-2.611c-.47 0-.845.13-1.125.39s-.42.615-.42 1.065c0 .48.17.865.51 1.155.34.28.805.42 1.395.42z" fill="#000"/><rect x=".265" y="265.265" width="146.47" height="101.47" rx="12.321" fill="#C3BFAB" stroke="#fff" stroke-width=".53"/><path d="M19.575 303.15c-.65 0-1.215-.125-1.695-.375a2.65 2.65 0 01-1.095-1.08c-.26-.47-.39-1.02-.39-1.65v-5.04c0-.64.13-1.19.39-1.65.26-.47.625-.83 1.095-1.08.48-.25 1.045-.375 1.695-.375.64 0 1.195.13 1.665.39.48.25.85.61 1.11 1.08.26.47.39 1.03.39 1.68h-1.185c0-.66-.175-1.17-.525-1.53-.35-.37-.835-.555-1.455-.555-.62 0-1.11.18-1.47.54-.35.35-.525.85-.525 1.5v5.04c0 .64.175 1.14.525 1.5.36.36.85.54 1.47.54s1.105-.18 1.455-.54c.35-.37.525-.885.525-1.545h1.185c0 .64-.13 1.2-.39 1.68-.26.47-.63.835-1.11 1.095-.47.25-1.025.375-1.665.375zm8.846-.015c-.64 0-1.195-.125-1.665-.375a2.65 2.65 0 01-1.095-1.08c-.26-.47-.39-1.025-.39-1.665v-2.28c0-.65.13-1.205.39-1.665.26-.47.625-.83 1.095-1.08.47-.25 1.025-.375 1.665-.375.64 0 1.195.125 1.665.375s.835.61 1.095 1.08c.26.46.39 1.01.39 1.65v2.295c0 .64-.13 1.195-.39 1.665s-.625.83-1.095 1.08c-.47.25-1.025.375-1.665.375zm0-1.065c.62 0 1.1-.175 1.44-.525.34-.35.51-.86.51-1.53v-2.28c0-.67-.175-1.18-.525-1.53-.34-.35-.815-.525-1.425-.525-.61 0-1.09.175-1.44.525-.34.35-.51.86-.51 1.53v2.28c0 .67.17 1.18.51 1.53.35.35.83.525 1.44.525zm8.935 1.08c-.64 0-1.2-.125-1.68-.375a2.75 2.75 0 01-1.125-1.065c-.26-.47-.39-1.025-.39-1.665v-2.34c0-.64.13-1.19.39-1.65.27-.47.645-.83 1.125-1.08.48-.25 1.04-.375 1.68-.375.94 0 1.695.255 2.265.765.57.51.865 1.205.885 2.085h-1.185c-.02-.57-.205-1.01-.555-1.32-.34-.31-.81-.465-1.41-.465-.61 0-1.095.18-1.455.54-.36.35-.54.85-.54 1.5v2.34c0 .64.18 1.14.54 1.5.36.36.845.54 1.455.54.6 0 1.07-.155 1.41-.465.35-.32.535-.76.555-1.32h1.185c-.02.88-.315 1.575-.885 2.085-.57.51-1.325.765-2.265.765zm8.306-.15v-7.185h-3v-1.065h7.2v1.065h-3V303h-1.2zm8.875.15c-.87 0-1.555-.22-2.055-.66-.5-.45-.75-1.055-.75-1.815 0-.75.245-1.34.735-1.77.49-.44 1.15-.66 1.98-.66h2.625v-.87c0-.55-.16-.975-.48-1.275-.32-.3-.775-.45-1.365-.45-.52 0-.955.115-1.305.345-.34.23-.535.54-.585.93h-1.2c.1-.71.43-1.275.99-1.695.57-.42 1.28-.63 2.13-.63.92 0 1.65.25 2.19.75.54.49.81 1.155.81 1.995V303h-1.17v-1.605h-.195l.225-.24c0 .61-.235 1.095-.705 1.455-.47.36-1.095.54-1.875.54zm.285-.96c.66 0 1.2-.165 1.62-.495.42-.33.63-.76.63-1.29v-1.245h-2.61c-.47 0-.845.13-1.125.39s-.42.615-.42 1.065c0 .48.17.865.51 1.155.34.28.805.42 1.395.42zm6.251.81v-8.25h3.54c.82 0 1.465.195 1.935.585.47.38.705.91.705 1.59 0 .57-.195 1.03-.585 1.38-.38.34-.89.51-1.53.51v-.105c.69 0 1.245.18 1.665.54.42.35.63.82.63 1.41 0 .73-.25 1.305-.75 1.725-.49.41-1.17.615-2.04.615h-3.57zm1.17-1.05h2.4c.49 0 .88-.115 1.17-.345.29-.24.435-.56.435-.96 0-.42-.145-.745-.435-.975-.29-.24-.68-.36-1.17-.36h-2.4v2.64zm0-3.675h2.37c.44 0 .79-.11 1.05-.33.27-.22.405-.52.405-.9s-.135-.68-.405-.9c-.26-.23-.61-.345-1.05-.345h-2.37v2.475zm6.7 4.83v-1.125h.3c.43 0 .746-.175.946-.525.2-.36.305-.955.315-1.785l.105-4.92h5.445V303h-1.2v-7.17h-3.075l-.09 3.885c-.01.78-.105 1.42-.285 1.92-.17.5-.43.87-.78 1.11-.34.24-.785.36-1.335.36h-.345zm13.001.045c-.64 0-1.195-.125-1.665-.375a2.747 2.747 0 01-1.095-1.095c-.26-.47-.39-1.015-.39-1.635v-2.34c0-.63.13-1.175.39-1.635.26-.47.625-.83 1.095-1.08.47-.26 1.025-.39 1.665-.39.64 0 1.195.13 1.665.39.47.25.835.61 1.095 1.08.26.46.39 1.005.39 1.635v1.455h-5.13v.885c0 .67.17 1.19.51 1.56.35.36.84.54 1.47.54.53 0 .96-.105 1.29-.315.34-.21.555-.515.645-.915h1.185a2.394 2.394 0 01-1.005 1.635c-.56.4-1.265.6-2.115.6zm1.98-4.785v-.66c0-.67-.17-1.185-.51-1.545-.34-.37-.83-.555-1.47-.555-.63 0-1.12.185-1.47.555-.34.36-.51.875-.51 1.545v.525h4.08l-.12.135zm3.91 4.635v-8.25h1.2v3.51h3.66v-3.51h1.2V303h-1.2v-3.66h-3.66V303h-1.2zm8.921 0v-8.25h1.156v4.695c0 .28-.01.58-.03.9a22.728 22.728 0 01-.106 1.59l3.495-7.185h1.546V303h-1.156v-4.695c0-.29.005-.59.016-.9.02-.31.039-.605.059-.885.03-.29.05-.53.06-.72l-3.51 7.2h-1.53zm11.951.15c-.64 0-1.195-.125-1.665-.375a2.747 2.747 0 01-1.095-1.095c-.26-.47-.39-1.015-.39-1.635v-2.34c0-.63.13-1.175.39-1.635.26-.47.625-.83 1.095-1.08.47-.26 1.025-.39 1.665-.39.64 0 1.195.13 1.665.39.47.25.835.61 1.095 1.08.26.46.39 1.005.39 1.635v1.455h-5.13v.885c0 .67.17 1.19.51 1.56.35.36.84.54 1.47.54.53 0 .96-.105 1.29-.315.34-.21.555-.515.645-.915h1.185a2.394 2.394 0 01-1.005 1.635c-.56.4-1.265.6-2.115.6zm1.98-4.785v-.66c0-.67-.17-1.185-.51-1.545-.34-.37-.83-.555-1.47-.555-.63 0-1.12.185-1.47.555-.34.36-.51.875-.51 1.545v.525h4.08l-.12.135zM18.375 323v-6.15h-2.7v-2.1h7.65v2.1h-2.7V323h-2.25zm10.06.15c-.73 0-1.37-.135-1.92-.405-.54-.28-.96-.665-1.26-1.155-.29-.5-.434-1.08-.434-1.74v-1.95c0-.66.145-1.235.435-1.725.3-.5.72-.885 1.26-1.155.55-.28 1.19-.42 1.92-.42s1.36.14 1.89.42c.54.27.955.655 1.245 1.155.3.49.45 1.065.45 1.725v1.5h-5.055v.45c0 .52.125.915.375 1.185.25.26.625.39 1.125.39.35 0 .63-.06.84-.18a.872.872 0 00.435-.495h2.205c-.18.72-.59 1.3-1.23 1.74-.63.44-1.39.66-2.28.66zm1.44-4.905v-.375c0-.51-.12-.9-.36-1.17-.23-.27-.59-.405-1.08-.405-.49 0-.86.14-1.11.42-.24.28-.36.675-.36 1.185v.225l3.06-.03-.15.15zM33.232 323l2.85-4.275-2.655-3.975h2.505l1.02 1.65c.08.13.155.275.225.435.07.16.125.29.165.39.04-.1.095-.23.165-.39.08-.16.155-.305.225-.435l1.02-1.65h2.505l-2.64 3.975L41.451 323h-2.505l-1.2-1.95c-.08-.14-.16-.285-.24-.435-.07-.16-.125-.29-.165-.39a5.935 5.935 0 01-.39.825L35.736 323h-2.505zm9.52 0v-8.25h2.25v3.015h2.52v-3.015h2.25V323h-2.25v-3.135h-2.52V323h-2.25zm8.921 0v-8.25h1.98v3.75c0 .25-.015.565-.045.945-.03.37-.07.745-.12 1.125-.04.38-.085.715-.135 1.005l2.61-6.825h2.73V323h-1.98v-3.75c0-.26.015-.555.045-.885.03-.34.065-.68.105-1.02.04-.34.08-.63.12-.87L54.402 323h-2.73zm13.631 0v-2.625c-.12.03-.31.065-.57.105-.25.03-.535.045-.855.045-1.09 0-1.95-.27-2.58-.81-.63-.55-.945-1.305-.945-2.265v-2.7h2.25v2.55c0 .37.135.665.405.885.27.21.635.315 1.095.315.28 0 .525-.015.735-.045.22-.04.375-.075.465-.105v-3.6h2.25V323h-2.25zm7.736.15c-.73 0-1.37-.135-1.92-.405-.54-.28-.96-.665-1.26-1.155-.29-.5-.435-1.08-.435-1.74v-1.95c0-.66.145-1.235.435-1.725.3-.5.72-.885 1.26-1.155.55-.28 1.19-.42 1.92-.42s1.36.14 1.89.42c.54.27.955.655 1.245 1.155.3.49.45 1.065.45 1.725v1.5H71.57v.45c0 .52.125.915.375 1.185.25.26.625.39 1.125.39.35 0 .63-.06.84-.18a.872.872 0 00.435-.495h2.205c-.18.72-.59 1.3-1.23 1.74-.63.44-1.39.66-2.28.66zm1.44-4.905v-.375c0-.51-.12-.9-.36-1.17-.23-.27-.59-.405-1.08-.405-.49 0-.86.14-1.11.42-.24.28-.36.675-.36 1.185v.225l3.06-.03-.15.15zm7.51 4.905c-.73 0-1.37-.135-1.92-.405a3.11 3.11 0 01-1.275-1.155c-.3-.5-.45-1.08-.45-1.74v-1.95c0-.67.15-1.25.45-1.74.3-.49.725-.87 1.275-1.14.55-.28 1.19-.42 1.92-.42 1.09 0 1.96.275 2.61.825.65.55.995 1.3 1.035 2.25h-2.25c-.03-.35-.17-.625-.42-.825-.24-.2-.565-.3-.975-.3-.45 0-.795.115-1.035.345-.24.23-.36.565-.36 1.005v1.95c0 .43.12.765.36 1.005.24.23.585.345 1.035.345.41 0 .735-.095.975-.285.25-.2.39-.48.42-.84h2.25c-.04.95-.385 1.7-1.035 2.25-.65.55-1.52.825-2.61.825zm5.41-.15v-8.25h2.25v3.12h1.11l1.726-3.12h2.505l-2.295 4.035 2.34 4.215h-2.55l-1.74-3.24H89.65V323H87.4zm12.386.15c-.73 0-1.364-.135-1.904-.405-.54-.28-.96-.665-1.26-1.155-.29-.5-.435-1.08-.435-1.74v-1.95c0-.66.144-1.235.434-1.725.3-.5.72-.885 1.26-1.155.54-.28 1.175-.42 1.906-.42.739 0 1.374.14 1.904.42.541.27.956.655 1.246 1.155.3.49.449 1.065.449 1.725v1.95c0 .66-.149 1.24-.449 1.74-.29.49-.705.875-1.246 1.155-.53.27-1.165.405-1.904.405zm0-1.95c.44 0 .775-.115 1.005-.345.23-.24.345-.575.345-1.005v-1.95c0-.44-.115-.775-.345-1.005-.23-.23-.565-.345-1.005-.345-.43 0-.764.115-1.004.345-.23.23-.346.565-.346 1.005v1.95c0 .43.115.765.346 1.005.24.23.575.345 1.004.345zm6.146 1.8v-8.25h6.3v2.1h-4.05V323h-2.25zm11.696.15c-.73 0-1.365-.135-1.905-.405-.54-.28-.96-.665-1.26-1.155-.29-.5-.435-1.08-.435-1.74v-1.95c0-.66.145-1.235.435-1.725.3-.5.72-.885 1.26-1.155.54-.28 1.175-.42 1.905-.42.74 0 1.375.14 1.905.42.54.27.955.655 1.245 1.155.3.49.45 1.065.45 1.725v1.95c0 .66-.15 1.24-.45 1.74-.29.49-.705.875-1.245 1.155-.53.27-1.165.405-1.905.405zm0-1.95c.44 0 .775-.115 1.005-.345.23-.24.345-.575.345-1.005v-1.95c0-.44-.115-.775-.345-1.005-.23-.23-.565-.345-1.005-.345-.43 0-.765.115-1.005.345-.23.23-.345.565-.345 1.005v1.95c0 .43.115.765.345 1.005.24.23.575.345 1.005.345zM19.08 343.105c-.92 0-1.685-.225-2.295-.675-.61-.45-.98-1.06-1.11-1.83h2.175c.07.23.215.415.435.555.22.13.485.195.795.195h.855c.33 0 .59-.075.78-.225a.8.8 0 00.285-.645.741.741 0 00-.285-.615c-.19-.15-.45-.225-.78-.225H18v-1.71h1.845c.31 0 .55-.065.72-.195a.7.7 0 00.255-.57c0-.17-.04-.31-.12-.42a.67.67 0 00-.33-.255c-.14-.06-.315-.09-.525-.09h-.69c-.31 0-.57.07-.78.21a.94.94 0 00-.42.54H15.78c.13-.77.495-1.38 1.095-1.83.6-.45 1.36-.675 2.28-.675h.69c.66 0 1.23.095 1.71.285.48.18.85.44 1.11.78.26.33.39.725.39 1.185 0 .55-.21.995-.63 1.335-.41.34-.955.51-1.635.51v-.15c.74 0 1.335.19 1.785.57.45.37.675.865.675 1.485 0 .75-.3 1.35-.9 1.8-.6.44-1.405.66-2.415.66h-.855zm8.276.045c-.83 0-1.49-.225-1.98-.675-.48-.45-.72-1.06-.72-1.83 0-.83.285-1.465.855-1.905.58-.45 1.41-.675 2.49-.675h1.71v-.615a.941.941 0 00-.345-.765c-.22-.19-.52-.285-.9-.285-.35 0-.64.08-.87.24-.23.16-.37.38-.42.66H25c.09-.83.45-1.485 1.08-1.965.64-.49 1.46-.735 2.46-.735 1.05 0 1.88.26 2.49.78.62.51.93 1.2.93 2.07V343h-2.175v-1.35h-.36l.375-.525c0 .62-.225 1.115-.675 1.485-.44.36-1.03.54-1.77.54zm.84-1.65c.44 0 .8-.115 1.08-.345.29-.24.435-.55.435-.93v-.885h-1.665c-.34 0-.615.1-.825.3-.21.19-.315.445-.315.765 0 .34.115.61.345.81.23.19.545.285.945.285zm4.975 3.6v-4.005h.465c.17-.17.345-.465.525-.885.19-.43.29-.95.3-1.56l.075-3.9h6.075v6.345h.9v4.005h-2.1V343h-4.14v2.1h-2.1zm2.7-4.005h2.64v-4.41h-1.905l-.045 1.95c-.01.58-.095 1.09-.255 1.53-.15.43-.295.74-.435.93zm9.326 2.055c-.83 0-1.49-.225-1.98-.675-.48-.45-.72-1.06-.72-1.83 0-.83.285-1.465.855-1.905.58-.45 1.41-.675 2.49-.675h1.71v-.615a.941.941 0 00-.345-.765c-.22-.19-.52-.285-.9-.285-.35 0-.64.08-.87.24-.23.16-.37.38-.42.66h-2.175c.09-.83.45-1.485 1.08-1.965.64-.49 1.46-.735 2.46-.735 1.05 0 1.88.26 2.49.78.62.51.93 1.2.93 2.07V343h-2.175v-1.35h-.36l.375-.525c0 .62-.225 1.115-.675 1.485-.44.36-1.03.54-1.77.54zm.84-1.65c.44 0 .8-.115 1.08-.345.29-.24.435-.55.435-.93v-.885h-1.665c-.34 0-.615.1-.825.3-.21.19-.315.445-.315.765 0 .34.115.61.345.81.23.19.545.285.945.285zm5.635 1.5v-8.25h2.25v3.015h2.52v-3.015h2.25V343h-2.25v-3.135h-2.52V343h-2.25zm8.921 0v-8.25h1.98v3.75c0 .25-.015.565-.045.945-.03.37-.07.745-.12 1.125-.04.38-.085.715-.135 1.005l2.61-6.825h2.73V343h-1.98v-3.75c0-.26.015-.555.045-.885.03-.34.065-.68.105-1.02.04-.34.08-.63.12-.87L63.323 343h-2.73zm8.68 0l1.8-2.895c-.53-.2-.944-.515-1.244-.945-.3-.43-.45-.935-.45-1.515 0-.91.305-1.62.915-2.13.61-.51 1.455-.765 2.535-.765h3.705V343h-2.235v-2.61h-.99l-1.5 2.61h-2.535zm3.69-4.32h1.35v-2.145h-1.35c-.42 0-.75.095-.99.285-.24.19-.36.455-.36.795s.116.605.346.795c.24.18.575.27 1.005.27zm20.677 6.12c-1.59-.43-2.815-1.145-3.675-2.145-.85-1.01-1.275-2.24-1.275-3.69v-2.715c0-.95.195-1.815.585-2.595.4-.78.97-1.445 1.71-1.995.74-.56 1.625-.98 2.655-1.26v2.25c-.56.14-1.045.375-1.455.705-.4.33-.71.74-.93 1.23-.21.49-.315 1.045-.315 1.665v2.715c0 .6.105 1.145.315 1.635.22.48.53.885.93 1.215.41.33.895.565 1.455.705v2.28zm5.02-1.8v-8.85h-2.775v-2.1h7.8v2.1h-2.774V343h-2.25zm10.046.15c-.76 0-1.425-.125-1.995-.375-.57-.25-1.02-.605-1.35-1.065-.33-.46-.515-1.005-.555-1.635h2.25c.04.35.205.625.495.825.3.2.685.3 1.155.3.49 0 .885-.13 1.185-.39.31-.27.465-.605.465-1.005 0-.42-.145-.755-.435-1.005-.29-.25-.695-.375-1.215-.375h-1.575V336.4h1.575c.5 0 .89-.13 1.17-.39.28-.27.42-.59.42-.96 0-.38-.145-.675-.435-.885-.28-.21-.665-.315-1.155-.315-.41 0-.755.1-1.035.3-.28.2-.455.475-.525.825h-2.25c.06-.63.26-1.175.6-1.635.34-.46.79-.815 1.35-1.065.57-.25 1.22-.375 1.95-.375 1.1 0 1.975.235 2.625.705.66.47.99 1.115.99 1.935 0 .53-.12 1-.36 1.41-.23.4-.565.715-1.005.945-.44.22-.97.33-1.59.33V337c.63-.01 1.18.1 1.65.33.48.23.85.56 1.11.99.26.42.39.91.39 1.47 0 .67-.16 1.26-.48 1.77-.32.5-.775.89-1.365 1.17-.58.28-1.265.42-2.055.42zm6.146 1.65v-2.28c.56-.14 1.04-.375 1.44-.705.41-.33.72-.735.93-1.215.22-.49.33-1.035.33-1.635v-2.715c0-.62-.11-1.175-.33-1.665-.21-.49-.515-.9-.915-1.23-.4-.33-.885-.565-1.455-.705v-2.25c1.04.28 1.925.7 2.655 1.26a5.573 5.573 0 011.695 1.995c.4.78.6 1.645.6 2.595v2.715c0 1.45-.43 2.68-1.29 3.69-.85 1-2.07 1.715-3.66 2.145z" fill="#000"/><rect x=".265" y="115.265" width="122.47" height="141.47" rx="12.321" fill="#C3BFAB" stroke="#fff" stroke-width=".53"/><path d="M13.99 167v-10.95h3.525c1.11 0 1.995.255 2.655.765.66.5.99 1.18.99 2.04 0 .48-.115.9-.345 1.26-.22.36-.52.64-.9.84-.37.2-.775.3-1.215.3v.045c.49-.01.935.08 1.335.27.41.19.74.475.99.855s.375.85.375 1.41c0 .64-.155 1.2-.465 1.68-.3.47-.73.835-1.29 1.095s-1.225.39-1.995.39h-3.66zm2.175-1.815h1.395c.49 0 .875-.13 1.155-.39s.42-.62.42-1.08c0-.46-.14-.82-.42-1.08-.28-.27-.665-.405-1.155-.405h-1.395v2.955zm0-4.725h1.32c.44 0 .785-.115 1.035-.345.25-.24.375-.56.375-.96 0-.41-.125-.725-.375-.945-.25-.23-.595-.345-1.035-.345h-1.32v2.595zm10.27 6.69c-.73 0-1.37-.135-1.92-.405-.54-.28-.96-.665-1.26-1.155-.29-.5-.434-1.08-.434-1.74v-1.95c0-.66.145-1.235.435-1.725.3-.5.72-.885 1.26-1.155.55-.28 1.19-.42 1.92-.42s1.36.14 1.89.42c.54.27.955.655 1.245 1.155.3.49.45 1.065.45 1.725v1.5h-5.055v.45c0 .52.125.915.375 1.185.25.26.625.39 1.125.39.35 0 .63-.06.84-.18a.872.872 0 00.435-.495h2.205c-.18.72-.59 1.3-1.23 1.74-.63.44-1.39.66-2.28.66zm1.44-4.905v-.375c0-.51-.12-.9-.36-1.17-.23-.27-.59-.405-1.08-.405-.49 0-.86.14-1.11.42-.24.28-.36.675-.36 1.185v.225l3.06-.03-.15.15zm3.956 7.455v-10.95h2.175v1.575h.525l-.525.525c0-.71.195-1.26.585-1.65.39-.4.925-.6 1.605-.6.83 0 1.495.295 1.995.885.5.58.75 1.36.75 2.34v2.1c0 .65-.115 1.22-.345 1.71-.22.48-.535.855-.945 1.125-.41.26-.895.39-1.455.39-.68 0-1.215-.195-1.605-.585-.39-.4-.585-.955-.585-1.665l.525.525h-.525l.075 2.025v2.25h-2.25zm3.555-4.5c.42 0 .74-.115.96-.345.23-.24.345-.575.345-1.005v-1.95c0-.44-.115-.775-.345-1.005-.22-.23-.54-.345-.96-.345-.41 0-.73.12-.96.36-.23.23-.345.56-.345.99v1.95c0 .43.115.765.345 1.005.23.23.55.345.96.345zm8.92 1.95c-.73 0-1.37-.135-1.92-.405a3.11 3.11 0 01-1.274-1.155c-.3-.5-.45-1.08-.45-1.74v-1.95c0-.67.15-1.25.45-1.74.3-.49.725-.87 1.275-1.14.55-.28 1.19-.42 1.92-.42 1.09 0 1.96.275 2.61.825.65.55.995 1.3 1.035 2.25h-2.25c-.03-.35-.17-.625-.42-.825-.24-.2-.565-.3-.975-.3-.45 0-.795.115-1.035.345-.24.23-.36.565-.36 1.005v1.95c0 .43.12.765.36 1.005.24.23.585.345 1.035.345.41 0 .735-.095.975-.285.25-.2.39-.48.42-.84h2.25c-.04.95-.385 1.7-1.035 2.25-.65.55-1.52.825-2.61.825zm7.751-.15v-6.15h-2.7v-2.1h7.65v2.1h-2.7V167h-2.25zm6.581 0v-8.25h2.25v3.12h1.11l1.725-3.12h2.505l-2.295 4.035 2.34 4.215h-2.55l-1.74-3.24h-1.095V167h-2.25zm11.32.15c-.83 0-1.49-.225-1.98-.675-.48-.45-.72-1.06-.72-1.83 0-.83.286-1.465.856-1.905.58-.45 1.41-.675 2.49-.675h1.71v-.615a.941.941 0 00-.345-.765c-.22-.19-.52-.285-.9-.285-.35 0-.64.08-.87.24-.23.16-.37.38-.42.66h-2.175c.09-.83.45-1.485 1.08-1.965.64-.49 1.46-.735 2.46-.735 1.05 0 1.88.26 2.49.78.62.51.93 1.2.93 2.07V167h-2.175v-1.35h-.36l.375-.525c0 .62-.225 1.115-.675 1.485-.44.36-1.03.54-1.77.54zm.84-1.65c.44 0 .8-.115 1.08-.345.29-.24.436-.55.436-.93v-.885h-1.665c-.34 0-.615.1-.825.3-.21.19-.315.445-.315.765 0 .34.115.61.345.81.23.19.545.285.945.285zm15.037 1.5v-8.25h1.155v4.695c0 .28-.01.58-.03.9a22.728 22.728 0 01-.105 1.59l3.495-7.185h1.545V167H90.74v-4.695c0-.29.005-.59.015-.9.02-.31.04-.605.06-.885.03-.29.05-.53.06-.72l-3.51 7.2h-1.53zM13.99 189.7v-10.95h2.175v1.575h.525l-.525.525c0-.71.195-1.26.585-1.65.39-.4.925-.6 1.605-.6.83 0 1.495.295 1.995.885.5.58.75 1.36.75 2.34v2.1c0 .65-.115 1.22-.345 1.71-.22.48-.535.855-.945 1.125-.41.26-.895.39-1.455.39-.68 0-1.215-.195-1.605-.585-.39-.4-.585-.955-.585-1.665l.525.525h-.525l.075 2.025v2.25h-2.25zm3.555-4.5c.42 0 .74-.115.96-.345.23-.24.345-.575.345-1.005v-1.95c0-.44-.115-.775-.345-1.005-.22-.23-.54-.345-.96-.345-.41 0-.73.12-.96.36-.23.23-.345.56-.345.99v1.95c0 .43.115.765.345 1.005.23.23.55.345.96.345zm7.81 1.95c-.83 0-1.49-.225-1.98-.675-.48-.45-.72-1.06-.72-1.83 0-.83.286-1.465.856-1.905.58-.45 1.41-.675 2.49-.675h1.71v-.615a.941.941 0 00-.345-.765c-.22-.19-.52-.285-.9-.285-.35 0-.64.08-.87.24-.23.16-.37.38-.42.66H23c.09-.83.45-1.485 1.08-1.965.64-.49 1.46-.735 2.46-.735 1.05 0 1.88.26 2.49.78.62.51.93 1.2.93 2.07V187h-2.175v-1.35h-.36l.375-.525c0 .62-.225 1.115-.675 1.485-.44.36-1.03.54-1.77.54zm.84-1.65c.44 0 .8-.115 1.08-.345.29-.24.436-.55.436-.93v-.885h-1.665c-.34 0-.615.1-.825.3-.21.19-.315.445-.315.765 0 .34.115.61.345.81.23.19.545.285.945.285zm8.726 1.605c-.92 0-1.685-.225-2.295-.675-.61-.45-.98-1.06-1.11-1.83h2.175c.07.23.215.415.435.555.22.13.485.195.795.195h.855c.33 0 .59-.075.78-.225a.8.8 0 00.285-.645.741.741 0 00-.285-.615c-.19-.15-.45-.225-.78-.225h-1.935v-1.71h1.845c.31 0 .55-.065.72-.195a.7.7 0 00.255-.57c0-.17-.04-.31-.12-.42a.67.67 0 00-.33-.255c-.14-.06-.315-.09-.525-.09h-.69c-.31 0-.57.07-.78.21a.94.94 0 00-.42.54h-2.175c.13-.77.495-1.38 1.095-1.83.6-.45 1.36-.675 2.28-.675h.69c.66 0 1.23.095 1.71.285.48.18.85.44 1.11.78.26.33.39.725.39 1.185 0 .55-.21.995-.63 1.335-.41.34-.955.51-1.635.51v-.15c.74 0 1.335.19 1.785.57.45.37.675.865.675 1.485 0 .75-.3 1.35-.9 1.8-.6.44-1.405.66-2.415.66h-.855zm5.83 2.595v-10.95h2.176v1.575h.525l-.525.525c0-.71.195-1.26.585-1.65.39-.4.925-.6 1.605-.6.83 0 1.495.295 1.995.885.5.58.75 1.36.75 2.34v2.1c0 .65-.115 1.22-.345 1.71-.22.48-.535.855-.945 1.125-.41.26-.895.39-1.455.39-.68 0-1.215-.195-1.605-.585-.39-.4-.585-.955-.585-1.665l.525.525h-.525l.075 2.025v2.25h-2.25zm3.556-4.5c.42 0 .74-.115.96-.345.23-.24.345-.575.345-1.005v-1.95c0-.44-.115-.775-.345-1.005-.22-.23-.54-.345-.96-.345-.41 0-.73.12-.96.36-.23.23-.345.56-.345.99v1.95c0 .43.115.765.345 1.005.23.23.55.345.96.345zm7.81 1.95c-.83 0-1.49-.225-1.98-.675-.48-.45-.72-1.06-.72-1.83 0-.83.285-1.465.855-1.905.58-.45 1.41-.675 2.49-.675h1.71v-.615a.941.941 0 00-.345-.765c-.22-.19-.52-.285-.9-.285-.35 0-.64.08-.87.24-.23.16-.37.38-.42.66h-2.175c.09-.83.45-1.485 1.08-1.965.64-.49 1.46-.735 2.46-.735 1.05 0 1.88.26 2.49.78.62.51.93 1.2.93 2.07V187h-2.175v-1.35h-.36l.375-.525c0 .62-.225 1.115-.675 1.485-.44.36-1.03.54-1.77.54zm.84-1.65c.44 0 .8-.115 1.08-.345.29-.24.435-.55.435-.93v-.885h-1.665c-.34 0-.615.1-.825.3-.21.19-.315.445-.315.765 0 .34.115.61.345.81.23.19.545.285.945.285zm9.146 1.65c-1.1-.02-1.975-.32-2.625-.9-.65-.59-.975-1.39-.975-2.4v-3.675c0-1.32.37-2.335 1.11-3.045.74-.72 1.795-1.08 3.165-1.08h2.475v2.175h-2.475c-.66 0-1.165.165-1.515.495-.34.33-.51.815-.51 1.455v1.05h.21l-.18.21c-.01-.56.17-1.005.54-1.335.38-.34.92-.51 1.62-.51.87 0 1.545.285 2.025.855.49.57.735 1.36.735 2.37v1.035c0 .67-.15 1.26-.45 1.77-.29.5-.705.885-1.245 1.155-.53.26-1.165.385-1.905.375zm0-1.95c.44 0 .775-.115 1.005-.345.23-.24.345-.575.345-1.005v-1.035c0-.44-.115-.775-.345-1.005-.23-.23-.565-.345-1.005-.345-.43 0-.765.115-1.005.345-.23.23-.345.565-.345 1.005v1.035c0 .43.115.765.345 1.005.24.23.575.345 1.005.345zm8.92 1.95c-.73 0-1.364-.135-1.904-.405-.54-.28-.96-.665-1.26-1.155-.29-.5-.435-1.08-.435-1.74v-1.95c0-.66.145-1.235.435-1.725.3-.5.72-.885 1.26-1.155.54-.28 1.175-.42 1.905-.42.74 0 1.375.14 1.905.42.54.27.955.655 1.245 1.155.3.49.45 1.065.45 1.725v1.95c0 .66-.15 1.24-.45 1.74-.29.49-.705.875-1.245 1.155-.53.27-1.165.405-1.905.405zm0-1.95c.44 0 .776-.115 1.006-.345.23-.24.345-.575.345-1.005v-1.95c0-.44-.115-.775-.345-1.005-.23-.23-.565-.345-1.005-.345-.43 0-.765.115-1.005.345-.23.23-.345.565-.345 1.005v1.95c0 .43.115.765.345 1.005.24.23.575.345 1.005.345zm7.796 1.8v-6.15h-2.7v-2.1h7.65v2.1h-2.7V187h-2.25zm6.58 0v-8.25h2.25v3.12h1.11l1.726-3.12h2.505l-2.295 4.035 2.34 4.215h-2.55l-1.74-3.24H87.65V187H85.4zm11.322.15c-.83 0-1.49-.225-1.98-.675-.48-.45-.72-1.06-.72-1.83 0-.83.284-1.465.855-1.905.58-.45 1.41-.675 2.49-.675h1.71v-.615a.941.941 0 00-.345-.765c-.22-.19-.52-.285-.9-.285-.35 0-.64.08-.87.24-.23.16-.37.38-.42.66h-2.175c.09-.83.45-1.485 1.08-1.965.64-.49 1.46-.735 2.46-.735 1.05 0 1.88.26 2.49.78.619.51.929 1.2.929 2.07V187H99.15v-1.35h-.36l.375-.525c0 .62-.225 1.115-.675 1.485-.44.36-1.03.54-1.77.54zm.84-1.65c.44 0 .8-.115 1.08-.345.29-.24.434-.55.434-.93v-.885H97.41c-.34 0-.614.1-.825.3-.21.19-.314.445-.314.765 0 .34.114.61.344.81.23.19.546.285.946.285zM16.96 209.7V207c-.96 0-1.715-.27-2.265-.81s-.825-1.28-.825-2.22v-2.22c0-.93.275-1.66.825-2.19.56-.54 1.315-.81 2.265-.81v-2.7h1.08v2.7c.96 0 1.715.27 2.265.81.55.53.825 1.26.825 2.19v2.22c0 .94-.275 1.68-.825 2.22-.55.54-1.305.81-2.265.81v2.7h-1.08zm.03-3.66v-6.33c-.63 0-1.125.18-1.485.54-.35.35-.525.85-.525 1.5v2.22c0 .65.175 1.16.525 1.53.36.36.855.54 1.485.54zm1.02 0c.64 0 1.135-.18 1.485-.54.35-.37.525-.88.525-1.53v-2.22c0-.65-.175-1.15-.525-1.5-.35-.36-.845-.54-1.485-.54v6.33zm6.67 3.66l1.216-3.225-3.06-7.725h1.32l1.95 5.145c.08.2.155.425.225.675.08.24.14.44.18.6.05-.16.11-.365.18-.615.07-.25.14-.475.21-.675l1.83-5.13h1.275L25.94 209.7h-1.26zm7.631-2.7v-8.25h1.2v3.51h3.66v-3.51h1.2V207h-1.2v-3.66h-3.66V207h-1.2zm8.966 0v-8.25h1.2v3.465h1.56l2.445-3.465h1.365l-2.775 3.93 2.835 4.32h-1.395l-2.475-3.75h-1.56V207h-1.2zm14.74 2.1V207h-5.865v-8.25h1.2v7.185h3.42v-7.185h1.185v7.185h1.14v3.165h-1.08zm3.056-2.1v-8.25h1.155v4.695c0 .28-.01.58-.03.9a22.728 22.728 0 01-.105 1.59l3.495-7.185h1.545V207h-1.155v-4.695c0-.29.005-.59.015-.9.02-.31.04-.605.06-.885.03-.29.05-.53.06-.72l-3.51 7.2h-1.53zm11.95.135c-.64 0-1.194-.125-1.664-.375a2.65 2.65 0 01-1.095-1.08c-.26-.47-.39-1.025-.39-1.665v-2.28c0-.65.13-1.205.39-1.665.26-.47.625-.83 1.095-1.08.47-.25 1.025-.375 1.665-.375.64 0 1.195.125 1.665.375s.835.61 1.095 1.08c.26.46.39 1.01.39 1.65v2.295c0 .64-.13 1.195-.39 1.665s-.625.83-1.095 1.08c-.47.25-1.025.375-1.665.375zm0-1.065c.62 0 1.1-.175 1.44-.525.34-.35.51-.86.51-1.53v-2.28c0-.67-.174-1.18-.524-1.53-.34-.35-.815-.525-1.425-.525-.61 0-1.09.175-1.44.525-.34.35-.51.86-.51 1.53v2.28c0 .67.17 1.18.51 1.53.35.35.83.525 1.44.525zm5.891.93v-8.25h1.2v3.51h3.66v-3.51h1.2V207h-1.2v-3.66h-3.66V207h-1.2zm11.306.15c-.87 0-1.555-.22-2.055-.66-.5-.45-.75-1.055-.75-1.815 0-.75.245-1.34.735-1.77.49-.44 1.15-.66 1.98-.66h2.625v-.87c0-.55-.16-.975-.48-1.275-.32-.3-.775-.45-1.365-.45-.52 0-.955.115-1.305.345-.34.23-.535.54-.585.93h-1.2c.1-.71.43-1.275.99-1.695.57-.42 1.28-.63 2.13-.63.92 0 1.65.25 2.19.75.54.49.81 1.155.81 1.995V207h-1.17v-1.605h-.195l.225-.24c0 .61-.235 1.095-.705 1.455-.47.36-1.095.54-1.875.54zm.285-.96c.66 0 1.2-.165 1.62-.495.42-.33.63-.76.63-1.29v-1.245h-2.61c-.47 0-.845.13-1.125.39s-.42.615-.42 1.065c0 .48.17.865.51 1.155.34.28.805.42 1.395.42zm5.2.915v-1.125h.3c.43 0 .746-.175.946-.525.2-.36.305-.955.315-1.785l.105-4.92h5.445V207h-1.2v-7.17H96.54l-.09 3.885c-.01.78-.105 1.42-.285 1.92-.17.5-.43.87-.78 1.11-.34.24-.785.36-1.335.36h-.344zm12.356.045c-.87 0-1.555-.22-2.055-.66-.5-.45-.75-1.055-.75-1.815 0-.75.245-1.34.735-1.77.49-.44 1.15-.66 1.98-.66h2.625v-.87c0-.55-.16-.975-.48-1.275-.32-.3-.775-.45-1.365-.45-.52 0-.955.115-1.305.345-.34.23-.535.54-.585.93h-1.2c.1-.71.43-1.275.99-1.695.57-.42 1.28-.63 2.13-.63.92 0 1.65.25 2.19.75.54.49.81 1.155.81 1.995V207h-1.17v-1.605h-.195l.225-.24c0 .61-.235 1.095-.705 1.455-.47.36-1.095.54-1.875.54zm.285-.96c.66 0 1.2-.165 1.62-.495.42-.33.63-.76.63-1.29v-1.245h-2.61c-.47 0-.845.13-1.125.39s-.42.615-.42 1.065c0 .48.17.865.51 1.155.34.28.805.42 1.395.42z" fill="#000"/><rect x="132.265" y="115.265" width="220.47" height="141.47" rx="12.321" fill="#C3BFAB" stroke="#fff" stroke-width=".53"/><path d="M158.375 167v-8.85H155.6v-2.1h7.8v2.1h-2.775V167h-2.25zm10.061.15c-.73 0-1.37-.135-1.92-.405-.54-.28-.96-.665-1.26-1.155-.29-.5-.435-1.08-.435-1.74v-1.95c0-.66.145-1.235.435-1.725.3-.5.72-.885 1.26-1.155.55-.28 1.19-.42 1.92-.42s1.36.14 1.89.42c.54.27.955.655 1.245 1.155.3.49.45 1.065.45 1.725v1.5h-5.055v.45c0 .52.125.915.375 1.185.25.26.625.39 1.125.39.35 0 .63-.06.84-.18a.872.872 0 00.435-.495h2.205c-.18.72-.59 1.3-1.23 1.74-.63.44-1.39.66-2.28.66zm1.44-4.905v-.375c0-.51-.12-.9-.36-1.17-.23-.27-.59-.405-1.08-.405-.49 0-.86.14-1.11.42-.24.28-.36.675-.36 1.185v.225l3.06-.03-.15.15zm7.51 4.905c-.73 0-1.37-.135-1.92-.405a3.11 3.11 0 01-1.275-1.155c-.3-.5-.45-1.08-.45-1.74v-1.95c0-.67.15-1.25.45-1.74.3-.49.725-.87 1.275-1.14.55-.28 1.19-.42 1.92-.42 1.09 0 1.96.275 2.61.825.65.55.995 1.3 1.035 2.25h-2.25c-.03-.35-.17-.625-.42-.825-.24-.2-.565-.3-.975-.3-.45 0-.795.115-1.035.345-.24.23-.36.565-.36 1.005v1.95c0 .43.12.765.36 1.005.24.23.585.345 1.035.345.41 0 .735-.095.975-.285.25-.2.39-.48.42-.84h2.25c-.04.95-.385 1.7-1.035 2.25-.65.55-1.52.825-2.61.825zm7.751-.15v-6.15h-2.7v-2.1h7.65v2.1h-2.7V167h-2.25zm6.535 0v-8.25h1.98v3.75c0 .25-.015.565-.045.945-.03.37-.07.745-.12 1.125-.04.38-.085.715-.135 1.005l2.61-6.825h2.73V167h-1.98v-3.75c0-.26.015-.555.045-.885.03-.34.065-.68.105-1.02.04-.34.08-.63.12-.87l-2.58 6.525h-2.73zm8.921 2.7v-10.95h2.175v1.575h.525l-.525.525c0-.71.195-1.26.585-1.65.39-.4.925-.6 1.605-.6.83 0 1.495.295 1.995.885.5.58.75 1.36.75 2.34v2.1c0 .65-.115 1.22-.345 1.71-.22.48-.535.855-.945 1.125-.41.26-.895.39-1.455.39-.68 0-1.215-.195-1.605-.585-.39-.4-.585-.955-.585-1.665l.525.525h-.525l.075 2.025v2.25h-2.25zm3.555-4.5c.42 0 .74-.115.96-.345.23-.24.345-.575.345-1.005v-1.95c0-.44-.115-.775-.345-1.005-.22-.23-.54-.345-.96-.345-.41 0-.73.12-.96.36-.23.23-.345.56-.345.99v1.95c0 .43.115.765.345 1.005.23.23.55.345.96.345zm8.876 1.95c-.73 0-1.365-.135-1.905-.405-.54-.28-.96-.665-1.26-1.155-.29-.5-.435-1.08-.435-1.74v-1.95c0-.66.145-1.235.435-1.725.3-.5.72-.885 1.26-1.155.54-.28 1.175-.42 1.905-.42.74 0 1.375.14 1.905.42.54.27.955.655 1.245 1.155.3.49.45 1.065.45 1.725v1.95c0 .66-.15 1.24-.45 1.74-.29.49-.705.875-1.245 1.155-.53.27-1.165.405-1.905.405zm0-1.95c.44 0 .775-.115 1.005-.345.23-.24.345-.575.345-1.005v-1.95c0-.44-.115-.775-.345-1.005-.23-.23-.565-.345-1.005-.345-.43 0-.765.115-1.005.345-.23.23-.345.565-.345 1.005v1.95c0 .43.115.765.345 1.005.24.23.575.345 1.005.345zm5.395 1.8v-8.25h3.735c1.01 0 1.81.205 2.4.615.6.4.9.945.9 1.635 0 .55-.225.995-.675 1.335-.45.33-1.045.495-1.785.495v-.15c.81 0 1.455.18 1.935.54.49.36.735.835.735 1.425 0 .73-.3 1.305-.9 1.725-.59.42-1.395.63-2.415.63h-3.93zm2.205-1.59h1.62c.37 0 .665-.085.885-.255.23-.18.345-.41.345-.69 0-.3-.115-.54-.345-.72-.22-.18-.515-.27-.885-.27h-1.62v1.935zm0-3.255h1.545c.34 0 .61-.08.81-.24.2-.17.3-.39.3-.66 0-.28-.1-.505-.3-.675-.2-.17-.47-.255-.81-.255h-1.545v1.83zm9.176 4.995c-.83 0-1.49-.225-1.98-.675-.48-.45-.72-1.06-.72-1.83 0-.83.285-1.465.855-1.905.58-.45 1.41-.675 2.49-.675h1.71v-.615a.941.941 0 00-.345-.765c-.22-.19-.52-.285-.9-.285-.35 0-.64.08-.87.24-.23.16-.37.38-.42.66h-2.175c.09-.83.45-1.485 1.08-1.965.64-.49 1.46-.735 2.46-.735 1.05 0 1.88.26 2.49.78.62.51.93 1.2.93 2.07V167h-2.175v-1.35h-.36l.375-.525c0 .62-.225 1.115-.675 1.485-.44.36-1.03.54-1.77.54zm.84-1.65c.44 0 .8-.115 1.08-.345.29-.24.435-.55.435-.93v-.885h-1.665c-.34 0-.615.1-.825.3-.21.19-.315.445-.315.765 0 .34.115.61.345.81.23.19.545.285.945.285zm5.635 1.5v-8.25h2.25v3.015h2.52v-3.015h2.251V167h-2.251v-3.135h-2.52V167h-2.25zm8.921 0v-8.25h1.98v3.75c0 .25-.015.565-.045.945-.03.37-.07.745-.12 1.125-.04.38-.085.715-.135 1.005l2.61-6.825h2.73V167h-1.98v-3.75c0-.26.015-.555.045-.885.03-.34.065-.68.105-1.02.04-.34.08-.63.12-.87l-2.58 6.525h-2.73zm12.446.15c-.73 0-1.37-.135-1.92-.405-.54-.28-.96-.665-1.26-1.155-.29-.5-.435-1.08-.435-1.74v-1.95c0-.66.145-1.235.435-1.725.3-.5.72-.885 1.26-1.155.55-.28 1.19-.42 1.92-.42s1.36.14 1.89.42c.54.27.955.655 1.245 1.155.3.49.45 1.065.45 1.725v1.5h-5.055v.45c0 .52.125.915.375 1.185.25.26.625.39 1.125.39.35 0 .63-.06.84-.18a.872.872 0 00.435-.495h2.205c-.18.72-.59 1.3-1.23 1.74-.63.44-1.39.66-2.28.66zm1.44-4.905v-.375c0-.51-.12-.9-.36-1.17-.23-.27-.59-.405-1.08-.405-.49 0-.86.14-1.11.42-.24.28-.36.675-.36 1.185v.225l3.06-.03-.15.15zM272.438 167v-8.25h1.155v4.695c0 .28-.01.58-.03.9a22.728 22.728 0 01-.105 1.59l3.495-7.185h1.545V167h-1.155v-4.695c0-.29.005-.59.015-.9.02-.31.04-.605.06-.885.03-.29.05-.53.06-.72l-3.51 7.2h-1.53zM159.08 187.105c-.92 0-1.685-.225-2.295-.675-.61-.45-.98-1.06-1.11-1.83h2.175c.07.23.215.415.435.555.22.13.485.195.795.195h.855c.33 0 .59-.075.78-.225a.8.8 0 00.285-.645.741.741 0 00-.285-.615c-.19-.15-.45-.225-.78-.225H158v-1.71h1.845c.31 0 .55-.065.72-.195a.7.7 0 00.255-.57c0-.17-.04-.31-.12-.42a.67.67 0 00-.33-.255c-.14-.06-.315-.09-.525-.09h-.69c-.31 0-.57.07-.78.21a.94.94 0 00-.42.54h-2.175c.13-.77.495-1.38 1.095-1.83.6-.45 1.36-.675 2.28-.675h.69c.66 0 1.23.095 1.71.285.48.18.85.44 1.11.78.26.33.39.725.39 1.185 0 .55-.21.995-.63 1.335-.41.34-.955.51-1.635.51v-.15c.74 0 1.335.19 1.785.57.45.37.675.865.675 1.485 0 .75-.3 1.35-.9 1.8-.6.44-1.405.66-2.415.66h-.855zm8.276.045c-.83 0-1.49-.225-1.98-.675-.48-.45-.72-1.06-.72-1.83 0-.83.285-1.465.855-1.905.58-.45 1.41-.675 2.49-.675h1.71v-.615a.941.941 0 00-.345-.765c-.22-.19-.52-.285-.9-.285-.35 0-.64.08-.87.24-.23.16-.37.38-.42.66h-2.175c.09-.83.45-1.485 1.08-1.965.64-.49 1.46-.735 2.46-.735 1.05 0 1.88.26 2.49.78.62.51.93 1.2.93 2.07V187h-2.175v-1.35h-.36l.375-.525c0 .62-.225 1.115-.675 1.485-.44.36-1.03.54-1.77.54zm.84-1.65c.44 0 .8-.115 1.08-.345.29-.24.435-.55.435-.93v-.885h-1.665c-.34 0-.615.1-.825.3-.21.19-.315.445-.315.765 0 .34.115.61.345.81.23.19.545.285.945.285zm5.635 1.5v-8.25h7.02V187h-2.25v-6.15h-2.52V187h-2.25zm10.286 2.7l1.125-3.105-3.09-7.845h2.445l1.245 3.6c.09.27.18.6.27.99.1.38.175.69.225.93.05-.24.12-.55.21-.93.1-.39.195-.72.285-.99l1.2-3.6h2.34l-3.9 10.95h-2.355zm11.11-2.55c-.73 0-1.37-.135-1.92-.405a3.11 3.11 0 01-1.275-1.155c-.3-.5-.45-1.08-.45-1.74v-1.95c0-.67.15-1.25.45-1.74.3-.49.725-.87 1.275-1.14.55-.28 1.19-.42 1.92-.42 1.09 0 1.96.275 2.61.825.65.55.995 1.3 1.035 2.25h-2.25c-.03-.35-.17-.625-.42-.825-.24-.2-.565-.3-.975-.3-.45 0-.795.115-1.035.345-.24.23-.36.565-.36 1.005v1.95c0 .43.12.765.36 1.005.24.23.585.345 1.035.345.41 0 .735-.095.975-.285.25-.2.39-.48.42-.84h2.25c-.04.95-.385 1.7-1.035 2.25-.65.55-1.52.825-2.61.825zm5.411-.15v-8.25h2.25v3.12h1.11l1.725-3.12h2.505l-2.295 4.035 2.34 4.215h-2.55l-1.74-3.24h-1.095V187h-2.25zm17.781 0v-8.25h3.735c1.01 0 1.81.205 2.4.615.6.4.9.945.9 1.635 0 .55-.225.995-.675 1.335-.45.33-1.045.495-1.785.495v-.15c.81 0 1.455.18 1.935.54.49.36.735.835.735 1.425 0 .73-.3 1.305-.9 1.725-.59.42-1.395.63-2.415.63h-3.93zm2.205-1.59h1.62c.37 0 .665-.085.885-.255.23-.18.345-.41.345-.69 0-.3-.115-.54-.345-.72-.22-.18-.515-.27-.885-.27h-1.62v1.935zm0-3.255h1.545c.34 0 .61-.08.81-.24.2-.17.3-.39.3-.66 0-.28-.1-.505-.3-.675-.2-.17-.47-.255-.81-.255h-1.545v1.83zM238.66 187v-8.85h-2.775v-2.1h7.8v2.1h-2.774V187h-2.251zm10.061.15c-.73 0-1.37-.135-1.92-.405-.54-.28-.96-.665-1.26-1.155-.29-.5-.435-1.08-.435-1.74v-1.95c0-.66.145-1.235.435-1.725.3-.5.72-.885 1.26-1.155.55-.28 1.19-.42 1.92-.42s1.36.14 1.89.42c.54.27.955.655 1.245 1.155.3.49.45 1.065.45 1.725v1.5h-5.055v.45c0 .52.125.915.375 1.185.25.26.625.39 1.125.39.35 0 .63-.06.84-.18a.872.872 0 00.435-.495h2.205c-.18.72-.59 1.3-1.23 1.74-.63.44-1.39.66-2.28.66zm1.44-4.905v-.375c0-.51-.12-.9-.36-1.17-.23-.27-.59-.405-1.08-.405-.49 0-.86.14-1.11.42-.24.28-.36.675-.36 1.185v.225l3.06-.03-.15.15zm8.816 4.755c-.58 0-1.09-.12-1.53-.36a2.708 2.708 0 01-1.035-1.035c-.24-.44-.36-.95-.36-1.53v-6h-2.55v-2.025h4.8v8.025c0 .27.08.49.24.66.17.16.39.24.66.24h2.4V187h-2.625zm7.585.15c-.73 0-1.37-.135-1.92-.405-.54-.28-.96-.665-1.26-1.155-.29-.5-.435-1.08-.435-1.74v-1.95c0-.66.145-1.235.435-1.725.3-.5.72-.885 1.26-1.155.55-.28 1.19-.42 1.92-.42s1.36.14 1.89.42c.54.27.955.655 1.245 1.155.3.49.45 1.065.45 1.725v1.5h-5.055v.45c0 .52.125.915.375 1.185.25.26.625.39 1.125.39.35 0 .63-.06.84-.18a.872.872 0 00.435-.495h2.205c-.18.72-.59 1.3-1.23 1.74-.63.44-1.39.66-2.28.66zm1.44-4.905v-.375c0-.51-.12-.9-.36-1.17-.23-.27-.59-.405-1.08-.405-.49 0-.86.14-1.11.42-.24.28-.36.675-.36 1.185v.225l3.06-.03-.15.15zm5.141 7.455v-1.8h2.325c.42 0 .74-.105.96-.315.23-.21.345-.5.345-.87v-.315l.03-1.575h-.525l.525-.525c0 .71-.195 1.265-.585 1.665-.39.39-.925.585-1.605.585-.83 0-1.495-.29-1.995-.87-.5-.58-.75-1.365-.75-2.355v-1.5c0-.98.25-1.76.75-2.34.5-.59 1.165-.885 1.995-.885.68 0 1.215.2 1.605.6.39.39.585.94.585 1.65l-.525-.525h.525l-.075-1.575h2.25v8.04c0 .9-.31 1.61-.93 2.13-.61.52-1.445.78-2.505.78h-2.4zm2.28-5.1c.41 0 .73-.115.96-.345.23-.24.345-.575.345-1.005v-1.35c0-.43-.115-.76-.345-.99-.23-.24-.55-.36-.96-.36-.42 0-.745.12-.975.36-.22.23-.33.56-.33.99v1.35c0 .43.11.765.33 1.005.23.23.555.345.975.345zm5.696 2.4v-8.25h2.1v1.575h.57l-.645.96c0-.89.205-1.56.615-2.01.41-.45 1.01-.675 1.8-.675.91 0 1.615.275 2.115.825.51.55.765 1.325.765 2.325v.675h-2.4v-.525c0-.45-.125-.8-.375-1.05-.24-.25-.565-.375-.975-.375-.43 0-.76.125-.99.375-.22.25-.33.6-.33 1.05v5.1h-2.25zm11.125.15c-.83 0-1.49-.225-1.98-.675-.48-.45-.72-1.06-.72-1.83 0-.83.285-1.465.855-1.905.58-.45 1.41-.675 2.49-.675h1.71v-.615a.941.941 0 00-.345-.765c-.22-.19-.52-.285-.9-.285-.35 0-.64.08-.87.24-.23.16-.37.38-.42.66h-2.175c.09-.83.45-1.485 1.08-1.965.64-.49 1.46-.735 2.46-.735 1.05 0 1.88.26 2.49.78.62.51.93 1.2.93 2.07V187h-2.175v-1.35h-.36l.375-.525c0 .62-.225 1.115-.675 1.485-.44.36-1.03.54-1.77.54zm.84-1.65c.44 0 .8-.115 1.08-.345.29-.24.435-.55.435-.93v-.885h-1.665c-.34 0-.615.1-.825.3-.21.19-.315.445-.315.765 0 .34.115.61.345.81.23.19.545.285.945.285zm5.276 1.5v-8.25h1.77v1.2h.36l-.285.21c0-.47.135-.845.405-1.125.27-.29.605-.435 1.005-.435.43 0 .765.185 1.005.555.24.37.36.86.36 1.47l-.27-.675h.42l-.135.21c0-.47.13-.845.39-1.125.26-.29.61-.435 1.05-.435.5 0 .905.19 1.215.57.31.37.465.88.465 1.53v6.3h-1.935v-6.15c0-.23-.05-.405-.15-.525-.1-.13-.245-.195-.435-.195s-.335.065-.435.195c-.1.12-.15.295-.15.525V187h-1.545v-6.15c0-.23-.05-.405-.15-.525-.1-.13-.245-.195-.435-.195s-.335.065-.435.195c-.1.12-.15.295-.15.525V187h-1.935zm-142.985 20l2.685-10.95h2.85l2.715 10.95h-2.295l-.525-2.475h-2.61L157.67 207h-2.295zm3.195-4.275h1.845l-.525-2.64c-.07-.38-.145-.755-.225-1.125l-.165-.885-.165.87c-.06.37-.13.745-.21 1.125l-.555 2.655zm6.341 6.975v-10.95h2.175v1.575h.525l-.525.525c0-.71.195-1.26.585-1.65.39-.4.925-.6 1.605-.6.83 0 1.495.295 1.995.885.5.58.75 1.36.75 2.34v2.1c0 .65-.115 1.22-.345 1.71-.22.48-.535.855-.945 1.125-.41.26-.895.39-1.455.39-.68 0-1.215-.195-1.605-.585-.39-.4-.585-.955-.585-1.665l.525.525h-.525l.075 2.025v2.25h-2.25zm3.555-4.5c.42 0 .74-.115.96-.345.23-.24.345-.575.345-1.005v-1.95c0-.44-.115-.775-.345-1.005-.22-.23-.54-.345-.96-.345-.41 0-.73.12-.96.36-.23.23-.345.56-.345.99v1.95c0 .43.115.765.345 1.005.23.23.55.345.96.345zm5.365 4.5v-10.95h2.175v1.575h.525l-.525.525c0-.71.195-1.26.585-1.65.39-.4.925-.6 1.605-.6.83 0 1.495.295 1.995.885.5.58.75 1.36.75 2.34v2.1c0 .65-.115 1.22-.345 1.71-.22.48-.535.855-.945 1.125-.41.26-.895.39-1.455.39-.68 0-1.215-.195-1.605-.585-.39-.4-.585-.955-.585-1.665l.525.525h-.525l.075 2.025v2.25h-2.25zm3.555-4.5c.42 0 .74-.115.96-.345.23-.24.345-.575.345-1.005v-1.95c0-.44-.115-.775-.345-1.005-.22-.23-.54-.345-.96-.345-.41 0-.73.12-.96.36-.23.23-.345.56-.345.99v1.95c0 .43.115.765.345 1.005.23.23.55.345.96.345zm8.531 1.95c-.68 0-1.275-.105-1.785-.315-.51-.22-.91-.52-1.2-.9a2.19 2.19 0 01-.42-1.335h2.25c0 .24.105.435.315.585.22.14.5.21.84.21h.66c.41 0 .72-.075.93-.225a.72.72 0 00.33-.63c0-.25-.095-.44-.285-.57-.19-.14-.485-.235-.885-.285l-.96-.12c-1.03-.13-1.78-.38-2.25-.75s-.705-.935-.705-1.695c0-.8.275-1.42.825-1.86.55-.44 1.355-.66 2.415-.66h.57c1.01 0 1.815.22 2.415.66.6.44.9 1.03.9 1.77h-2.25c0-.2-.1-.36-.3-.48-.19-.13-.445-.195-.765-.195h-.57c-.37 0-.64.065-.81.195-.17.12-.255.305-.255.555 0 .23.075.405.225.525.16.12.41.205.75.255l1.035.135c1.04.13 1.81.39 2.31.78.51.39.765.97.765 1.74 0 .84-.29 1.485-.87 1.935-.58.45-1.435.675-2.565.675h-.66z" fill="#000"/></svg>