<svg width="357" height="159" fill="none" xmlns="http://www.w3.org/2000/svg"><path d="M10.116 18V9.24H12.6c.8 0 1.424.2 1.872.6.456.4.684.956.684 1.668 0 .4-.084.748-.252 1.044a1.7 1.7 0 01-.72.684c-.304.16-.672.236-1.104.228v-.18c.464-.008.864.08 1.2.264.344.184.608.448.792.792.192.344.288.752.288 1.224 0 .496-.104.928-.312 1.296a2.122 2.122 0 01-.888.852c-.384.192-.844.288-1.38.288h-2.664zm1.056-.972h1.488c.504 0 .9-.132 1.188-.396.296-.272.444-.64.444-1.104 0-.48-.148-.868-.444-1.164-.288-.304-.684-.456-1.188-.456h-1.488v3.12zm0-4.056h1.416c.464 0 .828-.124 1.092-.372.272-.248.408-.584.408-1.008 0-.424-.132-.76-.396-1.008s-.628-.372-1.092-.372h-1.428v2.76zm7.974 5.148c-.696 0-1.244-.176-1.644-.528-.4-.36-.6-.844-.6-1.452 0-.616.2-1.1.6-1.452.4-.352.94-.528 1.62-.528h2.04v-.66c0-.408-.124-.72-.372-.936-.24-.224-.584-.336-1.032-.336-.392 0-.72.084-.984.252-.264.16-.416.38-.456.66h-1.08c.072-.568.34-1.02.804-1.356.464-.336 1.044-.504 1.74-.504.76 0 1.36.196 1.8.588.44.392.66.924.66 1.596V18h-1.056v-1.26h-.18l.18-.18c0 .48-.188.86-.564 1.14-.368.28-.86.42-1.476.42zm.264-.852c.512 0 .932-.128 1.26-.384.328-.256.492-.584.492-.984v-.936h-2.016c-.36 0-.644.1-.852.3-.208.2-.312.472-.312.816 0 .368.124.66.372.876.256.208.608.312 1.056.312zm4.938.732v-6.6h1.08v1.26h.228l-.228.252c0-.52.156-.92.468-1.2.312-.288.744-.432 1.296-.432.664 0 1.192.204 1.584.612.392.408.588.964.588 1.668V18h-1.08v-4.32c0-.472-.128-.832-.384-1.08-.248-.256-.588-.384-1.02-.384-.448 0-.804.136-1.068.408-.256.272-.384.664-.384 1.176V18h-1.08zm9.413.096a3.12 3.12 0 01-1.176-.204 2.006 2.006 0 01-.792-.6 1.834 1.834 0 01-.348-.912h1.08a.844.844 0 00.384.552c.216.136.5.204.852.204h.504c.424 0 .74-.084.948-.252a.867.867 0 00.312-.696c0-.28-.096-.5-.288-.66-.184-.168-.46-.28-.828-.336l-.888-.144c-.648-.112-1.132-.312-1.452-.6-.312-.296-.468-.724-.468-1.284 0-.592.188-1.048.564-1.368.376-.328.94-.492 1.692-.492h.456c.632 0 1.14.148 1.524.444.384.296.616.696.696 1.2h-1.08a.768.768 0 00-.36-.492c-.192-.128-.452-.192-.78-.192h-.456c-.408 0-.708.076-.9.228-.184.152-.276.38-.276.684 0 .272.08.472.24.6.16.128.412.22.756.276l.888.144c.712.112 1.228.32 1.548.624.328.304.492.744.492 1.32 0 .608-.196 1.088-.588 1.44-.384.344-.968.516-1.752.516h-.504zm5.862 2.064l.972-2.568-2.448-6.192h1.2l1.536 4.08c.056.136.108.3.156.492l.12.468.12-.468c.048-.192.096-.356.144-.492l1.44-4.08h1.164l-3.252 8.76h-1.152zm8.382-2.064a3.12 3.12 0 01-1.176-.204 2.006 2.006 0 01-.792-.6 1.834 1.834 0 01-.348-.912h1.08a.844.844 0 00.384.552c.216.136.5.204.852.204h.504c.424 0 .74-.084.948-.252a.867.867 0 00.312-.696c0-.28-.096-.5-.288-.66-.184-.168-.46-.28-.828-.336l-.888-.144c-.648-.112-1.132-.312-1.452-.6-.312-.296-.468-.724-.468-1.284 0-.592.188-1.048.564-1.368.376-.328.94-.492 1.692-.492h.456c.632 0 1.14.148 1.524.444.384.296.616.696.696 1.2h-1.08a.768.768 0 00-.36-.492c-.192-.128-.452-.192-.78-.192H48.1c-.408 0-.708.076-.9.228-.184.152-.276.38-.276.684 0 .272.08.472.24.6.16.128.412.22.756.276l.888.144c.712.112 1.228.32 1.548.624.328.304.492.744.492 1.32 0 .608-.196 1.088-.588 1.44-.384.344-.968.516-1.752.516h-.504zm10.847-3.576v-.96h7.2v.96h-7.2zM74.26 18v-6.6h1.08v2.724h1.128l1.92-2.724h1.236l-2.22 3.144L79.66 18H78.4l-1.92-2.94h-1.14V18h-1.08zm9.558.096c-.528 0-.984-.1-1.368-.3a2.178 2.178 0 01-.9-.864c-.208-.384-.312-.836-.312-1.356v-1.752c0-.528.104-.98.312-1.356.216-.376.516-.664.9-.864.384-.2.84-.3 1.368-.3.528 0 .984.1 1.368.3.384.2.68.488.888.864.216.376.324.824.324 1.344v1.764c0 .52-.108.972-.324 1.356a2.103 2.103 0 01-.888.864c-.384.2-.84.3-1.368.3zm0-.96c.472 0 .84-.132 1.104-.396.264-.264.396-.652.396-1.164v-1.752c0-.512-.132-.9-.396-1.164-.264-.264-.632-.396-1.104-.396-.464 0-.832.132-1.104.396-.264.264-.396.652-.396 1.164v1.752c0 .512.132.9.396 1.164.272.264.64.396 1.104.396zm4.434.864v-6.6h1.464l.864 2.532c.088.256.168.512.24.768.072.248.124.44.156.576.032-.136.08-.328.144-.576.072-.256.148-.516.228-.78l.816-2.52h1.464V18h-1.044v-1.02c0-.36.004-.752.012-1.176l.024-1.284.048-1.224c.016-.392.028-.736.036-1.032l-1.176 3.756h-1.14L89.2 12.288c.016.36.028.808.036 1.344.016.536.028 1.096.036 1.68.016.584.024 1.14.024 1.668V18h-1.044zm7.337 0v-6.6h4.944V18h-1.08v-5.616H96.67V18h-1.08zm9.018.12c-.696 0-1.244-.176-1.644-.528-.4-.36-.6-.844-.6-1.452 0-.616.2-1.1.6-1.452.4-.352.94-.528 1.62-.528h2.04v-.66c0-.408-.124-.72-.372-.936-.24-.224-.584-.336-1.032-.336-.392 0-.72.084-.984.252-.264.16-.416.38-.456.66h-1.08c.072-.568.34-1.02.804-1.356.464-.336 1.044-.504 1.74-.504.76 0 1.36.196 1.8.588.44.392.66.924.66 1.596V18h-1.056v-1.26h-.18l.18-.18c0 .48-.188.86-.564 1.14-.368.28-.86.42-1.476.42zm.264-.852c.512 0 .932-.128 1.26-.384.328-.256.492-.584.492-.984v-.936h-2.016c-.36 0-.644.1-.852.3-.208.2-.312.472-.312.816 0 .368.124.66.372.876.256.208.608.312 1.056.312zm4.962.732v-6.6h1.08v2.748h2.784V11.4h1.08V18h-1.08v-2.868h-2.784V18h-1.08zm7.122 0v-6.6h1.032V15c0 .232-.008.476-.024.732-.008.256-.024.5-.048.732a7.615 7.615 0 01-.06.576l2.664-5.64h1.38V18h-1.032v-3.6c0-.232.004-.476.012-.732.016-.256.036-.5.06-.732l.06-.588L118.335 18h-1.38zm6.714 0l1.692-2.544c-.504-.12-.896-.352-1.176-.696-.272-.344-.408-.772-.408-1.284 0-.648.212-1.156.636-1.524.432-.368 1.02-.552 1.764-.552h2.844V18h-1.08v-2.46h-1.452l-1.56 2.46h-1.26zm2.508-3.42h1.764v-2.22h-1.764c-.4 0-.716.1-.948.3-.232.192-.348.464-.348.816 0 .344.116.616.348.816.232.192.548.288.948.288zm5.873 5.34l.96-3.732h1.56l-1.56 3.732h-.96zm15.888-1.8c-.528 0-.992-.1-1.392-.3a2.161 2.161 0 01-.912-.864c-.216-.384-.324-.836-.324-1.356v-1.8c0-.528.108-.98.324-1.356.216-.376.52-.664.912-.864.4-.2.864-.3 1.392-.3.76 0 1.372.204 1.836.612.464.408.708.964.732 1.668h-1.08c-.024-.424-.168-.748-.432-.972-.256-.232-.608-.348-1.056-.348-.472 0-.848.136-1.128.408-.28.264-.42.644-.42 1.14V15.6c0 .496.14.88.42 1.152.28.272.656.408 1.128.408.448 0 .8-.116 1.056-.348.264-.232.408-.556.432-.972h1.08c-.024.704-.268 1.26-.732 1.668-.464.408-1.076.612-1.836.612zm4.626-.12v-6.6h4.944V18h-1.08v-5.616h-2.784V18h-1.08zm9.593.12c-.52 0-.976-.104-1.368-.312a2.258 2.258 0 01-.9-.876c-.208-.384-.312-.828-.312-1.332v-1.8c0-.512.104-.956.312-1.332.216-.376.516-.668.9-.876.392-.208.848-.312 1.368-.312.52 0 .972.104 1.356.312.392.208.692.5.9.876.216.376.324.82.324 1.332v1.164h-4.104v.636c0 .52.132.92.396 1.2.264.272.64.408 1.128.408.416 0 .752-.072 1.008-.216a.953.953 0 00.468-.672h1.08c-.072.552-.344.992-.816 1.32-.464.32-1.044.48-1.74.48zm1.524-3.876V13.8c0-.52-.132-.92-.396-1.2-.256-.28-.632-.42-1.128-.42-.488 0-.864.14-1.128.42-.264.28-.396.68-.396 1.2v.348h3.132l-.084.096zm7.818 5.436V18h-4.692v-6.6h1.08v5.64h2.592V11.4h1.08v5.64h.9v2.64h-.96zm2.43-1.68v-6.6h1.032V15c0 .232-.008.476-.024.732-.008.256-.024.5-.048.732a7.615 7.615 0 01-.06.576l2.664-5.64h1.38V18h-1.032v-3.6c0-.232.004-.476.012-.732.016-.256.036-.5.06-.732l.06-.588L175.309 18h-1.38zm9.018.12c-.696 0-1.244-.176-1.644-.528-.4-.36-.6-.844-.6-1.452 0-.616.2-1.1.6-1.452.4-.352.94-.528 1.62-.528h2.04v-.66c0-.408-.124-.72-.372-.936-.24-.224-.584-.336-1.032-.336-.392 0-.72.084-.984.252-.264.16-.416.38-.456.66h-1.08c.072-.568.34-1.02.804-1.356.464-.336 1.044-.504 1.74-.504.76 0 1.36.196 1.8.588.44.392.66.924.66 1.596V18h-1.056v-1.26h-.18l.18-.18c0 .48-.188.86-.564 1.14-.368.28-.86.42-1.476.42zm.264-.852c.512 0 .932-.128 1.26-.384.328-.256.492-.584.492-.984v-.936h-2.016c-.36 0-.644.1-.852.3-.208.2-.312.472-.312.816 0 .368.124.66.372.876.256.208.608.312 1.056.312zm4.134.816v-1.008h.216c.368 0 .624-.144.768-.432.152-.288.232-.804.24-1.548l.072-3.696h4.476V18h-1.08v-5.616h-2.328l-.06 2.76c-.016.696-.096 1.26-.24 1.692-.136.432-.352.748-.648.948-.288.2-.668.3-1.14.3h-.276zm7.949-.084v-6.6h1.032V15c0 .232-.008.476-.024.732-.008.256-.024.5-.048.732a7.615 7.615 0 01-.06.576l2.664-5.64h1.38V18h-1.032v-3.6c0-.232.004-.476.012-.732.016-.256.036-.5.06-.732l.06-.588L196.674 18h-1.38zm9.282.084c-.696 0-1.268-.148-1.716-.444a1.764 1.764 0 01-.792-1.2h1.14c.056.2.204.364.444.492.248.128.556.192.924.192h.564c.392 0 .696-.092.912-.276a.887.887 0 00.336-.72c0-.32-.108-.572-.324-.756-.208-.184-.516-.276-.924-.276h-1.452v-.936h1.416c.368 0 .648-.088.84-.264a.9.9 0 00.288-.696c0-.2-.044-.368-.132-.504a.763.763 0 00-.372-.312 1.551 1.551 0 00-.612-.108h-.6c-.32 0-.596.072-.828.216-.232.144-.372.32-.42.528h-1.14c.08-.496.34-.904.78-1.224.44-.32.976-.48 1.608-.48h.6c.472 0 .876.076 1.212.228.336.144.592.352.768.624.184.272.276.596.276.972 0 .392-.128.716-.384.972-.256.248-.616.388-1.08.42v.048c.568.04.98.192 1.236.456s.384.644.384 1.14c0 .584-.216 1.048-.648 1.392-.432.344-1.012.516-1.74.516h-.564zm4.962-.084v-6.6h1.032V15c0 .232-.008.476-.024.732-.008.256-.024.5-.048.732a7.615 7.615 0 01-.06.576l2.664-5.64h1.38V18h-1.032v-3.6c0-.232.004-.476.012-.732.016-.256.036-.5.06-.732l.06-.588L210.918 18h-1.38zm7.098 2.16V11.4h1.08v1.26h.216l-.216.252c0-.504.164-.9.492-1.188.336-.296.776-.444 1.32-.444.664 0 1.192.22 1.584.66.4.432.6 1.028.6 1.788v1.932c0 .504-.092.94-.276 1.308a1.962 1.962 0 01-.756.852c-.32.2-.704.3-1.152.3-.536 0-.972-.148-1.308-.444-.336-.296-.504-.692-.504-1.188l.216.252h-.24l.024 1.5v1.92h-1.08zm2.532-2.976c.456 0 .812-.136 1.068-.408.264-.272.396-.664.396-1.176v-1.8c0-.512-.132-.904-.396-1.176-.256-.272-.612-.408-1.068-.408-.44 0-.792.14-1.056.42-.264.28-.396.668-.396 1.164v1.8c0 .496.132.884.396 1.164.264.28.616.42 1.056.42zm5.621 2.976l.972-2.568-2.448-6.192h1.2l1.536 4.08c.056.136.108.3.156.492l.12.468.12-.468c.048-.192.096-.356.144-.492l1.44-4.08h1.164l-3.252 8.76h-1.152zm9.618-2.04c-.552 0-.996-.188-1.332-.564-.336-.376-.504-.868-.504-1.476v-.996h-1.056V18h-.996v-6.6h.996v2.82h1.056v-.9c0-.616.164-1.108.492-1.476.336-.376.784-.564 1.344-.564.592 0 1.068.188 1.428.564.36.368.54.86.54 1.476v2.76c0 .608-.18 1.1-.54 1.476-.36.376-.836.564-1.428.564zm0-.84c.304 0 .54-.104.708-.312.176-.216.264-.512.264-.888v-2.76c0-.376-.088-.668-.264-.876-.168-.216-.404-.324-.708-.324-.296 0-.528.108-.696.324-.168.208-.252.5-.252.876v2.76c0 .376.084.672.252.888.168.208.4.312.696.312zm8.43 2.4V18h-5.172v-6.6h.972v5.688h1.392V11.4h.84v5.688h1.392V11.4h.972v5.688h.564v2.592h-.96zm4.206-1.56c-.696 0-1.244-.176-1.644-.528-.4-.36-.6-.844-.6-1.452 0-.616.2-1.1.6-1.452.4-.352.94-.528 1.62-.528h2.04v-.66c0-.408-.124-.72-.372-.936-.24-.224-.584-.336-1.032-.336-.392 0-.72.084-.984.252-.264.16-.416.38-.456.66h-1.08c.072-.568.34-1.02.804-1.356.464-.336 1.044-.504 1.74-.504.76 0 1.36.196 1.8.588.44.392.66.924.66 1.596V18h-1.056v-1.26h-.18l.18-.18c0 .48-.188.86-.564 1.14-.368.28-.86.42-1.476.42zm.264-.852c.512 0 .932-.128 1.26-.384.328-.256.492-.584.492-.984v-.936h-2.016c-.36 0-.644.1-.852.3-.208.2-.312.472-.312.816 0 .368.124.66.372.876.256.208.608.312 1.056.312zm4.554.732l1.692-2.544c-.504-.12-.896-.352-1.176-.696-.272-.344-.408-.772-.408-1.284 0-.648.212-1.156.636-1.524.432-.368 1.02-.552 1.764-.552h2.844V18h-1.08v-2.46h-1.452l-1.56 2.46h-1.26zm2.508-3.42h1.764v-2.22h-1.764c-.4 0-.716.1-.948.3-.232.192-.348.464-.348.816 0 .344.116.616.348.816.232.192.548.288.948.288zm7.517 3.54c-.528 0-.992-.1-1.392-.3a2.161 2.161 0 01-.912-.864c-.216-.384-.324-.836-.324-1.356v-1.8c0-.528.108-.98.324-1.356.216-.376.52-.664.912-.864.4-.2.864-.3 1.392-.3.76 0 1.372.204 1.836.612.464.408.708.964.732 1.668h-1.08c-.024-.424-.168-.748-.432-.972-.256-.232-.608-.348-1.056-.348-.472 0-.848.136-1.128.408-.28.264-.42.644-.42 1.14V15.6c0 .496.14.88.42 1.152.28.272.656.408 1.128.408.448 0 .8-.116 1.056-.348.264-.232.408-.556.432-.972h1.08c-.024.704-.268 1.26-.732 1.668-.464.408-1.076.612-1.836.612zm4.218-.12l1.692-2.544c-.504-.12-.896-.352-1.176-.696-.272-.344-.408-.772-.408-1.284 0-.648.212-1.156.636-1.524.432-.368 1.02-.552 1.764-.552h2.844V18h-1.08v-2.46h-1.452l-1.56 2.46h-1.26zm2.508-3.42h1.764v-2.22h-1.764c-.4 0-.716.1-.948.3-.232.192-.348.464-.348.816 0 .344.116.616.348.816.232.192.548.288.948.288zM280.756 18v-6.6h1.08v2.748h2.784V11.4h1.08V18h-1.08v-2.868h-2.784V18h-1.08zm9.018.12c-.696 0-1.244-.176-1.644-.528-.4-.36-.6-.844-.6-1.452 0-.616.2-1.1.6-1.452.4-.352.94-.528 1.62-.528h2.04v-.66c0-.408-.124-.72-.372-.936-.24-.224-.584-.336-1.032-.336-.392 0-.72.084-.984.252-.264.16-.416.38-.456.66h-1.08c.072-.568.34-1.02.804-1.356.464-.336 1.044-.504 1.74-.504.76 0 1.36.196 1.8.588.44.392.66.924.66 1.596V18h-1.056v-1.26h-.18l.18-.18c0 .48-.188.86-.564 1.14-.368.28-.86.42-1.476.42zm.264-.852c.512 0 .932-.128 1.26-.384.328-.256.492-.584.492-.984v-.936h-2.016c-.36 0-.644.1-.852.3-.208.2-.312.472-.312.816 0 .368.124.66.372.876.256.208.608.312 1.056.312zM10.128 44v-6.6h4.944V44h-1.08v-5.616h-2.784V44h-1.08zm7.098 2.16V37.4h1.08v1.26h.216l-.216.252c0-.504.164-.9.492-1.188.336-.296.776-.444 1.32-.444.664 0 1.192.22 1.584.66.4.432.6 1.028.6 1.788v1.932c0 .504-.092.94-.276 1.308a1.962 1.962 0 01-.756.852c-.32.2-.704.3-1.152.3-.536 0-.972-.148-1.308-.444-.336-.296-.504-.692-.504-1.188l.216.252h-.24l.024 1.5v1.92h-1.08zm2.532-2.976c.456 0 .812-.136 1.068-.408.264-.272.396-.664.396-1.176v-1.8c0-.512-.132-.904-.396-1.176-.256-.272-.612-.408-1.068-.408-.44 0-.792.14-1.056.42-.264.28-.396.668-.396 1.164v1.8c0 .496.132.884.396 1.164.264.28.616.42 1.056.42zm7.086.912c-.528 0-.984-.1-1.368-.3a2.178 2.178 0 01-.9-.864c-.208-.384-.312-.836-.312-1.356v-1.752c0-.528.104-.98.312-1.356.216-.376.516-.664.9-.864.384-.2.84-.3 1.368-.3.528 0 .984.1 1.368.3.384.2.68.488.888.864.216.376.324.824.324 1.344v1.764c0 .52-.108.972-.324 1.356a2.103 2.103 0 01-.888.864c-.384.2-.84.3-1.368.3zm0-.96c.472 0 .84-.132 1.104-.396.264-.264.396-.652.396-1.164v-1.752c0-.512-.132-.9-.396-1.164-.264-.264-.632-.396-1.104-.396-.464 0-.832.132-1.104.396-.264.264-.396.652-.396 1.164v1.752c0 .512.132.9.396 1.164.272.264.64.396 1.104.396zm4.65.864v-6.6h1.031V41c0 .232-.008.476-.024.732-.008.256-.024.5-.048.732a7.615 7.615 0 01-.06.576l2.664-5.64h1.38V44h-1.032v-3.6c0-.232.004-.476.012-.732.016-.256.036-.5.06-.732l.06-.588L32.873 44h-1.38zm9.281.084c-.696 0-1.268-.148-1.716-.444a1.764 1.764 0 01-.792-1.2h1.14c.056.2.204.364.444.492.248.128.556.192.924.192h.564c.392 0 .696-.092.912-.276a.887.887 0 00.336-.72c0-.32-.108-.572-.324-.756-.208-.184-.516-.276-.924-.276h-1.452v-.936h1.416c.368 0 .648-.088.84-.264a.9.9 0 00.288-.696c0-.2-.044-.368-.132-.504a.763.763 0 00-.372-.312 1.551 1.551 0 00-.612-.108h-.6c-.32 0-.596.072-.828.216-.232.144-.372.32-.42.528h-1.14c.08-.496.34-.904.78-1.224.44-.32.976-.48 1.608-.48h.6c.472 0 .876.076 1.212.228.336.144.592.352.768.624.184.272.276.596.276.972 0 .392-.128.716-.384.972-.256.248-.616.388-1.08.42v.048c.568.04.98.192 1.236.456s.384.644.384 1.14c0 .584-.216 1.048-.648 1.392-.432.344-1.012.516-1.74.516h-.564zM45.737 44v-6.6h2.856c.688 0 1.22.156 1.596.468.376.304.564.732.564 1.284 0 .456-.156.824-.468 1.104-.312.272-.724.408-1.236.408v-.096c.56 0 1.008.14 1.344.42.344.28.516.656.516 1.128 0 .592-.2 1.056-.6 1.392-.4.328-.96.492-1.68.492h-2.892zm1.056-.948h1.836c.384 0 .68-.084.888-.252.216-.168.324-.404.324-.708 0-.312-.108-.552-.324-.72-.208-.168-.504-.252-.888-.252h-1.836v1.932zm0-2.868h1.8c.336 0 .6-.08.792-.24.2-.16.3-.384.3-.672 0-.288-.096-.512-.288-.672-.192-.168-.46-.252-.804-.252h-1.8v1.836zm8.538 3.912c-.528 0-.984-.1-1.368-.3a2.178 2.178 0 01-.9-.864c-.208-.384-.312-.836-.312-1.356v-1.752c0-.528.104-.98.312-1.356.216-.376.516-.664.9-.864.384-.2.84-.3 1.368-.3.528 0 .984.1 1.368.3.384.2.68.488.888.864.216.376.324.824.324 1.344v1.764c0 .52-.108.972-.324 1.356a2.103 2.103 0 01-.888.864c-.384.2-.84.3-1.368.3zm0-.96c.472 0 .84-.132 1.104-.396.264-.264.396-.652.396-1.164v-1.752c0-.512-.132-.9-.396-1.164-.264-.264-.632-.396-1.104-.396-.464 0-.832.132-1.104.396-.264.264-.396.652-.396 1.164v1.752c0 .512.132.9.396 1.164.272.264.64.396 1.104.396zm3.881 2.544v-2.604h.54c.136-.136.276-.404.42-.804.153-.4.233-.908.24-1.524l.072-3.348h4.309v5.676h.84v2.604h-.96V44h-4.5v1.68h-.96zm1.68-2.604h2.82V38.36h-2.208l-.047 2.412c-.008.632-.077 1.144-.205 1.536-.128.392-.248.648-.36.768zm8.706 1.044c-.528 0-.992-.1-1.392-.3a2.161 2.161 0 01-.912-.864c-.216-.384-.324-.836-.324-1.356v-1.8c0-.528.108-.98.324-1.356.216-.376.52-.664.912-.864.4-.2.864-.3 1.392-.3.76 0 1.372.204 1.836.612.464.408.708.964.732 1.668h-1.08c-.024-.424-.168-.748-.432-.972-.256-.232-.608-.348-1.056-.348-.472 0-.848.136-1.128.408-.28.264-.42.644-.42 1.14V41.6c0 .496.14.88.42 1.152.28.272.656.408 1.128.408.448 0 .8-.116 1.056-.348.264-.232.408-.556.432-.972h1.08c-.024.704-.268 1.26-.732 1.668-.464.408-1.076.612-1.836.612zm6.558-.12v-5.652h-2.4V37.4h5.88v.948h-2.4V44h-1.08zm5.19 0v-6.6h2.856c.688 0 1.22.156 1.596.468.376.304.564.732.564 1.284 0 .456-.156.824-.468 1.104-.312.272-.724.408-1.236.408v-.096c.56 0 1.008.14 1.344.42.344.28.516.656.516 1.128 0 .592-.2 1.056-.6 1.392-.4.328-.96.492-1.68.492h-2.892zm1.056-.948h1.836c.384 0 .68-.084.888-.252.216-.168.324-.404.324-.708 0-.312-.108-.552-.324-.72-.208-.168-.504-.252-.888-.252h-1.836v1.932zm0-2.868h1.8c.336 0 .6-.08.792-.24.2-.16.3-.384.3-.672 0-.288-.096-.512-.288-.672-.192-.168-.46-.252-.804-.252h-1.8v1.836zm8.538 3.936c-.52 0-.976-.104-1.368-.312a2.258 2.258 0 01-.9-.876c-.208-.384-.312-.828-.312-1.332v-1.8c0-.512.104-.956.312-1.332.216-.376.516-.668.9-.876.392-.208.848-.312 1.368-.312.52 0 .972.104 1.356.312.392.208.692.5.9.876.216.376.324.82.324 1.332v1.164h-4.104v.636c0 .52.132.92.396 1.2.264.272.64.408 1.128.408.416 0 .752-.072 1.008-.216a.953.953 0 00.468-.672h1.08c-.072.552-.344.992-.816 1.32-.464.32-1.044.48-1.74.48zm1.524-3.876V39.8c0-.52-.132-.92-.396-1.2-.256-.28-.632-.42-1.128-.42-.488 0-.864.14-1.128.42-.264.28-.396.68-.396 1.2v.348h3.132l-.084.096zM102.71 44v-6.6h1.032V41c0 .232-.008.476-.024.732-.008.256-.024.5-.048.732a7.615 7.615 0 01-.06.576l2.664-5.64h1.38V44h-1.032v-3.6c0-.232.004-.476.012-.732.016-.256.036-.5.06-.732l.06-.588L104.091 44h-1.38zm16.716.096c-.528 0-.984-.1-1.368-.3a2.178 2.178 0 01-.9-.864c-.208-.384-.312-.836-.312-1.356v-1.752c0-.528.104-.98.312-1.356.216-.376.516-.664.9-.864.384-.2.84-.3 1.368-.3.528 0 .984.1 1.368.3.384.2.68.488.888.864.216.376.324.824.324 1.344v1.764c0 .52-.108.972-.324 1.356a2.103 2.103 0 01-.888.864c-.384.2-.84.3-1.368.3zm0-.96c.472 0 .84-.132 1.104-.396.264-.264.396-.652.396-1.164v-1.752c0-.512-.132-.9-.396-1.164-.264-.264-.632-.396-1.104-.396-.464 0-.832.132-1.104.396-.264.264-.396.652-.396 1.164v1.752c0 .512.132.9.396 1.164.272.264.64.396 1.104.396zm7.122.984c-.776 0-1.392-.228-1.848-.684-.448-.464-.672-1.096-.672-1.896v-3c0-1.056.264-1.868.792-2.436.528-.576 1.284-.864 2.268-.864h1.68v1.08h-1.68c-.648 0-1.14.192-1.476.576-.336.376-.504.924-.504 1.644v.78h.168l-.168.24c.008-.472.168-.84.48-1.104.312-.264.736-.396 1.272-.396.696 0 1.236.224 1.62.672.392.448.588 1.064.588 1.848v.96c0 .536-.1.996-.3 1.38-.2.384-.488.68-.864.888-.376.208-.828.312-1.356.312zm0-.96c.464 0 .82-.14 1.068-.42.248-.28.372-.68.372-1.2v-.96c0-.52-.124-.92-.372-1.2-.248-.28-.604-.42-1.068-.42-.464 0-.82.14-1.068.42-.248.272-.372.672-.372 1.2v.96c0 .52.124.92.372 1.2.248.28.604.42 1.068.42zm7.145.96c-.528 0-.992-.1-1.392-.3a2.161 2.161 0 01-.912-.864c-.216-.384-.324-.836-.324-1.356v-1.8c0-.528.108-.98.324-1.356.216-.376.52-.664.912-.864.4-.2.864-.3 1.392-.3.76 0 1.372.204 1.836.612.464.408.708.964.732 1.668h-1.08c-.024-.424-.168-.748-.432-.972-.256-.232-.608-.348-1.056-.348-.472 0-.848.136-1.128.408-.28.264-.42.644-.42 1.14V41.6c0 .496.14.88.42 1.152.28.272.656.408 1.128.408.448 0 .8-.116 1.056-.348.264-.232.408-.556.432-.972h1.08c-.024.704-.268 1.26-.732 1.668-.464.408-1.076.612-1.836.612zm3.798-.036v-1.008h.216c.368 0 .624-.144.768-.432.152-.288.232-.804.24-1.548l.072-3.696h4.476V44h-1.08v-5.616h-2.328l-.06 2.76c-.016.696-.096 1.26-.24 1.692-.136.432-.352.748-.648.948-.288.2-.668.3-1.14.3h-.276zm8.958 2.076l.972-2.568-2.448-6.192h1.2l1.536 4.08c.056.136.108.3.156.492l.12.468.12-.468c.048-.192.096-.356.144-.492l1.44-4.08h1.164l-3.252 8.76h-1.152zm5.202-2.16l1.44-3.384-1.344-3.216h1.044l1.152 2.88h.636V37.4h.912v2.88h.612l1.188-2.88h1.032l-1.344 3.18 1.44 3.42h-1.08l-1.2-3h-.648v3h-.912v-3h-.648l-1.212 3h-1.068zm8.033 0v-6.6h1.032V41c0 .232-.008.476-.024.732-.008.256-.024.5-.048.732a7.615 7.615 0 01-.06.576l2.664-5.64h1.38V44h-1.032v-3.6c0-.232.004-.476.012-.732.016-.256.036-.5.06-.732l.06-.588L161.065 44h-1.38zm7.122 0v-6.6h2.856c.688 0 1.22.156 1.596.468.376.304.564.732.564 1.284 0 .456-.156.824-.468 1.104-.312.272-.724.408-1.236.408v-.096c.56 0 1.008.14 1.344.42.344.28.516.656.516 1.128 0 .592-.2 1.056-.6 1.392-.4.328-.96.492-1.68.492h-2.892zm1.056-.948h1.836c.384 0 .68-.084.888-.252.216-.168.324-.404.324-.708 0-.312-.108-.552-.324-.72-.208-.168-.504-.252-.888-.252h-1.836v1.932zm0-2.868h1.8c.336 0 .6-.08.792-.24.2-.16.3-.384.3-.672 0-.288-.096-.512-.288-.672-.192-.168-.46-.252-.804-.252h-1.8v1.836zm7.962 3.936c-.696 0-1.244-.176-1.644-.528-.4-.36-.6-.844-.6-1.452 0-.616.2-1.1.6-1.452.4-.352.94-.528 1.62-.528h2.04v-.66c0-.408-.124-.72-.372-.936-.24-.224-.584-.336-1.032-.336-.392 0-.72.084-.984.252-.264.16-.416.38-.456.66h-1.08c.072-.568.34-1.02.804-1.356.464-.336 1.044-.504 1.74-.504.76 0 1.36.196 1.8.588.44.392.66.924.66 1.596V44h-1.056v-1.26h-.18l.18-.18c0 .48-.188.86-.564 1.14-.368.28-.86.42-1.476.42zm.264-.852c.512 0 .932-.128 1.26-.384.328-.256.492-.584.492-.984v-.936h-2.016c-.36 0-.644.1-.852.3-.208.2-.312.472-.312.816 0 .368.124.66.372.876.256.208.608.312 1.056.312zm4.962.732v-6.6h1.08v2.748h2.784V37.4h1.08V44h-1.08v-2.868h-2.784V44h-1.08zm7.122 0v-6.6h1.032V41c0 .232-.008.476-.024.732-.008.256-.024.5-.048.732a7.615 7.615 0 01-.06.576l2.664-5.64h1.38V44h-1.032v-3.6c0-.232.004-.476.012-.732.016-.256.036-.5.06-.732l.06-.588L189.553 44h-1.38zm7.121 0v-6.6h1.032V41c0 .232-.008.476-.024.732-.008.256-.024.5-.048.732a7.615 7.615 0 01-.06.576l2.664-5.64h1.38V44h-1.032v-3.6c0-.232.004-.476.012-.732.016-.256.036-.5.06-.732l.06-.588L196.674 44h-1.38zm16.716.12c-.776 0-1.392-.228-1.848-.684-.448-.464-.672-1.096-.672-1.896v-3c0-1.056.264-1.868.792-2.436.528-.576 1.284-.864 2.268-.864h1.68v1.08h-1.68c-.648 0-1.14.192-1.476.576-.336.376-.504.924-.504 1.644v.78h.168l-.168.24c.008-.472.168-.84.48-1.104.312-.264.736-.396 1.272-.396.696 0 1.236.224 1.62.672.392.448.588 1.064.588 1.848v.96c0 .536-.1.996-.3 1.38-.2.384-.488.68-.864.888-.376.208-.828.312-1.356.312zm0-.96c.464 0 .82-.14 1.068-.42.248-.28.372-.68.372-1.2v-.96c0-.52-.124-.92-.372-1.2-.248-.28-.604-.42-1.068-.42-.464 0-.82.14-1.068.42-.248.272-.372.672-.372 1.2v.96c0 .52.124.92.372 1.2.248.28.604.42 1.068.42zm6.546.96c-.696 0-1.244-.176-1.644-.528-.4-.36-.6-.844-.6-1.452 0-.616.2-1.1.6-1.452.4-.352.94-.528 1.62-.528h2.04v-.66c0-.408-.124-.72-.372-.936-.24-.224-.584-.336-1.032-.336-.392 0-.72.084-.984.252-.264.16-.416.38-.456.66h-1.08c.072-.568.34-1.02.804-1.356.464-.336 1.044-.504 1.74-.504.76 0 1.36.196 1.8.588.44.392.66.924.66 1.596V44h-1.056v-1.26h-.18l.18-.18c0 .48-.188.86-.564 1.14-.368.28-.86.42-1.476.42zm.264-.852c.512 0 .932-.128 1.26-.384.328-.256.492-.584.492-.984v-.936h-2.016c-.36 0-.644.1-.852.3-.208.2-.312.472-.312.816 0 .368.124.66.372.876.256.208.608.312 1.056.312zm4.961.732v-6.6h1.08v2.748h2.784V37.4h1.08V44h-1.08v-2.868h-2.784V44h-1.08zm7.158 0v-6.6h1.08v2.724h1.128l1.92-2.724h1.236l-2.22 3.144L236.339 44h-1.26l-1.92-2.94h-1.14V44h-1.08zm9.558.096c-.528 0-.984-.1-1.368-.3a2.178 2.178 0 01-.9-.864c-.208-.384-.312-.836-.312-1.356v-1.752c0-.528.104-.98.312-1.356.216-.376.516-.664.9-.864.384-.2.84-.3 1.368-.3.528 0 .984.1 1.368.3.384.2.68.488.888.864.216.376.324.824.324 1.344v1.764c0 .52-.108.972-.324 1.356a2.103 2.103 0 01-.888.864c-.384.2-.84.3-1.368.3zm0-.96c.472 0 .84-.132 1.104-.396.264-.264.396-.652.396-1.164v-1.752c0-.512-.132-.9-.396-1.164-.264-.264-.632-.396-1.104-.396-.464 0-.832.132-1.104.396-.264.264-.396.652-.396 1.164v1.752c0 .512.132.9.396 1.164.272.264.64.396 1.104.396zm4.434.864v-6.6h1.464l.864 2.532c.088.256.168.512.24.768.072.248.124.44.156.576.032-.136.08-.328.144-.576.072-.256.148-.516.228-.78l.816-2.52h1.464V44h-1.044v-1.02c0-.36.004-.752.012-1.176l.024-1.284.048-1.224c.016-.392.028-.736.036-1.032l-1.176 3.756h-1.14l-1.188-3.732c.016.36.028.808.036 1.344.016.536.028 1.096.036 1.68.016.584.024 1.14.024 1.668V44h-1.044zm9.234.12c-.696 0-1.244-.176-1.644-.528-.4-.36-.6-.844-.6-1.452 0-.616.2-1.1.6-1.452.4-.352.94-.528 1.62-.528h2.04v-.66c0-.408-.124-.72-.372-.936-.24-.224-.584-.336-1.032-.336-.392 0-.72.084-.984.252-.264.16-.416.38-.456.66h-1.08c.072-.568.34-1.02.804-1.356.464-.336 1.044-.504 1.74-.504.76 0 1.36.196 1.8.588.44.392.66.924.66 1.596V44h-1.056v-1.26h-.18l.18-.18c0 .48-.188.86-.564 1.14-.368.28-.86.42-1.476.42zm.264-.852c.512 0 .932-.128 1.26-.384.328-.256.492-.584.492-.984v-.936h-2.016c-.36 0-.644.1-.852.3-.208.2-.312.472-.312.816 0 .368.124.66.372.876.256.208.608.312 1.056.312zm6.893.732v-5.652h-2.4V37.4h5.88v.948h-2.4V44h-1.08zm7.662.096c-.528 0-.984-.1-1.368-.3a2.178 2.178 0 01-.9-.864c-.208-.384-.312-.836-.312-1.356v-1.752c0-.528.104-.98.312-1.356.216-.376.516-.664.9-.864.384-.2.84-.3 1.368-.3.528 0 .984.1 1.368.3.384.2.68.488.888.864.216.376.324.824.324 1.344v1.764c0 .52-.108.972-.324 1.356a2.103 2.103 0 01-.888.864c-.384.2-.84.3-1.368.3zm0-.96c.472 0 .84-.132 1.104-.396.264-.264.396-.652.396-1.164v-1.752c0-.512-.132-.9-.396-1.164-.264-.264-.632-.396-1.104-.396-.464 0-.832.132-1.104.396-.264.264-.396.652-.396 1.164v1.752c0 .512.132.9.396 1.164.272.264.64.396 1.104.396zm4.65.864v-6.6h2.856c.688 0 1.22.156 1.596.468.376.304.564.732.564 1.284 0 .456-.156.824-.468 1.104-.312.272-.724.408-1.236.408v-.096c.56 0 1.008.14 1.344.42.344.28.516.656.516 1.128 0 .592-.2 1.056-.6 1.392-.4.328-.96.492-1.68.492h-2.892zm1.056-.948h1.836c.384 0 .68-.084.888-.252.216-.168.324-.404.324-.708 0-.312-.108-.552-.324-.72-.208-.168-.504-.252-.888-.252h-1.836v1.932zm0-2.868h1.8c.336 0 .6-.08.792-.24.2-.16.3-.384.3-.672 0-.288-.096-.512-.288-.672-.192-.168-.46-.252-.804-.252h-1.8v1.836zm8.538 3.936c-.304 0-.548-.088-.732-.264-.176-.176-.264-.412-.264-.708 0-.312.088-.56.264-.744.184-.184.428-.276.732-.276s.544.092.72.276c.184.184.276.432.276.744 0 .296-.092.532-.276.708-.176.176-.416.264-.72.264zM294.95 44v-8.76h1.044v4.92c0 .288-.008.596-.024.924a31.914 31.914 0 01-.084 1.656l2.664-7.5h1.44V44h-1.044v-4.92c0-.296.004-.604.012-.924.016-.328.032-.636.048-.924l.06-.732-2.676 7.5h-1.44zm6.954 0v-6.6h1.464l.864 2.532c.088.256.168.512.24.768.072.248.124.44.156.576.032-.136.08-.328.144-.576.072-.256.148-.516.228-.78l.816-2.52h1.464V44h-1.044v-1.02c0-.36.004-.752.012-1.176l.024-1.284.048-1.224c.016-.392.028-.736.036-1.032l-1.176 3.756h-1.14l-1.188-3.732c.016.36.028.808.036 1.344.016.536.028 1.096.036 1.68.016.584.024 1.14.024 1.668V44h-1.044zM12.06 70v-5.652h-2.4V63.4h5.88v.948h-2.4V70h-1.08zm5.166 2.16V63.4h1.08v1.26h.216l-.216.252c0-.504.164-.9.492-1.188.336-.296.776-.444 1.32-.444.664 0 1.192.22 1.584.66.4.432.6 1.028.6 1.788v1.932c0 .504-.092.94-.276 1.308a1.962 1.962 0 01-.756.852c-.32.2-.704.3-1.152.3-.536 0-.972-.148-1.308-.444-.336-.296-.504-.692-.504-1.188l.216.252h-.24l.024 1.5v1.92h-1.08zm2.532-2.976c.456 0 .812-.136 1.068-.408.264-.272.396-.664.396-1.176v-1.8c0-.512-.132-.904-.396-1.176-.256-.272-.612-.408-1.068-.408-.44 0-.792.14-1.056.42-.264.28-.396.668-.396 1.164v1.8c0 .496.132.884.396 1.164.264.28.616.42 1.056.42zm7.086.936c-.52 0-.976-.104-1.368-.312a2.258 2.258 0 01-.9-.876c-.208-.384-.312-.828-.312-1.332v-1.8c0-.512.104-.956.312-1.332.216-.376.516-.668.9-.876.392-.208.848-.312 1.368-.312.52 0 .972.104 1.356.312.392.208.692.5.9.876.216.376.324.82.324 1.332v1.164H25.32v.636c0 .52.132.92.396 1.2.264.272.64.408 1.128.408.416 0 .752-.072 1.008-.216a.953.953 0 00.468-.672h1.08c-.072.552-.344.992-.816 1.32-.464.32-1.044.48-1.74.48zm1.524-3.876V65.8c0-.52-.132-.92-.396-1.2-.256-.28-.632-.42-1.128-.42-.488 0-.864.14-1.128.42-.264.28-.396.68-.396 1.2v.348h3.132l-.084.096zm5.597 3.876c-.776 0-1.392-.228-1.848-.684-.448-.464-.672-1.096-.672-1.896v-3c0-1.056.264-1.868.792-2.436.528-.576 1.284-.864 2.268-.864h1.68v1.08h-1.68c-.648 0-1.14.192-1.476.576-.336.376-.504.924-.504 1.644v.78h.168l-.168.24c.008-.472.168-.84.48-1.104.312-.264.736-.396 1.272-.396.696 0 1.236.224 1.62.672.392.448.588 1.064.588 1.848v.96c0 .536-.1.996-.3 1.38-.2.384-.488.68-.864.888-.376.208-.828.312-1.356.312zm0-.96c.464 0 .82-.14 1.068-.42.248-.28.372-.68.372-1.2v-.96c0-.52-.124-.92-.372-1.2-.248-.28-.604-.42-1.068-.42-.464 0-.82.14-1.068.42-.248.272-.372.672-.372 1.2v.96c0 .52.124.92.372 1.2.248.28.604.42 1.068.42zm7.122.936c-.528 0-.984-.1-1.368-.3a2.178 2.178 0 01-.9-.864c-.208-.384-.312-.836-.312-1.356v-1.752c0-.528.104-.98.312-1.356.216-.376.516-.664.9-.864.384-.2.84-.3 1.368-.3.528 0 .984.1 1.368.3.384.2.68.488.888.864.216.376.324.824.324 1.344v1.764c0 .52-.108.972-.324 1.356a2.103 2.103 0 01-.888.864c-.384.2-.84.3-1.368.3zm0-.96c.472 0 .84-.132 1.104-.396.264-.264.396-.652.396-1.164v-1.752c0-.512-.132-.9-.396-1.164-.264-.264-.632-.396-1.104-.396-.464 0-.832.132-1.104.396-.264.264-.396.652-.396 1.164v1.752c0 .512.132.9.396 1.164.272.264.64.396 1.104.396zm4.65.864v-6.6h2.856c.688 0 1.22.156 1.596.468.376.304.564.732.564 1.284 0 .456-.156.824-.468 1.104-.312.272-.724.408-1.236.408v-.096c.56 0 1.008.14 1.344.42.344.28.516.656.516 1.128 0 .592-.2 1.056-.6 1.392-.4.328-.96.492-1.68.492h-2.892zm1.056-.948h1.836c.384 0 .68-.084.888-.252.216-.168.324-.404.324-.708 0-.312-.108-.552-.324-.72-.208-.168-.504-.252-.888-.252h-1.836v1.932zm0-2.868h1.8c.336 0 .6-.08.792-.24.2-.16.3-.384.3-.672 0-.288-.096-.512-.288-.672-.192-.168-.46-.252-.804-.252h-1.8v1.836zm7.962 3.936c-.696 0-1.244-.176-1.644-.528-.4-.36-.6-.844-.6-1.452 0-.616.2-1.1.6-1.452.4-.352.94-.528 1.62-.528h2.04v-.66c0-.408-.124-.72-.372-.936-.24-.224-.584-.336-1.032-.336-.392 0-.72.084-.984.252-.264.16-.416.38-.456.66h-1.08c.072-.568.34-1.02.804-1.356.464-.336 1.044-.504 1.74-.504.76 0 1.36.196 1.8.588.44.392.66.924.66 1.596V70h-1.056v-1.26h-.18l.18-.18c0 .48-.188.86-.564 1.14-.368.28-.86.42-1.476.42zm.264-.852c.512 0 .932-.128 1.26-.384.328-.256.492-.584.492-.984v-.936h-2.016c-.36 0-.644.1-.852.3-.208.2-.312.472-.312.816 0 .368.124.66.372.876.256.208.608.312 1.056.312zm4.134.816v-1.008h.215c.368 0 .624-.144.768-.432.152-.288.232-.804.24-1.548l.073-3.696h4.475V70h-1.08v-5.616h-2.328l-.06 2.76c-.016.696-.096 1.26-.24 1.692-.136.432-.352.748-.648.948-.287.2-.667.3-1.14.3h-.275zm10.421.012c-.528 0-.984-.1-1.368-.3a2.178 2.178 0 01-.9-.864c-.208-.384-.312-.836-.312-1.356v-1.752c0-.528.104-.98.312-1.356.216-.376.516-.664.9-.864.384-.2.84-.3 1.368-.3.528 0 .984.1 1.368.3.384.2.68.488.888.864.216.376.324.824.324 1.344v1.764c0 .52-.108.972-.324 1.356a2.103 2.103 0 01-.888.864c-.384.2-.84.3-1.368.3zm0-.96c.472 0 .84-.132 1.104-.396.264-.264.396-.652.396-1.164v-1.752c0-.512-.132-.9-.396-1.164-.264-.264-.632-.396-1.104-.396-.464 0-.832.132-1.104.396-.264.264-.396.652-.396 1.164v1.752c0 .512.132.9.396 1.164.272.264.64.396 1.104.396zm7.146.984c-.528 0-.992-.1-1.392-.3a2.161 2.161 0 01-.912-.864c-.216-.384-.324-.836-.324-1.356v-1.8c0-.528.108-.98.324-1.356.216-.376.52-.664.912-.864.4-.2.864-.3 1.392-.3.76 0 1.372.204 1.836.612.464.408.708.964.732 1.668h-1.08c-.024-.424-.168-.748-.432-.972-.256-.232-.608-.348-1.056-.348-.472 0-.848.136-1.128.408-.28.264-.42.644-.42 1.14V67.6c0 .496.14.88.42 1.152.28.272.656.408 1.128.408.448 0 .8-.116 1.056-.348.264-.232.408-.556.432-.972h1.08c-.024.704-.268 1.26-.732 1.668-.464.408-1.076.612-1.836.612zm4.674-.12v-6.6h1.08v2.424h1.944c.744 0 1.328.188 1.752.564.432.368.648.876.648 1.524 0 .64-.216 1.148-.648 1.524-.432.376-1.016.564-1.752.564h-3.024zm1.08-.984h1.944c.416 0 .732-.092.948-.276.224-.192.336-.468.336-.828 0-.36-.112-.632-.336-.816-.216-.192-.532-.288-.948-.288h-1.944v2.208zm15.611 1.104c-.528 0-.992-.1-1.392-.3a2.161 2.161 0 01-.912-.864c-.216-.384-.324-.836-.324-1.356v-1.8c0-.528.108-.98.324-1.356.216-.376.52-.664.912-.864.4-.2.864-.3 1.392-.3.76 0 1.372.204 1.836.612.464.408.708.964.732 1.668h-1.08c-.024-.424-.168-.748-.432-.972-.256-.232-.608-.348-1.056-.348-.472 0-.848.136-1.128.408-.28.264-.42.644-.42 1.14V67.6c0 .496.14.88.42 1.152.28.272.656.408 1.128.408.448 0 .8-.116 1.056-.348.264-.232.408-.556.432-.972h1.08c-.024.704-.268 1.26-.732 1.668-.464.408-1.076.612-1.836.612zm7.098-.024c-.528 0-.984-.1-1.368-.3a2.178 2.178 0 01-.9-.864c-.208-.384-.312-.836-.312-1.356v-1.752c0-.528.104-.98.312-1.356.216-.376.516-.664.9-.864.384-.2.84-.3 1.368-.3.528 0 .984.1 1.368.3.384.2.68.488.888.864.216.376.324.824.324 1.344v1.764c0 .52-.108.972-.324 1.356a2.103 2.103 0 01-.888.864c-.384.2-.84.3-1.368.3zm0-.96c.472 0 .84-.132 1.104-.396.264-.264.396-.652.396-1.164v-1.752c0-.512-.132-.9-.396-1.164-.264-.264-.632-.396-1.104-.396-.464 0-.832.132-1.104.396-.264.264-.396.652-.396 1.164v1.752c0 .512.132.9.396 1.164.272.264.64.396 1.104.396zm4.65.864v-6.6h2.856c.688 0 1.22.156 1.596.468.376.304.564.732.564 1.284 0 .456-.156.824-.468 1.104-.312.272-.724.408-1.236.408v-.096c.56 0 1.008.14 1.344.42.344.28.516.656.516 1.128 0 .592-.2 1.056-.6 1.392-.4.328-.96.492-1.68.492h-2.892zm1.056-.948h1.836c.384 0 .68-.084.888-.252.216-.168.324-.404.324-.708 0-.312-.108-.552-.324-.72-.208-.168-.504-.252-.888-.252h-1.836v1.932zm0-2.868h1.8c.336 0 .6-.08.792-.24.2-.16.3-.384.3-.672 0-.288-.096-.512-.288-.672-.192-.168-.46-.252-.804-.252h-1.8v1.836zm6.042 5.976V63.4h1.08v1.26h.216l-.216.252c0-.504.164-.9.492-1.188.336-.296.776-.444 1.32-.444.664 0 1.192.22 1.584.66.4.432.6 1.028.6 1.788v1.932c0 .504-.092.94-.276 1.308a1.962 1.962 0 01-.756.852c-.32.2-.704.3-1.152.3-.536 0-.972-.148-1.308-.444-.336-.296-.504-.692-.504-1.188l.216.252h-.24l.024 1.5v1.92h-1.08zm2.532-2.976c.456 0 .812-.136 1.068-.408.264-.272.396-.664.396-1.176v-1.8c0-.512-.132-.904-.396-1.176-.256-.272-.612-.408-1.068-.408-.44 0-.792.14-1.056.42-.264.28-.396.668-.396 1.164v1.8c0 .496.132.884.396 1.164.264.28.616.42 1.056.42zm7.086.936c-.52 0-.976-.104-1.368-.312a2.258 2.258 0 01-.9-.876c-.208-.384-.312-.828-.312-1.332v-1.8c0-.512.104-.956.312-1.332.216-.376.516-.668.9-.876.392-.208.848-.312 1.368-.312.52 0 .972.104 1.356.312.392.208.692.5.9.876.216.376.324.82.324 1.332v1.164h-4.104v.636c0 .52.132.92.396 1.2.264.272.64.408 1.128.408.416 0 .752-.072 1.008-.216a.953.953 0 00.468-.672h1.08c-.072.552-.344.992-.816 1.32-.464.32-1.044.48-1.74.48zm1.524-3.876V65.8c0-.52-.132-.92-.396-1.2-.256-.28-.632-.42-1.128-.42-.488 0-.864.14-1.128.42-.264.28-.396.68-.396 1.2v.348h3.132l-.084.096zM130.982 70v-6.6h1.464l.864 2.532c.088.256.168.512.24.768.072.248.124.44.156.576.032-.136.08-.328.144-.576.072-.256.148-.516.228-.78l.816-2.52h1.464V70h-1.044v-1.02c0-.36.004-.752.012-1.176l.024-1.284.048-1.224c.016-.392.028-.736.036-1.032l-1.176 3.756h-1.14l-1.188-3.732c.016.36.028.808.036 1.344.016.536.028 1.096.036 1.68.016.584.024 1.14.024 1.668V70h-1.044zm9.81.12c-.52 0-.976-.104-1.368-.312a2.258 2.258 0 01-.9-.876c-.208-.384-.312-.828-.312-1.332v-1.8c0-.512.104-.956.312-1.332.216-.376.516-.668.9-.876.392-.208.848-.312 1.368-.312.52 0 .972.104 1.356.312.392.208.692.5.9.876.216.376.324.82.324 1.332v1.164h-4.104v.636c0 .52.132.92.396 1.2.264.272.64.408 1.128.408.416 0 .752-.072 1.008-.216a.953.953 0 00.468-.672h1.08c-.072.552-.344.992-.816 1.32-.464.32-1.044.48-1.74.48zm1.524-3.876V65.8c0-.52-.132-.92-.396-1.2-.256-.28-.632-.42-1.128-.42-.488 0-.864.14-1.128.42-.264.28-.396.68-.396 1.2v.348h3.132l-.084.096zM145.442 70v-6.6h1.08v2.748h2.784V63.4h1.08V70h-1.08v-2.868h-2.784V70h-1.08zm7.122 0v-6.6h1.08v2.748h2.784V63.4h1.08V70h-1.08v-2.868h-2.784V70h-1.08zm9.593.096c-.528 0-.984-.1-1.368-.3a2.178 2.178 0 01-.9-.864c-.208-.384-.312-.836-.312-1.356v-1.752c0-.528.104-.98.312-1.356.216-.376.516-.664.9-.864.384-.2.84-.3 1.368-.3.528 0 .984.1 1.368.3.384.2.68.488.888.864.216.376.324.824.324 1.344v1.764c0 .52-.108.972-.324 1.356a2.103 2.103 0 01-.888.864c-.384.2-.84.3-1.368.3zm0-.96c.472 0 .84-.132 1.104-.396.264-.264.396-.652.396-1.164v-1.752c0-.512-.132-.9-.396-1.164-.264-.264-.632-.396-1.104-.396-.464 0-.832.132-1.104.396-.264.264-.396.652-.396 1.164v1.752c0 .512.132.9.396 1.164.272.264.64.396 1.104.396zm7.122.984c-.52 0-.976-.104-1.368-.312a2.258 2.258 0 01-.9-.876c-.208-.384-.312-.828-.312-1.332v-1.8c0-.512.104-.956.312-1.332.216-.376.516-.668.9-.876.392-.208.848-.312 1.368-.312.52 0 .972.104 1.356.312.392.208.692.5.9.876.216.376.324.82.324 1.332v1.164h-4.104v.636c0 .52.132.92.396 1.2.264.272.64.408 1.128.408.416 0 .752-.072 1.008-.216a.953.953 0 00.468-.672h1.08c-.072.552-.344.992-.816 1.32-.464.32-1.044.48-1.74.48zm1.524-3.876V65.8c0-.52-.132-.92-.396-1.2-.256-.28-.632-.42-1.128-.42-.488 0-.864.14-1.128.42-.264.28-.396.68-.396 1.2v.348h3.132l-.084.096zM181.051 70v-6.6h1.032V67c0 .232-.008.476-.024.732-.008.256-.024.5-.048.732a7.615 7.615 0 01-.06.576l2.664-5.64h1.38V70h-1.032v-3.6c0-.232.004-.476.012-.732.016-.256.036-.5.06-.732l.06-.588L182.431 70h-1.38zm15.251 2.16l.972-2.568-2.448-6.192h1.2l1.536 4.08c.056.136.108.3.156.492l.12.468.12-.468c.048-.192.096-.356.144-.492l1.44-4.08h1.164l-3.252 8.76h-1.152zm5.346-.48v-2.604h.54c.136-.136.276-.404.42-.804.152-.4.232-.908.24-1.524l.072-3.348h4.308v5.676h.84v2.604h-.96V70h-4.5v1.68h-.96zm1.68-2.604h2.82V64.36h-2.208l-.048 2.412c-.008.632-.076 1.144-.204 1.536-.128.392-.248.648-.36.768zm8.682 1.02c-.528 0-.984-.1-1.368-.3a2.178 2.178 0 01-.9-.864c-.208-.384-.312-.836-.312-1.356v-1.752c0-.528.104-.98.312-1.356.216-.376.516-.664.9-.864.384-.2.84-.3 1.368-.3.528 0 .984.1 1.368.3.384.2.68.488.888.864.216.376.324.824.324 1.344v1.764c0 .52-.108.972-.324 1.356a2.103 2.103 0 01-.888.864c-.384.2-.84.3-1.368.3zm0-.96c.472 0 .84-.132 1.104-.396.264-.264.396-.652.396-1.164v-1.752c0-.512-.132-.9-.396-1.164-.264-.264-.632-.396-1.104-.396-.464 0-.832.132-1.104.396-.264.264-.396.652-.396 1.164v1.752c0 .512.132.9.396 1.164.272.264.64.396 1.104.396zm7.122.984c-.776 0-1.392-.228-1.848-.684-.448-.464-.672-1.096-.672-1.896v-3c0-1.056.264-1.868.792-2.436.528-.576 1.284-.864 2.268-.864h1.68v1.08h-1.68c-.648 0-1.14.192-1.476.576-.336.376-.504.924-.504 1.644v.78h.168l-.168.24c.008-.472.168-.84.48-1.104.312-.264.736-.396 1.272-.396.696 0 1.236.224 1.62.672.392.448.588 1.064.588 1.848v.96c0 .536-.1.996-.3 1.38-.2.384-.488.68-.864.888-.376.208-.828.312-1.356.312zm0-.96c.464 0 .82-.14 1.068-.42.248-.28.372-.68.372-1.2v-.96c0-.52-.124-.92-.372-1.2-.248-.28-.604-.42-1.068-.42-.464 0-.82.14-1.068.42-.248.272-.372.672-.372 1.2v.96c0 .52.124.92.372 1.2.248.28.604.42 1.068.42zm4.649.84v-6.6h1.08v2.748h2.784V63.4h1.08V70h-1.08v-2.868h-2.784V70h-1.08zm9.594.096c-.528 0-.984-.1-1.368-.3a2.178 2.178 0 01-.9-.864c-.208-.384-.312-.836-.312-1.356v-1.752c0-.528.104-.98.312-1.356.216-.376.516-.664.9-.864.384-.2.84-.3 1.368-.3.528 0 .984.1 1.368.3.384.2.68.488.888.864.216.376.324.824.324 1.344v1.764c0 .52-.108.972-.324 1.356a2.103 2.103 0 01-.888.864c-.384.2-.84.3-1.368.3zm0-.96c.472 0 .84-.132 1.104-.396.264-.264.396-.652.396-1.164v-1.752c0-.512-.132-.9-.396-1.164-.264-.264-.632-.396-1.104-.396-.464 0-.832.132-1.104.396-.264.264-.396.652-.396 1.164v1.752c0 .512.132.9.396 1.164.272.264.64.396 1.104.396zm7.122.984c-.52 0-.976-.104-1.368-.312a2.258 2.258 0 01-.9-.876c-.208-.384-.312-.828-.312-1.332v-1.8c0-.512.104-.956.312-1.332.216-.376.516-.668.9-.876.392-.208.848-.312 1.368-.312.52 0 .972.104 1.356.312.392.208.692.5.9.876.216.376.324.82.324 1.332v1.164h-4.104v.636c0 .52.132.92.396 1.2.264.272.64.408 1.128.408.416 0 .752-.072 1.008-.216a.953.953 0 00.468-.672h1.08c-.072.552-.344.992-.816 1.32-.464.32-1.044.48-1.74.48zm1.524-3.876V65.8c0-.52-.132-.92-.396-1.2-.256-.28-.632-.42-1.128-.42-.488 0-.864.14-1.128.42-.264.28-.396.68-.396 1.2v.348h3.132l-.084.096zm10.224 5.916V63.4h1.08v1.26h.216l-.216.252c0-.504.164-.9.492-1.188.336-.296.776-.444 1.32-.444.664 0 1.192.22 1.584.66.4.432.6 1.028.6 1.788v1.932c0 .504-.092.94-.276 1.308a1.962 1.962 0 01-.756.852c-.32.2-.704.3-1.152.3-.536 0-.972-.148-1.308-.444-.336-.296-.504-.692-.504-1.188l.216.252h-.24l.024 1.5v1.92h-1.08zm2.532-2.976c.456 0 .812-.136 1.068-.408.264-.272.396-.664.396-1.176v-1.8c0-.512-.132-.904-.396-1.176-.256-.272-.612-.408-1.068-.408-.44 0-.792.14-1.056.42-.264.28-.396.668-.396 1.164v1.8c0 .496.132.884.396 1.164.264.28.616.42 1.056.42zm7.085.936c-.52 0-.976-.104-1.368-.312a2.258 2.258 0 01-.9-.876c-.208-.384-.312-.828-.312-1.332v-1.8c0-.512.104-.956.312-1.332.216-.376.516-.668.9-.876.392-.208.848-.312 1.368-.312.52 0 .972.104 1.356.312.392.208.692.5.9.876.216.376.324.82.324 1.332v1.164h-4.104v.636c0 .52.132.92.396 1.2.264.272.64.408 1.128.408.416 0 .752-.072 1.008-.216a.953.953 0 00.468-.672h1.08c-.072.552-.344.992-.816 1.32-.464.32-1.044.48-1.74.48zm1.524-3.876V65.8c0-.52-.132-.92-.396-1.2-.256-.28-.632-.42-1.128-.42-.488 0-.864.14-1.128.42-.264.28-.396.68-.396 1.2v.348h3.132l-.084.096zm2.79 3.756l-.024-6.6h1.008v5.784h1.404V63.4h.864v5.784h1.392V63.4h.996V70h-5.64zm9.93.12c-.52 0-.976-.104-1.368-.312a2.258 2.258 0 01-.9-.876c-.208-.384-.312-.828-.312-1.332v-1.8c0-.512.104-.956.312-1.332.216-.376.516-.668.9-.876.392-.208.848-.312 1.368-.312.52 0 .972.104 1.356.312.392.208.692.5.9.876.216.376.324.82.324 1.332v1.164h-4.104v.636c0 .52.132.92.396 1.2.264.272.64.408 1.128.408.416 0 .752-.072 1.008-.216a.953.953 0 00.468-.672h1.08c-.072.552-.344.992-.816 1.32-.464.32-1.044.48-1.74.48zm1.524-3.876V65.8c0-.52-.132-.92-.396-1.2-.256-.28-.632-.42-1.128-.42-.488 0-.864.14-1.128.42-.264.28-.396.68-.396 1.2v.348h3.132l-.084.096zM280.756 70v-6.6h1.08v2.748h2.784V63.4h1.08V70h-1.08v-2.868h-2.784V70h-1.08zm7.122 0v-6.6h1.032V67c0 .232-.008.476-.024.732-.008.256-.024.5-.048.732a7.615 7.615 0 01-.06.576l2.664-5.64h1.38V70h-1.032v-3.6c0-.232.004-.476.012-.732.016-.256.036-.5.06-.732l.06-.588L289.258 70h-1.38zm9.593.12c-.52 0-.976-.104-1.368-.312a2.258 2.258 0 01-.9-.876c-.208-.384-.312-.828-.312-1.332v-1.8c0-.512.104-.956.312-1.332.216-.376.516-.668.9-.876.392-.208.848-.312 1.368-.312.52 0 .972.104 1.356.312.392.208.692.5.9.876.216.376.324.82.324 1.332v1.164h-4.104v.636c0 .52.132.92.396 1.2.264.272.64.408 1.128.408.416 0 .752-.072 1.008-.216a.953.953 0 00.468-.672h1.08c-.072.552-.344.992-.816 1.32-.464.32-1.044.48-1.74.48zm1.524-3.876V65.8c0-.52-.132-.92-.396-1.2-.256-.28-.632-.42-1.128-.42-.488 0-.864.14-1.128.42-.264.28-.396.68-.396 1.2v.348h3.132l-.084.096zm9.48 5.436v-2.604h.54c.136-.136.276-.404.42-.804.152-.4.232-.908.24-1.524l.072-3.348h4.308v5.676h.84v2.604h-.96V70h-4.5v1.68h-.96zm1.68-2.604h2.82V64.36h-2.208l-.048 2.412c-.008.632-.076 1.144-.204 1.536-.128.392-.248.648-.36.768zm5.382 1.008v-1.008h.216c.368 0 .624-.144.768-.432.152-.288.232-.804.24-1.548l.072-3.696h4.476V70h-1.08v-5.616h-2.328l-.06 2.76c-.016.696-.096 1.26-.24 1.692-.136.432-.352.748-.648.948-.288.2-.668.3-1.14.3h-.276zm7.541-.084l1.692-2.544c-.504-.12-.896-.352-1.176-.696-.272-.344-.408-.772-.408-1.284 0-.648.212-1.156.636-1.524.432-.368 1.02-.552 1.764-.552h2.844V70h-1.08v-2.46h-1.452l-1.56 2.46h-1.26zm2.508-3.42h1.764v-2.22h-1.764c-.4 0-.716.1-.948.3-.232.192-.348.464-.348.816 0 .344.116.616.348.816.232.192.548.288.948.288zM11.136 99.16l.972-2.568L9.66 90.4h1.2l1.536 4.08c.056.136.108.3.156.492l.12.468.12-.468c.048-.192.096-.356.144-.492l1.44-4.08h1.164l-3.252 8.76h-1.152zm5.286-2.076v-1.008h.216c.368 0 .624-.144.768-.432.152-.288.232-.804.24-1.548l.072-3.696h4.476V97h-1.08v-5.616h-2.328l-.06 2.76c-.016.696-.096 1.26-.24 1.692-.136.432-.352.748-.648.948-.288.2-.668.3-1.14.3h-.276zm8.958 2.076l.972-2.568-2.448-6.192h1.2l1.536 4.08c.056.136.108.3.156.492l.12.468.12-.468c.048-.192.096-.356.144-.492l1.44-4.08h1.164l-3.252 8.76H25.38zM35.285 97v-2.4a5.25 5.25 0 01-.588.096 8.757 8.757 0 01-.816.036c-.816.008-1.452-.188-1.908-.588-.448-.408-.672-.976-.672-1.704V90.4h1.08v2.04c0 .408.136.732.408.972.28.232.664.348 1.152.348.336 0 .62-.012.852-.036.24-.032.404-.06.492-.084V90.4h1.08V97h-1.08zm2.994 0l-.024-6.6h1.008v5.784h1.404V90.4h.864v5.784h1.392V90.4h.996V97h-5.64zm9.93.12c-.52 0-.976-.104-1.368-.312a2.258 2.258 0 01-.9-.876c-.208-.384-.312-.828-.312-1.332v-1.8c0-.512.104-.956.312-1.332.216-.376.516-.668.9-.876.392-.208.848-.312 1.368-.312.52 0 .972.104 1.356.312.392.208.692.5.9.876.216.376.324.82.324 1.332v1.164h-4.104v.636c0 .52.132.92.396 1.2.264.272.64.408 1.128.408.416 0 .752-.072 1.008-.216a.953.953 0 00.468-.672h1.08c-.072.552-.344.992-.816 1.32-.464.32-1.044.48-1.74.48zm1.524-3.876V92.8c0-.52-.132-.92-.396-1.2-.256-.28-.632-.42-1.128-.42-.488 0-.864.14-1.128.42-.264.28-.396.68-.396 1.2v.348h3.132l-.084.096zM52.859 97v-6.6h1.08v2.748h2.784V90.4h1.08V97h-1.08v-2.868h-2.784V97h-1.08zm7.121 0v-6.6h1.033V94c0 .232-.008.476-.024.732-.008.256-.024.5-.048.732a7.615 7.615 0 01-.06.576l2.663-5.64h1.38V97h-1.032v-3.6c0-.232.005-.476.012-.732.016-.256.036-.5.06-.732l.06-.588L61.362 97h-1.38zm6.714 0l1.692-2.544c-.504-.12-.896-.352-1.176-.696-.272-.344-.408-.772-.408-1.284 0-.648.212-1.156.636-1.524.432-.368 1.02-.552 1.764-.552h2.844V97h-1.08v-2.46h-1.452L67.954 97h-1.26zm2.508-3.42h1.764v-2.22h-1.764c-.4 0-.716.1-.948.3-.232.192-.348.464-.348.816 0 .344.116.616.348.816.232.192.548.288.948.288zM81.346 97v-6.6h2.856c.688 0 1.22.156 1.596.468.376.304.564.732.564 1.284 0 .456-.156.824-.468 1.104-.312.272-.724.408-1.236.408v-.096c.56 0 1.008.14 1.344.42.344.28.516.656.516 1.128 0 .592-.2 1.056-.6 1.392-.4.328-.96.492-1.68.492h-2.892zm1.056-.948h1.836c.384 0 .68-.084.888-.252.216-.168.324-.404.324-.708 0-.312-.108-.552-.324-.72-.208-.168-.504-.252-.888-.252h-1.836v1.932zm0-2.868h1.8c.336 0 .6-.08.792-.24.2-.16.3-.384.3-.672 0-.288-.096-.512-.288-.672-.192-.168-.46-.252-.804-.252h-1.8v1.836zm8.226 3.9c-.696 0-1.268-.148-1.716-.444a1.764 1.764 0 01-.792-1.2h1.14c.056.2.204.364.444.492.248.128.556.192.924.192h.564c.392 0 .696-.092.912-.276a.887.887 0 00.336-.72c0-.32-.108-.572-.324-.756-.208-.184-.516-.276-.924-.276H89.74v-.936h1.416c.368 0 .648-.088.84-.264a.9.9 0 00.288-.696c0-.2-.044-.368-.132-.504a.763.763 0 00-.372-.312 1.551 1.551 0 00-.612-.108h-.6c-.32 0-.596.072-.828.216-.232.144-.372.32-.42.528h-1.14c.08-.496.34-.904.78-1.224.44-.32.976-.48 1.608-.48h.6c.472 0 .876.076 1.212.228.336.144.592.352.768.624.184.272.276.596.276.972 0 .392-.128.716-.384.972-.256.248-.616.388-1.08.42v.048c.568.04.98.192 1.236.456s.384.644.384 1.14c0 .584-.216 1.048-.648 1.392-.432.344-1.012.516-1.74.516h-.564zm6.857.036c-.696 0-1.244-.176-1.644-.528-.4-.36-.6-.844-.6-1.452 0-.616.2-1.1.6-1.452.4-.352.94-.528 1.62-.528h2.04v-.66c0-.408-.124-.72-.372-.936-.24-.224-.584-.336-1.032-.336-.392 0-.72.084-.984.252-.264.16-.416.38-.456.66h-1.08c.072-.568.34-1.02.804-1.356.464-.336 1.044-.504 1.74-.504.76 0 1.36.196 1.8.588.44.392.66.924.66 1.596V97h-1.056v-1.26h-.18l.18-.18c0 .48-.188.86-.564 1.14-.368.28-.86.42-1.476.42zm.264-.852c.512 0 .932-.128 1.26-.384.328-.256.492-.584.492-.984v-.936h-2.016c-.36 0-.644.1-.852.3-.208.2-.312.472-.312.816 0 .368.124.66.372.876.256.208.608.312 1.056.312zm4.962.732v-6.6h1.032V94c0 .232-.008.476-.024.732-.008.256-.024.5-.048.732a7.615 7.615 0 01-.06.576l2.664-5.64h1.38V97h-1.032v-3.6c0-.232.004-.476.012-.732.016-.256.036-.5.06-.732l.06-.588L104.091 97h-1.38zm6.906 0v-6.6h1.464l.864 2.532c.088.256.168.512.24.768.072.248.124.44.156.576.032-.136.08-.328.144-.576.072-.256.148-.516.228-.78l.816-2.52h1.464V97h-1.044v-1.02c0-.36.004-.752.012-1.176l.024-1.284.048-1.224c.016-.392.028-.736.036-1.032l-1.176 3.756h-1.14l-1.188-3.732c.016.36.028.808.036 1.344.016.536.028 1.096.036 1.68.016.584.024 1.14.024 1.668V97h-1.044zm9.81.096c-.528 0-.984-.1-1.368-.3a2.178 2.178 0 01-.9-.864c-.208-.384-.312-.836-.312-1.356v-1.752c0-.528.104-.98.312-1.356.216-.376.516-.664.9-.864.384-.2.84-.3 1.368-.3.528 0 .984.1 1.368.3.384.2.68.488.888.864.216.376.324.824.324 1.344v1.764c0 .52-.108.972-.324 1.356a2.103 2.103 0 01-.888.864c-.384.2-.84.3-1.368.3zm0-.96c.472 0 .84-.132 1.104-.396.264-.264.396-.652.396-1.164v-1.752c0-.512-.132-.9-.396-1.164-.264-.264-.632-.396-1.104-.396-.464 0-.832.132-1.104.396-.264.264-.396.652-.396 1.164v1.752c0 .512.132.9.396 1.164.272.264.64.396 1.104.396zm3.882 2.544v-2.604h.54c.136-.136.276-.404.42-.804.152-.4.232-.908.24-1.524l.072-3.348h4.308v5.676h.84v2.604h-.96V97h-4.5v1.68h-.96zm1.68-2.604h2.82V91.36h-2.208l-.048 2.412c-.008.632-.076 1.144-.204 1.536-.128.392-.248.648-.36.768zm8.681 1.044c-.52 0-.976-.104-1.368-.312a2.258 2.258 0 01-.9-.876c-.208-.384-.312-.828-.312-1.332v-1.8c0-.512.104-.956.312-1.332.216-.376.516-.668.9-.876.392-.208.848-.312 1.368-.312.52 0 .972.104 1.356.312.392.208.692.5.9.876.216.376.324.82.324 1.332v1.164h-4.104v.636c0 .52.132.92.396 1.2.264.272.64.408 1.128.408.416 0 .752-.072 1.008-.216a.953.953 0 00.468-.672h1.08c-.072.552-.344.992-.816 1.32-.464.32-1.044.48-1.74.48zm1.524-3.876V92.8c0-.52-.132-.92-.396-1.2-.256-.28-.632-.42-1.128-.42-.488 0-.864.14-1.128.42-.264.28-.396.68-.396 1.2v.348h3.132l-.084.096zM138.32 97v-6.6h1.032V94c0 .232-.008.476-.024.732-.008.256-.024.5-.048.732a7.615 7.615 0 01-.06.576l2.664-5.64h1.38V97h-1.032v-3.6c0-.232.004-.476.012-.732.016-.256.036-.5.06-.732l.06-.588L139.7 97h-1.38zm2.52-7.68c-.576 0-1.04-.16-1.392-.48-.352-.32-.528-.74-.528-1.26h.852c0 .312.096.564.288.756.192.192.448.288.768.288.328 0 .588-.096.78-.288.2-.192.3-.444.3-.756h.852c0 .52-.176.94-.528 1.26-.352.32-.816.48-1.392.48zm7.098 7.8c-.528 0-.992-.1-1.392-.3a2.161 2.161 0 01-.912-.864c-.216-.384-.324-.836-.324-1.356v-1.8c0-.528.108-.98.324-1.356.216-.376.52-.664.912-.864.4-.2.864-.3 1.392-.3.76 0 1.372.204 1.836.612.464.408.708.964.732 1.668h-1.08c-.024-.424-.168-.748-.432-.972-.256-.232-.608-.348-1.056-.348-.472 0-.848.136-1.128.408-.28.264-.42.644-.42 1.14V94.6c0 .496.14.88.42 1.152.28.272.656.408 1.128.408.448 0 .8-.116 1.056-.348.264-.232.408-.556.432-.972h1.08c-.024.704-.268 1.26-.732 1.668-.464.408-1.076.612-1.836.612zm6.558-.12v-5.652h-2.4V90.4h5.88v.948h-2.4V97h-1.08zm5.189 0v-6.6h2.856c.688 0 1.22.156 1.596.468.376.304.564.732.564 1.284 0 .456-.156.824-.468 1.104-.312.272-.724.408-1.236.408v-.096c.56 0 1.008.14 1.344.42.344.28.516.656.516 1.128 0 .592-.2 1.056-.6 1.392-.4.328-.96.492-1.68.492h-2.892zm1.056-.948h1.836c.384 0 .68-.084.888-.252.216-.168.324-.404.324-.708 0-.312-.108-.552-.324-.72-.208-.168-.504-.252-.888-.252h-1.836v1.932zm0-2.868h1.8c.336 0 .6-.08.792-.24.2-.16.3-.384.3-.672 0-.288-.096-.512-.288-.672-.192-.168-.46-.252-.804-.252h-1.8v1.836zM166.807 97v-6.6h1.032V94c0 .232-.008.476-.024.732-.008.256-.024.5-.048.732a7.615 7.615 0 01-.06.576l2.664-5.64h1.38V97h-1.032v-3.6c0-.232.004-.476.012-.732.016-.256.036-.5.06-.732l.06-.588L168.187 97h-1.38zm6.714 0l1.692-2.544c-.504-.12-.896-.352-1.176-.696-.272-.344-.408-.772-.408-1.284 0-.648.212-1.156.636-1.524.432-.368 1.02-.552 1.764-.552h2.844V97h-1.08v-2.46h-1.452l-1.56 2.46h-1.26zm2.508-3.42h1.764v-2.22h-1.764c-.4 0-.716.1-.948.3-.232.192-.348.464-.348.816 0 .344.116.616.348.816.232.192.548.288.948.288zm14.64 3.54c-.528 0-.992-.1-1.392-.3a2.161 2.161 0 01-.912-.864c-.216-.384-.324-.836-.324-1.356v-1.8c0-.528.108-.98.324-1.356.216-.376.52-.664.912-.864.4-.2.864-.3 1.392-.3.76 0 1.372.204 1.836.612.464.408.708.964.732 1.668h-1.08c-.024-.424-.168-.748-.432-.972-.256-.232-.608-.348-1.056-.348-.472 0-.848.136-1.128.408-.28.264-.42.644-.42 1.14V94.6c0 .496.14.88.42 1.152.28.272.656.408 1.128.408.448 0 .8-.116 1.056-.348.264-.232.408-.556.432-.972h1.08c-.024.704-.268 1.26-.732 1.668-.464.408-1.076.612-1.836.612zm11.783-.12v-6.6h1.08v2.724h1.128l1.92-2.724h1.236l-2.22 3.144L207.852 97h-1.26l-1.92-2.94h-1.14V97h-1.08zm6.258.084v-1.008h.216c.368 0 .624-.144.768-.432.152-.288.232-.804.24-1.548l.072-3.696h4.476V97h-1.08v-5.616h-2.328l-.06 2.76c-.016.696-.096 1.26-.24 1.692-.136.432-.352.748-.648.948-.288.2-.668.3-1.14.3h-.276zm7.95-.084v-6.6h1.032V94c0 .232-.008.476-.024.732-.008.256-.024.5-.048.732a7.615 7.615 0 01-.06.576l2.664-5.64h1.38V97h-1.032v-3.6c0-.232.004-.476.012-.732.016-.256.036-.5.06-.732l.06-.588L218.04 97h-1.38zm9.593.12c-.52 0-.976-.104-1.368-.312a2.258 2.258 0 01-.9-.876c-.208-.384-.312-.828-.312-1.332v-1.8c0-.512.104-.956.312-1.332.216-.376.516-.668.9-.876.392-.208.848-.312 1.368-.312.52 0 .972.104 1.356.312.392.208.692.5.9.876.216.376.324.82.324 1.332v1.164h-4.104v.636c0 .52.132.92.396 1.2.264.272.64.408 1.128.408.416 0 .752-.072 1.008-.216a.953.953 0 00.468-.672h1.08c-.072.552-.344.992-.816 1.32-.464.32-1.044.48-1.74.48zm1.524-3.876V92.8c0-.52-.132-.92-.396-1.2-.256-.28-.632-.42-1.128-.42-.488 0-.864.14-1.128.42-.264.28-.396.68-.396 1.2v.348h3.132l-.084.096zM230.903 97v-6.6h1.08v2.748h2.784V90.4h1.08V97h-1.08v-2.868h-2.784V97h-1.08zm9.054 0v-5.652h-2.4V90.4h5.88v.948h-2.4V97h-1.08zm7.086.12c-.696 0-1.244-.176-1.644-.528-.4-.36-.6-.844-.6-1.452 0-.616.2-1.1.6-1.452.4-.352.94-.528 1.62-.528h2.04v-.66c0-.408-.124-.72-.372-.936-.24-.224-.584-.336-1.032-.336-.392 0-.72.084-.984.252-.264.16-.416.38-.456.66h-1.08c.072-.568.34-1.02.804-1.356.464-.336 1.044-.504 1.74-.504.76 0 1.36.196 1.8.588.44.392.66.924.66 1.596V97h-1.056v-1.26h-.18l.18-.18c0 .48-.188.86-.564 1.14-.368.28-.86.42-1.476.42zm.264-.852c.512 0 .932-.128 1.26-.384.328-.256.492-.584.492-.984v-.936h-2.016c-.36 0-.644.1-.852.3-.208.2-.312.472-.312.816 0 .368.124.66.372.876.256.208.608.312 1.056.312zm4.746.732v-6.6h1.464l.864 2.532c.088.256.168.512.24.768.072.248.124.44.156.576.032-.136.08-.328.144-.576.072-.256.148-.516.228-.78l.816-2.52h1.464V97h-1.044v-1.02c0-.36.004-.752.012-1.176l.024-1.284.048-1.224c.016-.392.028-.736.036-1.032l-1.176 3.756h-1.14l-1.188-3.732c.016.36.028.808.036 1.344.016.536.028 1.096.036 1.68.016.584.024 1.14.024 1.668V97h-1.044zm7.337 0v-6.6h1.032V94c0 .232-.008.476-.024.732-.008.256-.024.5-.048.732a7.615 7.615 0 01-.06.576l2.664-5.64h1.38V97h-1.032v-3.6c0-.232.004-.476.012-.732.016-.256.036-.5.06-.732l.06-.588L260.77 97h-1.38zm14.244 0v-6.6h1.032V94c0 .232-.008.476-.024.732-.008.256-.024.5-.048.732a7.615 7.615 0 01-.06.576l2.664-5.64h1.38V97h-1.032v-3.6c0-.232.004-.476.012-.732.016-.256.036-.5.06-.732l.06-.588L275.014 97h-1.38zM12.6 123.096c-.528 0-.984-.1-1.368-.3a2.178 2.178 0 01-.9-.864c-.208-.384-.312-.836-.312-1.356v-1.752c0-.528.104-.98.312-1.356.216-.376.516-.664.9-.864.384-.2.84-.3 1.368-.3.528 0 .984.1 1.368.3.384.2.68.488.888.864.216.376.324.824.324 1.344v1.764c0 .52-.108.972-.324 1.356a2.103 2.103 0 01-.888.864c-.384.2-.84.3-1.368.3zm0-.96c.472 0 .84-.132 1.104-.396.264-.264.396-.652.396-1.164v-1.752c0-.512-.132-.9-.396-1.164-.264-.264-.632-.396-1.104-.396-.464 0-.832.132-1.104.396-.264.264-.396.652-.396 1.164v1.752c0 .512.132.9.396 1.164.272.264.64.396 1.104.396zm4.65.864v-6.6h4.944v6.6h-1.08v-5.616H18.33V123h-1.08zm9.054 0v-5.652h-2.4v-.948h5.88v.948h-2.4V123h-1.08zm5.19 0v-6.6h1.031v3.6c0 .232-.008.476-.024.732-.008.256-.024.5-.048.732a7.615 7.615 0 01-.06.576l2.664-5.64h1.38v6.6h-1.032v-3.6c0-.232.004-.476.012-.732.016-.256.036-.5.06-.732l.06-.588L32.873 123h-1.38zm6.905 0v-6.6h1.464l.864 2.532c.088.256.168.512.24.768.072.248.124.44.156.576.032-.136.08-.328.144-.576.072-.256.148-.516.228-.78l.816-2.52h1.464v6.6h-1.044v-1.02c0-.36.004-.752.012-1.176l.024-1.284.048-1.224c.016-.392.028-.736.036-1.032l-1.176 3.756h-1.14l-1.188-3.732c.016.36.028.808.036 1.344.016.536.028 1.096.036 1.68.016.584.024 1.14.024 1.668V123H38.4zm7.338 0v-6.6h1.032v3.6c0 .232-.008.476-.024.732-.008.256-.024.5-.048.732a7.615 7.615 0 01-.06.576l2.664-5.64h1.38v6.6h-1.032v-3.6c0-.232.004-.476.012-.732.016-.256.036-.5.06-.732l.06-.588L47.117 123h-1.38zm9.282.084c-.696 0-1.268-.148-1.716-.444a1.764 1.764 0 01-.792-1.2h1.14c.056.2.204.364.444.492.248.128.556.192.924.192h.564c.392 0 .696-.092.912-.276a.887.887 0 00.336-.72c0-.32-.108-.572-.324-.756-.208-.184-.516-.276-.924-.276H54.13v-.936h1.416c.368 0 .648-.088.84-.264a.9.9 0 00.288-.696c0-.2-.044-.368-.132-.504a.763.763 0 00-.372-.312 1.551 1.551 0 00-.612-.108h-.6c-.32 0-.596.072-.828.216-.232.144-.372.32-.42.528h-1.14c.08-.496.34-.904.78-1.224.44-.32.976-.48 1.608-.48h.6c.472 0 .876.076 1.212.228.336.144.592.352.768.624.184.272.276.596.276.972 0 .392-.128.716-.384.972-.256.248-.616.388-1.08.42v.048c.568.04.98.192 1.236.456s.384.644.384 1.14c0 .584-.216 1.048-.648 1.392-.432.344-1.012.516-1.74.516h-.564zm6.858.036c-.697 0-1.245-.176-1.645-.528-.4-.36-.6-.844-.6-1.452 0-.616.2-1.1.6-1.452.4-.352.94-.528 1.62-.528h2.04v-.66c0-.408-.123-.72-.372-.936-.24-.224-.584-.336-1.032-.336-.392 0-.72.084-.983.252-.265.16-.416.38-.457.66h-1.08c.072-.568.34-1.02.804-1.356.465-.336 1.044-.504 1.74-.504.76 0 1.36.196 1.8.588.44.392.66.924.66 1.596V123h-1.055v-1.26h-.18l.18-.18c0 .48-.189.86-.565 1.14-.367.28-.86.42-1.475.42zm.264-.852c.512 0 .931-.128 1.26-.384.327-.256.491-.584.491-.984v-.936h-2.016c-.36 0-.643.1-.851.3-.209.2-.313.472-.313.816 0 .368.124.66.372.876.256.208.608.312 1.056.312zm9.653 2.412V123h-4.692v-6.6h1.08v5.64h2.592v-5.64h1.08v5.64h.9v2.64h-.96zm2.43-1.68v-6.6h1.032v3.6c0 .232-.008.476-.024.732-.008.256-.024.5-.048.732a7.615 7.615 0 01-.06.576l2.664-5.64h1.38v6.6h-1.032v-3.6c0-.232.004-.476.012-.732.016-.256.036-.5.06-.732l.06-.588L75.604 123h-1.38zm7.122 0v-6.6h1.032v3.6c0 .232-.008.476-.024.732-.008.256-.024.5-.048.732a7.615 7.615 0 01-.06.576l2.664-5.64h1.38v6.6h-1.032v-3.6c0-.232.004-.476.012-.732.016-.256.036-.5.06-.732l.06-.588L82.726 123h-1.38zm14.243 0v-6.6h2.856c.688 0 1.22.156 1.596.468.376.304.564.732.564 1.284 0 .456-.156.824-.468 1.104-.312.272-.724.408-1.236.408v-.096c.56 0 1.008.14 1.344.42.344.28.516.656.516 1.128 0 .592-.2 1.056-.6 1.392-.4.328-.96.492-1.68.492H95.59zm1.056-.948h1.836c.384 0 .68-.084.888-.252.216-.168.324-.404.324-.708 0-.312-.108-.552-.324-.72-.208-.168-.504-.252-.888-.252h-1.836v1.932zm0-2.868h1.8c.336 0 .6-.08.792-.24.2-.16.3-.384.3-.672 0-.288-.096-.512-.288-.672-.192-.168-.46-.252-.804-.252h-1.8v1.836zm6.066 3.816v-6.6h1.08v2.748h2.784V116.4h1.08v6.6h-1.08v-2.868h-2.784V123h-1.08zm8.13 2.16l.972-2.568-2.448-6.192h1.2l1.536 4.08c.056.136.108.3.156.492l.12.468.12-.468c.048-.192.096-.356.144-.492l1.44-4.08h1.164l-3.252 8.76h-1.152zm8.046-2.16v-5.652h-2.4v-.948h5.88v.948h-2.4V123h-1.08zm5.166 2.16v-8.76h1.08v1.26h.216l-.216.252c0-.504.164-.9.492-1.188.336-.296.776-.444 1.32-.444.664 0 1.192.22 1.584.66.4.432.6 1.028.6 1.788v1.932c0 .504-.092.94-.276 1.308a1.962 1.962 0 01-.756.852c-.32.2-.704.3-1.152.3-.536 0-.972-.148-1.308-.444-.336-.296-.504-.692-.504-1.188l.216.252h-.24l.024 1.5v1.92h-1.08zm2.532-2.976c.456 0 .812-.136 1.068-.408.264-.272.396-.664.396-1.176v-1.8c0-.512-.132-.904-.396-1.176-.256-.272-.612-.408-1.068-.408-.44 0-.792.14-1.056.42-.264.28-.396.668-.396 1.164v1.8c0 .496.132.884.396 1.164.264.28.616.42 1.056.42zm7.085.936c-.52 0-.976-.104-1.368-.312a2.258 2.258 0 01-.9-.876c-.208-.384-.312-.828-.312-1.332v-1.8c0-.512.104-.956.312-1.332.216-.376.516-.668.9-.876.392-.208.848-.312 1.368-.312.52 0 .972.104 1.356.312.392.208.692.5.9.876.216.376.324.82.324 1.332v1.164h-4.104v.636c0 .52.132.92.396 1.2.264.272.64.408 1.128.408.416 0 .752-.072 1.008-.216a.953.953 0 00.468-.672h1.08c-.072.552-.344.992-.816 1.32-.464.32-1.044.48-1.74.48zm1.524-3.876v-.444c0-.52-.132-.92-.396-1.2-.256-.28-.632-.42-1.128-.42-.488 0-.864.14-1.128.42-.264.28-.396.68-.396 1.2v.348h3.132l-.084.096zM138.32 123v-6.6h1.08v2.748h2.784V116.4h1.08v6.6h-1.08v-2.868H139.4V123h-1.08zm7.122 0v-6.6h1.08v2.748h2.784V116.4h1.08v6.6h-1.08v-2.868h-2.784V123h-1.08zm7.122 0v-6.6h1.032v3.6c0 .232-.008.476-.024.732-.008.256-.024.5-.048.732a7.615 7.615 0 01-.06.576l2.664-5.64h1.38v6.6h-1.032v-3.6c0-.232.004-.476.012-.732.016-.256.036-.5.06-.732l.06-.588-2.664 5.652h-1.38zm6.593 0l2.34-3.396-2.196-3.204h1.272l1.308 2.04c.056.088.108.184.156.288.056.104.1.188.132.252.024-.064.06-.148.108-.252.056-.104.112-.2.168-.288l1.32-2.04h1.26l-2.196 3.216 2.328 3.384h-1.272l-1.416-2.16a3.356 3.356 0 01-.168-.3 2.599 2.599 0 00-.132-.288c-.032.072-.08.168-.144.288a2.125 2.125 0 01-.18.3l-1.428 2.16h-1.26zm14.772 0v-6.6h4.944v6.6h-1.08v-5.616h-2.784V123h-1.08zm7.098 2.16v-8.76h1.08v1.26h.216l-.216.252c0-.504.164-.9.492-1.188.336-.296.776-.444 1.32-.444.664 0 1.192.22 1.584.66.4.432.6 1.028.6 1.788v1.932c0 .504-.092.94-.276 1.308a1.962 1.962 0 01-.756.852c-.32.2-.704.3-1.152.3-.536 0-.972-.148-1.308-.444-.336-.296-.504-.692-.504-1.188l.216.252h-.24l.024 1.5v1.92h-1.08zm2.532-2.976c.456 0 .812-.136 1.068-.408.264-.272.396-.664.396-1.176v-1.8c0-.512-.132-.904-.396-1.176-.256-.272-.612-.408-1.068-.408-.44 0-.792.14-1.056.42-.264.28-.396.668-.396 1.164v1.8c0 .496.132.884.396 1.164.264.28.616.42 1.056.42zm7.086.912c-.528 0-.984-.1-1.368-.3a2.178 2.178 0 01-.9-.864c-.208-.384-.312-.836-.312-1.356v-1.752c0-.528.104-.98.312-1.356.216-.376.516-.664.9-.864.384-.2.84-.3 1.368-.3.528 0 .984.1 1.368.3.384.2.68.488.888.864.216.376.324.824.324 1.344v1.764c0 .52-.108.972-.324 1.356a2.103 2.103 0 01-.888.864c-.384.2-.84.3-1.368.3zm0-.96c.472 0 .84-.132 1.104-.396.264-.264.396-.652.396-1.164v-1.752c0-.512-.132-.9-.396-1.164-.264-.264-.632-.396-1.104-.396-.464 0-.832.132-1.104.396-.264.264-.396.652-.396 1.164v1.752c0 .512.132.9.396 1.164.272.264.64.396 1.104.396zm9.341 2.544V123h-4.692v-6.6h1.08v5.64h2.592v-5.64h1.08v5.64h.9v2.64h-.96zm4.902-1.56c-.52 0-.976-.104-1.368-.312a2.258 2.258 0 01-.9-.876c-.208-.384-.312-.828-.312-1.332v-1.8c0-.512.104-.956.312-1.332.216-.376.516-.668.9-.876.392-.208.848-.312 1.368-.312.52 0 .972.104 1.356.312.392.208.692.5.9.876.216.376.324.82.324 1.332v1.164h-4.104v.636c0 .52.132.92.396 1.2.264.272.64.408 1.128.408.416 0 .752-.072 1.008-.216a.953.953 0 00.468-.672h1.08c-.072.552-.344.992-.816 1.32-.464.32-1.044.48-1.74.48zm1.524-3.876v-.444c0-.52-.132-.92-.396-1.2-.256-.28-.632-.42-1.128-.42-.488 0-.864.14-1.128.42-.264.28-.396.68-.396 1.2v.348h3.132l-.084.096zm5.622 3.876c-.528 0-.992-.1-1.392-.3a2.161 2.161 0 01-.912-.864c-.216-.384-.324-.836-.324-1.356v-1.8c0-.528.108-.98.324-1.356.216-.376.52-.664.912-.864.4-.2.864-.3 1.392-.3.76 0 1.372.204 1.836.612.464.408.708.964.732 1.668h-1.08c-.024-.424-.168-.748-.432-.972-.256-.232-.608-.348-1.056-.348-.472 0-.848.136-1.128.408-.28.264-.42.644-.42 1.14v1.812c0 .496.14.88.42 1.152.28.272.656.408 1.128.408.448 0 .8-.116 1.056-.348.264-.232.408-.556.432-.972h1.08c-.024.704-.268 1.26-.732 1.668-.464.408-1.076.612-1.836.612zm7.122 0c-.528 0-.992-.1-1.392-.3a2.161 2.161 0 01-.912-.864c-.216-.384-.324-.836-.324-1.356v-1.8c0-.528.108-.98.324-1.356.216-.376.52-.664.912-.864.4-.2.864-.3 1.392-.3.76 0 1.372.204 1.836.612.464.408.708.964.732 1.668h-1.08c-.024-.424-.168-.748-.432-.972-.256-.232-.608-.348-1.056-.348-.472 0-.848.136-1.128.408-.28.264-.42.644-.42 1.14v1.812c0 .496.14.88.42 1.152.28.272.656.408 1.128.408.448 0 .8-.116 1.056-.348.264-.232.408-.556.432-.972h1.08c-.024.704-.268 1.26-.732 1.668-.464.408-1.076.612-1.836.612zm7.097-.024c-.528 0-.984-.1-1.368-.3a2.178 2.178 0 01-.9-.864c-.208-.384-.312-.836-.312-1.356v-1.752c0-.528.104-.98.312-1.356.216-.376.516-.664.9-.864.384-.2.84-.3 1.368-.3.528 0 .984.1 1.368.3.384.2.68.488.888.864.216.376.324.824.324 1.344v1.764c0 .52-.108.972-.324 1.356a2.103 2.103 0 01-.888.864c-.384.2-.84.3-1.368.3zm0-.96c.472 0 .84-.132 1.104-.396.264-.264.396-.652.396-1.164v-1.752c0-.512-.132-.9-.396-1.164-.264-.264-.632-.396-1.104-.396-.464 0-.832.132-1.104.396-.264.264-.396.652-.396 1.164v1.752c0 .512.132.9.396 1.164.272.264.64.396 1.104.396zm4.65.864v-6.6h2.856c.688 0 1.22.156 1.596.468.376.304.564.732.564 1.284 0 .456-.156.824-.468 1.104-.312.272-.724.408-1.236.408v-.096c.56 0 1.008.14 1.344.42.344.28.516.656.516 1.128 0 .592-.2 1.056-.6 1.392-.4.328-.96.492-1.68.492h-2.892zm1.056-.948h1.836c.384 0 .68-.084.888-.252.216-.168.324-.404.324-.708 0-.312-.108-.552-.324-.72-.208-.168-.504-.252-.888-.252h-1.836v1.932zm0-2.868h1.8c.336 0 .6-.08.792-.24.2-.16.3-.384.3-.672 0-.288-.096-.512-.288-.672-.192-.168-.46-.252-.804-.252h-1.8v1.836zm8.538 3.936c-.304 0-.548-.088-.732-.264-.176-.176-.264-.412-.264-.708 0-.312.088-.56.264-.744.184-.184.428-.276.732-.276s.544.092.72.276c.184.184.276.432.276.744 0 .296-.092.532-.276.708-.176.176-.416.264-.72.264z" fill="#fff"/><rect x=".5" y=".5" width="355" height="135" rx="10.5" stroke="#fff"/></svg>