<svg width="154" height="214" fill="none" xmlns="http://www.w3.org/2000/svg"><rect x=".421" y=".421" width="152.36" height="212.79" rx="19.579" fill="url(#paint0_linear_2021_55)" fill-opacity=".53" stroke="url(#paint1_linear_2021_55)" stroke-width=".842"/><mask id="a" style="mask-type:alpha" maskUnits="userSpaceOnUse" x="0" y="0" width="154" height="214"><rect x=".421" y=".421" width="152.36" height="212.79" rx="19.579" fill="url(#paint2_linear_2021_55)" fill-opacity=".53" stroke="url(#paint3_linear_2021_55)" stroke-width=".842"/></mask><g filter="url(#filter0_f_2021_55)" mask="url(#a)"><path d="M10 236.955c-5.136 0-9.511-1.398-13.125-4.194-3.614-2.818-6.375-6.897-8.284-12.238-1.91-5.364-2.864-11.841-2.864-19.432 0-7.546.955-13.989 2.864-19.33 1.932-5.363 4.704-9.454 8.318-12.272 3.636-2.841 8-4.262 13.091-4.262 5.09 0 9.443 1.421 13.057 4.262 3.636 2.818 6.409 6.909 8.318 12.272 1.932 5.341 2.898 11.784 2.898 19.33 0 7.591-.955 14.068-2.864 19.432-1.909 5.341-4.67 9.42-8.284 12.238-3.614 2.796-7.989 4.194-13.125 4.194zm0-7.5c5.09 0 9.046-2.455 11.864-7.364 2.818-4.909 4.227-11.909 4.227-21 0-6.046-.648-11.193-1.943-15.443-1.273-4.25-3.114-7.489-5.523-9.716-2.386-2.227-5.261-3.341-8.625-3.341-5.045 0-8.989 2.489-11.83 7.466-2.84 4.954-4.26 11.966-4.26 21.034 0 6.045.635 11.182 1.908 15.409s3.102 7.443 5.489 9.648c2.409 2.204 5.307 3.307 8.693 3.307zm61.773-63.273V236h-8.455v-60.955h-.409l-17.045 11.319v-8.591l17.454-11.591h8.455z" fill="#CCEC60"/></g><mask id="b" style="mask-type:alpha" maskUnits="userSpaceOnUse" x="0" y="0" width="153" height="176"><rect x=".494" y=".494" width="152.011" height="175.011" rx="19.506" fill="url(#paint4_linear_2021_55)" fill-opacity=".53" stroke="url(#paint5_linear_2021_55)" stroke-width=".989"/></mask><g mask="url(#b)"><path fill="#C9D9CD" d="M0 0h153.038v52H0z"/></g><path d="M10.92 70v-7.3h.9v3.13h1.08l1.62-3.13h.98l-1.81 3.51L15.6 70h-1.03l-1.7-3.38h-1.05V70h-.9zm7.596.1c-.58 0-1.037-.147-1.37-.44-.333-.3-.5-.703-.5-1.21 0-.513.167-.917.5-1.21.333-.293.783-.44 1.35-.44h1.7v-.55c0-.34-.103-.6-.31-.78-.2-.187-.487-.28-.86-.28-.327 0-.6.07-.82.21a.747.747 0 00-.38.55h-.9c.06-.473.283-.85.67-1.13.387-.28.87-.42 1.45-.42.633 0 1.133.163 1.5.49.367.327.55.77.55 1.33V70h-.88v-1.05h-.15l.15-.15c0 .4-.157.717-.47.95-.307.233-.717.35-1.23.35zm.22-.71c.427 0 .777-.107 1.05-.32a.996.996 0 00.41-.82v-.78h-1.68c-.3 0-.537.083-.71.25-.173.167-.26.393-.26.68 0 .307.103.55.31.73.213.173.507.26.88.26zm3.436.61l1.2-2.82-1.12-2.68h.87l.96 2.4h.53v-2.4h.76v2.4h.51l.99-2.4h.86l-1.12 2.65 1.2 2.85h-.9l-1-2.5h-.54V70h-.76v-2.5h-.54l-1.01 2.5h-.89zm6.116 1.4v-2.17h.45c.114-.113.23-.337.35-.67.127-.333.194-.757.2-1.27l.06-2.79h3.59v4.73h.7v2.17h-.8V70h-3.75v1.4h-.8zm1.4-2.17h2.35V65.3h-1.84l-.04 2.01c-.006.527-.063.953-.17 1.28-.106.327-.206.54-.3.64zm4.946.77v-5.5h.84v2.02h.45c.594 0 1.06.157 1.4.47.347.307.52.73.52 1.27s-.173.967-.52 1.28c-.34.307-.806.46-1.4.46h-1.29zm.84-.72h.45c.354 0 .627-.09.82-.27.2-.18.3-.43.3-.75s-.1-.57-.3-.75c-.193-.18-.466-.27-.82-.27h-.45v2.04zm3.02.72v-5.5h.84V70h-.84zm2.426 0v-5.5h.86v3c0 .193-.006.397-.02.61-.006.213-.02.417-.04.61-.013.187-.03.347-.05.48l2.22-4.7h1.15V70h-.86v-3c0-.193.004-.397.01-.61.014-.213.03-.417.05-.61l.05-.49L42.07 70h-1.15zm2.1-6.4c-.48 0-.866-.133-1.16-.4-.293-.267-.44-.617-.44-1.05h.71c0 .26.08.47.24.63.16.16.374.24.64.24.274 0 .49-.08.65-.24.167-.16.25-.37.25-.63h.71c0 .433-.146.783-.44 1.05-.293.267-.68.4-1.16.4zm9.893 6.4v-5.5h4.12V70h-.9v-4.68h-2.32V70h-.9zm8.056.08c-.44 0-.82-.083-1.14-.25a1.815 1.815 0 01-.75-.72c-.174-.32-.26-.697-.26-1.13v-1.46c0-.44.086-.817.26-1.13.18-.313.43-.553.75-.72.32-.167.7-.25 1.14-.25.44 0 .82.083 1.14.25.32.167.566.407.74.72.18.313.27.687.27 1.12v1.47c0 .433-.09.81-.27 1.13a1.76 1.76 0 01-.74.72c-.32.167-.7.25-1.14.25zm0-.8c.393 0 .7-.11.92-.33.22-.22.33-.543.33-.97v-1.46c0-.427-.11-.75-.33-.97-.22-.22-.527-.33-.92-.33-.387 0-.694.11-.92.33-.22.22-.33.543-.33.97v1.46c0 .427.11.75.33.97.226.22.533.33.92.33zm3.246.79v-.84h.18c.306 0 .52-.12.64-.36.127-.24.193-.67.2-1.29l.06-3.08h3.73V70h-.9v-4.68h-1.94l-.05 2.3c-.014.58-.08 1.05-.2 1.41-.114.36-.294.623-.54.79-.24.167-.557.25-.95.25h-.23zM70.94 70v-5.5h.9v2.02h1.62c.62 0 1.107.157 1.46.47.36.307.54.73.54 1.27 0 .533-.18.957-.54 1.27-.36.313-.847.47-1.46.47h-2.52zm.9-.82h1.62c.347 0 .61-.077.79-.23.187-.16.28-.39.28-.69 0-.3-.093-.527-.28-.68-.18-.16-.443-.24-.79-.24h-1.62v1.84zm6.856.89c-.58 0-1.057-.123-1.43-.37a1.47 1.47 0 01-.66-1h.95c.047.167.17.303.37.41.207.107.463.16.77.16h.47c.327 0 .58-.077.76-.23a.74.74 0 00.28-.6c0-.267-.09-.477-.27-.63-.173-.153-.43-.23-.77-.23h-1.21v-.78h1.18c.307 0 .54-.073.7-.22a.75.75 0 00.24-.58.757.757 0 00-.11-.42.636.636 0 00-.31-.26c-.14-.06-.31-.09-.51-.09h-.5c-.267 0-.497.06-.69.18-.193.12-.31.267-.35.44h-.95c.067-.413.283-.753.65-1.02.367-.267.813-.4 1.34-.4h.5c.393 0 .73.063 1.01.19.28.12.493.293.64.52.153.227.23.497.23.81 0 .327-.107.597-.32.81-.213.207-.513.323-.9.35v.04c.473.033.817.16 1.03.38.213.22.32.537.32.95 0 .487-.18.873-.54 1.16-.36.287-.843.43-1.45.43h-.47zm6.256.01c-.44 0-.82-.083-1.14-.25a1.815 1.815 0 01-.75-.72c-.173-.32-.26-.697-.26-1.13v-1.46c0-.44.087-.817.26-1.13.18-.313.43-.553.75-.72.32-.167.7-.25 1.14-.25.44 0 .82.083 1.14.25.32.167.567.407.74.72.18.313.27.687.27 1.12v1.47c0 .433-.09.81-.27 1.13-.173.313-.42.553-.74.72-.32.167-.7.25-1.14.25zm0-.8c.394 0 .7-.11.92-.33.22-.22.33-.543.33-.97v-1.46c0-.427-.11-.75-.33-.97-.22-.22-.526-.33-.92-.33-.386 0-.693.11-.92.33-.22.22-.33.543-.33.97v1.46c0 .427.11.75.33.97.227.22.534.33.92.33zm3.936.72v-5.5h2.38c.574 0 1.017.13 1.33.39.314.253.47.61.47 1.07 0 .38-.13.687-.39.92-.26.227-.603.34-1.03.34v-.08c.467 0 .84.117 1.12.35.287.233.43.547.43.94 0 .493-.166.88-.5 1.16-.333.273-.8.41-1.4.41h-2.41zm.88-.79h1.53c.32 0 .567-.07.74-.21.18-.14.27-.337.27-.59 0-.26-.09-.46-.27-.6-.173-.14-.42-.21-.74-.21h-1.53v1.61zm0-2.39h1.5c.28 0 .5-.067.66-.2.167-.133.25-.32.25-.56 0-.24-.08-.427-.24-.56-.16-.14-.383-.21-.67-.21h-1.5v1.53zm6.696 3.28c-.58 0-1.036-.147-1.37-.44-.333-.3-.5-.703-.5-1.21 0-.513.167-.917.5-1.21.334-.293.784-.44 1.35-.44h1.7v-.55c0-.34-.103-.6-.31-.78-.2-.187-.486-.28-.86-.28-.326 0-.6.07-.82.21a.747.747 0 00-.38.55h-.9c.06-.473.284-.85.67-1.13.387-.28.87-.42 1.45-.42.634 0 1.134.163 1.5.49.367.327.55.77.55 1.33V70h-.88v-1.05h-.15l.15-.15c0 .4-.156.717-.47.95-.306.233-.716.35-1.23.35zm.22-.71c.427 0 .777-.107 1.05-.32a.996.996 0 00.41-.82v-.78h-1.68c-.3 0-.536.083-.71.25-.173.167-.26.393-.26.68 0 .307.104.55.31.73.214.173.507.26.88.26zm5.806.61v-4.71h-2v-.79h4.9v.79h-2V70h-.9zm6.447.1c-.434 0-.814-.087-1.14-.26a1.881 1.881 0 01-.75-.73c-.174-.32-.26-.69-.26-1.11v-1.5c0-.427.086-.797.26-1.11.18-.313.43-.557.75-.73.326-.173.706-.26 1.14-.26.433 0 .81.087 1.13.26.326.173.576.417.75.73.18.313.27.683.27 1.11v.97h-3.42V68c0 .433.11.767.33 1 .22.227.533.34.94.34.346 0 .626-.06.84-.18a.796.796 0 00.39-.56h.9c-.06.46-.287.827-.68 1.1-.387.267-.87.4-1.45.4zm1.27-3.23v-.37c0-.433-.11-.767-.33-1-.214-.233-.527-.35-.94-.35-.407 0-.72.117-.94.35-.22.233-.33.567-.33 1v.29h2.61l-.07.08zm1.976 3.2v-.84h.18c.306 0 .52-.12.64-.36.126-.24.193-.67.2-1.29l.06-3.08h3.73V70h-.9v-4.68h-1.94l-.05 2.3c-.014.58-.08 1.05-.2 1.41-.114.36-.294.623-.54.79-.24.167-.557.25-.95.25h-.23zm6.726-.07v-5.5h.9v2.02h1.62c.62 0 1.106.157 1.46.47.36.307.54.73.54 1.27 0 .533-.18.957-.54 1.27-.36.313-.847.47-1.46.47h-2.52zm.9-.82h1.62c.346 0 .61-.077.79-.23.186-.16.28-.39.28-.69 0-.3-.094-.527-.28-.68-.18-.16-.444-.24-.79-.24h-1.62v1.84zM10.94 83v-5.5h4.12V83h-.9v-4.68h-2.32V83h-.9zm8.056.08c-.44 0-.82-.083-1.14-.25a1.815 1.815 0 01-.75-.72c-.173-.32-.26-.697-.26-1.13v-1.46c0-.44.087-.817.26-1.13.18-.313.43-.553.75-.72.32-.167.7-.25 1.14-.25.44 0 .82.083 1.14.25.32.167.567.407.74.72.18.313.27.687.27 1.12v1.47c0 .433-.09.81-.27 1.13-.173.313-.42.553-.74.72-.32.167-.7.25-1.14.25zm0-.8c.393 0 .7-.11.92-.33.22-.22.33-.543.33-.97v-1.46c0-.427-.11-.75-.33-.97-.22-.22-.527-.33-.92-.33-.387 0-.693.11-.92.33-.22.22-.33.543-.33.97v1.46c0 .427.11.75.33.97.227.22.533.33.92.33zm3.246.79v-.84h.18c.307 0 .52-.12.64-.36.127-.24.194-.67.2-1.29l.06-3.08h3.73V83h-.9v-4.68h-1.94l-.05 2.3c-.013.58-.08 1.05-.2 1.41-.113.36-.293.623-.54.79-.24.167-.556.25-.95.25h-.23zm7.526 1.73l.81-2.14-2.04-5.16h1l1.28 3.4c.047.113.09.25.13.41.04.153.074.283.1.39l.1-.39c.04-.16.08-.297.12-.41l1.2-3.4h.97l-2.71 7.3h-.96zm8.316-1.8v-2c-.106.027-.27.053-.49.08-.213.02-.44.03-.68.03-.68.007-1.21-.157-1.59-.49-.373-.34-.56-.813-.56-1.42v-1.7h.9v1.7c0 .34.114.61.34.81.234.193.554.29.96.29.28 0 .517-.01.71-.03.2-.027.337-.05.41-.07v-2.7h.9V83h-.9zm4.416.1c-.58 0-1.036-.147-1.37-.44-.333-.3-.5-.703-.5-1.21 0-.513.167-.917.5-1.21.334-.293.784-.44 1.35-.44h1.7v-.55c0-.34-.103-.6-.31-.78-.2-.187-.486-.28-.86-.28-.326 0-.6.07-.82.21a.747.747 0 00-.38.55h-.9c.06-.473.284-.85.67-1.13.387-.28.87-.42 1.45-.42.634 0 1.134.163 1.5.49.367.327.55.77.55 1.33V83h-.88v-1.05h-.15l.15-.15c0 .4-.156.717-.47.95-.306.233-.716.35-1.23.35zm.22-.71c.427 0 .777-.107 1.05-.32a.996.996 0 00.41-.82v-.78H42.5c-.3 0-.536.083-.71.25-.173.167-.26.393-.26.68 0 .307.104.55.31.73.214.173.507.26.88.26zm6.257.71c-.434 0-.814-.087-1.14-.26a1.881 1.881 0 01-.75-.73c-.174-.32-.26-.69-.26-1.11v-1.5c0-.427.086-.797.26-1.11.18-.313.43-.557.75-.73.326-.173.706-.26 1.14-.26.433 0 .81.087 1.13.26.326.173.576.417.75.73.18.313.27.683.27 1.11v.97h-3.42V81c0 .433.11.767.33 1 .22.227.533.34.94.34.346 0 .626-.06.84-.18a.795.795 0 00.39-.56h.9c-.06.46-.287.827-.68 1.1-.387.267-.87.4-1.45.4zm1.27-3.23v-.37c0-.433-.11-.767-.33-1-.214-.233-.527-.35-.94-.35-.407 0-.72.117-.94.35-.22.233-.33.567-.33 1v.29h2.61l-.07.08zM54.523 83v-4.71h-2v-.79h4.9v.79h-2V83h-.9zm11.222 1.8l.81-2.14-2.04-5.16h1l1.28 3.4c.046.113.09.25.13.41l.1.39c.026-.107.06-.237.1-.39.04-.16.08-.297.12-.41l1.2-3.4h.97l-2.71 7.3h-.96zM70.9 83v-5.5h.9v2.29h2.32V77.5h.9V83h-.9v-2.39H71.8V83h-.9zm5.996 0v-5.5h.86v3c0 .193-.007.397-.02.61a8.72 8.72 0 01-.04.61c-.013.187-.03.347-.05.48l2.22-4.7h1.15V83h-.86v-3c0-.193.003-.397.01-.61.013-.213.03-.417.05-.61l.05-.49-2.22 4.71h-1.15zm6.026 0v-5.5h.9v2.27h.94l1.6-2.27h1.03l-1.85 2.62 1.88 2.88h-1.05l-1.6-2.45h-.95V83h-.9zm7.546.1c-.58 0-1.036-.147-1.37-.44-.333-.3-.5-.703-.5-1.21 0-.513.167-.917.5-1.21.334-.293.784-.44 1.35-.44h1.7v-.55c0-.34-.103-.6-.31-.78-.2-.187-.486-.28-.86-.28-.326 0-.6.07-.82.21a.747.747 0 00-.38.55h-.9c.06-.473.284-.85.67-1.13.387-.28.87-.42 1.45-.42.634 0 1.134.163 1.5.49.367.327.55.77.55 1.33V83h-.88v-1.05h-.15l.15-.15c0 .4-.156.717-.47.95-.306.233-.716.35-1.23.35zm.22-.71c.427 0 .777-.107 1.05-.32a.995.995 0 00.41-.82v-.78h-1.68c-.3 0-.536.083-.71.25-.173.167-.26.393-.26.68 0 .307.104.55.31.73.214.173.507.26.88.26zm3.506.68v-.84h.18c.307 0 .52-.12.64-.36.127-.24.194-.67.2-1.29l.06-3.08h3.73V83h-.9v-4.68h-1.94l-.05 2.3c-.013.58-.08 1.05-.2 1.41-.113.36-.293.623-.54.79-.24.167-.556.25-.95.25h-.23zm6.726-.07v-5.5h.9v2.02h1.62c.62 0 1.107.157 1.46.47.36.307.54.73.54 1.27 0 .533-.18.957-.54 1.27-.36.313-.846.47-1.46.47h-2.52zm.9-.82h1.62c.347 0 .61-.077.79-.23.187-.16.28-.39.28-.69 0-.3-.093-.527-.28-.68-.18-.16-.443-.24-.79-.24h-1.62v1.84zm5.057.82v-5.5h.9v2.29h2.32V77.5h.9V83h-.9v-2.39h-2.32V83h-.9zm6.836 1.8l.81-2.14-2.04-5.16h1l1.28 3.4c.046.113.09.25.13.41l.1.39c.026-.107.06-.237.1-.39.04-.16.08-.297.12-.41l1.2-3.4h.97l-2.71 7.3h-.96zm8.076-1.7c-.46 0-.83-.157-1.11-.47-.28-.313-.42-.723-.42-1.23v-.83h-.88V83h-.83v-5.5h.83v2.35h.88v-.75c0-.513.136-.923.41-1.23.28-.313.653-.47 1.12-.47.493 0 .89.157 1.19.47.3.307.45.717.45 1.23v2.3c0 .507-.15.917-.45 1.23-.3.313-.697.47-1.19.47zm0-.7c.253 0 .45-.087.59-.26.146-.18.22-.427.22-.74v-2.3c0-.313-.074-.557-.22-.73-.14-.18-.337-.27-.59-.27-.247 0-.44.09-.58.27-.14.173-.21.417-.21.73v2.3c0 .313.07.56.21.74.14.173.333.26.58.26zM13.02 96.1c-.44 0-.827-.083-1.16-.25a1.801 1.801 0 01-.76-.72c-.18-.32-.27-.697-.27-1.13v-1.5c0-.44.09-.817.27-1.13.18-.313.433-.553.76-.72.333-.167.72-.25 1.16-.25.633 0 1.143.17 1.53.51.387.34.59.803.61 1.39h-.9c-.02-.353-.14-.623-.36-.81-.213-.193-.507-.29-.88-.29-.393 0-.707.113-.94.34-.233.22-.35.537-.35.95V94c0 .413.117.733.35.96.233.227.547.34.94.34.373 0 .667-.097.88-.29.22-.193.34-.463.36-.81h.9c-.02.587-.223 1.05-.61 1.39-.387.34-.897.51-1.53.51zm5.996 0c-.44 0-.827-.083-1.16-.25a1.801 1.801 0 01-.76-.72c-.18-.32-.27-.697-.27-1.13v-1.5c0-.44.09-.817.27-1.13.18-.313.433-.553.76-.72.333-.167.72-.25 1.16-.25.633 0 1.143.17 1.53.51.387.34.59.803.61 1.39h-.9c-.02-.353-.14-.623-.36-.81-.213-.193-.507-.29-.88-.29-.393 0-.707.113-.94.34-.233.22-.35.537-.35.95V94c0 .413.117.733.35.96.233.227.547.34.94.34.373 0 .667-.097.88-.29.22-.193.34-.463.36-.81h.9c-.02.587-.223 1.05-.61 1.39-.387.34-.897.51-1.53.51zm3.626-.1v-5.5h.84v2.02h.45c.594 0 1.06.157 1.4.47.347.307.52.73.52 1.27s-.173.967-.52 1.28c-.34.307-.806.46-1.4.46h-1.29zm.84-.72h.45c.354 0 .627-.09.82-.27.2-.18.3-.43.3-.75s-.1-.57-.3-.75c-.193-.18-.466-.27-.82-.27h-.45v2.04zm3.02.72v-5.5h.84V96h-.84zm1.736.07v-.84h.18c.307 0 .52-.12.64-.36.127-.24.194-.67.2-1.29l.06-3.08h3.73V96h-.9v-4.68h-1.94l-.05 2.3c-.013.58-.08 1.05-.2 1.41-.113.36-.293.623-.54.79-.24.167-.556.25-.95.25h-.23zm6.716-.07v-5.5h.9v2.27h.94l1.6-2.27h1.03l-1.85 2.62 1.88 2.88h-1.05l-1.6-2.45h-.95V96h-.9zm6.806 1.8l.81-2.14-2.04-5.16h1l1.28 3.4c.047.113.09.25.13.41.04.153.074.283.1.39l.1-.39c.04-.16.08-.297.12-.41l1.2-3.4h.97l-2.71 7.3h-.96zM52.913 96v-5.5h.86v3c0 .193-.007.397-.02.61a8.72 8.72 0 01-.04.61 6.67 6.67 0 01-.05.48l2.22-4.7h1.15V96h-.86v-3c0-.193.003-.397.01-.61.013-.213.03-.417.05-.61.02-.2.036-.363.05-.49L54.063 96h-1.15zm5.306.07v-.84h.18c.306 0 .52-.12.64-.36.126-.24.193-.67.2-1.29l.06-3.08h3.73V96h-.9v-4.68h-1.94l-.05 2.3c-.014.58-.08 1.05-.2 1.41-.114.36-.294.623-.54.79-.24.167-.557.25-.95.25h-.23zm6.686-.07v-5.5h.86v3c0 .193-.007.397-.02.61a8.72 8.72 0 01-.04.61c-.013.187-.03.347-.05.48l2.22-4.7h1.15V96h-.86v-3c0-.193.003-.397.01-.61.013-.213.03-.417.05-.61l.05-.49-2.22 4.71h-1.15zm12.022 0v-5.5h.9v2.27h.94l1.6-2.27h1.03l-1.85 2.62 1.88 2.88h-1.05l-1.6-2.45h-.95V96h-.9zm8.026.08c-.44 0-.82-.083-1.14-.25a1.815 1.815 0 01-.75-.72c-.173-.32-.26-.697-.26-1.13v-1.46c0-.44.087-.817.26-1.13.18-.313.43-.553.75-.72.32-.167.7-.25 1.14-.25.44 0 .82.083 1.14.25.32.167.567.407.74.72.18.313.27.687.27 1.12v1.47c0 .433-.09.81-.27 1.13-.173.313-.42.553-.74.72-.32.167-.7.25-1.14.25zm0-.8c.394 0 .7-.11.92-.33.22-.22.33-.543.33-.97v-1.46c0-.427-.11-.75-.33-.97-.22-.22-.526-.33-.92-.33-.386 0-.693.11-.92.33-.22.22-.33.543-.33.97v1.46c0 .427.11.75.33.97.227.22.534.33.92.33zm3.296 2.12v-2.17h.45c.114-.113.23-.337.35-.67.127-.333.194-.757.2-1.27l.06-2.79h3.59v4.73h.7v2.17h-.8V96h-3.75v1.4h-.8zm1.4-2.17H92V91.3h-1.84l-.04 2.01c-.006.527-.063.953-.17 1.28-.106.327-.206.54-.3.64zm5.946 2.37l.8-3.11h1.3l-1.3 3.11h-.8zM10.97 109v-5.5h.9v2.27h.94l1.6-2.27h1.03l-1.85 2.62 1.88 2.88h-1.05l-1.6-2.45h-.95V109h-.9zm8.026.08c-.44 0-.82-.083-1.14-.25a1.82 1.82 0 01-.75-.72c-.173-.32-.26-.697-.26-1.13v-1.46c0-.44.087-.817.26-1.13.18-.313.43-.553.75-.72.32-.167.7-.25 1.14-.25.44 0 .82.083 1.14.25.32.167.567.407.74.72.18.313.27.687.27 1.12v1.47c0 .433-.09.81-.27 1.13-.173.313-.42.553-.74.72-.32.167-.7.25-1.14.25zm0-.8c.393 0 .7-.11.92-.33.22-.22.33-.543.33-.97v-1.46c0-.427-.11-.75-.33-.97-.22-.22-.527-.33-.92-.33-.387 0-.693.11-.92.33-.22.22-.33.543-.33.97v1.46c0 .427.11.75.33.97.227.22.533.33.92.33zm5.546.72v-4.71h-2v-.79h4.9v.79h-2V109h-.9zm6.446.08c-.44 0-.82-.083-1.14-.25a1.82 1.82 0 01-.75-.72c-.173-.32-.26-.697-.26-1.13v-1.46c0-.44.087-.817.26-1.13.18-.313.43-.553.75-.72.32-.167.7-.25 1.14-.25.44 0 .82.083 1.14.25.32.167.567.407.74.72.18.313.27.687.27 1.12v1.47c0 .433-.09.81-.27 1.13-.173.313-.42.553-.74.72-.32.167-.7.25-1.14.25zm0-.8c.394 0 .7-.11.92-.33.22-.22.33-.543.33-.97v-1.46c0-.427-.11-.75-.33-.97-.22-.22-.526-.33-.92-.33-.386 0-.693.11-.92.33-.22.22-.33.543-.33.97v1.46c0 .427.11.75.33.97.227.22.534.33.92.33zm3.916 2.52v-7.3h.9v1.05h.18l-.18.21c0-.42.137-.75.41-.99.28-.247.647-.37 1.1-.37.554 0 .994.183 1.32.55.334.36.5.857.5 1.49v1.61c0 .42-.076.783-.23 1.09a1.636 1.636 0 01-.63.71c-.266.167-.586.25-.96.25-.446 0-.81-.123-1.09-.37s-.42-.577-.42-.99l.18.21h-.2l.02 1.25v1.6h-.9zm2.11-2.48c.38 0 .677-.113.89-.34.22-.227.33-.553.33-.98v-1.5c0-.427-.11-.753-.33-.98-.213-.227-.51-.34-.89-.34-.366 0-.66.117-.88.35-.22.233-.33.557-.33.97v1.5c0 .413.11.737.33.97.22.233.514.35.88.35zm3.616.68v-5.5h.84v2.02h.45c.594 0 1.06.157 1.4.47.347.307.52.73.52 1.27s-.173.967-.52 1.28c-.34.307-.806.46-1.4.46h-1.29zm.84-.72h.45c.354 0 .627-.09.82-.27.2-.18.3-.43.3-.75s-.1-.57-.3-.75c-.193-.18-.466-.27-.82-.27h-.45v2.04zm3.02.72v-5.5h.84v5.5h-.84zm2.247 0v-5.5h1.22l.72 2.11c.073.213.14.427.2.64.06.207.103.367.13.48.026-.113.066-.273.12-.48.06-.213.123-.43.19-.65l.68-2.1h1.22v5.5h-.87v-.85c0-.3.003-.627.01-.98l.02-1.07c.013-.36.026-.7.04-1.02.013-.327.023-.613.03-.86l-.98 3.13h-.95l-.99-3.11c.013.3.023.673.03 1.12.013.447.023.913.03 1.4.013.487.02.95.02 1.39v.85h-.87zm6.176 0v-5.5h.86v3c0 .193-.007.397-.02.61a8.72 8.72 0 01-.04.61 6.67 6.67 0 01-.05.48l2.22-4.7h1.15v5.5h-.86v-3c0-.193.003-.397.01-.61.013-.213.03-.417.05-.61.02-.2.036-.363.05-.49l-2.22 4.71h-1.15zm11.812 0v-5.5h1.22l.72 2.11c.073.213.14.427.2.64.06.207.103.367.13.48.026-.113.066-.273.12-.48.06-.213.123-.43.19-.65l.68-2.1h1.22v5.5h-.87v-.85c0-.3.003-.627.01-.98l.02-1.07c.013-.36.026-.7.04-1.02.013-.327.023-.613.03-.86l-.98 3.13h-.95l-.99-3.11c.013.3.023.673.03 1.12.013.447.023.913.03 1.4.013.487.02.95.02 1.39v.85h-.87zm8.236.08c-.44 0-.82-.083-1.14-.25a1.82 1.82 0 01-.75-.72c-.173-.32-.26-.697-.26-1.13v-1.46c0-.44.087-.817.26-1.13.18-.313.43-.553.75-.72.32-.167.7-.25 1.14-.25.44 0 .82.083 1.14.25.32.167.567.407.74.72.18.313.27.687.27 1.12v1.47c0 .433-.09.81-.27 1.13-.173.313-.42.553-.74.72-.32.167-.7.25-1.14.25zm0-.8c.393 0 .7-.11.92-.33.22-.22.33-.543.33-.97v-1.46c0-.427-.11-.75-.33-.97-.22-.22-.527-.33-.92-.33-.387 0-.693.11-.92.33-.22.22-.33.543-.33.97v1.46c0 .427.11.75.33.97.227.22.533.33.92.33zm3.176.72l1.2-2.82-1.12-2.68h.87l.96 2.4h.53v-2.4h.76v2.4h.51l.99-2.4h.86l-1.12 2.65 1.2 2.85h-.9l-1-2.5h-.54v2.5h-.76v-2.5h-.54l-1.01 2.5h-.89zm8.816.1c-.433 0-.813-.087-1.14-.26a1.881 1.881 0 01-.75-.73c-.173-.32-.26-.69-.26-1.11v-1.5c0-.427.087-.797.26-1.11.18-.313.43-.557.75-.73.327-.173.707-.26 1.14-.26.433 0 .81.087 1.13.26a1.8 1.8 0 01.75.73c.18.313.27.683.27 1.11v.97h-3.42v.53c0 .433.11.767.33 1 .22.227.533.34.94.34.347 0 .627-.06.84-.18a.794.794 0 00.39-.56h.9c-.06.46-.287.827-.68 1.1-.387.267-.87.4-1.45.4zm1.27-3.23v-.37c0-.433-.11-.767-.33-1-.213-.233-.526-.35-.94-.35-.407 0-.72.117-.94.35-.22.233-.33.567-.33 1v.29h2.61l-.07.08zM90.5 109v-4.71h-2v-.79h4.9v.79h-2V109h-.9zm-79.56 13v-5.5h4.12v5.5h-.9v-4.68h-2.32V122h-.9zm8.056.08c-.44 0-.82-.083-1.14-.25a1.82 1.82 0 01-.75-.72c-.173-.32-.26-.697-.26-1.13v-1.46c0-.44.087-.817.26-1.13.18-.313.43-.553.75-.72.32-.167.7-.25 1.14-.25.44 0 .82.083 1.14.25.32.167.567.407.74.72.18.313.27.687.27 1.12v1.47c0 .433-.09.81-.27 1.13-.173.313-.42.553-.74.72-.32.167-.7.25-1.14.25zm0-.8c.393 0 .7-.11.92-.33.22-.22.33-.543.33-.97v-1.46c0-.427-.11-.75-.33-.97-.22-.22-.527-.33-.92-.33-.387 0-.693.11-.92.33-.22.22-.33.543-.33.97v1.46c0 .427.11.75.33.97.227.22.533.33.92.33zm3.296 2.12v-2.17h.45c.113-.113.23-.337.35-.67.127-.333.194-.757.2-1.27l.06-2.79h3.59v4.73h.7v2.17h-.8V122h-3.75v1.4h-.8zm1.4-2.17h2.35v-3.93h-1.84l-.04 2.01c-.006.527-.063.953-.17 1.28-.107.327-.207.54-.3.64zm7.296.87a2.4 2.4 0 01-1.14-.26 1.881 1.881 0 01-.75-.73c-.173-.32-.26-.69-.26-1.11v-1.5c0-.427.087-.797.26-1.11.18-.313.43-.557.75-.73a2.4 2.4 0 011.14-.26c.434 0 .81.087 1.13.26.327.173.577.417.75.73.18.313.27.683.27 1.11v.97h-3.42v.53c0 .433.11.767.33 1 .22.227.534.34.94.34.347 0 .627-.06.84-.18a.795.795 0 00.39-.56h.9a1.53 1.53 0 01-.68 1.1c-.386.267-.87.4-1.45.4zm1.27-3.23v-.37c0-.433-.11-.767-.33-1-.213-.233-.526-.35-.94-.35-.406 0-.72.117-.94.35-.22.233-.33.567-.33 1v.29h2.61l-.07.08zm1.976 3.2v-.84h.18c.307 0 .52-.12.64-.36.127-.24.194-.67.2-1.29l.06-3.08h3.73v5.5h-.9v-4.68h-1.94l-.05 2.3c-.013.58-.08 1.05-.2 1.41-.113.36-.293.623-.54.79-.24.167-.556.25-.95.25h-.23zm6.686-.07v-5.5h.86v3c0 .193-.006.397-.02.61-.006.213-.02.417-.04.61-.013.187-.03.347-.05.48l2.22-4.7h1.15v5.5h-.86v-3c0-.193.004-.397.01-.61.014-.213.03-.417.05-.61l.05-.49-2.22 4.71h-1.15zm7.607 0v-4.71h-2v-.79h4.9v.79h-2V122h-.9zm4.426 0v-5.5h.9v2.02h1.62c.62 0 1.106.157 1.46.47.36.307.54.73.54 1.27 0 .533-.18.957-.54 1.27-.36.313-.847.47-1.46.47h-2.52zm.9-.82h1.62c.346 0 .61-.077.79-.23.186-.16.28-.39.28-.69 0-.3-.094-.527-.28-.68-.18-.16-.444-.24-.79-.24h-1.62v1.84zm7.136.92c-.44 0-.827-.083-1.16-.25a1.805 1.805 0 01-.76-.72c-.18-.32-.27-.697-.27-1.13v-1.5c0-.44.09-.817.27-1.13.18-.313.433-.553.76-.72.333-.167.72-.25 1.16-.25.633 0 1.143.17 1.53.51.386.34.59.803.61 1.39h-.9c-.02-.353-.14-.623-.36-.81-.214-.193-.507-.29-.88-.29-.394 0-.707.113-.94.34-.234.22-.35.537-.35.95V120c0 .413.116.733.35.96.233.227.546.34.94.34.373 0 .666-.097.88-.29.22-.193.34-.463.36-.81h.9c-.02.587-.224 1.05-.61 1.39-.387.34-.897.51-1.53.51zm3.576-.1l1.41-2.12c-.42-.1-.747-.293-.98-.58-.227-.287-.34-.643-.34-1.07 0-.54.177-.963.53-1.27.36-.307.85-.46 1.47-.46h2.37v5.5h-.9v-2.05h-1.21l-1.3 2.05h-1.05zm2.09-2.85h1.47v-1.85h-1.47c-.334 0-.597.083-.79.25-.194.16-.29.387-.29.68 0 .287.096.513.29.68.193.16.457.24.79.24zm12.322 2.95c-.44 0-.827-.083-1.16-.25a1.805 1.805 0 01-.76-.72c-.18-.32-.27-.697-.27-1.13v-1.5c0-.44.09-.817.27-1.13.18-.313.433-.553.76-.72.333-.167.72-.25 1.16-.25.633 0 1.143.17 1.53.51.387.34.59.803.61 1.39h-.9c-.02-.353-.14-.623-.36-.81-.213-.193-.507-.29-.88-.29-.393 0-.707.113-.94.34-.233.22-.35.537-.35.95V120c0 .413.117.733.35.96.233.227.547.34.94.34.373 0 .667-.097.88-.29.22-.193.34-.463.36-.81h.9c-.02.587-.223 1.05-.61 1.39-.387.34-.897.51-1.53.51zm9.272 1.3v-2.17h.45c.114-.113.23-.337.35-.67.127-.333.194-.757.2-1.27l.06-2.79h3.59v4.73h.7v2.17h-.8V122h-3.75v1.4h-.8zm1.4-2.17H92v-3.93h-1.84l-.04 2.01c-.006.527-.063.953-.17 1.28-.106.327-.206.54-.3.64zm5.216 2.57v-7.3h.9v1.05h.18l-.18.21c0-.42.137-.75.41-.99.28-.247.647-.37 1.1-.37.554 0 .994.183 1.32.55.334.36.5.857.5 1.49v1.61c0 .42-.076.783-.23 1.09a1.636 1.636 0 01-.63.71c-.266.167-.586.25-.96.25-.446 0-.81-.123-1.09-.37s-.42-.577-.42-.99l.18.21h-.2l.02 1.25v1.6h-.9zm2.11-2.48c.38 0 .677-.113.89-.34.22-.227.33-.553.33-.98v-1.5c0-.427-.11-.753-.33-.98-.213-.227-.51-.34-.89-.34-.366 0-.66.117-.88.35-.22.233-.33.557-.33.97v1.5c0 .413.11.737.33.97.22.233.514.35.88.35zm4.746 2.48l.81-2.14-2.04-5.16h1l1.28 3.4c.047.113.09.25.13.41.04.153.074.283.1.39l.1-.39c.04-.16.08-.297.12-.41l1.2-3.4h.97l-2.71 7.3h-.96zm6.957-1.73c-.58 0-1.057-.123-1.43-.37a1.468 1.468 0 01-.66-1h.95c.046.167.17.303.37.41.206.107.463.16.77.16h.47c.326 0 .58-.077.76-.23a.74.74 0 00.28-.6c0-.267-.09-.477-.27-.63-.174-.153-.43-.23-.77-.23h-1.21v-.78h1.18c.306 0 .54-.073.7-.22a.75.75 0 00.24-.58.759.759 0 00-.11-.42.639.639 0 00-.31-.26c-.14-.06-.31-.09-.51-.09h-.5c-.267 0-.497.06-.69.18-.194.12-.31.267-.35.44h-.95c.066-.413.283-.753.65-1.02.366-.267.813-.4 1.34-.4h.5c.393 0 .73.063 1.01.19.28.12.493.293.64.52.153.227.23.497.23.81 0 .327-.107.597-.32.81-.214.207-.514.323-.9.35v.04c.473.033.816.16 1.03.38.213.22.32.537.32.95 0 .487-.18.873-.54 1.16-.36.287-.844.43-1.45.43h-.47zm4.236-.07v-5.5h.9v2.02h1.62c.62 0 1.106.157 1.46.47.36.307.54.73.54 1.27 0 .533-.18.957-.54 1.27-.36.313-.847.47-1.46.47h-2.52zm.9-.82h1.62c.346 0 .61-.077.79-.23.186-.16.28-.39.28-.69 0-.3-.094-.527-.28-.68-.18-.16-.444-.24-.79-.24h-1.62v1.84zm4.716.82l1.41-2.12c-.42-.1-.747-.293-.98-.58-.227-.287-.34-.643-.34-1.07 0-.54.176-.963.53-1.27.36-.307.85-.46 1.47-.46h2.37v5.5h-.9v-2.05h-1.21l-1.3 2.05h-1.05zm2.09-2.85h1.47v-1.85h-1.47c-.334 0-.597.083-.79.25-.194.16-.29.387-.29.68 0 .287.096.513.29.68.193.16.456.24.79.24zm4.066 2.85v-5.5h1.22l.72 2.11c.073.213.14.427.2.64.06.207.103.367.13.48.026-.113.066-.273.12-.48.06-.213.123-.43.19-.65l.68-2.1h1.22v5.5h-.87v-.85c0-.3.003-.627.01-.98l.02-1.07c.013-.36.026-.7.04-1.02.013-.327.023-.613.03-.86l-.98 3.13h-.95l-.99-3.11c.013.3.023.673.03 1.12.013.447.023.913.03 1.4.013.487.02.95.02 1.39v.85h-.87zm6.176 0v-5.5h.86v3c0 .193-.007.397-.02.61a8.72 8.72 0 01-.04.61c-.013.187-.03.347-.05.48l2.22-4.7h1.15v5.5h-.86v-3c0-.193.003-.397.01-.61.013-.213.03-.417.05-.61l.05-.49-2.22 4.71h-1.15zm8.056.1c-.253 0-.457-.073-.61-.22-.147-.147-.22-.343-.22-.59 0-.26.073-.467.22-.62.153-.153.357-.23.61-.23s.453.077.6.23c.153.153.23.36.23.62 0 .247-.077.443-.23.59-.147.147-.347.22-.6.22z" fill="#000"/><path d="M44.183 22v-7.3h4.68V22h-1.5v-5.9h-1.68V22h-1.5zm8.346.1c-.486 0-.913-.09-1.28-.27a2.087 2.087 0 01-.84-.77 2.27 2.27 0 01-.29-1.16v-1.3c0-.44.097-.823.29-1.15a2 2 0 01.84-.77c.367-.187.794-.28 1.28-.28.487 0 .907.093 1.26.28.36.18.637.437.83.77.2.327.3.71.3 1.15v1h-3.37v.3c0 .347.084.61.25.79.167.173.417.26.75.26.234 0 .42-.04.56-.12a.581.581 0 00.29-.33h1.47c-.12.48-.393.867-.82 1.16-.42.293-.926.44-1.52.44zm.96-3.27v-.25c0-.34-.08-.6-.24-.78-.153-.18-.393-.27-.72-.27-.326 0-.573.093-.74.28-.16.187-.24.45-.24.79v.15l2.04-.02-.1.1zm2.687 4.97v-7.3h1.45v1.05h.35l-.35.35c0-.473.13-.84.39-1.1.26-.267.616-.4 1.07-.4.553 0 .996.197 1.33.59.333.387.5.907.5 1.56v1.4c0 .433-.077.813-.23 1.14-.147.32-.357.57-.63.75-.274.173-.597.26-.97.26-.454 0-.81-.13-1.07-.39-.26-.267-.39-.637-.39-1.11l.35.35h-.35l.05 1.35v1.5h-1.5zm2.37-3c.28 0 .493-.077.64-.23.153-.16.23-.383.23-.67v-1.3c0-.293-.077-.517-.23-.67-.147-.153-.36-.23-.64-.23-.274 0-.487.08-.64.24-.154.153-.23.373-.23.66v1.3c0 .287.076.51.23.67.153.153.366.23.64.23zm5.996 1.3c-.487 0-.914-.09-1.28-.27a2.073 2.073 0 01-.85-.77c-.2-.333-.3-.72-.3-1.16v-1.3c0-.447.1-.833.3-1.16.2-.327.483-.58.85-.76.366-.187.793-.28 1.28-.28.726 0 1.306.183 1.74.55.433.367.663.867.69 1.5h-1.5a.754.754 0 00-.28-.55c-.16-.133-.377-.2-.65-.2-.3 0-.53.077-.69.23-.16.153-.24.377-.24.67v1.3c0 .287.08.51.24.67.16.153.39.23.69.23.273 0 .49-.063.65-.19a.763.763 0 00.28-.56h1.5c-.027.633-.257 1.133-.69 1.5-.434.367-1.014.55-1.74.55zm5.966 0c-.487 0-.91-.09-1.27-.27a2.087 2.087 0 01-.84-.77 2.27 2.27 0 01-.29-1.16v-1.3c0-.44.096-.823.29-1.15a2 2 0 01.84-.77c.36-.187.783-.28 1.27-.28.493 0 .916.093 1.27.28.36.18.636.437.83.77.2.327.3.71.3 1.15v1.3c0 .44-.1.827-.3 1.16-.194.327-.47.583-.83.77-.354.18-.777.27-1.27.27zm0-1.3c.293 0 .517-.077.67-.23.153-.16.23-.383.23-.67v-1.3c0-.293-.077-.517-.23-.67-.153-.153-.377-.23-.67-.23-.287 0-.51.077-.67.23-.153.153-.23.377-.23.67v1.3c0 .287.076.51.23.67.16.153.383.23.67.23zm3.656 1.2v-5.5h1.5v2.01h1.68V16.5h1.5V22h-1.5v-2.09h-1.68V22h-1.5zm7.626.1c-.553 0-.993-.15-1.32-.45-.32-.3-.48-.707-.48-1.22 0-.553.19-.977.57-1.27.387-.3.94-.45 1.66-.45h1.14v-.41a.628.628 0 00-.23-.51c-.147-.127-.347-.19-.6-.19a.992.992 0 00-.58.16.656.656 0 00-.28.44h-1.45c.06-.553.3-.99.72-1.31.427-.327.973-.49 1.64-.49.7 0 1.253.173 1.66.52.413.34.62.8.62 1.38V22h-1.45v-.9h-.24l.25-.35c0 .413-.15.743-.45.99-.293.24-.687.36-1.18.36zm.56-1.1c.293 0 .533-.077.72-.23a.768.768 0 00.29-.62v-.59h-1.11a.765.765 0 00-.55.2.654.654 0 00-.21.51.68.68 0 00.23.54c.153.127.363.19.63.19zm3.356 1.07v-1.35h.3a.522.522 0 00.43-.22c.113-.147.173-.34.18-.58l.06-3.42h4.16V22h-1.5v-4.1h-1.19l-.04 2.12a2.274 2.274 0 01-.27 1.08c-.167.307-.4.547-.7.72a2.05 2.05 0 01-1.03.25h-.4zm6.486-.07v-5.5h1.5v1.65h1.29c.694 0 1.234.173 1.62.52.394.34.59.813.59 1.42 0 .587-.2 1.053-.6 1.4-.393.34-.927.51-1.6.51h-2.8zm1.5-1.3h1.2c.254 0 .447-.053.58-.16a.56.56 0 00.21-.46c0-.2-.07-.353-.21-.46-.133-.113-.326-.17-.58-.17h-1.2v1.25zm4.456 1.3v-5.5h1.5v2.01h1.68V16.5h1.5V22h-1.5v-2.09h-1.68V22h-1.5zm5.736 0v-5.5h1.25v1.75h.3c.594 0 1.067.173 1.42.52.354.347.53.81.53 1.39 0 .553-.18 1-.54 1.34-.353.333-.823.5-1.41.5h-1.55zm1.25-1.15h.3c.24 0 .424-.06.55-.18.134-.12.2-.293.2-.52 0-.24-.066-.423-.2-.55-.126-.133-.31-.2-.55-.2h-.3v1.45zm2.7 1.15v-5.5h1.25V22h-1.25zm4.656.1c-.486 0-.913-.09-1.28-.27a2.087 2.087 0 01-.84-.77 2.273 2.273 0 01-.29-1.16v-1.3c0-.44.097-.823.29-1.15a2 2 0 01.84-.77c.367-.187.794-.28 1.28-.28.487 0 .907.093 1.26.28.36.18.637.437.83.77.2.327.3.71.3 1.15v1h-3.37v.3c0 .347.084.61.25.79.167.173.417.26.75.26.234 0 .42-.04.56-.12a.578.578 0 00.29-.33h1.47c-.12.48-.393.867-.82 1.16-.42.293-.926.44-1.52.44zm.96-3.27v-.25c0-.34-.08-.6-.24-.78-.153-.18-.393-.27-.72-.27-.326 0-.573.093-.74.28-.16.187-.24.45-.24.79v.15l2.04-.02-.1.1zM26.195 36.8v-7.3h1.45v1.05h.35l-.35.35c0-.473.13-.84.39-1.1.26-.267.617-.4 1.07-.4.553 0 .997.197 1.33.59.334.387.5.907.5 1.56v1.4c0 .433-.076.813-.23 1.14-.146.32-.356.57-.63.75-.273.173-.596.26-.97.26-.453 0-.81-.13-1.07-.39-.26-.267-.39-.637-.39-1.11l.35.35h-.35l.05 1.35v1.5h-1.5zm2.37-3c.28 0 .493-.077.64-.23.154-.16.23-.383.23-.67v-1.3c0-.293-.076-.517-.23-.67-.146-.153-.36-.23-.64-.23-.273 0-.487.08-.64.24-.153.153-.23.373-.23.66v1.3c0 .287.077.51.23.67.153.153.367.23.64.23zm5.976 1.3c-.486 0-.913-.09-1.28-.27a2.087 2.087 0 01-.84-.77 2.27 2.27 0 01-.29-1.16v-1.3c0-.44.097-.823.29-1.15a2 2 0 01.84-.77c.367-.187.794-.28 1.28-.28.487 0 .907.093 1.26.28.36.18.637.437.83.77.2.327.3.71.3 1.15v1h-3.37v.3c0 .347.084.61.25.79.167.173.417.26.75.26.234 0 .42-.04.56-.12a.582.582 0 00.29-.33h1.47c-.12.48-.393.867-.82 1.16-.42.293-.926.44-1.52.44zm.96-3.27v-.25c0-.34-.08-.6-.24-.78-.153-.18-.393-.27-.72-.27-.326 0-.573.093-.74.28-.16.187-.24.45-.24.79v.15l2.04-.02-.1.1zm4.416 4.97V35c-.633 0-1.133-.183-1.5-.55-.36-.373-.54-.88-.54-1.52v-1.37c0-.633.184-1.133.55-1.5.367-.373.864-.56 1.49-.56v-1.8h1.22v1.8c.634 0 1.13.187 1.49.56.367.367.55.867.55 1.5v1.37c0 .64-.183 1.147-.55 1.52-.36.367-.856.55-1.49.55v1.8h-1.22zm.07-2.98v-3.15c-.26 0-.466.08-.62.24-.146.153-.22.37-.22.65v1.37c0 .28.074.5.22.66.154.153.36.23.62.23zm1.08 0c.26 0 .464-.077.61-.23.154-.16.23-.38.23-.66v-1.37c0-.28-.076-.497-.23-.65-.146-.16-.35-.24-.61-.24v3.15zm5.466 1.28c-.486 0-.913-.09-1.28-.27a2.087 2.087 0 01-.84-.77 2.27 2.27 0 01-.29-1.16v-1.3c0-.44.097-.823.29-1.15a2 2 0 01.84-.77c.367-.187.794-.28 1.28-.28.487 0 .907.093 1.26.28.36.18.637.437.83.77.2.327.3.71.3 1.15v1h-3.37v.3c0 .347.084.61.25.79.167.173.417.26.75.26.234 0 .42-.04.56-.12a.581.581 0 00.29-.33h1.47c-.12.48-.393.867-.82 1.16-.42.293-.926.44-1.52.44zm.96-3.27v-.25c0-.34-.08-.6-.24-.78-.153-.18-.393-.27-.72-.27-.326 0-.573.093-.74.28-.16.187-.24.45-.24.79v.15l2.04-.02-.1.1zm2.686 4.97v-7.3h1.45v1.05h.35l-.35.35c0-.473.13-.84.39-1.1.26-.267.617-.4 1.07-.4.554 0 .997.197 1.33.59.334.387.5.907.5 1.56v1.4c0 .433-.076.813-.23 1.14-.146.32-.356.57-.63.75-.273.173-.596.26-.97.26-.453 0-.81-.13-1.07-.39-.26-.267-.39-.637-.39-1.11l.35.35h-.35l.05 1.35v1.5h-1.5zm2.37-3c.28 0 .494-.077.64-.23.154-.16.23-.383.23-.67v-1.3c0-.293-.076-.517-.23-.67-.146-.153-.36-.23-.64-.23-.273 0-.486.08-.64.24-.153.153-.23.373-.23.66v1.3c0 .287.077.51.23.67.154.153.367.23.64.23zm5.257 1.3c-.554 0-.994-.15-1.32-.45-.32-.3-.48-.707-.48-1.22 0-.553.19-.977.57-1.27.386-.3.94-.45 1.66-.45h1.14v-.41a.627.627 0 00-.23-.51c-.147-.127-.347-.19-.6-.19a.992.992 0 00-.58.16.656.656 0 00-.28.44h-1.45c.06-.553.3-.99.72-1.31.426-.327.973-.49 1.64-.49.7 0 1.253.173 1.66.52.413.34.62.8.62 1.38V35h-1.45v-.9h-.24l.25-.35c0 .413-.15.743-.45.99-.294.24-.687.36-1.18.36zm.56-1.1c.293 0 .533-.077.72-.23a.768.768 0 00.29-.62v-.59h-1.11a.765.765 0 00-.55.2.654.654 0 00-.21.51.68.68 0 00.23.54c.153.127.363.19.63.19zm3.356 1.07v-1.35h.3a.522.522 0 00.43-.22c.113-.147.173-.34.18-.58l.06-3.42h4.16V35h-1.5v-4.1h-1.19l-.04 2.12a2.271 2.271 0 01-.27 1.08c-.167.307-.4.547-.7.72-.294.167-.637.25-1.03.25h-.4zm6.486-.07v-5.5h1.5v1.65h1.29c.693 0 1.233.173 1.62.52.393.34.59.813.59 1.42 0 .587-.2 1.053-.6 1.4-.394.34-.927.51-1.6.51h-2.8zm1.5-1.3h1.2c.253 0 .447-.053.58-.16a.56.56 0 00.21-.46c0-.2-.07-.353-.21-.46-.133-.113-.327-.17-.58-.17h-1.2v1.25zm4.456 1.3v-5.5h1.5v2.01h1.68V29.5h1.5V35h-1.5v-2.09h-1.68V35h-1.5zm5.736 0v-5.5h1.25v1.75h.3c.593 0 1.067.173 1.42.52.353.347.53.81.53 1.39 0 .553-.18 1-.54 1.34-.353.333-.823.5-1.41.5H79.9zm1.25-1.15h.3c.24 0 .423-.06.55-.18.133-.12.2-.293.2-.52 0-.24-.067-.423-.2-.55-.127-.133-.31-.2-.55-.2h-.3v1.45zm2.7 1.15v-5.5h1.25V35h-1.25zm4.656.1c-.487 0-.913-.09-1.28-.27a2.087 2.087 0 01-.84-.77 2.27 2.27 0 01-.29-1.16v-1.3c0-.44.097-.823.29-1.15a2 2 0 01.84-.77c.367-.187.793-.28 1.28-.28s.907.093 1.26.28c.36.18.637.437.83.77.2.327.3.71.3 1.15v1h-3.37v.3c0 .347.083.61.25.79.167.173.417.26.75.26.233 0 .42-.04.56-.12a.582.582 0 00.29-.33h1.47c-.12.48-.393.867-.82 1.16-.42.293-.927.44-1.52.44zm.96-3.27v-.25c0-.34-.08-.6-.24-.78-.153-.18-.393-.27-.72-.27-.327 0-.573.093-.74.28-.16.187-.24.45-.24.79v.15l2.04-.02-.1.1zm11.052 3.27c-.486 0-.913-.09-1.28-.27a2.073 2.073 0 01-.85-.77c-.2-.333-.3-.72-.3-1.16v-1.3c0-.447.1-.833.3-1.16.2-.327.484-.58.85-.76.367-.187.794-.28 1.28-.28.727 0 1.307.183 1.74.55.434.367.664.867.69 1.5h-1.5a.752.752 0 00-.28-.55c-.16-.133-.376-.2-.65-.2-.3 0-.53.077-.69.23-.16.153-.24.377-.24.67v1.3c0 .287.08.51.24.67.16.153.39.23.69.23.274 0 .49-.063.65-.19a.762.762 0 00.28-.56h1.5c-.026.633-.256 1.133-.69 1.5-.433.367-1.013.55-1.74.55zm5.996 0c-.486 0-.913-.09-1.28-.27a2.077 2.077 0 01-.85-.77c-.2-.333-.3-.72-.3-1.16v-1.3c0-.447.1-.833.3-1.16.2-.327.484-.58.85-.76.367-.187.794-.28 1.28-.28.727 0 1.307.183 1.74.55.434.367.664.867.69 1.5h-1.5a.752.752 0 00-.28-.55c-.16-.133-.376-.2-.65-.2-.3 0-.53.077-.69.23-.16.153-.24.377-.24.67v1.3c0 .287.08.51.24.67.16.153.39.23.69.23.274 0 .49-.063.65-.19a.762.762 0 00.28-.56h1.5c-.026.633-.256 1.133-.69 1.5-.433.367-1.013.55-1.74.55zm3.366-.1v-5.5h1.25v1.75h.3c.594 0 1.067.173 1.42.52.354.347.53.81.53 1.39 0 .553-.18 1-.54 1.34-.353.333-.823.5-1.41.5h-1.55zm1.25-1.15h.3c.24 0 .424-.06.55-.18.134-.12.2-.293.2-.52 0-.24-.066-.423-.2-.55-.126-.133-.31-.2-.55-.2h-.3v1.45zm2.7 1.15v-5.5h1.25V35h-1.25zm1.857.07v-1.35h.3a.523.523 0 00.43-.22c.113-.147.173-.34.18-.58l.06-3.42h4.16V35h-1.5v-4.1h-1.19l-.04 2.12a2.28 2.28 0 01-.27 1.08 1.82 1.82 0 01-.7.72c-.294.167-.637.25-1.03.25h-.4zm6.476-.07v-5.5h1.5v2.08h.74l1.15-2.08h1.67l-1.53 2.69 1.56 2.81h-1.7l-1.16-2.16h-.73V35h-1.5zm5.966 0v-5.5h1.32V32c0 .167-.01.377-.03.63-.02.247-.047.497-.08.75-.027.253-.057.477-.09.67l1.74-4.55h1.82V35h-1.32v-2.5c0-.173.01-.37.03-.59.02-.227.043-.453.07-.68.026-.227.053-.42.08-.58l-1.72 4.35h-1.82zM56.176 48v-5.5h1.32V45c0 .167-.01.377-.03.63-.02.247-.047.497-.08.75-.027.253-.057.477-.09.67l1.74-4.55h1.82V48h-1.32v-2.5c0-.173.01-.37.03-.59.02-.227.043-.453.07-.68.026-.227.053-.42.08-.58L57.996 48h-1.82zm5.546.07v-1.35h.3a.522.522 0 00.43-.22c.113-.147.173-.34.18-.58l.06-3.42h4.16V48h-1.5v-4.1h-1.19l-.04 2.12a2.271 2.271 0 01-.27 1.08c-.167.307-.4.547-.7.72-.294.167-.637.25-1.03.25h-.4zm6.446-.07v-5.5h1.32V45c0 .167-.01.377-.03.63-.02.247-.047.497-.08.75-.027.253-.057.477-.09.67l1.74-4.55h1.82V48h-1.32v-2.5c0-.173.01-.37.03-.59.02-.227.043-.453.07-.68.026-.227.053-.42.08-.58L69.988 48h-1.82zm12.022 0v-5.5h1.5v2.08h.74l1.15-2.08h1.67l-1.53 2.69L85.28 48h-1.7l-1.16-2.16h-.73V48h-1.5zm8.306.1c-.487 0-.91-.09-1.27-.27a2.087 2.087 0 01-.84-.77 2.27 2.27 0 01-.29-1.16v-1.3c0-.44.097-.823.29-1.15a2 2 0 01.84-.77c.36-.187.783-.28 1.27-.28.493 0 .917.093 1.27.28.36.18.637.437.83.77.2.327.3.71.3 1.15v1.3c0 .44-.1.827-.3 1.16-.193.327-.47.583-.83.77-.353.18-.777.27-1.27.27zm0-1.3c.293 0 .517-.077.67-.23.153-.16.23-.383.23-.67v-1.3c0-.293-.077-.517-.23-.67-.153-.153-.377-.23-.67-.23-.287 0-.51.077-.67.23-.153.153-.23.377-.23.67v1.3c0 .287.077.51.23.67.16.153.383.23.67.23zm3.216 2.6v-2.67h.31c.113-.113.23-.31.35-.59.127-.287.194-.633.2-1.04l.05-2.6h4.05v4.23h.6v2.67h-1.4V48h-2.76v1.4h-1.4zm1.8-2.67h1.76v-2.94h-1.27l-.03 1.3a3.139 3.139 0 01-.17 1.02c-.1.287-.197.493-.29.62zM97.888 48v-5.5h1.25v1.75h.3c.594 0 1.067.173 1.42.52.354.347.53.81.53 1.39 0 .553-.18 1-.54 1.34-.353.333-.823.5-1.41.5h-1.55zm1.25-1.15h.3c.24 0 .424-.06.55-.18.134-.12.2-.293.2-.52 0-.24-.066-.423-.2-.55-.126-.133-.31-.2-.55-.2h-.3v1.45zm2.7 1.15v-5.5h1.25V48h-1.25z" fill="#fff"/><defs><linearGradient id="paint0_linear_2021_55" x1="0" y1="90.013" x2="223.91" y2="90.013" gradientUnits="userSpaceOnUse"><stop stop-color="#F1FFF7"/><stop offset="1" stop-color="#546A65"/></linearGradient><linearGradient id="paint1_linear_2021_55" x1="11.785" y1="10.802" x2="188.944" y2="149.868" gradientUnits="userSpaceOnUse"><stop stop-color="#475E59" stop-opacity=".7"/><stop offset="1" stop-color="#fff" stop-opacity=".7"/></linearGradient><linearGradient id="paint2_linear_2021_55" x1="0" y1="90.013" x2="223.91" y2="90.013" gradientUnits="userSpaceOnUse"><stop stop-color="#F1FFF7"/><stop offset="1" stop-color="#546A65"/></linearGradient><linearGradient id="paint3_linear_2021_55" x1="11.785" y1="10.802" x2="188.944" y2="149.868" gradientUnits="userSpaceOnUse"><stop stop-color="#475E59" stop-opacity=".7"/><stop offset="1" stop-color="#fff" stop-opacity=".7"/></linearGradient><linearGradient id="paint4_linear_2021_55" x1="0" y1="74.157" x2="223.615" y2="74.157" gradientUnits="userSpaceOnUse"><stop stop-color="#F1FFF7"/><stop offset="1" stop-color="#546A65"/></linearGradient><linearGradient id="paint5_linear_2021_55" x1="11.769" y1="8.899" x2="161.835" y2="151.696" gradientUnits="userSpaceOnUse"><stop stop-color="#475E59" stop-opacity=".7"/><stop offset="1" stop-color="#fff" stop-opacity=".7"/></linearGradient><filter id="filter0_f_2021_55" x="-18.273" y="161.227" width="94.046" height="79.727" filterUnits="userSpaceOnUse" color-interpolation-filters="sRGB"><feFlood flood-opacity="0" result="BackgroundImageFix"/><feBlend in="SourceGraphic" in2="BackgroundImageFix" result="shape"/><feGaussianBlur stdDeviation="2" result="effect1_foregroundBlur_2021_55"/></filter></defs></svg>