<svg width="413" height="271" fill="none" xmlns="http://www.w3.org/2000/svg"><path d="M62.935 96v-7.3h1.23V95h.85v-6.3h1.04V95h.85v-6.3h1.23V96h-5.2zm6.256 0v-5.5h1.32V93c0 .167-.01.377-.03.63-.02.247-.046.497-.08.75a9.533 9.533 0 01-.09.67l1.74-4.55h1.82V96h-1.32v-2.5c0-.173.01-.37.03-.59a26.1 26.1 0 01.07-.68c.027-.227.054-.42.08-.58L71.011 96h-1.82zm7.726 1.8V96c-.633 0-1.133-.183-1.5-.55-.36-.373-.54-.88-.54-1.52v-1.37c0-.633.184-1.133.55-1.5.367-.373.864-.56 1.49-.56v-1.8h1.22v1.8c.634 0 1.13.187 1.49.56.367.367.55.867.55 1.5v1.37c0 .64-.183 1.147-.55 1.52-.36.367-.856.55-1.49.55v1.8h-1.22zm.07-2.98v-3.15c-.26 0-.466.08-.62.24-.146.153-.22.37-.22.65v1.37c0 .28.074.5.22.66.154.153.36.23.62.23zm1.08 0c.26 0 .464-.077.61-.23.154-.16.23-.38.23-.66v-1.37c0-.28-.076-.497-.23-.65-.146-.16-.35-.24-.61-.24v3.15zm3.116 2.98v-7.3h1.45v1.05h.35l-.35.35c0-.473.13-.84.39-1.1.26-.267.617-.4 1.07-.4.554 0 .997.197 1.33.59.334.387.5.907.5 1.56v1.4c0 .433-.076.813-.23 1.14-.146.32-.356.57-.63.75-.273.173-.596.26-.97.26-.453 0-.81-.13-1.07-.39-.26-.267-.39-.637-.39-1.11l.35.35h-.35l.05 1.35v1.5h-1.5zm2.37-3c.28 0 .494-.077.64-.23.154-.16.23-.383.23-.67v-1.3c0-.293-.076-.517-.23-.67-.146-.153-.36-.23-.64-.23-.273 0-.486.08-.64.24-.153.153-.23.373-.23.66v1.3c0 .287.077.51.23.67.154.153.367.23.64.23zm5.966 1.3c-.486 0-.91-.09-1.27-.27a2.087 2.087 0 01-.84-.77 2.27 2.27 0 01-.29-1.16v-1.3c0-.44.097-.823.29-1.15a2 2 0 01.84-.77c.36-.187.784-.28 1.27-.28.494 0 .917.093 1.27.28.36.18.637.437.83.77.2.327.3.71.3 1.15v1.3c0 .44-.1.827-.3 1.16-.193.327-.47.583-.83.77-.353.18-.776.27-1.27.27zm0-1.3c.294 0 .517-.077.67-.23.154-.16.23-.383.23-.67v-1.3c0-.293-.076-.517-.23-.67-.153-.153-.376-.23-.67-.23-.286 0-.51.077-.67.23-.153.153-.23.377-.23.67v1.3c0 .287.077.51.23.67.16.153.384.23.67.23zm3.647 1.2v-5.5h2.49c.673 0 1.206.137 1.6.41.4.267.6.63.6 1.09 0 .367-.15.663-.45.89-.3.22-.697.33-1.19.33v-.1c.54 0 .97.12 1.29.36.326.24.49.557.49.95 0 .487-.2.87-.6 1.15-.394.28-.93.42-1.61.42h-2.62zm1.47-1.06h1.08c.246 0 .443-.057.59-.17a.56.56 0 00.23-.46.58.58 0 00-.23-.48c-.147-.12-.344-.18-.59-.18h-1.08v1.29zm0-2.17h1.03c.226 0 .406-.053.54-.16a.55.55 0 00.2-.44.561.561 0 00-.2-.45c-.134-.113-.314-.17-.54-.17h-1.03v1.22zm6.166 3.33c-.554 0-.994-.15-1.32-.45-.32-.3-.48-.707-.48-1.22 0-.553.19-.977.57-1.27.386-.3.94-.45 1.66-.45h1.14v-.41a.629.629 0 00-.23-.51c-.147-.127-.347-.19-.6-.19a.99.99 0 00-.58.16.652.652 0 00-.28.44h-1.45c.06-.553.3-.99.72-1.31.426-.327.973-.49 1.64-.49.7 0 1.253.173 1.66.52.413.34.62.8.62 1.38V96h-1.45v-.9h-.24l.25-.35c0 .413-.15.743-.45.99-.294.24-.687.36-1.18.36zm.56-1.1c.293 0 .533-.077.72-.23a.769.769 0 00.29-.62v-.59h-1.11a.764.764 0 00-.55.2.654.654 0 00-.21.51c0 .227.076.407.23.54.153.127.363.19.63.19zm3.806 1v-5.5h1.5v2.01h1.68V90.5h1.5V96h-1.5v-2.09h-1.68V96h-1.5zm5.996 0v-5.5h1.32V93c0 .167-.01.377-.03.63-.02.247-.047.497-.08.75-.027.253-.057.477-.09.67l1.74-4.55h1.82V96h-1.32v-2.5c0-.173.01-.37.03-.59.02-.227.043-.453.07-.68.027-.227.053-.42.08-.58l-1.72 4.35h-1.82zm8.346.1c-.487 0-.913-.09-1.28-.27a2.087 2.087 0 01-.84-.77 2.273 2.273 0 01-.29-1.16v-1.3c0-.44.097-.823.29-1.15a2 2 0 01.84-.77c.367-.187.793-.28 1.28-.28s.907.093 1.26.28c.36.18.637.437.83.77.2.327.3.71.3 1.15v1h-3.37v.3c0 .347.083.61.25.79.167.173.417.26.75.26.233 0 .42-.04.56-.12a.582.582 0 00.29-.33h1.47c-.12.48-.393.867-.82 1.16-.42.293-.927.44-1.52.44zm.96-3.27v-.25c0-.34-.08-.6-.24-.78-.153-.18-.393-.27-.72-.27-.327 0-.573.093-.74.28-.16.187-.24.45-.24.79v.15l2.04-.02-.1.1zm8.242 4.57v-2.67h.31c.114-.113.23-.31.35-.59.127-.287.194-.633.2-1.04l.05-2.6h4.05v4.23h.6v2.67h-1.4V96h-2.76v1.4h-1.4zm1.8-2.67h1.76v-2.94h-1.27l-.03 1.3a3.112 3.112 0 01-.17 1.02c-.1.287-.196.493-.29.62zm6.266 1.37c-.553 0-.993-.15-1.32-.45-.32-.3-.48-.707-.48-1.22 0-.553.19-.977.57-1.27.387-.3.94-.45 1.66-.45h1.14v-.41a.626.626 0 00-.23-.51c-.146-.127-.346-.19-.6-.19a.994.994 0 00-.58.16.66.66 0 00-.28.44h-1.45c.06-.553.3-.99.72-1.31.427-.327.974-.49 1.64-.49.7 0 1.254.173 1.66.52.414.34.62.8.62 1.38V96h-1.45v-.9h-.24l.25-.35c0 .413-.15.743-.45.99-.293.24-.686.36-1.18.36zm.56-1.1c.294 0 .534-.077.72-.23a.766.766 0 00.29-.62v-.59h-1.11a.766.766 0 00-.55.2.654.654 0 00-.21.51.68.68 0 00.23.54c.154.127.364.19.63.19zm3.806 1v-5.5h1.5v2.01h1.68V90.5h1.5V96h-1.5v-2.09h-1.68V96h-1.5zm5.996 0v-5.5h1.5v2.01h1.68V90.5h1.5V96h-1.5v-2.09h-1.68V96h-1.5zm5.737 0v-5.5h1.25v1.75h.3c.593 0 1.066.173 1.42.52.353.347.53.81.53 1.39 0 .553-.18 1-.54 1.34-.354.333-.824.5-1.41.5h-1.55zm1.25-1.15h.3c.24 0 .423-.06.55-.18.133-.12.2-.293.2-.52 0-.24-.067-.423-.2-.55-.127-.133-.31-.2-.55-.2h-.3v1.45zm2.7 1.15v-5.5h1.25V96h-1.25zm1.906 0l1.9-2.85-1.77-2.65h1.67l.68 1.1c.053.087.103.183.15.29.046.107.083.193.11.26.026-.067.063-.153.11-.26.053-.107.103-.203.15-.29l.68-1.1h1.67l-1.76 2.65 1.89 2.85h-1.67l-.8-1.3a8.892 8.892 0 01-.16-.29 6.975 6.975 0 01-.11-.26c-.027.067-.064.153-.11.26a4.16 4.16 0 01-.15.29l-.81 1.3h-1.67zm8.736-3.8c-.3 0-.544-.083-.73-.25a.845.845 0 01-.27-.65c0-.273.09-.49.27-.65.186-.167.43-.25.73-.25s.54.083.72.25c.186.16.28.377.28.65a.833.833 0 01-.28.65c-.18.167-.42.25-.72.25zm0 3.9c-.3 0-.544-.083-.73-.25a.845.845 0 01-.27-.65c0-.273.09-.49.27-.65.186-.167.43-.25.73-.25s.54.083.72.25c.186.16.28.377.28.65a.833.833 0 01-.28.65c-.18.167-.42.25-.72.25zm94.31 103.9l1.79-7.3h1.9l1.81 7.3h-1.53l-.35-1.65h-1.74l-.35 1.65h-1.53zm2.13-2.85h1.23l-.35-1.76a21.617 21.617 0 00-.15-.75c-.046-.253-.083-.45-.11-.59l-.11.58c-.04.247-.086.497-.14.75l-.37 1.77zm5.186 4.65l.75-2.07-2.06-5.23h1.63l.83 2.4c.06.18.12.4.18.66.067.253.117.46.15.62.034-.16.08-.367.14-.62.067-.26.13-.48.19-.66l.8-2.4h1.56l-2.6 7.3h-1.57zm6.676-1.8v-4.1h-1.8v-1.4h5.1v1.4h-1.8v4.1h-1.5zm6.757.1c-.487 0-.914-.09-1.28-.27a2.087 2.087 0 01-.84-.77 2.263 2.263 0 01-.29-1.16v-1.3c0-.44.096-.823.29-1.15a2 2 0 01.84-.77c.366-.187.793-.28 1.28-.28.486 0 .906.093 1.26.28.36.18.636.437.83.77.2.327.3.71.3 1.15v1h-3.37v.3c0 .347.083.61.25.79.166.173.416.26.75.26.233 0 .42-.04.56-.12a.585.585 0 00.29-.33h1.47c-.12.48-.394.867-.82 1.16-.42.293-.927.44-1.52.44zm.96-3.27v-.25c0-.34-.08-.6-.24-.78-.154-.18-.394-.27-.72-.27-.327 0-.574.093-.74.28-.16.187-.24.45-.24.79v.15l2.04-.02-.1.1zm2.686 3.17v-5.5h1.5v2.01h1.68v-2.01h1.5v5.5h-1.5v-2.09h-1.68V200h-1.5zm7.586 0v-4.1h-1.8v-1.4h5.1v1.4h-1.8v4.1h-1.5zm4.406 0v-5.5h1.32v2.5c0 .167-.01.377-.03.63-.02.247-.047.497-.08.75-.027.253-.057.477-.09.67l1.74-4.55h1.82v5.5h-1.32v-2.5c0-.173.01-.37.03-.59.02-.227.043-.453.07-.68.027-.227.053-.42.08-.58l-1.72 4.35h-1.82zm7.726 1.8V200c-.633 0-1.133-.183-1.5-.55-.36-.373-.54-.88-.54-1.52v-1.37c0-.633.183-1.133.55-1.5.367-.373.863-.56 1.49-.56v-1.8h1.22v1.8c.633 0 1.13.187 1.49.56.367.367.55.867.55 1.5v1.37c0 .64-.183 1.147-.55 1.52-.36.367-.857.55-1.49.55v1.8h-1.22zm.07-2.98v-3.15c-.26 0-.467.08-.62.24-.147.153-.22.37-.22.65v1.37c0 .28.073.5.22.66.153.153.36.23.62.23zm1.08 0c.26 0 .463-.077.61-.23.153-.16.23-.38.23-.66v-1.37c0-.28-.077-.497-.23-.65-.147-.16-.35-.24-.61-.24v3.15zm3.116 1.18v-5.5h1.32v2.5c0 .167-.01.377-.03.63-.02.247-.047.497-.08.75-.027.253-.057.477-.09.67l1.74-4.55h1.82v5.5h-1.32v-2.5c0-.173.01-.37.03-.59.02-.227.043-.453.07-.68.027-.227.053-.42.08-.58l-1.72 4.35h-1.82zm6.026 0v-5.5h1.5v2.08h.74l1.15-2.08h1.67l-1.53 2.69 1.56 2.81h-1.7l-1.16-2.16h-.73V200h-1.5zm7.596.1c-.553 0-.993-.15-1.32-.45-.32-.3-.48-.707-.48-1.22 0-.553.19-.977.57-1.27.387-.3.94-.45 1.66-.45h1.14v-.41a.626.626 0 00-.23-.51c-.146-.127-.346-.19-.6-.19a.992.992 0 00-.58.16.66.66 0 00-.28.44h-1.45c.06-.553.3-.99.72-1.31.427-.327.974-.49 1.64-.49.7 0 1.254.173 1.66.52.414.34.62.8.62 1.38v3.7h-1.45v-.9h-.24l.25-.35c0 .413-.15.743-.45.99-.293.24-.686.36-1.18.36zm.56-1.1c.294 0 .534-.077.72-.23a.766.766 0 00.29-.62v-.59h-1.11a.767.767 0 00-.55.2.655.655 0 00-.21.51.68.68 0 00.23.54c.154.127.364.19.63.19zm7.526 2.4V200h-3.72v-5.5h1.5v4.1h1.37v-4.1h1.5v4.1h.75v2.8h-1.4zm2.276-1.4v-5.5h1.32v2.5c0 .167-.01.377-.03.63-.02.247-.046.497-.08.75a9.533 9.533 0 01-.09.67l1.74-4.55h1.82v5.5h-1.32v-2.5c0-.173.01-.37.03-.59a26.1 26.1 0 01.07-.68c.027-.227.054-.42.08-.58l-1.72 4.35h-1.82zm5.837 0l1.2-1.93a1.717 1.717 0 01-.83-.63 1.72 1.72 0 01-.3-1.01c0-.607.203-1.08.61-1.42.406-.34.97-.51 1.69-.51h2.47v5.5h-1.49v-1.74h-.66l-1 1.74h-1.69zm2.46-2.88h.9v-1.43h-.9c-.28 0-.5.063-.66.19a.638.638 0 00-.24.53c0 .227.076.403.23.53.16.12.383.18.67.18zM250.197 213v-5.5h1.32v2.5c0 .167-.01.377-.03.63-.02.247-.047.497-.08.75-.027.253-.057.477-.09.67l1.74-4.55h1.82v5.5h-1.32v-2.5c0-.173.01-.37.03-.59.02-.227.043-.453.07-.68.027-.227.053-.42.08-.58l-1.72 4.35h-1.82zm12.022 0v-5.5h1.5v2.08h.74l1.15-2.08h1.67l-1.53 2.69 1.56 2.81h-1.7l-1.16-2.16h-.73V213h-1.5zm8.306.1c-.486 0-.91-.09-1.27-.27a2.087 2.087 0 01-.84-.77 2.273 2.273 0 01-.29-1.16v-1.3c0-.44.097-.823.29-1.15a2 2 0 01.84-.77c.36-.187.784-.28 1.27-.28.494 0 .917.093 1.27.28.36.18.637.437.83.77.2.327.3.71.3 1.15v1.3c0 .44-.1.827-.3 1.16-.193.327-.47.583-.83.77-.353.18-.776.27-1.27.27zm0-1.3c.294 0 .517-.077.67-.23.154-.16.23-.383.23-.67v-1.3c0-.293-.076-.517-.23-.67-.153-.153-.376-.23-.67-.23-.286 0-.51.077-.67.23-.153.153-.23.377-.23.67v1.3c0 .287.077.51.23.67.16.153.384.23.67.23zm3.656 1.2v-5.5h1.5v2.01h1.68v-2.01h1.5v5.5h-1.5v-2.09h-1.68V213h-1.5zm7.587 0v-4.1h-1.8v-1.4h5.1v1.4h-1.8v4.1h-1.5zm4.406 1.8v-7.3h1.45v1.05h.35l-.35.35c0-.473.13-.84.39-1.1.26-.267.616-.4 1.07-.4.553 0 .996.197 1.33.59.333.387.5.907.5 1.56v1.4c0 .433-.077.813-.23 1.14-.147.32-.357.57-.63.75-.274.173-.597.26-.97.26-.454 0-.81-.13-1.07-.39-.26-.267-.39-.637-.39-1.11l.35.35h-.35l.05 1.35v1.5h-1.5zm2.37-3c.28 0 .493-.077.64-.23.153-.16.23-.383.23-.67v-1.3c0-.293-.077-.517-.23-.67-.147-.153-.36-.23-.64-.23-.274 0-.487.08-.64.24-.154.153-.23.373-.23.66v1.3c0 .287.076.51.23.67.153.153.366.23.64.23zm5.966 1.3c-.487 0-.91-.09-1.27-.27a2.087 2.087 0 01-.84-.77 2.263 2.263 0 01-.29-1.16v-1.3c0-.44.096-.823.29-1.15a2 2 0 01.84-.77c.36-.187.783-.28 1.27-.28.493 0 .916.093 1.27.28.36.18.636.437.83.77.2.327.3.71.3 1.15v1.3c0 .44-.1.827-.3 1.16-.194.327-.47.583-.83.77-.354.18-.777.27-1.27.27zm0-1.3c.293 0 .516-.077.67-.23.153-.16.23-.383.23-.67v-1.3c0-.293-.077-.517-.23-.67-.154-.153-.377-.23-.67-.23-.287 0-.51.077-.67.23-.154.153-.23.377-.23.67v1.3c0 .287.076.51.23.67.16.153.383.23.67.23zm3.206 1.27v-1.35h.3a.521.521 0 00.43-.22c.113-.147.173-.34.18-.58l.06-3.42h4.16v5.5h-1.5v-4.1h-1.19l-.04 2.12a2.279 2.279 0 01-.27 1.08c-.167.307-.4.547-.7.72-.293.167-.637.25-1.03.25h-.4zm6.486-.07v-5.5h1.5v1.65h1.29c.693 0 1.233.173 1.62.52.393.34.59.813.59 1.42 0 .587-.2 1.053-.6 1.4-.393.34-.927.51-1.6.51h-2.8zm1.5-1.3h1.2c.253 0 .447-.053.58-.16a.56.56 0 00.21-.46c0-.2-.07-.353-.21-.46-.133-.113-.327-.17-.58-.17h-1.2v1.25zm10.012 2.7v-2.67h.31c.113-.113.23-.31.35-.59.127-.287.193-.633.2-1.04l.05-2.6h4.05v4.23h.6v2.67h-1.4V213h-2.76v1.4h-1.4zm1.8-2.67h1.76v-2.94h-1.27l-.03 1.3a3.136 3.136 0 01-.17 1.02c-.1.287-.197.493-.29.62zm6.976 1.37c-.486 0-.91-.09-1.27-.27a2.087 2.087 0 01-.84-.77 2.273 2.273 0 01-.29-1.16v-1.3c0-.44.097-.823.29-1.15a2 2 0 01.84-.77c.36-.187.784-.28 1.27-.28.494 0 .917.093 1.27.28.36.18.637.437.83.77.2.327.3.71.3 1.15v1.3c0 .44-.1.827-.3 1.16-.193.327-.47.583-.83.77-.353.18-.776.27-1.27.27zm0-1.3c.294 0 .517-.077.67-.23.154-.16.23-.383.23-.67v-1.3c0-.293-.076-.517-.23-.67-.153-.153-.376-.23-.67-.23-.286 0-.51.077-.67.23-.153.153-.23.377-.23.67v1.3c0 .287.077.51.23.67.16.153.384.23.67.23zm6.026 1.3c-.486 0-.913-.09-1.28-.27a2.077 2.077 0 01-.85-.77c-.2-.333-.3-.72-.3-1.16v-1.3c0-.447.1-.833.3-1.16.2-.327.484-.58.85-.76.367-.187.794-.28 1.28-.28.727 0 1.307.183 1.74.55.434.367.664.867.69 1.5h-1.5a.752.752 0 00-.28-.55c-.16-.133-.376-.2-.65-.2-.3 0-.53.077-.69.23-.16.153-.24.377-.24.67v1.3c0 .287.08.51.24.67.16.153.39.23.69.23.274 0 .49-.063.65-.19a.761.761 0 00.28-.56h1.5c-.026.633-.256 1.133-.69 1.5-.433.367-1.013.55-1.74.55zm5.216-.1v-4.1h-1.8v-1.4h5.1v1.4h-1.8v4.1h-1.5zm5.317 1.8l.75-2.07-2.06-5.23h1.63l.83 2.4c.06.18.12.4.18.66.066.253.116.46.15.62.033-.16.08-.367.14-.62.066-.26.13-.48.19-.66l.8-2.4h1.56l-2.6 7.3h-1.57zm5.086-1.8v-5.5h4.68v5.5h-1.5v-4.1h-1.68v4.1h-1.5zm7.626.1c-.554 0-.994-.15-1.32-.45-.32-.3-.48-.707-.48-1.22 0-.553.19-.977.57-1.27.386-.3.94-.45 1.66-.45h1.14v-.41a.63.63 0 00-.23-.51c-.147-.127-.347-.19-.6-.19a.988.988 0 00-.58.16.652.652 0 00-.28.44h-1.45c.06-.553.3-.99.72-1.31.426-.327.973-.49 1.64-.49.7 0 1.253.173 1.66.52.413.34.62.8.62 1.38v3.7h-1.45v-.9h-.24l.25-.35c0 .413-.15.743-.45.99-.294.24-.687.36-1.18.36zm.56-1.1c.293 0 .533-.077.72-.23a.77.77 0 00.29-.62v-.59h-1.11a.765.765 0 00-.55.2.655.655 0 00-.21.51c0 .227.076.407.23.54.153.127.363.19.63.19zm6.146-2.8c-.3 0-.544-.083-.73-.25a.845.845 0 01-.27-.65c0-.273.09-.49.27-.65.186-.167.43-.25.73-.25s.54.083.72.25c.186.16.28.377.28.65a.833.833 0 01-.28.65c-.18.167-.42.25-.72.25zm0 3.9c-.3 0-.544-.083-.73-.25a.845.845 0 01-.27-.65c0-.273.09-.49.27-.65.186-.167.43-.25.73-.25s.54.083.72.25c.186.16.28.377.28.65a.833.833 0 01-.28.65c-.18.167-.42.25-.72.25z" fill="#fff"/><path d="M66.535 118.1c-.426 0-.796-.083-1.11-.25a1.734 1.734 0 01-.71-.71c-.166-.313-.25-.683-.25-1.11v-3.36c0-.427.084-.793.25-1.1.167-.313.403-.553.71-.72.314-.167.684-.25 1.11-.25.427 0 .794.083 1.1.25.313.167.553.407.72.72.167.307.25.673.25 1.1v3.36c0 .427-.083.797-.25 1.11a1.72 1.72 0 01-.72.71c-.306.167-.673.25-1.1.25zm0-.71c.413 0 .73-.117.95-.35.22-.24.33-.577.33-1.01v-3.36c0-.433-.113-.767-.34-1-.22-.24-.533-.36-.94-.36-.406 0-.723.12-.95.36-.22.233-.33.567-.33 1v3.36c0 .433.11.77.33 1.01.227.233.544.35.95.35zm5.996.71c-.64 0-1.143-.19-1.51-.57-.366-.38-.55-.903-.55-1.57v-2.56c0-.867.217-1.533.65-2 .434-.467 1.054-.7 1.86-.7h1.36v.79h-1.36c-.56 0-.986.167-1.28.5-.293.327-.44.797-.44 1.41v.69h.14l-.14.24c.007-.4.14-.713.4-.94.267-.227.63-.34 1.09-.34.587 0 1.04.187 1.36.56.32.367.48.88.48 1.54v.81c0 .447-.083.83-.25 1.15-.16.32-.393.567-.7.74-.306.167-.676.25-1.11.25zm0-.71c.407 0 .72-.123.94-.37.22-.247.33-.6.33-1.06v-.81c0-.453-.11-.807-.33-1.06-.22-.253-.533-.38-.94-.38-.406 0-.72.127-.94.38-.22.253-.33.607-.33 1.06v.81c0 .46.11.813.33 1.06.227.247.54.37.94.37zm5.996.71c-.426 0-.796-.083-1.11-.25a1.832 1.832 0 01-.73-.73 2.215 2.215 0 01-.26-1.09v-1.56c0-.42.087-.783.26-1.09.174-.313.417-.553.73-.72.314-.173.684-.26 1.11-.26.427 0 .797.087 1.11.26.314.167.557.407.73.72.174.307.26.67.26 1.09v.97h-3.42v.59c0 .447.114.793.34 1.04.234.24.56.36.98.36.354 0 .64-.07.86-.21a.926.926 0 00.43-.61h.79c-.073.46-.296.823-.67 1.09-.373.267-.843.4-1.41.4zm1.32-3.19v-.44c0-.447-.113-.79-.34-1.03-.226-.247-.553-.37-.98-.37-.42 0-.746.123-.98.37-.226.24-.34.583-.34 1.03v.35h2.72l-.08.09zm4.686 3.19c-.426 0-.8-.083-1.12-.25a1.833 1.833 0 01-.75-.71c-.173-.313-.26-.683-.26-1.11v-1.56c0-.427.087-.793.26-1.1.18-.313.43-.553.75-.72.32-.167.694-.25 1.12-.25.627 0 1.13.17 1.51.51.38.34.577.803.59 1.39h-.79c-.013-.38-.136-.673-.37-.88-.226-.207-.54-.31-.94-.31-.406 0-.73.12-.97.36-.24.233-.36.567-.36 1v1.56c0 .427.12.76.36 1s.564.36.97.36c.4 0 .714-.103.94-.31.234-.213.357-.507.37-.88h.79c-.013.587-.21 1.05-.59 1.39-.38.34-.883.51-1.51.51zm3.966-.1v-5.5h4.04v5.5h-.8v-4.78H89.3V118h-.8zm8.017.1c-.427 0-.797-.083-1.11-.25a1.832 1.832 0 01-.73-.73 2.215 2.215 0 01-.26-1.09v-1.56c0-.42.086-.783.26-1.09.173-.313.416-.553.73-.72.313-.173.683-.26 1.11-.26.426 0 .796.087 1.11.26.313.167.556.407.73.72.173.307.26.67.26 1.09v.97h-3.42v.59c0 .447.113.793.34 1.04.233.24.56.36.98.36.353 0 .64-.07.86-.21a.926.926 0 00.43-.61h.79a1.6 1.6 0 01-.67 1.09c-.374.267-.844.4-1.41.4zm1.32-3.19v-.44c0-.447-.114-.79-.34-1.03-.227-.247-.554-.37-.98-.37-.42 0-.747.123-.98.37-.227.24-.34.583-.34 1.03v.35h2.72l-.08.09zm5.846 3.09v-2.03a4.412 4.412 0 01-.5.08c-.227.02-.48.03-.76.03-.66.007-1.174-.157-1.54-.49-.36-.333-.54-.803-.54-1.41v-1.68h.79v1.68c0 .373.113.663.34.87.233.207.563.31.99.31.306 0 .566-.01.78-.03a4.5 4.5 0 00.44-.07v-2.76h.79v5.5h-.79zm2.806 0v-5.5h.77v3.13c0 .187-.007.387-.02.6a16.591 16.591 0 01-.07 1.06l2.33-4.79h1.03v5.5h-.77v-3.13c0-.193.003-.393.01-.6.013-.207.026-.403.04-.59.02-.193.033-.353.04-.48l-2.34 4.8h-1.02zm5.996 0v-5.5h2.36c.547 0 .977.13 1.29.39.313.253.47.607.47 1.06 0 .38-.13.687-.39.92-.253.227-.593.34-1.02.34v-.07c.46 0 .83.12 1.11.36.28.233.42.547.42.94 0 .487-.167.87-.5 1.15-.327.273-.78.41-1.36.41h-2.38zm.78-.7h1.6c.327 0 .587-.077.78-.23a.79.79 0 00.29-.64c0-.28-.097-.497-.29-.65-.193-.16-.453-.24-.78-.24h-1.6v1.76zm0-2.45h1.58c.293 0 .527-.073.7-.22a.733.733 0 00.27-.6.733.733 0 00-.27-.6c-.173-.153-.407-.23-.7-.23h-1.58v1.65zm6.806 3.25c-.58 0-1.037-.147-1.37-.44-.333-.3-.5-.703-.5-1.21 0-.5.163-.893.49-1.18.327-.293.767-.44 1.32-.44h1.75v-.58c0-.367-.107-.65-.32-.85-.213-.2-.517-.3-.91-.3-.347 0-.637.077-.87.23a.85.85 0 00-.39.62h-.8c.067-.473.287-.85.66-1.13.38-.28.853-.42 1.42-.42.613 0 1.1.167 1.46.5.36.327.54.77.54 1.33V118h-.78v-1.07h-.13l.15-.16c0 .407-.157.73-.47.97-.313.24-.73.36-1.25.36zm.19-.64c.44 0 .8-.11 1.08-.33.28-.22.42-.507.42-.86v-.83h-1.74c-.313 0-.563.087-.75.26-.187.173-.28.41-.28.71 0 .32.113.577.34.77.227.187.537.28.93.28zm6.236.64c-.427 0-.797-.083-1.11-.25a1.831 1.831 0 01-.73-.73 2.219 2.219 0 01-.26-1.09v-1.56c0-.42.087-.783.26-1.09a1.77 1.77 0 01.73-.72c.313-.173.683-.26 1.11-.26.427 0 .797.087 1.11.26.313.167.557.407.73.72.173.307.26.67.26 1.09v.97h-3.42v.59c0 .447.113.793.34 1.04.233.24.56.36.98.36.353 0 .64-.07.86-.21a.925.925 0 00.43-.61h.79c-.073.46-.297.823-.67 1.09-.373.267-.843.4-1.41.4zm1.32-3.19v-.44c0-.447-.113-.79-.34-1.03-.227-.247-.553-.37-.98-.37-.42 0-.747.123-.98.37-.227.24-.34.583-.34 1.03v.35h2.72l-.08.09zm2.476 3.09v-5.5h1.1l.8 2.24a14.54 14.54 0 01.32 1.06c.034-.113.077-.27.13-.47.06-.2.124-.4.19-.6l.77-2.23h1.09v5.5h-.77v-1.32c0-.287.004-.593.01-.92l.02-.98c.007-.327.017-.633.03-.92.014-.293.024-.55.03-.77l-1.09 3.26h-.84l-1.09-3.24c.014.267.024.603.03 1.01.007.4.014.823.02 1.27.014.447.02.877.02 1.29V118h-.77zm13.932.08c-.573 0-1.036-.123-1.39-.37a1.493 1.493 0 01-.64-1h.83c.054.193.184.353.39.48.214.12.484.18.81.18h.49c.34 0 .607-.083.8-.25.2-.173.3-.39.3-.65a.883.883 0 00-.28-.68c-.186-.173-.453-.26-.8-.26h-1.23v-.69h1.21c.314 0 .554-.08.72-.24a.804.804 0 00.26-.62.827.827 0 00-.12-.45.754.754 0 00-.35-.29 1.218 1.218 0 00-.53-.11h-.52c-.3 0-.546.067-.74.2a.795.795 0 00-.36.49h-.83c.067-.413.27-.75.61-1.01.347-.26.787-.39 1.32-.39h.52c.374 0 .697.063.97.19.274.127.484.303.63.53.154.227.23.493.23.8 0 .333-.103.61-.31.83-.2.213-.483.333-.85.36v.04c.44.027.764.157.97.39.207.227.31.54.31.94 0 .473-.176.857-.53 1.15-.346.287-.813.43-1.4.43h-.49zm5.826.02c-.58 0-1.036-.147-1.37-.44-.333-.3-.5-.703-.5-1.21 0-.5.164-.893.49-1.18.327-.293.767-.44 1.32-.44h1.75v-.58c0-.367-.106-.65-.32-.85-.213-.2-.516-.3-.91-.3-.346 0-.636.077-.87.23a.856.856 0 00-.39.62h-.8c.067-.473.287-.85.66-1.13.38-.28.854-.42 1.42-.42.614 0 1.1.167 1.46.5.36.327.54.77.54 1.33V118h-.78v-1.07h-.13l.15-.16c0 .407-.156.73-.47.97-.313.24-.73.36-1.25.36zm.19-.64c.44 0 .8-.11 1.08-.33.28-.22.42-.507.42-.86v-.83H150c-.313 0-.563.087-.75.26-.186.173-.28.41-.28.71 0 .32.114.577.34.77.227.187.537.28.93.28zm8.237 1.94V118h-4.33v-5.5h.72v4.83h1.25v-4.83h.64v4.83h1.25v-4.83h.72v4.83h.47v2.07h-.72zm1.976-1.4v-5.5h.77v3.13c0 .187-.007.387-.02.6a16.591 16.591 0 01-.07 1.06l2.33-4.79h1.03v5.5h-.77v-3.13c0-.193.003-.393.01-.6.013-.207.026-.403.04-.59.02-.193.033-.353.04-.48l-2.34 4.8h-1.02zm7.616 0v-4.79h-2v-.71h4.8v.71h-2V118h-.8zm5.236 1.8l.81-2.15-2.04-5.15h.88l1.3 3.43c.053.133.103.283.15.45.053.16.093.293.12.4.033-.107.073-.243.12-.41.047-.167.093-.317.14-.45l1.22-3.42h.85l-2.71 7.3h-.84zM46.527 131v-5.5h.77v3.13c0 .187-.007.387-.02.6a15.285 15.285 0 01-.07 1.06l2.33-4.79h1.03v5.5h-.77v-3.13c0-.193.003-.393.01-.6.013-.207.026-.403.04-.59.02-.193.033-.353.04-.48l-2.34 4.8h-1.02zm5.996 0v-5.5h.8v2.34h2.44v-2.34h.8v5.5h-.8v-2.44h-2.44V131h-.8zm7.656 1.8V131c-.64 0-1.143-.18-1.51-.54-.367-.36-.55-.853-.55-1.48v-1.48c0-.62.183-1.107.55-1.46.373-.36.877-.54 1.51-.54v-1.8h.72v1.8c.64 0 1.143.18 1.51.54.367.353.55.84.55 1.46v1.48c0 .627-.183 1.12-.55 1.48-.367.36-.87.54-1.51.54v1.8h-.72zm.02-2.44v-4.22c-.42 0-.75.12-.99.36-.233.233-.35.567-.35 1v1.48c0 .433.117.773.35 1.02.24.24.57.36.99.36zm.68 0c.427 0 .757-.12.99-.36.233-.247.35-.587.35-1.02v-1.48c0-.433-.117-.767-.35-1-.233-.24-.563-.36-.99-.36v4.22zm5.656.73c-.426 0-.796-.083-1.11-.25a1.77 1.77 0 01-.73-.72c-.173-.313-.26-.683-.26-1.11v-1.52c0-.433.087-.803.26-1.11a1.77 1.77 0 01.73-.72c.314-.167.684-.25 1.11-.25.427 0 .797.083 1.11.25.314.167.557.407.73.72.174.307.26.673.26 1.1v1.53c0 .427-.087.797-.26 1.11a1.771 1.771 0 01-.73.72c-.313.167-.683.25-1.11.25zm0-.71c.413 0 .734-.117.96-.35.227-.233.34-.573.34-1.02v-1.52c0-.447-.116-.787-.35-1.02-.227-.233-.543-.35-.95-.35-.406 0-.727.117-.96.35-.227.233-.34.573-.34 1.02v1.52c0 .447.114.787.34 1.02.233.233.553.35.96.35zm3.966 2.42v-7.3h.79v.97h.21l-.24.33c0-.433.14-.773.42-1.02.287-.253.664-.38 1.13-.38.554 0 .994.183 1.32.55.334.36.5.853.5 1.48v1.63c0 .42-.076.783-.23 1.09-.153.3-.366.533-.64.7-.266.167-.583.25-.95.25-.46 0-.833-.127-1.12-.38-.286-.253-.43-.593-.43-1.02l.21.33h-.19l.01 1.12v1.65h-.79zm2.06-2.39c.4 0 .71-.12.93-.36.227-.24.34-.58.34-1.02v-1.56c0-.447-.113-.787-.34-1.02-.22-.24-.53-.36-.93-.36-.386 0-.696.123-.93.37-.226.24-.34.577-.34 1.01v1.56c0 .433.114.773.34 1.02.234.24.544.36.93.36zm3.766.59v-5.5h1.1l.8 2.24a15.027 15.027 0 01.32 1.06c.034-.113.077-.27.13-.47.06-.2.124-.4.19-.6l.77-2.23h1.09v5.5h-.77v-1.32c0-.287.004-.593.01-.92l.02-.98c.007-.327.017-.633.03-.92.014-.293.024-.55.03-.77l-1.09 3.26h-.84l-1.09-3.24c.014.267.024.603.03 1.01.007.4.014.823.02 1.27.014.447.02.877.02 1.29V131h-.77zm7.766.1c-.58 0-1.036-.147-1.37-.44-.333-.3-.5-.703-.5-1.21 0-.5.164-.893.49-1.18.327-.293.767-.44 1.32-.44h1.75v-.58c0-.367-.106-.65-.32-.85-.213-.2-.516-.3-.91-.3-.346 0-.636.077-.87.23a.852.852 0 00-.39.62h-.8c.067-.473.287-.85.66-1.13.38-.28.854-.42 1.42-.42.614 0 1.1.167 1.46.5.36.327.54.77.54 1.33V131h-.78v-1.07h-.13l.15-.16c0 .407-.156.73-.47.97-.313.24-.73.36-1.25.36zm.19-.64c.44 0 .8-.11 1.08-.33.28-.22.42-.507.42-.86v-.83h-1.74c-.313 0-.563.087-.75.26-.186.173-.28.41-.28.71 0 .32.114.577.34.77.227.187.537.28.93.28zm8.126 1.94V131H88.5v-5.5h.8v4.79h2.28v-4.79h.79v4.79h.76v2.11h-.72zm2.087-1.4v-5.5h.77v3.13c0 .187-.007.387-.02.6a14.894 14.894 0 01-.07 1.06l2.33-4.79h1.03v5.5h-.77v-3.13c0-.193.003-.393.01-.6.013-.207.026-.403.04-.59.02-.193.033-.353.04-.48l-2.34 4.8h-1.02zm5.996 0v-5.5h.77v3.13c0 .187-.007.387-.02.6a16.591 16.591 0 01-.07 1.06l2.33-4.79h1.03v5.5h-.77v-3.13c0-.193.003-.393.01-.6.013-.207.026-.403.04-.59.02-.193.033-.353.04-.48l-2.34 4.8h-1.02zm11.992 0v-5.5h4.04v5.5h-.8v-4.78h-2.44V131h-.8zm8.016.09c-.427 0-.797-.083-1.11-.25a1.77 1.77 0 01-.73-.72c-.173-.313-.26-.683-.26-1.11v-1.52c0-.433.087-.803.26-1.11a1.77 1.77 0 01.73-.72c.313-.167.683-.25 1.11-.25.427 0 .797.083 1.11.25.313.167.557.407.73.72.173.307.26.673.26 1.1v1.53c0 .427-.087.797-.26 1.11a1.77 1.77 0 01-.73.72c-.313.167-.683.25-1.11.25zm0-.71c.413 0 .733-.117.96-.35.227-.233.34-.573.34-1.02v-1.52c0-.447-.117-.787-.35-1.02-.227-.233-.543-.35-.95-.35-.407 0-.727.117-.96.35-.227.233-.34.573-.34 1.02v1.52c0 .447.113.787.34 1.02.233.233.553.35.96.35zm3.276.69v-.75h.2c.287 0 .497-.117.63-.35.133-.24.203-.637.21-1.19l.07-3.28h3.63v5.5h-.8v-4.78h-2.05l-.06 2.59c-.007.52-.07.947-.19 1.28-.113.333-.287.58-.52.74-.227.16-.523.24-.89.24h-.23zm6.746-.07v-5.5h.79v2.02h1.65c.614 0 1.097.157 1.45.47.36.307.54.73.54 1.27 0 .533-.18.957-.54 1.27-.353.313-.836.47-1.45.47h-2.44zm.79-.72h1.65c.38 0 .67-.087.87-.26.2-.18.3-.433.3-.76s-.1-.577-.3-.75c-.2-.18-.49-.27-.87-.27h-1.65v2.04zm6.916.8c-.573 0-1.036-.123-1.39-.37a1.493 1.493 0 01-.64-1h.83c.054.193.184.353.39.48.214.12.484.18.81.18h.49c.34 0 .607-.083.8-.25.2-.173.3-.39.3-.65a.883.883 0 00-.28-.68c-.186-.173-.453-.26-.8-.26h-1.23v-.69h1.21c.314 0 .554-.08.72-.24a.804.804 0 00.26-.62.827.827 0 00-.12-.45.754.754 0 00-.35-.29 1.218 1.218 0 00-.53-.11h-.52c-.3 0-.546.067-.74.2a.795.795 0 00-.36.49h-.83c.067-.413.27-.75.61-1.01.347-.26.787-.39 1.32-.39h.52c.374 0 .697.063.97.19.274.127.484.303.63.53.154.227.23.493.23.8 0 .333-.103.61-.31.83-.2.213-.483.333-.85.36v.04c.44.027.764.157.97.39.207.227.31.54.31.94 0 .473-.176.857-.53 1.15-.346.287-.813.43-1.4.43h-.49zm6.256.01c-.426 0-.796-.083-1.11-.25a1.776 1.776 0 01-.73-.72c-.173-.313-.26-.683-.26-1.11v-1.52c0-.433.087-.803.26-1.11.174-.313.417-.553.73-.72.314-.167.684-.25 1.11-.25.427 0 .797.083 1.11.25.314.167.557.407.73.72.174.307.26.673.26 1.1v1.53c0 .427-.086.797-.26 1.11a1.765 1.765 0 01-.73.72c-.313.167-.683.25-1.11.25zm0-.71c.414 0 .734-.117.96-.35.227-.233.34-.573.34-1.02v-1.52c0-.447-.116-.787-.35-1.02-.226-.233-.543-.35-.95-.35-.406 0-.726.117-.96.35-.226.233-.34.573-.34 1.02v1.52c0 .447.114.787.34 1.02.234.233.554.35.96.35zm3.976.62v-5.5h2.36c.547 0 .977.13 1.29.39.314.253.47.607.47 1.06 0 .38-.13.687-.39.92-.253.227-.593.34-1.02.34v-.07c.46 0 .83.12 1.11.36.28.233.42.547.42.94 0 .487-.166.87-.5 1.15-.326.273-.78.41-1.36.41h-2.38zm.78-.7h1.6c.327 0 .587-.077.78-.23a.786.786 0 00.29-.64c0-.28-.096-.497-.29-.65-.193-.16-.453-.24-.78-.24h-1.6v1.76zm0-2.45h1.58c.294 0 .527-.073.7-.22a.733.733 0 00.27-.6.733.733 0 00-.27-.6c-.173-.153-.406-.23-.7-.23h-1.58v1.65zm6.807 3.25c-.58 0-1.037-.147-1.37-.44-.334-.3-.5-.703-.5-1.21 0-.5.163-.893.49-1.18.326-.293.766-.44 1.32-.44h1.75v-.58c0-.367-.107-.65-.32-.85-.214-.2-.517-.3-.91-.3-.347 0-.637.077-.87.23a.85.85 0 00-.39.62h-.8a1.64 1.64 0 01.66-1.13c.38-.28.853-.42 1.42-.42.613 0 1.1.167 1.46.5.36.327.54.77.54 1.33V131h-.78v-1.07h-.13l.15-.16c0 .407-.157.73-.47.97-.314.24-.73.36-1.25.36zm.19-.64c.44 0 .8-.11 1.08-.33.28-.22.42-.507.42-.86v-.83h-1.74c-.314 0-.564.087-.75.26-.187.173-.28.41-.28.71 0 .32.113.577.34.77.226.187.536.28.93.28zm5.836.54v-4.79h-2v-.71h4.8v.71h-2V131h-.8zm6.396.1c-.427 0-.797-.083-1.11-.25a1.825 1.825 0 01-.73-.73 2.208 2.208 0 01-.26-1.09v-1.56c0-.42.086-.783.26-1.09.173-.313.416-.553.73-.72.313-.173.683-.26 1.11-.26.426 0 .796.087 1.11.26.313.167.556.407.73.72.173.307.26.67.26 1.09v.97h-3.42v.59c0 .447.113.793.34 1.04.233.24.56.36.98.36.353 0 .64-.07.86-.21a.928.928 0 00.43-.61h.79a1.6 1.6 0 01-.67 1.09c-.374.267-.844.4-1.41.4zm1.32-3.19v-.44c0-.447-.114-.79-.34-1.03-.227-.247-.554-.37-.98-.37-.42 0-.747.123-.98.37-.227.24-.34.583-.34 1.03v.35h2.72l-.08.09zm1.956 3.16v-.75h.2c.287 0 .497-.117.63-.35.133-.24.203-.637.21-1.19l.07-3.28h3.63v5.5h-.8v-4.78h-2.05l-.06 2.59c-.007.52-.07.947-.19 1.28-.113.333-.287.58-.52.74-.227.16-.523.24-.89.24h-.23zm8.716.03c-.427 0-.797-.083-1.11-.25a1.831 1.831 0 01-.73-.73 2.219 2.219 0 01-.26-1.09v-1.56c0-.42.087-.783.26-1.09a1.77 1.77 0 01.73-.72c.313-.173.683-.26 1.11-.26.427 0 .797.087 1.11.26.313.167.557.407.73.72.173.307.26.67.26 1.09v.97h-3.42v.59c0 .447.113.793.34 1.04.233.24.56.36.98.36.353 0 .64-.07.86-.21a.925.925 0 00.43-.61h.79c-.073.46-.297.823-.67 1.09-.373.267-.843.4-1.41.4zm1.32-3.19v-.44c0-.447-.113-.79-.34-1.03-.227-.247-.553-.37-.98-.37-.42 0-.747.123-.98.37-.227.24-.34.583-.34 1.03v.35h2.72l-.08.09zm2.656 3.09v-5.5h.77v3.13c0 .187-.007.387-.02.6a16.591 16.591 0 01-.07 1.06l2.33-4.79h1.03v5.5h-.77v-3.13c0-.193.003-.393.01-.6.013-.207.027-.403.04-.59.02-.193.033-.353.04-.48l-2.34 4.8h-1.02zm2.06-6.41c-.473 0-.853-.13-1.14-.39-.28-.267-.42-.617-.42-1.05h.64c0 .273.08.493.24.66.167.167.39.25.67.25.287 0 .513-.083.68-.25.167-.167.25-.387.25-.66h.64c0 .433-.143.783-.43 1.05-.28.26-.657.39-1.13.39zM253.515 235v-7.3h.79v3.16h2.46v-3.16h.79v7.3h-.79v-3.41h-2.46V235h-.79zm7.586.1c-.58 0-1.036-.147-1.37-.44-.333-.3-.5-.703-.5-1.21 0-.5.164-.893.49-1.18.327-.293.767-.44 1.32-.44h1.75v-.58c0-.367-.106-.65-.32-.85-.213-.2-.516-.3-.91-.3-.346 0-.636.077-.87.23a.856.856 0 00-.39.62h-.8c.067-.473.287-.85.66-1.13.38-.28.854-.42 1.42-.42.614 0 1.1.167 1.46.5.36.327.54.77.54 1.33V235h-.78v-1.07h-.13l.15-.16c0 .407-.156.73-.47.97-.313.24-.73.36-1.25.36zm.19-.64c.44 0 .8-.11 1.08-.33.28-.22.42-.507.42-.86v-.83h-1.74c-.313 0-.563.087-.75.26-.186.173-.28.41-.28.71 0 .32.114.577.34.77.227.187.537.28.93.28zm6.246.64c-.426 0-.8-.083-1.12-.25a1.833 1.833 0 01-.75-.71c-.173-.313-.26-.683-.26-1.11v-1.56c0-.427.087-.793.26-1.1.18-.313.43-.553.75-.72.32-.167.694-.25 1.12-.25.627 0 1.13.17 1.51.51.38.34.577.803.59 1.39h-.79c-.013-.38-.136-.673-.37-.88-.226-.207-.54-.31-.94-.31-.406 0-.73.12-.97.36-.24.233-.36.567-.36 1v1.56c0 .427.12.76.36 1s.564.36.97.36c.4 0 .714-.103.94-.31.234-.213.357-.507.37-.88h.79c-.013.587-.21 1.05-.59 1.39-.38.34-.883.51-1.51.51zm5.586-.1v-4.79h-2v-.71h4.8v.71h-2V235h-.8zm4.367 1.8v-7.3h.79v.97h.21l-.24.33c0-.433.14-.773.42-1.02.286-.253.663-.38 1.13-.38.553 0 .993.183 1.32.55.333.36.5.853.5 1.48v1.63c0 .42-.077.783-.23 1.09-.154.3-.367.533-.64.7-.267.167-.584.25-.95.25-.46 0-.834-.127-1.12-.38-.287-.253-.43-.593-.43-1.02l.21.33h-.19l.01 1.12v1.65h-.79zm2.06-2.39c.4 0 .71-.12.93-.36.226-.24.34-.58.34-1.02v-1.56c0-.447-.114-.787-.34-1.02-.22-.24-.53-.36-.93-.36-.387 0-.697.123-.93.37-.227.24-.34.577-.34 1.01v1.56c0 .433.113.773.34 1.02.233.24.543.36.93.36zm5.536.69c-.58 0-1.037-.147-1.37-.44-.334-.3-.5-.703-.5-1.21 0-.5.163-.893.49-1.18.326-.293.766-.44 1.32-.44h1.75v-.58c0-.367-.107-.65-.32-.85-.214-.2-.517-.3-.91-.3-.347 0-.637.077-.87.23a.85.85 0 00-.39.62h-.8a1.64 1.64 0 01.66-1.13c.38-.28.853-.42 1.42-.42.613 0 1.1.167 1.46.5.36.327.54.77.54 1.33V235h-.78v-1.07h-.13l.15-.16c0 .407-.157.73-.47.97-.314.24-.73.36-1.25.36zm.19-.64c.44 0 .8-.11 1.08-.33.28-.22.42-.507.42-.86v-.83h-1.74c-.314 0-.564.087-.75.26-.187.173-.28.41-.28.71 0 .32.113.577.34.77.226.187.536.28.93.28zm4.216.54v-5.5h.77v3.13c0 .187-.007.387-.02.6a16.591 16.591 0 01-.07 1.06l2.33-4.79h1.03v5.5h-.77v-3.13c0-.193.003-.393.01-.6.013-.207.026-.403.04-.59.02-.193.033-.353.04-.48l-2.34 4.8h-1.02zm5.996 0v-5.5h2.36c.546 0 .976.13 1.29.39.313.253.47.607.47 1.06 0 .38-.13.687-.39.92-.254.227-.594.34-1.02.34v-.07c.46 0 .83.12 1.11.36.28.233.42.547.42.94 0 .487-.167.87-.5 1.15-.327.273-.78.41-1.36.41h-2.38zm.78-.7h1.6c.326 0 .586-.077.78-.23a.79.79 0 00.29-.64c0-.28-.097-.497-.29-.65-.194-.16-.454-.24-.78-.24h-1.6v1.76zm0-2.45h1.58c.293 0 .526-.073.7-.22a.733.733 0 00.27-.6.733.733 0 00-.27-.6c-.174-.153-.407-.23-.7-.23h-1.58v1.65zm6.806 3.25c-.58 0-1.037-.147-1.37-.44-.333-.3-.5-.703-.5-1.21 0-.5.163-.893.49-1.18.327-.293.767-.44 1.32-.44h1.75v-.58c0-.367-.107-.65-.32-.85-.213-.2-.517-.3-.91-.3-.347 0-.637.077-.87.23a.85.85 0 00-.39.62h-.8c.067-.473.287-.85.66-1.13.38-.28.853-.42 1.42-.42.613 0 1.1.167 1.46.5.36.327.54.77.54 1.33V235h-.78v-1.07h-.13l.15-.16c0 .407-.157.73-.47.97-.313.24-.73.36-1.25.36zm.19-.64c.44 0 .8-.11 1.08-.33.28-.22.42-.507.42-.86v-.83h-1.74c-.313 0-.563.087-.75.26-.187.173-.28.41-.28.71 0 .32.113.577.34.77.227.187.537.28.93.28zm6.236.64c-.427 0-.797-.083-1.11-.25a1.831 1.831 0 01-.73-.73 2.219 2.219 0 01-.26-1.09v-1.56c0-.42.087-.783.26-1.09a1.77 1.77 0 01.73-.72c.313-.173.683-.26 1.11-.26.427 0 .797.087 1.11.26.313.167.557.407.73.72.173.307.26.67.26 1.09v.97h-3.42v.59c0 .447.113.793.34 1.04.233.24.56.36.98.36.353 0 .64-.07.86-.21a.925.925 0 00.43-.61h.79c-.073.46-.297.823-.67 1.09-.373.267-.843.4-1.41.4zm1.32-3.19v-.44c0-.447-.113-.79-.34-1.03-.227-.247-.553-.37-.98-.37-.42 0-.747.123-.98.37-.227.24-.34.583-.34 1.03v.35h2.72l-.08.09zm2.476 3.09v-5.5h1.1l.8 2.24a14.54 14.54 0 01.32 1.06c.033-.113.077-.27.13-.47.06-.2.123-.4.19-.6l.77-2.23h1.09v5.5h-.77v-1.32c0-.287.003-.593.01-.92l.02-.98c.007-.327.017-.633.03-.92.013-.293.023-.55.03-.77l-1.09 3.26h-.84l-1.09-3.24c.013.267.023.603.03 1.01l.02 1.27c.013.447.02.877.02 1.29V235h-.77zm13.032 1.8l.81-2.15-2.04-5.15h.88l1.3 3.43c.054.133.104.283.15.45.054.16.094.293.12.4.034-.107.074-.243.12-.41.047-.167.094-.317.14-.45l1.22-3.42h.85l-2.71 7.3h-.84zm5.126 0v-7.3h.79v.97h.21l-.24.33c0-.433.14-.773.42-1.02.287-.253.664-.38 1.13-.38.554 0 .994.183 1.32.55.334.36.5.853.5 1.48v1.63c0 .42-.076.783-.23 1.09-.153.3-.366.533-.64.7-.266.167-.583.25-.95.25-.46 0-.833-.127-1.12-.38-.286-.253-.43-.593-.43-1.02l.21.33h-.19l.01 1.12v1.65h-.79zm2.06-2.39c.4 0 .71-.12.93-.36.227-.24.34-.58.34-1.02v-1.56c0-.447-.113-.787-.34-1.02-.22-.24-.53-.36-.93-.36-.386 0-.696.123-.93.37-.226.24-.34.577-.34 1.01v1.56c0 .433.114.773.34 1.02.234.24.544.36.93.36zm5.966.68c-.426 0-.796-.083-1.11-.25a1.776 1.776 0 01-.73-.72c-.173-.313-.26-.683-.26-1.11v-1.52c0-.433.087-.803.26-1.11.174-.313.417-.553.73-.72.314-.167.684-.25 1.11-.25.427 0 .797.083 1.11.25.314.167.557.407.73.72.174.307.26.673.26 1.1v1.53c0 .427-.086.797-.26 1.11a1.765 1.765 0 01-.73.72c-.313.167-.683.25-1.11.25zm0-.71c.414 0 .734-.117.96-.35.227-.233.34-.573.34-1.02v-1.52c0-.447-.116-.787-.35-1.02-.226-.233-.543-.35-.95-.35-.406 0-.726.117-.96.35-.226.233-.34.573-.34 1.02v1.52c0 .447.114.787.34 1.02.234.233.554.35.96.35zm3.977.62v-5.5h2.36c.546 0 .976.13 1.29.39.313.253.47.607.47 1.06 0 .38-.13.687-.39.92-.254.227-.594.34-1.02.34v-.07c.46 0 .83.12 1.11.36.28.233.42.547.42.94 0 .487-.167.87-.5 1.15-.327.273-.78.41-1.36.41h-2.38zm.78-.7h1.6c.326 0 .586-.077.78-.23a.79.79 0 00.29-.64c0-.28-.097-.497-.29-.65-.194-.16-.454-.24-.78-.24h-1.6v1.76zm0-2.45h1.58c.293 0 .526-.073.7-.22a.733.733 0 00.27-.6.733.733 0 00-.27-.6c-.174-.153-.407-.23-.7-.23h-1.58v1.65zm5.216 3.15v-5.5h.8v2.34h2.44v-2.34h.8v5.5h-.8v-2.44h-2.44V235h-.8zm5.996 0v-5.5h.77v3.13c0 .187-.007.387-.02.6a16.591 16.591 0 01-.07 1.06l2.33-4.79h1.03v5.5h-.77v-3.13c0-.193.003-.393.01-.6.013-.207.026-.403.04-.59.02-.193.033-.353.04-.48l-2.34 4.8h-1.02zm-114.566 14.4v-2.08h.45c.113-.127.23-.353.35-.68.127-.333.193-.737.2-1.21l.06-2.93h3.5v4.82h.71v2.08h-.71V248h-3.85v1.4h-.71zm1.3-2.08h2.47v-4.11h-1.96l-.04 2.23c-.007.5-.063.91-.17 1.23-.107.32-.207.537-.3.65zm7.356.77c-.427 0-.797-.083-1.11-.25a1.77 1.77 0 01-.73-.72c-.173-.313-.26-.683-.26-1.11v-1.52c0-.433.087-.803.26-1.11a1.77 1.77 0 01.73-.72c.313-.167.683-.25 1.11-.25.427 0 .797.083 1.11.25.313.167.557.407.73.72.173.307.26.673.26 1.1v1.53c0 .427-.087.797-.26 1.11a1.77 1.77 0 01-.73.72c-.313.167-.683.25-1.11.25zm0-.71c.413 0 .733-.117.96-.35.227-.233.34-.573.34-1.02v-1.52c0-.447-.117-.787-.35-1.02-.227-.233-.543-.35-.95-.35-.407 0-.727.117-.96.35-.227.233-.34.573-.34 1.02v1.52c0 .447.113.787.34 1.02.233.233.553.35.96.35zm6.006.72c-.427 0-.8-.083-1.12-.25a1.833 1.833 0 01-.75-.71c-.173-.313-.26-.683-.26-1.11v-1.56c0-.427.087-.793.26-1.1.18-.313.43-.553.75-.72.32-.167.693-.25 1.12-.25.627 0 1.13.17 1.51.51.38.34.577.803.59 1.39h-.79c-.013-.38-.137-.673-.37-.88-.227-.207-.54-.31-.94-.31-.407 0-.73.12-.97.36-.24.233-.36.567-.36 1v1.56c0 .427.12.76.36 1s.563.36.97.36c.4 0 .713-.103.94-.31.233-.213.357-.507.37-.88h.79c-.013.587-.21 1.05-.59 1.39-.38.34-.883.51-1.51.51zm5.586-.1v-4.79h-2v-.71h4.8v.71h-2V248h-.8zm5.236 1.8l.81-2.15-2.04-5.15h.88l1.3 3.43c.054.133.104.283.15.45.054.16.094.293.12.4.034-.107.074-.243.12-.41.047-.167.094-.317.14-.45l1.22-3.42h.85l-2.71 7.3h-.84zm5.136-1.8v-5.5h4.04v5.5h-.8v-4.78h-2.44V248h-.8zm7.587.1c-.58 0-1.037-.147-1.37-.44-.334-.3-.5-.703-.5-1.21 0-.5.163-.893.49-1.18.326-.293.766-.44 1.32-.44h1.75v-.58c0-.367-.107-.65-.32-.85-.214-.2-.517-.3-.91-.3-.347 0-.637.077-.87.23a.85.85 0 00-.39.62h-.8a1.64 1.64 0 01.66-1.13c.38-.28.853-.42 1.42-.42.613 0 1.1.167 1.46.5.36.327.54.77.54 1.33V248h-.78v-1.07h-.13l.15-.16c0 .407-.157.73-.47.97-.314.24-.73.36-1.25.36zm.19-.64c.44 0 .8-.11 1.08-.33.28-.22.42-.507.42-.86v-.83h-1.74c-.314 0-.564.087-.75.26-.187.173-.28.41-.28.71 0 .32.113.577.34.77.226.187.536.28.93.28zm10.212.54v-5.5h.77v3.13c0 .187-.007.387-.02.6a16.591 16.591 0 01-.07 1.06l2.33-4.79h1.03v5.5h-.77v-3.13c0-.193.003-.393.01-.6.013-.207.026-.403.04-.59.02-.193.033-.353.04-.48l-2.34 4.8h-1.02zm14.012.1c-.64 0-1.143-.19-1.51-.57-.367-.38-.55-.903-.55-1.57v-2.56c0-.867.217-1.533.65-2 .433-.467 1.053-.7 1.86-.7h1.36v.79h-1.36c-.56 0-.987.167-1.28.5-.293.327-.44.797-.44 1.41v.69h.14l-.14.24c.007-.4.14-.713.4-.94.267-.227.63-.34 1.09-.34.587 0 1.04.187 1.36.56.32.367.48.88.48 1.54v.81c0 .447-.083.83-.25 1.15-.16.32-.393.567-.7.74-.307.167-.677.25-1.11.25zm0-.71c.407 0 .72-.123.94-.37.22-.247.33-.6.33-1.06v-.81c0-.453-.11-.807-.33-1.06-.22-.253-.533-.38-.94-.38-.407 0-.72.127-.94.38-.22.253-.33.607-.33 1.06v.81c0 .46.11.813.33 1.06.227.247.54.37.94.37zm5.996.71c-.427 0-.797-.083-1.11-.25a1.831 1.831 0 01-.73-.73 2.219 2.219 0 01-.26-1.09v-1.56c0-.42.087-.783.26-1.09a1.77 1.77 0 01.73-.72c.313-.173.683-.26 1.11-.26.427 0 .797.087 1.11.26.313.167.557.407.73.72.173.307.26.67.26 1.09v.97h-3.42v.59c0 .447.113.793.34 1.04.233.24.56.36.98.36.353 0 .64-.07.86-.21a.925.925 0 00.43-.61h.79c-.073.46-.297.823-.67 1.09-.373.267-.843.4-1.41.4zm1.32-3.19v-.44c0-.447-.113-.79-.34-1.03-.227-.247-.553-.37-.98-.37-.42 0-.747.123-.98.37-.227.24-.34.583-.34 1.03v.35h2.72l-.08.09zm4.416 3.17c-.573 0-1.037-.123-1.39-.37a1.49 1.49 0 01-.64-1h.83c.053.193.183.353.39.48.213.12.483.18.81.18h.49c.34 0 .607-.083.8-.25.2-.173.3-.39.3-.65a.883.883 0 00-.28-.68c-.187-.173-.453-.26-.8-.26h-1.23v-.69h1.21c.313 0 .553-.08.72-.24a.807.807 0 00.26-.62.827.827 0 00-.12-.45.76.76 0 00-.35-.29 1.218 1.218 0 00-.53-.11h-.52c-.3 0-.547.067-.74.2a.795.795 0 00-.36.49h-.83c.067-.413.27-.75.61-1.01.347-.26.787-.39 1.32-.39h.52c.373 0 .697.063.97.19s.483.303.63.53c.153.227.23.493.23.8 0 .333-.103.61-.31.83-.2.213-.483.333-.85.36v.04c.44.027.763.157.97.39.207.227.31.54.31.94 0 .473-.177.857-.53 1.15-.347.287-.813.43-1.4.43h-.49zm6.256.01c-.426 0-.796-.083-1.11-.25a1.776 1.776 0 01-.73-.72c-.173-.313-.26-.683-.26-1.11v-1.52c0-.433.087-.803.26-1.11.174-.313.417-.553.73-.72.314-.167.684-.25 1.11-.25.427 0 .797.083 1.11.25.314.167.557.407.73.72.174.307.26.673.26 1.1v1.53c0 .427-.086.797-.26 1.11a1.765 1.765 0 01-.73.72c-.313.167-.683.25-1.11.25zm0-.71c.414 0 .734-.117.96-.35.227-.233.34-.573.34-1.02v-1.52c0-.447-.116-.787-.35-1.02-.226-.233-.543-.35-.95-.35-.406 0-.726.117-.96.35-.226.233-.34.573-.34 1.02v1.52c0 .447.114.787.34 1.02.234.233.554.35.96.35zm3.976.62v-5.5h4.04v5.5h-.8v-4.78h-2.44V248h-.8zm7.586.1c-.58 0-1.036-.147-1.37-.44-.333-.3-.5-.703-.5-1.21 0-.5.164-.893.49-1.18.327-.293.767-.44 1.32-.44h1.75v-.58c0-.367-.106-.65-.32-.85-.213-.2-.516-.3-.91-.3-.346 0-.636.077-.87.23a.856.856 0 00-.39.62h-.8c.067-.473.287-.85.66-1.13.38-.28.854-.42 1.42-.42.614 0 1.1.167 1.46.5.36.327.54.77.54 1.33V248h-.78v-1.07h-.13l.15-.16c0 .407-.156.73-.47.97-.313.24-.73.36-1.25.36zm.19-.64c.44 0 .8-.11 1.08-.33.28-.22.42-.507.42-.86v-.83h-1.74c-.313 0-.563.087-.75.26-.186.173-.28.41-.28.71 0 .32.114.577.34.77.227.187.537.28.93.28zm6.246.64c-.426 0-.8-.083-1.12-.25a1.833 1.833 0 01-.75-.71c-.173-.313-.26-.683-.26-1.11v-1.56c0-.427.087-.793.26-1.1.18-.313.43-.553.75-.72.32-.167.694-.25 1.12-.25.627 0 1.13.17 1.51.51.38.34.577.803.59 1.39h-.79c-.013-.38-.136-.673-.37-.88-.226-.207-.54-.31-.94-.31-.406 0-.73.12-.97.36-.24.233-.36.567-.36 1v1.56c0 .427.12.76.36 1s.564.36.97.36c.4 0 .714-.103.94-.31.234-.213.357-.507.37-.88h.79c-.013.587-.21 1.05-.59 1.39-.38.34-.883.51-1.51.51zm3.967-.1v-5.5h.8v2.34h2.44v-2.34h.8v5.5h-.8v-2.44h-2.44V248h-.8zm8.016.09c-.427 0-.797-.083-1.11-.25a1.765 1.765 0 01-.73-.72c-.174-.313-.26-.683-.26-1.11v-1.52c0-.433.086-.803.26-1.11.173-.313.416-.553.73-.72.313-.167.683-.25 1.11-.25.426 0 .796.083 1.11.25.313.167.556.407.73.72.173.307.26.673.26 1.1v1.53c0 .427-.087.797-.26 1.11a1.776 1.776 0 01-.73.72c-.314.167-.684.25-1.11.25zm0-.71c.413 0 .733-.117.96-.35.226-.233.34-.573.34-1.02v-1.52c0-.447-.117-.787-.35-1.02-.227-.233-.544-.35-.95-.35-.407 0-.727.117-.96.35-.227.233-.34.573-.34 1.02v1.52c0 .447.113.787.34 1.02.233.233.553.35.96.35zm6.006.72c-.427 0-.8-.083-1.12-.25a1.833 1.833 0 01-.75-.71c-.174-.313-.26-.683-.26-1.11v-1.56c0-.427.086-.793.26-1.1.18-.313.43-.553.75-.72.32-.167.693-.25 1.12-.25.626 0 1.13.17 1.51.51.38.34.576.803.59 1.39h-.79c-.014-.38-.137-.673-.37-.88-.227-.207-.54-.31-.94-.31-.407 0-.73.12-.97.36-.24.233-.36.567-.36 1v1.56c0 .427.12.76.36 1s.563.36.97.36c.4 0 .713-.103.94-.31.233-.213.356-.507.37-.88h.79c-.014.587-.21 1.05-.59 1.39-.38.34-.884.51-1.51.51zm5.586-.1v-4.79h-2v-.71h4.8v.71h-2V248h-.8zm4.376 0v-5.5h.77v3.13c0 .187-.007.387-.02.6a16.591 16.591 0 01-.07 1.06l2.33-4.79h1.03v5.5h-.77v-3.13c0-.193.003-.393.01-.6.013-.207.027-.403.04-.59.02-.193.033-.353.04-.48l-2.34 4.8h-1.02z" fill="#000"/><path d="M242 176h118" stroke="#CCEC60" stroke-linecap="round"/><mask id="a" style="mask-type:alpha" maskUnits="userSpaceOnUse" x="246" y="109" width="122" height="67"><rect x="246" y="109" width="122" height="67" rx="11" fill="#D9D9D9"/></mask><g mask="url(#a)"><path d="M280.107 186.937c-4.185 0-7.839-.812-10.962-2.436-3.06-1.686-5.434-4.029-7.12-7.027-1.687-3.06-2.53-6.62-2.53-10.68v-29.981c0-4.122.843-7.683 2.53-10.681 1.686-2.998 4.06-5.309 7.12-6.933 3.123-1.686 6.777-2.529 10.962-2.529 4.247 0 7.901.843 10.962 2.529 3.06 1.624 5.434 3.935 7.12 6.933 1.686 2.998 2.53 6.559 2.53 10.681v29.981c0 4.06-.844 7.62-2.53 10.68-1.686 2.998-4.091 5.341-7.214 7.027-3.061 1.624-6.683 2.436-10.868 2.436zm0-7.214c3.747 0 6.746-1.187 8.994-3.56 2.311-2.436 3.467-5.559 3.467-9.369v-29.981c0-3.81-1.156-6.902-3.467-9.275-2.248-2.436-5.247-3.654-8.994-3.654-3.748 0-6.777 1.218-9.088 3.654-2.249 2.373-3.373 5.465-3.373 9.275v29.981c0 3.81 1.124 6.933 3.373 9.369 2.311 2.373 5.34 3.56 9.088 3.56zm0-22.392c-1.687 0-3.061-.531-4.122-1.593-1-1.062-1.499-2.467-1.499-4.216 0-1.686.499-3.029 1.499-4.028 1.061-1.062 2.435-1.593 4.122-1.593 1.686 0 3.029.531 4.029 1.593 1.061.999 1.592 2.342 1.592 4.028 0 1.749-.531 3.154-1.592 4.216-1 1.062-2.343 1.593-4.029 1.593zM316.797 186v-8.619l20.892-22.205c3.561-3.81 6.153-7.183 7.777-10.118 1.624-2.998 2.436-5.872 2.436-8.62 0-3.81-1.062-6.808-3.186-8.994-2.061-2.186-4.903-3.279-8.526-3.279-3.997 0-7.151 1.124-9.462 3.373-2.249 2.248-3.373 5.34-3.373 9.275h-8.432c.125-4.122 1.062-7.683 2.811-10.681 1.811-3.06 4.278-5.402 7.401-7.026 3.185-1.624 6.871-2.436 11.055-2.436 4.123 0 7.683.812 10.681 2.436 3.061 1.561 5.403 3.81 7.027 6.745 1.624 2.936 2.436 6.434 2.436 10.493 0 3.873-1.031 7.714-3.092 11.524-2.061 3.81-5.434 8.151-10.119 13.023l-16.864 17.426h31.199V186h-40.661z" fill="#CCEC60"/></g><path d="M57 68h118" stroke="#CCEC60" stroke-linecap="round"/><mask id="b" style="mask-type:alpha" maskUnits="userSpaceOnUse" x="53" y="0" width="127" height="68"><rect x="53" width="127" height="68" rx="11" fill="#D9D9D9"/></mask><g mask="url(#b)"><path d="M92.107 78.937c-4.185 0-7.839-.812-10.962-2.436-3.06-1.686-5.434-4.029-7.12-7.027-1.687-3.06-2.53-6.62-2.53-10.68V28.813c0-4.122.843-7.683 2.53-10.68 1.686-2.999 4.06-5.31 7.12-6.934 3.123-1.686 6.777-2.53 10.962-2.53 4.247 0 7.901.844 10.962 2.53 3.06 1.624 5.434 3.935 7.12 6.933 1.686 2.998 2.53 6.559 2.53 10.68v29.982c0 4.06-.844 7.62-2.53 10.68-1.686 2.998-4.091 5.34-7.214 7.027-3.06 1.624-6.683 2.436-10.868 2.436zm0-7.214c3.748 0 6.746-1.187 8.994-3.56 2.311-2.436 3.467-5.56 3.467-9.37v-29.98c0-3.81-1.156-6.902-3.467-9.275-2.248-2.436-5.246-3.654-8.994-3.654-3.748 0-6.777 1.218-9.088 3.654-2.249 2.373-3.373 5.465-3.373 9.275v29.98c0 3.81 1.124 6.934 3.373 9.37 2.311 2.373 5.34 3.56 9.088 3.56zm0-22.392c-1.686 0-3.06-.53-4.122-1.593-1-1.062-1.5-2.467-1.5-4.216 0-1.686.5-3.03 1.5-4.028 1.061-1.062 2.436-1.593 4.122-1.593s3.03.53 4.029 1.593c1.061.999 1.592 2.342 1.592 4.028 0 1.75-.53 3.154-1.592 4.216-1 1.062-2.343 1.593-4.03 1.593zM128.609 78v-7.683h18.551V16.633L128.609 30.5v-9.37l15.459-11.523h11.524v60.71h15.178V78h-42.161z" fill="#CCEC60"/></g><g filter="url(#filter0_d_2004_106)"><path d="M5 124.001c26 76 62.726 111 123 111 132 0 73.448-173 193.5-173 53.5-.001 63 21 86.5 51" stroke="#CCEC60"/></g><path fill-rule="evenodd" clip-rule="evenodd" d="M115.09 233.756a10723.01 10723.01 0 00-3.142-3.455l-.763-.839-3.091-3.4a9312.73 9312.73 0 01-5.903-6.496c-.826-.906-1.014-1.945-.645-3.105.096-.317.248-.465.609-.461.734.01 1.469.01 2.205.01.735 0 1.47 0 2.204.01.22 0 .497.124.642.289a7719.12 7719.12 0 0114.452 15.881c.935 1.027.879 2.182-.136 3.297l-12.949 14.236-.36.402c-.319.357-.638.715-.979 1.05-.161.157-.418.297-.634.301-.774.013-1.55.012-2.325.011-.711 0-1.422-.001-2.132.009-.361.004-.509-.144-.605-.461-.353-1.143-.173-2.17.637-3.061 2.8-3.082 5.601-6.162 8.402-9.242l4.001-4.4c.097-.104.191-.211.295-.33l.217-.246zm-6.534 4.608l4.181-4.602-.639-.703-1.383-1.519-2.76-3.038c-3.68-4.05-7.36-8.101-11.05-12.141-.161-.176-.446-.333-.675-.337-.868-.019-1.734-.018-2.601-.018-.62.001-1.24.001-1.86-.006-.308 0-.444.116-.549.393-.445 1.2-.208 2.263.634 3.193 3.703 4.076 7.409 8.147 11.119 12.215.443.488.885.978 1.333 1.474l.436.483-.371.413c-.222.248-.434.484-.647.718l-5.652 6.217-6.21 6.832c-.818.903-1.063 1.926-.674 3.097.112.337.281.469.654.465.678-.011 1.355-.01 2.033-.009.775.001 1.549.002 2.323-.015.245-.004.554-.152.722-.337 3.11-3.398 6.209-6.807 9.309-10.216l2.324-2.556.003-.003zM327.091 61.756l-3.143-3.455-.763-.839-3.091-3.4c-1.967-2.164-3.936-4.33-5.902-6.496-.826-.906-1.015-1.945-.646-3.105.096-.316.249-.465.61-.46.734.01 1.469.01 2.204.01.735 0 1.47 0 2.204.01a.94.94 0 01.642.288 7719.528 7719.528 0 0114.453 15.88c.934 1.028.878 2.183-.137 3.298l-12.948 14.236c-.121.133-.241.267-.361.402-.318.357-.638.715-.979 1.05-.16.157-.417.297-.634.301-.774.013-1.549.012-2.325.011-.711 0-1.421 0-2.131.01-.361.003-.51-.145-.606-.462-.353-1.144-.172-2.17.638-3.06 2.799-3.083 5.6-6.163 8.402-9.243l4.001-4.4c.097-.104.19-.211.295-.33l.217-.246zm-6.535 4.608c1.383-1.523 2.766-3.047 4.181-4.602l-.638-.703-1.383-1.52-2.761-3.037c-3.68-4.05-7.36-8.1-11.05-12.14-.161-.177-.445-.334-.674-.338-.868-.019-1.735-.018-2.602-.018-.619 0-1.239 0-1.859-.006-.309 0-.445.116-.549.393-.445 1.2-.209 2.263.634 3.193a7510.8 7510.8 0 0011.119 12.215l1.332 1.474.437.483-.371.413c-.223.248-.434.484-.648.718l-5.651 6.217-6.21 6.832c-.819.903-1.063 1.925-.674 3.097.112.337.28.47.654.465.677-.011 1.355-.01 2.033-.01.774.002 1.548.003 2.323-.014a1.12 1.12 0 00.722-.337c3.11-3.398 6.209-6.807 9.308-10.216l2.325-2.556.002-.003z" fill="#CCEC60"/><defs><filter id="filter0_d_2004_106" x=".527" y="61.5" width="411.867" height="182" filterUnits="userSpaceOnUse" color-interpolation-filters="sRGB"><feFlood flood-opacity="0" result="BackgroundImageFix"/><feColorMatrix in="SourceAlpha" values="0 0 0 0 0 0 0 0 0 0 0 0 0 0 0 0 0 0 127 0" result="hardAlpha"/><feOffset dy="4"/><feGaussianBlur stdDeviation="2"/><feComposite in2="hardAlpha" operator="out"/><feColorMatrix values="0 0 0 0 0 0 0 0 0 0 0 0 0 0 0 0 0 0 0.25 0"/><feBlend in2="BackgroundImageFix" result="effect1_dropShadow_2004_106"/><feBlend in="SourceGraphic" in2="effect1_dropShadow_2004_106" result="shape"/></filter></defs></svg>