<svg width="413" height="470" fill="none" xmlns="http://www.w3.org/2000/svg"><path d="M70.187 99v-7.3h1.5v2.83h.71l1.2-2.83h1.63l-1.5 3.49 1.56 3.81h-1.65l-1.24-3.09h-.71V99h-1.5zm7.636.1c-.553 0-.993-.15-1.32-.45-.32-.3-.48-.707-.48-1.22 0-.553.19-.977.57-1.27.387-.3.94-.45 1.66-.45h1.14v-.41a.628.628 0 00-.23-.51c-.147-.127-.346-.19-.6-.19a.992.992 0 00-.58.16.656.656 0 00-.28.44h-1.45c.06-.553.3-.99.72-1.31.427-.327.974-.49 1.64-.49.7 0 1.254.173 1.66.52.413.34.62.8.62 1.38V99h-1.45v-.9h-.24l.25-.35c0 .413-.15.743-.45.99-.293.24-.686.36-1.18.36zm.56-1.1c.294 0 .534-.077.72-.23a.768.768 0 00.29-.62v-.59h-1.11a.765.765 0 00-.55.2.654.654 0 00-.21.51.68.68 0 00.23.54c.153.127.364.19.63.19zm5.396 1v-4.1h-1.8v-1.4h5.1v1.4h-1.8V99h-1.5zm6.036.1c-.553 0-.993-.15-1.32-.45-.32-.3-.48-.707-.48-1.22 0-.553.19-.977.57-1.27.387-.3.94-.45 1.66-.45h1.14v-.41a.628.628 0 00-.23-.51c-.146-.127-.346-.19-.6-.19a.992.992 0 00-.58.16.656.656 0 00-.28.44h-1.45c.06-.553.3-.99.72-1.31.427-.327.974-.49 1.64-.49.7 0 1.254.173 1.66.52.414.34.62.8.62 1.38V99h-1.45v-.9h-.24l.25-.35c0 .413-.15.743-.45.99-.293.24-.686.36-1.18.36zm.56-1.1c.294 0 .534-.077.72-.23a.768.768 0 00.29-.62v-.59h-1.11a.765.765 0 00-.55.2.654.654 0 00-.21.51.68.68 0 00.23.54c.154.127.364.19.63.19zm3.356 1.07v-1.35h.3a.522.522 0 00.43-.22c.114-.147.174-.34.18-.58l.06-3.42h4.16V99h-1.5v-4.1h-1.19l-.04 2.12a2.274 2.274 0 01-.27 1.08 1.81 1.81 0 01-.7.72 2.05 2.05 0 01-1.03.25h-.4zm8.787.03c-.487 0-.91-.09-1.27-.27a2.087 2.087 0 01-.84-.77 2.263 2.263 0 01-.29-1.16v-1.3c0-.44.096-.823.29-1.15a2 2 0 01.84-.77c.36-.187.783-.28 1.27-.28.493 0 .916.093 1.27.28.36.18.636.437.83.77.2.327.3.71.3 1.15v1.3c0 .44-.1.827-.3 1.16-.194.327-.47.583-.83.77-.354.18-.777.27-1.27.27zm0-1.3c.293 0 .516-.077.67-.23.153-.16.23-.383.23-.67v-1.3c0-.293-.077-.517-.23-.67-.154-.153-.377-.23-.67-.23-.287 0-.51.077-.67.23-.154.153-.23.377-.23.67v1.3c0 .287.076.51.23.67.16.153.383.23.67.23zm4.146 1.2v-5.5h4.2v1.4h-2.7V99h-1.5zm5.506 0v-5.5h1.32V96c0 .167-.01.377-.03.63-.02.247-.047.497-.08.75-.027.253-.057.477-.09.67l1.74-4.55h1.82V99h-1.32v-2.5c0-.173.01-.37.03-.59.02-.227.043-.453.07-.68.026-.227.053-.42.08-.58L113.99 99h-1.82zm14.362.1c-.487 0-.913-.09-1.28-.27a2.07 2.07 0 01-.85-.77c-.2-.333-.3-.72-.3-1.16v-1.3c0-.447.1-.833.3-1.16.2-.327.483-.58.85-.76.367-.187.793-.28 1.28-.28.727 0 1.307.183 1.74.55.433.367.663.867.69 1.5h-1.5a.752.752 0 00-.28-.55c-.16-.133-.377-.2-.65-.2-.3 0-.53.077-.69.23-.16.153-.24.377-.24.67v1.3c0 .287.08.51.24.67.16.153.39.23.69.23.273 0 .49-.063.65-.19a.762.762 0 00.28-.56h1.5c-.027.633-.257 1.133-.69 1.5-.433.367-1.013.55-1.74.55zm11.212-.1v-4.1h-1.8v-1.4h5.1v1.4h-1.8V99h-1.5zm6.746.1c-.486 0-.91-.09-1.27-.27a2.087 2.087 0 01-.84-.77 2.273 2.273 0 01-.29-1.16v-1.3c0-.44.097-.823.29-1.15a2 2 0 01.84-.77c.36-.187.784-.28 1.27-.28.494 0 .917.093 1.27.28.36.18.637.437.83.77.2.327.3.71.3 1.15v1.3c0 .44-.1.827-.3 1.16-.193.327-.47.583-.83.77-.353.18-.776.27-1.27.27zm0-1.3c.294 0 .517-.077.67-.23.154-.16.23-.383.23-.67v-1.3c0-.293-.076-.517-.23-.67-.153-.153-.376-.23-.67-.23-.286 0-.51.077-.67.23-.153.153-.23.377-.23.67v1.3c0 .287.077.51.23.67.16.153.384.23.67.23zm3.646 1.2v-5.5h2.49c.674 0 1.207.137 1.6.41.4.267.6.63.6 1.09 0 .367-.15.663-.45.89-.3.22-.696.33-1.19.33v-.1c.54 0 .97.12 1.29.36.327.24.49.557.49.95 0 .487-.2.87-.6 1.15-.393.28-.93.42-1.61.42h-2.62zm1.47-1.06h1.08c.247 0 .444-.057.59-.17a.557.557 0 00.23-.46c0-.2-.076-.36-.23-.48-.146-.12-.343-.18-.59-.18h-1.08v1.29zm0-2.17h1.03c.227 0 .407-.053.54-.16.134-.113.2-.26.2-.44a.56.56 0 00-.2-.45c-.133-.113-.313-.17-.54-.17h-1.03v1.22zm6.166 3.33c-.553 0-.993-.15-1.32-.45-.32-.3-.48-.707-.48-1.22 0-.553.19-.977.57-1.27.387-.3.94-.45 1.66-.45h1.14v-.41a.626.626 0 00-.23-.51c-.146-.127-.346-.19-.6-.19a.994.994 0 00-.58.16.66.66 0 00-.28.44h-1.45c.06-.553.3-.99.72-1.31.427-.327.974-.49 1.64-.49.7 0 1.254.173 1.66.52.414.34.62.8.62 1.38V99h-1.45v-.9h-.24l.25-.35c0 .413-.15.743-.45.99-.293.24-.686.36-1.18.36zm.56-1.1c.294 0 .534-.077.72-.23a.766.766 0 00.29-.62v-.59h-1.11a.766.766 0 00-.55.2.654.654 0 00-.21.51.68.68 0 00.23.54c.154.127.364.19.63.19zm3.807 2.8v-7.3h1.45v1.05h.35l-.35.35c0-.473.13-.84.39-1.1.26-.267.616-.4 1.07-.4.553 0 .996.197 1.33.59.333.387.5.907.5 1.56v1.4c0 .433-.077.813-.23 1.14-.147.32-.357.57-.63.75-.274.173-.597.26-.97.26-.454 0-.81-.13-1.07-.39-.26-.267-.39-.637-.39-1.11l.35.35h-.35l.05 1.35v1.5h-1.5zm2.37-3c.28 0 .493-.077.64-.23.153-.16.23-.383.23-.67v-1.3c0-.293-.077-.517-.23-.67-.147-.153-.36-.23-.64-.23-.274 0-.487.08-.64.24-.154.153-.23.373-.23.66v1.3c0 .287.076.51.23.67.153.153.366.23.64.23zm5.256 1.3c-.554 0-.994-.15-1.32-.45-.32-.3-.48-.707-.48-1.22 0-.553.19-.977.57-1.27.386-.3.94-.45 1.66-.45h1.14v-.41a.629.629 0 00-.23-.51c-.147-.127-.347-.19-.6-.19a.99.99 0 00-.58.16.652.652 0 00-.28.44h-1.45c.06-.553.3-.99.72-1.31.426-.327.973-.49 1.64-.49.7 0 1.253.173 1.66.52.413.34.62.8.62 1.38V99h-1.45v-.9h-.24l.25-.35c0 .413-.15.743-.45.99-.294.24-.687.36-1.18.36zm.56-1.1c.293 0 .533-.077.72-.23a.769.769 0 00.29-.62v-.59h-1.11a.764.764 0 00-.55.2.654.654 0 00-.21.51c0 .227.076.407.23.54.153.127.363.19.63.19zm3.566 1v-5.5h1.69l.65 2.05c.073.233.13.447.17.64.046.187.073.327.08.42.013-.093.036-.233.07-.42.04-.193.096-.407.17-.64l.64-2.05h1.69V99h-1.37v-1c0-.22.003-.467.01-.74l.04-.86c.02-.3.036-.587.05-.86.02-.28.04-.527.06-.74l-.73 2.65h-1.27l-.77-2.65c.026.273.053.6.08.98.033.38.06.767.08 1.16.02.387.03.74.03 1.06v1h-1.37zm6.236 0v-5.5h1.32V96c0 .167-.01.377-.03.63-.02.247-.047.497-.08.75-.027.253-.057.477-.09.67l1.74-4.55h1.82V99h-1.32v-2.5c0-.173.01-.37.03-.59.02-.227.043-.453.07-.68.026-.227.053-.42.08-.58l-1.72 4.35h-1.82zm-83.946 13v-5.5h1.32v2.5c0 .167-.01.377-.03.63-.02.247-.046.497-.08.75a9.533 9.533 0 01-.09.67l1.74-4.55h1.82v5.5h-1.32v-2.5c0-.173.01-.37.03-.59a26.1 26.1 0 01.07-.68c.027-.227.054-.42.08-.58l-1.72 4.35h-1.82zm12.903 1.8l.75-2.07-2.06-5.23h1.63l.83 2.4c.06.18.12.4.18.66.066.253.116.46.15.62.033-.16.08-.367.14-.62.066-.26.13-.48.19-.66l.8-2.4h1.56l-2.6 7.3h-1.57zm7.456-1.7c-.487 0-.914-.09-1.28-.27a2.07 2.07 0 01-.85-.77c-.2-.333-.3-.72-.3-1.16v-1.3c0-.447.1-.833.3-1.16.2-.327.483-.58.85-.76.366-.187.793-.28 1.28-.28.726 0 1.306.183 1.74.55.433.367.663.867.69 1.5h-1.5a.756.756 0 00-.28-.55c-.16-.133-.377-.2-.65-.2-.3 0-.53.077-.69.23-.16.153-.24.377-.24.67v1.3c0 .287.08.51.24.67.16.153.39.23.69.23.273 0 .49-.063.65-.19a.765.765 0 00.28-.56h1.5c-.027.633-.257 1.133-.69 1.5-.434.367-1.014.55-1.74.55zm3.176-.03v-1.35h.3a.521.521 0 00.43-.22c.113-.147.173-.34.18-.58l.06-3.42h4.16v5.5h-1.5v-4.1h-1.19l-.04 2.12a2.279 2.279 0 01-.27 1.08c-.167.307-.4.547-.7.72-.293.167-.637.25-1.03.25h-.4zm7.356 1.73l.75-2.07-2.06-5.23h1.63l.83 2.4c.06.18.12.4.18.66.067.253.117.46.15.62.033-.16.08-.367.14-.62.067-.26.13-.48.19-.66l.8-2.4h1.56l-2.6 7.3h-1.57zm5.576-1.8v-5.5h4.2v1.4h-2.7v4.1h-1.5zm7.136.1c-.553 0-.993-.15-1.32-.45-.32-.3-.48-.707-.48-1.22 0-.553.19-.977.57-1.27.387-.3.94-.45 1.66-.45h1.14v-.41a.63.63 0 00-.23-.51c-.147-.127-.347-.19-.6-.19a.99.99 0 00-.58.16.656.656 0 00-.28.44h-1.45c.06-.553.3-.99.72-1.31.427-.327.973-.49 1.64-.49.7 0 1.253.173 1.66.52.413.34.62.8.62 1.38v3.7h-1.45v-.9h-.24l.25-.35c0 .413-.15.743-.45.99-.293.24-.687.36-1.18.36zm.56-1.1c.293 0 .533-.077.72-.23a.77.77 0 00.29-.62v-.59h-1.11a.765.765 0 00-.55.2.655.655 0 00-.21.51.68.68 0 00.23.54c.153.127.363.19.63.19zm3.566 1v-5.5h1.69l.65 2.05c.074.233.13.447.17.64.047.187.074.327.08.42.014-.093.037-.233.07-.42.04-.193.097-.407.17-.64l.64-2.05h1.69v5.5h-1.37v-1c0-.22.004-.467.01-.74l.04-.86c.02-.3.037-.587.05-.86.02-.28.04-.527.06-.74l-.73 2.65h-1.27l-.77-2.65c.027.273.054.6.08.98.034.38.06.767.08 1.16.02.387.03.74.03 1.06v1h-1.37zm6.236 0v-5.5h1.32v2.5c0 .167-.01.377-.03.63-.02.247-.046.497-.08.75a9.533 9.533 0 01-.09.67l1.74-4.55h1.82v5.5h-1.32v-2.5c0-.173.01-.37.03-.59a26.1 26.1 0 01.07-.68c.027-.227.054-.42.08-.58l-1.72 4.35h-1.82zm8.336-3.8c-.3 0-.543-.083-.73-.25a.845.845 0 01-.27-.65c0-.273.09-.49.27-.65.187-.167.43-.25.73-.25s.54.083.72.25c.187.16.28.377.28.65a.83.83 0 01-.28.65c-.18.167-.42.25-.72.25zm0 3.9c-.3 0-.543-.083-.73-.25a.845.845 0 01-.27-.65c0-.273.09-.49.27-.65.187-.167.43-.25.73-.25s.54.083.72.25c.187.16.28.377.28.65a.83.83 0 01-.28.65c-.18.167-.42.25-.72.25zM70.181 357v-7.3h1.5v2.83h.71l1.2-2.83h1.63l-1.5 3.49 1.56 3.81h-1.65l-1.24-3.09h-.71V357h-1.5zm8.346.1c-.486 0-.91-.09-1.27-.27a2.087 2.087 0 01-.84-.77 2.27 2.27 0 01-.29-1.16v-1.3c0-.44.097-.823.29-1.15a2 2 0 01.84-.77c.36-.187.784-.28 1.27-.28.494 0 .917.093 1.27.28.36.18.637.437.83.77.2.327.3.71.3 1.15v1.3c0 .44-.1.827-.3 1.16-.193.327-.47.583-.83.77-.353.18-.776.27-1.27.27zm0-1.3c.294 0 .517-.077.67-.23.154-.16.23-.383.23-.67v-1.3c0-.293-.076-.517-.23-.67-.153-.153-.376-.23-.67-.23-.286 0-.51.077-.67.23-.153.153-.23.377-.23.67v1.3c0 .287.077.51.23.67.16.153.384.23.67.23zm3.656 3v-7.3h1.45v1.05h.35l-.35.35c0-.473.13-.84.39-1.1.26-.267.617-.4 1.07-.4.554 0 .997.197 1.33.59.334.387.5.907.5 1.56v1.4c0 .433-.076.813-.23 1.14-.146.32-.356.57-.63.75-.273.173-.596.26-.97.26-.453 0-.81-.13-1.07-.39-.26-.267-.39-.637-.39-1.11l.35.35h-.35l.05 1.35v1.5h-1.5zm2.37-3c.28 0 .494-.077.64-.23.154-.16.23-.383.23-.67v-1.3c0-.293-.076-.517-.23-.67-.146-.153-.36-.23-.64-.23-.273 0-.486.08-.64.24-.153.153-.23.373-.23.66v1.3c0 .287.077.51.23.67.154.153.367.23.64.23zm5.687 1.27c-.614 0-1.124-.15-1.53-.45a1.84 1.84 0 01-.74-1.22h1.45a.658.658 0 00.29.37c.146.087.323.13.53.13h.57c.22 0 .393-.05.52-.15a.534.534 0 00.19-.43.494.494 0 00-.19-.41c-.127-.1-.3-.15-.52-.15h-1.29v-1.14h1.23c.206 0 .366-.043.48-.13a.466.466 0 00.17-.38.464.464 0 00-.08-.28.448.448 0 00-.22-.17.891.891 0 00-.35-.06h-.46a.92.92 0 00-.52.14.629.629 0 00-.28.36h-1.45c.086-.513.33-.92.73-1.22.4-.3.906-.45 1.52-.45h.46c.44 0 .82.063 1.14.19.32.12.566.293.74.52.173.22.26.483.26.79 0 .367-.14.663-.42.89-.274.227-.637.34-1.09.34v-.1c.493 0 .89.127 1.19.38.3.247.45.577.45.99 0 .5-.2.9-.6 1.2-.4.293-.937.44-1.61.44h-.57zm3.936-.07v-5.5h1.32v2.5c0 .167-.01.377-.03.63-.02.247-.047.497-.08.75-.027.253-.057.477-.09.67l1.74-4.55h1.82v5.5h-1.32v-2.5c0-.173.01-.37.03-.59.02-.227.043-.453.07-.68.026-.227.053-.42.08-.58l-1.72 4.35h-1.82zm5.996 0v-5.5h1.5v2.01h1.68v-2.01h1.5v5.5h-1.5v-2.09h-1.68V357h-1.5zm7.626.1c-.554 0-.994-.15-1.32-.45-.32-.3-.48-.707-.48-1.22 0-.553.19-.977.57-1.27.386-.3.94-.45 1.66-.45h1.14v-.41a.63.63 0 00-.23-.51c-.147-.127-.347-.19-.6-.19a.988.988 0 00-.58.16.652.652 0 00-.28.44h-1.45c.06-.553.3-.99.72-1.31.426-.327.973-.49 1.64-.49.7 0 1.253.173 1.66.52.413.34.62.8.62 1.38v3.7h-1.45v-.9h-.24l.25-.35c0 .413-.15.743-.45.99-.294.24-.687.36-1.18.36zm.56-1.1c.293 0 .533-.077.72-.23a.77.77 0 00.29-.62v-.59h-1.11a.765.765 0 00-.55.2.655.655 0 00-.21.51c0 .227.076.407.23.54.153.127.363.19.63.19zm9.802 1v-5.5h4.68v5.5h-1.5v-4.1h-1.68v4.1h-1.5zm8.336.1c-.487 0-.91-.09-1.27-.27a2.087 2.087 0 01-.84-.77 2.273 2.273 0 01-.29-1.16v-1.3c0-.44.097-.823.29-1.15a2 2 0 01.84-.77c.36-.187.783-.28 1.27-.28.493 0 .917.093 1.27.28.36.18.637.437.83.77.2.327.3.71.3 1.15v1.3c0 .44-.1.827-.3 1.16-.193.327-.47.583-.83.77-.353.18-.777.27-1.27.27zm0-1.3c.293 0 .517-.077.67-.23.153-.16.23-.383.23-.67v-1.3c0-.293-.077-.517-.23-.67-.153-.153-.377-.23-.67-.23-.287 0-.51.077-.67.23-.153.153-.23.377-.23.67v1.3c0 .287.077.51.23.67.16.153.383.23.67.23zm3.686 1.2v-5.5h1.5v2.08h.74l1.15-2.08h1.67l-1.53 2.69 1.56 2.81h-1.7l-1.16-2.16h-.73V357h-1.5zm6.876 1.8l.75-2.07-2.06-5.23h1.63l.83 2.4c.06.18.12.4.18.66.067.253.117.46.15.62.034-.16.08-.367.14-.62.067-.26.13-.48.19-.66l.8-2.4h1.56l-2.6 7.3h-1.57zm5.086-1.8v-5.5h4.68v5.5h-1.5v-4.1h-1.68v4.1h-1.5zm8.336.1c-.486 0-.91-.09-1.27-.27a2.087 2.087 0 01-.84-.77 2.273 2.273 0 01-.29-1.16v-1.3c0-.44.097-.823.29-1.15a2 2 0 01.84-.77c.36-.187.784-.28 1.27-.28.494 0 .917.093 1.27.28.36.18.637.437.83.77.2.327.3.71.3 1.15v1.3c0 .44-.1.827-.3 1.16-.193.327-.47.583-.83.77-.353.18-.776.27-1.27.27zm0-1.3c.294 0 .517-.077.67-.23.154-.16.23-.383.23-.67v-1.3c0-.293-.076-.517-.23-.67-.153-.153-.376-.23-.67-.23-.286 0-.51.077-.67.23-.153.153-.23.377-.23.67v1.3c0 .287.077.51.23.67.16.153.384.23.67.23zm3.687 1.2v-5.5h1.5v2.08h.74l1.15-2.08h1.67l-1.53 2.69 1.56 2.81h-1.7l-1.16-2.16h-.73V357h-1.5zm-95.968 13v-5.5h1.32v2.5c0 .167-.01.377-.03.63-.02.247-.047.497-.08.75-.027.253-.057.477-.09.67l1.74-4.55h1.82v5.5h-1.32v-2.5c0-.173.01-.37.03-.59.02-.227.043-.453.07-.68.027-.227.053-.42.08-.58L60.02 370H58.2zm14.332.1c-.486 0-.91-.09-1.27-.27a2.087 2.087 0 01-.84-.77 2.269 2.269 0 01-.29-1.16v-1.3c0-.44.097-.823.29-1.15a2 2 0 01.84-.77c.36-.187.784-.28 1.27-.28.494 0 .917.093 1.27.28.36.18.637.437.83.77.2.327.3.71.3 1.15v1.3c0 .44-.1.827-.3 1.16-.193.327-.47.583-.83.77-.353.18-.776.27-1.27.27zm0-1.3c.294 0 .517-.077.67-.23.154-.16.23-.383.23-.67v-1.3c0-.293-.076-.517-.23-.67-.153-.153-.376-.23-.67-.23-.286 0-.51.077-.67.23-.153.153-.23.377-.23.67v1.3c0 .287.077.51.23.67.16.153.384.23.67.23zm5.386 3V370c-.633 0-1.133-.183-1.5-.55-.36-.373-.54-.88-.54-1.52v-1.37c0-.633.184-1.133.55-1.5.367-.373.864-.56 1.49-.56v-1.8h1.22v1.8c.634 0 1.13.187 1.49.56.367.367.55.867.55 1.5v1.37c0 .64-.183 1.147-.55 1.52-.36.367-.856.55-1.49.55v1.8h-1.22zm.07-2.98v-3.15c-.26 0-.466.08-.62.24-.146.153-.22.37-.22.65v1.37c0 .28.074.5.22.66.154.153.36.23.62.23zm1.08 0c.26 0 .464-.077.61-.23.154-.16.23-.38.23-.66v-1.37c0-.28-.076-.497-.23-.65-.146-.16-.35-.24-.61-.24v3.15zm5.456 1.28c-.486 0-.91-.09-1.27-.27a2.087 2.087 0 01-.84-.77 2.27 2.27 0 01-.29-1.16v-1.3c0-.44.097-.823.29-1.15a2 2 0 01.84-.77c.36-.187.784-.28 1.27-.28.494 0 .917.093 1.27.28.36.18.637.437.83.77.2.327.3.71.3 1.15v1.3c0 .44-.1.827-.3 1.16-.193.327-.47.583-.83.77-.353.18-.776.27-1.27.27zm0-1.3c.294 0 .517-.077.67-.23.154-.16.23-.383.23-.67v-1.3c0-.293-.076-.517-.23-.67-.153-.153-.376-.23-.67-.23-.286 0-.51.077-.67.23-.153.153-.23.377-.23.67v1.3c0 .287.077.51.23.67.16.153.384.23.67.23zm3.657 3v-7.3h1.45v1.05h.35l-.35.35c0-.473.13-.84.39-1.1.26-.267.616-.4 1.07-.4.553 0 .996.197 1.33.59.333.387.5.907.5 1.56v1.4c0 .433-.077.813-.23 1.14-.147.32-.357.57-.63.75-.274.173-.597.26-.97.26-.454 0-.81-.13-1.07-.39-.26-.267-.39-.637-.39-1.11l.35.35h-.35l.05 1.35v1.5h-1.5zm2.37-3c.28 0 .493-.077.64-.23.153-.16.23-.383.23-.67v-1.3c0-.293-.077-.517-.23-.67-.147-.153-.36-.23-.64-.23-.274 0-.487.08-.64.24-.154.153-.23.373-.23.66v1.3c0 .287.076.51.23.67.153.153.366.23.64.23zm3.386 1.2v-5.5h1.69l.65 2.05c.073.233.13.447.17.64.046.187.073.327.08.42.013-.093.036-.233.07-.42.04-.193.096-.407.17-.64l.64-2.05h1.69v5.5h-1.37v-1c0-.22.003-.467.01-.74l.04-.86c.02-.3.036-.587.05-.86.02-.28.04-.527.06-.74l-.73 2.65h-1.27l-.77-2.65c.026.273.053.6.08.98.033.38.06.767.08 1.16.02.387.03.74.03 1.06v1h-1.37zm5.786.07v-1.35h.3a.522.522 0 00.43-.22c.113-.147.173-.34.18-.58l.06-3.42h4.16v5.5h-1.5v-4.1h-1.19l-.04 2.12a2.279 2.279 0 01-.27 1.08c-.167.307-.4.547-.7.72-.294.167-.637.25-1.03.25h-.4zm8.796.03c-.487 0-.914-.09-1.28-.27a2.087 2.087 0 01-.84-.77 2.263 2.263 0 01-.29-1.16v-1.3c0-.44.096-.823.29-1.15a2 2 0 01.84-.77c.366-.187.793-.28 1.28-.28.486 0 .906.093 1.26.28.36.18.636.437.83.77.2.327.3.71.3 1.15v1h-3.37v.3c0 .347.083.61.25.79.166.173.416.26.75.26.233 0 .42-.04.56-.12a.585.585 0 00.29-.33h1.47c-.12.48-.394.867-.82 1.16-.42.293-.927.44-1.52.44zm.96-3.27v-.25c0-.34-.08-.6-.24-.78-.154-.18-.394-.27-.72-.27-.327 0-.574.093-.74.28-.16.187-.24.45-.24.79v.15l2.04-.02-.1.1zm2.686 3.17v-5.5h1.5v2.01h1.68v-2.01h1.5v5.5h-1.5v-2.09h-1.68V370h-1.5zm5.996 0v-5.5h1.32v2.5c0 .167-.01.377-.03.63-.02.247-.047.497-.08.75-.027.253-.057.477-.09.67l1.74-4.55h1.82v5.5h-1.32v-2.5c0-.173.01-.37.03-.59.02-.227.043-.453.07-.68.027-.227.053-.42.08-.58l-1.72 4.35h-1.82zm8.346.1c-.487 0-.913-.09-1.28-.27a2.087 2.087 0 01-.84-.77 2.273 2.273 0 01-.29-1.16v-1.3c0-.44.097-.823.29-1.15a2 2 0 01.84-.77c.367-.187.793-.28 1.28-.28s.907.093 1.26.28c.36.18.637.437.83.77.2.327.3.71.3 1.15v1h-3.37v.3c0 .347.083.61.25.79.167.173.417.26.75.26.233 0 .42-.04.56-.12a.582.582 0 00.29-.33h1.47c-.12.48-.393.867-.82 1.16-.42.293-.927.44-1.52.44zm.96-3.27v-.25c0-.34-.08-.6-.24-.78-.153-.18-.393-.27-.72-.27-.327 0-.573.093-.74.28-.16.187-.24.45-.24.79v.15l2.04-.02-.1.1zm10.742 3.24c-.613 0-1.123-.15-1.53-.45a1.843 1.843 0 01-.74-1.22h1.45a.662.662 0 00.29.37c.147.087.324.13.53.13h.57c.22 0 .394-.05.52-.15a.533.533 0 00.19-.43.494.494 0 00-.19-.41c-.126-.1-.3-.15-.52-.15h-1.29v-1.14h1.23c.207 0 .367-.043.48-.13a.464.464 0 00.17-.38.46.46 0 00-.3-.45.89.89 0 00-.35-.06h-.46a.921.921 0 00-.52.14.63.63 0 00-.28.36h-1.45c.087-.513.33-.92.73-1.22.4-.3.907-.45 1.52-.45h.46c.44 0 .82.063 1.14.19.32.12.567.293.74.52.174.22.26.483.26.79 0 .367-.14.663-.42.89-.273.227-.636.34-1.09.34v-.1c.494 0 .89.127 1.19.38.3.247.45.577.45.99 0 .5-.2.9-.6 1.2-.4.293-.936.44-1.61.44h-.57zm5.566.03c-.553 0-.993-.15-1.32-.45-.32-.3-.48-.707-.48-1.22 0-.553.19-.977.57-1.27.387-.3.94-.45 1.66-.45h1.14v-.41a.626.626 0 00-.23-.51c-.146-.127-.346-.19-.6-.19a.992.992 0 00-.58.16.66.66 0 00-.28.44h-1.45c.06-.553.3-.99.72-1.31.427-.327.974-.49 1.64-.49.7 0 1.254.173 1.66.52.414.34.62.8.62 1.38v3.7h-1.45v-.9h-.24l.25-.35c0 .413-.15.743-.45.99-.293.24-.686.36-1.18.36zm.56-1.1c.294 0 .534-.077.72-.23a.766.766 0 00.29-.62v-.59h-1.11a.767.767 0 00-.55.2.655.655 0 00-.21.51.68.68 0 00.23.54c.154.127.364.19.63.19zm3.836 1v-5.5h1.5v2.08h.74l1.15-2.08h1.67l-1.53 2.69 1.56 2.81h-1.7l-1.16-2.16h-.73V370h-1.5zm7.597.1c-.554 0-.994-.15-1.32-.45-.32-.3-.48-.707-.48-1.22 0-.553.19-.977.57-1.27.386-.3.94-.45 1.66-.45h1.14v-.41a.63.63 0 00-.23-.51c-.147-.127-.347-.19-.6-.19a.988.988 0 00-.58.16.652.652 0 00-.28.44h-1.45c.06-.553.3-.99.72-1.31.426-.327.973-.49 1.64-.49.7 0 1.253.173 1.66.52.413.34.62.8.62 1.38v3.7h-1.45v-.9h-.24l.25-.35c0 .413-.15.743-.45.99-.294.24-.687.36-1.18.36zm.56-1.1c.293 0 .533-.077.72-.23a.77.77 0 00.29-.62v-.59h-1.11a.765.765 0 00-.55.2.655.655 0 00-.21.51c0 .227.076.407.23.54.153.127.363.19.63.19zm5.866 1.07c-.614 0-1.124-.15-1.53-.45a1.835 1.835 0 01-.74-1.22h1.45a.654.654 0 00.29.37c.146.087.323.13.53.13h.57c.22 0 .393-.05.52-.15a.536.536 0 00.19-.43.496.496 0 00-.19-.41c-.127-.1-.3-.15-.52-.15h-1.29v-1.14h1.23c.206 0 .366-.043.48-.13a.467.467 0 00.17-.38.466.466 0 00-.08-.28.45.45 0 00-.22-.17.894.894 0 00-.35-.06h-.46a.919.919 0 00-.52.14.626.626 0 00-.28.36h-1.45c.086-.513.33-.92.73-1.22.4-.3.906-.45 1.52-.45h.46c.44 0 .82.063 1.14.19.32.12.566.293.74.52.173.22.26.483.26.79 0 .367-.14.663-.42.89-.274.227-.637.34-1.09.34v-.1c.493 0 .89.127 1.19.38.3.247.45.577.45.99 0 .5-.2.9-.6 1.2-.4.293-.937.44-1.61.44h-.57zm5.566.03c-.554 0-.994-.15-1.32-.45-.32-.3-.48-.707-.48-1.22 0-.553.19-.977.57-1.27.386-.3.94-.45 1.66-.45h1.14v-.41a.63.63 0 00-.23-.51c-.147-.127-.347-.19-.6-.19a.988.988 0 00-.58.16.652.652 0 00-.28.44h-1.45c.06-.553.3-.99.72-1.31.426-.327.973-.49 1.64-.49.7 0 1.253.173 1.66.52.413.34.62.8.62 1.38v3.7h-1.45v-.9h-.24l.25-.35c0 .413-.15.743-.45.99-.294.24-.687.36-1.18.36zm.56-1.1c.293 0 .533-.077.72-.23a.77.77 0 00.29-.62v-.59h-1.11a.765.765 0 00-.55.2.655.655 0 00-.21.51c0 .227.076.407.23.54.153.127.363.19.63.19zm6.146-2.8c-.3 0-.543-.083-.73-.25a.845.845 0 01-.27-.65c0-.273.09-.49.27-.65.187-.167.43-.25.73-.25s.54.083.72.25c.187.16.28.377.28.65a.83.83 0 01-.28.65c-.18.167-.42.25-.72.25zm0 3.9c-.3 0-.543-.083-.73-.25a.845.845 0 01-.27-.65c0-.273.09-.49.27-.65.187-.167.43-.25.73-.25s.54.083.72.25c.187.16.28.377.28.65a.83.83 0 01-.28.65c-.18.167-.42.25-.72.25zM254.139 192v-7.3h1.32v3.2c0 .227-.01.49-.03.79a35.882 35.882 0 01-.11 1.66l1.87-5.65h1.75v7.3h-1.32v-3c0-.233.007-.51.02-.83.02-.32.043-.643.07-.97l.07-.85-1.89 5.65h-1.75zm6.056 0v-5.5h1.5v2.01h1.68v-2.01h1.5v5.5h-1.5v-2.09h-1.68V192h-1.5zm7.586 0v-4.1h-1.8v-1.4h5.1v1.4h-1.8v4.1h-1.5zm6.756.1c-.486 0-.913-.09-1.28-.27a2.087 2.087 0 01-.84-.77 2.273 2.273 0 01-.29-1.16v-1.3c0-.44.097-.823.29-1.15a2 2 0 01.84-.77c.367-.187.794-.28 1.28-.28.487 0 .907.093 1.26.28.36.18.637.437.83.77.2.327.3.71.3 1.15v1h-3.37v.3c0 .347.084.61.25.79.167.173.417.26.75.26.234 0 .42-.04.56-.12a.578.578 0 00.29-.33h1.47c-.12.48-.393.867-.82 1.16-.42.293-.926.44-1.52.44zm.96-3.27v-.25c0-.34-.08-.6-.24-.78-.153-.18-.393-.27-.72-.27-.326 0-.573.093-.74.28-.16.187-.24.45-.24.79v.15l2.04-.02-.1.1zm3.176 3.17v-5.5h4.2v1.4h-2.7v4.1h-1.5zm5.507 1.8v-7.3h1.45v1.05h.35l-.35.35c0-.473.13-.84.39-1.1.26-.267.616-.4 1.07-.4.553 0 .996.197 1.33.59.333.387.5.907.5 1.56v1.4c0 .433-.077.813-.23 1.14-.147.32-.357.57-.63.75-.274.173-.597.26-.97.26-.454 0-.81-.13-1.07-.39-.26-.267-.39-.637-.39-1.11l.35.35h-.35l.05 1.35v1.5h-1.5zm2.37-3c.28 0 .493-.077.64-.23.153-.16.23-.383.23-.67v-1.3c0-.293-.077-.517-.23-.67-.147-.153-.36-.23-.64-.23-.274 0-.487.08-.64.24-.154.153-.23.373-.23.66v1.3c0 .287.076.51.23.67.153.153.366.23.64.23zm5.256 1.3c-.554 0-.994-.15-1.32-.45-.32-.3-.48-.707-.48-1.22 0-.553.19-.977.57-1.27.386-.3.94-.45 1.66-.45h1.14v-.41a.63.63 0 00-.23-.51c-.147-.127-.347-.19-.6-.19a.988.988 0 00-.58.16.652.652 0 00-.28.44h-1.45c.06-.553.3-.99.72-1.31.426-.327.973-.49 1.64-.49.7 0 1.253.173 1.66.52.413.34.62.8.62 1.38v3.7h-1.45v-.9h-.24l.25-.35c0 .413-.15.743-.45.99-.294.24-.687.36-1.18.36zm.56-1.1c.293 0 .533-.077.72-.23a.77.77 0 00.29-.62v-.59h-1.11a.765.765 0 00-.55.2.655.655 0 00-.21.51c0 .227.076.407.23.54.153.127.363.19.63.19zm7.526 2.4V192h-3.72v-5.5h1.5v4.1h1.37v-4.1h1.5v4.1h.75v2.8h-1.4zm2.276-1.4v-5.5h1.32v2.5c0 .167-.01.377-.03.63-.02.247-.047.497-.08.75-.027.253-.057.477-.09.67l1.74-4.55h1.82v5.5h-1.32v-2.5c0-.173.01-.37.03-.59.02-.227.043-.453.07-.68.026-.227.053-.42.08-.58l-1.72 4.35h-1.82zm5.836 0l1.2-1.93a1.722 1.722 0 01-.83-.63 1.72 1.72 0 01-.3-1.01c0-.607.203-1.08.61-1.42.407-.34.97-.51 1.69-.51h2.47v5.5h-1.49v-1.74h-.66l-1 1.74h-1.69zm2.46-2.88h.9v-1.43h-.9c-.28 0-.5.063-.66.19a.638.638 0 00-.24.53c0 .227.077.403.23.53.16.12.383.18.67.18zm9.692 2.88v-5.5h4.68v5.5h-1.5v-4.1h-1.68v4.1h-1.5zm5.546.07v-1.35h.3a.52.52 0 00.43-.22c.114-.147.174-.34.18-.58l.06-3.42h4.16v5.5h-1.5v-4.1h-1.19l-.04 2.12a2.256 2.256 0 01-.27 1.08 1.81 1.81 0 01-.7.72c-.293.167-.636.25-1.03.25h-.4zm8.076.03c-.553 0-.993-.15-1.32-.45-.32-.3-.48-.707-.48-1.22 0-.553.19-.977.57-1.27.387-.3.94-.45 1.66-.45h1.14v-.41a.626.626 0 00-.23-.51c-.146-.127-.346-.19-.6-.19a.992.992 0 00-.58.16.66.66 0 00-.28.44h-1.45c.06-.553.3-.99.72-1.31.427-.327.974-.49 1.64-.49.7 0 1.254.173 1.66.52.414.34.62.8.62 1.38v3.7h-1.45v-.9h-.24l.25-.35c0 .413-.15.743-.45.99-.293.24-.686.36-1.18.36zm.56-1.1c.294 0 .534-.077.72-.23a.766.766 0 00.29-.62v-.59h-1.11a.767.767 0 00-.55.2.655.655 0 00-.21.51.68.68 0 00.23.54c.154.127.364.19.63.19zm5.396 1v-4.1h-1.8v-1.4h5.1v1.4h-1.8v4.1h-1.5zm6.756.1c-.486 0-.913-.09-1.28-.27a2.087 2.087 0 01-.84-.77 2.273 2.273 0 01-.29-1.16v-1.3c0-.44.097-.823.29-1.15a2 2 0 01.84-.77c.367-.187.794-.28 1.28-.28.487 0 .907.093 1.26.28.36.18.637.437.83.77.2.327.3.71.3 1.15v1h-3.37v.3c0 .347.084.61.25.79.167.173.417.26.75.26.234 0 .42-.04.56-.12a.578.578 0 00.29-.33h1.47c-.12.48-.393.867-.82 1.16-.42.293-.926.44-1.52.44zm.96-3.27v-.25c0-.34-.08-.6-.24-.78-.153-.18-.393-.27-.72-.27-.326 0-.573.093-.74.28-.16.187-.24.45-.24.79v.15l2.04-.02-.1.1zm2.057 3.17l1.05-2.82-.97-2.68h1.3l.81 2.45h.27v-2.45h1.02v2.45h.27l.89-2.45h1.22l-.97 2.65 1.05 2.85h-1.26l-.92-2.55h-.28V192h-1.02v-2.55h-.29l-.84 2.55h-1.33zm6.626 0v-5.5h1.5v2.01h1.68v-2.01h1.5v5.5h-1.5v-2.09h-1.68V192h-1.5zm5.736 0v-5.5h1.25v1.75h.3c.593 0 1.066.173 1.42.52.353.347.53.81.53 1.39 0 .553-.18 1-.54 1.34-.354.333-.824.5-1.41.5h-1.55zm1.25-1.15h.3c.24 0 .423-.06.55-.18.133-.12.2-.293.2-.52 0-.24-.067-.423-.2-.55-.127-.133-.31-.2-.55-.2h-.3v1.45zm2.7 1.15v-5.5h1.25v5.5h-1.25zm1.906 0l1.9-2.85-1.77-2.65h1.67l.68 1.1c.053.087.103.183.15.29.047.107.083.193.11.26.027-.067.063-.153.11-.26.053-.107.103-.203.15-.29l.68-1.1h1.67l-1.76 2.65 1.89 2.85h-1.67l-.8-1.3c-.053-.093-.107-.19-.16-.29a9.244 9.244 0 01-.11-.26 4.16 4.16 0 01-.26.55l-.81 1.3h-1.67zm-72.181 13.1c-.487 0-.914-.09-1.28-.27a2.07 2.07 0 01-.85-.77c-.2-.333-.3-.72-.3-1.16v-1.3c0-.447.1-.833.3-1.16.2-.327.483-.58.85-.76.366-.187.793-.28 1.28-.28.726 0 1.306.183 1.74.55.433.367.663.867.69 1.5h-1.5a.756.756 0 00-.28-.55c-.16-.133-.377-.2-.65-.2-.3 0-.53.077-.69.23-.16.153-.24.377-.24.67v1.3c0 .287.08.51.24.67.16.153.39.23.69.23.273 0 .49-.063.65-.19a.765.765 0 00.28-.56h1.5c-.027.633-.257 1.133-.69 1.5-.434.367-1.014.55-1.74.55zm3.626-.1v-5.5h1.32v2.5c0 .167-.01.377-.03.63-.02.247-.047.497-.08.75-.027.253-.057.477-.09.67l1.74-4.55h1.82v5.5h-1.32v-2.5c0-.173.01-.37.03-.59.02-.227.043-.453.07-.68.026-.227.053-.42.08-.58l-1.72 4.35h-1.82zm8.366.1c-.487 0-.913-.09-1.28-.27a2.07 2.07 0 01-.85-.77c-.2-.333-.3-.72-.3-1.16v-1.3c0-.447.1-.833.3-1.16.2-.327.483-.58.85-.76.367-.187.793-.28 1.28-.28.727 0 1.307.183 1.74.55.433.367.663.867.69 1.5h-1.5a.752.752 0 00-.28-.55c-.16-.133-.377-.2-.65-.2-.3 0-.53.077-.69.23-.16.153-.24.377-.24.67v1.3c0 .287.08.51.24.67.16.153.39.23.69.23.273 0 .49-.063.65-.19a.761.761 0 00.28-.56h1.5c-.027.633-.257 1.133-.69 1.5-.433.367-1.013.55-1.74.55zm5.216-.1v-4.1h-1.8v-1.4h5.1v1.4h-1.8v4.1h-1.5zm6.756.1c-.487 0-.913-.09-1.28-.27a2.087 2.087 0 01-.84-.77 2.273 2.273 0 01-.29-1.16v-1.3c0-.44.097-.823.29-1.15a2 2 0 01.84-.77c.367-.187.793-.28 1.28-.28s.907.093 1.26.28c.36.18.637.437.83.77.2.327.3.71.3 1.15v1h-3.37v.3c0 .347.083.61.25.79.167.173.417.26.75.26.233 0 .42-.04.56-.12a.582.582 0 00.29-.33h1.47c-.12.48-.393.867-.82 1.16-.42.293-.927.44-1.52.44zm.96-3.27v-.25c0-.34-.08-.6-.24-.78-.153-.18-.393-.27-.72-.27-.327 0-.573.093-.74.28-.16.187-.24.45-.24.79v.15l2.04-.02-.1.1zm2.446 3.17v-5.5h1.69l.65 2.05c.073.233.13.447.17.64.047.187.073.327.08.42.013-.093.037-.233.07-.42.04-.193.097-.407.17-.64l.64-2.05h1.69v5.5h-1.37v-1c0-.22.003-.467.01-.74l.04-.86c.02-.3.037-.587.05-.86.02-.28.04-.527.06-.74l-.73 2.65h-1.27l-.77-2.65c.027.273.053.6.08.98.033.38.06.767.08 1.16.02.387.03.74.03 1.06v1h-1.37zm8.576-3.8c-.3 0-.543-.083-.73-.25a.845.845 0 01-.27-.65c0-.273.09-.49.27-.65.187-.167.43-.25.73-.25s.54.083.72.25c.187.16.28.377.28.65a.83.83 0 01-.28.65c-.18.167-.42.25-.72.25zm0 3.9c-.3 0-.543-.083-.73-.25a.845.845 0 01-.27-.65c0-.273.09-.49.27-.65.187-.167.43-.25.73-.25s.54.083.72.25c.187.16.28.377.28.65a.83.83 0 01-.28.65c-.18.167-.42.25-.72.25z" fill="#fff"/><path d="M79.511 135v-7.3h4.04v7.3h-.8v-6.58h-2.44V135h-.8zm5.986 1.8v-7.3h.79v.97h.21l-.24.33c0-.433.14-.773.42-1.02.287-.253.664-.38 1.13-.38.554 0 .994.183 1.32.55.334.36.5.853.5 1.48v1.63c0 .42-.076.783-.23 1.09-.153.3-.366.533-.64.7-.266.167-.583.25-.95.25-.46 0-.833-.127-1.12-.38-.286-.253-.43-.593-.43-1.02l.21.33h-.19l.01 1.12v1.65h-.79zm2.06-2.39c.4 0 .71-.12.93-.36.227-.24.34-.58.34-1.02v-1.56c0-.447-.113-.787-.34-1.02-.22-.24-.53-.36-.93-.36-.386 0-.696.123-.93.37-.226.24-.34.577-.34 1.01v1.56c0 .433.114.773.34 1.02.234.24.544.36.93.36zm5.966.69c-.426 0-.796-.083-1.11-.25a1.832 1.832 0 01-.73-.73 2.215 2.215 0 01-.26-1.09v-1.56c0-.42.087-.783.26-1.09.174-.313.417-.553.73-.72.314-.173.684-.26 1.11-.26.427 0 .797.087 1.11.26.314.167.557.407.73.72.174.307.26.67.26 1.09v.97h-3.42v.59c0 .447.114.793.34 1.04.234.24.56.36.98.36.354 0 .64-.07.86-.21a.926.926 0 00.43-.61h.79c-.073.46-.296.823-.67 1.09-.373.267-.843.4-1.41.4zm1.32-3.19v-.44c0-.447-.113-.79-.34-1.03-.226-.247-.553-.37-.98-.37-.42 0-.746.123-.98.37-.226.24-.34.583-.34 1.03v.35h2.72l-.08.09zm2.016 4.49v-2.08h.45c.114-.127.23-.353.35-.68.127-.333.194-.737.2-1.21l.06-2.93h3.501v4.82h.71v2.08h-.71V135h-3.85v1.4h-.71zm1.3-2.08h2.471v-4.11h-1.96l-.04 2.23c-.007.5-.064.91-.17 1.23-.107.32-.207.537-.3.65zm7.367.78c-.427 0-.8-.083-1.12-.25a1.833 1.833 0 01-.75-.71c-.174-.313-.26-.683-.26-1.11v-1.56c0-.427.086-.793.26-1.1.18-.313.43-.553.75-.72.32-.167.693-.25 1.12-.25.626 0 1.13.17 1.51.51.38.34.576.803.59 1.39h-.79c-.014-.38-.137-.673-.37-.88-.227-.207-.54-.31-.94-.31-.407 0-.73.12-.97.36-.24.233-.36.567-.36 1v1.56c0 .427.12.76.36 1s.563.36.97.36c.4 0 .713-.103.94-.31.233-.213.356-.507.37-.88h.79c-.014.587-.21 1.05-.59 1.39-.38.34-.884.51-1.51.51zm5.586-.1v-4.79h-2v-.71h4.8v.71h-2V135h-.8zm5.966.1c-.58 0-1.037-.147-1.37-.44-.334-.3-.5-.703-.5-1.21 0-.5.163-.893.49-1.18.326-.293.766-.44 1.32-.44h1.75v-.58c0-.367-.107-.65-.32-.85-.214-.2-.517-.3-.91-.3-.347 0-.637.077-.87.23a.85.85 0 00-.39.62h-.8a1.64 1.64 0 01.66-1.13c.38-.28.853-.42 1.42-.42.613 0 1.1.167 1.46.5.36.327.54.77.54 1.33V135h-.78v-1.07h-.13l.15-.16c0 .407-.157.73-.47.97-.314.24-.73.36-1.25.36zm.19-.64c.44 0 .8-.11 1.08-.33.28-.22.42-.507.42-.86v-.83h-1.74c-.314 0-.564.087-.75.26-.187.173-.28.41-.28.71 0 .32.113.577.34.77.226.187.536.28.93.28zm4.216.54v-5.5h2.36c.547 0 .977.13 1.29.39.313.253.47.607.47 1.06 0 .38-.13.687-.39.92-.253.227-.593.34-1.02.34v-.07c.46 0 .83.12 1.11.36.28.233.42.547.42.94 0 .487-.167.87-.5 1.15-.327.273-.78.41-1.36.41h-2.38zm.78-.7h1.6c.327 0 .587-.077.78-.23a.79.79 0 00.29-.64c0-.28-.097-.497-.29-.65-.193-.16-.453-.24-.78-.24h-1.6v1.76zm0-2.45h1.58c.293 0 .527-.073.7-.22a.733.733 0 00.27-.6.733.733 0 00-.27-.6c-.173-.153-.407-.23-.7-.23h-1.58v1.65zm4.516 3.22v-.75h.2c.287 0 .497-.117.63-.35.133-.24.203-.637.21-1.19l.07-3.28h3.63v5.5h-.8v-4.78h-2.05l-.06 2.59c-.007.52-.07.947-.19 1.28-.113.333-.287.58-.52.74-.227.16-.523.24-.89.24h-.23zm6.386-.07l1.4-2.13c-.427-.093-.757-.283-.99-.57-.233-.287-.35-.647-.35-1.08 0-.533.177-.953.53-1.26.36-.307.847-.46 1.46-.46h2.3v5.5h-.8v-2.06h-1.33l-1.3 2.06h-.92zm2.05-2.77h1.5v-2.02h-1.5c-.36 0-.647.09-.86.27-.213.18-.32.427-.32.74s.107.56.32.74c.213.18.5.27.86.27zm6.276 2.87c-.426 0-.796-.083-1.11-.25a1.838 1.838 0 01-.73-.73 2.219 2.219 0 01-.26-1.09v-1.56c0-.42.087-.783.26-1.09.174-.313.417-.553.73-.72.314-.173.684-.26 1.11-.26.427 0 .797.087 1.11.26.314.167.557.407.73.72.174.307.26.67.26 1.09v.97h-3.42v.59c0 .447.114.793.34 1.04.234.24.56.36.98.36.354 0 .64-.07.86-.21a.925.925 0 00.43-.61h.79c-.073.46-.296.823-.67 1.09-.373.267-.843.4-1.41.4zm1.32-3.19v-.44c0-.447-.113-.79-.34-1.03-.226-.247-.553-.37-.98-.37-.42 0-.746.123-.98.37-.226.24-.34.583-.34 1.03v.35h2.72l-.08.09zm2.476 3.09v-5.5h1.1l.8 2.24a14.54 14.54 0 01.32 1.06c.034-.113.077-.27.13-.47.06-.2.124-.4.19-.6l.77-2.23h1.09v5.5h-.77v-1.32c0-.287.004-.593.01-.92l.02-.98c.007-.327.017-.633.03-.92.014-.293.024-.55.03-.77l-1.09 3.26h-.84l-1.09-3.24c.014.267.024.603.03 1.01.007.4.014.823.02 1.27.014.447.02.877.02 1.29V135h-.77zm12.172 0v-5.5h2.36c.547 0 .977.13 1.29.39.314.253.47.607.47 1.06 0 .38-.13.687-.39.92-.253.227-.593.34-1.02.34v-.07c.46 0 .83.12 1.11.36.28.233.42.547.42.94 0 .487-.166.87-.5 1.15-.326.273-.78.41-1.36.41h-2.38zm.78-.7h1.6c.327 0 .587-.077.78-.23a.786.786 0 00.29-.64c0-.28-.096-.497-.29-.65-.193-.16-.453-.24-.78-.24h-1.6v1.76zm0-2.45h1.58c.294 0 .527-.073.7-.22a.733.733 0 00.27-.6.733.733 0 00-.27-.6c-.173-.153-.406-.23-.7-.23h-1.58v1.65zm6.807 3.25c-.58 0-1.037-.147-1.37-.44-.334-.3-.5-.703-.5-1.21 0-.5.163-.893.49-1.18.326-.293.766-.44 1.32-.44h1.75v-.58c0-.367-.107-.65-.32-.85-.214-.2-.517-.3-.91-.3-.347 0-.637.077-.87.23a.85.85 0 00-.39.62h-.8a1.64 1.64 0 01.66-1.13c.38-.28.853-.42 1.42-.42.613 0 1.1.167 1.46.5.36.327.54.77.54 1.33V135h-.78v-1.07h-.13l.15-.16c0 .407-.157.73-.47.97-.314.24-.73.36-1.25.36zm.19-.64c.44 0 .8-.11 1.08-.33.28-.22.42-.507.42-.86v-.83h-1.74c-.314 0-.564.087-.75.26-.187.173-.28.41-.28.71 0 .32.113.577.34.77.226.187.536.28.93.28zm3.926.54l-.02-5.5h.75v4.89h1.26v-4.89h.66v4.89h1.25v-4.89h.74v5.5h-4.64zm-106.05 13.1c-.58 0-1.037-.147-1.37-.44-.333-.3-.5-.703-.5-1.21 0-.5.163-.893.49-1.18.327-.293.767-.44 1.32-.44h1.75v-.58c0-.367-.107-.65-.32-.85-.213-.2-.517-.3-.91-.3-.347 0-.637.077-.87.23a.852.852 0 00-.39.62h-.8c.067-.473.287-.85.66-1.13.38-.28.853-.42 1.42-.42.613 0 1.1.167 1.46.5.36.327.54.77.54 1.33V148h-.78v-1.07h-.13l.15-.16c0 .407-.157.73-.47.97-.313.24-.73.36-1.25.36zm.19-.64c.44 0 .8-.11 1.08-.33.28-.22.42-.507.42-.86v-.83h-1.74c-.313 0-.563.087-.75.26-.187.173-.28.41-.28.71 0 .32.113.577.34.77.227.187.537.28.93.28zm6.246.64c-.427 0-.8-.083-1.12-.25a1.833 1.833 0 01-.75-.71c-.173-.313-.26-.683-.26-1.11v-1.56c0-.427.087-.793.26-1.1.18-.313.43-.553.75-.72.32-.167.693-.25 1.12-.25.627 0 1.13.17 1.51.51.38.34.577.803.59 1.39h-.79c-.013-.38-.137-.673-.37-.88-.227-.207-.54-.31-.94-.31-.407 0-.73.12-.97.36-.24.233-.36.567-.36 1v1.56c0 .427.12.76.36 1s.563.36.97.36c.4 0 .713-.103.94-.31.233-.213.357-.507.37-.88h.79c-.013.587-.21 1.05-.59 1.39-.38.34-.883.51-1.51.51zm5.996 0c-.427 0-.8-.083-1.12-.25a1.833 1.833 0 01-.75-.71c-.173-.313-.26-.683-.26-1.11v-1.56c0-.427.087-.793.26-1.1.18-.313.43-.553.75-.72.32-.167.694-.25 1.12-.25.627 0 1.13.17 1.51.51.38.34.577.803.59 1.39h-.79c-.013-.38-.136-.673-.37-.88-.227-.207-.54-.31-.94-.31-.407 0-.73.12-.97.36-.24.233-.36.567-.36 1v1.56c0 .427.12.76.36 1s.563.36.97.36c.4 0 .713-.103.94-.31.234-.213.357-.507.37-.88h.79c-.013.587-.21 1.05-.59 1.39-.38.34-.883.51-1.51.51zm5.986-.01c-.426 0-.796-.083-1.11-.25a1.77 1.77 0 01-.73-.72c-.173-.313-.26-.683-.26-1.11v-1.52c0-.433.087-.803.26-1.11a1.77 1.77 0 01.73-.72c.314-.167.684-.25 1.11-.25.427 0 .797.083 1.11.25.314.167.557.407.73.72.174.307.26.673.26 1.1v1.53c0 .427-.086.797-.26 1.11a1.771 1.771 0 01-.73.72c-.313.167-.683.25-1.11.25zm0-.71c.414 0 .734-.117.96-.35.227-.233.34-.573.34-1.02v-1.52c0-.447-.116-.787-.35-1.02-.226-.233-.543-.35-.95-.35-.406 0-.726.117-.96.35-.226.233-.34.573-.34 1.02v1.52c0 .447.114.787.34 1.02.234.233.554.35.96.35zm3.966 2.42v-7.3h.79v.97h.21l-.24.33c0-.433.14-.773.42-1.02.287-.253.664-.38 1.13-.38.554 0 .994.183 1.32.55.334.36.5.853.5 1.48v1.63c0 .42-.076.783-.23 1.09-.153.3-.366.533-.64.7-.266.167-.583.25-.95.25-.46 0-.833-.127-1.12-.38-.286-.253-.43-.593-.43-1.02l.21.33h-.19l.01 1.12v1.65h-.79zm2.06-2.39c.4 0 .71-.12.93-.36.227-.24.34-.58.34-1.02v-1.56c0-.447-.113-.787-.34-1.02-.22-.24-.53-.36-.93-.36-.386 0-.696.123-.93.37-.226.24-.34.577-.34 1.01v1.56c0 .433.114.773.34 1.02.234.24.544.36.93.36zm5.566.59v-4.79h-2v-.71h4.8v.71h-2V148h-.8zm4.376 0v-5.5h.77v3.13c0 .187-.006.387-.02.6a14.894 14.894 0 01-.07 1.06l2.331-4.79h1.03v5.5h-.77v-3.13c0-.193.003-.393.01-.6.013-.207.026-.403.04-.59.02-.193.033-.353.04-.48l-2.34 4.8H97.5zm5.817 0v-5.5h1.1l.8 2.24c.066.193.13.39.19.59.06.2.103.357.13.47.033-.113.076-.27.13-.47.06-.2.123-.4.19-.6l.77-2.23h1.09v5.5h-.77v-1.32c0-.287.003-.593.01-.92l.02-.98c.006-.327.016-.633.03-.92.013-.293.023-.55.03-.77l-1.09 3.26h-.84l-1.09-3.24c.013.267.023.603.03 1.01l.02 1.27c.013.447.02.877.02 1.29V148h-.77zm8.196.1c-.427 0-.797-.083-1.11-.25a1.825 1.825 0 01-.73-.73 2.208 2.208 0 01-.26-1.09v-1.56c0-.42.086-.783.26-1.09.173-.313.416-.553.73-.72.313-.173.683-.26 1.11-.26.426 0 .796.087 1.11.26.313.167.556.407.73.72.173.307.26.67.26 1.09v.97h-3.42v.59c0 .447.113.793.34 1.04.233.24.56.36.98.36.353 0 .64-.07.86-.21a.928.928 0 00.43-.61h.79a1.6 1.6 0 01-.67 1.09c-.374.267-.844.4-1.41.4zm1.32-3.19v-.44c0-.447-.114-.79-.34-1.03-.227-.247-.554-.37-.98-.37-.42 0-.747.123-.98.37-.227.24-.34.583-.34 1.03v.35h2.72l-.08.09zm2.656 3.09v-5.5h.8v2.34h2.44v-2.34h.8v5.5h-.8v-2.44h-2.44V148h-.8zm7.616 0v-4.79h-2v-.71h4.8v.71h-2V148h-.8zm10.372 0v-5.5h2.36c.547 0 .977.13 1.29.39.313.253.47.607.47 1.06 0 .38-.13.687-.39.92-.253.227-.593.34-1.02.34v-.07c.46 0 .83.12 1.11.36.28.233.42.547.42.94 0 .487-.167.87-.5 1.15-.327.273-.78.41-1.36.41h-2.38zm.78-.7h1.6c.327 0 .587-.077.78-.23a.79.79 0 00.29-.64c0-.28-.097-.497-.29-.65-.193-.16-.453-.24-.78-.24h-1.6v1.76zm0-2.45h1.58c.293 0 .527-.073.7-.22a.733.733 0 00.27-.6.733.733 0 00-.27-.6c-.173-.153-.407-.23-.7-.23h-1.58v1.65zm12.072 4.95l.81-2.15-2.04-5.15h.88l1.3 3.43c.054.133.104.283.15.45.054.16.094.293.12.4.034-.107.074-.243.12-.41.047-.167.094-.317.14-.45l1.22-3.42h.85l-2.71 7.3h-.84zm4.496-.4v-2.08h.45c.114-.127.23-.353.35-.68.127-.333.194-.737.2-1.21l.06-2.93h3.5v4.82h.71v2.08h-.71V148h-3.85v1.4h-.71zm1.3-2.08h2.47v-4.11h-1.96l-.04 2.23c-.006.5-.063.91-.17 1.23-.106.32-.206.537-.3.65zm7.356.77c-.426 0-.796-.083-1.11-.25a1.776 1.776 0 01-.73-.72c-.173-.313-.26-.683-.26-1.11v-1.52c0-.433.087-.803.26-1.11.174-.313.417-.553.73-.72.314-.167.684-.25 1.11-.25.427 0 .797.083 1.11.25.314.167.557.407.73.72.174.307.26.673.26 1.1v1.53c0 .427-.086.797-.26 1.11a1.765 1.765 0 01-.73.72c-.313.167-.683.25-1.11.25zm0-.71c.414 0 .734-.117.96-.35.227-.233.34-.573.34-1.02v-1.52c0-.447-.116-.787-.35-1.02-.226-.233-.543-.35-.95-.35-.406 0-.726.117-.96.35-.226.233-.34.573-.34 1.02v1.52c0 .447.114.787.34 1.02.234.233.554.35.96.35zm5.997.72c-.64 0-1.144-.19-1.51-.57-.367-.38-.55-.903-.55-1.57v-2.56c0-.867.216-1.533.65-2 .433-.467 1.053-.7 1.86-.7h1.36v.79h-1.36c-.56 0-.987.167-1.28.5-.294.327-.44.797-.44 1.41v.69h.14l-.14.24c.006-.4.14-.713.4-.94.266-.227.63-.34 1.09-.34.586 0 1.04.187 1.36.56.32.367.48.88.48 1.54v.81c0 .447-.084.83-.25 1.15-.16.32-.394.567-.7.74-.307.167-.677.25-1.11.25zm0-.71c.406 0 .72-.123.94-.37.22-.247.33-.6.33-1.06v-.81c0-.453-.11-.807-.33-1.06-.22-.253-.534-.38-.94-.38-.407 0-.72.127-.94.38-.22.253-.33.607-.33 1.06v.81c0 .46.11.813.33 1.06.226.247.54.37.94.37zm3.976.61v-5.5h.8v2.34h2.44v-2.34h.8v5.5h-.8v-2.44h-2.44V148h-.8zm8.016.09c-.427 0-.797-.083-1.11-.25a1.765 1.765 0 01-.73-.72c-.174-.313-.26-.683-.26-1.11v-1.52c0-.433.086-.803.26-1.11.173-.313.416-.553.73-.72.313-.167.683-.25 1.11-.25.426 0 .796.083 1.11.25.313.167.556.407.73.72.173.307.26.673.26 1.1v1.53c0 .427-.087.797-.26 1.11a1.776 1.776 0 01-.73.72c-.314.167-.684.25-1.11.25zm0-.71c.413 0 .733-.117.96-.35.226-.233.34-.573.34-1.02v-1.52c0-.447-.117-.787-.35-1.02-.227-.233-.544-.35-.95-.35-.407 0-.727.117-.96.35-.227.233-.34.573-.34 1.02v1.52c0 .447.113.787.34 1.02.233.233.553.35.96.35zm3.796.62v-5.5h1.1l.8 2.24a14.54 14.54 0 01.32 1.06c.033-.113.077-.27.13-.47.06-.2.123-.4.19-.6l.77-2.23h1.09v5.5h-.77v-1.32c0-.287.003-.593.01-.92l.02-.98c.007-.327.017-.633.03-.92.013-.293.023-.55.03-.77l-1.09 3.26h-.84l-1.09-3.24c.013.267.023.603.03 1.01l.02 1.27c.013.447.02.877.02 1.29V148h-.77zM61.523 161v-5.5h.77v3.13c0 .187-.007.387-.02.6a15.285 15.285 0 01-.07 1.06l2.33-4.79h1.03v5.5h-.77v-3.13c0-.193.003-.393.01-.6.013-.207.027-.403.04-.59.02-.193.033-.353.04-.48l-2.34 4.8h-1.02zm11.992 0v-5.5h4.04v5.5h-.8v-4.78h-2.44V161h-.8zm5.986 1.8v-7.3h.79v.97h.21l-.24.33c0-.433.14-.773.42-1.02.287-.253.664-.38 1.13-.38.554 0 .994.183 1.32.55.334.36.5.853.5 1.48v1.63c0 .42-.076.783-.23 1.09-.153.3-.366.533-.64.7-.266.167-.583.25-.95.25-.46 0-.833-.127-1.12-.38-.286-.253-.43-.593-.43-1.02l.21.33h-.19l.01 1.12v1.65h-.79zm2.06-2.39c.4 0 .71-.12.93-.36.227-.24.34-.58.34-1.02v-1.56c0-.447-.113-.787-.34-1.02-.22-.24-.53-.36-.93-.36-.386 0-.696.123-.93.37-.226.24-.34.577-.34 1.01v1.56c0 .433.114.773.34 1.02.234.24.544.36.93.36zm3.946.59v-5.5h.77v3.13c0 .187-.006.387-.02.6a14.894 14.894 0 01-.07 1.06l2.33-4.79h1.03v5.5h-.77v-3.13c0-.193.004-.393.01-.6l.04-.59c.02-.193.034-.353.04-.48l-2.34 4.8h-1.02zm5.996 0v-5.5h2.36c.547 0 .977.13 1.29.39.314.253.47.607.47 1.06 0 .38-.13.687-.39.92-.253.227-.593.34-1.02.34v-.07c.46 0 .83.12 1.11.36.28.233.42.547.42.94 0 .487-.166.87-.5 1.15-.326.273-.78.41-1.36.41h-2.38zm.78-.7h1.6c.327 0 .587-.077.78-.23a.788.788 0 00.29-.64c0-.28-.096-.497-.29-.65-.193-.16-.453-.24-.78-.24h-1.6v1.76zm0-2.45h1.58c.294 0 .527-.073.7-.22a.733.733 0 00.27-.6.733.733 0 00-.27-.6c-.173-.153-.406-.23-.7-.23h-1.58v1.65zm4.516 3.22v-.75h.2c.287 0 .497-.117.63-.35.134-.24.204-.637.21-1.19l.07-3.28h3.631v5.5h-.8v-4.78h-2.05l-.06 2.59c-.007.52-.07.947-.19 1.28-.114.333-.287.58-.52.74-.227.16-.524.24-.89.24h-.23zm8.717.03c-.427 0-.797-.083-1.11-.25a1.825 1.825 0 01-.73-.73 2.208 2.208 0 01-.26-1.09v-1.56c0-.42.086-.783.26-1.09.173-.313.416-.553.73-.72.313-.173.683-.26 1.11-.26.426 0 .796.087 1.11.26.313.167.556.407.73.72.173.307.26.67.26 1.09v.97h-3.42v.59c0 .447.113.793.34 1.04.233.24.56.36.98.36.353 0 .64-.07.86-.21a.928.928 0 00.43-.61h.79a1.6 1.6 0 01-.67 1.09c-.374.267-.844.4-1.41.4zm1.32-3.19v-.44c0-.447-.114-.79-.34-1.03-.227-.247-.554-.37-.98-.37-.42 0-.747.123-.98.37-.227.24-.34.583-.34 1.03v.35h2.72l-.08.09zm2.686 3.09v-5.5h.8v2.31h1.04l1.63-2.31h.91l-1.85 2.62 1.89 2.88h-.93l-1.65-2.5h-1.04v2.5h-.8zm7.556.1c-.58 0-1.037-.147-1.37-.44-.334-.3-.5-.703-.5-1.21 0-.5.163-.893.49-1.18.326-.293.766-.44 1.32-.44h1.75v-.58c0-.367-.107-.65-.32-.85-.214-.2-.517-.3-.91-.3-.347 0-.637.077-.87.23a.85.85 0 00-.39.62h-.8a1.64 1.64 0 01.66-1.13c.38-.28.853-.42 1.42-.42.613 0 1.1.167 1.46.5.36.327.54.77.54 1.33V161h-.78v-1.07h-.13l.15-.16c0 .407-.157.73-.47.97-.314.24-.73.36-1.25.36zm.19-.64c.44 0 .8-.11 1.08-.33.28-.22.42-.507.42-.86v-.83h-1.74c-.314 0-.564.087-.75.26-.187.173-.28.41-.28.71 0 .32.113.577.34.77.226.187.536.28.93.28zm5.836.54v-4.79h-2v-.71h4.8v.71h-2V161h-.8zm6.396.1c-.427 0-.797-.083-1.11-.25a1.831 1.831 0 01-.73-.73 2.219 2.219 0 01-.26-1.09v-1.56c0-.42.087-.783.26-1.09a1.77 1.77 0 01.73-.72c.313-.173.683-.26 1.11-.26.427 0 .797.087 1.11.26.313.167.557.407.73.72.173.307.26.67.26 1.09v.97h-3.42v.59c0 .447.113.793.34 1.04.233.24.56.36.98.36.353 0 .64-.07.86-.21a.925.925 0 00.43-.61h.79c-.073.46-.297.823-.67 1.09-.373.267-.843.4-1.41.4zm1.32-3.19v-.44c0-.447-.113-.79-.34-1.03-.227-.247-.553-.37-.98-.37-.42 0-.747.123-.98.37-.227.24-.34.583-.34 1.03v.35h2.72l-.08.09zm1.956 3.16v-.75h.2c.287 0 .497-.117.63-.35.133-.24.203-.637.21-1.19l.07-3.28h3.63v5.5h-.8v-4.78h-2.05l-.06 2.59c-.007.52-.07.947-.19 1.28-.113.333-.287.58-.52.74-.227.16-.523.24-.89.24h-.23zm6.746-.07v-5.5h.79v2.02h1.65c.614 0 1.097.157 1.45.47.36.307.54.73.54 1.27 0 .533-.18.957-.54 1.27-.353.313-.836.47-1.45.47h-2.44zm.79-.72h1.65c.38 0 .67-.087.87-.26.2-.18.3-.433.3-.76s-.1-.577-.3-.75c-.2-.18-.49-.27-.87-.27h-1.65v2.04zm5.156.72v-5.5h.8v2.34h2.44v-2.34h.8v5.5h-.8v-2.44h-2.44V161h-.8zm8.016.09c-.426 0-.796-.083-1.11-.25a1.776 1.776 0 01-.73-.72c-.173-.313-.26-.683-.26-1.11v-1.52c0-.433.087-.803.26-1.11.174-.313.417-.553.73-.72.314-.167.684-.25 1.11-.25.427 0 .797.083 1.11.25.314.167.557.407.73.72.174.307.26.673.26 1.1v1.53c0 .427-.086.797-.26 1.11a1.765 1.765 0 01-.73.72c-.313.167-.683.25-1.11.25zm0-.71c.414 0 .734-.117.96-.35.227-.233.34-.573.34-1.02v-1.52c0-.447-.116-.787-.35-1.02-.226-.233-.543-.35-.95-.35-.406 0-.726.117-.96.35-.226.233-.34.573-.34 1.02v1.52c0 .447.114.787.34 1.02.234.233.554.35.96.35zm3.796.62v-5.5h1.1l.8 2.24a14.54 14.54 0 01.32 1.06c.034-.113.077-.27.13-.47.06-.2.124-.4.19-.6l.77-2.23h1.09v5.5h-.77v-1.32c0-.287.004-.593.01-.92l.02-.98c.007-.327.017-.633.03-.92.014-.293.024-.55.03-.77l-1.09 3.26h-.84l-1.09-3.24c.014.267.024.603.03 1.01.007.4.014.823.02 1.27.014.447.02.877.02 1.29V161h-.77zm12.173 0v-5.5h2.36c.546 0 .976.13 1.29.39.313.253.47.607.47 1.06 0 .38-.13.687-.39.92-.254.227-.594.34-1.02.34v-.07c.46 0 .83.12 1.11.36.28.233.42.547.42.94 0 .487-.167.87-.5 1.15-.327.273-.78.41-1.36.41h-2.38zm.78-.7h1.6c.326 0 .586-.077.78-.23a.79.79 0 00.29-.64c0-.28-.097-.497-.29-.65-.194-.16-.454-.24-.78-.24h-1.6v1.76zm0-2.45h1.58c.293 0 .526-.073.7-.22a.733.733 0 00.27-.6.733.733 0 00-.27-.6c-.174-.153-.407-.23-.7-.23h-1.58v1.65zm5.216 3.15v-5.5h.77v3.13c0 .187-.007.387-.02.6a16.591 16.591 0 01-.07 1.06l2.33-4.79h1.03v5.5h-.77v-3.13c0-.193.003-.393.01-.6.013-.207.026-.403.04-.59.02-.193.033-.353.04-.48l-2.34 4.8h-1.02zm5.356 1.4v-2.08h.45c.113-.127.23-.353.35-.68.127-.333.193-.737.2-1.21l.06-2.93h3.5v4.82h.71v2.08h-.71V161h-3.85v1.4h-.71zm1.3-2.08h2.47v-4.11h-1.96l-.04 2.23c-.007.5-.063.91-.17 1.23-.107.32-.207.537-.3.65zm7.356.78c-.427 0-.797-.083-1.11-.25a1.831 1.831 0 01-.73-.73 2.219 2.219 0 01-.26-1.09v-1.56c0-.42.087-.783.26-1.09a1.77 1.77 0 01.73-.72c.313-.173.683-.26 1.11-.26.427 0 .797.087 1.11.26.313.167.557.407.73.72.173.307.26.67.26 1.09v.97h-3.42v.59c0 .447.113.793.34 1.04.233.24.56.36.98.36.353 0 .64-.07.86-.21a.925.925 0 00.43-.61h.79c-.073.46-.297.823-.67 1.09-.373.267-.843.4-1.41.4zm1.32-3.19v-.44c0-.447-.113-.79-.34-1.03-.227-.247-.553-.37-.98-.37-.42 0-.747.123-.98.37-.227.24-.34.583-.34 1.03v.35h2.72l-.08.09zM49.525 391v-7.3h4.04v7.3h-.8v-6.58h-2.44V391h-.8zm8.016.09c-.427 0-.797-.083-1.11-.25a1.77 1.77 0 01-.73-.72c-.173-.313-.26-.683-.26-1.11v-1.52c0-.433.087-.803.26-1.11a1.77 1.77 0 01.73-.72c.313-.167.683-.25 1.11-.25.427 0 .797.083 1.11.25.313.167.557.407.73.72.173.307.26.673.26 1.1v1.53c0 .427-.087.797-.26 1.11a1.77 1.77 0 01-.73.72c-.313.167-.683.25-1.11.25zm0-.71c.413 0 .733-.117.96-.35.227-.233.34-.573.34-1.02v-1.52c0-.447-.117-.787-.35-1.02-.227-.233-.543-.35-.95-.35-.407 0-.727.117-.96.35-.227.233-.34.573-.34 1.02v1.52c0 .447.113.787.34 1.02.233.233.553.35.96.35zm5.736.7c-.573 0-1.037-.123-1.39-.37a1.49 1.49 0 01-.64-1h.83c.053.193.183.353.39.48.213.12.483.18.81.18h.49c.34 0 .607-.083.8-.25.2-.173.3-.39.3-.65a.884.884 0 00-.28-.68c-.187-.173-.453-.26-.8-.26h-1.23v-.69h1.21c.313 0 .553-.08.72-.24a.806.806 0 00.26-.62.827.827 0 00-.12-.45.758.758 0 00-.35-.29 1.22 1.22 0 00-.53-.11h-.52c-.3 0-.547.067-.74.2a.793.793 0 00-.36.49h-.83c.067-.413.27-.75.61-1.01.347-.26.787-.39 1.32-.39h.52c.373 0 .697.063.97.19s.483.303.63.53c.153.227.23.493.23.8 0 .333-.103.61-.31.83-.2.213-.483.333-.85.36v.04c.44.027.763.157.97.39.207.227.31.54.31.94 0 .473-.177.857-.53 1.15-.347.287-.813.43-1.4.43h-.49zm4.236-.08v-5.5h2.36c.547 0 .977.13 1.29.39.314.253.47.607.47 1.06 0 .38-.13.687-.39.92-.253.227-.593.34-1.02.34v-.07c.46 0 .83.12 1.11.36.28.233.42.547.42.94 0 .487-.166.87-.5 1.15-.326.273-.78.41-1.36.41h-2.38zm.78-.7h1.6c.327 0 .587-.077.78-.23a.788.788 0 00.29-.64c0-.28-.096-.497-.29-.65-.193-.16-.453-.24-.78-.24h-1.6v1.76zm0-2.45h1.58c.293 0 .527-.073.7-.22a.733.733 0 00.27-.6.733.733 0 00-.27-.6c-.173-.153-.406-.23-.7-.23h-1.58v1.65zm7.236 3.24c-.426 0-.796-.083-1.11-.25a1.77 1.77 0 01-.73-.72c-.173-.313-.26-.683-.26-1.11v-1.52c0-.433.087-.803.26-1.11a1.77 1.77 0 01.73-.72c.314-.167.684-.25 1.11-.25.427 0 .797.083 1.11.25.314.167.557.407.73.72.174.307.26.673.26 1.1v1.53c0 .427-.086.797-.26 1.11a1.77 1.77 0 01-.73.72c-.313.167-.683.25-1.11.25zm0-.71c.414 0 .734-.117.96-.35.227-.233.34-.573.34-1.02v-1.52c0-.447-.116-.787-.35-1.02-.226-.233-.543-.35-.95-.35-.406 0-.726.117-.96.35-.226.233-.34.573-.34 1.02v1.52c0 .447.114.787.34 1.02.234.233.554.35.96.35zm3.276.69v-.75h.2c.287 0 .497-.117.63-.35.134-.24.204-.637.21-1.19l.07-3.28h3.63v5.5h-.8v-4.78h-2.05l-.06 2.59c-.006.52-.07.947-.19 1.28-.113.333-.286.58-.52.74-.226.16-.523.24-.89.24h-.23zm6.386-.07l1.4-2.13c-.426-.093-.756-.283-.99-.57-.233-.287-.35-.647-.35-1.08 0-.533.177-.953.53-1.26.36-.307.847-.46 1.46-.46h2.3v5.5h-.8v-2.06h-1.33l-1.3 2.06h-.92zm2.05-2.77h1.5v-2.02h-1.5c-.36 0-.646.09-.86.27-.213.18-.32.427-.32.74s.107.56.32.74c.214.18.5.27.86.27zm6.277 2.87c-.427 0-.797-.083-1.11-.25a1.83 1.83 0 01-.73-.73 2.214 2.214 0 01-.26-1.09v-1.56c0-.42.086-.783.26-1.09a1.77 1.77 0 01.73-.72c.313-.173.683-.26 1.11-.26.426 0 .796.087 1.11.26.313.167.556.407.73.72.173.307.26.67.26 1.09v.97h-3.42v.59c0 .447.113.793.34 1.04.233.24.56.36.98.36.353 0 .64-.07.86-.21a.926.926 0 00.43-.61h.79a1.6 1.6 0 01-.67 1.09c-.374.267-.844.4-1.41.4zm1.32-3.19v-.44c0-.447-.114-.79-.34-1.03-.227-.247-.554-.37-.98-.37-.42 0-.747.123-.98.37-.227.24-.34.583-.34 1.03v.35h2.72l-.08.09zm2.476 3.09v-5.5h1.1l.8 2.24c.066.193.13.39.19.59.06.2.103.357.13.47.033-.113.076-.27.13-.47.06-.2.123-.4.19-.6l.77-2.23h1.09v5.5h-.77v-1.32c0-.287.003-.593.01-.92l.02-.98c.006-.327.016-.633.03-.92.013-.293.023-.55.03-.77l-1.09 3.26h-.84l-1.09-3.24c.013.267.023.603.03 1.01l.02 1.27c.013.447.02.877.02 1.29V391h-.77zm12.172 0v-5.5h4.04v5.5h-.8v-4.78h-2.44V391h-.8zm8.016.09c-.427 0-.797-.083-1.11-.25a1.77 1.77 0 01-.73-.72c-.173-.313-.26-.683-.26-1.11v-1.52c0-.433.087-.803.26-1.11a1.77 1.77 0 01.73-.72c.313-.167.683-.25 1.11-.25.427 0 .797.083 1.11.25.313.167.557.407.73.72.173.307.26.673.26 1.1v1.53c0 .427-.087.797-.26 1.11a1.77 1.77 0 01-.73.72c-.313.167-.683.25-1.11.25zm0-.71c.413 0 .733-.117.96-.35.227-.233.34-.573.34-1.02v-1.52c0-.447-.117-.787-.35-1.02-.227-.233-.543-.35-.95-.35-.407 0-.727.117-.96.35-.227.233-.34.573-.34 1.02v1.52c0 .447.113.787.34 1.02.233.233.553.35.96.35zm3.276.69v-.75h.2c.287 0 .497-.117.63-.35.133-.24.203-.637.21-1.19l.07-3.28h3.63v5.5h-.8v-4.78h-2.05l-.06 2.59c-.007.52-.07.947-.19 1.28-.113.333-.287.58-.52.74-.227.16-.523.24-.89.24h-.23zm6.746-.07v-5.5h.79v2.02h1.65c.613 0 1.097.157 1.45.47.36.307.54.73.54 1.27 0 .533-.18.957-.54 1.27-.353.313-.837.47-1.45.47h-2.44zm.79-.72h1.65c.38 0 .67-.087.87-.26.2-.18.3-.433.3-.76s-.1-.577-.3-.75c-.2-.18-.49-.27-.87-.27h-1.65v2.04zm6.916.8c-.573 0-1.036-.123-1.39-.37a1.493 1.493 0 01-.64-1h.83c.054.193.184.353.39.48.214.12.484.18.81.18h.49c.34 0 .607-.083.8-.25.2-.173.3-.39.3-.65a.883.883 0 00-.28-.68c-.186-.173-.453-.26-.8-.26h-1.23v-.69h1.21c.314 0 .554-.08.72-.24a.804.804 0 00.26-.62.827.827 0 00-.12-.45.754.754 0 00-.35-.29 1.218 1.218 0 00-.53-.11h-.52c-.3 0-.546.067-.74.2a.795.795 0 00-.36.49h-.83c.067-.413.27-.75.61-1.01.347-.26.787-.39 1.32-.39h.52c.374 0 .697.063.97.19.274.127.484.303.63.53.154.227.23.493.23.8 0 .333-.103.61-.31.83-.2.213-.483.333-.85.36v.04c.44.027.764.157.97.39.207.227.31.54.31.94 0 .473-.176.857-.53 1.15-.346.287-.813.43-1.4.43h-.49zm6.256.01c-.426 0-.796-.083-1.11-.25a1.776 1.776 0 01-.73-.72c-.173-.313-.26-.683-.26-1.11v-1.52c0-.433.087-.803.26-1.11.174-.313.417-.553.73-.72.314-.167.684-.25 1.11-.25.427 0 .797.083 1.11.25.314.167.557.407.73.72.174.307.26.673.26 1.1v1.53c0 .427-.086.797-.26 1.11a1.765 1.765 0 01-.73.72c-.313.167-.683.25-1.11.25zm0-.71c.414 0 .734-.117.96-.35.227-.233.34-.573.34-1.02v-1.52c0-.447-.116-.787-.35-1.02-.226-.233-.543-.35-.95-.35-.406 0-.726.117-.96.35-.226.233-.34.573-.34 1.02v1.52c0 .447.114.787.34 1.02.234.233.554.35.96.35zm3.976.62v-5.5h2.36c.547 0 .977.13 1.29.39.314.253.47.607.47 1.06 0 .38-.13.687-.39.92-.253.227-.593.34-1.02.34v-.07c.46 0 .83.12 1.11.36.28.233.42.547.42.94 0 .487-.166.87-.5 1.15-.326.273-.78.41-1.36.41h-2.38zm.78-.7h1.6c.327 0 .587-.077.78-.23a.786.786 0 00.29-.64c0-.28-.096-.497-.29-.65-.193-.16-.453-.24-.78-.24h-1.6v1.76zm0-2.45h1.58c.294 0 .527-.073.7-.22a.733.733 0 00.27-.6.733.733 0 00-.27-.6c-.173-.153-.406-.23-.7-.23h-1.58v1.65zm6.807 3.25c-.58 0-1.037-.147-1.37-.44-.334-.3-.5-.703-.5-1.21 0-.5.163-.893.49-1.18.326-.293.766-.44 1.32-.44h1.75v-.58c0-.367-.107-.65-.32-.85-.214-.2-.517-.3-.91-.3-.347 0-.637.077-.87.23a.85.85 0 00-.39.62h-.8a1.64 1.64 0 01.66-1.13c.38-.28.853-.42 1.42-.42.613 0 1.1.167 1.46.5.36.327.54.77.54 1.33V391h-.78v-1.07h-.13l.15-.16c0 .407-.157.73-.47.97-.314.24-.73.36-1.25.36zm.19-.64c.44 0 .8-.11 1.08-.33.28-.22.42-.507.42-.86v-.83h-1.74c-.314 0-.564.087-.75.26-.187.173-.28.41-.28.71 0 .32.113.577.34.77.226.187.536.28.93.28zm5.836.54v-4.79h-2v-.71h4.8v.71h-2V391h-.8zm6.396.1c-.427 0-.797-.083-1.11-.25a1.825 1.825 0 01-.73-.73 2.208 2.208 0 01-.26-1.09v-1.56c0-.42.086-.783.26-1.09.173-.313.416-.553.73-.72.313-.173.683-.26 1.11-.26.426 0 .796.087 1.11.26.313.167.556.407.73.72.173.307.26.67.26 1.09v.97h-3.42v.59c0 .447.113.793.34 1.04.233.24.56.36.98.36.353 0 .64-.07.86-.21a.928.928 0 00.43-.61h.79a1.6 1.6 0 01-.67 1.09c-.374.267-.844.4-1.41.4zm1.32-3.19v-.44c0-.447-.114-.79-.34-1.03-.227-.247-.554-.37-.98-.37-.42 0-.747.123-.98.37-.227.24-.34.583-.34 1.03v.35h2.72l-.08.09zm1.956 3.16v-.75h.2c.286 0 .496-.117.63-.35.133-.24.203-.637.21-1.19l.07-3.28h3.63v5.5h-.8v-4.78h-2.05l-.06 2.59c-.007.52-.07.947-.19 1.28-.114.333-.287.58-.52.74-.227.16-.524.24-.89.24h-.23zm6.386-.07l1.4-2.13c-.427-.093-.757-.283-.99-.57-.233-.287-.35-.647-.35-1.08 0-.533.177-.953.53-1.26.36-.307.847-.46 1.46-.46h2.3v5.5h-.8v-2.06h-1.33l-1.3 2.06h-.92zm2.05-2.77h1.5v-2.02h-1.5c-.36 0-.647.09-.86.27-.213.18-.32.427-.32.74s.107.56.32.74c.213.18.5.27.86.27zm4.076 2.77v-5.5h1.1l.8 2.24a14.54 14.54 0 01.32 1.06c.033-.113.077-.27.13-.47.06-.2.123-.4.19-.6l.77-2.23h1.09v5.5h-.77v-1.32c0-.287.003-.593.01-.92l.02-.98c.007-.327.017-.633.03-.92.013-.293.023-.55.03-.77l-1.09 3.26h-.84l-1.09-3.24c.013.267.023.603.03 1.01l.02 1.27c.013.447.02.877.02 1.29V391h-.77zM48.557 404.1c-.427 0-.8-.083-1.12-.25a1.833 1.833 0 01-.75-.71c-.173-.313-.26-.683-.26-1.11v-1.56c0-.427.087-.793.26-1.1.18-.313.43-.553.75-.72.32-.167.693-.25 1.12-.25.627 0 1.13.17 1.51.51.38.34.577.803.59 1.39h-.79c-.014-.38-.137-.673-.37-.88-.227-.207-.54-.31-.94-.31-.407 0-.73.12-.97.36-.24.233-.36.567-.36 1v1.56c0 .427.12.76.36 1s.563.36.97.36c.4 0 .713-.103.94-.31.233-.213.356-.507.37-.88h.79c-.013.587-.21 1.05-.59 1.39-.38.34-.883.51-1.51.51zm5.986-.01c-.427 0-.797-.083-1.11-.25a1.77 1.77 0 01-.73-.72c-.173-.313-.26-.683-.26-1.11v-1.52c0-.433.087-.803.26-1.11a1.77 1.77 0 01.73-.72c.313-.167.683-.25 1.11-.25.427 0 .797.083 1.11.25.313.167.557.407.73.72.173.307.26.673.26 1.1v1.53c0 .427-.087.797-.26 1.11a1.771 1.771 0 01-.73.72c-.313.167-.683.25-1.11.25zm0-.71c.413 0 .733-.117.96-.35.227-.233.34-.573.34-1.02v-1.52c0-.447-.117-.787-.35-1.02-.227-.233-.543-.35-.95-.35-.407 0-.727.117-.96.35-.227.233-.34.573-.34 1.02v1.52c0 .447.113.787.34 1.02.233.233.553.35.96.35zm3.976.62v-5.5h2.36c.547 0 .977.13 1.29.39.313.253.47.607.47 1.06 0 .38-.13.687-.39.92-.253.227-.593.34-1.02.34v-.07c.46 0 .83.12 1.11.36.28.233.42.547.42.94 0 .487-.167.87-.5 1.15-.327.273-.78.41-1.36.41h-2.38zm.78-.7h1.6c.327 0 .587-.077.78-.23a.788.788 0 00.29-.64c0-.28-.097-.497-.29-.65-.193-.16-.453-.24-.78-.24h-1.6v1.76zm0-2.45h1.58c.293 0 .527-.073.7-.22a.733.733 0 00.27-.6.733.733 0 00-.27-.6c-.173-.153-.407-.23-.7-.23H59.3v1.65zm7.236 3.25c-.426 0-.796-.083-1.11-.25a1.83 1.83 0 01-.73-.73 2.214 2.214 0 01-.26-1.09v-1.56c0-.42.087-.783.26-1.09a1.77 1.77 0 01.73-.72c.314-.173.684-.26 1.11-.26.427 0 .797.087 1.11.26.314.167.557.407.73.72.174.307.26.67.26 1.09v.97h-3.42v.59c0 .447.114.793.34 1.04.233.24.56.36.98.36.353 0 .64-.07.86-.21a.926.926 0 00.43-.61h.79c-.073.46-.296.823-.67 1.09-.373.267-.843.4-1.41.4zm1.32-3.19v-.44c0-.447-.113-.79-.34-1.03-.227-.247-.553-.37-.98-.37-.42 0-.746.123-.98.37-.227.24-.34.583-.34 1.03v.35h2.72l-.08.09zm2.646 4.89v-7.3h.79v.97h.21l-.24.33c0-.433.14-.773.42-1.02.287-.253.664-.38 1.13-.38.554 0 .994.183 1.32.55.334.36.5.853.5 1.48v1.63c0 .42-.076.783-.23 1.09-.153.3-.366.533-.64.7-.266.167-.583.25-.95.25-.46 0-.833-.127-1.12-.38-.286-.253-.43-.593-.43-1.02l.21.33h-.19l.01 1.12v1.65h-.79zm2.06-2.39c.4 0 .71-.12.93-.36.227-.24.34-.58.34-1.02v-1.56c0-.447-.113-.787-.34-1.02-.22-.24-.53-.36-.93-.36-.386 0-.696.123-.93.37-.226.24-.34.577-.34 1.01v1.56c0 .433.114.773.34 1.02.234.24.544.36.93.36zm3.656.59l-.02-5.5h.75v4.89h1.26v-4.89h.66v4.89h1.25v-4.89h.74v5.5h-4.64zm7.876.1c-.58 0-1.036-.147-1.37-.44-.333-.3-.5-.703-.5-1.21 0-.5.164-.893.49-1.18.327-.293.767-.44 1.32-.44h1.75v-.58c0-.367-.106-.65-.32-.85-.213-.2-.516-.3-.91-.3-.346 0-.636.077-.87.23a.852.852 0 00-.39.62h-.8c.067-.473.287-.85.66-1.13.38-.28.854-.42 1.42-.42.614 0 1.1.167 1.46.5.36.327.54.77.54 1.33V404h-.78v-1.07h-.13l.15-.16c0 .407-.156.73-.47.97-.313.24-.73.36-1.25.36zm.19-.64c.44 0 .8-.11 1.08-.33.28-.22.42-.507.42-.86v-.83h-1.74c-.313 0-.563.087-.75.26-.186.173-.28.41-.28.71 0 .32.114.577.34.77.227.187.537.28.93.28zm5.837.54v-4.79h-2v-.71h4.8v.71h-2V404h-.8zm4.426 0v-5.5h.79v2.02h1.65c.613 0 1.096.157 1.45.47.36.307.54.73.54 1.27 0 .533-.18.957-.54 1.27-.354.313-.837.47-1.45.47h-2.44zm.79-.72h1.65c.38 0 .67-.087.87-.26.2-.18.3-.433.3-.76s-.1-.577-.3-.75c-.2-.18-.49-.27-.87-.27h-1.65v2.04zm11.152.72v-5.5h4.04v5.5h-.8v-4.78h-2.44V404h-.8zm8.016.09c-.427 0-.797-.083-1.11-.25a1.77 1.77 0 01-.73-.72c-.173-.313-.26-.683-.26-1.11v-1.52c0-.433.087-.803.26-1.11a1.77 1.77 0 01.73-.72c.313-.167.683-.25 1.11-.25.427 0 .797.083 1.11.25.313.167.557.407.73.72.173.307.26.673.26 1.1v1.53c0 .427-.087.797-.26 1.11a1.77 1.77 0 01-.73.72c-.313.167-.683.25-1.11.25zm0-.71c.413 0 .733-.117.96-.35.227-.233.34-.573.34-1.02v-1.52c0-.447-.117-.787-.35-1.02-.227-.233-.543-.35-.95-.35-.407 0-.727.117-.96.35-.227.233-.34.573-.34 1.02v1.52c0 .447.113.787.34 1.02.233.233.553.35.96.35zm4.006.62v-5.5h.8v2.31h1.04l1.63-2.31h.91l-1.85 2.62 1.89 2.88H122l-1.65-2.5h-1.04v2.5h-.8zm6.826 1.8l.81-2.15-2.04-5.15h.88l1.3 3.43c.053.133.103.283.15.45.053.16.093.293.12.4.033-.107.073-.243.12-.41.047-.167.093-.317.14-.45l1.22-3.42h.85l-2.71 7.3h-.84zm5.136-1.8v-5.5h4.04v5.5h-.8v-4.78h-2.44V404h-.8zm6.026 0v-5.5h.8v2.31h1.04l1.63-2.31h.91l-1.85 2.62 1.89 2.88h-.93l-1.65-2.5h-1.04v2.5h-.8zm5.966 0v-5.5h.77v3.13c0 .187-.006.387-.02.6-.006.207-.016.403-.03.59-.013.187-.026.343-.04.47l2.33-4.79h1.03v5.5h-.77v-3.13c0-.193.004-.393.01-.6l.04-.59c.02-.193.034-.353.04-.48l-2.34 4.8h-1.02zm11.993 0v-5.5h4.04v5.5h-.8v-4.78h-2.44V404h-.8zm5.986 1.8v-7.3h.79v.97h.21l-.24.33c0-.433.14-.773.42-1.02.286-.253.663-.38 1.13-.38.553 0 .993.183 1.32.55.333.36.5.853.5 1.48v1.63c0 .42-.077.783-.23 1.09-.154.3-.367.533-.64.7-.267.167-.584.25-.95.25-.46 0-.834-.127-1.12-.38-.287-.253-.43-.593-.43-1.02l.21.33h-.19l.01 1.12v1.65h-.79zm2.06-2.39c.4 0 .71-.12.93-.36.226-.24.34-.58.34-1.02v-1.56c0-.447-.114-.787-.34-1.02-.22-.24-.53-.36-.93-.36-.387 0-.697.123-.93.37-.227.24-.34.577-.34 1.01v1.56c0 .433.113.773.34 1.02.233.24.543.36.93.36zm3.636.59l1.4-2.13c-.427-.093-.757-.283-.99-.57-.234-.287-.35-.647-.35-1.08 0-.533.176-.953.53-1.26.36-.307.846-.46 1.46-.46h2.3v5.5h-.8v-2.06h-1.33l-1.3 2.06h-.92zm2.05-2.77h1.5v-2.02h-1.5c-.36 0-.647.09-.86.27-.214.18-.32.427-.32.74s.106.56.32.74c.213.18.5.27.86.27zm4.076 2.77v-5.5h1.1l.8 2.24a14.54 14.54 0 01.32 1.06c.033-.113.077-.27.13-.47.06-.2.123-.4.19-.6l.77-2.23h1.09v5.5h-.77v-1.32c0-.287.003-.593.01-.92l.02-.98c.007-.327.017-.633.03-.92.013-.293.023-.55.03-.77l-1.09 3.26h-.84l-1.09-3.24c.013.267.023.603.03 1.01l.02 1.27c.013.447.02.877.02 1.29V404h-.77zm8.196.09c-.427 0-.797-.083-1.11-.25a1.77 1.77 0 01-.73-.72c-.173-.313-.26-.683-.26-1.11v-1.52c0-.433.087-.803.26-1.11a1.77 1.77 0 01.73-.72c.313-.167.683-.25 1.11-.25.427 0 .797.083 1.11.25.313.167.557.407.73.72.173.307.26.673.26 1.1v1.53c0 .427-.087.797-.26 1.11a1.77 1.77 0 01-.73.72c-.313.167-.683.25-1.11.25zm0-.71c.413 0 .733-.117.96-.35.227-.233.34-.573.34-1.02v-1.52c0-.447-.117-.787-.35-1.02-.227-.233-.543-.35-.95-.35-.407 0-.727.117-.96.35-.227.233-.34.573-.34 1.02v1.52c0 .447.113.787.34 1.02.233.233.553.35.96.35zM82.503 417v-5.5h2.36c.547 0 .977.13 1.29.39.314.253.47.607.47 1.06 0 .38-.13.687-.39.92-.253.227-.593.34-1.02.34v-.07c.46 0 .83.12 1.11.36.28.233.42.547.42.94 0 .487-.166.87-.5 1.15-.326.273-.78.41-1.36.41h-2.38zm.78-.7h1.6c.327 0 .587-.077.78-.23a.788.788 0 00.29-.64c0-.28-.096-.497-.29-.65-.193-.16-.453-.24-.78-.24h-1.6v1.76zm0-2.45h1.58c.294 0 .527-.073.7-.22a.733.733 0 00.27-.6.733.733 0 00-.27-.6c-.173-.153-.406-.23-.7-.23h-1.58v1.65zM94.496 417v-5.5h4.04v5.5h-.8v-4.78h-2.44V417h-.8zm5.986 1.8v-7.3h.79v.97h.21l-.24.33c0-.433.14-.773.42-1.02.286-.253.663-.38 1.13-.38.553 0 .993.183 1.32.55.333.36.5.853.5 1.48v1.63c0 .42-.077.783-.23 1.09-.154.3-.367.533-.64.7-.267.167-.584.25-.95.25-.46 0-.834-.127-1.12-.38-.287-.253-.43-.593-.43-1.02l.21.33h-.19l.01 1.12v1.65h-.79zm2.06-2.39c.4 0 .71-.12.93-.36.226-.24.34-.58.34-1.02v-1.56c0-.447-.114-.787-.34-1.02-.22-.24-.53-.36-.93-.36-.387 0-.697.123-.93.37-.227.24-.34.577-.34 1.01v1.56c0 .433.113.773.34 1.02.233.24.543.36.93.36zm3.946.59v-5.5h.77v3.13c0 .187-.007.387-.02.6a16.591 16.591 0 01-.07 1.06l2.33-4.79h1.03v5.5h-.77v-3.13c0-.193.003-.393.01-.6.013-.207.026-.403.04-.59.02-.193.033-.353.04-.48l-2.34 4.8h-1.02zm5.296.07v-.75h.2c.287 0 .497-.117.63-.35.133-.24.203-.637.21-1.19l.07-3.28h3.63v5.5h-.8v-4.78h-2.05l-.06 2.59c-.007.52-.07.947-.19 1.28-.113.333-.287.58-.52.74-.227.16-.523.24-.89.24h-.23zm8.716.02c-.427 0-.797-.083-1.11-.25a1.77 1.77 0 01-.73-.72c-.173-.313-.26-.683-.26-1.11v-1.52c0-.433.087-.803.26-1.11a1.77 1.77 0 01.73-.72c.313-.167.683-.25 1.11-.25.427 0 .797.083 1.11.25.313.167.557.407.73.72.173.307.26.673.26 1.1v1.53c0 .427-.087.797-.26 1.11a1.77 1.77 0 01-.73.72c-.313.167-.683.25-1.11.25zm0-.71c.413 0 .733-.117.96-.35.227-.233.34-.573.34-1.02v-1.52c0-.447-.117-.787-.35-1.02-.227-.233-.543-.35-.95-.35-.407 0-.727.117-.96.35-.227.233-.34.573-.34 1.02v1.52c0 .447.113.787.34 1.02.233.233.553.35.96.35zm3.226.62l1.2-2.82-1.12-2.68h.77l.99 2.43h.59v-2.43h.68v2.43h.57l1.02-2.43h.76l-1.12 2.65 1.2 2.85h-.8l-1.03-2.53h-.6V417h-.68v-2.53h-.6l-1.05 2.53h-.78zm8.766.1c-.426 0-.796-.083-1.11-.25a1.838 1.838 0 01-.73-.73 2.219 2.219 0 01-.26-1.09v-1.56c0-.42.087-.783.26-1.09.174-.313.417-.553.73-.72.314-.173.684-.26 1.11-.26.427 0 .797.087 1.11.26.314.167.557.407.73.72.174.307.26.67.26 1.09v.97h-3.42v.59c0 .447.114.793.34 1.04.234.24.56.36.98.36.354 0 .64-.07.86-.21a.925.925 0 00.43-.61h.79c-.073.46-.296.823-.67 1.09-.373.267-.843.4-1.41.4zm1.32-3.19v-.44c0-.447-.113-.79-.34-1.03-.226-.247-.553-.37-.98-.37-.42 0-.746.123-.98.37-.226.24-.34.583-.34 1.03v.35h2.72l-.08.09zm2.656 3.09v-5.5h.8v2.34h2.44v-2.34h.8v5.5h-.8v-2.44h-2.44V417h-.8zm5.996 0v-5.5h.77v3.13c0 .187-.006.387-.02.6-.006.207-.016.403-.03.59-.013.187-.026.343-.04.47l2.33-4.79h1.03v5.5h-.77v-3.13c0-.193.004-.393.01-.6l.04-.59c.02-.193.034-.353.04-.48l-2.34 4.8h-1.02zm5.996 0v-5.5h.77v3.13c0 .187-.006.387-.02.6-.006.207-.016.403-.03.59-.013.187-.026.343-.04.47l2.33-4.79h1.03v5.5h-.77v-3.13c0-.193.004-.393.01-.6l.04-.59c.02-.193.034-.353.04-.48l-2.34 4.8h-1.02zm96.087-190.9c-.427 0-.797-.083-1.11-.25a1.735 1.735 0 01-.71-.71c-.167-.313-.25-.683-.25-1.11v-3.36c0-.427.083-.793.25-1.1.167-.313.403-.553.71-.72.313-.167.683-.25 1.11-.25.427 0 .793.083 1.1.25.313.167.553.407.72.72.167.307.25.673.25 1.1v3.36c0 .427-.083.797-.25 1.11a1.724 1.724 0 01-.72.71c-.307.167-.673.25-1.1.25zm0-.71c.413 0 .73-.117.95-.35.22-.24.33-.577.33-1.01v-3.36c0-.433-.113-.767-.34-1-.22-.24-.533-.36-.94-.36-.407 0-.723.12-.95.36-.22.233-.33.567-.33 1v3.36c0 .433.11.77.33 1.01.227.233.543.35.95.35zm5.996.71c-.64 0-1.143-.19-1.51-.57-.367-.38-.55-.903-.55-1.57v-2.56c0-.867.217-1.533.65-2 .433-.467 1.053-.7 1.86-.7h1.36v.79h-1.36c-.56 0-.987.167-1.28.5-.293.327-.44.797-.44 1.41v.69h.14l-.14.24c.007-.4.14-.713.4-.94.267-.227.63-.34 1.09-.34.587 0 1.04.187 1.36.56.32.367.48.88.48 1.54v.81c0 .447-.083.83-.25 1.15-.16.32-.393.567-.7.74-.307.167-.677.25-1.11.25zm0-.71c.407 0 .72-.123.94-.37.22-.247.33-.6.33-1.06v-.81c0-.453-.11-.807-.33-1.06-.22-.253-.533-.38-.94-.38-.407 0-.72.127-.94.38-.22.253-.33.607-.33 1.06v.81c0 .46.11.813.33 1.06.227.247.54.37.94.37zm5.996.71c-.427 0-.797-.083-1.11-.25a1.831 1.831 0 01-.73-.73 2.219 2.219 0 01-.26-1.09v-1.56c0-.42.087-.783.26-1.09a1.77 1.77 0 01.73-.72c.313-.173.683-.26 1.11-.26.427 0 .797.087 1.11.26.313.167.557.407.73.72.173.307.26.67.26 1.09v.97h-3.42v.59c0 .447.113.793.34 1.04.233.24.56.36.98.36.353 0 .64-.07.86-.21a.925.925 0 00.43-.61h.79c-.073.46-.297.823-.67 1.09-.373.267-.843.4-1.41.4zm1.32-3.19v-.44c0-.447-.113-.79-.34-1.03-.227-.247-.553-.37-.98-.37-.42 0-.747.123-.98.37-.227.24-.34.583-.34 1.03v.35h2.72l-.08.09zm4.686 3.19c-.427 0-.8-.083-1.12-.25a1.833 1.833 0 01-.75-.71c-.173-.313-.26-.683-.26-1.11v-1.56c0-.427.087-.793.26-1.1.18-.313.43-.553.75-.72.32-.167.693-.25 1.12-.25.627 0 1.13.17 1.51.51.38.34.577.803.59 1.39h-.79c-.013-.38-.137-.673-.37-.88-.227-.207-.54-.31-.94-.31-.407 0-.73.12-.97.36-.24.233-.36.567-.36 1v1.56c0 .427.12.76.36 1s.563.36.97.36c.4 0 .713-.103.94-.31.233-.213.357-.507.37-.88h.79c-.013.587-.21 1.05-.59 1.39-.38.34-.883.51-1.51.51zm3.966-.1v-5.5h4.04v5.5h-.8v-4.78h-2.44V226h-.8zm8.016.1c-.426 0-.796-.083-1.11-.25a1.838 1.838 0 01-.73-.73 2.219 2.219 0 01-.26-1.09v-1.56c0-.42.087-.783.26-1.09.174-.313.417-.553.73-.72.314-.173.684-.26 1.11-.26.427 0 .797.087 1.11.26.314.167.557.407.73.72.174.307.26.67.26 1.09v.97h-3.42v.59c0 .447.114.793.34 1.04.234.24.56.36.98.36.354 0 .64-.07.86-.21a.925.925 0 00.43-.61h.79c-.073.46-.296.823-.67 1.09-.373.267-.843.4-1.41.4zm1.32-3.19v-.44c0-.447-.113-.79-.34-1.03-.226-.247-.553-.37-.98-.37-.42 0-.746.123-.98.37-.226.24-.34.583-.34 1.03v.35h2.72l-.08.09zm5.846 3.09v-2.03a4.335 4.335 0 01-.5.08 8.7 8.7 0 01-.76.03c-.66.007-1.173-.157-1.54-.49-.36-.333-.54-.803-.54-1.41v-1.68h.79v1.68c0 .373.114.663.34.87.234.207.564.31.99.31.307 0 .567-.01.78-.03.214-.027.36-.05.44-.07v-2.76h.79v5.5h-.79zm2.807 0v-5.5h.77v3.13c0 .187-.007.387-.02.6a16.591 16.591 0 01-.07 1.06l2.33-4.79h1.03v5.5h-.77v-3.13c0-.193.003-.393.01-.6.013-.207.026-.403.04-.59.02-.193.033-.353.04-.48l-2.34 4.8h-1.02zm5.996 0v-5.5h2.36c.546 0 .976.13 1.29.39.313.253.47.607.47 1.06 0 .38-.13.687-.39.92-.254.227-.594.34-1.02.34v-.07c.46 0 .83.12 1.11.36.28.233.42.547.42.94 0 .487-.167.87-.5 1.15-.327.273-.78.41-1.36.41h-2.38zm.78-.7h1.6c.326 0 .586-.077.78-.23a.79.79 0 00.29-.64c0-.28-.097-.497-.29-.65-.194-.16-.454-.24-.78-.24h-1.6v1.76zm0-2.45h1.58c.293 0 .526-.073.7-.22a.733.733 0 00.27-.6.733.733 0 00-.27-.6c-.174-.153-.407-.23-.7-.23h-1.58v1.65zm6.806 3.25c-.58 0-1.037-.147-1.37-.44-.334-.3-.5-.703-.5-1.21 0-.5.163-.893.49-1.18.326-.293.766-.44 1.32-.44h1.75v-.58c0-.367-.107-.65-.32-.85-.214-.2-.517-.3-.91-.3-.347 0-.637.077-.87.23a.85.85 0 00-.39.62h-.8a1.64 1.64 0 01.66-1.13c.38-.28.853-.42 1.42-.42.613 0 1.1.167 1.46.5.36.327.54.77.54 1.33V226h-.78v-1.07h-.13l.15-.16c0 .407-.157.73-.47.97-.314.24-.73.36-1.25.36zm.19-.64c.44 0 .8-.11 1.08-.33.28-.22.42-.507.42-.86v-.83h-1.74c-.314 0-.564.087-.75.26-.187.173-.28.41-.28.71 0 .32.113.577.34.77.226.187.536.28.93.28zm6.236.64c-.427 0-.797-.083-1.11-.25a1.825 1.825 0 01-.73-.73 2.208 2.208 0 01-.26-1.09v-1.56c0-.42.086-.783.26-1.09.173-.313.416-.553.73-.72.313-.173.683-.26 1.11-.26.426 0 .796.087 1.11.26.313.167.556.407.73.72.173.307.26.67.26 1.09v.97h-3.42v.59c0 .447.113.793.34 1.04.233.24.56.36.98.36.353 0 .64-.07.86-.21a.928.928 0 00.43-.61h.79a1.6 1.6 0 01-.67 1.09c-.374.267-.844.4-1.41.4zm1.32-3.19v-.44c0-.447-.114-.79-.34-1.03-.227-.247-.554-.37-.98-.37-.42 0-.747.123-.98.37-.227.24-.34.583-.34 1.03v.35h2.72l-.08.09zm2.476 3.09v-5.5h1.1l.8 2.24a14.54 14.54 0 01.32 1.06c.033-.113.077-.27.13-.47.06-.2.123-.4.19-.6l.77-2.23h1.09v5.5h-.77v-1.32c0-.287.003-.593.01-.92l.02-.98c.007-.327.017-.633.03-.92.013-.293.023-.55.03-.77l-1.09 3.26h-.84l-1.09-3.24c.013.267.023.603.03 1.01l.02 1.27c.013.447.02.877.02 1.29V226h-.77zm14.192.1c-.64 0-1.143-.19-1.51-.57-.367-.38-.55-.903-.55-1.57v-2.56c0-.867.217-1.533.65-2 .433-.467 1.053-.7 1.86-.7h1.36v.79h-1.36c-.56 0-.987.167-1.28.5-.293.327-.44.797-.44 1.41v.69h.14l-.14.24c.007-.4.14-.713.4-.94.267-.227.63-.34 1.09-.34.587 0 1.04.187 1.36.56.32.367.48.88.48 1.54v.81c0 .447-.083.83-.25 1.15-.16.32-.393.567-.7.74-.307.167-.677.25-1.11.25zm0-.71c.407 0 .72-.123.94-.37.22-.247.33-.6.33-1.06v-.81c0-.453-.11-.807-.33-1.06-.22-.253-.533-.38-.94-.38-.407 0-.72.127-.94.38-.22.253-.33.607-.33 1.06v.81c0 .46.11.813.33 1.06.227.247.54.37.94.37zm5.996.71c-.426 0-.796-.083-1.11-.25a1.838 1.838 0 01-.73-.73 2.219 2.219 0 01-.26-1.09v-1.56c0-.42.087-.783.26-1.09.174-.313.417-.553.73-.72.314-.173.684-.26 1.11-.26.427 0 .797.087 1.11.26.314.167.557.407.73.72.174.307.26.67.26 1.09v.97h-3.42v.59c0 .447.114.793.34 1.04.234.24.56.36.98.36.354 0 .64-.07.86-.21a.925.925 0 00.43-.61h.79c-.073.46-.296.823-.67 1.09-.373.267-.843.4-1.41.4zm1.32-3.19v-.44c0-.447-.113-.79-.34-1.03-.226-.247-.553-.37-.98-.37-.42 0-.746.123-.98.37-.226.24-.34.583-.34 1.03v.35h2.72l-.08.09zm4.416 3.17c-.573 0-1.036-.123-1.39-.37a1.493 1.493 0 01-.64-1h.83c.054.193.184.353.39.48.214.12.484.18.81.18h.49c.34 0 .607-.083.8-.25.2-.173.3-.39.3-.65a.883.883 0 00-.28-.68c-.186-.173-.453-.26-.8-.26h-1.23v-.69h1.21c.314 0 .554-.08.72-.24a.804.804 0 00.26-.62.827.827 0 00-.12-.45.754.754 0 00-.35-.29 1.218 1.218 0 00-.53-.11h-.52c-.3 0-.546.067-.74.2a.795.795 0 00-.36.49h-.83c.067-.413.27-.75.61-1.01.347-.26.787-.39 1.32-.39h.52c.374 0 .697.063.97.19.274.127.484.303.63.53.154.227.23.493.23.8 0 .333-.103.61-.31.83-.2.213-.483.333-.85.36v.04c.44.027.764.157.97.39.207.227.31.54.31.94 0 .473-.176.857-.53 1.15-.346.287-.813.43-1.4.43h-.49zm6.256.01c-.426 0-.796-.083-1.11-.25a1.776 1.776 0 01-.73-.72c-.173-.313-.26-.683-.26-1.11v-1.52c0-.433.087-.803.26-1.11.174-.313.417-.553.73-.72.314-.167.684-.25 1.11-.25.427 0 .797.083 1.11.25.314.167.557.407.73.72.174.307.26.673.26 1.1v1.53c0 .427-.086.797-.26 1.11a1.765 1.765 0 01-.73.72c-.313.167-.683.25-1.11.25zm0-.71c.414 0 .734-.117.96-.35.227-.233.34-.573.34-1.02v-1.52c0-.447-.116-.787-.35-1.02-.226-.233-.543-.35-.95-.35-.406 0-.726.117-.96.35-.226.233-.34.573-.34 1.02v1.52c0 .447.114.787.34 1.02.234.233.554.35.96.35zm3.976.62v-5.5h4.04v5.5h-.8v-4.78h-2.44V226h-.8zm7.587.1c-.58 0-1.037-.147-1.37-.44-.334-.3-.5-.703-.5-1.21 0-.5.163-.893.49-1.18.326-.293.766-.44 1.32-.44h1.75v-.58c0-.367-.107-.65-.32-.85-.214-.2-.517-.3-.91-.3-.347 0-.637.077-.87.23a.85.85 0 00-.39.62h-.8a1.64 1.64 0 01.66-1.13c.38-.28.853-.42 1.42-.42.613 0 1.1.167 1.46.5.36.327.54.77.54 1.33V226h-.78v-1.07h-.13l.15-.16c0 .407-.157.73-.47.97-.314.24-.73.36-1.25.36zm.19-.64c.44 0 .8-.11 1.08-.33.28-.22.42-.507.42-.86v-.83h-1.74c-.314 0-.564.087-.75.26-.187.173-.28.41-.28.71 0 .32.113.577.34.77.226.187.536.28.93.28zm6.246.64c-.427 0-.8-.083-1.12-.25a1.833 1.833 0 01-.75-.71c-.174-.313-.26-.683-.26-1.11v-1.56c0-.427.086-.793.26-1.1.18-.313.43-.553.75-.72.32-.167.693-.25 1.12-.25.626 0 1.13.17 1.51.51.38.34.576.803.59 1.39h-.79c-.014-.38-.137-.673-.37-.88-.227-.207-.54-.31-.94-.31-.407 0-.73.12-.97.36-.24.233-.36.567-.36 1v1.56c0 .427.12.76.36 1s.563.36.97.36c.4 0 .713-.103.94-.31.233-.213.356-.507.37-.88h.79c-.014.587-.21 1.05-.59 1.39-.38.34-.884.51-1.51.51zm3.966-.1v-5.5h.8v2.34h2.44v-2.34h.8v5.5h-.8v-2.44h-2.44V226h-.8zm5.706 0v-5.5h.75v2.04h.49c.587 0 1.05.157 1.39.47.347.307.52.727.52 1.26s-.17.957-.51 1.27c-.34.307-.807.46-1.4.46h-1.24zm.75-.65h.49c.373 0 .663-.093.87-.28.213-.193.32-.46.32-.8s-.107-.603-.32-.79c-.207-.193-.497-.29-.87-.29h-.49v2.16zm3.12.65v-5.5h.75v5.5h-.75zm4.436.1c-.427 0-.797-.083-1.11-.25a1.831 1.831 0 01-.73-.73 2.219 2.219 0 01-.26-1.09v-1.56c0-.42.087-.783.26-1.09a1.77 1.77 0 01.73-.72c.313-.173.683-.26 1.11-.26.427 0 .797.087 1.11.26.313.167.557.407.73.72.173.307.26.67.26 1.09v.97h-3.42v.59c0 .447.113.793.34 1.04.233.24.56.36.98.36.353 0 .64-.07.86-.21a.925.925 0 00.43-.61h.79c-.073.46-.297.823-.67 1.09-.373.267-.843.4-1.41.4zm1.32-3.19v-.44c0-.447-.113-.79-.34-1.03-.227-.247-.553-.37-.98-.37-.42 0-.747.123-.98.37-.227.24-.34.583-.34 1.03v.35h2.72l-.08.09zM242.527 239v-5.5h.77v3.13c0 .187-.007.387-.02.6a16.591 16.591 0 01-.07 1.06l2.33-4.79h1.03v5.5h-.77v-3.13c0-.193.003-.393.01-.6.013-.207.027-.403.04-.59.02-.193.033-.353.04-.48l-2.34 4.8h-1.02zm14.012.1c-.64 0-1.143-.19-1.51-.57-.367-.38-.55-.903-.55-1.57v-2.56c0-.867.217-1.533.65-2 .433-.467 1.053-.7 1.86-.7h1.36v.79h-1.36c-.56 0-.987.167-1.28.5-.293.327-.44.797-.44 1.41v.69h.14l-.14.24c.007-.4.14-.713.4-.94.267-.227.63-.34 1.09-.34.587 0 1.04.187 1.36.56.32.367.48.88.48 1.54v.81c0 .447-.083.83-.25 1.15-.16.32-.393.567-.7.74-.307.167-.677.25-1.11.25zm0-.71c.407 0 .72-.123.94-.37.22-.247.33-.6.33-1.06v-.81c0-.453-.11-.807-.33-1.06-.22-.253-.533-.38-.94-.38-.407 0-.72.127-.94.38-.22.253-.33.607-.33 1.06v.81c0 .46.11.813.33 1.06.227.247.54.37.94.37zm3.686.61v-5.5h.75v2.04h.49c.587 0 1.05.157 1.39.47.347.307.52.727.52 1.26s-.17.957-.51 1.27c-.34.307-.807.46-1.4.46h-1.24zm.75-.65h.49c.373 0 .663-.093.87-.28.213-.193.32-.46.32-.8s-.107-.603-.32-.79c-.207-.193-.497-.29-.87-.29h-.49v2.16zm3.12.65v-5.5h.75v5.5h-.75zm4.446.1c-.426 0-.8-.083-1.12-.25a1.833 1.833 0 01-.75-.71c-.173-.313-.26-.683-.26-1.11v-1.56c0-.427.087-.793.26-1.1.18-.313.43-.553.75-.72.32-.167.694-.25 1.12-.25.627 0 1.13.17 1.51.51.38.34.577.803.59 1.39h-.79c-.013-.38-.136-.673-.37-.88-.226-.207-.54-.31-.94-.31-.406 0-.73.12-.97.36-.24.233-.36.567-.36 1v1.56c0 .427.12.76.36 1s.564.36.97.36c.4 0 .714-.103.94-.31.234-.213.357-.507.37-.88h.79c-.013.587-.21 1.05-.59 1.39-.38.34-.883.51-1.51.51zm5.586-.1v-4.79h-2v-.71h4.8v.71h-2V239h-.8zm4.366 1.8v-7.3h.79v.97h.21l-.24.33c0-.433.14-.773.42-1.02.287-.253.664-.38 1.13-.38.554 0 .994.183 1.32.55.334.36.5.853.5 1.48v1.63c0 .42-.076.783-.23 1.09-.153.3-.366.533-.64.7-.266.167-.583.25-.95.25-.46 0-.833-.127-1.12-.38-.286-.253-.43-.593-.43-1.02l.21.33h-.19l.01 1.12v1.65h-.79zm2.06-2.39c.4 0 .71-.12.93-.36.227-.24.34-.58.34-1.02v-1.56c0-.447-.113-.787-.34-1.02-.22-.24-.53-.36-.93-.36-.386 0-.696.123-.93.37-.226.24-.34.577-.34 1.01v1.56c0 .433.114.773.34 1.02.234.24.544.36.93.36zm3.657.59v-5.5h.75v2.04h.49c.586 0 1.05.157 1.39.47.346.307.52.727.52 1.26s-.17.957-.51 1.27c-.34.307-.807.46-1.4.46h-1.24zm.75-.65h.49c.373 0 .663-.093.87-.28.213-.193.32-.46.32-.8s-.107-.603-.32-.79c-.207-.193-.497-.29-.87-.29h-.49v2.16zm3.12.65v-5.5h.75v5.5h-.75zm4.436.1c-.427 0-.797-.083-1.11-.25a1.825 1.825 0 01-.73-.73 2.208 2.208 0 01-.26-1.09v-1.56c0-.42.086-.783.26-1.09.173-.313.416-.553.73-.72.313-.173.683-.26 1.11-.26.426 0 .796.087 1.11.26.313.167.556.407.73.72.173.307.26.67.26 1.09v.97h-3.42v.59c0 .447.113.793.34 1.04.233.24.56.36.98.36.353 0 .64-.07.86-.21a.928.928 0 00.43-.61h.79a1.6 1.6 0 01-.67 1.09c-.374.267-.844.4-1.41.4zm1.32-3.19v-.44c0-.447-.114-.79-.34-1.03-.227-.247-.554-.37-.98-.37-.42 0-.747.123-.98.37-.227.24-.34.583-.34 1.03v.35h2.72l-.08.09zm8.652 3.09v-5.5h4.04v5.5h-.8v-4.78h-2.44V239h-.8zm5.296.07v-.75h.2c.287 0 .497-.117.63-.35.133-.24.203-.637.21-1.19l.07-3.28h3.63v5.5h-.8v-4.78h-2.05l-.06 2.59c-.007.52-.07.947-.19 1.28-.113.333-.287.58-.52.74-.227.16-.523.24-.89.24h-.23zm8.286.03c-.58 0-1.037-.147-1.37-.44-.333-.3-.5-.703-.5-1.21 0-.5.163-.893.49-1.18.327-.293.767-.44 1.32-.44h1.75v-.58c0-.367-.107-.65-.32-.85-.213-.2-.517-.3-.91-.3-.347 0-.637.077-.87.23a.85.85 0 00-.39.62h-.8c.067-.473.287-.85.66-1.13.38-.28.853-.42 1.42-.42.613 0 1.1.167 1.46.5.36.327.54.77.54 1.33V239h-.78v-1.07h-.13l.15-.16c0 .407-.157.73-.47.97-.313.24-.73.36-1.25.36zm.19-.64c.44 0 .8-.11 1.08-.33.28-.22.42-.507.42-.86v-.83h-1.74c-.313 0-.563.087-.75.26-.187.173-.28.41-.28.71 0 .32.113.577.34.77.227.187.537.28.93.28zm5.836.54v-4.79h-2v-.71h4.8v.71h-2V239h-.8zm6.396.1c-.426 0-.796-.083-1.11-.25a1.838 1.838 0 01-.73-.73 2.219 2.219 0 01-.26-1.09v-1.56c0-.42.087-.783.26-1.09.174-.313.417-.553.73-.72.314-.173.684-.26 1.11-.26.427 0 .797.087 1.11.26.314.167.557.407.73.72.174.307.26.67.26 1.09v.97h-3.42v.59c0 .447.114.793.34 1.04.234.24.56.36.98.36.354 0 .64-.07.86-.21a.925.925 0 00.43-.61h.79c-.073.46-.296.823-.67 1.09-.373.267-.843.4-1.41.4zm1.32-3.19v-.44c0-.447-.113-.79-.34-1.03-.226-.247-.553-.37-.98-.37-.42 0-.746.123-.98.37-.226.24-.34.583-.34 1.03v.35h2.72l-.08.09zm1.906 3.09l1.2-2.82-1.12-2.68h.77l.99 2.43h.59v-2.43h.68v2.43h.57l1.02-2.43h.76l-1.12 2.65 1.2 2.85h-.8l-1.03-2.53h-.6V239h-.68v-2.53h-.6l-1.05 2.53h-.78zm6.746 0v-5.5h.77v3.13c0 .187-.006.387-.02.6-.006.207-.016.403-.03.59-.013.187-.026.343-.04.47l2.33-4.79h1.03v5.5h-.77v-3.13c0-.193.004-.393.01-.6l.04-.59c.02-.193.034-.353.04-.48l-2.34 4.8h-1.02zm11.993 0v-5.5h2.36c.546 0 .976.13 1.29.39.313.253.47.607.47 1.06 0 .38-.13.687-.39.92-.254.227-.594.34-1.02.34v-.07c.46 0 .83.12 1.11.36.28.233.42.547.42.94 0 .487-.167.87-.5 1.15-.327.273-.78.41-1.36.41h-2.38zm.78-.7h1.6c.326 0 .586-.077.78-.23a.79.79 0 00.29-.64c0-.28-.097-.497-.29-.65-.194-.16-.454-.24-.78-.24h-1.6v1.76zm0-2.45h1.58c.293 0 .526-.073.7-.22a.733.733 0 00.27-.6.733.733 0 00-.27-.6c-.174-.153-.407-.23-.7-.23h-1.58v1.65zm5.216 3.15v-5.5h.8v2.34h2.44v-2.34h.8v5.5h-.8v-2.44h-2.44V239h-.8zm6.856 1.8l.81-2.15-2.04-5.15h.88l1.3 3.43c.053.133.103.283.15.45.053.16.093.293.12.4.033-.107.073-.243.12-.41.046-.167.093-.317.14-.45l1.22-3.42h.85l-2.71 7.3h-.84zm6.756-1.8v-4.79h-2v-.71h4.8v.71h-2V239h-.8zm4.366 1.8v-7.3h.79v.97h.21l-.24.33c0-.433.14-.773.42-1.02.287-.253.663-.38 1.13-.38.553 0 .993.183 1.32.55.333.36.5.853.5 1.48v1.63c0 .42-.077.783-.23 1.09-.153.3-.367.533-.64.7-.267.167-.583.25-.95.25-.46 0-.833-.127-1.12-.38-.287-.253-.43-.593-.43-1.02l.21.33h-.19l.01 1.12v1.65h-.79zm2.06-2.39c.4 0 .71-.12.93-.36.227-.24.34-.58.34-1.02v-1.56c0-.447-.113-.787-.34-1.02-.22-.24-.53-.36-.93-.36-.387 0-.697.123-.93.37-.227.24-.34.577-.34 1.01v1.56c0 .433.113.773.34 1.02.233.24.543.36.93.36zm3.946.59v-5.5h.77v3.13c0 .187-.007.387-.02.6a16.591 16.591 0 01-.07 1.06l2.33-4.79h1.03v5.5h-.77v-3.13c0-.193.003-.393.01-.6.013-.207.027-.403.04-.59.02-.193.033-.353.04-.48l-2.34 4.8h-1.02zm-88.311 13v-6.58h-2.05v-.73h4.88v.73h-2.04V252h-.79zm6.386.1c-.427 0-.797-.083-1.11-.25a1.825 1.825 0 01-.73-.73 2.208 2.208 0 01-.26-1.09v-1.56c0-.42.086-.783.26-1.09.173-.313.416-.553.73-.72.313-.173.683-.26 1.11-.26.426 0 .796.087 1.11.26.313.167.556.407.73.72.173.307.26.67.26 1.09v.97h-3.42v.59c0 .447.113.793.34 1.04.233.24.56.36.98.36.353 0 .64-.07.86-.21a.928.928 0 00.43-.61h.79a1.6 1.6 0 01-.67 1.09c-.374.267-.844.4-1.41.4zm1.32-3.19v-.44c0-.447-.114-.79-.34-1.03-.227-.247-.554-.37-.98-.37-.42 0-.747.123-.98.37-.227.24-.34.583-.34 1.03v.35h2.72l-.08.09zm5.396 3.09c-.314 0-.587-.06-.82-.18a1.277 1.277 0 01-.53-.52 1.61 1.61 0 01-.19-.8v-5.08h-1.83v-.72h2.62v5.8c0 .247.066.44.2.58.133.133.316.2.55.2h1.75v.72h-1.75zm5.276.1c-.427 0-.797-.083-1.11-.25a1.831 1.831 0 01-.73-.73 2.219 2.219 0 01-.26-1.09v-1.56c0-.42.087-.783.26-1.09a1.77 1.77 0 01.73-.72c.313-.173.683-.26 1.11-.26.427 0 .797.087 1.11.26.313.167.557.407.73.72.173.307.26.67.26 1.09v.97h-3.42v.59c0 .447.113.793.34 1.04.233.24.56.36.98.36.353 0 .64-.07.86-.21a.925.925 0 00.43-.61h.79c-.073.46-.297.823-.67 1.09-.373.267-.843.4-1.41.4zm1.32-3.19v-.44c0-.447-.113-.79-.34-1.03-.227-.247-.553-.37-.98-.37-.42 0-.747.123-.98.37-.227.24-.34.583-.34 1.03v.35h2.72l-.08.09zm3.316 4.89v-.72h1.67c.313 0 .543-.073.69-.22.153-.147.23-.37.23-.67v-.64l.02-1.04h-.18l.19-.23c0 .413-.137.743-.41.99-.273.247-.64.37-1.1.37-.56 0-1.003-.183-1.33-.55-.327-.373-.49-.87-.49-1.49v-1.17c0-.62.163-1.113.49-1.48.327-.367.77-.55 1.33-.55.46 0 .827.123 1.1.37.273.24.41.567.41.98l-.18-.23h.16v-1.02h.78v5.69c0 .507-.15.9-.45 1.18-.293.287-.713.43-1.26.43h-1.67zm1.34-2.85c.393 0 .7-.12.92-.36.227-.247.34-.587.34-1.02v-1.1c0-.433-.113-.77-.34-1.01-.22-.247-.527-.37-.92-.37-.4 0-.71.12-.93.36-.22.24-.33.58-.33 1.02v1.1c0 .44.11.78.33 1.02.22.24.53.36.93.36zm4.166 1.05v-5.5h.78v1.02h.19l-.28.63c.007-.56.143-.99.41-1.29.267-.307.65-.46 1.15-.46.58 0 1.04.183 1.38.55.347.36.52.847.52 1.46v.33h-.81v-.27c0-.447-.11-.79-.33-1.03-.22-.247-.533-.37-.94-.37-.393 0-.703.123-.93.37-.227.247-.34.59-.34 1.03V252h-.8zm7.416.1c-.58 0-1.036-.147-1.37-.44-.333-.3-.5-.703-.5-1.21 0-.5.164-.893.49-1.18.327-.293.767-.44 1.32-.44h1.75v-.58c0-.367-.106-.65-.32-.85-.213-.2-.516-.3-.91-.3-.346 0-.636.077-.87.23a.856.856 0 00-.39.62h-.8c.067-.473.287-.85.66-1.13.38-.28.854-.42 1.42-.42.614 0 1.1.167 1.46.5.36.327.54.77.54 1.33V252h-.78v-1.07h-.13l.15-.16c0 .407-.156.73-.47.97-.313.24-.73.36-1.25.36zm.19-.64c.44 0 .8-.11 1.08-.33.28-.22.42-.507.42-.86v-.83h-1.74c-.313 0-.563.087-.75.26-.186.173-.28.41-.28.71 0 .32.114.577.34.77.227.187.537.28.93.28zm3.926.54v-5.5h.7v.68h.15l-.11.22c0-.307.08-.55.24-.73.167-.18.394-.27.68-.27.3 0 .534.107.7.32.174.213.264.513.27.9l-.21-.44h.33l-.14.22c0-.307.084-.55.25-.73.167-.18.394-.27.68-.27.34 0 .604.127.79.38.194.253.29.59.29 1.01V252h-.74v-4.21c0-.24-.053-.427-.16-.56a.531.531 0 00-.45-.21.562.562 0 00-.46.21c-.113.133-.17.32-.17.56V252h-.66v-4.21c0-.247-.056-.437-.17-.57a.543.543 0 00-.45-.2.545.545 0 00-.45.2c-.106.133-.163.323-.17.57V252h-.74z" fill="#000"/><path d="M58 333h118" stroke="#CCEC60" stroke-linecap="round"/><mask id="a" style="mask-type:alpha" maskUnits="userSpaceOnUse" x="56" y="260" width="140" height="73"><rect x="56" y="260" width="140" height="73" rx="11" fill="#D9D9D9"/></mask><g mask="url(#a)"><path d="M95.107 343.937c-4.185 0-7.839-.812-10.962-2.436-3.06-1.686-5.434-4.029-7.12-7.027-1.687-3.06-2.53-6.62-2.53-10.68v-29.981c0-4.122.843-7.683 2.53-10.681 1.686-2.998 4.06-5.309 7.12-6.933 3.123-1.686 6.777-2.529 10.962-2.529 4.247 0 7.901.843 10.962 2.529 3.06 1.624 5.434 3.935 7.12 6.933 1.686 2.998 2.53 6.559 2.53 10.681v29.981c0 4.06-.844 7.62-2.53 10.68-1.686 2.998-4.091 5.341-7.214 7.027-3.061 1.624-6.683 2.436-10.868 2.436zm0-7.214c3.748 0 6.746-1.187 8.994-3.56 2.311-2.436 3.467-5.559 3.467-9.369v-29.981c0-3.81-1.156-6.902-3.467-9.275-2.248-2.436-5.246-3.654-8.994-3.654-3.748 0-6.777 1.218-9.088 3.654-2.249 2.373-3.373 5.465-3.373 9.275v29.981c0 3.81 1.124 6.933 3.373 9.369 2.311 2.373 5.34 3.56 9.088 3.56zm0-22.392c-1.686 0-3.06-.531-4.122-1.593-1-1.062-1.5-2.467-1.5-4.216 0-1.686.5-3.029 1.5-4.028 1.061-1.062 2.436-1.593 4.122-1.593s3.03.531 4.029 1.593c1.061.999 1.592 2.342 1.592 4.028 0 1.749-.531 3.154-1.592 4.216-1 1.062-2.343 1.593-4.03 1.593zM131.797 343v-8.619l20.892-22.205c3.561-3.81 6.153-7.183 7.777-10.118 1.624-2.998 2.436-5.872 2.436-8.62 0-3.81-1.062-6.808-3.186-8.994-2.061-2.186-4.903-3.279-8.526-3.279-3.997 0-7.151 1.124-9.462 3.373-2.249 2.248-3.373 5.34-3.373 9.275h-8.432c.125-4.122 1.062-7.683 2.811-10.681 1.811-3.06 4.278-5.402 7.401-7.026 3.185-1.624 6.871-2.436 11.055-2.436 4.123 0 7.683.812 10.681 2.436 3.061 1.561 5.403 3.81 7.027 6.745 1.624 2.936 2.436 6.434 2.436 10.493 0 3.873-1.031 7.714-3.092 11.524-2.061 3.81-5.434 8.151-10.119 13.023l-16.864 17.426h31.199V343h-40.661z" fill="#CCEC60"/></g><mask id="b" style="mask-type:alpha" maskUnits="userSpaceOnUse" x="252" y="95" width="140" height="73"><rect x="252" y="95" width="140" height="73" rx="11" fill="#D9D9D9"/></mask><g mask="url(#b)"><path d="M291.107 178.937c-4.185 0-7.839-.812-10.962-2.436-3.06-1.686-5.434-4.029-7.12-7.027-1.687-3.06-2.53-6.62-2.53-10.68v-29.981c0-4.122.843-7.683 2.53-10.681 1.686-2.998 4.06-5.309 7.12-6.933 3.123-1.686 6.777-2.529 10.962-2.529 4.247 0 7.901.843 10.962 2.529 3.06 1.624 5.434 3.935 7.12 6.933 1.686 2.998 2.53 6.559 2.53 10.681v29.981c0 4.06-.844 7.62-2.53 10.68-1.686 2.998-4.091 5.341-7.214 7.027-3.061 1.624-6.683 2.436-10.868 2.436zm0-7.214c3.747 0 6.746-1.187 8.994-3.56 2.311-2.436 3.467-5.559 3.467-9.369v-29.981c0-3.81-1.156-6.902-3.467-9.275-2.248-2.436-5.247-3.654-8.994-3.654-3.748 0-6.777 1.218-9.088 3.654-2.249 2.373-3.373 5.465-3.373 9.275v29.981c0 3.81 1.124 6.933 3.373 9.369 2.311 2.373 5.34 3.56 9.088 3.56zm0-22.392c-1.687 0-3.061-.531-4.122-1.593-1-1.062-1.499-2.467-1.499-4.216 0-1.686.499-3.029 1.499-4.028 1.061-1.062 2.435-1.593 4.122-1.593 1.686 0 3.029.531 4.029 1.593 1.061.999 1.592 2.342 1.592 4.028 0 1.749-.531 3.154-1.592 4.216-1 1.062-2.343 1.593-4.029 1.593zm55.147 29.606c-4.123 0-7.746-.812-10.868-2.436-3.061-1.686-5.434-3.997-7.121-6.933-1.686-2.936-2.53-6.371-2.53-10.306h8.433c0 3.81 1.061 6.808 3.185 8.994 2.186 2.124 5.184 3.186 8.994 3.186 3.873 0 6.871-1.125 8.994-3.373 2.124-2.249 3.186-5.184 3.186-8.807v-4.872c0-3.872-1.062-6.87-3.186-8.994-2.123-2.124-5.121-3.185-8.994-3.185h-7.027v-8.433l16.958-16.489h-27.732v-7.682h36.258v8.432l-18.269 17.707v-1.031c6.246 0 11.211 1.78 14.896 5.341 3.685 3.56 5.528 8.338 5.528 14.334v4.872c0 3.935-.875 7.37-2.623 10.306-1.687 2.936-4.092 5.247-7.214 6.933-3.123 1.624-6.746 2.436-10.868 2.436z" fill="#CCEC60"/></g><mask id="c" style="mask-type:alpha" maskUnits="userSpaceOnUse" x="49" y="0" width="125" height="71"><rect x="49" width="125" height="71" rx="11" fill="#D9D9D9"/></mask><g mask="url(#c)"><path d="M98.107 81.937c-4.185 0-7.839-.812-10.962-2.436-3.06-1.686-5.434-4.029-7.12-7.027-1.687-3.06-2.53-6.62-2.53-10.68V31.813c0-4.122.843-7.683 2.53-10.68 1.686-2.999 4.06-5.31 7.12-6.934 3.123-1.686 6.777-2.53 10.962-2.53 4.247 0 7.901.844 10.962 2.53 3.06 1.624 5.434 3.935 7.12 6.933 1.686 2.998 2.53 6.559 2.53 10.68v29.982c0 4.06-.844 7.62-2.53 10.68-1.686 2.998-4.091 5.34-7.214 7.027-3.061 1.624-6.683 2.436-10.868 2.436zm0-7.214c3.747 0 6.746-1.187 8.994-3.56 2.311-2.436 3.467-5.56 3.467-9.37v-29.98c0-3.81-1.156-6.902-3.467-9.275-2.248-2.436-5.247-3.654-8.994-3.654-3.748 0-6.777 1.218-9.088 3.654-2.249 2.373-3.373 5.465-3.373 9.275v29.98c0 3.81 1.124 6.934 3.373 9.37 2.311 2.373 5.34 3.56 9.088 3.56zm0-22.392c-1.686 0-3.06-.53-4.122-1.593-1-1.062-1.5-2.467-1.5-4.216 0-1.686.5-3.03 1.5-4.028 1.061-1.062 2.436-1.593 4.122-1.593s3.029.53 4.029 1.593c1.061.999 1.592 2.342 1.592 4.028 0 1.75-.531 3.154-1.592 4.216-1 1.062-2.343 1.593-4.03 1.593zM134.609 81v-7.683h18.551V19.633L134.609 33.5v-9.37l15.459-11.523h11.524v60.71h15.178V81h-42.161z" fill="#CCEC60"/></g><g filter="url(#filter0_d_2004_94)"><path d="M5 127.001c26 76 62.726 111 123 111 132 0 73.448-173 193.5-173 53.5-.001 63 21 86.5 51" stroke="#CCEC60"/></g><path fill-rule="evenodd" clip-rule="evenodd" d="M127.091 237.756l-3.143-3.455-.763-.839-3.091-3.4c-1.967-2.164-3.936-4.329-5.902-6.496-.826-.906-1.015-1.945-.646-3.105.096-.317.249-.465.61-.461.734.01 1.469.01 2.204.01.735 0 1.47 0 2.204.01.221 0 .498.124.642.289a7719.63 7719.63 0 0114.453 15.881c.934 1.027.878 2.182-.137 3.297l-12.948 14.236c-.121.133-.241.267-.361.402-.318.357-.638.715-.979 1.05-.16.157-.417.297-.634.301-.774.013-1.549.012-2.325.011-.711 0-1.421-.001-2.131.009-.361.004-.51-.144-.606-.461-.353-1.143-.172-2.17.638-3.061 2.799-3.082 5.6-6.162 8.402-9.242l4.001-4.4c.097-.104.19-.211.295-.33l.217-.246zm-6.535 4.608l4.181-4.602-.638-.703-1.383-1.519-2.761-3.038c-3.68-4.05-7.36-8.101-11.05-12.141-.161-.176-.445-.333-.674-.337-.868-.019-1.735-.018-2.602-.018-.619.001-1.239.001-1.859-.006-.309 0-.445.116-.549.393-.445 1.2-.209 2.263.634 3.193 3.702 4.076 7.408 8.147 11.119 12.215l1.332 1.474.437.483-.371.413c-.223.248-.434.484-.648.718l-5.651 6.217-6.21 6.832c-.819.903-1.063 1.926-.674 3.097.112.337.28.469.654.465.677-.011 1.355-.01 2.033-.009.774.001 1.548.002 2.323-.015.244-.004.553-.152.722-.337 3.11-3.398 6.209-6.807 9.308-10.216l2.325-2.556.002-.003zM327.091 64.756l-3.143-3.455-.763-.839-3.091-3.4c-1.967-2.164-3.936-4.33-5.902-6.496-.826-.906-1.015-1.945-.646-3.105.096-.316.249-.465.61-.46.734.01 1.469.01 2.204.01.735 0 1.47 0 2.204.01a.94.94 0 01.642.288 7719.528 7719.528 0 0114.453 15.88c.934 1.028.878 2.183-.137 3.298l-12.948 14.236c-.121.133-.241.267-.361.402-.318.357-.638.715-.979 1.05-.16.157-.417.297-.634.301-.774.013-1.549.012-2.325.011-.711 0-1.421 0-2.131.01-.361.003-.51-.145-.606-.462-.353-1.144-.172-2.17.638-3.06 2.799-3.083 5.6-6.163 8.402-9.243l4.001-4.4c.097-.104.19-.211.295-.33l.217-.246zm-6.535 4.608c1.383-1.523 2.766-3.047 4.181-4.602l-.638-.703-1.383-1.52-2.761-3.037c-3.68-4.05-7.36-8.1-11.05-12.14-.161-.177-.445-.334-.674-.338-.868-.019-1.735-.018-2.602-.018-.619 0-1.239 0-1.859-.006-.309 0-.445.116-.549.393-.445 1.2-.209 2.263.634 3.193a7510.8 7510.8 0 0011.119 12.215l1.332 1.474.437.483-.371.413c-.223.248-.434.484-.648.718l-5.651 6.217-6.21 6.832c-.819.903-1.063 1.925-.674 3.097.112.337.28.47.654.465.677-.011 1.355-.01 2.033-.01.774.002 1.548.003 2.323-.014a1.12 1.12 0 00.722-.337c3.11-3.398 6.209-6.807 9.308-10.216l2.325-2.556.002-.003z" fill="#CCEC60"/><defs><filter id="filter0_d_2004_94" x=".527" y="64.5" width="411.867" height="182" filterUnits="userSpaceOnUse" color-interpolation-filters="sRGB"><feFlood flood-opacity="0" result="BackgroundImageFix"/><feColorMatrix in="SourceAlpha" values="0 0 0 0 0 0 0 0 0 0 0 0 0 0 0 0 0 0 127 0" result="hardAlpha"/><feOffset dy="4"/><feGaussianBlur stdDeviation="2"/><feComposite in2="hardAlpha" operator="out"/><feColorMatrix values="0 0 0 0 0 0 0 0 0 0 0 0 0 0 0 0 0 0 0.25 0"/><feBlend in2="BackgroundImageFix" result="effect1_dropShadow_2004_94"/><feBlend in="SourceGraphic" in2="effect1_dropShadow_2004_94" result="shape"/></filter></defs></svg>