<svg width="181" height="197" fill="none" xmlns="http://www.w3.org/2000/svg"><g filter="url(#filter0_d_2004_80)"><rect x="4.354" width="172" height="189" rx="16.011" fill="#174756"/></g><mask id="a" style="mask-type:alpha" maskUnits="userSpaceOnUse" x="4" y="0" width="172" height="43"><path fill="#C9D9CD" d="M4 0h171.961v42.27H4z"/></mask><g mask="url(#a)"><rect x="4" y="-1.69" width="171.961" height="118.355" rx="16.011" fill="#E1EEE4"/></g><path d="M14.51 60.073V53.06h3.958v7.013h-.865v-6.225h-2.229v6.225h-.865zm5.67 1.73v-7.014h.864v1.01h.173l-.172.201c0-.404.13-.72.393-.951.27-.237.622-.355 1.057-.355.532 0 .954.176 1.268.528.32.346.48.823.48 1.431V58.2c0 .403-.073.752-.22 1.047a1.57 1.57 0 01-.606.682c-.256.16-.563.24-.922.24-.429 0-.778-.118-1.047-.355-.269-.237-.404-.554-.404-.951l.173.202h-.192l.02 1.2v1.538h-.865zm2.027-2.383c.365 0 .65-.109.855-.327.211-.217.317-.531.317-.941V56.71c0-.41-.106-.724-.317-.942-.205-.217-.49-.326-.855-.326-.352 0-.634.112-.846.336-.21.224-.317.535-.317.932v1.44c0 .398.106.709.317.933.212.224.494.336.846.336zm5.66.73c-.422 0-.787-.08-1.094-.24a1.743 1.743 0 01-.72-.692c-.167-.307-.25-.669-.25-1.085V56.73c0-.423.083-.784.25-1.085.172-.302.412-.532.72-.692.307-.16.672-.24 1.095-.24.423 0 .788.08 1.095.24.307.16.544.39.71.691.174.302.26.66.26 1.077v1.412c0 .416-.086.778-.26 1.085a1.682 1.682 0 01-.71.692c-.308.16-.672.24-1.095.24zm0-.768c.379 0 .673-.106.885-.317.21-.212.317-.522.317-.932V56.73c0-.41-.106-.72-.317-.932-.212-.211-.506-.317-.884-.317-.372 0-.666.106-.884.317-.211.212-.317.522-.317.932v1.403c0 .41.106.72.317.931.218.212.512.318.884.318zm3.711.691V54.79h2.287c.55 0 .977.125 1.277.375.302.244.452.586.452 1.028 0 .365-.125.66-.375.884-.25.218-.58.327-.99.327v-.077c.45 0 .808.112 1.077.336.275.224.413.525.413.903 0 .474-.16.845-.48 1.114-.32.263-.769.394-1.345.394h-2.316zm.846-.759h1.47c.307 0 .544-.067.71-.201.174-.135.26-.324.26-.567 0-.25-.086-.442-.26-.577-.166-.134-.403-.201-.71-.201h-1.47v1.546zm0-2.296h1.44c.27 0 .481-.064.635-.192.16-.128.24-.307.24-.538 0-.23-.077-.41-.23-.538-.154-.134-.369-.202-.644-.202h-1.441v1.47zm6.823 3.151c-.416 0-.781-.083-1.095-.25a1.807 1.807 0 01-.72-.7 2.204 2.204 0 01-.25-1.067V56.71c0-.41.083-.765.25-1.066.172-.302.412-.535.72-.702a2.31 2.31 0 011.095-.25c.416 0 .778.084 1.086.25.314.167.554.4.72.702.173.3.26.656.26 1.066v.932h-3.286v.509c0 .416.106.736.317.96.211.218.512.327.903.327.333 0 .602-.057.807-.173a.763.763 0 00.375-.538h.864a1.472 1.472 0 01-.653 1.057c-.371.256-.836.384-1.393.384zm1.22-3.103v-.355c0-.416-.105-.737-.317-.96-.205-.225-.506-.337-.903-.337-.39 0-.692.112-.903.336-.211.224-.317.545-.317.96v.28h2.507l-.067.076zm1.828 3.075v-.807h.173c.294 0 .5-.116.615-.346.121-.23.185-.644.192-1.24l.057-2.959h3.584v5.284h-.865v-4.496h-1.864l-.048 2.21c-.012.557-.077 1.008-.192 1.354-.109.346-.282.6-.519.76-.23.16-.534.24-.912.24h-.221zm6.352-.068V54.79h.827v2.883c0 .185-.007.38-.02.586a8.13 8.13 0 01-.038.586 6.233 6.233 0 01-.048.46L51.5 54.79h1.104v5.284h-.826v-2.882c0-.186.003-.38.01-.586.013-.205.029-.4.048-.586l.048-.47-2.133 4.524h-1.105zm13.359.077c-.423 0-.788-.08-1.096-.24a1.744 1.744 0 01-.72-.692c-.166-.307-.25-.669-.25-1.085V56.73c0-.423.084-.784.25-1.085a1.74 1.74 0 01.72-.692c.308-.16.673-.24 1.096-.24.422 0 .788.08 1.095.24.307.16.544.39.71.691.174.302.26.66.26 1.077v1.412c0 .416-.086.778-.26 1.085a1.683 1.683 0 01-.71.692c-.307.16-.673.24-1.095.24zm0-.768c.378 0 .672-.106.883-.317.212-.212.317-.522.317-.932V56.73c0-.41-.105-.72-.317-.932-.21-.211-.505-.317-.883-.317-.372 0-.666.106-.884.317-.212.212-.317.522-.317.932v1.403c0 .41.105.72.317.931.218.212.512.318.884.318zm5.69.787c-.622 0-1.115-.182-1.48-.547-.359-.372-.538-.878-.538-1.518v-2.402c0-.845.211-1.495.634-1.95.423-.461 1.028-.692 1.816-.692h1.345v.865h-1.345c-.52 0-.913.154-1.182.461-.269.301-.403.74-.403 1.316v.625h.134l-.134.192c.006-.378.134-.673.384-.884.25-.211.589-.317 1.018-.317.557 0 .99.18 1.297.538.314.358.47.852.47 1.48v.768c0 .429-.08.797-.24 1.105-.16.307-.39.544-.691.71-.301.167-.663.25-1.086.25zm0-.768c.37 0 .656-.112.854-.337.199-.224.298-.544.298-.96v-.769c0-.416-.1-.736-.298-.96-.198-.224-.483-.337-.855-.337-.371 0-.656.113-.855.337-.198.217-.297.538-.297.96v.769c0 .416.099.736.297.96.199.225.484.337.855.337zm4.517 2.401l.778-2.055-1.96-4.958h.961l1.23 3.267c.044.109.086.24.125.394l.096.374c.025-.102.057-.227.096-.374.038-.154.077-.285.115-.394l1.153-3.267h.932l-2.604 7.014h-.922zm7.918-1.729v-1.921a4.17 4.17 0 01-.47.077 7.093 7.093 0 01-.654.029c-.653.006-1.162-.15-1.527-.471-.359-.327-.538-.782-.538-1.364v-1.634h.865v1.634c0 .326.108.586.326.778.224.186.532.278.922.278.27 0 .497-.01.682-.028.193-.026.324-.048.394-.068V54.79h.865v5.284h-.865zm4.633.096c-.416 0-.781-.083-1.095-.25a1.807 1.807 0 01-.72-.7 2.204 2.204 0 01-.25-1.067V56.71c0-.41.083-.765.25-1.066.173-.302.413-.535.72-.702a2.31 2.31 0 011.095-.25c.417 0 .779.084 1.086.25.314.167.554.4.72.702.173.3.26.656.26 1.066v.932h-3.286v.509c0 .416.106.736.317.96.212.218.513.327.903.327.333 0 .602-.057.807-.173a.764.764 0 00.375-.538h.865a1.472 1.472 0 01-.654 1.057c-.371.256-.835.384-1.393.384zm1.22-3.103v-.355c0-.416-.105-.737-.317-.96-.205-.225-.506-.337-.903-.337-.39 0-.691.112-.903.336-.211.224-.317.545-.317.96v.28h2.508l-.068.076zm2.491 3.007V54.79h.865v2.2h2.228v-2.2h.865v5.284h-.865v-2.296H89.34v2.296h-.865zm5.69 0V54.79h.826v2.883c0 .185-.007.38-.02.586a8.13 8.13 0 01-.038.586 6.233 6.233 0 01-.048.46l2.133-4.515h1.105v5.284h-.827v-2.882c0-.186.004-.38.01-.586.013-.205.029-.4.048-.586l.048-.47-2.133 4.524h-1.104zm7.668.096c-.416 0-.781-.083-1.095-.25a1.809 1.809 0 01-.72-.7 2.2 2.2 0 01-.25-1.067V56.71c0-.41.083-.765.25-1.066a1.81 1.81 0 01.72-.702 2.31 2.31 0 011.095-.25c.417 0 .778.084 1.086.25.314.167.554.4.72.702.173.3.26.656.26 1.066v.932h-3.286v.509c0 .416.106.736.317.96.212.218.513.327.903.327.333 0 .602-.057.807-.173a.764.764 0 00.375-.538h.865a1.473 1.473 0 01-.654 1.057c-.371.256-.836.384-1.393.384zm1.22-3.103v-.355c0-.416-.105-.737-.317-.96-.205-.225-.506-.337-.903-.337-.39 0-.691.112-.903.336-.211.224-.317.545-.317.96v.28h2.508l-.068.076zm10.179 3.103c-.423 0-.794-.08-1.115-.24a1.735 1.735 0 01-.73-.692c-.173-.307-.259-.669-.259-1.085V56.71c0-.423.086-.785.259-1.086.173-.3.417-.531.73-.691.321-.16.692-.24 1.115-.24.608 0 1.098.163 1.47.49.371.326.566.771.586 1.335h-.865c-.019-.34-.134-.6-.346-.778-.205-.186-.487-.279-.845-.279-.378 0-.679.109-.903.327-.224.211-.336.515-.336.912v1.45c0 .398.112.705.336.923.224.218.525.327.903.327.358 0 .64-.093.845-.279.212-.186.327-.445.346-.778h.865c-.02.564-.215 1.009-.586 1.335-.372.327-.862.49-1.47.49zm5.67-.019c-.422 0-.787-.08-1.095-.24a1.745 1.745 0 01-.72-.692c-.167-.307-.25-.669-.25-1.085V56.73c0-.423.083-.784.25-1.085a1.74 1.74 0 01.72-.692c.308-.16.673-.24 1.095-.24.423 0 .788.08 1.095.24.308.16.545.39.711.691.173.302.26.66.26 1.077v1.412c0 .416-.087.778-.26 1.085a1.677 1.677 0 01-.711.692c-.307.16-.672.24-1.095.24zm0-.768c.378 0 .673-.106.884-.317.211-.212.317-.522.317-.932V56.73c0-.41-.106-.72-.317-.932-.211-.211-.506-.317-.884-.317-.371 0-.666.106-.884.317-.211.212-.317.522-.317.932v1.403c0 .41.106.72.317.931.218.212.513.318.884.318zm5.258.691v-4.525h-1.922v-.759h4.708v.76h-1.922v4.524h-.864zm4.123 1.73v-7.014h.865v1.01h.173l-.173.201c0-.404.131-.72.394-.951.269-.237.621-.355 1.057-.355.531 0 .954.176 1.268.528.32.346.48.823.48 1.431V58.2c0 .403-.074.752-.221 1.047a1.574 1.574 0 01-.605.682c-.256.16-.564.24-.922.24-.43 0-.779-.118-1.048-.355s-.403-.554-.403-.951l.173.202h-.192l.019 1.2v1.538h-.865zm2.027-2.383c.365 0 .65-.109.855-.327.212-.217.317-.531.317-.941V56.71c0-.41-.105-.724-.317-.942-.205-.217-.49-.326-.855-.326-.352 0-.634.112-.845.336-.211.224-.317.535-.317.932v1.44c0 .398.106.709.317.933.211.224.493.336.845.336zm4.489 2.383l.778-2.056-1.959-4.958h.96l1.23 3.267c.045.109.086.24.125.394l.096.374c.025-.102.057-.227.096-.374.038-.154.077-.285.115-.394l1.153-3.267h.932l-2.604 7.014h-.922zm4.268-.385v-2.084h.432c.109-.11.221-.324.337-.644.121-.32.185-.727.192-1.22l.057-2.68h3.449v4.544h.673v2.084h-.769v-1.345h-3.602v1.345h-.769zm1.345-2.084h2.258v-3.776h-1.768l-.038 1.931c-.007.506-.061.916-.164 1.23-.102.313-.198.518-.288.614zm4.96.74v-5.285h.864v2.2h2.229v-2.2h.865v5.284h-.865v-2.296h-2.229v2.296h-.864zm5.689 0v-5.285h.826v2.883c0 .185-.006.38-.019.586a8.13 8.13 0 01-.038.586 6.233 6.233 0 01-.048.46l2.132-4.515h1.105v5.284h-.826v-2.882c0-.186.003-.38.01-.586.012-.205.028-.4.048-.586l.048-.47-2.133 4.524h-1.105zm5.719 0v-5.285h.864v2.181h.903l1.537-2.18h.99l-1.777 2.517 1.806 2.766h-1.009l-1.537-2.353h-.913v2.353h-.864zm7.639.076c-.422 0-.787-.08-1.095-.24a1.745 1.745 0 01-.72-.692c-.167-.307-.25-.669-.25-1.085V56.73c0-.423.083-.784.25-1.085a1.74 1.74 0 01.72-.692c.308-.16.673-.24 1.095-.24.423 0 .788.08 1.096.24.307.16.544.39.711.691.172.302.259.66.259 1.077v1.412c0 .416-.087.778-.259 1.085a1.688 1.688 0 01-.711.692c-.308.16-.673.24-1.096.24zm0-.768c.378 0 .673-.106.884-.317.212-.212.317-.522.317-.932V56.73c0-.41-.105-.72-.317-.932-.211-.211-.506-.317-.884-.317-.371 0-.666.106-.883.317-.212.212-.317.522-.317.932v1.403c0 .41.105.72.317.931.217.212.512.318.883.318zm3.711.691V54.79h2.287c.55 0 .976.125 1.277.375.301.244.452.586.452 1.028 0 .365-.125.66-.375.884-.25.218-.579.327-.989.327v-.077c.448 0 .807.112 1.076.336.275.224.413.525.413.903 0 .474-.16.845-.481 1.114-.32.263-.768.394-1.345.394h-2.315zm.846-.759h1.469c.308 0 .545-.067.711-.201a.679.679 0 00.26-.567c0-.25-.087-.442-.26-.577-.166-.134-.403-.201-.711-.201h-1.469v1.546zm0-2.296h1.441c.269 0 .48-.064.634-.192.16-.128.24-.307.24-.538 0-.23-.077-.41-.231-.538-.153-.134-.368-.202-.643-.202h-1.441v1.47zM16.526 79.17c-.46 0-.857-.076-1.19-.23a1.744 1.744 0 01-.76-.663c-.179-.288-.271-.631-.278-1.028h.865c0 .352.118.63.355.836.244.205.58.307 1.009.307.403 0 .717-.1.941-.298.23-.198.346-.474.346-.826a1.23 1.23 0 00-.23-.74 1.15 1.15 0 00-.644-.442l-.951-.297c-.48-.148-.852-.394-1.115-.74a1.994 1.994 0 01-.384-1.22c0-.378.083-.704.25-.98.173-.282.413-.5.72-.653.308-.16.67-.24 1.086-.24.615 0 1.108.173 1.48.518.371.34.56.795.566 1.365h-.864c0-.346-.106-.615-.317-.807-.205-.199-.497-.298-.875-.298-.371 0-.662.09-.874.269-.205.18-.307.429-.307.75 0 .287.077.537.23.748.154.212.375.362.663.452l.961.307c.468.148.83.397 1.085.75.257.352.385.765.385 1.239 0 .384-.09.72-.27 1.009a1.793 1.793 0 01-.758.672c-.32.16-.695.24-1.124.24zm5.652-.019c-.423 0-.788-.08-1.095-.24a1.743 1.743 0 01-.72-.692c-.167-.307-.25-.669-.25-1.085V75.73c0-.423.083-.785.25-1.086.172-.3.413-.531.72-.691.307-.16.672-.24 1.095-.24.423 0 .788.08 1.095.24.308.16.545.39.711.691.173.301.26.66.26 1.076v1.413c0 .416-.087.778-.26 1.085a1.683 1.683 0 01-.71.692c-.308.16-.673.24-1.096.24zm0-.768c.378 0 .673-.106.884-.318.211-.21.317-.521.317-.931V75.73c0-.41-.106-.72-.317-.932-.211-.211-.506-.317-.884-.317-.371 0-.666.106-.884.317-.211.212-.317.522-.317.932v1.403c0 .41.106.72.317.931.218.212.513.318.884.318zm5.68.787c-.608 0-1.095-.179-1.46-.538-.365-.365-.548-.858-.548-1.48V73.79h.865v3.362c0 .397.102.708.307.932.205.218.484.326.836.326.359 0 .64-.108.846-.326.21-.224.317-.535.317-.932V73.79h.864v3.362c0 .621-.186 1.114-.557 1.48-.372.358-.861.537-1.47.537zm3.701-.096V73.79h.865v1.008h.182l-.182.202c0-.416.125-.737.374-.96.25-.231.596-.347 1.038-.347.532 0 .954.164 1.268.49.314.327.47.772.47 1.336v3.554h-.864v-3.458c0-.378-.102-.666-.307-.865-.199-.205-.47-.307-.817-.307-.358 0-.643.109-.855.326-.205.218-.307.532-.307.942v3.362h-.865zm7.38.096c-.525 0-.95-.176-1.277-.528-.32-.352-.48-.83-.48-1.431v-1.547c0-.609.16-1.089.48-1.441.32-.352.746-.528 1.278-.528.435 0 .784.118 1.047.355.262.237.394.554.394.951l-.173-.202h.192l-.02-1.2V72.06h.865v7.013h-.864v-1.008h-.173l.173-.202c0 .403-.132.724-.394.96-.263.231-.612.346-1.047.346zm.289-.749c.358 0 .64-.112.845-.336.205-.224.308-.535.308-.932V75.71c0-.397-.103-.708-.308-.932-.205-.224-.486-.336-.845-.336-.365 0-.653.109-.865.326-.211.218-.317.532-.317.942v1.44c0 .41.106.725.317.942.212.218.5.327.865.327zm9.41.653V72.06h.864v2.998h2.248V72.06h.865v7.013h-.865v-3.228h-2.248v3.228h-.864zm7.678.096c-.416 0-.781-.083-1.095-.25a1.807 1.807 0 01-.72-.7 2.204 2.204 0 01-.25-1.067V75.71c0-.41.083-.766.25-1.067.172-.3.413-.534.72-.7.314-.167.679-.25 1.095-.25.416 0 .778.083 1.086.25.313.166.554.4.72.7.173.301.26.657.26 1.067v.932h-3.286v.509c0 .416.106.736.317.96.211.218.512.327.903.327.333 0 .602-.057.807-.173a.763.763 0 00.375-.538h.864a1.472 1.472 0 01-.653 1.057c-.371.256-.836.384-1.393.384zm1.22-3.103v-.355c0-.416-.106-.737-.317-.96-.205-.225-.506-.337-.903-.337-.39 0-.692.112-.903.336-.211.224-.317.545-.317.96v.28h2.507l-.067.076zm4.009 3.103c-.558 0-.996-.14-1.317-.422-.32-.289-.48-.676-.48-1.163 0-.493.16-.88.48-1.162.32-.282.753-.423 1.297-.423h1.633v-.528c0-.327-.099-.577-.297-.75-.192-.179-.468-.269-.826-.269-.314 0-.577.068-.788.202a.718.718 0 00-.365.529h-.865c.058-.455.272-.817.644-1.086.371-.269.835-.403 1.393-.403.608 0 1.088.156 1.44.47.353.314.53.74.53 1.278v3.631h-.846v-1.008h-.144l.144-.145c0 .385-.15.689-.452.913-.294.224-.688.336-1.181.336zm.21-.682c.41 0 .747-.102 1.01-.307a.956.956 0 00.393-.788v-.75h-1.613c-.289 0-.516.08-.683.24-.166.161-.25.379-.25.654 0 .295.1.528.298.701.206.167.487.25.846.25zm6.66.586a1.7 1.7 0 01-.806-.182 1.312 1.312 0 01-.538-.52 1.56 1.56 0 01-.192-.787v-4.736H65.1v-.788h2.642v5.524c0 .218.061.39.183.519a.662.662 0 00.49.183h1.681v.787h-1.681zm2.905 0v-.787h1.873v-3.709H71.56v-.787h2.498v4.495h1.777v.788H71.32zm2.21-6.234c-.212 0-.379-.055-.5-.164a.563.563 0 01-.183-.442.57.57 0 01.183-.451c.121-.116.288-.173.5-.173.21 0 .377.057.499.173.121.109.182.26.182.451 0 .186-.06.333-.182.442-.122.109-.288.163-.5.163zm3.546 6.234V73.79h.865v1.008h.183L77.94 75c0-.416.125-.737.375-.96.25-.231.595-.347 1.037-.347.532 0 .955.164 1.268.49.314.327.471.772.471 1.336v3.554h-.864v-3.458c0-.378-.103-.666-.308-.865-.198-.205-.47-.307-.817-.307-.358 0-.643.109-.854.326-.206.218-.308.532-.308.942v3.362h-.865zm6.353 1.73v-.788h1.681c.27 0 .465-.061.586-.183.128-.121.192-.31.192-.567v-.672l.02-.96h-.173l.163-.145c0 .384-.128.689-.384.913-.257.224-.6.336-1.028.336-.545 0-.974-.176-1.288-.528-.313-.359-.47-.84-.47-1.441v-1.115c0-.602.157-1.079.47-1.431.314-.352.743-.528 1.288-.528.429 0 .771.111 1.028.336.256.224.384.528.384.912l-.163-.144h.163V73.79h.855v5.475c0 .474-.147.849-.442 1.124-.288.276-.692.413-1.21.413h-1.672zm1.316-2.815c.359 0 .64-.112.846-.337.204-.224.307-.534.307-.931v-1.01c0-.396-.103-.707-.307-.931-.205-.224-.487-.336-.846-.336-.365 0-.65.109-.855.326-.198.218-.298.532-.298.942v1.009c0 .41.1.723.298.941.205.218.49.327.855.327zm11.437 1.181c-.423 0-.79-.08-1.105-.24a1.743 1.743 0 01-.72-.692c-.167-.307-.25-.669-.25-1.085v-3.17c0-.423.083-.785.25-1.086.173-.3.413-.531.72-.692.314-.16.682-.24 1.105-.24.423 0 .788.084 1.095.25.308.16.545.39.711.692.167.3.25.66.25 1.076h-.865c0-.397-.105-.702-.317-.913-.205-.218-.496-.327-.874-.327s-.676.106-.893.317c-.212.212-.317.516-.317.913v3.18c0 .397.105.704.317.922.217.212.515.317.893.317s.67-.106.874-.317c.212-.218.317-.525.317-.922h.865c0 .41-.083.768-.25 1.076a1.743 1.743 0 01-.71.701c-.308.16-.673.24-1.096.24zm5.651 0c-.416 0-.781-.083-1.095-.25a1.809 1.809 0 01-.72-.7 2.2 2.2 0 01-.25-1.067V75.71c0-.41.083-.766.25-1.067a1.81 1.81 0 01.72-.7c.314-.167.679-.25 1.095-.25.417 0 .778.083 1.086.25.314.166.554.4.72.7.173.301.26.657.26 1.067v.932h-3.286v.509c0 .416.106.736.317.96.212.218.513.327.903.327.333 0 .602-.057.807-.173a.764.764 0 00.375-.538h.865a1.473 1.473 0 01-.654 1.057c-.371.256-.836.384-1.393.384zm1.22-3.103v-.355c0-.416-.105-.737-.317-.96-.205-.225-.506-.337-.903-.337-.39 0-.691.112-.903.336-.211.224-.317.545-.317.96v.28h2.508l-.068.076zm2.472 3.007V73.79h.864v1.008h.183l-.183.202c0-.416.125-.737.375-.96.25-.231.596-.347 1.038-.347.531 0 .954.164 1.268.49.313.327.47.772.47 1.336v3.554h-.864v-3.458c0-.378-.103-.666-.308-.865-.198-.205-.47-.307-.816-.307-.359 0-.644.109-.855.326-.205.218-.308.532-.308.942v3.362h-.864zm8.264 0c-.455 0-.81-.121-1.066-.365-.25-.243-.375-.586-.375-1.028v-3.103h-1.489v-.787h1.489V72.3h.865v1.49h2.113v.787h-2.113v3.103c0 .404.192.605.576.605h1.441v.788h-1.441zm5.113.096c-.416 0-.781-.083-1.095-.25a1.809 1.809 0 01-.72-.7 2.198 2.198 0 01-.25-1.067V75.71c0-.41.083-.766.25-1.067a1.81 1.81 0 01.72-.7c.314-.167.679-.25 1.095-.25.417 0 .778.083 1.086.25.314.166.554.4.72.7.173.301.26.657.26 1.067v.932h-3.286v.509c0 .416.106.736.317.96.212.218.513.327.903.327.333 0 .602-.057.807-.173a.764.764 0 00.375-.538h.864a1.469 1.469 0 01-.653 1.057c-.371.256-.836.384-1.393.384zm1.22-3.103v-.355c0-.416-.105-.737-.317-.96-.205-.225-.506-.337-.903-.337-.39 0-.691.112-.903.336-.211.224-.317.545-.317.96v.28h2.508l-.068.076zm2.654 3.007V73.79h.846v1.008h.201l-.278.625c0-.57.121-1 .365-1.288.25-.294.618-.442 1.105-.442.557 0 .999.177 1.325.529.333.346.5.816.5 1.412v.317h-.865v-.24c0-.416-.102-.733-.307-.951-.199-.224-.484-.336-.855-.336-.365 0-.653.112-.865.336-.205.224-.307.541-.307.95v3.363h-.865zm11.216 0V73.79h3.958v5.283h-.864v-4.496h-2.229v4.496h-.865zm7.669.077c-.423 0-.788-.08-1.095-.24a1.741 1.741 0 01-.721-.692c-.166-.307-.25-.669-.25-1.085V75.73c0-.423.084-.785.25-1.086.173-.3.413-.531.721-.691.307-.16.672-.24 1.095-.24.423 0 .788.08 1.095.24.307.16.544.39.711.691.173.301.259.66.259 1.076v1.413c0 .416-.086.778-.259 1.085a1.688 1.688 0 01-.711.692c-.307.16-.672.24-1.095.24zm0-.768c.378 0 .672-.106.884-.318.211-.21.317-.521.317-.931V75.73c0-.41-.106-.72-.317-.932-.212-.211-.506-.317-.884-.317-.372 0-.666.106-.884.317-.211.212-.317.522-.317.932v1.403c0 .41.106.72.317.931.218.212.512.318.884.318zM15.316 99.802l.779-2.055-1.96-4.957h.96l1.23 3.266c.045.109.087.24.125.394l.096.374.096-.374a4.4 4.4 0 01.116-.394l1.152-3.266h.932l-2.603 7.012h-.923zm4.883-1.729V92.79h3.958v5.283h-.864v-4.496h-2.23v4.496H20.2zm5.67 1.73V92.79h.865v1.008h.173l-.173.202c0-.403.131-.72.394-.951.269-.237.621-.356 1.057-.356.531 0 .954.177 1.268.529.32.346.48.823.48 1.431V96.2c0 .403-.073.752-.22 1.047a1.57 1.57 0 01-.606.682c-.256.16-.563.24-.922.24-.43 0-.778-.118-1.047-.355-.27-.237-.404-.554-.404-.951l.173.201h-.192l.02 1.201v1.537h-.865zm2.028-2.383c.365 0 .65-.109.855-.327.21-.217.317-.531.317-.941V94.71c0-.41-.106-.724-.317-.942-.205-.217-.49-.326-.855-.326-.353 0-.634.112-.846.336-.211.224-.317.535-.317.932v1.44c0 .398.106.709.317.933.212.224.493.336.846.336zm5.2.75c-.558 0-.997-.142-1.317-.423-.32-.289-.48-.676-.48-1.163 0-.493.16-.88.48-1.162.32-.282.753-.423 1.297-.423h1.633v-.528c0-.327-.099-.577-.298-.75-.192-.179-.467-.269-.826-.269-.314 0-.576.068-.788.202a.718.718 0 00-.365.529h-.864c.058-.455.272-.817.643-1.086.372-.269.836-.403 1.393-.403.609 0 1.09.156 1.442.47.352.314.528.74.528 1.278v3.631h-.846v-1.008h-.144l.145-.145c0 .385-.151.689-.452.913-.295.224-.688.336-1.182.336zm.21-.683c.41 0 .747-.102 1.01-.307a.956.956 0 00.393-.788v-.75h-1.614c-.288 0-.515.08-.682.24-.166.161-.25.379-.25.654 0 .295.1.528.298.701.205.167.487.25.846.25zm3.961.586V92.79h2.286c.551 0 .977.124 1.278.374.301.244.452.586.452 1.028 0 .365-.125.66-.375.884-.25.218-.58.327-.99.327v-.077c.449 0 .808.112 1.077.336.275.224.413.525.413.903 0 .474-.16.845-.48 1.114-.321.263-.77.394-1.346.394h-2.315zm.846-.759h1.47c.307 0 .544-.067.71-.201a.679.679 0 00.26-.567c0-.25-.087-.442-.26-.577-.166-.134-.403-.201-.71-.201h-1.47v1.546zm0-2.296h1.44c.27 0 .48-.064.634-.192.16-.128.24-.307.24-.538 0-.23-.076-.41-.23-.538-.154-.134-.368-.201-.644-.201h-1.44v1.47zm4.18 3.123v-.808h.174c.294 0 .5-.115.615-.345.121-.23.185-.644.192-1.24l.057-2.959h3.584v5.284h-.865v-4.496h-1.864l-.048 2.21c-.012.557-.077 1.008-.192 1.354-.109.346-.282.6-.519.76-.23.16-.534.24-.912.24h-.221zm8.332.028c-.416 0-.781-.083-1.095-.25a1.807 1.807 0 01-.72-.7 2.204 2.204 0 01-.25-1.067V94.71c0-.41.083-.766.25-1.067.173-.3.413-.534.72-.7a2.3 2.3 0 011.095-.25c.417 0 .779.083 1.086.25.314.166.554.4.72.7.173.301.26.657.26 1.067v.932h-3.286v.509c0 .416.106.736.317.96.212.218.513.327.903.327.333 0 .602-.057.807-.173a.763.763 0 00.375-.538h.865a1.472 1.472 0 01-.654 1.057c-.371.256-.835.384-1.393.384zm1.22-3.103v-.355c0-.416-.105-.737-.317-.96-.205-.225-.506-.337-.903-.337-.39 0-.691.112-.903.336-.211.224-.317.545-.317.96v.28h2.508l-.068.076zm2.491 3.007V92.79h.865v2.2h2.228v-2.2h.865v5.283h-.865v-2.296h-2.228v2.296h-.865zm5.69 0V92.79h.826v2.882c0 .185-.007.38-.02.586-.006.205-.018.4-.038.586a6.233 6.233 0 01-.048.46l2.133-4.514h1.105v5.283h-.827v-2.882c0-.186.004-.38.01-.586.013-.205.029-.4.048-.586l.048-.47-2.133 4.524h-1.104zm8.495.096c-.442 0-.798-.15-1.067-.451-.269-.301-.403-.695-.403-1.182v-.797h-.846v2.334h-.797V92.79h.797v2.257h.846v-.72c0-.493.131-.887.394-1.182.269-.301.627-.451 1.076-.451.474 0 .854.15 1.143.451.288.295.432.689.432 1.182v2.21c0 .486-.144.88-.432 1.18-.289.302-.67.452-1.144.452zm0-.672c.243 0 .432-.083.566-.25.141-.173.212-.41.212-.71v-2.21c0-.301-.07-.535-.212-.702-.134-.173-.323-.26-.566-.26a.667.667 0 00-.558.26c-.134.167-.201.4-.201.702v2.21c0 .3.067.537.201.71.135.167.32.25.558.25zm8.574.576V92.79h3.958v5.283h-.865v-4.496H77.96v4.496h-.864zm5.67 1.73V92.79h.865v1.008h.173L83.63 94c0-.403.131-.72.394-.951.269-.237.62-.356 1.056-.356.532 0 .955.177 1.268.529.32.346.48.823.48 1.431V96.2c0 .403-.073.752-.22 1.047a1.57 1.57 0 01-.605.682c-.257.16-.564.24-.923.24-.429 0-.778-.118-1.047-.355-.269-.237-.403-.554-.403-.951l.173.201h-.192l.019 1.201v1.537h-.865zm2.027-2.383c.365 0 .65-.109.855-.327.212-.217.317-.531.317-.941V94.71c0-.41-.106-.724-.317-.942-.205-.217-.49-.326-.855-.326-.352 0-.634.112-.845.336-.212.224-.317.535-.317.932v1.44c0 .398.105.709.317.933.211.224.493.336.845.336zm3.682.653V92.79h.826v2.882c0 .185-.006.38-.019.586-.006.205-.02.4-.038.586-.013.179-.03.333-.049.46l2.133-4.514h1.105v5.283h-.826v-2.882c0-.186.003-.38.01-.586.012-.205.028-.4.047-.586l.049-.47-2.133 4.524h-1.105zm5.027.068v-.808h.173c.294 0 .5-.115.615-.345.121-.23.185-.644.192-1.24l.057-2.959h3.584v5.284h-.865v-4.496h-1.864l-.048 2.21c-.013.557-.077 1.008-.192 1.354-.109.346-.282.6-.519.76-.23.16-.534.24-.912.24h-.221zm8.331.01c-.422 0-.787-.081-1.095-.241a1.745 1.745 0 01-.72-.692c-.167-.307-.25-.669-.25-1.085V94.73c0-.423.083-.785.25-1.086.173-.3.413-.531.72-.691.308-.16.673-.24 1.095-.24.423 0 .788.08 1.095.24.308.16.545.39.711.691.173.301.26.66.26 1.076v1.413c0 .416-.087.778-.26 1.085a1.677 1.677 0 01-.711.692c-.307.16-.672.24-1.095.24zm0-.77c.378 0 .673-.105.884-.317.211-.21.317-.521.317-.931V94.73c0-.41-.106-.72-.317-.932-.211-.211-.506-.317-.884-.317-.371 0-.666.106-.884.317-.211.212-.317.522-.317.932v1.403c0 .41.106.72.317.931.218.212.513.318.884.318zm2.981.692l1.153-2.709-1.076-2.575h.835l.923 2.306h.509V92.79h.73v2.305h.49l.951-2.305h.826l-1.076 2.545 1.153 2.738h-.865l-.96-2.401h-.519v2.401h-.73v-2.401h-.519l-.97 2.401h-.855zm8.399.096c-.417 0-.782-.083-1.096-.25a1.809 1.809 0 01-.72-.7 2.198 2.198 0 01-.25-1.067V94.71c0-.41.083-.766.25-1.067a1.81 1.81 0 01.72-.7c.314-.167.679-.25 1.096-.25.416 0 .778.083 1.085.25.314.166.554.4.721.7.173.301.259.657.259 1.067v.932h-3.285v.509c0 .416.105.736.317.96.211.218.512.327.903.327.333 0 .602-.057.807-.173a.763.763 0 00.374-.538h.865a1.475 1.475 0 01-.653 1.057c-.372.256-.836.384-1.393.384zm1.22-3.103v-.355c0-.416-.106-.737-.317-.96-.205-.225-.506-.337-.903-.337-.391 0-.692.112-.903.336-.212.224-.317.545-.317.96v.28h2.507l-.067.076zm2.49 3.007V92.79h.865v2.2h2.229v-2.2h.864v5.283h-.864v-2.296h-2.229v2.296h-.865zm5.69 0V92.79h.826v2.882c0 .185-.006.38-.019.586-.007.205-.019.4-.039.586a5.37 5.37 0 01-.048.46l2.133-4.514h1.105v5.283h-.826v-2.882c0-.186.003-.38.009-.586.013-.205.029-.4.048-.586l.048-.47-2.132 4.524h-1.105zm7.669.096c-.417 0-.782-.083-1.096-.25a1.809 1.809 0 01-.72-.7 2.198 2.198 0 01-.25-1.067V94.71c0-.41.083-.766.25-1.067a1.81 1.81 0 01.72-.7c.314-.167.679-.25 1.096-.25.416 0 .778.083 1.085.25.314.166.554.4.721.7.173.301.259.657.259 1.067v.932h-3.285v.509c0 .416.105.736.317.96.211.218.512.327.903.327.333 0 .602-.057.807-.173a.766.766 0 00.374-.538h.865a1.475 1.475 0 01-.653 1.057c-.372.256-.836.384-1.393.384zm1.22-3.103v-.355c0-.416-.106-.737-.317-.96-.205-.225-.506-.337-.903-.337-.391 0-.692.112-.903.336-.212.224-.317.545-.317.96v.28h2.507l-.067.076zm2.317 3.007V92.79h1.172l.692 2.027c.07.205.135.41.192.614.058.199.099.353.125.462.026-.11.064-.263.115-.462.058-.205.119-.413.183-.624l.653-2.017h1.172v5.283h-.836v-.816c0-.288.004-.602.01-.942l.019-1.028.039-.98c.012-.313.022-.589.028-.826l-.941 3.007h-.913l-.951-2.988c.013.289.023.647.029 1.076.013.43.022.878.029 1.345.013.468.019.913.019 1.336v.816h-.836zm-119.31 20v-5.283h.827v2.882c0 .185-.007.381-.02.586a8.2 8.2 0 01-.038.586 6.11 6.11 0 01-.048.461l2.133-4.515h1.105v5.283h-.827v-2.882c0-.186.004-.381.01-.586.013-.205.029-.4.048-.586l.048-.471-2.133 4.525H14.51zm13.359.077c-.423 0-.788-.08-1.095-.24a1.744 1.744 0 01-.72-.692c-.167-.307-.25-.669-.25-1.085v-1.403c0-.423.083-.784.25-1.085.172-.301.412-.532.72-.692.307-.16.672-.24 1.095-.24.423 0 .788.08 1.095.24.307.16.544.391.71.692.174.301.26.659.26 1.075v1.413c0 .416-.086.778-.26 1.085a1.683 1.683 0 01-.71.692c-.308.16-.672.24-1.095.24zm0-.768c.378 0 .672-.106.884-.317.21-.212.317-.522.317-.932v-1.403c0-.41-.106-.72-.317-.932-.212-.211-.506-.317-.884-.317-.372 0-.666.106-.884.317-.211.212-.317.522-.317.932v1.403c0 .41.106.72.317.932.218.211.512.317.884.317zm5.69.787c-.622 0-1.115-.182-1.48-.547-.359-.372-.538-.878-.538-1.518v-2.402c0-.845.211-1.495.634-1.95.423-.461 1.028-.692 1.816-.692h1.345v.865H33.99c-.519 0-.913.154-1.182.461-.269.301-.403.74-.403 1.316v.625h.134l-.134.192c.006-.378.134-.673.384-.884.25-.211.59-.317 1.018-.317.557 0 .99.179 1.297.538.314.359.47.852.47 1.479v.769c0 .429-.08.797-.24 1.105-.16.307-.39.544-.691.711-.301.166-.663.249-1.086.249zm0-.768c.37 0 .656-.112.854-.336.199-.225.298-.545.298-.961v-.769c0-.416-.099-.736-.298-.96-.198-.225-.483-.337-.855-.337-.371 0-.656.112-.855.337-.198.217-.297.538-.297.96v.769c0 .416.099.736.297.961.199.224.484.336.855.336zm3.69 2.401v-7.012h.866v1.008h.172l-.172.202c0-.403.13-.721.393-.951.27-.237.622-.356 1.057-.356.532 0 .954.177 1.268.529.32.346.48.823.48 1.431v1.547c0 .403-.073.752-.22 1.047a1.568 1.568 0 01-.606.682c-.256.16-.563.24-.922.24-.429 0-.778-.118-1.047-.355-.269-.237-.404-.554-.404-.951l.173.202h-.192l.02 1.2v1.537h-.865zm2.028-2.382c.365 0 .65-.109.855-.327.211-.217.317-.531.317-.941v-1.441c0-.41-.106-.724-.317-.942-.205-.217-.49-.326-.855-.326-.352 0-.634.112-.846.336-.21.224-.316.535-.316.932v1.441c0 .397.105.708.317.932.21.224.493.336.845.336zm5.2.749c-.558 0-.996-.141-1.316-.422-.32-.289-.48-.676-.48-1.163 0-.493.16-.88.48-1.162.32-.282.752-.423 1.296-.423h1.633v-.528c0-.327-.099-.577-.297-.75-.192-.179-.468-.269-.826-.269-.314 0-.577.068-.788.202a.717.717 0 00-.365.529h-.865c.058-.455.272-.817.644-1.086.371-.269.836-.404 1.393-.404.608 0 1.089.157 1.44.471.353.314.53.74.53 1.278v3.631h-.846v-1.008h-.144l.144-.145c0 .385-.15.689-.452.913-.294.224-.688.336-1.181.336zm.211-.682c.41 0 .746-.102 1.009-.307a.957.957 0 00.394-.788v-.749h-1.614c-.289 0-.516.08-.682.24-.167.16-.25.378-.25.653 0 .295.099.529.298.701.205.167.486.25.845.25zm5.94.682c-.622 0-1.115-.182-1.48-.547-.359-.372-.538-.878-.538-1.518v-2.402c0-.845.211-1.495.634-1.95.423-.461 1.028-.692 1.816-.692h1.345v.865h-1.345c-.52 0-.913.154-1.182.461-.269.301-.403.74-.403 1.316v.625h.134l-.134.192c.006-.378.134-.673.384-.884.25-.211.59-.317 1.018-.317.557 0 .99.179 1.297.538.314.359.47.852.47 1.479v.769c0 .429-.08.797-.24 1.105-.16.307-.39.544-.691.711-.301.166-.663.249-1.086.249zm0-.768c.37 0 .656-.112.854-.336.199-.225.298-.545.298-.961v-.769c0-.416-.1-.736-.298-.96-.198-.225-.483-.337-.855-.337-.371 0-.656.112-.855.337-.198.217-.297.538-.297.96v.769c0 .416.099.736.297.961.199.224.484.336.855.336zm5.69.749c-.424 0-.789-.08-1.096-.24a1.744 1.744 0 01-.72-.692c-.167-.307-.25-.669-.25-1.085v-1.403c0-.423.083-.784.25-1.085a1.74 1.74 0 01.72-.692c.307-.16.672-.24 1.095-.24.423 0 .788.08 1.095.24.308.16.545.391.711.692.173.301.26.659.26 1.075v1.413c0 .416-.087.778-.26 1.085a1.683 1.683 0 01-.71.692c-.308.16-.673.24-1.096.24zm0-.768c.377 0 .672-.106.883-.317.211-.212.317-.522.317-.932v-1.403c0-.41-.106-.72-.317-.932-.212-.211-.506-.317-.884-.317-.371 0-.666.106-.884.317-.211.212-.317.522-.317.932v1.403c0 .41.106.72.317.932.218.211.513.317.884.317zm5.256.691v-4.525h-1.92v-.758h4.706v.758h-1.921v4.525h-.865zm4.172 0v-5.283h.865v2.18h.903l1.537-2.18h.99l-1.778 2.517 1.806 2.766H69.06l-1.538-2.353h-.912v2.353h-.865zm7.64.096a2.31 2.31 0 01-1.095-.249 1.813 1.813 0 01-.72-.702 2.203 2.203 0 01-.25-1.066v-1.441c0-.41.083-.765.25-1.066.172-.301.412-.535.72-.702a2.31 2.31 0 011.095-.25c.416 0 .778.084 1.086.25.313.167.554.401.72.702.173.301.26.656.26 1.066v.932h-3.286v.509c0 .416.106.736.317.961.211.217.512.326.903.326.333 0 .602-.057.807-.173a.762.762 0 00.375-.538h.864a1.473 1.473 0 01-.653 1.057c-.372.256-.836.384-1.393.384zm1.22-3.103v-.355c0-.416-.106-.737-.317-.961-.205-.224-.506-.336-.903-.336-.39 0-.692.112-.903.336-.211.224-.317.545-.317.961v.278h2.507l-.067.077zm9.91 3.074c-.558 0-1.016-.118-1.374-.355a1.412 1.412 0 01-.634-.961h.912c.045.16.164.292.356.394.198.103.445.154.74.154h.451c.314 0 .557-.074.73-.221a.71.71 0 00.27-.576c0-.257-.087-.458-.26-.606-.167-.147-.413-.221-.74-.221h-1.162v-.749h1.133c.295 0 .519-.07.673-.211a.72.72 0 00.23-.557.727.727 0 00-.105-.404.612.612 0 00-.298-.25 1.254 1.254 0 00-.49-.086h-.48c-.257 0-.478.057-.663.173-.186.115-.298.256-.337.422h-.912c.064-.397.272-.723.624-.979.352-.257.782-.385 1.287-.385h.48c.379 0 .702.061.971.183.27.115.474.282.615.499.147.218.22.478.22.779 0 .313-.102.573-.306.778-.205.198-.494.31-.865.336v.038c.455.032.784.154.99.365.204.212.307.516.307.913 0 .468-.173.839-.519 1.114-.346.276-.81.413-1.393.413h-.451zm5.478.029c-.557 0-.996-.141-1.316-.422-.32-.289-.48-.676-.48-1.163 0-.493.16-.88.48-1.162.32-.282.752-.423 1.297-.423h1.633v-.528c0-.327-.1-.577-.298-.75-.192-.179-.468-.269-.826-.269-.314 0-.577.068-.788.202a.717.717 0 00-.365.529h-.865c.058-.455.273-.817.644-1.086.372-.269.836-.404 1.393-.404.608 0 1.089.157 1.441.471.352.314.528.74.528 1.278v3.631h-.845v-1.008h-.144l.144-.145c0 .385-.15.689-.452.913-.294.224-.688.336-1.181.336zm.211-.682c.41 0 .746-.102 1.009-.307a.957.957 0 00.394-.788v-.749h-1.614c-.288 0-.516.08-.682.24-.167.16-.25.378-.25.653 0 .295.1.529.298.701.205.167.487.25.845.25zm3.99.586v-5.283h.864v2.18h.903l1.537-2.18h.99l-1.778 2.517 1.806 2.766h-1.008l-1.537-2.353h-.913v2.353h-.865zm7.178.096c-.557 0-.996-.141-1.316-.422-.32-.289-.48-.676-.48-1.163 0-.493.16-.88.48-1.162.32-.282.753-.423 1.297-.423h1.633v-.528c0-.327-.099-.577-.298-.75-.192-.179-.467-.269-.826-.269-.314 0-.576.068-.788.202a.718.718 0 00-.365.529h-.864c.057-.455.272-.817.643-1.086.372-.269.836-.404 1.393-.404.609 0 1.089.157 1.441.471.353.314.529.74.529 1.278v3.631h-.846v-1.008h-.144l.144-.145c0 .385-.15.689-.451.913-.295.224-.689.336-1.182.336zm.212-.682c.409 0 .746-.102 1.008-.307a.956.956 0 00.394-.788v-.749h-1.614c-.288 0-.515.08-.682.24-.166.16-.25.378-.25.653 0 .295.1.529.298.701.205.167.487.25.846.25zm5.689.653c-.557 0-1.015-.118-1.374-.355a1.414 1.414 0 01-.634-.961h.913c.045.16.163.292.355.394.199.103.446.154.74.154h.452c.314 0 .557-.074.73-.221a.71.71 0 00.269-.576c0-.257-.087-.458-.26-.606-.166-.147-.413-.221-.739-.221h-1.163v-.749h1.134c.294 0 .519-.07.672-.211a.72.72 0 00.231-.557.723.723 0 00-.106-.404.61.61 0 00-.298-.25 1.25 1.25 0 00-.49-.086h-.48c-.256 0-.477.057-.663.173-.185.115-.298.256-.336.422h-.913c.064-.397.273-.723.625-.979.352-.257.781-.385 1.287-.385h.48c.378 0 .702.061.971.183.269.115.474.282.615.499.147.218.221.478.221.779 0 .313-.103.573-.308.778-.205.198-.493.31-.864.336v.038c.454.032.784.154.989.365.205.212.307.516.307.913 0 .468-.172.839-.518 1.114-.346.276-.811.413-1.393.413h-.452zm5.94.01c-.423 0-.788-.08-1.096-.24a1.745 1.745 0 01-.72-.692c-.167-.307-.25-.669-.25-1.085v-1.403c0-.423.083-.784.25-1.085.173-.301.413-.532.72-.692.308-.16.673-.24 1.096-.24.422 0 .787.08 1.095.24.307.16.544.391.711.692.173.301.259.659.259 1.075v1.413c0 .416-.086.778-.259 1.085a1.689 1.689 0 01-.711.692c-.308.16-.673.24-1.095.24zm0-.768c.377 0 .672-.106.883-.317.212-.212.317-.522.317-.932v-1.403c0-.41-.105-.72-.317-.932-.211-.211-.506-.317-.883-.317-.372 0-.666.106-.884.317-.212.212-.317.522-.317.932v1.403c0 .41.105.72.317.932.218.211.512.317.884.317zm3.71.691v-5.283h2.287c.55 0 .976.124 1.277.374.301.244.452.586.452 1.028 0 .365-.125.66-.375.884-.25.218-.579.327-.989.327v-.077c.448 0 .807.112 1.076.336.275.224.413.525.413.903 0 .474-.16.845-.481 1.114-.32.263-.768.394-1.345.394h-2.315zm.846-.759h1.469c.308 0 .545-.067.711-.201a.679.679 0 00.26-.567c0-.25-.087-.442-.26-.577-.166-.134-.403-.201-.711-.201h-1.469v1.546zm0-2.296h1.441c.269 0 .48-.064.634-.192.16-.128.24-.307.24-.538 0-.23-.077-.41-.231-.538-.153-.134-.368-.202-.643-.202h-1.441v1.47zm6.823 3.151c-.243 0-.439-.07-.586-.211-.141-.141-.211-.33-.211-.567 0-.25.07-.448.211-.595.147-.148.343-.221.586-.221.243 0 .435.073.576.221.148.147.221.345.221.595 0 .237-.073.426-.221.567-.141.141-.333.211-.576.211z" fill="#fff"/><path d="M16.235 27.096c-.448 0-.838-.083-1.171-.25a1.872 1.872 0 01-.76-.72c-.172-.314-.259-.682-.259-1.105v-3.055c0-.423.087-.788.26-1.095.179-.314.432-.554.758-.72.333-.174.724-.26 1.172-.26.455 0 .846.087 1.173.26.326.166.576.406.749.72.18.307.269.67.269 1.085v3.065c0 .423-.09.791-.27 1.105a1.808 1.808 0 01-.748.72c-.327.167-.718.25-1.173.25zm0-1.057c.327 0 .574-.086.74-.26.167-.178.25-.431.25-.758v-3.055c0-.333-.083-.586-.25-.759-.166-.173-.413-.26-.74-.26-.326 0-.573.087-.74.26-.166.173-.249.426-.249.76v3.054c0 .327.083.58.25.759.173.173.42.26.74.26zm5.69 1.057c-.672-.006-1.207-.195-1.604-.567-.39-.371-.586-.88-.586-1.527v-2.373c0-.846.227-1.495.682-1.95.455-.461 1.101-.692 1.94-.692h1.49v1.172h-1.49c-.46 0-.813.125-1.056.375-.237.25-.356.615-.356 1.095v.653h.135l-.125.154c0-.365.122-.653.365-.865.243-.211.586-.317 1.028-.317.557 0 .99.183 1.297.548.314.358.47.858.47 1.498v.702c0 .429-.09.804-.268 1.124-.18.314-.433.557-.76.73-.32.166-.707.246-1.162.24zm0-1.047c.32 0 .564-.09.73-.27.167-.185.25-.444.25-.777V24.3c0-.34-.083-.6-.25-.779-.166-.179-.41-.269-.73-.269-.314 0-.557.09-.73.27-.166.172-.25.432-.25.777v.702c0 .333.084.592.25.778.173.18.416.269.73.269zm4.402 2.68l.74-2.017-1.97-4.996h1.317l.98 2.7a9.536 9.536 0 01.269 1.047c.032-.135.074-.304.125-.51.051-.21.102-.39.154-.537l.922-2.7h1.268l-2.546 7.013h-1.258zM34.188 27v-1.777a5.374 5.374 0 01-.403.067 5.43 5.43 0 01-.596.029c-.679 0-1.21-.167-1.595-.5-.384-.34-.576-.81-.576-1.412v-1.69h1.2v1.632c0 .276.097.494.29.654.191.153.454.23.787.23.218 0 .407-.01.567-.029.16-.025.269-.048.326-.067v-2.42h1.21V27h-1.21zm4.816.096c-.449 0-.84-.086-1.172-.26a1.923 1.923 0 01-.778-.72 2.17 2.17 0 01-.27-1.095v-1.326c0-.416.09-.778.27-1.085a1.89 1.89 0 01.778-.73c.333-.173.723-.26 1.172-.26.442 0 .826.087 1.153.26.333.172.589.416.768.73.186.307.279.669.279 1.085v.951h-3.257v.375c0 .371.09.653.269.845.18.186.445.279.797.279.27 0 .487-.045.654-.134a.642.642 0 00.317-.414h1.181c-.09.455-.333.82-.73 1.096-.39.269-.868.403-1.431.403zm1.037-3.122v-.288c0-.365-.086-.644-.26-.836-.172-.199-.431-.298-.777-.298-.346 0-.609.1-.788.298-.18.198-.269.48-.269.845v.202l2.18-.02-.086.097zM42.551 27v-5.284h1.201v2.046h1.864v-2.046h1.2V27h-1.2v-2.123h-1.864V27h-1.2zm5.69 0v-5.284h1.085v2.604c0 .166-.01.365-.029.595-.012.225-.031.445-.057.663-.026.218-.051.407-.077.567l1.864-4.429h1.48V27H51.42v-2.603c0-.173.006-.365.019-.577.019-.211.038-.42.058-.624.025-.205.05-.378.076-.519L49.72 27h-1.48zm7.832.096c-.449 0-.84-.086-1.172-.26a1.923 1.923 0 01-.778-.72 2.168 2.168 0 01-.27-1.095v-1.326c0-.416.09-.778.27-1.085a1.89 1.89 0 01.778-.73c.333-.173.723-.26 1.172-.26.442 0 .826.087 1.152.26.334.172.59.416.77.73.185.307.278.669.278 1.085v.951h-3.257v.375c0 .371.09.653.269.845.18.186.445.279.797.279.27 0 .487-.045.654-.134a.642.642 0 00.317-.414h1.181c-.09.455-.333.82-.73 1.096-.39.269-.868.403-1.431.403zm1.037-3.122v-.288c0-.365-.086-.644-.26-.836-.172-.199-.431-.298-.777-.298-.346 0-.609.1-.788.298-.18.198-.269.48-.269.845v.202l2.18-.02-.086.097zM65.34 27v-5.284h1.2v2.075h.788l1.288-2.075h1.344l-1.594 2.556L69.988 27h-1.373l-1.288-2.19h-.788V27h-1.2zm7.793.087c-.448 0-.839-.084-1.172-.25a1.939 1.939 0 01-.768-.72c-.18-.315-.27-.683-.27-1.106v-1.306c0-.423.09-.788.27-1.095a1.84 1.84 0 01.768-.72c.333-.174.724-.26 1.172-.26.455 0 .846.086 1.172.26.327.166.58.406.759.72.186.307.279.669.279 1.085v1.316c0 .423-.093.791-.279 1.105-.18.308-.432.548-.759.72-.326.167-.717.25-1.172.25zm0-1.048c.32 0 .567-.086.74-.26.18-.178.269-.435.269-.768v-1.306c0-.34-.09-.596-.27-.769-.172-.173-.419-.259-.739-.259-.314 0-.56.086-.74.26-.179.172-.269.428-.269.768v1.306c0 .333.09.59.27.769.179.173.425.26.74.26zm3.346.961v-5.284h1.44l.654 1.989c.07.218.128.423.173.615.051.192.083.336.096.432l.086-.432c.045-.192.103-.397.173-.615l.625-1.989h1.44V27h-1.114v-.903a45.428 45.428 0 01.038-1.71c.014-.314.026-.612.04-.893a98.7 98.7 0 00.047-.76l-.797 2.738h-1.095l-.826-2.728c.019.27.038.602.057 1a36.781 36.781 0 01.077 2.354V27h-1.114zm7.447.096c-.544 0-.973-.144-1.287-.432-.314-.288-.47-.676-.47-1.163 0-.518.172-.919.518-1.2.346-.282.836-.423 1.47-.423h1.316v-.452c0-.256-.083-.454-.25-.595-.166-.148-.394-.221-.682-.221-.262 0-.48.057-.653.173a.675.675 0 00-.308.47h-1.171c.057-.5.281-.896.672-1.19.39-.296.89-.443 1.499-.443.647 0 1.156.163 1.527.49.378.32.567.756.567 1.307V27H85.51v-.922h-.192l.192-.26c0 .391-.144.702-.432.932-.288.23-.672.346-1.153.346zm.394-.903c.34 0 .615-.086.826-.26a.82.82 0 00.327-.672v-.643h-1.297c-.243 0-.438.07-.586.21a.736.736 0 00-.22.558c0 .25.082.448.249.596.173.14.407.211.701.211zm3.75.807v-5.284h1.2v2.046h1.864v-2.046h1.2V27h-1.2v-2.123H89.27V27h-1.2zm5.18 1.345v-2.363h.355c.11-.11.221-.308.337-.596.121-.294.185-.66.192-1.095l.057-2.575h3.699v4.266h.624v2.363H97.41V27h-3.055v1.345H93.25zm1.575-2.363h1.922v-3.219h-1.441l-.039 1.528c-.006.429-.06.79-.163 1.085-.096.289-.189.49-.279.606zM99.18 27v-5.284h1.037v1.787h.356c.57 0 1.021.16 1.354.48.333.32.5.75.5 1.288 0 .525-.17.944-.509 1.258-.333.314-.782.471-1.345.471H99.18zm1.037-.932h.356c.275 0 .486-.07.634-.211.153-.141.23-.336.23-.586 0-.263-.077-.468-.23-.615-.148-.147-.359-.221-.634-.221h-.356v1.633zm2.729.932v-5.284h1.037V27h-1.037zm4.325-3.766c-.269 0-.487-.074-.653-.22a.778.778 0 01-.24-.587c0-.243.08-.439.24-.586.166-.147.384-.22.653-.22s.484.073.644.22a.745.745 0 01.249.586.764.764 0 01-.249.586c-.16.147-.375.221-.644.221zm0 3.862c-.269 0-.487-.074-.653-.22a.758.758 0 01-.24-.587c0-.243.08-.439.24-.586.166-.147.384-.22.653-.22s.484.073.644.22a.745.745 0 01.249.586.745.745 0 01-.249.586c-.16.147-.375.221-.644.221z" fill="#000"/><defs><filter id="filter0_d_2004_80" x=".511" y="0" width="179.685" height="196.685" filterUnits="userSpaceOnUse" color-interpolation-filters="sRGB"><feFlood flood-opacity="0" result="BackgroundImageFix"/><feColorMatrix in="SourceAlpha" values="0 0 0 0 0 0 0 0 0 0 0 0 0 0 0 0 0 0 127 0" result="hardAlpha"/><feOffset dy="3.843"/><feGaussianBlur stdDeviation="1.921"/><feComposite in2="hardAlpha" operator="out"/><feColorMatrix values="0 0 0 0 0 0 0 0 0 0 0 0 0 0 0 0 0 0 0.25 0"/><feBlend in2="BackgroundImageFix" result="effect1_dropShadow_2004_80"/><feBlend in="SourceGraphic" in2="effect1_dropShadow_2004_80" result="shape"/></filter></defs></svg>