<svg width="181" height="179" fill="none" xmlns="http://www.w3.org/2000/svg"><g filter="url(#filter0_d_2004_82)"><rect x="4.646" width="171.961" height="171" rx="16.011" fill="#E1EDE4"/></g><mask id="a" style="mask-type:alpha" maskUnits="userSpaceOnUse" x="4" y="0" width="173" height="43"><path fill="#C9D9CD" d="M4.646 0h171.961v42.27H4.646z"/></mask><g mask="url(#a)"><rect x="4.646" y="-1.69" width="171.961" height="118.355" rx="16.011" fill="#174756"/></g><path d="M16.882 60.096c-.423 0-.788-.08-1.095-.24a1.697 1.697 0 01-.701-.692c-.16-.307-.24-.67-.24-1.085v-3.17c0-.423.08-.785.24-1.086.166-.301.4-.532.7-.692.308-.16.673-.24 1.096-.24.423 0 .785.08 1.086.24.307.16.54.39.7.692.167.3.25.66.25 1.076v3.18c0 .416-.083.778-.25 1.085-.16.301-.393.532-.7.692-.301.16-.663.24-1.086.24zm0-.778c.378 0 .666-.106.865-.317.205-.218.307-.525.307-.922v-3.17c0-.398-.102-.702-.307-.913-.199-.218-.487-.327-.865-.327-.371 0-.66.109-.865.327-.204.211-.307.515-.307.912v3.17c0 .398.102.705.307.923.205.211.494.317.865.317zm5.709.778a2.46 2.46 0 01-1.114-.24 1.73 1.73 0 01-.73-.692c-.174-.307-.26-.67-.26-1.085v-1.441c0-.423.087-.785.26-1.086a1.73 1.73 0 01.73-.692c.32-.16.691-.24 1.114-.24.608 0 1.098.163 1.47.49.371.327.567.772.586 1.336h-.865c-.02-.34-.134-.6-.346-.779-.205-.185-.486-.278-.845-.278-.378 0-.679.109-.903.326-.224.212-.336.516-.336.913v1.45c0 .398.112.705.336.923.224.218.525.327.903.327.358 0 .64-.093.845-.28.212-.185.327-.444.346-.777h.865c-.02.563-.215 1.008-.586 1.335-.372.327-.862.49-1.47.49zm4.498 1.633l.779-2.056-1.96-4.957h.96l1.23 3.267c.045.109.087.24.125.394l.096.374.096-.374a4.47 4.47 0 01.115-.394l1.153-3.267h.932l-2.603 7.013h-.923zm8.735-.384V60h-4.14v-5.284h.778v4.554h1.114v-4.554h.673v4.554h1.114v-4.554h.778v4.554h.452v2.075h-.769zm3.817-1.249c-.417 0-.782-.083-1.096-.25a1.807 1.807 0 01-.72-.701 2.204 2.204 0 01-.25-1.066v-1.441c0-.41.083-.766.25-1.067.173-.3.413-.535.72-.701.314-.166.68-.25 1.096-.25.416 0 .778.084 1.085.25.314.166.554.4.72.701.174.301.26.657.26 1.067v.931h-3.285v.51c0 .416.105.736.317.96.211.218.512.327.903.327.333 0 .602-.058.807-.173a.763.763 0 00.374-.538h.865a1.472 1.472 0 01-.653 1.057c-.372.256-.836.384-1.393.384zm1.22-3.103v-.355c0-.417-.106-.737-.317-.961-.205-.224-.506-.336-.903-.336-.391 0-.692.112-.903.336-.212.224-.317.544-.317.96v.28h2.507l-.067.076zm4.489 3.103c-.423 0-.795-.08-1.115-.24a1.73 1.73 0 01-.73-.692c-.173-.307-.26-.67-.26-1.085v-1.441c0-.423.087-.785.26-1.086a1.73 1.73 0 01.73-.692c.32-.16.692-.24 1.114-.24.609 0 1.099.163 1.47.49.372.327.567.772.586 1.336h-.864c-.02-.34-.135-.6-.346-.779-.205-.185-.487-.278-.846-.278-.377 0-.678.109-.902.326-.225.212-.337.516-.337.913v1.45c0 .398.112.705.337.923.224.218.525.327.902.327.36 0 .641-.093.846-.28.211-.185.327-.444.346-.777h.864c-.019.563-.214 1.008-.586 1.335-.371.327-.861.49-1.47.49zM50.587 60v-4.525h-1.922v-.759h4.708v.76h-1.922V60h-.864zm4.143 0v-5.284h2.286c.55 0 .977.125 1.278.375.3.243.451.586.451 1.028 0 .365-.125.66-.374.884-.25.217-.58.326-.99.326v-.077c.448 0 .807.113 1.076.337.275.224.413.525.413.903 0 .474-.16.845-.48 1.114-.32.263-.769.394-1.345.394H54.73zm.845-.759h1.47c.307 0 .544-.067.71-.202.174-.134.26-.323.26-.567 0-.25-.086-.441-.26-.576-.166-.134-.403-.202-.71-.202h-1.47v1.547zm0-2.296h1.441c.269 0 .48-.064.634-.192.16-.128.24-.307.24-.538 0-.23-.077-.41-.23-.538-.154-.135-.369-.202-.644-.202h-1.441v1.47zm4.181 3.122v-.807h.173c.295 0 .5-.115.615-.346.122-.23.186-.643.192-1.239l.058-2.959h3.583V60h-.864v-4.496H61.65l-.048 2.21c-.013.557-.077 1.008-.192 1.354-.11.346-.282.599-.519.76-.23.16-.535.24-.913.24h-.22zM65.783 60l1.355-2.037c-.404-.096-.718-.281-.942-.557-.217-.275-.326-.618-.326-1.028 0-.519.17-.925.509-1.22.346-.294.816-.442 1.412-.442h2.277V60h-.865v-1.97h-1.162L66.792 60h-1.009zm2.008-2.738h1.412v-1.777h-1.412c-.32 0-.573.08-.759.24-.186.154-.278.371-.278.653 0 .276.092.493.278.654.186.153.439.23.76.23zm3.346 2.805v-.807h.173c.294 0 .5-.115.614-.346.122-.23.186-.643.193-1.239l.057-2.959h3.584V60h-.865v-4.496h-1.864l-.048 2.21c-.013.557-.077 1.008-.192 1.354-.109.346-.282.599-.519.76-.23.16-.534.24-.912.24h-.221zM77.489 60v-5.284h.826v2.882c0 .186-.006.381-.019.586-.006.205-.019.4-.038.586-.013.18-.029.333-.048.461l2.132-4.515h1.105V60h-.826v-2.882c0-.186.003-.381.01-.586.012-.205.028-.4.048-.586l.048-.47L78.594 60h-1.105zm11.207 0v-5.284h1.172l.691 2.027c.07.205.135.41.192.615.058.199.1.352.125.461.026-.109.064-.262.116-.46.057-.206.118-.414.182-.625l.653-2.018H93V60h-.835v-.817c0-.288.003-.602.01-.941l.018-1.028.039-.98c.013-.314.022-.59.029-.826l-.942 3.007h-.912l-.951-2.988c.012.288.022.647.028 1.076.013.43.023.878.03 1.345.012.468.018.913.018 1.335V60h-.835zm7.841.077c-.422 0-.788-.08-1.095-.24a1.744 1.744 0 01-.72-.692c-.167-.307-.25-.67-.25-1.086v-1.402c0-.423.083-.785.25-1.086.172-.3.413-.531.72-.691.307-.16.673-.24 1.095-.24.423 0 .788.08 1.095.24.308.16.545.39.711.691.173.301.26.66.26 1.076v1.412c0 .417-.087.779-.26 1.086a1.684 1.684 0 01-.71.692c-.308.16-.673.24-1.096.24zm0-.769c.378 0 .673-.105.884-.317.211-.211.317-.522.317-.932v-1.402c0-.41-.106-.72-.317-.932-.211-.211-.506-.317-.884-.317-.371 0-.666.106-.884.317-.211.211-.317.522-.317.932v1.402c0 .41.106.72.317.932.218.212.513.317.884.317zm3.711.692v-5.284h.864v2.2h2.229v-2.2h.865V60h-.865v-2.296h-2.229V60h-.864zm5.69 0v-5.284h.826v2.882c0 .186-.007.381-.02.586a8.08 8.08 0 01-.038.586c-.013.18-.029.333-.048.461l2.133-4.515h1.104V60h-.826v-2.882c0-.186.004-.381.01-.586.013-.205.029-.4.048-.586l.048-.47L107.042 60h-1.104zm7.236 0v-4.525h-1.922v-.759h4.708v.76h-1.922V60h-.864zm6.122.077c-.423 0-.788-.08-1.095-.24a1.742 1.742 0 01-.721-.692c-.166-.307-.25-.67-.25-1.086v-1.402c0-.423.084-.785.25-1.086.173-.3.413-.531.721-.691.307-.16.672-.24 1.095-.24.423 0 .788.08 1.095.24.307.16.544.39.711.691.173.301.259.66.259 1.076v1.412c0 .417-.086.779-.259 1.086a1.689 1.689 0 01-.711.692c-.307.16-.672.24-1.095.24zm0-.769c.378 0 .672-.105.884-.317.211-.211.317-.522.317-.932v-1.402c0-.41-.106-.72-.317-.932-.212-.211-.506-.317-.884-.317-.372 0-.666.106-.884.317-.211.211-.317.522-.317.932v1.402c0 .41.106.72.317.932.218.212.512.317.884.317zm3.691 2.421v-7.013h.865v1.009h.173l-.173.202c0-.404.131-.72.394-.951.269-.237.621-.356 1.056-.356.532 0 .955.176 1.269.529.32.345.48.823.48 1.431v1.547c0 .403-.074.752-.221 1.047a1.575 1.575 0 01-.605.682c-.256.16-.564.24-.923.24-.429 0-.778-.118-1.047-.355-.269-.237-.403-.554-.403-.951l.173.201h-.192l.019 1.201v1.537h-.865zm2.027-2.382c.365 0 .65-.11.855-.327.212-.218.317-.532.317-.941v-1.441c0-.41-.105-.724-.317-.942-.205-.218-.49-.326-.855-.326-.352 0-.634.112-.845.336-.211.224-.317.535-.317.932v1.44c0 .398.106.708.317.932.211.225.493.337.845.337zm3.682.653v-5.284h.826v2.882c0 .186-.006.381-.019.586a8.08 8.08 0 01-.038.586c-.013.18-.029.333-.048.461l2.132-4.515h1.105V60h-.826v-2.882c0-.186.003-.381.01-.586.012-.205.028-.4.048-.586l.048-.47L129.801 60h-1.105zm5.69 0v-5.284h.864v2.2h2.229v-2.2h.865V60h-.865v-2.296h-2.229V60h-.864zm6.035 0v-5.284h3.795v.788h-2.93V60h-.865zM14.884 80.73v-7.014h.864v1.009h.173l-.173.202c0-.404.132-.72.394-.951.27-.237.622-.356 1.057-.356.532 0 .954.176 1.268.529.32.345.48.823.48 1.431v1.547c0 .403-.073.752-.22 1.047a1.57 1.57 0 01-.606.682c-.256.16-.563.24-.922.24-.43 0-.778-.118-1.047-.355-.27-.237-.404-.554-.404-.951l.173.201h-.192l.02 1.201v1.537h-.865zm2.027-2.383c.365 0 .65-.11.855-.327.211-.218.317-.531.317-.941v-1.441c0-.41-.106-.724-.317-.942-.205-.218-.49-.326-.855-.326-.352 0-.634.112-.846.336-.21.224-.317.535-.317.932v1.44c0 .398.106.708.317.932.212.225.494.337.846.337zm5.2.75c-.558 0-.996-.142-1.317-.424-.32-.288-.48-.675-.48-1.162 0-.493.16-.88.48-1.162.32-.282.753-.423 1.297-.423h1.633v-.529c0-.326-.099-.576-.297-.749-.192-.18-.468-.269-.826-.269-.314 0-.577.067-.788.202a.718.718 0 00-.365.528h-.865c.058-.454.272-.816.644-1.085.371-.27.835-.404 1.393-.404.608 0 1.088.157 1.44.471.353.314.53.74.53 1.278V79h-.846v-1.009H23.6l.144-.144c0 .385-.15.689-.452.913-.294.224-.688.336-1.181.336zm.21-.683c.41 0 .747-.103 1.01-.307a.957.957 0 00.393-.788v-.75h-1.613c-.289 0-.516.08-.683.24-.166.16-.25.379-.25.654 0 .294.1.528.299.701.204.167.486.25.845.25zm5.94.682c-.62 0-1.114-.183-1.48-.547-.358-.372-.537-.878-.537-1.518v-2.402c0-.846.211-1.496.634-1.95.423-.461 1.028-.692 1.816-.692h1.345v.865h-1.345c-.52 0-.913.153-1.182.46-.269.302-.404.74-.404 1.317v.624h.135l-.134.192c.006-.377.134-.672.384-.883.25-.212.589-.317 1.018-.317.557 0 .99.179 1.297.538.314.358.47.851.47 1.48v.768c0 .429-.08.797-.24 1.104-.16.308-.39.545-.691.711-.301.167-.663.25-1.086.25zm0-.769c.372 0 .657-.112.855-.336.199-.224.298-.544.298-.96v-.769c0-.416-.1-.736-.298-.96-.198-.225-.483-.337-.855-.337-.371 0-.656.112-.855.336-.198.218-.297.538-.297.961v.769c0 .416.099.736.297.96.199.224.484.337.855.337zm5.69.75c-.423 0-.788-.08-1.095-.24a1.744 1.744 0 01-.72-.692c-.167-.307-.25-.67-.25-1.086v-1.402c0-.423.083-.785.25-1.086.172-.3.412-.531.72-.691.307-.16.672-.24 1.095-.24.423 0 .788.08 1.095.24.308.16.544.39.711.691.173.301.26.66.26 1.076v1.412c0 .417-.087.779-.26 1.086a1.684 1.684 0 01-.71.692c-.308.16-.673.24-1.096.24zm0-.769c.378 0 .672-.105.884-.317.211-.211.317-.522.317-.932v-1.402c0-.41-.106-.72-.317-.932-.212-.211-.506-.317-.884-.317-.371 0-.666.106-.884.317-.211.211-.317.522-.317.932v1.402c0 .41.106.72.317.932.218.212.513.317.884.317zm5.257.692v-4.525h-1.921v-.759h4.707v.76h-1.921V79h-.865zm3.865 0v-5.284h.807v1.94h.432c.57 0 1.018.151 1.345.452.333.295.5.702.5 1.22 0 .52-.167.93-.5 1.23-.327.295-.775.442-1.345.442h-1.24zm.807-.692h.432c.34 0 .602-.086.788-.26.192-.172.288-.412.288-.72 0-.307-.096-.547-.288-.72-.186-.173-.449-.26-.788-.26h-.432v1.96zm2.9.692v-5.284h.808V79h-.807zm7.95 0v-5.284h3.959V79h-.865v-4.496h-2.229V79h-.864zm5.671 1.73v-7.014h.865v1.009h.173l-.173.202c0-.404.131-.72.394-.951.269-.237.62-.356 1.056-.356.532 0 .955.176 1.268.529.32.345.48.823.48 1.431v1.547c0 .403-.073.752-.22 1.047a1.57 1.57 0 01-.605.682c-.257.16-.564.24-.923.24-.429 0-.778-.118-1.047-.355-.269-.237-.403-.554-.403-.951l.173.201h-.193l.02 1.201v1.537H60.4zm2.027-2.383c.365 0 .65-.11.855-.327.211-.218.317-.531.317-.941v-1.441c0-.41-.106-.724-.317-.942-.205-.218-.49-.326-.855-.326-.352 0-.634.112-.845.336-.212.224-.317.535-.317.932v1.44c0 .398.105.708.317.932.211.225.493.337.845.337zM66.11 79v-5.284h.826v2.882c0 .186-.006.381-.02.586-.005.205-.018.4-.037.586-.013.18-.03.333-.049.462l2.133-4.516h1.105V79h-.826v-2.882c0-.186.003-.381.01-.586.012-.205.028-.4.047-.586l.048-.47L67.215 79H66.11zm5.027.067v-.807h.173c.294 0 .5-.115.614-.346.122-.23.186-.643.193-1.239l.057-2.959h3.584V79h-.865v-4.496h-1.864l-.048 2.21c-.013.557-.077 1.008-.192 1.354-.109.346-.282.599-.519.76-.23.16-.534.24-.912.24h-.221zm8.331.01c-.422 0-.788-.08-1.095-.24a1.744 1.744 0 01-.72-.692c-.167-.307-.25-.67-.25-1.086v-1.402c0-.423.083-.785.25-1.086.172-.3.413-.531.72-.691.307-.16.672-.24 1.095-.24.423 0 .788.08 1.095.24.308.16.545.39.711.691.173.301.26.66.26 1.076v1.412c0 .417-.087.779-.26 1.086a1.683 1.683 0 01-.71.692c-.308.16-.673.24-1.096.24zm0-.769c.378 0 .673-.105.884-.317.211-.211.317-.522.317-.932v-1.402c0-.41-.106-.72-.317-.932-.211-.211-.506-.317-.884-.317-.371 0-.666.106-.884.317-.21.211-.317.522-.317.932v1.402c0 .41.106.72.317.932.218.212.513.317.884.317zm2.98.692l1.154-2.71-1.076-2.574h.835l.923 2.306h.509v-2.306h.73v2.306h.49l.95-2.306h.827l-1.076 2.546L87.867 79h-.865l-.96-2.402h-.52V79h-.73v-2.402h-.518L83.304 79h-.855zm8.4.096c-.417 0-.782-.083-1.096-.25a1.807 1.807 0 01-.72-.701 2.203 2.203 0 01-.25-1.066v-1.441c0-.41.083-.766.25-1.067.173-.3.413-.534.72-.701.314-.166.68-.25 1.096-.25.416 0 .778.084 1.085.25.314.166.554.4.72.701.173.301.26.657.26 1.067v.931h-3.285v.51c0 .416.105.736.317.96.21.218.512.327.903.327.333 0 .602-.058.806-.173a.764.764 0 00.375-.538h.865a1.472 1.472 0 01-.654 1.057c-.37.256-.835.384-1.392.384zm1.22-3.103v-.355c0-.417-.106-.737-.317-.961-.205-.224-.506-.336-.904-.336-.39 0-.691.112-.902.336-.212.224-.317.544-.317.96v.28h2.507l-.067.076zM94.558 79v-5.284h.865v2.2h2.229v-2.2h.864V79h-.864v-2.296h-2.23V79h-.864zm5.69 0v-5.284h.826v2.882c0 .186-.006.381-.019.586-.007.205-.019.4-.039.586-.012.18-.028.333-.048.462l2.133-4.516h1.105V79h-.826v-2.882c0-.186.003-.381.009-.586.013-.205.029-.4.048-.586l.048-.47L101.353 79h-1.105zm5.363 0l1.354-2.037c-.403-.096-.717-.281-.941-.557-.218-.275-.327-.618-.327-1.028 0-.519.17-.925.509-1.22.346-.294.817-.442 1.413-.442h2.276V79h-.864v-1.97h-1.163L106.62 79h-1.009zm2.008-2.738h1.412v-1.777h-1.412c-.321 0-.574.08-.759.24-.186.154-.279.372-.279.653 0 .276.093.493.279.653.185.154.438.231.759.231zm4.69 4.275l.769-2.988h1.249l-1.249 2.988h-.769zm-95.408 17.56a2.46 2.46 0 01-1.114-.241 1.73 1.73 0 01-.73-.692c-.173-.307-.26-.67-.26-1.085v-1.441c0-.423.087-.785.26-1.086a1.73 1.73 0 01.73-.692c.32-.16.691-.24 1.114-.24.609 0 1.099.163 1.47.49.372.327.567.772.586 1.335h-.864c-.02-.339-.135-.598-.346-.778-.205-.185-.487-.278-.846-.278-.378 0-.679.109-.903.326-.224.212-.336.516-.336.913v1.45c0 .398.112.705.336.923.224.218.525.326.903.326.359 0 .64-.092.846-.278.211-.186.326-.445.346-.778h.864c-.02.563-.215 1.008-.586 1.335-.371.327-.861.49-1.47.49zM20.593 98v-5.284h2.286c.55 0 .977.125 1.278.375.3.243.451.586.451 1.028 0 .365-.125.66-.374.884-.25.217-.58.326-.99.326v-.076c.448 0 .807.112 1.076.336.276.224.413.525.413.903 0 .474-.16.845-.48 1.114-.32.263-.769.394-1.345.394h-2.315zm.845-.759h1.47c.307 0 .544-.067.71-.202.174-.134.26-.323.26-.567 0-.25-.086-.441-.26-.576-.166-.134-.403-.202-.71-.202h-1.47v1.547zm0-2.296h1.441c.27 0 .48-.064.634-.192.16-.128.24-.308.24-.538 0-.23-.076-.41-.23-.538-.154-.135-.369-.202-.644-.202h-1.44v1.47zm6.823 3.132c-.422 0-.787-.08-1.095-.24a1.743 1.743 0 01-.72-.692c-.167-.307-.25-.67-.25-1.086v-1.402c0-.423.083-.785.25-1.086.173-.3.413-.531.72-.691.308-.16.673-.24 1.095-.24.423 0 .788.08 1.096.24.307.16.544.39.71.691.173.301.26.66.26 1.076v1.412c0 .417-.087.779-.26 1.086a1.683 1.683 0 01-.71.692c-.308.16-.673.24-1.096.24zm0-.769c.378 0 .673-.105.884-.317.212-.211.317-.522.317-.932v-1.402c0-.41-.105-.72-.317-.932-.211-.211-.506-.317-.884-.317-.371 0-.666.106-.883.317-.212.211-.317.522-.317.932v1.402c0 .41.105.72.317.932.217.212.512.317.883.317zm5.69.788c-.416 0-.781-.083-1.095-.25a1.807 1.807 0 01-.72-.701 2.204 2.204 0 01-.25-1.066v-1.441c0-.41.083-.766.25-1.067.172-.3.412-.534.72-.701a2.31 2.31 0 011.095-.25c.416 0 .778.084 1.085.25.314.166.554.4.721.701.173.301.26.657.26 1.067v.931H32.73v.51c0 .416.106.736.317.96.211.218.512.327.903.327.333 0 .602-.058.807-.173a.763.763 0 00.375-.538h.864a1.472 1.472 0 01-.653 1.057c-.372.256-.836.384-1.393.384zm1.22-3.103v-.355c0-.417-.106-.737-.317-.961-.205-.224-.506-.336-.903-.336-.39 0-.692.112-.903.336-.211.224-.317.544-.317.96v.28h2.507l-.067.076zM37.661 98v-5.284h2.287c.55 0 .977.125 1.278.375.3.243.451.586.451 1.028 0 .365-.125.66-.374.884-.25.217-.58.326-.99.326v-.076c.448 0 .807.112 1.076.336.275.224.413.525.413.903 0 .474-.16.845-.48 1.114-.32.263-.769.394-1.345.394h-2.315zm.846-.759h1.47c.307 0 .544-.067.71-.202.174-.134.26-.323.26-.567 0-.25-.086-.441-.26-.576-.166-.134-.403-.202-.71-.202h-1.47v1.547zm0-2.296h1.441c.269 0 .48-.064.634-.192.16-.128.24-.308.24-.538 0-.23-.077-.41-.23-.538-.154-.135-.368-.202-.644-.202h-1.441v1.47zm4.825 4.784v-7.013h.865v1.009h.173l-.173.202c0-.404.131-.72.394-.951.269-.237.62-.356 1.056-.356.532 0 .955.176 1.268.529.32.345.48.823.48 1.431v1.547c0 .403-.073.752-.22 1.047a1.577 1.577 0 01-.605.682c-.257.16-.564.24-.923.24-.429 0-.778-.118-1.047-.355-.269-.237-.403-.554-.403-.951l.173.201h-.192l.019 1.201v1.537h-.865zm2.027-2.382c.365 0 .65-.11.855-.327.212-.218.317-.531.317-.941v-1.441c0-.41-.105-.724-.317-.942-.205-.218-.49-.326-.855-.326-.352 0-.634.112-.845.336-.212.224-.317.535-.317.932v1.44c0 .398.105.708.317.932.211.225.493.337.845.337zm5.661.75a2.31 2.31 0 01-1.095-.25 1.807 1.807 0 01-.72-.702 2.204 2.204 0 01-.25-1.066v-1.441c0-.41.083-.766.25-1.067.172-.3.412-.534.72-.701a2.31 2.31 0 011.095-.25c.416 0 .778.084 1.085.25.314.166.555.4.721.701.173.301.26.657.26 1.067v.931H49.8v.51c0 .416.106.736.317.96.211.218.512.327.903.327.333 0 .602-.058.807-.173a.763.763 0 00.375-.538h.864a1.472 1.472 0 01-.653 1.057c-.371.256-.836.384-1.393.384zm1.22-3.104v-.355c0-.417-.106-.737-.317-.961-.205-.224-.506-.336-.903-.336-.39 0-.692.112-.903.336-.211.224-.317.544-.317.96v.28h2.507l-.067.076zM54.558 98v-5.284h1.172l.691 2.027c.07.205.135.41.193.615.057.199.099.352.124.461.026-.109.065-.262.116-.46.057-.206.118-.414.182-.625l.654-2.018h1.172V98h-.836v-.817c0-.288.003-.602.01-.941l.019-1.028c.012-.346.025-.672.038-.98.013-.314.022-.59.029-.826l-.942 3.007h-.912l-.951-2.988c.012.288.022.647.028 1.076.013.43.023.878.03 1.345.012.468.019.913.019 1.335V98h-.836zm7.841.096c-.416 0-.781-.083-1.095-.25a1.807 1.807 0 01-.72-.701 2.204 2.204 0 01-.25-1.066v-1.441c0-.41.083-.766.25-1.067.172-.3.413-.534.72-.701a2.31 2.31 0 011.095-.25c.417 0 .778.084 1.086.25.314.166.554.4.72.701.173.301.26.657.26 1.067v.931h-3.286v.51c0 .416.106.736.317.96.212.218.513.327.903.327.333 0 .602-.058.807-.173a.763.763 0 00.375-.538h.864a1.472 1.472 0 01-.653 1.057c-.371.256-.836.384-1.393.384zm1.22-3.103v-.355c0-.417-.105-.737-.317-.961-.205-.224-.506-.336-.903-.336-.39 0-.691.112-.903.336-.211.224-.317.544-.317.96v.28h2.508l-.068.076zM66.11 98v-5.284h.866v2.2h2.228v-2.2h.865V98h-.865v-2.296h-2.228V98h-.865zm5.69 0v-5.284h.865v2.2h2.229v-2.2h.865V98h-.865v-2.296h-2.229V98H71.8zm7.67.077c-.423 0-.788-.08-1.096-.24a1.744 1.744 0 01-.72-.692c-.167-.307-.25-.67-.25-1.086v-1.402c0-.423.083-.785.25-1.086.172-.3.413-.531.72-.691.307-.16.672-.24 1.095-.24.423 0 .788.08 1.095.24.308.16.545.39.711.691.173.301.26.66.26 1.076v1.412c0 .417-.087.779-.26 1.086a1.683 1.683 0 01-.71.692c-.308.16-.673.24-1.096.24zm0-.769c.377 0 .672-.105.883-.317.211-.211.317-.522.317-.932v-1.402c0-.41-.106-.72-.317-.932-.211-.211-.506-.317-.884-.317-.371 0-.666.106-.884.317-.21.211-.317.522-.317.932v1.402c0 .41.106.72.317.932.218.212.513.317.884.317zm10.207 2.421l.778-2.056-1.96-4.957h.96l1.23 3.267c.045.108.087.24.125.393l.096.375.096-.375a4.47 4.47 0 01.115-.393l1.153-3.267h.932l-2.603 7.013h-.922zm6.88-1.633c-.422 0-.794-.08-1.114-.24a1.73 1.73 0 01-.73-.692c-.173-.307-.26-.67-.26-1.085v-1.441c0-.423.087-.785.26-1.086a1.73 1.73 0 01.73-.692c.32-.16.692-.24 1.114-.24.609 0 1.099.163 1.47.49.372.327.567.772.586 1.335h-.864c-.02-.339-.135-.598-.346-.778-.205-.185-.487-.278-.846-.278-.377 0-.678.109-.903.326-.224.212-.336.516-.336.913v1.45c0 .398.112.705.336.923.224.218.525.326.903.326.36 0 .64-.092.846-.278.211-.186.326-.445.346-.778h.864c-.019.563-.214 1.008-.586 1.335-.371.327-.861.49-1.47.49zm5.239-.096v-4.525h-1.922v-.759h4.707v.76h-1.921V98h-.864zm4.123 1.73v-7.014h.865v1.009h.173l-.173.202c0-.404.131-.72.394-.951.269-.237.621-.356 1.057-.356.531 0 .954.176 1.268.529.32.345.48.823.48 1.431v1.547c0 .403-.074.752-.221 1.047a1.575 1.575 0 01-.605.682c-.256.16-.564.24-.922.24-.43 0-.779-.118-1.048-.355s-.403-.554-.403-.951l.173.201h-.192l.019 1.201v1.537h-.865zm2.027-2.383c.365 0 .65-.11.855-.327.212-.218.317-.531.317-.941v-1.441c0-.41-.105-.724-.317-.942-.205-.218-.49-.326-.855-.326-.352 0-.634.112-.845.336-.211.224-.317.535-.317.932v1.44c0 .398.106.708.317.932.211.225.493.337.845.337zm5.2.75c-.557 0-.996-.142-1.316-.424-.32-.288-.48-.675-.48-1.162 0-.493.16-.88.48-1.162.32-.282.752-.423 1.297-.423h1.633v-.529c0-.326-.099-.576-.298-.749-.192-.18-.467-.269-.826-.269-.314 0-.576.067-.788.202a.718.718 0 00-.365.528h-.864c.057-.454.272-.816.643-1.085.372-.27.836-.404 1.393-.404.609 0 1.089.157 1.441.471.352.314.529.74.529 1.278V98h-.846v-1.009h-.144l.144-.144c0 .385-.15.689-.451.913-.295.224-.689.336-1.182.336zm.211-.683c.41 0 .746-.103 1.009-.307a.956.956 0 00.394-.788v-.75h-1.614c-.288 0-.516.08-.682.24-.167.16-.25.379-.25.654 0 .294.099.528.298.701.205.167.487.25.845.25zm3.961.586v-5.284h.864v2.2h2.229v-2.2h.865V98h-.865v-2.296h-2.229V98h-.864zm5.363 0l1.354-2.037c-.403-.096-.717-.281-.941-.557-.218-.275-.327-.618-.327-1.028 0-.519.17-.925.509-1.22.346-.294.817-.442 1.413-.442h2.276V98h-.864v-1.97h-1.163L123.689 98h-1.009zm2.008-2.738h1.412v-1.777h-1.412c-.321 0-.574.08-.759.24-.186.154-.279.372-.279.653 0 .276.093.493.279.653.185.154.438.231.759.231zm3.345 2.805v-.807h.173c.295 0 .5-.115.615-.346.122-.23.186-.643.192-1.239l.058-2.959h3.583V98h-.865v-4.496h-1.863l-.048 2.21c-.013.557-.077 1.008-.192 1.354-.109.346-.282.599-.519.76-.231.16-.535.24-.913.24h-.221zm6.353-.067v-5.284h.826v2.882c0 .186-.006.381-.019.586-.007.205-.019.4-.039.586-.012.18-.028.333-.048.462l2.133-4.516h1.105V98h-.826v-2.882c0-.186.003-.381.009-.586.013-.205.029-.4.048-.586l.048-.47L135.491 98h-1.105zM14.903 118v-5.284h2.286c.551 0 .977.125 1.278.375.301.243.452.586.452 1.028 0 .365-.125.66-.375.884-.25.217-.58.326-.99.326v-.077c.449 0 .808.113 1.076.337.276.224.414.525.414.903 0 .474-.16.845-.48 1.114-.321.263-.77.394-1.346.394h-2.315zm.845-.759h1.47c.308 0 .545-.067.711-.202.173-.134.26-.323.26-.566 0-.25-.087-.442-.26-.577-.166-.134-.403-.202-.71-.202h-1.47v1.547zm0-2.296h1.441c.27 0 .48-.064.634-.192.16-.128.24-.307.24-.538 0-.231-.076-.41-.23-.538-.154-.135-.368-.202-.644-.202h-1.44v1.47zm6.824 3.132c-.423 0-.788-.08-1.095-.24a1.744 1.744 0 01-.721-.692c-.166-.307-.25-.669-.25-1.086v-1.402c0-.423.084-.785.25-1.086.173-.301.413-.531.72-.691.308-.161.673-.241 1.096-.241.422 0 .787.08 1.095.241.307.16.544.39.71.691.174.301.26.66.26 1.076v1.412c0 .417-.086.779-.26 1.086a1.683 1.683 0 01-.71.692c-.308.16-.673.24-1.095.24zm0-.769c.378 0 .672-.105.884-.317.21-.211.317-.522.317-.932v-1.402c0-.41-.106-.721-.317-.932-.212-.211-.506-.317-.884-.317-.372 0-.666.106-.884.317-.211.211-.317.522-.317.932v1.402c0 .41.106.721.317.932.218.212.512.317.884.317zm5.44.759c-.558 0-1.016-.118-1.374-.355a1.412 1.412 0 01-.634-.961h.912c.045.16.164.292.356.394.198.102.445.154.74.154h.451c.314 0 .557-.074.73-.221a.713.713 0 00.27-.577c0-.256-.087-.458-.26-.605-.167-.147-.413-.221-.74-.221h-1.162v-.749h1.133c.295 0 .519-.071.673-.212a.718.718 0 00.23-.557.726.726 0 00-.105-.403.612.612 0 00-.298-.25 1.236 1.236 0 00-.49-.086h-.48c-.257 0-.478.057-.663.173-.186.115-.298.256-.337.422h-.912c.064-.397.272-.724.624-.98.353-.256.782-.384 1.288-.384h.48c.378 0 .701.061.97.183.27.115.474.281.615.499.147.218.22.477.22.778 0 .314-.101.573-.306.778-.205.199-.494.311-.865.337v.038c.455.032.785.154.99.365.204.211.307.516.307.913 0 .467-.173.839-.519 1.114-.346.276-.81.413-1.393.413h-.451zm3.787-.067v-5.284h1.172l.692 2.027c.07.205.134.41.192.615.058.199.1.352.125.461.025-.109.064-.262.115-.461a31.6 31.6 0 01.183-.624l.653-2.018h1.172V118h-.836v-.817c0-.288.003-.602.01-.941l.019-1.028.038-.98c.013-.314.023-.589.03-.826l-.942 3.007h-.913l-.951-2.988c.013.288.022.647.029 1.076.013.429.022.878.029 1.345.013.468.019.913.019 1.335V118h-.836zm7.842.077c-.423 0-.788-.08-1.096-.24a1.744 1.744 0 01-.72-.692c-.167-.307-.25-.669-.25-1.086v-1.402c0-.423.083-.785.25-1.086.173-.301.413-.531.72-.691.308-.161.673-.241 1.096-.241.422 0 .787.08 1.095.241.307.16.544.39.71.691.174.301.26.66.26 1.076v1.412c0 .417-.086.779-.26 1.086a1.683 1.683 0 01-.71.692c-.308.16-.673.24-1.095.24zm0-.769c.378 0 .672-.105.884-.317.21-.211.317-.522.317-.932v-1.402c0-.41-.106-.721-.317-.932-.212-.211-.506-.317-.884-.317-.372 0-.666.106-.884.317-.212.211-.317.522-.317.932v1.402c0 .41.105.721.317.932.218.212.512.317.884.317zm2.98.692l1.153-2.709-1.076-2.575h.836l.922 2.306h.51v-2.306h.73v2.306h.49l.95-2.306h.826l-1.075 2.546L48.039 118h-.864l-.96-2.402h-.52V118h-.73v-2.402h-.519l-.97 2.402h-.855zm6.42 0v-5.284h.865v2.2h2.228v-2.2H53V118h-.865v-2.296h-2.228V118h-.865zm5.411 0v-5.284h.807v1.941h.432c.57 0 1.019.15 1.345.451.333.295.5.702.5 1.22 0 .519-.167.929-.5 1.23-.326.295-.775.442-1.345.442h-1.239zm.807-.692h.432c.34 0 .602-.086.788-.259.192-.173.288-.413.288-.721 0-.307-.096-.547-.288-.72-.186-.173-.448-.259-.788-.259h-.432v1.959zm2.901.692v-5.284h.807V118h-.807zm4.24.096c-.417 0-.782-.083-1.096-.25a1.803 1.803 0 01-.72-.701 2.203 2.203 0 01-.25-1.066v-1.441c0-.41.083-.766.25-1.067a1.81 1.81 0 01.72-.701c.314-.167.679-.25 1.095-.25.417 0 .778.083 1.086.25.314.167.554.4.72.701.173.301.26.657.26 1.067v.931h-3.286v.51c0 .416.106.736.317.96.212.218.513.327.903.327.333 0 .602-.058.807-.173a.764.764 0 00.375-.538h.864a1.473 1.473 0 01-.653 1.057c-.371.256-.836.384-1.393.384zm1.22-3.103v-.355c0-.417-.106-.737-.318-.961-.205-.224-.506-.336-.903-.336-.39 0-.691.112-.903.336-.211.224-.317.544-.317.961v.278h2.508l-.068.077zM71.8 118v-5.284h.864v2.2h2.229v-2.2h.865V118h-.865v-2.296h-2.229V118H71.8zm7.668.096c-.416 0-.781-.083-1.095-.25a1.804 1.804 0 01-.72-.701 2.203 2.203 0 01-.25-1.066v-1.441c0-.41.083-.766.25-1.067a1.81 1.81 0 01.72-.701c.314-.167.679-.25 1.095-.25.416 0 .778.083 1.086.25.314.167.554.4.72.701.173.301.26.657.26 1.067v.931h-3.286v.51c0 .416.106.736.317.96.212.218.513.327.903.327.333 0 .602-.058.807-.173a.764.764 0 00.375-.538h.864a1.473 1.473 0 01-.653 1.057c-.371.256-.836.384-1.393.384zm1.22-3.103v-.355c0-.417-.105-.737-.317-.961-.205-.224-.506-.336-.903-.336-.39 0-.692.112-.903.336-.211.224-.317.544-.317.961v.278h2.507l-.067.077zm2.49 3.007v-5.284h3.959V118h-.865v-4.496h-2.229V118h-.864zm7.67.077c-.423 0-.788-.08-1.096-.24a1.744 1.744 0 01-.72-.692c-.167-.307-.25-.669-.25-1.086v-1.402c0-.423.083-.785.25-1.086.173-.301.413-.531.72-.691.308-.161.673-.241 1.096-.241.422 0 .787.08 1.095.241.307.16.544.39.71.691.173.301.26.66.26 1.076v1.412c0 .417-.087.779-.26 1.086a1.683 1.683 0 01-.71.692c-.308.16-.673.24-1.096.24zm0-.769c.377 0 .672-.105.883-.317.212-.211.317-.522.317-.932v-1.402c0-.41-.105-.721-.317-.932-.211-.211-.506-.317-.883-.317-.372 0-.666.106-.884.317-.212.211-.317.522-.317.932v1.402c0 .41.105.721.317.932.218.212.512.317.883.317zm3.047.759v-.807h.173c.295 0 .5-.115.615-.346.122-.23.186-.643.192-1.239l.058-2.959h3.583V118h-.864v-4.496h-1.864l-.048 2.21c-.013.557-.077 1.008-.192 1.354-.11.346-.282.599-.52.759-.23.16-.534.24-.912.24h-.22zm7.871.029c-.557 0-.996-.141-1.316-.423-.321-.288-.48-.675-.48-1.162 0-.493.159-.881.48-1.162.32-.282.752-.423 1.297-.423h1.633v-.529c0-.326-.1-.576-.298-.749-.192-.179-.468-.269-.826-.269-.314 0-.577.067-.788.202a.718.718 0 00-.365.528h-.865c.058-.454.272-.816.644-1.085.371-.269.836-.404 1.393-.404.608 0 1.089.157 1.441.471.352.314.528.74.528 1.278V118h-.845v-1.009h-.144l.144-.144c0 .384-.151.689-.452.913-.294.224-.688.336-1.181.336zm.211-.682c.41 0 .746-.102 1.009-.307a.959.959 0 00.394-.788v-.75h-1.614c-.288 0-.516.081-.682.241-.167.16-.25.378-.25.653 0 .295.099.528.298.701.205.167.486.25.845.25zm3.346 1.931v-2.085h.432c.109-.109.221-.323.336-.643.122-.321.186-.727.192-1.22l.058-2.681h3.449v4.544h.672v2.085h-.768V118h-3.603v1.345h-.768zm1.345-2.085h2.257v-3.775h-1.767l-.039 1.931c-.006.506-.061.916-.163 1.229-.103.314-.199.519-.288.615zm4.988.74v-5.284h.865v2.181h.903l1.537-2.181h.989l-1.777 2.517 1.806 2.767h-1.009l-1.537-2.354h-.912V118h-.865zm5.661 0v-5.284h.826v2.882c0 .186-.006.381-.019.586a8.038 8.038 0 01-.039.586c-.012.18-.028.333-.048.461l2.133-4.515h1.105V118h-.826v-2.882c0-.186.003-.381.009-.586.013-.205.029-.4.048-.586l.048-.471-2.132 4.525h-1.105zm7.668.096c-.243 0-.438-.07-.586-.211-.14-.141-.211-.33-.211-.567 0-.25.071-.448.211-.596.148-.147.343-.221.586-.221.244 0 .436.074.577.221.147.148.221.346.221.596 0 .237-.074.426-.221.567-.141.141-.333.211-.577.211z" fill="#000"/><path d="M16.277 26v-5.898h-1.835v-1.115h4.88v1.115h-1.835V26h-1.21zm6.304.096c-.448 0-.839-.086-1.172-.26a1.923 1.923 0 01-.778-.72 2.17 2.17 0 01-.269-1.095v-1.326c0-.416.09-.778.27-1.085.185-.314.444-.558.777-.73.333-.173.724-.26 1.172-.26.442 0 .826.087 1.153.26.333.172.59.416.769.73.185.307.278.669.278 1.085v.951h-3.256v.375c0 .371.09.653.269.845.179.186.445.279.797.279.269 0 .487-.045.653-.134a.642.642 0 00.317-.414h1.182c-.09.455-.333.82-.73 1.096-.391.269-.868.403-1.432.403zm1.038-3.122v-.288c0-.365-.087-.644-.26-.836-.173-.199-.432-.298-.778-.298-.346 0-.608.1-.787.298-.18.198-.27.48-.27.845v.202l2.181-.02-.086.097zM25.725 26l1.845-2.728-1.72-2.556h1.355l.816 1.297c.051.077.096.163.135.26.045.096.08.172.105.23l.106-.23c.045-.096.09-.183.134-.26l.827-1.297h1.354l-1.72 2.556L30.798 26h-1.364l-.912-1.45a2.657 2.657 0 01-.144-.27 3.76 3.76 0 00-.116-.23 8.69 8.69 0 01-.105.23 2.678 2.678 0 01-.144.27L27.08 26h-1.355zm6.093 0v-5.284h1.201v2.046h1.864v-2.046h1.2V26h-1.2v-2.123h-1.864V26h-1.2zm5.69 0v-5.284h1.085v2.604c0 .166-.01.365-.028.595a13.998 13.998 0 01-.135 1.23l1.864-4.429h1.48V26h-1.086v-2.603c0-.173.006-.365.019-.577.02-.211.038-.42.058-.624.025-.205.05-.378.077-.519L38.987 26h-1.48zm8.706 0v-1.777a5.468 5.468 0 01-.403.067 5.43 5.43 0 01-.596.029c-.679 0-1.21-.167-1.595-.5-.384-.34-.576-.81-.576-1.412v-1.69h1.2v1.632c0 .276.097.494.289.654.192.153.455.23.788.23.217 0 .406-.01.567-.029.16-.025.269-.048.326-.067v-2.42h1.21V26h-1.21zm4.816.096c-.449 0-.84-.086-1.172-.26a1.923 1.923 0 01-.779-.72 2.17 2.17 0 01-.269-1.095v-1.326c0-.416.09-.778.27-1.085a1.89 1.89 0 01.778-.73c.333-.173.723-.26 1.172-.26.441 0 .826.087 1.152.26.333.172.59.416.769.73.186.307.279.669.279 1.085v.951h-3.257v.375c0 .371.09.653.269.845.18.186.445.279.797.279.27 0 .487-.045.653-.134a.642.642 0 00.317-.414h1.182c-.09.455-.333.82-.73 1.096-.39.269-.868.403-1.431.403zm1.037-3.122v-.288c0-.365-.086-.644-.26-.836-.172-.199-.432-.298-.777-.298-.346 0-.609.1-.788.298-.18.198-.27.48-.27.845v.202l2.181-.02-.086.097zm4.662 3.122c-.448 0-.842-.083-1.182-.25a1.924 1.924 0 01-.778-.72c-.186-.314-.279-.682-.279-1.105v-1.326c0-.429.093-.797.279-1.105a1.86 1.86 0 01.778-.71c.34-.173.734-.26 1.182-.26.666 0 1.197.173 1.595.519.397.34.605.804.624 1.393h-1.2c-.02-.275-.12-.487-.299-.634-.173-.154-.413-.23-.72-.23-.32 0-.573.089-.76.268-.185.173-.278.423-.278.75v1.335c0 .327.093.58.279.759.186.18.439.269.759.269.307 0 .547-.074.72-.221.18-.154.279-.368.298-.644h1.201c-.02.59-.227 1.057-.624 1.403-.398.34-.93.51-1.595.51zM60.295 26v-5.284h1.201v2.075h.788l1.287-2.075h1.345l-1.594 2.556L64.945 26h-1.374l-1.287-2.19h-.788V26h-1.2zm7.208.096c-.544 0-.974-.144-1.287-.432-.314-.288-.471-.676-.471-1.163 0-.518.173-.919.519-1.2.346-.282.835-.423 1.47-.423h1.316v-.452c0-.256-.084-.454-.25-.595-.167-.148-.394-.221-.682-.221-.263 0-.48.057-.653.173a.675.675 0 00-.308.47h-1.172c.058-.5.282-.896.672-1.19.391-.296.89-.443 1.5-.443.646 0 1.155.163 1.527.49.377.32.566.756.566 1.307V26h-1.162v-.922h-.192l.192-.26c0 .391-.144.702-.432.932-.288.23-.673.346-1.153.346zm.394-.903c.34 0 .615-.086.826-.26a.82.82 0 00.327-.672v-.643h-1.297c-.244 0-.439.07-.586.21a.736.736 0 00-.221.558c0 .25.083.448.25.596.172.14.406.211.7.211zm3.518.807l1.24-1.931a1.648 1.648 0 01-.855-.586 1.61 1.61 0 01-.308-.99c0-.557.186-.992.557-1.306.372-.314.884-.47 1.537-.47h2.325V26H74.72v-1.797h-.855L72.789 26h-1.374zm2.22-2.757h1.085v-1.537h-1.085c-.295 0-.526.067-.692.201-.167.135-.25.327-.25.577 0 .237.083.423.25.557.166.135.397.202.692.202zM83.025 26v-5.284h4.266V26H86.09v-4.17h-1.864V26h-1.2zm7.822.087c-.448 0-.838-.084-1.171-.25a1.938 1.938 0 01-.769-.72c-.18-.315-.269-.683-.269-1.106v-1.306c0-.423.09-.788.269-1.095.186-.314.442-.554.769-.72.332-.174.723-.26 1.171-.26.455 0 .846.086 1.173.26.326.166.58.406.758.72.186.307.28.669.28 1.085v1.316c0 .423-.094.791-.28 1.105a1.86 1.86 0 01-.758.72c-.327.167-.718.25-1.172.25zm0-1.048c.32 0 .567-.086.74-.26.18-.178.27-.435.27-.768v-1.306c0-.34-.09-.596-.27-.769-.173-.173-.42-.259-.74-.259-.313 0-.56.086-.74.26-.178.172-.268.428-.268.768v1.306c0 .333.09.59.269.769.18.173.426.26.74.26zm3.048 2.306v-2.363h.356c.109-.11.22-.308.336-.596.122-.294.186-.66.192-1.095l.058-2.575h3.698v4.266h.625v2.363h-1.105V26H95v1.345h-1.105zm1.576-2.363h1.921v-3.219h-1.44l-.04 1.528c-.006.429-.06.79-.163 1.085-.096.289-.188.49-.278.606zm4.114 2.363v-2.363h.355c.109-.11.221-.308.337-.596.121-.294.185-.66.192-1.095l.057-2.575h3.699v4.266h.624v2.363h-1.104V26h-3.055v1.345h-1.105zm1.575-2.363h1.922v-3.219h-1.441l-.039 1.528c-.006.429-.06.79-.163 1.085-.096.289-.189.49-.279.606zm6.766 1.114c-.448 0-.839-.086-1.172-.26a1.925 1.925 0 01-.778-.72 2.172 2.172 0 01-.269-1.095v-1.326c0-.416.09-.778.269-1.085.186-.314.445-.558.778-.73.333-.173.724-.26 1.172-.26.442 0 .826.087 1.153.26.333.172.589.416.768.73.186.307.279.669.279 1.085v.951h-3.257v.375c0 .371.09.653.269.845.18.186.445.279.798.279.269 0 .486-.045.653-.134a.644.644 0 00.317-.414h1.182c-.09.455-.333.82-.73 1.096-.391.269-.868.403-1.432.403zm1.038-3.122v-.288c0-.365-.087-.644-.26-.836-.173-.199-.432-.298-.778-.298-.346 0-.608.1-.788.298-.179.198-.269.48-.269.845v.202l2.181-.02-.086.097zm2.5 4.755v-7.013h1.172v1.009h.269l-.269.279c0-.43.128-.766.384-1.01.256-.249.602-.374 1.038-.374.531 0 .957.183 1.277.548.321.365.481.855.481 1.47v1.431c0 .41-.074.769-.221 1.076a1.626 1.626 0 01-.605.701c-.263.167-.574.25-.932.25-.436 0-.782-.122-1.038-.365-.256-.25-.384-.59-.384-1.018l.269.278h-.279l.039 1.259v1.48h-1.201zm2.171-2.67c.307 0 .548-.09.72-.27.173-.179.26-.435.26-.768v-1.326c0-.333-.087-.589-.26-.768-.172-.18-.413-.27-.72-.27-.301 0-.538.094-.711.28-.173.179-.259.432-.259.758v1.326c0 .327.086.583.259.769.173.179.41.268.711.268zM116.5 26l1.067-2.71-.99-2.574h1.076l.845 2.335h.356v-2.335h.884v2.335h.355l.894-2.335h1.028l-.99 2.546L122.091 26h-1.066l-.922-2.43h-.365V26h-.884v-2.43h-.375l-.874 2.43H116.5zm6.382 0v-5.284h1.2v2.075h.788l1.287-2.075h1.345l-1.594 2.556L127.531 26h-1.374l-1.287-2.19h-.788V26h-1.2zm7.207.096c-.544 0-.973-.144-1.287-.432-.314-.288-.471-.676-.471-1.163 0-.518.173-.919.519-1.2.346-.282.836-.423 1.47-.423h1.316v-.452c0-.256-.083-.454-.25-.595-.167-.148-.394-.221-.682-.221-.263 0-.48.057-.653.173a.676.676 0 00-.308.47h-1.172c.058-.5.282-.896.673-1.19.39-.296.89-.443 1.498-.443.647 0 1.156.163 1.528.49.378.32.567.756.567 1.307V26h-1.163v-.922h-.192l.192-.26c0 .391-.144.702-.432.932-.288.23-.673.346-1.153.346zm.394-.903c.339 0 .615-.086.826-.26a.82.82 0 00.327-.672v-.643h-1.297c-.243 0-.439.07-.586.21a.737.737 0 00-.221.558c0 .25.083.448.25.596.173.14.406.211.701.211zm5.882-2.959c-.269 0-.487-.074-.653-.22a.775.775 0 01-.241-.587c0-.243.08-.439.241-.586.166-.147.384-.22.653-.22s.483.073.643.22c.167.147.25.343.25.586a.761.761 0 01-.25.586c-.16.147-.374.221-.643.221zm0 3.862c-.269 0-.487-.074-.653-.22a.756.756 0 01-.241-.587c0-.243.08-.439.241-.586.166-.147.384-.22.653-.22s.483.073.643.22c.167.147.25.343.25.586a.743.743 0 01-.25.586c-.16.147-.374.221-.643.221z" fill="#fff"/><defs><filter id="filter0_d_2004_82" x=".804" y="0" width="179.646" height="178.685" filterUnits="userSpaceOnUse" color-interpolation-filters="sRGB"><feFlood flood-opacity="0" result="BackgroundImageFix"/><feColorMatrix in="SourceAlpha" values="0 0 0 0 0 0 0 0 0 0 0 0 0 0 0 0 0 0 127 0" result="hardAlpha"/><feOffset dy="3.843"/><feGaussianBlur stdDeviation="1.921"/><feComposite in2="hardAlpha" operator="out"/><feColorMatrix values="0 0 0 0 0 0 0 0 0 0 0 0 0 0 0 0 0 0 0.25 0"/><feBlend in2="BackgroundImageFix" result="effect1_dropShadow_2004_82"/><feBlend in="SourceGraphic" in2="effect1_dropShadow_2004_82" result="shape"/></filter></defs></svg>