<svg width="180" height="197" fill="none" xmlns="http://www.w3.org/2000/svg"><g filter="url(#filter0_d_2004_72)"><rect x="4" width="172" height="189" rx="16.011" fill="#174756"/></g><mask id="a" style="mask-type:alpha" maskUnits="userSpaceOnUse" x="4" y="0" width="172" height="43"><path fill="#C9D9CD" d="M4 0h171.961v42.27H4z"/></mask><g mask="url(#a)"><rect x="4" y="-1.69" width="171.961" height="118.355" rx="16.011" fill="#E1EEE4"/></g><path d="M19.337 58.68a1.12 1.12 0 01-.826-.327 1.12 1.12 0 01-.327-.826 1.12 1.12 0 011.153-1.153c.34 0 .615.11.826.327.218.211.327.487.327.826 0 .333-.109.609-.327.826-.211.218-.486.327-.826.327zm6.61 2.354V54.02h2.258c.436 0 .814.086 1.134.26.32.166.567.403.74.71.179.307.269.672.269 1.095 0 .416-.09.782-.27 1.095a1.802 1.802 0 01-.74.72c-.32.167-.697.25-1.133.25h-1.393v2.883h-.864zm.865-3.66h1.393c.378 0 .68-.116.903-.346.23-.237.346-.551.346-.942 0-.397-.115-.71-.346-.941-.224-.23-.525-.346-.903-.346h-1.393v2.575zm6.363 3.756c-.558 0-.996-.141-1.317-.423-.32-.288-.48-.676-.48-1.162 0-.494.16-.881.48-1.163.32-.282.753-.422 1.297-.422h1.633v-.529c0-.326-.099-.576-.297-.75-.193-.178-.468-.268-.827-.268-.313 0-.576.067-.787.202a.718.718 0 00-.365.528h-.865c.058-.455.272-.817.644-1.086.371-.269.835-.403 1.393-.403.608 0 1.088.157 1.44.47.353.314.529.74.529 1.278v3.632h-.845v-1.009h-.145l.145-.144c0 .384-.15.688-.452.913-.294.224-.688.336-1.181.336zm.21-.682c.41 0 .747-.103 1.01-.308a.957.957 0 00.393-.788v-.749h-1.613c-.289 0-.516.08-.683.24-.166.16-.25.378-.25.654 0 .294.1.528.298.7.205.167.487.25.846.25zm5.69.653c-.557 0-1.015-.118-1.373-.355a1.412 1.412 0 01-.634-.961h.912c.045.16.164.291.356.394.198.102.445.153.74.153h.451c.314 0 .557-.073.73-.22a.71.71 0 00.27-.577c0-.256-.087-.458-.26-.605-.167-.148-.413-.221-.74-.221h-1.162v-.75h1.133c.295 0 .519-.07.673-.21a.72.72 0 00.23-.558.727.727 0 00-.106-.404.61.61 0 00-.297-.25 1.243 1.243 0 00-.49-.086h-.48a1.23 1.23 0 00-.663.173c-.186.115-.298.256-.337.423h-.912c.064-.397.272-.724.624-.98s.782-.384 1.287-.384h.48c.379 0 .702.06.971.182.269.115.474.282.615.5.147.218.22.477.22.778 0 .314-.102.573-.307.778-.205.199-.493.31-.864.336v.039c.454.032.784.154.99.365.204.211.307.515.307.913 0 .467-.173.839-.52 1.114-.345.275-.81.413-1.392.413h-.452zm3.942 1.662V55.75h.864v1.009h.173l-.173.201c0-.403.132-.72.394-.95.27-.238.621-.356 1.057-.356.532 0 .954.176 1.268.528.32.346.48.823.48 1.432v1.546c0 .404-.073.753-.22 1.048a1.58 1.58 0 01-.606.682c-.256.16-.563.24-.922.24-.43 0-.778-.119-1.047-.356-.27-.237-.404-.554-.404-.95l.173.201h-.192l.02 1.2v1.538h-.865zm2.027-2.383c.365 0 .65-.108.855-.326.211-.218.317-.532.317-.942v-1.44c0-.41-.106-.724-.317-.942-.205-.218-.49-.327-.855-.327-.352 0-.634.112-.846.337-.211.224-.317.534-.317.931v1.441c0 .397.106.708.317.932.212.224.493.336.846.336zm5.2.75c-.558 0-.996-.141-1.317-.423-.32-.288-.48-.676-.48-1.162 0-.494.16-.881.48-1.163.32-.282.753-.422 1.297-.422h1.633v-.529c0-.326-.099-.576-.297-.75-.193-.178-.468-.268-.827-.268-.313 0-.576.067-.787.202a.718.718 0 00-.365.528h-.865c.058-.455.272-.817.644-1.086.371-.269.835-.403 1.393-.403.608 0 1.088.157 1.44.47.353.314.529.74.529 1.278v3.632h-.845v-1.009h-.145l.145-.144c0 .384-.15.688-.452.913-.295.224-.688.336-1.182.336zm.21-.682c.41 0 .747-.103 1.01-.308a.956.956 0 00.393-.788v-.749h-1.614c-.288 0-.515.08-.682.24-.166.16-.25.378-.25.654 0 .294.1.528.298.7.205.167.487.25.846.25zm5.94.682c-.621 0-1.114-.183-1.48-.548-.358-.371-.537-.877-.537-1.518v-2.401c0-.846.211-1.496.634-1.95.422-.462 1.028-.692 1.816-.692h1.344v.864h-1.344c-.52 0-.913.154-1.182.462-.27.3-.404.74-.404 1.316v.624h.135l-.135.192c.007-.378.135-.672.385-.884.25-.211.589-.317 1.018-.317.557 0 .99.18 1.297.538.314.359.47.852.47 1.48v.768c0 .43-.08.798-.24 1.105-.16.308-.39.545-.691.711-.301.166-.663.25-1.086.25zm0-.769c.372 0 .657-.112.855-.336.199-.224.298-.544.298-.96v-.77c0-.416-.1-.736-.298-.96-.198-.224-.483-.336-.855-.336-.371 0-.656.112-.855.336-.198.218-.298.538-.298.96v.77c0 .416.1.736.298.96.199.224.484.336.855.336zm5.69.75c-.423 0-.788-.08-1.095-.24a1.744 1.744 0 01-.72-.692c-.167-.308-.25-.67-.25-1.086V57.69c0-.422.083-.784.25-1.085.172-.301.412-.532.72-.692.307-.16.672-.24 1.095-.24.422 0 .788.08 1.095.24.307.16.544.391.71.692.174.301.26.66.26 1.076v1.412c0 .416-.086.778-.26 1.086a1.683 1.683 0 01-.71.691c-.307.16-.672.24-1.095.24zm0-.769c.378 0 .672-.106.884-.317.211-.211.317-.522.317-.932V57.69c0-.41-.106-.72-.317-.931-.212-.212-.506-.317-.884-.317-.372 0-.666.105-.884.317-.211.211-.317.522-.317.931v1.403c0 .41.106.72.317.932.218.211.512.317.884.317zm5.257.692v-4.525H65.42v-.759h4.707v.759h-1.921v4.525h-.865zm5.661.096c-.557 0-.996-.141-1.316-.423-.32-.288-.48-.676-.48-1.162 0-.494.16-.881.48-1.163.32-.282.752-.422 1.297-.422h1.633v-.529c0-.326-.1-.576-.298-.75-.192-.178-.467-.268-.826-.268-.314 0-.576.067-.788.202a.718.718 0 00-.365.528h-.864c.057-.455.272-.817.643-1.086.372-.269.836-.403 1.393-.403.609 0 1.089.157 1.441.47.352.314.529.74.529 1.278v3.632h-.846v-1.009h-.144l.144-.144c0 .384-.15.688-.451.913-.295.224-.689.336-1.182.336zm.211-.682c.41 0 .747-.103 1.01-.308a.957.957 0 00.393-.788v-.749h-1.614c-.288 0-.515.08-.682.24-.167.16-.25.378-.25.654 0 .294.1.528.298.7.205.167.487.25.845.25zm3.298.653v-.807h.173c.294 0 .5-.115.615-.346.121-.23.185-.644.192-1.24l.058-2.958h3.583v5.284h-.865v-4.496h-1.864l-.047 2.21c-.013.556-.077 1.008-.193 1.354-.109.346-.281.599-.518.759-.231.16-.535.24-.913.24h-.221zm6.353-.067V55.75h.826v2.882c0 .186-.007.381-.02.586-.006.205-.019.4-.038.586a6.1 6.1 0 01-.048.461l2.133-4.515h1.105v5.284h-.827v-2.882c0-.186.004-.381.01-.586.013-.205.029-.4.048-.586l.048-.471-2.133 4.525h-1.105zm10.764 1.345v-2.085h.432c.11-.109.221-.323.337-.644.121-.32.185-.727.192-1.22l.057-2.68h3.45v4.544h.672v2.085h-.769v-1.345h-3.602v1.345h-.769zm1.345-2.085h2.258v-3.775h-1.768l-.039 1.93c-.006.506-.06.916-.163 1.23-.102.314-.198.519-.288.615zm4.96.74V55.75h.826v2.882c0 .186-.007.381-.02.586a8.08 8.08 0 01-.038.586c-.013.18-.029.333-.048.461l2.133-4.515h1.104v5.284h-.826v-2.882c0-.186.003-.381.01-.586.013-.205.029-.4.048-.586l.048-.471-2.133 4.525h-1.105zm7.418.067c-.557 0-1.015-.118-1.373-.355a1.408 1.408 0 01-.634-.961h.912c.045.16.163.291.356.394.198.102.445.153.739.153h.452c.314 0 .557-.073.73-.22a.711.711 0 00.269-.577c0-.256-.087-.458-.259-.605-.167-.148-.414-.221-.74-.221h-1.163v-.75h1.134c.295 0 .519-.07.672-.21a.72.72 0 00.231-.558.723.723 0 00-.106-.404.61.61 0 00-.297-.25 1.245 1.245 0 00-.49-.086h-.481c-.256 0-.477.058-.663.173-.185.115-.297.256-.336.423h-.912c.064-.397.272-.724.624-.98s.781-.384 1.287-.384h.481c.377 0 .701.06.97.182.269.115.474.282.615.5.147.218.221.477.221.778 0 .314-.103.573-.308.778-.205.199-.493.31-.864.336v.039c.454.032.784.154.989.365.205.211.308.515.308.913 0 .467-.173.839-.519 1.114-.346.275-.81.413-1.393.413h-.452zm5.479.029c-.558 0-.996-.141-1.317-.423-.32-.288-.48-.676-.48-1.162 0-.494.16-.881.48-1.163.321-.282.753-.422 1.297-.422h1.634v-.529c0-.326-.1-.576-.298-.75-.192-.178-.468-.268-.826-.268-.314 0-.577.067-.788.202a.716.716 0 00-.365.528h-.865c.058-.455.272-.817.644-1.086.371-.269.836-.403 1.393-.403.608 0 1.089.157 1.441.47.352.314.528.74.528 1.278v3.632h-.845v-1.009h-.144l.144-.144c0 .384-.151.688-.452.913-.294.224-.688.336-1.181.336zm.211-.682c.41 0 .746-.103 1.009-.308a.958.958 0 00.394-.788v-.749h-1.614c-.289 0-.516.08-.682.24-.167.16-.25.378-.25.654 0 .294.099.528.298.7.205.167.486.25.845.25zm3.96.586V55.75h.827v2.882c0 .186-.007.381-.02.586a8.08 8.08 0 01-.038.586c-.013.18-.029.333-.048.461l2.133-4.515h1.104v5.284h-.826v-2.882c0-.186.003-.381.01-.586.013-.205.029-.4.048-.586l.048-.471-2.133 4.525h-1.105zm2.018-6.149c-.461 0-.833-.128-1.115-.384-.281-.256-.422-.592-.422-1.009h.682c0 .25.077.452.23.606.154.153.359.23.615.23.263 0 .471-.077.625-.23a.8.8 0 00.24-.606h.682c0 .417-.141.753-.423 1.01-.282.255-.653.383-1.114.383zm3.672 6.149V55.75h.865v2.2h2.228v-2.2h.865v5.284h-.865v-2.296h-2.228v2.296h-.865zm6.372 1.537l.768-2.988h1.249l-1.249 2.988h-.768zM27.946 80.11c-.423 0-.788-.08-1.095-.24a1.744 1.744 0 01-.72-.692c-.167-.308-.25-.67-.25-1.086V76.69c0-.422.083-.784.25-1.085.172-.301.412-.532.72-.692.307-.16.672-.24 1.095-.24.423 0 .788.08 1.095.24.308.16.544.391.711.692.173.301.26.66.26 1.076v1.412c0 .416-.087.778-.26 1.086a1.683 1.683 0 01-.71.691c-.308.16-.673.24-1.096.24zm0-.769c.378 0 .672-.106.884-.317.211-.211.317-.522.317-.932V76.69c0-.41-.106-.72-.317-.931-.212-.212-.506-.317-.884-.317-.372 0-.666.105-.884.317-.211.211-.317.522-.317.931v1.403c0 .41.106.72.317.932.218.211.512.317.884.317zm5.257.692v-4.525h-1.921v-.759h4.707v.759h-1.921v4.525h-.865zm4.124 1.729V74.75h.865v1.009h.173l-.173.201c0-.403.13-.72.394-.95.269-.238.62-.356 1.056-.356.532 0 .954.176 1.268.528.32.346.48.823.48 1.432v1.546c0 .404-.073.753-.22 1.047a1.57 1.57 0 01-.605.683c-.257.16-.564.24-.923.24-.429 0-.778-.119-1.047-.356-.269-.237-.403-.554-.403-.95l.173.201h-.193l.02 1.2v1.538h-.865zm2.027-2.383c.365 0 .65-.108.855-.326.211-.218.317-.532.317-.942v-1.44c0-.41-.106-.724-.317-.942-.205-.218-.49-.327-.855-.327-.352 0-.634.112-.845.337-.212.224-.317.534-.317.931v1.441c0 .397.105.708.317.932.211.224.493.336.845.336zm5.2.75c-.557 0-.996-.141-1.316-.423-.32-.288-.48-.676-.48-1.162 0-.493.16-.881.48-1.163.32-.282.752-.422 1.297-.422h1.633v-.529c0-.326-.1-.576-.298-.75-.192-.178-.468-.268-.826-.268-.314 0-.577.067-.788.202a.717.717 0 00-.365.528h-.865c.058-.455.272-.817.644-1.086.371-.269.836-.403 1.393-.403.608 0 1.089.157 1.44.47.353.315.53.74.53 1.278v3.632h-.846v-1.009h-.144l.144-.144c0 .384-.15.688-.452.912-.294.225-.688.337-1.181.337zm.211-.682c.41 0 .746-.103 1.009-.308a.957.957 0 00.394-.787v-.75h-1.614c-.288 0-.516.08-.682.24-.167.16-.25.378-.25.654 0 .294.1.528.298.7.205.167.486.25.845.25zm3.23.586l1.153-2.71-1.076-2.574h.836l.922 2.306h.51V74.75h.73v2.306h.49l.95-2.306h.827l-1.076 2.546 1.153 2.738h-.865l-.96-2.402h-.52v2.402h-.73v-2.402h-.518l-.97 2.402h-.856zm7.938.096c-.557 0-.996-.141-1.316-.423-.32-.288-.48-.676-.48-1.162 0-.493.16-.881.48-1.163.32-.282.753-.422 1.297-.422h1.633v-.529c0-.326-.1-.576-.298-.75-.192-.178-.467-.268-.826-.268-.314 0-.576.067-.788.202a.717.717 0 00-.365.528h-.864c.057-.455.272-.817.643-1.086.372-.269.836-.403 1.393-.403.609 0 1.089.157 1.441.47.352.315.529.74.529 1.278v3.632h-.846v-1.009h-.144l.144-.144c0 .384-.15.688-.451.912-.295.225-.689.337-1.182.337zm.211-.682c.41 0 .747-.103 1.01-.308a.957.957 0 00.393-.787v-.75h-1.614c-.288 0-.516.08-.682.24-.166.16-.25.378-.25.654 0 .294.1.528.298.7.205.167.487.25.845.25zm6.766.682c-.442 0-.797-.15-1.066-.452-.27-.3-.404-.695-.404-1.181v-.798h-.845v2.335h-.798V74.75h.798v2.258h.845v-.72c0-.494.132-.888.394-1.183.27-.3.628-.451 1.076-.451.474 0 .855.15 1.143.451.288.295.433.689.433 1.182v2.21c0 .486-.145.88-.433 1.181-.288.301-.669.452-1.143.452zm0-.673c.243 0 .432-.083.567-.25.14-.172.211-.41.211-.71v-2.21c0-.3-.07-.535-.211-.701a.679.679 0 00-.567-.26.667.667 0 00-.557.26c-.135.166-.202.4-.202.701v2.21c0 .3.067.538.202.71.134.167.32.25.557.25zm6.737 1.922v-1.345h-4.14V74.75h.777v4.554H67.4V74.75h.672v4.554h1.115V74.75h.778v4.554h.451v2.075h-.768zm1.837-1.345V74.75h.826v2.882c0 .186-.006.381-.019.586-.006.205-.02.4-.038.586a6.1 6.1 0 01-.048.461l2.132-4.515h1.105v5.284h-.826v-2.882c0-.186.003-.381.01-.586.012-.205.028-.4.048-.586l.048-.471-2.133 4.525h-1.105zm5.69 0V74.75H78v2.882c0 .186-.006.381-.02.586-.006.205-.018.4-.038.586-.012.18-.028.333-.048.461l2.133-4.515h1.105v5.284h-.826v-2.882c0-.186.003-.381.01-.586.012-.205.028-.4.047-.586l.048-.471-2.132 4.525h-1.105zm2.017-6.149c-.46 0-.832-.128-1.114-.384-.282-.256-.423-.592-.423-1.009h.682c0 .25.077.452.23.606.154.153.36.23.616.23.262 0 .47-.077.624-.23a.8.8 0 00.24-.606h.682c0 .417-.14.753-.422 1.01-.282.255-.654.383-1.115.383zm8.747 7.494v-2.085h.433c.109-.109.22-.323.336-.644.122-.32.186-.727.192-1.22l.058-2.68h3.448v4.544h.673v2.085h-.769v-1.345h-3.602v1.345h-.769zm1.345-2.085h2.258v-3.775h-1.768l-.038 1.93c-.007.506-.061.916-.164 1.23-.102.314-.198.519-.288.615zm5.767 2.469l.778-2.056-1.96-4.957h.96l1.23 3.266c.045.11.087.24.125.394.039.148.07.272.096.375l.097-.375c.038-.154.076-.285.115-.394l1.153-3.266h.931l-2.603 7.013h-.922zm4.46-1.73l1.873-2.718-1.758-2.565h1.018l1.047 1.633c.045.07.087.147.125.23l.106.202c.019-.05.048-.118.087-.201.044-.084.089-.16.134-.23l1.057-1.634h1.008l-1.758 2.575 1.864 2.709h-1.018l-1.134-1.73a2.692 2.692 0 01-.134-.24 2.193 2.193 0 00-.106-.23 4.155 4.155 0 01-.115.23c-.045.09-.093.17-.144.24l-1.144 1.73H99.51zm11.802 0V74.75h.826v2.882c0 .186-.006.381-.019.586-.007.205-.019.4-.039.586-.013.18-.029.333-.048.461l2.133-4.515h1.105v5.284h-.826v-2.882c0-.186.003-.381.009-.586.013-.205.029-.4.048-.586l.048-.471-2.132 4.525h-1.105zm13.32.097c-.609 0-1.096-.164-1.461-.49-.365-.327-.557-.772-.576-1.335h.865c.019.332.131.592.336.778.205.185.483.278.836.278.377 0 .669-.109.874-.326.211-.218.317-.526.317-.923v-.384h-1.873v-.768h1.873v-.298c0-.397-.106-.702-.317-.913-.205-.218-.497-.326-.874-.326-.353 0-.631.092-.836.278-.205.18-.317.439-.336.778h-.865c.019-.563.211-1.008.576-1.335.365-.327.852-.49 1.461-.49.429 0 .794.08 1.095.24.307.16.544.39.711.692.166.3.249.663.249 1.085v1.441c0 .417-.083.779-.249 1.086a1.689 1.689 0 01-.711.692c-.301.16-.666.24-1.095.24zm5.747 0a2.46 2.46 0 01-1.114-.24 1.732 1.732 0 01-.731-.692c-.172-.307-.259-.67-.259-1.086v-1.44c0-.423.087-.785.259-1.086.173-.301.417-.532.731-.692.32-.16.691-.24 1.114-.24.608 0 1.098.163 1.47.49.371.326.567.772.586 1.335h-.865c-.019-.34-.134-.599-.346-.778-.205-.186-.486-.278-.845-.278-.378 0-.679.108-.903.326-.224.211-.336.516-.336.913v1.45c0 .397.112.705.336.923.224.217.525.326.903.326.359 0 .64-.093.845-.278.212-.186.327-.445.346-.778h.865c-.019.563-.215 1.008-.586 1.335-.372.326-.862.49-1.47.49zm5.238-.096v-4.525h-1.921v-.759h4.707v.759h-1.921v4.525h-.865zm6.122.096a2.31 2.31 0 01-1.095-.25 1.806 1.806 0 01-.721-.701 2.21 2.21 0 01-.249-1.067v-1.44c0-.41.083-.766.249-1.067.173-.301.413-.535.721-.701.314-.167.679-.25 1.095-.25.416 0 .778.083 1.086.25.313.166.554.4.72.701.173.301.259.656.259 1.066v.932h-3.285v.51c0 .416.106.736.317.96.211.218.512.327.903.327.333 0 .602-.058.807-.173a.764.764 0 00.375-.538h.864a1.469 1.469 0 01-.653 1.057c-.371.256-.836.384-1.393.384zm1.22-3.103v-.356c0-.416-.106-.736-.317-.96-.205-.224-.506-.337-.903-.337-.391 0-.692.113-.903.337-.211.224-.317.544-.317.96v.279h2.507l-.067.077zm4.037 3.007v-4.525h-1.921v-.759h4.707v.759h-1.921v4.525h-.865zm4.143 0V74.75h.827v2.882c0 .186-.007.381-.02.586a8.08 8.08 0 01-.038.586c-.013.18-.029.333-.048.461l2.133-4.515h1.104v5.284h-.826v-2.882c0-.186.003-.381.01-.586.013-.205.029-.4.048-.586l.048-.471-2.133 4.525h-1.105zm5.719 0V74.75h.864v2.18h.903l1.538-2.18h.989l-1.777 2.517 1.806 2.767h-1.009l-1.537-2.354h-.913v2.354h-.864zm6.468 1.729l.778-2.056-1.96-4.957h.961l1.229 3.266a2.8 2.8 0 01.125.394c.039.148.071.272.096.375l.096-.375a4.4 4.4 0 01.116-.394l1.152-3.266h.932l-2.603 7.013h-.922zM27.966 99.13a2.46 2.46 0 01-1.115-.24 1.73 1.73 0 01-.73-.692c-.173-.307-.26-.67-.26-1.086v-1.44c0-.423.087-.785.26-1.086a1.73 1.73 0 01.73-.692c.32-.16.691-.24 1.114-.24.609 0 1.099.163 1.47.49.371.326.567.772.586 1.335h-.865c-.019-.34-.134-.599-.345-.778-.205-.186-.487-.278-.846-.278-.378 0-.679.108-.903.326-.224.211-.336.516-.336.913v1.45c0 .397.112.705.336.923.224.217.525.326.903.326.359 0 .64-.093.846-.278.21-.186.326-.445.345-.778h.865c-.02.563-.215 1.008-.586 1.335-.371.326-.861.49-1.47.49zm5.209 0c-.558 0-.996-.141-1.317-.423-.32-.288-.48-.676-.48-1.162 0-.493.16-.881.48-1.163.32-.282.753-.422 1.297-.422h1.633v-.529c0-.326-.099-.576-.297-.75-.193-.178-.468-.268-.827-.268-.313 0-.576.067-.787.202a.718.718 0 00-.365.528h-.865c.058-.455.272-.817.644-1.086.371-.269.835-.403 1.393-.403.608 0 1.088.157 1.44.47.353.315.529.74.529 1.278v3.632h-.845v-1.009h-.145l.145-.144c0 .384-.15.688-.452.912-.294.225-.688.337-1.181.337zm.21-.682c.41 0 .747-.103 1.01-.308a.957.957 0 00.393-.787v-.75h-1.613c-.289 0-.516.08-.683.24-.166.16-.25.378-.25.654 0 .294.1.528.298.7.205.167.487.25.846.25zm4.768 2.315l.778-2.056-1.96-4.957h.961l1.23 3.266c.045.11.086.24.125.394l.096.375c.025-.103.057-.227.096-.375a4.46 4.46 0 01.115-.394l1.153-3.266h.932l-2.604 7.013h-.922zm4.883-1.73V93.75h.864v2.2h2.23v-2.2h.864v5.284h-.865v-2.296h-2.228v2.296h-.865zm5.075 1.346v-2.085h.432c.109-.109.221-.323.336-.644.122-.32.186-.727.192-1.22l.058-2.68h3.449v4.544h.672v2.085h-.768v-1.345h-3.603v1.345h-.768zm1.345-2.085h2.257v-3.775h-1.767l-.039 1.93c-.006.506-.06.916-.163 1.23-.103.314-.199.519-.288.615zm5.401-2.046v-.769h3.074v.769h-3.074zm4.825 2.786l1.873-2.719-1.758-2.565h1.019l1.047 1.633c.045.07.086.147.125.23.045.084.08.151.105.202.02-.05.048-.118.087-.201.045-.084.09-.16.134-.23l1.057-1.634h1.009l-1.758 2.575 1.864 2.709h-1.019l-1.133-1.73c-.045-.07-.09-.15-.135-.24a2.085 2.085 0 00-.105-.23 3.864 3.864 0 01-.26.47l-1.143 1.73h-1.009zm6.112 0V93.75h.827v2.882c0 .186-.007.381-.02.586-.006.205-.019.4-.038.586-.013.18-.029.333-.048.461l2.133-4.515h1.105v5.284h-.827v-2.882c0-.186.004-.381.01-.586.013-.205.029-.4.048-.586l.048-.471-2.133 4.525h-1.105zm5.027.067v-.807h.173c.295 0 .5-.115.615-.346.122-.23.186-.643.192-1.24l.058-2.958h3.583v5.284h-.864v-4.496h-1.864l-.048 2.21c-.013.556-.077 1.008-.192 1.354-.11.346-.282.599-.52.759-.23.16-.534.24-.912.24h-.22zm6.353-.067V93.75H78v2.882c0 .186-.006.381-.02.586-.006.205-.018.4-.038.586-.012.18-.028.333-.048.461l2.133-4.515h1.105v5.284h-.826v-2.882c0-.186.003-.381.01-.586.012-.205.028-.4.047-.586l.048-.471-2.132 4.525h-1.105zm5.69 0V93.75h.864v2.2h2.229v-2.2h.865v5.284h-.865v-2.296h-2.229v2.296h-.864zm6.035 0V93.75h3.795v.788h-2.93v4.496h-.865zm6.862.096c-.557 0-.996-.141-1.316-.423-.32-.288-.48-.676-.48-1.162 0-.493.16-.881.48-1.163.32-.282.752-.422 1.296-.422h1.634v-.529c0-.326-.1-.576-.298-.75-.192-.178-.468-.268-.826-.268-.314 0-.577.067-.788.202a.718.718 0 00-.365.528h-.865c.058-.455.272-.817.644-1.086.371-.269.836-.403 1.393-.403.608 0 1.089.157 1.44.47.353.315.53.74.53 1.278v3.632h-.846v-1.009h-.144l.144-.144c0 .384-.15.688-.452.912-.294.225-.688.337-1.181.337zm.211-.682c.41 0 .746-.103 1.009-.308a.957.957 0 00.394-.787v-.75H95.76c-.289 0-.516.08-.682.24-.167.16-.25.378-.25.654 0 .294.1.528.298.7.205.167.486.25.845.25zm5.939.682c-.243 0-.438-.07-.586-.212-.14-.14-.211-.33-.211-.566 0-.25.071-.449.211-.596.148-.147.343-.221.586-.221.244 0 .436.074.577.221.147.147.221.346.221.596 0 .237-.074.425-.221.566-.141.141-.333.212-.577.212zm-82.574 17.55a1.118 1.118 0 01-1.153-1.153 1.119 1.119 0 011.153-1.153c.34 0 .615.109.826.327.218.211.327.487.327.826 0 .333-.109.609-.327.826-.211.218-.486.327-.826.327zm6.591 2.354v-7.013h.836v3.939c0 .23-.006.477-.019.739a25.617 25.617 0 01-.067 1.326l2.133-6.004h1.152v7.013h-.835v-3.939c0-.237.003-.484.01-.74.012-.262.025-.509.038-.74l.048-.586-2.143 6.005H25.93zm7.727.096c-.423 0-.794-.08-1.115-.24a1.736 1.736 0 01-.73-.692c-.173-.308-.26-.669-.26-1.086v-1.441c0-.422.087-.784.26-1.085a1.73 1.73 0 01.73-.692c.32-.16.692-.24 1.115-.24.608 0 1.098.163 1.47.49.371.326.566.772.586 1.335h-.865c-.02-.339-.134-.599-.346-.778-.205-.186-.487-.279-.845-.279-.378 0-.68.109-.903.327-.224.211-.337.516-.337.913v1.45c0 .397.113.705.337.923.224.217.525.326.903.326.358 0 .64-.093.845-.278.212-.186.327-.445.346-.779h.865c-.02.564-.215 1.009-.586 1.336-.372.326-.862.49-1.47.49zm3.691-.096v-5.284h3.958v5.284h-.864v-4.496h-2.23v4.496h-.864zm7.669.077c-.423 0-.788-.081-1.095-.241a1.741 1.741 0 01-.72-.691c-.167-.308-.25-.67-.25-1.086v-1.402c0-.423.083-.785.25-1.086.172-.301.412-.532.72-.692.307-.16.672-.24 1.095-.24.423 0 .788.08 1.095.24.307.16.544.391.711.692.173.301.26.66.26 1.076v1.412c0 .416-.087.778-.26 1.086a1.682 1.682 0 01-.71.691c-.308.16-.673.241-1.096.241zm0-.769c.378 0 .672-.106.884-.317.211-.211.317-.522.317-.932v-1.402c0-.41-.106-.721-.317-.932-.212-.212-.506-.317-.884-.317-.372 0-.666.105-.884.317-.211.211-.317.522-.317.932v1.402c0 .41.106.721.317.932.218.211.512.317.884.317zm3.048.759v-.807h.173c.294 0 .5-.115.614-.346.122-.23.186-.644.193-1.239l.057-2.959h3.584v5.284h-.865v-4.496h-1.864l-.048 2.209c-.013.557-.077 1.009-.192 1.355-.109.346-.282.599-.519.759-.23.16-.535.24-.912.24h-.221zm6.39-.067v-5.284h.865v1.941h1.556c.596 0 1.064.15 1.403.451.346.295.519.701.519 1.22 0 .512-.173.919-.519 1.22-.346.301-.813.452-1.403.452h-2.42zm.865-.788h1.556c.334 0 .587-.074.76-.221.179-.154.269-.375.269-.663 0-.288-.09-.506-.27-.653-.172-.154-.425-.231-.759-.231h-1.556v1.768zm6.516.855c-.557 0-1.015-.119-1.374-.356a1.41 1.41 0 01-.634-.96h.913c.045.16.163.291.355.394.199.102.445.153.74.153h.452c.313 0 .557-.073.73-.221a.71.71 0 00.269-.576c0-.256-.087-.458-.26-.605-.166-.147-.413-.221-.74-.221h-1.162v-.749h1.134c.294 0 .519-.071.672-.212a.719.719 0 00.23-.557.724.724 0 00-.105-.403.607.607 0 00-.298-.25 1.235 1.235 0 00-.49-.087h-.48c-.256 0-.477.058-.663.173-.186.115-.298.256-.336.423h-.913c.064-.397.273-.724.625-.98s.781-.384 1.287-.384h.48c.378 0 .702.061.97.182.27.116.475.282.616.5.147.218.22.477.22.778 0 .314-.102.573-.307.778-.205.199-.493.311-.865.336v.039c.455.032.785.153.99.365.205.211.307.515.307.912 0 .468-.173.839-.518 1.115-.346.275-.81.413-1.393.413h-.452zm5.94.01c-.423 0-.788-.081-1.096-.241a1.741 1.741 0 01-.72-.691c-.167-.308-.25-.67-.25-1.086v-1.402c0-.423.083-.785.25-1.086.173-.301.413-.532.72-.692.308-.16.673-.24 1.096-.24.422 0 .787.08 1.095.24.307.16.544.391.71.692.174.301.26.66.26 1.076v1.412c0 .416-.087.778-.26 1.086a1.681 1.681 0 01-.71.691c-.308.16-.673.241-1.096.241zm0-.769c.377 0 .672-.106.883-.317.212-.211.317-.522.317-.932v-1.402c0-.41-.105-.721-.317-.932-.211-.212-.506-.317-.883-.317-.372 0-.667.105-.884.317-.212.211-.317.522-.317.932v1.402c0 .41.105.721.317.932.217.211.512.317.883.317zm3.71.692v-5.284h2.287c.55 0 .976.125 1.277.375.301.243.452.586.452 1.028 0 .365-.125.659-.375.883-.25.218-.58.327-.99.327v-.077c.449 0 .808.112 1.077.336.275.225.413.526.413.903 0 .474-.16.846-.48 1.115-.32.262-.77.394-1.346.394h-2.315zm.846-.759h1.47c.307 0 .544-.067.71-.202.173-.134.26-.323.26-.567 0-.25-.087-.442-.26-.576-.166-.135-.403-.202-.71-.202h-1.47v1.547zm0-2.296h1.44c.27 0 .48-.064.635-.192.16-.128.24-.308.24-.538 0-.231-.077-.41-.23-.538-.155-.135-.369-.202-.644-.202H72.33v1.47zm6.362 3.151c-.557 0-.996-.141-1.316-.423-.32-.288-.48-.676-.48-1.162 0-.493.16-.881.48-1.163.32-.282.752-.422 1.296-.422h1.634v-.529c0-.326-.1-.576-.298-.749-.192-.179-.468-.269-.826-.269-.314 0-.577.067-.788.202a.717.717 0 00-.365.528h-.865c.058-.455.272-.817.644-1.086.371-.269.836-.403 1.393-.403.608 0 1.089.157 1.44.471.353.313.53.739.53 1.277v3.632h-.846v-1.009h-.144l.144-.144c0 .384-.15.688-.452.913-.294.224-.688.336-1.181.336zm.211-.682c.41 0 .746-.103 1.009-.308a.955.955 0 00.394-.787v-.75h-1.614c-.288 0-.516.08-.682.24-.167.16-.25.378-.25.654 0 .294.1.528.298.701.205.166.486.25.845.25zm3.298.653v-.807h.173c.294 0 .5-.115.614-.346.122-.23.186-.644.192-1.239l.058-2.959h3.584v5.284h-.865v-4.496h-1.864l-.048 2.209c-.013.557-.077 1.009-.192 1.355-.109.346-.282.599-.519.759-.23.16-.535.24-.912.24H82.2zm6.352-.067v-5.284h.826v2.882c0 .186-.006.381-.019.586a8.2 8.2 0 01-.038.586 6.053 6.053 0 01-.048.461l2.132-4.515h1.105v5.284h-.826v-2.882c0-.186.003-.381.01-.586.012-.205.028-.401.048-.586l.048-.471-2.133 4.525h-1.105zm13.378.096c-.423 0-.795-.08-1.115-.24a1.735 1.735 0 01-.73-.692c-.173-.308-.26-.669-.26-1.086v-1.441c0-.422.087-.784.26-1.085a1.73 1.73 0 01.73-.692c.32-.16.692-.24 1.115-.24.608 0 1.098.163 1.469.49.372.326.567.772.586 1.335h-.864c-.019-.339-.135-.599-.346-.778-.205-.186-.487-.279-.845-.279-.378 0-.679.109-.903.327-.225.211-.337.516-.337.913v1.45c0 .397.112.705.337.923.224.217.525.326.903.326.358 0 .64-.093.845-.278.211-.186.327-.445.346-.779h.864c-.019.564-.214 1.009-.586 1.336-.371.326-.861.49-1.469.49zm3.691-.096v-5.284h3.958v5.284h-.865v-4.496h-2.228v4.496h-.865zm7.669.077c-.423 0-.788-.081-1.095-.241a1.74 1.74 0 01-.721-.691 2.256 2.256 0 01-.25-1.086v-1.402c0-.423.084-.785.25-1.086.173-.301.413-.532.721-.692.307-.16.672-.24 1.095-.24.422 0 .787.08 1.095.24.307.16.544.391.711.692.173.301.259.66.259 1.076v1.412c0 .416-.086.778-.259 1.086a1.686 1.686 0 01-.711.691c-.308.16-.673.241-1.095.241zm0-.769c.378 0 .672-.106.884-.317.211-.211.317-.522.317-.932v-1.402c0-.41-.106-.721-.317-.932-.212-.212-.506-.317-.884-.317-.372 0-.666.105-.884.317-.211.211-.317.522-.317.932v1.402c0 .41.106.721.317.932.218.211.512.317.884.317zm3.739.692v-5.284h.865v2.181h.903l1.537-2.181h.989l-1.777 2.517 1.806 2.767h-1.008l-1.538-2.354h-.912v2.354h-.865zm7.64.077c-.423 0-.788-.081-1.095-.241a1.74 1.74 0 01-.721-.691c-.166-.308-.249-.67-.249-1.086v-1.402c0-.423.083-.785.249-1.086.173-.301.413-.532.721-.692.307-.16.672-.24 1.095-.24.423 0 .788.08 1.095.24.308.16.545.391.711.692.173.301.259.66.259 1.076v1.412c0 .416-.086.778-.259 1.086a1.675 1.675 0 01-.711.691c-.307.16-.672.241-1.095.241zm0-.769c.378 0 .673-.106.884-.317.211-.211.317-.522.317-.932v-1.402c0-.41-.106-.721-.317-.932-.211-.212-.506-.317-.884-.317-.371 0-.666.105-.884.317-.211.211-.317.522-.317.932v1.402c0 .41.106.721.317.932.218.211.513.317.884.317zm3.711.692v-5.284h.826v2.882c0 .186-.007.381-.019.586-.007.205-.02.4-.039.586a6.326 6.326 0 01-.048.461l2.133-4.515h1.105v5.284h-.826v-2.882c0-.186.003-.381.009-.586.013-.205.029-.401.048-.586l.048-.471-2.133 4.525h-1.104zm2.017-6.149c-.461 0-.832-.128-1.114-.384-.282-.256-.423-.592-.423-1.009h.682c0 .25.077.452.231.606.153.153.358.23.615.23.262 0 .47-.077.624-.23a.803.803 0 00.24-.606h.682c0 .417-.141.753-.422 1.009-.282.256-.654.384-1.115.384zm3.672 6.149v-5.284h.865v2.2h2.229v-2.2h.864v5.284h-.864v-2.296h-2.229v2.296h-.865zm5.411 0v-5.284h.807v1.941h.433c.57 0 1.018.15 1.345.451.333.295.499.701.499 1.22s-.166.929-.499 1.23c-.327.294-.775.442-1.345.442h-1.24zm.807-.692h.433c.339 0 .602-.086.787-.259.193-.173.289-.413.289-.721 0-.307-.096-.547-.289-.72-.185-.173-.448-.26-.787-.26h-.433v1.96zm2.902.692v-5.284h.807v5.284h-.807zm4.239.096c-.417 0-.782-.083-1.095-.25a1.808 1.808 0 01-.721-.701 2.201 2.201 0 01-.25-1.067v-1.441c0-.41.083-.765.25-1.066.173-.301.413-.535.721-.701.313-.167.678-.25 1.095-.25.416 0 .778.083 1.085.25.314.166.554.4.721.701.173.301.259.656.259 1.066v.932h-3.285v.509c0 .417.105.737.317.961.211.218.512.327.903.327.333 0 .602-.058.807-.173a.763.763 0 00.374-.538h.865a1.47 1.47 0 01-.653 1.056c-.372.257-.836.385-1.393.385zm1.22-3.103v-.356c0-.416-.106-.736-.317-.96-.205-.224-.506-.337-.903-.337-.391 0-.692.113-.903.337-.212.224-.317.544-.317.96v.279h2.507l-.067.077zM29.723 139.379v-1.345h-3.756v-5.284h.864v4.515h2.076v-4.515h.864v4.515h.72v2.114h-.768zm1.934-1.345v-5.284h2.286c.55 0 .977.125 1.278.375.3.243.451.586.451 1.028 0 .365-.125.659-.374.883-.25.218-.58.327-.99.327v-.077c.448 0 .807.112 1.076.336.275.225.413.526.413.903 0 .474-.16.846-.48 1.115-.32.262-.769.394-1.345.394h-2.315zm.845-.759h1.47c.307 0 .544-.067.71-.202.174-.134.26-.323.26-.567 0-.25-.086-.442-.26-.576-.166-.135-.403-.202-.71-.202h-1.47v1.547zm0-2.296h1.441c.269 0 .48-.064.634-.192.16-.128.24-.308.24-.538 0-.231-.077-.41-.23-.538-.154-.135-.369-.202-.644-.202h-1.441v1.47zm6.823 3.151c-.416 0-.781-.083-1.095-.25a1.81 1.81 0 01-.72-.701 2.206 2.206 0 01-.25-1.067v-1.441c0-.41.083-.765.25-1.066.172-.301.413-.535.72-.701.314-.167.679-.25 1.095-.25.416 0 .778.083 1.086.25.314.166.554.4.72.701.173.301.26.656.26 1.066v.932h-3.286v.509c0 .417.106.737.317.961.212.218.513.327.903.327.333 0 .602-.058.807-.173a.764.764 0 00.375-.538h.864a1.47 1.47 0 01-.653 1.056c-.371.257-.836.385-1.393.385zm1.22-3.103v-.356c0-.416-.105-.736-.317-.96-.205-.224-.506-.337-.903-.337-.39 0-.692.113-.903.337-.211.224-.317.544-.317.96v.279h2.508l-.068.077zm4.038 3.007v-4.525H42.66v-.759h4.707v.759h-1.92v4.525h-.865zm5.66.096c-.557 0-.995-.141-1.316-.423-.32-.288-.48-.676-.48-1.162 0-.493.16-.881.48-1.163.32-.282.753-.422 1.297-.422h1.633v-.529c0-.326-.099-.576-.297-.749-.193-.179-.468-.269-.827-.269-.313 0-.576.067-.787.202a.717.717 0 00-.365.528h-.865c.058-.455.272-.817.644-1.086.371-.269.835-.403 1.393-.403.608 0 1.088.157 1.44.471.353.313.529.739.529 1.277v3.632h-.845v-1.009h-.145l.145-.144c0 .384-.15.688-.452.913-.295.224-.688.336-1.182.336zm.212-.682c.41 0 .746-.103 1.009-.308a.955.955 0 00.393-.787v-.75h-1.614c-.288 0-.515.08-.682.24-.166.16-.25.378-.25.654 0 .294.1.528.298.701.205.166.487.25.846.25zm4.642 2.123l.769-2.988h1.249l-1.25 2.988h-.768zm12.244-1.537v-4.525H65.42v-.759h4.707v.759h-1.921v4.525h-.865zm6.122.096c-.416 0-.781-.083-1.095-.25a1.81 1.81 0 01-.72-.701 2.207 2.207 0 01-.25-1.067v-1.441c0-.41.083-.765.25-1.066.172-.301.413-.535.72-.701.314-.167.679-.25 1.095-.25.416 0 .778.083 1.086.25.313.166.554.4.72.701.173.301.26.656.26 1.066v.932h-3.286v.509c0 .417.106.737.317.961.212.218.513.327.903.327.333 0 .602-.058.807-.173a.764.764 0 00.375-.538h.864a1.469 1.469 0 01-.653 1.056c-.371.257-.836.385-1.393.385zm1.22-3.103v-.356c0-.416-.106-.736-.317-.96-.205-.224-.506-.337-.903-.337-.39 0-.691.113-.903.337-.211.224-.317.544-.317.96v.279h2.508l-.068.077zm2.318 3.007v-5.284h1.172l.692 2.027c.07.205.134.41.192.615.057.198.099.352.125.461.025-.109.064-.263.115-.461.058-.205.118-.413.182-.625l.654-2.017h1.172v5.284h-.836v-.817c0-.288.003-.602.01-.941l.019-1.028c.013-.346.025-.673.038-.98.013-.314.023-.589.029-.826l-.941 3.007h-.913l-.951-2.988c.013.288.022.647.029 1.076.013.429.022.877.028 1.345.013.467.02.912.02 1.335v.817H77zm7.38.096c-.557 0-.996-.141-1.316-.423-.32-.288-.48-.676-.48-1.162 0-.493.16-.881.48-1.163.32-.282.753-.422 1.297-.422h1.633v-.529c0-.326-.099-.576-.297-.749-.193-.179-.468-.269-.827-.269-.313 0-.576.067-.787.202a.717.717 0 00-.365.528h-.865c.058-.455.272-.817.644-1.086.371-.269.835-.403 1.392-.403.609 0 1.09.157 1.442.471.352.313.528.739.528 1.277v3.632h-.846v-1.009h-.144l.144-.144c0 .384-.15.688-.451.913-.295.224-.689.336-1.182.336zm.212-.682c.41 0 .746-.103 1.008-.308a.955.955 0 00.394-.787v-.75h-1.614c-.288 0-.515.08-.682.24-.166.16-.25.378-.25.654 0 .294.1.528.298.701.205.166.487.25.846.25zm5.507.586v-4.525h-1.921v-.759h4.707v.759h-1.922v4.525H90.1zm4.143 0v-5.284h.826v2.882c0 .186-.006.381-.02.586-.006.205-.019.4-.038.586a6.11 6.11 0 01-.048.461l2.133-4.515h1.105v5.284h-.826v-2.882c0-.186.003-.381.01-.586.012-.205.028-.401.047-.586l.048-.471-2.132 4.525h-1.105zm8.725 0v-1.922a3.939 3.939 0 01-.471.077 7.055 7.055 0 01-.653.029c-.653.006-1.162-.15-1.527-.471-.359-.326-.538-.781-.538-1.364v-1.633h.864v1.633c0 .327.109.586.327.778.224.186.532.279.922.279.269 0 .497-.01.682-.029.192-.026.324-.048.394-.067v-2.594h.865v5.284h-.865zm4.633.096c-.416 0-.781-.083-1.095-.25a1.814 1.814 0 01-.721-.701 2.212 2.212 0 01-.249-1.067v-1.441c0-.41.083-.765.249-1.066.173-.301.414-.535.721-.701.314-.167.679-.25 1.095-.25.416 0 .778.083 1.086.25.313.166.554.4.72.701.173.301.26.656.26 1.066v.932h-3.286v.509c0 .417.106.737.317.961.211.218.512.327.903.327.333 0 .602-.058.807-.173a.765.765 0 00.375-.538h.864a1.466 1.466 0 01-.653 1.056c-.371.257-.836.385-1.393.385zm1.22-3.103v-.356c0-.416-.106-.736-.317-.96-.205-.224-.506-.337-.903-.337-.391 0-.692.113-.903.337-.211.224-.317.544-.317.96v.279h2.507l-.067.077zm4.489 3.103a2.46 2.46 0 01-1.114-.24 1.738 1.738 0 01-.731-.692c-.172-.308-.259-.669-.259-1.086v-1.441c0-.422.087-.784.259-1.085.173-.301.417-.532.731-.692.32-.16.691-.24 1.114-.24.608 0 1.098.163 1.47.49.371.326.567.772.586 1.335h-.865c-.019-.339-.134-.599-.346-.778-.205-.186-.486-.279-.845-.279-.378 0-.679.109-.903.327-.224.211-.336.516-.336.913v1.45c0 .397.112.705.336.923.224.217.525.326.903.326.359 0 .64-.093.845-.278.212-.186.327-.445.346-.779h.865c-.019.564-.215 1.009-.586 1.336-.372.326-.862.49-1.47.49zm3.72-.096v-5.284h.865v2.181h.903l1.537-2.181h.989l-1.777 2.517 1.806 2.767h-1.008l-1.538-2.354h-.912v2.354h-.865zm5.661 0v-5.284h.826v2.882c0 .186-.006.381-.019.586-.006.205-.019.4-.038.586a6.326 6.326 0 01-.048.461l2.132-4.515h1.105v5.284h-.826v-2.882c0-.186.003-.381.009-.586.013-.205.029-.401.048-.586l.049-.471-2.133 4.525h-1.105zm7.669.096c-.417 0-.782-.083-1.095-.25a1.808 1.808 0 01-.721-.701 2.213 2.213 0 01-.25-1.067v-1.441c0-.41.084-.765.25-1.066.173-.301.413-.535.721-.701.313-.167.678-.25 1.095-.25.416 0 .778.083 1.085.25.314.166.554.4.721.701.173.301.259.656.259 1.066v.932h-3.285v.509c0 .417.105.737.317.961.211.218.512.327.903.327.333 0 .602-.058.807-.173a.76.76 0 00.374-.538h.865a1.47 1.47 0 01-.653 1.056c-.372.257-.836.385-1.393.385zm1.22-3.103v-.356c0-.416-.106-.736-.317-.96-.205-.224-.506-.337-.903-.337-.391 0-.692.113-.903.337-.212.224-.317.544-.317.96v.279h2.507l-.067.077zM25.967 157.034v-5.284h.826v2.882c0 .186-.006.381-.02.586a8.2 8.2 0 01-.038.586 6.053 6.053 0 01-.048.461l2.133-4.515h1.105v5.284h-.826v-2.882c0-.186.003-.381.01-.586.012-.205.028-.401.047-.586l.048-.471-2.132 4.525h-1.105zm7.419.067c-.557 0-1.015-.119-1.374-.356a1.41 1.41 0 01-.634-.96h.913c.045.16.163.291.355.394.199.102.445.153.74.153h.451c.314 0 .557-.073.73-.221a.709.709 0 00.27-.576c0-.256-.087-.458-.26-.605-.166-.147-.413-.221-.74-.221h-1.162v-.749h1.134c.294 0 .518-.071.672-.212a.719.719 0 00.23-.557.725.725 0 00-.105-.403.608.608 0 00-.298-.25 1.235 1.235 0 00-.49-.087h-.48c-.256 0-.477.058-.663.173-.186.115-.298.256-.336.423h-.913c.064-.397.272-.724.625-.98.352-.256.78-.384 1.287-.384h.48c.378 0 .701.061.97.182.27.116.474.282.615.5.148.218.221.477.221.778 0 .314-.102.573-.307.778-.205.199-.493.311-.865.336v.039c.455.032.785.153.99.365.205.211.307.515.307.912 0 .468-.173.839-.519 1.115-.345.275-.81.413-1.393.413h-.451zm5.94.01c-.423 0-.788-.081-1.096-.241a1.74 1.74 0 01-.72-.691c-.167-.308-.25-.67-.25-1.086v-1.402c0-.423.083-.785.25-1.086a1.74 1.74 0 01.72-.692c.308-.16.673-.24 1.095-.24.423 0 .788.08 1.095.24.308.16.545.391.711.692.173.301.26.66.26 1.076v1.412c0 .416-.087.778-.26 1.086a1.681 1.681 0 01-.71.691c-.308.16-.673.241-1.096.241zm0-.769c.377 0 .672-.106.883-.317.211-.211.317-.522.317-.932v-1.402c0-.41-.106-.721-.317-.932-.211-.212-.506-.317-.884-.317-.371 0-.666.105-.884.317-.21.211-.317.522-.317.932v1.402c0 .41.106.721.317.932.218.211.513.317.884.317zm5.689.788c-.621 0-1.114-.183-1.48-.548-.358-.371-.537-.877-.537-1.518v-2.401c0-.846.21-1.496.634-1.951.422-.461 1.027-.691 1.815-.691h1.345v.864h-1.345c-.519 0-.913.154-1.181.462-.27.301-.404.739-.404 1.316v.624h.135l-.135.192c.006-.378.135-.672.384-.884.25-.211.59-.317 1.019-.317.557 0 .99.18 1.297.538.313.359.47.852.47 1.48v.768c0 .429-.08.798-.24 1.105-.16.308-.39.544-.692.711-.3.167-.662.25-1.085.25zm0-.769c.371 0 .656-.112.855-.336.198-.224.298-.544.298-.961v-.768c0-.417-.1-.737-.298-.961-.199-.224-.484-.336-.855-.336-.372 0-.657.112-.855.336-.199.218-.298.538-.298.961v.768c0 .417.1.737.298.961.198.224.483.336.855.336zm3.691 2.402v-7.013h.865v1.009h.173l-.173.201c0-.403.131-.72.394-.951.269-.237.621-.355 1.057-.355.531 0 .954.176 1.268.528.32.346.48.823.48 1.432v1.546c0 .404-.074.753-.221 1.048-.14.294-.343.521-.605.682-.256.16-.564.24-.922.24-.43 0-.779-.119-1.048-.356s-.403-.554-.403-.951l.173.202h-.192l.019 1.201v1.537h-.865zm2.027-2.383c.365 0 .65-.108.855-.326.212-.218.317-.532.317-.942v-1.441c0-.41-.105-.723-.317-.941-.205-.218-.49-.327-.855-.327-.352 0-.634.112-.845.336-.211.225-.317.535-.317.932v1.441c0 .397.106.708.317.932.211.224.493.336.845.336zm5.2.75c-.557 0-.996-.141-1.316-.423-.32-.288-.48-.676-.48-1.162 0-.493.16-.881.48-1.163.32-.282.753-.422 1.297-.422h1.633v-.529c0-.326-.1-.576-.298-.749-.192-.179-.467-.269-.826-.269-.314 0-.576.067-.788.202a.717.717 0 00-.365.528h-.864c.057-.455.272-.817.643-1.086.372-.269.836-.403 1.393-.403.609 0 1.089.157 1.441.471.352.313.529.739.529 1.277v3.632h-.846v-1.009h-.144l.144-.144c0 .384-.15.688-.451.913-.295.224-.689.336-1.182.336zm.211-.682c.41 0 .747-.103 1.01-.308a.955.955 0 00.393-.787v-.75h-1.614c-.288 0-.516.08-.682.24-.166.16-.25.378-.25.654 0 .294.1.528.298.701.205.166.487.25.845.25zm3.23.586l1.154-2.709-1.076-2.575h.835l.923 2.306h.509v-2.306h.73v2.306h.49l.95-2.306h.827l-1.076 2.546 1.153 2.738h-.865l-.96-2.402h-.52v2.402h-.73v-2.402H61.2l-.97 2.402h-.855zm8.4.096c-.417 0-.782-.083-1.096-.25a1.81 1.81 0 01-.72-.701 2.207 2.207 0 01-.25-1.067v-1.441c0-.41.083-.765.25-1.066.173-.301.413-.535.72-.701.314-.167.68-.25 1.096-.25.416 0 .778.083 1.085.25.314.166.554.4.72.701.174.301.26.656.26 1.066v.932h-3.286v.509c0 .417.106.737.318.961.21.218.512.327.903.327.332 0 .602-.058.806-.173a.764.764 0 00.375-.538h.865a1.47 1.47 0 01-.653 1.056c-.372.257-.836.385-1.394.385zm1.22-3.103v-.356c0-.416-.106-.736-.317-.96-.205-.224-.506-.337-.904-.337-.39 0-.691.113-.902.337-.212.224-.318.544-.318.96v.279h2.508l-.067.077zm2.49 3.007v-5.284h.865v2.2h2.228v-2.2h.865v5.284h-.864v-2.296h-2.23v2.296h-.864zm5.69 0v-5.284H78v2.882c0 .186-.006.381-.02.586a8.2 8.2 0 01-.038.586 6.105 6.105 0 01-.048.461l2.133-4.515h1.105v5.284h-.826v-2.882c0-.186.003-.381.01-.586.012-.205.028-.401.047-.586l.048-.471-2.132 4.525h-1.105zm5.363 0l1.354-2.037c-.403-.096-.717-.282-.941-.557-.218-.276-.327-.618-.327-1.028 0-.519.17-.926.51-1.22.345-.295.816-.442 1.412-.442h2.276v5.284h-.864v-1.97h-1.163l-1.248 1.97h-1.01zm2.008-2.738h1.412v-1.777h-1.412c-.32 0-.573.08-.76.24-.185.153-.278.371-.278.653 0 .275.093.493.279.653.186.154.438.231.759.231zm9.698 2.738v-5.284h.826v2.882c0 .186-.006.381-.02.586-.006.205-.019.4-.038.586a6.11 6.11 0 01-.048.461l2.133-4.515h1.105v5.284h-.826v-2.882c0-.186.003-.381.01-.586.012-.205.028-.401.047-.586l.048-.471-2.132 4.525h-1.105zm11.379 0v-5.284h.826v2.882c0 .186-.006.381-.019.586-.006.205-.019.4-.038.586a6.326 6.326 0 01-.048.461l2.132-4.515h1.105v5.284h-.826v-2.882c0-.186.003-.381.01-.586.012-.205.028-.401.048-.586l.048-.471-2.133 4.525h-1.105zm5.69 0v-5.284h.864v2.2h2.229v-2.2h.865v5.284h-.865v-2.296h-2.229v2.296h-.864zm7.236 0v-4.525h-1.921v-.759h4.707v.759h-1.921v4.525h-.865zm4.95 1.729l.778-2.056-1.96-4.957h.961l1.23 3.266c.045.109.086.24.125.394l.096.375c.025-.103.057-.228.096-.375.038-.154.077-.285.115-.394l1.153-3.266h.932l-2.604 7.013h-.922zm4.883-1.729v-5.284h.826v2.882c0 .186-.007.381-.019.586-.007.205-.02.4-.039.586a6.326 6.326 0 01-.048.461l2.133-4.515h1.105v5.284h-.826v-2.882c0-.186.003-.381.009-.586.013-.205.029-.401.048-.586l.048-.471-2.133 4.525h-1.104zm7.236 0v-4.525h-1.921v-.759h4.707v.759h-1.921v4.525h-.865zm4.143 0v-5.284h.826v2.882c0 .186-.006.381-.019.586-.006.205-.019.4-.038.586a6.326 6.326 0 01-.048.461l2.132-4.515h1.105v5.284h-.826v-2.882c0-.186.003-.381.009-.586.013-.205.029-.401.048-.586l.049-.471-2.133 4.525h-1.105zm5.69 0v-5.284h2.286c.551 0 .977.125 1.278.375.301.243.451.586.451 1.028 0 .365-.125.659-.374.883-.25.218-.58.327-.99.327v-.077c.448 0 .807.112 1.076.336.275.225.413.526.413.903 0 .474-.16.846-.48 1.115-.32.262-.769.394-1.345.394h-2.315zm.845-.759h1.47c.307 0 .544-.067.711-.202.173-.134.259-.323.259-.567 0-.25-.086-.442-.259-.576-.167-.135-.404-.202-.711-.202h-1.47v1.547zm0-2.296h1.441c.269 0 .48-.064.634-.192.16-.128.24-.308.24-.538 0-.231-.077-.41-.23-.538-.154-.135-.369-.202-.644-.202h-1.441v1.47zm4.844 3.055v-5.284h.865v2.2h2.229v-2.2h.864v5.284h-.864v-2.296h-2.229v2.296h-.865zm7.669.077c-.423 0-.788-.081-1.095-.241a1.74 1.74 0 01-.721-.691c-.166-.308-.249-.67-.249-1.086v-1.402c0-.423.083-.785.249-1.086.173-.301.413-.532.721-.692.307-.16.672-.24 1.095-.24.423 0 .788.08 1.095.24.308.16.545.391.711.692.173.301.259.66.259 1.076v1.412c0 .416-.086.778-.259 1.086a1.675 1.675 0 01-.711.691c-.307.16-.672.241-1.095.241zm0-.769c.378 0 .672-.106.884-.317.211-.211.317-.522.317-.932v-1.402c0-.41-.106-.721-.317-.932-.212-.212-.506-.317-.884-.317-.371 0-.666.105-.884.317-.211.211-.317.522-.317.932v1.402c0 .41.106.721.317.932.218.211.513.317.884.317zM25.967 176.034v-5.284h3.958v5.284h-.865v-4.496h-2.229v4.496h-.864zm7.669.077c-.423 0-.788-.081-1.096-.241a1.741 1.741 0 01-.72-.691c-.167-.308-.25-.67-.25-1.086v-1.402c0-.423.083-.785.25-1.086.173-.301.413-.532.72-.692.308-.16.673-.24 1.096-.24.422 0 .787.08 1.095.24.307.16.544.391.71.692.174.301.26.66.26 1.076v1.412c0 .416-.086.778-.26 1.086a1.68 1.68 0 01-.71.691c-.308.16-.673.241-1.095.241zm0-.769c.377 0 .672-.106.883-.317.212-.211.317-.522.317-.932v-1.402c0-.41-.105-.721-.317-.932-.211-.212-.506-.317-.883-.317-.372 0-.667.105-.884.317-.212.211-.317.522-.317.932v1.402c0 .41.105.721.317.932.217.211.512.317.884.317zm3.71.692v-5.284h.865v2.2h2.229v-2.2h.864v5.284h-.864v-2.296h-2.23v2.296h-.864zm5.363 0l1.355-2.037c-.404-.096-.718-.282-.942-.557-.217-.276-.326-.618-.326-1.028 0-.519.17-.926.509-1.22.346-.295.816-.442 1.412-.442h2.277v5.284h-.865v-1.97h-1.162l-1.249 1.97h-1.009zm2.008-2.738h1.412v-1.777h-1.412c-.32 0-.573.08-.759.24-.186.153-.279.371-.279.653 0 .275.093.493.28.653.185.154.438.231.758.231zm5.555 2.738v-4.525h-1.921v-.759h4.707v.759h-1.921v4.525h-.865zm4.143 0v-5.284h.865v2.2h2.229v-2.2h.864v5.284h-.864v-2.296h-2.23v2.296h-.864zm6.497 1.729l.778-2.056-1.96-4.957h.96l1.23 3.266c.045.109.087.24.125.394.039.147.07.272.096.375l.097-.375c.038-.154.076-.285.115-.394l1.153-3.266h.931l-2.603 7.013h-.922zm7.688-1.633c-.442 0-.798-.151-1.067-.452-.269-.301-.403-.695-.403-1.181v-.798h-.846v2.335h-.797v-5.284h.797v2.258h.846v-.721c0-.493.131-.887.394-1.182.269-.301.627-.451 1.076-.451.474 0 .855.15 1.143.451.288.295.432.689.432 1.182v2.21c0 .486-.144.88-.432 1.181-.288.301-.67.452-1.143.452zm0-.673c.243 0 .432-.083.567-.249.14-.173.21-.41.21-.711v-2.21c0-.301-.07-.535-.21-.701a.679.679 0 00-.567-.26.667.667 0 00-.557.26c-.135.166-.202.4-.202.701v2.21c0 .301.067.538.202.711.134.166.32.249.557.249zm8.574.577v-5.284h.864v2.2h2.23v-2.2h.864v5.284h-.865v-2.296h-2.229v2.296h-.864zm7.207.096c-.557 0-.996-.141-1.316-.423-.32-.288-.48-.676-.48-1.162 0-.493.16-.881.48-1.163.32-.282.753-.422 1.297-.422h1.633v-.529c0-.326-.099-.576-.297-.749-.193-.179-.468-.269-.827-.269-.313 0-.576.067-.787.202a.717.717 0 00-.365.528h-.865c.058-.455.272-.817.644-1.086.371-.269.835-.403 1.392-.403.609 0 1.09.157 1.442.471.352.313.528.739.528 1.277v3.632h-.846v-1.009h-.144l.144-.144c0 .384-.15.688-.451.913-.295.224-.689.336-1.182.336zm.212-.682c.41 0 .746-.103 1.008-.308a.955.955 0 00.394-.787v-.75h-1.614c-.288 0-.515.08-.682.24-.166.16-.25.378-.25.654 0 .294.1.528.298.701.205.166.487.25.846.25zm3.96.586v-5.284h2.287c.55 0 .976.125 1.277.375.301.243.452.586.452 1.028 0 .365-.125.659-.375.883-.25.218-.58.327-.99.327v-.077c.449 0 .808.112 1.077.336.275.225.413.526.413.903 0 .474-.16.846-.48 1.115-.32.262-.77.394-1.346.394h-2.315zm.846-.759h1.47c.307 0 .544-.067.71-.202.173-.134.26-.323.26-.567 0-.25-.087-.442-.26-.576-.166-.135-.403-.202-.71-.202h-1.47v1.547zm0-2.296h1.44c.27 0 .48-.064.635-.192.16-.128.24-.308.24-.538 0-.231-.077-.41-.23-.538-.154-.135-.37-.202-.644-.202h-1.442v1.47zm4.844 3.055v-5.284h.826v2.882c0 .186-.006.381-.02.586-.006.205-.019.4-.038.586a6.11 6.11 0 01-.048.461l2.133-4.515h1.105v5.284h-.826v-2.882c0-.186.003-.381.01-.586.012-.205.028-.401.047-.586l.048-.471-2.132 4.525h-1.105zm6.035 0v-5.284h3.795v.788h-2.93v4.496h-.865zm6.862.096c-.557 0-.996-.141-1.316-.423-.32-.288-.48-.676-.48-1.162 0-.493.16-.881.48-1.163.32-.282.752-.422 1.297-.422h1.633v-.529c0-.326-.099-.576-.298-.749-.192-.179-.467-.269-.826-.269-.314 0-.576.067-.788.202a.718.718 0 00-.365.528h-.865c.058-.455.273-.817.644-1.086.372-.269.836-.403 1.393-.403.609 0 1.089.157 1.441.471.352.313.529.739.529 1.277v3.632h-.846v-1.009h-.144l.144-.144c0 .384-.15.688-.451.913-.295.224-.689.336-1.182.336zm.211-.682c.41 0 .746-.103 1.009-.308a.954.954 0 00.394-.787v-.75h-1.614c-.288 0-.516.08-.682.24-.167.16-.25.378-.25.654 0 .294.099.528.298.701.205.166.487.25.845.25zm7.717 1.931v-1.345h-3.756v-5.284h.864v4.515h2.075v-4.515h.865v4.515h.721v2.114h-.769zm1.933-1.345v-5.284h.827v2.882c0 .186-.007.381-.02.586-.006.205-.019.4-.038.586a6.326 6.326 0 01-.048.461l2.133-4.515h1.104v5.284h-.826v-2.882c0-.186.003-.381.01-.586.013-.205.029-.401.048-.586l.048-.471-2.133 4.525h-1.105zm8.495.096c-.442 0-.797-.151-1.066-.452-.269-.301-.404-.695-.404-1.181v-.798h-.845v2.335h-.797v-5.284h.797v2.258h.845v-.721c0-.493.132-.887.394-1.182.269-.301.628-.451 1.076-.451.474 0 .855.15 1.143.451.289.295.433.689.433 1.182v2.21c0 .486-.144.88-.433 1.181-.288.301-.669.452-1.143.452zm0-.673c.244 0 .433-.083.567-.249.141-.173.211-.41.211-.711v-2.21c0-.301-.07-.535-.211-.701-.134-.173-.323-.26-.567-.26a.667.667 0 00-.557.26c-.134.166-.202.4-.202.701v2.21c0 .301.068.538.202.711.135.166.32.249.557.249zm4.864.673c-.244 0-.439-.071-.586-.212-.141-.14-.212-.329-.212-.566 0-.25.071-.449.212-.596.147-.147.342-.221.586-.221.243 0 .435.074.576.221.147.147.221.346.221.596 0 .237-.074.426-.221.566-.141.141-.333.212-.576.212z" fill="#fff"/><path d="M12.92 26.096c-.448 0-.842-.083-1.181-.25a1.923 1.923 0 01-.778-.72c-.18-.314-.27-.682-.27-1.105v-3.055c0-.429.09-.797.27-1.105.185-.307.445-.544.778-.71.34-.174.733-.26 1.181-.26.455 0 .846.087 1.172.26.333.166.593.403.779.71.185.308.278.676.278 1.105h-1.21c0-.333-.09-.586-.27-.759-.172-.173-.422-.26-.749-.26-.326 0-.58.087-.758.26-.18.173-.27.423-.27.75v3.064c0 .327.09.58.27.759.179.173.432.26.758.26.327 0 .577-.087.75-.26.18-.18.269-.432.269-.759h1.21c0 .416-.093.781-.278 1.095a1.903 1.903 0 01-.779.73c-.326.167-.717.25-1.172.25zm5.652-.01c-.449 0-.84-.083-1.172-.25a1.938 1.938 0 01-.769-.72c-.18-.314-.269-.682-.269-1.105v-1.306c0-.423.09-.788.27-1.095a1.84 1.84 0 01.768-.72c.333-.174.723-.26 1.172-.26.454 0 .845.086 1.172.26.326.166.58.406.759.72.185.307.278.669.278 1.085v1.316c0 .423-.093.791-.278 1.105-.18.308-.433.548-.76.72-.326.167-.717.25-1.171.25zm0-1.047c.32 0 .567-.086.74-.26.179-.178.268-.435.268-.768v-1.306c0-.34-.09-.596-.269-.769-.172-.173-.42-.259-.74-.259-.313 0-.56.086-.739.26-.18.172-.269.428-.269.768v1.306c0 .333.09.59.269.769.18.173.426.26.74.26zm5.43 1.028c-.576 0-1.054-.131-1.431-.394a1.62 1.62 0 01-.683-1.095h1.201a.645.645 0 00.308.375c.166.09.368.134.605.134h.51c.249 0 .444-.057.585-.173a.592.592 0 00.221-.48.586.586 0 00-.211-.48c-.141-.116-.34-.173-.596-.173h-1.21v-.96h1.162c.237 0 .42-.055.548-.164a.55.55 0 00.192-.442.525.525 0 00-.336-.519 1.062 1.062 0 00-.404-.067h-.451a1.1 1.1 0 00-.577.144.612.612 0 00-.288.384h-1.2c.076-.454.3-.82.672-1.095.371-.275.835-.413 1.393-.413h.451c.404 0 .75.06 1.038.183.294.115.522.281.682.5.16.21.24.467.24.768 0 .333-.122.605-.365.816-.244.212-.567.324-.97.337v-.039c.46.013.82.135 1.075.365.257.224.385.535.385.932 0 .474-.186.852-.557 1.134-.366.281-.859.422-1.48.422h-.509zm3.307 1.278v-2.363h.356c.108-.11.22-.308.336-.596.121-.294.185-.66.192-1.095l.058-2.575h3.698v4.266h.625v2.363h-1.105V26h-3.055v1.345h-1.105zm1.576-2.363h1.921v-3.219h-1.441l-.038 1.528c-.007.429-.061.79-.164 1.085-.096.289-.189.49-.278.606zm6.17 1.114c-.545 0-.974-.144-1.288-.432-.314-.288-.47-.676-.47-1.163 0-.518.172-.919.518-1.2.346-.282.836-.423 1.47-.423h1.316v-.452c0-.256-.083-.454-.25-.595-.166-.148-.393-.221-.681-.221-.263 0-.48.057-.654.173a.675.675 0 00-.307.47h-1.172c.057-.5.282-.896.672-1.19.39-.296.89-.443 1.499-.443.647 0 1.156.163 1.527.49.378.32.567.756.567 1.307V26H36.64v-.922h-.192l.192-.26c0 .391-.144.702-.433.932-.288.23-.672.346-1.152.346zm.394-.903c.339 0 .614-.086.826-.26a.82.82 0 00.326-.672v-.643h-1.297c-.243 0-.438.07-.586.21a.736.736 0 00-.22.558c0 .25.083.448.25.596.172.14.406.211.7.211zm3.749.807v-5.284h1.2v2.046h1.864v-2.046h1.201V26h-1.2v-2.123h-1.865V26h-1.2zm5.69 0v-5.284h1.085v2.604c0 .166-.01.365-.029.595a10.89 10.89 0 01-.058.663c-.025.218-.05.407-.077.567l1.864-4.429h1.48V26h-1.086v-2.603c0-.173.007-.365.02-.577.018-.211.038-.42.057-.624a9.79 9.79 0 01.077-.519L46.367 26h-1.48zm7.831.096c-.448 0-.839-.086-1.172-.26a1.924 1.924 0 01-.778-.72 2.17 2.17 0 01-.269-1.095v-1.326c0-.416.09-.778.269-1.085.186-.314.445-.558.778-.73.333-.173.724-.26 1.172-.26.442 0 .826.087 1.153.26.333.172.59.416.769.73.185.307.278.669.278 1.085v.951h-3.256v.375c0 .371.09.653.269.845.179.186.445.279.797.279.269 0 .487-.045.653-.134a.642.642 0 00.317-.414h1.182c-.09.455-.333.82-.73 1.096-.391.269-.868.403-1.432.403zm1.038-3.122v-.288c0-.365-.087-.644-.26-.836-.173-.199-.432-.298-.778-.298-.346 0-.608.1-.788.298-.179.198-.268.48-.268.845v.202l2.18-.02-.086.097zM61.985 26v-5.284h1.2v2.075h.789l1.287-2.075h1.345l-1.595 2.556L66.635 26H65.26l-1.287-2.19h-.788V26h-1.201zm7.794.087c-.449 0-.84-.084-1.172-.25a1.938 1.938 0 01-.769-.72c-.18-.315-.269-.683-.269-1.106v-1.306c0-.423.09-.788.269-1.095.186-.314.442-.554.769-.72.333-.174.723-.26 1.172-.26.454 0 .845.086 1.172.26.326.166.58.406.759.72.185.307.278.669.278 1.085v1.316c0 .423-.093.791-.278 1.105-.18.308-.433.548-.76.72-.326.167-.717.25-1.171.25zm0-1.048c.32 0 .566-.086.74-.26.179-.178.268-.435.268-.768v-1.306c0-.34-.09-.596-.269-.769-.173-.173-.42-.259-.74-.259-.313 0-.56.086-.74.26-.178.172-.268.428-.268.768v1.306c0 .333.09.59.269.769.18.173.426.26.74.26zm3.556.961v-5.284h1.201v2.046H76.4v-2.046h1.2V26h-1.2v-2.123h-1.864V26h-1.2zm9.34 1.345V26h-3.65v-5.284h1.201v4.18h1.633v-4.18h1.201v4.18h.72v2.449h-1.104zm4.182-1.249c-.448 0-.839-.086-1.172-.26a1.923 1.923 0 01-.778-.72 2.17 2.17 0 01-.269-1.095v-1.326c0-.416.09-.778.269-1.085.186-.314.445-.558.778-.73.333-.173.724-.26 1.172-.26.442 0 .826.087 1.153.26.333.172.59.416.768.73.186.307.28.669.28 1.085v.951H85.8v.375c0 .371.09.653.27.845.179.186.445.279.797.279.269 0 .486-.045.653-.134a.642.642 0 00.317-.414h1.182c-.09.455-.333.82-.73 1.096-.391.269-.868.403-1.432.403zm1.038-3.122v-.288c0-.365-.087-.644-.26-.836-.173-.199-.432-.298-.778-.298-.346 0-.608.1-.788.298-.179.198-.269.48-.269.845v.202l2.181-.02-.086.097zM90.405 26v-5.284h4.265V26h-1.201v-4.17h-1.864V26h-1.2zm9.34 1.345V26h-3.65v-5.284h1.2v4.18h1.633v-4.18h1.201v4.18h.72v2.449h-1.104zM101.784 26v-5.284h1.085v2.604c0 .166-.009.365-.028.595a13.964 13.964 0 01-.135 1.23l1.864-4.429h1.479V26h-1.085v-2.603c0-.173.006-.365.019-.577l.057-.624c.026-.205.052-.378.077-.519L103.263 26h-1.479zm5.689 0v-5.284h1.086v2.604c0 .166-.01.365-.029.595a11.803 11.803 0 01-.134 1.23l1.863-4.429h1.48V26h-1.086v-2.603c0-.173.007-.365.019-.577l.058-.624c.026-.205.051-.378.077-.519L108.953 26h-1.48zm10.871 1.345v-2.363h.355c.109-.11.221-.308.336-.596.122-.294.186-.66.192-1.095l.058-2.575h3.699v4.266h.624v2.363h-1.105V26h-3.055v1.345h-1.104zm1.575-2.363h1.921v-3.219h-1.441l-.038 1.528c-.006.429-.061.79-.163 1.085-.096.289-.189.49-.279.606zM124.542 26v-5.284h1.086v2.604c0 .166-.01.365-.029.595a11.803 11.803 0 01-.134 1.23l1.863-4.429h1.48V26h-1.086v-2.603c0-.173.007-.365.019-.577l.058-.624c.026-.205.051-.378.077-.519L126.022 26h-1.48zm7.563.067c-.576 0-1.053-.131-1.431-.394a1.62 1.62 0 01-.682-1.095h1.201a.646.646 0 00.307.375c.167.09.368.134.605.134h.51c.249 0 .445-.057.586-.173a.593.593 0 00.221-.48.586.586 0 00-.212-.48c-.141-.116-.339-.173-.595-.173h-1.211v-.96h1.163c.236 0 .419-.055.547-.164a.55.55 0 00.192-.442.526.526 0 00-.336-.519 1.06 1.06 0 00-.403-.067h-.452a1.1 1.1 0 00-.576.144.615.615 0 00-.289.384h-1.2a1.66 1.66 0 01.672-1.095c.371-.275.836-.413 1.393-.413h.452c.403 0 .749.06 1.037.183.295.115.522.281.682.5.16.21.24.467.24.768 0 .333-.121.605-.365.816-.243.212-.567.324-.97.337v-.039c.461.013.82.135 1.076.365.256.224.384.535.384.932 0 .474-.186.852-.557 1.134-.365.281-.858.422-1.479.422h-.51zm5.363.03c-.544 0-.973-.145-1.287-.433-.314-.288-.471-.676-.471-1.163 0-.518.173-.919.519-1.2.346-.282.836-.423 1.47-.423h1.316v-.452c0-.256-.083-.454-.25-.595-.166-.148-.394-.221-.682-.221-.262 0-.48.057-.653.173a.674.674 0 00-.307.47h-1.172c.057-.5.281-.896.672-1.19.391-.296.89-.443 1.499-.443.647 0 1.156.163 1.527.49.378.32.567.756.567 1.307V26h-1.162v-.922h-.193l.193-.26c0 .391-.145.702-.433.932-.288.23-.672.346-1.153.346zm.394-.904c.34 0 .615-.086.826-.26a.82.82 0 00.327-.672v-.643h-1.297c-.243 0-.439.07-.586.21a.737.737 0 00-.221.558c0 .25.083.448.25.596.173.14.407.211.701.211zm3.749.807v-5.284h1.086v2.604c0 .166-.01.365-.029.595a14.138 14.138 0 01-.134 1.23l1.863-4.429h1.48V26h-1.086v-2.603c0-.173.007-.365.019-.577l.058-.624c.026-.205.051-.378.077-.519L143.091 26h-1.48zm2.172-6.12c-.5 0-.907-.13-1.221-.393a1.289 1.289 0 01-.461-1.028h.932c0 .211.067.38.202.509a.782.782 0 00.548.192c.224 0 .403-.064.537-.192a.655.655 0 00.212-.51h.932c0 .423-.154.766-.461 1.029-.308.262-.715.394-1.22.394zm3.518 6.12v-5.284h1.201v2.046h1.864v-2.046h1.2V26h-1.2v-2.123h-1.864V26h-1.201zm7.236.096c-.544 0-.973-.144-1.287-.432-.314-.288-.471-.676-.471-1.163 0-.518.173-.919.519-1.2.346-.282.836-.423 1.47-.423h1.316v-.452c0-.256-.083-.454-.25-.595-.166-.148-.394-.221-.682-.221-.262 0-.48.057-.653.173a.674.674 0 00-.307.47h-1.172c.057-.5.281-.896.672-1.19.391-.296.89-.443 1.499-.443.646 0 1.156.163 1.527.49.378.32.567.756.567 1.307V26h-1.163v-.922h-.192l.192-.26c0 .391-.144.702-.432.932-.288.23-.672.346-1.153.346zm.394-.903c.34 0 .615-.086.826-.26a.82.82 0 00.327-.672v-.643h-1.297c-.243 0-.439.07-.586.21a.737.737 0 00-.221.558c0 .25.083.448.25.596.173.14.407.211.701.211zm5.882-2.959c-.269 0-.487-.074-.653-.22a.778.778 0 01-.24-.587c0-.243.08-.439.24-.586.166-.147.384-.22.653-.22s.484.073.644.22a.745.745 0 01.249.586.764.764 0 01-.249.586c-.16.147-.375.221-.644.221zm0 3.862c-.269 0-.487-.074-.653-.22a.758.758 0 01-.24-.587c0-.243.08-.439.24-.586.166-.147.384-.22.653-.22s.484.073.644.22a.745.745 0 01.249.586.745.745 0 01-.249.586c-.16.147-.375.221-.644.221z" fill="#000"/><defs><filter id="filter0_d_2004_72" x=".157" y="0" width="179.685" height="196.685" filterUnits="userSpaceOnUse" color-interpolation-filters="sRGB"><feFlood flood-opacity="0" result="BackgroundImageFix"/><feColorMatrix in="SourceAlpha" values="0 0 0 0 0 0 0 0 0 0 0 0 0 0 0 0 0 0 127 0" result="hardAlpha"/><feOffset dy="3.843"/><feGaussianBlur stdDeviation="1.921"/><feComposite in2="hardAlpha" operator="out"/><feColorMatrix values="0 0 0 0 0 0 0 0 0 0 0 0 0 0 0 0 0 0 0.25 0"/><feBlend in2="BackgroundImageFix" result="effect1_dropShadow_2004_72"/><feBlend in="SourceGraphic" in2="effect1_dropShadow_2004_72" result="shape"/></filter></defs></svg>