<svg width="181" height="179" fill="none" xmlns="http://www.w3.org/2000/svg"><g filter="url(#filter0_d_2004_76)"><rect x="4.646" width="171.961" height="171" rx="16.011" fill="#E1EDE4"/></g><mask id="a" style="mask-type:alpha" maskUnits="userSpaceOnUse" x="4" y="0" width="173" height="43"><path fill="#C9D9CD" d="M4.646 0h171.961v42.27H4.646z"/></mask><g mask="url(#a)"><rect x="4.646" y="-1.69" width="171.961" height="118.355" rx="16.011" fill="#174756"/></g><path d="M14.903 60v-7.013h3.958V60h-.865v-6.225h-2.228V60h-.865zm7.669.077c-.423 0-.788-.08-1.095-.24a1.744 1.744 0 01-.721-.692c-.166-.307-.25-.67-.25-1.086v-1.402c0-.423.084-.785.25-1.086.173-.3.413-.531.72-.691.308-.16.673-.24 1.096-.24.422 0 .787.08 1.095.24.307.16.544.39.71.691.174.301.26.66.26 1.076v1.412c0 .417-.086.779-.26 1.086a1.683 1.683 0 01-.71.692c-.308.16-.673.24-1.095.24zm0-.769c.378 0 .672-.105.884-.317.21-.211.317-.522.317-.932v-1.402c0-.41-.106-.72-.317-.932-.212-.211-.506-.317-.884-.317-.372 0-.666.106-.884.317-.211.211-.317.522-.317.932v1.402c0 .41.106.72.317.932.218.212.512.317.884.317zm3.096 2.037V59.26h.432c.109-.109.22-.323.336-.643.122-.32.186-.727.192-1.22l.058-2.68h3.449v4.543h.672v2.085h-.768V60h-3.603v1.345h-.768zm1.345-2.085h2.257v-3.775h-1.768l-.038 1.93c-.006.507-.06.917-.163 1.23-.103.314-.199.52-.288.615zM32 60v-5.284h.864v2.181h.904l1.537-2.18h.989l-1.777 2.516L36.324 60h-1.009l-1.537-2.354h-.913V60h-.864zm4.998.067v-.807h.173c.294 0 .5-.115.614-.346.122-.23.186-.643.193-1.239l.057-2.959h3.584V60h-.865v-4.496H38.89l-.048 2.21c-.013.557-.077 1.008-.192 1.354-.109.346-.282.599-.519.76-.23.16-.534.24-.912.24h-.221zm9.157.03c-.441 0-.797-.151-1.066-.452-.269-.302-.403-.695-.403-1.182v-.797h-.846V60h-.797v-5.284h.797v2.258h.846v-.72c0-.494.13-.888.394-1.182.268-.301.627-.452 1.075-.452.474 0 .855.15 1.144.452.288.294.432.688.432 1.181v2.21c0 .487-.144.88-.432 1.182-.288.3-.67.451-1.143.451zm0-.673c.244 0 .433-.084.567-.25.141-.173.212-.41.212-.711v-2.21c0-.3-.07-.534-.212-.7-.134-.174-.323-.26-.566-.26a.667.667 0 00-.558.26c-.134.166-.201.4-.201.7v2.21c0 .3.067.538.201.71.135.167.32.25.558.25zm5.92.576v-1.921c-.102.025-.259.05-.47.077a7.1 7.1 0 01-.653.028c-.654.007-1.163-.15-1.528-.47-.358-.327-.538-.782-.538-1.365v-1.633h.865v1.633c0 .327.109.586.326.779.225.185.532.278.923.278.269 0 .496-.01.682-.029a3.52 3.52 0 00.394-.067v-2.594h.864V60h-.864zm2.655 0v-5.284h.826v2.882c0 .186-.007.381-.02.586-.006.205-.019.4-.038.586-.013.18-.029.333-.048.461l2.133-4.515h1.105V60h-.827v-2.882c0-.186.004-.381.01-.586.013-.205.029-.4.048-.586l.048-.47L55.835 60h-1.104zm5.026.067v-.807h.173c.295 0 .5-.115.615-.346.122-.23.186-.643.192-1.239l.058-2.959h3.583V60h-.864v-4.496H61.65l-.048 2.21c-.013.557-.077 1.008-.192 1.354-.11.346-.282.599-.519.76-.23.16-.535.24-.913.24h-.22zM66.11 60v-5.284h.826v2.882c0 .186-.006.381-.02.586-.005.205-.018.4-.037.586a6.21 6.21 0 01-.049.461l2.133-4.515h1.105V60h-.826v-2.882c0-.186.003-.381.01-.586.012-.205.028-.4.047-.586l.048-.47L67.215 60H66.11zm13.358.096c-.621 0-1.114-.182-1.48-.547-.358-.372-.537-.878-.537-1.518v-2.402c0-.846.211-1.495.634-1.95.422-.461 1.028-.692 1.816-.692h1.345v.865H79.9c-.518 0-.912.153-1.181.46-.27.302-.404.74-.404 1.317v.624h.135l-.135.193c.007-.378.135-.673.385-.884.25-.212.589-.317 1.018-.317.557 0 .99.179 1.297.538.314.358.47.851.47 1.48v.768c0 .429-.08.797-.24 1.104-.16.308-.39.545-.691.711-.301.167-.663.25-1.086.25zm0-.768c.372 0 .657-.113.855-.337.199-.224.298-.544.298-.96v-.769c0-.416-.1-.736-.298-.96-.198-.225-.483-.337-.855-.337-.371 0-.656.112-.855.336-.198.218-.298.538-.298.961v.769c0 .416.1.736.298.96.199.224.484.337.855.337zm5.69.768c-.416 0-.782-.083-1.095-.25a1.807 1.807 0 01-.72-.701 2.204 2.204 0 01-.25-1.066v-1.441c0-.41.083-.766.25-1.067a1.8 1.8 0 01.72-.701c.313-.166.679-.25 1.095-.25.416 0 .778.084 1.085.25.314.166.554.4.72.701.174.301.26.657.26 1.067v.931h-3.285v.51c0 .416.105.736.317.96.211.218.512.327.903.327.333 0 .602-.058.807-.173a.763.763 0 00.374-.538h.865a1.472 1.472 0 01-.653 1.057c-.372.256-.836.384-1.393.384zm1.22-3.103v-.355c0-.417-.106-.737-.317-.961-.205-.224-.506-.336-.903-.336-.39 0-.692.112-.903.336-.212.224-.317.544-.317.96v.28h2.507l-.067.076zm4.22 3.074c-.557 0-1.015-.118-1.374-.355a1.412 1.412 0 01-.634-.96h.913c.044.16.163.29.355.393.199.102.445.154.74.154h.451c.314 0 .557-.074.73-.221a.71.71 0 00.27-.577c0-.256-.087-.458-.26-.605-.166-.147-.413-.22-.74-.22h-1.162v-.75h1.133c.295 0 .52-.07.673-.212a.72.72 0 00.23-.557.727.727 0 00-.105-.403.61.61 0 00-.298-.25 1.243 1.243 0 00-.49-.086h-.48c-.257 0-.477.057-.663.172-.186.116-.298.257-.336.423h-.913c.064-.397.272-.724.624-.98.353-.256.782-.384 1.288-.384h.48c.378 0 .701.06.97.183.27.115.474.281.615.5.148.217.221.476.221.777 0 .314-.102.573-.307.778-.205.199-.493.311-.865.337v.038c.455.032.785.154.99.365.205.212.307.516.307.913 0 .467-.173.839-.519 1.114-.346.276-.81.413-1.393.413h-.451zm5.94.01c-.423 0-.789-.08-1.096-.24a1.744 1.744 0 01-.72-.692c-.167-.307-.25-.67-.25-1.086v-1.402c0-.423.083-.785.25-1.086.172-.3.413-.531.72-.691.307-.16.673-.24 1.095-.24.423 0 .788.08 1.095.24.308.16.545.39.711.691.173.301.26.66.26 1.076v1.412c0 .417-.087.779-.26 1.086a1.684 1.684 0 01-.71.692c-.308.16-.673.24-1.096.24zm0-.769c.377 0 .672-.105.883-.317.211-.211.317-.522.317-.932v-1.402c0-.41-.106-.72-.317-.932-.211-.211-.506-.317-.884-.317-.371 0-.666.106-.884.317-.211.211-.317.522-.317.932v1.402c0 .41.106.72.317.932.218.212.513.317.884.317zm3.71.692v-5.284h3.958V60h-.865v-4.496h-2.229V60h-.864zm7.207.096c-.557 0-.996-.14-1.316-.423-.32-.288-.48-.675-.48-1.162 0-.493.16-.88.48-1.163.32-.281.753-.422 1.297-.422h1.633v-.529c0-.326-.099-.576-.297-.749-.193-.18-.468-.269-.827-.269-.314 0-.576.067-.787.202a.716.716 0 00-.365.528h-.865c.058-.454.272-.816.644-1.085.371-.27.835-.404 1.393-.404.608 0 1.088.157 1.441.471.352.314.528.74.528 1.278V60h-.845v-1.009h-.145l.145-.144c0 .384-.151.689-.452.913-.295.224-.688.336-1.182.336zm.212-.682c.41 0 .746-.102 1.008-.307a.956.956 0 00.394-.788v-.75h-1.614c-.288 0-.515.08-.682.24-.166.16-.249.379-.249.654 0 .294.099.528.297.701.205.167.487.25.846.25zm5.958.682a2.46 2.46 0 01-1.114-.24 1.73 1.73 0 01-.73-.692c-.173-.307-.26-.67-.26-1.085v-1.441c0-.423.087-.785.26-1.086a1.73 1.73 0 01.73-.692c.32-.16.692-.24 1.114-.24.609 0 1.099.163 1.47.49.372.327.567.772.586 1.336h-.864c-.02-.34-.135-.6-.346-.779-.205-.185-.487-.278-.846-.278-.378 0-.679.109-.903.326-.224.212-.336.516-.336.913v1.45c0 .398.112.705.336.923.224.218.525.327.903.327.359 0 .641-.093.846-.28.211-.185.326-.444.346-.777h.864c-.019.563-.214 1.008-.586 1.335-.371.327-.861.49-1.47.49zm3.692-.096v-5.284h.864v2.2h2.229v-2.2h.865V60h-.865v-2.296h-2.229V60h-.864zm5.411 0v-5.284h.807v1.94h.432c.57 0 1.018.151 1.345.452.333.295.5.702.5 1.22 0 .52-.167.93-.5 1.23-.327.295-.775.442-1.345.442h-1.239zm.807-.692h.432c.34 0 .602-.086.788-.26.192-.172.288-.412.288-.72 0-.307-.096-.547-.288-.72-.186-.173-.448-.26-.788-.26h-.432v1.96zm2.901.692v-5.284h.807V60h-.807zm4.239.096c-.416 0-.781-.083-1.095-.25a1.812 1.812 0 01-.721-.701 2.21 2.21 0 01-.249-1.066v-1.441c0-.41.083-.766.249-1.067.173-.3.414-.535.721-.701a2.31 2.31 0 011.095-.25c.416 0 .778.084 1.086.25.313.166.554.4.72.701.173.301.26.657.26 1.067v.931h-3.286v.51c0 .416.106.736.317.96.211.218.512.327.903.327.333 0 .602-.058.807-.173a.764.764 0 00.375-.538h.864a1.469 1.469 0 01-.653 1.057c-.371.256-.836.384-1.393.384zm1.22-3.103v-.355c0-.417-.106-.737-.317-.961-.205-.224-.506-.336-.903-.336-.391 0-.692.112-.903.336-.211.224-.317.544-.317.96v.28h2.507l-.067.076zM14.73 79v-5.284h1.172l.692 2.027c.07.205.134.41.192.615.058.199.1.352.125.461.025-.109.064-.262.115-.46.058-.206.119-.414.183-.625l.653-2.018h1.172V79h-.836v-.817c0-.288.003-.602.01-.941l.019-1.028.038-.98c.013-.314.023-.59.03-.826l-.942 3.007h-.913l-.951-2.988c.013.288.022.647.029 1.076.013.43.022.878.029 1.345.012.468.019.913.019 1.335V79h-.836zm7.842.096c-.417 0-.782-.083-1.095-.25a1.807 1.807 0 01-.721-.701 2.204 2.204 0 01-.25-1.066v-1.441c0-.41.084-.766.25-1.067.173-.3.413-.534.72-.701.314-.166.68-.25 1.096-.25.416 0 .778.084 1.085.25.314.166.554.4.72.701.174.301.26.657.26 1.067v.931h-3.285v.51c0 .416.105.736.317.96.211.218.512.327.903.327.333 0 .602-.058.807-.173a.763.763 0 00.374-.538h.865a1.472 1.472 0 01-.653 1.057c-.372.256-.836.384-1.393.384zm1.22-3.103v-.355c0-.417-.106-.737-.317-.961-.205-.224-.506-.336-.903-.336-.391 0-.692.112-.903.336-.212.224-.317.544-.317.96v.28h2.507l-.067.076zM27.829 79v-4.525h-1.921v-.759h4.707v.76h-1.921V79h-.865zm6.122.077c-.423 0-.788-.08-1.095-.24a1.744 1.744 0 01-.72-.692c-.167-.307-.25-.67-.25-1.086v-1.402c0-.423.083-.785.25-1.086.172-.3.412-.531.72-.691.307-.16.672-.24 1.095-.24.423 0 .788.08 1.095.24.308.16.544.39.711.691.173.301.26.66.26 1.076v1.412c0 .417-.087.779-.26 1.086a1.684 1.684 0 01-.71.692c-.308.16-.673.24-1.096.24zm0-.769c.378 0 .672-.105.884-.317.211-.211.317-.522.317-.932v-1.402c0-.41-.106-.72-.317-.932-.212-.211-.506-.317-.884-.317-.371 0-.666.106-.884.317-.211.211-.317.522-.317.932v1.402c0 .41.106.72.317.932.218.212.513.317.884.317zm3.096 2.037V78.26h.432c.109-.109.221-.323.336-.643.122-.32.186-.727.193-1.22l.057-2.68h3.449v4.543h.672v2.085h-.768V79h-3.603v1.345h-.768zm1.345-2.085h2.257v-3.775h-1.767l-.039 1.93c-.006.507-.06.917-.163 1.23-.102.314-.199.52-.288.615zm4.68.74v-5.284h.808v1.94h.432c.57 0 1.018.151 1.345.452.333.295.5.702.5 1.22 0 .52-.167.93-.5 1.23-.327.295-.775.442-1.345.442h-1.24zm.808-.692h.432c.34 0 .602-.086.788-.26.192-.172.288-.412.288-.72 0-.307-.096-.547-.288-.72-.186-.173-.449-.26-.788-.26h-.432v1.96zm2.9.692v-5.284h.808V79h-.807zm9.93.077c-.423 0-.788-.08-1.096-.24a1.744 1.744 0 01-.72-.692c-.167-.307-.25-.67-.25-1.086v-1.402c0-.423.083-.785.25-1.086.173-.3.413-.531.72-.691.308-.16.673-.24 1.096-.24.422 0 .787.08 1.095.24.307.16.544.39.71.691.174.301.26.66.26 1.076v1.412c0 .417-.086.779-.26 1.086a1.683 1.683 0 01-.71.692c-.308.16-.673.24-1.095.24zm0-.769c.377 0 .672-.105.883-.317.212-.211.317-.522.317-.932v-1.402c0-.41-.105-.72-.317-.932-.21-.211-.506-.317-.883-.317-.372 0-.666.106-.884.317-.212.211-.317.522-.317.932v1.402c0 .41.105.72.317.932.218.212.512.317.884.317zm3.71.692v-5.284h3.958V79h-.864v-4.496h-2.23V79h-.864zm5.027.067v-.807h.173c.295 0 .5-.115.615-.346.121-.23.186-.643.192-1.239l.058-2.959h3.583V79h-.865v-4.496H67.34l-.048 2.21c-.013.557-.077 1.008-.193 1.354-.109.346-.281.599-.518.76-.23.16-.535.24-.913.24h-.22zm7.87.03c-.557 0-.995-.142-1.316-.424-.32-.288-.48-.675-.48-1.162 0-.493.16-.88.48-1.162.32-.282.753-.423 1.297-.423h1.633v-.529c0-.326-.099-.576-.297-.749-.193-.18-.468-.269-.827-.269-.313 0-.576.067-.787.202a.718.718 0 00-.365.528h-.865c.058-.454.272-.816.644-1.085.371-.27.835-.404 1.393-.404.608 0 1.088.157 1.44.471.353.314.529.74.529 1.278V79h-.845v-1.009h-.144l.144-.144c0 .385-.15.689-.452.913-.294.224-.688.336-1.182.336zm.212-.683c.41 0 .746-.103 1.008-.307a.957.957 0 00.394-.788v-.75h-1.614c-.288 0-.515.08-.682.24-.166.16-.25.379-.25.654 0 .294.1.528.298.701.205.167.487.25.846.25zm5.507.586v-4.525h-1.921v-.759h4.707v.76H79.9V79h-.864zm3.864 0v-5.284h.807v1.94h.433c.57 0 1.018.151 1.344.452.334.295.5.702.5 1.22 0 .52-.166.93-.5 1.23-.326.295-.774.442-1.344.442H82.9zm.807-.692h.433c.339 0 .602-.086.787-.26.192-.172.288-.412.288-.72 0-.307-.096-.547-.288-.72-.185-.173-.448-.26-.787-.26h-.433v1.96zM86.61 79v-5.284h.806V79h-.806zm2.942 1.537l.768-2.988h1.249l-1.249 2.988h-.768zm12.676-1.46c-.423 0-.788-.08-1.095-.24a1.742 1.742 0 01-.721-.692c-.166-.307-.25-.67-.25-1.086v-1.402c0-.423.084-.785.25-1.086.173-.3.413-.531.721-.691.307-.16.672-.24 1.095-.24.423 0 .788.08 1.095.24.307.16.544.39.711.691.173.301.259.66.259 1.076v1.412c0 .417-.086.779-.259 1.086a1.689 1.689 0 01-.711.692c-.307.16-.672.24-1.095.24zm0-.769c.378 0 .672-.105.884-.317.211-.211.317-.522.317-.932v-1.402c0-.41-.106-.72-.317-.932-.212-.211-.506-.317-.884-.317-.372 0-.666.106-.884.317-.211.211-.317.522-.317.932v1.402c0 .41.106.72.317.932.218.212.512.317.884.317zm5.689.788c-.621 0-1.114-.183-1.479-.547-.359-.372-.538-.878-.538-1.518v-2.402c0-.846.211-1.496.634-1.95.423-.461 1.028-.692 1.816-.692h1.345v.865h-1.345c-.519 0-.913.153-1.182.46-.269.302-.403.74-.403 1.317v.624h.134l-.134.192c.006-.377.134-.672.384-.883.25-.212.589-.317 1.018-.317.557 0 .99.179 1.297.538.314.358.471.851.471 1.48v.768c0 .429-.08.797-.24 1.104-.16.308-.391.545-.692.711-.301.167-.663.25-1.086.25zm0-.769c.372 0 .657-.112.856-.336.198-.224.297-.544.297-.96v-.769c0-.416-.099-.736-.297-.96-.199-.225-.484-.337-.856-.337-.371 0-.656.112-.855.336-.198.218-.297.538-.297.961v.769c0 .416.099.736.297.96.199.224.484.337.855.337zm5.69.77a2.31 2.31 0 01-1.095-.25 1.812 1.812 0 01-.721-.702 2.21 2.21 0 01-.249-1.066v-1.441c0-.41.083-.766.249-1.067.173-.3.414-.534.721-.701a2.31 2.31 0 011.095-.25c.416 0 .778.084 1.086.25.314.166.554.4.72.701.173.301.26.657.26 1.067v.931h-3.286v.51c0 .416.106.736.317.96.211.218.512.327.903.327.333 0 .602-.058.807-.173a.764.764 0 00.375-.538h.864a1.469 1.469 0 01-.653 1.057c-.371.256-.836.384-1.393.384zm1.22-3.104v-.355c0-.417-.105-.737-.317-.961-.205-.224-.506-.336-.903-.336-.391 0-.692.112-.903.336-.211.224-.317.544-.317.96v.28h2.507l-.067.076zm4.489 3.103a2.46 2.46 0 01-1.114-.24 1.723 1.723 0 01-.73-.692c-.173-.307-.26-.67-.26-1.085v-1.441c0-.423.087-.785.26-1.086.172-.3.416-.532.73-.692.32-.16.691-.24 1.114-.24.608 0 1.098.163 1.47.49.371.327.567.772.586 1.335h-.865c-.019-.339-.134-.598-.346-.778-.205-.185-.486-.278-.845-.278-.378 0-.679.109-.903.326-.224.212-.336.516-.336.913v1.45c0 .398.112.705.336.923.224.218.525.326.903.326.359 0 .64-.092.845-.278.212-.186.327-.445.346-.778h.865c-.019.563-.215 1.008-.586 1.335-.372.327-.862.49-1.47.49zm3.691-.096v-5.284h3.958V79h-.864v-4.496h-2.229V79h-.865zm7.669.096c-.416 0-.781-.083-1.095-.25a1.812 1.812 0 01-.721-.701 2.21 2.21 0 01-.249-1.066v-1.441c0-.41.083-.766.249-1.067.173-.3.414-.534.721-.701a2.31 2.31 0 011.095-.25c.416 0 .778.084 1.086.25.313.166.554.4.72.701.173.301.26.657.26 1.067v.931h-3.286v.51c0 .416.106.736.317.96.211.218.512.327.903.327.333 0 .602-.058.807-.173a.764.764 0 00.375-.538h.864a1.469 1.469 0 01-.653 1.057c-.371.256-.836.384-1.393.384zm1.22-3.103v-.355c0-.417-.106-.737-.317-.961-.205-.224-.506-.336-.903-.336-.391 0-.692.112-.903.336-.211.224-.317.544-.317.96v.28h2.507l-.067.076zM137.422 79v-1.921c-.103.025-.26.05-.471.077a7.02 7.02 0 01-.653.028c-.654.007-1.163-.15-1.528-.47-.359-.327-.538-.782-.538-1.365v-1.633h.865v1.633c0 .327.109.586.326.779.224.185.532.278.923.278.269 0 .496-.01.682-.029a3.52 3.52 0 00.394-.067v-2.594h.864V79h-.864zm2.653 0v-5.284h.827v2.882c0 .186-.007.381-.02.586a8.08 8.08 0 01-.038.586 6.36 6.36 0 01-.048.462l2.133-4.516h1.104V79h-.826v-2.882c0-.186.003-.381.01-.586.013-.205.029-.4.048-.586l.048-.47L141.18 79h-1.105zm5.69 0v-5.284h2.286c.551 0 .977.125 1.278.375.301.243.452.586.452 1.028 0 .365-.125.66-.375.884-.25.217-.58.326-.989.326v-.076c.448 0 .807.112 1.076.336.275.224.413.525.413.903 0 .474-.161.845-.481 1.114-.32.263-.768.394-1.345.394h-2.315zm.845-.759h1.47c.308 0 .545-.067.711-.202.173-.134.26-.323.26-.567 0-.25-.087-.441-.26-.576-.166-.134-.403-.202-.711-.202h-1.47v1.547zm0-2.296h1.441c.269 0 .481-.064.635-.192.16-.128.24-.308.24-.538 0-.23-.077-.41-.231-.538-.154-.135-.368-.202-.644-.202h-1.441v1.47zM15.71 99.73l.778-2.056-1.96-4.957h.961l1.23 3.267c.044.108.086.24.125.393l.096.375c.025-.102.057-.227.096-.375a4.47 4.47 0 01.115-.393l1.153-3.267h.932l-2.604 7.013h-.922zm4.268-.384V97.26h.432c.109-.109.221-.323.336-.643.122-.32.186-.727.193-1.22l.057-2.68h3.449v4.543h.672v2.085h-.768V98h-3.603v1.345h-.768zm1.345-2.085h2.257v-3.775h-1.767l-.039 1.93c-.006.507-.06.917-.163 1.23-.102.314-.198.52-.288.615zm6.938.817c-.422 0-.787-.08-1.095-.24a1.743 1.743 0 01-.72-.692c-.167-.307-.25-.67-.25-1.086v-1.402c0-.423.083-.785.25-1.086.173-.3.413-.531.72-.691.308-.16.673-.24 1.095-.24.423 0 .788.08 1.096.24.307.16.544.39.71.691.173.301.26.66.26 1.076v1.412c0 .417-.087.779-.26 1.086a1.683 1.683 0 01-.71.692c-.308.16-.673.24-1.096.24zm0-.769c.378 0 .673-.105.884-.317.212-.211.317-.522.317-.932v-1.402c0-.41-.105-.72-.317-.932-.211-.211-.506-.317-.884-.317-.371 0-.666.106-.883.317-.212.211-.317.522-.317.932v1.402c0 .41.105.72.317.932.217.212.512.317.883.317zm5.69.788c-.621 0-1.114-.183-1.48-.547-.358-.372-.537-.878-.537-1.518V93.63c0-.846.21-1.496.634-1.95.422-.461 1.028-.692 1.815-.692h1.345v.865h-1.345c-.519 0-.912.153-1.181.46-.27.302-.404.74-.404 1.317v.624h.135l-.135.192c.007-.377.135-.672.384-.883.25-.212.59-.317 1.019-.317.557 0 .99.179 1.297.538.314.358.47.851.47 1.48v.768c0 .429-.08.797-.24 1.104-.16.308-.39.545-.692.711-.3.167-.662.25-1.085.25zm0-.769c.371 0 .656-.112.855-.336.199-.224.298-.544.298-.96v-.769c0-.416-.1-.736-.298-.96-.199-.225-.484-.337-.855-.337s-.657.112-.855.336c-.199.218-.298.538-.298.961v.769c0 .416.1.736.298.96.199.224.484.337.855.337zm5.709.77a2.46 2.46 0 01-1.114-.241 1.73 1.73 0 01-.73-.692c-.174-.307-.26-.67-.26-1.085v-1.441c0-.423.086-.785.26-1.086a1.73 1.73 0 01.73-.692c.32-.16.691-.24 1.114-.24.608 0 1.098.163 1.47.49.371.327.566.772.586 1.335h-.865c-.02-.339-.134-.598-.346-.778-.205-.185-.486-.278-.845-.278-.378 0-.679.109-.903.326-.224.212-.336.516-.336.913v1.45c0 .398.112.705.336.923.224.218.525.326.903.326.359 0 .64-.092.845-.278.212-.186.327-.445.346-.778h.865c-.02.563-.215 1.008-.586 1.335-.372.327-.862.49-1.47.49zM44.898 98v-4.525h-1.921v-.759h4.707v.76h-1.921V98h-.865zm4.143 0v-5.284h2.286c.551 0 .977.125 1.278.375.301.243.452.586.452 1.028 0 .365-.125.66-.375.884-.25.217-.58.326-.99.326v-.076c.449 0 .807.112 1.076.336.276.224.413.525.413.903 0 .474-.16.845-.48 1.114-.32.263-.768.394-1.345.394h-2.315zm.845-.759h1.47c.308 0 .545-.067.711-.202.173-.134.26-.323.26-.567 0-.25-.087-.441-.26-.576-.166-.134-.403-.202-.71-.202h-1.47v1.547zm0-2.296h1.441c.27 0 .48-.064.634-.192.16-.128.24-.308.24-.538 0-.23-.076-.41-.23-.538-.154-.135-.368-.202-.644-.202h-1.44v1.47zm6.824 3.132c-.423 0-.788-.08-1.096-.24a1.744 1.744 0 01-.72-.692c-.167-.307-.25-.67-.25-1.086v-1.402c0-.423.083-.785.25-1.086.173-.3.413-.531.72-.691.308-.16.673-.24 1.096-.24.422 0 .787.08 1.095.24.307.16.544.39.71.691.174.301.26.66.26 1.076v1.412c0 .417-.086.779-.26 1.086a1.683 1.683 0 01-.71.692c-.308.16-.673.24-1.095.24zm0-.769c.377 0 .672-.105.883-.317.212-.211.317-.522.317-.932v-1.402c0-.41-.105-.72-.317-.932-.21-.211-.506-.317-.883-.317-.372 0-.666.106-.884.317-.212.211-.317.522-.317.932v1.402c0 .41.105.72.317.932.218.212.512.317.884.317zm8.785 2.037V97.26h.432c.11-.109.221-.323.337-.643.121-.32.185-.727.192-1.22l.057-2.68h3.45v4.543h.672v2.085h-.769V98h-3.602v1.345h-.769zm1.345-2.085h2.258v-3.775H67.33l-.038 1.93c-.007.507-.061.917-.164 1.23-.102.314-.198.52-.288.615zm4.297.807v-.807h.173c.294 0 .5-.115.614-.346.122-.23.186-.643.193-1.239l.057-2.959h3.584V98h-.865v-4.496h-1.864l-.048 2.21c-.013.557-.077 1.008-.192 1.354-.109.346-.282.599-.519.76-.23.16-.534.24-.912.24h-.221zM77.163 98l1.354-2.037c-.403-.096-.717-.281-.941-.557-.218-.275-.327-.618-.327-1.028 0-.519.17-.925.51-1.22.345-.294.816-.442 1.411-.442h2.277V98h-.864v-1.97H79.42L78.171 98h-1.008zm2.007-2.738h1.413v-1.777H79.17c-.32 0-.573.08-.758.24-.186.154-.28.372-.28.653 0 .276.094.493.28.653.185.154.438.231.758.231zM88.897 98v-5.284h.865v2.181h.903l1.537-2.18h.99l-1.778 2.516L93.22 98h-1.008l-1.537-2.354h-.913V98h-.865zm4.998.067v-.807h.173c.295 0 .5-.115.615-.346.122-.23.186-.643.192-1.239l.058-2.959h3.583V98h-.864v-4.496h-1.864l-.048 2.21c-.013.557-.077 1.008-.192 1.354-.11.346-.282.599-.52.76-.23.16-.534.24-.912.24h-.22zm6.353-.067v-5.284h.826v2.882c0 .186-.006.381-.019.586-.007.205-.019.4-.039.586-.012.18-.028.333-.048.462l2.133-4.516h1.105V98h-.826v-2.882c0-.186.003-.381.009-.586.013-.205.029-.4.048-.586l.048-.47L101.353 98h-1.105zm7.668.096c-.416 0-.781-.083-1.095-.25a1.81 1.81 0 01-.72-.701 2.199 2.199 0 01-.25-1.066v-1.441c0-.41.083-.766.25-1.067a1.81 1.81 0 01.72-.701 2.31 2.31 0 011.095-.25c.417 0 .779.084 1.086.25.314.166.554.4.721.701.172.301.259.657.259 1.067v.931h-3.286v.51c0 .416.106.736.317.96.212.218.513.327.903.327.334 0 .603-.058.807-.173a.764.764 0 00.375-.538h.865a1.473 1.473 0 01-.654 1.057c-.371.256-.835.384-1.393.384zm1.221-3.103v-.355c0-.417-.106-.737-.317-.961-.205-.224-.506-.336-.904-.336-.39 0-.691.112-.903.336-.211.224-.317.544-.317.96v.28h2.508l-.067.076zm2.49 3.007v-5.284h.865v2.2h2.229v-2.2h.864V98h-.864v-2.296h-2.229V98h-.865zm7.237 0v-4.525h-1.922v-.759h4.707v.76h-1.921V98h-.864zm6.121.077c-.422 0-.787-.08-1.095-.24a1.745 1.745 0 01-.72-.692c-.167-.307-.25-.67-.25-1.086v-1.402c0-.423.083-.785.25-1.086.173-.3.413-.531.72-.691.308-.16.673-.24 1.095-.24.423 0 .788.08 1.096.24.307.16.544.39.711.691.172.301.259.66.259 1.076v1.412c0 .417-.087.779-.259 1.086a1.689 1.689 0 01-.711.692c-.308.16-.673.24-1.096.24zm0-.769c.378 0 .673-.105.884-.317.212-.211.317-.522.317-.932v-1.402c0-.41-.105-.72-.317-.932-.211-.211-.506-.317-.884-.317-.371 0-.666.106-.883.317-.212.211-.317.522-.317.932v1.402c0 .41.105.72.317.932.217.212.512.317.883.317zm3.711.692v-5.284h2.287c.55 0 .976.125 1.277.375.301.243.452.586.452 1.028 0 .365-.125.66-.375.884-.25.217-.58.326-.989.326v-.076c.448 0 .807.112 1.076.336.275.224.413.525.413.903 0 .474-.16.845-.481 1.114-.32.263-.768.394-1.345.394h-2.315zm.846-.759h1.469c.308 0 .545-.067.711-.202.173-.134.26-.323.26-.567 0-.25-.087-.441-.26-.576-.166-.134-.403-.202-.711-.202h-1.469v1.547zm0-2.296h1.441c.269 0 .48-.064.634-.192.16-.128.24-.308.24-.538 0-.23-.077-.41-.231-.538-.154-.135-.368-.202-.643-.202h-1.441v1.47zm6.823 3.151c-.244 0-.439-.07-.586-.211-.141-.141-.212-.33-.212-.567 0-.25.071-.448.212-.596.147-.147.342-.22.586-.22.243 0 .435.073.576.22.147.148.221.346.221.596 0 .237-.074.426-.221.567-.141.14-.333.211-.576.211z" fill="#000"/><path d="M14.692 18v-7.013h1.095v3.43c0 .224-.007.474-.02.749-.012.275-.028.544-.047.807-.02.263-.036.49-.048.682l1.93-5.668h1.47V18h-1.095v-3.324c0-.224.007-.48.02-.768.012-.289.028-.574.047-.855l.068-.721L16.162 18h-1.47zm5.747 0v-5.284h1.2v2.046h1.864v-2.046h1.201V18h-1.2v-2.123H21.64V18h-1.201zm7.217 0v-4.179H25.85v-1.105h4.823v1.105h-1.806V18h-1.21zm6.305.096c-.449 0-.84-.086-1.172-.26a1.923 1.923 0 01-.779-.72 2.17 2.17 0 01-.269-1.095v-1.326c0-.416.09-.778.27-1.085.185-.314.444-.557.778-.73.333-.173.723-.26 1.172-.26.442 0 .826.087 1.152.26.333.172.59.416.769.73.186.307.279.669.279 1.085v.951h-3.257v.375c0 .371.09.653.269.845.18.186.445.279.797.279.27 0 .487-.045.654-.134a.642.642 0 00.316-.414h1.182c-.09.455-.333.82-.73 1.096-.39.269-.868.403-1.431.403zm1.037-3.122v-.288c0-.365-.086-.644-.26-.836-.172-.199-.432-.298-.777-.298-.346 0-.609.1-.788.298-.18.198-.27.48-.27.845v.202l2.182-.02-.087.097zM37.921 18v-5.284h3.939v1.115h-2.738V18H37.92zm5.267 1.73v-7.014h1.172v1.009h.269l-.269.279c0-.43.128-.766.384-1.01.257-.249.602-.374 1.038-.374.531 0 .957.183 1.278.548.32.365.48.855.48 1.47v1.431c0 .41-.074.769-.221 1.076a1.623 1.623 0 01-.605.701 1.7 1.7 0 01-.932.25c-.436 0-.781-.122-1.038-.365-.256-.25-.384-.59-.384-1.018l.269.278h-.279l.039 1.259v1.48h-1.201zm2.171-2.672c.307 0 .548-.09.72-.268.173-.18.26-.436.26-.769v-1.326c0-.333-.087-.589-.26-.768-.172-.18-.413-.27-.72-.27-.3 0-.538.094-.71.28-.174.179-.26.432-.26.758v1.326c0 .327.086.583.26.769.172.179.41.268.71.268zm5.075 1.038c-.544 0-.973-.144-1.287-.432-.314-.288-.471-.676-.471-1.163 0-.518.173-.919.519-1.2.346-.282.836-.423 1.47-.423h1.316v-.452c0-.256-.084-.454-.25-.595-.167-.148-.394-.221-.682-.221-.263 0-.48.057-.654.173a.675.675 0 00-.307.47h-1.172c.058-.5.282-.896.673-1.19.39-.296.89-.443 1.498-.443.647 0 1.156.164 1.528.49.377.32.566.756.566 1.307V18H52.02v-.922h-.192l.192-.26c0 .391-.144.702-.432.932-.289.23-.673.346-1.153.346zm.394-.903c.34 0 .615-.086.826-.26a.82.82 0 00.327-.672v-.643h-1.297c-.244 0-.439.07-.586.21a.736.736 0 00-.221.558c0 .25.083.448.25.596.172.14.406.211.7.211zm7.4 2.152V18h-3.651v-5.284h1.2v4.18h1.634v-4.18h1.2v4.18h.721v2.449h-1.105zM60.267 18v-5.284h1.085v2.604c0 .166-.01.365-.029.595a11.758 11.758 0 01-.134 1.23l1.864-4.429h1.479V18h-1.086v-2.603c0-.173.007-.366.02-.577l.057-.624c.026-.205.051-.378.077-.519L61.746 18h-1.48zm5.459 0l1.239-1.931a1.65 1.65 0 01-.855-.586 1.611 1.611 0 01-.308-.99c0-.557.186-.992.558-1.306.371-.314.883-.47 1.537-.47h2.325V18H69.03v-1.797h-.855L67.1 18h-1.373zm2.219-2.757h1.085v-1.537h-1.085c-.295 0-.525.067-.692.202-.166.134-.25.326-.25.576 0 .237.084.423.25.557.167.135.397.202.692.202zm11.542 2.853c-.448 0-.842-.083-1.181-.25a1.923 1.923 0 01-.778-.72c-.186-.314-.279-.682-.279-1.105v-1.326c0-.429.093-.797.279-1.104.185-.308.445-.545.778-.711.34-.173.733-.26 1.181-.26.666 0 1.198.173 1.595.519.397.34.605.804.625 1.393h-1.201c-.02-.275-.119-.487-.298-.634-.173-.154-.413-.23-.72-.23-.32 0-.574.089-.76.268-.185.173-.278.423-.278.75v1.335c0 .327.093.58.278.759.186.18.44.269.76.269.307 0 .547-.074.72-.221.18-.154.279-.368.298-.644h1.2c-.019.59-.227 1.057-.624 1.403-.397.34-.928.51-1.595.51zm11.38 0c-.449 0-.842-.083-1.182-.25a1.923 1.923 0 01-.778-.72c-.186-.314-.279-.682-.279-1.105v-1.326c0-.429.093-.797.279-1.104.186-.308.445-.545.778-.711a2.57 2.57 0 011.182-.26c.666 0 1.197.173 1.594.519.398.34.606.804.625 1.393h-1.2c-.02-.275-.12-.487-.299-.634-.173-.154-.413-.23-.72-.23-.32 0-.574.089-.76.268-.185.173-.278.423-.278.75v1.335c0 .327.093.58.279.759.185.18.438.269.759.269.307 0 .547-.074.72-.221.18-.154.279-.368.298-.644h1.2c-.018.59-.226 1.057-.623 1.403-.398.34-.93.51-1.595.51zM94.404 18v-5.284h1.086v2.604c0 .166-.01.365-.029.595a11.758 11.758 0 01-.134 1.23l1.863-4.429h1.48V18h-1.086v-2.603c0-.173.007-.366.02-.577l.057-.624c.026-.205.051-.378.077-.519L95.884 18h-1.48zm7.842.096c-.448 0-.842-.083-1.182-.25a1.925 1.925 0 01-.778-.72c-.185-.314-.278-.682-.278-1.105v-1.326c0-.429.093-.797.278-1.104a1.86 1.86 0 01.778-.711c.34-.173.734-.26 1.182-.26.666 0 1.198.173 1.595.519.397.34.605.804.624 1.393h-1.201c-.019-.275-.118-.487-.297-.634-.173-.154-.414-.23-.721-.23-.32 0-.573.089-.759.268-.186.173-.278.423-.278.75v1.335c0 .327.092.58.278.759.186.18.439.269.759.269.307 0 .548-.074.721-.221.179-.154.278-.368.297-.644h1.201c-.019.59-.227 1.057-.624 1.403-.397.34-.929.51-1.595.51zm5.065-.096v-4.179h-1.806v-1.105h4.823v1.105h-1.806V18h-1.211zm6.305.096c-.449 0-.839-.086-1.172-.26a1.918 1.918 0 01-.778-.72 2.162 2.162 0 01-.269-1.095v-1.326c0-.416.089-.778.269-1.085.185-.314.445-.557.778-.73.333-.173.723-.26 1.172-.26.442 0 .826.087 1.153.26.333.172.589.416.768.73.186.307.279.669.279 1.085v.951h-3.257v.375c0 .371.09.653.269.845.179.186.445.279.797.279.269 0 .487-.045.654-.134a.644.644 0 00.317-.414h1.181a1.69 1.69 0 01-.73 1.096c-.391.269-.868.403-1.431.403zm1.037-3.122v-.288c0-.365-.086-.644-.259-.836-.173-.199-.432-.298-.778-.298-.346 0-.609.1-.788.298-.179.198-.269.48-.269.845v.202l2.181-.02-.087.097zM116.952 18v-5.284h1.441l.653 1.989c.07.218.128.423.173.615.051.192.083.336.096.432l.086-.432a7.93 7.93 0 01.173-.615l.625-1.989h1.441V18h-1.115v-.903a40.377 40.377 0 01.039-1.71l.038-.894c.02-.288.036-.54.048-.758l-.797 2.738h-1.095l-.826-2.729c.019.27.038.602.057 1a36.14 36.14 0 01.077 2.354V18h-1.114zm8.033.087c-.448 0-.839-.084-1.172-.25a1.943 1.943 0 01-.768-.72 2.2 2.2 0 01-.269-1.106v-1.306c0-.423.09-.788.269-1.095.186-.314.442-.554.768-.72.333-.174.724-.26 1.172-.26.455 0 .846.086 1.172.26.327.166.58.406.759.72.186.307.279.669.279 1.085v1.316c0 .423-.093.791-.279 1.105a1.868 1.868 0 01-.759.72c-.326.167-.717.25-1.172.25zm0-1.048c.321 0 .567-.086.74-.26.18-.178.269-.435.269-.768v-1.306c0-.34-.089-.596-.269-.769-.173-.173-.419-.259-.74-.259-.313 0-.56.086-.739.26-.18.172-.269.428-.269.768v1.306c0 .333.089.59.269.769.179.173.426.26.739.26zm3.557.961v-5.284h1.086v2.604c0 .166-.01.365-.029.595a11.803 11.803 0 01-.134 1.23l1.863-4.429h1.48V18h-1.086v-2.603c0-.173.007-.366.019-.577l.058-.624c.026-.205.051-.378.077-.519L130.022 18h-1.48zm2.172-6.12c-.5 0-.907-.13-1.221-.393a1.289 1.289 0 01-.461-1.028h.932c0 .211.067.38.202.509a.782.782 0 00.548.192c.224 0 .403-.064.538-.192a.658.658 0 00.211-.51h.932c0 .423-.154.766-.461 1.029-.308.262-.715.393-1.22.393zM16.882 37.087c-.448 0-.839-.084-1.172-.25a1.938 1.938 0 01-.769-.72 2.2 2.2 0 01-.269-1.106v-1.306c0-.423.09-.788.27-1.095a1.84 1.84 0 01.768-.72c.333-.174.724-.26 1.172-.26.455 0 .845.086 1.172.26.327.166.58.406.759.72.186.307.279.669.279 1.085v1.316c0 .423-.093.791-.279 1.105-.18.308-.432.548-.759.72-.327.167-.717.25-1.172.25zm0-1.048c.32 0 .567-.086.74-.26.18-.178.269-.435.269-.768v-1.306c0-.34-.09-.596-.27-.769-.172-.173-.419-.259-.739-.259-.314 0-.56.086-.74.26-.179.172-.269.428-.269.768v1.306c0 .333.09.59.27.769.179.173.425.26.739.26zm3.557.961v-5.284h4.265V37h-1.2v-4.17H21.64V37h-1.201zm5.161.067v-1.095h.24a.54.54 0 00.49-.26c.116-.179.177-.46.183-.845l.057-3.15h3.824V37h-1.2v-4.17h-1.442l-.038 2.105c-.013.46-.09.851-.23 1.172a1.617 1.617 0 01-.606.72c-.263.16-.583.24-.96.24H25.6zm7.765.03c-.544 0-.974-.145-1.287-.433-.314-.288-.471-.676-.471-1.163 0-.518.173-.919.519-1.2.346-.282.836-.423 1.47-.423h1.316v-.452c0-.256-.084-.454-.25-.595-.167-.148-.394-.221-.682-.221-.263 0-.48.057-.653.173a.675.675 0 00-.308.47h-1.172c.058-.5.282-.896.673-1.19.39-.296.89-.443 1.498-.443.647 0 1.156.163 1.528.49.378.32.566.756.566 1.307V37H34.95v-.922h-.192l.192-.26c0 .391-.144.702-.432.932-.288.23-.673.346-1.153.346zm.394-.904c.34 0 .615-.086.826-.26a.82.82 0 00.327-.672v-.644h-1.297c-.244 0-.439.071-.586.212a.736.736 0 00-.221.557c0 .25.083.448.25.596.172.14.406.211.7.211zm5.276.807v-4.179H37.23v-1.105h4.823v1.105h-1.806V37h-1.21zm3.894 0v-5.284h1.037v1.787h.356c.57 0 1.021.16 1.354.48.333.32.5.75.5 1.288 0 .525-.17.944-.51 1.258-.332.314-.78.471-1.344.471h-1.393zm1.037-.932h.356c.275 0 .486-.07.634-.211.153-.141.23-.336.23-.586 0-.263-.077-.468-.23-.615-.148-.147-.359-.221-.634-.221h-.356v1.633zm2.728.932v-5.284h1.038V37h-1.038zm4.326-3.766c-.269 0-.487-.074-.653-.22a.777.777 0 01-.24-.587c0-.243.08-.439.24-.586.166-.147.384-.22.653-.22s.483.073.644.22c.166.147.25.343.25.586a.763.763 0 01-.25.586c-.16.148-.375.221-.644.221zm0 3.862c-.269 0-.487-.074-.653-.22a.758.758 0 01-.24-.587c0-.243.08-.439.24-.586.166-.147.384-.22.653-.22s.483.073.644.22c.166.147.25.343.25.586a.744.744 0 01-.25.586c-.16.147-.375.221-.644.221z" fill="#fff"/><defs><filter id="filter0_d_2004_76" x=".804" y="0" width="179.646" height="178.685" filterUnits="userSpaceOnUse" color-interpolation-filters="sRGB"><feFlood flood-opacity="0" result="BackgroundImageFix"/><feColorMatrix in="SourceAlpha" values="0 0 0 0 0 0 0 0 0 0 0 0 0 0 0 0 0 0 127 0" result="hardAlpha"/><feOffset dy="3.843"/><feGaussianBlur stdDeviation="1.921"/><feComposite in2="hardAlpha" operator="out"/><feColorMatrix values="0 0 0 0 0 0 0 0 0 0 0 0 0 0 0 0 0 0 0.25 0"/><feBlend in2="BackgroundImageFix" result="effect1_dropShadow_2004_76"/><feBlend in="SourceGraphic" in2="effect1_dropShadow_2004_76" result="shape"/></filter></defs></svg>