<svg width="180" height="179" fill="none" xmlns="http://www.w3.org/2000/svg"><g filter="url(#filter0_d_2004_77)"><rect x="4" width="171.961" height="171" rx="16.011" fill="#E1EDE4"/></g><mask id="a" style="mask-type:alpha" maskUnits="userSpaceOnUse" x="4" y="0" width="172" height="43"><path fill="#C9D9CD" d="M4 0h171.961v42.27H4z"/></mask><g mask="url(#a)"><rect x="4" y="-1.69" width="171.961" height="118.355" rx="16.011" fill="#174756"/></g><path d="M14.5 60.073V53.06h.864v2.998h2.248V53.06h.865v7.013h-.864v-3.228h-2.248v3.228H14.5zm7.217.096c-.557 0-.996-.14-1.316-.422-.32-.289-.48-.676-.48-1.163 0-.493.16-.88.48-1.162.32-.282.752-.423 1.297-.423h1.633v-.528c0-.327-.1-.577-.298-.75-.192-.179-.467-.269-.826-.269-.314 0-.576.068-.788.202a.718.718 0 00-.365.528h-.864c.057-.454.272-.816.643-1.085.372-.269.836-.404 1.393-.404.609 0 1.089.157 1.441.471.352.314.528.74.528 1.278v3.631h-.845v-1.008h-.144l.144-.145c0 .385-.15.689-.451.913-.295.224-.689.336-1.182.336zm.211-.682c.41 0 .746-.102 1.01-.307a.956.956 0 00.393-.788v-.75h-1.614c-.288 0-.516.08-.682.24-.167.161-.25.379-.25.654 0 .295.1.529.298.701.205.167.487.25.845.25zm5.959.682a2.46 2.46 0 01-1.114-.24 1.73 1.73 0 01-.73-.692c-.173-.307-.26-.669-.26-1.085V56.71c0-.423.087-.785.26-1.086a1.73 1.73 0 01.73-.691c.32-.16.691-.24 1.114-.24.608 0 1.098.163 1.47.49.371.326.567.771.586 1.335h-.865c-.019-.34-.134-.6-.346-.778-.205-.186-.486-.279-.845-.279-.378 0-.679.109-.903.327-.224.211-.336.515-.336.912v1.45c0 .398.112.705.336.923.224.218.525.327.903.327.359 0 .64-.093.845-.279.212-.186.327-.445.346-.778h.865c-.02.564-.215 1.009-.586 1.335-.372.327-.862.49-1.47.49zm5.238-.096v-4.525h-1.921v-.759h4.707v.76H33.99v4.524h-.865zm4.124 1.73v-7.014h.864v1.01h.173l-.172.201c0-.404.13-.72.393-.951.27-.237.622-.355 1.057-.355.532 0 .954.176 1.268.528.32.346.48.823.48 1.431V58.2c0 .403-.073.752-.22 1.047a1.568 1.568 0 01-.606.682c-.256.16-.563.24-.922.24-.429 0-.778-.118-1.047-.355-.269-.237-.404-.554-.404-.951l.173.202h-.192l.02 1.2v1.538h-.865zm2.027-2.383c.365 0 .65-.109.855-.327.211-.217.317-.531.317-.941V56.71c0-.41-.106-.724-.317-.942-.205-.217-.49-.326-.855-.326-.352 0-.634.112-.846.336-.21.224-.316.535-.316.932v1.44c0 .398.105.709.317.933.21.224.493.336.845.336zm5.66.73c-.422 0-.787-.08-1.094-.24a1.743 1.743 0 01-.72-.692c-.167-.307-.25-.669-.25-1.085V56.73c0-.423.083-.784.25-1.085.172-.302.412-.532.72-.692.307-.16.672-.24 1.095-.24.422 0 .788.08 1.095.24.307.16.544.39.71.691.174.302.26.66.26 1.077v1.412c0 .416-.086.778-.26 1.085a1.683 1.683 0 01-.71.692c-.307.16-.673.24-1.095.24zm0-.768c.379 0 .673-.106.885-.317.21-.212.317-.522.317-.932V56.73c0-.41-.106-.72-.317-.932-.212-.211-.506-.317-.884-.317-.372 0-.666.106-.884.317-.211.212-.317.522-.317.932v1.403c0 .41.106.72.317.931.218.212.512.318.884.318zm3.711.691V54.79h.827v2.883c0 .185-.007.38-.02.586a8.13 8.13 0 01-.038.586 6.233 6.233 0 01-.048.46L51.5 54.79h1.104v5.284h-.826v-2.882c0-.186.003-.38.01-.586.013-.205.029-.4.048-.586l.048-.47-2.133 4.524h-1.105zm5.027.068v-.807h.173c.295 0 .5-.116.615-.346.122-.23.186-.644.192-1.24l.058-2.959h3.583v5.284h-.865v-4.496h-1.863l-.048 2.21c-.013.557-.077 1.008-.192 1.354-.11.346-.282.6-.52.76-.23.16-.534.24-.912.24h-.22zm6.353-.068V54.79h.826v2.883c0 .185-.007.38-.02.586-.006.204-.018.4-.038.586a6.233 6.233 0 01-.048.46l2.133-4.515h1.105v5.284h-.827v-2.882c0-.186.004-.38.01-.586.013-.205.029-.4.048-.586l.048-.47-2.133 4.524h-1.104zm11.379 0V54.79h.826v2.883c0 .185-.006.38-.019.586-.006.204-.02.4-.038.586-.013.179-.03.333-.049.46l2.133-4.515h1.105v5.284h-.826v-2.882c0-.186.003-.38.01-.586.012-.205.028-.4.047-.586l.049-.47-2.133 4.524h-1.105zm5.69 0V54.79h.864v2.2h2.23v-2.2h.864v5.284h-.865v-2.296H77.96v2.296h-.864zm7.236 0v-4.525h-1.921v-.759h4.707v.76h-1.921v4.524h-.865zm6.122.096c-.416 0-.781-.083-1.095-.25a1.807 1.807 0 01-.72-.7 2.204 2.204 0 01-.25-1.067V56.71c0-.41.083-.765.25-1.066.172-.302.412-.535.72-.702a2.31 2.31 0 011.095-.25c.416 0 .778.084 1.086.25.313.167.553.4.72.702.173.3.26.656.26 1.066v.932h-3.286v.509c0 .416.106.736.317.96.211.218.512.327.903.327.333 0 .602-.057.807-.173a.763.763 0 00.375-.538h.864a1.472 1.472 0 01-.653 1.057c-.371.256-.836.384-1.393.384zm1.22-3.103v-.355c0-.416-.106-.737-.317-.96-.205-.225-.506-.337-.903-.337-.39 0-.692.112-.903.336-.211.224-.317.545-.317.96v.28h2.507l-.067.076zm2.836 3.007V54.79h3.795v.788h-2.93v4.496h-.865zm5.325 1.73v-7.014h.865v1.01h.173L100.7 56c0-.404.131-.72.394-.951.269-.237.621-.355 1.056-.355.532 0 .955.176 1.268.528.321.346.481.823.481 1.431V58.2c0 .403-.074.752-.221 1.047a1.574 1.574 0 01-.605.682c-.257.16-.564.24-.923.24-.429 0-.778-.118-1.047-.355-.269-.237-.403-.554-.403-.951l.173.202h-.193l.02 1.2v1.538h-.865zm2.027-2.383c.365 0 .65-.109.855-.327.211-.217.317-.531.317-.941V56.71c0-.41-.106-.724-.317-.942-.205-.217-.49-.326-.855-.326-.352 0-.634.112-.845.336-.212.224-.317.535-.317.932v1.44c0 .398.105.709.317.933.211.224.493.336.845.336zm5.2.75c-.557 0-.996-.142-1.316-.423-.321-.289-.481-.676-.481-1.163 0-.493.16-.88.481-1.162.32-.282.752-.423 1.297-.423h1.633v-.528c0-.327-.1-.577-.298-.75-.192-.179-.468-.269-.826-.269-.314 0-.577.068-.788.202a.719.719 0 00-.365.528h-.865c.058-.454.273-.816.644-1.085s.836-.404 1.393-.404c.608 0 1.089.157 1.441.471.352.314.528.74.528 1.278v3.631h-.845v-1.008h-.144l.144-.145c0 .385-.151.689-.452.913-.294.224-.688.336-1.181.336zm.211-.683c.41 0 .746-.102 1.009-.307a.958.958 0 00.394-.788v-.75h-1.614c-.288 0-.516.08-.682.24-.167.161-.25.379-.25.654 0 .295.099.529.298.701.205.167.487.25.845.25zm7.717 1.931v-1.345h-3.756V54.79h.864v4.516h2.075V54.79h.865v4.516h.72v2.113h-.768zm1.933-1.345V54.79h.826v2.883c0 .185-.006.38-.019.586a8.13 8.13 0 01-.038.586 6.233 6.233 0 01-.048.46l2.132-4.515h1.105v5.284h-.826v-2.882c0-.186.003-.38.01-.586.012-.205.028-.4.048-.586l.048-.47-2.133 4.524h-1.105zm8.495.096c-.442 0-.797-.15-1.066-.451-.269-.301-.404-.695-.404-1.182v-.797h-.845v2.334h-.797V54.79h.797v2.258h.845v-.72c0-.493.132-.887.394-1.182.269-.301.628-.452 1.076-.452.474 0 .855.151 1.143.452.288.295.433.688.433 1.182v2.21c0 .486-.145.88-.433 1.18-.288.302-.669.452-1.143.452zm0-.672c.243 0 .432-.083.567-.25.141-.173.211-.41.211-.71v-2.21c0-.301-.07-.535-.211-.702a.679.679 0 00-.567-.26.666.666 0 00-.557.26c-.135.167-.202.4-.202.702v2.21c0 .3.067.537.202.71.134.167.32.25.557.25zm10.572.672a2.46 2.46 0 01-1.114-.24 1.729 1.729 0 01-.73-.692c-.173-.307-.259-.669-.259-1.085V56.71c0-.423.086-.785.259-1.086a1.73 1.73 0 01.73-.691c.32-.16.692-.24 1.114-.24.609 0 1.099.163 1.47.49.372.326.567.771.586 1.335h-.864c-.02-.34-.135-.6-.346-.778-.205-.186-.487-.279-.846-.279-.377 0-.678.109-.903.327-.224.211-.336.515-.336.912v1.45c0 .398.112.705.336.923.225.218.526.327.903.327.359 0 .641-.093.846-.279.211-.186.326-.445.346-.778h.864c-.019.564-.214 1.009-.586 1.335-.371.327-.861.49-1.47.49zm11.399 0c-.423 0-.791-.08-1.105-.24a1.745 1.745 0 01-.72-.692c-.167-.307-.25-.669-.25-1.085v-3.17c0-.423.083-.785.25-1.086.173-.3.413-.532.72-.692.314-.16.682-.24 1.105-.24.423 0 .788.084 1.095.25.308.16.545.39.711.692.167.3.25.66.25 1.076h-.865c0-.397-.105-.702-.317-.913-.205-.218-.496-.327-.874-.327s-.676.106-.893.317c-.212.212-.317.516-.317.913v3.18c0 .397.105.704.317.922.217.212.515.317.893.317s.669-.105.874-.317c.212-.218.317-.525.317-.922h.865c0 .41-.083.768-.25 1.076a1.737 1.737 0 01-.711.701c-.307.16-.672.24-1.095.24zm3.653-.096V53.06h2.171c.416 0 .781.087 1.095.26.314.166.557.4.73.701.173.301.26.653.26 1.057 0 .474-.125.88-.375 1.22-.243.34-.576.573-.999.701l1.47 3.074h-1.018l-1.345-2.978h-1.124v2.978h-.865zm.865-3.756h1.306c.359 0 .647-.112.865-.336.217-.23.326-.532.326-.903 0-.378-.109-.68-.326-.903-.218-.224-.506-.336-.865-.336h-1.306v2.478zm4.671 3.756V53.06h1.134l.73 2.267c.07.206.134.41.192.615.057.199.099.353.125.462.032-.11.073-.263.125-.462.051-.205.108-.413.172-.624l.692-2.258h1.134v7.013h-.846v-2.545c0-.282.01-.603.029-.961.019-.359.045-.724.077-1.095.032-.378.064-.737.096-1.076.039-.346.071-.647.096-.903l-1.133 3.506h-.913l-1.143-3.506a34.544 34.544 0 01.182 1.921c.026.365.048.73.067 1.095.02.365.029.705.029 1.019v2.545h-.845zm6.304-2.786v-.768h3.075v.768h-3.075zM16.508 79.17a2.46 2.46 0 01-1.115-.24 1.73 1.73 0 01-.73-.692c-.173-.307-.26-.669-.26-1.085V75.71c0-.423.087-.785.26-1.086a1.73 1.73 0 01.73-.691c.32-.16.692-.24 1.115-.24.608 0 1.098.163 1.47.49.371.326.566.771.585 1.335H17.7c-.02-.34-.135-.6-.346-.778-.205-.186-.487-.279-.845-.279-.378 0-.68.109-.903.327-.225.211-.337.515-.337.912v1.45c0 .398.112.705.337.923.224.218.525.327.903.327.358 0 .64-.093.845-.279.211-.186.327-.445.346-.778h.864c-.019.564-.214 1.009-.585 1.335-.372.327-.862.49-1.47.49zm3.691-.096V73.79h.826v2.882c0 .185-.006.38-.019.586-.006.205-.02.4-.038.586a6.83 6.83 0 01-.048.46l2.132-4.514h1.105v5.283h-.826v-2.882c0-.186.003-.38.01-.586.012-.205.028-.4.048-.586l.048-.47-2.133 4.524h-1.105zm7.688.096a2.46 2.46 0 01-1.114-.24 1.73 1.73 0 01-.73-.692c-.173-.307-.26-.669-.26-1.085V75.71c0-.423.087-.785.26-1.086a1.73 1.73 0 01.73-.691c.32-.16.691-.24 1.114-.24.608 0 1.098.163 1.47.49.371.326.567.771.586 1.335h-.865c-.019-.34-.134-.6-.346-.778-.205-.186-.486-.279-.845-.279-.378 0-.679.109-.903.327-.224.211-.336.515-.336.912v1.45c0 .398.112.705.336.923.224.218.525.327.903.327.359 0 .64-.093.845-.279.212-.186.327-.445.346-.778h.865c-.02.564-.215 1.009-.586 1.335-.372.327-.862.49-1.47.49zm5.238-.096V74.55h-1.921v-.76h4.707v.76H33.99v4.524h-.865zm6.122.096c-.416 0-.781-.083-1.095-.25a1.807 1.807 0 01-.72-.7 2.204 2.204 0 01-.25-1.067V75.71c0-.41.083-.766.25-1.067.172-.3.412-.534.72-.7.314-.167.679-.25 1.095-.25.416 0 .778.083 1.086.25.314.166.554.4.72.7.173.301.26.657.26 1.067v.932h-3.286v.509c0 .416.106.736.317.96.211.218.512.327.903.327.333 0 .602-.057.807-.173a.763.763 0 00.375-.538h.864a1.472 1.472 0 01-.653 1.057c-.371.256-.836.384-1.393.384zm1.22-3.103v-.355c0-.416-.105-.737-.317-.96-.205-.225-.506-.337-.903-.337-.39 0-.692.112-.903.336-.211.224-.317.545-.317.96v.28h2.507l-.067.076zm2.318 3.007V73.79h1.172l.691 2.027c.071.205.135.41.193.614.057.199.099.353.125.462.025-.11.064-.263.115-.462.057-.205.118-.413.182-.624l.654-2.017h1.172v5.283h-.836v-.816c0-.288.003-.602.01-.942l.019-1.028c.013-.346.025-.672.038-.98.013-.313.023-.589.029-.826l-.941 3.007h-.913l-.951-2.988c.013.289.022.647.029 1.076.012.43.022.878.028 1.345.013.468.02.913.02 1.336v.816h-.836zm7.841.077c-.422 0-.787-.08-1.095-.24a1.743 1.743 0 01-.72-.692c-.167-.307-.25-.669-.25-1.085V75.73c0-.423.083-.785.25-1.086.173-.3.413-.531.72-.691.308-.16.673-.24 1.095-.24.423 0 .788.08 1.096.24.307.16.544.39.71.691.173.301.26.66.26 1.076v1.413c0 .416-.087.778-.26 1.085a1.683 1.683 0 01-.71.692c-.308.16-.673.24-1.096.24zm0-.768c.378 0 .673-.106.884-.318.212-.21.317-.521.317-.931V75.73c0-.41-.105-.72-.317-.932-.211-.211-.506-.317-.884-.317-.371 0-.666.106-.883.317-.212.212-.317.522-.317.932v1.403c0 .41.105.72.317.931.217.212.512.318.883.318zm3.711.691V73.79h.826v2.882c0 .185-.006.38-.019.586-.006.205-.02.4-.038.586a6.83 6.83 0 01-.048.46l2.132-4.514h1.105v5.283h-.826v-2.882c0-.186.003-.38.01-.586.012-.205.028-.4.047-.586l.048-.47-2.132 4.524h-1.105zm2.017-6.148c-.46 0-.832-.128-1.114-.384-.282-.257-.423-.593-.423-1.01h.682c0 .25.077.453.231.606.154.154.359.23.615.23.263 0 .47-.076.624-.23a.8.8 0 00.24-.605h.683c0 .416-.141.752-.423 1.009-.282.256-.653.384-1.114.384zm8.748 7.493v-2.085h.432c.109-.108.22-.323.336-.643.122-.32.186-.727.192-1.22l.058-2.68h3.449v4.543h.672v2.085h-.768v-1.345H65.87v1.345h-.769zm1.344-2.085h2.258v-3.775h-1.768l-.038 1.931c-.006.506-.06.916-.163 1.23-.103.314-.199.519-.288.615zm4.297.808v-.808h.173c.295 0 .5-.115.615-.345.122-.23.186-.644.192-1.24l.058-2.959h3.583v5.284h-.865v-4.496h-1.863l-.048 2.21c-.013.557-.077 1.008-.192 1.354-.11.346-.282.6-.52.76-.23.16-.534.24-.912.24h-.22zm6.026-.068l1.355-2.036c-.404-.097-.718-.282-.942-.558-.218-.275-.326-.618-.326-1.028 0-.518.17-.925.509-1.22.346-.294.816-.441 1.412-.441h2.277v5.283h-.865v-1.97h-1.162l-1.25 1.97H76.77zm2.008-2.738h1.412v-1.777h-1.412c-.32 0-.573.08-.76.24-.185.154-.278.372-.278.653 0 .276.093.494.279.654.186.153.439.23.759.23zm11.677 2.815c-.423 0-.788-.08-1.095-.24a1.743 1.743 0 01-.72-.692c-.167-.307-.25-.669-.25-1.085V75.73c0-.423.083-.785.25-1.086.172-.3.412-.531.72-.691.307-.16.672-.24 1.095-.24.423 0 .788.08 1.095.24.308.16.544.39.711.691.173.301.26.66.26 1.076v1.413c0 .416-.087.778-.26 1.085a1.683 1.683 0 01-.71.692c-.308.16-.673.24-1.096.24zm0-.768c.378 0 .672-.106.884-.318.211-.21.317-.521.317-.931V75.73c0-.41-.106-.72-.317-.932-.212-.211-.506-.317-.884-.317-.371 0-.666.106-.884.317-.211.212-.317.522-.317.932v1.403c0 .41.106.72.317.931.218.212.513.318.884.318zm5.257.691V74.55H93.79v-.76h4.707v.76h-1.921v4.524h-.865zm6.141.096a2.46 2.46 0 01-1.114-.24 1.729 1.729 0 01-.73-.692c-.173-.307-.26-.669-.26-1.085V75.71c0-.423.087-.785.26-1.086a1.73 1.73 0 01.73-.691c.32-.16.692-.24 1.114-.24.609 0 1.099.163 1.47.49.372.326.567.771.586 1.335h-.864c-.019-.34-.135-.6-.346-.778-.205-.186-.487-.279-.846-.279-.377 0-.678.109-.903.327-.224.211-.336.515-.336.912v1.45c0 .398.112.705.336.923.225.218.526.327.903.327.359 0 .641-.093.846-.279.211-.186.327-.445.346-.778h.864c-.019.564-.214 1.009-.586 1.335-.371.327-.861.49-1.47.49zm3.029-.028v-.808h.173c.295 0 .5-.115.615-.345.122-.23.186-.644.192-1.24l.058-2.959h3.583v5.284h-.865v-4.496h-1.863l-.048 2.21c-.013.557-.077 1.008-.193 1.354-.108.346-.281.6-.518.76-.231.16-.535.24-.913.24h-.221zm8.332.028c-.417 0-.782-.083-1.096-.25a1.809 1.809 0 01-.72-.7 2.198 2.198 0 01-.25-1.067V75.71c0-.41.083-.766.25-1.067a1.81 1.81 0 01.72-.7c.314-.167.679-.25 1.096-.25.416 0 .778.083 1.085.25.314.166.554.4.721.7.173.301.259.657.259 1.067v.932h-3.285v.509c0 .416.105.736.317.96.211.218.512.327.903.327.333 0 .602-.057.807-.173a.763.763 0 00.374-.538h.865a1.475 1.475 0 01-.653 1.057c-.372.256-.836.384-1.393.384zm1.22-3.103v-.355c0-.416-.106-.737-.317-.96-.205-.225-.506-.337-.903-.337-.391 0-.692.112-.903.336-.212.224-.317.545-.317.96v.28h2.507l-.067.076zm1.76 3.007l1.153-2.709-1.076-2.575h.836l.922 2.306h.509V73.79h.73v2.305h.49l.951-2.305h.827l-1.076 2.545 1.152 2.738h-.864l-.961-2.401h-.519v2.401h-.73v-2.401h-.519l-.97 2.401h-.855zm6.42 0V73.79h.826v2.882c0 .185-.006.38-.019.586-.007.205-.019.4-.039.586a5.37 5.37 0 01-.048.46l2.133-4.514h1.105v5.283h-.826v-2.882c0-.186.003-.38.009-.586.013-.205.029-.4.048-.586l.048-.47-2.132 4.524h-1.105zm5.69 0V73.79h2.286c.551 0 .977.124 1.278.374.301.244.451.586.451 1.028 0 .365-.125.66-.374.884-.25.218-.58.327-.99.327v-.077c.448 0 .807.112 1.076.336.275.224.413.525.413.903 0 .474-.16.845-.48 1.114-.32.263-.769.394-1.345.394h-2.315zm.845-.759h1.47c.307 0 .544-.067.711-.201.173-.135.259-.324.259-.567 0-.25-.086-.442-.259-.577-.167-.134-.404-.201-.711-.201h-1.47v1.546zm0-2.296h1.441c.269 0 .48-.064.634-.192.16-.128.24-.307.24-.538 0-.23-.077-.41-.23-.538-.154-.134-.369-.201-.644-.201h-1.441v1.47zm6.362 3.151c-.557 0-.996-.14-1.316-.422-.32-.289-.48-.676-.48-1.163 0-.493.16-.88.48-1.162.32-.282.752-.423 1.297-.423h1.633v-.528c0-.327-.099-.577-.298-.75-.192-.179-.467-.269-.826-.269-.314 0-.576.068-.788.202a.719.719 0 00-.365.529h-.864c.057-.455.272-.817.643-1.086.372-.269.836-.403 1.393-.403.609 0 1.089.156 1.441.47.353.314.529.74.529 1.278v3.631h-.846v-1.008h-.144l.144-.145c0 .385-.15.689-.451.913-.295.224-.689.336-1.182.336zm.211-.682c.41 0 .747-.102 1.009-.307a.955.955 0 00.394-.788v-.75h-1.614c-.288 0-.515.08-.682.24-.167.161-.25.379-.25.654 0 .295.1.528.298.701.205.167.487.25.845.25zm3.961.586V73.79h.864v2.2h2.229v-2.2h.865v5.283h-.865v-2.296h-2.229v2.296h-.864zm5.69 0V73.79h.826v2.882c0 .185-.007.38-.019.586-.007.205-.02.4-.039.586a6.233 6.233 0 01-.048.46l2.133-4.514h1.105v5.283h-.827v-2.882c0-.186.004-.38.01-.586.013-.205.029-.4.048-.586l.048-.47-2.133 4.524h-1.104zm5.363 0l1.354-2.036c-.403-.097-.717-.282-.941-.558-.218-.275-.327-.618-.327-1.028 0-.518.17-.925.509-1.22.346-.294.817-.441 1.412-.441h2.277v5.283h-.864v-1.97h-1.163l-1.249 1.97h-1.008zm2.007-2.738h1.413v-1.777h-1.413c-.32 0-.573.08-.759.24-.185.154-.278.372-.278.653 0 .276.093.494.278.654.186.153.439.23.759.23zM16.239 98.141c-.558 0-1.015-.119-1.374-.356a1.412 1.412 0 01-.634-.96h.912c.045.16.164.29.356.393.198.103.445.154.74.154h.451c.314 0 .557-.074.73-.221a.71.71 0 00.27-.576c0-.257-.087-.458-.26-.606-.167-.147-.413-.22-.74-.22h-1.162v-.75h1.133c.295 0 .52-.07.673-.211a.72.72 0 00.23-.557.727.727 0 00-.105-.404.61.61 0 00-.298-.25 1.24 1.24 0 00-.49-.086h-.48c-.256 0-.477.058-.663.173-.186.115-.298.256-.336.422h-.913c.064-.397.272-.723.624-.98.353-.256.782-.384 1.288-.384h.48c.378 0 .701.061.97.183a1.327 1.327 0 01.836 1.278c0 .313-.102.573-.307.778-.205.198-.494.31-.865.336v.038c.455.032.785.154.99.365.204.212.307.516.307.913 0 .468-.173.839-.519 1.114-.346.276-.81.413-1.393.413h-.451zm5.478.028c-.557 0-.996-.14-1.316-.422-.32-.289-.48-.676-.48-1.163 0-.493.16-.88.48-1.162.32-.282.752-.423 1.297-.423h1.633v-.528c0-.327-.1-.577-.298-.75-.192-.179-.467-.269-.826-.269-.314 0-.576.068-.788.202a.718.718 0 00-.365.529h-.864c.057-.455.272-.817.643-1.086.372-.269.836-.403 1.393-.403.609 0 1.089.156 1.441.47.352.314.528.74.528 1.278v3.631h-.845v-1.008h-.144l.144-.145c0 .385-.15.689-.451.913-.295.224-.689.336-1.182.336zm.211-.682c.41 0 .746-.102 1.01-.307a.956.956 0 00.393-.788v-.75h-1.614c-.288 0-.516.08-.682.24-.167.161-.25.379-.25.654 0 .295.1.528.298.701.205.167.487.25.845.25zm3.99.586V92.79h.864v2.18h.903l1.537-2.18h.99l-1.777 2.516 1.806 2.767h-1.01l-1.536-2.353h-.913v2.353h-.864zm7.178.096c-.557 0-.996-.14-1.316-.422-.32-.289-.48-.676-.48-1.163 0-.493.16-.88.48-1.162.32-.282.753-.423 1.297-.423h1.633v-.528c0-.327-.099-.577-.298-.75-.192-.179-.467-.269-.826-.269-.314 0-.576.068-.788.202a.718.718 0 00-.365.529h-.864c.058-.455.272-.817.643-1.086.372-.269.836-.403 1.393-.403.609 0 1.09.156 1.442.47.352.314.528.74.528 1.278v3.631h-.846v-1.008h-.144l.145-.145c0 .385-.151.689-.452.913-.295.224-.688.336-1.182.336zm.212-.682c.41 0 .746-.102 1.008-.307a.956.956 0 00.394-.788v-.75h-1.614c-.288 0-.515.08-.682.24-.166.161-.25.379-.25.654 0 .295.1.528.298.701.205.167.487.25.846.25zm5.69.654c-.558 0-1.016-.119-1.374-.356a1.412 1.412 0 01-.635-.96h.913c.045.16.163.29.356.393.198.103.445.154.74.154h.45c.315 0 .558-.074.73-.221a.71.71 0 00.27-.576c0-.257-.087-.458-.26-.606-.166-.147-.413-.22-.74-.22h-1.162v-.75h1.134c.295 0 .519-.07.672-.211a.72.72 0 00.231-.557.728.728 0 00-.106-.404.61.61 0 00-.297-.25 1.241 1.241 0 00-.49-.086h-.48c-.257 0-.478.058-.664.173-.185.115-.297.256-.336.422h-.913c.065-.397.273-.723.625-.98.352-.256.781-.384 1.287-.384h.48c.378 0 .702.061.97.183.27.115.475.282.616.5.147.217.22.477.22.778 0 .313-.102.573-.307.778-.205.198-.493.31-.864.336v.038c.454.032.784.154.99.365.204.212.307.516.307.913 0 .468-.173.839-.52 1.114-.345.276-.81.413-1.392.413h-.452zm5.939.01c-.423 0-.788-.081-1.095-.241a1.743 1.743 0 01-.72-.692c-.167-.307-.25-.669-.25-1.085V94.73c0-.423.083-.785.25-1.086.172-.3.412-.531.72-.691.307-.16.672-.24 1.095-.24.422 0 .788.08 1.095.24.307.16.544.39.71.691.174.301.26.66.26 1.076v1.413c0 .416-.086.778-.26 1.085a1.683 1.683 0 01-.71.692c-.307.16-.673.24-1.095.24zm0-.77c.378 0 .672-.105.884-.317.21-.21.317-.521.317-.931V94.73c0-.41-.106-.72-.317-.932-.212-.211-.506-.317-.884-.317-.372 0-.666.106-.884.317-.211.212-.317.522-.317.932v1.403c0 .41.106.72.317.931.218.212.512.318.884.318zm3.71.692V92.79h2.287c.55 0 .977.124 1.278.374.3.244.451.586.451 1.028 0 .365-.125.66-.375.884-.25.218-.58.327-.99.327v-.077c.45 0 .808.112 1.077.336.275.224.413.525.413.903 0 .474-.16.845-.48 1.114-.32.263-.769.394-1.345.394h-2.316zm.846-.759h1.47c.307 0 .544-.067.71-.201a.679.679 0 00.26-.567c0-.25-.087-.442-.26-.577-.166-.134-.403-.201-.71-.201h-1.47v1.546zm0-2.296h1.44c.27 0 .481-.064.635-.192.16-.128.24-.307.24-.538 0-.23-.077-.41-.23-.538-.154-.134-.369-.201-.644-.201h-1.441v1.47zm10.534 3.055V92.79h.826v2.882c0 .185-.007.38-.02.586-.006.205-.018.4-.038.586a6.233 6.233 0 01-.048.46l2.133-4.514h1.105v5.283h-.827v-2.882c0-.186.004-.38.01-.586.013-.205.029-.4.048-.586l.048-.47-2.133 4.524h-1.104zm12.186 1.73l.778-2.056-1.96-4.957h.961l1.23 3.266c.044.109.086.24.125.394l.096.374c.025-.102.057-.227.096-.374.038-.154.077-.285.115-.394l1.153-3.266h.932l-2.604 7.012h-.922zm4.883-1.73V92.79h3.958v5.283h-.865v-4.496H77.96v4.496h-.864zm5.67 1.73V92.79h.865v1.008h.173L83.63 94c0-.403.131-.72.394-.951.269-.237.62-.356 1.056-.356.532 0 .955.177 1.268.529.32.346.48.823.48 1.431V96.2c0 .403-.073.752-.22 1.047a1.57 1.57 0 01-.605.682c-.257.16-.564.24-.923.24-.429 0-.778-.118-1.047-.355-.269-.237-.403-.554-.403-.951l.173.201h-.192l.019 1.201v1.537h-.865zm2.027-2.383c.365 0 .65-.109.855-.327.212-.217.317-.531.317-.941V94.71c0-.41-.106-.724-.317-.942-.205-.217-.49-.326-.855-.326-.352 0-.634.112-.845.336-.212.224-.317.535-.317.932v1.44c0 .398.105.709.317.933.211.224.493.336.845.336zm5.2.75c-.557 0-.996-.142-1.316-.423-.32-.289-.48-.676-.48-1.163 0-.493.16-.88.48-1.162.32-.282.752-.423 1.297-.423h1.633v-.528c0-.327-.1-.577-.298-.75-.192-.179-.468-.269-.826-.269-.314 0-.577.068-.788.202a.718.718 0 00-.365.529h-.865c.058-.455.273-.817.644-1.086.372-.269.836-.403 1.393-.403.608 0 1.089.156 1.441.47.352.314.528.74.528 1.278v3.631h-.845v-1.008h-.144l.144-.145c0 .385-.15.689-.452.913-.294.224-.688.336-1.181.336zm.211-.683c.41 0 .746-.102 1.009-.307a.956.956 0 00.394-.788v-.75h-1.614c-.288 0-.516.08-.682.24-.167.161-.25.379-.25.654 0 .295.1.528.298.701.205.167.487.25.845.25zm3.96.586V92.79h2.287c.55 0 .977.124 1.278.374.3.244.451.586.451 1.028 0 .365-.125.66-.374.884-.25.218-.58.327-.99.327v-.077c.448 0 .807.112 1.076.336.276.224.413.525.413.903 0 .474-.16.845-.48 1.114-.32.263-.769.394-1.345.394h-2.315zm.846-.759h1.47c.307 0 .544-.067.71-.201.174-.135.26-.324.26-.567 0-.25-.086-.442-.26-.577-.166-.134-.403-.201-.71-.201h-1.47v1.546zm0-2.296h1.441c.269 0 .48-.064.634-.192.16-.128.24-.307.24-.538 0-.23-.077-.41-.23-.538-.154-.134-.369-.201-.644-.201H95.01v1.47zm4.181 3.123v-.808h.173c.295 0 .5-.115.615-.345.122-.23.186-.644.192-1.24l.058-2.959h3.583v5.284h-.864v-4.496h-1.864l-.048 2.21c-.013.557-.077 1.008-.192 1.354-.109.346-.282.6-.519.76-.231.16-.535.24-.913.24h-.22zm8.332.028c-.416 0-.781-.083-1.095-.25a1.805 1.805 0 01-.721-.7 2.21 2.21 0 01-.25-1.067V94.71c0-.41.084-.766.25-1.067.173-.3.413-.534.721-.7.314-.167.679-.25 1.095-.25.416 0 .778.083 1.086.25.313.166.553.4.72.7.173.301.259.657.259 1.067v.932h-3.285v.509c0 .416.106.736.317.96.211.218.512.327.903.327.333 0 .602-.057.807-.173a.764.764 0 00.375-.538h.864a1.469 1.469 0 01-.653 1.057c-.372.256-.836.384-1.393.384zm1.22-3.103v-.355c0-.416-.106-.737-.317-.96-.205-.225-.506-.337-.903-.337-.391 0-.692.112-.903.336-.211.224-.317.545-.317.96v.28h2.507l-.067.076zm2.491 3.007V92.79h.864v2.2h2.229v-2.2h.865v5.283h-.865v-2.296h-2.229v2.296h-.864zm5.689 0V92.79h.826v2.882c0 .185-.006.38-.019.586-.006.205-.019.4-.038.586a6.233 6.233 0 01-.048.46l2.132-4.514h1.105v5.283h-.826v-2.882c0-.186.003-.38.01-.586.012-.205.028-.4.048-.586l.048-.47-2.133 4.524h-1.105zm5.363 0l1.355-2.036c-.404-.097-.717-.282-.942-.558-.217-.275-.326-.618-.326-1.028 0-.518.169-.925.509-1.22.346-.294.816-.441 1.412-.441h2.277v5.283h-.865v-1.97h-1.162l-1.249 1.97h-1.009zm2.008-2.738h1.412v-1.777h-1.412c-.32 0-.573.08-.759.24-.186.154-.278.372-.278.653 0 .276.092.494.278.654.186.153.439.23.759.23zM14.538 118.073v-5.283h.865v2.18h.903l1.537-2.18h.99l-1.778 2.517 1.806 2.766h-1.008l-1.538-2.353h-.912v2.353h-.865zm4.998.067v-.806h.173c.295 0 .5-.116.615-.346.122-.231.186-.644.192-1.24l.058-2.958h3.583v5.283h-.864v-4.496h-1.864l-.048 2.21c-.013.557-.077 1.009-.192 1.354-.11.346-.282.599-.52.759-.23.16-.534.24-.912.24h-.22zm6.353-.067v-5.283h.826v2.882c0 .185-.006.381-.02.586-.006.205-.018.4-.038.586a6.11 6.11 0 01-.048.461l2.133-4.515h1.105v5.283h-.826v-2.882c0-.186.003-.381.01-.586.012-.205.028-.4.047-.586l.048-.471-2.132 4.525h-1.105zm7.668.096c-.416 0-.78-.083-1.095-.249a1.812 1.812 0 01-.72-.702 2.202 2.202 0 01-.25-1.066v-1.441c0-.41.083-.765.25-1.066.173-.301.413-.535.72-.702.314-.166.68-.25 1.095-.25.417 0 .779.084 1.086.25.314.167.554.401.72.702.173.301.26.656.26 1.066v.932h-3.286v.509c0 .416.106.736.317.961.212.217.513.326.903.326.334 0 .602-.057.807-.173a.762.762 0 00.375-.538h.865a1.473 1.473 0 01-.654 1.057c-.371.256-.835.384-1.393.384zm1.22-3.103v-.355c0-.416-.105-.737-.316-.961-.206-.224-.506-.336-.904-.336-.39 0-.691.112-.903.336-.211.224-.317.545-.317.961v.278h2.508l-.067.077zm2.491 3.007v-5.283h.865v2.199h2.228v-2.199h.865v5.283h-.864v-2.296h-2.23v2.296h-.864zm7.236 0v-4.525h-1.92v-.758h4.706v.758h-1.92v4.525h-.865zm6.142.096c-.423 0-.794-.08-1.115-.24a1.73 1.73 0 01-.73-.692c-.173-.307-.26-.669-.26-1.085v-1.441c0-.423.087-.785.26-1.086.173-.301.416-.531.73-.691.32-.16.692-.241 1.115-.241.608 0 1.098.164 1.47.49.37.327.566.772.586 1.336h-.865c-.02-.34-.135-.599-.346-.778-.205-.186-.487-.279-.845-.279-.378 0-.68.109-.903.327-.225.211-.337.515-.337.912v1.451c0 .397.112.704.337.922.224.218.525.327.903.327.358 0 .64-.093.845-.279.211-.186.327-.445.346-.778h.864c-.019.564-.214 1.009-.586 1.335-.371.327-.861.49-1.47.49zm3.72-.096v-5.283h.864v2.18h.904l1.537-2.18h.99l-1.778 2.517 1.806 2.766H57.68l-1.537-2.353h-.913v2.353h-.864zm7.64.077c-.423 0-.788-.08-1.096-.24a1.744 1.744 0 01-.72-.692c-.166-.307-.25-.669-.25-1.085v-1.403c0-.423.084-.784.25-1.085.173-.301.413-.532.72-.692.308-.16.673-.24 1.096-.24.422 0 .788.08 1.095.24.307.16.544.391.71.692.174.301.26.659.26 1.075v1.413c0 .416-.086.778-.26 1.085a1.683 1.683 0 01-.71.692c-.307.16-.673.24-1.095.24zm0-.768c.378 0 .672-.106.883-.317.212-.212.317-.522.317-.932v-1.403c0-.41-.105-.72-.317-.932-.21-.211-.505-.317-.883-.317-.372 0-.666.106-.884.317-.212.212-.317.522-.317.932v1.403c0 .41.105.72.317.932.218.211.512.317.884.317zm3.71.691v-5.283h.827v2.882c0 .185-.007.381-.02.586a8.2 8.2 0 01-.038.586 6.11 6.11 0 01-.048.461l2.133-4.515h1.104v5.283h-.826v-2.882c0-.186.003-.381.01-.586.013-.205.029-.4.048-.586l.048-.471-2.133 4.525h-1.105zm2.018-6.148c-.461 0-.833-.128-1.115-.384-.281-.257-.422-.593-.422-1.009h.682c0 .25.077.451.23.605.154.154.359.231.615.231.263 0 .47-.077.625-.231a.8.8 0 00.24-.605h.682c0 .416-.141.752-.423 1.009-.282.256-.653.384-1.114.384zm11.34 6.244c-.62 0-1.114-.182-1.479-.547-.358-.372-.538-.878-.538-1.518v-2.402c0-.845.212-1.495.634-1.95.423-.461 1.028-.692 1.816-.692h1.345v.865h-1.345c-.519 0-.913.154-1.182.461-.269.301-.403.74-.403 1.316v.625h.134l-.134.192c.006-.378.134-.673.384-.884.25-.211.59-.317 1.018-.317.558 0 .99.179 1.297.538.314.359.471.852.471 1.479v.769c0 .429-.08.797-.24 1.105-.16.307-.39.544-.692.711-.3.166-.663.249-1.085.249zm0-.768c.372 0 .657-.112.856-.336.198-.225.297-.545.297-.961v-.769c0-.416-.099-.736-.297-.96-.199-.225-.484-.337-.855-.337-.372 0-.657.112-.855.337-.199.217-.298.538-.298.96v.769c0 .416.1.736.298.961.198.224.483.336.855.336zm5.23.768c-.558 0-.997-.141-1.317-.422-.32-.289-.48-.676-.48-1.163 0-.493.16-.88.48-1.162.32-.282.753-.423 1.297-.423h1.633v-.528c0-.327-.1-.577-.298-.75-.192-.179-.467-.269-.826-.269-.314 0-.576.068-.788.202a.717.717 0 00-.365.529h-.864c.057-.455.272-.817.643-1.086.372-.269.836-.404 1.393-.404.609 0 1.09.157 1.441.471.353.314.529.74.529 1.278v3.631h-.846v-1.008h-.144l.144-.145c0 .385-.15.689-.451.913-.295.224-.689.336-1.182.336zm.21-.682c.41 0 .747-.102 1.01-.307a.957.957 0 00.393-.788v-.749h-1.614c-.288 0-.515.08-.682.24-.166.16-.25.378-.25.653 0 .295.1.529.298.701.205.167.487.25.846.25zm5.69.653c-.557 0-1.015-.118-1.374-.355a1.412 1.412 0 01-.634-.961h.913c.045.16.163.292.356.394.198.103.445.154.74.154h.45c.314 0 .558-.074.73-.221a.709.709 0 00.27-.576c0-.257-.087-.458-.26-.606-.166-.147-.413-.221-.74-.221h-1.162v-.749h1.134c.294 0 .519-.07.672-.211a.72.72 0 00.23-.557.728.728 0 00-.105-.404.613.613 0 00-.298-.25 1.254 1.254 0 00-.49-.086h-.48c-.256 0-.477.057-.663.173-.185.115-.297.256-.336.422h-.913c.064-.397.273-.723.625-.979.352-.257.781-.385 1.287-.385h.48c.378 0 .702.061.97.183.27.115.475.282.616.499.147.218.22.478.22.779 0 .313-.102.573-.307.778-.205.198-.493.31-.864.336v.038c.454.032.784.154.99.365.204.212.306.516.306.913 0 .468-.172.839-.518 1.114-.346.276-.81.413-1.393.413h-.452zm5.94.01c-.423 0-.788-.08-1.096-.24a1.744 1.744 0 01-.72-.692c-.167-.307-.25-.669-.25-1.085v-1.403c0-.423.083-.784.25-1.085.173-.301.413-.532.72-.692.308-.16.673-.24 1.096-.24.422 0 .787.08 1.095.24.307.16.544.391.71.692.174.301.26.659.26 1.075v1.413c0 .416-.086.778-.26 1.085a1.683 1.683 0 01-.71.692c-.308.16-.673.24-1.095.24zm0-.768c.377 0 .672-.106.883-.317.212-.212.317-.522.317-.932v-1.403c0-.41-.105-.72-.316-.932-.212-.211-.507-.317-.884-.317-.372 0-.666.106-.884.317-.212.212-.317.522-.317.932v1.403c0 .41.106.72.317.932.218.211.512.317.884.317zm3.71.691v-5.283h.826v2.882c0 .185-.006.381-.019.586-.006.205-.019.4-.038.586a6.326 6.326 0 01-.048.461l2.132-4.515h1.105v5.283h-.826v-2.882c0-.186.003-.381.01-.586.013-.205.029-.4.048-.586l.048-.471-2.133 4.525h-1.105zm2.018-6.148c-.461 0-.833-.128-1.115-.384-.281-.257-.422-.593-.422-1.009h.682c0 .25.077.451.23.605.154.154.359.231.615.231.263 0 .471-.077.625-.231a.8.8 0 00.24-.605h.682c0 .416-.141.752-.423 1.009-.282.256-.653.384-1.114.384zm5.651 6.244c-.243 0-.439-.07-.586-.211-.141-.141-.211-.33-.211-.567 0-.25.07-.448.211-.595.147-.148.343-.221.586-.221.243 0 .435.073.576.221.148.147.221.345.221.595 0 .237-.073.426-.221.567-.141.141-.333.211-.576.211z" fill="#000"/><path d="M16.274 24.096c-.448 0-.842-.083-1.182-.25a1.923 1.923 0 01-.778-.72c-.18-.314-.269-.682-.269-1.105v-3.055c0-.429.09-.797.27-1.105.185-.307.444-.544.777-.71.34-.174.734-.26 1.182-.26.455 0 .845.087 1.172.26.333.166.592.403.778.71.186.308.279.676.279 1.105h-1.21c0-.333-.09-.586-.27-.759-.173-.173-.422-.26-.749-.26s-.58.087-.759.26c-.18.173-.269.423-.269.75v3.064c0 .327.09.58.269.759.18.173.432.26.759.26s.576-.087.75-.26c.179-.18.268-.432.268-.759h1.21c0 .416-.092.781-.278 1.095a1.903 1.903 0 01-.778.73c-.327.167-.717.25-1.172.25zM19.783 24v-5.284h2.344c.608 0 1.085.128 1.431.385.353.25.529.595.529 1.037 0 .359-.138.647-.413.865-.27.217-.628.326-1.076.326v-.086c.486 0 .877.115 1.172.346.294.224.442.525.442.903 0 .467-.18.835-.538 1.104-.353.27-.84.404-1.46.404h-2.431zm1.181-.913h1.211c.269 0 .48-.06.634-.182a.593.593 0 00.23-.49.613.613 0 00-.23-.51c-.154-.121-.365-.182-.634-.182h-1.21v1.364zm0-2.17h1.173c.236 0 .425-.058.566-.174a.576.576 0 00.212-.47.576.576 0 00-.212-.471c-.134-.122-.323-.183-.566-.183h-1.172v1.297zM25.253 24l1.239-1.931a1.648 1.648 0 01-.855-.586 1.61 1.61 0 01-.308-.99c0-.557.186-.992.558-1.306.371-.314.884-.47 1.537-.47h2.325V24h-1.192v-1.797h-.855L26.625 24h-1.373zm2.219-2.757h1.085v-1.537h-1.085c-.295 0-.525.067-.692.201-.166.135-.25.327-.25.577 0 .237.084.423.25.557.167.135.397.202.692.202zm5.574 2.824c-.576 0-1.053-.131-1.431-.394a1.621 1.621 0 01-.682-1.095h1.2a.645.645 0 00.308.375c.166.09.368.134.605.134h.51c.25 0 .444-.057.585-.173a.592.592 0 00.221-.48.586.586 0 00-.211-.48c-.141-.116-.34-.173-.596-.173h-1.21v-.96h1.162c.237 0 .42-.055.548-.164a.55.55 0 00.192-.442.524.524 0 00-.336-.519 1.06 1.06 0 00-.404-.067h-.451a1.1 1.1 0 00-.577.144.613.613 0 00-.288.384h-1.2c.076-.454.3-.82.672-1.095.371-.275.836-.413 1.393-.413h.451c.404 0 .75.06 1.038.183.294.115.522.281.682.5.16.21.24.467.24.768 0 .333-.122.605-.365.816-.243.212-.567.324-.97.337v-.039c.46.013.82.135 1.076.365.256.224.384.535.384.932 0 .474-.186.852-.557 1.134-.365.281-.858.422-1.48.422h-.509zM36.89 24v-5.284h1.201v2.075h.788l1.287-2.075h1.345l-1.595 2.556L41.54 24h-1.374l-1.287-2.19h-.788V24h-1.2zm7.208.096c-.545 0-.974-.144-1.288-.432-.313-.288-.47-.676-.47-1.163 0-.518.173-.919.518-1.2.346-.282.836-.423 1.47-.423h1.316v-.452c0-.256-.083-.454-.25-.595-.166-.148-.393-.221-.681-.221-.263 0-.48.057-.654.173a.675.675 0 00-.307.47H42.58c.058-.5.282-.896.672-1.19.391-.296.89-.443 1.5-.443.646 0 1.155.163 1.526.49.378.32.567.756.567 1.307V24h-1.162v-.922h-.192l.192-.26c0 .391-.144.702-.432.932-.289.23-.673.346-1.153.346zm.394-.903c.34 0 .614-.086.826-.26a.82.82 0 00.327-.672v-.643h-1.297c-.244 0-.44.07-.586.21a.736.736 0 00-.221.558c0 .25.083.448.25.596.172.14.406.211.7.211zm11.59.903c-.448 0-.842-.083-1.181-.25a1.923 1.923 0 01-.778-.72c-.186-.314-.279-.682-.279-1.105v-1.326c0-.429.093-.797.279-1.105.185-.307.445-.544.778-.71.34-.173.733-.26 1.181-.26.666 0 1.198.173 1.595.519.397.34.605.804.624 1.393h-1.2c-.02-.275-.119-.487-.298-.634-.173-.154-.413-.23-.72-.23-.32 0-.574.089-.76.268-.185.173-.278.423-.278.75v1.335c0 .327.093.58.278.759.186.18.44.269.76.269.307 0 .547-.074.72-.221.18-.154.278-.368.298-.644h1.2c-.019.59-.227 1.057-.624 1.403-.397.34-.929.51-1.595.51zm11.399 0c-.448 0-.842-.083-1.182-.25a1.923 1.923 0 01-.778-.72c-.18-.314-.269-.682-.269-1.105v-3.055c0-.429.09-.797.27-1.105.185-.307.444-.544.777-.71.34-.174.733-.26 1.182-.26.455 0 .845.087 1.172.26.333.166.592.403.778.71.186.308.279.676.279 1.105H68.5c0-.333-.09-.586-.27-.759-.173-.173-.422-.26-.75-.26-.326 0-.579.087-.758.26-.18.173-.27.423-.27.75v3.064c0 .327.09.58.27.759.18.173.432.26.759.26s.576-.087.75-.26c.178-.18.268-.432.268-.759h1.21c0 .416-.092.781-.278 1.095a1.903 1.903 0 01-.778.73c-.327.167-.717.25-1.172.25zm3.5-.096v-7.013h2.218c.468 0 .871.087 1.21.26.347.172.616.416.808.73.192.307.288.672.288 1.095 0 .46-.118.868-.355 1.22a1.887 1.887 0 01-.942.75L75.601 24h-1.345l-1.22-2.786h-.855V24h-1.2zm1.2-3.843h1.018c.34 0 .606-.093.798-.278.192-.186.288-.442.288-.769 0-.333-.096-.592-.288-.778-.192-.192-.458-.288-.798-.288h-1.018v2.113zM76.478 24v-7.013H77.9l.682 2.229a9.16 9.16 0 01.259 1.018c.013-.083.042-.218.086-.403.045-.186.1-.391.164-.615l.653-2.229h1.422V24h-1.124v-2.18c0-.321.01-.67.029-1.048.019-.378.041-.756.067-1.133.025-.378.054-.737.086-1.076.039-.34.07-.638.096-.894l-.941 3.314h-1.095l-.97-3.314a35.095 35.095 0 01.182 1.921c.032.372.058.75.077 1.134.02.384.029.75.029 1.095V24h-1.124zm8.033-3.766c-.269 0-.486-.074-.653-.22a.777.777 0 01-.24-.587c0-.243.08-.439.24-.586.167-.147.384-.22.653-.22.27 0 .484.073.644.22.167.147.25.343.25.586a.762.762 0 01-.25.586c-.16.147-.375.221-.644.221zm0 3.862c-.269 0-.486-.074-.653-.22a.758.758 0 01-.24-.587c0-.243.08-.439.24-.586.167-.147.384-.22.653-.22.27 0 .484.073.644.22.167.147.25.343.25.586a.744.744 0 01-.25.586c-.16.147-.375.221-.644.221z" fill="#fff"/><defs><filter id="filter0_d_2004_77" x=".157" y="0" width="179.646" height="178.685" filterUnits="userSpaceOnUse" color-interpolation-filters="sRGB"><feFlood flood-opacity="0" result="BackgroundImageFix"/><feColorMatrix in="SourceAlpha" values="0 0 0 0 0 0 0 0 0 0 0 0 0 0 0 0 0 0 127 0" result="hardAlpha"/><feOffset dy="3.843"/><feGaussianBlur stdDeviation="1.921"/><feComposite in2="hardAlpha" operator="out"/><feColorMatrix values="0 0 0 0 0 0 0 0 0 0 0 0 0 0 0 0 0 0 0.25 0"/><feBlend in2="BackgroundImageFix" result="effect1_dropShadow_2004_77"/><feBlend in="SourceGraphic" in2="effect1_dropShadow_2004_77" result="shape"/></filter></defs></svg>