<svg width="180" height="197" fill="none" xmlns="http://www.w3.org/2000/svg"><g filter="url(#filter0_d_2004_78)"><rect x="4" width="172" height="189" rx="16.011" fill="#174756"/></g><mask id="a" style="mask-type:alpha" maskUnits="userSpaceOnUse" x="4" y="0" width="172" height="43"><path fill="#C9D9CD" d="M4 0h171.961v42.27H4z"/></mask><g mask="url(#a)"><rect x="4" y="-1.69" width="171.961" height="118.355" rx="16.011" fill="#E1EEE4"/></g><path d="M19.337 58.68a1.12 1.12 0 01-.826-.327 1.12 1.12 0 01-.327-.826 1.12 1.12 0 011.153-1.153c.34 0 .615.11.826.327.218.211.327.487.327.826 0 .333-.109.609-.327.826-.211.218-.486.327-.826.327zm8.177 2.354v-6.235h-1.922v-.788H30.3v.788h-1.922v6.235h-.864zm6.122.096a2.31 2.31 0 01-1.096-.25 1.807 1.807 0 01-.72-.701 2.204 2.204 0 01-.25-1.067v-1.44c0-.41.083-.766.25-1.067.173-.301.413-.535.72-.701.314-.167.68-.25 1.096-.25.416 0 .778.083 1.085.25.314.166.554.4.72.701.174.301.26.656.26 1.066v.932h-3.285v.51c0 .416.105.736.317.96.21.218.512.327.903.327.333 0 .602-.058.806-.173a.763.763 0 00.375-.538h.865a1.472 1.472 0 01-.653 1.056c-.372.257-.836.385-1.393.385zm1.22-3.103v-.356c0-.416-.106-.736-.317-.96-.205-.224-.506-.337-.903-.337-.391 0-.692.112-.904.337-.21.224-.316.544-.316.96v.279h2.507l-.067.077zm4.488 3.103a2.46 2.46 0 01-1.114-.24 1.73 1.73 0 01-.73-.692c-.173-.307-.26-.67-.26-1.086v-1.44c0-.423.087-.785.26-1.086a1.73 1.73 0 01.73-.692c.32-.16.692-.24 1.114-.24.609 0 1.099.163 1.47.49.372.327.567.772.586 1.335h-.864c-.02-.34-.135-.599-.346-.778-.205-.186-.487-.279-.846-.279-.377 0-.678.11-.903.327-.224.211-.336.516-.336.913v1.45c0 .397.112.705.336.923.225.217.526.326.903.326.36 0 .64-.093.846-.278.211-.186.327-.445.346-.779h.864c-.019.564-.214 1.01-.586 1.336-.371.326-.861.49-1.47.49zm5.239-.096v-4.525H42.66v-.759h4.707v.759h-1.92v4.525h-.865zm4.143 0V55.75h.826v2.882c0 .186-.007.381-.02.586-.006.205-.019.4-.038.586a6.1 6.1 0 01-.048.461l2.133-4.515h1.105v5.284h-.827v-2.882c0-.186.004-.381.01-.586.013-.205.029-.4.048-.586l.048-.471-2.133 4.525h-1.104zm5.67 1.729V55.75h.865v1.009h.172l-.172.201c0-.403.13-.72.393-.95.27-.238.622-.356 1.057-.356.532 0 .955.176 1.268.528.32.346.48.823.48 1.432v1.546c0 .404-.073.753-.22 1.048a1.577 1.577 0 01-.605.682c-.257.16-.564.24-.923.24-.429 0-.778-.119-1.047-.356-.269-.237-.403-.554-.403-.95l.172.201h-.192l.02 1.2v1.538h-.865zm2.027-2.383c.365 0 .65-.108.855-.326.211-.218.317-.532.317-.942v-1.44c0-.41-.106-.724-.317-.942-.205-.218-.49-.327-.855-.327-.352 0-.634.112-.845.337-.212.224-.317.534-.317.931v1.441c0 .397.105.708.317.932.211.224.493.336.845.336zm5.66.73c-.422 0-.787-.08-1.094-.24a1.744 1.744 0 01-.72-.691c-.167-.308-.25-.67-.25-1.086V57.69c0-.422.083-.784.25-1.085.172-.301.412-.532.72-.692.307-.16.672-.24 1.095-.24.422 0 .788.08 1.095.24.307.16.544.391.71.692.174.301.26.66.26 1.076v1.412c0 .416-.086.778-.26 1.086a1.683 1.683 0 01-.71.691c-.307.16-.672.24-1.095.24zm0-.768c.379 0 .673-.106.885-.317.211-.211.317-.522.317-.932V57.69c0-.41-.106-.72-.317-.931-.212-.212-.506-.317-.884-.317-.372 0-.666.105-.884.317-.211.211-.317.522-.317.931v1.403c0 .41.106.72.317.932.218.211.512.317.884.317zm3.712.692V55.75h2.286c.55 0 .977.125 1.278.375.3.243.451.586.451 1.028 0 .365-.125.66-.374.883-.25.218-.58.327-.99.327v-.077c.448 0 .807.112 1.076.336.275.225.413.526.413.903 0 .474-.16.846-.48 1.115-.32.262-.769.394-1.345.394h-2.316zm.845-.76h1.47c.307 0 .544-.066.71-.201.174-.135.26-.323.26-.567 0-.25-.086-.442-.26-.576-.166-.135-.403-.202-.71-.202h-1.47v1.547zm0-2.295h1.44c.27 0 .481-.064.635-.192a.652.652 0 00.24-.538c0-.23-.077-.41-.23-.538-.154-.135-.369-.202-.644-.202H66.64v1.47zm6.362 3.15c-.557 0-.996-.14-1.316-.422-.32-.288-.48-.676-.48-1.162 0-.494.16-.881.48-1.163.32-.282.752-.422 1.297-.422h1.633v-.529c0-.326-.1-.576-.298-.75-.192-.178-.467-.268-.826-.268-.314 0-.576.067-.788.202a.718.718 0 00-.365.528h-.864c.057-.455.272-.817.643-1.086.372-.269.836-.403 1.393-.403.609 0 1.089.157 1.441.47.352.314.529.74.529 1.278v3.632h-.846v-1.009h-.144l.144-.144c0 .384-.15.688-.451.913-.295.224-.689.336-1.182.336zm.211-.681c.41 0 .747-.103 1.01-.308a.957.957 0 00.393-.788v-.749h-1.614c-.288 0-.515.08-.682.24-.167.16-.25.378-.25.654 0 .294.1.528.298.7.205.167.487.25.845.25zm3.298.653v-.807h.173c.294 0 .5-.115.615-.346.121-.23.185-.644.192-1.24l.058-2.958h3.583v5.284h-.865v-4.496h-1.864l-.047 2.21c-.013.556-.077 1.008-.193 1.354-.109.346-.281.599-.518.759-.231.16-.535.24-.913.24h-.221zm6.353-.067V55.75h.826v2.882c0 .186-.007.381-.02.586-.006.205-.019.4-.038.586a6.1 6.1 0 01-.048.461l2.133-4.515h1.105v5.284h-.827v-2.882c0-.186.004-.381.01-.586.013-.205.029-.4.048-.586l.048-.471-2.133 4.525h-1.105zm11.379 0V55.75H98.2v5.284h-.865v-4.496h-2.229v4.496h-.864zm5.67 1.729V55.75h.865v1.009h.173l-.173.201c0-.403.131-.72.394-.95.269-.238.621-.356 1.056-.356.532 0 .955.176 1.269.528.32.346.48.823.48 1.432v1.546c0 .404-.074.753-.221 1.048a1.575 1.575 0 01-.605.682c-.256.16-.564.24-.923.24-.429 0-.778-.119-1.047-.356-.269-.237-.403-.554-.403-.95l.173.201h-.192l.019 1.2v1.538h-.865zm2.027-2.383c.365 0 .65-.108.855-.326.212-.218.317-.532.317-.942v-1.44c0-.41-.105-.724-.317-.942-.205-.218-.49-.327-.855-.327-.352 0-.634.112-.845.337-.211.224-.317.534-.317.931v1.441c0 .397.106.708.317.932.211.224.493.336.845.336zm3.682.654V55.75h.826v2.882c0 .186-.006.381-.019.586a8.08 8.08 0 01-.038.586c-.013.18-.029.333-.048.461l2.132-4.515h1.105v5.284h-.826v-2.882c0-.186.003-.381.01-.586.012-.205.028-.4.048-.586l.048-.471-2.133 4.525h-1.105zm5.027.067v-.807h.173c.294 0 .499-.115.615-.346.121-.23.185-.644.192-1.24l.057-2.958h3.584v5.284h-.865v-4.496h-1.864l-.048 2.21c-.012.556-.076 1.008-.192 1.354-.109.346-.282.599-.519.759-.23.16-.534.24-.912.24h-.221zm8.331.01c-.422 0-.787-.08-1.095-.24a1.745 1.745 0 01-.72-.692c-.167-.308-.25-.67-.25-1.086V57.69c0-.422.083-.784.25-1.085.173-.301.413-.532.72-.692.308-.16.673-.24 1.095-.24.423 0 .788.08 1.096.24.307.16.544.391.71.692.173.301.26.66.26 1.076v1.412c0 .416-.087.778-.26 1.086a1.68 1.68 0 01-.71.691c-.308.16-.673.24-1.096.24zm0-.769c.378 0 .673-.106.884-.317.212-.211.317-.522.317-.932V57.69c0-.41-.105-.72-.317-.931-.211-.212-.506-.317-.884-.317-.371 0-.666.105-.883.317-.212.211-.317.522-.317.931v1.403c0 .41.105.72.317.932.217.211.512.317.883.317zm2.981.692l1.153-2.71-1.076-2.574h.836l.922 2.306h.509V55.75h.73v2.306h.49l.951-2.306h.826l-1.076 2.546 1.153 2.738h-.864l-.961-2.402h-.519v2.402h-.73v-2.402h-.519l-.97 2.402h-.855zm8.399.096c-.417 0-.782-.084-1.095-.25a1.806 1.806 0 01-.721-.701 2.21 2.21 0 01-.25-1.067v-1.44c0-.41.084-.766.25-1.067.173-.301.413-.535.721-.701.313-.167.678-.25 1.095-.25.416 0 .778.083 1.085.25.314.166.554.4.721.701.173.301.259.656.259 1.066v.932h-3.285v.51c0 .416.105.736.317.96.211.218.512.327.903.327.333 0 .602-.058.807-.173a.76.76 0 00.374-.538h.865a1.472 1.472 0 01-.653 1.056c-.372.257-.836.385-1.393.385zm1.22-3.103v-.356c0-.416-.106-.736-.317-.96-.205-.224-.506-.337-.903-.337-.391 0-.692.112-.903.337-.212.224-.317.544-.317.96v.279h2.507l-.067.077zm2.49 3.007V55.75h.865v2.2h2.229v-2.2h.864v5.284h-.864v-2.296h-2.229v2.296h-.865zm5.69 0V55.75h.826v2.882c0 .186-.006.381-.019.586a8.08 8.08 0 01-.038.586c-.013.18-.029.333-.048.461l2.132-4.515h1.105v5.284h-.826v-2.882c0-.186.003-.381.009-.586.013-.205.029-.4.048-.586l.049-.471-2.133 4.525h-1.105zm7.669.096c-.417 0-.782-.084-1.095-.25a1.806 1.806 0 01-.721-.701 2.199 2.199 0 01-.25-1.067v-1.44c0-.41.083-.766.25-1.067.173-.301.413-.535.721-.701.313-.167.678-.25 1.095-.25.416 0 .778.083 1.085.25.314.166.554.4.721.701.173.301.259.656.259 1.066v.932h-3.285v.51c0 .416.105.736.317.96.211.218.512.327.903.327.333 0 .602-.058.807-.173a.763.763 0 00.374-.538h.865a1.472 1.472 0 01-.653 1.056c-.372.257-.836.385-1.393.385zm1.22-3.103v-.356c0-.416-.106-.736-.317-.96-.205-.224-.506-.337-.903-.337-.391 0-.692.112-.903.337-.212.224-.317.544-.317.96v.279h2.507l-.067.077zm8.18 3.007V55.75h.865v2.2h2.228v-2.2h.865v5.284h-.865v-2.296h-2.228v2.296h-.865zm7.208.096c-.558 0-.996-.141-1.317-.423-.32-.288-.48-.676-.48-1.162 0-.494.16-.881.48-1.163.321-.282.753-.422 1.297-.422h1.633v-.529c0-.326-.099-.576-.297-.75-.192-.178-.468-.268-.827-.268-.313 0-.576.067-.787.202a.716.716 0 00-.365.528h-.865c.058-.455.272-.817.644-1.086.371-.269.835-.403 1.393-.403.608 0 1.088.157 1.441.47.352.314.528.74.528 1.278v3.632h-.845v-1.009h-.144l.144-.144c0 .384-.151.688-.452.913-.294.224-.688.336-1.181.336zm.211-.682c.41 0 .746-.103 1.009-.308a.957.957 0 00.393-.788v-.749h-1.613c-.289 0-.516.08-.683.24-.166.16-.249.378-.249.654 0 .294.099.528.297.7.205.167.487.25.846.25zm-138.3 21.315V74.75h.864v1.009h.173l-.173.201c0-.403.132-.72.394-.95.27-.238.621-.356 1.057-.356.531 0 .954.176 1.268.528.32.346.48.823.48 1.432v1.546c0 .404-.073.753-.22 1.047a1.57 1.57 0 01-.606.683c-.256.16-.563.24-.922.24-.43 0-.778-.119-1.047-.356-.27-.237-.404-.554-.404-.95l.173.201h-.192l.02 1.2v1.538h-.865zm2.027-2.383c.365 0 .65-.108.855-.326.211-.218.317-.532.317-.942v-1.44c0-.41-.106-.724-.317-.942-.205-.218-.49-.327-.855-.327-.353 0-.634.112-.846.337-.211.224-.317.534-.317.931v1.441c0 .397.106.708.317.932.212.224.493.336.846.336zm5.2.75c-.558 0-.996-.141-1.317-.423-.32-.288-.48-.676-.48-1.162 0-.493.16-.881.48-1.163.32-.282.753-.422 1.297-.422h1.633v-.529c0-.326-.099-.576-.297-.75-.193-.178-.468-.268-.827-.268-.313 0-.576.067-.787.202a.718.718 0 00-.365.528h-.865c.058-.455.272-.817.644-1.086.371-.269.835-.403 1.393-.403.608 0 1.088.157 1.44.47.353.315.529.74.529 1.278v3.632h-.845v-1.009h-.145l.145-.144c0 .384-.15.688-.452.912-.294.225-.688.337-1.181.337zm.21-.682c.41 0 .747-.103 1.01-.308a.957.957 0 00.393-.787v-.75h-1.613c-.289 0-.516.08-.683.24-.166.16-.25.378-.25.654 0 .294.1.528.298.7.205.167.487.25.846.25zm5.69.653c-.557 0-1.015-.118-1.373-.355a1.412 1.412 0 01-.634-.961h.912c.045.16.164.291.356.394.198.102.445.153.74.153h.451c.314 0 .557-.073.73-.22a.71.71 0 00.27-.577c0-.256-.087-.458-.26-.605-.167-.148-.413-.221-.74-.221h-1.162v-.75h1.133c.295 0 .519-.07.673-.21a.72.72 0 00.23-.558.727.727 0 00-.106-.404.61.61 0 00-.297-.25 1.243 1.243 0 00-.49-.086h-.48a1.23 1.23 0 00-.663.173c-.186.116-.298.256-.337.423h-.912c.064-.397.272-.724.624-.98s.782-.384 1.287-.384h.48c.379 0 .702.06.971.182.269.116.474.282.615.5.147.218.22.477.22.778 0 .314-.102.573-.307.778-.205.199-.493.31-.864.336v.039c.454.032.784.153.99.365.204.211.307.515.307.912 0 .468-.173.84-.52 1.115-.345.275-.81.413-1.392.413h-.452zm3.298 0v-.807h.173c.295 0 .5-.115.615-.346.121-.23.185-.643.192-1.24l.058-2.958h3.583v5.284h-.865v-4.496h-1.863l-.048 2.21c-.013.556-.077 1.008-.193 1.354-.108.346-.281.599-.518.759-.23.16-.535.24-.913.24h-.221zm6.353-.067V74.75h.826v2.882c0 .186-.007.381-.02.586-.006.205-.019.4-.038.586a6.1 6.1 0 01-.048.461l2.133-4.515h1.105v5.284h-.827v-2.882c0-.186.004-.381.01-.586.013-.205.029-.4.048-.586l.048-.471-2.133 4.525h-1.104zm8.725 0v-1.922c-.102.026-.26.052-.47.077-.206.02-.424.029-.654.029-.653.006-1.163-.15-1.527-.47-.36-.327-.538-.782-.538-1.365V74.75h.864v1.633c0 .327.109.586.327.778.224.186.531.279.922.279.269 0 .496-.01.682-.029.192-.026.323-.048.394-.067V74.75h.864v5.284h-.864zm2.654 0V74.75h.864v2.2h2.23v-2.2h.864v5.284h-.865v-2.296H60.97v2.296h-.864zm5.41 0V74.75h.808v1.94h.432c.57 0 1.019.151 1.345.452.333.295.5.701.5 1.22s-.167.929-.5 1.23c-.326.294-.775.442-1.345.442h-1.24zm.808-.692h.432c.34 0 .602-.087.788-.26.192-.172.288-.412.288-.72 0-.307-.096-.547-.288-.72-.186-.173-.448-.26-.788-.26h-.432v1.96zm2.901.692V74.75h.807v5.284h-.807zm1.837 0l1.874-2.719-1.758-2.565h1.018l1.047 1.633c.045.07.087.147.125.23l.106.202c.019-.05.048-.118.086-.201.045-.084.09-.16.135-.23l1.056-1.634h1.01L74 77.325l1.864 2.709h-1.018l-1.134-1.73c-.045-.07-.09-.15-.135-.24a2.085 2.085 0 00-.105-.23 3.864 3.864 0 01-.26.47l-1.143 1.73h-1.008zm12.61 1.729l.778-2.056-1.96-4.957h.96l1.23 3.266c.045.11.087.24.125.394l.096.375.096-.375a4.4 4.4 0 01.116-.394l1.152-3.266h.932l-2.603 7.013h-.923zm6.88-1.633a2.46 2.46 0 01-1.114-.24 1.73 1.73 0 01-.73-.692c-.173-.307-.26-.67-.26-1.086v-1.44c0-.423.087-.785.26-1.086a1.73 1.73 0 01.73-.692c.32-.16.692-.24 1.114-.24.609 0 1.099.163 1.47.49.372.326.567.772.586 1.335h-.864c-.02-.34-.135-.599-.346-.778-.205-.186-.487-.278-.846-.278-.377 0-.678.108-.903.326-.224.211-.336.516-.336.913v1.45c0 .397.112.705.336.923.225.217.526.326.903.326.359 0 .64-.093.846-.278.211-.186.326-.445.346-.778h.864c-.019.563-.214 1.008-.586 1.335-.371.326-.861.49-1.47.49zm5.239-.096v-4.525h-1.922v-.759h4.707v.759h-1.92v4.525h-.865zm4.123 1.729V74.75h.865v1.009h.173l-.173.201c0-.403.131-.72.394-.95.269-.238.621-.356 1.056-.356.532 0 .955.176 1.269.528.32.346.48.823.48 1.432v1.546c0 .404-.074.753-.221 1.047a1.575 1.575 0 01-.605.683c-.256.16-.564.24-.923.24-.429 0-.778-.119-1.047-.356-.269-.237-.403-.554-.403-.95l.173.201h-.192l.019 1.2v1.538h-.865zm2.027-2.383c.365 0 .65-.108.855-.326.212-.218.317-.532.317-.942v-1.44c0-.41-.105-.724-.317-.942-.205-.218-.49-.327-.855-.327-.352 0-.634.112-.845.337-.211.224-.317.534-.317.931v1.441c0 .397.106.708.317.932.211.224.493.336.845.336zm5.661.73c-.423 0-.788-.08-1.095-.24a1.748 1.748 0 01-.721-.691c-.166-.308-.249-.67-.249-1.086V76.69c0-.422.083-.784.249-1.085.173-.301.414-.532.721-.692.307-.16.672-.24 1.095-.24.423 0 .788.08 1.095.24.308.16.545.391.711.692.173.301.26.66.26 1.076v1.412c0 .416-.087.778-.26 1.086a1.677 1.677 0 01-.711.691c-.307.16-.672.24-1.095.24zm0-.768c.378 0 .673-.106.884-.317.211-.211.317-.522.317-.932V76.69c0-.41-.106-.72-.317-.931-.211-.212-.506-.317-.884-.317-.371 0-.666.105-.884.317-.211.211-.317.522-.317.931v1.403c0 .41.106.72.317.932.218.211.513.317.884.317zm3.711.692V74.75h.826v2.882c0 .186-.006.381-.019.586-.007.205-.019.4-.039.586-.013.18-.029.333-.048.461l2.133-4.515h1.105v5.284h-.826v-2.882c0-.186.003-.381.009-.586.013-.205.029-.4.048-.586l.048-.471-2.132 4.525h-1.105zm2.017-6.149c-.461 0-.832-.128-1.114-.384-.282-.256-.423-.592-.423-1.009h.682c0 .25.077.452.231.606.153.153.358.23.615.23.262 0 .47-.077.624-.23a.8.8 0 00.24-.606h.682c0 .417-.141.753-.422 1.01-.282.255-.654.383-1.115.383zM119 80.13c-.423 0-.795-.08-1.115-.24a1.73 1.73 0 01-.73-.692c-.173-.307-.259-.67-.259-1.086v-1.44c0-.423.086-.785.259-1.086a1.73 1.73 0 01.73-.692c.32-.16.692-.24 1.115-.24.608 0 1.098.163 1.469.49.372.326.567.772.586 1.335h-.864c-.019-.34-.135-.599-.346-.778-.205-.186-.487-.278-.845-.278-.378 0-.679.108-.903.326-.225.211-.337.516-.337.913v1.45c0 .397.112.705.337.923.224.217.525.326.903.326.358 0 .64-.093.845-.278.211-.186.327-.445.346-.778h.864c-.019.563-.214 1.008-.586 1.335-.371.326-.861.49-1.469.49zm5.238-.096v-4.525h-1.922v-.759h4.708v.759h-1.922v4.525h-.864zm4.143 0V74.75h2.286c.551 0 .977.125 1.278.375.301.243.451.586.451 1.028 0 .365-.125.66-.374.883-.25.218-.58.327-.99.327v-.077c.448 0 .807.112 1.076.336.276.225.413.526.413.903 0 .474-.16.846-.48 1.115-.32.262-.769.394-1.345.394h-2.315zm.845-.76h1.47c.307 0 .544-.067.711-.201.173-.134.259-.323.259-.567 0-.25-.086-.442-.259-.576-.167-.135-.404-.202-.711-.202h-1.47v1.547zm0-2.295h1.441c.269 0 .48-.064.634-.192a.652.652 0 00.24-.538c0-.23-.077-.41-.23-.538-.154-.135-.368-.202-.644-.202h-1.441v1.47zm6.362 3.15c-.557 0-.996-.14-1.316-.422-.32-.288-.48-.676-.48-1.162 0-.493.16-.881.48-1.163.32-.282.753-.422 1.297-.422h1.633v-.529c0-.326-.099-.576-.298-.75-.192-.178-.467-.268-.826-.268-.314 0-.576.067-.788.202a.718.718 0 00-.365.528h-.864c.057-.455.272-.817.643-1.086.372-.269.836-.403 1.393-.403.609 0 1.089.157 1.441.47.353.315.529.74.529 1.278v3.632h-.846v-1.009h-.144l.144-.144c0 .384-.15.688-.451.912-.295.225-.689.337-1.182.337zm.212-.681c.409 0 .746-.103 1.008-.308a.956.956 0 00.394-.787v-.75h-1.614c-.288 0-.515.08-.682.24-.166.16-.25.378-.25.654 0 .294.1.528.298.7.205.167.487.25.846.25zm3.537.586l1.874-2.719-1.758-2.565h1.018l1.047 1.633c.045.07.087.147.125.23l.106.202c.019-.05.048-.118.086-.201.045-.084.09-.16.135-.23l1.056-1.634h1.009l-1.758 2.575 1.864 2.709h-1.019l-1.133-1.73c-.045-.07-.09-.15-.135-.24a2.024 2.024 0 00-.105-.23 3.655 3.655 0 01-.116.23c-.044.09-.093.17-.144.24l-1.143 1.73h-1.009zm11.802 0V74.75h.827v2.882c0 .186-.007.381-.02.586a8.08 8.08 0 01-.038.586c-.013.18-.029.333-.048.461l2.133-4.515h1.104v5.284h-.826v-2.882c0-.186.003-.381.01-.586.013-.205.029-.4.048-.586l.048-.471-2.133 4.525h-1.105zm-125.172 19V93.75h2.286c.551 0 .977.125 1.278.375.301.243.452.586.452 1.028 0 .365-.125.66-.375.883-.25.218-.58.327-.99.327v-.077c.449 0 .807.112 1.076.336.276.225.413.526.413.903 0 .474-.16.846-.48 1.115-.32.262-.768.394-1.345.394h-2.315zm.845-.76h1.47c.308 0 .544-.067.711-.201.173-.134.26-.323.26-.567 0-.25-.087-.442-.26-.576-.166-.135-.403-.202-.71-.202h-1.47v1.547zm0-2.295h1.441c.27 0 .48-.064.634-.192a.652.652 0 00.24-.538c0-.23-.076-.41-.23-.538-.154-.135-.368-.202-.644-.202h-1.44v1.47zm6.824 3.15a2.31 2.31 0 01-1.096-.249 1.807 1.807 0 01-.72-.701 2.204 2.204 0 01-.25-1.067v-1.44c0-.41.083-.766.25-1.067.173-.301.413-.535.72-.701.314-.167.68-.25 1.096-.25.416 0 .778.083 1.085.25.314.166.554.4.72.701.174.301.26.656.26 1.066v.932h-3.285v.51c0 .416.105.736.317.96.21.218.512.327.903.327.333 0 .602-.058.806-.173a.763.763 0 00.375-.538h.865a1.472 1.472 0 01-.653 1.057c-.372.256-.836.384-1.393.384zm1.22-3.102v-.356c0-.416-.106-.736-.317-.96-.205-.224-.506-.337-.903-.337-.391 0-.692.113-.904.337-.21.224-.316.544-.316.96v.279h2.507l-.067.077zm2.471 4.736V93.75h.865v1.009h.173l-.173.201c0-.403.13-.72.394-.95.269-.238.62-.356 1.056-.356.532 0 .954.176 1.268.528.32.346.48.823.48 1.432v1.546c0 .404-.073.753-.22 1.047a1.57 1.57 0 01-.605.683c-.257.16-.564.24-.923.24-.429 0-.778-.119-1.047-.356-.269-.237-.403-.554-.403-.95l.173.201h-.193l.02 1.2v1.538h-.865zm2.027-2.383c.365 0 .65-.108.855-.326.211-.218.317-.532.317-.942v-1.44c0-.41-.106-.724-.317-.942-.205-.218-.49-.327-.855-.327-.352 0-.634.112-.845.337-.212.224-.317.534-.317.931v1.441c0 .397.105.708.317.932.211.224.493.336.845.336zm5.68.75a2.46 2.46 0 01-1.114-.24 1.73 1.73 0 01-.73-.692c-.173-.307-.26-.67-.26-1.086v-1.44c0-.423.087-.785.26-1.086a1.73 1.73 0 01.73-.692c.32-.16.691-.24 1.114-.24.608 0 1.099.163 1.47.49.371.326.567.772.586 1.335h-.865c-.019-.34-.134-.599-.346-.778-.204-.186-.486-.278-.845-.278-.378 0-.679.108-.903.326-.224.211-.336.516-.336.913v1.45c0 .397.112.705.336.923.224.217.525.326.903.326.359 0 .64-.093.846-.278.21-.186.326-.445.345-.778h.865c-.02.563-.215 1.008-.586 1.335-.371.326-.861.49-1.47.49zm3.692-.096V93.75h.826v2.882c0 .186-.007.381-.02.586-.006.205-.019.4-.038.586a6.1 6.1 0 01-.048.461l2.133-4.515h1.105v5.284h-.827v-2.882c0-.186.004-.381.01-.586.013-.205.029-.4.048-.586l.048-.471-2.133 4.525h-1.104zm5.363 0l1.354-2.037c-.403-.096-.717-.282-.941-.557-.218-.275-.327-.618-.327-1.028 0-.519.17-.925.51-1.22.345-.295.816-.442 1.411-.442h2.277v5.284h-.864v-1.97h-1.163l-1.249 1.97H54.09zm2.007-2.738h1.413v-1.778h-1.413c-.32 0-.573.08-.758.24-.186.154-.28.372-.28.654 0 .275.094.493.28.653.185.154.438.23.758.23zm3.586 2.738l1.873-2.719-1.758-2.565h1.019l1.047 1.633c.045.07.086.147.125.23.045.084.08.151.105.202.02-.05.048-.118.087-.201.045-.084.09-.16.134-.23l1.057-1.634h1.009l-1.758 2.575 1.864 2.709h-1.019l-1.133-1.73c-.045-.07-.09-.15-.135-.24a2.085 2.085 0 00-.105-.23 3.864 3.864 0 01-.26.47l-1.143 1.73h-1.009zm13.349 0v-6.235h-1.922v-.788h4.708v.788h-1.921v6.235h-.865zm6.122.096c-.416 0-.782-.084-1.095-.25a1.808 1.808 0 01-.72-.701 2.204 2.204 0 01-.25-1.067v-1.44c0-.41.083-.766.25-1.067.172-.301.412-.535.72-.701.313-.167.678-.25 1.095-.25.416 0 .778.083 1.085.25.314.166.554.4.72.701.174.301.26.656.26 1.066v.932h-3.285v.51c0 .416.105.736.317.96.211.218.512.327.903.327.333 0 .602-.058.807-.173a.763.763 0 00.374-.538h.865a1.471 1.471 0 01-.653 1.057c-.372.256-.836.384-1.393.384zm1.22-3.103v-.356c0-.416-.106-.736-.317-.96-.205-.224-.506-.337-.903-.337-.39 0-.692.113-.903.337-.212.224-.317.544-.317.96v.279h2.507l-.067.077zm5.19 3.007c-.307 0-.576-.061-.807-.183a1.312 1.312 0 01-.538-.519 1.56 1.56 0 01-.192-.787v-4.737h-1.777v-.787h2.642v5.524c0 .217.06.39.182.518a.662.662 0 00.49.183h1.681v.788h-1.681zm4.97.096a2.31 2.31 0 01-1.096-.25 1.808 1.808 0 01-.72-.701 2.204 2.204 0 01-.25-1.067v-1.44c0-.41.083-.766.25-1.067.172-.301.412-.535.72-.701.314-.167.679-.25 1.095-.25.416 0 .778.083 1.086.25.314.166.554.4.72.701.173.301.26.656.26 1.066v.932h-3.286v.51c0 .416.106.736.317.96.211.218.512.327.903.327.333 0 .602-.058.807-.173a.764.764 0 00.375-.538h.864a1.472 1.472 0 01-.653 1.057c-.371.256-.836.384-1.393.384zm1.22-3.103v-.356c0-.416-.106-.736-.318-.96-.205-.224-.506-.337-.903-.337-.39 0-.692.113-.903.337-.211.224-.317.544-.317.96v.279h2.507l-.067.077zm3.133 4.736v-.788h1.682c.269 0 .464-.06.586-.182.128-.122.192-.311.192-.567v-.673l.019-.96h-.173l.163-.144c0 .384-.128.688-.384.912-.256.224-.599.337-1.028.337-.544 0-.973-.177-1.287-.529-.314-.359-.47-.839-.47-1.44v-1.115c0-.602.156-1.08.47-1.432.314-.352.743-.528 1.287-.528.43 0 .772.112 1.028.336.256.224.384.529.384.913l-.163-.144h.163V93.75h.855v5.476c0 .474-.147.848-.441 1.124-.289.275-.692.413-1.211.413h-1.672zm1.317-2.815c.358 0 .64-.112.845-.336.205-.224.307-.535.307-.932v-1.009c0-.397-.102-.707-.307-.931-.205-.225-.487-.337-.845-.337-.365 0-.65.11-.855.327-.199.218-.298.531-.298.941v1.009c0 .41.099.724.298.941.204.218.49.327.855.327zm3.893 1.086V93.75h.845v1.009h.202l-.279.624c0-.57.122-.999.365-1.287.25-.295.618-.442 1.105-.442.557 0 .999.176 1.326.528.333.346.499.817.499 1.412v.318h-.864v-.24c0-.417-.103-.734-.308-.952-.198-.224-.483-.336-.855-.336-.365 0-.653.112-.864.336-.205.224-.308.541-.308.951v3.363h-.864zm7.044.096c-.557 0-.996-.141-1.316-.423-.32-.288-.48-.676-.48-1.162 0-.493.16-.881.48-1.163.32-.282.752-.422 1.297-.422h1.633v-.529c0-.326-.099-.576-.298-.75-.192-.178-.467-.268-.826-.268-.314 0-.576.067-.788.202a.718.718 0 00-.365.528h-.865c.058-.455.273-.817.644-1.086.372-.269.836-.403 1.393-.403.609 0 1.089.157 1.441.47.352.315.529.74.529 1.278v3.632h-.846v-1.009h-.144l.144-.144c0 .384-.15.688-.451.912-.295.225-.689.337-1.182.337zm.211-.682c.41 0 .746-.103 1.009-.308a.956.956 0 00.394-.787v-.75h-1.614c-.288 0-.516.08-.682.24-.167.16-.25.378-.25.654 0 .294.099.528.298.7.205.167.487.25.845.25zm3.692.586V93.75h.759v.634h.173l-.135.23c0-.294.077-.528.231-.7.16-.174.374-.26.643-.26.295 0 .522.109.682.327.161.217.241.525.241.922l-.26-.519h.404l-.183.23c0-.294.08-.528.24-.7a.868.868 0 01.654-.26c.333 0 .589.125.768.375.186.25.279.58.279.99v4.015h-.798v-4.026c0-.217-.048-.387-.144-.509-.089-.121-.224-.182-.403-.182a.511.511 0 00-.413.182c-.096.116-.144.282-.144.5v4.035h-.692v-4.026c0-.224-.051-.393-.154-.509a.495.495 0 00-.413-.182c-.179 0-.314.06-.403.182-.09.116-.135.282-.135.5v4.035h-.797zm7.937.096c-.243 0-.438-.07-.586-.212-.141-.14-.211-.33-.211-.566 0-.25.07-.449.211-.596.148-.147.343-.221.586-.221.244 0 .436.074.577.221.147.147.221.346.221.596 0 .237-.074.425-.221.566-.141.141-.333.212-.577.212zm-99.643 17.55a1.118 1.118 0 01-1.153-1.153 1.119 1.119 0 011.153-1.153c.34 0 .615.109.826.327.218.211.327.487.327.826 0 .333-.109.609-.327.826-.211.218-.486.327-.826.327zm7.562 2.354l.71-1.816-2.065-5.197h.942l1.258 3.429a5.839 5.839 0 01.298 1.057 7.149 7.149 0 01.26-1.057l1.104-3.429h.942l-2.527 7.013h-.922zm6.737.096c-.622 0-1.115-.183-1.48-.548-.358-.371-.538-.877-.538-1.518v-2.401c0-.846.212-1.496.634-1.951.423-.461 1.028-.691 1.816-.691h1.345v.864h-1.345c-.519 0-.913.154-1.182.462-.269.301-.403.739-.403 1.316v.624h.134l-.134.192c.006-.378.134-.672.384-.884.25-.211.59-.317 1.018-.317.558 0 .99.18 1.297.538.314.359.471.852.471 1.48v.768c0 .429-.08.798-.24 1.105-.16.308-.39.544-.692.711-.3.167-.663.25-1.085.25zm0-.769c.371 0 .656-.112.855-.336.198-.224.297-.544.297-.961v-.768c0-.417-.099-.737-.297-.961-.199-.224-.484-.336-.855-.336-.372 0-.657.112-.855.336-.199.218-.298.538-.298.961v.768c0 .417.099.737.298.961.198.224.483.336.855.336zm5.69.769c-.417 0-.782-.083-1.096-.25a1.81 1.81 0 01-.72-.701 2.206 2.206 0 01-.25-1.067v-1.441c0-.41.083-.765.25-1.066.172-.301.413-.535.72-.701.314-.167.679-.25 1.095-.25.416 0 .778.083 1.086.25.314.166.554.4.72.701.173.301.26.656.26 1.066v.932h-3.286v.509c0 .417.106.737.317.961.212.218.513.327.903.327.333 0 .602-.058.807-.173a.764.764 0 00.375-.538h.864a1.47 1.47 0 01-.653 1.056c-.371.257-.836.385-1.393.385zm1.22-3.103v-.356c0-.416-.106-.736-.318-.96-.205-.224-.506-.337-.903-.337-.39 0-.692.113-.903.337-.211.224-.317.544-.317.96v.279h2.508l-.068.077zm1.875 4.352v-2.085h.432c.11-.109.221-.323.337-.644.121-.32.185-.727.192-1.22l.057-2.68h3.45v4.544h.672v2.085h-.769v-1.345H43.19v1.345h-.769zm1.345-2.085h2.258v-3.775h-1.768l-.038 1.93c-.007.506-.061.916-.164 1.23-.102.314-.198.519-.288.615zm4.96.74v-5.284h.826v2.882c0 .186-.007.381-.02.586a8.2 8.2 0 01-.038.586 6.11 6.11 0 01-.048.461l2.133-4.515h1.105v5.284h-.827v-2.882c0-.186.004-.381.01-.586.013-.205.029-.401.048-.586l.048-.471-2.133 4.525h-1.104zm5.026.067v-.807h.173c.295 0 .5-.115.615-.346.122-.23.186-.644.192-1.239l.058-2.959h3.583v5.284h-.864v-4.496h-1.864l-.048 2.209c-.013.557-.077 1.009-.192 1.355-.11.346-.282.599-.52.759-.23.16-.534.24-.912.24h-.22zm6.353-.067v-5.284h.826v2.882c0 .186-.006.381-.02.586a8.2 8.2 0 01-.038.586 6.11 6.11 0 01-.048.461l2.133-4.515h1.105v5.284h-.826v-2.882c0-.186.003-.381.01-.586.012-.205.028-.401.047-.586l.048-.471-2.132 4.525h-1.105zm7.688.096c-.423 0-.794-.08-1.115-.24a1.736 1.736 0 01-.73-.692c-.173-.308-.26-.669-.26-1.086v-1.441c0-.422.087-.784.26-1.085a1.73 1.73 0 01.73-.692c.32-.16.692-.24 1.115-.24.608 0 1.098.163 1.47.49.371.326.566.772.586 1.335h-.865c-.02-.339-.134-.599-.346-.778-.205-.186-.487-.279-.845-.279-.378 0-.68.109-.903.327-.225.211-.337.516-.337.913v1.45c0 .397.112.705.337.923.224.217.525.326.903.326.358 0 .64-.093.845-.278.212-.186.327-.445.346-.779h.865c-.02.564-.215 1.009-.587 1.336-.37.326-.86.49-1.47.49zm3.73-.096v-5.284h.864v1.941h1.556c.596 0 1.064.15 1.403.451.346.295.519.701.519 1.22 0 .512-.173.919-.519 1.22-.346.301-.813.452-1.403.452h-2.42zm.864-.788h1.556c.334 0 .587-.074.76-.221.179-.154.268-.375.268-.663 0-.288-.09-.506-.269-.653-.172-.154-.425-.231-.758-.231h-1.557v1.768zm10.477.788v-5.284h2.286c.55 0 .977.125 1.278.375.3.243.451.586.451 1.028 0 .365-.125.659-.375.883-.25.218-.58.327-.99.327v-.077c.45 0 .808.112 1.077.336.275.225.413.526.413.903 0 .474-.16.846-.48 1.115-.32.262-.769.394-1.345.394h-2.316zm.845-.759h1.47c.307 0 .544-.067.71-.202.174-.134.26-.323.26-.567 0-.25-.087-.442-.26-.576-.166-.135-.403-.202-.71-.202h-1.47v1.547zm0-2.296h1.44c.27 0 .481-.064.635-.192.16-.128.24-.308.24-.538 0-.231-.077-.41-.23-.538-.154-.135-.369-.202-.644-.202h-1.441v1.47zm10.563 3.055v-5.284h.864v2.181h.903l1.537-2.181h.99l-1.777 2.517 1.806 2.767h-1.01l-1.536-2.354h-.913v2.354h-.864zm7.639.077c-.422 0-.787-.081-1.095-.241a1.743 1.743 0 01-.72-.691c-.167-.308-.25-.67-.25-1.086v-1.402c0-.423.083-.785.25-1.086.173-.301.413-.532.72-.692.308-.16.673-.24 1.095-.24.423 0 .788.08 1.096.24.307.16.544.391.711.692.172.301.259.66.259 1.076v1.412c0 .416-.087.778-.259 1.086a1.686 1.686 0 01-.711.691c-.308.16-.673.241-1.096.241zm0-.769c.378 0 .673-.106.884-.317.212-.211.317-.522.317-.932v-1.402c0-.41-.105-.721-.317-.932-.211-.212-.506-.317-.884-.317-.371 0-.666.105-.883.317-.212.211-.317.522-.317.932v1.402c0 .41.105.721.317.932.217.211.512.317.883.317zm3.692 2.421v-7.013h.864v1.009h.173l-.173.201c0-.403.132-.72.394-.951.269-.237.622-.355 1.057-.355.532 0 .954.176 1.268.528.32.346.481.823.481 1.432v1.546c0 .404-.074.753-.221 1.048a1.579 1.579 0 01-.606.682c-.256.16-.563.24-.922.24-.429 0-.778-.119-1.047-.356-.269-.237-.404-.554-.404-.951l.173.202h-.192l.019 1.201v1.537h-.864zm2.027-2.383c.365 0 .65-.108.855-.326.211-.218.317-.532.317-.942v-1.441c0-.41-.106-.723-.317-.941-.205-.218-.49-.327-.855-.327-.352 0-.634.112-.845.336-.212.225-.318.535-.318.932v1.441c0 .397.106.708.318.932.211.224.493.336.845.336zm3.663 2.383v-7.013h.864v1.009h.173l-.173.201c0-.403.131-.72.394-.951.269-.237.621-.355 1.057-.355.531 0 .954.176 1.268.528.32.346.48.823.48 1.432v1.546c0 .404-.073.753-.221 1.048a1.577 1.577 0 01-.605.682c-.256.16-.564.24-.922.24-.429 0-.778-.119-1.047-.356-.269-.237-.404-.554-.404-.951l.173.202h-.192l.019 1.201v1.537h-.864zm2.027-2.383c.365 0 .65-.108.855-.326.211-.218.317-.532.317-.942v-1.441c0-.41-.106-.723-.317-.941-.205-.218-.49-.327-.855-.327-.353 0-.634.112-.846.336-.211.225-.317.535-.317.932v1.441c0 .397.106.708.317.932.212.224.493.336.846.336zm5.66.75c-.416 0-.781-.083-1.095-.25a1.812 1.812 0 01-.72-.701 2.201 2.201 0 01-.25-1.067v-1.441c0-.41.083-.765.25-1.066.173-.301.413-.535.72-.701.314-.167.679-.25 1.095-.25.417 0 .779.083 1.086.25.314.166.554.4.72.701.173.301.26.656.26 1.066v.932h-3.286v.509c0 .417.106.737.317.961.212.218.513.327.903.327.333 0 .602-.058.807-.173a.765.765 0 00.375-.538h.865a1.47 1.47 0 01-.654 1.056c-.371.257-.835.385-1.393.385zm1.22-3.103v-.356c0-.416-.105-.736-.317-.96-.205-.224-.506-.337-.903-.337-.39 0-.691.113-.903.337-.211.224-.317.544-.317.96v.279h2.508l-.068.077zm2.52 3.007v-5.284h.864v2.181h.904l1.537-2.181h.989l-1.777 2.517 1.806 2.767h-1.009l-1.537-2.354h-.913v2.354h-.864zm7.207 0v-4.525h-1.921v-.759h4.707v.759h-1.921v4.525h-.865zm4.143 0v-5.284h.865v2.2h2.229v-2.2h.864v5.284h-.864v-2.296h-2.229v2.296h-.865zm7.669.077c-.423 0-.788-.081-1.095-.241a1.74 1.74 0 01-.721-.691c-.166-.308-.249-.67-.249-1.086v-1.402c0-.423.083-.785.249-1.086.173-.301.413-.532.721-.692.307-.16.672-.24 1.095-.24.423 0 .788.08 1.095.24.308.16.545.391.711.692.173.301.259.66.259 1.076v1.412c0 .416-.086.778-.259 1.086a1.675 1.675 0 01-.711.691c-.307.16-.672.241-1.095.241zm0-.769c.378 0 .672-.106.884-.317.211-.211.317-.522.317-.932v-1.402c0-.41-.106-.721-.317-.932-.212-.212-.506-.317-.884-.317-.371 0-.666.105-.884.317-.211.211-.317.522-.317.932v1.402c0 .41.106.721.317.932.218.211.513.317.884.317zm3.711.692v-5.284h.826v2.882c0 .186-.007.381-.019.586-.007.205-.02.4-.039.586a6.326 6.326 0 01-.048.461l2.133-4.515h1.105v5.284h-.827v-2.882c0-.186.004-.381.01-.586.013-.205.029-.401.048-.586l.048-.471-2.133 4.525h-1.104zm2.017-6.149c-.461 0-.832-.128-1.114-.384-.282-.256-.423-.592-.423-1.009h.682c0 .25.077.452.231.606.153.153.358.23.614.23.263 0 .471-.077.625-.23a.803.803 0 00.24-.606h.682c0 .417-.141.753-.423 1.009-.281.256-.653.384-1.114.384zm-121.52 26.878v-7.013h.865v1.009h.173l-.173.201c0-.403.132-.72.394-.951.27-.237.621-.355 1.057-.355.531 0 .954.176 1.268.528.32.346.48.823.48 1.432v1.546c0 .404-.073.753-.22 1.048a1.585 1.585 0 01-.606.682c-.256.16-.563.24-.922.24-.43 0-.778-.119-1.047-.356-.27-.237-.404-.554-.404-.951l.173.202h-.192l.02 1.201v1.537h-.865zm2.028-2.383c.365 0 .65-.108.855-.326.211-.218.317-.532.317-.942v-1.441c0-.41-.106-.723-.317-.941-.205-.218-.49-.327-.855-.327-.353 0-.634.112-.846.336-.211.225-.317.535-.317.932v1.441c0 .397.106.708.317.932.212.224.493.336.846.336zm5.2.75c-.558 0-.996-.141-1.317-.423-.32-.288-.48-.676-.48-1.162 0-.493.16-.881.48-1.163.32-.282.753-.422 1.297-.422h1.633v-.529c0-.326-.099-.576-.297-.749-.193-.179-.468-.269-.827-.269-.313 0-.576.067-.787.202a.717.717 0 00-.365.528h-.865c.058-.455.272-.817.644-1.086.371-.269.835-.403 1.393-.403.608 0 1.088.157 1.44.471.353.313.529.739.529 1.277v3.632h-.845v-1.009h-.145l.145-.144c0 .384-.15.688-.452.913-.294.224-.688.336-1.181.336zm.21-.682c.41 0 .747-.103 1.01-.308a.955.955 0 00.393-.787v-.75h-1.613c-.289 0-.516.08-.683.24-.166.16-.25.378-.25.654 0 .294.1.528.298.701.205.166.487.25.846.25zm5.94.682c-.621 0-1.114-.183-1.48-.548-.358-.371-.537-.877-.537-1.518v-2.401c0-.846.211-1.496.634-1.951.423-.461 1.028-.691 1.816-.691h1.344v.864h-1.344c-.52 0-.913.154-1.182.462-.27.301-.404.739-.404 1.316v.624h.135l-.135.192c.007-.378.135-.672.385-.884.25-.211.589-.317 1.018-.317.557 0 .99.18 1.297.538.314.359.47.852.47 1.48v.768c0 .429-.08.798-.24 1.105a1.68 1.68 0 01-.691.711c-.301.167-.663.25-1.086.25zm0-.769c.372 0 .657-.112.855-.336.199-.224.298-.544.298-.961v-.768c0-.417-.1-.737-.298-.961-.198-.224-.483-.336-.855-.336-.371 0-.656.112-.855.336-.198.218-.298.538-.298.961v.768c0 .417.1.737.298.961.199.224.484.336.855.336zm5.69.75c-.423 0-.788-.081-1.095-.241a1.741 1.741 0 01-.72-.691c-.167-.308-.25-.67-.25-1.086v-1.402c0-.423.083-.785.25-1.086.172-.301.412-.532.72-.692.307-.16.672-.24 1.095-.24.423 0 .788.08 1.095.24.307.16.544.391.711.692.173.301.26.66.26 1.076v1.412c0 .416-.087.778-.26 1.086a1.682 1.682 0 01-.71.691c-.308.16-.673.241-1.096.241zm0-.769c.378 0 .672-.106.884-.317.211-.211.317-.522.317-.932v-1.402c0-.41-.106-.721-.317-.932-.212-.212-.506-.317-.884-.317-.372 0-.666.105-.884.317-.211.211-.317.522-.317.932v1.402c0 .41.106.721.317.932.218.211.512.317.884.317zm5.257.692v-4.525h-1.921v-.759h4.707v.759h-1.921v4.525h-.865zm6.122.096c-.416 0-.781-.083-1.095-.25a1.81 1.81 0 01-.72-.701 2.207 2.207 0 01-.25-1.067v-1.441c0-.41.083-.765.25-1.066.172-.301.413-.535.72-.701.314-.167.679-.25 1.095-.25.416 0 .778.083 1.086.25.314.166.554.4.72.701.173.301.26.656.26 1.066v.932h-3.286v.509c0 .417.106.737.317.961.212.218.513.327.903.327.333 0 .602-.058.807-.173a.764.764 0 00.375-.538h.864a1.47 1.47 0 01-.653 1.056c-.371.257-.836.385-1.393.385zm1.22-3.103v-.356c0-.416-.105-.736-.317-.96-.205-.224-.506-.337-.903-.337-.39 0-.691.113-.903.337-.211.224-.317.544-.317.96v.279h2.508l-.068.077zm8.18 3.007v-5.284h2.287c.55 0 .977.125 1.278.375.3.243.451.586.451 1.028 0 .365-.125.659-.374.883-.25.218-.58.327-.99.327v-.077c.448 0 .807.112 1.076.336.275.225.413.526.413.903 0 .474-.16.846-.48 1.115-.32.262-.769.394-1.345.394h-2.316zm.846-.759h1.47c.307 0 .544-.067.71-.202.174-.134.26-.323.26-.567 0-.25-.086-.442-.26-.576-.166-.135-.403-.202-.71-.202h-1.47v1.547zm0-2.296h1.44c.27 0 .481-.064.635-.192.16-.128.24-.308.24-.538 0-.231-.077-.41-.23-.538-.154-.135-.369-.202-.644-.202H66.64v1.47zm6.842 3.151c-.422 0-.794-.08-1.114-.24a1.736 1.736 0 01-.73-.692c-.173-.308-.26-.669-.26-1.086v-1.441c0-.422.087-.784.26-1.085a1.73 1.73 0 01.73-.692c.32-.16.692-.24 1.114-.24.609 0 1.099.163 1.47.49.372.326.567.772.586 1.335h-.864c-.02-.339-.135-.599-.346-.778-.205-.186-.487-.279-.846-.279-.377 0-.678.109-.903.327-.224.211-.336.516-.336.913v1.45c0 .397.112.705.336.923.225.217.526.326.903.326.359 0 .64-.093.846-.278.211-.186.326-.445.346-.779h.864c-.019.564-.214 1.009-.586 1.336-.371.326-.861.49-1.47.49zm5.67 0c-.415 0-.78-.083-1.094-.25a1.81 1.81 0 01-.72-.701 2.207 2.207 0 01-.25-1.067v-1.441c0-.41.083-.765.25-1.066.172-.301.412-.535.72-.701.313-.167.678-.25 1.095-.25.416 0 .778.083 1.085.25.314.166.554.4.72.701.174.301.26.656.26 1.066v.932h-3.285v.509c0 .417.105.737.317.961.211.218.512.327.903.327.333 0 .602-.058.807-.173a.764.764 0 00.374-.538h.865a1.469 1.469 0 01-.653 1.056c-.372.257-.836.385-1.393.385zm1.22-3.103v-.356c0-.416-.105-.736-.316-.96-.205-.224-.506-.337-.903-.337-.39 0-.692.113-.903.337-.212.224-.317.544-.317.96v.279h2.507l-.067.077zm2.069 3.007l1.873-2.719-1.758-2.565h1.018l1.047 1.633c.045.071.087.147.125.231.045.083.08.15.106.201a3.14 3.14 0 01.087-.201c.044-.084.09-.16.134-.231l1.057-1.633h1.008l-1.758 2.575 1.864 2.709h-1.018l-1.134-1.73c-.045-.07-.09-.15-.134-.24a2.033 2.033 0 00-.106-.23 4.007 4.007 0 01-.115.23c-.045.09-.093.17-.144.24l-1.144 1.73h-1.008zm13.397 1.729v-1.729c-.615 0-1.099-.173-1.451-.519-.352-.346-.528-.82-.528-1.422v-1.422c0-.595.176-1.063.528-1.402.359-.346.842-.519 1.45-.519v-1.729h.769v1.729c.615 0 1.098.173 1.45.519.353.339.529.807.529 1.402v1.422c0 .602-.176 1.076-.528 1.422-.353.346-.836.519-1.451.519v1.729h-.768zm.019-2.411v-3.92c-.372 0-.663.109-.874.327-.212.217-.318.522-.318.912v1.422c0 .391.106.698.317.922.212.225.503.337.875.337zm.73 0c.378 0 .67-.112.874-.337.211-.224.317-.531.317-.922v-1.422c0-.39-.106-.695-.317-.912-.205-.218-.496-.327-.874-.327v3.92zm4.152 2.411l.779-2.056-1.96-4.957h.96l1.23 3.266c.045.109.087.24.125.394l.096.375.096-.375c.039-.154.077-.285.115-.394l1.153-3.266h.932l-2.603 7.013h-.923zm4.883-1.729v-5.284h.865v2.2h2.228v-2.2h.865v5.284h-.865v-2.296h-2.228v2.296h-.865zm5.719 0v-5.284h.864v2.181h.903l1.537-2.181h.99l-1.777 2.517 1.806 2.767h-1.009l-1.537-2.354h-.913v2.354h-.864zm9.417 1.345v-1.345h-3.757v-5.284h.865v4.515h2.075v-4.515h.865v4.515h.72v2.114h-.768zm1.933-1.345v-5.284h.826v2.882c0 .186-.006.381-.019.586-.006.205-.019.4-.038.586a6.326 6.326 0 01-.048.461l2.132-4.515h1.105v5.284h-.826v-2.882c0-.186.003-.381.009-.586.013-.205.029-.401.048-.586l.049-.471-2.133 4.525h-1.105zm5.69 0v-5.284h.826v2.882c0 .186-.007.381-.019.586-.007.205-.02.4-.039.586a6.326 6.326 0 01-.048.461l2.133-4.515h1.105v5.284h-.826v-2.882c0-.186.003-.381.009-.586.013-.205.029-.401.048-.586l.048-.471-2.133 4.525h-1.104zm2.017-6.149c-.461 0-.832-.128-1.114-.384-.282-.256-.423-.592-.423-1.009h.682c0 .25.077.452.231.606.153.153.358.23.615.23.262 0 .47-.077.624-.23a.803.803 0 00.24-.606h.682c0 .417-.141.753-.422 1.009-.282.256-.654.384-1.115.384zm9.362 6.149v-5.284h.826v2.882c0 .186-.006.381-.019.586-.006.205-.019.4-.038.586a6.326 6.326 0 01-.048.461l2.132-4.515h1.105v5.284h-.826v-2.882c0-.186.003-.381.009-.586.013-.205.029-.401.048-.586l.049-.471-2.133 4.525h-1.105zM27.946 157.13c-.621 0-1.115-.183-1.48-.548-.358-.371-.538-.877-.538-1.518v-2.401c0-.846.212-1.496.634-1.951.423-.461 1.028-.691 1.816-.691h1.345v.864h-1.345c-.518 0-.912.154-1.181.462-.27.301-.404.739-.404 1.316v.624h.135l-.135.192c.006-.378.135-.672.384-.884.25-.211.59-.317 1.019-.317.557 0 .99.18 1.297.538.313.359.47.852.47 1.48v.768c0 .429-.08.798-.24 1.105a1.68 1.68 0 01-.691.711c-.302.167-.663.25-1.086.25zm0-.769c.371 0 .656-.112.855-.336.199-.224.298-.544.298-.961v-.768c0-.417-.1-.737-.298-.961-.199-.224-.484-.336-.855-.336-.372 0-.657.112-.855.336-.199.218-.298.538-.298.961v.768c0 .417.1.737.298.961.198.224.483.336.855.336zm5.69.769c-.417 0-.782-.083-1.096-.25a1.81 1.81 0 01-.72-.701 2.207 2.207 0 01-.25-1.067v-1.441c0-.41.083-.765.25-1.066.173-.301.413-.535.72-.701.314-.167.68-.25 1.096-.25.416 0 .778.083 1.085.25.314.166.554.4.72.701.174.301.26.656.26 1.066v.932h-3.285v.509c0 .417.105.737.317.961.21.218.512.327.903.327.333 0 .602-.058.806-.173a.764.764 0 00.375-.538h.865a1.47 1.47 0 01-.653 1.056c-.372.257-.836.385-1.393.385zm1.22-3.103v-.356c0-.416-.106-.736-.317-.96-.205-.224-.506-.337-.903-.337-.391 0-.692.113-.904.337-.21.224-.316.544-.316.96v.279h2.507l-.067.077zm4.22 3.074c-.558 0-1.016-.119-1.374-.356a1.41 1.41 0 01-.634-.96h.912c.045.16.164.291.356.394.198.102.445.153.74.153h.451c.314 0 .557-.073.73-.221a.71.71 0 00.27-.576c0-.256-.087-.458-.26-.605-.167-.147-.413-.221-.74-.221h-1.162v-.749h1.133c.295 0 .519-.071.673-.212a.72.72 0 00.23-.557.724.724 0 00-.106-.403.607.607 0 00-.297-.25 1.235 1.235 0 00-.49-.087h-.48a1.23 1.23 0 00-.663.173c-.186.115-.298.256-.337.423h-.912c.064-.397.272-.724.624-.98s.782-.384 1.287-.384h.48c.379 0 .702.061.971.182.269.116.474.282.615.5.147.218.22.477.22.778 0 .314-.102.573-.307.778-.205.199-.493.311-.864.336v.039c.454.032.784.153.99.365.204.211.307.515.307.912 0 .468-.173.839-.52 1.115-.345.275-.81.413-1.392.413h-.452zm5.939.01c-.423 0-.788-.081-1.095-.241a1.741 1.741 0 01-.72-.691c-.167-.308-.25-.67-.25-1.086v-1.402c0-.423.083-.785.25-1.086.172-.301.412-.532.72-.692.307-.16.672-.24 1.095-.24.423 0 .788.08 1.095.24.307.16.544.391.711.692.173.301.26.66.26 1.076v1.412c0 .416-.087.778-.26 1.086a1.682 1.682 0 01-.71.691c-.308.16-.673.241-1.096.241zm0-.769c.378 0 .672-.106.884-.317.211-.211.317-.522.317-.932v-1.402c0-.41-.106-.721-.317-.932-.212-.212-.506-.317-.884-.317-.372 0-.666.105-.884.317-.211.211-.317.522-.317.932v1.402c0 .41.106.721.317.932.218.211.512.317.884.317zm3.71.692v-5.284h3.959v5.284h-.865v-4.496H49.59v4.496h-.864zm7.208.096c-.557 0-.996-.141-1.316-.423-.32-.288-.48-.676-.48-1.162 0-.493.16-.881.48-1.163.32-.282.753-.422 1.297-.422h1.633v-.529c0-.326-.1-.576-.298-.749-.192-.179-.467-.269-.826-.269-.314 0-.576.067-.788.202a.717.717 0 00-.365.528h-.864c.057-.455.272-.817.643-1.086.372-.269.836-.403 1.393-.403.609 0 1.089.157 1.441.471.352.313.529.739.529 1.277v3.632h-.846v-1.009h-.144l.144-.144c0 .384-.15.688-.451.913-.295.224-.689.336-1.182.336zm.211-.682c.41 0 .747-.103 1.01-.308a.955.955 0 00.393-.787v-.75h-1.614c-.288 0-.516.08-.682.24-.166.16-.25.378-.25.654 0 .294.1.528.298.701.205.166.487.25.845.25zm5.96.682a2.46 2.46 0 01-1.115-.24 1.736 1.736 0 01-.73-.692c-.173-.308-.26-.669-.26-1.086v-1.441c0-.422.087-.784.26-1.085a1.73 1.73 0 01.73-.692c.32-.16.691-.24 1.114-.24.608 0 1.098.163 1.47.49.371.326.567.772.586 1.335h-.865c-.019-.339-.134-.599-.345-.778-.206-.186-.487-.279-.846-.279-.378 0-.679.109-.903.327-.224.211-.336.516-.336.913v1.45c0 .397.112.705.336.923.224.217.525.326.903.326.359 0 .64-.093.846-.278.21-.186.326-.445.345-.779h.865c-.02.564-.215 1.009-.586 1.336-.372.326-.861.49-1.47.49zm3.69-.096v-5.284h.865v2.2h2.229v-2.2h.864v5.284h-.864v-2.296h-2.229v2.296h-.865zm7.67.077c-.424 0-.789-.081-1.096-.241a1.741 1.741 0 01-.72-.691c-.167-.308-.25-.67-.25-1.086v-1.402c0-.423.083-.785.25-1.086a1.74 1.74 0 01.72-.692c.307-.16.672-.24 1.095-.24.423 0 .788.08 1.095.24.308.16.545.391.711.692.173.301.26.66.26 1.076v1.412c0 .416-.087.778-.26 1.086a1.681 1.681 0 01-.71.691c-.308.16-.673.241-1.096.241zm0-.769c.377 0 .672-.106.883-.317.211-.211.317-.522.317-.932v-1.402c0-.41-.106-.721-.317-.932-.211-.212-.506-.317-.884-.317-.371 0-.666.105-.884.317-.211.211-.317.522-.317.932v1.402c0 .41.106.721.317.932.218.211.513.317.884.317zm5.708.788a2.46 2.46 0 01-1.114-.24 1.737 1.737 0 01-.73-.692c-.173-.308-.26-.669-.26-1.086v-1.441c0-.422.087-.784.26-1.085a1.73 1.73 0 01.73-.692c.32-.16.691-.24 1.114-.24.609 0 1.098.163 1.47.49.371.326.567.772.586 1.335h-.865c-.019-.339-.134-.599-.346-.778-.204-.186-.486-.279-.845-.279-.378 0-.679.109-.903.327-.224.211-.336.516-.336.913v1.45c0 .397.112.705.336.923.224.217.525.326.903.326.359 0 .64-.093.845-.278.212-.186.327-.445.346-.779h.865c-.02.564-.215 1.009-.586 1.336-.372.326-.861.49-1.47.49zm5.238-.096v-4.525h-1.92v-.759h4.707v.759h-1.921v4.525h-.865zm4.143 0v-5.284h.826v2.882c0 .186-.006.381-.019.586a8.2 8.2 0 01-.038.586 6.053 6.053 0 01-.048.461l2.132-4.515h1.105v5.284h-.826v-2.882c0-.186.003-.381.01-.586.012-.205.028-.401.048-.586l.048-.471-2.133 4.525h-1.105zm12.926 0v-4.525h-1.921v-.759h4.707v.759h-1.921v4.525h-.865zm4.124 1.729v-7.013h.864v1.009h.173l-.173.201c0-.403.132-.72.394-.951.269-.237.622-.355 1.057-.355.532 0 .954.176 1.268.528.32.346.481.823.481 1.432v1.546c0 .404-.074.753-.221 1.048a1.579 1.579 0 01-.606.682c-.256.16-.563.24-.922.24-.429 0-.778-.119-1.047-.356-.269-.237-.404-.554-.404-.951l.173.202h-.192l.019 1.201v1.537h-.864zm2.027-2.383c.365 0 .65-.108.855-.326.211-.218.317-.532.317-.942v-1.441c0-.41-.106-.723-.317-.941-.205-.218-.49-.327-.855-.327-.352 0-.634.112-.845.336-.212.225-.318.535-.318.932v1.441c0 .397.106.708.318.932.211.224.493.336.845.336zm5.2.75c-.558 0-.996-.141-1.317-.423-.32-.288-.48-.676-.48-1.162 0-.493.16-.881.48-1.163.321-.282.753-.422 1.297-.422h1.634v-.529c0-.326-.1-.576-.298-.749-.192-.179-.468-.269-.826-.269-.314 0-.577.067-.788.202a.715.715 0 00-.365.528h-.865c.058-.455.272-.817.644-1.086.371-.269.836-.403 1.393-.403.608 0 1.089.157 1.441.471.352.313.528.739.528 1.277v3.632h-.845v-1.009h-.144l.144-.144c0 .384-.151.688-.452.913-.294.224-.688.336-1.181.336zm.211-.682c.41 0 .746-.103 1.009-.308a.957.957 0 00.394-.787v-.75h-1.614c-.289 0-.516.08-.682.24-.167.16-.25.378-.25.654 0 .294.099.528.298.701.205.166.486.25.845.25zm3.96.586v-5.284h.865v2.2h2.229v-2.2h.864v5.284h-.864v-2.296h-2.229v2.296h-.865zm7.419.067c-.557 0-1.015-.119-1.373-.356a1.41 1.41 0 01-.635-.96h.913c.045.16.163.291.356.394.198.102.445.153.739.153h.452c.314 0 .557-.073.73-.221a.71.71 0 00.269-.576c0-.256-.087-.458-.259-.605-.167-.147-.414-.221-.74-.221h-1.163v-.749h1.134c.295 0 .519-.071.672-.212a.718.718 0 00.231-.557.72.72 0 00-.106-.403.607.607 0 00-.297-.25 1.238 1.238 0 00-.49-.087h-.481c-.256 0-.477.058-.663.173-.185.115-.297.256-.336.423h-.913c.065-.397.273-.724.625-.98s.781-.384 1.287-.384h.481c.377 0 .701.061.97.182.269.116.474.282.615.5.147.218.221.477.221.778 0 .314-.103.573-.308.778-.205.199-.493.311-.864.336v.039c.454.032.784.153.989.365.205.211.308.515.308.912 0 .468-.173.839-.519 1.115-.346.275-.81.413-1.393.413h-.452zm5.479.029c-.558 0-.996-.141-1.317-.423-.32-.288-.48-.676-.48-1.162 0-.493.16-.881.48-1.163.321-.282.753-.422 1.297-.422h1.634v-.529c0-.326-.1-.576-.298-.749-.192-.179-.468-.269-.826-.269-.314 0-.577.067-.788.202a.715.715 0 00-.365.528h-.865c.058-.455.272-.817.644-1.086.371-.269.836-.403 1.393-.403.608 0 1.089.157 1.441.471.352.313.528.739.528 1.277v3.632h-.845v-1.009h-.144l.144-.144c0 .384-.151.688-.452.913-.294.224-.688.336-1.181.336zm.211-.682c.41 0 .746-.103 1.009-.308a.957.957 0 00.394-.787v-.75h-1.614c-.289 0-.516.08-.682.24-.167.16-.25.378-.25.654 0 .294.099.528.298.701.204.166.486.25.845.25zm3.989.586v-5.284h.865v2.181h.903l1.537-2.181h.989l-1.777 2.517 1.806 2.767h-1.008l-1.538-2.354h-.912v2.354h-.865zm9.417 1.345v-1.345h-3.756v-5.284h.865v4.515h2.075v-4.515h.864v4.515h.721v2.114h-.769zm1.934-1.345v-5.284h.826v2.882c0 .186-.007.381-.019.586-.007.205-.02.4-.039.586a6.326 6.326 0 01-.048.461l2.133-4.515h1.105v5.284h-.827v-2.882c0-.186.004-.381.01-.586.013-.205.029-.401.048-.586l.048-.471-2.133 4.525h-1.104zm5.689 0v-5.284h.827v2.882c0 .186-.007.381-.02.586-.006.205-.019.4-.038.586a6.326 6.326 0 01-.048.461l2.133-4.515h1.104v5.284h-.826v-2.882c0-.186.003-.381.01-.586.013-.205.029-.401.048-.586l.048-.471-2.133 4.525h-1.105zm2.018-6.149c-.461 0-.833-.128-1.115-.384-.281-.256-.422-.592-.422-1.009h.682c0 .25.077.452.23.606.154.153.359.23.615.23.263 0 .471-.077.625-.23a.803.803 0 00.24-.606h.682c0 .417-.141.753-.423 1.009-.282.256-.653.384-1.114.384zm5.651 6.245c-.243 0-.439-.071-.586-.212-.141-.14-.211-.329-.211-.566 0-.25.07-.449.211-.596.147-.147.343-.221.586-.221.243 0 .435.074.576.221.148.147.221.346.221.596 0 .237-.073.426-.221.566-.141.141-.333.212-.576.212z" fill="#fff"/><path d="M10.75 26v-7.013h4.265V26h-1.201v-5.898H11.95V26h-1.2zm5.68 1.73v-7.014h1.17v1.009h.27l-.27.279c0-.43.129-.766.385-1.01.256-.249.602-.374 1.037-.374.532 0 .958.183 1.278.548.32.365.48.855.48 1.47v1.431c0 .41-.073.769-.22 1.076a1.625 1.625 0 01-.606.701c-.262.167-.573.25-.932.25-.435 0-.781-.122-1.037-.365-.256-.25-.385-.59-.385-1.018l.27.278h-.28l.04 1.259v1.48h-1.202zm2.17-2.672c.308 0 .548-.09.721-.268.173-.18.26-.436.26-.769v-1.326c0-.333-.087-.589-.26-.768-.173-.18-.413-.27-.72-.27-.302 0-.538.094-.711.28-.173.179-.26.432-.26.758v1.326c0 .327.087.583.26.769.172.179.41.268.71.268zm5.661 1.029c-.448 0-.839-.084-1.172-.25a1.938 1.938 0 01-.768-.72c-.18-.315-.27-.683-.27-1.106v-1.306c0-.423.09-.788.27-1.095.185-.314.442-.554.768-.72.333-.174.724-.26 1.172-.26.455 0 .846.086 1.172.26.327.166.58.406.76.72.185.307.278.669.278 1.085v1.316c0 .423-.093.791-.279 1.105a1.857 1.857 0 01-.759.72c-.326.167-.717.25-1.172.25zm0-1.048c.32 0 .567-.086.74-.26.18-.178.269-.435.269-.768v-1.306c0-.34-.09-.596-.269-.769-.173-.173-.42-.259-.74-.259-.313 0-.56.086-.74.26-.179.172-.268.428-.268.768v1.306c0 .333.09.59.269.769.179.173.426.26.74.26zM27.81 26v-5.284h2.344c.608 0 1.085.128 1.431.385.352.25.528.595.528 1.037 0 .359-.137.647-.413.865-.269.217-.627.326-1.076.326v-.086c.487 0 .878.115 1.172.346.295.224.442.525.442.903 0 .467-.179.835-.538 1.104-.352.27-.839.404-1.46.404h-2.43zm1.181-.913h1.21c.27 0 .481-.06.635-.182a.593.593 0 00.23-.49.613.613 0 00-.23-.51c-.154-.121-.365-.182-.634-.182h-1.21v1.364zm0-2.17h1.172c.237 0 .426-.058.567-.174a.576.576 0 00.212-.47.576.576 0 00-.212-.471c-.134-.122-.323-.183-.567-.183H28.99v1.297zm6.66 3.18c-.448 0-.839-.087-1.172-.26a1.923 1.923 0 01-.778-.72 2.17 2.17 0 01-.269-1.096v-1.326c0-.416.09-.778.27-1.085.185-.314.444-.558.777-.73.333-.173.724-.26 1.172-.26.442 0 .826.087 1.153.26.333.172.59.416.769.73.185.307.278.669.278 1.085v.951h-3.257v.375c0 .371.09.653.27.845.179.186.445.279.797.279.269 0 .487-.045.653-.134a.642.642 0 00.317-.414h1.182c-.09.455-.333.82-.73 1.096-.391.269-.868.403-1.432.403zm1.038-3.123v-.288c0-.365-.087-.644-.26-.836-.172-.199-.432-.298-.778-.298-.346 0-.608.1-.788.298-.179.198-.269.48-.269.845v.202l2.181-.02-.086.097zm2.5 4.755v-7.013h1.172v1.009h.269l-.269.279c0-.43.128-.766.384-1.01.257-.249.602-.374 1.038-.374.531 0 .957.183 1.278.548.32.365.48.855.48 1.47v1.431c0 .41-.074.769-.221 1.076a1.623 1.623 0 01-.605.701 1.7 1.7 0 01-.932.25c-.436 0-.781-.122-1.038-.365-.256-.25-.384-.59-.384-1.018l.269.278h-.279l.039 1.259v1.48h-1.201zm2.171-2.67c.307 0 .548-.09.72-.27.173-.179.26-.435.26-.768v-1.326c0-.333-.087-.589-.26-.768-.172-.18-.413-.27-.72-.27-.3 0-.538.094-.71.28-.174.179-.26.432-.26.758v1.326c0 .327.086.583.26.769.172.179.41.268.71.268zm3.557.941v-5.284h1.2v2.075h.789l1.287-2.075h1.345l-1.595 2.556L49.566 26h-1.374l-1.287-2.19h-.788V26h-1.2zm7.208.096c-.545 0-.974-.144-1.288-.432-.313-.288-.47-.676-.47-1.163 0-.518.172-.919.518-1.2.346-.282.836-.423 1.47-.423h1.316v-.452c0-.256-.083-.454-.25-.595-.166-.148-.393-.221-.682-.221-.262 0-.48.057-.653.173a.675.675 0 00-.307.47h-1.172c.057-.5.282-.896.672-1.19.39-.296.89-.443 1.499-.443.647 0 1.156.163 1.527.49.378.32.567.756.567 1.307V26H53.71v-.922h-.192l.192-.26c0 .391-.144.702-.433.932-.288.23-.672.346-1.152.346zm.393-.903c.34 0 .615-.086.827-.26a.82.82 0 00.326-.672v-.643h-1.297c-.243 0-.438.07-.586.21a.736.736 0 00-.22.558c0 .25.083.448.25.596.172.14.406.211.7.211zm11.072 2.536V26c-.614 0-1.098-.176-1.45-.528-.346-.353-.519-.833-.519-1.441v-1.355c0-.608.176-1.085.528-1.431.353-.353.833-.529 1.441-.529v-1.729h1v1.73c.614 0 1.095.175 1.44.528.353.345.529.823.529 1.431v1.355c0 .608-.176 1.088-.529 1.44-.345.353-.826.529-1.44.529v1.73h-1zm.048-2.67v-3.401c-.3 0-.538.09-.71.269-.173.18-.26.429-.26.75v1.354c0 .32.087.573.26.759.172.179.41.268.71.268zm.903 0c.308 0 .545-.09.711-.27.173-.185.26-.438.26-.758v-1.355c0-.32-.087-.57-.26-.75-.166-.179-.403-.268-.71-.268v3.4zm3.951 2.67l.74-2.017-1.97-4.996h1.317l.98 2.7c.05.147.102.326.153.538.052.205.09.374.116.509l.124-.51a5.89 5.89 0 01.154-.537l.922-2.7h1.269L69.75 27.73h-1.26zM73.335 26v-5.284h1.201v2.046H76.4v-2.046h1.2V26h-1.2v-2.123h-1.864V26h-1.2zm5.719 0v-5.284h1.2v2.075h.789l1.287-2.075h1.345l-1.595 2.556L83.704 26H82.33l-1.287-2.19h-.788V26h-1.201zm9.311 1.345V26h-3.65v-5.284h1.2v4.18h1.634v-4.18h1.2v4.18h.721v2.449h-1.105zM90.405 26v-5.284h1.085v2.604c0 .166-.01.365-.029.595a11.758 11.758 0 01-.134 1.23l1.863-4.429h1.48V26h-1.086v-2.603c0-.173.007-.365.02-.577l.057-.624c.026-.205.051-.378.077-.519L91.884 26h-1.48zm7.822.087c-.449 0-.84-.084-1.172-.25a1.938 1.938 0 01-.769-.72 2.2 2.2 0 01-.269-1.106v-1.306c0-.423.09-.788.27-1.095a1.84 1.84 0 01.768-.72c.333-.174.723-.26 1.172-.26.455 0 .845.086 1.172.26.326.166.58.406.759.72.186.307.278.669.278 1.085v1.316c0 .423-.092.791-.278 1.105-.18.308-.433.548-.76.72-.326.167-.716.25-1.171.25zm0-1.048c.32 0 .567-.086.74-.26.179-.178.269-.435.269-.768v-1.306c0-.34-.09-.596-.27-.769-.172-.173-.419-.259-.74-.259-.313 0-.56.086-.739.26-.18.172-.269.428-.269.768v1.306c0 .333.09.59.27.769.178.173.425.26.739.26zm3.557.961v-5.284h1.201v2.046h1.863v-2.046h1.201V26h-1.201v-2.123h-1.863V26h-1.201zm7.236.096c-.544 0-.973-.144-1.287-.432-.314-.288-.471-.676-.471-1.163 0-.518.173-.919.519-1.2.346-.282.836-.423 1.47-.423h1.316v-.452c0-.256-.083-.454-.25-.595-.166-.148-.394-.221-.682-.221-.263 0-.48.057-.653.173a.676.676 0 00-.308.47h-1.172c.058-.5.282-.896.673-1.19.39-.296.89-.443 1.498-.443.647 0 1.156.163 1.528.49.378.32.567.756.567 1.307V26h-1.163v-.922h-.192l.192-.26c0 .391-.144.702-.432.932-.288.23-.673.346-1.153.346zm.394-.903c.339 0 .615-.086.826-.26a.82.82 0 00.327-.672v-.643h-1.297c-.243 0-.439.07-.586.21a.737.737 0 00-.221.558c0 .25.083.448.25.596.173.14.406.211.701.211zm3.221.874v-1.095h.24a.54.54 0 00.49-.26c.115-.179.176-.46.182-.845l.058-3.15h3.824V26h-1.201v-4.17h-1.441l-.039 2.105c-.013.46-.089.851-.23 1.172a1.604 1.604 0 01-.606.72c-.262.16-.582.24-.96.24h-.317zm6.256-.067v-5.284h1.201v1.73h1.364c.641 0 1.14.16 1.499.48.365.314.547.75.547 1.306 0 .545-.185.977-.557 1.297-.365.314-.858.471-1.479.471h-2.575zm1.201-1.057h1.316c.282 0 .497-.06.644-.182.154-.128.23-.308.23-.538 0-.23-.076-.407-.23-.529-.147-.128-.362-.192-.644-.192h-1.316v1.441zm4.45 1.057v-5.284h1.201v2.046h1.864v-2.046h1.201V26h-1.201v-2.123h-1.864V26h-1.201zm7.823.087c-.449 0-.839-.084-1.172-.25a1.939 1.939 0 01-.769-.72 2.2 2.2 0 01-.269-1.106v-1.306c0-.423.09-.788.269-1.095.186-.314.442-.554.769-.72.333-.174.723-.26 1.172-.26.454 0 .845.086 1.172.26a1.8 1.8 0 01.759.72c.185.307.278.669.278 1.085v1.316c0 .423-.093.791-.278 1.105a1.88 1.88 0 01-.759.72c-.327.167-.718.25-1.172.25zm0-1.048c.32 0 .567-.086.739-.26.18-.178.269-.435.269-.768v-1.306c0-.34-.089-.596-.269-.769-.172-.173-.419-.259-.739-.259-.314 0-.561.086-.74.26-.179.172-.269.428-.269.768v1.306c0 .333.09.59.269.769.179.173.426.26.74.26zm5.709 1.057c-.449 0-.843-.083-1.182-.25a1.925 1.925 0 01-.778-.72c-.186-.314-.279-.682-.279-1.105v-1.326c0-.429.093-.797.279-1.105a1.86 1.86 0 01.778-.71c.339-.173.733-.26 1.182-.26.666 0 1.197.173 1.594.519.397.34.606.804.625 1.393h-1.201c-.019-.275-.119-.487-.298-.634-.173-.154-.413-.23-.72-.23-.321 0-.574.089-.759.268-.186.173-.279.423-.279.75v1.335c0 .327.093.58.279.759.185.18.438.269.759.269.307 0 .547-.074.72-.221.179-.154.279-.368.298-.644h1.201c-.019.59-.228 1.057-.625 1.403-.397.34-.928.51-1.594.51zm5.065-.096v-4.179h-1.806v-1.105h4.822v1.105h-1.806V26h-1.21zm4.162 0v-5.284h1.086v2.604c0 .166-.01.365-.029.595a12.385 12.385 0 01-.135 1.23l1.864-4.429h1.479V26h-1.085v-2.603c0-.173.006-.365.019-.577l.058-.624c.025-.205.051-.378.077-.519L148.78 26h-1.479zm7.822-3.766c-.269 0-.486-.074-.653-.22a.778.778 0 01-.24-.587c0-.243.08-.439.24-.586.167-.147.384-.22.653-.22s.484.073.644.22c.167.147.25.343.25.586a.761.761 0 01-.25.586c-.16.147-.375.221-.644.221zm0 3.862c-.269 0-.486-.074-.653-.22a.758.758 0 01-.24-.587c0-.243.08-.439.24-.586.167-.147.384-.22.653-.22s.484.073.644.22c.167.147.25.343.25.586a.743.743 0 01-.25.586c-.16.147-.375.221-.644.221z" fill="#000"/><defs><filter id="filter0_d_2004_78" x=".157" y="0" width="179.685" height="196.685" filterUnits="userSpaceOnUse" color-interpolation-filters="sRGB"><feFlood flood-opacity="0" result="BackgroundImageFix"/><feColorMatrix in="SourceAlpha" values="0 0 0 0 0 0 0 0 0 0 0 0 0 0 0 0 0 0 127 0" result="hardAlpha"/><feOffset dy="3.843"/><feGaussianBlur stdDeviation="1.921"/><feComposite in2="hardAlpha" operator="out"/><feColorMatrix values="0 0 0 0 0 0 0 0 0 0 0 0 0 0 0 0 0 0 0.25 0"/><feBlend in2="BackgroundImageFix" result="effect1_dropShadow_2004_78"/><feBlend in="SourceGraphic" in2="effect1_dropShadow_2004_78" result="shape"/></filter></defs></svg>