<svg width="329" height="75" viewBox="0 0 329 75" fill="none" xmlns="http://www.w3.org/2000/svg">
<path d="M42.2156 18V9.97H46.7476V18H45.7576V10.872H43.2056V18H42.2156ZM48.7893 19.98V11.95H49.7793V13.105H49.9773L49.7793 13.336C49.7793 12.874 49.9297 12.511 50.2303 12.247C50.5383 11.9757 50.9417 11.84 51.4403 11.84C52.049 11.84 52.533 12.0417 52.8923 12.445C53.259 12.841 53.4423 13.3873 53.4423 14.084V15.855C53.4423 16.317 53.358 16.7167 53.1893 17.054C53.028 17.3913 52.797 17.6517 52.4963 17.835C52.203 18.0183 51.851 18.11 51.4403 18.11C50.949 18.11 50.5493 17.9743 50.2413 17.703C49.9333 17.4317 49.7793 17.0687 49.7793 16.614L49.9773 16.845H49.7573L49.7793 18.22V19.98H48.7893ZM51.1103 17.252C51.5283 17.252 51.8547 17.1273 52.0893 16.878C52.3313 16.6287 52.4523 16.2693 52.4523 15.8V14.15C52.4523 13.6807 52.3313 13.3213 52.0893 13.072C51.8547 12.8227 51.5283 12.698 51.1103 12.698C50.707 12.698 50.3843 12.8263 50.1423 13.083C49.9003 13.3397 49.7793 13.6953 49.7793 14.15V15.8C49.7793 16.2547 49.9003 16.6103 50.1423 16.867C50.3843 17.1237 50.707 17.252 51.1103 17.252ZM57.673 18.11C57.1964 18.11 56.7784 18.0147 56.419 17.824C56.067 17.6333 55.792 17.3657 55.594 17.021C55.4034 16.669 55.308 16.262 55.308 15.8V14.15C55.308 13.6807 55.4034 13.2737 55.594 12.929C55.792 12.5843 56.067 12.3167 56.419 12.126C56.7784 11.9353 57.1964 11.84 57.673 11.84C58.1497 11.84 58.564 11.9353 58.916 12.126C59.2754 12.3167 59.5504 12.5843 59.741 12.929C59.939 13.2737 60.038 13.6807 60.038 14.15V15.217H56.276V15.8C56.276 16.2767 56.397 16.6433 56.639 16.9C56.881 17.1493 57.2257 17.274 57.673 17.274C58.0544 17.274 58.3624 17.208 58.597 17.076C58.8317 16.9367 58.9747 16.7313 59.026 16.46H60.016C59.95 16.966 59.7007 17.3693 59.268 17.67C58.8427 17.9633 58.311 18.11 57.673 18.11ZM59.07 14.557V14.15C59.07 13.6733 58.949 13.3067 58.707 13.05C58.4724 12.7933 58.1277 12.665 57.673 12.665C57.2257 12.665 56.881 12.7933 56.639 13.05C56.397 13.3067 56.276 13.6733 56.276 14.15V14.469H59.147L59.07 14.557ZM61.2988 19.54V17.153H61.7938C61.9184 17.0283 62.0468 16.7827 62.1788 16.416C62.3181 16.0493 62.3914 15.5837 62.3988 15.019L62.4648 11.95H66.4138V17.153H67.1837V19.54H66.3038V18H62.1788V19.54H61.2988ZM62.8388 17.153H65.4238V12.83H63.3998L63.3558 15.041C63.3484 15.6203 63.2861 16.0897 63.1688 16.449C63.0514 16.8083 62.9414 17.043 62.8388 17.153ZM70.8645 18.088C70.3805 18.088 69.9625 17.9963 69.6105 17.813C69.2585 17.6297 68.9835 17.3657 68.7855 17.021C68.5948 16.669 68.4995 16.2547 68.4995 15.778V14.172C68.4995 13.688 68.5948 13.2737 68.7855 12.929C68.9835 12.5843 69.2585 12.3203 69.6105 12.137C69.9625 11.9537 70.3805 11.862 70.8645 11.862C71.3485 11.862 71.7665 11.9537 72.1185 12.137C72.4705 12.3203 72.7418 12.5843 72.9325 12.929C73.1305 13.2737 73.2295 13.6843 73.2295 14.161V15.778C73.2295 16.2547 73.1305 16.669 72.9325 17.021C72.7418 17.3657 72.4705 17.6297 72.1185 17.813C71.7665 17.9963 71.3485 18.088 70.8645 18.088ZM70.8645 17.208C71.2971 17.208 71.6345 17.087 71.8765 16.845C72.1185 16.603 72.2395 16.2473 72.2395 15.778V14.172C72.2395 13.7027 72.1185 13.347 71.8765 13.105C71.6345 12.863 71.2971 12.742 70.8645 12.742C70.4391 12.742 70.1018 12.863 69.8525 13.105C69.6105 13.347 69.4895 13.7027 69.4895 14.172V15.778C69.4895 16.2473 69.6105 16.603 69.8525 16.845C70.1018 17.087 70.4391 17.208 70.8645 17.208ZM77.4822 18.11C76.9982 18.11 76.5728 18.0183 76.2062 17.835C75.8468 17.6517 75.5682 17.3877 75.3702 17.043C75.1722 16.691 75.0732 16.2767 75.0732 15.8V14.15C75.0732 13.666 75.1722 13.2517 75.3702 12.907C75.5682 12.5623 75.8468 12.2983 76.2062 12.115C76.5728 11.9317 76.9982 11.84 77.4822 11.84C78.1788 11.84 78.7398 12.027 79.1652 12.401C79.5905 12.775 79.8142 13.2847 79.8362 13.93H78.8462C78.8242 13.5413 78.6922 13.2443 78.4502 13.039C78.2155 12.8263 77.8928 12.72 77.4822 12.72C77.0495 12.72 76.7048 12.8447 76.4482 13.094C76.1915 13.336 76.0632 13.6843 76.0632 14.139V15.8C76.0632 16.2547 76.1915 16.6067 76.4482 16.856C76.7048 17.1053 77.0495 17.23 77.4822 17.23C77.8928 17.23 78.2155 17.1237 78.4502 16.911C78.6922 16.6983 78.8242 16.4013 78.8462 16.02H79.8362C79.8142 16.6653 79.5905 17.175 79.1652 17.549C78.7398 17.923 78.1788 18.11 77.4822 18.11ZM83.5609 18V12.819H81.3609V11.95H86.7509V12.819H84.5509V18H83.5609ZM90.1236 18.11C89.4856 18.11 88.9832 17.9487 88.6166 17.626C88.2499 17.296 88.0666 16.8523 88.0666 16.295C88.0666 15.7303 88.2499 15.2867 88.6166 14.964C88.9832 14.6413 89.4782 14.48 90.1016 14.48H91.9716V13.875C91.9716 13.501 91.8579 13.215 91.6306 13.017C91.4106 12.8117 91.0952 12.709 90.6846 12.709C90.3252 12.709 90.0246 12.786 89.7826 12.94C89.5406 13.0867 89.4012 13.2883 89.3646 13.545H88.3746C88.4406 13.0243 88.6862 12.61 89.1116 12.302C89.5369 11.994 90.0686 11.84 90.7066 11.84C91.4032 11.84 91.9532 12.0197 92.3566 12.379C92.7599 12.7383 92.9616 13.226 92.9616 13.842V18H91.9936V16.845H91.8286L91.9936 16.68C91.9936 17.12 91.8212 17.4683 91.4766 17.725C91.1392 17.9817 90.6882 18.11 90.1236 18.11ZM90.3656 17.329C90.8349 17.329 91.2199 17.2117 91.5206 16.977C91.8212 16.7423 91.9716 16.4417 91.9716 16.075V15.217H90.1236C89.7936 15.217 89.5332 15.3087 89.3426 15.492C89.1519 15.6753 89.0566 15.9247 89.0566 16.24C89.0566 16.5773 89.1702 16.845 89.3976 17.043C89.6322 17.2337 89.9549 17.329 90.3656 17.329ZM94.9813 18V11.95H97.5993C98.2299 11.95 98.7176 12.093 99.0623 12.379C99.4069 12.6577 99.5793 13.05 99.5793 13.556C99.5793 13.974 99.4363 14.3113 99.1503 14.568C98.8643 14.8173 98.4866 14.942 98.0173 14.942V14.854C98.5306 14.854 98.9413 14.9823 99.2493 15.239C99.5646 15.4957 99.7223 15.8403 99.7223 16.273C99.7223 16.8157 99.5389 17.241 99.1723 17.549C98.8056 17.8497 98.2923 18 97.6323 18H94.9813ZM95.9493 17.131H97.6323C97.9843 17.131 98.2556 17.054 98.4463 16.9C98.6443 16.746 98.7433 16.5297 98.7433 16.251C98.7433 15.965 98.6443 15.745 98.4463 15.591C98.2556 15.437 97.9843 15.36 97.6323 15.36H95.9493V17.131ZM95.9493 14.502H97.5993C97.9073 14.502 98.1493 14.4287 98.3253 14.282C98.5086 14.1353 98.6003 13.93 98.6003 13.666C98.6003 13.402 98.5123 13.1967 98.3363 13.05C98.1603 12.896 97.9146 12.819 97.5993 12.819H95.9493V14.502ZM101.621 18V11.95H102.611V14.172H104.393C105.075 14.172 105.61 14.3443 105.999 14.689C106.395 15.0263 106.593 15.492 106.593 16.086C106.593 16.6727 106.395 17.1383 105.999 17.483C105.603 17.8277 105.068 18 104.393 18H101.621ZM102.611 17.098H104.393C104.774 17.098 105.064 17.0137 105.262 16.845C105.467 16.669 105.57 16.416 105.57 16.086C105.57 15.756 105.467 15.5067 105.262 15.338C105.064 15.162 104.774 15.074 104.393 15.074H102.611V17.098ZM109.944 18V12.819H107.744V11.95H113.134V12.819H110.934V18H109.944ZM117.034 18.11C116.558 18.11 116.14 18.0147 115.78 17.824C115.428 17.6333 115.153 17.3657 114.955 17.021C114.765 16.669 114.669 16.262 114.669 15.8V14.15C114.669 13.6807 114.765 13.2737 114.955 12.929C115.153 12.5843 115.428 12.3167 115.78 12.126C116.14 11.9353 116.558 11.84 117.034 11.84C117.511 11.84 117.925 11.9353 118.277 12.126C118.637 12.3167 118.912 12.5843 119.102 12.929C119.3 13.2737 119.399 13.6807 119.399 14.15V15.217H115.637V15.8C115.637 16.2767 115.758 16.6433 116 16.9C116.242 17.1493 116.587 17.274 117.034 17.274C117.416 17.274 117.724 17.208 117.958 17.076C118.193 16.9367 118.336 16.7313 118.387 16.46H119.377C119.311 16.966 119.062 17.3693 118.629 17.67C118.204 17.9633 117.672 18.11 117.034 18.11ZM118.431 14.557V14.15C118.431 13.6733 118.31 13.3067 118.068 13.05C117.834 12.7933 117.489 12.665 117.034 12.665C116.587 12.665 116.242 12.7933 116 13.05C115.758 13.3067 115.637 13.6733 115.637 14.15V14.469H118.508L118.431 14.557ZM127.96 18V11.95H132.492V18H131.502V12.852H128.95V18H127.96ZM136.821 18.088C136.337 18.088 135.919 17.9963 135.567 17.813C135.215 17.6297 134.94 17.3657 134.742 17.021C134.552 16.669 134.456 16.2547 134.456 15.778V14.172C134.456 13.688 134.552 13.2737 134.742 12.929C134.94 12.5843 135.215 12.3203 135.567 12.137C135.919 11.9537 136.337 11.862 136.821 11.862C137.305 11.862 137.723 11.9537 138.075 12.137C138.427 12.3203 138.699 12.5843 138.889 12.929C139.087 13.2737 139.186 13.6843 139.186 14.161V15.778C139.186 16.2547 139.087 16.669 138.889 17.021C138.699 17.3657 138.427 17.6297 138.075 17.813C137.723 17.9963 137.305 18.088 136.821 18.088ZM136.821 17.208C137.254 17.208 137.591 17.087 137.833 16.845C138.075 16.603 138.196 16.2473 138.196 15.778V14.172C138.196 13.7027 138.075 13.347 137.833 13.105C137.591 12.863 137.254 12.742 136.821 12.742C136.396 12.742 136.059 12.863 135.809 13.105C135.567 13.347 135.446 13.7027 135.446 14.172V15.778C135.446 16.2473 135.567 16.603 135.809 16.845C136.059 17.087 136.396 17.208 136.821 17.208ZM140.392 18.077V17.153H140.59C140.928 17.153 141.162 17.021 141.294 16.757C141.434 16.493 141.507 16.02 141.514 15.338L141.58 11.95H145.683V18H144.693V12.852H142.559L142.504 15.382C142.49 16.02 142.416 16.537 142.284 16.933C142.16 17.329 141.962 17.6187 141.69 17.802C141.426 17.9853 141.078 18.077 140.645 18.077H140.392ZM147.791 18V11.95H148.781V14.172H150.563C151.245 14.172 151.78 14.3443 152.169 14.689C152.565 15.0263 152.763 15.492 152.763 16.086C152.763 16.6727 152.565 17.1383 152.169 17.483C151.773 17.8277 151.238 18 150.563 18H147.791ZM148.781 17.098H150.563C150.944 17.098 151.234 17.0137 151.432 16.845C151.637 16.669 151.74 16.416 151.74 16.086C151.74 15.756 151.637 15.5067 151.432 15.338C151.234 15.162 150.944 15.074 150.563 15.074H148.781V17.098ZM156.323 18.077C155.685 18.077 155.16 17.9413 154.75 17.67C154.346 17.3987 154.104 17.032 154.024 16.57H155.069C155.12 16.7533 155.256 16.9037 155.476 17.021C155.703 17.1383 155.985 17.197 156.323 17.197H156.84C157.199 17.197 157.478 17.1127 157.676 16.944C157.881 16.7753 157.984 16.5553 157.984 16.284C157.984 15.9907 157.885 15.7597 157.687 15.591C157.496 15.4223 157.214 15.338 156.84 15.338H155.509V14.48H156.807C157.144 14.48 157.401 14.3993 157.577 14.238C157.753 14.0767 157.841 13.864 157.841 13.6C157.841 13.4167 157.8 13.2627 157.72 13.138C157.646 13.0133 157.533 12.918 157.379 12.852C157.225 12.786 157.038 12.753 156.818 12.753H156.268C155.974 12.753 155.721 12.819 155.509 12.951C155.296 13.083 155.168 13.2443 155.124 13.435H154.079C154.152 12.9803 154.39 12.6063 154.794 12.313C155.197 12.0197 155.688 11.873 156.268 11.873H156.818C157.25 11.873 157.621 11.9427 157.929 12.082C158.237 12.214 158.471 12.4047 158.633 12.654C158.801 12.9033 158.886 13.2003 158.886 13.545C158.886 13.9043 158.768 14.2013 158.534 14.436C158.299 14.6633 157.969 14.7917 157.544 14.821V14.865C158.064 14.9017 158.442 15.041 158.677 15.283C158.911 15.525 159.029 15.8733 159.029 16.328C159.029 16.8633 158.831 17.2887 158.435 17.604C158.039 17.9193 157.507 18.077 156.84 18.077H156.323ZM163.204 18.088C162.72 18.088 162.302 17.9963 161.95 17.813C161.598 17.6297 161.323 17.3657 161.125 17.021C160.935 16.669 160.839 16.2547 160.839 15.778V14.172C160.839 13.688 160.935 13.2737 161.125 12.929C161.323 12.5843 161.598 12.3203 161.95 12.137C162.302 11.9537 162.72 11.862 163.204 11.862C163.688 11.862 164.106 11.9537 164.458 12.137C164.81 12.3203 165.082 12.5843 165.272 12.929C165.47 13.2737 165.569 13.6843 165.569 14.161V15.778C165.569 16.2547 165.47 16.669 165.272 17.021C165.082 17.3657 164.81 17.6297 164.458 17.813C164.106 17.9963 163.688 18.088 163.204 18.088ZM163.204 17.208C163.637 17.208 163.974 17.087 164.216 16.845C164.458 16.603 164.579 16.2473 164.579 15.778V14.172C164.579 13.7027 164.458 13.347 164.216 13.105C163.974 12.863 163.637 12.742 163.204 12.742C162.779 12.742 162.442 12.863 162.192 13.105C161.95 13.347 161.829 13.7027 161.829 14.172V15.778C161.829 16.2473 161.95 16.603 162.192 16.845C162.442 17.087 162.779 17.208 163.204 17.208ZM167.534 18V11.95H170.152C170.783 11.95 171.27 12.093 171.615 12.379C171.96 12.6577 172.132 13.05 172.132 13.556C172.132 13.974 171.989 14.3113 171.703 14.568C171.417 14.8173 171.039 14.942 170.57 14.942V14.854C171.083 14.854 171.494 14.9823 171.802 15.239C172.117 15.4957 172.275 15.8403 172.275 16.273C172.275 16.8157 172.092 17.241 171.725 17.549C171.358 17.8497 170.845 18 170.185 18H167.534ZM168.502 17.131H170.185C170.537 17.131 170.808 17.054 170.999 16.9C171.197 16.746 171.296 16.5297 171.296 16.251C171.296 15.965 171.197 15.745 170.999 15.591C170.808 15.437 170.537 15.36 170.185 15.36H168.502V17.131ZM168.502 14.502H170.152C170.46 14.502 170.702 14.4287 170.878 14.282C171.061 14.1353 171.153 13.93 171.153 13.666C171.153 13.402 171.065 13.1967 170.889 13.05C170.713 12.896 170.467 12.819 170.152 12.819H168.502V14.502ZM175.868 18.11C175.23 18.11 174.727 17.9487 174.361 17.626C173.994 17.296 173.811 16.8523 173.811 16.295C173.811 15.7303 173.994 15.2867 174.361 14.964C174.727 14.6413 175.222 14.48 175.846 14.48H177.716V13.875C177.716 13.501 177.602 13.215 177.375 13.017C177.155 12.8117 176.839 12.709 176.429 12.709C176.069 12.709 175.769 12.786 175.527 12.94C175.285 13.0867 175.145 13.2883 175.109 13.545H174.119C174.185 13.0243 174.43 12.61 174.856 12.302C175.281 11.994 175.813 11.84 176.451 11.84C177.147 11.84 177.697 12.0197 178.101 12.379C178.504 12.7383 178.706 13.226 178.706 13.842V18H177.738V16.845H177.573L177.738 16.68C177.738 17.12 177.565 17.4683 177.221 17.725C176.883 17.9817 176.432 18.11 175.868 18.11ZM176.11 17.329C176.579 17.329 176.964 17.2117 177.265 16.977C177.565 16.7423 177.716 16.4417 177.716 16.075V15.217H175.868C175.538 15.217 175.277 15.3087 175.087 15.492C174.896 15.6753 174.801 15.9247 174.801 16.24C174.801 16.5773 174.914 16.845 175.142 17.043C175.376 17.2337 175.699 17.329 176.11 17.329ZM182.496 18V12.819H180.296V11.95H185.686V12.819H183.486V18H182.496ZM189.587 18.11C189.11 18.11 188.692 18.0147 188.333 17.824C187.981 17.6333 187.706 17.3657 187.508 17.021C187.317 16.669 187.222 16.262 187.222 15.8V14.15C187.222 13.6807 187.317 13.2737 187.508 12.929C187.706 12.5843 187.981 12.3167 188.333 12.126C188.692 11.9353 189.11 11.84 189.587 11.84C190.064 11.84 190.478 11.9353 190.83 12.126C191.189 12.3167 191.464 12.5843 191.655 12.929C191.853 13.2737 191.952 13.6807 191.952 14.15V15.217H188.19V15.8C188.19 16.2767 188.311 16.6433 188.553 16.9C188.795 17.1493 189.14 17.274 189.587 17.274C189.968 17.274 190.276 17.208 190.511 17.076C190.746 16.9367 190.889 16.7313 190.94 16.46H191.93C191.864 16.966 191.615 17.3693 191.182 17.67C190.757 17.9633 190.225 18.11 189.587 18.11ZM190.984 14.557V14.15C190.984 13.6733 190.863 13.3067 190.621 13.05C190.386 12.7933 190.042 12.665 189.587 12.665C189.14 12.665 188.795 12.7933 188.553 13.05C188.311 13.3067 188.19 13.6733 188.19 14.15V14.469H191.061L190.984 14.557ZM193.158 18.077V17.153H193.356C193.693 17.153 193.928 17.021 194.06 16.757C194.199 16.493 194.272 16.02 194.28 15.338L194.346 11.95H198.449V18H197.459V12.852H195.325L195.27 15.382C195.255 16.02 195.182 16.537 195.05 16.933C194.925 17.329 194.727 17.6187 194.456 17.802C194.192 17.9853 193.843 18.077 193.411 18.077H193.158ZM200.139 18L201.69 15.668C201.228 15.558 200.868 15.3453 200.612 15.03C200.362 14.7147 200.238 14.3223 200.238 13.853C200.238 13.259 200.432 12.7933 200.821 12.456C201.217 12.1187 201.756 11.95 202.438 11.95H205.045V18H204.055V15.745H202.724L201.294 18H200.139ZM202.438 14.865H204.055V12.83H202.438C202.071 12.83 201.781 12.9217 201.569 13.105C201.356 13.281 201.25 13.5303 201.25 13.853C201.25 14.1683 201.356 14.4177 201.569 14.601C201.781 14.777 202.071 14.865 202.438 14.865ZM206.91 18V11.95H208.252L209.044 14.271C209.125 14.5057 209.198 14.7403 209.264 14.975C209.33 15.2023 209.378 15.3783 209.407 15.503C209.437 15.3783 209.481 15.2023 209.539 14.975C209.605 14.7403 209.675 14.502 209.748 14.26L210.496 11.95H211.838V18H210.881V17.065C210.881 16.735 210.885 16.3757 210.892 15.987C210.9 15.5983 210.907 15.206 210.914 14.81C210.929 14.414 210.944 14.04 210.958 13.688C210.973 13.3287 210.984 13.0133 210.991 12.742L209.913 16.185H208.868L207.779 12.764C207.794 13.094 207.805 13.5047 207.812 13.996C207.827 14.4873 207.838 15.0007 207.845 15.536C207.86 16.0713 207.867 16.581 207.867 17.065V18H206.91ZM220.3 18V11.95H222.918C223.548 11.95 224.036 12.093 224.381 12.379C224.725 12.6577 224.898 13.05 224.898 13.556C224.898 13.974 224.755 14.3113 224.469 14.568C224.183 14.8173 223.805 14.942 223.336 14.942V14.854C223.849 14.854 224.26 14.9823 224.568 15.239C224.883 15.4957 225.041 15.8403 225.041 16.273C225.041 16.8157 224.857 17.241 224.491 17.549C224.124 17.8497 223.611 18 222.951 18H220.3ZM221.268 17.131H222.951C223.303 17.131 223.574 17.054 223.765 16.9C223.963 16.746 224.062 16.5297 224.062 16.251C224.062 15.965 223.963 15.745 223.765 15.591C223.574 15.437 223.303 15.36 222.951 15.36H221.268V17.131ZM221.268 14.502H222.918C223.226 14.502 223.468 14.4287 223.644 14.282C223.827 14.1353 223.919 13.93 223.919 13.666C223.919 13.402 223.831 13.1967 223.655 13.05C223.479 12.896 223.233 12.819 222.918 12.819H221.268V14.502ZM229.161 18.088C228.677 18.088 228.259 17.9963 227.907 17.813C227.555 17.6297 227.28 17.3657 227.082 17.021C226.892 16.669 226.796 16.2547 226.796 15.778V14.172C226.796 13.688 226.892 13.2737 227.082 12.929C227.28 12.5843 227.555 12.3203 227.907 12.137C228.259 11.9537 228.677 11.862 229.161 11.862C229.645 11.862 230.063 11.9537 230.415 12.137C230.767 12.3203 231.039 12.5843 231.229 12.929C231.427 13.2737 231.526 13.6843 231.526 14.161V15.778C231.526 16.2547 231.427 16.669 231.229 17.021C231.039 17.3657 230.767 17.6297 230.415 17.813C230.063 17.9963 229.645 18.088 229.161 18.088ZM229.161 17.208C229.594 17.208 229.931 17.087 230.173 16.845C230.415 16.603 230.536 16.2473 230.536 15.778V14.172C230.536 13.7027 230.415 13.347 230.173 13.105C229.931 12.863 229.594 12.742 229.161 12.742C228.736 12.742 228.399 12.863 228.149 13.105C227.907 13.347 227.786 13.7027 227.786 14.172V15.778C227.786 16.2473 227.907 16.603 228.149 16.845C228.399 17.087 228.736 17.208 229.161 17.208ZM235.471 18.077C234.833 18.077 234.309 17.9413 233.898 17.67C233.495 17.3987 233.253 17.032 233.172 16.57H234.217C234.268 16.7533 234.404 16.9037 234.624 17.021C234.851 17.1383 235.134 17.197 235.471 17.197H235.988C236.347 17.197 236.626 17.1127 236.824 16.944C237.029 16.7753 237.132 16.5553 237.132 16.284C237.132 15.9907 237.033 15.7597 236.835 15.591C236.644 15.4223 236.362 15.338 235.988 15.338H234.657V14.48H235.955C236.292 14.48 236.549 14.3993 236.725 14.238C236.901 14.0767 236.989 13.864 236.989 13.6C236.989 13.4167 236.949 13.2627 236.868 13.138C236.795 13.0133 236.681 12.918 236.527 12.852C236.373 12.786 236.186 12.753 235.966 12.753H235.416C235.123 12.753 234.87 12.819 234.657 12.951C234.444 13.083 234.316 13.2443 234.272 13.435H233.227C233.3 12.9803 233.539 12.6063 233.942 12.313C234.345 12.0197 234.837 11.873 235.416 11.873H235.966C236.399 11.873 236.769 11.9427 237.077 12.082C237.385 12.214 237.62 12.4047 237.781 12.654C237.95 12.9033 238.034 13.2003 238.034 13.545C238.034 13.9043 237.917 14.2013 237.682 14.436C237.447 14.6633 237.117 14.7917 236.692 14.821V14.865C237.213 14.9017 237.59 15.041 237.825 15.283C238.06 15.525 238.177 15.8733 238.177 16.328C238.177 16.8633 237.979 17.2887 237.583 17.604C237.187 17.9193 236.655 18.077 235.988 18.077H235.471ZM239.889 18V11.95H241.231L242.023 14.271C242.103 14.5057 242.177 14.7403 242.243 14.975C242.309 15.2023 242.356 15.3783 242.386 15.503C242.415 15.3783 242.459 15.2023 242.518 14.975C242.584 14.7403 242.653 14.502 242.727 14.26L243.475 11.95H244.817V18H243.86V17.065C243.86 16.735 243.863 16.3757 243.871 15.987C243.878 15.5983 243.885 15.206 243.893 14.81C243.907 14.414 243.922 14.04 243.937 13.688C243.951 13.3287 243.962 13.0133 243.97 12.742L242.892 16.185H241.847L240.758 12.764C240.772 13.094 240.783 13.5047 240.791 13.996C240.805 14.4873 240.816 15.0007 240.824 15.536C240.838 16.0713 240.846 16.581 240.846 17.065V18H239.889ZM248.948 18.088C248.464 18.088 248.046 17.9963 247.694 17.813C247.342 17.6297 247.067 17.3657 246.869 17.021C246.679 16.669 246.583 16.2547 246.583 15.778V14.172C246.583 13.688 246.679 13.2737 246.869 12.929C247.067 12.5843 247.342 12.3203 247.694 12.137C248.046 11.9537 248.464 11.862 248.948 11.862C249.432 11.862 249.85 11.9537 250.202 12.137C250.554 12.3203 250.826 12.5843 251.016 12.929C251.214 13.2737 251.313 13.6843 251.313 14.161V15.778C251.313 16.2547 251.214 16.669 251.016 17.021C250.826 17.3657 250.554 17.6297 250.202 17.813C249.85 17.9963 249.432 18.088 248.948 18.088ZM248.948 17.208C249.381 17.208 249.718 17.087 249.96 16.845C250.202 16.603 250.323 16.2473 250.323 15.778V14.172C250.323 13.7027 250.202 13.347 249.96 13.105C249.718 12.863 249.381 12.742 248.948 12.742C248.523 12.742 248.186 12.863 247.936 13.105C247.694 13.347 247.573 13.7027 247.573 14.172V15.778C247.573 16.2473 247.694 16.603 247.936 16.845C248.186 17.087 248.523 17.208 248.948 17.208ZM252.442 18L253.762 14.898L252.53 11.95H253.487L254.543 14.59H255.126V11.95H255.962V14.59H256.523L257.612 11.95H258.558L257.326 14.865L258.646 18H257.656L256.556 15.25H255.962V18H255.126V15.25H254.532L253.421 18H252.442ZM259.874 18V11.95H260.864V14.469H263.416V11.95H264.406V18H263.416V15.371H260.864V18H259.874ZM268.736 18.088C268.252 18.088 267.834 17.9963 267.482 17.813C267.13 17.6297 266.855 17.3657 266.657 17.021C266.466 16.669 266.371 16.2547 266.371 15.778V14.172C266.371 13.688 266.466 13.2737 266.657 12.929C266.855 12.5843 267.13 12.3203 267.482 12.137C267.834 11.9537 268.252 11.862 268.736 11.862C269.22 11.862 269.638 11.9537 269.99 12.137C270.342 12.3203 270.613 12.5843 270.804 12.929C271.002 13.2737 271.101 13.6843 271.101 14.161V15.778C271.101 16.2547 271.002 16.669 270.804 17.021C270.613 17.3657 270.342 17.6297 269.99 17.813C269.638 17.9963 269.22 18.088 268.736 18.088ZM268.736 17.208C269.168 17.208 269.506 17.087 269.748 16.845C269.99 16.603 270.111 16.2473 270.111 15.778V14.172C270.111 13.7027 269.99 13.347 269.748 13.105C269.506 12.863 269.168 12.742 268.736 12.742C268.31 12.742 267.973 12.863 267.724 13.105C267.482 13.347 267.361 13.7027 267.361 14.172V15.778C267.361 16.2473 267.482 16.603 267.724 16.845C267.973 17.087 268.31 17.208 268.736 17.208ZM275.353 18.11C274.869 18.11 274.444 18.0183 274.077 17.835C273.718 17.6517 273.439 17.3877 273.241 17.043C273.043 16.691 272.944 16.2767 272.944 15.8V14.15C272.944 13.666 273.043 13.2517 273.241 12.907C273.439 12.5623 273.718 12.2983 274.077 12.115C274.444 11.9317 274.869 11.84 275.353 11.84C276.05 11.84 276.611 12.027 277.036 12.401C277.462 12.775 277.685 13.2847 277.707 13.93H276.717C276.695 13.5413 276.563 13.2443 276.321 13.039C276.087 12.8263 275.764 12.72 275.353 12.72C274.921 12.72 274.576 12.8447 274.319 13.094C274.063 13.336 273.934 13.6843 273.934 14.139V15.8C273.934 16.2547 274.063 16.6067 274.319 16.856C274.576 17.1053 274.921 17.23 275.353 17.23C275.764 17.23 276.087 17.1237 276.321 16.911C276.563 16.6983 276.695 16.4013 276.717 16.02H277.707C277.685 16.6653 277.462 17.175 277.036 17.549C276.611 17.923 276.05 18.11 275.353 18.11ZM281.432 18V12.819H279.232V11.95H284.622V12.819H282.422V18H281.432ZM286.301 18V11.95H287.291V14.172H289.073C289.755 14.172 290.29 14.3443 290.679 14.689C291.075 15.0263 291.273 15.492 291.273 16.086C291.273 16.6727 291.075 17.1383 290.679 17.483C290.283 17.8277 289.747 18 289.073 18H286.301ZM287.291 17.098H289.073C289.454 17.098 289.744 17.0137 289.942 16.845C290.147 16.669 290.25 16.416 290.25 16.086C290.25 15.756 290.147 15.5067 289.942 15.338C289.744 15.162 289.454 15.074 289.073 15.074H287.291V17.098ZM19.1307 33V26.95H20.1207V29.469H22.6727V26.95H23.6627V33H22.6727V30.371H20.1207V33H19.1307ZM27.4644 33.11C26.8264 33.11 26.324 32.9487 25.9574 32.626C25.5907 32.296 25.4074 31.8523 25.4074 31.295C25.4074 30.7303 25.5907 30.2867 25.9574 29.964C26.324 29.6413 26.819 29.48 27.4424 29.48H29.3124V28.875C29.3124 28.501 29.1987 28.215 28.9714 28.017C28.7514 27.8117 28.436 27.709 28.0254 27.709C27.666 27.709 27.3654 27.786 27.1234 27.94C26.8814 28.0867 26.742 28.2883 26.7054 28.545H25.7154C25.7814 28.0243 26.027 27.61 26.4524 27.302C26.8777 26.994 27.4094 26.84 28.0474 26.84C28.744 26.84 29.294 27.0197 29.6974 27.379C30.1007 27.7383 30.3024 28.226 30.3024 28.842V33H29.3344V31.845H29.1694L29.3344 31.68C29.3344 32.12 29.162 32.4683 28.8174 32.725C28.48 32.9817 28.029 33.11 27.4644 33.11ZM27.7064 32.329C28.1757 32.329 28.5607 32.2117 28.8614 31.977C29.162 31.7423 29.3124 31.4417 29.3124 31.075V30.217H27.4644C27.1344 30.217 26.874 30.3087 26.6834 30.492C26.4927 30.6753 26.3974 30.9247 26.3974 31.24C26.3974 31.5773 26.511 31.845 26.7384 32.043C26.973 32.2337 27.2957 32.329 27.7064 32.329ZM34.6101 33.11C34.1261 33.11 33.7008 33.0183 33.3341 32.835C32.9748 32.6517 32.6961 32.3877 32.4981 32.043C32.3001 31.691 32.2011 31.2767 32.2011 30.8V29.15C32.2011 28.666 32.3001 28.2517 32.4981 27.907C32.6961 27.5623 32.9748 27.2983 33.3341 27.115C33.7008 26.9317 34.1261 26.84 34.6101 26.84C35.3068 26.84 35.8678 27.027 36.2931 27.401C36.7184 27.775 36.9421 28.2847 36.9641 28.93H35.9741C35.9521 28.5413 35.8201 28.2443 35.5781 28.039C35.3434 27.8263 35.0208 27.72 34.6101 27.72C34.1774 27.72 33.8328 27.8447 33.5761 28.094C33.3194 28.336 33.1911 28.6843 33.1911 29.139V30.8C33.1911 31.2547 33.3194 31.6067 33.5761 31.856C33.8328 32.1053 34.1774 32.23 34.6101 32.23C35.0208 32.23 35.3434 32.1237 35.5781 31.911C35.8201 31.6983 35.9521 31.4013 35.9741 31.02H36.9641C36.9421 31.6653 36.7184 32.175 36.2931 32.549C35.8678 32.923 35.3068 33.11 34.6101 33.11ZM40.6888 33V27.819H38.4888V26.95H43.8788V27.819H41.6788V33H40.6888ZM45.4915 34.98V26.95H46.4815V28.105H46.6795L46.4815 28.336C46.4815 27.874 46.6318 27.511 46.9325 27.247C47.2405 26.9757 47.6438 26.84 48.1425 26.84C48.7512 26.84 49.2352 27.0417 49.5945 27.445C49.9612 27.841 50.1445 28.3873 50.1445 29.084V30.855C50.1445 31.317 50.0602 31.7167 49.8915 32.054C49.7302 32.3913 49.4992 32.6517 49.1985 32.835C48.9052 33.0183 48.5532 33.11 48.1425 33.11C47.6512 33.11 47.2515 32.9743 46.9435 32.703C46.6355 32.4317 46.4815 32.0687 46.4815 31.614L46.6795 31.845H46.4595L46.4815 33.22V34.98H45.4915ZM47.8125 32.252C48.2305 32.252 48.5568 32.1273 48.7915 31.878C49.0335 31.6287 49.1545 31.2693 49.1545 30.8V29.15C49.1545 28.6807 49.0335 28.3213 48.7915 28.072C48.5568 27.8227 48.2305 27.698 47.8125 27.698C47.4092 27.698 47.0865 27.8263 46.8445 28.083C46.6025 28.3397 46.4815 28.6953 46.4815 29.15V30.8C46.4815 31.2547 46.6025 31.6103 46.8445 31.867C47.0865 32.1237 47.4092 32.252 47.8125 32.252ZM53.8472 33.11C53.2092 33.11 52.7069 32.9487 52.3402 32.626C51.9735 32.296 51.7902 31.8523 51.7902 31.295C51.7902 30.7303 51.9735 30.2867 52.3402 29.964C52.7069 29.6413 53.2019 29.48 53.8252 29.48H55.6952V28.875C55.6952 28.501 55.5815 28.215 55.3542 28.017C55.1342 27.8117 54.8189 27.709 54.4082 27.709C54.0489 27.709 53.7482 27.786 53.5062 27.94C53.2642 28.0867 53.1249 28.2883 53.0882 28.545H52.0982C52.1642 28.0243 52.4099 27.61 52.8352 27.302C53.2605 26.994 53.7922 26.84 54.4302 26.84C55.1269 26.84 55.6769 27.0197 56.0802 27.379C56.4835 27.7383 56.6852 28.226 56.6852 28.842V33H55.7172V31.845H55.5522L55.7172 31.68C55.7172 32.12 55.5449 32.4683 55.2002 32.725C54.8629 32.9817 54.4119 33.11 53.8472 33.11ZM54.0892 32.329C54.5585 32.329 54.9435 32.2117 55.2442 31.977C55.5449 31.7423 55.6952 31.4417 55.6952 31.075V30.217H53.8472C53.5172 30.217 53.2569 30.3087 53.0662 30.492C52.8755 30.6753 52.7802 30.9247 52.7802 31.24C52.7802 31.5773 52.8939 31.845 53.1212 32.043C53.3559 32.2337 53.6785 32.329 54.0892 32.329ZM58.7049 33V26.95H59.6509V30.25C59.6509 30.4627 59.6436 30.6863 59.6289 30.921C59.6216 31.1557 59.6069 31.3793 59.5849 31.592C59.5702 31.7973 59.5519 31.9733 59.5299 32.12L61.9719 26.95H63.2369V33H62.2909V29.7C62.2909 29.4873 62.2946 29.2637 62.3019 29.029C62.3166 28.7943 62.3349 28.5707 62.3569 28.358C62.3789 28.138 62.3972 27.9583 62.4119 27.819L59.9699 33H58.7049ZM65.3006 33V26.95H67.9186C68.5493 26.95 69.0369 27.093 69.3816 27.379C69.7263 27.6577 69.8986 28.05 69.8986 28.556C69.8986 28.974 69.7556 29.3113 69.4696 29.568C69.1836 29.8173 68.8059 29.942 68.3366 29.942V29.854C68.8499 29.854 69.2606 29.9823 69.5686 30.239C69.8839 30.4957 70.0416 30.8403 70.0416 31.273C70.0416 31.8157 69.8583 32.241 69.4916 32.549C69.1249 32.8497 68.6116 33 67.9516 33H65.3006ZM66.2686 32.131H67.9516C68.3036 32.131 68.5749 32.054 68.7656 31.9C68.9636 31.746 69.0626 31.5297 69.0626 31.251C69.0626 30.965 68.9636 30.745 68.7656 30.591C68.5749 30.437 68.3036 30.36 67.9516 30.36H66.2686V32.131ZM66.2686 29.502H67.9186C68.2266 29.502 68.4686 29.4287 68.6446 29.282C68.8279 29.1353 68.9196 28.93 68.9196 28.666C68.9196 28.402 68.8316 28.1967 68.6556 28.05C68.4796 27.896 68.2339 27.819 67.9186 27.819H66.2686V29.502ZM73.6343 33.11C72.9963 33.11 72.494 32.9487 72.1273 32.626C71.7606 32.296 71.5773 31.8523 71.5773 31.295C71.5773 30.7303 71.7606 30.2867 72.1273 29.964C72.494 29.6413 72.989 29.48 73.6123 29.48H75.4823V28.875C75.4823 28.501 75.3686 28.215 75.1413 28.017C74.9213 27.8117 74.606 27.709 74.1953 27.709C73.836 27.709 73.5353 27.786 73.2933 27.94C73.0513 28.0867 72.912 28.2883 72.8753 28.545H71.8853C71.9513 28.0243 72.197 27.61 72.6223 27.302C73.0476 26.994 73.5793 26.84 74.2173 26.84C74.914 26.84 75.464 27.0197 75.8673 27.379C76.2706 27.7383 76.4723 28.226 76.4723 28.842V33H75.5043V31.845H75.3393L75.5043 31.68C75.5043 32.12 75.332 32.4683 74.9873 32.725C74.65 32.9817 74.199 33.11 73.6343 33.11ZM73.8763 32.329C74.3456 32.329 74.7306 32.2117 75.0313 31.977C75.332 31.7423 75.4823 31.4417 75.4823 31.075V30.217H73.6343C73.3043 30.217 73.044 30.3087 72.8533 30.492C72.6626 30.6753 72.5673 30.9247 72.5673 31.24C72.5673 31.5773 72.681 31.845 72.9083 32.043C73.143 32.2337 73.4656 32.329 73.8763 32.329ZM80.263 33V27.819H78.063V26.95H83.453V27.819H81.253V33H80.263ZM85.1317 33V26.95H86.1217V29.172H87.9037C88.5857 29.172 89.121 29.3443 89.5097 29.689C89.9057 30.0263 90.1037 30.492 90.1037 31.086C90.1037 31.6727 89.9057 32.1383 89.5097 32.483C89.1137 32.8277 88.5784 33 87.9037 33H85.1317ZM86.1217 32.098H87.9037C88.285 32.098 88.5747 32.0137 88.7727 31.845C88.978 31.669 89.0807 31.416 89.0807 31.086C89.0807 30.756 88.978 30.5067 88.7727 30.338C88.5747 30.162 88.285 30.074 87.9037 30.074H86.1217V32.098ZM100.545 33.11C99.8338 33.11 99.2691 32.901 98.8511 32.483C98.4405 32.0577 98.2351 31.4783 98.2351 30.745V27.995C98.2351 27.027 98.4771 26.2827 98.9611 25.762C99.4451 25.234 100.138 24.97 101.04 24.97H102.58V25.96H101.04C100.446 25.96 99.9951 26.136 99.6871 26.488C99.3791 26.8327 99.2251 27.335 99.2251 27.995V28.71H99.3791L99.2251 28.93C99.2325 28.4973 99.3791 28.16 99.6651 27.918C99.9511 27.676 100.34 27.555 100.831 27.555C101.469 27.555 101.964 27.7603 102.316 28.171C102.675 28.5817 102.855 29.1463 102.855 29.865V30.745C102.855 31.2363 102.763 31.658 102.58 32.01C102.397 32.362 102.133 32.6333 101.788 32.824C101.443 33.0147 101.029 33.11 100.545 33.11ZM100.545 32.23C100.97 32.23 101.297 32.1017 101.524 31.845C101.751 31.5883 101.865 31.2217 101.865 30.745V29.865C101.865 29.3883 101.751 29.0217 101.524 28.765C101.297 28.5083 100.97 28.38 100.545 28.38C100.12 28.38 99.7935 28.5083 99.5661 28.765C99.3388 29.0143 99.2251 29.381 99.2251 29.865V30.745C99.2251 31.2217 99.3388 31.5883 99.5661 31.845C99.7935 32.1017 100.12 32.23 100.545 32.23ZM107.141 33.088C106.657 33.088 106.239 32.9963 105.887 32.813C105.535 32.6297 105.26 32.3657 105.062 32.021C104.871 31.669 104.776 31.2547 104.776 30.778V29.172C104.776 28.688 104.871 28.2737 105.062 27.929C105.26 27.5843 105.535 27.3203 105.887 27.137C106.239 26.9537 106.657 26.862 107.141 26.862C107.625 26.862 108.043 26.9537 108.395 27.137C108.747 27.3203 109.018 27.5843 109.209 27.929C109.407 28.2737 109.506 28.6843 109.506 29.161V30.778C109.506 31.2547 109.407 31.669 109.209 32.021C109.018 32.3657 108.747 32.6297 108.395 32.813C108.043 32.9963 107.625 33.088 107.141 33.088ZM107.141 32.208C107.573 32.208 107.911 32.087 108.153 31.845C108.395 31.603 108.516 31.2473 108.516 30.778V29.172C108.516 28.7027 108.395 28.347 108.153 28.105C107.911 27.863 107.573 27.742 107.141 27.742C106.715 27.742 106.378 27.863 106.129 28.105C105.887 28.347 105.766 28.7027 105.766 29.172V30.778C105.766 31.2473 105.887 31.603 106.129 31.845C106.378 32.087 106.715 32.208 107.141 32.208ZM113.242 33V27.819H111.042V26.95H116.432V27.819H114.232V33H113.242ZM119.804 33.11C119.166 33.11 118.664 32.9487 118.297 32.626C117.931 32.296 117.747 31.8523 117.747 31.295C117.747 30.7303 117.931 30.2867 118.297 29.964C118.664 29.6413 119.159 29.48 119.782 29.48H121.652V28.875C121.652 28.501 121.539 28.215 121.311 28.017C121.091 27.8117 120.776 27.709 120.365 27.709C120.006 27.709 119.705 27.786 119.463 27.94C119.221 28.0867 119.082 28.2883 119.045 28.545H118.055C118.121 28.0243 118.367 27.61 118.792 27.302C119.218 26.994 119.749 26.84 120.387 26.84C121.084 26.84 121.634 27.0197 122.037 27.379C122.441 27.7383 122.642 28.226 122.642 28.842V33H121.674V31.845H121.509L121.674 31.68C121.674 32.12 121.502 32.4683 121.157 32.725C120.82 32.9817 120.369 33.11 119.804 33.11ZM120.046 32.329C120.516 32.329 120.901 32.2117 121.201 31.977C121.502 31.7423 121.652 31.4417 121.652 31.075V30.217H119.804C119.474 30.217 119.214 30.3087 119.023 30.492C118.833 30.6753 118.737 30.9247 118.737 31.24C118.737 31.5773 118.851 31.845 119.078 32.043C119.313 32.2337 119.636 32.329 120.046 32.329ZM131.258 33V26.95H135.79V33H134.8V27.852H132.248V33H131.258ZM140.119 33.088C139.635 33.088 139.217 32.9963 138.865 32.813C138.513 32.6297 138.238 32.3657 138.04 32.021C137.85 31.669 137.754 31.2547 137.754 30.778V29.172C137.754 28.688 137.85 28.2737 138.04 27.929C138.238 27.5843 138.513 27.3203 138.865 27.137C139.217 26.9537 139.635 26.862 140.119 26.862C140.603 26.862 141.021 26.9537 141.373 27.137C141.725 27.3203 141.997 27.5843 142.187 27.929C142.385 28.2737 142.484 28.6843 142.484 29.161V30.778C142.484 31.2547 142.385 31.669 142.187 32.021C141.997 32.3657 141.725 32.6297 141.373 32.813C141.021 32.9963 140.603 33.088 140.119 33.088ZM140.119 32.208C140.552 32.208 140.889 32.087 141.131 31.845C141.373 31.603 141.494 31.2473 141.494 30.778V29.172C141.494 28.7027 141.373 28.347 141.131 28.105C140.889 27.863 140.552 27.742 140.119 27.742C139.694 27.742 139.357 27.863 139.107 28.105C138.865 28.347 138.744 28.7027 138.744 29.172V30.778C138.744 31.2473 138.865 31.603 139.107 31.845C139.357 32.087 139.694 32.208 140.119 32.208ZM143.745 34.54V32.153H144.24C144.365 32.0283 144.493 31.7827 144.625 31.416C144.764 31.0493 144.838 30.5837 144.845 30.019L144.911 26.95H148.86V32.153H149.63V34.54H148.75V33H144.625V34.54H143.745ZM145.285 32.153H147.87V27.83H145.846L145.802 30.041C145.795 30.6203 145.732 31.0897 145.615 31.449C145.498 31.8083 145.388 32.043 145.285 32.153ZM159.928 33.11C159.444 33.11 159.019 33.0183 158.652 32.835C158.293 32.6517 158.014 32.3877 157.816 32.043C157.618 31.691 157.519 31.2767 157.519 30.8V29.15C157.519 28.666 157.618 28.2517 157.816 27.907C158.014 27.5623 158.293 27.2983 158.652 27.115C159.019 26.9317 159.444 26.84 159.928 26.84C160.625 26.84 161.186 27.027 161.611 27.401C162.037 27.775 162.26 28.2847 162.282 28.93H161.292C161.27 28.5413 161.138 28.2443 160.896 28.039C160.662 27.8263 160.339 27.72 159.928 27.72C159.496 27.72 159.151 27.8447 158.894 28.094C158.638 28.336 158.509 28.6843 158.509 29.139V30.8C158.509 31.2547 158.638 31.6067 158.894 31.856C159.151 32.1053 159.496 32.23 159.928 32.23C160.339 32.23 160.662 32.1237 160.896 31.911C161.138 31.6983 161.27 31.4013 161.292 31.02H162.282C162.26 31.6653 162.037 32.175 161.611 32.549C161.186 32.923 160.625 33.11 159.928 33.11ZM164.236 33V26.95H166.854C167.485 26.95 167.972 27.093 168.317 27.379C168.662 27.6577 168.834 28.05 168.834 28.556C168.834 28.974 168.691 29.3113 168.405 29.568C168.119 29.8173 167.741 29.942 167.272 29.942V29.854C167.785 29.854 168.196 29.9823 168.504 30.239C168.819 30.4957 168.977 30.8403 168.977 31.273C168.977 31.8157 168.794 32.241 168.427 32.549C168.06 32.8497 167.547 33 166.887 33H164.236ZM165.204 32.131H166.887C167.239 32.131 167.51 32.054 167.701 31.9C167.899 31.746 167.998 31.5297 167.998 31.251C167.998 30.965 167.899 30.745 167.701 30.591C167.51 30.437 167.239 30.36 166.887 30.36H165.204V32.131ZM165.204 29.502H166.854C167.162 29.502 167.404 29.4287 167.58 29.282C167.763 29.1353 167.855 28.93 167.855 28.666C167.855 28.402 167.767 28.1967 167.591 28.05C167.415 27.896 167.169 27.819 166.854 27.819H165.204V29.502ZM173.098 33.088C172.614 33.088 172.196 32.9963 171.844 32.813C171.492 32.6297 171.217 32.3657 171.019 32.021C170.828 31.669 170.733 31.2547 170.733 30.778V29.172C170.733 28.688 170.828 28.2737 171.019 27.929C171.217 27.5843 171.492 27.3203 171.844 27.137C172.196 26.9537 172.614 26.862 173.098 26.862C173.582 26.862 174 26.9537 174.352 27.137C174.704 27.3203 174.975 27.5843 175.166 27.929C175.364 28.2737 175.463 28.6843 175.463 29.161V30.778C175.463 31.2547 175.364 31.669 175.166 32.021C174.975 32.3657 174.704 32.6297 174.352 32.813C174 32.9963 173.582 33.088 173.098 33.088ZM173.098 32.208C173.531 32.208 173.868 32.087 174.11 31.845C174.352 31.603 174.473 31.2473 174.473 30.778V29.172C174.473 28.7027 174.352 28.347 174.11 28.105C173.868 27.863 173.531 27.742 173.098 27.742C172.673 27.742 172.335 27.863 172.086 28.105C171.844 28.347 171.723 28.7027 171.723 29.172V30.778C171.723 31.2473 171.844 31.603 172.086 31.845C172.335 32.087 172.673 32.208 173.098 32.208ZM177.428 33V26.95H178.374V30.25C178.374 30.4627 178.366 30.6863 178.352 30.921C178.344 31.1557 178.33 31.3793 178.308 31.592C178.293 31.7973 178.275 31.9733 178.253 32.12L180.695 26.95H181.96V33H181.014V29.7C181.014 29.4873 181.017 29.2637 181.025 29.029C181.039 28.7943 181.058 28.5707 181.08 28.358C181.102 28.138 181.12 27.9583 181.135 27.819L178.693 33H177.428ZM190.619 33V26.95H195.151V33H194.161V27.852H191.609V33H190.619ZM197.193 34.98V26.95H198.183V28.105H198.381L198.183 28.336C198.183 27.874 198.333 27.511 198.634 27.247C198.942 26.9757 199.345 26.84 199.844 26.84C200.452 26.84 200.936 27.0417 201.296 27.445C201.662 27.841 201.846 28.3873 201.846 29.084V30.855C201.846 31.317 201.761 31.7167 201.593 32.054C201.431 32.3913 201.2 32.6517 200.9 32.835C200.606 33.0183 200.254 33.11 199.844 33.11C199.352 33.11 198.953 32.9743 198.645 32.703C198.337 32.4317 198.183 32.0687 198.183 31.614L198.381 31.845H198.161L198.183 33.22V34.98H197.193ZM199.514 32.252C199.932 32.252 200.258 32.1273 200.493 31.878C200.735 31.6287 200.856 31.2693 200.856 30.8V29.15C200.856 28.6807 200.735 28.3213 200.493 28.072C200.258 27.8227 199.932 27.698 199.514 27.698C199.11 27.698 198.788 27.8263 198.546 28.083C198.304 28.3397 198.183 28.6953 198.183 29.15V30.8C198.183 31.2547 198.304 31.6103 198.546 31.867C198.788 32.1237 199.11 32.252 199.514 32.252ZM206.076 33.11C205.6 33.11 205.182 33.0147 204.822 32.824C204.47 32.6333 204.195 32.3657 203.997 32.021C203.807 31.669 203.711 31.262 203.711 30.8V29.15C203.711 28.6807 203.807 28.2737 203.997 27.929C204.195 27.5843 204.47 27.3167 204.822 27.126C205.182 26.9353 205.6 26.84 206.076 26.84C206.553 26.84 206.967 26.9353 207.319 27.126C207.679 27.3167 207.954 27.5843 208.144 27.929C208.342 28.2737 208.441 28.6807 208.441 29.15V30.217H204.679V30.8C204.679 31.2767 204.8 31.6433 205.042 31.9C205.284 32.1493 205.629 32.274 206.076 32.274C206.458 32.274 206.766 32.208 207 32.076C207.235 31.9367 207.378 31.7313 207.429 31.46H208.419C208.353 31.966 208.104 32.3693 207.671 32.67C207.246 32.9633 206.714 33.11 206.076 33.11ZM207.473 29.557V29.15C207.473 28.6733 207.352 28.3067 207.11 28.05C206.876 27.7933 206.531 27.665 206.076 27.665C205.629 27.665 205.284 27.7933 205.042 28.05C204.8 28.3067 204.679 28.6733 204.679 29.15V29.469H207.55L207.473 29.557ZM209.702 34.54V32.153H210.197C210.322 32.0283 210.45 31.7827 210.582 31.416C210.721 31.0493 210.795 30.5837 210.802 30.019L210.868 26.95H214.817V32.153H215.587V34.54H214.707V33H210.582V34.54H209.702ZM211.242 32.153H213.827V27.83H211.803L211.759 30.041C211.752 30.6203 211.689 31.0897 211.572 31.449C211.455 31.8083 211.345 32.043 211.242 32.153ZM217.002 33V26.95H221.534V33H220.544V27.852H217.992V33H217.002ZM225.863 33.088C225.379 33.088 224.961 32.9963 224.609 32.813C224.257 32.6297 223.982 32.3657 223.784 32.021C223.594 31.669 223.498 31.2547 223.498 30.778V29.172C223.498 28.688 223.594 28.2737 223.784 27.929C223.982 27.5843 224.257 27.3203 224.609 27.137C224.961 26.9537 225.379 26.862 225.863 26.862C226.347 26.862 226.765 26.9537 227.117 27.137C227.469 27.3203 227.741 27.5843 227.931 27.929C228.129 28.2737 228.228 28.6843 228.228 29.161V30.778C228.228 31.2547 228.129 31.669 227.931 32.021C227.741 32.3657 227.469 32.6297 227.117 32.813C226.765 32.9963 226.347 33.088 225.863 33.088ZM225.863 32.208C226.296 32.208 226.633 32.087 226.875 31.845C227.117 31.603 227.238 31.2473 227.238 30.778V29.172C227.238 28.7027 227.117 28.347 226.875 28.105C226.633 27.863 226.296 27.742 225.863 27.742C225.438 27.742 225.101 27.863 224.851 28.105C224.609 28.347 224.488 28.7027 224.488 29.172V30.778C224.488 31.2473 224.609 31.603 224.851 31.845C225.101 32.087 225.438 32.208 225.863 32.208ZM233.669 33V30.8C233.552 30.8293 233.372 30.8587 233.13 30.888C232.896 30.91 232.646 30.921 232.382 30.921C231.634 30.9283 231.051 30.7487 230.633 30.382C230.223 30.008 230.017 29.4873 230.017 28.82V26.95H231.007V28.82C231.007 29.194 231.132 29.491 231.381 29.711C231.638 29.9237 231.99 30.03 232.437 30.03C232.745 30.03 233.006 30.019 233.218 29.997C233.438 29.9677 233.589 29.942 233.669 29.92V26.95H234.659V33H233.669ZM238.56 33V27.819H236.36V26.95H241.75V27.819H239.55V33H238.56ZM245.651 33.11C245.174 33.11 244.756 33.0147 244.397 32.824C244.045 32.6333 243.77 32.3657 243.572 32.021C243.381 31.669 243.286 31.262 243.286 30.8V29.15C243.286 28.6807 243.381 28.2737 243.572 27.929C243.77 27.5843 244.045 27.3167 244.397 27.126C244.756 26.9353 245.174 26.84 245.651 26.84C246.127 26.84 246.542 26.9353 246.894 27.126C247.253 27.3167 247.528 27.5843 247.719 27.929C247.917 28.2737 248.016 28.6807 248.016 29.15V30.217H244.254V30.8C244.254 31.2767 244.375 31.6433 244.617 31.9C244.859 32.1493 245.203 32.274 245.651 32.274C246.032 32.274 246.34 32.208 246.575 32.076C246.809 31.9367 246.952 31.7313 247.004 31.46H247.994C247.928 31.966 247.678 32.3693 247.246 32.67C246.82 32.9633 246.289 33.11 245.651 33.11ZM247.048 29.557V29.15C247.048 28.6733 246.927 28.3067 246.685 28.05C246.45 27.7933 246.105 27.665 245.651 27.665C245.203 27.665 244.859 27.7933 244.617 28.05C244.375 28.3067 244.254 28.6733 244.254 29.15V29.469H247.125L247.048 29.557ZM249.98 33V26.95H250.97V29.469H253.522V26.95H254.512V33H253.522V30.371H250.97V33H249.98ZM256.576 33V26.95H257.522V30.25C257.522 30.4627 257.515 30.6863 257.5 30.921C257.493 31.1557 257.478 31.3793 257.456 31.592C257.441 31.7973 257.423 31.9733 257.401 32.12L259.843 26.95H261.108V33H260.162V29.7C260.162 29.4873 260.166 29.2637 260.173 29.029C260.188 28.7943 260.206 28.5707 260.228 28.358C260.25 28.138 260.268 27.9583 260.283 27.819L257.841 33H256.576ZM262.798 33L264.349 30.668C263.887 30.558 263.527 30.3453 263.271 30.03C263.021 29.7147 262.897 29.3223 262.897 28.853C262.897 28.259 263.091 27.7933 263.48 27.456C263.876 27.1187 264.415 26.95 265.097 26.95H267.704V33H266.714V30.745H265.383L263.953 33H262.798ZM265.097 29.865H266.714V27.83H265.097C264.73 27.83 264.44 27.9217 264.228 28.105C264.015 28.281 263.909 28.5303 263.909 28.853C263.909 29.1683 264.015 29.4177 264.228 29.601C264.44 29.777 264.73 29.865 265.097 29.865ZM270.548 34.76L271.428 31.339H272.858L271.428 34.76H270.548ZM282.255 34.54V32.153H282.75C282.874 32.0283 283.003 31.7827 283.135 31.416C283.274 31.0493 283.347 30.5837 283.355 30.019L283.421 26.95H287.37V32.153H288.14V34.54H287.26V33H283.135V34.54H282.255ZM283.795 32.153H286.38V27.83H284.356L284.312 30.041C284.304 30.6203 284.242 31.0897 284.125 31.449C284.007 31.8083 283.897 32.043 283.795 32.153ZM291.821 33.11C291.344 33.11 290.926 33.0147 290.567 32.824C290.215 32.6333 289.94 32.3657 289.742 32.021C289.551 31.669 289.456 31.262 289.456 30.8V29.15C289.456 28.6807 289.551 28.2737 289.742 27.929C289.94 27.5843 290.215 27.3167 290.567 27.126C290.926 26.9353 291.344 26.84 291.821 26.84C292.297 26.84 292.712 26.9353 293.064 27.126C293.423 27.3167 293.698 27.5843 293.889 27.929C294.087 28.2737 294.186 28.6807 294.186 29.15V30.217H290.424V30.8C290.424 31.2767 290.545 31.6433 290.787 31.9C291.029 32.1493 291.373 32.274 291.821 32.274C292.202 32.274 292.51 32.208 292.745 32.076C292.979 31.9367 293.122 31.7313 293.174 31.46H294.164C294.098 31.966 293.848 32.3693 293.416 32.67C292.99 32.9633 292.459 33.11 291.821 33.11ZM293.218 29.557V29.15C293.218 28.6733 293.097 28.3067 292.855 28.05C292.62 27.7933 292.275 27.665 291.821 27.665C291.373 27.665 291.029 27.7933 290.787 28.05C290.545 28.3067 290.424 28.6733 290.424 29.15V29.469H293.295L293.218 29.557ZM295.391 33.077V32.153H295.589C295.927 32.153 296.161 32.021 296.293 31.757C296.433 31.493 296.506 31.02 296.513 30.338L296.579 26.95H300.682V33H299.692V27.852H297.558L297.503 30.382C297.489 31.02 297.415 31.537 297.283 31.933C297.159 32.329 296.961 32.6187 296.689 32.802C296.425 32.9853 296.077 33.077 295.644 33.077H295.391ZM304.484 33.11C303.846 33.11 303.344 32.9487 302.977 32.626C302.61 32.296 302.427 31.8523 302.427 31.295C302.427 30.7303 302.61 30.2867 302.977 29.964C303.344 29.6413 303.839 29.48 304.462 29.48H306.332V28.875C306.332 28.501 306.218 28.215 305.991 28.017C305.771 27.8117 305.456 27.709 305.045 27.709C304.686 27.709 304.385 27.786 304.143 27.94C303.901 28.0867 303.762 28.2883 303.725 28.545H302.735C302.801 28.0243 303.047 27.61 303.472 27.302C303.897 26.994 304.429 26.84 305.067 26.84C305.764 26.84 306.314 27.0197 306.717 27.379C307.12 27.7383 307.322 28.226 307.322 28.842V33H306.354V31.845H306.189L306.354 31.68C306.354 32.12 306.182 32.4683 305.837 32.725C305.5 32.9817 305.049 33.11 304.484 33.11ZM304.726 32.329C305.195 32.329 305.58 32.2117 305.881 31.977C306.182 31.7423 306.332 31.4417 306.332 31.075V30.217H304.484C304.154 30.217 303.894 30.3087 303.703 30.492C303.512 30.6753 303.417 30.9247 303.417 31.24C303.417 31.5773 303.531 31.845 303.758 32.043C303.993 32.2337 304.315 32.329 304.726 32.329ZM308.968 33L310.519 30.668C310.057 30.558 309.697 30.3453 309.441 30.03C309.191 29.7147 309.067 29.3223 309.067 28.853C309.067 28.259 309.261 27.7933 309.65 27.456C310.046 27.1187 310.585 26.95 311.267 26.95H313.874V33H312.884V30.745H311.553L310.123 33H308.968ZM311.267 29.865H312.884V27.83H311.267C310.9 27.83 310.61 27.9217 310.398 28.105C310.185 28.281 310.079 28.5303 310.079 28.853C310.079 29.1683 310.185 29.4177 310.398 29.601C310.61 29.777 310.9 29.865 311.267 29.865ZM62.0028 48V41.95H64.6208C65.2514 41.95 65.7391 42.093 66.0838 42.379C66.4284 42.6577 66.6008 43.05 66.6008 43.556C66.6008 43.974 66.4578 44.3113 66.1718 44.568C65.8858 44.8173 65.5081 44.942 65.0388 44.942V44.854C65.5521 44.854 65.9628 44.9823 66.2708 45.239C66.5861 45.4957 66.7438 45.8403 66.7438 46.273C66.7438 46.8157 66.5604 47.241 66.1938 47.549C65.8271 47.8497 65.3138 48 64.6538 48H62.0028ZM62.9708 47.131H64.6538C65.0058 47.131 65.2771 47.054 65.4678 46.9C65.6658 46.746 65.7648 46.5297 65.7648 46.251C65.7648 45.965 65.6658 45.745 65.4678 45.591C65.2771 45.437 65.0058 45.36 64.6538 45.36H62.9708V47.131ZM62.9708 44.502H64.6208C64.9288 44.502 65.1708 44.4287 65.3468 44.282C65.5301 44.1353 65.6218 43.93 65.6218 43.666C65.6218 43.402 65.5338 43.1967 65.3578 43.05C65.1818 42.896 64.9361 42.819 64.6208 42.819H62.9708V44.502ZM70.5785 48.077C69.9405 48.077 69.4161 47.9413 69.0055 47.67C68.6021 47.3987 68.3601 47.032 68.2795 46.57H69.3245C69.3758 46.7533 69.5115 46.9037 69.7315 47.021C69.9588 47.1383 70.2411 47.197 70.5785 47.197H71.0955C71.4548 47.197 71.7335 47.1127 71.9315 46.944C72.1368 46.7753 72.2395 46.5553 72.2395 46.284C72.2395 45.9907 72.1405 45.7597 71.9425 45.591C71.7518 45.4223 71.4695 45.338 71.0955 45.338H69.7645V44.48H71.0625C71.3998 44.48 71.6565 44.3993 71.8325 44.238C72.0085 44.0767 72.0965 43.864 72.0965 43.6C72.0965 43.4167 72.0561 43.2627 71.9755 43.138C71.9021 43.0133 71.7885 42.918 71.6345 42.852C71.4805 42.786 71.2935 42.753 71.0735 42.753H70.5235C70.2301 42.753 69.9771 42.819 69.7645 42.951C69.5518 43.083 69.4235 43.2443 69.3795 43.435H68.3345C68.4078 42.9803 68.6461 42.6063 69.0495 42.313C69.4528 42.0197 69.9441 41.873 70.5235 41.873H71.0735C71.5061 41.873 71.8765 41.9427 72.1845 42.082C72.4925 42.214 72.7271 42.4047 72.8885 42.654C73.0571 42.9033 73.1415 43.2003 73.1415 43.545C73.1415 43.9043 73.0241 44.2013 72.7895 44.436C72.5548 44.6633 72.2248 44.7917 71.7995 44.821V44.865C72.3201 44.9017 72.6978 45.041 72.9325 45.283C73.1671 45.525 73.2845 45.8733 73.2845 46.328C73.2845 46.8633 73.0865 47.2887 72.6905 47.604C72.2945 47.9193 71.7628 48.077 71.0955 48.077H70.5785ZM76.9322 48.11C76.2942 48.11 75.7918 47.9487 75.4252 47.626C75.0585 47.296 74.8752 46.8523 74.8752 46.295C74.8752 45.7303 75.0585 45.2867 75.4252 44.964C75.7918 44.6413 76.2868 44.48 76.9102 44.48H78.7802V43.875C78.7802 43.501 78.6665 43.215 78.4392 43.017C78.2192 42.8117 77.9038 42.709 77.4932 42.709C77.1338 42.709 76.8332 42.786 76.5912 42.94C76.3492 43.0867 76.2098 43.2883 76.1732 43.545H75.1832C75.2492 43.0243 75.4948 42.61 75.9202 42.302C76.3455 41.994 76.8772 41.84 77.5152 41.84C78.2118 41.84 78.7618 42.0197 79.1652 42.379C79.5685 42.7383 79.7702 43.226 79.7702 43.842V48H78.8022V46.845H78.6372L78.8022 46.68C78.8022 47.12 78.6298 47.4683 78.2852 47.725C77.9478 47.9817 77.4968 48.11 76.9322 48.11ZM77.1742 47.329C77.6435 47.329 78.0285 47.2117 78.3292 46.977C78.6298 46.7423 78.7802 46.4417 78.7802 46.075V45.217H76.9322C76.6022 45.217 76.3418 45.3087 76.1512 45.492C75.9605 45.6753 75.8652 45.9247 75.8652 46.24C75.8652 46.5773 75.9788 46.845 76.2062 47.043C76.4408 47.2337 76.7635 47.329 77.1742 47.329ZM81.7899 48V41.95H82.7359V45.25C82.7359 45.4627 82.7285 45.6863 82.7139 45.921C82.7065 46.1557 82.6919 46.3793 82.6699 46.592C82.6552 46.7973 82.6369 46.9733 82.6149 47.12L85.0569 41.95H86.3219V48H85.3759V44.7C85.3759 44.4873 85.3795 44.2637 85.3869 44.029C85.4015 43.7943 85.4199 43.5707 85.4419 43.358C85.4639 43.138 85.4822 42.9583 85.4969 42.819L83.0549 48H81.7899ZM88.1876 48V41.95H89.5296L90.3216 44.271C90.4022 44.5057 90.4756 44.7403 90.5416 44.975C90.6076 45.2023 90.6552 45.3783 90.6846 45.503C90.7139 45.3783 90.7579 45.2023 90.8166 44.975C90.8826 44.7403 90.9522 44.502 91.0256 44.26L91.7736 41.95H93.1156V48H92.1586V47.065C92.1586 46.735 92.1622 46.3757 92.1696 45.987C92.1769 45.5983 92.1842 45.206 92.1916 44.81C92.2062 44.414 92.2209 44.04 92.2356 43.688C92.2502 43.3287 92.2612 43.0133 92.2686 42.742L91.1906 46.185H90.1456L89.0566 42.764C89.0712 43.094 89.0822 43.5047 89.0896 43.996C89.1042 44.4873 89.1152 45.0007 89.1226 45.536C89.1372 46.0713 89.1446 46.581 89.1446 47.065V48H88.1876ZM97.2473 48.088C96.7633 48.088 96.3453 47.9963 95.9933 47.813C95.6413 47.6297 95.3663 47.3657 95.1683 47.021C94.9776 46.669 94.8823 46.2547 94.8823 45.778V44.172C94.8823 43.688 94.9776 43.2737 95.1683 42.929C95.3663 42.5843 95.6413 42.3203 95.9933 42.137C96.3453 41.9537 96.7633 41.862 97.2473 41.862C97.7313 41.862 98.1493 41.9537 98.5013 42.137C98.8533 42.3203 99.1246 42.5843 99.3153 42.929C99.5133 43.2737 99.6123 43.6843 99.6123 44.161V45.778C99.6123 46.2547 99.5133 46.669 99.3153 47.021C99.1246 47.3657 98.8533 47.6297 98.5013 47.813C98.1493 47.9963 97.7313 48.088 97.2473 48.088ZM97.2473 47.208C97.6799 47.208 98.0173 47.087 98.2593 46.845C98.5013 46.603 98.6223 46.2473 98.6223 45.778V44.172C98.6223 43.7027 98.5013 43.347 98.2593 43.105C98.0173 42.863 97.6799 42.742 97.2473 42.742C96.8219 42.742 96.4846 42.863 96.2353 43.105C95.9933 43.347 95.8723 43.7027 95.8723 44.172V45.778C95.8723 46.2473 95.9933 46.603 96.2353 46.845C96.4846 47.087 96.8219 47.208 97.2473 47.208ZM100.873 49.54V47.153H101.368C101.493 47.0283 101.621 46.7827 101.753 46.416C101.892 46.0493 101.966 45.5837 101.973 45.019L102.039 41.95H105.988V47.153H106.758V49.54H105.878V48H101.753V49.54H100.873ZM102.413 47.153H104.998V42.83H102.974L102.93 45.041C102.923 45.6203 102.86 46.0897 102.743 46.449C102.626 46.8083 102.516 47.043 102.413 47.153ZM110.439 48.11C109.962 48.11 109.544 48.0147 109.185 47.824C108.833 47.6333 108.558 47.3657 108.36 47.021C108.169 46.669 108.074 46.262 108.074 45.8V44.15C108.074 43.6807 108.169 43.2737 108.36 42.929C108.558 42.5843 108.833 42.3167 109.185 42.126C109.544 41.9353 109.962 41.84 110.439 41.84C110.915 41.84 111.33 41.9353 111.682 42.126C112.041 42.3167 112.316 42.5843 112.507 42.929C112.705 43.2737 112.804 43.6807 112.804 44.15V45.217H109.042V45.8C109.042 46.2767 109.163 46.6433 109.405 46.9C109.647 47.1493 109.991 47.274 110.439 47.274C110.82 47.274 111.128 47.208 111.363 47.076C111.597 46.9367 111.74 46.7313 111.792 46.46H112.782C112.716 46.966 112.466 47.3693 112.034 47.67C111.608 47.9633 111.077 48.11 110.439 48.11ZM111.836 44.557V44.15C111.836 43.6733 111.715 43.3067 111.473 43.05C111.238 42.7933 110.893 42.665 110.439 42.665C109.991 42.665 109.647 42.7933 109.405 43.05C109.163 43.3067 109.042 43.6733 109.042 44.15V44.469H111.913L111.836 44.557ZM114.768 48V41.95H115.714V45.25C115.714 45.4627 115.707 45.6863 115.692 45.921C115.685 46.1557 115.67 46.3793 115.648 46.592C115.634 46.7973 115.615 46.9733 115.593 47.12L118.035 41.95H119.3V48H118.354V44.7C118.354 44.4873 118.358 44.2637 118.365 44.029C118.38 43.7943 118.398 43.5707 118.42 43.358C118.442 43.138 118.461 42.9583 118.475 42.819L116.033 48H114.768ZM117.078 40.96C116.55 40.96 116.125 40.8133 115.802 40.52C115.48 40.2267 115.318 39.8417 115.318 39.365H116.099C116.099 39.651 116.187 39.882 116.363 40.058C116.539 40.234 116.774 40.322 117.067 40.322C117.368 40.322 117.606 40.234 117.782 40.058C117.966 39.882 118.057 39.651 118.057 39.365H118.838C118.838 39.8417 118.677 40.2267 118.354 40.52C118.032 40.8133 117.606 40.96 117.078 40.96ZM123.652 48.11C123.168 48.11 122.743 48.0183 122.376 47.835C122.017 47.6517 121.738 47.3877 121.54 47.043C121.342 46.691 121.243 46.2767 121.243 45.8V44.15C121.243 43.666 121.342 43.2517 121.54 42.907C121.738 42.5623 122.017 42.2983 122.376 42.115C122.743 41.9317 123.168 41.84 123.652 41.84C124.349 41.84 124.91 42.027 125.335 42.401C125.76 42.775 125.984 43.2847 126.006 43.93H125.016C124.994 43.5413 124.862 43.2443 124.62 43.039C124.385 42.8263 124.063 42.72 123.652 42.72C123.219 42.72 122.875 42.8447 122.618 43.094C122.361 43.336 122.233 43.6843 122.233 44.139V45.8C122.233 46.2547 122.361 46.6067 122.618 46.856C122.875 47.1053 123.219 47.23 123.652 47.23C124.063 47.23 124.385 47.1237 124.62 46.911C124.862 46.6983 124.994 46.4013 125.016 46.02H126.006C125.984 46.6653 125.76 47.175 125.335 47.549C124.91 47.923 124.349 48.11 123.652 48.11ZM129.731 48V42.819H127.531V41.95H132.921V42.819H130.721V48H129.731ZM134.555 48V41.95H137.173C137.804 41.95 138.292 42.093 138.636 42.379C138.981 42.6577 139.153 43.05 139.153 43.556C139.153 43.974 139.01 44.3113 138.724 44.568C138.438 44.8173 138.061 44.942 137.591 44.942V44.854C138.105 44.854 138.515 44.9823 138.823 45.239C139.139 45.4957 139.296 45.8403 139.296 46.273C139.296 46.8157 139.113 47.241 138.746 47.549C138.38 47.8497 137.866 48 137.206 48H134.555ZM135.523 47.131H137.206C137.558 47.131 137.83 47.054 138.02 46.9C138.218 46.746 138.317 46.5297 138.317 46.251C138.317 45.965 138.218 45.745 138.02 45.591C137.83 45.437 137.558 45.36 137.206 45.36H135.523V47.131ZM135.523 44.502H137.173C137.481 44.502 137.723 44.4287 137.899 44.282C138.083 44.1353 138.174 43.93 138.174 43.666C138.174 43.402 138.086 43.1967 137.91 43.05C137.734 42.896 137.489 42.819 137.173 42.819H135.523V44.502ZM141.151 48V41.95H142.097V45.25C142.097 45.4627 142.09 45.6863 142.075 45.921C142.068 46.1557 142.053 46.3793 142.031 46.592C142.017 46.7973 141.998 46.9733 141.976 47.12L144.418 41.95H145.683V48H144.737V44.7C144.737 44.4873 144.741 44.2637 144.748 44.029C144.763 43.7943 144.781 43.5707 144.803 43.358C144.825 43.138 144.844 42.9583 144.858 42.819L142.416 48H141.151ZM150.013 48.11C149.536 48.11 149.118 48.0147 148.759 47.824C148.407 47.6333 148.132 47.3657 147.934 47.021C147.743 46.669 147.648 46.262 147.648 45.8V44.15C147.648 43.6807 147.743 43.2737 147.934 42.929C148.132 42.5843 148.407 42.3167 148.759 42.126C149.118 41.9353 149.536 41.84 150.013 41.84C150.49 41.84 150.904 41.9353 151.256 42.126C151.615 42.3167 151.89 42.5843 152.081 42.929C152.279 43.2737 152.378 43.6807 152.378 44.15V45.217H148.616V45.8C148.616 46.2767 148.737 46.6433 148.979 46.9C149.221 47.1493 149.566 47.274 150.013 47.274C150.394 47.274 150.702 47.208 150.937 47.076C151.172 46.9367 151.315 46.7313 151.366 46.46H152.356C152.29 46.966 152.041 47.3693 151.608 47.67C151.183 47.9633 150.651 48.11 150.013 48.11ZM151.41 44.557V44.15C151.41 43.6733 151.289 43.3067 151.047 43.05C150.812 42.7933 150.468 42.665 150.013 42.665C149.566 42.665 149.221 42.7933 148.979 43.05C148.737 43.3067 148.616 43.6733 148.616 44.15V44.469H151.487L151.41 44.557ZM163.204 48.11C162.493 48.11 161.928 47.901 161.51 47.483C161.1 47.0577 160.894 46.4783 160.894 45.745V42.995C160.894 42.027 161.136 41.2827 161.62 40.762C162.104 40.234 162.797 39.97 163.699 39.97H165.239V40.96H163.699C163.105 40.96 162.654 41.136 162.346 41.488C162.038 41.8327 161.884 42.335 161.884 42.995V43.71H162.038L161.884 43.93C161.892 43.4973 162.038 43.16 162.324 42.918C162.61 42.676 162.999 42.555 163.49 42.555C164.128 42.555 164.623 42.7603 164.975 43.171C165.335 43.5817 165.514 44.1463 165.514 44.865V45.745C165.514 46.2363 165.423 46.658 165.239 47.01C165.056 47.362 164.792 47.6333 164.447 47.824C164.103 48.0147 163.688 48.11 163.204 48.11ZM163.204 47.23C163.63 47.23 163.956 47.1017 164.183 46.845C164.411 46.5883 164.524 46.2217 164.524 45.745V44.865C164.524 44.3883 164.411 44.0217 164.183 43.765C163.956 43.5083 163.63 43.38 163.204 43.38C162.779 43.38 162.453 43.5083 162.225 43.765C161.998 44.0143 161.884 44.381 161.884 44.865V45.745C161.884 46.2217 161.998 46.5883 162.225 46.845C162.453 47.1017 162.779 47.23 163.204 47.23ZM169.8 48.088C169.316 48.088 168.898 47.9963 168.546 47.813C168.194 47.6297 167.919 47.3657 167.721 47.021C167.53 46.669 167.435 46.2547 167.435 45.778V44.172C167.435 43.688 167.53 43.2737 167.721 42.929C167.919 42.5843 168.194 42.3203 168.546 42.137C168.898 41.9537 169.316 41.862 169.8 41.862C170.284 41.862 170.702 41.9537 171.054 42.137C171.406 42.3203 171.677 42.5843 171.868 42.929C172.066 43.2737 172.165 43.6843 172.165 44.161V45.778C172.165 46.2547 172.066 46.669 171.868 47.021C171.677 47.3657 171.406 47.6297 171.054 47.813C170.702 47.9963 170.284 48.088 169.8 48.088ZM169.8 47.208C170.233 47.208 170.57 47.087 170.812 46.845C171.054 46.603 171.175 46.2473 171.175 45.778V44.172C171.175 43.7027 171.054 43.347 170.812 43.105C170.57 42.863 170.233 42.742 169.8 42.742C169.375 42.742 169.037 42.863 168.788 43.105C168.546 43.347 168.425 43.7027 168.425 44.172V45.778C168.425 46.2473 168.546 46.603 168.788 46.845C169.037 47.087 169.375 47.208 169.8 47.208ZM173.371 48.077V47.153H173.569C173.906 47.153 174.141 47.021 174.273 46.757C174.412 46.493 174.485 46.02 174.493 45.338L174.559 41.95H178.662V48H177.672V42.852H175.538L175.483 45.382C175.468 46.02 175.395 46.537 175.263 46.933C175.138 47.329 174.94 47.6187 174.669 47.802C174.405 47.9853 174.056 48.077 173.624 48.077H173.371ZM182.991 48.11C182.515 48.11 182.097 48.0147 181.737 47.824C181.385 47.6333 181.11 47.3657 180.912 47.021C180.722 46.669 180.626 46.262 180.626 45.8V44.15C180.626 43.6807 180.722 43.2737 180.912 42.929C181.11 42.5843 181.385 42.3167 181.737 42.126C182.097 41.9353 182.515 41.84 182.991 41.84C183.468 41.84 183.882 41.9353 184.234 42.126C184.594 42.3167 184.869 42.5843 185.059 42.929C185.257 43.2737 185.356 43.6807 185.356 44.15V45.217H181.594V45.8C181.594 46.2767 181.715 46.6433 181.957 46.9C182.199 47.1493 182.544 47.274 182.991 47.274C183.373 47.274 183.681 47.208 183.915 47.076C184.15 46.9367 184.293 46.7313 184.344 46.46H185.334C185.268 46.966 185.019 47.3693 184.586 47.67C184.161 47.9633 183.629 48.11 182.991 48.11ZM184.388 44.557V44.15C184.388 43.6733 184.267 43.3067 184.025 43.05C183.791 42.7933 183.446 42.665 182.991 42.665C182.544 42.665 182.199 42.7933 181.957 43.05C181.715 43.3067 181.594 43.6733 181.594 44.15V44.469H184.465L184.388 44.557ZM189.587 48.11C189.11 48.11 188.692 48.0147 188.333 47.824C187.981 47.6333 187.706 47.3657 187.508 47.021C187.317 46.669 187.222 46.262 187.222 45.8V44.15C187.222 43.6807 187.317 43.2737 187.508 42.929C187.706 42.5843 187.981 42.3167 188.333 42.126C188.692 41.9353 189.11 41.84 189.587 41.84C190.064 41.84 190.478 41.9353 190.83 42.126C191.189 42.3167 191.464 42.5843 191.655 42.929C191.853 43.2737 191.952 43.6807 191.952 44.15V45.217H188.19V45.8C188.19 46.2767 188.311 46.6433 188.553 46.9C188.795 47.1493 189.14 47.274 189.587 47.274C189.968 47.274 190.276 47.208 190.511 47.076C190.746 46.9367 190.889 46.7313 190.94 46.46H191.93C191.864 46.966 191.615 47.3693 191.182 47.67C190.757 47.9633 190.225 48.11 189.587 48.11ZM190.984 44.557V44.15C190.984 43.6733 190.863 43.3067 190.621 43.05C190.386 42.7933 190.042 42.665 189.587 42.665C189.14 42.665 188.795 42.7933 188.553 43.05C188.311 43.3067 188.19 43.6733 188.19 44.15V44.469H191.061L190.984 44.557ZM200.546 48V41.95H201.536V44.447H202.57L204.33 41.95H205.463L203.428 44.832L205.496 48H204.341L202.581 45.305H201.536V48H200.546ZM209.374 48.088C208.89 48.088 208.472 47.9963 208.12 47.813C207.768 47.6297 207.493 47.3657 207.295 47.021C207.105 46.669 207.009 46.2547 207.009 45.778V44.172C207.009 43.688 207.105 43.2737 207.295 42.929C207.493 42.5843 207.768 42.3203 208.12 42.137C208.472 41.9537 208.89 41.862 209.374 41.862C209.858 41.862 210.276 41.9537 210.628 42.137C210.98 42.3203 211.252 42.5843 211.442 42.929C211.64 43.2737 211.739 43.6843 211.739 44.161V45.778C211.739 46.2547 211.64 46.669 211.442 47.021C211.252 47.3657 210.98 47.6297 210.628 47.813C210.276 47.9963 209.858 48.088 209.374 48.088ZM209.374 47.208C209.807 47.208 210.144 47.087 210.386 46.845C210.628 46.603 210.749 46.2473 210.749 45.778V44.172C210.749 43.7027 210.628 43.347 210.386 43.105C210.144 42.863 209.807 42.742 209.374 42.742C208.949 42.742 208.612 42.863 208.362 43.105C208.12 43.347 207.999 43.7027 207.999 44.172V45.778C207.999 46.2473 208.12 46.603 208.362 46.845C208.612 47.087 208.949 47.208 209.374 47.208ZM213.506 48V41.95H214.848L215.64 44.271C215.721 44.5057 215.794 44.7403 215.86 44.975C215.926 45.2023 215.974 45.3783 216.003 45.503C216.032 45.3783 216.076 45.2023 216.135 44.975C216.201 44.7403 216.271 44.502 216.344 44.26L217.092 41.95H218.434V48H217.477V47.065C217.477 46.735 217.481 46.3757 217.488 45.987C217.495 45.5983 217.503 45.206 217.51 44.81C217.525 44.414 217.539 44.04 217.554 43.688C217.569 43.3287 217.58 43.0133 217.587 42.742L216.509 46.185H215.464L214.375 42.764C214.39 43.094 214.401 43.5047 214.408 43.996C214.423 44.4873 214.434 45.0007 214.441 45.536C214.456 46.0713 214.463 46.581 214.463 47.065V48H213.506ZM222.126 49.98V48C221.422 48 220.868 47.802 220.465 47.406C220.061 47.01 219.86 46.4673 219.86 45.778V44.15C219.86 43.468 220.061 42.9327 220.465 42.544C220.875 42.148 221.429 41.95 222.126 41.95V39.97H223.006V41.95C223.71 41.95 224.263 42.148 224.667 42.544C225.07 42.9327 225.272 43.468 225.272 44.15V45.778C225.272 46.4673 225.07 47.01 224.667 47.406C224.263 47.802 223.71 48 223.006 48V49.98H222.126ZM222.148 47.219V42.731C221.722 42.731 221.389 42.8557 221.147 43.105C220.905 43.3543 220.784 43.7027 220.784 44.15V45.778C220.784 46.2253 220.905 46.5773 221.147 46.834C221.389 47.0907 221.722 47.219 222.148 47.219ZM222.984 47.219C223.416 47.219 223.75 47.0907 223.985 46.834C224.227 46.5773 224.348 46.2253 224.348 45.778V44.15C224.348 43.7027 224.227 43.3543 223.985 43.105C223.75 42.8557 223.416 42.731 222.984 42.731V47.219ZM229.161 48.088C228.677 48.088 228.259 47.9963 227.907 47.813C227.555 47.6297 227.28 47.3657 227.082 47.021C226.892 46.669 226.796 46.2547 226.796 45.778V44.172C226.796 43.688 226.892 43.2737 227.082 42.929C227.28 42.5843 227.555 42.3203 227.907 42.137C228.259 41.9537 228.677 41.862 229.161 41.862C229.645 41.862 230.063 41.9537 230.415 42.137C230.767 42.3203 231.039 42.5843 231.229 42.929C231.427 43.2737 231.526 43.6843 231.526 44.161V45.778C231.526 46.2547 231.427 46.669 231.229 47.021C231.039 47.3657 230.767 47.6297 230.415 47.813C230.063 47.9963 229.645 48.088 229.161 48.088ZM229.161 47.208C229.594 47.208 229.931 47.087 230.173 46.845C230.415 46.603 230.536 46.2473 230.536 45.778V44.172C230.536 43.7027 230.415 43.347 230.173 43.105C229.931 42.863 229.594 42.742 229.161 42.742C228.736 42.742 228.399 42.863 228.149 43.105C227.907 43.347 227.786 43.7027 227.786 44.172V45.778C227.786 46.2473 227.907 46.603 228.149 46.845C228.399 47.087 228.736 47.208 229.161 47.208ZM233.469 49.98V41.95H234.459V43.105H234.657L234.459 43.336C234.459 42.874 234.609 42.511 234.91 42.247C235.218 41.9757 235.621 41.84 236.12 41.84C236.729 41.84 237.213 42.0417 237.572 42.445C237.939 42.841 238.122 43.3873 238.122 44.084V45.855C238.122 46.317 238.038 46.7167 237.869 47.054C237.708 47.3913 237.477 47.6517 237.176 47.835C236.883 48.0183 236.531 48.11 236.12 48.11C235.629 48.11 235.229 47.9743 234.921 47.703C234.613 47.4317 234.459 47.0687 234.459 46.614L234.657 46.845H234.437L234.459 48.22V49.98H233.469ZM235.79 47.252C236.208 47.252 236.534 47.1273 236.769 46.878C237.011 46.6287 237.132 46.2693 237.132 45.8V44.15C237.132 43.6807 237.011 43.3213 236.769 43.072C236.534 42.8227 236.208 42.698 235.79 42.698C235.387 42.698 235.064 42.8263 234.822 43.083C234.58 43.3397 234.459 43.6953 234.459 44.15V45.8C234.459 46.2547 234.58 46.6103 234.822 46.867C235.064 47.1237 235.387 47.252 235.79 47.252ZM241.858 48V42.819H239.658V41.95H245.048V42.819H242.848V48H241.858ZM246.682 48V41.95H247.672V44.469H250.224V41.95H251.214V48H250.224V45.371H247.672V48H246.682ZM252.959 48V41.95H253.883V44.172H254.378C255.031 44.172 255.544 44.3443 255.918 44.689C256.299 45.0263 256.49 45.492 256.49 46.086C256.49 46.68 256.299 47.1493 255.918 47.494C255.544 47.8313 255.031 48 254.378 48H252.959ZM253.883 47.208H254.378C254.767 47.208 255.067 47.109 255.28 46.911C255.5 46.713 255.61 46.438 255.61 46.086C255.61 45.734 255.5 45.459 255.28 45.261C255.067 45.063 254.767 44.964 254.378 44.964H253.883V47.208ZM257.205 48V41.95H258.129V48H257.205ZM259.676 48V41.95H261.018L261.81 44.271C261.891 44.5057 261.964 44.7403 262.03 44.975C262.096 45.2023 262.144 45.3783 262.173 45.503C262.202 45.3783 262.246 45.2023 262.305 44.975C262.371 44.7403 262.441 44.502 262.514 44.26L263.262 41.95H264.604V48H263.647V47.065C263.647 46.735 263.651 46.3757 263.658 45.987C263.665 45.5983 263.673 45.206 263.68 44.81C263.695 44.414 263.709 44.04 263.724 43.688C263.739 43.3287 263.75 43.0133 263.757 42.742L262.679 46.185H261.634L260.545 42.764C260.56 43.094 260.571 43.5047 260.578 43.996C260.593 44.4873 260.604 45.0007 260.611 45.536C260.626 46.0713 260.633 46.581 260.633 47.065V48H259.676ZM94.9813 63V56.95H95.9273V60.25C95.9273 60.4627 95.9199 60.6863 95.9053 60.921C95.8979 61.1557 95.8833 61.3793 95.8613 61.592C95.8466 61.7973 95.8283 61.9733 95.8063 62.12L98.2483 56.95H99.5133V63H98.5673V59.7C98.5673 59.4873 98.5709 59.2637 98.5783 59.029C98.5929 58.7943 98.6113 58.5707 98.6333 58.358C98.6553 58.138 98.6736 57.9583 98.6883 57.819L96.2463 63H94.9813ZM108.173 63V56.95H112.705V63H111.715V57.852H109.163V63H108.173ZM117.034 63.11C116.558 63.11 116.14 63.0147 115.78 62.824C115.428 62.6333 115.153 62.3657 114.955 62.021C114.765 61.669 114.669 61.262 114.669 60.8V59.15C114.669 58.6807 114.765 58.2737 114.955 57.929C115.153 57.5843 115.428 57.3167 115.78 57.126C116.14 56.9353 116.558 56.84 117.034 56.84C117.511 56.84 117.925 56.9353 118.277 57.126C118.637 57.3167 118.912 57.5843 119.102 57.929C119.3 58.2737 119.399 58.6807 119.399 59.15V60.217H115.637V60.8C115.637 61.2767 115.758 61.6433 116 61.9C116.242 62.1493 116.587 62.274 117.034 62.274C117.416 62.274 117.724 62.208 117.958 62.076C118.193 61.9367 118.336 61.7313 118.387 61.46H119.377C119.311 61.966 119.062 62.3693 118.629 62.67C118.204 62.9633 117.672 63.11 117.034 63.11ZM118.431 59.557V59.15C118.431 58.6733 118.31 58.3067 118.068 58.05C117.834 57.7933 117.489 57.665 117.034 57.665C116.587 57.665 116.242 57.7933 116 58.05C115.758 58.3067 115.637 58.6733 115.637 59.15V59.469H118.508L118.431 59.557ZM121.342 64.98V56.95H122.332V58.105H122.53L122.332 58.336C122.332 57.874 122.482 57.511 122.783 57.247C123.091 56.9757 123.494 56.84 123.993 56.84C124.602 56.84 125.086 57.0417 125.445 57.445C125.812 57.841 125.995 58.3873 125.995 59.084V60.855C125.995 61.317 125.911 61.7167 125.742 62.054C125.581 62.3913 125.35 62.6517 125.049 62.835C124.756 63.0183 124.404 63.11 123.993 63.11C123.502 63.11 123.102 62.9743 122.794 62.703C122.486 62.4317 122.332 62.0687 122.332 61.614L122.53 61.845H122.31L122.332 63.22V64.98H121.342ZM123.663 62.252C124.081 62.252 124.407 62.1273 124.642 61.878C124.884 61.6287 125.005 61.2693 125.005 60.8V59.15C125.005 58.6807 124.884 58.3213 124.642 58.072C124.407 57.8227 124.081 57.698 123.663 57.698C123.26 57.698 122.937 57.8263 122.695 58.083C122.453 58.3397 122.332 58.6953 122.332 59.15V60.8C122.332 61.2547 122.453 61.6103 122.695 61.867C122.937 62.1237 123.26 62.252 123.663 62.252ZM130.248 63.11C129.764 63.11 129.338 63.0183 128.972 62.835C128.612 62.6517 128.334 62.3877 128.136 62.043C127.938 61.691 127.839 61.2767 127.839 60.8V59.15C127.839 58.666 127.938 58.2517 128.136 57.907C128.334 57.5623 128.612 57.2983 128.972 57.115C129.338 56.9317 129.764 56.84 130.248 56.84C130.944 56.84 131.505 57.027 131.931 57.401C132.356 57.775 132.58 58.2847 132.602 58.93H131.612C131.59 58.5413 131.458 58.2443 131.216 58.039C130.981 57.8263 130.658 57.72 130.248 57.72C129.815 57.72 129.47 57.8447 129.214 58.094C128.957 58.336 128.829 58.6843 128.829 59.139V60.8C128.829 61.2547 128.957 61.6067 129.214 61.856C129.47 62.1053 129.815 62.23 130.248 62.23C130.658 62.23 130.981 62.1237 131.216 61.911C131.458 61.6983 131.59 61.4013 131.612 61.02H132.602C132.58 61.6653 132.356 62.175 131.931 62.549C131.505 62.923 130.944 63.11 130.248 63.11ZM136.821 63.088C136.337 63.088 135.919 62.9963 135.567 62.813C135.215 62.6297 134.94 62.3657 134.742 62.021C134.552 61.669 134.456 61.2547 134.456 60.778V59.172C134.456 58.688 134.552 58.2737 134.742 57.929C134.94 57.5843 135.215 57.3203 135.567 57.137C135.919 56.9537 136.337 56.862 136.821 56.862C137.305 56.862 137.723 56.9537 138.075 57.137C138.427 57.3203 138.699 57.5843 138.889 57.929C139.087 58.2737 139.186 58.6843 139.186 59.161V60.778C139.186 61.2547 139.087 61.669 138.889 62.021C138.699 62.3657 138.427 62.6297 138.075 62.813C137.723 62.9963 137.305 63.088 136.821 63.088ZM136.821 62.208C137.254 62.208 137.591 62.087 137.833 61.845C138.075 61.603 138.196 61.2473 138.196 60.778V59.172C138.196 58.7027 138.075 58.347 137.833 58.105C137.591 57.863 137.254 57.742 136.821 57.742C136.396 57.742 136.059 57.863 135.809 58.105C135.567 58.347 135.446 58.7027 135.446 59.172V60.778C135.446 61.2473 135.567 61.603 135.809 61.845C136.059 62.087 136.396 62.208 136.821 62.208ZM141.151 63V56.95H142.141V59.469H144.693V56.95H145.683V63H144.693V60.371H142.141V63H141.151ZM149.485 63.11C148.847 63.11 148.345 62.9487 147.978 62.626C147.611 62.296 147.428 61.8523 147.428 61.295C147.428 60.7303 147.611 60.2867 147.978 59.964C148.345 59.6413 148.84 59.48 149.463 59.48H151.333V58.875C151.333 58.501 151.219 58.215 150.992 58.017C150.772 57.8117 150.457 57.709 150.046 57.709C149.687 57.709 149.386 57.786 149.144 57.94C148.902 58.0867 148.763 58.2883 148.726 58.545H147.736C147.802 58.0243 148.048 57.61 148.473 57.302C148.898 56.994 149.43 56.84 150.068 56.84C150.765 56.84 151.315 57.0197 151.718 57.379C152.121 57.7383 152.323 58.226 152.323 58.842V63H151.355V61.845H151.19L151.355 61.68C151.355 62.12 151.183 62.4683 150.838 62.725C150.501 62.9817 150.05 63.11 149.485 63.11ZM149.727 62.329C150.196 62.329 150.581 62.2117 150.882 61.977C151.183 61.7423 151.333 61.4417 151.333 61.075V60.217H149.485C149.155 60.217 148.895 60.3087 148.704 60.492C148.513 60.6753 148.418 60.9247 148.418 61.24C148.418 61.5773 148.532 61.845 148.759 62.043C148.994 62.2337 149.316 62.329 149.727 62.329ZM153.584 63.077V62.153H153.782C154.119 62.153 154.354 62.021 154.486 61.757C154.625 61.493 154.698 61.02 154.706 60.338L154.772 56.95H158.875V63H157.885V57.852H155.751L155.696 60.382C155.681 61.02 155.608 61.537 155.476 61.933C155.351 62.329 155.153 62.6187 154.882 62.802C154.618 62.9853 154.269 63.077 153.837 63.077H153.584ZM160.938 63V56.95H161.884V60.25C161.884 60.4627 161.877 60.6863 161.862 60.921C161.855 61.1557 161.84 61.3793 161.818 61.592C161.804 61.7973 161.785 61.9733 161.763 62.12L164.205 56.95H165.47V63H164.524V59.7C164.524 59.4873 164.528 59.2637 164.535 59.029C164.55 58.7943 164.568 58.5707 164.59 58.358C164.612 58.138 164.631 57.9583 164.645 57.819L162.203 63H160.938ZM169.514 63.077C168.876 63.077 168.352 62.9413 167.941 62.67C167.538 62.3987 167.296 62.032 167.215 61.57H168.26C168.311 61.7533 168.447 61.9037 168.667 62.021C168.894 62.1383 169.177 62.197 169.514 62.197H170.031C170.39 62.197 170.669 62.1127 170.867 61.944C171.072 61.7753 171.175 61.5553 171.175 61.284C171.175 60.9907 171.076 60.7597 170.878 60.591C170.687 60.4223 170.405 60.338 170.031 60.338H168.7V59.48H169.998C170.335 59.48 170.592 59.3993 170.768 59.238C170.944 59.0767 171.032 58.864 171.032 58.6C171.032 58.4167 170.992 58.2627 170.911 58.138C170.838 58.0133 170.724 57.918 170.57 57.852C170.416 57.786 170.229 57.753 170.009 57.753H169.459C169.166 57.753 168.913 57.819 168.7 57.951C168.487 58.083 168.359 58.2443 168.315 58.435H167.27C167.343 57.9803 167.582 57.6063 167.985 57.313C168.388 57.0197 168.88 56.873 169.459 56.873H170.009C170.442 56.873 170.812 56.9427 171.12 57.082C171.428 57.214 171.663 57.4047 171.824 57.654C171.993 57.9033 172.077 58.2003 172.077 58.545C172.077 58.9043 171.96 59.2013 171.725 59.436C171.49 59.6633 171.16 59.7917 170.735 59.821V59.865C171.256 59.9017 171.633 60.041 171.868 60.283C172.103 60.525 172.22 60.8733 172.22 61.328C172.22 61.8633 172.022 62.2887 171.626 62.604C171.23 62.9193 170.698 63.077 170.031 63.077H169.514ZM174.13 63V56.95H175.076V60.25C175.076 60.4627 175.068 60.6863 175.054 60.921C175.046 61.1557 175.032 61.3793 175.01 61.592C174.995 61.7973 174.977 61.9733 174.955 62.12L177.397 56.95H178.662V63H177.716V59.7C177.716 59.4873 177.719 59.2637 177.727 59.029C177.741 58.7943 177.76 58.5707 177.782 58.358C177.804 58.138 177.822 57.9583 177.837 57.819L175.395 63H174.13ZM180.703 64.98V56.95H181.693V58.105H181.891L181.693 58.336C181.693 57.874 181.844 57.511 182.144 57.247C182.452 56.9757 182.856 56.84 183.354 56.84C183.963 56.84 184.447 57.0417 184.806 57.445C185.173 57.841 185.356 58.3873 185.356 59.084V60.855C185.356 61.317 185.272 61.7167 185.103 62.054C184.942 62.3913 184.711 62.6517 184.41 62.835C184.117 63.0183 183.765 63.11 183.354 63.11C182.863 63.11 182.463 62.9743 182.155 62.703C181.847 62.4317 181.693 62.0687 181.693 61.614L181.891 61.845H181.671L181.693 63.22V64.98H180.703ZM183.024 62.252C183.442 62.252 183.769 62.1273 184.003 61.878C184.245 61.6287 184.366 61.2693 184.366 60.8V59.15C184.366 58.6807 184.245 58.3213 184.003 58.072C183.769 57.8227 183.442 57.698 183.024 57.698C182.621 57.698 182.298 57.8263 182.056 58.083C181.814 58.3397 181.693 58.6953 181.693 59.15V60.8C181.693 61.2547 181.814 61.6103 182.056 61.867C182.298 62.1237 182.621 62.252 183.024 62.252ZM189.587 63.088C189.103 63.088 188.685 62.9963 188.333 62.813C187.981 62.6297 187.706 62.3657 187.508 62.021C187.317 61.669 187.222 61.2547 187.222 60.778V59.172C187.222 58.688 187.317 58.2737 187.508 57.929C187.706 57.5843 187.981 57.3203 188.333 57.137C188.685 56.9537 189.103 56.862 189.587 56.862C190.071 56.862 190.489 56.9537 190.841 57.137C191.193 57.3203 191.464 57.5843 191.655 57.929C191.853 58.2737 191.952 58.6843 191.952 59.161V60.778C191.952 61.2547 191.853 61.669 191.655 62.021C191.464 62.3657 191.193 62.6297 190.841 62.813C190.489 62.9963 190.071 63.088 189.587 63.088ZM189.587 62.208C190.02 62.208 190.357 62.087 190.599 61.845C190.841 61.603 190.962 61.2473 190.962 60.778V59.172C190.962 58.7027 190.841 58.347 190.599 58.105C190.357 57.863 190.02 57.742 189.587 57.742C189.162 57.742 188.824 57.863 188.575 58.105C188.333 58.347 188.212 58.7027 188.212 59.172V60.778C188.212 61.2473 188.333 61.603 188.575 61.845C188.824 62.087 189.162 62.208 189.587 62.208ZM193.917 63V56.95H196.535C197.165 56.95 197.653 57.093 197.998 57.379C198.342 57.6577 198.515 58.05 198.515 58.556C198.515 58.974 198.372 59.3113 198.086 59.568C197.8 59.8173 197.422 59.942 196.953 59.942V59.854C197.466 59.854 197.877 59.9823 198.185 60.239C198.5 60.4957 198.658 60.8403 198.658 61.273C198.658 61.8157 198.474 62.241 198.108 62.549C197.741 62.8497 197.228 63 196.568 63H193.917ZM194.885 62.131H196.568C196.92 62.131 197.191 62.054 197.382 61.9C197.58 61.746 197.679 61.5297 197.679 61.251C197.679 60.965 197.58 60.745 197.382 60.591C197.191 60.437 196.92 60.36 196.568 60.36H194.885V62.131ZM194.885 59.502H196.535C196.843 59.502 197.085 59.4287 197.261 59.282C197.444 59.1353 197.536 58.93 197.536 58.666C197.536 58.402 197.448 58.1967 197.272 58.05C197.096 57.896 196.85 57.819 196.535 57.819H194.885V59.502ZM202.251 63.11C201.613 63.11 201.11 62.9487 200.744 62.626C200.377 62.296 200.194 61.8523 200.194 61.295C200.194 60.7303 200.377 60.2867 200.744 59.964C201.11 59.6413 201.605 59.48 202.229 59.48H204.099V58.875C204.099 58.501 203.985 58.215 203.758 58.017C203.538 57.8117 203.222 57.709 202.812 57.709C202.452 57.709 202.152 57.786 201.91 57.94C201.668 58.0867 201.528 58.2883 201.492 58.545H200.502C200.568 58.0243 200.813 57.61 201.239 57.302C201.664 56.994 202.196 56.84 202.834 56.84C203.53 56.84 204.08 57.0197 204.484 57.379C204.887 57.7383 205.089 58.226 205.089 58.842V63H204.121V61.845H203.956L204.121 61.68C204.121 62.12 203.948 62.4683 203.604 62.725C203.266 62.9817 202.815 63.11 202.251 63.11ZM202.493 62.329C202.962 62.329 203.347 62.2117 203.648 61.977C203.948 61.7423 204.099 61.4417 204.099 61.075V60.217H202.251C201.921 60.217 201.66 60.3087 201.47 60.492C201.279 60.6753 201.184 60.9247 201.184 61.24C201.184 61.5773 201.297 61.845 201.525 62.043C201.759 62.2337 202.082 62.329 202.493 62.329ZM207.108 63V56.95H208.098V59.469H210.65V56.95H211.64V63H210.65V60.371H208.098V63H207.108ZM213.704 63V56.95H214.694V59.469H217.246V56.95H218.236V63H217.246V60.371H214.694V63H213.704ZM219.981 63V56.95H220.905V59.172H221.4C222.052 59.172 222.566 59.3443 222.94 59.689C223.321 60.0263 223.512 60.492 223.512 61.086C223.512 61.68 223.321 62.1493 222.94 62.494C222.566 62.8313 222.052 63 221.4 63H219.981ZM220.905 62.208H221.4C221.788 62.208 222.089 62.109 222.302 61.911C222.522 61.713 222.632 61.438 222.632 61.086C222.632 60.734 222.522 60.459 222.302 60.261C222.089 60.063 221.788 59.964 221.4 59.964H220.905V62.208ZM224.227 63V56.95H225.151V63H224.227ZM226.697 63V56.95H228.039L228.831 59.271C228.912 59.5057 228.985 59.7403 229.051 59.975C229.117 60.2023 229.165 60.3783 229.194 60.503C229.224 60.3783 229.268 60.2023 229.326 59.975C229.392 59.7403 229.462 59.502 229.535 59.26L230.283 56.95H231.625V63H230.668V62.065C230.668 61.735 230.672 61.3757 230.679 60.987C230.687 60.5983 230.694 60.206 230.701 59.81C230.716 59.414 230.731 59.04 230.745 58.688C230.76 58.3287 230.771 58.0133 230.778 57.742L229.7 61.185H228.655L227.566 57.764C227.581 58.094 227.592 58.5047 227.599 58.996C227.614 59.4873 227.625 60.0007 227.632 60.536C227.647 61.0713 227.654 61.581 227.654 62.065V63H226.697ZM235.757 63.11C235.478 63.11 235.255 63.0293 235.086 62.868C234.925 62.7067 234.844 62.4903 234.844 62.219C234.844 61.933 234.925 61.7057 235.086 61.537C235.255 61.3683 235.478 61.284 235.757 61.284C236.036 61.284 236.256 61.3683 236.417 61.537C236.586 61.7057 236.67 61.933 236.67 62.219C236.67 62.4903 236.586 62.7067 236.417 62.868C236.256 63.0293 236.036 63.11 235.757 63.11Z" fill="white"/>
<rect x="0.5" y="0.5" width="328" height="70" rx="10.5" stroke="#CCEC60"/>
</svg>
