<svg width="190" height="140" fill="none" xmlns="http://www.w3.org/2000/svg"><g filter="url(#filter0_ii_2014_23)"><rect x="20" y="12" width="170" height="78" rx="17.073" fill="#223B38"/></g><g filter="url(#filter1_f_2014_23)"><rect x="76" y="72" width="47" height="47" rx="23.5" transform="rotate(-180 76 72)" fill="url(#paint0_linear_2014_23)" fill-opacity=".6"/></g><g filter="url(#filter2_dii_2014_23)"><rect x="75" y="71" width="45" height="45" rx="22.5" transform="rotate(-180 75 71)" fill="#223B38"/></g><path d="M58 58l-11-9.5L58 39" stroke="#CCEC60" stroke-width="2"/><path d="M96 43.1c-.507 0-.95-.083-1.33-.25a2.134 2.134 0 01-.9-.71 2.052 2.052 0 01-.37-1.09h1.5a.742.742 0 00.33.55c.2.133.457.2.77.2.327 0 .59-.087.79-.26a.853.853 0 00.31-.67.84.84 0 00-.29-.67c-.193-.167-.463-.25-.81-.25h-1.05V38.6H96c.333 0 .593-.087.78-.26a.86.86 0 00.28-.64.686.686 0 00-.29-.59c-.187-.14-.443-.21-.77-.21a1.16 1.16 0 00-.69.2.857.857 0 00-.35.55h-1.5c.04-.42.173-.783.4-1.09a2.22 2.22 0 01.9-.71 3.2 3.2 0 011.3-.25c.733 0 1.317.157 1.75.47.44.313.66.743.66 1.29 0 .353-.08.667-.24.94a1.612 1.612 0 01-.67.63c-.293.147-.647.22-1.06.22V39c.42-.007.787.067 1.1.22.32.153.567.373.74.66.173.28.26.607.26.98 0 .447-.107.84-.32 1.18a2.138 2.138 0 01-.91.78c-.387.187-.843.28-1.37.28zm5.923 0c-.487 0-.91-.09-1.27-.27a2.091 2.091 0 01-.84-.77 2.27 2.27 0 01-.29-1.16v-3.1c0-.44.096-.823.29-1.15a2 2 0 01.84-.77c.36-.187.783-.28 1.27-.28.493 0 .916.093 1.27.28.36.18.636.437.83.77.2.327.3.71.3 1.15v3.1c0 .44-.1.827-.3 1.16-.194.327-.47.583-.83.77-.354.18-.777.27-1.27.27zm0-1.3c.3 0 .523-.077.67-.23.153-.16.23-.383.23-.67v-3.1c0-.293-.074-.517-.22-.67-.147-.153-.374-.23-.68-.23-.307 0-.534.077-.68.23-.147.153-.22.377-.22.67v3.1c0 .287.073.51.22.67.153.153.38.23.68.23zm3.582 1.2v-7.3h2.35c.74 0 1.33.17 1.77.51.44.333.66.787.66 1.36 0 .32-.077.6-.23.84a1.52 1.52 0 01-.6.56c-.247.133-.517.2-.81.2v.03c.327-.007.623.053.89.18.273.127.493.317.66.57.167.253.25.567.25.94 0 .427-.103.8-.31 1.12a1.98 1.98 0 01-.86.73c-.373.173-.817.26-1.33.26h-2.44zm1.45-1.21h.93c.327 0 .583-.087.77-.26.187-.173.28-.413.28-.72s-.093-.547-.28-.72c-.187-.18-.443-.27-.77-.27h-.93v1.97zm0-3.15h.88c.293 0 .523-.077.69-.23.167-.16.25-.373.25-.64 0-.273-.083-.483-.25-.63-.167-.153-.397-.23-.69-.23h-.88v1.73zm4.413 4.36v-7.3h1.32v3.2c0 .227-.01.49-.03.79a41.604 41.604 0 01-.11 1.66l1.87-5.65h1.75V43h-1.32v-3c0-.233.006-.51.02-.83.02-.32.043-.643.07-.97l.07-.85-1.89 5.65h-1.75zm11.465 1.4v-2.68h.31a4.588 4.588 0 00.45-1.22c.06-.28.09-.58.09-.9l.06-3.9h4.05v6.02h.6v2.68h-1.4V43h-2.76v1.4h-1.4zm1.78-2.68h1.78v-4.74h-1.27l-.04 2.61a5.127 5.127 0 01-.17 1.28 5.19 5.19 0 01-.3.85zm4.582 1.28v-7.3h2.49c.514 0 .96.097 1.34.29.387.193.684.463.89.81.214.347.32.753.32 1.22 0 .46-.106.867-.32 1.22a2.18 2.18 0 01-.89.81c-.38.193-.826.29-1.34.29h-.99V43h-1.5zm1.5-4.01h.99c.32 0 .574-.087.76-.26.194-.18.29-.417.29-.71s-.096-.527-.29-.7c-.186-.18-.44-.27-.76-.27h-.99v1.94zm5.373 4.01l.75-1.85-2.11-5.45h1.62l.96 2.97c.053.16.1.343.14.55.047.207.08.377.1.51.013-.133.037-.303.07-.51a5.14 5.14 0 01.13-.55l.91-2.97h1.57l-2.57 7.3h-1.57zm7.313.1c-.507 0-.95-.083-1.33-.25a2.134 2.134 0 01-.9-.71 2.046 2.046 0 01-.37-1.09h1.5a.738.738 0 00.33.55c.2.133.456.2.77.2.326 0 .59-.087.79-.26a.855.855 0 00.31-.67.84.84 0 00-.29-.67c-.194-.167-.464-.25-.81-.25h-1.05V38.6h1.05c.333 0 .593-.087.78-.26a.862.862 0 00.28-.64.687.687 0 00-.29-.59c-.187-.14-.444-.21-.77-.21-.274 0-.504.067-.69.2a.853.853 0 00-.35.55h-1.5c.04-.42.173-.783.4-1.09a2.21 2.21 0 01.9-.71 3.2 3.2 0 011.3-.25c.733 0 1.316.157 1.75.47.44.313.66.743.66 1.29 0 .353-.08.667-.24.94a1.618 1.618 0 01-.67.63c-.294.147-.647.22-1.06.22V39c.42-.007.786.067 1.1.22.32.153.566.373.74.66.173.28.26.607.26.98 0 .447-.107.84-.32 1.18a2.143 2.143 0 01-.91.78c-.387.187-.844.28-1.37.28zm3.722-.1v-7.3h4.5v1.28h-3.03v1.64h2.68v1.28h-2.68v1.82h3.03V43h-4.5zm5.723 0v-7.3h1.32v3.2c0 .227-.01.49-.03.79a41.604 41.604 0 01-.11 1.66l1.87-5.65h1.75V43h-1.32v-3c0-.233.006-.51.02-.83.02-.32.043-.643.07-.97l.07-.85-1.89 5.65h-1.75zm2.4-8c-.547 0-.99-.137-1.33-.41-.34-.28-.51-.643-.51-1.09h1.15c0 .187.063.34.19.46a.72.72 0 00.5.17c.213 0 .383-.057.51-.17a.608.608 0 00.19-.46h1.15c0 .447-.17.81-.51 1.09-.34.273-.787.41-1.34.41zM93.6 63v-7.3h1.32v3.2c0 .227-.01.49-.03.79a37.489 37.489 0 01-.11 1.66l1.87-5.65h1.75V63h-1.32v-3c0-.233.007-.51.02-.83.02-.32.043-.643.07-.97l.07-.85L95.35 63H93.6zm14.245.1c-.507 0-.95-.083-1.33-.25a2.134 2.134 0 01-.9-.71 2.055 2.055 0 01-.37-1.09h1.5a.744.744 0 00.33.55c.2.133.457.2.77.2.327 0 .59-.087.79-.26a.852.852 0 00.31-.67.84.84 0 00-.29-.67c-.193-.167-.463-.25-.81-.25h-1.05V58.6h1.05c.333 0 .593-.087.78-.26a.858.858 0 00.28-.64.687.687 0 00-.29-.59c-.187-.14-.443-.21-.77-.21a1.16 1.16 0 00-.69.2.857.857 0 00-.35.55h-1.5c.04-.42.173-.783.4-1.09.227-.307.527-.543.9-.71a3.2 3.2 0 011.3-.25c.733 0 1.317.157 1.75.47.44.313.66.743.66 1.29 0 .353-.08.667-.24.94a1.612 1.612 0 01-.67.63c-.293.147-.647.22-1.06.22V59c.42-.007.787.067 1.1.22.32.153.567.373.74.66.173.28.26.607.26.98 0 .447-.107.84-.32 1.18a2.138 2.138 0 01-.91.78c-.387.187-.843.28-1.37.28zm3.173-.1l1.79-7.3h1.9l1.81 7.3h-1.53l-.35-1.65h-1.74l-.35 1.65h-1.53zm2.13-2.85h1.23l-.35-1.76a27.168 27.168 0 00-.15-.75l-.11-.59-.11.58c-.04.247-.087.497-.14.75l-.37 1.77zM117.35 63v-7.3h2.49c.514 0 .96.097 1.34.29.387.193.684.463.89.81.214.347.32.753.32 1.22 0 .46-.106.867-.32 1.22a2.18 2.18 0 01-.89.81c-.38.193-.826.29-1.34.29h-.99V63h-1.5zm1.5-4.01h.99c.32 0 .574-.087.76-.26.194-.18.29-.417.29-.71s-.096-.527-.29-.7c-.186-.18-.44-.27-.76-.27h-.99v1.94zm4.013 4.01l1.79-7.3h1.9l1.81 7.3h-1.53l-.35-1.65h-1.74l-.35 1.65h-1.53zm2.13-2.85h1.23l-.35-1.76a27.168 27.168 0 00-.15-.75l-.11-.59-.11.58c-.04.247-.087.497-.14.75l-.37 1.77zm4.202 2.85v-7.3h4.62v1.4h-3.17v1.46h.98c.507 0 .947.093 1.32.28.374.18.664.437.87.77.214.327.32.713.32 1.16 0 .447-.106.837-.32 1.17a2.097 2.097 0 01-.87.78c-.373.187-.81.28-1.31.28h-2.44zm1.45-1.25h.99c.307 0 .55-.087.73-.26.18-.173.27-.407.27-.7 0-.3-.09-.537-.27-.71-.18-.18-.423-.27-.73-.27h-.99v1.94zm4.063 1.25l1.79-7.3h1.9l1.81 7.3h-1.53l-.35-1.65h-1.74l-.35 1.65h-1.53zm2.13-2.85h1.23l-.35-1.76a27.168 27.168 0 00-.15-.75l-.11-.59-.11.58c-.04.247-.087.497-.14.75l-.37 1.77zm5.793 2.85v-5.9h-1.85v-1.4h5.2v1.4h-1.85V63h-1.5zm4.072 0v-7.3h1.25v2.85h.25c.593 0 1.057.17 1.39.51.34.34.51.807.51 1.4v.64c0 .587-.17 1.05-.51 1.39-.333.34-.797.51-1.39.51h-1.5zm1.25-1.15h.25c.22 0 .39-.063.51-.19.127-.133.19-.323.19-.57v-.61c0-.253-.063-.447-.19-.58-.12-.133-.29-.2-.51-.2h-.25v2.15zm2.7 1.15v-7.3h1.25V63h-1.25zm2.233 0v-7.3h2.35c.74 0 1.33.17 1.77.51.44.333.66.787.66 1.36 0 .32-.077.6-.23.84a1.52 1.52 0 01-.6.56c-.247.133-.517.2-.81.2v.03c.326-.007.623.053.89.18.273.127.493.317.66.57.166.253.25.567.25.94 0 .427-.104.8-.31 1.12a1.98 1.98 0 01-.86.73c-.374.173-.817.26-1.33.26h-2.44zm1.45-1.21h.93c.326 0 .583-.087.77-.26.186-.173.28-.413.28-.72s-.094-.547-.28-.72c-.187-.18-.444-.27-.77-.27h-.93v1.97zm0-3.15h.88c.293 0 .523-.077.69-.23.166-.16.25-.373.25-.64 0-.273-.084-.483-.25-.63-.167-.153-.397-.23-.69-.23h-.88v1.73zm4.062 4.36l1.79-7.3h1.9l1.81 7.3h-1.53l-.35-1.65h-1.74l-.35 1.65h-1.53zm2.13-2.85h1.23l-.35-1.76a21.338 21.338 0 00-.15-.75c-.046-.253-.083-.45-.11-.59l-.11.58c-.04.247-.086.497-.14.75l-.37 1.77zm4.143 2.85v-7.3h1.32v3.2c0 .227-.01.49-.03.79a41.604 41.604 0 01-.11 1.66l1.87-5.65h1.75V63h-1.32v-3c0-.233.006-.51.02-.83.02-.32.043-.643.07-.97l.07-.85-1.89 5.65h-1.75zm2.4-8c-.547 0-.99-.137-1.33-.41-.34-.28-.51-.643-.51-1.09h1.15c0 .187.063.34.19.46a.72.72 0 00.5.17c.213 0 .383-.057.51-.17a.608.608 0 00.19-.46h1.15c0 .447-.17.81-.51 1.09-.34.273-.787.41-1.34.41z" fill="#fff"/><defs><filter id="filter0_ii_2014_23" x=".366" y="-4.22" width="207.561" height="115.561" filterUnits="userSpaceOnUse" color-interpolation-filters="sRGB"><feFlood flood-opacity="0" result="BackgroundImageFix"/><feBlend in="SourceGraphic" in2="BackgroundImageFix" result="shape"/><feColorMatrix in="SourceAlpha" values="0 0 0 0 0 0 0 0 0 0 0 0 0 0 0 0 0 0 127 0" result="hardAlpha"/><feOffset dx="-19.634" dy="-16.22"/><feGaussianBlur stdDeviation="21.341"/><feComposite in2="hardAlpha" operator="arithmetic" k2="-1" k3="1"/><feColorMatrix values="0 0 0 0 0.343661 0 0 0 0 0.440702 0 0 0 0 0.428572 0 0 0 0.25 0"/><feBlend in2="shape" result="effect1_innerShadow_2014_23"/><feColorMatrix in="SourceAlpha" values="0 0 0 0 0 0 0 0 0 0 0 0 0 0 0 0 0 0 127 0" result="hardAlpha"/><feOffset dx="17.927" dy="21.341"/><feGaussianBlur stdDeviation="21.341"/><feComposite in2="hardAlpha" operator="arithmetic" k2="-1" k3="1"/><feColorMatrix values="0 0 0 0 0.394406 0 0 0 0 0.391552 0 0 0 0 0.391552 0 0 0 0.15 0"/><feBlend in2="effect1_innerShadow_2014_23" result="effect2_innerShadow_2014_23"/></filter><filter id="filter1_f_2014_23" x="25.891" y="21.891" width="53.218" height="53.218" filterUnits="userSpaceOnUse" color-interpolation-filters="sRGB"><feFlood flood-opacity="0" result="BackgroundImageFix"/><feBlend in="SourceGraphic" in2="BackgroundImageFix" result="shape"/><feGaussianBlur stdDeviation="1.555" result="effect1_foregroundBlur_2014_23"/></filter><filter id="filter2_dii_2014_23" x=".241" y=".94" width="138.975" height="138.975" filterUnits="userSpaceOnUse" color-interpolation-filters="sRGB"><feFlood flood-opacity="0" result="BackgroundImageFix"/><feColorMatrix in="SourceAlpha" values="0 0 0 0 0 0 0 0 0 0 0 0 0 0 0 0 0 0 127 0" result="hardAlpha"/><feOffset dx="17.229" dy="21.928"/><feGaussianBlur stdDeviation="23.494"/><feComposite in2="hardAlpha" operator="out"/><feColorMatrix values="0 0 0 0 0.14132 0 0 0 0 0.140397 0 0 0 0 0.138553 0 0 0 0.25 0"/><feBlend in2="BackgroundImageFix" result="effect1_dropShadow_2014_23"/><feBlend in="SourceGraphic" in2="effect1_dropShadow_2014_23" result="shape"/><feColorMatrix in="SourceAlpha" values="0 0 0 0 0 0 0 0 0 0 0 0 0 0 0 0 0 0 127 0" result="hardAlpha"/><feOffset dx="-18.012" dy="-14.879"/><feGaussianBlur stdDeviation="19.578"/><feComposite in2="hardAlpha" operator="arithmetic" k2="-1" k3="1"/><feColorMatrix values="0 0 0 0 0.327949 0 0 0 0 0.51169 0 0 0 0 0.494986 0 0 0 0.25 0"/><feBlend in2="shape" result="effect2_innerShadow_2014_23"/><feColorMatrix in="SourceAlpha" values="0 0 0 0 0 0 0 0 0 0 0 0 0 0 0 0 0 0 127 0" result="hardAlpha"/><feOffset dx="16.446" dy="19.578"/><feGaussianBlur stdDeviation="19.578"/><feComposite in2="hardAlpha" operator="arithmetic" k2="-1" k3="1"/><feColorMatrix values="0 0 0 0 0.333396 0 0 0 0 0.480826 0 0 0 0 0.461596 0 0 0 0.15 0"/><feBlend in2="effect2_innerShadow_2014_23" result="effect3_innerShadow_2014_23"/></filter><linearGradient id="paint0_linear_2014_23" x1="119.223" y1="113.754" x2="81.665" y2="82.491" gradientUnits="userSpaceOnUse"><stop offset=".415" stop-color="#1B1B1B"/><stop offset="1" stop-color="#1B1B1B"/></linearGradient></defs></svg>