<svg width="357" height="81" fill="none" xmlns="http://www.w3.org/2000/svg"><rect x=".5" y=".5" width="353" height="80" rx="10.5" stroke="#CCEC60"/><path d="M20.3 22.11c-.77 0-1.364-.209-1.782-.627-.418-.425-.627-1.001-.627-1.727V13.97h1.188v5.786c0 .403.099.722.297.957.205.235.513.352.924.352.403 0 .708-.117.913-.352.205-.235.308-.554.308-.957V13.97h1.188v5.786c0 .726-.209 1.302-.627 1.727-.418.418-1.012.627-1.782.627zm4.146-.11v-6.05h1.177v1.155h.286l-.286.275c0-.484.143-.862.43-1.133.285-.271.681-.407 1.187-.407.602 0 1.082.194 1.441.583.36.381.54.898.54 1.551V22h-1.189v-3.894c0-.396-.106-.7-.319-.913-.213-.213-.502-.319-.869-.319-.374 0-.67.114-.89.341-.213.22-.32.543-.32.968V22h-1.188zm6.49 0v-1.078h2.122v-3.894H31.21V15.95h3.003v4.972h1.947V22h-5.225zm2.584-7.095c-.256 0-.462-.066-.616-.198a.706.706 0 01-.23-.55c0-.235.076-.418.23-.55.154-.14.36-.209.616-.209.257 0 .462.07.616.209.154.132.231.315.231.55a.71.71 0 01-.23.55c-.155.132-.36.198-.617.198zm6.39 7.205c-.498 0-.938-.092-1.32-.275a2.072 2.072 0 01-.869-.814c-.197-.36-.296-.777-.296-1.254v-1.584c0-.484.099-.902.297-1.254.205-.352.495-.62.868-.803.382-.19.822-.286 1.32-.286.727 0 1.31.19 1.75.572.44.381.67.902.693 1.562h-1.189c-.022-.345-.142-.612-.363-.803-.22-.19-.517-.286-.89-.286-.404 0-.723.114-.958.341-.234.22-.352.535-.352.946v1.595c0 .41.118.73.352.957.235.227.554.341.957.341.375 0 .672-.095.892-.286.22-.19.34-.458.362-.803h1.188c-.021.66-.252 1.18-.692 1.562-.44.381-1.023.572-1.75.572zm6.479-.011c-.499 0-.932-.095-1.298-.286a2.016 2.016 0 01-.847-.814c-.198-.352-.297-.766-.297-1.243v-1.562c0-.484.099-.898.297-1.243.198-.352.48-.623.847-.814.366-.19.799-.286 1.298-.286.498 0 .931.095 1.298.286.366.19.649.462.847.814.198.345.297.759.297 1.243v1.562c0 .477-.1.891-.297 1.243-.198.352-.48.623-.847.814-.367.19-.8.286-1.298.286zm0-1.045c.403 0 .715-.11.935-.33.22-.227.33-.55.33-.968v-1.562c0-.425-.11-.748-.33-.968-.22-.22-.532-.33-.935-.33-.396 0-.708.11-.935.33-.22.22-.33.543-.33.968v1.562c0 .418.11.74.33.968.227.22.539.33.935.33zm6.566 1.056c-.499 0-.939-.092-1.32-.275a2.071 2.071 0 01-.87-.814c-.197-.36-.296-.777-.296-1.254v-1.584c0-.484.099-.902.297-1.254.205-.352.495-.62.869-.803.381-.19.821-.286 1.32-.286.726 0 1.309.19 1.749.572.44.381.67.902.693 1.562h-1.188c-.022-.345-.143-.612-.363-.803-.22-.19-.517-.286-.891-.286-.404 0-.722.114-.957.341-.235.22-.352.535-.352.946v1.595c0 .41.117.73.352.957.235.227.553.341.957.341.374 0 .67-.095.89-.286.22-.19.342-.458.364-.803h1.188c-.022.66-.253 1.18-.693 1.562-.44.381-1.023.572-1.75.572zm6.478-.011c-.499 0-.931-.095-1.298-.286a2.017 2.017 0 01-.847-.814c-.198-.352-.297-.766-.297-1.243v-1.562c0-.484.099-.898.297-1.243.198-.352.48-.623.847-.814.367-.19.8-.286 1.298-.286.499 0 .931.095 1.298.286.367.19.649.462.847.814.198.345.297.759.297 1.243v1.562c0 .477-.099.891-.297 1.243-.198.352-.48.623-.847.814-.367.19-.8.286-1.298.286zm0-1.045c.403 0 .715-.11.935-.33.22-.227.33-.55.33-.968v-1.562c0-.425-.11-.748-.33-.968-.22-.22-.532-.33-.935-.33-.396 0-.708.11-.935.33-.22.22-.33.543-.33.968v1.562c0 .418.11.74.33.968.227.22.539.33.935.33zm3.871.946v-6.05h.99v.77h.22l-.165.231c0-.337.092-.605.275-.803.184-.205.43-.308.737-.308.33 0 .583.128.76.385.183.257.274.609.274 1.056l-.264-.561h.418l-.176.231c0-.337.092-.605.275-.803.19-.205.444-.308.76-.308.373 0 .666.143.88.429.212.279.318.653.318 1.122V22H67.55v-4.576c0-.227-.051-.403-.154-.528-.095-.125-.234-.187-.418-.187a.525.525 0 00-.429.187c-.095.117-.143.29-.143.517V22h-.89v-4.576c0-.235-.052-.41-.155-.528-.103-.125-.25-.187-.44-.187-.183 0-.323.062-.418.187-.088.117-.132.29-.132.517V22h-1.067zm8.216 0v-4.334h-1.716v-1.078h1.716v-.979c0-.506.162-.906.484-1.199.323-.293.763-.44 1.32-.44h1.771v1.056h-1.749c-.205 0-.366.051-.484.154-.11.103-.165.25-.165.44v.968h2.398v1.078h-2.398V22H71.52zm7.48.099c-.5 0-.932-.095-1.298-.286a2.016 2.016 0 01-.847-.814c-.198-.352-.297-.766-.297-1.243v-1.562c0-.484.099-.898.297-1.243.198-.352.48-.623.847-.814.366-.19.799-.286 1.298-.286.498 0 .93.095 1.298.286.366.19.649.462.847.814.198.345.297.759.297 1.243v1.562c0 .477-.1.891-.297 1.243-.198.352-.48.623-.847.814-.367.19-.8.286-1.298.286zm0-1.045c.403 0 .715-.11.935-.33.22-.227.33-.55.33-.968v-1.562c0-.425-.11-.748-.33-.968-.22-.22-.532-.33-.935-.33-.396 0-.708.11-.935.33-.22.22-.33.543-.33.968v1.562c0 .418.11.74.33.968.227.22.539.33.935.33zm4.344.946v-6.05h1.144v1.155h.286l-.363.715c0-.653.143-1.144.429-1.474.286-.337.711-.506 1.276-.506.645 0 1.155.202 1.529.605.381.396.572.942.572 1.639v.407h-1.221v-.308c0-.433-.11-.763-.33-.99-.213-.235-.514-.352-.902-.352-.389 0-.693.117-.913.352-.213.235-.32.565-.32.99V22h-1.187zm9.36 0c-.55 0-.98-.15-1.287-.451-.308-.3-.462-.719-.462-1.254v-3.267h-1.672V15.95h1.672v-1.705h1.188v1.705h2.365v1.078h-2.365v3.267c0 .418.202.627.605.627h1.65V22h-1.694zm9.084-3.091v-1.078h6.6v1.078h-6.6zM115.812 22v-6.05H117v2.431h.968l1.606-2.431h1.342l-1.925 2.904L120.949 22h-1.364l-1.617-2.596H117V22h-1.188zm8.843.099c-.499 0-.932-.095-1.298-.286a2.015 2.015 0 01-.847-.814c-.198-.352-.297-.766-.297-1.243v-1.562c0-.484.099-.898.297-1.243.198-.352.48-.623.847-.814.366-.19.799-.286 1.298-.286.498 0 .931.095 1.298.286.366.19.649.462.847.814.198.345.297.759.297 1.243v1.562c0 .477-.099.891-.297 1.243a2.02 2.02 0 01-.847.814c-.367.19-.8.286-1.298.286zm0-1.045c.403 0 .715-.11.935-.33.22-.227.33-.55.33-.968v-1.562c0-.425-.11-.748-.33-.968-.22-.22-.532-.33-.935-.33-.396 0-.708.11-.935.33-.22.22-.33.543-.33.968v1.562c0 .418.11.74.33.968.227.22.539.33.935.33zm3.948.946v-6.05h1.496l.77 2.299c.081.242.15.477.209.704.059.22.099.389.121.506.029-.117.07-.286.121-.506.059-.227.125-.462.198-.704l.737-2.299h1.496V22h-1.122v-.979c0-.308.004-.642.011-1.001.015-.367.026-.737.033-1.111.015-.374.029-.73.044-1.067.015-.345.029-.649.044-.913l-1.001 3.289h-1.144l-1.023-3.267c.022.323.04.719.055 1.188.022.47.04.957.055 1.463.015.499.022.972.022 1.419V22h-1.122zm6.742 0v-6.05h4.708V22h-1.188v-4.961h-2.332V22h-1.188zm8.271.11c-.63 0-1.129-.161-1.496-.484-.359-.33-.539-.777-.539-1.342 0-.572.191-1.02.572-1.342.389-.33.921-.495 1.595-.495h1.683v-.561c0-.33-.102-.587-.308-.77-.205-.183-.495-.275-.869-.275-.33 0-.605.073-.825.22a.791.791 0 00-.385.561h-1.166c.066-.543.316-.975.748-1.298.44-.323.994-.484 1.661-.484.719 0 1.287.183 1.705.55.418.36.627.85.627 1.474V22h-1.155v-1.111h-.198l.198-.22c0 .44-.168.792-.506 1.056-.337.257-.784.385-1.342.385zm.352-.913c.426 0 .774-.106 1.045-.319a1.02 1.02 0 00.418-.836v-.792h-1.661c-.308 0-.553.084-.737.253-.176.169-.264.4-.264.693 0 .308.107.554.319.737.213.176.506.264.88.264zm4.421.803v-6.05h1.188v2.431h2.332V15.95h1.188V22h-1.188v-2.53h-2.332V22h-1.188zm6.523 0v-6.05h1.089v3.135c0 .205-.008.433-.022.682a18.302 18.302 0 01-.121 1.309l2.277-5.126h1.485V22h-1.089v-3.135c0-.205.007-.425.022-.66a18.222 18.222 0 01.121-1.265L156.397 22h-1.485zm6.203 0l1.485-2.266c-.44-.125-.785-.345-1.034-.66-.242-.315-.363-.7-.363-1.155 0-.616.205-1.096.616-1.441.41-.352.971-.528 1.683-.528h2.64V22h-1.177v-2.156h-1.155L162.479 22h-1.364zm2.42-3.146h1.43v-1.892h-1.43c-.352 0-.631.084-.836.253-.198.161-.297.392-.297.693 0 .3.099.535.297.704.205.161.484.242.836.242zm5.213 4.906l.88-3.421h1.584l-1.43 3.421h-1.034zm14.639-1.65c-.498 0-.938-.092-1.32-.275a2.075 2.075 0 01-.869-.814c-.198-.36-.297-.777-.297-1.254v-1.584c0-.484.099-.902.297-1.254.206-.352.495-.62.869-.803.382-.19.822-.286 1.32-.286.726 0 1.309.19 1.749.572.44.381.671.902.693 1.562h-1.188c-.022-.345-.143-.612-.363-.803-.22-.19-.517-.286-.891-.286-.403 0-.722.114-.957.341-.234.22-.352.535-.352.946v1.595c0 .41.118.73.352.957.235.227.554.341.957.341.374 0 .671-.095.891-.286.22-.19.341-.458.363-.803h1.188c-.022.66-.253 1.18-.693 1.562-.44.381-1.023.572-1.749.572zm4.136-.11v-6.05h4.708V22h-1.188v-4.961h-2.332V22h-1.188zm8.876.11c-.492 0-.924-.095-1.298-.286a2.084 2.084 0 01-.847-.825c-.198-.352-.297-.763-.297-1.232v-1.584c0-.477.099-.887.297-1.232.198-.352.48-.623.847-.814.374-.198.806-.297 1.298-.297.498 0 .931.099 1.298.297.366.19.649.462.847.814.198.345.297.755.297 1.232v1.078h-3.74v.506c0 .447.11.788.33 1.023.227.235.553.352.979.352.344 0 .623-.059.836-.176a.805.805 0 00.396-.539h1.177a1.833 1.833 0 01-.792 1.232c-.44.3-.983.451-1.628.451zm1.298-3.564v-.374c0-.44-.11-.781-.33-1.023-.22-.242-.543-.363-.968-.363-.418 0-.741.121-.968.363-.22.242-.33.587-.33 1.034v.275l2.684-.011-.088.099zm7.105 4.994V22h-4.235v-6.05h1.188v4.972h2.112V15.95h1.188v4.972h.825v2.618h-1.078zm2.287-1.54v-6.05h1.089v3.135c0 .205-.007.433-.022.682a18.302 18.302 0 01-.121 1.309l2.277-5.126h1.485V22h-1.089v-3.135c0-.205.007-.425.022-.66.015-.242.033-.477.055-.704.022-.227.044-.414.066-.561L208.574 22h-1.485zm8.271.11c-.63 0-1.129-.161-1.496-.484-.359-.33-.539-.777-.539-1.342 0-.572.191-1.02.572-1.342.389-.33.921-.495 1.595-.495h1.683v-.561c0-.33-.102-.587-.308-.77-.205-.183-.495-.275-.869-.275-.33 0-.605.073-.825.22a.791.791 0 00-.385.561h-1.166c.066-.543.316-.975.748-1.298.44-.323.994-.484 1.661-.484.719 0 1.287.183 1.705.55.418.36.627.85.627 1.474V22h-1.155v-1.111h-.198l.198-.22c0 .44-.168.792-.506 1.056-.337.257-.784.385-1.342.385zm.352-.913c.426 0 .774-.106 1.045-.319a1.02 1.02 0 00.418-.836v-.792h-1.661c-.308 0-.553.084-.737.253-.176.169-.264.4-.264.693 0 .308.107.554.319.737.213.176.506.264.88.264zm3.739.88v-1.089h.231c.294 0 .506-.117.638-.352.14-.235.213-.63.22-1.188l.066-3.498h4.235V22h-1.188v-4.961h-1.881l-.055 2.475c-.014.58-.095 1.06-.242 1.441-.139.381-.352.664-.638.847-.286.183-.645.275-1.078.275h-.308zm7.205-.077v-6.05h1.089v3.135c0 .205-.008.433-.022.682a18.302 18.302 0 01-.121 1.309l2.277-5.126h1.485V22h-1.089v-3.135c0-.205.007-.425.022-.66a18.222 18.222 0 01.121-1.265L228.141 22h-1.485zm8.579.077c-.646 0-1.177-.143-1.595-.429a1.772 1.772 0 01-.759-1.177h1.21c.051.176.179.323.385.44.205.11.458.165.759.165h.55c.33 0 .586-.077.77-.231a.753.753 0 00.275-.605.765.765 0 00-.275-.616c-.176-.154-.433-.231-.77-.231h-1.353v-.968h1.309c.308 0 .542-.07.704-.209a.751.751 0 00.242-.583.72.72 0 00-.11-.407.613.613 0 00-.308-.264 1.338 1.338 0 00-.517-.088h-.539a1.29 1.29 0 00-.704.187c-.191.117-.308.268-.352.451h-1.21c.08-.484.326-.876.737-1.177.418-.308.927-.462 1.529-.462h.539c.447 0 .832.07 1.155.209.322.132.568.323.737.572.176.25.264.543.264.88 0 .374-.129.682-.385.924-.257.235-.609.36-1.056.374.528.03.924.172 1.188.429.264.25.396.601.396 1.056 0 .535-.206.964-.616 1.287-.411.315-.961.473-1.65.473h-.55zM239.7 22v-6.05h1.089v3.135c0 .205-.007.433-.022.682a18.302 18.302 0 01-.121 1.309l2.277-5.126h1.485V22h-1.089v-3.135c0-.205.007-.425.022-.66.015-.242.033-.477.055-.704.022-.227.044-.414.066-.561L241.185 22H239.7zm6.5 1.98v-8.03h1.177v1.155h.253l-.253.275c0-.477.147-.85.44-1.122.301-.279.7-.418 1.199-.418.609 0 1.093.205 1.452.616.367.403.55.957.55 1.661v1.705c0 .47-.084.876-.253 1.221a1.866 1.866 0 01-.693.792c-.293.183-.645.275-1.056.275-.491 0-.887-.136-1.188-.407-.301-.279-.451-.656-.451-1.133l.253.275h-.275l.033 1.408v1.727H246.2zm2.409-2.904c.389 0 .689-.11.902-.33.22-.227.33-.554.33-.979v-1.584c0-.425-.11-.748-.33-.968-.213-.227-.513-.341-.902-.341-.374 0-.671.117-.891.352-.22.227-.33.546-.33.957v1.584c0 .41.11.733.33.968.22.227.517.341.891.341zm5.081 2.904l.869-2.332-2.255-5.698h1.309l1.265 3.41c.052.147.103.323.154.528.052.205.096.374.132.506.03-.132.07-.3.121-.506.052-.205.103-.381.154-.528l1.188-3.41h1.265l-2.948 8.03h-1.254zm8.898-1.87c-.528 0-.946-.169-1.254-.506-.308-.345-.462-.796-.462-1.353v-.88h-.935V22h-1.045v-6.05h1.045v2.552h.935v-.803c0-.565.151-1.016.451-1.353.308-.337.73-.506 1.265-.506.558 0 1.005.169 1.342.506.338.337.506.788.506 1.353v2.552c0 .557-.172 1.008-.517 1.353-.337.337-.781.506-1.331.506zm0-.902c.25 0 .444-.084.583-.253.147-.169.22-.403.22-.704v-2.552c0-.3-.073-.535-.22-.704-.139-.169-.333-.253-.583-.253a.735.735 0 00-.583.253c-.139.169-.209.403-.209.704v2.552c0 .3.07.535.209.704a.735.735 0 00.583.253zm7.579 2.332V22h-4.697v-6.05h.99v5.137h1.155V15.95h.869v5.137h1.155V15.95h.99v5.137h.583v2.453h-1.045zm3.893-1.43c-.631 0-1.13-.161-1.496-.484-.36-.33-.539-.777-.539-1.342 0-.572.19-1.02.572-1.342.388-.33.92-.495 1.595-.495h1.683v-.561c0-.33-.103-.587-.308-.77-.206-.183-.495-.275-.869-.275-.33 0-.605.073-.825.22a.788.788 0 00-.385.561h-1.166c.066-.543.315-.975.748-1.298.44-.323.993-.484 1.661-.484.718 0 1.287.183 1.705.55.418.36.627.85.627 1.474V22h-1.155v-1.111h-.198l.198-.22c0 .44-.169.792-.506 1.056-.338.257-.785.385-1.342.385zm.352-.913c.425 0 .773-.106 1.045-.319.278-.22.418-.499.418-.836v-.792h-1.661c-.308 0-.554.084-.737.253-.176.169-.264.4-.264.693 0 .308.106.554.319.737.212.176.506.264.88.264zm4.102.803l1.485-2.266c-.44-.125-.785-.345-1.034-.66-.242-.315-.363-.7-.363-1.155 0-.616.205-1.096.616-1.441.411-.352.972-.528 1.683-.528h2.64V22h-1.177v-2.156h-1.155L279.878 22h-1.364zm2.42-3.146h1.43v-1.892h-1.43c-.352 0-.631.084-.836.253-.198.161-.297.392-.297.693 0 .3.099.535.297.704.205.161.484.242.836.242zm6.808 3.256c-.499 0-.939-.092-1.32-.275a2.07 2.07 0 01-.869-.814c-.198-.36-.297-.777-.297-1.254v-1.584c0-.484.099-.902.297-1.254a2 2 0 01.869-.803c.381-.19.821-.286 1.32-.286.726 0 1.309.19 1.749.572.44.381.671.902.693 1.562h-1.188c-.022-.345-.143-.612-.363-.803-.22-.19-.517-.286-.891-.286-.403 0-.722.114-.957.341-.235.22-.352.535-.352.946v1.595c0 .41.117.73.352.957.235.227.554.341.957.341.374 0 .671-.095.891-.286.22-.19.341-.458.363-.803h1.188c-.022.66-.253 1.18-.693 1.562-.44.381-1.023.572-1.749.572zm3.816-.11l1.485-2.266c-.44-.125-.784-.345-1.034-.66-.242-.315-.363-.7-.363-1.155 0-.616.206-1.096.616-1.441.411-.352.972-.528 1.683-.528h2.64V22h-1.177v-2.156h-1.155L292.922 22h-1.364zm2.42-3.146h1.43v-1.892h-1.43c-.352 0-.63.084-.836.253-.198.161-.297.392-.297.693 0 .3.099.535.297.704.206.161.484.242.836.242zM304.922 22v-6.05h1.188v2.431h2.332V15.95h1.188V22h-1.188v-2.53h-2.332V22h-1.188zm8.271.11c-.631 0-1.13-.161-1.496-.484-.36-.33-.539-.777-.539-1.342 0-.572.19-1.02.572-1.342.388-.33.92-.495 1.595-.495h1.683v-.561c0-.33-.103-.587-.308-.77-.206-.183-.495-.275-.869-.275-.33 0-.605.073-.825.22a.788.788 0 00-.385.561h-1.166c.066-.543.315-.975.748-1.298.44-.323.993-.484 1.661-.484.718 0 1.287.183 1.705.55.418.36.627.85.627 1.474V22h-1.155v-1.111h-.198l.198-.22c0 .44-.169.792-.506 1.056-.338.257-.785.385-1.342.385zm.352-.913c.425 0 .773-.106 1.045-.319.278-.22.418-.499.418-.836v-.792h-1.661c-.308 0-.554.084-.737.253-.176.169-.264.4-.264.693 0 .308.106.554.319.737.212.176.506.264.88.264zM17.924 43.98v-8.03h1.177v1.155h.253l-.253.275c0-.477.147-.85.44-1.122.3-.279.7-.418 1.199-.418.609 0 1.093.205 1.452.616.367.403.55.957.55 1.661v1.705c0 .47-.084.876-.253 1.221a1.87 1.87 0 01-.693.792c-.293.183-.645.275-1.056.275-.491 0-.887-.136-1.188-.407-.3-.279-.451-.656-.451-1.133l.253.275h-.275l.033 1.408v1.727h-1.188zm2.409-2.904c.389 0 .69-.11.902-.33.22-.227.33-.554.33-.979v-1.584c0-.425-.11-.748-.33-.968-.213-.227-.513-.341-.902-.341-.374 0-.671.117-.891.352-.22.227-.33.546-.33.957v1.584c0 .41.11.733.33.968.22.227.517.341.891.341zm6.49 1.034c-.492 0-.925-.095-1.299-.286a2.086 2.086 0 01-.847-.825c-.198-.352-.297-.763-.297-1.232v-1.584c0-.477.1-.887.297-1.232.198-.352.48-.623.847-.814.374-.198.807-.297 1.298-.297.499 0 .931.099 1.298.297.367.19.65.462.847.814.198.345.297.755.297 1.232v1.078h-3.74v.506c0 .447.11.788.33 1.023.227.235.554.352.98.352.344 0 .622-.059.835-.176a.801.801 0 00.396-.539h1.177a1.833 1.833 0 01-.792 1.232c-.44.3-.982.451-1.628.451zm1.297-3.564v-.374c0-.44-.11-.781-.33-1.023-.22-.242-.543-.363-.968-.363-.418 0-.74.121-.968.363-.22.242-.33.587-.33 1.034v.275l2.684-.011-.088.099zM30.682 42l-.01-6.05h1.044v5.192h1.188V35.95h.891v5.192h1.177V35.95h1.045V42h-5.335zm9.185.11c-.492 0-.924-.095-1.298-.286a2.087 2.087 0 01-.848-.825c-.197-.352-.296-.763-.296-1.232v-1.584c0-.477.099-.887.297-1.232.197-.352.48-.623.846-.814.375-.198.807-.297 1.299-.297.498 0 .93.099 1.297.297.367.19.65.462.847.814.198.345.297.755.297 1.232v1.078h-3.74v.506c0 .447.11.788.33 1.023.228.235.554.352.98.352.344 0 .623-.059.836-.176a.8.8 0 00.395-.539h1.177a1.833 1.833 0 01-.791 1.232c-.44.3-.983.451-1.628.451zm1.297-3.564v-.374c0-.44-.11-.781-.33-1.023-.22-.242-.542-.363-.968-.363-.417 0-.74.121-.968.363-.22.242-.33.587-.33 1.034v.275l2.684-.011-.088.099zM44.034 42v-6.05h1.189v2.431h2.332V35.95h1.188V42h-1.188v-2.53h-2.332V42h-1.188zm6.523 0v-6.05h1.089v3.135c0 .205-.008.433-.022.682a21.87 21.87 0 01-.121 1.309l2.277-5.126h1.485V42h-1.09v-3.135c0-.205.008-.425.023-.66a19.5 19.5 0 01.055-.704c.022-.227.044-.414.066-.561L52.042 42h-1.485zm6.203 0l1.485-2.266c-.44-.125-.785-.345-1.034-.66-.242-.315-.363-.7-.363-1.155 0-.616.205-1.096.616-1.441.41-.352.972-.528 1.683-.528h2.64V42H60.61v-2.156h-1.155L58.124 42H56.76zm2.42-3.146h1.43v-1.892h-1.43c-.352 0-.63.084-.836.253-.198.161-.297.392-.297.693 0 .3.099.535.297.704.205.161.484.242.836.242zM63.128 42l2.123-3.124-1.99-2.926h1.363l1.067 1.672c.052.088.103.183.154.286.052.095.092.176.121.242a5.043 5.043 0 01.264-.528l1.067-1.672h1.364l-1.99 2.937L68.781 42h-1.364l-1.177-1.815a3.679 3.679 0 01-.154-.297l-.12-.264a4.31 4.31 0 01-.133.264c-.051.11-.106.209-.165.297L64.481 42h-1.353zm12.88 1.54v-2.552h.44c.124-.125.253-.36.385-.704.139-.352.212-.796.22-1.331l.066-3.003h4.103v5.038h.737v2.552H80.88V42h-3.795v1.54h-1.078zm1.672-2.552h2.387v-3.993H78.23l-.044 1.969c-.008.535-.07.979-.187 1.331-.11.345-.217.576-.32.693zm4.806 1.089v-1.089h.23c.294 0 .507-.117.639-.352.14-.235.212-.63.22-1.188l.066-3.498h4.235V42h-1.188v-4.961h-1.881l-.055 2.475c-.015.58-.096 1.06-.242 1.441-.14.381-.352.664-.638.847-.286.183-.646.275-1.078.275h-.308zM89.37 42l1.485-2.266c-.44-.125-.785-.345-1.034-.66-.242-.315-.363-.7-.363-1.155 0-.616.205-1.096.616-1.441.41-.352.972-.528 1.683-.528h2.64V42H93.22v-2.156h-1.155L90.735 42H89.37zm2.42-3.146h1.43v-1.892h-1.43c-.352 0-.63.084-.836.253-.198.161-.297.392-.297.693 0 .3.099.535.297.704.205.161.484.242.836.242zM102.767 42v-6.05h1.188v2.431h.968l1.606-2.431h1.342l-1.925 2.904L107.904 42h-1.364l-1.617-2.596h-.968V42h-1.188zm8.843.099c-.498 0-.931-.095-1.298-.286a2.02 2.02 0 01-.847-.814c-.198-.352-.297-.766-.297-1.243v-1.562c0-.484.099-.898.297-1.243a2.02 2.02 0 01.847-.814c.367-.19.8-.286 1.298-.286.499 0 .932.095 1.298.286.367.19.649.462.847.814.198.345.297.759.297 1.243v1.562c0 .477-.099.891-.297 1.243-.198.352-.48.623-.847.814-.366.19-.799.286-1.298.286zm0-1.045c.404 0 .715-.11.935-.33.22-.227.33-.55.33-.968v-1.562c0-.425-.11-.748-.33-.968-.22-.22-.531-.33-.935-.33-.396 0-.707.11-.935.33-.22.22-.33.543-.33.968v1.562c0 .418.11.74.33.968.228.22.539.33.935.33zm3.949.946v-6.05h1.496l.77 2.299a11.27 11.27 0 01.33 1.21l.121-.506c.058-.227.124-.462.198-.704l.737-2.299h1.496V42h-1.122v-.979c0-.308.003-.642.011-1.001.014-.367.025-.737.033-1.111a151.275 151.275 0 01.088-1.98l-1.001 3.289h-1.144l-1.023-3.267c.022.323.04.719.055 1.188.022.47.04.957.055 1.463.014.499.022.972.022 1.419V42h-1.122zm8.59 1.98V42c-.704 0-1.258-.198-1.661-.594-.404-.403-.605-.95-.605-1.639v-1.595c0-.69.201-1.232.605-1.628.41-.396.964-.594 1.661-.594v-1.98h1.012v1.98c.704 0 1.257.198 1.661.594.403.396.605.939.605 1.628v1.595c0 .69-.202 1.236-.605 1.639-.404.396-.957.594-1.661.594v1.98h-1.012zm.033-2.915v-4.18c-.382 0-.682.114-.902.341-.22.22-.33.535-.33.946v1.595c0 .403.11.722.33.957.22.227.52.341.902.341zm.946 0c.388 0 .689-.114.902-.341.22-.235.33-.554.33-.957v-1.595c0-.41-.11-.726-.33-.946-.213-.227-.514-.341-.902-.341v4.18zm6.049 1.034c-.499 0-.931-.095-1.298-.286a2.015 2.015 0 01-.847-.814c-.198-.352-.297-.766-.297-1.243v-1.562c0-.484.099-.898.297-1.243.198-.352.48-.623.847-.814.367-.19.799-.286 1.298-.286s.931.095 1.298.286c.367.19.649.462.847.814.198.345.297.759.297 1.243v1.562c0 .477-.099.891-.297 1.243-.198.352-.48.623-.847.814-.367.19-.799.286-1.298.286zm0-1.045c.403 0 .715-.11.935-.33.22-.227.33-.55.33-.968v-1.562c0-.425-.11-.748-.33-.968-.22-.22-.532-.33-.935-.33-.396 0-.708.11-.935.33-.22.22-.33.543-.33.968v1.562c0 .418.11.74.33.968.227.22.539.33.935.33zm4.146 2.926v-8.03h1.177v1.155h.253l-.253.275c0-.477.147-.85.44-1.122.301-.279.7-.418 1.199-.418.609 0 1.093.205 1.452.616.367.403.55.957.55 1.661v1.705c0 .47-.084.876-.253 1.221a1.866 1.866 0 01-.693.792c-.293.183-.645.275-1.056.275-.491 0-.887-.136-1.188-.407-.301-.279-.451-.656-.451-1.133l.253.275h-.275l.033 1.408v1.727h-1.188zm2.409-2.904c.389 0 .689-.11.902-.33.22-.227.33-.554.33-.979v-1.584c0-.425-.11-.748-.33-.968-.213-.227-.513-.341-.902-.341-.374 0-.671.117-.891.352-.22.227-.33.546-.33.957v1.584c0 .41.11.733.33.968.22.227.517.341.891.341zm5.895.924v-4.983h-2.134V35.95h5.456v1.067h-2.134V42h-1.188zm4.762 0v-6.05h1.188v2.431h2.332V35.95h1.188V42h-1.188v-2.53h-2.332V42h-1.188zm8.877.099c-.499 0-.932-.095-1.298-.286a2.015 2.015 0 01-.847-.814c-.198-.352-.297-.766-.297-1.243v-1.562c0-.484.099-.898.297-1.243.198-.352.48-.623.847-.814.366-.19.799-.286 1.298-.286.498 0 .931.095 1.298.286.366.19.649.462.847.814.198.345.297.759.297 1.243v1.562c0 .477-.099.891-.297 1.243a2.02 2.02 0 01-.847.814c-.367.19-.8.286-1.298.286zm0-1.045c.403 0 .715-.11.935-.33.22-.227.33-.55.33-.968v-1.562c0-.425-.11-.748-.33-.968-.22-.22-.532-.33-.935-.33-.396 0-.708.11-.935.33-.22.22-.33.543-.33.968v1.562c0 .418.11.74.33.968.227.22.539.33.935.33zm4.608.946v-6.05h4.422v1.089h-3.245V42h-1.177zm8.436.099c-.499 0-.931-.095-1.298-.286a2.015 2.015 0 01-.847-.814c-.198-.352-.297-.766-.297-1.243v-1.562c0-.484.099-.898.297-1.243.198-.352.48-.623.847-.814.367-.19.799-.286 1.298-.286s.931.095 1.298.286c.367.19.649.462.847.814.198.345.297.759.297 1.243v1.562c0 .477-.099.891-.297 1.243-.198.352-.48.623-.847.814-.367.19-.799.286-1.298.286zm0-1.045c.403 0 .715-.11.935-.33.22-.227.33-.55.33-.968v-1.562c0-.425-.11-.748-.33-.968-.22-.22-.532-.33-.935-.33-.396 0-.708.11-.935.33-.22.22-.33.543-.33.968v1.562c0 .418.11.74.33.968.227.22.539.33.935.33zm9.898.946l1.265-3.102-1.177-2.948h1.089l1.012 2.651h.495V35.95h.924v2.651h.484l1.056-2.651h1.056l-1.177 2.915L186.5 42h-1.1l-1.078-2.761h-.506V42h-.924v-2.761h-.506L181.33 42h-1.122zm7.315 0v-6.05h1.089v3.135c0 .205-.008.433-.022.682a18.302 18.302 0 01-.121 1.309l2.277-5.126h1.485V42h-1.089v-3.135c0-.205.007-.425.022-.66a18.222 18.222 0 01.121-1.265L189.008 42h-1.485zm5.84.077v-1.089h.231c.293 0 .506-.117.638-.352.139-.235.212-.63.22-1.188l.066-3.498h4.235V42h-1.188v-4.961h-1.881l-.055 2.475c-.015.58-.096 1.06-.242 1.441-.14.381-.352.664-.638.847-.286.183-.646.275-1.078.275h-.308zm7.248-.077v-6.05h1.188v2.101h1.672c.704 0 1.258.176 1.661.528.403.352.605.836.605 1.452 0 .601-.205 1.082-.616 1.441-.403.352-.953.528-1.65.528h-2.86zm1.188-1.056h1.639c.352 0 .62-.077.803-.231.191-.161.286-.392.286-.693 0-.293-.095-.517-.286-.671-.183-.161-.451-.242-.803-.242h-1.639v1.837zM206.77 42l1.485-2.266c-.44-.125-.785-.345-1.034-.66-.242-.315-.363-.7-.363-1.155 0-.616.205-1.096.616-1.441.411-.352.972-.528 1.683-.528h2.64V42h-1.177v-2.156h-1.155L208.134 42h-1.364zm2.42-3.146h1.43v-1.892h-1.43c-.352 0-.631.084-.836.253-.198.161-.297.392-.297.693 0 .3.099.535.297.704.205.161.484.242.836.242zm6.775 3.256c-.293 0-.528-.084-.704-.253-.176-.176-.264-.41-.264-.704 0-.3.088-.539.264-.715.176-.183.411-.275.704-.275.301 0 .536.092.704.275.176.176.264.414.264.715 0 .293-.088.528-.264.704-.168.169-.403.253-.704.253zm10.691-.11v-8.03h4.708V42h-1.188v-6.941h-2.332V42h-1.188zm8.876.11c-.492 0-.924-.095-1.298-.286a2.084 2.084 0 01-.847-.825c-.198-.352-.297-.763-.297-1.232v-1.584c0-.477.099-.887.297-1.232.198-.352.48-.623.847-.814.374-.198.806-.297 1.298-.297.498 0 .931.099 1.298.297.366.19.649.462.847.814.198.345.297.755.297 1.232v1.078h-3.74v.506c0 .447.11.788.33 1.023.227.235.553.352.979.352.344 0 .623-.059.836-.176a.805.805 0 00.396-.539h1.177a1.833 1.833 0 01-.792 1.232c-.44.3-.983.451-1.628.451zm1.298-3.564v-.374c0-.44-.11-.781-.33-1.023-.22-.242-.543-.363-.968-.363-.418 0-.741.121-.968.363-.22.242-.33.587-.33 1.034v.275l2.684-.011-.088.099zm2.848 5.434v-8.03h1.177v1.155h.253l-.253.275c0-.477.147-.85.44-1.122.301-.279.7-.418 1.199-.418.609 0 1.093.205 1.452.616.367.403.55.957.55 1.661v1.705c0 .47-.084.876-.253 1.221a1.866 1.866 0 01-.693.792c-.293.183-.645.275-1.056.275-.491 0-.887-.136-1.188-.407-.301-.279-.451-.656-.451-1.133l.253.275h-.275l.033 1.408v1.727h-1.188zm2.409-2.904c.389 0 .689-.11.902-.33.22-.227.33-.554.33-.979v-1.584c0-.425-.11-.748-.33-.968-.213-.227-.513-.341-.902-.341-.374 0-.671.117-.891.352-.22.227-.33.546-.33.957v1.584c0 .41.11.733.33.968.22.227.517.341.891.341zm6.489 1.034c-.491 0-.924-.095-1.298-.286a2.084 2.084 0 01-.847-.825c-.198-.352-.297-.763-.297-1.232v-1.584c0-.477.099-.887.297-1.232.198-.352.48-.623.847-.814.374-.198.807-.297 1.298-.297.499 0 .931.099 1.298.297.367.19.649.462.847.814.198.345.297.755.297 1.232v1.078h-3.74v.506c0 .447.11.788.33 1.023.227.235.554.352.979.352.345 0 .623-.059.836-.176a.799.799 0 00.396-.539h1.177a1.833 1.833 0 01-.792 1.232c-.44.3-.983.451-1.628.451zm1.298-3.564v-.374c0-.44-.11-.781-.33-1.023-.22-.242-.543-.363-.968-.363-.418 0-.741.121-.968.363-.22.242-.33.587-.33 1.034v.275l2.684-.011-.088.099zm2.232 4.994v-2.552h.44c.125-.125.253-.36.385-.704.14-.352.213-.796.22-1.331l.066-3.003h4.103v5.038h.737v2.552h-1.078V42h-3.795v1.54h-1.078zm1.672-2.552h2.387v-3.993h-1.837l-.044 1.969c-.007.535-.069.979-.187 1.331-.11.345-.216.576-.319.693zm12.957 2.992l.869-2.332-2.255-5.698h1.309l1.265 3.41c.051.147.102.323.154.528.051.205.095.374.132.506.029-.132.069-.3.121-.506.051-.205.102-.381.154-.528l1.188-3.41h1.265l-2.948 8.03h-1.254zm9.041-1.98v-2.123c-.11.03-.279.059-.506.088-.22.022-.455.033-.704.033-.763.007-1.361-.18-1.793-.561-.426-.381-.638-.91-.638-1.584V35.95h1.188v1.87c0 .345.117.616.352.814.234.198.561.297.979.297.271 0 .506-.011.704-.033a3.45 3.45 0 00.418-.077V35.95h1.188V42h-1.188zm4.806.11c-.631 0-1.129-.161-1.496-.484-.359-.33-.539-.777-.539-1.342 0-.572.191-1.02.572-1.342.389-.33.92-.495 1.595-.495h1.683v-.561c0-.33-.103-.587-.308-.77-.205-.183-.495-.275-.869-.275-.33 0-.605.073-.825.22a.791.791 0 00-.385.561h-1.166c.066-.543.315-.975.748-1.298.44-.323.994-.484 1.661-.484.719 0 1.287.183 1.705.55.418.36.627.85.627 1.474V42h-1.155v-1.111h-.198l.198-.22c0 .44-.169.792-.506 1.056-.337.257-.785.385-1.342.385zm.352-.913c.425 0 .774-.106 1.045-.319a1.02 1.02 0 00.418-.836v-.792h-1.661c-.308 0-.554.084-.737.253-.176.169-.264.4-.264.693 0 .308.106.554.319.737.213.176.506.264.88.264zm6.808.913c-.499 0-.939-.092-1.32-.275a2.07 2.07 0 01-.869-.814c-.198-.36-.297-.777-.297-1.254v-1.584c0-.484.099-.902.297-1.254a2 2 0 01.869-.803c.381-.19.821-.286 1.32-.286.726 0 1.309.19 1.749.572.44.381.671.902.693 1.562h-1.188c-.022-.345-.143-.612-.363-.803-.22-.19-.517-.286-.891-.286-.403 0-.722.114-.957.341-.235.22-.352.535-.352.946v1.595c0 .41.117.73.352.957.235.227.554.341.957.341.374 0 .671-.095.891-.286.22-.19.341-.458.363-.803h1.188c-.022.66-.253 1.18-.693 1.562-.44.381-1.023.572-1.749.572zm5.895-.11v-4.983h-2.134V35.95h5.456v1.067h-2.134V42h-1.188zm4.762 0v-6.05h1.089v3.135c0 .205-.007.433-.022.682a20.081 20.081 0 01-.121 1.309l2.277-5.126h1.485V42h-1.089v-3.135c0-.205.008-.425.022-.66.015-.242.033-.477.055-.704.022-.227.044-.414.066-.561L299.884 42h-1.485zm8.877.11c-.492 0-.924-.095-1.298-.286a2.084 2.084 0 01-.847-.825c-.198-.352-.297-.763-.297-1.232v-1.584c0-.477.099-.887.297-1.232.198-.352.48-.623.847-.814.374-.198.806-.297 1.298-.297.498 0 .931.099 1.298.297.366.19.649.462.847.814.198.345.297.755.297 1.232v1.078h-3.74v.506c0 .447.11.788.33 1.023.227.235.553.352.979.352.344 0 .623-.059.836-.176a.805.805 0 00.396-.539h1.177a1.833 1.833 0 01-.792 1.232c-.44.3-.983.451-1.628.451zm1.298-3.564v-.374c0-.44-.11-.781-.33-1.023-.22-.242-.543-.363-.968-.363-.418 0-.741.121-.968.363-.22.242-.33.587-.33 1.034v.275l2.684-.011-.088.099zm2.65 3.454v-6.05h1.496l.77 2.299a11.27 11.27 0 01.33 1.21l.121-.506c.058-.227.124-.462.198-.704l.737-2.299h1.496V42h-1.122v-.979c0-.308.003-.642.011-1.001.014-.367.025-.737.033-1.111a151.275 151.275 0 01.088-1.98l-1.001 3.289h-1.144l-1.023-3.267c.022.323.04.719.055 1.188.022.47.04.957.055 1.463.014.499.022.972.022 1.419V42h-1.122zm13.253 0v-6.05h2.662c.66 0 1.177.143 1.551.429.374.286.561.682.561 1.188 0 .418-.15.752-.451 1.001-.3.25-.696.374-1.188.374v-.099c.536 0 .965.132 1.287.396.33.257.495.601.495 1.034 0 .543-.194.968-.583 1.276-.388.3-.924.451-1.606.451h-2.728zm1.166-.957h1.54c.323 0 .576-.073.759-.22a.72.72 0 00.286-.605c0-.264-.095-.47-.286-.616-.183-.154-.436-.231-.759-.231h-1.54v1.672zm0-2.552h1.496c.294 0 .525-.07.693-.209.169-.14.253-.334.253-.583a.701.701 0 00-.253-.572c-.168-.147-.399-.22-.693-.22h-1.496v1.584zM17.979 62v-6.05h1.188v2.431h.968l1.606-2.431h1.342l-1.925 2.904L23.116 62h-1.364l-1.617-2.596h-.968V62h-1.188zm6.467 1.98v-8.03h1.177v1.155h.253l-.253.275c0-.477.147-.85.44-1.122.3-.279.7-.418 1.2-.418.608 0 1.092.205 1.451.616.367.403.55.957.55 1.661v1.705c0 .47-.084.876-.253 1.221a1.871 1.871 0 01-.693.792c-.293.183-.645.275-1.056.275-.491 0-.887-.136-1.188-.407-.3-.279-.45-.656-.45-1.133l.252.275h-.275l.033 1.408v1.727h-1.188zm2.41-2.904c.388 0 .688-.11.901-.33.22-.227.33-.554.33-.979v-1.584c0-.425-.11-.748-.33-.968-.213-.227-.513-.341-.902-.341-.374 0-.67.117-.89.352-.22.227-.33.546-.33.957v1.584c0 .41.11.733.33.968.22.227.516.341.89.341zm5.08 2.904l.87-2.332-2.256-5.698h1.31l1.264 3.41c.052.147.103.323.154.528.052.205.096.374.132.506.03-.132.07-.3.121-.506.052-.205.103-.381.154-.528l1.188-3.41h1.265l-2.948 8.03h-1.254zM37.513 62v-6.05h4.708V62h-1.188v-4.961H38.7V62h-1.188zm6.522 0v-6.05h1.188v2.431h2.332V55.95h1.188V62h-1.188v-2.53h-2.332V62h-1.188zm8.876.099c-.499 0-.931-.095-1.298-.286a2.016 2.016 0 01-.847-.814c-.198-.352-.297-.766-.297-1.243v-1.562c0-.484.099-.898.297-1.243.198-.352.48-.623.847-.814.367-.19.8-.286 1.298-.286s.931.095 1.298.286c.366.19.649.462.847.814.198.345.297.759.297 1.243v1.562c0 .477-.1.891-.297 1.243-.198.352-.48.623-.847.814-.367.19-.8.286-1.298.286zm0-1.045c.403 0 .715-.11.935-.33.22-.227.33-.55.33-.968v-1.562c0-.425-.11-.748-.33-.968-.22-.22-.532-.33-.935-.33-.396 0-.708.11-.935.33-.22.22-.33.543-.33.968v1.562c0 .418.11.74.33.968.227.22.539.33.935.33zm4.168.946v-6.05h1.089v3.135c0 .205-.007.433-.022.682a21.595 21.595 0 01-.121 1.309l2.277-5.126h1.485V62h-1.089v-3.135c0-.205.007-.425.022-.66.015-.242.033-.477.055-.704.022-.227.044-.414.066-.561L58.564 62h-1.485zm2.398-7.029c-.55 0-.994-.147-1.331-.44-.337-.293-.506-.682-.506-1.166h.924c0 .264.08.477.242.638.169.161.389.242.66.242.286 0 .51-.08.671-.242.169-.161.253-.374.253-.638h.924c0 .484-.169.873-.506 1.166-.337.293-.781.44-1.331.44zM70.112 62v-6.05h2.662c.66 0 1.177.143 1.551.429.374.286.561.682.561 1.188 0 .418-.15.752-.45 1.001-.301.25-.697.374-1.189.374v-.099c.536 0 .965.132 1.287.396.33.257.495.601.495 1.034 0 .543-.194.968-.583 1.276-.388.3-.924.451-1.606.451h-2.728zm1.166-.957h1.54c.323 0 .576-.073.76-.22a.721.721 0 00.285-.605c0-.264-.095-.47-.286-.616-.183-.154-.436-.231-.759-.231h-1.54v1.672zm0-2.552h1.496c.294 0 .525-.07.693-.209.17-.14.253-.334.253-.583a.702.702 0 00-.253-.572c-.168-.147-.4-.22-.693-.22h-1.496v1.584zM76.338 62v-6.05h1.056v2.134h.44c.652 0 1.17.176 1.55.528.382.352.573.832.573 1.441 0 .601-.191 1.078-.572 1.43-.382.345-.899.517-1.551.517h-1.496zm1.056-.935h.44c.352 0 .623-.088.814-.264.198-.176.297-.425.297-.748 0-.33-.1-.583-.297-.759-.191-.183-.462-.275-.814-.275h-.44v2.046zm3.212.935v-6.05h1.056V62h-1.056zm4.949.11c-.499 0-.939-.092-1.32-.275a2.072 2.072 0 01-.87-.814c-.197-.36-.296-.777-.296-1.254v-1.584c0-.484.099-.902.297-1.254.205-.352.495-.62.869-.803.381-.19.821-.286 1.32-.286.726 0 1.309.19 1.749.572.44.381.67.902.693 1.562h-1.188c-.022-.345-.143-.612-.363-.803-.22-.19-.517-.286-.891-.286-.404 0-.723.114-.957.341-.235.22-.352.535-.352.946v1.595c0 .41.117.73.352.957.234.227.553.341.957.341.374 0 .67-.095.89-.286.22-.19.342-.458.364-.803h1.188c-.022.66-.253 1.18-.693 1.562-.44.381-1.023.572-1.75.572zM91.45 62v-4.983h-2.134V55.95h5.456v1.067h-2.134V62H91.45zm6.511.11c-.63 0-1.13-.161-1.496-.484-.36-.33-.539-.777-.539-1.342 0-.572.19-1.02.572-1.342.389-.33.92-.495 1.595-.495h1.683v-.561c0-.33-.103-.587-.308-.77-.205-.183-.495-.275-.869-.275-.33 0-.605.073-.825.22a.79.79 0 00-.385.561h-1.166a1.83 1.83 0 01.748-1.298c.44-.323.994-.484 1.661-.484.719 0 1.287.183 1.705.55.418.36.627.85.627 1.474V62h-1.155v-1.111h-.198l.198-.22c0 .44-.169.792-.506 1.056-.337.257-.785.385-1.342.385zm.352-.913c.425 0 .774-.106 1.045-.319.279-.22.418-.499.418-.836v-.792h-1.66c-.309 0-.555.084-.738.253-.176.169-.264.4-.264.693 0 .308.106.554.32.737.212.176.505.264.88.264zm4.41.803v-6.05h2.662c.66 0 1.177.143 1.551.429.374.286.561.682.561 1.188 0 .418-.15.752-.451 1.001-.3.25-.696.374-1.188.374v-.099c.536 0 .965.132 1.287.396.33.257.495.601.495 1.034 0 .543-.194.968-.583 1.276-.388.3-.924.451-1.606.451h-2.728zm1.166-.957h1.54c.323 0 .576-.073.759-.22a.72.72 0 00.286-.605c0-.264-.095-.47-.286-.616-.183-.154-.436-.231-.759-.231h-1.54v1.672zm0-2.552h1.496c.294 0 .525-.07.693-.209.169-.14.253-.334.253-.583a.701.701 0 00-.253-.572c-.168-.147-.399-.22-.693-.22h-1.496v1.584zm5.4 3.509v-6.05h1.188v2.431h.968l1.606-2.431h1.342l-1.925 2.904L114.426 62h-1.364l-1.617-2.596h-.968V62h-1.188zm8.844.11c-.492 0-.924-.095-1.298-.286a2.084 2.084 0 01-.847-.825c-.198-.352-.297-.763-.297-1.232v-1.584c0-.477.099-.887.297-1.232.198-.352.48-.623.847-.814.374-.198.806-.297 1.298-.297.498 0 .931.099 1.298.297.366.19.649.462.847.814.198.345.297.755.297 1.232v1.078h-3.74v.506c0 .447.11.788.33 1.023.227.235.553.352.979.352.344 0 .623-.059.836-.176a.805.805 0 00.396-.539h1.177a1.833 1.833 0 01-.792 1.232c-.44.3-.983.451-1.628.451zm1.298-3.564v-.374c0-.44-.11-.781-.33-1.023-.22-.242-.543-.363-.968-.363-.418 0-.741.121-.968.363-.22.242-.33.587-.33 1.034v.275l2.684-.011-.088.099zm11.746 3.553c-.499 0-.931-.095-1.298-.286a2.015 2.015 0 01-.847-.814c-.198-.352-.297-.766-.297-1.243v-1.562c0-.484.099-.898.297-1.243.198-.352.48-.623.847-.814.367-.19.799-.286 1.298-.286s.931.095 1.298.286c.367.19.649.462.847.814.198.345.297.759.297 1.243v1.562c0 .477-.099.891-.297 1.243-.198.352-.48.623-.847.814-.367.19-.799.286-1.298.286zm0-1.045c.403 0 .715-.11.935-.33.22-.227.33-.55.33-.968v-1.562c0-.425-.11-.748-.33-.968-.22-.22-.532-.33-.935-.33-.396 0-.708.11-.935.33-.22.22-.33.543-.33.968v1.562c0 .418.11.74.33.968.227.22.539.33.935.33zm4.168.946v-6.05h1.188v2.431h2.332V55.95h1.188V62h-1.188v-2.53h-2.332V62h-1.188zm6.522 0v-6.05h1.089v3.135c0 .205-.007.433-.022.682a20.081 20.081 0 01-.121 1.309l2.277-5.126h1.485V62h-1.089v-3.135c0-.205.008-.425.022-.66.015-.242.033-.477.055-.704.022-.227.044-.414.066-.561L143.352 62h-1.485zm15.399.099c-.499 0-.932-.095-1.298-.286a2.015 2.015 0 01-.847-.814c-.198-.352-.297-.766-.297-1.243v-1.562c0-.484.099-.898.297-1.243.198-.352.48-.623.847-.814.366-.19.799-.286 1.298-.286.498 0 .931.095 1.298.286.366.19.649.462.847.814.198.345.297.759.297 1.243v1.562c0 .477-.099.891-.297 1.243a2.02 2.02 0 01-.847.814c-.367.19-.8.286-1.298.286zm0-1.045c.403 0 .715-.11.935-.33.22-.227.33-.55.33-.968v-1.562c0-.425-.11-.748-.33-.968-.22-.22-.532-.33-.935-.33-.396 0-.708.11-.935.33-.22.22-.33.543-.33.968v1.562c0 .418.11.74.33.968.227.22.539.33.935.33zm6.522 1.056c-.741-.007-1.328-.22-1.76-.638-.433-.425-.649-1.005-.649-1.738v-2.739c0-.968.249-1.712.748-2.233.506-.528 1.224-.792 2.156-.792h1.617v1.166h-1.617c-.565 0-.994.161-1.287.484-.286.315-.429.774-.429 1.375v.726h.154l-.143.209c0-.425.139-.759.418-1.001.286-.25.678-.374 1.177-.374.638 0 1.133.209 1.485.627.359.41.539.979.539 1.705v.847c0 .491-.099.917-.297 1.276a1.967 1.967 0 01-.825.814c-.36.19-.789.286-1.287.286zm0-1.045c.396 0 .696-.114.902-.341.212-.235.319-.565.319-.99v-.847c0-.433-.107-.763-.319-.99-.206-.235-.506-.352-.902-.352s-.701.114-.913.341c-.206.227-.308.561-.308 1.001v.847c0 .425.102.755.308.99.212.227.517.341.913.341zm4.146 2.915v-8.03h1.177v1.155h.253l-.253.275c0-.477.147-.85.44-1.122.301-.279.7-.418 1.199-.418.609 0 1.093.205 1.452.616.367.403.55.957.55 1.661v1.705c0 .47-.084.876-.253 1.221a1.866 1.866 0 01-.693.792c-.293.183-.645.275-1.056.275-.491 0-.887-.136-1.188-.407-.301-.279-.451-.656-.451-1.133l.253.275h-.275l.033 1.408v1.727h-1.188zm2.409-2.904c.389 0 .689-.11.902-.33.22-.227.33-.554.33-.979v-1.584c0-.425-.11-.748-.33-.968-.213-.227-.513-.341-.902-.341-.374 0-.671.117-.891.352-.22.227-.33.546-.33.957v1.584c0 .41.11.733.33.968.22.227.517.341.891.341zm5.884 1.034c-.631 0-1.129-.161-1.496-.484-.359-.33-.539-.777-.539-1.342 0-.572.191-1.02.572-1.342.389-.33.92-.495 1.595-.495h1.683v-.561c0-.33-.103-.587-.308-.77-.205-.183-.495-.275-.869-.275-.33 0-.605.073-.825.22a.791.791 0 00-.385.561h-1.166c.066-.543.315-.975.748-1.298.44-.323.994-.484 1.661-.484.719 0 1.287.183 1.705.55.418.36.627.85.627 1.474V62h-1.155v-1.111h-.198l.198-.22c0 .44-.169.792-.506 1.056-.337.257-.785.385-1.342.385zm.352-.913c.425 0 .774-.106 1.045-.319a1.02 1.02 0 00.418-.836v-.792h-1.661c-.308 0-.554.084-.737.253-.176.169-.264.4-.264.693 0 .308.106.554.319.737.213.176.506.264.88.264zm6.181.803v-4.983h-2.134V55.95h5.456v1.067h-2.134V62h-1.188zm4.763 0v-6.05h1.089v3.135c0 .205-.008.433-.022.682a18.302 18.302 0 01-.121 1.309l2.277-5.126h1.485V62h-1.089v-3.135c0-.205.007-.425.022-.66a18.222 18.222 0 01.121-1.265L189.008 62h-1.485zm5.84.077v-1.089h.231c.293 0 .506-.117.638-.352.139-.235.212-.63.22-1.188l.066-3.498h4.235V62h-1.188v-4.961h-1.881l-.055 2.475c-.015.58-.096 1.06-.242 1.441-.14.381-.352.664-.638.847-.286.183-.646.275-1.078.275h-.308zm7.204-.077v-6.05h1.089v3.135c0 .205-.007.433-.022.682a18.302 18.302 0 01-.121 1.309l2.277-5.126h1.485V62h-1.089v-3.135c0-.205.007-.425.022-.66.015-.242.033-.477.055-.704.022-.227.044-.414.066-.561L202.052 62h-1.485zm8.909.11c-.499 0-.939-.092-1.32-.275a2.07 2.07 0 01-.869-.814c-.198-.36-.297-.777-.297-1.254v-1.584c0-.484.099-.902.297-1.254a2 2 0 01.869-.803c.381-.19.821-.286 1.32-.286.726 0 1.309.19 1.749.572.44.381.671.902.693 1.562h-1.188c-.022-.345-.143-.612-.363-.803-.22-.19-.517-.286-.891-.286-.403 0-.722.114-.957.341-.235.22-.352.535-.352.946v1.595c0 .41.117.73.352.957.235.227.554.341.957.341.374 0 .671-.095.891-.286.22-.19.341-.458.363-.803h1.188c-.022.66-.253 1.18-.693 1.562-.44.381-1.023.572-1.749.572zm4.179-.11v-6.05h1.188v2.101h1.672c.704 0 1.258.176 1.661.528.404.352.605.836.605 1.452 0 .601-.205 1.082-.616 1.441-.403.352-.953.528-1.65.528h-2.86zm1.188-1.056h1.639c.352 0 .62-.077.803-.231.191-.161.286-.392.286-.693 0-.293-.095-.517-.286-.671-.183-.161-.451-.242-.803-.242h-1.639v1.837zM226.689 62v-6.05h1.188v2.431h.968l1.606-2.431h1.342l-1.925 2.904L231.826 62h-1.364l-1.617-2.596h-.968V62h-1.188zm13.011 0v-6.05h1.188v2.431h2.332V55.95h1.188V62h-1.188v-2.53h-2.332V62H239.7zm8.271.11c-.631 0-1.129-.161-1.496-.484-.359-.33-.539-.777-.539-1.342 0-.572.191-1.02.572-1.342.389-.33.92-.495 1.595-.495h1.683v-.561c0-.33-.103-.587-.308-.77-.205-.183-.495-.275-.869-.275-.33 0-.605.073-.825.22a.791.791 0 00-.385.561h-1.166c.066-.543.315-.975.748-1.298.44-.323.994-.484 1.661-.484.719 0 1.287.183 1.705.55.418.36.627.85.627 1.474V62h-1.155v-1.111h-.198l.198-.22c0 .44-.169.792-.506 1.056-.337.257-.785.385-1.342.385zm.352-.913c.425 0 .774-.106 1.045-.319a1.02 1.02 0 00.418-.836v-.792h-1.661c-.308 0-.554.084-.737.253-.176.169-.264.4-.264.693 0 .308.106.554.319.737.213.176.506.264.88.264zm4.201.803v-6.05h1.496l.77 2.299c.081.242.151.477.209.704.059.22.099.389.121.506.03-.117.07-.286.121-.506.059-.227.125-.462.198-.704l.737-2.299h1.496V62h-1.122v-.979c0-.308.004-.642.011-1.001.015-.367.026-.737.033-1.111l.044-1.067c.015-.345.03-.649.044-.913l-1.001 3.289h-1.144l-1.023-3.267c.022.323.041.719.055 1.188.022.47.041.957.055 1.463.015.499.022.972.022 1.419V62h-1.122zm15.652.11c-.499 0-.939-.092-1.32-.275a2.07 2.07 0 01-.869-.814c-.198-.36-.297-.777-.297-1.254v-1.584c0-.484.099-.902.297-1.254a2 2 0 01.869-.803c.381-.19.821-.286 1.32-.286.726 0 1.309.19 1.749.572.44.381.671.902.693 1.562h-1.188c-.022-.345-.143-.612-.363-.803-.22-.19-.517-.286-.891-.286-.404 0-.723.114-.957.341-.235.22-.352.535-.352.946v1.595c0 .41.117.73.352.957.234.227.553.341.957.341.374 0 .671-.095.891-.286.22-.19.341-.458.363-.803h1.188c-.022.66-.253 1.18-.693 1.562-.44.381-1.023.572-1.749.572zm14.892 1.43V62h-4.235v-6.05h1.188v4.972h2.112V55.95h1.188v4.972h.825v2.618h-1.078zm4.641-1.43c-.491 0-.924-.095-1.298-.286a2.084 2.084 0 01-.847-.825c-.198-.352-.297-.763-.297-1.232v-1.584c0-.477.099-.887.297-1.232.198-.352.48-.623.847-.814.374-.198.807-.297 1.298-.297.499 0 .931.099 1.298.297.367.19.649.462.847.814.198.345.297.755.297 1.232v1.078h-3.74v.506c0 .447.11.788.33 1.023.227.235.554.352.979.352.345 0 .623-.059.836-.176a.799.799 0 00.396-.539h1.177a1.833 1.833 0 01-.792 1.232c-.44.3-.983.451-1.628.451zm1.298-3.564v-.374c0-.44-.11-.781-.33-1.023-.22-.242-.543-.363-.968-.363-.418 0-.741.121-.968.363-.22.242-.33.587-.33 1.034v.275l2.684-.011-.088.099zm2.188 3.531v-1.089h.231c.294 0 .506-.117.638-.352.14-.235.213-.63.22-1.188l.066-3.498h4.235V62h-1.188v-4.961h-1.881l-.055 2.475c-.014.58-.095 1.06-.242 1.441-.139.381-.352.664-.638.847-.286.183-.645.275-1.078.275h-.308zm7.248-.077v-6.05h1.188v2.101h1.672c.704 0 1.258.176 1.661.528.404.352.605.836.605 1.452 0 .601-.205 1.082-.616 1.441-.403.352-.953.528-1.65.528h-2.86zm1.188-1.056h1.639c.352 0 .62-.077.803-.231.191-.161.286-.392.286-.693 0-.293-.095-.517-.286-.671-.183-.161-.451-.242-.803-.242h-1.639v1.837zm8.613 1.166c-.528 0-.946-.169-1.254-.506-.308-.345-.462-.796-.462-1.353v-.88h-.935V62h-1.045v-6.05h1.045v2.552h.935v-.803c0-.565.15-1.016.451-1.353.308-.337.729-.506 1.265-.506.557 0 1.004.169 1.342.506.337.337.506.788.506 1.353v2.552c0 .557-.173 1.008-.517 1.353-.338.337-.781.506-1.331.506zm0-.902c.249 0 .443-.084.583-.253.146-.169.22-.403.22-.704v-2.552c0-.3-.074-.535-.22-.704-.14-.169-.334-.253-.583-.253a.733.733 0 00-.583.253c-.14.169-.209.403-.209.704v2.552c0 .3.069.535.209.704a.733.733 0 00.583.253zm5.554-3.619c-.286 0-.521-.08-.704-.242a.824.824 0 01-.264-.638c0-.264.088-.473.264-.627.183-.161.418-.242.704-.242.293 0 .528.08.704.242.176.154.264.363.264.627a.824.824 0 01-.264.638c-.176.161-.411.242-.704.242zm0 4.521c-.286 0-.521-.08-.704-.242a.811.811 0 01-.264-.627c0-.271.088-.484.264-.638.183-.161.418-.242.704-.242.293 0 .528.08.704.242.176.154.264.367.264.638a.811.811 0 01-.264.627c-.176.161-.411.242-.704.242z" fill="#000"/></svg>