<svg width="354" height="379" fill="none" xmlns="http://www.w3.org/2000/svg"><rect x=".265" y=".265" width="201.47" height="108.336" rx="12.321" fill="#A9B7DF" stroke="#fff" stroke-width=".53"/><path d="M8.9 43V32.05h1.98v4.8c0 .34-.015.735-.045 1.185a56.514 56.514 0 01-.165 2.49l2.805-8.475H16.1V43h-1.98v-4.5c0-.35.01-.765.03-1.245.03-.48.065-.965.105-1.455l.105-1.275L11.525 43H8.9zm9.01 0v-8.25h2.25v3.015h2.52V34.75h2.25V43h-2.25v-3.135h-2.52V43h-2.25zm11.306 0v-6.15h-2.7v-2.1h7.65v2.1h-2.7V43h-2.25zm10.06.15c-.73 0-1.37-.135-1.92-.405-.54-.28-.96-.665-1.26-1.155-.29-.5-.434-1.08-.434-1.74V37.9c0-.66.145-1.235.435-1.725.3-.5.72-.885 1.26-1.155.55-.28 1.19-.42 1.92-.42s1.36.14 1.89.42c.54.27.955.655 1.245 1.155.3.49.45 1.065.45 1.725v1.5h-5.055v.45c0 .52.125.915.375 1.185.25.26.625.39 1.125.39.35 0 .63-.06.84-.18a.872.872 0 00.435-.495h2.205c-.18.72-.59 1.3-1.23 1.74-.63.44-1.39.66-2.28.66zm1.44-4.905v-.375c0-.51-.12-.9-.36-1.17-.23-.27-.59-.405-1.08-.405-.49 0-.86.14-1.11.42-.24.28-.36.675-.36 1.185v.225l3.06-.03-.15.15zM45.408 43v-8.25h6.3v2.1h-4.05V43h-2.25zm8.186 2.7V34.75h2.175v1.575h.525l-.525.525c0-.71.195-1.26.585-1.65.39-.4.925-.6 1.605-.6.83 0 1.495.295 1.995.885.5.58.75 1.36.75 2.34v2.1c0 .65-.115 1.22-.345 1.71-.22.48-.535.855-.945 1.125-.41.26-.895.39-1.455.39-.68 0-1.215-.195-1.605-.585-.39-.4-.585-.955-.585-1.665l.525.525h-.525l.075 2.025v2.25h-2.25zm3.555-4.5c.42 0 .74-.115.96-.345.23-.24.345-.575.345-1.005V37.9c0-.44-.115-.775-.345-1.005-.22-.23-.54-.345-.96-.345-.41 0-.73.12-.96.36-.23.23-.345.56-.345.99v1.95c0 .43.115.765.345 1.005.23.23.55.345.96.345zm7.81 1.95c-.83 0-1.49-.225-1.98-.675-.48-.45-.72-1.06-.72-1.83 0-.83.286-1.465.856-1.905.58-.45 1.41-.675 2.49-.675h1.71v-.615a.941.941 0 00-.345-.765c-.22-.19-.52-.285-.9-.285-.35 0-.64.08-.87.24-.23.16-.37.38-.42.66h-2.175c.09-.83.45-1.485 1.08-1.965.64-.49 1.46-.735 2.46-.735 1.05 0 1.88.26 2.49.78.62.51.93 1.2.93 2.07V43H67.39v-1.35h-.36l.375-.525c0 .62-.225 1.115-.675 1.485-.44.36-1.03.54-1.77.54zm.84-1.65c.44 0 .8-.115 1.08-.345.29-.24.436-.55.436-.93v-.885H65.65c-.34 0-.615.1-.825.3-.21.19-.315.445-.315.765 0 .34.115.61.345.81.23.19.545.285.945.285zm11.216 3.6V43h-5.58v-8.25h2.25v6.15h2.055v-6.15h2.25v6.15h1.125v4.2h-2.1zm3.34-2.1v-8.25h1.98v3.75c0 .25-.014.565-.044.945-.03.37-.07.745-.12 1.125-.04.38-.085.715-.135 1.005l2.61-6.825h2.73V43h-1.98v-3.75c0-.26.015-.555.045-.885.03-.34.065-.68.105-1.02.04-.34.08-.63.12-.87L83.085 43h-2.73zm8.681 0l1.8-2.895c-.53-.2-.944-.515-1.244-.945-.3-.43-.45-.935-.45-1.515 0-.91.304-1.62.914-2.13.61-.51 1.455-.765 2.535-.765h3.706V43H94.06v-2.61h-.99L91.57 43h-2.534zm3.69-4.32h1.35v-2.145h-1.35c-.42 0-.75.095-.99.285-.24.19-.36.455-.36.795s.115.605.346.795c.24.18.575.27 1.004.27zm17.362 7.02V43c-.96 0-1.715-.27-2.265-.81s-.825-1.28-.825-2.22v-2.22c0-.93.275-1.66.825-2.19.56-.54 1.315-.81 2.265-.81v-2.7h1.08v2.7c.96 0 1.715.27 2.265.81.55.53.825 1.26.825 2.19v2.22c0 .94-.275 1.68-.825 2.22-.55.54-1.305.81-2.265.81v2.7h-1.08zm.03-3.66v-6.33c-.63 0-1.125.18-1.485.54-.35.35-.525.85-.525 1.5v2.22c0 .65.175 1.16.525 1.53.36.36.855.54 1.485.54zm1.02 0c.64 0 1.135-.18 1.485-.54.35-.37.525-.88.525-1.53v-2.22c0-.65-.175-1.15-.525-1.5-.35-.36-.845-.54-1.485-.54v6.33zm6.67 3.66l1.215-3.225-3.06-7.725h1.32l1.95 5.145c.08.2.155.425.225.675.08.24.14.44.18.6.05-.16.11-.365.18-.615.07-.25.14-.475.21-.675l1.83-5.13h1.275l-4.065 10.95h-1.26zm7.631-2.7v-8.25h1.2v3.51h3.66v-3.51h1.2V43h-1.2v-3.66h-3.66V43h-1.2zm8.966 0v-8.25h1.2v3.465h1.56l2.445-3.465h1.365l-2.775 3.93 2.835 4.32h-1.395l-2.475-3.75h-1.56V43h-1.2zm14.74 2.1V43h-5.865v-8.25h1.2v7.185h3.42V34.75h1.185v7.185h1.14V45.1h-1.08zM152.2 43v-8.25h1.155v4.695c0 .28-.01.58-.03.9a22.728 22.728 0 01-.105 1.59l3.495-7.185h1.545V43h-1.155v-4.695c0-.29.005-.59.015-.9.02-.31.04-.605.06-.885.03-.29.05-.53.06-.72l-3.51 7.2h-1.53zm8.92 0v-8.25h1.155v4.695c0 .28-.01.58-.03.9a22.728 22.728 0 01-.105 1.59l3.495-7.185h1.545V43h-1.155v-4.695c0-.29.005-.59.015-.9.02-.31.04-.605.06-.885.03-.29.05-.53.06-.72l-3.51 7.2h-1.53zM9.47 63v-8.25h6.06V63h-1.2v-7.17h-3.66V63h-1.2zm8.906 2.7V54.75h1.185v1.455h.315l-.36.495c0-.65.21-1.16.63-1.53.43-.38.995-.57 1.695-.57.83 0 1.49.275 1.98.825.5.54.75 1.28.75 2.22v2.445c0 .63-.115 1.175-.345 1.635-.23.45-.55.8-.96 1.05-.4.25-.875.375-1.425.375-.69 0-1.25-.19-1.68-.57-.43-.38-.645-.89-.645-1.53l.315.495h-.285l.015 1.68V65.7h-1.185zm3.09-3.585c.6 0 1.065-.18 1.395-.54.34-.36.51-.87.51-1.53v-2.34c0-.67-.17-1.18-.51-1.53-.33-.36-.795-.54-1.395-.54-.58 0-1.045.185-1.395.555-.34.36-.51.865-.51 1.515v2.34c0 .65.17 1.16.51 1.53.35.36.815.54 1.395.54zm8.875 1.02c-.64 0-1.195-.125-1.665-.375a2.65 2.65 0 01-1.095-1.08c-.26-.47-.39-1.025-.39-1.665v-2.28c0-.65.13-1.205.39-1.665.26-.47.625-.83 1.095-1.08.47-.25 1.025-.375 1.665-.375.64 0 1.195.125 1.665.375s.835.61 1.095 1.08c.26.46.39 1.01.39 1.65v2.295c0 .64-.13 1.195-.39 1.665s-.625.83-1.095 1.08c-.47.25-1.025.375-1.665.375zm0-1.065c.62 0 1.1-.175 1.44-.525.34-.35.51-.86.51-1.53v-2.28c0-.67-.175-1.18-.525-1.53-.34-.35-.815-.525-1.425-.525-.61 0-1.09.175-1.44.525-.34.35-.51.86-.51 1.53v2.28c0 .67.17 1.18.51 1.53.35.35.83.525 1.44.525zm5.89.93v-8.25h3.54c.82 0 1.466.195 1.936.585.47.38.705.91.705 1.59 0 .57-.195 1.03-.585 1.38-.38.34-.89.51-1.53.51v-.105c.69 0 1.245.18 1.665.54.42.35.63.82.63 1.41 0 .73-.25 1.305-.75 1.725-.49.41-1.17.615-2.04.615h-3.57zm1.17-1.05h2.4c.49 0 .88-.115 1.17-.345.29-.24.436-.56.436-.96 0-.42-.145-.745-.435-.975-.29-.24-.68-.36-1.17-.36h-2.4v2.64zm0-3.675h2.37c.44 0 .79-.11 1.05-.33.27-.22.406-.52.406-.9s-.135-.68-.405-.9c-.26-.23-.61-.345-1.05-.345h-2.37v2.475zm10.781 4.875c-.64 0-1.195-.125-1.665-.375a2.747 2.747 0 01-1.095-1.095c-.26-.47-.39-1.015-.39-1.635v-2.34c0-.63.13-1.175.39-1.635.26-.47.625-.83 1.095-1.08.47-.26 1.025-.39 1.665-.39.64 0 1.195.13 1.665.39.47.25.835.61 1.095 1.08.26.46.39 1.005.39 1.635v1.455h-5.13v.885c0 .67.17 1.19.51 1.56.35.36.84.54 1.47.54.53 0 .96-.105 1.29-.315.34-.21.555-.515.645-.915h1.185a2.394 2.394 0 01-1.005 1.635c-.56.4-1.265.6-2.115.6zm1.98-4.785v-.66c0-.67-.17-1.185-.51-1.545-.34-.37-.83-.555-1.47-.555-.63 0-1.12.185-1.47.555-.34.36-.51.875-.51 1.545v.525h4.08l-.12.135zm3.896 7.335V54.75h1.185v1.455h.315l-.36.495c0-.65.21-1.16.63-1.53.43-.38.995-.57 1.695-.57.83 0 1.49.275 1.98.825.5.54.75 1.28.75 2.22v2.445c0 .63-.115 1.175-.345 1.635-.23.45-.55.8-.96 1.05-.4.25-.875.375-1.425.375-.69 0-1.25-.19-1.68-.57-.43-.38-.645-.89-.645-1.53l.315.495h-.285l.015 1.68V65.7h-1.185zm3.09-3.585c.6 0 1.065-.18 1.395-.54.34-.36.51-.87.51-1.53v-2.34c0-.67-.17-1.18-.51-1.53-.33-.36-.795-.54-1.395-.54-.58 0-1.045.185-1.395.555-.34.36-.51.865-.51 1.515v2.34c0 .65.17 1.16.51 1.53.35.36.815.54 1.395.54zm5.89.885v-8.25h1.2v3.465h1.56l2.446-3.465h1.365l-2.775 3.93L69.669 63h-1.395l-2.475-3.75h-1.56V63h-1.2zm8.876 0v-8.25h1.155v4.695c0 .28-.01.58-.03.9a22.728 22.728 0 01-.105 1.59l3.495-7.185h1.545V63H76.82v-4.695c0-.29.005-.59.015-.9.02-.31.04-.605.06-.885.03-.29.05-.53.06-.72l-3.51 7.2h-1.53zm17.361 0v-8.25h7.02V63h-2.25v-6.15h-2.52V63h-2.25zm12.431.15c-.73 0-1.365-.135-1.905-.405-.54-.28-.96-.665-1.26-1.155-.29-.5-.435-1.08-.435-1.74V57.9c0-.66.145-1.235.435-1.725.3-.5.72-.885 1.26-1.155.54-.28 1.175-.42 1.905-.42.74 0 1.375.14 1.905.42.54.27.955.655 1.245 1.155.3.49.45 1.065.45 1.725v1.95c0 .66-.15 1.24-.45 1.74-.29.49-.705.875-1.245 1.155-.53.27-1.165.405-1.905.405zm0-1.95c.44 0 .775-.115 1.005-.345.23-.24.345-.575.345-1.005V57.9c0-.44-.115-.775-.345-1.005-.23-.23-.565-.345-1.005-.345-.43 0-.765.115-1.005.345-.23.23-.345.565-.345 1.005v1.95c0 .43.115.765.345 1.005.24.23.575.345 1.005.345zm4.751 3.9v-4.005h.465c.17-.17.345-.465.525-.885.19-.43.29-.95.3-1.56l.075-3.9h6.075v6.345h.9V65.1h-2.1V63h-4.14v2.1h-2.1zm2.7-4.005h2.64v-4.41h-1.905l-.045 1.95c-.01.58-.095 1.09-.255 1.53-.15.43-.295.74-.435.93zm6.88 1.905v-8.25h7.02V63h-2.25v-6.15h-2.52V63h-2.25zm8.921 0v-8.25h1.98v3.75c0 .25-.015.565-.045.945-.03.37-.07.745-.12 1.125-.04.38-.085.715-.135 1.005l2.61-6.825h2.73V63h-1.98v-3.75c0-.26.015-.555.045-.885.03-.34.065-.68.105-1.02.04-.34.08-.63.12-.87L127.688 63h-2.73zm12.476.15c-.73 0-1.37-.135-1.92-.405a3.11 3.11 0 01-1.275-1.155c-.3-.5-.45-1.08-.45-1.74V57.9c0-.67.15-1.25.45-1.74.3-.49.725-.87 1.275-1.14.55-.28 1.19-.42 1.92-.42 1.09 0 1.96.275 2.61.825.65.55.995 1.3 1.035 2.25h-2.25c-.03-.35-.17-.625-.42-.825-.24-.2-.565-.3-.975-.3-.45 0-.795.115-1.035.345-.24.23-.36.565-.36 1.005v1.95c0 .43.12.765.36 1.005.24.23.585.345 1.035.345.41 0 .735-.095.975-.285.25-.2.39-.48.42-.84h2.25c-.04.95-.385 1.7-1.035 2.25-.65.55-1.52.825-2.61.825zm5.41-.15v-8.25h2.25v3.12h1.11l1.725-3.12h2.505l-2.295 4.035 2.34 4.215h-2.55l-1.74-3.24h-1.095V63h-2.25zm8.876 0v-8.25h1.98v3.75c0 .25-.015.565-.045.945-.03.37-.07.745-.12 1.125-.04.38-.085.715-.135 1.005l2.61-6.825h2.73V63h-1.98v-3.75c0-.26.015-.555.045-.885.03-.34.065-.68.105-1.02.04-.34.08-.63.12-.87L154.45 63h-2.73zm17.841 0v-8.25h2.25v3.015h2.52V54.75h2.25V63h-2.25v-3.135h-2.52V63h-2.25zm11.366.15c-.83 0-1.49-.225-1.98-.675-.48-.45-.72-1.06-.72-1.83 0-.83.285-1.465.855-1.905.58-.45 1.41-.675 2.49-.675h1.71v-.615a.941.941 0 00-.345-.765c-.22-.19-.52-.285-.9-.285-.35 0-.64.08-.87.24-.23.16-.37.38-.42.66h-2.175c.09-.83.45-1.485 1.08-1.965.64-.49 1.46-.735 2.46-.735 1.05 0 1.88.26 2.49.78.62.51.93 1.2.93 2.07V63h-2.175v-1.35h-.36l.375-.525c0 .62-.225 1.115-.675 1.485-.44.36-1.03.54-1.77.54zm.84-1.65c.44 0 .8-.115 1.08-.345.29-.24.435-.55.435-.93v-.885h-1.665c-.34 0-.615.1-.825.3-.21.19-.315.445-.315.765 0 .34.115.61.345.81.23.19.545.285.945.285zM9.035 83v-8.25h2.25v3.12h1.11l1.725-3.12h2.505l-2.295 4.035L16.67 83h-2.55l-1.74-3.24h-1.095V83h-2.25zm11.32.15c-.83 0-1.49-.225-1.98-.675-.48-.45-.72-1.06-.72-1.83 0-.83.286-1.465.856-1.905.58-.45 1.41-.675 2.49-.675h1.71v-.615a.941.941 0 00-.345-.765c-.22-.19-.52-.285-.9-.285-.35 0-.64.08-.87.24-.23.16-.37.38-.42.66H18c.09-.83.45-1.485 1.08-1.965.64-.49 1.46-.735 2.46-.735 1.05 0 1.88.26 2.49.78.62.51.93 1.2.93 2.07V83h-2.175v-1.35h-.36l.375-.525c0 .62-.225 1.115-.675 1.485-.44.36-1.03.54-1.77.54zm.84-1.65c.44 0 .8-.115 1.08-.345.29-.24.436-.55.436-.93v-.885h-1.665c-.34 0-.615.1-.825.3-.21.19-.315.445-.315.765 0 .34.115.61.345.81.23.19.545.285.945.285zm5.636 1.5v-8.25h2.25v3.015h2.52V74.75h2.25V83h-2.25v-3.135h-2.52V83h-2.25zm11.366.15c-.83 0-1.49-.225-1.98-.675-.48-.45-.72-1.06-.72-1.83 0-.83.285-1.465.855-1.905.58-.45 1.41-.675 2.49-.675h1.71v-.615a.941.941 0 00-.345-.765c-.22-.19-.52-.285-.9-.285-.35 0-.64.08-.87.24-.23.16-.37.38-.42.66h-2.175c.09-.83.45-1.485 1.08-1.965.64-.49 1.46-.735 2.46-.735 1.05 0 1.88.26 2.49.78.62.51.93 1.2.93 2.07V83h-2.175v-1.35h-.36l.375-.525c0 .62-.225 1.115-.675 1.485-.44.36-1.03.54-1.77.54zm.84-1.65c.44 0 .8-.115 1.08-.345.29-.24.435-.55.435-.93v-.885h-1.665c-.34 0-.615.1-.825.3-.21.19-.315.445-.315.765 0 .34.115.61.345.81.23.19.545.285.945.285zm4.96 1.605V81.08h.45c.26 0 .475-.11.645-.33.17-.22.26-.51.27-.87l.09-5.13h6.24V83h-2.25v-6.15h-1.785l-.06 3.18c-.01.61-.145 1.15-.405 1.62-.25.46-.6.82-1.05 1.08-.44.25-.955.375-1.545.375h-.6z" fill="#000"/><rect x="211.265" y=".265" width="142.47" height="108.47" rx="12.336" fill="#A9B7DF" stroke="#fff" stroke-width=".53"/><path d="M221.99 40V29.05h3.735c.77 0 1.44.145 2.01.435.58.29 1.025.695 1.335 1.215.32.52.48 1.13.48 1.83 0 .69-.16 1.3-.48 1.83-.32.52-.765.925-1.335 1.215-.57.29-1.24.435-2.01.435h-1.485V40h-2.25zm2.25-6.015h1.485c.48 0 .86-.13 1.14-.39.29-.27.435-.625.435-1.065 0-.44-.145-.79-.435-1.05-.28-.27-.66-.405-1.14-.405h-1.485v2.91zm9.116 6.165c-.83 0-1.49-.225-1.98-.675-.48-.45-.72-1.06-.72-1.83 0-.83.285-1.465.855-1.905.58-.45 1.41-.675 2.49-.675h1.71v-.615a.941.941 0 00-.345-.765c-.22-.19-.52-.285-.9-.285-.35 0-.64.08-.87.24-.23.16-.37.38-.42.66h-2.175c.09-.83.45-1.485 1.08-1.965.64-.49 1.46-.735 2.46-.735 1.05 0 1.88.26 2.49.78.62.51.93 1.2.93 2.07V40h-2.175v-1.35h-.36l.375-.525c0 .62-.225 1.115-.675 1.485-.44.36-1.03.54-1.77.54zm.84-1.65c.44 0 .8-.115 1.08-.345.29-.24.435-.55.435-.93v-.885h-1.665c-.34 0-.615.1-.825.3-.21.19-.315.445-.315.765 0 .34.115.61.345.81.23.19.545.285.945.285zm8.725 1.605c-.92 0-1.685-.225-2.295-.675-.61-.45-.98-1.06-1.11-1.83h2.175c.07.23.215.415.435.555.22.13.485.195.795.195h.855c.33 0 .59-.075.78-.225a.8.8 0 00.285-.645.741.741 0 00-.285-.615c-.19-.15-.45-.225-.78-.225h-1.935v-1.71h1.845c.31 0 .55-.065.72-.195a.7.7 0 00.255-.57c0-.17-.04-.31-.12-.42a.67.67 0 00-.33-.255c-.14-.06-.315-.09-.525-.09h-.69c-.31 0-.57.07-.78.21a.94.94 0 00-.42.54h-2.175c.13-.77.495-1.38 1.095-1.83.6-.45 1.36-.675 2.28-.675h.69c.66 0 1.23.095 1.71.285.48.18.85.44 1.11.78.26.33.39.725.39 1.185 0 .55-.21.995-.63 1.335-.41.34-.955.51-1.635.51v-.15c.74 0 1.335.19 1.785.57.45.37.675.865.675 1.485 0 .75-.3 1.35-.9 1.8-.6.44-1.405.66-2.415.66h-.855zm5.831 2.595V31.75h2.175v1.575h.525l-.525.525c0-.71.195-1.26.585-1.65.39-.4.925-.6 1.605-.6.83 0 1.495.295 1.995.885.5.58.75 1.36.75 2.34v2.1c0 .65-.115 1.22-.345 1.71-.22.48-.535.855-.945 1.125-.41.26-.895.39-1.455.39-.68 0-1.215-.195-1.605-.585-.39-.4-.585-.955-.585-1.665l.525.525h-.525l.075 2.025v2.25h-2.25zm3.555-4.5c.42 0 .74-.115.96-.345.23-.24.345-.575.345-1.005V34.9c0-.44-.115-.775-.345-1.005-.22-.23-.54-.345-.96-.345-.41 0-.73.12-.96.36-.23.23-.345.56-.345.99v1.95c0 .43.115.765.345 1.005.23.23.55.345.96.345zm7.81 1.95c-.83 0-1.49-.225-1.98-.675-.48-.45-.72-1.06-.72-1.83 0-.83.285-1.465.855-1.905.58-.45 1.41-.675 2.49-.675h1.71v-.615a.941.941 0 00-.345-.765c-.22-.19-.52-.285-.9-.285-.35 0-.64.08-.87.24-.23.16-.37.38-.42.66h-2.175c.09-.83.45-1.485 1.08-1.965.64-.49 1.46-.735 2.46-.735 1.05 0 1.88.26 2.49.78.62.51.93 1.2.93 2.07V40h-2.175v-1.35h-.36l.375-.525c0 .62-.225 1.115-.675 1.485-.44.36-1.03.54-1.77.54zm.84-1.65c.44 0 .8-.115 1.08-.345.29-.24.435-.55.435-.93v-.885h-1.665c-.34 0-.615.1-.825.3-.21.19-.315.445-.315.765 0 .34.115.61.345.81.23.19.545.285.945.285zm9.146 1.65c-1.1-.02-1.975-.32-2.625-.9-.65-.59-.975-1.39-.975-2.4v-3.675c0-1.32.37-2.335 1.11-3.045.74-.72 1.795-1.08 3.165-1.08h2.475v2.175h-2.475c-.66 0-1.165.165-1.515.495-.34.33-.51.815-.51 1.455v1.05h.21l-.18.21c-.01-.56.17-1.005.54-1.335.38-.34.92-.51 1.62-.51.87 0 1.545.285 2.025.855.49.57.735 1.36.735 2.37v1.035c0 .67-.15 1.26-.45 1.77-.29.5-.705.885-1.245 1.155-.53.26-1.165.385-1.905.375zm0-1.95c.44 0 .775-.115 1.005-.345.23-.24.345-.575.345-1.005v-1.035c0-.44-.115-.775-.345-1.005-.23-.23-.565-.345-1.005-.345-.43 0-.765.115-1.005.345-.23.23-.345.565-.345 1.005v1.035c0 .43.115.765.345 1.005.24.23.575.345 1.005.345zm8.921 1.95c-.73 0-1.365-.135-1.905-.405-.54-.28-.96-.665-1.26-1.155-.29-.5-.435-1.08-.435-1.74V34.9c0-.66.145-1.235.435-1.725.3-.5.72-.885 1.26-1.155.54-.28 1.175-.42 1.905-.42.74 0 1.375.14 1.905.42.54.27.955.655 1.245 1.155.3.49.45 1.065.45 1.725v1.95c0 .66-.15 1.24-.45 1.74-.29.49-.705.875-1.245 1.155-.53.27-1.165.405-1.905.405zm0-1.95c.44 0 .775-.115 1.005-.345.23-.24.345-.575.345-1.005V34.9c0-.44-.115-.775-.345-1.005-.23-.23-.565-.345-1.005-.345-.43 0-.765.115-1.005.345-.23.23-.345.565-.345 1.005v1.95c0 .43.115.765.345 1.005.24.23.575.345 1.005.345zm7.795 1.8v-6.15h-2.7v-2.1h7.65v2.1h-2.7V40h-2.25zm6.581 0v-8.25h2.25v3.12h1.11l1.725-3.12h2.505l-2.295 4.035 2.34 4.215h-2.55l-1.74-3.24h-1.095V40h-2.25zm11.32.15c-.83 0-1.49-.225-1.98-.675-.48-.45-.72-1.06-.72-1.83 0-.83.285-1.465.855-1.905.58-.45 1.41-.675 2.49-.675h1.71v-.615a.941.941 0 00-.345-.765c-.22-.19-.52-.285-.9-.285-.35 0-.64.08-.87.24-.23.16-.37.38-.42.66h-2.175c.09-.83.45-1.485 1.08-1.965.64-.49 1.46-.735 2.46-.735 1.05 0 1.88.26 2.491.78.619.51.929 1.2.929 2.07V40h-2.174v-1.35h-.361l.375-.525c0 .62-.225 1.115-.675 1.485-.44.36-1.03.54-1.77.54zm.84-1.65c.44 0 .8-.115 1.08-.345.29-.24.435-.55.435-.93v-.885h-1.665c-.34 0-.615.1-.825.3-.21.19-.315.445-.315.765 0 .34.115.61.345.81.23.19.545.285.945.285zM222.47 60v-8.25h1.155v4.695c0 .28-.01.58-.03.9a22.728 22.728 0 01-.105 1.59l3.495-7.185h1.545V60h-1.155v-4.695c0-.29.005-.59.015-.9.02-.31.04-.605.06-.885.03-.29.05-.53.06-.72L224 60h-1.53zm8.921 0v-8.25h1.2v3.51h3.66v-3.51h1.2V60h-1.2v-3.66h-3.66V60h-1.2zm11.35 0v-7.185h-3V51.75h7.2v1.065h-3V60h-1.2zm9.521.15c-.64 0-1.195-.125-1.665-.375a2.747 2.747 0 01-1.095-1.095c-.26-.47-.39-1.015-.39-1.635v-2.34c0-.63.13-1.175.39-1.635.26-.47.625-.83 1.095-1.08.47-.26 1.025-.39 1.665-.39.64 0 1.195.13 1.665.39.47.25.835.61 1.095 1.08.26.46.39 1.005.39 1.635v1.455h-5.13v.885c0 .67.17 1.19.51 1.56.35.36.84.54 1.47.54.53 0 .96-.105 1.29-.315.34-.21.555-.515.645-.915h1.185a2.394 2.394 0 01-1.005 1.635c-.56.4-1.265.6-2.115.6zm1.98-4.785v-.66c0-.67-.17-1.185-.51-1.545-.34-.37-.83-.555-1.47-.555-.63 0-1.12.185-1.47.555-.34.36-.51.875-.51 1.545v.525h4.08l-.12.135zm3.895 7.335V51.75h1.185v1.455h.315l-.36.495c0-.65.21-1.16.63-1.53.43-.38.995-.57 1.695-.57.83 0 1.49.275 1.98.825.5.54.75 1.28.75 2.22v2.445c0 .63-.115 1.175-.345 1.635-.23.45-.55.8-.96 1.05-.4.25-.875.375-1.425.375-.69 0-1.25-.19-1.68-.57-.43-.38-.645-.89-.645-1.53l.315.495h-.285l.015 1.68V62.7h-1.185zm3.09-3.585c.6 0 1.065-.18 1.395-.54.34-.36.51-.87.51-1.53v-2.34c0-.67-.17-1.18-.51-1.53-.33-.36-.795-.54-1.395-.54-.58 0-1.045.185-1.395.555-.34.36-.51.865-.51 1.515v2.34c0 .65.17 1.16.51 1.53.35.36.815.54 1.395.54zm8.231 1.035c-.87 0-1.555-.22-2.055-.66-.5-.45-.75-1.055-.75-1.815 0-.75.245-1.34.735-1.77.49-.44 1.15-.66 1.98-.66h2.625v-.87c0-.55-.16-.975-.48-1.275-.32-.3-.775-.45-1.365-.45-.52 0-.955.115-1.305.345-.34.23-.535.54-.585.93h-1.2c.1-.71.43-1.275.99-1.695.57-.42 1.28-.63 2.13-.63.92 0 1.65.25 2.19.75.54.49.81 1.155.81 1.995V60h-1.17v-1.605h-.195l.225-.24c0 .61-.235 1.095-.705 1.455-.47.36-1.095.54-1.875.54zm.285-.96c.66 0 1.2-.165 1.62-.495.42-.33.63-.76.63-1.29V56.16h-2.61c-.47 0-.845.13-1.125.39s-.42.615-.42 1.065c0 .48.17.865.51 1.155.34.28.805.42 1.395.42zm6.296.81v-8.25h1.2v3.465h1.56l2.445-3.465h1.365l-2.775 3.93 2.835 4.32h-1.395l-2.475-3.75h-1.56V60h-1.2zm11.305 0v-7.185h-3V51.75h7.2v1.065h-3V60h-1.2zm6.491 0v-8.25h1.155v4.695c0 .28-.01.58-.03.9a22.728 22.728 0 01-.105 1.59l3.495-7.185h1.545V60h-1.155v-4.695c0-.29.005-.59.015-.9.02-.31.04-.605.06-.885.03-.29.05-.53.06-.72l-3.51 7.2h-1.53zm8.92 0v-8.25h3.54c.82 0 1.465.195 1.936.585.47.38.705.91.705 1.59 0 .57-.195 1.03-.586 1.38-.38.34-.89.51-1.53.51v-.105c.69 0 1.245.18 1.665.54.42.35.63.82.63 1.41 0 .73-.25 1.305-.749 1.725-.491.41-1.171.615-2.041.615h-3.57zm1.17-1.05h2.4c.49 0 .88-.115 1.171-.345.289-.24.434-.56.434-.96 0-.42-.145-.745-.434-.975-.291-.24-.681-.36-1.171-.36h-2.4v2.64zm0-3.675h2.37c.44 0 .79-.11 1.05-.33.27-.22.405-.52.405-.9s-.135-.68-.405-.9c-.26-.23-.61-.345-1.05-.345h-2.37v2.475zM311.676 60v-8.25h1.2v3.51h3.66v-3.51h1.2V60h-1.2v-3.66h-3.66V60h-1.2zm11.951.135c-.64 0-1.195-.125-1.665-.375a2.65 2.65 0 01-1.095-1.08c-.26-.47-.39-1.025-.39-1.665v-2.28c0-.65.13-1.205.39-1.665.26-.47.625-.83 1.095-1.08.47-.25 1.025-.375 1.665-.375.64 0 1.195.125 1.665.375s.835.61 1.095 1.08c.26.46.39 1.01.39 1.65v2.295c0 .64-.13 1.195-.39 1.665s-.625.83-1.095 1.08c-.47.25-1.025.375-1.665.375zm0-1.065c.62 0 1.1-.175 1.44-.525.34-.35.51-.86.51-1.53v-2.28c0-.67-.175-1.18-.525-1.53-.34-.35-.815-.525-1.425-.525-.61 0-1.09.175-1.44.525-.34.35-.51.86-.51 1.53v2.28c0 .67.17 1.18.51 1.53.35.35.83.525 1.44.525zm6.43.93v-8.25h5.85v1.08h-4.665V60h-1.185zm11.411.135c-.64 0-1.195-.125-1.665-.375a2.65 2.65 0 01-1.095-1.08c-.26-.47-.39-1.025-.39-1.665v-2.28c0-.65.13-1.205.39-1.665.26-.47.625-.83 1.095-1.08.47-.25 1.025-.375 1.665-.375.64 0 1.195.125 1.665.375s.835.61 1.095 1.08c.26.46.39 1.01.39 1.65v2.295c0 .64-.13 1.195-.39 1.665s-.625.83-1.095 1.08c-.47.25-1.025.375-1.665.375zm0-1.065c.62 0 1.1-.175 1.44-.525.34-.35.51-.86.51-1.53v-2.28c0-.67-.175-1.18-.525-1.53-.34-.35-.815-.525-1.425-.525-.61 0-1.09.175-1.44.525-.34.35-.51.86-.51 1.53v2.28c0 .67.17 1.18.51 1.53.35.35.83.525 1.44.525zM224.915 80v-9.87h-3.075v-1.095h7.32v1.095h-3.06V80h-1.185zm9.506.15c-.64 0-1.195-.125-1.665-.375a2.747 2.747 0 01-1.095-1.095c-.26-.47-.39-1.015-.39-1.635v-2.34c0-.63.13-1.175.39-1.635.26-.47.625-.83 1.095-1.08.47-.26 1.025-.39 1.665-.39.64 0 1.195.13 1.665.39.47.25.835.61 1.095 1.08.26.46.39 1.005.39 1.635v1.455h-5.13v.885c0 .67.17 1.19.51 1.56.35.36.84.54 1.47.54.53 0 .96-.105 1.29-.315.34-.21.555-.515.645-.915h1.185a2.394 2.394 0 01-1.005 1.635c-.56.4-1.265.6-2.115.6zm1.98-4.785v-.66c0-.67-.17-1.185-.51-1.545-.34-.37-.83-.555-1.47-.555-.63 0-1.12.185-1.47.555-.34.36-.51.875-.51 1.545v.525h4.08l-.12.135zm8.02 4.635c-.47 0-.88-.09-1.23-.27-.34-.18-.605-.44-.795-.78-.19-.34-.285-.74-.285-1.2v-7.62h-2.745v-1.08h3.93v8.7c0 .37.1.66.3.87.2.2.475.3.825.3h2.625V80h-2.625zm7.841.15c-.64 0-1.195-.125-1.665-.375a2.747 2.747 0 01-1.095-1.095c-.26-.47-.39-1.015-.39-1.635v-2.34c0-.63.13-1.175.39-1.635.26-.47.625-.83 1.095-1.08.47-.26 1.025-.39 1.665-.39.64 0 1.195.13 1.665.39.47.25.835.61 1.095 1.08.26.46.39 1.005.39 1.635v1.455h-5.13v.885c0 .67.17 1.19.51 1.56.35.36.84.54 1.47.54.53 0 .96-.105 1.29-.315.34-.21.555-.515.645-.915h1.185a2.394 2.394 0 01-1.005 1.635c-.56.4-1.265.6-2.115.6zm1.98-4.785v-.66c0-.67-.17-1.185-.51-1.545-.34-.37-.83-.555-1.47-.555-.63 0-1.12.185-1.47.555-.34.36-.51.875-.51 1.545v.525h4.08l-.12.135zm4.9 7.335v-1.08h2.505c.47 0 .815-.11 1.035-.33.23-.22.345-.555.345-1.005v-.96l.03-1.56h-.27l.285-.345c0 .62-.205 1.115-.615 1.485-.41.37-.96.555-1.65.555-.84 0-1.505-.275-1.995-.825-.49-.56-.735-1.305-.735-2.235v-1.755c0-.93.245-1.67.735-2.22.49-.55 1.155-.825 1.995-.825.69 0 1.24.185 1.65.555.41.36.615.85.615 1.47l-.27-.345h.24v-1.53h1.17v8.535c0 .76-.225 1.35-.675 1.77-.44.43-1.07.645-1.89.645h-2.505zm2.01-4.275c.59 0 1.05-.18 1.38-.54.34-.37.51-.88.51-1.53v-1.65c0-.65-.17-1.155-.51-1.515-.33-.37-.79-.555-1.38-.555-.6 0-1.065.18-1.395.54-.33.36-.495.87-.495 1.53v1.65c0 .66.165 1.17.495 1.53.33.36.795.54 1.395.54zM267.328 80v-8.25h1.17v1.53h.285l-.42.945c.01-.84.215-1.485.615-1.935.4-.46.975-.69 1.725-.69.87 0 1.56.275 2.07.825.52.54.78 1.27.78 2.19v.495h-1.215v-.405c0-.67-.165-1.185-.495-1.545-.33-.37-.8-.555-1.41-.555-.59 0-1.055.185-1.395.555-.34.37-.51.885-.51 1.545V80h-1.2zm11.051.15c-.87 0-1.555-.22-2.055-.66-.5-.45-.75-1.055-.75-1.815 0-.75.245-1.34.735-1.77.49-.44 1.15-.66 1.98-.66h2.625v-.87c0-.55-.16-.975-.48-1.275-.32-.3-.775-.45-1.365-.45-.52 0-.955.115-1.305.345-.34.23-.535.54-.585.93h-1.2c.1-.71.43-1.275.99-1.695.57-.42 1.28-.63 2.13-.63.92 0 1.65.25 2.19.75.54.49.81 1.155.81 1.995V80h-1.17v-1.605h-.195l.225-.24c0 .61-.235 1.095-.705 1.455-.47.36-1.095.54-1.875.54zm.285-.96c.66 0 1.2-.165 1.62-.495.42-.33.63-.76.63-1.29V76.16h-2.61c-.47 0-.845.13-1.125.39s-.42.615-.42 1.065c0 .48.17.865.51 1.155.34.28.805.42 1.395.42zm5.815.81v-8.25h1.05v1.02h.225l-.165.33c0-.46.12-.825.36-1.095.25-.27.59-.405 1.02-.405.45 0 .8.16 1.05.48.26.32.395.77.405 1.35l-.315-.66h.495l-.21.33c0-.46.125-.825.375-1.095s.59-.405 1.02-.405c.51 0 .905.19 1.185.57.29.38.435.885.435 1.515V80h-1.11v-6.315c0-.36-.08-.64-.24-.84-.16-.21-.385-.315-.675-.315-.29 0-.52.105-.69.315-.17.2-.255.48-.255.84V80h-.99v-6.315c0-.37-.085-.655-.255-.855-.16-.2-.385-.3-.675-.3-.29 0-.515.1-.675.3-.16.2-.245.485-.255.855V80h-1.11zm9.986-4.425v-1.05h4.8v1.05h-4.8zm11.32 4.575c-.96 0-1.715-.285-2.265-.855-.55-.57-.825-1.355-.825-2.355V73.1c0-1.3.325-2.3.975-3 .65-.7 1.58-1.05 2.791-1.05h2.04v1.185h-2.04c-.841 0-1.481.25-1.921.75-.44.49-.66 1.195-.66 2.115v1.035h.21l-.21.36c.01-.6.21-1.07.6-1.41.4-.34.945-.51 1.635-.51.88 0 1.561.28 2.041.84.48.55.72 1.32.72 2.31v1.215c0 .67-.125 1.245-.375 1.725-.241.48-.591.85-1.051 1.11-.46.25-1.015.375-1.665.375zm0-1.065c.61 0 1.081-.185 1.41-.555.33-.37.495-.9.495-1.59v-1.215c0-.68-.165-1.21-.495-1.59-.329-.38-.8-.57-1.41-.57-.61 0-1.08.19-1.41.57-.33.38-.495.91-.495 1.59v1.215c0 .69.165 1.22.495 1.59.34.37.81.555 1.41.555zm8.921 1.05c-.64 0-1.195-.125-1.665-.375a2.65 2.65 0 01-1.095-1.08c-.26-.47-.39-1.025-.39-1.665v-2.28c0-.65.13-1.205.39-1.665.26-.47.625-.83 1.095-1.08.47-.25 1.025-.375 1.665-.375.64 0 1.195.125 1.665.375s.835.61 1.095 1.08c.26.46.39 1.01.39 1.65v2.295c0 .64-.13 1.195-.39 1.665s-.625.83-1.095 1.08c-.47.25-1.025.375-1.665.375zm0-1.065c.62 0 1.1-.175 1.44-.525.34-.35.51-.86.51-1.53v-2.28c0-.67-.175-1.18-.525-1.53-.34-.35-.815-.525-1.425-.525-.61 0-1.09.175-1.44.525-.34.35-.51.86-.51 1.53v2.28c0 .67.17 1.18.51 1.53.35.35.83.525 1.44.525zm8.321.93v-7.185h-3V71.75h7.2v1.065h-3V80h-1.2zm8.875.15c-.87 0-1.555-.22-2.055-.66-.5-.45-.75-1.055-.75-1.815 0-.75.245-1.34.735-1.77.49-.44 1.15-.66 1.98-.66h2.625v-.87c0-.55-.16-.975-.48-1.275-.32-.3-.775-.45-1.365-.45-.52 0-.955.115-1.305.345-.34.23-.535.54-.585.93h-1.2c.1-.71.43-1.275.99-1.695.57-.42 1.28-.63 2.13-.63.92 0 1.65.25 2.19.75.54.49.81 1.155.81 1.995V80h-1.17v-1.605h-.195l.225-.24c0 .61-.235 1.095-.705 1.455-.47.36-1.095.54-1.875.54zm.285-.96c.66 0 1.2-.165 1.62-.495.42-.33.63-.76.63-1.29V76.16h-2.61c-.47 0-.845.13-1.125.39s-.42.615-.42 1.065c0 .48.17.865.51 1.155.34.28.805.42 1.395.42z" fill="#000"/><rect x="155.265" y="265.265" width="197.47" height="113.47" rx="12.321" fill="#A9B7DF" stroke="#fff" stroke-width=".53"/><path d="M171.33 293.1v-4.02h.465c.11-.18.225-.425.345-.735a6.436 6.436 0 00.465-2.445l.09-5.85h6.075v9.03h.9v4.02h-2.1V291h-4.14v2.1h-2.1zm2.67-4.02h2.67v-7.11h-1.905l-.06 3.915c-.01.7-.095 1.34-.255 1.92-.16.57-.31.995-.45 1.275zm6.911 1.92v-8.25h1.98v3.75c0 .25-.015.565-.045.945-.03.37-.07.745-.12 1.125-.04.38-.085.715-.135 1.005l2.61-6.825h2.73V291h-1.98v-3.75c0-.26.015-.555.045-.885.03-.34.065-.68.105-1.02.04-.34.08-.63.12-.87l-2.58 6.525h-2.73zm12.01.105c-.92 0-1.685-.225-2.295-.675-.61-.45-.98-1.06-1.11-1.83h2.175c.07.23.215.415.435.555.22.13.485.195.795.195h.855c.33 0 .59-.075.78-.225a.8.8 0 00.285-.645.741.741 0 00-.285-.615c-.19-.15-.45-.225-.78-.225h-1.935v-1.71h1.845c.31 0 .55-.065.72-.195a.7.7 0 00.255-.57c0-.17-.04-.31-.12-.42a.67.67 0 00-.33-.255c-.14-.06-.315-.09-.525-.09h-.69c-.31 0-.57.07-.78.21a.94.94 0 00-.42.54h-2.175c.13-.77.495-1.38 1.095-1.83.6-.45 1.36-.675 2.28-.675h.69c.66 0 1.23.095 1.71.285.48.18.85.44 1.11.78.26.33.39.725.39 1.185 0 .55-.21.995-.63 1.335-.41.34-.955.51-1.635.51v-.15c.74 0 1.335.19 1.785.57.45.37.675.865.675 1.485 0 .75-.3 1.35-.9 1.8-.6.44-1.405.66-2.415.66h-.855zm8.276.045c-.83 0-1.49-.225-1.98-.675-.48-.45-.72-1.06-.72-1.83 0-.83.285-1.465.855-1.905.58-.45 1.41-.675 2.49-.675h1.71v-.615a.941.941 0 00-.345-.765c-.22-.19-.52-.285-.9-.285-.35 0-.64.08-.87.24-.23.16-.37.38-.42.66h-2.175c.09-.83.45-1.485 1.08-1.965.64-.49 1.46-.735 2.46-.735 1.05 0 1.88.26 2.49.78.62.51.93 1.2.93 2.07V291h-2.175v-1.35h-.36l.375-.525c0 .62-.225 1.115-.675 1.485-.44.36-1.03.54-1.77.54zm.84-1.65c.44 0 .8-.115 1.08-.345.29-.24.435-.55.435-.93v-.885h-1.665c-.34 0-.615.1-.825.3-.21.19-.315.445-.315.765 0 .34.115.61.345.81.23.19.545.285.945.285zm5.635 1.5v-8.25h1.98v3.75c0 .25-.015.565-.045.945-.03.37-.07.745-.12 1.125-.04.38-.085.715-.135 1.005l2.61-6.825h2.73V291h-1.98v-3.75c0-.26.015-.555.045-.885.03-.34.065-.68.105-1.02.04-.34.08-.63.12-.87l-2.58 6.525h-2.73zm3.57-9.525c-.82 0-1.49-.205-2.01-.615-.51-.42-.765-.965-.765-1.635h1.725c0 .28.095.51.285.69.2.17.455.255.765.255.32 0 .575-.085.765-.255.19-.18.285-.41.285-.69h1.725c0 .67-.255 1.215-.765 1.635-.51.41-1.18.615-2.01.615zm5.351 9.525v-8.25h2.25v3.015h2.52v-3.015h2.25V291h-2.25v-3.135h-2.52V291h-2.25zm-44.603 20v-8.25h7.02V311h-2.25v-6.15h-2.52V311h-2.25zm12.431.15c-.73 0-1.365-.135-1.905-.405-.54-.28-.96-.665-1.26-1.155-.29-.5-.435-1.08-.435-1.74v-1.95c0-.66.145-1.235.435-1.725.3-.5.72-.885 1.26-1.155.54-.28 1.175-.42 1.905-.42.74 0 1.375.14 1.905.42.54.27.955.655 1.245 1.155.3.49.45 1.065.45 1.725v1.95c0 .66-.15 1.24-.45 1.74-.29.49-.705.875-1.245 1.155-.53.27-1.165.405-1.905.405zm0-1.95c.44 0 .775-.115 1.005-.345.23-.24.345-.575.345-1.005v-1.95c0-.44-.115-.775-.345-1.005-.23-.23-.565-.345-1.005-.345-.43 0-.765.115-1.005.345-.23.23-.345.565-.345 1.005v1.95c0 .43.115.765.345 1.005.24.23.575.345 1.005.345zm4.735 1.905v-2.025h.45c.26 0 .475-.11.645-.33.17-.22.26-.51.27-.87l.09-5.13h6.24V311h-2.25v-6.15h-1.785l-.06 3.18c-.01.61-.145 1.15-.405 1.62-.25.46-.6.82-1.05 1.08-.44.25-.955.375-1.545.375h-.6zm9.656-.105v-8.25h2.25v2.475h1.935c1.04 0 1.85.26 2.43.78.59.51.885 1.22.885 2.13 0 .88-.3 1.58-.9 2.1-.59.51-1.39.765-2.4.765h-4.2zm2.25-1.95h1.8c.38 0 .67-.08.87-.24.21-.17.315-.4.315-.69 0-.3-.105-.53-.315-.69-.2-.17-.49-.255-.87-.255h-1.8v1.875zm9.7 2.055c-.92 0-1.685-.225-2.295-.675-.61-.45-.98-1.06-1.11-1.83h2.175c.07.23.215.415.435.555.22.13.485.195.795.195h.855c.33 0 .59-.075.78-.225a.8.8 0 00.285-.645.741.741 0 00-.285-.615c-.19-.15-.45-.225-.78-.225h-1.935v-1.71h1.845c.31 0 .55-.065.72-.195a.7.7 0 00.255-.57c0-.17-.04-.31-.12-.42a.67.67 0 00-.33-.255c-.14-.06-.315-.09-.525-.09h-.69c-.31 0-.57.07-.78.21a.94.94 0 00-.42.54h-2.175c.13-.77.495-1.38 1.095-1.83.6-.45 1.36-.675 2.28-.675h.69c.66 0 1.23.095 1.71.285.48.18.85.44 1.11.78.26.33.39.725.39 1.185 0 .55-.21.995-.63 1.335-.41.34-.955.51-1.635.51v-.15c.74 0 1.335.19 1.785.57.45.37.675.865.675 1.485 0 .75-.3 1.35-.9 1.8-.6.44-1.405.66-2.415.66h-.855zm9.341.045c-.73 0-1.365-.135-1.905-.405-.54-.28-.96-.665-1.26-1.155-.29-.5-.435-1.08-.435-1.74v-1.95c0-.66.145-1.235.435-1.725.3-.5.72-.885 1.26-1.155.54-.28 1.175-.42 1.905-.42.74 0 1.375.14 1.905.42.54.27.955.655 1.245 1.155.3.49.45 1.065.45 1.725v1.95c0 .66-.15 1.24-.45 1.74-.29.49-.705.875-1.245 1.155-.53.27-1.165.405-1.905.405zm0-1.95c.44 0 .775-.115 1.005-.345.23-.24.345-.575.345-1.005v-1.95c0-.44-.115-.775-.345-1.005-.23-.23-.565-.345-1.005-.345-.43 0-.765.115-1.005.345-.23.23-.345.565-.345 1.005v1.95c0 .43.115.765.345 1.005.24.23.575.345 1.005.345zm5.396 1.8v-8.25h3.735c1.01 0 1.81.205 2.4.615.6.4.9.945.9 1.635 0 .55-.225.995-.675 1.335-.45.33-1.045.495-1.785.495v-.15c.81 0 1.455.18 1.935.54.49.36.735.835.735 1.425 0 .73-.3 1.305-.9 1.725-.59.42-1.395.63-2.415.63h-3.93zm2.205-1.59h1.62c.37 0 .665-.085.885-.255.23-.18.345-.41.345-.69 0-.3-.115-.54-.345-.72-.22-.18-.515-.27-.885-.27h-1.62v1.935zm0-3.255h1.545c.34 0 .61-.08.81-.24.2-.17.3-.39.3-.66 0-.28-.1-.505-.3-.675-.2-.17-.47-.255-.81-.255h-1.545v1.83zm9.175 4.995c-.83 0-1.49-.225-1.98-.675-.48-.45-.72-1.06-.72-1.83 0-.83.285-1.465.855-1.905.58-.45 1.41-.675 2.49-.675h1.71v-.615a.941.941 0 00-.345-.765c-.22-.19-.52-.285-.9-.285-.35 0-.64.08-.87.24-.23.16-.37.38-.42.66h-2.175c.09-.83.45-1.485 1.08-1.965.64-.49 1.46-.735 2.46-.735 1.05 0 1.88.26 2.49.78.62.51.93 1.2.93 2.07V311h-2.175v-1.35h-.36l.375-.525c0 .62-.225 1.115-.675 1.485-.44.36-1.03.54-1.77.54zm.84-1.65c.44 0 .8-.115 1.08-.345.29-.24.435-.55.435-.93v-.885h-1.665c-.34 0-.615.1-.825.3-.21.19-.315.445-.315.765 0 .34.115.61.345.81.23.19.545.285.945.285zm8.021 1.5v-6.15h-2.7v-2.1h7.65v2.1h-2.7V311h-2.25zm10.061.15c-.731 0-1.371-.135-1.921-.405-.54-.28-.96-.665-1.26-1.155-.29-.5-.435-1.08-.435-1.74v-1.95c0-.66.145-1.235.435-1.725.3-.5.72-.885 1.26-1.155.55-.28 1.19-.42 1.921-.42.729 0 1.359.14 1.889.42.541.27.956.655 1.246 1.155.3.49.449 1.065.449 1.725v1.5h-5.055v.45c0 .52.125.915.375 1.185.25.26.625.39 1.125.39.35 0 .631-.06.84-.18a.872.872 0 00.435-.495h2.205c-.18.72-.59 1.3-1.23 1.74-.63.44-1.39.66-2.279.66zm1.439-4.905v-.375c0-.51-.12-.9-.36-1.17-.23-.27-.59-.405-1.079-.405-.491 0-.861.14-1.111.42-.24.28-.36.675-.36 1.185v.225l3.06-.03-.15.15zm3.281 4.86v-2.025h.45c.26 0 .475-.11.645-.33.17-.22.26-.51.27-.87l.09-5.13h6.24V311h-2.25v-6.15h-1.785l-.06 3.18c-.01.61-.145 1.15-.405 1.62-.25.46-.6.82-1.05 1.08-.44.25-.955.375-1.545.375h-.6zm9.656-.105v-8.25h2.25v2.475h1.935c1.04 0 1.85.26 2.43.78.59.51.885 1.22.885 2.13 0 .88-.3 1.58-.9 2.1-.59.51-1.39.765-2.4.765h-4.2zm2.25-1.95h1.8c.38 0 .67-.08.87-.24.21-.17.315-.4.315-.69 0-.3-.105-.53-.315-.69-.2-.17-.49-.255-.87-.255h-1.8v1.875zm10.165 2.1c-.73 0-1.37-.135-1.92-.405a3.11 3.11 0 01-1.275-1.155c-.3-.5-.45-1.08-.45-1.74v-1.95c0-.67.15-1.25.45-1.74.3-.49.725-.87 1.275-1.14.55-.28 1.19-.42 1.92-.42 1.09 0 1.96.275 2.61.825.65.55.995 1.3 1.035 2.25h-2.25c-.03-.35-.17-.625-.42-.825-.24-.2-.565-.3-.975-.3-.45 0-.795.115-1.035.345-.24.23-.36.565-.36 1.005v1.95c0 .43.12.765.36 1.005.24.23.585.345 1.035.345.41 0 .735-.095.975-.285.25-.2.39-.48.42-.84h2.25c-.04.95-.385 1.7-1.035 2.25-.65.55-1.52.825-2.61.825zm5.411-.15v-8.25h2.25v3.12h1.11l1.725-3.12h2.505l-2.295 4.035 2.34 4.215h-2.55l-1.74-3.24h-1.095V311h-2.25zm12.386.15c-.73 0-1.365-.135-1.905-.405-.54-.28-.96-.665-1.26-1.155-.29-.5-.435-1.08-.435-1.74v-1.95c0-.66.145-1.235.435-1.725.3-.5.72-.885 1.26-1.155.54-.28 1.175-.42 1.905-.42.74 0 1.375.14 1.905.42.54.27.955.655 1.245 1.155.3.49.45 1.065.45 1.725v1.95c0 .66-.15 1.24-.45 1.74-.29.49-.705.875-1.245 1.155-.53.27-1.165.405-1.905.405zm0-1.95c.44 0 .775-.115 1.005-.345.23-.24.345-.575.345-1.005v-1.95c0-.44-.115-.775-.345-1.005-.23-.23-.565-.345-1.005-.345-.43 0-.765.115-1.005.345-.23.23-.345.565-.345 1.005v1.95c0 .43.115.765.345 1.005.24.23.575.345 1.005.345zm6.145 1.8v-8.25h6.3v2.1h-4.05V311h-2.25zm11.696.15c-.73 0-1.365-.135-1.905-.405-.54-.28-.96-.665-1.26-1.155-.29-.5-.435-1.08-.435-1.74v-1.95c0-.66.145-1.235.435-1.725.3-.5.72-.885 1.26-1.155.54-.28 1.175-.42 1.905-.42.74 0 1.375.14 1.905.42.54.27.955.655 1.245 1.155.3.49.45 1.065.45 1.725v1.95c0 .66-.15 1.24-.45 1.74-.29.49-.705.875-1.245 1.155-.53.27-1.165.405-1.905.405zm0-1.95c.44 0 .775-.115 1.005-.345.23-.24.345-.575.345-1.005v-1.95c0-.44-.115-.775-.345-1.005-.23-.23-.565-.345-1.005-.345-.43 0-.765.115-1.005.345-.23.23-.345.565-.345 1.005v1.95c0 .43.115.765.345 1.005.24.23.575.345 1.005.345zM175.5 331.135c-.64 0-1.195-.125-1.665-.375a2.65 2.65 0 01-1.095-1.08c-.26-.47-.39-1.025-.39-1.665v-2.28c0-.65.13-1.205.39-1.665.26-.47.625-.83 1.095-1.08.47-.25 1.025-.375 1.665-.375.64 0 1.195.125 1.665.375s.835.61 1.095 1.08c.26.46.39 1.01.39 1.65v2.295c0 .64-.13 1.195-.39 1.665s-.625.83-1.095 1.08c-.47.25-1.025.375-1.665.375zm0-1.065c.62 0 1.1-.175 1.44-.525.34-.35.51-.86.51-1.53v-2.28c0-.67-.175-1.18-.525-1.53-.34-.35-.815-.525-1.425-.525-.61 0-1.09.175-1.44.525-.34.35-.51.86-.51 1.53v2.28c0 .67.17 1.18.51 1.53.35.35.83.525 1.44.525zm5.891.93v-8.25h6.06V331h-1.2v-7.17h-3.66V331h-1.2zm8.485 0v-8.25h1.125v3.06h.735c.88 0 1.575.235 2.085.705.52.46.78 1.09.78 1.89 0 .8-.255 1.435-.765 1.905-.51.46-1.21.69-2.1.69h-1.86zm1.125-.975h.735c.56 0 .995-.14 1.305-.42.32-.29.48-.69.48-1.2s-.16-.905-.48-1.185c-.31-.29-.745-.435-1.305-.435h-.735v3.24zm4.68.975v-8.25h1.125V331h-1.125zm5.981 0v-7.185h-3v-1.065h7.2v1.065h-3V331h-1.2zm8.875.15c-.87 0-1.555-.22-2.055-.66-.5-.45-.75-1.055-.75-1.815 0-.75.245-1.34.735-1.77.49-.44 1.15-.66 1.98-.66h2.625v-.87c0-.55-.16-.975-.48-1.275-.32-.3-.775-.45-1.365-.45-.52 0-.955.115-1.305.345-.34.23-.535.54-.585.93h-1.2c.1-.71.43-1.275.99-1.695.57-.42 1.28-.63 2.13-.63.92 0 1.65.25 2.19.75.54.49.81 1.155.81 1.995V331h-1.17v-1.605h-.195l.225-.24c0 .61-.235 1.095-.705 1.455-.47.36-1.095.54-1.875.54zm.285-.96c.66 0 1.2-.165 1.62-.495.42-.33.63-.76.63-1.29v-1.245h-2.61c-.47 0-.845.13-1.125.39s-.42.615-.42 1.065c0 .48.17.865.51 1.155.34.28.805.42 1.395.42zm20.977 2.61c-1.41-.35-2.5-1.03-3.27-2.04s-1.155-2.265-1.155-3.765v-2.79c0-.99.175-1.875.525-2.655.36-.79.87-1.455 1.53-1.995s1.45-.925 2.37-1.155v1.14c-.66.15-1.23.445-1.71.885-.48.43-.85.965-1.11 1.605-.26.64-.39 1.365-.39 2.175v2.79c0 .79.13 1.51.39 2.16.26.64.63 1.175 1.11 1.605.48.42 1.05.705 1.71.855v1.185zm6.145-1.65c-.98 0-1.74-.28-2.28-.84-.53-.56-.795-1.315-.795-2.265v-7.995h1.185v7.995c0 .63.16 1.13.48 1.5.32.36.79.54 1.41.54.62 0 1.09-.18 1.41-.54.32-.37.48-.87.48-1.5v-7.995h1.185v7.995c0 .96-.265 1.72-.795 2.28-.53.55-1.29.825-2.28.825zm5.066-.15l3.18-5.595-2.985-5.355h1.365l1.725 3.27c.09.17.19.365.3.585.12.21.215.385.285.525.07-.14.16-.315.27-.525.12-.22.225-.415.315-.585l1.755-3.27h1.305l-2.985 5.28 3.18 5.67h-1.365l-1.92-3.555c-.09-.17-.195-.365-.315-.585-.11-.22-.195-.4-.255-.54-.07.14-.165.32-.285.54l-.3.57-1.95 3.57h-1.32zm10 1.8v-1.185c.67-.15 1.24-.435 1.71-.855.48-.43.85-.965 1.11-1.605.26-.65.39-1.37.39-2.16v-2.79c0-.81-.13-1.535-.39-2.175a4.28 4.28 0 00-1.11-1.605 3.695 3.695 0 00-1.71-.885v-1.14c.93.23 1.72.615 2.37 1.155a5.33 5.33 0 011.515 1.995c.36.78.54 1.665.54 2.655v2.79c0 1.5-.385 2.755-1.155 3.765-.77 1.01-1.86 1.69-3.27 2.04zm17.587-1.8v-8.25h1.155v4.695c0 .28-.01.58-.03.9a22.728 22.728 0 01-.105 1.59l3.495-7.185h1.545V331h-1.155v-4.695c0-.29.005-.59.015-.9.02-.31.04-.605.06-.885.03-.29.05-.53.06-.72l-3.51 7.2h-1.53zm-98.127 20v-8.25h1.155v4.695c0 .28-.01.58-.03.9a22.728 22.728 0 01-.105 1.59l3.495-7.185h1.545V351h-1.155v-4.695c0-.29.005-.59.015-.9.02-.31.04-.605.06-.885.03-.29.05-.53.06-.72L174 351h-1.53zm8.921 0v-8.25h1.2v3.51h3.66v-3.51h1.2V351h-1.2v-3.66h-3.66V351h-1.2zm11.35 0v-7.185h-3v-1.065h7.2v1.065h-3V351h-1.2zm9.521.15c-.64 0-1.195-.125-1.665-.375a2.747 2.747 0 01-1.095-1.095c-.26-.47-.39-1.015-.39-1.635v-2.34c0-.63.13-1.175.39-1.635.26-.47.625-.83 1.095-1.08.47-.26 1.025-.39 1.665-.39.64 0 1.195.13 1.665.39.47.25.835.61 1.095 1.08.26.46.39 1.005.39 1.635v1.455h-5.13v.885c0 .67.17 1.19.51 1.56.35.36.84.54 1.47.54.53 0 .96-.105 1.29-.315.34-.21.555-.515.645-.915h1.185a2.394 2.394 0 01-1.005 1.635c-.56.4-1.265.6-2.115.6zm1.98-4.785v-.66c0-.67-.17-1.185-.51-1.545-.34-.37-.83-.555-1.47-.555-.63 0-1.12.185-1.47.555-.34.36-.51.875-.51 1.545v.525h4.08l-.12.135zm3.895 7.335v-10.95h1.185v1.455h.315l-.36.495c0-.65.21-1.16.63-1.53.43-.38.995-.57 1.695-.57.83 0 1.49.275 1.98.825.5.54.75 1.28.75 2.22v2.445c0 .63-.115 1.175-.345 1.635-.23.45-.55.8-.96 1.05-.4.25-.875.375-1.425.375-.69 0-1.25-.19-1.68-.57-.43-.38-.645-.89-.645-1.53l.315.495h-.285l.015 1.68v2.475h-1.185zm3.09-3.585c.6 0 1.065-.18 1.395-.54.34-.36.51-.87.51-1.53v-2.34c0-.67-.17-1.18-.51-1.53-.33-.36-.795-.54-1.395-.54-.58 0-1.045.185-1.395.555-.34.36-.51.865-.51 1.515v2.34c0 .65.17 1.16.51 1.53.35.36.815.54 1.395.54zm8.336 3.585V351c-.96 0-1.715-.27-2.265-.81s-.825-1.28-.825-2.22v-2.22c0-.93.275-1.66.825-2.19.56-.54 1.315-.81 2.265-.81v-2.7h1.08v2.7c.96 0 1.715.27 2.265.81.55.53.825 1.26.825 2.19v2.22c0 .94-.275 1.68-.825 2.22-.55.54-1.305.81-2.265.81v2.7h-1.08zm.03-3.66v-6.33c-.63 0-1.125.18-1.485.54-.35.35-.525.85-.525 1.5v2.22c0 .65.175 1.16.525 1.53.36.36.855.54 1.485.54zm1.02 0c.64 0 1.135-.18 1.485-.54.35-.37.525-.88.525-1.53v-2.22c0-.65-.175-1.15-.525-1.5-.35-.36-.845-.54-1.485-.54v6.33zm8.411 1.11c-.64 0-1.195-.125-1.665-.375a2.747 2.747 0 01-1.095-1.095c-.26-.47-.39-1.015-.39-1.635v-2.34c0-.63.13-1.175.39-1.635.26-.47.625-.83 1.095-1.08.47-.26 1.025-.39 1.665-.39.64 0 1.195.13 1.665.39.47.25.835.61 1.095 1.08.26.46.39 1.005.39 1.635v1.455h-5.13v.885c0 .67.17 1.19.51 1.56.35.36.84.54 1.47.54.53 0 .96-.105 1.29-.315.34-.21.555-.515.645-.915h1.185a2.394 2.394 0 01-1.005 1.635c-.56.4-1.265.6-2.115.6zm1.98-4.785v-.66c0-.67-.17-1.185-.51-1.545-.34-.37-.83-.555-1.47-.555-.63 0-1.12.185-1.47.555-.34.36-.51.875-.51 1.545v.525h4.08l-.12.135zm3.91 4.635v-8.25h1.155v4.695c0 .28-.01.58-.03.9a22.728 22.728 0 01-.105 1.59l3.495-7.185h1.545V351h-1.155v-4.695c0-.29.005-.59.015-.9.02-.31.04-.605.06-.885.03-.29.05-.53.06-.72l-3.51 7.2h-1.53zm3.09-9.615c-.71 0-1.28-.195-1.71-.585-.42-.4-.63-.925-.63-1.575h.96c0 .41.12.74.36.99.25.25.585.375 1.005.375.43 0 .77-.125 1.02-.375s.375-.58.375-.99h.96c0 .65-.215 1.175-.645 1.575-.42.39-.985.585-1.695.585zm8.876 9.765c-.64 0-1.2-.125-1.68-.375a2.75 2.75 0 01-1.125-1.065c-.26-.47-.39-1.025-.39-1.665v-2.34c0-.64.13-1.19.39-1.65.27-.47.645-.83 1.125-1.08.48-.25 1.04-.375 1.68-.375.94 0 1.695.255 2.265.765.57.51.865 1.205.885 2.085h-1.185c-.02-.57-.205-1.01-.555-1.32-.34-.31-.81-.465-1.41-.465-.61 0-1.095.18-1.455.54-.36.35-.54.85-.54 1.5v2.34c0 .64.18 1.14.54 1.5.36.36.845.54 1.455.54.6 0 1.07-.155 1.41-.465.35-.32.535-.76.555-1.32h1.185c-.02.88-.315 1.575-.885 2.085-.57.51-1.325.765-2.265.765zm8.26 0c-.87 0-1.555-.22-2.055-.66-.5-.45-.75-1.055-.75-1.815 0-.75.245-1.34.735-1.77.49-.44 1.15-.66 1.98-.66h2.626v-.87c0-.55-.161-.975-.481-1.275-.32-.3-.775-.45-1.365-.45-.52 0-.955.115-1.305.345-.34.23-.535.54-.585.93h-1.2c.1-.71.43-1.275.99-1.695.57-.42 1.28-.63 2.13-.63.92 0 1.65.25 2.191.75.539.49.809 1.155.809 1.995V351h-1.17v-1.605h-.194l.224-.24c0 .61-.235 1.095-.704 1.455-.471.36-1.096.54-1.876.54zm.285-.96c.66 0 1.2-.165 1.62-.495.42-.33.631-.76.631-1.29v-1.245h-2.611c-.47 0-.845.13-1.125.39s-.42.615-.42 1.065c0 .48.17.865.51 1.155.34.28.805.42 1.395.42z" fill="#000"/><rect x=".265" y="265.265" width="146.47" height="113.47" rx="12.321" fill="#A9B7DF" stroke="#fff" stroke-width=".53"/><path d="M12.975 287v-10.95h2.25v4.245h1.065l1.8-4.245h2.445l-2.25 5.235 2.34 5.715H18.15l-1.86-4.635h-1.065V287h-2.25zm12.446.15c-.73 0-1.365-.135-1.905-.405-.54-.28-.96-.665-1.26-1.155-.29-.5-.435-1.08-.435-1.74v-1.95c0-.66.145-1.235.435-1.725.3-.5.72-.885 1.26-1.155.54-.28 1.175-.42 1.905-.42.74 0 1.375.14 1.905.42.54.27.955.655 1.245 1.155.3.49.45 1.065.45 1.725v1.95c0 .66-.15 1.24-.45 1.74-.29.49-.705.875-1.245 1.155-.53.27-1.165.405-1.905.405zm0-1.95c.44 0 .775-.115 1.005-.345.23-.24.345-.575.345-1.005v-1.95c0-.44-.115-.775-.345-1.005-.23-.23-.565-.345-1.005-.345-.43 0-.765.115-1.005.345-.23.23-.345.565-.345 1.005v1.95c0 .43.115.765.345 1.005.24.23.575.345 1.005.345zm5.41 1.8v-8.25h2.25v3.015h2.52v-3.015h2.25V287h-2.25v-3.135h-2.52V287h-2.25zm12.476.15c-.73 0-1.37-.135-1.92-.405a3.11 3.11 0 01-1.275-1.155c-.3-.5-.45-1.08-.45-1.74v-1.95c0-.67.15-1.25.45-1.74.3-.49.725-.87 1.275-1.14.55-.28 1.19-.42 1.92-.42 1.09 0 1.96.275 2.61.825.65.55.995 1.3 1.035 2.25h-2.25c-.03-.35-.17-.625-.42-.825-.24-.2-.565-.3-.975-.3-.45 0-.795.115-1.035.345-.24.23-.36.565-.36 1.005v1.95c0 .43.12.765.36 1.005.24.23.585.345 1.035.345.41 0 .735-.095.975-.285.25-.2.39-.48.42-.84h2.25c-.04.95-.385 1.7-1.035 2.25-.65.55-1.52.825-2.61.825zm6.73 2.55l1.125-3.105-3.09-7.845h2.445l1.245 3.6c.09.27.18.6.27.99.1.38.175.69.225.93.05-.24.12-.55.21-.93.1-.39.195-.72.285-.99l1.2-3.6h2.34l-3.9 10.95h-2.355zm6.881-2.595v-2.025h.45c.26 0 .475-.11.645-.33.17-.22.26-.51.27-.87l.09-5.13h6.24V287h-2.25v-6.15h-1.785l-.06 3.18c-.01.61-.145 1.15-.405 1.62-.25.46-.6.82-1.05 1.08-.44.25-.955.375-1.545.375h-.6zm9.656-.105v-8.25h2.25v2.475h1.935c1.04 0 1.85.26 2.43.78.59.51.885 1.22.885 2.13 0 .88-.3 1.58-.9 2.1-.59.51-1.39.765-2.4.765h-4.2zm2.25-1.95h1.8c.38 0 .67-.08.87-.24.21-.17.315-.4.315-.69 0-.3-.105-.53-.315-.69-.2-.17-.49-.255-.87-.255h-1.8v1.875zm8.995 1.95v-6.15h-2.7v-2.1h7.65v2.1h-2.7V287h-2.25zm8.98.15c-.83 0-1.49-.225-1.98-.675-.48-.45-.72-1.06-.72-1.83 0-.83.286-1.465.856-1.905.58-.45 1.41-.675 2.49-.675h1.71v-.615a.941.941 0 00-.345-.765c-.22-.19-.52-.285-.9-.285-.35 0-.64.08-.87.24-.23.16-.37.38-.42.66h-2.175c.09-.83.45-1.485 1.08-1.965.64-.49 1.46-.735 2.46-.735 1.05 0 1.88.26 2.49.78.62.51.93 1.2.93 2.07V287H89.23v-1.35h-.36l.375-.525c0 .62-.225 1.115-.675 1.485-.44.36-1.03.54-1.77.54zm.84-1.65c.44 0 .8-.115 1.08-.345.29-.24.436-.55.436-.93v-.885H87.49c-.34 0-.615.1-.825.3-.21.19-.315.445-.315.765 0 .34.115.61.345.81.23.19.545.285.945.285zm11.217 3.6V287h-5.58v-8.25h2.25v6.15h2.055v-6.15h2.25v6.15h1.124v4.2h-2.1zm3.34-2.1v-8.25h1.98v3.75c0 .25-.015.565-.045.945-.03.37-.07.745-.12 1.125-.04.38-.085.715-.135 1.005l2.61-6.825h2.73V287h-1.98v-3.75c0-.26.015-.555.045-.885.03-.34.065-.68.105-1.02.04-.34.08-.63.12-.87l-2.58 6.525h-2.73zm8.921 0v-8.25h1.98v3.75c0 .25-.015.565-.045.945-.03.37-.07.745-.12 1.125-.04.38-.085.715-.135 1.005l2.61-6.825h2.73V287h-1.98v-3.75c0-.26.015-.555.045-.885.03-.34.065-.68.105-1.02.04-.34.08-.63.12-.87l-2.58 6.525h-2.73zM13.47 307v-8.25h6.06V307h-1.2v-7.17h-3.66V307h-1.2zm11.95.135c-.64 0-1.194-.125-1.664-.375a2.65 2.65 0 01-1.095-1.08c-.26-.47-.39-1.025-.39-1.665v-2.28c0-.65.13-1.205.39-1.665.26-.47.625-.83 1.095-1.08.47-.25 1.025-.375 1.665-.375.64 0 1.195.125 1.665.375s.835.61 1.095 1.08c.26.46.39 1.01.39 1.65v2.295c0 .64-.13 1.195-.39 1.665s-.625.83-1.095 1.08c-.47.25-1.025.375-1.665.375zm0-1.065c.62 0 1.1-.175 1.44-.525.34-.35.51-.86.51-1.53v-2.28c0-.67-.174-1.18-.524-1.53-.34-.35-.815-.525-1.425-.525-.61 0-1.09.175-1.44.525-.34.35-.51.86-.51 1.53v2.28c0 .67.17 1.18.51 1.53.35.35.83.525 1.44.525zm17.857 1.08c-.64 0-1.2-.125-1.68-.375a2.75 2.75 0 01-1.125-1.065c-.26-.47-.39-1.025-.39-1.665v-2.34c0-.64.13-1.19.39-1.65.27-.47.645-.83 1.125-1.08.48-.25 1.04-.375 1.68-.375.94 0 1.695.255 2.265.765.57.51.865 1.205.885 2.085h-1.185c-.02-.57-.205-1.01-.555-1.32-.34-.31-.81-.465-1.41-.465-.61 0-1.095.18-1.455.54-.36.35-.54.85-.54 1.5v2.34c0 .64.18 1.14.54 1.5.36.36.845.54 1.455.54.6 0 1.07-.155 1.41-.465.35-.32.535-.76.555-1.32h1.185c-.02.88-.315 1.575-.885 2.085-.57.51-1.325.765-2.265.765zm8.305-.15v-7.185h-3v-1.065h7.2v1.065h-3V307h-1.2zm6.476 2.7v-10.95h1.185v1.455h.315l-.36.495c0-.65.21-1.16.63-1.53.43-.38.995-.57 1.695-.57.83 0 1.49.275 1.98.825.5.54.75 1.28.75 2.22v2.445c0 .63-.115 1.175-.345 1.635-.23.45-.55.8-.96 1.05-.4.25-.875.375-1.425.375-.69 0-1.25-.19-1.68-.57-.43-.38-.645-.89-.645-1.53l.315.495h-.285l.015 1.68v2.475h-1.185zm3.09-3.585c.6 0 1.065-.18 1.395-.54.34-.36.51-.87.51-1.53v-2.34c0-.67-.17-1.18-.51-1.53-.33-.36-.795-.54-1.395-.54-.58 0-1.045.185-1.395.555-.34.36-.51.865-.51 1.515v2.34c0 .65.17 1.16.51 1.53.35.36.815.54 1.395.54zm8.23 1.035c-.87 0-1.554-.22-2.054-.66-.5-.45-.75-1.055-.75-1.815 0-.75.245-1.34.735-1.77.49-.44 1.15-.66 1.98-.66h2.625v-.87c0-.55-.16-.975-.48-1.275-.32-.3-.775-.45-1.365-.45-.52 0-.955.115-1.305.345-.34.23-.535.54-.585.93h-1.2c.1-.71.43-1.275.99-1.695.57-.42 1.28-.63 2.13-.63.92 0 1.65.25 2.19.75.54.49.81 1.155.81 1.995V307h-1.17v-1.605h-.195l.225-.24c0 .61-.235 1.095-.705 1.455-.47.36-1.095.54-1.875.54zm.286-.96c.66 0 1.2-.165 1.62-.495.42-.33.63-.76.63-1.29v-1.245h-2.61c-.47 0-.845.13-1.125.39s-.42.615-.42 1.065c0 .48.17.865.51 1.155.34.28.805.42 1.395.42zm8.68.81v-7.185h-3v-1.065h7.2v1.065h-3V307h-1.2zm9.52.15c-.64 0-1.194-.125-1.664-.375a2.747 2.747 0 01-1.095-1.095c-.26-.47-.39-1.015-.39-1.635v-2.34c0-.63.13-1.175.39-1.635.26-.47.625-.83 1.095-1.08.47-.26 1.025-.39 1.665-.39.64 0 1.195.13 1.665.39.47.25.835.61 1.095 1.08.26.46.39 1.005.39 1.635v1.455h-5.13v.885c0 .67.17 1.19.51 1.56.35.36.84.54 1.47.54.53 0 .96-.105 1.29-.315.34-.21.555-.515.645-.915h1.185a2.394 2.394 0 01-1.005 1.635c-.56.4-1.265.6-2.115.6zm1.98-4.785v-.66c0-.67-.17-1.185-.51-1.545-.34-.37-.83-.555-1.47-.555-.63 0-1.12.185-1.47.555-.34.36-.51.875-.51 1.545v.525h4.08l-.12.135zM94.297 307v-8.25h5.85v1.08h-4.665V307h-1.185zm8.38 0v-8.25h1.155v4.695c0 .28-.01.58-.03.9a22.728 22.728 0 01-.105 1.59l3.495-7.185h1.545V307h-1.155v-4.695c0-.29.005-.59.015-.9.02-.31.04-.605.06-.885.03-.29.05-.53.06-.72l-3.51 7.2h-1.53zm8.921 0v-8.25h1.155v4.695c0 .28-.01.58-.03.9a22.728 22.728 0 01-.105 1.59l3.495-7.185h1.545V307h-1.155v-4.695c0-.29.005-.59.015-.9.02-.31.04-.605.06-.885.03-.29.05-.53.06-.72l-3.51 7.2h-1.53zM13.47 327v-8.25h3.54c.82 0 1.465.195 1.935.585.47.38.705.91.705 1.59 0 .57-.195 1.03-.585 1.38-.38.34-.89.51-1.53.51v-.105c.69 0 1.245.18 1.665.54.42.35.63.82.63 1.41 0 .73-.25 1.305-.75 1.725-.49.41-1.17.615-2.04.615h-3.57zm1.17-1.05h2.4c.49 0 .88-.115 1.17-.345.29-.24.435-.56.435-.96 0-.42-.145-.745-.435-.975-.29-.24-.68-.36-1.17-.36h-2.4v2.64zm0-3.675h2.37c.44 0 .79-.11 1.05-.33.27-.22.405-.52.405-.9s-.135-.68-.405-.9c-.26-.23-.61-.345-1.05-.345h-2.37v2.475zm10.39 4.845c-.86 0-1.554-.185-2.084-.555-.53-.37-.85-.87-.96-1.5h1.245c.08.29.275.53.585.72.32.18.725.27 1.215.27h.735c.51 0 .91-.125 1.2-.375.3-.26.45-.585.45-.975 0-.42-.14-.76-.42-1.02-.28-.26-.68-.39-1.2-.39H23.95v-1.035h1.815c.47 0 .83-.12 1.08-.36.26-.24.39-.55.39-.93 0-.26-.06-.485-.18-.675a1.136 1.136 0 00-.525-.435 1.822 1.822 0 00-.795-.165h-.78c-.45 0-.82.1-1.11.3-.29.19-.47.435-.54.735H22.06c.1-.62.405-1.125.915-1.515.52-.39 1.18-.585 1.98-.585h.78c.56 0 1.045.095 1.455.285.41.19.725.455.945.795.23.34.345.74.345 1.2 0 .5-.155.915-.465 1.245-.3.32-.725.5-1.275.54v.06c.66.04 1.145.235 1.455.585.31.34.465.81.465 1.41 0 .71-.265 1.285-.795 1.725-.52.43-1.22.645-2.1.645h-.735zm8.666.03c-.87 0-1.555-.22-2.055-.66-.5-.45-.75-1.055-.75-1.815 0-.75.245-1.34.735-1.77.49-.44 1.15-.66 1.98-.66h2.625v-.87c0-.55-.16-.975-.48-1.275-.32-.3-.775-.45-1.365-.45-.52 0-.955.115-1.305.345-.34.23-.535.54-.585.93h-1.2c.1-.71.43-1.275.99-1.695.57-.42 1.28-.63 2.13-.63.92 0 1.65.25 2.19.75.54.49.81 1.155.81 1.995V327h-1.17v-1.605h-.195l.225-.24c0 .61-.235 1.095-.705 1.455-.47.36-1.095.54-1.875.54zm.285-.96c.66 0 1.2-.165 1.62-.495.42-.33.63-.76.63-1.29v-1.245h-2.61c-.47 0-.845.13-1.125.39s-.42.615-.42 1.065c0 .48.17.865.51 1.155.34.28.805.42 1.395.42zm6.25.81v-8.25h1.156v4.695c0 .28-.01.58-.03.9a22.728 22.728 0 01-.105 1.59l3.495-7.185h1.545V327h-1.155v-4.695c0-.29.005-.59.015-.9.02-.31.04-.605.06-.885.03-.29.05-.53.06-.72l-3.51 7.2h-1.53zm8.651 0v-8.25h1.65l1.2 3.36c.1.29.195.585.285.885.09.3.155.535.195.705.05-.17.115-.405.195-.705.09-.3.185-.6.285-.9l1.155-3.345h1.635V327h-1.155v-1.98c0-.43.005-.89.015-1.38l.03-1.47c.01-.49.025-.95.045-1.38.02-.44.035-.825.045-1.155l-1.635 4.89h-1.26l-1.635-4.86c.02.4.035.905.045 1.515l.03 1.905c.02.67.03 1.315.03 1.935V327h-1.155zm12.221.135c-.64 0-1.195-.125-1.665-.375a2.65 2.65 0 01-1.095-1.08c-.26-.47-.39-1.025-.39-1.665v-2.28c0-.65.13-1.205.39-1.665.26-.47.625-.83 1.095-1.08.47-.25 1.025-.375 1.665-.375.64 0 1.195.125 1.665.375s.835.61 1.095 1.08c.26.46.39 1.01.39 1.65v2.295c0 .64-.13 1.195-.39 1.665s-.625.83-1.095 1.08c-.47.25-1.025.375-1.665.375zm0-1.065c.62 0 1.1-.175 1.44-.525.34-.35.51-.86.51-1.53v-2.28c0-.67-.175-1.18-.525-1.53-.34-.35-.815-.525-1.425-.525-.61 0-1.09.175-1.44.525-.34.35-.51.86-.51 1.53v2.28c0 .67.17 1.18.51 1.53.35.35.83.525 1.44.525zm4.93 3.03v-3.12h.676c.17-.19.345-.53.525-1.02.19-.5.29-1.105.3-1.815l.09-4.395h5.25v7.23h1.065v3.12h-1.065V327h-5.775v2.1h-1.065zm1.95-3.12h3.706v-6.165h-2.94l-.06 3.345c-.01.75-.095 1.365-.255 1.845s-.31.805-.45.975zm10.961 1.17c-.64 0-1.195-.125-1.665-.375a2.747 2.747 0 01-1.095-1.095c-.26-.47-.39-1.015-.39-1.635v-2.34c0-.63.13-1.175.39-1.635.26-.47.625-.83 1.095-1.08.47-.26 1.025-.39 1.665-.39.64 0 1.195.13 1.665.39.47.25.835.61 1.095 1.08.26.46.39 1.005.39 1.635v1.455h-5.13v.885c0 .67.17 1.19.51 1.56.35.36.84.54 1.47.54.53 0 .96-.105 1.29-.315.34-.21.555-.515.645-.915h1.185a2.394 2.394 0 01-1.005 1.635c-.56.4-1.265.6-2.115.6zm1.98-4.785v-.66c0-.67-.17-1.185-.51-1.545-.34-.37-.83-.555-1.47-.555-.63 0-1.12.185-1.47.555-.34.36-.51.875-.51 1.545v.525h4.08l-.12.135zm3.91 4.635v-8.25h1.156v4.695c0 .28-.01.58-.03.9a22.728 22.728 0 01-.105 1.59l3.495-7.185h1.545V327H89.74v-4.695c0-.29.005-.59.015-.9.02-.31.04-.605.06-.885.03-.29.05-.53.06-.72l-3.51 7.2h-1.53zm3.09-9.615c-.71 0-1.28-.195-1.71-.585-.42-.4-.63-.925-.63-1.575h.96c0 .41.12.74.36.99.25.25.586.375 1.006.375.43 0 .77-.125 1.02-.375s.375-.58.375-.99h.96c0 .65-.215 1.175-.645 1.575-.42.39-.985.585-1.695.585zm8.876 9.765c-.64 0-1.2-.125-1.68-.375a2.75 2.75 0 01-1.124-1.065c-.26-.47-.39-1.025-.39-1.665v-2.34c0-.64.13-1.19.39-1.65.27-.47.645-.83 1.125-1.08.48-.25 1.04-.375 1.68-.375.94 0 1.695.255 2.264.765.57.51.865 1.205.886 2.085h-1.185c-.02-.57-.206-1.01-.556-1.32-.34-.31-.81-.465-1.41-.465-.61 0-1.094.18-1.454.54-.36.35-.54.85-.54 1.5v2.34c0 .64.18 1.14.54 1.5.36.36.844.54 1.454.54.6 0 1.07-.155 1.41-.465.35-.32.536-.76.556-1.32h1.184c-.02.88-.315 1.575-.885 2.085-.57.51-1.325.765-2.264.765zm8.306-.15v-7.185h-3v-1.065h7.2v1.065h-3V327h-1.2zm6.491 0v-8.25h3.54c.82 0 1.465.195 1.935.585.47.38.705.91.705 1.59 0 .57-.195 1.03-.585 1.38-.38.34-.89.51-1.53.51v-.105c.69 0 1.245.18 1.665.54.42.35.63.82.63 1.41 0 .73-.25 1.305-.75 1.725-.49.41-1.17.615-2.04.615h-3.57zm1.17-1.05h2.4c.49 0 .88-.115 1.17-.345.29-.24.435-.56.435-.96 0-.42-.145-.745-.435-.975-.29-.24-.68-.36-1.17-.36h-2.4v2.64zm0-3.675h2.37c.44 0 .79-.11 1.05-.33.27-.22.405-.52.405-.9s-.135-.68-.405-.9c-.26-.23-.61-.345-1.05-.345h-2.37v2.475zm7.75 4.725v-8.25h1.155v4.695c0 .28-.01.58-.03.9a22.728 22.728 0 01-.105 1.59l3.495-7.185h1.545V327h-1.155v-4.695c0-.29.005-.59.015-.9.02-.31.04-.605.06-.885.03-.29.05-.53.06-.72l-3.51 7.2h-1.53zm8.456 0l2.1-3.195c-.64-.14-1.135-.425-1.485-.855-.35-.43-.525-.97-.525-1.62 0-.8.265-1.43.795-1.89.54-.46 1.27-.69 2.19-.69h3.45V327h-1.2v-3.09h-1.995l-1.95 3.09h-1.38zm3.075-4.155h2.25v-3.03h-2.25c-.54 0-.97.135-1.29.405-.32.27-.48.64-.48 1.11 0 .47.16.84.48 1.11.32.27.75.405 1.29.405zM16.515 347.15c-.64 0-1.2-.125-1.68-.375a2.75 2.75 0 01-1.125-1.065c-.26-.47-.39-1.025-.39-1.665v-2.34c0-.64.13-1.19.39-1.65.27-.47.645-.83 1.125-1.08.48-.25 1.04-.375 1.68-.375.94 0 1.695.255 2.265.765.57.51.865 1.205.885 2.085H18.48c-.02-.57-.205-1.01-.555-1.32-.34-.31-.81-.465-1.41-.465-.61 0-1.095.18-1.455.54-.36.35-.54.85-.54 1.5v2.34c0 .64.18 1.14.54 1.5.36.36.845.54 1.455.54.6 0 1.07-.155 1.41-.465.35-.32.535-.76.555-1.32h1.185c-.02.88-.315 1.575-.885 2.085-.57.51-1.325.765-2.265.765zm14.841-.15v-8.25h1.2v3.465h1.56l2.445-3.465h1.365l-2.775 3.93 2.835 4.32h-1.395l-2.475-3.75h-1.56V347h-1.2zm7.826.105v-1.125h.3c.43 0 .745-.175.945-.525.2-.36.305-.955.315-1.785l.105-4.92h5.445V347h-1.2v-7.17h-3.075l-.09 3.885c-.01.78-.105 1.42-.285 1.92-.17.5-.43.87-.78 1.11-.34.24-.785.36-1.335.36h-.345zm9.97-.105v-8.25h1.155v4.695c0 .28-.01.58-.03.9a22.728 22.728 0 01-.105 1.59l3.495-7.185h1.545V347h-1.155v-4.695c0-.29.005-.59.015-.9.02-.31.04-.605.06-.885.03-.29.05-.53.06-.72l-3.51 7.2h-1.53zm11.951.15c-.64 0-1.195-.125-1.665-.375a2.747 2.747 0 01-1.095-1.095c-.26-.47-.39-1.015-.39-1.635v-2.34c0-.63.13-1.175.39-1.635.26-.47.625-.83 1.095-1.08.47-.26 1.025-.39 1.665-.39.64 0 1.195.13 1.665.39.47.25.835.61 1.095 1.08.26.46.39 1.005.39 1.635v1.455h-5.13v.885c0 .67.17 1.19.51 1.56.35.36.84.54 1.47.54.53 0 .96-.105 1.29-.315.34-.21.555-.515.645-.915h1.185a2.394 2.394 0 01-1.005 1.635c-.56.4-1.265.6-2.115.6zm1.98-4.785v-.66c0-.67-.17-1.185-.51-1.545-.34-.37-.83-.555-1.47-.555-.63 0-1.12.185-1.47.555-.34.36-.51.875-.51 1.545v.525h4.08l-.12.135zm3.91 4.635v-8.25h1.2v3.51h3.66v-3.51h1.2V347h-1.2v-3.66h-3.66V347h-1.2zm11.351 0v-7.185h-3v-1.065h7.2v1.065h-3V347h-1.2zm8.876.15c-.87 0-1.555-.22-2.055-.66-.5-.45-.75-1.055-.75-1.815 0-.75.245-1.34.735-1.77.49-.44 1.15-.66 1.98-.66h2.625v-.87c0-.55-.16-.975-.48-1.275-.32-.3-.775-.45-1.365-.45-.52 0-.955.115-1.305.345-.34.23-.535.54-.585.93h-1.2c.1-.71.43-1.275.99-1.695.57-.42 1.28-.63 2.13-.63.92 0 1.65.25 2.19.75.54.49.81 1.155.81 1.995V347h-1.17v-1.605h-.195l.225-.24c0 .61-.235 1.095-.705 1.455-.47.36-1.095.54-1.875.54zm.285-.96c.66 0 1.2-.165 1.62-.495.42-.33.63-.76.63-1.29v-1.245h-2.61c-.47 0-.845.13-1.125.39s-.42.615-.42 1.065c0 .48.17.865.51 1.155.34.28.805.42 1.395.42zm5.98.81v-8.25h1.65l1.2 3.36c.1.29.196.585.286.885.09.3.154.535.195.705.05-.17.114-.405.194-.705.09-.3.185-.6.285-.9l1.156-3.345h1.635V347H98.93v-1.98c0-.43.005-.89.015-1.38l.03-1.47c.01-.49.026-.95.046-1.38.02-.44.034-.825.044-1.155l-1.635 4.89h-1.26l-1.635-4.86c.02.4.035.905.046 1.515l.03 1.905c.02.67.03 1.315.03 1.935V347h-1.156zm9.191 0v-8.25h1.155v4.695c0 .28-.01.58-.03.9a22.728 22.728 0 01-.105 1.59l3.495-7.185h1.545V347h-1.155v-4.695c0-.29.005-.59.015-.9.02-.31.04-.605.06-.885.03-.29.05-.53.06-.72l-3.51 7.2h-1.53zm17.841 0v-8.25h1.2v3.51h3.66v-3.51h1.2V347h-1.2v-3.66h-3.66V347h-1.2zm11.306.15c-.87 0-1.555-.22-2.055-.66-.5-.45-.75-1.055-.75-1.815 0-.75.245-1.34.735-1.77.49-.44 1.15-.66 1.98-.66h2.625v-.87c0-.55-.16-.975-.48-1.275-.32-.3-.775-.45-1.365-.45-.52 0-.955.115-1.305.345-.34.23-.535.54-.585.93h-1.2c.1-.71.43-1.275.99-1.695.57-.42 1.28-.63 2.13-.63.92 0 1.65.25 2.19.75.54.49.81 1.155.81 1.995V347h-1.17v-1.605h-.195l.225-.24c0 .61-.235 1.095-.705 1.455-.47.36-1.095.54-1.875.54zm.285-.96c.66 0 1.2-.165 1.62-.495.42-.33.63-.76.63-1.29v-1.245h-2.61c-.47 0-.845.13-1.125.39s-.42.615-.42 1.065c0 .48.17.865.51 1.155.34.28.805.42 1.395.42zM13.47 367v-8.25h3.54c.82 0 1.465.195 1.935.585.47.38.705.91.705 1.59 0 .57-.195 1.03-.585 1.38-.38.34-.89.51-1.53.51v-.105c.69 0 1.245.18 1.665.54.42.35.63.82.63 1.41 0 .73-.25 1.305-.75 1.725-.49.41-1.17.615-2.04.615h-3.57zm1.17-1.05h2.4c.49 0 .88-.115 1.17-.345.29-.24.435-.56.435-.96 0-.42-.145-.745-.435-.975-.29-.24-.68-.36-1.17-.36h-2.4v2.64zm0-3.675h2.37c.44 0 .79-.11 1.05-.33.27-.22.405-.52.405-.9s-.135-.68-.405-.9c-.26-.23-.61-.345-1.05-.345h-2.37v2.475zM21.956 367v-8.25h1.125v3.06h.735c.88 0 1.575.235 2.085.705.52.46.78 1.09.78 1.89 0 .8-.255 1.435-.765 1.905-.51.46-1.21.69-2.1.69h-1.86zm1.125-.975h.735c.56 0 .995-.14 1.305-.42.32-.29.48-.69.48-1.2s-.16-.905-.48-1.185c-.31-.29-.745-.435-1.305-.435h-.735v3.24zm4.68.975v-8.25h1.125V367H27.76zm6.595.15c-.64 0-1.2-.125-1.68-.375a2.75 2.75 0 01-1.125-1.065c-.26-.47-.39-1.025-.39-1.665v-2.34c0-.64.13-1.19.39-1.65.27-.47.645-.83 1.125-1.08.48-.25 1.04-.375 1.68-.375.94 0 1.695.255 2.265.765.57.51.865 1.205.885 2.085h-1.185c-.02-.57-.205-1.01-.555-1.32-.34-.31-.81-.465-1.41-.465-.61 0-1.095.18-1.455.54-.36.35-.54.85-.54 1.5v2.34c0 .64.18 1.14.54 1.5.36.36.845.54 1.455.54.6 0 1.07-.155 1.41-.465.35-.32.535-.76.555-1.32h1.185c-.02.88-.315 1.575-.885 2.085-.57.51-1.325.765-2.265.765zm8.306-.15v-7.185h-3v-1.065h7.2v1.065h-3V367h-1.2zm8.875.15c-.87 0-1.555-.22-2.055-.66-.5-.45-.75-1.055-.75-1.815 0-.75.245-1.34.735-1.77.49-.44 1.15-.66 1.98-.66h2.625v-.87c0-.55-.16-.975-.48-1.275-.32-.3-.775-.45-1.365-.45-.52 0-.955.115-1.305.345-.34.23-.535.54-.585.93h-1.2c.1-.71.43-1.275.99-1.695.57-.42 1.28-.63 2.13-.63.92 0 1.65.25 2.19.75.54.49.81 1.155.81 1.995V367h-1.17v-1.605h-.195l.225-.24c0 .61-.235 1.095-.705 1.455-.47.36-1.095.54-1.875.54zm.285-.96c.66 0 1.2-.165 1.62-.495.42-.33.63-.76.63-1.29v-1.245h-2.61c-.47 0-.845.13-1.125.39s-.42.615-.42 1.065c0 .48.17.865.51 1.155.34.28.805.42 1.395.42zm6.251.81v-8.25h3.54c.82 0 1.465.195 1.935.585.47.38.705.91.705 1.59 0 .57-.195 1.03-.585 1.38-.38.34-.89.51-1.53.51v-.105c.69 0 1.245.18 1.665.54.42.35.63.82.63 1.41 0 .73-.25 1.305-.75 1.725-.49.41-1.17.615-2.04.615h-3.57zm1.17-1.05h2.4c.49 0 .88-.115 1.17-.345.29-.24.435-.56.435-.96 0-.42-.145-.745-.435-.975-.29-.24-.68-.36-1.17-.36h-2.4v2.64zm0-3.675h2.37c.44 0 .79-.11 1.05-.33.27-.22.405-.52.405-.9s-.135-.68-.405-.9c-.26-.23-.61-.345-1.05-.345h-2.37v2.475zM67.04 367v-8.25h1.2v3.465h1.56l2.445-3.465h1.365l-2.775 3.93L73.67 367h-1.395l-2.475-3.75h-1.56V367h-1.2zm11.905.15c-.64 0-1.195-.125-1.665-.375a2.747 2.747 0 01-1.095-1.095c-.26-.47-.39-1.015-.39-1.635v-2.34c0-.63.13-1.175.39-1.635.26-.47.625-.83 1.095-1.08.47-.26 1.025-.39 1.665-.39.64 0 1.195.13 1.665.39.47.25.835.61 1.095 1.08.26.46.39 1.005.39 1.635v1.455h-5.13v.885c0 .67.17 1.19.51 1.56.35.36.84.54 1.47.54.53 0 .96-.105 1.29-.315.34-.21.555-.515.645-.915h1.185a2.394 2.394 0 01-1.005 1.635c-.56.4-1.265.6-2.115.6zm1.98-4.785v-.66c0-.67-.17-1.185-.51-1.545-.34-.37-.83-.555-1.47-.555-.63 0-1.12.185-1.47.555-.34.36-.51.875-.51 1.545v.525h4.08l-.12.135z" fill="#000"/><rect x=".265" y="115.265" width="122.47" height="141.47" rx="12.321" fill="#A9B7DF" stroke="#fff" stroke-width=".53"/><path d="M18.56 161.15c-.73 0-1.37-.135-1.92-.405-.55-.28-.98-.665-1.29-1.155-.3-.5-.45-1.08-.45-1.74v-4.65c0-.67.15-1.25.45-1.74.31-.49.74-.87 1.29-1.14.55-.28 1.19-.42 1.92-.42.74 0 1.38.14 1.92.42.55.27.975.65 1.275 1.14.31.49.465 1.07.465 1.74h-2.25c0-.44-.125-.775-.375-1.005-.24-.23-.585-.345-1.035-.345-.45 0-.8.115-1.05.345-.24.23-.36.565-.36 1.005v4.65c0 .43.12.765.36 1.005.25.23.6.345 1.05.345.45 0 .795-.115 1.035-.345.25-.24.375-.575.375-1.005h2.25c0 .66-.155 1.24-.465 1.74-.3.49-.725.875-1.275 1.155-.54.27-1.18.405-1.92.405zm8.86 0c-1.1-.02-1.974-.32-2.624-.9-.65-.59-.975-1.39-.975-2.4v-3.675c0-1.32.37-2.335 1.11-3.045.74-.72 1.795-1.08 3.165-1.08h2.475v2.175h-2.475c-.66 0-1.165.165-1.515.495-.34.33-.51.815-.51 1.455v1.05h.21l-.18.21c-.01-.56.17-1.005.54-1.335.38-.34.92-.51 1.62-.51.87 0 1.545.285 2.025.855.49.57.735 1.36.735 2.37v1.035c0 .67-.15 1.26-.45 1.77-.29.5-.705.885-1.245 1.155-.53.26-1.165.385-1.905.375zm0-1.95c.44 0 .776-.115 1.006-.345.23-.24.345-.575.345-1.005v-1.035c0-.44-.115-.775-.345-1.005-.23-.23-.565-.345-1.005-.345-.43 0-.765.115-1.005.345-.23.23-.345.565-.345 1.005v1.035c0 .43.115.765.345 1.005.24.23.575.345 1.005.345zm8.921 1.95c-.73 0-1.365-.135-1.905-.405-.54-.28-.96-.665-1.26-1.155-.29-.5-.435-1.08-.435-1.74v-1.95c0-.66.145-1.235.435-1.725.3-.5.72-.885 1.26-1.155.54-.28 1.175-.42 1.905-.42.74 0 1.375.14 1.905.42.54.27.955.655 1.245 1.155.3.49.45 1.065.45 1.725v1.95c0 .66-.15 1.24-.45 1.74-.29.49-.705.875-1.245 1.155-.53.27-1.165.405-1.905.405zm0-1.95c.44 0 .775-.115 1.005-.345.23-.24.345-.575.345-1.005v-1.95c0-.44-.115-.775-.345-1.005-.23-.23-.565-.345-1.005-.345-.43 0-.765.115-1.005.345-.23.23-.345.565-.345 1.005v1.95c0 .43.115.765.345 1.005.24.23.575.345 1.005.345zm5.41 4.5v-10.95h2.176v1.575h.525l-.525.525c0-.71.195-1.26.585-1.65.39-.4.925-.6 1.605-.6.83 0 1.495.295 1.995.885.5.58.75 1.36.75 2.34v2.1c0 .65-.115 1.22-.345 1.71-.22.48-.535.855-.945 1.125-.41.26-.895.39-1.455.39-.68 0-1.215-.195-1.605-.585-.39-.4-.585-.955-.585-1.665l.525.525h-.525l.075 2.025v2.25h-2.25zm3.556-4.5c.42 0 .74-.115.96-.345.23-.24.345-.575.345-1.005v-1.95c0-.44-.115-.775-.345-1.005-.22-.23-.54-.345-.96-.345-.41 0-.73.12-.96.36-.23.23-.345.56-.345.99v1.95c0 .43.115.765.345 1.005.23.23.55.345.96.345zm14.766 1.8v-8.25h1.155v4.695c0 .28-.01.58-.03.9a22.728 22.728 0 01-.105 1.59l3.495-7.185h1.545V161h-1.155v-4.695c0-.29.005-.59.015-.9.02-.31.04-.605.06-.885.03-.29.05-.53.06-.72l-3.51 7.2h-1.53zM18.5 181.15c-.73 0-1.365-.135-1.905-.405-.54-.28-.96-.665-1.26-1.155-.29-.5-.435-1.08-.435-1.74v-1.95c0-.66.145-1.235.435-1.725.3-.5.72-.885 1.26-1.155.54-.28 1.175-.42 1.905-.42.74 0 1.375.14 1.905.42.54.27.955.655 1.245 1.155.3.49.45 1.065.45 1.725v1.95c0 .66-.15 1.24-.45 1.74-.29.49-.705.875-1.245 1.155-.53.27-1.165.405-1.905.405zm0-1.95c.44 0 .775-.115 1.005-.345.23-.24.345-.575.345-1.005v-1.95c0-.44-.115-.775-.345-1.005-.23-.23-.565-.345-1.005-.345-.43 0-.765.115-1.005.345-.23.23-.345.565-.345 1.005v1.95c0 .43.115.765.345 1.005.24.23.575.345 1.005.345zm8.92 1.95c-1.1-.02-1.974-.32-2.624-.9-.65-.59-.975-1.39-.975-2.4v-3.675c0-1.32.37-2.335 1.11-3.045.74-.72 1.795-1.08 3.165-1.08h2.475v2.175h-2.475c-.66 0-1.165.165-1.515.495-.34.33-.51.815-.51 1.455v1.05h.21l-.18.21c-.01-.56.17-1.005.54-1.335.38-.34.92-.51 1.62-.51.87 0 1.545.285 2.025.855.49.57.735 1.36.735 2.37v1.035c0 .67-.15 1.26-.45 1.77-.29.5-.705.885-1.245 1.155-.53.26-1.165.385-1.905.375zm0-1.95c.44 0 .776-.115 1.006-.345.23-.24.345-.575.345-1.005v-1.035c0-.44-.115-.775-.345-1.005-.23-.23-.565-.345-1.005-.345-.43 0-.765.115-1.005.345-.23.23-.345.565-.345 1.005v1.035c0 .43.115.765.345 1.005.24.23.575.345 1.005.345zm5.411 4.5v-10.95h2.175v1.575h.525l-.525.525c0-.71.195-1.26.585-1.65.39-.4.925-.6 1.605-.6.83 0 1.495.295 1.995.885.5.58.75 1.36.75 2.34v2.1c0 .65-.115 1.22-.345 1.71-.22.48-.535.855-.945 1.125-.41.26-.895.39-1.455.39-.68 0-1.215-.195-1.605-.585-.39-.4-.585-.955-.585-1.665l.525.525h-.525l.075 2.025v2.25h-2.25zm3.555-4.5c.42 0 .74-.115.96-.345.23-.24.345-.575.345-1.005v-1.95c0-.44-.115-.775-.345-1.005-.22-.23-.54-.345-.96-.345-.41 0-.73.12-.96.36-.23.23-.345.56-.345.99v1.95c0 .43.115.765.345 1.005.23.23.55.345.96.345zm7.81 1.95c-.83 0-1.49-.225-1.98-.675-.48-.45-.72-1.06-.72-1.83 0-.83.286-1.465.856-1.905.58-.45 1.41-.675 2.49-.675h1.71v-.615a.941.941 0 00-.345-.765c-.22-.19-.52-.285-.9-.285-.35 0-.64.08-.87.24-.23.16-.37.38-.42.66h-2.175c.09-.83.45-1.485 1.08-1.965.64-.49 1.46-.735 2.46-.735 1.05 0 1.88.26 2.49.78.62.51.93 1.2.93 2.07V181h-2.175v-1.35h-.36l.375-.525c0 .62-.225 1.115-.675 1.485-.44.36-1.03.54-1.77.54zm.84-1.65c.44 0 .8-.115 1.08-.345.29-.24.436-.55.436-.93v-.885h-1.665c-.34 0-.615.1-.825.3-.21.19-.315.445-.315.765 0 .34.115.61.345.81.23.19.545.285.945.285zm9.146 1.65c-1.1-.02-1.975-.32-2.625-.9-.65-.59-.975-1.39-.975-2.4v-3.675c0-1.32.37-2.335 1.11-3.045.74-.72 1.795-1.08 3.165-1.08h2.475v2.175h-2.475c-.66 0-1.165.165-1.515.495-.34.33-.51.815-.51 1.455v1.05h.21l-.18.21c-.01-.56.17-1.005.54-1.335.38-.34.92-.51 1.62-.51.87 0 1.545.285 2.025.855.49.57.735 1.36.735 2.37v1.035c0 .67-.15 1.26-.45 1.77-.29.5-.705.885-1.245 1.155-.53.26-1.165.385-1.905.375zm0-1.95c.44 0 .775-.115 1.005-.345.23-.24.345-.575.345-1.005v-1.035c0-.44-.115-.775-.345-1.005-.23-.23-.565-.345-1.005-.345-.43 0-.765.115-1.005.345-.23.23-.345.565-.345 1.005v1.035c0 .43.115.765.345 1.005.24.23.575.345 1.005.345zm8.921 1.95c-.73 0-1.365-.135-1.905-.405-.54-.28-.96-.665-1.26-1.155-.29-.5-.435-1.08-.435-1.74v-1.95c0-.66.145-1.235.435-1.725.3-.5.72-.885 1.26-1.155.54-.28 1.175-.42 1.905-.42.74 0 1.375.14 1.905.42.54.27.955.655 1.245 1.155.3.49.45 1.065.45 1.725v1.95c0 .66-.15 1.24-.45 1.74-.29.49-.705.875-1.245 1.155-.53.27-1.165.405-1.905.405zm0-1.95c.44 0 .775-.115 1.005-.345.23-.24.345-.575.345-1.005v-1.95c0-.44-.115-.775-.345-1.005-.23-.23-.565-.345-1.005-.345-.43 0-.765.115-1.005.345-.23.23-.345.565-.345 1.005v1.95c0 .43.115.765.345 1.005.24.23.575.345 1.005.345zM70.9 181v-6.15h-2.7v-2.1h7.65v2.1h-2.7V181H70.9zm6.58 0v-8.25h2.25v3.12h1.11l1.725-3.12h2.505l-2.295 4.035 2.34 4.215h-2.55l-1.74-3.24H79.73V181h-2.25zm11.32.15c-.83 0-1.49-.225-1.98-.675-.48-.45-.72-1.06-.72-1.83 0-.83.286-1.465.856-1.905.58-.45 1.41-.675 2.49-.675h1.71v-.615a.941.941 0 00-.345-.765c-.22-.19-.52-.285-.9-.285-.35 0-.64.08-.87.24-.23.16-.37.38-.42.66h-2.175c.09-.83.45-1.485 1.08-1.965.64-.49 1.46-.735 2.46-.735 1.05 0 1.88.26 2.49.78.62.51.93 1.2.93 2.07V181H91.23v-1.35h-.36l.375-.525c0 .62-.225 1.115-.675 1.485-.44.36-1.03.54-1.77.54zm.84-1.65c.44 0 .8-.115 1.08-.345.29-.24.436-.55.436-.93v-.885H89.49c-.34 0-.615.1-.825.3-.21.19-.315.445-.315.765 0 .34.115.61.345.81.23.19.545.285.945.285zM15.516 201v-8.25h1.2v3.465h1.56l2.445-3.465h1.365l-2.775 3.93 2.835 4.32H20.75l-2.475-3.75h-1.56V201h-1.2zm7.826.105v-1.125h.3c.43 0 .745-.175.945-.525.2-.36.305-.955.315-1.785l.105-4.92h5.445V201h-1.2v-7.17h-3.075l-.09 3.885c-.01.78-.105 1.42-.285 1.92-.17.5-.43.87-.78 1.11-.34.24-.785.36-1.335.36h-.345zm9.97-.105v-8.25h1.155v4.695c0 .28-.01.58-.03.9a22.728 22.728 0 01-.105 1.59l3.495-7.185h1.545V201h-1.155v-4.695c0-.29.005-.59.015-.9.02-.31.04-.605.06-.885.03-.29.05-.53.06-.72l-3.51 7.2h-1.53zm11.95.15c-.64 0-1.194-.125-1.664-.375a2.747 2.747 0 01-1.095-1.095c-.26-.47-.39-1.015-.39-1.635v-2.34c0-.63.13-1.175.39-1.635.26-.47.625-.83 1.095-1.08.47-.26 1.025-.39 1.665-.39.64 0 1.195.13 1.665.39.47.25.835.61 1.095 1.08.26.46.39 1.005.39 1.635v1.455h-5.13v.885c0 .67.17 1.19.51 1.56.35.36.84.54 1.47.54.53 0 .96-.105 1.29-.315.34-.21.555-.515.645-.915h1.185a2.394 2.394 0 01-1.005 1.635c-.56.4-1.265.6-2.115.6zm1.98-4.785v-.66c0-.67-.17-1.185-.51-1.545-.34-.37-.83-.555-1.47-.555-.63 0-1.12.185-1.47.555-.34.36-.51.875-.51 1.545v.525h4.08l-.12.135zM51.153 201v-8.25h1.2v3.51h3.66v-3.51h1.2V201h-1.2v-3.66h-3.66V201h-1.2zm11.351 0v-7.185h-3v-1.065h7.2v1.065h-3V201h-1.2zm9.536.15c-.64 0-1.2-.125-1.68-.375a2.75 2.75 0 01-1.125-1.065c-.26-.47-.39-1.025-.39-1.665v-2.34c0-.64.13-1.19.39-1.65.27-.47.645-.83 1.125-1.08.48-.25 1.04-.375 1.68-.375.94 0 1.695.255 2.265.765.57.51.865 1.205.885 2.085h-1.185c-.02-.57-.205-1.01-.555-1.32-.34-.31-.81-.465-1.41-.465-.61 0-1.095.18-1.455.54-.36.35-.54.85-.54 1.5v2.34c0 .64.18 1.14.54 1.5.36.36.845.54 1.455.54.6 0 1.07-.155 1.41-.465.35-.32.535-.76.555-1.32h1.185c-.02.88-.315 1.575-.885 2.085-.57.51-1.325.765-2.265.765zm5.92-.15v-8.25h1.2v3.465h1.56l2.445-3.465h1.365l-2.775 3.93L84.59 201h-1.395l-2.475-3.75h-1.56V201h-1.2zm8.876 0v-8.25h1.155v4.695c0 .28-.01.58-.03.9a22.728 22.728 0 01-.105 1.59l3.495-7.185h1.545V201H91.74v-4.695c0-.29.005-.59.015-.9.02-.31.04-.605.06-.885.03-.29.05-.53.06-.72l-3.51 7.2h-1.53zm8.306 0l2.924-4.245-2.745-4.005h1.396l1.74 2.67c.06.1.12.215.18.345l.165.285c.04-.07.09-.165.15-.285.07-.13.135-.245.195-.345l1.739-2.67h1.38l-2.745 4.02 2.911 4.23h-1.396l-1.86-2.82c-.07-.1-.14-.22-.21-.36-.06-.14-.115-.25-.165-.33a7.227 7.227 0 01-.404.69L96.52 201h-1.38zM14.51 223.1v-3.12h.675c.17-.19.345-.53.525-1.02.19-.5.29-1.105.3-1.815l.09-4.395h5.25v7.23h1.065v3.12H21.35V221h-5.775v2.1H14.51zm1.95-3.12h3.705v-6.165h-2.94l-.06 3.345c-.01.75-.095 1.365-.255 1.845s-.31.805-.45.975zm10.316 1.17c-.87 0-1.555-.22-2.055-.66-.5-.45-.75-1.055-.75-1.815 0-.75.245-1.34.735-1.77.49-.44 1.15-.66 1.98-.66h2.625v-.87c0-.55-.16-.975-.48-1.275-.32-.3-.775-.45-1.365-.45-.52 0-.955.115-1.305.345-.34.23-.535.54-.585.93h-1.2c.1-.71.43-1.275.99-1.695.57-.42 1.28-.63 2.13-.63.92 0 1.65.25 2.19.75.54.49.81 1.155.81 1.995V221h-1.17v-1.605h-.195l.225-.24c0 .61-.235 1.095-.705 1.455-.47.36-1.095.54-1.875.54zm.285-.96c.66 0 1.2-.165 1.62-.495.42-.33.63-.76.63-1.29v-1.245H26.7c-.47 0-.845.13-1.125.39s-.42.615-.42 1.065c0 .48.17.865.51 1.155.34.28.805.42 1.395.42zm6.25.81v-8.25h1.2v3.51h3.66v-3.51h1.2V221h-1.2v-3.66h-3.66V221h-1.2zm8.92 0v-8.25h1.2v3.51h3.66v-3.51h1.2V221h-1.2v-3.66h-3.66V221h-1.2zm8.486 0v-8.25h1.125v3.06h.735c.88 0 1.575.235 2.085.705.52.46.78 1.09.78 1.89 0 .8-.255 1.435-.765 1.905-.51.46-1.21.69-2.1.69h-1.86zm1.125-.975h.735c.56 0 .995-.14 1.305-.42.32-.29.48-.69.48-1.2s-.16-.905-.48-1.185c-.31-.29-.745-.435-1.305-.435h-.735v3.24zm4.68.975v-8.25h1.125V221h-1.125zm2.936 0l2.925-4.245-2.745-4.005h1.395l1.74 2.67c.06.1.12.215.18.345l.165.285c.04-.07.09-.165.15-.285.07-.13.135-.245.195-.345l1.74-2.67h1.38l-2.745 4.02 2.91 4.23h-1.395l-1.86-2.82c-.07-.1-.14-.22-.21-.36-.06-.14-.115-.25-.165-.33a7.227 7.227 0 01-.405.69L60.838 221h-1.38z" fill="#000"/><rect x="132.265" y="115.265" width="220.47" height="141.47" rx="12.321" fill="#A9B7DF" stroke="#fff" stroke-width=".53"/><path d="M159.56 152.15c-.73 0-1.37-.135-1.92-.405-.55-.28-.98-.665-1.29-1.155-.3-.5-.45-1.08-.45-1.74v-4.65c0-.67.15-1.25.45-1.74.31-.49.74-.87 1.29-1.14.55-.28 1.19-.42 1.92-.42.74 0 1.38.14 1.92.42.55.27.975.65 1.275 1.14.31.49.465 1.07.465 1.74h-2.25c0-.44-.125-.775-.375-1.005-.24-.23-.585-.345-1.035-.345-.45 0-.8.115-1.05.345-.24.23-.36.565-.36 1.005v4.65c0 .43.12.765.36 1.005.25.23.6.345 1.05.345.45 0 .795-.115 1.035-.345.25-.24.375-.575.375-1.005h2.25c0 .66-.155 1.24-.465 1.74-.3.49-.725.875-1.275 1.155-.54.27-1.18.405-1.92.405zm8.861 0c-.73 0-1.365-.135-1.905-.405-.54-.28-.96-.665-1.26-1.155-.29-.5-.435-1.08-.435-1.74v-1.95c0-.66.145-1.235.435-1.725.3-.5.72-.885 1.26-1.155.54-.28 1.175-.42 1.905-.42.74 0 1.375.14 1.905.42.54.27.955.655 1.245 1.155.3.49.45 1.065.45 1.725v1.95c0 .66-.15 1.24-.45 1.74-.29.49-.705.875-1.245 1.155-.53.27-1.165.405-1.905.405zm0-1.95c.44 0 .775-.115 1.005-.345.23-.24.345-.575.345-1.005v-1.95c0-.44-.115-.775-.345-1.005-.23-.23-.565-.345-1.005-.345-.43 0-.765.115-1.005.345-.23.23-.345.565-.345 1.005v1.95c0 .43.115.765.345 1.005.24.23.575.345 1.005.345zm8.5 1.905c-.92 0-1.685-.225-2.295-.675-.61-.45-.98-1.06-1.11-1.83h2.175c.07.23.215.415.435.555.22.13.485.195.795.195h.855c.33 0 .59-.075.78-.225a.8.8 0 00.285-.645.741.741 0 00-.285-.615c-.19-.15-.45-.225-.78-.225h-1.935v-1.71h1.845c.31 0 .55-.065.72-.195a.7.7 0 00.255-.57c0-.17-.04-.31-.12-.42a.67.67 0 00-.33-.255c-.14-.06-.315-.09-.525-.09h-.69c-.31 0-.57.07-.78.21a.94.94 0 00-.42.54h-2.175c.13-.77.495-1.38 1.095-1.83.6-.45 1.36-.675 2.28-.675h.69c.66 0 1.23.095 1.71.285.48.18.85.44 1.11.78.26.33.39.725.39 1.185 0 .55-.21.995-.63 1.335-.41.34-.955.51-1.635.51v-.15c.74 0 1.335.19 1.785.57.45.37.675.865.675 1.485 0 .75-.3 1.35-.9 1.8-.6.44-1.405.66-2.415.66h-.855zm5.171 1.995v-4.005h.465c.17-.17.345-.465.525-.885.19-.43.29-.95.3-1.56l.075-3.9h6.075v6.345h.9v4.005h-2.1V152h-4.14v2.1h-2.1zm2.7-4.005h2.64v-4.41h-1.905l-.045 1.95c-.01.58-.095 1.09-.255 1.53-.15.43-.295.74-.435.93zm9.325 2.055c-.83 0-1.49-.225-1.98-.675-.48-.45-.72-1.06-.72-1.83 0-.83.285-1.465.855-1.905.58-.45 1.41-.675 2.49-.675h1.71v-.615a.941.941 0 00-.345-.765c-.22-.19-.52-.285-.9-.285-.35 0-.64.08-.87.24-.23.16-.37.38-.42.66h-2.175c.09-.83.45-1.485 1.08-1.965.64-.49 1.46-.735 2.46-.735 1.05 0 1.88.26 2.49.78.62.51.93 1.2.93 2.07V152h-2.175v-1.35h-.36l.375-.525c0 .62-.225 1.115-.675 1.485-.44.36-1.03.54-1.77.54zm.84-1.65c.44 0 .8-.115 1.08-.345.29-.24.435-.55.435-.93v-.885h-1.665c-.34 0-.615.1-.825.3-.21.19-.315.445-.315.765 0 .34.115.61.345.81.23.19.545.285.945.285zm5.636 1.5v-8.25h2.25v3.015h2.52v-3.015h2.25V152h-2.25v-3.135h-2.52V152h-2.25zm8.921 0v-8.25h1.98v3.75c0 .25-.015.565-.045.945-.03.37-.07.745-.12 1.125-.04.38-.085.715-.135 1.005l2.61-6.825h2.73V152h-1.98v-3.75c0-.26.015-.555.045-.885.03-.34.065-.68.105-1.02.04-.34.08-.63.12-.87l-2.58 6.525h-2.73zm12.445.15c-.73 0-1.37-.135-1.92-.405-.54-.28-.96-.665-1.26-1.155-.29-.5-.435-1.08-.435-1.74v-1.95c0-.66.145-1.235.435-1.725.3-.5.72-.885 1.26-1.155.55-.28 1.19-.42 1.92-.42s1.36.14 1.89.42c.54.27.955.655 1.245 1.155.3.49.45 1.065.45 1.725v1.5h-5.055v.45c0 .52.125.915.375 1.185.25.26.625.39 1.125.39.35 0 .63-.06.84-.18a.872.872 0 00.435-.495h2.205c-.18.72-.59 1.3-1.23 1.74-.63.44-1.39.66-2.28.66zm1.44-4.905v-.375c0-.51-.12-.9-.36-1.17-.23-.27-.59-.405-1.08-.405-.49 0-.86.14-1.11.42-.24.28-.36.675-.36 1.185v.225l3.06-.03-.15.15zm-64.544 24.905c-.87 0-1.555-.22-2.055-.66-.5-.45-.75-1.055-.75-1.815 0-.75.245-1.34.735-1.77.49-.44 1.15-.66 1.98-.66h2.625v-.87c0-.55-.16-.975-.48-1.275-.32-.3-.775-.45-1.365-.45-.52 0-.955.115-1.305.345-.34.23-.535.54-.585.93h-1.2c.1-.71.43-1.275.99-1.695.57-.42 1.28-.63 2.13-.63.92 0 1.65.25 2.19.75.54.49.81 1.155.81 1.995V172h-1.17v-1.605h-.195l.225-.24c0 .61-.235 1.095-.705 1.455-.47.36-1.095.54-1.875.54zm.285-.96c.66 0 1.2-.165 1.62-.495.42-.33.63-.76.63-1.29v-1.245h-2.61c-.47 0-.845.13-1.125.39s-.42.615-.42 1.065c0 .48.17.865.51 1.155.34.28.805.42 1.395.42zm5.291 2.91v-3.12h.675c.17-.19.345-.53.525-1.02.19-.5.29-1.105.3-1.815l.09-4.395h5.25v7.23h1.065v3.12h-1.065V172h-5.775v2.1h-1.065zm1.95-3.12h3.705v-6.165h-2.94l-.06 3.345c-.01.75-.095 1.365-.255 1.845s-.31.805-.45.975zm7.66 1.02v-8.25h1.65l1.2 3.36c.1.29.195.585.285.885.09.3.155.535.195.705.05-.17.115-.405.195-.705.09-.3.185-.6.285-.9l1.155-3.345h1.635V172h-1.155v-1.98c0-.43.005-.89.015-1.38l.03-1.47c.01-.49.025-.95.045-1.38.02-.44.035-.825.045-1.155l-1.635 4.89h-1.26l-1.635-4.86c.02.4.035.905.045 1.515l.03 1.905c.02.67.03 1.315.03 1.935V172h-1.155zm9.191 0v-8.25h1.155v4.695c0 .28-.01.58-.03.9a22.728 22.728 0 01-.105 1.59l3.495-7.185h1.545V172h-1.155v-4.695c0-.29.005-.59.015-.9.02-.31.04-.605.06-.885.03-.29.05-.53.06-.72l-3.51 7.2h-1.53zm8.92 0v-8.25h1.2v3.51h3.66v-3.51h1.2V172h-1.2v-3.66h-3.66V172h-1.2zm8.921 0v-8.25h1.155v4.695c0 .28-.01.58-.03.9a22.728 22.728 0 01-.105 1.59l3.495-7.185h1.545V172h-1.155v-4.695c0-.29.005-.59.015-.9.02-.31.04-.605.06-.885.03-.29.05-.53.06-.72l-3.51 7.2h-1.53zm11.966.15c-.64 0-1.2-.125-1.68-.375a2.75 2.75 0 01-1.125-1.065c-.26-.47-.39-1.025-.39-1.665v-2.34c0-.64.13-1.19.39-1.65.27-.47.645-.83 1.125-1.08.48-.25 1.04-.375 1.68-.375.94 0 1.695.255 2.265.765.57.51.865 1.205.885 2.085h-1.185c-.02-.57-.205-1.01-.555-1.32-.34-.31-.81-.465-1.41-.465-.61 0-1.095.18-1.455.54-.36.35-.54.85-.54 1.5v2.34c0 .64.18 1.14.54 1.5.36.36.845.54 1.455.54.6 0 1.07-.155 1.41-.465.35-.32.535-.76.555-1.32h1.185c-.02.88-.315 1.575-.885 2.085-.57.51-1.325.765-2.265.765zm8.305-.15v-7.185h-3v-1.065h7.2v1.065h-3V172h-1.2zm6.476 2.7v-10.95h1.185v1.455h.315l-.36.495c0-.65.21-1.16.63-1.53.43-.38.995-.57 1.695-.57.83 0 1.49.275 1.98.825.5.54.75 1.28.75 2.22v2.445c0 .63-.115 1.175-.345 1.635-.23.45-.55.8-.96 1.05-.4.25-.875.375-1.425.375-.69 0-1.25-.19-1.68-.57-.43-.38-.645-.89-.645-1.53l.315.495h-.285l.015 1.68v2.475h-1.185zm3.09-3.585c.6 0 1.065-.18 1.395-.54.34-.36.51-.87.51-1.53v-2.34c0-.67-.17-1.18-.51-1.53-.33-.36-.795-.54-1.395-.54-.58 0-1.045.185-1.395.555-.34.36-.51.865-.51 1.515v2.34c0 .65.17 1.16.51 1.53.35.36.815.54 1.395.54zm8.23 1.035c-.87 0-1.555-.22-2.055-.66-.5-.45-.75-1.055-.75-1.815 0-.75.245-1.34.735-1.77.49-.44 1.15-.66 1.98-.66h2.626v-.87c0-.55-.161-.975-.481-1.275-.32-.3-.775-.45-1.365-.45-.52 0-.955.115-1.305.345-.34.23-.535.54-.585.93h-1.2c.1-.71.43-1.275.99-1.695.57-.42 1.28-.63 2.13-.63.92 0 1.65.25 2.191.75.539.49.809 1.155.809 1.995V172h-1.17v-1.605h-.194l.224-.24c0 .61-.235 1.095-.704 1.455-.471.36-1.096.54-1.876.54zm.285-.96c.66 0 1.2-.165 1.62-.495.42-.33.631-.76.631-1.29v-1.245h-2.611c-.47 0-.845.13-1.125.39s-.42.615-.42 1.065c0 .48.17.865.51 1.155.34.28.805.42 1.395.42zm8.681.81v-7.185h-3v-1.065h7.2v1.065h-3V172h-1.2zm6.491 0v-8.25h1.155v4.695c0 .28-.01.58-.03.9a22.728 22.728 0 01-.105 1.59l3.495-7.185h1.545V172h-1.155v-4.695c0-.29.005-.59.015-.9.02-.31.04-.605.06-.885.03-.29.05-.53.06-.72l-3.51 7.2h-1.53zm8.92 0v-8.25h3.54c.82 0 1.465.195 1.935.585.47.38.705.91.705 1.59 0 .57-.195 1.03-.585 1.38-.38.34-.89.51-1.53.51v-.105c.69 0 1.245.18 1.665.54.42.35.63.82.63 1.41 0 .73-.25 1.305-.75 1.725-.49.41-1.17.615-2.04.615h-3.57zm1.17-1.05h2.4c.49 0 .88-.115 1.17-.345.29-.24.435-.56.435-.96 0-.42-.145-.745-.435-.975-.29-.24-.68-.36-1.17-.36h-2.4v2.64zm0-3.675h2.37c.44 0 .79-.11 1.05-.33.27-.22.405-.52.405-.9s-.135-.68-.405-.9c-.26-.23-.61-.345-1.05-.345h-2.37v2.475zm7.751 4.725v-8.25h1.2v3.51h3.66v-3.51h1.2V172h-1.2v-3.66h-3.66V172h-1.2zm11.951.135c-.64 0-1.195-.125-1.665-.375a2.65 2.65 0 01-1.095-1.08c-.26-.47-.39-1.025-.39-1.665v-2.28c0-.65.13-1.205.39-1.665.26-.47.625-.83 1.095-1.08.47-.25 1.025-.375 1.665-.375.64 0 1.195.125 1.665.375s.835.61 1.095 1.08c.26.46.39 1.01.39 1.65v2.295c0 .64-.13 1.195-.39 1.665s-.625.83-1.095 1.08c-.47.25-1.025.375-1.665.375zm0-1.065c.62 0 1.1-.175 1.44-.525.34-.35.51-.86.51-1.53v-2.28c0-.67-.175-1.18-.525-1.53-.34-.35-.815-.525-1.425-.525-.61 0-1.09.175-1.44.525-.34.35-.51.86-.51 1.53v2.28c0 .67.17 1.18.51 1.53.35.35.83.525 1.44.525zm5.89.93v-8.25h1.155v4.695c0 .28-.01.58-.03.9a22.728 22.728 0 01-.105 1.59l3.495-7.185h1.545V172h-1.155v-4.695c0-.29.005-.59.015-.9.02-.31.04-.605.06-.885.03-.29.05-.53.06-.72l-3.51 7.2h-1.53zm3.09-9.615c-.71 0-1.28-.195-1.71-.585-.42-.4-.63-.925-.63-1.575h.96c0 .41.12.74.36.99.25.25.585.375 1.005.375.43 0 .77-.125 1.02-.375s.375-.58.375-.99h.96c0 .65-.215 1.175-.645 1.575-.42.39-.985.585-1.695.585zM156.47 192v-8.25h6.06V192h-1.2v-7.17h-3.66V192h-1.2zm11.306.15c-.87 0-1.555-.22-2.055-.66-.5-.45-.75-1.055-.75-1.815 0-.75.245-1.34.735-1.77.49-.44 1.15-.66 1.98-.66h2.625v-.87c0-.55-.16-.975-.48-1.275-.32-.3-.775-.45-1.365-.45-.52 0-.955.115-1.305.345-.34.23-.535.54-.585.93h-1.2c.1-.71.43-1.275.99-1.695.57-.42 1.28-.63 2.13-.63.92 0 1.65.25 2.19.75.54.49.81 1.155.81 1.995V192h-1.17v-1.605h-.195l.225-.24c0 .61-.235 1.095-.705 1.455-.47.36-1.095.54-1.875.54zm.285-.96c.66 0 1.2-.165 1.62-.495.42-.33.63-.76.63-1.29v-1.245h-2.61c-.47 0-.845.13-1.125.39s-.42.615-.42 1.065c0 .48.17.865.51 1.155.34.28.805.42 1.395.42zm6.25.81v-8.25h1.2v3.51h3.66v-3.51h1.2V192h-1.2v-3.66h-3.66V192h-1.2zm11.951.15c-.64 0-1.195-.125-1.665-.375a2.747 2.747 0 01-1.095-1.095c-.26-.47-.39-1.015-.39-1.635v-2.34c0-.63.13-1.175.39-1.635.26-.47.625-.83 1.095-1.08.47-.26 1.025-.39 1.665-.39.64 0 1.195.13 1.665.39.47.25.835.61 1.095 1.08.26.46.39 1.005.39 1.635v1.455h-5.13v.885c0 .67.17 1.19.51 1.56.35.36.84.54 1.47.54.53 0 .96-.105 1.29-.315.34-.21.555-.515.645-.915h1.185a2.394 2.394 0 01-1.005 1.635c-.56.4-1.265.6-2.115.6zm1.98-4.785v-.66c0-.67-.17-1.185-.51-1.545-.34-.37-.83-.555-1.47-.555-.63 0-1.12.185-1.47.555-.34.36-.51.875-.51 1.545v.525h4.08l-.12.135zm2.86 4.74v-1.125h.3c.43 0 .745-.175.945-.525.2-.36.305-.955.315-1.785l.105-4.92h5.445V192h-1.2v-7.17h-3.075l-.09 3.885c-.01.78-.105 1.42-.285 1.92-.17.5-.43.87-.78 1.11-.34.24-.785.36-1.335.36h-.345zm9.971-.105v-8.25h1.155v4.695c0 .28-.01.58-.03.9a22.728 22.728 0 01-.105 1.59l3.495-7.185h1.545V192h-1.155v-4.695c0-.29.005-.59.015-.9.02-.31.04-.605.06-.885.03-.29.05-.53.06-.72l-3.51 7.2h-1.53zm16.881 2.1v-3.12h.675c.17-.19.345-.53.525-1.02.19-.5.29-1.105.3-1.815l.09-4.395h5.25v7.23h1.065v3.12h-1.065V192h-5.775v2.1h-1.065zm1.95-3.12h3.705v-6.165h-2.94l-.06 3.345c-.01.75-.095 1.365-.255 1.845s-.31.805-.45.975zm6.881 1.125v-1.125h.3c.43 0 .745-.175.945-.525.2-.36.305-.955.315-1.785l.105-4.92h5.445V192h-1.2v-7.17h-3.075l-.09 3.885c-.01.78-.105 1.42-.285 1.92-.17.5-.43.87-.78 1.11-.34.24-.785.36-1.335.36h-.345zm9.505-.105l2.1-3.195c-.64-.14-1.135-.425-1.485-.855-.35-.43-.525-.97-.525-1.62 0-.8.265-1.43.795-1.89.54-.46 1.27-.69 2.19-.69h3.451V192h-1.201v-3.09h-1.995l-1.95 3.09h-1.38zm3.075-4.155h2.25v-3.03h-2.25c-.54 0-.97.135-1.29.405-.32.27-.48.64-.48 1.11 0 .47.16.84.48 1.11.32.27.75.405 1.29.405zm-79.85 24.305c-.64 0-1.2-.125-1.68-.375a2.75 2.75 0 01-1.125-1.065c-.26-.47-.39-1.025-.39-1.665v-2.34c0-.64.13-1.19.39-1.65.27-.47.645-.83 1.125-1.08.48-.25 1.04-.375 1.68-.375.94 0 1.695.255 2.265.765.57.51.865 1.205.885 2.085h-1.185c-.02-.57-.205-1.01-.555-1.32-.34-.31-.81-.465-1.41-.465-.61 0-1.095.18-1.455.54-.36.35-.54.85-.54 1.5v2.34c0 .64.18 1.14.54 1.5.36.36.845.54 1.455.54.6 0 1.07-.155 1.41-.465.35-.32.535-.76.555-1.32h1.185c-.02.88-.315 1.575-.885 2.085-.57.51-1.325.765-2.265.765zm8.261 0c-.87 0-1.555-.22-2.055-.66-.5-.45-.75-1.055-.75-1.815 0-.75.245-1.34.735-1.77.49-.44 1.15-.66 1.98-.66h2.625v-.87c0-.55-.16-.975-.48-1.275-.32-.3-.775-.45-1.365-.45-.52 0-.955.115-1.305.345-.34.23-.535.54-.585.93h-1.2c.1-.71.43-1.275.99-1.695.57-.42 1.28-.63 2.13-.63.92 0 1.65.25 2.19.75.54.49.81 1.155.81 1.995V212h-1.17v-1.605h-.195l.225-.24c0 .61-.235 1.095-.705 1.455-.47.36-1.095.54-1.875.54zm.285-.96c.66 0 1.2-.165 1.62-.495.42-.33.63-.76.63-1.29v-1.245h-2.61c-.47 0-.845.13-1.125.39s-.42.615-.42 1.065c0 .48.17.865.51 1.155.34.28.805.42 1.395.42zm5.98.81v-8.25h1.65l1.2 3.36c.1.29.195.585.285.885.09.3.155.535.195.705.05-.17.115-.405.195-.705.09-.3.185-.6.285-.9l1.155-3.345h1.635V212h-1.155v-1.98c0-.43.005-.89.015-1.38l.03-1.47c.01-.49.025-.95.045-1.38.02-.44.035-.825.045-1.155l-1.635 4.89h-1.26l-1.635-4.86c.02.4.035.905.045 1.515l.03 1.905c.02.67.03 1.315.03 1.935V212h-1.155zm12.221.135c-.64 0-1.195-.125-1.665-.375a2.65 2.65 0 01-1.095-1.08c-.26-.47-.39-1.025-.39-1.665v-2.28c0-.65.13-1.205.39-1.665.26-.47.625-.83 1.095-1.08.47-.25 1.025-.375 1.665-.375.64 0 1.195.125 1.665.375s.835.61 1.095 1.08c.26.46.39 1.01.39 1.65v2.295c0 .64-.13 1.195-.39 1.665s-.625.83-1.095 1.08c-.47.25-1.025.375-1.665.375zm0-1.065c.62 0 1.1-.175 1.44-.525.34-.35.51-.86.51-1.53v-2.28c0-.67-.175-1.18-.525-1.53-.34-.35-.815-.525-1.425-.525-.61 0-1.09.175-1.44.525-.34.35-.51.86-.51 1.53v2.28c0 .67.17 1.18.51 1.53.35.35.83.525 1.44.525zm8.935 1.08c-.64 0-1.2-.125-1.68-.375a2.75 2.75 0 01-1.125-1.065c-.26-.47-.39-1.025-.39-1.665v-2.34c0-.64.13-1.19.39-1.65.27-.47.645-.83 1.125-1.08.48-.25 1.04-.375 1.68-.375.94 0 1.695.255 2.265.765.57.51.865 1.205.885 2.085h-1.185c-.02-.57-.205-1.01-.555-1.32-.34-.31-.81-.465-1.41-.465-.61 0-1.095.18-1.455.54-.36.35-.54.85-.54 1.5v2.34c0 .64.18 1.14.54 1.5.36.36.845.54 1.455.54.6 0 1.07-.155 1.41-.465.35-.32.535-.76.555-1.32h1.185c-.02.88-.315 1.575-.885 2.085-.57.51-1.325.765-2.265.765zm8.306-.15v-7.185h-3v-1.065h7.2v1.065h-3V212h-1.2zm9.521.135c-.64 0-1.195-.125-1.665-.375a2.65 2.65 0 01-1.095-1.08c-.26-.47-.39-1.025-.39-1.665v-2.28c0-.65.13-1.205.39-1.665.26-.47.625-.83 1.095-1.08.47-.25 1.025-.375 1.665-.375.64 0 1.195.125 1.665.375s.835.61 1.095 1.08c.26.46.39 1.01.39 1.65v2.295c0 .64-.13 1.195-.39 1.665s-.625.83-1.095 1.08c-.47.25-1.025.375-1.665.375zm0-1.065c.62 0 1.1-.175 1.44-.525.34-.35.51-.86.51-1.53v-2.28c0-.67-.175-1.18-.525-1.53-.34-.35-.815-.525-1.425-.525-.61 0-1.09.175-1.44.525-.34.35-.51.86-.51 1.53v2.28c0 .67.17 1.18.51 1.53.35.35.83.525 1.44.525zm5.425.93l2.1-3.195c-.64-.14-1.135-.425-1.485-.855-.35-.43-.525-.97-.525-1.62 0-.8.265-1.43.795-1.89.54-.46 1.27-.69 2.19-.69h3.45V212h-1.2v-3.09h-1.995l-1.95 3.09h-1.38zm3.075-4.155h2.25v-3.03h-2.25c-.54 0-.97.135-1.29.405-.32.27-.48.64-.48 1.11 0 .47.16.84.48 1.11.32.27.75.405 1.29.405zm8.741 4.155v-7.185h-3v-1.065h7.2v1.065h-3V212h-1.2zm9.52.15c-.64 0-1.195-.125-1.665-.375a2.747 2.747 0 01-1.095-1.095c-.26-.47-.39-1.015-.39-1.635v-2.34c0-.63.13-1.175.39-1.635.26-.47.625-.83 1.095-1.08.47-.26 1.025-.39 1.665-.39.64 0 1.195.13 1.665.39.47.25.836.61 1.095 1.08.261.46.391 1.005.391 1.635v1.455h-5.131v.885c0 .67.17 1.19.51 1.56.35.36.84.54 1.47.54.53 0 .96-.105 1.29-.315.34-.21.555-.515.645-.915h1.185a2.394 2.394 0 01-1.005 1.635c-.56.4-1.265.6-2.115.6zm1.98-4.785v-.66c0-.67-.17-1.185-.509-1.545-.341-.37-.831-.555-1.471-.555-.63 0-1.12.185-1.47.555-.34.36-.51.875-.51 1.545v.525h4.08l-.12.135zm2.861 4.74v-1.125h.3c.43 0 .745-.175.945-.525.2-.36.305-.955.315-1.785l.105-4.92h5.445V212h-1.2v-7.17h-3.075l-.09 3.885c-.01.78-.105 1.42-.285 1.92-.17.5-.43.87-.78 1.11-.34.24-.785.36-1.335.36h-.345zm10.046-.105v-8.25h1.185v3.03h2.475c.92 0 1.645.235 2.175.705.54.46.81 1.095.81 1.905 0 .8-.27 1.435-.81 1.905-.53.47-1.255.705-2.175.705h-3.66zm1.185-1.08h2.475c.57 0 1.005-.13 1.305-.39.3-.27.45-.65.45-1.14 0-.49-.15-.865-.45-1.125-.3-.27-.735-.405-1.305-.405h-2.475v3.06zm7.66 1.08v-8.25h1.2v3.51h3.66v-3.51h1.2V212h-1.2v-3.66h-3.66V212h-1.2zm11.951.135c-.64 0-1.195-.125-1.665-.375a2.65 2.65 0 01-1.095-1.08c-.26-.47-.39-1.025-.39-1.665v-2.28c0-.65.13-1.205.39-1.665.26-.47.625-.83 1.095-1.08.47-.25 1.025-.375 1.665-.375.64 0 1.195.125 1.665.375s.835.61 1.095 1.08c.26.46.39 1.01.39 1.65v2.295c0 .64-.13 1.195-.39 1.665s-.625.83-1.095 1.08c-.47.25-1.025.375-1.665.375zm0-1.065c.62 0 1.1-.175 1.44-.525.34-.35.51-.86.51-1.53v-2.28c0-.67-.175-1.18-.525-1.53-.34-.35-.815-.525-1.425-.525-.61 0-1.09.175-1.44.525-.34.35-.51.86-.51 1.53v2.28c0 .67.17 1.18.51 1.53.35.35.83.525 1.44.525zm6.431.93v-8.25h5.85v1.08h-4.665V212h-1.185zm11.41.135c-.64 0-1.195-.125-1.665-.375a2.65 2.65 0 01-1.095-1.08c-.26-.47-.39-1.025-.39-1.665v-2.28c0-.65.13-1.205.39-1.665.26-.47.625-.83 1.095-1.08.47-.25 1.025-.375 1.665-.375.64 0 1.195.125 1.665.375s.835.61 1.095 1.08c.26.46.39 1.01.39 1.65v2.295c0 .64-.13 1.195-.39 1.665s-.625.83-1.095 1.08c-.47.25-1.025.375-1.665.375zm0-1.065c.62 0 1.1-.175 1.44-.525.34-.35.51-.86.51-1.53v-2.28c0-.67-.175-1.18-.525-1.53-.34-.35-.815-.525-1.425-.525-.61 0-1.09.175-1.44.525-.34.35-.51.86-.51 1.53v2.28c0 .67.17 1.18.51 1.53.35.35.83.525 1.44.525zM157.76 234.7l1.215-3.225-3.06-7.725h1.32l1.95 5.145c.08.2.155.425.225.675.08.24.14.44.18.6.05-.16.11-.365.18-.615.07-.25.14-.475.21-.675l1.83-5.13h1.275l-4.065 10.95h-1.26zm7.631-2.7v-8.25h6.06V232h-1.2v-7.17h-3.66V232h-1.2zm8.905 2.7v-10.95h1.185v1.455h.315l-.36.495c0-.65.21-1.16.63-1.53.43-.38.995-.57 1.695-.57.83 0 1.49.275 1.98.825.5.54.75 1.28.75 2.22v2.445c0 .63-.115 1.175-.345 1.635-.23.45-.55.8-.96 1.05-.4.25-.875.375-1.425.375-.69 0-1.25-.19-1.68-.57-.43-.38-.645-.89-.645-1.53l.315.495h-.285l.015 1.68v2.475h-1.185zm3.09-3.585c.6 0 1.065-.18 1.395-.54.34-.36.51-.87.51-1.53v-2.34c0-.67-.17-1.18-.51-1.53-.33-.36-.795-.54-1.395-.54-.58 0-1.045.185-1.395.555-.34.36-.51.865-.51 1.515v2.34c0 .65.17 1.16.51 1.53.35.36.815.54 1.395.54zm8.231 1.035c-.87 0-1.555-.22-2.055-.66-.5-.45-.75-1.055-.75-1.815 0-.75.245-1.34.735-1.77.49-.44 1.15-.66 1.98-.66h2.625v-.87c0-.55-.16-.975-.48-1.275-.32-.3-.775-.45-1.365-.45-.52 0-.955.115-1.305.345-.34.23-.535.54-.585.93h-1.2c.1-.71.43-1.275.99-1.695.57-.42 1.28-.63 2.13-.63.92 0 1.65.25 2.19.75.54.49.81 1.155.81 1.995V232h-1.17v-1.605h-.195l.225-.24c0 .61-.235 1.095-.705 1.455-.47.36-1.095.54-1.875.54zm.285-.96c.66 0 1.2-.165 1.62-.495.42-.33.63-.76.63-1.29v-1.245h-2.61c-.47 0-.845.13-1.125.39s-.42.615-.42 1.065c0 .48.17.865.51 1.155.34.28.805.42 1.395.42zm6.25.81v-8.25h3.54c.82 0 1.465.195 1.935.585.47.38.705.91.705 1.59 0 .57-.195 1.03-.585 1.38-.38.34-.89.51-1.53.51v-.105c.69 0 1.245.18 1.665.54.42.35.63.82.63 1.41 0 .73-.25 1.305-.75 1.725-.49.41-1.17.615-2.04.615h-3.57zm1.17-1.05h2.4c.49 0 .88-.115 1.17-.345.29-.24.435-.56.435-.96 0-.42-.145-.745-.435-.975-.29-.24-.68-.36-1.17-.36h-2.4v2.64zm0-3.675h2.37c.44 0 .79-.11 1.05-.33.27-.22.405-.52.405-.9s-.135-.68-.405-.9c-.26-.23-.61-.345-1.05-.345h-2.37v2.475zm6.701 4.83v-1.125h.3c.43 0 .745-.175.945-.525.2-.36.305-.955.315-1.785l.105-4.92h5.445V232h-1.2v-7.17h-3.075l-.09 3.885c-.01.78-.105 1.42-.285 1.92-.17.5-.43.87-.78 1.11-.34.24-.785.36-1.335.36h-.345zm13.001.045c-.64 0-1.195-.125-1.665-.375a2.747 2.747 0 01-1.095-1.095c-.26-.47-.39-1.015-.39-1.635v-2.34c0-.63.13-1.175.39-1.635.26-.47.625-.83 1.095-1.08.47-.26 1.025-.39 1.665-.39.64 0 1.195.13 1.665.39.47.25.835.61 1.095 1.08.26.46.39 1.005.39 1.635v1.455h-5.13v.885c0 .67.17 1.19.51 1.56.35.36.84.54 1.47.54.53 0 .96-.105 1.29-.315.34-.21.555-.515.645-.915h1.185a2.394 2.394 0 01-1.005 1.635c-.56.4-1.265.6-2.115.6zm1.98-4.785v-.66c0-.67-.17-1.185-.51-1.545-.34-.37-.83-.555-1.47-.555-.63 0-1.12.185-1.47.555-.34.36-.51.875-.51 1.545v.525h4.08l-.12.135zm3.91 4.635v-8.25h1.2v3.51h3.66v-3.51h1.2V232h-1.2v-3.66h-3.66V232h-1.2zm8.921 0v-8.25h1.155v4.695c0 .28-.01.58-.03.9a22.728 22.728 0 01-.105 1.59l3.495-7.185h1.545V232h-1.155v-4.695c0-.29.005-.59.015-.9.02-.31.04-.605.06-.885.03-.29.05-.53.06-.72l-3.51 7.2h-1.53zm8.455 0l2.1-3.195c-.64-.14-1.135-.425-1.485-.855-.35-.43-.525-.97-.525-1.62 0-.8.265-1.43.795-1.89.54-.46 1.27-.69 2.19-.69h3.451V232h-1.201v-3.09h-1.995l-1.95 3.09h-1.38zm3.075-4.155h2.25v-3.03h-2.25c-.54 0-.97.135-1.29.405-.32.27-.48.64-.48 1.11 0 .47.16.84.48 1.11.32.27.75.405 1.29.405zm18.262 4.305c-.96 0-1.715-.285-2.265-.855-.55-.57-.825-1.355-.825-2.355v-3.84c0-1.3.325-2.3.975-3 .65-.7 1.58-1.05 2.79-1.05h2.04v1.185h-2.04c-.84 0-1.48.25-1.92.75-.44.49-.66 1.195-.66 2.115v1.035h.21l-.21.36c.01-.6.21-1.07.6-1.41.4-.34.945-.51 1.635-.51.88 0 1.56.28 2.04.84.48.55.72 1.32.72 2.31v1.215c0 .67-.125 1.245-.375 1.725-.24.48-.59.85-1.05 1.11-.46.25-1.015.375-1.665.375zm0-1.065c.61 0 1.08-.185 1.41-.555.33-.37.495-.9.495-1.59v-1.215c0-.68-.165-1.21-.495-1.59-.33-.38-.8-.57-1.41-.57-.61 0-1.08.19-1.41.57-.33.38-.495.91-.495 1.59v1.215c0 .69.165 1.22.495 1.59.34.37.81.555 1.41.555zm8.92 1.05c-.64 0-1.195-.125-1.665-.375a2.65 2.65 0 01-1.095-1.08c-.26-.47-.39-1.025-.39-1.665v-2.28c0-.65.13-1.205.39-1.665.26-.47.625-.83 1.095-1.08.47-.25 1.025-.375 1.665-.375.64 0 1.195.125 1.665.375s.835.61 1.095 1.08c.26.46.39 1.01.39 1.65v2.295c0 .64-.13 1.195-.39 1.665s-.625.83-1.095 1.08c-.47.25-1.025.375-1.665.375zm0-1.065c.62 0 1.1-.175 1.44-.525.34-.35.51-.86.51-1.53v-2.28c0-.67-.175-1.18-.525-1.53-.34-.35-.815-.525-1.425-.525-.61 0-1.09.175-1.44.525-.34.35-.51.86-.51 1.53v2.28c0 .67.17 1.18.51 1.53.35.35.83.525 1.44.525zm8.321.93v-7.185h-3v-1.065h7.2v1.065h-3V232h-1.2zm9.521.135c-.64 0-1.195-.125-1.665-.375a2.65 2.65 0 01-1.095-1.08c-.26-.47-.39-1.025-.39-1.665v-2.28c0-.65.13-1.205.39-1.665.26-.47.625-.83 1.095-1.08.47-.25 1.025-.375 1.665-.375.64 0 1.195.125 1.665.375s.835.61 1.095 1.08c.26.46.39 1.01.39 1.65v2.295c0 .64-.13 1.195-.39 1.665s-.625.83-1.095 1.08c-.47.25-1.025.375-1.665.375zm0-1.065c.62 0 1.1-.175 1.44-.525.34-.35.51-.86.51-1.53v-2.28c0-.67-.175-1.18-.525-1.53-.34-.35-.815-.525-1.425-.525-.61 0-1.09.175-1.44.525-.34.35-.51.86-.51 1.53v2.28c0 .67.17 1.18.51 1.53.35.35.83.525 1.44.525zm5.62.93v-8.25h1.65l1.2 3.36c.1.29.195.585.285.885.09.3.155.535.195.705.05-.17.115-.405.195-.705.09-.3.185-.6.285-.9l1.155-3.345h1.635V232h-1.155v-1.98c0-.43.005-.89.015-1.38l.03-1.47c.01-.49.025-.95.045-1.38.02-.44.035-.825.045-1.155l-1.635 4.89h-1.26l-1.635-4.86c.02.4.035.905.045 1.515l.03 1.905c.02.67.03 1.315.03 1.935V232h-1.155z" fill="#000"/></svg>