<svg width="159" height="336" fill="none" xmlns="http://www.w3.org/2000/svg"><rect x=".355" y=".355" width="158.29" height="335.29" rx="16.508" fill="url(#paint0_linear_506_5)" fill-opacity=".53" stroke="url(#paint1_linear_506_5)" stroke-width=".71"/><g filter="url(#filter0_d_506_5)"><path stroke="#CCEC60" stroke-width=".843" d="M17.706 63.657h110.451"/></g><mask id="a" style="mask-type:alpha" maskUnits="userSpaceOnUse" x="21" y="5" width="125" height="59"><rect x="21.922" y="5.059" width="123.941" height="58.176" rx="9.275" fill="#D9D9D9"/></mask><g mask="url(#a)"><path d="M52.365 75.73c-3.529 0-6.61-.684-9.243-2.053-2.58-1.422-4.581-3.397-6.003-5.925-1.422-2.58-2.133-5.582-2.133-9.005V33.47c0-3.475.711-6.477 2.133-9.005 1.422-2.528 3.423-4.476 6.003-5.845 2.633-1.422 5.714-2.133 9.243-2.133 3.58 0 6.661.71 9.242 2.133 2.58 1.369 4.581 3.317 6.003 5.845 1.422 2.528 2.133 5.53 2.133 9.005v25.278c0 3.423-.71 6.425-2.133 9.005-1.422 2.528-3.45 4.503-6.082 5.925-2.58 1.37-5.635 2.054-9.163 2.054zm0-6.082c3.16 0 5.687-1 7.583-3.001 1.948-2.054 2.923-4.687 2.923-7.9V33.47c0-3.212-.975-5.819-2.923-7.82-1.896-2.054-4.424-3.08-7.583-3.08-3.16 0-5.714 1.026-7.663 3.08-1.896 2.001-2.843 4.608-2.843 7.82v25.278c0 3.213.947 5.846 2.843 7.9 1.949 2 4.503 3.001 7.663 3.001zm0-18.879c-1.422 0-2.58-.448-3.476-1.343-.843-.895-1.264-2.08-1.264-3.555 0-1.422.421-2.554 1.264-3.396.895-.896 2.054-1.343 3.476-1.343 1.421 0 2.554.447 3.396 1.343.896.842 1.343 1.974 1.343 3.396 0 1.475-.447 2.66-1.343 3.555-.842.895-1.975 1.343-3.396 1.343zm30.934 24.172v-7.267l17.616-18.722c3.001-3.212 5.187-6.056 6.556-8.531 1.369-2.528 2.054-4.95 2.054-7.267 0-3.213-.895-5.74-2.686-7.584-1.738-1.843-4.134-2.765-7.188-2.765-3.37 0-6.03.948-7.979 2.844-1.895 1.896-2.843 4.503-2.843 7.82h-7.11c.106-3.475.896-6.477 2.37-9.005 1.527-2.58 3.607-4.555 6.24-5.924 2.686-1.37 5.793-2.054 9.322-2.054 3.475 0 6.477.684 9.005 2.054 2.58 1.316 4.555 3.212 5.924 5.687 1.37 2.475 2.054 5.424 2.054 8.848 0 3.264-.869 6.503-2.607 9.716-1.737 3.212-4.581 6.872-8.531 10.98L91.277 68.463h26.305v6.478H83.299z" fill="#CCEC60"/></g><path d="M19.045 84v-8.03h4.895v1.54h-3.245V84h-1.65zm8.07.11c-.609 0-1.093-.165-1.452-.495-.352-.33-.528-.777-.528-1.342 0-.609.209-1.074.627-1.397.425-.33 1.034-.495 1.826-.495h1.254v-.451a.69.69 0 00-.253-.561c-.162-.14-.382-.209-.66-.209-.257 0-.47.059-.638.176a.721.721 0 00-.308.484h-1.595c.066-.609.33-1.089.792-1.441.469-.36 1.07-.539 1.804-.539.77 0 1.378.19 1.826.572.454.374.682.88.682 1.518V84h-1.595v-.99h-.264l.275-.385c0 .455-.165.818-.495 1.089-.323.264-.756.396-1.298.396zm.616-1.21c.322 0 .586-.084.792-.253a.844.844 0 00.319-.682v-.649H27.62c-.25 0-.451.073-.605.22a.72.72 0 00-.231.561c0 .25.084.447.253.594.168.14.4.209.693.209zm4.186 1.1v-6.05h1.452v2.75c0 .183-.01.414-.033.693a16.59 16.59 0 01-.088.825c-.029.279-.062.524-.099.737l1.914-5.005h2.002V84h-1.452v-2.75c0-.19.011-.407.033-.649.022-.25.048-.499.077-.748.03-.25.06-.462.088-.638L33.92 84h-2.002zm2.618-6.985c-.6 0-1.092-.15-1.474-.451a1.48 1.48 0 01-.56-1.199h1.264c0 .205.07.374.21.506a.836.836 0 00.56.187c.235 0 .422-.062.561-.187.14-.132.21-.3.21-.506h1.264c0 .491-.187.891-.56 1.199-.375.3-.866.451-1.475.451zm3.494 8.525v-2.937h.341c.125-.125.253-.341.385-.649.14-.315.213-.697.22-1.144l.055-2.86h4.455v4.653h.66v2.937h-1.54V84H39.57v1.54h-1.54zm1.98-2.937h1.936v-3.234h-1.397l-.033 1.43c-.007.425-.07.8-.187 1.122-.11.315-.216.543-.319.682zM44.823 84v-6.05h1.375v1.925h.33c.653 0 1.173.19 1.562.572.388.381.583.891.583 1.529 0 .609-.198 1.1-.594 1.474-.389.367-.906.55-1.551.55h-1.705zm1.375-1.265h.33c.264 0 .465-.066.605-.198.146-.132.22-.323.22-.572 0-.264-.074-.466-.22-.605-.14-.147-.341-.22-.605-.22h-.33v1.595zM49.168 84v-6.05h1.375V84h-1.375zm9.132 0v-6.05h1.452v2.75c0 .183-.01.414-.033.693a16.59 16.59 0 01-.088.825c-.03.279-.062.524-.099.737l1.914-5.005h2.002V84h-1.452v-2.75c0-.19.011-.407.033-.649.022-.25.048-.499.077-.748.03-.25.059-.462.088-.638L60.302 84H58.3zm14.94 0v-4.51h-1.98v-1.54h5.61v1.54h-1.98V84h-1.65zm6.64.11c-.608 0-1.092-.165-1.452-.495-.352-.33-.528-.777-.528-1.342 0-.609.21-1.074.627-1.397.426-.33 1.034-.495 1.826-.495h1.254v-.451a.69.69 0 00-.253-.561c-.161-.14-.381-.209-.66-.209-.256 0-.469.059-.638.176a.722.722 0 00-.308.484h-1.595c.066-.609.33-1.089.792-1.441.47-.36 1.071-.539 1.804-.539.77 0 1.379.19 1.826.572.455.374.682.88.682 1.518V84h-1.595v-.99h-.264l.275-.385c0 .455-.165.818-.495 1.089-.322.264-.755.396-1.298.396zm.616-1.21c.323 0 .587-.084.792-.253a.844.844 0 00.32-.682v-.649h-1.222c-.249 0-.45.073-.605.22a.72.72 0 00-.23.561c0 .25.084.447.252.594.169.14.4.209.693.209zm6.761 1.21c-.807-.015-1.448-.235-1.925-.66-.477-.433-.715-1.02-.715-1.76v-2.695c0-.968.271-1.712.814-2.233.543-.528 1.316-.792 2.321-.792h1.815v1.595h-1.815c-.484 0-.854.121-1.111.363-.25.242-.374.598-.374 1.067v.77h.154l-.132.154c-.007-.41.125-.737.396-.979.279-.25.675-.374 1.188-.374.638 0 1.133.209 1.485.627.36.418.539.997.539 1.738v.759c0 .491-.11.924-.33 1.298a2.128 2.128 0 01-.913.847c-.389.19-.854.282-1.397.275zm0-1.43c.323 0 .568-.084.737-.253.169-.176.253-.422.253-.737v-.759c0-.323-.084-.568-.253-.737-.169-.169-.414-.253-.737-.253-.315 0-.561.084-.737.253-.169.169-.253.414-.253.737v.759c0 .315.084.561.253.737.176.169.422.253.737.253zm3.527 1.397v-1.485h.33c.19 0 .348-.08.473-.242.124-.161.19-.374.198-.638l.066-3.762h4.576V84h-1.65v-4.51h-1.31l-.043 2.332a2.5 2.5 0 01-.297 1.188 2 2 0 01-.77.792c-.323.183-.7.275-1.133.275h-.44zm7.09-.077v-6.05h1.452v2.75c0 .183-.01.414-.033.693a16.59 16.59 0 01-.088.825c-.029.279-.062.524-.099.737l1.914-5.005h2.002V84h-1.452v-2.75c0-.19.011-.407.033-.649.022-.25.048-.499.077-.748.03-.25.059-.462.088-.638L99.876 84h-2.002zm10.688 1.54V84h-4.092v-6.05h1.65v4.51h1.507v-4.51h1.65v4.51h.825v3.08h-1.54zM110.78 84v-6.05h1.375v1.925h.33c.653 0 1.173.19 1.562.572.389.381.583.891.583 1.529 0 .609-.198 1.1-.594 1.474-.389.367-.906.55-1.551.55h-1.705zm1.375-1.265h.33c.264 0 .466-.066.605-.198.147-.132.22-.323.22-.572 0-.264-.073-.466-.22-.605-.139-.147-.341-.22-.605-.22h-.33v1.595zm2.97 1.265v-6.05h1.375V84h-1.375zm5.111-4.18c-.33 0-.598-.092-.803-.275a.93.93 0 01-.297-.715c0-.3.099-.539.297-.715.205-.183.473-.275.803-.275.33 0 .594.092.792.275.205.176.308.414.308.715a.915.915 0 01-.308.715c-.198.183-.462.275-.792.275zm0 4.29c-.33 0-.598-.092-.803-.275a.93.93 0 01-.297-.715c0-.3.099-.539.297-.715.205-.183.473-.275.803-.275.33 0 .594.092.792.275.205.176.308.414.308.715a.915.915 0 01-.308.715c-.198.183-.462.275-.792.275zm-98.936 15c-.711 0-1.276-.209-1.694-.627-.41-.425-.616-1.005-.616-1.738v-2.75c0-.968.242-1.712.726-2.233.484-.528 1.177-.792 2.079-.792h1.54v.99h-1.54c-.594 0-1.045.176-1.353.528-.308.345-.462.847-.462 1.507v.715h.154l-.154.22c.007-.433.154-.77.44-1.012.286-.242.675-.363 1.166-.363.638 0 1.133.205 1.485.616.36.41.539.975.539 1.694v.88c0 .491-.092.913-.275 1.265a1.927 1.927 0 01-.792.814c-.345.19-.759.286-1.243.286zm0-.88c.425 0 .752-.128.979-.385.227-.257.341-.623.341-1.1v-.88c0-.477-.114-.843-.341-1.1-.227-.257-.554-.385-.979-.385-.425 0-.752.128-.979.385-.227.25-.341.616-.341 1.1v.88c0 .477.114.843.341 1.1.227.257.554.385.979.385zm3.57.847v-.924h.199c.337 0 .572-.132.704-.396.139-.264.212-.737.22-1.419l.066-3.388h4.103V99h-.99v-5.148h-2.134l-.055 2.53c-.015.638-.088 1.155-.22 1.551-.125.396-.323.686-.594.869-.264.183-.613.275-1.045.275h-.253zm9.093.033c-.638 0-1.14-.161-1.507-.484-.366-.33-.55-.774-.55-1.331 0-.565.184-1.008.55-1.331.367-.323.862-.484 1.485-.484h1.87v-.605c0-.374-.113-.66-.34-.858-.22-.205-.536-.308-.947-.308-.359 0-.66.077-.902.231a.825.825 0 00-.418.605h-.99c.066-.52.312-.935.737-1.243.426-.308.957-.462 1.595-.462.697 0 1.247.18 1.65.539.404.36.605.847.605 1.463V99h-.968v-1.155h-.165l.165-.165c0 .44-.172.788-.517 1.045-.337.257-.788.385-1.353.385zm.242-.781c.47 0 .855-.117 1.155-.352.301-.235.451-.535.451-.902v-.858h-1.848c-.33 0-.59.092-.78.275-.191.183-.287.433-.287.748 0 .337.114.605.341.803.235.19.558.286.968.286zm5.012.671v-6.05h4.345v.902h-3.355V99h-.99zm8.466.088c-.484 0-.902-.092-1.254-.275a1.996 1.996 0 01-.825-.792c-.19-.352-.286-.766-.286-1.243v-1.606c0-.484.095-.898.286-1.243.198-.345.473-.609.825-.792.352-.183.77-.275 1.254-.275s.902.092 1.254.275c.352.183.623.447.814.792.198.345.297.755.297 1.232v1.617c0 .477-.1.891-.297 1.243a1.92 1.92 0 01-.814.792c-.352.183-.77.275-1.254.275zm0-.88c.432 0 .77-.121 1.012-.363s.363-.598.363-1.067v-1.606c0-.47-.121-.825-.363-1.067s-.58-.363-1.012-.363c-.425 0-.763.121-1.012.363-.242.242-.363.598-.363 1.067v1.606c0 .47.12.825.363 1.067.25.242.587.363 1.012.363zm3.626 2.332v-2.387h.495c.124-.125.252-.37.384-.737.14-.367.213-.832.22-1.397l.066-3.069h3.95v5.203h.77v2.387h-.88V99h-4.126v1.54h-.88zm1.54-2.387h2.585V93.83H53.41l-.044 2.211c-.008.58-.07 1.049-.188 1.408-.117.36-.227.594-.33.704zm7.497.957c-.638 0-1.14-.161-1.507-.484-.366-.33-.55-.774-.55-1.331 0-.565.184-1.008.55-1.331.367-.323.862-.484 1.485-.484h1.87v-.605c0-.374-.113-.66-.34-.858-.22-.205-.536-.308-.947-.308-.36 0-.66.077-.902.231-.242.147-.381.348-.418.605h-.99c.066-.52.312-.935.737-1.243.426-.308.957-.462 1.595-.462.697 0 1.247.18 1.65.539.404.36.605.847.605 1.463V99h-.968v-1.155h-.165l.165-.165c0 .44-.172.788-.517 1.045-.337.257-.788.385-1.353.385zm.242-.781c.47 0 .855-.117 1.155-.352.3-.235.451-.535.451-.902v-.858h-1.848c-.33 0-.59.092-.78.275-.191.183-.287.433-.287.748 0 .337.114.605.341.803.235.19.558.286.968.286zm4.594 2.651v-8.03h.99v1.155h.198l-.198.231c0-.462.15-.825.45-1.089.309-.271.712-.407 1.21-.407.61 0 1.094.202 1.453.605.367.396.55.942.55 1.639v1.771c0 .462-.084.862-.253 1.199a1.798 1.798 0 01-.693.781c-.293.183-.645.275-1.056.275-.491 0-.891-.136-1.2-.407-.307-.271-.461-.634-.461-1.089l.198.231h-.22l.022 1.375v1.76h-.99zm2.32-2.728c.419 0 .745-.125.98-.374.242-.25.363-.609.363-1.078v-1.65c0-.47-.121-.829-.363-1.078-.235-.25-.561-.374-.98-.374-.402 0-.725.128-.967.385s-.363.612-.363 1.067v1.65c0 .455.12.81.363 1.067.242.257.565.385.968.385zm3.924.748l1.55-2.332c-.461-.11-.82-.323-1.077-.638-.25-.315-.374-.708-.374-1.177 0-.594.194-1.06.583-1.397.396-.337.935-.506 1.617-.506h2.607V99h-.99v-2.255H74.01L72.58 99h-1.155zm2.299-3.135h1.617V93.83h-1.617c-.367 0-.657.092-.87.275-.212.176-.318.425-.318.748 0 .315.106.565.319.748.212.176.502.264.869.264zm13.532 3.245c-.711 0-1.276-.209-1.694-.627-.41-.425-.616-1.005-.616-1.738v-2.75c0-.968.242-1.712.726-2.233.484-.528 1.177-.792 2.079-.792h1.54v.99h-1.54c-.594 0-1.045.176-1.353.528-.308.345-.462.847-.462 1.507v.715h.154l-.154.22c.007-.433.154-.77.44-1.012.286-.242.675-.363 1.166-.363.638 0 1.133.205 1.485.616.36.41.539.975.539 1.694v.88c0 .491-.092.913-.275 1.265a1.927 1.927 0 01-.792.814c-.345.19-.759.286-1.243.286zm0-.88c.425 0 .752-.128.979-.385.227-.257.341-.623.341-1.1v-.88c0-.477-.114-.843-.341-1.1-.227-.257-.554-.385-.979-.385-.425 0-.752.128-.979.385-.227.25-.341.616-.341 1.1v.88c0 .477.114.843.341 1.1.227.257.554.385.979.385zm6.596.858c-.484 0-.902-.092-1.254-.275a1.996 1.996 0 01-.825-.792c-.19-.352-.286-.766-.286-1.243v-1.606c0-.484.095-.898.286-1.243.198-.345.473-.609.825-.792.352-.183.77-.275 1.254-.275s.902.092 1.254.275c.352.183.623.447.814.792.198.345.297.755.297 1.232v1.617c0 .477-.1.891-.297 1.243a1.92 1.92 0 01-.814.792c-.352.183-.77.275-1.254.275zm0-.88c.432 0 .77-.121 1.012-.363s.363-.598.363-1.067v-1.606c0-.47-.121-.825-.363-1.067s-.58-.363-1.012-.363c-.426 0-.763.121-1.012.363-.242.242-.363.598-.363 1.067v1.606c0 .47.12.825.363 1.067.25.242.586.363 1.012.363zm3.57.869v-.924h.198c.338 0 .572-.132.704-.396.14-.264.213-.737.22-1.419l.066-3.388h4.103V99h-.99v-5.148H99.59l-.055 2.53c-.014.638-.088 1.155-.22 1.551-.124.396-.322.686-.594.869-.264.183-.612.275-1.045.275h-.253zm7.399-.077v-6.05h.99v2.222h1.782c.682 0 1.217.172 1.606.517.396.337.594.803.594 1.397 0 .587-.198 1.052-.594 1.397-.396.345-.931.517-1.606.517h-2.772zm.99-.902h1.782c.381 0 .671-.084.869-.253.205-.176.308-.429.308-.759s-.103-.58-.308-.748c-.198-.176-.488-.264-.869-.264h-1.782v2.024zm5.254.902l-.022-6.05h.924v5.302h1.287V92.95h.792v5.302h1.276V92.95h.913V99h-5.17zm9.17.088c-.484 0-.902-.092-1.254-.275a1.996 1.996 0 01-.825-.792c-.191-.352-.286-.766-.286-1.243v-1.606c0-.484.095-.898.286-1.243.198-.345.473-.609.825-.792.352-.183.77-.275 1.254-.275s.902.092 1.254.275c.352.183.623.447.814.792.198.345.297.755.297 1.232v1.617c0 .477-.099.891-.297 1.243a1.929 1.929 0 01-.814.792c-.352.183-.77.275-1.254.275zm0-.88c.432 0 .77-.121 1.012-.363s.363-.598.363-1.067v-1.606c0-.47-.121-.825-.363-1.067s-.58-.363-1.012-.363c-.426 0-.763.121-1.012.363-.242.242-.363.598-.363 1.067v1.606c0 .47.121.825.363 1.067.249.242.586.363 1.012.363zm4.131.792v-6.05h1.342l.792 2.321c.081.235.154.47.22.704.066.227.114.403.143.528.03-.125.074-.3.132-.528a39.6 39.6 0 01.209-.715l.748-2.31h1.342V99h-.957v-.935c0-.33.004-.69.011-1.078l.022-1.177.044-1.122c.015-.36.026-.675.033-.946l-1.078 3.443h-1.045l-1.089-3.421c.015.33.026.74.033 1.232.015.491.026 1.005.033 1.54.015.535.022 1.045.022 1.529V99h-.957zm7.718 1.98l.891-2.354-2.244-5.676h1.1l1.408 3.74c.051.125.099.275.143.451l.11.429.11-.429a5.08 5.08 0 01.132-.451l1.32-3.74h1.067l-2.981 8.03h-1.056zM19.067 114v-6.05h.99v2.497h1.034l1.76-2.497h1.133l-2.035 2.882L24.017 114h-1.155l-1.76-2.695h-1.045V114h-.99zm8.829.088c-.484 0-.902-.092-1.254-.275a1.992 1.992 0 01-.825-.792c-.191-.352-.286-.766-.286-1.243v-1.606c0-.484.095-.898.286-1.243.198-.345.473-.609.825-.792.352-.183.77-.275 1.254-.275s.902.092 1.254.275c.352.183.623.447.814.792.198.345.297.755.297 1.232v1.617c0 .477-.1.891-.297 1.243a1.925 1.925 0 01-.814.792c-.352.183-.77.275-1.254.275zm0-.88c.432 0 .77-.121 1.012-.363s.363-.598.363-1.067v-1.606c0-.469-.121-.825-.363-1.067s-.58-.363-1.012-.363c-.426 0-.763.121-1.012.363-.242.242-.363.598-.363 1.067v1.606c0 .469.12.825.363 1.067.249.242.586.363 1.012.363zm3.57.869v-.924h.198c.338 0 .572-.132.704-.396.14-.264.213-.737.22-1.419l.066-3.388h4.103V114h-.99v-5.148h-2.134l-.055 2.53c-.014.638-.088 1.155-.22 1.551-.124.396-.322.686-.594.869-.264.183-.612.275-1.045.275h-.253zm7.355-.077v-6.05h.946v3.3c0 .213-.007.436-.022.671a9.355 9.355 0 01-.044.671 7.036 7.036 0 01-.055.528l2.442-5.17h1.265V114h-.946v-3.3c0-.213.004-.436.011-.671.015-.235.033-.458.055-.671l.055-.539L40.086 114h-1.265zm10.072 0v-2.2a4.81 4.81 0 01-.54.088 8.028 8.028 0 01-.747.033c-.748.007-1.331-.172-1.75-.539-.41-.374-.615-.895-.615-1.562v-1.87h.99v1.87c0 .374.124.671.374.891.257.213.609.319 1.056.319.308 0 .568-.011.78-.033.22-.029.371-.055.452-.077v-2.97h.99V114h-.99zm5.386.11c-.477 0-.895-.095-1.255-.286a2.07 2.07 0 01-.825-.803 2.523 2.523 0 01-.285-1.221v-1.65c0-.469.095-.876.285-1.221a2.07 2.07 0 01.826-.803c.359-.191.777-.286 1.254-.286.476 0 .89.095 1.242.286.36.191.635.458.825.803.199.345.298.752.298 1.221v1.067h-3.762v.583c0 .477.12.843.363 1.1.242.249.586.374 1.034.374.38 0 .689-.066.923-.198a.874.874 0 00.43-.616h.99c-.066.506-.316.909-.748 1.21-.426.293-.958.44-1.596.44zm1.396-3.553v-.407c0-.477-.12-.843-.362-1.1-.235-.257-.58-.385-1.035-.385-.447 0-.791.128-1.033.385-.242.257-.363.623-.363 1.1v.319h2.87l-.077.088zm5.221 3.553c-.484 0-.91-.092-1.276-.275a1.977 1.977 0 01-.836-.792c-.198-.352-.297-.766-.297-1.243v-1.65c0-.484.1-.898.297-1.243.198-.345.477-.609.836-.792.367-.183.792-.275 1.276-.275.697 0 1.258.187 1.683.561.426.374.65.884.671 1.529h-.99c-.022-.389-.154-.686-.396-.891-.234-.213-.557-.319-.968-.319-.432 0-.777.125-1.034.374-.256.242-.385.59-.385 1.045v1.661c0 .455.129.807.385 1.056.257.249.602.374 1.034.374.41 0 .734-.106.968-.319.242-.213.374-.51.396-.891h.99c-.022.645-.245 1.155-.67 1.529-.426.374-.987.561-1.684.561zm6.079-.11v-5.181h-2.2v-.869h5.39v.869h-2.2V114h-.99zm4.825 0v-6.05h2.618c.63 0 1.118.143 1.463.429.344.279.517.671.517 1.177 0 .418-.143.755-.43 1.012-.285.249-.663.374-1.132.374v-.088c.513 0 .924.128 1.232.385.315.257.473.601.473 1.034 0 .543-.184.968-.55 1.276-.367.301-.88.451-1.54.451H71.8zm.968-.869h1.683c.352 0 .623-.077.814-.231.198-.154.297-.37.297-.649 0-.286-.1-.506-.297-.66-.191-.154-.462-.231-.814-.231h-1.683v1.771zm0-2.629h1.65c.308 0 .55-.073.726-.22.183-.147.275-.352.275-.616s-.088-.469-.264-.616c-.176-.154-.422-.231-.737-.231h-1.65v1.683zm6.551 5.478l.891-2.354-2.244-5.676h1.1l1.408 3.74c.052.125.1.275.143.451l.11.429.11-.429a5.11 5.11 0 01.132-.451l1.32-3.74h1.067l-2.98 8.03h-1.057zm-59.361 15l.891-2.354-2.244-5.676h1.1l1.408 3.74c.051.125.099.275.143.451l.11.429.11-.429a5.11 5.11 0 01.132-.451l1.32-3.74h1.067l-2.981 8.03h-1.056zm7.96-1.87c-.484 0-.91-.092-1.276-.275a1.977 1.977 0 01-.836-.792c-.198-.352-.297-.766-.297-1.243v-1.65c0-.484.099-.898.297-1.243.198-.345.476-.609.836-.792.366-.183.792-.275 1.276-.275.696 0 1.257.187 1.683.561.425.374.649.884.67 1.529h-.99c-.021-.389-.153-.686-.395-.891-.235-.213-.558-.319-.968-.319-.433 0-.778.125-1.034.374-.257.242-.385.59-.385 1.045v1.661c0 .455.128.807.385 1.056.256.249.601.374 1.034.374.41 0 .733-.106.968-.319.242-.213.374-.51.396-.891h.99c-.022.645-.246 1.155-.671 1.529-.426.374-.987.561-1.683.561zm4.307-.11v-6.05h4.532V129h-.99v-5.148h-2.552V129h-.99zm8.862.11c-.477 0-.895-.095-1.254-.286a2.07 2.07 0 01-.825-.803 2.523 2.523 0 01-.286-1.221v-1.65c0-.469.095-.876.286-1.221a2.07 2.07 0 01.825-.803c.36-.191.777-.286 1.254-.286s.891.095 1.243.286c.36.191.634.458.825.803.198.345.297.752.297 1.221v1.067H39.69v.583c0 .477.121.843.363 1.1.242.249.587.374 1.034.374.381 0 .69-.066.924-.198a.874.874 0 00.43-.616h.99a1.69 1.69 0 01-.749 1.21c-.425.293-.957.44-1.595.44zm1.397-3.553v-.407c0-.477-.12-.843-.363-1.1-.235-.257-.58-.385-1.034-.385-.447 0-.792.128-1.034.385s-.363.623-.363 1.1v.319h2.871l-.077.088zM45.11 129l-.022-6.05h.924v5.302h1.287v-5.302h.792v5.302h1.276v-5.302h.913V129h-5.17zm6.904 0v-6.05h.99v2.519h2.551v-2.519h.99V129h-.99v-2.629h-2.552V129h-.99zm6.276 0v-6.05h.924v2.222h.495c.653 0 1.166.172 1.54.517.382.337.572.803.572 1.397s-.19 1.063-.572 1.408c-.374.337-.887.506-1.54.506H58.29zm.924-.792h.495c.389 0 .69-.099.902-.297.22-.198.33-.473.33-.825s-.11-.627-.33-.825c-.212-.198-.513-.297-.902-.297h-.495v2.244zm3.322.792v-6.05h.924V129h-.924zm2.185 0l2.145-3.113-2.013-2.937h1.166l1.199 1.87c.051.081.099.169.143.264.051.095.092.172.12.231.023-.059.056-.136.1-.231.051-.095.103-.183.154-.264l1.21-1.87H70.1l-2.013 2.948L70.22 129h-1.166l-1.298-1.98a3.101 3.101 0 01-.154-.275 2.376 2.376 0 00-.121-.264 4.31 4.31 0 01-.132.264 1.942 1.942 0 01-.165.275l-1.31 1.98H64.72zm13.708 0v-6.05h.99v2.497h1.034l1.76-2.497h1.133l-2.035 2.882L83.378 129h-1.155l-1.76-2.695h-1.045V129h-.99zm8.829.11c-.477 0-.895-.095-1.254-.286a2.07 2.07 0 01-.825-.803 2.524 2.524 0 01-.286-1.221v-1.65c0-.469.095-.876.286-1.221a2.07 2.07 0 01.825-.803c.36-.191.777-.286 1.254-.286s.891.095 1.243.286c.36.191.634.458.825.803.198.345.297.752.297 1.221v1.067H85.86v.583c0 .477.121.843.363 1.1.242.249.587.374 1.034.374.381 0 .69-.066.924-.198a.874.874 0 00.429-.616h.99a1.685 1.685 0 01-.748 1.21c-.425.293-.957.44-1.595.44zm1.397-3.553v-.407c0-.477-.121-.843-.363-1.1-.235-.257-.58-.385-1.034-.385-.447 0-.792.128-1.034.385s-.363.623-.363 1.1v.319h2.871l-.077.088zM91.587 129v-6.05h.946v3.3c0 .213-.008.436-.022.671a9.355 9.355 0 01-.044.671 6.983 6.983 0 01-.055.528l2.442-5.17h1.265V129h-.946v-3.3c0-.213.003-.436.01-.671.015-.235.034-.458.056-.671l.055-.539L92.852 129h-1.265zm2.31-7.04c-.528 0-.954-.147-1.276-.44-.323-.293-.484-.678-.484-1.155h.78c0 .286.089.517.265.693.176.176.41.264.704.264.3 0 .539-.088.715-.264.183-.176.275-.407.275-.693h.78c0 .477-.16.862-.483 1.155-.323.293-.748.44-1.276.44zm6.573 7.15c-.484 0-.909-.092-1.276-.275a1.977 1.977 0 01-.836-.792c-.198-.352-.297-.766-.297-1.243v-1.65c0-.484.1-.898.297-1.243.198-.345.477-.609.836-.792.367-.183.792-.275 1.276-.275.697 0 1.258.187 1.683.561.426.374.649.884.671 1.529h-.99c-.022-.389-.154-.686-.396-.891-.234-.213-.557-.319-.968-.319-.432 0-.777.125-1.034.374-.256.242-.385.59-.385 1.045v1.661c0 .455.129.807.385 1.056.257.249.602.374 1.034.374.411 0 .734-.106.968-.319.242-.213.374-.51.396-.891h.99c-.022.645-.245 1.155-.671 1.529-.425.374-.986.561-1.683.561zm6.574-.022c-.484 0-.902-.092-1.254-.275a1.992 1.992 0 01-.825-.792c-.191-.352-.286-.766-.286-1.243v-1.606c0-.484.095-.898.286-1.243.198-.345.473-.609.825-.792.352-.183.77-.275 1.254-.275s.902.092 1.254.275c.352.183.623.447.814.792.198.345.297.755.297 1.232v1.617c0 .477-.099.891-.297 1.243a1.925 1.925 0 01-.814.792c-.352.183-.77.275-1.254.275zm0-.88c.433 0 .77-.121 1.012-.363s.363-.598.363-1.067v-1.606c0-.469-.121-.825-.363-1.067s-.579-.363-1.012-.363c-.425 0-.763.121-1.012.363-.242.242-.363.598-.363 1.067v1.606c0 .469.121.825.363 1.067.249.242.587.363 1.012.363zm4.33.792v-6.05h2.618c.631 0 1.118.143 1.463.429.345.279.517.671.517 1.177 0 .418-.143.755-.429 1.012-.286.249-.664.374-1.133.374v-.088c.513 0 .924.128 1.232.385.315.257.473.601.473 1.034 0 .543-.183.968-.55 1.276-.367.301-.88.451-1.54.451h-2.651zm.968-.869h1.683c.352 0 .623-.077.814-.231.198-.154.297-.37.297-.649 0-.286-.099-.506-.297-.66-.191-.154-.462-.231-.814-.231h-1.683v1.771zm0-2.629h1.65c.308 0 .55-.073.726-.22.183-.147.275-.352.275-.616s-.088-.469-.264-.616c-.176-.154-.422-.231-.737-.231h-1.65v1.683zM124.191 129l1.551-2.332c-.462-.11-.821-.323-1.078-.638-.249-.315-.374-.708-.374-1.177 0-.594.195-1.06.583-1.397.396-.337.935-.506 1.617-.506h2.607V129h-.99v-2.255h-1.331l-1.43 2.255h-1.155zm2.299-3.135h1.617v-2.035h-1.617c-.366 0-.656.092-.869.275-.212.176-.319.425-.319.748 0 .315.107.565.319.748.213.176.503.264.869.264zM21.322 144.11c-.484 0-.91-.092-1.276-.275a1.977 1.977 0 01-.836-.792c-.198-.352-.297-.766-.297-1.243v-1.65c0-.484.099-.898.297-1.243.198-.345.477-.609.836-.792.367-.183.792-.275 1.276-.275.697 0 1.258.187 1.683.561.425.374.649.884.671 1.529h-.99c-.022-.389-.154-.686-.396-.891-.235-.213-.557-.319-.968-.319-.433 0-.777.125-1.034.374-.257.242-.385.59-.385 1.045v1.661c0 .455.128.807.385 1.056s.601.374 1.034.374c.41 0 .733-.106.968-.319.242-.213.374-.51.396-.891h.99c-.022.645-.246 1.155-.671 1.529-.425.374-.986.561-1.683.561zm6.574-.022c-.484 0-.902-.092-1.254-.275a1.992 1.992 0 01-.825-.792c-.191-.352-.286-.766-.286-1.243v-1.606c0-.484.095-.898.286-1.243.198-.345.473-.609.825-.792.352-.183.77-.275 1.254-.275s.902.092 1.254.275c.352.183.623.447.814.792.198.345.297.755.297 1.232v1.617c0 .477-.1.891-.297 1.243a1.925 1.925 0 01-.814.792c-.352.183-.77.275-1.254.275zm0-.88c.432 0 .77-.121 1.012-.363s.363-.598.363-1.067v-1.606c0-.469-.121-.825-.363-1.067s-.58-.363-1.012-.363c-.426 0-.763.121-1.012.363-.242.242-.363.598-.363 1.067v1.606c0 .469.12.825.363 1.067.249.242.586.363 1.012.363zm6.595.902c-.71 0-1.276-.209-1.694-.627-.41-.425-.616-1.005-.616-1.738v-2.75c0-.968.242-1.712.726-2.233.484-.528 1.177-.792 2.08-.792h1.54v.99h-1.54c-.595 0-1.046.176-1.354.528-.308.345-.462.847-.462 1.507v.715h.154l-.154.22c.008-.433.154-.77.44-1.012.286-.242.675-.363 1.166-.363.638 0 1.133.205 1.485.616.36.411.54.975.54 1.694v.88c0 .491-.092.913-.276 1.265a1.929 1.929 0 01-.792.814c-.344.191-.759.286-1.243.286zm0-.88c.426 0 .752-.128.98-.385.227-.257.34-.623.34-1.1v-.88c0-.477-.113-.843-.34-1.1-.228-.257-.554-.385-.98-.385-.425 0-.751.128-.979.385-.227.249-.34.616-.34 1.1v.88c0 .477.113.843.34 1.1.228.257.554.385.98.385zm4.308 2.75v-8.03h.99v1.155h.198l-.198.231c0-.462.15-.825.451-1.089.308-.271.711-.407 1.21-.407.609 0 1.093.202 1.452.605.367.396.55.942.55 1.639v1.771c0 .462-.084.862-.253 1.199a1.798 1.798 0 01-.693.781c-.293.183-.645.275-1.056.275-.491 0-.89-.136-1.199-.407-.308-.271-.462-.634-.462-1.089l.198.231h-.22l.022 1.375v1.76h-.99zm2.321-2.728c.418 0 .744-.125.98-.374.241-.249.362-.609.362-1.078v-1.65c0-.469-.12-.829-.363-1.078-.235-.249-.56-.374-.979-.374-.403 0-.726.128-.968.385s-.363.612-.363 1.067v1.65c0 .455.121.81.363 1.067.242.257.565.385.968.385zm6.035.858c-.638 0-1.14-.161-1.507-.484-.367-.33-.55-.774-.55-1.331 0-.565.183-1.008.55-1.331.366-.323.861-.484 1.485-.484h1.87v-.605c0-.374-.114-.66-.341-.858-.22-.205-.535-.308-.946-.308-.36 0-.66.077-.902.231-.242.147-.382.348-.418.605h-.99c.066-.521.312-.935.737-1.243.425-.308.957-.462 1.595-.462.697 0 1.246.18 1.65.539.403.359.605.847.605 1.463V144h-.968v-1.155h-.165l.165-.165c0 .44-.172.788-.517 1.045-.338.257-.789.385-1.353.385zm.242-.781c.47 0 .854-.117 1.155-.352.3-.235.45-.535.45-.902v-.858h-1.847c-.33 0-.59.092-.781.275-.19.183-.286.433-.286.748 0 .337.114.605.34.803.236.191.558.286.969.286zm3.857.748v-.924h.198c.337 0 .572-.132.704-.396.139-.264.212-.737.22-1.419l.066-3.388h4.102V144h-.99v-5.148H53.42l-.055 2.53c-.014.638-.087 1.155-.22 1.551-.124.396-.322.686-.594.869-.264.183-.612.275-1.044.275h-.253zm14.874 1.903l.89-2.354-2.243-5.676h1.1l1.408 3.74c.051.125.099.275.143.451l.11.429.11-.429a5.11 5.11 0 01.132-.451l1.32-3.74h1.067l-2.981 8.03h-1.056zM71.8 144v-6.05h2.618c.63 0 1.118.143 1.463.429.344.279.517.671.517 1.177 0 .418-.143.755-.43 1.012-.285.249-.663.374-1.132.374v-.088c.513 0 .924.128 1.232.385.315.257.473.601.473 1.034 0 .543-.184.968-.55 1.276-.367.301-.88.451-1.54.451H71.8zm.968-.869h1.683c.352 0 .623-.077.814-.231.198-.154.297-.37.297-.649 0-.286-.1-.506-.297-.66-.191-.154-.462-.231-.814-.231h-1.683v1.771zm0-2.629h1.65c.308 0 .55-.073.726-.22.183-.147.275-.352.275-.616s-.088-.469-.264-.616c-.176-.154-.422-.231-.737-.231h-1.65v1.683zm7.893 3.608c-.476 0-.894-.095-1.254-.286a2.07 2.07 0 01-.825-.803 2.524 2.524 0 01-.286-1.221v-1.65c0-.469.096-.876.286-1.221a2.07 2.07 0 01.825-.803c.36-.191.778-.286 1.254-.286.477 0 .891.095 1.243.286.36.191.635.458.825.803.198.345.297.752.297 1.221v1.067h-3.762v.583c0 .477.121.843.363 1.1.242.249.587.374 1.034.374.382 0 .69-.066.924-.198a.874.874 0 00.43-.616h.99a1.69 1.69 0 01-.749 1.21c-.425.293-.957.44-1.595.44zm1.397-3.553v-.407c0-.477-.12-.843-.363-1.1-.234-.257-.579-.385-1.034-.385-.447 0-.792.128-1.034.385s-.363.623-.363 1.1v.319h2.871l-.077.088zm5.221 3.553c-.484 0-.91-.092-1.276-.275a1.977 1.977 0 01-.836-.792c-.198-.352-.297-.766-.297-1.243v-1.65c0-.484.099-.898.297-1.243.198-.345.477-.609.836-.792.367-.183.792-.275 1.276-.275.697 0 1.258.187 1.683.561.425.374.649.884.671 1.529h-.99c-.022-.389-.154-.686-.396-.891-.235-.213-.557-.319-.968-.319-.433 0-.777.125-1.034.374-.257.242-.385.59-.385 1.045v1.661c0 .455.128.807.385 1.056s.601.374 1.034.374c.41 0 .733-.106.968-.319.242-.213.374-.51.396-.891h.99c-.022.645-.246 1.155-.671 1.529-.425.374-.986.561-1.683.561zm4.308-.11v-6.05h.946v3.3c0 .213-.008.436-.022.671a9.355 9.355 0 01-.044.671 6.983 6.983 0 01-.055.528l2.442-5.17h1.265V144h-.946v-3.3c0-.213.003-.436.01-.671.015-.235.034-.458.056-.671l.055-.539L92.852 144h-1.265zm8.883.11c-.484 0-.909-.092-1.276-.275a1.977 1.977 0 01-.836-.792c-.198-.352-.297-.766-.297-1.243v-1.65c0-.484.1-.898.297-1.243.198-.345.477-.609.836-.792.367-.183.792-.275 1.276-.275.697 0 1.258.187 1.683.561.426.374.649.884.671 1.529h-.99c-.022-.389-.154-.686-.396-.891-.234-.213-.557-.319-.968-.319-.432 0-.777.125-1.034.374-.256.242-.385.59-.385 1.045v1.661c0 .455.129.807.385 1.056.257.249.602.374 1.034.374.411 0 .734-.106.968-.319.242-.213.374-.51.396-.891h.99c-.022.645-.245 1.155-.671 1.529-.425.374-.986.561-1.683.561zm6.079-.11v-5.181h-2.2v-.869h5.39v.869h-2.2V144h-.99zm5.749 1.98l.891-2.354-2.244-5.676h1.1l1.408 3.74c.051.125.099.275.143.451l.11.429.11-.429a5.11 5.11 0 01.132-.451l1.32-3.74h1.067l-2.981 8.03h-1.056zm8.884-1.87c-.506 0-.913-.172-1.221-.517-.308-.345-.462-.796-.462-1.353v-.913h-.968V144h-.913v-6.05h.913v2.585h.968v-.825c0-.565.15-1.016.451-1.353.308-.345.718-.517 1.232-.517.542 0 .979.172 1.309.517.33.337.495.788.495 1.353v2.53c0 .557-.165 1.008-.495 1.353-.33.345-.767.517-1.309.517zm0-.77c.278 0 .495-.095.649-.286.161-.198.242-.469.242-.814v-2.53c0-.345-.081-.612-.242-.803-.154-.198-.371-.297-.649-.297a.763.763 0 00-.638.297c-.154.191-.231.458-.231.803v2.53c0 .345.077.616.231.814.154.191.366.286.638.286zM19.034 159v-6.05h4.532V159h-.99v-5.148h-2.552V159h-.99zm8.334.11c-.638 0-1.14-.161-1.507-.484-.367-.33-.55-.774-.55-1.331 0-.565.183-1.008.55-1.331.366-.323.861-.484 1.485-.484h1.87v-.605c0-.374-.114-.66-.341-.858-.22-.205-.536-.308-.946-.308-.36 0-.66.077-.902.231-.242.147-.382.348-.418.605h-.99c.066-.521.311-.935.737-1.243.425-.308.957-.462 1.595-.462.696 0 1.246.18 1.65.539.403.359.605.847.605 1.463V159h-.968v-1.155h-.165l.165-.165c0 .44-.173.788-.517 1.045-.338.257-.789.385-1.353.385zm.242-.781c.469 0 .854-.117 1.155-.352.3-.235.45-.535.45-.902v-.858h-1.847c-.33 0-.59.092-.781.275-.191.183-.286.433-.286.748 0 .337.113.605.34.803.235.191.558.286.969.286zm4.615.671v-6.05h4.532V159h-.99v-5.148h-2.552V159h-.99zm6.63 0v-6.05h.99v2.497h1.033l1.76-2.497h1.133l-2.035 2.882L43.804 159H42.65l-1.76-2.695h-1.045V159h-.99zm7.486 1.98l.89-2.354-2.243-5.676h1.1l1.408 3.74c.051.125.099.275.143.451l.11.429.11-.429a5.11 5.11 0 01.132-.451l1.32-3.74h1.067l-2.981 8.03H46.34zM58.608 159v-6.05h.946v3.3c0 .213-.007.436-.022.671a9.355 9.355 0 01-.044.671 6.983 6.983 0 01-.055.528l2.442-5.17h1.265V159h-.946v-3.3c0-.213.004-.436.011-.671.015-.235.033-.458.055-.671l.055-.539L59.873 159h-1.265zm5.892 1.54v-2.387h.495c.125-.125.253-.37.385-.737.14-.367.213-.832.22-1.397l.066-3.069h3.949v5.203h.77v2.387h-.88V159H65.38v1.54h-.88zm1.54-2.387h2.585v-4.323H66.6l-.044 2.211c-.007.579-.07 1.049-.187 1.408-.117.359-.227.594-.33.704zm8.026.957c-.477 0-.895-.095-1.254-.286a2.07 2.07 0 01-.825-.803 2.524 2.524 0 01-.286-1.221v-1.65c0-.469.095-.876.286-1.221a2.07 2.07 0 01.825-.803c.359-.191.777-.286 1.254-.286.476 0 .89.095 1.243.286.359.191.634.458.825.803.198.345.297.752.297 1.221v1.067h-3.762v.583c0 .477.12.843.363 1.1.242.249.586.374 1.034.374.381 0 .689-.066.924-.198a.874.874 0 00.429-.616h.99c-.066.506-.316.909-.748 1.21-.426.293-.957.44-1.595.44zm1.397-3.553v-.407c0-.477-.121-.843-.363-1.1-.235-.257-.58-.385-1.034-.385-.448 0-.792.128-1.034.385s-.363.623-.363 1.1v.319h2.87l-.076.088zM78.395 159v-6.05h.946v3.3c0 .213-.007.436-.022.671a9.355 9.355 0 01-.044.671 6.983 6.983 0 01-.055.528l2.442-5.17h1.265V159h-.946v-3.3c0-.213.004-.436.011-.671.015-.235.033-.458.055-.671l.055-.539L79.66 159h-1.265zm2.31-7.04c-.528 0-.953-.147-1.276-.44-.322-.293-.484-.678-.484-1.155h.781c0 .286.088.517.264.693.176.176.411.264.704.264.301 0 .54-.088.715-.264.184-.176.275-.407.275-.693h.781c0 .477-.161.862-.484 1.155-.322.293-.748.44-1.276.44zM19.034 174v-6.05h.946v3.3c0 .213-.007.436-.022.671a9.355 9.355 0 01-.044.671 7.036 7.036 0 01-.055.528l2.442-5.17h1.265V174h-.946v-3.3c0-.213.004-.436.011-.671.015-.235.033-.458.055-.671l.055-.539L20.299 174h-1.265zm13.191 0v-6.05h2.618c.631 0 1.119.143 1.463.429.345.279.517.671.517 1.177 0 .418-.143.755-.429 1.012-.286.249-.663.374-1.133.374v-.088c.514 0 .924.128 1.232.385.316.257.473.601.473 1.034 0 .543-.183.968-.55 1.276-.366.301-.88.451-1.54.451h-2.65zm.968-.869h1.683c.352 0 .624-.077.814-.231.198-.154.297-.37.297-.649 0-.286-.099-.506-.297-.66-.19-.154-.462-.231-.814-.231h-1.683v1.771zm0-2.629h1.65c.308 0 .55-.073.726-.22.184-.147.275-.352.275-.616s-.088-.469-.264-.616c-.176-.154-.421-.231-.737-.231h-1.65v1.683zm7.916 3.608c-.484 0-.91-.092-1.276-.275a1.977 1.977 0 01-.836-.792c-.198-.352-.297-.766-.297-1.243v-1.65c0-.484.1-.898.297-1.243.198-.345.477-.609.836-.792.367-.183.792-.275 1.276-.275.697 0 1.258.187 1.683.561.425.374.65.884.671 1.529h-.99c-.022-.389-.154-.686-.396-.891-.235-.213-.557-.319-.968-.319-.433 0-.777.125-1.034.374-.257.242-.385.59-.385 1.045v1.661c0 .455.128.807.385 1.056s.601.374 1.034.374c.41 0 .733-.106.968-.319.242-.213.374-.51.396-.891h.99c-.022.645-.246 1.155-.67 1.529-.426.374-.987.561-1.684.561zm4.308-.11v-6.05h4.532V174h-.99v-5.148h-2.552V174h-.99zm8.861.088c-.483 0-.901-.092-1.253-.275a1.992 1.992 0 01-.825-.792c-.191-.352-.287-.766-.287-1.243v-1.606c0-.484.096-.898.287-1.243a1.98 1.98 0 01.825-.792c.352-.183.77-.275 1.254-.275.483 0 .901.092 1.253.275.353.183.624.447.815.792.197.345.297.755.297 1.232v1.617c0 .477-.1.891-.297 1.243a1.922 1.922 0 01-.815.792c-.351.183-.77.275-1.253.275zm0-.88c.433 0 .77-.121 1.013-.363.242-.242.363-.598.363-1.067v-1.606c0-.469-.122-.825-.364-1.067s-.579-.363-1.011-.363c-.426 0-.763.121-1.013.363-.241.242-.362.598-.362 1.067v1.606c0 .469.12.825.362 1.067.25.242.587.363 1.013.363zm4.132.792v-6.05h1.342l.792 2.321c.08.235.154.469.22.704.066.227.114.403.143.528.03-.125.074-.301.132-.528.066-.235.136-.473.21-.715l.747-2.31h1.342V174h-.957v-.935c0-.33.004-.689.011-1.078l.022-1.177.044-1.122c.015-.359.026-.675.033-.946l-1.078 3.443h-1.045l-1.089-3.421c.015.33.026.741.033 1.232.015.491.026 1.005.033 1.54.015.535.022 1.045.022 1.529V174h-.957zm9.06.088c-.484 0-.902-.092-1.254-.275a1.992 1.992 0 01-.825-.792c-.19-.352-.286-.766-.286-1.243v-1.606c0-.484.095-.898.286-1.243.198-.345.473-.609.825-.792.352-.183.77-.275 1.254-.275s.902.092 1.254.275c.352.183.623.447.814.792.198.345.297.755.297 1.232v1.617c0 .477-.1.891-.297 1.243a1.92 1.92 0 01-.814.792c-.352.183-.77.275-1.254.275zm0-.88c.433 0 .77-.121 1.012-.363s.363-.598.363-1.067v-1.606c0-.469-.121-.825-.363-1.067s-.58-.363-1.012-.363c-.425 0-.763.121-1.012.363-.242.242-.363.598-.363 1.067v1.606c0 .469.12.825.363 1.067.25.242.587.363 1.012.363zm4.726.792v-6.05h4.345v.902h-3.355V174h-.99zm7.937.11c-.638 0-1.14-.161-1.507-.484-.366-.33-.55-.774-.55-1.331 0-.565.184-1.008.55-1.331.367-.323.862-.484 1.485-.484h1.87v-.605c0-.374-.113-.66-.34-.858-.22-.205-.536-.308-.947-.308-.359 0-.66.077-.902.231-.242.147-.381.348-.418.605h-.99c.066-.521.312-.935.737-1.243.426-.308.957-.462 1.595-.462.697 0 1.247.18 1.65.539.404.359.605.847.605 1.463V174h-.968v-1.155h-.165l.165-.165c0 .44-.172.788-.517 1.045-.337.257-.788.385-1.353.385zm.242-.781c.47 0 .855-.117 1.155-.352.301-.235.451-.535.451-.902v-.858h-1.848c-.33 0-.59.092-.78.275-.191.183-.287.433-.287.748 0 .337.114.605.341.803.235.191.558.286.968.286zm6.387.671v-5.181h-2.2v-.869h5.39v.869h-2.2V174h-.99zm7.09.11c-.476 0-.894-.095-1.253-.286a2.07 2.07 0 01-.825-.803 2.524 2.524 0 01-.286-1.221v-1.65c0-.469.095-.876.286-1.221a2.07 2.07 0 01.825-.803c.36-.191.777-.286 1.254-.286.476 0 .89.095 1.243.286.36.191.634.458.825.803.198.345.297.752.297 1.221v1.067h-3.762v.583c0 .477.12.843.363 1.1.242.249.586.374 1.034.374.381 0 .69-.066.924-.198a.874.874 0 00.429-.616h.99c-.066.506-.316.909-.748 1.21-.426.293-.957.44-1.595.44zm1.398-3.553v-.407c0-.477-.121-.843-.363-1.1-.235-.257-.58-.385-1.034-.385-.448 0-.792.128-1.034.385s-.363.623-.363 1.1v.319h2.87l-.076.088zm2.173 3.52v-.924h.198c.338 0 .572-.132.704-.396.14-.264.213-.737.22-1.419l.066-3.388h4.103V174h-.99v-5.148H99.59l-.055 2.53c-.014.638-.088 1.155-.22 1.551-.124.396-.322.686-.594.869-.264.183-.612.275-1.045.275h-.253zm7.399-.077v-6.05h.99v2.222h1.782c.682 0 1.217.172 1.606.517.396.337.594.803.594 1.397 0 .587-.198 1.052-.594 1.397-.396.345-.931.517-1.606.517h-2.772zm.99-.902h1.782c.381 0 .671-.084.869-.253.205-.176.308-.429.308-.759s-.103-.579-.308-.748c-.198-.176-.488-.264-.869-.264h-1.782v2.024zm5.562.902v-6.05h.99v2.519h2.552v-2.519h.99V174h-.99v-2.629h-2.552V174h-.99zm6.277 0v-6.05h.924v2.222h.495c.652 0 1.166.172 1.54.517.381.337.572.803.572 1.397s-.191 1.063-.572 1.408c-.374.337-.888.506-1.54.506h-1.419zm.924-.792h.495c.388 0 .689-.099.902-.297.22-.198.33-.473.33-.825s-.11-.627-.33-.825c-.213-.198-.514-.297-.902-.297h-.495v2.244zm3.322.792v-6.05h.924V174h-.924zm2.184 0l2.145-3.113-2.013-2.937h1.166l1.199 1.87c.052.081.099.169.143.264.052.095.092.172.121.231.022-.059.055-.136.099-.231.052-.095.103-.183.154-.264l1.21-1.87h1.155l-2.013 2.948 2.134 3.102h-1.166l-1.298-1.98a3.347 3.347 0 01-.154-.275 2.322 2.322 0 00-.121-.264 3.987 3.987 0 01-.132.264 1.887 1.887 0 01-.165.275l-1.309 1.98h-1.155zM19.034 189v-6.05h.946v3.3c0 .213-.007.436-.022.671a9.355 9.355 0 01-.044.671 7.036 7.036 0 01-.055.528l2.442-5.17h1.265V189h-.946v-3.3c0-.213.004-.436.011-.671.015-.235.033-.458.055-.671l.055-.539L20.299 189h-1.265zm6.596 0v-6.05h.99v2.519h2.552v-2.519h.99V189h-.99v-2.629H26.62V189h-.99zm8.883.11c-.484 0-.909-.092-1.276-.275a1.977 1.977 0 01-.836-.792c-.198-.352-.297-.766-.297-1.243v-1.65c0-.484.1-.898.297-1.243.198-.345.477-.609.836-.792.367-.183.792-.275 1.276-.275.697 0 1.258.187 1.683.561.426.374.65.884.671 1.529h-.99c-.022-.389-.154-.686-.396-.891-.234-.213-.557-.319-.968-.319-.432 0-.777.125-1.034.374-.256.242-.385.59-.385 1.045v1.661c0 .455.129.807.385 1.056.257.249.602.374 1.034.374.411 0 .734-.106.968-.319.242-.213.374-.51.396-.891h.99c-.022.645-.245 1.155-.67 1.529-.426.374-.987.561-1.684.561zm6.08-.11v-5.181h-2.2v-.869h5.39v.869h-2.2V189h-.99zm4.802 1.98v-8.03h.99v1.155h.198l-.198.231c0-.462.15-.825.45-1.089.309-.271.712-.407 1.21-.407.61 0 1.093.202 1.453.605.367.396.55.942.55 1.639v1.771c0 .462-.084.862-.253 1.199a1.798 1.798 0 01-.693.781c-.293.183-.645.275-1.056.275-.492 0-.891-.136-1.2-.407-.307-.271-.461-.634-.461-1.089l.198.231h-.22l.022 1.375v1.76h-.99zm2.32-2.728c.419 0 .745-.125.98-.374.242-.249.363-.609.363-1.078v-1.65c0-.469-.121-.829-.363-1.078-.235-.249-.561-.374-.98-.374-.403 0-.725.128-.967.385s-.363.612-.363 1.067v1.65c0 .455.12.81.363 1.067.242.257.565.385.968.385zm5.221 2.728l.892-2.354-2.245-5.676h1.1l1.409 3.74c.05.125.099.275.142.451l.11.429.11-.429a5.11 5.11 0 01.133-.451l1.32-3.74h1.067l-2.981 8.03h-1.056zM58.41 189v-6.05h1.342l.792 2.321c.08.235.154.469.22.704.066.227.114.403.143.528.03-.125.074-.301.132-.528.066-.235.136-.473.21-.715l.747-2.31h1.342V189h-.957v-.935c0-.33.004-.689.011-1.078l.022-1.177.044-1.122c.015-.359.026-.675.033-.946l-1.078 3.443h-1.045l-1.089-3.421c.015.33.026.741.033 1.232.015.491.026 1.005.033 1.54.015.535.022 1.045.022 1.529V189h-.957zm9.06.11c-.477 0-.895-.095-1.254-.286a2.07 2.07 0 01-.825-.803 2.524 2.524 0 01-.286-1.221v-1.65c0-.469.095-.876.286-1.221a2.07 2.07 0 01.825-.803c.36-.191.777-.286 1.254-.286s.89.095 1.243.286c.36.191.634.458.825.803.198.345.297.752.297 1.221v1.067h-3.762v.583c0 .477.12.843.363 1.1.242.249.587.374 1.034.374.381 0 .69-.066.924-.198a.874.874 0 00.429-.616h.99a1.685 1.685 0 01-.748 1.21c-.425.293-.957.44-1.595.44zm1.397-3.553v-.407c0-.477-.121-.843-.363-1.1-.235-.257-.58-.385-1.034-.385-.447 0-.792.128-1.034.385s-.363.623-.363 1.1v.319h2.87l-.076.088zM71.8 189v-6.05h.99v2.519h2.552v-2.519h.99V189h-.99v-2.629H72.79V189h-.99zm8.366 0v-5.181h-2.2v-.869h5.39v.869h-2.2V189h-.99zm7.091.088c-.484 0-.902-.092-1.254-.275a1.992 1.992 0 01-.825-.792c-.19-.352-.286-.766-.286-1.243v-1.606c0-.484.095-.898.286-1.243.198-.345.473-.609.825-.792.352-.183.77-.275 1.254-.275s.902.092 1.254.275c.352.183.623.447.814.792.198.345.297.755.297 1.232v1.617c0 .477-.099.891-.297 1.243a1.92 1.92 0 01-.814.792c-.352.183-.77.275-1.254.275zm0-.88c.433 0 .77-.121 1.012-.363s.363-.598.363-1.067v-1.606c0-.469-.121-.825-.363-1.067s-.58-.363-1.012-.363c-.425 0-.763.121-1.012.363-.242.242-.363.598-.363 1.067v1.606c0 .469.121.825.363 1.067.25.242.587.363 1.012.363zm4.33.792v-6.05h2.618c.63 0 1.118.143 1.463.429.344.279.517.671.517 1.177 0 .418-.143.755-.43 1.012-.285.249-.663.374-1.132.374v-.088c.513 0 .924.128 1.232.385.315.257.473.601.473 1.034 0 .543-.184.968-.55 1.276-.367.301-.88.451-1.54.451h-2.651zm.968-.869h1.683c.352 0 .623-.077.814-.231.198-.154.297-.37.297-.649 0-.286-.1-.506-.297-.66-.19-.154-.462-.231-.814-.231h-1.683v1.771zm0-2.629h1.65c.308 0 .55-.073.726-.22.183-.147.275-.352.275-.616s-.088-.469-.264-.616c-.176-.154-.422-.231-.737-.231h-1.65v1.683zm6.408 5.258l.88-3.421h1.43l-1.43 3.421h-.88zM20.805 204v-5.181h-2.2v-.869h5.39v.869h-2.2V204h-.99zm6.563.11c-.638 0-1.14-.161-1.507-.484-.367-.33-.55-.774-.55-1.331 0-.565.183-1.008.55-1.331.366-.323.861-.484 1.485-.484h1.87v-.605c0-.374-.114-.66-.341-.858-.22-.205-.536-.308-.946-.308-.36 0-.66.077-.902.231-.242.147-.382.348-.418.605h-.99c.066-.521.311-.935.737-1.243.425-.308.957-.462 1.595-.462.696 0 1.246.18 1.65.539.403.359.605.847.605 1.463V204h-.968v-1.155h-.165l.165-.165c0 .44-.173.788-.517 1.045-.338.257-.789.385-1.353.385zm.242-.781c.469 0 .854-.117 1.155-.352.3-.235.45-.535.45-.902v-.858h-1.847c-.33 0-.59.092-.781.275-.191.183-.286.433-.286.748 0 .337.113.605.34.803.235.191.558.286.969.286zm4.648.671v-6.05h.99v2.497h1.034l1.76-2.497h1.133l-2.035 2.882L37.208 204h-1.155l-1.76-2.695h-1.045V204h-.99zm6.563 0v-6.05h.946v3.3c0 .213-.007.436-.022.671a9.355 9.355 0 01-.044.671 7.036 7.036 0 01-.055.528l2.442-5.17h1.265V204h-.946v-3.3c0-.213.004-.436.011-.671.015-.235.033-.458.055-.671l.055-.539L40.086 204h-1.265zm6.112 0l2.145-3.113-2.013-2.937h1.166l1.199 1.87c.051.081.099.169.143.264.051.095.091.172.12.231.023-.059.056-.136.1-.231a3.93 3.93 0 01.154-.264l1.21-1.87h1.155l-2.013 2.948L50.433 204h-1.166l-1.298-1.98a3.076 3.076 0 01-.154-.275 2.376 2.376 0 00-.121-.264 4.31 4.31 0 01-.132.264 1.942 1.942 0 01-.165.275l-1.31 1.98h-1.154zm13.708 0v-6.05h.99v2.497h1.034l1.76-2.497h1.133l-2.035 2.882L63.591 204h-1.155l-1.76-2.695h-1.045V204h-.99zm8.3.11c-.637 0-1.14-.161-1.506-.484-.367-.33-.55-.774-.55-1.331 0-.565.183-1.008.55-1.331.367-.323.862-.484 1.485-.484h1.87v-.605c0-.374-.114-.66-.341-.858-.22-.205-.535-.308-.946-.308-.36 0-.66.077-.902.231-.242.147-.381.348-.418.605h-.99c.066-.521.312-.935.737-1.243.425-.308.957-.462 1.595-.462.697 0 1.247.18 1.65.539.403.359.605.847.605 1.463V204h-.968v-1.155h-.165l.165-.165c0 .44-.172.788-.517 1.045-.337.257-.788.385-1.353.385zm.243-.781c.47 0 .854-.117 1.155-.352.3-.235.45-.535.45-.902v-.858h-1.847c-.33 0-.59.092-.781.275-.19.183-.286.433-.286.748 0 .337.114.605.34.803.236.191.558.286.969.286zm4.649.671v-6.05h.99v2.497h1.034l1.76-2.497h1.133l-2.035 2.882L76.783 204h-1.155l-1.76-2.695h-1.045V204h-.99zm7.343 1.76l.88-3.421h1.43l-1.43 3.421h-.88zm-57.854 13.35c-.484 0-.91-.092-1.276-.275a1.977 1.977 0 01-.836-.792c-.198-.352-.297-.766-.297-1.243v-1.65c0-.484.099-.898.297-1.243.198-.345.477-.609.836-.792.367-.183.792-.275 1.276-.275.697 0 1.258.187 1.683.561.425.374.649.884.671 1.529h-.99c-.022-.389-.154-.686-.396-.891-.235-.213-.557-.319-.968-.319-.433 0-.777.125-1.034.374-.257.242-.385.59-.385 1.045v1.661c0 .455.128.807.385 1.056s.601.374 1.034.374c.41 0 .733-.106.968-.319.242-.213.374-.51.396-.891h.99c-.022.645-.246 1.155-.671 1.529-.425.374-.986.561-1.683.561zm4.34-.11v-6.05h.99v2.497h1.035l1.76-2.497h1.133l-2.035 2.882L30.613 219h-1.155l-1.76-2.695h-1.045V219h-.99zm6.541 1.98v-8.03h.99v1.155h.198l-.198.231c0-.462.15-.825.451-1.089.308-.271.712-.407 1.21-.407.61 0 1.093.202 1.452.605.367.396.55.942.55 1.639v1.771c0 .462-.084.862-.253 1.199a1.798 1.798 0 01-.693.781c-.293.183-.645.275-1.056.275-.49 0-.89-.136-1.199-.407-.308-.271-.462-.634-.462-1.089l.198.231h-.22l.022 1.375v1.76h-.99zm2.321-2.728c.418 0 .745-.125.98-.374.241-.249.362-.609.362-1.078v-1.65c0-.469-.12-.829-.363-1.078-.234-.249-.56-.374-.979-.374-.403 0-.726.128-.968.385s-.363.612-.363 1.067v1.65c0 .455.121.81.363 1.067.242.257.565.385.968.385zm4.297.748v-6.05h.946v3.3c0 .213-.007.436-.022.671a9.355 9.355 0 01-.044.671 7.036 7.036 0 01-.055.528l2.442-5.17h1.265V219h-.946v-3.3c0-.213.004-.436.011-.671.015-.235.033-.458.055-.671l.055-.539L40.086 219h-1.265zm6.596 0v-6.05h4.532V219h-.99v-5.148h-2.552V219h-.99zm8.366 0v-5.181h-2.2v-.869h5.39v.869h-2.2V219h-.99zm4.506 0v-6.05h.924v2.222h.495c.653 0 1.166.172 1.54.517.382.337.572.803.572 1.397s-.19 1.063-.572 1.408c-.374.337-.887.506-1.54.506H58.29zm.924-.792h.495c.389 0 .69-.099.902-.297.22-.198.33-.473.33-.825s-.11-.627-.33-.825c-.212-.198-.513-.297-.902-.297h-.495v2.244zm3.322.792v-6.05h.924V219h-.924zm3.45 1.76l.88-3.421h1.43l-1.43 3.421h-.88zM78.087 219l-.022-6.05h.924v5.302h1.287v-5.302h.792v5.302h1.276v-5.302h.913V219h-5.17zm8.642.11c-.638 0-1.14-.161-1.507-.484-.367-.33-.55-.774-.55-1.331 0-.565.183-1.008.55-1.331.367-.323.862-.484 1.485-.484h1.87v-.605c0-.374-.114-.66-.341-.858-.22-.205-.535-.308-.946-.308-.36 0-.66.077-.902.231-.242.147-.381.348-.418.605h-.99c.066-.521.312-.935.737-1.243.425-.308.957-.462 1.595-.462.697 0 1.247.18 1.65.539.403.359.605.847.605 1.463V219h-.968v-1.155h-.165l.165-.165c0 .44-.172.788-.517 1.045-.337.257-.788.385-1.353.385zm.242-.781c.47 0 .854-.117 1.155-.352.3-.235.451-.535.451-.902v-.858h-1.848c-.33 0-.59.092-.781.275-.19.183-.286.433-.286.748 0 .337.114.605.341.803.235.191.557.286.968.286zm6.882.781c-.712 0-1.276-.209-1.694-.627-.41-.425-.616-1.005-.616-1.738v-2.75c0-.968.242-1.712.726-2.233.484-.528 1.177-.792 2.079-.792h1.54v.99h-1.54c-.594 0-1.045.176-1.353.528-.308.345-.462.847-.462 1.507v.715h.154l-.154.22c.007-.433.154-.77.44-1.012.286-.242.674-.363 1.166-.363.638 0 1.133.205 1.485.616.36.411.539.975.539 1.694v.88c0 .491-.092.913-.275 1.265a1.929 1.929 0 01-.792.814c-.345.191-.76.286-1.243.286zm0-.88c.425 0 .751-.128.979-.385.227-.257.34-.623.34-1.1v-.88c0-.477-.113-.843-.34-1.1-.228-.257-.554-.385-.98-.385-.425 0-.75.128-.978.385-.228.249-.341.616-.341 1.1v.88c0 .477.113.843.34 1.1.228.257.554.385.98.385zm3.57.847v-.924h.198c.338 0 .572-.132.704-.396.14-.264.213-.737.22-1.419l.066-3.388h4.103V219h-.99v-5.148H99.59l-.055 2.53c-.014.638-.088 1.155-.22 1.551-.124.396-.322.686-.594.869-.264.183-.612.275-1.045.275h-.253zm9.621.011c-.484 0-.902-.092-1.254-.275a1.992 1.992 0 01-.825-.792c-.191-.352-.286-.766-.286-1.243v-1.606c0-.484.095-.898.286-1.243.198-.345.473-.609.825-.792.352-.183.77-.275 1.254-.275s.902.092 1.254.275c.352.183.623.447.814.792.198.345.297.755.297 1.232v1.617c0 .477-.099.891-.297 1.243a1.925 1.925 0 01-.814.792c-.352.183-.77.275-1.254.275zm0-.88c.433 0 .77-.121 1.012-.363s.363-.598.363-1.067v-1.606c0-.469-.121-.825-.363-1.067s-.579-.363-1.012-.363c-.425 0-.763.121-1.012.363-.242.242-.363.598-.363 1.067v1.606c0 .469.121.825.363 1.067.249.242.587.363 1.012.363zm4.33.792v-6.05h.99v2.519h2.552v-2.519h.99V219h-.99v-2.629h-2.552V219h-.99zm6.277 0v-6.05h.924v2.222h.495c.652 0 1.166.172 1.54.517.381.337.572.803.572 1.397s-.191 1.063-.572 1.408c-.374.337-.888.506-1.54.506h-1.419zm.924-.792h.495c.388 0 .689-.099.902-.297.22-.198.33-.473.33-.825s-.11-.627-.33-.825c-.213-.198-.514-.297-.902-.297h-.495v2.244zm3.322.792v-6.05h.924V219h-.924zm3.449 1.76l.88-3.421h1.43l-1.43 3.421h-.88zM19.034 234v-6.05h4.532V234h-.99v-5.148h-2.552V234h-.99zm8.862.088c-.484 0-.902-.092-1.254-.275a1.992 1.992 0 01-.825-.792c-.191-.352-.286-.766-.286-1.243v-1.606c0-.484.095-.898.286-1.243.198-.345.473-.609.825-.792.352-.183.77-.275 1.254-.275s.902.092 1.254.275c.352.183.623.447.814.792.198.345.297.755.297 1.232v1.617c0 .477-.1.891-.297 1.243a1.925 1.925 0 01-.814.792c-.352.183-.77.275-1.254.275zm0-.88c.432 0 .77-.121 1.012-.363s.363-.598.363-1.067v-1.606c0-.469-.121-.825-.363-1.067s-.58-.363-1.012-.363c-.426 0-.763.121-1.012.363-.242.242-.363.598-.363 1.067v1.606c0 .469.12.825.363 1.067.249.242.586.363 1.012.363zm3.625 2.332v-2.387h.495c.125-.125.253-.37.385-.737.14-.367.213-.832.22-1.397l.066-3.069h3.95v5.203h.77v2.387h-.88V234H32.4v1.54h-.88zm1.54-2.387h2.585v-4.323h-2.024l-.044 2.211c-.007.579-.07 1.049-.187 1.408-.117.359-.227.594-.33.704zm5.276.847l2.145-3.113-2.013-2.937h1.166l1.2 1.87c.05.081.098.169.142.264.051.095.092.172.121.231.022-.059.055-.136.1-.231.05-.095.102-.183.153-.264l1.21-1.87h1.155l-2.013 2.948L43.837 234h-1.166l-1.298-1.98a3.076 3.076 0 01-.154-.275 2.376 2.376 0 00-.12-.264 4.31 4.31 0 01-.133.264 1.942 1.942 0 01-.165.275L39.492 234h-1.155zm9.346.088c-.484 0-.902-.092-1.254-.275a1.992 1.992 0 01-.825-.792c-.19-.352-.286-.766-.286-1.243v-1.606c0-.484.095-.898.286-1.243.198-.345.473-.609.825-.792.352-.183.77-.275 1.254-.275s.902.092 1.254.275c.352.183.623.447.814.792.198.345.297.755.297 1.232v1.617c0 .477-.1.891-.297 1.243a1.92 1.92 0 01-.814.792c-.352.183-.77.275-1.254.275zm0-.88c.432 0 .77-.121 1.012-.363s.363-.598.363-1.067v-1.606c0-.469-.121-.825-.363-1.067s-.58-.363-1.012-.363c-.425 0-.763.121-1.012.363-.242.242-.363.598-.363 1.067v1.606c0 .469.12.825.363 1.067.25.242.587.363 1.012.363zm3.626 2.332v-2.387h.495c.124-.125.252-.37.384-.737.14-.367.213-.832.22-1.397l.066-3.069h3.95v5.203h.77v2.387h-.88V234h-4.126v1.54h-.88zm1.54-2.387h2.585v-4.323H53.41l-.044 2.211c-.008.579-.07 1.049-.188 1.408-.117.359-.227.594-.33.704zm5.44.847v-6.05h.924v2.222h.495c.653 0 1.166.172 1.54.517.382.337.572.803.572 1.397s-.19 1.063-.572 1.408c-.374.337-.887.506-1.54.506H58.29zm.924-.792h.495c.389 0 .69-.099.902-.297.22-.198.33-.473.33-.825s-.11-.627-.33-.825c-.212-.198-.513-.297-.902-.297h-.495v2.244zm3.322.792v-6.05h.924V234h-.924zm3.45 1.76l.88-3.421h1.43l-1.43 3.421h-.88zm14.236.22V234c-.704 0-1.257-.198-1.66-.594-.404-.396-.606-.939-.606-1.628v-1.628c0-.682.202-1.217.605-1.606.411-.396.965-.594 1.661-.594v-1.98h.88v1.98c.704 0 1.258.198 1.661.594.404.389.605.924.605 1.606v1.628c0 .689-.201 1.232-.605 1.628-.403.396-.957.594-1.66.594v1.98h-.88zm.022-2.761v-4.488c-.425 0-.759.125-1 .374-.243.249-.364.598-.364 1.045v1.628c0 .447.121.799.363 1.056s.576.385 1.001.385zm.836 0c.433 0 .767-.128 1.001-.385.242-.257.363-.609.363-1.056v-1.628c0-.447-.12-.796-.363-1.045-.234-.249-.568-.374-1-.374v4.488zm6.178.869c-.484 0-.902-.092-1.254-.275a1.992 1.992 0 01-.825-.792c-.19-.352-.286-.766-.286-1.243v-1.606c0-.484.095-.898.286-1.243.198-.345.473-.609.825-.792.352-.183.77-.275 1.254-.275s.902.092 1.254.275c.352.183.623.447.814.792.198.345.297.755.297 1.232v1.617c0 .477-.099.891-.297 1.243a1.92 1.92 0 01-.814.792c-.352.183-.77.275-1.254.275zm0-.88c.433 0 .77-.121 1.012-.363s.363-.598.363-1.067v-1.606c0-.469-.121-.825-.363-1.067s-.58-.363-1.012-.363c-.425 0-.763.121-1.012.363-.242.242-.363.598-.363 1.067v1.606c0 .469.121.825.363 1.067.25.242.587.363 1.012.363zm4.308 2.772v-8.03h.99v1.155h.198l-.198.231c0-.462.15-.825.45-1.089.309-.271.712-.407 1.21-.407.61 0 1.093.202 1.453.605.366.396.55.942.55 1.639v1.771c0 .462-.085.862-.253 1.199a1.798 1.798 0 01-.693.781c-.294.183-.646.275-1.056.275-.492 0-.891-.136-1.2-.407-.307-.271-.461-.634-.461-1.089l.198.231h-.22l.022 1.375v1.76h-.99zm2.32-2.728c.419 0 .745-.125.98-.374.242-.249.363-.609.363-1.078v-1.65c0-.469-.121-.829-.363-1.078-.235-.249-.561-.374-.98-.374-.403 0-.725.128-.967.385s-.363.612-.363 1.067v1.65c0 .455.12.81.363 1.067.242.257.564.385.968.385zm4.1.748v-6.05h1.341l.792 2.321c.081.235.154.469.22.704.066.227.114.403.143.528.03-.125.074-.301.132-.528.066-.235.136-.473.209-.715l.748-2.31h1.342V234h-.957v-.935c0-.33.004-.689.011-1.078l.022-1.177.044-1.122c.015-.359.026-.675.033-.946l-1.078 3.443h-1.045l-1.089-3.421c.015.33.026.741.033 1.232.015.491.026 1.005.033 1.54.015.535.022 1.045.022 1.529V234h-.957zm8.531.11c-.638 0-1.14-.161-1.507-.484-.367-.33-.55-.774-.55-1.331 0-.565.183-1.008.55-1.331.367-.323.862-.484 1.485-.484h1.87v-.605c0-.374-.114-.66-.341-.858-.22-.205-.535-.308-.946-.308-.359 0-.66.077-.902.231-.242.147-.381.348-.418.605h-.99c.066-.521.312-.935.737-1.243.425-.308.957-.462 1.595-.462.697 0 1.247.18 1.65.539.403.359.605.847.605 1.463V234h-.968v-1.155h-.165l.165-.165c0 .44-.172.788-.517 1.045-.337.257-.788.385-1.353.385zm.242-.781c.469 0 .854-.117 1.155-.352.301-.235.451-.535.451-.902v-.858h-1.848c-.33 0-.59.092-.781.275-.191.183-.286.433-.286.748 0 .337.114.605.341.803.235.191.557.286.968.286zm6.387.671v-5.181h-2.2v-.869h5.39v.869h-2.2V234h-.99zm4.506 0v-6.05h.924v2.222h.495c.652 0 1.166.172 1.54.517.381.337.572.803.572 1.397s-.191 1.063-.572 1.408c-.374.337-.888.506-1.54.506h-1.419zm.924-.792h.495c.388 0 .689-.099.902-.297.22-.198.33-.473.33-.825s-.11-.627-.33-.825c-.213-.198-.514-.297-.902-.297h-.495v2.244zm3.322.792v-6.05h.924V234h-.924zm3.449 1.76l.88-3.421h1.43l-1.43 3.421h-.88zM19.034 249v-6.05h2.618c.63 0 1.118.143 1.463.429.345.279.517.671.517 1.177 0 .418-.143.755-.429 1.012-.286.249-.664.374-1.133.374v-.088c.513 0 .924.128 1.232.385.315.257.473.601.473 1.034 0 .543-.183.968-.55 1.276-.367.301-.88.451-1.54.451h-2.651zm.968-.869h1.683c.352 0 .623-.077.814-.231.198-.154.297-.37.297-.649 0-.286-.099-.506-.297-.66-.19-.154-.462-.231-.814-.231h-1.683v1.771zm0-2.629h1.65c.308 0 .55-.073.726-.22.183-.147.275-.352.275-.616s-.088-.469-.264-.616c-.176-.154-.422-.231-.737-.231h-1.65v1.683zm7.894 3.586c-.484 0-.902-.092-1.254-.275a1.992 1.992 0 01-.825-.792c-.191-.352-.286-.766-.286-1.243v-1.606c0-.484.095-.898.286-1.243.198-.345.473-.609.825-.792.352-.183.77-.275 1.254-.275s.902.092 1.254.275c.352.183.623.447.814.792.198.345.297.755.297 1.232v1.617c0 .477-.1.891-.297 1.243a1.925 1.925 0 01-.814.792c-.352.183-.77.275-1.254.275zm0-.88c.432 0 .77-.121 1.012-.363s.363-.598.363-1.067v-1.606c0-.469-.121-.825-.363-1.067s-.58-.363-1.012-.363c-.426 0-.763.121-1.012.363-.242.242-.363.598-.363 1.067v1.606c0 .469.12.825.363 1.067.249.242.586.363 1.012.363zm4.307 2.772v-8.03h.99v1.155h.198l-.198.231c0-.462.15-.825.451-1.089.308-.271.712-.407 1.21-.407.61 0 1.093.202 1.452.605.367.396.55.942.55 1.639v1.771c0 .462-.084.862-.253 1.199a1.798 1.798 0 01-.693.781c-.293.183-.645.275-1.056.275-.49 0-.89-.136-1.199-.407-.308-.271-.462-.634-.462-1.089l.198.231h-.22l.022 1.375v1.76h-.99zm2.321-2.728c.418 0 .745-.125.98-.374.241-.249.362-.609.362-1.078v-1.65c0-.469-.12-.829-.363-1.078-.234-.249-.56-.374-.979-.374-.403 0-.726.128-.968.385s-.363.612-.363 1.067v1.65c0 .455.121.81.363 1.067.242.257.565.385.968.385zm6.563.836c-.484 0-.902-.092-1.254-.275a1.992 1.992 0 01-.825-.792c-.19-.352-.286-.766-.286-1.243v-1.606c0-.484.095-.898.286-1.243.198-.345.473-.609.825-.792.352-.183.77-.275 1.254-.275s.902.092 1.254.275c.352.183.623.447.814.792.198.345.297.755.297 1.232v1.617c0 .477-.099.891-.297 1.243a1.92 1.92 0 01-.814.792c-.352.183-.77.275-1.254.275zm0-.88c.433 0 .77-.121 1.012-.363s.363-.598.363-1.067v-1.606c0-.469-.12-.825-.363-1.067-.242-.242-.58-.363-1.012-.363-.425 0-.763.121-1.012.363-.242.242-.363.598-.363 1.067v1.606c0 .469.121.825.363 1.067.25.242.587.363 1.012.363zm4.33.792v-6.05h.99v2.519h2.552v-2.519h.99V249h-.99v-2.629h-2.552V249h-.99zm6.628 0v-6.05h.99v2.497h1.035l1.76-2.497h1.133l-2.035 2.882L56.995 249H55.84l-1.76-2.695h-1.044V249h-.99zm6.563 0v-6.05h.946v3.3c0 .213-.007.436-.022.671a9.355 9.355 0 01-.044.671 6.983 6.983 0 01-.055.528l2.442-5.17h1.265V249h-.946v-3.3c0-.213.004-.436.011-.671.015-.235.033-.458.055-.671l.055-.539L59.873 249h-1.265zm7.377 1.76l.88-3.421h1.43l-1.43 3.421h-.88zm14.148-1.65c-.638 0-1.14-.161-1.507-.484-.366-.33-.55-.774-.55-1.331 0-.565.184-1.008.55-1.331.367-.323.862-.484 1.485-.484h1.87v-.605c0-.374-.113-.66-.34-.858-.22-.205-.536-.308-.947-.308-.359 0-.66.077-.902.231-.242.147-.381.348-.418.605h-.99c.066-.521.312-.935.737-1.243.426-.308.957-.462 1.595-.462.697 0 1.247.18 1.65.539.404.359.605.847.605 1.463V249h-.968v-1.155h-.165l.165-.165c0 .44-.172.788-.517 1.045-.337.257-.788.385-1.353.385zm.242-.781c.47 0 .855-.117 1.155-.352.301-.235.451-.535.451-.902v-.858h-1.848c-.33 0-.59.092-.78.275-.191.183-.287.433-.287.748 0 .337.114.605.341.803.235.191.558.286.968.286zm3.857.748v-.924h.198c.337 0 .572-.132.704-.396.14-.264.213-.737.22-1.419l.066-3.388h4.103V249h-.99v-5.148h-2.134l-.055 2.53c-.015.638-.088 1.155-.22 1.551-.125.396-.323.686-.594.869-.264.183-.612.275-1.045.275h-.253zm7.75-.077v-6.05h4.346v.902h-3.355V249h-.99zm8.466.088c-.484 0-.902-.092-1.254-.275a1.992 1.992 0 01-.825-.792c-.19-.352-.286-.766-.286-1.243v-1.606c0-.484.096-.898.286-1.243.198-.345.473-.609.825-.792.352-.183.77-.275 1.254-.275s.902.092 1.254.275c.352.183.624.447.814.792.198.345.297.755.297 1.232v1.617c0 .477-.099.891-.297 1.243a1.92 1.92 0 01-.814.792c-.352.183-.77.275-1.254.275zm0-.88c.433 0 .77-.121 1.012-.363s.363-.598.363-1.067v-1.606c0-.469-.121-.825-.363-1.067s-.579-.363-1.012-.363c-.425 0-.762.121-1.012.363-.242.242-.363.598-.363 1.067v1.606c0 .469.121.825.363 1.067.25.242.587.363 1.012.363zm4.308 2.772v-8.03h.99v1.155h.198l-.198.231c0-.462.15-.825.451-1.089.308-.271.711-.407 1.21-.407.609 0 1.093.202 1.452.605.367.396.55.942.55 1.639v1.771c0 .462-.084.862-.253 1.199a1.795 1.795 0 01-.693.781c-.293.183-.645.275-1.056.275-.491 0-.891-.136-1.199-.407-.308-.271-.462-.634-.462-1.089l.198.231h-.22l.022 1.375v1.76h-.99zm2.321-2.728c.418 0 .744-.125.979-.374.242-.249.363-.609.363-1.078v-1.65c0-.469-.121-.829-.363-1.078-.235-.249-.561-.374-.979-.374-.403 0-.726.128-.968.385s-.363.612-.363 1.067v1.65c0 .455.121.81.363 1.067.242.257.565.385.968.385zm4.297.748v-6.05h.946v3.3c0 .213-.007.436-.022.671a9.185 9.185 0 01-.044.671 7.197 7.197 0 01-.055.528l2.442-5.17h1.265V249h-.946v-3.3c0-.213.004-.436.011-.671.015-.235.033-.458.055-.671l.055-.539-2.442 5.181h-1.265zm8.367 0v-5.181h-2.2v-.869h5.39v.869h-2.2V249h-.99zm4.626 0v-6.05h1.342l.792 2.321c.081.235.154.469.22.704.066.227.114.403.143.528.03-.125.074-.301.132-.528.066-.235.136-.473.209-.715l.748-2.31h1.342V249h-.957v-.935c0-.33.004-.689.011-1.078l.022-1.177.044-1.122c.015-.359.026-.675.033-.946l-1.078 3.443h-1.045l-1.089-3.421c.015.33.026.741.033 1.232.015.491.026 1.005.033 1.54.015.535.022 1.045.022 1.529V249h-.957zm6.475 0v-6.05h.924v2.222h.495c.653 0 1.166.172 1.54.517.381.337.572.803.572 1.397s-.191 1.063-.572 1.408c-.374.337-.887.506-1.54.506h-1.419zm.924-.792h.495c.389 0 .689-.099.902-.297.22-.198.33-.473.33-.825s-.11-.627-.33-.825c-.213-.198-.513-.297-.902-.297h-.495v2.244zm3.322.792v-6.05h.924V249h-.924zM18.33 265.54v-2.387h.495c.125-.125.253-.37.385-.737.14-.367.213-.832.22-1.397l.066-3.069h3.949v5.203h.77v2.387h-.88V264H19.21v1.54h-.88zm1.54-2.387h2.585v-4.323h-2.024l-.044 2.211c-.007.579-.07 1.049-.187 1.408-.117.359-.227.594-.33.704zm8.026.957c-.477 0-.895-.095-1.254-.286a2.07 2.07 0 01-.825-.803 2.523 2.523 0 01-.286-1.221v-1.65c0-.469.095-.876.286-1.221a2.07 2.07 0 01.825-.803c.359-.191.777-.286 1.254-.286.476 0 .89.095 1.243.286.359.191.634.458.825.803.198.345.297.752.297 1.221v1.067h-3.762v.583c0 .477.12.843.363 1.1.242.249.586.374 1.034.374.381 0 .689-.066.924-.198a.874.874 0 00.429-.616h.99c-.066.506-.316.909-.748 1.21-.426.293-.957.44-1.595.44zm1.397-3.553v-.407c0-.477-.121-.843-.363-1.1-.235-.257-.58-.385-1.034-.385-.448 0-.792.128-1.034.385s-.363.623-.363 1.1v.319h2.87l-.076.088zM32.225 264v-6.05h.946v3.3c0 .213-.007.436-.022.671a9.355 9.355 0 01-.044.671 7.036 7.036 0 01-.055.528l2.442-5.17h1.265V264h-.946v-3.3c0-.213.004-.436.011-.671.015-.235.033-.458.055-.671l.055-.539L33.49 264h-1.265zm2.31-7.04c-.528 0-.953-.147-1.276-.44-.322-.293-.484-.678-.484-1.155h.781c0 .286.088.517.264.693.176.176.411.264.704.264.301 0 .54-.088.715-.264.184-.176.275-.407.275-.693h.781c0 .477-.16.862-.484 1.155-.322.293-.748.44-1.276.44zm6.574 7.15c-.484 0-.91-.092-1.276-.275a1.977 1.977 0 01-.836-.792c-.198-.352-.297-.766-.297-1.243v-1.65c0-.484.1-.898.297-1.243.198-.345.477-.609.836-.792.367-.183.792-.275 1.276-.275.697 0 1.258.187 1.683.561.425.374.65.884.671 1.529h-.99c-.022-.389-.154-.686-.396-.891-.235-.213-.557-.319-.968-.319-.433 0-.777.125-1.034.374-.257.242-.385.59-.385 1.045v1.661c0 .455.128.807.385 1.056s.601.374 1.034.374c.41 0 .733-.106.968-.319.242-.213.374-.51.396-.891h.99c-.022.645-.246 1.155-.67 1.529-.426.374-.987.561-1.684.561zm6.079-.11v-5.181h-2.2v-.869h5.39v.869h-2.2V264h-.99zm4.825 0v-6.05h2.617c.631 0 1.119.143 1.463.429.345.279.517.671.517 1.177 0 .418-.142.755-.428 1.012-.287.249-.664.374-1.134.374v-.088c.514 0 .924.128 1.233.385.315.257.473.601.473 1.034 0 .543-.184.968-.55 1.276-.367.301-.88.451-1.54.451h-2.651zm.968-.869h1.682c.353 0 .624-.077.815-.231.197-.154.297-.37.297-.649 0-.286-.1-.506-.297-.66-.191-.154-.462-.231-.815-.231h-1.682v1.771zm0-2.629h1.65c.307 0 .55-.073.725-.22.184-.147.276-.352.276-.616s-.088-.469-.264-.616c-.177-.154-.422-.231-.738-.231h-1.65v1.683zM58.608 264v-6.05h.946v3.3c0 .213-.007.436-.022.671a9.355 9.355 0 01-.044.671 6.983 6.983 0 01-.055.528l2.442-5.17h1.265V264h-.946v-3.3c0-.213.004-.436.011-.671.015-.235.033-.458.055-.671l.055-.539L59.873 264h-1.265zm6.596 0v-6.05h.946v3.3c0 .213-.007.436-.022.671a9.355 9.355 0 01-.044.671 6.983 6.983 0 01-.055.528l2.442-5.17h1.265V264h-.946v-3.3c0-.213.004-.436.01-.671.016-.235.034-.458.056-.671l.055-.539L66.469 264h-1.265zm2.31-7.04c-.528 0-.953-.147-1.276-.44-.323-.293-.484-.678-.484-1.155h.78c0 .286.089.517.265.693.176.176.41.264.704.264.3 0 .539-.088.715-.264.183-.176.275-.407.275-.693h.78c0 .477-.16.862-.483 1.155-.323.293-.748.44-1.276.44zM78.395 264v-6.05h.946v3.3c0 .213-.007.436-.022.671a9.355 9.355 0 01-.044.671 6.983 6.983 0 01-.055.528l2.442-5.17h1.265V264h-.946v-3.3c0-.213.004-.436.011-.671.015-.235.033-.458.055-.671l.055-.539L79.66 264h-1.265zm14.963 0v-5.181h-2.2v-.869h5.39v.869h-2.2V264h-.99zm7.09.11c-.278 0-.502-.081-.67-.242-.162-.161-.243-.378-.243-.649 0-.286.081-.513.242-.682.17-.169.393-.253.671-.253.279 0 .499.084.66.253.169.169.253.396.253.682 0 .271-.084.488-.253.649-.161.161-.381.242-.66.242zm3.626 1.43v-2.387h.495c.125-.125.253-.37.385-.737.139-.367.213-.832.22-1.397l.066-3.069h3.949v5.203h.77v2.387h-.88V264h-4.125v1.54h-.88zm1.54-2.387h2.585v-4.323h-2.024l-.044 2.211c-.007.579-.07 1.049-.187 1.408-.117.359-.227.594-.33.704zm8.026.957c-.279 0-.502-.081-.671-.242-.161-.161-.242-.378-.242-.649 0-.286.081-.513.242-.682.169-.169.392-.253.671-.253s.499.084.66.253c.169.169.253.396.253.682 0 .271-.084.488-.253.649-.161.161-.381.242-.66.242zM19.034 279v-6.05h.946v3.3c0 .213-.007.436-.022.671a9.355 9.355 0 01-.044.671 7.036 7.036 0 01-.055.528l2.442-5.17h1.265V279h-.946v-3.3c0-.213.004-.436.011-.671.015-.235.033-.458.055-.671l.055-.539L20.299 279h-1.265zm13.587 0v-6.05h4.345v.902h-3.355V279h-.99zm8.466.088c-.484 0-.902-.092-1.254-.275a1.992 1.992 0 01-.825-.792c-.19-.352-.286-.766-.286-1.243v-1.606c0-.484.095-.898.286-1.243.198-.345.473-.609.825-.792.352-.183.77-.275 1.254-.275s.902.092 1.254.275c.352.183.623.447.814.792.198.345.297.755.297 1.232v1.617c0 .477-.099.891-.297 1.243a1.92 1.92 0 01-.814.792c-.352.183-.77.275-1.254.275zm0-.88c.433 0 .77-.121 1.012-.363s.363-.598.363-1.067v-1.606c0-.469-.12-.825-.363-1.067-.242-.242-.58-.363-1.012-.363-.425 0-.763.121-1.012.363-.242.242-.363.598-.363 1.067v1.606c0 .469.121.825.363 1.067.25.242.587.363 1.012.363zm6.1.792v-5.181h-2.2v-.869h5.39v.869h-2.2V279h-.99zm7.092.088c-.485 0-.903-.092-1.255-.275a1.992 1.992 0 01-.825-.792c-.19-.352-.285-.766-.285-1.243v-1.606c0-.484.095-.898.285-1.243a2 2 0 01.826-.792c.352-.183.77-.275 1.254-.275.483 0 .901.092 1.253.275.353.183.624.447.815.792.197.345.297.755.297 1.232v1.617c0 .477-.1.891-.297 1.243a1.922 1.922 0 01-.815.792c-.351.183-.77.275-1.253.275zm0-.88c.432 0 .77-.121 1.011-.363.242-.242.364-.598.364-1.067v-1.606c0-.469-.122-.825-.364-1.067s-.579-.363-1.011-.363c-.426 0-.763.121-1.013.363-.241.242-.362.598-.362 1.067v1.606c0 .469.12.825.362 1.067.25.242.587.363 1.013.363zm4.33.792v-6.05h2.617c.63 0 1.119.143 1.463.429.345.279.517.671.517 1.177 0 .418-.143.755-.429 1.012-.286.249-.663.374-1.133.374v-.088c.514 0 .924.128 1.232.385.316.257.473.601.473 1.034 0 .543-.183.968-.55 1.276-.366.301-.88.451-1.54.451h-2.65zm.967-.869h1.683c.352 0 .624-.077.814-.231.198-.154.297-.37.297-.649 0-.286-.099-.506-.297-.66-.19-.154-.462-.231-.814-.231h-1.683v1.771zm0-2.629h1.65c.308 0 .55-.073.726-.22.184-.147.275-.352.275-.616s-.088-.469-.264-.616c-.176-.154-.421-.231-.737-.231h-1.65v1.683zM71.8 279v-6.05h4.532V279h-.99v-5.148H72.79V279h-.99zm8.861.088c-.484 0-.902-.092-1.254-.275a1.992 1.992 0 01-.825-.792c-.19-.352-.286-.766-.286-1.243v-1.606c0-.484.096-.898.286-1.243.198-.345.473-.609.825-.792.352-.183.77-.275 1.254-.275s.902.092 1.254.275c.352.183.624.447.814.792.198.345.297.755.297 1.232v1.617c0 .477-.099.891-.297 1.243a1.92 1.92 0 01-.814.792c-.352.183-.77.275-1.254.275zm0-.88c.433 0 .77-.121 1.012-.363s.363-.598.363-1.067v-1.606c0-.469-.12-.825-.363-1.067-.242-.242-.579-.363-1.012-.363-.425 0-.762.121-1.012.363-.242.242-.363.598-.363 1.067v1.606c0 .469.121.825.363 1.067.25.242.587.363 1.012.363zm3.626 2.332v-2.387h.495c.125-.125.253-.37.385-.737.14-.367.213-.832.22-1.397l.066-3.069h3.949v5.203h.77v2.387h-.88V279h-4.125v1.54h-.88zm1.54-2.387h2.585v-4.323h-2.024l-.044 2.211c-.007.579-.07 1.049-.187 1.408-.117.359-.227.594-.33.704zm8.026.957c-.477 0-.895-.095-1.254-.286a2.07 2.07 0 01-.825-.803 2.524 2.524 0 01-.286-1.221v-1.65c0-.469.095-.876.286-1.221a2.07 2.07 0 01.825-.803c.36-.191.777-.286 1.254-.286.476 0 .89.095 1.243.286.36.191.634.458.825.803.198.345.297.752.297 1.221v1.067h-3.762v.583c0 .477.12.843.363 1.1.242.249.586.374 1.034.374.381 0 .69-.066.924-.198a.874.874 0 00.429-.616h.99c-.066.506-.316.909-.748 1.21-.426.293-.957.44-1.595.44zm1.397-3.553v-.407c0-.477-.121-.843-.363-1.1-.235-.257-.58-.385-1.034-.385-.448 0-.792.128-1.034.385s-.363.623-.363 1.1v.319h2.87l-.076.088zm2.173 3.52v-.924h.198c.338 0 .572-.132.704-.396.14-.264.213-.737.22-1.419l.066-3.388h4.103V279h-.99v-5.148H99.59l-.055 2.53c-.014.638-.088 1.155-.22 1.551-.124.396-.322.686-.594.869-.264.183-.612.275-1.045.275h-.253zm7.355-.077v-6.05h.946v3.3c0 .213-.007.436-.022.671a9.185 9.185 0 01-.044.671 7.197 7.197 0 01-.055.528l2.442-5.17h1.265V279h-.946v-3.3c0-.213.004-.436.011-.671.015-.235.033-.458.055-.671l.055-.539-2.442 5.181h-1.265zm8.367 0v-5.181h-2.2v-.869h5.39v.869h-2.2V279h-.99zm4.869 0v-6.05h.99v2.222h1.782c.682 0 1.217.172 1.606.517.396.337.594.803.594 1.397 0 .587-.198 1.052-.594 1.397-.396.345-.932.517-1.606.517h-2.772zm.99-.902h1.782c.381 0 .671-.084.869-.253.205-.176.308-.429.308-.759s-.103-.579-.308-.748c-.198-.176-.488-.264-.869-.264h-1.782v2.024zm7.849 1.012c-.484 0-.909-.092-1.276-.275a1.979 1.979 0 01-.836-.792c-.198-.352-.297-.766-.297-1.243v-1.65c0-.484.099-.898.297-1.243.198-.345.477-.609.836-.792.367-.183.792-.275 1.276-.275.697 0 1.258.187 1.683.561.426.374.649.884.671 1.529h-.99c-.022-.389-.154-.686-.396-.891-.234-.213-.557-.319-.968-.319-.432 0-.777.125-1.034.374-.256.242-.385.59-.385 1.045v1.661c0 .455.129.807.385 1.056.257.249.602.374 1.034.374.411 0 .734-.106.968-.319.242-.213.374-.51.396-.891h.99c-.022.645-.245 1.155-.671 1.529-.425.374-.986.561-1.683.561zm3.934-.11l1.551-2.332c-.462-.11-.821-.323-1.078-.638-.249-.315-.374-.708-.374-1.177 0-.594.194-1.06.583-1.397.396-.337.935-.506 1.617-.506h2.607V279h-.99v-2.255h-1.331l-1.43 2.255h-1.155zm2.299-3.135h1.617v-2.035h-1.617c-.367 0-.656.092-.869.275-.213.176-.319.425-.319.748 0 .315.106.565.319.748.213.176.502.264.869.264zM21.256 294.11c-.697 0-1.254-.187-1.672-.561-.418-.374-.638-.884-.66-1.529h.99c.022.381.15.678.385.891.235.213.554.319.957.319.433 0 .766-.125 1.001-.374.242-.249.363-.601.363-1.056v-.44h-2.145v-.88h2.145v-.341c0-.455-.121-.803-.363-1.045-.235-.249-.568-.374-1.001-.374-.403 0-.722.106-.957.319-.235.205-.363.502-.385.891h-.99c.022-.645.242-1.155.66-1.529.418-.374.975-.561 1.672-.561.491 0 .91.092 1.254.275.352.183.623.447.814.792.19.345.286.759.286 1.243v1.65c0 .477-.095.891-.286 1.243a1.92 1.92 0 01-.814.792c-.345.183-.763.275-1.254.275zm6.145-.11v-5.181h-2.2v-.869h5.39v.869h-2.2V294h-.99zm4.824 0v-6.05h.946v3.3c0 .213-.007.436-.022.671a9.355 9.355 0 01-.044.671 7.036 7.036 0 01-.055.528l2.442-5.17h1.265V294h-.946v-3.3c0-.213.004-.436.011-.671.015-.235.033-.458.055-.671l.055-.539L33.49 294h-1.265zm6.398 0v-6.05h1.342l.792 2.321c.08.235.154.469.22.704.066.227.114.403.143.528.03-.125.073-.301.132-.528.066-.235.136-.473.21-.715l.747-2.31h1.342V294h-.957v-.935c0-.33.004-.689.011-1.078l.022-1.177.044-1.122c.015-.359.026-.675.033-.946l-1.078 3.443h-1.045l-1.089-3.421c.015.33.026.741.033 1.232.015.491.026 1.005.033 1.54.015.535.022 1.045.022 1.529V294h-.957zm13.39 0v-6.05h.99v2.519h2.551v-2.519h.99V294h-.99v-2.629h-2.552V294h-.99zm8.333.11c-.638 0-1.14-.161-1.507-.484-.366-.33-.55-.774-.55-1.331 0-.565.184-1.008.55-1.331.367-.323.862-.484 1.485-.484h1.87v-.605c0-.374-.113-.66-.34-.858-.22-.205-.536-.308-.947-.308-.36 0-.66.077-.902.231-.242.147-.381.348-.418.605h-.99c.066-.521.312-.935.737-1.243.426-.308.957-.462 1.595-.462.697 0 1.247.18 1.65.539.404.359.605.847.605 1.463V294h-.968v-1.155h-.165l.165-.165c0 .44-.172.788-.517 1.045-.337.257-.788.385-1.353.385zm.242-.781c.47 0 .855-.117 1.155-.352.3-.235.451-.535.451-.902v-.858h-1.848c-.33 0-.59.092-.78.275-.191.183-.287.433-.287.748 0 .337.114.605.341.803.235.191.558.286.968.286zm6.882.781c-.711 0-1.276-.209-1.694-.627-.41-.425-.616-1.005-.616-1.738v-2.75c0-.968.242-1.712.726-2.233.484-.528 1.177-.792 2.079-.792h1.54v.99h-1.54c-.594 0-1.045.176-1.353.528-.308.345-.462.847-.462 1.507v.715h.154l-.154.22c.007-.433.154-.77.44-1.012.286-.242.675-.363 1.166-.363.638 0 1.133.205 1.485.616.36.411.539.975.539 1.694v.88c0 .491-.092.913-.275 1.265a1.929 1.929 0 01-.792.814c-.345.191-.76.286-1.243.286zm0-.88c.425 0 .752-.128.979-.385.227-.257.34-.623.34-1.1v-.88c0-.477-.113-.843-.34-1.1-.227-.257-.554-.385-.98-.385-.424 0-.75.128-.978.385-.227.249-.341.616-.341 1.1v.88c0 .477.114.843.34 1.1.228.257.555.385.98.385zm6.596.858c-.484 0-.902-.092-1.254-.275a1.992 1.992 0 01-.825-.792c-.191-.352-.286-.766-.286-1.243v-1.606c0-.484.095-.898.286-1.243.198-.345.473-.609.825-.792.352-.183.77-.275 1.254-.275s.902.092 1.254.275c.352.183.623.447.814.792.198.345.297.755.297 1.232v1.617c0 .477-.1.891-.297 1.243a1.925 1.925 0 01-.814.792c-.352.183-.77.275-1.254.275zm0-.88c.432 0 .77-.121 1.012-.363s.363-.598.363-1.067v-1.606c0-.469-.121-.825-.363-1.067s-.58-.363-1.012-.363c-.426 0-.763.121-1.012.363-.242.242-.363.598-.363 1.067v1.606c0 .469.12.825.363 1.067.249.242.586.363 1.012.363zm4.307 2.772v-8.03h.99v1.155h.198l-.198.231c0-.462.15-.825.451-1.089.308-.271.712-.407 1.21-.407.609 0 1.093.202 1.452.605.367.396.55.942.55 1.639v1.771c0 .462-.084.862-.253 1.199a1.798 1.798 0 01-.693.781c-.293.183-.645.275-1.056.275-.491 0-.89-.136-1.199-.407-.308-.271-.462-.634-.462-1.089l.198.231h-.22l.022 1.375v1.76h-.99zm2.321-2.728c.418 0 .745-.125.98-.374.241-.249.362-.609.362-1.078v-1.65c0-.469-.12-.829-.363-1.078-.234-.249-.56-.374-.979-.374-.403 0-.726.128-.968.385s-.363.612-.363 1.067v1.65c0 .455.121.81.363 1.067.242.257.565.385.968.385zm6.563.836c-.484 0-.902-.092-1.254-.275a1.992 1.992 0 01-.825-.792c-.19-.352-.286-.766-.286-1.243v-1.606c0-.484.095-.898.286-1.243.198-.345.473-.609.825-.792.352-.183.77-.275 1.254-.275s.902.092 1.254.275c.352.183.623.447.814.792.198.345.297.755.297 1.232v1.617c0 .477-.099.891-.297 1.243a1.92 1.92 0 01-.814.792c-.352.183-.77.275-1.254.275zm0-.88c.433 0 .77-.121 1.012-.363s.363-.598.363-1.067v-1.606c0-.469-.121-.825-.363-1.067s-.58-.363-1.012-.363c-.425 0-.763.121-1.012.363-.242.242-.363.598-.363 1.067v1.606c0 .469.121.825.363 1.067.25.242.587.363 1.012.363zm4.132.792v-6.05h1.342l.792 2.321c.08.235.154.469.22.704.066.227.113.403.143.528.03-.125.073-.301.132-.528.066-.235.135-.473.209-.715l.748-2.31h1.342V294h-.957v-.935c0-.33.003-.689.01-1.078l.023-1.177c.014-.396.03-.77.044-1.122.014-.359.025-.675.033-.946l-1.078 3.443h-1.045l-1.09-3.421c.015.33.026.741.034 1.232.014.491.025 1.005.033 1.54.014.535.022 1.045.022 1.529V294h-.957zm15.677.11c-.484 0-.909-.092-1.276-.275a1.979 1.979 0 01-.836-.792c-.198-.352-.297-.766-.297-1.243v-1.65c0-.484.099-.898.297-1.243.198-.345.477-.609.836-.792.367-.183.792-.275 1.276-.275.697 0 1.258.187 1.683.561.425.374.649.884.671 1.529h-.99c-.022-.389-.154-.686-.396-.891-.235-.213-.557-.319-.968-.319-.433 0-.777.125-1.034.374-.257.242-.385.59-.385 1.045v1.661c0 .455.128.807.385 1.056s.601.374 1.034.374c.411 0 .733-.106.968-.319.242-.213.374-.51.396-.891h.99c-.022.645-.246 1.155-.671 1.529-.425.374-.986.561-1.683.561zM19.034 309v-6.05h2.618c.63 0 1.118.143 1.463.429.345.279.517.671.517 1.177 0 .418-.143.755-.429 1.012-.286.249-.664.374-1.133.374v-.088c.513 0 .924.128 1.232.385.315.257.473.601.473 1.034 0 .543-.183.968-.55 1.276-.367.301-.88.451-1.54.451h-2.651zm.968-.869h1.683c.352 0 .623-.077.814-.231.198-.154.297-.37.297-.649 0-.286-.099-.506-.297-.66-.19-.154-.462-.231-.814-.231h-1.683v1.771zm0-2.629h1.65c.308 0 .55-.073.726-.22.183-.147.275-.352.275-.616s-.088-.469-.264-.616c-.176-.154-.422-.231-.737-.231h-1.65v1.683zm7.366 3.608c-.638 0-1.14-.161-1.507-.484-.367-.33-.55-.774-.55-1.331 0-.565.183-1.008.55-1.331.366-.323.861-.484 1.485-.484h1.87v-.605c0-.374-.114-.66-.341-.858-.22-.205-.536-.308-.946-.308-.36 0-.66.077-.902.231-.242.147-.382.348-.418.605h-.99c.066-.521.311-.935.737-1.243.425-.308.957-.462 1.595-.462.696 0 1.246.18 1.65.539.403.359.605.847.605 1.463V309h-.968v-1.155h-.165l.165-.165c0 .44-.173.788-.517 1.045-.338.257-.789.385-1.353.385zm.242-.781c.469 0 .854-.117 1.155-.352.3-.235.45-.535.45-.902v-.858h-1.847c-.33 0-.59.092-.781.275-.191.183-.286.433-.286.748 0 .337.113.605.34.803.235.191.558.286.969.286zm4.307.671l-.022-6.05h.924v5.302h1.287v-5.302h.792v5.302h1.276v-5.302h.913V309h-5.17zm6.904 0v-6.05h.946v3.3c0 .213-.007.436-.022.671a9.355 9.355 0 01-.044.671 7.036 7.036 0 01-.055.528l2.442-5.17h1.265V309h-.946v-3.3c0-.213.004-.436.011-.671.015-.235.033-.458.055-.671l.055-.539L40.086 309h-1.265zm6.398 0v-6.05h1.342l.792 2.321c.08.235.154.469.22.704.066.227.114.403.143.528.03-.125.073-.301.132-.528.066-.235.136-.473.209-.715l.748-2.31h1.342V309h-.957v-.935c0-.33.004-.689.01-1.078l.023-1.177c.014-.396.03-.77.044-1.122.014-.359.025-.675.033-.946l-1.078 3.443h-1.045l-1.09-3.421c.015.33.026.741.034 1.232.014.491.026 1.005.033 1.54.014.535.022 1.045.022 1.529V309h-.957zm15.655.11c-.711 0-1.276-.209-1.694-.627-.41-.425-.616-1.005-.616-1.738v-2.75c0-.968.242-1.712.726-2.233.484-.528 1.177-.792 2.08-.792h1.54v.99h-1.54c-.595 0-1.046.176-1.354.528-.308.345-.462.847-.462 1.507v.715h.154l-.154.22c.008-.433.154-.77.44-1.012.286-.242.675-.363 1.166-.363.638 0 1.133.205 1.485.616.36.411.54.975.54 1.694v.88c0 .491-.092.913-.276 1.265a1.929 1.929 0 01-.792.814c-.344.191-.759.286-1.243.286zm0-.88c.426 0 .752-.128.98-.385.227-.257.34-.623.34-1.1v-.88c0-.477-.113-.843-.34-1.1-.228-.257-.554-.385-.98-.385-.425 0-.751.128-.979.385-.227.249-.34.616-.34 1.1v.88c0 .477.113.843.34 1.1.228.257.554.385.98.385zm4.33.77v-6.05h.946v3.3c0 .213-.007.436-.022.671a9.355 9.355 0 01-.044.671 6.983 6.983 0 01-.055.528l2.442-5.17h1.265V309h-.946v-3.3c0-.213.004-.436.01-.671.016-.235.034-.458.056-.671l.055-.539L66.469 309h-1.265zm8.576.077c-.638 0-1.163-.136-1.573-.407a1.616 1.616 0 01-.726-1.1h1.045c.051.183.187.334.407.451.227.117.51.176.847.176h.517c.359 0 .638-.084.836-.253a.814.814 0 00.308-.66c0-.293-.1-.524-.297-.693-.191-.169-.473-.253-.847-.253h-1.331v-.858h1.298c.337 0 .594-.081.77-.242a.824.824 0 00.264-.638.835.835 0 00-.121-.462.697.697 0 00-.341-.286 1.422 1.422 0 00-.561-.099h-.55a1.41 1.41 0 00-.76.198c-.212.132-.34.293-.384.484h-1.045c.073-.455.311-.829.715-1.122.403-.293.894-.44 1.474-.44h.55c.432 0 .803.07 1.11.209.309.132.543.323.705.572.168.249.253.546.253.891 0 .359-.118.656-.352.891-.235.227-.565.356-.99.385v.044c.52.037.898.176 1.133.418.234.242.352.59.352 1.045 0 .535-.198.961-.594 1.276-.396.315-.928.473-1.595.473h-.517zm4.615-.077v-6.05h.99v2.519h2.552v-2.519h.99V309h-.99v-2.629h-2.552V309h-.99zm8.862.11c-.477 0-.895-.095-1.254-.286a2.07 2.07 0 01-.825-.803 2.524 2.524 0 01-.286-1.221v-1.65c0-.469.095-.876.286-1.221a2.07 2.07 0 01.825-.803c.36-.191.777-.286 1.254-.286s.891.095 1.243.286c.36.191.634.458.825.803.198.345.297.752.297 1.221v1.067H85.86v.583c0 .477.121.843.363 1.1.242.249.587.374 1.034.374.381 0 .69-.066.924-.198a.874.874 0 00.429-.616h.99a1.685 1.685 0 01-.748 1.21c-.425.293-.957.44-1.595.44zm1.397-3.553v-.407c0-.477-.121-.843-.363-1.1-.235-.257-.58-.385-1.034-.385-.447 0-.792.128-1.034.385s-.363.623-.363 1.1v.319h2.871l-.077.088zm5.22 3.553c-.483 0-.909-.092-1.275-.275a1.977 1.977 0 01-.836-.792c-.198-.352-.297-.766-.297-1.243v-1.65c0-.484.099-.898.297-1.243.198-.345.476-.609.836-.792.366-.183.792-.275 1.276-.275.696 0 1.257.187 1.683.561.425.374.649.884.67 1.529h-.99c-.021-.389-.153-.686-.395-.891-.235-.213-.558-.319-.968-.319-.433 0-.778.125-1.034.374-.257.242-.385.59-.385 1.045v1.661c0 .455.128.807.385 1.056.256.249.601.374 1.034.374.41 0 .733-.106.968-.319.242-.213.374-.51.396-.891h.99c-.022.645-.246 1.155-.671 1.529-.426.374-.987.561-1.683.561zm6.574-.022c-.484 0-.902-.092-1.254-.275a1.992 1.992 0 01-.825-.792c-.19-.352-.286-.766-.286-1.243v-1.606c0-.484.096-.898.286-1.243.198-.345.473-.609.825-.792.352-.183.77-.275 1.254-.275s.902.092 1.254.275c.352.183.624.447.814.792.198.345.297.755.297 1.232v1.617c0 .477-.099.891-.297 1.243a1.92 1.92 0 01-.814.792c-.352.183-.77.275-1.254.275zm0-.88c.433 0 .77-.121 1.012-.363s.363-.598.363-1.067v-1.606c0-.469-.121-.825-.363-1.067s-.579-.363-1.012-.363c-.425 0-.762.121-1.012.363-.242.242-.363.598-.363 1.067v1.606c0 .469.121.825.363 1.067.25.242.587.363 1.012.363zm4.132.792v-6.05h1.342l.792 2.321c.081.235.154.469.22.704.066.227.114.403.143.528.029-.125.073-.301.132-.528.066-.235.136-.473.209-.715l.748-2.31h1.342V309h-.957v-.935c0-.33.004-.689.011-1.078l.022-1.177c.015-.396.029-.77.044-1.122.015-.359.026-.675.033-.946l-1.078 3.443h-1.045l-1.089-3.421c.015.33.026.741.033 1.232.015.491.026 1.005.033 1.54.015.535.022 1.045.022 1.529V309h-.957zm9.06.11c-.279 0-.502-.081-.671-.242-.161-.161-.242-.378-.242-.649 0-.286.081-.513.242-.682.169-.169.392-.253.671-.253s.499.084.66.253c.169.169.253.396.253.682 0 .271-.084.488-.253.649-.161.161-.381.242-.66.242z" fill="#000"/><defs><linearGradient id="paint0_linear_506_5" x1="0" y1="141.573" x2="232.385" y2="141.573" gradientUnits="userSpaceOnUse"><stop stop-color="#F1FFF7"/><stop offset="1" stop-color="#546A65"/></linearGradient><linearGradient id="paint1_linear_506_5" x1="12.231" y1="16.989" x2="246.528" y2="138.351" gradientUnits="userSpaceOnUse"><stop stop-color="#475E59" stop-opacity=".7"/><stop offset="1" stop-color="#fff" stop-opacity=".7"/></linearGradient><filter id="filter0_d_506_5" x="11.804" y="53.961" width="122.255" height="12.647" filterUnits="userSpaceOnUse" color-interpolation-filters="sRGB"><feFlood flood-opacity="0" result="BackgroundImageFix"/><feColorMatrix in="SourceAlpha" values="0 0 0 0 0 0 0 0 0 0 0 0 0 0 0 0 0 0 127 0" result="hardAlpha"/><feOffset dy="-3.373"/><feGaussianBlur stdDeviation="2.951"/><feComposite in2="hardAlpha" operator="out"/><feColorMatrix values="0 0 0 0 0 0 0 0 0 0 0 0 0 0 0 0 0 0 1 0"/><feBlend in2="BackgroundImageFix" result="effect1_dropShadow_506_5"/><feBlend in="SourceGraphic" in2="effect1_dropShadow_506_5" result="shape"/></filter></defs></svg>