<svg width="329" height="78" fill="none" xmlns="http://www.w3.org/2000/svg"><path d="M32.3 21v-8.03h2.585c.499 0 .931.099 1.298.297.367.19.65.462.847.814.205.352.308.77.308 1.254 0 .477-.103.895-.308 1.254-.198.352-.48.627-.847.825-.367.19-.8.286-1.298.286H33.29V21h-.99zm.99-4.191h1.595c.433 0 .777-.132 1.034-.396.264-.271.396-.63.396-1.078 0-.455-.132-.814-.396-1.078-.257-.264-.601-.396-1.034-.396H33.29v2.948zm7.366 4.301c-.638 0-1.14-.161-1.507-.484-.367-.33-.55-.774-.55-1.331 0-.565.183-1.008.55-1.331.367-.323.861-.484 1.485-.484h1.87v-.605c0-.374-.114-.66-.341-.858-.22-.205-.535-.308-.946-.308-.36 0-.66.077-.902.231-.242.147-.381.348-.418.605h-.99c.066-.52.312-.935.737-1.243.425-.308.957-.462 1.595-.462.697 0 1.247.18 1.65.539.403.36.605.847.605 1.463V21h-.968v-1.155h-.165l.165-.165c0 .44-.173.788-.517 1.045-.337.257-.788.385-1.353.385zm.242-.781c.47 0 .854-.117 1.155-.352.3-.235.45-.535.45-.902v-.858h-1.847c-.33 0-.59.092-.781.275-.19.183-.286.433-.286.748 0 .337.114.605.34.803.235.19.558.286.969.286zm6.903.781c-.483 0-.909-.092-1.276-.275a1.98 1.98 0 01-.835-.792c-.198-.352-.297-.766-.297-1.243v-1.65c0-.484.099-.898.297-1.243a1.98 1.98 0 01.836-.792c.366-.183.791-.275 1.275-.275.697 0 1.258.187 1.683.561.426.374.65.884.672 1.529h-.99c-.022-.389-.154-.686-.396-.891-.235-.213-.558-.319-.969-.319-.432 0-.777.125-1.034.374-.256.242-.385.59-.385 1.045V18.8c0 .455.129.807.386 1.056.256.25.6.374 1.033.374.411 0 .734-.106.968-.319.242-.213.375-.51.397-.891h.99c-.023.645-.246 1.155-.672 1.529-.425.374-.986.561-1.683.561zm4-.11l-.022-6.05h.924v5.302h1.287V14.95h.792v5.302h1.276V14.95h.913V21h-5.17zm6.904 0v-6.05h.946v3.3c0 .213-.007.436-.022.671a9.355 9.355 0 01-.044.671 7.002 7.002 0 01-.055.528l2.442-5.17h1.265V21h-.946v-3.3c0-.213.004-.436.01-.671.016-.235.034-.458.056-.671l.055-.539L59.97 21h-1.265zm6.574 1.98v-8.03h.99v1.155h.198l-.198.231c0-.462.15-.825.45-1.089.309-.271.712-.407 1.21-.407.61 0 1.093.202 1.453.605.366.396.55.942.55 1.639v1.771c0 .462-.085.862-.253 1.199a1.798 1.798 0 01-.693.781c-.294.183-.646.275-1.056.275-.492 0-.891-.136-1.2-.407-.307-.271-.461-.634-.461-1.089l.198.231h-.22l.022 1.375v1.76h-.99zm2.32-2.728c.419 0 .745-.125.98-.374.242-.25.363-.609.363-1.078v-1.65c0-.47-.121-.829-.363-1.078-.235-.25-.561-.374-.98-.374-.403 0-.725.128-.967.385s-.363.612-.363 1.067v1.65c0 .455.12.81.363 1.067.242.257.564.385.968.385zM71.94 21v-6.05h.99v2.222h1.782c.682 0 1.218.172 1.606.517.396.337.594.803.594 1.397 0 .587-.198 1.052-.594 1.397-.396.345-.931.517-1.606.517H71.94zm.99-.902h1.782c.382 0 .671-.084.87-.253.205-.176.307-.429.307-.759s-.102-.58-.308-.748c-.198-.176-.487-.264-.869-.264H72.93v2.024zm7.333.902v-5.181h-2.2v-.869h5.39v.869h-2.2V21h-.99zm7.09.11c-.476 0-.894-.095-1.253-.286a2.07 2.07 0 01-.825-.803 2.523 2.523 0 01-.286-1.221v-1.65c0-.47.095-.876.286-1.221a2.07 2.07 0 01.825-.803c.359-.19.777-.286 1.254-.286.476 0 .89.095 1.243.286.359.19.634.458.825.803.198.345.297.752.297 1.221v1.067h-3.762v.583c0 .477.12.843.363 1.1.242.25.586.374 1.034.374.381 0 .689-.066.924-.198a.874.874 0 00.429-.616h.99c-.066.506-.316.91-.748 1.21-.426.293-.957.44-1.595.44zm1.398-3.553v-.407c0-.477-.121-.843-.363-1.1-.235-.257-.58-.385-1.034-.385-.448 0-.792.128-1.034.385s-.363.623-.363 1.1v.319h2.87l-.076.088zm11.794 3.531c-.484 0-.902-.092-1.254-.275a1.996 1.996 0 01-.825-.792c-.19-.352-.286-.766-.286-1.243v-1.606c0-.484.095-.898.286-1.243.198-.345.473-.609.825-.792.352-.183.77-.275 1.254-.275s.902.092 1.254.275c.352.183.623.447.814.792.198.345.297.755.297 1.232v1.617c0 .477-.099.891-.297 1.243a1.929 1.929 0 01-.814.792c-.352.183-.77.275-1.254.275zm0-.88c.433 0 .77-.121 1.012-.363s.363-.598.363-1.067v-1.606c0-.47-.121-.825-.363-1.067s-.579-.363-1.012-.363c-.425 0-.763.121-1.012.363-.242.242-.363.598-.363 1.067v1.606c0 .47.121.825.363 1.067.25.242.587.363 1.012.363zm3.846.792l2.145-3.113-2.013-2.937h1.166l1.199 1.87c.051.08.099.169.143.264.051.095.091.172.121.231.022-.059.055-.136.099-.231a3.93 3.93 0 01.154-.264l1.21-1.87h1.155l-2.013 2.948L109.891 21h-1.166l-1.298-1.98a2.846 2.846 0 01-.154-.275 2.512 2.512 0 00-.121-.264c-.03.066-.074.154-.132.264a2.083 2.083 0 01-.165.275L105.546 21h-1.155zm7.08 0v-6.05h2.618c.63 0 1.118.143 1.463.429.344.279.517.671.517 1.177 0 .418-.143.755-.429 1.012-.286.25-.664.374-1.133.374v-.088c.513 0 .924.128 1.232.385.315.257.473.601.473 1.034 0 .543-.184.968-.55 1.276-.367.3-.88.451-1.54.451h-2.651zm.968-.869h1.683c.352 0 .623-.077.814-.231.198-.154.297-.37.297-.649 0-.286-.099-.506-.297-.66-.191-.154-.462-.231-.814-.231h-1.683v1.771zm0-2.629h1.65c.308 0 .55-.073.726-.22.183-.147.275-.352.275-.616s-.088-.47-.264-.616c-.176-.154-.422-.231-.737-.231h-1.65v1.683zm7.365 3.608c-.638 0-1.14-.161-1.507-.484-.366-.33-.55-.774-.55-1.331 0-.565.184-1.008.55-1.331.367-.323.862-.484 1.485-.484h1.87v-.605c0-.374-.113-.66-.341-.858-.22-.205-.535-.308-.946-.308-.359 0-.66.077-.902.231a.823.823 0 00-.418.605h-.99c.066-.52.312-.935.737-1.243.426-.308.957-.462 1.595-.462.697 0 1.247.18 1.65.539.404.36.605.847.605 1.463V21h-.968v-1.155h-.165l.165-.165c0 .44-.172.788-.517 1.045-.337.257-.788.385-1.353.385zm.242-.781c.47 0 .855-.117 1.155-.352.301-.235.451-.535.451-.902v-.858h-1.848c-.33 0-.59.092-.781.275-.19.183-.286.433-.286.748 0 .337.114.605.341.803.235.19.558.286.968.286zm6.387.671v-5.181h-2.2v-.869h5.39v.869h-2.2V21h-.99zm11.42 0v-6.05h.946v3.3c0 .213-.007.436-.022.671a9.185 9.185 0 01-.044.671 6.655 6.655 0 01-.055.528l2.442-5.17h1.265V21h-.946v-3.3c0-.213.004-.436.011-.671.015-.235.033-.458.055-.671l.055-.539L139.118 21h-1.265zm13.192 0v-6.05h2.618c.63 0 1.118.143 1.463.429.344.279.517.671.517 1.177 0 .418-.143.755-.429 1.012-.286.25-.664.374-1.133.374v-.088c.513 0 .924.128 1.232.385.315.257.473.601.473 1.034 0 .543-.184.968-.55 1.276-.367.3-.88.451-1.54.451h-2.651zm.968-.869h1.683c.352 0 .623-.077.814-.231.198-.154.297-.37.297-.649 0-.286-.099-.506-.297-.66-.191-.154-.462-.231-.814-.231h-1.683v1.771zm0-2.629h1.65c.308 0 .55-.073.726-.22.183-.147.275-.352.275-.616s-.088-.47-.264-.616c-.176-.154-.422-.231-.737-.231h-1.65v1.683zm7.893 3.586c-.484 0-.902-.092-1.254-.275a1.996 1.996 0 01-.825-.792c-.19-.352-.286-.766-.286-1.243v-1.606c0-.484.096-.898.286-1.243.198-.345.473-.609.825-.792.352-.183.77-.275 1.254-.275s.902.092 1.254.275c.352.183.624.447.814.792.198.345.297.755.297 1.232v1.617c0 .477-.099.891-.297 1.243a1.92 1.92 0 01-.814.792c-.352.183-.77.275-1.254.275zm0-.88c.433 0 .77-.121 1.012-.363s.363-.598.363-1.067v-1.606c0-.47-.121-.825-.363-1.067s-.579-.363-1.012-.363c-.425 0-.762.121-1.012.363-.242.242-.363.598-.363 1.067v1.606c0 .47.121.825.363 1.067.25.242.587.363 1.012.363zm4.33.792v-6.05h2.618c.631 0 1.118.143 1.463.429.345.279.517.671.517 1.177 0 .418-.143.755-.429 1.012-.286.25-.664.374-1.133.374v-.088c.513 0 .924.128 1.232.385.315.257.473.601.473 1.034 0 .543-.183.968-.55 1.276-.367.3-.88.451-1.54.451h-2.651zm.968-.869h1.683c.352 0 .623-.077.814-.231.198-.154.297-.37.297-.649 0-.286-.099-.506-.297-.66-.191-.154-.462-.231-.814-.231h-1.683v1.771zm0-2.629h1.65c.308 0 .55-.073.726-.22.183-.147.275-.352.275-.616s-.088-.47-.264-.616c-.176-.154-.422-.231-.737-.231h-1.65v1.683zm4.869 3.575v-.924h.198c.337 0 .572-.132.704-.396.139-.264.213-.737.22-1.419l.066-3.388h4.103V21h-.99v-5.148h-2.134l-.055 2.53c-.015.638-.088 1.155-.22 1.551-.125.396-.323.686-.594.869-.264.183-.612.275-1.045.275h-.253zm9.621.033c-.477 0-.895-.095-1.254-.286a2.07 2.07 0 01-.825-.803c-.191-.352-.286-.759-.286-1.221v-1.65c0-.47.095-.876.286-1.221a2.07 2.07 0 01.825-.803c.359-.19.777-.286 1.254-.286.476 0 .891.095 1.243.286.359.19.634.458.825.803.198.345.297.752.297 1.221v1.067h-3.762v.583c0 .477.121.843.363 1.1.242.25.586.374 1.034.374.381 0 .689-.066.924-.198a.878.878 0 00.429-.616h.99c-.066.506-.316.91-.748 1.21-.426.293-.957.44-1.595.44zm1.397-3.553v-.407c0-.477-.121-.843-.363-1.1-.235-.257-.58-.385-1.034-.385-.448 0-.792.128-1.034.385s-.363.623-.363 1.1v.319h2.871l-.077.088zM187.499 21v-2.2c-.117.03-.297.059-.539.088a8.017 8.017 0 01-.748.033c-.748.007-1.331-.172-1.749-.539-.41-.374-.616-.895-.616-1.562v-1.87h.99v1.87c0 .374.125.671.374.891.257.213.609.319 1.056.319.308 0 .569-.011.781-.033.22-.03.371-.055.451-.077v-2.97h.99V21h-.99zm5.386.11c-.477 0-.895-.095-1.254-.286a2.07 2.07 0 01-.825-.803c-.191-.352-.286-.759-.286-1.221v-1.65c0-.47.095-.876.286-1.221a2.07 2.07 0 01.825-.803c.359-.19.777-.286 1.254-.286s.891.095 1.243.286c.359.19.634.458.825.803.198.345.297.752.297 1.221v1.067h-3.762v.583c0 .477.121.843.363 1.1.242.25.587.374 1.034.374.381 0 .689-.066.924-.198a.872.872 0 00.429-.616h.99c-.066.506-.315.91-.748 1.21-.425.293-.957.44-1.595.44zm1.397-3.553v-.407c0-.477-.121-.843-.363-1.1-.235-.257-.579-.385-1.034-.385-.447 0-.792.128-1.034.385s-.363.623-.363 1.1v.319h2.871l-.077.088zM197.215 21v-6.05h.99v2.519h2.552V14.95h.99V21h-.99v-2.629h-2.552V21h-.99zm6.595 0v-6.05h.99v2.519h2.552V14.95h.99V21h-.99v-2.629H204.8V21h-.99zm8.862.088c-.484 0-.902-.092-1.254-.275a1.996 1.996 0 01-.825-.792c-.191-.352-.286-.766-.286-1.243v-1.606c0-.484.095-.898.286-1.243.198-.345.473-.609.825-.792.352-.183.77-.275 1.254-.275s.902.092 1.254.275c.352.183.623.447.814.792.198.345.297.755.297 1.232v1.617c0 .477-.099.891-.297 1.243a1.929 1.929 0 01-.814.792c-.352.183-.77.275-1.254.275zm0-.88c.433 0 .77-.121 1.012-.363s.363-.598.363-1.067v-1.606c0-.47-.121-.825-.363-1.067s-.579-.363-1.012-.363c-.425 0-.763.121-1.012.363-.242.242-.363.598-.363 1.067v1.606c0 .47.121.825.363 1.067.249.242.587.363 1.012.363zm6.618.902c-.484 0-.91-.092-1.276-.275a1.977 1.977 0 01-.836-.792c-.198-.352-.297-.766-.297-1.243v-1.65c0-.484.099-.898.297-1.243.198-.345.476-.609.836-.792.366-.183.792-.275 1.276-.275.696 0 1.257.187 1.683.561.425.374.649.884.671 1.529h-.99c-.022-.389-.154-.686-.396-.891-.235-.213-.558-.319-.968-.319-.433 0-.778.125-1.034.374-.257.242-.385.59-.385 1.045V18.8c0 .455.128.807.385 1.056.256.25.601.374 1.034.374.41 0 .733-.106.968-.319.242-.213.374-.51.396-.891h.99c-.022.645-.246 1.155-.671 1.529-.426.374-.987.561-1.683.561zm6.078-.11v-5.181h-2.2v-.869h5.39v.869h-2.2V21h-.99zm4.869 0v-6.05h.99v2.222h1.782c.682 0 1.218.172 1.606.517.396.337.594.803.594 1.397 0 .587-.198 1.052-.594 1.397-.396.345-.931.517-1.606.517h-2.772zm.99-.902h1.782c.382 0 .671-.084.869-.253.206-.176.308-.429.308-.759s-.102-.58-.308-.748c-.198-.176-.487-.264-.869-.264h-1.782v2.024zm6.343 2.662l.88-3.421h1.43l-1.43 3.421h-.88zM249.98 21v-6.05h4.532V21h-.99v-5.148h-2.552V21h-.99zm8.862.088c-.484 0-.902-.092-1.254-.275a1.996 1.996 0 01-.825-.792c-.191-.352-.286-.766-.286-1.243v-1.606c0-.484.095-.898.286-1.243.198-.345.473-.609.825-.792.352-.183.77-.275 1.254-.275s.902.092 1.254.275c.352.183.623.447.814.792.198.345.297.755.297 1.232v1.617c0 .477-.099.891-.297 1.243a1.929 1.929 0 01-.814.792c-.352.183-.77.275-1.254.275zm0-.88c.433 0 .77-.121 1.012-.363s.363-.598.363-1.067v-1.606c0-.47-.121-.825-.363-1.067s-.579-.363-1.012-.363c-.425 0-.763.121-1.012.363-.242.242-.363.598-.363 1.067v1.606c0 .47.121.825.363 1.067.249.242.587.363 1.012.363zm6.31.869c-.638 0-1.163-.136-1.573-.407a1.612 1.612 0 01-.726-1.1h1.045c.051.183.187.334.407.451.227.117.509.176.847.176h.517c.359 0 .638-.084.836-.253a.815.815 0 00.308-.66c0-.293-.099-.524-.297-.693-.191-.169-.473-.253-.847-.253h-1.331v-.858h1.298c.337 0 .594-.08.77-.242a.824.824 0 00.264-.638.839.839 0 00-.121-.462.702.702 0 00-.341-.286 1.422 1.422 0 00-.561-.099h-.55c-.294 0-.547.066-.759.198-.213.132-.341.293-.385.484h-1.045c.073-.455.311-.829.715-1.122.403-.293.894-.44 1.474-.44h.55c.432 0 .803.07 1.111.209.308.132.542.323.704.572.168.25.253.546.253.891 0 .36-.118.656-.352.891-.235.227-.565.356-.99.385v.044c.52.037.898.176 1.133.418.234.242.352.59.352 1.045 0 .535-.198.96-.594 1.276-.396.315-.928.473-1.595.473h-.517zm4.615-.077v-6.05h2.618c.631 0 1.119.143 1.463.429.345.279.517.671.517 1.177 0 .418-.143.755-.429 1.012-.286.25-.663.374-1.133.374v-.088c.514 0 .924.128 1.232.385.316.257.473.601.473 1.034 0 .543-.183.968-.55 1.276-.366.3-.88.451-1.54.451h-2.651zm.968-.869h1.683c.352 0 .624-.077.814-.231.198-.154.297-.37.297-.649 0-.286-.099-.506-.297-.66-.19-.154-.462-.231-.814-.231h-1.683v1.771zm0-2.629h1.65c.308 0 .55-.073.726-.22.184-.147.275-.352.275-.616s-.088-.47-.264-.616c-.176-.154-.421-.231-.737-.231h-1.65v1.683zm7.894 3.586c-.484 0-.902-.092-1.254-.275a1.996 1.996 0 01-.825-.792c-.191-.352-.286-.766-.286-1.243v-1.606c0-.484.095-.898.286-1.243.198-.345.473-.609.825-.792.352-.183.77-.275 1.254-.275s.902.092 1.254.275c.352.183.623.447.814.792.198.345.297.755.297 1.232v1.617c0 .477-.099.891-.297 1.243a1.929 1.929 0 01-.814.792c-.352.183-.77.275-1.254.275zm0-.88c.433 0 .77-.121 1.012-.363s.363-.598.363-1.067v-1.606c0-.47-.121-.825-.363-1.067s-.579-.363-1.012-.363c-.425 0-.763.121-1.012.363-.242.242-.363.598-.363 1.067v1.606c0 .47.121.825.363 1.067.249.242.587.363 1.012.363zm3.571.869v-.924h.198c.337 0 .572-.132.704-.396.139-.264.212-.737.22-1.419l.066-3.388h4.103V21h-.99v-5.148h-2.134l-.055 2.53c-.015.638-.088 1.155-.22 1.551-.125.396-.323.686-.594.869-.264.183-.613.275-1.045.275h-.253zm7.355-.077v-6.05h.946v3.3c0 .213-.008.436-.022.671a9.779 9.779 0 01-.044.671 7.162 7.162 0 01-.055.528l2.442-5.17h1.265V21h-.946v-3.3c0-.213.003-.436.011-.671.014-.235.033-.458.055-.671l.055-.539L290.82 21h-1.265zm6.595 0v-6.05h2.618c.631 0 1.119.143 1.463.429.345.279.517.671.517 1.177 0 .418-.143.755-.429 1.012-.286.25-.663.374-1.133.374v-.088c.514 0 .924.128 1.232.385.316.257.473.601.473 1.034 0 .543-.183.968-.55 1.276-.366.3-.88.451-1.54.451h-2.651zm.968-.869h1.683c.352 0 .624-.077.814-.231.198-.154.297-.37.297-.649 0-.286-.099-.506-.297-.66-.19-.154-.462-.231-.814-.231h-1.683v1.771zm0-2.629h1.65c.308 0 .55-.073.726-.22.184-.147.275-.352.275-.616s-.088-.47-.264-.616c-.176-.154-.421-.231-.737-.231h-1.65v1.683zM35.62 36v-6.05h4.532V36h-.99v-5.148H36.61V36h-.99zm8.862.088c-.484 0-.902-.092-1.254-.275a1.996 1.996 0 01-.825-.792c-.191-.352-.286-.766-.286-1.243v-1.606c0-.484.095-.898.286-1.243.198-.345.473-.609.825-.792.352-.183.77-.275 1.254-.275s.902.092 1.254.275c.352.183.623.447.814.792.198.345.297.755.297 1.232v1.617c0 .477-.1.891-.297 1.243a1.925 1.925 0 01-.814.792c-.352.183-.77.275-1.254.275zm0-.88c.432 0 .77-.121 1.012-.363s.363-.598.363-1.067v-1.606c0-.47-.121-.825-.363-1.067s-.58-.363-1.012-.363c-.426 0-.763.121-1.012.363-.242.242-.363.598-.363 1.067v1.606c0 .47.12.825.363 1.067.249.242.586.363 1.012.363zm3.57.869v-.924h.198c.338 0 .572-.132.704-.396.14-.264.213-.737.22-1.419l.066-3.388h4.103V36h-.99v-5.148H50.22l-.055 2.53c-.014.638-.088 1.155-.22 1.551-.124.396-.322.686-.594.869-.264.183-.612.275-1.045.275h-.253zM55.451 36v-6.05h.99v2.222h1.782c.682 0 1.217.172 1.606.517.396.337.594.803.594 1.397 0 .587-.198 1.052-.594 1.397-.396.345-.931.517-1.606.517h-2.772zm.99-.902h1.782c.381 0 .671-.084.869-.253.205-.176.308-.429.308-.759s-.103-.58-.308-.748c-.198-.176-.488-.264-.869-.264h-1.782v2.024zm7.542.979c-.638 0-1.163-.136-1.573-.407a1.616 1.616 0 01-.726-1.1h1.045c.051.183.187.334.407.451.227.117.51.176.847.176h.517c.36 0 .638-.084.836-.253a.814.814 0 00.308-.66c0-.293-.1-.524-.297-.693-.19-.169-.473-.253-.847-.253h-1.331v-.858h1.298c.337 0 .594-.08.77-.242a.824.824 0 00.264-.638.834.834 0 00-.121-.462.7.7 0 00-.341-.286 1.422 1.422 0 00-.561-.099h-.55a1.41 1.41 0 00-.76.198c-.212.132-.34.293-.384.484h-1.045c.073-.455.311-.829.715-1.122.403-.293.894-.44 1.474-.44h.55c.432 0 .803.07 1.11.209.309.132.543.323.705.572.168.25.253.546.253.891 0 .36-.118.656-.352.891-.235.227-.565.356-.99.385v.044c.52.037.898.176 1.133.418.234.242.352.59.352 1.045 0 .535-.198.96-.594 1.276-.396.315-.928.473-1.595.473h-.517zm6.882.011c-.484 0-.902-.092-1.254-.275a1.996 1.996 0 01-.826-.792c-.19-.352-.285-.766-.285-1.243v-1.606c0-.484.095-.898.285-1.243a2 2 0 01.826-.792c.352-.183.77-.275 1.254-.275s.901.092 1.254.275c.352.183.623.447.814.792.197.345.296.755.296 1.232v1.617c0 .477-.099.891-.296 1.243a1.928 1.928 0 01-.815.792c-.352.183-.77.275-1.253.275zm0-.88c.432 0 .77-.121 1.011-.363.242-.242.364-.598.364-1.067v-1.606c0-.47-.121-.825-.364-1.067-.242-.242-.579-.363-1.011-.363-.426 0-.763.121-1.012.363-.242.242-.363.598-.363 1.067v1.606c0 .47.12.825.363 1.067.249.242.586.363 1.012.363zm4.33.792v-6.05h2.617c.63 0 1.118.143 1.463.429.345.279.517.671.517 1.177 0 .418-.143.755-.429 1.012-.286.25-.663.374-1.133.374v-.088c.513 0 .924.128 1.232.385.316.257.473.601.473 1.034 0 .543-.183.968-.55 1.276-.367.3-.88.451-1.54.451h-2.65zm.967-.869h1.683c.352 0 .624-.077.814-.231.198-.154.297-.37.297-.649 0-.286-.099-.506-.297-.66-.19-.154-.462-.231-.814-.231h-1.683v1.771zm0-2.629h1.65c.308 0 .55-.073.726-.22.184-.147.275-.352.275-.616s-.088-.47-.264-.616c-.176-.154-.422-.231-.737-.231h-1.65v1.683zm7.366 3.608c-.638 0-1.14-.161-1.507-.484-.367-.33-.55-.774-.55-1.331 0-.565.183-1.008.55-1.331.367-.323.861-.484 1.485-.484h1.87v-.605c0-.374-.114-.66-.341-.858-.22-.205-.535-.308-.946-.308-.36 0-.66.077-.902.231-.242.147-.382.348-.418.605h-.99c.066-.52.312-.935.737-1.243.425-.308.957-.462 1.595-.462.697 0 1.246.18 1.65.539.403.36.605.847.605 1.463V36h-.968v-1.155h-.165l.165-.165c0 .44-.172.788-.517 1.045-.338.257-.788.385-1.353.385zm.242-.781c.47 0 .854-.117 1.155-.352.3-.235.45-.535.45-.902v-.858h-1.847c-.33 0-.59.092-.781.275-.19.183-.286.433-.286.748 0 .337.114.605.34.803.236.19.558.286.969.286zm6.387.671v-5.181h-2.2v-.869h5.39v.869h-2.2V36h-.99zm7.09.11c-.476 0-.894-.095-1.254-.286a2.07 2.07 0 01-.825-.803 2.523 2.523 0 01-.286-1.221v-1.65c0-.47.096-.876.286-1.221a2.07 2.07 0 01.825-.803c.36-.19.778-.286 1.254-.286.477 0 .891.095 1.243.286.36.19.635.458.825.803.198.345.297.752.297 1.221v1.067H95.85v.583c0 .477.121.843.363 1.1.242.25.587.374 1.034.374.382 0 .69-.066.924-.198a.874.874 0 00.43-.616h.99c-.067.506-.316.91-.749 1.21-.425.293-.957.44-1.595.44zm1.397-3.553v-.407c0-.477-.12-.843-.363-1.1-.234-.257-.58-.385-1.034-.385-.447 0-.792.128-1.034.385s-.363.623-.363 1.1v.319h2.871l-.077.088zm2.174 3.52v-.924h.198c.337 0 .572-.132.704-.396.139-.264.213-.737.22-1.419l.066-3.388h4.103V36h-.99v-5.148h-2.134l-.055 2.53c-.015.638-.088 1.155-.22 1.551-.125.396-.323.686-.594.869-.264.183-.612.275-1.045.275h-.253zm6.981-.077l1.551-2.332c-.462-.11-.822-.323-1.078-.638-.25-.315-.374-.708-.374-1.177 0-.594.194-1.06.583-1.397.396-.337.935-.506 1.617-.506h2.607V36h-.99v-2.255h-1.331L108.954 36h-1.155zm2.299-3.135h1.617V30.83h-1.617c-.367 0-.657.092-.869.275-.213.176-.319.425-.319.748 0 .315.106.565.319.748.212.176.502.264.869.264zM114.57 36v-6.05h1.342l.792 2.321c.081.235.154.47.22.704.066.227.114.403.143.528.03-.125.074-.3.132-.528a39.6 39.6 0 01.209-.715l.748-2.31h1.342V36h-.957v-.935c0-.33.004-.69.011-1.078l.022-1.177.044-1.122c.015-.36.026-.675.033-.946l-1.078 3.443h-1.045l-1.089-3.421c.015.33.026.74.033 1.232.015.491.026 1.005.033 1.54.015.535.022 1.045.022 1.529V36h-.957zm12.631.077v-.924h.198c.337 0 .572-.132.704-.396.139-.264.212-.737.22-1.419l.066-3.388h4.103V36h-.99v-5.148h-2.134l-.055 2.53c-.015.638-.088 1.155-.22 1.551-.125.396-.323.686-.594.869-.264.183-.613.275-1.045.275h-.253zm9.62.033c-.476 0-.894-.095-1.254-.286a2.07 2.07 0 01-.825-.803 2.531 2.531 0 01-.286-1.221v-1.65c0-.47.096-.876.286-1.221a2.07 2.07 0 01.825-.803c.36-.19.778-.286 1.254-.286.477 0 .891.095 1.243.286.36.19.635.458.825.803.198.345.297.752.297 1.221v1.067h-3.762v.583c0 .477.121.843.363 1.1.242.25.587.374 1.034.374.382 0 .69-.066.924-.198a.872.872 0 00.429-.616h.99c-.066.506-.315.91-.748 1.21-.425.293-.957.44-1.595.44zm1.397-3.553v-.407c0-.477-.121-.843-.363-1.1-.234-.257-.579-.385-1.034-.385-.447 0-.792.128-1.034.385s-.363.623-.363 1.1v.319h2.871l-.077.088zM141.547 36v-6.05h4.345v.902h-3.355V36h-.99zm6.233 0v-6.05h.99v2.497h1.034l1.76-2.497h1.133l-2.035 2.882L152.73 36h-1.155l-1.76-2.695h-1.045V36h-.99zm8.829.088c-.484 0-.902-.092-1.254-.275a1.996 1.996 0 01-.825-.792c-.191-.352-.286-.766-.286-1.243v-1.606c0-.484.095-.898.286-1.243.198-.345.473-.609.825-.792.352-.183.77-.275 1.254-.275s.902.092 1.254.275c.352.183.623.447.814.792.198.345.297.755.297 1.232v1.617c0 .477-.099.891-.297 1.243a1.929 1.929 0 01-.814.792c-.352.183-.77.275-1.254.275zm0-.88c.432 0 .77-.121 1.012-.363s.363-.598.363-1.067v-1.606c0-.47-.121-.825-.363-1.067s-.58-.363-1.012-.363c-.426 0-.763.121-1.012.363-.242.242-.363.598-.363 1.067v1.606c0 .47.121.825.363 1.067.249.242.586.363 1.012.363zm10.221 2.332v-2.387h.495c.125-.125.253-.37.385-.737.139-.367.213-.832.22-1.397l.066-3.069h3.949v5.203h.77v2.387h-.88V36h-4.125v1.54h-.88zm1.54-2.387h2.585V30.83h-2.024l-.044 2.211c-.007.58-.07 1.049-.187 1.408-.117.36-.227.594-.33.704zm8.026.957c-.477 0-.895-.095-1.254-.286a2.07 2.07 0 01-.825-.803c-.191-.352-.286-.759-.286-1.221v-1.65c0-.47.095-.876.286-1.221a2.07 2.07 0 01.825-.803c.359-.19.777-.286 1.254-.286.476 0 .891.095 1.243.286.359.19.634.458.825.803.198.345.297.752.297 1.221v1.067h-3.762v.583c0 .477.121.843.363 1.1.242.25.586.374 1.034.374.381 0 .689-.066.924-.198a.878.878 0 00.429-.616h.99c-.066.506-.316.91-.748 1.21-.426.293-.957.44-1.595.44zm1.397-3.553v-.407c0-.477-.121-.843-.363-1.1-.235-.257-.58-.385-1.034-.385-.448 0-.792.128-1.034.385s-.363.623-.363 1.1v.319h2.871l-.077.088zm2.173 3.52v-.924h.198c.338 0 .572-.132.704-.396.14-.264.213-.737.22-1.419l.066-3.388h4.103V36h-.99v-5.148h-2.134l-.055 2.53c-.014.638-.088 1.155-.22 1.551-.124.396-.322.686-.594.869-.264.183-.612.275-1.045.275h-.253zm7.355-.077v-6.05h.946v3.3c0 .213-.007.436-.022.671a9.185 9.185 0 01-.044.671 7.162 7.162 0 01-.055.528l2.442-5.17h1.265V36h-.946v-3.3c0-.213.004-.436.011-.671.015-.235.033-.458.055-.671l.055-.539L188.586 36h-1.265zm8.367 0v-5.181h-2.2v-.869h5.39v.869h-2.2V36h-.99zm4.869 0v-6.05h.99v2.222h1.782c.682 0 1.217.172 1.606.517.396.337.594.803.594 1.397 0 .587-.198 1.052-.594 1.397-.396.345-.932.517-1.606.517h-2.772zm.99-.902h1.782c.381 0 .671-.084.869-.253.205-.176.308-.429.308-.759s-.103-.58-.308-.748c-.198-.176-.488-.264-.869-.264h-1.782v2.024zm7.849 1.012c-.484 0-.909-.092-1.276-.275a1.982 1.982 0 01-.836-.792c-.198-.352-.297-.766-.297-1.243v-1.65c0-.484.099-.898.297-1.243.198-.345.477-.609.836-.792.367-.183.792-.275 1.276-.275.697 0 1.258.187 1.683.561.426.374.649.884.671 1.529h-.99c-.022-.389-.154-.686-.396-.891-.234-.213-.557-.319-.968-.319-.432 0-.777.125-1.034.374-.256.242-.385.59-.385 1.045V33.8c0 .455.129.807.385 1.056.257.25.602.374 1.034.374.411 0 .734-.106.968-.319.242-.213.374-.51.396-.891h.99c-.022.645-.245 1.155-.671 1.529-.425.374-.986.561-1.683.561zm3.934-.11l1.551-2.332c-.462-.11-.821-.323-1.078-.638-.249-.315-.374-.708-.374-1.177 0-.594.194-1.06.583-1.397.396-.337.935-.506 1.617-.506h2.607V36h-.99v-2.255h-1.331L214.485 36h-1.155zm2.299-3.135h1.617V30.83h-1.617c-.367 0-.656.092-.869.275-.213.176-.319.425-.319.748 0 .315.106.565.319.748.213.176.502.264.869.264zM226.928 36v-6.05h.99v2.497h1.034l1.76-2.497h1.133l-2.035 2.882L231.878 36h-1.155l-1.76-2.695h-1.045V36h-.99zm8.829.088c-.484 0-.902-.092-1.254-.275a1.996 1.996 0 01-.825-.792c-.191-.352-.286-.766-.286-1.243v-1.606c0-.484.095-.898.286-1.243.198-.345.473-.609.825-.792.352-.183.77-.275 1.254-.275s.902.092 1.254.275c.352.183.623.447.814.792.198.345.297.755.297 1.232v1.617c0 .477-.099.891-.297 1.243a1.929 1.929 0 01-.814.792c-.352.183-.77.275-1.254.275zm0-.88c.433 0 .77-.121 1.012-.363s.363-.598.363-1.067v-1.606c0-.47-.121-.825-.363-1.067s-.579-.363-1.012-.363c-.425 0-.763.121-1.012.363-.242.242-.363.598-.363 1.067v1.606c0 .47.121.825.363 1.067.249.242.587.363 1.012.363zm4.33.792v-6.05h.99v2.519h2.552V29.95h.99V36h-.99v-2.629h-2.552V36h-.99zm8.366 0v-5.181h-2.2v-.869h5.39v.869h-2.2V36h-.99zm7.091.11c-.477 0-.895-.095-1.254-.286a2.07 2.07 0 01-.825-.803c-.191-.352-.286-.759-.286-1.221v-1.65c0-.47.095-.876.286-1.221a2.07 2.07 0 01.825-.803c.359-.19.777-.286 1.254-.286s.891.095 1.243.286c.359.19.634.458.825.803.198.345.297.752.297 1.221v1.067h-3.762v.583c0 .477.121.843.363 1.1.242.25.587.374 1.034.374.381 0 .689-.066.924-.198a.872.872 0 00.429-.616h.99c-.066.506-.315.91-.748 1.21-.425.293-.957.44-1.595.44zm1.397-3.553v-.407c0-.477-.121-.843-.363-1.1-.235-.257-.579-.385-1.034-.385-.447 0-.792.128-1.034.385s-.363.623-.363 1.1v.319h2.871l-.077.088zM259.874 36v-6.05h.99v2.519h2.552V29.95h.99V36h-.99v-2.629h-2.552V36h-.99zm8.367 0v-5.181h-2.2v-.869h5.39v.869h-2.2V36h-.99zm7.09.088c-.484 0-.902-.092-1.254-.275a1.996 1.996 0 01-.825-.792c-.19-.352-.286-.766-.286-1.243v-1.606c0-.484.096-.898.286-1.243.198-.345.473-.609.825-.792.352-.183.77-.275 1.254-.275s.902.092 1.254.275c.352.183.624.447.814.792.198.345.297.755.297 1.232v1.617c0 .477-.099.891-.297 1.243a1.92 1.92 0 01-.814.792c-.352.183-.77.275-1.254.275zm0-.88c.433 0 .77-.121 1.012-.363s.363-.598.363-1.067v-1.606c0-.47-.121-.825-.363-1.067s-.579-.363-1.012-.363c-.425 0-.762.121-1.012.363-.242.242-.363.598-.363 1.067v1.606c0 .47.121.825.363 1.067.25.242.587.363 1.012.363zm4.132.792v-6.05h1.342l.792 2.321c.081.235.154.47.22.704.066.227.114.403.143.528.029-.125.073-.3.132-.528a39.6 39.6 0 01.209-.715l.748-2.31h1.342V36h-.957v-.935c0-.33.004-.69.011-1.078l.022-1.177c.015-.396.029-.77.044-1.122.015-.36.026-.675.033-.946l-1.078 3.443h-1.045l-1.089-3.421c.015.33.026.74.033 1.232.015.491.026 1.005.033 1.54.015.535.022 1.045.022 1.529V36h-.957zm13.389 0v-6.05h.946v3.3c0 .213-.007.436-.022.671a9.185 9.185 0 01-.044.671 6.655 6.655 0 01-.055.528l2.442-5.17h1.265V36h-.946v-3.3c0-.213.004-.436.011-.671.015-.235.033-.458.055-.671l.055-.539L294.117 36h-1.265zM15.129 52.54v-2.387h.495c.124-.125.253-.37.385-.737.14-.367.212-.832.22-1.397l.066-3.069h3.949v5.203h.77v2.387h-.88V51h-4.125v1.54h-.88zm1.54-2.387h2.585V45.83H17.23l-.044 2.211c-.008.58-.07 1.049-.187 1.408-.117.36-.227.594-.33.704zm8.026.935c-.485 0-.902-.092-1.255-.275a1.996 1.996 0 01-.825-.792c-.19-.352-.285-.766-.285-1.243v-1.606c0-.484.095-.898.286-1.243.198-.345.473-.609.825-.792.352-.183.77-.275 1.254-.275.483 0 .901.092 1.253.275.352.183.624.447.814.792.198.345.297.755.297 1.232v1.617c0 .477-.099.891-.297 1.243a1.92 1.92 0 01-.814.792c-.352.183-.77.275-1.253.275zm0-.88c.432 0 .77-.121 1.011-.363.242-.242.364-.598.364-1.067v-1.606c0-.47-.122-.825-.364-1.067-.241-.242-.579-.363-1.011-.363-.426 0-.763.121-1.012.363-.242.242-.363.598-.363 1.067v1.606c0 .47.12.825.363 1.067.249.242.586.363 1.012.363zm6.617.902c-.484 0-.91-.092-1.276-.275a1.98 1.98 0 01-.836-.792c-.198-.352-.297-.766-.297-1.243v-1.65c0-.484.1-.898.297-1.243a1.98 1.98 0 01.836-.792c.367-.183.792-.275 1.276-.275.697 0 1.258.187 1.683.561.426.374.65.884.671 1.529h-.99c-.022-.389-.154-.686-.396-.891-.234-.213-.557-.319-.968-.319-.432 0-.777.125-1.034.374-.256.242-.385.59-.385 1.045V48.8c0 .455.129.807.385 1.056.257.25.602.374 1.034.374.41 0 .734-.106.968-.319.242-.213.374-.51.396-.891h.99c-.022.645-.245 1.155-.67 1.529-.426.374-.987.561-1.684.561zm6.079-.11v-5.181h-2.2v-.869h5.39v.869h-2.2V51h-.99zm4.825 0v-6.05h.946v3.3c0 .213-.008.436-.022.671a9.355 9.355 0 01-.044.671 6.95 6.95 0 01-.055.528l2.442-5.17h1.265V51h-.946v-3.3c0-.213.003-.436.01-.671.015-.235.034-.458.056-.671l.055-.539L43.48 51h-1.265zm5.76 0l1.32-3.102-1.233-2.948h.957l1.056 2.64h.583v-2.64h.836v2.64h.561l1.09-2.64h.945l-1.232 2.915L54.18 51h-.99l-1.1-2.75h-.594V51h-.836v-2.75h-.594L48.955 51h-.98zm9.697.11c-.477 0-.895-.095-1.254-.286a2.07 2.07 0 01-.825-.803 2.524 2.524 0 01-.286-1.221v-1.65c0-.47.095-.876.286-1.221a2.07 2.07 0 01.825-.803c.36-.19.777-.286 1.254-.286s.891.095 1.243.286c.36.19.634.458.825.803.198.345.297.752.297 1.221v1.067h-3.762v.583c0 .477.121.843.363 1.1.242.25.587.374 1.034.374.381 0 .69-.066.924-.198a.874.874 0 00.429-.616h.99c-.066.506-.315.91-.748 1.21-.425.293-.957.44-1.595.44zm1.397-3.553v-.407c0-.477-.121-.843-.363-1.1-.235-.257-.58-.385-1.034-.385-.447 0-.792.128-1.034.385s-.363.623-.363 1.1v.319h2.871l-.077.088zM62.003 51v-6.05h.99v2.519h2.552V44.95h.99V51h-.99v-2.629h-2.552V51h-.99zm6.596 0v-6.05h.945v3.3c0 .213-.007.436-.022.671a9.413 9.413 0 01-.044.671 7.002 7.002 0 01-.054.528l2.441-5.17h1.266V51h-.947v-3.3c0-.213.004-.436.011-.671.015-.235.034-.458.056-.671.021-.22.04-.4.054-.539L69.863 51H68.6zm6.221 0l1.551-2.332c-.462-.11-.821-.323-1.078-.638-.25-.315-.374-.708-.374-1.177 0-.594.195-1.06.583-1.397.396-.337.935-.506 1.617-.506h2.607V51h-.99v-2.255h-1.33L75.975 51H74.82zm2.3-3.135h1.616V45.83H77.12c-.367 0-.656.092-.869.275-.213.176-.319.425-.319.748 0 .315.106.565.32.748.212.176.501.264.868.264zM81.591 51v-6.05h1.342l.792 2.321c.08.235.154.47.22.704.066.227.114.403.143.528.03-.125.073-.3.132-.528.066-.235.135-.473.209-.715l.748-2.31h1.342V51h-.957v-.935c0-.33.004-.69.01-1.078l.023-1.177c.014-.396.03-.77.044-1.122.014-.36.025-.675.033-.946l-1.078 3.443H83.55l-1.09-3.421c.016.33.027.74.034 1.232.014.491.025 1.005.033 1.54.014.535.022 1.045.022 1.529V51h-.957zm6.794 0v-6.05h.946v3.3c0 .213-.008.436-.022.671a9.413 9.413 0 01-.044.671 7.002 7.002 0 01-.055.528l2.442-5.17h1.265V51h-.946v-3.3c0-.213.003-.436.01-.671.015-.235.034-.458.056-.671l.055-.539L89.65 51h-1.265zm13.191 0v-6.05h.946v3.3c0 .213-.007.436-.022.671a9.185 9.185 0 01-.044.671 7.162 7.162 0 01-.055.528l2.442-5.17h1.265V51h-.946v-3.3c0-.213.004-.436.011-.671.015-.235.033-.458.055-.671l.055-.539L102.842 51h-1.265zm8.576.077c-.638 0-1.163-.136-1.573-.407a1.612 1.612 0 01-.726-1.1h1.045c.051.183.187.334.407.451.227.117.509.176.847.176h.517c.359 0 .638-.084.836-.253a.815.815 0 00.308-.66c0-.293-.099-.524-.297-.693-.191-.169-.473-.253-.847-.253h-1.331v-.858h1.298c.337 0 .594-.08.77-.242a.824.824 0 00.264-.638.839.839 0 00-.121-.462.702.702 0 00-.341-.286 1.422 1.422 0 00-.561-.099h-.55c-.294 0-.547.066-.759.198-.213.132-.341.293-.385.484h-1.045c.073-.455.311-.829.715-1.122.403-.293.894-.44 1.474-.44h.55c.432 0 .803.07 1.111.209.308.132.542.323.704.572.168.25.253.546.253.891 0 .36-.118.656-.352.891-.235.227-.565.356-.99.385v.044c.52.037.898.176 1.133.418.234.242.352.59.352 1.045 0 .535-.198.96-.594 1.276-.396.315-.928.473-1.595.473h-.517zm13.477.033c-.711 0-1.276-.209-1.694-.627-.411-.425-.616-1.005-.616-1.738v-2.75c0-.968.242-1.712.726-2.233.484-.528 1.177-.792 2.079-.792h1.54v.99h-1.54c-.594 0-1.045.176-1.353.528-.308.345-.462.847-.462 1.507v.715h.154l-.154.22c.007-.433.154-.77.44-1.012.286-.242.675-.363 1.166-.363.638 0 1.133.205 1.485.616.359.41.539.975.539 1.694v.88c0 .491-.092.913-.275 1.265a1.924 1.924 0 01-.792.814c-.345.19-.759.286-1.243.286zm0-.88c.425 0 .752-.128.979-.385.227-.257.341-.623.341-1.1v-.88c0-.477-.114-.843-.341-1.1-.227-.257-.554-.385-.979-.385-.425 0-.752.128-.979.385-.227.25-.341.616-.341 1.1v.88c0 .477.114.843.341 1.1.227.257.554.385.979.385zm6.596.858c-.484 0-.902-.092-1.254-.275a1.996 1.996 0 01-.825-.792c-.191-.352-.286-.766-.286-1.243v-1.606c0-.484.095-.898.286-1.243.198-.345.473-.609.825-.792.352-.183.77-.275 1.254-.275s.902.092 1.254.275c.352.183.623.447.814.792.198.345.297.755.297 1.232v1.617c0 .477-.099.891-.297 1.243a1.929 1.929 0 01-.814.792c-.352.183-.77.275-1.254.275zm0-.88c.432 0 .77-.121 1.012-.363s.363-.598.363-1.067v-1.606c0-.47-.121-.825-.363-1.067s-.58-.363-1.012-.363c-.426 0-.763.121-1.012.363-.242.242-.363.598-.363 1.067v1.606c0 .47.121.825.363 1.067.249.242.586.363 1.012.363zm6.1.792v-5.181h-2.2v-.869h5.39v.869h-2.2V51h-.99zm6.563.11c-.638 0-1.14-.161-1.507-.484-.366-.33-.55-.774-.55-1.331 0-.565.184-1.008.55-1.331.367-.323.862-.484 1.485-.484h1.87v-.605c0-.374-.113-.66-.341-.858-.22-.205-.535-.308-.946-.308-.359 0-.66.077-.902.231a.823.823 0 00-.418.605h-.99c.066-.52.312-.935.737-1.243.426-.308.957-.462 1.595-.462.697 0 1.247.18 1.65.539.404.36.605.847.605 1.463V51h-.968v-1.155h-.165l.165-.165c0 .44-.172.788-.517 1.045-.337.257-.788.385-1.353.385zm.242-.781c.47 0 .855-.117 1.155-.352.301-.235.451-.535.451-.902v-.858h-1.848c-.33 0-.59.092-.781.275-.19.183-.286.433-.286.748 0 .337.114.605.341.803.235.19.558.286.968.286zm11.212.671v-6.05h2.618c.63 0 1.118.143 1.463.429.344.279.517.671.517 1.177 0 .418-.143.755-.429 1.012-.286.25-.664.374-1.133.374v-.088c.513 0 .924.128 1.232.385.315.257.473.601.473 1.034 0 .543-.184.968-.55 1.276-.367.3-.88.451-1.54.451h-2.651zm.968-.869h1.683c.352 0 .623-.077.814-.231.198-.154.297-.37.297-.649 0-.286-.099-.506-.297-.66-.191-.154-.462-.231-.814-.231h-1.683v1.771zm0-2.629h1.65c.308 0 .55-.073.726-.22.183-.147.275-.352.275-.616s-.088-.47-.264-.616c-.176-.154-.422-.231-.737-.231h-1.65v1.683zm14.511 3.608c-.484 0-.909-.092-1.276-.275a1.982 1.982 0 01-.836-.792c-.198-.352-.297-.766-.297-1.243v-1.65c0-.484.099-.898.297-1.243.198-.345.477-.609.836-.792.367-.183.792-.275 1.276-.275.697 0 1.258.187 1.683.561.425.374.649.884.671 1.529h-.99c-.022-.389-.154-.686-.396-.891-.235-.213-.557-.319-.968-.319-.433 0-.777.125-1.034.374-.257.242-.385.59-.385 1.045V48.8c0 .455.128.807.385 1.056.257.25.601.374 1.034.374.411 0 .733-.106.968-.319.242-.213.374-.51.396-.891h.99c-.022.645-.246 1.155-.671 1.529-.425.374-.986.561-1.683.561zm4.308-.11v-6.05h2.618c.63 0 1.118.143 1.463.429.344.279.517.671.517 1.177 0 .418-.143.755-.429 1.012-.286.25-.664.374-1.133.374v-.088c.513 0 .924.128 1.232.385.315.257.473.601.473 1.034 0 .543-.184.968-.55 1.276-.367.3-.88.451-1.54.451h-2.651zm.968-.869h1.683c.352 0 .623-.077.814-.231.198-.154.297-.37.297-.649 0-.286-.099-.506-.297-.66-.191-.154-.462-.231-.814-.231h-1.683v1.771zm0-2.629h1.65c.308 0 .55-.073.726-.22.183-.147.275-.352.275-.616s-.088-.47-.264-.616c-.176-.154-.422-.231-.737-.231h-1.65v1.683zm7.893 3.586c-.484 0-.902-.092-1.254-.275a1.996 1.996 0 01-.825-.792c-.19-.352-.286-.766-.286-1.243v-1.606c0-.484.096-.898.286-1.243.198-.345.473-.609.825-.792.352-.183.77-.275 1.254-.275s.902.092 1.254.275c.352.183.624.447.814.792.198.345.297.755.297 1.232v1.617c0 .477-.099.891-.297 1.243a1.92 1.92 0 01-.814.792c-.352.183-.77.275-1.254.275zm0-.88c.433 0 .77-.121 1.012-.363s.363-.598.363-1.067v-1.606c0-.47-.121-.825-.363-1.067s-.579-.363-1.012-.363c-.425 0-.762.121-1.012.363-.242.242-.363.598-.363 1.067v1.606c0 .47.121.825.363 1.067.25.242.587.363 1.012.363zm4.33.792v-6.05h.946v3.3c0 .213-.007.436-.022.671a9.185 9.185 0 01-.044.671 7.162 7.162 0 01-.055.528l2.442-5.17h1.265V51h-.946v-3.3c0-.213.004-.436.011-.671.015-.235.033-.458.055-.671l.055-.539L188.586 51h-1.265zm6.112 0l2.145-3.113-2.013-2.937h1.166l1.199 1.87c.051.08.099.169.143.264.051.095.091.172.121.231.022-.059.055-.136.099-.231a3.93 3.93 0 01.154-.264l1.21-1.87h1.155l-2.013 2.948L198.933 51h-1.166l-1.298-1.98a2.846 2.846 0 01-.154-.275 2.512 2.512 0 00-.121-.264c-.03.066-.074.154-.132.264a2.083 2.083 0 01-.165.275L194.588 51h-1.155zm15.963.11c-.484 0-.909-.092-1.276-.275a1.982 1.982 0 01-.836-.792c-.198-.352-.297-.766-.297-1.243v-1.65c0-.484.099-.898.297-1.243.198-.345.477-.609.836-.792.367-.183.792-.275 1.276-.275.697 0 1.258.187 1.683.561.426.374.649.884.671 1.529h-.99c-.022-.389-.154-.686-.396-.891-.234-.213-.557-.319-.968-.319-.432 0-.777.125-1.034.374-.256.242-.385.59-.385 1.045V48.8c0 .455.129.807.385 1.056.257.25.602.374 1.034.374.411 0 .734-.106.968-.319.242-.213.374-.51.396-.891h.99c-.022.645-.245 1.155-.671 1.529-.425.374-.986.561-1.683.561zm6.574-.022c-.484 0-.902-.092-1.254-.275a1.996 1.996 0 01-.825-.792c-.191-.352-.286-.766-.286-1.243v-1.606c0-.484.095-.898.286-1.243.198-.345.473-.609.825-.792.352-.183.77-.275 1.254-.275s.902.092 1.254.275c.352.183.623.447.814.792.198.345.297.755.297 1.232v1.617c0 .477-.099.891-.297 1.243a1.929 1.929 0 01-.814.792c-.352.183-.77.275-1.254.275zm0-.88c.433 0 .77-.121 1.012-.363s.363-.598.363-1.067v-1.606c0-.47-.121-.825-.363-1.067s-.579-.363-1.012-.363c-.425 0-.763.121-1.012.363-.242.242-.363.598-.363 1.067v1.606c0 .47.121.825.363 1.067.249.242.587.363 1.012.363zm8.631 2.332V51h-4.3v-6.05h.99v5.17h2.376v-5.17h.99v5.17h.825v2.42h-.88zm2.294-1.54v-6.05h.946v3.3c0 .213-.007.436-.022.671a9.185 9.185 0 01-.044.671 6.655 6.655 0 01-.055.528l2.442-5.17h1.265V51h-.946v-3.3c0-.213.004-.436.011-.671.015-.235.033-.458.055-.671l.055-.539L228.16 51h-1.265zm8.334.11c-.638 0-1.14-.161-1.507-.484-.367-.33-.55-.774-.55-1.331 0-.565.183-1.008.55-1.331.367-.323.862-.484 1.485-.484h1.87v-.605c0-.374-.114-.66-.341-.858-.22-.205-.535-.308-.946-.308-.359 0-.66.077-.902.231a.823.823 0 00-.418.605h-.99c.066-.52.312-.935.737-1.243.425-.308.957-.462 1.595-.462.697 0 1.247.18 1.65.539.403.36.605.847.605 1.463V51h-.968v-1.155h-.165l.165-.165c0 .44-.172.788-.517 1.045-.337.257-.788.385-1.353.385zm.242-.781c.469 0 .854-.117 1.155-.352.301-.235.451-.535.451-.902v-.858h-1.848c-.33 0-.59.092-.781.275-.191.183-.286.433-.286.748 0 .337.114.605.341.803.235.19.557.286.968.286zm3.857.748v-.924h.198c.337 0 .572-.132.704-.396.139-.264.212-.737.22-1.419l.066-3.388h4.103V51h-.99v-5.148h-2.134l-.055 2.53c-.015.638-.088 1.155-.22 1.551-.125.396-.323.686-.594.869-.264.183-.613.275-1.045.275h-.253zm7.398-.077v-6.05h.99v2.222h1.782c.682 0 1.218.172 1.606.517.396.337.594.803.594 1.397 0 .587-.198 1.052-.594 1.397-.396.345-.931.517-1.606.517h-2.772zm.99-.902h1.782c.382 0 .671-.084.869-.253.206-.176.308-.429.308-.759s-.102-.58-.308-.748c-.198-.176-.487-.264-.869-.264h-1.782v2.024zm5.562.902v-6.05h.99v2.519h2.552V44.95h.99V51h-.99v-2.629h-2.552V51h-.99zm6.277 0v-6.05h.924v2.222h.495c.653 0 1.166.172 1.54.517.381.337.572.803.572 1.397s-.191 1.063-.572 1.408c-.374.337-.887.506-1.54.506h-1.419zm.924-.792h.495c.389 0 .689-.099.902-.297.22-.198.33-.473.33-.825s-.11-.627-.33-.825c-.213-.198-.513-.297-.902-.297h-.495v2.244zM263.8 51v-6.05h.924V51h-.924zm2.185 0l2.145-3.113-2.013-2.937h1.166l1.199 1.87c.051.08.099.169.143.264.051.095.091.172.121.231.022-.059.055-.136.099-.231a3.93 3.93 0 01.154-.264l1.21-1.87h1.155l-2.013 2.948L271.486 51h-1.166l-1.298-1.98a2.846 2.846 0 01-.154-.275 2.512 2.512 0 00-.121-.264c-.03.066-.074.154-.132.264a2.083 2.083 0 01-.165.275L267.141 51h-1.155zm15.963.11c-.484 0-.909-.092-1.276-.275a1.982 1.982 0 01-.836-.792c-.198-.352-.297-.766-.297-1.243v-1.65c0-.484.099-.898.297-1.243.198-.345.477-.609.836-.792.367-.183.792-.275 1.276-.275.697 0 1.258.187 1.683.561.425.374.649.884.671 1.529h-.99c-.022-.389-.154-.686-.396-.891-.235-.213-.557-.319-.968-.319-.433 0-.777.125-1.034.374-.257.242-.385.59-.385 1.045V48.8c0 .455.128.807.385 1.056.257.25.601.374 1.034.374.411 0 .733-.106.968-.319.242-.213.374-.51.396-.891h.99c-.022.645-.246 1.155-.671 1.529-.425.374-.986.561-1.683.561zm6.574 0c-.477 0-.895-.095-1.254-.286a2.07 2.07 0 01-.825-.803c-.191-.352-.286-.759-.286-1.221v-1.65c0-.47.095-.876.286-1.221a2.07 2.07 0 01.825-.803c.359-.19.777-.286 1.254-.286.476 0 .891.095 1.243.286.359.19.634.458.825.803.198.345.297.752.297 1.221v1.067h-3.762v.583c0 .477.121.843.363 1.1.242.25.586.374 1.034.374.381 0 .689-.066.924-.198a.878.878 0 00.429-.616h.99c-.066.506-.316.91-.748 1.21-.426.293-.957.44-1.595.44zm1.397-3.553v-.407c0-.477-.121-.843-.363-1.1-.235-.257-.58-.385-1.034-.385-.448 0-.792.128-1.034.385s-.363.623-.363 1.1v.319h2.871l-.077.088zM294.623 51v-5.181h-2.2v-.869h5.39v.869h-2.2V51h-.99zm4.451 0l1.551-2.332c-.462-.11-.821-.323-1.078-.638-.249-.315-.374-.708-.374-1.177 0-.594.194-1.06.583-1.397.396-.337.935-.506 1.617-.506h2.607V51h-.99v-2.255h-1.331L300.229 51h-1.155zm2.299-3.135h1.617V45.83h-1.617c-.367 0-.656.092-.869.275-.213.176-.319.425-.319.748 0 .315.106.565.319.748.213.176.502.264.869.264zM305.56 51l2.145-3.113-2.013-2.937h1.166l1.199 1.87c.051.08.099.169.143.264.051.095.091.172.121.231.022-.059.055-.136.099-.231a3.93 3.93 0 01.154-.264l1.21-1.87h1.155l-2.013 2.948L311.06 51h-1.166l-1.298-1.98a2.846 2.846 0 01-.154-.275 2.512 2.512 0 00-.121-.264c-.03.066-.074.154-.132.264a2.083 2.083 0 01-.165.275L306.715 51h-1.155zm9.345.11c-.278 0-.502-.08-.671-.242-.161-.161-.242-.378-.242-.649 0-.286.081-.513.242-.682.169-.169.393-.253.671-.253.279 0 .499.084.66.253.169.169.253.396.253.682 0 .271-.084.488-.253.649-.161.161-.381.242-.66.242z" fill="#fff"/><rect x=".5" y=".5" width="328" height="70" rx="10.5" stroke="#CCEC60"/></svg>