<svg width="154" height="214" fill="none" xmlns="http://www.w3.org/2000/svg"><rect x=".421" y=".421" width="152.36" height="212.79" rx="19.579" fill="url(#paint0_linear_2019_27)" fill-opacity=".53" stroke="url(#paint1_linear_2019_27)" stroke-width=".842"/><mask id="a" style="mask-type:alpha" maskUnits="userSpaceOnUse" x="0" y="0" width="154" height="214"><rect x=".421" y=".421" width="152.36" height="212.79" rx="19.579" fill="url(#paint2_linear_2019_27)" fill-opacity=".53" stroke="url(#paint3_linear_2019_27)" stroke-width=".842"/></mask><g filter="url(#filter0_f_2019_27)" mask="url(#a)"><path d="M10 236.955c-5.136 0-9.511-1.398-13.125-4.194-3.614-2.818-6.375-6.897-8.284-12.238-1.91-5.364-2.864-11.841-2.864-19.432 0-7.546.955-13.989 2.864-19.33 1.932-5.363 4.704-9.454 8.318-12.272 3.636-2.841 8-4.262 13.091-4.262 5.09 0 9.443 1.421 13.057 4.262 3.636 2.818 6.409 6.909 8.318 12.272 1.932 5.341 2.898 11.784 2.898 19.33 0 7.591-.955 14.068-2.864 19.432-1.909 5.341-4.67 9.42-8.284 12.238-3.614 2.796-7.989 4.194-13.125 4.194zm0-7.5c5.09 0 9.046-2.455 11.864-7.364 2.818-4.909 4.227-11.909 4.227-21 0-6.046-.648-11.193-1.943-15.443-1.273-4.25-3.114-7.489-5.523-9.716-2.386-2.227-5.261-3.341-8.625-3.341-5.045 0-8.989 2.489-11.83 7.466-2.84 4.954-4.26 11.966-4.26 21.034 0 6.045.635 11.182 1.908 15.409s3.102 7.443 5.489 9.648c2.409 2.204 5.307 3.307 8.693 3.307zm60.818 7.5c-4.5 0-8.511-.773-12.034-2.319-3.5-1.545-6.284-3.693-8.352-6.443-2.046-2.773-3.16-5.988-3.341-9.648h8.59c.183 2.25.955 4.194 2.319 5.83 1.364 1.614 3.148 2.864 5.352 3.75 2.205.886 4.648 1.33 7.33 1.33 3 0 5.659-.523 7.977-1.569 2.318-1.045 4.136-2.5 5.455-4.363 1.318-1.864 1.977-4.023 1.977-6.478 0-2.568-.636-4.829-1.91-6.784-1.272-1.977-3.135-3.522-5.59-4.636-2.455-1.114-5.455-1.67-9-1.67H64v-7.5h5.59c2.774 0 5.206-.5 7.296-1.5 2.114-1 3.762-2.41 4.944-4.228 1.204-1.818 1.806-3.954 1.806-6.409 0-2.363-.522-4.42-1.568-6.17-1.045-1.75-2.522-3.114-4.432-4.091-1.886-.977-4.113-1.466-6.681-1.466-2.41 0-4.682.443-6.819 1.329-2.113.864-3.84 2.125-5.181 3.785-1.341 1.636-2.069 3.613-2.182 5.931H48.59c.136-3.659 1.239-6.863 3.307-9.613 2.068-2.773 4.772-4.932 8.113-6.478 3.364-1.545 7.057-2.318 11.08-2.318 4.318 0 8.023.875 11.114 2.625 3.09 1.728 5.466 4.012 7.124 6.853a17.937 17.937 0 012.49 9.204c0 3.932-1.035 7.284-3.103 10.057-2.045 2.773-4.83 4.693-8.352 5.761v.546c4.409.727 7.852 2.602 10.33 5.625 2.477 3 3.715 6.716 3.715 11.147 0 3.796-1.034 7.205-3.102 10.228-2.046 3-4.841 5.363-8.386 7.091-3.546 1.727-7.58 2.591-12.103 2.591z" fill="#CCEC60"/></g><mask id="b" style="mask-type:alpha" maskUnits="userSpaceOnUse" x="0" y="0" width="153" height="176"><rect x=".494" y=".494" width="152.011" height="175.011" rx="19.506" fill="url(#paint4_linear_2019_27)" fill-opacity=".53" stroke="url(#paint5_linear_2019_27)" stroke-width=".989"/></mask><g mask="url(#b)"><path fill="#C9D9CD" d="M0 0h153.038v52H0z"/></g><path d="M7.94 71v-7.3h4.12V71h-.9v-6.48H8.84V71h-.9zm8.056.08c-.44 0-.82-.083-1.14-.25a1.815 1.815 0 01-.75-.72c-.173-.32-.26-.697-.26-1.13v-1.46c0-.44.087-.817.26-1.13.18-.313.43-.553.75-.72.32-.167.7-.25 1.14-.25.44 0 .82.083 1.14.25.32.167.567.407.74.72.18.313.27.687.27 1.12v1.47c0 .433-.09.81-.27 1.13-.173.313-.42.553-.74.72-.32.167-.7.25-1.14.25zm0-.8c.393 0 .7-.11.92-.33.22-.22.33-.543.33-.97v-1.46c0-.427-.11-.75-.33-.97-.22-.22-.527-.33-.92-.33-.387 0-.693.11-.92.33-.22.22-.33.543-.33.97v1.46c0 .427.11.75.33.97.227.22.533.33.92.33zm6.016.82a2.56 2.56 0 01-1.16-.25 1.801 1.801 0 01-.76-.72c-.18-.32-.27-.697-.27-1.13v-1.5c0-.44.09-.817.27-1.13.18-.313.434-.553.76-.72a2.56 2.56 0 011.16-.25c.633 0 1.143.17 1.53.51.387.34.59.803.61 1.39h-.9c-.02-.353-.14-.623-.36-.81-.213-.193-.506-.29-.88-.29-.393 0-.707.113-.94.34-.233.22-.35.537-.35.95V69c0 .413.117.733.35.96.233.227.547.34.94.34.373 0 .667-.097.88-.29.22-.193.34-.463.36-.81h.9c-.02.587-.223 1.05-.61 1.39-.387.34-.897.51-1.53.51zm3.226-.03v-.84h.18c.307 0 .52-.12.64-.36.127-.24.194-.67.2-1.29l.06-3.08h3.73V71h-.9v-4.68h-1.94l-.05 2.3c-.013.58-.08 1.05-.2 1.41-.113.36-.293.623-.54.79-.24.167-.556.25-.95.25h-.23zm8.746.03c-.433 0-.813-.087-1.14-.26a1.881 1.881 0 01-.75-.73c-.173-.32-.26-.69-.26-1.11v-1.5c0-.427.087-.797.26-1.11.18-.313.43-.557.75-.73.327-.173.707-.26 1.14-.26.434 0 .81.087 1.13.26.327.173.577.417.75.73.18.313.27.683.27 1.11v.97h-3.42V69c0 .433.11.767.33 1 .22.227.534.34.94.34.347 0 .627-.06.84-.18a.795.795 0 00.39-.56h.9a1.53 1.53 0 01-.68 1.1c-.386.267-.87.4-1.45.4zm1.27-3.23v-.37c0-.433-.11-.767-.33-1-.213-.233-.526-.35-.94-.35-.406 0-.72.117-.94.35-.22.233-.33.567-.33 1v.29h2.61l-.07.08zm8.643 4.93v-7.3h.9v1.05h.18l-.18.21c0-.42.136-.75.41-.99.28-.247.646-.37 1.1-.37.553 0 .993.183 1.32.55.333.36.5.857.5 1.49v1.61c0 .42-.077.783-.23 1.09a1.636 1.636 0 01-.63.71c-.267.167-.587.25-.96.25-.447 0-.81-.123-1.09-.37s-.42-.577-.42-.99l.18.21h-.2l.02 1.25v1.6h-.9zm2.11-2.48c.38 0 .676-.113.89-.34.22-.227.33-.553.33-.98v-1.5c0-.427-.11-.753-.33-.98-.214-.227-.51-.34-.89-.34-.367 0-.66.117-.88.35-.22.233-.33.557-.33.97V69c0 .413.11.737.33.97.22.233.513.35.88.35zm5.966.78c-.434 0-.814-.087-1.14-.26a1.881 1.881 0 01-.75-.73c-.174-.32-.26-.69-.26-1.11v-1.5c0-.427.086-.797.26-1.11.18-.313.43-.557.75-.73.326-.173.706-.26 1.14-.26.433 0 .81.087 1.13.26.326.173.576.417.75.73.18.313.27.683.27 1.11v.97h-3.42V69c0 .433.11.767.33 1 .22.227.533.34.94.34.346 0 .626-.06.84-.18a.795.795 0 00.39-.56h.9c-.06.46-.287.827-.68 1.1-.387.267-.87.4-1.45.4zm1.27-3.23v-.37c0-.433-.11-.767-.33-1-.214-.233-.527-.35-.94-.35-.407 0-.72.117-.94.35-.22.233-.33.567-.33 1v.29h2.61l-.07.08zM56.269 71v-5.5h3.95v.82h-3.05V71h-.9zm5.636 0v-5.5h.86v3c0 .193-.007.397-.02.61a8.72 8.72 0 01-.04.61 6.67 6.67 0 01-.05.48l2.22-4.7h1.15V71h-.86v-3c0-.193.003-.397.01-.61.013-.213.03-.417.05-.61l.05-.49-2.22 4.71h-1.15zm8.076.1c-.44 0-.827-.083-1.16-.25a1.802 1.802 0 01-.76-.72c-.18-.32-.27-.697-.27-1.13v-1.5c0-.44.09-.817.27-1.13.18-.313.433-.553.76-.72.333-.167.72-.25 1.16-.25.633 0 1.143.17 1.53.51.387.34.59.803.61 1.39h-.9c-.02-.353-.14-.623-.36-.81-.213-.193-.507-.29-.88-.29-.393 0-.707.113-.94.34-.233.22-.35.537-.35.95V69c0 .413.117.733.35.96.233.227.547.34.94.34.373 0 .667-.097.88-.29.22-.193.34-.463.36-.81h.9c-.02.587-.223 1.05-.61 1.39-.387.34-.897.51-1.53.51zm5.526-.1v-4.71h-2v-.79h4.9v.79h-2V71h-.9zm4.366 1.8v-7.3h.9v1.05h.18l-.18.21c0-.42.137-.75.41-.99.28-.247.647-.37 1.1-.37.553 0 .993.183 1.32.55.334.36.5.857.5 1.49v1.61c0 .42-.076.783-.23 1.09a1.634 1.634 0 01-.63.71c-.266.167-.587.25-.96.25-.447 0-.81-.123-1.09-.37s-.42-.577-.42-.99l.18.21h-.2l.02 1.25v1.6h-.9zm2.11-2.48c.38 0 .677-.113.89-.34.22-.227.33-.553.33-.98v-1.5c0-.427-.11-.753-.33-.98-.213-.227-.51-.34-.89-.34-.367 0-.66.117-.88.35-.22.233-.33.557-.33.97V69c0 .413.11.737.33.97.22.233.514.35.88.35zm5.486.78c-.58 0-1.036-.147-1.37-.44-.333-.3-.5-.703-.5-1.21 0-.513.167-.917.5-1.21.334-.293.784-.44 1.35-.44h1.7v-.55c0-.34-.103-.6-.31-.78-.2-.187-.486-.28-.86-.28-.326 0-.6.07-.82.21a.747.747 0 00-.38.55h-.9c.06-.473.284-.85.67-1.13.387-.28.87-.42 1.45-.42.634 0 1.134.163 1.5.49.367.327.55.77.55 1.33V71h-.88v-1.05h-.15l.15-.15c0 .4-.156.717-.47.95-.306.233-.716.35-1.23.35zm.22-.71c.427 0 .777-.107 1.05-.32a.995.995 0 00.41-.82v-.78h-1.68c-.3 0-.536.083-.71.25-.173.167-.26.393-.26.68 0 .307.104.55.31.73.214.173.507.26.88.26zm8.106 2.01V71h-3.91v-5.5h.9v4.7h2.16v-4.7h.9v4.7h.75v2.2h-.8zm2.086-1.4v-5.5h.86v3c0 .193-.006.397-.02.61-.006.213-.02.417-.04.61-.013.187-.03.347-.05.48l2.22-4.7h1.15V71h-.86v-3c0-.193.004-.397.01-.61.014-.213.03-.417.05-.61l.05-.49-2.22 4.71h-1.15zm5.997 0v-5.5h.86v3c0 .193-.007.397-.02.61a8.72 8.72 0 01-.04.61 6.67 6.67 0 01-.05.48l2.22-4.7h1.15V71h-.86v-3c0-.193.003-.397.01-.61.013-.213.03-.417.05-.61.02-.2.036-.363.05-.49l-2.22 4.71h-1.15zM7.94 84v-5.5h4.12V84h-.9v-4.68H8.84V84h-.9zm8.056.08c-.44 0-.82-.083-1.14-.25a1.815 1.815 0 01-.75-.72c-.173-.32-.26-.697-.26-1.13v-1.46c0-.44.087-.817.26-1.13.18-.313.43-.553.75-.72.32-.167.7-.25 1.14-.25.44 0 .82.083 1.14.25.32.167.567.407.74.72.18.313.27.687.27 1.12v1.47c0 .433-.09.81-.27 1.13-.173.313-.42.553-.74.72-.32.167-.7.25-1.14.25zm0-.8c.393 0 .7-.11.92-.33.22-.22.33-.543.33-.97v-1.46c0-.427-.11-.75-.33-.97-.22-.22-.527-.33-.92-.33-.387 0-.693.11-.92.33-.22.22-.33.543-.33.97v1.46c0 .427.11.75.33.97.227.22.533.33.92.33zm3.246.79v-.84h.18c.307 0 .52-.12.64-.36.127-.24.194-.67.2-1.29l.06-3.08h3.73V84h-.9v-4.68h-1.94l-.05 2.3c-.013.58-.08 1.05-.2 1.41-.113.36-.293.623-.54.79-.24.167-.556.25-.95.25h-.23zm6.726-.07v-5.5h.9v2.02h1.62c.62 0 1.107.157 1.46.47.36.307.54.73.54 1.27 0 .533-.18.957-.54 1.27-.36.313-.846.47-1.46.47h-2.52zm.9-.82h1.62c.347 0 .61-.077.79-.23.187-.16.28-.39.28-.69 0-.3-.093-.527-.28-.68-.18-.16-.443-.24-.79-.24h-1.62v1.84zm6.856.89c-.58 0-1.056-.123-1.43-.37a1.47 1.47 0 01-.66-1h.95c.047.167.17.303.37.41.207.107.464.16.77.16h.47c.327 0 .58-.077.76-.23a.74.74 0 00.28-.6c0-.267-.09-.477-.27-.63-.173-.153-.43-.23-.77-.23h-1.21v-.78h1.18c.307 0 .54-.073.7-.22a.75.75 0 00.24-.58.758.758 0 00-.11-.42.636.636 0 00-.31-.26c-.14-.06-.31-.09-.51-.09h-.5c-.266 0-.496.06-.69.18-.193.12-.31.267-.35.44h-.95c.067-.413.284-.753.65-1.02.367-.267.814-.4 1.34-.4h.5c.394 0 .73.063 1.01.19.28.12.494.293.64.52.154.227.23.497.23.81 0 .327-.106.597-.32.81-.213.207-.513.323-.9.35v.04c.474.033.817.16 1.03.38.214.22.32.537.32.95 0 .487-.18.873-.54 1.16-.36.287-.843.43-1.45.43h-.47zm6.257.01c-.44 0-.82-.083-1.14-.25a1.815 1.815 0 01-.75-.72c-.174-.32-.26-.697-.26-1.13v-1.46c0-.44.086-.817.26-1.13.18-.313.43-.553.75-.72.32-.167.7-.25 1.14-.25.44 0 .82.083 1.14.25.32.167.566.407.74.72.18.313.27.687.27 1.12v1.47c0 .433-.09.81-.27 1.13a1.76 1.76 0 01-.74.72c-.32.167-.7.25-1.14.25zm0-.8c.393 0 .7-.11.92-.33.22-.22.33-.543.33-.97v-1.46c0-.427-.11-.75-.33-.97-.22-.22-.527-.33-.92-.33-.387 0-.694.11-.92.33-.22.22-.33.543-.33.97v1.46c0 .427.11.75.33.97.226.22.533.33.92.33zm3.936.72v-5.5h2.38c.573 0 1.016.13 1.33.39.313.253.47.61.47 1.07 0 .38-.13.687-.39.92-.26.227-.604.34-1.03.34v-.08c.466 0 .84.117 1.12.35.286.233.43.547.43.94 0 .493-.167.88-.5 1.16-.334.273-.8.41-1.4.41h-2.41zm.88-.79h1.53c.32 0 .566-.07.74-.21.18-.14.27-.337.27-.59 0-.26-.09-.46-.27-.6-.174-.14-.42-.21-.74-.21h-1.53v1.61zm0-2.39h1.5c.28 0 .5-.067.66-.2.166-.133.25-.32.25-.56 0-.24-.08-.427-.24-.56-.16-.14-.384-.21-.67-.21h-1.5v1.53zm6.696 3.28c-.58 0-1.037-.147-1.37-.44-.334-.3-.5-.703-.5-1.21 0-.513.166-.917.5-1.21.333-.293.783-.44 1.35-.44h1.7v-.55c0-.34-.104-.6-.31-.78-.2-.187-.487-.28-.86-.28-.327 0-.6.07-.82.21a.747.747 0 00-.38.55h-.9c.06-.473.283-.85.67-1.13.386-.28.87-.42 1.45-.42.633 0 1.133.163 1.5.49.366.327.55.77.55 1.33V84h-.88v-1.05h-.15l.15-.15c0 .4-.157.717-.47.95-.307.233-.717.35-1.23.35zm.22-.71c.426 0 .776-.107 1.05-.32a.996.996 0 00.41-.82v-.78h-1.68c-.3 0-.537.083-.71.25-.174.167-.26.393-.26.68 0 .307.103.55.31.73.213.173.506.26.88.26zm5.806.61v-4.71h-2v-.79h4.9v.79h-2V84h-.9zm6.446.1c-.434 0-.814-.087-1.14-.26a1.881 1.881 0 01-.75-.73c-.174-.32-.26-.69-.26-1.11v-1.5c0-.427.087-.797.26-1.11.18-.313.43-.557.75-.73.326-.173.706-.26 1.14-.26.433 0 .81.087 1.13.26a1.8 1.8 0 01.75.73c.18.313.27.683.27 1.11v.97h-3.42V82c0 .433.11.767.33 1 .22.227.533.34.94.34.346 0 .626-.06.84-.18a.794.794 0 00.39-.56h.9c-.06.46-.287.827-.68 1.1-.387.267-.87.4-1.45.4zm1.27-3.23v-.37c0-.433-.11-.767-.33-1-.213-.233-.527-.35-.94-.35-.407 0-.72.117-.94.35-.22.233-.33.567-.33 1v.29h2.61l-.07.08zm1.976 3.2v-.84h.18c.307 0 .52-.12.64-.36.127-.24.193-.67.2-1.29l.06-3.08h3.73V84h-.9v-4.68h-1.94l-.05 2.3c-.013.58-.08 1.05-.2 1.41-.113.36-.293.623-.54.79-.24.167-.557.25-.95.25h-.23zm6.726-.07v-5.5h.9v2.02h1.62c.62 0 1.107.157 1.46.47.36.307.54.73.54 1.27 0 .533-.18.957-.54 1.27-.36.313-.847.47-1.46.47h-2.52zm.9-.82h1.62c.347 0 .61-.077.79-.23.187-.16.28-.39.28-.69 0-.3-.093-.527-.28-.68-.18-.16-.443-.24-.79-.24h-1.62v1.84zM9.52 97.1c-.58 0-1.037-.147-1.37-.44-.333-.3-.5-.703-.5-1.21 0-.513.167-.917.5-1.21.333-.293.783-.44 1.35-.44h1.7v-.55c0-.34-.103-.6-.31-.78-.2-.187-.487-.28-.86-.28-.327 0-.6.07-.82.21a.747.747 0 00-.38.55h-.9c.06-.473.283-.85.67-1.13.387-.28.87-.42 1.45-.42.633 0 1.133.163 1.5.49.367.327.55.77.55 1.33V97h-.88v-1.05h-.15l.15-.15c0 .4-.157.717-.47.95-.307.233-.717.35-1.23.35zm.22-.71c.427 0 .777-.107 1.05-.32a.996.996 0 00.41-.82v-.78H9.52c-.3 0-.537.083-.71.25-.173.167-.26.393-.26.68 0 .307.103.55.31.73.213.173.507.26.88.26zm4.196.61v-5.5h2.38c.573 0 1.017.13 1.33.39.313.253.47.61.47 1.07 0 .38-.13.687-.39.92-.26.227-.603.34-1.03.34v-.08c.467 0 .84.117 1.12.35.287.233.43.547.43.94 0 .493-.167.88-.5 1.16-.333.273-.8.41-1.4.41h-2.41zm.88-.79h1.53c.32 0 .567-.07.74-.21.18-.14.27-.337.27-.59 0-.26-.09-.46-.27-.6-.173-.14-.42-.21-.74-.21h-1.53v1.61zm0-2.39h1.5c.28 0 .5-.067.66-.2.167-.133.25-.32.25-.56 0-.24-.08-.427-.24-.56-.16-.14-.383-.21-.67-.21h-1.5v1.53zM21.542 97v-4.71h-2v-.79h4.9v.79h-2V97h-.9zm6.446.08c-.44 0-.82-.083-1.14-.25a1.815 1.815 0 01-.75-.72c-.173-.32-.26-.697-.26-1.13v-1.46c0-.44.087-.817.26-1.13.18-.313.43-.553.75-.72.32-.167.7-.25 1.14-.25.44 0 .82.083 1.14.25.32.167.567.407.74.72.18.313.27.687.27 1.12v1.47c0 .433-.09.81-.27 1.13-.173.313-.42.553-.74.72-.32.167-.7.25-1.14.25zm0-.8c.394 0 .7-.11.92-.33.22-.22.33-.543.33-.97v-1.46c0-.427-.11-.75-.33-.97-.22-.22-.526-.33-.92-.33-.386 0-.693.11-.92.33-.22.22-.33.543-.33.97v1.46c0 .427.11.75.33.97.227.22.534.33.92.33zm3.756.72v-5.5h1.22l.72 2.11c.074.213.14.427.2.64.06.207.104.367.13.48.027-.113.067-.273.12-.48.06-.213.124-.43.19-.65l.68-2.1h1.22V97h-.87v-.85c0-.3.004-.627.01-.98l.02-1.07.04-1.02c.014-.327.024-.613.03-.86l-.98 3.13h-.95l-.99-3.11c.014.3.024.673.03 1.12.014.447.024.913.03 1.4.014.487.02.95.02 1.39V97h-.87zm7.757.1c-.58 0-1.037-.147-1.37-.44-.334-.3-.5-.703-.5-1.21 0-.513.166-.917.5-1.21.333-.293.783-.44 1.35-.44h1.7v-.55c0-.34-.104-.6-.31-.78-.2-.187-.487-.28-.86-.28-.327 0-.6.07-.82.21a.747.747 0 00-.38.55h-.9c.06-.473.283-.85.67-1.13.386-.28.87-.42 1.45-.42.633 0 1.133.163 1.5.49.366.327.55.77.55 1.33V97h-.88v-1.05h-.15l.15-.15c0 .4-.157.717-.47.95-.307.233-.717.35-1.23.35zm.22-.71c.426 0 .776-.107 1.05-.32a.996.996 0 00.41-.82v-.78H39.5c-.3 0-.537.083-.71.25-.174.167-.26.393-.26.68 0 .307.103.55.31.73.213.173.506.26.88.26zm5.806.61v-4.71h-2v-.79h4.9v.79h-2V97h-.9zm4.386 0v-5.5h.86v3c0 .193-.007.397-.02.61a8.72 8.72 0 01-.04.61 6.67 6.67 0 01-.05.48l2.22-4.7h1.15V97h-.86v-3c0-.193.003-.397.01-.61.013-.213.03-.417.05-.61.02-.2.036-.363.05-.49L51.063 97h-1.15zm9.156 0v-2c-.107.027-.27.053-.49.08-.214.02-.44.03-.68.03-.68.007-1.21-.157-1.59-.49-.374-.34-.56-.813-.56-1.42v-1.7h.9v1.7c0 .34.113.61.34.81.233.193.553.29.96.29.28 0 .516-.01.71-.03.2-.027.336-.05.41-.07v-2.7h.9V97h-.9zm4.896.1c-.434 0-.814-.087-1.14-.26a1.881 1.881 0 01-.75-.73c-.174-.32-.26-.69-.26-1.11v-1.5c0-.427.087-.797.26-1.11.18-.313.43-.557.75-.73.326-.173.706-.26 1.14-.26.433 0 .81.087 1.13.26a1.8 1.8 0 01.75.73c.18.313.27.683.27 1.11v.97h-3.42V95c0 .433.11.767.33 1 .22.227.533.34.94.34.346 0 .626-.06.84-.18a.794.794 0 00.39-.56h.9c-.06.46-.287.827-.68 1.1-.387.267-.87.4-1.45.4zm1.27-3.23v-.37c0-.433-.11-.767-.33-1-.213-.233-.527-.35-.94-.35-.407 0-.72.117-.94.35-.22.233-.33.567-.33 1v.29h2.61l-.07.08zm4.746 3.23c-.44 0-.827-.083-1.16-.25a1.802 1.802 0 01-.76-.72c-.18-.32-.27-.697-.27-1.13v-1.5c0-.44.09-.817.27-1.13.18-.313.433-.553.76-.72.333-.167.72-.25 1.16-.25.633 0 1.143.17 1.53.51.387.34.59.803.61 1.39h-.9c-.02-.353-.14-.623-.36-.81-.213-.193-.507-.29-.88-.29-.393 0-.707.113-.94.34-.233.22-.35.537-.35.95V95c0 .413.117.733.35.96.233.227.547.34.94.34.373 0 .667-.097.88-.29.22-.193.34-.463.36-.81h.9c-.02.587-.223 1.05-.61 1.39-.387.34-.897.51-1.53.51zm3.946-.1v-5.5h.9v2.27h.94l1.6-2.27h1.03l-1.85 2.62 1.88 2.88h-1.05l-1.6-2.45h-.95V97h-.9zm5.966 0v-5.5h.86v3c0 .193-.007.397-.02.61a8.72 8.72 0 01-.04.61c-.013.187-.03.347-.05.48l2.22-4.7h1.15V97h-.86v-3c0-.193.003-.397.01-.61.014-.213.03-.417.05-.61l.05-.49-2.22 4.71h-1.15zM10.02 110.1c-.44 0-.827-.083-1.16-.25a1.805 1.805 0 01-.76-.72c-.18-.32-.27-.697-.27-1.13v-1.5c0-.44.09-.817.27-1.13.18-.313.433-.553.76-.72.333-.167.72-.25 1.16-.25.633 0 1.143.17 1.53.51.387.34.59.803.61 1.39h-.9c-.02-.353-.14-.623-.36-.81-.213-.193-.507-.29-.88-.29-.393 0-.707.113-.94.34-.233.22-.35.537-.35.95V108c0 .413.117.733.35.96.233.227.547.34.94.34.373 0 .667-.097.88-.29.22-.193.34-.463.36-.81h.9c-.02.587-.223 1.05-.61 1.39-.387.34-.897.51-1.53.51zm5.526-.1v-4.71h-2v-.79h4.9v.79h-2V110h-.9zm5.966.1c-.58 0-1.037-.147-1.37-.44-.333-.3-.5-.703-.5-1.21 0-.513.167-.917.5-1.21.334-.293.784-.44 1.35-.44h1.7v-.55c0-.34-.103-.6-.31-.78-.2-.187-.487-.28-.86-.28-.326 0-.6.07-.82.21a.747.747 0 00-.38.55h-.9c.06-.473.284-.85.67-1.13.387-.28.87-.42 1.45-.42.633 0 1.133.163 1.5.49.367.327.55.77.55 1.33V110h-.88v-1.05h-.15l.15-.15c0 .4-.157.717-.47.95-.306.233-.716.35-1.23.35zm.22-.71c.427 0 .777-.107 1.05-.32a.996.996 0 00.41-.82v-.78h-1.68c-.3 0-.537.083-.71.25-.173.167-.26.393-.26.68 0 .307.103.55.31.73.213.173.507.26.88.26zm4.196.61v-5.5h.9v2.29h2.32v-2.29h.9v5.5h-.9v-2.39h-2.32V110h-.9zm8.056.08c-.44 0-.82-.083-1.14-.25a1.82 1.82 0 01-.75-.72c-.173-.32-.26-.697-.26-1.13v-1.46c0-.44.087-.817.26-1.13.18-.313.43-.553.75-.72.32-.167.7-.25 1.14-.25.44 0 .82.083 1.14.25.32.167.567.407.74.72.18.313.27.687.27 1.12v1.47c0 .433-.09.81-.27 1.13-.173.313-.42.553-.74.72-.32.167-.7.25-1.14.25zm0-.8c.394 0 .7-.11.92-.33.22-.22.33-.543.33-.97v-1.46c0-.427-.11-.75-.33-.97-.22-.22-.526-.33-.92-.33-.386 0-.693.11-.92.33-.22.22-.33.543-.33.97v1.46c0 .427.11.75.33.97.227.22.534.33.92.33zm3.936.72v-5.5h2.38c.574 0 1.017.13 1.33.39.314.253.47.61.47 1.07 0 .38-.13.687-.39.92-.26.227-.603.34-1.03.34v-.08c.467 0 .84.117 1.12.35.287.233.43.547.43.94 0 .493-.166.88-.5 1.16-.333.273-.8.41-1.4.41h-2.41zm.88-.79h1.53c.32 0 .567-.07.74-.21.18-.14.27-.337.27-.59 0-.26-.09-.46-.27-.6-.173-.14-.42-.21-.74-.21H38.8v1.61zm0-2.39h1.5c.28 0 .5-.067.66-.2.167-.133.25-.32.25-.56 0-.24-.08-.427-.24-.56-.16-.14-.383-.21-.67-.21h-1.5v1.53zm5.117 3.18v-5.5h.86v3c0 .193-.007.397-.02.61a8.72 8.72 0 01-.04.61 6.67 6.67 0 01-.05.48l2.22-4.7h1.15v5.5h-.86v-3c0-.193.003-.397.01-.61.013-.213.03-.417.05-.61.02-.2.036-.363.05-.49l-2.22 4.71h-1.15zm7.606 0v-4.71h-2v-.79h4.9v.79h-2V110h-.9zm6.466.1c-.44 0-.827-.083-1.16-.25a1.805 1.805 0 01-.76-.72c-.18-.32-.27-.697-.27-1.13v-1.5c0-.44.09-.817.27-1.13.18-.313.433-.553.76-.72.333-.167.72-.25 1.16-.25.633 0 1.143.17 1.53.51.386.34.59.803.61 1.39h-.9c-.02-.353-.14-.623-.36-.81-.214-.193-.507-.29-.88-.29-.394 0-.707.113-.94.34-.234.22-.35.537-.35.95V108c0 .413.116.733.35.96.233.227.546.34.94.34.373 0 .666-.097.88-.29.22-.193.34-.463.36-.81h.9c-.02.587-.224 1.05-.61 1.39-.387.34-.897.51-1.53.51zm3.576-.1l1.41-2.12c-.42-.1-.747-.293-.98-.58-.227-.287-.34-.643-.34-1.07 0-.54.176-.963.53-1.27.36-.307.85-.46 1.47-.46h2.37v5.5h-.9v-2.05h-1.21l-1.3 2.05h-1.05zm2.09-2.85h1.47v-1.85h-1.47c-.334 0-.597.083-.79.25-.194.16-.29.387-.29.68 0 .287.096.513.29.68.193.16.456.24.79.24zM73.897 110v-5.5h4.12v5.5h-.9v-4.68h-2.32V110h-.9zm8.056.08c-.44 0-.82-.083-1.14-.25a1.82 1.82 0 01-.75-.72c-.173-.32-.26-.697-.26-1.13v-1.46c0-.44.087-.817.26-1.13.18-.313.43-.553.75-.72.32-.167.7-.25 1.14-.25.44 0 .82.083 1.14.25.32.167.567.407.74.72.18.313.27.687.27 1.12v1.47c0 .433-.09.81-.27 1.13-.173.313-.42.553-.74.72-.32.167-.7.25-1.14.25zm0-.8c.394 0 .7-.11.92-.33.22-.22.33-.543.33-.97v-1.46c0-.427-.11-.75-.33-.97-.22-.22-.526-.33-.92-.33-.386 0-.693.11-.92.33-.22.22-.33.543-.33.97v1.46c0 .427.11.75.33.97.227.22.534.33.92.33zm3.296 2.12v-2.17h.45c.114-.113.23-.337.35-.67.127-.333.194-.757.2-1.27l.06-2.79h3.59v4.73h.7v2.17h-.8V110h-3.75v1.4h-.8zm1.4-2.17H89v-3.93h-1.84l-.04 2.01c-.006.527-.063.953-.17 1.28-.106.327-.206.54-.3.64zm5.236.77v-5.5h4.12v5.5h-.9v-4.68h-2.32V110h-.9zm5.996 0v-5.5h.86v3c0 .193-.006.397-.02.61-.006.213-.02.417-.04.61-.013.187-.03.347-.05.48l2.22-4.7h1.15v5.5h-.86v-3c0-.193.004-.397.01-.61.014-.213.03-.417.05-.61l.05-.49-2.22 4.71h-1.15zm8.077.1c-.44 0-.827-.083-1.16-.25a1.803 1.803 0 01-.76-.72c-.18-.32-.27-.697-.27-1.13v-1.5c0-.44.09-.817.27-1.13.18-.313.433-.553.76-.72.333-.167.72-.25 1.16-.25.633 0 1.143.17 1.53.51.386.34.59.803.61 1.39h-.9c-.02-.353-.14-.623-.36-.81-.214-.193-.507-.29-.88-.29-.394 0-.707.113-.94.34-.234.22-.35.537-.35.95V108c0 .413.116.733.35.96.233.227.546.34.94.34.373 0 .666-.097.88-.29.22-.193.34-.463.36-.81h.9c-.02.587-.224 1.05-.61 1.39-.387.34-.897.51-1.53.51zm7.076-.1v-2c-.107.027-.27.053-.49.08-.214.02-.44.03-.68.03-.68.007-1.21-.157-1.59-.49-.374-.34-.56-.813-.56-1.42v-1.7h.9v1.7c0 .34.113.61.34.81.233.193.553.29.96.29.28 0 .516-.01.71-.03.2-.027.336-.05.41-.07v-2.7h.9v5.5h-.9zm2.836 0v-5.5h.86v3c0 .193-.007.397-.02.61a8.72 8.72 0 01-.04.61 6.67 6.67 0 01-.05.48l2.22-4.7h1.15v5.5h-.86v-3c0-.193.003-.397.01-.61.013-.213.03-.417.05-.61.02-.2.036-.363.05-.49l-2.22 4.71h-1.15zm6.026 0v-5.5h.9v2.27h.94l1.6-2.27h1.03l-1.85 2.62 1.88 2.88h-1.05l-1.6-2.45h-.95V110h-.9zm8.026.08c-.44 0-.82-.083-1.14-.25a1.82 1.82 0 01-.75-.72c-.173-.32-.26-.697-.26-1.13v-1.46c0-.44.087-.817.26-1.13.18-.313.43-.553.75-.72.32-.167.7-.25 1.14-.25.44 0 .82.083 1.14.25.32.167.567.407.74.72.18.313.27.687.27 1.12v1.47c0 .433-.09.81-.27 1.13-.173.313-.42.553-.74.72-.32.167-.7.25-1.14.25zm0-.8c.393 0 .7-.11.92-.33.22-.22.33-.543.33-.97v-1.46c0-.427-.11-.75-.33-.97-.22-.22-.527-.33-.92-.33-.387 0-.693.11-.92.33-.22.22-.33.543-.33.97v1.46c0 .427.11.75.33.97.227.22.533.33.92.33zm3.756.72v-5.5h1.22l.72 2.11c.073.213.14.427.2.64.06.207.103.367.13.48.027-.113.067-.273.12-.48.06-.213.123-.43.19-.65l.68-2.1h1.22v5.5h-.87v-.85c0-.3.003-.627.01-.98l.02-1.07c.013-.36.027-.7.04-1.02.013-.327.023-.613.03-.86l-.98 3.13h-.95l-.99-3.11c.013.3.023.673.03 1.12.013.447.023.913.03 1.4.013.487.02.95.02 1.39v.85h-.87zM10 123.1c-.647 0-1.16-.19-1.54-.57-.373-.387-.56-.913-.56-1.58v-2.5c0-.88.22-1.557.66-2.03.44-.48 1.07-.72 1.89-.72h1.4v.9h-1.4c-.54 0-.95.16-1.23.48-.28.313-.42.77-.42 1.37v.65h.14l-.14.2c.007-.393.14-.7.4-.92.26-.22.613-.33 1.06-.33.58 0 1.03.187 1.35.56.327.373.49.887.49 1.54v.8c0 .447-.083.83-.25 1.15a1.75 1.75 0 01-.72.74c-.313.173-.69.26-1.13.26zm0-.8c.387 0 .683-.117.89-.35.207-.233.31-.567.31-1v-.8c0-.433-.103-.767-.31-1-.207-.233-.503-.35-.89-.35s-.683.117-.89.35c-.207.227-.31.56-.31 1v.8c0 .433.103.767.31 1 .207.233.503.35.89.35zm5.996.78c-.44 0-.82-.083-1.14-.25a1.82 1.82 0 01-.75-.72c-.173-.32-.26-.697-.26-1.13v-1.46c0-.44.087-.817.26-1.13.18-.313.43-.553.75-.72.32-.167.7-.25 1.14-.25.44 0 .82.083 1.14.25.32.167.567.407.74.72.18.313.27.687.27 1.12v1.47c0 .433-.09.81-.27 1.13-.173.313-.42.553-.74.72-.32.167-.7.25-1.14.25zm0-.8c.393 0 .7-.11.92-.33.22-.22.33-.543.33-.97v-1.46c0-.427-.11-.75-.33-.97-.22-.22-.527-.33-.92-.33-.387 0-.693.11-.92.33-.22.22-.33.543-.33.97v1.46c0 .427.11.75.33.97.227.22.533.33.92.33zm5.546.72v-4.71h-2v-.79h4.9v.79h-2V123h-.9zm5.966.1c-.58 0-1.036-.147-1.37-.44-.333-.3-.5-.703-.5-1.21 0-.513.167-.917.5-1.21.334-.293.784-.44 1.35-.44h1.7v-.55c0-.34-.103-.6-.31-.78-.2-.187-.486-.28-.86-.28-.326 0-.6.07-.82.21a.747.747 0 00-.38.55h-.9c.06-.473.284-.85.67-1.13.387-.28.87-.42 1.45-.42.634 0 1.134.163 1.5.49.367.327.55.77.55 1.33V123h-.88v-1.05h-.15l.15-.15c0 .4-.156.717-.47.95-.306.233-.716.35-1.23.35zm.22-.71c.427 0 .777-.107 1.05-.32a.996.996 0 00.41-.82v-.78h-1.68c-.3 0-.536.083-.71.25-.173.167-.26.393-.26.68 0 .307.104.55.31.73.214.173.507.26.88.26zm4.906 2.21l.8-3.11h1.3l-1.3 3.11h-.8zm14.443-1.6v-2c-.107.027-.27.053-.49.08-.214.02-.44.03-.68.03-.68.007-1.21-.157-1.59-.49-.374-.34-.56-.813-.56-1.42v-1.7h.9v1.7c0 .34.113.61.34.81.233.193.553.29.96.29.28 0 .516-.01.71-.03a3.8 3.8 0 00.41-.07v-2.7h.9v5.5h-.9zm4.446 0v-4.71h-2v-.79h4.9v.79h-2V123h-.9zm6.446.08c-.44 0-.82-.083-1.14-.25a1.82 1.82 0 01-.75-.72c-.174-.32-.26-.697-.26-1.13v-1.46c0-.44.086-.817.26-1.13.18-.313.43-.553.75-.72.32-.167.7-.25 1.14-.25.44 0 .82.083 1.14.25.32.167.566.407.74.72.18.313.27.687.27 1.12v1.47c0 .433-.09.81-.27 1.13a1.76 1.76 0 01-.74.72c-.32.167-.7.25-1.14.25zm0-.8c.393 0 .7-.11.92-.33.22-.22.33-.543.33-.97v-1.46c0-.427-.11-.75-.33-.97-.22-.22-.527-.33-.92-.33-.387 0-.694.11-.92.33-.22.22-.33.543-.33.97v1.46c0 .427.11.75.33.97.226.22.533.33.92.33zm9.932.72v-5.5h4.12v5.5h-.9v-4.68H68.8V123h-.9zm8.056.08c-.44 0-.82-.083-1.14-.25a1.82 1.82 0 01-.75-.72c-.173-.32-.26-.697-.26-1.13v-1.46c0-.44.087-.817.26-1.13.18-.313.43-.553.75-.72.32-.167.7-.25 1.14-.25.44 0 .82.083 1.14.25.32.167.567.407.74.72.18.313.27.687.27 1.12v1.47c0 .433-.09.81-.27 1.13-.173.313-.42.553-.74.72-.32.167-.7.25-1.14.25zm0-.8c.393 0 .7-.11.92-.33.22-.22.33-.543.33-.97v-1.46c0-.427-.11-.75-.33-.97-.22-.22-.527-.33-.92-.33-.387 0-.693.11-.92.33-.22.22-.33.543-.33.97v1.46c0 .427.11.75.33.97.227.22.533.33.92.33zm5.736.79c-.58 0-1.056-.123-1.43-.37a1.471 1.471 0 01-.66-1h.95c.047.167.17.303.37.41.207.107.463.16.77.16h.47c.327 0 .58-.077.76-.23a.739.739 0 00.28-.6c0-.267-.09-.477-.27-.63-.173-.153-.43-.23-.77-.23h-1.21v-.78h1.18c.307 0 .54-.073.7-.22a.75.75 0 00.24-.58.755.755 0 00-.11-.42.637.637 0 00-.31-.26c-.14-.06-.31-.09-.51-.09h-.5c-.267 0-.496.06-.69.18-.193.12-.31.267-.35.44h-.95c.067-.413.283-.753.65-1.02.367-.267.814-.4 1.34-.4h.5c.394 0 .73.063 1.01.19.28.12.493.293.64.52.153.227.23.497.23.81 0 .327-.106.597-.32.81-.213.207-.513.323-.9.35v.04c.474.033.817.16 1.03.38.213.22.32.537.32.95 0 .487-.18.873-.54 1.16-.36.287-.843.43-1.45.43h-.47zm4.196-.07v-5.5h2.38c.574 0 1.017.13 1.33.39.314.253.47.61.47 1.07 0 .38-.13.687-.39.92-.26.227-.603.34-1.03.34v-.08c.467 0 .84.117 1.12.35.287.233.43.547.43.94 0 .493-.166.88-.5 1.16-.333.273-.8.41-1.4.41h-2.41zm.88-.79h1.53c.32 0 .567-.07.74-.21.18-.14.27-.337.27-.59 0-.26-.09-.46-.27-.6-.173-.14-.42-.21-.74-.21h-1.53v1.61zm0-2.39h1.5c.28 0 .5-.067.66-.2.167-.133.25-.32.25-.56 0-.24-.08-.427-.24-.56-.16-.14-.383-.21-.67-.21h-1.5v1.53zm7.176 3.26c-.44 0-.82-.083-1.14-.25a1.82 1.82 0 01-.75-.72c-.173-.32-.26-.697-.26-1.13v-1.46c0-.44.087-.817.26-1.13.18-.313.43-.553.75-.72.32-.167.7-.25 1.14-.25.44 0 .82.083 1.14.25.32.167.567.407.74.72.18.313.27.687.27 1.12v1.47c0 .433-.09.81-.27 1.13-.173.313-.42.553-.74.72-.32.167-.7.25-1.14.25zm0-.8c.394 0 .7-.11.92-.33.22-.22.33-.543.33-.97v-1.46c0-.427-.11-.75-.33-.97-.22-.22-.526-.33-.92-.33-.386 0-.693.11-.92.33-.22.22-.33.543-.33.97v1.46c0 .427.11.75.33.97.227.22.534.33.92.33zm3.246.79v-.84h.18c.307 0 .52-.12.64-.36.127-.24.194-.67.2-1.29l.06-3.08h3.73v5.5h-.9v-4.68h-1.94l-.05 2.3c-.013.58-.08 1.05-.2 1.41-.113.36-.293.623-.54.79-.24.167-.556.25-.95.25h-.23zm6.347-.07l1.41-2.12c-.42-.1-.747-.293-.98-.58-.227-.287-.34-.643-.34-1.07 0-.54.176-.963.53-1.27.36-.307.85-.46 1.47-.46h2.37v5.5h-.9v-2.05h-1.21l-1.3 2.05h-1.05zm2.09-2.85h1.47v-1.85h-1.47c-.334 0-.597.083-.79.25-.194.16-.29.387-.29.68 0 .287.096.513.29.68.193.16.456.24.79.24zm6.306 2.95c-.434 0-.814-.087-1.14-.26a1.881 1.881 0 01-.75-.73c-.174-.32-.26-.69-.26-1.11v-1.5c0-.427.086-.797.26-1.11.18-.313.43-.557.75-.73.326-.173.706-.26 1.14-.26.433 0 .81.087 1.13.26.326.173.576.417.75.73.18.313.27.683.27 1.11v.97h-3.42v.53c0 .433.11.767.33 1 .22.227.533.34.94.34.346 0 .626-.06.84-.18a.796.796 0 00.39-.56h.9c-.06.46-.287.827-.68 1.1-.387.267-.87.4-1.45.4zm1.27-3.23v-.37c0-.433-.11-.767-.33-1-.214-.233-.527-.35-.94-.35-.407 0-.72.117-.94.35-.22.233-.33.567-.33 1v.29h2.61l-.07.08zm4.276 3.13v-4.71h-2v-.79h4.9v.79h-2V123h-.9zM7.94 136v-5.5h2.38c.573 0 1.017.13 1.33.39.313.253.47.61.47 1.07 0 .38-.13.687-.39.92-.26.227-.603.34-1.03.34v-.08c.467 0 .84.117 1.12.35.287.233.43.547.43.94 0 .493-.167.88-.5 1.16-.333.273-.8.41-1.4.41H7.94zm.88-.79h1.53c.32 0 .567-.07.74-.21.18-.14.27-.337.27-.59 0-.26-.09-.46-.27-.6-.173-.14-.42-.21-.74-.21H8.82v1.61zm0-2.39h1.5c.28 0 .5-.067.66-.2.167-.133.25-.32.25-.56 0-.24-.08-.427-.24-.56-.16-.14-.383-.21-.67-.21h-1.5v1.53zm6.696 3.28c-.58 0-1.037-.147-1.37-.44-.333-.3-.5-.703-.5-1.21 0-.513.167-.917.5-1.21.333-.293.783-.44 1.35-.44h1.7v-.55c0-.34-.103-.6-.31-.78-.2-.187-.487-.28-.86-.28-.327 0-.6.07-.82.21a.747.747 0 00-.38.55h-.9c.06-.473.283-.85.67-1.13.387-.28.87-.42 1.45-.42.633 0 1.133.163 1.5.49.367.327.55.77.55 1.33V136h-.88v-1.05h-.15l.15-.15c0 .4-.157.717-.47.95-.307.233-.717.35-1.23.35zm.22-.71c.427 0 .777-.107 1.05-.32a.996.996 0 00.41-.82v-.78h-1.68c-.3 0-.537.083-.71.25-.173.167-.26.393-.26.68 0 .307.103.55.31.73.213.173.507.26.88.26zm4.016.61v-5.5h1.22l.72 2.11c.073.213.14.427.2.64.06.207.104.367.13.48.027-.113.067-.273.12-.48.06-.213.123-.43.19-.65l.68-2.1h1.22v5.5h-.87v-.85c0-.3.004-.627.01-.98l.02-1.07.04-1.02c.014-.327.024-.613.03-.86l-.98 3.13h-.95l-.99-3.11c.013.3.023.673.03 1.12.014.447.024.913.03 1.4.014.487.02.95.02 1.39v.85h-.87zm12.172 0v-5.5h4.12v5.5h-.9v-4.68h-2.32V136h-.9zm5.977 1.8v-7.3h.9v1.05h.18l-.18.21c0-.42.136-.75.41-.99.28-.247.646-.37 1.1-.37.553 0 .993.183 1.32.55.333.36.5.857.5 1.49v1.61c0 .42-.077.783-.23 1.09a1.636 1.636 0 01-.63.71c-.267.167-.587.25-.96.25-.447 0-.81-.123-1.09-.37s-.42-.577-.42-.99l.18.21h-.2l.02 1.25v1.6h-.9zm2.11-2.48c.38 0 .676-.113.89-.34.22-.227.33-.553.33-.98v-1.5c0-.427-.11-.753-.33-.98-.214-.227-.51-.34-.89-.34-.367 0-.66.117-.88.35-.22.233-.33.557-.33.97v1.5c0 .413.11.737.33.97.22.233.513.35.88.35zm5.966.76c-.44 0-.82-.083-1.14-.25a1.82 1.82 0 01-.75-.72c-.174-.32-.26-.697-.26-1.13v-1.46c0-.44.086-.817.26-1.13.18-.313.43-.553.75-.72.32-.167.7-.25 1.14-.25.44 0 .82.083 1.14.25.32.167.566.407.74.72.18.313.27.687.27 1.12v1.47c0 .433-.09.81-.27 1.13a1.76 1.76 0 01-.74.72c-.32.167-.7.25-1.14.25zm0-.8c.393 0 .7-.11.92-.33.22-.22.33-.543.33-.97v-1.46c0-.427-.11-.75-.33-.97-.22-.22-.527-.33-.92-.33-.387 0-.694.11-.92.33-.22.22-.33.543-.33.97v1.46c0 .427.11.75.33.97.226.22.533.33.92.33zm3.296 2.12v-2.17h.45c.113-.113.23-.337.35-.67.126-.333.193-.757.2-1.27l.06-2.79h3.59v4.73h.7v2.17h-.8V136h-3.75v1.4h-.8zm1.4-2.17h2.35v-3.93h-1.84l-.04 2.01c-.007.527-.064.953-.17 1.28-.107.327-.207.54-.3.64zm7.296.85c-.44 0-.82-.083-1.14-.25a1.82 1.82 0 01-.75-.72c-.174-.32-.26-.697-.26-1.13v-1.46c0-.44.086-.817.26-1.13.18-.313.43-.553.75-.72.32-.167.7-.25 1.14-.25.44 0 .82.083 1.14.25.32.167.566.407.74.72.18.313.27.687.27 1.12v1.47c0 .433-.09.81-.27 1.13a1.76 1.76 0 01-.74.72c-.32.167-.7.25-1.14.25zm0-.8c.393 0 .7-.11.92-.33.22-.22.33-.543.33-.97v-1.46c0-.427-.11-.75-.33-.97-.22-.22-.527-.33-.92-.33-.387 0-.694.11-.92.33-.22.22-.33.543-.33.97v1.46c0 .427.11.75.33.97.226.22.533.33.92.33zm3.246.79v-.84h.18c.306 0 .52-.12.64-.36.127-.24.193-.67.2-1.29l.06-3.08h3.73v5.5h-.9v-4.68h-1.94l-.05 2.3c-.014.58-.08 1.05-.2 1.41-.114.36-.294.623-.54.79-.24.167-.557.25-.95.25h-.23zm5.926-.07l1.2-2.82-1.12-2.68h.87l.96 2.4h.53v-2.4h.76v2.4h.51l.99-2.4h.86l-1.12 2.65 1.2 2.85h-.9l-1-2.5h-.54v2.5h-.76v-2.5h-.54l-1.01 2.5h-.89zm8.336.1c-.58 0-1.037-.147-1.37-.44-.333-.3-.5-.703-.5-1.21 0-.513.167-.917.5-1.21.333-.293.783-.44 1.35-.44h1.7v-.55c0-.34-.103-.6-.31-.78-.2-.187-.487-.28-.86-.28-.327 0-.6.07-.82.21a.747.747 0 00-.38.55h-.9c.06-.473.283-.85.67-1.13.387-.28.87-.42 1.45-.42.633 0 1.133.163 1.5.49.367.327.55.77.55 1.33V136h-.88v-1.05h-.15l.15-.15c0 .4-.157.717-.47.95-.307.233-.717.35-1.23.35zm.22-.71c.427 0 .777-.107 1.05-.32a.995.995 0 00.41-.82v-.78h-1.68c-.3 0-.537.083-.71.25-.173.167-.26.393-.26.68 0 .307.103.55.31.73.213.173.507.26.88.26zm5.806.61v-4.71h-2v-.79h4.9v.79h-2V136h-.9zm4.426 0v-5.5h.9v2.02h1.62c.62 0 1.107.157 1.46.47.36.307.54.73.54 1.27 0 .533-.18.957-.54 1.27-.36.313-.846.47-1.46.47h-2.52zm.9-.82h1.62c.347 0 .61-.077.79-.23.187-.16.28-.39.28-.69 0-.3-.093-.527-.28-.68-.18-.16-.443-.24-.79-.24h-1.62v1.84zM7.97 149v-5.5h.9v2.27h.94l1.6-2.27h1.03l-1.85 2.62 1.88 2.88h-1.05l-1.6-2.45h-.95V149h-.9zm8.026.08c-.44 0-.82-.083-1.14-.25a1.82 1.82 0 01-.75-.72c-.173-.32-.26-.697-.26-1.13v-1.46c0-.44.087-.817.26-1.13.18-.313.43-.553.75-.72.32-.167.7-.25 1.14-.25.44 0 .82.083 1.14.25.32.167.567.407.74.72.18.313.27.687.27 1.12v1.47c0 .433-.09.81-.27 1.13-.173.313-.42.553-.74.72-.32.167-.7.25-1.14.25zm0-.8c.393 0 .7-.11.92-.33.22-.22.33-.543.33-.97v-1.46c0-.427-.11-.75-.33-.97-.22-.22-.527-.33-.92-.33-.387 0-.693.11-.92.33-.22.22-.33.543-.33.97v1.46c0 .427.11.75.33.97.227.22.533.33.92.33zm3.756.72v-5.5h1.22l.72 2.11c.073.213.14.427.2.64.06.207.104.367.13.48.027-.113.067-.273.12-.48.06-.213.123-.43.19-.65l.68-2.1h1.22v5.5h-.87v-.85c0-.3.004-.627.01-.98l.02-1.07.04-1.02c.014-.327.024-.613.03-.86l-.98 3.13h-.95l-.99-3.11c.013.3.023.673.03 1.12.014.447.024.913.03 1.4.014.487.02.95.02 1.39v.85h-.87zm5.996 0v-5.5h1.22l.72 2.11c.074.213.14.427.2.64.06.207.104.367.13.48.027-.113.067-.273.12-.48.06-.213.124-.43.19-.65l.68-2.1h1.22v5.5h-.87v-.85c0-.3.004-.627.01-.98l.02-1.07.04-1.02c.014-.327.024-.613.03-.86l-.98 3.13h-.95l-.99-3.11c.014.3.024.673.03 1.12.014.447.024.913.03 1.4.014.487.02.95.02 1.39v.85h-.87zm7.016 1.8l.81-2.14-2.04-5.16h1l1.28 3.4c.047.113.09.25.13.41.04.153.074.283.1.39l.1-.39c.04-.16.08-.297.12-.41l1.2-3.4h.97l-2.71 7.3h-.96zm5.156-1.8v-5.5h.9v2.29h2.32v-2.29h.9v5.5h-.9v-2.39h-2.32V149h-.9zm5.997 0v-5.5h.86v3c0 .193-.007.397-.02.61a8.72 8.72 0 01-.04.61 6.67 6.67 0 01-.05.48l2.22-4.7h1.15v5.5h-.86v-3c0-.193.003-.397.01-.61.013-.213.03-.417.05-.61.02-.2.036-.363.05-.49l-2.22 4.71h-1.15zm6.026 0v-5.5h.9v2.27h.94l1.6-2.27h1.03l-1.85 2.62 1.88 2.88h-1.05l-1.6-2.45h-.95V149h-.9zm7.546.1c-.58 0-1.037-.147-1.37-.44-.334-.3-.5-.703-.5-1.21 0-.513.166-.917.5-1.21.333-.293.783-.44 1.35-.44h1.7v-.55c0-.34-.104-.6-.31-.78-.2-.187-.487-.28-.86-.28-.327 0-.6.07-.82.21a.747.747 0 00-.38.55h-.9c.06-.473.283-.85.67-1.13.386-.28.87-.42 1.45-.42.633 0 1.133.163 1.5.49.366.327.55.77.55 1.33V149h-.88v-1.05h-.15l.15-.15c0 .4-.157.717-.47.95-.307.233-.717.35-1.23.35zm.22-.71c.426 0 .776-.107 1.05-.32a.996.996 0 00.41-.82v-.78h-1.68c-.3 0-.537.083-.71.25-.174.167-.26.393-.26.68 0 .307.103.55.31.73.213.173.506.26.88.26zm8.106 2.01V149h-3.91v-5.5h.9v4.7h2.16v-4.7h.9v4.7h.75v2.2h-.8zM67.9 149v-5.5h.86v3c0 .193-.007.397-.02.61a8.72 8.72 0 01-.04.61c-.013.187-.03.347-.05.48l2.22-4.7h1.15v5.5h-.86v-3c0-.193.003-.397.01-.61.013-.213.03-.417.05-.61l.05-.49-2.22 4.71H67.9zm8.916.1c-.46 0-.83-.157-1.11-.47-.28-.313-.42-.723-.42-1.23v-.83h-.88V149h-.83v-5.5h.83v2.35h.88v-.75c0-.513.137-.923.41-1.23.28-.313.653-.47 1.12-.47.493 0 .89.157 1.19.47.3.307.45.717.45 1.23v2.3c0 .507-.15.917-.45 1.23-.3.313-.697.47-1.19.47zm0-.7c.253 0 .45-.087.59-.26.147-.18.22-.427.22-.74v-2.3c0-.313-.073-.557-.22-.73-.14-.18-.337-.27-.59-.27-.247 0-.44.09-.58.27-.14.173-.21.417-.21.73v2.3c0 .313.07.56.21.74.14.173.333.26.58.26zm11.152.7a2.56 2.56 0 01-1.16-.25 1.805 1.805 0 01-.76-.72c-.18-.32-.27-.697-.27-1.13v-1.5c0-.44.09-.817.27-1.13.18-.313.434-.553.76-.72a2.56 2.56 0 011.16-.25c.634 0 1.144.17 1.53.51.387.34.59.803.61 1.39h-.9c-.02-.353-.14-.623-.36-.81-.213-.193-.506-.29-.88-.29-.393 0-.706.113-.94.34-.233.22-.35.537-.35.95V147c0 .413.117.733.35.96.234.227.547.34.94.34.374 0 .667-.097.88-.29.22-.193.34-.463.36-.81h.9c-.02.587-.223 1.05-.61 1.39-.386.34-.896.51-1.53.51zm9.912-.1v-5.5h.9v2.29h2.32v-2.29h.9v5.5h-.9v-2.39h-2.32V149h-.9zm5.997 0v-5.5h.86v3c0 .193-.007.397-.02.61a8.72 8.72 0 01-.04.61 6.67 6.67 0 01-.05.48l2.22-4.7h1.15v5.5h-.86v-3c0-.193.003-.397.01-.61.013-.213.03-.417.05-.61.02-.2.036-.363.05-.49l-2.22 4.71h-1.15zm5.816 0v-5.5h1.22l.72 2.11c.073.213.14.427.2.64.06.207.103.367.13.48.026-.113.066-.273.12-.48.06-.213.123-.43.19-.65l.68-2.1h1.22v5.5h-.87v-.85c0-.3.003-.627.01-.98l.02-1.07c.013-.36.026-.7.04-1.02.013-.327.023-.613.03-.86l-.98 3.13h-.95l-.99-3.11c.013.3.023.673.03 1.12.013.447.023.913.03 1.4.013.487.02.95.02 1.39v.85h-.87zM7.94 162v-5.5h4.12v5.5h-.9v-4.68H8.84V162h-.9zm8.056.08c-.44 0-.82-.083-1.14-.25a1.82 1.82 0 01-.75-.72c-.173-.32-.26-.697-.26-1.13v-1.46c0-.44.087-.817.26-1.13.18-.313.43-.553.75-.72.32-.167.7-.25 1.14-.25.44 0 .82.083 1.14.25.32.167.567.407.74.72.18.313.27.687.27 1.12v1.47c0 .433-.09.81-.27 1.13-.173.313-.42.553-.74.72-.32.167-.7.25-1.14.25zm0-.8c.393 0 .7-.11.92-.33.22-.22.33-.543.33-.97v-1.46c0-.427-.11-.75-.33-.97-.22-.22-.527-.33-.92-.33-.387 0-.693.11-.92.33-.22.22-.33.543-.33.97v1.46c0 .427.11.75.33.97.227.22.533.33.92.33zm6.016.82a2.56 2.56 0 01-1.16-.25 1.805 1.805 0 01-.76-.72c-.18-.32-.27-.697-.27-1.13v-1.5c0-.44.09-.817.27-1.13.18-.313.434-.553.76-.72a2.56 2.56 0 011.16-.25c.633 0 1.143.17 1.53.51.387.34.59.803.61 1.39h-.9c-.02-.353-.14-.623-.36-.81-.213-.193-.506-.29-.88-.29-.393 0-.707.113-.94.34-.233.22-.35.537-.35.95V160c0 .413.117.733.35.96.233.227.547.34.94.34.373 0 .667-.097.88-.29.22-.193.34-.463.36-.81h.9c-.02.587-.223 1.05-.61 1.39-.387.34-.897.51-1.53.51zm3.226-.03v-.84h.18c.307 0 .52-.12.64-.36.127-.24.194-.67.2-1.29l.06-3.08h3.73v5.5h-.9v-4.68h-1.94l-.05 2.3c-.013.58-.08 1.05-.2 1.41-.113.36-.293.623-.54.79-.24.167-.556.25-.95.25h-.23zm8.746.03a2.4 2.4 0 01-1.14-.26 1.881 1.881 0 01-.75-.73c-.173-.32-.26-.69-.26-1.11v-1.5c0-.427.087-.797.26-1.11.18-.313.43-.557.75-.73a2.4 2.4 0 011.14-.26c.434 0 .81.087 1.13.26.327.173.577.417.75.73.18.313.27.683.27 1.11v.97h-3.42v.53c0 .433.11.767.33 1 .22.227.534.34.94.34.347 0 .627-.06.84-.18a.795.795 0 00.39-.56h.9a1.53 1.53 0 01-.68 1.1c-.386.267-.87.4-1.45.4zm1.27-3.23v-.37c0-.433-.11-.767-.33-1-.213-.233-.526-.35-.94-.35-.406 0-.72.117-.94.35-.22.233-.33.567-.33 1v.29h2.61l-.07.08zm8.483 3.13v-5.5h1.22l.72 2.11c.073.213.14.427.2.64.06.207.103.367.13.48.026-.113.066-.273.12-.48.06-.213.123-.43.19-.65l.68-2.1h1.22v5.5h-.87v-.85c0-.3.003-.627.01-.98l.02-1.07c.013-.36.026-.7.04-1.02.013-.327.023-.613.03-.86l-.98 3.13h-.95l-.99-3.11c.013.3.023.673.03 1.12.013.447.023.913.03 1.4.013.487.02.95.02 1.39v.85h-.87zm8.236.1a2.4 2.4 0 01-1.14-.26 1.881 1.881 0 01-.75-.73c-.174-.32-.26-.69-.26-1.11v-1.5c0-.427.086-.797.26-1.11.18-.313.43-.557.75-.73a2.4 2.4 0 011.14-.26c.433 0 .81.087 1.13.26.326.173.576.417.75.73.18.313.27.683.27 1.11v.97h-3.42v.53c0 .433.11.767.33 1 .22.227.533.34.94.34.346 0 .626-.06.84-.18a.795.795 0 00.39-.56h.9c-.06.46-.287.827-.68 1.1-.387.267-.87.4-1.45.4zm1.27-3.23v-.37c0-.433-.11-.767-.33-1-.214-.233-.527-.35-.94-.35-.407 0-.72.117-.94.35-.22.233-.33.567-.33 1v.29h2.61l-.07.08zm2.646 4.93v-7.3h.9v1.05h.18l-.18.21c0-.42.136-.75.41-.99.28-.247.646-.37 1.1-.37.553 0 .993.183 1.32.55.333.36.5.857.5 1.49v1.61c0 .42-.077.783-.23 1.09a1.636 1.636 0 01-.63.71c-.267.167-.587.25-.96.25-.447 0-.81-.123-1.09-.37s-.42-.577-.42-.99l.18.21h-.2l.02 1.25v1.6h-.9zm2.11-2.48c.38 0 .676-.113.89-.34.22-.227.33-.553.33-.98v-1.5c0-.427-.11-.753-.33-.98-.214-.227-.51-.34-.89-.34-.367 0-.66.117-.88.35-.22.233-.33.557-.33.97v1.5c0 .413.11.737.33.97.22.233.513.35.88.35zm5.966.76c-.44 0-.82-.083-1.14-.25a1.82 1.82 0 01-.75-.72c-.174-.32-.26-.697-.26-1.13v-1.46c0-.44.087-.817.26-1.13.18-.313.43-.553.75-.72.32-.167.7-.25 1.14-.25.44 0 .82.083 1.14.25.32.167.566.407.74.72.18.313.27.687.27 1.12v1.47c0 .433-.09.81-.27 1.13a1.76 1.76 0 01-.74.72c-.32.167-.7.25-1.14.25zm0-.8c.393 0 .7-.11.92-.33.22-.22.33-.543.33-.97v-1.46c0-.427-.11-.75-.33-.97-.22-.22-.527-.33-.92-.33-.387 0-.694.11-.92.33-.22.22-.33.543-.33.97v1.46c0 .427.11.75.33.97.227.22.533.33.92.33zm3.936.72v-5.5h4.12v5.5h-.9v-4.68H68.8V162h-.9zm5.976 1.8v-7.3h.9v1.05h.18l-.18.21c0-.42.137-.75.41-.99.28-.247.647-.37 1.1-.37.553 0 .993.183 1.32.55.333.36.5.857.5 1.49v1.61c0 .42-.077.783-.23 1.09a1.634 1.634 0 01-.63.71c-.267.167-.587.25-.96.25-.447 0-.81-.123-1.09-.37s-.42-.577-.42-.99l.18.21h-.2l.02 1.25v1.6h-.9zm2.11-2.48c.38 0 .677-.113.89-.34.22-.227.33-.553.33-.98v-1.5c0-.427-.11-.753-.33-.98-.213-.227-.51-.34-.89-.34-.367 0-.66.117-.88.35-.22.233-.33.557-.33.97v1.5c0 .413.11.737.33.97.22.233.513.35.88.35zm3.906.68v-5.5h.86v3c0 .193-.007.397-.02.61a8.72 8.72 0 01-.04.61c-.013.187-.03.347-.05.48l2.22-4.7h1.15v5.5h-.86v-3c0-.193.003-.397.01-.61.014-.213.03-.417.05-.61l.05-.49-2.22 4.71h-1.15zm5.656 0l1.41-2.12c-.42-.1-.746-.293-.98-.58-.226-.287-.34-.643-.34-1.07 0-.54.177-.963.53-1.27.36-.307.85-.46 1.47-.46h2.37v5.5h-.9v-2.05H87.9L86.6 162h-1.05zm2.09-2.85h1.47v-1.85h-1.47c-.333 0-.596.083-.79.25-.193.16-.29.387-.29.68 0 .287.097.513.29.68.194.16.457.24.79.24zm5.856 2.85v-4.71h-2v-.79h4.9v.79h-2V162h-.9zm4.386 0v-5.5h.86v3c0 .193-.006.397-.02.61-.006.213-.02.417-.04.61-.013.187-.03.347-.05.48l2.22-4.7h1.15v5.5h-.86v-3c0-.193.004-.397.01-.61.014-.213.03-.417.05-.61l.05-.49-2.22 4.71h-1.15zm5.657 0l1.41-2.12c-.42-.1-.747-.293-.98-.58-.227-.287-.34-.643-.34-1.07 0-.54.176-.963.53-1.27.36-.307.85-.46 1.47-.46h2.37v5.5h-.9v-2.05h-1.21l-1.3 2.05h-1.05zm2.09-2.85h1.47v-1.85h-1.47c-.334 0-.597.083-.79.25-.194.16-.29.387-.29.68 0 .287.096.513.29.68.193.16.456.24.79.24zm6.306 2.95c-.254 0-.457-.073-.61-.22-.147-.147-.22-.343-.22-.59 0-.26.073-.467.22-.62.153-.153.356-.23.61-.23.253 0 .453.077.6.23.153.153.23.36.23.62 0 .247-.077.443-.23.59-.147.147-.347.22-.6.22z" fill="#000"/><path d="M5.707 33v-7.3h4.68V33h-1.5v-5.9h-1.68V33h-1.5zm8.336.1c-.487 0-.91-.09-1.27-.27a2.087 2.087 0 01-.84-.77 2.27 2.27 0 01-.29-1.16v-1.3c0-.44.097-.823.29-1.15a2 2 0 01.84-.77c.36-.187.783-.28 1.27-.28.493 0 .917.093 1.27.28.36.18.637.437.83.77.2.327.3.71.3 1.15v1.3c0 .44-.1.827-.3 1.16-.193.327-.47.583-.83.77-.353.18-.777.27-1.27.27zm0-1.3c.293 0 .517-.077.67-.23.153-.16.23-.383.23-.67v-1.3c0-.293-.077-.517-.23-.67-.153-.153-.377-.23-.67-.23-.287 0-.51.077-.67.23-.153.153-.23.377-.23.67v1.3c0 .287.077.51.23.67.16.153.383.23.67.23zm3.216 2.6v-2.67h.31c.113-.113.23-.31.35-.59.127-.287.193-.633.2-1.04l.05-2.6h4.05v4.23h.6v2.67h-1.4V33h-2.76v1.4h-1.4zm1.8-2.67h1.76v-2.94h-1.27l-.03 1.3a3.142 3.142 0 01-.17 1.02c-.1.287-.197.493-.29.62zM23.695 33v-5.5h4.68V33h-1.5v-4.1h-1.68V33h-1.5zm5.996 0v-5.5h1.32V30c0 .167-.01.377-.03.63-.02.247-.046.497-.08.75a9.533 9.533 0 01-.09.67l1.74-4.55h1.82V33h-1.32v-2.5c0-.173.01-.37.03-.59a26.1 26.1 0 01.07-.68c.027-.227.054-.42.08-.58L31.511 33h-1.82zm8.366.1c-.486 0-.913-.09-1.28-.27a2.073 2.073 0 01-.85-.77c-.2-.333-.3-.72-.3-1.16v-1.3c0-.447.1-.833.3-1.16.2-.327.484-.58.85-.76.367-.187.794-.28 1.28-.28.727 0 1.307.183 1.74.55.434.367.664.867.69 1.5h-1.5a.754.754 0 00-.28-.55c-.16-.133-.376-.2-.65-.2-.3 0-.53.077-.69.23-.16.153-.24.377-.24.67v1.3c0 .287.08.51.24.67.16.153.39.23.69.23.274 0 .49-.063.65-.19a.763.763 0 00.28-.56h1.5c-.026.633-.256 1.133-.69 1.5-.433.367-1.013.55-1.74.55zm3.656-.1v-5.5h1.5v2.08h.74l1.15-2.08h1.67l-1.53 2.69 1.56 2.81h-1.7l-1.16-2.16h-.73V33h-1.5zm7.596.1c-.553 0-.993-.15-1.32-.45-.32-.3-.48-.707-.48-1.22 0-.553.19-.977.57-1.27.387-.3.94-.45 1.66-.45h1.14v-.41a.627.627 0 00-.23-.51c-.146-.127-.346-.19-.6-.19a.992.992 0 00-.58.16.656.656 0 00-.28.44h-1.45c.06-.553.3-.99.72-1.31.427-.327.974-.49 1.64-.49.7 0 1.254.173 1.66.52.414.34.62.8.62 1.38V33h-1.45v-.9h-.24l.25-.35c0 .413-.15.743-.45.99-.293.24-.686.36-1.18.36zm.56-1.1c.294 0 .534-.077.72-.23a.768.768 0 00.29-.62v-.59h-1.11a.765.765 0 00-.55.2.654.654 0 00-.21.51.68.68 0 00.23.54c.154.127.364.19.63.19zm9.803 1v-5.5h1.32V30c0 .167-.01.377-.03.63-.02.247-.047.497-.08.75-.027.253-.057.477-.09.67l1.74-4.55h1.82V33h-1.32v-2.5c0-.173.01-.37.03-.59.02-.227.043-.453.07-.68.026-.227.053-.42.08-.58L61.492 33h-1.82zm12.022 0v-5.5h1.5v2.08h.74l1.15-2.08h1.67l-1.53 2.69 1.56 2.81h-1.7l-1.16-2.16h-.73V33h-1.5zm8.306.1c-.487 0-.91-.09-1.27-.27a2.087 2.087 0 01-.84-.77 2.27 2.27 0 01-.29-1.16v-1.3c0-.44.097-.823.29-1.15a2 2 0 01.84-.77c.36-.187.783-.28 1.27-.28.493 0 .917.093 1.27.28.36.18.637.437.83.77.2.327.3.71.3 1.15v1.3c0 .44-.1.827-.3 1.16-.193.327-.47.583-.83.77-.353.18-.777.27-1.27.27zm0-1.3c.293 0 .517-.077.67-.23.153-.16.23-.383.23-.67v-1.3c0-.293-.077-.517-.23-.67-.153-.153-.377-.23-.67-.23-.287 0-.51.077-.67.23-.153.153-.23.377-.23.67v1.3c0 .287.077.51.23.67.16.153.383.23.67.23zm3.416 1.2v-5.5h1.69l.65 2.05c.073.233.13.447.17.64.047.187.073.327.08.42.013-.093.037-.233.07-.42.04-.193.097-.407.17-.64l.64-2.05h1.69V33h-1.37v-1c0-.22.003-.467.01-.74l.04-.86c.02-.3.037-.587.05-.86.02-.28.04-.527.06-.74l-.73 2.65h-1.27l-.77-2.65c.027.273.053.6.08.98.033.38.06.767.08 1.16.02.387.03.74.03 1.06v1h-1.37zm5.996 0v-5.5h1.69l.65 2.05c.074.233.13.447.17.64.047.187.074.327.08.42.014-.093.037-.233.07-.42.04-.193.097-.407.17-.64l.64-2.05h1.69V33h-1.37v-1c0-.22.004-.467.01-.74l.04-.86c.02-.3.037-.587.05-.86.02-.28.04-.527.06-.74l-.73 2.65h-1.27l-.77-2.65c.027.273.053.6.08.98.034.38.06.767.08 1.16.02.387.03.74.03 1.06v1h-1.37zm7.146 1.8l.75-2.07-2.06-5.23h1.63l.83 2.4c.06.18.12.4.18.66.067.253.117.46.15.62.034-.16.08-.367.14-.62.067-.26.13-.48.19-.66l.8-2.4h1.56l-2.6 7.3h-1.57zm5.086-1.8v-5.5h1.5v2.01h1.68V27.5h1.5V33h-1.5v-2.09h-1.68V33h-1.5zm5.996 0v-5.5h1.32V30c0 .167-.01.377-.03.63-.02.247-.046.497-.08.75a9.533 9.533 0 01-.09.67l1.74-4.55h1.82V33H111v-2.5c0-.173.01-.37.03-.59a26.1 26.1 0 01.07-.68c.027-.227.054-.42.08-.58L109.46 33h-1.82zm6.027 0v-5.5h1.5v2.08h.74l1.15-2.08h1.67l-1.53 2.69 1.56 2.81h-1.7l-1.16-2.16h-.73V33h-1.5zm7.596.1c-.554 0-.994-.15-1.32-.45-.32-.3-.48-.707-.48-1.22 0-.553.19-.977.57-1.27.386-.3.94-.45 1.66-.45h1.14v-.41a.629.629 0 00-.23-.51c-.147-.127-.347-.19-.6-.19a.99.99 0 00-.58.16.652.652 0 00-.28.44h-1.45c.06-.553.3-.99.72-1.31.426-.327.973-.49 1.64-.49.7 0 1.253.173 1.66.52.413.34.62.8.62 1.38V33h-1.45v-.9h-.24l.25-.35c0 .413-.15.743-.45.99-.294.24-.687.36-1.18.36zm.56-1.1c.293 0 .533-.077.72-.23a.769.769 0 00.29-.62v-.59h-1.11a.764.764 0 00-.55.2.654.654 0 00-.21.51c0 .227.076.407.23.54.153.127.363.19.63.19zm7.526 2.4V33h-3.72v-5.5h1.5v4.1h1.37v-4.1h1.5v4.1h.75v2.8h-1.4zm2.276-1.4v-5.5h1.32V30c0 .167-.01.377-.03.63-.02.247-.047.497-.08.75-.027.253-.057.477-.09.67l1.74-4.55h1.82V33h-1.32v-2.5c0-.173.01-.37.03-.59.02-.227.043-.453.07-.68.027-.227.053-.42.08-.58l-1.72 4.35h-1.82zm5.836 0l1.2-1.93a1.725 1.725 0 01-.83-.63 1.72 1.72 0 01-.3-1.01c0-.607.203-1.08.61-1.42.407-.34.97-.51 1.69-.51h2.47V33h-1.49v-1.74h-.66l-1 1.74h-1.69zm2.46-2.88h.9v-1.43h-.9c-.28 0-.5.063-.66.19a.638.638 0 00-.24.53c0 .227.077.403.23.53.16.12.383.18.67.18zm6.036-.92c-.3 0-.543-.083-.73-.25a.845.845 0 01-.27-.65c0-.273.09-.49.27-.65.187-.167.43-.25.73-.25s.54.083.72.25c.187.16.28.377.28.65a.83.83 0 01-.28.65c-.18.167-.42.25-.72.25zm0 3.9c-.3 0-.543-.083-.73-.25a.845.845 0 01-.27-.65c0-.273.09-.49.27-.65.187-.167.43-.25.73-.25s.54.083.72.25c.187.16.28.377.28.65a.83.83 0 01-.28.65c-.18.167-.42.25-.72.25z" fill="#fff"/><defs><linearGradient id="paint0_linear_2019_27" x1="0" y1="90.013" x2="223.91" y2="90.013" gradientUnits="userSpaceOnUse"><stop stop-color="#F1FFF7"/><stop offset="1" stop-color="#546A65"/></linearGradient><linearGradient id="paint1_linear_2019_27" x1="11.785" y1="10.802" x2="188.944" y2="149.868" gradientUnits="userSpaceOnUse"><stop stop-color="#475E59" stop-opacity=".7"/><stop offset="1" stop-color="#fff" stop-opacity=".7"/></linearGradient><linearGradient id="paint2_linear_2019_27" x1="0" y1="90.013" x2="223.91" y2="90.013" gradientUnits="userSpaceOnUse"><stop stop-color="#F1FFF7"/><stop offset="1" stop-color="#546A65"/></linearGradient><linearGradient id="paint3_linear_2019_27" x1="11.785" y1="10.802" x2="188.944" y2="149.868" gradientUnits="userSpaceOnUse"><stop stop-color="#475E59" stop-opacity=".7"/><stop offset="1" stop-color="#fff" stop-opacity=".7"/></linearGradient><linearGradient id="paint4_linear_2019_27" x1="0" y1="74.157" x2="223.615" y2="74.157" gradientUnits="userSpaceOnUse"><stop stop-color="#F1FFF7"/><stop offset="1" stop-color="#546A65"/></linearGradient><linearGradient id="paint5_linear_2019_27" x1="11.769" y1="8.899" x2="161.835" y2="151.696" gradientUnits="userSpaceOnUse"><stop stop-color="#475E59" stop-opacity=".7"/><stop offset="1" stop-color="#fff" stop-opacity=".7"/></linearGradient><filter id="filter0_f_2019_27" x="-18.273" y="161.227" width="116.682" height="79.727" filterUnits="userSpaceOnUse" color-interpolation-filters="sRGB"><feFlood flood-opacity="0" result="BackgroundImageFix"/><feBlend in="SourceGraphic" in2="BackgroundImageFix" result="shape"/><feGaussianBlur stdDeviation="2" result="effect1_foregroundBlur_2019_27"/></filter></defs></svg>