<svg width="360" height="233" fill="none" xmlns="http://www.w3.org/2000/svg"><path d="M.726 17V8.97h5.148V17h-1.65v-6.49H2.376V17H.726zm9.096.11c-.535 0-1-.099-1.397-.297a2.296 2.296 0 01-.924-.847c-.212-.367-.319-.792-.319-1.276v-1.43c0-.484.107-.906.32-1.265.22-.367.527-.649.923-.847.396-.205.862-.308 1.397-.308.543 0 1.009.103 1.397.308.396.198.7.48.913.847.22.36.33.781.33 1.265v1.43c0 .484-.11.91-.33 1.276a2.22 2.22 0 01-.913.847c-.388.198-.854.297-1.397.297zm0-1.43c.323 0 .569-.084.737-.253.169-.176.253-.422.253-.737v-1.43c0-.323-.084-.568-.253-.737-.168-.169-.414-.253-.737-.253-.315 0-.56.084-.737.253-.168.169-.253.414-.253.737v1.43c0 .315.085.561.253.737.176.169.422.253.737.253zM17.224 17v-1.925a5.1 5.1 0 01-.418.077 5.312 5.312 0 01-.627.033c-.799 0-1.43-.198-1.892-.594-.462-.403-.693-.957-.693-1.661v-1.98h1.65v1.87c0 .271.1.488.297.649.198.154.466.231.803.231.206 0 .385-.011.54-.033.16-.03.274-.055.34-.077v-2.64h1.65V17h-1.65zm5.654.11c-.536 0-1.005-.099-1.409-.297a2.296 2.296 0 01-.924-.847c-.212-.367-.319-.792-.319-1.276v-1.43c0-.484.107-.906.32-1.265a2.19 2.19 0 01.924-.847c.403-.205.872-.308 1.408-.308.535 0 .997.103 1.386.308.396.198.7.48.913.847.22.36.33.781.33 1.265v1.1h-3.708v.33c0 .381.092.671.276.869.183.19.458.286.825.286.256 0 .462-.044.616-.132a.64.64 0 00.319-.363h1.616a2.14 2.14 0 01-.902 1.276c-.462.323-1.019.484-1.671.484zm1.055-3.597v-.275c0-.374-.087-.66-.264-.858-.168-.198-.432-.297-.791-.297-.36 0-.631.103-.814.308-.177.205-.265.495-.265.869v.165l2.245-.022-.11.11zM26.551 17v-6.05h1.859l.715 2.255a7.3 7.3 0 01.187.704c.051.205.08.36.088.462.014-.103.04-.257.077-.462a7.3 7.3 0 01.187-.704l.704-2.255h1.859V17H30.72v-1.1c0-.242.003-.513.01-.814l.045-.946c.022-.33.04-.645.055-.946.022-.308.044-.58.066-.814l-.803 2.915h-1.397l-.847-2.915c.029.3.058.66.088 1.078.036.418.066.843.088 1.276.022.425.033.814.033 1.166V17H26.55zm7.787 1.98l.825-2.277-2.266-5.753h1.793l.913 2.64c.066.198.132.44.198.726.073.279.128.506.165.682.036-.176.088-.403.154-.682a10.9 10.9 0 01.209-.726l.88-2.64h1.716l-2.86 8.03h-1.727zm14.65-1.87c-.535 0-1.005-.099-1.408-.297a2.28 2.28 0 01-.935-.847c-.22-.367-.33-.792-.33-1.276v-1.43c0-.491.11-.917.33-1.276.22-.36.532-.638.935-.836.404-.205.873-.308 1.408-.308.8 0 1.438.202 1.914.605.477.403.73.953.76 1.65h-1.65a.83.83 0 00-.309-.605c-.176-.147-.414-.22-.715-.22-.33 0-.583.084-.759.253-.176.169-.264.414-.264.737v1.43c0 .315.088.561.264.737.176.169.43.253.76.253.3 0 .538-.07.714-.209a.841.841 0 00.308-.616h1.65c-.03.697-.282 1.247-.759 1.65-.477.403-1.114.605-1.914.605zm5.664-.11v-4.51h-1.98v-1.54h5.61v1.54h-1.98V17h-1.65zm7.348.11c-.536 0-1.001-.099-1.397-.297a2.296 2.296 0 01-.924-.847c-.213-.367-.32-.792-.32-1.276v-1.43c0-.484.107-.906.32-1.265.22-.367.528-.649.924-.847.396-.205.861-.308 1.397-.308.542 0 1.008.103 1.397.308.396.198.7.48.913.847.22.36.33.781.33 1.265v1.43c0 .484-.11.91-.33 1.276a2.22 2.22 0 01-.913.847c-.39.198-.855.297-1.397.297zm0-1.43c.322 0 .568-.084.737-.253.168-.176.253-.422.253-.737v-1.43c0-.323-.085-.568-.253-.737-.17-.169-.415-.253-.737-.253-.316 0-.561.084-.737.253-.17.169-.253.414-.253.737v1.43c0 .315.084.561.253.737.176.169.421.253.737.253zM65.948 17v-6.05H67.4v2.75c0 .183-.011.414-.033.693a16.59 16.59 0 01-.088.825c-.03.279-.063.524-.1.737l1.915-5.005h2.002V17h-1.452v-2.75c0-.19.01-.407.033-.649.022-.25.047-.499.077-.748.03-.25.058-.462.088-.638L67.95 17h-2.002zm8.27 0v-4.51h-1.98v-1.54h5.61v1.54h-1.98V17h-1.65zm11.285 0v-6.05h2.74c.74 0 1.327.15 1.76.451.44.293.66.693.66 1.199 0 .403-.166.73-.496.979-.33.242-.766.363-1.309.363v-.11c.594 0 1.067.132 1.42.396.359.264.538.612.538 1.045 0 .535-.22.957-.66 1.265-.432.308-1.023.462-1.77.462h-2.883zm1.617-1.166h1.188c.272 0 .488-.062.65-.187a.615.615 0 00.252-.506.637.637 0 00-.253-.528c-.161-.132-.377-.198-.649-.198H87.12v1.419zm0-2.387h1.133c.25 0 .448-.059.594-.176a.606.606 0 00.22-.484.618.618 0 00-.22-.495c-.146-.125-.344-.187-.594-.187H87.12v1.342zM91.75 17v-6.05h1.375v1.925h.33c.653 0 1.174.19 1.562.572.39.381.583.891.583 1.529 0 .609-.198 1.1-.594 1.474-.388.367-.905.55-1.55.55H91.75zm1.375-1.265h.33c.264 0 .466-.066.605-.198.147-.132.22-.323.22-.572 0-.264-.073-.466-.22-.605-.139-.147-.34-.22-.605-.22h-.33v1.595zM96.095 17v-6.05h1.375V17h-1.375zm5.038.11c-.807-.015-1.449-.235-1.925-.66-.477-.433-.715-1.02-.715-1.76v-2.695c0-.968.27-1.712.814-2.233.542-.528 1.316-.792 2.321-.792h1.815v1.595h-1.815c-.484 0-.855.121-1.111.363-.25.242-.374.598-.374 1.067v.77h.154l-.132.154c-.008-.41.124-.737.396-.979.278-.25.674-.374 1.188-.374.638 0 1.133.209 1.485.627.359.418.539.997.539 1.738v.759c0 .491-.11.924-.33 1.298a2.13 2.13 0 01-.913.847c-.389.19-.855.282-1.397.275zm0-1.43c.322 0 .568-.084.737-.253.168-.176.253-.422.253-.737v-.759c0-.323-.085-.568-.253-.737-.169-.169-.415-.253-.737-.253-.316 0-.561.084-.737.253-.169.169-.253.414-.253.737v.759c0 .315.084.561.253.737.176.169.421.253.737.253zm3.948 3.3v-8.03h1.595v1.155h.385l-.385.385c0-.52.143-.924.429-1.21.286-.293.678-.44 1.177-.44.608 0 1.096.216 1.463.649.366.425.55.997.55 1.716v1.54c0 .477-.085.895-.253 1.254a1.928 1.928 0 01-.693.825c-.301.19-.657.286-1.067.286-.499 0-.891-.143-1.177-.429-.286-.293-.429-.7-.429-1.221l.385.385h-.385l.055 1.485v1.65h-1.65zm2.607-3.3c.308 0 .542-.084.704-.253.168-.176.253-.422.253-.737v-1.43c0-.323-.085-.568-.253-.737-.162-.169-.396-.253-.704-.253-.301 0-.536.088-.704.264-.169.169-.253.41-.253.726v1.43c0 .315.084.561.253.737.168.169.403.253.704.253zm5.708 1.43c-.609 0-1.093-.165-1.452-.495-.352-.33-.528-.777-.528-1.342 0-.609.209-1.074.627-1.397.425-.33 1.034-.495 1.826-.495h1.254v-.451a.69.69 0 00-.253-.561c-.161-.14-.381-.209-.66-.209-.257 0-.469.059-.638.176a.721.721 0 00-.308.484h-1.595c.066-.609.33-1.089.792-1.441.469-.36 1.071-.539 1.804-.539.77 0 1.379.19 1.826.572.455.374.682.88.682 1.518V17h-1.595v-.99h-.264l.275-.385c0 .455-.165.818-.495 1.089-.323.264-.755.396-1.298.396zm.616-1.21c.323 0 .587-.084.792-.253a.843.843 0 00.319-.682v-.649h-1.221c-.249 0-.451.073-.605.22a.72.72 0 00-.231.561c0 .25.084.447.253.594.169.14.4.209.693.209zm5.862 1.1v-4.51h-1.98v-1.54h5.61v1.54h-1.98V17h-1.65zm4.817 0v-6.05h1.65v1.815h1.419c.763 0 1.357.19 1.782.572.433.374.649.895.649 1.562 0 .645-.22 1.159-.66 1.54-.432.374-1.019.561-1.76.561h-3.08zm1.65-1.43h1.32c.279 0 .492-.059.638-.176a.617.617 0 00.231-.506c0-.22-.077-.389-.231-.506-.146-.125-.359-.187-.638-.187h-1.32v1.375zM137.692 17v-6.05h1.452v2.75c0 .183-.011.414-.033.693-.022.271-.052.546-.088.825-.03.279-.063.524-.099.737l1.914-5.005h2.002V17h-1.452v-2.75c0-.19.011-.407.033-.649.022-.25.047-.499.077-.748.029-.25.058-.462.088-.638L139.694 17h-2.002zm6.258 0v-6.05h1.859l.715 2.255c.08.257.143.491.187.704.051.205.08.36.088.462.014-.103.04-.257.077-.462.044-.213.106-.447.187-.704l.704-2.255h1.859V17h-1.507v-1.1c0-.242.003-.513.011-.814l.044-.946c.022-.33.04-.645.055-.946.022-.308.044-.58.066-.814l-.803 2.915h-1.397l-.847-2.915c.029.3.058.66.088 1.078.036.418.066.843.088 1.276.022.425.033.814.033 1.166V17h-1.507zm9.371.11c-.535 0-1.005-.099-1.408-.297a2.296 2.296 0 01-.924-.847c-.213-.367-.319-.792-.319-1.276v-1.43c0-.484.106-.906.319-1.265.22-.367.528-.649.924-.847.403-.205.873-.308 1.408-.308.535 0 .997.103 1.386.308.396.198.7.48.913.847.22.36.33.781.33 1.265v1.1h-3.707v.33c0 .381.092.671.275.869.183.19.458.286.825.286.257 0 .462-.044.616-.132a.64.64 0 00.319-.363h1.617a2.14 2.14 0 01-.902 1.276c-.462.323-1.019.484-1.672.484zm1.056-3.597v-.275c0-.374-.088-.66-.264-.858-.169-.198-.433-.297-.792-.297-.359 0-.631.103-.814.308-.176.205-.264.495-.264.869v.165l2.244-.022-.11.11zM157.258 17v-6.05h1.65v2.211h1.848V10.95h1.65V17h-1.65v-2.299h-1.848V17h-1.65zm6.522 0v-6.05h1.65v2.211h1.848V10.95h1.65V17h-1.65v-2.299h-1.848V17h-1.65zm9.097.11c-.536 0-1.001-.099-1.397-.297a2.296 2.296 0 01-.924-.847c-.213-.367-.319-.792-.319-1.276v-1.43c0-.484.106-.906.319-1.265.22-.367.528-.649.924-.847.396-.205.861-.308 1.397-.308.542 0 1.008.103 1.397.308.396.198.7.48.913.847.22.36.33.781.33 1.265v1.43c0 .484-.11.91-.33 1.276-.213.36-.517.642-.913.847-.389.198-.855.297-1.397.297zm0-1.43c.322 0 .568-.084.737-.253.168-.176.253-.422.253-.737v-1.43c0-.323-.085-.568-.253-.737-.169-.169-.415-.253-.737-.253-.316 0-.561.084-.737.253-.169.169-.253.414-.253.737v1.43c0 .315.084.561.253.737.176.169.421.253.737.253zM183.083 17v-6.05h1.859l.715 2.255c.081.257.143.491.187.704.051.205.081.36.088.462.015-.103.04-.257.077-.462.044-.213.106-.447.187-.704l.704-2.255h1.859V17h-1.507v-1.1c0-.242.004-.513.011-.814l.044-.946c.022-.33.04-.645.055-.946.022-.308.044-.58.066-.814l-.803 2.915h-1.397l-.847-2.915c.029.3.059.66.088 1.078.037.418.066.843.088 1.276.022.425.033.814.033 1.166V17h-1.507zm9.371.11c-.535 0-1.005-.099-1.408-.297a2.296 2.296 0 01-.924-.847c-.213-.367-.319-.792-.319-1.276v-1.43c0-.484.106-.906.319-1.265.22-.367.528-.649.924-.847.403-.205.873-.308 1.408-.308.535 0 .997.103 1.386.308.396.198.7.48.913.847.22.36.33.781.33 1.265v1.1h-3.707v.33c0 .381.092.671.275.869.183.19.458.286.825.286.257 0 .462-.044.616-.132a.64.64 0 00.319-.363h1.617a2.14 2.14 0 01-.902 1.276c-.462.323-1.019.484-1.672.484zm1.056-3.597v-.275c0-.374-.088-.66-.264-.858-.169-.198-.433-.297-.792-.297-.359 0-.631.103-.814.308-.176.205-.264.495-.264.869v.165l2.244-.022-.11.11zM196.391 17v-6.05h1.65v2.211h1.848V10.95h1.65V17h-1.65v-2.299h-1.848V17h-1.65zm6.346 0l1.32-2.123a1.9 1.9 0 01-.913-.693 1.893 1.893 0 01-.33-1.111c0-.667.224-1.188.671-1.562.448-.374 1.067-.561 1.859-.561h2.717V17h-1.639v-1.914h-.726l-1.1 1.914h-1.859zm2.706-3.168h.99v-1.573h-.99c-.308 0-.55.07-.726.209-.176.14-.264.334-.264.583 0 .25.085.444.253.583.176.132.422.198.737.198zm6.567-1.012c-.33 0-.598-.092-.803-.275a.93.93 0 01-.297-.715c0-.3.099-.539.297-.715.205-.183.473-.275.803-.275.33 0 .594.092.792.275.205.176.308.414.308.715a.915.915 0 01-.308.715c-.198.183-.462.275-.792.275zm0 4.29c-.33 0-.598-.092-.803-.275a.93.93 0 01-.297-.715c0-.3.099-.539.297-.715.205-.183.473-.275.803-.275.33 0 .594.092.792.275.205.176.308.414.308.715a.915.915 0 01-.308.715c-.198.183-.462.275-.792.275z" fill="#fff"/><path d="M32.66 47v-7.3h2.49c.513 0 .96.097 1.34.29.387.193.683.463.89.81.213.347.32.753.32 1.22 0 .46-.107.867-.32 1.22-.213.347-.51.617-.89.81-.38.193-.827.29-1.34.29h-.99V47h-1.5zm1.5-4.01h.99c.32 0 .573-.087.76-.26.193-.18.29-.417.29-.71s-.097-.527-.29-.7c-.187-.18-.44-.27-.76-.27h-.99v1.94zm6.773 4.11c-.487 0-.914-.09-1.28-.27a2.087 2.087 0 01-.84-.77 2.27 2.27 0 01-.29-1.16v-1.3c0-.44.096-.823.29-1.15a2 2 0 01.84-.77c.366-.187.793-.28 1.28-.28.486 0 .906.093 1.26.28.36.18.636.437.83.77.2.327.3.71.3 1.15v1h-3.37v.3c0 .347.083.61.25.79.166.173.416.26.75.26.233 0 .42-.04.56-.12a.582.582 0 00.29-.33h1.47c-.12.48-.394.867-.82 1.16-.42.293-.927.44-1.52.44zm.96-3.27v-.25c0-.34-.08-.6-.24-.78-.154-.18-.394-.27-.72-.27-.327 0-.574.093-.74.28-.16.187-.24.45-.24.79v.15l2.04-.02-.1.1zm4.242 3.27c-.553 0-.993-.15-1.32-.45-.32-.3-.48-.707-.48-1.22 0-.553.19-.977.57-1.27.387-.3.94-.45 1.66-.45h1.14v-.41a.627.627 0 00-.23-.51c-.147-.127-.346-.19-.6-.19a.992.992 0 00-.58.16.656.656 0 00-.28.44h-1.45c.06-.553.3-.99.72-1.31.427-.327.974-.49 1.64-.49.7 0 1.254.173 1.66.52.413.34.62.8.62 1.38V47h-1.45v-.9h-.24l.25-.35c0 .413-.15.743-.45.99-.293.24-.686.36-1.18.36zm.56-1.1c.294 0 .533-.077.72-.23a.768.768 0 00.29-.62v-.59h-1.11a.765.765 0 00-.55.2.654.654 0 00-.21.51.68.68 0 00.23.54c.154.127.364.19.63.19zm3.283 1.07v-1.35h.3a.522.522 0 00.43-.22c.113-.147.173-.34.18-.58l.06-3.42h4.16V47h-1.5v-4.1h-1.19l-.04 2.12a2.274 2.274 0 01-.27 1.08c-.167.307-.4.547-.7.72a2.05 2.05 0 01-1.03.25h-.4zM56.39 47v-5.5h1.5v1.65h1.29c.694 0 1.234.173 1.62.52.394.34.59.813.59 1.42 0 .587-.2 1.053-.6 1.4-.393.34-.926.51-1.6.51h-2.8zm1.5-1.3h1.2c.254 0 .447-.053.58-.16a.56.56 0 00.21-.46c0-.2-.07-.353-.21-.46-.133-.113-.326-.17-.58-.17h-1.2v1.25zm4.383 1.3v-5.5h1.5v2.01h1.68V41.5h1.5V47h-1.5v-2.09h-1.68V47h-1.5zm5.662 0v-5.5h1.25v1.75h.3c.594 0 1.067.173 1.42.52.354.347.53.81.53 1.39 0 .553-.18 1-.54 1.34-.353.333-.823.5-1.41.5h-1.55zm1.25-1.15h.3c.24 0 .424-.06.55-.18.134-.12.2-.293.2-.52 0-.24-.066-.423-.2-.55-.126-.133-.31-.2-.55-.2h-.3v1.45zm2.7 1.15v-5.5h1.25V47h-1.25zm2.233 0v-5.5h1.32V44c0 .167-.01.377-.03.63-.02.247-.047.497-.08.75-.027.253-.057.477-.09.67l1.74-4.55h1.82V47h-1.32v-2.5c0-.173.01-.37.03-.59.02-.227.043-.453.07-.68.027-.227.053-.42.08-.58L75.938 47h-1.82zm2.38-6.35c-.547 0-.993-.137-1.34-.41-.34-.28-.51-.643-.51-1.09h1.15c0 .187.063.34.19.46a.76.76 0 00.51.17c.213 0 .383-.057.51-.17a.606.606 0 00.19-.46h1.15c0 .447-.17.81-.51 1.09-.34.273-.787.41-1.34.41zm11.805 6.45c-.487 0-.91-.09-1.27-.27a2.087 2.087 0 01-.84-.77 2.27 2.27 0 01-.29-1.16v-1.3c0-.44.097-.823.29-1.15a2 2 0 01.84-.77c.36-.187.783-.28 1.27-.28.493 0 .917.093 1.27.28.36.18.637.437.83.77.2.327.3.71.3 1.15v1.3c0 .44-.1.827-.3 1.16-.193.327-.47.583-.83.77-.353.18-.777.27-1.27.27zm0-1.3c.293 0 .517-.077.67-.23.153-.16.23-.383.23-.67v-1.3c0-.293-.077-.517-.23-.67-.153-.153-.377-.23-.67-.23-.287 0-.51.077-.67.23-.153.153-.23.377-.23.67v1.3c0 .287.077.51.23.67.16.153.383.23.67.23zm3.583 1.2v-5.5h4.68V47h-1.5v-4.1h-1.68V47h-1.5zm5.662 0v-5.5h1.25v1.75h.3c.594 0 1.067.173 1.42.52.354.347.53.81.53 1.39 0 .553-.18 1-.54 1.34-.353.333-.823.5-1.41.5h-1.55zm1.25-1.15h.3c.24 0 .424-.06.55-.18.133-.12.2-.293.2-.52 0-.24-.067-.423-.2-.55-.126-.133-.31-.2-.55-.2h-.3v1.45zm2.7 1.15v-5.5h1.25V47h-1.25zm3.823 0v-4.1h-1.8v-1.4h5.1v1.4h-1.8V47h-1.5zm6.672-3.8c-.3 0-.543-.083-.73-.25a.845.845 0 01-.27-.65c0-.273.09-.49.27-.65.187-.167.43-.25.73-.25s.54.083.72.25c.187.16.28.377.28.65a.83.83 0 01-.28.65c-.18.167-.42.25-.72.25zm0 3.9c-.3 0-.543-.083-.73-.25a.845.845 0 01-.27-.65c0-.273.09-.49.27-.65.187-.167.43-.25.73-.25s.54.083.72.25c.187.16.28.377.28.65a.83.83 0 01-.28.65c-.18.167-.42.25-.72.25zm9.785-.1v-7.3h4.06v.82h-3.16v2.2h1.21c.467 0 .867.09 1.2.27.334.173.59.42.77.74.187.32.28.697.28 1.13 0 .433-.093.81-.28 1.13-.18.32-.436.57-.77.75-.333.173-.733.26-1.2.26h-2.11zm.9-.82h1.21c.414 0 .737-.117.97-.35.234-.24.35-.563.35-.97 0-.413-.116-.737-.35-.97-.233-.233-.556-.35-.97-.35h-1.21v2.64zm7.083.9c-.44 0-.82-.083-1.14-.25a1.815 1.815 0 01-.75-.72c-.173-.32-.26-.697-.26-1.13v-1.46c0-.44.087-.817.26-1.13.18-.313.43-.553.75-.72.32-.167.7-.25 1.14-.25.44 0 .82.083 1.14.25.32.167.567.407.74.72.18.313.27.687.27 1.12v1.47c0 .433-.09.81-.27 1.13a1.75 1.75 0 01-.74.72c-.32.167-.7.25-1.14.25zm0-.8c.393 0 .7-.11.92-.33.22-.22.33-.543.33-.97v-1.46c0-.427-.11-.75-.33-.97-.22-.22-.527-.33-.92-.33-.387 0-.693.11-.92.33-.22.22-.33.543-.33.97v1.46c0 .427.11.75.33.97.227.22.533.33.92.33zm3.173.79v-.84h.18c.306 0 .52-.12.64-.36.126-.24.193-.67.2-1.29l.06-3.08h3.73V47h-.9v-4.68h-1.94l-.05 2.3c-.014.58-.08 1.05-.2 1.41-.114.36-.294.623-.54.79-.24.167-.557.25-.95.25h-.23zm8.672.03a2.4 2.4 0 01-1.14-.26 1.881 1.881 0 01-.75-.73c-.173-.32-.26-.69-.26-1.11v-1.5c0-.427.087-.797.26-1.11.18-.313.43-.557.75-.73a2.4 2.4 0 011.14-.26c.433 0 .81.087 1.13.26.327.173.577.417.75.73.18.313.27.683.27 1.11v.97h-3.42V45c0 .433.11.767.33 1 .22.227.533.34.94.34.347 0 .627-.06.84-.18a.796.796 0 00.39-.56h.9c-.06.46-.287.827-.68 1.1-.387.267-.87.4-1.45.4zm1.27-3.23v-.37c0-.433-.11-.767-.33-1-.213-.233-.527-.35-.94-.35-.407 0-.72.117-.94.35-.22.233-.33.567-.33 1v.29h2.61l-.07.08zm4.653 3.23c-.434 0-.814-.087-1.14-.26a1.881 1.881 0 01-.75-.73c-.174-.32-.26-.69-.26-1.11v-1.5c0-.427.086-.797.26-1.11.18-.313.43-.557.75-.73.326-.173.706-.26 1.14-.26.433 0 .81.087 1.13.26.326.173.576.417.75.73.18.313.27.683.27 1.11v.97h-3.42V45c0 .433.11.767.33 1 .22.227.533.34.94.34.346 0 .626-.06.84-.18a.796.796 0 00.39-.56h.9c-.06.46-.287.827-.68 1.1-.387.267-.87.4-1.45.4zm1.27-3.23v-.37c0-.433-.11-.767-.33-1-.214-.233-.527-.35-.94-.35-.407 0-.72.117-.94.35-.22.233-.33.567-.33 1v.29h2.61l-.07.08zm8.475 3.13v-.82h1.98v-5.73l-1.98 1.48v-1l1.65-1.23h1.23v6.48h1.62V47h-4.5zm8.022.1c-.446 0-.836-.087-1.17-.26-.326-.18-.58-.43-.76-.75a2.325 2.325 0 01-.27-1.14v-3.2c0-.44.09-.82.27-1.14.18-.32.434-.567.76-.74.334-.18.724-.27 1.17-.27.454 0 .844.09 1.17.27.327.173.58.42.76.74.18.32.27.7.27 1.14v3.2c0 .433-.09.813-.27 1.14-.18.32-.436.57-.77.75-.326.173-.713.26-1.16.26zm0-.77c.4 0 .72-.127.96-.38.247-.26.37-.593.37-1v-3.2c0-.407-.123-.737-.37-.99-.24-.26-.56-.39-.96-.39-.4 0-.723.13-.97.39-.24.253-.36.583-.36.99v3.2c0 .407.12.74.36 1 .247.253.57.38.97.38zm0-2.39a.597.597 0 01-.44-.17.633.633 0 01-.16-.45c0-.18.054-.323.16-.43a.597.597 0 01.44-.17c.18 0 .324.057.43.17a.56.56 0 01.17.43.606.606 0 01-.17.45.561.561 0 01-.43.17zm9.096 3.13v-.84h.18c.306 0 .52-.12.64-.36.126-.24.193-.67.2-1.29l.06-3.08h3.73V47h-.9v-4.68h-1.94l-.05 2.3c-.014.58-.08 1.05-.2 1.41-.114.36-.294.623-.54.79-.24.167-.557.25-.95.25h-.23zm8.672.03a2.4 2.4 0 01-1.14-.26 1.881 1.881 0 01-.75-.73c-.173-.32-.26-.69-.26-1.11v-1.5c0-.427.087-.797.26-1.11.18-.313.43-.557.75-.73a2.4 2.4 0 011.14-.26c.433 0 .81.087 1.13.26.327.173.577.417.75.73.18.313.27.683.27 1.11v.97h-3.42V45c0 .433.11.767.33 1 .22.227.533.34.94.34.347 0 .627-.06.84-.18a.796.796 0 00.39-.56h.9c-.06.46-.287.827-.68 1.1-.387.267-.87.4-1.45.4zm1.27-3.23v-.37c0-.433-.11-.767-.33-1-.213-.233-.527-.35-.94-.35-.407 0-.72.117-.94.35-.22.233-.33.567-.33 1v.29h2.61l-.07.08zm4.203 3.13v-4.71h-2v-.79h4.9v.79h-2V47h-.9zm10.235 0v-5.5h2.38c.573 0 1.016.13 1.33.39.313.253.47.61.47 1.07 0 .38-.13.687-.39.92-.26.227-.604.34-1.03.34v-.08c.466 0 .84.117 1.12.35.286.233.43.547.43.94 0 .493-.167.88-.5 1.16-.334.273-.8.41-1.4.41h-2.41zm.88-.79h1.53c.32 0 .566-.07.74-.21.18-.14.27-.337.27-.59 0-.26-.09-.46-.27-.6-.174-.14-.42-.21-.74-.21h-1.53v1.61zm0-2.39h1.5c.28 0 .5-.067.66-.2.166-.133.25-.32.25-.56 0-.24-.08-.427-.24-.56-.16-.14-.384-.21-.67-.21h-1.5v1.53zm13.025 3.28c-.647 0-1.16-.19-1.54-.57-.373-.387-.56-.913-.56-1.58v-2.5c0-.88.22-1.557.66-2.03.44-.48 1.07-.72 1.89-.72h1.4v.9h-1.4c-.54 0-.95.16-1.23.48-.28.313-.42.77-.42 1.37v.65h.14l-.14.2c.007-.393.14-.7.4-.92.26-.22.613-.33 1.06-.33.58 0 1.03.187 1.35.56.327.373.49.887.49 1.54v.8c0 .447-.083.83-.25 1.15-.167.32-.407.567-.72.74-.313.173-.69.26-1.13.26zm0-.8c.387 0 .683-.117.89-.35.207-.233.31-.567.31-1v-.8c0-.433-.103-.767-.31-1-.207-.233-.503-.35-.89-.35s-.683.117-.89.35c-.207.227-.31.56-.31 1v.8c0 .433.103.767.31 1 .207.233.503.35.89.35zm3.862.7v-5.5h.86v3c0 .193-.006.397-.02.61-.006.213-.02.417-.04.61-.013.187-.03.347-.05.48l2.22-4.7h1.15V47h-.86v-3c0-.193.004-.397.01-.61.014-.213.03-.417.05-.61l.05-.49-2.22 4.71h-1.15zm7.723.07c-.58 0-1.057-.123-1.43-.37a1.468 1.468 0 01-.66-1h.95c.047.167.17.303.37.41.207.107.463.16.77.16h.47c.327 0 .58-.077.76-.23a.739.739 0 00.28-.6c0-.267-.09-.477-.27-.63-.173-.153-.43-.23-.77-.23h-1.21v-.78h1.18c.307 0 .54-.073.7-.22a.75.75 0 00.24-.58.76.76 0 00-.11-.42.637.637 0 00-.31-.26c-.14-.06-.31-.09-.51-.09h-.5c-.267 0-.497.06-.69.18-.193.12-.31.267-.35.44h-.95c.067-.413.283-.753.65-1.02.367-.267.813-.4 1.34-.4h.5c.393 0 .73.063 1.01.19.28.12.493.293.64.52.153.227.23.497.23.81 0 .327-.107.597-.32.81-.213.207-.513.323-.9.35v.04c.473.033.817.16 1.03.38.213.22.32.537.32.95 0 .487-.18.873-.54 1.16-.36.287-.843.43-1.45.43h-.47zm4.123-.07v-5.5h.9v2.29h2.32V41.5h.9V47h-.9v-2.39h-2.32V47h-.9zm7.982.1a2.4 2.4 0 01-1.14-.26 1.881 1.881 0 01-.75-.73c-.173-.32-.26-.69-.26-1.11v-1.5c0-.427.087-.797.26-1.11.18-.313.43-.557.75-.73a2.4 2.4 0 011.14-.26c.434 0 .81.087 1.13.26.327.173.577.417.75.73.18.313.27.683.27 1.11v.97h-3.42V45c0 .433.11.767.33 1 .22.227.534.34.94.34.347 0 .627-.06.84-.18a.79.79 0 00.39-.56h.9a1.53 1.53 0 01-.68 1.1c-.386.267-.87.4-1.45.4zm1.27-3.23v-.37c0-.433-.11-.767-.33-1-.213-.233-.526-.35-.94-.35-.406 0-.72.117-.94.35-.22.233-.33.567-.33 1v.29h2.61l-.07.08zm4.673 3.23a2.56 2.56 0 01-1.16-.25 1.8 1.8 0 01-.76-.72c-.18-.32-.27-.697-.27-1.13v-1.5c0-.44.09-.817.27-1.13a1.8 1.8 0 01.76-.72 2.56 2.56 0 011.16-.25c.633 0 1.143.17 1.53.51.386.34.59.803.61 1.39h-.9c-.02-.353-.14-.623-.36-.81-.214-.193-.507-.29-.88-.29-.394 0-.707.113-.94.34-.234.22-.35.537-.35.95V45c0 .413.116.733.35.96.233.227.546.34.94.34.373 0 .666-.097.88-.29.22-.193.34-.463.36-.81h.9c-.02.587-.224 1.05-.61 1.39-.387.34-.897.51-1.53.51zm5.902 0a2.4 2.4 0 01-1.14-.26 1.881 1.881 0 01-.75-.73c-.173-.32-.26-.69-.26-1.11v-1.5c0-.427.087-.797.26-1.11.18-.313.43-.557.75-.73a2.4 2.4 0 011.14-.26c.434 0 .81.087 1.13.26.327.173.577.417.75.73.18.313.27.683.27 1.11v.97h-3.42V45c0 .433.11.767.33 1 .22.227.534.34.94.34.347 0 .627-.06.84-.18a.79.79 0 00.39-.56h.9a1.53 1.53 0 01-.68 1.1c-.386.267-.87.4-1.45.4zm1.27-3.23v-.37c0-.433-.11-.767-.33-1-.213-.233-.526-.35-.94-.35-.406 0-.72.117-.94.35-.22.233-.33.567-.33 1v.29h2.61l-.07.08zm8.515 3.13v-5.5h.86v3c0 .193-.006.397-.02.61-.006.213-.02.417-.04.61-.013.187-.03.347-.05.48l2.22-4.7h1.15V47h-.86v-3c0-.193.004-.397.01-.61.014-.213.03-.417.05-.61l.05-.49-2.22 4.71h-1.15zm11.666 0v-5.5h1.22l.72 2.11c.073.213.14.427.2.64.06.207.103.367.13.48.026-.113.066-.273.12-.48.06-.213.123-.43.19-.65l.68-2.1h1.22V47h-.87v-.85c0-.3.003-.627.01-.98l.02-1.07c.013-.36.026-.7.04-1.02.013-.327.023-.613.03-.86l-.98 3.13h-.95l-.99-3.11c.013.3.023.673.03 1.12.013.447.023.913.03 1.4.013.487.02.95.02 1.39V47h-.87zm6.102 0v-5.5h.9v2.29h2.32V41.5h.9V47h-.9v-2.39h-2.32V47h-.9zm7.983.08c-.44 0-.82-.083-1.14-.25a1.815 1.815 0 01-.75-.72c-.174-.32-.26-.697-.26-1.13v-1.46c0-.44.086-.817.26-1.13.18-.313.43-.553.75-.72.32-.167.7-.25 1.14-.25.44 0 .82.083 1.14.25.32.167.566.407.74.72.18.313.27.687.27 1.12v1.47c0 .433-.09.81-.27 1.13a1.76 1.76 0 01-.74.72c-.32.167-.7.25-1.14.25zm0-.8c.393 0 .7-.11.92-.33.22-.22.33-.543.33-.97v-1.46c0-.427-.11-.75-.33-.97-.22-.22-.527-.33-.92-.33-.387 0-.694.11-.92.33-.22.22-.33.543-.33.97v1.46c0 .427.11.75.33.97.226.22.533.33.92.33zm3.102.72l1.2-2.82-1.12-2.68h.87l.96 2.4h.53v-2.4h.76v2.4h.51l.99-2.4h.86l-1.12 2.65 1.2 2.85h-.9l-1-2.5h-.54V47h-.76v-2.5h-.54l-1.01 2.5h-.89zm8.743.1a2.4 2.4 0 01-1.14-.26 1.881 1.881 0 01-.75-.73c-.173-.32-.26-.69-.26-1.11v-1.5c0-.427.087-.797.26-1.11.18-.313.43-.557.75-.73a2.4 2.4 0 011.14-.26c.433 0 .81.087 1.13.26.327.173.577.417.75.73.18.313.27.683.27 1.11v.97h-3.42V45c0 .433.11.767.33 1 .22.227.533.34.94.34.347 0 .627-.06.84-.18a.796.796 0 00.39-.56h.9c-.06.46-.287.827-.68 1.1-.387.267-.87.4-1.45.4zm1.27-3.23v-.37c0-.433-.11-.767-.33-1-.213-.233-.527-.35-.94-.35-.407 0-.72.117-.94.35-.22.233-.33.567-.33 1v.29h2.61l-.07.08zm4.672 3.23a2.56 2.56 0 01-1.16-.25 1.805 1.805 0 01-.76-.72c-.18-.32-.27-.697-.27-1.13v-1.5c0-.44.09-.817.27-1.13.18-.313.434-.553.76-.72a2.56 2.56 0 011.16-.25c.634 0 1.144.17 1.53.51.387.34.59.803.61 1.39h-.9c-.02-.353-.14-.623-.36-.81-.213-.193-.506-.29-.88-.29-.393 0-.706.113-.94.34-.233.22-.35.537-.35.95V45c0 .413.117.733.35.96.234.227.547.34.94.34.374 0 .667-.097.88-.29.22-.193.34-.463.36-.81h.9c-.02.587-.223 1.05-.61 1.39-.386.34-.896.51-1.53.51zm5.453-.1v-4.71h-2v-.79h4.9v.79h-2V47h-.9zm4.313 0v-5.5h2.38c.573 0 1.016.13 1.33.39.313.253.47.61.47 1.07 0 .38-.13.687-.39.92-.26.227-.604.34-1.03.34v-.08c.466 0 .84.117 1.12.35.286.233.43.547.43.94 0 .493-.167.88-.5 1.16-.334.273-.8.41-1.4.41h-2.41zm.88-.79h1.53c.32 0 .566-.07.74-.21.18-.14.27-.337.27-.59 0-.26-.09-.46-.27-.6-.174-.14-.42-.21-.74-.21h-1.53v1.61zm0-2.39h1.5c.28 0 .5-.067.66-.2.166-.133.25-.32.25-.56 0-.24-.08-.427-.24-.56-.16-.14-.384-.21-.67-.21h-1.5v1.53zm7.102 3.26c-.44 0-.82-.083-1.14-.25a1.815 1.815 0 01-.75-.72c-.173-.32-.26-.697-.26-1.13v-1.46c0-.44.087-.817.26-1.13.18-.313.43-.553.75-.72.32-.167.7-.25 1.14-.25.44 0 .82.083 1.14.25.32.167.567.407.74.72.18.313.27.687.27 1.12v1.47c0 .433-.09.81-.27 1.13a1.75 1.75 0 01-.74.72c-.32.167-.7.25-1.14.25zm0-.8c.393 0 .7-.11.92-.33.22-.22.33-.543.33-.97v-1.46c0-.427-.11-.75-.33-.97-.22-.22-.527-.33-.92-.33-.387 0-.693.11-.92.33-.22.22-.33.543-.33.97v1.46c0 .427.11.75.33.97.227.22.533.33.92.33zM33.78 68.8l.81-2.14-2.04-5.16h1l1.28 3.4c.047.113.09.25.13.41l.1.39.1-.39c.04-.16.08-.297.12-.41l1.2-3.4h.97l-2.71 7.3h-.96zm7.163-1.7c-.44 0-.827-.083-1.16-.25a1.801 1.801 0 01-.76-.72c-.18-.32-.27-.697-.27-1.13v-1.5c0-.44.09-.817.27-1.13.18-.313.433-.553.76-.72.333-.167.72-.25 1.16-.25.633 0 1.143.17 1.53.51.386.34.59.803.61 1.39h-.9c-.02-.353-.14-.623-.36-.81-.214-.193-.507-.29-.88-.29-.394 0-.707.113-.94.34-.234.22-.35.537-.35.95V65c0 .413.116.733.35.96.233.227.546.34.94.34.373 0 .666-.097.88-.29.22-.193.34-.463.36-.81h.9c-.02.587-.224 1.05-.61 1.39-.387.34-.897.51-1.53.51zm3.842-.1v-5.5h4.12V67h-.9v-4.68h-2.32V67h-.9zm7.983.1c-.434 0-.814-.087-1.14-.26a1.881 1.881 0 01-.75-.73c-.174-.32-.26-.69-.26-1.11v-1.5c0-.427.086-.797.26-1.11.18-.313.43-.557.75-.73.326-.173.706-.26 1.14-.26.433 0 .81.087 1.13.26a1.8 1.8 0 01.75.73c.18.313.27.683.27 1.11v.97h-3.42V65c0 .433.11.767.33 1 .22.227.533.34.94.34.346 0 .626-.06.84-.18a.795.795 0 00.39-.56h.9c-.06.46-.287.827-.68 1.1-.387.267-.87.4-1.45.4zm1.27-3.23v-.37c0-.433-.11-.767-.33-1-.214-.233-.527-.35-.94-.35-.407 0-.72.117-.94.35-.22.233-.33.567-.33 1v.29h2.61l-.07.08zM56.35 67l-.02-5.5h.84v4.82h1.17V61.5h.72v4.82h1.16V61.5h.83V67h-4.7zm6.203 0v-5.5h.9v2.29h2.32V61.5h.9V67h-.9v-2.39h-2.32V67h-.9zm5.632 0v-5.5h.84v2.02h.45c.594 0 1.06.157 1.4.47.347.307.52.73.52 1.27s-.173.967-.52 1.28c-.34.307-.806.46-1.4.46h-1.29zm.84-.72h.45c.354 0 .627-.09.82-.27.2-.18.3-.43.3-.75s-.1-.57-.3-.75c-.193-.18-.466-.27-.82-.27h-.45v2.04zm3.02.72v-5.5h.84V67h-.84zm1.913 0l1.95-2.83-1.83-2.67h1.06l1.09 1.7c.047.073.09.153.13.24.047.087.083.157.11.21.02-.053.05-.123.09-.21a3.76 3.76 0 01.14-.24l1.1-1.7h1.05l-1.83 2.68 1.94 2.82h-1.06l-1.18-1.8a2.772 2.772 0 01-.14-.25c-.04-.1-.077-.18-.11-.24a3.995 3.995 0 01-.27.49l-1.19 1.8h-1.05zm12.285 0v-5.5h4.12V67h-.9v-4.68h-2.32V67h-.9zm5.903 1.8v-7.3h.9v1.05h.18l-.18.21c0-.42.136-.75.41-.99.28-.247.646-.37 1.1-.37.553 0 .993.183 1.32.55.333.36.5.857.5 1.49v1.61c0 .42-.077.783-.23 1.09a1.634 1.634 0 01-.63.71c-.267.167-.587.25-.96.25-.447 0-.81-.123-1.09-.37s-.42-.577-.42-.99l.18.21h-.2l.02 1.25v1.6h-.9zm2.11-2.48c.38 0 .676-.113.89-.34.22-.227.33-.553.33-.98v-1.5c0-.427-.11-.753-.33-.98-.214-.227-.51-.34-.89-.34-.367 0-.66.117-.88.35-.22.233-.33.557-.33.97V65c0 .413.11.737.33.97.22.233.513.35.88.35zm5.892.76c-.44 0-.82-.083-1.14-.25a1.815 1.815 0 01-.75-.72c-.173-.32-.26-.697-.26-1.13v-1.46c0-.44.087-.817.26-1.13.18-.313.43-.553.75-.72.32-.167.7-.25 1.14-.25.44 0 .82.083 1.14.25.32.167.567.407.74.72.18.313.27.687.27 1.12v1.47c0 .433-.09.81-.27 1.13a1.75 1.75 0 01-.74.72c-.32.167-.7.25-1.14.25zm0-.8c.394 0 .7-.11.92-.33.22-.22.33-.543.33-.97v-1.46c0-.427-.11-.75-.33-.97-.22-.22-.526-.33-.92-.33-.386 0-.693.11-.92.33-.22.22-.33.543-.33.97v1.46c0 .427.11.75.33.97.227.22.534.33.92.33zm5.923.82c-.434 0-.814-.087-1.14-.26a1.881 1.881 0 01-.75-.73c-.174-.32-.26-.69-.26-1.11v-1.5c0-.427.086-.797.26-1.11.18-.313.43-.557.75-.73.326-.173.706-.26 1.14-.26.433 0 .81.087 1.13.26.326.173.576.417.75.73.18.313.27.683.27 1.11v.97h-3.42V65c0 .433.11.767.33 1 .22.227.533.34.94.34.346 0 .626-.06.84-.18a.796.796 0 00.39-.56h.9c-.06.46-.287.827-.68 1.1-.387.267-.87.4-1.45.4zm1.27-3.23v-.37c0-.433-.11-.767-.33-1-.214-.233-.527-.35-.94-.35-.407 0-.72.117-.94.35-.22.233-.33.567-.33 1v.29h2.61l-.07.08zm2.622 3.13v-5.5h.9v2.27h.94l1.6-2.27h1.03l-1.85 2.62 1.88 2.88h-1.05l-1.6-2.45h-.95V67h-.9zm7.503 0v-4.71h-2v-.79h4.9v.79h-2V67h-.9zm6.372.08c-.44 0-.82-.083-1.14-.25a1.815 1.815 0 01-.75-.72c-.173-.32-.26-.697-.26-1.13v-1.46c0-.44.087-.817.26-1.13.18-.313.43-.553.75-.72.32-.167.7-.25 1.14-.25.44 0 .82.083 1.14.25.32.167.567.407.74.72.18.313.27.687.27 1.12v1.47c0 .433-.09.81-.27 1.13a1.75 1.75 0 01-.74.72c-.32.167-.7.25-1.14.25zm0-.8c.394 0 .7-.11.92-.33.22-.22.33-.543.33-.97v-1.46c0-.427-.11-.75-.33-.97-.22-.22-.526-.33-.92-.33-.386 0-.693.11-.92.33-.22.22-.33.543-.33.97v1.46c0 .427.11.75.33.97.227.22.534.33.92.33zm3.863.72v-5.5h2.38c.573 0 1.017.13 1.33.39.313.253.47.61.47 1.07 0 .38-.13.687-.39.92-.26.227-.603.34-1.03.34v-.08c.467 0 .84.117 1.12.35.287.233.43.547.43.94 0 .493-.167.88-.5 1.16-.333.273-.8.41-1.4.41h-2.41zm.88-.79h1.53c.32 0 .567-.07.74-.21.18-.14.27-.337.27-.59 0-.26-.09-.46-.27-.6-.173-.14-.42-.21-.74-.21h-1.53v1.61zm0-2.39h1.5c.28 0 .5-.067.66-.2.167-.133.25-.32.25-.56 0-.24-.08-.427-.24-.56-.16-.14-.383-.21-.67-.21h-1.5v1.53zm7.103 3.28c-.254 0-.457-.073-.61-.22-.147-.147-.22-.343-.22-.59 0-.26.073-.467.22-.62.153-.153.356-.23.61-.23.253 0 .453.077.6.23.153.153.23.36.23.62 0 .247-.077.443-.23.59-.147.147-.347.22-.6.22zM31.66 95v-7.3h4.68V95h-1.5v-5.9h-1.68V95h-1.5zm5.923 1.8v-7.3h1.45v1.05h.35l-.35.35c0-.473.13-.84.39-1.1.26-.267.616-.4 1.07-.4.553 0 .996.197 1.33.59.333.387.5.907.5 1.56v1.4c0 .433-.077.813-.23 1.14-.147.32-.357.57-.63.75-.274.173-.597.26-.97.26-.454 0-.81-.13-1.07-.39-.26-.267-.39-.637-.39-1.11l.35.35h-.35l.05 1.35v1.5h-1.5zm2.37-3c.28 0 .493-.077.64-.23.153-.16.23-.383.23-.67v-1.3c0-.293-.077-.517-.23-.67-.147-.153-.36-.23-.64-.23-.274 0-.487.08-.64.24-.154.153-.23.373-.23.66v1.3c0 .287.076.51.23.67.153.153.366.23.64.23zm5.182 1.3c-.553 0-.993-.15-1.32-.45-.32-.3-.48-.707-.48-1.22 0-.553.19-.977.57-1.27.387-.3.94-.45 1.66-.45h1.14v-.41a.627.627 0 00-.23-.51c-.147-.127-.346-.19-.6-.19a.992.992 0 00-.58.16.656.656 0 00-.28.44h-1.45c.06-.553.3-.99.72-1.31.427-.327.974-.49 1.64-.49.7 0 1.254.173 1.66.52.413.34.62.8.62 1.38V95h-1.45v-.9h-.24l.25-.35c0 .413-.15.743-.45.99-.293.24-.686.36-1.18.36zm.56-1.1c.294 0 .533-.077.72-.23a.768.768 0 00.29-.62v-.59h-1.11a.765.765 0 00-.55.2.654.654 0 00-.21.51.68.68 0 00.23.54c.154.127.364.19.63.19zm3.763 1v-5.5h1.5v2.08h.74l1.15-2.08h1.67l-1.53 2.69 1.56 2.81h-1.7l-1.16-2.16h-.73V95h-1.5zm7.482 0v-4.1h-1.8v-1.4h5.1v1.4h-1.8V95h-1.5zm4.333 0v-5.5h1.32V92c0 .167-.01.377-.03.63-.02.247-.047.497-.08.75-.027.253-.057.477-.09.67l1.74-4.55h1.82V95h-1.32v-2.5c0-.173.01-.37.03-.59.02-.227.043-.453.07-.68.026-.227.053-.42.08-.58L63.093 95h-1.82zm9.062 0v-1.75a4.67 4.67 0 01-.38.07 4.83 4.83 0 01-.57.03c-.726 0-1.3-.18-1.72-.54-.42-.367-.63-.87-.63-1.51v-1.8h1.5v1.7c0 .247.09.443.27.59.18.14.424.21.73.21.187 0 .35-.01.49-.03.147-.027.25-.05.31-.07v-2.4h1.5V95h-1.5zm5.133.1c-.487 0-.913-.09-1.28-.27a2.087 2.087 0 01-.84-.77 2.27 2.27 0 01-.29-1.16v-1.3c0-.44.097-.823.29-1.15a2 2 0 01.84-.77c.367-.187.793-.28 1.28-.28s.907.093 1.26.28c.36.18.637.437.83.77.2.327.3.71.3 1.15v1h-3.37v.3c0 .347.083.61.25.79.167.173.417.26.75.26.233 0 .42-.04.56-.12a.582.582 0 00.29-.33h1.47c-.12.48-.393.867-.82 1.16-.42.293-.927.44-1.52.44zm.96-3.27v-.25c0-.34-.08-.6-.24-.78-.153-.18-.393-.27-.72-.27-.327 0-.573.093-.74.28-.16.187-.24.45-.24.79v.15l2.04-.02-.1.1zm4.983 3.27c-.487 0-.914-.09-1.28-.27a2.073 2.073 0 01-.85-.77c-.2-.333-.3-.72-.3-1.16v-1.3c0-.447.1-.833.3-1.16.2-.327.483-.58.85-.76.366-.187.793-.28 1.28-.28.726 0 1.306.183 1.74.55.433.367.663.867.69 1.5h-1.5a.754.754 0 00-.28-.55c-.16-.133-.377-.2-.65-.2-.3 0-.53.077-.69.23-.16.153-.24.377-.24.67v1.3c0 .287.08.51.24.67.16.153.39.23.69.23.273 0 .49-.063.65-.19a.763.763 0 00.28-.56h1.5c-.027.633-.257 1.133-.69 1.5-.434.367-1.014.55-1.74.55zm3.582-.1v-5.5h1.5v2.08h.74l1.15-2.08h1.67l-1.53 2.69 1.56 2.81h-1.7l-1.16-2.16h-.73V95h-1.5zm5.893 0v-5.5h1.32V92c0 .167-.01.377-.03.63-.02.247-.047.497-.08.75-.027.253-.057.477-.09.67l1.74-4.55h1.82V95h-1.32v-2.5c0-.173.01-.37.03-.59.02-.227.043-.453.07-.68.026-.227.053-.42.08-.58L92.706 95h-1.82zm5.922 0v-5.5h1.32V92c0 .167-.01.377-.03.63-.02.247-.046.497-.08.75a9.533 9.533 0 01-.09.67l1.74-4.55h1.82V95h-1.32v-2.5c0-.173.01-.37.03-.59a26.1 26.1 0 01.07-.68c.027-.227.054-.42.08-.58L98.628 95h-1.82zm2.38-6.35c-.547 0-.993-.137-1.34-.41-.34-.28-.51-.643-.51-1.09h1.15c0 .187.064.34.19.46a.76.76 0 00.51.17c.213 0 .383-.057.51-.17a.606.606 0 00.19-.46h1.15c0 .447-.17.81-.51 1.09-.34.273-.787.41-1.34.41zm9.465 6.35v-5.5h4.68V95h-1.5v-4.1h-1.68V95h-1.5zm8.263.1c-.487 0-.91-.09-1.27-.27a2.087 2.087 0 01-.84-.77 2.273 2.273 0 01-.29-1.16v-1.3c0-.44.097-.823.29-1.15a2 2 0 01.84-.77c.36-.187.783-.28 1.27-.28.493 0 .917.093 1.27.28.36.18.637.437.83.77.2.327.3.71.3 1.15v1.3c0 .44-.1.827-.3 1.16-.193.327-.47.583-.83.77-.353.18-.777.27-1.27.27zm0-1.3c.293 0 .517-.077.67-.23.153-.16.23-.383.23-.67v-1.3c0-.293-.077-.517-.23-.67-.153-.153-.377-.23-.67-.23-.287 0-.51.077-.67.23-.153.153-.23.377-.23.67v1.3c0 .287.077.51.23.67.16.153.383.23.67.23zm3.142 2.6v-2.67h.31c.114-.113.23-.31.35-.59.127-.287.194-.633.2-1.04l.05-2.6h4.05v4.23h.6v2.67h-1.4V95h-2.76v1.4h-1.4zm1.8-2.67h1.76v-2.94h-1.27l-.03 1.3a3.112 3.112 0 01-.17 1.02c-.1.287-.196.493-.29.62zm4.163 1.27l1.9-2.85-1.77-2.65h1.67l.68 1.1c.053.087.103.183.15.29.047.107.083.193.11.26.027-.067.063-.153.11-.26.053-.107.103-.203.15-.29l.68-1.1h1.67l-1.76 2.65 1.89 2.85h-1.67l-.8-1.3c-.053-.093-.107-.19-.16-.29a9.244 9.244 0 01-.11-.26 4.228 4.228 0 01-.26.55l-.81 1.3h-1.67zm8.663.1c-.487 0-.91-.09-1.27-.27a2.087 2.087 0 01-.84-.77 2.263 2.263 0 01-.29-1.16v-1.3c0-.44.096-.823.29-1.15a2 2 0 01.84-.77c.36-.187.783-.28 1.27-.28.493 0 .916.093 1.27.28.36.18.636.437.83.77.2.327.3.71.3 1.15v1.3c0 .44-.1.827-.3 1.16-.194.327-.47.583-.83.77-.354.18-.777.27-1.27.27zm0-1.3c.293 0 .516-.077.67-.23.153-.16.23-.383.23-.67v-1.3c0-.293-.077-.517-.23-.67-.154-.153-.377-.23-.67-.23-.287 0-.51.077-.67.23-.154.153-.23.377-.23.67v1.3c0 .287.076.51.23.67.16.153.383.23.67.23zm3.142 2.6v-2.67h.31c.113-.113.23-.31.35-.59.127-.287.193-.633.2-1.04l.05-2.6h4.05v4.23h.6v2.67h-1.4V95h-2.76v1.4h-1.4zm1.8-2.67h1.76v-2.94h-1.27l-.03 1.3a3.139 3.139 0 01-.17 1.02c-.1.287-.197.493-.29.62zm6.903-2.53c-.3 0-.544-.083-.73-.25a.845.845 0 01-.27-.65c0-.273.09-.49.27-.65.186-.167.43-.25.73-.25s.54.083.72.25c.186.16.28.377.28.65a.833.833 0 01-.28.65c-.18.167-.42.25-.72.25zm0 3.9c-.3 0-.544-.083-.73-.25a.845.845 0 01-.27-.65c0-.273.09-.49.27-.65.186-.167.43-.25.73-.25s.54.083.72.25c.186.16.28.377.28.65a.833.833 0 01-.28.65c-.18.167-.42.25-.72.25zm11.395-.1v-6.49h-2v-.82h4.9v.82h-2V95h-.9zm6.372.08c-.44 0-.82-.083-1.14-.25a1.815 1.815 0 01-.75-.72c-.173-.32-.26-.697-.26-1.13v-1.46c0-.44.087-.817.26-1.13.18-.313.43-.553.75-.72.32-.167.7-.25 1.14-.25.44 0 .82.083 1.14.25.32.167.567.407.74.72.18.313.27.687.27 1.12v1.47c0 .433-.09.81-.27 1.13a1.75 1.75 0 01-.74.72c-.32.167-.7.25-1.14.25zm0-.8c.394 0 .7-.11.92-.33.22-.22.33-.543.33-.97v-1.46c0-.427-.11-.75-.33-.97-.22-.22-.526-.33-.92-.33-.386 0-.693.11-.92.33-.22.22-.33.543-.33.97v1.46c0 .427.11.75.33.97.227.22.534.33.92.33zm3.173.79v-.84h.18c.307 0 .52-.12.64-.36.127-.24.193-.67.2-1.29l.06-3.08h3.73V95h-.9v-4.68h-1.94l-.05 2.3c-.013.58-.08 1.05-.2 1.41-.113.36-.293.623-.54.79-.24.167-.557.25-.95.25h-.23zm6.653-.07v-5.5h.9v2.02h1.62c.62 0 1.106.157 1.46.47.36.307.54.73.54 1.27 0 .533-.18.957-.54 1.27-.36.313-.847.47-1.46.47h-2.52zm.9-.82h1.62c.346 0 .61-.077.79-.23.186-.16.28-.39.28-.69 0-.3-.094-.527-.28-.68-.18-.16-.444-.24-.79-.24h-1.62v1.84zm5.012.82v-5.5h.9v2.27h.94l1.6-2.27h1.03l-1.85 2.62 1.88 2.88h-1.05l-1.6-2.45h-.95V95h-.9zm7.953.08c-.44 0-.82-.083-1.14-.25a1.815 1.815 0 01-.75-.72c-.174-.32-.26-.697-.26-1.13v-1.46c0-.44.086-.817.26-1.13.18-.313.43-.553.75-.72.32-.167.7-.25 1.14-.25.44 0 .82.083 1.14.25.32.167.566.407.74.72.18.313.27.687.27 1.12v1.47c0 .433-.09.81-.27 1.13a1.76 1.76 0 01-.74.72c-.32.167-.7.25-1.14.25zm0-.8c.393 0 .7-.11.92-.33.22-.22.33-.543.33-.97v-1.46c0-.427-.11-.75-.33-.97-.22-.22-.527-.33-.92-.33-.387 0-.694.11-.92.33-.22.22-.33.543-.33.97v1.46c0 .427.11.75.33.97.226.22.533.33.92.33zm9.785.72v-5.5h4.12V95h-.9v-4.68h-2.32V95h-.9zm5.902 1.8v-7.3h.9v1.05h.18l-.18.21c0-.42.137-.75.41-.99.28-.247.647-.37 1.1-.37.554 0 .994.183 1.32.55.334.36.5.857.5 1.49v1.61c0 .42-.076.783-.23 1.09a1.627 1.627 0 01-.63.71c-.266.167-.586.25-.96.25-.446 0-.81-.123-1.09-.37s-.42-.577-.42-.99l.18.21h-.2l.02 1.25v1.6h-.9zm2.11-2.48c.38 0 .677-.113.89-.34.22-.227.33-.553.33-.98v-1.5c0-.427-.11-.753-.33-.98-.213-.227-.51-.34-.89-.34-.366 0-.66.117-.88.35-.22.233-.33.557-.33.97V93c0 .413.11.737.33.97.22.233.514.35.88.35zm5.893.76c-.44 0-.82-.083-1.14-.25a1.815 1.815 0 01-.75-.72c-.173-.32-.26-.697-.26-1.13v-1.46c0-.44.087-.817.26-1.13.18-.313.43-.553.75-.72.32-.167.7-.25 1.14-.25.44 0 .82.083 1.14.25.32.167.567.407.74.72.18.313.27.687.27 1.12v1.47c0 .433-.09.81-.27 1.13a1.75 1.75 0 01-.74.72c-.32.167-.7.25-1.14.25zm0-.8c.393 0 .7-.11.92-.33.22-.22.33-.543.33-.97v-1.46c0-.427-.11-.75-.33-.97-.22-.22-.527-.33-.92-.33-.387 0-.693.11-.92.33-.22.22-.33.543-.33.97v1.46c0 .427.11.75.33.97.227.22.533.33.92.33zm3.862.72v-5.5h2.38c.574 0 1.017.13 1.33.39.314.253.47.61.47 1.07 0 .38-.13.687-.39.92-.26.227-.603.34-1.03.34v-.08c.467 0 .84.117 1.12.35.287.233.43.547.43.94 0 .493-.166.88-.5 1.16-.333.273-.8.41-1.4.41h-2.41zm.88-.79h1.53c.32 0 .567-.07.74-.21.18-.14.27-.337.27-.59 0-.26-.09-.46-.27-.6-.173-.14-.42-.21-.74-.21h-1.53v1.61zm0-2.39h1.5c.28 0 .5-.067.66-.2.167-.133.25-.32.25-.56 0-.24-.08-.427-.24-.56-.16-.14-.383-.21-.67-.21h-1.5v1.53zm7.103 3.28a2.4 2.4 0 01-1.14-.26 1.881 1.881 0 01-.75-.73c-.173-.32-.26-.69-.26-1.11v-1.5c0-.427.087-.797.26-1.11.18-.313.43-.557.75-.73a2.4 2.4 0 011.14-.26c.433 0 .81.087 1.13.26.327.173.577.417.75.73.18.313.27.683.27 1.11v.97h-3.42V93c0 .433.11.767.33 1 .22.227.533.34.94.34.347 0 .627-.06.84-.18a.796.796 0 00.39-.56h.9c-.06.46-.287.827-.68 1.1-.387.267-.87.4-1.45.4zm1.27-3.23v-.37c0-.433-.11-.767-.33-1-.213-.233-.527-.35-.94-.35-.407 0-.72.117-.94.35-.22.233-.33.567-.33 1v.29h2.61l-.07.08zm2.573 4.93v-7.3h.9v1.05h.18l-.18.21c0-.42.136-.75.41-.99.28-.247.646-.37 1.1-.37.553 0 .993.183 1.32.55.333.36.5.857.5 1.49v1.61c0 .42-.077.783-.23 1.09a1.64 1.64 0 01-.63.71c-.267.167-.587.25-.96.25-.447 0-.81-.123-1.09-.37s-.42-.577-.42-.99l.18.21h-.2l.02 1.25v1.6h-.9zm2.11-2.48c.38 0 .676-.113.89-.34.22-.227.33-.553.33-.98v-1.5c0-.427-.11-.753-.33-.98-.214-.227-.51-.34-.89-.34-.367 0-.66.117-.88.35-.22.233-.33.557-.33.97V93c0 .413.11.737.33.97.22.233.513.35.88.35zm5.892.78a2.4 2.4 0 01-1.14-.26 1.881 1.881 0 01-.75-.73c-.173-.32-.26-.69-.26-1.11v-1.5c0-.427.087-.797.26-1.11.18-.313.43-.557.75-.73a2.4 2.4 0 011.14-.26c.434 0 .81.087 1.13.26.327.173.577.417.75.73.18.313.27.683.27 1.11v.97h-3.42V93c0 .433.11.767.33 1 .22.227.534.34.94.34.347 0 .627-.06.84-.18a.79.79 0 00.39-.56h.9a1.53 1.53 0 01-.68 1.1c-.386.267-.87.4-1.45.4zm1.27-3.23v-.37c0-.433-.11-.767-.33-1-.213-.233-.526-.35-.94-.35-.406 0-.72.117-.94.35-.22.233-.33.567-.33 1v.29h2.61l-.07.08zM239.23 95v-5.5h.9v2.29h2.32V89.5h.9V95h-.9v-2.39h-2.32V95h-.9zm5.922 0v-5.5h.9v2.29h2.32V89.5h.9V95h-.9v-2.39h-2.32V95h-.9zm5.633 0v-5.5h.84v2.02h.45c.593 0 1.06.157 1.4.47.347.307.52.73.52 1.27s-.173.967-.52 1.28c-.34.307-.807.46-1.4.46h-1.29zm.84-.72h.45c.353 0 .627-.09.82-.27.2-.18.3-.43.3-.75s-.1-.57-.3-.75c-.193-.18-.467-.27-.82-.27h-.45v2.04zm3.02.72v-5.5h.84V95h-.84zm4.412.1a2.4 2.4 0 01-1.14-.26 1.881 1.881 0 01-.75-.73c-.173-.32-.26-.69-.26-1.11v-1.5c0-.427.087-.797.26-1.11.18-.313.43-.557.75-.73a2.4 2.4 0 011.14-.26c.434 0 .81.087 1.13.26.327.173.577.417.75.73.18.313.27.683.27 1.11v.97h-3.42V93c0 .433.11.767.33 1 .22.227.534.34.94.34.347 0 .627-.06.84-.18a.79.79 0 00.39-.56h.9a1.53 1.53 0 01-.68 1.1c-.386.267-.87.4-1.45.4zm1.27-3.23v-.37c0-.433-.11-.767-.33-1-.213-.233-.526-.35-.94-.35-.406 0-.72.117-.94.35-.22.233-.33.567-.33 1v.29h2.61l-.07.08zm10.596 3.23a2.56 2.56 0 01-1.16-.25 1.8 1.8 0 01-.76-.72c-.18-.32-.27-.697-.27-1.13v-1.5c0-.44.09-.817.27-1.13a1.8 1.8 0 01.76-.72 2.56 2.56 0 011.16-.25c.633 0 1.143.17 1.53.51.386.34.59.803.61 1.39h-.9c-.02-.353-.14-.623-.36-.81-.214-.193-.507-.29-.88-.29-.394 0-.707.113-.94.34-.234.22-.35.537-.35.95V93c0 .413.116.733.35.96.233.227.546.34.94.34.373 0 .666-.097.88-.29.22-.193.34-.463.36-.81h.9c-.02.587-.224 1.05-.61 1.39-.387.34-.897.51-1.53.51zm5.452-.1v-4.71h-2v-.79h4.9v.79h-2V95h-.9zm4.293 1.8v-7.3h.9v1.05h.18l-.18.21c0-.42.136-.75.41-.99.28-.247.646-.37 1.1-.37.553 0 .993.183 1.32.55.333.36.5.857.5 1.49v1.61c0 .42-.077.783-.23 1.09a1.64 1.64 0 01-.63.71c-.267.167-.587.25-.96.25-.447 0-.81-.123-1.09-.37s-.42-.577-.42-.99l.18.21h-.2l.02 1.25v1.6h-.9zm2.11-2.48c.38 0 .676-.113.89-.34.22-.227.33-.553.33-.98v-1.5c0-.427-.11-.753-.33-.98-.214-.227-.51-.34-.89-.34-.367 0-.66.117-.88.35-.22.233-.33.557-.33.97V93c0 .413.11.737.33.97.22.233.513.35.88.35zm5.412.78c-.58 0-1.036-.147-1.37-.44-.333-.3-.5-.703-.5-1.21 0-.513.167-.917.5-1.21.334-.293.784-.44 1.35-.44h1.7v-.55c0-.34-.103-.6-.31-.78-.2-.187-.486-.28-.86-.28-.326 0-.6.07-.82.21a.749.749 0 00-.38.55h-.9c.06-.473.284-.85.67-1.13.387-.28.87-.42 1.45-.42.634 0 1.134.163 1.5.49.367.327.55.77.55 1.33V95h-.88v-1.05h-.15l.15-.15c0 .4-.156.717-.47.95-.306.233-.716.35-1.23.35zm.22-.71c.427 0 .777-.107 1.05-.32a.994.994 0 00.41-.82v-.78h-1.68c-.3 0-.536.083-.71.25-.173.167-.26.393-.26.68 0 .307.104.55.31.73.214.173.507.26.88.26zm5.733.61v-4.71h-2v-.79h4.9v.79h-2V95h-.9zm6.372.1a2.4 2.4 0 01-1.14-.26 1.881 1.881 0 01-.75-.73c-.173-.32-.26-.69-.26-1.11v-1.5c0-.427.087-.797.26-1.11.18-.313.43-.557.75-.73a2.4 2.4 0 011.14-.26c.434 0 .81.087 1.13.26.327.173.577.417.75.73.18.313.27.683.27 1.11v.97h-3.42V93c0 .433.11.767.33 1 .22.227.534.34.94.34.347 0 .627-.06.84-.18a.79.79 0 00.39-.56h.9a1.53 1.53 0 01-.68 1.1c-.386.267-.87.4-1.45.4zm1.27-3.23v-.37c0-.433-.11-.767-.33-1-.213-.233-.526-.35-.94-.35-.406 0-.72.117-.94.35-.22.233-.33.567-.33 1v.29h2.61l-.07.08zm2.953 3.13v-5.5h3.95v.82h-3.05V95h-.9zm5.563 0v-5.5h.86v3c0 .193-.007.397-.02.61a8.72 8.72 0 01-.04.61 6.67 6.67 0 01-.05.48l2.22-4.7h1.15V95h-.86v-3c0-.193.003-.397.01-.61.013-.213.03-.417.05-.61.02-.2.036-.363.05-.49l-2.22 4.71h-1.15zm5.922 0v-5.5h.86v3c0 .193-.007.397-.02.61a8.72 8.72 0 01-.04.61c-.013.187-.03.347-.05.48l2.22-4.7h1.15V95h-.86v-3c0-.193.003-.397.01-.61.013-.213.03-.417.05-.61l.05-.49-2.22 4.71h-1.15zm13.905.1c-.646 0-1.16-.19-1.54-.57-.373-.387-.56-.913-.56-1.58v-2.5c0-.88.22-1.557.66-2.03.44-.48 1.07-.72 1.89-.72h1.4v.9h-1.4c-.54 0-.95.16-1.23.48-.28.313-.42.77-.42 1.37v.65h.14l-.14.2c.007-.393.14-.7.4-.92.26-.22.614-.33 1.06-.33.58 0 1.03.187 1.35.56.327.373.49.887.49 1.54v.8c0 .447-.083.83-.25 1.15-.166.32-.406.567-.72.74-.313.173-.69.26-1.13.26zm0-.8c.387 0 .684-.117.89-.35.207-.233.31-.567.31-1v-.8c0-.433-.103-.767-.31-1-.206-.233-.503-.35-.89-.35-.386 0-.683.117-.89.35-.206.227-.31.56-.31 1v.8c0 .433.104.767.31 1 .207.233.504.35.89.35zm5.923.8c-.434 0-.814-.087-1.14-.26a1.881 1.881 0 01-.75-.73c-.174-.32-.26-.69-.26-1.11v-1.5c0-.427.086-.797.26-1.11.18-.313.43-.557.75-.73.326-.173.706-.26 1.14-.26.433 0 .81.087 1.13.26.326.173.576.417.75.73.18.313.27.683.27 1.11v.97h-3.42V93c0 .433.11.767.33 1 .22.227.533.34.94.34.346 0 .626-.06.84-.18a.796.796 0 00.39-.56h.9c-.06.46-.287.827-.68 1.1-.387.267-.87.4-1.45.4zm1.27-3.23v-.37c0-.433-.11-.767-.33-1-.214-.233-.527-.35-.94-.35-.407 0-.72.117-.94.35-.22.233-.33.567-.33 1v.29h2.61l-.07.08zm4.392 3.2c-.58 0-1.056-.123-1.43-.37a1.474 1.474 0 01-.66-1h.95c.047.167.17.303.37.41.207.107.464.16.77.16h.47c.327 0 .58-.077.76-.23a.739.739 0 00.28-.6c0-.267-.09-.477-.27-.63-.173-.153-.43-.23-.77-.23h-1.21v-.78h1.18c.307 0 .54-.073.7-.22a.75.75 0 00.24-.58.752.752 0 00-.11-.42.633.633 0 00-.31-.26c-.14-.06-.31-.09-.51-.09h-.5c-.266 0-.496.06-.69.18-.193.12-.31.267-.35.44h-.95c.067-.413.284-.753.65-1.02.367-.267.814-.4 1.34-.4h.5c.394 0 .73.063 1.01.19.28.12.494.293.64.52.154.227.23.497.23.81 0 .327-.106.597-.32.81-.213.207-.513.323-.9.35v.04c.474.033.817.16 1.03.38.214.22.32.537.32.95 0 .487-.18.873-.54 1.16-.36.287-.843.43-1.45.43h-.47zm-310.463 20v-.84h.18c.307 0 .52-.12.64-.36.127-.24.193-.67.2-1.29l.06-3.08h3.73v5.5h-.9v-4.68h-1.94l-.05 2.3c-.013.58-.08 1.05-.2 1.41-.113.36-.293.623-.54.79-.24.167-.557.25-.95.25h-.23zm6.613-.07v-5.5h.86v3c0 .193-.007.397-.02.61a8.72 8.72 0 01-.04.61 6.67 6.67 0 01-.05.48l2.22-4.7h1.15v5.5h-.86v-3c0-.193.003-.397.01-.61.013-.213.03-.417.05-.61.02-.2.036-.363.05-.49l-2.22 4.71h-1.15zm5.642 0l-.02-5.5h.84v4.82h1.17v-4.82h.72v4.82h1.16v-4.82h.83v5.5h-4.7zm6.203 0v-5.5h.9v2.29h2.32v-2.29h.9v5.5h-.9v-2.39h-2.32V115h-.9zm7.982.1a2.4 2.4 0 01-1.14-.26 1.881 1.881 0 01-.75-.73c-.173-.32-.26-.69-.26-1.11v-1.5c0-.427.087-.797.26-1.11.18-.313.43-.557.75-.73a2.4 2.4 0 011.14-.26c.434 0 .81.087 1.13.26.327.173.577.417.75.73.18.313.27.683.27 1.11v.97h-3.42v.53c0 .433.11.767.33 1 .22.227.534.34.94.34.347 0 .627-.06.84-.18a.795.795 0 00.39-.56h.9a1.53 1.53 0 01-.68 1.1c-.386.267-.87.4-1.45.4zm1.27-3.23v-.37c0-.433-.11-.767-.33-1-.213-.233-.526-.35-.94-.35-.406 0-.72.117-.94.35-.22.233-.33.567-.33 1v.29h2.61l-.07.08zm2.593 3.13v-5.5h.86v3c0 .193-.007.397-.02.61a8.72 8.72 0 01-.04.61 6.67 6.67 0 01-.05.48l2.22-4.7h1.15v5.5h-.86v-3c0-.193.003-.397.01-.61.013-.213.03-.417.05-.61.02-.2.036-.363.05-.49l-2.22 4.71h-1.15zm2.1-6.4c-.48 0-.867-.133-1.16-.4-.294-.267-.44-.617-.44-1.05h.71c0 .26.08.47.24.63.16.16.373.24.64.24.273 0 .49-.08.65-.24.166-.16.25-.37.25-.63h.71c0 .433-.147.783-.44 1.05-.294.267-.68.4-1.16.4zm11.355 6.4v-4.71h-2v-.79h4.9v.79h-2V115h-.9zm6.373.1c-.434 0-.814-.087-1.14-.26a1.881 1.881 0 01-.75-.73c-.174-.32-.26-.69-.26-1.11v-1.5c0-.427.086-.797.26-1.11.18-.313.43-.557.75-.73.326-.173.706-.26 1.14-.26.433 0 .81.087 1.13.26a1.8 1.8 0 01.75.73c.18.313.27.683.27 1.11v.97h-3.42v.53c0 .433.11.767.33 1 .22.227.533.34.94.34.346 0 .626-.06.84-.18a.795.795 0 00.39-.56h.9c-.06.46-.287.827-.68 1.1-.387.267-.87.4-1.45.4zm1.27-3.23v-.37c0-.433-.11-.767-.33-1-.214-.233-.527-.35-.94-.35-.407 0-.72.117-.94.35-.22.233-.33.567-.33 1v.29h2.61l-.07.08zm4.652 3.21c-.44 0-.82-.083-1.14-.25a1.82 1.82 0 01-.75-.72c-.173-.32-.26-.697-.26-1.13v-1.46c0-.44.087-.817.26-1.13.18-.313.43-.553.75-.72.32-.167.7-.25 1.14-.25.44 0 .82.083 1.14.25.32.167.567.407.74.72.18.313.27.687.27 1.12v1.47c0 .433-.09.81-.27 1.13-.173.313-.42.553-.74.72-.32.167-.7.25-1.14.25zm0-.8c.393 0 .7-.11.92-.33.22-.22.33-.543.33-.97v-1.46c0-.427-.11-.75-.33-.97-.22-.22-.527-.33-.92-.33-.387 0-.693.11-.92.33-.22.22-.33.543-.33.97v1.46c0 .427.11.75.33.97.227.22.533.33.92.33zm3.843 2.52v-7.3h.9v1.05h.18l-.18.21c0-.42.136-.75.41-.99.28-.247.646-.37 1.1-.37.553 0 .993.183 1.32.55.333.36.5.857.5 1.49v1.61c0 .42-.077.783-.23 1.09a1.634 1.634 0 01-.63.71c-.267.167-.587.25-.96.25-.447 0-.81-.123-1.09-.37s-.42-.577-.42-.99l.18.21h-.2l.02 1.25v1.6h-.9zm2.11-2.48c.38 0 .676-.113.89-.34.22-.227.33-.553.33-.98v-1.5c0-.427-.11-.753-.33-.98-.214-.227-.51-.34-.89-.34-.367 0-.66.117-.88.35-.22.233-.33.557-.33.97v1.5c0 .413.11.737.33.97.22.233.513.35.88.35zm3.832.68v-5.5h.86v3c0 .193-.006.397-.02.61a8.72 8.72 0 01-.04.61c-.013.187-.03.347-.05.48l2.22-4.7h1.15v5.5h-.86v-3c0-.193.004-.397.01-.61.014-.213.03-.417.05-.61l.05-.49-2.22 4.71h-1.15zm5.923 0v-5.5h.86v3c0 .193-.007.397-.02.61a8.72 8.72 0 01-.04.61 6.67 6.67 0 01-.05.48l2.22-4.7h1.15v5.5h-.86v-3c0-.193.003-.397.01-.61.013-.213.03-.417.05-.61.02-.2.036-.363.05-.49l-2.22 4.71h-1.15zm7.982.1c-.253 0-.456-.073-.61-.22-.146-.147-.22-.343-.22-.59 0-.26.074-.467.22-.62.154-.153.357-.23.61-.23.254 0 .454.077.6.23.154.153.23.36.23.62 0 .247-.076.443-.23.59-.146.147-.346.22-.6.22zM31.6 141v-7.3h1.32v3.2c0 .227-.01.49-.03.79a37.4 37.4 0 01-.11 1.66l1.87-5.65h1.75v7.3h-1.32v-3c0-.233.007-.51.02-.83.02-.32.043-.643.07-.97l.07-.85-1.89 5.65H31.6zm5.983 0v-5.5h1.5v2.01h1.68v-2.01h1.5v5.5h-1.5v-2.09h-1.68V141h-1.5zm5.482 1.4v-2.67h.31c.114-.113.23-.31.35-.59.127-.287.194-.633.2-1.04l.05-2.6h4.05v4.23h.6v2.67h-1.4V141h-2.76v1.4h-1.4zm1.8-2.67h1.76v-2.94h-1.27l-.03 1.3a3.133 3.133 0 01-.17 1.02c-.1.287-.197.493-.29.62zm4.563 1.27v-5.5h1.32v2.5c0 .167-.01.377-.03.63-.02.247-.047.497-.08.75-.027.253-.057.477-.09.67l1.74-4.55h1.82v5.5h-1.32v-2.5c0-.173.01-.37.03-.59.02-.227.043-.453.07-.68.026-.227.053-.42.08-.58l-1.72 4.35h-1.82zm5.912 0v-5.5h2.49c.674 0 1.207.137 1.6.41.4.267.6.63.6 1.09 0 .367-.15.663-.45.89-.3.22-.696.33-1.19.33v-.1c.54 0 .97.12 1.29.36.327.24.49.557.49.95 0 .487-.2.87-.6 1.15-.393.28-.93.42-1.61.42h-2.62zm1.47-1.06h1.08c.247 0 .444-.057.59-.17a.559.559 0 00.23-.46c0-.2-.076-.36-.23-.48-.146-.12-.343-.18-.59-.18h-1.08v1.29zm0-2.17h1.03c.227 0 .407-.053.54-.16a.55.55 0 00.2-.44.56.56 0 00-.2-.45c-.133-.113-.313-.17-.54-.17h-1.03v1.22zm4.463 3.23v-5.5h1.32v2.5c0 .167-.01.377-.03.63-.02.247-.047.497-.08.75-.027.253-.057.477-.09.67l1.74-4.55h1.82v5.5h-1.32v-2.5c0-.173.01-.37.03-.59.02-.227.043-.453.07-.68.026-.227.053-.42.08-.58l-1.72 4.35h-1.82zm5.482 1.4v-2.67h.31c.114-.113.23-.31.35-.59.127-.287.194-.633.2-1.04l.05-2.6h4.05v4.23h.6v2.67h-1.4V141h-2.76v1.4h-1.4zm1.8-2.67h1.76v-2.94h-1.27l-.03 1.3a3.136 3.136 0 01-.17 1.02c-.1.287-.196.493-.29.62zm5.473 3.07l.75-2.07-2.06-5.23h1.63l.83 2.4c.06.18.12.4.18.66.067.253.117.46.15.62.033-.16.08-.367.14-.62.067-.26.13-.48.19-.66l.8-2.4h1.56l-2.6 7.3h-1.57zm6.642-1.7c-.553 0-.993-.15-1.32-.45-.32-.3-.48-.707-.48-1.22 0-.553.19-.977.57-1.27.387-.3.94-.45 1.66-.45h1.14v-.41a.628.628 0 00-.23-.51c-.146-.127-.346-.19-.6-.19a.99.99 0 00-.58.16.656.656 0 00-.28.44H79.1c.06-.553.3-.99.72-1.31.427-.327.974-.49 1.64-.49.7 0 1.254.173 1.66.52.414.34.62.8.62 1.38v3.7h-1.45v-.9h-.24l.25-.35c0 .413-.15.743-.45.99-.293.24-.686.36-1.18.36zm.56-1.1c.294 0 .534-.077.72-.23a.768.768 0 00.29-.62v-.59h-1.11a.766.766 0 00-.55.2.655.655 0 00-.21.51.68.68 0 00.23.54c.154.127.364.19.63.19zm3.283 1.07v-1.35h.3a.521.521 0 00.43-.22c.113-.147.173-.34.18-.58l.06-3.42h4.16v5.5h-1.5v-4.1h-1.19l-.04 2.12a2.272 2.272 0 01-.27 1.08c-.167.307-.4.547-.7.72-.293.167-.637.25-1.03.25h-.4zm6.413-.07v-5.5h1.5v1.65h1.29c.693 0 1.233.173 1.62.52.393.34.59.813.59 1.42 0 .587-.2 1.053-.6 1.4-.394.34-.927.51-1.6.51h-2.8zm1.5-1.3h1.2c.253 0 .446-.053.58-.16a.56.56 0 00.21-.46c0-.2-.07-.353-.21-.46-.134-.113-.327-.17-.58-.17h-1.2v1.25zm4.382 1.3v-5.5h1.5v2.01h1.68v-2.01h1.5v5.5h-1.5v-2.09h-1.68V141h-1.5zm8.263.1c-.487 0-.91-.09-1.27-.27a2.087 2.087 0 01-.84-.77 2.263 2.263 0 01-.29-1.16v-1.3c0-.44.096-.823.29-1.15a2 2 0 01.84-.77c.36-.187.783-.28 1.27-.28.493 0 .916.093 1.27.28.36.18.636.437.83.77.2.327.3.71.3 1.15v1.3c0 .44-.1.827-.3 1.16-.194.327-.47.583-.83.77-.354.18-.777.27-1.27.27zm0-1.3c.293 0 .516-.077.67-.23.153-.16.23-.383.23-.67v-1.3c0-.293-.077-.517-.23-.67-.154-.153-.377-.23-.67-.23-.287 0-.51.077-.67.23-.154.153-.23.377-.23.67v1.3c0 .287.076.51.23.67.16.153.383.23.67.23zm5.952 1.3c-.486 0-.913-.09-1.28-.27a2.077 2.077 0 01-.85-.77c-.2-.333-.3-.72-.3-1.16v-1.3c0-.447.1-.833.3-1.16.2-.327.484-.58.85-.76.367-.187.794-.28 1.28-.28.727 0 1.307.183 1.74.55.434.367.664.867.69 1.5h-1.5a.752.752 0 00-.28-.55c-.16-.133-.376-.2-.65-.2-.3 0-.53.077-.69.23-.16.153-.24.377-.24.67v1.3c0 .287.08.51.24.67.16.153.39.23.69.23.274 0 .49-.063.65-.19a.761.761 0 00.28-.56h1.5c-.026.633-.256 1.133-.69 1.5-.433.367-1.013.55-1.74.55zm5.143-.1v-4.1h-1.8v-1.4h5.1v1.4h-1.8v4.1h-1.5zm4.372 0v-5.5h1.5v1.65h1.29c.694 0 1.234.173 1.62.52.394.34.59.813.59 1.42 0 .587-.2 1.053-.6 1.4-.393.34-.926.51-1.6.51h-2.8zm1.5-1.3h1.2c.254 0 .447-.053.58-.16a.56.56 0 00.21-.46c0-.2-.07-.353-.21-.46-.133-.113-.326-.17-.58-.17h-1.2v1.25zm6.723-2.5c-.3 0-.543-.083-.73-.25a.845.845 0 01-.27-.65c0-.273.09-.49.27-.65.187-.167.43-.25.73-.25s.54.083.72.25c.187.16.28.377.28.65a.83.83 0 01-.28.65c-.18.167-.42.25-.72.25zm0 3.9c-.3 0-.543-.083-.73-.25a.845.845 0 01-.27-.65c0-.273.09-.49.27-.65.187-.167.43-.25.73-.25s.54.083.72.25c.187.16.28.377.28.65a.83.83 0 01-.28.65c-.18.167-.42.25-.72.25zm9.785-.1v-7.3h4.12v7.3h-.9v-6.48h-2.32V141h-.9zm7.983.08c-.44 0-.82-.083-1.14-.25a1.82 1.82 0 01-.75-.72c-.174-.32-.26-.697-.26-1.13v-1.46c0-.44.086-.817.26-1.13.18-.313.43-.553.75-.72.32-.167.7-.25 1.14-.25.44 0 .82.083 1.14.25.32.167.566.407.74.72.18.313.27.687.27 1.12v1.47c0 .433-.09.81-.27 1.13a1.76 1.76 0 01-.74.72c-.32.167-.7.25-1.14.25zm0-.8c.393 0 .7-.11.92-.33.22-.22.33-.543.33-.97v-1.46c0-.427-.11-.75-.33-.97-.22-.22-.527-.33-.92-.33-.387 0-.694.11-.92.33-.22.22-.33.543-.33.97v1.46c0 .427.11.75.33.97.226.22.533.33.92.33zm3.222 2.12v-2.17h.45c.114-.113.23-.337.35-.67.127-.333.194-.757.2-1.27l.06-2.79h3.59v4.73h.7v2.17h-.8V141h-3.75v1.4h-.8zm1.4-2.17h2.35v-3.93h-1.84l-.04 2.01c-.006.527-.063.953-.17 1.28-.106.327-.206.54-.3.64zm7.223.87c-.647 0-1.16-.19-1.54-.57-.373-.387-.56-.913-.56-1.58v-2.5c0-.88.22-1.557.66-2.03.44-.48 1.07-.72 1.89-.72h1.4v.9h-1.4c-.54 0-.95.16-1.23.48-.28.313-.42.77-.42 1.37v.65h.14l-.14.2c.007-.393.14-.7.4-.92.26-.22.613-.33 1.06-.33.58 0 1.03.187 1.35.56.327.373.49.887.49 1.54v.8c0 .447-.083.83-.25 1.15-.167.32-.407.567-.72.74-.313.173-.69.26-1.13.26zm0-.8c.387 0 .683-.117.89-.35.207-.233.31-.567.31-1v-.8c0-.433-.103-.767-.31-1-.207-.233-.503-.35-.89-.35s-.683.117-.89.35c-.207.227-.31.56-.31 1v.8c0 .433.103.767.31 1 .207.233.503.35.89.35zm3.862.7v-5.5h.86v3c0 .193-.006.397-.02.61-.006.213-.02.417-.04.61-.013.187-.03.347-.05.48l2.22-4.7h1.15v5.5h-.86v-3c0-.193.004-.397.01-.61.014-.213.03-.417.05-.61l.05-.49-2.22 4.71h-1.15zm5.903 1.8v-7.3h.9v1.05h.18l-.18.21c0-.42.137-.75.41-.99.28-.247.647-.37 1.1-.37.553 0 .993.183 1.32.55.333.36.5.857.5 1.49v1.61c0 .42-.077.783-.23 1.09a1.64 1.64 0 01-.63.71c-.267.167-.587.25-.96.25-.447 0-.81-.123-1.09-.37s-.42-.577-.42-.99l.18.21h-.2l.02 1.25v1.6h-.9zm2.11-2.48c.38 0 .677-.113.89-.34.22-.227.33-.553.33-.98v-1.5c0-.427-.11-.753-.33-.98-.213-.227-.51-.34-.89-.34-.367 0-.66.117-.88.35-.22.233-.33.557-.33.97v1.5c0 .413.11.737.33.97.22.233.513.35.88.35zm5.413.78c-.58 0-1.037-.147-1.37-.44-.334-.3-.5-.703-.5-1.21 0-.513.166-.917.5-1.21.333-.293.783-.44 1.35-.44h1.7v-.55c0-.34-.104-.6-.31-.78-.2-.187-.487-.28-.86-.28-.327 0-.6.07-.82.21a.746.746 0 00-.38.55h-.9c.06-.473.283-.85.67-1.13.386-.28.87-.42 1.45-.42.633 0 1.133.163 1.5.49.366.327.55.77.55 1.33V141h-.88v-1.05h-.15l.15-.15c0 .4-.157.717-.47.95-.307.233-.717.35-1.23.35zm.22-.71c.426 0 .776-.107 1.05-.32a.996.996 0 00.41-.82v-.78h-1.68c-.3 0-.537.083-.71.25-.174.167-.26.393-.26.68 0 .307.103.55.31.73.213.173.506.26.88.26zm7.042.71c-.46 0-.83-.157-1.11-.47-.28-.313-.42-.723-.42-1.23v-.83h-.88V141h-.83v-5.5h.83v2.35h.88v-.75c0-.513.137-.923.41-1.23.28-.313.653-.47 1.12-.47.493 0 .89.157 1.19.47.3.307.45.717.45 1.23v2.3c0 .507-.15.917-.45 1.23-.3.313-.697.47-1.19.47zm0-.7c.253 0 .45-.087.59-.26.147-.18.22-.427.22-.74v-2.3c0-.313-.073-.557-.22-.73-.14-.18-.337-.27-.59-.27-.247 0-.44.09-.58.27-.14.173-.21.417-.21.73v2.3c0 .313.07.56.21.74.14.173.333.26.58.26zm8.905 2.4v-7.3h.9v1.05h.18l-.18.21c0-.42.137-.75.41-.99.28-.247.647-.37 1.1-.37.554 0 .994.183 1.32.55.334.36.5.857.5 1.49v1.61c0 .42-.076.783-.23 1.09a1.627 1.627 0 01-.63.71c-.266.167-.586.25-.96.25-.446 0-.81-.123-1.09-.37s-.42-.577-.42-.99l.18.21h-.2l.02 1.25v1.6h-.9zm2.11-2.48c.38 0 .677-.113.89-.34.22-.227.33-.553.33-.98v-1.5c0-.427-.11-.753-.33-.98-.213-.227-.51-.34-.89-.34-.366 0-.66.117-.88.35-.22.233-.33.557-.33.97v1.5c0 .413.11.737.33.97.22.233.514.35.88.35zm5.893.78c-.434 0-.814-.087-1.14-.26a1.881 1.881 0 01-.75-.73c-.174-.32-.26-.69-.26-1.11v-1.5c0-.427.086-.797.26-1.11.18-.313.43-.557.75-.73.326-.173.706-.26 1.14-.26.433 0 .81.087 1.13.26.326.173.576.417.75.73.18.313.27.683.27 1.11v.97h-3.42v.53c0 .433.11.767.33 1 .22.227.533.34.94.34.346 0 .626-.06.84-.18a.796.796 0 00.39-.56h.9c-.06.46-.287.827-.68 1.1-.387.267-.87.4-1.45.4zm1.27-3.23v-.37c0-.433-.11-.767-.33-1-.214-.233-.527-.35-.94-.35-.407 0-.72.117-.94.35-.22.233-.33.567-.33 1v.29h2.61l-.07.08zm2.312 3.13l-.02-5.5h.84v4.82h1.17v-4.82h.72v4.82h1.16v-4.82h.83v5.5h-4.7zm8.263.1c-.433 0-.813-.087-1.14-.26a1.881 1.881 0 01-.75-.73c-.173-.32-.26-.69-.26-1.11v-1.5c0-.427.087-.797.26-1.11.18-.313.43-.557.75-.73.327-.173.707-.26 1.14-.26.433 0 .81.087 1.13.26.327.173.577.417.75.73.18.313.27.683.27 1.11v.97h-3.42v.53c0 .433.11.767.33 1 .22.227.533.34.94.34.347 0 .627-.06.84-.18a.796.796 0 00.39-.56h.9c-.06.46-.287.827-.68 1.1-.387.267-.87.4-1.45.4zm1.27-3.23v-.37c0-.433-.11-.767-.33-1-.213-.233-.527-.35-.94-.35-.407 0-.72.117-.94.35-.22.233-.33.567-.33 1v.29h2.61l-.07.08zm2.592 3.13v-5.5h.9v2.29h2.32v-2.29h.9v5.5h-.9v-2.39h-2.32V141h-.9zm5.923 0v-5.5h.86v3c0 .193-.007.397-.02.61a8.72 8.72 0 01-.04.61c-.013.187-.03.347-.05.48l2.22-4.7h1.15v5.5h-.86v-3c0-.193.003-.397.01-.61.013-.213.03-.417.05-.61l.05-.49-2.22 4.71h-1.15zm5.583 0l1.41-2.12c-.42-.1-.747-.293-.98-.58-.227-.287-.34-.643-.34-1.07 0-.54.176-.963.53-1.27.36-.307.85-.46 1.47-.46h2.37v5.5h-.9v-2.05h-1.21l-1.3 2.05h-1.05zm2.09-2.85h1.47v-1.85h-1.47c-.334 0-.597.083-.79.25-.194.16-.29.387-.29.68 0 .287.096.513.29.68.193.16.456.24.79.24zm4.882 4.45l.8-3.11h1.3l-1.3 3.11h-.8zm11.165-1.6v-5.5h.9v2.27h.94l1.6-2.27h1.03l-1.85 2.62 1.88 2.88h-1.05l-1.6-2.45h-.95V141h-.9zm7.953.08c-.44 0-.82-.083-1.14-.25a1.82 1.82 0 01-.75-.72c-.173-.32-.26-.697-.26-1.13v-1.46c0-.44.087-.817.26-1.13.18-.313.43-.553.75-.72.32-.167.7-.25 1.14-.25.44 0 .82.083 1.14.25.32.167.567.407.74.72.18.313.27.687.27 1.12v1.47c0 .433-.09.81-.27 1.13-.173.313-.42.553-.74.72-.32.167-.7.25-1.14.25zm0-.8c.393 0 .7-.11.92-.33.22-.22.33-.543.33-.97v-1.46c0-.427-.11-.75-.33-.97-.22-.22-.527-.33-.92-.33-.387 0-.693.11-.92.33-.22.22-.33.543-.33.97v1.46c0 .427.11.75.33.97.227.22.533.33.92.33zm5.472.72v-4.71h-2v-.79h4.9v.79h-2V141h-.9zm6.373.08c-.44 0-.82-.083-1.14-.25a1.82 1.82 0 01-.75-.72c-.173-.32-.26-.697-.26-1.13v-1.46c0-.44.087-.817.26-1.13.18-.313.43-.553.75-.72.32-.167.7-.25 1.14-.25.44 0 .82.083 1.14.25.32.167.567.407.74.72.18.313.27.687.27 1.12v1.47c0 .433-.09.81-.27 1.13-.173.313-.42.553-.74.72-.32.167-.7.25-1.14.25zm0-.8c.393 0 .7-.11.92-.33.22-.22.33-.543.33-.97v-1.46c0-.427-.11-.75-.33-.97-.22-.22-.527-.33-.92-.33-.387 0-.693.11-.92.33-.22.22-.33.543-.33.97v1.46c0 .427.11.75.33.97.227.22.533.33.92.33zm3.843 2.52v-7.3h.9v1.05h.18l-.18.21c0-.42.136-.75.41-.99.28-.247.646-.37 1.1-.37.553 0 .993.183 1.32.55.333.36.5.857.5 1.49v1.61c0 .42-.077.783-.23 1.09a1.64 1.64 0 01-.63.71c-.267.167-.587.25-.96.25-.447 0-.81-.123-1.09-.37s-.42-.577-.42-.99l.18.21h-.2l.02 1.25v1.6h-.9zm2.11-2.48c.38 0 .676-.113.89-.34.22-.227.33-.553.33-.98v-1.5c0-.427-.11-.753-.33-.98-.214-.227-.51-.34-.89-.34-.367 0-.66.117-.88.35-.22.233-.33.557-.33.97v1.5c0 .413.11.737.33.97.22.233.513.35.88.35zm3.542.68v-5.5h.84v2.02h.45c.593 0 1.06.157 1.4.47.347.307.52.73.52 1.27s-.173.967-.52 1.28c-.34.307-.807.46-1.4.46h-1.29zm.84-.72h.45c.353 0 .627-.09.82-.27.2-.18.3-.43.3-.75s-.1-.57-.3-.75c-.193-.18-.467-.27-.82-.27h-.45v2.04zm3.02.72v-5.5h.84v5.5h-.84zm4.413.1c-.434 0-.814-.087-1.14-.26a1.881 1.881 0 01-.75-.73c-.174-.32-.26-.69-.26-1.11v-1.5c0-.427.086-.797.26-1.11.18-.313.43-.557.75-.73.326-.173.706-.26 1.14-.26.433 0 .81.087 1.13.26.326.173.576.417.75.73.18.313.27.683.27 1.11v.97h-3.42v.53c0 .433.11.767.33 1 .22.227.533.34.94.34.346 0 .626-.06.84-.18a.796.796 0 00.39-.56h.9c-.06.46-.287.827-.68 1.1-.387.267-.87.4-1.45.4zm1.27-3.23v-.37c0-.433-.11-.767-.33-1-.214-.233-.527-.35-.94-.35-.407 0-.72.117-.94.35-.22.233-.33.567-.33 1v.29h2.61l-.07.08zm8.515 3.13v-5.5h4.12v5.5h-.9v-4.68h-2.32V141h-.9zm7.982.08c-.44 0-.82-.083-1.14-.25a1.82 1.82 0 01-.75-.72c-.173-.32-.26-.697-.26-1.13v-1.46c0-.44.087-.817.26-1.13.18-.313.43-.553.75-.72.32-.167.7-.25 1.14-.25.44 0 .82.083 1.14.25.32.167.567.407.74.72.18.313.27.687.27 1.12v1.47c0 .433-.09.81-.27 1.13-.173.313-.42.553-.74.72-.32.167-.7.25-1.14.25zm0-.8c.394 0 .7-.11.92-.33.22-.22.33-.543.33-.97v-1.46c0-.427-.11-.75-.33-.97-.22-.22-.526-.33-.92-.33-.386 0-.693.11-.92.33-.22.22-.33.543-.33.97v1.46c0 .427.11.75.33.97.227.22.534.33.92.33zm3.223 2.12v-2.17h.45c.113-.113.23-.337.35-.67.127-.333.193-.757.2-1.27l.06-2.79h3.59v4.73h.7v2.17h-.8V141h-3.75v1.4h-.8zm1.4-2.17h2.35v-3.93h-1.84l-.04 2.01c-.007.527-.063.953-.17 1.28-.107.327-.207.54-.3.64zm4.723.77l1.95-2.83-1.83-2.67h1.06l1.09 1.7c.046.073.09.153.13.24l.11.21c.02-.053.05-.123.09-.21.046-.087.093-.167.14-.24l1.1-1.7h1.05l-1.83 2.68 1.94 2.82h-1.06l-1.18-1.8a2.568 2.568 0 01-.14-.25c-.04-.1-.077-.18-.11-.24-.027.06-.067.14-.12.24a1.836 1.836 0 01-.15.25l-1.19 1.8h-1.05zm8.422.08c-.44 0-.82-.083-1.14-.25a1.82 1.82 0 01-.75-.72c-.173-.32-.26-.697-.26-1.13v-1.46c0-.44.087-.817.26-1.13.18-.313.43-.553.75-.72.32-.167.7-.25 1.14-.25.44 0 .82.083 1.14.25.32.167.567.407.74.72.18.313.27.687.27 1.12v1.47c0 .433-.09.81-.27 1.13-.173.313-.42.553-.74.72-.32.167-.7.25-1.14.25zm0-.8c.393 0 .7-.11.92-.33.22-.22.33-.543.33-.97v-1.46c0-.427-.11-.75-.33-.97-.22-.22-.527-.33-.92-.33-.387 0-.693.11-.92.33-.22.22-.33.543-.33.97v1.46c0 .427.11.75.33.97.227.22.533.33.92.33zm3.223 2.12v-2.17h.45c.113-.113.23-.337.35-.67.126-.333.193-.757.2-1.27l.06-2.79h3.59v4.73h.7v2.17h-.8V141h-3.75v1.4h-.8zm1.4-2.17h2.35v-3.93h-1.84l-.04 2.01c-.007.527-.064.953-.17 1.28-.107.327-.207.54-.3.64zm4.822.77l1.41-2.12c-.42-.1-.746-.293-.98-.58-.226-.287-.34-.643-.34-1.07 0-.54.177-.963.53-1.27.36-.307.85-.46 1.47-.46h2.37v5.5h-.9v-2.05h-1.21l-1.3 2.05h-1.05zm2.09-2.85h1.47v-1.85h-1.47c-.333 0-.596.083-.79.25-.193.16-.29.387-.29.68 0 .287.097.513.29.68.194.16.457.24.79.24zm5.783 2.85v-4.71h-2v-.79h4.9v.79h-2V141h-.9zM31.94 161v-5.5h.86v3c0 .193-.007.397-.02.61a8.72 8.72 0 01-.04.61c-.013.187-.03.347-.05.48l2.22-4.7h1.15v5.5h-.86v-3c0-.193.003-.397.01-.61.013-.213.03-.417.05-.61l.05-.49-2.22 4.71h-1.15zm5.743 0v-5.5h1.22l.72 2.11c.073.213.14.427.2.64.06.207.103.367.13.48.026-.113.066-.273.12-.48.06-.213.123-.43.19-.65l.68-2.1h1.22v5.5h-.87v-.85c0-.3.003-.627.01-.98l.02-1.07c.013-.36.026-.7.04-1.02.013-.327.023-.613.03-.86l-.98 3.13h-.95l-.99-3.11c.013.3.023.673.03 1.12.013.447.023.913.03 1.4.013.487.02.95.02 1.39v.85h-.87zm8.162.1c-.433 0-.813-.087-1.14-.26a1.881 1.881 0 01-.75-.73c-.173-.32-.26-.69-.26-1.11v-1.5c0-.427.087-.797.26-1.11.18-.313.43-.557.75-.73.327-.173.707-.26 1.14-.26.434 0 .81.087 1.13.26a1.8 1.8 0 01.75.73c.18.313.27.683.27 1.11v.97h-3.42v.53c0 .433.11.767.33 1 .22.227.533.34.94.34.347 0 .627-.06.84-.18a.794.794 0 00.39-.56h.9c-.06.46-.287.827-.68 1.1-.387.267-.87.4-1.45.4zm1.27-3.23v-.37c0-.433-.11-.767-.33-1-.213-.233-.526-.35-.94-.35-.407 0-.72.117-.94.35-.22.233-.33.567-.33 1v.29h2.61l-.07.08zm2.593 3.13v-5.5h.9v2.29h2.32v-2.29h.9v5.5h-.9v-2.39h-2.32V161h-.9zm5.922 0v-5.5h.9v2.29h2.32v-2.29h.9v5.5h-.9v-2.39h-2.32V161h-.9zm7.983.08c-.44 0-.82-.083-1.14-.25a1.82 1.82 0 01-.75-.72c-.173-.32-.26-.697-.26-1.13v-1.46c0-.44.087-.817.26-1.13.18-.313.43-.553.75-.72.32-.167.7-.25 1.14-.25.44 0 .82.083 1.14.25.32.167.567.407.74.72.18.313.27.687.27 1.12v1.47c0 .433-.09.81-.27 1.13-.173.313-.42.553-.74.72-.32.167-.7.25-1.14.25zm0-.8c.393 0 .7-.11.92-.33.22-.22.33-.543.33-.97v-1.46c0-.427-.11-.75-.33-.97-.22-.22-.527-.33-.92-.33-.387 0-.694.11-.92.33-.22.22-.33.543-.33.97v1.46c0 .427.11.75.33.97.227.22.533.33.92.33zm11.395.72v-4.71h-2v-.79h4.9v.79h-2V161h-.9zm6.373.1c-.434 0-.814-.087-1.14-.26a1.881 1.881 0 01-.75-.73c-.174-.32-.26-.69-.26-1.11v-1.5c0-.427.086-.797.26-1.11.18-.313.43-.557.75-.73.326-.173.706-.26 1.14-.26.433 0 .81.087 1.13.26a1.8 1.8 0 01.75.73c.18.313.27.683.27 1.11v.97h-3.42v.53c0 .433.11.767.33 1 .22.227.533.34.94.34.346 0 .626-.06.84-.18a.795.795 0 00.39-.56h.9c-.06.46-.287.827-.68 1.1-.387.267-.87.4-1.45.4zm1.27-3.23v-.37c0-.433-.11-.767-.33-1-.214-.233-.527-.35-.94-.35-.407 0-.72.117-.94.35-.22.233-.33.567-.33 1v.29h2.61l-.07.08zm4.652 3.23c-.647 0-1.16-.19-1.54-.57-.373-.387-.56-.913-.56-1.58v-2.5c0-.88.22-1.557.66-2.03.44-.48 1.07-.72 1.89-.72h1.4v.9h-1.4c-.54 0-.95.16-1.23.48-.28.313-.42.77-.42 1.37v.65h.14l-.14.2c.007-.393.14-.7.4-.92.26-.22.613-.33 1.06-.33.58 0 1.03.187 1.35.56.327.373.49.887.49 1.54v.8c0 .447-.083.83-.25 1.15a1.75 1.75 0 01-.72.74c-.313.173-.69.26-1.13.26zm0-.8c.387 0 .683-.117.89-.35.207-.233.31-.567.31-1v-.8c0-.433-.103-.767-.31-1-.207-.233-.503-.35-.89-.35s-.683.117-.89.35c-.207.227-.31.56-.31 1v.8c0 .433.103.767.31 1 .207.233.503.35.89.35zm5.923.8c-.434 0-.814-.087-1.14-.26a1.881 1.881 0 01-.75-.73c-.174-.32-.26-.69-.26-1.11v-1.5c0-.427.086-.797.26-1.11.18-.313.43-.557.75-.73.326-.173.706-.26 1.14-.26.433 0 .81.087 1.13.26a1.8 1.8 0 01.75.73c.18.313.27.683.27 1.11v.97h-3.42v.53c0 .433.11.767.33 1 .22.227.533.34.94.34.346 0 .626-.06.84-.18a.794.794 0 00.39-.56h.9c-.06.46-.287.827-.68 1.1-.387.267-.87.4-1.45.4zm1.27-3.23v-.37c0-.433-.11-.767-.33-1-.214-.233-.527-.35-.94-.35-.407 0-.72.117-.94.35-.22.233-.33.567-.33 1v.29h2.61l-.07.08zm4.652 3.23c-.253 0-.456-.073-.61-.22-.147-.147-.22-.343-.22-.59 0-.26.073-.467.22-.62.154-.153.357-.23.61-.23.254 0 .454.077.6.23.153.153.23.36.23.62 0 .247-.076.443-.23.59-.147.147-.347.22-.6.22zM31.15 182.05v-1.35h.3c.173 0 .317-.093.43-.28.113-.187.173-.427.18-.72l.08-5h4.2v7.3h-1.5v-5.9h-1.23l-.06 3.6c-.007.72-.193 1.293-.56 1.72-.36.42-.84.63-1.44.63h-.4zm9.993-6.42c-.247 0-.444-.07-.59-.21-.14-.14-.21-.33-.21-.57 0-.24.07-.43.21-.57.146-.14.343-.21.59-.21.246 0 .44.07.58.21.146.14.22.33.22.57 0 .24-.074.43-.22.57-.14.14-.334.21-.58.21zm-2.44 0c-.247 0-.444-.07-.59-.21-.14-.14-.21-.33-.21-.57 0-.24.07-.43.21-.57.146-.14.343-.21.59-.21.246 0 .44.07.58.21.146.14.22.33.22.57 0 .24-.074.43-.22.57-.14.14-.334.21-.58.21zm1.23 6.47c-.487 0-.914-.09-1.28-.27a2.087 2.087 0 01-.84-.77 2.269 2.269 0 01-.29-1.16v-1.3c0-.44.096-.823.29-1.15a2 2 0 01.84-.77c.366-.187.793-.28 1.28-.28.486 0 .906.093 1.26.28.36.18.636.437.83.77.2.327.3.71.3 1.15v1h-3.37v.3c0 .347.083.61.25.79.166.173.416.26.75.26.233 0 .42-.04.56-.12a.582.582 0 00.29-.33h1.47c-.12.48-.394.867-.82 1.16-.42.293-.927.44-1.52.44zm.96-3.27v-.25c0-.34-.08-.6-.24-.78-.154-.18-.394-.27-.72-.27-.327 0-.574.093-.74.28-.16.187-.24.45-.24.79v.15l2.04-.02-.1.1zm3.102 3.17v-5.5h4.2v1.4h-2.7v4.1h-1.5zm5.463 0v-5.5h1.5v2.08h.74l1.15-2.08h1.67l-1.53 2.69 1.56 2.81h-1.7l-1.16-2.16h-.73V182h-1.5zm8.232.1c-.486 0-.91-.09-1.27-.27a2.087 2.087 0 01-.84-.77 2.269 2.269 0 01-.29-1.16v-1.3c0-.44.097-.823.29-1.15a2 2 0 01.84-.77c.36-.187.784-.28 1.27-.28.494 0 .917.093 1.27.28.36.18.637.437.83.77.2.327.3.71.3 1.15v1.3c0 .44-.1.827-.3 1.16-.193.327-.47.583-.83.77-.353.18-.776.27-1.27.27zm0-1.3c.294 0 .517-.077.67-.23.154-.16.23-.383.23-.67v-1.3c0-.293-.076-.517-.23-.67-.153-.153-.376-.23-.67-.23-.286 0-.51.077-.67.23-.153.153-.23.377-.23.67v1.3c0 .287.077.51.23.67.16.153.384.23.67.23zm5.953 1.3c-.487 0-.913-.09-1.28-.27a2.073 2.073 0 01-.85-.77c-.2-.333-.3-.72-.3-1.16v-1.3c0-.447.1-.833.3-1.16.2-.327.483-.58.85-.76.367-.187.793-.28 1.28-.28.727 0 1.306.183 1.74.55.433.367.663.867.69 1.5h-1.5a.754.754 0 00-.28-.55c-.16-.133-.377-.2-.65-.2-.3 0-.53.077-.69.23-.16.153-.24.377-.24.67v1.3c0 .287.08.51.24.67.16.153.39.23.69.23.273 0 .49-.063.65-.19a.762.762 0 00.28-.56h1.5c-.027.633-.257 1.133-.69 1.5-.433.367-1.013.55-1.74.55zm5.142-.1v-4.1h-1.8v-1.4h5.1v1.4h-1.8v4.1h-1.5zm4.373 0v-5.5h1.5v1.65h1.29c.693 0 1.233.173 1.62.52.393.34.59.813.59 1.42 0 .587-.2 1.053-.6 1.4-.393.34-.927.51-1.6.51h-2.8zm1.5-1.3h1.2c.253 0 .447-.053.58-.16a.56.56 0 00.21-.46c0-.2-.07-.353-.21-.46-.133-.113-.327-.17-.58-.17h-1.2v1.25zm10.295 1.3v-5.5h2.49c.673 0 1.207.137 1.6.41.4.267.6.63.6 1.09 0 .367-.15.663-.45.89-.3.22-.697.33-1.19.33v-.1c.54 0 .97.12 1.29.36.327.24.49.557.49.95 0 .487-.2.87-.6 1.15-.393.28-.93.42-1.61.42h-2.62zm1.47-1.06h1.08c.247 0 .443-.057.59-.17a.559.559 0 00.23-.46.58.58 0 00-.23-.48c-.147-.12-.343-.18-.59-.18h-1.08v1.29zm0-2.17h1.03c.227 0 .407-.053.54-.16a.55.55 0 00.2-.44.56.56 0 00-.2-.45c-.133-.113-.313-.17-.54-.17h-1.03v1.22zm12.725 3.33c-.486 0-.91-.09-1.27-.27a2.087 2.087 0 01-.84-.77 2.27 2.27 0 01-.29-1.16v-1.3c0-.44.097-.823.29-1.15a2 2 0 01.84-.77c.36-.187.784-.28 1.27-.28.493 0 .917.093 1.27.28.36.18.637.437.83.77.2.327.3.71.3 1.15v1.3c0 .44-.1.827-.3 1.16-.193.327-.47.583-.83.77-.353.18-.777.27-1.27.27zm0-1.3c.294 0 .517-.077.67-.23.154-.16.23-.383.23-.67v-1.3c0-.293-.076-.517-.23-.67-.153-.153-.376-.23-.67-.23-.286 0-.51.077-.67.23-.153.153-.23.377-.23.67v1.3c0 .287.077.51.23.67.16.153.384.23.67.23zm5.923 1.3c-.734-.013-1.317-.213-1.75-.6-.434-.393-.65-.927-.65-1.6v-2.45c0-.88.246-1.557.74-2.03.493-.48 1.196-.72 2.11-.72h1.65v1.45h-1.65c-.44 0-.777.11-1.01.33-.227.22-.34.543-.34.97v.7h.14l-.12.14c-.007-.373.113-.67.36-.89.253-.227.613-.34 1.08-.34.58 0 1.03.19 1.35.57.326.38.49.907.49 1.58v.69c0 .447-.1.84-.3 1.18a1.94 1.94 0 01-.83.77c-.354.173-.777.257-1.27.25zm0-1.3c.293 0 .516-.077.67-.23.153-.16.23-.383.23-.67v-.69c0-.293-.077-.517-.23-.67-.154-.153-.377-.23-.67-.23-.287 0-.51.077-.67.23-.154.153-.23.377-.23.67v.69c0 .287.076.51.23.67.16.153.383.23.67.23zm7.492 2.6V182h-4.18v-5.5h1.13v4.5h.79v-4.5h.99v4.5h.79v-4.5h1.13v4.5h.65v2.4h-1.3zm4.363-1.3c-.487 0-.913-.09-1.28-.27a2.087 2.087 0 01-.84-.77 2.273 2.273 0 01-.29-1.16v-1.3c0-.44.097-.823.29-1.15a2 2 0 01.84-.77c.367-.187.793-.28 1.28-.28s.907.093 1.26.28c.36.18.637.437.83.77.2.327.3.71.3 1.15v1h-3.37v.3c0 .347.083.61.25.79.167.173.417.26.75.26.233 0 .42-.04.56-.12a.582.582 0 00.29-.33h1.47c-.12.48-.393.867-.82 1.16-.42.293-.927.44-1.52.44zm.96-3.27v-.25c0-.34-.08-.6-.24-.78-.153-.18-.393-.27-.72-.27-.327 0-.573.093-.74.28-.16.187-.24.45-.24.79v.15l2.04-.02-.1.1zm2.612 3.17v-5.5h1.5v2.01h1.68v-2.01h1.5v5.5h-1.5v-2.09h-1.68V182h-1.5zm5.923 0v-5.5h1.32v2.5c0 .167-.01.377-.03.63-.02.247-.047.497-.08.75-.027.253-.057.477-.09.67l1.74-4.55h1.82v5.5h-1.32v-2.5c0-.173.01-.37.03-.59.02-.227.043-.453.07-.68.027-.227.053-.42.08-.58l-1.72 4.35h-1.82zm5.923 0v-5.5h1.32v2.5c0 .167-.01.377-.03.63-.02.247-.047.497-.08.75-.027.253-.057.477-.09.67l1.74-4.55h1.82v5.5h-1.32v-2.5c0-.173.01-.37.03-.59.02-.227.043-.453.07-.68.026-.227.053-.42.08-.58l-1.72 4.35h-1.82zm8.262-3.8c-.3 0-.543-.083-.73-.25a.845.845 0 01-.27-.65c0-.273.09-.49.27-.65.187-.167.43-.25.73-.25s.54.083.72.25c.187.16.28.377.28.65a.83.83 0 01-.28.65c-.18.167-.42.25-.72.25zm0 3.9c-.3 0-.543-.083-.73-.25a.845.845 0 01-.27-.65c0-.273.09-.49.27-.65.187-.167.43-.25.73-.25s.54.083.72.25c.187.16.28.377.28.65a.83.83 0 01-.28.65c-.18.167-.42.25-.72.25zm9.765-.1v-7.3h2.35c.454 0 .847.09 1.18.27.334.173.59.42.77.74.187.32.28.7.28 1.14 0 .433-.093.813-.28 1.14-.18.32-.436.57-.77.75-.333.173-.726.26-1.18.26h-1.45v3h-.9zm.9-3.81h1.45c.394 0 .707-.12.94-.36.24-.247.36-.573.36-.98 0-.413-.12-.74-.36-.98-.233-.24-.546-.36-.94-.36h-1.45v2.68zm6.623 3.91c-.58 0-1.037-.147-1.37-.44-.333-.3-.5-.703-.5-1.21 0-.513.167-.917.5-1.21.333-.293.783-.44 1.35-.44h1.7v-.55c0-.34-.103-.6-.31-.78-.2-.187-.487-.28-.86-.28-.327 0-.6.07-.82.21a.746.746 0 00-.38.55h-.9c.06-.473.283-.85.67-1.13.387-.28.87-.42 1.45-.42.633 0 1.133.163 1.5.49.367.327.55.77.55 1.33V182h-.88v-1.05h-.15l.15-.15c0 .4-.157.717-.47.95-.307.233-.717.35-1.23.35zm.22-.71c.427 0 .777-.107 1.05-.32a.996.996 0 00.41-.82v-.78h-1.68c-.3 0-.537.083-.71.25-.173.167-.26.393-.26.68 0 .307.103.55.31.73.213.173.507.26.88.26zm6.182.71c-.646 0-1.16-.19-1.54-.57-.373-.387-.56-.913-.56-1.58v-2.5c0-.88.22-1.557.66-2.03.44-.48 1.07-.72 1.89-.72h1.4v.9h-1.4c-.54 0-.95.16-1.23.48-.28.313-.42.77-.42 1.37v.65h.14l-.14.2c.007-.393.14-.7.4-.92.26-.22.614-.33 1.06-.33.58 0 1.03.187 1.35.56.327.373.49.887.49 1.54v.8c0 .447-.083.83-.25 1.15-.166.32-.406.567-.72.74-.313.173-.69.26-1.13.26zm0-.8c.387 0 .684-.117.89-.35.207-.233.31-.567.31-1v-.8c0-.433-.103-.767-.31-1-.206-.233-.503-.35-.89-.35-.386 0-.683.117-.89.35-.206.227-.31.56-.31 1v.8c0 .433.104.767.31 1 .207.233.504.35.89.35zm5.923.78c-.44 0-.82-.083-1.14-.25a1.82 1.82 0 01-.75-.72c-.173-.32-.26-.697-.26-1.13v-1.46c0-.44.087-.817.26-1.13.18-.313.43-.553.75-.72.32-.167.7-.25 1.14-.25.44 0 .82.083 1.14.25.32.167.567.407.74.72.18.313.27.687.27 1.12v1.47c0 .433-.09.81-.27 1.13-.173.313-.42.553-.74.72-.32.167-.7.25-1.14.25zm0-.8c.393 0 .7-.11.92-.33.22-.22.33-.543.33-.97v-1.46c0-.427-.11-.75-.33-.97-.22-.22-.527-.33-.92-.33-.387 0-.693.11-.92.33-.22.22-.33.543-.33.97v1.46c0 .427.11.75.33.97.227.22.533.33.92.33zm5.473.72v-4.71h-2v-.79h4.9v.79h-2V182h-.9zm5.892.1c-.58 0-1.037-.147-1.37-.44-.333-.3-.5-.703-.5-1.21 0-.513.167-.917.5-1.21.333-.293.783-.44 1.35-.44h1.7v-.55c0-.34-.103-.6-.31-.78-.2-.187-.487-.28-.86-.28-.327 0-.6.07-.82.21a.746.746 0 00-.38.55h-.9c.06-.473.283-.85.67-1.13.387-.28.87-.42 1.45-.42.633 0 1.133.163 1.5.49.367.327.55.77.55 1.33V182h-.88v-1.05h-.15l.15-.15c0 .4-.157.717-.47.95-.307.233-.717.35-1.23.35zm.22-.71c.427 0 .777-.107 1.05-.32a.996.996 0 00.41-.82v-.78h-1.68c-.3 0-.537.083-.71.25-.173.167-.26.393-.26.68 0 .307.103.55.31.73.213.173.507.26.88.26zm6.183.71c-.434 0-.814-.087-1.14-.26a1.881 1.881 0 01-.75-.73c-.174-.32-.26-.69-.26-1.11v-1.5c0-.427.086-.797.26-1.11.18-.313.43-.557.75-.73.326-.173.706-.26 1.14-.26.433 0 .81.087 1.13.26.326.173.576.417.75.73.18.313.27.683.27 1.11v.97h-3.42v.53c0 .433.11.767.33 1 .22.227.533.34.94.34.346 0 .626-.06.84-.18a.796.796 0 00.39-.56h.9c-.06.46-.287.827-.68 1.1-.387.267-.87.4-1.45.4zm1.27-3.23v-.37c0-.433-.11-.767-.33-1-.214-.233-.527-.35-.94-.35-.407 0-.72.117-.94.35-.22.233-.33.567-.33 1v.29h2.61l-.07.08zm2.412 3.13v-5.5h1.22l.72 2.11c.074.213.14.427.2.64.06.207.104.367.13.48.027-.113.067-.273.12-.48.06-.213.124-.43.19-.65l.68-2.1h1.22v5.5h-.87v-.85c0-.3.004-.627.01-.98l.02-1.07.04-1.02c.014-.327.024-.613.03-.86l-.98 3.13h-.95l-.99-3.11c.014.3.024.673.03 1.12.014.447.024.913.03 1.4.014.487.02.95.02 1.39v.85h-.87zm12.025 0v-5.5h2.38c.574 0 1.017.13 1.33.39.314.253.47.61.47 1.07 0 .38-.13.687-.39.92-.26.227-.603.34-1.03.34v-.08c.467 0 .84.117 1.12.35.287.233.43.547.43.94 0 .493-.166.88-.5 1.16-.333.273-.8.41-1.4.41h-2.41zm.88-.79h1.53c.32 0 .567-.07.74-.21.18-.14.27-.337.27-.59 0-.26-.09-.46-.27-.6-.173-.14-.42-.21-.74-.21h-1.53v1.61zm0-2.39h1.5c.28 0 .5-.067.66-.2.167-.133.25-.32.25-.56 0-.24-.08-.427-.24-.56-.16-.14-.383-.21-.67-.21h-1.5v1.53zm10.995 3.18v-5.5h.9v2.27h.94l1.6-2.27h1.03l-1.85 2.62 1.88 2.88h-1.05l-1.6-2.45h-.95V182h-.9zm7.953.08c-.44 0-.82-.083-1.14-.25a1.82 1.82 0 01-.75-.72c-.173-.32-.26-.697-.26-1.13v-1.46c0-.44.087-.817.26-1.13.18-.313.43-.553.75-.72.32-.167.7-.25 1.14-.25.44 0 .82.083 1.14.25.32.167.567.407.74.72.18.313.27.687.27 1.12v1.47c0 .433-.09.81-.27 1.13-.173.313-.42.553-.74.72-.32.167-.7.25-1.14.25zm0-.8c.393 0 .7-.11.92-.33.22-.22.33-.543.33-.97v-1.46c0-.427-.11-.75-.33-.97-.22-.22-.527-.33-.92-.33-.387 0-.693.11-.92.33-.22.22-.33.543-.33.97v1.46c0 .427.11.75.33.97.227.22.533.33.92.33zm3.683.72v-5.5h1.22l.72 2.11c.073.213.14.427.2.64.06.207.103.367.13.48.026-.113.066-.273.12-.48.06-.213.123-.43.19-.65l.68-2.1h1.22v5.5h-.87v-.85c0-.3.003-.627.01-.98l.02-1.07c.013-.36.026-.7.04-1.02.013-.327.023-.613.03-.86l-.98 3.13h-.95l-.99-3.11c.013.3.023.673.03 1.12.013.447.023.913.03 1.4.013.487.02.95.02 1.39v.85h-.87zm7.762 1.8V182c-.64 0-1.143-.18-1.51-.54-.366-.36-.55-.853-.55-1.48v-1.48c0-.62.184-1.107.55-1.46.374-.36.877-.54 1.51-.54v-1.8h.8v1.8c.64 0 1.144.18 1.51.54.367.353.55.84.55 1.46v1.48c0 .627-.183 1.12-.55 1.48-.366.36-.87.54-1.51.54v1.8h-.8zm.02-2.51v-4.08c-.386 0-.69.113-.91.34-.22.227-.33.543-.33.95v1.48c0 .407.11.727.33.96.22.233.524.35.91.35zm.76 0c.394 0 .697-.117.91-.35.22-.233.33-.553.33-.96v-1.48c0-.407-.11-.723-.33-.95-.213-.227-.516-.34-.91-.34v4.08zm5.543.79c-.44 0-.82-.083-1.14-.25a1.82 1.82 0 01-.75-.72c-.174-.32-.26-.697-.26-1.13v-1.46c0-.44.086-.817.26-1.13.18-.313.43-.553.75-.72.32-.167.7-.25 1.14-.25.44 0 .82.083 1.14.25.32.167.566.407.74.72.18.313.27.687.27 1.12v1.47c0 .433-.09.81-.27 1.13a1.76 1.76 0 01-.74.72c-.32.167-.7.25-1.14.25zm0-.8c.393 0 .7-.11.92-.33.22-.22.33-.543.33-.97v-1.46c0-.427-.11-.75-.33-.97-.22-.22-.527-.33-.92-.33-.387 0-.694.11-.92.33-.22.22-.33.543-.33.97v1.46c0 .427.11.75.33.97.226.22.533.33.92.33zm3.842 2.52v-7.3h.9v1.05h.18l-.18.21c0-.42.137-.75.41-.99.28-.247.647-.37 1.1-.37.554 0 .994.183 1.32.55.334.36.5.857.5 1.49v1.61c0 .42-.076.783-.23 1.09a1.627 1.627 0 01-.63.71c-.266.167-.586.25-.96.25-.446 0-.81-.123-1.09-.37s-.42-.577-.42-.99l.18.21h-.2l.02 1.25v1.6h-.9zm2.11-2.48c.38 0 .677-.113.89-.34.22-.227.33-.553.33-.98v-1.5c0-.427-.11-.753-.33-.98-.213-.227-.51-.34-.89-.34-.366 0-.66.117-.88.35-.22.233-.33.557-.33.97v1.5c0 .413.11.737.33.97.22.233.514.35.88.35zm5.443.68v-4.71h-2v-.79h4.9v.79h-2V182h-.9zm4.312 0v-5.5h.9v2.29h2.32v-2.29h.9v5.5h-.9v-2.39h-2.32V182h-.9zm7.983.08c-.44 0-.82-.083-1.14-.25a1.82 1.82 0 01-.75-.72c-.173-.32-.26-.697-.26-1.13v-1.46c0-.44.087-.817.26-1.13.18-.313.43-.553.75-.72.32-.167.7-.25 1.14-.25.44 0 .82.083 1.14.25.32.167.567.407.74.72.18.313.27.687.27 1.12v1.47c0 .433-.09.81-.27 1.13-.173.313-.42.553-.74.72-.32.167-.7.25-1.14.25zm0-.8c.393 0 .7-.11.92-.33.22-.22.33-.543.33-.97v-1.46c0-.427-.11-.75-.33-.97-.22-.22-.527-.33-.92-.33-.387 0-.693.11-.92.33-.22.22-.33.543-.33.97v1.46c0 .427.11.75.33.97.227.22.533.33.92.33zm3.863.72v-5.5h.86v3c0 .193-.007.397-.02.61a8.72 8.72 0 01-.04.61 6.67 6.67 0 01-.05.48l2.22-4.7h1.15v5.5h-.86v-3c0-.193.003-.397.01-.61.013-.213.03-.417.05-.61.02-.2.036-.363.05-.49l-2.22 4.71h-1.15zm2.1-6.4c-.48 0-.867-.133-1.16-.4-.294-.267-.44-.617-.44-1.05h.71c0 .26.08.47.24.63.16.16.373.24.64.24.273 0 .49-.08.65-.24.166-.16.25-.37.25-.63h.71c0 .433-.147.783-.44 1.05-.294.267-.68.4-1.16.4zm11.325 6.5c-.58 0-1.037-.147-1.37-.44-.334-.3-.5-.703-.5-1.21 0-.513.166-.917.5-1.21.333-.293.783-.44 1.35-.44h1.7v-.55c0-.34-.104-.6-.31-.78-.2-.187-.487-.28-.86-.28-.327 0-.6.07-.82.21a.746.746 0 00-.38.55h-.9c.06-.473.283-.85.67-1.13.386-.28.87-.42 1.45-.42.633 0 1.133.163 1.5.49.366.327.55.77.55 1.33V182h-.88v-1.05h-.15l.15-.15c0 .4-.157.717-.47.95-.307.233-.717.35-1.23.35zm.22-.71c.426 0 .776-.107 1.05-.32a.996.996 0 00.41-.82v-.78h-1.68c-.3 0-.537.083-.71.25-.174.167-.26.393-.26.68 0 .307.103.55.31.73.213.173.506.26.88.26zm5.732.61v-4.71h-2v-.79h4.9v.79h-2V182h-.9zm4.133 0v-5.5h1.22l.72 2.11c.073.213.14.427.2.64.06.207.103.367.13.48.027-.113.067-.273.12-.48.06-.213.123-.43.19-.65l.68-2.1h1.22v5.5h-.87v-.85c0-.3.003-.627.01-.98l.02-1.07c.013-.36.027-.7.04-1.02.013-.327.023-.613.03-.86l-.98 3.13h-.95l-.99-3.11c.013.3.023.673.03 1.12.013.447.023.913.03 1.4.013.487.02.95.02 1.39v.85h-.87zm8.162.08c-.44 0-.82-.083-1.14-.25a1.82 1.82 0 01-.75-.72c-.173-.32-.26-.697-.26-1.13v-1.46c0-.44.087-.817.26-1.13.18-.313.43-.553.75-.72.32-.167.7-.25 1.14-.25.44 0 .82.083 1.14.25.32.167.567.407.74.72.18.313.27.687.27 1.12v1.47c0 .433-.09.81-.27 1.13-.173.313-.42.553-.74.72-.32.167-.7.25-1.14.25zm0-.8c.394 0 .7-.11.92-.33.22-.22.33-.543.33-.97v-1.46c0-.427-.11-.75-.33-.97-.22-.22-.526-.33-.92-.33-.386 0-.693.11-.92.33-.22.22-.33.543-.33.97v1.46c0 .427.11.75.33.97.227.22.534.33.92.33zm5.943.82c-.44 0-.827-.083-1.16-.25a1.803 1.803 0 01-.76-.72c-.18-.32-.27-.697-.27-1.13v-1.5c0-.44.09-.817.27-1.13.18-.313.433-.553.76-.72.333-.167.72-.25 1.16-.25.633 0 1.143.17 1.53.51.387.34.59.803.61 1.39h-.9c-.02-.353-.14-.623-.36-.81-.213-.193-.507-.29-.88-.29-.393 0-.707.113-.94.34-.233.22-.35.537-.35.95V180c0 .413.117.733.35.96.233.227.547.34.94.34.373 0 .667-.097.88-.29.22-.193.34-.463.36-.81h.9c-.02.587-.223 1.05-.61 1.39-.387.34-.897.51-1.53.51zm5.503 1.7V182c-.64 0-1.144-.18-1.51-.54-.367-.36-.55-.853-.55-1.48v-1.48c0-.62.183-1.107.55-1.46.373-.36.876-.54 1.51-.54v-1.8h.8v1.8c.64 0 1.143.18 1.51.54.366.353.55.84.55 1.46v1.48c0 .627-.184 1.12-.55 1.48-.367.36-.87.54-1.51.54v1.8h-.8zm.02-2.51v-4.08c-.387 0-.69.113-.91.34-.22.227-.33.543-.33.95v1.48c0 .407.11.727.33.96.22.233.523.35.91.35zm.76 0c.393 0 .696-.117.91-.35.22-.233.33-.553.33-.96v-1.48c0-.407-.11-.723-.33-.95-.214-.227-.517-.34-.91-.34v4.08zm5.542.81c-.433 0-.813-.087-1.14-.26a1.881 1.881 0 01-.75-.73c-.173-.32-.26-.69-.26-1.11v-1.5c0-.427.087-.797.26-1.11.18-.313.43-.557.75-.73.327-.173.707-.26 1.14-.26.433 0 .81.087 1.13.26.327.173.577.417.75.73.18.313.27.683.27 1.11v.97h-3.42v.53c0 .433.11.767.33 1 .22.227.533.34.94.34.347 0 .627-.06.84-.18a.796.796 0 00.39-.56h.9c-.06.46-.287.827-.68 1.1-.387.267-.87.4-1.45.4zm1.27-3.23v-.37c0-.433-.11-.767-.33-1-.213-.233-.527-.35-.94-.35-.407 0-.72.117-.94.35-.22.233-.33.567-.33 1v.29h2.61l-.07.08zm2.573 4.93v-7.3h.9v1.05h.18l-.18.21c0-.42.136-.75.41-.99.28-.247.646-.37 1.1-.37.553 0 .993.183 1.32.55.333.36.5.857.5 1.49v1.61c0 .42-.077.783-.23 1.09a1.64 1.64 0 01-.63.71c-.267.167-.587.25-.96.25-.447 0-.81-.123-1.09-.37s-.42-.577-.42-.99l.18.21h-.2l.02 1.25v1.6h-.9zm2.11-2.48c.38 0 .676-.113.89-.34.22-.227.33-.553.33-.98v-1.5c0-.427-.11-.753-.33-.98-.214-.227-.51-.34-.89-.34-.367 0-.66.117-.88.35-.22.233-.33.557-.33.97v1.5c0 .413.11.737.33.97.22.233.513.35.88.35zm5.892.78c-.433 0-.813-.087-1.14-.26a1.881 1.881 0 01-.75-.73c-.173-.32-.26-.69-.26-1.11v-1.5c0-.427.087-.797.26-1.11.18-.313.43-.557.75-.73.327-.173.707-.26 1.14-.26.434 0 .81.087 1.13.26.327.173.577.417.75.73.18.313.27.683.27 1.11v.97h-3.42v.53c0 .433.11.767.33 1 .22.227.534.34.94.34.347 0 .627-.06.84-.18a.79.79 0 00.39-.56h.9a1.53 1.53 0 01-.68 1.1c-.386.267-.87.4-1.45.4zm1.27-3.23v-.37c0-.433-.11-.767-.33-1-.213-.233-.526-.35-.94-.35-.406 0-.72.117-.94.35-.22.233-.33.567-.33 1v.29h2.61l-.07.08zm10.575 3.23c-.646 0-1.16-.19-1.54-.57-.373-.387-.56-.913-.56-1.58v-2.5c0-.88.22-1.557.66-2.03.44-.48 1.07-.72 1.89-.72h1.4v.9h-1.4c-.54 0-.95.16-1.23.48-.28.313-.42.77-.42 1.37v.65h.14l-.14.2c.007-.393.14-.7.4-.92.26-.22.614-.33 1.06-.33.58 0 1.03.187 1.35.56.327.373.49.887.49 1.54v.8c0 .447-.083.83-.25 1.15-.166.32-.406.567-.72.74-.313.173-.69.26-1.13.26zm0-.8c.387 0 .684-.117.89-.35.207-.233.31-.567.31-1v-.8c0-.433-.103-.767-.31-1-.206-.233-.503-.35-.89-.35-.386 0-.683.117-.89.35-.206.227-.31.56-.31 1v.8c0 .433.104.767.31 1 .207.233.504.35.89.35zm5.923.8c-.433 0-.813-.087-1.14-.26a1.881 1.881 0 01-.75-.73c-.173-.32-.26-.69-.26-1.11v-1.5c0-.427.087-.797.26-1.11.18-.313.43-.557.75-.73.327-.173.707-.26 1.14-.26.433 0 .81.087 1.13.26.327.173.577.417.75.73.18.313.27.683.27 1.11v.97h-3.42v.53c0 .433.11.767.33 1 .22.227.533.34.94.34.347 0 .627-.06.84-.18a.796.796 0 00.39-.56h.9c-.06.46-.287.827-.68 1.1-.387.267-.87.4-1.45.4zm1.27-3.23v-.37c0-.433-.11-.767-.33-1-.213-.233-.527-.35-.94-.35-.407 0-.72.117-.94.35-.22.233-.33.567-.33 1v.29h2.61l-.07.08zm4.392 3.2c-.58 0-1.056-.123-1.43-.37a1.475 1.475 0 01-.66-1h.95c.047.167.17.303.37.41.207.107.464.16.77.16h.47c.327 0 .58-.077.76-.23a.738.738 0 00.28-.6c0-.267-.09-.477-.27-.63-.173-.153-.43-.23-.77-.23h-1.21v-.78h1.18c.307 0 .54-.073.7-.22a.75.75 0 00.24-.58.75.75 0 00-.11-.42.634.634 0 00-.31-.26c-.14-.06-.31-.09-.51-.09h-.5c-.266 0-.496.06-.69.18-.193.12-.31.267-.35.44h-.95c.067-.413.284-.753.65-1.02.367-.267.814-.4 1.34-.4h.5c.394 0 .73.063 1.01.19.28.12.494.293.64.52.154.227.23.497.23.81 0 .327-.106.597-.32.81-.213.207-.513.323-.9.35v.04c.474.033.817.16 1.03.38.214.22.32.537.32.95 0 .487-.18.873-.54 1.16-.36.287-.843.43-1.45.43h-.47zm-322.308 20v-.84h.18c.307 0 .52-.12.64-.36.127-.24.193-.67.2-1.29l.06-3.08h3.73v5.5h-.9v-4.68h-1.94l-.05 2.3c-.013.58-.08 1.05-.2 1.41-.113.36-.293.623-.54.79-.24.167-.557.25-.95.25h-.23zm6.613-.07v-5.5h.86v3c0 .193-.007.397-.02.61a8.72 8.72 0 01-.04.61 6.67 6.67 0 01-.05.48l2.22-4.7h1.15v5.5h-.86v-3c0-.193.003-.397.01-.61.013-.213.03-.417.05-.61.02-.2.036-.363.05-.49l-2.22 4.71h-1.15zm5.642 0l-.02-5.5h.84v4.82h1.17v-4.82h.72v4.82h1.16v-4.82h.83v5.5h-4.7zm6.203 0v-5.5h.9v2.29h2.32v-2.29h.9v5.5h-.9v-2.39h-2.32V202h-.9zm7.982.1a2.4 2.4 0 01-1.14-.26 1.881 1.881 0 01-.75-.73c-.173-.32-.26-.69-.26-1.11v-1.5c0-.427.087-.797.26-1.11.18-.313.43-.557.75-.73a2.4 2.4 0 011.14-.26c.434 0 .81.087 1.13.26.327.173.577.417.75.73.18.313.27.683.27 1.11v.97h-3.42v.53c0 .433.11.767.33 1 .22.227.534.34.94.34.347 0 .627-.06.84-.18a.795.795 0 00.39-.56h.9a1.53 1.53 0 01-.68 1.1c-.386.267-.87.4-1.45.4zm1.27-3.23v-.37c0-.433-.11-.767-.33-1-.213-.233-.526-.35-.94-.35-.406 0-.72.117-.94.35-.22.233-.33.567-.33 1v.29h2.61l-.07.08zm2.953 3.13v-5.5h3.95v.82h-3.05V202h-.9zm7.622.08c-.44 0-.82-.083-1.14-.25a1.82 1.82 0 01-.75-.72c-.173-.32-.26-.697-.26-1.13v-1.46c0-.44.087-.817.26-1.13.18-.313.43-.553.75-.72.32-.167.7-.25 1.14-.25.44 0 .82.083 1.14.25.32.167.567.407.74.72.18.313.27.687.27 1.12v1.47c0 .433-.09.81-.27 1.13-.173.313-.42.553-.74.72-.32.167-.7.25-1.14.25zm0-.8c.394 0 .7-.11.92-.33.22-.22.33-.543.33-.97v-1.46c0-.427-.11-.75-.33-.97-.22-.22-.526-.33-.92-.33-.386 0-.693.11-.92.33-.22.22-.33.543-.33.97v1.46c0 .427.11.75.33.97.227.22.534.33.92.33zm11.846.8c-.44 0-.82-.083-1.14-.25a1.82 1.82 0 01-.75-.72c-.174-.32-.26-.697-.26-1.13v-1.46c0-.44.086-.817.26-1.13.18-.313.43-.553.75-.72.32-.167.7-.25 1.14-.25.44 0 .82.083 1.14.25.32.167.566.407.74.72.18.313.27.687.27 1.12v1.47c0 .433-.09.81-.27 1.13a1.76 1.76 0 01-.74.72c-.32.167-.7.25-1.14.25zm0-.8c.393 0 .7-.11.92-.33.22-.22.33-.543.33-.97v-1.46c0-.427-.11-.75-.33-.97-.22-.22-.527-.33-.92-.33-.387 0-.694.11-.92.33-.22.22-.33.543-.33.97v1.46c0 .427.11.75.33.97.226.22.533.33.92.33zm5.522 2.52V202c-.64 0-1.143-.18-1.51-.54-.367-.36-.55-.853-.55-1.48v-1.48c0-.62.183-1.107.55-1.46.373-.36.877-.54 1.51-.54v-1.8h.8v1.8c.64 0 1.143.18 1.51.54.367.353.55.84.55 1.46v1.48c0 .627-.183 1.12-.55 1.48-.367.36-.87.54-1.51.54v1.8h-.8zm.02-2.51v-4.08c-.387 0-.69.113-.91.34-.22.227-.33.543-.33.95v1.48c0 .407.11.727.33.96.22.233.523.35.91.35zm.76 0c.393 0 .697-.117.91-.35.22-.233.33-.553.33-.96v-1.48c0-.407-.11-.723-.33-.95-.213-.227-.517-.34-.91-.34v4.08zm3.483.71v-5.5h.86v3c0 .193-.007.397-.02.61a8.72 8.72 0 01-.04.61 6.67 6.67 0 01-.05.48l2.22-4.7h1.15v5.5h-.86v-3c0-.193.003-.397.01-.61.013-.213.03-.417.05-.61.02-.2.036-.363.05-.49l-2.22 4.71h-1.15zm9.832 1.4V202h-3.91v-5.5h.9v4.7h2.16v-4.7h.9v4.7h.75v2.2h-.8zm2.013-1.4v-5.5h.86v3c0 .193-.007.397-.02.61a8.72 8.72 0 01-.04.61 6.67 6.67 0 01-.05.48l2.22-4.7h1.15v5.5h-.86v-3c0-.193.003-.397.01-.61.013-.213.03-.417.05-.61.02-.2.036-.363.05-.49l-2.22 4.71h-1.15zm7.982.08c-.44 0-.82-.083-1.14-.25a1.82 1.82 0 01-.75-.72c-.173-.32-.26-.697-.26-1.13v-1.46c0-.44.087-.817.26-1.13.18-.313.43-.553.75-.72.32-.167.7-.25 1.14-.25.44 0 .82.083 1.14.25.32.167.567.407.74.72.18.313.27.687.27 1.12v1.47c0 .433-.09.81-.27 1.13-.173.313-.42.553-.74.72-.32.167-.7.25-1.14.25zm0-.8c.394 0 .7-.11.92-.33.22-.22.33-.543.33-.97v-1.46c0-.427-.11-.75-.33-.97-.22-.22-.526-.33-.92-.33-.386 0-.693.11-.92.33-.22.22-.33.543-.33.97v1.46c0 .427.11.75.33.97.227.22.534.33.92.33zm5.663.79c-.58 0-1.057-.123-1.43-.37a1.468 1.468 0 01-.66-1h.95c.047.167.17.303.37.41.207.107.463.16.77.16h.47c.327 0 .58-.077.76-.23a.738.738 0 00.28-.6c0-.267-.09-.477-.27-.63-.173-.153-.43-.23-.77-.23h-1.21v-.78h1.18c.307 0 .54-.073.7-.22a.75.75 0 00.24-.58.759.759 0 00-.11-.42.639.639 0 00-.31-.26c-.14-.06-.31-.09-.51-.09h-.5c-.267 0-.497.06-.69.18-.193.12-.31.267-.35.44h-.95c.067-.413.283-.753.65-1.02.367-.267.813-.4 1.34-.4h.5c.393 0 .73.063 1.01.19.28.12.493.293.64.52.153.227.23.497.23.81 0 .327-.107.597-.32.81-.213.207-.513.323-.9.35v.04c.473.033.817.16 1.03.38.213.22.32.537.32.95 0 .487-.18.873-.54 1.16-.36.287-.843.43-1.45.43h-.47zm5.702.03c-.58 0-1.036-.147-1.37-.44-.333-.3-.5-.703-.5-1.21 0-.513.167-.917.5-1.21.334-.293.784-.44 1.35-.44h1.7v-.55c0-.34-.103-.6-.31-.78-.2-.187-.486-.28-.86-.28-.326 0-.6.07-.82.21a.749.749 0 00-.38.55h-.9c.06-.473.284-.85.67-1.13.387-.28.87-.42 1.45-.42.634 0 1.134.163 1.5.49.367.327.55.77.55 1.33V202h-.88v-1.05h-.15l.15-.15c0 .4-.156.717-.47.95-.306.233-.716.35-1.23.35zm.22-.71c.427 0 .777-.107 1.05-.32a.994.994 0 00.41-.82v-.78h-1.68c-.3 0-.536.083-.71.25-.173.167-.26.393-.26.68 0 .307.104.55.31.73.214.173.507.26.88.26zm6.183.71c-.253 0-.457-.073-.61-.22-.147-.147-.22-.343-.22-.59 0-.26.073-.467.22-.62.153-.153.357-.23.61-.23s.453.077.6.23c.153.153.23.36.23.62 0 .247-.077.443-.23.59-.147.147-.347.22-.6.22z" fill="#000"/><path stroke="#fff" d="M0 22.5h214"/><path d="M4.857 52.43l.228-1.789.22-1.748.266-2.142c.016-.131.03-.263.052-.393.022-.129-.047-.208-.13-.291-1.432-1.432-2.86-2.868-4.292-4.3-.145-.145-.234-.3-.19-.511.059-.281.203-.385.6-.444 1.145-.17 2.289-.343 3.434-.514a672.67 672.67 0 012.48-.364c.119-.018.207-.069.263-.181.593-1.19 1.188-2.379 1.782-3.568.302-.604.601-1.21.906-1.811.075-.147.15-.295.33-.347.264-.075.496.007.62.252.335.66.66 1.325.993 1.985a1287.46 1287.46 0 001.572 3.1c.006.012.018.022.02.034.077.46.414.535.802.574 1.106.112 2.21.239 3.316.363.797.09 1.594.183 2.391.277.223.026.378.14.453.358.074.218-.012.383-.158.537-.95 1.002-1.9 2.006-2.848 3.01-.427.451-.843.913-1.28 1.354a.52.52 0 00-.158.48c.155 1.145.312 2.29.465 3.436.11.824.213 1.65.32 2.475.03.236.006.453-.212.6-.203.136-.4.082-.596-.027-.726-.406-1.453-.81-2.18-1.214l-2.63-1.46c-.035-.02-.072-.035-.106-.055-.619-.361-.361-.333-.973.003-.943.518-1.876 1.054-2.813 1.584-.712.403-1.422.81-2.136 1.21-.278.156-.52.119-.703-.08-.107-.115-.1-.252-.107-.393zm-1 48l.228-1.789.22-1.748.266-2.142c.016-.131.03-.263.052-.393.022-.129-.047-.208-.13-.291-1.432-1.432-2.86-2.868-4.292-4.3-.145-.144-.234-.3-.19-.511.059-.281.203-.385.6-.444 1.145-.17 2.289-.343 3.434-.514a672.67 672.67 0 012.48-.364c.119-.018.207-.069.263-.181.593-1.19 1.188-2.379 1.782-3.568.302-.604.601-1.21.906-1.811.075-.147.15-.295.33-.347.264-.075.496.007.62.252.335.66.66 1.325.993 1.985a1287.46 1287.46 0 001.572 3.1c.006.012.018.022.02.034.077.46.414.535.802.574 1.106.112 2.21.239 3.316.363.797.09 1.594.183 2.391.277.223.026.378.14.453.358.074.218-.012.383-.158.537-.95 1.002-1.9 2.006-2.848 3.01-.427.452-.843.913-1.28 1.354a.52.52 0 00-.158.48c.155 1.145.312 2.29.464 3.436.11.824.214 1.65.321 2.475.03.236.006.453-.212.6-.203.136-.4.082-.595-.027-.727-.406-1.454-.809-2.18-1.213l-2.631-1.461c-.035-.02-.072-.035-.106-.055-.619-.361-.361-.332-.973.004-.943.517-1.876 1.053-2.813 1.583-.712.403-1.422.81-2.136 1.21-.278.156-.52.119-.703-.08-.107-.115-.1-.252-.107-.393zm0 46l.228-1.789.22-1.748.266-2.142c.016-.131.03-.263.052-.393.022-.129-.047-.208-.13-.291-1.432-1.432-2.86-2.868-4.292-4.3-.145-.144-.234-.301-.19-.511.059-.281.203-.385.6-.444 1.145-.17 2.289-.343 3.434-.514a691.89 691.89 0 012.48-.364c.119-.018.207-.069.263-.181.593-1.19 1.188-2.379 1.782-3.568.302-.604.601-1.209.906-1.811.075-.147.15-.295.33-.347.264-.075.496.007.62.252.335.66.66 1.325.993 1.985a1287.46 1287.46 0 001.572 3.1c.006.012.018.022.02.034.077.459.414.535.802.574 1.106.112 2.21.238 3.316.363.797.089 1.594.183 2.391.277.223.026.378.14.453.358.074.218-.012.383-.158.537-.95 1.002-1.9 2.006-2.848 3.01-.427.452-.843.913-1.28 1.354a.521.521 0 00-.158.48c.155 1.145.312 2.29.464 3.436.11.824.214 1.65.321 2.475.03.236.006.453-.212.6-.203.136-.4.082-.595-.027-.727-.406-1.454-.809-2.18-1.214l-2.631-1.46c-.035-.019-.072-.035-.106-.055-.619-.361-.361-.332-.973.004-.943.517-1.876 1.053-2.813 1.583-.712.403-1.422.81-2.136 1.21-.278.156-.52.119-.703-.08-.107-.115-.1-.252-.107-.393zm0 41l.228-1.789.22-1.748.266-2.142c.016-.131.03-.263.052-.393.022-.129-.047-.208-.13-.291-1.432-1.432-2.86-2.868-4.292-4.3-.145-.144-.234-.301-.19-.511.059-.281.203-.385.6-.444 1.145-.17 2.289-.343 3.434-.514a691.89 691.89 0 012.48-.364c.119-.018.207-.069.263-.181.593-1.19 1.188-2.379 1.782-3.568.302-.604.601-1.209.906-1.811.075-.147.15-.295.33-.347.264-.075.496.007.62.252.335.66.66 1.325.993 1.985a1287.46 1287.46 0 001.572 3.1c.006.012.018.022.02.034.077.459.414.535.802.574 1.106.112 2.21.238 3.316.363.797.089 1.594.183 2.391.277.223.026.378.14.453.358.074.218-.012.383-.158.537-.95 1.002-1.9 2.006-2.848 3.01-.427.452-.843.913-1.28 1.354a.521.521 0 00-.158.48c.155 1.145.312 2.29.464 3.436.11.824.214 1.65.321 2.475.03.236.006.453-.212.6-.203.136-.4.082-.595-.027-.727-.406-1.454-.809-2.18-1.214l-2.631-1.46c-.035-.019-.072-.035-.106-.055-.619-.361-.361-.332-.973.004-.943.517-1.876 1.053-2.813 1.583-.712.403-1.422.81-2.136 1.21-.278.156-.52.119-.703-.08-.107-.115-.1-.252-.107-.393z" fill="#C2D76C"/></svg>