<svg width="189" height="152" fill="none" xmlns="http://www.w3.org/2000/svg"><g filter="url(#filter0_bd_64_219)" shape-rendering="crispEdges"><rect x="180" y="136" width="171" height="134" rx="8" transform="rotate(-180 180 136)" fill="url(#paint0_linear_64_219)" fill-opacity=".3"/><rect x="179.5" y="135.5" width="170" height="133" rx="7.5" transform="rotate(-180 179.5 135.5)" stroke="url(#paint1_linear_64_219)" stroke-opacity=".15"/></g><path d="M18.99 80v-8.03h.957v4.51c0 .264-.007.546-.022.847a29.018 29.018 0 01-.077 1.518l2.442-6.875h1.32V80h-.957v-4.51c0-.271.004-.554.011-.847l.044-.847.055-.671L20.31 80h-1.32zm6.442 0v-6.05h1.342l.792 2.321c.08.235.154.47.22.704.066.227.113.403.143.528.029-.125.073-.3.132-.528a37.3 37.3 0 01.209-.715l.748-2.31h1.342V80h-.957v-.935c0-.33.003-.69.01-1.078l.023-1.177c.014-.396.029-.77.044-1.122.014-.36.025-.675.033-.946l-1.078 3.443H27.39l-1.09-3.421c.015.33.026.74.034 1.232.014.491.025 1.005.033 1.54a55.8 55.8 0 01.022 1.529V80h-.957zm9.06.11c-.477 0-.895-.095-1.255-.286a2.07 2.07 0 01-.825-.803 2.523 2.523 0 01-.286-1.221v-1.65c0-.47.096-.876.286-1.221a2.07 2.07 0 01.825-.803c.36-.19.778-.286 1.254-.286.477 0 .891.095 1.243.286.36.19.635.458.825.803.198.345.297.752.297 1.221v1.067h-3.762v.583c0 .477.121.843.363 1.1.242.25.587.374 1.034.374.382 0 .69-.066.924-.198a.874.874 0 00.43-.616h.99c-.067.506-.316.91-.749 1.21-.425.293-.957.44-1.595.44zm1.396-3.553v-.407c0-.477-.12-.843-.363-1.1-.234-.257-.579-.385-1.034-.385-.447 0-.792.128-1.034.385s-.363.623-.363 1.1v.319h2.871l-.077.088zm5.2 3.553c-.478 0-.896-.095-1.255-.286a2.07 2.07 0 01-.825-.803 2.523 2.523 0 01-.286-1.221v-1.65c0-.47.095-.876.286-1.221a2.07 2.07 0 01.825-.803c.36-.19.777-.286 1.254-.286s.891.095 1.243.286c.36.19.634.458.825.803.198.345.297.752.297 1.221v1.067H39.69v.583c0 .477.121.843.363 1.1.242.25.587.374 1.034.374.381 0 .69-.066.924-.198a.874.874 0 00.43-.616h.99c-.067.506-.316.91-.749 1.21-.425.293-.957.44-1.595.44zm1.396-3.553v-.407c0-.477-.12-.843-.363-1.1-.235-.257-.58-.385-1.034-.385-.447 0-.792.128-1.034.385s-.363.623-.363 1.1v.319h2.871l-.077.088zM45.22 80v-6.05h1.342l.792 2.321c.08.235.154.47.22.704.066.227.114.403.143.528.03-.125.073-.3.132-.528a37.3 37.3 0 01.209-.715l.748-2.31h1.342V80h-.957v-.935c0-.33.004-.69.01-1.078l.023-1.177c.014-.396.03-.77.044-1.122.014-.36.025-.675.033-.946l-1.078 3.443h-1.045l-1.09-3.421c.015.33.026.74.034 1.232.014.491.026 1.005.033 1.54a55.8 55.8 0 01.022 1.529V80h-.957zm15.655.088c-.484 0-.902-.092-1.254-.275a1.996 1.996 0 01-.825-.792c-.19-.352-.286-.766-.286-1.243v-1.606c0-.484.096-.898.286-1.243.198-.345.473-.609.825-.792.352-.183.77-.275 1.254-.275s.902.092 1.254.275c.352.183.624.447.814.792.198.345.297.755.297 1.232v1.617c0 .477-.099.891-.297 1.243a1.92 1.92 0 01-.814.792c-.352.183-.77.275-1.254.275zm0-.88c.433 0 .77-.121 1.012-.363s.363-.598.363-1.067v-1.606c0-.47-.12-.825-.363-1.067-.242-.242-.58-.363-1.012-.363-.425 0-.762.121-1.012.363-.242.242-.363.598-.363 1.067v1.606c0 .47.121.825.363 1.067.25.242.587.363 1.012.363zm4.33.792v-6.05h4.532V80h-.99v-5.148h-2.552V80h-.99zm6.277 0v-6.05h.924v2.222h.495c.652 0 1.166.172 1.54.517.381.337.572.803.572 1.397s-.191 1.063-.572 1.408c-.374.337-.888.506-1.54.506h-1.42zm.924-.792h.495c.388 0 .689-.099.902-.297.22-.198.33-.473.33-.825s-.11-.627-.33-.825c-.213-.198-.514-.297-.902-.297h-.495v2.244zm3.322.792v-6.05h.924V80h-.924zm4.44 0v-5.181h-2.2v-.869h5.39v.869h-2.2V80h-.99zm11.398 1.98v-8.03h.99v1.155h.198l-.198.231c0-.462.15-.825.45-1.089.309-.271.712-.407 1.21-.407.61 0 1.093.202 1.453.605.366.396.55.942.55 1.639v1.771c0 .462-.085.862-.253 1.199a1.798 1.798 0 01-.693.781c-.294.183-.646.275-1.056.275-.492 0-.891-.136-1.2-.407-.307-.271-.461-.634-.461-1.089l.198.231h-.22l.022 1.375v1.76h-.99zm2.32-2.728c.419 0 .745-.125.98-.374.242-.25.363-.609.363-1.078v-1.65c0-.47-.121-.829-.363-1.078-.235-.25-.561-.374-.98-.374-.403 0-.725.128-.967.385s-.363.612-.363 1.067v1.65c0 .455.12.81.363 1.067.242.257.564.385.968.385zm6.035.858c-.638 0-1.14-.161-1.507-.484-.366-.33-.55-.774-.55-1.331 0-.565.184-1.008.55-1.331.367-.323.862-.484 1.485-.484h1.87v-.605c0-.374-.113-.66-.341-.858-.22-.205-.535-.308-.946-.308-.359 0-.66.077-.902.231a.825.825 0 00-.418.605h-.99c.066-.52.312-.935.737-1.243.426-.308.957-.462 1.595-.462.697 0 1.247.18 1.65.539.404.36.605.847.605 1.463V80h-.968v-1.155h-.165l.165-.165c0 .44-.172.788-.517 1.045-.337.257-.788.385-1.353.385zm.242-.781c.47 0 .855-.117 1.155-.352.301-.235.451-.535.451-.902v-.858H99.92c-.33 0-.59.092-.78.275-.191.183-.287.433-.287.748 0 .337.114.605.341.803.235.19.558.286.968.286zm6.882.781c-.711 0-1.276-.209-1.694-.627-.411-.425-.616-1.005-.616-1.738v-2.75c0-.968.242-1.712.726-2.233.484-.528 1.177-.792 2.079-.792h1.54v.99h-1.54c-.594 0-1.045.176-1.353.528-.308.345-.462.847-.462 1.507v.715h.154l-.154.22c.007-.433.154-.77.44-1.012.286-.242.675-.363 1.166-.363.638 0 1.133.205 1.485.616.359.41.539.975.539 1.694v.88c0 .491-.092.913-.275 1.265a1.924 1.924 0 01-.792.814c-.345.19-.759.286-1.243.286zm0-.88c.425 0 .752-.128.979-.385.227-.257.341-.623.341-1.1v-.88c0-.477-.114-.843-.341-1.1-.227-.257-.554-.385-.979-.385-.425 0-.752.128-.979.385-.227.25-.341.616-.341 1.1v.88c0 .477.114.843.341 1.1.227.257.554.385.979.385zm6.596.858c-.484 0-.902-.092-1.254-.275a1.996 1.996 0 01-.825-.792c-.191-.352-.286-.766-.286-1.243v-1.606c0-.484.095-.898.286-1.243.198-.345.473-.609.825-.792.352-.183.77-.275 1.254-.275s.902.092 1.254.275c.352.183.623.447.814.792.198.345.297.755.297 1.232v1.617c0 .477-.099.891-.297 1.243a1.929 1.929 0 01-.814.792c-.352.183-.77.275-1.254.275zm0-.88c.433 0 .77-.121 1.012-.363s.363-.598.363-1.067v-1.606c0-.47-.121-.825-.363-1.067s-.579-.363-1.012-.363c-.425 0-.763.121-1.012.363-.242.242-.363.598-.363 1.067v1.606c0 .47.121.825.363 1.067.249.242.587.363 1.012.363zm6.101.792v-5.181h-2.2v-.869h5.39v.869h-2.2V80h-.99zm4.505 0v-6.05h.924v2.222h.495c.653 0 1.166.172 1.54.517.382.337.572.803.572 1.397s-.19 1.063-.572 1.408c-.374.337-.887.506-1.54.506h-1.419zm.924-.792h.495c.389 0 .69-.099.902-.297.22-.198.33-.473.33-.825s-.11-.627-.33-.825c-.212-.198-.513-.297-.902-.297h-.495v2.244zm3.322.792v-6.05h.924V80h-.924zM21.322 95.11c-.484 0-.91-.092-1.276-.275a1.98 1.98 0 01-.836-.792c-.198-.352-.297-.766-.297-1.243v-1.65c0-.484.099-.898.297-1.243a1.98 1.98 0 01.836-.792c.367-.183.792-.275 1.276-.275.697 0 1.258.187 1.683.561.425.374.649.884.671 1.529h-.99c-.022-.389-.154-.686-.396-.891-.235-.213-.557-.319-.968-.319-.433 0-.777.125-1.034.374-.257.242-.385.59-.385 1.045V92.8c0 .455.128.807.385 1.056.257.25.601.374 1.034.374.41 0 .733-.106.968-.319.242-.213.374-.51.396-.891h.99c-.022.645-.246 1.155-.671 1.529-.425.374-.986.561-1.683.561zm10.881 1.87v-8.03h.99v1.155h.198l-.198.231c0-.462.15-.825.451-1.089.308-.271.712-.407 1.21-.407.61 0 1.093.202 1.452.605.367.396.55.942.55 1.639v1.771c0 .462-.084.862-.253 1.199a1.798 1.798 0 01-.693.781c-.293.183-.645.275-1.056.275-.49 0-.89-.136-1.199-.407-.308-.271-.462-.634-.462-1.089l.198.231h-.22l.022 1.375v1.76h-.99zm2.321-2.728c.418 0 .745-.125.98-.374.241-.25.362-.609.362-1.078v-1.65c0-.47-.12-.829-.363-1.078-.234-.25-.56-.374-.979-.374-.403 0-.726.128-.968.385s-.363.612-.363 1.067v1.65c0 .455.121.81.363 1.067.242.257.565.385.968.385zm6.035.858c-.638 0-1.14-.161-1.507-.484-.367-.33-.55-.774-.55-1.331 0-.565.183-1.008.55-1.331.367-.323.862-.484 1.485-.484h1.87v-.605c0-.374-.114-.66-.34-.858-.22-.205-.536-.308-.947-.308-.36 0-.66.077-.902.231-.242.147-.381.348-.418.605h-.99c.066-.52.312-.935.737-1.243.425-.308.957-.462 1.595-.462.697 0 1.247.18 1.65.539.403.36.605.847.605 1.463V95h-.968v-1.155h-.165l.165-.165c0 .44-.172.788-.517 1.045-.337.257-.788.385-1.353.385zm.242-.781c.47 0 .854-.117 1.155-.352.3-.235.451-.535.451-.902v-.858H40.56c-.33 0-.59.092-.78.275-.192.183-.287.433-.287.748 0 .337.114.605.341.803.235.19.557.286.968.286zm6.596.748c-.638 0-1.163-.136-1.573-.407a1.617 1.617 0 01-.726-1.1h1.045c.051.183.187.334.407.451.227.117.51.176.847.176h.517c.36 0 .638-.084.836-.253a.814.814 0 00.308-.66c0-.293-.1-.524-.297-.693-.19-.169-.473-.253-.847-.253h-1.331v-.858h1.298c.337 0 .594-.08.77-.242a.824.824 0 00.264-.638.833.833 0 00-.121-.462.699.699 0 00-.341-.286 1.422 1.422 0 00-.561-.099h-.55a1.41 1.41 0 00-.76.198c-.212.132-.34.293-.384.484h-1.045c.073-.455.312-.829.715-1.122.403-.293.895-.44 1.474-.44h.55c.432 0 .803.07 1.11.209.309.132.543.323.705.572.169.25.253.546.253.891 0 .36-.117.656-.352.891-.235.227-.565.356-.99.385v.044c.52.037.898.176 1.133.418s.352.59.352 1.045c0 .535-.198.96-.594 1.276-.396.315-.928.473-1.595.473h-.517zM52.013 95v-6.05h.99v2.519h2.551V88.95h.99V95h-.99v-2.629h-2.552V95h-.99zm6.276 0v-6.05h.924v2.222h.495c.653 0 1.166.172 1.54.517.382.337.572.803.572 1.397s-.19 1.063-.572 1.408c-.374.337-.887.506-1.54.506H58.29zm.924-.792h.495c.389 0 .69-.099.902-.297.22-.198.33-.473.33-.825s-.11-.627-.33-.825c-.212-.198-.513-.297-.902-.297h-.495v2.244zm3.322.792v-6.05h.924V95h-.924zm2.47 0v-6.05h1.343l.792 2.321c.08.235.154.47.22.704.066.227.114.403.143.528.03-.125.073-.3.132-.528a37.3 37.3 0 01.209-.715l.748-2.31h1.342V95h-.957v-.935c0-.33.004-.69.01-1.078l.023-1.177.044-1.122c.015-.36.026-.675.033-.946l-1.078 3.443h-1.045l-1.09-3.421c.016.33.027.74.034 1.232.015.491.026 1.005.033 1.54a55.8 55.8 0 01.022 1.529V95h-.957zm6.795 0v-6.05h.946v3.3c0 .213-.008.436-.022.671a9.355 9.355 0 01-.044.671 6.95 6.95 0 01-.055.528l2.442-5.17h1.265V95h-.946v-3.3c0-.213.003-.436.01-.671.015-.235.034-.458.056-.671l.055-.539L73.065 95H71.8zm15.457.11c-.711 0-1.276-.209-1.694-.627-.41-.425-.616-1.005-.616-1.738v-2.75c0-.968.242-1.712.726-2.233.484-.528 1.177-.792 2.079-.792h1.54v.99h-1.54c-.594 0-1.045.176-1.353.528-.308.345-.462.847-.462 1.507v.715h.154l-.154.22c.007-.433.154-.77.44-1.012.286-.242.675-.363 1.166-.363.638 0 1.133.205 1.485.616.36.41.539.975.539 1.694v.88c0 .491-.092.913-.275 1.265a1.927 1.927 0 01-.792.814c-.345.19-.759.286-1.243.286zm0-.88c.425 0 .752-.128.979-.385.227-.257.341-.623.341-1.1v-.88c0-.477-.114-.843-.341-1.1-.227-.257-.554-.385-.979-.385-.425 0-.752.128-.979.385-.227.25-.341.616-.341 1.1v.88c0 .477.114.843.341 1.1.227.257.554.385.979.385zm7.542.88c-.506 0-.913-.172-1.221-.517-.308-.345-.462-.796-.462-1.353v-.913h-.968V95h-.913v-6.05h.913v2.585h.968v-.825c0-.565.15-1.016.45-1.353.309-.345.72-.517 1.233-.517.542 0 .979.172 1.309.517.33.337.495.788.495 1.353v2.53c0 .557-.165 1.008-.495 1.353-.33.345-.767.517-1.31.517zm0-.77c.278 0 .495-.095.649-.286.161-.198.242-.47.242-.814v-2.53c0-.345-.08-.612-.242-.803-.154-.198-.37-.297-.65-.297a.763.763 0 00-.637.297c-.154.19-.231.458-.231.803v2.53c0 .345.077.616.23.814.155.19.367.286.639.286zm2.68 2.2v-2.387h.494c.125-.125.253-.37.385-.737.14-.367.213-.832.22-1.397l.066-3.069h3.949v5.203h.77v2.387h-.88V95h-4.125v1.54h-.88zm1.54-2.387h2.584V89.83h-2.024l-.044 2.211c-.007.58-.07 1.049-.187 1.408-.117.36-.227.594-.33.704zm4.923.847l1.32-3.102-1.232-2.948h.957l1.056 2.64h.583v-2.64h.836v2.64h.561l1.089-2.64h.946l-1.232 2.915 1.32 3.135h-.99l-1.1-2.75h-.594V95h-.836v-2.75h-.594L104.921 95h-.979zm9.698.11c-.477 0-.895-.095-1.254-.286a2.07 2.07 0 01-.825-.803c-.191-.352-.286-.759-.286-1.221v-1.65c0-.47.095-.876.286-1.221a2.07 2.07 0 01.825-.803c.359-.19.777-.286 1.254-.286s.891.095 1.243.286c.359.19.634.458.825.803.198.345.297.752.297 1.221v1.067h-3.762v.583c0 .477.121.843.363 1.1.242.25.587.374 1.034.374.381 0 .689-.066.924-.198a.872.872 0 00.429-.616h.99c-.066.506-.315.91-.748 1.21-.425.293-.957.44-1.595.44zm1.397-3.553v-.407c0-.477-.121-.843-.363-1.1-.235-.257-.579-.385-1.034-.385-.447 0-.792.128-1.034.385s-.363.623-.363 1.1v.319h2.871l-.077.088zM119.741 95v-5.181h-2.2v-.869h5.39v.869h-2.2V95h-.99zm6.562.11c-.638 0-1.14-.161-1.507-.484-.366-.33-.55-.774-.55-1.331 0-.565.184-1.008.55-1.331.367-.323.862-.484 1.485-.484h1.87v-.605c0-.374-.113-.66-.341-.858-.22-.205-.535-.308-.946-.308-.359 0-.66.077-.902.231a.823.823 0 00-.418.605h-.99c.066-.52.312-.935.737-1.243.426-.308.957-.462 1.595-.462.697 0 1.247.18 1.65.539.404.36.605.847.605 1.463V95h-.968v-1.155h-.165l.165-.165c0 .44-.172.788-.517 1.045-.337.257-.788.385-1.353.385zm.242-.781c.47 0 .855-.117 1.155-.352.301-.235.451-.535.451-.902v-.858h-1.848c-.33 0-.59.092-.781.275-.19.183-.286.433-.286.748 0 .337.114.605.341.803.235.19.558.286.968.286zm4.418.671v-6.05h1.342l.792 2.321c.081.235.154.47.22.704.066.227.114.403.143.528.029-.125.073-.3.132-.528a39.6 39.6 0 01.209-.715l.748-2.31h1.342V95h-.957v-.935c0-.33.004-.69.011-1.078l.022-1.177c.015-.396.029-.77.044-1.122.015-.36.026-.675.033-.946l-1.078 3.443h-1.045l-1.089-3.421c.015.33.026.74.033 1.232.015.491.026 1.005.033 1.54.015.535.022 1.045.022 1.529V95h-.957zm6.794 0v-6.05h.946v3.3c0 .213-.008.436-.022.671a9.779 9.779 0 01-.044.671 7.162 7.162 0 01-.055.528l2.442-5.17h1.265V95h-.946v-3.3c0-.213.003-.436.011-.671.014-.235.033-.458.055-.671l.055-.539L139.022 95h-1.265zM19.034 110v-6.05h.946v3.3c0 .213-.007.436-.022.671a9.355 9.355 0 01-.044.671 7.036 7.036 0 01-.055.528l2.442-5.17h1.265V110h-.946v-3.3c0-.213.004-.436.011-.671.015-.235.033-.458.055-.671l.055-.539L20.299 110h-1.265zm12.883 0l-.022-6.05h.924v5.302h1.287v-5.302h.792v5.302h1.276v-5.302h.913V110h-5.17zm6.904 0v-6.05h.946v3.3c0 .213-.007.436-.022.671a9.355 9.355 0 01-.044.671 7.036 7.036 0 01-.055.528l2.442-5.17h1.265V110h-.946v-3.3c0-.213.004-.436.011-.671.015-.235.033-.458.055-.671l.055-.539L40.086 110h-1.265zm6.574 1.98v-8.03h.99v1.155h.198l-.198.231c0-.462.15-.825.45-1.089.309-.271.712-.407 1.21-.407.61 0 1.093.202 1.453.605.367.396.55.942.55 1.639v1.771c0 .462-.084.862-.253 1.199a1.798 1.798 0 01-.693.781c-.293.183-.645.275-1.056.275-.492 0-.891-.136-1.2-.407-.307-.271-.461-.634-.461-1.089l.198.231h-.22l.022 1.375v1.76h-.99zm2.32-2.728c.419 0 .745-.125.98-.374.242-.249.363-.609.363-1.078v-1.65c0-.469-.121-.829-.363-1.078-.235-.249-.561-.374-.98-.374-.403 0-.725.128-.967.385s-.363.612-.363 1.067v1.65c0 .455.12.81.363 1.067.242.257.565.385.968.385zm6.563.836c-.483 0-.901-.092-1.253-.275a1.992 1.992 0 01-.825-.792c-.191-.352-.287-.766-.287-1.243v-1.606c0-.484.096-.898.287-1.243a1.98 1.98 0 01.825-.792c.352-.183.77-.275 1.254-.275.483 0 .901.092 1.253.275.353.183.624.447.815.792.197.345.297.755.297 1.232v1.617c0 .477-.1.891-.297 1.243a1.922 1.922 0 01-.815.792c-.351.183-.77.275-1.253.275zm0-.88c.433 0 .77-.121 1.013-.363.242-.242.363-.598.363-1.067v-1.606c0-.469-.122-.825-.364-1.067s-.579-.363-1.011-.363c-.426 0-.763.121-1.013.363-.241.242-.362.598-.362 1.067v1.606c0 .469.12.825.362 1.067.25.242.587.363 1.013.363zm4.363.792v-6.05h.99v2.497h1.034l1.76-2.497h1.133l-2.035 2.882L63.591 110h-1.155l-1.76-2.695h-1.045V110h-.99zm8.829.088c-.484 0-.902-.092-1.254-.275a1.992 1.992 0 01-.825-.792c-.19-.352-.286-.766-.286-1.243v-1.606c0-.484.095-.898.286-1.243.198-.345.473-.609.825-.792.352-.183.77-.275 1.254-.275s.902.092 1.254.275c.352.183.623.447.814.792.198.345.297.755.297 1.232v1.617c0 .477-.1.891-.297 1.243a1.92 1.92 0 01-.814.792c-.352.183-.77.275-1.254.275zm0-.88c.433 0 .77-.121 1.012-.363s.363-.598.363-1.067v-1.606c0-.469-.121-.825-.363-1.067s-.58-.363-1.012-.363c-.425 0-.763.121-1.012.363-.242.242-.363.598-.363 1.067v1.606c0 .469.12.825.363 1.067.25.242.587.363 1.012.363zm4.33.792v-6.05h.946v3.3c0 .213-.008.436-.022.671a9.355 9.355 0 01-.044.671 6.983 6.983 0 01-.055.528l2.442-5.17h1.265V110h-.946v-3.3c0-.213.003-.436.01-.671.015-.235.034-.458.056-.671l.055-.539L73.065 110H71.8zm2.31-7.04c-.528 0-.954-.147-1.276-.44-.323-.293-.484-.678-.484-1.155h.78c0 .286.089.517.265.693.176.176.41.264.704.264.3 0 .539-.088.715-.264.183-.176.275-.407.275-.693h.78c0 .477-.16.862-.483 1.155-.323.293-.748.44-1.276.44zM85.387 110v-6.05h4.345v.902h-3.355V110h-.99zm8.466.11c-.477 0-.895-.095-1.254-.286a2.07 2.07 0 01-.825-.803 2.524 2.524 0 01-.286-1.221v-1.65c0-.469.095-.876.286-1.221a2.07 2.07 0 01.825-.803c.36-.191.777-.286 1.254-.286.476 0 .89.095 1.243.286.36.191.634.458.825.803.198.345.297.752.297 1.221v1.067h-3.762v.583c0 .477.12.843.363 1.1.242.249.586.374 1.034.374.381 0 .69-.066.924-.198a.874.874 0 00.429-.616h.99c-.066.506-.316.909-.748 1.21-.426.293-.957.44-1.595.44zm1.397-3.553v-.407c0-.477-.121-.843-.363-1.1-.235-.257-.58-.385-1.034-.385-.448 0-.792.128-1.034.385s-.363.623-.363 1.1v.319h2.87l-.076.088zm5.198 3.531c-.484 0-.902-.092-1.254-.275a1.992 1.992 0 01-.825-.792c-.19-.352-.286-.766-.286-1.243v-1.606c0-.484.096-.898.286-1.243.198-.345.473-.609.825-.792.352-.183.77-.275 1.254-.275s.902.092 1.254.275c.352.183.624.447.814.792.198.345.297.755.297 1.232v1.617c0 .477-.099.891-.297 1.243a1.92 1.92 0 01-.814.792c-.352.183-.77.275-1.254.275zm0-.88c.433 0 .77-.121 1.012-.363s.363-.598.363-1.067v-1.606c0-.469-.121-.825-.363-1.067s-.579-.363-1.012-.363c-.425 0-.762.121-1.012.363-.242.242-.363.598-.363 1.067v1.606c0 .469.121.825.363 1.067.25.242.587.363 1.012.363zm4.726.792v-6.05h4.345v.902h-3.355V110h-.99zm6.178 1.98v-8.03h.99v1.155h.198l-.198.231c0-.462.15-.825.451-1.089.308-.271.711-.407 1.21-.407.609 0 1.093.202 1.452.605.367.396.55.942.55 1.639v1.771c0 .462-.084.862-.253 1.199a1.795 1.795 0 01-.693.781c-.293.183-.645.275-1.056.275-.491 0-.891-.136-1.199-.407-.308-.271-.462-.634-.462-1.089l.198.231h-.22l.022 1.375v1.76h-.99zm2.321-2.728c.418 0 .744-.125.979-.374.242-.249.363-.609.363-1.078v-1.65c0-.469-.121-.829-.363-1.078-.235-.249-.561-.374-.979-.374-.403 0-.726.128-.968.385s-.363.612-.363 1.067v1.65c0 .455.121.81.363 1.067.242.257.565.385.968.385zm6.035.858c-.638 0-1.141-.161-1.507-.484-.367-.33-.55-.774-.55-1.331 0-.565.183-1.008.55-1.331.366-.323.861-.484 1.485-.484h1.87v-.605c0-.374-.114-.66-.341-.858-.22-.205-.536-.308-.946-.308-.36 0-.66.077-.902.231-.242.147-.382.348-.418.605h-.99c.066-.521.311-.935.737-1.243.425-.308.957-.462 1.595-.462.696 0 1.246.18 1.65.539.403.359.605.847.605 1.463V110h-.968v-1.155h-.165l.165-.165c0 .44-.173.788-.517 1.045-.338.257-.789.385-1.353.385zm.242-.781c.469 0 .854-.117 1.155-.352.3-.235.451-.535.451-.902v-.858h-1.848c-.33 0-.591.092-.781.275-.191.183-.286.433-.286.748 0 .337.113.605.341.803.234.191.557.286.968.286zm6.441 2.651V110c-.704 0-1.257-.198-1.661-.594-.403-.396-.605-.939-.605-1.628v-1.628c0-.682.202-1.217.605-1.606.411-.396.965-.594 1.661-.594v-1.98h.88v1.98c.704 0 1.258.198 1.661.594.404.389.605.924.605 1.606v1.628c0 .689-.201 1.232-.605 1.628-.403.396-.957.594-1.661.594v1.98h-.88zm.022-2.761v-4.488c-.425 0-.759.125-1.001.374-.242.249-.363.598-.363 1.045v1.628c0 .447.121.799.363 1.056s.576.385 1.001.385zm.836 0c.433 0 .767-.128 1.001-.385.242-.257.363-.609.363-1.056v-1.628c0-.447-.121-.796-.363-1.045-.234-.249-.568-.374-1.001-.374v4.488zm3.912.781v-6.05h.946v3.3c0 .213-.007.436-.022.671a9.185 9.185 0 01-.044.671 7.197 7.197 0 01-.055.528l2.442-5.17h1.265V110h-.946v-3.3c0-.213.004-.436.011-.671.015-.235.033-.458.055-.671l.055-.539-2.442 5.181h-1.265zm8.862.11c-.477 0-.895-.095-1.254-.286a2.07 2.07 0 01-.825-.803c-.191-.352-.286-.759-.286-1.221v-1.65c0-.469.095-.876.286-1.221a2.07 2.07 0 01.825-.803c.359-.191.777-.286 1.254-.286.476 0 .891.095 1.243.286.359.191.634.458.825.803.198.345.297.752.297 1.221v1.067h-3.762v.583c0 .477.121.843.363 1.1.242.249.586.374 1.034.374.381 0 .689-.066.924-.198a.878.878 0 00.429-.616h.99c-.066.506-.316.909-.748 1.21-.426.293-.957.44-1.595.44zm1.397-3.553v-.407c0-.477-.121-.843-.363-1.1-.235-.257-.58-.385-1.034-.385-.448 0-.792.128-1.034.385s-.363.623-.363 1.1v.319h2.871l-.077.088zm2.932 3.443v-6.05h.946v3.3c0 .213-.007.436-.022.671a9.185 9.185 0 01-.044.671 6.685 6.685 0 01-.055.528l2.442-5.17h1.265V110h-.946v-3.3c0-.213.004-.436.011-.671.015-.235.033-.458.055-.671l.055-.539-2.442 5.181h-1.265zm2.31-7.04c-.528 0-.953-.147-1.276-.44-.322-.293-.484-.678-.484-1.155h.781c0 .286.088.517.264.693.176.176.411.264.704.264.301 0 .539-.088.715-.264.184-.176.275-.407.275-.693h.781c0 .477-.161.862-.484 1.155-.322.293-.748.44-1.276.44z" fill="#000"/><path d="M19.12 29V18.78h6.3v1.792h-4.242v2.296h3.752v1.792h-3.752v2.548h4.242V29h-6.3zm11.517.14c-.682 0-1.28-.126-1.793-.378a2.902 2.902 0 01-1.19-1.078c-.28-.467-.42-1.008-.42-1.624v-1.82c0-.625.14-1.167.42-1.624a2.81 2.81 0 011.19-1.064c.514-.261 1.111-.392 1.793-.392 1.017 0 1.829.257 2.435.77.607.513.93 1.213.966 2.1h-2.1a1.052 1.052 0 00-.391-.77c-.224-.187-.528-.28-.91-.28-.42 0-.742.107-.966.322-.224.215-.337.527-.337.938v1.82c0 .401.113.714.337.938.224.215.546.322.966.322.382 0 .686-.089.91-.266.233-.187.363-.448.392-.784h2.1c-.038.887-.36 1.587-.967 2.1-.606.513-1.418.77-2.436.77zm7.302-.14v-5.74h-2.52V21.3h7.14v1.96h-2.52V29h-2.1zm6.225 0v-7.7h2.1v2.31h1.806c.97 0 1.726.243 2.268.728.55.476.826 1.139.826 1.988 0 .821-.28 1.475-.84 1.96-.551.476-1.298.714-2.24.714h-3.92zm2.1-1.82h1.68c.354 0 .625-.075.812-.224a.785.785 0 00.294-.644c0-.28-.098-.495-.294-.644-.187-.159-.458-.238-.812-.238h-1.68v1.75zm14.633 4.34V21.3h2.03v1.47h.49l-.49.49c0-.663.182-1.176.546-1.54.364-.373.863-.56 1.498-.56.774 0 1.395.275 1.862.826.466.541.7 1.27.7 2.184v1.96c0 .607-.108 1.139-.322 1.596-.206.448-.5.798-.882 1.05-.383.243-.836.364-1.358.364-.635 0-1.134-.182-1.498-.546-.364-.373-.546-.891-.546-1.554l.49.49h-.49l.07 1.89v2.1h-2.1zm3.318-4.2c.392 0 .69-.107.896-.322.214-.224.322-.537.322-.938v-1.82c0-.41-.108-.723-.322-.938-.206-.215-.504-.322-.896-.322-.383 0-.682.112-.896.336-.215.215-.322.523-.322.924v1.82c0 .401.107.714.322.938.214.215.513.322.896.322zm7.358 1.82c-.774 0-1.39-.21-1.848-.63-.448-.42-.672-.99-.672-1.708 0-.775.266-1.367.798-1.778.541-.42 1.316-.63 2.324-.63h1.596v-.574a.878.878 0 00-.322-.714c-.205-.177-.485-.266-.84-.266-.326 0-.597.075-.812.224a.918.918 0 00-.392.616h-2.03c.084-.775.42-1.386 1.008-1.834.598-.457 1.363-.686 2.296-.686.98 0 1.755.243 2.324.728.579.476.868 1.12.868 1.932V29h-2.03v-1.26h-.336l.35-.49c0 .579-.21 1.04-.63 1.386-.41.336-.961.504-1.652.504zm.784-1.54c.41 0 .747-.107 1.008-.322.27-.224.406-.513.406-.868v-.826h-1.554c-.317 0-.574.093-.77.28-.196.177-.294.415-.294.714 0 .317.107.57.322.756.215.177.509.266.882.266zm8.213 1.498c-.859 0-1.573-.21-2.142-.63-.57-.42-.915-.99-1.036-1.708h2.03c.065.215.2.387.406.518.205.121.452.182.742.182h.798c.308 0 .55-.07.728-.21a.746.746 0 00.266-.602.692.692 0 00-.266-.574c-.178-.14-.42-.21-.728-.21h-1.806v-1.596h1.722c.29 0 .513-.06.672-.182a.653.653 0 00.238-.532.65.65 0 00-.112-.392.625.625 0 00-.308-.238 1.248 1.248 0 00-.49-.084h-.644c-.29 0-.532.065-.728.196a.877.877 0 00-.392.504h-2.03c.121-.719.462-1.288 1.022-1.708.56-.42 1.27-.63 2.128-.63h.644c.616 0 1.148.089 1.596.266.448.168.793.41 1.036.728.242.308.364.677.364 1.106 0 .513-.196.929-.588 1.246-.383.317-.892.476-1.526.476v-.14c.69 0 1.246.177 1.666.532.42.345.63.807.63 1.386 0 .7-.28 1.26-.84 1.68-.56.41-1.312.616-2.254.616h-.798zM86.08 29v-7.7h2.1v2.814h2.352V21.3h2.1V29h-2.1v-2.926H88.18V29h-2.1zm8.03 0v-7.7h1.75v2.45h.42c.831 0 1.494.243 1.989.728.494.485.742 1.134.742 1.946 0 .775-.252 1.4-.756 1.876-.495.467-1.153.7-1.974.7h-2.17zm1.75-1.61h.42c.337 0 .593-.084.77-.252.187-.168.28-.41.28-.728 0-.336-.093-.593-.28-.77-.177-.187-.433-.28-.77-.28h-.42v2.03zM99.64 29v-7.7h1.751V29h-1.75zm3.229 0v-7.7h1.848v3.5c0 .233-.014.527-.042.882-.028.345-.065.695-.112 1.05-.037.355-.079.667-.126.938l2.436-6.37h2.548V29h-1.848v-3.5c0-.243.014-.518.042-.826.028-.317.061-.635.098-.952.038-.317.075-.588.112-.812L105.417 29h-2.548zm3.332-8.89c-.765 0-1.39-.191-1.876-.574-.476-.392-.714-.9-.714-1.526h1.61a.85.85 0 00.266.644c.187.159.425.238.714.238.299 0 .537-.08.714-.238a.846.846 0 00.266-.644h1.61c0 .625-.238 1.134-.714 1.526-.476.383-1.101.574-1.876.574zM22.2 47.14c-.681 0-1.274-.126-1.778-.378a2.922 2.922 0 01-1.176-1.078c-.27-.467-.406-1.008-.406-1.624v-1.82c0-.616.135-1.153.406-1.61.28-.467.672-.826 1.176-1.078.504-.261 1.097-.392 1.778-.392.69 0 1.283.13 1.778.392.504.252.891.611 1.162 1.078.28.457.42.994.42 1.61v1.82c0 .616-.14 1.157-.42 1.624-.27.457-.658.817-1.162 1.078-.495.252-1.087.378-1.778.378zm0-1.82c.41 0 .723-.107.938-.322.215-.224.322-.537.322-.938v-1.82c0-.41-.107-.723-.322-.938-.215-.215-.527-.322-.938-.322-.401 0-.714.107-.938.322-.215.215-.322.527-.322.938v1.82c0 .401.107.714.322.938.224.215.537.322.938.322zM27.319 47v-7.7h6.552V47h-2.1v-5.74h-2.352V47h-2.1zm8.03 0v-7.7h1.75v2.45h.42c.83 0 1.493.243 1.988.728.495.485.742 1.134.742 1.946 0 .775-.252 1.4-.756 1.876-.495.467-1.153.7-1.974.7h-2.17zm1.75-1.61h.42c.336 0 .593-.084.77-.252.187-.168.28-.41.28-.728 0-.336-.093-.593-.28-.77-.177-.187-.434-.28-.77-.28h-.42v2.03zM40.88 47v-7.7h1.75V47h-1.75zm5.455 0v-5.74h-2.52V39.3h7.14v1.96h-2.52V47h-2.1z" fill="#223B38"/><mask id="a" style="mask-type:alpha" maskUnits="userSpaceOnUse" x="8" y="2" width="171" height="135"><rect x="179" y="137" width="171" height="134" rx="8" transform="rotate(-180 179 137)" fill="url(#paint2_linear_64_219)" fill-opacity=".3" shape-rendering="crispEdges"/><rect x="178.5" y="136.5" width="170" height="133" rx="7.5" transform="rotate(-180 178.5 136.5)" stroke="url(#paint3_linear_64_219)" stroke-opacity=".15" shape-rendering="crispEdges"/></mask><g mask="url(#a)"><path opacity=".34" d="M171.5 70V57.672h-29.44V38.444L167.268 2.84h15.64L154.94 42.308v3.404h16.56V31.36h13.8V70h-13.8z" fill="#223B38" fill-opacity=".55"/></g><defs><linearGradient id="paint0_linear_64_219" x1="189.966" y1="146.308" x2="351.208" y2="193.006" gradientUnits="userSpaceOnUse"><stop offset=".201" stop-color="#223B38"/><stop offset="1" stop-color="#BED3D0"/></linearGradient><linearGradient id="paint1_linear_64_219" x1="186.819" y1="149.744" x2="360.053" y2="195.182" gradientUnits="userSpaceOnUse"><stop stop-color="#FEFBF3" stop-opacity=".77"/><stop offset="1" stop-color="#666" stop-opacity="0"/></linearGradient><linearGradient id="paint2_linear_64_219" x1="188.966" y1="147.307" x2="350.208" y2="194.005" gradientUnits="userSpaceOnUse"><stop offset=".201" stop-color="#223B38"/><stop offset="1" stop-color="#BED3D0"/></linearGradient><linearGradient id="paint3_linear_64_219" x1="185.819" y1="150.743" x2="359.053" y2="196.182" gradientUnits="userSpaceOnUse"><stop stop-color="#FEFBF3" stop-opacity=".77"/><stop offset="1" stop-color="#666" stop-opacity="0"/></linearGradient><filter id="filter0_bd_64_219" x=".7" y="-1.9" width="187.6" height="153.2" filterUnits="userSpaceOnUse" color-interpolation-filters="sRGB"><feFlood flood-opacity="0" result="BackgroundImageFix"/><feGaussianBlur in="BackgroundImageFix" stdDeviation="1.95"/><feComposite in2="SourceAlpha" operator="in" result="effect1_backgroundBlur_64_219"/><feColorMatrix in="SourceAlpha" values="0 0 0 0 0 0 0 0 0 0 0 0 0 0 0 0 0 0 127 0" result="hardAlpha"/><feOffset dy="7"/><feGaussianBlur stdDeviation="4.15"/><feComposite in2="hardAlpha" operator="out"/><feColorMatrix values="0 0 0 0 0 0 0 0 0 0 0 0 0 0 0 0 0 0 0.25 0"/><feBlend in2="effect1_backgroundBlur_64_219" result="effect2_dropShadow_64_219"/><feBlend in="SourceGraphic" in2="effect2_dropShadow_64_219" result="shape"/></filter></defs></svg>