<svg width="151" height="151" fill="none" xmlns="http://www.w3.org/2000/svg"><rect width="151" height="151" rx="11" fill="#7AA9E0"/><g opacity=".3"><mask id="a" style="mask-type:alpha" maskUnits="userSpaceOnUse" x="0" y="0" width="151" height="151"><rect width="151" height="151" rx="11" fill="#5982B1"/></mask><g mask="url(#a)" stroke="#fff"><path d="M180.34 39.367l-83 77m-44-154l-83 77m206 19l-83 77m-44-154l-83 77m226 3l-83 77m-44-154l-83 77m203 25l-83 77m90-67l-83 77"/></g></g><path d="M16.3 41.11c-.499 0-.931-.092-1.298-.275a2.032 2.032 0 01-.836-.814c-.19-.36-.286-.777-.286-1.254v-3.564c0-.484.095-.902.286-1.254.198-.352.477-.62.836-.803.367-.19.8-.286 1.298-.286.499 0 .928.095 1.287.286.367.183.645.451.836.803.198.352.297.766.297 1.243v3.575c0 .477-.099.895-.297 1.254a1.95 1.95 0 01-.836.814c-.36.183-.788.275-1.287.275zm0-1.056c.403 0 .708-.11.913-.33.213-.227.319-.546.319-.957v-3.564c0-.418-.106-.737-.319-.957-.205-.22-.51-.33-.913-.33-.396 0-.7.11-.913.33-.213.22-.319.539-.319.957v3.564c0 .41.106.73.319.957.213.22.517.33.913.33zm5.928.946v-4.983h-2.134V34.95h5.456v1.067h-2.134V41h-1.188zm7.15.11c-.5 0-.94-.092-1.32-.275a2.072 2.072 0 01-.87-.814c-.198-.36-.297-.777-.297-1.254v-1.584c0-.484.1-.902.297-1.254.206-.352.495-.62.87-.803.38-.19.82-.286 1.32-.286.725 0 1.308.19 1.748.572.44.381.671.902.693 1.562h-1.188c-.022-.345-.143-.612-.363-.803-.22-.19-.517-.286-.89-.286-.404 0-.723.114-.958.341-.234.22-.352.535-.352.946v1.595c0 .41.118.73.352.957.235.227.554.341.957.341.374 0 .671-.095.891-.286.22-.19.341-.458.363-.803h1.188c-.022.66-.253 1.18-.693 1.562-.44.381-1.023.572-1.749.572zm5.08 1.87l.87-2.332-2.256-5.698h1.31l1.265 3.41c.05.147.102.323.154.528.05.205.095.374.131.506.03-.132.07-.3.121-.506.052-.205.103-.381.155-.528l1.188-3.41h1.264l-2.947 8.03h-1.255zM41.796 41v-4.983H39.66V34.95h5.456v1.067h-2.134V41h-1.188zm7.149.11c-.499 0-.939-.092-1.32-.275a2.071 2.071 0 01-.87-.814c-.197-.36-.296-.777-.296-1.254v-1.584c0-.484.099-.902.297-1.254.205-.352.495-.62.869-.803.381-.19.821-.286 1.32-.286.726 0 1.309.19 1.749.572.44.381.67.902.693 1.562h-1.188c-.022-.345-.143-.612-.363-.803-.22-.19-.517-.286-.891-.286-.404 0-.723.114-.957.341-.235.22-.352.535-.352.946v1.595c0 .41.117.73.352.957.234.227.553.341.957.341.374 0 .67-.095.89-.286.22-.19.342-.458.364-.803h1.188c-.022.66-.253 1.18-.693 1.562-.44.381-1.023.572-1.75.572zM54.84 41v-4.983h-2.134V34.95h5.456v1.067h-2.134V41H54.84zm4.751 0v-6.05h2.662c.66 0 1.177.143 1.551.429.374.286.561.682.561 1.188 0 .418-.15.752-.45 1.001-.302.25-.697.374-1.189.374v-.099c.535 0 .965.132 1.287.396.33.257.495.601.495 1.034 0 .543-.194.968-.583 1.276-.389.3-.924.451-1.606.451H59.59zm1.166-.957h1.54c.323 0 .576-.073.76-.22a.721.721 0 00.285-.605c0-.264-.095-.47-.286-.616-.183-.154-.436-.231-.759-.231h-1.54v1.672zm0-2.552h1.496c.293 0 .524-.07.693-.209.169-.14.253-.334.253-.583a.702.702 0 00-.253-.572c-.169-.147-.4-.22-.693-.22h-1.496v1.584zM66.123 41v-6.05h1.09v3.135c0 .205-.008.433-.023.682a21.87 21.87 0 01-.12 1.309l2.276-5.126h1.485V41h-1.089v-3.135c0-.205.008-.425.022-.66.015-.242.033-.477.055-.704.022-.227.044-.414.066-.561L67.608 41h-1.485zm8.877.11c-.492 0-.924-.095-1.298-.286a2.086 2.086 0 01-.847-.825c-.198-.352-.297-.763-.297-1.232v-1.584c0-.477.099-.887.297-1.232.198-.352.48-.623.847-.814.374-.198.806-.297 1.298-.297.498 0 .93.099 1.298.297.366.19.649.462.847.814.198.345.297.755.297 1.232v1.078h-3.74v.506c0 .447.11.788.33 1.023.227.235.553.352.979.352.344 0 .623-.059.836-.176a.801.801 0 00.396-.539h1.177a1.833 1.833 0 01-.792 1.232c-.44.3-.983.451-1.628.451zm1.298-3.564v-.374c0-.44-.11-.781-.33-1.023-.22-.242-.543-.363-.968-.363-.418 0-.741.121-.968.363-.22.242-.33.587-.33 1.034v.275l2.684-.011-.088.099zM16.333 61.11c-.499 0-.939-.092-1.32-.275a2.071 2.071 0 01-.869-.814c-.198-.36-.297-.777-.297-1.254v-1.584c0-.484.099-.902.297-1.254.205-.352.495-.62.869-.803.381-.19.821-.286 1.32-.286.726 0 1.309.19 1.749.572.44.381.671.902.693 1.562h-1.188c-.022-.345-.143-.612-.363-.803-.22-.19-.517-.286-.891-.286-.403 0-.722.114-.957.341-.235.22-.352.535-.352.946v1.595c0 .41.117.73.352.957.235.227.554.341.957.341.374 0 .671-.095.891-.286.22-.19.341-.458.363-.803h1.188c-.022.66-.253 1.18-.693 1.562-.44.381-1.023.572-1.749.572zm5.895-.11v-4.983h-2.134V54.95h5.456v1.067h-2.134V61h-1.188zm4.74 1.98v-8.03h1.177v1.155h.253l-.253.275c0-.477.147-.85.44-1.122.301-.279.7-.418 1.2-.418.608 0 1.092.205 1.451.616.367.403.55.957.55 1.661v1.705c0 .47-.084.876-.253 1.221a1.87 1.87 0 01-.693.792c-.293.183-.645.275-1.056.275-.491 0-.887-.136-1.188-.407-.3-.279-.45-.656-.45-1.133l.252.275h-.275l.033 1.408v1.727h-1.188zm2.41-2.904c.388 0 .689-.11.901-.33.22-.227.33-.554.33-.979v-1.584c0-.425-.11-.748-.33-.968-.212-.227-.513-.341-.902-.341-.374 0-.67.117-.89.352-.22.227-.33.546-.33.957v1.584c0 .41.11.733.33.968.22.227.516.341.89.341zm5.08 2.904l.87-2.332-2.256-5.698h1.31l1.265 3.41c.05.147.102.323.154.528.05.205.095.374.131.506.03-.132.07-.3.121-.506.052-.205.103-.381.155-.528l1.188-3.41h1.264l-2.947 8.03h-1.255zm5.61-1.98v-6.05h1.188v2.431h.968l1.606-2.431h1.342l-1.925 2.904L45.205 61H43.84l-1.617-2.596h-.968V61h-1.188zm8.249 0v-4.983h-2.134V54.95h5.456v1.067h-2.134V61h-1.188zm5.708 1.98l.869-2.332-2.255-5.698h1.309l1.265 3.41c.051.147.103.323.154.528.051.205.095.374.132.506.03-.132.07-.3.121-.506.051-.205.103-.381.154-.528l1.188-3.41h1.265l-2.948 8.03h-1.254zm5.554 0v-8.03h1.177v1.155h.253l-.253.275c0-.477.147-.85.44-1.122.3-.279.7-.418 1.2-.418.608 0 1.092.205 1.451.616.367.403.55.957.55 1.661v1.705c0 .47-.084.876-.253 1.221a1.87 1.87 0 01-.693.792c-.293.183-.645.275-1.056.275-.491 0-.887-.136-1.188-.407-.3-.279-.45-.656-.45-1.133l.252.275h-.275l.033 1.408v1.727H59.58zm2.41-2.904c.388 0 .689-.11.901-.33.22-.227.33-.554.33-.979v-1.584c0-.425-.11-.748-.33-.968-.212-.227-.513-.341-.902-.341-.374 0-.67.117-.89.352-.22.227-.33.546-.33.957v1.584c0 .41.11.733.33.968.22.227.516.341.89.341zm4.134.924v-6.05h1.09v3.135c0 .205-.008.433-.023.682a21.87 21.87 0 01-.12 1.309l2.276-5.126h1.485V61h-1.089v-3.135c0-.205.008-.425.022-.66.015-.242.033-.477.055-.704.022-.227.044-.414.066-.561L67.608 61h-1.485zm6.5 1.98v-8.03h1.178v1.155h.253l-.253.275c0-.477.146-.85.44-1.122.3-.279.7-.418 1.199-.418.608 0 1.092.205 1.452.616.366.403.55.957.55 1.661v1.705c0 .47-.085.876-.253 1.221a1.871 1.871 0 01-.693.792c-.294.183-.646.275-1.056.275-.492 0-.888-.136-1.188-.407-.301-.279-.451-.656-.451-1.133l.253.275h-.275l.033 1.408v1.727h-1.188zm2.41-2.904c.388 0 .689-.11.902-.33.22-.227.33-.554.33-.979v-1.584c0-.425-.11-.748-.33-.968-.213-.227-.514-.341-.902-.341-.374 0-.671.117-.891.352-.22.227-.33.546-.33.957v1.584c0 .41.11.733.33.968.22.227.517.341.89.341zm6.489 1.023c-.499 0-.932-.095-1.298-.286a2.017 2.017 0 01-.847-.814c-.198-.352-.297-.766-.297-1.243v-1.562c0-.484.099-.898.297-1.243.198-.352.48-.623.847-.814.366-.19.8-.286 1.298-.286s.931.095 1.298.286c.366.19.649.462.847.814.198.345.297.759.297 1.243v1.562c0 .477-.1.891-.297 1.243-.198.352-.48.623-.847.814-.367.19-.8.286-1.298.286zm0-1.045c.403 0 .715-.11.935-.33.22-.227.33-.55.33-.968v-1.562c0-.425-.11-.748-.33-.968-.22-.22-.532-.33-.935-.33-.396 0-.708.11-.935.33-.22.22-.33.543-.33.968v1.562c0 .418.11.74.33.968.227.22.539.33.935.33zm4.157.946v-6.05h2.662c.66 0 1.177.143 1.55.429.375.286.562.682.562 1.188 0 .418-.15.752-.451 1.001-.3.25-.697.374-1.188.374v-.099c.535 0 .964.132 1.287.396.33.257.495.601.495 1.034 0 .543-.194.968-.583 1.276-.389.3-.924.451-1.606.451h-2.728zm1.166-.957h1.54c.323 0 .576-.073.759-.22a.721.721 0 00.286-.605c0-.264-.095-.47-.286-.616-.183-.154-.436-.231-.76-.231h-1.54v1.672zm0-2.552h1.496c.293 0 .524-.07.693-.209.169-.14.253-.334.253-.583a.702.702 0 00-.253-.572c-.169-.147-.4-.22-.693-.22h-1.496v1.584zm7.116 3.619c-.63 0-1.13-.161-1.496-.484-.36-.33-.539-.777-.539-1.342 0-.572.19-1.02.572-1.342.389-.33.92-.495 1.595-.495h1.683v-.561c0-.33-.103-.587-.308-.77-.205-.183-.495-.275-.869-.275-.33 0-.605.073-.825.22a.79.79 0 00-.385.561h-1.166a1.83 1.83 0 01.748-1.298c.44-.323.994-.484 1.661-.484.719 0 1.287.183 1.705.55.418.36.627.85.627 1.474V61H95.81v-1.111h-.198l.198-.22c0 .44-.169.792-.506 1.056-.337.257-.785.385-1.342.385zm.352-.913c.425 0 .774-.106 1.045-.319.279-.22.418-.499.418-.836v-.792h-1.66c-.309 0-.555.084-.738.253-.176.169-.264.4-.264.693 0 .308.106.554.32.737.212.176.505.264.88.264zm4.421.803v-6.05h1.188v2.431h2.332V54.95h1.188V61h-1.188v-2.53h-2.332V61h-1.188zm6.522 0v-6.05h1.188v2.431h2.332V54.95h1.188V61h-1.188v-2.53h-2.332V61h-1.188zm8.877.099c-.499 0-.932-.095-1.298-.286a2.015 2.015 0 01-.847-.814c-.198-.352-.297-.766-.297-1.243v-1.562c0-.484.099-.898.297-1.243.198-.352.48-.623.847-.814.366-.19.799-.286 1.298-.286.498 0 .931.095 1.298.286.366.19.649.462.847.814.198.345.297.759.297 1.243v1.562c0 .477-.099.891-.297 1.243a2.02 2.02 0 01-.847.814c-.367.19-.8.286-1.298.286zm0-1.045c.403 0 .715-.11.935-.33.22-.227.33-.55.33-.968v-1.562c0-.425-.11-.748-.33-.968-.22-.22-.532-.33-.935-.33-.396 0-.708.11-.935.33-.22.22-.33.543-.33.968v1.562c0 .418.11.74.33.968.227.22.539.33.935.33zm4.168.946v-6.05h1.089v3.135c0 .205-.008.433-.022.682a18.302 18.302 0 01-.121 1.309l2.277-5.126h1.485V61h-1.089v-3.135c0-.205.007-.425.022-.66a18.222 18.222 0 01.121-1.265L119.786 61h-1.485zm2.398-7.029c-.55 0-.994-.147-1.331-.44-.338-.293-.506-.682-.506-1.166h.924c0 .264.08.477.242.638.168.161.388.242.66.242.286 0 .509-.08.671-.242a.845.845 0 00.253-.638h.924c0 .484-.169.873-.506 1.166-.338.293-.781.44-1.331.44zM16.333 81.11c-.499 0-.939-.092-1.32-.275a2.071 2.071 0 01-.869-.814c-.198-.36-.297-.777-.297-1.254v-1.584c0-.484.099-.902.297-1.254.205-.352.495-.62.869-.803.381-.19.821-.286 1.32-.286.726 0 1.309.19 1.749.572.44.381.671.902.693 1.562h-1.188c-.022-.345-.143-.612-.363-.803-.22-.19-.517-.286-.891-.286-.403 0-.722.114-.957.341-.235.22-.352.535-.352.946v1.595c0 .41.117.73.352.957.235.227.554.341.957.341.374 0 .671-.095.891-.286.22-.19.341-.458.363-.803h1.188c-.022.66-.253 1.18-.693 1.562-.44.381-1.023.572-1.749.572zm4.135-.11v-6.05h1.09v3.135c0 .205-.008.433-.023.682a21.87 21.87 0 01-.12 1.309l2.276-5.126h1.485V81h-1.089v-3.135c0-.205.008-.425.022-.66a19.5 19.5 0 01.055-.704c.022-.227.044-.414.066-.561L21.953 81h-1.485zm8.91.11c-.5 0-.94-.092-1.32-.275a2.072 2.072 0 01-.87-.814c-.198-.36-.297-.777-.297-1.254v-1.584c0-.484.1-.902.297-1.254.206-.352.495-.62.87-.803.38-.19.82-.286 1.32-.286.725 0 1.308.19 1.748.572.44.381.671.902.693 1.562h-1.188c-.022-.345-.143-.612-.363-.803-.22-.19-.517-.286-.89-.286-.404 0-.723.114-.958.341-.234.22-.352.535-.352.946v1.595c0 .41.118.73.352.957.235.227.554.341.957.341.374 0 .671-.095.891-.286.22-.19.341-.458.363-.803h1.188c-.022.66-.253 1.18-.693 1.562-.44.381-1.023.572-1.749.572zm5.895-.11v-4.983h-2.135V74.95h5.456v1.067h-2.133V81h-1.188zm7.116.11c-.492 0-.924-.095-1.298-.286a2.086 2.086 0 01-.847-.825c-.198-.352-.297-.763-.297-1.232v-1.584c0-.477.099-.887.297-1.232.198-.352.48-.623.847-.814.374-.198.806-.297 1.298-.297.498 0 .931.099 1.298.297.366.19.649.462.847.814.198.345.297.755.297 1.232v1.078h-3.74v.506c0 .447.11.788.33 1.023.227.235.553.352.979.352.344 0 .623-.059.836-.176a.8.8 0 00.396-.539h1.177a1.833 1.833 0 01-.792 1.232c-.44.3-.983.451-1.628.451zm1.298-3.564v-.374c0-.44-.11-.781-.33-1.023-.22-.242-.543-.363-.968-.363-.418 0-.741.121-.968.363-.22.242-.33.587-.33 1.034v.275l2.684-.011-.088.099zM46.337 81v-6.05h1.496l.77 2.299a11.33 11.33 0 01.329 1.21 15.715 15.715 0 01.32-1.21l.737-2.299h1.496V81h-1.122v-.979c0-.308.004-.642.01-1.001.016-.367.027-.737.034-1.111l.044-1.067c.014-.345.03-.649.044-.913l-1.001 3.289H48.35l-1.023-3.267c.022.323.04.719.055 1.188.022.47.04.957.055 1.463.015.499.022.972.022 1.419V81h-1.122zm6.434 0v-6.05h1.056v2.134h.44c.653 0 1.17.176 1.551.528.381.352.572.832.572 1.441 0 .601-.19 1.078-.572 1.43-.381.345-.898.517-1.551.517h-1.496zm1.056-.935h.44c.352 0 .623-.088.814-.264.198-.176.297-.425.297-.748 0-.33-.099-.583-.297-.759-.19-.183-.462-.275-.814-.275h-.44v2.046zm3.212.935v-6.05h1.056V81h-1.056zm10.03 1.98l.87-2.332-2.256-5.698h1.31l1.264 3.41c.052.147.103.323.154.528.052.205.096.374.132.506.03-.132.07-.3.121-.506.052-.205.103-.381.154-.528l1.188-3.41h1.265l-2.948 8.03H67.07zM72.646 81v-6.05h4.708V81h-1.188v-4.961h-2.332V81h-1.188zm6.5 1.98v-8.03h1.177v1.155h.253l-.253.275c0-.477.146-.85.44-1.122.3-.279.7-.418 1.199-.418.608 0 1.092.205 1.452.616.366.403.55.957.55 1.661v1.705c0 .47-.085.876-.253 1.221a1.87 1.87 0 01-.693.792c-.294.183-.646.275-1.056.275-.492 0-.888-.136-1.188-.407-.3-.279-.451-.656-.451-1.133l.253.275H80.3l.033 1.408v1.727h-1.188zm2.409-2.904c.388 0 .69-.11.902-.33.22-.227.33-.554.33-.979v-1.584c0-.425-.11-.748-.33-.968-.213-.227-.514-.341-.902-.341-.374 0-.671.117-.891.352-.22.227-.33.546-.33.957v1.584c0 .41.11.733.33.968.22.227.517.341.89.341zm5.884 1.034c-.63 0-1.13-.161-1.496-.484-.36-.33-.54-.777-.54-1.342 0-.572.192-1.02.573-1.342.389-.33.92-.495 1.595-.495h1.683v-.561c0-.33-.103-.587-.308-.77-.205-.183-.495-.275-.87-.275-.33 0-.604.073-.824.22a.79.79 0 00-.385.561H85.7a1.83 1.83 0 01.748-1.298c.44-.323.994-.484 1.66-.484.72 0 1.288.183 1.706.55.418.36.627.85.627 1.474V81h-1.155v-1.111h-.198l.198-.22c0 .44-.169.792-.506 1.056-.337.257-.785.385-1.342.385zm.352-.913c.425 0 .774-.106 1.045-.319.279-.22.418-.499.418-.836v-.792h-1.661c-.308 0-.554.084-.737.253-.176.169-.264.4-.264.693 0 .308.106.554.319.737.213.176.506.264.88.264zM92.2 81v-6.05h2.662c.66 0 1.177.143 1.551.429.374.286.561.682.561 1.188 0 .418-.15.752-.45 1.001-.302.25-.698.374-1.189.374v-.099c.535 0 .964.132 1.287.396.33.257.495.601.495 1.034 0 .543-.194.968-.583 1.276-.389.3-.924.451-1.606.451H92.2zm1.166-.957h1.54c.323 0 .576-.073.76-.22a.721.721 0 00.285-.605c0-.264-.095-.47-.286-.616-.183-.154-.436-.231-.759-.231h-1.54v1.672zm0-2.552h1.496c.293 0 .524-.07.693-.209.169-.14.253-.334.253-.583a.702.702 0 00-.253-.572c-.169-.147-.4-.22-.693-.22h-1.496v1.584zm4.685 3.586v-1.089h.231c.294 0 .506-.117.638-.352.14-.235.213-.63.22-1.188l.066-3.498h4.235V81h-1.188v-4.961h-1.881l-.055 2.475c-.014.58-.095 1.06-.242 1.441-.14.381-.352.664-.638.847-.286.183-.645.275-1.078.275h-.308zm9.558.033c-.491 0-.924-.095-1.298-.286a2.09 2.09 0 01-.847-.825c-.198-.352-.297-.763-.297-1.232v-1.584c0-.477.099-.887.297-1.232a2.02 2.02 0 01.847-.814c.374-.198.807-.297 1.298-.297.499 0 .932.099 1.298.297.367.19.649.462.847.814.198.345.297.755.297 1.232v1.078h-3.74v.506c0 .447.11.788.33 1.023.228.235.554.352.979.352.345 0 .624-.059.836-.176a.799.799 0 00.396-.539h1.177a1.833 1.833 0 01-.792 1.232c-.44.3-.982.451-1.628.451zm1.298-3.564v-.374c0-.44-.11-.781-.33-1.023-.22-.242-.542-.363-.968-.363-.418 0-.74.121-.968.363-.22.242-.33.587-.33 1.034v.275l2.684-.011-.088.099zM111.779 81v-6.05h1.188v2.431h2.332V74.95h1.188V81h-1.188v-2.53h-2.332V81h-1.188zm6.522 0v-6.05h1.089v3.135c0 .205-.008.433-.022.682a18.302 18.302 0 01-.121 1.309l2.277-5.126h1.485V81h-1.089v-3.135c0-.205.007-.425.022-.66a18.222 18.222 0 01.121-1.265L119.786 81h-1.485zm6.203 0l1.485-2.266c-.44-.125-.785-.345-1.034-.66-.242-.315-.363-.7-.363-1.155 0-.616.205-1.096.616-1.441.411-.352.972-.528 1.683-.528h2.64V81h-1.177v-2.156h-1.155L125.868 81h-1.364zm2.42-3.146h1.43v-1.892h-1.43c-.352 0-.631.084-.836.253-.198.161-.297.392-.297.693 0 .3.099.535.297.704.205.161.484.242.836.242zM13.979 101v-6.05h1.188v2.431h.968l1.606-2.431h1.342l-1.925 2.904L19.116 101h-1.364l-1.617-2.596h-.968V101h-1.188zm5.807.077v-1.089h.231c.294 0 .506-.117.638-.352.14-.235.213-.63.22-1.188l.066-3.498h4.235V101h-1.188v-4.961h-1.88l-.056 2.475c-.014.58-.095 1.06-.242 1.441-.14.381-.352.664-.638.847-.286.183-.645.275-1.078.275h-.308zM26.99 101v-6.05h1.09v3.135c0 .205-.008.433-.023.682a21.595 21.595 0 01-.12 1.309l2.276-5.126h1.485V101H30.61v-3.135c0-.205.008-.425.022-.66.015-.242.033-.477.055-.704.022-.227.044-.414.066-.561L28.475 101H26.99zm8.877.11c-.492 0-.924-.095-1.298-.286a2.087 2.087 0 01-.848-.825c-.197-.352-.296-.763-.296-1.232v-1.584c0-.477.099-.887.297-1.232.197-.352.48-.623.846-.814.375-.198.807-.297 1.299-.297.498 0 .93.099 1.297.297.367.19.65.462.847.814.198.345.297.755.297 1.232v1.078h-3.74v.506c0 .447.11.788.33 1.023.228.235.554.352.98.352.344 0 .623-.059.836-.176a.8.8 0 00.395-.539h1.177a1.833 1.833 0 01-.791 1.232c-.44.301-.983.451-1.628.451zm1.297-3.564v-.374c0-.44-.11-.781-.33-1.023-.22-.242-.542-.363-.968-.363-.417 0-.74.121-.968.363-.22.242-.33.587-.33 1.034v.275l2.684-.011-.088.099zm2.87 3.454v-6.05h1.189v2.431h2.332V94.95h1.188V101h-1.188v-2.53h-2.332V101h-1.188zm8.283 0v-4.983h-2.134V94.95h5.456v1.067h-2.134V101h-1.188zm6.511.11c-.63 0-1.13-.161-1.496-.484-.36-.33-.539-.777-.539-1.342 0-.572.19-1.02.572-1.342.389-.33.92-.495 1.595-.495h1.683v-.561c0-.33-.103-.587-.308-.77-.205-.183-.495-.275-.869-.275-.33 0-.605.073-.825.22a.79.79 0 00-.385.561H53.09a1.83 1.83 0 01.748-1.298c.44-.323.994-.484 1.661-.484.719 0 1.287.183 1.705.55.418.36.627.85.627 1.474V101h-1.155v-1.111h-.198l.198-.22c0 .44-.169.792-.506 1.056-.337.257-.785.385-1.342.385zm.352-.913c.425 0 .774-.106 1.045-.319.279-.22.418-.499.418-.836v-.792h-1.661c-.308 0-.554.084-.737.253-.176.169-.264.4-.264.693 0 .308.106.554.319.737.213.176.506.264.88.264zm4.201.803v-6.05h1.496l.77 2.299c.08.242.15.477.21.704.058.22.098.389.12.506.03-.117.07-.286.121-.506.059-.227.125-.462.198-.704l.737-2.299h1.496V101h-1.122v-.979c0-.308.004-.642.011-1.001.015-.367.026-.737.033-1.111l.044-1.067c.015-.345.03-.649.044-.913l-1 3.289h-1.145l-1.023-3.267c.022.323.04.719.055 1.188.022.47.04.957.055 1.463.015.499.022.972.022 1.419V101h-1.122zm6.742 0v-6.05h1.09v3.135c0 .205-.008.433-.023.682a21.87 21.87 0 01-.12 1.309l2.276-5.126h1.485V101h-1.089v-3.135c0-.205.008-.425.022-.66.015-.242.033-.477.055-.704.022-.227.044-.414.066-.561L67.608 101h-1.485zm13.045 0v-6.05h1.089v3.135c0 .205-.008.433-.022.682a21.595 21.595 0 01-.121 1.309l2.277-5.126h1.485V101h-1.09v-3.135c0-.205.008-.425.023-.66a18.175 18.175 0 01.121-1.265L80.653 101h-1.485zm-63.165 20.077c-.645 0-1.177-.143-1.595-.429a1.772 1.772 0 01-.759-1.177h1.21c.051.176.18.323.385.44.205.11.458.165.759.165h.55c.33 0 .587-.077.77-.231a.753.753 0 00.275-.605.763.763 0 00-.275-.616c-.176-.154-.433-.231-.77-.231H15.2v-.968h1.309c.308 0 .543-.07.704-.209a.75.75 0 00.242-.583.719.719 0 00-.11-.407.615.615 0 00-.308-.264 1.329 1.329 0 00-.517-.088h-.539a1.29 1.29 0 00-.704.187c-.19.117-.308.268-.352.451h-1.21c.08-.484.326-.876.737-1.177.418-.308.928-.462 1.529-.462h.539c.447 0 .832.07 1.155.209.323.132.568.323.737.572.176.249.264.543.264.88 0 .374-.128.682-.385.924-.257.235-.609.359-1.056.374.528.029.924.172 1.188.429.264.249.396.601.396 1.056 0 .535-.205.964-.616 1.287-.41.315-.96.473-1.65.473h-.55zm6.214.033c-.63 0-1.13-.161-1.496-.484-.36-.33-.539-.777-.539-1.342 0-.572.19-1.019.572-1.342.389-.33.92-.495 1.595-.495h1.683v-.561c0-.33-.102-.587-.308-.77-.205-.183-.495-.275-.869-.275-.33 0-.605.073-.825.22a.789.789 0 00-.385.561H20.48a1.83 1.83 0 01.748-1.298c.44-.323.994-.484 1.661-.484.719 0 1.287.183 1.705.55.418.359.627.851.627 1.474V121h-1.155v-1.111h-.198l.198-.22c0 .44-.169.792-.506 1.056-.337.257-.785.385-1.342.385zm.352-.913c.425 0 .774-.106 1.045-.319.279-.22.418-.499.418-.836v-.792h-1.66c-.309 0-.555.084-.738.253-.176.169-.264.4-.264.693 0 .308.107.554.32.737.212.176.505.264.88.264zm4.421.803v-6.05h4.708V121H30.51v-4.961h-2.332V121H26.99zm6.523 0v-6.05h1.089v3.135c0 .205-.008.433-.022.682a21.657 21.657 0 01-.121 1.309l2.276-5.126h1.486V121h-1.09v-3.135c0-.205.008-.425.023-.66.014-.242.032-.477.054-.704.023-.227.044-.414.067-.561L34.998 121h-1.485zm8.909.11c-.499 0-.939-.092-1.32-.275a2.073 2.073 0 01-.87-.814c-.197-.359-.296-.777-.296-1.254v-1.584c0-.484.099-.902.297-1.254a2 2 0 01.869-.803c.381-.191.821-.286 1.32-.286.726 0 1.309.191 1.749.572.44.381.67.902.693 1.562h-1.188c-.022-.345-.143-.612-.363-.803-.22-.191-.517-.286-.891-.286-.404 0-.723.114-.957.341-.235.22-.352.535-.352.946v1.595c0 .411.117.73.352.957.234.227.553.341.957.341.374 0 .67-.095.89-.286.22-.191.342-.458.364-.803h1.188c-.022.66-.253 1.181-.693 1.562-.44.381-1.023.572-1.75.572zm3.816-.11l1.485-2.266c-.44-.125-.785-.345-1.034-.66-.242-.315-.363-.7-.363-1.155 0-.616.205-1.096.616-1.441.41-.352.971-.528 1.683-.528h2.64V121h-1.177v-2.156h-1.155L47.602 121h-1.364zm2.42-3.146h1.43v-1.892h-1.43c-.352 0-.63.084-.836.253-.198.161-.297.392-.297.693 0 .301.099.535.297.704.205.161.484.242.836.242zM52.859 121v-6.05h1.496l.77 2.299c.08.242.15.477.209.704a7.5 7.5 0 01.121.506c.03-.117.07-.286.121-.506.059-.227.125-.462.198-.704l.737-2.299h1.496V121h-1.122v-.979c0-.308.004-.642.011-1.001.015-.367.026-.737.033-1.111l.044-1.067c.015-.345.03-.649.044-.913l-1.001 3.289h-1.144l-1.023-3.267c.022.323.04.719.055 1.188.022.469.04.957.055 1.463.015.499.022.972.022 1.419V121h-1.122zm6.742 0v-6.05h1.09v3.135c0 .205-.008.433-.023.682a21.934 21.934 0 01-.12 1.309l2.276-5.126h1.485V121H63.22v-3.135c0-.205.008-.425.022-.66.015-.242.033-.477.055-.704.022-.227.044-.414.066-.561L61.086 121h-1.485zm13.045 0v-6.05h1.188v2.431h2.332v-2.431h1.188V121h-1.188v-2.53h-2.332V121h-1.188zm8.27.11c-.63 0-1.129-.161-1.495-.484-.36-.33-.54-.777-.54-1.342 0-.572.191-1.019.573-1.342.388-.33.92-.495 1.595-.495h1.683v-.561c0-.33-.103-.587-.308-.77-.206-.183-.495-.275-.87-.275-.33 0-.604.073-.824.22a.79.79 0 00-.385.561h-1.166a1.83 1.83 0 01.748-1.298c.44-.323.993-.484 1.66-.484.72 0 1.288.183 1.706.55.418.359.627.851.627 1.474V121h-1.155v-1.111h-.198l.198-.22c0 .44-.169.792-.506 1.056-.338.257-.785.385-1.342.385zm.353-.913c.425 0 .773-.106 1.045-.319.278-.22.418-.499.418-.836v-.792H81.07c-.308 0-.554.084-.737.253-.176.169-.264.4-.264.693 0 .308.106.554.319.737.212.176.506.264.88.264zm11.89 2.783l.868-2.332-2.255-5.698h1.31l1.264 3.41c.051.147.103.323.154.528.051.205.095.374.132.506.03-.132.07-.301.121-.506a6.14 6.14 0 01.154-.528l1.188-3.41h1.265l-2.948 8.03h-1.254zm7.962-1.87c-.498 0-.938-.092-1.32-.275a2.073 2.073 0 01-.869-.814c-.198-.359-.297-.777-.297-1.254v-1.584c0-.484.1-.902.297-1.254a2 2 0 01.87-.803c.381-.191.821-.286 1.319-.286.726 0 1.309.191 1.749.572.44.381.671.902.693 1.562h-1.188c-.022-.345-.143-.612-.363-.803-.22-.191-.517-.286-.891-.286-.403 0-.722.114-.957.341-.234.22-.352.535-.352.946v1.595c0 .411.118.73.352.957.235.227.554.341.957.341.374 0 .671-.095.891-.286.22-.191.341-.458.363-.803h1.188c-.022.66-.253 1.181-.693 1.562-.44.381-1.023.572-1.749.572zm3.453-.033v-1.089h.231c.294 0 .506-.117.638-.352.14-.235.213-.631.22-1.188l.066-3.498h4.235V121h-1.188v-4.961h-1.881l-.055 2.475c-.014.579-.095 1.06-.242 1.441-.139.381-.352.664-.638.847-.286.183-.645.275-1.078.275h-.308zm8.151 1.903l.869-2.332-2.255-5.698h1.309l1.265 3.41c.051.147.102.323.154.528.051.205.095.374.132.506.029-.132.069-.301.121-.506.051-.205.102-.381.154-.528l1.188-3.41h1.265l-2.948 8.03h-1.254zm6.016-1.98v-6.05h4.422v1.089h-3.245V121h-1.177zm6.082 0v-6.05h1.089v3.135c0 .205-.007.433-.022.682a18.493 18.493 0 01-.121 1.309l2.277-5.126h1.485V121h-1.089v-3.135c0-.205.007-.425.022-.66.015-.242.033-.477.055-.704.022-.227.044-.414.066-.561l-2.277 5.06h-1.485z" fill="#000"/></svg>