<svg width="151" height="151" fill="none" xmlns="http://www.w3.org/2000/svg"><rect width="151" height="151" rx="11" fill="#7AA9E0"/><g opacity=".2"><mask id="a" style="mask-type:alpha" maskUnits="userSpaceOnUse" x="0" y="0" width="151" height="151"><rect width="151" height="151" rx="11" fill="#5982B1"/></mask><g mask="url(#a)"><path fill="#fff" d="M-18-28h94v94h-94z"/><path stroke="#fff" d="M-10.5-19.5h93v93h-93z"/><path d="M135.729 44.271a5.333 5.333 0 107.542-7.541 5.333 5.333 0 00-7.542 7.541zM96.5 113.5l.293.956.371-.114.198-.334-.862-.508zm-62 19l-.293-.956-.313.096-.196.263.802.597zm62.862-18.492l43-73-1.724-1.016-43 73 1.724 1.016zm-100.06 70.089l38-51-1.604-1.194-38 51 1.604 1.194zm37.491-50.641l62-19-.586-1.912-62 19 .586 1.912zm97.936-40.185a5.333 5.333 0 107.542-7.541 5.333 5.333 0 00-7.542 7.541zM93.5 162.5l.293.956.371-.114.198-.334-.862-.508zm-62 19l-.293-.956-.313.096-.196.263.802.597zm62.862-18.492l43-73-1.724-1.015-43 72.999 1.724 1.016zm-100.06 70.089l38-51-1.604-1.194-38 51 1.604 1.194zm37.491-50.641l62-19-.586-1.912-62 19 .586 1.912z" fill="#fff"/></g></g><path d="M19.3 39.11c-.499 0-.931-.092-1.298-.275a2.032 2.032 0 01-.836-.814c-.19-.36-.286-.777-.286-1.254v-3.564c0-.484.095-.902.286-1.254.198-.352.477-.62.836-.803.367-.19.8-.286 1.298-.286.499 0 .928.095 1.287.286.367.183.645.451.836.803.198.352.297.766.297 1.243v3.575c0 .477-.099.895-.297 1.254a1.95 1.95 0 01-.836.814c-.36.183-.788.275-1.287.275zm0-1.056c.403 0 .708-.11.913-.33.213-.227.319-.546.319-.957v-3.564c0-.418-.106-.737-.319-.957-.205-.22-.51-.33-.913-.33-.396 0-.7.11-.913.33-.213.22-.319.539-.319.957v3.564c0 .41.106.73.319.957.213.22.517.33.913.33zm5.928.946v-4.983h-2.134V32.95h5.456v1.067h-2.134V39h-1.188zm7.15.11c-.5 0-.94-.092-1.32-.275a2.072 2.072 0 01-.87-.814c-.198-.36-.297-.777-.297-1.254v-1.584c0-.484.1-.902.297-1.254.206-.352.495-.62.87-.803.38-.19.82-.286 1.32-.286.725 0 1.308.19 1.748.572.44.381.671.902.693 1.562h-1.188c-.022-.345-.143-.612-.363-.803-.22-.19-.517-.286-.89-.286-.404 0-.723.114-.958.341-.234.22-.352.535-.352.946v1.595c0 .41.118.73.352.957.235.227.554.341.957.341.374 0 .671-.095.891-.286.22-.19.341-.458.363-.803h1.188c-.022.66-.253 1.18-.693 1.562-.44.381-1.023.572-1.749.572zm5.08 1.87l.87-2.332-2.256-5.698h1.31l1.265 3.41c.05.147.102.323.154.528.05.205.095.374.131.506.03-.132.07-.3.121-.506.052-.205.103-.381.155-.528l1.188-3.41h1.264l-2.947 8.03h-1.255zM44.796 39v-4.983H42.66V32.95h5.456v1.067h-2.134V39h-1.188zm7.149.11c-.499 0-.939-.092-1.32-.275a2.071 2.071 0 01-.87-.814c-.197-.36-.296-.777-.296-1.254v-1.584c0-.484.099-.902.297-1.254.205-.352.495-.62.869-.803.381-.19.821-.286 1.32-.286.726 0 1.309.19 1.749.572.44.381.67.902.693 1.562h-1.188c-.022-.345-.143-.612-.363-.803-.22-.19-.517-.286-.891-.286-.404 0-.723.114-.957.341-.235.22-.352.535-.352.946v1.595c0 .41.117.73.352.957.234.227.553.341.957.341.374 0 .67-.095.89-.286.22-.19.342-.458.364-.803h1.188c-.022.66-.253 1.18-.693 1.562-.44.381-1.023.572-1.75.572zM57.84 39v-4.983h-2.134V32.95h5.456v1.067h-2.134V39H57.84zm4.751 0v-6.05h2.662c.66 0 1.177.143 1.551.429.374.286.561.682.561 1.188 0 .418-.15.752-.45 1.001-.302.25-.698.374-1.189.374v-.099c.535 0 .965.132 1.287.396.33.257.495.601.495 1.034 0 .543-.194.968-.583 1.276-.389.3-.924.451-1.606.451H62.59zm1.166-.957h1.54c.323 0 .576-.073.76-.22a.721.721 0 00.285-.605c0-.264-.095-.47-.286-.616-.183-.154-.436-.231-.759-.231h-1.54v1.672zm0-2.552h1.496c.294 0 .525-.07.693-.209.169-.14.253-.334.253-.583a.702.702 0 00-.253-.572c-.168-.147-.4-.22-.693-.22h-1.496v1.584zM69.123 39v-6.05h1.09v3.135c0 .205-.008.433-.023.682a21.87 21.87 0 01-.12 1.309l2.276-5.126h1.485V39h-1.089v-3.135c0-.205.008-.425.022-.66.015-.242.033-.477.055-.704.022-.227.044-.414.066-.561L70.608 39h-1.485zm8.877.11c-.492 0-.924-.095-1.298-.286a2.086 2.086 0 01-.847-.825c-.198-.352-.297-.763-.297-1.232v-1.584c0-.477.099-.887.297-1.232.198-.352.48-.623.847-.814.374-.198.806-.297 1.298-.297.498 0 .93.099 1.298.297.366.19.649.462.847.814.198.345.297.755.297 1.232v1.078h-3.74v.506c0 .447.11.788.33 1.023.227.235.553.352.979.352.344 0 .623-.059.836-.176a.801.801 0 00.396-.539h1.177a1.833 1.833 0 01-.792 1.232c-.44.3-.983.451-1.628.451zm1.298-3.564v-.374c0-.44-.11-.781-.33-1.023-.22-.242-.543-.363-.968-.363-.418 0-.741.121-.968.363-.22.242-.33.587-.33 1.034v.275l2.684-.011-.088.099zM19.256 59.11c-.726 0-1.309-.19-1.749-.572-.433-.381-.66-.902-.682-1.562h1.188c.022.345.14.612.352.803.22.19.517.286.891.286.403 0 .715-.114.935-.341.22-.227.33-.546.33-.957v-.341h-2.024v-.99h2.024v-.264c0-.41-.11-.726-.33-.946-.22-.227-.532-.341-.935-.341-.367 0-.66.095-.88.286-.22.19-.341.458-.363.803h-1.188c.022-.66.25-1.18.682-1.562.44-.381 1.023-.572 1.749-.572.506 0 .942.095 1.309.286.367.183.649.451.847.803.198.352.297.77.297 1.254v1.584c0 .477-.099.895-.297 1.254-.198.352-.48.623-.847.814-.367.183-.803.275-1.309.275zm6.06 1.87V59c-.704 0-1.258-.198-1.66-.594-.404-.403-.606-.95-.606-1.639v-1.595c0-.69.202-1.232.605-1.628.41-.396.964-.594 1.661-.594v-1.98h1.012v1.98c.704 0 1.258.198 1.661.594.403.396.605.939.605 1.628v1.595c0 .69-.202 1.236-.605 1.639-.403.396-.957.594-1.66.594v1.98h-1.013zm.033-2.915v-4.18c-.381 0-.682.114-.902.341-.22.22-.33.535-.33.946v1.595c0 .403.11.722.33.957.22.227.52.341.902.341zm.946 0c.389 0 .69-.114.902-.341.22-.235.33-.554.33-.957v-1.595c0-.41-.11-.726-.33-.946-.212-.227-.513-.341-.902-.341v4.18zm5.543 2.915V59c-.704 0-1.257-.198-1.66-.594-.404-.403-.606-.95-.606-1.639v-1.595c0-.69.202-1.232.605-1.628.411-.396.965-.594 1.661-.594v-1.98h1.012v1.98c.704 0 1.258.198 1.661.594.404.396.605.939.605 1.628v1.595c0 .69-.201 1.236-.605 1.639-.403.396-.957.594-1.66.594v1.98h-1.013zm.033-2.915v-4.18c-.381 0-.682.114-.902.341-.22.22-.33.535-.33.946v1.595c0 .403.11.722.33.957.22.227.521.341.902.341zm.946 0c.389 0 .69-.114.902-.341.22-.235.33-.554.33-.957v-1.595c0-.41-.11-.726-.33-.946-.212-.227-.513-.341-.902-.341v4.18zm6.05 1.045c-.492 0-.924-.095-1.298-.286a2.087 2.087 0 01-.848-.825c-.197-.352-.296-.763-.296-1.232v-1.584c0-.477.099-.887.297-1.232.197-.352.48-.623.846-.814.375-.198.807-.297 1.299-.297.498 0 .93.099 1.297.297.367.19.65.462.847.814.198.345.297.755.297 1.232v1.078h-3.74v.506c0 .447.11.788.33 1.023.228.235.554.352.98.352.344 0 .623-.059.836-.176a.8.8 0 00.395-.539h1.177a1.833 1.833 0 01-.791 1.232c-.44.3-.983.451-1.628.451zm1.297-3.564v-.374c0-.44-.11-.781-.33-1.023-.22-.242-.542-.363-.968-.363-.417 0-.74.121-.968.363-.22.242-.33.587-.33 1.034v.275l2.684-.011-.088.099zM43.069 59v-6.05h1.188v2.431h.968l1.606-2.431h1.342l-1.925 2.904L48.205 59H46.84l-1.617-2.596h-.968V59h-1.188zm8.249 0v-4.983h-2.134V52.95h5.456v1.067h-2.134V59h-1.188zm4.762 0v-6.05h1.089v3.135c0 .205-.007.433-.022.682a21.595 21.595 0 01-.121 1.309l2.277-5.126h1.485V59h-1.089v-3.135c0-.205.007-.425.022-.66.015-.242.033-.477.055-.704.022-.227.044-.414.066-.561L57.564 59h-1.485zm6.511 0v-6.05h2.662c.66 0 1.177.143 1.551.429.374.286.561.682.561 1.188 0 .418-.15.752-.45 1.001-.302.25-.698.374-1.189.374v-.099c.535 0 .965.132 1.287.396.33.257.495.601.495 1.034 0 .543-.194.968-.583 1.276-.389.3-.924.451-1.606.451H62.59zm1.166-.957h1.54c.323 0 .576-.073.76-.22a.721.721 0 00.285-.605c0-.264-.095-.47-.286-.616-.183-.154-.436-.231-.759-.231h-1.54v1.672zm0-2.552h1.496c.294 0 .525-.07.693-.209.169-.14.253-.334.253-.583a.702.702 0 00-.253-.572c-.168-.147-.4-.22-.693-.22h-1.496v1.584zM69.123 59v-6.05h1.188v2.431h2.332V52.95h1.188V59h-1.188v-2.53h-2.332V59h-1.188zm8.877.099c-.5 0-.932-.095-1.298-.286a2.016 2.016 0 01-.847-.814c-.198-.352-.297-.766-.297-1.243v-1.562c0-.484.099-.898.297-1.243.198-.352.48-.623.847-.814.366-.19.799-.286 1.298-.286.498 0 .93.095 1.298.286.366.19.649.462.847.814.198.345.297.759.297 1.243v1.562c0 .477-.1.891-.297 1.243-.198.352-.48.623-.847.814-.367.19-.8.286-1.298.286zm0-1.045c.403 0 .715-.11.935-.33.22-.227.33-.55.33-.968v-1.562c0-.425-.11-.748-.33-.968-.22-.22-.532-.33-.935-.33-.396 0-.708.11-.935.33-.22.22-.33.543-.33.968v1.562c0 .418.11.74.33.968.227.22.539.33.935.33zm4.168.946v-6.05h1.089v3.135c0 .205-.008.433-.022.682a21.595 21.595 0 01-.121 1.309l2.277-5.126h1.485V59h-1.09v-3.135c0-.205.008-.425.023-.66a18.175 18.175 0 01.121-1.265L83.653 59h-1.485zm2.398-7.029c-.55 0-.994-.147-1.331-.44-.338-.293-.506-.682-.506-1.166h.924c0 .264.08.477.242.638.168.161.388.242.66.242.286 0 .51-.08.67-.242.17-.161.254-.374.254-.638h.924c0 .484-.169.873-.506 1.166-.338.293-.781.44-1.331.44zM16.726 79v-6.05h1.496l.77 2.299a11.33 11.33 0 01.33 1.21c.03-.117.07-.286.121-.506.059-.227.125-.462.198-.704l.737-2.299h1.496V79h-1.122v-.979c0-.308.004-.642.011-1.001.015-.367.026-.737.033-1.111l.044-1.067c.015-.345.03-.649.044-.913l-1.001 3.289h-1.144l-1.023-3.267c.022.323.04.719.055 1.188.022.47.04.957.055 1.463.015.499.022.972.022 1.419V79h-1.122zm8.491.11c-.63 0-1.13-.161-1.496-.484-.36-.33-.539-.777-.539-1.342 0-.572.19-1.02.572-1.342.389-.33.92-.495 1.595-.495h1.683v-.561c0-.33-.102-.587-.308-.77-.205-.183-.495-.275-.869-.275-.33 0-.605.073-.825.22a.79.79 0 00-.385.561H23.48a1.83 1.83 0 01.748-1.298c.44-.323.994-.484 1.661-.484.719 0 1.287.183 1.705.55.418.36.627.85.627 1.474V79h-1.155v-1.111h-.198l.198-.22c0 .44-.169.792-.506 1.056-.337.257-.785.385-1.342.385zm.352-.913c.425 0 .774-.106 1.045-.319.279-.22.418-.499.418-.836v-.792h-1.66c-.309 0-.555.084-.738.253-.176.169-.264.4-.264.693 0 .308.107.554.32.737.212.176.505.264.88.264zm4.4 2.783v-8.03h1.176v1.155h.253l-.253.275c0-.477.147-.85.44-1.122.301-.279.7-.418 1.2-.418.608 0 1.092.205 1.451.616.367.403.55.957.55 1.661v1.705c0 .47-.084.876-.253 1.221a1.87 1.87 0 01-.693.792c-.293.183-.645.275-1.056.275-.491 0-.887-.136-1.188-.407-.3-.279-.45-.656-.45-1.133l.252.275h-.275l.033 1.408v1.727h-1.188zm2.408-2.904c.389 0 .69-.11.902-.33.22-.227.33-.554.33-.979v-1.584c0-.425-.11-.748-.33-.968-.212-.227-.513-.341-.902-.341-.374 0-.67.117-.89.352-.22.227-.33.546-.33.957v1.584c0 .41.11.733.33.968.22.227.516.341.89.341zm4.168.924v-6.05h1.188v2.431h.969l1.605-2.431h1.343l-1.925 2.904L41.681 79h-1.364l-1.616-2.596h-.968V79h-1.189zm8.844.11c-.492 0-.924-.095-1.298-.286a2.086 2.086 0 01-.847-.825c-.198-.352-.297-.763-.297-1.232v-1.584c0-.477.099-.887.297-1.232.198-.352.48-.623.847-.814.374-.198.806-.297 1.298-.297.498 0 .931.099 1.298.297.366.19.649.462.847.814.198.345.297.755.297 1.232v1.078h-3.74v.506c0 .447.11.788.33 1.023.227.235.553.352.979.352.344 0 .623-.059.836-.176a.8.8 0 00.396-.539h1.177a1.833 1.833 0 01-.792 1.232c-.44.3-.983.451-1.628.451zm1.298-3.564v-.374c0-.44-.11-.781-.33-1.023-.22-.242-.543-.363-.968-.363-.418 0-.741.121-.968.363-.22.242-.33.587-.33 1.034v.275l2.684-.011-.088.099zM51.317 79v-4.983h-2.134V72.95h5.456v1.067h-2.134V79h-1.188zm4.762 0v-6.05h1.089v3.135c0 .205-.007.433-.022.682a21.595 21.595 0 01-.121 1.309l2.277-5.126h1.485V79h-1.089v-3.135c0-.205.007-.425.022-.66.015-.242.033-.477.055-.704.022-.227.044-.414.066-.561L57.564 79h-1.485zm6.522 0v-6.05h1.188v2.431h2.332V72.95h1.188V79h-1.188v-2.53H63.79V79h-1.188zm6.962 0v-6.05h4.422v1.089H70.74V79h-1.177zm8.437.099c-.5 0-.932-.095-1.298-.286a2.016 2.016 0 01-.847-.814c-.198-.352-.297-.766-.297-1.243v-1.562c0-.484.099-.898.297-1.243.198-.352.48-.623.847-.814.366-.19.799-.286 1.298-.286.498 0 .93.095 1.298.286.366.19.649.462.847.814.198.345.297.759.297 1.243v1.562c0 .477-.1.891-.297 1.243-.198.352-.48.623-.847.814-.367.19-.8.286-1.298.286zm0-1.045c.403 0 .715-.11.935-.33.22-.227.33-.55.33-.968v-1.562c0-.425-.11-.748-.33-.968-.22-.22-.532-.33-.935-.33-.396 0-.708.11-.935.33-.22.22-.33.543-.33.968v1.562c0 .418.11.74.33.968.227.22.539.33.935.33zm4.157.946v-6.05h2.662c.66 0 1.177.143 1.55.429.375.286.562.682.562 1.188 0 .418-.15.752-.451 1.001-.3.25-.697.374-1.188.374v-.099c.535 0 .964.132 1.287.396.33.257.495.601.495 1.034 0 .543-.195.968-.583 1.276-.389.3-.924.451-1.606.451h-2.728zm1.166-.957h1.54c.322 0 .575-.073.759-.22a.721.721 0 00.286-.605c0-.264-.096-.47-.286-.616-.184-.154-.437-.231-.76-.231h-1.54v1.672zm0-2.552h1.496c.293 0 .524-.07.693-.209.168-.14.253-.334.253-.583a.702.702 0 00-.253-.572c-.169-.147-.4-.22-.693-.22h-1.496v1.584zm7.72 3.608c-.498 0-.93-.095-1.297-.286a2.016 2.016 0 01-.847-.814c-.198-.352-.297-.766-.297-1.243v-1.562c0-.484.099-.898.297-1.243.198-.352.48-.623.847-.814.367-.19.8-.286 1.298-.286.499 0 .931.095 1.298.286.367.19.649.462.847.814.198.345.297.759.297 1.243v1.562c0 .477-.1.891-.297 1.243-.198.352-.48.623-.847.814-.367.19-.8.286-1.298.286zm0-1.045c.404 0 .716-.11.936-.33.22-.227.33-.55.33-.968v-1.562c0-.425-.11-.748-.33-.968-.22-.22-.532-.33-.935-.33-.396 0-.708.11-.935.33-.22.22-.33.543-.33.968v1.562c0 .418.11.74.33.968.227.22.539.33.935.33zm4.17.946v-6.05H96.3v3.135c0 .205-.007.433-.022.682a21.87 21.87 0 01-.12 1.309l2.276-5.126h1.485V79H98.83v-3.135c0-.205.007-.425.022-.66a19.5 19.5 0 01.055-.704c.022-.227.044-.414.066-.561L96.697 79h-1.485zm2.397-7.029c-.55 0-.994-.147-1.33-.44-.338-.293-.507-.682-.507-1.166h.924c0 .264.08.477.242.638.169.161.389.242.66.242.286 0 .51-.08.671-.242.169-.161.253-.374.253-.638h.924c0 .484-.169.873-.506 1.166-.337.293-.78.44-1.33.44zM19.333 99.11c-.499 0-.939-.092-1.32-.275a2.071 2.071 0 01-.869-.814c-.198-.36-.297-.777-.297-1.254v-1.584c0-.484.099-.902.297-1.254.205-.352.495-.62.869-.803.381-.19.821-.286 1.32-.286.726 0 1.309.19 1.749.572.44.381.671.902.693 1.562h-1.188c-.022-.345-.143-.612-.363-.803-.22-.19-.517-.286-.891-.286-.403 0-.722.114-.957.341-.235.22-.352.535-.352.946v1.595c0 .41.117.73.352.957.235.227.554.341.957.341.374 0 .671-.095.891-.286.22-.19.341-.458.363-.803h1.188c-.022.66-.253 1.18-.693 1.562-.44.381-1.023.572-1.749.572zm5.895-.11v-4.983h-2.134V92.95h5.456v1.067h-2.134V99h-1.188zm4.74 1.98v-8.03h1.177v1.155h.253l-.253.275c0-.477.147-.85.44-1.122.301-.279.7-.418 1.2-.418.608 0 1.092.205 1.451.616.367.403.55.957.55 1.661v1.705c0 .47-.084.876-.253 1.221a1.87 1.87 0 01-.693.792c-.293.183-.645.275-1.056.275-.491 0-.887-.136-1.188-.407-.3-.279-.45-.656-.45-1.133l.252.275h-.275l.033 1.408v1.727h-1.188zm2.41-2.904c.388 0 .689-.11.901-.33.22-.227.33-.554.33-.979v-1.584c0-.425-.11-.748-.33-.968-.212-.227-.513-.341-.902-.341-.374 0-.67.117-.89.352-.22.227-.33.546-.33.957v1.584c0 .41.11.733.33.968.22.227.516.341.89.341zm5.883 1.034c-.63 0-1.129-.161-1.495-.484-.36-.33-.54-.777-.54-1.342 0-.572.191-1.02.572-1.342.39-.33.92-.495 1.596-.495h1.683v-.561c0-.33-.103-.587-.308-.77-.206-.183-.495-.275-.87-.275-.33 0-.605.073-.825.22a.79.79 0 00-.384.561h-1.166a1.83 1.83 0 01.748-1.298c.44-.323.993-.484 1.66-.484.72 0 1.287.183 1.706.55.418.36.627.85.627 1.474V99h-1.156v-1.111h-.198l.198-.22c0 .44-.168.792-.506 1.056-.337.257-.784.385-1.342.385zm.352-.913c.426 0 .774-.106 1.045-.319.28-.22.419-.499.419-.836v-.792h-1.661c-.308 0-.554.084-.737.253-.177.169-.265.4-.265.693 0 .308.107.554.32.737.212.176.505.264.88.264zm6.182.803v-4.983H42.66V92.95h5.456v1.067h-2.134V99h-1.188zm7.116.11c-.492 0-.924-.095-1.298-.286a2.086 2.086 0 01-.847-.825c-.198-.352-.297-.763-.297-1.232v-1.584c0-.477.099-.887.297-1.232.198-.352.48-.623.847-.814.374-.198.806-.297 1.298-.297.498 0 .931.099 1.298.297.366.19.649.462.847.814.198.345.297.755.297 1.232v1.078h-3.74v.506c0 .447.11.788.33 1.023.227.235.553.352.979.352.345 0 .623-.059.836-.176a.801.801 0 00.396-.539h1.177a1.833 1.833 0 01-.792 1.232c-.44.3-.983.451-1.628.451zm1.298-3.564v-.374c0-.44-.11-.781-.33-1.023-.22-.242-.543-.363-.968-.363-.418 0-.74.121-.968.363-.22.242-.33.587-.33 1.034v.275l2.684-.011-.088.099zM56.519 99v-6.05h4.422v1.089h-3.245V99h-1.177zm6.082 0v-6.05h1.09v3.135c0 .205-.008.433-.023.682a21.87 21.87 0 01-.12 1.309l2.276-5.126h1.485V99H66.22v-3.135c0-.205.008-.425.022-.66.015-.242.033-.477.055-.704.022-.227.044-.414.066-.561L64.086 99h-1.485zm6.522 0v-6.05h1.09v3.135c0 .205-.008.433-.023.682a21.87 21.87 0 01-.12 1.309l2.276-5.126h1.485V99h-1.089v-3.135c0-.205.008-.425.022-.66.015-.242.033-.477.055-.704.022-.227.044-.414.066-.561L70.608 99h-1.485zm13.045 0v-6.05h1.089v3.135c0 .205-.008.433-.022.682a21.595 21.595 0 01-.121 1.309l2.277-5.126h1.485V99h-1.09v-3.135c0-.205.008-.425.023-.66a18.175 18.175 0 01.121-1.265L83.653 99h-1.485zm15.431.11c-.499 0-.939-.092-1.32-.275a2.071 2.071 0 01-.869-.814c-.198-.36-.297-.777-.297-1.254v-1.584c0-.484.1-.902.297-1.254.205-.352.495-.62.87-.803.38-.19.82-.286 1.32-.286.725 0 1.308.19 1.748.572.44.381.671.902.693 1.562h-1.188c-.022-.345-.143-.612-.363-.803-.22-.19-.517-.286-.89-.286-.404 0-.723.114-.958.341-.235.22-.352.535-.352.946v1.595c0 .41.117.73.352.957.235.227.554.341.957.341.374 0 .671-.095.891-.286.22-.19.341-.458.363-.803h1.188c-.022.66-.253 1.18-.693 1.562-.44.381-1.023.572-1.749.572zm3.453-.033v-1.089h.231c.294 0 .506-.117.638-.352.14-.235.213-.63.22-1.188l.066-3.498h4.235V99h-1.188v-4.961h-1.881l-.055 2.475c-.014.58-.095 1.06-.242 1.441-.139.381-.352.664-.638.847-.286.183-.645.275-1.078.275h-.308zm8.953.033c-.63 0-1.129-.161-1.496-.484-.359-.33-.539-.777-.539-1.342 0-.572.191-1.02.572-1.342.389-.33.921-.495 1.595-.495h1.683v-.561c0-.33-.102-.587-.308-.77-.205-.183-.495-.275-.869-.275-.33 0-.605.073-.825.22a.791.791 0 00-.385.561h-1.166c.066-.543.316-.975.748-1.298.44-.323.994-.484 1.661-.484.719 0 1.287.183 1.705.55.418.36.627.85.627 1.474V99h-1.155v-1.111h-.198l.198-.22c0 .44-.168.792-.506 1.056-.337.257-.784.385-1.342.385zm.352-.913c.426 0 .774-.106 1.045-.319a1.02 1.02 0 00.418-.836v-.792h-1.661c-.308 0-.553.084-.737.253-.176.169-.264.4-.264.693 0 .308.107.554.319.737.213.176.506.264.88.264zm6.776.913c-.741-.007-1.328-.22-1.76-.638-.433-.425-.649-1.005-.649-1.738v-2.739c0-.968.249-1.712.748-2.233.506-.528 1.224-.792 2.156-.792h1.617v1.166h-1.617c-.565 0-.994.161-1.287.484-.286.315-.429.774-.429 1.375v.726h.154l-.143.209c0-.425.139-.759.418-1.001.286-.25.678-.374 1.177-.374.638 0 1.133.209 1.485.627.359.41.539.979.539 1.705v.847c0 .491-.099.917-.297 1.276a1.967 1.967 0 01-.825.814c-.36.19-.789.286-1.287.286zm0-1.045c.396 0 .696-.114.902-.341.212-.235.319-.565.319-.99v-.847c0-.433-.107-.763-.319-.99-.206-.235-.506-.352-.902-.352s-.701.114-.913.341c-.206.227-.308.561-.308 1.001v.847c0 .425.102.755.308.99.212.227.517.341.913.341zm6.522 1.034c-.499 0-.932-.095-1.298-.286a2.015 2.015 0 01-.847-.814c-.198-.352-.297-.766-.297-1.243v-1.562c0-.484.099-.898.297-1.243.198-.352.48-.623.847-.814.366-.19.799-.286 1.298-.286.498 0 .931.095 1.298.286.366.19.649.462.847.814.198.345.297.759.297 1.243v1.562c0 .477-.099.891-.297 1.243a2.02 2.02 0 01-.847.814c-.367.19-.8.286-1.298.286zm0-1.045c.403 0 .715-.11.935-.33.22-.227.33-.55.33-.968v-1.562c0-.425-.11-.748-.33-.968-.22-.22-.532-.33-.935-.33-.396 0-.708.11-.935.33-.22.22-.33.543-.33.968v1.562c0 .418.11.74.33.968.227.22.539.33.935.33zm6.522 1.056c-.491 0-.924-.095-1.298-.286a2.084 2.084 0 01-.847-.825c-.198-.352-.297-.763-.297-1.232v-1.584c0-.477.099-.887.297-1.232.198-.352.48-.623.847-.814.374-.198.807-.297 1.298-.297.499 0 .931.099 1.298.297.367.19.649.462.847.814.198.345.297.755.297 1.232v1.078h-3.74v.506c0 .447.11.788.33 1.023.227.235.554.352.979.352.345 0 .623-.059.836-.176a.799.799 0 00.396-.539h1.177a1.833 1.833 0 01-.792 1.232c-.44.3-.983.451-1.628.451zm1.298-3.564v-.374c0-.44-.11-.781-.33-1.023-.22-.242-.543-.363-.968-.363-.418 0-.741.121-.968.363-.22.242-.33.587-.33 1.034v.275l2.684-.011-.088.099zM19.3 119.099c-.499 0-.931-.095-1.298-.286a2.018 2.018 0 01-.847-.814c-.198-.352-.297-.766-.297-1.243v-1.562c0-.484.099-.898.297-1.243.198-.352.48-.623.847-.814.367-.191.8-.286 1.298-.286.499 0 .931.095 1.298.286.367.191.649.462.847.814.198.345.297.759.297 1.243v1.562c0 .477-.099.891-.297 1.243-.198.352-.48.623-.847.814-.367.191-.8.286-1.298.286zm0-1.045c.403 0 .715-.11.935-.33.22-.227.33-.55.33-.968v-1.562c0-.425-.11-.748-.33-.968-.22-.22-.532-.33-.935-.33-.396 0-.708.11-.935.33-.22.22-.33.543-.33.968v1.562c0 .418.11.741.33.968.227.22.539.33.935.33zm4.168.946v-6.05h1.188v2.431h2.332v-2.431h1.188V119h-1.188v-2.53h-2.332V119h-1.188zm5.84.077v-1.089h.231c.294 0 .506-.117.638-.352.14-.235.213-.631.22-1.188l.066-3.498h4.235V119H33.51v-4.961h-1.88l-.056 2.475c-.014.579-.095 1.06-.242 1.441-.139.381-.352.664-.638.847-.286.183-.645.275-1.078.275h-.308zm8.953.033c-.63 0-1.129-.161-1.495-.484-.36-.33-.54-.777-.54-1.342 0-.572.191-1.019.572-1.342.39-.33.92-.495 1.596-.495h1.683v-.561c0-.33-.103-.587-.308-.77-.206-.183-.495-.275-.87-.275-.33 0-.605.073-.825.22a.79.79 0 00-.384.561h-1.166a1.83 1.83 0 01.748-1.298c.44-.323.993-.484 1.66-.484.72 0 1.287.183 1.706.55.418.359.627.851.627 1.474V119h-1.156v-1.111h-.198l.198-.22c0 .44-.168.792-.506 1.056-.337.257-.784.385-1.342.385zm.352-.913c.426 0 .774-.106 1.045-.319.28-.22.419-.499.419-.836v-.792h-1.661c-.308 0-.554.084-.737.253-.177.169-.265.4-.265.693 0 .308.107.554.32.737.212.176.505.264.88.264zm4.422.803v-6.05h1.089v3.135c0 .205-.008.433-.022.682a21.934 21.934 0 01-.121 1.309l2.277-5.126h1.485V119h-1.09v-3.135c0-.205.008-.425.023-.66a18.175 18.175 0 01.121-1.265L44.52 119h-1.485zm2.398-7.029c-.55 0-.994-.147-1.331-.44-.338-.293-.506-.682-.506-1.166h.924c0 .264.08.477.242.638.168.161.388.242.66.242.286 0 .51-.081.67-.242.17-.161.254-.374.254-.638h.924c0 .484-.169.873-.506 1.166-.338.293-.781.44-1.331.44zM49.557 119v-6.05h1.188v2.431h2.332v-2.431h1.188V119h-1.188v-2.53h-2.332V119h-1.188zm7.116-3.091v-1.078h3.52v1.078h-3.52zM62.601 119v-6.05h4.708V119h-1.188v-4.961H63.79V119h-1.188zm6.5 1.98v-8.03h1.177v1.155h.253l-.253.275c0-.477.147-.851.44-1.122.301-.279.7-.418 1.2-.418.608 0 1.092.205 1.451.616.367.403.55.957.55 1.661v1.705c0 .469-.084.876-.253 1.221a1.874 1.874 0 01-.693.792c-.293.183-.645.275-1.056.275-.49 0-.887-.136-1.188-.407-.3-.279-.45-.656-.45-1.133l.252.275h-.275l.033 1.408v1.727h-1.188zm2.41-2.904c.388 0 .689-.11.901-.33.22-.227.33-.554.33-.979v-1.584c0-.425-.11-.748-.33-.968-.212-.227-.513-.341-.902-.341-.374 0-.67.117-.89.352-.22.227-.33.546-.33.957v1.584c0 .411.11.733.33.968.22.227.516.341.89.341zm4.135.924v-6.05h1.089v3.135c0 .205-.008.433-.022.682a21.934 21.934 0 01-.121 1.309l2.277-5.126h1.485V119h-1.09v-3.135c0-.205.008-.425.023-.66a18.175 18.175 0 01.121-1.265L77.13 119h-1.485zm8.909.11c-.499 0-.939-.092-1.32-.275a2.074 2.074 0 01-.87-.814c-.197-.359-.296-.777-.296-1.254v-1.584c0-.484.099-.902.297-1.254a2 2 0 01.869-.803c.381-.191.821-.286 1.32-.286.726 0 1.309.191 1.749.572.44.381.67.902.693 1.562h-1.188c-.022-.345-.143-.612-.363-.803-.22-.191-.517-.286-.891-.286-.404 0-.723.114-.957.341-.235.22-.352.535-.352.946v1.595c0 .411.117.73.352.957.234.227.553.341.957.341.374 0 .67-.095.89-.286.22-.191.342-.458.364-.803h1.188c-.022.66-.253 1.181-.693 1.562-.44.381-1.023.572-1.75.572zm5.08 1.87l.87-2.332-2.255-5.698h1.309l1.265 3.41c.051.147.103.323.154.528.051.205.095.374.132.506.03-.132.07-.301.12-.506.052-.205.104-.381.155-.528l1.188-3.41h1.265l-2.948 8.03h-1.254zm7.337-1.98v-4.983h-2.134v-1.067h5.456v1.067H98.16V119h-1.188zm7.149.11c-.498 0-.938-.092-1.32-.275a2.077 2.077 0 01-.869-.814c-.198-.359-.297-.777-.297-1.254v-1.584c0-.484.099-.902.297-1.254.206-.352.495-.62.869-.803.382-.191.822-.286 1.32-.286.726 0 1.309.191 1.749.572.44.381.671.902.693 1.562h-1.188c-.022-.345-.143-.612-.363-.803-.22-.191-.517-.286-.891-.286-.403 0-.722.114-.957.341-.234.22-.352.535-.352.946v1.595c0 .411.118.73.352.957.235.227.554.341.957.341.374 0 .671-.095.891-.286.22-.191.341-.458.363-.803h1.188c-.022.66-.253 1.181-.693 1.562-.44.381-1.023.572-1.749.572zm5.895-.11v-4.983h-2.134v-1.067h5.456v1.067h-2.134V119h-1.188zm4.752 0v-6.05h2.662c.66 0 1.177.143 1.551.429.374.286.561.682.561 1.188 0 .418-.151.752-.451 1.001-.301.249-.697.374-1.188.374v-.099c.535 0 .964.132 1.287.396.33.257.495.601.495 1.034 0 .543-.195.968-.583 1.276-.389.301-.924.451-1.606.451h-2.728zm1.166-.957h1.54c.322 0 .575-.073.759-.22a.723.723 0 00.286-.605.735.735 0 00-.286-.616c-.184-.154-.437-.231-.759-.231h-1.54v1.672zm0-2.552h1.496c.293 0 .524-.07.693-.209.168-.139.253-.334.253-.583a.704.704 0 00-.253-.572c-.169-.147-.4-.22-.693-.22h-1.496v1.584zm5.367 3.509v-6.05h1.089v3.135c0 .205-.008.433-.022.682a18.493 18.493 0 01-.121 1.309l2.277-5.126h1.485V119h-1.089v-3.135c0-.205.007-.425.022-.66a18.175 18.175 0 01.121-1.265l-2.277 5.06h-1.485zm8.876.11c-.491 0-.924-.095-1.298-.286a2.084 2.084 0 01-.847-.825c-.198-.352-.297-.763-.297-1.232v-1.584c0-.477.099-.887.297-1.232.198-.352.48-.623.847-.814.374-.198.807-.297 1.298-.297.499 0 .931.099 1.298.297.367.191.649.462.847.814.198.345.297.755.297 1.232v1.078h-3.74v.506c0 .447.11.788.33 1.023.227.235.554.352.979.352.345 0 .623-.059.836-.176a.799.799 0 00.396-.539h1.177a1.833 1.833 0 01-.792 1.232c-.44.301-.983.451-1.628.451zm1.298-3.564v-.374c0-.44-.11-.781-.33-1.023-.22-.242-.543-.363-.968-.363-.418 0-.741.121-.968.363-.22.242-.33.587-.33 1.034v.275l2.684-.011-.088.099z" fill="#000"/></svg>