<svg width="151" height="151" fill="none" xmlns="http://www.w3.org/2000/svg"><rect width="151" height="151" rx="11" fill="#7AA9E0"/><g opacity=".2"><mask id="a" style="mask-type:alpha" maskUnits="userSpaceOnUse" x="0" y="0" width="151" height="151"><rect width="151" height="151" rx="11" fill="#5982B1"/></mask><g mask="url(#a)"><path fill-rule="evenodd" clip-rule="evenodd" d="M149.081 73.319c1.098-.804 1.967-1.694 1.915-3.168-.035-1.24-.54-2.265-1.638-2.852-1.375-.735-2.481.017-3.553.808l-8.991 6.608c-10.4 7.641-20.8 15.282-31.16 22.976-1.526 1.132-2.412 1.136-3.743-.281-6.081-6.48-12.227-12.902-18.373-19.322l-.001-.002-.002-.002-3.951-4.13c-2.278-2.381-3.28-2.476-5.939-.63-5.11 3.552-10.22 7.108-15.33 10.664a25425.638 25425.638 0 01-38.025 26.424l-.003.002c-1.28.886-2.447 1.837-2.27 3.622.281 2.857 2.689 3.613 5.446 1.694 10.326-7.176 20.648-14.358 30.97-21.54l19.014-13.225c.34-.237.631-.447.884-.63.814-.587 1.237-.893 1.634-.863.43.033.831.458 1.665 1.345.19.2.4.426.64.675 4.558 4.745 9.1 9.507 13.64 14.27a8931.2 8931.2 0 008.432 8.835c2.032 2.126 3.212 2.191 5.602.432 1.002-.739 2.008-1.476 3.014-2.213.793-.581 1.587-1.162 2.379-1.746 4.766-3.503 9.53-7.007 14.295-10.512l.005-.003.021-.016c7.806-5.741 15.613-11.483 23.423-17.22zm-84.191 48.07c-.003 2.607-.005 5.214-.005 7.821v-.004l-.002 10.282v.01c-.002 6.853-.004 13.707.002 20.558.004 2.879.834 3.713 3.738 3.713 9.422.013 18.844.013 28.266-.005 2.68-.004 3.531-.799 3.535-3.457.021-8.671.023-17.344.025-26.016.002-5.783.003-11.565.01-17.346.004-1.133-.272-2.114-1.072-2.948A21841.679 21841.679 0 0177.58 91.272c-1.237-1.288-2.585-1.43-4.076-.501-.642.4-1.281.803-1.92 1.208h-.001c-1.49.942-2.977 1.884-4.502 2.764-1.612.929-2.243 2.17-2.23 4.05.055 7.531.047 15.063.04 22.596zm5.234 14.287c-.003-2.367-.005-4.734-.005-7.101h.004v-27.613c0-1.655 3.038-4.62 4.646-4.543.55.03.88.394 1.202.75.06.067.12.133.181.197 1.991 2.076 3.98 4.155 5.969 6.233l.003.004c3.976 4.155 7.952 8.311 11.947 12.447.817.847 1.11 1.729 1.11 2.883-.034 12.438-.055 24.881.018 37.32.009 1.802-.54 2.329-2.32 2.308a786.62 786.62 0 00-20.496 0c-1.823.026-2.312-.623-2.299-2.373.055-6.838.047-13.674.04-20.511v-.001zm-13.708 6.582c.003 5.839.006 11.679-.006 17.521-.01 3.268-.722 3.985-3.886 3.99-9.28.008-18.554.008-27.833 0-3.004 0-3.817-.813-3.821-3.873-.005-3.391-.003-6.781 0-10.172.003-5.24.006-10.479-.017-15.717-.009-1.633.475-2.878 1.78-3.924a9090.018 9090.018 0 0028.556-23.01c1.097-.89 2.182-1.733 3.686-1.063 1.535.687 1.535 2.089 1.535 3.473v25.268h.004l.002 7.507zm-5.249-5.787l.001-4.584v-.002c.003-5.091.005-10.181-.018-15.273a4.4 4.4 0 01.038-.486c.066-.571.136-1.185-.5-1.442-.497-.198-.907.197-1.292.568-.112.107-.221.212-.33.301-2.562 2.06-5.12 4.124-7.68 6.187v.002a3568.853 3568.853 0 01-13.679 10.995c-1.102.882-1.646 1.811-1.633 3.267.064 6.764.069 13.528 0 20.292-.018 1.651.432 2.286 2.182 2.265a872.95 872.95 0 0120.724.004c1.712.022 2.235-.549 2.217-2.235-.056-4.797-.047-9.596-.037-14.396.003-1.821.007-3.642.007-5.463zm81.509 3.479l-.001-10.143h-.013l.002-10.356c.002-6.906.004-13.811-.002-20.715l.003-.33c.016-.97.031-1.973-1.105-2.462-1.228-.527-2.023.25-2.81 1.037l-2.049 2.053a4584.366 4584.366 0 01-16.427 16.398c-.83.825-1.184 1.707-1.184 2.865.008 7.086.008 14.171.008 21.256 0 7.084 0 14.169.009 21.255.004 2.507.484 2.948 3.108 2.956 5.683.022 11.366.018 17.05.005 3.068-.005 3.41-.363 3.41-3.536.003-6.762.002-13.522.001-20.283zm-3.666-8.631h-.017v-5.944c.002-6.935.003-13.87-.013-20.804 0-.134.016-.28.033-.43.058-.516.12-1.074-.466-1.282-.447-.158-.764.23-1.062.594a4.327 4.327 0 01-.277.318 2772.718 2772.718 0 00-5.692 5.683c-2.528 2.528-5.055 5.056-7.594 7.573-.765.756-1.154 1.547-1.154 2.645.03 12.797.056 25.599 0 38.396-.009 1.703.696 2.036 2.191 2.005 3.881-.073 7.771-.116 11.648.013 1.901.061 2.463-.562 2.442-2.455-.067-6.433-.057-12.865-.047-19.297.004-2.338.008-4.676.008-7.015z" fill="#F3F9FA"/><path stroke="#fff" stroke-width="3" stroke-linecap="round" d="M40 39.879L123.879-44M15 46.879L98.879-37M12 19.879L95.879-64M-13 29.879L70.879-54"/></g></g><path d="M16.935 39v-8.03h1.188v3.322h2.354V30.97h1.188V39h-1.188v-3.608h-2.354V39h-1.188zm8.887.11c-.491 0-.924-.095-1.298-.286a2.086 2.086 0 01-.847-.825c-.198-.352-.297-.763-.297-1.232v-1.584c0-.477.1-.887.297-1.232.198-.352.48-.623.847-.814.374-.198.807-.297 1.298-.297.499 0 .931.099 1.298.297.367.19.65.462.847.814.198.345.297.755.297 1.232v1.078h-3.74v.506c0 .447.11.788.33 1.023.227.235.554.352.98.352.344 0 .622-.059.835-.176a.801.801 0 00.396-.539h1.177a1.833 1.833 0 01-.792 1.232c-.44.3-.982.451-1.628.451zm1.298-3.564v-.374c0-.44-.11-.781-.33-1.023-.22-.242-.543-.363-.968-.363-.418 0-.74.121-.968.363-.22.242-.33.587-.33 1.034v.275l2.684-.011-.088.099zm2.232 4.994v-2.552h.44c.125-.125.253-.36.385-.704.14-.352.213-.796.22-1.331l.066-3.003h4.103v5.038h.737v2.552h-1.078V39H30.43v1.54h-1.078zm1.672-2.552h2.387v-3.993h-1.837l-.044 1.969c-.007.535-.07.979-.187 1.331-.11.345-.216.576-.319.693zm7.843 1.111c-.5 0-.932-.095-1.298-.286a2.017 2.017 0 01-.848-.814c-.197-.352-.296-.766-.296-1.243v-1.562c0-.484.099-.898.297-1.243.197-.352.48-.623.846-.814.367-.19.8-.286 1.299-.286.498 0 .93.095 1.297.286.367.19.65.462.847.814.198.345.297.759.297 1.243v1.562c0 .477-.099.891-.297 1.243-.198.352-.48.623-.847.814-.366.19-.799.286-1.297.286zm0-1.045c.403 0 .715-.11.934-.33.22-.227.33-.55.33-.968v-1.562c0-.425-.11-.748-.33-.968-.22-.22-.531-.33-.934-.33-.396 0-.708.11-.935.33-.22.22-.33.543-.33.968v1.562c0 .418.11.74.33.968.227.22.538.33.934.33zm6.555 1.056c-.499 0-.939-.092-1.32-.275a2.071 2.071 0 01-.87-.814c-.197-.36-.296-.777-.296-1.254v-1.584c0-.484.099-.902.297-1.254.205-.352.495-.62.869-.803.381-.19.821-.286 1.32-.286.726 0 1.309.19 1.749.572.44.381.67.902.693 1.562h-1.188c-.022-.345-.143-.612-.363-.803-.22-.19-.517-.286-.891-.286-.404 0-.723.114-.957.341-.235.22-.352.535-.352.946v1.595c0 .41.117.73.352.957.234.227.553.341.957.341.374 0 .67-.095.89-.286.22-.19.342-.458.364-.803h1.188c-.022.66-.253 1.18-.693 1.562-.44.381-1.023.572-1.75.572zm5.895-.11v-4.983h-2.134V32.95h5.456v1.067h-2.134V39h-1.188zm6.511.11c-.63 0-1.13-.161-1.496-.484-.36-.33-.539-.777-.539-1.342 0-.572.19-1.02.572-1.342.389-.33.92-.495 1.595-.495h1.683v-.561c0-.33-.103-.587-.308-.77-.205-.183-.495-.275-.869-.275-.33 0-.605.073-.825.22a.79.79 0 00-.385.561H56.09a1.83 1.83 0 01.748-1.298c.44-.323.994-.484 1.661-.484.719 0 1.287.183 1.705.55.418.36.627.85.627 1.474V39h-1.155v-1.111h-.198l.198-.22c0 .44-.169.792-.506 1.056-.337.257-.785.385-1.342.385zm.352-.913c.425 0 .774-.106 1.045-.319.279-.22.418-.499.418-.836v-.792h-1.661c-.308 0-.554.084-.737.253-.176.169-.264.4-.264.693 0 .308.106.554.319.737.213.176.506.264.88.264zm6.181.803v-4.983h-2.134V32.95h5.456v1.067H65.55V39h-1.188zm7.116.099c-.498 0-.93-.095-1.298-.286a2.016 2.016 0 01-.847-.814c-.198-.352-.297-.766-.297-1.243v-1.562c0-.484.1-.898.297-1.243.198-.352.48-.623.847-.814.367-.19.8-.286 1.298-.286.5 0 .932.095 1.298.286.367.19.65.462.847.814.198.345.297.759.297 1.243v1.562c0 .477-.099.891-.297 1.243-.198.352-.48.623-.847.814-.366.19-.799.286-1.298.286zm0-1.045c.404 0 .715-.11.935-.33.22-.227.33-.55.33-.968v-1.562c0-.425-.11-.748-.33-.968-.22-.22-.531-.33-.935-.33-.396 0-.707.11-.935.33-.22.22-.33.543-.33.968v1.562c0 .418.11.74.33.968.228.22.54.33.935.33zm7.634.946v-2.123c-.11.03-.28.059-.506.088a7.09 7.09 0 01-.704.033c-.763.007-1.36-.18-1.793-.561-.426-.381-.638-.91-.638-1.584V32.95h1.188v1.87c0 .345.117.616.352.814.234.198.56.297.979.297a6.5 6.5 0 00.704-.033c.205-.03.344-.055.418-.077V32.95h1.188V39H79.11zm3.057 0v-6.05h1.188v2.431h2.332V32.95h1.188V39h-1.188v-2.53h-2.332V39h-1.188zm8.27.11c-.63 0-1.128-.161-1.495-.484-.36-.33-.54-.777-.54-1.342 0-.572.192-1.02.573-1.342.389-.33.92-.495 1.595-.495h1.683v-.561c0-.33-.103-.587-.308-.77-.205-.183-.495-.275-.87-.275-.33 0-.604.073-.824.22a.79.79 0 00-.385.561H88.7a1.83 1.83 0 01.748-1.298c.44-.323.994-.484 1.66-.484.72 0 1.288.183 1.706.55.418.36.627.85.627 1.474V39h-1.155v-1.111h-.198l.198-.22c0 .44-.169.792-.506 1.056-.337.257-.785.385-1.342.385zm.353-.913c.425 0 .774-.106 1.045-.319.279-.22.418-.499.418-.836v-.792h-1.661c-.308 0-.554.084-.737.253-.176.169-.264.4-.264.693 0 .308.106.554.319.737.213.176.506.264.88.264zm4.102.803l1.485-2.266c-.44-.125-.785-.345-1.034-.66-.242-.315-.363-.7-.363-1.155 0-.616.205-1.096.616-1.441.41-.352.972-.528 1.683-.528h2.64V39h-1.177v-2.156h-1.155L96.258 39h-1.365zm2.42-3.146h1.43v-1.892h-1.43c-.352 0-.63.084-.836.253-.198.161-.297.392-.297.693 0 .3.1.535.297.704.205.161.484.242.836.242zM18.695 59.11c-.63 0-1.13-.161-1.496-.484-.36-.33-.539-.777-.539-1.342 0-.572.19-1.02.572-1.342.389-.33.92-.495 1.595-.495h1.683v-.561c0-.33-.103-.587-.308-.77-.205-.183-.495-.275-.869-.275-.33 0-.605.073-.825.22a.79.79 0 00-.385.561h-1.166a1.83 1.83 0 01.748-1.298c.44-.323.994-.484 1.661-.484.719 0 1.287.183 1.705.55.418.36.627.85.627 1.474V59h-1.155v-1.111h-.198l.198-.22c0 .44-.169.792-.506 1.056-.337.257-.785.385-1.342.385zm.352-.913c.425 0 .774-.106 1.045-.319.279-.22.418-.499.418-.836v-.792h-1.661c-.308 0-.554.084-.737.253-.176.169-.264.4-.264.693 0 .308.106.554.319.737.213.176.506.264.88.264zm4.421.803v-6.05h1.188v2.431h2.332V52.95h1.188V59h-1.188v-2.53h-2.332V59h-1.188zm8.271.11c-.63 0-1.129-.161-1.496-.484-.359-.33-.539-.777-.539-1.342 0-.572.191-1.02.572-1.342.389-.33.92-.495 1.595-.495h1.683v-.561c0-.33-.102-.587-.308-.77-.205-.183-.495-.275-.869-.275-.33 0-.605.073-.825.22a.79.79 0 00-.385.561h-1.166a1.83 1.83 0 01.748-1.298c.44-.323.994-.484 1.661-.484.719 0 1.287.183 1.705.55.418.36.627.85.627 1.474V59h-1.155v-1.111h-.198l.198-.22c0 .44-.168.792-.506 1.056-.337.257-.784.385-1.342.385zm.352-.913c.426 0 .774-.106 1.045-.319.279-.22.418-.499.418-.836v-.792h-1.66c-.309 0-.554.084-.738.253-.176.169-.264.4-.264.693 0 .308.107.554.32.737.212.176.505.264.88.264zm3.74.88v-1.089h.23c.294 0 .507-.117.639-.352.139-.235.212-.63.22-1.188l.066-3.498h4.235V59h-1.188v-4.961H38.15l-.055 2.475c-.014.58-.095 1.06-.241 1.441-.14.381-.352.664-.638.847-.286.183-.646.275-1.078.275h-.309zM43.035 59v-6.05h1.089v3.135c0 .205-.008.433-.022.682a21.87 21.87 0 01-.121 1.309l2.277-5.126h1.485V59h-1.09v-3.135c0-.205.008-.425.023-.66a18.175 18.175 0 01.121-1.265L44.52 59h-1.485zm8.282 0v-4.983h-2.134V52.95h5.456v1.067h-2.134V59h-1.188zm4.762 0v-6.05h1.089v3.135c0 .205-.007.433-.022.682a21.595 21.595 0 01-.121 1.309l2.277-5.126h1.485V59h-1.089v-3.135c0-.205.007-.425.022-.66.015-.242.033-.477.055-.704.022-.227.044-.414.066-.561L57.564 59h-1.485zm6.555 0v-6.05h1.188v2.431h.968l1.606-2.431h1.342l-1.925 2.904L67.771 59h-1.364l-1.617-2.596h-.968V59h-1.188zm8.238.11c-.63 0-1.129-.161-1.496-.484-.359-.33-.539-.777-.539-1.342 0-.572.191-1.02.572-1.342.39-.33.92-.495 1.595-.495h1.683v-.561c0-.33-.102-.587-.308-.77-.205-.183-.495-.275-.869-.275-.33 0-.605.073-.825.22a.79.79 0 00-.385.561h-1.166a1.83 1.83 0 01.748-1.298c.44-.323.994-.484 1.661-.484.72 0 1.287.183 1.705.55.418.36.627.85.627 1.474V59H72.72v-1.111h-.198l.198-.22c0 .44-.168.792-.506 1.056-.337.257-.784.385-1.342.385zm.352-.913c.426 0 .774-.106 1.045-.319.28-.22.418-.499.418-.836v-.792h-1.66c-.309 0-.554.084-.738.253-.176.169-.264.4-.264.693 0 .308.107.554.32.737.212.176.505.264.88.264zM81.53 60.54v-2.552h.44c.124-.125.253-.36.385-.704.14-.352.212-.796.22-1.331l.066-3.003h4.103v5.038h.737v2.552h-1.078V59h-3.795v1.54H81.53zm1.672-2.552h2.387v-3.993h-1.837l-.044 1.969c-.008.535-.07.979-.187 1.331-.11.345-.217.576-.32.693zm4.806 1.089v-1.089h.23c.294 0 .507-.117.639-.352.14-.235.213-.63.22-1.188l.066-3.498h4.235V59H92.21v-4.961h-1.881l-.055 2.475c-.015.58-.095 1.06-.242 1.441-.14.381-.352.664-.638.847-.286.183-.645.275-1.078.275h-.308zM94.893 59l1.485-2.266c-.44-.125-.785-.345-1.034-.66-.242-.315-.363-.7-.363-1.155 0-.616.205-1.096.616-1.441.41-.352.972-.528 1.683-.528h2.64V59h-1.177v-2.156h-1.155L96.258 59h-1.365zm2.42-3.146h1.43v-1.892h-1.43c-.352 0-.63.084-.836.253-.198.161-.297.392-.297.693 0 .3.1.535.297.704.205.161.484.242.836.242zM16.946 79v-6.05h4.708V79h-1.188v-4.961h-2.332V79h-1.188zm6.5 1.98v-8.03h1.177v1.155h.253l-.253.275c0-.477.147-.85.44-1.122.3-.279.7-.418 1.2-.418.608 0 1.092.205 1.451.616.367.403.55.957.55 1.661v1.705c0 .47-.084.876-.253 1.221a1.871 1.871 0 01-.693.792c-.293.183-.645.275-1.056.275-.491 0-.887-.136-1.188-.407-.3-.279-.45-.656-.45-1.133l.252.275h-.275l.033 1.408v1.727h-1.188zm2.41-2.904c.388 0 .688-.11.901-.33.22-.227.33-.554.33-.979v-1.584c0-.425-.11-.748-.33-.968-.213-.227-.513-.341-.902-.341-.374 0-.67.117-.89.352-.22.227-.33.546-.33.957v1.584c0 .41.11.733.33.968.22.227.516.341.89.341zM29.99 79v-6.05h1.09v3.135c0 .205-.008.433-.023.682a21.595 21.595 0 01-.12 1.309l2.276-5.126h1.485V79H33.61v-3.135c0-.205.008-.425.022-.66.015-.242.033-.477.055-.704.022-.227.044-.414.066-.561L31.475 79H29.99zm6.523 0v-6.05H37.7v2.431h2.331V72.95h1.189V79h-1.188v-2.53H37.7V79h-1.188zm6.203 0l1.485-2.266c-.44-.125-.785-.345-1.034-.66-.242-.315-.363-.7-.363-1.155 0-.616.205-1.096.616-1.441.41-.352.971-.528 1.683-.528h2.64V79h-1.177v-2.156H45.41L44.08 79h-1.364zm2.42-3.146h1.43v-1.892h-1.43c-.352 0-.631.084-.836.253-.198.161-.297.392-.297.693 0 .3.099.535.297.704.205.161.484.242.836.242zM51.316 79v-4.983h-2.133V72.95h5.456v1.067h-2.134V79h-1.188zm4.763 0v-6.05h1.089v3.135c0 .205-.007.433-.022.682a21.595 21.595 0 01-.121 1.309l2.277-5.126h1.485V79h-1.089v-3.135c0-.205.007-.425.022-.66.015-.242.033-.477.055-.704.022-.227.044-.414.066-.561L57.564 79h-1.485zm6.203 0l1.485-2.266c-.44-.125-.785-.345-1.034-.66-.242-.315-.363-.7-.363-1.155 0-.616.206-1.096.616-1.441.41-.352.972-.528 1.683-.528h2.64V79h-1.177v-2.156h-1.155L63.647 79h-1.365zm2.42-3.146h1.43v-1.892h-1.43c-.352 0-.63.084-.836.253-.198.161-.297.392-.297.693 0 .3.1.535.297.704.206.161.484.242.836.242zM19.3 99.099c-.499 0-.931-.095-1.298-.286a2.016 2.016 0 01-.847-.814c-.198-.352-.297-.766-.297-1.243v-1.562c0-.484.099-.898.297-1.243.198-.352.48-.623.847-.814.367-.19.8-.286 1.298-.286.499 0 .931.095 1.298.286.367.19.649.462.847.814.198.345.297.759.297 1.243v1.562c0 .477-.099.891-.297 1.243-.198.352-.48.623-.847.814-.367.19-.8.286-1.298.286zm0-1.045c.403 0 .715-.11.935-.33.22-.227.33-.55.33-.968v-1.562c0-.425-.11-.748-.33-.968-.22-.22-.532-.33-.935-.33-.396 0-.708.11-.935.33-.22.22-.33.543-.33.968v1.562c0 .418.11.74.33.968.227.22.539.33.935.33zm6.522 1.056c-.74-.007-1.327-.22-1.76-.638-.433-.425-.649-1.005-.649-1.738v-2.739c0-.968.25-1.712.748-2.233.506-.528 1.225-.792 2.156-.792h1.617v1.166h-1.617c-.564 0-.994.161-1.287.484-.286.315-.429.774-.429 1.375v.726h.154l-.143.209c0-.425.14-.759.418-1.001.286-.25.678-.374 1.177-.374.638 0 1.133.209 1.485.627.36.41.54.979.54 1.705v.847c0 .491-.1.917-.298 1.276-.19.352-.466.623-.825.814-.36.19-.788.286-1.287.286zm0-1.045c.396 0 .697-.114.902-.341.213-.235.32-.565.32-.99v-.847c0-.433-.107-.763-.32-.99-.205-.235-.506-.352-.902-.352s-.7.114-.913.341c-.205.227-.308.561-.308 1.001v.847c0 .425.103.755.308.99.213.227.517.341.913.341zm6.522 1.034c-.498 0-.931-.095-1.298-.286a2.017 2.017 0 01-.847-.814c-.198-.352-.297-.766-.297-1.243v-1.562c0-.484.1-.898.297-1.243.198-.352.48-.623.847-.814.367-.19.8-.286 1.298-.286.499 0 .932.095 1.298.286.367.19.65.462.847.814.198.345.297.759.297 1.243v1.562c0 .477-.099.891-.297 1.243-.198.352-.48.623-.847.814-.366.19-.799.286-1.298.286zm0-1.045c.404 0 .715-.11.935-.33.22-.227.33-.55.33-.968v-1.562c0-.425-.11-.748-.33-.968-.22-.22-.531-.33-.935-.33-.396 0-.707.11-.935.33-.22.22-.33.543-.33.968v1.562c0 .418.11.74.33.968.228.22.54.33.935.33zM38.9 99.11c-.5 0-.94-.092-1.32-.275a2.072 2.072 0 01-.87-.814c-.197-.36-.297-.777-.297-1.254v-1.584c0-.484.1-.902.298-1.254.205-.352.495-.62.869-.803.38-.19.82-.286 1.32-.286.726 0 1.309.19 1.748.572.44.381.671.902.694 1.562h-1.188c-.023-.345-.144-.612-.364-.803-.22-.19-.517-.286-.89-.286-.404 0-.723.114-.957.341-.235.22-.352.535-.352.946v1.595c0 .41.117.73.352.957.234.227.553.341.957.341.373 0 .67-.095.89-.286.22-.19.342-.458.364-.803h1.188c-.023.66-.253 1.18-.694 1.562-.44.381-1.023.572-1.748.572zm4.135-.11v-6.05h1.188v2.431h2.332V92.95h1.188V99h-1.188v-2.53h-2.332V99h-1.188zm8.876.099c-.499 0-.931-.095-1.298-.286a2.016 2.016 0 01-.847-.814c-.198-.352-.297-.766-.297-1.243v-1.562c0-.484.099-.898.297-1.243.198-.352.48-.623.847-.814.367-.19.8-.286 1.298-.286s.931.095 1.298.286c.366.19.649.462.847.814.198.345.297.759.297 1.243v1.562c0 .477-.1.891-.297 1.243-.198.352-.48.623-.847.814-.367.19-.8.286-1.298.286zm0-1.045c.403 0 .715-.11.935-.33.22-.227.33-.55.33-.968v-1.562c0-.425-.11-.748-.33-.968-.22-.22-.532-.33-.935-.33-.396 0-.708.11-.935.33-.22.22-.33.543-.33.968v1.562c0 .418.11.74.33.968.227.22.539.33.935.33zm4.157.946v-6.05h2.662c.66 0 1.177.143 1.551.429.374.286.561.682.561 1.188 0 .418-.15.752-.451 1.001-.3.25-.697.374-1.188.374v-.099c.535 0 .964.132 1.287.396.33.257.495.601.495 1.034 0 .543-.194.968-.583 1.276-.389.3-.924.451-1.606.451h-2.728zm1.166-.957h1.54c.323 0 .576-.073.759-.22a.721.721 0 00.286-.605c0-.264-.095-.47-.286-.616-.183-.154-.436-.231-.759-.231h-1.54v1.672zm0-2.552h1.496c.293 0 .524-.07.693-.209.169-.14.253-.334.253-.583a.702.702 0 00-.253-.572c-.169-.147-.4-.22-.693-.22h-1.496v1.584zm7.116 3.619c-.63 0-1.13-.161-1.496-.484-.36-.33-.539-.777-.539-1.342 0-.572.19-1.02.572-1.342.389-.33.92-.495 1.595-.495h1.683v-.561c0-.33-.103-.587-.308-.77-.205-.183-.495-.275-.869-.275-.33 0-.605.073-.825.22a.79.79 0 00-.385.561h-1.166a1.83 1.83 0 01.748-1.298c.44-.323.994-.484 1.661-.484.719 0 1.287.183 1.705.55.418.36.627.85.627 1.474V99h-1.155v-1.111H66l.198-.22c0 .44-.168.792-.506 1.056-.337.257-.784.385-1.342.385zm.352-.913c.425 0 .774-.106 1.045-.319.279-.22.418-.499.418-.836v-.792h-1.66c-.309 0-.554.084-.738.253-.176.169-.264.4-.264.693 0 .308.106.554.32.737.212.176.505.264.88.264zm4.421.803v-6.05h1.188v2.431h2.332V92.95h1.188V99h-1.188v-2.53h-2.332V99h-1.188zm6.523 0v-6.05h1.188v2.431h2.332V92.95h1.188V99h-1.188v-2.53h-2.332V99h-1.188zm6.214 0v-6.05h1.056v2.134h.44c.652 0 1.17.176 1.55.528.382.352.573.832.573 1.441 0 .601-.19 1.078-.572 1.43-.382.345-.899.517-1.551.517H81.86zm1.056-.935h.44c.352 0 .623-.088.814-.264.198-.176.297-.425.297-.748 0-.33-.1-.583-.297-.759-.19-.183-.462-.275-.814-.275h-.44v2.046zm3.212.935v-6.05h1.056V99h-1.056zm2.089 0l2.123-3.124-1.991-2.926h1.364l1.067 1.672c.051.088.103.183.154.286.051.095.092.176.12.242a5.043 5.043 0 01.264-.528l1.068-1.672h1.364l-1.991 2.937L93.87 99h-1.364l-1.177-1.815a3.679 3.679 0 01-.154-.297c-.051-.11-.092-.198-.121-.264a4.31 4.31 0 01-.132.264c-.051.11-.106.209-.165.297L89.57 99h-1.353zM19.3 119.11c-.74-.007-1.327-.22-1.76-.638-.433-.425-.649-1.005-.649-1.738v-2.739c0-.968.25-1.712.748-2.233.506-.528 1.225-.792 2.156-.792h1.617v1.166h-1.617c-.565 0-.994.161-1.287.484-.286.315-.429.774-.429 1.375v.726h.154l-.143.209c0-.425.14-.759.418-1.001.286-.249.678-.374 1.177-.374.638 0 1.133.209 1.485.627.36.411.539.979.539 1.705v.847c0 .491-.099.917-.297 1.276-.19.352-.466.623-.825.814-.36.191-.788.286-1.287.286zm0-1.045c.396 0 .697-.114.902-.341.213-.235.319-.565.319-.99v-.847c0-.433-.106-.763-.319-.99-.205-.235-.506-.352-.902-.352s-.7.114-.913.341c-.205.227-.308.561-.308 1.001v.847c0 .425.103.755.308.99.213.227.517.341.913.341zm4.168.935v-6.05h1.09v3.135c0 .205-.008.433-.023.682a21.934 21.934 0 01-.12 1.309l2.276-5.126h1.485V119h-1.089v-3.135c0-.205.008-.425.022-.66.015-.242.033-.477.055-.704.022-.227.044-.414.066-.561L24.953 119h-1.485zm8.58.077c-.646 0-1.178-.143-1.596-.429a1.772 1.772 0 01-.759-1.177h1.21c.052.176.18.323.385.44.206.11.459.165.76.165h.55c.33 0 .586-.077.77-.231a.752.752 0 00.274-.605.763.763 0 00-.275-.616c-.176-.154-.432-.231-.77-.231h-1.353v-.968h1.31c.307 0 .542-.07.703-.209a.75.75 0 00.242-.583.718.718 0 00-.11-.407.614.614 0 00-.308-.264 1.329 1.329 0 00-.517-.088h-.539a1.29 1.29 0 00-.704.187c-.19.117-.308.268-.352.451h-1.21a1.78 1.78 0 01.737-1.177c.418-.308.928-.462 1.53-.462h.538c.448 0 .833.07 1.155.209.323.132.569.323.737.572.176.249.264.543.264.88 0 .374-.128.682-.385.924-.256.235-.608.359-1.056.374.528.029.924.172 1.188.429.264.249.396.601.396 1.056 0 .535-.205.964-.616 1.287-.41.315-.96.473-1.65.473h-.55zm4.465-.077v-6.05H37.7v2.431h2.331v-2.431h1.189V119h-1.188v-2.53H37.7V119h-1.188zm8.876.11c-.492 0-.924-.095-1.298-.286a2.086 2.086 0 01-.847-.825c-.198-.352-.297-.763-.297-1.232v-1.584c0-.477.099-.887.297-1.232.198-.352.48-.623.847-.814.374-.198.806-.297 1.298-.297.498 0 .931.099 1.298.297.366.191.649.462.847.814.198.345.297.755.297 1.232v1.078h-3.74v.506c0 .447.11.788.33 1.023.227.235.553.352.979.352.344 0 .623-.059.836-.176a.8.8 0 00.396-.539h1.177a1.833 1.833 0 01-.792 1.232c-.44.301-.983.451-1.628.451zm1.298-3.564v-.374c0-.44-.11-.781-.33-1.023-.22-.242-.543-.363-.968-.363-.418 0-.741.121-.968.363-.22.242-.33.587-.33 1.034v.275l2.684-.011-.088.099zm5.257 3.564c-.499 0-.939-.092-1.32-.275a2.073 2.073 0 01-.87-.814c-.197-.359-.296-.777-.296-1.254v-1.584c0-.484.099-.902.297-1.254a2 2 0 01.869-.803c.381-.191.821-.286 1.32-.286.726 0 1.309.191 1.749.572.44.381.67.902.693 1.562h-1.188c-.022-.345-.143-.612-.363-.803-.22-.191-.517-.286-.891-.286-.404 0-.723.114-.957.341-.235.22-.352.535-.352.946v1.595c0 .411.117.73.352.957.234.227.553.341.957.341.374 0 .67-.095.89-.286.22-.191.342-.458.364-.803h1.188c-.022.66-.253 1.181-.693 1.562-.44.381-1.023.572-1.75.572zm4.729-3.201v-1.078h3.52v1.078h-3.52zm5.906 5.071v-8.03h1.177v1.155h.253l-.253.275c0-.477.147-.851.44-1.122.3-.279.7-.418 1.2-.418.608 0 1.092.205 1.451.616.367.403.55.957.55 1.661v1.705c0 .469-.084.876-.253 1.221a1.874 1.874 0 01-.693.792c-.293.183-.645.275-1.056.275-.491 0-.887-.136-1.188-.407-.3-.279-.45-.656-.45-1.133l.252.275h-.275l.033 1.408v1.727H62.58zm2.41-2.904c.388 0 .688-.11.901-.33.22-.227.33-.554.33-.979v-1.584c0-.425-.11-.748-.33-.968-.213-.227-.513-.341-.902-.341-.374 0-.67.117-.89.352-.22.227-.33.546-.33.957v1.584c0 .411.11.733.33.968.22.227.516.341.89.341zm6.488 1.034c-.49 0-.924-.095-1.298-.286a2.086 2.086 0 01-.847-.825c-.198-.352-.297-.763-.297-1.232v-1.584c0-.477.1-.887.297-1.232.198-.352.48-.623.847-.814.374-.198.807-.297 1.298-.297.5 0 .932.099 1.298.297.367.191.65.462.847.814.198.345.297.755.297 1.232v1.078h-3.74v.506c0 .447.11.788.33 1.023.228.235.554.352.98.352.344 0 .623-.059.835-.176a.8.8 0 00.396-.539h1.177a1.833 1.833 0 01-.792 1.232c-.44.301-.982.451-1.628.451zm1.298-3.564v-.374c0-.44-.11-.781-.33-1.023-.22-.242-.542-.363-.968-.363-.418 0-.74.121-.968.363-.22.242-.33.587-.33 1.034v.275l2.684-.011-.088.099zM75.338 119l-.011-6.05h1.045v5.192h1.188v-5.192h.89v5.192h1.178v-5.192h1.045V119h-5.335zm9.184.11c-.492 0-.924-.095-1.298-.286a2.087 2.087 0 01-.847-.825c-.198-.352-.297-.763-.297-1.232v-1.584c0-.477.099-.887.297-1.232.198-.352.48-.623.847-.814.374-.198.806-.297 1.298-.297.498 0 .931.099 1.298.297.366.191.649.462.847.814.198.345.297.755.297 1.232v1.078h-3.74v.506c0 .447.11.788.33 1.023.227.235.553.352.979.352.344 0 .623-.059.836-.176a.8.8 0 00.396-.539h1.177a1.833 1.833 0 01-.792 1.232c-.44.301-.983.451-1.628.451zm1.298-3.564v-.374c0-.44-.11-.781-.33-1.023-.22-.242-.543-.363-.968-.363-.418 0-.74.121-.968.363-.22.242-.33.587-.33 1.034v.275l2.684-.011-.088.099zM88.69 119v-6.05h1.188v2.431h2.332v-2.431h1.188V119H92.21v-2.53h-2.332V119H88.69zm6.522 0v-6.05h1.09v3.135c0 .205-.008.433-.023.682a21.934 21.934 0 01-.12 1.309l2.276-5.126h1.485V119h-1.089v-3.135c0-.205.007-.425.022-.66.015-.242.033-.477.055-.704.022-.227.044-.414.066-.561L96.697 119h-1.485zm6.522 0v-6.05h1.089v3.135c0 .205-.007.433-.022.682a20.136 20.136 0 01-.121 1.309l2.277-5.126h1.485V119h-1.089v-3.135c0-.205.008-.425.022-.66.015-.242.033-.477.055-.704.022-.227.044-.414.066-.561l-2.277 5.06h-1.485zm2.398-7.029c-.55 0-.993-.147-1.331-.44-.337-.293-.506-.682-.506-1.166h.924c0 .264.081.477.242.638.169.161.389.242.66.242.286 0 .51-.081.671-.242.169-.161.253-.374.253-.638h.924c0 .484-.168.873-.506 1.166-.337.293-.781.44-1.331.44z" fill="#000"/></svg>