<svg width="357" height="81" fill="none" xmlns="http://www.w3.org/2000/svg"><rect x=".5" y=".5" width="353" height="80" rx="10.5" stroke="#000"/><path d="M20.3 22.11c-.565 0-1.056-.095-1.474-.286a2.238 2.238 0 01-.968-.803c-.227-.345-.341-.752-.341-1.221h1.65c0 .271.103.488.308.649.213.154.499.231.858.231.345 0 .612-.077.803-.231a.763.763 0 00.297-.638.891.891 0 00-.22-.605c-.147-.169-.352-.282-.616-.341l-.814-.187c-.682-.161-1.214-.458-1.595-.891-.374-.44-.561-.975-.561-1.606 0-.47.106-.876.319-1.221.22-.352.528-.623.924-.814.396-.19.865-.286 1.408-.286.821 0 1.47.205 1.947.616.484.403.726.95.726 1.639h-1.65a.733.733 0 00-.275-.605c-.176-.147-.433-.22-.77-.22-.315 0-.557.073-.726.22-.169.14-.253.341-.253.605 0 .235.066.436.198.605.14.161.334.271.583.33l.858.198c.711.161 1.25.455 1.617.88.367.418.55.953.55 1.606 0 .47-.117.884-.352 1.243-.227.36-.55.638-.968.836-.41.198-.898.297-1.463.297zm6.522 0c-.535 0-1-.099-1.397-.297a2.296 2.296 0 01-.924-.847c-.213-.367-.319-.792-.319-1.276v-1.43c0-.484.107-.906.32-1.265.22-.367.527-.649.923-.847.396-.205.862-.308 1.397-.308.543 0 1.009.103 1.397.308.396.198.7.48.913.847.22.36.33.781.33 1.265v1.43c0 .484-.11.91-.33 1.276a2.22 2.22 0 01-.913.847c-.389.198-.854.297-1.397.297zm0-1.43c.323 0 .569-.084.737-.253.169-.176.253-.422.253-.737v-1.43c0-.323-.084-.568-.253-.737-.169-.169-.414-.253-.737-.253-.315 0-.56.084-.737.253-.169.169-.253.414-.253.737v1.43c0 .315.084.561.253.737.176.169.422.253.737.253zm6.522 1.43c-.814 0-1.452-.22-1.914-.66-.454-.44-.682-1.041-.682-1.804V15.95h1.65v3.685c0 .337.081.598.242.781.162.176.396.264.704.264.301 0 .532-.088.693-.264.169-.183.253-.444.253-.781V15.95h1.65v3.696c0 .77-.23 1.375-.693 1.815-.462.433-1.096.649-1.903.649zm3.948-.11v-6.05h1.596v1.155h.483l-.483.385c0-.513.146-.917.44-1.21.293-.293.689-.44 1.188-.44.586 0 1.056.205 1.407.616.36.41.54.957.54 1.639V22h-1.65v-3.74c0-.315-.085-.557-.254-.726-.16-.176-.392-.264-.692-.264-.294 0-.521.088-.682.264-.162.169-.242.41-.242.726V22h-1.65zm8.47.11c-.609 0-1.097-.213-1.463-.638-.367-.425-.55-1.001-.55-1.727v-1.54c0-.719.183-1.29.55-1.716.366-.433.854-.649 1.463-.649.498 0 .89.147 1.177.44.286.286.429.69.429 1.21l-.385-.385h.385l-.055-1.485v-1.65h1.65V22h-1.595v-1.155h-.385l.385-.385c0 .52-.143.928-.43 1.221-.285.286-.678.429-1.176.429zm.594-1.43c.3 0 .535-.084.704-.253.168-.176.253-.422.253-.737v-1.43c0-.315-.085-.557-.253-.726-.169-.176-.404-.264-.704-.264-.308 0-.547.088-.715.264-.162.169-.242.41-.242.726v1.43c0 .315.08.561.242.737.168.169.407.253.715.253zM56.859 22v-8.03h1.65v3.08h1.848v-3.08h1.65V22h-1.65v-3.41h-1.848V22h-1.65zm9.107.11c-.535 0-1.004-.099-1.408-.297a2.296 2.296 0 01-.924-.847c-.212-.367-.319-.792-.319-1.276v-1.43c0-.484.107-.906.32-1.265.22-.367.527-.649.923-.847.403-.205.873-.308 1.408-.308.535 0 .998.103 1.386.308.396.198.7.48.913.847.22.36.33.781.33 1.265v1.1h-3.707v.33c0 .381.092.671.275.869.184.19.459.286.825.286.257 0 .462-.044.616-.132a.64.64 0 00.32-.363h1.616a2.14 2.14 0 01-.902 1.276c-.462.323-1.02.484-1.672.484zm1.056-3.597v-.275c0-.374-.088-.66-.264-.858-.168-.198-.432-.297-.792-.297-.36 0-.63.103-.814.308-.176.205-.264.495-.264.869v.165l2.244-.022-.11.11zm4.674 3.597c-.608 0-1.092-.165-1.452-.495-.352-.33-.528-.777-.528-1.342 0-.609.21-1.074.627-1.397.426-.33 1.034-.495 1.826-.495h1.254v-.451a.69.69 0 00-.253-.561c-.16-.14-.38-.209-.66-.209-.256 0-.469.059-.638.176a.721.721 0 00-.308.484H69.97c.066-.609.33-1.089.792-1.441.47-.36 1.071-.539 1.804-.539.77 0 1.38.19 1.826.572.455.374.682.88.682 1.518V22h-1.595v-.99h-.264l.275-.385c0 .455-.165.818-.495 1.089-.322.264-.755.396-1.298.396zm.616-1.21c.323 0 .587-.084.792-.253a.844.844 0 00.32-.682v-.649h-1.222c-.249 0-.45.073-.605.22a.72.72 0 00-.23.561c0 .25.084.447.252.594.17.14.4.209.693.209zM79.99 22c-.426 0-.8-.088-1.122-.264a1.985 1.985 0 01-.76-.759 2.306 2.306 0 01-.263-1.122v-4.4h-1.87V13.97h3.52v5.885c0 .198.058.36.176.484a.678.678 0 00.484.176h1.76V22H79.99zm3.002 0v-1.496h2.09v-3.069h-1.815V15.95h3.355v4.554h1.76V22h-5.39zm2.75-7.007c-.3 0-.543-.077-.726-.231-.176-.154-.264-.363-.264-.627s.088-.473.264-.627c.183-.154.425-.231.726-.231.3 0 .539.077.715.231a.776.776 0 01.275.627.776.776 0 01-.275.627c-.176.154-.415.231-.715.231zM89.47 22v-6.05h1.595v1.155h.484l-.484.385c0-.513.147-.917.44-1.21.293-.293.69-.44 1.188-.44.587 0 1.056.205 1.408.616.36.41.539.957.539 1.639V22h-1.65v-3.74c0-.315-.084-.557-.253-.726-.161-.176-.392-.264-.693-.264-.293 0-.52.088-.682.264-.161.169-.242.41-.242.726V22h-1.65zm7.391 1.98v-1.32h1.705c.308 0 .543-.077.704-.231.169-.154.253-.367.253-.638v-.231l.022-1.155h-.385l.385-.385c0 .52-.143.928-.429 1.221-.286.286-.678.429-1.177.429-.609 0-1.096-.213-1.463-.638-.367-.425-.55-1.001-.55-1.727v-1.1c0-.719.183-1.29.55-1.716.367-.433.854-.649 1.463-.649.499 0 .891.147 1.177.44.286.286.43.69.43 1.21l-.386-.385h.385l-.055-1.155h1.65v5.896c0 .66-.227 1.18-.682 1.562-.447.381-1.06.572-1.837.572h-1.76zm1.672-3.74c.3 0 .535-.084.704-.253.169-.176.253-.422.253-.737v-.99c0-.315-.084-.557-.253-.726-.169-.176-.403-.264-.704-.264-.308 0-.546.088-.715.264-.161.169-.242.41-.242.726v.99c0 .315.08.561.242.737.169.169.407.253.715.253zm13.121 1.87c-.535 0-1.004-.099-1.408-.297a2.365 2.365 0 01-.946-.847c-.22-.367-.33-.792-.33-1.276v-3.41c0-.491.11-.917.33-1.276.228-.36.543-.638.946-.836.404-.205.873-.308 1.408-.308.543 0 1.012.103 1.408.308.404.198.715.477.935.836.228.36.341.785.341 1.276h-1.65c0-.323-.091-.568-.275-.737-.176-.169-.429-.253-.759-.253s-.586.084-.77.253c-.176.169-.264.414-.264.737v3.41c0 .315.088.561.264.737.184.169.44.253.77.253s.583-.084.759-.253c.184-.176.275-.422.275-.737h1.65c0 .484-.113.91-.341 1.276a2.27 2.27 0 01-.935.847c-.396.198-.865.297-1.408.297zm6.49 0c-.536 0-1.005-.099-1.408-.297a2.296 2.296 0 01-.924-.847c-.213-.367-.319-.792-.319-1.276v-1.43c0-.484.106-.906.319-1.265.22-.367.528-.649.924-.847.403-.205.872-.308 1.408-.308.535 0 .997.103 1.386.308.396.198.7.48.913.847.22.36.33.781.33 1.265v1.1h-3.707v.33c0 .381.091.671.275.869.183.19.458.286.825.286.256 0 .462-.044.616-.132a.643.643 0 00.319-.363h1.617a2.14 2.14 0 01-.902 1.276c-.462.323-1.02.484-1.672.484zm1.056-3.597v-.275c0-.374-.088-.66-.264-.858-.169-.198-.433-.297-.792-.297-.36 0-.631.103-.814.308-.176.205-.264.495-.264.869v.165l2.244-.022-.11.11zM122.081 22v-6.05h1.595v1.155h.484l-.484.385c0-.513.146-.917.44-1.21.293-.293.689-.44 1.188-.44.586 0 1.056.205 1.408.616.359.41.539.957.539 1.639V22h-1.65v-3.74c0-.315-.085-.557-.253-.726-.162-.176-.393-.264-.693-.264-.294 0-.521.088-.682.264-.162.169-.242.41-.242.726V22h-1.65zm9.756 0c-.616 0-1.1-.176-1.452-.528-.352-.352-.528-.836-.528-1.452v-2.585h-1.595V15.95h1.595v-1.705h1.65v1.705h2.255v1.485h-2.255v2.585c0 .33.165.495.495.495h1.65V22h-1.815zm5.873.11c-.535 0-1.005-.099-1.408-.297a2.296 2.296 0 01-.924-.847c-.213-.367-.319-.792-.319-1.276v-1.43c0-.484.106-.906.319-1.265.22-.367.528-.649.924-.847.403-.205.873-.308 1.408-.308.535 0 .997.103 1.386.308.396.198.7.48.913.847.22.36.33.781.33 1.265v1.1h-3.707v.33c0 .381.092.671.275.869.183.19.458.286.825.286.257 0 .462-.044.616-.132a.64.64 0 00.319-.363h1.617a2.14 2.14 0 01-.902 1.276c-.462.323-1.019.484-1.672.484zm1.056-3.597v-.275c0-.374-.088-.66-.264-.858-.169-.198-.433-.297-.792-.297-.359 0-.631.103-.814.308-.176.205-.264.495-.264.869v.165l2.244-.022-.11.11zM141.823 22v-6.05h1.54v1.155h.418l-.473.704c0-.653.151-1.144.451-1.474.301-.33.741-.495 1.32-.495.668 0 1.185.202 1.551.605.374.403.561.972.561 1.705v.495h-1.76v-.385c0-.33-.091-.587-.275-.77-.176-.183-.414-.275-.715-.275-.315 0-.557.092-.726.275-.161.183-.242.44-.242.77V22h-1.65zm15.476.11c-.499 0-.939-.092-1.32-.275a2.07 2.07 0 01-.869-.814c-.198-.36-.297-.777-.297-1.254v-1.584c0-.484.099-.902.297-1.254a2 2 0 01.869-.803c.381-.19.821-.286 1.32-.286.726 0 1.309.19 1.749.572.44.381.671.902.693 1.562h-1.188c-.022-.345-.143-.612-.363-.803-.22-.19-.517-.286-.891-.286-.404 0-.723.114-.957.341-.235.22-.352.535-.352.946v1.595c0 .41.117.73.352.957.234.227.553.341.957.341.374 0 .671-.095.891-.286.22-.19.341-.458.363-.803h1.188c-.022.66-.253 1.18-.693 1.562-.44.381-1.023.572-1.749.572zm5.895-.11v-4.983h-2.134V15.95h5.456v1.067h-2.134V22h-1.188zm4.74 1.98v-8.03h1.177v1.155h.253l-.253.275c0-.477.147-.85.44-1.122.301-.279.7-.418 1.199-.418.609 0 1.093.205 1.452.616.367.403.55.957.55 1.661v1.705c0 .47-.084.876-.253 1.221a1.866 1.866 0 01-.693.792c-.293.183-.645.275-1.056.275-.491 0-.887-.136-1.188-.407-.301-.279-.451-.656-.451-1.133l.253.275h-.275l.033 1.408v1.727h-1.188zm2.409-2.904c.389 0 .689-.11.902-.33.22-.227.33-.554.33-.979v-1.584c0-.425-.11-.748-.33-.968-.213-.227-.513-.341-.902-.341-.374 0-.671.117-.891.352-.22.227-.33.546-.33.957v1.584c0 .41.11.733.33.968.22.227.517.341.891.341zm6.489 1.034c-.491 0-.924-.095-1.298-.286a2.084 2.084 0 01-.847-.825c-.198-.352-.297-.763-.297-1.232v-1.584c0-.477.099-.887.297-1.232.198-.352.48-.623.847-.814.374-.198.807-.297 1.298-.297.499 0 .931.099 1.298.297.367.19.649.462.847.814.198.345.297.755.297 1.232v1.078h-3.74v.506c0 .447.11.788.33 1.023.227.235.554.352.979.352.345 0 .623-.059.836-.176a.799.799 0 00.396-.539h1.177a1.833 1.833 0 01-.792 1.232c-.44.3-.983.451-1.628.451zm1.298-3.564v-.374c0-.44-.11-.781-.33-1.023-.22-.242-.543-.363-.968-.363-.418 0-.741.121-.968.363-.22.242-.33.587-.33 1.034v.275l2.684-.011-.088.099zM180.78 22v-6.05h1.496l.77 2.299c.081.242.151.477.209.704.059.22.099.389.121.506.03-.117.07-.286.121-.506.059-.227.125-.462.198-.704l.737-2.299h1.496V22h-1.122v-.979c0-.308.004-.642.011-1.001.015-.367.026-.737.033-1.111l.044-1.067c.015-.345.03-.649.044-.913l-1.001 3.289h-1.144l-1.023-3.267c.022.323.041.719.055 1.188.022.47.041.957.055 1.463.015.499.022.972.022 1.419V22h-1.122zm6.743 0v-6.05h1.089v3.135c0 .205-.008.433-.022.682a18.302 18.302 0 01-.121 1.309l2.277-5.126h1.485V22h-1.089v-3.135c0-.205.007-.425.022-.66a18.222 18.222 0 01.121-1.265L189.008 22h-1.485zm5.84.077v-1.089h.231c.293 0 .506-.117.638-.352.139-.235.212-.63.22-1.188l.066-3.498h4.235V22h-1.188v-4.961h-1.881l-.055 2.475c-.015.58-.096 1.06-.242 1.441-.14.381-.352.664-.638.847-.286.183-.646.275-1.078.275h-.308zm9.591.033c-.499 0-.939-.092-1.32-.275a2.07 2.07 0 01-.869-.814c-.198-.36-.297-.777-.297-1.254v-1.584c0-.484.099-.902.297-1.254a2 2 0 01.869-.803c.381-.19.821-.286 1.32-.286.726 0 1.309.19 1.749.572.44.381.671.902.693 1.562h-1.188c-.022-.345-.143-.612-.363-.803-.22-.19-.517-.286-.891-.286-.403 0-.722.114-.957.341-.235.22-.352.535-.352.946v1.595c0 .41.117.73.352.957.235.227.554.341.957.341.374 0 .671-.095.891-.286.22-.19.341-.458.363-.803h1.188c-.022.66-.253 1.18-.693 1.562-.44.381-1.023.572-1.749.572zm3.816-.11l1.485-2.266c-.44-.125-.785-.345-1.034-.66-.242-.315-.363-.7-.363-1.155 0-.616.205-1.096.616-1.441.411-.352.972-.528 1.683-.528h2.64V22h-1.177v-2.156h-1.155L208.134 22h-1.364zm2.42-3.146h1.43v-1.892h-1.43c-.352 0-.631.084-.836.253-.198.161-.297.392-.297.693 0 .3.099.535.297.704.205.161.484.242.836.242zm13.297 3.245c-.498 0-.931-.095-1.298-.286a2.02 2.02 0 01-.847-.814c-.198-.352-.297-.766-.297-1.243v-1.562c0-.484.099-.898.297-1.243a2.02 2.02 0 01.847-.814c.367-.19.8-.286 1.298-.286.499 0 .932.095 1.298.286.367.19.649.462.847.814.198.345.297.759.297 1.243v1.562c0 .477-.099.891-.297 1.243-.198.352-.48.623-.847.814-.366.19-.799.286-1.298.286zm0-1.045c.404 0 .715-.11.935-.33.22-.227.33-.55.33-.968v-1.562c0-.425-.11-.748-.33-.968-.22-.22-.531-.33-.935-.33-.396 0-.707.11-.935.33-.22.22-.33.543-.33.968v1.562c0 .418.11.74.33.968.228.22.539.33.935.33zm4.169.946v-6.05h4.708V22h-1.188v-4.961h-2.332V22h-1.188zm8.282 0v-4.983h-2.134V15.95h5.456v1.067h-2.134V22h-1.188zm4.762 0v-6.05h1.089v3.135c0 .205-.007.433-.022.682a18.302 18.302 0 01-.121 1.309l2.277-5.126h1.485V22h-1.089v-3.135c0-.205.007-.425.022-.66.015-.242.033-.477.055-.704.022-.227.044-.414.066-.561L241.185 22H239.7zm6.302 0v-6.05h1.496l.77 2.299c.081.242.15.477.209.704.059.22.099.389.121.506.029-.117.07-.286.121-.506.059-.227.125-.462.198-.704l.737-2.299h1.496V22h-1.122v-.979c0-.308.004-.642.011-1.001.015-.367.026-.737.033-1.111.015-.374.029-.73.044-1.067.015-.345.029-.649.044-.913l-1.001 3.289h-1.144l-1.023-3.267c.022.323.04.719.055 1.188.022.47.04.957.055 1.463.015.499.022.972.022 1.419V22h-1.122zm6.742 0v-6.05h1.089v3.135c0 .205-.007.433-.022.682a20.081 20.081 0 01-.121 1.309l2.277-5.126h1.485V22h-1.089v-3.135c0-.205.008-.425.022-.66.015-.242.033-.477.055-.704.022-.227.044-.414.066-.561L254.229 22h-1.485zm8.579.077c-.645 0-1.177-.143-1.595-.429a1.772 1.772 0 01-.759-1.177h1.21c.052.176.18.323.385.44.206.11.459.165.759.165h.55c.33 0 .587-.077.77-.231a.75.75 0 00.275-.605.762.762 0 00-.275-.616c-.176-.154-.432-.231-.77-.231h-1.353v-.968h1.309c.308 0 .543-.07.704-.209a.748.748 0 00.242-.583.712.712 0 00-.11-.407.609.609 0 00-.308-.264 1.331 1.331 0 00-.517-.088h-.539c-.271 0-.506.062-.704.187-.19.117-.308.268-.352.451h-1.21a1.78 1.78 0 01.737-1.177c.418-.308.928-.462 1.529-.462h.539c.448 0 .833.07 1.155.209.323.132.569.323.737.572.176.25.264.543.264.88 0 .374-.128.682-.385.924-.256.235-.608.36-1.056.374.528.03.924.172 1.188.429.264.25.396.601.396 1.056 0 .535-.205.964-.616 1.287-.41.315-.96.473-1.65.473h-.55zm4.466-.077v-6.05h1.089v3.135c0 .205-.008.433-.022.682a18.302 18.302 0 01-.121 1.309l2.277-5.126h1.485V22h-1.089v-3.135c0-.205.007-.425.022-.66a18.222 18.222 0 01.121-1.265L267.274 22h-1.485zm6.5 1.98v-8.03h1.177v1.155h.253l-.253.275c0-.477.146-.85.44-1.122.3-.279.7-.418 1.199-.418.608 0 1.092.205 1.452.616.366.403.55.957.55 1.661v1.705c0 .47-.085.876-.253 1.221a1.88 1.88 0 01-.693.792c-.294.183-.646.275-1.056.275-.492 0-.888-.136-1.188-.407-.301-.279-.451-.656-.451-1.133l.253.275h-.275l.033 1.408v1.727h-1.188zm2.409-2.904c.388 0 .689-.11.902-.33.22-.227.33-.554.33-.979v-1.584c0-.425-.11-.748-.33-.968-.213-.227-.514-.341-.902-.341-.374 0-.671.117-.891.352-.22.227-.33.546-.33.957v1.584c0 .41.11.733.33.968.22.227.517.341.891.341zm6.489 1.023c-.499 0-.931-.095-1.298-.286a2.015 2.015 0 01-.847-.814c-.198-.352-.297-.766-.297-1.243v-1.562c0-.484.099-.898.297-1.243.198-.352.48-.623.847-.814.367-.19.799-.286 1.298-.286s.931.095 1.298.286c.367.19.649.462.847.814.198.345.297.759.297 1.243v1.562c0 .477-.099.891-.297 1.243-.198.352-.48.623-.847.814-.367.19-.799.286-1.298.286zm0-1.045c.403 0 .715-.11.935-.33.22-.227.33-.55.33-.968v-1.562c0-.425-.11-.748-.33-.968-.22-.22-.532-.33-.935-.33-.396 0-.708.11-.935.33-.22.22-.33.543-.33.968v1.562c0 .418.11.74.33.968.227.22.539.33.935.33zm4.157.946v-6.05h2.662c.66 0 1.177.143 1.551.429.374.286.561.682.561 1.188 0 .418-.15.752-.451 1.001-.301.25-.697.374-1.188.374v-.099c.535 0 .964.132 1.287.396.33.257.495.601.495 1.034 0 .543-.194.968-.583 1.276-.389.3-.924.451-1.606.451h-2.728zm1.166-.957h1.54c.323 0 .576-.073.759-.22a.72.72 0 00.286-.605c0-.264-.095-.47-.286-.616-.183-.154-.436-.231-.759-.231h-1.54v1.672zm0-2.552h1.496c.293 0 .524-.07.693-.209.169-.14.253-.334.253-.583a.701.701 0 00-.253-.572c-.169-.147-.4-.22-.693-.22h-1.496v1.584zm7.116 3.619c-.63 0-1.129-.161-1.496-.484-.359-.33-.539-.777-.539-1.342 0-.572.191-1.02.572-1.342.389-.33.921-.495 1.595-.495h1.683v-.561c0-.33-.102-.587-.308-.77-.205-.183-.495-.275-.869-.275-.33 0-.605.073-.825.22a.791.791 0 00-.385.561h-1.166c.066-.543.316-.975.748-1.298.44-.323.994-.484 1.661-.484.719 0 1.287.183 1.705.55.418.36.627.85.627 1.474V22h-1.155v-1.111h-.198l.198-.22c0 .44-.168.792-.506 1.056-.337.257-.784.385-1.342.385zm.352-.913c.426 0 .774-.106 1.045-.319a1.02 1.02 0 00.418-.836v-.792h-1.661c-.308 0-.553.084-.737.253-.176.169-.264.4-.264.693 0 .308.107.554.319.737.213.176.506.264.88.264zm6.181.803v-4.983h-2.134V15.95h5.456v1.067h-2.134V22h-1.188zm4.807 0v-6.05h1.188v2.101h1.672c.704 0 1.257.176 1.661.528.403.352.605.836.605 1.452 0 .601-.206 1.082-.616 1.441-.404.352-.954.528-1.65.528h-2.86zm1.188-1.056h1.639c.352 0 .619-.077.803-.231.19-.161.286-.392.286-.693 0-.293-.096-.517-.286-.671-.184-.161-.451-.242-.803-.242h-1.639v1.837zm14.199 1.166c-.499 0-.939-.092-1.32-.275a2.07 2.07 0 01-.869-.814c-.198-.36-.297-.777-.297-1.254v-1.584c0-.484.099-.902.297-1.254a2 2 0 01.869-.803c.381-.19.821-.286 1.32-.286.726 0 1.309.19 1.749.572.44.381.671.902.693 1.562h-1.188c-.022-.345-.143-.612-.363-.803-.22-.19-.517-.286-.891-.286-.403 0-.722.114-.957.341-.235.22-.352.535-.352.946v1.595c0 .41.117.73.352.957.235.227.554.341.957.341.374 0 .671-.095.891-.286.22-.19.341-.458.363-.803h1.188c-.022.66-.253 1.18-.693 1.562-.44.381-1.023.572-1.749.572zm4.124-.11v-6.05h2.662c.66 0 1.177.143 1.551.429.374.286.561.682.561 1.188 0 .418-.15.752-.451 1.001-.3.25-.696.374-1.188.374v-.099c.536 0 .965.132 1.287.396.33.257.495.601.495 1.034 0 .543-.194.968-.583 1.276-.388.3-.924.451-1.606.451h-2.728zm1.166-.957h1.54c.323 0 .576-.073.759-.22a.72.72 0 00.286-.605c0-.264-.095-.47-.286-.616-.183-.154-.436-.231-.759-.231h-1.54v1.672zm0-2.552h1.496c.294 0 .525-.07.693-.209.169-.14.253-.334.253-.583a.701.701 0 00-.253-.572c-.168-.147-.399-.22-.693-.22h-1.496v1.584zm7.721 3.608c-.498 0-.931-.095-1.298-.286a2.02 2.02 0 01-.847-.814c-.198-.352-.297-.766-.297-1.243v-1.562c0-.484.099-.898.297-1.243a2.02 2.02 0 01.847-.814c.367-.19.8-.286 1.298-.286.499 0 .932.095 1.298.286.367.19.649.462.847.814.198.345.297.759.297 1.243v1.562c0 .477-.099.891-.297 1.243-.198.352-.48.623-.847.814-.366.19-.799.286-1.298.286zm0-1.045c.404 0 .715-.11.935-.33.22-.227.33-.55.33-.968v-1.562c0-.425-.11-.748-.33-.968-.22-.22-.531-.33-.935-.33-.396 0-.707.11-.935.33-.22.22-.33.543-.33.968v1.562c0 .418.11.74.33.968.228.22.539.33.935.33zm4.169.946v-6.05h1.089v3.135c0 .205-.008.433-.022.682a18.302 18.302 0 01-.121 1.309l2.277-5.126h1.485V22h-1.089v-3.135c0-.205.007-.425.022-.66a18.222 18.222 0 01.121-1.265L339.018 22h-1.485zM20.3 42.11c-.74-.007-1.327-.22-1.76-.638-.433-.425-.649-1.005-.649-1.738v-2.739c0-.968.25-1.712.748-2.233.506-.528 1.225-.792 2.156-.792h1.617v1.166h-1.617c-.565 0-.994.161-1.287.484-.286.315-.429.774-.429 1.375v.726h.154l-.143.209c0-.425.14-.759.418-1.001.286-.25.678-.374 1.177-.374.638 0 1.133.209 1.485.627.36.41.539.979.539 1.705v.847c0 .491-.099.917-.297 1.276-.19.352-.466.623-.825.814-.36.19-.788.286-1.287.286zm0-1.045c.396 0 .697-.114.902-.341.213-.235.319-.565.319-.99v-.847c0-.433-.106-.763-.319-.99-.205-.235-.506-.352-.902-.352s-.7.114-.913.341c-.205.227-.308.561-.308 1.001v.847c0 .425.103.755.308.99.213.227.517.341.913.341zm4.168.935v-6.05h1.09v3.135c0 .205-.008.433-.023.682a21.87 21.87 0 01-.12 1.309l2.276-5.126h1.485V42h-1.089v-3.135c0-.205.008-.425.022-.66a19.5 19.5 0 01.055-.704c.022-.227.044-.414.066-.561L25.953 42h-1.485zm8.58.077c-.646 0-1.178-.143-1.596-.429a1.772 1.772 0 01-.759-1.177h1.21c.052.176.18.323.385.44.206.11.459.165.76.165h.55c.33 0 .586-.077.77-.231a.752.752 0 00.274-.605.764.764 0 00-.275-.616c-.176-.154-.432-.231-.77-.231h-1.353v-.968h1.31c.307 0 .542-.07.703-.209a.75.75 0 00.242-.583.717.717 0 00-.11-.407.611.611 0 00-.308-.264 1.334 1.334 0 00-.517-.088h-.539c-.271 0-.506.062-.704.187-.19.117-.308.268-.352.451h-1.21a1.78 1.78 0 01.737-1.177c.418-.308.928-.462 1.53-.462h.538c.448 0 .833.07 1.155.209.323.132.569.323.737.572.176.25.264.543.264.88 0 .374-.128.682-.385.924-.256.235-.608.36-1.056.374.528.03.924.172 1.188.429.264.25.396.601.396 1.056 0 .535-.205.964-.616 1.287-.41.315-.96.473-1.65.473h-.55zM37.512 42v-6.05H38.7v2.431h2.331V35.95h1.189V42h-1.188v-2.53H38.7V42h-1.188zm8.876.11c-.492 0-.924-.095-1.298-.286a2.086 2.086 0 01-.847-.825c-.198-.352-.297-.763-.297-1.232v-1.584c0-.477.099-.887.297-1.232.198-.352.48-.623.847-.814.374-.198.806-.297 1.298-.297.498 0 .931.099 1.298.297.366.19.649.462.847.814.198.345.297.755.297 1.232v1.078h-3.74v.506c0 .447.11.788.33 1.023.227.235.553.352.979.352.344 0 .623-.059.836-.176a.8.8 0 00.396-.539h1.177a1.833 1.833 0 01-.792 1.232c-.44.3-.983.451-1.628.451zm1.298-3.564v-.374c0-.44-.11-.781-.33-1.023-.22-.242-.543-.363-.968-.363-.418 0-.741.121-.968.363-.22.242-.33.587-.33 1.034v.275l2.684-.011-.088.099zm5.257 3.564c-.499 0-.939-.092-1.32-.275a2.071 2.071 0 01-.87-.814c-.197-.36-.296-.777-.296-1.254v-1.584c0-.484.099-.902.297-1.254.205-.352.495-.62.869-.803.381-.19.821-.286 1.32-.286.726 0 1.309.19 1.749.572.44.381.67.902.693 1.562h-1.188c-.022-.345-.143-.612-.363-.803-.22-.19-.517-.286-.891-.286-.404 0-.723.114-.957.341-.235.22-.352.535-.352.946v1.595c0 .41.117.73.352.957.234.227.553.341.957.341.374 0 .67-.095.89-.286.22-.19.342-.458.364-.803h1.188c-.022.66-.253 1.18-.693 1.562-.44.381-1.023.572-1.75.572zm4.729-3.201v-1.078h3.52v1.078h-3.52zM63.601 42v-6.05h4.708V42h-1.188v-4.961H64.79V42h-1.188zm6.5 1.98v-8.03h1.177v1.155h.253l-.253.275c0-.477.147-.85.44-1.122.301-.279.7-.418 1.2-.418.608 0 1.092.205 1.451.616.367.403.55.957.55 1.661v1.705c0 .47-.084.876-.253 1.221a1.87 1.87 0 01-.693.792c-.293.183-.645.275-1.056.275-.49 0-.887-.136-1.188-.407-.3-.279-.45-.656-.45-1.133l.252.275h-.275l.033 1.408v1.727h-1.188zm2.41-2.904c.388 0 .689-.11.901-.33.22-.227.33-.554.33-.979v-1.584c0-.425-.11-.748-.33-.968-.212-.227-.513-.341-.902-.341-.374 0-.67.117-.89.352-.22.227-.33.546-.33.957v1.584c0 .41.11.733.33.968.22.227.516.341.89.341zM79 42.099c-.5 0-.932-.095-1.298-.286a2.016 2.016 0 01-.847-.814c-.198-.352-.297-.766-.297-1.243v-1.562c0-.484.099-.898.297-1.243.198-.352.48-.623.847-.814.366-.19.799-.286 1.298-.286.498 0 .93.095 1.298.286.366.19.649.462.847.814.198.345.297.759.297 1.243v1.562c0 .477-.1.891-.297 1.243-.198.352-.48.623-.847.814-.367.19-.8.286-1.298.286zm0-1.045c.403 0 .715-.11.935-.33.22-.227.33-.55.33-.968v-1.562c0-.425-.11-.748-.33-.968-.22-.22-.532-.33-.935-.33-.396 0-.708.11-.935.33-.22.22-.33.543-.33.968v1.562c0 .418.11.74.33.968.227.22.539.33.935.33zm8.403 2.486V42h-4.235v-6.05h1.188v4.972h2.112V35.95h1.188v4.972h.825v2.618h-1.078zm4.64-1.43c-.49 0-.923-.095-1.297-.286a2.086 2.086 0 01-.847-.825c-.198-.352-.297-.763-.297-1.232v-1.584c0-.477.099-.887.297-1.232.198-.352.48-.623.847-.814.374-.198.807-.297 1.298-.297.499 0 .931.099 1.298.297.367.19.649.462.847.814.198.345.297.755.297 1.232v1.078h-3.74v.506c0 .447.11.788.33 1.023.227.235.554.352.979.352.345 0 .623-.059.836-.176a.8.8 0 00.396-.539h1.177a1.833 1.833 0 01-.792 1.232c-.44.3-.983.451-1.628.451zm1.299-3.564v-.374c0-.44-.11-.781-.33-1.023-.22-.242-.543-.363-.968-.363-.418 0-.74.121-.968.363-.22.242-.33.587-.33 1.034v.275l2.684-.011-.088.099zm5.257 3.564c-.499 0-.939-.092-1.32-.275a2.071 2.071 0 01-.869-.814c-.198-.36-.297-.777-.297-1.254v-1.584c0-.484.1-.902.297-1.254.205-.352.495-.62.87-.803.38-.19.82-.286 1.32-.286.725 0 1.308.19 1.748.572.44.381.671.902.693 1.562h-1.188c-.022-.345-.143-.612-.363-.803-.22-.19-.517-.286-.89-.286-.404 0-.723.114-.958.341-.235.22-.352.535-.352.946v1.595c0 .41.117.73.352.957.235.227.554.341.957.341.374 0 .671-.095.891-.286.22-.19.341-.458.363-.803h1.188c-.022.66-.253 1.18-.693 1.562-.44.381-1.023.572-1.749.572zm6.522 0c-.498 0-.938-.092-1.32-.275a2.075 2.075 0 01-.869-.814c-.198-.36-.297-.777-.297-1.254v-1.584c0-.484.099-.902.297-1.254.206-.352.495-.62.869-.803.382-.19.822-.286 1.32-.286.726 0 1.309.19 1.749.572.44.381.671.902.693 1.562h-1.188c-.022-.345-.143-.612-.363-.803-.22-.19-.517-.286-.891-.286-.403 0-.722.114-.957.341-.234.22-.352.535-.352.946v1.595c0 .41.118.73.352.957.235.227.554.341.957.341.374 0 .671-.095.891-.286.22-.19.341-.458.363-.803h1.188c-.022.66-.253 1.18-.693 1.562-.44.381-1.023.572-1.749.572zm3.827-.11v-6.05h1.056v2.134h.44c.653 0 1.17.176 1.551.528.382.352.572.832.572 1.441 0 .601-.19 1.078-.572 1.43-.381.345-.898.517-1.551.517h-1.496zm1.056-.935h.44c.352 0 .624-.088.814-.264.198-.176.297-.425.297-.748 0-.33-.099-.583-.297-.759-.19-.183-.462-.275-.814-.275h-.44v2.046zm3.212.935v-6.05h1.056V42h-1.056zm9.085 0v-6.05h1.089v3.135c0 .205-.008.433-.022.682a18.302 18.302 0 01-.121 1.309l2.277-5.126h1.485V42h-1.089v-3.135c0-.205.007-.425.022-.66a18.222 18.222 0 01.121-1.265L123.786 42h-1.485zm13.044 0v-6.05h4.708V42h-1.188v-4.961h-2.332V42h-1.188zm6.5 1.98v-8.03h1.177v1.155h.253l-.253.275c0-.477.147-.85.44-1.122.301-.279.701-.418 1.199-.418.609 0 1.093.205 1.452.616.367.403.55.957.55 1.661v1.705c0 .47-.084.876-.253 1.221a1.866 1.866 0 01-.693.792c-.293.183-.645.275-1.056.275-.491 0-.887-.136-1.188-.407-.3-.279-.451-.656-.451-1.133l.253.275H143l.033 1.408v1.727h-1.188zm2.409-2.904c.389 0 .69-.11.902-.33.22-.227.33-.554.33-.979v-1.584c0-.425-.11-.748-.33-.968-.212-.227-.513-.341-.902-.341-.374 0-.671.117-.891.352-.22.227-.33.546-.33.957v1.584c0 .41.11.733.33.968.22.227.517.341.891.341zm4.135.924v-6.05h1.089v3.135c0 .205-.007.433-.022.682a20.081 20.081 0 01-.121 1.309l2.277-5.126h1.485V42h-1.089v-3.135c0-.205.008-.425.022-.66.015-.242.033-.477.055-.704.022-.227.044-.414.066-.561L149.874 42h-1.485zm6.512 0v-6.05h2.662c.66 0 1.177.143 1.551.429.374.286.561.682.561 1.188 0 .418-.151.752-.451 1.001-.301.25-.697.374-1.188.374v-.099c.535 0 .964.132 1.287.396.33.257.495.601.495 1.034 0 .543-.195.968-.583 1.276-.389.3-.924.451-1.606.451h-2.728zm1.166-.957h1.54c.322 0 .575-.073.759-.22a.723.723 0 00.286-.605c0-.264-.096-.47-.286-.616-.184-.154-.437-.231-.759-.231h-1.54v1.672zm0-2.552h1.496c.293 0 .524-.07.693-.209.168-.14.253-.334.253-.583a.704.704 0 00-.253-.572c-.169-.147-.4-.22-.693-.22h-1.496v1.584zm4.685 3.586v-1.089h.231c.293 0 .506-.117.638-.352.139-.235.212-.63.22-1.188l.066-3.498h4.235V42h-1.188v-4.961h-1.881l-.055 2.475c-.015.58-.096 1.06-.242 1.441-.14.381-.352.664-.638.847-.286.183-.646.275-1.078.275h-.308zm9.558.033c-.491 0-.924-.095-1.298-.286a2.084 2.084 0 01-.847-.825c-.198-.352-.297-.763-.297-1.232v-1.584c0-.477.099-.887.297-1.232.198-.352.48-.623.847-.814.374-.198.807-.297 1.298-.297.499 0 .931.099 1.298.297.367.19.649.462.847.814.198.345.297.755.297 1.232v1.078h-3.74v.506c0 .447.11.788.33 1.023.227.235.554.352.979.352.345 0 .623-.059.836-.176a.799.799 0 00.396-.539h1.177a1.833 1.833 0 01-.792 1.232c-.44.3-.983.451-1.628.451zm1.298-3.564v-.374c0-.44-.11-.781-.33-1.023-.22-.242-.543-.363-.968-.363-.418 0-.741.121-.968.363-.22.242-.33.587-.33 1.034v.275l2.684-.011-.088.099zM177.943 42v-2.123c-.11.03-.279.059-.506.088-.22.022-.455.033-.704.033-.763.007-1.36-.18-1.793-.561-.425-.381-.638-.91-.638-1.584V35.95h1.188v1.87c0 .345.117.616.352.814.235.198.561.297.979.297.271 0 .506-.011.704-.033a3.41 3.41 0 00.418-.077V35.95h1.188V42h-1.188zm3.101 0v-6.05h1.188v2.101h1.672c.704 0 1.258.176 1.661.528.404.352.605.836.605 1.452 0 .601-.205 1.082-.616 1.441-.403.352-.953.528-1.65.528h-2.86zm1.188-1.056h1.639c.352 0 .62-.077.803-.231.191-.161.286-.392.286-.693 0-.293-.095-.517-.286-.671-.183-.161-.451-.242-.803-.242h-1.639v1.837zm14.167 1.166c-.741-.007-1.328-.22-1.76-.638-.433-.425-.649-1.005-.649-1.738v-2.739c0-.968.249-1.712.748-2.233.506-.528 1.224-.792 2.156-.792h1.617v1.166h-1.617c-.565 0-.994.161-1.287.484-.286.315-.429.774-.429 1.375v.726h.154l-.143.209c0-.425.139-.759.418-1.001.286-.25.678-.374 1.177-.374.638 0 1.133.209 1.485.627.359.41.539.979.539 1.705v.847c0 .491-.099.917-.297 1.276a1.967 1.967 0 01-.825.814c-.36.19-.789.286-1.287.286zm0-1.045c.396 0 .696-.114.902-.341.212-.235.319-.565.319-.99v-.847c0-.433-.107-.763-.319-.99-.206-.235-.506-.352-.902-.352s-.701.114-.913.341c-.206.227-.308.561-.308 1.001v.847c0 .425.102.755.308.99.212.227.517.341.913.341zm6.522 1.034c-.499 0-.931-.095-1.298-.286a2.015 2.015 0 01-.847-.814c-.198-.352-.297-.766-.297-1.243v-1.562c0-.484.099-.898.297-1.243.198-.352.48-.623.847-.814.367-.19.799-.286 1.298-.286s.931.095 1.298.286c.367.19.649.462.847.814.198.345.297.759.297 1.243v1.562c0 .477-.099.891-.297 1.243-.198.352-.48.623-.847.814-.367.19-.799.286-1.298.286zm0-1.045c.403 0 .715-.11.935-.33.22-.227.33-.55.33-.968v-1.562c0-.425-.11-.748-.33-.968-.22-.22-.532-.33-.935-.33-.396 0-.708.11-.935.33-.22.22-.33.543-.33.968v1.562c0 .418.11.74.33.968.227.22.539.33.935.33zm3.486 1.023v-1.089h.231c.293 0 .506-.117.638-.352.139-.235.213-.63.22-1.188l.066-3.498h4.235V42h-1.188v-4.961h-1.881l-.055 2.475c-.015.58-.095 1.06-.242 1.441-.139.381-.352.664-.638.847-.286.183-.645.275-1.078.275h-.308zm7.248-.077v-6.05h1.188v2.101h1.672c.704 0 1.258.176 1.661.528.404.352.605.836.605 1.452 0 .601-.205 1.082-.616 1.441-.403.352-.953.528-1.65.528h-2.86zm1.188-1.056h1.639c.352 0 .62-.077.803-.231.191-.161.286-.392.286-.693 0-.293-.095-.517-.286-.671-.183-.161-.451-.242-.803-.242h-1.639v1.837zM219.825 42l-.011-6.05h1.045v5.192h1.188V35.95h.891v5.192h1.177V35.95h1.045V42h-5.335zm9.185.11c-.492 0-.924-.095-1.298-.286a2.084 2.084 0 01-.847-.825c-.198-.352-.297-.763-.297-1.232v-1.584c0-.477.099-.887.297-1.232.198-.352.48-.623.847-.814.374-.198.806-.297 1.298-.297.498 0 .931.099 1.298.297.366.19.649.462.847.814.198.345.297.755.297 1.232v1.078h-3.74v.506c0 .447.11.788.33 1.023.227.235.553.352.979.352.344 0 .623-.059.836-.176a.805.805 0 00.396-.539h1.177a1.833 1.833 0 01-.792 1.232c-.44.3-.983.451-1.628.451zm1.298-3.564v-.374c0-.44-.11-.781-.33-1.023-.22-.242-.543-.363-.968-.363-.418 0-.741.121-.968.363-.22.242-.33.587-.33 1.034v.275l2.684-.011-.088.099zM239.733 42v-6.05h1.188v2.431h.968l1.606-2.431h1.342l-1.925 2.904L244.87 42h-1.364l-1.617-2.596h-.968V42h-1.188zm5.807.077v-1.089h.231c.293 0 .506-.117.638-.352.139-.235.213-.63.22-1.188l.066-3.498h4.235V42h-1.188v-4.961h-1.881l-.055 2.475c-.015.58-.095 1.06-.242 1.441-.139.381-.352.664-.638.847-.286.183-.645.275-1.078.275h-.308zm7.204-.077v-6.05h1.089v3.135c0 .205-.007.433-.022.682a20.081 20.081 0 01-.121 1.309l2.277-5.126h1.485V42h-1.089v-3.135c0-.205.008-.425.022-.66.015-.242.033-.477.055-.704.022-.227.044-.414.066-.561L254.229 42h-1.485zm8.876.11c-.491 0-.924-.095-1.298-.286a2.09 2.09 0 01-.847-.825c-.198-.352-.297-.763-.297-1.232v-1.584c0-.477.099-.887.297-1.232a2.02 2.02 0 01.847-.814c.374-.198.807-.297 1.298-.297.499 0 .932.099 1.298.297.367.19.649.462.847.814.198.345.297.755.297 1.232v1.078h-3.74v.506c0 .447.11.788.33 1.023.228.235.554.352.979.352.345 0 .624-.059.836-.176a.799.799 0 00.396-.539h1.177a1.833 1.833 0 01-.792 1.232c-.44.3-.982.451-1.628.451zm1.298-3.564v-.374c0-.44-.11-.781-.33-1.023-.22-.242-.542-.363-.968-.363-.418 0-.74.121-.968.363-.22.242-.33.587-.33 1.034v.275l2.684-.011-.088.099zM265.789 42v-6.05h1.188v2.431h2.332V35.95h1.188V42h-1.188v-2.53h-2.332V42h-1.188zm8.282 0v-4.983h-2.134V35.95h5.456v1.067h-2.134V42h-1.188zm7.116.099c-.499 0-.931-.095-1.298-.286a2.015 2.015 0 01-.847-.814c-.198-.352-.297-.766-.297-1.243v-1.562c0-.484.099-.898.297-1.243.198-.352.48-.623.847-.814.367-.19.799-.286 1.298-.286s.931.095 1.298.286c.367.19.649.462.847.814.198.345.297.759.297 1.243v1.562c0 .477-.099.891-.297 1.243-.198.352-.48.623-.847.814-.367.19-.799.286-1.298.286zm0-1.045c.403 0 .715-.11.935-.33.22-.227.33-.55.33-.968v-1.562c0-.425-.11-.748-.33-.968-.22-.22-.532-.33-.935-.33-.396 0-.708.11-.935.33-.22.22-.33.543-.33.968v1.562c0 .418.11.74.33.968.227.22.539.33.935.33zm4.157.946v-6.05h2.662c.66 0 1.177.143 1.551.429.374.286.561.682.561 1.188 0 .418-.15.752-.451 1.001-.301.25-.697.374-1.188.374v-.099c.535 0 .964.132 1.287.396.33.257.495.601.495 1.034 0 .543-.194.968-.583 1.276-.389.3-.924.451-1.606.451h-2.728zm1.166-.957h1.54c.323 0 .576-.073.759-.22a.72.72 0 00.286-.605c0-.264-.095-.47-.286-.616-.183-.154-.436-.231-.759-.231h-1.54v1.672zm0-2.552h1.496c.293 0 .524-.07.693-.209.169-.14.253-.334.253-.583a.701.701 0 00-.253-.572c-.169-.147-.4-.22-.693-.22h-1.496v1.584zm7.721 3.619c-.293 0-.528-.084-.704-.253-.176-.176-.264-.41-.264-.704 0-.3.088-.539.264-.715.176-.183.411-.275.704-.275.301 0 .536.092.704.275.176.176.264.414.264.715 0 .293-.088.528-.264.704-.168.169-.403.253-.704.253zm10.68-.11v-8.03h1.188v3.322h2.354V33.97h1.188V42h-1.188v-3.608h-2.354V42h-1.188zm8.282.11c-.631 0-1.13-.161-1.496-.484-.36-.33-.539-.777-.539-1.342 0-.572.19-1.02.572-1.342.388-.33.92-.495 1.595-.495h1.683v-.561c0-.33-.103-.587-.308-.77-.206-.183-.495-.275-.869-.275-.33 0-.605.073-.825.22a.788.788 0 00-.385.561h-1.166c.066-.543.315-.975.748-1.298.44-.323.993-.484 1.661-.484.718 0 1.287.183 1.705.55.418.36.627.85.627 1.474V42h-1.155v-1.111h-.198l.198-.22c0 .44-.169.792-.506 1.056-.338.257-.785.385-1.342.385zm.352-.913c.425 0 .773-.106 1.045-.319.278-.22.418-.499.418-.836v-.792h-1.661c-.308 0-.554.084-.737.253-.176.169-.264.4-.264.693 0 .308.106.554.319.737.212.176.506.264.88.264zM17.726 62v-6.05h1.496l.77 2.299a11.33 11.33 0 01.33 1.21c.03-.117.07-.286.121-.506.059-.227.125-.462.198-.704l.737-2.299h1.496V62h-1.122v-.979c0-.308.004-.642.011-1.001.015-.367.026-.737.033-1.111l.044-1.067c.015-.345.03-.649.044-.913l-1.001 3.289h-1.144l-1.023-3.267c.022.323.04.719.055 1.188.022.47.04.957.055 1.463.015.499.022.972.022 1.419V62h-1.122zm9.096.099c-.498 0-.931-.095-1.298-.286a2.016 2.016 0 01-.847-.814c-.198-.352-.297-.766-.297-1.243v-1.562c0-.484.1-.898.297-1.243.198-.352.48-.623.847-.814.367-.19.8-.286 1.298-.286.499 0 .931.095 1.298.286.367.19.65.462.847.814.198.345.297.759.297 1.243v1.562c0 .477-.099.891-.297 1.243-.198.352-.48.623-.847.814-.367.19-.8.286-1.298.286zm0-1.045c.404 0 .715-.11.935-.33.22-.227.33-.55.33-.968v-1.562c0-.425-.11-.748-.33-.968-.22-.22-.532-.33-.935-.33-.396 0-.707.11-.935.33-.22.22-.33.543-.33.968v1.562c0 .418.11.74.33.968.227.22.54.33.935.33zM30.77 62v-6.05h1.496l.77 2.299a11.359 11.359 0 01.33 1.21c.03-.117.07-.286.121-.506.059-.227.125-.462.198-.704l.737-2.299h1.496V62h-1.122v-.979c0-.308.004-.642.011-1.001.015-.367.026-.737.033-1.111l.044-1.067c.015-.345.03-.649.044-.913l-1 3.289h-1.145l-1.023-3.267c.022.323.04.719.055 1.188.022.47.04.957.055 1.463.015.499.022.972.022 1.419V62H30.77zm9.097.11c-.492 0-.924-.095-1.298-.286a2.087 2.087 0 01-.848-.825c-.197-.352-.296-.763-.296-1.232v-1.584c0-.477.099-.887.297-1.232.197-.352.48-.623.846-.814.375-.198.807-.297 1.299-.297.498 0 .93.099 1.297.297.367.19.65.462.847.814.198.345.297.755.297 1.232v1.078h-3.74v.506c0 .447.11.788.33 1.023.228.235.554.352.98.352.344 0 .623-.059.836-.176a.8.8 0 00.395-.539h1.177a1.833 1.833 0 01-.791 1.232c-.44.3-.983.451-1.628.451zm1.297-3.564v-.374c0-.44-.11-.781-.33-1.023-.22-.242-.542-.363-.968-.363-.417 0-.74.121-.968.363-.22.242-.33.587-.33 1.034v.275l2.684-.011-.088.099zM44.034 62v-6.05h1.189v2.431h2.332V55.95h1.188V62h-1.188v-2.53h-2.332V62h-1.188zm8.283 0v-4.983h-2.134V55.95h5.456v1.067h-2.134V62h-1.188zM63.6 62v-6.05h1.188v2.431h2.332V55.95h1.188V62H67.12v-2.53h-2.33V62h-1.188zm8.271.11c-.63 0-1.129-.161-1.496-.484-.359-.33-.539-.777-.539-1.342 0-.572.191-1.02.572-1.342.39-.33.92-.495 1.595-.495h1.683v-.561c0-.33-.102-.587-.308-.77-.205-.183-.495-.275-.869-.275-.33 0-.605.073-.825.22a.79.79 0 00-.385.561h-1.166a1.83 1.83 0 01.748-1.298c.44-.323.994-.484 1.661-.484.72 0 1.287.183 1.705.55.418.36.627.85.627 1.474V62H73.72v-1.111h-.198l.198-.22c0 .44-.168.792-.506 1.056-.337.257-.784.385-1.342.385zm.352-.913c.426 0 .774-.106 1.045-.319.28-.22.418-.499.418-.836v-.792h-1.66c-.309 0-.554.084-.738.253-.176.169-.264.4-.264.693 0 .308.107.554.32.737.212.176.505.264.88.264zM80.11 62v-2.123c-.11.03-.28.059-.506.088a7.09 7.09 0 01-.704.033c-.763.007-1.36-.18-1.793-.561-.426-.381-.638-.91-.638-1.584V55.95h1.188v1.87c0 .345.117.616.352.814.234.198.56.297.979.297a6.5 6.5 0 00.704-.033c.205-.03.344-.055.418-.077V55.95h1.188V62H80.11zm4.806.11c-.63 0-1.13-.161-1.496-.484-.36-.33-.54-.777-.54-1.342 0-.572.191-1.02.573-1.342.388-.33.92-.495 1.595-.495h1.683v-.561c0-.33-.103-.587-.308-.77-.206-.183-.495-.275-.87-.275-.33 0-.604.073-.824.22a.79.79 0 00-.385.561h-1.166a1.83 1.83 0 01.748-1.298c.44-.323.993-.484 1.66-.484.72 0 1.288.183 1.706.55.418.36.627.85.627 1.474V62h-1.155v-1.111h-.198l.198-.22c0 .44-.169.792-.506 1.056-.338.257-.785.385-1.342.385zm.352-.913c.425 0 .773-.106 1.045-.319.278-.22.418-.499.418-.836v-.792H85.07c-.308 0-.554.084-.737.253-.176.169-.264.4-.264.693 0 .308.106.554.319.737.212.176.506.264.88.264zm3.739.88v-1.089h.23c.294 0 .507-.117.639-.352.14-.235.213-.63.22-1.188l.066-3.498h4.235V62H93.21v-4.961h-1.881l-.055 2.475c-.015.58-.095 1.06-.242 1.441-.14.381-.352.664-.638.847-.286.183-.645.275-1.078.275h-.308zm8.953.033c-.63 0-1.13-.161-1.496-.484-.36-.33-.539-.777-.539-1.342 0-.572.19-1.02.572-1.342.389-.33.92-.495 1.595-.495h1.683v-.561c0-.33-.103-.587-.308-.77-.205-.183-.495-.275-.869-.275-.33 0-.605.073-.825.22a.79.79 0 00-.385.561h-1.166a1.83 1.83 0 01.748-1.298c.44-.323.994-.484 1.661-.484.719 0 1.287.183 1.705.55.418.36.627.85.627 1.474V62h-1.155v-1.111h-.198l.198-.22c0 .44-.169.792-.506 1.056-.337.257-.785.385-1.342.385zm.352-.913c.425 0 .774-.106 1.045-.319.279-.22.418-.499.418-.836v-.792h-1.66c-.309 0-.555.084-.738.253-.176.169-.264.4-.264.693 0 .308.106.554.32.737.212.176.505.264.88.264zm10.921 2.783v-8.03h1.177v1.155h.253l-.253.275c0-.477.147-.85.44-1.122.301-.279.701-.418 1.199-.418.609 0 1.093.205 1.452.616.367.403.55.957.55 1.661v1.705c0 .47-.084.876-.253 1.221a1.866 1.866 0 01-.693.792c-.293.183-.645.275-1.056.275-.491 0-.887-.136-1.188-.407-.3-.279-.451-.656-.451-1.133l.253.275h-.275l.033 1.408v1.727h-1.188zm2.409-2.904c.389 0 .69-.11.902-.33.22-.227.33-.554.33-.979v-1.584c0-.425-.11-.748-.33-.968-.212-.227-.513-.341-.902-.341-.374 0-.671.117-.891.352-.22.227-.33.546-.33.957v1.584c0 .41.11.733.33.968.22.227.517.341.891.341zm5.885 1.034c-.631 0-1.13-.161-1.496-.484-.36-.33-.539-.777-.539-1.342 0-.572.19-1.02.572-1.342.388-.33.92-.495 1.595-.495h1.683v-.561c0-.33-.103-.587-.308-.77-.206-.183-.495-.275-.869-.275-.33 0-.605.073-.825.22a.788.788 0 00-.385.561h-1.166c.066-.543.315-.975.748-1.298.44-.323.993-.484 1.661-.484.718 0 1.287.183 1.705.55.418.36.627.85.627 1.474V62h-1.155v-1.111h-.198l.198-.22c0 .44-.169.792-.506 1.056-.338.257-.785.385-1.342.385zm.352-.913c.425 0 .773-.106 1.045-.319.278-.22.418-.499.418-.836v-.792h-1.661c-.308 0-.554.084-.737.253-.176.169-.264.4-.264.693 0 .308.106.554.319.737.212.176.506.264.88.264zm6.775.913c-.741-.007-1.328-.22-1.76-.638-.433-.425-.649-1.005-.649-1.738v-2.739c0-.968.249-1.712.748-2.233.506-.528 1.224-.792 2.156-.792h1.617v1.166h-1.617c-.565 0-.994.161-1.287.484-.286.315-.429.774-.429 1.375v.726h.154l-.143.209c0-.425.139-.759.418-1.001.286-.25.678-.374 1.177-.374.638 0 1.133.209 1.485.627.359.41.539.979.539 1.705v.847c0 .491-.099.917-.297 1.276a1.967 1.967 0 01-.825.814c-.36.19-.789.286-1.287.286zm0-1.045c.396 0 .696-.114.902-.341.212-.235.319-.565.319-.99v-.847c0-.433-.107-.763-.319-.99-.206-.235-.506-.352-.902-.352s-.701.114-.913.341c-.206.227-.308.561-.308 1.001v.847c0 .425.102.755.308.99.212.227.517.341.913.341zm6.522 1.034c-.499 0-.931-.095-1.298-.286a2.015 2.015 0 01-.847-.814c-.198-.352-.297-.766-.297-1.243v-1.562c0-.484.099-.898.297-1.243.198-.352.48-.623.847-.814.367-.19.799-.286 1.298-.286s.931.095 1.298.286c.367.19.649.462.847.814.198.345.297.759.297 1.243v1.562c0 .477-.099.891-.297 1.243-.198.352-.48.623-.847.814-.367.19-.799.286-1.298.286zm0-1.045c.403 0 .715-.11.935-.33.22-.227.33-.55.33-.968v-1.562c0-.425-.11-.748-.33-.968-.22-.22-.532-.33-.935-.33-.396 0-.708.11-.935.33-.22.22-.33.543-.33.968v1.562c0 .418.11.74.33.968.227.22.539.33.935.33zm5.928.946v-4.983h-2.134V55.95h5.456v1.067h-2.134V62h-1.188zm4.454 0v-6.05h1.056v2.134h.44c.653 0 1.17.176 1.551.528.382.352.572.832.572 1.441 0 .601-.19 1.078-.572 1.43-.381.345-.898.517-1.551.517h-1.496zm1.056-.935h.44c.352 0 .624-.088.814-.264.198-.176.297-.425.297-.748 0-.33-.099-.583-.297-.759-.19-.183-.462-.275-.814-.275h-.44v2.046zm3.212.935v-6.05h1.056V62h-1.056zm11.439.11c-.741-.007-1.328-.22-1.76-.638-.433-.425-.649-1.005-.649-1.738v-2.739c0-.968.249-1.712.748-2.233.506-.528 1.224-.792 2.156-.792h1.617v1.166h-1.617c-.565 0-.994.161-1.287.484-.286.315-.429.774-.429 1.375v.726h.154l-.143.209c0-.425.139-.759.418-1.001.286-.25.678-.374 1.177-.374.638 0 1.133.209 1.485.627.359.41.539.979.539 1.705v.847c0 .491-.099.917-.297 1.276a1.967 1.967 0 01-.825.814c-.36.19-.789.286-1.287.286zm0-1.045c.396 0 .696-.114.902-.341.212-.235.319-.565.319-.99v-.847c0-.433-.107-.763-.319-.99-.206-.235-.506-.352-.902-.352s-.701.114-.913.341c-.206.227-.308.561-.308 1.001v.847c0 .425.102.755.308.99.212.227.517.341.913.341zm3.86.935v-6.05h1.056v2.134h.44c.652 0 1.169.176 1.551.528.381.352.572.832.572 1.441 0 .601-.191 1.078-.572 1.43-.382.345-.899.517-1.551.517h-1.496zm1.056-.935h.44c.352 0 .623-.088.814-.264.198-.176.297-.425.297-.748 0-.33-.099-.583-.297-.759-.191-.183-.462-.275-.814-.275h-.44v2.046zm3.212.935v-6.05h1.056V62h-1.056zm1.88.077v-1.089h.231c.293 0 .506-.117.638-.352.139-.235.213-.63.22-1.188l.066-3.498h4.235V62h-1.188v-4.961h-1.881l-.055 2.475c-.015.58-.095 1.06-.242 1.441-.139.381-.352.664-.638.847-.286.183-.645.275-1.078.275h-.308zm7.204-.077v-6.05h1.089v3.135c0 .205-.007.433-.022.682a18.302 18.302 0 01-.121 1.309l2.277-5.126h1.485V62h-1.089v-3.135c0-.205.007-.425.022-.66.015-.242.033-.477.055-.704.022-.227.044-.414.066-.561L175.963 62h-1.485zm15.432.11c-.499 0-.939-.092-1.32-.275a2.07 2.07 0 01-.869-.814c-.198-.36-.297-.777-.297-1.254v-1.584c0-.484.099-.902.297-1.254a2 2 0 01.869-.803c.381-.19.821-.286 1.32-.286.726 0 1.309.19 1.749.572.44.381.671.902.693 1.562h-1.188c-.022-.345-.143-.612-.363-.803-.22-.19-.517-.286-.891-.286-.404 0-.723.114-.957.341-.235.22-.352.535-.352.946v1.595c0 .41.117.73.352.957.234.227.553.341.957.341.374 0 .671-.095.891-.286.22-.19.341-.458.363-.803h1.188c-.022.66-.253 1.18-.693 1.562-.44.381-1.023.572-1.749.572zm3.453-.033v-1.089h.231c.293 0 .506-.117.638-.352.139-.235.212-.63.22-1.188l.066-3.498h4.235V62h-1.188v-4.961h-1.881l-.055 2.475c-.015.58-.096 1.06-.242 1.441-.14.381-.352.664-.638.847-.286.183-.646.275-1.078.275h-.308zm9.558.033c-.491 0-.924-.095-1.298-.286a2.084 2.084 0 01-.847-.825c-.198-.352-.297-.763-.297-1.232v-1.584c0-.477.099-.887.297-1.232.198-.352.48-.623.847-.814.374-.198.807-.297 1.298-.297.499 0 .931.099 1.298.297.367.19.649.462.847.814.198.345.297.755.297 1.232v1.078h-3.74v.506c0 .447.11.788.33 1.023.227.235.554.352.979.352.345 0 .623-.059.836-.176a.799.799 0 00.396-.539h1.177a1.833 1.833 0 01-.792 1.232c-.44.3-.983.451-1.628.451zm1.298-3.564v-.374c0-.44-.11-.781-.33-1.023-.22-.242-.543-.363-.968-.363-.418 0-.741.121-.968.363-.22.242-.33.587-.33 1.034v.275l2.684-.011-.088.099zm2.232 4.994v-2.552h.44c.125-.125.253-.36.385-.704.139-.352.213-.796.22-1.331l.066-3.003h4.103v5.038h.737v2.552h-1.078V62h-3.795v1.54h-1.078zm1.672-2.552h2.387v-3.993h-1.837l-.044 1.969c-.007.535-.07.979-.187 1.331-.11.345-.216.576-.319.693zm6.434 2.992l.869-2.332-2.255-5.698h1.309l1.265 3.41c.052.147.103.323.154.528.052.205.096.374.132.506.03-.132.07-.3.121-.506.052-.205.103-.381.154-.528l1.188-3.41h1.265l-2.948 8.03h-1.254zm8.898-1.87c-.528 0-.946-.169-1.254-.506-.308-.345-.462-.796-.462-1.353v-.88h-.935V62h-1.045v-6.05h1.045v2.552h.935v-.803c0-.565.151-1.016.451-1.353.308-.337.73-.506 1.265-.506.558 0 1.005.169 1.342.506.338.337.506.788.506 1.353v2.552c0 .557-.172 1.008-.517 1.353-.337.337-.781.506-1.331.506zm0-.902c.25 0 .444-.084.583-.253.147-.169.22-.403.22-.704v-2.552c0-.3-.073-.535-.22-.704-.139-.169-.333-.253-.583-.253a.735.735 0 00-.583.253c-.139.169-.209.403-.209.704v2.552c0 .3.07.535.209.704a.735.735 0 00.583.253zm7.579 2.332V62h-4.697v-6.05h.99v5.137h1.155V55.95h.869v5.137h1.155V55.95h.99v5.137h.583v2.453h-1.045zm2.144-1.54v-6.05h1.089v3.135c0 .205-.008.433-.022.682a18.302 18.302 0 01-.121 1.309l2.277-5.126h1.485V62h-1.089v-3.135c0-.205.007-.425.022-.66a18.222 18.222 0 01.121-1.265L234.663 62h-1.485zm8.876.11c-.491 0-.924-.095-1.298-.286a2.084 2.084 0 01-.847-.825c-.198-.352-.297-.763-.297-1.232v-1.584c0-.477.099-.887.297-1.232.198-.352.48-.623.847-.814.374-.198.807-.297 1.298-.297.499 0 .931.099 1.298.297.367.19.649.462.847.814.198.345.297.755.297 1.232v1.078h-3.74v.506c0 .447.11.788.33 1.023.227.235.554.352.979.352.345 0 .623-.059.836-.176a.799.799 0 00.396-.539h1.177a1.833 1.833 0 01-.792 1.232c-.44.3-.983.451-1.628.451zm1.298-3.564v-.374c0-.44-.11-.781-.33-1.023-.22-.242-.543-.363-.968-.363-.418 0-.741.121-.968.363-.22.242-.33.587-.33 1.034v.275l2.684-.011-.088.099zM252.733 62v-6.05h2.662c.66 0 1.177.143 1.551.429.374.286.561.682.561 1.188 0 .418-.15.752-.451 1.001-.3.25-.696.374-1.188.374v-.099c.536 0 .965.132 1.287.396.33.257.495.601.495 1.034 0 .543-.194.968-.583 1.276-.388.3-.924.451-1.606.451h-2.728zm1.166-.957h1.54c.323 0 .576-.073.759-.22a.72.72 0 00.286-.605c0-.264-.095-.47-.286-.616-.183-.154-.436-.231-.759-.231h-1.54v1.672zm0-2.552h1.496c.294 0 .525-.07.693-.209.169-.14.253-.334.253-.583a.701.701 0 00-.253-.572c-.168-.147-.399-.22-.693-.22h-1.496v1.584zM258.958 62v-6.05h1.056v2.134h.44c.653 0 1.17.176 1.551.528.382.352.572.832.572 1.441 0 .601-.19 1.078-.572 1.43-.381.345-.898.517-1.551.517h-1.496zm1.056-.935h.44c.352 0 .624-.088.814-.264.198-.176.297-.425.297-.748 0-.33-.099-.583-.297-.759-.19-.183-.462-.275-.814-.275h-.44v2.046zm3.212.935v-6.05h1.056V62h-1.056zm4.62.077c-.646 0-1.177-.143-1.595-.429a1.772 1.772 0 01-.759-1.177h1.21c.051.176.179.323.385.44.205.11.458.165.759.165h.55c.33 0 .586-.077.77-.231a.753.753 0 00.275-.605.765.765 0 00-.275-.616c-.176-.154-.433-.231-.77-.231h-1.353v-.968h1.309c.308 0 .542-.07.704-.209a.751.751 0 00.242-.583.72.72 0 00-.11-.407.613.613 0 00-.308-.264 1.338 1.338 0 00-.517-.088h-.539a1.29 1.29 0 00-.704.187c-.191.117-.308.268-.352.451h-1.21c.08-.484.326-.876.737-1.177.418-.308.927-.462 1.529-.462h.539c.447 0 .832.07 1.155.209.322.132.568.323.737.572.176.25.264.543.264.88 0 .374-.129.682-.385.924-.257.235-.609.36-1.056.374.528.03.924.172 1.188.429.264.25.396.601.396 1.056 0 .535-.206.964-.616 1.287-.411.315-.961.473-1.65.473h-.55zm6.819.022c-.499 0-.932-.095-1.298-.286a2.015 2.015 0 01-.847-.814c-.198-.352-.297-.766-.297-1.243v-1.562c0-.484.099-.898.297-1.243.198-.352.48-.623.847-.814.366-.19.799-.286 1.298-.286.498 0 .931.095 1.298.286.366.19.649.462.847.814.198.345.297.759.297 1.243v1.562c0 .477-.099.891-.297 1.243a2.02 2.02 0 01-.847.814c-.367.19-.8.286-1.298.286zm0-1.045c.403 0 .715-.11.935-.33.22-.227.33-.55.33-.968v-1.562c0-.425-.11-.748-.33-.968-.22-.22-.532-.33-.935-.33-.396 0-.708.11-.935.33-.22.22-.33.543-.33.968v1.562c0 .418.11.74.33.968.227.22.539.33.935.33zm4.157.946v-6.05h2.662c.66 0 1.177.143 1.551.429.374.286.561.682.561 1.188 0 .418-.15.752-.451 1.001-.301.25-.697.374-1.188.374v-.099c.535 0 .964.132 1.287.396.33.257.495.601.495 1.034 0 .543-.194.968-.583 1.276-.389.3-.924.451-1.606.451h-2.728zm1.166-.957h1.54c.323 0 .576-.073.759-.22a.72.72 0 00.286-.605c0-.264-.095-.47-.286-.616-.183-.154-.436-.231-.759-.231h-1.54v1.672zm0-2.552h1.496c.293 0 .524-.07.693-.209.169-.14.253-.334.253-.583a.701.701 0 00-.253-.572c-.169-.147-.4-.22-.693-.22h-1.496v1.584zM285.047 62v-6.05h1.056v2.134h.44c.653 0 1.17.176 1.551.528.381.352.572.832.572 1.441 0 .601-.191 1.078-.572 1.43-.381.345-.898.517-1.551.517h-1.496zm1.056-.935h.44c.352 0 .623-.088.814-.264.198-.176.297-.425.297-.748 0-.33-.099-.583-.297-.759-.191-.183-.462-.275-.814-.275h-.44v2.046zm3.212.935v-6.05h1.056V62h-1.056zm4.916-4.411c-.286 0-.52-.08-.704-.242a.824.824 0 01-.264-.638c0-.264.088-.473.264-.627.184-.161.418-.242.704-.242.294 0 .528.08.704.242.176.154.264.363.264.627a.824.824 0 01-.264.638c-.176.161-.41.242-.704.242zm0 4.521c-.286 0-.52-.08-.704-.242a.811.811 0 01-.264-.627c0-.271.088-.484.264-.638.184-.161.418-.242.704-.242.294 0 .528.08.704.242.176.154.264.367.264.638a.811.811 0 01-.264.627c-.176.161-.41.242-.704.242z" fill="#000"/></svg>