<svg width="354" height="367" fill="none" xmlns="http://www.w3.org/2000/svg"><rect x=".265" y=".265" width="201.47" height="108.336" rx="12.321" fill="#D1D9DE" stroke="#fff" stroke-width=".53"/><path d="M8.63 48V37.05h2.535l1.005 3.45c.11.36.19.675.24.945.06.27.095.46.105.57.01-.11.04-.3.09-.57.06-.27.14-.585.24-.945l.99-3.45h2.535V48h-2.055v-3c0-.55.01-1.125.03-1.725.03-.61.065-1.215.105-1.815.04-.6.085-1.16.135-1.68.05-.53.095-.99.135-1.38l-1.26 4.95h-1.905l-1.32-4.95c.05.37.1.815.15 1.335.05.51.095 1.065.135 1.665.05.59.09 1.195.12 1.815.03.62.045 1.215.045 1.785v3H8.63zm11.726.15c-.83 0-1.49-.225-1.98-.675-.48-.45-.72-1.06-.72-1.83 0-.83.285-1.465.855-1.905.58-.45 1.41-.675 2.49-.675h1.71v-.615a.941.941 0 00-.345-.765c-.22-.19-.52-.285-.9-.285-.35 0-.64.08-.87.24-.23.16-.37.38-.42.66H18c.09-.83.45-1.485 1.08-1.965.64-.49 1.46-.735 2.46-.735 1.05 0 1.88.26 2.49.78.62.51.93 1.2.93 2.07V48h-2.175v-1.35h-.36l.375-.525c0 .62-.225 1.115-.675 1.485-.44.36-1.03.54-1.77.54zm.84-1.65c.44 0 .8-.115 1.08-.345.29-.24.435-.55.435-.93v-.885h-1.665c-.34 0-.615.1-.825.3-.21.19-.315.445-.315.765 0 .34.115.61.345.81.23.19.545.285.945.285zm5.635 4.2V39.75h2.175v1.575h.525l-.525.525c0-.71.195-1.26.585-1.65.39-.4.925-.6 1.605-.6.83 0 1.495.295 1.995.885.5.58.75 1.36.75 2.34v2.1c0 .65-.115 1.22-.345 1.71-.22.48-.535.855-.945 1.125-.41.26-.895.39-1.455.39-.68 0-1.215-.195-1.605-.585-.39-.4-.585-.955-.585-1.665l.525.525h-.525l.075 2.025v2.25h-2.25zm3.555-4.5c.42 0 .74-.115.96-.345.23-.24.345-.575.345-1.005V42.9c0-.44-.115-.775-.345-1.005-.22-.23-.54-.345-.96-.345-.41 0-.73.12-.96.36-.23.23-.345.56-.345.99v1.95c0 .43.115.765.345 1.005.23.23.55.345.96.345zm5.41 1.8v-8.25h2.25v3.12h1.11l1.726-3.12h2.505l-2.295 4.035L43.432 48h-2.55l-1.74-3.24h-1.095V48h-2.25zm12.401.15c-.73 0-1.37-.135-1.92-.405-.54-.28-.96-.665-1.26-1.155-.29-.5-.435-1.08-.435-1.74V42.9c0-.66.145-1.235.435-1.725.3-.5.72-.885 1.26-1.155.55-.28 1.19-.42 1.92-.42s1.36.14 1.89.42c.54.27.955.655 1.245 1.155.3.49.45 1.065.45 1.725v1.5h-5.055v.45c0 .52.125.915.375 1.185.25.26.625.39 1.125.39.35 0 .63-.06.84-.18a.872.872 0 00.435-.495h2.205c-.18.72-.59 1.3-1.23 1.74-.63.44-1.39.66-2.28.66zm1.44-4.905v-.375c0-.51-.12-.9-.36-1.17-.23-.27-.59-.405-1.08-.405-.49 0-.86.14-1.11.42-.24.28-.36.675-.36 1.185v.225l3.06-.03-.15.15zM55.978 48v-6.15h-2.7v-2.1h7.65v2.1h-2.7V48h-2.25zm6.536 0v-8.25h1.98v3.75c0 .25-.015.565-.045.945-.03.37-.07.745-.12 1.125-.04.38-.085.715-.135 1.005l2.61-6.825h2.73V48h-1.98v-3.75c0-.26.015-.555.045-.885.03-.34.065-.68.105-1.02.04-.34.08-.63.12-.87L65.244 48h-2.73zm8.92 0v-8.25h2.25v3.015h2.52V39.75h2.25V48h-2.25v-3.135h-2.52V48h-2.25zm9.656 0v-8.25h6.3v2.1h-4.05V48h-2.25zm11.695.15c-.73 0-1.364-.135-1.904-.405-.54-.28-.96-.665-1.26-1.155-.29-.5-.435-1.08-.435-1.74V42.9c0-.66.144-1.235.434-1.725.3-.5.72-.885 1.26-1.155.54-.28 1.175-.42 1.906-.42.74 0 1.374.14 1.904.42.54.27.956.655 1.246 1.155.3.49.45 1.065.45 1.725v1.95c0 .66-.15 1.24-.45 1.74a3.03 3.03 0 01-1.246 1.155c-.53.27-1.165.405-1.904.405zm0-1.95c.44 0 .776-.115 1.005-.345.23-.24.345-.575.345-1.005V42.9c0-.44-.115-.775-.345-1.005-.23-.23-.565-.345-1.005-.345-.43 0-.764.115-1.004.345-.23.23-.346.565-.346 1.005v1.95c0 .43.115.765.346 1.005.24.23.575.345 1.004.345zm5.396 1.8v-8.25h3.735c1.01 0 1.81.205 2.4.615.6.4.9.945.9 1.635 0 .55-.225.995-.675 1.335-.45.33-1.045.495-1.785.495v-.15c.81 0 1.455.18 1.935.54.49.36.735.835.735 1.425 0 .73-.3 1.305-.9 1.725-.59.42-1.395.63-2.415.63h-3.93zm2.205-1.59h1.62c.37 0 .665-.085.885-.255.23-.18.345-.41.345-.69 0-.3-.115-.54-.345-.72-.22-.18-.515-.27-.885-.27h-1.62v1.935zm0-3.255h1.545c.34 0 .61-.08.81-.24.2-.17.3-.39.3-.66 0-.28-.1-.505-.3-.675-.2-.17-.47-.255-.81-.255h-1.545v1.83zM106.727 48v-8.25h1.875v2.625h.45c.89 0 1.6.26 2.13.78.53.52.795 1.215.795 2.085 0 .83-.27 1.5-.81 2.01-.53.5-1.235.75-2.115.75h-2.325zm1.875-1.725h.45c.36 0 .635-.09.825-.27.2-.18.3-.44.3-.78 0-.36-.1-.635-.3-.825-.19-.2-.465-.3-.825-.3h-.45v2.175zm4.05 1.725v-8.25h1.875V48h-1.875zm6.91.15c-.73 0-1.37-.135-1.92-.405-.54-.28-.96-.665-1.26-1.155-.29-.5-.435-1.08-.435-1.74V42.9c0-.66.145-1.235.435-1.725.3-.5.72-.885 1.26-1.155.55-.28 1.19-.42 1.92-.42s1.36.14 1.89.42c.54.27.955.655 1.245 1.155.3.49.45 1.065.45 1.725v1.5h-5.055v.45c0 .52.125.915.375 1.185.25.26.625.39 1.125.39.35 0 .63-.06.84-.18a.872.872 0 00.435-.495h2.205c-.18.72-.59 1.3-1.23 1.74-.63.44-1.39.66-2.28.66zm1.44-4.905v-.375c0-.51-.12-.9-.36-1.17-.23-.27-.59-.405-1.08-.405-.49 0-.86.14-1.11.42-.24.28-.36.675-.36 1.185v.225l3.06-.03-.15.15zM9.47 68v-8.25h1.155v4.695c0 .28-.01.58-.03.9a22.728 22.728 0 01-.105 1.59l3.495-7.185h1.545V68h-1.155v-4.695c0-.29.005-.59.015-.9.02-.31.04-.605.06-.885.03-.29.05-.53.06-.72L11 68H9.47zm11.966.15c-.64 0-1.2-.125-1.68-.375a2.75 2.75 0 01-1.125-1.065c-.26-.47-.39-1.025-.39-1.665v-2.34c0-.64.13-1.19.39-1.65.27-.47.645-.83 1.125-1.08.48-.25 1.04-.375 1.68-.375.94 0 1.695.255 2.265.765.57.51.865 1.205.885 2.085H23.4c-.02-.57-.205-1.01-.555-1.32-.34-.31-.81-.465-1.41-.465-.61 0-1.095.18-1.455.54-.36.35-.54.85-.54 1.5v2.34c0 .64.18 1.14.54 1.5.36.36.845.54 1.455.54.6 0 1.07-.155 1.41-.465.35-.32.535-.76.555-1.32h1.185c-.02.88-.315 1.575-.885 2.085-.57.51-1.325.765-2.265.765zm8.92 0c-.64 0-1.2-.125-1.68-.375a2.75 2.75 0 01-1.125-1.065c-.26-.47-.39-1.025-.39-1.665v-2.34c0-.64.13-1.19.39-1.65.27-.47.645-.83 1.125-1.08.48-.25 1.04-.375 1.68-.375.94 0 1.695.255 2.265.765.57.51.865 1.205.885 2.085h-1.185c-.02-.57-.205-1.01-.555-1.32-.34-.31-.81-.465-1.41-.465-.61 0-1.095.18-1.455.54-.36.35-.54.85-.54 1.5v2.34c0 .64.18 1.14.54 1.5.36.36.845.54 1.455.54.6 0 1.07-.155 1.41-.465.35-.32.535-.76.555-1.32h1.185c-.02.88-.315 1.575-.885 2.085-.57.51-1.325.765-2.265.765zm4.826-.045V66.98h.3c.43 0 .745-.175.945-.525.2-.36.305-.955.315-1.785l.105-4.92h5.445V68h-1.2v-7.17h-3.075l-.09 3.885c-.01.78-.105 1.42-.285 1.92-.17.5-.43.87-.78 1.11-.34.24-.785.36-1.335.36h-.345zm13 .045c-.64 0-1.195-.125-1.665-.375a2.747 2.747 0 01-1.095-1.095c-.26-.47-.39-1.015-.39-1.635v-2.34c0-.63.13-1.175.39-1.635.26-.47.625-.83 1.095-1.08.47-.26 1.025-.39 1.665-.39.64 0 1.195.13 1.665.39.47.25.835.61 1.095 1.08.26.46.39 1.005.39 1.635v1.455h-5.13v.885c0 .67.17 1.19.51 1.56.35.36.84.54 1.47.54.53 0 .96-.105 1.29-.315.34-.21.555-.515.645-.915h1.185a2.394 2.394 0 01-1.005 1.635c-.56.4-1.265.6-2.115.6zm1.98-4.785v-.66c0-.67-.17-1.185-.51-1.545-.34-.37-.83-.555-1.47-.555-.63 0-1.12.185-1.47.555-.34.36-.51.875-.51 1.545v.525h4.08l-.12.135zm2.951 6.735v-3.12h.675c.17-.19.345-.53.525-1.02.19-.5.29-1.105.3-1.815l.09-4.395h5.25v7.23h1.065v3.12h-1.065V68h-5.775v2.1h-1.065zm1.95-3.12h3.705v-6.165h-2.94l-.06 3.345c-.01.75-.095 1.365-.255 1.845s-.31.805-.45.975zm10.96 1.155c-.64 0-1.194-.125-1.664-.375a2.65 2.65 0 01-1.095-1.08c-.26-.47-.39-1.025-.39-1.665v-2.28c0-.65.13-1.205.39-1.665.26-.47.625-.83 1.095-1.08.47-.25 1.025-.375 1.665-.375.64 0 1.195.125 1.665.375s.835.61 1.095 1.08c.26.46.39 1.01.39 1.65v2.295c0 .64-.13 1.195-.39 1.665s-.625.83-1.095 1.08c-.47.25-1.025.375-1.665.375zm0-1.065c.62 0 1.1-.175 1.44-.525.34-.35.51-.86.51-1.53v-2.28c0-.67-.174-1.18-.524-1.53-.34-.35-.815-.525-1.425-.525-.61 0-1.09.175-1.44.525-.34.35-.51.86-.51 1.53v2.28c0 .67.17 1.18.51 1.53.35.35.83.525 1.44.525zm5.891.93v-8.25h3.54c.82 0 1.465.195 1.935.585.47.38.705.91.705 1.59 0 .57-.195 1.03-.585 1.38-.38.34-.89.51-1.53.51v-.105c.69 0 1.245.18 1.665.54.42.35.63.82.63 1.41 0 .73-.25 1.305-.75 1.725-.49.41-1.17.615-2.04.615h-3.57zm1.17-1.05h2.4c.49 0 .88-.115 1.17-.345.29-.24.435-.56.435-.96 0-.42-.145-.745-.435-.975-.29-.24-.68-.36-1.17-.36h-2.4v2.64zm0-3.675h2.37c.44 0 .79-.11 1.05-.33.27-.22.405-.52.405-.9s-.135-.68-.405-.9c-.26-.23-.61-.345-1.05-.345h-2.37v2.475zM83.22 68.15c-.87 0-1.555-.22-2.055-.66-.5-.45-.75-1.055-.75-1.815 0-.75.245-1.34.735-1.77.49-.44 1.15-.66 1.98-.66h2.625v-.87c0-.55-.16-.975-.48-1.275-.32-.3-.775-.45-1.365-.45-.52 0-.955.115-1.305.345-.34.23-.535.54-.585.93h-1.2c.1-.71.43-1.275.99-1.695.57-.42 1.28-.63 2.13-.63.92 0 1.65.25 2.19.75.54.49.81 1.155.81 1.995V68h-1.17v-1.605h-.195l.225-.24c0 .61-.235 1.095-.705 1.455-.47.36-1.095.54-1.875.54zm.285-.96c.66 0 1.2-.165 1.62-.495.42-.33.63-.76.63-1.29V64.16h-2.61c-.47 0-.845.13-1.125.39s-.42.615-.42 1.065c0 .48.17.865.51 1.155.34.28.805.42 1.395.42zm6.25.81v-8.25h1.2v3.51h3.66v-3.51h1.2V68h-1.2v-3.66h-3.66V68h-1.2zm8.921 0v-8.25h1.155v4.695c0 .28-.01.58-.03.9a22.728 22.728 0 01-.105 1.59l3.495-7.185h1.545V68h-1.155v-4.695c0-.29.005-.59.015-.9.02-.31.04-.605.06-.885.03-.29.05-.53.06-.72l-3.51 7.2h-1.53zm8.456 0l2.1-3.195c-.64-.14-1.135-.425-1.485-.855-.35-.43-.525-.97-.525-1.62 0-.8.265-1.43.795-1.89.54-.46 1.27-.69 2.19-.69h3.45V68h-1.2v-3.09h-1.995l-1.95 3.09h-1.38zm3.075-4.155h2.25v-3.03h-2.25c-.54 0-.97.135-1.29.405-.32.27-.48.64-.48 1.11 0 .47.16.84.48 1.11.32.27.75.405 1.29.405zM125.438 68v-8.25h1.155v4.695c0 .28-.01.58-.03.9a22.728 22.728 0 01-.105 1.59l3.495-7.185h1.545V68h-1.155v-4.695c0-.29.005-.59.015-.9.02-.31.04-.605.06-.885.03-.29.05-.53.06-.72l-3.51 7.2h-1.53zm18.607.15c-.83 0-1.49-.225-1.98-.675-.48-.45-.72-1.06-.72-1.83 0-.83.285-1.465.855-1.905.58-.45 1.41-.675 2.49-.675h1.71v-.615a.941.941 0 00-.345-.765c-.22-.19-.52-.285-.9-.285-.35 0-.64.08-.87.24-.23.16-.37.38-.42.66h-2.175c.09-.83.45-1.485 1.08-1.965.64-.49 1.46-.735 2.46-.735 1.05 0 1.88.26 2.49.78.62.51.93 1.2.93 2.07V68h-2.175v-1.35h-.36l.375-.525c0 .62-.225 1.115-.675 1.485-.44.36-1.03.54-1.77.54zm.84-1.65c.44 0 .8-.115 1.08-.345.29-.24.435-.55.435-.93v-.885h-1.665c-.34 0-.615.1-.825.3-.21.19-.315.445-.315.765 0 .34.115.61.345.81.23.19.545.285.945.285zm5.636 1.5v-8.25h2.25v3.015h2.52V59.75h2.25V68h-2.25v-3.135h-2.52V68h-2.25zm11.365.15c-.83 0-1.49-.225-1.98-.675-.48-.45-.72-1.06-.72-1.83 0-.83.285-1.465.855-1.905.58-.45 1.41-.675 2.49-.675h1.71v-.615a.941.941 0 00-.345-.765c-.22-.19-.52-.285-.9-.285-.35 0-.64.08-.87.24-.23.16-.37.38-.42.66h-2.175c.09-.83.45-1.485 1.08-1.965.64-.49 1.46-.735 2.46-.735 1.05 0 1.88.26 2.49.78.62.51.93 1.2.93 2.07V68h-2.175v-1.35h-.36l.375-.525c0 .62-.225 1.115-.675 1.485-.44.36-1.03.54-1.77.54zm.84-1.65c.44 0 .8-.115 1.08-.345.29-.24.435-.55.435-.93v-.885h-1.665c-.34 0-.615.1-.825.3-.21.19-.315.445-.315.765 0 .34.115.61.345.81.23.19.545.285.945.285zm4.961 1.605V66.08h.45c.26 0 .475-.11.645-.33.17-.22.26-.51.27-.87l.09-5.13h6.24V68h-2.25v-6.15h-1.785l-.06 3.18c-.01.61-.145 1.15-.405 1.62-.25.46-.6.82-1.05 1.08-.44.25-.955.375-1.545.375h-.6zm9.595-.105v-8.25h1.98v3.75c0 .25-.015.565-.045.945-.03.37-.07.745-.12 1.125-.04.38-.085.715-.135 1.005l2.61-6.825h2.73V68h-1.98v-3.75c0-.26.015-.555.045-.885.03-.34.065-.68.105-1.02.04-.34.08-.63.12-.87L180.012 68h-2.73zm12.011.105c-.92 0-1.685-.225-2.295-.675-.61-.45-.98-1.06-1.11-1.83h2.175c.07.23.215.415.435.555.22.13.485.195.795.195h.855c.33 0 .59-.075.78-.225a.8.8 0 00.285-.645.741.741 0 00-.285-.615c-.19-.15-.45-.225-.78-.225h-1.935v-1.71h1.845c.31 0 .55-.065.72-.195a.7.7 0 00.255-.57c0-.17-.04-.31-.12-.42a.67.67 0 00-.33-.255c-.14-.06-.315-.09-.525-.09h-.69c-.31 0-.57.07-.78.21a.94.94 0 00-.42.54h-2.175c.13-.77.495-1.38 1.095-1.83.6-.45 1.36-.675 2.28-.675h.69c.66 0 1.23.095 1.71.285.48.18.85.44 1.11.78.26.33.39.725.39 1.185 0 .55-.21.995-.63 1.335-.41.34-.955.51-1.635.51v-.15c.74 0 1.335.19 1.785.57.45.37.675.865.675 1.485 0 .75-.3 1.35-.9 1.8-.6.44-1.405.66-2.415.66h-.855z" fill="#000"/><rect x="211.265" y=".265" width="142.47" height="108.47" rx="12.336" fill="#D1D9DE" stroke="url(#paint0_linear_2004_46)" stroke-width=".53"/><path d="M228.455 40V29.05h3.435c.67 0 1.25.13 1.74.39.5.26.885.63 1.155 1.11.27.47.405 1.03.405 1.68 0 .64-.135 1.2-.405 1.68-.27.47-.655.84-1.155 1.11-.49.26-1.07.39-1.74.39h-2.25V40h-1.185zm1.185-5.67h2.25c.63 0 1.13-.19 1.5-.57.38-.38.57-.89.57-1.53 0-.65-.19-1.16-.57-1.53-.37-.38-.87-.57-1.5-.57h-2.25v4.2zm10.136 5.82c-.87 0-1.555-.22-2.055-.66-.5-.45-.75-1.055-.75-1.815 0-.75.245-1.34.735-1.77.49-.44 1.15-.66 1.98-.66h2.625v-.87c0-.55-.16-.975-.48-1.275-.32-.3-.775-.45-1.365-.45-.52 0-.955.115-1.305.345-.34.23-.535.54-.585.93h-1.2c.1-.71.43-1.275.99-1.695.57-.42 1.28-.63 2.13-.63.92 0 1.65.25 2.19.75.54.49.81 1.155.81 1.995V40h-1.17v-1.605h-.195l.225-.24c0 .61-.235 1.095-.705 1.455-.47.36-1.095.54-1.875.54zm.285-.96c.66 0 1.2-.165 1.62-.495.42-.33.63-.76.63-1.29V36.16h-2.61c-.47 0-.845.13-1.125.39s-.42.615-.42 1.065c0 .48.17.865.51 1.155.34.28.805.42 1.395.42zm8.89.93c-.86 0-1.555-.185-2.085-.555-.53-.37-.85-.87-.96-1.5h1.245c.08.29.275.53.585.72.32.18.725.27 1.215.27h.735c.51 0 .91-.125 1.2-.375.3-.26.45-.585.45-.975 0-.42-.14-.76-.42-1.02-.28-.26-.68-.39-1.2-.39h-1.845V35.26h1.815c.47 0 .83-.12 1.08-.36.26-.24.39-.55.39-.93 0-.26-.06-.485-.18-.675a1.136 1.136 0 00-.525-.435 1.822 1.822 0 00-.795-.165h-.78c-.45 0-.82.1-1.11.3-.29.19-.47.435-.54.735h-1.245c.1-.62.405-1.125.915-1.515.52-.39 1.18-.585 1.98-.585h.78c.56 0 1.045.095 1.455.285.41.19.725.455.945.795.23.34.345.74.345 1.2 0 .5-.155.915-.465 1.245-.3.32-.725.5-1.275.54v.06c.66.04 1.145.235 1.455.585.31.34.465.81.465 1.41 0 .71-.265 1.285-.795 1.725-.52.43-1.22.645-2.1.645h-.735zm6.266 2.58V31.75h1.185v1.455h.315l-.36.495c0-.65.21-1.16.63-1.53.43-.38.995-.57 1.695-.57.83 0 1.49.275 1.98.825.5.54.75 1.28.75 2.22v2.445c0 .63-.115 1.175-.345 1.635-.23.45-.55.8-.96 1.05-.4.25-.875.375-1.425.375-.69 0-1.25-.19-1.68-.57-.43-.38-.645-.89-.645-1.53l.315.495h-.285l.015 1.68V42.7h-1.185zm3.09-3.585c.6 0 1.065-.18 1.395-.54.34-.36.51-.87.51-1.53v-2.34c0-.67-.17-1.18-.51-1.53-.33-.36-.795-.54-1.395-.54-.58 0-1.045.185-1.395.555-.34.36-.51.865-.51 1.515v2.34c0 .65.17 1.16.51 1.53.35.36.815.54 1.395.54zm8.23 1.035c-.87 0-1.555-.22-2.055-.66-.5-.45-.75-1.055-.75-1.815 0-.75.245-1.34.735-1.77.49-.44 1.15-.66 1.98-.66h2.625v-.87c0-.55-.16-.975-.48-1.275-.32-.3-.775-.45-1.365-.45-.52 0-.955.115-1.305.345-.34.23-.535.54-.585.93h-1.2c.1-.71.43-1.275.99-1.695.57-.42 1.28-.63 2.13-.63.92 0 1.65.25 2.19.75.54.49.81 1.155.81 1.995V40h-1.17v-1.605h-.195l.225-.24c0 .61-.235 1.095-.705 1.455-.47.36-1.095.54-1.875.54zm.285-.96c.66 0 1.2-.165 1.62-.495.42-.33.63-.76.63-1.29V36.16h-2.61c-.47 0-.845.13-1.125.39s-.42.615-.42 1.065c0 .48.17.865.51 1.155.34.28.805.42 1.395.42zm9.281.96c-.96 0-1.715-.285-2.265-.855-.55-.57-.825-1.355-.825-2.355V33.1c0-1.3.325-2.3.975-3 .65-.7 1.58-1.05 2.79-1.05h2.04v1.185h-2.04c-.84 0-1.48.25-1.92.75-.44.49-.66 1.195-.66 2.115v1.035h.21l-.21.36c.01-.6.21-1.07.6-1.41.4-.34.945-.51 1.635-.51.88 0 1.56.28 2.04.84.48.55.72 1.32.72 2.31v1.215c0 .67-.125 1.245-.375 1.725-.24.48-.59.85-1.05 1.11-.46.25-1.015.375-1.665.375zm0-1.065c.61 0 1.08-.185 1.41-.555.33-.37.495-.9.495-1.59v-1.215c0-.68-.165-1.21-.495-1.59-.33-.38-.8-.57-1.41-.57-.61 0-1.08.19-1.41.57-.33.38-.495.91-.495 1.59v1.215c0 .69.165 1.22.495 1.59.34.37.81.555 1.41.555zm8.921 1.05c-.64 0-1.195-.125-1.665-.375a2.65 2.65 0 01-1.095-1.08c-.26-.47-.39-1.025-.39-1.665v-2.28c0-.65.13-1.205.39-1.665.26-.47.625-.83 1.095-1.08.47-.25 1.025-.375 1.665-.375.64 0 1.195.125 1.665.375s.835.61 1.095 1.08c.26.46.39 1.01.39 1.65v2.295c0 .64-.13 1.195-.39 1.665s-.625.83-1.095 1.08c-.47.25-1.025.375-1.665.375zm0-1.065c.62 0 1.1-.175 1.44-.525.34-.35.51-.86.51-1.53v-2.28c0-.67-.175-1.18-.525-1.53-.34-.35-.815-.525-1.425-.525-.61 0-1.09.175-1.44.525-.34.35-.51.86-.51 1.53v2.28c0 .67.17 1.18.51 1.53.35.35.83.525 1.44.525zm8.32.93v-7.185h-3V31.75h7.2v1.065h-3V40h-1.2zm6.536 0v-8.25h1.2v3.465h1.56l2.445-3.465h1.365l-2.775 3.93L306.51 40h-1.395l-2.475-3.75h-1.56V40h-1.2zm11.26.15c-.87 0-1.555-.22-2.055-.66-.5-.45-.75-1.055-.75-1.815 0-.75.245-1.34.735-1.77.49-.44 1.15-.66 1.98-.66h2.626v-.87c0-.55-.161-.975-.481-1.275-.32-.3-.775-.45-1.365-.45-.52 0-.955.115-1.305.345-.34.23-.535.54-.585.93h-1.2c.1-.71.43-1.275.99-1.695.57-.42 1.28-.63 2.13-.63.92 0 1.65.25 2.191.75.539.49.809 1.155.809 1.995V40h-1.17v-1.605h-.194l.224-.24c0 .61-.235 1.095-.704 1.455-.471.36-1.096.54-1.876.54zm.285-.96c.66 0 1.2-.165 1.62-.495.42-.33.631-.76.631-1.29V36.16h-2.611c-.47 0-.845.13-1.125.39s-.42.615-.42 1.065c0 .48.17.865.51 1.155.34.28.805.42 1.395.42zM227.63 60v-8.25h2.535l.975 3.075c.11.35.195.67.255.96.07.28.11.49.12.63.02-.14.055-.35.105-.63.06-.29.145-.61.255-.96l.96-3.075h2.535V60h-2.055v-1.5c0-.33.005-.7.015-1.11l.06-1.29c.03-.45.055-.88.075-1.29.03-.42.06-.79.09-1.11l-1.095 3.975h-1.905L229.4 53.7c.04.41.08.9.12 1.47.05.57.09 1.15.12 1.74.03.58.045 1.11.045 1.59V60h-2.055zm11.726.15c-.83 0-1.49-.225-1.98-.675-.48-.45-.72-1.06-.72-1.83 0-.83.285-1.465.855-1.905.58-.45 1.41-.675 2.49-.675h1.71v-.615a.941.941 0 00-.345-.765c-.22-.19-.52-.285-.9-.285-.35 0-.64.08-.87.24-.23.16-.37.38-.42.66h-2.175c.09-.83.45-1.485 1.08-1.965.64-.49 1.46-.735 2.46-.735 1.05 0 1.88.26 2.49.78.62.51.93 1.2.93 2.07V60h-2.175v-1.35h-.36l.375-.525c0 .62-.225 1.115-.675 1.485-.44.36-1.03.54-1.77.54zm.84-1.65c.44 0 .8-.115 1.08-.345.29-.24.435-.55.435-.93v-.885h-1.665c-.34 0-.615.1-.825.3-.21.19-.315.445-.315.765 0 .34.115.61.345.81.23.19.545.285.945.285zm5.635 4.2V51.75h2.175v1.575h.525l-.525.525c0-.71.195-1.26.585-1.65.39-.4.925-.6 1.605-.6.83 0 1.495.295 1.995.885.5.58.75 1.36.75 2.34v2.1c0 .65-.115 1.22-.345 1.71-.22.48-.535.855-.945 1.125-.41.26-.895.39-1.455.39-.68 0-1.215-.195-1.605-.585-.39-.4-.585-.955-.585-1.665l.525.525h-.525l.075 2.025v2.25h-2.25zm3.555-4.5c.42 0 .74-.115.96-.345.23-.24.345-.575.345-1.005V54.9c0-.44-.115-.775-.345-1.005-.22-.23-.54-.345-.96-.345-.41 0-.73.12-.96.36-.23.23-.345.56-.345.99v1.95c0 .43.115.765.345 1.005.23.23.55.345.96.345zm5.411 1.8v-8.25h2.25v3.12h1.11l1.725-3.12h2.505l-2.295 4.035 2.34 4.215h-2.55l-1.74-3.24h-1.095V60h-2.25zm12.4.15c-.73 0-1.37-.135-1.92-.405-.54-.28-.96-.665-1.26-1.155-.29-.5-.435-1.08-.435-1.74V54.9c0-.66.145-1.235.435-1.725.3-.5.72-.885 1.26-1.155.55-.28 1.19-.42 1.92-.42s1.36.14 1.89.42c.54.27.955.655 1.245 1.155.3.49.45 1.065.45 1.725v1.5h-5.055v.45c0 .52.125.915.375 1.185.25.26.625.39 1.125.39.35 0 .63-.06.84-.18a.872.872 0 00.435-.495h2.205c-.18.72-.59 1.3-1.23 1.74-.63.44-1.39.66-2.28.66zm1.44-4.905v-.375c0-.51-.12-.9-.36-1.17-.23-.27-.59-.405-1.08-.405-.49 0-.86.14-1.11.42-.24.28-.36.675-.36 1.185v.225l3.06-.03-.15.15zM274.978 60v-6.15h-2.7v-2.1h7.65v2.1h-2.7V60h-2.25zm6.536 0v-8.25h1.98v3.75c0 .25-.015.565-.045.945-.03.37-.07.745-.12 1.125-.04.38-.085.715-.135 1.005l2.61-6.825h2.73V60h-1.98v-3.75c0-.26.015-.555.045-.885.03-.34.065-.68.105-1.02.04-.34.08-.63.12-.87L284.244 60h-2.73zm8.92 0v-8.25h2.25v3.015h2.52V51.75h2.25V60h-2.25v-3.135h-2.52V60h-2.25zm9.656 0v-8.25h6.3v2.1h-4.05V60h-2.25zm11.695.15c-.73 0-1.365-.135-1.905-.405-.54-.28-.96-.665-1.26-1.155-.29-.5-.435-1.08-.435-1.74V54.9c0-.66.145-1.235.435-1.725.3-.5.72-.885 1.26-1.155.54-.28 1.175-.42 1.905-.42.74 0 1.375.14 1.905.42.541.27.956.655 1.246 1.155.3.49.449 1.065.449 1.725v1.95c0 .66-.149 1.24-.449 1.74-.29.49-.705.875-1.246 1.155-.53.27-1.165.405-1.905.405zm0-1.95c.44 0 .775-.115 1.005-.345.23-.24.345-.575.345-1.005V54.9c0-.44-.115-.775-.345-1.005-.23-.23-.565-.345-1.005-.345-.43 0-.765.115-1.005.345-.23.23-.345.565-.345 1.005v1.95c0 .43.115.765.345 1.005.24.23.575.345 1.005.345zm5.396 1.8v-8.25h3.735c1.01 0 1.81.205 2.4.615.6.4.9.945.9 1.635 0 .55-.225.995-.675 1.335-.45.33-1.045.495-1.785.495v-.15c.81 0 1.455.18 1.935.54.49.36.735.835.735 1.425 0 .73-.3 1.305-.9 1.725-.59.42-1.395.63-2.415.63h-3.93zm2.205-1.59h1.62c.37 0 .665-.085.885-.255.23-.18.345-.41.345-.69 0-.3-.115-.54-.345-.72-.22-.18-.515-.27-.885-.27h-1.62v1.935zm0-3.255h1.545c.34 0 .61-.08.81-.24.2-.17.3-.39.3-.66 0-.28-.1-.505-.3-.675-.2-.17-.47-.255-.81-.255h-1.545v1.83zm10.241 4.995c-.73 0-1.365-.135-1.905-.405-.54-.28-.96-.665-1.26-1.155-.29-.5-.435-1.08-.435-1.74V54.9c0-.66.145-1.235.435-1.725.3-.5.72-.885 1.26-1.155.54-.28 1.175-.42 1.905-.42.74 0 1.375.14 1.905.42.54.27.955.655 1.245 1.155.3.49.45 1.065.45 1.725v1.95c0 .66-.15 1.24-.45 1.74-.29.49-.705.875-1.245 1.155-.53.27-1.165.405-1.905.405zm0-1.95c.44 0 .775-.115 1.005-.345.23-.24.345-.575.345-1.005V54.9c0-.44-.115-.775-.345-1.005-.23-.23-.565-.345-1.005-.345-.43 0-.765.115-1.005.345-.23.23-.345.565-.345 1.005v1.95c0 .43.115.765.345 1.005.24.23.575.345 1.005.345zm5.41 1.8v-8.25h1.98v3.75c0 .25-.015.565-.045.945-.03.37-.07.745-.12 1.125-.04.38-.085.715-.135 1.005l2.61-6.825h2.73V60h-1.98v-3.75c0-.26.015-.555.045-.885.03-.34.065-.68.105-1.02.04-.34.08-.63.12-.87L337.767 60h-2.73zm3.57-9.525c-.82 0-1.49-.205-2.01-.615-.51-.42-.765-.965-.765-1.635h1.725c0 .28.095.51.285.69.2.17.455.255.765.255.32 0 .575-.085.765-.255.19-.18.285-.41.285-.69h1.725c0 .67-.255 1.215-.765 1.635-.51.41-1.18.615-2.01.615zM231.545 80.15c-.73 0-1.37-.135-1.92-.405a3.11 3.11 0 01-1.275-1.155c-.3-.5-.45-1.08-.45-1.74V74.9c0-.67.15-1.25.45-1.74.3-.49.725-.87 1.275-1.14.55-.28 1.19-.42 1.92-.42 1.09 0 1.96.275 2.61.825.65.55.995 1.3 1.035 2.25h-2.25c-.03-.35-.17-.625-.42-.825-.24-.2-.565-.3-.975-.3-.45 0-.795.115-1.035.345-.24.23-.36.565-.36 1.005v1.95c0 .43.12.765.36 1.005.24.23.585.345 1.035.345.41 0 .735-.095.975-.285.25-.2.39-.48.42-.84h2.25c-.04.95-.385 1.7-1.035 2.25-.65.55-1.52.825-2.61.825zm7.751-.15v-6.15h-2.7v-2.1h7.65v2.1h-2.7V80h-2.25zm6.535 2.7V71.75h2.175v1.575h.525l-.525.525c0-.71.195-1.26.585-1.65.39-.4.925-.6 1.605-.6.83 0 1.495.295 1.995.885.5.58.75 1.36.75 2.34v2.1c0 .65-.115 1.22-.345 1.71-.22.48-.535.855-.945 1.125-.41.26-.895.39-1.455.39-.68 0-1.215-.195-1.605-.585-.39-.4-.585-.955-.585-1.665l.525.525h-.525l.075 2.025v2.25h-2.25zm3.555-4.5c.42 0 .74-.115.96-.345.23-.24.345-.575.345-1.005V74.9c0-.44-.115-.775-.345-1.005-.22-.23-.54-.345-.96-.345-.41 0-.73.12-.96.36-.23.23-.345.56-.345.99v1.95c0 .43.115.765.345 1.005.23.23.55.345.96.345zm7.811 1.95c-.83 0-1.49-.225-1.98-.675-.48-.45-.72-1.06-.72-1.83 0-.83.285-1.465.855-1.905.58-.45 1.41-.675 2.49-.675h1.71v-.615a.941.941 0 00-.345-.765c-.22-.19-.52-.285-.9-.285-.35 0-.64.08-.87.24-.23.16-.37.38-.42.66h-2.175c.09-.83.45-1.485 1.08-1.965.64-.49 1.46-.735 2.46-.735 1.05 0 1.88.26 2.49.78.62.51.93 1.2.93 2.07V80h-2.175v-1.35h-.36l.375-.525c0 .62-.225 1.115-.675 1.485-.44.36-1.03.54-1.77.54zm.84-1.65c.44 0 .8-.115 1.08-.345.29-.24.435-.55.435-.93v-.885h-1.665c-.34 0-.615.1-.825.3-.21.19-.315.445-.315.765 0 .34.115.61.345.81.23.19.545.285.945.285zm8.02 1.5v-6.15h-2.7v-2.1h7.65v2.1h-2.7V80h-2.25zm10.061.15c-.73 0-1.37-.135-1.92-.405-.54-.28-.96-.665-1.26-1.155-.29-.5-.435-1.08-.435-1.74V74.9c0-.66.145-1.235.435-1.725.3-.5.72-.885 1.26-1.155.55-.28 1.19-.42 1.92-.42s1.36.14 1.89.42c.54.27.955.655 1.245 1.155.3.49.45 1.065.45 1.725v1.5h-5.055v.45c0 .52.125.915.375 1.185.25.26.625.39 1.125.39.35 0 .63-.06.84-.18a.872.872 0 00.435-.495h2.205c-.18.72-.59 1.3-1.23 1.74-.63.44-1.39.66-2.28.66zm1.44-4.905v-.375c0-.51-.12-.9-.36-1.17-.23-.27-.59-.405-1.08-.405-.49 0-.86.14-1.11.42-.24.28-.36.675-.36 1.185v.225l3.06-.03-.15.15zM282.249 80v-8.25h6.3v2.1h-4.05V80h-2.25zm8.185 0v-8.25h1.98v3.75c0 .25-.015.565-.045.945-.03.37-.07.745-.12 1.125-.04.38-.085.715-.135 1.005l2.61-6.825h2.73V80h-1.98v-3.75c0-.26.015-.555.045-.885.03-.34.065-.68.105-1.02.04-.34.08-.63.12-.87L293.164 80h-2.73zm8.921 0v-8.25h1.98v3.75c0 .25-.015.565-.045.945-.03.37-.07.745-.12 1.125-.04.38-.085.715-.135 1.005l2.61-6.825h2.73V80h-1.98v-3.75c0-.26.015-.555.045-.885.03-.34.065-.68.105-1.02.04-.34.08-.63.12-.87L302.085 80h-2.73z" fill="#000"/><rect x="155.265" y="265.265" width="197.47" height="101.47" rx="12.321" fill="#D1D9DE" stroke="url(#paint1_linear_2004_46)" stroke-width=".53"/><path d="M172.425 303v-10.95h1.155v6.75c0 .33-.01.675-.03 1.035-.01.36-.025.695-.045 1.005-.01.31-.02.57-.03.78l3.495-9.57h1.605V303h-1.155v-6.75c0-.29.005-.61.015-.96l.06-1.02c.02-.33.04-.61.06-.84l-3.54 9.57h-1.59zm8.966 0v-8.25h1.2v3.51h3.66v-3.51h1.2V303h-1.2v-3.66h-3.66V303h-1.2zm11.35 0v-7.185h-3v-1.065h7.2v1.065h-3V303h-1.2zm9.521.15c-.64 0-1.195-.125-1.665-.375a2.747 2.747 0 01-1.095-1.095c-.26-.47-.39-1.015-.39-1.635v-2.34c0-.63.13-1.175.39-1.635.26-.47.625-.83 1.095-1.08.47-.26 1.025-.39 1.665-.39.64 0 1.195.13 1.665.39.47.25.835.61 1.095 1.08.26.46.39 1.005.39 1.635v1.455h-5.13v.885c0 .67.17 1.19.51 1.56.35.36.84.54 1.47.54.53 0 .96-.105 1.29-.315.34-.21.555-.515.645-.915h1.185a2.394 2.394 0 01-1.005 1.635c-.56.4-1.265.6-2.115.6zm1.98-4.785v-.66c0-.67-.17-1.185-.51-1.545-.34-.37-.83-.555-1.47-.555-.63 0-1.12.185-1.47.555-.34.36-.51.875-.51 1.545v.525h4.08l-.12.135zm4.45 4.635v-8.25h5.85v1.08h-4.665V303h-1.185zm8.366 2.7v-10.95h1.185v1.455h.315l-.36.495c0-.65.21-1.16.63-1.53.43-.38.995-.57 1.695-.57.83 0 1.49.275 1.98.825.5.54.75 1.28.75 2.22v2.445c0 .63-.115 1.175-.345 1.635-.23.45-.55.8-.96 1.05-.4.25-.875.375-1.425.375-.69 0-1.25-.19-1.68-.57-.43-.38-.645-.89-.645-1.53l.315.495h-.285l.015 1.68v2.475h-1.185zm3.09-3.585c.6 0 1.065-.18 1.395-.54.34-.36.51-.87.51-1.53v-2.34c0-.67-.17-1.18-.51-1.53-.33-.36-.795-.54-1.395-.54-.58 0-1.045.185-1.395.555-.34.36-.51.865-.51 1.515v2.34c0 .65.17 1.16.51 1.53.35.36.815.54 1.395.54zm8.231 1.035c-.87 0-1.555-.22-2.055-.66-.5-.45-.75-1.055-.75-1.815 0-.75.245-1.34.735-1.77.49-.44 1.15-.66 1.98-.66h2.625v-.87c0-.55-.16-.975-.48-1.275-.32-.3-.775-.45-1.365-.45-.52 0-.955.115-1.305.345-.34.23-.535.54-.585.93h-1.2c.1-.71.43-1.275.99-1.695.57-.42 1.28-.63 2.13-.63.92 0 1.65.25 2.19.75.54.49.81 1.155.81 1.995V303h-1.17v-1.605h-.195l.225-.24c0 .61-.235 1.095-.705 1.455-.47.36-1.095.54-1.875.54zm.285-.96c.66 0 1.2-.165 1.62-.495.42-.33.63-.76.63-1.29v-1.245h-2.61c-.47 0-.845.13-1.125.39s-.42.615-.42 1.065c0 .48.17.865.51 1.155.34.28.805.42 1.395.42zm12.115 2.91V303h-5.865v-8.25h1.2v7.185h3.42v-7.185h1.185v7.185h1.14v3.165h-1.08zm3.056-2.1v-8.25h1.155v4.695c0 .28-.01.58-.03.9a22.728 22.728 0 01-.105 1.59l3.495-7.185h1.545V303h-1.155v-4.695c0-.29.005-.59.015-.9.02-.31.04-.605.06-.885.03-.29.05-.53.06-.72l-3.51 7.2h-1.53zm8.455 0l2.1-3.195c-.64-.14-1.135-.425-1.485-.855-.35-.43-.525-.97-.525-1.62 0-.8.265-1.43.795-1.89.54-.46 1.27-.69 2.19-.69h3.451V303h-1.201v-3.09h-1.995l-1.95 3.09h-1.38zm3.075-4.155h2.25v-3.03h-2.25c-.54 0-.97.135-1.29.405-.32.27-.48.64-.48 1.11 0 .47.16.84.48 1.11.32.27.75.405 1.29.405zm18.322 4.305c-.73 0-1.37-.135-1.92-.405-.55-.28-.98-.665-1.29-1.155-.3-.5-.45-1.08-.45-1.74v-4.65c0-.67.15-1.25.45-1.74.31-.49.74-.87 1.29-1.14.55-.28 1.19-.42 1.92-.42.74 0 1.38.14 1.92.42.55.27.975.65 1.275 1.14.31.49.465 1.07.465 1.74h-2.25c0-.44-.125-.775-.375-1.005-.24-.23-.585-.345-1.035-.345-.45 0-.8.115-1.05.345-.24.23-.36.565-.36 1.005v4.65c0 .43.12.765.36 1.005.25.23.6.345 1.05.345.45 0 .795-.115 1.035-.345.25-.24.375-.575.375-1.005h2.25c0 .66-.155 1.24-.465 1.74-.3.49-.725.875-1.275 1.155-.54.27-1.18.405-1.92.405zm5.335-.15v-10.95h3.525c.78 0 1.455.135 2.025.405.57.27 1.01.655 1.32 1.155.32.5.48 1.09.48 1.77 0 .71-.175 1.345-.525 1.905-.34.56-.805.965-1.395 1.215l2.07 4.5h-2.445l-1.77-4.14h-1.05V303h-2.235zm2.235-6.09h1.29c.5 0 .885-.125 1.155-.375.28-.25.42-.6.42-1.05 0-.47-.14-.835-.42-1.095-.27-.26-.655-.39-1.155-.39h-1.29v2.91zm6.341 6.09v-10.95h2.535l1.005 3.45c.11.36.19.675.24.945.06.27.095.46.105.57.01-.11.04-.3.09-.57.06-.27.14-.585.24-.945l.99-3.45h2.535V303h-2.055v-3c0-.55.01-1.125.03-1.725.03-.61.065-1.215.105-1.815.04-.6.085-1.16.135-1.68.05-.53.095-.99.135-1.38l-1.26 4.95h-1.905l-1.32-4.95c.05.37.1.815.15 1.335.05.51.095 1.065.135 1.665.05.59.09 1.195.12 1.815.03.62.045 1.215.045 1.785v3h-2.055zm10.391-3.9V297h4.8v2.1h-4.8zm-122.444 24.05c-.73 0-1.37-.135-1.92-.405a3.11 3.11 0 01-1.275-1.155c-.3-.5-.45-1.08-.45-1.74v-1.95c0-.67.15-1.25.45-1.74.3-.49.725-.87 1.275-1.14.55-.28 1.19-.42 1.92-.42 1.09 0 1.96.275 2.61.825.65.55.995 1.3 1.035 2.25h-2.25c-.03-.35-.17-.625-.42-.825-.24-.2-.565-.3-.975-.3-.45 0-.795.115-1.035.345-.24.23-.36.565-.36 1.005v1.95c0 .43.12.765.36 1.005.24.23.585.345 1.035.345.41 0 .735-.095.975-.285.25-.2.39-.48.42-.84h2.25c-.04.95-.385 1.7-1.035 2.25-.65.55-1.52.825-2.61.825zm5.366-.15v-8.25h1.98v3.75c0 .25-.015.565-.045.945-.03.37-.07.745-.12 1.125-.04.38-.085.715-.135 1.005l2.61-6.825h2.73V323h-1.98v-3.75c0-.26.015-.555.045-.885.03-.34.065-.68.105-1.02.04-.34.08-.63.12-.87l-2.58 6.525h-2.73zm12.475.15c-.73 0-1.37-.135-1.92-.405a3.11 3.11 0 01-1.275-1.155c-.3-.5-.45-1.08-.45-1.74v-1.95c0-.67.15-1.25.45-1.74.3-.49.725-.87 1.275-1.14.55-.28 1.19-.42 1.92-.42 1.09 0 1.96.275 2.61.825.65.55.995 1.3 1.035 2.25h-2.25c-.03-.35-.17-.625-.42-.825-.24-.2-.565-.3-.975-.3-.45 0-.795.115-1.035.345-.24.23-.36.565-.36 1.005v1.95c0 .43.12.765.36 1.005.24.23.585.345 1.035.345.41 0 .735-.095.975-.285.25-.2.39-.48.42-.84h2.25c-.04.95-.385 1.7-1.035 2.25-.65.55-1.52.825-2.61.825zm7.751-.15v-6.15h-2.7v-2.1h7.65v2.1h-2.7V323h-2.25zm10.06.15c-.73 0-1.37-.135-1.92-.405-.54-.28-.96-.665-1.26-1.155-.29-.5-.435-1.08-.435-1.74v-1.95c0-.66.145-1.235.435-1.725.3-.5.72-.885 1.26-1.155.55-.28 1.19-.42 1.92-.42s1.36.14 1.89.42c.54.27.955.655 1.245 1.155.3.49.45 1.065.45 1.725v1.5h-5.055v.45c0 .52.125.915.375 1.185.25.26.625.39 1.125.39.35 0 .63-.06.84-.18a.872.872 0 00.435-.495h2.205c-.18.72-.59 1.3-1.23 1.74-.63.44-1.39.66-2.28.66zm1.44-4.905v-.375c0-.51-.12-.9-.36-1.17-.23-.27-.59-.405-1.08-.405-.49 0-.86.14-1.11.42-.24.28-.36.675-.36 1.185v.225l3.06-.03-.15.15zm3.596 4.755v-8.25h2.535l.975 3.075c.11.35.195.67.255.96.07.28.11.49.12.63.02-.14.055-.35.105-.63.06-.29.145-.61.255-.96l.96-3.075h2.535V323h-2.055v-1.5c0-.33.005-.7.015-1.11l.06-1.29c.03-.45.055-.88.075-1.29.03-.42.06-.79.09-1.11l-1.095 3.975h-1.905l-1.155-3.975c.04.41.08.9.12 1.47.05.57.09 1.15.12 1.74.03.58.045 1.11.045 1.59v1.5h-2.055zm24.486 1.8c-1.41-.35-2.5-1.03-3.27-2.04s-1.155-2.265-1.155-3.765v-2.79c0-.99.175-1.875.525-2.655.36-.79.87-1.455 1.53-1.995s1.45-.925 2.37-1.155v1.14c-.66.15-1.23.445-1.71.885-.48.43-.85.965-1.11 1.605-.26.64-.39 1.365-.39 2.175v2.79c0 .79.13 1.51.39 2.16.26.64.63 1.175 1.11 1.605.48.42 1.05.705 1.71.855v1.185zm5.546-1.8v-4.125l-3.315-6.825h1.23l2.25 4.62c.12.24.215.45.285.63.08.18.135.315.165.405.03-.09.085-.225.165-.405.08-.18.175-.39.285-.63l2.22-4.62h1.23l-3.315 6.825V323h-1.2zm9.595.15c-.65 0-1.215-.125-1.695-.375a2.65 2.65 0 01-1.095-1.08c-.26-.47-.39-1.02-.39-1.65v-5.04c0-.64.13-1.19.39-1.65.26-.47.625-.83 1.095-1.08.48-.25 1.045-.375 1.695-.375.64 0 1.195.13 1.665.39.48.25.85.61 1.11 1.08.26.47.391 1.03.391 1.68h-1.186c0-.66-.175-1.17-.525-1.53-.35-.37-.835-.555-1.455-.555-.62 0-1.11.18-1.47.54-.35.35-.525.85-.525 1.5v5.04c0 .64.175 1.14.525 1.5.36.36.85.54 1.47.54s1.105-.18 1.455-.54c.35-.37.525-.885.525-1.545h1.186c0 .64-.131 1.2-.391 1.68-.26.47-.63.835-1.11 1.095-.47.25-1.025.375-1.665.375zm9.926-.15c-.47 0-.88-.09-1.23-.27-.34-.18-.605-.44-.795-.78-.19-.34-.285-.74-.285-1.2v-7.62h-2.745v-1.08h3.93v8.7c0 .37.1.66.3.87.2.2.475.3.825.3h2.625V323h-2.625zm4.661 0v-1.08h2.94v-6.09h-2.565v-1.08h3.765v7.17h2.79V323h-6.93zm3.405-9.765c-.31 0-.56-.08-.75-.24-.18-.16-.27-.38-.27-.66 0-.29.09-.52.27-.69.19-.17.44-.255.75-.255s.555.085.735.255c.19.17.285.4.285.69 0 .27-.095.49-.285.66-.18.16-.425.24-.735.24zm8.695 9.915c-.64 0-1.195-.125-1.665-.375a2.747 2.747 0 01-1.095-1.095c-.26-.47-.39-1.015-.39-1.635v-2.34c0-.63.13-1.175.39-1.635.26-.47.625-.83 1.095-1.08.47-.26 1.025-.39 1.665-.39.64 0 1.195.13 1.665.39.47.25.835.61 1.095 1.08.26.46.39 1.005.39 1.635v1.455h-5.13v.885c0 .67.17 1.19.51 1.56.35.36.84.54 1.47.54.53 0 .96-.105 1.29-.315.34-.21.555-.515.645-.915h1.185a2.394 2.394 0 01-1.005 1.635c-.56.4-1.265.6-2.115.6zm1.98-4.785v-.66c0-.67-.17-1.185-.51-1.545-.34-.37-.83-.555-1.47-.555-.63 0-1.12.185-1.47.555-.34.36-.51.875-.51 1.545v.525h4.08l-.12.135zm3.896 4.635v-8.25h1.185v1.53h.3l-.33.435c0-.66.2-1.175.6-1.545.41-.38.965-.57 1.665-.57.82 0 1.475.26 1.965.78.49.51.735 1.205.735 2.085V323h-1.185v-5.4c0-.63-.165-1.115-.495-1.455-.33-.34-.78-.51-1.35-.51-.59 0-1.055.18-1.395.54-.34.36-.51.87-.51 1.53V323h-1.185zm12.866 0c-.69 0-1.225-.18-1.605-.54-.38-.37-.57-.89-.57-1.56v-5.07h-2.34v-1.08h2.34v-2.325h1.2v2.325h3.315v1.08h-3.315v5.07c0 .68.325 1.02.975 1.02h2.19V323h-2.19zm7.72.135c-.54 0-1.015-.09-1.425-.27-.41-.18-.735-.43-.975-.75-.24-.33-.385-.71-.435-1.14h1.185c.07.33.245.595.525.795.29.2.665.3 1.125.3h.735c.53 0 .93-.115 1.2-.345.28-.24.42-.555.42-.945 0-.37-.12-.67-.36-.9-.24-.23-.585-.38-1.035-.45l-1.245-.195c-.78-.13-1.37-.38-1.77-.75-.39-.37-.585-.89-.585-1.56 0-.73.235-1.295.705-1.695.48-.41 1.17-.615 2.07-.615h.585c.78 0 1.405.185 1.875.555.48.37.77.87.87 1.5h-1.2a1.1 1.1 0 00-.495-.72c-.26-.18-.61-.27-1.05-.27h-.585c-.53 0-.925.11-1.185.33-.26.21-.39.515-.39.915 0 .36.11.635.33.825.22.18.555.305 1.005.375l1.23.195c.82.13 1.43.39 1.83.78.4.38.6.915.6 1.605 0 .75-.24 1.345-.72 1.785-.48.43-1.18.645-2.1.645h-.735zM172.47 343v-8.25h1.155v4.695c0 .28-.01.58-.03.9a22.728 22.728 0 01-.105 1.59l3.495-7.185h1.545V343h-1.155v-4.695c0-.29.005-.59.015-.9.02-.31.04-.605.06-.885.03-.29.05-.53.06-.72L174 343h-1.53zm17.196 0l2.895-10.95h1.575l2.88 10.95h-1.2l-.765-2.97h-3.42l-.75 2.97h-1.215zm2.205-3.99h2.925l-.93-3.66c-.15-.61-.27-1.12-.36-1.53-.09-.42-.145-.69-.165-.81-.02.12-.075.39-.165.81-.09.41-.21.92-.36 1.53l-.945 3.66zm7.091 3.99v-10.95h1.605l1.245 3.72c.1.29.195.585.285.885.09.3.155.535.195.705.05-.17.115-.405.195-.705.09-.3.185-.6.285-.9l1.185-3.705h1.605V343h-1.17v-4.68c0-.42.01-.885.03-1.395.03-.52.065-1.04.105-1.56a259.385 259.385 0 01.225-2.715l-1.845 5.535h-1.26l-1.86-5.535a47.194 47.194 0 01.225 2.655c.03.51.055 1.025.075 1.545.03.52.045 1.01.045 1.47V343h-1.17zm12.22.15c-.64 0-1.195-.125-1.665-.375a2.602 2.602 0 01-1.065-1.065c-.25-.47-.375-1.025-.375-1.665v-5.04c0-.64.125-1.19.375-1.65.25-.47.605-.83 1.065-1.08.47-.25 1.025-.375 1.665-.375.64 0 1.19.125 1.65.375.47.25.83.61 1.08 1.08.25.46.375 1.01.375 1.65v5.04c0 .64-.125 1.195-.375 1.665-.25.46-.61.815-1.08 1.065-.46.25-1.01.375-1.65.375zm0-1.065c.62 0 1.095-.175 1.425-.525.33-.36.495-.865.495-1.515v-5.04c0-.65-.17-1.15-.51-1.5-.33-.36-.8-.54-1.41-.54-.61 0-1.085.18-1.425.54-.33.35-.495.85-.495 1.5v5.04c0 .65.165 1.155.495 1.515.34.35.815.525 1.425.525zm17.917 1.065c-.65 0-1.215-.125-1.695-.375a2.65 2.65 0 01-1.095-1.08c-.26-.47-.39-1.02-.39-1.65v-5.04c0-.64.13-1.19.39-1.65.26-.47.625-.83 1.095-1.08.48-.25 1.045-.375 1.695-.375.64 0 1.195.13 1.665.39.48.25.85.61 1.11 1.08.26.47.39 1.03.39 1.68h-1.185c0-.66-.175-1.17-.525-1.53-.35-.37-.835-.555-1.455-.555-.62 0-1.11.18-1.47.54-.35.35-.525.85-.525 1.5v5.04c0 .64.175 1.14.525 1.5.36.36.85.54 1.47.54s1.105-.18 1.455-.54c.35-.37.525-.885.525-1.545h1.185c0 .64-.13 1.2-.39 1.68-.26.47-.63.835-1.11 1.095-.47.25-1.025.375-1.665.375zm5.8-.15v-10.95h3.3c.65 0 1.215.13 1.695.39a2.7 2.7 0 011.125 1.095c.27.46.405 1.005.405 1.635 0 .75-.2 1.39-.6 1.92-.4.53-.945.885-1.635 1.065l2.37 4.845h-1.41l-2.19-4.725h-1.875V343h-1.185zm1.185-5.805h2.115c.61 0 1.095-.185 1.455-.555.37-.37.555-.865.555-1.485 0-.62-.185-1.11-.555-1.47-.36-.37-.845-.555-1.455-.555h-2.115v4.065zm7.481 5.805v-10.95h1.605l1.245 3.72c.1.29.195.585.285.885.09.3.155.535.195.705.05-.17.115-.405.195-.705.09-.3.185-.6.285-.9l1.185-3.705h1.605V343h-1.17v-4.68c0-.42.01-.885.03-1.395.03-.52.065-1.04.105-1.56a259.385 259.385 0 01.225-2.715l-1.845 5.535h-1.26l-1.86-5.535a47.194 47.194 0 01.225 2.655c.03.51.055 1.025.075 1.545.03.52.045 1.01.045 1.47V343h-1.17zm9.445 1.8v-1.185c.67-.15 1.24-.435 1.71-.855.48-.43.85-.965 1.11-1.605.26-.65.39-1.37.39-2.16v-2.79c0-.81-.13-1.535-.39-2.175a4.28 4.28 0 00-1.11-1.605 3.695 3.695 0 00-1.71-.885v-1.14c.93.23 1.72.615 2.37 1.155a5.33 5.33 0 011.515 1.995c.36.78.54 1.665.54 2.655v2.79c0 1.5-.385 2.755-1.155 3.765-.77 1.01-1.86 1.69-3.27 2.04z" fill="#000"/><rect x=".265" y="265.265" width="146.47" height="101.47" rx="12.321" fill="#D1D9DE" stroke="url(#paint2_linear_2004_46)" stroke-width=".53"/><path d="M19.5 311.15c-.73 0-1.365-.135-1.905-.405-.54-.28-.96-.665-1.26-1.155-.29-.5-.435-1.08-.435-1.74v-4.65c0-.66.145-1.235.435-1.725.3-.5.72-.885 1.26-1.155.54-.28 1.175-.42 1.905-.42.74 0 1.375.14 1.905.42.54.27.955.655 1.245 1.155.3.49.45 1.065.45 1.725v4.65c0 .66-.15 1.24-.45 1.74-.29.49-.705.875-1.245 1.155-.53.27-1.165.405-1.905.405zm0-1.95c.45 0 .785-.115 1.005-.345.23-.24.345-.575.345-1.005v-4.65c0-.44-.11-.775-.33-1.005-.22-.23-.56-.345-1.02-.345-.46 0-.8.115-1.02.345-.22.23-.33.565-.33 1.005v4.65c0 .43.11.765.33 1.005.23.23.57.345 1.02.345zm8.92 1.95c-1.1-.02-1.974-.32-2.624-.9-.65-.59-.975-1.39-.975-2.4v-3.675c0-1.32.37-2.335 1.11-3.045.74-.72 1.795-1.08 3.165-1.08h2.475v2.175h-2.475c-.66 0-1.165.165-1.515.495-.34.33-.51.815-.51 1.455v1.05h.21l-.18.21c-.01-.56.17-1.005.54-1.335.38-.34.92-.51 1.62-.51.87 0 1.545.285 2.025.855.49.57.735 1.36.735 2.37v1.035c0 .67-.15 1.26-.45 1.77-.29.5-.705.885-1.245 1.155-.53.26-1.165.385-1.905.375zm0-1.95c.44 0 .776-.115 1.006-.345.23-.24.345-.575.345-1.005v-1.035c0-.44-.115-.775-.345-1.005-.23-.23-.565-.345-1.005-.345-.43 0-.765.115-1.005.345-.23.23-.345.565-.345 1.005v1.035c0 .43.115.765.345 1.005.24.23.575.345 1.005.345zm6.776 4.5l1.125-3.105-3.09-7.845h2.445l1.245 3.6c.09.27.18.6.27.99.1.38.175.69.225.93.05-.24.12-.55.21-.93.1-.39.195-.72.285-.99l1.2-3.6h2.34l-3.9 10.95h-2.355zm12.266-2.7v-2.625c-.12.03-.31.065-.57.105-.25.03-.535.045-.855.045-1.09 0-1.95-.27-2.58-.81-.63-.55-.945-1.305-.945-2.265v-2.7h2.25v2.55c0 .37.135.665.405.885.27.21.635.315 1.095.315.28 0 .525-.015.735-.045.22-.04.375-.075.465-.105v-3.6h2.25V311h-2.25zm7.735.15c-.73 0-1.37-.135-1.92-.405-.54-.28-.96-.665-1.26-1.155-.29-.5-.435-1.08-.435-1.74v-1.95c0-.66.145-1.235.435-1.725.3-.5.72-.885 1.26-1.155.55-.28 1.19-.42 1.92-.42s1.36.14 1.89.42c.54.27.955.655 1.245 1.155.3.49.45 1.065.45 1.725v1.5h-5.055v.45c0 .52.125.915.375 1.185.25.26.625.39 1.125.39.35 0 .63-.06.84-.18a.872.872 0 00.435-.495h2.205c-.18.72-.59 1.3-1.23 1.74-.63.44-1.39.66-2.28.66zm1.44-4.905v-.375c0-.51-.12-.9-.36-1.17-.23-.27-.59-.405-1.08-.405-.49 0-.86.14-1.11.42-.24.28-.36.675-.36 1.185v.225l3.06-.03-.15.15zM60.593 311v-8.25h2.25v3.015h2.52v-3.015h2.25V311h-2.25v-3.135h-2.52V311h-2.25zm8.92 0v-8.25h1.98v3.75c0 .25-.014.565-.044.945-.03.37-.07.745-.12 1.125-.04.38-.085.715-.135 1.005l2.61-6.825h2.73V311h-1.98v-3.75c0-.26.015-.555.045-.885.03-.34.065-.68.105-1.02.04-.34.08-.63.12-.87L72.244 311h-2.73zm12.446.15c-.73 0-1.37-.135-1.92-.405-.54-.28-.96-.665-1.26-1.155-.29-.5-.435-1.08-.435-1.74v-1.95c0-.66.145-1.235.435-1.725.3-.5.72-.885 1.26-1.155.55-.28 1.19-.42 1.92-.42s1.36.14 1.89.42c.54.27.955.655 1.245 1.155.3.49.45 1.065.45 1.725v1.5H80.49v.45c0 .52.125.915.375 1.185.25.26.625.39 1.125.39.35 0 .63-.06.84-.18a.872.872 0 00.435-.495h2.205c-.18.72-.59 1.3-1.23 1.74-.63.44-1.39.66-2.28.66zm1.44-4.905v-.375c0-.51-.12-.9-.36-1.17-.23-.27-.59-.405-1.08-.405-.49 0-.86.14-1.11.42-.24.28-.36.675-.36 1.185v.225l3.06-.03-.15.15zM19.5 331.135c-.64 0-1.195-.125-1.665-.375a2.65 2.65 0 01-1.095-1.08c-.26-.47-.39-1.025-.39-1.665v-2.28c0-.65.13-1.205.39-1.665.26-.47.625-.83 1.095-1.08.47-.25 1.025-.375 1.665-.375.64 0 1.195.125 1.665.375s.835.61 1.095 1.08c.26.46.39 1.01.39 1.65v2.295c0 .64-.13 1.195-.39 1.665s-.625.83-1.095 1.08c-.47.25-1.025.375-1.665.375zm0-1.065c.62 0 1.1-.175 1.44-.525.34-.35.51-.86.51-1.53v-2.28c0-.67-.175-1.18-.525-1.53-.34-.35-.815-.525-1.425-.525-.61 0-1.09.175-1.44.525-.34.35-.51.86-.51 1.53v2.28c0 .67.17 1.18.51 1.53.35.35.83.525 1.44.525zm8.32.93v-7.185h-3v-1.065h7.2v1.065h-3V331h-1.2zm5.531 2.1v-3.12h.675c.17-.19.345-.53.525-1.02.19-.5.29-1.105.3-1.815l.09-4.395h5.25v7.23h1.065v3.12h-1.065V331h-5.775v2.1h-1.065zm1.95-3.12h3.705v-6.165h-2.94l-.06 3.345c-.01.75-.095 1.365-.255 1.845s-.31.805-.45.975zm10.96 1.17c-.64 0-1.194-.125-1.664-.375a2.747 2.747 0 01-1.095-1.095c-.26-.47-.39-1.015-.39-1.635v-2.34c0-.63.13-1.175.39-1.635.26-.47.625-.83 1.095-1.08.47-.26 1.025-.39 1.665-.39.64 0 1.195.13 1.665.39.47.25.835.61 1.095 1.08.26.46.39 1.005.39 1.635v1.455h-5.13v.885c0 .67.17 1.19.51 1.56.35.36.84.54 1.47.54.53 0 .96-.105 1.29-.315.34-.21.555-.515.645-.915h1.185a2.394 2.394 0 01-1.005 1.635c-.56.4-1.265.6-2.115.6zm1.98-4.785v-.66c0-.67-.17-1.185-.51-1.545-.34-.37-.83-.555-1.47-.555-.63 0-1.12.185-1.47.555-.34.36-.51.875-.51 1.545v.525h4.08l-.12.135zm2.861 4.74v-1.125h.3c.43 0 .745-.175.945-.525.2-.36.305-.955.315-1.785l.105-4.92h5.445V331h-1.2v-7.17h-3.075l-.09 3.885c-.01.78-.105 1.42-.285 1.92-.17.5-.43.87-.78 1.11-.34.24-.785.36-1.335.36h-.345zm12.356.045c-.87 0-1.555-.22-2.055-.66-.5-.45-.75-1.055-.75-1.815 0-.75.245-1.34.735-1.77.49-.44 1.15-.66 1.98-.66h2.625v-.87c0-.55-.16-.975-.48-1.275-.32-.3-.775-.45-1.365-.45-.52 0-.955.115-1.305.345-.34.23-.535.54-.585.93h-1.2c.1-.71.43-1.275.99-1.695.57-.42 1.28-.63 2.13-.63.92 0 1.65.25 2.19.75.54.49.81 1.155.81 1.995V331h-1.17v-1.605h-.195l.225-.24c0 .61-.235 1.095-.705 1.455-.47.36-1.095.54-1.875.54zm.285-.96c.66 0 1.2-.165 1.62-.495.42-.33.63-.76.63-1.29v-1.245h-2.61c-.47 0-.845.13-1.125.39s-.42.615-.42 1.065c0 .48.17.865.51 1.155.34.28.805.42 1.395.42zm15.171.81v-8.25h6.06V331h-1.2v-7.17h-3.66V331h-1.2zm8.906 2.7v-10.95h1.185v1.455h.315l-.36.495c0-.65.21-1.16.63-1.53.43-.38.995-.57 1.695-.57.83 0 1.49.275 1.98.825.5.54.75 1.28.75 2.22v2.445c0 .63-.115 1.175-.345 1.635-.23.45-.55.8-.96 1.05-.4.25-.875.375-1.425.375-.69 0-1.25-.19-1.68-.57-.43-.38-.645-.89-.645-1.53l.315.495h-.285l.015 1.68v2.475H87.82zm3.09-3.585c.6 0 1.065-.18 1.395-.54.34-.36.51-.87.51-1.53v-2.34c0-.67-.17-1.18-.51-1.53-.33-.36-.795-.54-1.395-.54-.58 0-1.045.185-1.395.555-.34.36-.51.865-.51 1.515v2.34c0 .65.17 1.16.51 1.53.35.36.815.54 1.395.54zm8.876 1.02c-.64 0-1.195-.125-1.665-.375a2.65 2.65 0 01-1.096-1.08c-.26-.47-.39-1.025-.39-1.665v-2.28c0-.65.13-1.205.39-1.665.26-.47.625-.83 1.096-1.08.47-.25 1.025-.375 1.665-.375.639 0 1.194.125 1.664.375s.836.61 1.095 1.08c.261.46.391 1.01.391 1.65v2.295c0 .64-.13 1.195-.391 1.665-.259.47-.625.83-1.095 1.08-.47.25-1.025.375-1.665.375zm0-1.065c.619 0 1.099-.175 1.439-.525.34-.35.51-.86.51-1.53v-2.28c0-.67-.175-1.18-.525-1.53-.34-.35-.815-.525-1.424-.525-.61 0-1.09.175-1.44.525-.34.35-.51.86-.51 1.53v2.28c0 .67.17 1.18.51 1.53.35.35.83.525 1.44.525zm4.93 3.03v-3.12h.675c.17-.19.345-.53.525-1.02.19-.5.29-1.105.3-1.815l.09-4.395h5.25v7.23h1.065v3.12h-1.065V331h-5.775v2.1h-1.065zm1.95-3.12h3.705v-6.165h-2.94l-.06 3.345c-.01.75-.095 1.365-.255 1.845s-.31.805-.45.975zm10.316 1.17c-.87 0-1.555-.22-2.055-.66-.5-.45-.75-1.055-.75-1.815 0-.75.245-1.34.735-1.77.49-.44 1.15-.66 1.98-.66h2.625v-.87c0-.55-.16-.975-.48-1.275-.32-.3-.775-.45-1.365-.45-.52 0-.955.115-1.305.345-.34.23-.535.54-.585.93h-1.2c.1-.71.43-1.275.99-1.695.57-.42 1.28-.63 2.13-.63.92 0 1.65.25 2.19.75.54.49.81 1.155.81 1.995V331h-1.17v-1.605h-.195l.225-.24c0 .61-.235 1.095-.705 1.455-.47.36-1.095.54-1.875.54zm.285-.96c.66 0 1.2-.165 1.62-.495.42-.33.63-.76.63-1.29v-1.245h-2.61c-.47 0-.845.13-1.125.39s-.42.615-.42 1.065c0 .48.17.865.51 1.155.34.28.805.42 1.395.42zm5.125.81l1.8-4.23-1.68-4.02h1.155l1.485 3.645h.885v-3.645h1.02v3.645h.855l1.53-3.645h1.14l-1.68 3.975 1.8 4.275h-1.2l-1.545-3.795h-.9V331h-1.02v-3.795h-.9L123.562 331h-1.17z" fill="#000"/><rect x=".265" y="115.265" width="122.47" height="141.47" rx="12.321" fill="#D1D9DE" stroke="url(#paint3_linear_2004_46)" stroke-width=".53"/><path d="M24.395 167.15c-.68 0-1.275-.12-1.785-.36a3.076 3.076 0 01-1.215-1.035c-.29-.44-.45-.955-.48-1.545h1.2c.04.58.265 1.04.675 1.38.41.33.945.495 1.605.495.7 0 1.255-.185 1.665-.555.41-.38.615-.88.615-1.5 0-.64-.205-1.145-.615-1.515-.41-.37-.965-.555-1.665-.555H23.06v-1.08h1.32c.64 0 1.145-.19 1.515-.57.38-.39.57-.88.57-1.47 0-.6-.19-1.065-.57-1.395-.37-.33-.875-.495-1.515-.495-.65 0-1.17.185-1.56.555-.39.36-.585.835-.585 1.425h-1.2c0-.61.14-1.14.42-1.59.28-.46.665-.815 1.155-1.065.5-.25 1.09-.375 1.77-.375 1.01 0 1.815.245 2.415.735.6.49.9 1.18.9 2.07 0 .51-.105.965-.315 1.365-.21.39-.51.695-.9.915-.38.22-.835.325-1.365.315v-.195c.57-.01 1.065.105 1.485.345.42.23.745.56.975.99.23.42.345.92.345 1.5 0 .63-.145 1.185-.435 1.665-.29.48-.7.86-1.23 1.14-.52.27-1.14.405-1.86.405zm8.38 0c-.87 0-1.554-.22-2.054-.66-.5-.45-.75-1.055-.75-1.815 0-.75.245-1.34.735-1.77.49-.44 1.15-.66 1.98-.66h2.625v-.87c0-.55-.16-.975-.48-1.275-.32-.3-.775-.45-1.365-.45-.52 0-.955.115-1.305.345-.34.23-.535.54-.585.93h-1.2c.1-.71.43-1.275.99-1.695.57-.42 1.28-.63 2.13-.63.92 0 1.65.25 2.19.75.54.49.81 1.155.81 1.995V167h-1.17v-1.605h-.195l.225-.24c0 .61-.235 1.095-.705 1.455-.47.36-1.095.54-1.875.54zm.286-.96c.66 0 1.2-.165 1.62-.495.42-.33.63-.76.63-1.29v-1.245H32.7c-.47 0-.845.13-1.125.39s-.42.615-.42 1.065c0 .48.17.865.51 1.155.34.28.805.42 1.395.42zm6.295.81v-8.25h1.2v3.465h1.56l2.445-3.465h1.365l-2.775 3.93 2.835 4.32h-1.395l-2.475-3.75h-1.56V167h-1.2zm8.86 2.7v-10.95h1.186v1.455h.315l-.36.495c0-.65.21-1.16.63-1.53.43-.38.995-.57 1.695-.57.83 0 1.49.275 1.98.825.5.54.75 1.28.75 2.22v2.445c0 .63-.115 1.175-.345 1.635-.23.45-.55.8-.96 1.05-.4.25-.875.375-1.425.375-.69 0-1.25-.19-1.68-.57-.43-.38-.645-.89-.645-1.53l.315.495h-.285l.015 1.68v2.475h-1.185zm3.09-3.585c.6 0 1.066-.18 1.396-.54.34-.36.51-.87.51-1.53v-2.34c0-.67-.17-1.18-.51-1.53-.33-.36-.795-.54-1.395-.54-.58 0-1.045.185-1.395.555-.34.36-.51.865-.51 1.515v2.34c0 .65.17 1.16.51 1.53.35.36.815.54 1.395.54zm5.411.885v-8.25h1.125v3.06h.735c.88 0 1.575.235 2.085.705.52.46.78 1.09.78 1.89 0 .8-.255 1.435-.765 1.905-.51.46-1.21.69-2.1.69h-1.86zm1.125-.975h.735c.56 0 .995-.14 1.305-.42.32-.29.48-.69.48-1.2s-.16-.905-.48-1.185c-.31-.29-.745-.435-1.305-.435h-.735v3.24zm4.68.975v-8.25h1.125V167h-1.125zm5.981 0v-7.185h-3v-1.065h7.2v1.065h-3V167h-1.2zm6.49 0v-8.25h1.156v4.695c0 .28-.01.58-.03.9a22.728 22.728 0 01-.105 1.59l3.495-7.185h1.545V167h-1.155v-4.695c0-.29.005-.59.015-.9.02-.31.04-.605.06-.885.03-.29.05-.53.06-.72l-3.51 7.2h-1.53zm11.951.15c-.64 0-1.195-.125-1.665-.375a2.747 2.747 0 01-1.095-1.095c-.26-.47-.39-1.015-.39-1.635v-2.34c0-.63.13-1.175.39-1.635.26-.47.625-.83 1.095-1.08.47-.26 1.025-.39 1.665-.39.64 0 1.195.13 1.665.39.47.25.835.61 1.095 1.08.26.46.39 1.005.39 1.635v1.455h-5.13v.885c0 .67.17 1.19.51 1.56.35.36.84.54 1.47.54.53 0 .96-.105 1.29-.315.34-.21.555-.515.645-.915h1.185a2.394 2.394 0 01-1.005 1.635c-.56.4-1.265.6-2.115.6zm1.98-4.785v-.66c0-.67-.17-1.185-.51-1.545-.34-.37-.83-.555-1.47-.555-.63 0-1.12.185-1.47.555-.34.36-.51.875-.51 1.545v.525h4.08l-.12.135zM21.47 187v-8.25h6.06V187h-1.2v-7.17h-3.66V187h-1.2zm8.906 2.7v-10.95h1.185v1.455h.315l-.36.495c0-.65.21-1.16.63-1.53.43-.38.995-.57 1.695-.57.83 0 1.49.275 1.98.825.5.54.75 1.28.75 2.22v2.445c0 .63-.115 1.175-.345 1.635-.23.45-.55.8-.96 1.05-.4.25-.875.375-1.425.375-.69 0-1.25-.19-1.68-.57-.43-.38-.645-.89-.645-1.53l.315.495h-.285l.015 1.68v2.475h-1.185zm3.09-3.585c.6 0 1.065-.18 1.395-.54.34-.36.51-.87.51-1.53v-2.34c0-.67-.17-1.18-.51-1.53-.33-.36-.795-.54-1.395-.54-.58 0-1.045.185-1.395.555-.34.36-.51.865-.51 1.515v2.34c0 .65.17 1.16.51 1.53.35.36.815.54 1.395.54zm8.875 1.02c-.64 0-1.195-.125-1.665-.375a2.65 2.65 0 01-1.095-1.08c-.26-.47-.39-1.025-.39-1.665v-2.28c0-.65.13-1.205.39-1.665.26-.47.625-.83 1.095-1.08.47-.25 1.025-.375 1.665-.375.64 0 1.195.125 1.665.375s.835.61 1.095 1.08c.26.46.39 1.01.39 1.65v2.295c0 .64-.13 1.195-.39 1.665s-.625.83-1.095 1.08c-.47.25-1.025.375-1.665.375zm0-1.065c.62 0 1.1-.175 1.44-.525.34-.35.51-.86.51-1.53v-2.28c0-.67-.175-1.18-.525-1.53-.34-.35-.815-.525-1.425-.525-.61 0-1.09.175-1.44.525-.34.35-.51.86-.51 1.53v2.28c0 .67.17 1.18.51 1.53.35.35.83.525 1.44.525zm11.756 3.03V187h-5.865v-8.25h1.2v7.185h3.42v-7.185h1.185v7.185h1.14v3.165h-1.08zm6.085-1.95c-.64 0-1.195-.125-1.665-.375a2.747 2.747 0 01-1.095-1.095c-.26-.47-.39-1.015-.39-1.635v-2.34c0-.63.13-1.175.39-1.635.26-.47.625-.83 1.095-1.08.47-.26 1.025-.39 1.665-.39.64 0 1.195.13 1.665.39.47.25.835.61 1.095 1.08.26.46.39 1.005.39 1.635v1.455h-5.13v.885c0 .67.17 1.19.51 1.56.35.36.84.54 1.47.54.53 0 .96-.105 1.29-.315.34-.21.555-.515.645-.915h1.185a2.394 2.394 0 01-1.005 1.635c-.56.4-1.265.6-2.115.6zm1.98-4.785v-.66c0-.67-.17-1.185-.51-1.545-.34-.37-.83-.555-1.47-.555-.63 0-1.12.185-1.47.555-.34.36-.51.875-.51 1.545v.525h4.08l-.12.135zm6.956 4.785c-.64 0-1.2-.125-1.68-.375a2.75 2.75 0 01-1.125-1.065c-.26-.47-.39-1.025-.39-1.665v-2.34c0-.64.13-1.19.39-1.65.27-.47.645-.83 1.125-1.08.48-.25 1.04-.375 1.68-.375.94 0 1.695.255 2.265.765.57.51.865 1.205.885 2.085h-1.185c-.02-.57-.205-1.01-.555-1.32-.34-.31-.81-.465-1.41-.465-.61 0-1.095.18-1.455.54-.36.35-.54.85-.54 1.5v2.34c0 .64.18 1.14.54 1.5.36.36.845.54 1.455.54.6 0 1.07-.155 1.41-.465.35-.32.535-.76.555-1.32h1.185c-.02.88-.315 1.575-.885 2.085-.57.51-1.325.765-2.265.765zm8.92 0c-.64 0-1.2-.125-1.68-.375a2.75 2.75 0 01-1.124-1.065c-.26-.47-.39-1.025-.39-1.665v-2.34c0-.64.13-1.19.39-1.65.27-.47.645-.83 1.125-1.08.48-.25 1.04-.375 1.68-.375.94 0 1.695.255 2.265.765.57.51.865 1.205.885 2.085h-1.185c-.02-.57-.205-1.01-.555-1.32-.34-.31-.81-.465-1.41-.465-.61 0-1.095.18-1.455.54-.36.35-.54.85-.54 1.5v2.34c0 .64.18 1.14.54 1.5.36.36.845.54 1.455.54.6 0 1.07-.155 1.41-.465.35-.32.535-.76.555-1.32h1.185c-.02.88-.315 1.575-.885 2.085-.57.51-1.325.765-2.265.765zm8.906-.015c-.64 0-1.195-.125-1.665-.375a2.65 2.65 0 01-1.095-1.08c-.26-.47-.39-1.025-.39-1.665v-2.28c0-.65.13-1.205.39-1.665.26-.47.625-.83 1.095-1.08.47-.25 1.025-.375 1.665-.375.64 0 1.195.125 1.665.375s.835.61 1.095 1.08c.26.46.39 1.01.39 1.65v2.295c0 .64-.13 1.195-.39 1.665s-.625.83-1.095 1.08c-.47.25-1.025.375-1.665.375zm0-1.065c.62 0 1.1-.175 1.44-.525.34-.35.51-.86.51-1.53v-2.28c0-.67-.175-1.18-.525-1.53-.34-.35-.815-.525-1.425-.525-.61 0-1.09.175-1.44.525-.34.35-.51.86-.51 1.53v2.28c0 .67.17 1.18.51 1.53.35.35.83.525 1.44.525zm5.89.93v-8.25h3.54c.82 0 1.466.195 1.936.585.47.38.705.91.705 1.59 0 .57-.195 1.03-.585 1.38-.38.34-.89.51-1.53.51v-.105c.69 0 1.245.18 1.665.54.42.35.63.82.63 1.41 0 .73-.25 1.305-.75 1.725-.49.41-1.17.615-2.04.615h-3.57zm1.17-1.05h2.4c.49 0 .88-.115 1.17-.345.29-.24.436-.56.436-.96 0-.42-.145-.745-.435-.975-.29-.24-.68-.36-1.17-.36h-2.4v2.64zm0-3.675h2.37c.44 0 .79-.11 1.05-.33.27-.22.406-.52.406-.9s-.135-.68-.405-.9c-.26-.23-.61-.345-1.05-.345h-2.37v2.475zM20.99 207v-8.25h7.02V207h-2.25v-6.15h-2.52V207h-2.25zm12.43.15c-.73 0-1.364-.135-1.904-.405-.54-.28-.96-.665-1.26-1.155-.29-.5-.435-1.08-.435-1.74v-1.95c0-.66.145-1.235.435-1.725.3-.5.72-.885 1.26-1.155.54-.28 1.175-.42 1.905-.42.74 0 1.375.14 1.905.42.54.27.955.655 1.245 1.155.3.49.45 1.065.45 1.725v1.95c0 .66-.15 1.24-.45 1.74-.29.49-.705.875-1.245 1.155-.53.27-1.165.405-1.905.405zm0-1.95c.44 0 .776-.115 1.006-.345.23-.24.345-.575.345-1.005v-1.95c0-.44-.115-.775-.345-1.005-.23-.23-.565-.345-1.005-.345-.43 0-.765.115-1.005.345-.23.23-.345.565-.345 1.005v1.95c0 .43.115.765.345 1.005.24.23.575.345 1.005.345zm4.751 3.9v-4.005h.465c.17-.17.345-.465.525-.885.19-.43.29-.95.3-1.56l.075-3.9h6.075v6.345h.9v4.005h-2.1V207h-4.14v2.1h-2.1zm2.7-4.005h2.64v-4.41h-1.905l-.045 1.95c-.01.58-.095 1.09-.255 1.53-.15.43-.295.74-.435.93zM56.717 207v-8.25h2.25v3.12h1.11l1.725-3.12h2.505l-2.295 4.035 2.34 4.215h-2.55l-1.74-3.24h-1.095V207h-2.25zm8.201.105v-2.025h.45c.26 0 .475-.11.645-.33.17-.22.26-.51.27-.87l.09-5.13h6.24V207h-2.25v-6.15h-1.785l-.06 3.18c-.01.61-.145 1.15-.405 1.62-.25.46-.6.82-1.05 1.08-.44.25-.955.375-1.545.375h-.6zm14.486.045c-.79 0-1.4-.225-1.83-.675-.42-.46-.63-1.065-.63-1.815v-1.11h-1.125V207h-1.845v-8.25h1.845v3.375h1.125v-1.05c0-.74.21-1.335.63-1.785.43-.46 1.04-.69 1.83-.69.8 0 1.445.225 1.935.675.49.45.735 1.05.735 1.8v3.585c0 .75-.25 1.355-.75 1.815-.49.45-1.13.675-1.92.675zm0-1.65c.24 0 .435-.075.585-.225.16-.16.24-.365.24-.615v-3.585c0-.24-.08-.435-.24-.585a.765.765 0 00-.585-.24c-.24 0-.44.08-.6.24a.791.791 0 00-.225.585v3.585c0 .25.075.455.225.615.16.15.36.225.6.225zm8.74 1.5v-2.625c-.12.03-.31.065-.57.105-.25.03-.535.045-.855.045-1.09 0-1.95-.27-2.58-.81-.63-.55-.945-1.305-.945-2.265v-2.7h2.25v2.55c0 .37.135.665.405.885.27.21.635.315 1.095.315.28 0 .525-.015.735-.045.22-.04.375-.075.465-.105v-3.6h2.25V207h-2.25z" fill="#000"/><rect x="132.265" y="115.265" width="220.47" height="141.47" rx="12.321" fill="#D1D9DE" stroke="url(#paint4_linear_2004_46)" stroke-width=".53"/><path d="M159.56 152.15c-.73 0-1.37-.135-1.92-.405-.55-.28-.98-.665-1.29-1.155-.3-.5-.45-1.08-.45-1.74v-4.65c0-.67.15-1.25.45-1.74.31-.49.74-.87 1.29-1.14.55-.28 1.19-.42 1.92-.42.74 0 1.38.14 1.92.42.55.27.975.65 1.275 1.14.31.49.465 1.07.465 1.74h-2.25c0-.44-.125-.775-.375-1.005-.24-.23-.585-.345-1.035-.345-.45 0-.8.115-1.05.345-.24.23-.36.565-.36 1.005v4.65c0 .43.12.765.36 1.005.25.23.6.345 1.05.345.45 0 .795-.115 1.035-.345.25-.24.375-.575.375-1.005h2.25c0 .66-.155 1.24-.465 1.74-.3.49-.725.875-1.275 1.155-.54.27-1.18.405-1.92.405zm8.861 0c-.73 0-1.365-.135-1.905-.405-.54-.28-.96-.665-1.26-1.155-.29-.5-.435-1.08-.435-1.74v-1.95c0-.66.145-1.235.435-1.725.3-.5.72-.885 1.26-1.155.54-.28 1.175-.42 1.905-.42.74 0 1.375.14 1.905.42.54.27.955.655 1.245 1.155.3.49.45 1.065.45 1.725v1.95c0 .66-.15 1.24-.45 1.74-.29.49-.705.875-1.245 1.155-.53.27-1.165.405-1.905.405zm0-1.95c.44 0 .775-.115 1.005-.345.23-.24.345-.575.345-1.005v-1.95c0-.44-.115-.775-.345-1.005-.23-.23-.565-.345-1.005-.345-.43 0-.765.115-1.005.345-.23.23-.345.565-.345 1.005v1.95c0 .43.115.765.345 1.005.24.23.575.345 1.005.345zm8.965 1.95c-.73 0-1.37-.135-1.92-.405a3.11 3.11 0 01-1.275-1.155c-.3-.5-.45-1.08-.45-1.74v-1.95c0-.67.15-1.25.45-1.74.3-.49.725-.87 1.275-1.14.55-.28 1.19-.42 1.92-.42 1.09 0 1.96.275 2.61.825.65.55.995 1.3 1.035 2.25h-2.25c-.03-.35-.17-.625-.42-.825-.24-.2-.565-.3-.975-.3-.45 0-.795.115-1.035.345-.24.23-.36.565-.36 1.005v1.95c0 .43.12.765.36 1.005.24.23.585.345 1.035.345.41 0 .735-.095.975-.285.25-.2.39-.48.42-.84h2.25c-.04.95-.385 1.7-1.035 2.25-.65.55-1.52.825-2.61.825zm7.751-.15v-6.15h-2.7v-2.1h7.65v2.1h-2.7V152h-2.25zm8.98.15c-.83 0-1.49-.225-1.98-.675-.48-.45-.72-1.06-.72-1.83 0-.83.285-1.465.855-1.905.58-.45 1.41-.675 2.49-.675h1.71v-.615a.941.941 0 00-.345-.765c-.22-.19-.52-.285-.9-.285-.35 0-.64.08-.87.24-.23.16-.37.38-.42.66h-2.175c.09-.83.45-1.485 1.08-1.965.64-.49 1.46-.735 2.46-.735 1.05 0 1.88.26 2.49.78.62.51.93 1.2.93 2.07V152h-2.175v-1.35h-.36l.375-.525c0 .62-.225 1.115-.675 1.485-.44.36-1.03.54-1.77.54zm.84-1.65c.44 0 .8-.115 1.08-.345.29-.24.435-.55.435-.93v-.885h-1.665c-.34 0-.615.1-.825.3-.21.19-.315.445-.315.765 0 .34.115.61.345.81.23.19.545.285.945.285zm5.621 1.5v-8.25h3.735c1.01 0 1.81.205 2.4.615.6.4.9.945.9 1.635 0 .55-.225.995-.675 1.335-.45.33-1.045.495-1.785.495v-.15c.81 0 1.455.18 1.935.54.49.36.735.835.735 1.425 0 .73-.3 1.305-.9 1.725-.59.42-1.395.63-2.415.63h-3.93zm2.205-1.59h1.62c.37 0 .665-.085.885-.255.23-.18.345-.41.345-.69 0-.3-.115-.54-.345-.72-.22-.18-.515-.27-.885-.27h-1.62v1.935zm0-3.255h1.545c.34 0 .61-.08.81-.24.2-.17.3-.39.3-.66 0-.28-.1-.505-.3-.675-.2-.17-.47-.255-.81-.255h-1.545v1.83zm6.056 4.95v-2.025h.45c.26 0 .475-.11.645-.33.17-.22.26-.51.27-.87l.09-5.13h6.24V152h-2.25v-6.15h-1.785l-.06 3.18c-.01.61-.145 1.15-.405 1.62-.25.46-.6.82-1.05 1.08-.44.25-.955.375-1.545.375h-.6zm13.12.045c-.73 0-1.37-.135-1.92-.405-.54-.28-.96-.665-1.26-1.155-.29-.5-.435-1.08-.435-1.74v-1.95c0-.66.145-1.235.435-1.725.3-.5.72-.885 1.26-1.155.55-.28 1.19-.42 1.92-.42s1.36.14 1.89.42c.54.27.955.655 1.245 1.155.3.49.45 1.065.45 1.725v1.5h-5.055v.45c0 .52.125.915.375 1.185.25.26.625.39 1.125.39.35 0 .63-.06.84-.18a.872.872 0 00.435-.495h2.205c-.18.72-.59 1.3-1.23 1.74-.63.44-1.39.66-2.28.66zm1.44-4.905v-.375c0-.51-.12-.9-.36-1.17-.23-.27-.59-.405-1.08-.405-.49 0-.86.14-1.11.42-.24.28-.36.675-.36 1.185v.225l3.06-.03-.15.15zm3.956 4.755v-8.25h2.25v3.015h2.52v-3.015h2.25V152h-2.25v-3.135h-2.52V152h-2.25zm8.92 0v-8.25h1.98v3.75c0 .25-.015.565-.045.945-.03.37-.07.745-.12 1.125-.04.38-.085.715-.135 1.005l2.61-6.825h2.731V152h-1.981v-3.75c0-.26.015-.555.046-.885a29.363 29.363 0 01.224-1.89l-2.58 6.525h-2.73zm12.446.15c-.73 0-1.37-.135-1.92-.405-.54-.28-.96-.665-1.26-1.155-.29-.5-.435-1.08-.435-1.74v-1.95c0-.66.145-1.235.435-1.725.3-.5.72-.885 1.26-1.155.55-.28 1.19-.42 1.92-.42s1.36.14 1.89.42c.54.27.955.655 1.245 1.155.3.49.45 1.065.45 1.725v1.5h-5.055v.45c0 .52.125.915.375 1.185.25.26.625.39 1.125.39.35 0 .63-.06.84-.18a.872.872 0 00.435-.495h2.205c-.18.72-.59 1.3-1.23 1.74-.63.44-1.39.66-2.28.66zm1.44-4.905v-.375c0-.51-.12-.9-.36-1.17-.23-.27-.59-.405-1.08-.405-.49 0-.86.14-1.11.42-.24.28-.36.675-.36 1.185v.225l3.06-.03-.15.15zm16.446 4.905c-.73 0-1.37-.135-1.92-.405-.55-.28-.98-.665-1.29-1.155-.3-.5-.45-1.08-.45-1.74v-4.65c0-.67.15-1.25.45-1.74.31-.49.74-.87 1.29-1.14.55-.28 1.19-.42 1.92-.42.74 0 1.38.14 1.92.42.55.27.975.65 1.275 1.14.31.49.465 1.07.465 1.74h-2.25c0-.44-.125-.775-.375-1.005-.24-.23-.585-.345-1.035-.345-.45 0-.8.115-1.05.345-.24.23-.36.565-.36 1.005v4.65c0 .43.12.765.36 1.005.25.23.6.345 1.05.345.45 0 .795-.115 1.035-.345.25-.24.375-.575.375-1.005h2.25c0 .66-.155 1.24-.465 1.74-.3.49-.725.875-1.275 1.155-.54.27-1.18.405-1.92.405zm8.411.015c-1.15 0-2.065-.31-2.745-.93-.67-.63-1.005-1.475-1.005-2.535h2.25c0 .46.135.83.405 1.11.27.27.635.405 1.095.405.46 0 .825-.13 1.095-.39.27-.27.405-.635.405-1.095v-5.58h-2.475v-2.1h4.725v7.68c0 1.06-.335 1.9-1.005 2.52-.67.61-1.585.915-2.745.915zm5.501-.165v-10.95h2.535l1.005 3.45c.11.36.19.675.24.945.06.27.095.46.105.57.01-.11.04-.3.09-.57.06-.27.14-.585.24-.945l.99-3.45h2.535V152h-2.055v-3c0-.55.01-1.125.03-1.725.03-.61.065-1.215.105-1.815.04-.6.085-1.16.135-1.68.05-.53.095-.99.135-1.38l-1.26 4.95h-1.905l-1.32-4.95c.05.37.1.815.15 1.335.05.51.095 1.065.135 1.665.05.59.09 1.195.12 1.815.03.62.045 1.215.045 1.785v3h-2.055zm-124.004 20v-8.25h1.2v3.465h1.56l2.445-3.465h1.365l-2.775 3.93 2.835 4.32h-1.395l-2.475-3.75h-1.56V172h-1.2zm7.826.105v-1.125h.3c.43 0 .745-.175.945-.525.2-.36.305-.955.315-1.785l.105-4.92h5.445V172h-1.2v-7.17h-3.075l-.09 3.885c-.01.78-.105 1.42-.285 1.92-.17.5-.43.87-.78 1.11-.34.24-.785.36-1.335.36h-.345zm9.97-.105v-8.25h1.155v4.695c0 .28-.01.58-.03.9a22.728 22.728 0 01-.105 1.59l3.495-7.185h1.545V172h-1.155v-4.695c0-.29.005-.59.015-.9.02-.31.04-.605.06-.885.03-.29.05-.53.06-.72l-3.51 7.2h-1.53zm11.951.15c-.64 0-1.195-.125-1.665-.375a2.747 2.747 0 01-1.095-1.095c-.26-.47-.39-1.015-.39-1.635v-2.34c0-.63.13-1.175.39-1.635.26-.47.625-.83 1.095-1.08.47-.26 1.025-.39 1.665-.39.64 0 1.195.13 1.665.39.47.25.835.61 1.095 1.08.26.46.39 1.005.39 1.635v1.455h-5.13v.885c0 .67.17 1.19.51 1.56.35.36.84.54 1.47.54.53 0 .96-.105 1.29-.315.34-.21.555-.515.645-.915h1.185a2.394 2.394 0 01-1.005 1.635c-.56.4-1.265.6-2.115.6zm1.98-4.785v-.66c0-.67-.17-1.185-.51-1.545-.34-.37-.83-.555-1.47-.555-.63 0-1.12.185-1.47.555-.34.36-.51.875-.51 1.545v.525h4.08l-.12.135zm3.91 4.635v-8.25h1.2v3.51h3.66v-3.51h1.2V172h-1.2v-3.66h-3.66V172h-1.2zm11.351 0v-7.185h-3v-1.065h7.2v1.065h-3V172h-1.2zm8.876.15c-.87 0-1.555-.22-2.055-.66-.5-.45-.75-1.055-.75-1.815 0-.75.245-1.34.735-1.77.49-.44 1.15-.66 1.98-.66h2.625v-.87c0-.55-.16-.975-.48-1.275-.32-.3-.775-.45-1.365-.45-.52 0-.955.115-1.305.345-.34.23-.535.54-.585.93h-1.2c.1-.71.43-1.275.99-1.695.57-.42 1.28-.63 2.13-.63.92 0 1.65.25 2.19.75.54.49.81 1.155.81 1.995V172h-1.17v-1.605h-.195l.225-.24c0 .61-.235 1.095-.705 1.455-.47.36-1.095.54-1.875.54zm.285-.96c.66 0 1.2-.165 1.62-.495.42-.33.63-.76.63-1.29v-1.245h-2.61c-.47 0-.845.13-1.125.39s-.42.615-.42 1.065c0 .48.17.865.51 1.155.34.28.805.42 1.395.42zm15.171.81v-8.25h1.155v4.695c0 .28-.01.58-.03.9a22.728 22.728 0 01-.105 1.59l3.495-7.185h1.545V172h-1.155v-4.695c0-.29.005-.59.015-.9.02-.31.04-.605.06-.885.03-.29.05-.53.06-.72l-3.51 7.2h-1.53zm-71.845 20v-8.25h7.02V192h-2.25v-6.15h-2.52V192h-2.25zm12.476.15c-.73 0-1.37-.135-1.92-.405a3.11 3.11 0 01-1.275-1.155c-.3-.5-.45-1.08-.45-1.74v-1.95c0-.67.15-1.25.45-1.74.3-.49.725-.87 1.275-1.14.55-.28 1.19-.42 1.92-.42 1.09 0 1.96.275 2.61.825.65.55.995 1.3 1.035 2.25h-2.25c-.03-.35-.17-.625-.42-.825-.24-.2-.565-.3-.975-.3-.45 0-.795.115-1.035.345-.24.23-.36.565-.36 1.005v1.95c0 .43.12.765.36 1.005.24.23.585.345 1.035.345.41 0 .735-.095.975-.285.25-.2.39-.48.42-.84h2.25c-.04.95-.385 1.7-1.035 2.25-.65.55-1.52.825-2.61.825zm5.365-.15v-8.25h1.98v3.75c0 .25-.015.565-.045.945-.03.37-.07.745-.12 1.125-.04.38-.085.715-.135 1.005l2.61-6.825h2.73V192h-1.98v-3.75c0-.26.015-.555.045-.885.03-.34.065-.68.105-1.02.04-.34.08-.63.12-.87l-2.58 6.525h-2.73zm8.321 0l2.85-4.275-2.655-3.975h2.505l1.02 1.65c.08.13.155.275.225.435.07.16.125.29.165.39.04-.1.095-.23.165-.39.08-.16.155-.305.225-.435l1.02-1.65h2.505l-2.64 3.975 2.835 4.275h-2.505l-1.2-1.95c-.08-.14-.16-.285-.24-.435-.07-.16-.125-.29-.165-.39a5.935 5.935 0 01-.39.825l-1.215 1.95h-2.505zm13.03.15c-.73 0-1.365-.135-1.905-.405-.54-.28-.96-.665-1.26-1.155-.29-.5-.435-1.08-.435-1.74v-1.95c0-.66.145-1.235.435-1.725.3-.5.72-.885 1.26-1.155.54-.28 1.175-.42 1.905-.42.74 0 1.375.14 1.905.42.54.27.955.655 1.245 1.155.3.49.45 1.065.45 1.725v1.95c0 .66-.15 1.24-.45 1.74-.29.49-.705.875-1.245 1.155-.53.27-1.165.405-1.905.405zm0-1.95c.44 0 .775-.115 1.005-.345.23-.24.345-.575.345-1.005v-1.95c0-.44-.115-.775-.345-1.005-.23-.23-.565-.345-1.005-.345-.43 0-.765.115-1.005.345-.23.23-.345.565-.345 1.005v1.95c0 .43.115.765.345 1.005.24.23.575.345 1.005.345zm4.736 1.905v-2.025h.45c.26 0 .475-.11.645-.33.17-.22.26-.51.27-.87l.09-5.13h6.24V192h-2.25v-6.15h-1.785l-.06 3.18c-.01.61-.145 1.15-.405 1.62-.25.46-.6.82-1.05 1.08-.44.25-.955.375-1.545.375h-.6zm13.106.045c-.73 0-1.365-.135-1.905-.405-.54-.28-.96-.665-1.26-1.155-.29-.5-.435-1.08-.435-1.74v-1.95c0-.66.145-1.235.435-1.725.3-.5.72-.885 1.26-1.155.54-.28 1.175-.42 1.905-.42.74 0 1.375.14 1.905.42.54.27.955.655 1.245 1.155.3.49.45 1.065.45 1.725v1.95c0 .66-.15 1.24-.45 1.74-.29.49-.705.875-1.245 1.155-.53.27-1.165.405-1.905.405zm0-1.95c.44 0 .775-.115 1.005-.345.23-.24.345-.575.345-1.005v-1.95c0-.44-.115-.775-.345-1.005-.23-.23-.565-.345-1.005-.345-.43 0-.765.115-1.005.345-.23.23-.345.565-.345 1.005v1.95c0 .43.115.765.345 1.005.24.23.575.345 1.005.345zm6.145 1.8v-8.25h6.3v2.1h-4.05V192h-2.25zm8.186 0v-8.25h1.98v3.75c0 .25-.015.565-.045.945-.03.37-.07.745-.12 1.125-.04.38-.085.715-.135 1.005l2.61-6.825h2.73V192h-1.98v-3.75c0-.26.015-.555.045-.885.03-.34.065-.68.105-1.02.04-.34.08-.63.12-.87l-2.58 6.525h-2.73zm13.63 0v-2.625c-.119.03-.31.065-.57.105-.25.03-.535.045-.855.045-1.09 0-1.95-.27-2.58-.81-.63-.55-.945-1.305-.945-2.265v-2.7h2.25v2.55c0 .37.135.665.405.885.27.21.635.315 1.095.315.28 0 .525-.015.735-.045.22-.04.375-.075.465-.105v-3.6h2.251V192h-2.251zm7.736.15c-.73 0-1.37-.135-1.92-.405-.54-.28-.96-.665-1.26-1.155-.29-.5-.435-1.08-.435-1.74v-1.95c0-.66.145-1.235.435-1.725.3-.5.72-.885 1.26-1.155.55-.28 1.19-.42 1.92-.42s1.36.14 1.89.42c.54.27.955.655 1.245 1.155.3.49.45 1.065.45 1.725v1.5h-5.055v.45c0 .52.125.915.375 1.185.25.26.625.39 1.125.39.35 0 .63-.06.84-.18a.872.872 0 00.435-.495h2.205c-.18.72-.59 1.3-1.23 1.74-.63.44-1.39.66-2.28.66zm1.44-4.905v-.375c0-.51-.12-.9-.36-1.17-.23-.27-.59-.405-1.08-.405-.49 0-.86.14-1.11.42-.24.28-.36.675-.36 1.185v.225l3.06-.03-.15.15zm7.511 4.905c-.73 0-1.37-.135-1.92-.405a3.11 3.11 0 01-1.275-1.155c-.3-.5-.45-1.08-.45-1.74v-1.95c0-.67.15-1.25.45-1.74.3-.49.725-.87 1.275-1.14.55-.28 1.19-.42 1.92-.42 1.09 0 1.96.275 2.61.825.65.55.995 1.3 1.035 2.25h-2.25c-.03-.35-.17-.625-.42-.825-.24-.2-.565-.3-.975-.3-.45 0-.795.115-1.035.345-.24.23-.36.565-.36 1.005v1.95c0 .43.12.765.36 1.005.24.23.585.345 1.035.345.41 0 .735-.095.975-.285.25-.2.39-.48.42-.84h2.25c-.04.95-.385 1.7-1.035 2.25-.65.55-1.52.825-2.61.825zm5.41-.15v-8.25h2.25v3.12h1.11l1.725-3.12h2.505l-2.295 4.035 2.34 4.215h-2.55l-1.74-3.24h-1.095V192h-2.25zm8.876 0v-8.25h1.98v3.75c0 .25-.015.565-.045.945-.03.37-.07.745-.12 1.125-.04.38-.085.715-.135 1.005l2.61-6.825h2.73V192h-1.98v-3.75c0-.26.015-.555.045-.885.03-.34.065-.68.105-1.02.04-.34.08-.63.12-.87l-2.58 6.525h-2.73zm8.321 0l2.85-4.275-2.655-3.975h2.505l1.02 1.65c.08.13.155.275.225.435.07.16.125.29.165.39.04-.1.095-.23.165-.39.08-.16.155-.305.225-.435l1.02-1.65h2.505l-2.64 3.975 2.835 4.275h-2.505l-1.2-1.95c-.08-.14-.16-.285-.24-.435-.07-.16-.125-.29-.165-.39a5.935 5.935 0 01-.39.825l-1.215 1.95h-2.505zM155.99 212v-8.25h7.02V212h-2.25v-6.15h-2.52V212h-2.25zm12.431.15c-.73 0-1.365-.135-1.905-.405-.54-.28-.96-.665-1.26-1.155-.29-.5-.435-1.08-.435-1.74v-1.95c0-.66.145-1.235.435-1.725.3-.5.72-.885 1.26-1.155.54-.28 1.175-.42 1.905-.42.74 0 1.375.14 1.905.42.54.27.955.655 1.245 1.155.3.49.45 1.065.45 1.725v1.95c0 .66-.15 1.24-.45 1.74-.29.49-.705.875-1.245 1.155-.53.27-1.165.405-1.905.405zm0-1.95c.44 0 .775-.115 1.005-.345.23-.24.345-.575.345-1.005v-1.95c0-.44-.115-.775-.345-1.005-.23-.23-.565-.345-1.005-.345-.43 0-.765.115-1.005.345-.23.23-.345.565-.345 1.005v1.95c0 .43.115.765.345 1.005.24.23.575.345 1.005.345zm5.41 4.5v-10.95h2.175v1.575h.525l-.525.525c0-.71.195-1.26.585-1.65.39-.4.925-.6 1.605-.6.83 0 1.495.295 1.995.885.5.58.75 1.36.75 2.34v2.1c0 .65-.115 1.22-.345 1.71-.22.48-.535.855-.945 1.125-.41.26-.895.39-1.455.39-.68 0-1.215-.195-1.605-.585-.39-.4-.585-.955-.585-1.665l.525.525h-.525l.075 2.025v2.25h-2.25zm3.555-4.5c.42 0 .74-.115.96-.345.23-.24.345-.575.345-1.005v-1.95c0-.44-.115-.775-.345-1.005-.22-.23-.54-.345-.96-.345-.41 0-.73.12-.96.36-.23.23-.345.56-.345.99v1.95c0 .43.115.765.345 1.005.23.23.55.345.96.345zm7.751 1.8v-6.15h-2.7v-2.1h7.65v2.1h-2.7V212h-2.25zm6.535 2.7v-10.95h2.175v1.575h.525l-.525.525c0-.71.195-1.26.585-1.65.39-.4.925-.6 1.605-.6.83 0 1.495.295 1.995.885.5.58.75 1.36.75 2.34v2.1c0 .65-.115 1.22-.345 1.71-.22.48-.535.855-.945 1.125-.41.26-.895.39-1.455.39-.68 0-1.215-.195-1.605-.585-.39-.4-.585-.955-.585-1.665l.525.525h-.525l.075 2.025v2.25h-2.25zm3.555-4.5c.42 0 .74-.115.96-.345.23-.24.345-.575.345-1.005v-1.95c0-.44-.115-.775-.345-1.005-.22-.23-.54-.345-.96-.345-.41 0-.73.12-.96.36-.23.23-.345.56-.345.99v1.95c0 .43.115.765.345 1.005.23.23.55.345.96.345zm8.891 1.95c-.73 0-1.37-.135-1.92-.405-.54-.28-.96-.665-1.26-1.155-.29-.5-.435-1.08-.435-1.74v-1.95c0-.66.145-1.235.435-1.725.3-.5.72-.885 1.26-1.155.55-.28 1.19-.42 1.92-.42s1.36.14 1.89.42c.54.27.955.655 1.245 1.155.3.49.45 1.065.45 1.725v1.5h-5.055v.45c0 .52.125.915.375 1.185.25.26.625.39 1.125.39.35 0 .63-.06.84-.18a.872.872 0 00.435-.495h2.205c-.18.72-.59 1.3-1.23 1.74-.63.44-1.39.66-2.28.66zm1.44-4.905v-.375c0-.51-.12-.9-.36-1.17-.23-.27-.59-.405-1.08-.405-.49 0-.86.14-1.11.42-.24.28-.36.675-.36 1.185v.225l3.06-.03-.15.15zm6.341 4.755v-6.15h-2.7v-2.1h7.65v2.1h-2.7V212h-2.25zm10.045.15c-.73 0-1.365-.135-1.905-.405-.54-.28-.96-.665-1.26-1.155-.29-.5-.435-1.08-.435-1.74v-1.95c0-.66.145-1.235.435-1.725.3-.5.72-.885 1.26-1.155.54-.28 1.175-.42 1.905-.42.74 0 1.375.14 1.905.42.54.27.955.655 1.245 1.155.3.49.45 1.065.45 1.725v1.95c0 .66-.15 1.24-.45 1.74-.29.49-.705.875-1.245 1.155-.53.27-1.165.405-1.905.405zm0-1.95c.44 0 .775-.115 1.005-.345.23-.24.345-.575.345-1.005v-1.95c0-.44-.115-.775-.345-1.005-.23-.23-.565-.345-1.005-.345-.43 0-.765.115-1.005.345-.23.23-.345.565-.345 1.005v1.95c0 .43.115.765.345 1.005.24.23.575.345 1.005.345zm5.396 1.8v-8.25h3.735c1.01 0 1.81.205 2.4.615.6.4.9.945.9 1.635 0 .55-.225.995-.675 1.335-.45.33-1.045.495-1.785.495v-.15c.81 0 1.455.18 1.935.54.49.36.735.835.735 1.425 0 .73-.3 1.305-.9 1.725-.59.42-1.395.63-2.415.63h-3.93zm2.205-1.59h1.62c.37 0 .665-.085.885-.255.23-.18.345-.41.345-.69 0-.3-.115-.54-.345-.72-.22-.18-.515-.27-.885-.27h-1.62v1.935zm0-3.255h1.545c.34 0 .61-.08.81-.24.2-.17.3-.39.3-.66 0-.28-.1-.505-.3-.675-.2-.17-.47-.255-.81-.255h-1.545v1.83zm21.996 6.945V212h-5.865v-8.25h1.2v7.185h3.42v-7.185h1.185v7.185h1.14v3.165h-1.08zm6.086-1.95c-.64 0-1.195-.125-1.665-.375a2.747 2.747 0 01-1.095-1.095c-.26-.47-.39-1.015-.39-1.635v-2.34c0-.63.13-1.175.39-1.635.26-.47.625-.83 1.095-1.08.47-.26 1.025-.39 1.665-.39.64 0 1.195.13 1.665.39.47.25.835.61 1.095 1.08.26.46.39 1.005.39 1.635v1.455h-5.13v.885c0 .67.17 1.19.51 1.56.35.36.84.54 1.47.54.53 0 .96-.105 1.29-.315.34-.21.555-.515.645-.915h1.185a2.394 2.394 0 01-1.005 1.635c-.56.4-1.265.6-2.115.6zm1.98-4.785v-.66c0-.67-.17-1.185-.51-1.545-.34-.37-.83-.555-1.47-.555-.63 0-1.12.185-1.47.555-.34.36-.51.875-.51 1.545v.525h4.08l-.12.135zm2.86 4.74v-1.125h.3c.43 0 .745-.175.945-.525.2-.36.305-.955.315-1.785l.105-4.92h5.445V212h-1.2v-7.17h-3.075l-.09 3.885c-.01.78-.105 1.42-.285 1.92-.17.5-.43.87-.78 1.11-.34.24-.785.36-1.335.36h-.345zm13.001.045c-.64 0-1.195-.125-1.665-.375a2.747 2.747 0 01-1.095-1.095c-.26-.47-.39-1.015-.39-1.635v-2.34c0-.63.13-1.175.39-1.635.26-.47.625-.83 1.095-1.08.47-.26 1.025-.39 1.665-.39.64 0 1.195.13 1.665.39.47.25.835.61 1.095 1.08.26.46.39 1.005.39 1.635v1.455h-5.13v.885c0 .67.17 1.19.51 1.56.35.36.84.54 1.47.54.53 0 .96-.105 1.29-.315.34-.21.555-.515.645-.915h1.185a2.394 2.394 0 01-1.005 1.635c-.56.4-1.265.6-2.115.6zm1.98-4.785v-.66c0-.67-.17-1.185-.51-1.545-.34-.37-.83-.555-1.47-.555-.63 0-1.12.185-1.47.555-.34.36-.51.875-.51 1.545v.525h4.08l-.12.135zm3.911 4.635v-8.25h3.54c.82 0 1.465.195 1.935.585.47.38.705.91.705 1.59 0 .57-.195 1.03-.585 1.38-.38.34-.89.51-1.53.51v-.105c.69 0 1.245.18 1.665.54.42.35.63.82.63 1.41 0 .73-.25 1.305-.75 1.725-.49.41-1.17.615-2.04.615h-3.57zm1.17-1.05h2.4c.49 0 .88-.115 1.17-.345.29-.24.435-.56.435-.96 0-.42-.145-.745-.435-.975-.29-.24-.68-.36-1.17-.36h-2.4v2.64zm0-3.675h2.37c.44 0 .79-.11 1.05-.33.27-.22.405-.52.405-.9s-.135-.68-.405-.9c-.26-.23-.61-.345-1.05-.345h-2.37v2.475zm10.78 4.86c-.64 0-1.195-.125-1.665-.375a2.65 2.65 0 01-1.095-1.08c-.26-.47-.39-1.025-.39-1.665v-2.28c0-.65.13-1.205.39-1.665.26-.47.625-.83 1.095-1.08.47-.25 1.025-.375 1.665-.375.64 0 1.195.125 1.665.375s.835.61 1.095 1.08c.26.46.39 1.01.39 1.65v2.295c0 .64-.13 1.195-.39 1.665s-.625.83-1.095 1.08c-.47.25-1.025.375-1.665.375zm0-1.065c.62 0 1.1-.175 1.44-.525.34-.35.51-.86.51-1.53v-2.28c0-.67-.175-1.18-.525-1.53-.34-.35-.815-.525-1.425-.525-.61 0-1.09.175-1.44.525-.34.35-.51.86-.51 1.53v2.28c0 .67.17 1.18.51 1.53.35.35.83.525 1.44.525zm5.891.93v-8.25h1.155v4.695c0 .28-.01.58-.03.9a22.728 22.728 0 01-.105 1.59l3.495-7.185h1.545V212h-1.155v-4.695c0-.29.005-.59.015-.9.02-.31.04-.605.06-.885.03-.29.05-.53.06-.72l-3.51 7.2h-1.53zm3.09-9.615c-.71 0-1.28-.195-1.71-.585-.42-.4-.63-.925-.63-1.575h.96c0 .41.12.74.36.99.25.25.585.375 1.005.375.43 0 .77-.125 1.02-.375s.375-.58.375-.99h.96c0 .65-.215 1.175-.645 1.575-.42.39-.985.585-1.695.585zM158.855 232.15c-.87 0-1.555-.22-2.055-.66-.5-.45-.75-1.055-.75-1.815 0-.75.245-1.34.735-1.77.49-.44 1.15-.66 1.98-.66h2.625v-.87c0-.55-.16-.975-.48-1.275-.32-.3-.775-.45-1.365-.45-.52 0-.955.115-1.305.345-.34.23-.535.54-.585.93h-1.2c.1-.71.43-1.275.99-1.695.57-.42 1.28-.63 2.13-.63.92 0 1.65.25 2.19.75.54.49.81 1.155.81 1.995V232h-1.17v-1.605h-.195l.225-.24c0 .61-.235 1.095-.705 1.455-.47.36-1.095.54-1.875.54zm.285-.96c.66 0 1.2-.165 1.62-.495.42-.33.63-.76.63-1.29v-1.245h-2.61c-.47 0-.845.13-1.125.39s-.42.615-.42 1.065c0 .48.17.865.51 1.155.34.28.805.42 1.395.42zm7.541 3.51l1.215-3.225-3.06-7.725h1.32l1.95 5.145c.08.2.155.425.225.675.08.24.14.44.18.6.05-.16.11-.365.18-.615.07-.25.14-.475.21-.675l1.83-5.13h1.275l-4.065 10.95h-1.26zm6.67-.6v-3.12h.675c.17-.19.345-.53.525-1.02.19-.5.29-1.105.3-1.815l.09-4.395h5.25v7.23h1.065v3.12h-1.065V232h-5.775v2.1h-1.065zm1.95-3.12h3.705v-6.165h-2.94l-.06 3.345c-.01.75-.095 1.365-.255 1.845s-.31.805-.45.975zm7.931 1.02v-8.25h1.155v4.695c0 .28-.01.58-.03.9a22.728 22.728 0 01-.105 1.59l3.495-7.185h1.545V232h-1.155v-4.695c0-.29.005-.59.015-.9.02-.31.04-.605.06-.885.03-.29.05-.53.06-.72l-3.51 7.2h-1.53zm11.35 0v-7.185h-3v-1.065h7.2v1.065h-3V232h-1.2zm9.521.135c-.64 0-1.195-.125-1.665-.375a2.65 2.65 0 01-1.095-1.08c-.26-.47-.39-1.025-.39-1.665v-2.28c0-.65.13-1.205.39-1.665.26-.47.625-.83 1.095-1.08.47-.25 1.025-.375 1.665-.375.64 0 1.195.125 1.665.375s.835.61 1.095 1.08c.26.46.39 1.01.39 1.65v2.295c0 .64-.13 1.195-.39 1.665s-.625.83-1.095 1.08c-.47.25-1.025.375-1.665.375zm0-1.065c.62 0 1.1-.175 1.44-.525.34-.35.51-.86.51-1.53v-2.28c0-.67-.175-1.18-.525-1.53-.34-.35-.815-.525-1.425-.525-.61 0-1.09.175-1.44.525-.34.35-.51.86-.51 1.53v2.28c0 .67.17 1.18.51 1.53.35.35.83.525 1.44.525zm5.876 3.63v-10.95h1.185v1.455h.315l-.36.495c0-.65.21-1.16.63-1.53.43-.38.995-.57 1.695-.57.83 0 1.49.275 1.98.825.5.54.75 1.28.75 2.22v2.445c0 .63-.115 1.175-.345 1.635-.23.45-.55.8-.96 1.05-.4.25-.875.375-1.425.375-.69 0-1.25-.19-1.68-.57-.43-.38-.645-.89-.645-1.53l.315.495h-.285l.015 1.68v2.475h-1.185zm3.09-3.585c.6 0 1.065-.18 1.395-.54.34-.36.51-.87.51-1.53v-2.34c0-.67-.17-1.18-.51-1.53-.33-.36-.795-.54-1.395-.54-.58 0-1.045.185-1.395.555-.34.36-.51.865-.51 1.515v2.34c0 .65.17 1.16.51 1.53.35.36.815.54 1.395.54zm5.845.885v-8.25h1.155v4.695c0 .28-.01.58-.03.9a22.728 22.728 0 01-.105 1.59l3.495-7.185h1.545V232h-1.155v-4.695c0-.29.005-.59.015-.9.02-.31.04-.605.06-.885.03-.29.05-.53.06-.72l-3.51 7.2h-1.53zm8.921 0v-8.25h1.155v4.695c0 .28-.01.58-.03.9a22.728 22.728 0 01-.105 1.59l3.495-7.185h1.545V232h-1.155v-4.695c0-.29.005-.59.015-.9.02-.31.04-.605.06-.885.03-.29.05-.53.06-.72l-3.51 7.2h-1.53z" fill="#000"/><defs><linearGradient id="paint0_linear_2004_46" x1="222" y1="5.511" x2="309.276" y2="130.843" gradientUnits="userSpaceOnUse"><stop stop-color="#fff" stop-opacity=".7"/><stop offset="1" stop-color="#fff" stop-opacity=".5"/></linearGradient><linearGradient id="paint1_linear_2004_46" x1="170.231" y1="270.157" x2="237.331" y2="412.733" gradientUnits="userSpaceOnUse"><stop stop-color="#fff" stop-opacity=".7"/><stop offset="1" stop-color="#fff" stop-opacity=".5"/></linearGradient><linearGradient id="paint2_linear_2004_46" x1="11.308" y1="270.157" x2="90.06" y2="394.391" gradientUnits="userSpaceOnUse"><stop stop-color="#fff" stop-opacity=".7"/><stop offset="1" stop-color="#fff" stop-opacity=".5"/></linearGradient><linearGradient id="paint3_linear_2004_46" x1="9.462" y1="122.18" x2="130.515" y2="236.956" gradientUnits="userSpaceOnUse"><stop stop-color="#fff" stop-opacity=".7"/><stop offset="1" stop-color="#fff" stop-opacity=".5"/></linearGradient><linearGradient id="paint4_linear_2004_46" x1="149" y1="122.18" x2="254.847" y2="302.498" gradientUnits="userSpaceOnUse"><stop stop-color="#fff" stop-opacity=".7"/><stop offset="1" stop-color="#fff" stop-opacity=".5"/></linearGradient></defs></svg>