<svg width="355" height="95" fill="none" xmlns="http://www.w3.org/2000/svg"><rect width="355" height="95" rx="11" fill="#CCEC60"/><path d="M7.128 26v-8.76H12v.984H8.208v2.64H9.66c.56 0 1.04.108 1.44.324.4.208.708.504.924.888.224.384.336.836.336 1.356 0 .52-.112.972-.336 1.356a2.276 2.276 0 01-.924.9c-.4.208-.88.312-1.44.312H7.128zm1.08-.984H9.66c.496 0 .884-.14 1.164-.42.28-.288.42-.676.42-1.164 0-.496-.14-.884-.42-1.164-.28-.28-.668-.42-1.164-.42H8.208v3.168zm5.214 1.068v-1.008h.216c.368 0 .624-.144.768-.432.152-.288.232-.804.24-1.548l.072-3.696h4.476V26h-1.08v-5.616h-2.328l-.06 2.76c-.016.696-.096 1.26-.24 1.692-.136.432-.352.748-.648.948-.288.2-.668.3-1.14.3h-.276zm9.846.036c-.696 0-1.244-.176-1.644-.528-.4-.36-.6-.844-.6-1.452 0-.616.2-1.1.6-1.452.4-.352.94-.528 1.62-.528h2.04v-.66c0-.408-.124-.72-.372-.936-.24-.224-.584-.336-1.032-.336-.392 0-.72.084-.984.252-.264.16-.416.38-.456.66h-1.08c.072-.568.34-1.02.804-1.356.464-.336 1.044-.504 1.74-.504.76 0 1.36.196 1.8.588.44.392.66.924.66 1.596V26h-1.056v-1.26h-.18l.18-.18c0 .48-.188.86-.564 1.14-.368.28-.86.42-1.476.42zm.264-.852c.512 0 .932-.128 1.26-.384.328-.256.492-.584.492-.984v-.936h-2.016c-.36 0-.644.1-.852.3-.208.2-.312.472-.312.816 0 .368.124.66.372.876.256.208.608.312 1.056.312zm5.393.732v-6.6h4.74v.984h-3.66V26h-1.08zm9.162.096c-.528 0-.984-.1-1.368-.3a2.178 2.178 0 01-.9-.864c-.208-.384-.312-.836-.312-1.356v-1.752c0-.528.104-.98.312-1.356.216-.376.516-.664.9-.864.384-.2.84-.3 1.368-.3.528 0 .984.1 1.368.3.384.2.68.488.888.864.216.376.324.824.324 1.344v1.764c0 .52-.108.972-.324 1.356a2.103 2.103 0 01-.888.864c-.384.2-.84.3-1.368.3zm0-.96c.472 0 .84-.132 1.104-.396.264-.264.396-.652.396-1.164v-1.752c0-.512-.132-.9-.396-1.164-.264-.264-.632-.396-1.104-.396-.464 0-.832.132-1.104.396-.264.264-.396.652-.396 1.164v1.752c0 .512.132.9.396 1.164.272.264.64.396 1.104.396zm3.882 2.544v-2.604h.54c.136-.136.276-.404.42-.804.152-.4.232-.908.24-1.524l.072-3.348h4.308v5.676h.84v2.604h-.96V26h-4.5v1.68h-.96zm1.68-2.604h2.82V20.36H44.26l-.048 2.412c-.008.632-.076 1.144-.204 1.536-.128.392-.248.648-.36.768zm8.106 1.044c-.696 0-1.244-.176-1.644-.528-.4-.36-.6-.844-.6-1.452 0-.616.2-1.1.6-1.452.4-.352.94-.528 1.62-.528h2.04v-.66c0-.408-.124-.72-.372-.936-.24-.224-.584-.336-1.032-.336-.392 0-.72.084-.984.252-.264.16-.416.38-.456.66h-1.08c.072-.568.34-1.02.804-1.356.464-.336 1.044-.504 1.74-.504.76 0 1.36.196 1.8.588.44.392.66.924.66 1.596V26h-1.056v-1.26h-.18l.18-.18c0 .48-.188.86-.564 1.14-.368.28-.86.42-1.476.42zm.264-.852c.512 0 .932-.128 1.26-.384.328-.256.492-.584.492-.984v-.936h-2.016c-.36 0-.644.1-.852.3-.208.2-.312.472-.312.816 0 .368.124.66.372.876.256.208.608.312 1.056.312zm4.938 2.892V19.4h1.08v1.26h.215l-.216.252c0-.504.164-.9.492-1.188.337-.296.776-.444 1.32-.444.665 0 1.193.22 1.584.66.4.432.6 1.028.6 1.788v1.932c0 .504-.091.94-.275 1.308a1.962 1.962 0 01-.756.852c-.32.2-.704.3-1.152.3-.536 0-.972-.148-1.308-.444-.336-.296-.505-.692-.505-1.188l.216.252h-.24l.024 1.5v1.92h-1.08zm2.532-2.976c.456 0 .812-.136 1.068-.408.264-.272.395-.664.395-1.176v-1.8c0-.512-.131-.904-.395-1.176-.257-.272-.613-.408-1.069-.408-.44 0-.791.14-1.056.42-.264.28-.396.668-.396 1.164v1.8c0 .496.133.884.396 1.164.264.28.616.42 1.056.42zm4.205.816l1.692-2.544c-.504-.12-.896-.352-1.176-.696-.272-.344-.408-.772-.408-1.284 0-.648.212-1.156.636-1.524.432-.368 1.02-.552 1.764-.552h2.844V26h-1.08v-2.46h-1.452L64.954 26h-1.26zm2.508-3.42h1.764v-2.22h-1.764c-.4 0-.716.1-.948.3-.232.192-.348.464-.348.816 0 .344.116.616.348.816.232.192.548.288.948.288zm14.64 3.54c-.528 0-.992-.1-1.392-.3a2.161 2.161 0 01-.912-.864c-.216-.384-.324-.836-.324-1.356v-1.8c0-.528.108-.98.324-1.356.216-.376.52-.664.912-.864.4-.2.864-.3 1.392-.3.76 0 1.372.204 1.836.612.464.408.708.964.732 1.668h-1.08c-.024-.424-.168-.748-.432-.972-.256-.232-.608-.348-1.056-.348-.472 0-.848.136-1.128.408-.28.264-.42.644-.42 1.14V23.6c0 .496.14.88.42 1.152.28.272.656.408 1.128.408.448 0 .8-.116 1.056-.348.264-.232.408-.556.432-.972h1.08c-.024.704-.268 1.26-.732 1.668-.464.408-1.076.612-1.836.612zm4.626-.12v-6.6H86.5V23c0 .232-.008.476-.024.732-.008.256-.024.5-.048.732a7.615 7.615 0 01-.06.576l2.664-5.64h1.38V26H89.38v-3.6c0-.232.004-.476.012-.732.016-.256.036-.5.06-.732l.06-.588L86.848 26h-1.38zm9.617.12c-.528 0-.992-.1-1.392-.3a2.161 2.161 0 01-.912-.864c-.216-.384-.324-.836-.324-1.356v-1.8c0-.528.108-.98.324-1.356.216-.376.52-.664.912-.864.4-.2.864-.3 1.392-.3.76 0 1.372.204 1.836.612.464.408.708.964.732 1.668h-1.08c-.024-.424-.168-.748-.432-.972-.256-.232-.608-.348-1.056-.348-.472 0-.848.136-1.128.408-.28.264-.42.644-.42 1.14V23.6c0 .496.14.88.42 1.152.28.272.656.408 1.128.408.448 0 .8-.116 1.056-.348.264-.232.408-.556.432-.972h1.08c-.024.704-.268 1.26-.732 1.668-.464.408-1.076.612-1.836.612zm6.558-.12v-5.652h-2.4V19.4h5.88v.948h-2.4V26h-1.08zm7.662.12c-.52 0-.976-.104-1.368-.312a2.258 2.258 0 01-.9-.876c-.208-.384-.312-.828-.312-1.332v-1.8c0-.512.104-.956.312-1.332.216-.376.516-.668.9-.876.392-.208.848-.312 1.368-.312.52 0 .972.104 1.356.312.392.208.692.5.9.876.216.376.324.82.324 1.332v1.164h-4.104v.636c0 .52.132.92.396 1.2.264.272.64.408 1.128.408.416 0 .752-.072 1.008-.216a.953.953 0 00.468-.672h1.08c-.072.552-.344.992-.816 1.32-.464.32-1.044.48-1.74.48zm1.524-3.876V21.8c0-.52-.132-.92-.396-1.2-.256-.28-.632-.42-1.128-.42-.488 0-.864.14-1.128.42-.264.28-.396.68-.396 1.2v.348h3.132l-.084.096zm2.91 3.756v-6.6h1.464l.864 2.532c.088.256.168.512.24.768.072.248.124.44.156.576.032-.136.08-.328.144-.576.072-.256.148-.516.228-.78l.816-2.52h1.464V26h-1.044v-1.02c0-.36.004-.752.012-1.176l.024-1.284.048-1.224c.016-.392.028-.736.036-1.032l-1.176 3.756h-1.14l-1.188-3.732c.016.36.028.808.036 1.344.016.536.028 1.096.036 1.68.016.584.024 1.14.024 1.668V26h-1.044zm7.338 0v-6.6h1.08v2.748h2.784V19.4h1.08V26h-1.08v-2.868h-2.784V26h-1.08zm9.593.096c-.528 0-.984-.1-1.368-.3a2.178 2.178 0 01-.9-.864c-.208-.384-.312-.836-.312-1.356v-1.752c0-.528.104-.98.312-1.356.216-.376.516-.664.9-.864.384-.2.84-.3 1.368-.3.528 0 .984.1 1.368.3.384.2.68.488.888.864.216.376.324.824.324 1.344v1.764c0 .52-.108.972-.324 1.356a2.103 2.103 0 01-.888.864c-.384.2-.84.3-1.368.3zm0-.96c.472 0 .84-.132 1.104-.396.264-.264.396-.652.396-1.164v-1.752c0-.512-.132-.9-.396-1.164-.264-.264-.632-.396-1.104-.396-.464 0-.832.132-1.104.396-.264.264-.396.652-.396 1.164v1.752c0 .512.132.9.396 1.164.272.264.64.396 1.104.396zm4.434.864v-6.6h1.464l.864 2.532c.088.256.168.512.24.768.072.248.124.44.156.576.032-.136.08-.328.144-.576.072-.256.148-.516.228-.78l.816-2.52h1.464V26h-1.044v-1.02c0-.36.004-.752.012-1.176l.024-1.284.048-1.224c.016-.392.028-.736.036-1.032l-1.176 3.756h-1.14l-1.188-3.732c.016.36.028.808.036 1.344.016.536.028 1.096.036 1.68.016.584.024 1.14.024 1.668V26h-1.044zm8.346 2.16l.972-2.568-2.448-6.192h1.2l1.536 4.08c.056.136.108.3.156.492l.12.468.12-.468c.048-.192.096-.356.144-.492l1.44-4.08h1.164l-3.252 8.76h-1.152zM156.685 26v-6.6h4.944V26h-1.08v-5.616h-2.784V26h-1.08zm9.594.096c-.528 0-.984-.1-1.368-.3a2.178 2.178 0 01-.9-.864c-.208-.384-.312-.836-.312-1.356v-1.752c0-.528.104-.98.312-1.356.216-.376.516-.664.9-.864.384-.2.84-.3 1.368-.3.528 0 .984.1 1.368.3.384.2.68.488.888.864.216.376.324.824.324 1.344v1.764c0 .52-.108.972-.324 1.356a2.103 2.103 0 01-.888.864c-.384.2-.84.3-1.368.3zm0-.96c.472 0 .84-.132 1.104-.396.264-.264.396-.652.396-1.164v-1.752c0-.512-.132-.9-.396-1.164-.264-.264-.632-.396-1.104-.396-.464 0-.832.132-1.104.396-.264.264-.396.652-.396 1.164v1.752c0 .512.132.9.396 1.164.272.264.64.396 1.104.396zm3.882 2.544v-2.604h.54c.136-.136.276-.404.42-.804.152-.4.232-.908.24-1.524l.072-3.348h4.308v5.676h.84v2.604h-.96V26h-4.5v1.68h-.96zm1.68-2.604h2.82V20.36h-2.208l-.048 2.412c-.008.632-.076 1.144-.204 1.536-.128.392-.248.648-.36.768zm5.682.924l2.34-3.396-2.196-3.204h1.272l1.308 2.04c.056.088.108.184.156.288.056.104.1.188.132.252.024-.064.06-.148.108-.252.056-.104.112-.2.168-.288l1.32-2.04h1.26l-2.196 3.216L183.523 26h-1.272l-1.416-2.16a3.356 3.356 0 01-.168-.3 2.599 2.599 0 00-.132-.288c-.032.072-.08.168-.144.288a2.125 2.125 0 01-.18.3L178.783 26h-1.26zm10.122.096c-.528 0-.984-.1-1.368-.3a2.178 2.178 0 01-.9-.864c-.208-.384-.312-.836-.312-1.356v-1.752c0-.528.104-.98.312-1.356.216-.376.516-.664.9-.864.384-.2.84-.3 1.368-.3.528 0 .984.1 1.368.3.384.2.68.488.888.864.216.376.324.824.324 1.344v1.764c0 .52-.108.972-.324 1.356a2.103 2.103 0 01-.888.864c-.384.2-.84.3-1.368.3zm0-.96c.472 0 .84-.132 1.104-.396.264-.264.396-.652.396-1.164v-1.752c0-.512-.132-.9-.396-1.164-.264-.264-.632-.396-1.104-.396-.464 0-.832.132-1.104.396-.264.264-.396.652-.396 1.164v1.752c0 .512.132.9.396 1.164.272.264.64.396 1.104.396zm3.881 2.544v-2.604h.54c.136-.136.276-.404.42-.804.152-.4.232-.908.24-1.524l.072-3.348h4.308v5.676h.84v2.604h-.96V26h-4.5v1.68h-.96zm1.68-2.604h2.82V20.36h-2.208l-.048 2.412c-.008.632-.076 1.144-.204 1.536-.128.392-.248.648-.36.768zm7.218 3.084l.972-2.568-2.448-6.192h1.2l1.536 4.08c.056.136.108.3.156.492l.12.468.12-.468c.048-.192.096-.356.144-.492l1.44-4.08h1.164l-3.252 8.76h-1.152zM213.66 26v-6.6h1.032V23c0 .232-.008.476-.024.732-.008.256-.024.5-.048.732a7.615 7.615 0 01-.06.576l2.664-5.64h1.38V26h-1.032v-3.6c0-.232.004-.476.012-.732.016-.256.036-.5.06-.732l.06-.588L215.04 26h-1.38zm14.243 0v-6.6h2.856c.688 0 1.22.156 1.596.468.376.304.564.732.564 1.284 0 .456-.156.824-.468 1.104-.312.272-.724.408-1.236.408v-.096c.56 0 1.008.14 1.344.42.344.28.516.656.516 1.128 0 .592-.2 1.056-.6 1.392-.4.328-.96.492-1.68.492h-2.892zm1.056-.948h1.836c.384 0 .68-.084.888-.252.216-.168.324-.404.324-.708 0-.312-.108-.552-.324-.72-.208-.168-.504-.252-.888-.252h-1.836v1.932zm0-2.868h1.8c.336 0 .6-.08.792-.24.2-.16.3-.384.3-.672 0-.288-.096-.512-.288-.672-.192-.168-.46-.252-.804-.252h-1.8v1.836zM235.025 26v-6.6h1.08v2.748h2.784V19.4h1.08V26h-1.08v-2.868h-2.784V26h-1.08zm9.594.12c-.52 0-.976-.104-1.368-.312a2.258 2.258 0 01-.9-.876c-.208-.384-.312-.828-.312-1.332v-1.8c0-.512.104-.956.312-1.332.216-.376.516-.668.9-.876.392-.208.848-.312 1.368-.312.52 0 .972.104 1.356.312.392.208.692.5.9.876.216.376.324.82.324 1.332v1.164h-4.104v.636c0 .52.132.92.396 1.2.264.272.64.408 1.128.408.416 0 .752-.072 1.008-.216a.953.953 0 00.468-.672h1.08c-.072.552-.344.992-.816 1.32-.464.32-1.044.48-1.74.48zm1.524-3.876V21.8c0-.52-.132-.92-.396-1.2-.256-.28-.632-.42-1.128-.42-.488 0-.864.14-1.128.42-.264.28-.396.68-.396 1.2v.348h3.132l-.084.096zm2.358 5.436v-2.604h.54c.136-.136.276-.404.42-.804.152-.4.232-.908.24-1.524l.072-3.348h4.308v5.676h.84v2.604h-.96V26h-4.5v1.68h-.96zm1.68-2.604h2.82V20.36h-2.208l-.048 2.412c-.008.632-.076 1.144-.204 1.536-.128.392-.248.648-.36.768zm6.185 3.084V19.4h1.08v1.26h.216l-.216.252c0-.504.164-.9.492-1.188.336-.296.776-.444 1.32-.444.664 0 1.192.22 1.584.66.4.432.6 1.028.6 1.788v1.932c0 .504-.092.94-.276 1.308a1.962 1.962 0 01-.756.852c-.32.2-.704.3-1.152.3-.536 0-.972-.148-1.308-.444-.336-.296-.504-.692-.504-1.188l.216.252h-.24l.024 1.5v1.92h-1.08zm2.532-2.976c.456 0 .812-.136 1.068-.408.264-.272.396-.664.396-1.176v-1.8c0-.512-.132-.904-.396-1.176-.256-.272-.612-.408-1.068-.408-.44 0-.792.14-1.056.42-.264.28-.396.668-.396 1.164v1.8c0 .496.132.884.396 1.164.264.28.616.42 1.056.42zm7.086.936c-.52 0-.976-.104-1.368-.312a2.258 2.258 0 01-.9-.876c-.208-.384-.312-.828-.312-1.332v-1.8c0-.512.104-.956.312-1.332.216-.376.516-.668.9-.876.392-.208.848-.312 1.368-.312.52 0 .972.104 1.356.312.392.208.692.5.9.876.216.376.324.82.324 1.332v1.164h-4.104v.636c0 .52.132.92.396 1.2.264.272.64.408 1.128.408.416 0 .752-.072 1.008-.216a.953.953 0 00.468-.672h1.08c-.072.552-.344.992-.816 1.32-.464.32-1.044.48-1.74.48zm1.524-3.876V21.8c0-.52-.132-.92-.396-1.2-.256-.28-.632-.42-1.128-.42-.488 0-.864.14-1.128.42-.264.28-.396.68-.396 1.2v.348h3.132l-.084.096zM270.634 26v-6.6h1.08v2.748h2.784V19.4h1.08V26h-1.08v-2.868h-2.784V26h-1.08zm7.122 0v-6.6h1.032V23c0 .232-.008.476-.024.732-.008.256-.024.5-.048.732a7.615 7.615 0 01-.06.576l2.664-5.64h1.38V26h-1.032v-3.6c0-.232.004-.476.012-.732.016-.256.036-.5.06-.732l.06-.588L279.136 26h-1.38zm10.626.12c-.552 0-.996-.188-1.332-.564-.336-.376-.504-.868-.504-1.476v-.996h-1.056V26h-.996v-6.6h.996v2.82h1.056v-.9c0-.616.164-1.108.492-1.476.336-.376.784-.564 1.344-.564.592 0 1.068.188 1.428.564.36.368.54.86.54 1.476v2.76c0 .608-.18 1.1-.54 1.476-.36.376-.836.564-1.428.564zm0-.84c.304 0 .54-.104.708-.312.176-.216.264-.512.264-.888v-2.76c0-.376-.088-.668-.264-.876-.168-.216-.404-.324-.708-.324-.296 0-.528.108-.696.324-.168.208-.252.5-.252.876v2.76c0 .376.084.672.252.888.168.208.4.312.696.312zM9.624 52.12c-.528 0-.992-.1-1.392-.3a2.161 2.161 0 01-.912-.864c-.216-.384-.324-.836-.324-1.356v-1.8c0-.528.108-.98.324-1.356.216-.376.52-.664.912-.864.4-.2.864-.3 1.392-.3.76 0 1.372.204 1.836.612.464.408.708.964.732 1.668h-1.08c-.024-.424-.168-.748-.432-.972-.256-.232-.608-.348-1.056-.348-.472 0-.848.136-1.128.408-.28.264-.42.644-.42 1.14V49.6c0 .496.14.88.42 1.152.28.272.656.408 1.128.408.448 0 .8-.116 1.056-.348.264-.232.408-.556.432-.972h1.08c-.024.704-.268 1.26-.732 1.668-.464.408-1.076.612-1.836.612zm7.098-.024c-.528 0-.984-.1-1.368-.3a2.178 2.178 0 01-.9-.864c-.208-.384-.312-.836-.312-1.356v-1.752c0-.528.104-.98.312-1.356.216-.376.516-.664.9-.864.384-.2.84-.3 1.368-.3.528 0 .984.1 1.368.3.384.2.68.488.888.864.216.376.324.824.324 1.344v1.764c0 .52-.108.972-.324 1.356a2.103 2.103 0 01-.888.864c-.384.2-.84.3-1.368.3zm0-.96c.472 0 .84-.132 1.104-.396.264-.264.396-.652.396-1.164v-1.752c0-.512-.132-.9-.396-1.164-.264-.264-.632-.396-1.104-.396-.464 0-.832.132-1.104.396-.264.264-.396.652-.396 1.164v1.752c0 .512.132.9.396 1.164.272.264.64.396 1.104.396zm4.65.864v-6.6h2.856c.688 0 1.22.156 1.596.468.376.304.564.732.564 1.284 0 .456-.156.824-.468 1.104-.312.272-.724.408-1.236.408v-.096c.56 0 1.008.14 1.344.42.344.28.516.656.516 1.128 0 .592-.2 1.056-.6 1.392-.4.328-.96.492-1.68.492h-2.892zm1.056-.948h1.836c.384 0 .68-.084.888-.252.216-.168.324-.404.324-.708 0-.312-.108-.552-.324-.72-.208-.168-.504-.252-.888-.252h-1.836v1.932zm0-2.868h1.8c.336 0 .6-.08.792-.24.2-.16.3-.384.3-.672 0-.288-.096-.512-.288-.672-.192-.168-.46-.252-.804-.252h-1.8v1.836zm6.041 5.976V45.4h1.08v1.26h.216l-.216.252c0-.504.164-.9.492-1.188.336-.296.776-.444 1.32-.444.664 0 1.192.22 1.584.66.4.432.6 1.028.6 1.788v1.932c0 .504-.092.94-.276 1.308a1.962 1.962 0 01-.756.852c-.32.2-.704.3-1.152.3-.536 0-.972-.148-1.308-.444-.336-.296-.504-.692-.504-1.188l.216.252h-.24l.024 1.5v1.92h-1.08zm2.532-2.976c.456 0 .812-.136 1.068-.408.264-.272.396-.664.396-1.176v-1.8c0-.512-.132-.904-.396-1.176-.256-.272-.612-.408-1.068-.408-.44 0-.792.14-1.056.42-.264.28-.396.668-.396 1.164v1.8c0 .496.132.884.396 1.164.264.28.616.42 1.056.42zm7.086.936c-.52 0-.976-.104-1.368-.312a2.258 2.258 0 01-.9-.876c-.208-.384-.312-.828-.312-1.332v-1.8c0-.512.104-.956.312-1.332.216-.376.516-.668.9-.876.392-.208.848-.312 1.368-.312.52 0 .972.104 1.356.312.392.208.692.5.9.876.216.376.324.82.324 1.332v1.164h-4.104v.636c0 .52.132.92.396 1.2.264.272.64.408 1.128.408.416 0 .752-.072 1.008-.216a.953.953 0 00.468-.672h1.08c-.072.552-.344.992-.816 1.32-.464.32-1.044.48-1.74.48zm1.524-3.876V47.8c0-.52-.132-.92-.396-1.2-.256-.28-.632-.42-1.128-.42-.488 0-.864.14-1.128.42-.264.28-.396.68-.396 1.2v.348h3.132l-.084.096zM42.521 52v-6.6h1.464l.864 2.532c.088.256.168.512.24.768.072.248.124.44.156.576.032-.136.08-.328.144-.576.072-.256.148-.516.228-.78l.816-2.52h1.464V52h-1.044v-1.02c0-.36.004-.752.012-1.176l.024-1.284.048-1.224c.016-.392.028-.736.036-1.032l-1.176 3.756h-1.14l-1.188-3.732c.016.36.028.808.036 1.344.016.536.028 1.096.036 1.68.016.584.024 1.14.024 1.668V52H42.52zm9.81.12c-.52 0-.976-.104-1.368-.312a2.258 2.258 0 01-.9-.876c-.208-.384-.312-.828-.312-1.332v-1.8c0-.512.104-.956.312-1.332.216-.376.516-.668.9-.876.392-.208.848-.312 1.368-.312.52 0 .972.104 1.356.312.392.208.692.5.9.876.216.376.324.82.324 1.332v1.164h-4.104v.636c0 .52.132.92.396 1.2.264.272.64.408 1.128.408.416 0 .752-.072 1.008-.216a.953.953 0 00.468-.672h1.08c-.072.552-.344.992-.816 1.32-.464.32-1.044.48-1.74.48zm1.524-3.876V47.8c0-.52-.132-.92-.396-1.2-.256-.28-.632-.42-1.128-.42-.488 0-.864.14-1.128.42-.264.28-.396.68-.396 1.2v.348h3.132l-.084.096zM56.98 52v-6.6h1.08v2.748h2.783V45.4h1.08V52h-1.08v-2.868H58.06V52h-1.08zm7.121 0v-6.6h1.08v2.748h2.784V45.4h1.08V52h-1.08v-2.868h-2.784V52h-1.08zm6.774 0v-6.6h1.008v2.424h.54c.712 0 1.272.188 1.68.564.416.368.624.876.624 1.524s-.208 1.16-.624 1.536c-.408.368-.968.552-1.68.552h-1.548zm1.008-.864h.54c.424 0 .752-.108.984-.324.24-.216.36-.516.36-.9s-.12-.684-.36-.9c-.232-.216-.56-.324-.984-.324h-.54v2.448zm3.624.864v-6.6h1.008V52h-1.008zm2.31 0l2.34-3.396-2.196-3.204h1.272l1.308 2.04c.056.088.108.184.156.288.056.104.1.188.132.252.024-.064.06-.148.108-.252.056-.104.112-.2.168-.288l1.32-2.04h1.26l-2.196 3.216L83.818 52h-1.272l-1.416-2.16a3.356 3.356 0 01-.168-.3 2.599 2.599 0 00-.132-.288c-.032.072-.08.168-.144.288a2.125 2.125 0 01-.18.3L79.078 52h-1.26zm14.747 2.16V45.4h1.08v1.26h.216l-.216.252c0-.504.164-.9.492-1.188.336-.296.776-.444 1.32-.444.664 0 1.192.22 1.584.66.4.432.6 1.028.6 1.788v1.932c0 .504-.092.94-.276 1.308a1.962 1.962 0 01-.756.852c-.32.2-.704.3-1.152.3-.536 0-.972-.148-1.308-.444-.336-.296-.504-.692-.504-1.188l.216.252h-.24l.024 1.5v1.92h-1.08zm2.532-2.976c.456 0 .812-.136 1.068-.408.264-.272.396-.664.396-1.176v-1.8c0-.512-.132-.904-.396-1.176-.256-.272-.612-.408-1.068-.408-.44 0-.792.14-1.056.42-.264.28-.396.668-.396 1.164v1.8c0 .496.132.884.396 1.164.264.28.616.42 1.056.42zm7.086.936c-.52 0-.976-.104-1.368-.312a2.256 2.256 0 01-.9-.876c-.208-.384-.312-.828-.312-1.332v-1.8c0-.512.104-.956.312-1.332.216-.376.516-.668.9-.876.392-.208.848-.312 1.368-.312.52 0 .972.104 1.356.312.392.208.692.5.9.876.216.376.324.82.324 1.332v1.164h-4.104v.636c0 .52.132.92.396 1.2.264.272.64.408 1.128.408.416 0 .752-.072 1.008-.216a.953.953 0 00.468-.672h1.08c-.072.552-.344.992-.816 1.32-.464.32-1.044.48-1.74.48zm1.524-3.876V47.8c0-.52-.132-.92-.396-1.2-.256-.28-.632-.42-1.128-.42-.488 0-.864.14-1.128.42-.264.28-.396.68-.396 1.2v.348h3.132l-.084.096zm2.79 3.756l-.024-6.6h1.008v5.784h1.404V45.4h.864v5.784h1.392V45.4h.996V52h-5.64zm9.93.12c-.52 0-.976-.104-1.368-.312a2.258 2.258 0 01-.9-.876c-.208-.384-.312-.828-.312-1.332v-1.8c0-.512.104-.956.312-1.332.216-.376.516-.668.9-.876.392-.208.848-.312 1.368-.312.52 0 .972.104 1.356.312.392.208.692.5.9.876.216.376.324.82.324 1.332v1.164h-4.104v.636c0 .52.132.92.396 1.2.264.272.64.408 1.128.408.416 0 .752-.072 1.008-.216a.953.953 0 00.468-.672h1.08c-.072.552-.344.992-.816 1.32-.464.32-1.044.48-1.74.48zm1.524-3.876V47.8c0-.52-.132-.92-.396-1.2-.256-.28-.632-.42-1.128-.42-.488 0-.864.14-1.128.42-.264.28-.396.68-.396 1.2v.348h3.132l-.084.096zM121.077 52v-6.6h1.08v2.748h2.784V45.4h1.08V52h-1.08v-2.868h-2.784V52h-1.08zm7.121 0v-6.6h1.032V49c0 .232-.008.476-.024.732-.008.256-.024.5-.048.732a7.615 7.615 0 01-.06.576l2.664-5.64h1.38V52h-1.032v-3.6c0-.232.004-.476.012-.732.016-.256.036-.5.06-.732l.06-.588L129.578 52h-1.38zm7.122 0v-6.6h1.032V49c0 .232-.008.476-.024.732-.008.256-.024.5-.048.732a7.615 7.615 0 01-.06.576l2.664-5.64h1.38V52h-1.032v-3.6c0-.232.004-.476.012-.732.016-.256.036-.5.06-.732l.06-.588L136.7 52h-1.38zm2.52-7.68c-.576 0-1.04-.16-1.392-.48-.352-.32-.528-.74-.528-1.26h.852c0 .312.096.564.288.756.192.192.448.288.768.288.328 0 .588-.096.78-.288.2-.192.3-.444.3-.756h.852c0 .52-.176.94-.528 1.26-.352.32-.816.48-1.392.48zm5.454 9.6l.96-3.732h1.56l-1.56 3.732h-.96zm15.911-1.8c-.576 0-1.072-.096-1.488-.288a2.179 2.179 0 01-.948-.828c-.224-.36-.34-.788-.348-1.284h1.08c0 .44.148.788.444 1.044.304.256.724.384 1.26.384.504 0 .896-.124 1.176-.372.288-.248.432-.592.432-1.032 0-.352-.096-.66-.288-.924-.184-.264-.452-.448-.804-.552l-1.188-.372c-.6-.184-1.064-.492-1.392-.924-.32-.432-.48-.94-.48-1.524 0-.472.104-.88.312-1.224a2.17 2.17 0 01.9-.816c.384-.2.836-.3 1.356-.3.768 0 1.384.216 1.848.648.464.424.7.992.708 1.704h-1.08c0-.432-.132-.768-.396-1.008-.256-.248-.62-.372-1.092-.372-.464 0-.828.112-1.092.336-.256.224-.384.536-.384.936 0 .36.096.672.288.936.192.264.468.452.828.564l1.2.384c.584.184 1.036.496 1.356.936.32.44.48.956.48 1.548 0 .48-.112.9-.336 1.26-.224.36-.54.64-.948.84-.4.2-.868.3-1.404.3zm7.074-.024c-.528 0-.984-.1-1.368-.3a2.178 2.178 0 01-.9-.864c-.208-.384-.312-.836-.312-1.356v-1.752c0-.528.104-.98.312-1.356.216-.376.516-.664.9-.864.384-.2.84-.3 1.368-.3.528 0 .984.1 1.368.3.384.2.68.488.888.864.216.376.324.824.324 1.344v1.764c0 .52-.108.972-.324 1.356a2.103 2.103 0 01-.888.864c-.384.2-.84.3-1.368.3zm0-.96c.472 0 .84-.132 1.104-.396.264-.264.396-.652.396-1.164v-1.752c0-.512-.132-.9-.396-1.164-.264-.264-.632-.396-1.104-.396-.464 0-.832.132-1.104.396-.264.264-.396.652-.396 1.164v1.752c0 .512.132.9.396 1.164.272.264.64.396 1.104.396zm7.11.984c-.76 0-1.368-.224-1.824-.672-.456-.456-.684-1.072-.684-1.848v-4.2h1.08v4.2c0 .496.128.884.384 1.164.256.272.604.408 1.044.408.448 0 .8-.136 1.056-.408.264-.28.396-.668.396-1.164v-4.2h1.08v4.2c0 .776-.232 1.392-.696 1.848-.464.448-1.076.672-1.836.672zm4.638-.12v-6.6h1.08v1.26h.228l-.228.252c0-.52.156-.92.468-1.2.312-.288.744-.432 1.296-.432.664 0 1.192.204 1.584.612.392.408.588.964.588 1.668V52h-1.08v-4.32c0-.472-.128-.832-.384-1.08-.248-.256-.588-.384-1.02-.384-.448 0-.804.136-1.068.408-.256.272-.384.664-.384 1.176V52h-1.08zm9.234.12c-.656 0-1.188-.22-1.596-.66-.4-.44-.6-1.036-.6-1.788V47.74c0-.76.2-1.36.6-1.8.4-.44.932-.66 1.596-.66.544 0 .98.148 1.308.444.328.296.492.692.492 1.188l-.216-.252h.24l-.024-1.5v-1.92h1.08V52h-1.08v-1.26h-.216l.216-.252c0 .504-.164.904-.492 1.2-.328.288-.764.432-1.308.432zm.36-.936c.448 0 .8-.14 1.056-.42.256-.28.384-.668.384-1.164v-1.8c0-.496-.128-.884-.384-1.164-.256-.28-.608-.42-1.056-.42-.456 0-.816.136-1.08.408-.264.272-.396.664-.396 1.176v1.8c0 .512.132.904.396 1.176.264.272.624.408 1.08.408zm11.783.816v-8.76h1.08v3.744h2.808V43.24h1.08V52h-1.08v-4.032h-2.808V52h-1.08zm9.606.12c-.52 0-.976-.104-1.368-.312a2.258 2.258 0 01-.9-.876c-.208-.384-.312-.828-.312-1.332v-1.8c0-.512.104-.956.312-1.332.216-.376.516-.668.9-.876.392-.208.848-.312 1.368-.312.52 0 .972.104 1.356.312.392.208.692.5.9.876.216.376.324.82.324 1.332v1.164h-4.104v.636c0 .52.132.92.396 1.2.264.272.64.408 1.128.408.416 0 .752-.072 1.008-.216a.953.953 0 00.468-.672h1.08c-.072.552-.344.992-.816 1.32-.464.32-1.044.48-1.74.48zm1.524-3.876V47.8c0-.52-.132-.92-.396-1.2-.256-.28-.632-.42-1.128-.42-.488 0-.864.14-1.128.42-.264.28-.396.68-.396 1.2v.348h3.132l-.084.096zm5.022 3.876c-.696 0-1.244-.176-1.644-.528-.4-.36-.6-.844-.6-1.452 0-.616.2-1.1.6-1.452.4-.352.94-.528 1.62-.528h2.04v-.66c0-.408-.124-.72-.372-.936-.24-.224-.584-.336-1.032-.336-.392 0-.72.084-.984.252-.264.16-.416.38-.456.66h-1.08c.072-.568.34-1.02.804-1.356.464-.336 1.044-.504 1.74-.504.76 0 1.36.196 1.8.588.44.392.66.924.66 1.596V52h-1.056v-1.26h-.18l.18-.18c0 .48-.188.86-.564 1.14-.368.28-.86.42-1.476.42zm.264-.852c.512 0 .932-.128 1.26-.384.328-.256.492-.584.492-.984v-.936h-2.016c-.36 0-.644.1-.852.3-.208.2-.312.472-.312.816 0 .368.124.66.372.876.256.208.608.312 1.056.312zm8.333.732a2.13 2.13 0 01-1.008-.228 1.639 1.639 0 01-.672-.648 1.95 1.95 0 01-.24-.984v-5.916h-2.22v-.984h3.3v6.9c0 .272.076.488.228.648.152.152.356.228.612.228h2.1V52h-2.1zm3.642 0v-.984h2.34v-4.632h-2.04V45.4h3.12v5.616h2.22V52h-5.64zm2.76-7.788c-.264 0-.472-.068-.624-.204a.704.704 0 01-.228-.552c0-.24.076-.428.228-.564.152-.144.36-.216.624-.216s.472.072.624.216c.152.136.228.324.228.564a.704.704 0 01-.228.552c-.152.136-.36.204-.624.204zM235.001 52v-6.6h1.08v1.26h.228l-.228.252c0-.52.156-.92.468-1.2.312-.288.744-.432 1.296-.432.664 0 1.192.204 1.584.612.392.408.588.964.588 1.668V52h-1.08v-4.32c0-.472-.128-.832-.384-1.08-.248-.256-.588-.384-1.02-.384-.448 0-.804.136-1.068.408-.256.272-.384.664-.384 1.176V52h-1.08zm7.95 2.16v-.984h2.1c.336 0 .58-.076.732-.228.16-.152.24-.388.24-.708v-.84l.024-1.2h-.216l.204-.18c0 .48-.16.86-.48 1.14-.32.28-.748.42-1.284.42-.68 0-1.216-.22-1.608-.66-.392-.448-.588-1.048-.588-1.8v-1.392c0-.752.196-1.348.588-1.788.392-.44.928-.66 1.608-.66.536 0 .964.14 1.284.42.32.28.48.66.48 1.14l-.204-.18h.204V45.4h1.068v6.84c0 .592-.184 1.06-.552 1.404-.36.344-.864.516-1.512.516h-2.088zm1.644-3.516c.448 0 .8-.14 1.056-.42.256-.28.384-.668.384-1.164V47.8c0-.496-.128-.884-.384-1.164-.256-.28-.608-.42-1.056-.42-.456 0-.812.136-1.068.408-.248.272-.372.664-.372 1.176v1.26c0 .512.124.904.372 1.176.256.272.612.408 1.068.408zm14.315 1.476c-.528 0-.988-.1-1.38-.3a2.178 2.178 0 01-.9-.864c-.208-.384-.312-.836-.312-1.356v-3.96c0-.528.104-.98.312-1.356.216-.376.516-.664.9-.864.392-.2.852-.3 1.38-.3.528 0 .984.104 1.368.312.384.2.68.488.888.864.208.376.312.824.312 1.344h-1.08c0-.496-.132-.876-.396-1.14-.256-.272-.62-.408-1.092-.408-.472 0-.844.132-1.116.396-.264.264-.396.644-.396 1.14V49.6c0 .496.132.88.396 1.152.272.264.644.396 1.116.396.472 0 .836-.132 1.092-.396.264-.272.396-.656.396-1.152h1.08c0 .512-.104.96-.312 1.344a2.178 2.178 0 01-.888.876c-.384.2-.84.3-1.368.3zm7.074 0c-.52 0-.976-.104-1.368-.312a2.258 2.258 0 01-.9-.876c-.208-.384-.312-.828-.312-1.332v-1.8c0-.512.104-.956.312-1.332.216-.376.516-.668.9-.876.392-.208.848-.312 1.368-.312.52 0 .972.104 1.356.312.392.208.692.5.9.876.216.376.324.82.324 1.332v1.164h-4.104v.636c0 .52.132.92.396 1.2.264.272.64.408 1.128.408.416 0 .752-.072 1.008-.216a.953.953 0 00.468-.672h1.08c-.072.552-.344.992-.816 1.32-.464.32-1.044.48-1.74.48zm1.524-3.876V47.8c0-.52-.132-.92-.396-1.2-.256-.28-.632-.42-1.128-.42-.488 0-.864.14-1.128.42-.264.28-.396.68-.396 1.2v.348h3.132l-.084.096zM270.61 52v-6.6h1.08v1.26h.228l-.228.252c0-.52.156-.92.468-1.2.312-.288.744-.432 1.296-.432.664 0 1.192.204 1.584.612.392.408.588.964.588 1.668V52h-1.08v-4.32c0-.472-.128-.832-.384-1.08-.248-.256-.588-.384-1.02-.384-.448 0-.804.136-1.068.408-.256.272-.384.664-.384 1.176V52h-1.08zm10.338 0c-.568 0-1.012-.152-1.332-.456-.312-.304-.468-.732-.468-1.284v-3.876h-1.86V45.4h1.86v-1.86h1.08v1.86h2.64v.984h-2.64v3.876c0 .504.24.756.72.756h1.8V52h-1.8zm6.402.12c-.52 0-.976-.104-1.368-.312a2.258 2.258 0 01-.9-.876c-.208-.384-.312-.828-.312-1.332v-1.8c0-.512.104-.956.312-1.332.216-.376.516-.668.9-.876.392-.208.848-.312 1.368-.312.52 0 .972.104 1.356.312.392.208.692.5.9.876.216.376.324.82.324 1.332v1.164h-4.104v.636c0 .52.132.92.396 1.2.264.272.64.408 1.128.408.416 0 .752-.072 1.008-.216a.953.953 0 00.468-.672h1.08c-.072.552-.344.992-.816 1.32-.464.32-1.044.48-1.74.48zm1.524-3.876V47.8c0-.52-.132-.92-.396-1.2-.256-.28-.632-.42-1.128-.42-.488 0-.864.14-1.128.42-.264.28-.396.68-.396 1.2v.348h3.132l-.084.096zM292.203 52v-6.6h1.056v1.26h.252l-.348.78c0-.712.152-1.248.456-1.608.312-.368.772-.552 1.38-.552.696 0 1.248.22 1.656.66.416.432.624 1.02.624 1.764v.396h-1.08v-.3c0-.52-.128-.916-.384-1.188-.248-.28-.604-.42-1.068-.42-.456 0-.816.14-1.08.42-.256.28-.384.676-.384 1.188V52h-1.08zm13.272 1.68v-2.604h.54c.136-.136.276-.404.42-.804.152-.4.232-.908.24-1.524l.072-3.348h4.308v5.676h.84v2.604h-.96V52h-4.5v1.68h-.96zm1.68-2.604h2.82V46.36h-2.208l-.048 2.412c-.008.632-.076 1.144-.204 1.536-.128.392-.248.648-.36.768zm8.682 1.02c-.528 0-.984-.1-1.368-.3a2.178 2.178 0 01-.9-.864c-.208-.384-.312-.836-.312-1.356v-1.752c0-.528.104-.98.312-1.356.216-.376.516-.664.9-.864.384-.2.84-.3 1.368-.3.528 0 .984.1 1.368.3.384.2.68.488.888.864.216.376.324.824.324 1.344v1.764c0 .52-.108.972-.324 1.356a2.103 2.103 0 01-.888.864c-.384.2-.84.3-1.368.3zm0-.96c.472 0 .84-.132 1.104-.396.264-.264.396-.652.396-1.164v-1.752c0-.512-.132-.9-.396-1.164-.264-.264-.632-.396-1.104-.396-.464 0-.832.132-1.104.396-.264.264-.396.652-.396 1.164v1.752c0 .512.132.9.396 1.164.272.264.64.396 1.104.396zm7.145.984c-.528 0-.992-.1-1.392-.3a2.161 2.161 0 01-.912-.864c-.216-.384-.324-.836-.324-1.356v-1.8c0-.528.108-.98.324-1.356.216-.376.52-.664.912-.864.4-.2.864-.3 1.392-.3.76 0 1.372.204 1.836.612.464.408.708.964.732 1.668h-1.08c-.024-.424-.168-.748-.432-.972-.256-.232-.608-.348-1.056-.348-.472 0-.848.136-1.128.408-.28.264-.42.644-.42 1.14V49.6c0 .496.14.88.42 1.152.28.272.656.408 1.128.408.448 0 .8-.116 1.056-.348.264-.232.408-.556.432-.972h1.08c-.024.704-.268 1.26-.732 1.668-.464.408-1.076.612-1.836.612zm6.558-.12v-5.652h-2.4V45.4h5.88v.948h-2.4V52h-1.08zm5.19 0v-6.6h1.032V49c0 .232-.008.476-.024.732-.008.256-.024.5-.048.732a7.615 7.615 0 01-.06.576l2.664-5.64h1.38V52h-1.032v-3.6c0-.232.004-.476.012-.732.016-.256.036-.5.06-.732l.06-.588L336.11 52h-1.38zm7.554 0v-6.6h4.74v.984h-3.66V52h-1.08zM7.128 78v-6.6h2.856c.688 0 1.22.156 1.596.468.376.304.564.732.564 1.284 0 .456-.156.824-.468 1.104-.312.272-.724.408-1.236.408v-.096c.56 0 1.008.14 1.344.42.344.28.516.656.516 1.128 0 .592-.2 1.056-.6 1.392-.4.328-.96.492-1.68.492H7.128zm1.056-.948h1.836c.384 0 .68-.084.888-.252.216-.168.324-.404.324-.708 0-.312-.108-.552-.324-.72-.208-.168-.504-.252-.888-.252H8.184v1.932zm0-2.868h1.8c.336 0 .6-.08.792-.24.2-.16.3-.384.3-.672 0-.288-.096-.512-.288-.672-.192-.168-.46-.252-.804-.252h-1.8v1.836zM14.25 78v-6.6h4.944V78h-1.08v-5.616H15.33V78h-1.08zm9.594.12c-.52 0-.976-.104-1.368-.312a2.258 2.258 0 01-.9-.876c-.208-.384-.312-.828-.312-1.332v-1.8c0-.512.104-.956.312-1.332.216-.376.516-.668.9-.876.392-.208.848-.312 1.368-.312.52 0 .972.104 1.356.312.392.208.692.5.9.876.216.376.324.82.324 1.332v1.164H22.32v.636c0 .52.132.92.396 1.2.264.272.64.408 1.128.408.416 0 .752-.072 1.008-.216a.953.953 0 00.468-.672h1.08c-.072.552-.344.992-.816 1.32-.464.32-1.044.48-1.74.48zm1.524-3.876V73.8c0-.52-.132-.92-.396-1.2-.256-.28-.632-.42-1.128-.42-.488 0-.864.14-1.128.42-.264.28-.396.68-.396 1.2v.348h3.132l-.084.096zM32.285 78v-2.4a5.25 5.25 0 01-.588.096 8.757 8.757 0 01-.816.036c-.816.008-1.452-.188-1.908-.588-.448-.408-.672-.976-.672-1.704V71.4h1.08v2.04c0 .408.136.732.408.972.28.232.664.348 1.152.348.336 0 .62-.012.852-.036.24-.032.404-.06.492-.084V71.4h1.08V78h-1.08zm5.226.12c-.696 0-1.244-.176-1.644-.528-.4-.36-.6-.844-.6-1.452 0-.616.2-1.1.6-1.452.4-.352.94-.528 1.62-.528h2.04v-.66c0-.408-.124-.72-.372-.936-.24-.224-.584-.336-1.032-.336-.392 0-.72.084-.984.252-.264.16-.416.38-.456.66h-1.08c.072-.568.34-1.02.804-1.356.464-.336 1.044-.504 1.74-.504.76 0 1.36.196 1.8.588.44.392.66.924.66 1.596V78h-1.056v-1.26h-.18l.18-.18c0 .48-.188.86-.564 1.14-.368.28-.86.42-1.476.42zm.264-.852c.512 0 .932-.128 1.26-.384.328-.256.492-.584.492-.984v-.936h-2.016c-.36 0-.644.1-.852.3-.208.2-.312.472-.312.816 0 .368.124.66.372.876.256.208.608.312 1.056.312zM44.67 78v-5.652h-2.4V71.4h5.88v.948h-2.4V78h-1.08zm4.362.084v-1.008h.216c.368 0 .624-.144.768-.432.152-.288.232-.804.24-1.548l.072-3.696h4.476V78h-1.08v-5.616h-2.328l-.06 2.76c-.016.696-.096 1.26-.24 1.692-.136.432-.352.748-.648.948-.288.2-.668.3-1.14.3h-.276zm7.54-.084l1.692-2.544c-.504-.12-.896-.352-1.175-.696-.273-.344-.408-.772-.408-1.284 0-.648.212-1.156.636-1.524.431-.368 1.02-.552 1.764-.552h2.843V78h-1.08v-2.46h-1.452L57.832 78h-1.26zm2.508-3.42h1.764v-2.22H59.08c-.4 0-.715.1-.947.3-.233.192-.349.464-.349.816 0 .344.117.616.349.816.231.192.547.288.947.288zm8.526 3.54c-.552 0-.996-.188-1.332-.564-.336-.376-.504-.868-.504-1.476v-.996h-1.056V78h-.996v-6.6h.996v2.82h1.056v-.9c0-.616.164-1.108.492-1.476.336-.376.784-.564 1.344-.564.592 0 1.068.188 1.428.564.36.368.54.86.54 1.476v2.76c0 .608-.18 1.1-.54 1.476-.36.376-.836.564-1.428.564zm0-.84c.304 0 .54-.104.708-.312.176-.216.264-.512.264-.888v-2.76c0-.376-.088-.668-.264-.876-.168-.216-.404-.324-.708-.324-.296 0-.528.108-.696.324-.168.208-.252.5-.252.876v2.76c0 .376.084.672.252.888.168.208.4.312.696.312zm8.43 2.4V78h-5.172v-6.6h.972v5.688h1.392V71.4h.84v5.688h1.392V71.4h.972v5.688h.564v2.592h-.96zm2.31-1.68v-6.6h1.032V75c0 .232-.008.476-.024.732-.008.256-.024.5-.048.732a7.615 7.615 0 01-.06.576l2.664-5.64h1.38V78h-1.032v-3.6c0-.232.004-.476.012-.732.016-.256.036-.5.06-.732l.06-.588L79.726 78h-1.38zm6.594 0l2.34-3.396-2.196-3.204h1.272l1.308 2.04c.056.088.108.184.156.288.056.104.1.188.132.252.024-.064.06-.148.108-.252.056-.104.112-.2.168-.288l1.32-2.04h1.26l-2.196 3.216L90.94 78h-1.272l-1.416-2.16a3.356 3.356 0 01-.168-.3 2.599 2.599 0 00-.132-.288c-.032.072-.08.168-.144.288a2.125 2.125 0 01-.18.3L86.2 78h-1.26zm14.747 2.16V71.4h1.08v1.26h.216l-.216.252c0-.504.164-.9.492-1.188.336-.296.776-.444 1.32-.444.664 0 1.192.22 1.584.66.4.432.6 1.028.6 1.788v1.932c0 .504-.092.94-.276 1.308a1.962 1.962 0 01-.756.852c-.32.2-.704.3-1.152.3-.536 0-.972-.148-1.308-.444-.336-.296-.504-.692-.504-1.188l.216.252h-.24l.024 1.5v1.92h-1.08zm2.532-2.976c.456 0 .812-.136 1.068-.408.264-.272.396-.664.396-1.176v-1.8c0-.512-.132-.904-.396-1.176-.256-.272-.612-.408-1.068-.408-.44 0-.792.14-1.056.42-.264.28-.396.668-.396 1.164v1.8c0 .496.132.884.396 1.164.264.28.616.42 1.056.42zm7.086.936c-.52 0-.976-.104-1.368-.312a2.258 2.258 0 01-.9-.876c-.208-.384-.312-.828-.312-1.332v-1.8c0-.512.104-.956.312-1.332.216-.376.516-.668.9-.876.392-.208.848-.312 1.368-.312.52 0 .972.104 1.356.312.392.208.692.5.9.876.216.376.324.82.324 1.332v1.164h-4.104v.636c0 .52.132.92.396 1.2.264.272.64.408 1.128.408.416 0 .752-.072 1.008-.216a.953.953 0 00.468-.672h1.08c-.072.552-.344.992-.816 1.32-.464.32-1.044.48-1.74.48zm1.524-3.876V73.8c0-.52-.132-.92-.396-1.2-.256-.28-.632-.42-1.128-.42-.488 0-.864.14-1.128.42-.264.28-.396.68-.396 1.2v.348h3.132l-.084.096zm5.286 3.84c-.696 0-1.268-.148-1.716-.444a1.764 1.764 0 01-.792-1.2h1.14c.056.2.204.364.444.492.248.128.556.192.924.192h.564c.392 0 .696-.092.912-.276a.887.887 0 00.336-.72c0-.32-.108-.572-.324-.756-.208-.184-.516-.276-.924-.276h-1.452v-.936h1.416c.368 0 .648-.088.84-.264a.9.9 0 00.288-.696c0-.2-.044-.368-.132-.504a.763.763 0 00-.372-.312 1.551 1.551 0 00-.612-.108h-.6c-.32 0-.596.072-.828.216-.232.144-.372.32-.42.528h-1.14c.08-.496.34-.904.78-1.224.44-.32.976-.48 1.608-.48h.6c.472 0 .876.076 1.212.228.336.144.592.352.768.624.184.272.276.596.276.972 0 .392-.128.716-.384.972-.256.248-.616.388-1.08.42v.048c.568.04.98.192 1.236.456s.384.644.384 1.14c0 .584-.216 1.048-.648 1.392-.432.344-1.012.516-1.74.516h-.564zm5.97 2.076l.972-2.568-2.448-6.192h1.2l1.536 4.08c.056.136.108.3.156.492l.12.468.12-.468c.048-.192.096-.356.144-.492l1.44-4.08h1.164l-3.252 8.76h-1.152zm5.285-2.076v-1.008h.216c.368 0 .624-.144.768-.432.152-.288.232-.804.24-1.548l.072-3.696h4.476V78h-1.08v-5.616h-2.328l-.06 2.76c-.016.696-.096 1.26-.24 1.692-.136.432-.352.748-.648.948-.288.2-.668.3-1.14.3h-.276zm7.998-.084v-6.6h1.08v2.424h1.944c.744 0 1.328.188 1.752.564.432.368.648.876.648 1.524 0 .64-.216 1.148-.648 1.524-.432.376-1.016.564-1.752.564h-3.024zm1.08-.984h1.944c.416 0 .732-.092.948-.276.224-.192.336-.468.336-.828 0-.36-.112-.632-.336-.816-.216-.192-.532-.288-.948-.288h-1.944v2.208zm7.926.984v-5.652h-2.4V71.4h5.88v.948h-2.4V78h-1.08zm7.086.12c-.696 0-1.244-.176-1.644-.528-.4-.36-.6-.844-.6-1.452 0-.616.2-1.1.6-1.452.4-.352.94-.528 1.62-.528h2.04v-.66c0-.408-.124-.72-.372-.936-.24-.224-.584-.336-1.032-.336-.392 0-.72.084-.984.252-.264.16-.416.38-.456.66h-1.08c.072-.568.34-1.02.804-1.356.464-.336 1.044-.504 1.74-.504.76 0 1.36.196 1.8.588.44.392.66.924.66 1.596V78H153.5v-1.26h-.18l.18-.18c0 .48-.188.86-.564 1.14-.368.28-.86.42-1.476.42zm.264-.852c.512 0 .932-.128 1.26-.384.328-.256.492-.584.492-.984v-.936h-2.016c-.36 0-.644.1-.852.3-.208.2-.312.472-.312.816 0 .368.124.66.372.876.256.208.608.312 1.056.312zm6.893.732v-5.652h-2.4V71.4h5.88v.948h-2.4V78h-1.08zm7.662.096c-.528 0-.984-.1-1.368-.3a2.178 2.178 0 01-.9-.864c-.208-.384-.312-.836-.312-1.356v-1.752c0-.528.104-.98.312-1.356.216-.376.516-.664.9-.864.384-.2.84-.3 1.368-.3.528 0 .984.1 1.368.3.384.2.68.488.888.864.216.376.324.824.324 1.344v1.764c0 .52-.108.972-.324 1.356a2.103 2.103 0 01-.888.864c-.384.2-.84.3-1.368.3zm0-.96c.472 0 .84-.132 1.104-.396.264-.264.396-.652.396-1.164v-1.752c0-.512-.132-.9-.396-1.164-.264-.264-.632-.396-1.104-.396-.464 0-.832.132-1.104.396-.264.264-.396.652-.396 1.164v1.752c0 .512.132.9.396 1.164.272.264.64.396 1.104.396zm4.65.864v-6.6h2.856c.688 0 1.22.156 1.596.468.376.304.564.732.564 1.284 0 .456-.156.824-.468 1.104-.312.272-.724.408-1.236.408v-.096c.56 0 1.008.14 1.344.42.344.28.516.656.516 1.128 0 .592-.2 1.056-.6 1.392-.4.328-.96.492-1.68.492h-2.892zm1.056-.948h1.836c.384 0 .68-.084.888-.252.216-.168.324-.404.324-.708 0-.312-.108-.552-.324-.72-.208-.168-.504-.252-.888-.252h-1.836v1.932zm0-2.868h1.8c.336 0 .6-.08.792-.24.2-.16.3-.384.3-.672 0-.288-.096-.512-.288-.672-.192-.168-.46-.252-.804-.252h-1.8v1.836zm8.538-1.104c-.296 0-.536-.08-.72-.24a.852.852 0 01-.276-.66c0-.272.092-.488.276-.648.184-.168.424-.252.72-.252.304 0 .544.084.72.252.184.16.276.376.276.648a.852.852 0 01-.276.66c-.176.16-.416.24-.72.24zm0 5.04c-.296 0-.536-.08-.72-.24a.852.852 0 01-.276-.66c0-.272.092-.488.276-.648.184-.168.424-.252.72-.252.304 0 .544.084.72.252.184.16.276.376.276.648a.852.852 0 01-.276.66c-.176.16-.416.24-.72.24z" fill="#000"/></svg>