<svg width="180" height="215" fill="none" xmlns="http://www.w3.org/2000/svg"><g filter="url(#filter0_d_2002_11)"><rect x="4" width="172" height="207" rx="16.011" fill="#875C9C"/></g><mask id="a" style="mask-type:alpha" maskUnits="userSpaceOnUse" x="4" y="0" width="172" height="43"><path fill="#C9D9CD" d="M4 0h171.961v42.27H4z"/></mask><g mask="url(#a)"><rect x="4" y="-1.69" width="171.961" height="118.355" rx="16.011" fill="#E0F4FF"/></g><path d="M16.73 58.646a1.12 1.12 0 01-.826-.326 1.12 1.12 0 01-.326-.827c0-.339.109-.614.326-.826a1.12 1.12 0 01.827-.326c.339 0 .614.109.826.326.218.212.326.487.326.826 0 .334-.108.609-.326.827-.212.218-.487.326-.826.326zM23.323 61v-7.013h.836v3.939c0 .23-.007.477-.02.74a25.581 25.581 0 01-.067 1.325l2.133-6.004h1.153V61h-.836v-3.939c0-.237.003-.483.01-.74.013-.262.025-.509.038-.74l.048-.585L24.475 61h-1.153zm7.457.067c-.557 0-1.015-.118-1.373-.355a1.412 1.412 0 01-.634-.96h.912c.045.16.163.29.356.393.198.102.445.154.74.154h.45c.315 0 .558-.074.731-.221a.71.71 0 00.269-.577c0-.256-.086-.458-.26-.605-.166-.147-.412-.22-.74-.22h-1.162v-.75h1.134c.295 0 .519-.07.672-.212a.72.72 0 00.231-.557.727.727 0 00-.106-.403.61.61 0 00-.297-.25 1.243 1.243 0 00-.49-.086h-.48a1.23 1.23 0 00-.663.172c-.186.116-.298.257-.337.423h-.912c.064-.397.272-.724.624-.98s.781-.384 1.287-.384h.48c.379 0 .702.06.97.183a1.324 1.324 0 01.836 1.277c0 .314-.102.573-.307.778-.205.199-.493.311-.864.337v.038c.454.032.784.154.99.365.204.212.307.516.307.913 0 .467-.173.839-.52 1.114-.345.276-.81.413-1.392.413h-.452zm4.768 1.662l.778-2.056-1.96-4.957h.96l1.23 3.267a2.9 2.9 0 01.125.394c.039.147.07.272.096.374l.096-.374a4.4 4.4 0 01.116-.394l1.153-3.267h.931L36.47 62.73h-.922zM43.465 61v-1.921c-.102.025-.26.05-.47.077a7.121 7.121 0 01-.654.028c-.653.007-1.162-.15-1.527-.47-.359-.327-.538-.782-.538-1.365v-1.633h.864v1.633c0 .327.11.586.327.779.224.185.532.278.922.278.27 0 .497-.01.682-.029a3.59 3.59 0 00.394-.067v-2.594h.865V61h-.865zm2.654 0v-5.284h.826v2.882c0 .186-.006.381-.019.586-.006.205-.02.4-.038.586a6.1 6.1 0 01-.048.461l2.132-4.515h1.105V61h-.826v-2.882c0-.186.003-.381.01-.586.012-.205.028-.4.047-.586l.049-.47L47.224 61h-1.105zm5.027.067v-.807h.173c.294 0 .5-.115.615-.346.121-.23.185-.643.192-1.239l.057-2.959h3.584V61h-.865v-4.496h-1.864l-.048 2.21c-.012.557-.077 1.008-.192 1.354-.109.346-.282.599-.519.76-.23.16-.534.24-.912.24h-.221zM57.498 61v-5.284h.827v2.882c0 .186-.007.381-.02.586-.006.205-.019.4-.038.586-.013.18-.029.333-.048.461l2.133-4.515h1.104V61h-.826v-2.882c0-.186.003-.381.01-.586.013-.205.029-.4.048-.586l.048-.47L58.603 61h-1.105zm12.926 0v-4.525h-1.92v-.759h4.706v.76h-1.92V61h-.865zm6.122.096c-.416 0-.781-.083-1.095-.25a1.807 1.807 0 01-.72-.701 2.204 2.204 0 01-.25-1.066v-1.441c0-.41.083-.766.25-1.067.173-.3.413-.535.72-.701.314-.166.68-.25 1.095-.25.417 0 .778.084 1.086.25.314.166.554.4.72.701.173.301.26.657.26 1.067v.931h-3.286v.51c0 .416.106.736.317.96.212.218.513.327.903.327.333 0 .602-.058.807-.173a.763.763 0 00.375-.538h.865a1.472 1.472 0 01-.654 1.057c-.371.256-.835.384-1.393.384zm1.22-3.103v-.355c0-.417-.105-.737-.317-.961-.204-.224-.506-.336-.903-.336-.39 0-.691.112-.903.336-.211.224-.317.544-.317.96v.28h2.508l-.068.076zM80.286 61v-5.284h.864v2.181h.903l1.538-2.18h.99l-1.778 2.516L84.609 61H83.6l-1.537-2.354h-.913V61h-.864zm6.468 1.73l.778-2.057-1.96-4.957h.96l1.23 3.267a2.9 2.9 0 01.125.394c.039.147.07.272.096.374l.096-.374a4.4 4.4 0 01.116-.394l1.153-3.267h.931l-2.603 7.013h-.922zm8.735-.385V61h-4.14v-5.284h.777v4.554h1.115v-4.554h.672v4.554h1.115v-4.554h.778v4.554h.451v2.075h-.768zM97.326 61v-5.284h.826v2.882c0 .186-.006.381-.019.586-.006.205-.02.4-.038.586a6.1 6.1 0 01-.049.461l2.133-4.515h1.105V61h-.826v-2.882c0-.186.003-.381.009-.586.013-.205.029-.4.048-.586l.048-.47L98.431 61h-1.105zm7.669.096c-.417 0-.782-.083-1.096-.25a1.81 1.81 0 01-.72-.701 2.199 2.199 0 01-.25-1.066v-1.441c0-.41.083-.766.25-1.067a1.81 1.81 0 01.72-.701 2.31 2.31 0 011.096-.25c.416 0 .778.084 1.085.25.314.166.554.4.721.701.173.301.259.657.259 1.067v.931h-3.285v.51c0 .416.105.736.317.96.211.218.512.327.903.327.333 0 .602-.058.807-.173a.763.763 0 00.374-.538h.865a1.475 1.475 0 01-.653 1.057c-.372.256-.836.384-1.393.384zm1.22-3.103v-.355c0-.417-.106-.737-.317-.961-.205-.224-.506-.336-.903-.336-.391 0-.692.112-.903.336-.212.224-.317.544-.317.96v.28h2.507l-.067.076zm10.159 3.103c-.621 0-1.114-.182-1.479-.547-.359-.372-.538-.878-.538-1.518v-2.402c0-.846.211-1.495.634-1.95.422-.461 1.028-.692 1.815-.692h1.345v.865h-1.345c-.519 0-.912.153-1.181.46-.269.302-.404.74-.404 1.317v.624h.135l-.135.193c.007-.378.135-.673.384-.884.25-.212.59-.317 1.019-.317.557 0 .989.179 1.297.538.313.358.47.851.47 1.48v.768c0 .429-.08.797-.24 1.104-.16.308-.39.545-.691.711-.301.167-.663.25-1.086.25zm0-.768c.371 0 .656-.113.855-.337.198-.224.298-.544.298-.96v-.769c0-.416-.1-.736-.298-.96-.199-.225-.484-.337-.855-.337-.372 0-.657.112-.855.336-.199.218-.298.538-.298.961v.769c0 .416.099.736.298.96.198.224.483.337.855.337zm3.711.672v-5.284h.826v2.882c0 .186-.007.381-.019.586-.007.205-.02.4-.039.586-.013.18-.029.333-.048.461l2.133-4.515h1.105V61h-.827v-2.882c0-.186.004-.381.01-.586.013-.205.029-.4.048-.586l.048-.47L121.189 61h-1.104zm7.418.067c-.557 0-1.015-.118-1.373-.355a1.408 1.408 0 01-.634-.96h.912c.045.16.164.29.356.393.198.102.445.154.739.154h.452c.314 0 .557-.074.73-.221a.712.712 0 00.269-.577c0-.256-.086-.458-.259-.605-.167-.147-.413-.22-.74-.22h-1.162v-.75h1.133c.295 0 .519-.07.673-.212a.722.722 0 00.23-.557.731.731 0 00-.105-.403.618.618 0 00-.298-.25 1.245 1.245 0 00-.49-.086h-.481a1.23 1.23 0 00-.662.172c-.186.116-.298.257-.337.423h-.912c.064-.397.272-.724.624-.98s.781-.384 1.287-.384h.481c.378 0 .701.06.97.183a1.326 1.326 0 01.836 1.277c0 .314-.103.573-.308.778-.205.199-.493.311-.864.337v.038c.455.032.784.154.989.365.205.212.308.516.308.913 0 .467-.173.839-.519 1.114-.346.276-.81.413-1.393.413h-.452zm3.961-.067v-5.284h.865v2.2h2.228v-2.2h.865V61h-.865v-2.296h-2.228V61h-.865zm7.669.096c-.417 0-.782-.083-1.096-.25a1.81 1.81 0 01-.72-.701 2.199 2.199 0 01-.25-1.066v-1.441c0-.41.083-.766.25-1.067a1.81 1.81 0 01.72-.701 2.31 2.31 0 011.096-.25c.416 0 .778.084 1.085.25.314.166.554.4.721.701.173.301.259.657.259 1.067v.931h-3.285v.51c0 .416.105.736.317.96.211.218.512.327.903.327.333 0 .602-.058.807-.173a.766.766 0 00.374-.538h.865a1.475 1.475 0 01-.653 1.057c-.372.256-.836.384-1.393.384zm1.22-3.103v-.355c0-.417-.106-.737-.317-.961-.205-.224-.506-.336-.903-.336-.391 0-.692.112-.903.336-.212.224-.317.544-.317.96v.28h2.507l-.067.076zm4.488 3.103a2.46 2.46 0 01-1.114-.24 1.73 1.73 0 01-.73-.692c-.173-.307-.259-.67-.259-1.085v-1.441c0-.423.086-.785.259-1.086a1.73 1.73 0 01.73-.692c.32-.16.692-.24 1.114-.24.609 0 1.099.163 1.47.49.372.327.567.772.586 1.336h-.864c-.02-.34-.135-.6-.346-.779-.205-.185-.487-.278-.846-.278-.377 0-.678.109-.903.326-.224.212-.336.516-.336.913v1.45c0 .398.112.705.336.923.225.218.526.327.903.327.359 0 .641-.093.846-.28.211-.185.326-.444.346-.777h.864c-.019.563-.214 1.008-.586 1.335-.371.327-.861.49-1.47.49zm4.134-2.882v-.768h3.074v.768h-3.074zM23.361 80v-5.284h3.957V80h-.864v-4.496h-2.229V80h-.865zm5.67 1.73v-7.014h.864v1.009h.174l-.174.202c0-.404.132-.72.394-.951.27-.237.622-.356 1.057-.356.532 0 .954.176 1.268.529.32.345.48.823.48 1.431v1.547c0 .403-.073.752-.22 1.047a1.57 1.57 0 01-.606.682c-.256.16-.563.24-.922.24-.429 0-.778-.118-1.047-.355-.269-.237-.404-.554-.404-.951l.174.201h-.193l.02 1.201v1.537h-.865zm2.027-2.383c.365 0 .65-.11.855-.327.211-.218.317-.531.317-.941v-1.441c0-.41-.106-.724-.317-.942-.205-.218-.49-.326-.855-.326-.352 0-.634.112-.845.336-.212.224-.318.535-.318.932v1.44c0 .398.106.708.318.932.21.225.493.337.845.337zm5.66.73c-.422 0-.787-.08-1.094-.24a1.744 1.744 0 01-.72-.692c-.167-.307-.25-.67-.25-1.086v-1.402c0-.423.083-.785.25-1.086.172-.3.412-.531.72-.691.307-.16.672-.24 1.095-.24.422 0 .788.08 1.095.24.307.16.544.39.71.691.174.301.26.66.26 1.076v1.412c0 .417-.086.779-.26 1.086a1.684 1.684 0 01-.71.692c-.307.16-.672.24-1.095.24zm0-.769c.379 0 .673-.105.885-.317.211-.211.317-.522.317-.932v-1.402c0-.41-.106-.72-.317-.932-.212-.211-.506-.317-.884-.317-.372 0-.666.106-.884.317-.211.211-.317.522-.317.932v1.402c0 .41.106.72.317.932.218.212.512.317.884.317zm7.468 2.037V80h-3.757v-5.284h.865v4.516h2.075v-4.516h.865v4.516h.72v2.113h-.768zm3.912-1.249c-.416 0-.781-.083-1.095-.25a1.807 1.807 0 01-.72-.701 2.204 2.204 0 01-.25-1.066v-1.441c0-.41.083-.766.25-1.067.172-.3.413-.534.72-.701a2.31 2.31 0 011.095-.25c.416 0 .778.084 1.086.25.314.166.554.4.72.701.173.301.26.657.26 1.067v.931h-3.286v.51c0 .416.106.736.317.96.211.218.512.327.903.327.333 0 .602-.058.807-.173a.763.763 0 00.375-.538h.864a1.472 1.472 0 01-.653 1.057c-.371.256-.836.384-1.393.384zm1.22-3.103v-.355c0-.417-.105-.737-.317-.961-.205-.224-.506-.336-.903-.336-.39 0-.692.112-.903.336-.211.224-.317.544-.317.96v.28h2.507l-.067.076zm4.489 3.103a2.46 2.46 0 01-1.114-.24 1.73 1.73 0 01-.73-.692c-.174-.307-.26-.67-.26-1.085v-1.441c0-.423.086-.785.26-1.086a1.73 1.73 0 01.73-.692c.32-.16.691-.24 1.114-.24.608 0 1.098.163 1.47.49.371.327.567.772.586 1.335h-.865c-.019-.339-.134-.598-.346-.778-.205-.185-.486-.278-.845-.278-.378 0-.679.109-.903.326-.224.212-.336.516-.336.913v1.45c0 .398.112.705.336.923.224.218.525.326.903.326.359 0 .64-.092.845-.278.212-.186.327-.445.346-.778h.865c-.02.563-.215 1.008-.586 1.335-.372.327-.862.49-1.47.49zm5.69 0c-.423 0-.794-.08-1.115-.24a1.73 1.73 0 01-.73-.692c-.173-.307-.26-.67-.26-1.085v-1.441c0-.423.087-.785.26-1.086a1.73 1.73 0 01.73-.692c.32-.16.692-.24 1.115-.24.608 0 1.098.163 1.47.49.37.327.566.772.586 1.335h-.865c-.02-.339-.135-.598-.346-.778-.205-.185-.487-.278-.845-.278-.378 0-.68.109-.903.326-.225.212-.337.516-.337.913v1.45c0 .398.112.705.337.923.224.218.525.326.903.326.358 0 .64-.092.845-.278.211-.186.327-.445.346-.778h.864c-.019.563-.214 1.008-.585 1.335-.372.327-.862.49-1.47.49zM62.91 80v-5.284h.806v1.94h.433c.57 0 1.018.151 1.345.452.333.295.5.702.5 1.22 0 .52-.167.93-.5 1.23-.327.295-.775.442-1.345.442h-1.24zm.806-.692h.433c.34 0 .602-.086.787-.26.193-.172.289-.412.289-.72 0-.307-.096-.547-.288-.72-.186-.173-.449-.26-.788-.26h-.433v1.96zm2.902.692v-5.284h.807V80h-.807zm2.942 1.537l.768-2.988h1.25l-1.25 2.988h-.768zM80.257 80v-5.284h.826v2.882c0 .186-.006.381-.019.586-.006.205-.02.4-.038.586-.013.18-.03.333-.048.462l2.132-4.516h1.105V80h-.826v-2.882c0-.186.003-.381.01-.586.012-.205.028-.4.047-.586l.049-.47L81.362 80h-1.105zm7.688.096a2.46 2.46 0 01-1.114-.24 1.73 1.73 0 01-.73-.692c-.174-.307-.26-.67-.26-1.085v-1.441c0-.423.087-.785.26-1.086a1.73 1.73 0 01.73-.692c.32-.16.691-.24 1.114-.24.608 0 1.098.163 1.47.49.371.327.566.772.586 1.335h-.865c-.02-.339-.134-.598-.346-.778-.205-.185-.487-.278-.845-.278-.378 0-.679.109-.903.326-.224.212-.336.516-.336.913v1.45c0 .398.112.705.336.923.224.218.525.326.903.326.359 0 .64-.092.845-.278.212-.186.327-.445.346-.778h.865c-.02.563-.215 1.008-.586 1.335-.372.327-.862.49-1.47.49zM91.636 80v-5.284h3.958V80h-.864v-4.496H92.5V80h-.864zm7.669.077c-.423 0-.788-.08-1.095-.24a1.744 1.744 0 01-.72-.692c-.167-.307-.25-.67-.25-1.086v-1.402c0-.423.083-.785.25-1.086.172-.3.412-.531.72-.691.307-.16.672-.24 1.095-.24.423 0 .788.08 1.095.24.308.16.545.39.711.691.173.301.259.66.259 1.076v1.412c0 .417-.086.779-.259 1.086a1.677 1.677 0 01-.711.692c-.307.16-.672.24-1.095.24zm0-.769c.378 0 .672-.105.884-.317.211-.211.317-.522.317-.932v-1.402c0-.41-.106-.72-.317-.932-.211-.211-.506-.317-.884-.317-.372 0-.666.106-.884.317-.211.211-.317.522-.317.932v1.402c0 .41.106.72.317.932.218.212.512.317.884.317zm3.048.76v-.808h.173c.294 0 .499-.115.615-.346.121-.23.185-.643.192-1.239l.057-2.959h3.584V80h-.865v-4.496h-1.864l-.048 2.21c-.013.557-.077 1.008-.192 1.354-.109.346-.282.599-.519.76-.23.16-.534.24-.912.24h-.221zm6.391-.068v-5.284h.864v1.94h1.557c.595 0 1.063.151 1.402.452.346.295.519.702.519 1.22 0 .513-.173.92-.519 1.22-.346.302-.813.452-1.402.452h-2.421zm.864-.788h1.557c.333 0 .586-.073.759-.22.179-.154.269-.375.269-.664 0-.288-.09-.505-.269-.653-.173-.153-.426-.23-.759-.23h-1.557v1.767zm6.516.855c-.557 0-1.015-.118-1.374-.355a1.415 1.415 0 01-.634-.96h.913c.045.16.163.29.355.393.199.103.446.154.74.154h.452c.314 0 .557-.074.73-.221a.712.712 0 00.269-.577c0-.256-.087-.458-.26-.605-.166-.147-.413-.22-.739-.22h-1.163v-.75h1.134c.294 0 .519-.07.672-.212a.72.72 0 00.231-.557.723.723 0 00-.106-.403.609.609 0 00-.298-.25 1.238 1.238 0 00-.49-.086h-.48c-.256 0-.477.057-.663.172-.185.116-.298.257-.336.423h-.913c.064-.397.273-.724.625-.98s.781-.384 1.287-.384h.48c.378 0 .702.06.971.183a1.326 1.326 0 01.836 1.277c0 .314-.103.574-.308.778-.205.199-.493.311-.864.337v.038c.454.032.784.154.989.365.205.212.307.516.307.913 0 .467-.172.839-.518 1.114-.346.276-.81.413-1.393.413h-.452zm4.768 1.662l.778-2.056-1.96-4.957h.961l1.229 3.267c.045.108.087.24.125.393.039.148.071.273.096.375l.096-.375c.039-.153.077-.285.116-.393l1.152-3.267h.932l-2.603 7.013h-.922zm6.861-1.633c-.416 0-.781-.083-1.095-.25a1.81 1.81 0 01-.72-.701 2.199 2.199 0 01-.25-1.066v-1.441c0-.41.083-.766.25-1.067a1.81 1.81 0 01.72-.701 2.31 2.31 0 011.095-.25c.417 0 .778.084 1.086.25.314.166.554.4.72.701.173.301.26.657.26 1.067v.931h-3.286v.51c0 .416.106.736.317.96.212.218.513.327.903.327.333 0 .602-.058.807-.173a.764.764 0 00.375-.538h.864a1.469 1.469 0 01-.653 1.057c-.371.256-.836.384-1.393.384zm1.22-3.103v-.355c0-.417-.105-.737-.317-.961-.205-.224-.506-.336-.903-.336-.39 0-.691.112-.903.336-.211.224-.317.544-.317.96v.28h2.508l-.068.076zM131.291 80v-5.284h1.172l.692 2.027c.07.205.134.41.192.615.057.199.099.352.125.461a20.9 20.9 0 01.115-.46c.058-.206.118-.414.183-.625l.653-2.018h1.172V80h-.836v-.817c0-.288.003-.602.01-.941l.019-1.028c.013-.346.025-.672.038-.98.013-.314.023-.59.029-.826l-.941 3.007h-.913l-.951-2.988c.013.288.022.647.029 1.076.013.43.022.878.029 1.345.012.468.019.913.019 1.335V80h-.836zm5.584 0v-5.284h.807v1.94h.432c.57 0 1.019.151 1.345.452.333.295.5.702.5 1.22 0 .52-.167.93-.5 1.23-.326.295-.775.442-1.345.442h-1.239zm.807-.692h.432c.34 0 .602-.086.788-.26.192-.172.288-.412.288-.72 0-.307-.096-.547-.288-.72-.186-.173-.448-.26-.788-.26h-.432v1.96zm2.901.692v-5.284h.807V80h-.807zm4.239.096c-.416 0-.781-.083-1.095-.25a1.803 1.803 0 01-.72-.701 2.199 2.199 0 01-.25-1.066v-1.441c0-.41.083-.766.25-1.067.172-.3.413-.534.72-.701a2.31 2.31 0 011.095-.25c.417 0 .778.084 1.086.25.314.166.554.4.72.701.173.301.26.657.26 1.067v.931h-3.286v.51c0 .416.106.736.317.96.212.218.513.327.903.327.333 0 .602-.058.807-.173a.764.764 0 00.375-.538h.864a1.469 1.469 0 01-.653 1.057c-.371.256-.836.384-1.393.384zm1.22-3.103v-.355c0-.417-.105-.737-.317-.961-.205-.224-.506-.336-.903-.336-.39 0-.691.112-.903.336-.211.224-.317.544-.317.96v.28h2.508l-.068.076zM25.359 99.096c-.423 0-.795-.08-1.115-.24a1.73 1.73 0 01-.73-.692c-.173-.307-.26-.67-.26-1.085v-1.441c0-.423.087-.785.26-1.086a1.73 1.73 0 01.73-.692c.32-.16.692-.24 1.115-.24.608 0 1.098.163 1.47.49.371.327.566.772.585 1.335h-.864c-.02-.339-.135-.598-.346-.778-.205-.185-.487-.278-.845-.278-.378 0-.68.109-.903.326-.224.212-.337.516-.337.913v1.45c0 .398.113.705.337.923.224.218.525.326.903.326.358 0 .64-.092.845-.278.211-.186.327-.445.346-.778h.864c-.019.563-.214 1.008-.586 1.335-.37.327-.86.49-1.47.49zM29.05 99v-5.284h.826v2.882c0 .186-.006.381-.019.586-.006.205-.02.4-.038.586-.013.18-.03.333-.048.462l2.132-4.516h1.105V99h-.826v-2.882c0-.186.003-.381.01-.586.012-.205.028-.4.048-.586l.048-.47L30.155 99H29.05zm7.688.096a2.46 2.46 0 01-1.114-.24 1.73 1.73 0 01-.73-.692c-.173-.307-.26-.67-.26-1.085v-1.441c0-.423.087-.785.26-1.086a1.73 1.73 0 01.73-.692c.32-.16.691-.24 1.114-.24.608 0 1.098.163 1.47.49.371.327.567.772.586 1.335h-.865c-.019-.339-.134-.598-.346-.778-.205-.185-.486-.278-.845-.278-.378 0-.679.109-.903.326-.224.212-.336.516-.336.913v1.45c0 .398.112.705.336.923.224.218.525.326.903.326.359 0 .64-.092.845-.278.212-.186.327-.445.346-.778h.865c-.02.563-.215 1.008-.586 1.335-.372.327-.862.49-1.47.49zM41.976 99v-4.525h-1.921v-.759h4.707v.76h-1.921V99h-.865zm6.122.096c-.416 0-.781-.083-1.095-.25a1.807 1.807 0 01-.72-.701 2.204 2.204 0 01-.25-1.066v-1.441c0-.41.083-.766.25-1.067.172-.3.413-.534.72-.701a2.31 2.31 0 011.095-.25c.416 0 .778.084 1.086.25.314.166.554.4.72.701.173.301.26.657.26 1.067v.931h-3.286v.51c0 .416.106.736.317.96.211.218.512.327.903.327.333 0 .602-.058.807-.173a.763.763 0 00.375-.538h.864a1.472 1.472 0 01-.653 1.057c-.371.256-.836.384-1.393.384zm1.22-3.103v-.355c0-.417-.105-.737-.317-.961-.205-.224-.506-.336-.903-.336-.39 0-.692.112-.903.336-.211.224-.317.544-.317.96v.28h2.507l-.067.076zM51.636 99v-5.284h1.172l.691 2.027c.071.205.135.41.193.615.057.199.099.352.125.461.025-.109.064-.262.115-.46.057-.206.118-.414.182-.625l.654-2.018h1.172V99h-.836v-.817c0-.288.003-.602.01-.941l.019-1.028c.012-.346.025-.672.038-.98.013-.314.023-.59.029-.826l-.942 3.007h-.912l-.951-2.988c.013.288.022.647.029 1.076.012.43.022.878.028 1.345.013.468.02.913.02 1.335V99h-.836zm5.584 0v-5.284h.807v1.94h.432c.57 0 1.018.151 1.345.452.333.295.5.702.5 1.22 0 .52-.167.93-.5 1.23-.327.295-.775.442-1.345.442h-1.24zm.807-.692h.432c.34 0 .602-.086.788-.26.192-.172.288-.412.288-.72 0-.307-.096-.547-.288-.72-.186-.173-.449-.26-.788-.26h-.432v1.96zm2.901.692v-5.284h.807V99h-.807zm7.95 0v-5.284h.826v2.882c0 .186-.006.381-.02.586-.006.205-.019.4-.038.586a6.36 6.36 0 01-.048.462l2.133-4.516h1.105V99h-.826v-2.882c0-.186.003-.381.01-.586.012-.205.028-.4.047-.586l.048-.47L69.983 99h-1.105zm11.379 0v-5.284h.826v2.882c0 .186-.006.381-.019.586-.006.205-.02.4-.038.586-.013.18-.03.333-.048.462l2.132-4.516h1.105V99h-.826v-2.882c0-.186.003-.381.01-.586.012-.205.028-.4.047-.586l.049-.47L81.362 99h-1.105zm5.69 0v-5.284h.864v2.2h2.23v-2.2h.864V99h-.865v-2.296h-2.229V99h-.864zm7.688.096a2.46 2.46 0 01-1.115-.24 1.73 1.73 0 01-.73-.692c-.173-.307-.26-.67-.26-1.085v-1.441c0-.423.087-.785.26-1.086a1.73 1.73 0 01.73-.692c.32-.16.692-.24 1.115-.24.608 0 1.098.163 1.47.49.37.327.566.772.585 1.335h-.864c-.02-.339-.135-.598-.346-.778-.205-.185-.487-.278-.846-.278-.377 0-.678.109-.903.326-.224.212-.336.516-.336.913v1.45c0 .398.112.705.337.923.224.218.525.326.903.326.358 0 .64-.092.845-.278.211-.186.327-.445.346-.778h.864c-.019.563-.214 1.008-.586 1.335-.371.327-.861.49-1.47.49zM98.873 99v-4.525H96.95v-.759h4.708v.76h-1.922V99h-.864zm4.123 1.729v-7.013h.865v1.009h.173l-.173.202c0-.404.131-.72.394-.951.269-.237.621-.356 1.057-.356.531 0 .954.176 1.268.529.32.345.48.823.48 1.431v1.547c0 .403-.074.752-.221 1.047a1.575 1.575 0 01-.605.682c-.256.16-.564.24-.922.24-.429 0-.778-.118-1.047-.355-.269-.237-.404-.554-.404-.951l.173.201h-.192l.019 1.201v1.537h-.865zm2.027-2.382c.366 0 .651-.11.855-.327.212-.218.317-.531.317-.941v-1.441c0-.41-.105-.724-.317-.942-.204-.218-.489-.326-.855-.326-.352 0-.634.112-.845.336-.211.224-.317.535-.317.932v1.44c0 .398.106.708.317.932.211.225.493.337.845.337zm4.489 2.382l.778-2.056-1.959-4.957h.96l1.23 3.267c.045.108.086.24.125.393l.096.375.096-.375c.038-.153.077-.285.115-.393l1.153-3.267h.932l-2.603 7.013h-.923zm4.71-1.729v-5.284h1.172l.692 2.027c.07.205.134.41.192.615.058.199.099.352.125.461a20.9 20.9 0 01.115-.46c.058-.206.119-.414.183-.625l.653-2.018h1.172V99h-.836v-.817c0-.288.003-.602.01-.941l.019-1.028.038-.98c.013-.314.023-.59.029-.826l-.941 3.007h-.913l-.951-2.988c.013.288.022.647.029 1.076.013.43.022.878.029 1.345.012.468.019.913.019 1.335V99h-.836zm7.842.096c-.417 0-.782-.083-1.096-.25a1.81 1.81 0 01-.72-.701 2.199 2.199 0 01-.25-1.066v-1.441c0-.41.083-.766.25-1.067a1.81 1.81 0 01.72-.701 2.31 2.31 0 011.096-.25c.416 0 .778.084 1.085.25.314.166.554.4.721.701.173.301.259.657.259 1.067v.931h-3.285v.51c0 .416.105.736.317.96.211.218.512.327.903.327.333 0 .602-.058.807-.173a.763.763 0 00.374-.538h.865a1.475 1.475 0 01-.653 1.057c-.372.256-.836.384-1.393.384zm1.22-3.103v-.355c0-.417-.106-.737-.317-.961-.205-.224-.506-.336-.903-.336-.391 0-.692.112-.903.336-.212.224-.317.544-.317.96v.28h2.507l-.067.076zm2.49 3.007v-5.284h.865v2.2h2.229v-2.2h.864V99h-.864v-2.296h-2.229V99h-.865zm7.237 0v-4.525h-1.922v-.759h4.708v.76h-1.922V99h-.864zm3.864 0v-5.284h.807v1.94h.432c.57 0 1.019.151 1.345.452.333.295.5.702.5 1.22 0 .52-.167.93-.5 1.23-.326.295-.775.442-1.345.442h-1.239zm.807-.692h.432c.34 0 .602-.086.788-.26.192-.172.288-.412.288-.72 0-.307-.096-.547-.288-.72-.186-.173-.448-.26-.788-.26h-.432v1.96zm2.901.692v-5.284h.807V99h-.807zm4.239.096c-.243 0-.438-.07-.586-.211-.141-.141-.211-.33-.211-.567 0-.25.07-.448.211-.596.148-.147.343-.22.586-.22.244 0 .436.073.577.22.147.148.221.346.221.596 0 .237-.074.426-.221.567-.141.14-.333.211-.577.211zm-128.091 17.55c-.333 0-.609-.109-.827-.326a1.12 1.12 0 01-.326-.826c0-.34.109-.615.326-.827.218-.217.494-.326.827-.326.339 0 .614.109.826.326.218.212.326.487.326.827 0 .333-.108.608-.326.826-.212.217-.487.326-.826.326zM23.35 119v-7.013h1.989c.64 0 1.14.16 1.498.48.365.321.548.766.548 1.336 0 .32-.067.599-.202.836a1.359 1.359 0 01-.576.547c-.244.128-.538.189-.884.183v-.144c.371-.007.691.064.96.211.276.147.487.359.634.634.154.275.231.602.231.98 0 .397-.083.743-.25 1.037a1.696 1.696 0 01-.71.682c-.308.154-.676.231-1.105.231H23.35zm.845-.778h1.191c.404 0 .721-.106.952-.317.237-.218.355-.513.355-.884 0-.384-.118-.695-.355-.932-.231-.243-.548-.365-.951-.365h-1.192v2.498zm0-3.247h1.134c.371 0 .663-.099.874-.298.218-.199.327-.468.327-.807s-.106-.608-.317-.807c-.212-.199-.503-.298-.874-.298h-1.144v2.21zM28.771 119v-5.284h.807v1.941h.433c.57 0 1.018.15 1.345.451.333.295.5.702.5 1.22 0 .519-.167.929-.5 1.23-.327.295-.775.442-1.345.442h-1.24zm.807-.692h.433c.34 0 .602-.086.788-.259.192-.173.288-.413.288-.721 0-.307-.096-.547-.288-.72-.186-.173-.449-.259-.788-.259h-.433v1.959zm2.902.692v-5.284h.807V119h-.807zm1.933 0l1.355-2.037c-.404-.096-.718-.281-.942-.557-.218-.275-.326-.618-.326-1.028 0-.519.17-.925.509-1.22.346-.294.816-.442 1.412-.442h2.277V119h-.865v-1.969h-1.162L35.42 119h-1.008zm2.008-2.738h1.412v-1.777h-1.412c-.32 0-.573.08-.759.24-.186.154-.279.371-.279.653 0 .276.093.493.279.654.186.153.439.23.759.23zM40.429 119v-5.284h2.287c.55 0 .977.125 1.278.375.3.243.451.586.451 1.028 0 .365-.125.66-.375.884-.25.217-.58.326-.99.326v-.077c.45 0 .808.113 1.077.337.275.224.413.525.413.903 0 .474-.16.845-.48 1.114-.32.263-.769.394-1.345.394h-2.316zm.846-.759h1.47c.307 0 .544-.067.71-.202.174-.134.26-.323.26-.566 0-.25-.087-.442-.26-.577-.166-.134-.403-.202-.71-.202h-1.47v1.547zm0-2.296h1.44c.27 0 .481-.064.635-.192.16-.128.24-.307.24-.538 0-.231-.077-.41-.23-.538-.154-.135-.369-.202-.644-.202h-1.441v1.47zM46.119 119v-5.284h.826v2.882c0 .186-.006.381-.019.586a8.66 8.66 0 01-.038.586c-.013.18-.03.333-.048.461l2.132-4.515h1.105V119h-.826v-2.882c0-.186.003-.381.01-.586.012-.205.028-.4.047-.586l.049-.471L47.224 119h-1.105zm5.027.067v-.807h.173c.294 0 .5-.115.615-.346.121-.23.185-.643.192-1.239l.057-2.959h3.584V119h-.865v-4.496h-1.864l-.048 2.21c-.012.557-.077 1.008-.192 1.354-.109.346-.282.599-.519.759-.23.16-.534.24-.912.24h-.221zm6.352-.067v-5.284h.827v2.882c0 .186-.007.381-.02.586a8.055 8.055 0 01-.038.586 6.1 6.1 0 01-.048.461l2.133-4.515h1.104V119h-.826v-2.882c0-.186.003-.381.01-.586.013-.205.029-.4.048-.586l.048-.471L58.603 119h-1.105zm13.407-4.467l1.249-2.988h.768l-.768 2.988h-1.25zm-2.21 0l1.25-2.988h.768l-.769 2.988h-1.249zm7.87 4.563c-.422 0-.794-.08-1.114-.24a1.73 1.73 0 01-.73-.692c-.173-.307-.26-.669-.26-1.085v-1.441c0-.423.087-.785.26-1.086.173-.301.416-.531.73-.692.32-.16.692-.24 1.115-.24.608 0 1.098.164 1.47.49.37.327.566.772.585 1.336h-.864c-.02-.34-.135-.599-.346-.779-.205-.185-.487-.278-.845-.278-.378 0-.68.109-.904.326-.224.212-.336.516-.336.913v1.451c0 .397.112.704.337.922.224.218.525.327.903.327.358 0 .64-.093.845-.279.211-.186.327-.445.346-.778h.864c-.019.563-.214 1.008-.586 1.335-.371.327-.861.49-1.47.49zm3.03-.029v-.807h.172c.295 0 .5-.115.615-.346.122-.23.186-.643.192-1.239l.058-2.959h3.583V119h-.865v-4.496h-1.863l-.048 2.21c-.013.557-.077 1.008-.192 1.354-.11.346-.282.599-.52.759-.23.16-.534.24-.912.24h-.22zm7.87.029c-.558 0-.996-.141-1.317-.423-.32-.288-.48-.675-.48-1.162 0-.493.16-.881.48-1.162.32-.282.753-.423 1.297-.423h1.634v-.529c0-.326-.1-.576-.298-.749-.193-.179-.468-.269-.827-.269-.313 0-.576.067-.787.202a.717.717 0 00-.365.528h-.865c.058-.454.272-.816.644-1.085.371-.269.835-.404 1.393-.404.608 0 1.088.157 1.44.471.353.314.53.74.53 1.278V119h-.846v-1.009h-.144l.144-.144c0 .384-.15.689-.452.913-.294.224-.688.336-1.181.336zm.21-.682c.41 0 .747-.102 1.01-.307a.957.957 0 00.394-.788v-.75h-1.614c-.289 0-.516.081-.683.241-.166.16-.25.378-.25.653 0 .295.1.528.299.701.204.167.486.25.845.25zm5.94.682c-.62 0-1.114-.182-1.48-.548-.358-.371-.537-.877-.537-1.517v-2.402c0-.845.211-1.496.634-1.95.423-.461 1.028-.692 1.816-.692h1.345v.865h-1.345c-.52 0-.913.153-1.182.461-.269.301-.403.74-.403 1.316v.624h.134l-.134.193c.006-.378.134-.673.384-.884.25-.212.589-.317 1.018-.317.557 0 .99.179 1.297.538.314.358.47.851.47 1.479v.769c0 .429-.08.797-.24 1.104-.16.308-.39.545-.691.711-.301.167-.663.25-1.086.25zm0-.768c.372 0 .657-.113.855-.337.199-.224.298-.544.298-.96v-.769c0-.416-.1-.736-.298-.961-.198-.224-.483-.336-.855-.336-.371 0-.656.112-.855.336-.198.218-.297.538-.297.961v.769c0 .416.099.736.297.96.199.224.484.337.855.337zm3.432.672v-5.284h.807v1.941h.433c.57 0 1.018.15 1.345.451.333.295.499.702.499 1.22 0 .519-.166.929-.5 1.23-.326.295-.774.442-1.344.442h-1.24zm.807-.692h.433c.34 0 .602-.086.787-.259.193-.173.289-.413.289-.721 0-.307-.096-.547-.289-.72-.185-.173-.448-.259-.787-.259h-.433v1.959zm2.902.692v-5.284h.807V119h-.807zm4.239.096c-.417 0-.782-.083-1.096-.25a1.805 1.805 0 01-.72-.701 2.197 2.197 0 01-.25-1.066v-1.441c0-.41.083-.766.25-1.067.173-.301.413-.534.72-.701.314-.167.679-.25 1.096-.25.416 0 .778.083 1.085.25.314.167.554.4.721.701.173.301.259.657.259 1.067v.931h-3.285v.51c0 .416.105.736.317.96.211.218.512.327.903.327.333 0 .602-.058.807-.173a.763.763 0 00.374-.538h.865a1.476 1.476 0 01-.653 1.057c-.372.256-.836.384-1.393.384zm1.22-3.103v-.355c0-.417-.106-.737-.317-.961-.205-.224-.506-.336-.903-.336-.391 0-.692.112-.903.336-.212.224-.317.544-.317.961v.278h2.507l-.067.077zm4.613-1.46l.769-2.988h1.249l-1.249 2.988h-.769zm-2.209 0l.768-2.988h1.249l-1.249 2.988h-.768zM119.912 119v-5.284h1.172l.691 2.027c.071.205.135.41.193.615.057.199.099.352.124.461.026-.109.064-.262.116-.461.057-.205.118-.413.182-.624l.653-2.018h1.173V119h-.836v-.817c0-.288.003-.602.009-.941l.02-1.028c.012-.346.025-.672.038-.98.013-.314.022-.589.029-.826l-.942 3.007h-.912l-.951-2.988c.012.288.022.647.028 1.076.013.429.023.878.029 1.345.013.468.019.913.019 1.335V119h-.835zm7.841.096c-.416 0-.781-.083-1.095-.25a1.805 1.805 0 01-.72-.701 2.197 2.197 0 01-.25-1.066v-1.441c0-.41.083-.766.25-1.067.173-.301.413-.534.72-.701.314-.167.679-.25 1.095-.25.417 0 .778.083 1.086.25.314.167.554.4.72.701.173.301.26.657.26 1.067v.931h-3.286v.51c0 .416.106.736.317.96.212.218.513.327.903.327.333 0 .602-.058.807-.173a.765.765 0 00.375-.538h.864a1.47 1.47 0 01-.653 1.057c-.371.256-.836.384-1.393.384zm1.22-3.103v-.355c0-.417-.105-.737-.317-.961-.205-.224-.506-.336-.903-.336-.39 0-.691.112-.903.336-.211.224-.317.544-.317.961v.278h2.508l-.068.077zm4.489 3.103a2.46 2.46 0 01-1.114-.24 1.73 1.73 0 01-.73-.692c-.173-.307-.26-.669-.26-1.085v-1.441c0-.423.087-.785.26-1.086.173-.301.416-.531.73-.692.32-.16.691-.24 1.114-.24.609 0 1.098.164 1.47.49.371.327.567.772.586 1.336h-.865c-.019-.34-.134-.599-.345-.779-.205-.185-.487-.278-.846-.278-.378 0-.679.109-.903.326-.224.212-.336.516-.336.913v1.451c0 .397.112.704.336.922.224.218.525.327.903.327.359 0 .641-.093.846-.279.211-.186.326-.445.345-.778h.865c-.019.563-.215 1.008-.586 1.335-.372.327-.861.49-1.47.49zM138.7 119v-4.525h-1.921v-.759h4.707v.759h-1.921V119h-.865zm5.661.096c-.557 0-.996-.141-1.316-.423-.32-.288-.48-.675-.48-1.162 0-.493.16-.881.48-1.162.32-.282.753-.423 1.297-.423h1.633v-.529c0-.326-.099-.576-.298-.749-.192-.179-.467-.269-.826-.269-.314 0-.576.067-.788.202a.718.718 0 00-.365.528h-.864c.057-.454.272-.816.643-1.085.372-.269.836-.404 1.393-.404.609 0 1.089.157 1.441.471.353.314.529.74.529 1.278V119h-.846v-1.009h-.144l.144-.144c0 .384-.15.689-.451.913-.295.224-.689.336-1.182.336zm.211-.682c.41 0 .747-.102 1.009-.307a.956.956 0 00.394-.788v-.75h-1.614c-.288 0-.515.081-.682.241-.166.16-.25.378-.25.653 0 .295.1.528.298.701.205.167.487.25.845.25zm9.651.586v-5.284h.826v2.882c0 .186-.007.381-.019.586a8.64 8.64 0 01-.039.586c-.013.18-.029.333-.048.461l2.133-4.515h1.105V119h-.827v-2.882c0-.186.004-.381.01-.586.013-.205.029-.4.048-.586l.048-.471-2.133 4.525h-1.104zM25.339 138.077c-.422 0-.787-.08-1.095-.24a1.744 1.744 0 01-.72-.692c-.167-.307-.25-.669-.25-1.086v-1.402c0-.423.083-.785.25-1.086.173-.301.413-.531.72-.691.308-.161.673-.241 1.096-.241.422 0 .787.08 1.095.241.307.16.544.39.71.691.174.301.26.66.26 1.076v1.412c0 .417-.087.779-.26 1.086a1.683 1.683 0 01-.71.692c-.308.16-.673.24-1.095.24zm0-.769c.378 0 .673-.105.884-.317.212-.211.317-.522.317-.932v-1.402c0-.41-.105-.721-.317-.932-.211-.211-.506-.317-.883-.317-.372 0-.667.106-.884.317-.212.211-.317.522-.317.932v1.402c0 .41.105.721.317.932.217.212.512.317.884.317zm5.69.788c-.621 0-1.114-.182-1.48-.548-.358-.371-.537-.877-.537-1.517v-2.402c0-.845.211-1.496.634-1.95.422-.461 1.028-.692 1.815-.692h1.345v.865h-1.345c-.518 0-.912.153-1.181.461-.27.301-.404.74-.404 1.316v.624h.135l-.135.193c.007-.378.135-.673.385-.884.25-.212.589-.317 1.018-.317.557 0 .99.179 1.297.538.314.358.47.851.47 1.479v.769c0 .429-.08.797-.24 1.104-.16.308-.39.545-.691.711-.301.167-.663.25-1.086.25zm0-.768c.372 0 .657-.113.855-.337.199-.224.298-.544.298-.96v-.769c0-.416-.1-.736-.298-.961-.198-.224-.483-.336-.855-.336-.371 0-.656.112-.855.336-.198.218-.298.538-.298.961v.769c0 .416.1.736.298.96.199.224.484.337.855.337zm3.048.739v-.807h.173c.294 0 .5-.115.615-.346.121-.23.185-.643.192-1.239l.057-2.959h3.584V138h-.865v-4.496H35.97l-.048 2.21c-.012.557-.076 1.008-.192 1.354-.109.346-.282.599-.518.759-.231.16-.535.24-.913.24h-.221zm7.87.029c-.557 0-.996-.141-1.316-.423-.32-.288-.48-.675-.48-1.162 0-.493.16-.881.48-1.162.32-.282.753-.423 1.297-.423h1.633v-.529c0-.326-.099-.576-.298-.749-.192-.179-.467-.269-.826-.269-.314 0-.576.067-.787.202a.717.717 0 00-.365.528h-.865c.057-.454.272-.816.643-1.085.372-.269.836-.404 1.393-.404.609 0 1.09.157 1.441.471.353.314.529.74.529 1.278V138h-.846v-1.009h-.144l.145-.144c0 .384-.151.689-.452.913-.295.224-.688.336-1.182.336zm.212-.682c.41 0 .746-.102 1.008-.307a.957.957 0 00.394-.788v-.75h-1.614c-.288 0-.515.081-.682.241-.166.16-.25.378-.25.653 0 .295.1.528.298.701.205.167.487.25.846.25zm5.958.682c-.422 0-.794-.08-1.114-.24a1.73 1.73 0 01-.73-.692c-.173-.307-.26-.669-.26-1.085v-1.441c0-.423.087-.785.26-1.086.173-.301.416-.531.73-.692.32-.16.692-.24 1.114-.24.609 0 1.099.164 1.47.49.372.327.567.772.586 1.336h-.864c-.02-.34-.135-.599-.346-.779-.205-.185-.487-.278-.846-.278-.378 0-.679.109-.903.326-.224.212-.336.516-.336.913v1.451c0 .397.112.704.336.922.224.218.525.327.903.327.359 0 .64-.093.846-.279.211-.186.326-.445.346-.778h.864c-.02.563-.214 1.008-.586 1.335-.371.327-.861.49-1.47.49zm5.238-.096v-4.525h-1.92v-.759h4.706v.759h-1.92V138h-.866zm4.143 0v-5.284h.827v2.882c0 .186-.007.381-.02.586a8.055 8.055 0 01-.038.586 6.1 6.1 0 01-.048.461l2.133-4.515h1.104V138h-.826v-2.882c0-.186.003-.381.01-.586.013-.205.029-.4.048-.586l.048-.471L58.603 138h-1.105zm10.765 1.345v-2.085h.432c.11-.109.221-.323.336-.643.122-.321.186-.727.193-1.22l.057-2.681h3.449v4.544h.672v2.085h-.768V138h-3.603v1.345h-.768zm1.345-2.085h2.257v-3.775h-1.767l-.039 1.931c-.006.506-.06.916-.163 1.229-.102.314-.198.519-.288.615zm4.296.807v-.807h.173c.295 0 .5-.115.615-.346.122-.23.186-.643.192-1.239l.058-2.959h3.583V138h-.864v-4.496h-1.864l-.048 2.21c-.013.557-.077 1.008-.192 1.354-.109.346-.282.599-.519.759-.23.16-.535.24-.912.24h-.222zM79.93 138l1.355-2.037c-.403-.096-.717-.281-.941-.557-.218-.275-.327-.618-.327-1.028 0-.519.17-.925.509-1.22.346-.294.817-.442 1.412-.442h2.277V138h-.865v-1.969h-1.162L80.939 138H79.93zm2.008-2.738h1.412v-1.777h-1.412c-.32 0-.573.08-.759.24-.185.154-.278.371-.278.653 0 .276.093.493.278.654.186.153.439.23.76.23zm10.505 4.467l.779-2.056-1.96-4.957h.96l1.23 3.267c.045.108.087.24.125.393l.096.375.096-.375c.038-.153.077-.285.115-.393l1.153-3.267h.932l-2.603 7.013h-.923zm4.22-1.662v-.807h.173c.295 0 .5-.115.615-.346.122-.23.186-.643.192-1.239l.058-2.959h3.583V138h-.865v-4.496h-1.863l-.048 2.21c-.013.557-.077 1.008-.192 1.354-.11.346-.282.599-.52.759-.23.16-.534.24-.912.24h-.22zm7.16 1.662l.778-2.056-1.96-4.957h.961l1.229 3.267c.045.108.087.24.125.393.039.148.071.273.096.375l.096-.375c.039-.153.077-.285.116-.393l1.152-3.267h.932l-2.603 7.013h-.922zm7.918-1.729v-1.921a4.401 4.401 0 01-.471.077 7.084 7.084 0 01-.653.028c-.653.007-1.162-.15-1.527-.47-.359-.327-.538-.782-.538-1.365v-1.633h.864v1.633c0 .327.109.586.327.779.224.185.531.278.922.278.269 0 .496-.009.682-.029.192-.025.324-.048.394-.067v-2.594h.865V138h-.865zm2.385 0l-.019-5.284h.807v4.631h1.124v-4.631h.691v4.631h1.115v-4.631h.797V138h-4.515zm7.938.096c-.417 0-.782-.083-1.096-.25a1.805 1.805 0 01-.72-.701 2.197 2.197 0 01-.25-1.066v-1.441c0-.41.083-.766.25-1.067.173-.301.413-.534.72-.701.314-.167.679-.25 1.096-.25.416 0 .778.083 1.085.25.314.167.554.4.721.701.173.301.259.657.259 1.067v.931h-3.285v.51c0 .416.105.736.317.96.211.218.512.327.903.327.333 0 .602-.058.807-.173a.763.763 0 00.374-.538h.865a1.476 1.476 0 01-.653 1.057c-.372.256-.836.384-1.393.384zm1.22-3.103v-.355c0-.417-.106-.737-.317-.961-.205-.224-.506-.336-.903-.336-.391 0-.692.112-.903.336-.212.224-.317.544-.317.961v.278h2.507l-.067.077zm2.49 3.007v-5.284h.865v2.2h2.229v-2.2h.864V138h-.864v-2.296h-2.229V138h-.865zm5.69 0v-5.284h.826v2.882c0 .186-.006.381-.019.586a8.038 8.038 0 01-.039.586c-.012.18-.028.333-.048.461l2.133-4.515h1.105V138h-.826v-2.882c0-.186.003-.381.009-.586.013-.205.029-.4.048-.586l.048-.471-2.132 4.525h-1.105zm5.363 0l1.355-2.037c-.404-.096-.718-.281-.942-.557-.218-.275-.327-.618-.327-1.028 0-.519.17-.925.51-1.22.345-.294.816-.442 1.412-.442h2.277V138h-.865v-1.969h-1.162L137.836 138h-1.009zm2.008-2.738h1.412v-1.777h-1.412c-.32 0-.573.08-.759.24-.186.154-.279.371-.279.653 0 .276.093.493.279.654.186.153.439.23.759.23zm5.987 2.834c-.243 0-.438-.07-.586-.211-.141-.141-.211-.33-.211-.567 0-.25.07-.448.211-.596.148-.147.343-.221.586-.221.244 0 .436.074.577.221.147.148.221.346.221.596 0 .237-.074.426-.221.567-.141.141-.333.211-.577.211z" fill="#fff"/><path d="M13.943 17.528l1.768-7.013h1.546l1.778 7.013h-1.23l-.384-1.7h-1.864l-.384 1.7h-1.23zm1.835-2.68H17.2l-.423-1.883a47.29 47.29 0 01-.182-.845 19.85 19.85 0 01-.106-.557c-.02.115-.055.3-.106.557-.044.25-.105.528-.182.836l-.423 1.892zm5.113 4.41l.74-2.018-1.97-4.995h1.317l.98 2.7c.05.146.102.326.153.537.052.205.09.375.116.51.032-.135.073-.305.125-.51.05-.211.102-.39.153-.538l.922-2.7h1.269l-2.546 7.014h-1.26zm4.335-.385V16.51h.356c.109-.109.22-.307.336-.596.122-.294.186-.66.192-1.095l.058-2.574h3.698v4.265h.625v2.363h-1.105v-1.345h-3.055v1.345h-1.105zm1.576-2.363h1.921v-3.218h-1.44l-.04 1.527c-.006.43-.06.791-.162 1.086-.097.288-.19.49-.28.605zm4.623 1.018v-5.283h1.086v2.603c0 .167-.01.365-.029.596a13.998 13.998 0 01-.135 1.23l1.864-4.43h1.48v5.284h-1.086v-2.603c0-.173.007-.365.02-.577l.057-.624c.026-.205.051-.378.077-.519l-1.854 4.323h-1.48zm7.217 0V13.35h-1.806v-1.104h4.823v1.104h-1.806v4.18h-1.21zm12.004.096c-.448 0-.842-.083-1.181-.25a1.923 1.923 0 01-.779-.72c-.185-.314-.278-.682-.278-1.105v-1.325c0-.43.093-.798.278-1.105a1.85 1.85 0 01.779-.711c.339-.173.733-.26 1.181-.26.666 0 1.198.174 1.595.52.397.339.605.803.624 1.392h-1.2c-.02-.275-.12-.487-.298-.634-.173-.153-.413-.23-.72-.23-.321 0-.574.09-.76.269-.186.173-.278.422-.278.749v1.335c0 .327.092.58.278.76.186.179.439.268.76.268.306 0 .547-.073.72-.22.179-.154.278-.369.297-.644h1.201c-.019.589-.227 1.056-.624 1.402-.397.34-.929.51-1.595.51zm4.383 1.634l.74-2.018-1.97-4.995h1.317l.98 2.7a10.187 10.187 0 01.269 1.047c.032-.135.073-.305.124-.51.052-.211.103-.39.154-.538l.922-2.7h1.269l-2.546 7.014h-1.259zm8.64-.385v-1.345h-4.074v-5.283h.96v4.419h.904v-4.42h.835v4.42h.913v-4.42h.951v4.42h.557v2.21h-1.047zm4.037-1.249c-.449 0-.84-.086-1.173-.259a1.923 1.923 0 01-.778-.72 2.17 2.17 0 01-.269-1.096v-1.325c0-.417.09-.779.27-1.086.185-.314.444-.557.777-.73.334-.173.724-.26 1.172-.26.442 0 .827.087 1.153.26.333.173.59.416.769.73.186.307.278.67.278 1.086v.95H66.65v.375c0 .372.09.654.269.846.179.186.445.278.797.278.27 0 .487-.044.653-.134a.641.641 0 00.317-.413h1.182c-.09.454-.333.82-.73 1.095-.39.269-.868.403-1.431.403zm1.037-3.122v-.288c0-.365-.087-.644-.26-.836-.172-.198-.432-.298-.778-.298-.345 0-.608.1-.787.298-.18.199-.27.48-.27.846v.201l2.181-.019-.086.096zm4.662 3.122c-.449 0-.843-.083-1.182-.25a1.924 1.924 0 01-.778-.72c-.186-.314-.279-.682-.279-1.105v-1.325c0-.43.093-.798.279-1.105a1.86 1.86 0 01.778-.711 2.57 2.57 0 011.182-.26c.666 0 1.197.174 1.594.52.398.339.606.803.625 1.392h-1.201c-.02-.275-.118-.487-.298-.634-.173-.153-.413-.23-.72-.23-.32 0-.573.09-.76.269-.185.173-.278.422-.278.749v1.335c0 .327.093.58.279.76.186.179.439.268.759.268.307 0 .547-.073.72-.22.18-.154.279-.369.298-.644h1.2c-.018.589-.227 1.056-.624 1.402-.397.34-.928.51-1.594.51zm5.065-.096V13.35h-1.806v-1.104h4.822v1.104H79.68v4.18h-1.21zm4.153 0v-5.283h2.344c.608 0 1.085.128 1.431.384.352.25.528.596.528 1.037 0 .36-.137.647-.413.865-.269.218-.627.327-1.076.327v-.087c.487 0 .878.115 1.172.346.295.224.442.525.442.903 0 .468-.18.836-.538 1.105-.352.269-.839.403-1.46.403h-2.43zm1.181-.912h1.21c.27 0 .48-.061.635-.183a.593.593 0 00.23-.49.613.613 0 00-.23-.509c-.154-.122-.365-.182-.634-.182h-1.21v1.364zm0-2.171h1.172c.237 0 .426-.058.567-.173a.576.576 0 00.211-.471.576.576 0 00-.211-.47c-.135-.122-.324-.183-.567-.183h-1.172v1.297zm5.363 4.813l.74-2.018-1.97-4.995h1.317l.98 2.7c.05.146.102.326.153.537.052.205.09.375.115.51.032-.135.074-.305.125-.51a5.89 5.89 0 01.154-.538l.922-2.7h1.268l-2.545 7.014h-1.259zm7.842-1.634c-.48 0-.859-.147-1.134-.441-.269-.295-.403-.686-.403-1.172v-.74h-.769v2.257h-1.028v-5.283h1.028v2.2h.769v-.692c0-.48.134-.868.403-1.162.27-.295.647-.442 1.134-.442.493 0 .89.147 1.191.442.307.288.461.675.461 1.162v2.258c0 .486-.154.877-.461 1.172-.308.294-.704.441-1.191.441zm0-.893a.579.579 0 00.451-.192.783.783 0 00.173-.529v-2.257c0-.212-.057-.381-.173-.51a.566.566 0 00-.451-.201.577.577 0 00-.461.202c-.11.128-.164.297-.164.509v2.258c0 .217.055.393.164.528a.59.59 0 00.46.192zm6.487 2.142v-1.345h-4.073v-5.283h.96v4.419h.903v-4.42h.836v4.42h.913v-4.42h.951v4.42h.557v2.21h-1.047zm1.895-1.345v-5.283h1.085v2.603c0 .167-.009.365-.029.596a10.86 10.86 0 01-.057.662c-.026.218-.051.407-.077.567l1.864-4.428h1.479v5.283h-1.085v-2.603c0-.173.006-.365.019-.577l.057-.624a10.8 10.8 0 01.077-.519l-1.854 4.323h-1.479zm5.286 0l1.844-2.728-1.719-2.555h1.354l.817 1.296c.051.077.096.164.134.26l.106.23.106-.23a3.22 3.22 0 01.134-.26l.826-1.296h1.355l-1.72 2.555 1.835 2.728h-1.364l-.913-1.45a2.74 2.74 0 01-.144-.27 3.384 3.384 0 00-.115-.23c-.026.058-.061.135-.106.23a2.372 2.372 0 01-.144.27l-.932 1.45h-1.354zm13.935.096c-.449 0-.843-.083-1.182-.25a1.925 1.925 0 01-.778-.72c-.186-.314-.279-.682-.279-1.105v-1.325c0-.43.093-.798.279-1.105a1.86 1.86 0 01.778-.711c.339-.173.733-.26 1.182-.26.666 0 1.197.174 1.594.52.397.339.606.803.625 1.392h-1.201c-.019-.275-.119-.487-.298-.634-.173-.153-.413-.23-.72-.23-.321 0-.574.09-.759.269-.186.173-.279.422-.279.749v1.335c0 .327.093.58.279.76.185.179.438.268.759.268.307 0 .547-.073.72-.22.179-.154.279-.369.298-.644h1.201c-.019.589-.228 1.056-.625 1.402-.397.34-.928.51-1.594.51zm3.537-.096v-5.283h1.086v2.603c0 .167-.01.365-.029.596a14.138 14.138 0 01-.134 1.23l1.863-4.43h1.48v5.284h-1.086v-2.603c0-.173.007-.365.019-.577l.058-.624c.026-.205.051-.378.077-.519l-1.854 4.323h-1.48zm7.842.096c-.448 0-.842-.083-1.182-.25a1.925 1.925 0 01-.778-.72c-.186-.314-.278-.682-.278-1.105v-1.325c0-.43.092-.798.278-1.105a1.86 1.86 0 01.778-.711c.34-.173.734-.26 1.182-.26.666 0 1.198.174 1.595.52.397.339.605.803.624 1.392h-1.201c-.019-.275-.118-.487-.298-.634-.172-.153-.413-.23-.72-.23-.32 0-.573.09-.759.269-.186.173-.279.422-.279.749v1.335c0 .327.093.58.279.76.186.179.439.268.759.268.307 0 .548-.073.72-.22.18-.154.279-.369.298-.644h1.201c-.019.589-.227 1.056-.624 1.402-.397.34-.929.51-1.595.51zm5.065-.096V13.35h-1.806v-1.104h4.823v1.104h-1.806v4.18h-1.211zm6.305.096c-.449 0-.839-.086-1.172-.259a1.927 1.927 0 01-.779-.72 2.172 2.172 0 01-.269-1.096v-1.325c0-.417.09-.779.269-1.086.186-.314.446-.557.779-.73.333-.173.723-.26 1.172-.26.442 0 .826.087 1.152.26.333.173.59.416.769.73.186.307.279.67.279 1.086v.95h-3.257v.375c0 .372.09.654.269.846.179.186.445.278.797.278.269 0 .487-.044.653-.134a.642.642 0 00.318-.413h1.181c-.09.454-.333.82-.73 1.095-.391.269-.868.403-1.431.403zm1.037-3.122v-.288c0-.365-.086-.644-.259-.836-.173-.198-.433-.298-.778-.298-.346 0-.609.1-.788.298-.179.199-.269.48-.269.846v.201l2.181-.019-.087.096zm2.299 3.026v-5.283h1.441l.653 1.988c.07.218.128.423.173.615.051.192.083.336.096.432l.086-.432c.045-.192.103-.397.173-.615l.625-1.988h1.441v5.283h-1.115v-.903a40.377 40.377 0 01.039-1.71l.038-.893.048-.76-.797 2.739h-1.095l-.826-2.729c.019.27.038.603.057 1a36.14 36.14 0 01.077 2.354v.902h-1.114zm-136.34 19v-5.283h1.085v2.603c0 .167-.01.365-.029.596a11.09 11.09 0 01-.058.662c-.025.218-.05.407-.077.567l1.864-4.428h1.48v5.283h-1.086v-2.603c0-.173.006-.365.02-.576.018-.212.038-.42.057-.625a9.78 9.78 0 01.077-.519l-1.854 4.323h-1.48zm11.379 0v-5.283H30v5.283h-1.2V32.36h-1.865v4.17h-1.2zm5.68 1.73v-7.013h1.172v1.008h.269l-.27.279c0-.43.129-.765.385-1.009.256-.25.602-.375 1.037-.375.532 0 .958.183 1.278.548.32.365.48.855.48 1.47v1.431c0 .41-.073.769-.22 1.076a1.627 1.627 0 01-.606.702c-.262.166-.573.25-.932.25-.435 0-.78-.122-1.037-.366-.256-.25-.384-.589-.384-1.018l.269.279h-.279l.038 1.258v1.48h-1.2zm2.17-2.671c.308 0 .548-.09.721-.27.173-.178.26-.435.26-.768v-1.325c0-.333-.087-.59-.26-.769-.173-.18-.413-.269-.72-.269-.301 0-.538.093-.711.279-.173.179-.26.432-.26.759v1.325c0 .327.087.583.26.769.173.18.41.269.71.269zm5.662 1.028c-.449 0-.84-.084-1.172-.25a1.938 1.938 0 01-.769-.72c-.18-.314-.269-.683-.269-1.105v-1.307c0-.422.09-.787.269-1.095.186-.314.442-.554.769-.72.333-.173.723-.26 1.172-.26.454 0 .845.087 1.172.26.326.166.58.406.758.72.186.308.28.67.28 1.086v1.316c0 .422-.094.79-.28 1.105a1.873 1.873 0 01-.758.72c-.327.166-.718.25-1.172.25zm0-1.047c.32 0 .566-.087.74-.26.179-.18.268-.435.268-.768v-1.307c0-.34-.09-.595-.269-.768-.173-.173-.42-.26-.74-.26-.313 0-.56.087-.74.26-.178.173-.268.429-.268.768v1.307c0 .333.09.589.269.768.18.173.426.26.74.26zm7.207 2.305v-1.345h-3.65v-5.283h1.2v4.178h1.633v-4.178h1.201v4.178h.72v2.45h-1.104zm4.181-1.249c-.448 0-.839-.086-1.172-.259a1.923 1.923 0 01-.778-.72 2.17 2.17 0 01-.269-1.096v-1.325c0-.417.09-.778.27-1.086.185-.314.444-.557.778-.73.332-.173.723-.26 1.171-.26.442 0 .827.087 1.153.26.333.173.59.416.769.73.186.308.278.67.278 1.086v.95H49.58v.375c0 .372.09.654.269.846.18.185.445.278.797.278.27 0 .487-.044.653-.134a.641.641 0 00.317-.413h1.182c-.09.455-.333.82-.73 1.095-.39.269-.868.403-1.431.403zm1.038-3.122v-.288c0-.365-.086-.644-.26-.836-.172-.198-.432-.298-.778-.298-.345 0-.608.1-.787.298-.18.199-.27.48-.27.846v.201l2.181-.019-.086.096zm4.662 3.122c-.449 0-.842-.083-1.182-.25a1.923 1.923 0 01-.778-.72c-.186-.314-.279-.682-.279-1.105v-1.325c0-.43.093-.798.279-1.105.186-.308.445-.545.778-.711a2.57 2.57 0 011.182-.26c.666 0 1.197.174 1.595.52.397.339.605.803.624 1.392h-1.2c-.02-.275-.12-.486-.299-.634-.173-.154-.413-.23-.72-.23-.32 0-.573.09-.76.269-.185.173-.278.422-.278.749v1.335c0 .327.093.58.279.76.186.179.439.268.759.268.307 0 .547-.073.72-.22.18-.154.279-.369.298-.644h1.2c-.018.589-.226 1.056-.623 1.402-.398.34-.93.51-1.595.51zm5.69 0c-.449 0-.843-.083-1.182-.25a1.923 1.923 0 01-.778-.72c-.186-.314-.279-.682-.279-1.105v-1.325c0-.43.093-.798.279-1.105.185-.308.445-.545.778-.711.34-.173.733-.26 1.181-.26.666 0 1.198.174 1.595.52.397.339.605.803.625 1.392h-1.201c-.02-.275-.119-.486-.298-.634-.173-.154-.413-.23-.72-.23-.32 0-.574.09-.76.269-.185.173-.278.422-.278.749v1.335c0 .327.093.58.279.76.185.179.438.268.758.268.308 0 .548-.073.72-.22.18-.154.28-.369.299-.644h1.2c-.019.589-.227 1.056-.624 1.402-.397.34-.928.51-1.595.51zm5.67-.01c-.448 0-.84-.082-1.172-.249a1.938 1.938 0 01-.769-.72c-.179-.314-.269-.683-.269-1.105v-1.307c0-.422.09-.787.27-1.095a1.84 1.84 0 01.768-.72c.333-.173.724-.26 1.172-.26.455 0 .845.087 1.172.26.327.166.58.406.759.72.186.308.278.67.278 1.086v1.316c0 .422-.093.79-.278 1.105-.18.307-.432.547-.76.72-.326.166-.716.25-1.171.25zm0-1.046c.32 0 .567-.087.74-.26.179-.18.269-.435.269-.768v-1.307c0-.34-.09-.595-.27-.768-.172-.173-.419-.26-.74-.26-.313 0-.56.087-.739.26-.18.173-.269.429-.269.768v1.307c0 .333.09.589.27.768.178.173.425.26.739.26zm3.547.96v-5.283h2.344c.609 0 1.086.128 1.432.384.352.25.528.595.528 1.037 0 .36-.138.647-.413.865-.27.218-.628.327-1.076.327v-.087c.487 0 .877.115 1.172.346.295.224.442.525.442.903 0 .468-.18.836-.538 1.105-.352.269-.84.403-1.46.403h-2.43zm1.182-.912h1.21c.27 0 .48-.061.634-.183a.593.593 0 00.23-.49.613.613 0 00-.23-.509c-.153-.122-.365-.182-.634-.182h-1.21v1.364zm0-2.171h1.172c.237 0 .426-.058.567-.173a.576.576 0 00.211-.471.576.576 0 00-.211-.47c-.135-.123-.324-.183-.567-.183h-1.172v1.297zm6.65-.682c-.269 0-.487-.074-.653-.221a.777.777 0 01-.24-.587c0-.243.08-.438.24-.585.166-.148.384-.222.653-.222.27 0 .484.074.644.221.166.148.25.343.25.587a.763.763 0 01-.25.585c-.16.148-.375.222-.644.222zm0 3.861c-.269 0-.487-.073-.653-.22a.758.758 0 01-.24-.587.76.76 0 01.24-.586c.166-.147.384-.22.653-.22.27 0 .484.073.644.22.166.148.25.343.25.586a.744.744 0 01-.25.586c-.16.148-.375.221-.644.221z" fill="#000"/><defs><filter id="filter0_d_2002_11" x=".157" y="0" width="179.685" height="214.685" filterUnits="userSpaceOnUse" color-interpolation-filters="sRGB"><feFlood flood-opacity="0" result="BackgroundImageFix"/><feColorMatrix in="SourceAlpha" values="0 0 0 0 0 0 0 0 0 0 0 0 0 0 0 0 0 0 127 0" result="hardAlpha"/><feOffset dy="3.843"/><feGaussianBlur stdDeviation="1.921"/><feComposite in2="hardAlpha" operator="out"/><feColorMatrix values="0 0 0 0 0 0 0 0 0 0 0 0 0 0 0 0 0 0 0.25 0"/><feBlend in2="BackgroundImageFix" result="effect1_dropShadow_2002_11"/><feBlend in="SourceGraphic" in2="effect1_dropShadow_2002_11" result="shape"/></filter></defs></svg>