<svg width="180" height="262" fill="none" xmlns="http://www.w3.org/2000/svg"><g filter="url(#filter0_d_2002_23)"><rect x="4" width="172" height="254" rx="16.011" fill="#E0F4FF"/></g><mask id="a" style="mask-type:alpha" maskUnits="userSpaceOnUse" x="4" y="0" width="172" height="43"><path fill="#C9D9CD" d="M4 0h172v42.005H4z"/></mask><g mask="url(#a)"><rect x="4" y="-1.68" width="172" height="117.615" rx="16.011" fill="#875C9C"/></g><path d="M16.73 62.58c-.32 0-.582-.1-.787-.299-.199-.205-.298-.467-.298-.788 0-.32.1-.58.298-.778.205-.205.467-.307.788-.307.32 0 .58.102.778.307.205.199.307.458.307.778s-.102.583-.307.788c-.199.199-.458.298-.778.298zm8.61 2.516c-.41 0-.766-.08-1.067-.24a1.667 1.667 0 01-.682-.682c-.16-.301-.24-.657-.24-1.067V59.88c0-.41.08-.763.24-1.057a1.65 1.65 0 01.682-.692c.301-.16.657-.24 1.067-.24.41 0 .762.08 1.056.24.301.16.532.39.692.692.16.294.24.647.24 1.057v3.227c0 .41-.08.766-.24 1.067a1.65 1.65 0 01-.692.682c-.294.16-.647.24-1.056.24zm0-.682c.397 0 .7-.112.912-.336.212-.23.317-.554.317-.97V59.88c0-.417-.109-.737-.326-.961-.212-.23-.513-.346-.903-.346-.391 0-.695.115-.913.346-.212.224-.317.544-.317.96v3.229c0 .416.105.74.317.97.218.224.522.336.913.336zm5.69.682c-.616 0-1.1-.183-1.452-.547-.352-.366-.528-.868-.528-1.509v-2.46c0-.832.208-1.472.625-1.92.416-.449 1.011-.673 1.786-.673h1.307v.759h-1.307c-.537 0-.947.16-1.23.48-.281.314-.422.766-.422 1.355v.663h.135l-.135.23c.006-.384.135-.685.384-.903.256-.218.606-.326 1.047-.326.564 0 1 .179 1.307.538.307.352.461.845.461 1.48v.777c0 .43-.08.798-.24 1.105a1.64 1.64 0 01-.672.71c-.295.161-.65.241-1.067.241zm0-.682c.39 0 .69-.118.902-.356.212-.236.317-.576.317-1.018v-.778c0-.435-.105-.775-.317-1.018-.211-.244-.512-.365-.903-.365-.39 0-.692.121-.903.365-.211.243-.317.583-.317 1.018v.778c0 .442.106.782.317 1.018.218.237.519.356.903.356zm4.574 2.315l.779-2.065-1.96-4.948h.845l1.249 3.295c.051.128.1.273.144.433.051.153.09.281.115.384.032-.103.07-.234.116-.394.044-.16.09-.304.134-.432l1.172-3.286h.817L36.41 66.73h-.807zM43.532 65v-1.95a4.197 4.197 0 01-.48.077 8.45 8.45 0 01-.73.029c-.634.006-1.127-.151-1.48-.471-.345-.32-.518-.772-.518-1.355v-1.614h.759v1.614c0 .359.109.638.326.836.224.199.541.298.951.298.295 0 .545-.01.75-.029.205-.026.346-.048.422-.067v-2.652h.76V65h-.76zm2.626 0v-5.284h.74v3.007c0 .18-.007.372-.02.577a14.568 14.568 0 01-.067 1.018l2.238-4.602h.99V65h-.74v-3.007c0-.186.003-.378.01-.576.012-.199.025-.388.038-.567.02-.186.032-.34.038-.461L47.137 65h-.98zm5.017.067v-.72h.192c.275 0 .477-.112.605-.337.128-.23.195-.611.202-1.143l.067-3.15h3.487V65h-.768v-4.592h-1.97l-.057 2.488c-.007.5-.068.91-.183 1.23-.109.32-.275.557-.5.71-.217.154-.502.231-.854.231h-.221zM57.537 65v-5.284h.74v3.007c0 .18-.007.372-.02.577a14.568 14.568 0 01-.067 1.018l2.239-4.602h.989V65h-.74v-3.007c0-.186.004-.378.01-.576l.038-.567c.02-.186.032-.34.039-.461L58.517 65h-.98zm11.408 0v-5.284h.769v2.22h.999l1.566-2.22h.874l-1.778 2.517L73.192 65h-.893l-1.585-2.402h-1V65h-.768zm7.601.087c-.41 0-.765-.08-1.066-.24a1.697 1.697 0 01-.701-.692c-.167-.301-.25-.657-.25-1.067v-1.46c0-.416.083-.772.25-1.066.166-.301.4-.532.701-.692.301-.16.656-.24 1.066-.24.41 0 .766.08 1.067.24.3.16.534.39.701.692.167.294.25.647.25 1.056v1.47c0 .41-.083.766-.25 1.067-.166.3-.4.531-.701.691-.301.16-.657.24-1.067.24zm0-.683c.397 0 .705-.112.923-.336.217-.224.326-.55.326-.98v-1.46c0-.43-.112-.756-.336-.98-.218-.224-.522-.336-.913-.336-.39 0-.698.112-.922.336-.218.224-.326.55-.326.98v1.46c0 .43.108.756.326.98.224.224.532.336.922.336zm3.75.596v-5.284h.768v2.248h2.344v-2.248h.769V65h-.769v-2.344h-2.344V65h-.768zm7.64.096c-.41 0-.77-.08-1.077-.24a1.761 1.761 0 01-.72-.682c-.167-.301-.25-.657-.25-1.067V61.61c0-.41.083-.762.25-1.057.173-.3.413-.532.72-.692a2.3 2.3 0 011.076-.24c.602 0 1.086.163 1.45.49.366.327.555.772.568 1.336h-.76c-.012-.366-.13-.647-.355-.846-.217-.198-.518-.298-.903-.298-.39 0-.701.116-.932.346-.23.224-.345.544-.345.96v1.5c0 .41.115.73.345.96.231.23.542.346.932.346.385 0 .686-.1.903-.298.225-.205.343-.487.356-.845h.759c-.013.563-.202 1.008-.567 1.335-.365.327-.849.49-1.45.49zM92.5 66.73l.778-2.065-1.96-4.948h.846l1.249 3.295c.05.128.099.273.144.433.05.153.09.281.115.384.032-.103.07-.234.115-.394s.09-.304.135-.432l1.172-3.286h.816l-2.603 7.013H92.5zm4.191-1.662v-.72h.192c.275 0 .477-.112.605-.337.128-.23.196-.611.202-1.143l.067-3.15h3.488V65h-.769v-4.592h-1.97l-.057 2.488c-.006.5-.067.91-.183 1.23-.108.32-.275.557-.5.71-.217.154-.502.231-.854.231h-.221zm6.41-.067v-5.284h.759v1.94h1.585c.589 0 1.054.151 1.393.452.346.295.519.702.519 1.22 0 .513-.173.92-.519 1.22-.339.302-.804.452-1.393.452h-2.344zm.759-.692h1.585c.365 0 .644-.083.836-.25.192-.172.288-.416.288-.73 0-.313-.096-.554-.288-.72-.192-.173-.471-.26-.836-.26h-1.585v1.96zm6.44.691v-4.602h-1.921v-.682h4.611v.682h-1.921V65h-.769zm5.661.096c-.557 0-.996-.14-1.316-.423-.32-.288-.481-.675-.481-1.162 0-.48.157-.858.471-1.134.314-.281.737-.422 1.268-.422h1.681v-.557c0-.353-.102-.625-.307-.817-.205-.192-.496-.288-.874-.288-.333 0-.612.073-.836.22a.818.818 0 00-.375.596h-.768c.064-.454.275-.816.634-1.085.365-.27.82-.404 1.364-.404.589 0 1.057.16 1.403.48.345.314.518.74.518 1.278V65h-.749v-1.028h-.125l.144-.154c0 .391-.15.702-.451.932-.301.23-.702.346-1.201.346zm.182-.615c.423 0 .769-.105 1.038-.317a1 1 0 00.403-.826v-.797h-1.671c-.301 0-.541.083-.721.25-.179.166-.269.393-.269.681 0 .308.109.554.327.74.218.18.516.27.893.27zm3.98.519v-5.284h.769v2.248h2.344v-2.248h.768V65h-.768v-2.344h-2.344V65h-.769zm7.246 0v-4.602h-1.921v-.682h4.611v.682h-1.921V65h-.769zm6.074.087c-.41 0-.765-.08-1.066-.24a1.702 1.702 0 01-.702-.692c-.166-.301-.25-.657-.25-1.067v-1.46c0-.416.084-.772.25-1.066.167-.301.401-.532.702-.692.301-.16.656-.24 1.066-.24.41 0 .765.08 1.066.24.301.16.535.39.702.692.166.294.249.647.249 1.056v1.47c0 .41-.083.766-.249 1.067a1.702 1.702 0 01-.702.691c-.301.16-.656.24-1.066.24zm0-.683c.397 0 .704-.112.922-.336.218-.224.327-.55.327-.98v-1.46c0-.43-.112-.756-.336-.98-.218-.224-.522-.336-.913-.336s-.698.112-.922.336c-.218.224-.327.55-.327.98v1.46c0 .43.109.756.327.98.224.224.531.336.922.336zm3.749.596v-5.284h2.267c.525 0 .938.125 1.239.375.301.243.452.583.452 1.018 0 .365-.125.66-.375.884-.243.218-.57.327-.98.327v-.068c.442 0 .798.116 1.067.346.269.224.403.526.403.903 0 .468-.16.836-.48 1.105-.314.263-.749.394-1.307.394h-2.286zm.749-.672h1.537c.314 0 .564-.074.75-.221a.76.76 0 00.278-.615c0-.27-.093-.477-.278-.625-.186-.153-.436-.23-.75-.23h-1.537v1.69zm0-2.354h1.518c.282 0 .506-.07.673-.211a.703.703 0 00.259-.577.703.703 0 00-.259-.576c-.167-.148-.391-.221-.673-.221h-1.518v1.585zM23.428 84v-5.284h.768v2.22h1l1.565-2.22h.875l-1.778 2.517L27.674 84h-.893l-1.586-2.402h-.999V84h-.768zm7.188.096c-.557 0-.996-.14-1.316-.423-.32-.288-.48-.675-.48-1.162 0-.48.157-.858.47-1.134.314-.281.737-.422 1.268-.422h1.682v-.558c0-.352-.103-.624-.308-.816-.205-.192-.496-.288-.874-.288-.333 0-.612.073-.836.22a.819.819 0 00-.375.596h-.768c.064-.454.275-.816.634-1.085.365-.27.82-.404 1.364-.404.59 0 1.057.16 1.403.48.346.314.519.74.519 1.278V84h-.75v-1.028h-.125l.144-.154c0 .391-.15.702-.451.932-.301.23-.701.346-1.201.346zm.183-.615c.422 0 .768-.105 1.037-.317a1 1 0 00.404-.826v-.797h-1.672c-.301 0-.541.083-.72.25-.18.166-.27.393-.27.681 0 .308.11.555.327.74.218.18.516.27.894.27zm4.008.519v-5.284h.769v2.22h.999l1.566-2.22h.874l-1.778 2.517L39.053 84h-.893l-1.585-2.402h-1V84h-.768zm13.291.087c-.41 0-.765-.08-1.066-.24a1.697 1.697 0 01-.701-.692c-.167-.301-.25-.657-.25-1.067v-1.46c0-.416.083-.772.25-1.066.166-.301.4-.532.7-.692.302-.16.657-.24 1.067-.24.41 0 .765.08 1.066.24.301.16.535.39.702.692.166.294.25.647.25 1.056v1.47c0 .41-.084.766-.25 1.067a1.7 1.7 0 01-.702.691c-.3.16-.656.24-1.066.24zm0-.683c.397 0 .705-.112.922-.336.218-.224.327-.55.327-.98v-1.46c0-.43-.112-.756-.336-.98-.218-.224-.522-.336-.913-.336-.39 0-.698.112-.922.336-.218.224-.327.55-.327.98v1.46c0 .43.11.756.327.98.224.224.531.336.922.336zm3.75.596v-5.284h.768v2.248h2.344v-2.248h.768V84h-.768v-2.344h-2.344V84h-.769zm5.016.067v-.72h.193c.275 0 .477-.112.605-.337.128-.23.195-.611.202-1.143l.067-3.15h3.487V84h-.769v-4.592H58.68l-.058 2.488c-.006.5-.067.91-.182 1.23-.109.32-.276.557-.5.71-.217.154-.502.231-.855.231h-.22zm7.89.03c-.557 0-.996-.142-1.316-.424-.32-.288-.48-.675-.48-1.162 0-.48.156-.858.47-1.134.314-.281.737-.422 1.268-.422h1.681v-.558c0-.352-.102-.624-.307-.816-.205-.192-.496-.288-.874-.288-.333 0-.612.073-.836.22a.819.819 0 00-.375.596h-.768c.064-.454.275-.816.634-1.085.365-.27.82-.404 1.364-.404.59 0 1.057.16 1.403.48.346.314.518.74.518 1.278V84h-.749v-1.028h-.125l.144-.154c0 .391-.15.702-.451.932-.301.23-.701.346-1.201.346zm.182-.616c.423 0 .769-.105 1.038-.317.269-.211.403-.487.403-.826v-.797h-1.671c-.301 0-.541.083-.72.25-.18.166-.27.393-.27.681 0 .308.11.555.327.74.218.18.516.27.893.27zm3.98.519v-5.284h.74v3.007c0 .18-.007.372-.02.577a14.561 14.561 0 01-.067 1.018l2.239-4.602h.99V84h-.74v-3.007c0-.186.003-.378.01-.576.012-.199.025-.388.038-.567a9.26 9.26 0 00.038-.461L69.896 84h-.98zm1.98-6.158c-.456 0-.82-.125-1.096-.375-.269-.256-.403-.592-.403-1.008h.614c0 .262.077.474.23.634.161.16.376.24.644.24.276 0 .494-.08.654-.24.16-.16.24-.372.24-.634h.615c0 .416-.138.752-.413 1.008-.27.25-.631.375-1.086.375zM74.605 84v-5.284h.768v2.248h2.344v-2.248h.769V84h-.769v-2.344h-2.344V84h-.768zm6.4 1.537l.75-2.988h1.153l-1.24 2.988h-.663zM93.231 84v-4.602H91.31v-.682h4.61v.682H94V84h-.769zm5.66.096c-.556 0-.995-.14-1.315-.423-.32-.288-.48-.675-.48-1.162 0-.48.156-.858.47-1.134.314-.281.737-.422 1.268-.422h1.681v-.558c0-.352-.102-.624-.307-.816-.205-.192-.496-.288-.874-.288-.333 0-.612.073-.836.22a.819.819 0 00-.375.596h-.768c.064-.454.275-.816.634-1.085.365-.27.82-.404 1.364-.404.59 0 1.057.16 1.403.48.345.314.518.74.518 1.278V84h-.749v-1.028h-.125l.144-.154c0 .391-.15.702-.451.932-.301.23-.702.346-1.201.346zm.183-.615c.423 0 .769-.105 1.038-.317.269-.211.403-.487.403-.826v-.797h-1.671c-.301 0-.541.083-.72.25-.18.166-.27.393-.27.681 0 .308.11.555.327.74.218.18.516.27.893.27zm4.009.519v-5.284h.768v2.22h1l1.565-2.22h.875l-1.778 2.517L107.329 84h-.893l-1.585-2.402h-1V84h-.768zm11.35 0v-5.284h.74v3.007c0 .18-.006.372-.019.577a15.389 15.389 0 01-.067 1.018l2.238-4.602h.99V84h-.74v-3.007c0-.186.003-.378.009-.576l.039-.567a9.26 9.26 0 00.038-.461L115.413 84h-.98zm11.38 0v-5.284h2.267c.525 0 .938.125 1.239.375.301.243.452.583.452 1.018 0 .365-.125.66-.375.884-.243.218-.57.327-.98.327v-.067c.442 0 .797.115 1.066.345.269.225.404.526.404.903 0 .468-.16.836-.48 1.105-.314.263-.75.394-1.307.394h-2.286zm.749-.672h1.537c.314 0 .564-.074.749-.221a.757.757 0 00.279-.615c0-.27-.093-.477-.279-.625-.185-.153-.435-.23-.749-.23h-1.537v1.69zm0-2.354h1.518c.282 0 .506-.07.672-.212a.704.704 0 00.26-.576.704.704 0 00-.26-.576c-.166-.148-.39-.221-.672-.221h-1.518v1.585zM25.34 103.086c-.41 0-.766-.08-1.067-.24a1.695 1.695 0 01-.701-.691c-.167-.301-.25-.657-.25-1.067v-1.46c0-.416.083-.772.25-1.066.166-.301.4-.532.701-.692.301-.16.657-.24 1.067-.24.41 0 .765.08 1.066.24.3.16.535.39.701.692.167.294.25.647.25 1.056v1.47c0 .41-.083.766-.25 1.067-.166.301-.4.531-.701.691-.301.16-.657.24-1.066.24zm0-.682c.397 0 .704-.112.922-.336.218-.224.326-.551.326-.98v-1.46c0-.43-.112-.756-.336-.98-.218-.224-.522-.336-.912-.336-.391 0-.699.112-.923.336-.218.224-.326.55-.326.98v1.46c0 .429.108.756.326.98.224.224.532.336.922.336zm5.343 2.325V103c-.614 0-1.098-.173-1.45-.519-.353-.346-.529-.82-.529-1.422v-1.421c0-.596.176-1.064.529-1.403.358-.346.842-.519 1.45-.519v-1.729h.692v1.73c.615 0 1.098.172 1.45.518.353.34.529.807.529 1.403v1.421c0 .602-.176 1.076-.528 1.422-.353.346-.836.519-1.451.519v1.729h-.692zm.02-2.344v-4.054c-.404 0-.721.115-.952.346-.224.224-.336.544-.336.96v1.422c0 .417.112.743.336.98.231.231.548.346.951.346zm.653 0c.41 0 .727-.115.95-.346.225-.237.337-.563.337-.98v-1.421c0-.417-.112-.737-.336-.961-.224-.23-.541-.346-.951-.346v4.054zm5.017 2.344V103c-.615 0-1.098-.173-1.45-.519-.353-.346-.529-.82-.529-1.422v-1.421c0-.596.176-1.064.528-1.403.359-.346.843-.519 1.45-.519v-1.729h.693v1.73c.614 0 1.098.172 1.45.518.352.34.529.807.529 1.403v1.421c0 .602-.176 1.076-.529 1.422-.352.346-.836.519-1.45.519v1.729h-.692zm.02-2.344v-4.054c-.404 0-.721.115-.952.346-.224.224-.336.544-.336.96v1.422c0 .417.112.743.336.98.23.231.548.346.951.346zm.652 0c.41 0 .727-.115.951-.346.225-.237.337-.563.337-.98v-1.421c0-.417-.112-.737-.337-.961-.224-.23-.54-.346-.95-.346v4.054zm2.75.682v-.72h.192c.276 0 .478-.112.606-.336.128-.231.195-.612.201-1.144l.068-3.15h3.487V103h-.768v-4.592h-1.97l-.058 2.488c-.006.5-.067.91-.182 1.23-.109.32-.276.557-.5.711-.217.153-.502.23-.855.23h-.22zm7.89.029c-.557 0-.996-.141-1.316-.423-.32-.288-.48-.675-.48-1.162 0-.48.156-.858.47-1.134.314-.281.737-.422 1.268-.422h1.681v-.558c0-.352-.102-.624-.307-.816-.205-.192-.496-.288-.874-.288-.333 0-.612.073-.836.22a.819.819 0 00-.374.596h-.77c.065-.454.276-.816.635-1.085.365-.27.82-.404 1.364-.404.59 0 1.057.16 1.403.48.346.314.519.74.519 1.278V103h-.75v-1.028h-.125l.144-.154c0 .391-.15.702-.451.932-.301.231-.701.346-1.201.346zm.182-.615c.423 0 .77-.105 1.038-.317.269-.211.404-.487.404-.826v-.797h-1.672c-.301 0-.541.083-.72.249-.18.167-.27.394-.27.683 0 .307.11.554.327.739.218.18.516.269.894.269zm3.98.519v-5.284h.74v3.007c0 .18-.007.372-.02.577a14.544 14.544 0 01-.067 1.018l2.239-4.602h.99V103h-.74v-3.007c0-.186.003-.378.01-.576.012-.199.025-.388.038-.567a9.26 9.26 0 00.038-.461L52.827 103h-.98zm1.98-6.158c-.456 0-.82-.125-1.096-.375-.269-.256-.404-.592-.404-1.008h.615c0 .262.077.474.23.634.161.16.376.24.645.24.275 0 .493-.08.653-.24.16-.16.24-.372.24-.634h.615c0 .416-.138.752-.413 1.008-.27.25-.631.375-1.086.375zm3.71 6.158v-5.284h.768v2.248h2.344v-2.248h.769V103h-.769v-2.344h-2.344V103h-.768zm6.093-2.834v-.672h3.074v.672H63.63zM68.743 103v-5.284H69.8l.769 2.152c.064.186.124.375.182.567.058.192.1.343.125.452.032-.109.074-.26.125-.452.057-.192.118-.384.182-.576l.74-2.143h1.047V103h-.74v-1.268c0-.275.004-.57.01-.884l.02-.941c.006-.314.015-.609.028-.884.013-.282.023-.529.029-.74l-1.047 3.132h-.807l-1.047-3.113c.013.256.022.58.029.97l.019 1.221c.013.429.019.842.019 1.239V103h-.74zm7.39.096c-.557 0-.996-.141-1.316-.423-.32-.288-.48-.675-.48-1.162 0-.48.157-.858.47-1.134.314-.281.737-.422 1.269-.422h1.68v-.558c0-.352-.102-.624-.307-.816-.204-.192-.496-.288-.874-.288-.333 0-.611.073-.836.22a.819.819 0 00-.374.596h-.769c.064-.454.276-.816.634-1.085.365-.27.82-.404 1.364-.404.59 0 1.057.16 1.403.48.346.314.519.74.519 1.278V103h-.75v-1.028h-.125l.145-.154c0 .391-.15.702-.452.932-.3.231-.701.346-1.2.346zm.183-.615c.422 0 .768-.105 1.037-.317a1 1 0 00.404-.826v-.797h-1.672c-.3 0-.54.083-.72.249-.18.167-.27.394-.27.683 0 .307.11.554.327.739.218.18.516.269.894.269zm4.325.519v-5.284h3.747v.692H81.4V103h-.759zm6.872.096c-.558 0-.996-.141-1.317-.423-.32-.288-.48-.675-.48-1.162 0-.48.157-.858.47-1.134.315-.281.737-.422 1.269-.422h1.681v-.558c0-.352-.102-.624-.307-.816-.205-.192-.497-.288-.874-.288-.334 0-.612.073-.836.22a.82.82 0 00-.375.596h-.769c.065-.454.276-.816.635-1.085.365-.27.82-.404 1.364-.404.589 0 1.056.16 1.402.48.346.314.52.74.52 1.278V103h-.75v-1.028h-.125l.144-.154c0 .391-.15.702-.452.932-.3.231-.7.346-1.2.346zm.182-.615c.423 0 .769-.105 1.038-.317.269-.211.403-.487.403-.826v-.797h-1.671c-.302 0-.542.083-.721.249-.18.167-.269.394-.269.683 0 .307.109.554.327.739.217.18.515.269.893.269zm5.67.596c-.55 0-.995-.119-1.335-.356a1.43 1.43 0 01-.615-.96h.798c.051.185.176.339.374.461.205.115.465.173.779.173h.47c.327 0 .583-.08.769-.24a.794.794 0 00.288-.625.848.848 0 00-.269-.653c-.18-.167-.435-.25-.768-.25h-1.182v-.663h1.162c.301 0 .532-.077.692-.23a.774.774 0 00.25-.596.793.793 0 00-.116-.432.728.728 0 00-.336-.279 1.166 1.166 0 00-.509-.106h-.5c-.288 0-.525.065-.71.193a.76.76 0 00-.346.47h-.798c.065-.397.26-.72.586-.97.333-.25.756-.375 1.268-.375h.5c.359 0 .67.061.932.183a1.4 1.4 0 01.605.51c.147.217.221.473.221.768 0 .32-.1.586-.298.797-.192.205-.464.32-.816.346v.038c.422.026.733.151.932.375.198.218.297.519.297.903 0 .455-.17.823-.509 1.105-.333.275-.781.413-1.345.413h-.47zm4-.077v-5.284h.74v3.007c0 .18-.007.372-.02.577a14.544 14.544 0 01-.067 1.018l2.238-4.602h.99V103h-.74v-3.007c0-.186.003-.378.009-.576l.039-.567a9.26 9.26 0 00.038-.461L98.344 103h-.98zm5.689 0v-5.284h.769v2.248h2.344v-2.248h.768V103h-.768v-2.344h-2.344V103h-.769zm7.63.096c-.41 0-.765-.08-1.066-.24a1.758 1.758 0 01-.701-.701 2.124 2.124 0 01-.25-1.048v-1.498c0-.404.083-.753.25-1.047.166-.301.4-.532.701-.692.301-.166.656-.25 1.066-.25.41 0 .766.084 1.067.25.301.16.534.39.701.692.166.294.25.643.25 1.047v.932h-3.286v.566c0 .43.109.763.327 1 .224.23.538.345.941.345.34 0 .615-.067.826-.201a.893.893 0 00.414-.586h.759a1.534 1.534 0 01-.644 1.047c-.359.256-.81.384-1.355.384zm1.268-3.064v-.423c0-.43-.108-.76-.326-.99-.218-.237-.532-.355-.942-.355-.403 0-.717.118-.941.355-.218.23-.327.56-.327.99v.336h2.613l-.077.087zm4.422 3.064c-.237 0-.426-.067-.567-.202a.775.775 0 01-.202-.557c0-.243.068-.435.202-.576.141-.141.33-.212.567-.212.237 0 .423.071.557.212.141.141.211.333.211.576 0 .231-.07.416-.211.557-.134.135-.32.202-.557.202zm-99.643 17.483c-.32 0-.583-.099-.788-.298-.199-.205-.298-.467-.298-.787 0-.321.1-.58.298-.779.205-.205.467-.307.788-.307.32 0 .58.102.778.307.205.199.307.458.307.779 0 .32-.102.582-.307.787-.199.199-.458.298-.778.298zm8.253 2.661v-.672c-.397 0-.746-.08-1.047-.24a1.803 1.803 0 01-.692-.692c-.16-.301-.24-.65-.24-1.047v-2.296c0-.41.08-.766.24-1.067.16-.301.388-.534.682-.701.301-.166.654-.25 1.057-.25v-.672h.71v.672c.404 0 .754.084 1.048.25.301.167.532.4.692.701.16.301.24.657.24 1.067v2.296c0 .397-.083.746-.25 1.047-.16.294-.387.525-.682.692-.294.16-.644.24-1.047.24v.672h-.711zm0-1.326v-4.985c-.256 0-.48.057-.672.172-.186.109-.33.266-.433.471a1.558 1.558 0 00-.154.721v2.296c0 .269.052.502.154.701.103.199.247.352.433.461.192.109.416.163.672.163zm.71 0c.264 0 .488-.054.673-.163.186-.109.33-.262.433-.461a1.51 1.51 0 00.153-.701v-2.296c0-.282-.05-.522-.153-.721a1.103 1.103 0 00-.433-.471 1.253 1.253 0 00-.672-.172v4.985zm5.335 1.172c-.41 0-.765-.08-1.066-.24a1.695 1.695 0 01-.701-.691c-.167-.301-.25-.657-.25-1.067v-1.46c0-.416.083-.772.25-1.066.166-.301.4-.532.7-.692.302-.16.657-.24 1.067-.24.41 0 .765.08 1.067.24.3.16.534.391.7.692.167.294.25.647.25 1.056v1.47c0 .41-.083.766-.25 1.067-.166.301-.4.531-.7.691-.301.16-.657.24-1.067.24zm0-.682c.397 0 .705-.112.922-.336.218-.224.327-.551.327-.98v-1.46c0-.429-.112-.756-.336-.98-.218-.224-.522-.336-.913-.336-.39 0-.698.112-.922.336-.218.224-.327.551-.327.98v1.46c0 .429.11.756.327.98.224.224.532.336.922.336zm3.778.596v-5.284h.769v2.219h.999l1.566-2.219h.874l-1.778 2.517L39.053 123h-.893l-1.585-2.402h-1V123h-.768zm6.487 1.729l.778-2.065-1.96-4.948h.846l1.249 3.295c.05.128.099.273.144.433.051.153.09.282.115.384.032-.102.07-.234.115-.394s.09-.304.135-.432l1.172-3.286h.817l-2.604 7.013h-.807zm6.814-1.633a2.3 2.3 0 01-1.076-.24 1.765 1.765 0 01-.72-.682c-.167-.301-.25-.657-.25-1.067v-1.498c0-.41.083-.762.25-1.057a1.75 1.75 0 01.72-.692 2.3 2.3 0 011.076-.24c.602 0 1.085.164 1.45.49.365.327.554.772.567 1.336h-.759c-.013-.366-.131-.647-.355-.846-.218-.198-.519-.298-.903-.298-.391 0-.702.116-.932.346-.23.224-.346.545-.346.961v1.498c0 .41.115.731.346.961.23.231.541.346.932.346.384 0 .685-.099.903-.298.224-.205.342-.487.355-.845h.76c-.014.563-.203 1.008-.568 1.335-.365.327-.848.49-1.45.49zm9.429-.096v-5.284h.768v2.248h2.344v-2.248h.769V123h-.769v-2.344h-2.344V123h-.768zm7.217.096c-.557 0-.996-.141-1.316-.423-.32-.288-.48-.675-.48-1.162 0-.48.156-.858.47-1.134.314-.281.737-.422 1.268-.422h1.681v-.558c0-.352-.102-.624-.307-.816-.205-.192-.496-.288-.874-.288-.333 0-.612.073-.836.221a.817.817 0 00-.375.595h-.768a1.58 1.58 0 01.634-1.085c.365-.269.82-.404 1.364-.404.59 0 1.057.16 1.403.481.346.313.518.739.518 1.277V123h-.749v-1.028h-.125l.144-.154c0 .391-.15.702-.451.932-.301.231-.701.346-1.201.346zm.182-.615c.423 0 .769-.105 1.038-.317.269-.211.403-.487.403-.826v-.797h-1.671c-.301 0-.541.083-.72.249-.18.167-.27.394-.27.683 0 .307.11.554.327.739.218.18.516.269.893.269zM23.4 142v-5.284h3.881V142h-.768v-4.592h-2.345V142H23.4zm7.63.096c-.41 0-.765-.08-1.066-.24a1.762 1.762 0 01-.701-.701 2.13 2.13 0 01-.25-1.048v-1.498c0-.404.083-.753.25-1.047.166-.301.4-.532.7-.692.302-.167.657-.25 1.067-.25.41 0 .765.083 1.067.25.3.16.534.391.7.692.167.294.25.643.25 1.047v.932h-3.285v.566c0 .43.109.763.327 1 .224.23.538.345.941.345.34 0 .615-.067.826-.201a.892.892 0 00.413-.586h.76a1.537 1.537 0 01-.644 1.047c-.359.256-.81.384-1.355.384zm1.268-3.064v-.423c0-.429-.109-.759-.326-.99-.218-.237-.532-.355-.942-.355-.403 0-.717.118-.941.355-.218.231-.327.561-.327.99v.336h2.613l-.077.087zm2.472 4.697v-7.013h.759v.932h.201l-.23.317c0-.416.134-.743.403-.98.276-.243.637-.365 1.086-.365.531 0 .954.176 1.268.529.32.345.48.819.48 1.421v1.566c0 .404-.073.753-.22 1.047a1.641 1.641 0 01-.616.673c-.256.16-.56.24-.912.24-.442 0-.8-.122-1.076-.365s-.413-.57-.413-.98l.201.317h-.182l.01 1.076v1.585h-.76zm1.979-2.296c.384 0 .682-.115.893-.346.218-.23.327-.557.327-.98v-1.498c0-.429-.11-.756-.327-.98-.211-.231-.51-.346-.893-.346-.372 0-.67.119-.894.356-.218.23-.326.554-.326.97v1.498c0 .417.108.743.326.98.224.231.522.346.894.346zm5.67.663a2.3 2.3 0 01-1.076-.24 1.764 1.764 0 01-.72-.682c-.167-.301-.25-.657-.25-1.067v-1.498c0-.41.083-.762.25-1.057a1.75 1.75 0 01.72-.692 2.3 2.3 0 011.076-.24c.602 0 1.086.164 1.45.49.366.327.555.772.567 1.336h-.759c-.012-.366-.13-.647-.355-.846-.218-.198-.519-.298-.903-.298-.39 0-.701.116-.932.346-.23.224-.346.545-.346.961v1.498c0 .41.116.731.346.961.23.231.541.346.932.346.384 0 .685-.099.903-.298.224-.205.343-.487.355-.845h.76c-.013.563-.202 1.008-.567 1.335-.365.327-.849.49-1.451.49zm5.68-.01c-.41 0-.765-.08-1.066-.24a1.695 1.695 0 01-.701-.691c-.167-.301-.25-.657-.25-1.067v-1.46c0-.416.083-.772.25-1.066.166-.301.4-.532.7-.692.302-.16.657-.24 1.067-.24.41 0 .765.08 1.066.24.301.16.535.391.702.692.166.294.25.647.25 1.056v1.47c0 .41-.084.766-.25 1.067-.167.301-.4.531-.702.691-.3.16-.656.24-1.066.24zm0-.682c.397 0 .705-.112.922-.336.218-.224.327-.551.327-.98v-1.46c0-.429-.112-.756-.336-.98-.218-.224-.522-.336-.913-.336-.39 0-.698.112-.922.336-.218.224-.327.551-.327.98v1.46c0 .429.11.756.327.98.224.224.531.336.922.336zm3.75.596v-5.284h.768v2.248h2.344v-2.248h.768V142h-.768v-2.344h-2.344V142h-.769zm7.216.096c-.557 0-.996-.141-1.316-.423-.32-.288-.48-.675-.48-1.162 0-.48.157-.858.47-1.134.314-.281.737-.422 1.269-.422h1.68v-.558c0-.352-.102-.624-.307-.816-.205-.192-.496-.288-.874-.288-.333 0-.611.073-.836.221a.817.817 0 00-.374.595h-.769a1.58 1.58 0 01.634-1.085c.365-.269.82-.404 1.364-.404.59 0 1.057.16 1.403.481.346.313.519.739.519 1.277V142h-.75v-1.028h-.124l.144-.154c0 .391-.15.702-.452.932-.3.231-.701.346-1.2.346zm.183-.615c.422 0 .768-.105 1.037-.317a1 1 0 00.404-.826v-.797h-1.672c-.3 0-.54.083-.72.249-.18.167-.27.394-.27.683 0 .307.11.554.327.739.218.18.516.269.894.269zm3.307.586v-.72h.192c.276 0 .477-.112.605-.336.129-.231.196-.612.202-1.144l.067-3.151h3.488V142h-.769v-4.592h-1.97l-.057 2.488c-.006.5-.067.91-.183 1.23-.108.32-.275.557-.499.711-.218.153-.503.23-.855.23h-.221zm6.362-.067v-5.284h.74v3.007c0 .18-.007.372-.02.577a14.538 14.538 0 01-.067 1.018l2.239-4.602h.99V142h-.74v-3.007c0-.186.003-.378.01-.576.012-.199.025-.388.038-.567a9.26 9.26 0 00.038-.461L69.896 142h-.98zm7.38.077c-.55 0-.995-.119-1.335-.356a1.43 1.43 0 01-.615-.96h.798c.051.185.176.339.374.461.205.115.465.173.779.173h.47c.327 0 .583-.08.769-.24a.794.794 0 00.288-.625.849.849 0 00-.269-.653c-.18-.167-.435-.25-.769-.25h-1.181v-.663h1.162c.301 0 .532-.077.692-.23a.776.776 0 00.25-.596.79.79 0 00-.115-.432.726.726 0 00-.337-.279 1.174 1.174 0 00-.509-.105h-.5c-.288 0-.525.064-.71.192a.758.758 0 00-.346.47h-.797c.064-.397.259-.72.586-.97.333-.25.755-.375 1.268-.375h.5c.358 0 .668.061.931.183.262.122.464.291.605.509.148.218.221.474.221.769 0 .32-.1.586-.298.797-.192.205-.464.32-.816.346v.038c.422.026.733.151.932.375.198.218.297.519.297.903 0 .455-.17.823-.509 1.105-.333.275-.781.413-1.345.413h-.47zm4-.077v-5.284h.74v3.007c0 .18-.007.372-.02.577a14.544 14.544 0 01-.067 1.018l2.238-4.602h.99V142h-.74v-3.007c0-.186.003-.378.01-.576.012-.199.025-.388.038-.567.02-.186.032-.34.038-.461L81.275 142h-.98zm5.68 1.729v-7.013h.758v.932h.202l-.23.317c0-.416.134-.743.403-.98.276-.243.637-.365 1.086-.365.531 0 .954.176 1.268.529.32.345.48.819.48 1.421v1.566c0 .404-.074.753-.22 1.047a1.641 1.641 0 01-.616.673c-.256.16-.56.24-.912.24-.442 0-.8-.122-1.076-.365s-.413-.57-.413-.98l.201.317h-.182l.01 1.076v1.585h-.76zm1.978-2.296c.385 0 .683-.115.894-.346.218-.23.327-.557.327-.98v-1.498c0-.429-.11-.756-.327-.98-.211-.231-.51-.346-.894-.346-.371 0-.669.119-.893.356-.218.23-.327.554-.327.97v1.498c0 .417.11.743.327.98.224.231.522.346.893.346zm5.661.653c-.41 0-.765-.08-1.066-.24a1.695 1.695 0 01-.701-.691c-.167-.301-.25-.657-.25-1.067v-1.46c0-.416.083-.772.25-1.066.166-.301.4-.532.701-.692.301-.16.656-.24 1.066-.24.41 0 .766.08 1.067.24.3.16.534.391.701.692.166.294.25.647.25 1.056v1.47c0 .41-.084.766-.25 1.067-.166.301-.4.531-.701.691-.301.16-.657.24-1.067.24zm0-.682c.397 0 .705-.112.923-.336.217-.224.326-.551.326-.98v-1.46c0-.429-.112-.756-.336-.98-.218-.224-.522-.336-.913-.336-.39 0-.698.112-.922.336-.218.224-.326.551-.326.98v1.46c0 .429.108.756.326.98.224.224.532.336.922.336zm3.75.596v-5.284h2.267c.525 0 .938.125 1.239.375.301.243.451.583.451 1.018 0 .365-.124.66-.374.884-.244.218-.57.327-.98.327v-.068c.442 0 .797.116 1.066.346.269.224.404.525.404.903 0 .468-.16.836-.481 1.105-.313.263-.749.394-1.306.394h-2.287zm.749-.672h1.537c.314 0 .563-.074.749-.221a.758.758 0 00.279-.615c0-.269-.093-.477-.279-.625-.186-.153-.435-.23-.75-.23h-1.536v1.691zm0-2.354h1.518c.281 0 .506-.071.672-.211a.705.705 0 00.259-.577.703.703 0 00-.259-.576c-.166-.148-.39-.221-.672-.221h-1.518v1.585zm6.468 3.122c-.558 0-.996-.141-1.317-.423-.32-.288-.48-.675-.48-1.162 0-.48.157-.858.471-1.134.314-.281.736-.422 1.268-.422h1.681v-.558c0-.352-.102-.624-.307-.816-.205-.192-.497-.288-.875-.288-.333 0-.611.073-.835.221a.816.816 0 00-.375.595h-.769c.065-.454.276-.816.635-1.085.365-.269.819-.404 1.364-.404.589 0 1.056.16 1.402.481.346.313.519.739.519 1.277V142h-.749v-1.028h-.125l.144-.154c0 .391-.151.702-.452.932-.301.231-.701.346-1.2.346zm.182-.615c.423 0 .769-.105 1.038-.317.269-.211.403-.487.403-.826v-.797h-1.671c-.301 0-.542.083-.721.249-.179.167-.269.394-.269.683 0 .307.109.554.327.739.217.18.515.269.893.269zm3.98.519v-5.284h.768v2.248h2.344v-2.248h.769V142h-.769v-2.344h-2.344V142h-.768zm5.689 0v-5.284h.769v2.248h2.344v-2.248h.769V142h-.769v-2.344h-2.344V142h-.769zm7.631.086c-.41 0-.766-.08-1.067-.24a1.691 1.691 0 01-.701-.691c-.167-.301-.25-.657-.25-1.067v-1.46c0-.416.083-.772.25-1.066.166-.301.4-.532.701-.692.301-.16.657-.24 1.067-.24.409 0 .765.08 1.066.24.301.16.535.391.701.692.167.294.25.647.25 1.056v1.47c0 .41-.083.766-.25 1.067-.166.301-.4.531-.701.691-.301.16-.657.24-1.066.24zm0-.682c.397 0 .704-.112.922-.336.218-.224.326-.551.326-.98v-1.46c0-.429-.112-.756-.336-.98-.218-.224-.522-.336-.912-.336-.391 0-.698.112-.923.336-.217.224-.326.551-.326.98v1.46c0 .429.109.756.326.98.225.224.532.336.923.336zm3.576.596v-5.284h1.057l.768 2.152c.064.186.125.375.183.567.057.192.099.343.124.452.032-.109.074-.26.125-.452.058-.192.119-.384.183-.576l.74-2.143h1.047V142h-.74v-1.268c0-.275.003-.57.01-.884l.019-.941c.006-.314.016-.609.029-.884.012-.282.022-.529.028-.74l-1.047 3.132h-.807l-1.047-3.113c.013.256.023.58.029.971l.019 1.22c.013.429.019.842.019 1.239V142h-.739zm-100.3 19.086c-.41 0-.766-.08-1.067-.24a1.695 1.695 0 01-.701-.691c-.167-.301-.25-.657-.25-1.067v-1.46c0-.416.083-.772.25-1.066.166-.301.4-.532.701-.692.301-.16.657-.24 1.067-.24.41 0 .765.08 1.066.24.3.16.535.391.701.692.167.294.25.647.25 1.056v1.47c0 .41-.083.766-.25 1.067-.166.301-.4.531-.701.691-.301.16-.657.24-1.066.24zm0-.682c.397 0 .704-.112.922-.336.218-.224.326-.551.326-.98v-1.46c0-.429-.112-.756-.336-.98-.218-.224-.522-.336-.912-.336-.391 0-.699.112-.923.336-.218.224-.326.551-.326.98v1.46c0 .429.108.756.326.98.224.224.532.336.922.336zm5.69.692c-.616 0-1.1-.182-1.452-.548-.352-.365-.528-.867-.528-1.508v-2.459c0-.833.208-1.473.625-1.921.416-.449 1.011-.673 1.786-.673h1.307v.759h-1.307c-.537 0-.947.16-1.23.48-.281.314-.422.766-.422 1.355v.663h.135l-.135.23c.006-.384.135-.685.384-.903.256-.217.606-.326 1.047-.326.564 0 1 .179 1.307.538.307.352.461.845.461 1.479v.778c0 .429-.08.798-.24 1.105a1.646 1.646 0 01-.672.711c-.295.16-.65.24-1.067.24zm0-.682c.39 0 .69-.118.902-.355.212-.237.317-.577.317-1.019v-.778c0-.435-.105-.775-.317-1.018-.211-.244-.512-.365-.903-.365-.39 0-.692.121-.903.365-.211.243-.317.583-.317 1.018v.778c0 .442.106.782.317 1.019.218.237.519.355.903.355zm5.698.682a2.3 2.3 0 01-1.076-.24 1.765 1.765 0 01-.72-.682c-.167-.301-.25-.657-.25-1.067v-1.498c0-.41.083-.762.25-1.057a1.75 1.75 0 01.72-.692 2.3 2.3 0 011.076-.24c.602 0 1.086.164 1.451.49.365.327.554.772.567 1.336h-.76c-.012-.366-.13-.647-.355-.846-.217-.198-.518-.298-.903-.298-.39 0-.7.116-.931.346-.231.224-.346.545-.346.961v1.498c0 .41.115.731.346.961.23.231.54.346.931.346.385 0 .686-.099.903-.298.225-.205.343-.487.356-.845h.759c-.013.563-.202 1.008-.567 1.335-.365.327-.849.49-1.45.49zm3.067-.029v-.72h.192c.276 0 .478-.112.606-.336.128-.231.195-.612.201-1.144l.068-3.151h3.487V161h-.768v-4.592h-1.97l-.058 2.488c-.006.5-.067.91-.182 1.23-.109.32-.276.557-.5.711-.217.153-.502.23-.855.23h-.22zm7.189 1.662l.778-2.065-1.96-4.948h.846l1.248 3.295c.052.128.1.273.145.433.05.153.09.282.115.384.032-.102.07-.234.115-.394s.09-.304.135-.432l1.172-3.286h.816l-2.603 7.013h-.807zM51.127 161l1.152-2.709-1.076-2.575h.74l.951 2.335h.567v-2.335h.653v2.335h.548l.98-2.335h.73l-1.076 2.546L56.449 161h-.769l-.99-2.431h-.576V161h-.653v-2.431h-.576L51.876 161h-.75zm6.41 0v-5.284h.74v3.007c0 .18-.007.372-.02.577a14.544 14.544 0 01-.067 1.018l2.239-4.602h.989V161h-.74v-3.007c0-.186.004-.378.01-.576l.038-.567c.02-.186.032-.34.039-.461L58.517 161h-.98zm5.69 0v-5.284h2.267c.525 0 .938.125 1.239.375.301.243.451.583.451 1.018 0 .365-.124.66-.374.884-.244.218-.57.327-.98.327v-.068c.442 0 .797.116 1.066.346.27.224.404.525.404.903 0 .468-.16.836-.48 1.105-.314.263-.75.394-1.307.394h-2.287zm.749-.672h1.537c.314 0 .563-.074.75-.221a.758.758 0 00.278-.615c0-.269-.093-.477-.279-.625-.186-.153-.435-.23-.75-.23h-1.536v1.691zm0-2.354h1.518c.281 0 .506-.071.672-.211a.706.706 0 00.26-.577.704.704 0 00-.26-.576c-.166-.148-.39-.221-.672-.221h-1.518v1.585zm6.468 3.122c-.558 0-.996-.141-1.317-.423-.32-.288-.48-.675-.48-1.162 0-.48.157-.858.47-1.134.315-.281.737-.422 1.269-.422h1.681v-.558c0-.352-.102-.624-.307-.816-.205-.192-.497-.288-.875-.288-.333 0-.611.073-.835.221a.817.817 0 00-.375.595h-.769a1.58 1.58 0 01.635-1.085c.365-.269.82-.404 1.364-.404.589 0 1.056.16 1.402.481.346.313.52.739.52 1.277V161h-.75v-1.028h-.125l.144-.154c0 .391-.15.702-.452.932-.3.231-.7.346-1.2.346zm.182-.615c.423 0 .769-.105 1.038-.317.269-.211.403-.487.403-.826v-.797h-1.671c-.301 0-.542.083-.72.249-.18.167-.27.394-.27.683 0 .307.109.554.327.739.218.18.515.269.893.269zm3.98.519v-5.284h.768v2.248h2.344v-2.248h.769V161h-.769v-2.344h-2.344V161h-.768zm5.69 0v-5.284h.74v3.007c0 .18-.007.372-.02.577a14.544 14.544 0 01-.067 1.018l2.238-4.602h.99V161h-.74v-3.007c0-.186.003-.378.01-.576.012-.199.025-.388.038-.567.02-.186.032-.34.038-.461L81.275 161h-.98zm5.69 0v-5.284h.739v3.007c0 .18-.007.372-.02.577a14.544 14.544 0 01-.067 1.018l2.239-4.602h.99V161h-.74v-3.007c0-.186.003-.378.01-.576.012-.199.025-.388.038-.567a9.26 9.26 0 00.038-.461L86.965 161h-.98zm11.378 0v-5.284h.74v3.007c0 .18-.006.372-.02.577a14.544 14.544 0 01-.066 1.018l2.238-4.602h.99V161h-.74v-3.007c0-.186.003-.378.009-.576l.039-.567a9.26 9.26 0 00.038-.461L98.344 161h-.98zm11.38 0v-5.284h3.881V161h-.769v-4.592h-2.344V161h-.768zm7.63.086c-.41 0-.765-.08-1.066-.24a1.7 1.7 0 01-.702-.691c-.166-.301-.249-.657-.249-1.067v-1.46c0-.416.083-.772.249-1.066.167-.301.401-.532.702-.692.301-.16.656-.24 1.066-.24.41 0 .765.08 1.066.24.301.16.535.391.702.692.166.294.249.647.249 1.056v1.47c0 .41-.083.766-.249 1.067a1.7 1.7 0 01-.702.691c-.301.16-.656.24-1.066.24zm0-.682c.397 0 .704-.112.922-.336.218-.224.327-.551.327-.98v-1.46c0-.429-.112-.756-.336-.98-.218-.224-.522-.336-.913-.336s-.698.112-.922.336c-.218.224-.327.551-.327.98v1.46c0 .429.109.756.327.98.224.224.531.336.922.336zm3.749.596v-5.284h2.267c.525 0 .938.125 1.24.375.301.243.451.583.451 1.018 0 .365-.125.66-.375.884-.243.218-.57.327-.98.327v-.068c.442 0 .798.116 1.067.346.269.224.403.525.403.903 0 .468-.16.836-.48 1.105-.314.263-.749.394-1.307.394h-2.286zm.749-.672h1.537c.314 0 .564-.074.75-.221a.757.757 0 00.278-.615c0-.269-.092-.477-.278-.625-.186-.153-.436-.23-.75-.23h-1.537v1.691zm0-2.354h1.518c.282 0 .506-.071.673-.211a.705.705 0 00.259-.577.703.703 0 00-.259-.576c-.167-.148-.391-.221-.673-.221h-1.518v1.585zm4.662 3.026v-5.284h.721v1.96h.47c.564 0 1.009.151 1.336.452.333.294.499.698.499 1.21s-.163.919-.49 1.22c-.326.295-.775.442-1.345.442h-1.191zm.721-.624h.47c.359 0 .638-.09.836-.269.205-.186.308-.442.308-.769s-.103-.58-.308-.759c-.198-.186-.477-.278-.836-.278h-.47v2.075zm2.997.624v-5.284h.72V161h-.72zm1.972 0l-.019-5.284h.72v4.698h1.21v-4.698h.635v4.698h1.2v-4.698h.711V161h-4.457zm7.909.096c-.41 0-.766-.08-1.067-.24a1.758 1.758 0 01-.701-.701 2.124 2.124 0 01-.25-1.048v-1.498c0-.404.083-.753.25-1.047.166-.301.4-.532.701-.692.301-.167.657-.25 1.067-.25.409 0 .765.083 1.066.25.301.16.535.391.701.692.167.294.25.643.25 1.047v.932h-3.286v.566c0 .43.109.763.327 1 .224.23.538.345.942.345.339 0 .614-.067.826-.201a.892.892 0 00.413-.586h.759a1.534 1.534 0 01-.644 1.047c-.359.256-.81.384-1.354.384zm1.268-3.064v-.423c0-.429-.109-.759-.327-.99-.218-.237-.532-.355-.941-.355-.404 0-.718.118-.942.355-.218.231-.327.561-.327.99v.336h2.614l-.077.087zm2.481 2.968v-5.284h.768v2.248h2.344v-2.248h.769V161h-.769v-2.344h-2.344V161h-.768zm5.689 0v-5.284h.74v3.007c0 .18-.006.372-.019.577a15.365 15.365 0 01-.067 1.018l2.238-4.602h.989V161h-.739v-3.007c0-.186.003-.378.009-.576l.039-.567a9.26 9.26 0 00.038-.461L149.551 161h-.98zm5.69 0v-5.284h.74v3.007c0 .18-.007.372-.02.577a15.435 15.435 0 01-.067 1.018l2.239-4.602h.989V161h-.74v-3.007c0-.186.004-.378.01-.576l.038-.567c.02-.186.032-.34.039-.461L155.241 161h-.98zM24.225 181.729l.778-2.065-1.96-4.948h.846l1.249 3.295c.051.128.099.273.144.433.051.153.09.282.115.384.032-.102.07-.234.115-.394s.09-.304.135-.432l1.172-3.286h.817l-2.604 7.013h-.807zm4.249-.384v-1.998h.432c.109-.122.221-.34.336-.654.122-.32.186-.707.192-1.162l.058-2.815h3.362v4.631h.682v1.998h-.682V180h-3.698v1.345h-.682zm1.249-1.998h2.373v-3.949h-1.883l-.039 2.143c-.006.48-.06.874-.163 1.181-.103.308-.199.516-.288.625zm6.996.739c-.41 0-.766-.08-1.067-.24a1.695 1.695 0 01-.7-.691c-.167-.301-.25-.657-.25-1.067v-1.46c0-.416.083-.772.25-1.066.166-.301.4-.532.7-.692.301-.16.657-.24 1.067-.24.41 0 .765.08 1.066.24.301.16.535.391.701.692.167.294.25.647.25 1.056v1.47c0 .41-.083.766-.25 1.067-.166.301-.4.531-.7.691-.302.16-.657.24-1.067.24zm0-.682c.397 0 .704-.112.922-.336.218-.224.327-.551.327-.98v-1.46c0-.429-.112-.756-.337-.98-.217-.224-.522-.336-.912-.336s-.698.112-.922.336c-.218.224-.327.551-.327.98v1.46c0 .429.109.756.327.98.224.224.531.336.922.336zm3.749.596v-5.284h2.267c.525 0 .938.125 1.24.375.3.243.45.583.45 1.018 0 .365-.124.66-.374.884-.243.218-.57.327-.98.327v-.068c.442 0 .798.116 1.067.346.269.224.403.525.403.903 0 .468-.16.836-.48 1.105-.314.263-.75.394-1.307.394h-2.286zm.75-.672h1.536c.314 0 .564-.074.75-.221a.759.759 0 00.278-.615c0-.269-.093-.477-.278-.625-.186-.153-.436-.23-.75-.23h-1.537v1.691zm0-2.354h1.517c.282 0 .506-.071.672-.211a.705.705 0 00.26-.577.703.703 0 00-.26-.576c-.166-.148-.39-.221-.672-.221h-1.518v1.585zm4.267 3.093v-.72h.192c.276 0 .477-.112.605-.336.129-.231.196-.612.202-1.144l.067-3.151h3.488V180h-.769v-4.592H47.3l-.057 2.488c-.006.5-.067.91-.182 1.23-.11.32-.276.557-.5.711-.218.153-.503.23-.855.23h-.22zm8.303.029c-.41 0-.766-.08-1.067-.24a1.762 1.762 0 01-.7-.701 2.13 2.13 0 01-.25-1.048v-1.498c0-.404.083-.753.25-1.047.166-.301.4-.532.7-.692.301-.167.657-.25 1.067-.25.41 0 .765.083 1.066.25.301.16.535.391.701.692.167.294.25.643.25 1.047v.932H52.52v.566c0 .43.108.763.326 1 .224.23.538.345.942.345.34 0 .615-.067.826-.201a.892.892 0 00.413-.586h.759a1.53 1.53 0 01-.644 1.047c-.358.256-.81.384-1.354.384zm1.268-3.064v-.423c0-.429-.109-.759-.327-.99-.218-.237-.531-.355-.941-.355-.404 0-.718.118-.942.355-.217.231-.326.561-.326.99v.336h2.613l-.077.087zM59.093 180v-4.602h-1.921v-.682h4.611v.682h-1.921V180h-.769zm4.133 0v-5.284h2.268c.525 0 .938.125 1.239.375.301.243.451.583.451 1.018 0 .365-.124.66-.374.884-.244.218-.57.327-.98.327v-.068c.442 0 .797.116 1.066.346.27.224.404.525.404.903 0 .468-.16.836-.48 1.105-.314.263-.75.394-1.307.394h-2.287zm.75-.672h1.537c.314 0 .563-.074.75-.221a.758.758 0 00.278-.615c0-.269-.093-.477-.279-.625-.186-.153-.435-.23-.75-.23h-1.536v1.691zm0-2.354h1.518c.281 0 .506-.071.672-.211a.706.706 0 00.26-.577.704.704 0 00-.26-.576c-.166-.148-.39-.221-.672-.221h-1.518v1.585zm6.88 3.112c-.41 0-.765-.08-1.066-.24a1.695 1.695 0 01-.7-.691c-.167-.301-.25-.657-.25-1.067v-1.46c0-.416.083-.772.25-1.066.166-.301.4-.532.7-.692.301-.16.657-.24 1.067-.24.41 0 .765.08 1.066.24.301.16.535.391.701.692.167.294.25.647.25 1.056v1.47c0 .41-.083.766-.25 1.067-.166.301-.4.531-.7.691-.302.16-.657.24-1.067.24zm0-.682c.398 0 .705-.112.923-.336.218-.224.327-.551.327-.98v-1.46c0-.429-.112-.756-.337-.98-.217-.224-.522-.336-.912-.336-.391 0-.698.112-.922.336-.218.224-.327.551-.327.98v1.46c0 .429.109.756.326.98.225.224.532.336.923.336zm3.74 2.325v-7.013h.76v.932h.2l-.23.317c0-.416.135-.743.404-.98.275-.243.637-.365 1.085-.365.532 0 .955.176 1.268.529.32.345.48.819.48 1.421v1.566c0 .404-.073.753-.22 1.047a1.641 1.641 0 01-.615.673c-.256.16-.56.24-.913.24-.442 0-.8-.122-1.076-.365-.275-.243-.413-.57-.413-.98l.202.317h-.183l.01 1.076v1.585h-.759zm1.98-2.296c.384 0 .681-.115.893-.346.217-.23.326-.557.326-.98v-1.498c0-.429-.109-.756-.326-.98-.212-.231-.51-.346-.894-.346-.371 0-.67.119-.893.356-.218.23-.327.554-.327.97v1.498c0 .417.109.743.327.98.224.231.522.346.893.346zm6.717-5.687a.59.59 0 01-.423-.154.55.55 0 01-.163-.422c0-.186.054-.333.163-.442a.572.572 0 01.423-.164c.18 0 .32.055.422.164a.597.597 0 01.164.442.57.57 0 01-.163.422.57.57 0 01-.423.154zm-2.114 0a.59.59 0 01-.422-.154.55.55 0 01-.164-.422c0-.186.055-.333.164-.442a.572.572 0 01.422-.164c.173 0 .314.055.423.164a.597.597 0 01.163.442.57.57 0 01-.163.422.59.59 0 01-.423.154zm1.057 6.35c-.41 0-.765-.08-1.066-.24a1.762 1.762 0 01-.702-.701 2.13 2.13 0 01-.25-1.048v-1.498c0-.404.084-.753.25-1.047.167-.301.4-.532.702-.692.3-.167.656-.25 1.066-.25.41 0 .765.083 1.066.25.301.16.535.391.702.692.166.294.25.643.25 1.047v.932h-3.286v.566c0 .43.109.763.327 1 .224.23.537.345.941.345.34 0 .615-.067.826-.201a.892.892 0 00.413-.586h.76a1.537 1.537 0 01-.644 1.047c-.36.256-.81.384-1.355.384zm1.268-3.064v-.423c0-.429-.109-.759-.327-.99-.217-.237-.531-.355-.941-.355-.404 0-.717.118-.941.355-.218.231-.327.561-.327.99v.336h2.613l-.077.087zM85.985 180v-5.284h.769v2.248h2.344v-2.248h.768V180h-.768v-2.344h-2.344V180h-.769zm5.69 0v-5.284h.768v2.248h2.344v-2.248h.769V180h-.769v-2.344h-2.344V180h-.768zm7.63.086c-.41 0-.765-.08-1.066-.24a1.695 1.695 0 01-.702-.691c-.166-.301-.25-.657-.25-1.067v-1.46c0-.416.084-.772.25-1.066.167-.301.4-.532.702-.692.3-.16.656-.24 1.066-.24.41 0 .765.08 1.066.24.301.16.535.391.702.692.166.294.249.647.249 1.056v1.47c0 .41-.083.766-.249 1.067a1.7 1.7 0 01-.702.691c-.301.16-.656.24-1.066.24zm0-.682c.397 0 .704-.112.922-.336.218-.224.327-.551.327-.98v-1.46c0-.429-.112-.756-.336-.98-.218-.224-.522-.336-.913-.336-.39 0-.698.112-.922.336-.218.224-.327.551-.327.98v1.46c0 .429.109.756.327.98.224.224.531.336.922.336zm5.699.692a2.3 2.3 0 01-1.076-.24 1.766 1.766 0 01-.72-.682c-.167-.301-.25-.657-.25-1.067v-1.498c0-.41.083-.762.25-1.057.173-.301.413-.531.72-.692a2.3 2.3 0 011.076-.24c.602 0 1.086.164 1.451.49.365.327.554.772.567 1.336h-.759c-.013-.366-.132-.647-.356-.846-.217-.198-.518-.298-.903-.298-.39 0-.701.116-.932.346-.23.224-.345.545-.345.961v1.498c0 .41.115.731.345.961.231.231.542.346.932.346.385 0 .686-.099.903-.298.224-.205.343-.487.356-.845h.759c-.013.563-.202 1.008-.567 1.335-.365.327-.849.49-1.451.49zM110.3 180v-4.602h-1.921v-.682h4.611v.682h-1.921V180h-.769zm4.133 0v-5.284h.74v3.007c0 .18-.006.372-.019.577a15.365 15.365 0 01-.067 1.018l2.238-4.602h.99V180h-.74v-3.007c0-.186.003-.378.009-.576l.039-.567a9.26 9.26 0 00.038-.461L115.413 180h-.98zm-91.005 20v-5.284h.768v2.219h1l1.565-2.219h.875l-1.778 2.517L27.674 200h-.893l-1.586-2.402h-.999V200h-.768zm4.988.067v-.72h.192c.276 0 .477-.112.605-.336.128-.231.196-.612.202-1.144l.067-3.151h3.488V200h-.77v-4.592h-1.97l-.057 2.488c-.006.5-.067.91-.182 1.23-.11.32-.276.557-.5.711-.218.153-.503.23-.855.23h-.22zm6.362-.067v-5.284h.74v3.007c0 .18-.007.372-.02.577a14.544 14.544 0 01-.066 1.018l2.238-4.602h.99V200h-.74v-3.007c0-.186.003-.378.01-.576.012-.199.025-.388.038-.567a9.26 9.26 0 00.038-.461L35.758 200h-.98zm7.63.096c-.41 0-.765-.08-1.066-.24a1.762 1.762 0 01-.701-.701 2.13 2.13 0 01-.25-1.048v-1.498c0-.404.083-.753.25-1.047.166-.301.4-.532.701-.692.301-.167.657-.25 1.066-.25.41 0 .766.083 1.067.25.3.16.535.391.701.692.167.294.25.643.25 1.047v.932H41.14v.566c0 .43.11.763.327 1 .224.23.538.345.941.345.34 0 .615-.067.827-.201a.892.892 0 00.413-.586h.759a1.53 1.53 0 01-.644 1.047c-.359.256-.81.384-1.355.384zm1.268-3.064v-.423c0-.429-.108-.759-.326-.99-.218-.237-.532-.355-.942-.355-.403 0-.717.118-.941.355-.218.231-.327.561-.327.99v.336h2.613l-.077.087zM46.157 200v-5.284h.77v2.248h2.343v-2.248h.769V200h-.769v-2.344h-2.344V200h-.769zm7.247 0v-4.602h-1.922v-.682h4.611v.682h-1.921V200h-.768zm6.073.086c-.41 0-.765-.08-1.066-.24a1.694 1.694 0 01-.701-.691c-.167-.301-.25-.657-.25-1.067v-1.46c0-.416.083-.772.25-1.066.166-.301.4-.532.701-.692.301-.16.657-.24 1.066-.24.41 0 .766.08 1.067.24.3.16.535.391.701.692.167.294.25.647.25 1.056v1.47c0 .41-.083.766-.25 1.067-.166.301-.4.531-.701.691-.301.16-.657.24-1.067.24zm0-.682c.398 0 .705-.112.923-.336.217-.224.326-.551.326-.98v-1.46c0-.429-.112-.756-.336-.98-.218-.224-.522-.336-.913-.336-.39 0-.698.112-.922.336-.218.224-.327.551-.327.98v1.46c0 .429.11.756.327.98.224.224.532.336.922.336zm3.75.596v-5.284h2.267c.525 0 .938.125 1.239.375.301.243.451.583.451 1.018 0 .365-.124.66-.374.884-.244.218-.57.327-.98.327v-.068c.442 0 .797.116 1.066.346.27.224.404.525.404.903 0 .468-.16.836-.48 1.105-.314.263-.75.394-1.307.394h-2.287zm.749-.672h1.537c.314 0 .563-.074.75-.221a.758.758 0 00.278-.615c0-.269-.093-.477-.279-.625-.186-.153-.435-.23-.75-.23h-1.536v1.691zm0-2.354h1.518c.281 0 .506-.071.672-.211a.706.706 0 00.26-.577.704.704 0 00-.26-.576c-.166-.148-.39-.221-.672-.221h-1.518v1.585zm6.88 3.122c-.236 0-.425-.067-.566-.202-.135-.141-.202-.326-.202-.557 0-.243.067-.435.202-.576.14-.141.33-.212.567-.212.237 0 .422.071.557.212.14.141.211.333.211.576 0 .231-.07.416-.211.557-.135.135-.32.202-.557.202z" fill="#000"/><path d="M16.708 23.969v-7.013h4.265v7.013h-1.2V18.07h-1.864v5.899h-1.201zm5.68 1.729v-7.013h1.172v1.009h.269l-.27.278c0-.429.129-.765.385-1.008.256-.25.602-.375 1.038-.375.531 0 .957.183 1.277.548.32.365.48.855.48 1.47v1.43c0 .41-.073.77-.22 1.077-.141.3-.343.534-.605.701-.263.167-.574.25-.932.25-.436 0-.782-.122-1.038-.365-.256-.25-.384-.59-.384-1.019l.269.279h-.279l.039 1.258v1.48h-1.201zm2.171-2.67c.307 0 .548-.09.72-.27.173-.179.26-.435.26-.768v-1.326c0-.333-.087-.59-.26-.769-.172-.179-.413-.268-.72-.268-.301 0-.538.092-.71.278-.174.18-.26.432-.26.759v1.326c0 .326.086.583.26.768.172.18.409.27.71.27zm5.66 1.027c-.448 0-.838-.083-1.171-.25a1.938 1.938 0 01-.769-.72c-.18-.314-.269-.682-.269-1.105v-1.306c0-.423.09-.788.27-1.096.185-.313.441-.553.768-.72.333-.173.724-.26 1.172-.26.454 0 .845.087 1.172.26.326.166.58.407.759.72.185.308.278.67.278 1.086v1.316c0 .423-.093.791-.278 1.105-.18.307-.433.547-.76.72-.326.167-.716.25-1.171.25zm0-1.047c.321 0 .568-.086.74-.26.18-.179.27-.435.27-.768v-1.306c0-.34-.09-.596-.27-.769-.172-.173-.419-.26-.74-.26-.313 0-.56.087-.739.26-.18.173-.269.43-.269.769v1.306c0 .333.09.59.27.769.178.173.425.26.739.26zm3.548.96v-5.283h2.344c.609 0 1.086.128 1.432.384.352.25.528.596.528 1.038 0 .358-.138.647-.413.864-.27.218-.628.327-1.076.327v-.086c.487 0 .877.115 1.172.346.295.224.442.525.442.902 0 .468-.18.836-.538 1.105-.352.27-.84.404-1.46.404h-2.43zm1.182-.912h1.21c.27 0 .48-.06.634-.182a.593.593 0 00.23-.49.613.613 0 00-.23-.51c-.153-.121-.365-.182-.634-.182h-1.21v1.364zm0-2.171h1.172c.237 0 .426-.058.567-.173a.576.576 0 00.211-.47.576.576 0 00-.211-.471c-.135-.122-.324-.183-.567-.183h-1.172v1.297zm6.66 3.18c-.449 0-.84-.087-1.172-.26a1.923 1.923 0 01-.778-.72 2.169 2.169 0 01-.27-1.095v-1.326c0-.416.09-.778.27-1.086.185-.313.445-.557.778-.73.333-.173.723-.259 1.172-.259.442 0 .826.086 1.153.26.333.172.589.416.768.73.186.307.279.669.279 1.085v.951h-3.257v.375c0 .371.09.653.269.845.18.186.445.279.797.279.27 0 .487-.045.654-.135a.642.642 0 00.317-.413h1.181c-.09.455-.333.82-.73 1.095-.39.27-.868.404-1.431.404zm1.037-3.122v-.289c0-.365-.086-.643-.26-.835-.172-.199-.431-.298-.777-.298-.346 0-.609.1-.788.298-.18.198-.269.48-.269.845v.202l2.18-.02-.086.097zm2 4.37V22.95h.356c.11-.108.221-.307.337-.595.121-.295.185-.66.192-1.095l.057-2.575h3.699v4.265h.624v2.364h-1.104v-1.345h-3.055v1.345h-1.105zm1.576-2.363h1.922v-3.218h-1.441l-.039 1.528c-.006.429-.06.79-.163 1.085-.096.288-.189.49-.279.605zm6.766 1.115c-.448 0-.839-.087-1.172-.26a1.923 1.923 0 01-.778-.72 2.169 2.169 0 01-.27-1.095v-1.326c0-.416.09-.778.27-1.086a1.91 1.91 0 01.778-.73c.333-.173.724-.259 1.172-.259.442 0 .826.086 1.153.26.333.172.59.416.768.73.186.307.279.669.279 1.085v.951h-3.257v.375c0 .371.09.653.27.845.179.186.444.279.797.279.269 0 .486-.045.653-.135a.642.642 0 00.317-.413h1.182c-.09.455-.334.82-.73 1.095-.391.27-.868.404-1.432.404zm1.038-3.122v-.289c0-.365-.087-.643-.26-.835-.173-.199-.432-.298-.778-.298-.346 0-.608.1-.788.298-.179.198-.269.48-.269.845v.202l2.181-.02-.086.097zm2.51 3.026v-5.284h1.2v2.046H59.6v-2.046h1.2v5.284h-1.2v-2.123h-1.864v2.123h-1.2zm5.69 0v-5.284h1.085v2.604c0 .166-.01.364-.03.595-.012.224-.031.445-.057.663a14.18 14.18 0 01-.077.567l1.864-4.429h1.48v5.284h-1.086v-2.604c0-.173.006-.365.02-.576.018-.211.038-.42.057-.625a9.78 9.78 0 01.077-.518l-1.854 4.323h-1.48zm7.831.096c-.448 0-.839-.087-1.172-.26a1.923 1.923 0 01-.778-.72 2.168 2.168 0 01-.27-1.095v-1.326c0-.416.09-.778.27-1.086a1.91 1.91 0 01.778-.73c.333-.173.724-.259 1.172-.259.442 0 .826.086 1.153.26.333.172.589.416.768.73.186.307.279.669.279 1.085v.951H69v.375c0 .371.09.653.27.845.179.186.444.279.797.279.269 0 .486-.045.653-.135a.642.642 0 00.317-.413h1.181c-.09.455-.333.82-.73 1.095-.39.27-.867.404-1.431.404zm1.037-3.122v-.289c0-.365-.086-.643-.259-.835-.173-.199-.432-.298-.778-.298-.346 0-.608.1-.788.298-.18.198-.269.48-.269.845v.202l2.181-.02-.087.097zm9.728 3.026v-4.18h-1.807v-1.104h4.823v1.105h-1.806v4.179h-1.21zm4.152 1.729v-7.013h1.172v1.009h.27l-.27.278c0-.429.128-.765.384-1.008.257-.25.602-.375 1.038-.375.532 0 .957.183 1.278.548.32.365.48.855.48 1.47v1.43c0 .41-.074.77-.221 1.077-.14.3-.343.534-.605.701a1.7 1.7 0 01-.932.25c-.436 0-.781-.122-1.038-.365-.256-.25-.384-.59-.384-1.019l.27.279h-.28l.039 1.258v1.48h-1.2zm2.171-2.67c.308 0 .548-.09.72-.27.174-.179.26-.435.26-.768v-1.326c0-.333-.086-.59-.26-.769-.172-.179-.412-.268-.72-.268-.3 0-.538.092-.71.278-.174.18-.26.432-.26.759v1.326c0 .326.086.583.26.768.172.18.41.27.71.27zm5.67 1.037c-.448 0-.838-.087-1.171-.26a1.923 1.923 0 01-.779-.72 2.168 2.168 0 01-.268-1.095v-1.326c0-.416.09-.778.269-1.086.185-.313.445-.557.778-.73.333-.173.723-.259 1.172-.259.442 0 .826.086 1.152.26.334.172.59.416.769.73.186.307.279.669.279 1.085v.951h-3.257v.375c0 .371.09.653.269.845.18.186.445.279.797.279.27 0 .487-.045.653-.135a.642.642 0 00.318-.413h1.181c-.09.455-.333.82-.73 1.095-.39.27-.868.404-1.431.404zm1.038-3.122v-.289c0-.365-.086-.643-.26-.835-.172-.199-.431-.298-.777-.298-.346 0-.609.1-.788.298-.18.198-.27.48-.27.845v.202l2.182-.02-.087.097zm2.51 3.026v-5.284h1.2v2.046h1.864v-2.046h1.201v5.284h-1.2v-2.123h-1.864v2.123h-1.201zm5.69 0v-5.284h1.085v2.604c0 .166-.009.364-.029.595a10.94 10.94 0 01-.057.663c-.026.218-.051.407-.077.567l1.864-4.429h1.479v5.284h-1.086v-2.604c0-.173.007-.365.02-.576l.057-.625a10.8 10.8 0 01.077-.518l-1.854 4.323h-1.479zm5.689 0v-5.284h1.201v2.046h1.864v-2.046h1.201v5.284h-1.201v-2.123h-1.864v2.123h-1.201zm6.103 0v-5.284h3.939v1.114h-2.738v4.17h-1.201zm7.409.086c-.448 0-.839-.083-1.172-.25a1.936 1.936 0 01-.768-.72c-.18-.314-.269-.682-.269-1.105v-1.306c0-.423.089-.788.269-1.096a1.85 1.85 0 01.768-.72c.333-.173.724-.26 1.172-.26.455 0 .846.087 1.172.26.327.166.58.407.759.72.186.308.279.67.279 1.086v1.316c0 .423-.093.791-.279 1.105a1.868 1.868 0 01-.759.72c-.326.167-.717.25-1.172.25zm0-1.047c.321 0 .567-.086.74-.26.179-.179.269-.435.269-.768v-1.306c0-.34-.09-.596-.269-.769-.173-.173-.419-.26-.74-.26-.314 0-.56.087-.739.26-.18.173-.269.43-.269.769v1.306c0 .333.089.59.269.769.179.173.425.26.739.26zm3.548.96v-5.283h2.344c.608 0 1.085.128 1.431.384.352.25.528.596.528 1.038 0 .358-.137.647-.413.864-.269.218-.627.327-1.076.327v-.086c.487 0 .878.115 1.172.346.295.224.442.525.442.902 0 .468-.179.836-.538 1.105-.352.27-.839.404-1.46.404h-2.43zm1.181-.912h1.211c.269 0 .48-.06.634-.182a.594.594 0 00.23-.49.614.614 0 00-.23-.51c-.154-.121-.365-.182-.634-.182h-1.211v1.364zm0-2.171h1.172c.237 0 .426-.058.567-.173a.575.575 0 00.211-.47.575.575 0 00-.211-.471c-.134-.122-.323-.183-.567-.183h-1.172v1.297zm6.651-.682c-.269 0-.487-.074-.654-.221a.778.778 0 01-.24-.586c0-.243.08-.439.24-.586.167-.147.385-.221.654-.221s.483.074.643.22c.167.148.25.344.25.587a.761.761 0 01-.25.586c-.16.147-.374.22-.643.22zm0 3.862c-.269 0-.487-.074-.654-.221a.759.759 0 01-.24-.586c0-.243.08-.439.24-.586.167-.148.385-.221.654-.221s.483.073.643.22c.167.148.25.344.25.587a.743.743 0 01-.25.586c-.16.147-.374.22-.643.22z" fill="#fff"/><defs><filter id="filter0_d_2002_23" x=".157" y="0" width="179.685" height="261.685" filterUnits="userSpaceOnUse" color-interpolation-filters="sRGB"><feFlood flood-opacity="0" result="BackgroundImageFix"/><feColorMatrix in="SourceAlpha" values="0 0 0 0 0 0 0 0 0 0 0 0 0 0 0 0 0 0 127 0" result="hardAlpha"/><feOffset dy="3.843"/><feGaussianBlur stdDeviation="1.921"/><feComposite in2="hardAlpha" operator="out"/><feColorMatrix values="0 0 0 0 0 0 0 0 0 0 0 0 0 0 0 0 0 0 0.25 0"/><feBlend in2="BackgroundImageFix" result="effect1_dropShadow_2002_23"/><feBlend in="SourceGraphic" in2="effect1_dropShadow_2002_23" result="shape"/></filter></defs></svg>