<svg width="180" height="215" fill="none" xmlns="http://www.w3.org/2000/svg"><g filter="url(#filter0_d_2002_12)"><rect x="4" width="172" height="207" rx="16.011" fill="#875C9C"/></g><mask id="a" style="mask-type:alpha" maskUnits="userSpaceOnUse" x="3" y="0" width="173" height="43"><path fill="#C9D9CD" d="M3.646 0h171.961v42.27H3.646z"/></mask><g mask="url(#a)"><rect x="3.646" y="-1.69" width="171.961" height="118.355" rx="16.011" fill="#E0F4FF"/></g><path d="M14.984 57.72a1.12 1.12 0 01-.826-.327 1.12 1.12 0 01-.327-.826c0-.34.11-.615.327-.826a1.12 1.12 0 01.826-.327c.34 0 .615.109.826.327.218.21.327.486.327.826 0 .333-.109.608-.327.826-.211.218-.487.327-.826.327zm8.647 2.45c-.422 0-.79-.08-1.105-.24a1.744 1.744 0 01-.72-.693c-.166-.307-.25-.669-.25-1.085v-3.17c0-.423.084-.785.25-1.086.173-.3.413-.532.72-.692.314-.16.683-.24 1.105-.24.423 0 .788.084 1.096.25.307.16.544.39.71.692.167.3.25.66.25 1.076h-.864c0-.397-.106-.702-.317-.913-.205-.218-.497-.327-.875-.327s-.675.106-.893.317c-.212.212-.317.516-.317.913v3.18c0 .397.105.704.317.922.218.212.515.317.893.317s.67-.105.875-.317c.21-.218.317-.525.317-.922h.864c0 .41-.083.768-.25 1.076a1.743 1.743 0 01-.71.701c-.308.16-.673.24-1.096.24zm5.651-.02c-.422 0-.787-.08-1.095-.24a1.743 1.743 0 01-.72-.692c-.167-.307-.25-.669-.25-1.085V56.73c0-.423.083-.784.25-1.085a1.74 1.74 0 01.72-.692c.308-.16.673-.24 1.095-.24.423 0 .788.08 1.096.24.307.16.544.39.71.691.174.302.26.66.26 1.077v1.412c0 .416-.086.778-.26 1.085a1.683 1.683 0 01-.71.692c-.308.16-.673.24-1.096.24zm0-.768c.378 0 .673-.106.884-.317.212-.212.317-.522.317-.932V56.73c0-.41-.105-.72-.317-.932-.211-.211-.506-.317-.884-.317-.37 0-.666.106-.883.317-.212.212-.317.522-.317.932v1.403c0 .41.105.72.317.931.217.212.512.318.883.318zm5.44.759c-.557 0-1.015-.119-1.373-.356a1.412 1.412 0 01-.634-.96h.912c.045.16.164.29.356.393.198.103.445.154.74.154h.45c.315 0 .558-.074.731-.221a.71.71 0 00.269-.576c0-.257-.086-.458-.26-.606-.166-.147-.412-.22-.74-.22h-1.162v-.75h1.134c.295 0 .519-.07.673-.211a.72.72 0 00.23-.557.728.728 0 00-.105-.404.61.61 0 00-.298-.25 1.241 1.241 0 00-.49-.086h-.48c-.257 0-.478.057-.663.173-.186.115-.298.256-.337.422h-.912c.064-.397.272-.723.624-.98.352-.256.781-.384 1.287-.384h.48c.379 0 .702.061.971.183.269.115.474.282.615.5.147.217.22.477.22.777 0 .314-.102.574-.307.779-.205.198-.493.31-.864.336v.038c.454.032.784.154.99.365.204.212.307.516.307.913 0 .468-.173.839-.52 1.114-.345.276-.81.414-1.392.414h-.452zm3.346 1.277v-2.084h.432c.11-.11.221-.324.337-.644.121-.32.185-.727.192-1.22l.057-2.68h3.45v4.544h.672v2.084h-.769v-1.345h-3.602v1.345h-.769zm1.345-2.084h2.258v-3.776h-1.768l-.038 1.931c-.007.506-.061.916-.164 1.23-.102.313-.198.518-.288.614zm6.477.835c-.557 0-.995-.14-1.316-.422-.32-.289-.48-.676-.48-1.163 0-.493.16-.88.48-1.162.32-.282.753-.423 1.297-.423h1.633v-.528c0-.327-.099-.577-.297-.75-.193-.179-.468-.269-.827-.269-.314 0-.576.068-.787.202a.718.718 0 00-.366.528h-.864c.058-.454.272-.816.644-1.085.371-.269.835-.404 1.393-.404.608 0 1.088.157 1.44.471.353.314.529.74.529 1.278v3.631h-.846v-1.008h-.144l.145-.145c0 .385-.151.689-.452.913-.295.224-.689.336-1.182.336zm.212-.682c.41 0 .746-.102 1.008-.307a.956.956 0 00.394-.788v-.75H45.89c-.288 0-.515.08-.682.24-.166.161-.25.379-.25.654 0 .295.1.529.298.701.205.167.487.25.846.25zm3.297.654v-.807h.173c.295 0 .5-.116.615-.346.122-.23.186-.644.192-1.24l.058-2.959h3.583v5.284h-.864v-4.496h-1.864l-.048 2.21c-.013.557-.077 1.008-.192 1.354-.11.346-.282.6-.52.76-.23.16-.534.24-.912.24h-.22zm6.353-.068V54.79h.826v2.883c0 .185-.006.38-.02.586-.006.204-.018.4-.038.586a5.306 5.306 0 01-.048.46l2.133-4.515h1.105v5.284h-.826v-2.882c0-.186.003-.38.01-.586.012-.205.028-.4.047-.586l.048-.47-2.132 4.524h-1.105zm11.38 0V54.79h3.957v5.284h-.864v-4.496h-2.23v4.496h-.864zm7.668.077c-.423 0-.788-.08-1.095-.24a1.743 1.743 0 01-.72-.692c-.167-.307-.25-.669-.25-1.085V56.73c0-.423.083-.784.25-1.085.172-.302.412-.532.72-.692.307-.16.672-.24 1.095-.24.422 0 .788.08 1.095.24.307.16.544.39.71.691.174.302.26.66.26 1.077v1.412c0 .416-.086.778-.26 1.085a1.683 1.683 0 01-.71.692c-.307.16-.672.24-1.095.24zm0-.768c.378 0 .672-.106.884-.317.211-.212.317-.522.317-.932V56.73c0-.41-.106-.72-.317-.932-.212-.211-.506-.317-.884-.317-.372 0-.666.106-.884.317-.211.212-.317.522-.317.932v1.403c0 .41.106.72.317.931.218.212.512.318.884.318zm3.096 2.036v-2.084h.432c.109-.11.22-.324.336-.644.122-.32.186-.727.192-1.22l.058-2.68h3.449v4.544h.672v2.084h-.768v-1.345h-3.603v1.345h-.768zm1.345-2.084h2.257v-3.776h-1.767l-.039 1.931c-.006.506-.06.916-.163 1.23-.103.313-.199.518-.288.614zm4.94 2.468V54.79h.865v1.01h.172l-.172.201c0-.404.13-.72.393-.951.27-.237.622-.355 1.057-.355.532 0 .954.176 1.268.528.32.346.48.823.48 1.431V58.2c0 .403-.073.752-.22 1.047a1.57 1.57 0 01-.606.682c-.256.16-.563.24-.922.24-.429 0-.778-.118-1.047-.355-.269-.237-.403-.554-.403-.951l.172.202h-.192l.02 1.2v1.538h-.865zm2.027-2.382c.365 0 .65-.109.855-.327.211-.217.317-.531.317-.941V56.71c0-.41-.106-.724-.317-.942-.205-.217-.49-.326-.855-.326-.352 0-.634.112-.846.336-.21.224-.316.535-.316.932v1.44c0 .398.105.709.316.933.212.224.494.336.846.336zm5.66.73c-.422 0-.787-.08-1.094-.24a1.743 1.743 0 01-.72-.692c-.167-.307-.25-.669-.25-1.085V56.73c0-.423.083-.784.25-1.085.172-.302.412-.532.72-.692.307-.16.672-.24 1.095-.24.422 0 .787.08 1.095.24.307.16.544.39.71.691.174.302.26.66.26 1.077v1.412c0 .416-.086.778-.26 1.085a1.683 1.683 0 01-.71.692c-.308.16-.673.24-1.095.24zm0-.768c.379 0 .673-.106.885-.317.21-.212.317-.522.317-.932V56.73c0-.41-.106-.72-.317-.932-.212-.211-.506-.317-.884-.317-.372 0-.666.106-.884.317-.211.212-.317.522-.317.932v1.403c0 .41.106.72.317.931.218.212.512.318.884.318zm5.69.787c-.62 0-1.114-.182-1.479-.547-.359-.372-.538-.878-.538-1.518v-2.402c0-.845.211-1.495.634-1.95.423-.461 1.028-.692 1.816-.692h1.345v.865H97.99c-.52 0-.913.154-1.182.461-.269.301-.403.74-.403 1.316v.625h.134l-.134.192c.006-.378.134-.673.384-.884.25-.211.59-.317 1.018-.317.557 0 .99.18 1.297.538.314.358.47.852.47 1.48v.768c0 .429-.08.797-.24 1.105-.16.307-.39.544-.691.71-.301.167-.663.25-1.086.25zm0-.768c.372 0 .657-.112.855-.337.199-.224.298-.544.298-.96v-.769c0-.416-.1-.736-.298-.96-.198-.224-.483-.337-.855-.337-.371 0-.656.113-.855.337-.198.217-.297.538-.297.96v.769c0 .416.099.736.297.96.199.225.484.337.855.337zm3.711.672V54.79h.865v2.2h2.228v-2.2h.865v5.284h-.865v-2.296h-2.228v2.296h-.865zm5.411 0V54.79h.807v1.941h.432c.57 0 1.019.15 1.345.452.333.294.5.7.5 1.22 0 .518-.167.928-.5 1.23-.326.294-.775.441-1.345.441h-1.239zm.807-.691h.432c.34 0 .602-.087.788-.26.192-.173.288-.413.288-.72 0-.308-.096-.548-.288-.72-.186-.174-.448-.26-.788-.26h-.432v1.96zm2.901.691V54.79h.807v5.284h-.807zm2.26 0V54.79h.827v2.883c0 .185-.007.38-.02.586a8.13 8.13 0 01-.038.586 6.233 6.233 0 01-.048.46l2.133-4.515h1.104v5.284h-.826v-2.882c0-.186.003-.38.01-.586.013-.205.029-.4.048-.586l.048-.47-2.133 4.524h-1.105zm2.018-6.148c-.461 0-.833-.128-1.115-.384-.281-.256-.422-.593-.422-1.01h.682c0 .25.077.453.23.606.154.154.359.23.615.23.263 0 .471-.076.625-.23a.801.801 0 00.24-.605h.682c0 .416-.141.753-.423 1.009-.282.256-.653.384-1.114.384zm9.362 6.148V54.79h3.958v5.284h-.865v-4.496h-2.229v4.496h-.864zm5.026.068v-.807h.173c.295 0 .5-.116.615-.346.122-.23.186-.644.192-1.24l.058-2.959h3.583v5.284h-.864v-4.496h-1.864l-.048 2.21c-.013.557-.077 1.008-.192 1.354-.109.346-.282.6-.519.76-.23.16-.535.24-.913.24h-.221zm7.871.028c-.557 0-.996-.14-1.316-.422-.32-.289-.481-.676-.481-1.163 0-.493.161-.88.481-1.162.32-.282.752-.423 1.297-.423h1.633v-.528c0-.327-.099-.577-.298-.75-.192-.179-.468-.269-.826-.269-.314 0-.577.068-.788.202a.719.719 0 00-.365.528h-.865c.058-.454.273-.816.644-1.085.372-.269.836-.404 1.393-.404.608 0 1.089.157 1.441.471.352.314.528.74.528 1.278v3.631h-.845v-1.008h-.144l.144-.145c0 .385-.15.689-.452.913-.294.224-.688.336-1.181.336zm.211-.682c.41 0 .746-.102 1.009-.307a.955.955 0 00.394-.788v-.75h-1.614c-.288 0-.516.08-.682.24-.167.161-.25.379-.25.654 0 .295.099.529.298.701.205.167.487.25.845.25zm3.961.586V54.79h.864v2.2h2.229v-2.2h.865v5.284h-.865v-2.296h-2.229v2.296h-.864zm11.379 0V54.79h3.958v5.284h-.865v-4.496h-2.228v4.496h-.865zm7.669.077c-.423 0-.788-.08-1.096-.24a1.745 1.745 0 01-.72-.692c-.167-.307-.25-.669-.25-1.085V56.73c0-.423.083-.784.25-1.085a1.74 1.74 0 01.72-.692c.308-.16.673-.24 1.096-.24.422 0 .787.08 1.095.24.307.16.544.39.711.691.173.302.259.66.259 1.077v1.412c0 .416-.086.778-.259 1.085a1.688 1.688 0 01-.711.692c-.308.16-.673.24-1.095.24zm0-.768c.377 0 .672-.106.883-.317.212-.212.317-.522.317-.932V56.73c0-.41-.105-.72-.317-.932-.211-.211-.506-.317-.883-.317-.372 0-.666.106-.884.317-.212.212-.317.522-.317.932v1.403c0 .41.105.72.317.931.218.212.512.318.884.318zM23.612 79.169a2.46 2.46 0 01-1.114-.24 1.73 1.73 0 01-.73-.692c-.173-.307-.26-.669-.26-1.085V75.71c0-.423.087-.785.26-1.086a1.73 1.73 0 01.73-.691c.32-.16.691-.24 1.114-.24.609 0 1.099.163 1.47.49.371.326.567.771.586 1.335h-.865c-.019-.34-.134-.6-.346-.778-.204-.186-.486-.279-.845-.279-.378 0-.679.109-.903.327-.224.211-.336.515-.336.912v1.45c0 .398.112.705.336.923.224.218.525.327.903.327.359 0 .64-.093.846-.279.21-.186.326-.445.345-.778h.865c-.02.564-.215 1.009-.586 1.335-.372.327-.861.49-1.47.49zm3.692-.096V73.79h.826v2.882c0 .185-.007.38-.02.586-.006.205-.019.4-.038.586a6.233 6.233 0 01-.048.46l2.133-4.514h1.105v5.283h-.827v-2.882c0-.186.004-.38.01-.586.013-.205.029-.4.048-.586l.048-.47-2.133 4.524h-1.104zm5.69 0V73.79h.864v2.2h2.229v-2.2h.864v5.283h-.864v-2.296h-2.23v2.296h-.864zm5.266 0l1.873-2.718-1.758-2.566h1.019l1.047 1.634c.045.07.086.147.125.23.045.084.08.15.105.202.02-.051.048-.118.087-.202.045-.083.09-.16.134-.23l1.057-1.633h1.009L41.2 76.364l1.863 2.71h-1.018l-1.133-1.73c-.045-.07-.09-.15-.135-.24a2.076 2.076 0 00-.105-.23 3.894 3.894 0 01-.26.47l-1.143 1.73H38.26zm6.093 1.73V73.79h.865v1.008h.173l-.173.202c0-.403.131-.72.394-.951.269-.237.621-.356 1.056-.356.532 0 .955.177 1.269.529.32.346.48.823.48 1.431V77.2c0 .403-.074.752-.221 1.047a1.57 1.57 0 01-.605.682c-.256.16-.564.24-.922.24-.43 0-.779-.118-1.048-.355s-.403-.554-.403-.951l.173.201h-.192l.019 1.201v1.537h-.865zm2.027-2.383c.365 0 .65-.109.855-.327.212-.217.317-.531.317-.941V75.71c0-.41-.105-.724-.317-.942-.205-.217-.49-.326-.855-.326-.352 0-.634.112-.845.336-.211.224-.317.535-.317.932v1.44c0 .398.106.709.317.933.211.224.493.336.845.336zm5.661.73c-.422 0-.788-.08-1.095-.24a1.743 1.743 0 01-.72-.692c-.167-.307-.25-.669-.25-1.085V75.73c0-.423.083-.785.25-1.086.172-.3.413-.531.72-.691.307-.16.672-.24 1.095-.24.423 0 .788.08 1.095.24.308.16.545.39.711.691.173.301.26.66.26 1.076v1.413c0 .416-.087.778-.26 1.085a1.682 1.682 0 01-.71.692c-.308.16-.673.24-1.096.24zm0-.768c.378 0 .673-.106.884-.318.211-.21.317-.521.317-.931V75.73c0-.41-.106-.72-.317-.932-.211-.211-.506-.317-.884-.317-.371 0-.666.106-.884.317-.211.212-.317.522-.317.932v1.403c0 .41.106.72.317.931.218.212.513.318.884.318zm3.71.691V73.79h.865v2.2h2.23v-2.2h.864v5.283h-.865v-2.296h-2.229v2.296h-.864zm5.69 0V73.79h.827v2.882c0 .185-.007.38-.02.586-.006.205-.019.4-.038.586a6.233 6.233 0 01-.048.46l2.133-4.514H65.4v5.283h-.827v-2.882c0-.186.004-.38.01-.586.013-.205.029-.4.048-.586l.048-.47-2.133 4.524h-1.105zm7.42.068c-.558 0-1.016-.119-1.374-.356a1.412 1.412 0 01-.634-.96h.912c.045.16.163.29.356.393.198.103.445.154.74.154h.45c.315 0 .558-.074.731-.221a.71.71 0 00.269-.576c0-.257-.087-.458-.26-.606-.166-.147-.413-.22-.74-.22H68.15v-.75h1.134c.295 0 .519-.07.672-.211a.72.72 0 00.231-.557.727.727 0 00-.106-.404.61.61 0 00-.297-.25 1.24 1.24 0 00-.49-.086h-.48a1.23 1.23 0 00-.663.173c-.186.115-.298.256-.337.422h-.912c.064-.397.272-.723.624-.98.352-.256.781-.384 1.287-.384h.48c.379 0 .702.061.97.183.27.115.475.282.616.5.147.217.22.477.22.778 0 .313-.102.573-.307.778-.205.198-.493.31-.864.336v.038c.454.032.784.154.99.365.204.212.307.516.307.913 0 .468-.173.839-.52 1.114-.345.276-.81.413-1.392.413h-.452zm5.478.028c-.558 0-.996-.14-1.317-.422-.32-.289-.48-.676-.48-1.163 0-.493.16-.88.48-1.162.32-.282.753-.423 1.297-.423h1.634v-.528c0-.327-.1-.577-.298-.75-.192-.179-.468-.269-.826-.269-.314 0-.577.068-.788.202a.718.718 0 00-.365.529h-.865c.058-.455.272-.817.644-1.086.371-.269.836-.403 1.393-.403.608 0 1.089.156 1.44.47.353.314.53.74.53 1.278v3.631h-.846v-1.008h-.144l.144-.145c0 .385-.15.689-.452.913-.294.224-.688.336-1.181.336zm.211-.682c.41 0 .746-.102 1.009-.307a.956.956 0 00.394-.788v-.75h-1.614c-.288 0-.516.08-.682.24-.167.161-.25.379-.25.654 0 .295.1.528.298.701.205.167.486.25.845.25zm7.717 1.931v-1.345H78.51V73.79h.865v4.515h2.075v-4.516h.865v4.516h.72v2.113h-.768zm1.933-1.345V73.79h.826v2.882c0 .185-.006.38-.019.586-.006.205-.02.4-.038.586a6.83 6.83 0 01-.048.46l2.132-4.514h1.105v5.283h-.826v-2.882c0-.186.003-.38.01-.586.012-.205.028-.4.047-.586l.049-.47-2.133 4.524H84.2zm5.69 0V73.79h.826v2.882c0 .185-.006.38-.02.586-.006.205-.019.4-.038.586a6.233 6.233 0 01-.048.46l2.133-4.514h1.105v5.283h-.826v-2.882c0-.186.003-.38.01-.586.012-.205.028-.4.047-.586l.048-.47-2.132 4.524H89.89zm10.764 1.345v-2.085h.433c.108-.108.22-.323.336-.643.121-.32.186-.727.192-1.22l.058-2.68h3.448v4.543h.673v2.085h-.769v-1.345h-3.602v1.345h-.769zm1.345-2.085h2.258v-3.775h-1.768l-.038 1.931c-.007.506-.061.916-.164 1.23-.102.314-.198.519-.288.615zm6.478.836c-.558 0-.996-.14-1.317-.422-.32-.289-.48-.676-.48-1.163 0-.493.16-.88.48-1.162.321-.282.753-.423 1.297-.423h1.634v-.528c0-.327-.1-.577-.298-.75-.192-.179-.468-.269-.826-.269-.314 0-.577.068-.788.202a.716.716 0 00-.365.529h-.865c.058-.455.272-.817.644-1.086.371-.269.836-.403 1.393-.403.608 0 1.089.156 1.441.47.352.314.528.74.528 1.278v3.631h-.845v-1.008h-.144l.144-.145c0 .385-.151.689-.452.913-.294.224-.688.336-1.181.336zm.211-.682c.41 0 .746-.102 1.009-.307a.958.958 0 00.394-.788v-.75h-1.614c-.289 0-.516.08-.682.24-.167.161-.25.379-.25.654 0 .295.099.528.298.701.204.167.486.25.845.25zm3.96.586V73.79h.865v2.2h2.229v-2.2h.864v5.283h-.864v-2.296h-2.229v2.296h-.865zm5.69 0V73.79h.865v2.2h2.228v-2.2h.865v5.283h-.865v-2.296h-2.228v2.296h-.865zm5.411 0V73.79h.807v1.94h.432c.57 0 1.019.15 1.345.452.333.294.5.7.5 1.22 0 .518-.167.928-.5 1.23-.326.294-.775.441-1.345.441h-1.239zm.807-.691h.432c.34 0 .602-.087.788-.26.192-.173.288-.413.288-.72 0-.308-.096-.548-.288-.72-.186-.174-.448-.26-.788-.26h-.432v1.96zm2.901.691V73.79h.807v5.283h-.807zm1.838 0l1.873-2.718-1.758-2.566h1.018l1.047 1.634c.045.07.087.147.125.23.045.084.08.15.106.202a3.2 3.2 0 01.086-.202 3.6 3.6 0 01.135-.23l1.057-1.633h1.008l-1.758 2.574 1.864 2.71h-1.018l-1.134-1.73a2.46 2.46 0 01-.134-.24 2.183 2.183 0 00-.106-.23 4.19 4.19 0 01-.115.23 1.74 1.74 0 01-.144.24l-1.144 1.73h-1.008zm11.629 0V73.79h1.172l.691 2.027c.071.205.135.41.193.614.057.199.099.353.124.462.026-.11.065-.263.116-.462.057-.205.118-.413.182-.624l.654-2.017h1.172v5.283h-.836v-.816c0-.288.003-.602.009-.942l.02-1.028c.012-.346.025-.672.038-.98.013-.313.022-.589.029-.826l-.942 3.007h-.912l-.951-2.988c.012.289.022.647.028 1.076.013.43.023.878.029 1.345.013.468.02.913.02 1.336v.816h-.836zm7.841.096c-.416 0-.781-.083-1.095-.25a1.809 1.809 0 01-.72-.7 2.198 2.198 0 01-.25-1.067V75.71c0-.41.083-.766.25-1.067a1.81 1.81 0 01.72-.7c.314-.167.679-.25 1.095-.25.417 0 .778.083 1.086.25.314.166.554.4.72.7.173.301.26.657.26 1.067v.932h-3.286v.509c0 .416.106.736.317.96.212.218.513.327.903.327.333 0 .602-.057.807-.173a.764.764 0 00.375-.538h.865a1.473 1.473 0 01-.654 1.057c-.371.256-.836.384-1.393.384zm1.22-3.103v-.355c0-.416-.105-.737-.317-.96-.205-.225-.506-.337-.903-.337-.39 0-.691.112-.903.336-.211.224-.317.545-.317.96v.28h2.508l-.068.076zm1.761 3.007l1.153-2.709-1.076-2.575h.835l.923 2.306h.509V73.79h.73v2.305h.49l.951-2.305h.826l-1.076 2.545 1.153 2.738h-.865l-.96-2.401h-.519v2.401h-.73v-2.401h-.519l-.97 2.401h-.855zm5.805 1.345v-2.085h.432c.109-.108.221-.323.336-.643.122-.32.186-.727.192-1.22l.058-2.68h3.449v4.543h.672v2.085h-.768v-1.345h-3.603v1.345h-.768zm1.345-2.085h2.257v-3.775h-1.767l-.039 1.931c-.006.506-.061.916-.163 1.23-.103.314-.199.519-.288.615zm5.766 2.47l.778-2.056-1.959-4.957h.96l1.23 3.266c.045.109.086.24.125.394l.096.374.096-.374c.038-.154.077-.285.115-.394l1.153-3.266h.932l-2.604 7.012h-.922zM21.575 98.072v-.787h1.903V91.78l-1.902 1.422v-.961l1.585-1.182h1.181v6.225h1.556v.788h-4.322zm7.746.096c-.423 0-.791-.08-1.105-.24a1.743 1.743 0 01-.72-.692c-.167-.307-.25-.669-.25-1.085v-3.17c0-.423.083-.785.25-1.086.173-.3.413-.531.72-.692.314-.16.682-.24 1.105-.24.423 0 .788.084 1.095.25.308.16.544.39.711.692.167.3.25.66.25 1.076h-.865c0-.397-.105-.702-.317-.913-.205-.218-.496-.327-.874-.327s-.676.106-.894.317c-.21.212-.317.516-.317.913v3.18c0 .397.106.704.317.922.218.212.516.317.894.317s.67-.106.874-.317c.212-.218.317-.525.317-.922h.865c0 .41-.083.768-.25 1.076a1.742 1.742 0 01-.71.701c-.308.16-.673.24-1.096.24zm4.354 1.441l.769-2.987h1.249l-1.25 2.987h-.768zm10.678-1.537V91.06h2.171c.417 0 .782.087 1.096.26.313.166.557.4.73.701.173.301.26.653.26 1.057 0 .474-.126.88-.376 1.22a1.85 1.85 0 01-.999.701l1.47 3.074h-1.018l-1.345-2.978h-1.124v2.978h-.865zm.865-3.756h1.306c.36 0 .647-.112.865-.336.218-.23.327-.532.327-.903 0-.378-.11-.68-.327-.903-.218-.224-.506-.337-.865-.337h-1.306v2.479zm6.823 3.852c-.416 0-.781-.083-1.095-.25a1.807 1.807 0 01-.72-.7 2.204 2.204 0 01-.25-1.067V94.71c0-.41.083-.766.25-1.067.172-.3.413-.534.72-.7.314-.167.679-.25 1.095-.25.417 0 .778.083 1.086.25.314.166.554.4.72.7.173.301.26.657.26 1.067v.932H50.82v.509c0 .416.106.736.317.96.212.218.513.327.903.327.333 0 .602-.057.807-.173a.763.763 0 00.375-.538h.864a1.471 1.471 0 01-.653 1.057c-.371.256-.836.384-1.393.384zm1.22-3.103v-.355c0-.416-.105-.737-.317-.96-.205-.225-.506-.337-.903-.337-.39 0-.691.112-.903.336-.211.224-.317.545-.317.96v.28h2.508l-.068.076zm5.046 3.007c-.455 0-.81-.121-1.066-.365-.25-.243-.375-.586-.375-1.028v-3.103h-1.489v-.787h1.49V91.3h.864v1.49h2.113v.787h-2.113v3.103c0 .404.192.605.576.605h1.441v.788h-1.44zm4.652.096c-.557 0-.995-.14-1.316-.422-.32-.289-.48-.676-.48-1.163 0-.493.16-.88.48-1.162.32-.282.753-.423 1.297-.423h1.633v-.528c0-.327-.099-.577-.297-.75-.193-.179-.468-.269-.827-.269-.313 0-.576.068-.788.202a.718.718 0 00-.364.529h-.865c.057-.455.272-.817.643-1.086.372-.269.836-.403 1.393-.403.609 0 1.09.156 1.441.47.353.314.529.74.529 1.278v3.631h-.846v-1.008h-.144l.145-.145c0 .385-.151.689-.452.913-.295.224-.689.336-1.182.336zm.212-.682c.41 0 .746-.102 1.008-.307a.956.956 0 00.394-.788v-.75H62.96c-.288 0-.515.08-.682.24-.166.161-.25.379-.25.654 0 .295.1.528.298.701.205.167.487.25.846.25zm3.874.586v-.787h1.873v-3.709h-1.633v-.787h2.498v4.495h1.777v.788h-4.515zm2.21-6.234c-.212 0-.379-.055-.5-.164a.563.563 0 01-.183-.442c0-.192.061-.342.183-.451.121-.116.288-.173.5-.173.21 0 .377.057.499.173.121.109.182.26.182.451 0 .186-.06.333-.182.442-.122.109-.288.163-.5.163zm6.265 6.234c-.307 0-.576-.06-.807-.182a1.312 1.312 0 01-.538-.52 1.561 1.561 0 01-.192-.787v-4.736h-1.777v-.788h2.642v5.524c0 .218.06.39.182.519a.662.662 0 00.49.183h1.681v.787h-1.68zm5.008.096c-.423 0-.791-.08-1.105-.24a1.743 1.743 0 01-.72-.692c-.167-.307-.25-.669-.25-1.085v-3.17c0-.423.083-.785.25-1.086.172-.3.413-.531.72-.692.314-.16.682-.24 1.105-.24.423 0 .788.084 1.095.25.307.16.544.39.71.692.168.3.25.66.25 1.076h-.864c0-.397-.106-.702-.317-.913-.205-.218-.496-.327-.874-.327s-.676.106-.894.317c-.21.212-.317.516-.317.913v3.18c0 .397.106.704.317.922.218.212.516.317.894.317s.67-.106.874-.317c.211-.218.317-.525.317-.922h.865c0 .41-.084.768-.25 1.076a1.742 1.742 0 01-.711.701c-.307.16-.672.24-1.095.24zm3.653-.096V91.06h2.171c.416 0 .781.087 1.095.26.314.166.557.4.73.701.173.301.26.653.26 1.057 0 .474-.125.88-.375 1.22-.243.34-.576.573-1 .701l1.47 3.074h-1.018l-1.344-2.978h-1.124v2.978h-.865zm.865-3.756h1.306c.359 0 .647-.112.865-.336.217-.23.326-.532.326-.903 0-.378-.109-.68-.326-.903-.218-.224-.506-.337-.865-.337h-1.306v2.479zm4.67 3.756V91.06h1.134l.73 2.267c.071.206.135.41.193.615.057.199.099.353.125.462.032-.11.073-.263.124-.462.052-.205.11-.413.173-.624l.692-2.258h1.134v7.013h-.846v-2.545c0-.282.01-.603.03-.961.018-.359.044-.724.076-1.095.032-.378.064-.737.096-1.076.038-.346.07-.647.096-.903l-1.133 3.506h-.913l-1.143-3.506a36.892 36.892 0 01.183 1.921c.025.365.047.73.066 1.095.02.365.03.705.03 1.019v2.545h-.846zm11.553 0V92.79h.826v2.882c0 .185-.006.38-.019.586-.006.205-.019.4-.038.586a6.233 6.233 0 01-.048.46l2.132-4.514h1.105v5.283h-.826v-2.882c0-.186.003-.38.009-.586.013-.205.029-.4.049-.586l.048-.47-2.133 4.524h-1.105zm11.523 0l-.806-7.013h.826l.528 5.188a31.316 31.316 0 01.087 1.2c.012-.089.022-.2.028-.335l.039-.423.057-.442.654-5.188h.893l.596 5.188c.019.14.035.288.048.442.019.147.035.288.048.423.019.134.032.246.038.336.007-.09.013-.202.019-.336l.039-.423c.019-.154.035-.301.048-.442l.547-5.188h.788l-.826 7.013h-1.086l-.595-5.283a9.455 9.455 0 00-.048-.433l-.039-.394c-.012-.121-.022-.22-.028-.297-.007.076-.02.176-.039.297-.013.122-.025.253-.038.394-.013.141-.029.285-.048.433l-.644 5.283h-1.086zm7.525.077c-.423 0-.788-.08-1.095-.24a1.741 1.741 0 01-.721-.692c-.166-.307-.249-.669-.249-1.085V94.73c0-.423.083-.785.249-1.086.173-.3.413-.531.721-.691.307-.16.672-.24 1.095-.24.423 0 .788.08 1.095.24.308.16.545.39.711.691.173.301.259.66.259 1.076v1.413c0 .416-.086.778-.259 1.085a1.677 1.677 0 01-.711.692c-.307.16-.672.24-1.095.24zm0-.768c.378 0 .672-.106.884-.318.211-.21.317-.521.317-.931V94.73c0-.41-.106-.72-.317-.932-.212-.211-.506-.317-.884-.317-.371 0-.666.106-.884.317-.211.212-.317.522-.317.932v1.403c0 .41.106.72.317.931.218.212.513.318.884.318zm3.874.691V92.79h.845v1.008h.202l-.278.625c0-.57.121-1 .365-1.288.249-.294.618-.442 1.104-.442.558 0 .999.177 1.326.529.333.346.5.816.5 1.412v.317h-.865v-.24c0-.416-.102-.733-.307-.951-.199-.224-.484-.336-.855-.336-.365 0-.654.112-.865.336-.205.224-.307.541-.307.95v3.363h-.865zm7.198.096c-.525 0-.951-.176-1.278-.528-.32-.352-.48-.83-.48-1.431v-1.547c0-.609.16-1.089.48-1.441.32-.352.746-.528 1.278-.528.435 0 .784.118 1.047.355.263.237.394.554.394.951l-.173-.202h.192l-.019-1.2V91.06h.865v7.013h-.865v-1.008h-.173l.173-.202c0 .403-.131.724-.394.96-.263.231-.612.346-1.047.346zm.288-.749c.359 0 .641-.112.846-.336.204-.224.307-.535.307-.932V94.71c0-.397-.103-.708-.307-.932-.205-.224-.487-.336-.846-.336-.365 0-.653.109-.864.326-.212.218-.318.532-.318.942v1.44c0 .41.106.725.318.942.211.218.499.327.864.327zm3.711.653V91.06h2.257c.436 0 .814.087 1.134.26.32.166.567.403.74.71.179.308.269.673.269 1.096 0 .416-.09.781-.269 1.095-.173.307-.42.547-.74.72-.32.167-.698.25-1.134.25h-1.393v2.882h-.864zm.864-3.66h1.393c.378 0 .679-.115.903-.346.231-.237.346-.55.346-.941 0-.397-.115-.711-.346-.942-.224-.23-.525-.346-.903-.346h-1.393v2.575zm5.008 3.66V92.79h.845v1.008h.202l-.278.625c0-.57.121-1 .365-1.288.249-.294.618-.442 1.104-.442.558 0 .999.177 1.326.529.333.346.5.816.5 1.412v.317h-.865v-.24c0-.416-.102-.733-.307-.951-.199-.224-.484-.336-.855-.336-.365 0-.654.112-.865.336-.205.224-.307.541-.307.95v3.363h-.865zm7.505.096c-.416 0-.781-.083-1.095-.25a1.809 1.809 0 01-.72-.7 2.198 2.198 0 01-.25-1.067V94.71c0-.41.083-.766.25-1.067a1.81 1.81 0 01.72-.7c.314-.167.679-.25 1.095-.25.417 0 .778.083 1.086.25.314.166.554.4.72.7.173.301.26.657.26 1.067v.932h-3.286v.509c0 .416.106.736.317.96.212.218.513.327.903.327.333 0 .602-.057.807-.173a.764.764 0 00.375-.538h.865a1.473 1.473 0 01-.654 1.057c-.371.256-.836.384-1.393.384zm1.22-3.103v-.355c0-.416-.105-.737-.317-.96-.205-.225-.506-.337-.903-.337-.39 0-.691.112-.903.336-.211.224-.317.545-.317.96v.28h2.508l-.068.076zm4.307 3.084a2.5 2.5 0 01-.942-.163 1.609 1.609 0 01-.634-.48 1.464 1.464 0 01-.278-.73h.864a.677.677 0 00.308.441c.172.11.4.164.682.164h.403c.34 0 .593-.068.759-.202a.693.693 0 00.25-.557.65.65 0 00-.231-.529c-.147-.134-.368-.224-.663-.269l-.71-.115c-.519-.09-.907-.25-1.163-.48-.25-.237-.375-.58-.375-1.028 0-.474.151-.84.452-1.095.301-.263.752-.394 1.354-.394h.366c.506 0 .912.118 1.22.355.307.237.493.557.557.96h-.865a.612.612 0 00-.288-.393c-.154-.103-.362-.154-.624-.154h-.366c-.326 0-.566.061-.72.183-.147.121-.221.304-.221.547 0 .218.064.378.192.48.128.103.33.177.605.222l.711.115c.57.09.983.256 1.24.5.262.243.393.595.393 1.056 0 .487-.156.871-.47 1.153-.308.275-.775.413-1.403.413h-.403zm5.689 0c-.358 0-.672-.054-.941-.163a1.602 1.602 0 01-.634-.48 1.465 1.465 0 01-.279-.73h.865a.675.675 0 00.307.441c.173.11.4.164.682.164h.404c.339 0 .592-.068.759-.202a.695.695 0 00.249-.557.65.65 0 00-.23-.529c-.147-.134-.368-.224-.663-.269l-.711-.115c-.519-.09-.906-.25-1.162-.48-.25-.237-.375-.58-.375-1.028 0-.474.151-.84.452-1.095.301-.263.752-.394 1.354-.394h.365c.506 0 .913.118 1.22.355.308.237.493.557.557.96h-.864a.62.62 0 00-.288-.393c-.154-.103-.362-.154-.625-.154h-.365c-.326 0-.567.061-.72.183-.148.121-.221.304-.221.547 0 .218.064.378.192.48.128.103.33.177.605.222l.711.115c.57.09.983.256 1.239.5.263.243.394.595.394 1.056 0 .487-.157.871-.471 1.153-.307.275-.775.413-1.402.413h-.404zm5.853.02c-.243 0-.438-.071-.586-.212-.141-.14-.211-.33-.211-.567 0-.25.07-.448.211-.596.148-.147.343-.22.586-.22.244 0 .436.073.577.22.147.148.221.346.221.596 0 .237-.074.426-.221.567-.141.14-.333.211-.577.211zm-150.85 17.55a1.12 1.12 0 01-.826-.327 1.12 1.12 0 01-.327-.826 1.12 1.12 0 011.153-1.153c.34 0 .615.109.826.327.218.211.327.486.327.826 0 .333-.109.608-.327.826-.211.218-.487.327-.826.327zm8.609 2.449c-.423 0-.788-.08-1.095-.24a1.697 1.697 0 01-.702-.692c-.16-.307-.24-.669-.24-1.085v-3.17c0-.423.08-.785.24-1.086.167-.301.4-.531.702-.692.307-.16.672-.24 1.095-.24.423 0 .784.08 1.085.24.308.161.542.391.702.692.166.301.25.66.25 1.076v3.18c0 .416-.084.778-.25 1.085-.16.301-.394.532-.701.692-.302.16-.663.24-1.086.24zm0-.778c.378 0 .666-.106.864-.317.205-.218.308-.525.308-.922v-3.17c0-.397-.103-.702-.308-.913-.198-.218-.486-.327-.864-.327-.372 0-.66.109-.865.327-.205.211-.307.516-.307.913v3.17c0 .397.102.704.307.922.205.211.493.317.865.317zm3.71.682v-5.283h3.959v5.283h-.865v-4.496h-2.229v4.496h-.864zm5.671 1.729v-7.012h.865v1.008h.172l-.172.202c0-.403.13-.721.394-.951.269-.237.62-.356 1.056-.356.532 0 .954.177 1.268.529.32.346.48.823.48 1.431v1.547c0 .403-.073.752-.22 1.047a1.572 1.572 0 01-.605.682c-.257.16-.564.24-.923.24-.429 0-.778-.118-1.047-.355-.269-.237-.403-.554-.403-.951l.172.202h-.192l.02 1.2v1.537h-.865zm2.027-2.382c.365 0 .65-.109.855-.327.211-.217.317-.531.317-.941v-1.441c0-.41-.106-.724-.317-.942-.205-.217-.49-.326-.855-.326-.352 0-.634.112-.845.336-.212.224-.317.535-.317.932v1.441c0 .397.105.708.317.932.211.224.493.336.845.336zm5.66.749c-.415 0-.78-.083-1.094-.249a1.812 1.812 0 01-.72-.702 2.203 2.203 0 01-.25-1.066v-1.441c0-.41.083-.765.25-1.066.172-.301.412-.535.72-.702.313-.166.679-.25 1.095-.25.416 0 .778.084 1.085.25.314.167.554.401.72.702.174.301.26.656.26 1.066v.932h-3.285v.509c0 .416.105.736.317.961.211.217.512.326.903.326.333 0 .602-.057.807-.173a.762.762 0 00.374-.538h.865a1.473 1.473 0 01-.653 1.057c-.372.256-.836.384-1.393.384zm1.22-3.103v-.355c0-.416-.105-.737-.316-.961-.205-.224-.506-.336-.903-.336-.39 0-.692.112-.903.336-.212.224-.317.545-.317.961v.278h2.507l-.067.077zm1.877 4.352v-2.084h.432c.109-.109.221-.324.336-.644.122-.32.186-.727.192-1.22l.058-2.68h3.449v4.544h.672v2.084h-.768v-1.345h-3.603v1.345h-.768zm1.345-2.084h2.257v-3.776h-1.767l-.039 1.931c-.006.506-.06.916-.163 1.23-.103.314-.199.518-.288.615zm6.938.835a2.31 2.31 0 01-1.095-.249 1.812 1.812 0 01-.72-.702 2.203 2.203 0 01-.25-1.066v-1.441c0-.41.083-.765.25-1.066.172-.301.413-.535.72-.702a2.31 2.31 0 011.095-.25c.417 0 .778.084 1.086.25.314.167.554.401.72.702.173.301.26.656.26 1.066v.932H50.82v.509c0 .416.106.736.317.961.212.217.513.326.903.326.333 0 .602-.057.807-.173a.762.762 0 00.375-.538h.864a1.473 1.473 0 01-.653 1.057c-.371.256-.836.384-1.393.384zm1.22-3.103v-.355c0-.416-.105-.737-.317-.961-.205-.224-.506-.336-.903-.336-.39 0-.691.112-.903.336-.211.224-.317.545-.317.961v.278h2.508l-.068.077zm1.828 3.074v-.806h.173c.294 0 .5-.116.615-.346.121-.231.185-.644.192-1.24l.057-2.958h3.584v5.283h-.865v-4.496h-1.864l-.047 2.21c-.013.557-.077 1.009-.193 1.354-.108.346-.282.599-.518.759-.231.16-.535.24-.913.24h-.221zm6.352-.067v-5.283h.827v2.882c0 .185-.007.381-.02.586-.006.205-.019.4-.038.586a6.11 6.11 0 01-.048.461l2.133-4.515H65.4v5.283h-.827v-2.882c0-.186.004-.381.01-.586.013-.205.029-.4.048-.586l.048-.471-2.133 4.525h-1.105zm5.027.067v-.806h.173c.295 0 .5-.116.615-.346.122-.231.186-.644.192-1.24l.058-2.958h3.583v5.283h-.864v-4.496H68.36l-.048 2.21c-.013.557-.077 1.009-.192 1.354-.11.346-.282.599-.52.759-.23.16-.534.24-.912.24h-.22zm6.353-.067v-5.283h.826v2.882c0 .185-.006.381-.02.586-.006.205-.018.4-.038.586a6.11 6.11 0 01-.048.461l2.133-4.515h1.105v5.283h-.826v-2.882c0-.186.003-.381.01-.586.012-.205.028-.4.047-.586l.048-.471-2.132 4.525H72.82zm11.38 0v-5.283h.864v2.199h2.228v-2.199h.865v5.283h-.865v-2.296h-2.228v2.296H84.2zm7.668.096c-.416 0-.782-.083-1.095-.249a1.812 1.812 0 01-.72-.702 2.203 2.203 0 01-.25-1.066v-1.441c0-.41.083-.765.25-1.066.172-.301.412-.535.72-.702.313-.166.678-.25 1.095-.25.416 0 .778.084 1.085.25.314.167.554.401.72.702.174.301.26.656.26 1.066v.932H90.65v.509c0 .416.105.736.317.961.211.217.512.326.903.326.333 0 .602-.057.807-.173a.762.762 0 00.374-.538h.865a1.473 1.473 0 01-.653 1.057c-.372.256-.836.384-1.393.384zm1.22-3.103v-.355c0-.416-.106-.737-.317-.961-.205-.224-.506-.336-.903-.336-.39 0-.692.112-.903.336-.212.224-.317.545-.317.961v.278h2.507l-.067.077zm4.47 3.084c-.423 0-.788-.08-1.096-.24a1.744 1.744 0 01-.72-.692c-.167-.307-.25-.669-.25-1.085v-1.403c0-.423.083-.784.25-1.085.173-.301.413-.532.72-.692.308-.16.673-.24 1.095-.24.423 0 .788.08 1.096.24.307.16.544.391.71.692.173.301.26.659.26 1.075v1.413c0 .416-.087.778-.26 1.085a1.683 1.683 0 01-.71.692c-.308.16-.673.24-1.096.24zm0-.768c.377 0 .672-.106.883-.317.212-.212.317-.522.317-.932v-1.403c0-.41-.105-.72-.317-.932-.211-.211-.506-.317-.884-.317-.371 0-.666.106-.883.317-.212.212-.317.522-.317.932v1.403c0 .41.105.72.317.932.217.211.512.317.883.317zm5.689.787c-.621 0-1.114-.182-1.479-.547-.359-.372-.538-.878-.538-1.518v-2.402c0-.845.211-1.495.634-1.95.422-.461 1.028-.692 1.815-.692h1.345v.865h-1.345c-.518 0-.912.154-1.181.461-.269.301-.404.74-.404 1.316v.625h.135l-.135.192c.007-.378.135-.673.385-.884.249-.211.589-.317 1.018-.317.557 0 .989.179 1.297.538.314.359.47.852.47 1.479v.769c0 .429-.08.797-.24 1.105-.16.307-.39.544-.691.711-.301.166-.663.249-1.086.249zm0-.768c.372 0 .657-.112.855-.336.199-.225.298-.545.298-.961v-.769c0-.416-.099-.736-.298-.96-.198-.225-.483-.337-.855-.337-.371 0-.656.112-.855.337-.198.217-.298.538-.298.96v.769c0 .416.1.736.298.961.199.224.484.336.855.336zm3.288.672l1.873-2.718-1.758-2.565h1.019l1.047 1.633c.045.07.086.147.125.23.044.084.08.151.105.202.02-.051.048-.118.087-.202.045-.083.089-.16.134-.23l1.057-1.633h1.009l-1.758 2.574 1.863 2.709h-1.018l-1.134-1.729a2.832 2.832 0 01-.134-.24 2.049 2.049 0 00-.106-.231 3.44 3.44 0 01-.115.231c-.045.09-.093.17-.144.24l-1.143 1.729h-1.009zm8.091.077c-.422 0-.787-.08-1.095-.24a1.745 1.745 0 01-.72-.692c-.167-.307-.25-.669-.25-1.085v-1.403c0-.423.083-.784.25-1.085.173-.301.413-.532.72-.692.308-.16.673-.24 1.095-.24.423 0 .788.08 1.096.24.307.16.544.391.71.692.173.301.26.659.26 1.075v1.413c0 .416-.087.778-.26 1.085a1.68 1.68 0 01-.71.692c-.308.16-.673.24-1.096.24zm0-.768c.378 0 .673-.106.884-.317.212-.212.317-.522.317-.932v-1.403c0-.41-.105-.72-.317-.932-.211-.211-.506-.317-.884-.317-.371 0-.666.106-.883.317-.212.212-.317.522-.317.932v1.403c0 .41.105.72.317.932.217.211.512.317.883.317zm3.096 2.036v-2.084h.433c.108-.109.22-.324.336-.644.121-.32.185-.727.192-1.22l.058-2.68h3.448v4.544h.673v2.084h-.769v-1.345h-3.602v1.345h-.769zm1.345-2.084h2.258v-3.776h-1.768l-.038 1.931c-.007.506-.061.916-.164 1.23-.102.314-.198.518-.288.615zm4.96.739v-5.283h.826v2.882c0 .185-.007.381-.019.586-.007.205-.02.4-.039.586a6.326 6.326 0 01-.048.461l2.133-4.515h1.105v5.283h-.827v-2.882c0-.186.004-.381.01-.586.013-.205.029-.4.048-.586l.048-.471-2.133 4.525h-1.104zm5.516 0v-5.283h1.172l.692 2.027c.071.205.135.409.192.614.058.199.1.353.125.462.026-.109.064-.263.115-.462.058-.205.119-.413.183-.624l.653-2.017h1.172v5.283h-.836v-.816c0-.289.004-.602.01-.942l.019-1.028.039-.98c.013-.313.022-.589.029-.826l-.942 3.007h-.913l-.951-2.988c.013.289.023.647.029 1.076.013.429.023.878.029 1.345.013.468.019.913.019 1.336v.816h-.836zm5.584 0v-5.283h.807v1.94h.433c.57 0 1.018.151 1.345.452.333.294.499.701.499 1.22 0 .518-.166.928-.499 1.229-.327.295-.775.442-1.345.442h-1.24zm.807-.691h.433c.339 0 .602-.087.787-.26.193-.173.289-.413.289-.72 0-.308-.096-.548-.289-.721-.185-.173-.448-.259-.787-.259h-.433v1.96zm2.902.691v-5.283h.807v5.283h-.807zm4.239.096a2.31 2.31 0 01-1.096-.249 1.814 1.814 0 01-.72-.702 2.197 2.197 0 01-.25-1.066v-1.441c0-.41.083-.765.25-1.066.173-.301.413-.535.72-.702a2.31 2.31 0 011.096-.25c.416 0 .778.084 1.085.25.314.167.554.401.721.702.173.301.259.656.259 1.066v.932h-3.285v.509c0 .416.105.736.317.961.211.217.512.326.903.326.333 0 .602-.057.807-.173a.761.761 0 00.374-.538h.865a1.476 1.476 0 01-.653 1.057c-.372.256-.836.384-1.393.384zm1.22-3.103v-.355c0-.416-.106-.737-.317-.961-.205-.224-.506-.336-.903-.336-.391 0-.692.112-.903.336-.212.224-.317.545-.317.961v.278h2.507l-.067.077zM20.999 138.418v-2.084h.432c.11-.109.221-.324.337-.644.121-.32.185-.727.192-1.22l.057-2.68h3.45v4.544h.672v2.084h-.769v-1.345h-3.602v1.345h-.769zm1.345-2.084h2.258v-3.776h-1.768l-.038 1.931c-.007.506-.061.916-.164 1.23-.102.314-.198.518-.288.615zm6.938.816c-.422 0-.787-.08-1.095-.24a1.744 1.744 0 01-.72-.692c-.167-.307-.25-.669-.25-1.085v-1.403c0-.423.083-.784.25-1.085.173-.301.413-.532.72-.692.308-.16.673-.24 1.095-.24.423 0 .788.08 1.096.24.307.16.544.391.71.692.174.301.26.659.26 1.075v1.413c0 .416-.086.778-.26 1.085a1.683 1.683 0 01-.71.692c-.308.16-.673.24-1.096.24zm0-.768c.378 0 .673-.106.884-.317.212-.212.317-.522.317-.932v-1.403c0-.41-.105-.72-.317-.932-.211-.211-.506-.317-.884-.317-.37 0-.666.106-.883.317-.212.212-.317.522-.317.932v1.403c0 .41.105.72.317.932.217.211.512.317.883.317zm3.692 2.42v-7.012h.865v1.008h.172l-.172.202c0-.403.13-.721.394-.951.269-.237.62-.356 1.056-.356.532 0 .954.177 1.268.529.32.346.48.823.48 1.431v1.547c0 .403-.073.752-.22 1.047a1.572 1.572 0 01-.605.682c-.257.16-.564.24-.923.24-.429 0-.778-.118-1.047-.355-.269-.237-.403-.554-.403-.951l.172.202h-.192l.02 1.2v1.537h-.865zm2.027-2.382c.365 0 .65-.109.855-.327.211-.217.317-.531.317-.941v-1.441c0-.41-.106-.724-.317-.942-.205-.217-.49-.326-.855-.326-.352 0-.634.112-.845.336-.212.224-.317.535-.317.932v1.441c0 .397.105.708.317.932.211.224.493.336.845.336zm5.2.749c-.557 0-.996-.141-1.316-.422-.32-.289-.48-.676-.48-1.163 0-.493.16-.88.48-1.162.32-.282.752-.423 1.297-.423h1.633v-.528c0-.327-.1-.577-.298-.75-.192-.179-.468-.269-.826-.269-.314 0-.577.068-.788.202a.717.717 0 00-.365.529h-.865c.058-.455.273-.817.644-1.086.371-.269.836-.404 1.393-.404.608 0 1.089.157 1.44.471.353.314.53.74.53 1.278v3.631h-.846v-1.008h-.144l.144-.145c0 .385-.15.689-.452.913-.294.224-.688.336-1.181.336zm.211-.682c.41 0 .746-.102 1.009-.307a.957.957 0 00.394-.788v-.749H40.2c-.288 0-.516.08-.682.24-.167.16-.25.378-.25.653 0 .295.1.529.298.701.205.167.486.25.845.25zm5.94.682c-.622 0-1.115-.182-1.48-.547-.359-.372-.538-.878-.538-1.518v-2.402c0-.845.211-1.495.634-1.95.423-.461 1.028-.692 1.816-.692h1.345v.865h-1.345c-.519 0-.913.154-1.182.461-.269.301-.403.74-.403 1.316v.625h.134l-.134.192c.006-.378.134-.673.384-.884.25-.211.59-.317 1.018-.317.557 0 .99.179 1.297.538.314.359.47.852.47 1.479v.769c0 .429-.08.797-.24 1.105a1.69 1.69 0 01-.69.711c-.302.166-.664.249-1.087.249zm0-.768c.371 0 .656-.112.855-.336.198-.225.297-.545.297-.961v-.769c0-.416-.099-.736-.297-.96-.199-.225-.484-.337-.855-.337-.372 0-.657.112-.855.337-.199.217-.298.538-.298.96v.769c0 .416.099.736.297.961.2.224.484.336.855.336zm5.69.749c-.424 0-.789-.08-1.096-.24a1.744 1.744 0 01-.72-.692c-.167-.307-.25-.669-.25-1.085v-1.403c0-.423.083-.784.25-1.085a1.74 1.74 0 01.72-.692c.307-.16.672-.24 1.095-.24.423 0 .788.08 1.095.24.308.16.545.391.711.692.173.301.26.659.26 1.075v1.413c0 .416-.087.778-.26 1.085a1.683 1.683 0 01-.71.692c-.308.16-.673.24-1.096.24zm0-.768c.377 0 .672-.106.883-.317.211-.212.317-.522.317-.932v-1.403c0-.41-.106-.72-.317-.932-.211-.211-.506-.317-.884-.317-.371 0-.666.106-.884.317-.211.212-.317.522-.317.932v1.403c0 .41.106.72.317.932.218.211.513.317.884.317zm5.256.691v-4.525h-1.92v-.758h4.706v.758h-1.92v4.525h-.866zm4.172 0v-5.283h.865v2.18h.903l1.537-2.18h.99l-1.778 2.517 1.806 2.766h-1.008l-1.537-2.353h-.913v2.353h-.865zm5.661 0v-5.283h.826v2.882c0 .185-.006.381-.019.586a8.2 8.2 0 01-.038.586 6.053 6.053 0 01-.048.461l2.132-4.515h1.105v5.283h-.826v-2.882c0-.186.003-.381.01-.586.012-.205.028-.4.048-.586l.048-.471-2.133 4.525H67.13zm11.38 0v-5.283h.826v2.882c0 .185-.007.381-.02.586a8.2 8.2 0 01-.038.586 6.11 6.11 0 01-.048.461l2.133-4.515h1.104v5.283h-.826v-2.882c0-.186.004-.381.01-.586.013-.205.029-.4.048-.586l.048-.471-2.133 4.525H78.51zm11.379 0v-5.283h.826v2.882c0 .185-.006.381-.02.586a8.2 8.2 0 01-.038.586 6.11 6.11 0 01-.048.461l2.133-4.515h1.105v5.283h-.826v-2.882c0-.186.003-.381.01-.586.012-.205.028-.4.047-.586l.048-.471-2.132 4.525H89.89zm5.69 0v-5.283h.864v2.199h2.229v-2.199h.864v5.283h-.864v-2.296h-2.229v2.296h-.865zm7.236 0v-4.525h-1.922v-.758h4.708v.758h-1.922v4.525h-.864zm6.122.096c-.417 0-.782-.083-1.095-.249a1.81 1.81 0 01-.721-.702 2.209 2.209 0 01-.25-1.066v-1.441c0-.41.084-.765.25-1.066a1.81 1.81 0 01.721-.702c.313-.166.678-.25 1.095-.25.416 0 .778.084 1.085.25.314.167.554.401.721.702.173.301.259.656.259 1.066v.932h-3.285v.509c0 .416.105.736.317.961.211.217.512.326.903.326.333 0 .602-.057.807-.173a.758.758 0 00.374-.538h.865a1.473 1.473 0 01-.653 1.057c-.372.256-.836.384-1.393.384zm1.22-3.103v-.355c0-.416-.106-.737-.317-.961-.205-.224-.506-.336-.903-.336-.391 0-.692.112-.903.336-.212.224-.317.545-.317.961v.278h2.507l-.067.077zm2.836 3.007v-5.283h3.795v.787h-2.93v4.496h-.865zm5.325 1.729v-7.012h.864v1.008h.173l-.173.202c0-.403.132-.721.394-.951.269-.237.622-.356 1.057-.356.532 0 .954.177 1.268.529.32.346.48.823.48 1.431v1.547c0 .403-.073.752-.22 1.047a1.568 1.568 0 01-.606.682c-.256.16-.563.24-.922.24-.429 0-.778-.118-1.047-.355-.269-.237-.404-.554-.404-.951l.173.202h-.192l.019 1.2v1.537h-.864zm2.027-2.382c.365 0 .65-.109.855-.327.211-.217.317-.531.317-.941v-1.441c0-.41-.106-.724-.317-.942-.205-.217-.49-.326-.855-.326-.352 0-.634.112-.846.336-.211.224-.317.535-.317.932v1.441c0 .397.106.708.317.932.212.224.494.336.846.336zm5.2.749c-.558 0-.996-.141-1.317-.422-.32-.289-.48-.676-.48-1.163 0-.493.16-.88.48-1.162.321-.282.753-.423 1.297-.423h1.633v-.528c0-.327-.099-.577-.297-.75-.192-.179-.468-.269-.827-.269-.313 0-.576.068-.787.202a.715.715 0 00-.365.529h-.865c.058-.455.272-.817.644-1.086.371-.269.836-.404 1.393-.404.608 0 1.088.157 1.441.471.352.314.528.74.528 1.278v3.631h-.845v-1.008h-.144l.144-.145c0 .385-.151.689-.452.913-.294.224-.688.336-1.181.336zm.211-.682c.41 0 .746-.102 1.009-.307a.958.958 0 00.393-.788v-.749h-1.613c-.289 0-.516.08-.683.24-.166.16-.249.378-.249.653 0 .295.099.529.298.701.204.167.486.25.845.25zm7.717 1.931v-1.345h-3.757v-5.283h.865v4.515h2.075v-4.515h.865v4.515h.72v2.113h-.768zm1.933-1.345v-5.283h.826v2.882c0 .185-.006.381-.019.586-.006.205-.019.4-.038.586a6.326 6.326 0 01-.048.461l2.132-4.515h1.105v5.283h-.826v-2.882c0-.186.003-.381.009-.586.013-.205.029-.4.048-.586l.048-.471-2.132 4.525h-1.105zm5.69 0v-5.283h.826v2.882c0 .185-.007.381-.019.586-.007.205-.02.4-.039.586a6.326 6.326 0 01-.048.461l2.133-4.515h1.105v5.283h-.827v-2.882c0-.186.004-.381.01-.586.013-.205.029-.4.048-.586l.048-.471-2.133 4.525h-1.104zm10.764 1.345v-2.084h.432c.109-.109.221-.324.337-.644.121-.32.185-.727.192-1.22l.057-2.68h3.449v4.544h.673v2.084h-.769v-1.345h-3.602v1.345h-.769zm1.345-2.084h2.258v-3.776h-1.768l-.038 1.931c-.007.506-.061.916-.164 1.23-.102.314-.198.518-.288.615zm4.297.806v-.806h.173c.294 0 .499-.116.615-.346.121-.231.185-.644.192-1.24l.057-2.958h3.584v5.283h-.865v-4.496h-1.864l-.048 2.21c-.013.557-.077 1.009-.192 1.354-.109.346-.282.599-.519.759-.23.16-.534.24-.912.24h-.221zm6.026-.067l1.354-2.036c-.403-.096-.717-.282-.941-.558-.218-.275-.327-.618-.327-1.027 0-.519.17-.926.509-1.221.346-.294.817-.441 1.412-.441h2.277v5.283h-.864v-1.969h-1.163l-1.249 1.969h-1.008zm2.007-2.738h1.413v-1.777h-1.413c-.32 0-.573.08-.758.24-.186.154-.279.372-.279.654 0 .275.093.493.279.653.185.153.438.23.758.23zM23.593 156.15c-.423 0-.788-.08-1.095-.24a1.744 1.744 0 01-.72-.692c-.167-.307-.25-.669-.25-1.085v-1.403c0-.423.083-.784.25-1.085.172-.301.412-.532.72-.692.307-.16.672-.24 1.095-.24.423 0 .788.08 1.095.24.308.16.544.391.711.692.173.301.26.659.26 1.075v1.413c0 .416-.087.778-.26 1.085a1.684 1.684 0 01-.71.692c-.308.16-.673.24-1.096.24zm0-.768c.378 0 .672-.106.884-.317.211-.212.317-.522.317-.932v-1.403c0-.41-.106-.72-.317-.932-.212-.211-.506-.317-.884-.317-.372 0-.666.106-.884.317-.211.212-.317.522-.317.932v1.403c0 .41.106.72.317.932.218.211.512.317.884.317zm5.69.787c-.622 0-1.115-.182-1.48-.547-.358-.372-.538-.878-.538-1.518v-2.402c0-.845.212-1.495.634-1.95.423-.461 1.028-.692 1.816-.692h1.345v.865h-1.345c-.519 0-.913.154-1.182.461-.269.301-.403.74-.403 1.316v.625h.134l-.134.192c.006-.378.134-.673.384-.884.25-.211.59-.317 1.018-.317.558 0 .99.179 1.297.538.314.359.471.852.471 1.479v.769c0 .429-.08.797-.24 1.105-.16.307-.39.544-.692.711-.3.166-.663.249-1.085.249zm0-.768c.371 0 .656-.112.854-.336.2-.225.298-.545.298-.961v-.769c0-.416-.099-.736-.297-.96-.199-.225-.484-.337-.856-.337-.37 0-.656.112-.855.337-.198.217-.297.538-.297.96v.769c0 .416.099.736.297.961.2.224.484.336.855.336zm5.69.768a2.31 2.31 0 01-1.096-.249 1.812 1.812 0 01-.72-.702 2.203 2.203 0 01-.25-1.066v-1.441c0-.41.083-.765.25-1.066.172-.301.413-.535.72-.702a2.31 2.31 0 011.095-.25c.416 0 .778.084 1.086.25.314.167.554.401.72.702.173.301.26.656.26 1.066v.932h-3.286v.509c0 .416.106.736.317.961.212.217.512.326.903.326.333 0 .602-.057.807-.173a.762.762 0 00.375-.538h.864a1.473 1.473 0 01-.653 1.057c-.371.256-.836.384-1.393.384zm1.22-3.103v-.355c0-.416-.106-.737-.318-.961-.205-.224-.506-.336-.903-.336-.39 0-.691.112-.903.336-.211.224-.317.545-.317.961v.278h2.508l-.068.077zm4.488 3.103a2.46 2.46 0 01-1.114-.24 1.73 1.73 0 01-.73-.692c-.173-.307-.26-.669-.26-1.085v-1.441c0-.423.087-.785.26-1.086.172-.301.416-.531.73-.691a2.46 2.46 0 011.114-.241c.608 0 1.098.164 1.47.49.371.327.567.772.586 1.336h-.865c-.019-.34-.134-.599-.346-.778-.205-.186-.486-.279-.845-.279-.378 0-.679.109-.903.327-.224.211-.336.515-.336.912v1.451c0 .397.112.704.336.922.224.218.525.327.903.327.359 0 .64-.093.846-.279.21-.186.326-.445.345-.778h.865c-.02.564-.215 1.009-.586 1.335-.372.327-.862.49-1.47.49zm3.692-.096v-5.283h3.958v5.283h-.865v-4.496h-2.229v4.496h-.864zm7.668.096a2.31 2.31 0 01-1.095-.249 1.812 1.812 0 01-.72-.702 2.203 2.203 0 01-.25-1.066v-1.441c0-.41.083-.765.25-1.066.172-.301.413-.535.72-.702a2.31 2.31 0 011.095-.25c.417 0 .778.084 1.086.25.314.167.554.401.72.702.173.301.26.656.26 1.066v.932H50.82v.509c0 .416.106.736.317.961.212.217.513.326.903.326.333 0 .602-.057.807-.173a.762.762 0 00.375-.538h.864a1.473 1.473 0 01-.653 1.057c-.371.256-.836.384-1.393.384zm1.22-3.103v-.355c0-.416-.105-.737-.317-.961-.205-.224-.506-.336-.903-.336-.39 0-.691.112-.903.336-.211.224-.317.545-.317.961v.278h2.508l-.068.077zm5.527 3.007v-1.921c-.103.026-.26.051-.471.077a7.082 7.082 0 01-.653.029c-.654.006-1.163-.151-1.528-.471-.358-.327-.538-.782-.538-1.364v-1.633h.865v1.633c0 .326.109.586.326.778.224.186.532.278.923.278.269 0 .496-.009.682-.028.192-.026.323-.048.394-.068v-2.593h.864v5.283h-.864zm4.633.096a2.31 2.31 0 01-1.096-.249 1.812 1.812 0 01-.72-.702 2.203 2.203 0 01-.25-1.066v-1.441c0-.41.083-.765.25-1.066.173-.301.413-.535.72-.702.314-.166.68-.25 1.095-.25.417 0 .779.084 1.086.25.314.167.554.401.72.702.174.301.26.656.26 1.066v.932H62.2v.509c0 .416.106.736.317.961.212.217.513.326.903.326.334 0 .602-.057.807-.173a.762.762 0 00.375-.538h.865a1.473 1.473 0 01-.653 1.057c-.372.256-.836.384-1.393.384zm1.22-3.103v-.355c0-.416-.106-.737-.318-.961-.204-.224-.505-.336-.902-.336-.391 0-.692.112-.904.336-.21.224-.317.545-.317.961v.278h2.508l-.067.077zm2.49 3.007v-5.283h.865v2.199h2.229v-2.199h.864v5.283h-.864v-2.296h-2.23v2.296h-.864zm5.69 0v-5.283h.826v2.882c0 .185-.006.381-.02.586-.006.205-.018.4-.038.586a6.11 6.11 0 01-.048.461l2.133-4.515h1.105v5.283h-.826v-2.882c0-.186.003-.381.01-.586.012-.205.028-.4.047-.586l.048-.471-2.132 4.525H72.82zm5.363 0l1.354-2.036c-.403-.096-.717-.282-.941-.558-.218-.275-.327-.618-.327-1.027 0-.519.17-.926.51-1.221.345-.294.816-.441 1.412-.441h2.276v5.283h-.864v-1.969H80.44l-1.249 1.969h-1.008zm2.008-2.738h1.412v-1.777h-1.412c-.32 0-.574.08-.76.24-.185.154-.278.372-.278.654 0 .275.093.493.279.653.185.153.438.23.759.23zm11.677 2.834c-.621 0-1.115-.182-1.48-.547-.358-.372-.538-.878-.538-1.518v-2.402c0-.845.212-1.495.634-1.95.423-.461 1.028-.692 1.816-.692h1.345v.865h-1.345c-.519 0-.913.154-1.182.461-.269.301-.403.74-.403 1.316v.625h.134l-.134.192c.006-.378.134-.673.384-.884.25-.211.59-.317 1.019-.317.557 0 .989.179 1.296.538.314.359.471.852.471 1.479v.769c0 .429-.08.797-.24 1.105-.16.307-.39.544-.692.711-.3.166-.663.249-1.085.249zm0-.768c.371 0 .656-.112.855-.336.198-.225.298-.545.298-.961v-.769c0-.416-.1-.736-.298-.96-.199-.225-.484-.337-.855-.337-.372 0-.657.112-.855.337-.199.217-.298.538-.298.96v.769c0 .416.1.736.298.961.198.224.483.336.855.336zm5.69.768a2.31 2.31 0 01-1.096-.249 1.813 1.813 0 01-.72-.702 2.203 2.203 0 01-.25-1.066v-1.441c0-.41.083-.765.25-1.066.173-.301.413-.535.72-.702a2.31 2.31 0 011.095-.25c.417 0 .779.084 1.086.25.314.167.554.401.72.702.173.301.26.656.26 1.066v.932h-3.286v.509c0 .416.106.736.317.961.212.217.513.326.903.326.333 0 .602-.057.807-.173a.762.762 0 00.375-.538h.865a1.473 1.473 0 01-.654 1.057c-.371.256-.835.384-1.393.384zm1.22-3.103v-.355c0-.416-.106-.737-.318-.961-.204-.224-.505-.336-.903-.336-.39 0-.691.112-.903.336-.211.224-.317.545-.317.961v.278h2.508l-.068.077zm4.488 3.103c-.422 0-.794-.08-1.114-.24a1.73 1.73 0 01-.73-.692c-.173-.307-.26-.669-.26-1.085v-1.441c0-.423.087-.785.26-1.086.173-.301.416-.531.73-.691.32-.16.692-.241 1.114-.241.609 0 1.099.164 1.47.49.372.327.567.772.586 1.336h-.864c-.02-.34-.135-.599-.346-.778-.205-.186-.487-.279-.846-.279-.378 0-.679.109-.903.327-.224.211-.336.515-.336.912v1.451c0 .397.112.704.336.922.224.218.525.327.903.327.359 0 .641-.093.846-.279.211-.186.326-.445.346-.778h.864c-.019.564-.214 1.009-.586 1.335-.371.327-.861.49-1.47.49zm3.423-.096l-.019-5.283h.806v4.63h1.124v-4.63h.692v4.63h1.115v-4.63h.797v5.283h-4.515zm7.937.077c-.422 0-.787-.08-1.095-.24a1.745 1.745 0 01-.72-.692c-.167-.307-.25-.669-.25-1.085v-1.403c0-.423.083-.784.25-1.085.173-.301.413-.532.72-.692.308-.16.673-.24 1.095-.24.423 0 .788.08 1.096.24.307.16.544.391.71.692.173.301.26.659.26 1.075v1.413c0 .416-.087.778-.26 1.085a1.68 1.68 0 01-.71.692c-.308.16-.673.24-1.096.24zm0-.768c.378 0 .673-.106.884-.317.212-.212.317-.522.317-.932v-1.403c0-.41-.105-.72-.317-.932-.211-.211-.506-.317-.884-.317-.371 0-.666.106-.883.317-.212.212-.317.522-.317.932v1.403c0 .41.105.72.317.932.217.211.512.317.883.317zm3.711.691v-5.283h2.286c.551 0 .977.124 1.278.374.301.244.452.586.452 1.028 0 .365-.125.66-.375.884-.25.218-.58.327-.99.327v-.077c.449 0 .807.112 1.076.336.276.224.414.525.414.903 0 .474-.161.845-.481 1.114-.32.263-.768.394-1.345.394h-2.315zm.845-.759h1.47c.308 0 .545-.067.711-.201a.679.679 0 00.26-.567c0-.25-.087-.442-.26-.577-.166-.134-.403-.201-.711-.201h-1.47v1.546zm0-2.296h1.441c.269 0 .481-.064.634-.192.161-.128.241-.307.241-.538 0-.23-.077-.41-.231-.538-.154-.134-.368-.202-.644-.202h-1.441v1.47zm4.845 3.055v-5.283h.864v2.199h2.229v-2.199h.865v5.283h-.865v-2.296h-2.229v2.296h-.864zm7.668.077c-.422 0-.787-.08-1.095-.24a1.745 1.745 0 01-.72-.692c-.167-.307-.25-.669-.25-1.085v-1.403c0-.423.083-.784.25-1.085.173-.301.413-.532.72-.692.308-.16.673-.24 1.095-.24.423 0 .788.08 1.095.24.308.16.545.391.711.692.173.301.26.659.26 1.075v1.413c0 .416-.087.778-.26 1.085a1.677 1.677 0 01-.711.692c-.307.16-.672.24-1.095.24zm0-.768c.378 0 .673-.106.884-.317.211-.212.317-.522.317-.932v-1.403c0-.41-.106-.72-.317-.932-.211-.211-.506-.317-.884-.317-.371 0-.666.106-.883.317-.212.212-.318.522-.318.932v1.403c0 .41.106.72.318.932.217.211.512.317.883.317zm4.057.691v-5.283h3.795v.787h-2.931v4.496h-.864zm7.323.077c-.423 0-.788-.08-1.096-.24a1.745 1.745 0 01-.72-.692c-.167-.307-.25-.669-.25-1.085v-1.403c0-.423.083-.784.25-1.085.173-.301.413-.532.72-.692.308-.16.673-.24 1.096-.24.422 0 .787.08 1.095.24.307.16.544.391.711.692.173.301.259.659.259 1.075v1.413c0 .416-.086.778-.259 1.085a1.689 1.689 0 01-.711.692c-.308.16-.673.24-1.095.24zm0-.768c.378 0 .672-.106.883-.317.212-.212.317-.522.317-.932v-1.403c0-.41-.105-.72-.317-.932-.211-.211-.505-.317-.883-.317-.372 0-.666.106-.884.317-.212.212-.317.522-.317.932v1.403c0 .41.105.72.317.932.218.211.512.317.884.317zM23.593 175.15c-.423 0-.788-.08-1.095-.24a1.744 1.744 0 01-.72-.692c-.167-.307-.25-.669-.25-1.085v-1.403c0-.423.083-.784.25-1.085.172-.301.412-.532.72-.692.307-.16.672-.24 1.095-.24.423 0 .788.08 1.095.24.308.16.544.391.711.692.173.301.26.659.26 1.075v1.413c0 .416-.087.778-.26 1.085a1.684 1.684 0 01-.71.692c-.308.16-.673.24-1.096.24zm0-.768c.378 0 .672-.106.884-.317.211-.212.317-.522.317-.932v-1.403c0-.41-.106-.72-.317-.932-.212-.211-.506-.317-.884-.317-.372 0-.666.106-.884.317-.211.212-.317.522-.317.932v1.403c0 .41.106.72.317.932.218.211.512.317.884.317zm5.69.787c-.622 0-1.115-.182-1.48-.547-.358-.372-.538-.878-.538-1.518v-2.402c0-.845.212-1.495.634-1.95.423-.461 1.028-.692 1.816-.692h1.345v.865h-1.345c-.519 0-.913.154-1.182.461-.269.301-.403.74-.403 1.316v.625h.134l-.134.192c.006-.378.134-.673.384-.884.25-.211.59-.317 1.018-.317.558 0 .99.179 1.297.538.314.359.471.852.471 1.479v.769c0 .429-.08.797-.24 1.105-.16.307-.39.544-.692.711-.3.166-.663.249-1.085.249zm0-.768c.371 0 .656-.112.854-.336.2-.225.298-.545.298-.961v-.769c0-.416-.099-.736-.297-.96-.199-.225-.484-.337-.856-.337-.37 0-.656.112-.855.337-.198.217-.297.538-.297.96v.769c0 .416.099.736.297.961.2.224.484.336.855.336zm3.537.672v-5.283h1.172l.692 2.027c.07.205.135.409.192.614.058.199.1.353.125.462.026-.109.064-.263.115-.462a31.6 31.6 0 01.183-.624l.653-2.017h1.172v5.283h-.836v-.816c0-.289.004-.602.01-.942l.02-1.028c.012-.346.025-.672.038-.98.012-.313.022-.589.028-.826l-.941 3.007h-.913l-.95-2.988c.012.289.022.647.028 1.076.013.429.023.878.029 1.345.013.468.02.913.02 1.336v.816h-.837zm7.842.096c-.416 0-.782-.083-1.095-.249a1.812 1.812 0 01-.72-.702 2.203 2.203 0 01-.25-1.066v-1.441c0-.41.083-.765.25-1.066.172-.301.412-.535.72-.702.313-.166.679-.25 1.095-.25.416 0 .778.084 1.085.25.314.167.554.401.72.702.174.301.26.656.26 1.066v.932h-3.285v.509c0 .416.105.736.317.961.211.217.512.326.903.326.333 0 .602-.057.807-.173a.762.762 0 00.374-.538h.865a1.473 1.473 0 01-.653 1.057c-.372.256-.836.384-1.393.384zm1.22-3.103v-.355c0-.416-.106-.737-.317-.961-.205-.224-.506-.336-.903-.336-.39 0-.692.112-.903.336-.212.224-.317.545-.317.961v.278h2.507l-.067.077zm2.49 3.007v-5.283h.865v2.199h2.229v-2.199h.864v5.283h-.864v-2.296h-2.229v2.296h-.864zm7.208.096c-.557 0-.996-.141-1.316-.422-.32-.289-.48-.676-.48-1.163 0-.493.16-.88.48-1.162.32-.282.752-.423 1.297-.423h1.633v-.528c0-.327-.1-.577-.298-.75-.192-.179-.467-.269-.826-.269-.314 0-.576.068-.788.202a.717.717 0 00-.365.529h-.864c.057-.455.272-.817.643-1.086.372-.269.836-.404 1.393-.404.609 0 1.089.157 1.441.471.352.314.529.74.529 1.278v3.631h-.846v-1.008h-.144l.144-.145c0 .385-.15.689-.451.913-.295.224-.689.336-1.182.336zm.211-.682c.41 0 .747-.102 1.01-.307a.957.957 0 00.393-.788v-.749H51.58c-.288 0-.515.08-.682.24-.167.16-.25.378-.25.653 0 .295.1.529.298.701.205.167.487.25.845.25zm9.036 1.931v-2.084h.432c.109-.109.22-.324.336-.644.122-.32.186-.727.192-1.22l.058-2.68h3.449v4.544h.672v2.084h-.768v-1.345h-3.603v1.345h-.768zm1.345-2.084h2.257v-3.776h-1.768l-.038 1.931c-.006.506-.06.916-.163 1.23-.103.314-.199.518-.288.615zm6.477.835c-.557 0-.996-.141-1.316-.422-.32-.289-.48-.676-.48-1.163 0-.493.16-.88.48-1.162.32-.282.752-.423 1.297-.423h1.633v-.528c0-.327-.1-.577-.298-.75-.192-.179-.467-.269-.826-.269-.314 0-.576.068-.788.202a.717.717 0 00-.365.529h-.865c.058-.455.273-.817.644-1.086.372-.269.836-.404 1.393-.404.609 0 1.089.157 1.441.471.352.314.528.74.528 1.278v3.631h-.845v-1.008h-.144l.144-.145c0 .385-.15.689-.451.913-.295.224-.689.336-1.182.336zm.211-.682c.41 0 .746-.102 1.01-.307a.957.957 0 00.393-.788v-.749h-1.614c-.288 0-.516.08-.682.24-.167.16-.25.378-.25.653 0 .295.1.529.298.701.205.167.487.25.845.25zm3.96.586v-5.283h.865v2.199h2.23v-2.199h.864v5.283h-.865v-2.296h-2.229v2.296h-.864zm5.69 0v-5.283h.865v2.199h2.229v-2.199h.864v5.283h-.864v-2.296h-2.229v2.296h-.865zm5.411 0v-5.283h.807v1.94h.433c.57 0 1.018.151 1.345.452.333.294.5.701.5 1.22 0 .518-.167.928-.5 1.229-.327.295-.775.442-1.345.442h-1.24zm.807-.691h.433c.34 0 .602-.087.787-.26.193-.173.289-.413.289-.72 0-.308-.096-.548-.288-.721-.186-.173-.449-.259-.788-.259h-.433v1.96zm2.902.691v-5.283h.807v5.283h-.807zm2.087 0v-5.283h1.172l.692 2.027c.07.205.134.409.192.614.057.199.099.353.125.462.025-.109.064-.263.115-.462.057-.205.118-.413.182-.624l.654-2.017h1.172v5.283h-.836v-.816c0-.289.003-.602.01-.942l.019-1.028c.013-.346.025-.672.038-.98.013-.313.023-.589.029-.826l-.942 3.007h-.912l-.951-2.988c.013.289.022.647.029 1.076.012.429.022.878.028 1.345.013.468.02.913.02 1.336v.816h-.836zm5.862 0v-5.283h.827v2.882c0 .185-.007.381-.02.586a8.2 8.2 0 01-.038.586 6.157 6.157 0 01-.048.461l2.133-4.515h1.104v5.283h-.826v-2.882c0-.186.003-.381.01-.586.013-.205.029-.4.048-.586l.048-.471-2.133 4.525H95.58zm7.669.096c-.243 0-.439-.07-.586-.211-.141-.141-.211-.33-.211-.567 0-.25.07-.448.211-.595.147-.148.343-.221.586-.221.243 0 .436.073.576.221.148.147.221.345.221.595 0 .237-.073.426-.221.567-.14.141-.333.211-.576.211z" fill="#fff"/><path d="M13.74 18v-7.013h2.335c.467 0 .874.09 1.22.27.352.178.624.431.816.758.192.32.288.698.288 1.134 0 .429-.099.807-.297 1.133-.192.327-.462.58-.807.76-.346.178-.753.268-1.22.268H14.94V18h-1.2zm1.201-3.775h1.134c.333 0 .599-.096.797-.289.205-.198.307-.46.307-.787 0-.333-.102-.596-.307-.788-.198-.192-.464-.288-.797-.288H14.94v2.152zm6.045 3.871c-.544 0-.973-.144-1.287-.432-.314-.288-.47-.676-.47-1.163 0-.518.172-.919.518-1.2.346-.282.836-.423 1.47-.423h1.316v-.452c0-.256-.083-.454-.25-.595-.167-.148-.394-.221-.682-.221-.263 0-.48.057-.653.173a.675.675 0 00-.308.47h-1.172c.058-.5.282-.896.673-1.19.39-.296.89-.443 1.498-.443.647 0 1.156.164 1.528.49.378.32.567.756.567 1.307V18H22.57v-.922h-.192l.192-.26c0 .391-.144.702-.432.932-.288.23-.672.346-1.153.346zm.394-.903c.34 0 .615-.086.826-.26a.82.82 0 00.327-.672v-.643h-1.297c-.243 0-.439.07-.586.21a.736.736 0 00-.221.558c0 .25.083.448.25.596.173.14.406.211.701.211zm5.622.874c-.576 0-1.053-.131-1.431-.394a1.62 1.62 0 01-.682-1.095h1.2a.645.645 0 00.308.375c.167.09.369.134.605.134h.51c.25 0 .445-.057.586-.173a.592.592 0 00.22-.48.586.586 0 00-.21-.48c-.142-.116-.34-.173-.596-.173h-1.21v-.96h1.162c.237 0 .42-.055.547-.164a.55.55 0 00.192-.442.524.524 0 00-.336-.519 1.06 1.06 0 00-.403-.067h-.452a1.1 1.1 0 00-.576.144.613.613 0 00-.289.384h-1.2a1.66 1.66 0 01.672-1.095c.372-.275.836-.413 1.393-.413h.452c.403 0 .749.06 1.037.183.295.115.522.281.682.5.16.21.24.467.24.768 0 .333-.121.605-.365.816-.243.212-.567.324-.97.336v-.038c.461.013.82.134 1.076.365.256.224.384.535.384.932 0 .474-.185.852-.557 1.134-.365.281-.858.422-1.48.422h-.509zm3.807 1.662v-7.013h1.172v1.009h.27l-.27.279c0-.43.128-.766.384-1.01.257-.249.602-.374 1.038-.374.532 0 .958.183 1.278.548.32.365.48.855.48 1.47v1.431c0 .41-.074.769-.22 1.076a1.631 1.631 0 01-.606.701 1.7 1.7 0 01-.932.25c-.435 0-.781-.122-1.038-.365-.256-.25-.384-.59-.384-1.018l.27.278h-.28l.039 1.259v1.48h-1.2zm2.171-2.67c.308 0 .548-.09.72-.27.174-.179.26-.435.26-.768v-1.326c0-.333-.086-.589-.26-.768-.172-.18-.412-.27-.72-.27-.3 0-.538.094-.71.28-.174.179-.26.432-.26.758v1.326c0 .327.087.583.26.769.172.179.41.268.71.268zm5.075 1.037c-.544 0-.973-.144-1.287-.432-.314-.288-.47-.676-.47-1.163 0-.518.172-.919.518-1.2.346-.282.836-.423 1.47-.423h1.316v-.452c0-.256-.083-.454-.25-.595-.166-.148-.394-.221-.682-.221-.263 0-.48.057-.653.173a.675.675 0 00-.308.47h-1.172c.058-.5.282-.896.673-1.19.39-.296.89-.443 1.498-.443.647 0 1.156.164 1.528.49.378.32.567.756.567 1.307V18H39.64v-.922h-.192l.192-.26c0 .391-.144.702-.432.932-.288.23-.672.346-1.153.346zm.394-.903c.34 0 .615-.086.826-.26a.82.82 0 00.327-.672v-.643h-1.297c-.243 0-.439.07-.586.21a.736.736 0 00-.221.558c0 .25.083.448.25.596.173.14.406.211.701.211zm5.882.903c-.673-.006-1.208-.195-1.605-.567-.39-.371-.586-.88-.586-1.527v-2.373c0-.845.228-1.495.682-1.95.455-.461 1.102-.692 1.941-.692h1.49v1.172h-1.49c-.461 0-.813.125-1.057.375-.237.25-.355.615-.355 1.095v.653h.134l-.124.154c0-.365.121-.653.365-.865.243-.211.586-.317 1.028-.317.557 0 .989.183 1.296.548.314.359.471.858.471 1.498v.702c0 .429-.09.804-.269 1.124-.18.314-.432.557-.759.73-.32.166-.708.246-1.162.24zm0-1.047c.32 0 .563-.09.73-.27.166-.185.25-.444.25-.777V15.3c0-.34-.084-.6-.25-.779-.167-.179-.41-.269-.73-.269-.314 0-.557.09-.73.27-.167.172-.25.432-.25.777v.702c0 .333.083.592.25.778.173.18.416.269.73.269zm5.69 1.038c-.449 0-.84-.084-1.173-.25a1.938 1.938 0 01-.768-.72c-.18-.315-.27-.683-.27-1.106v-1.306c0-.423.09-.788.27-1.095.186-.314.442-.554.768-.72.334-.174.724-.26 1.172-.26.455 0 .846.086 1.172.26.327.166.58.406.76.72.185.307.278.669.278 1.085v1.316c0 .423-.093.791-.279 1.105a1.86 1.86 0 01-.758.72c-.327.167-.718.25-1.173.25zm0-1.048c.32 0 .566-.086.74-.26.178-.178.268-.435.268-.768v-1.306c0-.34-.09-.596-.269-.769-.173-.173-.42-.259-.74-.259-.313 0-.56.086-.74.26-.179.172-.268.428-.268.768v1.306c0 .333.09.59.269.769.179.173.426.26.74.26zm5.084.961v-4.179h-1.806v-1.105h4.822v1.105h-1.806V18h-1.21zm4.19 0v-5.284h1.202v2.075h.788l1.287-2.075h1.345l-1.595 2.556L63.945 18h-1.373l-1.288-2.19h-.787V18h-1.201zm7.208.096c-.544 0-.973-.144-1.287-.432-.314-.288-.47-.676-.47-1.163 0-.518.172-.919.518-1.2.346-.282.836-.423 1.47-.423h1.316v-.452c0-.256-.083-.454-.25-.595-.166-.148-.394-.221-.682-.221-.262 0-.48.057-.653.173a.675.675 0 00-.307.47h-1.172c.057-.5.281-.896.672-1.19.39-.296.89-.443 1.499-.443.647 0 1.156.164 1.527.49.378.32.567.756.567 1.307V18h-1.163v-.922h-.192l.192-.26c0 .391-.144.702-.432.932-.288.23-.672.346-1.153.346zm.394-.903c.34 0 .615-.086.826-.26a.82.82 0 00.327-.672v-.643h-1.297c-.243 0-.439.07-.586.21a.736.736 0 00-.22.558c0 .25.082.448.249.596.173.14.407.211.701.211zm9.439.807v-5.284h4.265V18h-1.2v-4.17h-1.864V18h-1.201zm5.161.067v-1.095h.24a.54.54 0 00.49-.26c.116-.179.176-.46.183-.845l.058-3.15h3.823V18h-1.2v-4.17h-1.442l-.038 2.105c-.013.46-.09.851-.23 1.172a1.61 1.61 0 01-.606.72c-.263.16-.583.24-.96.24h-.318zm7.765.03c-.544 0-.974-.145-1.287-.433-.314-.288-.471-.676-.471-1.163 0-.518.173-.919.519-1.2.346-.282.836-.423 1.47-.423h1.316v-.452c0-.256-.084-.454-.25-.595-.167-.148-.394-.221-.682-.221-.263 0-.48.057-.653.173a.675.675 0 00-.308.47h-1.172c.058-.5.282-.896.673-1.19.39-.296.89-.443 1.498-.443.647 0 1.156.164 1.528.49.378.32.567.756.567 1.307V18h-1.163v-.922h-.192l.192-.26c0 .391-.144.702-.432.932-.288.23-.673.346-1.153.346zm.394-.904c.34 0 .615-.086.826-.26a.82.82 0 00.327-.672v-.643h-1.297c-.244 0-.439.07-.586.21a.736.736 0 00-.221.558c0 .25.083.448.25.596.172.14.406.211.7.211zm3.749.807v-5.284h1.2v2.046h1.864v-2.046h1.201V18h-1.2v-2.123h-1.864V18h-1.201zm7.236.096c-.544 0-.973-.144-1.287-.432-.314-.288-.47-.676-.47-1.163 0-.518.172-.919.518-1.2.346-.282.836-.423 1.47-.423h1.316v-.452c0-.256-.083-.454-.25-.595-.166-.148-.394-.221-.682-.221-.262 0-.48.057-.653.173a.676.676 0 00-.308.47h-1.171c.057-.5.281-.896.672-1.19.391-.296.89-.443 1.499-.443.646 0 1.156.164 1.527.49.378.32.567.756.567 1.307V18h-1.163v-.922h-.192l.192-.26c0 .391-.144.702-.432.932-.288.23-.672.346-1.153.346zm.394-.903c.34 0 .615-.086.826-.26a.82.82 0 00.327-.672v-.643h-1.297c-.243 0-.439.07-.586.21a.737.737 0 00-.221.558c0 .25.083.448.25.596.173.14.407.211.701.211zM13.75 37v-5.284h1.085v2.604c0 .166-.01.365-.028.595a13.998 13.998 0 01-.134 1.23l1.863-4.429h1.48V37H16.93v-2.603c0-.173.006-.365.019-.577l.057-.624c.026-.205.052-.378.077-.519L15.23 37h-1.48zm5.69 0v-5.284h1.2v2.047h1.864v-2.047h1.2V37h-1.2v-2.123H20.64V37h-1.2zm7.217 0v-4.179H24.85v-1.105h4.822v1.105h-1.806V37h-1.21zm6.304.096c-.448 0-.839-.086-1.172-.26a1.923 1.923 0 01-.778-.72 2.17 2.17 0 01-.27-1.095v-1.326c0-.416.09-.778.27-1.085.186-.314.445-.557.778-.73.333-.173.724-.26 1.172-.26.442 0 .826.087 1.153.26.333.173.59.416.768.73.186.307.279.669.279 1.085v.951h-3.257v.375c0 .371.09.653.27.845.179.186.444.279.797.279.269 0 .486-.045.653-.135a.642.642 0 00.317-.413h1.182c-.09.455-.333.82-.73 1.096-.391.269-.868.403-1.432.403zM34 33.974v-.288c0-.365-.087-.644-.26-.836-.173-.199-.432-.298-.778-.298-.346 0-.608.1-.788.298-.179.198-.269.48-.269.845v.202l2.181-.02-.086.097zM36.92 37v-5.284h3.94v1.115h-2.739V37h-1.2zm5.267 1.73v-7.014h1.172v1.009h.27l-.27.279c0-.43.129-.766.385-1.01.256-.249.602-.374 1.037-.374.532 0 .958.183 1.278.548.32.365.48.855.48 1.47v1.431c0 .41-.073.769-.22 1.076a1.625 1.625 0 01-.606.701c-.262.167-.573.25-.932.25-.435 0-.781-.122-1.037-.365-.256-.25-.384-.59-.384-1.018l.269.278h-.28l.04 1.259v1.48h-1.202zm2.172-2.671c.307 0 .547-.09.72-.27.173-.179.26-.435.26-.768v-1.326c0-.333-.087-.589-.26-.768-.173-.18-.413-.27-.72-.27-.301 0-.538.094-.711.28-.173.179-.26.432-.26.758v1.326c0 .327.087.583.26.769.173.179.41.269.71.269zm5.074 1.037c-.544 0-.973-.144-1.287-.432-.314-.288-.47-.676-.47-1.163 0-.518.172-.919.518-1.2.346-.282.836-.423 1.47-.423h1.316v-.452c0-.256-.083-.454-.25-.595-.166-.148-.394-.221-.682-.221-.262 0-.48.057-.653.173a.675.675 0 00-.307.47h-1.172c.057-.5.281-.896.672-1.19.39-.296.89-.443 1.499-.443.646 0 1.156.163 1.527.49.378.32.567.756.567 1.307V37h-1.163v-.922h-.192l.193-.26c0 .391-.145.702-.433.932-.288.23-.672.346-1.153.346zm.394-.903c.34 0 .615-.086.826-.26a.82.82 0 00.327-.672v-.644h-1.297c-.243 0-.438.071-.586.212a.736.736 0 00-.22.557c0 .25.083.448.249.596.173.14.407.211.701.211zm7.4 2.152V37h-3.65v-5.284h1.2v4.18h1.633v-4.18h1.201v4.18h.72v2.449h-1.104zM59.268 37v-5.284h1.085v2.604c0 .166-.01.365-.03.595-.012.224-.031.445-.057.663-.026.218-.051.407-.077.567l1.864-4.429h1.48V37h-1.086v-2.603c0-.173.006-.365.02-.577.018-.211.038-.42.057-.624a9.79 9.79 0 01.077-.519L60.746 37h-1.479zm5.689 0v-5.284h1.085v2.604c0 .166-.01.365-.029.595-.012.224-.032.445-.057.663-.026.218-.051.407-.077.567l1.864-4.429h1.48V37h-1.087v-2.603c0-.173.007-.365.02-.577l.057-.624c.026-.205.052-.378.077-.519L66.436 37h-1.48zm7.822-3.766c-.269 0-.487-.074-.653-.22a.777.777 0 01-.24-.587c0-.243.08-.439.24-.586.166-.147.384-.22.653-.22s.484.073.644.22c.166.147.25.343.25.586a.763.763 0 01-.25.586c-.16.148-.375.221-.644.221zm0 3.862c-.269 0-.487-.074-.653-.22a.758.758 0 01-.24-.587c0-.243.08-.439.24-.586.166-.147.384-.22.653-.22s.484.073.644.22c.166.147.25.343.25.586a.744.744 0 01-.25.586c-.16.147-.375.221-.644.221z" fill="#000"/><defs><filter id="filter0_d_2002_12" x=".158" y="0" width="179.685" height="214.685" filterUnits="userSpaceOnUse" color-interpolation-filters="sRGB"><feFlood flood-opacity="0" result="BackgroundImageFix"/><feColorMatrix in="SourceAlpha" values="0 0 0 0 0 0 0 0 0 0 0 0 0 0 0 0 0 0 127 0" result="hardAlpha"/><feOffset dy="3.843"/><feGaussianBlur stdDeviation="1.921"/><feComposite in2="hardAlpha" operator="out"/><feColorMatrix values="0 0 0 0 0 0 0 0 0 0 0 0 0 0 0 0 0 0 0.25 0"/><feBlend in2="BackgroundImageFix" result="effect1_dropShadow_2002_12"/><feBlend in="SourceGraphic" in2="effect1_dropShadow_2002_12" result="shape"/></filter></defs></svg>