<svg width="180" height="261" fill="none" xmlns="http://www.w3.org/2000/svg"><g filter="url(#filter0_d_2002_13)"><rect x="4" width="172" height="253" rx="16.011" fill="#E0F4FF"/></g><mask id="a" style="mask-type:alpha" maskUnits="userSpaceOnUse" x="4" y="0" width="172" height="43"><path fill="#C9D9CD" d="M4 0h172v42.005H4z"/></mask><g mask="url(#a)"><rect x="4" y="-1.68" width="172" height="117.615" rx="16.011" fill="#875C9C"/></g><path d="M16.893 64v-7.013h.865v2.997h2.248v-2.997h.865V64h-.865v-3.228h-2.248V64h-.865zm7.218.096c-.558 0-.996-.14-1.317-.423-.32-.288-.48-.675-.48-1.162 0-.493.16-.88.48-1.163.32-.281.753-.422 1.297-.422h1.633v-.529c0-.326-.099-.576-.297-.749-.192-.18-.468-.269-.826-.269-.314 0-.577.067-.788.202a.718.718 0 00-.365.528h-.865c.058-.454.272-.816.644-1.085.371-.27.835-.404 1.393-.404.608 0 1.088.157 1.44.471.353.314.53.74.53 1.278V64h-.846v-1.009H25.6l.144-.144c0 .384-.15.689-.452.913-.294.224-.688.336-1.181.336zm.21-.682c.41 0 .747-.102 1.01-.307a.957.957 0 00.393-.788v-.75h-1.613c-.289 0-.516.08-.683.24-.166.16-.25.379-.25.654 0 .294.1.528.299.701.204.167.486.25.845.25zm5.96.682a2.46 2.46 0 01-1.115-.24 1.73 1.73 0 01-.73-.692c-.173-.307-.26-.67-.26-1.085v-1.441c0-.423.087-.785.26-1.086a1.73 1.73 0 01.73-.692c.32-.16.692-.24 1.114-.24.609 0 1.099.163 1.47.49.372.327.567.772.586 1.336h-.864c-.02-.34-.135-.6-.346-.779-.205-.185-.487-.278-.846-.278-.377 0-.678.109-.902.326-.225.212-.337.516-.337.913v1.45c0 .398.112.705.337.923.224.218.525.327.902.327.36 0 .641-.093.846-.28.211-.185.327-.444.346-.777h.864c-.019.563-.214 1.008-.586 1.335-.371.327-.861.49-1.47.49zM35.519 64v-4.525h-1.922v-.759h4.708v.76h-1.922V64h-.864zm4.123 1.73v-7.014h.865v1.009h.173l-.173.202c0-.404.131-.72.394-.951.269-.237.621-.356 1.057-.356.531 0 .954.176 1.268.529.32.345.48.823.48 1.431v1.547c0 .403-.074.752-.22 1.047a1.57 1.57 0 01-.606.682c-.256.16-.564.24-.922.24-.43 0-.779-.118-1.047-.355-.27-.237-.404-.554-.404-.951l.173.201h-.192l.019 1.201v1.537h-.865zm2.027-2.383c.366 0 .65-.11.856-.327.21-.218.317-.532.317-.941v-1.441c0-.41-.106-.724-.317-.942-.206-.218-.49-.326-.855-.326-.353 0-.635.112-.846.336-.211.224-.317.535-.317.932v1.44c0 .398.106.708.317.932.211.225.493.337.846.337zm5.661.73c-.422 0-.788-.08-1.095-.24a1.744 1.744 0 01-.72-.692c-.167-.307-.25-.67-.25-1.086v-1.402c0-.423.083-.785.25-1.086.172-.3.413-.531.72-.691.307-.16.673-.24 1.095-.24.423 0 .788.08 1.096.24.307.16.544.39.71.691.173.301.26.66.26 1.076v1.412c0 .417-.087.779-.26 1.086a1.684 1.684 0 01-.71.692c-.308.16-.673.24-1.096.24zm0-.769c.378 0 .673-.105.884-.317.212-.211.317-.522.317-.932v-1.402c0-.41-.105-.72-.317-.932-.211-.211-.506-.317-.884-.317-.371 0-.666.106-.883.317-.212.211-.318.522-.318.932v1.402c0 .41.106.72.318.932.217.212.512.317.883.317zm3.711.692v-5.284h.826v2.882c0 .186-.006.381-.02.586-.005.205-.018.4-.038.586a6.1 6.1 0 01-.047.461l2.132-4.515H55V64h-.826v-2.882c0-.186.003-.381.01-.586.012-.205.028-.4.047-.586l.048-.47L52.146 64H51.04zm5.027.067v-.807h.173c.294 0 .5-.115.614-.346.122-.23.186-.643.193-1.239l.057-2.959h3.584V64h-.865v-4.496H57.96l-.048 2.21c-.013.557-.077 1.008-.192 1.354-.109.346-.282.599-.519.76-.23.16-.534.24-.912.24h-.221zM62.42 64v-5.284h.826v2.882c0 .186-.006.381-.019.586-.006.205-.019.4-.038.586a6.1 6.1 0 01-.048.461l2.133-4.515h1.104V64h-.826v-2.882c0-.186.003-.381.01-.586.013-.205.029-.4.048-.586l.048-.47L63.525 64H62.42zm11.38 0v-5.284h.826v2.882c0 .186-.007.381-.02.586-.006.205-.019.4-.038.586a6.1 6.1 0 01-.048.461l2.133-4.515h1.105V64h-.827v-2.882c0-.186.004-.381.01-.586.013-.205.029-.4.048-.586l.048-.47L74.904 64H73.8zm5.69 0v-5.284h.864v2.2h2.229v-2.2h.864V64h-.864v-2.296h-2.23V64h-.864zm7.236 0v-4.525h-1.922v-.759h4.707v.76h-1.92V64h-.865zm6.121.096a2.3 2.3 0 01-1.095-.25 1.807 1.807 0 01-.72-.701 2.203 2.203 0 01-.25-1.066v-1.441c0-.41.083-.766.25-1.067.173-.3.413-.535.72-.701.314-.166.68-.25 1.096-.25.416 0 .778.084 1.085.25.314.166.554.4.72.701.173.301.26.657.26 1.067v.931h-3.285v.51c0 .416.105.736.317.96.21.218.512.327.903.327.333 0 .602-.058.806-.173a.764.764 0 00.375-.538h.865a1.472 1.472 0 01-.654 1.057c-.37.256-.835.384-1.392.384zm1.22-3.103v-.355c0-.417-.105-.737-.316-.961-.205-.224-.506-.336-.904-.336-.39 0-.691.112-.902.336-.212.224-.317.544-.317.96v.28h2.507l-.067.076zM96.905 64v-5.284h3.795v.788h-2.93V64h-.865zm5.325 1.73v-7.014h.864v1.009h.173l-.173.202c0-.404.132-.72.394-.951.269-.237.621-.356 1.057-.356.531 0 .954.176 1.268.529.32.345.48.823.48 1.431v1.547c0 .403-.073.752-.221 1.047a1.568 1.568 0 01-.605.682c-.256.16-.563.24-.922.24-.429 0-.778-.118-1.047-.355-.269-.237-.404-.554-.404-.951l.173.201h-.192l.019 1.201v1.537h-.864zm2.027-2.383c.365 0 .65-.11.855-.327.211-.218.317-.532.317-.941v-1.441c0-.41-.106-.724-.317-.942-.205-.218-.49-.326-.855-.326-.353 0-.634.112-.846.336-.211.224-.317.535-.317.932v1.44c0 .398.106.708.317.932.212.225.493.337.846.337zm5.199.75c-.557 0-.996-.142-1.316-.424-.32-.288-.48-.675-.48-1.162 0-.493.16-.88.48-1.163.32-.281.753-.422 1.297-.422h1.633v-.529c0-.326-.099-.576-.297-.749-.193-.18-.468-.269-.827-.269-.314 0-.576.067-.787.202a.716.716 0 00-.365.528h-.865c.058-.454.272-.816.644-1.085.371-.27.835-.404 1.393-.404.608 0 1.088.157 1.441.471.352.314.528.74.528 1.278V64h-.845v-1.009h-.145l.145-.144c0 .384-.151.689-.452.913-.295.224-.688.336-1.182.336zm.212-.683c.41 0 .746-.102 1.008-.307a.956.956 0 00.394-.788v-.75h-1.614c-.288 0-.515.08-.682.24-.166.16-.249.379-.249.654 0 .294.099.528.297.701.205.167.487.25.846.25zm7.716 1.93V64h-3.756v-5.284h.865v4.515h2.075v-4.515h.864v4.515h.721v2.114h-.769zM119.317 64v-5.284h.826v2.882c0 .186-.006.381-.019.586-.007.205-.019.4-.039.586-.012.18-.028.333-.048.461l2.133-4.515h1.105V64h-.826v-2.882c0-.186.003-.381.009-.586.013-.205.029-.4.048-.586l.048-.47L120.422 64h-1.105zm8.495.096c-.442 0-.798-.15-1.067-.451-.269-.302-.403-.695-.403-1.182v-.797h-.846V64h-.797v-5.284h.797v2.258h.846v-.72c0-.494.131-.888.394-1.182.269-.301.627-.452 1.076-.452.474 0 .855.15 1.143.452.288.294.432.688.432 1.181v2.21c0 .487-.144.88-.432 1.182-.288.3-.669.451-1.143.451zm0-.672c.243 0 .432-.084.566-.25.141-.173.212-.41.212-.711v-2.21c0-.3-.071-.534-.212-.7-.134-.174-.323-.26-.566-.26a.669.669 0 00-.558.26c-.134.166-.201.4-.201.7v2.21c0 .3.067.538.201.71a.68.68 0 00.558.25zm8.401.576v-5.284h1.172l.692 2.027c.07.205.134.41.192.615.057.199.099.352.125.461a20.9 20.9 0 01.115-.46c.058-.206.118-.414.182-.625l.654-2.018h1.172V64h-.836v-.817c0-.288.003-.602.01-.941l.019-1.028c.013-.346.025-.672.038-.98.013-.314.023-.59.029-.826l-.941 3.007h-.913l-.951-2.988c.013.288.022.647.029 1.076.012.43.022.878.028 1.345.013.468.02.913.02 1.335V64h-.836zm7.841.096c-.416 0-.781-.083-1.095-.25a1.81 1.81 0 01-.72-.701 2.199 2.199 0 01-.25-1.066v-1.441c0-.41.083-.766.25-1.067a1.81 1.81 0 01.72-.701 2.31 2.31 0 011.095-.25c.417 0 .779.084 1.086.25.314.166.554.4.72.701.173.301.26.657.26 1.067v.931h-3.286v.51c0 .416.106.736.317.96.212.218.513.327.903.327.333 0 .602-.058.807-.173a.764.764 0 00.375-.538h.865a1.473 1.473 0 01-.654 1.057c-.371.256-.835.384-1.393.384zm1.22-3.103v-.355c0-.417-.105-.737-.317-.961-.204-.224-.505-.336-.903-.336-.39 0-.691.112-.903.336-.211.224-.317.544-.317.96v.28h2.508l-.068.076zM147.035 64l1.153-2.71-1.076-2.574h.836l.922 2.306h.509v-2.306h.73v2.306h.49l.951-2.306h.826l-1.076 2.546L152.453 64h-.864l-.961-2.402h-.519V64h-.73v-2.402h-.519L147.89 64h-.855zm5.805 1.345V63.26h.432c.109-.109.221-.323.336-.643.122-.32.186-.727.193-1.22l.057-2.68h3.449v4.543h.673v2.085h-.769V64h-3.603v1.345h-.768zm1.345-2.085h2.257v-3.775h-1.767l-.039 1.93c-.006.507-.06.917-.163 1.23-.102.314-.198.52-.288.615zm5.766 2.47l.779-2.057-1.96-4.957h.96l1.23 3.267c.045.109.087.24.125.394l.096.374.096-.374c.039-.154.077-.285.115-.394l1.153-3.267h.932l-2.603 7.013h-.923zM16.865 83v-.788h1.902v-5.504l-1.902 1.421v-.96l1.585-1.182h1.181v6.225h1.557V83h-4.323zm7.745.096c-.423 0-.79-.08-1.105-.24a1.744 1.744 0 01-.72-.692c-.167-.307-.25-.67-.25-1.085v-3.17c0-.423.083-.785.25-1.086.173-.301.413-.532.72-.692.314-.16.682-.24 1.105-.24.423 0 .788.083 1.095.25.308.16.545.39.711.691.167.302.25.66.25 1.076H25.8c0-.397-.105-.7-.317-.912-.205-.218-.496-.327-.874-.327s-.676.106-.893.317c-.212.212-.317.516-.317.913v3.18c0 .397.105.704.317.922.217.211.515.317.893.317s.67-.106.874-.317c.212-.218.317-.525.317-.922h.865c0 .41-.083.768-.25 1.076a1.744 1.744 0 01-.71.7c-.308.161-.673.241-1.096.241zm4.354 1.441l.769-2.988h1.249l-1.249 2.988h-.769zM39.642 83v-7.013h2.172c.416 0 .78.087 1.095.26.314.166.557.4.73.7.173.302.26.654.26 1.057 0 .474-.126.881-.375 1.22a1.85 1.85 0 01-1 .702L43.995 83h-1.018l-1.345-2.978h-1.124V83h-.865zm.865-3.756h1.307c.358 0 .646-.112.864-.337.218-.23.327-.531.327-.903 0-.377-.11-.678-.327-.903-.218-.224-.506-.336-.864-.336h-1.307v2.479zm6.823 3.852c-.416 0-.781-.083-1.095-.25a1.807 1.807 0 01-.72-.701 2.204 2.204 0 01-.25-1.066v-1.441c0-.41.083-.766.25-1.067.172-.3.413-.534.72-.701a2.31 2.31 0 011.095-.25c.417 0 .778.084 1.086.25.314.166.554.4.72.701.173.301.26.657.26 1.067v.931H46.11v.51c0 .416.106.736.317.96.212.218.513.327.903.327.333 0 .602-.058.807-.173a.763.763 0 00.375-.538h.864a1.472 1.472 0 01-.653 1.057c-.371.256-.835.384-1.393.384zm1.22-3.103v-.355c0-.417-.105-.737-.317-.961-.205-.224-.506-.336-.903-.336-.39 0-.691.112-.903.336-.211.224-.317.544-.317.96v.28h2.508l-.068.076zM53.596 83c-.454 0-.81-.122-1.066-.365-.25-.243-.375-.586-.375-1.028v-3.103h-1.489v-.788h1.49v-1.489h.864v1.49h2.113v.787H53.02v3.103c0 .403.192.605.576.605h1.441V83h-1.44zm4.653.096c-.558 0-.996-.14-1.317-.423-.32-.288-.48-.675-.48-1.162 0-.493.16-.88.48-1.162.32-.282.753-.423 1.297-.423h1.633v-.529c0-.326-.099-.576-.297-.749-.192-.18-.468-.269-.827-.269-.313 0-.576.067-.787.202a.717.717 0 00-.365.528h-.865c.058-.454.272-.816.644-1.085.371-.27.835-.404 1.393-.404.608 0 1.088.157 1.44.471.353.314.529.74.529 1.278V83h-.845v-1.009h-.145l.145-.144c0 .385-.15.689-.452.913-.294.224-.688.336-1.181.336zm.21-.682c.41 0 .747-.103 1.01-.307a.957.957 0 00.393-.788v-.75h-1.614c-.288 0-.515.08-.682.24-.166.16-.25.379-.25.654 0 .294.1.528.298.701.205.167.487.25.846.25zm3.875.586v-.788h1.873v-3.708h-1.633v-.788h2.498v4.496h1.777V83h-4.515zm2.21-6.235c-.212 0-.379-.054-.5-.163a.563.563 0 01-.183-.442c0-.192.061-.343.183-.451.121-.116.288-.173.5-.173.21 0 .377.057.499.172.122.11.182.26.182.452 0 .186-.06.333-.182.442-.122.109-.288.163-.5.163zM70.808 83c-.307 0-.576-.06-.806-.183a1.312 1.312 0 01-.538-.518 1.56 1.56 0 01-.193-.788v-4.736h-1.777v-.788h2.642v5.524c0 .218.06.39.183.519a.662.662 0 00.49.182h1.68V83h-1.68zm5.008.096c-.423 0-.791-.08-1.105-.24a1.744 1.744 0 01-.72-.692c-.167-.307-.25-.67-.25-1.085v-3.17c0-.423.083-.785.25-1.086.173-.301.413-.532.72-.692.314-.16.682-.24 1.105-.24.423 0 .788.083 1.095.25.308.16.544.39.711.691.167.302.25.66.25 1.076h-.865c0-.397-.105-.7-.317-.912-.205-.218-.496-.327-.874-.327s-.676.106-.893.317c-.212.212-.318.516-.318.913v3.18c0 .397.106.704.318.922.217.211.515.317.893.317s.67-.106.874-.317c.212-.218.317-.525.317-.922h.865c0 .41-.083.768-.25 1.076a1.744 1.744 0 01-.71.7c-.308.161-.673.241-1.096.241zM79.47 83v-7.013h2.171c.416 0 .781.087 1.095.26.314.166.557.4.73.7.173.302.26.654.26 1.057 0 .474-.125.881-.375 1.22a1.85 1.85 0 01-.999.702L83.822 83h-1.018l-1.345-2.978h-1.124V83h-.865zm.865-3.756h1.306c.359 0 .647-.112.865-.337.218-.23.326-.531.326-.903 0-.377-.108-.678-.326-.903-.218-.224-.506-.336-.865-.336h-1.306v2.479zM85.006 83v-7.013h1.134l.73 2.267c.07.205.134.41.192.615.058.199.1.352.125.461.032-.109.073-.262.125-.46.05-.206.109-.414.172-.625l.692-2.258h1.134V83h-.846v-2.546c0-.282.01-.602.03-.96.018-.36.044-.724.076-1.096.032-.377.064-.736.096-1.076.039-.345.07-.646.096-.903l-1.133 3.507h-.913l-1.143-3.507a36.16 36.16 0 01.183 1.921c.025.366.047.73.067 1.096.019.365.028.704.028 1.018V83h-.845zm11.552 0v-5.284h.826v2.882c0 .186-.006.381-.019.586-.006.205-.019.4-.038.586a6.1 6.1 0 01-.048.462l2.132-4.516h1.105V83h-.826v-2.882c0-.186.003-.381.01-.586.012-.205.028-.4.048-.586l.048-.47L97.663 83h-1.105zm11.524 0l-.807-7.013h.826l.528 5.188.039.442c.012.147.022.288.028.422.013.135.02.247.02.337a3.88 3.88 0 00.028-.337l.039-.422c.019-.154.038-.301.058-.442l.653-5.188h.893l.596 5.188c.019.14.035.288.048.442.019.147.035.288.048.422.019.135.032.247.038.337.007-.09.013-.202.02-.337l.038-.422c.019-.154.035-.301.048-.442l.548-5.188h.787L111.732 83h-1.085l-.596-5.284a9.455 9.455 0 00-.048-.432l-.038-.394c-.013-.122-.023-.22-.029-.298a4.196 4.196 0 01-.039.298c-.013.122-.025.253-.038.394-.013.14-.029.285-.048.432L109.167 83h-1.085zm7.524.077c-.423 0-.788-.08-1.095-.24a1.748 1.748 0 01-.721-.692c-.166-.307-.249-.67-.249-1.086v-1.402c0-.423.083-.785.249-1.086.173-.3.414-.531.721-.691.307-.16.672-.24 1.095-.24.423 0 .788.08 1.095.24.308.16.545.39.711.691.173.301.26.66.26 1.076v1.412c0 .417-.087.779-.26 1.086a1.677 1.677 0 01-.711.692c-.307.16-.672.24-1.095.24zm0-.769c.378 0 .673-.105.884-.317.211-.211.317-.522.317-.932v-1.402c0-.41-.106-.72-.317-.932-.211-.211-.506-.317-.884-.317-.371 0-.666.106-.884.317-.211.211-.317.522-.317.932v1.402c0 .41.106.72.317.932.218.212.513.317.884.317zm3.874.692v-5.284h.846v1.009h.201l-.278.624c0-.57.121-.999.365-1.287.25-.294.618-.442 1.105-.442.557 0 .999.176 1.325.529.333.345.5.816.5 1.412v.317h-.865v-.24c0-.417-.102-.734-.307-.951-.199-.225-.484-.337-.855-.337-.365 0-.653.112-.865.337-.205.224-.307.54-.307.95V83h-.865zm7.198.096c-.525 0-.951-.176-1.278-.528-.32-.353-.48-.83-.48-1.432V79.59c0-.609.16-1.09.48-1.441.321-.353.746-.529 1.278-.529.436 0 .785.119 1.047.356.263.237.394.554.394.95l-.173-.201h.192l-.019-1.2v-1.538h.865V83h-.865v-1.009h-.173l.173-.201c0 .403-.131.723-.394.96-.262.23-.611.346-1.047.346zm.288-.75c.359 0 .641-.111.846-.336.205-.224.307-.534.307-.931v-1.441c0-.397-.102-.708-.307-.932-.205-.224-.487-.336-.846-.336-.365 0-.653.108-.864.326-.212.218-.317.532-.317.942v1.44c0 .41.105.724.317.942.211.218.499.327.864.327zm3.711.654v-7.013h2.257c.436 0 .814.087 1.134.26.32.166.567.403.74.71.179.308.269.673.269 1.096 0 .416-.09.78-.269 1.095-.173.307-.42.547-.74.72-.32.167-.698.25-1.134.25h-1.392V83h-.865zm.865-3.66h1.392c.378 0 .679-.115.904-.346.23-.237.345-.55.345-.942 0-.397-.115-.71-.345-.94-.225-.231-.526-.347-.904-.347h-1.392v2.575zm5.007 3.66v-5.284h.845v1.009h.202l-.278.624c0-.57.121-.999.365-1.287.249-.294.618-.442 1.104-.442.558 0 1 .176 1.326.529.333.345.5.816.5 1.412v.317h-.865v-.24c0-.417-.102-.734-.307-.951-.199-.225-.484-.337-.855-.337-.365 0-.654.112-.865.337-.205.224-.307.54-.307.95V83h-.865zm7.505.096c-.416 0-.781-.083-1.095-.25a1.81 1.81 0 01-.72-.701 2.199 2.199 0 01-.25-1.066v-1.441c0-.41.083-.766.25-1.067a1.81 1.81 0 01.72-.701 2.31 2.31 0 011.095-.25c.417 0 .779.084 1.086.25.314.166.554.4.72.701.173.301.26.657.26 1.067v.931h-3.286v.51c0 .416.106.736.317.96.212.218.513.327.903.327.333 0 .602-.058.807-.173a.764.764 0 00.375-.538h.865a1.473 1.473 0 01-.654 1.057c-.371.256-.835.384-1.393.384zm1.22-3.103v-.355c0-.417-.105-.737-.317-.961-.204-.224-.505-.336-.903-.336-.39 0-.691.112-.903.336-.211.224-.317.544-.317.96v.28h2.508l-.068.076zm4.307 3.084a2.5 2.5 0 01-.942-.163 1.608 1.608 0 01-.634-.48 1.474 1.474 0 01-.278-.73h.864a.677.677 0 00.308.441c.173.109.4.163.682.163h.403c.34 0 .593-.067.759-.201a.693.693 0 00.25-.558.65.65 0 00-.231-.528c-.147-.135-.368-.224-.662-.269l-.711-.115c-.519-.09-.907-.25-1.163-.48-.25-.238-.374-.58-.374-1.028 0-.474.15-.84.451-1.096.301-.262.753-.394 1.355-.394h.365c.506 0 .912.119 1.22.356.307.237.493.557.557.96h-.865a.612.612 0 00-.288-.393c-.154-.103-.362-.154-.624-.154h-.365c-.327 0-.567.06-.721.183-.147.121-.221.304-.221.547 0 .218.064.378.192.48.128.103.33.177.606.221l.71.116c.57.09.984.256 1.24.5.262.243.394.595.394 1.056 0 .487-.157.871-.471 1.153-.308.275-.775.413-1.403.413h-.403zm5.689 0c-.358 0-.672-.055-.941-.163a1.601 1.601 0 01-.634-.48 1.465 1.465 0 01-.279-.73h.865a.676.676 0 00.307.441c.173.109.401.163.682.163h.404c.339 0 .592-.067.759-.201a.696.696 0 00.25-.558.65.65 0 00-.231-.528c-.147-.135-.368-.224-.663-.269l-.711-.115c-.518-.09-.906-.25-1.162-.48-.25-.238-.375-.58-.375-1.028 0-.474.151-.84.452-1.096.301-.262.752-.394 1.354-.394h.365c.506 0 .913.119 1.22.356.308.237.494.557.558.96h-.865a.615.615 0 00-.288-.393c-.154-.103-.362-.154-.625-.154h-.365c-.326 0-.567.06-.72.183-.148.121-.221.304-.221.547 0 .218.064.378.192.48.128.103.33.177.605.221l.711.116c.57.09.983.256 1.239.5.263.243.394.595.394 1.056 0 .487-.157.871-.471 1.153-.307.275-.774.413-1.402.413h-.404zm4.556 1.46l.769-2.988h1.249l-1.249 2.988h-.769zm-140.944 17.54c-.423 0-.788-.08-1.095-.24a1.744 1.744 0 01-.72-.692c-.167-.307-.25-.669-.25-1.086v-1.402c0-.423.083-.785.25-1.086.172-.3.412-.531.72-.691.307-.16.672-.24 1.095-.24.423 0 .788.08 1.095.24.308.16.545.39.711.691.173.301.26.66.26 1.076v1.412c0 .417-.087.779-.26 1.086a1.683 1.683 0 01-.71.692c-.308.16-.673.24-1.096.24zm0-.769c.378 0 .672-.105.884-.317.211-.211.317-.522.317-.932v-1.402c0-.41-.106-.72-.317-.932-.211-.211-.506-.317-.884-.317-.371 0-.666.106-.884.317-.211.211-.317.522-.317.932v1.402c0 .41.106.721.317.932.218.212.513.317.884.317zm5.69.788c-.622 0-1.115-.182-1.48-.548-.358-.371-.538-.877-.538-1.517v-2.402c0-.846.212-1.496.634-1.95.423-.461 1.028-.692 1.816-.692h1.345v.865h-1.345c-.519 0-.913.153-1.182.46-.269.302-.403.74-.403 1.317v.624h.134l-.134.192c.006-.377.134-.672.384-.883.25-.212.59-.317 1.018-.317.558 0 .99.179 1.297.538.314.358.471.851.471 1.48v.768c0 .429-.08.797-.24 1.104-.16.308-.39.545-.692.711-.3.167-.663.25-1.085.25zm0-.768c.371 0 .656-.113.855-.337.198-.224.297-.544.297-.96v-.769c0-.416-.099-.736-.297-.96-.199-.225-.484-.337-.855-.337-.372 0-.657.112-.855.336-.199.218-.298.538-.298.961v.769c0 .416.1.736.298.96.198.224.483.337.855.337zm5.69.768c-.417 0-.782-.083-1.096-.25a1.803 1.803 0 01-.72-.701 2.202 2.202 0 01-.25-1.066v-1.441c0-.41.083-.766.25-1.067.173-.3.413-.534.72-.701a2.31 2.31 0 011.095-.25c.417 0 .779.084 1.086.25.314.166.554.4.72.701.173.301.26.657.26 1.067v.931H29.04v.51c0 .416.106.736.317.96.212.218.513.327.903.327.333 0 .602-.058.807-.173a.764.764 0 00.375-.538h.865a1.473 1.473 0 01-.654 1.057c-.371.256-.835.384-1.393.384zm1.22-3.103v-.355c0-.417-.106-.737-.318-.961-.205-.224-.506-.336-.903-.336-.39 0-.691.112-.903.336-.211.224-.317.544-.317.96v.28h2.508l-.068.076zm4.488 3.103c-.422 0-.794-.08-1.114-.24a1.73 1.73 0 01-.73-.692c-.173-.307-.26-.669-.26-1.085v-1.441c0-.423.087-.785.26-1.086a1.73 1.73 0 01.73-.692c.32-.16.691-.24 1.114-.24.609 0 1.099.163 1.47.49.372.327.567.772.586 1.335h-.865c-.019-.339-.134-.598-.345-.778-.205-.185-.487-.278-.846-.278-.378 0-.679.109-.903.326-.224.212-.336.516-.336.913v1.451c0 .397.112.704.336.922.224.218.525.327.903.327.359 0 .64-.093.846-.279.21-.186.326-.445.345-.778h.865c-.02.563-.215 1.008-.586 1.335-.371.327-.861.49-1.47.49zm3.692-.096v-5.284h3.958V102h-.865v-4.496h-2.229V102h-.864zm7.668.096c-.416 0-.781-.083-1.095-.25a1.803 1.803 0 01-.72-.701 2.203 2.203 0 01-.25-1.066v-1.441c0-.41.083-.766.25-1.067.172-.3.413-.534.72-.701a2.31 2.31 0 011.095-.25c.417 0 .778.084 1.086.25.314.166.554.4.72.701.173.301.26.657.26 1.067v.931H46.11v.51c0 .416.106.736.317.96.212.218.513.327.903.327.333 0 .602-.058.807-.173a.764.764 0 00.375-.538h.864a1.473 1.473 0 01-.653 1.057c-.371.256-.835.384-1.393.384zm1.22-3.103v-.355c0-.417-.105-.737-.317-.961-.205-.224-.506-.336-.903-.336-.39 0-.691.112-.903.336-.211.224-.317.544-.317.96v.28h2.508l-.068.076zM54.077 102v-1.921c-.103.025-.26.051-.471.077a7.097 7.097 0 01-.653.028c-.654.007-1.163-.15-1.528-.47-.358-.327-.538-.782-.538-1.365v-1.633h.865v1.633c0 .327.109.586.326.779.225.185.532.278.923.278.269 0 .496-.01.682-.029a3.52 3.52 0 00.394-.067v-2.594h.864V102h-.864zm2.654 0v-5.284h.826v2.882a9.4 9.4 0 01-.02.586 8.055 8.055 0 01-.038.586 6.1 6.1 0 01-.048.461l2.133-4.515h1.105V102h-.827v-2.882c0-.186.004-.381.01-.586.013-.205.029-.4.048-.586l.048-.47L57.835 102h-1.104zm5.69 0v-5.284h2.286c.55 0 .976.125 1.277.375.301.243.452.586.452 1.028 0 .365-.125.66-.375.884-.25.217-.58.326-.99.326v-.076c.449 0 .808.112 1.077.336.275.224.413.525.413.903 0 .474-.16.845-.48 1.114-.32.263-.77.394-1.346.394H62.42zm.845-.759h1.47c.307 0 .544-.067.71-.202.173-.134.26-.323.26-.566 0-.25-.087-.442-.26-.577-.166-.134-.403-.202-.71-.202h-1.47v1.547zm0-2.296h1.44c.27 0 .481-.064.635-.192.16-.128.24-.308.24-.538 0-.23-.077-.41-.23-.538-.154-.135-.369-.202-.644-.202h-1.441v1.47zm12.513 3.151c-.417 0-.782-.083-1.096-.25a1.803 1.803 0 01-.72-.701 2.203 2.203 0 01-.25-1.066v-1.441c0-.41.083-.766.25-1.067.173-.3.413-.534.72-.701.314-.166.68-.25 1.096-.25.416 0 .778.084 1.085.25.314.166.554.4.72.701.174.301.26.657.26 1.067v.931h-3.285v.51c0 .416.105.736.317.96.21.218.512.327.903.327.333 0 .602-.058.806-.173a.764.764 0 00.375-.538h.865a1.473 1.473 0 01-.654 1.057c-.37.256-.835.384-1.392.384zm1.22-3.103v-.355c0-.417-.106-.737-.317-.961-.205-.224-.506-.336-.903-.336-.391 0-.692.112-.903.336-.212.224-.318.544-.318.96v.28h2.508l-.067.076zm1.875 4.352v-2.085h.433c.109-.109.22-.323.336-.643.122-.321.186-.727.192-1.22l.058-2.68h3.448v4.543h.673v2.085h-.768V102h-3.603v1.345h-.769zm1.345-2.085h2.258v-3.775h-1.768l-.038 1.93c-.007.507-.061.917-.164 1.23-.102.314-.198.519-.288.615zm4.96.74v-5.284h.826v2.882a9.4 9.4 0 01-.02.586 8.16 8.16 0 01-.038.586c-.012.18-.028.333-.048.461l2.133-4.515h1.105V102h-.826v-2.882c0-.186.003-.381.01-.586.012-.205.028-.4.047-.586l.048-.47L86.284 102h-1.105zm5.69 0v-5.284h.864v2.2h2.229v-2.2h.864V102h-.864v-2.296h-2.229V102h-.865zm5.41 0v-5.284h.808v1.94h.432c.57 0 1.018.151 1.345.452.333.295.5.702.5 1.22 0 .519-.167.929-.5 1.23-.327.295-.775.442-1.345.442h-1.24zm.808-.692h.432c.34 0 .602-.086.788-.259.192-.173.288-.413.288-.721 0-.307-.096-.547-.288-.72-.186-.173-.449-.26-.788-.26h-.432v1.96zm2.9.692v-5.284h.808V102h-.807zm2.261 0v-5.284h.826v2.882c0 .186-.006.381-.019.586a8.038 8.038 0 01-.039.586c-.012.18-.028.333-.048.461l2.133-4.515h1.105V102h-.826v-2.882c0-.186.003-.381.009-.586.013-.205.029-.4.048-.586l.048-.47-2.132 4.524h-1.105zm2.017-6.148c-.461 0-.832-.128-1.114-.385-.282-.256-.423-.592-.423-1.008h.682c0 .25.077.451.231.605.154.154.358.23.615.23.262 0 .47-.076.624-.23a.8.8 0 00.24-.605h.682c0 .416-.141.752-.422 1.008-.282.257-.654.385-1.115.385zm8.747 7.493v-2.085h.433c.109-.109.221-.323.336-.643.122-.321.186-.727.192-1.22l.058-2.68h3.448v4.543h.673v2.085h-.769V102h-3.602v1.345h-.769zm1.345-2.085h2.258v-3.775h-1.768l-.038 1.93c-.007.507-.061.917-.164 1.23-.102.314-.198.519-.288.615zm6.939.817c-.423 0-.788-.08-1.095-.24a1.742 1.742 0 01-.721-.692c-.166-.307-.25-.669-.25-1.086v-1.402c0-.423.084-.785.25-1.086.173-.3.413-.531.721-.691.307-.16.672-.24 1.095-.24.423 0 .788.08 1.095.24.307.16.544.39.711.691.173.301.259.66.259 1.076v1.412c0 .417-.086.779-.259 1.086a1.689 1.689 0 01-.711.692c-.307.16-.672.24-1.095.24zm0-.769c.378 0 .672-.105.884-.317.211-.211.317-.522.317-.932v-1.402c0-.41-.106-.72-.317-.932-.212-.211-.506-.317-.884-.317-.372 0-.666.106-.884.317-.211.211-.317.522-.317.932v1.402c0 .41.106.721.317.932.218.212.512.317.884.317zm5.709.788c-.423 0-.794-.08-1.115-.24a1.73 1.73 0 01-.73-.692c-.173-.307-.259-.669-.259-1.085v-1.441c0-.423.086-.785.259-1.086a1.73 1.73 0 01.73-.692c.321-.16.692-.24 1.115-.24.608 0 1.098.163 1.47.49.371.327.566.772.586 1.335h-.865c-.019-.339-.135-.598-.346-.778-.205-.185-.487-.278-.845-.278-.378 0-.679.109-.903.326-.225.212-.337.516-.337.913v1.451c0 .397.112.704.337.922.224.218.525.327.903.327.358 0 .64-.093.845-.279.211-.186.327-.445.346-.778h.865c-.02.563-.215 1.008-.586 1.335-.372.327-.862.49-1.47.49zm5.238-.096v-4.525h-1.922v-.759h4.708v.76h-1.922V102h-.864zm4.95 1.729l.778-2.056-1.96-4.957h.961l1.229 3.267c.045.108.087.24.125.393.039.148.071.273.096.375l.096-.375a4.42 4.42 0 01.116-.393l1.153-3.267h.931l-2.603 7.013h-.922zm4.882-1.729v-5.284h3.958V102h-.864v-4.496h-2.229V102h-.865zm11.409 0v-5.284h.864v2.181h.903l1.537-2.18h.99l-1.777 2.516 1.806 2.767h-1.009l-1.537-2.354h-.913V102h-.864zM18.421 122.096c-.557 0-.996-.141-1.316-.423-.32-.288-.48-.675-.48-1.162 0-.493.16-.881.48-1.162.32-.282.752-.423 1.297-.423h1.633v-.529c0-.326-.1-.576-.298-.749-.192-.179-.467-.269-.826-.269-.314 0-.577.067-.788.202a.717.717 0 00-.365.528h-.865c.058-.454.273-.816.644-1.085.372-.269.836-.404 1.393-.404.608 0 1.089.157 1.441.471.352.314.528.74.528 1.278V122h-.845v-1.009h-.144l.144-.144c0 .384-.15.689-.451.913-.295.224-.689.336-1.182.336zm.211-.682c.41 0 .746-.102 1.009-.307a.957.957 0 00.394-.788v-.75H18.42c-.288 0-.516.081-.682.241-.167.16-.25.378-.25.653 0 .295.1.528.298.701.205.167.487.25.845.25zm3.99.586v-5.284h.864v2.181h.903l1.537-2.181h.99l-1.777 2.517L26.945 122h-1.01l-1.536-2.354h-.913V122h-.864zm7.207 0v-4.525h-1.921v-.759h4.707v.759h-1.921V122h-.865zm4.95 1.729l.778-2.056-1.96-4.957h.961l1.23 3.267c.045.108.086.24.125.393l.096.375c.025-.102.057-.227.096-.375.038-.153.077-.285.115-.393l1.153-3.267h.932l-2.604 7.013h-.922zm6.4-1.633c-.557 0-.995-.141-1.316-.423-.32-.288-.48-.675-.48-1.162 0-.493.16-.881.48-1.162.32-.282.753-.423 1.297-.423h1.634v-.529c0-.326-.1-.576-.298-.749-.193-.179-.468-.269-.827-.269-.313 0-.576.067-.787.202a.717.717 0 00-.365.528h-.865c.058-.454.272-.816.644-1.085.371-.269.836-.404 1.393-.404.608 0 1.088.157 1.44.471.353.314.53.74.53 1.278V122h-.846v-1.009h-.144l.144-.144c0 .384-.15.689-.452.913-.294.224-.688.336-1.181.336zm.212-.682c.41 0 .746-.102 1.009-.307a.957.957 0 00.394-.788v-.75H41.18c-.289 0-.516.081-.683.241-.166.16-.25.378-.25.653 0 .295.1.528.298.701.205.167.487.25.846.25zm3.297.653v-.807h.173c.295 0 .5-.115.615-.346.122-.23.186-.643.192-1.239l.058-2.959h3.583V122h-.864v-4.496H46.58l-.048 2.21c-.013.557-.077 1.008-.192 1.354-.11.346-.282.599-.519.759-.23.16-.535.24-.913.24h-.22zM51.08 122v-5.284h.865v1.941H53.5c.596 0 1.063.15 1.403.451.346.295.519.702.519 1.22 0 .513-.173.919-.52 1.22-.345.301-.813.452-1.402.452h-2.42zm.865-.788H53.5c.333 0 .586-.073.76-.221.178-.153.268-.374.268-.663 0-.288-.09-.506-.269-.653-.173-.154-.426-.23-.759-.23h-1.556v1.767zm4.787.788v-5.284h.864v2.2h2.229v-2.2h.865V122h-.865v-2.296h-2.229V122h-.864zm5.41 0v-5.284h.808v1.941h.432c.57 0 1.018.15 1.345.451.333.295.5.702.5 1.22 0 .519-.167.929-.5 1.23-.327.295-.775.442-1.345.442h-1.24zm.808-.692h.432c.34 0 .602-.086.788-.259.192-.173.288-.413.288-.721 0-.307-.096-.547-.288-.72-.186-.173-.449-.259-.788-.259h-.432v1.959zm2.9.692v-5.284h.808V122h-.807zm2.088 0v-5.284h1.172l.692 2.027c.07.205.134.41.192.615.058.199.1.352.125.461.025-.109.064-.262.115-.461.058-.205.118-.413.182-.624l.654-2.018h1.172V122h-.836v-.817c0-.288.003-.602.01-.941l.019-1.028.038-.98c.013-.314.023-.589.03-.826l-.942 3.007h-.913l-.951-2.988c.013.288.022.647.029 1.076.013.429.022.878.029 1.345.012.468.019.913.019 1.335V122h-.836zm10.937 1.345v-2.085h.433c.109-.109.22-.323.336-.643.122-.321.186-.727.192-1.22l.058-2.681h3.448v4.544h.673v2.085h-.768V122h-3.603v1.345h-.769zm1.345-2.085h2.258v-3.775H80.71l-.038 1.931c-.007.506-.061.916-.164 1.229-.102.314-.198.519-.288.615zm6.478.836c-.557 0-.996-.141-1.316-.423-.32-.288-.48-.675-.48-1.162 0-.493.16-.881.48-1.162.32-.282.752-.423 1.296-.423h1.634v-.529c0-.326-.1-.576-.298-.749-.192-.179-.468-.269-.826-.269-.314 0-.577.067-.788.202a.717.717 0 00-.365.528h-.865c.058-.454.273-.816.644-1.085s.836-.404 1.393-.404c.608 0 1.089.157 1.44.471.353.314.53.74.53 1.278V122h-.846v-1.009h-.144l.144-.144c0 .384-.15.689-.452.913-.294.224-.688.336-1.181.336zm.211-.682c.41 0 .746-.102 1.009-.307a.957.957 0 00.394-.788v-.75h-1.614c-.288 0-.516.081-.682.241-.167.16-.25.378-.25.653 0 .295.1.528.298.701.205.167.486.25.845.25zm3.96.586v-5.284h.865v2.2h2.229v-2.2h.864V122h-.864v-2.296h-2.229V122h-.865zm5.69 0v-5.284h.865v2.2h2.229v-2.2h.864V122h-.864v-2.296h-2.23V122h-.864zm5.411 0v-5.284h.807v1.941h.433c.57 0 1.018.15 1.344.451.334.295.5.702.5 1.22 0 .519-.166.929-.5 1.23-.326.295-.774.442-1.344.442h-1.24zm.807-.692h.433c.339 0 .602-.086.787-.259.192-.173.288-.413.288-.721 0-.307-.096-.547-.288-.72-.185-.173-.448-.259-.787-.259h-.433v1.959zm2.901.692v-5.284h.807V122h-.807zm2.088 0v-5.284h1.172l.691 2.027c.071.205.135.41.192.615.058.199.1.352.125.461.026-.109.064-.262.116-.461.057-.205.118-.413.182-.624l.653-2.018h1.172V122h-.835v-.817c0-.288.003-.602.009-.941l.019-1.028.039-.98c.013-.314.022-.589.029-.826l-.942 3.007h-.912l-.951-2.988c.012.288.022.647.028 1.076.013.429.023.878.029 1.345.013.468.019.913.019 1.335V122h-.835zm13.531.077c-.423 0-.788-.08-1.095-.24a1.742 1.742 0 01-.721-.692c-.166-.307-.25-.669-.25-1.086v-1.402c0-.423.084-.785.25-1.086a1.74 1.74 0 01.721-.691c.307-.161.672-.241 1.095-.241.423 0 .788.08 1.095.241.307.16.544.39.711.691.173.301.259.66.259 1.076v1.412c0 .417-.086.779-.259 1.086a1.689 1.689 0 01-.711.692c-.307.16-.672.24-1.095.24zm0-.769c.378 0 .672-.105.884-.317.211-.211.317-.522.317-.932v-1.402c0-.41-.106-.721-.317-.932-.212-.211-.506-.317-.884-.317-.372 0-.666.106-.884.317-.211.211-.317.522-.317.932v1.402c0 .41.106.721.317.932.218.212.512.317.884.317zM16.932 141v-5.284h.865v2.181h.902l1.538-2.181h.99l-1.778 2.517L21.255 141h-1.009l-1.537-2.354h-.912V141h-.865zm4.998.067v-.807h.173c.294 0 .5-.115.615-.346.121-.23.185-.643.192-1.239l.057-2.959h3.584V141h-.865v-4.496h-1.864l-.048 2.21c-.012.557-.076 1.008-.192 1.354-.109.346-.282.599-.519.759-.23.16-.534.24-.912.24h-.221zm6.352-.067v-5.284h.826v2.882c0 .186-.006.381-.019.586a8.055 8.055 0 01-.038.586c-.013.18-.029.333-.048.461l2.133-4.515h1.104V141h-.826v-2.882c0-.186.003-.381.01-.586.013-.205.029-.4.048-.586l.048-.471L29.387 141h-1.105zm7.669.096c-.416 0-.781-.083-1.095-.25a1.803 1.803 0 01-.72-.701 2.203 2.203 0 01-.25-1.066v-1.441c0-.41.083-.766.25-1.067a1.81 1.81 0 01.72-.701c.314-.167.679-.25 1.095-.25.416 0 .778.083 1.085.25.314.167.554.4.721.701.173.301.26.657.26 1.067v.931H34.73v.51c0 .416.106.736.317.96.211.218.512.327.903.327.333 0 .602-.058.807-.173a.764.764 0 00.375-.538h.864a1.473 1.473 0 01-.653 1.057c-.372.256-.836.384-1.393.384zm1.22-3.103v-.355c0-.417-.106-.737-.317-.961-.205-.224-.506-.336-.903-.336-.39 0-.692.112-.903.336-.211.224-.317.544-.317.961v.278h2.507l-.067.077zm2.49 3.007v-5.284h.865v2.2h2.229v-2.2h.865V141h-.865v-2.296h-2.229V141h-.864zm7.237 0v-4.525h-1.921v-.759h4.707v.759h-1.921V141h-.865zm5.66.096c-.556 0-.995-.141-1.315-.423-.32-.288-.48-.675-.48-1.162 0-.493.16-.881.48-1.162.32-.282.752-.423 1.297-.423h1.633v-.529c0-.326-.1-.576-.298-.749-.192-.179-.468-.269-.826-.269-.314 0-.577.067-.788.202a.717.717 0 00-.365.528h-.865c.058-.454.273-.816.644-1.085.372-.269.836-.404 1.393-.404.608 0 1.089.157 1.441.471.352.314.528.74.528 1.278V141h-.845v-1.009h-.144l.144-.144c0 .384-.15.689-.452.913-.294.224-.688.336-1.181.336zm.212-.682c.41 0 .746-.102 1.009-.307a.957.957 0 00.394-.788v-.75h-1.614c-.288 0-.516.081-.682.241-.167.16-.25.378-.25.653 0 .295.1.528.298.701.205.167.486.25.845.25zm3.538.586l1.873-2.719-1.758-2.565h1.018l1.048 1.633c.044.071.086.148.125.231.044.083.08.151.105.202a3.08 3.08 0 01.087-.202c.044-.083.09-.16.134-.231l1.057-1.633h1.009l-1.758 2.575L61.11 141h-1.018l-1.134-1.729a2.835 2.835 0 01-.134-.24 2.129 2.129 0 00-.106-.231 3.625 3.625 0 01-.26.471L57.318 141h-1.01zm6.794 1.537l.769-2.988h1.249l-1.25 2.988h-.768zm12.427-1.47c-.557 0-1.015-.118-1.374-.355a1.412 1.412 0 01-.634-.961h.913c.044.16.163.292.355.394.199.102.445.154.74.154h.451c.314 0 .557-.074.73-.221a.713.713 0 00.27-.577c0-.256-.087-.458-.26-.605-.166-.147-.413-.221-.74-.221h-1.162v-.749h1.133c.295 0 .52-.071.673-.212a.718.718 0 00.23-.557.726.726 0 00-.105-.403.612.612 0 00-.298-.25 1.236 1.236 0 00-.49-.086h-.48c-.256 0-.477.057-.663.173-.186.115-.298.256-.336.422h-.913c.064-.397.272-.724.624-.98.353-.256.782-.384 1.288-.384h.48c.378 0 .701.061.97.183a1.325 1.325 0 01.836 1.277c0 .314-.102.573-.307.778-.205.199-.493.311-.865.337v.038c.455.032.785.154.99.365.205.211.307.516.307.913 0 .467-.173.839-.519 1.114-.346.276-.81.413-1.393.413h-.451zm5.478.029c-.557 0-.996-.141-1.316-.423-.32-.288-.48-.675-.48-1.162 0-.493.16-.881.48-1.162.32-.282.752-.423 1.297-.423h1.633v-.529c0-.326-.1-.576-.298-.749-.192-.179-.467-.269-.826-.269-.314 0-.576.067-.788.202a.717.717 0 00-.365.528h-.864c.057-.454.272-.816.643-1.085.372-.269.836-.404 1.393-.404.609 0 1.089.157 1.441.471.353.314.529.74.529 1.278V141h-.846v-1.009h-.144l.144-.144c0 .384-.15.689-.451.913-.295.224-.689.336-1.182.336zm.211-.682c.41 0 .747-.102 1.01-.307a.957.957 0 00.393-.788v-.75h-1.614c-.288 0-.516.081-.682.241-.166.16-.25.378-.25.653 0 .295.1.528.298.701.205.167.487.25.845.25zm3.99.586v-5.284h.864v2.181h.903l1.537-2.181h.99l-1.777 2.517L89.53 141h-1.009l-1.537-2.354h-.913V141h-.864zm7.178.096c-.557 0-.995-.141-1.316-.423-.32-.288-.48-.675-.48-1.162 0-.493.16-.881.48-1.162.32-.282.753-.423 1.297-.423H94v-.529c0-.326-.099-.576-.297-.749-.193-.179-.468-.269-.827-.269-.314 0-.576.067-.787.202a.717.717 0 00-.365.528h-.865c.058-.454.272-.816.644-1.085.371-.269.835-.404 1.393-.404.608 0 1.088.157 1.44.471.353.314.529.74.529 1.278V141h-.845v-1.009h-.144l.144-.144c0 .384-.15.689-.452.913-.295.224-.688.336-1.182.336zm.212-.682c.41 0 .746-.102 1.008-.307a.957.957 0 00.394-.788v-.75h-1.614c-.288 0-.515.081-.682.241-.166.16-.25.378-.25.653 0 .295.1.528.298.701.205.167.487.25.846.25zm5.69.653c-.558 0-1.016-.118-1.374-.355a1.412 1.412 0 01-.634-.961h.912c.045.16.164.292.356.394.198.102.445.154.74.154h.45c.315 0 .558-.074.731-.221a.712.712 0 00.269-.577c0-.256-.086-.458-.26-.605-.166-.147-.412-.221-.74-.221h-1.162v-.749h1.134c.295 0 .519-.071.673-.212a.718.718 0 00.23-.557.727.727 0 00-.106-.403.612.612 0 00-.297-.25 1.236 1.236 0 00-.49-.086h-.48c-.257 0-.478.057-.663.173-.186.115-.298.256-.337.422h-.912c.064-.397.272-.724.624-.98s.781-.384 1.287-.384h.48c.379 0 .702.061.971.183.269.115.474.281.615.499.147.218.221.477.221.778 0 .314-.103.573-.308.778-.205.199-.493.311-.864.337v.038c.454.032.784.154.989.365.205.211.308.516.308.913 0 .467-.173.839-.519 1.114-.346.276-.81.413-1.393.413h-.452zm5.478.029c-.557 0-.996-.141-1.316-.423-.321-.288-.481-.675-.481-1.162 0-.493.16-.881.481-1.162.32-.282.752-.423 1.297-.423h1.633v-.529c0-.326-.1-.576-.298-.749-.192-.179-.468-.269-.826-.269-.314 0-.577.067-.788.202a.718.718 0 00-.365.528h-.865c.058-.454.272-.816.644-1.085.371-.269.836-.404 1.393-.404.608 0 1.089.157 1.441.471.352.314.528.74.528 1.278V141h-.845v-1.009h-.144l.144-.144c0 .384-.151.689-.452.913-.294.224-.688.336-1.181.336zm.211-.682c.41 0 .746-.102 1.009-.307a.959.959 0 00.394-.788v-.75h-1.614c-.288 0-.516.081-.682.241-.167.16-.25.378-.25.653 0 .295.099.528.298.701.205.167.486.25.845.25zm3.538.586l1.873-2.719-1.758-2.565h1.018l1.048 1.633c.044.071.086.148.124.231.045.083.08.151.106.202.019-.051.048-.119.087-.202a3.45 3.45 0 01.134-.231l1.057-1.633h1.009l-1.759 2.575 1.864 2.709H111.3l-1.134-1.729a2.867 2.867 0 01-.134-.24 2.244 2.244 0 00-.106-.231 4.007 4.007 0 01-.115.231 1.813 1.813 0 01-.144.24L108.524 141h-1.009zm11.802 0v-5.284h.826v2.882c0 .186-.006.381-.019.586a8.038 8.038 0 01-.039.586c-.012.18-.028.333-.048.461l2.133-4.515h1.105V141h-.826v-2.882c0-.186.003-.381.009-.586.013-.205.029-.4.048-.586l.048-.471-2.132 4.525h-1.105zM18.45 160v-4.525h-1.922v-.759h4.708v.759h-1.922V160h-.864zm6.122.077c-.423 0-.788-.08-1.095-.24a1.744 1.744 0 01-.721-.692c-.166-.307-.25-.669-.25-1.086v-1.402c0-.423.084-.785.25-1.086.173-.301.413-.531.72-.691.308-.161.673-.241 1.096-.241.422 0 .787.08 1.095.241.307.16.544.39.71.691.174.301.26.66.26 1.076v1.412c0 .417-.086.779-.26 1.086a1.683 1.683 0 01-.71.692c-.308.16-.673.24-1.095.24zm0-.769c.378 0 .672-.105.884-.317.21-.211.317-.522.317-.932v-1.402c0-.41-.106-.721-.317-.932-.212-.211-.506-.317-.884-.317-.372 0-.666.106-.884.317-.211.211-.317.522-.317.932v1.402c0 .41.106.721.317.932.218.212.512.317.884.317zm3.71.692v-5.284h2.287c.55 0 .976.125 1.277.375.302.243.452.586.452 1.028 0 .365-.125.66-.375.884-.25.217-.58.326-.99.326v-.077c.45 0 .808.113 1.077.337.275.224.413.525.413.903 0 .474-.16.845-.48 1.114-.32.263-.769.394-1.345.394h-2.316zm.846-.759h1.47c.307 0 .544-.067.71-.202.173-.134.26-.323.26-.566 0-.25-.087-.442-.26-.577-.166-.134-.403-.202-.71-.202h-1.47v1.547zm0-2.296h1.44c.27 0 .481-.064.635-.192.16-.128.24-.307.24-.538 0-.231-.077-.41-.23-.538-.154-.135-.369-.202-.644-.202h-1.441v1.47zm6.362 3.151c-.557 0-.996-.141-1.316-.423-.32-.288-.48-.675-.48-1.162 0-.493.16-.881.48-1.162.32-.282.752-.423 1.297-.423h1.633v-.529c0-.326-.1-.576-.298-.749-.192-.179-.467-.269-.826-.269-.314 0-.577.067-.788.202a.717.717 0 00-.365.528h-.865c.058-.454.273-.816.644-1.085s.836-.404 1.393-.404c.608 0 1.089.157 1.441.471.352.314.528.74.528 1.278V160h-.845v-1.009h-.144l.144-.144c0 .384-.15.689-.451.913-.295.224-.689.336-1.182.336zm.211-.682c.41 0 .746-.102 1.009-.307a.957.957 0 00.394-.788v-.75H35.49c-.288 0-.516.081-.682.241-.167.16-.25.378-.25.653 0 .295.1.528.298.701.205.167.487.25.845.25zm3.941 2.315v-7.013h.865v1.009h.173l-.173.202c0-.404.131-.721.394-.951.269-.237.621-.356 1.057-.356.531 0 .954.176 1.268.529.32.345.48.823.48 1.431v1.547c0 .403-.074.752-.22 1.047a1.58 1.58 0 01-.606.682c-.256.16-.564.24-.922.24-.43 0-.779-.118-1.047-.355-.27-.237-.404-.554-.404-.951l.173.201h-.192l.019 1.201v1.537h-.865zm2.027-2.382c.366 0 .65-.109.856-.327.21-.218.317-.531.317-.941v-1.441c0-.41-.106-.724-.317-.942-.206-.218-.49-.326-.855-.326-.353 0-.635.112-.846.336-.211.224-.317.535-.317.932v1.441c0 .397.106.707.317.932.211.224.493.336.846.336zm5.2.749c-.557 0-.996-.141-1.316-.423-.32-.288-.48-.675-.48-1.162 0-.493.16-.881.48-1.162.32-.282.753-.423 1.297-.423h1.633v-.529c0-.326-.1-.576-.298-.749-.192-.179-.467-.269-.826-.269-.314 0-.576.067-.788.202a.717.717 0 00-.365.528h-.864c.057-.454.272-.816.643-1.085.372-.269.836-.404 1.393-.404.609 0 1.09.157 1.441.471.353.314.529.74.529 1.278V160h-.846v-1.009h-.144l.144-.144c0 .384-.15.689-.451.913-.295.224-.689.336-1.182.336zm.212-.682c.41 0 .746-.102 1.008-.307a.957.957 0 00.394-.788v-.75H46.87c-.288 0-.515.081-.682.241-.166.16-.25.378-.25.653 0 .295.1.528.298.701.205.167.487.25.846.25zm3.537.586l1.874-2.719-1.758-2.565h1.018l1.047 1.633c.045.071.087.148.125.231.045.083.08.151.106.202.019-.051.048-.119.086-.202.045-.083.09-.16.135-.231l1.056-1.633h1.009l-1.758 2.575L55.422 160h-1.019l-1.133-1.729a2.892 2.892 0 01-.135-.24 2.131 2.131 0 00-.105-.231 3.736 3.736 0 01-.26.471L51.627 160h-1.009zm8.092.096c-.244 0-.44-.07-.586-.211-.141-.141-.212-.33-.212-.567 0-.25.07-.448.212-.596.147-.147.342-.221.586-.221.243 0 .435.074.576.221.147.148.221.346.221.596 0 .237-.074.426-.221.567-.14.141-.333.211-.576.211z" fill="#000"/><path d="M22.879 22.065c-.448 0-.842-.083-1.182-.25a1.922 1.922 0 01-.778-.72c-.18-.314-.269-.682-.269-1.105v-3.055c0-.43.09-.797.27-1.105a1.86 1.86 0 01.777-.71c.34-.174.734-.26 1.182-.26.455 0 .845.086 1.172.26.333.166.592.403.778.71.186.307.279.676.279 1.105h-1.21c0-.333-.09-.586-.27-.76-.173-.172-.422-.259-.75-.259-.326 0-.579.087-.758.26-.18.173-.269.423-.269.75v3.064c0 .326.09.58.269.759.18.173.432.26.759.26s.576-.087.75-.26c.179-.18.268-.433.268-.76h1.21c0 .417-.092.782-.278 1.096a1.903 1.903 0 01-.778.73c-.327.167-.717.25-1.172.25zm3.518-.096v-5.284h1.086v2.604c0 .166-.01.364-.029.595a11.839 11.839 0 01-.134 1.23l1.863-4.429h1.48v5.284h-1.086v-2.604c0-.173.007-.365.02-.576l.057-.625c.026-.205.051-.377.077-.518l-1.854 4.323h-1.48zm5.69 0v-5.284h1.201v2.046h1.864v-2.046h1.2v5.284h-1.2v-2.123h-1.864v2.123h-1.2zm5.286 0l1.845-2.729-1.72-2.555h1.355l.816 1.297c.052.077.096.163.135.26.045.095.08.172.105.23.026-.058.061-.135.106-.23a3.18 3.18 0 01.135-.26l.826-1.297h1.354l-1.72 2.555 1.836 2.729h-1.364l-.913-1.45a2.627 2.627 0 01-.144-.27 3.872 3.872 0 00-.115-.23l-.106.23a2.647 2.647 0 01-.144.27l-.932 1.45h-1.355zm6.084 1.729v-7.013h1.172v1.009h.269l-.27.278c0-.429.129-.765.385-1.008.256-.25.602-.375 1.038-.375.531 0 .957.183 1.277.548.32.365.48.855.48 1.47v1.43c0 .41-.073.77-.22 1.077-.141.3-.343.534-.605.701-.263.167-.574.25-.932.25-.436 0-.782-.122-1.038-.365-.256-.25-.384-.59-.384-1.019l.269.279h-.279l.039 1.258v1.48h-1.201zm2.171-2.67c.307 0 .547-.09.72-.27.173-.179.26-.435.26-.768v-1.326c0-.333-.087-.59-.26-.769-.172-.179-.413-.268-.72-.268-.301 0-.538.092-.71.278-.174.18-.26.432-.26.759v1.326c0 .326.086.583.26.768.172.18.409.27.71.27zm5.66 1.027c-.447 0-.838-.083-1.171-.25a1.939 1.939 0 01-.769-.72c-.18-.314-.269-.682-.269-1.105v-1.306c0-.423.09-.788.27-1.096.185-.313.441-.553.768-.72.333-.173.724-.26 1.172-.26.454 0 .845.087 1.172.26.326.166.58.407.759.72.186.308.278.67.278 1.086v1.316c0 .423-.092.791-.278 1.105-.18.307-.433.547-.76.72-.326.167-.717.25-1.171.25zm0-1.047c.321 0 .568-.086.74-.26.18-.179.27-.435.27-.768v-1.306c0-.34-.09-.596-.27-.769-.172-.173-.419-.26-.74-.26-.313 0-.56.087-.739.26-.18.173-.269.43-.269.769v1.306c0 .333.09.59.27.769.178.173.425.26.739.26zm3.558.96v-5.283h1.2v2.046h1.864v-2.046h1.201v5.284h-1.2v-2.123h-1.864v2.123h-1.201zm5.69 0v-5.283h1.085v2.604c0 .166-.01.364-.029.595a11.839 11.839 0 01-.134 1.23l1.863-4.429h1.48v5.284h-1.086v-2.604c0-.173.007-.365.02-.576l.057-.625c.026-.205.051-.377.077-.518l-1.854 4.323h-1.48zm7.562.068c-.576 0-1.053-.131-1.431-.394a1.62 1.62 0 01-.682-1.095h1.2a.645.645 0 00.308.375c.167.09.368.134.605.134h.51c.25 0 .445-.058.585-.173a.593.593 0 00.222-.48.587.587 0 00-.212-.48c-.14-.116-.34-.173-.596-.173h-1.21v-.961h1.162c.237 0 .42-.055.548-.163a.55.55 0 00.192-.442.525.525 0 00-.336-.519 1.064 1.064 0 00-.403-.067h-.452a1.1 1.1 0 00-.576.144.613.613 0 00-.289.384h-1.2a1.66 1.66 0 01.672-1.095c.371-.275.836-.413 1.393-.413h.451c.404 0 .75.06 1.038.182.295.116.522.282.682.5.16.211.24.467.24.768 0 .333-.121.606-.365.817-.243.211-.567.323-.97.336v-.038c.461.013.82.134 1.076.365.256.224.384.535.384.932 0 .474-.186.851-.557 1.133-.365.282-.858.423-1.48.423h-.509zm5.363.029c-.544 0-.973-.144-1.287-.433-.314-.288-.47-.675-.47-1.162 0-.519.172-.919.518-1.2.346-.282.836-.423 1.47-.423h1.316v-.452c0-.256-.083-.455-.25-.596-.166-.147-.394-.22-.682-.22-.262 0-.48.057-.653.172a.675.675 0 00-.307.471h-1.172c.057-.5.281-.896.672-1.191.39-.295.89-.442 1.499-.442.647 0 1.156.163 1.527.49.378.32.567.756.567 1.306v3.584h-1.163v-.922h-.192l.192-.26c0 .39-.144.701-.432.932-.288.23-.672.346-1.153.346zm.394-.903c.34 0 .615-.087.826-.26a.82.82 0 00.327-.672v-.644h-1.297c-.243 0-.439.07-.586.212a.736.736 0 00-.22.557c0 .25.082.448.249.595.173.141.407.212.701.212zm7.4 2.152v-1.345h-3.65v-5.284h1.2v4.179h1.633v-4.179h1.201v4.179h.72v2.45h-1.104zm2.039-1.345v-5.284h1.086v2.604c0 .166-.01.364-.03.595a14.016 14.016 0 01-.135 1.23l1.865-4.429h1.48v5.284h-1.086v-2.604c0-.173.006-.365.02-.576.018-.211.037-.42.057-.625.025-.205.05-.377.077-.518l-1.855 4.323h-1.479zm5.46 0l1.238-1.931a1.65 1.65 0 01-.855-.586 1.61 1.61 0 01-.307-.99c0-.557.186-.992.557-1.306.372-.314.884-.471 1.537-.471h2.325v5.284h-1.191v-1.797h-.855l-1.076 1.797h-1.374zm2.218-2.757h1.086v-1.538h-1.086c-.294 0-.525.068-.691.202-.167.135-.25.327-.25.577 0 .237.083.422.25.557.166.134.397.202.691.202zm8.882 4.102V20.95h.355c.109-.108.221-.307.337-.595.121-.295.185-.66.192-1.095l.057-2.575h3.699v4.265h.624v2.364h-1.104v-1.345h-3.055v1.345h-1.105zm1.575-2.364h1.922v-3.218h-1.441l-.039 1.528c-.006.429-.061.79-.163 1.085-.096.288-.189.49-.279.605zm6.17 1.115c-.544 0-.973-.144-1.287-.433-.314-.288-.471-.675-.471-1.162 0-.519.173-.919.519-1.2.346-.282.836-.423 1.47-.423h1.316v-.452c0-.256-.083-.455-.25-.596-.166-.147-.394-.22-.682-.22-.262 0-.48.057-.653.172a.679.679 0 00-.308.471h-1.172c.058-.5.282-.896.673-1.191.391-.295.89-.442 1.499-.442.646 0 1.156.163 1.527.49.378.32.567.756.567 1.306v3.584h-1.163v-.922h-.192l.192-.26c0 .39-.144.701-.432.932-.288.23-.672.346-1.153.346zm.394-.903c.34 0 .615-.087.826-.26a.819.819 0 00.327-.672v-.644h-1.297c-.243 0-.439.07-.586.212a.737.737 0 00-.221.557c0 .25.083.448.25.595.173.141.407.212.701.212zm3.749.807v-5.284h1.201v2.046h1.864v-2.046h1.201v5.284h-1.201v-2.123h-1.864v2.123h-1.201zm5.69 0v-5.284h1.201v2.046h1.864v-2.046h1.2v5.284h-1.2v-2.123h-1.864v2.123h-1.201zm5.421 0v-5.284h1.037v1.787h.356c.57 0 1.021.16 1.354.48.333.32.5.75.5 1.287 0 .526-.17.945-.509 1.259-.333.314-.782.47-1.345.47h-1.393zm1.037-.932h.356c.275 0 .486-.07.634-.211.153-.141.23-.337.23-.587 0-.262-.077-.467-.23-.614-.148-.148-.359-.221-.634-.221h-.356v1.633zm2.728.932v-5.284h1.038v5.284h-1.038zm1.79 0l1.844-2.729-1.719-2.555h1.354l.817 1.297c.051.077.096.163.134.26.045.095.08.172.106.23.026-.058.061-.135.106-.23.044-.097.089-.183.134-.26l.826-1.297h1.355l-1.72 2.555 1.835 2.729h-1.364l-.913-1.45a2.728 2.728 0 01-.144-.27 3.96 3.96 0 00-.115-.23l-.106.23a2.728 2.728 0 01-.144.27l-.932 1.45h-1.354zm8.226-3.766c-.269 0-.487-.074-.654-.221a.778.778 0 01-.24-.586c0-.243.08-.439.24-.586.167-.147.385-.221.654-.221s.483.074.643.22c.167.148.25.344.25.587a.761.761 0 01-.25.586c-.16.147-.374.22-.643.22zm0 3.862c-.269 0-.487-.074-.654-.221a.759.759 0 01-.24-.586c0-.243.08-.439.24-.586.167-.148.385-.221.654-.221s.483.073.643.22c.167.148.25.344.25.587a.743.743 0 01-.25.586c-.16.147-.374.22-.643.22z" fill="#fff"/><defs><filter id="filter0_d_2002_13" x=".157" y="0" width="179.685" height="260.685" filterUnits="userSpaceOnUse" color-interpolation-filters="sRGB"><feFlood flood-opacity="0" result="BackgroundImageFix"/><feColorMatrix in="SourceAlpha" values="0 0 0 0 0 0 0 0 0 0 0 0 0 0 0 0 0 0 127 0" result="hardAlpha"/><feOffset dy="3.843"/><feGaussianBlur stdDeviation="1.921"/><feComposite in2="hardAlpha" operator="out"/><feColorMatrix values="0 0 0 0 0 0 0 0 0 0 0 0 0 0 0 0 0 0 0.25 0"/><feBlend in2="BackgroundImageFix" result="effect1_dropShadow_2002_13"/><feBlend in="SourceGraphic" in2="effect1_dropShadow_2002_13" result="shape"/></filter></defs></svg>