<svg width="180" height="262" fill="none" xmlns="http://www.w3.org/2000/svg"><g filter="url(#filter0_d_2002_14)"><rect x="4" width="172" height="254" rx="16.011" fill="#E0F4FF"/></g><mask id="a" style="mask-type:alpha" maskUnits="userSpaceOnUse" x="4" y="0" width="172" height="43"><path fill="#C9D9CD" d="M4 0h171.961v42.27H4z"/></mask><g mask="url(#a)"><rect x="4" y="-1.69" width="171.961" height="118.355" rx="16.011" fill="#875C9C"/></g><path d="M18.73 62.646a1.12 1.12 0 01-.826-.326 1.12 1.12 0 01-.326-.827c0-.339.109-.614.326-.826a1.12 1.12 0 01.827-.326c.339 0 .614.109.826.326.218.212.326.487.326.826 0 .334-.108.609-.326.827-.212.218-.487.326-.826.326zM25.35 65v-7.013h.865v2.997h2.248v-2.997h.865V65h-.864v-3.228h-2.248V65h-.865zm7.218.096c-.557 0-.996-.14-1.316-.423-.32-.288-.48-.675-.48-1.162 0-.493.16-.88.48-1.163.32-.281.752-.422 1.297-.422h1.633v-.529c0-.326-.1-.576-.298-.749-.192-.18-.467-.269-.826-.269-.314 0-.577.067-.788.202a.718.718 0 00-.365.528h-.864c.057-.454.272-.816.643-1.085.372-.27.836-.404 1.393-.404.609 0 1.089.157 1.441.471.352.314.529.74.529 1.278V65H34.2v-1.009h-.144l.144-.144c0 .384-.15.689-.451.913-.295.224-.689.336-1.182.336zm.211-.682c.41 0 .746-.103 1.01-.307a.957.957 0 00.393-.788v-.75h-1.614c-.288 0-.516.08-.682.24-.167.16-.25.379-.25.654 0 .294.1.528.298.701.205.167.487.25.845.25zm5.959.682a2.46 2.46 0 01-1.114-.24 1.73 1.73 0 01-.73-.692c-.173-.307-.26-.67-.26-1.085v-1.441c0-.423.087-.785.26-1.086a1.73 1.73 0 01.73-.692c.32-.16.691-.24 1.114-.24.608 0 1.098.163 1.47.49.371.327.567.772.586 1.336h-.865c-.019-.34-.134-.6-.346-.779-.205-.185-.486-.278-.845-.278-.378 0-.679.109-.903.326-.224.212-.336.516-.336.913v1.45c0 .398.112.705.336.923.224.218.525.326.903.326.359 0 .64-.092.845-.278.212-.186.327-.445.346-.778h.865c-.02.563-.215 1.008-.586 1.335-.372.327-.862.49-1.47.49zM43.976 65v-4.525h-1.921v-.759h4.707v.76h-1.921V65h-.865zm4.124 1.73v-7.014h.864v1.009h.173l-.172.202c0-.404.13-.72.393-.951.27-.237.622-.356 1.057-.356.532 0 .954.176 1.268.529.32.345.48.823.48 1.431v1.547c0 .403-.073.752-.22 1.047a1.573 1.573 0 01-.606.682c-.256.16-.563.24-.922.24-.429 0-.778-.118-1.047-.355-.269-.237-.404-.554-.404-.951l.173.201h-.192l.02 1.201v1.537H48.1zm2.027-2.383c.365 0 .65-.11.855-.327.211-.218.317-.531.317-.941v-1.441c0-.41-.106-.724-.317-.942-.205-.218-.49-.326-.855-.326-.352 0-.634.112-.846.336-.21.224-.316.535-.316.932v1.44c0 .398.105.708.316.932.212.225.494.337.846.337zm5.66.73c-.422 0-.787-.08-1.094-.24a1.744 1.744 0 01-.72-.692c-.167-.307-.25-.67-.25-1.086v-1.402c0-.423.083-.785.25-1.086.172-.3.412-.531.72-.691.307-.16.672-.24 1.095-.24.422 0 .788.08 1.095.24.307.16.544.39.71.691.174.301.26.66.26 1.076v1.412c0 .417-.086.779-.26 1.086a1.683 1.683 0 01-.71.692c-.308.16-.673.24-1.095.24zm0-.769c.379 0 .673-.105.885-.317.21-.211.317-.522.317-.932v-1.402c0-.41-.106-.72-.317-.932-.212-.211-.506-.317-.884-.317-.372 0-.666.106-.884.317-.211.211-.317.522-.317.932v1.402c0 .41.106.72.317.932.218.212.512.317.884.317zm3.711.692v-5.284h.827v2.882c0 .186-.007.381-.02.586-.006.205-.019.4-.038.586-.013.18-.029.333-.048.461l2.133-4.515h1.104V65h-.826v-2.882c0-.186.003-.381.01-.586.013-.205.029-.4.048-.586l.048-.47L60.603 65h-1.105zm5.027.067v-.807h.173c.295 0 .5-.115.615-.346.122-.23.186-.643.192-1.239l.058-2.959h3.583V65h-.865v-4.496h-1.863l-.048 2.21c-.013.557-.077 1.008-.192 1.354-.11.346-.282.599-.52.76-.23.16-.534.24-.912.24h-.22zM70.878 65v-5.284h.826v2.882c0 .186-.006.381-.02.586-.006.205-.019.4-.038.586-.013.18-.029.333-.048.461l2.133-4.515h1.105V65h-.826v-2.882c0-.186.003-.381.01-.586.012-.205.028-.4.047-.586l.048-.47L71.983 65h-1.105zm13.397.096c-.423 0-.791-.08-1.105-.24a1.744 1.744 0 01-.72-.692c-.167-.307-.25-.67-.25-1.085v-3.17c0-.423.083-.785.25-1.086.172-.301.412-.532.72-.692.314-.16.682-.24 1.105-.24.422 0 .787.083 1.095.25.307.16.544.39.71.692.167.3.25.66.25 1.075h-.864c0-.397-.106-.7-.317-.912-.205-.218-.497-.327-.874-.327-.378 0-.676.106-.894.317-.211.212-.317.516-.317.913v3.18c0 .397.106.704.317.922.218.211.516.317.894.317.377 0 .669-.106.874-.317.211-.218.317-.525.317-.922h.864c0 .41-.083.768-.25 1.076a1.744 1.744 0 01-.71.7c-.308.161-.673.241-1.096.241zM87.927 65v-7.013H90.1c.416 0 .78.087 1.095.26.314.166.557.4.73.7.173.302.26.654.26 1.057 0 .474-.126.881-.375 1.22a1.85 1.85 0 01-1 .702L92.28 65h-1.018l-1.345-2.978h-1.124V65h-.865zm.865-3.756H90.1c.358 0 .647-.112.864-.337.218-.23.327-.531.327-.902 0-.378-.109-.68-.327-.904-.217-.224-.506-.336-.864-.336h-1.307v2.479zM93.463 65v-7.013h1.134l.73 2.267c.07.205.135.41.192.615.058.199.1.352.125.461.032-.109.074-.262.125-.46.051-.206.109-.414.173-.625l.692-2.258h1.133V65h-.845v-2.546c0-.282.01-.602.029-.96.019-.36.045-.724.077-1.096.031-.378.064-.736.096-1.076.038-.345.07-.646.096-.903l-1.134 3.507h-.913l-1.143-3.507a36.533 36.533 0 01.183 1.921c.025.366.048.73.067 1.096.02.365.029.704.029 1.018V65h-.846zm11.553 0v-5.284h3.958V65h-.865v-4.496h-2.229V65h-.864zm7.668.077c-.422 0-.787-.08-1.095-.24a1.745 1.745 0 01-.72-.692c-.167-.307-.25-.67-.25-1.086v-1.402c0-.423.083-.785.25-1.086.173-.3.413-.531.72-.691.308-.16.673-.24 1.095-.24.423 0 .788.08 1.095.24.308.16.545.39.711.691.173.301.26.66.26 1.076v1.412c0 .417-.087.779-.26 1.086a1.677 1.677 0 01-.711.692c-.307.16-.672.24-1.095.24zm0-.769c.378 0 .673-.105.884-.317.211-.211.317-.522.317-.932v-1.402c0-.41-.106-.72-.317-.932-.211-.211-.506-.317-.884-.317-.371 0-.666.106-.884.317-.211.211-.317.522-.317.932v1.402c0 .41.106.72.317.932.218.212.513.317.884.317zm3.096 2.037V64.26h.432c.109-.109.221-.323.337-.643.121-.32.185-.727.192-1.22l.057-2.68h3.449v4.543h.673v2.085h-.769V65h-3.602v1.345h-.769zm1.345-2.085h2.258v-3.775h-1.768l-.038 1.93c-.007.507-.061.917-.164 1.23-.102.314-.198.52-.288.615zM27.359 84.096c-.423 0-.795-.08-1.115-.24a1.73 1.73 0 01-.73-.692c-.173-.307-.26-.67-.26-1.085v-1.441c0-.423.087-.785.26-1.086a1.73 1.73 0 01.73-.692c.32-.16.692-.24 1.115-.24.608 0 1.098.163 1.47.49.371.327.566.772.585 1.335h-.864c-.02-.339-.135-.598-.346-.778-.205-.185-.487-.278-.845-.278-.378 0-.68.109-.903.326-.224.212-.337.516-.337.913v1.45c0 .398.113.705.337.923.224.218.525.326.903.326.358 0 .64-.092.845-.278.211-.186.327-.445.346-.778h.864c-.019.563-.214 1.008-.586 1.335-.37.327-.86.49-1.47.49zM31.05 84v-5.284h3.958V84h-.864v-4.496h-2.23V84h-.864zm7.669.096c-.416 0-.782-.083-1.095-.25a1.807 1.807 0 01-.72-.701 2.204 2.204 0 01-.25-1.066v-1.441c0-.41.083-.766.25-1.067.172-.3.412-.534.72-.701.313-.166.678-.25 1.095-.25.416 0 .778.084 1.085.25.314.166.554.4.72.701.174.301.26.657.26 1.067v.931H37.5v.51c0 .416.105.736.317.96.211.218.512.327.903.327.333 0 .602-.058.807-.173a.763.763 0 00.374-.538h.865a1.472 1.472 0 01-.653 1.057c-.372.256-.836.384-1.393.384zm1.22-3.103v-.355c0-.417-.106-.737-.317-.961-.205-.224-.506-.336-.903-.336-.39 0-.692.112-.903.336-.212.224-.317.544-.317.96v.28h2.507l-.067.076zm6.247 4.352V84h-3.757v-5.284h.865v4.516h2.075v-4.516h.865v4.516h.72v2.113h-.768zM48.119 84v-5.284h.826v2.882c0 .186-.006.381-.019.586-.006.205-.02.4-.038.586a6.1 6.1 0 01-.048.462l2.132-4.516h1.105V84h-.826v-2.882c0-.186.003-.381.01-.586.012-.205.028-.4.047-.586l.049-.47L49.224 84h-1.105zm7.285 1.73V84c-.615 0-1.099-.173-1.451-.519-.352-.346-.529-.82-.529-1.422v-1.421c0-.596.177-1.064.529-1.403.358-.346.842-.519 1.45-.519v-1.729h.769v1.73c.615 0 1.098.172 1.45.518.353.34.529.807.529 1.403v1.421c0 .603-.176 1.076-.528 1.422-.353.346-.836.519-1.451.519v1.73h-.768zm.019-2.412v-3.92c-.372 0-.663.11-.875.327-.21.218-.317.522-.317.913v1.421c0 .391.106.698.317.923.212.224.503.336.875.336zm.73 0c.378 0 .67-.112.874-.336.211-.225.317-.532.317-.923v-1.421c0-.391-.106-.695-.317-.913-.205-.218-.496-.327-.874-.327v3.92zm3.345.682v-5.284h.827v2.882c0 .186-.007.381-.02.586-.006.205-.019.4-.038.586a6.36 6.36 0 01-.048.462l2.133-4.516h1.104V84h-.826v-2.882c0-.186.003-.381.01-.586.013-.205.029-.4.048-.586l.048-.47L60.603 84h-1.105zm8.726 0v-1.921a4.8 4.8 0 01-.47.077 7.137 7.137 0 01-.654.028c-.653.007-1.163-.15-1.528-.47-.358-.327-.538-.782-.538-1.365v-1.633h.865v1.633c0 .327.109.586.327.779.224.185.531.278.922.278.269 0 .496-.01.682-.029a3.52 3.52 0 00.394-.067v-2.594h.864V84h-.864zm4.633.096c-.417 0-.782-.083-1.096-.25a1.808 1.808 0 01-.72-.701 2.204 2.204 0 01-.25-1.066v-1.441c0-.41.084-.766.25-1.067.173-.3.413-.534.72-.701.314-.166.68-.25 1.096-.25.416 0 .778.084 1.085.25.314.166.554.4.72.701.174.301.26.657.26 1.067v.931h-3.285v.51c0 .416.105.736.317.96.211.218.512.327.903.327.333 0 .602-.058.807-.173a.763.763 0 00.374-.538h.865a1.471 1.471 0 01-.653 1.057c-.372.256-.836.384-1.393.384zm1.22-3.103v-.355c0-.417-.106-.737-.317-.961-.205-.224-.506-.336-.903-.336-.391 0-.692.112-.903.336-.212.224-.317.544-.317.96v.28h2.507l-.067.076zm4.489 3.103c-.423 0-.795-.08-1.115-.24a1.73 1.73 0 01-.73-.692c-.173-.307-.26-.67-.26-1.085v-1.441c0-.423.087-.785.26-1.086a1.73 1.73 0 01.73-.692c.32-.16.692-.24 1.115-.24.608 0 1.098.163 1.47.49.37.327.566.772.585 1.335h-.864c-.02-.339-.135-.598-.346-.778-.205-.185-.487-.278-.845-.278-.378 0-.68.109-.904.326-.224.212-.336.516-.336.913v1.45c0 .398.112.705.337.923.224.218.525.326.903.326.358 0 .64-.092.845-.278.211-.186.327-.445.346-.778h.864c-.019.563-.214 1.008-.586 1.335-.371.327-.861.49-1.47.49zm3.72-.096v-5.284h.864v2.181h.903l1.538-2.18h.99l-1.778 2.516L86.609 84H85.6l-1.537-2.354h-.913V84h-.864zm5.66 0v-5.284h.827v2.882c0 .186-.007.381-.02.586-.006.205-.019.4-.038.586a6.1 6.1 0 01-.048.462l2.133-4.516h1.105V84h-.826v-2.882c0-.186.003-.381.01-.586.012-.205.028-.4.047-.586l.048-.47L89.052 84h-1.105zm7.67.096c-.417 0-.782-.083-1.096-.25a1.807 1.807 0 01-.72-.701 2.203 2.203 0 01-.25-1.066v-1.441c0-.41.083-.766.25-1.067.173-.3.413-.534.72-.701a2.31 2.31 0 011.095-.25c.417 0 .779.084 1.086.25.314.166.554.4.72.701.173.301.26.657.26 1.067v.931h-3.286v.51c0 .416.106.736.317.96.212.218.513.327.903.327.333 0 .602-.058.807-.173a.764.764 0 00.375-.538h.865a1.472 1.472 0 01-.654 1.057c-.371.256-.835.384-1.393.384zm1.22-3.103v-.355c0-.417-.106-.737-.318-.961-.205-.224-.506-.336-.903-.336-.39 0-.691.112-.903.336-.211.224-.317.544-.317.96v.28h2.508l-.068.076zm8.18 3.007v-5.284h3.958V84h-.865v-4.496h-2.229V84h-.864zm7.668.077c-.422 0-.787-.08-1.095-.24a1.745 1.745 0 01-.72-.692c-.167-.307-.25-.67-.25-1.086v-1.402c0-.423.083-.785.25-1.086.173-.3.413-.531.72-.691.308-.16.673-.24 1.095-.24.423 0 .788.08 1.095.24.308.16.545.39.711.691.173.301.26.66.26 1.076v1.412c0 .417-.087.779-.26 1.086a1.677 1.677 0 01-.711.692c-.307.16-.672.24-1.095.24zm0-.769c.378 0 .673-.105.884-.317.211-.211.317-.522.317-.932v-1.402c0-.41-.106-.72-.317-.932-.211-.211-.506-.317-.884-.317-.371 0-.666.106-.884.317-.211.211-.317.522-.317.932v1.402c0 .41.106.72.317.932.218.212.513.317.884.317zm5.258.692v-4.525h-1.922v-.759h4.708v.76h-1.922V84h-.864zm4.123 1.73v-7.014h.865v1.009h.173l-.173.202c0-.404.131-.72.394-.951.269-.237.621-.356 1.057-.356.531 0 .954.176 1.268.529.32.345.48.823.48 1.431v1.547c0 .403-.074.752-.221 1.047a1.575 1.575 0 01-.605.682c-.256.16-.564.24-.922.24-.429 0-.779-.118-1.048-.355-.268-.237-.403-.554-.403-.951l.173.201h-.192l.019 1.201v1.537h-.865zm2.027-2.383c.365 0 .65-.11.855-.327.212-.218.317-.531.317-.941v-1.441c0-.41-.105-.724-.317-.942-.205-.218-.49-.326-.855-.326-.352 0-.634.112-.845.336-.211.224-.317.535-.317.932v1.44c0 .398.106.708.317.932.211.225.493.337.845.337zm5.661.75a2.31 2.31 0 01-1.095-.25 1.81 1.81 0 01-.72-.702 2.199 2.199 0 01-.25-1.066v-1.441c0-.41.083-.766.25-1.067a1.81 1.81 0 01.72-.701 2.31 2.31 0 011.095-.25c.417 0 .778.084 1.086.25.314.166.554.4.72.701.173.301.26.657.26 1.067v.931h-3.286v.51c0 .416.106.736.317.96.212.218.513.327.903.327.333 0 .602-.058.807-.173a.764.764 0 00.375-.538h.864a1.469 1.469 0 01-.653 1.057c-.371.256-.836.384-1.393.384zm1.22-3.104v-.355c0-.417-.105-.737-.317-.961-.205-.224-.506-.336-.903-.336-.39 0-.691.112-.903.336-.211.224-.317.544-.317.96v.28h2.508l-.068.076zm4.47 3.103c-.621 0-1.114-.183-1.48-.547-.358-.372-.538-.878-.538-1.518v-2.402c0-.846.212-1.496.635-1.95.422-.461 1.027-.692 1.815-.692h1.345v.865h-1.345c-.519 0-.912.153-1.181.46-.269.302-.404.74-.404 1.317v.624h.135l-.135.192c.007-.377.135-.672.384-.883.25-.212.59-.317 1.019-.317.557 0 .989.179 1.297.538.313.358.47.851.47 1.48v.768c0 .429-.08.797-.24 1.104-.16.308-.391.545-.692.711-.301.167-.662.25-1.085.25zm0-.769c.371 0 .656-.112.855-.336.198-.224.298-.544.298-.96v-.769c0-.416-.1-.736-.298-.96-.199-.225-.484-.337-.855-.337-.372 0-.657.112-.855.336-.199.218-.298.538-.298.961v.769c0 .416.099.736.298.96.198.224.483.337.855.337zm3.711.673v-5.284h.864v2.2h2.229v-2.2h.865V84h-.865v-2.296h-2.229V84h-.864zm7.668.077c-.422 0-.788-.08-1.095-.24a1.74 1.74 0 01-.72-.692c-.167-.307-.25-.67-.25-1.086v-1.402c0-.423.083-.785.25-1.086a1.74 1.74 0 01.72-.691c.307-.16.673-.24 1.095-.24.423 0 .788.08 1.095.24.308.16.545.39.711.691.173.301.26.66.26 1.076v1.412c0 .417-.087.779-.26 1.086a1.677 1.677 0 01-.711.692c-.307.16-.672.24-1.095.24zm0-.769c.378 0 .673-.105.884-.317.211-.211.317-.522.317-.932v-1.402c0-.41-.106-.72-.317-.932-.211-.211-.506-.317-.884-.317-.371 0-.666.106-.884.317-.211.211-.317.522-.317.932v1.402c0 .41.106.72.317.932.218.212.513.317.884.317zm5.709.788a2.46 2.46 0 01-1.114-.24 1.73 1.73 0 01-.73-.692c-.173-.307-.26-.67-.26-1.085v-1.441c0-.423.087-.785.26-1.086a1.73 1.73 0 01.73-.692c.32-.16.691-.24 1.114-.24.609 0 1.098.163 1.47.49.371.327.567.772.586 1.335h-.865c-.019-.339-.134-.598-.346-.778-.204-.185-.486-.278-.845-.278-.378 0-.679.109-.903.326-.224.212-.336.516-.336.913v1.45c0 .398.112.705.336.923.224.218.525.326.903.326.359 0 .641-.092.845-.278.212-.186.327-.445.346-.778h.865c-.019.563-.215 1.008-.586 1.335-.372.327-.861.49-1.47.49zm5.238-.096v-4.525h-1.921v-.759h4.707v.76h-1.921V84h-.865zm4.143 0v-5.284h.826v2.882c0 .186-.006.381-.019.586a8.08 8.08 0 01-.038.586 6.36 6.36 0 01-.048.462l2.132-4.516h1.105V84h-.826v-2.882c0-.186.003-.381.01-.586.012-.205.028-.4.048-.586l.048-.47L163.017 84h-1.105zM27.34 103.096c-.622 0-1.115-.182-1.48-.548-.359-.371-.538-.877-.538-1.517v-2.402c0-.846.211-1.496.634-1.95.423-.461 1.028-.692 1.816-.692h1.345v.865h-1.345c-.519 0-.913.153-1.182.46-.269.302-.403.74-.403 1.317v.624h.134l-.134.192c.006-.377.134-.672.384-.883.25-.212.59-.317 1.018-.317.557 0 .99.179 1.297.538.314.358.47.851.47 1.479v.769c0 .429-.08.797-.24 1.104-.16.308-.39.545-.691.711-.301.167-.663.25-1.085.25zm0-.768c.37 0 .656-.113.855-.337.198-.224.297-.544.297-.96v-.769c0-.416-.099-.736-.297-.96-.2-.225-.484-.337-.855-.337-.372 0-.657.112-.855.336-.2.218-.298.538-.298.961v.769c0 .416.099.736.297.96.199.224.484.337.855.337zm3.69 2.401v-7.013h.865v1.009h.174l-.174.202c0-.404.132-.72.394-.951.27-.237.622-.356 1.057-.356.532 0 .954.176 1.268.529.32.345.48.823.48 1.431v1.547c0 .403-.073.752-.22 1.047a1.573 1.573 0 01-.606.682c-.256.16-.563.24-.922.24-.429 0-.778-.118-1.047-.355-.269-.237-.404-.554-.404-.951l.174.201h-.193l.02 1.201v1.537h-.865zm2.028-2.382c.365 0 .65-.109.855-.327.211-.218.317-.531.317-.941v-1.441c0-.41-.106-.724-.317-.942-.205-.218-.49-.326-.855-.326-.352 0-.634.112-.845.336-.212.224-.318.535-.318.932v1.441c0 .397.106.707.318.932.21.224.493.336.845.336zm5.66.749c-.416 0-.78-.083-1.094-.25a1.803 1.803 0 01-.72-.701 2.203 2.203 0 01-.25-1.066v-1.441c0-.41.083-.766.25-1.067.172-.3.412-.534.72-.701.313-.166.678-.25 1.095-.25.416 0 .778.084 1.085.25.314.166.554.4.72.701.174.301.26.657.26 1.067v.931H37.5v.51c0 .416.105.736.317.96.211.218.512.327.903.327.333 0 .602-.058.807-.173a.764.764 0 00.374-.538h.865a1.473 1.473 0 01-.653 1.057c-.372.256-.836.384-1.393.384zm1.22-3.103v-.355c0-.417-.105-.737-.316-.961-.205-.224-.506-.336-.903-.336-.39 0-.692.112-.903.336-.212.224-.317.544-.317.96v.28h2.507l-.067.076zM42.43 103v-5.284h.865v2.2h2.229v-2.2h.864V103h-.864v-2.296h-2.229V103h-.864zm5.075 1.345v-2.085h.433c.108-.109.22-.323.336-.643.121-.321.185-.727.192-1.22l.058-2.68h3.448v4.543h.673v2.085h-.769V103h-3.602v1.345h-.769zm1.345-2.085h2.258v-3.775H49.34l-.038 1.931c-.007.506-.061.916-.164 1.229-.102.314-.198.519-.288.615zm6.478.836c-.558 0-.996-.141-1.316-.423-.32-.288-.48-.675-.48-1.162 0-.493.16-.881.48-1.162.32-.282.752-.423 1.296-.423h1.634v-.529c0-.326-.1-.576-.298-.749-.192-.18-.468-.269-.826-.269-.314 0-.577.067-.788.202a.718.718 0 00-.365.528H53.8c.058-.454.272-.816.644-1.085.371-.27.836-.404 1.393-.404.608 0 1.089.157 1.44.471.353.314.53.74.53 1.278V103h-.846v-1.009h-.144l.144-.144c0 .384-.15.689-.452.913-.294.224-.688.336-1.181.336zm.211-.682c.41 0 .746-.102 1.009-.307a.957.957 0 00.394-.788v-.75h-1.614c-.289 0-.516.081-.682.241-.167.16-.25.378-.25.653 0 .295.099.528.298.701.205.167.486.25.845.25zm4.643 2.123l.768-2.988h1.249l-1.249 2.988h-.768zM70.877 103v-5.284h2.286c.55 0 .977.125 1.278.375.3.243.451.586.451 1.028 0 .365-.124.66-.374.884-.25.217-.58.326-.99.326v-.077c.449 0 .807.113 1.076.337.275.224.413.525.413.903 0 .474-.16.845-.48 1.114-.32.263-.769.394-1.345.394h-2.315zm.845-.759h1.47c.307 0 .544-.067.71-.202.174-.134.26-.323.26-.566 0-.25-.086-.442-.26-.577-.166-.134-.403-.202-.71-.202h-1.47v1.547zm0-2.296h1.441c.27 0 .48-.064.634-.192.16-.128.24-.308.24-.538 0-.23-.076-.41-.23-.538-.154-.135-.369-.202-.644-.202h-1.44v1.47zM76.596 103v-5.284h.865v2.181h.903l1.537-2.18h.99l-1.778 2.516L80.92 103h-1.008l-1.538-2.354h-.912V103h-.865zm4.998.067v-.807h.173c.295 0 .5-.115.615-.346.122-.23.186-.643.192-1.239l.058-2.959h3.583V103h-.865v-4.496h-1.863l-.048 2.21c-.013.557-.077 1.008-.192 1.354-.11.346-.282.599-.52.759-.23.16-.534.24-.912.24h-.22zm9.158.029c-.442 0-.797-.15-1.066-.451-.27-.301-.404-.695-.404-1.182v-.797h-.845V103h-.798v-5.284h.798v2.258h.845v-.72c0-.494.131-.888.394-1.182.269-.301.627-.452 1.076-.452.474 0 .855.15 1.143.452.288.294.432.688.432 1.181v2.21c0 .487-.144.881-.432 1.182-.288.301-.67.451-1.143.451zm0-.672c.243 0 .432-.084.567-.25.14-.173.211-.41.211-.711v-2.21c0-.3-.07-.534-.211-.7-.135-.174-.324-.26-.567-.26a.667.667 0 00-.557.26c-.135.166-.202.4-.202.7v2.21c0 .301.067.538.202.711.134.166.32.25.557.25zm5.92.576v-1.921c-.102.025-.26.051-.47.077a7.094 7.094 0 01-.654.028c-.653.007-1.162-.15-1.527-.47-.359-.327-.538-.782-.538-1.365v-1.633h.864v1.633c0 .327.11.586.327.779.224.185.531.278.922.278.27 0 .496-.009.682-.029a3.49 3.49 0 00.394-.067v-2.594h.865V103h-.865zm4.172.096c-.557 0-.996-.141-1.316-.423-.32-.288-.48-.675-.48-1.162 0-.493.16-.881.48-1.162.32-.282.752-.423 1.297-.423h1.633v-.529c0-.326-.099-.576-.298-.749-.192-.18-.468-.269-.826-.269-.314 0-.577.067-.788.202a.718.718 0 00-.365.528h-.865c.058-.454.273-.816.644-1.085.372-.27.836-.404 1.393-.404.608 0 1.089.157 1.441.471.352.314.528.74.528 1.278V103h-.845v-1.009h-.144l.144-.144c0 .384-.15.689-.452.913-.294.224-.688.336-1.181.336zm.211-.682c.41 0 .746-.102 1.009-.307a.956.956 0 00.394-.788v-.75h-1.614c-.288 0-.516.081-.682.241-.167.16-.25.378-.25.653 0 .295.099.528.298.701.205.167.487.25.845.25zm3.634.586l1.355-2.037c-.404-.096-.718-.281-.942-.557-.218-.275-.327-.618-.327-1.028 0-.519.17-.925.51-1.22.345-.294.816-.442 1.412-.442h2.277V103h-.865v-1.969h-1.162L105.698 103h-1.009zm2.008-2.738h1.412v-1.777h-1.412c-.32 0-.573.08-.759.24-.186.154-.279.372-.279.653 0 .276.093.493.279.654.186.153.439.23.759.23zm9.727 2.738v-5.284h.864v2.181h.903l1.538-2.18h.989l-1.777 2.516 1.806 2.767h-1.009l-1.537-2.354h-.913V103h-.864zm7.178.096c-.557 0-.995-.141-1.316-.423-.32-.288-.48-.675-.48-1.162 0-.493.16-.881.48-1.162.321-.282.753-.423 1.297-.423h1.633v-.529c0-.326-.099-.576-.297-.749-.193-.18-.468-.269-.827-.269-.313 0-.576.067-.787.202a.716.716 0 00-.365.528h-.865c.058-.454.272-.816.644-1.085.371-.27.835-.404 1.393-.404.608 0 1.088.157 1.441.471.352.314.528.74.528 1.278V103h-.845v-1.009h-.144l.144-.144c0 .384-.151.689-.452.913-.294.224-.688.336-1.182.336zm.212-.682c.41 0 .746-.102 1.009-.307a.958.958 0 00.393-.788v-.75h-1.614c-.288 0-.515.081-.682.241-.166.16-.249.378-.249.653 0 .295.099.528.297.701.205.167.487.25.846.25zm5.958.682c-.422 0-.794-.08-1.114-.24a1.73 1.73 0 01-.73-.692c-.173-.307-.259-.669-.259-1.085v-1.441c0-.423.086-.785.259-1.086a1.73 1.73 0 01.73-.692c.32-.16.692-.24 1.114-.24.609 0 1.099.163 1.47.49.372.327.567.772.586 1.335h-.864c-.02-.339-.135-.598-.346-.778-.205-.185-.487-.278-.846-.278-.377 0-.678.109-.903.326-.224.212-.336.516-.336.913v1.451c0 .397.112.704.336.922.225.218.526.327.903.327.359 0 .641-.093.846-.279.211-.186.326-.445.346-.778h.864c-.019.563-.214 1.008-.586 1.335-.371.327-.861.49-1.47.49zm5.239-.096v-4.525h-1.922v-.759h4.708v.76h-1.922V103h-.864zm6.122.077c-.423 0-.788-.08-1.096-.24a1.745 1.745 0 01-.72-.692c-.167-.307-.25-.669-.25-1.086v-1.402c0-.423.083-.785.25-1.086.173-.3.413-.531.72-.691.308-.16.673-.24 1.096-.24.422 0 .787.08 1.095.24.307.16.544.39.711.691.173.301.259.66.259 1.076v1.412c0 .417-.086.779-.259 1.086a1.689 1.689 0 01-.711.692c-.308.16-.673.24-1.095.24zm0-.769c.377 0 .672-.105.883-.317.212-.211.317-.522.317-.932v-1.402c0-.41-.105-.72-.317-.932-.211-.211-.506-.317-.883-.317-.372 0-.666.106-.884.317-.212.211-.317.522-.317.932v1.402c0 .41.105.721.317.932.218.212.512.317.884.317zm3.537.692v-5.284h1.172l.692 2.027c.07.205.135.41.192.615.058.199.099.352.125.461.026-.109.064-.262.115-.461.058-.205.119-.413.183-.624l.653-2.018h1.172V103h-.836v-.817c0-.288.004-.602.01-.941l.019-1.028.039-.98c.012-.314.022-.59.028-.826l-.941 3.007h-.913l-.951-2.988c.013.288.023.647.029 1.076.013.43.022.878.029 1.345.013.468.019.913.019 1.335V103h-.836zm5.863 0v-5.284h.864v2.2h2.229v-2.2h.865V103h-.865v-2.296h-2.229V103h-.864zm5.411 0v-5.284h.807v1.94h.432c.57 0 1.019.151 1.345.452.333.295.5.702.5 1.22 0 .519-.167.929-.5 1.23-.326.295-.775.442-1.345.442h-1.239zm.807-.692h.432c.34 0 .602-.086.788-.259.192-.173.288-.413.288-.721 0-.307-.096-.547-.288-.72-.186-.173-.448-.259-.788-.259h-.432v1.959zm2.901.692v-5.284h.807V103h-.807zm4.239.096c-.416 0-.781-.083-1.095-.25a1.799 1.799 0 01-.72-.701 2.197 2.197 0 01-.25-1.066v-1.441c0-.41.083-.766.25-1.067.172-.3.413-.534.72-.701a2.31 2.31 0 011.095-.25c.416 0 .778.084 1.086.25.314.166.554.4.72.701.173.301.26.657.26 1.067v.931h-3.286v.51c0 .416.106.736.317.96.212.218.513.327.903.327.333 0 .602-.058.807-.173a.765.765 0 00.375-.538h.864a1.47 1.47 0 01-.653 1.057c-.371.256-.836.384-1.393.384zm1.22-3.103v-.355c0-.417-.105-.737-.317-.961-.205-.224-.506-.336-.903-.336-.39 0-.691.112-.903.336-.211.224-.317.544-.317.96v.28h2.507l-.067.076zM25.361 123v-5.284h3.957V123h-.864v-4.496h-2.229V123h-.865zm7.668.077c-.423 0-.788-.08-1.095-.24a1.743 1.743 0 01-.72-.692c-.167-.307-.25-.669-.25-1.086v-1.402c0-.423.083-.785.25-1.086a1.74 1.74 0 01.72-.691c.307-.161.672-.241 1.095-.241.423 0 .788.08 1.095.241.308.16.545.39.711.691.173.301.26.66.26 1.076v1.412c0 .417-.087.779-.26 1.086a1.683 1.683 0 01-.71.692c-.308.16-.673.24-1.096.24zm0-.769c.378 0 .673-.105.884-.317.211-.211.317-.522.317-.932v-1.402c0-.41-.106-.721-.317-.932-.211-.211-.506-.317-.884-.317-.371 0-.666.106-.884.317-.211.211-.317.522-.317.932v1.402c0 .41.106.721.317.932.218.212.513.317.884.317zm3.048.759v-.807h.173c.294 0 .5-.115.615-.346.121-.23.185-.643.192-1.239l.057-2.959h3.584V123h-.865v-4.496H37.97l-.048 2.21c-.012.557-.076 1.008-.192 1.354-.109.346-.282.599-.518.759-.231.16-.535.24-.913.24h-.221zm6.026-.067l1.354-2.037c-.403-.096-.717-.281-.941-.557-.218-.275-.327-.618-.327-1.028 0-.519.17-.925.51-1.22.345-.294.816-.442 1.412-.442h2.276V123h-.864v-1.969H44.36L43.112 123h-1.01zm2.008-2.738h1.412v-1.777H44.11c-.32 0-.574.08-.76.24-.185.154-.278.371-.278.653 0 .276.093.493.279.654.185.153.438.23.759.23zM53.809 123v-5.284h.826v2.882c0 .186-.006.381-.02.586a8.055 8.055 0 01-.038.586c-.012.18-.029.333-.048.461l2.133-4.515h1.105V123h-.826v-2.882c0-.186.003-.381.01-.586.012-.205.028-.4.047-.586l.048-.471L54.913 123H53.81zm13.377.096c-.422 0-.794-.08-1.114-.24a1.73 1.73 0 01-.73-.692c-.173-.307-.26-.669-.26-1.085v-1.441c0-.423.087-.785.26-1.086.173-.301.416-.531.73-.692.32-.16.692-.24 1.114-.24.609 0 1.099.164 1.47.49.372.327.567.772.586 1.336h-.865c-.019-.34-.134-.599-.345-.779-.205-.185-.487-.278-.846-.278-.378 0-.679.109-.903.326-.224.212-.336.516-.336.913v1.451c0 .397.112.704.336.922.224.218.525.327.903.327.359 0 .64-.093.846-.279.211-.186.326-.445.346-.778h.864c-.02.563-.214 1.008-.586 1.335-.371.327-.861.49-1.47.49zm5.67 0c-.416 0-.78-.083-1.094-.25a1.804 1.804 0 01-.721-.701 2.203 2.203 0 01-.25-1.066v-1.441c0-.41.084-.766.25-1.067a1.81 1.81 0 01.72-.701c.314-.167.68-.25 1.096-.25.416 0 .778.083 1.085.25.314.167.554.4.72.701.174.301.26.657.26 1.067v.931h-3.285v.51c0 .416.105.736.317.96.211.218.512.327.903.327.333 0 .602-.058.807-.173a.764.764 0 00.374-.538h.865a1.473 1.473 0 01-.653 1.057c-.372.256-.836.384-1.393.384zm1.22-3.103v-.355c0-.417-.105-.737-.316-.961-.205-.224-.506-.336-.903-.336-.391 0-.692.112-.903.336-.212.224-.317.544-.317.961v.278h2.507l-.067.077zM76.914 123v-5.284h3.795v.788h-2.93V123h-.865zm5.171 0v-5.284h1.172l.692 2.027c.07.205.134.41.192.615.058.199.1.352.125.461.025-.109.064-.262.115-.461.058-.205.119-.413.183-.624l.653-2.018h1.172V123h-.836v-.817c0-.288.003-.602.01-.941l.019-1.028.038-.98c.013-.314.023-.589.03-.826l-.942 3.007h-.913l-.951-2.988c.013.288.022.647.029 1.076.013.429.022.878.029 1.345.013.468.019.913.019 1.335V123h-.836zm7.842.096c-.417 0-.782-.083-1.096-.25a1.803 1.803 0 01-.72-.701 2.203 2.203 0 01-.25-1.066v-1.441c0-.41.084-.766.25-1.067a1.81 1.81 0 01.72-.701c.314-.167.68-.25 1.096-.25.416 0 .778.083 1.085.25.314.167.554.4.72.701.174.301.26.657.26 1.067v.931h-3.285v.51c0 .416.105.736.317.96.211.218.512.327.903.327.333 0 .602-.058.807-.173a.764.764 0 00.374-.538h.865a1.473 1.473 0 01-.653 1.057c-.372.256-.836.384-1.393.384zm1.22-3.103v-.355c0-.417-.106-.737-.317-.961-.205-.224-.506-.336-.903-.336-.391 0-.692.112-.903.336-.212.224-.317.544-.317.961v.278h2.507l-.067.077zm2.49 3.007v-5.284h.865v2.2h2.229v-2.2h.864V123h-.864v-2.296H94.5V123h-.864zm7.237 0v-4.525h-1.922v-.759h4.708v.759h-1.922V123h-.864zm5.661.096c-.558 0-.996-.141-1.317-.423-.32-.288-.48-.675-.48-1.162 0-.493.16-.881.48-1.162.321-.282.753-.423 1.297-.423h1.633v-.529c0-.326-.099-.576-.297-.749-.192-.179-.468-.269-.827-.269-.313 0-.576.067-.787.202a.715.715 0 00-.365.528h-.865c.058-.454.272-.816.644-1.085.371-.269.835-.404 1.393-.404.608 0 1.088.157 1.441.471.352.314.528.74.528 1.278V123h-.845v-1.009h-.144l.144-.144c0 .384-.151.689-.452.913-.294.224-.688.336-1.181.336zm.211-.682c.41 0 .746-.102 1.009-.307a.958.958 0 00.393-.788v-.75h-1.613c-.289 0-.516.081-.683.241-.166.16-.249.378-.249.653 0 .295.099.528.297.701.205.167.487.25.846.25zm7.717 1.931V123h-3.757v-5.284h.865v4.515h2.075v-4.515h.865v4.515h.72v2.114h-.768zm1.933-1.345v-5.284h.826v2.882c0 .186-.006.381-.019.586a8.055 8.055 0 01-.038.586c-.013.18-.029.333-.049.461l2.133-4.515h1.105V123h-.826v-2.882c0-.186.003-.381.009-.586.013-.205.029-.4.048-.586l.048-.471L117.5 123h-1.105zm8.495.096c-.442 0-.798-.15-1.067-.451-.269-.301-.403-.695-.403-1.182v-.797h-.845V123h-.798v-5.284h.798v2.258h.845v-.721c0-.493.131-.887.394-1.181.269-.301.627-.452 1.076-.452.474 0 .855.151 1.143.452.288.294.432.688.432 1.181v2.21c0 .487-.144.881-.432 1.182-.288.301-.669.451-1.143.451zm0-.672c.243 0 .432-.084.567-.25.14-.173.211-.41.211-.711v-2.21c0-.301-.071-.534-.211-.701-.135-.173-.324-.259-.567-.259a.665.665 0 00-.557.259c-.135.167-.202.4-.202.701v2.21c0 .301.067.538.202.711.134.166.32.25.557.25zM25.39 142v-5.284h.864v2.181h.903l1.537-2.181h.99l-1.778 2.517L29.712 142h-1.008l-1.537-2.354h-.913V142h-.865zm4.997.067v-.807h.173c.295 0 .5-.115.615-.346.122-.23.186-.643.192-1.239l.058-2.959h3.583V142h-.864v-4.496H32.28l-.048 2.21c-.013.557-.077 1.008-.192 1.354-.11.346-.282.599-.52.759-.23.16-.534.24-.912.24h-.22zM36.74 142v-5.284h.826v2.882c0 .186-.006.381-.02.586a8.16 8.16 0 01-.038.586c-.013.18-.029.333-.048.461l2.133-4.515h1.105V142h-.826v-2.882c0-.186.003-.381.01-.586.012-.205.028-.4.047-.586l.048-.471L37.845 142H36.74zm7.668.096a2.3 2.3 0 01-1.095-.25 1.803 1.803 0 01-.72-.701 2.202 2.202 0 01-.25-1.066v-1.441c0-.41.083-.766.25-1.067a1.81 1.81 0 01.72-.701 2.3 2.3 0 011.095-.25c.417 0 .779.083 1.086.25.314.167.554.4.72.701.173.301.26.657.26 1.067v.931h-3.286v.51c0 .416.106.736.317.96.212.218.513.327.903.327.334 0 .602-.058.807-.173a.764.764 0 00.375-.538h.865a1.473 1.473 0 01-.654 1.057c-.371.256-.835.384-1.393.384zm1.22-3.103v-.355c0-.417-.105-.737-.316-.961-.206-.224-.506-.336-.904-.336-.39 0-.691.112-.903.336-.21.224-.317.544-.317.961v.278h2.508l-.067.077zM48.12 142v-5.284h.865v2.2h2.228v-2.2h.865V142h-.864v-2.296h-2.23V142h-.864zm7.236 0v-4.525h-1.92v-.759h4.706v.759h-1.92V142h-.866zm6.122.077c-.422 0-.787-.08-1.095-.24a1.744 1.744 0 01-.72-.692c-.167-.307-.25-.669-.25-1.086v-1.402c0-.423.083-.785.25-1.086.173-.301.413-.531.72-.691.308-.161.673-.241 1.095-.241.423 0 .788.08 1.096.241.307.16.544.39.71.691.173.301.26.66.26 1.076v1.412c0 .417-.087.779-.26 1.086a1.683 1.683 0 01-.71.692c-.308.16-.673.24-1.096.24zm0-.769c.378 0 .673-.105.884-.317.212-.211.317-.522.317-.932v-1.402c0-.41-.105-.721-.317-.932-.211-.211-.506-.317-.884-.317-.371 0-.666.106-.883.317-.212.211-.317.522-.317.932v1.402c0 .41.105.721.317.932.217.212.512.317.883.317zm3.711.692v-5.284h2.287c.55 0 .976.125 1.277.375.301.243.452.586.452 1.028 0 .365-.125.66-.375.884-.25.217-.58.326-.99.326v-.077c.449 0 .808.113 1.076.337.276.224.414.525.414.903 0 .474-.16.845-.48 1.114-.321.263-.77.394-1.346.394h-2.315zm.846-.759h1.47c.307 0 .544-.067.71-.202.173-.134.26-.323.26-.566 0-.25-.087-.442-.26-.577-.166-.134-.403-.202-.71-.202h-1.47v1.547zm0-2.296h1.44c.27 0 .48-.064.635-.192.16-.128.24-.307.24-.538 0-.231-.077-.41-.23-.538-.155-.135-.37-.202-.644-.202h-1.441v1.47zm6.823 3.151c-.244 0-.439-.07-.586-.211-.141-.141-.212-.33-.212-.567 0-.25.07-.448.212-.596.147-.147.342-.221.586-.221.243 0 .435.074.576.221.147.148.221.346.221.596 0 .237-.074.426-.22.567-.142.141-.334.211-.577.211zm-54.126 16.55c-.333 0-.609-.109-.827-.326a1.12 1.12 0 01-.326-.826c0-.34.109-.615.326-.827.218-.217.494-.326.827-.326.339 0 .614.109.826.326.218.212.326.487.326.827 0 .333-.108.608-.326.826-.212.217-.487.326-.826.326zm8.608 2.45c-.422 0-.787-.08-1.095-.24a1.697 1.697 0 01-.701-.692c-.16-.307-.24-.669-.24-1.085v-3.171c0-.422.08-.784.24-1.085.166-.301.4-.532.701-.692.308-.16.673-.24 1.096-.24.422 0 .784.08 1.085.24.308.16.541.391.701.692.167.301.25.66.25 1.076v3.18c0 .416-.083.778-.25 1.085-.16.301-.393.532-.701.692-.301.16-.663.24-1.085.24zm0-.778c.378 0 .667-.106.865-.317.205-.218.308-.525.308-.922v-3.171c0-.397-.103-.701-.308-.912-.198-.218-.487-.327-.864-.327-.372 0-.66.109-.865.327-.205.211-.308.515-.308.912v3.171c0 .397.103.704.308.922.205.211.493.317.864.317zm5.69.778c-.621 0-1.114-.182-1.48-.548-.358-.371-.537-.877-.537-1.517v-2.402c0-.845.211-1.496.634-1.95.422-.461 1.028-.692 1.815-.692h1.345v.865h-1.345c-.518 0-.912.153-1.181.461-.27.301-.404.74-.404 1.316v.624h.135l-.135.193c.007-.378.135-.673.385-.884.25-.212.589-.317 1.018-.317.557 0 .99.179 1.297.538.314.358.47.851.47 1.479v.769c0 .429-.08.797-.24 1.104-.16.308-.39.545-.691.711-.301.167-.663.25-1.086.25zm0-.768c.372 0 .657-.113.855-.337.199-.224.298-.544.298-.96v-.769c0-.416-.1-.736-.298-.961-.198-.224-.483-.336-.855-.336-.371 0-.656.112-.855.336-.198.218-.298.538-.298.961v.769c0 .416.1.736.298.96.199.224.484.337.855.337zm5.69.768c-.416 0-.782-.083-1.095-.25a1.803 1.803 0 01-.72-.701 2.203 2.203 0 01-.25-1.066v-1.441c0-.41.083-.766.25-1.067a1.81 1.81 0 01.72-.701c.313-.167.678-.25 1.095-.25.416 0 .778.083 1.085.25.314.167.554.4.72.701.174.301.26.657.26 1.067v.931H37.5v.51c0 .416.105.736.317.96.211.218.512.327.903.327.333 0 .602-.058.807-.173a.764.764 0 00.374-.538h.865a1.473 1.473 0 01-.653 1.057c-.372.256-.836.384-1.393.384zm1.22-3.103v-.355c0-.417-.106-.737-.317-.961-.205-.224-.506-.336-.903-.336-.39 0-.692.112-.903.336-.212.224-.317.544-.317.961v.278h2.507l-.067.077zm4.489 3.103c-.423 0-.794-.08-1.115-.24a1.73 1.73 0 01-.73-.692c-.173-.307-.26-.669-.26-1.085v-1.441c0-.423.087-.785.26-1.086.173-.301.416-.531.73-.692.32-.16.692-.24 1.115-.24.608 0 1.098.164 1.47.49.37.327.566.772.585 1.336h-.864c-.02-.34-.135-.599-.346-.779-.205-.185-.487-.278-.845-.278-.378 0-.68.109-.903.326-.224.212-.337.516-.337.913v1.451c0 .397.112.704.337.922.224.218.525.327.903.327.358 0 .64-.093.845-.279.211-.186.327-.445.346-.778h.864c-.019.563-.214 1.008-.585 1.335-.372.327-.862.49-1.47.49zM48.12 161v-5.284h3.958V161h-.864v-4.496h-2.23V161h-.864zm7.669.096c-.416 0-.782-.083-1.095-.25a1.803 1.803 0 01-.72-.701 2.203 2.203 0 01-.25-1.066v-1.441c0-.41.083-.766.25-1.067a1.81 1.81 0 01.72-.701c.313-.167.678-.25 1.095-.25.416 0 .778.083 1.085.25.314.167.554.4.72.701.174.301.26.657.26 1.067v.931h-3.285v.51c0 .416.105.736.317.96.211.218.512.327.903.327.333 0 .602-.058.807-.173a.764.764 0 00.374-.538h.865a1.473 1.473 0 01-.653 1.057c-.372.256-.836.384-1.393.384zm1.22-3.103v-.355c0-.417-.106-.737-.317-.961-.205-.224-.506-.336-.903-.336-.39 0-.692.112-.903.336-.212.224-.317.544-.317.961v.278h2.507l-.067.077zM62.534 161v-1.921c-.102.025-.26.051-.47.077a7.094 7.094 0 01-.654.028c-.653.007-1.162-.15-1.527-.47-.359-.327-.538-.782-.538-1.365v-1.633h.864v1.633c0 .327.11.586.327.779.224.185.532.278.922.278.27 0 .497-.009.682-.029.192-.025.324-.048.394-.067v-2.594h.865V161h-.865zm2.654 0v-5.284h.826v2.882c0 .186-.006.381-.019.586a8.66 8.66 0 01-.038.586c-.013.18-.03.333-.048.461l2.132-4.515h1.105V161h-.826v-2.882c0-.186.003-.381.01-.586.012-.205.028-.4.047-.586l.049-.471L66.293 161h-1.105zm5.027.067v-.807h.173c.294 0 .5-.115.615-.346.121-.23.185-.643.192-1.239l.057-2.959h3.584V161h-.865v-4.496h-1.864l-.048 2.21c-.013.557-.076 1.008-.192 1.354-.109.346-.282.599-.519.759-.23.16-.534.24-.912.24h-.221zm6.352-.067v-5.284h.827v2.882c0 .186-.007.381-.02.586a8.055 8.055 0 01-.038.586c-.013.18-.029.333-.048.461l2.133-4.515h1.104V161H79.7v-2.882c0-.186.003-.381.01-.586.013-.205.029-.4.048-.586l.048-.471L77.672 161h-1.105zm12.898.096c-.558 0-.996-.141-1.317-.423-.32-.288-.48-.675-.48-1.162 0-.493.16-.881.48-1.162.32-.282.753-.423 1.297-.423h1.634v-.529c0-.326-.1-.576-.298-.749-.193-.179-.468-.269-.827-.269-.313 0-.576.067-.787.202a.717.717 0 00-.365.528h-.865c.058-.454.272-.816.644-1.085.371-.269.835-.404 1.393-.404.608 0 1.088.157 1.44.471.353.314.53.74.53 1.278V161h-.846v-1.009h-.144l.144-.144c0 .384-.15.689-.452.913-.294.224-.688.336-1.181.336zm.21-.682c.41 0 .747-.102 1.01-.307a.957.957 0 00.394-.788v-.75h-1.614c-.289 0-.516.081-.683.241-.166.16-.25.378-.25.653 0 .295.1.528.299.701.204.167.486.25.845.25zm3.961.586v-5.284h2.287c.55 0 .976.125 1.277.375.301.243.452.586.452 1.028 0 .365-.125.66-.375.884-.25.217-.58.326-.99.326v-.077c.45 0 .808.113 1.077.337.275.224.413.525.413.903 0 .474-.16.845-.48 1.114-.32.263-.769.394-1.345.394h-2.316zm.846-.759h1.47c.307 0 .544-.067.71-.202.173-.134.26-.323.26-.566 0-.25-.087-.442-.26-.577-.166-.134-.403-.202-.71-.202h-1.47v1.547zm0-2.296h1.44c.27 0 .481-.064.635-.192.16-.128.24-.307.24-.538 0-.231-.077-.41-.23-.538-.154-.135-.369-.202-.644-.202h-1.441v1.47zm6.391 3.055v-4.525h-1.922v-.759h4.708v.759h-1.922V161h-.864zm6.122.077c-.423 0-.788-.08-1.096-.24a1.745 1.745 0 01-.72-.692c-.167-.307-.25-.669-.25-1.086v-1.402c0-.423.083-.785.25-1.086.173-.301.413-.531.72-.691.308-.161.673-.241 1.096-.241.422 0 .787.08 1.095.241.307.16.544.39.711.691.173.301.259.66.259 1.076v1.412c0 .417-.086.779-.259 1.086a1.689 1.689 0 01-.711.692c-.308.16-.673.24-1.095.24zm0-.769c.378 0 .672-.105.883-.317.212-.211.317-.522.317-.932v-1.402c0-.41-.105-.721-.317-.932-.211-.211-.505-.317-.883-.317-.372 0-.666.106-.884.317-.212.211-.317.522-.317.932v1.402c0 .41.105.721.317.932.218.212.512.317.884.317zm3.537.692v-5.284h1.172l.692 2.027c.071.205.135.41.192.615.058.199.1.352.125.461.026-.109.064-.262.115-.461.058-.205.119-.413.183-.624l.653-2.018h1.172V161H114v-.817c0-.288.004-.602.01-.941l.019-1.028.039-.98c.012-.314.022-.589.028-.826l-.941 3.007h-.913l-.951-2.988c.013.288.023.647.029 1.076.013.429.023.878.029 1.345.013.468.019.913.019 1.335V161h-.836zm7.381.096c-.557 0-.996-.141-1.316-.423-.321-.288-.481-.675-.481-1.162 0-.493.16-.881.481-1.162.32-.282.752-.423 1.297-.423h1.633v-.529c0-.326-.1-.576-.298-.749-.192-.179-.468-.269-.826-.269-.314 0-.577.067-.788.202a.718.718 0 00-.365.528h-.865c.058-.454.273-.816.644-1.085s.836-.404 1.393-.404c.608 0 1.089.157 1.441.471.352.314.528.74.528 1.278V161h-.845v-1.009h-.144l.144-.144c0 .384-.151.689-.452.913-.294.224-.688.336-1.181.336zm.211-.682c.41 0 .746-.102 1.009-.307a.959.959 0 00.394-.788v-.75h-1.614c-.288 0-.516.081-.682.241-.167.16-.25.378-.25.653 0 .295.099.528.298.701.205.167.487.25.845.25zm5.507.586v-4.525h-1.921v-.759h4.707v.759h-1.921V161h-.865zm4.143 0v-5.284h.826v2.882c0 .186-.006.381-.019.586a8.055 8.055 0 01-.038.586c-.013.18-.029.333-.048.461l2.132-4.515h1.105V161h-.826v-2.882c0-.186.003-.381.01-.586.012-.205.028-.4.048-.586l.048-.471-2.133 4.525h-1.105zm8.726 0v-1.921c-.103.025-.26.051-.471.077a7.1 7.1 0 01-.653.028c-.654.007-1.163-.15-1.528-.47-.358-.327-.538-.782-.538-1.365v-1.633h.865v1.633c0 .327.109.586.326.779.225.185.532.278.923.278.269 0 .496-.009.682-.029a3.52 3.52 0 00.394-.067v-2.594h.864V161h-.864zm4.633.096c-.417 0-.782-.083-1.096-.25a1.805 1.805 0 01-.72-.701 2.197 2.197 0 01-.25-1.066v-1.441c0-.41.083-.766.25-1.067.173-.301.413-.534.72-.701.314-.167.679-.25 1.096-.25.416 0 .778.083 1.085.25.314.167.554.4.721.701.173.301.259.657.259 1.067v.931h-3.285v.51c0 .416.105.736.317.96.211.218.512.327.903.327.333 0 .602-.058.807-.173a.766.766 0 00.374-.538h.865a1.476 1.476 0 01-.653 1.057c-.372.256-.836.384-1.393.384zm1.22-3.103v-.355c0-.417-.106-.737-.317-.961-.205-.224-.506-.336-.903-.336-.391 0-.692.112-.903.336-.212.224-.317.544-.317.961v.278h2.507l-.067.077zm4.488 3.103c-.422 0-.794-.08-1.114-.24a1.73 1.73 0 01-.73-.692c-.173-.307-.259-.669-.259-1.085v-1.441c0-.423.086-.785.259-1.086.173-.301.416-.531.73-.692.32-.16.692-.24 1.114-.24.609 0 1.099.164 1.47.49.372.327.567.772.586 1.336h-.864c-.02-.34-.135-.599-.346-.779-.205-.185-.487-.278-.846-.278-.377 0-.678.109-.903.326-.224.212-.336.516-.336.913v1.451c0 .397.112.704.336.922.225.218.526.327.903.327.359 0 .641-.093.846-.279.211-.186.326-.445.346-.778h.864c-.019.563-.214 1.008-.586 1.335-.371.327-.861.49-1.47.49zm3.721-.096v-5.284h.864v2.181h.903l1.537-2.181h.99l-1.777 2.517 1.806 2.767h-1.009l-1.537-2.354h-.913V161h-.864zm7.64.077c-.423 0-.788-.08-1.096-.24a1.745 1.745 0 01-.72-.692c-.167-.307-.25-.669-.25-1.086v-1.402c0-.423.083-.785.25-1.086.173-.301.413-.531.72-.691.308-.161.673-.241 1.096-.241.422 0 .787.08 1.095.241.307.16.544.39.711.691.173.301.259.66.259 1.076v1.412c0 .417-.086.779-.259 1.086a1.689 1.689 0 01-.711.692c-.308.16-.673.24-1.095.24zm0-.769c.377 0 .672-.105.883-.317.212-.211.317-.522.317-.932v-1.402c0-.41-.105-.721-.317-.932-.211-.211-.506-.317-.883-.317-.372 0-.667.106-.884.317-.212.211-.317.522-.317.932v1.402c0 .41.105.721.317.932.217.212.512.317.884.317zm5.689.788c-.416 0-.781-.083-1.095-.25a1.799 1.799 0 01-.72-.701 2.197 2.197 0 01-.25-1.066v-1.441c0-.41.083-.766.25-1.067.172-.301.413-.534.72-.701.314-.167.679-.25 1.095-.25.416 0 .778.083 1.086.25.314.167.554.4.72.701.173.301.26.657.26 1.067v.931h-3.286v.51c0 .416.106.736.317.96.212.218.513.327.903.327.333 0 .602-.058.807-.173a.765.765 0 00.375-.538h.864a1.47 1.47 0 01-.653 1.057c-.371.256-.836.384-1.393.384zm1.22-3.103v-.355c0-.417-.105-.737-.317-.961-.205-.224-.506-.336-.903-.336-.39 0-.691.112-.903.336-.211.224-.317.544-.317.961v.278h2.507l-.067.077zM27.339 180.077c-.422 0-.787-.08-1.095-.24a1.744 1.744 0 01-.72-.692c-.167-.307-.25-.669-.25-1.086v-1.402c0-.423.083-.785.25-1.086.173-.301.413-.531.72-.691.308-.161.673-.241 1.096-.241.422 0 .787.08 1.095.241.307.16.544.39.71.691.174.301.26.66.26 1.076v1.412c0 .417-.087.779-.26 1.086a1.683 1.683 0 01-.71.692c-.308.16-.673.24-1.095.24zm0-.769c.378 0 .673-.105.884-.317.212-.211.317-.522.317-.932v-1.402c0-.41-.105-.721-.317-.932-.211-.211-.506-.317-.883-.317-.372 0-.667.106-.884.317-.212.211-.317.522-.317.932v1.402c0 .41.105.721.317.932.217.212.512.317.884.317zm5.69.788c-.621 0-1.114-.182-1.48-.548-.358-.371-.537-.877-.537-1.517v-2.402c0-.845.211-1.496.634-1.95.422-.461 1.028-.692 1.815-.692h1.345v.865h-1.345c-.518 0-.912.153-1.181.461-.27.301-.404.74-.404 1.316v.624h.135l-.135.193c.007-.378.135-.673.385-.884.25-.212.589-.317 1.018-.317.557 0 .99.179 1.297.538.314.358.47.851.47 1.479v.769c0 .429-.08.797-.24 1.104-.16.308-.39.545-.691.711-.301.167-.663.25-1.086.25zm0-.768c.372 0 .657-.113.855-.337.199-.224.298-.544.298-.96v-.769c0-.416-.1-.736-.298-.961-.198-.224-.483-.336-.855-.336-.371 0-.656.112-.855.336-.198.218-.298.538-.298.961v.769c0 .416.1.736.298.96.199.224.484.337.855.337zm3.71.672v-5.284h.865v2.2h2.23v-2.2h.864V180h-.865v-2.296h-2.229V180h-.864zm7.67.077c-.423 0-.788-.08-1.096-.24a1.744 1.744 0 01-.72-.692c-.167-.307-.25-.669-.25-1.086v-1.402c0-.423.083-.785.25-1.086.173-.301.413-.531.72-.691.308-.161.673-.241 1.095-.241.423 0 .788.08 1.096.241.307.16.544.39.71.691.173.301.26.66.26 1.076v1.412c0 .417-.087.779-.26 1.086a1.683 1.683 0 01-.71.692c-.308.16-.673.24-1.096.24zm0-.769c.377 0 .672-.105.883-.317.212-.211.317-.522.317-.932v-1.402c0-.41-.105-.721-.317-.932-.211-.211-.506-.317-.884-.317-.371 0-.666.106-.883.317-.212.211-.317.522-.317.932v1.402c0 .41.105.721.317.932.217.212.512.317.883.317zm3.71.692v-5.284h2.287c.55 0 .976.125 1.277.375.301.243.452.586.452 1.028 0 .365-.125.66-.375.884-.25.217-.58.326-.99.326v-.077c.449 0 .807.113 1.076.337.276.224.414.525.414.903 0 .474-.16.845-.48 1.114-.321.263-.77.394-1.346.394H48.12zm.846-.759h1.47c.307 0 .544-.067.71-.202.173-.134.26-.323.26-.566 0-.25-.087-.442-.26-.577-.166-.134-.403-.202-.71-.202h-1.47v1.547zm0-2.296h1.44c.27 0 .48-.064.635-.192.16-.128.24-.307.24-.538 0-.231-.077-.41-.23-.538-.154-.135-.37-.202-.644-.202h-1.441v1.47zm4.18 3.122v-.807h.174c.294 0 .5-.115.615-.346.121-.23.185-.643.192-1.239l.057-2.959h3.584V180h-.865v-4.496h-1.864l-.048 2.21c-.012.557-.077 1.008-.192 1.354-.109.346-.282.599-.519.759-.23.16-.534.24-.912.24h-.221zm8.332.029a2.3 2.3 0 01-1.095-.25 1.804 1.804 0 01-.72-.701 2.203 2.203 0 01-.25-1.066v-1.441c0-.41.083-.766.25-1.067a1.81 1.81 0 01.72-.701 2.3 2.3 0 011.095-.25c.417 0 .779.083 1.086.25.314.167.554.4.72.701.173.301.26.657.26 1.067v.931h-3.286v.51c0 .416.106.736.317.96.212.218.513.327.903.327.333 0 .602-.058.807-.173a.764.764 0 00.375-.538h.865a1.473 1.473 0 01-.654 1.057c-.371.256-.835.384-1.393.384zm1.22-3.103v-.355c0-.417-.105-.737-.317-.961-.205-.224-.506-.336-.903-.336-.39 0-.691.112-.903.336-.211.224-.317.544-.317.961v.278h2.508l-.068.077zM65.189 180v-5.284h.865v2.2h2.228v-2.2h.865V180h-.865v-2.296h-2.228V180h-.865zm5.69 0v-5.284h.826v2.882c0 .186-.006.381-.02.586a8.055 8.055 0 01-.038.586 6.05 6.05 0 01-.048.461l2.133-4.515h1.105V180h-.826v-2.882c0-.186.003-.381.01-.586.012-.205.028-.4.047-.586l.048-.471L71.983 180h-1.105zm7.668.096c-.416 0-.781-.083-1.095-.25a1.803 1.803 0 01-.72-.701 2.203 2.203 0 01-.25-1.066v-1.441c0-.41.083-.766.25-1.067a1.81 1.81 0 01.72-.701 2.3 2.3 0 011.095-.25c.417 0 .778.083 1.086.25.314.167.554.4.72.701.173.301.26.657.26 1.067v.931h-3.286v.51c0 .416.106.736.317.96.212.218.513.327.903.327.333 0 .602-.058.807-.173a.764.764 0 00.375-.538h.865a1.473 1.473 0 01-.654 1.057c-.371.256-.835.384-1.393.384zm1.22-3.103v-.355c0-.417-.105-.737-.317-.961-.204-.224-.506-.336-.903-.336-.39 0-.691.112-.903.336-.211.224-.317.544-.317.961v.278h2.508l-.068.077zm7.566 4.352v-2.085h.432c.109-.109.221-.323.336-.643.122-.321.186-.727.193-1.22l.057-2.681H91.8v4.544h.672v2.085h-.768V180H88.1v1.345h-.768zm1.345-2.085h2.257v-3.775h-1.767l-.039 1.931c-.006.506-.06.916-.163 1.229-.103.314-.199.519-.288.615zm6.477.836c-.557 0-.996-.141-1.316-.423-.32-.288-.48-.675-.48-1.162 0-.493.16-.881.48-1.162.32-.282.753-.423 1.297-.423h1.633v-.529c0-.326-.1-.576-.298-.749-.192-.179-.467-.269-.826-.269-.314 0-.576.067-.788.202a.717.717 0 00-.365.528h-.864c.057-.454.272-.816.643-1.085.372-.269.836-.404 1.393-.404.609 0 1.09.157 1.441.471.353.314.529.74.529 1.278V180h-.846v-1.009h-.144l.144-.144c0 .384-.15.689-.451.913-.295.224-.689.336-1.182.336zm.212-.682c.41 0 .746-.102 1.008-.307a.957.957 0 00.394-.788v-.75h-1.614c-.288 0-.515.081-.682.241-.166.16-.25.378-.25.653 0 .295.1.528.298.701.205.167.487.25.846.25zm3.96.586v-5.284h.865v2.2h2.228v-2.2h.865V180h-.865v-2.296h-2.228V180h-.865zm5.69 0v-5.284h.864v2.2h2.229v-2.2h.865V180h-.865v-2.296h-2.229V180h-.864zm5.411 0v-5.284h.807v1.941h.432c.57 0 1.018.15 1.345.451.333.295.499.702.499 1.22 0 .519-.166.929-.499 1.23-.327.295-.775.442-1.345.442h-1.239zm.807-.692h.432c.339 0 .602-.086.788-.259.192-.173.288-.413.288-.721 0-.307-.096-.547-.288-.72-.186-.173-.449-.259-.788-.259h-.432v1.959zm2.901.692v-5.284h.807V180h-.807zm1.837 0l1.874-2.719-1.758-2.565h1.018l1.047 1.633c.045.071.086.148.125.231.045.083.08.151.106.202.019-.051.048-.119.086-.202.045-.083.09-.16.135-.231l1.056-1.633h1.009l-1.758 2.575 1.864 2.709h-1.019l-1.133-1.729a2.86 2.86 0 01-.135-.24 2.068 2.068 0 00-.105-.231 3.54 3.54 0 01-.116.231 1.813 1.813 0 01-.144.24L116.981 180h-1.009zm11.802 0v-5.284h2.287c.55 0 .976.125 1.277.375.301.243.452.586.452 1.028 0 .365-.125.66-.375.884-.25.217-.579.326-.989.326v-.077c.448 0 .807.113 1.076.337.275.224.413.525.413.903 0 .474-.16.845-.481 1.114-.32.263-.768.394-1.345.394h-2.315zm.846-.759h1.469c.308 0 .545-.067.711-.202.173-.134.26-.323.26-.566 0-.25-.087-.442-.26-.577-.166-.134-.403-.202-.711-.202h-1.469v1.547zm0-2.296h1.441c.269 0 .48-.064.634-.192.16-.128.24-.307.24-.538 0-.231-.077-.41-.231-.538-.153-.135-.368-.202-.643-.202h-1.441v1.47zm-103.28 24.784v-7.013h.865v1.009h.173l-.173.202c0-.404.131-.721.394-.951.269-.237.621-.356 1.056-.356.532 0 .955.176 1.269.529.32.345.48.823.48 1.431v1.547c0 .403-.074.752-.221 1.047-.14.294-.343.522-.605.682-.256.16-.564.24-.922.24-.43 0-.779-.118-1.048-.355s-.403-.554-.403-.951l.173.201h-.192l.019 1.201v1.537h-.865zm2.027-2.382c.365 0 .65-.109.855-.327.212-.218.317-.531.317-.941v-1.441c0-.41-.105-.724-.317-.942-.205-.218-.49-.326-.855-.326-.352 0-.634.112-.845.336-.211.224-.317.535-.317.932v1.441c0 .397.106.707.317.932.211.224.493.336.845.336zm5.661.749c-.416 0-.781-.083-1.095-.25a1.803 1.803 0 01-.72-.701 2.202 2.202 0 01-.25-1.066v-1.441c0-.41.083-.766.25-1.067a1.81 1.81 0 01.72-.701c.314-.167.679-.25 1.095-.25.416 0 .778.083 1.086.25.313.167.554.4.72.701.173.301.26.657.26 1.067v.931h-3.286v.51c0 .416.106.736.317.96.211.218.513.327.903.327.333 0 .602-.058.807-.173a.764.764 0 00.375-.538h.864a1.473 1.473 0 01-.653 1.057c-.371.256-.836.384-1.393.384zm1.22-3.103v-.355c0-.417-.105-.737-.317-.961-.205-.224-.506-.336-.903-.336-.39 0-.692.112-.903.336-.211.224-.317.544-.317.961v.278h2.507l-.067.077zm4.009 3.103c-.558 0-.996-.141-1.317-.423-.32-.288-.48-.675-.48-1.162 0-.493.16-.881.48-1.162.32-.282.753-.423 1.297-.423h1.634v-.529c0-.326-.1-.576-.298-.749-.192-.179-.468-.269-.826-.269-.314 0-.577.067-.788.202a.717.717 0 00-.365.528h-.865c.058-.454.272-.816.644-1.085.371-.269.836-.404 1.393-.404.608 0 1.089.157 1.44.471.353.314.53.74.53 1.278V200h-.846v-1.009h-.144l.144-.144c0 .384-.15.689-.452.913-.294.224-.688.336-1.181.336zm.211-.682c.41 0 .746-.102 1.009-.307a.957.957 0 00.394-.788v-.75h-1.614c-.289 0-.516.081-.682.241-.167.16-.25.378-.25.653 0 .295.1.528.298.701.205.167.486.25.845.25zm3.298.653v-.807h.172c.295 0 .5-.115.615-.346.122-.23.186-.643.192-1.239l.058-2.959h3.583V200h-.864v-4.496h-1.864l-.048 2.21c-.013.557-.077 1.008-.192 1.354-.109.346-.282.599-.519.759-.23.16-.535.24-.913.24h-.22zm6.39-.067v-5.284h.865v1.941h1.556c.596 0 1.064.15 1.403.451.346.295.519.702.519 1.22 0 .513-.173.919-.519 1.22-.346.301-.813.452-1.403.452h-2.42zm.865-.788h1.556c.333 0 .586-.073.76-.221.179-.153.268-.374.268-.663 0-.288-.09-.506-.269-.653-.173-.154-.426-.23-.759-.23h-1.556v1.767zm4.787.788v-5.284h.864v2.2h2.23v-2.2h.864V200h-.865v-2.296h-2.229V200h-.864zm7.668.077c-.422 0-.787-.08-1.095-.24a1.744 1.744 0 01-.72-.692c-.167-.307-.25-.669-.25-1.086v-1.402c0-.423.083-.785.25-1.086.173-.301.413-.531.72-.691.308-.161.673-.241 1.095-.241.423 0 .788.08 1.096.241.307.16.544.39.71.691.173.301.26.66.26 1.076v1.412c0 .417-.087.779-.26 1.086a1.683 1.683 0 01-.71.692c-.308.16-.673.24-1.096.24zm0-.769c.378 0 .673-.105.884-.317.212-.211.317-.522.317-.932v-1.402c0-.41-.105-.721-.317-.932-.211-.211-.506-.317-.884-.317-.371 0-.666.106-.883.317-.212.211-.317.522-.317.932v1.402c0 .41.105.721.317.932.217.212.512.317.883.317zm3.538.692v-5.284h1.172l.692 2.027c.07.205.134.41.192.615.058.199.1.352.125.461.026-.109.064-.262.115-.461.058-.205.119-.413.183-.624l.653-2.018h1.172V200h-.836v-.817c0-.288.003-.602.01-.941l.019-1.028.038-.98c.013-.314.023-.589.03-.826l-.942 3.007h-.913l-.95-2.988c.012.288.021.647.028 1.076.013.429.022.878.029 1.345.013.468.019.913.019 1.335V200h-.836zm11.552 0v-5.284h2.287c.55 0 .977.125 1.278.375.3.243.451.586.451 1.028 0 .365-.125.66-.375.884-.25.217-.58.326-.99.326v-.077c.45 0 .808.113 1.077.337.275.224.413.525.413.903 0 .474-.16.845-.48 1.114-.32.263-.769.394-1.345.394h-2.316zm.846-.759h1.47c.307 0 .544-.067.71-.202.173-.134.26-.323.26-.566 0-.25-.087-.442-.26-.577-.166-.134-.403-.202-.71-.202h-1.47v1.547zm0-2.296h1.44c.27 0 .481-.064.635-.192.16-.128.24-.307.24-.538 0-.231-.077-.41-.23-.538-.154-.135-.369-.202-.644-.202h-1.441v1.47zm4.825 4.784v-7.013h.864v1.009h.173l-.173.202c0-.404.132-.721.394-.951.27-.237.622-.356 1.057-.356.532 0 .954.176 1.268.529.32.345.48.823.48 1.431v1.547c0 .403-.073.752-.22 1.047a1.573 1.573 0 01-.606.682c-.256.16-.563.24-.922.24-.43 0-.778-.118-1.047-.355-.27-.237-.404-.554-.404-.951l.173.201h-.192l.02 1.201v1.537h-.865zm2.027-2.382c.365 0 .65-.109.855-.327.211-.218.317-.531.317-.941v-1.441c0-.41-.106-.724-.317-.942-.205-.218-.49-.326-.855-.326-.352 0-.634.112-.846.336-.21.224-.317.535-.317.932v1.441c0 .397.106.707.317.932.212.224.494.336.846.336zm5.66.749c-.416 0-.78-.083-1.094-.25a1.803 1.803 0 01-.721-.701 2.203 2.203 0 01-.25-1.066v-1.441c0-.41.084-.766.25-1.067a1.81 1.81 0 01.72-.701c.314-.167.68-.25 1.096-.25.416 0 .778.083 1.085.25.314.167.554.4.72.701.174.301.26.657.26 1.067v.931h-3.285v.51c0 .416.105.736.317.96.211.218.512.327.903.327.333 0 .602-.058.807-.173a.764.764 0 00.374-.538h.865a1.473 1.473 0 01-.653 1.057c-.372.256-.836.384-1.393.384zm1.22-3.103v-.355c0-.417-.105-.737-.316-.961-.205-.224-.506-.336-.903-.336-.391 0-.692.112-.903.336-.212.224-.317.544-.317.961v.278h2.507l-.067.077zM93.464 200v-5.284h1.172l.692 2.027c.07.205.135.41.192.615.058.199.1.352.125.461.026-.109.064-.262.115-.461.058-.205.119-.413.183-.624l.653-2.018h1.172V200h-.835v-.817c0-.288.003-.602.01-.941l.018-1.028.039-.98c.013-.314.022-.589.029-.826l-.942 3.007h-.913l-.95-2.988c.012.288.022.647.028 1.076.013.429.023.878.029 1.345.013.468.02.913.02 1.335V200h-.837zm7.842.096c-.416 0-.781-.083-1.095-.25a1.803 1.803 0 01-.72-.701 2.203 2.203 0 01-.25-1.066v-1.441c0-.41.083-.766.25-1.067a1.81 1.81 0 01.72-.701c.314-.167.679-.25 1.095-.25.416 0 .778.083 1.086.25.313.167.554.4.72.701.173.301.259.657.259 1.067v.931h-3.285v.51c0 .416.106.736.317.96.211.218.512.327.903.327.333 0 .602-.058.807-.173a.765.765 0 00.375-.538h.864a1.47 1.47 0 01-.653 1.057c-.371.256-.836.384-1.393.384zm1.22-3.103v-.355c0-.417-.106-.737-.317-.961-.205-.224-.506-.336-.903-.336-.391 0-.692.112-.903.336-.211.224-.317.544-.317.961v.278h2.507l-.067.077zm2.491 3.007v-5.284h.864v2.2h2.229v-2.2h.865V200h-.865v-2.296h-2.229V200h-.864zm5.689 0v-5.284h.826v2.882c0 .186-.006.381-.019.586a8.055 8.055 0 01-.038.586c-.013.18-.029.333-.048.461l2.133-4.515h1.104V200h-.826v-2.882c0-.186.003-.381.01-.586.013-.205.029-.4.048-.586l.048-.471L111.81 200h-1.105zm7.669.096c-.243 0-.439-.07-.586-.211-.141-.141-.211-.33-.211-.567 0-.25.07-.448.211-.596.147-.147.343-.221.586-.221.243 0 .435.074.576.221.148.148.221.346.221.596 0 .237-.073.426-.221.567-.141.141-.333.211-.576.211zm-99.643 16.55c-.333 0-.609-.109-.827-.326a1.12 1.12 0 01-.326-.826c0-.34.109-.615.326-.827.218-.217.494-.326.827-.326.339 0 .614.109.826.326.218.212.326.487.326.827 0 .333-.108.608-.326.826-.212.217-.487.326-.826.326zm7.56 2.354l.711-1.816-2.065-5.197h.941l1.259 3.43a5.826 5.826 0 01.297 1.056c.013-.096.042-.24.087-.432a7.13 7.13 0 01.173-.624l1.105-3.43h.941L27.215 219h-.923zm6.737.096c-.621 0-1.114-.182-1.48-.548-.358-.371-.537-.877-.537-1.517v-2.402c0-.845.211-1.496.634-1.95.422-.461 1.028-.692 1.815-.692h1.345v.865h-1.345c-.518 0-.912.153-1.181.461-.27.301-.404.74-.404 1.316v.624h.135l-.135.193c.007-.378.135-.673.385-.884.25-.212.589-.317 1.018-.317.557 0 .99.179 1.297.538.314.358.47.851.47 1.479v.769c0 .429-.08.797-.24 1.104-.16.308-.39.545-.691.711-.301.167-.663.25-1.086.25zm0-.768c.372 0 .657-.113.855-.337.199-.224.298-.544.298-.96v-.769c0-.416-.1-.736-.298-.961-.198-.224-.483-.336-.855-.336-.371 0-.656.112-.855.336-.198.218-.298.538-.298.961v.769c0 .416.1.736.298.96.199.224.484.337.855.337zm3.692 2.401v-7.013h.864v1.009h.173l-.173.202c0-.404.132-.721.394-.951.27-.237.621-.356 1.057-.356.531 0 .954.176 1.268.529.32.345.48.823.48 1.431v1.547c0 .403-.073.752-.22 1.047a1.58 1.58 0 01-.606.682c-.256.16-.563.24-.922.24-.43 0-.778-.118-1.047-.355-.27-.237-.404-.554-.404-.951l.173.201h-.192l.02 1.201v1.537h-.865zm2.027-2.382c.365 0 .65-.109.855-.327.211-.218.317-.531.317-.941v-1.441c0-.41-.106-.724-.317-.942-.205-.218-.49-.326-.855-.326-.353 0-.634.112-.846.336-.211.224-.317.535-.317.932v1.441c0 .397.106.707.317.932.212.224.493.336.846.336zm5.2.749c-.558 0-.997-.141-1.317-.423-.32-.288-.48-.675-.48-1.162 0-.493.16-.881.48-1.162.32-.282.753-.423 1.297-.423h1.633v-.529c0-.326-.099-.576-.298-.749-.192-.179-.467-.269-.826-.269-.314 0-.576.067-.787.202a.717.717 0 00-.365.528h-.865c.057-.454.272-.816.643-1.085.372-.269.836-.404 1.393-.404.609 0 1.09.157 1.441.471.353.314.529.74.529 1.278V219h-.846v-1.009h-.144l.145-.144c0 .384-.151.689-.452.913-.295.224-.688.336-1.182.336zm.21-.682c.41 0 .747-.102 1.01-.307a.957.957 0 00.393-.788v-.75h-1.614c-.288 0-.515.081-.682.241-.166.16-.25.378-.25.653 0 .295.1.528.298.701.205.167.487.25.846.25zm3.298.653v-.807h.173c.295 0 .5-.115.615-.346.122-.23.186-.643.192-1.239l.058-2.959h3.583V219h-.864v-4.496h-1.864l-.048 2.21c-.013.557-.077 1.008-.192 1.354-.11.346-.282.599-.52.759-.23.16-.534.24-.912.24h-.22zM53.81 219v-5.284h.826v2.882c0 .186-.006.381-.02.586a8.055 8.055 0 01-.038.586c-.012.18-.029.333-.048.461l2.133-4.515h1.105V219h-.826v-2.882c0-.186.003-.381.01-.586.012-.205.028-.4.047-.586l.048-.471L54.913 219H53.81zm11.38 0v-5.284h2.286c.55 0 .976.125 1.277.375.301.243.452.586.452 1.028 0 .365-.125.66-.375.884-.25.217-.58.326-.99.326v-.077c.449 0 .808.113 1.076.337.276.224.414.525.414.903 0 .474-.16.845-.48 1.114-.321.263-.77.394-1.346.394h-2.315zm.845-.759h1.47c.307 0 .544-.067.71-.202.173-.134.26-.323.26-.566 0-.25-.087-.442-.26-.577-.166-.134-.403-.202-.71-.202h-1.47v1.547zm0-2.296h1.44c.27 0 .48-.064.635-.192.16-.128.24-.307.24-.538 0-.231-.077-.41-.23-.538-.155-.135-.37-.202-.644-.202h-1.441v1.47zm6.842 3.151c-.423 0-.794-.08-1.115-.24a1.73 1.73 0 01-.73-.692c-.172-.307-.259-.669-.259-1.085v-1.441c0-.423.087-.785.26-1.086a1.73 1.73 0 01.73-.692c.32-.16.691-.24 1.114-.24.608 0 1.098.164 1.47.49.371.327.567.772.586 1.336h-.865c-.02-.34-.134-.599-.346-.779-.205-.185-.486-.278-.845-.278-.378 0-.679.109-.903.326-.224.212-.336.516-.336.913v1.451c0 .397.112.704.336.922.224.218.525.327.903.327.359 0 .64-.093.845-.279.212-.186.327-.445.346-.778h.865c-.02.563-.215 1.008-.586 1.335-.372.327-.862.49-1.47.49zm5.67 0c-.416 0-.781-.083-1.095-.25a1.803 1.803 0 01-.72-.701 2.203 2.203 0 01-.25-1.066v-1.441c0-.41.083-.766.25-1.067a1.81 1.81 0 01.72-.701 2.3 2.3 0 011.095-.25c.417 0 .778.083 1.086.25.314.167.554.4.72.701.173.301.26.657.26 1.067v.931h-3.286v.51c0 .416.106.736.317.96.212.218.513.327.903.327.333 0 .602-.058.807-.173a.764.764 0 00.375-.538h.865a1.473 1.473 0 01-.654 1.057c-.371.256-.835.384-1.393.384zm1.22-3.103v-.355c0-.417-.105-.737-.317-.961-.204-.224-.506-.336-.903-.336-.39 0-.691.112-.903.336-.211.224-.317.544-.317.961v.278h2.508l-.068.077zm7.566 4.352v-2.085h.432c.109-.109.221-.323.336-.643.122-.321.186-.727.193-1.22l.057-2.681H91.8v4.544h.672v2.085h-.768V219H88.1v1.345h-.768zm1.345-2.085h2.257v-3.775h-1.767l-.039 1.931c-.006.506-.06.916-.163 1.229-.103.314-.199.519-.288.615zm5.766 2.469l.779-2.056-1.96-4.957h.96l1.23 3.267c.045.108.087.24.125.393l.096.375.096-.375c.038-.153.077-.285.115-.393l1.153-3.267h.932l-2.603 7.013h-.923zm6.862-1.633c-.621 0-1.114-.182-1.48-.548-.358-.371-.537-.877-.537-1.517v-2.402c0-.845.21-1.496.634-1.95.422-.461 1.028-.692 1.815-.692h1.345v.865h-1.345c-.518 0-.912.153-1.181.461-.269.301-.404.74-.404 1.316v.624h.135l-.135.193c.007-.378.135-.673.384-.884.25-.212.59-.317 1.019-.317.557 0 .989.179 1.297.538.313.358.47.851.47 1.479v.769c0 .429-.08.797-.24 1.104-.16.308-.39.545-.691.711-.301.167-.663.25-1.086.25zm0-.768c.371 0 .656-.113.855-.337.199-.224.298-.544.298-.96v-.769c0-.416-.099-.736-.298-.961-.199-.224-.484-.336-.855-.336s-.656.112-.855.336c-.199.218-.298.538-.298.961v.769c0 .416.099.736.298.96.199.224.484.337.855.337zm3.048.739v-.807h.173c.294 0 .499-.115.615-.346.121-.23.185-.643.192-1.239l.057-2.959h3.584V219h-.865v-4.496h-1.864l-.048 2.21c-.013.557-.077 1.008-.192 1.354-.109.346-.282.599-.519.759-.23.16-.534.24-.912.24h-.221zm6.352-.067v-5.284h.826v2.882c0 .186-.006.381-.019.586a8.055 8.055 0 01-.038.586c-.013.18-.029.333-.048.461l2.133-4.515h1.104V219h-.826v-2.882c0-.186.003-.381.01-.586.013-.205.029-.4.048-.586l.048-.471L111.81 219h-1.105zm11.408 0v-5.284h.865v2.181h.903l1.537-2.181h.99l-1.778 2.517 1.806 2.767h-1.008l-1.537-2.354h-.913V219h-.865zm4.998.067v-.807h.173c.295 0 .5-.115.615-.346.122-.23.186-.643.192-1.239l.058-2.959h3.583V219h-.864v-4.496h-1.864l-.048 2.21c-.013.557-.077 1.008-.192 1.354-.109.346-.282.599-.519.759-.231.16-.535.24-.913.24h-.221zm6.353-.067v-5.284h.826v2.882c0 .186-.006.381-.019.586a8.038 8.038 0 01-.039.586c-.012.18-.028.333-.048.461l2.133-4.515h1.105V219h-.826v-2.882c0-.186.003-.381.009-.586.013-.205.029-.4.048-.586l.048-.471L134.57 219h-1.105zm7.669.096c-.417 0-.782-.083-1.096-.25a1.805 1.805 0 01-.72-.701 2.197 2.197 0 01-.25-1.066v-1.441c0-.41.083-.766.25-1.067.173-.301.413-.534.72-.701.314-.167.679-.25 1.096-.25.416 0 .778.083 1.085.25.314.167.554.4.721.701.173.301.259.657.259 1.067v.931h-3.285v.51c0 .416.105.736.317.96.211.218.512.327.903.327.333 0 .602-.058.807-.173a.766.766 0 00.374-.538h.865a1.476 1.476 0 01-.653 1.057c-.372.256-.836.384-1.393.384zm1.22-3.103v-.355c0-.417-.106-.737-.317-.961-.205-.224-.506-.336-.903-.336-.391 0-.692.112-.903.336-.212.224-.317.544-.317.961v.278h2.507l-.067.077zm2.49 3.007v-5.284h.865v2.2h2.229v-2.2h.864V219h-.864v-2.296h-2.229V219h-.865zm7.237 0v-4.525h-1.922v-.759h4.708v.759h-1.922V219h-.864zm6.122.077c-.423 0-.788-.08-1.096-.24a1.745 1.745 0 01-.72-.692c-.167-.307-.25-.669-.25-1.086v-1.402c0-.423.083-.785.25-1.086.173-.301.413-.531.72-.691.308-.161.673-.241 1.096-.241.422 0 .787.08 1.095.241.307.16.544.39.711.691.173.301.259.66.259 1.076v1.412c0 .417-.086.779-.259 1.086a1.689 1.689 0 01-.711.692c-.308.16-.673.24-1.095.24zm0-.769c.377 0 .672-.105.883-.317.212-.211.317-.522.317-.932v-1.402c0-.41-.105-.721-.317-.932-.211-.211-.506-.317-.883-.317-.372 0-.667.106-.884.317-.212.211-.317.522-.317.932v1.402c0 .41.105.721.317.932.217.212.512.317.884.317zm3.71.692v-5.284h2.287c.55 0 .976.125 1.277.375.301.243.452.586.452 1.028 0 .365-.125.66-.375.884-.25.217-.579.326-.989.326v-.077c.448 0 .807.113 1.076.337.275.224.413.525.413.903 0 .474-.16.845-.481 1.114-.32.263-.768.394-1.345.394h-2.315zm.846-.759h1.469c.308 0 .545-.067.711-.202.173-.134.26-.323.26-.566 0-.25-.087-.442-.26-.577-.166-.134-.403-.202-.711-.202h-1.469v1.547zm0-2.296h1.441c.269 0 .48-.064.634-.192.16-.128.24-.307.24-.538 0-.231-.077-.41-.231-.538-.153-.135-.368-.202-.643-.202h-1.441v1.47zM25.36 238v-5.284h2.287c.55 0 .977.125 1.278.375.3.243.451.586.451 1.028 0 .365-.125.66-.375.884-.25.217-.58.326-.99.326v-.077c.45 0 .808.113 1.077.337.275.224.413.525.413.903 0 .474-.16.845-.48 1.114-.32.263-.769.394-1.345.394H25.36zm.846-.759h1.47c.307 0 .544-.067.71-.202.174-.134.26-.323.26-.566 0-.25-.087-.442-.26-.577-.166-.134-.403-.202-.71-.202h-1.47v1.547zm0-2.296h1.44c.27 0 .481-.064.635-.192.16-.128.24-.307.24-.538 0-.231-.077-.41-.23-.538-.154-.135-.369-.202-.644-.202h-1.441v1.47zm12.532 3.151a2.46 2.46 0 01-1.114-.24 1.73 1.73 0 01-.73-.692c-.173-.307-.26-.669-.26-1.085v-1.441c0-.423.087-.785.26-1.086a1.73 1.73 0 01.73-.692c.32-.16.691-.24 1.114-.24.608 0 1.098.164 1.47.49.371.327.567.772.586 1.336h-.865c-.019-.34-.134-.599-.346-.779-.205-.185-.486-.278-.845-.278-.378 0-.679.109-.903.326-.224.212-.336.516-.336.913v1.451c0 .397.112.704.336.922.224.218.525.327.903.327.359 0 .64-.093.845-.279.212-.186.327-.445.346-.778h.865c-.02.563-.215 1.008-.586 1.335-.372.327-.862.49-1.47.49zm3.691-.096v-5.284h.827v2.882c0 .186-.007.381-.02.586a8.055 8.055 0 01-.038.586c-.013.18-.029.333-.048.461l2.133-4.515h1.104V238h-.826v-2.882c0-.186.004-.381.01-.586.013-.205.029-.4.048-.586l.048-.471L43.534 238H42.43zm7.688.096c-.422 0-.794-.08-1.114-.24a1.73 1.73 0 01-.73-.692c-.173-.307-.26-.669-.26-1.085v-1.441c0-.423.087-.785.26-1.086.173-.301.416-.531.73-.692.32-.16.692-.24 1.114-.24.609 0 1.099.164 1.47.49.372.327.567.772.586 1.336h-.864c-.02-.34-.135-.599-.346-.779-.205-.185-.487-.278-.846-.278-.378 0-.679.109-.903.326-.224.212-.336.516-.336.913v1.451c0 .397.112.704.336.922.224.218.525.327.903.327.359 0 .64-.093.846-.279.211-.186.326-.445.346-.778h.864c-.02.563-.214 1.008-.586 1.335-.371.327-.861.49-1.47.49zm5.238-.096v-4.525h-1.92v-.759h4.706v.759h-1.92V238h-.866zm6.122.096a2.3 2.3 0 01-1.095-.25 1.804 1.804 0 01-.72-.701 2.203 2.203 0 01-.25-1.066v-1.441c0-.41.083-.766.25-1.067a1.81 1.81 0 01.72-.701 2.3 2.3 0 011.095-.25c.417 0 .779.083 1.086.25.314.167.554.4.72.701.173.301.26.657.26 1.067v.931h-3.286v.51c0 .416.106.736.317.96.212.218.513.327.903.327.333 0 .602-.058.807-.173a.764.764 0 00.375-.538h.865a1.473 1.473 0 01-.654 1.057c-.371.256-.835.384-1.393.384zm1.22-3.103v-.355c0-.417-.105-.737-.317-.961-.205-.224-.506-.336-.903-.336-.39 0-.691.112-.903.336-.211.224-.317.544-.317.961v.278h2.508l-.068.077zM65.016 238v-5.284h1.172l.692 2.027c.07.205.134.41.192.615.058.199.1.352.125.461.026-.109.064-.262.115-.461.058-.205.119-.413.183-.624l.653-2.018h1.172V238h-.836v-.817c0-.288.003-.602.01-.941l.019-1.028.038-.98c.013-.314.023-.589.03-.826l-.942 3.007h-.913l-.95-2.988c.012.288.021.647.028 1.076.013.429.022.878.029 1.345.013.468.019.913.019 1.335V238h-.836zm7.842.096c-.417 0-.782-.083-1.096-.25a1.804 1.804 0 01-.72-.701 2.203 2.203 0 01-.25-1.066v-1.441c0-.41.084-.766.25-1.067a1.81 1.81 0 01.72-.701c.314-.167.68-.25 1.096-.25.416 0 .778.083 1.085.25.314.167.554.4.72.701.174.301.26.657.26 1.067v.931h-3.285v.51c0 .416.105.736.317.96.211.218.512.327.903.327.333 0 .602-.058.807-.173a.764.764 0 00.374-.538h.865a1.473 1.473 0 01-.653 1.057c-.372.256-.836.384-1.393.384zm1.22-3.103v-.355c0-.417-.106-.737-.317-.961-.205-.224-.506-.336-.903-.336-.391 0-.692.112-.903.336-.212.224-.317.544-.317.961v.278h2.507l-.067.077z" fill="#000"/><path d="M26.236 18.096c-.448 0-.839-.083-1.172-.25a1.872 1.872 0 01-.759-.72c-.173-.314-.26-.682-.26-1.105v-3.055c0-.423.087-.788.26-1.095.18-.314.432-.554.759-.72.333-.174.724-.26 1.172-.26.455 0 .845.086 1.172.26.327.166.576.406.75.72.179.307.268.67.268 1.085v3.065c0 .423-.09.791-.269 1.105a1.808 1.808 0 01-.749.72c-.327.167-.717.25-1.172.25zm0-1.057c.327 0 .573-.086.74-.26.166-.178.25-.431.25-.758v-3.055c0-.333-.084-.586-.25-.759-.167-.173-.413-.26-.74-.26s-.573.087-.74.26c-.166.173-.25.426-.25.76v3.054c0 .327.084.58.25.759.173.173.42.26.74.26zm5.69 1.057c-.673-.006-1.208-.195-1.605-.567-.39-.371-.586-.88-.586-1.527v-2.373c0-.845.228-1.495.682-1.95.455-.461 1.102-.692 1.941-.692h1.489v1.172h-1.489c-.461 0-.813.125-1.057.375-.237.25-.355.615-.355 1.095v.653h.134l-.125.154c0-.365.122-.653.366-.865.243-.211.585-.317 1.027-.317.558 0 .99.183 1.297.548.314.359.471.858.471 1.498v.702c0 .429-.09.804-.269 1.124-.18.314-.432.557-.759.73-.32.166-.708.246-1.162.24zm0-1.047c.32 0 .563-.09.73-.27.166-.185.25-.444.25-.777V15.3c0-.34-.084-.6-.25-.779-.167-.179-.41-.269-.73-.269-.314 0-.557.09-.73.27-.167.172-.25.432-.25.777v.702c0 .333.083.592.25.778.172.18.416.269.73.269zm3.557.951v-5.284h1.2v2.046h1.864v-2.046h1.201V18h-1.2v-2.123h-1.864V18h-1.201zm7.822.087c-.448 0-.839-.084-1.172-.25a1.939 1.939 0 01-.769-.72 2.2 2.2 0 01-.269-1.106v-1.306c0-.423.09-.788.27-1.095a1.84 1.84 0 01.768-.72c.333-.174.724-.26 1.172-.26.455 0 .845.086 1.172.26.327.166.58.406.759.72.186.307.279.669.279 1.085v1.316c0 .423-.093.791-.28 1.105a1.848 1.848 0 01-.758.72c-.327.167-.717.25-1.172.25zm0-1.048c.32 0 .567-.086.74-.26.179-.178.269-.435.269-.768v-1.306c0-.34-.09-.596-.27-.769-.172-.173-.419-.259-.739-.259-.314 0-.56.086-.74.26-.18.172-.269.428-.269.768v1.306c0 .333.09.59.27.769.179.173.425.26.739.26zm3.547.961v-5.284h2.344c.609 0 1.086.128 1.432.385.352.25.528.595.528 1.037 0 .359-.137.647-.413.865-.269.217-.628.326-1.076.326v-.086c.487 0 .877.115 1.172.346.295.224.442.525.442.903 0 .467-.18.835-.538 1.104-.352.27-.839.404-1.46.404h-2.43zm1.182-.913h1.21c.27 0 .48-.06.635-.182a.593.593 0 00.23-.49.613.613 0 00-.23-.51c-.154-.121-.366-.182-.635-.182h-1.21v1.364zm0-2.17h1.172c.237 0 .426-.058.567-.174a.576.576 0 00.211-.47.576.576 0 00-.211-.471c-.135-.122-.324-.183-.567-.183h-1.172v1.297zm3.99 3.15v-1.095h.24a.54.54 0 00.49-.26c.115-.179.175-.46.182-.845l.057-3.15h3.824V18h-1.2v-4.17h-1.442l-.038 2.105c-.013.46-.09.851-.23 1.172a1.61 1.61 0 01-.606.72c-.263.16-.583.24-.96.24h-.318zm8.36.03c-.449 0-.84-.087-1.172-.26a1.923 1.923 0 01-.779-.72 2.17 2.17 0 01-.269-1.096v-1.326c0-.416.09-.778.27-1.085.185-.314.445-.557.778-.73.333-.173.723-.26 1.172-.26.441 0 .826.087 1.152.26.333.172.59.416.769.73.186.307.279.669.279 1.085v.951h-3.257v.375c0 .371.09.653.269.845.18.186.445.279.797.279.27 0 .487-.045.653-.134a.642.642 0 00.317-.414h1.182c-.09.455-.333.82-.73 1.096-.39.269-.868.403-1.431.403zm1.037-3.123v-.288c0-.365-.086-.644-.26-.836-.172-.199-.432-.298-.777-.298-.346 0-.609.1-.788.298-.18.198-.27.48-.27.845v.202l2.182-.02-.087.097zM63.931 18v-5.284h1.2v2.046h1.865v-2.046h1.2V18h-1.2v-2.123h-1.864V18H63.93zm5.69 0v-5.284h1.085v2.604c0 .166-.01.365-.029.595a11.758 11.758 0 01-.134 1.23l1.863-4.429h1.48V18H72.8v-2.603c0-.173.007-.366.02-.577l.057-.624c.026-.205.052-.378.077-.519L71.1 18h-1.48zm7.832.096c-.449 0-.84-.086-1.172-.26a1.923 1.923 0 01-.779-.72 2.168 2.168 0 01-.269-1.095v-1.326c0-.416.09-.778.27-1.085.185-.314.445-.557.778-.73.332-.173.723-.26 1.171-.26.442 0 .827.087 1.153.26.333.172.59.416.769.73.186.307.279.669.279 1.085v.951h-3.257v.375c0 .371.09.653.269.845.18.186.445.279.797.279.27 0 .487-.045.653-.134a.642.642 0 00.317-.414h1.182c-.09.455-.333.82-.73 1.096-.39.269-.868.403-1.431.403zm1.037-3.122v-.288c0-.365-.086-.644-.26-.836-.172-.199-.432-.298-.778-.298-.345 0-.608.1-.787.298-.18.198-.27.48-.27.845v.202l2.181-.02-.086.097zM86.69 18v-5.284h1.085v2.604c0 .166-.01.365-.029.595-.012.225-.032.445-.057.663-.026.218-.052.407-.077.567l1.864-4.429h1.479V18h-1.086v-2.603c0-.173.007-.366.02-.577l.057-.624c.026-.205.052-.378.077-.519L88.17 18h-1.48zm11.379 0v-5.284h1.2v2.046h1.864v-2.046h1.201V18h-1.201v-2.123H99.27V18h-1.201zm7.236.096c-.544 0-.973-.144-1.287-.432-.314-.288-.471-.676-.471-1.163 0-.518.173-.919.519-1.2.346-.282.836-.423 1.47-.423h1.316v-.452c0-.256-.083-.454-.25-.595-.166-.148-.394-.221-.682-.221-.263 0-.48.057-.653.173a.676.676 0 00-.308.47h-1.172c.058-.5.282-.896.673-1.19.39-.296.89-.443 1.498-.443.647 0 1.156.164 1.528.49.378.32.567.756.567 1.307V18h-1.163v-.922h-.192l.192-.26c0 .391-.144.702-.432.932-.288.23-.672.346-1.153.346zm.394-.903c.339 0 .615-.086.826-.26a.82.82 0 00.327-.672v-.643h-1.297c-.243 0-.439.07-.586.21a.737.737 0 00-.221.558c0 .25.083.448.25.596.173.14.406.211.701.211zm5.901.903c-.448 0-.842-.083-1.182-.25a1.925 1.925 0 01-.778-.72c-.185-.314-.278-.682-.278-1.105v-1.326c0-.429.093-.797.278-1.104a1.86 1.86 0 01.778-.711c.34-.173.734-.26 1.182-.26.666 0 1.198.173 1.595.519.397.34.605.804.624 1.393h-1.201c-.019-.275-.118-.487-.297-.634-.173-.154-.414-.23-.721-.23-.32 0-.573.089-.759.268-.186.173-.278.423-.278.75v1.335c0 .327.092.58.278.759.186.18.439.269.759.269.307 0 .548-.074.721-.221.179-.154.278-.368.297-.644h1.201c-.019.59-.227 1.057-.624 1.403-.397.34-.929.51-1.595.51zm5.065-.096v-4.179h-1.806v-1.105h4.823v1.105h-1.806V18h-1.211zm4.153 1.73v-7.014h1.172v1.009h.269l-.269.279c0-.43.128-.766.384-1.01.256-.249.602-.374 1.038-.374.531 0 .957.183 1.277.548.321.365.481.855.481 1.47v1.431c0 .41-.074.769-.221 1.076a1.626 1.626 0 01-.605.701c-.263.167-.574.25-.932.25-.436 0-.782-.122-1.038-.365-.256-.25-.384-.59-.384-1.018l.269.278h-.279l.039 1.259v1.48h-1.201zm2.171-2.672c.307 0 .548-.09.72-.268.173-.18.26-.436.26-.769v-1.326c0-.333-.087-.589-.26-.768-.172-.18-.413-.27-.72-.27-.301 0-.538.094-.711.28-.173.179-.259.432-.259.758v1.326c0 .327.086.583.259.769.173.179.41.268.711.268zm5.661 1.029c-.449 0-.839-.084-1.172-.25a1.939 1.939 0 01-.769-.72 2.2 2.2 0 01-.269-1.106v-1.306c0-.423.09-.788.269-1.095.186-.314.442-.554.769-.72.333-.174.723-.26 1.172-.26.455 0 .845.086 1.172.26a1.8 1.8 0 01.759.72c.186.307.278.669.278 1.085v1.316c0 .423-.092.791-.278 1.105a1.88 1.88 0 01-.759.72c-.327.167-.717.25-1.172.25zm0-1.048c.32 0 .567-.086.74-.26.179-.178.269-.435.269-.768v-1.306c0-.34-.09-.596-.269-.769-.173-.173-.42-.259-.74-.259-.314 0-.561.086-.74.26-.179.172-.269.428-.269.768v1.306c0 .333.09.59.269.769.179.173.426.26.74.26zm3.557.961v-5.284h1.085v2.604c0 .166-.009.365-.028.595a13.964 13.964 0 01-.135 1.23l1.864-4.429h1.479V18h-1.085v-2.603c0-.173.006-.366.019-.577l.057-.624c.026-.205.052-.378.077-.519L133.686 18h-1.479zm2.171-6.12c-.5 0-.906-.13-1.22-.393-.308-.263-.461-.606-.461-1.028h.932c0 .211.067.38.201.509a.784.784 0 00.548.192c.224 0 .403-.064.538-.192a.654.654 0 00.211-.51h.932c0 .423-.154.766-.461 1.029-.307.262-.714.393-1.22.393zm3.547 6.12v-5.284h1.201v2.075h.788l1.287-2.075h1.345l-1.595 2.556L142.575 18h-1.374l-1.287-2.19h-.788V18h-1.201zm7.208.096c-.545 0-.974-.144-1.288-.432-.313-.288-.47-.676-.47-1.163 0-.518.173-.919.518-1.2.346-.282.836-.423 1.47-.423h1.316v-.452c0-.256-.083-.454-.249-.595-.167-.148-.394-.221-.682-.221-.263 0-.481.057-.654.173a.674.674 0 00-.307.47h-1.172c.058-.5.282-.896.672-1.19.391-.296.891-.443 1.499-.443.647 0 1.156.164 1.527.49.378.32.567.756.567 1.307V18h-1.162v-.922h-.192l.192-.26c0 .391-.144.702-.432.932-.289.23-.673.346-1.153.346zm.394-.903c.339 0 .614-.086.826-.26a.818.818 0 00.326-.672v-.643h-1.296c-.244 0-.439.07-.586.21a.733.733 0 00-.221.558c0 .25.083.448.249.596.173.14.407.211.702.211zM24.084 37v-7.013h2.22c.467 0 .87.087 1.21.26.346.172.615.416.807.73.192.307.288.672.288 1.095 0 .46-.119.868-.356 1.22a1.88 1.88 0 01-.941.75L28.705 37H27.36l-1.22-2.786h-.855V37h-1.2zm1.201-3.843h1.018c.34 0 .605-.093.798-.278.192-.186.288-.442.288-.769 0-.333-.096-.592-.288-.778-.192-.192-.458-.288-.798-.288h-1.018v2.113zm6.65 3.94c-.448 0-.839-.087-1.172-.26a1.923 1.923 0 01-.778-.72 2.17 2.17 0 01-.269-1.096v-1.326c0-.416.09-.778.27-1.085.185-.314.444-.557.777-.73.333-.173.724-.26 1.172-.26.442 0 .826.087 1.153.26.333.173.59.416.769.73.185.307.278.669.278 1.085v.951H30.88v.375c0 .371.09.653.268.845.18.186.446.279.798.279.269 0 .487-.045.653-.135a.642.642 0 00.317-.413h1.182c-.09.455-.333.82-.73 1.096-.391.269-.868.403-1.432.403zm1.038-3.123v-.288c0-.365-.087-.644-.26-.836-.172-.199-.432-.298-.778-.298-.346 0-.608.1-.787.298-.18.198-.27.48-.27.845v.202l2.181-.02-.086.097zM38.192 37c-.506 0-.903-.14-1.191-.423-.282-.282-.423-.669-.423-1.162v-2.613h-1.432v-1.086h1.432v-1.489h1.21v1.49h2.027v1.085h-2.027v2.613c0 .333.164.5.49.5h1.441V37h-1.527zm4.527.096c-.544 0-.974-.144-1.287-.432-.314-.288-.471-.676-.471-1.163 0-.518.173-.919.519-1.2.346-.282.836-.423 1.47-.423h1.316v-.452c0-.256-.084-.454-.25-.595-.167-.148-.394-.221-.682-.221-.263 0-.48.057-.653.173a.675.675 0 00-.308.47h-1.172c.058-.5.282-.896.673-1.19.39-.296.89-.443 1.498-.443.647 0 1.156.163 1.528.49.378.32.567.756.567 1.307V37h-1.163v-.922h-.192l.192-.26c0 .391-.144.702-.432.932-.288.23-.673.346-1.153.346zm.394-.903c.34 0 .615-.086.826-.26a.82.82 0 00.327-.672v-.644h-1.297c-.244 0-.439.071-.586.212a.736.736 0 00-.221.557c0 .25.083.448.25.596.172.14.406.211.7.211zm3.73.807v-1.095h1.844v-3.103h-1.604v-1.086h2.757v4.189h1.633V37h-4.63zm2.325-6.168c-.244 0-.436-.06-.577-.182a.655.655 0 01-.211-.51c0-.21.07-.377.211-.499.141-.128.333-.192.577-.192.243 0 .435.064.576.192.14.122.211.288.211.5 0 .211-.07.38-.211.509-.14.122-.333.183-.576.183zM55.49 37c-.346 0-.65-.07-.912-.211a1.546 1.546 0 01-.606-.596 1.814 1.814 0 01-.22-.903v-4.217h-1.691v-1.086h2.891v5.303c0 .192.055.346.164.461a.644.644 0 00.46.163h1.595V37h-1.68zm4.921.096c-.448 0-.842-.083-1.181-.25a1.923 1.923 0 01-.778-.72c-.18-.314-.27-.682-.27-1.105v-3.055c0-.429.09-.797.27-1.105.185-.307.445-.544.778-.71.34-.174.733-.26 1.181-.26.455 0 .846.087 1.172.26.333.166.593.403.779.71.185.308.278.676.278 1.105h-1.21c0-.333-.09-.586-.27-.759-.172-.173-.422-.26-.749-.26-.326 0-.58.087-.759.26-.179.173-.268.423-.268.75v3.064c0 .327.09.58.268.759.18.173.433.26.76.26.326 0 .576-.087.749-.26.179-.18.269-.432.269-.759h1.21c0 .416-.093.781-.278 1.095a1.903 1.903 0 01-.779.73c-.326.167-.717.25-1.172.25zm3.5-.096v-7.013h2.219c.467 0 .87.087 1.21.26.346.172.615.416.807.73.192.307.288.672.288 1.095 0 .46-.118.868-.355 1.22a1.88 1.88 0 01-.941.75L68.532 37h-1.344l-1.22-2.786h-.856V37h-1.2zm1.2-3.843h1.019c.34 0 .605-.093.797-.278.192-.186.288-.442.288-.769 0-.333-.096-.592-.288-.778-.192-.192-.458-.288-.797-.288h-1.019v2.113zM69.41 37v-7.013h1.422l.682 2.229c.07.224.128.429.173.615.045.185.074.32.086.403.013-.083.042-.218.087-.403.045-.186.1-.391.163-.615l.653-2.229h1.422V37h-1.124v-2.18c0-.321.01-.67.03-1.048a53.372 53.372 0 01.153-2.209c.038-.34.07-.638.096-.894l-.941 3.314h-1.096l-.97-3.314a35.441 35.441 0 01.182 1.921 29.136 29.136 0 01.107 2.229V37H69.41zm8.034-3.766c-.27 0-.487-.074-.653-.22a.777.777 0 01-.24-.587c0-.243.08-.439.24-.586.166-.147.384-.22.653-.22s.484.073.644.22c.166.147.25.343.25.586a.763.763 0 01-.25.586c-.16.148-.375.221-.644.221zm0 3.862c-.27 0-.487-.074-.653-.22a.758.758 0 01-.24-.587c0-.243.08-.439.24-.586.166-.147.384-.22.653-.22s.484.073.644.22c.166.147.25.343.25.586a.744.744 0 01-.25.586c-.16.147-.375.221-.644.221z" fill="#fff"/><defs><filter id="filter0_d_2002_14" x=".157" y="0" width="179.685" height="261.685" filterUnits="userSpaceOnUse" color-interpolation-filters="sRGB"><feFlood flood-opacity="0" result="BackgroundImageFix"/><feColorMatrix in="SourceAlpha" values="0 0 0 0 0 0 0 0 0 0 0 0 0 0 0 0 0 0 127 0" result="hardAlpha"/><feOffset dy="3.843"/><feGaussianBlur stdDeviation="1.921"/><feComposite in2="hardAlpha" operator="out"/><feColorMatrix values="0 0 0 0 0 0 0 0 0 0 0 0 0 0 0 0 0 0 0.25 0"/><feBlend in2="BackgroundImageFix" result="effect1_dropShadow_2002_14"/><feBlend in="SourceGraphic" in2="effect1_dropShadow_2002_14" result="shape"/></filter></defs></svg>