<svg width="180" height="295" fill="none" xmlns="http://www.w3.org/2000/svg"><g filter="url(#filter0_d_2002_15)"><rect x="4" width="172" height="287" rx="16.011" fill="#875C9C"/></g><mask id="a" style="mask-type:alpha" maskUnits="userSpaceOnUse" x="4" y="0" width="172" height="43"><path fill="#C9D9CD" d="M4 0h171.961v42.27H4z"/></mask><g mask="url(#a)"><rect x="4" y="-1.69" width="171.961" height="118.355" rx="16.011" fill="#E0F4FF"/></g><path d="M16.337 58.68a1.12 1.12 0 01-.826-.327 1.12 1.12 0 01-.326-.826c0-.34.109-.615.326-.826a1.12 1.12 0 01.826-.327c.34 0 .615.11.827.327.217.211.326.487.326.826a1.117 1.117 0 01-1.153 1.153zm6.592 2.354V54.02h.836v3.938c0 .231-.007.478-.02.74a25.22 25.22 0 01-.067 1.326l2.133-6.004h1.153v7.013h-.836v-3.94c0-.236.003-.483.01-.739.012-.262.025-.509.038-.74l.048-.586-2.142 6.005h-1.153zm5.728 0V55.75h.865v2.2h2.228v-2.2h.865v5.284h-.865v-2.296h-2.228v2.296h-.865zm7.236 0v-4.525h-1.92v-.759h4.706v.759h-1.921v4.525h-.865zm6.122.096a2.31 2.31 0 01-1.095-.25 1.807 1.807 0 01-.72-.701 2.204 2.204 0 01-.25-1.067v-1.44c0-.41.083-.766.25-1.067.173-.301.413-.535.72-.701a2.3 2.3 0 011.095-.25c.417 0 .779.083 1.086.25.314.166.554.4.72.701.173.301.26.656.26 1.066v.932h-3.286v.51c0 .416.106.736.317.96.212.218.513.327.903.327.333 0 .602-.058.807-.173a.763.763 0 00.375-.538h.865a1.472 1.472 0 01-.654 1.056c-.371.257-.835.385-1.393.385zm1.22-3.103v-.356c0-.416-.105-.736-.317-.96-.204-.224-.505-.337-.903-.337-.39 0-.691.112-.903.337-.211.224-.317.544-.317.96v.279h2.508l-.068.077zm2.837 3.007V55.75h3.794v.788h-2.93v4.496h-.864zm5.325 1.729V55.75h.864v1.009h.173l-.173.201c0-.403.131-.72.394-.95.269-.238.621-.356 1.057-.356.531 0 .954.176 1.268.528.32.346.48.823.48 1.432v1.546c0 .404-.074.753-.22 1.048a1.58 1.58 0 01-.606.682c-.256.16-.564.24-.922.24-.43 0-.778-.119-1.047-.356-.27-.237-.404-.554-.404-.95l.173.201h-.192l.02 1.2v1.538h-.865zm2.026-2.383c.366 0 .65-.108.855-.326.212-.218.318-.532.318-.942v-1.44c0-.41-.106-.724-.317-.942-.205-.218-.49-.327-.856-.327-.352 0-.634.112-.845.337-.211.224-.317.534-.317.931v1.441c0 .397.106.708.317.932.211.224.493.336.845.336zm3.682.654V55.75h.827v2.882c0 .186-.007.381-.02.586-.006.205-.019.4-.038.586a6.1 6.1 0 01-.048.461l2.133-4.515h1.104v5.284h-.826v-2.882c0-.186.003-.381.01-.586.013-.205.029-.4.048-.586l.048-.471-2.133 4.525h-1.105zm5.67 1.729V55.75h.865v1.009h.173l-.173.201c0-.403.132-.72.394-.95.27-.238.621-.356 1.057-.356.532 0 .954.176 1.268.528.32.346.48.823.48 1.432v1.546c0 .404-.073.753-.22 1.048a1.573 1.573 0 01-.606.682c-.256.16-.563.24-.922.24-.43 0-.778-.119-1.047-.356-.27-.237-.404-.554-.404-.95l.173.201h-.192l.02 1.2v1.538h-.865zm2.028-2.383c.365 0 .65-.108.855-.326.211-.218.317-.532.317-.942v-1.44c0-.41-.106-.724-.317-.942-.205-.218-.49-.327-.855-.327-.352 0-.634.112-.846.337-.21.224-.317.534-.317.931v1.441c0 .397.106.708.317.932.212.224.494.336.846.336zm5.66.73c-.422 0-.787-.08-1.094-.24a1.744 1.744 0 01-.721-.691 2.256 2.256 0 01-.25-1.086V57.69c0-.422.084-.784.25-1.085.173-.301.413-.532.72-.692.308-.16.673-.24 1.096-.24.422 0 .787.08 1.095.24.307.16.544.391.71.692.174.301.26.66.26 1.076v1.412c0 .416-.086.778-.26 1.086a1.683 1.683 0 01-.71.691c-.308.16-.673.24-1.095.24zm0-.768c.379 0 .673-.106.885-.317.21-.211.317-.522.317-.932V57.69c0-.41-.106-.72-.318-.931-.21-.212-.505-.317-.883-.317-.372 0-.666.105-.884.317-.212.211-.317.522-.317.931v1.403c0 .41.105.72.317.932.218.211.512.317.884.317zm3.711.692V55.75h2.287c.55 0 .976.125 1.277.375.301.243.452.586.452 1.028 0 .365-.125.66-.375.883-.25.218-.58.327-.99.327v-.077c.45 0 .808.112 1.077.336.275.225.413.526.413.903 0 .474-.16.846-.48 1.115-.32.262-.77.394-1.345.394h-2.316zm.846-.76h1.47c.307 0 .544-.066.71-.201a.677.677 0 00.26-.567c0-.25-.087-.442-.26-.576-.166-.135-.403-.202-.71-.202h-1.47v1.547zm0-2.295h1.44c.27 0 .481-.064.635-.192a.652.652 0 00.24-.538c0-.23-.077-.41-.23-.538-.154-.135-.369-.202-.644-.202H75.02v1.47zm6.362 3.15c-.557 0-.996-.14-1.316-.422-.32-.288-.48-.676-.48-1.162 0-.494.16-.881.48-1.163.32-.282.752-.422 1.297-.422h1.633v-.529c0-.326-.1-.576-.298-.75-.192-.178-.468-.268-.826-.268-.314 0-.577.067-.788.202a.718.718 0 00-.365.528h-.865c.058-.455.273-.817.644-1.086.371-.269.836-.403 1.393-.403.608 0 1.089.157 1.441.47.352.314.528.74.528 1.278v3.632h-.845v-1.009h-.144l.144-.144c0 .384-.15.688-.451.913-.295.224-.689.336-1.182.336zm.211-.681c.41 0 .746-.103 1.009-.308a.957.957 0 00.394-.788v-.749h-1.614c-.288 0-.516.08-.682.24-.167.16-.25.378-.25.654 0 .294.1.528.298.7.205.167.486.25.845.25zm3.298.653v-.807h.173c.294 0 .5-.115.615-.346.121-.23.185-.644.192-1.24l.057-2.958h3.584v5.284h-.865v-4.496h-1.864l-.048 2.21c-.013.556-.077 1.008-.192 1.354-.109.346-.282.599-.519.759-.23.16-.534.24-.912.24h-.221zm6.352-.067V55.75h.827v2.882c0 .186-.007.381-.02.586-.006.205-.019.4-.038.586a6.1 6.1 0 01-.048.461l2.133-4.515H95.2v5.284h-.826v-2.882c0-.186.003-.381.01-.586.012-.205.028-.4.048-.586l.048-.471-2.133 4.525h-1.105zm11.524 0l-.807-7.013h.826l.528 5.187.039.442c.013.148.022.288.029.423.012.135.019.247.019.336a3.83 3.83 0 00.029-.336l.038-.423c.019-.153.038-.3.058-.442l.653-5.187h.893l.596 5.187c.019.141.035.289.048.442.019.148.035.288.048.423.019.135.032.247.038.336.007-.09.013-.201.02-.336l.038-.423c.019-.153.035-.3.048-.442l.548-5.187h.787l-.826 7.013h-1.085l-.596-5.284a9.455 9.455 0 00-.048-.432l-.038-.394a11.264 11.264 0 01-.029-.298 4.204 4.204 0 01-.039.298l-.038.394c-.013.14-.029.285-.048.432l-.644 5.284h-1.085zm5.526 0V54.02h.865v2.738h.182l-.182.201c0-.416.125-.736.374-.96.25-.23.596-.346 1.038-.346.531 0 .954.163 1.268.49.314.327.471.772.471 1.335v3.555h-.865v-3.459c0-.378-.102-.669-.307-.874-.199-.211-.471-.317-.817-.317-.359 0-.644.112-.855.336-.205.224-.307.541-.307.951v3.363h-.865zm7.227.096c-.557 0-.996-.141-1.316-.423-.321-.288-.481-.676-.481-1.162 0-.494.16-.881.481-1.163.32-.282.752-.422 1.297-.422h1.633v-.529c0-.326-.1-.576-.298-.75-.192-.178-.468-.268-.826-.268-.314 0-.577.067-.788.202a.718.718 0 00-.365.528h-.865c.058-.455.272-.817.644-1.086.371-.269.836-.403 1.393-.403.608 0 1.089.157 1.441.47.352.314.528.74.528 1.278v3.632h-.845v-1.009h-.144l.144-.144c0 .384-.151.688-.452.913-.294.224-.688.336-1.181.336zm.211-.682c.41 0 .746-.103 1.009-.308a.958.958 0 00.394-.788v-.749h-1.614c-.288 0-.516.08-.682.24-.167.16-.25.378-.25.654 0 .294.099.528.298.7.205.167.486.25.845.25zm6.516.586c-.455 0-.81-.122-1.066-.365-.25-.244-.375-.586-.375-1.028v-3.103h-1.489v-.788h1.489v-1.49h.865v1.49h2.113v.788h-2.113v3.103c0 .403.192.605.576.605h1.441v.788h-1.441zm4.95.077a2.5 2.5 0 01-.942-.164 1.61 1.61 0 01-.634-.48 1.474 1.474 0 01-.278-.73h.864a.677.677 0 00.308.442c.173.109.4.163.682.163h.403c.34 0 .593-.067.759-.202a.693.693 0 00.25-.557c0-.224-.077-.4-.23-.528-.148-.135-.369-.224-.663-.27l-.711-.115c-.519-.09-.906-.25-1.163-.48-.249-.237-.374-.58-.374-1.028 0-.474.15-.839.451-1.095.301-.263.753-.394 1.355-.394h.365c.506 0 .912.119 1.22.356.307.236.493.557.557.96h-.865a.612.612 0 00-.288-.394c-.153-.102-.362-.153-.624-.153h-.365c-.327 0-.567.06-.721.182-.147.122-.221.304-.221.548 0 .218.064.378.192.48.128.103.33.176.606.221l.711.115c.57.09.983.257 1.239.5.262.243.394.596.394 1.057 0 .486-.157.87-.471 1.152-.307.276-.775.413-1.403.413h-.403zm3.451-.077l1.825-7.013h1.163l1.816 7.013h-.875l-.461-1.864h-2.123l-.461 1.864h-.884zm1.518-2.594h1.768l-.538-2.162a25.867 25.867 0 01-.346-1.566 13.29 13.29 0 01-.106.538c-.057.276-.138.615-.24 1.019l-.538 2.17zm4.575 4.323V55.75h.865v1.009h.173l-.173.201c0-.403.131-.72.394-.95.269-.238.621-.356 1.057-.356.531 0 .954.176 1.268.528.32.346.48.823.48 1.432v1.546c0 .404-.074.753-.221 1.048a1.575 1.575 0 01-.605.682c-.256.16-.564.24-.922.24-.43 0-.779-.119-1.048-.356s-.403-.554-.403-.95l.173.201h-.192l.019 1.2v1.538h-.865zm2.027-2.383c.365 0 .65-.108.855-.326.212-.218.317-.532.317-.942v-1.44c0-.41-.105-.724-.317-.942-.205-.218-.49-.327-.855-.327-.352 0-.634.112-.845.337-.211.224-.317.534-.317.931v1.441c0 .397.106.708.317.932.211.224.493.336.845.336zm3.663 2.383V55.75h.865v1.009h.172l-.172.201c0-.403.131-.72.393-.95.269-.238.622-.356 1.057-.356.532 0 .954.176 1.268.528.32.346.481.823.481 1.432v1.546c0 .404-.074.753-.221 1.048a1.57 1.57 0 01-.606.682c-.256.16-.563.24-.922.24-.429 0-.778-.119-1.047-.356-.269-.237-.403-.554-.403-.95l.172.201h-.192l.02 1.2v1.538h-.865zm2.027-2.383c.365 0 .65-.108.855-.326.211-.218.317-.532.317-.942v-1.44c0-.41-.106-.724-.317-.942-.205-.218-.49-.327-.855-.327-.352 0-.634.112-.845.337-.212.224-.317.534-.317.931v1.441c0 .397.105.708.317.932.211.224.493.336.845.336zm-121.5 19.654V73.02h1.988c.64 0 1.14.16 1.5.48.364.32.547.765.547 1.335 0 .32-.068.6-.202.836a1.36 1.36 0 01-.576.548c-.244.128-.538.189-.884.182v-.144c.371-.006.691.064.96.212.276.147.487.358.634.634.154.275.231.602.231.98 0 .397-.083.742-.25 1.037a1.699 1.699 0 01-.71.682c-.308.154-.676.23-1.106.23h-2.132zm.845-.779h1.191c.404 0 .72-.105.951-.316.238-.218.356-.513.356-.884 0-.385-.118-.695-.355-.932-.231-.244-.548-.365-.952-.365h-1.19v2.498zm0-3.246h1.134c.371 0 .663-.1.874-.298.218-.199.327-.468.327-.807 0-.34-.106-.609-.317-.807-.212-.199-.503-.298-.875-.298h-1.143v2.21zm6.823 4.12c-.608 0-1.095-.179-1.46-.537-.365-.365-.547-.858-.547-1.48V74.75h.864v3.362c0 .397.103.708.308.932.205.218.483.327.835.327.36 0 .64-.11.846-.327.211-.224.317-.535.317-.932V74.75h.864v3.362c0 .622-.185 1.115-.557 1.48-.371.358-.861.538-1.47.538zm5.536-.019c-.358 0-.672-.054-.941-.163a1.607 1.607 0 01-.634-.48 1.468 1.468 0 01-.279-.73h.865c.038.186.14.333.307.442.173.109.4.163.682.163h.404c.34 0 .592-.067.759-.202a.694.694 0 00.25-.557.65.65 0 00-.231-.528c-.147-.135-.368-.225-.663-.27l-.71-.115c-.52-.09-.907-.25-1.163-.48-.25-.237-.375-.58-.375-1.028 0-.474.15-.839.452-1.095.3-.263.752-.394 1.354-.394h.365c.506 0 .913.119 1.22.356.308.237.494.557.558.96h-.865a.615.615 0 00-.288-.394c-.154-.102-.362-.153-.625-.153h-.365c-.326 0-.566.06-.72.182-.148.122-.221.304-.221.548 0 .218.064.378.192.48.128.103.33.176.605.221l.711.115c.57.09.983.257 1.24.5.262.243.393.596.393 1.057 0 .486-.157.87-.47 1.153-.308.275-.776.413-1.403.413h-.404zm3.788-.076v-.788h1.873v-3.708H40.19v-.788h2.498v4.496h1.777v.788H39.95zm2.21-6.235c-.212 0-.378-.055-.5-.163a.563.563 0 01-.183-.442c0-.192.061-.343.183-.452.122-.115.288-.173.5-.173.21 0 .377.058.499.173.122.11.183.26.183.452a.564.564 0 01-.183.442c-.122.109-.288.163-.5.163zm3.547 6.235V74.75h.864v1.009h.183l-.183.201c0-.416.125-.736.375-.96.25-.23.596-.346 1.038-.346.531 0 .954.163 1.268.49.313.326.47.772.47 1.335v3.555h-.864v-3.459c0-.378-.103-.666-.308-.864-.198-.205-.47-.308-.816-.308-.359 0-.644.11-.855.327-.205.218-.308.531-.308.941v3.363h-.864zm7.688.096a2.31 2.31 0 01-1.096-.25 1.807 1.807 0 01-.72-.701 2.204 2.204 0 01-.25-1.067v-1.44c0-.41.084-.766.25-1.067.173-.301.413-.535.72-.701.314-.167.68-.25 1.096-.25.416 0 .778.083 1.085.25.314.166.554.4.72.701.174.301.26.656.26 1.066v.932h-3.285v.51c0 .416.105.736.317.96.211.218.512.327.903.327.333 0 .602-.058.807-.173a.763.763 0 00.374-.538h.865a1.472 1.472 0 01-.653 1.057c-.372.256-.836.384-1.393.384zm1.22-3.103v-.356c0-.416-.106-.736-.317-.96-.205-.224-.506-.337-.903-.337-.391 0-.692.113-.903.337-.212.224-.317.544-.317.96v.279h2.507l-.067.077zm4.306 3.084c-.359 0-.672-.055-.941-.164a1.606 1.606 0 01-.634-.48 1.468 1.468 0 01-.28-.73h.865a.677.677 0 00.308.442c.173.109.4.163.682.163h.404c.339 0 .592-.067.758-.202a.694.694 0 00.25-.557.65.65 0 00-.23-.528c-.148-.135-.369-.225-.663-.27l-.711-.115c-.519-.09-.906-.25-1.163-.48-.25-.237-.374-.58-.374-1.028 0-.474.15-.839.451-1.095.301-.263.753-.394 1.355-.394h.365c.506 0 .913.119 1.22.356.307.237.493.557.557.96h-.864a.615.615 0 00-.289-.394c-.153-.102-.361-.153-.624-.153h-.365c-.327 0-.567.06-.72.182-.148.122-.222.304-.222.548 0 .218.065.378.193.48.128.103.33.176.605.221l.71.115c.57.09.984.257 1.24.5.262.243.394.596.394 1.057 0 .486-.157.87-.47 1.153-.308.275-.776.413-1.404.413h-.403zm5.69 0c-.359 0-.673-.055-.942-.164a1.606 1.606 0 01-.634-.48 1.468 1.468 0 01-.278-.73h.864a.677.677 0 00.308.442c.172.109.4.163.682.163h.403c.34 0 .593-.067.76-.202a.694.694 0 00.249-.557.65.65 0 00-.23-.528c-.148-.135-.369-.225-.664-.27l-.71-.115c-.52-.09-.907-.25-1.163-.48-.25-.237-.374-.58-.374-1.028 0-.474.15-.839.451-1.095.301-.263.752-.394 1.355-.394h.365c.505 0 .912.119 1.22.356.307.237.493.557.557.96h-.865a.614.614 0 00-.288-.394c-.154-.102-.362-.153-.624-.153h-.365c-.327 0-.567.06-.721.182-.147.122-.22.304-.22.548 0 .218.063.378.191.48.128.103.33.176.605.221l.711.115c.57.09.983.257 1.24.5.262.243.394.596.394 1.057 0 .486-.157.87-.471 1.153-.308.275-.775.413-1.403.413h-.403zm8.948 1.268v-2.085h.433c.109-.109.22-.323.336-.644.122-.32.186-.727.192-1.22l.058-2.68h3.449v4.544h.672v2.085h-.769v-1.345h-3.602v1.345h-.769zm1.345-2.085h2.258v-3.775h-1.768l-.038 1.93c-.006.506-.06.916-.163 1.23-.103.314-.199.519-.289.615zm4.297.807v-.807h.173c.295 0 .5-.115.615-.346.121-.23.186-.643.192-1.24l.058-2.958h3.583v5.284h-.865v-4.496h-1.863l-.048 2.21c-.013.556-.077 1.008-.193 1.354-.108.346-.281.599-.518.759-.23.16-.535.24-.913.24h-.22zm6.026-.067l1.355-2.037c-.404-.096-.718-.282-.942-.557-.218-.275-.326-.618-.326-1.028 0-.519.17-.925.509-1.22.346-.295.816-.442 1.412-.442h2.277v5.284h-.865v-1.97h-1.162l-1.25 1.97h-1.008zm2.008-2.738h1.412v-1.778h-1.412c-.32 0-.573.08-.76.24-.185.154-.278.372-.278.654 0 .275.093.493.279.653.186.154.439.23.759.23zM22.967 99.034V93.75h3.958v5.284h-.864v-4.496h-2.229v4.496h-.865zm7.67.096a2.31 2.31 0 01-1.096-.25 1.807 1.807 0 01-.72-.701 2.204 2.204 0 01-.25-1.067v-1.44c0-.41.083-.766.25-1.067.172-.301.412-.535.72-.701.314-.167.679-.25 1.095-.25.416 0 .778.083 1.086.25.313.166.554.4.72.701.173.301.26.656.26 1.066v.932h-3.286v.51c0 .416.106.736.317.96.211.218.512.327.903.327.333 0 .602-.058.807-.173a.763.763 0 00.375-.538h.864a1.472 1.472 0 01-.653 1.057c-.371.256-.836.384-1.393.384zm1.22-3.103v-.356c0-.416-.107-.736-.318-.96-.205-.224-.506-.337-.903-.337-.39 0-.692.113-.903.337-.211.224-.317.544-.317.96v.279h2.507l-.067.077zm2.47 4.736V93.75h.865v1.009h.173l-.173.201c0-.403.131-.72.394-.95.269-.238.621-.356 1.057-.356.531 0 .954.176 1.268.528.32.346.48.823.48 1.432v1.546c0 .404-.073.753-.22 1.047a1.57 1.57 0 01-.606.683c-.256.16-.564.24-.922.24-.43 0-.778-.119-1.047-.356-.27-.237-.404-.554-.404-.95l.173.201h-.192l.02 1.2v1.538h-.865zm2.028-2.383c.365 0 .65-.108.855-.326.21-.218.317-.532.317-.942v-1.44c0-.41-.106-.724-.318-.942-.204-.218-.49-.327-.855-.327-.352 0-.633.112-.845.337-.211.224-.317.534-.317.931v1.441c0 .397.106.708.317.932.212.224.493.336.846.336zm5.68.75c-.423 0-.795-.08-1.115-.24a1.73 1.73 0 01-.73-.692c-.173-.307-.26-.67-.26-1.086v-1.44c0-.423.087-.785.26-1.086a1.73 1.73 0 01.73-.692c.32-.16.692-.24 1.115-.24.608 0 1.098.163 1.47.49.37.326.566.772.585 1.335h-.864c-.02-.34-.135-.599-.346-.778-.205-.186-.487-.278-.845-.278-.378 0-.68.108-.903.326-.225.211-.337.516-.337.913v1.45c0 .397.112.705.337.923.224.217.525.326.903.326.358 0 .64-.093.845-.278.211-.186.327-.445.346-.778h.864c-.019.563-.214 1.008-.586 1.335-.371.326-.861.49-1.47.49zm5.67-.02c-.423 0-.788-.08-1.095-.24a1.743 1.743 0 01-.72-.691c-.167-.308-.25-.67-.25-1.086V95.69c0-.422.083-.784.25-1.085.172-.301.412-.532.72-.692.307-.16.672-.24 1.095-.24.423 0 .788.08 1.095.24.308.16.545.391.711.692.173.301.26.66.26 1.076v1.412c0 .416-.087.778-.26 1.086a1.683 1.683 0 01-.71.691c-.308.16-.673.24-1.096.24zm0-.768c.378 0 .672-.106.884-.317.211-.211.317-.522.317-.932V95.69c0-.41-.106-.72-.317-.931-.212-.212-.506-.317-.884-.317-.371 0-.666.105-.884.317-.211.211-.317.522-.317.931v1.403c0 .41.106.72.317.932.218.211.513.317.884.317zm3.71.692V93.75h.865v2.2h2.23v-2.2h.864v5.284h-.865v-2.296H52.28v2.296h-.864zm7.208.096c-.557 0-.996-.141-1.316-.423-.32-.288-.48-.676-.48-1.162 0-.493.16-.881.48-1.163.32-.282.753-.422 1.297-.422h1.633v-.529c0-.326-.1-.576-.298-.75-.192-.178-.467-.268-.826-.268-.314 0-.576.067-.788.202a.718.718 0 00-.365.528h-.864c.057-.455.272-.817.643-1.086.372-.269.836-.403 1.393-.403.609 0 1.09.157 1.441.47.353.315.529.74.529 1.278v3.632h-.846v-1.009h-.144l.144-.144c0 .384-.15.688-.451.912-.295.225-.689.337-1.182.337zm.212-.682c.41 0 .746-.103 1.008-.308a.956.956 0 00.394-.787v-.75h-1.614c-.288 0-.515.08-.682.24-.166.16-.25.378-.25.654 0 .294.1.528.298.7.205.167.487.25.846.25zm3.297.653v-.807h.173c.295 0 .5-.115.615-.346.122-.23.186-.643.192-1.24l.058-2.958h3.583v5.284h-.865v-4.496h-1.863l-.048 2.21c-.013.556-.077 1.008-.192 1.354-.11.346-.282.599-.52.759-.23.16-.534.24-.912.24h-.22zm6.353-.067V93.75h.826v2.882c0 .186-.007.381-.02.586-.006.205-.019.4-.038.586a6.1 6.1 0 01-.048.461l2.133-4.515h1.105v5.284h-.826v-2.882c0-.186.003-.381.01-.586.012-.205.028-.4.047-.586l.048-.471-2.133 4.525h-1.104zm7.418.067c-.557 0-1.015-.118-1.373-.355a1.412 1.412 0 01-.634-.961h.912c.045.16.164.291.356.394.198.102.445.153.74.153h.451c.314 0 .557-.073.73-.22a.71.71 0 00.27-.577c0-.256-.087-.458-.26-.605-.167-.148-.413-.221-.74-.221h-1.162v-.75h1.133c.295 0 .519-.07.673-.21a.72.72 0 00.23-.558.728.728 0 00-.105-.404.611.611 0 00-.298-.25 1.243 1.243 0 00-.49-.086h-.48a1.23 1.23 0 00-.663.173c-.186.116-.298.256-.337.423h-.912c.064-.397.272-.724.624-.98s.782-.384 1.288-.384h.48c.378 0 .701.06.97.182.27.116.474.282.615.5.147.218.22.477.22.778 0 .314-.102.573-.306.778-.206.199-.494.31-.865.336v.039c.455.032.784.153.99.365.204.211.307.515.307.912 0 .468-.173.84-.519 1.115-.346.275-.81.413-1.393.413h-.452zm3.961-.067V93.75h.826v2.882c0 .186-.006.381-.02.586-.005.205-.018.4-.038.586a6.1 6.1 0 01-.047.461l2.132-4.515h1.105v5.284h-.826v-2.882c0-.186.003-.381.01-.586.012-.205.028-.4.047-.586l.048-.471-2.132 4.525h-1.105zm5.67 1.729V93.75h.865v1.009h.173l-.173.201c0-.403.131-.72.394-.95.269-.238.621-.356 1.057-.356.531 0 .954.176 1.268.528.32.346.48.823.48 1.432v1.546c0 .404-.074.753-.22 1.047a1.57 1.57 0 01-.606.683c-.256.16-.564.24-.922.24-.43 0-.778-.119-1.047-.356-.27-.237-.404-.554-.404-.95l.173.201h-.192l.019 1.2v1.538h-.865zm2.027-2.383c.365 0 .65-.108.855-.326.212-.218.318-.532.318-.942v-1.44c0-.41-.106-.724-.318-.942-.204-.218-.49-.327-.855-.327-.352 0-.634.112-.845.337-.211.224-.317.534-.317.931v1.441c0 .397.106.708.317.932.211.224.493.336.845.336zm5.661.73c-.422 0-.787-.08-1.095-.24a1.744 1.744 0 01-.72-.691c-.167-.308-.25-.67-.25-1.086V95.69c0-.422.083-.784.25-1.085a1.74 1.74 0 01.72-.692c.308-.16.673-.24 1.095-.24.423 0 .788.08 1.095.24.308.16.545.391.711.692.173.301.26.66.26 1.076v1.412c0 .416-.087.778-.26 1.086a1.683 1.683 0 01-.71.691c-.308.16-.673.24-1.096.24zm0-.768c.378 0 .673-.106.884-.317.211-.211.317-.522.317-.932V95.69c0-.41-.106-.72-.317-.931-.211-.212-.506-.317-.884-.317-.371 0-.666.105-.884.317-.21.211-.317.522-.317.931v1.403c0 .41.106.72.317.932.218.211.513.317.884.317zm3.71.692V93.75h2.287c.551 0 .977.125 1.278.375.301.243.452.586.452 1.028 0 .365-.125.66-.375.883-.25.218-.58.327-.99.327v-.077c.449 0 .807.112 1.076.336.276.225.413.526.413.903 0 .474-.16.846-.48 1.115-.32.262-.768.394-1.345.394h-2.315zm.846-.76h1.47c.308 0 .544-.067.711-.201.173-.134.259-.323.259-.567 0-.25-.086-.442-.259-.576-.166-.135-.403-.202-.71-.202h-1.47v1.547zm0-2.295h1.441c.27 0 .48-.064.634-.192a.652.652 0 00.241-.538c0-.23-.077-.41-.231-.538-.154-.135-.368-.202-.644-.202h-1.44v1.47zm6.362 3.15c-.557 0-.995-.14-1.316-.422-.32-.288-.48-.676-.48-1.162 0-.493.16-.881.48-1.163.321-.282.753-.422 1.297-.422h1.633v-.529c0-.326-.099-.576-.297-.75-.193-.178-.468-.268-.827-.268-.313 0-.576.067-.787.202a.716.716 0 00-.365.528h-.865c.058-.455.272-.817.644-1.086.371-.269.835-.403 1.393-.403.608 0 1.088.157 1.441.47.352.315.528.74.528 1.278v3.632h-.845v-1.009h-.145l.145-.144c0 .384-.151.688-.452.912-.295.225-.688.337-1.182.337zm.212-.681c.41 0 .746-.103 1.009-.308a.957.957 0 00.393-.787v-.75h-1.614c-.288 0-.515.08-.682.24-.166.16-.249.378-.249.654 0 .294.099.528.297.7.205.167.487.25.846.25zm3.96.586V93.75h.865v2.2h2.229v-2.2h.864v5.284h-.864v-2.296h-2.229v2.296h-.865zm5.69 0V93.75h.865v2.2h2.228v-2.2h.865v5.284h-.865v-2.296h-2.228v2.296h-.865zm5.411 0V93.75h.807v1.94h.432c.57 0 1.019.151 1.345.452.333.295.5.701.5 1.22s-.167.929-.5 1.23c-.326.294-.775.442-1.345.442h-1.239zm.807-.692h.432c.34 0 .602-.087.788-.26.192-.172.288-.412.288-.72 0-.307-.096-.547-.288-.72-.186-.173-.448-.26-.788-.26h-.432v1.96zm2.901.692V93.75h.807v5.284h-.807zm1.838 0l1.873-2.719-1.758-2.565h1.018l1.047 1.633c.045.07.087.147.125.23l.106.202c.019-.05.048-.118.086-.201.045-.084.09-.16.135-.23l1.056-1.634h1.009l-1.758 2.575 1.864 2.709h-1.018l-1.134-1.73c-.045-.07-.09-.15-.135-.24a2.024 2.024 0 00-.105-.23 4.155 4.155 0 01-.115.23 1.65 1.65 0 01-.145.24l-1.143 1.73h-1.008zm-101.963 20v-5.284h.865v2.181h.903l1.537-2.181h.99l-1.778 2.517 1.806 2.767h-1.008l-1.538-2.354h-.912v2.354h-.865zm7.64.077c-.423 0-.788-.081-1.095-.241a1.741 1.741 0 01-.72-.691c-.167-.308-.25-.67-.25-1.086v-1.402c0-.423.083-.785.25-1.086.172-.301.412-.532.72-.692.307-.16.672-.24 1.095-.24.423 0 .788.08 1.095.24.308.16.545.391.711.692.173.301.26.66.26 1.076v1.412c0 .416-.087.778-.26 1.086a1.681 1.681 0 01-.71.691c-.308.16-.673.241-1.096.241zm0-.769c.378 0 .672-.106.884-.317.211-.211.317-.522.317-.932v-1.402c0-.41-.106-.721-.317-.932-.212-.212-.506-.317-.884-.317-.371 0-.666.105-.884.317-.211.211-.317.522-.317.932v1.402c0 .41.106.721.317.932.218.211.513.317.884.317zm3.538.692v-5.284h1.172l.692 2.027c.07.205.134.41.192.615.057.198.099.352.125.461.025-.109.064-.263.115-.461.058-.205.118-.413.182-.625l.654-2.017h1.172v5.284h-.836v-.817c0-.288.003-.602.01-.941l.019-1.028c.013-.346.025-.673.038-.98.013-.314.022-.589.029-.826l-.942 3.007h-.912l-.951-2.988c.013.288.022.647.029 1.076.012.429.022.877.028 1.345.013.467.02.912.02 1.335v.817h-.836zm5.69 0v-5.284h1.172l.691 2.027c.07.205.135.41.192.615.058.198.1.352.125.461.026-.109.064-.263.116-.461.057-.205.118-.413.182-.625l.653-2.017h1.172v5.284h-.836v-.817c0-.288.004-.602.01-.941l.02-1.028c.012-.346.025-.673.038-.98.013-.314.022-.589.029-.826l-.942 3.007h-.912l-.952-2.988c.013.288.023.647.03 1.076.012.429.022.877.028 1.345.013.467.02.912.02 1.335v.817h-.837zm6.669 1.729l.778-2.056-1.96-4.957h.961l1.23 3.266c.044.109.086.24.125.394l.096.375c.025-.103.057-.228.096-.375.038-.154.077-.285.115-.394l1.153-3.266h.932l-2.604 7.013h-.922zm4.883-1.729v-5.284h.864v2.2h2.23v-2.2h.864v5.284h-.865v-2.296H52.28v2.296h-.864zm5.69 0v-5.284h.825v2.882c0 .186-.006.381-.019.586a8.2 8.2 0 01-.038.586 6.11 6.11 0 01-.048.461l2.133-4.515h1.104v5.284h-.826v-2.882c0-.186.003-.381.01-.586.013-.205.029-.401.048-.586l.048-.471-2.133 4.525h-1.105zm5.718 0v-5.284h.864v2.181h.903l1.538-2.181h.989l-1.777 2.517 1.806 2.767h-1.009l-1.537-2.354h-.913v2.354h-.864zm7.178.096c-.557 0-.995-.141-1.316-.423-.32-.288-.48-.676-.48-1.162 0-.493.16-.881.48-1.163.32-.282.753-.422 1.297-.422h1.633v-.529c0-.326-.099-.576-.297-.749-.193-.179-.468-.269-.826-.269-.314 0-.577.067-.788.202a.717.717 0 00-.365.528h-.865c.058-.455.272-.817.644-1.086.371-.269.835-.403 1.393-.403.608 0 1.088.157 1.44.471.353.313.53.739.53 1.277v3.632h-.846v-1.009h-.144l.144-.144c0 .384-.15.688-.452.913-.294.224-.688.336-1.181.336zm.212-.682c.41 0 .746-.103 1.009-.308a.955.955 0 00.394-.787v-.75h-1.615c-.288 0-.515.08-.682.24-.166.16-.25.378-.25.654 0 .294.1.528.299.701.204.166.486.25.845.25zm7.716 1.931v-1.345h-3.756v-5.284h.865v4.515h2.075v-4.515h.865v4.515h.72v2.114h-.769zm1.934-1.345v-5.284h.826v2.882c0 .186-.006.381-.02.586a8.2 8.2 0 01-.038.586 6.11 6.11 0 01-.047.461l2.132-4.515h1.105v5.284h-.826v-2.882c0-.186.003-.381.01-.586.012-.205.028-.401.047-.586l.048-.471-2.132 4.525h-1.105zm5.69 0v-5.284h.826v2.882c0 .186-.007.381-.02.586a8.2 8.2 0 01-.038.586 6.105 6.105 0 01-.048.461l2.133-4.515h1.105v5.284h-.827v-2.882c0-.186.004-.381.01-.586.013-.205.029-.401.048-.586l.048-.471-2.133 4.525h-1.104zm2.017-6.149c-.461 0-.832-.128-1.114-.384-.282-.256-.423-.592-.423-1.009h.682c0 .25.077.452.23.606.154.153.36.23.615.23.263 0 .471-.077.625-.23a.803.803 0 00.24-.606h.682c0 .417-.14.753-.423 1.009-.281.256-.653.384-1.114.384zm11.36 6.245a2.46 2.46 0 01-1.114-.24 1.736 1.736 0 01-.73-.692c-.173-.308-.26-.669-.26-1.086v-1.441c0-.422.087-.784.26-1.085a1.73 1.73 0 01.73-.692c.32-.16.691-.24 1.114-.24.609 0 1.099.163 1.47.49.371.326.567.772.586 1.335h-.865c-.019-.339-.134-.599-.346-.778-.204-.186-.486-.279-.845-.279-.378 0-.679.109-.903.327-.224.211-.336.516-.336.913v1.45c0 .397.112.705.336.923.224.217.525.326.903.326.359 0 .64-.093.846-.278.21-.186.326-.445.345-.779h.865c-.019.564-.215 1.009-.586 1.336-.371.326-.861.49-1.47.49zm9.41-.096v-5.284h.865v2.181h.903l1.537-2.181h.989l-1.777 2.517 1.806 2.767h-1.009l-1.537-2.354h-.912v2.354h-.865zm4.998.067v-.807h.173c.295 0 .5-.115.615-.346.121-.23.186-.644.192-1.239l.058-2.959h3.583v5.284h-.865v-4.496h-1.863l-.048 2.209c-.013.557-.077 1.009-.193 1.355-.108.346-.281.599-.518.759-.231.16-.535.24-.913.24h-.221zm6.353-.067v-5.284h.826v2.882c0 .186-.007.381-.019.586-.007.205-.02.4-.039.586a6.326 6.326 0 01-.048.461l2.133-4.515h1.105v5.284h-.827v-2.882c0-.186.004-.381.01-.586.013-.205.029-.401.048-.586l.048-.471-2.133 4.525h-1.104zm7.668.096c-.416 0-.781-.083-1.095-.25a1.806 1.806 0 01-.72-.701 2.201 2.201 0 01-.25-1.067v-1.441c0-.41.083-.765.25-1.066.172-.301.413-.535.72-.701.314-.167.679-.25 1.095-.25.416 0 .778.083 1.086.25.314.166.554.4.72.701.173.301.26.656.26 1.066v.932h-3.286v.509c0 .417.106.737.317.961.212.218.513.327.903.327.333 0 .602-.058.807-.173a.765.765 0 00.375-.538h.864a1.466 1.466 0 01-.653 1.056c-.371.257-.836.385-1.393.385zm1.22-3.103v-.356c0-.416-.105-.736-.317-.96-.205-.224-.506-.337-.903-.337-.39 0-.691.113-.903.337-.211.224-.317.544-.317.96v.279h2.507l-.067.077zm2.491 3.007v-5.284h.864v2.2h2.229v-2.2h.865v5.284h-.865v-2.296h-2.229v2.296h-.864zm7.236 0v-4.525h-1.921v-.759h4.707v.759h-1.921v4.525h-.865zm5.661.096c-.557 0-.996-.141-1.316-.423-.32-.288-.48-.676-.48-1.162 0-.493.16-.881.48-1.163.32-.282.752-.422 1.297-.422h1.633v-.529c0-.326-.099-.576-.298-.749-.192-.179-.467-.269-.826-.269-.314 0-.576.067-.788.202a.718.718 0 00-.365.528h-.864c.057-.455.272-.817.643-1.086.372-.269.836-.403 1.393-.403.609 0 1.089.157 1.441.471.352.313.529.739.529 1.277v3.632h-.846v-1.009h-.144l.144-.144c0 .384-.15.688-.451.913-.295.224-.689.336-1.182.336zm.211-.682c.41 0 .747-.103 1.009-.308a.954.954 0 00.394-.787v-.75h-1.614c-.288 0-.516.08-.682.24-.167.16-.25.378-.25.654 0 .294.099.528.298.701.205.166.487.25.845.25zm3.788.586v-5.284h1.172l.692 2.027c.07.205.134.41.192.615.057.198.099.352.125.461.025-.109.064-.263.115-.461.058-.205.118-.413.182-.625l.654-2.017h1.172v5.284h-.836v-.817c0-.288.003-.602.01-.941l.019-1.028c.013-.346.025-.673.038-.98.013-.314.023-.589.029-.826l-.941 3.007h-.913l-.951-2.988c.013.288.022.647.029 1.076.012.429.022.877.028 1.345.013.467.02.912.02 1.335v.817h-.836zm5.862 0v-5.284h.827v2.882c0 .186-.007.381-.02.586-.006.205-.019.4-.038.586a6.326 6.326 0 01-.048.461l2.133-4.515h1.104v5.284h-.826v-2.882c0-.186.003-.381.01-.586.013-.205.029-.401.048-.586l.048-.471-2.133 4.525h-1.105zm7.669.096c-.243 0-.439-.071-.586-.212-.141-.14-.211-.329-.211-.566 0-.25.07-.449.211-.596.147-.147.343-.221.586-.221.243 0 .436.074.577.221.147.147.22.346.22.596 0 .237-.073.426-.22.566-.141.141-.334.212-.577.212zm-145.16 16.55a1.118 1.118 0 01-1.153-1.153c0-.339.109-.615.326-.826a1.12 1.12 0 01.826-.327c.34 0 .615.109.827.327.217.211.326.487.326.826a1.117 1.117 0 01-1.153 1.153zm6.61 2.354v-7.013h2.258c.435 0 .813.086 1.133.259.32.167.567.404.74.711.18.307.27.673.27 1.095 0 .417-.09.782-.27 1.095a1.82 1.82 0 01-.74.721c-.32.166-.698.25-1.133.25h-1.393v2.882h-.865zm.865-3.66h1.393c.378 0 .679-.116.903-.346.23-.237.346-.551.346-.942 0-.397-.116-.711-.346-.941-.224-.231-.525-.346-.903-.346h-1.393v2.575zm6.362 3.756c-.557 0-.996-.141-1.316-.423-.32-.288-.48-.676-.48-1.162 0-.493.16-.881.48-1.163.32-.282.752-.422 1.297-.422h1.633v-.529c0-.326-.1-.576-.298-.749-.192-.179-.468-.269-.826-.269-.314 0-.576.067-.788.202a.717.717 0 00-.365.528h-.864c.057-.455.272-.817.643-1.086.372-.269.836-.403 1.393-.403.608 0 1.089.157 1.441.471.352.313.529.739.529 1.277v3.632h-.846v-1.009h-.144l.144-.144c0 .384-.15.688-.451.913-.295.224-.689.336-1.182.336zm.211-.682c.41 0 .746-.103 1.009-.308a.955.955 0 00.394-.787v-.75h-1.614c-.288 0-.516.08-.682.24-.167.16-.25.378-.25.654 0 .294.1.528.298.701.205.166.487.25.845.25zm5.69.653c-.557 0-1.015-.119-1.374-.356a1.41 1.41 0 01-.634-.96h.913c.045.16.163.291.355.394.199.102.445.153.74.153h.452c.313 0 .557-.073.73-.221a.71.71 0 00.269-.576c0-.256-.087-.458-.26-.605-.166-.147-.413-.221-.74-.221h-1.162v-.749h1.134c.294 0 .518-.071.672-.212a.72.72 0 00.23-.557.725.725 0 00-.105-.403.607.607 0 00-.298-.25 1.235 1.235 0 00-.49-.087h-.48c-.256 0-.477.058-.663.173-.186.115-.298.256-.336.423h-.913c.064-.397.272-.724.625-.98.352-.256.781-.384 1.287-.384h.48c.378 0 .701.061.97.182.27.116.474.282.615.5.148.218.221.477.221.778 0 .314-.102.573-.307.778-.205.199-.493.311-.865.336v.039c.455.032.785.153.99.365.205.211.307.515.307.912 0 .468-.173.839-.519 1.115-.345.275-.81.413-1.392.413h-.452zm3.941 1.662v-7.013h.865v1.009h.173l-.173.201c0-.403.131-.72.394-.951.269-.237.62-.355 1.056-.355.532 0 .955.176 1.268.528.32.346.48.823.48 1.432v1.546c0 .404-.073.753-.22 1.048a1.58 1.58 0 01-.605.682c-.257.16-.564.24-.923.24-.429 0-.778-.119-1.047-.356-.269-.237-.403-.554-.403-.951l.173.202h-.192l.019 1.201v1.537h-.865zm2.027-2.383c.365 0 .65-.108.855-.326.212-.218.317-.532.317-.942v-1.441c0-.41-.105-.723-.317-.941-.205-.218-.49-.327-.855-.327-.352 0-.634.112-.845.336-.212.225-.317.535-.317.932v1.441c0 .397.105.708.317.932.211.224.493.336.845.336zm5.2.75c-.557 0-.996-.141-1.316-.423-.32-.288-.48-.676-.48-1.162 0-.493.16-.881.48-1.163.32-.282.752-.422 1.297-.422h1.633v-.529c0-.326-.1-.576-.298-.749-.192-.179-.468-.269-.826-.269-.314 0-.577.067-.788.202a.717.717 0 00-.365.528h-.865c.058-.455.273-.817.644-1.086.371-.269.836-.403 1.393-.403.608 0 1.089.157 1.441.471.352.313.528.739.528 1.277v3.632h-.845v-1.009h-.144l.144-.144c0 .384-.15.688-.452.913-.294.224-.688.336-1.181.336zm.211-.682c.41 0 .746-.103 1.009-.308a.955.955 0 00.394-.787v-.75h-1.614c-.288 0-.516.08-.682.24-.167.16-.25.378-.25.654 0 .294.1.528.298.701.205.166.487.25.845.25zm5.94.682c-.622 0-1.115-.183-1.48-.548-.358-.371-.538-.877-.538-1.518v-2.401c0-.846.212-1.496.634-1.951.423-.461 1.028-.691 1.816-.691h1.345v.864h-1.345c-.519 0-.913.154-1.182.462-.269.301-.403.739-.403 1.316v.624h.134l-.134.192c.006-.378.134-.672.384-.884.25-.211.59-.317 1.019-.317.557 0 .989.18 1.296.538.314.359.471.852.471 1.48v.768c0 .429-.08.798-.24 1.105-.16.308-.39.544-.692.711-.3.167-.663.25-1.085.25zm0-.769c.371 0 .656-.112.855-.336.198-.224.297-.544.297-.961v-.768c0-.417-.099-.737-.297-.961-.199-.224-.484-.336-.855-.336-.372 0-.657.112-.855.336-.199.218-.298.538-.298.961v.768c0 .417.1.737.298.961.198.224.483.336.855.336zm5.69.75c-.423 0-.788-.081-1.096-.241a1.741 1.741 0 01-.72-.691c-.167-.308-.25-.67-.25-1.086v-1.402c0-.423.083-.785.25-1.086.173-.301.413-.532.72-.692.308-.16.673-.24 1.095-.24.423 0 .788.08 1.095.24.308.16.545.391.711.692.173.301.26.66.26 1.076v1.412c0 .416-.087.778-.26 1.086a1.681 1.681 0 01-.71.691c-.308.16-.673.241-1.096.241zm0-.769c.377 0 .672-.106.883-.317.211-.211.317-.522.317-.932v-1.402c0-.41-.105-.721-.317-.932-.211-.212-.506-.317-.884-.317-.371 0-.666.105-.884.317-.21.211-.317.522-.317.932v1.402c0 .41.106.721.317.932.218.211.513.317.884.317zm5.257.692v-4.525H62.42v-.759h4.708v.759h-1.922v4.525h-.864zm5.66.096c-.557 0-.995-.141-1.316-.423-.32-.288-.48-.676-.48-1.162 0-.493.16-.881.48-1.163.32-.282.753-.422 1.297-.422h1.633v-.529c0-.326-.099-.576-.297-.749-.193-.179-.468-.269-.826-.269-.314 0-.577.067-.788.202a.717.717 0 00-.365.528h-.865c.058-.455.272-.817.644-1.086.371-.269.835-.403 1.393-.403.608 0 1.088.157 1.44.471.353.313.53.739.53 1.277v3.632h-.846v-1.009h-.144l.144-.144c0 .384-.15.688-.452.913-.294.224-.688.336-1.181.336zm.212-.682c.41 0 .746-.103 1.009-.308a.955.955 0 00.394-.787v-.75h-1.615c-.288 0-.515.08-.682.24-.166.16-.25.378-.25.654 0 .294.1.528.299.701.204.166.486.25.845.25zm3.297.653v-.807h.173c.295 0 .5-.115.615-.346.122-.23.186-.644.192-1.239l.058-2.959h3.583v5.284h-.864v-4.496h-1.864l-.048 2.209c-.013.557-.077 1.009-.192 1.355-.11.346-.282.599-.519.759-.23.16-.535.24-.913.24h-.22zm6.353-.067v-5.284h.826v2.882c0 .186-.006.381-.02.586a8.2 8.2 0 01-.038.586 6.11 6.11 0 01-.047.461l2.132-4.515h1.105v5.284h-.826v-2.882c0-.186.003-.381.01-.586.012-.205.028-.401.047-.586l.048-.471-2.132 4.525h-1.105zm11.38 0v-5.284h.826v2.882c0 .186-.007.381-.02.586a8.2 8.2 0 01-.038.586 6.11 6.11 0 01-.048.461l2.133-4.515H95.2v5.284h-.826v-2.882c0-.186.003-.381.01-.586.012-.205.028-.401.048-.586l.048-.471-2.133 4.525h-1.105zm11.379 0v-5.284h2.286c.551 0 .977.125 1.278.375.301.243.451.586.451 1.028 0 .365-.125.659-.374.883-.25.218-.58.327-.99.327v-.077c.448 0 .807.112 1.076.336.275.225.413.526.413.903 0 .474-.16.846-.48 1.115-.32.262-.769.394-1.345.394h-2.315zm.845-.759h1.47c.307 0 .544-.067.711-.202.173-.134.259-.323.259-.567 0-.25-.086-.442-.259-.576-.167-.135-.404-.202-.711-.202h-1.47v1.547zm0-2.296h1.441c.269 0 .48-.064.634-.192.16-.128.24-.308.24-.538 0-.231-.077-.41-.23-.538-.154-.135-.369-.202-.644-.202h-1.441v1.47zm4.844 3.055v-5.284h.865v2.2h2.229v-2.2h.864v5.284h-.864v-2.296h-2.229v2.296h-.865zm7.669.096c-.416 0-.781-.083-1.095-.25a1.808 1.808 0 01-.721-.701 2.213 2.213 0 01-.25-1.067v-1.441c0-.41.084-.765.25-1.066.173-.301.413-.535.721-.701.314-.167.679-.25 1.095-.25.416 0 .778.083 1.085.25.314.166.554.4.721.701.173.301.259.656.259 1.066v.932h-3.285v.509c0 .417.106.737.317.961.211.218.512.327.903.327.333 0 .602-.058.807-.173a.765.765 0 00.375-.538h.864a1.47 1.47 0 01-.653 1.056c-.372.257-.836.385-1.393.385zm1.22-3.103v-.356c0-.416-.106-.736-.317-.96-.205-.224-.506-.337-.903-.337-.391 0-.692.113-.903.337-.211.224-.317.544-.317.96v.279h2.507l-.067.077zm1.876 4.352v-2.085h.432c.109-.109.221-.323.336-.644.122-.32.186-.727.192-1.22l.058-2.68h3.449v4.544h.672v2.085h-.768v-1.345h-3.603v1.345h-.768zm1.345-2.085h2.257v-3.775h-1.767l-.039 1.93c-.006.506-.061.916-.163 1.23-.103.314-.199.519-.288.615zm4.94 2.469v-7.013h.865v1.009h.173l-.173.201c0-.403.131-.72.393-.951.269-.237.622-.355 1.057-.355.532 0 .954.176 1.268.528.321.346.481.823.481 1.432v1.546c0 .404-.074.753-.221 1.048a1.579 1.579 0 01-.606.682c-.256.16-.563.24-.922.24-.429 0-.778-.119-1.047-.356-.269-.237-.403-.554-.403-.951l.173.202h-.193l.02 1.201v1.537h-.865zm2.027-2.383c.365 0 .65-.108.855-.326.211-.218.317-.532.317-.942v-1.441c0-.41-.106-.723-.317-.941-.205-.218-.49-.327-.855-.327-.352 0-.634.112-.845.336-.212.225-.317.535-.317.932v1.441c0 .397.105.708.317.932.211.224.493.336.845.336zm3.682.654v-5.284h.826v2.882c0 .186-.006.381-.019.586-.007.205-.019.4-.039.586a5.376 5.376 0 01-.048.461l2.133-4.515h1.105v5.284h-.826v-2.882c0-.186.003-.381.009-.586.013-.205.029-.401.048-.586l.048-.471-2.132 4.525h-1.105zm5.027.067v-.807h.173c.294 0 .499-.115.614-.346.122-.23.186-.644.193-1.239l.057-2.959h3.583v5.284h-.864v-4.496h-1.864l-.048 2.209c-.013.557-.077 1.009-.192 1.355-.109.346-.282.599-.519.759-.23.16-.535.24-.912.24h-.221zm6.352-.067v-5.284h.826v2.882c0 .186-.006.381-.019.586-.006.205-.019.4-.038.586a6.326 6.326 0 01-.048.461l2.132-4.515h1.105v5.284h-.826v-2.882c0-.186.003-.381.01-.586.012-.205.028-.401.048-.586l.048-.471-2.133 4.525h-1.105zM24.966 157.13c-.423 0-.794-.08-1.115-.24a1.736 1.736 0 01-.73-.692c-.173-.308-.26-.669-.26-1.086v-1.441c0-.422.087-.784.26-1.085a1.73 1.73 0 01.73-.692c.32-.16.692-.24 1.115-.24.608 0 1.098.163 1.47.49.37.326.566.772.585 1.335h-.864c-.02-.339-.135-.599-.346-.778-.205-.186-.487-.279-.845-.279-.378 0-.68.109-.903.327-.225.211-.337.516-.337.913v1.45c0 .397.112.705.337.923.224.217.525.326.903.326.358 0 .64-.093.845-.278.211-.186.327-.445.346-.779h.864c-.019.564-.214 1.009-.585 1.336-.372.326-.862.49-1.47.49zm7.447 1.249v-1.345h-3.756v-5.284h.865v4.515h2.075v-4.515h.864v4.515h.72v2.114h-.768zm3.913-1.249c-.417 0-.782-.083-1.096-.25a1.81 1.81 0 01-.72-.701 2.207 2.207 0 01-.25-1.067v-1.441c0-.41.084-.765.25-1.066.173-.301.413-.535.72-.701.314-.167.68-.25 1.096-.25.416 0 .778.083 1.085.25.314.166.554.4.72.701.174.301.26.656.26 1.066v.932h-3.285v.509c0 .417.105.737.317.961.211.218.512.327.903.327.333 0 .602-.058.807-.173a.764.764 0 00.374-.538h.865a1.47 1.47 0 01-.653 1.056c-.372.257-.836.385-1.393.385zm1.22-3.103v-.356c0-.416-.106-.736-.317-.96-.205-.224-.506-.337-.903-.337-.391 0-.692.113-.903.337-.212.224-.317.544-.317.96v.279h2.507l-.067.077zm2.49 3.007v-5.284h.865v2.2h2.229v-2.2h.864v5.284h-.864v-2.296H40.9v2.296h-.865zm7.208.096c-.557 0-.996-.141-1.316-.423-.32-.288-.48-.676-.48-1.162 0-.493.16-.881.48-1.163.32-.282.752-.422 1.297-.422h1.633v-.529c0-.326-.1-.576-.298-.749-.192-.179-.468-.269-.826-.269-.314 0-.577.067-.788.202a.717.717 0 00-.365.528h-.865c.058-.455.273-.817.644-1.086.371-.269.836-.403 1.393-.403.608 0 1.089.157 1.441.471.352.313.528.739.528 1.277v3.632h-.845v-1.009h-.144l.144-.144c0 .384-.15.688-.452.913-.294.224-.688.336-1.181.336zm.211-.682c.41 0 .746-.103 1.009-.308a.955.955 0 00.394-.787v-.75h-1.614c-.288 0-.516.08-.682.24-.167.16-.25.378-.25.654 0 .294.1.528.298.701.205.166.487.25.845.25zm3.942 2.315v-7.013h.864v1.009h.173l-.173.201c0-.403.131-.72.394-.951.269-.237.621-.355 1.057-.355.531 0 .954.176 1.268.528.32.346.48.823.48 1.432v1.546c0 .404-.074.753-.22 1.048a1.58 1.58 0 01-.606.682c-.256.16-.564.24-.922.24-.43 0-.778-.119-1.047-.356-.27-.237-.404-.554-.404-.951l.173.202h-.192l.02 1.201v1.537h-.865zm2.026-2.383c.366 0 .65-.108.855-.326.212-.218.318-.532.318-.942v-1.441c0-.41-.106-.723-.317-.941-.205-.218-.49-.327-.856-.327-.352 0-.634.112-.845.336-.211.225-.317.535-.317.932v1.441c0 .397.106.708.317.932.211.224.493.336.845.336zm3.682.654v-5.284h.827v2.882c0 .186-.007.381-.02.586a8.2 8.2 0 01-.038.586 6.11 6.11 0 01-.048.461l2.133-4.515h1.104v5.284h-.826v-2.882c0-.186.003-.381.01-.586.013-.205.029-.401.048-.586l.048-.471-2.133 4.525h-1.105zm5.69 0v-5.284h.826v2.882c0 .186-.006.381-.019.586-.006.205-.02.4-.038.586a6.11 6.11 0 01-.048.461l2.132-4.515h1.105v5.284h-.826v-2.882c0-.186.003-.381.01-.586.012-.205.028-.401.047-.586l.049-.471-2.133 4.525h-1.105zm12.897.096c-.557 0-.996-.141-1.316-.423-.32-.288-.48-.676-.48-1.162 0-.493.16-.881.48-1.163.32-.282.753-.422 1.297-.422h1.633v-.529c0-.326-.1-.576-.298-.749-.192-.179-.467-.269-.826-.269-.314 0-.576.067-.788.202a.717.717 0 00-.365.528h-.864c.057-.455.272-.817.643-1.086.372-.269.836-.403 1.393-.403.609 0 1.09.157 1.441.471.353.313.529.739.529 1.277v3.632h-.846v-1.009h-.144l.144-.144c0 .384-.15.688-.451.913-.295.224-.689.336-1.182.336zm.212-.682c.41 0 .746-.103 1.008-.308a.955.955 0 00.394-.787v-.75h-1.614c-.288 0-.515.08-.682.24-.166.16-.25.378-.25.654 0 .294.1.528.298.701.205.166.487.25.845.25zm3.96.586v-5.284h2.286c.551 0 .977.125 1.278.375.301.243.452.586.452 1.028 0 .365-.125.659-.375.883-.25.218-.58.327-.99.327v-.077c.449 0 .807.112 1.076.336.276.225.413.526.413.903 0 .474-.16.846-.48 1.115-.32.262-.768.394-1.345.394h-2.315zm.845-.759h1.47c.308 0 .545-.067.711-.202.173-.134.26-.323.26-.567 0-.25-.087-.442-.26-.576-.166-.135-.403-.202-.71-.202h-1.47v1.547zm0-2.296h1.441c.27 0 .48-.064.634-.192.16-.128.24-.308.24-.538 0-.231-.076-.41-.23-.538-.154-.135-.368-.202-.644-.202h-1.44v1.47zm6.391 3.055v-4.525h-1.92v-.759h4.707v.759h-1.921v4.525H87.1zm6.122.077c-.422 0-.787-.081-1.095-.241a1.741 1.741 0 01-.72-.691c-.167-.308-.25-.67-.25-1.086v-1.402c0-.423.083-.785.25-1.086a1.74 1.74 0 01.72-.692c.308-.16.673-.24 1.095-.24.423 0 .788.08 1.095.24.308.16.545.391.711.692.173.301.26.66.26 1.076v1.412c0 .416-.087.778-.26 1.086a1.681 1.681 0 01-.71.691c-.308.16-.673.241-1.096.241zm0-.769c.378 0 .673-.106.884-.317.211-.211.317-.522.317-.932v-1.402c0-.41-.106-.721-.317-.932-.211-.212-.506-.317-.884-.317-.371 0-.666.105-.884.317-.21.211-.317.522-.317.932v1.402c0 .41.106.721.317.932.218.211.513.317.884.317zm3.538.692v-5.284h1.172l.692 2.027c.07.205.134.41.192.615.058.198.1.352.125.461.025-.109.064-.263.115-.461.058-.205.118-.413.183-.625l.653-2.017h1.172v5.284h-.836v-.817c0-.288.003-.602.01-.941l.019-1.028c.013-.346.025-.673.038-.98.013-.314.023-.589.029-.826l-.941 3.007h-.913l-.951-2.988c.013.288.022.647.029 1.076.013.429.022.877.029 1.345.012.467.019.912.019 1.335v.817h-.836zm7.38.096c-.557 0-.995-.141-1.316-.423-.32-.288-.48-.676-.48-1.162 0-.493.16-.881.48-1.163.321-.282.753-.422 1.297-.422h1.633v-.529c0-.326-.099-.576-.297-.749-.193-.179-.468-.269-.827-.269-.313 0-.576.067-.787.202a.715.715 0 00-.365.528h-.865c.058-.455.272-.817.644-1.086.371-.269.835-.403 1.393-.403.608 0 1.088.157 1.441.471.352.313.528.739.528 1.277v3.632h-.845v-1.009h-.145l.145-.144c0 .384-.151.688-.452.913-.295.224-.688.336-1.182.336zm.212-.682c.41 0 .746-.103 1.009-.308a.956.956 0 00.393-.787v-.75h-1.614c-.288 0-.515.08-.682.24-.166.16-.249.378-.249.654 0 .294.099.528.297.701.205.166.487.25.846.25zm5.507.586v-4.525h-1.921v-.759h4.707v.759h-1.921v4.525h-.865zm4.143 0v-5.284h.826v2.882c0 .186-.006.381-.019.586-.007.205-.019.4-.039.586a5.376 5.376 0 01-.048.461l2.133-4.515h1.105v5.284h-.826v-2.882c0-.186.003-.381.009-.586.013-.205.029-.401.048-.586l.048-.471-2.132 4.525h-1.105zm8.725 0v-1.922a3.95 3.95 0 01-.47.077 7.093 7.093 0 01-.654.029c-.653.006-1.162-.15-1.527-.471-.359-.326-.538-.781-.538-1.364v-1.633h.864v1.633c0 .327.109.586.327.778.224.186.532.279.922.279.269 0 .497-.01.682-.029.193-.026.324-.048.394-.067v-2.594h.865v5.284h-.865zm4.633.096c-.416 0-.781-.083-1.095-.25a1.806 1.806 0 01-.72-.701 2.201 2.201 0 01-.25-1.067v-1.441c0-.41.083-.765.25-1.066.172-.301.413-.535.72-.701.314-.167.679-.25 1.095-.25.416 0 .778.083 1.086.25.314.166.554.4.72.701.173.301.26.656.26 1.066v.932h-3.286v.509c0 .417.106.737.317.961.212.218.513.327.903.327.333 0 .602-.058.807-.173a.765.765 0 00.375-.538h.864a1.466 1.466 0 01-.653 1.056c-.371.257-.836.385-1.393.385zm1.22-3.103v-.356c0-.416-.105-.736-.317-.96-.205-.224-.506-.337-.903-.337-.39 0-.691.113-.903.337-.211.224-.317.544-.317.96v.279h2.507l-.067.077zm4.489 3.103a2.46 2.46 0 01-1.114-.24 1.73 1.73 0 01-.73-.692c-.173-.308-.26-.669-.26-1.086v-1.441c0-.422.087-.784.26-1.085.172-.301.416-.532.73-.692.32-.16.691-.24 1.114-.24.608 0 1.098.163 1.47.49.371.326.567.772.586 1.335h-.865c-.019-.339-.134-.599-.346-.778-.204-.186-.486-.279-.845-.279-.378 0-.679.109-.903.327-.224.211-.336.516-.336.913v1.45c0 .397.112.705.336.923.224.217.525.326.903.326.359 0 .641-.093.845-.278.212-.186.327-.445.346-.779h.865c-.019.564-.215 1.009-.586 1.336-.372.326-.862.49-1.47.49zm3.72-.096v-5.284h.865v2.181h.903l1.537-2.181h.99l-1.778 2.517 1.806 2.767h-1.008l-1.537-2.354h-.913v2.354h-.865zm5.661 0v-5.284h.826v2.882c0 .186-.006.381-.019.586-.006.205-.019.4-.038.586a6.326 6.326 0 01-.048.461l2.132-4.515h1.105v5.284h-.826v-2.882c0-.186.003-.381.01-.586.012-.205.028-.401.048-.586l.048-.471-2.133 4.525h-1.105zm5.267 0l1.873-2.719-1.758-2.565h1.019l1.047 1.633c.045.071.086.147.125.231.045.083.08.15.105.201a3.33 3.33 0 01.087-.201c.045-.084.09-.16.134-.231l1.057-1.633h1.009l-1.758 2.575 1.863 2.709h-1.018l-1.133-1.73c-.045-.07-.09-.15-.135-.24a1.943 1.943 0 00-.106-.23 3.723 3.723 0 01-.259.47l-1.143 1.73h-1.009zM24.966 176.13c-.423 0-.794-.08-1.115-.24a1.736 1.736 0 01-.73-.692c-.173-.308-.26-.669-.26-1.086v-1.441c0-.422.087-.784.26-1.085a1.73 1.73 0 01.73-.692c.32-.16.692-.24 1.115-.24.608 0 1.098.163 1.47.49.37.326.566.772.585 1.335h-.864c-.02-.339-.135-.599-.346-.778-.205-.186-.487-.279-.845-.279-.378 0-.68.109-.903.327-.225.211-.337.516-.337.913v1.45c0 .397.112.705.337.923.224.217.525.326.903.326.358 0 .64-.093.845-.278.211-.186.327-.445.346-.779h.864c-.019.564-.214 1.009-.585 1.336-.372.326-.862.49-1.47.49zm5.67-.019c-.423 0-.788-.081-1.095-.241a1.741 1.741 0 01-.72-.691c-.167-.308-.25-.67-.25-1.086v-1.402c0-.423.083-.785.25-1.086.172-.301.412-.532.72-.692.307-.16.672-.24 1.095-.24.423 0 .788.08 1.095.24.308.16.545.391.711.692.173.301.26.66.26 1.076v1.412c0 .416-.087.778-.26 1.086a1.681 1.681 0 01-.71.691c-.308.16-.673.241-1.096.241zm0-.769c.378 0 .672-.106.884-.317.211-.211.317-.522.317-.932v-1.402c0-.41-.106-.721-.317-.932-.212-.212-.506-.317-.884-.317-.371 0-.666.105-.884.317-.211.211-.317.522-.317.932v1.402c0 .41.106.721.317.932.218.211.513.317.884.317zm5.69.769c-.423 0-.788-.081-1.096-.241a1.742 1.742 0 01-.72-.691 2.256 2.256 0 01-.25-1.086v-1.402c0-.423.084-.785.25-1.086.173-.301.413-.532.72-.692.308-.16.673-.24 1.096-.24.422 0 .788.08 1.095.24.307.16.544.391.71.692.174.301.26.66.26 1.076v1.412c0 .416-.086.778-.26 1.086a1.681 1.681 0 01-.71.691c-.307.16-.673.241-1.095.241zm0-.769c.378 0 .672-.106.883-.317.212-.211.318-.522.318-.932v-1.402c0-.41-.106-.721-.318-.932-.21-.212-.505-.317-.883-.317-.372 0-.666.105-.884.317-.212.211-.317.522-.317.932v1.402c0 .41.105.721.317.932.218.211.512.317.884.317zm5.69.788c-.622 0-1.115-.183-1.48-.548-.359-.371-.538-.877-.538-1.518v-2.401c0-.846.211-1.496.634-1.951.423-.461 1.028-.691 1.816-.691h1.345v.864h-1.345c-.52 0-.913.154-1.182.462-.269.301-.403.739-.403 1.316v.624h.134l-.134.192c.006-.378.134-.672.384-.884.25-.211.589-.317 1.018-.317.557 0 .99.18 1.297.538.314.359.47.852.47 1.48v.768c0 .429-.08.798-.24 1.105a1.68 1.68 0 01-.691.711c-.301.167-.663.25-1.086.25zm0-.769c.37 0 .656-.112.854-.336.199-.224.298-.544.298-.961v-.768c0-.417-.1-.737-.298-.961-.198-.224-.483-.336-.855-.336-.371 0-.656.112-.855.336-.198.218-.297.538-.297.961v.768c0 .417.099.737.297.961.199.224.484.336.855.336zm7.562 2.018v-1.345h-4.14v-5.284h.778v4.554h1.114v-4.554h.673v4.554h1.114v-4.554h.778v4.554h.452v2.075h-.769zm3.817-1.249c-.417 0-.782-.083-1.096-.25a1.81 1.81 0 01-.72-.701 2.207 2.207 0 01-.25-1.067v-1.441c0-.41.084-.765.25-1.066.173-.301.413-.535.72-.701.314-.167.68-.25 1.096-.25.416 0 .778.083 1.085.25.314.166.554.4.72.701.174.301.26.656.26 1.066v.932h-3.285v.509c0 .417.105.737.317.961.211.218.512.327.903.327.333 0 .602-.058.807-.173a.764.764 0 00.374-.538h.865a1.47 1.47 0 01-.653 1.056c-.372.257-.836.385-1.393.385zm1.22-3.103v-.356c0-.416-.106-.736-.317-.96-.205-.224-.506-.337-.903-.337-.391 0-.692.113-.903.337-.212.224-.317.544-.317.96v.279h2.507l-.067.077zm2.49 3.007v-5.284h.865v2.2h2.229v-2.2h.864v5.284H60.2v-2.296h-2.23v2.296h-.865zm5.69 0v-5.284h.826v2.882c0 .186-.006.381-.019.586-.006.205-.02.4-.038.586a6.11 6.11 0 01-.048.461l2.132-4.515h1.105v5.284h-.826v-2.882c0-.186.003-.381.01-.586.012-.205.028-.401.047-.586l.049-.471-2.133 4.525h-1.105zm5.69 0v-5.284h.826v2.882c0 .186-.007.381-.02.586a8.2 8.2 0 01-.038.586 6.11 6.11 0 01-.048.461l2.133-4.515h1.105v5.284h-.826v-2.882c0-.186.003-.381.01-.586.012-.205.028-.401.047-.586l.048-.471-2.133 4.525h-1.104zm2.017-6.149c-.461 0-.832-.128-1.114-.384-.282-.256-.423-.592-.423-1.009h.682c0 .25.077.452.23.606.154.153.36.23.616.23.262 0 .47-.077.624-.23a.803.803 0 00.24-.606h.682c0 .417-.14.753-.422 1.009-.282.256-.654.384-1.115.384zm4.354 7.686l.769-2.988h1.249l-1.25 2.988h-.768zm10.698-1.537v-5.284h2.286c.55 0 .977.125 1.278.375.3.243.451.586.451 1.028 0 .365-.125.659-.374.883-.25.218-.58.327-.99.327v-.077c.448 0 .807.112 1.076.336.275.225.413.526.413.903 0 .474-.16.846-.48 1.115-.32.262-.769.394-1.345.394h-2.315zm.845-.759h1.47c.307 0 .544-.067.71-.202.174-.134.26-.323.26-.567 0-.25-.086-.442-.26-.576-.166-.135-.403-.202-.71-.202h-1.47v1.547zm0-2.296h1.441c.269 0 .48-.064.634-.192.16-.128.24-.308.24-.538 0-.231-.077-.41-.23-.538-.154-.135-.369-.202-.644-.202h-1.441v1.47zm4.873 3.055v-5.284h.865v2.181h.903l1.537-2.181h.99l-1.778 2.517 1.806 2.767h-1.009l-1.537-2.354h-.912v2.354h-.865zm4.998.067v-.807h.173c.295 0 .5-.115.615-.346.121-.23.186-.644.192-1.239l.058-2.959h3.583v5.284h-.865v-4.496h-1.863l-.048 2.209c-.013.557-.077 1.009-.193 1.355-.108.346-.281.599-.518.759-.23.16-.535.24-.913.24h-.22zm9.158.029c-.442 0-.798-.151-1.067-.452-.269-.301-.403-.695-.403-1.181v-.798h-.845v2.335h-.798v-5.284h.798v2.258h.845v-.721c0-.493.131-.887.394-1.182.269-.301.627-.451 1.076-.451.474 0 .855.15 1.143.451.288.295.432.689.432 1.182v2.21c0 .486-.144.88-.432 1.181-.288.301-.669.452-1.143.452zm0-.673c.243 0 .432-.083.567-.249.14-.173.211-.41.211-.711v-2.21c0-.301-.071-.535-.211-.701a.679.679 0 00-.567-.26.666.666 0 00-.557.26c-.135.166-.202.4-.202.701v2.21c0 .301.067.538.202.711.134.166.32.249.557.249zm5.92.577v-1.922a3.939 3.939 0 01-.471.077 7.071 7.071 0 01-.653.029c-.653.006-1.162-.15-1.527-.471-.359-.326-.538-.781-.538-1.364v-1.633h.864v1.633c0 .327.109.586.327.778.224.186.531.279.922.279.269 0 .496-.01.682-.029.192-.026.324-.048.394-.067v-2.594h.865v5.284h-.865zm4.172.096c-.557 0-.996-.141-1.316-.423-.321-.288-.481-.676-.481-1.162 0-.493.16-.881.481-1.163.32-.282.752-.422 1.297-.422h1.633v-.529c0-.326-.1-.576-.298-.749-.192-.179-.468-.269-.826-.269-.314 0-.577.067-.788.202a.718.718 0 00-.365.528h-.865c.058-.455.272-.817.644-1.086.371-.269.836-.403 1.393-.403.608 0 1.089.157 1.441.471.352.313.528.739.528 1.277v3.632h-.845v-1.009h-.144l.144-.144c0 .384-.151.688-.452.913-.294.224-.688.336-1.181.336zm.211-.682c.41 0 .746-.103 1.009-.308a.957.957 0 00.394-.787v-.75h-1.614c-.288 0-.516.08-.682.24-.167.16-.25.378-.25.654 0 .294.099.528.298.701.205.166.486.25.845.25zm3.634.586l1.354-2.037c-.403-.096-.717-.282-.941-.557-.218-.276-.327-.618-.327-1.028 0-.519.17-.926.51-1.22.345-.295.816-.442 1.412-.442h2.277v5.284h-.865v-1.97h-1.162l-1.249 1.97h-1.009zm2.008-2.738h1.412v-1.777h-1.412c-.32 0-.573.08-.759.24-.186.153-.279.371-.279.653 0 .275.093.493.279.653.186.154.439.231.759.231zm-98.406 22.738v-5.284h3.958v5.284h-.864v-4.496h-2.229v4.496h-.865zm7.67.077c-.424 0-.789-.081-1.096-.241a1.741 1.741 0 01-.72-.691c-.167-.308-.25-.67-.25-1.086v-1.402c0-.423.083-.785.25-1.086.172-.301.412-.532.72-.692.307-.16.672-.24 1.095-.24.423 0 .788.08 1.095.24.308.16.545.391.711.692.173.301.26.66.26 1.076v1.412c0 .416-.087.778-.26 1.086a1.681 1.681 0 01-.71.691c-.308.16-.673.241-1.096.241zm0-.769c.377 0 .671-.106.883-.317.211-.211.317-.522.317-.932v-1.402c0-.41-.106-.721-.317-.932-.212-.212-.506-.317-.884-.317-.371 0-.666.105-.884.317-.211.211-.317.522-.317.932v1.402c0 .41.106.721.317.932.218.211.513.317.884.317zm3.095 2.037v-2.085h.432c.11-.109.221-.323.336-.644.122-.32.186-.727.193-1.22l.057-2.68h3.45v4.544h.672v2.085h-.768v-1.345H34.5v1.345h-.768zm1.345-2.085h2.257v-3.775h-1.767l-.039 1.93c-.006.506-.06.916-.163 1.23-.102.314-.199.519-.288.615zm6.506.74v-4.525h-1.921v-.759h4.707v.759h-1.921v4.525h-.865zm4.143 0v-5.284h2.286c.551 0 .977.125 1.278.375.301.243.452.586.452 1.028 0 .365-.125.659-.375.883-.25.218-.58.327-.99.327v-.077c.449 0 .807.112 1.076.336.276.225.413.526.413.903 0 .474-.16.846-.48 1.115-.32.262-.768.394-1.345.394h-2.315zm.845-.759h1.47c.308 0 .545-.067.711-.202.173-.134.26-.323.26-.567 0-.25-.087-.442-.26-.576-.166-.135-.403-.202-.71-.202h-1.47v1.547zm0-2.296h1.441c.27 0 .48-.064.635-.192.16-.128.24-.308.24-.538 0-.231-.077-.41-.23-.538-.155-.135-.37-.202-.645-.202h-1.44v1.47zm6.824 3.151c-.417 0-.782-.083-1.096-.25a1.81 1.81 0 01-.72-.701 2.207 2.207 0 01-.25-1.067v-1.441c0-.41.084-.765.25-1.066.173-.301.413-.535.72-.701.314-.167.68-.25 1.096-.25.416 0 .778.083 1.085.25.314.166.554.4.72.701.174.301.26.656.26 1.066v.932h-3.285v.509c0 .417.105.737.317.961.211.218.512.327.903.327.333 0 .602-.058.807-.173a.764.764 0 00.374-.538h.865a1.47 1.47 0 01-.653 1.056c-.372.257-.836.385-1.393.385zm1.22-3.103v-.356c0-.416-.106-.736-.317-.96-.205-.224-.506-.337-.903-.337-.391 0-.692.113-.903.337-.212.224-.317.544-.317.96v.279h2.507l-.067.077zm2.471 4.736v-7.013h.865v1.009h.173l-.173.201c0-.403.131-.72.394-.951.269-.237.62-.355 1.056-.355.532 0 .955.176 1.268.528.32.346.48.823.48 1.432v1.546c0 .404-.073.753-.22 1.048a1.583 1.583 0 01-.605.682c-.257.16-.564.24-.923.24-.429 0-.778-.119-1.047-.356-.269-.237-.403-.554-.403-.951l.173.202h-.193l.02 1.201v1.537h-.865zm2.027-2.383c.365 0 .65-.108.855-.326.211-.218.317-.532.317-.942v-1.441c0-.41-.105-.723-.317-.941-.205-.218-.49-.327-.855-.327-.352 0-.634.112-.845.336-.212.225-.317.535-.317.932v1.441c0 .397.105.708.317.932.211.224.493.336.845.336zm2.952.654l1.153-2.709-1.076-2.575h.835l.923 2.306h.509v-2.306h.73v2.306h.49l.951-2.306h.826l-1.076 2.546 1.153 2.738h-.865l-.96-2.402h-.519v2.402h-.73v-2.402h-.519l-.97 2.402h-.855zm5.805 1.345v-2.085h.432c.109-.109.221-.323.336-.644.122-.32.186-.727.192-1.22l.058-2.68h3.449v4.544h.672v2.085h-.768v-1.345h-3.603v1.345h-.768zm1.345-2.085h2.257v-3.775h-1.767l-.039 1.93c-.006.506-.06.916-.163 1.23-.103.314-.199.519-.288.615zm6.938.836c-.416 0-.781-.083-1.095-.25a1.81 1.81 0 01-.72-.701 2.207 2.207 0 01-.25-1.067v-1.441c0-.41.083-.765.25-1.066.172-.301.413-.535.72-.701.314-.167.679-.25 1.095-.25.417 0 .778.083 1.086.25.314.166.554.4.72.701.173.301.26.656.26 1.066v.932h-3.286v.509c0 .417.106.737.317.961.212.218.513.327.903.327.333 0 .602-.058.807-.173a.764.764 0 00.375-.538h.865a1.47 1.47 0 01-.654 1.056c-.371.257-.836.385-1.393.385zm1.22-3.103v-.356c0-.416-.105-.736-.317-.96-.205-.224-.506-.337-.903-.337-.39 0-.691.113-.903.337-.211.224-.317.544-.317.96v.279h2.508l-.068.077zm2.491 3.007v-5.284h.865v2.2h2.228v-2.2h.865v5.284h-.865v-2.296H80.73v2.296h-.865zm5.69 0v-5.284h.826v2.882c0 .186-.007.381-.02.586a8.2 8.2 0 01-.038.586 6.105 6.105 0 01-.048.461l2.133-4.515h1.105v5.284h-.827v-2.882c0-.186.004-.381.01-.586.013-.205.029-.401.048-.586l.048-.471-2.133 4.525h-1.104zm7.668.096c-.416 0-.781-.083-1.095-.25a1.81 1.81 0 01-.72-.701 2.207 2.207 0 01-.25-1.067v-1.441c0-.41.083-.765.25-1.066.172-.301.413-.535.72-.701.314-.167.679-.25 1.095-.25.417 0 .778.083 1.086.25.314.166.554.4.72.701.173.301.26.656.26 1.066v.932h-3.286v.509c0 .417.106.737.317.961.212.218.513.327.903.327.333 0 .602-.058.807-.173a.764.764 0 00.375-.538h.865a1.469 1.469 0 01-.654 1.056c-.371.257-.835.385-1.393.385zm1.22-3.103v-.356c0-.416-.105-.736-.317-.96-.205-.224-.506-.337-.903-.337-.39 0-.691.113-.903.337-.211.224-.317.544-.317.96v.279h2.508l-.068.077zm9.91 3.074c-.557 0-1.015-.119-1.374-.356a1.409 1.409 0 01-.634-.96h.913c.044.16.163.291.355.394.199.102.445.153.74.153h.451c.314 0 .558-.073.73-.221a.707.707 0 00.269-.576c0-.256-.086-.458-.259-.605-.166-.147-.413-.221-.74-.221h-1.162v-.749h1.133c.295 0 .519-.071.673-.212a.718.718 0 00.231-.557.728.728 0 00-.106-.403.605.605 0 00-.298-.25 1.234 1.234 0 00-.49-.087h-.48c-.256 0-.477.058-.663.173-.186.115-.298.256-.336.423h-.913c.064-.397.272-.724.624-.98.353-.256.782-.384 1.288-.384h.48c.378 0 .701.061.97.182.269.116.474.282.615.5.148.218.221.477.221.778 0 .314-.102.573-.307.778-.205.199-.493.311-.865.336v.039c.455.032.785.153.99.365.205.211.307.515.307.912 0 .468-.173.839-.519 1.115-.346.275-.81.413-1.393.413h-.451zm5.478.029c-.557 0-.996-.141-1.316-.423-.32-.288-.48-.676-.48-1.162 0-.493.16-.881.48-1.163.32-.282.753-.422 1.297-.422h1.633v-.529c0-.326-.099-.576-.298-.749-.192-.179-.467-.269-.826-.269-.314 0-.576.067-.788.202a.718.718 0 00-.365.528h-.864c.057-.455.272-.817.643-1.086.372-.269.836-.403 1.393-.403.609 0 1.089.157 1.441.471.353.313.529.739.529 1.277v3.632h-.846v-1.009h-.144l.144-.144c0 .384-.15.688-.451.913-.295.224-.689.336-1.182.336zm.211-.682c.41 0 .747-.103 1.009-.308a.954.954 0 00.394-.787v-.75h-1.614c-.288 0-.515.08-.682.24-.166.16-.25.378-.25.654 0 .294.1.528.298.701.205.166.487.25.845.25zm3.99.586v-5.284h.864v2.181h.903l1.537-2.181h.99l-1.777 2.517 1.806 2.767h-1.009l-1.537-2.354h-.913v2.354h-.864zm7.178.096c-.557 0-.995-.141-1.316-.423-.32-.288-.48-.676-.48-1.162 0-.493.16-.881.48-1.163.321-.282.753-.422 1.297-.422h1.633v-.529c0-.326-.099-.576-.297-.749-.193-.179-.468-.269-.827-.269-.313 0-.576.067-.787.202a.715.715 0 00-.365.528h-.865c.058-.455.272-.817.644-1.086.371-.269.835-.403 1.393-.403.608 0 1.088.157 1.441.471.352.313.528.739.528 1.277v3.632h-.845v-1.009h-.145l.145-.144c0 .384-.151.688-.452.913-.295.224-.688.336-1.182.336zm.212-.682c.41 0 .746-.103 1.008-.308a.954.954 0 00.394-.787v-.75h-1.614c-.288 0-.515.08-.682.24-.166.16-.249.378-.249.654 0 .294.099.528.297.701.205.166.487.25.846.25zm5.689.653c-.557 0-1.015-.119-1.373-.356a1.406 1.406 0 01-.634-.96h.912c.045.16.164.291.356.394.198.102.445.153.739.153h.452c.314 0 .557-.073.73-.221a.71.71 0 00.269-.576c0-.256-.086-.458-.259-.605-.167-.147-.413-.221-.74-.221H126.4v-.749h1.133c.295 0 .519-.071.673-.212a.721.721 0 00.23-.557.72.72 0 00-.106-.403.607.607 0 00-.297-.25 1.238 1.238 0 00-.49-.087h-.481a1.23 1.23 0 00-.662.173c-.186.115-.298.256-.337.423h-.912c.064-.397.272-.724.624-.98s.781-.384 1.287-.384h.481c.378 0 .701.061.97.182.269.116.474.282.615.5.147.218.221.477.221.778 0 .314-.103.573-.308.778-.205.199-.493.311-.864.336v.039c.454.032.784.153.989.365.205.211.308.515.308.912 0 .468-.173.839-.519 1.115-.346.275-.81.413-1.393.413h-.452zm5.479.029c-.557 0-.996-.141-1.316-.423-.321-.288-.481-.676-.481-1.162 0-.493.16-.881.481-1.163.32-.282.752-.422 1.297-.422h1.633v-.529c0-.326-.1-.576-.298-.749-.192-.179-.468-.269-.826-.269-.314 0-.577.067-.788.202a.718.718 0 00-.365.528h-.865c.058-.455.272-.817.644-1.086.371-.269.836-.403 1.393-.403.608 0 1.089.157 1.441.471.352.313.528.739.528 1.277v3.632h-.845v-1.009h-.144l.144-.144c0 .384-.151.688-.452.913-.294.224-.688.336-1.181.336zm.211-.682c.41 0 .746-.103 1.009-.308a.957.957 0 00.394-.787v-.75h-1.614c-.288 0-.516.08-.682.24-.167.16-.25.378-.25.654 0 .294.099.528.298.701.205.166.486.25.845.25zm4.643 2.123l.768-2.988h1.249l-1.249 2.988h-.768zM23.774 216.763l.778-2.056-1.96-4.957h.961l1.23 3.266c.045.109.087.24.125.394l.096.375.096-.375a4.42 4.42 0 01.115-.394l1.153-3.266h.932l-2.603 7.013h-.923zm4.883-1.729v-5.284h2.287c.55 0 .976.125 1.277.375.301.243.452.586.452 1.028 0 .365-.125.659-.375.883-.25.218-.58.327-.99.327v-.077c.449 0 .807.112 1.077.336.275.225.413.526.413.903 0 .474-.16.846-.48 1.115-.321.262-.77.394-1.346.394h-2.315zm.846-.759h1.47c.307 0 .544-.067.71-.202.173-.134.26-.323.26-.567 0-.25-.087-.442-.26-.576-.166-.135-.403-.202-.71-.202h-1.47v1.547zm0-2.296h1.44c.27 0 .48-.064.634-.192.16-.128.24-.308.24-.538 0-.231-.076-.41-.23-.538-.154-.135-.368-.202-.643-.202h-1.441v1.47zm6.823 3.151c-.417 0-.782-.083-1.096-.25a1.81 1.81 0 01-.72-.701 2.207 2.207 0 01-.25-1.067v-1.441c0-.41.084-.765.25-1.066.173-.301.413-.535.72-.701.314-.167.68-.25 1.096-.25.416 0 .778.083 1.085.25.314.166.554.4.72.701.174.301.26.656.26 1.066v.932h-3.285v.509c0 .417.105.737.317.961.211.218.512.327.903.327.333 0 .602-.058.807-.173a.764.764 0 00.374-.538h.865a1.47 1.47 0 01-.653 1.056c-.372.257-.836.385-1.393.385zm1.22-3.103v-.356c0-.416-.106-.736-.317-.96-.205-.224-.506-.337-.903-.337-.391 0-.692.113-.903.337-.212.224-.317.544-.317.96v.279h2.507l-.067.077zm1.876 4.352v-2.085h.432c.109-.109.22-.323.336-.644.122-.32.186-.727.192-1.22l.058-2.68h3.449v4.544h.672v2.085h-.768v-1.345H40.19v1.345h-.768zm1.345-2.085h2.257v-3.775h-1.768l-.038 1.93c-.006.506-.06.916-.163 1.23-.103.314-.199.519-.288.615zm6.938.817c-.423 0-.788-.081-1.095-.241a1.74 1.74 0 01-.72-.691c-.167-.308-.25-.67-.25-1.086v-1.402c0-.423.083-.785.25-1.086.172-.301.412-.532.72-.692.307-.16.672-.24 1.095-.24.423 0 .788.08 1.095.24.308.16.545.391.711.692.173.301.26.66.26 1.076v1.412c0 .416-.087.778-.26 1.086a1.681 1.681 0 01-.71.691c-.308.16-.673.241-1.096.241zm0-.769c.378 0 .672-.106.884-.317.211-.211.317-.522.317-.932v-1.402c0-.41-.106-.721-.317-.932-.212-.212-.506-.317-.884-.317-.371 0-.666.105-.884.317-.211.211-.317.522-.317.932v1.402c0 .41.106.721.317.932.218.211.513.317.884.317zm3.538.692v-5.284h1.172l.691 2.027c.07.205.135.41.193.615.057.198.099.352.124.461.026-.109.064-.263.116-.461.057-.205.118-.413.182-.625l.654-2.017h1.172v5.284h-.836v-.817c0-.288.003-.602.01-.941l.019-1.028c.012-.346.025-.673.038-.98.013-.314.023-.589.029-.826l-.942 3.007h-.912l-.951-2.988c.012.288.022.647.029 1.076.012.429.022.877.028 1.345.013.467.02.912.02 1.335v.817h-.836zm5.2.067v-.807h.172c.295 0 .5-.115.615-.346.122-.23.186-.644.192-1.239l.058-2.959h3.583v5.284H60.2v-4.496h-1.864l-.048 2.209c-.013.557-.077 1.009-.192 1.355-.109.346-.282.599-.519.759-.23.16-.535.24-.913.24h-.22zm8.331.029c-.416 0-.781-.083-1.095-.25a1.81 1.81 0 01-.72-.701 2.207 2.207 0 01-.25-1.067v-1.441c0-.41.083-.765.25-1.066.172-.301.412-.535.72-.701.314-.167.679-.25 1.095-.25.416 0 .778.083 1.086.25.313.166.553.4.72.701.173.301.26.656.26 1.066v.932h-3.286v.509c0 .417.106.737.317.961.211.218.512.327.903.327.333 0 .602-.058.807-.173a.764.764 0 00.375-.538h.864a1.47 1.47 0 01-.653 1.056c-.371.257-.836.385-1.393.385zm1.22-3.103v-.356c0-.416-.106-.736-.317-.96-.205-.224-.506-.337-.903-.337-.39 0-.692.113-.903.337-.211.224-.317.544-.317.96v.279h2.507l-.067.077zm2.49 3.007v-5.284h.865v2.2h2.229v-2.2h.865v5.284h-.865v-2.296h-2.229v2.296h-.864zm5.69 0v-5.284H75v2.882c0 .186-.006.381-.019.586a8.2 8.2 0 01-.038.586 6.157 6.157 0 01-.048.461l2.133-4.515h1.104v5.284h-.826v-2.882c0-.186.003-.381.01-.586.013-.205.028-.401.048-.586l.048-.471-2.133 4.525h-1.105zm5.363 0l1.355-2.037c-.404-.096-.717-.282-.942-.557-.217-.276-.326-.618-.326-1.028 0-.519.17-.926.509-1.22.346-.295.817-.442 1.412-.442h2.277v5.284h-.865v-1.97h-1.162l-1.249 1.97h-1.009zm2.008-2.738h1.412v-1.777h-1.412c-.32 0-.573.08-.759.24-.186.153-.278.371-.278.653 0 .275.093.493.278.653.186.154.439.231.76.231zm11.677 2.815c-.422 0-.787-.081-1.095-.241a1.741 1.741 0 01-.72-.691c-.167-.308-.25-.67-.25-1.086v-1.402c0-.423.083-.785.25-1.086a1.74 1.74 0 01.72-.692c.308-.16.673-.24 1.095-.24.423 0 .788.08 1.095.24.308.16.545.391.711.692.173.301.26.66.26 1.076v1.412c0 .416-.087.778-.26 1.086a1.681 1.681 0 01-.71.691c-.308.16-.673.241-1.096.241zm0-.769c.378 0 .673-.106.884-.317.211-.211.317-.522.317-.932v-1.402c0-.41-.106-.721-.317-.932-.211-.212-.506-.317-.884-.317-.371 0-.666.105-.884.317-.21.211-.317.522-.317.932v1.402c0 .41.106.721.317.932.218.211.513.317.884.317zm8.786 2.037v-2.085h.432c.109-.109.221-.323.336-.644.122-.32.186-.727.192-1.22l.058-2.68h3.449v4.544h.672v2.085h-.768v-1.345h-3.603v1.345h-.768zm1.345-2.085h2.257v-3.775h-1.767l-.039 1.93c-.006.506-.061.916-.163 1.23-.103.314-.199.519-.288.615zm6.938.817c-.422 0-.788-.081-1.095-.241a1.737 1.737 0 01-.72-.691c-.167-.308-.25-.67-.25-1.086v-1.402c0-.423.083-.785.25-1.086a1.74 1.74 0 01.72-.692c.307-.16.673-.24 1.095-.24.423 0 .788.08 1.095.24.308.16.545.391.711.692.173.301.26.66.26 1.076v1.412c0 .416-.087.778-.26 1.086a1.675 1.675 0 01-.711.691c-.307.16-.672.241-1.095.241zm0-.769c.378 0 .673-.106.884-.317.211-.211.317-.522.317-.932v-1.402c0-.41-.106-.721-.317-.932-.211-.212-.506-.317-.884-.317-.371 0-.666.105-.884.317-.211.211-.317.522-.317.932v1.402c0 .41.106.721.317.932.218.211.513.317.884.317zm5.709.788a2.46 2.46 0 01-1.114-.24 1.735 1.735 0 01-.73-.692c-.173-.308-.26-.669-.26-1.086v-1.441c0-.422.087-.784.26-1.085a1.73 1.73 0 01.73-.692c.32-.16.691-.24 1.114-.24.609 0 1.098.163 1.47.49.371.326.567.772.586 1.335h-.865c-.019-.339-.134-.599-.346-.778-.204-.186-.486-.279-.845-.279-.378 0-.679.109-.903.327-.224.211-.336.516-.336.913v1.45c0 .397.112.705.336.923.224.217.525.326.903.326.359 0 .641-.093.845-.278.212-.186.327-.445.346-.779h.865c-.019.564-.215 1.009-.586 1.336-.372.326-.861.49-1.47.49zm5.238-.096v-4.525h-1.921v-.759h4.707v.759h-1.921v4.525h-.865zm5.661.096c-.557 0-.996-.141-1.316-.423-.32-.288-.48-.676-.48-1.162 0-.493.16-.881.48-1.163.32-.282.752-.422 1.297-.422h1.633v-.529c0-.326-.099-.576-.298-.749-.192-.179-.467-.269-.826-.269-.314 0-.576.067-.788.202a.718.718 0 00-.365.528h-.864c.057-.455.272-.817.643-1.086.372-.269.836-.403 1.393-.403.609 0 1.089.157 1.441.471.352.313.529.739.529 1.277v3.632h-.846v-1.009h-.144l.144-.144c0 .384-.15.688-.451.913-.295.224-.689.336-1.182.336zm.211-.682c.41 0 .747-.103 1.009-.308a.954.954 0 00.394-.787v-.75h-1.614c-.288 0-.515.08-.682.24-.167.16-.25.378-.25.654 0 .294.099.528.298.701.205.166.487.25.845.25zm3.961.586v-5.284h2.286c.551 0 .977.125 1.278.375.301.243.451.586.451 1.028 0 .365-.124.659-.374.883-.25.218-.58.327-.99.327v-.077c.449 0 .807.112 1.076.336.276.225.413.526.413.903 0 .474-.16.846-.48 1.115-.32.262-.769.394-1.345.394h-2.315zm.845-.759h1.47c.307 0 .544-.067.711-.202.173-.134.259-.323.259-.567 0-.25-.086-.442-.259-.576-.167-.135-.404-.202-.711-.202h-1.47v1.547zm0-2.296h1.441c.269 0 .481-.064.634-.192.16-.128.24-.308.24-.538 0-.231-.076-.41-.23-.538-.154-.135-.368-.202-.644-.202h-1.441v1.47zm4.873 3.055v-5.284h.865v2.181h.903l1.537-2.181h.99l-1.778 2.517 1.806 2.767h-1.008l-1.537-2.354h-.913v2.354h-.865zm7.64.096c-.416 0-.781-.083-1.095-.25a1.814 1.814 0 01-.721-.701 2.212 2.212 0 01-.249-1.067v-1.441c0-.41.083-.765.249-1.066.173-.301.414-.535.721-.701.314-.167.679-.25 1.095-.25.416 0 .778.083 1.086.25.314.166.554.4.72.701.173.301.26.656.26 1.066v.932h-3.286v.509c0 .417.106.737.317.961.211.218.512.327.903.327.333 0 .602-.058.807-.173a.765.765 0 00.375-.538h.864a1.466 1.466 0 01-.653 1.056c-.371.257-.836.385-1.393.385zm1.22-3.103v-.356c0-.416-.105-.736-.317-.96-.205-.224-.506-.337-.903-.337-.391 0-.692.113-.903.337-.211.224-.317.544-.317.96v.279h2.507l-.067.077zm3.173 4.544l.768-2.988h1.249l-1.249 2.988h-.768zM22.967 234.034v-5.284h.865v2.2h2.229v-2.2h.864v5.284h-.864v-2.296h-2.229v2.296h-.865zm7.208.096c-.557 0-.996-.141-1.316-.423-.32-.288-.48-.676-.48-1.162 0-.493.16-.881.48-1.163.32-.282.752-.422 1.297-.422h1.633v-.529c0-.326-.1-.576-.298-.749-.192-.179-.468-.269-.826-.269-.314 0-.576.067-.788.202a.717.717 0 00-.365.528h-.864c.057-.455.272-.817.643-1.086.372-.269.836-.403 1.393-.403.608 0 1.089.157 1.441.471.352.313.529.739.529 1.277v3.632h-.846v-1.009h-.144l.144-.144c0 .384-.15.688-.451.913-.295.224-.689.336-1.182.336zm.211-.682c.41 0 .746-.103 1.009-.308a.955.955 0 00.394-.787v-.75h-1.614c-.288 0-.516.08-.682.24-.167.16-.25.378-.25.654 0 .294.1.528.298.701.205.166.487.25.845.25zm3.96.586v-5.284h3.959v5.284h-.865v-4.496h-2.229v4.496h-.864zm7.67.077c-.423 0-.788-.081-1.096-.241a1.741 1.741 0 01-.72-.691c-.167-.308-.25-.67-.25-1.086v-1.402c0-.423.083-.785.25-1.086.173-.301.413-.532.72-.692.308-.16.673-.24 1.095-.24.423 0 .788.08 1.096.24.307.16.544.391.71.692.173.301.26.66.26 1.076v1.412c0 .416-.087.778-.26 1.086a1.68 1.68 0 01-.71.691c-.308.16-.673.241-1.096.241zm0-.769c.377 0 .672-.106.883-.317.212-.211.317-.522.317-.932v-1.402c0-.41-.105-.721-.317-.932-.211-.212-.506-.317-.884-.317-.371 0-.666.105-.883.317-.212.211-.317.522-.317.932v1.402c0 .41.105.721.317.932.217.211.512.317.883.317zm3.537.692v-5.284h1.172l.692 2.027c.07.205.134.41.192.615.058.198.1.352.125.461.026-.109.064-.263.115-.461.058-.205.119-.413.183-.625l.653-2.017h1.172v5.284h-.836v-.817c0-.288.003-.602.01-.941l.019-1.028.038-.98c.013-.314.023-.589.03-.826l-.942 3.007h-.913l-.95-2.988c.012.288.021.647.028 1.076.013.429.022.877.029 1.345.013.467.019.912.019 1.335v.817h-.836zm5.863 0v-5.284h.826v2.882c0 .186-.006.381-.02.586-.006.205-.019.4-.038.586a6.11 6.11 0 01-.048.461l2.133-4.515h1.105v5.284h-.827v-2.882c0-.186.004-.381.01-.586.013-.205.029-.401.048-.586l.048-.471-2.133 4.525h-1.104zm5.69 0v-5.284h.864v2.2h2.229v-2.2h.864v5.284H60.2v-2.296h-2.23v2.296h-.865zm7.207.096c-.557 0-.996-.141-1.316-.423-.32-.288-.48-.676-.48-1.162 0-.493.16-.881.48-1.163.32-.282.752-.422 1.297-.422h1.633v-.529c0-.326-.1-.576-.298-.749-.192-.179-.468-.269-.826-.269-.314 0-.577.067-.788.202a.717.717 0 00-.365.528h-.865c.058-.455.273-.817.644-1.086.371-.269.836-.403 1.393-.403.608 0 1.089.157 1.441.471.352.313.528.739.528 1.277v3.632h-.845v-1.009h-.144l.144-.144c0 .384-.15.688-.451.913-.295.224-.689.336-1.182.336zm.211-.682c.41 0 .746-.103 1.009-.308a.955.955 0 00.394-.787v-.75h-1.614c-.288 0-.516.08-.682.24-.167.16-.25.378-.25.654 0 .294.1.528.298.701.205.166.487.25.845.25zm3.96.586v-5.284h.865v2.2h2.229v-2.2h.865v5.284h-.865v-2.296h-2.229v2.296h-.864zm5.69 0v-5.284H75v2.882c0 .186-.006.381-.019.586a8.2 8.2 0 01-.038.586 6.157 6.157 0 01-.048.461l2.133-4.515h1.104v5.284h-.826v-2.882c0-.186.003-.381.01-.586.013-.205.028-.401.048-.586l.048-.471-2.133 4.525h-1.105zm5.363 0l1.355-2.037c-.404-.096-.717-.282-.942-.557-.217-.276-.326-.618-.326-1.028 0-.519.17-.926.509-1.22.346-.295.817-.442 1.412-.442h2.277v5.284h-.865v-1.97h-1.162l-1.249 1.97h-1.009zm2.008-2.738h1.412v-1.777h-1.412c-.32 0-.573.08-.759.24-.186.153-.278.371-.278.653 0 .275.093.493.278.653.186.154.439.231.76.231zm11.677 2.815c-.422 0-.787-.081-1.095-.241a1.741 1.741 0 01-.72-.691c-.167-.308-.25-.67-.25-1.086v-1.402c0-.423.083-.785.25-1.086a1.74 1.74 0 01.72-.692c.308-.16.673-.24 1.095-.24.423 0 .788.08 1.095.24.308.16.545.391.711.692.173.301.26.66.26 1.076v1.412c0 .416-.087.778-.26 1.086a1.681 1.681 0 01-.71.691c-.308.16-.673.241-1.096.241zm0-.769c.378 0 .673-.106.884-.317.211-.211.317-.522.317-.932v-1.402c0-.41-.106-.721-.317-.932-.211-.212-.506-.317-.884-.317-.371 0-.666.105-.884.317-.21.211-.317.522-.317.932v1.402c0 .41.106.721.317.932.218.211.513.317.884.317zm11.38.788c-.622 0-1.115-.183-1.48-.548-.359-.371-.538-.877-.538-1.518v-2.401c0-.846.212-1.496.634-1.951.423-.461 1.028-.691 1.816-.691h1.345v.864h-1.345c-.519 0-.913.154-1.182.462-.269.301-.403.739-.403 1.316v.624h.134l-.134.192c.006-.378.134-.672.384-.884.25-.211.589-.317 1.018-.317.558 0 .99.18 1.297.538.314.359.471.852.471 1.48v.768c0 .429-.08.798-.24 1.105-.16.308-.391.544-.692.711-.301.167-.663.25-1.085.25zm0-.769c.371 0 .656-.112.855-.336.198-.224.297-.544.297-.961v-.768c0-.417-.099-.737-.297-.961-.199-.224-.484-.336-.855-.336-.372 0-.657.112-.855.336-.199.218-.298.538-.298.961v.768c0 .417.099.737.298.961.198.224.483.336.855.336zm3.691 2.402v-7.013h.865v1.009h.173l-.173.201c0-.403.131-.72.394-.951.269-.237.621-.355 1.056-.355.532 0 .955.176 1.268.528.321.346.481.823.481 1.432v1.546c0 .404-.074.753-.221 1.048a1.583 1.583 0 01-.605.682c-.257.16-.564.24-.923.24-.429 0-.778-.119-1.047-.356-.269-.237-.403-.554-.403-.951l.173.202h-.193l.02 1.201v1.537h-.865zm2.027-2.383c.365 0 .65-.108.855-.326.211-.218.317-.532.317-.942v-1.441c0-.41-.106-.723-.317-.941-.205-.218-.49-.327-.855-.327-.352 0-.634.112-.845.336-.212.225-.317.535-.317.932v1.441c0 .397.105.708.317.932.211.224.493.336.845.336zm5.661.731c-.423 0-.788-.081-1.095-.241a1.74 1.74 0 01-.721-.691 2.256 2.256 0 01-.25-1.086v-1.402c0-.423.084-.785.25-1.086.173-.301.413-.532.721-.692.307-.16.672-.24 1.095-.24.423 0 .788.08 1.095.24.307.16.544.391.711.692.173.301.259.66.259 1.076v1.412c0 .416-.086.778-.259 1.086a1.686 1.686 0 01-.711.691c-.307.16-.672.241-1.095.241zm0-.769c.378 0 .672-.106.884-.317.211-.211.317-.522.317-.932v-1.402c0-.41-.106-.721-.317-.932-.212-.212-.506-.317-.884-.317-.372 0-.666.105-.884.317-.211.211-.317.522-.317.932v1.402c0 .41.106.721.317.932.218.211.512.317.884.317zm3.442.692l-.02-5.284h.807v4.63h1.124v-4.63h.692v4.63h1.114v-4.63h.798v5.284h-4.515zm7.937.096c-.416 0-.781-.083-1.095-.25a1.806 1.806 0 01-.72-.701 2.201 2.201 0 01-.25-1.067v-1.441c0-.41.083-.765.25-1.066.172-.301.413-.535.72-.701.314-.167.679-.25 1.095-.25.416 0 .778.083 1.086.25.314.166.554.4.72.701.173.301.26.656.26 1.066v.932h-3.286v.509c0 .417.106.737.317.961.212.218.513.327.903.327.333 0 .602-.058.807-.173a.765.765 0 00.375-.538h.864a1.466 1.466 0 01-.653 1.056c-.371.257-.836.385-1.393.385zm1.22-3.103v-.356c0-.416-.105-.736-.317-.96-.205-.224-.506-.337-.903-.337-.39 0-.691.113-.903.337-.211.224-.317.544-.317.96v.279h2.507l-.067.077zm2.491 3.007v-5.284h.864v2.2h2.229v-2.2h.865v5.284h-.865v-2.296h-2.229v2.296h-.864zm5.69 0v-5.284h.864v2.2h2.229v-2.2h.864v5.284h-.864v-2.296h-2.229v2.296h-.864zm5.411 0v-5.284h.807v1.941h.432c.57 0 1.018.15 1.345.451.333.295.499.701.499 1.22s-.166.929-.499 1.23c-.327.294-.775.442-1.345.442h-1.239zm.807-.692h.432c.339 0 .602-.086.788-.259.192-.173.288-.413.288-.721 0-.307-.096-.547-.288-.72-.186-.173-.449-.26-.788-.26h-.432v1.96zm2.901.692v-5.284h.807v5.284h-.807zm1.837 0l1.873-2.719-1.758-2.565h1.019l1.047 1.633c.045.071.086.147.125.231.045.083.08.15.105.201a3.33 3.33 0 01.087-.201c.045-.084.09-.16.134-.231l1.057-1.633h1.009l-1.758 2.575 1.863 2.709h-1.018l-1.133-1.73c-.045-.07-.09-.15-.135-.24a1.943 1.943 0 00-.106-.23 3.723 3.723 0 01-.259.47l-1.143 1.73h-1.009zm-124.72 19v-5.284h.864v2.181h.903l1.537-2.181h.99l-1.778 2.517 1.806 2.767h-1.008l-1.538-2.354h-.912v2.354h-.865zm7.64.077c-.424 0-.789-.081-1.096-.241a1.741 1.741 0 01-.72-.691c-.167-.308-.25-.67-.25-1.086v-1.402c0-.423.083-.785.25-1.086.172-.301.412-.532.72-.692.307-.16.672-.24 1.095-.24.423 0 .788.08 1.095.24.308.16.545.391.711.692.173.301.26.66.26 1.076v1.412c0 .416-.087.778-.26 1.086a1.681 1.681 0 01-.71.691c-.308.16-.673.241-1.096.241zm0-.769c.377 0 .671-.106.883-.317.211-.211.317-.522.317-.932v-1.402c0-.41-.106-.721-.317-.932-.212-.212-.506-.317-.884-.317-.371 0-.666.105-.884.317-.211.211-.317.522-.317.932v1.402c0 .41.106.721.317.932.218.211.513.317.884.317zm3.69 2.421v-7.013h.865v1.009h.173l-.173.201c0-.403.131-.72.394-.951.269-.237.621-.355 1.057-.355.531 0 .954.176 1.268.528.32.346.48.823.48 1.432v1.546c0 .404-.073.753-.22 1.048a1.585 1.585 0 01-.606.682c-.256.16-.564.24-.922.24-.43 0-.778-.119-1.047-.356-.27-.237-.404-.554-.404-.951l.173.202h-.192l.02 1.201v1.537h-.865zm2.028-2.383c.365 0 .65-.108.855-.326.21-.218.317-.532.317-.942v-1.441c0-.41-.106-.723-.318-.941-.204-.218-.49-.327-.855-.327-.352 0-.633.112-.845.336-.211.225-.317.535-.317.932v1.441c0 .397.106.708.317.932.212.224.493.336.846.336zm5.41.721c-.557 0-1.014-.119-1.373-.356a1.41 1.41 0 01-.634-.96h.912c.045.16.164.291.356.394.198.102.445.153.74.153h.451c.314 0 .557-.073.73-.221a.709.709 0 00.27-.576c0-.256-.087-.458-.26-.605-.167-.147-.413-.221-.74-.221h-1.162v-.749h1.133c.295 0 .52-.071.673-.212a.719.719 0 00.23-.557.725.725 0 00-.105-.403.608.608 0 00-.298-.25 1.235 1.235 0 00-.49-.087h-.48a1.23 1.23 0 00-.663.173c-.186.115-.298.256-.337.423h-.912c.064-.397.272-.724.624-.98s.782-.384 1.288-.384h.48c.378 0 .701.061.97.182.27.116.474.282.615.5.147.218.221.477.221.778 0 .314-.102.573-.307.778-.205.199-.494.311-.865.336v.039c.455.032.785.153.99.365.204.211.307.515.307.912 0 .468-.173.839-.519 1.115-.346.275-.81.413-1.393.413h-.451zm3.961-.067v-5.284h.826v2.882c0 .186-.006.381-.019.586a8.2 8.2 0 01-.038.586 6.053 6.053 0 01-.048.461l2.132-4.515h1.105v5.284h-.826v-2.882c0-.186.003-.381.01-.586.012-.205.028-.401.047-.586l.049-.471-2.133 4.525h-1.105zm5.69 0v-5.284h.864v2.2h2.23v-2.2h.864v5.284h-.865v-2.296H52.28v2.296h-.864zm7.207.096c-.557 0-.996-.141-1.316-.423-.32-.288-.48-.676-.48-1.162 0-.493.16-.881.48-1.163.32-.282.753-.422 1.297-.422h1.633v-.529c0-.326-.1-.576-.298-.749-.192-.179-.467-.269-.826-.269-.314 0-.576.067-.788.202a.717.717 0 00-.365.528h-.864c.057-.455.272-.817.643-1.086.372-.269.836-.403 1.393-.403.609 0 1.09.157 1.441.471.353.313.529.739.529 1.277v3.632h-.846v-1.009h-.144l.144-.144c0 .384-.15.688-.451.913-.295.224-.689.336-1.182.336zm.212-.682c.41 0 .746-.103 1.008-.308a.955.955 0 00.394-.787v-.75h-1.614c-.288 0-.515.08-.682.24-.166.16-.25.378-.25.654 0 .294.1.528.298.701.205.166.487.25.846.25zm3.537.586l1.874-2.719-1.758-2.565h1.018l1.047 1.633c.045.071.087.147.125.231.045.083.08.15.106.201.019-.051.048-.118.086-.201.045-.084.09-.16.135-.231l1.056-1.633h1.009l-1.758 2.575 1.864 2.709h-1.019l-1.133-1.73c-.045-.07-.09-.15-.135-.24a2.033 2.033 0 00-.105-.23 3.942 3.942 0 01-.26.47l-1.143 1.73h-1.009zm11.802 0v-5.284H75v2.882c0 .186-.006.381-.019.586a8.2 8.2 0 01-.038.586 6.157 6.157 0 01-.048.461l2.133-4.515h1.104v5.284h-.826v-2.882c0-.186.003-.381.01-.586.013-.205.028-.401.048-.586l.048-.471-2.133 4.525h-1.105zm11.38 0v-5.284h3.958v5.284h-.865v-4.496h-2.229v4.496h-.864zm7.668.077c-.422 0-.787-.081-1.095-.241a1.741 1.741 0 01-.72-.691c-.167-.308-.25-.67-.25-1.086v-1.402c0-.423.083-.785.25-1.086a1.74 1.74 0 01.72-.692c.308-.16.673-.24 1.095-.24.423 0 .788.08 1.095.24.308.16.545.391.711.692.173.301.26.66.26 1.076v1.412c0 .416-.087.778-.26 1.086a1.681 1.681 0 01-.71.691c-.308.16-.673.241-1.096.241zm0-.769c.378 0 .673-.106.884-.317.211-.211.317-.522.317-.932v-1.402c0-.41-.106-.721-.317-.932-.211-.212-.506-.317-.884-.317-.371 0-.666.105-.884.317-.21.211-.317.522-.317.932v1.402c0 .41.106.721.317.932.218.211.513.317.884.317zm5.44.759c-.557 0-1.015-.119-1.374-.356a1.41 1.41 0 01-.634-.96h.913c.045.16.163.291.355.394.199.102.446.153.74.153h.452c.313 0 .557-.073.73-.221a.71.71 0 00.269-.576c0-.256-.087-.458-.26-.605-.166-.147-.413-.221-.74-.221h-1.162v-.749h1.134c.294 0 .519-.071.672-.212a.72.72 0 00.23-.557.724.724 0 00-.105-.403.607.607 0 00-.298-.25 1.235 1.235 0 00-.49-.087h-.48c-.256 0-.477.058-.663.173-.185.115-.298.256-.336.423h-.913c.064-.397.273-.724.625-.98s.781-.384 1.287-.384h.48c.378 0 .702.061.971.182.269.116.474.282.615.5.147.218.221.477.221.778 0 .314-.103.573-.308.778-.205.199-.493.311-.865.336v.039c.455.032.785.153.99.365.205.211.307.515.307.912 0 .468-.173.839-.518 1.115-.346.275-.81.413-1.393.413h-.452zm3.346 1.278v-2.085h.432c.109-.109.221-.323.336-.644.122-.32.186-.727.192-1.22l.058-2.68h3.449v4.544h.672v2.085h-.768v-1.345h-3.603v1.345h-.768zm1.345-2.085h2.257v-3.775h-1.767l-.039 1.93c-.006.506-.061.916-.163 1.23-.103.314-.199.519-.288.615zm4.94 2.469v-7.013h.865v1.009h.173l-.173.201c0-.403.131-.72.394-.951.269-.237.621-.355 1.056-.355.532 0 .955.176 1.268.528.321.346.481.823.481 1.432v1.546c0 .404-.074.753-.221 1.048a1.583 1.583 0 01-.605.682c-.257.16-.564.24-.923.24-.429 0-.778-.119-1.047-.356-.269-.237-.403-.554-.403-.951l.173.202h-.193l.02 1.201v1.537h-.865zm2.027-2.383c.365 0 .65-.108.855-.326.211-.218.317-.532.317-.942v-1.441c0-.41-.106-.723-.317-.941-.205-.218-.49-.327-.855-.327-.352 0-.634.112-.845.336-.212.225-.317.535-.317.932v1.441c0 .397.105.708.317.932.211.224.493.336.845.336zm5.2.75c-.557 0-.996-.141-1.316-.423-.321-.288-.481-.676-.481-1.162 0-.493.16-.881.481-1.163.32-.282.752-.422 1.297-.422h1.633v-.529c0-.326-.1-.576-.298-.749-.192-.179-.468-.269-.826-.269-.314 0-.577.067-.788.202a.718.718 0 00-.365.528h-.865c.058-.455.272-.817.644-1.086.371-.269.836-.403 1.393-.403.608 0 1.089.157 1.441.471.352.313.528.739.528 1.277v3.632h-.845v-1.009h-.144l.144-.144c0 .384-.151.688-.452.913-.294.224-.688.336-1.181.336zm.211-.682c.41 0 .746-.103 1.009-.308a.957.957 0 00.394-.787v-.75h-1.614c-.288 0-.516.08-.682.24-.167.16-.25.378-.25.654 0 .294.099.528.298.701.205.166.486.25.845.25zm3.961.586v-5.284h2.286c.551 0 .977.125 1.278.375.301.243.451.586.451 1.028 0 .365-.125.659-.374.883-.25.218-.58.327-.99.327v-.077c.448 0 .807.112 1.076.336.275.225.413.526.413.903 0 .474-.16.846-.48 1.115-.321.262-.769.394-1.345.394h-2.315zm.845-.759h1.47c.307 0 .544-.067.711-.202.173-.134.259-.323.259-.567 0-.25-.086-.442-.259-.576-.167-.135-.404-.202-.711-.202h-1.47v1.547zm0-2.296h1.441c.269 0 .48-.064.634-.192.16-.128.24-.308.24-.538 0-.231-.077-.41-.23-.538-.154-.135-.369-.202-.644-.202h-1.441v1.47zm4.181 3.122v-.807h.173c.295 0 .5-.115.615-.346.122-.23.186-.644.192-1.239l.058-2.959h3.583v5.284h-.864v-4.496h-1.864l-.048 2.209c-.013.557-.077 1.009-.192 1.355-.109.346-.282.599-.519.759-.231.16-.535.24-.913.24h-.221zm8.332.029c-.416 0-.782-.083-1.095-.25a1.808 1.808 0 01-.721-.701 2.213 2.213 0 01-.25-1.067v-1.441c0-.41.084-.765.25-1.066.173-.301.413-.535.721-.701.313-.167.679-.25 1.095-.25.416 0 .778.083 1.085.25.314.166.554.4.721.701.173.301.259.656.259 1.066v.932h-3.285v.509c0 .417.105.737.317.961.211.218.512.327.903.327.333 0 .602-.058.807-.173a.76.76 0 00.374-.538h.865a1.47 1.47 0 01-.653 1.056c-.372.257-.836.385-1.393.385zm1.22-3.103v-.356c0-.416-.106-.736-.317-.96-.205-.224-.506-.337-.903-.337-.391 0-.692.113-.903.337-.212.224-.317.544-.317.96v.279h2.507l-.067.077zm2.491 3.007v-5.284h.864v2.2h2.229v-2.2h.864v5.284h-.864v-2.296h-2.229v2.296h-.864zm5.689 0v-5.284h.826v2.882c0 .186-.006.381-.019.586-.006.205-.019.4-.038.586a6.326 6.326 0 01-.048.461l2.132-4.515h1.105v5.284h-.826v-2.882c0-.186.003-.381.01-.586.012-.205.028-.401.048-.586l.048-.471-2.133 4.525h-1.105zm5.363 0l1.355-2.037c-.404-.096-.718-.282-.942-.557-.217-.276-.326-.618-.326-1.028 0-.519.169-.926.509-1.22.346-.295.816-.442 1.412-.442h2.277v5.284h-.865v-1.97h-1.162l-1.249 1.97h-1.009zm2.008-2.738h1.412v-1.777h-1.412c-.32 0-.573.08-.759.24-.186.153-.279.371-.279.653 0 .275.093.493.279.653.186.154.439.231.759.231zm11.696 2.834c-.422 0-.794-.08-1.114-.24a1.735 1.735 0 01-.73-.692c-.173-.308-.26-.669-.26-1.086v-1.441c0-.422.087-.784.26-1.085a1.73 1.73 0 01.73-.692c.32-.16.692-.24 1.114-.24.609 0 1.099.163 1.47.49.372.326.567.772.586 1.335h-.864c-.02-.339-.135-.599-.346-.778-.205-.186-.487-.279-.846-.279-.378 0-.679.109-.903.327-.224.211-.336.516-.336.913v1.45c0 .397.112.705.336.923.224.217.525.326.903.326.359 0 .641-.093.846-.278.211-.186.326-.445.346-.779h.864c-.019.564-.214 1.009-.586 1.336-.371.326-.861.49-1.47.49zm-138.55 18.904v-5.284h3.958v5.284h-.864v-4.496h-2.229v4.496h-.865zm5.67 1.729v-7.013h.866v1.009h.172l-.172.201c0-.403.13-.72.393-.951.27-.237.622-.355 1.057-.355.532 0 .954.176 1.268.528.32.346.48.823.48 1.432v1.546c0 .404-.073.753-.22 1.048a1.58 1.58 0 01-.606.682c-.256.16-.563.24-.922.24-.429 0-.778-.119-1.047-.356-.269-.237-.403-.554-.403-.951l.172.202h-.192l.02 1.201v1.537h-.865zm2.028-2.383c.365 0 .65-.108.855-.326.211-.218.317-.532.317-.942v-1.441c0-.41-.106-.723-.317-.941-.205-.218-.49-.327-.855-.327-.352 0-.634.112-.845.336-.212.225-.317.535-.317.932v1.441c0 .397.105.708.317.932.21.224.493.336.845.336zm5.2.75c-.558 0-.996-.141-1.317-.423-.32-.288-.48-.676-.48-1.162 0-.493.16-.881.48-1.163.32-.282.753-.422 1.297-.422h1.633v-.529c0-.326-.099-.576-.297-.749-.192-.179-.468-.269-.826-.269-.314 0-.577.067-.788.202a.717.717 0 00-.365.528h-.865c.058-.455.272-.817.644-1.086.371-.269.836-.403 1.393-.403.608 0 1.088.157 1.44.471.353.313.53.739.53 1.277v3.632h-.846v-1.009h-.144l.144-.144c0 .384-.15.688-.452.913-.294.224-.688.336-1.181.336zm.21-.682c.41 0 .747-.103 1.01-.308a.955.955 0 00.393-.787v-.75h-1.613c-.289 0-.516.08-.683.24-.166.16-.25.378-.25.654 0 .294.1.528.298.701.206.166.487.25.846.25zm5.69.653c-.557 0-1.014-.119-1.373-.356a1.41 1.41 0 01-.634-.96h.912c.045.16.164.291.356.394.198.102.445.153.74.153h.451c.314 0 .557-.073.73-.221a.709.709 0 00.27-.576c0-.256-.087-.458-.26-.605-.167-.147-.413-.221-.74-.221h-1.162v-.749h1.133c.295 0 .52-.071.673-.212a.719.719 0 00.23-.557.725.725 0 00-.105-.403.608.608 0 00-.298-.25 1.235 1.235 0 00-.49-.087h-.48a1.23 1.23 0 00-.663.173c-.186.115-.298.256-.337.423h-.912c.064-.397.272-.724.624-.98s.782-.384 1.288-.384h.48c.378 0 .701.061.97.182.27.116.474.282.615.5.147.218.221.477.221.778 0 .314-.102.573-.307.778-.205.199-.494.311-.865.336v.039c.455.032.785.153.99.365.204.211.307.515.307.912 0 .468-.173.839-.519 1.115-.346.275-.81.413-1.393.413h-.451zm3.346 1.278v-2.085h.433c.108-.109.22-.323.336-.644.121-.32.185-.727.192-1.22l.057-2.68h3.45v4.544h.672v2.085h-.769v-1.345H45.88v1.345h-.769zm1.345-2.085h2.258v-3.775h-1.768l-.038 1.93c-.007.506-.061.916-.164 1.23-.102.314-.198.519-.288.615zm4.96.74v-5.284h.864v2.2h2.23v-2.2h.864v5.284h-.865v-2.296H52.28v2.296h-.864zm5.69 0v-5.284h.825v2.882c0 .186-.006.381-.019.586a8.2 8.2 0 01-.038.586 6.11 6.11 0 01-.048.461l2.133-4.515h1.104v5.284h-.826v-2.882c0-.186.003-.381.01-.586.013-.205.029-.401.048-.586l.048-.471-2.133 4.525h-1.105zm5.718 0v-5.284h.864v2.181h.903l1.538-2.181h.989l-1.777 2.517 1.806 2.767h-1.009l-1.537-2.354h-.913v2.354h-.864zm7.178.096c-.557 0-.995-.141-1.316-.423-.32-.288-.48-.676-.48-1.162 0-.493.16-.881.48-1.163.32-.282.753-.422 1.297-.422h1.633v-.529c0-.326-.099-.576-.297-.749-.193-.179-.468-.269-.826-.269-.314 0-.577.067-.788.202a.717.717 0 00-.365.528h-.865c.058-.455.272-.817.644-1.086.371-.269.835-.403 1.393-.403.608 0 1.088.157 1.44.471.353.313.53.739.53 1.277v3.632h-.846v-1.009h-.144l.144-.144c0 .384-.15.688-.452.913-.294.224-.688.336-1.181.336zm.212-.682c.41 0 .746-.103 1.009-.308a.955.955 0 00.394-.787v-.75h-1.615c-.288 0-.515.08-.682.24-.166.16-.25.378-.25.654 0 .294.1.528.299.701.204.166.486.25.845.25zm3.787.586v-5.284h1.172l.692 2.027c.07.205.135.41.192.615.058.198.1.352.125.461.026-.109.064-.263.115-.461.058-.205.119-.413.183-.625l.653-2.017h1.172v5.284h-.836v-.817c0-.288.004-.602.01-.941l.02-1.028c.012-.346.025-.673.038-.98.012-.314.022-.589.028-.826l-.941 3.007h-.913l-.95-2.988c.012.288.022.647.028 1.076.013.429.023.877.029 1.345.013.467.02.912.02 1.335v.817H74zm5.863 0v-5.284h.826v2.882c0 .186-.006.381-.02.586a8.2 8.2 0 01-.038.586 6.11 6.11 0 01-.047.461l2.132-4.515h1.105v5.284h-.826v-2.882c0-.186.003-.381.01-.586.012-.205.028-.401.047-.586l.048-.471-2.132 4.525h-1.105zm7.669.096c-.244 0-.44-.071-.586-.212-.141-.14-.212-.329-.212-.566 0-.25.07-.449.212-.596.147-.147.342-.221.586-.221.243 0 .435.074.576.221.147.147.221.346.221.596 0 .237-.074.426-.221.566-.14.141-.333.212-.576.212z" fill="#fff"/><path d="M14.346 16.528V9.515h2.152c.679 0 1.217.164 1.614.49.397.32.596.76.596 1.316 0 .314-.07.587-.212.817-.14.23-.333.41-.576.538a1.711 1.711 0 01-.826.192v-.038c.34-.007.64.057.903.192.269.128.48.32.634.576.16.256.24.567.24.932 0 .404-.093.756-.279 1.057a1.868 1.868 0 01-.787.701c-.333.16-.734.24-1.201.24h-2.258zm1.172-.999h1.009c.352 0 .627-.093.826-.278.205-.192.307-.452.307-.778 0-.327-.102-.59-.307-.788-.199-.205-.474-.308-.826-.308h-1.009v2.152zm0-3.122h.96c.321 0 .57-.083.75-.25.186-.173.279-.406.279-.701 0-.295-.093-.525-.279-.692-.18-.166-.429-.25-.75-.25h-.96v1.893zm4.527 4.121v-5.283h1.201v2.046h1.864v-2.046h1.2v5.283h-1.2v-2.123h-1.864v2.123h-1.2zm7.832.096c-.448 0-.839-.086-1.172-.259a1.923 1.923 0 01-.778-.72 2.17 2.17 0 01-.269-1.096v-1.325c0-.417.09-.779.27-1.086.185-.314.444-.557.777-.73.333-.173.724-.26 1.172-.26.442 0 .827.087 1.153.26.333.173.59.416.769.73.186.307.278.67.278 1.086v.95h-3.256v.375c0 .372.09.654.269.846.179.186.445.278.797.278.269 0 .487-.044.653-.134a.641.641 0 00.317-.413h1.182c-.09.455-.333.82-.73 1.095-.39.269-.868.403-1.432.403zm1.038-3.122v-.288c0-.365-.087-.644-.26-.836-.172-.198-.432-.298-.778-.298-.345 0-.608.1-.787.298-.18.199-.27.48-.27.846v.201l2.181-.019-.086.096zm2 4.371V15.51h.356c.109-.109.221-.307.336-.596.122-.294.186-.66.192-1.095l.058-2.574h3.699v4.265h.624v2.363h-1.105v-1.345H32.02v1.345h-1.104zm1.576-2.363h1.921v-3.218h-1.44l-.039 1.527c-.006.43-.06.791-.163 1.086-.096.288-.19.49-.279.605zm4.614 2.748v-7.013h1.172v1.008h.269l-.27.279c0-.43.129-.765.385-1.009.256-.25.602-.374 1.038-.374.531 0 .957.182 1.277.547.32.365.48.855.48 1.47v1.431c0 .41-.073.769-.22 1.076a1.631 1.631 0 01-.605.702 1.71 1.71 0 01-.932.25c-.436 0-.782-.122-1.038-.366-.256-.25-.384-.589-.384-1.018l.269.279h-.279l.039 1.258v1.48h-1.201zm2.17-2.671c.308 0 .549-.09.721-.27.173-.178.26-.435.26-.768v-1.325c0-.333-.087-.59-.26-.769-.172-.18-.413-.269-.72-.269-.301 0-.538.093-.711.279-.173.179-.26.432-.26.759v1.325c0 .327.087.583.26.769.173.18.41.269.71.269zm5.671 1.037c-.448 0-.839-.086-1.172-.259a1.923 1.923 0 01-.778-.72 2.17 2.17 0 01-.269-1.096v-1.325c0-.417.09-.779.27-1.086.185-.314.444-.557.777-.73.333-.173.724-.26 1.172-.26.442 0 .827.087 1.153.26.333.173.59.416.769.73.185.307.278.67.278 1.086v.95H43.89v.375c0 .372.09.654.269.846.179.186.445.278.797.278.269 0 .487-.044.653-.134a.641.641 0 00.317-.413h1.182c-.09.455-.333.82-.73 1.095-.39.269-.868.403-1.432.403zm1.038-3.122v-.288c0-.365-.087-.644-.26-.836-.172-.198-.432-.298-.778-.298-.346 0-.608.1-.787.298-.18.199-.27.48-.27.846v.201l2.181-.019-.086.096zm2.51 3.026v-5.283h1.2v2.046h1.864v-2.046h1.201v5.283h-1.2v-2.123h-1.864v2.123h-1.201zm5.69 0v-5.283h1.085v2.603c0 .167-.01.365-.029.596a11.09 11.09 0 01-.058.662c-.025.218-.05.407-.076.567l1.863-4.428h1.48v5.283h-1.086v-2.603c0-.173.007-.365.02-.577l.057-.624a9.78 9.78 0 01.077-.519l-1.854 4.323h-1.48zm7.831.096c-.448 0-.839-.086-1.172-.259a1.924 1.924 0 01-.778-.72 2.17 2.17 0 01-.269-1.096v-1.325c0-.417.09-.779.27-1.086.185-.314.444-.557.777-.73.333-.173.724-.26 1.172-.26.442 0 .827.087 1.153.26.333.173.59.416.769.73.185.307.278.67.278 1.086v.95H60.96v.375c0 .372.09.654.269.846.179.186.445.278.797.278.269 0 .487-.044.653-.134a.641.641 0 00.317-.413h1.182c-.09.455-.333.82-.73 1.095-.391.269-.868.403-1.432.403zm1.038-3.122v-.288c0-.365-.087-.644-.26-.836-.172-.198-.432-.298-.778-.298-.346 0-.608.1-.787.298-.18.199-.27.48-.27.846v.201l2.181-.019-.086.096zm10.332 3.113c-.448 0-.839-.083-1.172-.25a1.938 1.938 0 01-.768-.72c-.18-.314-.27-.683-.27-1.105v-1.307c0-.423.09-.788.27-1.095a1.84 1.84 0 01.768-.72c.333-.173.724-.26 1.172-.26.455 0 .845.087 1.172.26.327.166.58.406.759.72.186.307.279.67.279 1.086v1.316c0 .422-.093.79-.279 1.105-.18.307-.432.547-.759.72-.327.167-.717.25-1.172.25zm0-1.047c.32 0 .567-.087.74-.26.18-.18.269-.435.269-.768v-1.307c0-.34-.09-.595-.27-.768-.172-.173-.419-.26-.739-.26-.314 0-.56.087-.74.26-.179.173-.269.429-.269.768v1.307c0 .333.09.589.27.768.179.173.425.26.739.26zm3.557.96v-5.283h4.265v5.283h-1.2V12.36h-1.864v4.17h-1.201zm7.822.087c-.448 0-.839-.083-1.172-.25a1.938 1.938 0 01-.768-.72c-.18-.314-.27-.683-.27-1.105v-1.307c0-.423.09-.788.27-1.095.186-.314.442-.554.768-.72.333-.173.724-.26 1.172-.26.455 0 .846.087 1.172.26.327.166.58.406.76.72.185.307.278.67.278 1.086v1.316c0 .422-.093.79-.279 1.105a1.87 1.87 0 01-.759.72c-.326.167-.717.25-1.172.25zm0-1.047c.32 0 .567-.087.74-.26.18-.18.269-.435.269-.768v-1.307c0-.34-.09-.595-.269-.768-.173-.173-.42-.26-.74-.26-.313 0-.56.087-.74.26-.179.173-.268.429-.268.768v1.307c0 .333.09.589.269.768.179.173.425.26.74.26zm3.548.96v-5.283h2.344c.608 0 1.085.128 1.431.384.352.25.528.596.528 1.037 0 .36-.137.647-.413.865-.269.218-.627.327-1.076.327v-.087c.487 0 .878.115 1.172.346.295.224.442.525.442.903 0 .468-.179.836-.538 1.105-.352.269-.839.403-1.46.403h-2.43zm1.181-.912h1.21c.27 0 .481-.061.635-.183a.593.593 0 00.23-.49.613.613 0 00-.23-.509c-.154-.122-.365-.182-.634-.182h-1.21v1.364zm0-2.171h1.172c.237 0 .426-.058.567-.173a.576.576 0 00.212-.471.576.576 0 00-.212-.47c-.134-.122-.323-.183-.567-.183h-1.172v1.297zm6.66 3.18c-.448 0-.839-.087-1.172-.26a1.923 1.923 0 01-.778-.72 2.168 2.168 0 01-.269-1.096v-1.325c0-.417.09-.779.27-1.086.185-.314.444-.557.777-.73.333-.173.724-.26 1.172-.26.442 0 .826.087 1.153.26.333.173.59.416.769.73.185.307.278.67.278 1.086v.95h-3.256v.375c0 .372.09.654.269.846.179.186.445.278.797.278.269 0 .487-.044.653-.134a.641.641 0 00.317-.413h1.182c-.09.455-.333.82-.73 1.095-.391.269-.868.403-1.432.403zm1.038-3.123v-.288c0-.365-.087-.644-.26-.836-.172-.198-.432-.298-.778-.298-.346 0-.608.1-.788.298-.179.199-.268.48-.268.846v.201l2.18-.019-.086.096zm6.304 4.371v-1.345h-4.073v-5.283h.961v4.419h.903v-4.42h.835v4.42h.913v-4.42h.951v4.42h.557v2.21h-1.047zm4.038-1.249c-.449 0-.839-.086-1.172-.259a1.92 1.92 0 01-.779-.72 2.172 2.172 0 01-.269-1.096v-1.325c0-.417.09-.779.269-1.086a1.9 1.9 0 01.779-.73c.333-.173.723-.26 1.172-.26.441 0 .826.087 1.152.26.333.173.59.416.769.73.186.307.278.67.278 1.086v.95h-3.256v.375c0 .372.089.654.269.846.179.186.445.278.797.278.269 0 .487-.044.653-.134a.637.637 0 00.317-.413h1.182c-.09.455-.333.82-.73 1.095-.391.269-.868.403-1.431.403zm1.037-3.122v-.288c0-.365-.086-.644-.259-.836-.173-.198-.433-.298-.778-.298-.346 0-.609.1-.788.298-.18.199-.269.48-.269.846v.201l2.181-.019-.087.096zm2.51 3.026v-5.283h1.201v2.046h1.863v-2.046h1.201v5.283h-1.201v-2.123h-1.863v2.123h-1.201zm5.69 0v-5.283h1.085v2.603c0 .167-.009.365-.029.596a11.8 11.8 0 01-.134 1.23l1.864-4.43h1.479v5.284h-1.086v-2.603c0-.173.007-.365.02-.577l.057-.624c.026-.205.051-.378.077-.519l-1.854 4.323h-1.479zm5.689 0v-5.283h1.086v2.603c0 .167-.01.365-.029.596a12.385 12.385 0 01-.135 1.23l1.864-4.43h1.48v5.284h-1.086v-2.603c0-.173.006-.365.019-.577l.058-.624c.026-.205.051-.378.077-.519l-1.854 4.323h-1.48zm2.171-6.12c-.499 0-.906-.13-1.22-.393a1.288 1.288 0 01-.461-1.028h.932c0 .211.067.381.202.51a.782.782 0 00.547.191c.224 0 .404-.064.538-.192a.655.655 0 00.212-.509h.932c0 .423-.154.765-.462 1.028-.307.262-.714.394-1.22.394zM14.356 35.529v-5.283h1.085v2.603c0 .167-.01.365-.029.596a11.09 11.09 0 01-.057.662c-.026.218-.051.407-.077.567l1.864-4.428h1.48v5.283h-1.086v-2.603c0-.173.006-.365.019-.576l.058-.625c.025-.205.05-.378.076-.519l-1.854 4.323h-1.48zm12.907 0V31.35h-1.807v-1.104h4.823v1.104h-1.806v4.18h-1.21zm4.152 1.73v-7.013h1.172v1.008h.27l-.27.279c0-.43.128-.765.384-1.009.257-.25.602-.375 1.038-.375.532 0 .957.183 1.278.548.32.365.48.855.48 1.47v1.431c0 .41-.074.769-.221 1.076-.14.301-.343.535-.605.702-.263.166-.573.25-.932.25-.436 0-.781-.122-1.038-.366-.256-.25-.384-.589-.384-1.018l.27.279h-.28l.039 1.258v1.48h-1.2zm2.171-2.671c.308 0 .548-.09.72-.27.174-.178.26-.435.26-.768v-1.325c0-.333-.086-.59-.26-.769-.172-.18-.412-.269-.72-.269-.3 0-.538.093-.71.279-.174.179-.26.432-.26.759v1.325c0 .327.086.583.26.769.172.18.41.269.71.269zm3.528.941v-5.283H38.2v2.603c0 .167-.01.365-.029.596a13.805 13.805 0 01-.135 1.23l1.864-4.43h1.48v5.284h-1.086v-2.603c0-.173.007-.365.02-.576l.057-.625c.026-.205.051-.378.077-.519l-1.854 4.323h-1.48zm6.103 0v-5.283h3.939v1.114h-2.738v4.17h-1.2zm5.69 0v-5.283h3.939v1.114h-2.738v4.17h-1.201zm7.419.096c-.449 0-.84-.086-1.172-.259a1.923 1.923 0 01-.779-.72 2.17 2.17 0 01-.269-1.096v-1.325c0-.417.09-.778.27-1.086.185-.314.445-.557.778-.73.333-.173.723-.26 1.172-.26.442 0 .826.087 1.152.26.334.173.59.416.769.73.186.307.279.67.279 1.086v.95h-3.257v.375c0 .372.09.654.269.846.18.185.445.278.797.278.27 0 .487-.044.654-.134a.641.641 0 00.317-.413h1.181c-.09.455-.333.82-.73 1.095-.39.269-.868.403-1.431.403zm1.037-3.122v-.288c0-.365-.086-.644-.26-.836-.172-.198-.431-.298-.777-.298-.346 0-.609.1-.788.298-.18.199-.27.48-.27.846v.201l2.182-.019-.087.096zm2.5 4.755v-7.012h1.172v1.008h.27l-.27.279c0-.43.129-.765.385-1.009.256-.25.602-.375 1.037-.375.532 0 .958.183 1.278.548.32.365.48.855.48 1.47v1.431c0 .41-.073.769-.22 1.076a1.633 1.633 0 01-.606.702c-.263.166-.573.25-.932.25-.435 0-.781-.122-1.037-.366-.257-.25-.385-.589-.385-1.018l.27.279h-.28l.04 1.258v1.48h-1.202zm2.172-2.67c.307 0 .547-.09.72-.27.173-.178.26-.435.26-.768v-1.325c0-.333-.087-.59-.26-.769-.173-.18-.413-.269-.72-.269-.301 0-.538.093-.711.279-.173.179-.26.432-.26.759v1.325c0 .327.087.583.26.769.172.18.41.269.71.269zm3.528.941v-5.283h1.2v2.046h1.864v-2.046h1.201v5.283h-1.2v-2.123h-1.865v2.123h-1.2zm5.42 0v-5.283h1.038v1.787h.355c.57 0 1.022.16 1.355.48.333.32.5.75.5 1.287 0 .525-.17.945-.51 1.259-.333.313-.781.47-1.345.47h-1.393zm1.038-.931h.355c.276 0 .487-.071.634-.212.154-.14.23-.336.23-.586 0-.263-.076-.467-.23-.615-.147-.147-.358-.22-.634-.22h-.355v1.633zm2.728.931v-5.283h1.038v5.283h-1.038zm1.79 0l1.844-2.728-1.72-2.555h1.355l.817 1.296c.05.077.096.164.134.26l.106.23c.025-.057.06-.134.105-.23s.09-.183.135-.26l.826-1.296h1.355l-1.72 2.555 1.835 2.728h-1.364l-.913-1.45a2.658 2.658 0 01-.144-.27 3.79 3.79 0 00-.115-.23c-.026.058-.061.135-.106.23a2.657 2.657 0 01-.144.27l-.932 1.45h-1.355zm15.433 1.345v-1.345h-3.65v-5.283h1.2v4.178h1.633v-4.178h1.201v4.178h.72v2.45h-1.104zm4.181-1.249c-.448 0-.839-.086-1.172-.259a1.923 1.923 0 01-.778-.72 2.168 2.168 0 01-.269-1.096v-1.325c0-.417.09-.778.27-1.086.185-.314.444-.557.777-.73.333-.173.724-.26 1.172-.26.442 0 .826.087 1.153.26.333.173.59.416.769.73.185.307.278.67.278 1.086v.95h-3.256v.375c0 .372.09.654.269.846.179.185.445.278.797.278.269 0 .487-.044.653-.134a.641.641 0 00.317-.413h1.182c-.09.455-.333.82-.73 1.095-.391.269-.868.403-1.432.403zm1.038-3.122v-.288c0-.365-.087-.644-.26-.836-.172-.198-.432-.298-.778-.298-.346 0-.608.1-.788.298-.179.199-.268.48-.268.846v.201l2.18-.019-.086.096zm2.51 3.026v-5.283h4.265v5.283h-1.201V31.36h-1.864v4.17h-1.2zm7.822.087c-.448 0-.839-.084-1.172-.25a1.939 1.939 0 01-.769-.72c-.179-.314-.269-.683-.269-1.105v-1.307c0-.422.09-.787.269-1.095.186-.314.442-.554.769-.72.333-.173.724-.26 1.172-.26.455 0 .845.087 1.172.26.327.166.58.406.759.72.186.307.278.67.278 1.086v1.316c0 .422-.092.79-.278 1.105a1.868 1.868 0 01-.759.72c-.327.166-.717.25-1.172.25zm0-1.047c.32 0 .567-.087.74-.26.179-.18.269-.435.269-.768v-1.307c0-.34-.09-.595-.269-.768-.173-.173-.42-.26-.74-.26-.314 0-.56.087-.74.26-.179.173-.269.429-.269.768v1.307c0 .333.09.589.269.768.18.173.426.26.74.26zm6.573.96v-1.777a4.49 4.49 0 01-.403.067c-.179.02-.378.03-.596.03-.679 0-1.21-.167-1.594-.5-.385-.34-.577-.81-.577-1.413v-1.69h1.201v1.633c0 .275.096.493.288.653.192.154.455.23.788.23.218 0 .407-.009.567-.028.16-.026.269-.048.326-.067v-2.421h1.211v5.283h-1.211zm4.816.096c-.448 0-.839-.086-1.172-.259a1.918 1.918 0 01-.778-.72 2.162 2.162 0 01-.269-1.096v-1.325c0-.417.089-.778.269-1.086.185-.314.445-.557.778-.73.333-.173.724-.26 1.172-.26.442 0 .826.087 1.153.26.333.173.589.416.768.73.186.307.279.67.279 1.086v.95h-3.257v.375c0 .372.09.654.269.846.179.185.445.278.797.278.269 0 .487-.044.654-.134a.643.643 0 00.317-.413h1.181a1.69 1.69 0 01-.73 1.095c-.39.269-.868.403-1.431.403zm1.037-3.122v-.288c0-.365-.086-.644-.259-.836-.173-.198-.432-.298-.778-.298-.346 0-.609.1-.788.298-.179.199-.269.48-.269.846v.201l2.181-.019-.087.096zm2.539 3.026v-5.283h1.201v2.075h.788l1.287-2.075h1.345l-1.595 2.555 1.624 2.728h-1.374l-1.287-2.19h-.788v2.19h-1.201zm7.794-3.765c-.269 0-.487-.074-.654-.222a.778.778 0 01-.24-.585c0-.244.08-.44.24-.587.167-.147.385-.22.654-.22s.483.073.643.22c.167.148.25.343.25.587a.761.761 0 01-.25.585c-.16.148-.374.221-.643.221zm0 3.861c-.269 0-.487-.073-.654-.22a.758.758 0 01-.24-.587.76.76 0 01.24-.586c.167-.147.385-.22.654-.22s.483.073.643.22c.167.148.25.343.25.586a.743.743 0 01-.25.586c-.16.148-.374.221-.643.221z" fill="#000"/><defs><filter id="filter0_d_2002_15" x=".157" y="0" width="179.685" height="294.685" filterUnits="userSpaceOnUse" color-interpolation-filters="sRGB"><feFlood flood-opacity="0" result="BackgroundImageFix"/><feColorMatrix in="SourceAlpha" values="0 0 0 0 0 0 0 0 0 0 0 0 0 0 0 0 0 0 127 0" result="hardAlpha"/><feOffset dy="3.843"/><feGaussianBlur stdDeviation="1.921"/><feComposite in2="hardAlpha" operator="out"/><feColorMatrix values="0 0 0 0 0 0 0 0 0 0 0 0 0 0 0 0 0 0 0.25 0"/><feBlend in2="BackgroundImageFix" result="effect1_dropShadow_2002_15"/><feBlend in="SourceGraphic" in2="effect1_dropShadow_2002_15" result="shape"/></filter></defs></svg>