<svg width="180" height="262" fill="none" xmlns="http://www.w3.org/2000/svg"><g filter="url(#filter0_d_2002_17)"><rect x="4" width="172" height="254" rx="16.011" fill="#E0F4FF"/></g><mask id="a" style="mask-type:alpha" maskUnits="userSpaceOnUse" x="4" y="0" width="172" height="43"><path fill="#C9D9CD" d="M4 0h172v42.005H4z"/></mask><g mask="url(#a)"><rect x="4" y="-1.68" width="172" height="117.615" rx="16.011" fill="#875C9C"/></g><path d="M16.73 62.58c-.32 0-.582-.1-.787-.299-.199-.205-.298-.467-.298-.788 0-.32.1-.58.298-.778.205-.205.467-.307.788-.307.32 0 .58.102.778.307.205.199.307.458.307.778s-.102.583-.307.788c-.199.199-.458.298-.778.298zM23.39 65v-7.013h2.2c.428 0 .8.083 1.114.25.32.166.566.403.74.71.172.302.259.66.259 1.077 0 .41-.087.768-.26 1.076-.173.3-.42.538-.74.71-.313.167-.685.25-1.114.25h-1.44V65h-.76zm.758-3.631h1.441c.404 0 .724-.122.96-.365.244-.244.366-.57.366-.98 0-.417-.122-.743-.365-.98-.237-.244-.557-.365-.96-.365h-1.442v2.69zm6.468 3.727c-.557 0-.996-.14-1.316-.423-.32-.288-.48-.675-.48-1.162 0-.48.157-.858.47-1.134.314-.281.737-.422 1.268-.422h1.682v-.557c0-.353-.103-.625-.308-.817-.205-.192-.496-.288-.874-.288-.333 0-.612.073-.836.22a.819.819 0 00-.375.596h-.768c.064-.454.275-.816.634-1.085.365-.27.82-.404 1.364-.404.59 0 1.057.16 1.403.48.346.314.519.74.519 1.278V65h-.75v-1.028h-.125l.144-.154c0 .391-.15.702-.451.932-.301.23-.701.346-1.201.346zm.183-.615c.422 0 .768-.105 1.037-.317a.998.998 0 00.404-.826v-.797h-1.672c-.301 0-.541.083-.72.25-.18.166-.27.393-.27.681 0 .308.11.554.327.74.218.18.516.27.894.27zm5.67.596c-.55 0-.996-.119-1.335-.356a1.43 1.43 0 01-.615-.96h.797c.051.185.176.34.375.46.205.116.464.174.778.174h.47c.327 0 .584-.08.77-.24a.792.792 0 00.287-.625.85.85 0 00-.269-.653c-.179-.167-.435-.25-.768-.25h-1.182v-.663h1.163c.3 0 .531-.077.691-.23a.774.774 0 00.25-.596.792.792 0 00-.115-.432.727.727 0 00-.336-.279 1.166 1.166 0 00-.51-.105h-.499c-.288 0-.525.064-.71.192a.76.76 0 00-.347.47h-.797c.064-.397.26-.72.586-.97.333-.25.756-.375 1.268-.375h.5c.358 0 .669.061.931.183a1.4 1.4 0 01.606.51c.147.217.22.473.22.768 0 .32-.099.586-.297.797-.192.205-.465.32-.817.346v.038c.423.026.733.15.932.375.199.218.298.519.298.903 0 .455-.17.823-.51 1.105-.332.275-.78.413-1.344.413h-.471zm3.99 1.652v-7.013h.758v.932h.202l-.23.317c0-.416.134-.743.403-.98.275-.243.637-.365 1.085-.365.532 0 .955.176 1.269.529.32.345.48.82.48 1.421v1.566c0 .404-.074.753-.221 1.047a1.645 1.645 0 01-.615.673c-.256.16-.56.24-.913.24-.441 0-.8-.122-1.075-.365-.276-.243-.414-.57-.414-.98l.202.317h-.182l.01 1.076v1.585h-.76zm1.978-2.296c.385 0 .682-.115.894-.346.217-.23.326-.557.326-.98V61.61c0-.43-.109-.756-.326-.98-.212-.23-.51-.346-.894-.346-.371 0-.669.119-.893.355-.218.231-.327.555-.327.97v1.5c0 .416.11.742.327.98.224.23.522.345.893.345zm5.248.663c-.557 0-.996-.14-1.316-.423-.32-.288-.48-.675-.48-1.162 0-.48.156-.858.47-1.134.314-.281.737-.422 1.268-.422h1.681v-.557c0-.353-.102-.625-.307-.817-.205-.192-.496-.288-.874-.288-.333 0-.612.073-.836.22a.819.819 0 00-.374.596h-.77c.065-.454.276-.816.635-1.085.365-.27.82-.404 1.364-.404.59 0 1.057.16 1.403.48.346.314.519.74.519 1.278V65h-.75v-1.028h-.125l.144-.154c0 .391-.15.702-.451.932-.301.23-.701.346-1.201.346zm.182-.615c.423 0 .77-.105 1.038-.317a1 1 0 00.404-.826v-.797h-1.672c-.301 0-.541.083-.72.25-.18.166-.27.393-.27.681 0 .308.11.554.327.74.218.18.516.27.894.27zm5.92.615c-.614 0-1.098-.183-1.45-.547-.352-.366-.528-.868-.528-1.509v-2.46c0-.832.208-1.472.624-1.92.416-.449 1.012-.673 1.787-.673h1.307v.759H54.22c-.538 0-.948.16-1.23.48-.281.314-.422.766-.422 1.355v.663h.134l-.134.23c.006-.384.134-.685.384-.903.256-.218.605-.326 1.047-.326.564 0 1 .179 1.307.538.307.352.46.845.46 1.48v.777c0 .43-.08.798-.24 1.105a1.64 1.64 0 01-.672.71c-.294.161-.65.241-1.066.241zm0-.682c.391 0 .692-.118.904-.356.211-.236.317-.576.317-1.018v-.778c0-.435-.106-.775-.317-1.018-.212-.244-.513-.365-.903-.365s-.692.121-.903.365c-.212.243-.317.583-.317 1.018v.778c0 .442.105.782.317 1.018.218.237.519.356.903.356zm5.69.672c-.41 0-.765-.08-1.066-.24a1.697 1.697 0 01-.701-.691c-.167-.301-.25-.657-.25-1.067v-1.46c0-.416.083-.772.25-1.066.166-.301.4-.532.701-.692.301-.16.657-.24 1.066-.24.41 0 .766.08 1.067.24.3.16.535.39.701.692.167.294.25.647.25 1.056v1.47c0 .41-.083.766-.25 1.067-.166.3-.4.531-.701.691-.301.16-.657.24-1.067.24zm0-.682c.398 0 .705-.112.923-.336.217-.224.326-.55.326-.98v-1.46c0-.43-.112-.756-.336-.98-.218-.224-.522-.336-.913-.336-.39 0-.698.112-.922.336-.218.224-.327.55-.327.98v1.46c0 .43.11.756.327.98.224.224.532.336.922.336zm5.306.596v-4.602H62.86v-.682h4.612v.682H65.55V65h-.768zm5.66.096c-.557 0-.995-.14-1.316-.423-.32-.288-.48-.675-.48-1.162 0-.48.157-.858.47-1.134.315-.281.737-.422 1.269-.422h1.681v-.557c0-.353-.102-.625-.307-.817-.205-.192-.497-.288-.875-.288-.333 0-.611.073-.835.22a.819.819 0 00-.375.596h-.769c.065-.454.276-.816.635-1.085.365-.27.82-.404 1.364-.404.589 0 1.056.16 1.402.48.346.314.52.74.52 1.278V65h-.75v-1.028h-.125l.144-.154c0 .391-.15.702-.452.932-.3.23-.7.346-1.2.346zm.183-.615c.423 0 .769-.105 1.038-.317a1 1 0 00.403-.826v-.797h-1.671c-.301 0-.542.083-.72.25-.18.166-.27.393-.27.681 0 .308.109.554.327.74.218.18.515.27.893.27zm3.307.586v-.72h.192c.276 0 .478-.112.606-.337.128-.23.195-.611.201-1.143l.068-3.15h3.487V65h-.769v-4.592H75.75l-.058 2.488c-.006.5-.067.91-.182 1.23-.109.32-.276.557-.5.71-.218.154-.502.231-.855.231h-.22zM80.295 65v-5.284h.74v3.007c0 .18-.006.372-.019.577a14.568 14.568 0 01-.067 1.018l2.238-4.602h.99V65h-.74v-3.007c0-.186.003-.378.01-.576.012-.199.025-.388.038-.567.02-.186.032-.34.038-.461L81.275 65h-.98zM23.227 84v-5.284h1.057l.768 2.152c.064.186.125.375.183.567.057.192.1.343.125.451.032-.108.073-.259.125-.451.057-.192.118-.384.182-.576l.74-2.143h1.047V84h-.74v-1.268c0-.275.003-.57.01-.884l.02-.941c.006-.314.015-.609.028-.884.013-.282.022-.529.029-.74l-1.047 3.132h-.807l-1.048-3.113c.013.256.023.58.03.97l.018 1.22c.013.43.02.843.02 1.24V84h-.74zm5.863 0v-5.284h.768v2.248h2.344v-2.248h.769V84H32.2v-2.344h-2.344V84h-.768zm7.63.087c-.41 0-.766-.08-1.067-.24a1.698 1.698 0 01-.7-.692c-.167-.301-.25-.657-.25-1.067v-1.46c0-.416.083-.772.25-1.066.166-.301.4-.532.7-.692.301-.16.657-.24 1.067-.24.41 0 .765.08 1.066.24.301.16.535.39.701.692.167.294.25.647.25 1.056v1.47c0 .41-.083.766-.25 1.067a1.7 1.7 0 01-.7.691c-.302.16-.657.24-1.067.24zm0-.683c.397 0 .704-.112.922-.336.218-.224.327-.55.327-.98v-1.46c0-.43-.112-.756-.337-.98-.217-.224-.522-.336-.912-.336s-.698.112-.922.336c-.218.224-.327.55-.327.98v1.46c0 .43.109.756.327.98.224.224.531.336.922.336zm4.095.596v-5.284h3.746v.692h-2.987V84h-.76zm7.284.087c-.41 0-.765-.08-1.066-.24a1.697 1.697 0 01-.701-.692c-.167-.301-.25-.657-.25-1.067v-1.46c0-.416.083-.772.25-1.066.166-.301.4-.532.7-.692.302-.16.657-.24 1.067-.24.41 0 .765.08 1.066.24.301.16.535.39.702.692.166.294.25.647.25 1.056v1.47c0 .41-.084.766-.25 1.067a1.7 1.7 0 01-.702.691c-.3.16-.656.24-1.066.24zm0-.683c.397 0 .705-.112.922-.336.218-.224.327-.55.327-.98v-1.46c0-.43-.112-.756-.336-.98-.218-.224-.522-.336-.913-.336-.39 0-.698.112-.922.336-.218.224-.327.55-.327.98v1.46c0 .43.11.756.327.98.224.224.531.336.922.336zm4.575 2.325l.779-2.065-1.96-4.948h.845l1.249 3.295c.051.129.1.273.144.433.051.153.09.281.115.384.032-.103.07-.234.116-.394a7.1 7.1 0 01.134-.432l1.172-3.286h.817L53.48 85.73h-.807zm4.854 0v-7.013h.76v.932h.2l-.23.317c0-.416.135-.743.404-.98.275-.243.637-.365 1.085-.365.532 0 .955.176 1.268.529.32.345.48.82.48 1.421v1.566c0 .404-.073.753-.22 1.047a1.645 1.645 0 01-.615.673c-.256.16-.56.24-.913.24-.442 0-.8-.122-1.076-.365-.275-.243-.413-.57-.413-.98l.202.317h-.182l.01 1.076v1.585h-.76zm1.98-2.296c.384 0 .681-.115.893-.346.217-.23.326-.557.326-.98V80.61c0-.43-.109-.756-.326-.98-.212-.23-.51-.346-.894-.346-.371 0-.669.119-.893.355-.218.231-.327.554-.327.97v1.5c0 .416.109.742.327.98.224.23.522.345.893.345zm5.66.653c-.41 0-.765-.08-1.066-.24a1.697 1.697 0 01-.702-.691c-.166-.301-.25-.657-.25-1.067v-1.46c0-.416.084-.772.25-1.066.167-.301.4-.532.702-.692.3-.16.656-.24 1.066-.24.41 0 .765.08 1.066.24.301.16.535.39.702.692.166.294.25.647.25 1.056v1.47c0 .41-.084.766-.25 1.067a1.7 1.7 0 01-.702.691c-.3.16-.656.24-1.066.24zm0-.682c.397 0 .705-.112.922-.336.218-.224.327-.55.327-.98v-1.46c0-.43-.112-.756-.336-.98-.218-.224-.522-.336-.913-.336-.39 0-.698.112-.922.336-.218.224-.327.55-.327.98v1.46c0 .43.11.756.327.98.224.224.531.336.922.336zm3.75.596v-5.284h2.266c.525 0 .939.125 1.24.375.3.243.451.583.451 1.018 0 .365-.125.66-.374.884-.244.218-.57.327-.98.327v-.067c.442 0 .797.115 1.066.345.269.225.403.526.403.903 0 .468-.16.836-.48 1.105-.314.263-.75.394-1.306.394h-2.287zm.748-.672h1.538c.313 0 .563-.074.749-.221a.758.758 0 00.279-.615c0-.27-.093-.477-.28-.625-.185-.153-.435-.23-.748-.23h-1.538v1.69zm0-2.354h1.518c.282 0 .506-.07.673-.212a.704.704 0 00.26-.576.704.704 0 00-.26-.576c-.167-.148-.39-.221-.673-.221h-1.518v1.585zM74.605 84v-5.284h.77v2.248h2.343v-2.248h.769V84h-.769v-2.344h-2.344V84h-.768zm7.631.096c-.41 0-.765-.08-1.066-.24a1.76 1.76 0 01-.702-.701 2.128 2.128 0 01-.25-1.047v-1.5c0-.403.084-.752.25-1.046.167-.301.4-.532.702-.692.3-.166.656-.25 1.066-.25.41 0 .765.084 1.066.25.301.16.535.39.702.692.166.294.25.643.25 1.047v.932h-3.286v.567c0 .429.109.762.327.999.224.23.537.345.941.345.34 0 .615-.067.826-.201a.89.89 0 00.413-.586h.76a1.54 1.54 0 01-.644 1.047c-.36.256-.81.384-1.355.384zm1.268-3.065v-.422c0-.43-.109-.76-.327-.99-.217-.237-.531-.355-.941-.355-.404 0-.717.118-.941.355-.218.23-.327.56-.327.99v.336h2.613l-.077.087zM85.985 84v-5.284h2.267c.526 0 .939.125 1.24.375.3.243.451.583.451 1.018 0 .365-.125.66-.375.884-.243.218-.57.327-.98.327v-.067c.443 0 .798.115 1.067.345.269.225.403.526.403.903 0 .468-.16.836-.48 1.105-.314.263-.75.394-1.306.394h-2.287zm.75-.672h1.537c.313 0 .563-.074.749-.221a.758.758 0 00.278-.615c0-.27-.092-.477-.278-.625-.186-.153-.436-.23-.75-.23h-1.537v1.69zm0-2.354h1.517c.282 0 .506-.07.673-.212a.704.704 0 00.26-.576.704.704 0 00-.26-.576c-.167-.148-.39-.221-.673-.221h-1.518v1.585zm5.766 4.755l.778-2.065-1.96-4.948h.846l1.249 3.295c.05.129.099.273.144.433.05.153.09.281.115.384.032-.103.07-.234.115-.394s.09-.304.135-.432l1.172-3.286h.816l-2.603 7.013H92.5zm7.63-1.633c-.442 0-.797-.147-1.066-.442-.263-.3-.394-.698-.394-1.191v-.836h-.913V84h-.701v-5.284h.701v2.296h.913v-.759c0-.5.131-.896.394-1.19.262-.296.618-.443 1.066-.443.468 0 .842.147 1.124.442.282.295.423.692.423 1.191v2.21c0 .493-.141.89-.423 1.191-.282.295-.656.442-1.124.442zm0-.605c.263 0 .468-.09.615-.27.147-.185.221-.438.221-.758v-2.21c0-.32-.074-.57-.221-.749-.147-.186-.352-.279-.615-.279a.73.73 0 00-.605.279c-.147.18-.221.43-.221.75v2.209c0 .32.074.573.22.759.148.18.35.269.606.269zm10.563.605c-.41 0-.769-.08-1.076-.24a1.766 1.766 0 01-.721-.682c-.166-.301-.249-.657-.249-1.067V80.61c0-.41.083-.762.249-1.057.173-.3.414-.532.721-.692.307-.16.666-.24 1.076-.24.602 0 1.085.163 1.451.49.365.327.554.772.566 1.335h-.759c-.012-.365-.131-.646-.355-.845-.218-.198-.519-.298-.903-.298-.391 0-.701.116-.932.346-.231.224-.346.544-.346.96v1.5c0 .41.115.73.346.96.231.23.541.346.932.346.384 0 .685-.1.903-.298.224-.205.343-.487.355-.845h.759c-.012.563-.201 1.008-.566 1.335-.366.327-.849.49-1.451.49zm3.739-.096v-5.284h.74v3.007c0 .18-.006.372-.019.577a15.389 15.389 0 01-.067 1.018l2.238-4.602h.99V84h-.74v-3.007c0-.186.003-.378.009-.576l.039-.567a9.26 9.26 0 00.038-.461L115.413 84h-.98zm7.64.096a2.3 2.3 0 01-1.076-.24 1.763 1.763 0 01-.72-.682c-.167-.301-.25-.657-.25-1.067V80.61c0-.41.083-.762.25-1.057.173-.3.413-.532.72-.692a2.3 2.3 0 011.076-.24c.602 0 1.086.163 1.451.49.365.327.554.772.567 1.335h-.759c-.013-.365-.132-.646-.356-.845-.218-.198-.519-.298-.903-.298-.39 0-.701.116-.932.346-.23.224-.345.544-.345.96v1.5c0 .41.115.73.345.96.231.23.542.346.932.346.384 0 .685-.1.903-.298.224-.205.343-.487.356-.845h.759c-.013.563-.202 1.008-.567 1.335-.365.327-.849.49-1.451.49zm5.296-.096v-4.602h-1.921v-.682h4.611v.682h-1.921V84h-.769zm6.074.096c-.41 0-.765-.08-1.066-.24a1.764 1.764 0 01-.702-.701 2.133 2.133 0 01-.25-1.047v-1.5c0-.403.084-.752.25-1.046.167-.301.401-.532.702-.692.301-.166.656-.25 1.066-.25.41 0 .765.084 1.066.25.301.16.535.39.702.692.166.294.249.643.249 1.047v.932h-3.285v.567c0 .429.109.762.326.999.225.23.538.345.942.345.339 0 .615-.067.826-.201a.887.887 0 00.413-.586h.759c-.07.442-.285.79-.644 1.047-.358.256-.81.384-1.354.384zm1.268-3.065v-.422c0-.43-.109-.76-.327-.99-.217-.237-.531-.355-.941-.355-.404 0-.717.118-.942.355-.217.23-.326.56-.326.99v.336h2.613l-.077.087zM137.019 84v-5.284h1.057l.768 2.152c.064.186.125.375.183.567.058.192.099.343.125.451.032-.108.073-.259.125-.451.057-.192.118-.384.182-.576l.74-2.143h1.047V84h-.74v-1.268c0-.275.004-.57.01-.884l.019-.941c.007-.314.016-.609.029-.884.013-.282.022-.529.029-.74l-1.047 3.132h-.807l-1.047-3.113c.012.256.022.58.028.97l.02 1.22c.012.43.019.843.019 1.24V84h-.74zm6.689 1.73l.778-2.066-1.96-4.948h.846l1.248 3.295c.052.129.1.273.145.433.051.153.089.281.115.384.032-.103.07-.234.115-.394s.09-.304.135-.432l1.172-3.286h.816l-2.603 7.013h-.807zM23.398 103v-5.284h3.882V103h-.768v-4.592h-2.345V103H23.4zm7.631.086c-.41 0-.765-.08-1.066-.24a1.695 1.695 0 01-.701-.691c-.167-.301-.25-.657-.25-1.067v-1.46c0-.416.083-.772.25-1.066.166-.301.4-.532.7-.692.302-.16.657-.24 1.067-.24.41 0 .765.08 1.067.24.3.16.534.39.7.692.167.294.25.647.25 1.056v1.47c0 .41-.083.766-.25 1.067-.166.301-.4.531-.7.691-.301.16-.657.24-1.067.24zm0-.682c.397 0 .705-.112.922-.336.218-.224.327-.551.327-.98v-1.46c0-.43-.112-.756-.336-.98-.218-.224-.522-.336-.913-.336-.39 0-.698.112-.922.336-.218.224-.327.55-.327.98v1.46c0 .429.11.756.327.98.224.224.532.336.922.336zm5.69.682c-.41 0-.766-.08-1.067-.24a1.695 1.695 0 01-.7-.691c-.167-.301-.25-.657-.25-1.067v-1.46c0-.416.083-.772.25-1.066.166-.301.4-.532.7-.692.301-.16.657-.24 1.067-.24.41 0 .765.08 1.066.24.301.16.535.39.701.692.167.294.25.647.25 1.056v1.47c0 .41-.083.766-.25 1.067-.166.301-.4.531-.7.691-.302.16-.657.24-1.067.24zm0-.682c.397 0 .704-.112.922-.336.218-.224.327-.551.327-.98v-1.46c0-.43-.112-.756-.337-.98-.217-.224-.522-.336-.912-.336s-.698.112-.922.336c-.218.224-.327.55-.327.98v1.46c0 .429.109.756.327.98.224.224.531.336.922.336zm7.61 1.941V103H40.17v-5.284h.692v4.64h1.2v-4.64h.615v4.64h1.201v-4.64h.692v4.64h.452v1.989h-.692zm1.819.384v-7.013h.759v.932h.202l-.231.317c0-.416.135-.743.404-.98.275-.243.637-.365 1.085-.365.532 0 .954.176 1.268.529.32.345.48.82.48 1.421v1.566c0 .404-.073.753-.22 1.047a1.641 1.641 0 01-.615.673c-.257.16-.56.24-.913.24-.442 0-.8-.122-1.076-.365-.275-.243-.413-.57-.413-.98l.202.317h-.183l.01 1.076v1.585h-.76zm1.979-2.296c.384 0 .682-.115.893-.346.218-.23.327-.557.327-.98v-1.498c0-.43-.109-.756-.327-.98-.211-.23-.509-.346-.893-.346-.372 0-.67.119-.894.355-.217.231-.326.554-.326.97v1.499c0 .417.109.743.327.98.224.231.521.346.893.346zm5.66.663c-.41 0-.765-.08-1.066-.24a1.762 1.762 0 01-.7-.701 2.13 2.13 0 01-.25-1.048v-1.498c0-.404.083-.753.25-1.047.166-.301.4-.532.7-.692.301-.166.657-.25 1.067-.25.41 0 .765.084 1.066.25.301.16.535.39.701.692.167.294.25.643.25 1.047v.932H52.52v.566c0 .43.108.763.326 1 .224.23.538.345.942.345.34 0 .615-.067.826-.201a.892.892 0 00.413-.586h.759a1.53 1.53 0 01-.644 1.047c-.358.256-.81.384-1.354.384zm1.269-3.064v-.423c0-.43-.109-.76-.327-.99-.218-.237-.531-.355-.941-.355-.404 0-.718.118-.942.355-.217.23-.326.56-.326.99v.336h2.613l-.077.087zm2.48 2.968v-5.284h.77v2.248h2.343v-2.248h.769V103h-.769v-2.344h-2.344V103h-.768zm5.69 0v-5.284h.74v3.007c0 .18-.006.372-.019.577a14.544 14.544 0 01-.067 1.018l2.238-4.602h.99V103h-.74v-3.007c0-.186.003-.378.01-.576.012-.199.025-.388.038-.567.02-.186.032-.34.038-.461L64.206 103h-.98zm5.69 0v-5.284h.74v3.007c0 .18-.007.372-.02.577a14.538 14.538 0 01-.067 1.018l2.239-4.602h.99V103h-.74v-3.007c0-.186.003-.378.01-.576.012-.199.025-.388.038-.567a9.26 9.26 0 00.038-.461L69.896 103h-.98zm1.98-6.158c-.456 0-.82-.125-1.096-.375-.269-.256-.403-.592-.403-1.008h.614c0 .262.077.474.23.634.161.16.376.24.644.24.276 0 .494-.08.654-.24.16-.16.24-.372.24-.634h.615c0 .416-.138.752-.413 1.008-.27.25-.631.375-1.086.375zm8.785 7.503v-1.998h.432c.109-.122.22-.34.336-.654.122-.32.186-.707.192-1.162l.058-2.815h3.362v4.631h.682v1.998h-.682V103h-3.698v1.345h-.682zm1.249-1.998h2.372v-3.949H81.42l-.038 2.143c-.006.48-.06.874-.163 1.181-.103.308-.199.516-.288.625zm4.383.72v-.72h.192c.275 0 .477-.112.605-.336.128-.231.195-.612.202-1.144l.067-3.15h3.487V103h-.768v-4.592h-1.97l-.057 2.488c-.007.5-.068.91-.183 1.23-.109.32-.275.557-.5.711-.217.153-.502.23-.854.23h-.221zm6.064-.067l1.345-2.046c-.41-.09-.727-.272-.951-.548-.224-.275-.336-.621-.336-1.037 0-.513.17-.916.509-1.21.346-.295.813-.443 1.402-.443h2.21V103h-.769v-1.979H93.51L92.26 103h-.883zm1.97-2.661h1.44v-1.94h-1.44c-.346 0-.622.086-.827.259-.205.173-.307.41-.307.71 0 .302.102.539.307.712.205.172.48.259.826.259zm9.707 2.661v-5.284h3.881V103h-.768v-4.592h-2.344V103h-.769zm7.63.086c-.41 0-.765-.08-1.066-.24a1.691 1.691 0 01-.701-.691c-.167-.301-.25-.657-.25-1.067v-1.46c0-.416.083-.772.25-1.066.166-.301.4-.532.701-.692.301-.16.656-.24 1.066-.24.41 0 .766.08 1.067.24.301.16.534.39.701.692.166.294.25.647.25 1.056v1.47c0 .41-.084.766-.25 1.067-.167.301-.4.531-.701.691-.301.16-.657.24-1.067.24zm0-.682c.397 0 .705-.112.923-.336.217-.224.326-.551.326-.98v-1.46c0-.43-.112-.756-.336-.98-.218-.224-.522-.336-.913-.336-.39 0-.698.112-.922.336-.218.224-.327.55-.327.98v1.46c0 .429.109.756.327.98.224.224.532.336.922.336zm5.7.692c-.41 0-.769-.08-1.076-.24a1.763 1.763 0 01-.721-.682c-.166-.301-.25-.657-.25-1.067v-1.498c0-.41.084-.762.25-1.057.173-.3.413-.532.721-.692.307-.16.666-.24 1.076-.24.602 0 1.085.163 1.45.49.365.327.554.772.567 1.335h-.759c-.013-.365-.131-.646-.355-.845-.218-.198-.519-.298-.903-.298-.391 0-.702.116-.932.346-.231.224-.346.544-.346.96v1.499c0 .41.115.731.346.961.23.231.541.346.932.346.384 0 .685-.099.903-.298.224-.205.342-.487.355-.845h.759c-.013.563-.202 1.008-.567 1.335-.365.327-.848.49-1.45.49zm5.295-.096v-4.602h-1.921v-.682h4.611v.682h-1.921V103h-.769zm6.074.086c-.41 0-.765-.08-1.066-.24a1.691 1.691 0 01-.701-.691c-.167-.301-.25-.657-.25-1.067v-1.46c0-.416.083-.772.25-1.066.166-.301.4-.532.701-.692.301-.16.656-.24 1.066-.24.41 0 .766.08 1.067.24.301.16.534.39.701.692.166.294.25.647.25 1.056v1.47c0 .41-.084.766-.25 1.067-.167.301-.4.531-.701.691-.301.16-.657.24-1.067.24zm0-.682c.397 0 .705-.112.923-.336.217-.224.326-.551.326-.98v-1.46c0-.43-.112-.756-.336-.98-.218-.224-.522-.336-.913-.336-.39 0-.698.112-.922.336-.218.224-.327.55-.327.98v1.46c0 .429.109.756.327.98.224.224.532.336.922.336zm3.452.596l1.344-2.046c-.409-.09-.726-.272-.951-.548-.224-.275-.336-.621-.336-1.037 0-.513.17-.916.509-1.21.346-.295.814-.443 1.403-.443h2.209V103h-.768v-1.979h-1.278L132.088 103h-.883zm1.969-2.661h1.441v-1.94h-1.441c-.346 0-.621.086-.826.259-.205.173-.308.41-.308.71 0 .302.103.539.308.712.205.172.48.259.826.259zm4.018 2.661v-5.284h.769v2.248h2.344v-2.248h.768V103h-.768v-2.344h-2.344V103h-.769zm5.69 0v-5.284h.768v2.248h2.344v-2.248h.769V103h-.769v-2.344h-2.344V103h-.768zm5.411 0v-5.284h.72v1.96h.471c.564 0 1.009.15 1.335.452.333.294.5.698.5 1.21s-.163.919-.49 1.22c-.327.295-.775.442-1.345.442h-1.191zm.72-.624h.471c.359 0 .637-.09.836-.269.205-.186.307-.442.307-.769s-.102-.58-.307-.759c-.199-.186-.477-.278-.836-.278h-.471v2.075zm2.998.624v-5.284h.72V103h-.72zm1.856 0l1.873-2.719-1.758-2.565h.894l1.114 1.71c.039.064.077.138.115.221l.106.183a6.362 6.362 0 01.221-.404l1.114-1.71h.884l-1.758 2.575 1.864 2.709h-.893l-1.192-1.806a1.817 1.817 0 01-.134-.231 1.699 1.699 0 00-.106-.211 4.06 4.06 0 01-.259.442L154.751 103h-.884zm-130.44 20v-5.284h.77v2.219h.998l1.566-2.219h.875l-1.778 2.517L27.674 123h-.893l-1.586-2.402h-.999V123h-.768zm4.99.067v-.72h.191c.276 0 .477-.112.605-.336.128-.231.196-.612.202-1.144l.067-3.151h3.488V123h-.77v-4.592h-1.97l-.057 2.488c-.006.5-.067.91-.182 1.23-.11.32-.276.557-.5.711-.218.153-.503.23-.855.23h-.22zm6.361-.067v-5.284h.74v3.007c0 .18-.007.372-.02.577a14.544 14.544 0 01-.066 1.018l2.238-4.602h.99V123h-.74v-3.007c0-.186.003-.378.01-.576.012-.199.025-.388.038-.567a9.26 9.26 0 00.038-.461L35.758 123h-.98zm7.63.096c-.41 0-.765-.08-1.066-.24a1.762 1.762 0 01-.701-.701 2.13 2.13 0 01-.25-1.048v-1.498c0-.404.083-.753.25-1.047.166-.301.4-.532.701-.692.301-.167.657-.25 1.066-.25.41 0 .766.083 1.067.25.3.16.535.391.701.692.167.294.25.643.25 1.047v.932H41.14v.566c0 .43.11.763.327 1 .224.23.538.345.941.345.34 0 .615-.067.827-.201a.892.892 0 00.413-.586h.759a1.53 1.53 0 01-.644 1.047c-.359.256-.81.384-1.355.384zm1.268-3.064v-.423c0-.429-.108-.759-.326-.99-.218-.237-.532-.355-.942-.355-.403 0-.717.118-.941.355-.218.231-.327.561-.327.99v.336h2.613l-.077.087zM46.157 123v-5.284h.77v2.248h2.343v-2.248h.769V123h-.769v-2.344h-2.344V123h-.769zm7.247 0v-4.602h-1.922v-.682h4.611v.682h-1.921V123h-.768zm6.073.086c-.41 0-.765-.08-1.066-.24a1.694 1.694 0 01-.701-.691c-.167-.301-.25-.657-.25-1.067v-1.46c0-.416.083-.772.25-1.066.166-.301.4-.532.701-.692.301-.16.657-.24 1.066-.24.41 0 .766.08 1.067.24.3.16.535.391.701.692.167.294.25.647.25 1.056v1.47c0 .41-.083.766-.25 1.067-.166.301-.4.531-.701.691-.301.16-.657.24-1.067.24zm0-.682c.398 0 .705-.112.923-.336.217-.224.326-.551.326-.98v-1.46c0-.429-.112-.756-.336-.98-.218-.224-.522-.336-.913-.336-.39 0-.698.112-.922.336-.218.224-.327.551-.327.98v1.46c0 .429.11.756.327.98.224.224.532.336.922.336zm3.75.596v-5.284h2.267c.525 0 .938.125 1.239.375.301.243.451.583.451 1.018 0 .365-.124.66-.374.884-.244.218-.57.327-.98.327v-.068c.442 0 .797.116 1.066.346.27.224.404.525.404.903 0 .468-.16.836-.48 1.105-.314.263-.75.394-1.307.394h-2.287zm.749-.672h1.537c.314 0 .563-.074.75-.221a.758.758 0 00.278-.615c0-.269-.093-.477-.279-.625-.186-.153-.435-.23-.75-.23h-1.536v1.691zm0-2.354h1.518c.281 0 .506-.071.672-.211a.706.706 0 00.26-.577.704.704 0 00-.26-.576c-.166-.148-.39-.221-.672-.221h-1.518v1.585zm6.88 3.122c-.236 0-.425-.067-.566-.202-.135-.141-.202-.326-.202-.557 0-.243.067-.435.202-.576.14-.141.33-.212.567-.212.237 0 .422.071.557.212.14.141.211.333.211.576 0 .231-.07.416-.211.557-.135.135-.32.202-.557.202zm-54.125 16.483c-.32 0-.583-.099-.788-.298-.199-.205-.298-.467-.298-.787 0-.321.1-.58.298-.779.205-.205.467-.307.788-.307.32 0 .58.102.778.307.205.199.307.458.307.779 0 .32-.102.582-.307.787-.199.199-.458.298-.778.298zM23.399 142v-7.013h1.93c.628 0 1.122.163 1.48.49.359.32.538.762.538 1.326 0 .32-.067.602-.202.845a1.369 1.369 0 01-.557.557c-.237.128-.525.189-.864.183v-.135c.365 0 .679.074.941.221.27.141.477.349.625.625.147.269.22.589.22.96 0 .398-.083.743-.25 1.038a1.716 1.716 0 01-.71.672c-.308.154-.676.231-1.105.231H23.4zm.74-.692h1.239c.429 0 .765-.112 1.009-.336.25-.23.374-.541.374-.932 0-.403-.125-.727-.374-.97-.244-.25-.58-.375-1.01-.375H24.14v2.613zm0-3.276h1.19c.392 0 .699-.105.923-.317.224-.211.336-.499.336-.864s-.112-.65-.336-.855c-.218-.212-.525-.317-.922-.317h-1.191v2.353zm4.95 3.968v-5.284h.768v2.248h2.344v-2.248h.769V142h-.77v-2.344h-2.344V142h-.768zm7.63.096c-.41 0-.766-.08-1.067-.24a1.762 1.762 0 01-.7-.701 2.129 2.129 0 01-.25-1.048v-1.498c0-.404.083-.753.25-1.047.166-.301.4-.532.7-.692.301-.167.657-.25 1.067-.25.41 0 .765.083 1.066.25.301.16.535.391.701.692.167.294.25.643.25 1.047v.932h-3.285v.566c0 .43.109.763.326 1 .224.23.538.345.942.345.34 0 .615-.067.826-.201a.892.892 0 00.413-.586h.759a1.53 1.53 0 01-.644 1.047c-.358.256-.81.384-1.354.384zm1.268-3.064v-.423c0-.429-.109-.759-.327-.99-.217-.237-.531-.355-.941-.355-.404 0-.718.118-.942.355-.217.231-.326.561-.326.99v.336h2.613l-.077.087zm1.866 4.313v-1.998h.432c.11-.122.221-.34.337-.654.121-.32.185-.707.192-1.162l.057-2.815h3.363v4.631h.682v1.998h-.682V142h-3.699v1.345h-.682zm1.249-1.998h2.373v-3.949h-1.883l-.039 2.143c-.006.48-.06.874-.163 1.181-.102.308-.198.516-.288.625zm5.046 2.382v-7.013h.759v.932h.202l-.231.317c0-.416.135-.743.404-.98.275-.243.637-.365 1.085-.365.532 0 .954.176 1.268.529.32.345.48.819.48 1.421v1.566c0 .404-.073.753-.22 1.047a1.641 1.641 0 01-.615.673c-.257.16-.56.24-.913.24-.442 0-.8-.122-1.076-.365-.275-.243-.413-.57-.413-.98l.202.317h-.183l.01 1.076v1.585h-.76zm1.979-2.296c.384 0 .682-.115.893-.346.218-.23.327-.557.327-.98v-1.498c0-.429-.109-.756-.327-.98-.211-.231-.509-.346-.893-.346-.372 0-.67.119-.894.356-.217.23-.326.554-.326.97v1.498c0 .417.109.743.327.98.224.231.521.346.893.346zm3.72.567v-5.284h.74v3.007c0 .18-.007.372-.02.577a14.544 14.544 0 01-.067 1.018l2.239-4.602h.99V142h-.74v-3.007c0-.186.003-.378.01-.576.012-.199.025-.388.038-.567a9.26 9.26 0 00.038-.461L52.827 142h-.98zm5.017.067v-.72h.193c.275 0 .477-.112.605-.336.128-.231.195-.612.202-1.144l.067-3.151h3.487V142h-.769v-4.592H58.68l-.058 2.488c-.006.5-.067.91-.182 1.23-.109.32-.276.557-.5.711-.217.153-.502.23-.855.23h-.22zm6.363-.067v-5.284h.74v3.007c0 .18-.007.372-.02.577a14.544 14.544 0 01-.067 1.018l2.238-4.602h.99V142h-.74v-3.007c0-.186.003-.378.01-.576.012-.199.025-.388.038-.567.02-.186.032-.34.038-.461L64.206 142h-.98zm13.32.096c-.615 0-1.099-.182-1.451-.548-.353-.365-.529-.867-.529-1.508v-2.459c0-.833.209-1.473.625-1.921.416-.449 1.012-.673 1.787-.673h1.306v.759H76.98c-.538 0-.948.16-1.23.48-.282.314-.423.766-.423 1.355v.663h.135l-.135.23c.007-.384.135-.685.385-.903.256-.217.605-.326 1.047-.326.563 0 .999.179 1.306.538.308.352.461.845.461 1.479v.778c0 .429-.08.798-.24 1.105a1.645 1.645 0 01-.672.711c-.295.16-.65.24-1.067.24zm0-.682c.39 0 .691-.118.902-.355.212-.237.317-.577.317-1.019v-.778c0-.435-.105-.775-.317-1.018-.21-.244-.512-.365-.903-.365-.39 0-.691.121-.903.365-.211.243-.317.583-.317 1.018v.778c0 .442.106.782.317 1.019.218.237.52.355.903.355zm5.689.672c-.41 0-.765-.08-1.066-.24a1.695 1.695 0 01-.702-.691c-.166-.301-.25-.657-.25-1.067v-1.46c0-.416.084-.772.25-1.066.167-.301.4-.532.702-.692.3-.16.656-.24 1.066-.24.41 0 .765.08 1.066.24.301.16.535.391.702.692.166.294.25.647.25 1.056v1.47c0 .41-.084.766-.25 1.067-.167.301-.4.531-.702.691-.3.16-.656.24-1.066.24zm0-.682c.397 0 .704-.112.922-.336.218-.224.327-.551.327-.98v-1.46c0-.429-.112-.756-.336-.98-.218-.224-.522-.336-.913-.336-.39 0-.698.112-.922.336-.218.224-.327.551-.327.98v1.46c0 .429.109.756.327.98.224.224.531.336.922.336zm3.75.596v-5.284h.768v2.248h2.344v-2.248h.768V142h-.768v-2.344h-2.344V142h-.769zm6.515 1.729l.778-2.065-1.96-4.948h.846l1.249 3.295c.05.128.099.273.144.433.05.153.09.282.115.384.032-.102.07-.234.115-.394s.09-.304.135-.432l1.172-3.286h.816l-2.603 7.013H92.5zm6.814-1.633a2.3 2.3 0 01-1.076-.24 1.765 1.765 0 01-.72-.682c-.167-.301-.25-.657-.25-1.067v-1.498c0-.41.083-.762.25-1.057a1.75 1.75 0 01.72-.692 2.3 2.3 0 011.076-.24c.602 0 1.085.164 1.45.49.365.327.554.772.567 1.336h-.759c-.013-.366-.131-.647-.355-.846-.218-.198-.52-.298-.903-.298-.391 0-.702.116-.932.346-.23.224-.346.545-.346.961v1.498c0 .41.115.731.346.961.23.231.54.346.932.346.384 0 .685-.099.903-.298.224-.205.342-.487.355-.845h.759c-.013.563-.202 1.008-.567 1.335-.365.327-.848.49-1.45.49zm3.739-.096v-5.284h.769v2.248h2.344v-2.248h.768V142h-.768v-2.344h-2.344V142h-.769zm5.411 0v-5.284h.721v1.96h.47c.564 0 1.009.151 1.336.452.333.294.499.698.499 1.21s-.163.919-.49 1.22c-.326.295-.775.442-1.345.442h-1.191zm.721-.624h.47c.359 0 .638-.09.836-.269.205-.186.308-.442.308-.769s-.103-.58-.308-.759c-.198-.186-.477-.278-.836-.278h-.47v2.075zm2.997.624v-5.284h.72V142h-.72zm4.191.096c-.41 0-.765-.08-1.066-.24a1.767 1.767 0 01-.702-.701 2.134 2.134 0 01-.249-1.048v-1.498c0-.404.083-.753.249-1.047.167-.301.401-.532.702-.692.301-.167.656-.25 1.066-.25.41 0 .765.083 1.066.25.301.16.535.391.702.692.166.294.249.643.249 1.047v.932h-3.285v.566c0 .43.109.763.326 1 .225.23.538.345.942.345.339 0 .615-.067.826-.201a.889.889 0 00.413-.586h.759c-.07.442-.285.791-.643 1.047-.359.256-.811.384-1.355.384zm1.268-3.064v-.423c0-.429-.109-.759-.327-.99-.217-.237-.531-.355-.941-.355-.404 0-.717.118-.942.355-.217.231-.326.561-.326.99v.336h2.613l-.077.087zm10.111 3.064c-.615 0-1.098-.182-1.45-.548-.353-.365-.529-.867-.529-1.508v-2.459c0-.833.208-1.473.625-1.921.416-.449 1.012-.673 1.787-.673h1.306v.759h-1.306c-.538 0-.948.16-1.23.48-.282.314-.423.766-.423 1.355v.663h.135l-.135.23c.007-.384.135-.685.384-.903.257-.217.606-.326 1.048-.326.563 0 .999.179 1.306.538.308.352.461.845.461 1.479v.778c0 .429-.08.798-.24 1.105a1.65 1.65 0 01-.672.711c-.295.16-.65.24-1.067.24zm0-.682c.391 0 .692-.118.903-.355.212-.237.317-.577.317-1.019v-.778c0-.435-.105-.775-.317-1.018-.211-.244-.512-.365-.903-.365-.39 0-.691.121-.903.365-.211.243-.317.583-.317 1.018v.778c0 .442.106.782.317 1.019.218.237.519.355.903.355zm5.277.682c-.557 0-.996-.141-1.316-.423-.321-.288-.481-.675-.481-1.162 0-.48.157-.858.471-1.134.314-.281.737-.422 1.268-.422h1.681v-.558c0-.352-.102-.624-.307-.816-.205-.192-.496-.288-.874-.288-.333 0-.612.073-.836.221a.816.816 0 00-.375.595h-.768c.064-.454.275-.816.634-1.085.365-.269.82-.404 1.364-.404.589 0 1.057.16 1.403.481.345.313.518.739.518 1.277V142h-.749v-1.028h-.125l.144-.154c0 .391-.15.702-.451.932-.301.231-.702.346-1.201.346zm.182-.615c.423 0 .769-.105 1.038-.317.269-.211.403-.487.403-.826v-.797h-1.671c-.301 0-.541.083-.721.249-.179.167-.269.394-.269.683 0 .307.109.554.327.739.218.18.515.269.893.269zm3.308.586v-.72h.192c.275 0 .477-.112.605-.336.128-.231.195-.612.202-1.144l.067-3.151h3.487V142h-.768v-4.592h-1.97l-.057 2.488c-.007.5-.068.91-.183 1.23-.109.32-.275.557-.5.711-.217.153-.502.23-.855.23h-.22zm5.689 0v-.72h.192c.276 0 .477-.112.606-.336.128-.231.195-.612.201-1.144l.068-3.151h3.487V142h-.769v-4.592h-1.969l-.058 2.488c-.006.5-.067.91-.182 1.23-.109.32-.276.557-.5.711-.218.153-.503.23-.855.23h-.221zm6.084-.067v-5.284h.72v1.96h.471c.564 0 1.009.151 1.335.452.333.294.5.698.5 1.21s-.163.919-.49 1.22c-.327.295-.775.442-1.345.442h-1.191zm.72-.624h.471c.359 0 .637-.09.836-.269.205-.186.307-.442.307-.769s-.102-.58-.307-.759c-.199-.186-.477-.278-.836-.278h-.471v2.075zm2.998.624v-5.284h.72V142h-.72zm2.961 1.537l.749-2.988h1.153l-1.239 2.988h-.663zM25.349 161.096a2.3 2.3 0 01-1.076-.24 1.764 1.764 0 01-.72-.682c-.167-.301-.25-.657-.25-1.067v-1.498c0-.41.083-.762.25-1.057a1.75 1.75 0 01.72-.692 2.3 2.3 0 011.076-.24c.602 0 1.086.164 1.45.49.366.327.555.772.567 1.336h-.758c-.013-.366-.132-.647-.356-.846-.218-.198-.519-.298-.903-.298-.39 0-.701.116-.932.346-.23.224-.346.545-.346.961v1.498c0 .41.116.731.346.961.23.231.541.346.932.346.384 0 .685-.099.903-.298.224-.205.343-.487.356-.845h.758c-.012.563-.201 1.008-.566 1.335-.365.327-.849.49-1.45.49zm3.768-.096v-5.284h.769v2.219h.999l1.566-2.219h.874l-1.777 2.517L33.364 161h-.894l-1.585-2.402h-1V161h-.768zm5.661 0v-5.284h.74v3.007c0 .18-.007.372-.02.577a14.544 14.544 0 01-.066 1.018l2.238-4.602h.99V161h-.74v-3.007c0-.186.003-.378.01-.576.012-.199.025-.388.038-.567a9.26 9.26 0 00.038-.461L35.758 161h-.98zm5.075 1.345v-1.998h.432c.11-.122.221-.34.337-.654.121-.32.185-.707.192-1.162l.057-2.815h3.363v4.631h.682v1.998h-.682V161h-3.699v1.345h-.682zm1.249-1.998h2.373v-3.949h-1.883l-.039 2.143c-.006.48-.06.874-.163 1.181-.102.308-.198.516-.288.625zm5.084.653v-5.284h.769v2.219h.999l1.566-2.219h.874l-1.777 2.517L50.433 161h-.894l-1.585-2.402h-1V161h-.768zm5.661 0v-5.284h.74v3.007c0 .18-.007.372-.02.577a14.544 14.544 0 01-.067 1.018l2.239-4.602h.99V161h-.74v-3.007c0-.186.003-.378.01-.576.012-.199.025-.388.038-.567a9.26 9.26 0 00.038-.461L52.827 161h-.98zm11.38 0v-5.284h.768v2.248h2.344v-2.248h.769V161h-.769v-2.344h-2.344V161h-.768zm7.217.096c-.558 0-.996-.141-1.317-.423-.32-.288-.48-.675-.48-1.162 0-.48.157-.858.47-1.134.315-.281.737-.422 1.269-.422h1.681v-.558c0-.352-.102-.624-.307-.816-.205-.192-.497-.288-.875-.288-.333 0-.611.073-.835.221a.817.817 0 00-.375.595h-.769a1.58 1.58 0 01.635-1.085c.365-.269.82-.404 1.364-.404.589 0 1.056.16 1.402.481.346.313.52.739.52 1.277V161h-.75v-1.028h-.125l.144-.154c0 .391-.15.702-.452.932-.3.231-.7.346-1.2.346zm.182-.615c.423 0 .769-.105 1.038-.317.269-.211.403-.487.403-.826v-.797h-1.671c-.301 0-.542.083-.72.249-.18.167-.27.394-.27.683 0 .307.109.554.327.739.218.18.515.269.893.269zm9.055 1.864v-1.998h.432c.109-.122.22-.34.336-.654.122-.32.186-.707.192-1.162l.058-2.815h3.362v4.631h.682v1.998h-.682V161h-3.698v1.345h-.682zm1.249-1.998h2.372v-3.949H81.42l-.038 2.143c-.006.48-.06.874-.163 1.181-.103.308-.199.516-.288.625zm5.055.653v-5.284h.769v2.248h2.344v-2.248h.768V161h-.768v-2.344h-2.344V161h-.769zm5.69 0v-5.284h.74v3.007c0 .18-.007.372-.02.577a14.544 14.544 0 01-.067 1.018l2.238-4.602h.99V161h-.74v-3.007c0-.186.003-.378.01-.576.013-.199.025-.388.038-.567.02-.186.032-.34.039-.461L92.655 161h-.98zm11.369 1.729v-7.013h.759v.932h.202l-.23.317c0-.416.134-.743.403-.98.275-.243.637-.365 1.086-.365.531 0 .954.176 1.268.529.32.345.48.819.48 1.421v1.566c0 .404-.074.753-.221 1.047a1.637 1.637 0 01-.615.673c-.256.16-.56.24-.912.24-.442 0-.801-.122-1.076-.365-.276-.243-.413-.57-.413-.98l.201.317h-.182l.009 1.076v1.585h-.759zm1.979-2.296c.385 0 .683-.115.894-.346.218-.23.327-.557.327-.98v-1.498c0-.429-.109-.756-.327-.98-.211-.231-.509-.346-.894-.346-.371 0-.669.119-.893.356-.218.23-.327.554-.327.97v1.498c0 .417.109.743.327.98.224.231.522.346.893.346zm5.661.653c-.41 0-.765-.08-1.066-.24a1.691 1.691 0 01-.701-.691c-.167-.301-.25-.657-.25-1.067v-1.46c0-.416.083-.772.25-1.066.166-.301.4-.532.701-.692.301-.16.656-.24 1.066-.24.41 0 .766.08 1.067.24a1.7 1.7 0 01.701.692c.166.294.25.647.25 1.056v1.47c0 .41-.084.766-.25 1.067-.167.301-.4.531-.701.691-.301.16-.657.24-1.067.24zm0-.682c.397 0 .705-.112.923-.336.217-.224.326-.551.326-.98v-1.46c0-.429-.112-.756-.336-.98-.218-.224-.522-.336-.913-.336-.39 0-.698.112-.922.336-.218.224-.327.551-.327.98v1.46c0 .429.109.756.327.98.224.224.532.336.922.336zm3.029.596l1.153-2.709-1.076-2.575h.739l.952 2.335h.566v-2.335h.654v2.335h.547l.98-2.335h.73l-1.076 2.546 1.153 2.738h-.769l-.989-2.431h-.576V161h-.654v-2.431h-.576L114.462 161h-.749zm5.795 1.345v-1.998h.433c.108-.122.22-.34.336-.654.121-.32.185-.707.192-1.162l.058-2.815h3.362v4.631h.682v1.998h-.682V161h-3.699v1.345h-.682zm1.249-1.998h2.373v-3.949h-1.883l-.038 2.143c-.007.48-.061.874-.164 1.181-.102.308-.198.516-.288.625zm6.996.749c-.41 0-.765-.08-1.066-.24a1.758 1.758 0 01-.701-.701 2.124 2.124 0 01-.25-1.048v-1.498c0-.404.083-.753.25-1.047.166-.301.4-.532.701-.692.301-.167.656-.25 1.066-.25.41 0 .766.083 1.067.25a1.7 1.7 0 01.701.692c.166.294.25.643.25 1.047v.932h-3.286v.566c0 .43.109.763.327 1 .224.23.538.345.941.345.34 0 .615-.067.826-.201a.893.893 0 00.414-.586h.758c-.07.442-.285.791-.643 1.047-.359.256-.81.384-1.355.384zm1.268-3.064v-.423c0-.429-.109-.759-.326-.99-.218-.237-.532-.355-.942-.355-.403 0-.717.118-.941.355-.218.231-.327.561-.327.99v.336h2.613l-.077.087zm2.481 2.968v-5.284h.769v2.248h2.344v-2.248h.768V161h-.768v-2.344h-2.344V161h-.769zm5.69 0v-5.284h.74v3.007c0 .18-.007.372-.019.577a15.365 15.365 0 01-.068 1.018l2.239-4.602h.989V161h-.74v-3.007c0-.186.004-.378.01-.576l.038-.567c.02-.186.032-.34.039-.461L138.172 161h-.98zm5.392 0l1.345-2.046c-.41-.09-.727-.272-.951-.548-.224-.275-.337-.621-.337-1.037 0-.513.17-.916.51-1.211.345-.294.813-.442 1.402-.442h2.21V161h-.769v-1.979h-1.277L143.468 161h-.884zm1.969-2.661h1.441v-1.941h-1.441c-.346 0-.621.087-.826.26-.205.173-.307.41-.307.711s.102.538.307.711c.205.172.48.259.826.259zm4.729 4.198l.75-2.988h1.152l-1.239 2.988h-.663zM25.311 180.096c-.602 0-1.086-.163-1.451-.49-.359-.327-.544-.772-.557-1.335h.768c.013.358.128.64.346.845.218.205.516.308.894.308.39 0 .695-.116.912-.346.225-.237.337-.561.337-.971v-.441h-1.912v-.692h1.912v-.365c0-.416-.112-.74-.337-.97-.217-.231-.522-.346-.912-.346-.378 0-.676.102-.894.307-.218.199-.333.48-.346.846h-.768c.013-.564.198-1.009.557-1.336.365-.326.849-.49 1.45-.49.417 0 .772.08 1.067.24.301.161.532.391.692.692.166.295.25.647.25 1.057v1.498c0 .41-.084.766-.25 1.067-.16.294-.391.522-.692.682-.295.16-.65.24-1.066.24zm3.806-.096v-5.284h.769v2.219h.999l1.566-2.219h.874l-1.777 2.517L33.364 180h-.894l-1.585-2.402h-1V180h-.768zm7.611.096a2.3 2.3 0 01-1.076-.24 1.765 1.765 0 01-.72-.682c-.167-.301-.25-.657-.25-1.067v-1.498c0-.41.083-.762.25-1.057a1.75 1.75 0 01.72-.692 2.3 2.3 0 011.076-.24c.602 0 1.086.164 1.451.49.365.327.554.772.567 1.336h-.76c-.012-.366-.13-.647-.355-.846-.217-.198-.518-.298-.903-.298-.39 0-.7.116-.931.346-.231.224-.346.545-.346.961v1.498c0 .41.115.731.346.961.23.231.54.346.931.346.385 0 .686-.099.903-.298.225-.205.343-.487.356-.845h.759c-.013.563-.202 1.008-.567 1.335-.365.327-.849.49-1.45.49zm3.769-.096v-5.284h.768v2.219h1l1.565-2.219h.875l-1.778 2.517L44.743 180h-.894l-1.585-2.402h-.999V180h-.768zm4.988.067v-.72h.192c.276 0 .477-.112.605-.336.129-.231.196-.612.202-1.144l.067-3.151h3.488V180h-.769v-4.592H47.3l-.057 2.488c-.006.5-.067.91-.182 1.23-.11.32-.276.557-.5.711-.218.153-.503.23-.855.23h-.22zm9.129.029c-.442 0-.797-.147-1.066-.442-.263-.301-.394-.698-.394-1.191v-.836h-.913V180h-.701v-5.284h.701v2.296h.913v-.759c0-.499.131-.896.394-1.191.262-.294.618-.442 1.066-.442.468 0 .842.148 1.124.442.282.295.423.692.423 1.191v2.21c0 .493-.141.89-.423 1.191-.282.295-.657.442-1.124.442zm0-.605c.263 0 .468-.09.615-.269.147-.186.22-.439.22-.759v-2.21c0-.32-.073-.57-.22-.749-.148-.186-.352-.279-.615-.279a.73.73 0 00-.605.279c-.148.179-.221.429-.221.749v2.21c0 .32.073.573.22.759.148.179.35.269.606.269zm4.614.586c-.551 0-.996-.119-1.336-.356a1.43 1.43 0 01-.614-.96h.797c.051.185.176.339.374.461.205.115.465.173.779.173h.47c.327 0 .583-.08.769-.24a.794.794 0 00.288-.625.849.849 0 00-.269-.653c-.18-.167-.435-.25-.768-.25h-1.182v-.663h1.162c.301 0 .532-.077.692-.23a.775.775 0 00.25-.596.79.79 0 00-.115-.432.726.726 0 00-.337-.279 1.173 1.173 0 00-.509-.105h-.5c-.288 0-.525.064-.71.192a.758.758 0 00-.346.47h-.797c.063-.397.259-.72.585-.97.334-.25.756-.375 1.269-.375h.5c.358 0 .668.061.931.183a1.4 1.4 0 01.605.509c.148.218.221.474.221.769 0 .32-.1.586-.298.797-.192.205-.464.32-.816.346v.038c.422.026.733.151.932.375.198.218.297.519.297.903 0 .455-.17.823-.509 1.105-.333.275-.781.413-1.345.413h-.47zm3.998-.077v-5.284h.74v3.007c0 .18-.006.372-.019.577a14.544 14.544 0 01-.067 1.018l2.238-4.602h.99V180h-.74v-3.007c0-.186.003-.378.01-.576.012-.199.025-.388.038-.567.02-.186.032-.34.038-.461L64.206 180h-.98zm5.69 0v-5.284h2.267c.525 0 .939.125 1.24.375.3.243.451.583.451 1.018 0 .365-.125.66-.374.884-.244.218-.57.327-.98.327v-.068c.442 0 .797.116 1.066.346.269.224.403.525.403.903 0 .468-.16.836-.48 1.105-.314.263-.75.394-1.306.394h-2.287zm.75-.672h1.537c.313 0 .563-.074.749-.221a.759.759 0 00.279-.615c0-.269-.093-.477-.28-.625-.185-.153-.435-.23-.748-.23h-1.538v1.691zm0-2.354h1.517c.282 0 .506-.071.673-.211a.706.706 0 00.26-.577.704.704 0 00-.26-.576c-.167-.148-.39-.221-.673-.221h-1.518v1.585zm4.94 3.026v-5.284h.768v2.248h2.344v-2.248h.769V180h-.769v-2.344h-2.344V180h-.768zm5.41 0v-5.284h.721v1.96h.471c.564 0 1.009.151 1.335.452.333.294.5.698.5 1.21s-.163.919-.49 1.22c-.327.295-.775.442-1.345.442h-1.191zm.721-.624h.471c.359 0 .637-.09.836-.269.205-.186.307-.442.307-.769s-.102-.58-.307-.759c-.199-.186-.477-.278-.836-.278h-.47v2.075zm2.998.624v-5.284h.72V180h-.72zm4.19.096c-.41 0-.765-.08-1.066-.24a1.762 1.762 0 01-.701-.701 2.129 2.129 0 01-.25-1.048v-1.498c0-.404.084-.753.25-1.047a1.7 1.7 0 01.701-.692c.301-.167.657-.25 1.067-.25.41 0 .765.083 1.066.25.301.16.535.391.701.692.167.294.25.643.25 1.047v.932h-3.285v.566c0 .43.108.763.326 1 .224.23.538.345.942.345.34 0 .614-.067.826-.201a.892.892 0 00.413-.586h.759a1.53 1.53 0 01-.644 1.047c-.358.256-.81.384-1.354.384zm1.269-3.064v-.423c0-.429-.11-.759-.327-.99-.218-.237-.531-.355-.941-.355-.404 0-.718.118-.942.355-.218.231-.326.561-.326.99v.336h2.613l-.077.087zm8.17 2.968v-5.284h3.882V180h-.769v-4.592h-2.344V180h-.769zm5.68 1.729v-7.013h.759v.932h.202l-.23.317c0-.416.134-.743.403-.98.275-.243.637-.365 1.086-.365.531 0 .954.176 1.268.529.32.345.48.819.48 1.421v1.566c0 .404-.074.753-.221 1.047a1.637 1.637 0 01-.615.673c-.256.16-.56.24-.912.24-.442 0-.801-.122-1.076-.365-.276-.243-.413-.57-.413-.98l.201.317h-.182l.009 1.076v1.585h-.759zm1.979-2.296c.385 0 .683-.115.894-.346.218-.23.327-.557.327-.98v-1.498c0-.429-.109-.756-.327-.98-.211-.231-.509-.346-.894-.346-.371 0-.669.119-.893.356-.218.23-.327.554-.327.97v1.498c0 .417.109.743.327.98.224.231.522.346.893.346zm5.661.663c-.41 0-.765-.08-1.066-.24a1.758 1.758 0 01-.701-.701 2.124 2.124 0 01-.25-1.048v-1.498c0-.404.083-.753.25-1.047.166-.301.4-.532.701-.692.301-.167.656-.25 1.066-.25.41 0 .766.083 1.067.25a1.7 1.7 0 01.701.692c.166.294.25.643.25 1.047v.932h-3.286v.566c0 .43.109.763.327 1 .224.23.538.345.941.345.34 0 .615-.067.826-.201a.893.893 0 00.414-.586h.759a1.534 1.534 0 01-.644 1.047c-.359.256-.81.384-1.355.384zm1.268-3.064v-.423c0-.429-.108-.759-.326-.99-.218-.237-.532-.355-.942-.355-.403 0-.717.118-.941.355-.218.231-.327.561-.327.99v.336h2.613l-.077.087zm1.867 4.313v-1.998h.432c.109-.122.221-.34.336-.654.122-.32.186-.707.192-1.162l.058-2.815h3.362v4.631h.682v1.998h-.682V180h-3.698v1.345h-.682zm1.248-1.998h2.373v-3.949h-1.883l-.038 2.143c-.006.48-.061.874-.163 1.181-.103.308-.199.516-.289.625zm4.384.72v-.72h.192c.275 0 .477-.112.605-.336.128-.231.195-.612.202-1.144l.067-3.151h3.487V180h-.768v-4.592h-1.97l-.057 2.488c-.007.5-.068.91-.183 1.23-.109.32-.275.557-.499.711-.218.153-.503.23-.855.23h-.221zm8.302.019c-.41 0-.765-.08-1.066-.24a1.691 1.691 0 01-.701-.691c-.167-.301-.25-.657-.25-1.067v-1.46c0-.416.083-.772.25-1.066.166-.301.4-.532.701-.692.301-.16.656-.24 1.066-.24.41 0 .766.08 1.067.24a1.7 1.7 0 01.701.692c.166.294.25.647.25 1.056v1.47c0 .41-.084.766-.25 1.067-.167.301-.4.531-.701.691-.301.16-.657.24-1.067.24zm0-.682c.397 0 .705-.112.923-.336.217-.224.326-.551.326-.98v-1.46c0-.429-.112-.756-.336-.98-.218-.224-.522-.336-.913-.336-.39 0-.698.112-.922.336-.218.224-.327.551-.327.98v1.46c0 .429.109.756.327.98.224.224.532.336.922.336zm3.029.596l1.153-2.709-1.076-2.575h.739l.951 2.335h.567v-2.335h.654v2.335h.547l.98-2.335h.73l-1.076 2.546 1.153 2.738h-.769l-.989-2.431h-.576V180h-.654v-2.431h-.576L131.531 180h-.749zm8.351.096c-.41 0-.766-.08-1.067-.24a1.758 1.758 0 01-.701-.701 2.124 2.124 0 01-.25-1.048v-1.498c0-.404.083-.753.25-1.047.166-.301.4-.532.701-.692.301-.167.657-.25 1.067-.25.409 0 .765.083 1.066.25.301.16.535.391.701.692.167.294.25.643.25 1.047v.932h-3.286v.566c0 .43.109.763.327 1 .224.23.538.345.942.345.339 0 .614-.067.826-.201a.892.892 0 00.413-.586h.759a1.534 1.534 0 01-.644 1.047c-.359.256-.81.384-1.354.384zm1.268-3.064v-.423c0-.429-.109-.759-.327-.99-.218-.237-.532-.355-.941-.355-.404 0-.718.118-.942.355-.218.231-.327.561-.327.99v.336h2.614l-.077.087zm2.481 2.968v-5.284h.768v2.248h2.344v-2.248h.769V180h-.769v-2.344h-2.344V180h-.768zm5.689 0v-5.284h.74v3.007c0 .18-.006.372-.019.577a15.365 15.365 0 01-.067 1.018l2.238-4.602h.989V180h-.739v-3.007c0-.186.003-.378.009-.576l.039-.567a9.26 9.26 0 00.038-.461L149.551 180h-.98zm5.392 0l1.345-2.046c-.41-.09-.727-.272-.951-.548-.224-.275-.336-.621-.336-1.037 0-.513.17-.916.509-1.211.346-.294.813-.442 1.403-.442h2.209V180h-.768v-1.979h-1.278L154.847 180h-.884zm1.97-2.661h1.441v-1.941h-1.441c-.346 0-.622.087-.827.26-.205.173-.307.41-.307.711s.102.538.307.711c.205.172.481.259.827.259zM22.784 201.345v-1.998h.432c.11-.122.221-.34.337-.654.121-.32.185-.707.192-1.162l.057-2.815h3.363v4.631h.682v1.998h-.682V200h-3.699v1.345h-.682zm1.249-1.998h2.373v-3.949h-1.883l-.038 2.143c-.007.48-.061.874-.164 1.181-.102.308-.198.516-.288.625zm4.383.72v-.72h.192c.276 0 .477-.112.605-.336.128-.231.196-.612.202-1.144l.067-3.151h3.488V200h-.77v-4.592h-1.97l-.057 2.488c-.006.5-.067.91-.182 1.23-.11.32-.276.557-.5.711-.218.153-.503.23-.855.23h-.22zM34.48 200l1.345-2.046c-.41-.09-.727-.272-.95-.548-.225-.275-.337-.621-.337-1.037 0-.513.17-.916.51-1.211.345-.294.813-.442 1.402-.442h2.21V200h-.77v-1.979h-1.277L35.364 200h-.884zm1.97-2.661h1.44v-1.941h-1.44c-.346 0-.621.087-.826.26-.205.173-.308.41-.308.711s.103.538.308.711c.205.172.48.259.826.259zm10.534 4.39l.778-2.065-1.96-4.948h.846l1.248 3.295c.052.128.1.273.145.433.05.153.09.282.115.384.032-.102.07-.234.115-.394s.09-.304.135-.432l1.172-3.286h.816l-2.603 7.013h-.807zM54.912 200v-1.95a4.427 4.427 0 01-.48.077 8.449 8.449 0 01-.73.029c-.635.006-1.128-.151-1.48-.471-.346-.32-.519-.772-.519-1.355v-1.614h.759v1.614c0 .359.109.637.327.836.224.199.54.298.95.298.295 0 .545-.01.75-.029.205-.026.346-.048.423-.067v-2.652h.759V200h-.76zm4.152.096c-.557 0-.996-.141-1.316-.423-.32-.288-.48-.675-.48-1.162 0-.48.157-.858.47-1.134.314-.281.737-.422 1.269-.422h1.68v-.558c0-.352-.102-.624-.307-.816-.205-.192-.496-.288-.874-.288-.333 0-.611.073-.836.221a.817.817 0 00-.374.595h-.769a1.58 1.58 0 01.634-1.085c.365-.269.82-.404 1.364-.404.59 0 1.057.16 1.403.481.346.313.519.739.519 1.277V200h-.75v-1.028h-.124l.144-.154c0 .391-.15.702-.452.932-.3.231-.701.346-1.2.346zm.183-.615c.422 0 .768-.105 1.037-.317a1 1 0 00.404-.826v-.797h-1.672c-.3 0-.54.083-.72.249-.18.167-.27.394-.27.683 0 .307.11.554.327.739.218.18.516.269.894.269zm5.93.615c-.41 0-.769-.08-1.076-.24a1.764 1.764 0 01-.72-.682c-.167-.301-.25-.657-.25-1.067v-1.498c0-.41.083-.762.25-1.057a1.75 1.75 0 01.72-.692c.307-.16.666-.24 1.076-.24.602 0 1.085.164 1.45.49.365.327.554.772.567 1.336h-.759c-.013-.366-.131-.647-.355-.846-.218-.198-.52-.298-.903-.298-.391 0-.702.116-.932.346-.23.224-.346.545-.346.961v1.498c0 .41.115.731.346.961.23.231.541.346.932.346.384 0 .685-.099.903-.298.224-.205.342-.487.355-.845h.76c-.014.563-.203 1.008-.568 1.335-.365.327-.848.49-1.45.49zm5.295-.096v-4.602h-1.92v-.682h4.61v.682h-1.921V200h-.769zm4.134 0v-5.284h.768v2.248h2.344v-2.248h.769V200h-.769v-2.344h-2.344V200h-.768zm5.69 0v-5.284h.74v3.007c0 .18-.007.372-.02.577a14.544 14.544 0 01-.067 1.018l2.238-4.602h.99V200h-.74v-3.007c0-.186.003-.378.01-.576.012-.199.025-.388.038-.567.02-.186.032-.34.038-.461L81.275 200h-.98zm5.718 0v-5.284h.769v2.219h.999l1.566-2.219h.874l-1.778 2.517L90.26 200h-.893l-1.585-2.402h-1V200h-.768zm7.601.086c-.41 0-.765-.08-1.066-.24a1.695 1.695 0 01-.701-.691c-.167-.301-.25-.657-.25-1.067v-1.46c0-.416.083-.772.25-1.066.166-.301.4-.532.701-.692.301-.16.656-.24 1.066-.24.41 0 .766.08 1.067.24.3.16.534.391.701.692.166.294.25.647.25 1.056v1.47c0 .41-.084.766-.25 1.067-.166.301-.4.531-.701.691-.301.16-.657.24-1.067.24zm0-.682c.397 0 .705-.112.923-.336.217-.224.326-.551.326-.98v-1.46c0-.429-.112-.756-.336-.98-.218-.224-.522-.336-.913-.336-.39 0-.698.112-.922.336-.218.224-.326.551-.326.98v1.46c0 .429.108.756.326.98.224.224.532.336.922.336zm3.75.596v-5.284h2.267c.525 0 .938.125 1.239.375.301.243.451.583.451 1.018 0 .365-.124.66-.374.884-.244.218-.57.327-.98.327v-.068c.442 0 .797.116 1.066.346.269.224.404.525.404.903 0 .468-.16.836-.481 1.105-.313.263-.749.394-1.306.394h-2.287zm.749-.672h1.537c.314 0 .563-.074.749-.221a.758.758 0 00.279-.615c0-.269-.093-.477-.279-.625-.186-.153-.435-.23-.75-.23h-1.536v1.691zm0-2.354h1.518c.281 0 .506-.071.672-.211a.705.705 0 00.259-.577.703.703 0 00-.259-.576c-.166-.148-.39-.221-.672-.221h-1.518v1.585zM23.428 219v-5.284h.768v2.219h1l1.565-2.219h.875l-1.778 2.517L27.674 219h-.893l-1.586-2.402h-.999V219h-.768zm4.988.067v-.72h.192c.276 0 .477-.112.605-.336.128-.231.196-.612.202-1.144l.067-3.151h3.488V219h-.77v-4.592h-1.97l-.057 2.488c-.006.5-.067.91-.182 1.23-.11.32-.276.557-.5.711-.218.153-.503.23-.855.23h-.22zm6.362-.067v-5.284h.74v3.007c0 .18-.007.372-.02.577a14.544 14.544 0 01-.066 1.018l2.238-4.602h.99V219h-.74v-3.007c0-.186.003-.378.01-.576.012-.199.025-.388.038-.567a9.26 9.26 0 00.038-.461L35.758 219h-.98zm7.63.096c-.41 0-.765-.08-1.066-.24a1.762 1.762 0 01-.701-.701 2.13 2.13 0 01-.25-1.048v-1.498c0-.404.083-.753.25-1.047.166-.301.4-.532.701-.692.301-.167.657-.25 1.066-.25.41 0 .766.083 1.067.25.3.16.535.391.701.692.167.294.25.643.25 1.047v.932H41.14v.566c0 .43.11.763.327 1 .224.23.538.345.941.345.34 0 .615-.067.827-.201a.892.892 0 00.413-.586h.759a1.53 1.53 0 01-.644 1.047c-.359.256-.81.384-1.355.384zm1.268-3.064v-.423c0-.429-.108-.759-.326-.99-.218-.237-.532-.355-.942-.355-.403 0-.717.118-.941.355-.218.231-.327.561-.327.99v.336h2.613l-.077.087zM46.157 219v-5.284h.77v2.248h2.343v-2.248h.769V219h-.769v-2.344h-2.344V219h-.769zm7.247 0v-4.602h-1.922v-.682h4.611v.682h-1.921V219h-.768zm6.083.096c-.41 0-.769-.08-1.076-.24a1.764 1.764 0 01-.72-.682c-.167-.301-.25-.657-.25-1.067v-1.498c0-.41.083-.762.25-1.057a1.75 1.75 0 01.72-.692c.307-.16.666-.24 1.076-.24.602 0 1.086.164 1.45.49.366.327.555.772.567 1.336h-.758c-.013-.366-.132-.647-.356-.846-.218-.198-.519-.298-.903-.298-.39 0-.701.116-.932.346-.23.224-.346.545-.346.961v1.498c0 .41.116.731.346.961.23.231.541.346.932.346.384 0 .685-.099.903-.298.224-.205.343-.487.355-.845h.76c-.013.563-.202 1.008-.567 1.335-.365.327-.849.49-1.451.49zm3.768-.096v-5.284h.769v2.219h.999l1.566-2.219h.874l-1.777 2.517L67.5 219h-.893l-1.585-2.402h-1V219h-.768zm5.661 0v-5.284h.74v3.007c0 .18-.007.372-.02.577a14.538 14.538 0 01-.067 1.018l2.239-4.602h.99V219h-.74v-3.007c0-.186.003-.378.01-.576.012-.199.025-.388.038-.567a9.26 9.26 0 00.038-.461L69.896 219h-.98zm5.296 0l1.873-2.719-1.758-2.565h.894l1.114 1.71c.038.064.077.138.115.221l.106.183a5.803 5.803 0 01.22-.404l1.115-1.71h.884l-1.758 2.575L78.881 219h-.894l-1.19-1.806a1.828 1.828 0 01-.135-.231 1.624 1.624 0 00-.106-.211 4.45 4.45 0 01-.26.442l-1.2 1.806h-.884zm11.773 0v-5.284h3.881V219h-.768v-4.592h-2.344V219h-.769zm5.68 1.729v-7.013h.76v.932h.2l-.23.317c0-.416.135-.743.404-.98.275-.243.637-.365 1.085-.365.532 0 .955.176 1.268.529.32.345.48.819.48 1.421v1.566c0 .404-.073.753-.22 1.047a1.642 1.642 0 01-.615.673c-.256.16-.56.24-.913.24-.442 0-.8-.122-1.076-.365-.275-.243-.413-.57-.413-.98l.202.317h-.182l.01 1.076v1.585h-.76zm1.98-2.296c.383 0 .681-.115.893-.346.217-.23.326-.557.326-.98v-1.498c0-.429-.109-.756-.326-.98-.212-.231-.51-.346-.894-.346-.371 0-.67.119-.893.356-.218.23-.327.554-.327.97v1.498c0 .417.109.743.327.98.224.231.522.346.893.346zm5.66.653c-.41 0-.765-.08-1.066-.24a1.695 1.695 0 01-.702-.691c-.166-.301-.25-.657-.25-1.067v-1.46c0-.416.084-.772.25-1.066.167-.301.4-.532.702-.692.3-.16.656-.24 1.066-.24.41 0 .765.08 1.066.24.301.16.535.391.702.692.166.294.249.647.249 1.056v1.47c0 .41-.083.766-.249 1.067a1.7 1.7 0 01-.702.691c-.301.16-.656.24-1.066.24zm0-.682c.397 0 .704-.112.922-.336.218-.224.327-.551.327-.98v-1.46c0-.429-.112-.756-.336-.98-.218-.224-.522-.336-.913-.336-.39 0-.698.112-.922.336-.218.224-.327.551-.327.98v1.46c0 .429.109.756.327.98.224.224.531.336.922.336zm4.095.596v-5.284h3.747v.692h-2.988V219h-.759zm5.334 1.729v-7.013h.759v.932h.202l-.231.317c0-.416.135-.743.404-.98.275-.243.637-.365 1.085-.365.532 0 .955.176 1.268.529.321.345.481.819.481 1.421v1.566c0 .404-.074.753-.221 1.047a1.643 1.643 0 01-.615.673c-.256.16-.56.24-.913.24-.442 0-.8-.122-1.076-.365-.275-.243-.413-.57-.413-.98l.202.317h-.183l.01 1.076v1.585h-.759zm1.979-2.296c.384 0 .682-.115.894-.346.217-.23.326-.557.326-.98v-1.498c0-.429-.109-.756-.326-.98-.212-.231-.51-.346-.894-.346-.371 0-.669.119-.893.356-.218.23-.327.554-.327.97v1.498c0 .417.109.743.327.98.224.231.522.346.893.346zm5.248.663c-.557 0-.996-.141-1.316-.423-.32-.288-.481-.675-.481-1.162 0-.48.157-.858.471-1.134.314-.281.737-.422 1.268-.422h1.681v-.558c0-.352-.102-.624-.307-.816-.205-.192-.496-.288-.874-.288-.333 0-.612.073-.836.221a.816.816 0 00-.375.595h-.768c.064-.454.275-.816.634-1.085.365-.269.82-.404 1.364-.404.589 0 1.057.16 1.403.481.345.313.518.739.518 1.277V219h-.749v-1.028h-.125l.144-.154c0 .391-.15.702-.451.932-.301.231-.702.346-1.201.346zm.182-.615c.423 0 .769-.105 1.038-.317.269-.211.403-.487.403-.826v-.797h-1.671c-.301 0-.541.083-.721.249-.179.167-.269.394-.269.683 0 .307.109.554.327.739.218.18.516.269.893.269zm3.807.519v-5.284h1.057l.768 2.152c.064.186.125.375.183.567.058.192.099.343.125.452.032-.109.073-.26.125-.452.057-.192.118-.384.182-.576l.74-2.143h1.047V219h-.74v-1.268c0-.275.004-.57.01-.884l.019-.941c.007-.314.016-.609.029-.884.013-.282.022-.529.029-.74l-1.047 3.132h-.807l-1.047-3.113c.012.256.022.58.028.971l.02 1.22c.012.429.019.842.019 1.239V219h-.74zm5.69 0v-5.284h1.057l.768 2.152c.064.186.125.375.183.567.057.192.099.343.124.452.032-.109.074-.26.125-.452.058-.192.119-.384.183-.576l.74-2.143h1.047V219h-.74v-1.268c0-.275.003-.57.01-.884l.019-.941c.006-.314.016-.609.029-.884.012-.282.022-.529.028-.74l-1.047 3.132h-.807l-1.047-3.113c.013.256.023.58.029.971l.019 1.22c.013.429.019.842.019 1.239V219h-.739zm7.803.096c-.237 0-.426-.067-.567-.202a.775.775 0 01-.202-.557c0-.243.068-.435.202-.576.141-.141.33-.212.567-.212.237 0 .423.071.557.212.141.141.211.333.211.576 0 .231-.07.416-.211.557-.134.135-.32.202-.557.202z" fill="#000"/><path d="M15.879 16.065c-.448 0-.842-.083-1.182-.25a1.922 1.922 0 01-.778-.72c-.18-.314-.269-.683-.269-1.105v-3.055c0-.43.09-.798.27-1.105.185-.307.444-.544.777-.71.34-.174.734-.26 1.182-.26.455 0 .845.086 1.172.26.333.166.592.403.778.71.186.307.279.676.279 1.105h-1.21c0-.333-.09-.586-.27-.76-.173-.172-.422-.259-.75-.259-.326 0-.579.087-.758.26-.18.173-.269.423-.269.75v3.064c0 .326.09.58.269.759.18.173.432.26.759.26s.576-.087.75-.26c.179-.18.268-.433.268-.76h1.21c0 .417-.092.782-.278 1.096a1.903 1.903 0 01-.778.73c-.327.167-.717.25-1.172.25zm5.651-.01c-.448 0-.839-.083-1.172-.25a1.938 1.938 0 01-.768-.72c-.18-.314-.27-.682-.27-1.105v-1.306c0-.423.09-.788.27-1.095.185-.314.442-.555.768-.721.333-.173.724-.26 1.172-.26.455 0 .846.087 1.172.26.327.166.58.407.76.72.185.308.278.67.278 1.086v1.316c0 .423-.093.791-.279 1.105-.18.307-.432.547-.759.72-.326.167-.717.25-1.172.25zm0-1.047c.32 0 .567-.086.74-.26.18-.179.269-.435.269-.768v-1.306c0-.34-.09-.596-.27-.769-.172-.173-.419-.26-.739-.26-.314 0-.56.087-.74.26-.179.173-.268.43-.268.769v1.306c0 .333.09.59.269.769.179.173.425.26.74.26zm5.43 1.028c-.576 0-1.053-.131-1.431-.394a1.62 1.62 0 01-.682-1.095h1.2a.645.645 0 00.308.375c.167.09.369.134.605.134h.51c.25 0 .445-.057.586-.173a.593.593 0 00.22-.48.586.586 0 00-.21-.48c-.142-.116-.34-.173-.596-.173h-1.21v-.961h1.162c.236 0 .42-.054.547-.163a.55.55 0 00.192-.442.525.525 0 00-.336-.519 1.064 1.064 0 00-.403-.067h-.452a1.1 1.1 0 00-.576.144.613.613 0 00-.289.384h-1.2a1.66 1.66 0 01.672-1.095c.371-.276.836-.413 1.393-.413h.452c.403 0 .749.06 1.037.182.295.116.522.282.682.5.16.211.24.467.24.768 0 .333-.121.606-.365.817-.243.211-.566.323-.97.336v-.038c.461.013.82.134 1.076.365.256.224.384.535.384.932 0 .474-.186.851-.557 1.133-.365.282-.858.423-1.48.423h-.509zm3.308 1.278V14.95h.355c.109-.108.221-.307.336-.595.122-.295.186-.66.192-1.095l.058-2.575h3.699v4.265h.624v2.364h-1.105v-1.345h-3.055v1.345h-1.104zm1.575-2.364h1.921v-3.218h-1.44l-.039 1.528c-.006.429-.06.79-.163 1.085-.096.288-.19.49-.279.605zm6.17 1.115c-.544 0-.973-.144-1.287-.433-.314-.288-.47-.675-.47-1.162 0-.519.172-.919.518-1.2.346-.282.836-.423 1.47-.423h1.316v-.452c0-.256-.083-.455-.25-.596-.166-.147-.394-.22-.682-.22-.263 0-.48.057-.653.172a.675.675 0 00-.308.471h-1.172c.058-.5.282-.896.673-1.191.39-.295.89-.442 1.498-.442.647 0 1.156.163 1.528.49.378.32.567.756.567 1.306v3.584h-1.163v-.922h-.192l.192-.26c0 .39-.144.701-.432.932-.288.23-.672.346-1.153.346zm.394-.903c.34 0 .615-.087.826-.26a.82.82 0 00.327-.672v-.644h-1.297c-.243 0-.439.07-.586.212a.736.736 0 00-.221.557c0 .25.083.448.25.595.173.141.406.212.701.212zm3.75.807v-5.284h1.2v2.046h1.864v-2.046h1.2v5.284h-1.2v-2.123h-1.864v2.123h-1.2zm5.689 0v-5.284h1.085v2.604c0 .166-.01.364-.028.595a10.96 10.96 0 01-.058.663 14.18 14.18 0 01-.077.567l1.864-4.429h1.48v5.284h-1.086v-2.604c0-.173.006-.365.019-.576l.057-.624a9.78 9.78 0 01.077-.52l-1.854 4.324h-1.48zm7.832.096c-.449 0-.84-.087-1.172-.26a1.924 1.924 0 01-.779-.72 2.169 2.169 0 01-.268-1.095v-1.326c0-.416.09-.778.268-1.085a1.9 1.9 0 01.779-.73c.333-.174.723-.26 1.172-.26.442 0 .826.086 1.153.26.333.172.589.416.768.73.186.307.279.669.279 1.085v.951H54.62v.375c0 .371.09.653.269.845.18.186.445.279.797.279.27 0 .487-.045.654-.135a.642.642 0 00.317-.413h1.181c-.09.455-.333.82-.73 1.095-.39.27-.868.404-1.431.404zm1.037-3.122v-.289c0-.365-.086-.643-.26-.835-.172-.199-.431-.298-.777-.298-.346 0-.609.1-.788.298-.18.198-.269.48-.269.845v.202l2.18-.02-.086.097zm8.2 3.026v-5.284h4.265v5.284h-1.2v-4.17h-1.864v4.17h-1.201zm5.68 1.729v-7.013h1.172v1.009h.269l-.27.278c0-.429.129-.765.385-1.008.256-.25.602-.375 1.038-.375.531 0 .957.182 1.277.548.32.365.48.855.48 1.47v1.43c0 .41-.073.77-.22 1.077a1.63 1.63 0 01-.606.701c-.262.167-.573.25-.931.25-.436 0-.782-.122-1.038-.365-.256-.25-.384-.59-.384-1.019l.269.279h-.279l.039 1.258v1.48h-1.201zm2.17-2.67c.308 0 .549-.09.721-.27.173-.179.26-.435.26-.768v-1.326c0-.333-.087-.59-.26-.768-.172-.18-.413-.27-.72-.27-.301 0-.538.093-.711.28-.173.178-.26.431-.26.758v1.326c0 .326.087.583.26.768.173.18.41.27.71.27zm5.662 1.027c-.449 0-.84-.083-1.172-.25a1.938 1.938 0 01-.769-.72c-.18-.314-.269-.682-.269-1.105v-1.306c0-.423.09-.788.27-1.095.185-.314.441-.555.768-.721.333-.173.723-.26 1.172-.26.454 0 .845.087 1.172.26.326.166.58.407.759.72.185.308.278.67.278 1.086v1.316c0 .423-.093.791-.278 1.105-.18.307-.433.547-.76.72-.326.167-.717.25-1.171.25zm0-1.047c.32 0 .566-.086.74-.26.179-.179.268-.435.268-.768v-1.306c0-.34-.09-.596-.269-.769-.172-.173-.42-.26-.74-.26-.313 0-.56.087-.739.26-.18.173-.269.43-.269.769v1.306c0 .333.09.59.269.769.18.173.426.26.74.26zm3.97.96v-5.283h3.938v1.114h-2.737v4.17h-1.201zm5.267 1.73v-7.013h1.172v1.009h.269l-.27.278c0-.429.129-.765.385-1.008.256-.25.602-.375 1.038-.375.531 0 .957.182 1.277.548.32.365.48.855.48 1.47v1.43c0 .41-.073.77-.22 1.077a1.63 1.63 0 01-.606.701c-.262.167-.573.25-.931.25-.436 0-.782-.122-1.038-.365-.256-.25-.384-.59-.384-1.019l.269.279h-.279l.039 1.258v1.48h-1.201zm2.17-2.67c.308 0 .548-.09.721-.27.173-.179.26-.435.26-.768v-1.326c0-.333-.087-.59-.26-.768-.173-.18-.413-.27-.72-.27-.301 0-.538.093-.711.28-.173.178-.26.431-.26.758v1.326c0 .326.087.583.26.768.173.18.41.27.71.27zm5.076 1.037c-.545 0-.974-.144-1.288-.433-.313-.288-.47-.675-.47-1.162 0-.519.173-.919.518-1.2.346-.282.836-.423 1.47-.423h1.316v-.452c0-.256-.083-.455-.25-.596-.166-.147-.393-.22-.681-.22-.263 0-.48.057-.654.172a.675.675 0 00-.307.471h-1.172c.057-.5.282-.896.672-1.191.391-.295.89-.442 1.499-.442.647 0 1.156.163 1.527.49.378.32.567.756.567 1.306v3.584h-1.162v-.922h-.192l.192-.26c0 .39-.144.701-.433.932-.288.23-.672.346-1.152.346zm.394-.903c.339 0 .614-.087.826-.26a.82.82 0 00.326-.672v-.644H95.16c-.243 0-.438.07-.586.212a.736.736 0 00-.22.557c0 .25.083.448.25.595.172.141.406.212.7.212zm3.537.807v-5.284h1.441l.654 1.989c.07.217.128.422.172.615.052.192.084.336.097.432l.086-.432a7.51 7.51 0 01.173-.615l.624-1.989h1.441v5.284h-1.114v-.903a48.575 48.575 0 01.038-1.71l.039-.894.048-.759-.797 2.738h-1.096l-.826-2.728c.02.269.039.602.058 1a36.786 36.786 0 01.077 2.354v.902H98.84zm5.69 0v-5.284h1.441l.653 1.989c.071.217.128.422.173.615.051.192.083.336.096.432l.087-.432a7.51 7.51 0 01.173-.615l.624-1.989h1.441v5.284h-1.114v-.903a39.911 39.911 0 01.038-1.71l.039-.894.048-.759-.798 2.738h-1.095l-.826-2.728c.019.269.038.602.057 1a36.144 36.144 0 01.077 2.354v.902h-1.114zm5.632 0v-5.284h1.037v1.787h.356c.57 0 1.021.16 1.354.48.334.32.5.75.5 1.287 0 .526-.17.945-.509 1.259-.333.314-.781.47-1.345.47h-1.393zm1.037-.932h.356c.275 0 .487-.07.634-.212.154-.14.231-.336.231-.585 0-.263-.077-.468-.231-.615-.147-.148-.359-.221-.634-.221h-.356v1.633zm2.729.932v-5.284h1.037v5.284h-1.037zM13.179 35.036v-1.095h.24a.54.54 0 00.49-.26c.116-.179.177-.46.183-.845l.058-3.151h3.823v5.284h-1.2v-4.17H15.33l-.038 2.104c-.013.461-.09.852-.23 1.172a1.605 1.605 0 01-.606.72c-.262.16-.583.241-.96.241h-.317zm8.351.02c-.448 0-.839-.084-1.172-.25a1.938 1.938 0 01-.768-.721c-.18-.314-.27-.682-.27-1.105v-1.306c0-.423.09-.788.27-1.096.185-.313.442-.553.768-.72.333-.173.724-.26 1.172-.26.455 0 .846.087 1.172.26.327.166.58.407.76.72.185.308.278.67.278 1.086v1.316c0 .423-.093.791-.279 1.105-.18.307-.432.547-.759.72-.326.167-.717.25-1.172.25zm0-1.048c.32 0 .567-.086.74-.26.18-.179.269-.435.269-.768v-1.306c0-.34-.09-.596-.27-.769-.172-.173-.419-.26-.739-.26-.314 0-.56.087-.74.26-.179.173-.268.43-.268.769v1.306c0 .333.09.59.269.769.179.173.425.26.74.26zm3.327.96l1.239-1.93a1.65 1.65 0 01-.855-.586 1.611 1.611 0 01-.308-.99c0-.557.186-.992.558-1.306.371-.314.883-.471 1.537-.471h2.325v5.284H28.16v-1.797h-.855L26.23 34.97h-1.373zm2.219-2.756h1.085v-1.538h-1.085c-.295 0-.525.068-.692.202-.166.135-.25.327-.25.577 0 .237.084.422.25.557.167.134.397.202.692.202zm3.172 2.824v-1.095h.24a.54.54 0 00.49-.26c.116-.179.177-.46.183-.845l.058-3.151h3.823v5.284h-1.2v-4.17H32.4l-.038 2.104c-.013.461-.09.852-.23 1.172a1.605 1.605 0 01-.606.72c-.262.16-.583.241-.96.241h-.318zm6.257-.067v-5.284h1.2v1.73h1.365c.64 0 1.14.16 1.498.48.366.313.548.749.548 1.306 0 .544-.186.977-.557 1.297-.365.314-.858.47-1.48.47h-2.574zm1.2-1.057h1.317c.282 0 .496-.06.644-.182.153-.129.23-.308.23-.538 0-.231-.077-.407-.23-.529-.148-.128-.362-.192-.644-.192h-1.316v1.441zm4.451 1.057v-5.284h1.2v2.046h1.865v-2.046h1.2v5.284h-1.2v-2.123h-1.864v2.123h-1.2zm7.822.086c-.448 0-.839-.083-1.172-.25a1.938 1.938 0 01-.768-.72c-.18-.314-.27-.682-.27-1.105v-1.306c0-.423.09-.788.27-1.096.186-.313.442-.553.768-.72.334-.173.724-.26 1.172-.26.455 0 .846.087 1.172.26.327.166.58.407.76.72.185.308.278.67.278 1.086v1.316c0 .423-.093.791-.279 1.105a1.873 1.873 0 01-.758.72c-.327.167-.718.25-1.173.25zm0-1.047c.32 0 .567-.086.74-.26.18-.179.27-.435.27-.768v-1.306c0-.34-.09-.596-.27-.769-.173-.173-.42-.26-.74-.26-.313 0-.56.087-.74.26-.179.173-.268.43-.268.769v1.306c0 .333.09.59.269.769.18.173.426.26.74.26zm5.71 1.057c-.449 0-.843-.083-1.182-.25a1.923 1.923 0 01-.779-.72c-.185-.314-.278-.682-.278-1.105v-1.326c0-.43.093-.797.279-1.105.185-.307.445-.544.778-.71.34-.174.733-.26 1.181-.26.666 0 1.198.173 1.595.519.397.34.605.803.625 1.393h-1.201c-.02-.276-.119-.487-.298-.634-.173-.154-.413-.23-.72-.23-.32 0-.574.089-.76.268-.185.173-.278.423-.278.75v1.335c0 .326.093.58.278.759.186.179.44.269.76.269.307 0 .547-.074.72-.221.18-.154.278-.368.298-.644h1.2c-.019.59-.227 1.057-.624 1.403-.397.34-.929.509-1.595.509zm5.064-.096v-4.18h-1.806v-1.104h4.823v1.105h-1.806v4.179h-1.21zm4.163 0v-5.284H66v2.604c0 .166-.01.364-.028.595a14.016 14.016 0 01-.135 1.23l1.864-4.429h1.48v5.284h-1.087v-2.604c0-.173.007-.365.02-.576l.057-.625c.026-.205.052-.377.077-.518l-1.854 4.323h-1.48zm7.822-3.766c-.269 0-.487-.074-.653-.221a.778.778 0 01-.24-.586c0-.243.08-.439.24-.586.166-.147.384-.221.653-.221.27 0 .484.074.644.22a.75.75 0 01.25.587.763.763 0 01-.25.586c-.16.147-.375.22-.644.22zm0 3.862c-.269 0-.487-.074-.653-.221a.758.758 0 01-.24-.586c0-.244.08-.439.24-.586.166-.147.384-.221.653-.221.27 0 .484.074.644.22.166.148.25.343.25.587a.744.744 0 01-.25.586c-.16.147-.375.22-.644.22z" fill="#fff"/><defs><filter id="filter0_d_2002_17" x=".157" y="0" width="179.685" height="261.685" filterUnits="userSpaceOnUse" color-interpolation-filters="sRGB"><feFlood flood-opacity="0" result="BackgroundImageFix"/><feColorMatrix in="SourceAlpha" values="0 0 0 0 0 0 0 0 0 0 0 0 0 0 0 0 0 0 127 0" result="hardAlpha"/><feOffset dy="3.843"/><feGaussianBlur stdDeviation="1.921"/><feComposite in2="hardAlpha" operator="out"/><feColorMatrix values="0 0 0 0 0 0 0 0 0 0 0 0 0 0 0 0 0 0 0.25 0"/><feBlend in2="BackgroundImageFix" result="effect1_dropShadow_2002_17"/><feBlend in="SourceGraphic" in2="effect1_dropShadow_2002_17" result="shape"/></filter></defs></svg>