<svg width="180" height="216" fill="none" xmlns="http://www.w3.org/2000/svg"><g filter="url(#filter0_d_2002_19)"><rect x="4" width="172" height="208" rx="16.011" fill="#875C9C"/></g><mask id="a" style="mask-type:alpha" maskUnits="userSpaceOnUse" x="4" y="0" width="172" height="43"><path fill="#C9D9CD" d="M4 0h172v42.005H4z"/></mask><g mask="url(#a)"><rect x="4" y="-1.68" width="172" height="117.615" rx="16.011" fill="#E0F4FF"/></g><path d="M16.73 60.58c-.32 0-.582-.1-.787-.299-.199-.205-.298-.467-.298-.788 0-.32.1-.58.298-.778.205-.205.467-.307.788-.307.32 0 .58.102.778.307.205.199.307.458.307.778s-.102.583-.307.788c-.199.199-.458.298-.778.298zM23.4 63v-7.013h3.881V63h-.768v-6.321h-2.345V63H23.4zm5.68 1.73v-7.014h.759v.932h.202l-.23.317c0-.416.134-.743.403-.98.275-.243.637-.365 1.085-.365.532 0 .954.176 1.268.529.32.345.48.82.48 1.421v1.566c0 .404-.073.753-.22 1.047a1.646 1.646 0 01-.615.673c-.256.16-.56.24-.913.24-.442 0-.8-.122-1.076-.365-.275-.243-.413-.57-.413-.98l.202.317h-.183l.01 1.076v1.585h-.759zm1.979-2.297c.384 0 .682-.115.893-.346.218-.23.327-.557.327-.98V59.61c0-.43-.109-.756-.327-.98-.211-.23-.509-.346-.893-.346-.372 0-.67.119-.893.355-.218.231-.327.555-.327.97v1.5c0 .416.109.742.326.98.225.23.522.345.894.345zm5.66.654c-.41 0-.765-.08-1.066-.24a1.698 1.698 0 01-.7-.692c-.167-.301-.25-.657-.25-1.067v-1.46c0-.416.083-.772.25-1.066.166-.301.4-.532.7-.692.301-.16.657-.24 1.067-.24.41 0 .765.08 1.066.24.301.16.535.39.701.692.167.294.25.647.25 1.056v1.47c0 .41-.083.766-.25 1.067a1.7 1.7 0 01-.7.691c-.302.16-.657.24-1.067.24zm0-.683c.398 0 .705-.112.923-.336.218-.224.327-.55.327-.98v-1.46c0-.43-.112-.756-.337-.98-.217-.224-.522-.336-.912-.336s-.698.112-.922.336c-.218.224-.327.55-.327.98v1.46c0 .43.109.756.327.98.224.224.531.336.922.336zm5.277.692c-.557 0-.995-.14-1.316-.423-.32-.288-.48-.675-.48-1.162 0-.48.157-.858.47-1.134.314-.281.737-.422 1.269-.422h1.68v-.557c0-.353-.102-.625-.306-.817-.206-.192-.497-.288-.875-.288-.333 0-.611.073-.835.22a.819.819 0 00-.375.596h-.769c.064-.454.276-.816.634-1.085.365-.27.82-.404 1.364-.404.59 0 1.057.16 1.403.48.346.314.519.74.519 1.278V63h-.75v-1.028h-.124l.144-.154c0 .391-.15.702-.452.932-.3.23-.701.346-1.2.346zm.183-.615c.423 0 .768-.105 1.037-.317a.998.998 0 00.404-.826v-.797h-1.672c-.3 0-.54.083-.72.25-.18.166-.27.393-.27.681 0 .308.11.554.328.74.217.18.515.27.893.27zm3.98.519v-5.284h.768v2.248h2.344v-2.248h.769V63h-.769v-2.344h-2.344V63h-.769zm7.217.096c-.557 0-.996-.14-1.316-.423-.32-.288-.48-.675-.48-1.162 0-.48.156-.858.47-1.134.314-.281.736-.422 1.268-.422h1.681v-.557c0-.353-.102-.625-.307-.817-.205-.192-.497-.288-.874-.288-.334 0-.612.073-.836.22a.819.819 0 00-.375.596h-.768c.064-.454.275-.816.634-1.085.365-.27.82-.404 1.364-.404.589 0 1.056.16 1.402.48.346.314.52.74.52 1.278V63h-.75v-1.028h-.125l.144-.154c0 .391-.15.702-.452.932-.3.23-.7.346-1.2.346zm.182-.615c.423 0 .769-.105 1.038-.317a1 1 0 00.403-.826v-.797h-1.671c-.301 0-.542.083-.72.25-.18.166-.27.393-.27.681 0 .308.109.554.327.74.218.18.515.27.893.27zm3.307.586v-.72h.193c.275 0 .477-.112.605-.337.128-.23.195-.611.202-1.143l.067-3.15h3.487V63h-.769v-4.592h-1.97l-.058 2.488c-.006.5-.067.91-.182 1.23-.109.32-.276.557-.5.71-.217.154-.502.231-.855.231h-.22zM63.227 63v-5.284h.74v3.007c0 .18-.007.372-.02.577a14.568 14.568 0 01-.067 1.018l2.238-4.602h.99V63h-.74v-3.007c0-.186.003-.378.01-.576.012-.199.025-.388.038-.567.02-.186.032-.34.038-.461L64.206 63h-.98zm7.38.077c-.55 0-.996-.119-1.335-.356a1.43 1.43 0 01-.615-.96h.797c.051.185.176.34.375.46.205.116.464.174.778.174h.47c.327 0 .584-.08.77-.24a.792.792 0 00.287-.625.85.85 0 00-.269-.653c-.179-.167-.435-.25-.768-.25h-1.182v-.663h1.163c.3 0 .531-.077.691-.23a.774.774 0 00.25-.596.792.792 0 00-.115-.432.727.727 0 00-.336-.279 1.166 1.166 0 00-.51-.105h-.5c-.287 0-.524.064-.71.192a.76.76 0 00-.346.47h-.797c.064-.397.26-.72.586-.97.333-.25.755-.375 1.268-.375h.5c.358 0 .669.061.931.183a1.4 1.4 0 01.606.51c.147.217.22.473.22.768 0 .32-.099.586-.297.797-.193.205-.465.32-.817.346v.038c.423.026.733.15.932.375.198.218.298.519.298.903 0 .455-.17.823-.51 1.105-.332.275-.78.413-1.344.413h-.471zM74.606 63v-5.284h.74v3.007c0 .18-.007.372-.02.577a14.568 14.568 0 01-.067 1.018l2.238-4.602h.99V63h-.74v-3.007c0-.186.003-.378.01-.576.013-.199.025-.388.038-.567.02-.186.032-.34.039-.461L75.586 63h-.98zm5.68 1.73v-7.014h.759v.932h.201l-.23.317c0-.416.134-.743.403-.98.276-.243.638-.365 1.086-.365.532 0 .954.176 1.268.529.32.345.48.82.48 1.421v1.566c0 .404-.073.753-.22 1.047a1.646 1.646 0 01-.615.673c-.257.16-.56.24-.913.24-.442 0-.8-.122-1.076-.365-.275-.243-.413-.57-.413-.98l.202.317h-.183l.01 1.076v1.585h-.76zm1.979-2.297c.384 0 .682-.115.893-.346.218-.23.327-.557.327-.98V59.61c0-.43-.109-.756-.327-.98-.211-.23-.509-.346-.893-.346-.372 0-.67.119-.894.355-.217.231-.326.555-.326.97v1.5c0 .416.109.742.326.98.225.23.522.345.894.345zm5.66.654c-.41 0-.765-.08-1.066-.24a1.698 1.698 0 01-.701-.692c-.166-.301-.25-.657-.25-1.067v-1.46c0-.416.084-.772.25-1.066a1.7 1.7 0 01.701-.692c.301-.16.657-.24 1.067-.24.41 0 .765.08 1.066.24.301.16.535.39.701.692.167.294.25.647.25 1.056v1.47c0 .41-.083.766-.25 1.067-.166.3-.4.531-.701.691-.301.16-.656.24-1.066.24zm0-.683c.398 0 .705-.112.923-.336.218-.224.327-.55.327-.98v-1.46c0-.43-.112-.756-.337-.98-.217-.224-.522-.336-.912-.336-.391 0-.698.112-.923.336-.217.224-.326.55-.326.98v1.46c0 .43.109.756.326.98.225.224.532.336.923.336zm3.75.596v-5.284h2.267c.525 0 .938.125 1.24.375.3.243.45.583.45 1.018 0 .365-.124.66-.374.884-.243.218-.57.327-.98.327v-.068c.442 0 .798.116 1.066.346.27.224.404.526.404.903 0 .468-.16.836-.48 1.105-.314.263-.75.394-1.307.394h-2.286zm.75-.672h1.536c.314 0 .564-.074.75-.221a.758.758 0 00.278-.615c0-.27-.093-.477-.279-.625-.185-.153-.435-.23-.749-.23h-1.537v1.69zm0-2.354h1.517c.282 0 .506-.07.672-.211a.704.704 0 00.26-.577.704.704 0 00-.26-.576c-.166-.148-.39-.221-.672-.221h-1.518v1.585zm6.467 3.122c-.557 0-.996-.14-1.316-.423-.32-.288-.48-.675-.48-1.162 0-.48.156-.858.47-1.134.314-.281.737-.422 1.268-.422h1.681v-.557c0-.353-.102-.625-.307-.817-.205-.192-.496-.288-.874-.288-.333 0-.612.073-.836.22a.819.819 0 00-.375.596h-.768c.064-.454.275-.816.634-1.085.365-.27.82-.404 1.364-.404.59 0 1.057.16 1.403.48.345.314.518.74.518 1.278V63h-.749v-1.028h-.125l.144-.154c0 .391-.15.702-.451.932-.301.23-.702.346-1.201.346zm.182-.615c.423 0 .769-.105 1.038-.317a1 1 0 00.403-.826v-.797h-1.671c-.301 0-.541.083-.72.25-.18.166-.27.393-.27.681 0 .308.11.554.327.74.218.18.516.27.893.27zm3.308.586v-.72h.192c.275 0 .477-.112.605-.337.128-.23.195-.611.202-1.143l.067-3.15h3.487V63h-.768v-4.592h-1.97l-.057 2.488c-.007.5-.068.91-.183 1.23-.109.32-.275.557-.499.71-.218.154-.503.231-.855.231h-.221zm6.362-.067v-5.284h.739v3.007c0 .18-.006.372-.019.577a13.461 13.461 0 01-.067 1.018l2.238-4.602h.99V63h-.74v-3.007c0-.186.003-.378.01-.576.013-.199.025-.388.038-.567.019-.186.032-.34.039-.461L109.724 63h-.98zm13.291.096c-.602 0-1.086-.163-1.451-.49-.358-.327-.544-.772-.557-1.335h.769c.012.358.128.64.345.845.218.205.516.308.894.308.39 0 .695-.116.912-.346.225-.237.337-.56.337-.97v-.442h-1.912v-.692h1.912v-.365c0-.416-.112-.74-.337-.97-.217-.231-.522-.346-.912-.346-.378 0-.676.102-.894.307-.217.199-.333.48-.345.846h-.769c.013-.564.199-1.01.557-1.336.365-.327.849-.49 1.451-.49.416 0 .772.08 1.066.24.301.16.532.391.692.692.166.295.25.647.25 1.057v1.498c0 .41-.084.766-.25 1.067-.16.294-.391.522-.692.682-.294.16-.65.24-1.066.24zm5.334-.096v-4.602h-1.921v-.682h4.611v.682h-1.921V63h-.769zm5.661.096c-.557 0-.996-.14-1.316-.423-.321-.288-.481-.675-.481-1.162 0-.48.157-.858.471-1.134.314-.281.737-.422 1.268-.422h1.681v-.557c0-.353-.102-.625-.307-.817-.205-.192-.496-.288-.874-.288-.333 0-.612.073-.836.22a.818.818 0 00-.375.596h-.768c.064-.454.275-.816.634-1.085.365-.27.82-.404 1.364-.404.589 0 1.057.16 1.403.48.345.314.518.74.518 1.278V63h-.749v-1.028h-.125l.144-.154c0 .391-.15.702-.451.932-.301.23-.702.346-1.201.346zm.182-.615c.423 0 .769-.105 1.038-.317a1 1 0 00.403-.826v-.797h-1.671c-.301 0-.541.083-.721.25-.179.166-.269.393-.269.681 0 .308.109.554.327.74.218.18.515.27.893.27zm3.98.519v-5.284h3.881V63h-.768v-4.592h-2.344V63h-.769zm5.411 0v-5.284h.721v1.96h.47c.564 0 1.009.15 1.336.452.333.294.499.698.499 1.21s-.163.92-.49 1.22c-.326.295-.775.442-1.345.442h-1.191zm.721-.624h.47c.359 0 .638-.09.836-.27.205-.185.308-.441.308-.768s-.103-.58-.308-.759c-.198-.186-.477-.279-.836-.279h-.47v2.076zm2.997.624v-5.284h.72V63h-.72zM23.399 82v-5.284h3.881V82h-.768v-4.592h-2.345V82H23.4zm5.68 1.73v-7.014h.759v.932h.202l-.23.317c0-.416.134-.743.403-.98.275-.243.637-.365 1.085-.365.532 0 .954.176 1.268.529.32.345.48.82.48 1.421v1.566c0 .404-.073.753-.22 1.047a1.646 1.646 0 01-.615.673c-.256.16-.56.24-.913.24-.442 0-.8-.122-1.076-.365-.275-.243-.413-.57-.413-.98l.202.317h-.183l.01 1.076v1.585h-.759zm1.979-2.297c.384 0 .682-.115.893-.346.218-.23.327-.557.327-.98V78.61c0-.43-.109-.756-.327-.98-.211-.23-.509-.346-.893-.346-.372 0-.67.119-.893.355-.218.231-.327.554-.327.97v1.5c0 .416.109.742.326.98.225.23.522.345.894.345zm5.66.653c-.41 0-.765-.08-1.066-.24a1.698 1.698 0 01-.7-.691c-.167-.301-.25-.657-.25-1.067v-1.46c0-.416.083-.772.25-1.066.166-.301.4-.532.7-.692.301-.16.657-.24 1.067-.24.41 0 .765.08 1.066.24.301.16.535.39.701.692.167.294.25.647.25 1.056v1.47c0 .41-.083.766-.25 1.067a1.7 1.7 0 01-.7.691c-.302.16-.657.24-1.067.24zm0-.682c.398 0 .705-.112.923-.336.218-.224.327-.55.327-.98v-1.46c0-.43-.112-.756-.337-.98-.217-.224-.522-.336-.912-.336s-.698.112-.922.336c-.218.224-.327.55-.327.98v1.46c0 .43.109.756.327.98.224.224.531.336.922.336zm3.135 1.94v-1.997h.432c.11-.122.221-.34.337-.653.121-.32.185-.708.192-1.163l.057-2.815h3.363v4.63h.682v1.999h-.682V82h-3.699v1.345h-.682zm1.249-1.997h2.373v-3.949h-1.883l-.039 2.143c-.006.48-.06.874-.163 1.181-.102.308-.198.516-.288.625zm6.583.75c-.557 0-.996-.142-1.316-.424-.32-.288-.48-.675-.48-1.162 0-.48.156-.858.47-1.134.314-.281.737-.422 1.268-.422h1.681v-.558c0-.352-.102-.624-.307-.816-.205-.192-.496-.288-.874-.288-.333 0-.612.073-.836.22a.819.819 0 00-.374.596h-.77c.065-.454.276-.816.635-1.085.365-.27.82-.404 1.364-.404.59 0 1.057.16 1.403.48.346.314.519.74.519 1.278V82h-.75v-1.028h-.125l.144-.154c0 .391-.15.702-.451.932-.301.23-.701.346-1.201.346zm.182-.616c.423 0 .77-.105 1.038-.317.269-.211.404-.487.404-.826v-.797h-1.672c-.301 0-.541.083-.72.25-.18.166-.27.393-.27.681 0 .308.11.555.327.74.218.18.516.27.894.27zm3.26.519l1.152-2.71-1.076-2.574h.74l.951 2.335h.567v-2.335h.653v2.335h.548l.98-2.335h.73l-1.076 2.546L56.449 82h-.769l-.99-2.43h-.576V82h-.653v-2.43h-.576L51.876 82h-.75zm12.1 0v-5.284h.74v3.007c0 .18-.007.372-.02.577a14.568 14.568 0 01-.067 1.018l2.238-4.602h.99V82h-.74v-3.007c0-.186.003-.378.01-.576.012-.199.025-.388.038-.567.02-.186.032-.34.038-.461L64.206 82h-.98zm11.379 0v-5.284h2.267c.525 0 .938.125 1.24.375.3.243.45.583.45 1.018 0 .365-.124.66-.374.884-.243.218-.57.327-.98.327v-.067c.442 0 .798.115 1.067.345.269.225.403.526.403.903 0 .468-.16.836-.48 1.105-.314.263-.75.394-1.307.394h-2.286zm.75-.672h1.536c.314 0 .564-.074.75-.221a.758.758 0 00.278-.615c0-.27-.093-.477-.279-.625-.185-.153-.435-.23-.749-.23h-1.537v1.69zm0-2.354h1.517c.282 0 .506-.07.672-.212a.704.704 0 00.26-.576.704.704 0 00-.26-.576c-.166-.148-.39-.221-.672-.221h-1.518v1.585zm6.63 3.103c-.55 0-.996-.119-1.335-.356a1.43 1.43 0 01-.615-.96h.797c.052.186.177.34.375.46.205.116.464.174.778.174h.471c.327 0 .583-.08.769-.24a.792.792 0 00.288-.625.85.85 0 00-.27-.653c-.179-.167-.435-.25-.768-.25h-1.181v-.663h1.162c.301 0 .532-.077.692-.23a.774.774 0 00.25-.596.793.793 0 00-.116-.432.728.728 0 00-.336-.279 1.166 1.166 0 00-.51-.106h-.499c-.288 0-.525.065-.71.193a.76.76 0 00-.346.47h-.798c.064-.397.26-.72.586-.97.333-.25.756-.375 1.268-.375h.5c.358 0 .669.061.932.183a1.4 1.4 0 01.605.51c.147.217.22.473.22.768 0 .32-.098.586-.297.797-.192.205-.464.32-.817.346v.038c.423.026.734.15.932.375.199.218.298.519.298.903 0 .455-.17.823-.51 1.105-.332.275-.78.413-1.344.413h-.47zm5.527.02c-.558 0-.996-.142-1.317-.424-.32-.288-.48-.675-.48-1.162 0-.48.157-.858.47-1.134.315-.281.737-.422 1.269-.422h1.681v-.558c0-.352-.102-.624-.307-.816-.205-.192-.497-.288-.874-.288-.334 0-.612.073-.836.22a.82.82 0 00-.375.596h-.769c.065-.454.276-.816.635-1.085.365-.27.82-.404 1.364-.404.589 0 1.056.16 1.402.48.346.314.52.74.52 1.278V82h-.75v-1.028h-.125l.144-.154c0 .391-.15.702-.452.932-.3.23-.7.346-1.2.346zm.182-.616c.423 0 .769-.105 1.038-.317.269-.211.403-.487.403-.826v-.797h-1.671c-.302 0-.542.083-.721.25-.18.166-.269.393-.269.681 0 .308.109.555.327.74.217.18.515.27.893.27zm3.98.519v-5.284h.74v3.007c0 .18-.007.372-.02.577a14.568 14.568 0 01-.067 1.018l2.238-4.602h.99V82h-.74v-3.007c0-.186.003-.378.01-.576.013-.199.025-.388.038-.567.02-.186.032-.34.039-.461L92.655 82h-.98zm5.517 0v-5.284h1.056l.769 2.152a13.91 13.91 0 01.307 1.018c.032-.108.074-.259.125-.451.058-.192.119-.384.183-.576l.739-2.143h1.047V82h-.739v-1.268c0-.275.003-.57.009-.884l.02-.941c.006-.314.016-.609.028-.884.013-.282.023-.529.029-.74l-1.047 3.132h-.807l-1.047-3.113c.013.256.022.58.029.97l.019 1.22c.013.43.02.843.02 1.24V82h-.74zm7.803.087c-.41 0-.766-.08-1.067-.24a1.7 1.7 0 01-.701-.692c-.167-.301-.25-.657-.25-1.067v-1.46c0-.416.083-.772.25-1.066a1.7 1.7 0 01.701-.692c.301-.16.657-.24 1.067-.24.41 0 .765.08 1.066.24.301.16.535.39.701.692.167.294.25.647.25 1.056v1.47c0 .41-.083.766-.25 1.067-.166.3-.4.531-.701.691-.301.16-.656.24-1.066.24zm0-.683c.397 0 .704-.112.922-.336.218-.224.327-.55.327-.98v-1.46c0-.43-.113-.756-.337-.98-.217-.224-.522-.336-.912-.336-.391 0-.698.112-.923.336-.217.224-.326.55-.326.98v1.46c0 .43.109.756.326.98.225.224.532.336.923.336zm3.134 1.94v-1.997h.432c.109-.122.221-.34.336-.653.122-.32.186-.708.193-1.163l.057-2.815h3.363v4.63h.682v1.999h-.682V82h-3.699v1.345h-.682zm1.249-1.997h2.373v-3.949h-1.883l-.039 2.143c-.006.48-.061.874-.163 1.181-.102.308-.199.516-.288.625zm6.996.75c-.41 0-.765-.081-1.066-.241a1.764 1.764 0 01-.702-.701 2.133 2.133 0 01-.249-1.047v-1.5c0-.403.083-.752.249-1.046.167-.301.401-.532.702-.692.301-.166.656-.25 1.066-.25.41 0 .765.084 1.066.25.301.16.535.39.702.692.166.294.249.643.249 1.047v.932h-3.285v.567c0 .429.109.762.326.999.225.23.538.345.942.345.339 0 .615-.067.826-.201a.887.887 0 00.413-.586h.759c-.07.442-.285.79-.643 1.047-.359.256-.811.384-1.355.384zm1.268-3.066v-.422c0-.43-.109-.76-.327-.99-.217-.237-.531-.355-.941-.355-.404 0-.717.118-.942.355-.217.23-.326.56-.326.99v.336h2.613l-.077.087zM120.123 82v-5.284h.74v3.007c0 .18-.007.372-.019.577a15.389 15.389 0 01-.068 1.018l2.239-4.602h.989V82h-.74v-3.007c0-.186.004-.378.01-.576l.038-.567c.02-.186.033-.34.039-.461L121.103 82h-.98zm1.979-6.158c-.455 0-.82-.125-1.095-.375-.269-.256-.404-.592-.404-1.008h.615c0 .262.077.474.231.634.16.16.374.24.643.24.276 0 .494-.08.654-.24.16-.16.24-.372.24-.634h.615c0 .416-.138.752-.413 1.008-.269.25-.631.375-1.086.375zm5.661 6.254c-.41 0-.769-.08-1.076-.24a1.76 1.76 0 01-.721-.682c-.166-.301-.249-.657-.249-1.067V78.61c0-.41.083-.762.249-1.057.173-.3.413-.532.721-.692.307-.16.666-.24 1.076-.24.602 0 1.085.163 1.45.49.366.327.554.772.567 1.335h-.759c-.012-.365-.131-.646-.355-.845-.218-.198-.519-.298-.903-.298-.391 0-.701.116-.932.346-.231.224-.346.544-.346.96v1.5c0 .41.115.73.346.96.231.23.541.346.932.346.384 0 .685-.1.903-.298.224-.205.343-.487.355-.845h.759c-.013.563-.201 1.008-.567 1.335-.365.327-.848.49-1.45.49zm5.296-.096v-4.602h-1.922v-.682h4.612v.682h-1.922V82h-.768zm4.133 0v-5.284h2.267c.525 0 .938.125 1.239.375.301.243.452.583.452 1.018 0 .365-.125.66-.375.884-.243.218-.57.327-.98.327v-.067c.442 0 .798.115 1.067.345.269.225.403.526.403.903 0 .468-.16.836-.48 1.105-.314.263-.749.394-1.307.394h-2.286zm.749-.672h1.537c.314 0 .564-.074.75-.221a.76.76 0 00.278-.615c0-.27-.093-.477-.278-.625-.186-.153-.436-.23-.75-.23h-1.537v1.69zm0-2.354h1.518c.282 0 .506-.07.673-.212a.703.703 0 00.259-.576.703.703 0 00-.259-.576c-.167-.148-.391-.221-.673-.221h-1.518v1.585zM142.882 82v-5.284h.739v3.007c0 .18-.006.372-.019.577a13.461 13.461 0 01-.067 1.018l2.238-4.602h.99V82h-.74v-3.007c0-.186.003-.378.01-.576.012-.199.025-.388.038-.567.019-.186.032-.34.039-.461L143.862 82h-.98zm5.392 0l1.344-2.046c-.409-.09-.726-.272-.951-.548-.224-.275-.336-.621-.336-1.037 0-.513.17-.916.509-1.21.346-.295.814-.443 1.403-.443h2.209V82h-.768v-1.979h-1.278L149.157 82h-.883zm1.969-2.661h1.441v-1.94h-1.441c-.346 0-.621.086-.826.259-.205.173-.308.41-.308.71 0 .302.103.539.308.712.205.172.48.259.826.259zM25.349 101.096a2.3 2.3 0 01-1.076-.24 1.764 1.764 0 01-.72-.682c-.167-.301-.25-.657-.25-1.067V97.61c0-.41.083-.762.25-1.057.172-.3.413-.532.72-.692a2.3 2.3 0 011.076-.24c.602 0 1.086.163 1.45.49.366.327.555.772.567 1.335h-.758c-.013-.365-.132-.646-.356-.845-.218-.198-.519-.298-.903-.298-.39 0-.701.116-.932.346-.23.224-.346.544-.346.96v1.5c0 .41.116.73.346.96.23.231.541.346.932.346.384 0 .685-.099.903-.298.224-.205.343-.487.356-.845h.758c-.012.563-.201 1.008-.566 1.335-.365.327-.849.49-1.45.49zm9.458-.096v-5.284h.769v2.22h.999l1.566-2.22h.874l-1.778 2.517L39.053 101h-.893l-1.585-2.402h-1V101h-.768zm4.988.067v-.72h.192c.276 0 .478-.112.606-.336.128-.231.195-.612.201-1.144l.068-3.15h3.487V101h-.768v-4.592h-1.97l-.058 2.488c-.006.5-.067.91-.182 1.23-.109.32-.276.557-.5.711-.217.153-.502.23-.855.23h-.22zm6.362-.067v-5.284h.74v3.007c0 .18-.006.372-.019.577a14.568 14.568 0 01-.067 1.018l2.238-4.602h.99V101h-.74v-3.007c0-.186.003-.378.01-.576.012-.199.025-.388.038-.567.02-.186.032-.34.038-.461L47.137 101h-.98zm7.63.096c-.41 0-.765-.08-1.066-.24a1.762 1.762 0 01-.7-.701 2.13 2.13 0 01-.25-1.047v-1.5c0-.403.083-.752.25-1.046.166-.301.4-.532.7-.692.301-.166.657-.25 1.067-.25.41 0 .765.084 1.066.25.301.16.535.39.701.692.167.294.25.643.25 1.047v.932H52.52v.567c0 .429.108.762.326.999.224.23.538.345.942.345.34 0 .615-.067.826-.201a.892.892 0 00.413-.586h.759a1.53 1.53 0 01-.644 1.047c-.358.256-.81.384-1.354.384zm1.269-3.065v-.422c0-.43-.109-.76-.327-.99-.218-.237-.531-.355-.941-.355-.404 0-.718.118-.942.355-.217.23-.326.56-.326.99v.336h2.613l-.077.087zm2.48 2.969v-5.284h.77v2.248h2.343v-2.248h.769V101h-.769v-2.344h-2.344V101h-.768zm7.247 0v-4.602H62.86v-.682h4.612v.682H65.55V101h-.768zm5.66.096c-.557 0-.995-.141-1.316-.423-.32-.288-.48-.675-.48-1.162 0-.48.157-.858.47-1.134.315-.281.737-.422 1.269-.422h1.681v-.558c0-.352-.102-.624-.307-.816-.205-.192-.497-.288-.875-.288-.333 0-.611.073-.835.22a.819.819 0 00-.375.596h-.769c.065-.454.276-.816.635-1.085.365-.27.82-.404 1.364-.404.589 0 1.056.16 1.402.48.346.314.52.74.52 1.278V101h-.75v-1.028h-.125l.144-.154c0 .391-.15.702-.452.932-.3.231-.7.346-1.2.346zm.183-.615c.423 0 .769-.105 1.038-.317.269-.211.403-.487.403-.826v-.797h-1.671c-.301 0-.542.083-.72.25-.18.166-.27.393-.27.681 0 .308.109.555.327.74.218.18.515.269.893.269zm3.807.519v-5.284h1.057l.768 2.152c.064.186.125.375.183.567.057.192.099.343.125.451.032-.108.073-.259.124-.451.058-.192.119-.384.183-.576l.74-2.143h1.047V101h-.74v-1.268c0-.275.003-.57.01-.884l.019-.941c.006-.314.016-.609.029-.884.013-.282.022-.529.029-.74l-1.047 3.132h-.807l-1.048-3.113c.013.256.023.58.03.97l.018 1.22c.013.43.02.843.02 1.24V101h-.74zm5.862 0v-5.284h.74v3.007c0 .18-.006.372-.019.577a14.568 14.568 0 01-.067 1.018l2.238-4.602h.99V101h-.74v-3.007c0-.186.003-.378.01-.576.012-.199.025-.388.038-.567.02-.186.032-.34.038-.461L81.275 101h-.98zm7.63.096c-.236 0-.425-.067-.566-.202-.135-.141-.202-.326-.202-.557 0-.243.067-.435.202-.576.14-.141.33-.212.567-.212.237 0 .422.07.557.212.14.14.211.333.211.576 0 .231-.07.416-.211.557-.135.135-.32.202-.557.202zm-71.194 17.483c-.32 0-.583-.099-.788-.298-.199-.205-.298-.467-.298-.787 0-.321.1-.58.298-.779.205-.205.467-.307.788-.307.32 0 .58.102.778.307.205.199.307.458.307.779 0 .32-.102.582-.307.787-.199.199-.458.298-.778.298zM23.399 121v-7.013h1.93c.628 0 1.122.163 1.48.49.359.32.538.762.538 1.326 0 .32-.067.602-.202.845a1.369 1.369 0 01-.557.557c-.237.128-.525.189-.864.183v-.135c.365 0 .679.074.941.221.27.141.477.349.625.625.147.269.22.589.22.96 0 .398-.083.743-.25 1.038a1.716 1.716 0 01-.71.672c-.308.154-.676.231-1.105.231H23.4zm.74-.692h1.239c.429 0 .765-.112 1.009-.336.25-.23.374-.541.374-.932 0-.403-.125-.727-.374-.97-.244-.25-.58-.375-1.01-.375H24.14v2.613zm0-3.276h1.19c.392 0 .699-.105.923-.317.224-.211.336-.499.336-.864s-.112-.65-.336-.855c-.218-.212-.525-.317-.922-.317h-1.191v2.353zM28.81 121v-5.284h.72v1.96h.471c.564 0 1.009.151 1.335.452.334.294.5.698.5 1.21s-.163.919-.49 1.22c-.326.295-.775.442-1.345.442H28.81zm.72-.624h.471c.359 0 .637-.09.836-.269.205-.186.307-.442.307-.769s-.102-.58-.307-.759c-.198-.186-.477-.278-.836-.278h-.47v2.075zm2.998.624v-5.284h.72V121h-.72zm1.952 0l1.345-2.046c-.41-.09-.727-.272-.95-.548-.225-.275-.337-.621-.337-1.037 0-.513.17-.916.51-1.211.345-.294.813-.442 1.402-.442h2.21V121h-.77v-1.979h-1.277L35.364 121h-.884zm1.97-2.661h1.44v-1.941h-1.44c-.346 0-.621.087-.826.26-.205.173-.308.41-.308.711s.103.538.308.711c.205.172.48.259.826.259zM40.468 121v-5.284h2.267c.525 0 .938.125 1.24.375.3.243.45.583.45 1.018 0 .365-.124.66-.374.884-.243.218-.57.327-.98.327v-.068c.442 0 .798.116 1.067.346.269.224.403.525.403.903 0 .468-.16.836-.48 1.105-.314.263-.75.394-1.307.394h-2.286zm.75-.672h1.536c.314 0 .564-.074.75-.221a.759.759 0 00.278-.615c0-.269-.093-.477-.278-.625-.186-.153-.436-.23-.75-.23h-1.537v1.691zm0-2.354h1.517c.282 0 .506-.071.672-.211a.705.705 0 00.26-.577.703.703 0 00-.26-.576c-.166-.148-.39-.221-.672-.221h-1.518v1.585zm4.94 3.026v-5.284h.74v3.007c0 .18-.007.372-.02.577a14.544 14.544 0 01-.067 1.018l2.238-4.602h.99V121h-.74v-3.007c0-.186.003-.378.01-.576.012-.199.025-.388.038-.567.02-.186.032-.34.038-.461L47.137 121h-.98zm5.017.067v-.72h.192c.275 0 .477-.112.605-.336.128-.231.195-.612.202-1.144l.067-3.151h3.487V121h-.768v-4.592h-1.97l-.057 2.488c-.007.5-.068.91-.183 1.23-.109.32-.275.557-.5.711-.217.153-.502.23-.854.23h-.221zm6.362-.067v-5.284h.74v3.007c0 .18-.007.372-.02.577a14.544 14.544 0 01-.067 1.018l2.239-4.602h.989V121h-.74v-3.007c0-.186.004-.378.01-.576l.038-.567c.02-.186.032-.34.039-.461L58.517 121h-.98zm13.33.096c-.41 0-.77-.08-1.077-.24a1.764 1.764 0 01-.72-.682c-.167-.301-.25-.657-.25-1.067v-1.498c0-.41.083-.762.25-1.057a1.75 1.75 0 01.72-.692 2.3 2.3 0 011.076-.24c.602 0 1.086.164 1.45.49.366.327.555.772.568 1.336h-.76c-.012-.366-.13-.647-.355-.846-.217-.198-.518-.298-.903-.298-.39 0-.701.116-.931.346-.231.224-.346.545-.346.961v1.498c0 .41.115.731.346.961.23.231.54.346.931.346.385 0 .686-.099.903-.298.224-.205.343-.487.356-.845h.759c-.013.563-.202 1.008-.567 1.335-.365.327-.849.49-1.45.49zm5.295-.096v-4.602h-1.921v-.682h4.611v.682h-1.921V121h-.769zm5.66.096c-.556 0-.995-.141-1.315-.423-.32-.288-.48-.675-.48-1.162 0-.48.156-.858.47-1.134.314-.281.737-.422 1.268-.422h1.681v-.558c0-.352-.102-.624-.307-.816-.205-.192-.496-.288-.874-.288-.333 0-.612.073-.836.221a.817.817 0 00-.375.595h-.768a1.58 1.58 0 01.634-1.085c.365-.269.82-.404 1.364-.404.59 0 1.057.16 1.403.481.346.313.518.739.518 1.277V121h-.749v-1.028h-.125l.144-.154c0 .391-.15.702-.451.932-.301.231-.701.346-1.201.346zm.183-.615c.423 0 .769-.105 1.038-.317.269-.211.403-.487.403-.826v-.797h-1.671c-.301 0-.541.083-.72.249-.18.167-.27.394-.27.683 0 .307.11.554.327.739.218.18.516.269.894.269zm3.365 1.864v-1.998h.433c.109-.122.22-.34.336-.654.121-.32.186-.707.192-1.162l.058-2.815h3.362v4.631h.682v1.998h-.682V121h-3.699v1.345h-.682zm1.25-1.998h2.372v-3.949h-1.883l-.038 2.143c-.007.48-.061.874-.164 1.181-.102.308-.198.516-.288.625zm5.055.653v-5.284h.74v3.007c0 .18-.007.372-.02.577a14.544 14.544 0 01-.067 1.018l2.238-4.602h.99V121h-.74v-3.007c0-.186.003-.378.01-.576.013-.199.025-.388.038-.567.02-.186.032-.34.039-.461L92.655 121h-.98zm5.69 0v-5.284h.74v3.007c0 .18-.007.372-.02.577a14.544 14.544 0 01-.067 1.018l2.238-4.602h.99V121h-.74v-3.007c0-.186.003-.378.009-.576l.039-.567a9.26 9.26 0 00.038-.461L98.344 121h-.98zm-73.937 19v-5.284h.768v2.219h1l1.565-2.219h.875l-1.778 2.517L27.674 140h-.893l-1.586-2.402h-.999V140h-.768zm7.601.086c-.41 0-.765-.08-1.066-.24a1.695 1.695 0 01-.701-.691c-.167-.301-.25-.657-.25-1.067v-1.46c0-.416.083-.772.25-1.066.166-.301.4-.532.7-.692.302-.16.657-.24 1.067-.24.41 0 .765.08 1.067.24.3.16.534.391.7.692.167.294.25.647.25 1.056v1.47c0 .41-.083.766-.25 1.067-.166.301-.4.531-.7.691-.301.16-.657.24-1.067.24zm0-.682c.397 0 .705-.112.922-.336.218-.224.327-.551.327-.98v-1.46c0-.429-.112-.756-.336-.98-.218-.224-.522-.336-.913-.336-.39 0-.698.112-.922.336-.218.224-.327.551-.327.98v1.46c0 .429.11.756.327.98.224.224.532.336.922.336zm3.576.596v-5.284h1.057l.769 2.152a13.91 13.91 0 01.307 1.019c.032-.109.074-.26.125-.452.057-.192.118-.384.182-.576l.74-2.143h1.047V140h-.74v-1.268c0-.275.004-.57.01-.884l.02-.941c.006-.314.015-.609.028-.884.013-.282.023-.529.029-.74l-1.047 3.132h-.807l-1.047-3.113c.013.256.022.58.029.971l.019 1.22c.013.429.019.842.019 1.239V140h-.74zm5.69 0v-5.284h1.057l.768 2.152c.064.186.125.375.183.567.057.192.099.343.125.452.032-.109.073-.26.125-.452.057-.192.118-.384.182-.576l.74-2.143h1.047V140h-.74v-1.268c0-.275.003-.57.01-.884l.019-.941c.006-.314.016-.609.029-.884.013-.282.022-.529.029-.74l-1.047 3.132h-.807l-1.048-3.113c.013.256.023.58.03.971l.019 1.22c.012.429.019.842.019 1.239V140h-.74zm6.689 1.729l.778-2.065-1.96-4.948h.846l1.248 3.295c.052.128.1.273.145.433.05.153.09.282.115.384.032-.102.07-.234.115-.394s.09-.304.135-.432l1.172-3.286h.816l-2.603 7.013h-.807zM51.847 140v-5.284h.769v2.248h2.344v-2.248h.768V140h-.768v-2.344h-2.344V140h-.769zm5.69 0v-5.284h.74v3.007c0 .18-.007.372-.02.577a14.544 14.544 0 01-.067 1.018l2.239-4.602h.989V140h-.74v-3.007c0-.186.004-.378.01-.576l.038-.567c.02-.186.032-.34.039-.461L58.517 140h-.98zm5.718 0v-5.284h.769v2.219h.999l1.566-2.219h.874l-1.777 2.517L67.5 140h-.893l-1.585-2.402h-1V140h-.768zm7.189.096c-.558 0-.996-.141-1.317-.423-.32-.288-.48-.675-.48-1.162 0-.48.157-.858.47-1.134.315-.281.737-.422 1.269-.422h1.681v-.558c0-.352-.102-.624-.307-.816-.205-.192-.497-.288-.875-.288-.333 0-.611.073-.835.221a.817.817 0 00-.375.595h-.769a1.58 1.58 0 01.635-1.085c.365-.269.82-.404 1.364-.404.589 0 1.056.16 1.402.481.346.313.52.739.52 1.277V140h-.75v-1.028h-.125l.144-.154c0 .391-.15.702-.452.932-.3.231-.7.346-1.2.346zm.182-.615c.423 0 .769-.105 1.038-.317.269-.211.403-.487.403-.826v-.797h-1.671c-.301 0-.542.083-.72.249-.18.167-.27.394-.27.683 0 .307.109.554.327.739.218.18.515.269.893.269zm7.736 1.864V140h-3.756v-5.284h.768v4.602h2.19v-4.602h.76v4.602h.73v2.027h-.692zM80.296 140v-5.284h.74v3.007c0 .18-.007.372-.02.577a14.544 14.544 0 01-.067 1.018l2.238-4.602h.99V140h-.74v-3.007c0-.186.003-.378.01-.576.012-.199.025-.388.038-.567.02-.186.032-.34.038-.461L81.275 140h-.98zm5.69 0v-5.284h.739v3.007c0 .18-.007.372-.02.577a14.544 14.544 0 01-.067 1.018l2.239-4.602h.99V140h-.74v-3.007c0-.186.003-.378.01-.576.012-.199.025-.388.038-.567a9.26 9.26 0 00.038-.461L86.965 140h-.98zm13.329.096a2.3 2.3 0 01-1.076-.24 1.765 1.765 0 01-.72-.682c-.167-.301-.25-.657-.25-1.067v-1.498c0-.41.083-.762.25-1.057a1.75 1.75 0 01.72-.692 2.3 2.3 0 011.076-.24c.602 0 1.085.164 1.45.49.365.327.554.772.567 1.336h-.759c-.013-.366-.131-.647-.355-.846-.218-.198-.52-.298-.903-.298-.391 0-.702.116-.932.346-.23.224-.346.545-.346.961v1.498c0 .41.115.731.346.961.23.231.54.346.932.346.384 0 .685-.099.903-.298.224-.205.342-.487.355-.845h.759c-.013.563-.202 1.008-.567 1.335-.365.327-.848.49-1.45.49zM23.399 159v-5.284h.768v2.248h2.345v-2.248h.768V159h-.768v-2.344h-2.345V159H23.4zm7.217.096c-.557 0-.996-.141-1.316-.423-.32-.288-.48-.675-.48-1.162 0-.48.157-.858.47-1.134.314-.281.737-.422 1.268-.422h1.682v-.558c0-.352-.103-.624-.308-.816-.205-.192-.496-.288-.874-.288-.333 0-.612.073-.836.221a.817.817 0 00-.375.595h-.768a1.58 1.58 0 01.634-1.085c.365-.269.82-.404 1.364-.404.59 0 1.057.16 1.403.481.346.313.519.739.519 1.277V159h-.75v-1.028h-.125l.144-.154c0 .391-.15.702-.451.932-.301.231-.701.346-1.201.346zm.183-.615c.422 0 .768-.105 1.037-.317a1 1 0 00.404-.826v-.797h-1.672c-.301 0-.541.083-.72.249-.18.167-.27.394-.27.683 0 .307.11.554.327.739.218.18.516.269.894.269zm3.98.519v-5.284h.739v3.007c0 .18-.007.372-.02.577a14.544 14.544 0 01-.066 1.018l2.238-4.602h.99V159h-.74v-3.007c0-.186.003-.378.01-.576.012-.199.025-.388.038-.567a9.26 9.26 0 00.038-.461L35.758 159h-.98zm7.63.096c-.615 0-1.099-.182-1.451-.548-.352-.365-.529-.867-.529-1.508v-2.459c0-.833.209-1.473.625-1.921.416-.449 1.012-.673 1.787-.673h1.306v.759h-1.306c-.538 0-.948.16-1.23.48-.282.314-.423.766-.423 1.355v.663h.135l-.135.23c.007-.384.135-.685.385-.903.256-.217.605-.326 1.047-.326.563 0 .999.179 1.306.538.308.352.461.845.461 1.479v.778c0 .429-.08.798-.24 1.105a1.645 1.645 0 01-.672.711c-.295.16-.65.24-1.067.24zm0-.682c.39 0 .691-.118.903-.355.21-.237.317-.577.317-1.019v-.778c0-.435-.106-.775-.317-1.018-.212-.244-.513-.365-.904-.365-.39 0-.691.121-.903.365-.21.243-.317.583-.317 1.018v.778c0 .442.106.782.317 1.019.218.237.52.355.903.355zm5.69.672c-.41 0-.766-.08-1.067-.24a1.695 1.695 0 01-.701-.691c-.167-.301-.25-.657-.25-1.067v-1.46c0-.416.083-.772.25-1.066.166-.301.4-.532.7-.692.302-.16.657-.24 1.067-.24.41 0 .765.08 1.066.24.301.16.535.391.702.692.166.294.25.647.25 1.056v1.47c0 .41-.084.766-.25 1.067-.167.301-.4.531-.702.691-.3.16-.656.24-1.066.24zm0-.682c.396 0 .704-.112.921-.336.218-.224.327-.551.327-.98v-1.46c0-.429-.112-.756-.336-.98-.218-.224-.522-.336-.913-.336-.39 0-.698.112-.922.336-.218.224-.327.551-.327.98v1.46c0 .429.11.756.327.98.224.224.531.336.922.336zm3.076.663v-.72h.192c.275 0 .477-.112.605-.336.128-.231.195-.612.202-1.144l.067-3.151h3.487V159h-.768v-4.592h-1.97l-.057 2.488c-.007.5-.068.91-.183 1.23-.109.32-.275.557-.5.711-.217.153-.502.23-.854.23h-.221zm6.41-.067v-5.284h.759v1.941h1.585c.59 0 1.053.15 1.393.451.346.295.519.702.519 1.22 0 .513-.173.919-.52 1.22-.338.301-.803.452-1.392.452h-2.344zm.759-.692h1.585c.365 0 .644-.083.836-.249.192-.173.288-.417.288-.731 0-.313-.096-.554-.288-.72-.192-.173-.471-.259-.836-.259h-1.585v1.959zm4.604.692l-.02-5.284h.721v4.698h1.21v-4.698h.635v4.698h1.2v-4.698h.711V159h-4.457zm5.968 0v-5.284h.74v3.007c0 .18-.007.372-.02.577a14.538 14.538 0 01-.067 1.018l2.239-4.602h.99V159h-.74v-3.007c0-.186.003-.378.01-.576.012-.199.025-.388.038-.567a9.26 9.26 0 00.038-.461L69.896 159h-.98zm5.517 0v-5.284h1.057l.768 2.152c.064.186.125.375.183.567.057.192.099.343.125.452.032-.109.073-.26.124-.452.058-.192.119-.384.183-.576l.74-2.143h1.047V159h-.74v-1.268c0-.275.003-.57.01-.884l.019-.941c.006-.314.016-.609.029-.884.013-.282.022-.529.029-.74l-1.047 3.132h-.807l-1.048-3.113c.013.256.023.58.03.971l.018 1.22c.013.429.02.842.02 1.239V159h-.74zm5.862 0v-5.284h.74v3.007c0 .18-.006.372-.019.577a14.544 14.544 0 01-.067 1.018l2.238-4.602h.99V159h-.74v-3.007c0-.186.003-.378.01-.576.012-.199.025-.388.038-.567.02-.186.032-.34.038-.461L81.275 159h-.98zm11.38 0v-5.284h3.88V159h-.768v-4.592h-2.344V159h-.768zm7.63.086c-.41 0-.765-.08-1.066-.24a1.695 1.695 0 01-.702-.691c-.166-.301-.25-.657-.25-1.067v-1.46c0-.416.084-.772.25-1.066.167-.301.4-.532.702-.692.3-.16.656-.24 1.066-.24.41 0 .765.08 1.066.24.301.16.535.391.702.692.166.294.249.647.249 1.056v1.47c0 .41-.083.766-.249 1.067a1.7 1.7 0 01-.702.691c-.301.16-.656.24-1.066.24zm0-.682c.397 0 .704-.112.922-.336.218-.224.327-.551.327-.98v-1.46c0-.429-.112-.756-.336-.98-.218-.224-.522-.336-.913-.336-.39 0-.698.112-.922.336-.218.224-.327.551-.327.98v1.46c0 .429.109.756.327.98.224.224.531.336.922.336zm5.305.596v-4.602h-1.921v-.682h4.611v.682h-1.921V159h-.769zm6.074.096c-.41 0-.765-.08-1.066-.24a1.758 1.758 0 01-.701-.701 2.124 2.124 0 01-.25-1.048v-1.498c0-.404.083-.753.25-1.047.166-.301.4-.532.701-.692.301-.167.656-.25 1.066-.25.41 0 .766.083 1.067.25a1.7 1.7 0 01.701.692c.166.294.25.643.25 1.047v.932h-3.286v.566c0 .43.109.763.327 1 .224.23.538.345.941.345.34 0 .615-.067.826-.201a.893.893 0 00.414-.586h.759a1.534 1.534 0 01-.644 1.047c-.359.256-.81.384-1.355.384zm1.268-3.064v-.423c0-.429-.108-.759-.326-.99-.218-.237-.532-.355-.942-.355-.403 0-.717.118-.941.355-.218.231-.327.561-.327.99v.336h2.613l-.077.087zm2.472 4.697v-7.013h.759v.932h.201l-.23.317c0-.416.134-.743.403-.98.276-.243.638-.365 1.086-.365.532 0 .954.176 1.268.529.32.345.48.819.48 1.421v1.566c0 .404-.073.753-.221 1.047a1.641 1.641 0 01-.614.673c-.257.16-.561.24-.913.24-.442 0-.801-.122-1.076-.365s-.413-.57-.413-.98l.202.317h-.183l.01 1.076v1.585h-.759zm1.979-2.296c.384 0 .682-.115.893-.346.218-.23.327-.557.327-.98v-1.498c0-.429-.109-.756-.327-.98-.211-.231-.509-.346-.893-.346-.372 0-.669.119-.894.356-.217.23-.326.554-.326.97v1.498c0 .417.109.743.326.98.225.231.522.346.894.346zm3.422.567l1.345-2.046c-.41-.09-.727-.272-.951-.548-.224-.275-.336-.621-.336-1.037 0-.513.17-.916.509-1.211.346-.294.813-.442 1.403-.442h2.209V159h-.768v-1.979h-1.278L120.709 159h-.884zm1.97-2.661h1.441v-1.941h-1.441c-.346 0-.622.087-.827.26-.205.173-.307.41-.307.711s.102.538.307.711c.205.172.481.259.827.259zM125.64 159v-5.284h1.057l.768 2.152c.064.186.125.375.183.567.057.192.099.343.124.452.032-.109.074-.26.125-.452.058-.192.119-.384.183-.576l.74-2.143h1.047V159h-.74v-1.268c0-.275.003-.57.01-.884l.019-.941c.006-.314.016-.609.029-.884.012-.282.022-.529.028-.74l-1.047 3.132h-.807l-1.047-3.113c.013.256.023.58.029.971l.019 1.22c.013.429.019.842.019 1.239V159h-.739zm5.862 0v-5.284h.74v3.007c0 .18-.006.372-.019.577a15.365 15.365 0 01-.067 1.018l2.238-4.602h.989V159h-.739v-3.007c0-.186.003-.378.009-.576l.039-.567a9.26 9.26 0 00.038-.461L132.482 159h-.98zM23.399 178v-5.284h3.881V178h-.768v-4.592h-2.345V178H23.4zm7.63.086c-.41 0-.765-.08-1.066-.24a1.695 1.695 0 01-.701-.691c-.167-.301-.25-.657-.25-1.067v-1.46c0-.416.083-.772.25-1.066.166-.301.4-.532.7-.692.302-.16.657-.24 1.067-.24.41 0 .765.08 1.067.24.3.16.534.391.7.692.167.294.25.647.25 1.056v1.47c0 .41-.083.766-.25 1.067-.166.301-.4.531-.7.691-.301.16-.657.24-1.067.24zm0-.682c.397 0 .705-.112.922-.336.218-.224.327-.551.327-.98v-1.46c0-.429-.112-.756-.336-.98-.218-.224-.522-.336-.913-.336-.39 0-.698.112-.922.336-.218.224-.327.551-.327.98v1.46c0 .429.11.756.327.98.224.224.532.336.922.336zm5.305.596v-4.602h-1.92v-.682h4.61v.682h-1.92V178h-.77zm6.074.096c-.41 0-.765-.08-1.066-.24a1.762 1.762 0 01-.701-.701 2.13 2.13 0 01-.25-1.048v-1.498c0-.404.083-.753.25-1.047.166-.301.4-.532.701-.692.301-.167.657-.25 1.066-.25.41 0 .766.083 1.067.25.3.16.535.391.701.692.167.294.25.643.25 1.047v.932H41.14v.566c0 .43.11.763.327 1 .224.23.538.345.941.345.34 0 .615-.067.827-.201a.892.892 0 00.413-.586h.759a1.53 1.53 0 01-.644 1.047c-.359.256-.81.384-1.355.384zm1.268-3.064v-.423c0-.429-.108-.759-.326-.99-.218-.237-.532-.355-.942-.355-.403 0-.717.118-.941.355-.218.231-.327.561-.327.99v.336h2.613l-.077.087zM46.157 178v-5.284h.77v2.248h2.343v-2.248h.769V178h-.769v-2.344h-2.344V178h-.769zm9.446 1.345V178h-3.756v-5.284h.769v4.602h2.19v-4.602h.759v4.602h.73v2.027h-.692zM57.537 178v-5.284h.74v3.007c0 .18-.007.372-.02.577a14.544 14.544 0 01-.067 1.018l2.239-4.602h.989V178h-.74v-3.007c0-.186.004-.378.01-.576l.038-.567c.02-.186.032-.34.039-.461L58.517 178h-.98zm7.217.096c-.557 0-.996-.141-1.316-.423-.32-.288-.48-.675-.48-1.162 0-.48.156-.858.47-1.134.314-.281.737-.422 1.268-.422h1.681v-.558c0-.352-.102-.624-.307-.816-.205-.192-.496-.288-.874-.288-.333 0-.612.073-.836.221a.817.817 0 00-.375.595h-.768a1.58 1.58 0 01.634-1.085c.365-.269.82-.404 1.364-.404.59 0 1.057.16 1.403.481.346.313.518.739.518 1.277V178h-.749v-1.028h-.125l.144-.154c0 .391-.15.702-.451.932-.301.231-.701.346-1.201.346zm.182-.615c.423 0 .769-.105 1.038-.317.269-.211.403-.487.403-.826v-.797h-1.671c-.301 0-.541.083-.72.249-.18.167-.27.394-.27.683 0 .307.11.554.327.739.218.18.516.269.893.269zm3.308.586v-.72h.192c.275 0 .477-.112.605-.336.128-.231.195-.612.202-1.144l.067-3.151h3.487V178h-.768v-4.592h-1.97l-.057 2.488c-.007.5-.067.91-.183 1.23-.109.32-.275.557-.5.711-.217.153-.502.23-.854.23h-.221zm6.41-.067v-5.284h.759v1.941h1.585c.59 0 1.053.15 1.393.451.346.295.519.702.519 1.22 0 .513-.173.919-.52 1.22-.339.301-.803.452-1.392.452h-2.344zm.759-.692h1.585c.365 0 .643-.083.836-.249.192-.173.288-.417.288-.731 0-.313-.096-.554-.288-.72-.193-.173-.471-.259-.836-.259h-1.585v1.959zm4.883.692v-5.284h.768v2.248h2.344v-2.248h.769V178h-.769v-2.344h-2.344V178h-.768zm5.41 0v-5.284h.721v1.96h.47c.564 0 1.01.151 1.336.452.333.294.5.698.5 1.21s-.164.919-.49 1.22c-.327.295-.775.442-1.345.442h-1.191zm.721-.624h.47c.36 0 .638-.09.837-.269.205-.186.307-.442.307-.769s-.102-.58-.307-.759c-.199-.186-.478-.278-.836-.278h-.471v2.075zm2.997.624v-5.284h.72V178h-.72zm1.857 0l1.873-2.719-1.758-2.565h.894l1.114 1.71c.038.064.077.138.115.221l.106.183a5.67 5.67 0 01.221-.404l1.114-1.71h.884l-1.758 2.575L95.95 178h-.894l-1.19-1.806a1.816 1.816 0 01-.135-.231 1.61 1.61 0 00-.106-.211 4.432 4.432 0 01-.26.442l-1.2 1.806h-.884zm11.802 0v-5.284h.768v2.219h1l1.565-2.219h.875l-1.778 2.517 1.816 2.767h-.893l-1.585-2.402h-1V178h-.768zm4.988.067v-.72h.192c.276 0 .478-.112.606-.336.128-.231.195-.612.201-1.144l.068-3.151h3.487V178h-.769v-4.592h-1.969l-.058 2.488c-.006.5-.067.91-.182 1.23-.109.32-.276.557-.5.711-.218.153-.503.23-.855.23h-.221zm6.362-.067v-5.284h.74v3.007c0 .18-.006.372-.019.577a15.365 15.365 0 01-.067 1.018l2.238-4.602h.99V178h-.74v-3.007c0-.186.003-.378.009-.576l.039-.567a9.26 9.26 0 00.038-.461L115.413 178h-.98zm7.631.096c-.41 0-.766-.08-1.067-.24a1.758 1.758 0 01-.701-.701 2.124 2.124 0 01-.25-1.048v-1.498c0-.404.083-.753.25-1.047.166-.301.4-.532.701-.692.301-.167.657-.25 1.067-.25.409 0 .765.083 1.066.25.301.16.535.391.701.692.167.294.25.643.25 1.047v.932h-3.285v.566c0 .43.108.763.326 1 .224.23.538.345.942.345.339 0 .614-.067.826-.201a.892.892 0 00.413-.586h.759a1.534 1.534 0 01-.644 1.047c-.358.256-.81.384-1.354.384zm1.268-3.064v-.423c0-.429-.109-.759-.327-.99-.218-.237-.532-.355-.941-.355-.404 0-.718.118-.942.355-.218.231-.326.561-.326.99v.336h2.613l-.077.087zm2.481 2.968v-5.284h.768v2.248h2.344v-2.248h.769V178h-.769v-2.344h-2.344V178h-.768zm7.246 0v-4.602h-1.922v-.682h4.612v.682h-1.922V178h-.768zm6.074.086c-.41 0-.766-.08-1.067-.24a1.691 1.691 0 01-.701-.691c-.167-.301-.25-.657-.25-1.067v-1.46c0-.416.083-.772.25-1.066.166-.301.4-.532.701-.692.301-.16.657-.24 1.067-.24.409 0 .765.08 1.066.24.301.16.535.391.701.692.167.294.25.647.25 1.056v1.47c0 .41-.083.766-.25 1.067-.166.301-.4.531-.701.691-.301.16-.657.24-1.066.24zm0-.682c.397 0 .704-.112.922-.336.218-.224.326-.551.326-.98v-1.46c0-.429-.112-.756-.336-.98-.218-.224-.522-.336-.912-.336-.391 0-.699.112-.923.336-.217.224-.326.551-.326.98v1.46c0 .429.109.756.326.98.224.224.532.336.923.336zm3.749.596v-5.284h2.267c.525 0 .938.125 1.239.375.301.243.452.583.452 1.018 0 .365-.125.66-.375.884-.243.218-.57.327-.98.327v-.068c.442 0 .797.116 1.066.346.269.224.404.525.404.903 0 .468-.16.836-.48 1.105-.314.263-.75.394-1.307.394h-2.286zm.749-.672h1.537c.314 0 .564-.074.749-.221a.758.758 0 00.279-.615c0-.269-.093-.477-.279-.625-.185-.153-.435-.23-.749-.23h-1.537v1.691zm0-2.354h1.518c.282 0 .506-.071.672-.211a.706.706 0 00.26-.577.704.704 0 00-.26-.576c-.166-.148-.39-.221-.672-.221h-1.518v1.585zm6.881 3.122c-.237 0-.426-.067-.567-.202a.775.775 0 01-.202-.557c0-.243.068-.435.202-.576.141-.141.33-.212.567-.212.237 0 .423.071.557.212.141.141.211.333.211.576 0 .231-.07.416-.211.557-.134.135-.32.202-.557.202z" fill="#fff"/><path d="M13.295 22.969l1.767-7.013h1.547l1.777 7.013h-1.23l-.384-1.7H14.91l-.385 1.7h-1.23zm1.835-2.68h1.421l-.422-1.884c-.07-.313-.132-.595-.183-.845a20.019 20.019 0 01-.105-.557c-.02.115-.055.301-.106.557-.045.25-.106.529-.183.836l-.422 1.892zm4.268 2.68v-5.284h1.2v2.046h1.864v-2.046h1.2v5.284h-1.2v-2.123h-1.864v2.123h-1.2zm7.236.096c-.545 0-.974-.144-1.288-.433-.313-.288-.47-.675-.47-1.162 0-.519.173-.919.518-1.2.346-.282.836-.423 1.47-.423h1.316v-.452c0-.256-.083-.455-.25-.596-.166-.147-.393-.22-.681-.22-.263 0-.48.057-.654.172a.675.675 0 00-.307.471h-1.172c.058-.5.282-.896.672-1.191.391-.295.89-.442 1.5-.442.646 0 1.155.163 1.526.49.378.32.567.756.567 1.306v3.584H28.22v-.922h-.192l.192-.26c0 .39-.144.701-.432.932-.289.23-.673.346-1.153.346zm.394-.903c.34 0 .614-.087.826-.26a.82.82 0 00.326-.672v-.644h-1.296c-.244 0-.44.07-.586.212a.736.736 0 00-.221.557c0 .25.083.448.25.595.172.141.406.212.7.212zm3.22.874v-1.095h.24a.54.54 0 00.49-.26c.116-.179.177-.46.183-.845l.058-3.151h3.823v5.284h-1.2v-4.17H32.4l-.038 2.104c-.013.461-.09.852-.23 1.172a1.605 1.605 0 01-.606.72c-.262.16-.583.241-.96.241h-.318zm6.218-.067v-5.284h1.086v2.604c0 .166-.01.364-.029.595a14.016 14.016 0 01-.135 1.23l1.864-4.429h1.48v5.284h-1.086v-2.604c0-.173.007-.365.02-.576l.057-.625c.026-.205.051-.377.077-.518l-1.854 4.323h-1.48zm7.563.067c-.576 0-1.053-.131-1.431-.394a1.62 1.62 0 01-.682-1.095h1.2a.645.645 0 00.308.375c.167.09.368.134.605.134h.51c.25 0 .445-.058.586-.173a.593.593 0 00.22-.48.586.586 0 00-.21-.48c-.142-.116-.34-.173-.596-.173h-1.21v-.961h1.161c.237 0 .42-.055.548-.163a.55.55 0 00.192-.442.525.525 0 00-.336-.519 1.064 1.064 0 00-.404-.067h-.451a1.1 1.1 0 00-.576.144.613.613 0 00-.289.384h-1.2a1.66 1.66 0 01.672-1.095c.371-.275.836-.413 1.393-.413h.451c.404 0 .75.06 1.038.182.295.116.522.282.682.5.16.211.24.467.24.768 0 .333-.121.606-.365.817-.243.211-.566.323-.97.336v-.038c.461.013.82.134 1.076.365.256.224.384.535.384.932 0 .474-.186.851-.557 1.133-.365.282-.858.423-1.48.423h-.509zm11.034-.067v-4.18h-1.806v-1.104h4.822v1.105h-1.806v4.179h-1.21zm6.304.096c-.448 0-.839-.087-1.172-.26a1.923 1.923 0 01-.778-.72 2.169 2.169 0 01-.269-1.095v-1.326c0-.416.09-.778.27-1.086.185-.313.444-.557.777-.73.333-.173.724-.259 1.172-.259.442 0 .827.086 1.153.26.333.172.59.416.769.73.185.307.278.669.278 1.085v.951h-3.256v.375c0 .371.09.653.269.845.179.186.445.279.797.279.269 0 .487-.045.653-.135a.642.642 0 00.317-.413h1.182c-.09.455-.333.82-.73 1.095-.39.27-.868.404-1.432.404zm1.038-3.122v-.289c0-.365-.087-.643-.26-.835-.172-.199-.432-.298-.778-.298-.345 0-.608.1-.787.298-.18.198-.27.48-.27.845v.202l2.181-.02-.086.097zm2.538 3.026v-5.284h1.201v2.075h.788l1.287-2.075h1.345L67.97 20.24l1.623 2.729H68.22l-1.287-2.19h-.788v2.19h-1.2zm6.507 1.729l.74-2.018-1.97-4.995h1.316l.98 2.7c.051.147.103.326.154.537.051.206.09.375.115.51.032-.135.074-.304.125-.51.051-.21.103-.39.154-.538l.922-2.699h1.268l-2.546 7.013H71.45zm8.639-.384v-1.345h-4.074v-5.284h.961v4.42h.903v-4.42h.836v4.42h.913v-4.42h.95v4.42h.558v2.209h-1.047zm1.895-1.345v-5.284h1.085v2.604c0 .166-.01.364-.029.595-.012.224-.032.445-.057.663-.026.218-.052.407-.077.567l1.864-4.429h1.48v5.284h-1.087v-2.604c0-.173.007-.365.02-.576l.057-.625c.026-.205.052-.377.077-.518l-1.854 4.323h-1.48zm5.286 0l1.844-2.729-1.72-2.555h1.355l.817 1.297c.051.077.096.163.134.26.045.095.08.172.106.23.026-.058.06-.135.106-.23.044-.097.09-.183.134-.26l.826-1.297h1.355l-1.72 2.555 1.835 2.729h-1.364l-.913-1.45a2.647 2.647 0 01-.144-.27 3.753 3.753 0 00-.115-.23c-.026.057-.06.134-.106.23a2.667 2.667 0 01-.144.27l-.932 1.45H87.27zm11.773 0v-5.284h2.344c.609 0 1.086.128 1.431.384.353.25.529.596.529 1.038 0 .358-.138.647-.413.864-.269.218-.628.327-1.076.327v-.086c.487 0 .877.115 1.172.346.294.224.442.525.442.902 0 .468-.18.836-.538 1.105-.352.27-.839.404-1.46.404h-2.431zm1.182-.913h1.21c.269 0 .48-.06.634-.182a.592.592 0 00.231-.49.612.612 0 00-.231-.51c-.154-.121-.365-.182-.634-.182h-1.21v1.364zm0-2.171h1.172c.237 0 .426-.058.566-.173a.576.576 0 00.212-.47.576.576 0 00-.212-.471c-.134-.122-.323-.183-.566-.183h-1.172v1.297zm6.65 3.17c-.448 0-.839-.083-1.172-.25a1.939 1.939 0 01-.769-.72c-.179-.314-.269-.682-.269-1.105v-1.306c0-.423.09-.788.269-1.096a1.86 1.86 0 01.769-.72c.333-.173.724-.26 1.172-.26.455 0 .845.087 1.172.26.327.166.58.407.759.72.186.308.279.67.279 1.086v1.316c0 .423-.093.791-.279 1.105a1.868 1.868 0 01-.759.72c-.327.167-.717.25-1.172.25zm0-1.047c.32 0 .567-.086.74-.26.179-.179.269-.435.269-.768v-1.306c0-.34-.09-.596-.269-.769-.173-.173-.42-.26-.74-.26-.314 0-.56.087-.74.26-.179.173-.269.43-.269.769v1.306c0 .333.09.59.269.769.18.173.426.26.74.26zm3.547 2.69v-7.013h1.172v1.009h.269l-.269.278c0-.429.128-.765.385-1.008.256-.25.602-.375 1.037-.375.532 0 .958.183 1.278.548.32.365.48.855.48 1.47v1.43c0 .41-.073.77-.221 1.077a1.62 1.62 0 01-.605.701 1.7 1.7 0 01-.932.25c-.435 0-.781-.122-1.037-.365-.257-.25-.385-.59-.385-1.019l.269.279h-.278l.038 1.258v1.48h-1.201zm2.171-2.67c.308 0 .548-.09.721-.27.173-.179.259-.435.259-.768v-1.326c0-.333-.086-.59-.259-.769-.173-.179-.413-.268-.721-.268-.301 0-.538.092-.71.278-.173.18-.26.432-.26.759v1.326c0 .326.087.583.26.768.172.18.409.27.71.27zm5.661 1.027c-.448 0-.839-.083-1.172-.25a1.936 1.936 0 01-.768-.72c-.18-.314-.269-.682-.269-1.105v-1.306c0-.423.089-.788.269-1.096a1.85 1.85 0 01.768-.72c.333-.173.724-.26 1.172-.26.455 0 .846.087 1.172.26.327.166.58.407.759.72.186.308.279.67.279 1.086v1.316c0 .423-.093.791-.279 1.105a1.868 1.868 0 01-.759.72c-.326.167-.717.25-1.172.25zm0-1.047c.321 0 .567-.086.74-.26.179-.179.269-.435.269-.768v-1.306c0-.34-.09-.596-.269-.769-.173-.173-.419-.26-.74-.26-.314 0-.56.087-.739.26-.18.173-.269.43-.269.769v1.306c0 .333.089.59.269.769.179.173.425.26.739.26zm3.557.96v-5.283h1.201v2.046h1.864v-2.046h1.201v5.284h-1.201v-2.123h-1.864v2.123h-1.201zm7.823.087c-.449 0-.839-.083-1.172-.25a1.939 1.939 0 01-.769-.72c-.179-.314-.269-.682-.269-1.105v-1.306c0-.423.09-.788.269-1.096a1.86 1.86 0 01.769-.72c.333-.173.723-.26 1.172-.26.454 0 .845.087 1.172.26a1.8 1.8 0 01.759.72c.185.308.278.67.278 1.086v1.316c0 .423-.093.791-.278 1.105a1.88 1.88 0 01-.759.72c-.327.167-.718.25-1.172.25zm0-1.047c.32 0 .566-.086.739-.26.18-.179.269-.435.269-.768v-1.306c0-.34-.089-.596-.269-.769-.173-.173-.419-.26-.739-.26-.314 0-.561.087-.74.26-.179.173-.269.43-.269.769v1.306c0 .333.09.59.269.769.179.173.426.26.74.26zm3.585.96v-5.283h1.201v2.075h.788l1.287-2.075h1.345l-1.594 2.555 1.623 2.729h-1.374l-1.287-2.19h-.788v2.19h-1.201zm7.794-3.765c-.269 0-.487-.074-.653-.221a.779.779 0 01-.241-.586.76.76 0 01.241-.586c.166-.147.384-.221.653-.221s.483.074.644.22a.745.745 0 01.249.587.764.764 0 01-.249.586c-.161.147-.375.22-.644.22zm0 3.862c-.269 0-.487-.074-.653-.221a.76.76 0 01-.241-.586.76.76 0 01.241-.586c.166-.148.384-.221.653-.221s.483.073.644.22a.745.745 0 01.249.587.745.745 0 01-.249.586c-.161.147-.375.22-.644.22z" fill="#000"/><defs><filter id="filter0_d_2002_19" x=".157" y="0" width="179.685" height="215.685" filterUnits="userSpaceOnUse" color-interpolation-filters="sRGB"><feFlood flood-opacity="0" result="BackgroundImageFix"/><feColorMatrix in="SourceAlpha" values="0 0 0 0 0 0 0 0 0 0 0 0 0 0 0 0 0 0 127 0" result="hardAlpha"/><feOffset dy="3.843"/><feGaussianBlur stdDeviation="1.921"/><feComposite in2="hardAlpha" operator="out"/><feColorMatrix values="0 0 0 0 0 0 0 0 0 0 0 0 0 0 0 0 0 0 0.25 0"/><feBlend in2="BackgroundImageFix" result="effect1_dropShadow_2002_19"/><feBlend in="SourceGraphic" in2="effect1_dropShadow_2002_19" result="shape"/></filter></defs></svg>