<svg width="360" height="166" fill="none" xmlns="http://www.w3.org/2000/svg"><rect x=".421" y=".421" width="359.158" height="165.158" rx="19.579" fill="url(#paint0_linear_2027_79)" fill-opacity=".53" stroke="url(#paint1_linear_2027_79)" stroke-width=".842"/><path stroke="#CCEC60" d="M343.5 19v117"/><circle cx="343" cy="150" r="5.625" stroke="#CCEC60" stroke-width=".75"/><path d="M19.847 38v-8.03h2.464c.777 0 1.393.187 1.848.561.455.367.682.869.682 1.507 0 .36-.08.671-.242.935a1.67 1.67 0 01-.66.616c-.271.147-.587.22-.946.22v-.044a2.15 2.15 0 011.034.22c.308.147.55.367.726.66.183.293.275.649.275 1.067 0 .462-.106.865-.319 1.21a2.138 2.138 0 01-.902.803c-.381.183-.84.275-1.375.275h-2.585zm1.342-1.144h1.155c.403 0 .719-.106.946-.319.235-.22.352-.517.352-.891s-.117-.675-.352-.902c-.227-.235-.543-.352-.946-.352h-1.155v2.464zm0-3.575h1.1c.367 0 .653-.095.858-.286.213-.198.319-.466.319-.803s-.106-.601-.319-.792c-.205-.19-.491-.286-.858-.286h-1.1v2.167zM33.045 38l-.825-8.03h1.188l.484 5.61c.015.125.026.279.033.462.015.176.026.356.033.539.015.183.022.345.022.484.015-.14.03-.3.044-.484l.044-.539.055-.462.66-5.61h1.155l.616 5.61c.022.125.04.279.055.462a110.772 110.772 0 01.121 1.023c.008-.14.015-.3.022-.484l.022-.539c.015-.183.03-.337.044-.462l.473-5.61h1.177L37.6 38h-1.518l-.594-5.632c-.014-.14-.033-.3-.055-.484l-.044-.561a38.13 38.13 0 01-.033-.484 8.373 8.373 0 01-.044.484l-.044.561a15.74 15.74 0 01-.044.484L34.574 38h-1.529zm6.358 0v-1.254h2.111v-3.553h-1.837V31.95h3.157v4.796h1.87V38h-5.301zm2.662-7.062c-.28 0-.5-.07-.66-.209a.75.75 0 01-.242-.583c0-.242.08-.433.242-.572.16-.147.38-.22.66-.22.278 0 .498.073.66.22.16.14.242.33.242.572a.75.75 0 01-.242.583c-.162.14-.382.209-.66.209zM45.934 38v-6.05h1.343v1.155h.374l-.374.319c0-.499.143-.887.429-1.166.293-.279.693-.418 1.199-.418.594 0 1.067.198 1.419.594.359.396.539.928.539 1.595V38h-1.375v-3.828c0-.367-.096-.649-.286-.847-.191-.198-.459-.297-.803-.297-.338 0-.605.103-.803.308-.191.205-.286.499-.286.88V38h-1.375zm8.459.11c-.602 0-1.09-.209-1.463-.627-.367-.418-.55-.979-.55-1.683v-1.639c0-.711.183-1.276.55-1.694.367-.418.854-.627 1.463-.627.498 0 .895.143 1.188.429.293.279.44.664.44 1.155l-.308-.319h.319l-.044-1.441V29.97h1.375V38h-1.342v-1.155h-.308l.308-.319c0 .491-.147.88-.44 1.166-.294.279-.69.418-1.188.418zm.484-1.188c.352 0 .623-.103.814-.308.198-.213.297-.506.297-.88v-1.518c0-.374-.1-.664-.297-.869-.19-.213-.462-.319-.814-.319-.352 0-.627.103-.825.308-.198.205-.297.499-.297.88v1.518c0 .381.099.675.297.88.198.205.473.308.825.308zm6.555 1.188c-.315 0-.568-.092-.759-.275-.183-.183-.275-.433-.275-.748s.092-.565.275-.748c.19-.19.444-.286.759-.286s.565.095.748.286c.19.183.286.433.286.748s-.095.565-.286.748c-.183.183-.433.275-.748.275zm6.544 0c-.55 0-1.026-.092-1.43-.275a2.142 2.142 0 01-.935-.781c-.212-.345-.322-.748-.33-1.21h1.375c0 .33.118.59.352.781.242.183.569.275.98.275.395 0 .703-.092.923-.275.227-.183.341-.436.341-.759 0-.271-.08-.506-.242-.704-.154-.205-.377-.345-.67-.418l-.925-.253c-.63-.161-1.118-.451-1.463-.869-.337-.418-.506-.924-.506-1.518 0-.455.103-.85.308-1.188.206-.337.495-.598.87-.781.38-.183.828-.275 1.341-.275.778 0 1.394.202 1.848.605.455.396.686.931.693 1.606h-1.375c0-.315-.103-.561-.308-.737-.205-.183-.495-.275-.869-.275-.36 0-.638.084-.836.253-.198.169-.297.407-.297.715 0 .279.073.517.22.715.154.19.374.326.66.407l.957.264c.638.161 1.126.451 1.463.869.338.41.506.92.506 1.529 0 .455-.11.858-.33 1.21-.22.345-.528.612-.924.803-.396.19-.861.286-1.397.286zm7.16-.11c-.579 0-1.034-.161-1.364-.484-.322-.323-.484-.766-.484-1.331v-2.992H71.65V31.95h1.64v-1.705h1.385v1.705h2.321v1.243h-2.32v2.992c0 .381.186.572.56.572h1.65V38h-1.749zm5.863.11c-.77 0-1.375-.213-1.815-.638-.44-.433-.66-1.02-.66-1.76V31.95H79.9v3.751c0 .389.095.69.286.902.19.205.462.308.814.308.344 0 .612-.103.803-.308.198-.213.297-.513.297-.902V31.95h1.375v3.762c0 .74-.224 1.327-.671 1.76-.448.425-1.05.638-1.804.638zm6.005 0c-.602 0-1.09-.209-1.463-.627-.367-.418-.55-.979-.55-1.683v-1.639c0-.711.183-1.276.55-1.694.366-.418.854-.627 1.463-.627.498 0 .894.143 1.188.429.293.279.44.664.44 1.155l-.308-.319h.319l-.044-1.441V29.97h1.375V38h-1.342v-1.155h-.308l.308-.319c0 .491-.147.88-.44 1.166-.294.279-.69.418-1.188.418zm.484-1.188c.352 0 .623-.103.814-.308.198-.213.297-.506.297-.88v-1.518c0-.374-.1-.664-.297-.869-.19-.213-.462-.319-.814-.319-.352 0-.627.103-.825.308-.198.205-.297.499-.297.88v1.518c0 .381.099.675.297.88.198.205.473.308.825.308zM91.579 38v-1.254h2.113v-3.553h-1.837V31.95h3.157v4.796h1.87V38H91.58zm2.663-7.062c-.279 0-.499-.07-.66-.209a.75.75 0 01-.242-.583c0-.242.08-.433.242-.572.161-.147.381-.22.66-.22s.499.073.66.22c.161.14.242.33.242.572a.75.75 0 01-.242.583c-.161.14-.381.209-.66.209zm6.324 7.161c-.513 0-.96-.095-1.342-.286a2.22 2.22 0 01-.88-.825c-.205-.36-.308-.781-.308-1.265v-1.496c0-.484.103-.902.308-1.254.213-.36.506-.634.88-.825.381-.198.829-.297 1.342-.297.521 0 .968.099 1.342.297.374.19.664.466.869.825.213.352.319.766.319 1.243v1.507c0 .484-.106.906-.319 1.265a2.141 2.141 0 01-.869.825c-.374.19-.821.286-1.342.286zm0-1.199c.367 0 .649-.099.847-.297.205-.205.308-.499.308-.88v-1.496c0-.389-.103-.682-.308-.88-.198-.198-.48-.297-.847-.297-.359 0-.642.099-.847.297-.205.198-.308.491-.308.88v1.496c0 .381.103.675.308.88.205.198.488.297.847.297zm10.36 1.1v-6.05h1.65l.748 2.277c.081.25.147.484.198.704.059.22.096.385.11.495l.099-.495c.052-.22.118-.455.198-.704l.715-2.277h1.65V38h-1.276v-1.034a45.065 45.065 0 01.044-1.958l.044-1.023c.022-.33.041-.62.055-.869l-.913 3.135h-1.254l-.946-3.124c.022.308.044.69.066 1.144.03.447.052.91.066 1.386.015.47.022.906.022 1.309V38h-1.276zm6.457 0v-6.05h1.188v2.046h.407c.652 0 1.169.183 1.551.55.381.367.572.858.572 1.474 0 .601-.195 1.082-.583 1.441-.382.36-.895.539-1.54.539h-1.595zm1.188-1.067h.407c.315 0 .557-.08.726-.242.176-.161.264-.385.264-.671 0-.3-.088-.535-.264-.704-.169-.169-.411-.253-.726-.253h-.407v1.87zM121.695 38v-6.05h1.188V38h-1.188zm9.04 0v-6.05h1.375v2.343h2.134V31.95h1.375V38h-1.375v-2.431h-2.134V38h-1.375zm8.975.11c-.513 0-.961-.099-1.342-.297a2.206 2.206 0 01-.891-.825c-.205-.36-.308-.777-.308-1.254v-1.518c0-.477.103-.891.308-1.243.213-.36.51-.638.891-.836.381-.198.829-.297 1.342-.297.506 0 .946.099 1.32.297.381.198.675.477.88.836.213.352.319.766.319 1.243v1.089H138.5v.429c0 .425.103.748.308.968.205.213.51.319.913.319.308 0 .557-.051.748-.154a.732.732 0 00.363-.473h1.353c-.103.52-.381.939-.836 1.254-.447.308-.994.462-1.639.462zm1.188-3.575v-.33c0-.418-.099-.737-.297-.957-.198-.227-.495-.341-.891-.341s-.697.114-.902.341c-.205.227-.308.55-.308.968v.231l2.497-.022-.099.11zM150.301 38v-6.05h4.884V38h-1.375v-4.774h-2.134V38h-1.375zm6.512 1.98v-8.03h1.342v1.155h.308l-.308.319c0-.491.146-.876.44-1.155.293-.286.689-.429 1.188-.429.608 0 1.096.209 1.463.627.366.418.55.979.55 1.683v1.639c0 .47-.085.88-.253 1.232a1.866 1.866 0 01-.693.803c-.301.19-.657.286-1.067.286-.499 0-.895-.14-1.188-.418-.294-.286-.44-.675-.44-1.166l.308.319h-.319l.044 1.441v1.694h-1.375zm2.486-3.058c.352 0 .627-.103.825-.308.198-.205.297-.499.297-.88v-1.518c0-.381-.099-.675-.297-.88-.198-.205-.473-.308-.825-.308-.345 0-.616.106-.814.319-.198.205-.297.495-.297.869v1.518c0 .374.099.667.297.88.198.205.469.308.814.308zm6.489 1.177c-.514 0-.961-.095-1.342-.286a2.215 2.215 0 01-.88-.825c-.206-.36-.308-.781-.308-1.265v-1.496c0-.484.102-.902.308-1.254.212-.36.506-.634.88-.825.381-.198.828-.297 1.342-.297.52 0 .968.099 1.342.297.374.19.663.466.869.825.212.352.319.766.319 1.243v1.507c0 .484-.107.906-.319 1.265a2.147 2.147 0 01-.869.825c-.374.19-.822.286-1.342.286zm0-1.199c.366 0 .649-.099.847-.297.205-.205.308-.499.308-.88v-1.496c0-.389-.103-.682-.308-.88-.198-.198-.481-.297-.847-.297-.36 0-.642.099-.847.297-.206.198-.308.491-.308.88v1.496c0 .381.102.675.308.88.205.198.487.297.847.297zm6.544 1.21c-.513 0-.964-.095-1.353-.286a2.206 2.206 0 01-.891-.825c-.213-.36-.319-.781-.319-1.265v-1.518c0-.491.106-.913.319-1.265.213-.352.51-.623.891-.814.389-.198.84-.297 1.353-.297.763 0 1.371.198 1.826.594.455.389.693.92.715 1.595h-1.375c-.022-.315-.136-.557-.341-.726-.198-.176-.473-.264-.825-.264-.367 0-.656.103-.869.308-.213.198-.319.484-.319.858v1.529c0 .374.106.664.319.869.213.205.502.308.869.308.352 0 .627-.084.825-.253.205-.176.319-.422.341-.737h1.375c-.022.675-.26 1.21-.715 1.606-.455.389-1.063.583-1.826.583zm5.807-.11v-4.785h-2.068V31.95h5.522v1.265h-2.068V38h-1.386zm7.215.099c-.513 0-.96-.095-1.342-.286a2.222 2.222 0 01-.88-.825c-.205-.36-.308-.781-.308-1.265v-1.496c0-.484.103-.902.308-1.254.213-.36.506-.634.88-.825.382-.198.829-.297 1.342-.297.521 0 .968.099 1.342.297.374.19.664.466.869.825.213.352.319.766.319 1.243v1.507c0 .484-.106.906-.319 1.265a2.141 2.141 0 01-.869.825c-.374.19-.821.286-1.342.286zm0-1.199c.367 0 .649-.099.847-.297.206-.205.308-.499.308-.88v-1.496c0-.389-.102-.682-.308-.88-.198-.198-.48-.297-.847-.297-.359 0-.641.099-.847.297-.205.198-.308.491-.308.88v1.496c0 .381.103.675.308.88.206.198.488.297.847.297zm10.592 1.1v-6.05h2.684c.696 0 1.243.147 1.639.44.403.286.605.682.605 1.188 0 .41-.158.74-.473.99-.308.25-.719.374-1.232.374v-.099c.557 0 1.004.132 1.342.396.337.257.506.601.506 1.034 0 .535-.206.957-.616 1.265-.404.308-.961.462-1.672.462h-2.783zm1.353-1.045h1.386c.308 0 .55-.07.726-.209a.678.678 0 00.264-.561c0-.25-.088-.444-.264-.583-.176-.14-.418-.209-.726-.209h-1.386v1.562zm0-2.486h1.342c.271 0 .487-.066.649-.198a.66.66 0 00.242-.539.66.66 0 00-.242-.539c-.154-.14-.371-.209-.649-.209h-1.342v1.485zM202.171 38v-6.05h1.188v2.046h.407c.653 0 1.17.183 1.551.55.381.367.572.858.572 1.474 0 .601-.194 1.082-.583 1.441-.381.36-.895.539-1.54.539h-1.595zm1.188-1.067h.407c.315 0 .557-.08.726-.242.176-.161.264-.385.264-.671 0-.3-.088-.535-.264-.704-.169-.169-.411-.253-.726-.253h-.407v1.87zM206.483 38v-6.05h1.188V38h-1.188zm2.518 0v-6.05h4.884V38h-1.375v-4.774h-2.134V38h-1.375zm8.964.099c-.513 0-.96-.095-1.342-.286a2.222 2.222 0 01-.88-.825c-.205-.36-.308-.781-.308-1.265v-1.496c0-.484.103-.902.308-1.254.213-.36.506-.634.88-.825.382-.198.829-.297 1.342-.297.521 0 .968.099 1.342.297.374.19.664.466.869.825.213.352.319.766.319 1.243v1.507c0 .484-.106.906-.319 1.265a2.141 2.141 0 01-.869.825c-.374.19-.821.286-1.342.286zm0-1.199c.367 0 .649-.099.847-.297.206-.205.308-.499.308-.88v-1.496c0-.389-.102-.682-.308-.88-.198-.198-.48-.297-.847-.297-.359 0-.641.099-.847.297-.205.198-.308.491-.308.88v1.496c0 .381.103.675.308.88.206.198.488.297.847.297zm3.475 1.177v-1.254h.275c.25 0 .437-.099.561-.297.132-.205.202-.528.209-.968l.066-3.608h4.378V38h-1.375v-4.774h-1.65l-.044 2.409c-.014.528-.102.975-.264 1.342-.161.36-.392.634-.693.825-.3.183-.667.275-1.1.275h-.363zm7.128-.077v-6.05h1.375v2.343h2.134V31.95h1.375V38h-1.375v-2.431h-2.134V38h-1.375zm6.258 0l1.419-2.211c-.418-.132-.745-.356-.979-.671-.235-.315-.352-.693-.352-1.133 0-.638.212-1.137.638-1.496.425-.36 1.012-.539 1.76-.539h2.662V38h-1.364v-2.057h-.979L236.399 38h-1.573zm2.541-3.157h1.243v-1.76h-1.243c-.338 0-.602.077-.792.231-.191.154-.286.374-.286.66 0 .271.095.484.286.638.19.154.454.231.792.231zm6.698 3.267c-.513 0-.961-.099-1.342-.297a2.206 2.206 0 01-.891-.825c-.205-.36-.308-.777-.308-1.254v-1.518c0-.477.103-.891.308-1.243.213-.36.51-.638.891-.836.381-.198.829-.297 1.342-.297.506 0 .946.099 1.32.297.381.198.675.477.88.836.213.352.319.766.319 1.243v1.089h-3.729v.429c0 .425.103.748.308.968.205.213.51.319.913.319.308 0 .557-.051.748-.154a.732.732 0 00.363-.473h1.353c-.103.52-.381.939-.836 1.254-.447.308-.994.462-1.639.462zm1.188-3.575v-.33c0-.418-.099-.737-.297-.957-.198-.227-.495-.341-.891-.341s-.697.114-.902.341c-.205.227-.308.55-.308.968v.231l2.497-.022-.099.11zM247.892 38v-6.05h1.65l.748 2.277c.081.25.147.484.198.704.059.22.095.385.11.495l.099-.495a8.47 8.47 0 01.198-.704l.715-2.277h1.65V38h-1.276v-1.034a45.065 45.065 0 01.044-1.958c.015-.36.029-.7.044-1.023.022-.33.04-.62.055-.869l-.913 3.135h-1.254l-.946-3.124c.022.308.044.69.066 1.144a41.714 41.714 0 01.088 2.695V38h-1.276zm13.275 1.98v-8.03h1.342v1.155h.308l-.308.319c0-.491.147-.876.44-1.155.294-.286.69-.429 1.188-.429.609 0 1.097.209 1.463.627.367.418.55.979.55 1.683v1.639c0 .47-.084.88-.253 1.232a1.853 1.853 0 01-.693.803c-.3.19-.656.286-1.067.286-.498 0-.894-.14-1.188-.418-.293-.286-.44-.675-.44-1.166l.308.319h-.319l.044 1.441v1.694h-1.375zm2.486-3.058c.352 0 .627-.103.825-.308.198-.205.297-.499.297-.88v-1.518c0-.381-.099-.675-.297-.88-.198-.205-.473-.308-.825-.308-.344 0-.616.106-.814.319-.198.205-.297.495-.297.869v1.518c0 .374.099.667.297.88.198.205.47.308.814.308zm5.819 1.188c-.624 0-1.115-.165-1.474-.495-.36-.33-.539-.774-.539-1.331 0-.594.198-1.052.594-1.375.396-.323.957-.484 1.683-.484h1.507v-.517c0-.293-.096-.52-.286-.682-.191-.169-.451-.253-.781-.253-.301 0-.55.066-.748.198a.77.77 0 00-.352.539h-1.342a1.91 1.91 0 01.77-1.364c.447-.337 1.019-.506 1.716-.506.74 0 1.323.187 1.749.561.432.367.649.865.649 1.496V38h-1.331v-1.056h-.22l.22-.297c0 .447-.165.803-.495 1.067-.33.264-.77.396-1.32.396zm.451-1.034c.388 0 .704-.099.946-.297a.94.94 0 00.374-.77v-.737h-1.485c-.279 0-.503.08-.671.242-.169.161-.253.374-.253.638 0 .286.095.513.286.682.198.161.465.242.803.242zm6.742 1.034c-.77-.007-1.383-.224-1.837-.649-.448-.425-.671-1.008-.671-1.749v-2.717c0-.968.26-1.712.781-2.233.52-.528 1.261-.792 2.222-.792h1.705v1.342h-1.705c-.528 0-.932.143-1.21.429-.272.286-.407.704-.407 1.254v.748h.154l-.143.176c0-.418.139-.748.418-.99.278-.242.671-.363 1.177-.363.638 0 1.133.209 1.485.627.359.41.539.983.539 1.716v.803c0 .491-.103.92-.308 1.287-.206.36-.495.638-.869.836-.367.19-.811.282-1.331.275zm0-1.199c.366 0 .645-.103.836-.308.19-.213.286-.51.286-.891v-.803c0-.389-.096-.686-.286-.891-.191-.205-.47-.308-.836-.308-.36 0-.638.103-.836.308-.191.198-.286.495-.286.891v.803c0 .381.095.678.286.891.198.205.476.308.836.308zm6.522 1.188c-.513 0-.961-.095-1.342-.286a2.222 2.222 0 01-.88-.825c-.205-.36-.308-.781-.308-1.265v-1.496c0-.484.103-.902.308-1.254.213-.36.506-.634.88-.825.381-.198.829-.297 1.342-.297.521 0 .968.099 1.342.297.374.19.664.466.869.825.213.352.319.766.319 1.243v1.507c0 .484-.106.906-.319 1.265a2.141 2.141 0 01-.869.825c-.374.19-.821.286-1.342.286zm0-1.199c.367 0 .649-.099.847-.297.205-.205.308-.499.308-.88v-1.496c0-.389-.103-.682-.308-.88-.198-.198-.48-.297-.847-.297-.359 0-.642.099-.847.297-.205.198-.308.491-.308.88v1.496c0 .381.103.675.308.88.205.198.488.297.847.297zm5.829 1.1v-4.785h-2.068V31.95h5.522v1.265h-2.068V38h-1.386zm5.741 1.98l.847-2.31-2.255-5.72h1.507l1.122 3.091c.059.169.118.374.176.616.059.235.103.429.132.583l.143-.583a7.09 7.09 0 01.176-.616l1.056-3.091h1.452l-2.915 8.03h-1.441zm11.219-4.972v-1.276h6.6v1.276h-6.6zM319.636 38v-6.05h1.65l.748 2.277c.081.25.147.484.198.704.059.22.095.385.11.495l.099-.495a8.47 8.47 0 01.198-.704l.715-2.277h1.65V38h-1.276v-1.034a45.065 45.065 0 01.044-1.958c.015-.36.029-.7.044-1.023.022-.33.04-.62.055-.869l-.913 3.135h-1.254l-.946-3.124c.022.308.044.69.066 1.144a41.714 41.714 0 01.088 2.695V38h-1.276zm6.456 0v-6.05h1.188v2.046h.407c.653 0 1.17.183 1.551.55.382.367.572.858.572 1.474 0 .601-.194 1.082-.583 1.441-.381.36-.894.539-1.54.539h-1.595zm1.188-1.067h.407c.316 0 .558-.08.726-.242.176-.161.264-.385.264-.671 0-.3-.088-.535-.264-.704-.168-.169-.41-.253-.726-.253h-.407v1.87zM330.404 38v-6.05h1.188V38h-1.188zM22.322 58.11c-.513 0-.964-.095-1.353-.286a2.202 2.202 0 01-.891-.825c-.213-.36-.319-.781-.319-1.265v-1.518c0-.491.106-.913.319-1.265.213-.352.51-.623.891-.814.389-.198.84-.297 1.353-.297.763 0 1.371.198 1.826.594.455.389.693.92.715 1.595h-1.375c-.022-.315-.136-.557-.341-.726-.198-.176-.473-.264-.825-.264-.367 0-.656.103-.869.308-.213.198-.319.484-.319.858v1.529c0 .374.106.664.319.869.213.205.502.308.869.308.352 0 .627-.084.825-.253.205-.176.319-.422.341-.737h1.375c-.022.675-.26 1.21-.715 1.606-.455.389-1.063.583-1.826.583zm5.807-.11v-4.785h-2.068V51.95h5.522v1.265h-2.068V58H28.13zm6.544.11c-.623 0-1.114-.165-1.474-.495-.359-.33-.539-.774-.539-1.331 0-.594.198-1.052.594-1.375.396-.323.957-.484 1.683-.484h1.507v-.517c0-.293-.095-.52-.286-.682-.19-.169-.45-.253-.78-.253-.301 0-.55.066-.749.198a.773.773 0 00-.352.539h-1.342a1.912 1.912 0 01.77-1.364c.448-.337 1.02-.506 1.716-.506.741 0 1.324.187 1.75.561.432.367.648.865.648 1.496V58h-1.33v-1.056h-.22l.22-.297c0 .447-.166.803-.496 1.067-.33.264-.77.396-1.32.396zm.451-1.034c.389 0 .704-.099.946-.297a.938.938 0 00.374-.77v-.737H34.96c-.278 0-.502.08-.67.242-.17.161-.254.374-.254.638 0 .286.096.513.286.682.198.161.466.242.803.242zm4.3.924v-6.05H40.8v2.343h2.134V51.95h1.375V58h-1.375v-2.431H40.8V58h-1.375zm8.965.099c-.514 0-.961-.095-1.342-.286a2.22 2.22 0 01-.88-.825c-.206-.36-.308-.781-.308-1.265v-1.496c0-.484.102-.902.308-1.254.212-.36.506-.634.88-.825.381-.198.828-.297 1.342-.297.52 0 .968.099 1.342.297.374.19.663.466.869.825.212.352.319.766.319 1.243v1.507c0 .484-.107.906-.32 1.265a2.143 2.143 0 01-.868.825c-.374.19-.822.286-1.342.286zm0-1.199c.366 0 .649-.099.847-.297.205-.205.308-.499.308-.88v-1.496c0-.389-.103-.682-.308-.88-.198-.198-.48-.297-.847-.297-.36 0-.642.099-.847.297-.206.198-.308.491-.308.88v1.496c0 .381.102.675.308.88.205.198.487.297.847.297zm4.069 1.1v-6.05h2.684c.697 0 1.243.147 1.639.44.403.286.605.682.605 1.188 0 .41-.158.74-.473.99-.308.25-.719.374-1.232.374v-.099c.557 0 1.005.132 1.342.396.337.257.506.601.506 1.034 0 .535-.206.957-.616 1.265-.403.308-.96.462-1.672.462h-2.783zm1.353-1.045h1.386c.308 0 .55-.07.726-.209a.678.678 0 00.264-.561c0-.25-.088-.444-.264-.583-.176-.14-.418-.209-.726-.209H53.81v1.562zm0-2.486h1.342c.271 0 .488-.066.649-.198a.66.66 0 00.242-.539.66.66 0 00-.242-.539c-.154-.14-.37-.209-.65-.209h-1.341v1.485zM58.99 58v-6.05h1.243v2.981c0 .19-.011.418-.033.682-.015.257-.037.51-.066.759-.03.25-.059.466-.088.649l2.134-5.071h1.694V58h-1.243v-2.981c0-.198.007-.418.022-.66l.066-.715c.03-.235.059-.433.088-.594L60.685 58h-1.694zm6.28 0v-6.05h1.65l.748 2.277c.08.25.147.484.198.704.059.22.096.385.11.495l.1-.495c.05-.22.117-.455.197-.704l.715-2.277h1.65V58h-1.276v-1.034a51.494 51.494 0 01.044-1.958l.044-1.023c.022-.33.04-.62.055-.869l-.913 3.135H67.34l-.946-3.124c.022.308.044.69.066 1.144a41.985 41.985 0 01.088 2.695V58h-1.276zm9.228.11c-.513 0-.964-.095-1.353-.286a2.202 2.202 0 01-.89-.825c-.213-.36-.32-.781-.32-1.265v-1.518c0-.491.107-.913.32-1.265.212-.352.51-.623.89-.814.39-.198.84-.297 1.353-.297.763 0 1.372.198 1.826.594.455.389.693.92.715 1.595h-1.375c-.022-.315-.135-.557-.34-.726-.199-.176-.474-.264-.826-.264-.366 0-.656.103-.869.308-.212.198-.319.484-.319.858v1.529c0 .374.107.664.32.869.212.205.502.308.868.308.352 0 .627-.084.825-.253.206-.176.32-.422.341-.737h1.375c-.022.675-.26 1.21-.715 1.606-.454.389-1.063.583-1.826.583zm3.795-.11l1.419-2.211c-.418-.132-.745-.356-.98-.671-.234-.315-.351-.693-.351-1.133 0-.638.212-1.137.638-1.496.425-.36 1.012-.539 1.76-.539h2.662V58h-1.364v-2.057h-.98L79.868 58h-1.573zm2.54-3.157h1.244v-1.76h-1.243c-.338 0-.602.077-.792.231-.191.154-.286.374-.286.66 0 .271.095.484.286.638.19.154.454.231.792.231zM95.057 58v-2.035c-.095.022-.25.048-.462.077a6.438 6.438 0 01-.682.033c-.777 0-1.386-.19-1.826-.572-.44-.389-.66-.928-.66-1.617V51.95H92.8v1.87c0 .315.11.565.33.748.22.176.52.264.902.264.25 0 .466-.011.649-.033.183-.03.308-.055.374-.077V51.95h1.386V58h-1.386zm4.84.11c-.624 0-1.116-.165-1.475-.495-.36-.33-.539-.774-.539-1.331 0-.594.198-1.052.594-1.375.396-.323.957-.484 1.683-.484h1.507v-.517c0-.293-.095-.52-.286-.682-.191-.169-.451-.253-.781-.253-.301 0-.55.066-.748.198a.773.773 0 00-.352.539h-1.342a1.911 1.911 0 01.77-1.364c.447-.337 1.02-.506 1.716-.506.741 0 1.324.187 1.749.561.433.367.649.865.649 1.496V58h-1.331v-1.056h-.22l.22-.297c0 .447-.165.803-.495 1.067-.33.264-.77.396-1.32.396zm.45-1.034c.389 0 .704-.099.946-.297a.94.94 0 00.374-.77v-.737h-1.485c-.279 0-.502.08-.67.242-.17.161-.254.374-.254.638 0 .286.095.513.286.682.198.161.466.242.803.242zm6.764 1.034c-.513 0-.964-.095-1.353-.286a2.206 2.206 0 01-.891-.825c-.212-.36-.319-.781-.319-1.265v-1.518c0-.491.107-.913.319-1.265.213-.352.51-.623.891-.814.389-.198.84-.297 1.353-.297.763 0 1.372.198 1.826.594.455.389.693.92.715 1.595h-1.375c-.022-.315-.135-.557-.341-.726-.198-.176-.473-.264-.825-.264-.366 0-.656.103-.869.308-.212.198-.319.484-.319.858v1.529c0 .374.107.664.319.869.213.205.503.308.869.308.352 0 .627-.084.825-.253.206-.176.319-.422.341-.737h1.375c-.022.675-.26 1.21-.715 1.606-.454.389-1.063.583-1.826.583zm5.807-.11v-4.785h-2.068V51.95h5.522v1.265h-2.068V58h-1.386zm4.818 0v-6.05h1.375v1.98h1.562c.733 0 1.305.183 1.716.55.418.36.627.858.627 1.496 0 .623-.213 1.118-.638 1.485-.418.36-.983.539-1.694.539h-2.948zm1.375-1.21h1.507c.322 0 .568-.07.737-.209.176-.147.264-.352.264-.616s-.088-.466-.264-.605c-.169-.147-.415-.22-.737-.22h-1.507v1.65zm8.535 1.32c-.55 0-.983-.169-1.298-.506-.308-.337-.462-.785-.462-1.342v-.847h-.88V58h-1.177v-6.05h1.177v2.519h.88v-.792c0-.55.154-.994.462-1.331.308-.337.74-.506 1.298-.506.564 0 1.019.169 1.364.506.352.33.528.774.528 1.331v2.585c0 .557-.176 1.005-.528 1.342-.352.337-.807.506-1.364.506zm0-1.023a.664.664 0 00.517-.22c.132-.154.198-.356.198-.605v-2.585c0-.242-.066-.436-.198-.583a.65.65 0 00-.517-.231.66.66 0 00-.528.231c-.125.147-.187.341-.187.583v2.585c0 .25.062.451.187.605.132.147.308.22.528.22zm9.601.913v-6.05h2.684c.697 0 1.243.147 1.639.44.403.286.605.682.605 1.188 0 .41-.158.74-.473.99-.308.25-.719.374-1.232.374v-.099c.557 0 1.005.132 1.342.396.337.257.506.601.506 1.034 0 .535-.205.957-.616 1.265-.403.308-.961.462-1.672.462h-2.783zm1.353-1.045h1.386c.308 0 .55-.07.726-.209a.678.678 0 00.264-.561c0-.25-.088-.444-.264-.583-.176-.14-.418-.209-.726-.209H138.6v1.562zm0-2.486h1.342c.271 0 .488-.066.649-.198a.66.66 0 00.242-.539.66.66 0 00-.242-.539c-.154-.14-.37-.209-.649-.209H138.6v1.485zm6.951 3.641c-.623 0-1.114-.165-1.474-.495-.359-.33-.539-.774-.539-1.331 0-.594.198-1.052.594-1.375.396-.323.957-.484 1.683-.484h1.507v-.517c0-.293-.095-.52-.286-.682-.19-.169-.451-.253-.781-.253-.3 0-.55.066-.748.198a.774.774 0 00-.352.539h-1.342a1.913 1.913 0 01.77-1.364c.448-.337 1.02-.506 1.716-.506.741 0 1.324.187 1.749.561.433.367.649.865.649 1.496V58h-1.331v-1.056h-.22l.22-.297c0 .447-.165.803-.495 1.067-.33.264-.77.396-1.32.396zm.451-1.034c.389 0 .704-.099.946-.297a.936.936 0 00.374-.77v-.737h-1.485c-.278 0-.502.08-.671.242a.845.845 0 00-.253.638c0 .286.096.513.286.682.198.161.466.242.803.242zm4.003.924l-.011-6.05h1.177v5.093h1.078V51.95h1.001v5.093h1.078V51.95h1.166V58h-5.489zm9.273.11c-.514 0-.961-.099-1.342-.297a2.194 2.194 0 01-.891-.825c-.206-.36-.308-.777-.308-1.254v-1.518c0-.477.102-.891.308-1.243a2.17 2.17 0 01.891-.836c.381-.198.828-.297 1.342-.297.506 0 .946.099 1.32.297.381.198.674.477.88.836.212.352.319.766.319 1.243v1.089h-3.729v.429c0 .425.102.748.308.968.205.213.509.319.913.319.308 0 .557-.051.748-.154a.739.739 0 00.363-.473h1.353a1.94 1.94 0 01-.836 1.254c-.448.308-.994.462-1.639.462zm1.188-3.575v-.33c0-.418-.099-.737-.297-.957-.198-.227-.495-.341-.891-.341s-.697.114-.902.341c-.206.227-.308.55-.308.968v.231l2.497-.022-.099.11zm2.88 3.465v-6.05h1.243v2.981c0 .19-.011.418-.033.682-.015.257-.037.51-.066.759-.03.25-.059.466-.088.649l2.134-5.071h1.694V58h-1.243v-2.981c0-.198.007-.418.022-.66l.066-.715c.029-.235.058-.433.088-.594L165.04 58h-1.694zm2.486-7.007c-.572 0-1.038-.15-1.397-.451-.352-.3-.528-.693-.528-1.177h1.067c0 .242.077.436.231.583.161.147.37.22.627.22.256 0 .462-.073.616-.22a.751.751 0 00.242-.583h1.067c0 .484-.176.876-.528 1.177-.352.3-.818.451-1.397.451zM176.423 58v-6.05h1.375v2.376h.902l1.474-2.376h1.54l-1.826 2.926L181.747 58h-1.573l-1.474-2.508h-.902V58h-1.375zm8.931.099c-.513 0-.96-.095-1.342-.286a2.222 2.222 0 01-.88-.825c-.205-.36-.308-.781-.308-1.265v-1.496c0-.484.103-.902.308-1.254.213-.36.506-.634.88-.825.382-.198.829-.297 1.342-.297.521 0 .968.099 1.342.297.374.19.664.466.869.825.213.352.319.766.319 1.243v1.507c0 .484-.106.906-.319 1.265a2.141 2.141 0 01-.869.825c-.374.19-.821.286-1.342.286zm0-1.199c.367 0 .649-.099.847-.297.206-.205.308-.499.308-.88v-1.496c0-.389-.102-.682-.308-.88-.198-.198-.48-.297-.847-.297-.359 0-.641.099-.847.297-.205.198-.308.491-.308.88v1.496c0 .381.103.675.308.88.206.198.488.297.847.297zm3.839 1.1v-6.05h1.65l.748 2.277c.08.25.146.484.198.704.058.22.095.385.11.495l.099-.495a8.47 8.47 0 01.198-.704l.715-2.277h1.65V58h-1.276v-1.034a47.392 47.392 0 01.044-1.958c.014-.36.029-.7.044-1.023.022-.33.04-.62.055-.869l-.913 3.135h-1.254l-.946-3.124c.022.308.044.69.066 1.144a41.714 41.714 0 01.088 2.695V58h-1.276zm8.535.11c-.624 0-1.115-.165-1.474-.495-.36-.33-.539-.774-.539-1.331 0-.594.198-1.052.594-1.375.396-.323.957-.484 1.683-.484h1.507v-.517c0-.293-.096-.52-.286-.682-.191-.169-.451-.253-.781-.253-.301 0-.55.066-.748.198a.77.77 0 00-.352.539h-1.342a1.91 1.91 0 01.77-1.364c.447-.337 1.019-.506 1.716-.506.74 0 1.323.187 1.749.561.432.367.649.865.649 1.496V58h-1.331v-1.056h-.22l.22-.297c0 .447-.165.803-.495 1.067-.33.264-.77.396-1.32.396zm.451-1.034c.388 0 .704-.099.946-.297a.94.94 0 00.374-.77v-.737h-1.485c-.279 0-.503.08-.671.242-.169.161-.253.374-.253.638 0 .286.095.513.286.682.198.161.465.242.803.242zm4.3.924v-6.05h1.375v2.343h2.134V51.95h1.375V58h-1.375v-2.431h-2.134V58h-1.375zm5.939 1.54v-2.706h.407c.125-.125.253-.352.385-.682.139-.337.213-.755.22-1.254l.066-2.948h4.235v4.884h.715v2.706h-1.265V58h-3.498v1.54h-1.265zm1.804-2.706h2.2v-3.685h-1.65l-.044 1.749c-.007.491-.07.906-.187 1.243-.11.33-.216.561-.319.693zM215.215 58v-6.05h1.188v2.046h.407c.653 0 1.17.183 1.551.55.382.367.572.858.572 1.474 0 .601-.194 1.082-.583 1.441-.381.36-.894.539-1.54.539h-1.595zm1.188-1.067h.407c.316 0 .558-.08.726-.242.176-.161.264-.385.264-.671 0-.3-.088-.535-.264-.704-.168-.169-.41-.253-.726-.253h-.407v1.87zM219.527 58v-6.05h1.188V58h-1.188zm3.31 1.76l.88-3.421h1.76l-1.43 3.421h-1.21zm12.242.22v-8.03h1.342v1.155h.308l-.308.319c0-.491.146-.876.44-1.155.293-.286.689-.429 1.188-.429.608 0 1.096.209 1.463.627.366.418.55.979.55 1.683v1.639c0 .47-.085.88-.253 1.232a1.866 1.866 0 01-.693.803c-.301.19-.657.286-1.067.286-.499 0-.895-.14-1.188-.418-.294-.286-.44-.675-.44-1.166l.308.319h-.319l.044 1.441v1.694h-1.375zm2.486-3.058c.352 0 .627-.103.825-.308.198-.205.297-.499.297-.88v-1.518c0-.381-.099-.675-.297-.88-.198-.205-.473-.308-.825-.308-.345 0-.616.106-.814.319-.198.205-.297.495-.297.869v1.518c0 .374.099.667.297.88.198.205.469.308.814.308zm5.818 1.188c-.623 0-1.115-.165-1.474-.495-.359-.33-.539-.774-.539-1.331 0-.594.198-1.052.594-1.375.396-.323.957-.484 1.683-.484h1.507v-.517c0-.293-.095-.52-.286-.682-.191-.169-.451-.253-.781-.253-.301 0-.55.066-.748.198a.774.774 0 00-.352.539h-1.342a1.913 1.913 0 01.77-1.364c.447-.337 1.019-.506 1.716-.506.741 0 1.324.187 1.749.561.433.367.649.865.649 1.496V58h-1.331v-1.056h-.22l.22-.297c0 .447-.165.803-.495 1.067-.33.264-.77.396-1.32.396zm.451-1.034c.389 0 .704-.099.946-.297a.94.94 0 00.374-.77v-.737h-1.485c-.279 0-.502.08-.671.242-.169.161-.253.374-.253.638 0 .286.095.513.286.682.198.161.466.242.803.242zm6.445 1.001c-.66 0-1.206-.15-1.639-.451a1.855 1.855 0 01-.781-1.254h1.375a.739.739 0 00.352.429c.191.103.422.154.693.154h.583c.286 0 .51-.066.671-.198a.678.678 0 00.253-.55c0-.235-.081-.418-.242-.55-.161-.132-.389-.198-.682-.198h-1.386v-1.1h1.331c.271 0 .48-.062.627-.187a.629.629 0 00.22-.506.599.599 0 00-.385-.594 1.22 1.22 0 00-.462-.077h-.517c-.257 0-.477.055-.66.165a.702.702 0 00-.33.44h-1.375c.088-.52.345-.939.77-1.254.425-.315.957-.473 1.595-.473h.517c.462 0 .858.07 1.188.209.337.132.598.323.781.572.183.242.275.535.275.88 0 .381-.139.693-.418.935-.279.242-.649.37-1.111.385v-.044c.528.015.939.154 1.232.418.293.257.44.612.44 1.067 0 .543-.213.975-.638 1.298-.418.323-.983.484-1.694.484h-.583zm3.794 1.463v-2.706h.407c.125-.125.253-.352.385-.682.14-.337.213-.755.22-1.254l.066-2.948h4.235v4.884h.715v2.706h-1.265V58h-3.498v1.54h-1.265zm1.804-2.706h2.2v-3.685h-1.65l-.044 1.749c-.007.491-.069.906-.187 1.243-.11.33-.216.561-.319.693zm7.754 1.276c-.513 0-.96-.099-1.342-.297a2.206 2.206 0 01-.891-.825c-.205-.36-.308-.777-.308-1.254v-1.518c0-.477.103-.891.308-1.243.213-.36.51-.638.891-.836.382-.198.829-.297 1.342-.297.506 0 .946.099 1.32.297a2.1 2.1 0 01.88.836c.213.352.319.766.319 1.243v1.089h-3.729v.429c0 .425.103.748.308.968.206.213.51.319.913.319.308 0 .558-.051.748-.154a.732.732 0 00.363-.473h1.353c-.102.52-.381.939-.836 1.254-.447.308-.993.462-1.639.462zm1.188-3.575v-.33c0-.418-.099-.737-.297-.957-.198-.227-.495-.341-.891-.341s-.696.114-.902.341c-.205.227-.308.55-.308.968v.231l2.497-.022-.099.11zm2.277 3.542v-1.254h.275a.62.62 0 00.561-.297c.132-.205.201-.528.209-.968l.066-3.608h4.378V58h-1.375v-4.774h-1.65l-.044 2.409c-.015.528-.103.975-.264 1.342-.162.36-.393.634-.693.825-.301.183-.668.275-1.1.275h-.363zm6.863-.077l1.419-2.211c-.418-.132-.745-.356-.979-.671-.235-.315-.352-.693-.352-1.133 0-.638.212-1.137.638-1.496.425-.36 1.012-.539 1.76-.539h2.662V58h-1.364v-2.057h-.979L275.532 58h-1.573zm2.541-3.157h1.243v-1.76H276.5c-.338 0-.602.077-.792.231-.191.154-.286.374-.286.66 0 .271.095.484.286.638.19.154.454.231.792.231zM280.481 58l1.419-2.211c-.418-.132-.744-.356-.979-.671-.235-.315-.352-.693-.352-1.133 0-.638.213-1.137.638-1.496.425-.36 1.012-.539 1.76-.539h2.662V58h-1.364v-2.057h-.979L282.054 58h-1.573zm2.541-3.157h1.243v-1.76h-1.243c-.337 0-.601.077-.792.231-.191.154-.286.374-.286.66 0 .271.095.484.286.638.191.154.455.231.792.231zM293.778 58v-6.05h2.684c.697 0 1.243.147 1.639.44.404.286.605.682.605 1.188 0 .41-.157.74-.473.99-.308.25-.718.374-1.232.374v-.099c.558 0 1.005.132 1.342.396.338.257.506.601.506 1.034 0 .535-.205.957-.616 1.265-.403.308-.96.462-1.672.462h-2.783zm1.353-1.045h1.386c.308 0 .55-.07.726-.209a.678.678 0 00.264-.561c0-.25-.088-.444-.264-.583-.176-.14-.418-.209-.726-.209h-1.386v1.562zm0-2.486h1.342c.272 0 .488-.066.649-.198a.657.657 0 00.242-.539.657.657 0 00-.242-.539c-.154-.14-.37-.209-.649-.209h-1.342v1.485zm6.951 3.641c-.623 0-1.114-.165-1.474-.495-.359-.33-.539-.774-.539-1.331 0-.594.198-1.052.594-1.375.396-.323.957-.484 1.683-.484h1.507v-.517c0-.293-.095-.52-.286-.682-.19-.169-.451-.253-.781-.253-.3 0-.55.066-.748.198a.774.774 0 00-.352.539h-1.342a1.913 1.913 0 01.77-1.364c.448-.337 1.02-.506 1.716-.506.741 0 1.324.187 1.749.561.433.367.649.865.649 1.496V58h-1.331v-1.056h-.22l.22-.297c0 .447-.165.803-.495 1.067-.33.264-.77.396-1.32.396zm.451-1.034c.389 0 .704-.099.946-.297a.936.936 0 00.374-.77v-.737h-1.485c-.278 0-.502.08-.671.242a.845.845 0 00-.253.638c0 .286.096.513.286.682.198.161.466.242.803.242zm4.004.924l-.011-6.05h1.177v5.093h1.078V51.95h1.001v5.093h1.078V51.95h1.166V58h-5.489zm6.819 0v-6.05h1.243v2.981c0 .19-.011.418-.033.682-.015.257-.037.51-.066.759-.03.25-.059.466-.088.649l2.134-5.071h1.694V58h-1.243v-2.981c0-.198.007-.418.022-.66l.066-.715c.029-.235.058-.433.088-.594L315.05 58h-1.694zM24.038 79.54V78h-4.18v-6.05h1.375v4.785h1.87V71.95h1.375v4.785h.825v2.805h-1.265zm4.795-1.43c-.513 0-.96-.099-1.342-.297a2.201 2.201 0 01-.89-.825c-.206-.36-.309-.777-.309-1.254v-1.518c0-.477.103-.891.308-1.243.213-.36.51-.638.891-.836.381-.198.829-.297 1.342-.297.506 0 .946.099 1.32.297.382.198.675.477.88.836.213.352.32.766.32 1.243v1.089h-3.73v.429c0 .425.103.748.308.968.206.213.51.319.913.319.308 0 .557-.051.748-.154a.735.735 0 00.363-.473h1.353c-.102.52-.381.939-.836 1.254-.447.308-.994.462-1.639.462zm1.188-3.575v-.33c0-.418-.099-.737-.297-.957-.198-.227-.495-.341-.89-.341-.397 0-.697.114-.903.341-.205.227-.308.55-.308.968v.231l2.497-.022-.099.11zm2.276 3.542v-1.254h.275c.25 0 .437-.099.561-.297.132-.205.202-.528.21-.968l.065-3.608h4.378V78h-1.375v-4.774h-1.65l-.044 2.409c-.014.528-.102.975-.264 1.342-.161.36-.392.634-.693.825-.3.183-.667.275-1.1.275h-.363zM39.425 78v-6.05h1.242v2.981c0 .19-.01.418-.032.682-.015.257-.037.51-.066.759-.03.25-.06.466-.089.649l2.135-5.071h1.694V78h-1.243v-2.981c0-.198.007-.418.021-.66l.066-.715c.03-.235.06-.433.089-.594L41.119 78h-1.694zm13.044 0v-6.05h1.243v2.981c0 .19-.011.418-.033.682-.015.257-.037.51-.066.759-.03.25-.059.466-.088.649l2.134-5.071h1.694V78H56.11v-2.981c0-.198.007-.418.022-.66l.066-.715c.03-.235.059-.433.088-.594L54.163 78h-1.694zm14.012 1.98l.847-2.31-2.255-5.72h1.507l1.122 3.091c.059.169.118.374.176.616.059.235.103.429.132.583.037-.154.084-.348.143-.583a6.78 6.78 0 01.176-.616l1.056-3.091h1.452l-2.915 8.03h-1.44zm8.018-1.87c-.513 0-.964-.095-1.353-.286a2.202 2.202 0 01-.89-.825c-.213-.36-.32-.781-.32-1.265v-1.518c0-.491.107-.913.32-1.265.212-.352.51-.623.89-.814.39-.198.84-.297 1.353-.297.763 0 1.372.198 1.826.594.455.389.693.92.715 1.595h-1.375c-.022-.315-.135-.557-.34-.726-.199-.176-.474-.264-.826-.264-.366 0-.656.103-.869.308-.212.198-.319.484-.319.858v1.529c0 .374.107.664.32.869.212.205.502.308.868.308.352 0 .627-.084.825-.253.206-.176.32-.422.341-.737h1.375c-.022.675-.26 1.21-.715 1.606-.454.389-1.063.583-1.826.583zm5.808-.11v-4.785h-2.068V71.95h5.522v1.265h-2.068V78h-1.386zm4.762 1.98v-8.03h1.342v1.155h.308l-.308.319c0-.491.146-.876.44-1.155.293-.286.69-.429 1.188-.429.608 0 1.096.209 1.463.627.366.418.55.979.55 1.683v1.639c0 .47-.085.88-.253 1.232a1.857 1.857 0 01-.693.803c-.3.19-.657.286-1.067.286-.499 0-.895-.14-1.188-.418-.294-.286-.44-.675-.44-1.166l.308.319h-.32l.045 1.441v1.694h-1.375zm2.486-3.058c.352 0 .627-.103.825-.308.198-.205.297-.499.297-.88v-1.518c0-.381-.1-.675-.297-.88-.198-.205-.473-.308-.825-.308-.345 0-.616.106-.814.319-.198.205-.297.495-.297.869v1.518c0 .374.099.667.297.88.198.205.47.308.814.308zm6.5 1.188c-.513 0-.96-.099-1.342-.297a2.202 2.202 0 01-.891-.825c-.205-.36-.308-.777-.308-1.254v-1.518c0-.477.103-.891.308-1.243.213-.36.51-.638.89-.836.382-.198.83-.297 1.343-.297.506 0 .946.099 1.32.297.381.198.675.477.88.836.213.352.319.766.319 1.243v1.089h-3.73v.429c0 .425.104.748.309.968.205.213.51.319.913.319.308 0 .557-.051.748-.154a.734.734 0 00.363-.473h1.353c-.103.52-.381.939-.836 1.254-.447.308-.994.462-1.64.462zm1.188-3.575v-.33c0-.418-.1-.737-.297-.957-.198-.227-.495-.341-.891-.341s-.697.114-.902.341c-.205.227-.308.55-.308.968v.231l2.497-.022-.1.11zM97.883 78v-6.05h1.65l.747 2.277c.081.25.147.484.198.704.059.22.095.385.11.495l.099-.495a8.47 8.47 0 01.198-.704l.715-2.277h1.65V78h-1.276v-1.034a45.065 45.065 0 01.044-1.958c.015-.36.029-.7.044-1.023.022-.33.04-.62.055-.869l-.913 3.135H99.95l-.946-3.124c.022.308.044.69.066 1.144a42.297 42.297 0 01.088 2.695V78h-1.276zm6.158.077v-1.254h.275c.25 0 .437-.099.561-.297.132-.205.202-.528.209-.968l.066-3.608h4.378V78h-1.375v-4.774h-1.65l-.044 2.409c-.014.528-.102.975-.264 1.342-.161.36-.392.634-.693.825-.3.183-.667.275-1.1.275h-.363zm9.58.033c-.513 0-.96-.099-1.342-.297a2.206 2.206 0 01-.891-.825c-.205-.36-.308-.777-.308-1.254v-1.518c0-.477.103-.891.308-1.243.213-.36.51-.638.891-.836.382-.198.829-.297 1.342-.297.506 0 .946.099 1.32.297a2.1 2.1 0 01.88.836c.213.352.319.766.319 1.243v1.089h-3.729v.429c0 .425.103.748.308.968.206.213.51.319.913.319.308 0 .558-.051.748-.154a.732.732 0 00.363-.473h1.353c-.102.52-.381.939-.836 1.254-.447.308-.993.462-1.639.462zm1.188-3.575v-.33c0-.418-.099-.737-.297-.957-.198-.227-.495-.341-.891-.341s-.696.114-.902.341c-.205.227-.308.55-.308.968v.231l2.497-.022-.099.11zM117.691 78v-6.05h1.375v2.343h2.134V71.95h1.375V78H121.2v-2.431h-2.134V78h-1.375zm6.522 0v-6.05h1.243v2.981c0 .19-.011.418-.033.682-.015.257-.037.51-.066.759-.03.25-.059.466-.088.649l2.134-5.071h1.694V78h-1.243v-2.981c0-.198.007-.418.022-.66l.066-.715c.029-.235.058-.433.088-.594L125.907 78h-1.694zm6.258 0l1.419-2.211c-.418-.132-.744-.356-.979-.671-.235-.315-.352-.693-.352-1.133 0-.638.213-1.137.638-1.496.425-.36 1.012-.539 1.76-.539h2.662V78h-1.364v-2.057h-.979L132.044 78h-1.573zm2.541-3.157h1.243v-1.76h-1.243c-.337 0-.601.077-.792.231-.191.154-.286.374-.286.66 0 .271.095.484.286.638.191.154.455.231.792.231zm6.687 3.267c-.315 0-.568-.092-.759-.275-.183-.183-.275-.433-.275-.748s.092-.565.275-.748c.191-.19.444-.286.759-.286s.565.095.748.286c.191.183.286.433.286.748s-.095.565-.286.748c-.183.183-.433.275-.748.275zM150.29 78v-8.03h1.375v3.223h2.156V69.97h1.375V78h-1.375v-3.531h-2.156V78h-1.375zm8.305.11c-.624 0-1.115-.165-1.474-.495-.36-.33-.539-.774-.539-1.331 0-.594.198-1.052.594-1.375.396-.323.957-.484 1.683-.484h1.507v-.517c0-.293-.096-.52-.286-.682-.191-.169-.451-.253-.781-.253-.301 0-.55.066-.748.198a.77.77 0 00-.352.539h-1.342a1.91 1.91 0 01.77-1.364c.447-.337 1.019-.506 1.716-.506.74 0 1.323.187 1.749.561.432.367.649.865.649 1.496V78h-1.331v-1.056h-.22l.22-.297c0 .447-.165.803-.495 1.067-.33.264-.77.396-1.32.396zm.451-1.034c.388 0 .704-.099.946-.297a.94.94 0 00.374-.77v-.737h-1.485c-.279 0-.503.08-.671.242-.169.161-.253.374-.253.638 0 .286.095.513.286.682.198.161.465.242.803.242zm4.003.924l-.011-6.05h1.177v5.093h1.078V71.95h1.001v5.093h1.078V71.95h1.166V78h-5.489zm8.59.11c-.623 0-1.115-.165-1.474-.495-.359-.33-.539-.774-.539-1.331 0-.594.198-1.052.594-1.375.396-.323.957-.484 1.683-.484h1.507v-.517c0-.293-.095-.52-.286-.682-.191-.169-.451-.253-.781-.253-.301 0-.55.066-.748.198a.774.774 0 00-.352.539h-1.342a1.913 1.913 0 01.77-1.364c.447-.337 1.019-.506 1.716-.506.741 0 1.324.187 1.749.561.433.367.649.865.649 1.496V78h-1.331v-1.056h-.22l.22-.297c0 .447-.165.803-.495 1.067-.33.264-.77.396-1.32.396zm.451-1.034c.389 0 .704-.099.946-.297a.94.94 0 00.374-.77v-.737h-1.485c-.279 0-.502.08-.671.242-.169.161-.253.374-.253.638 0 .286.095.513.286.682.198.161.466.242.803.242zm13.231 1.034c-.762 0-1.371-.194-1.826-.583-.447-.396-.685-.931-.715-1.606h1.386c.022.315.132.561.33.737.206.169.481.253.825.253.367 0 .649-.103.847-.308.206-.205.308-.495.308-.869v-.242h-1.892v-1.1h1.892v-.187c0-.374-.102-.66-.308-.858-.198-.205-.48-.308-.847-.308-.344 0-.619.088-.825.264-.198.169-.308.41-.33.726h-1.386c.03-.675.268-1.206.715-1.595.455-.396 1.064-.594 1.826-.594.521 0 .968.099 1.342.297.382.19.675.462.88.814.213.352.319.774.319 1.265v1.518c0 .484-.106.906-.319 1.265a2.121 2.121 0 01-.88.825c-.374.19-.821.286-1.342.286zm4.114-.11v-6.05h1.375v2.343h2.134V71.95h1.375V78h-1.375v-2.431h-2.134V78h-1.375zm8.975.11c-.514 0-.961-.099-1.342-.297a2.194 2.194 0 01-.891-.825c-.206-.36-.308-.777-.308-1.254v-1.518c0-.477.102-.891.308-1.243a2.17 2.17 0 01.891-.836c.381-.198.828-.297 1.342-.297.506 0 .946.099 1.32.297.381.198.674.477.88.836.212.352.319.766.319 1.243v1.089H197.2v.429c0 .425.102.748.308.968.205.213.509.319.913.319.308 0 .557-.051.748-.154a.739.739 0 00.363-.473h1.353a1.94 1.94 0 01-.836 1.254c-.448.308-.994.462-1.639.462zm1.188-3.575v-.33c0-.418-.099-.737-.297-.957-.198-.227-.495-.341-.891-.341s-.697.114-.902.341c-.206.227-.308.55-.308.968v.231l2.497-.022-.099.11zm2.87 5.445v-8.03h1.342v1.155h.308l-.308.319c0-.491.147-.876.44-1.155.293-.286.689-.429 1.188-.429.609 0 1.096.209 1.463.627.367.418.55.979.55 1.683v1.639c0 .47-.084.88-.253 1.232a1.853 1.853 0 01-.693.803c-.301.19-.656.286-1.067.286-.499 0-.895-.14-1.188-.418-.293-.286-.44-.675-.44-1.166l.308.319h-.319l.044 1.441v1.694h-1.375zm2.486-3.058c.352 0 .627-.103.825-.308.198-.205.297-.499.297-.88v-1.518c0-.381-.099-.675-.297-.88-.198-.205-.473-.308-.825-.308-.345 0-.616.106-.814.319-.198.205-.297.495-.297.869v1.518c0 .374.099.667.297.88.198.205.469.308.814.308zm4.52 1.078v-6.05h4.51v1.276h-3.135V78h-1.375zm6.049 0v-6.05h1.243v2.981c0 .19-.011.418-.033.682a14.424 14.424 0 01-.154 1.408l2.134-5.071h1.694V78h-1.243v-2.981c0-.198.008-.418.022-.66l.066-.715c.03-.235.059-.433.088-.594L217.217 78h-1.694zm6.258 0l1.419-2.211c-.418-.132-.744-.356-.979-.671-.234-.315-.352-.693-.352-1.133 0-.638.213-1.137.638-1.496.426-.36 1.012-.539 1.76-.539h2.662V78h-1.364v-2.057h-.979L223.354 78h-1.573zm2.541-3.157h1.243v-1.76h-1.243c-.337 0-.601.077-.792.231-.19.154-.286.374-.286.66 0 .271.096.484.286.638.191.154.455.231.792.231zm5.038 4.917l.88-3.421H232l-1.43 3.421h-1.21zm14.694-1.661c-.513 0-.961-.095-1.342-.286a2.222 2.222 0 01-.88-.825c-.205-.36-.308-.781-.308-1.265v-1.496c0-.484.103-.902.308-1.254.213-.36.506-.634.88-.825.381-.198.829-.297 1.342-.297.521 0 .968.099 1.342.297.374.19.664.466.869.825.213.352.319.766.319 1.243v1.507c0 .484-.106.906-.319 1.265a2.141 2.141 0 01-.869.825c-.374.19-.821.286-1.342.286zm0-1.199c.367 0 .649-.099.847-.297.205-.205.308-.499.308-.88v-1.496c0-.389-.103-.682-.308-.88-.198-.198-.48-.297-.847-.297-.359 0-.642.099-.847.297-.205.198-.308.491-.308.88v1.496c0 .381.103.675.308.88.205.198.488.297.847.297zm4.08 1.1v-6.05h4.884V78h-1.375v-4.774h-2.134V78h-1.375zm6.214 0v-6.05h1.188v2.046h.407c.653 0 1.17.183 1.551.55.382.367.572.858.572 1.474 0 .601-.194 1.082-.583 1.441-.381.36-.894.539-1.54.539h-1.595zm1.188-1.067h.407c.316 0 .558-.08.726-.242.176-.161.264-.385.264-.671 0-.3-.088-.535-.264-.704-.168-.169-.41-.253-.726-.253h-.407v1.87zM258.66 78v-6.05h1.188V78h-1.188zm4.267 0v-4.785h-2.068V71.95h5.522v1.265h-2.068V78h-1.386zM19.858 98v-6.05h1.243v2.981c0 .19-.011.418-.033.682-.015.257-.037.51-.066.759-.03.25-.059.466-.088.649l2.134-5.071h1.694V98h-1.243v-2.981c0-.198.007-.418.022-.66l.066-.715c.03-.235.059-.433.088-.594L21.552 98h-1.694zm13.044 0v-6.05h1.243v2.981c0 .19-.01.418-.033.682a14.227 14.227 0 01-.154 1.408l2.134-5.071h1.694V98h-1.243v-2.981c0-.198.008-.418.022-.66l.066-.715c.03-.235.059-.433.088-.594L34.596 98h-1.694zm6.523 0v-6.05H40.8v2.343h2.134V91.95h1.375V98h-1.375v-2.431H40.8V98h-1.375zm6.522 0v-6.05h1.375v2.343h2.134V91.95h1.375V98h-1.375v-2.431h-2.134V98h-1.375zm8.964.099c-.514 0-.96-.095-1.342-.286a2.22 2.22 0 01-.88-.825c-.206-.36-.308-.781-.308-1.265v-1.496c0-.484.102-.902.308-1.254.212-.36.506-.634.88-.825.381-.198.828-.297 1.342-.297.52 0 .968.099 1.342.297.374.19.663.466.869.825.212.352.319.766.319 1.243v1.507c0 .484-.107.906-.32 1.265a2.144 2.144 0 01-.868.825c-.374.19-.822.286-1.342.286zm0-1.199c.367 0 .649-.099.847-.297.205-.205.308-.499.308-.88v-1.496c0-.389-.103-.682-.308-.88-.198-.198-.48-.297-.847-.297-.36 0-.642.099-.847.297-.206.198-.308.491-.308.88v1.496c0 .381.102.675.308.88.205.198.487.297.847.297zM58.98 98v-6.05h2.684c.697 0 1.243.147 1.639.44.403.286.605.682.605 1.188 0 .41-.158.74-.473.99-.308.25-.719.374-1.232.374v-.099c.557 0 1.005.132 1.342.396.337.257.506.601.506 1.034 0 .535-.205.957-.616 1.265-.403.308-.96.462-1.672.462H58.98zm1.353-1.045h1.386c.308 0 .55-.07.726-.209a.678.678 0 00.264-.561c0-.25-.088-.444-.264-.583-.176-.14-.418-.209-.726-.209h-1.386v1.562zm0-2.486h1.342c.271 0 .488-.066.649-.198a.66.66 0 00.242-.539.66.66 0 00-.242-.539c-.154-.14-.37-.209-.649-.209h-1.342v1.485zm6.951 3.641c-.623 0-1.115-.165-1.474-.495-.36-.33-.539-.774-.539-1.331 0-.594.198-1.052.594-1.375.396-.323.957-.484 1.683-.484h1.507v-.517c0-.293-.095-.52-.286-.682-.19-.169-.45-.253-.78-.253-.302 0-.55.066-.749.198a.773.773 0 00-.352.539h-1.342a1.912 1.912 0 01.77-1.364c.447-.337 1.02-.506 1.716-.506.74 0 1.324.187 1.75.561.432.367.648.865.648 1.496V98H69.1v-1.056h-.22l.22-.297c0 .447-.166.803-.496 1.067-.33.264-.77.396-1.32.396zm.451-1.034c.389 0 .704-.099.946-.297a.938.938 0 00.374-.77v-.737H67.57c-.278 0-.502.08-.67.242-.17.161-.254.374-.254.638 0 .286.096.513.286.682.198.161.466.242.803.242zm8.48 2.464V98h-4.18v-6.05h1.375v4.785h1.87V91.95h1.375v4.785h.825v2.805h-1.265zM78.558 98v-6.05H79.8v2.981c0 .19-.011.418-.033.682-.015.257-.037.51-.066.759-.03.25-.06.466-.088.649l2.134-5.071h1.694V98h-1.243v-2.981c0-.198.007-.418.022-.66l.066-.715c.029-.235.058-.433.088-.594L80.252 98h-1.694zm8.964.099c-.514 0-.96-.095-1.342-.286a2.22 2.22 0 01-.88-.825c-.206-.36-.308-.781-.308-1.265v-1.496c0-.484.102-.902.308-1.254.212-.36.506-.634.88-.825.381-.198.828-.297 1.342-.297.52 0 .968.099 1.342.297.374.19.663.466.869.825.212.352.319.766.319 1.243v1.507c0 .484-.107.906-.32 1.265a2.143 2.143 0 01-.868.825c-.374.19-.822.286-1.342.286zm0-1.199c.366 0 .649-.099.847-.297.205-.205.308-.499.308-.88v-1.496c0-.389-.103-.682-.308-.88-.198-.198-.48-.297-.847-.297-.36 0-.642.099-.847.297-.206.198-.308.491-.308.88v1.496c0 .381.102.675.308.88.205.198.487.297.847.297zm4.08 1.1v-6.05h1.375v2.343h2.134V91.95h1.375V98H95.11v-2.431h-2.134V98h-1.375zm6.522 0v-6.05H99.5v2.343h2.134V91.95h1.375V98h-1.375v-2.431H99.5V98h-1.375zm6.214 0v-6.05h1.188v2.046h.407c.653 0 1.17.183 1.551.55.382.367.572.858.572 1.474 0 .601-.194 1.082-.583 1.441-.381.36-.894.539-1.54.539h-1.595zm1.188-1.067h.407c.316 0 .558-.08.726-.242.176-.161.264-.385.264-.671 0-.3-.088-.535-.264-.704-.168-.169-.41-.253-.726-.253h-.407v1.87zM108.65 98v-6.05h1.188V98h-1.188zm2.518 0v-6.05h1.243v2.981c0 .19-.011.418-.033.682a14.424 14.424 0 01-.154 1.408l2.134-5.071h1.694V98h-1.243v-2.981c0-.198.008-.418.022-.66l.066-.715c.03-.235.059-.433.088-.594L112.862 98h-1.694zm2.486-7.007c-.572 0-1.037-.15-1.397-.451-.352-.3-.528-.693-.528-1.177h1.067c0 .242.077.436.231.583.162.147.371.22.627.22.257 0 .462-.073.616-.22a.748.748 0 00.242-.583h1.067c0 .484-.176.876-.528 1.177-.352.3-.817.451-1.397.451zm9.976 8.547v-2.706h.407c.124-.125.253-.352.385-.682.139-.337.212-.755.22-1.254l.066-2.948h4.235v4.884h.715v2.706h-1.265V98h-3.498v1.54h-1.265zm1.804-2.706h2.2v-3.685h-1.65l-.044 1.749c-.008.491-.07.906-.187 1.243-.11.33-.217.561-.319.693zm6.269 3.146l.847-2.31-2.255-5.72h1.507l1.122 3.091c.059.169.117.374.176.616.059.235.103.429.132.583.037-.154.084-.348.143-.583a6.78 6.78 0 01.176-.616l1.056-3.091h1.452l-2.915 8.03h-1.441zm5.092-1.98l2.112-3.124-1.969-2.926h1.551l.935 1.485c.059.088.11.187.154.297.051.11.092.198.121.264.029-.066.07-.154.121-.264.051-.11.103-.209.154-.297l.946-1.485h1.551l-1.969 2.926L142.603 98h-1.562l-1.045-1.661a2.91 2.91 0 01-.165-.308 4.005 4.005 0 00-.132-.264c-.029.066-.07.154-.121.264a2.91 2.91 0 01-.165.308L138.346 98h-1.551zm12.923 1.54v-2.706h.407c.125-.125.253-.352.385-.682.14-.337.213-.755.22-1.254l.066-2.948h4.235v4.884h.715v2.706h-1.265V98h-3.498v1.54h-1.265zm1.804-2.706h2.2v-3.685h-1.65l-.044 1.749c-.007.491-.069.906-.187 1.243-.11.33-.216.561-.319.693zm7.755 1.276c-.514 0-.961-.099-1.342-.297a2.194 2.194 0 01-.891-.825c-.206-.36-.308-.777-.308-1.254v-1.518c0-.477.102-.891.308-1.243a2.17 2.17 0 01.891-.836c.381-.198.828-.297 1.342-.297.506 0 .946.099 1.32.297.381.198.674.477.88.836.212.352.319.766.319 1.243v1.089h-3.729v.429c0 .425.102.748.308.968.205.213.509.319.913.319.308 0 .557-.051.748-.154a.739.739 0 00.363-.473h1.353a1.94 1.94 0 01-.836 1.254c-.448.308-.994.462-1.639.462zm1.188-3.575v-.33c0-.418-.099-.737-.297-.957-.198-.227-.495-.341-.891-.341s-.697.114-.902.341c-.206.227-.308.55-.308.968v.231l2.497-.022-.099.11zm2.276 3.542v-1.254h.275a.62.62 0 00.561-.297c.132-.205.201-.528.209-.968l.066-3.608h4.378V98h-1.375v-4.774h-1.65l-.044 2.409c-.015.528-.103.975-.264 1.342-.162.36-.393.634-.693.825-.301.183-.668.275-1.1.275h-.363zm8.898.033c-.623 0-1.115-.165-1.474-.495-.359-.33-.539-.774-.539-1.331 0-.594.198-1.052.594-1.375.396-.323.957-.484 1.683-.484h1.507v-.517c0-.293-.095-.52-.286-.682-.191-.169-.451-.253-.781-.253-.301 0-.55.066-.748.198a.774.774 0 00-.352.539h-1.342a1.913 1.913 0 01.77-1.364c.447-.337 1.019-.506 1.716-.506.741 0 1.324.187 1.749.561.433.367.649.865.649 1.496V98h-1.331v-1.056h-.22l.22-.297c0 .447-.165.803-.495 1.067-.33.264-.77.396-1.32.396zm.451-1.034c.389 0 .704-.099.946-.297a.94.94 0 00.374-.77v-.737h-1.485c-.279 0-.502.08-.671.242-.169.161-.253.374-.253.638 0 .286.095.513.286.682.198.161.466.242.803.242zm7.732 1.034c-.55 0-.983-.169-1.298-.506-.308-.337-.462-.785-.462-1.342v-.847h-.88V98h-1.177v-6.05h1.177v2.519h.88v-.792c0-.55.154-.994.462-1.331.308-.337.741-.506 1.298-.506.565 0 1.019.169 1.364.506.352.33.528.774.528 1.331v2.585c0 .557-.176 1.005-.528 1.342-.352.337-.807.506-1.364.506zm0-1.023a.662.662 0 00.517-.22c.132-.154.198-.356.198-.605v-2.585c0-.242-.066-.436-.198-.583a.648.648 0 00-.517-.231.66.66 0 00-.528.231c-.125.147-.187.341-.187.583v2.585c0 .25.062.451.187.605.132.147.308.22.528.22zm4.839.913v-4.785h-2.068V91.95h5.522v1.265h-2.068V98h-1.386zm11.296 0v-6.05h1.375v2.343h2.134V91.95h1.375V98h-1.375v-2.431h-2.134V98h-1.375zm8.293.11c-.623 0-1.115-.165-1.474-.495-.359-.33-.539-.774-.539-1.331 0-.594.198-1.052.594-1.375.396-.323.957-.484 1.683-.484h1.507v-.517c0-.293-.095-.52-.286-.682-.191-.169-.451-.253-.781-.253-.301 0-.55.066-.748.198a.774.774 0 00-.352.539h-1.342a1.913 1.913 0 01.77-1.364c.447-.337 1.019-.506 1.716-.506.741 0 1.324.187 1.749.561.433.367.649.865.649 1.496V98h-1.331v-1.056h-.22l.22-.297c0 .447-.165.803-.495 1.067-.33.264-.77.396-1.32.396zm.451-1.034c.389 0 .704-.099.946-.297a.94.94 0 00.374-.77v-.737h-1.485c-.279 0-.502.08-.671.242-.169.161-.253.374-.253.638 0 .286.095.513.286.682.198.161.466.242.803.242zm6.764 1.034c-.513 0-.964-.095-1.353-.286a2.206 2.206 0 01-.891-.825c-.213-.36-.319-.781-.319-1.265v-1.518c0-.491.106-.913.319-1.265.213-.352.51-.623.891-.814.389-.198.84-.297 1.353-.297.763 0 1.371.198 1.826.594.455.389.693.92.715 1.595h-1.375c-.022-.315-.136-.557-.341-.726-.198-.176-.473-.264-.825-.264-.367 0-.656.103-.869.308-.213.198-.319.484-.319.858v1.529c0 .374.106.664.319.869.213.205.502.308.869.308.352 0 .627-.084.825-.253.205-.176.319-.422.341-.737h1.375c-.022.675-.26 1.21-.715 1.606-.455.389-1.063.583-1.826.583zm10.58-.11v-6.05h1.375v2.343h2.134V91.95h1.375V98h-1.375v-2.431h-2.134V98h-1.375zm8.294.11c-.624 0-1.115-.165-1.474-.495-.36-.33-.539-.774-.539-1.331 0-.594.198-1.052.594-1.375.396-.323.957-.484 1.683-.484h1.507v-.517c0-.293-.096-.52-.286-.682-.191-.169-.451-.253-.781-.253-.301 0-.55.066-.748.198a.77.77 0 00-.352.539h-1.342a1.91 1.91 0 01.77-1.364c.447-.337 1.019-.506 1.716-.506.74 0 1.323.187 1.749.561.432.367.649.865.649 1.496V98h-1.331v-1.056h-.22l.22-.297c0 .447-.165.803-.495 1.067-.33.264-.77.396-1.32.396zm.451-1.034c.388 0 .704-.099.946-.297a.94.94 0 00.374-.77v-.737h-1.485c-.279 0-.503.08-.671.242-.169.161-.253.374-.253.638 0 .286.095.513.286.682.198.161.465.242.803.242zm3.717 2.464v-2.706h.407c.124-.125.253-.352.385-.682.139-.337.212-.755.22-1.254l.066-2.948h4.235v4.884h.715v2.706h-1.265V98h-3.498v1.54h-1.265zm1.804-2.706h2.2v-3.685h-1.65l-.044 1.749c-.008.491-.07.906-.187 1.243-.11.33-.217.561-.319.693zm9.03-5.896c-.242 0-.436-.07-.583-.209-.147-.147-.22-.341-.22-.583 0-.242.073-.433.22-.572.147-.147.341-.22.583-.22.249 0 .447.073.594.22.147.14.22.33.22.572 0 .242-.073.436-.22.583-.147.14-.345.209-.594.209zm-2.574 0c-.249 0-.447-.07-.594-.209-.147-.147-.22-.341-.22-.583 0-.242.073-.433.22-.572.147-.147.345-.22.594-.22.242 0 .436.073.583.22.147.14.22.33.22.572 0 .242-.073.436-.22.583-.147.14-.341.209-.583.209zm1.298 7.172c-.513 0-.961-.099-1.342-.297a2.206 2.206 0 01-.891-.825c-.205-.36-.308-.777-.308-1.254v-1.518c0-.477.103-.891.308-1.243.213-.36.51-.638.891-.836.381-.198.829-.297 1.342-.297.506 0 .946.099 1.32.297.381.198.675.477.88.836.213.352.319.766.319 1.243v1.089h-3.729v.429c0 .425.103.748.308.968.205.213.51.319.913.319.308 0 .557-.051.748-.154a.732.732 0 00.363-.473h1.353c-.103.52-.381.939-.836 1.254-.447.308-.994.462-1.639.462zm1.188-3.575v-.33c0-.418-.099-.737-.297-.957-.198-.227-.495-.341-.891-.341s-.697.114-.902.341c-.205.227-.308.55-.308.968v.231l2.497-.022-.099.11zM247.375 98l1.221-3.102-1.133-2.948h1.232l.968 2.673h.407V91.95h1.012v2.673h.407l1.023-2.673h1.177l-1.133 2.915L253.777 98h-1.221l-1.056-2.783h-.418V98h-1.012v-2.783h-.429L248.64 98h-1.265zm7.281 0v-6.05h1.375v2.343h2.134V91.95h1.375V98h-1.375v-2.431h-2.134V98h-1.375zm6.214 0v-6.05h1.188v2.046h.407c.653 0 1.17.183 1.551.55.382.367.572.858.572 1.474 0 .601-.194 1.082-.583 1.441-.381.36-.894.539-1.54.539h-1.595zm1.188-1.067h.407c.316 0 .558-.08.726-.242.176-.161.264-.385.264-.671 0-.3-.088-.535-.264-.704-.168-.169-.41-.253-.726-.253h-.407v1.87zM265.182 98v-6.05h1.188V98h-1.188zm2.277 0v-6.05h1.65l.748 2.277c.08.25.146.484.198.704.058.22.095.385.11.495l.099-.495a8.47 8.47 0 01.198-.704l.715-2.277h1.65V98h-1.276v-1.034a47.392 47.392 0 01.044-1.958c.014-.36.029-.7.044-1.023.022-.33.04-.62.055-.869l-.913 3.135h-1.254l-.946-3.124c.022.308.044.69.066 1.144a41.714 41.714 0 01.088 2.695V98h-1.276zM19.858 118v-6.05h4.884V118h-1.375v-4.774h-2.134V118h-1.375zm8.293.11c-.623 0-1.114-.165-1.474-.495-.36-.33-.539-.774-.539-1.331 0-.594.198-1.052.594-1.375.396-.323.957-.484 1.683-.484h1.507v-.517c0-.293-.095-.521-.286-.682-.19-.169-.45-.253-.78-.253-.302 0-.55.066-.749.198a.773.773 0 00-.352.539h-1.342a1.91 1.91 0 01.77-1.364c.448-.337 1.02-.506 1.716-.506.74 0 1.324.187 1.75.561.432.367.648.865.648 1.496V118h-1.33v-1.056h-.22l.22-.297c0 .447-.166.803-.496 1.067-.33.264-.77.396-1.32.396zm.451-1.034c.389 0 .704-.099.946-.297a.939.939 0 00.374-.77v-.737h-1.485c-.279 0-.502.081-.67.242-.17.161-.254.374-.254.638 0 .286.095.513.286.682.198.161.466.242.803.242zm4.29 2.904v-8.03h1.341v1.155h.308l-.308.319c0-.491.147-.876.44-1.155.294-.286.69-.429 1.188-.429.609 0 1.097.209 1.463.627.367.418.55.979.55 1.683v1.639c0 .469-.084.88-.253 1.232a1.857 1.857 0 01-.693.803c-.3.191-.656.286-1.067.286-.498 0-.894-.139-1.188-.418-.293-.286-.44-.675-.44-1.166l.308.319h-.319l.044 1.441v1.694h-1.375zm2.485-3.058c.352 0 .627-.103.825-.308.198-.205.297-.499.297-.88v-1.518c0-.381-.099-.675-.297-.88-.198-.205-.473-.308-.825-.308-.344 0-.616.106-.814.319-.198.205-.297.495-.297.869v1.518c0 .374.1.667.297.88.198.205.47.308.814.308zM41.173 118v-4.785h-2.068v-1.265h5.523v1.265h-2.069V118h-1.386zm4.774 0v-6.05h1.375v2.343h2.134v-2.343h1.375V118h-1.375v-2.431h-2.134V118h-1.375zm10.25-7.062c-.241 0-.436-.07-.582-.209-.147-.147-.22-.341-.22-.583 0-.242.073-.433.22-.572.146-.147.34-.22.583-.22.25 0 .447.073.594.22.146.139.22.33.22.572a.791.791 0 01-.22.583c-.147.139-.345.209-.594.209zm-2.573 0c-.25 0-.448-.07-.594-.209-.147-.147-.22-.341-.22-.583 0-.242.073-.433.22-.572.146-.147.344-.22.594-.22.242 0 .436.073.583.22.146.139.22.33.22.572a.791.791 0 01-.22.583c-.147.139-.341.209-.583.209zm1.298 7.172c-.514 0-.96-.099-1.342-.297a2.201 2.201 0 01-.891-.825c-.206-.359-.308-.777-.308-1.254v-1.518c0-.477.102-.891.308-1.243a2.18 2.18 0 01.89-.836c.382-.198.83-.297 1.343-.297.506 0 .946.099 1.32.297.381.198.675.477.88.836.212.352.319.766.319 1.243v1.089h-3.73v.429c0 .425.104.748.309.968.205.213.51.319.913.319.308 0 .557-.051.748-.154a.736.736 0 00.363-.473h1.353a1.936 1.936 0 01-.836 1.254c-.447.308-.994.462-1.64.462zm1.188-3.575v-.33c0-.418-.1-.737-.297-.957-.198-.227-.495-.341-.891-.341s-.697.114-.902.341c-.206.227-.308.55-.308.968v.231l2.497-.022-.1.11zm2.87 5.445v-8.03h1.342v1.155h.308l-.308.319c0-.491.147-.876.44-1.155.293-.286.69-.429 1.188-.429.609 0 1.096.209 1.463.627.367.418.55.979.55 1.683v1.639c0 .469-.084.88-.253 1.232a1.857 1.857 0 01-.693.803c-.3.191-.656.286-1.067.286-.499 0-.895-.139-1.188-.418-.293-.286-.44-.675-.44-1.166l.308.319h-.319l.044 1.441v1.694H58.98zm2.486-3.058c.352 0 .627-.103.825-.308.198-.205.297-.499.297-.88v-1.518c0-.381-.099-.675-.297-.88-.198-.205-.473-.308-.825-.308-.345 0-.616.106-.814.319-.198.205-.297.495-.297.869v1.518c0 .374.099.667.297.88.198.205.47.308.814.308zm6.49 1.177c-.514 0-.962-.095-1.343-.286a2.22 2.22 0 01-.88-.825c-.205-.359-.308-.781-.308-1.265v-1.496c0-.484.103-.902.308-1.254.213-.359.506-.634.88-.825.382-.198.829-.297 1.342-.297.52 0 .968.099 1.342.297.374.191.664.466.87.825.212.352.318.766.318 1.243v1.507c0 .484-.106.906-.319 1.265a2.143 2.143 0 01-.869.825c-.374.191-.821.286-1.342.286zm0-1.199c.366 0 .648-.099.846-.297.205-.205.308-.499.308-.88v-1.496c0-.389-.103-.682-.308-.88-.198-.198-.48-.297-.847-.297-.36 0-.641.099-.847.297-.205.198-.308.491-.308.88v1.496c0 .381.103.675.308.88.206.198.488.297.847.297zm3.837 1.1v-6.05h1.65l.748 2.277c.081.249.147.484.198.704.06.22.096.385.11.495l.1-.495a8.71 8.71 0 01.197-.704l.715-2.277h1.65V118h-1.276v-1.034a51.565 51.565 0 01.044-1.958l.044-1.023c.022-.33.04-.62.055-.869l-.913 3.135h-1.254l-.946-3.124c.022.308.044.689.066 1.144a41.985 41.985 0 01.088 2.695V118h-1.276zm12.704 1.54v-2.706h.407c.124-.125.253-.352.385-.682.14-.337.212-.755.22-1.254l.066-2.948h4.235v4.884h.715v2.706H89.26V118h-3.498v1.54h-1.265zm1.804-2.706h2.2v-3.685h-1.65l-.044 1.749c-.008.491-.07.906-.187 1.243-.11.33-.217.561-.32.693zm4.696 1.243v-1.254h.275a.62.62 0 00.56-.297c.133-.205.203-.528.21-.968l.066-3.608h4.378V118H95.11v-4.774h-1.65l-.044 2.409c-.015.528-.103.975-.264 1.342a1.84 1.84 0 01-.693.825c-.3.183-.667.275-1.1.275h-.363zM97.86 118l1.42-2.211c-.419-.132-.745-.356-.98-.671-.235-.315-.352-.693-.352-1.133 0-.638.213-1.137.638-1.496.425-.359 1.012-.539 1.76-.539h2.662V118h-1.364v-2.057h-.979L99.433 118H97.86zm2.541-3.157h1.243v-1.76h-1.243c-.337 0-.601.077-.792.231-.19.154-.286.374-.286.66 0 .271.095.484.286.638.19.154.455.231.792.231zM112.917 118v-4.785h-2.068v-1.265h5.522v1.265h-2.068V118h-1.386zm7.227.11c-.514 0-.961-.099-1.342-.297a2.194 2.194 0 01-.891-.825c-.206-.359-.308-.777-.308-1.254v-1.518c0-.477.102-.891.308-1.243.212-.359.509-.638.891-.836.381-.198.828-.297 1.342-.297.506 0 .946.099 1.32.297.381.198.674.477.88.836.212.352.319.766.319 1.243v1.089h-3.729v.429c0 .425.102.748.308.968.205.213.509.319.913.319.308 0 .557-.051.748-.154a.74.74 0 00.363-.473h1.353a1.94 1.94 0 01-.836 1.254c-.448.308-.994.462-1.639.462zm1.188-3.575v-.33c0-.418-.099-.737-.297-.957-.198-.227-.495-.341-.891-.341s-.697.114-.902.341c-.206.227-.308.55-.308.968v.231l2.497-.022-.099.11zm2.419 3.465l2.112-3.124-1.969-2.926h1.551l.935 1.485c.058.088.11.187.154.297l.121.264c.029-.066.069-.154.121-.264.051-.11.102-.209.154-.297l.946-1.485h1.551l-1.969 2.926 2.101 3.124h-1.562l-1.045-1.661a2.88 2.88 0 01-.165-.308 5.337 5.337 0 00-.132-.264l-.121.264a3.29 3.29 0 01-.165.308L125.302 118h-1.551zm7.776 1.76l.88-3.421h1.76l-1.43 3.421h-1.21zm12.285-1.76v-6.05h1.375v2.376h.902l1.474-2.376h1.54l-1.826 2.926 1.859 3.124h-1.573l-1.474-2.508h-.902V118h-1.375zm8.238 0v-4.785h-2.068v-1.265h5.522v1.265h-2.068V118h-1.386zm7.216.099c-.514 0-.961-.095-1.342-.286a2.215 2.215 0 01-.88-.825c-.206-.359-.308-.781-.308-1.265v-1.496c0-.484.102-.902.308-1.254.212-.359.506-.634.88-.825.381-.198.828-.297 1.342-.297.52 0 .968.099 1.342.297.374.191.663.466.869.825.212.352.319.766.319 1.243v1.507c0 .484-.107.906-.319 1.265a2.147 2.147 0 01-.869.825c-.374.191-.822.286-1.342.286zm0-1.199c.366 0 .649-.099.847-.297.205-.205.308-.499.308-.88v-1.496c0-.389-.103-.682-.308-.88-.198-.198-.481-.297-.847-.297-.36 0-.642.099-.847.297-.206.198-.308.491-.308.88v1.496c0 .381.102.675.308.88.205.198.487.297.847.297zm13.066 1.21c-.513 0-.964-.095-1.353-.286a2.206 2.206 0 01-.891-.825c-.213-.359-.319-.781-.319-1.265v-1.518c0-.491.106-.913.319-1.265.213-.352.51-.623.891-.814.389-.198.84-.297 1.353-.297.763 0 1.371.198 1.826.594.455.389.693.92.715 1.595h-1.375c-.022-.315-.136-.557-.341-.726-.198-.176-.473-.264-.825-.264-.367 0-.656.103-.869.308-.213.198-.319.484-.319.858v1.529c0 .374.106.664.319.869.213.205.502.308.869.308.352 0 .627-.084.825-.253.205-.176.319-.422.341-.737h1.375c-.022.675-.26 1.21-.715 1.606-.455.389-1.063.583-1.826.583zm5.807-.11v-4.785h-2.068v-1.265h5.522v1.265h-2.068V118h-1.386zm4.762 1.98v-8.03h1.342v1.155h.308l-.308.319c0-.491.147-.876.44-1.155.294-.286.69-.429 1.188-.429.609 0 1.097.209 1.463.627.367.418.55.979.55 1.683v1.639c0 .469-.084.88-.253 1.232a1.853 1.853 0 01-.693.803c-.3.191-.656.286-1.067.286-.498 0-.894-.139-1.188-.418-.293-.286-.44-.675-.44-1.166l.308.319h-.319l.044 1.441v1.694h-1.375zm2.486-3.058c.352 0 .627-.103.825-.308.198-.205.297-.499.297-.88v-1.518c0-.381-.099-.675-.297-.88-.198-.205-.473-.308-.825-.308-.344 0-.616.106-.814.319-.198.205-.297.495-.297.869v1.518c0 .374.099.667.297.88.198.205.47.308.814.308zm6.501 1.188c-.514 0-.961-.099-1.342-.297a2.194 2.194 0 01-.891-.825c-.206-.359-.308-.777-.308-1.254v-1.518c0-.477.102-.891.308-1.243.212-.359.509-.638.891-.836.381-.198.828-.297 1.342-.297.506 0 .946.099 1.32.297.381.198.674.477.88.836.212.352.319.766.319 1.243v1.089h-3.729v.429c0 .425.102.748.308.968.205.213.509.319.913.319.308 0 .557-.051.748-.154a.74.74 0 00.363-.473h1.353a1.94 1.94 0 01-.836 1.254c-.448.308-.994.462-1.639.462zm1.188-3.575v-.33c0-.418-.099-.737-.297-.957-.198-.227-.495-.341-.891-.341s-.697.114-.902.341c-.206.227-.308.55-.308.968v.231l2.497-.022-.099.11zm2.639 3.465v-6.05h1.65l.748 2.277c.08.249.146.484.198.704.058.22.095.385.11.495l.099-.495a8.47 8.47 0 01.198-.704l.715-2.277h1.65V118h-1.276v-1.034a47.452 47.452 0 01.044-1.958c.014-.359.029-.7.044-1.023.022-.33.04-.62.055-.869l-.913 3.135h-1.254l-.946-3.124c.022.308.044.689.066 1.144a41.637 41.637 0 01.088 2.695V118h-1.276zm6.764 0v-6.05h1.243v2.981c0 .191-.011.418-.033.682-.015.257-.037.51-.066.759-.029.249-.059.466-.088.649l2.134-5.071h1.694V118h-1.243v-2.981c0-.198.007-.418.022-.66l.066-.715c.029-.235.059-.433.088-.594l-2.123 4.95h-1.694zm8.271 0v-4.785h-2.068v-1.265h5.522v1.265h-2.068V118h-1.386zm7.237.11c-.513 0-.964-.095-1.353-.286a2.206 2.206 0 01-.891-.825c-.212-.359-.319-.781-.319-1.265v-1.518c0-.491.107-.913.319-1.265.213-.352.51-.623.891-.814.389-.198.84-.297 1.353-.297.763 0 1.372.198 1.826.594.455.389.693.92.715 1.595h-1.375c-.022-.315-.135-.557-.341-.726-.198-.176-.473-.264-.825-.264-.366 0-.656.103-.869.308-.212.198-.319.484-.319.858v1.529c0 .374.107.664.319.869.213.205.503.308.869.308.352 0 .627-.084.825-.253.206-.176.319-.422.341-.737h1.375c-.022.675-.26 1.21-.715 1.606-.454.389-1.063.583-1.826.583zm3.794-.11l1.419-2.211c-.418-.132-.744-.356-.979-.671-.234-.315-.352-.693-.352-1.133 0-.638.213-1.137.638-1.496.426-.359 1.012-.539 1.76-.539h2.662V118h-1.364v-2.057h-.979L223.354 118h-1.573zm2.541-3.157h1.243v-1.76h-1.243c-.337 0-.601.077-.792.231-.19.154-.286.374-.286.66 0 .271.096.484.286.638.191.154.455.231.792.231zM235.123 118v-6.05h1.375v2.376h.902l1.474-2.376h1.54l-1.826 2.926 1.859 3.124h-1.573l-1.474-2.508h-.902V118h-1.375zm12.406.077v-1.254h.275a.62.62 0 00.561-.297c.132-.205.202-.528.209-.968l.066-3.608h4.378V118h-1.375v-4.774h-1.65l-.044 2.409c-.015.528-.103.975-.264 1.342a1.837 1.837 0 01-.693.825c-.301.183-.667.275-1.1.275h-.363zm7.127-.077v-6.05h1.243v2.981c0 .191-.011.418-.033.682a14.424 14.424 0 01-.154 1.408l2.134-5.071h1.694V118h-1.243v-2.981c0-.198.008-.418.022-.66l.066-.715c.03-.235.059-.433.088-.594L256.35 118h-1.694zm5.939 1.54v-2.706h.407c.125-.125.253-.352.385-.682.14-.337.213-.755.22-1.254l.066-2.948h4.235v4.884h.715v2.706h-1.265V118h-3.498v1.54h-1.265zm1.804-2.706h2.2v-3.685h-1.65l-.044 1.749c-.007.491-.069.906-.187 1.243-.11.33-.216.561-.319.693zm7.755 1.276c-.514 0-.961-.099-1.342-.297a2.194 2.194 0 01-.891-.825c-.206-.359-.308-.777-.308-1.254v-1.518c0-.477.102-.891.308-1.243.212-.359.509-.638.891-.836.381-.198.828-.297 1.342-.297.506 0 .946.099 1.32.297.381.198.674.477.88.836.212.352.319.766.319 1.243v1.089h-3.729v.429c0 .425.102.748.308.968.205.213.509.319.913.319.308 0 .557-.051.748-.154a.74.74 0 00.363-.473h1.353a1.94 1.94 0 01-.836 1.254c-.448.308-.994.462-1.639.462zm1.188-3.575v-.33c0-.418-.099-.737-.297-.957-.198-.227-.495-.341-.891-.341s-.697.114-.902.341c-.206.227-.308.55-.308.968v.231l2.497-.022-.099.11zm2.87 5.445v-8.03h1.342v1.155h.308l-.308.319c0-.491.146-.876.44-1.155.293-.286.689-.429 1.188-.429.608 0 1.096.209 1.463.627.366.418.55.979.55 1.683v1.639c0 .469-.085.88-.253 1.232a1.866 1.866 0 01-.693.803c-.301.191-.657.286-1.067.286-.499 0-.895-.139-1.188-.418-.294-.286-.44-.675-.44-1.166l.308.319h-.319l.044 1.441v1.694h-1.375zm2.486-3.058c.352 0 .627-.103.825-.308.198-.205.297-.499.297-.88v-1.518c0-.381-.099-.675-.297-.88-.198-.205-.473-.308-.825-.308-.345 0-.616.106-.814.319-.198.205-.297.495-.297.869v1.518c0 .374.099.667.297.88.198.205.469.308.814.308zm6.511 1.188c-.513 0-.964-.095-1.353-.286a2.206 2.206 0 01-.891-.825c-.213-.359-.319-.781-.319-1.265v-1.518c0-.491.106-.913.319-1.265.213-.352.51-.623.891-.814.389-.198.84-.297 1.353-.297.763 0 1.371.198 1.826.594.455.389.693.92.715 1.595h-1.375c-.022-.315-.136-.557-.341-.726-.198-.176-.473-.264-.825-.264-.367 0-.656.103-.869.308-.213.198-.319.484-.319.858v1.529c0 .374.106.664.319.869.213.205.502.308.869.308.352 0 .627-.084.825-.253.205-.176.319-.422.341-.737h1.375c-.022.675-.26 1.21-.715 1.606-.455.389-1.063.583-1.826.583zm5.807-.11v-4.785h-2.068v-1.265h5.522v1.265h-2.068V118h-1.386zm4.762 0v-6.05h2.684c.697 0 1.243.147 1.639.44.404.286.605.682.605 1.188 0 .411-.157.741-.473.99-.308.249-.718.374-1.232.374v-.099c.558 0 1.005.132 1.342.396.338.257.506.601.506 1.034 0 .535-.205.957-.616 1.265-.403.308-.96.462-1.672.462h-2.783zm1.353-1.045h1.386c.308 0 .55-.07.726-.209a.678.678 0 00.264-.561c0-.249-.088-.444-.264-.583-.176-.139-.418-.209-.726-.209h-1.386v1.562zm0-2.486h1.342c.272 0 .488-.066.649-.198a.658.658 0 00.242-.539.658.658 0 00-.242-.539c-.154-.139-.37-.209-.649-.209h-1.342v1.485zm6.148 5.511l.847-2.31-2.255-5.72h1.507l1.122 3.091c.059.169.118.374.176.616.059.235.103.429.132.583l.143-.583a7.12 7.12 0 01.176-.616l1.056-3.091h1.452l-2.915 8.03h-1.441zM19.858 138v-6.05h1.243v2.981c0 .191-.011.418-.033.682a12.7 12.7 0 01-.066.759c-.03.249-.059.466-.088.649l2.134-5.071h1.694V138h-1.243v-2.981c0-.198.007-.418.022-.66l.066-.715c.03-.235.059-.433.088-.594L21.552 138h-1.694zm13.033 0v-6.05h2.684c.697 0 1.243.147 1.64.44.403.286.604.682.604 1.188 0 .411-.157.741-.473.99-.308.249-.718.374-1.232.374v-.099c.558 0 1.005.132 1.342.396.338.257.506.601.506 1.034 0 .535-.205.957-.616 1.265-.403.308-.96.462-1.672.462h-2.783zm1.353-1.045h1.386c.308 0 .55-.07.726-.209a.678.678 0 00.264-.561c0-.249-.088-.444-.264-.583-.176-.139-.418-.209-.726-.209h-1.386v1.562zm0-2.486h1.342c.272 0 .488-.066.65-.198a.66.66 0 00.241-.539.66.66 0 00-.242-.539c-.154-.139-.37-.209-.649-.209h-1.342v1.485zM39.117 138v-6.05h1.188v2.046h.407c.652 0 1.17.183 1.55.55.382.367.572.858.572 1.474 0 .601-.194 1.082-.583 1.441-.38.359-.894.539-1.54.539h-1.594zm1.188-1.067h.407c.315 0 .557-.081.725-.242.177-.161.265-.385.265-.671 0-.301-.088-.535-.264-.704-.17-.169-.411-.253-.727-.253h-.407v1.87zM43.427 138v-6.05h1.189V138h-1.188zm4.983.11c-.514 0-.965-.095-1.353-.286a2.202 2.202 0 01-.891-.825c-.213-.359-.32-.781-.32-1.265v-1.518c0-.491.107-.913.32-1.265a2.13 2.13 0 01.89-.814c.39-.198.84-.297 1.354-.297.762 0 1.371.198 1.826.594.454.389.693.92.715 1.595h-1.375c-.022-.315-.136-.557-.341-.726-.198-.176-.473-.264-.825-.264-.367 0-.657.103-.87.308-.212.198-.318.484-.318.858v1.529c0 .374.106.664.319.869.212.205.502.308.869.308.352 0 .627-.084.825-.253.205-.176.319-.422.34-.737h1.376c-.022.675-.26 1.21-.715 1.606-.455.389-1.064.583-1.826.583zm6.5-.011c-.514 0-.96-.095-1.342-.286a2.22 2.22 0 01-.88-.825c-.206-.359-.308-.781-.308-1.265v-1.496c0-.484.102-.902.308-1.254.212-.359.506-.634.88-.825.381-.198.828-.297 1.342-.297.52 0 .968.099 1.342.297.374.191.663.466.869.825.212.352.319.766.319 1.243v1.507c0 .484-.107.906-.32 1.265a2.144 2.144 0 01-.868.825c-.374.191-.822.286-1.342.286zm0-1.199c.367 0 .649-.099.847-.297.205-.205.308-.499.308-.88v-1.496c0-.389-.103-.682-.308-.88-.198-.198-.48-.297-.847-.297-.36 0-.642.099-.847.297-.206.198-.308.491-.308.88v1.496c0 .381.102.675.308.88.205.198.487.297.847.297zm4.113 1.1v-6.05h1.375v2.376h.902l1.474-2.376h1.54l-1.826 2.926 1.86 3.124h-1.573l-1.474-2.508h-.902V138h-1.375zm6.49 0v-6.05h1.242v2.981c0 .191-.01.418-.033.682a12.7 12.7 0 01-.066.759c-.03.249-.058.466-.088.649l2.134-5.071h1.694V138h-1.243v-2.981c0-.198.008-.418.022-.66l.066-.715c.03-.235.059-.433.088-.594L67.207 138h-1.694zm6.28 0v-6.05h1.65l.747 2.277c.081.249.147.484.198.704.06.22.096.385.11.495l.1-.495a8.71 8.71 0 01.197-.704l.715-2.277h1.65V138h-1.276v-1.034a51.565 51.565 0 01.044-1.958l.044-1.023c.022-.33.04-.62.055-.869l-.913 3.135H73.86l-.946-3.124c.022.308.044.689.066 1.144a41.985 41.985 0 01.088 2.695V138h-1.276zm13.275 1.98v-8.03h1.342v1.155h.308l-.308.319c0-.491.146-.876.44-1.155.293-.286.69-.429 1.188-.429.608 0 1.096.209 1.463.627.366.418.55.979.55 1.683v1.639c0 .469-.085.88-.253 1.232a1.857 1.857 0 01-.693.803c-.3.191-.657.286-1.067.286-.499 0-.895-.139-1.188-.418-.294-.286-.44-.675-.44-1.166l.308.319h-.32l.045 1.441v1.694h-1.375zm2.486-3.058c.352 0 .627-.103.825-.308.198-.205.297-.499.297-.88v-1.518c0-.381-.1-.675-.297-.88-.198-.205-.473-.308-.825-.308-.345 0-.616.106-.814.319-.198.205-.297.495-.297.869v1.518c0 .374.099.667.297.88.198.205.47.308.814.308zm6.5 1.188c-.513 0-.96-.099-1.342-.297a2.202 2.202 0 01-.891-.825c-.205-.359-.308-.777-.308-1.254v-1.518c0-.477.103-.891.308-1.243.213-.359.51-.638.89-.836.382-.198.83-.297 1.343-.297.506 0 .946.099 1.32.297.381.198.675.477.88.836.213.352.319.766.319 1.243v1.089h-3.73v.429c0 .425.104.748.309.968.205.213.51.319.913.319.308 0 .557-.051.748-.154a.735.735 0 00.363-.473h1.353a1.936 1.936 0 01-.836 1.254c-.447.308-.994.462-1.64.462zm1.188-3.575v-.33c0-.418-.1-.737-.297-.957-.198-.227-.495-.341-.891-.341s-.697.114-.902.341c-.205.227-.308.55-.308.968v.231l2.497-.022-.1.11zm5.026 3.542c-.66 0-1.206-.15-1.639-.451a1.856 1.856 0 01-.78-1.254h1.374a.739.739 0 00.352.429c.19.103.422.154.693.154h.583c.286 0 .51-.066.671-.198a.678.678 0 00.253-.55c0-.235-.081-.418-.242-.55-.161-.132-.389-.198-.682-.198h-1.386v-1.1h1.331c.271 0 .48-.062.627-.187a.629.629 0 00.22-.506.622.622 0 00-.099-.363.595.595 0 00-.286-.231 1.226 1.226 0 00-.462-.077h-.517c-.257 0-.477.055-.66.165a.702.702 0 00-.33.44h-1.375a1.9 1.9 0 01.77-1.254c.425-.315.957-.473 1.595-.473h.517c.462 0 .858.07 1.188.209.337.132.598.323.781.572.183.242.275.535.275.88 0 .381-.139.693-.418.935-.279.242-.649.37-1.111.385v-.044c.528.015.939.154 1.232.418.293.257.44.612.44 1.067 0 .543-.213.975-.638 1.298-.418.323-.983.484-1.694.484h-.583zm5.345 1.903l.847-2.31-2.255-5.72h1.507l1.122 3.091c.059.169.118.374.176.616.059.235.103.429.132.583l.143-.583a7.12 7.12 0 01.176-.616l1.056-3.091h1.452l-2.915 8.03h-1.441zm4.949-1.903v-1.254h.275c.25 0 .437-.099.561-.297.132-.205.202-.528.209-.968l.066-3.608h4.378V138h-1.375v-4.774h-1.65l-.044 2.409c-.014.528-.102.975-.264 1.342a1.837 1.837 0 01-.693.825c-.3.183-.667.275-1.1.275h-.363zm7.172-.077v-6.05h1.375v1.98h1.562c.733 0 1.305.183 1.716.55.418.359.627.858.627 1.496 0 .623-.213 1.118-.638 1.485-.418.359-.983.539-1.694.539h-2.948zm1.375-1.21h1.507c.322 0 .568-.07.737-.209.176-.147.264-.352.264-.616s-.088-.466-.264-.605c-.169-.147-.415-.22-.737-.22h-1.507v1.65zm6.852 1.21v-4.785h-2.068v-1.265h5.522v1.265h-2.068V138h-1.386zm6.544.11c-.623 0-1.115-.165-1.474-.495-.359-.33-.539-.774-.539-1.331 0-.594.198-1.052.594-1.375.396-.323.957-.484 1.683-.484h1.507v-.517c0-.293-.095-.521-.286-.682-.191-.169-.451-.253-.781-.253-.301 0-.55.066-.748.198a.775.775 0 00-.352.539h-1.342a1.912 1.912 0 01.77-1.364c.447-.337 1.019-.506 1.716-.506.741 0 1.324.187 1.749.561.433.367.649.865.649 1.496V138h-1.331v-1.056h-.22l.22-.297c0 .447-.165.803-.495 1.067-.33.264-.77.396-1.32.396zm.451-1.034c.389 0 .704-.099.946-.297a.94.94 0 00.374-.77v-.737h-1.485c-.279 0-.502.081-.671.242-.169.161-.253.374-.253.638 0 .286.095.513.286.682.198.161.466.242.803.242zm6.049.924v-4.785h-2.068v-1.265h5.522v1.265h-2.068V138h-1.386zm6.544.11c-.623 0-1.114-.165-1.474-.495-.359-.33-.539-.774-.539-1.331 0-.594.198-1.052.594-1.375.396-.323.957-.484 1.683-.484h1.507v-.517c0-.293-.095-.521-.286-.682-.19-.169-.451-.253-.781-.253-.3 0-.55.066-.748.198a.775.775 0 00-.352.539h-1.342a1.912 1.912 0 01.77-1.364c.448-.337 1.02-.506 1.716-.506.741 0 1.324.187 1.749.561.433.367.649.865.649 1.496V138h-1.331v-1.056h-.22l.22-.297c0 .447-.165.803-.495 1.067-.33.264-.77.396-1.32.396zm.451-1.034c.389 0 .704-.099.946-.297a.937.937 0 00.374-.77v-.737h-1.485c-.278 0-.502.081-.671.242a.844.844 0 00-.253.638c0 .286.096.513.286.682.198.161.466.242.803.242zm4.058.924v-6.05h1.65l.748 2.277c.081.249.147.484.198.704.059.22.096.385.11.495l.099-.495c.052-.22.118-.455.198-.704l.715-2.277h1.65V138h-1.276v-1.034a45.016 45.016 0 01.044-1.958l.044-1.023c.022-.33.041-.62.055-.869l-.913 3.135h-1.254l-.946-3.124c.022.308.044.689.066 1.144.03.447.052.909.066 1.386.015.469.022.906.022 1.309V138h-1.276zm9.207.11c-.316 0-.569-.092-.759-.275-.184-.183-.275-.433-.275-.748s.091-.565.275-.748c.19-.191.443-.286.759-.286.315 0 .564.095.748.286.19.183.286.433.286.748s-.096.565-.286.748c-.184.183-.433.275-.748.275z" fill="#000"/><defs><linearGradient id="paint0_linear_2027_79" x1="0" y1="69.944" x2="526.154" y2="69.944" gradientUnits="userSpaceOnUse"><stop stop-color="#F1FFF7"/><stop offset="1" stop-color="#546A65"/></linearGradient><linearGradient id="paint1_linear_2027_79" x1="27.692" y1="8.393" x2="129.094" y2="249.105" gradientUnits="userSpaceOnUse"><stop stop-color="#475E59" stop-opacity=".7"/><stop offset="1" stop-color="#fff" stop-opacity=".7"/></linearGradient></defs></svg>