<svg width="153" height="271" fill="none" xmlns="http://www.w3.org/2000/svg"><rect x=".421" y=".421" width="152.158" height="270.158" rx="19.579" fill="url(#paint0_linear_2002_5)" fill-opacity=".53" stroke="url(#paint1_linear_2002_5)" stroke-width=".842"/><mask id="a" style="mask-type:alpha" maskUnits="userSpaceOnUse" x="0" y="98" width="153" height="172"><rect x=".421" y="98.421" width="152.158" height="171.158" rx="19.579" fill="url(#paint2_linear_2002_5)" fill-opacity=".53" stroke="url(#paint3_linear_2002_5)" stroke-width=".842"/></mask><g filter="url(#filter0_f_2002_5)" mask="url(#a)"><path d="M10 297.914c-5.136 0-9.511-1.398-13.125-4.193-3.614-2.818-6.375-6.898-8.284-12.239-1.91-5.363-2.864-11.841-2.864-19.432 0-7.545.955-13.988 2.864-19.329 1.932-5.364 4.704-9.455 8.318-12.273 3.636-2.841 8-4.261 13.091-4.261 5.09 0 9.443 1.42 13.057 4.261 3.636 2.818 6.409 6.909 8.318 12.273 1.932 5.341 2.898 11.784 2.898 19.329 0 7.591-.955 14.069-2.864 19.432-1.909 5.341-4.67 9.421-8.284 12.239-3.614 2.795-7.989 4.193-13.125 4.193zm0-7.5c5.09 0 9.046-2.455 11.864-7.364 2.818-4.909 4.227-11.909 4.227-21 0-6.045-.648-11.193-1.943-15.443-1.273-4.25-3.114-7.488-5.523-9.716-2.386-2.227-5.261-3.341-8.625-3.341-5.045 0-8.989 2.489-11.83 7.466-2.84 4.955-4.26 11.966-4.26 21.034 0 6.046.635 11.182 1.908 15.409 1.273 4.228 3.102 7.444 5.489 9.648 2.409 2.205 5.307 3.307 8.693 3.307zm60.818 7.5c-4.5 0-8.511-.773-12.034-2.318-3.5-1.546-6.284-3.693-8.352-6.443-2.046-2.773-3.16-5.989-3.341-9.648h8.59c.183 2.25.955 4.193 2.319 5.829 1.364 1.614 3.148 2.864 5.352 3.75 2.205.887 4.648 1.33 7.33 1.33 3 0 5.659-.523 7.977-1.568 2.318-1.046 4.136-2.5 5.455-4.364 1.318-1.863 1.977-4.023 1.977-6.477 0-2.568-.636-4.83-1.91-6.784-1.272-1.977-3.135-3.523-5.59-4.637-2.455-1.113-5.455-1.67-9-1.67H64v-7.5h5.59c2.774 0 5.206-.5 7.296-1.5 2.114-1 3.762-2.409 4.944-4.227 1.204-1.818 1.806-3.955 1.806-6.409 0-2.364-.522-4.421-1.568-6.171-1.045-1.75-2.522-3.113-4.432-4.091-1.886-.977-4.113-1.466-6.681-1.466-2.41 0-4.682.444-6.819 1.33-2.113.864-3.84 2.125-5.181 3.784-1.341 1.636-2.069 3.614-2.182 5.932H48.59c.136-3.659 1.239-6.864 3.307-9.614 2.068-2.773 4.772-4.932 8.113-6.477 3.364-1.546 7.057-2.318 11.08-2.318 4.318 0 8.023.875 11.114 2.625 3.09 1.727 5.466 4.011 7.124 6.852a17.94 17.94 0 012.49 9.205c0 3.931-1.035 7.284-3.103 10.056-2.045 2.773-4.83 4.694-8.352 5.762v.545c4.409.727 7.852 2.602 10.33 5.625 2.477 3 3.715 6.716 3.715 11.148 0 3.795-1.034 7.204-3.102 10.227-2.046 3-4.841 5.364-8.386 7.091-3.546 1.727-7.58 2.591-12.103 2.591z" fill="#CCEC60"/></g><path d="M11.6 35.12c-.584 0-1.092-.108-1.524-.324a2.505 2.505 0 01-1.008-.924c-.232-.4-.348-.864-.348-1.392v-3.72c0-.528.116-.988.348-1.38.24-.4.576-.708 1.008-.924.432-.224.94-.336 1.524-.336.592 0 1.1.112 1.524.336.432.216.764.524.996.924.24.392.36.852.36 1.38v3.72c0 .528-.12.992-.36 1.392-.232.392-.564.7-.996.924-.424.216-.932.324-1.524.324zm0-1.56c.36 0 .628-.092.804-.276.184-.192.276-.46.276-.804v-3.72c0-.352-.088-.62-.264-.804-.176-.184-.448-.276-.816-.276-.368 0-.64.092-.816.276-.176.184-.264.452-.264.804v3.72c0 .344.088.612.264.804.184.184.456.276.816.276zM17.895 35v-4.92h-2.16V28.4h6.12v1.68h-2.16V35h-1.8zm8.132.12c-.584 0-1.096-.108-1.536-.324a2.488 2.488 0 01-1.02-.924c-.24-.4-.36-.864-.36-1.392v-1.56c0-.536.12-1 .36-1.392.24-.392.58-.696 1.02-.912.44-.224.952-.336 1.536-.336.872 0 1.568.22 2.088.66.52.44.796 1.04.828 1.8h-1.8a.904.904 0 00-.336-.66c-.192-.16-.452-.24-.78-.24-.36 0-.636.092-.828.276-.192.184-.288.452-.288.804v1.56c0 .344.096.612.288.804.192.184.468.276.828.276.328 0 .588-.076.78-.228.2-.16.312-.384.336-.672h1.8c-.032.76-.308 1.36-.828 1.8-.52.44-1.216.66-2.088.66zm5.443 2.04l.9-2.484-2.472-6.276h1.956l.996 2.88c.072.216.144.48.216.792.08.304.14.552.18.744.04-.192.096-.44.168-.744.08-.312.156-.576.228-.792l.96-2.88h1.872l-3.12 8.76H31.47zM39.48 35v-4.92h-2.16V28.4h6.12v1.68h-2.16V35h-1.8zm8.132.12c-.584 0-1.096-.108-1.536-.324a2.488 2.488 0 01-1.02-.924c-.24-.4-.36-.864-.36-1.392v-1.56c0-.536.12-1 .36-1.392.24-.392.58-.696 1.02-.912.44-.224.952-.336 1.536-.336.872 0 1.568.22 2.088.66.52.44.796 1.04.828 1.8h-1.8a.904.904 0 00-.336-.66c-.192-.16-.452-.24-.78-.24-.36 0-.636.092-.828.276-.192.184-.288.452-.288.804v1.56c0 .344.096.612.288.804.192.184.468.276.828.276.328 0 .588-.076.78-.228.2-.16.312-.384.336-.672h1.8c-.032.76-.308 1.36-.828 1.8-.52.44-1.216.66-2.088.66zm6.259-.12v-4.92h-2.16V28.4h6.12v1.68h-2.16V35h-1.8zm5.275 0v-6.6h2.988c.808 0 1.448.164 1.92.492.48.32.72.756.72 1.308 0 .44-.18.796-.54 1.068-.36.264-.836.396-1.428.396v-.12c.648 0 1.164.144 1.548.432.392.288.588.668.588 1.14 0 .584-.24 1.044-.72 1.38-.472.336-1.116.504-1.932.504h-3.144zm1.764-1.272h1.296c.296 0 .532-.068.708-.204a.671.671 0 00.276-.552.694.694 0 00-.276-.576c-.176-.144-.412-.216-.708-.216H60.91v1.548zm0-2.604h1.236c.272 0 .488-.064.648-.192a.66.66 0 00.24-.528.674.674 0 00-.24-.54c-.16-.136-.376-.204-.648-.204H60.91v1.464zM66.355 35v-6.6h1.584v3c0 .2-.012.452-.036.756a18.15 18.15 0 01-.097.9c-.031.304-.067.572-.108.804l2.089-5.46h2.183V35h-1.584v-3c0-.208.013-.444.037-.708.023-.272.052-.544.084-.816.031-.272.063-.504.096-.696L68.538 35h-2.184zm10.015.12c-.584 0-1.096-.108-1.536-.324a2.505 2.505 0 01-1.008-.924c-.232-.4-.348-.864-.348-1.392v-1.56c0-.528.116-.988.348-1.38.24-.4.576-.708 1.008-.924.44-.224.952-.336 1.536-.336.584 0 1.088.112 1.512.336.432.216.764.524.996.924.24.392.36.852.36 1.38v1.2h-4.044v.36c0 .416.1.732.3.948.2.208.5.312.9.312.28 0 .504-.048.672-.144a.698.698 0 00.348-.396h1.764c-.144.576-.472 1.04-.984 1.392-.504.352-1.112.528-1.824.528zm1.152-3.924v-.3c0-.408-.096-.72-.288-.936-.184-.216-.472-.324-.864-.324s-.688.112-.888.336c-.192.224-.288.54-.288.948v.18l2.448-.024-.12.12zm13.262 3.924c-.584 0-1.096-.108-1.536-.324a2.488 2.488 0 01-1.02-.924c-.24-.4-.36-.864-.36-1.392v-1.56c0-.536.12-1 .36-1.392.24-.392.58-.696 1.02-.912.44-.224.952-.336 1.536-.336.872 0 1.568.22 2.088.66.52.44.796 1.04.828 1.8h-1.8a.904.904 0 00-.336-.66c-.192-.16-.452-.24-.78-.24-.36 0-.636.092-.828.276-.192.184-.288.452-.288.804v1.56c0 .344.096.612.288.804.192.184.468.276.828.276.328 0 .588-.076.78-.228.2-.16.312-.384.336-.672h1.8c-.032.76-.308 1.36-.828 1.8-.52.44-1.216.66-2.088.66zm4.352-.12v-6.6h1.584v3c0 .2-.012.452-.036.756-.024.296-.056.596-.096.9-.032.304-.068.572-.108.804l2.088-5.46h2.184V35h-1.584v-3c0-.208.012-.444.036-.708.024-.272.052-.544.084-.816.032-.272.064-.504.096-.696L97.32 35h-2.184zm10.039.12c-.584 0-1.096-.108-1.536-.324a2.488 2.488 0 01-1.02-.924c-.24-.4-.36-.864-.36-1.392v-1.56c0-.536.12-1 .36-1.392.24-.392.58-.696 1.02-.912.44-.224.952-.336 1.536-.336.872 0 1.568.22 2.088.66.52.44.796 1.04.828 1.8h-1.8a.904.904 0 00-.336-.66c-.192-.16-.452-.24-.78-.24-.36 0-.636.092-.828.276-.192.184-.288.452-.288.804v1.56c0 .344.096.612.288.804.192.184.468.276.828.276.328 0 .588-.076.78-.228.2-.16.312-.384.336-.672h1.8c-.032.76-.308 1.36-.828 1.8-.52.44-1.216.66-2.088.66zm6.259-.12v-4.92h-2.16V28.4h6.12v1.68h-2.16V35h-1.8zm8.108.12c-.584 0-1.096-.108-1.536-.324a2.505 2.505 0 01-1.008-.924c-.232-.4-.348-.864-.348-1.392v-1.56c0-.528.116-.988.348-1.38.24-.4.576-.708 1.008-.924.44-.224.952-.336 1.536-.336.584 0 1.088.112 1.512.336.432.216.764.524.996.924.24.392.36.852.36 1.38v1.2h-4.044v.36c0 .416.1.732.3.948.2.208.5.312.9.312.28 0 .504-.048.672-.144a.698.698 0 00.348-.396h1.764c-.144.576-.472 1.04-.984 1.392-.504.352-1.112.528-1.824.528zm1.152-3.924v-.3c0-.408-.096-.72-.288-.936-.184-.216-.472-.324-.864-.324s-.688.112-.888.336c-.192.224-.288.54-.288.948v.18l2.448-.024-.12.12zM123.629 35v-6.6h2.028l.78 2.46c.088.28.156.536.204.768.056.224.088.392.096.504.016-.112.044-.28.084-.504.048-.232.116-.488.204-.768l.768-2.46h2.028V35h-1.644v-1.2c0-.264.004-.56.012-.888l.048-1.032c.024-.36.044-.704.06-1.032.024-.336.048-.632.072-.888l-.876 3.18h-1.524l-.924-3.18c.032.328.064.72.096 1.176.04.456.072.92.096 1.392.024.464.036.888.036 1.272V35h-1.644zm7.171 0v-6.6h1.5v2.1h.36c.712 0 1.28.208 1.704.624.424.416.636.972.636 1.668 0 .664-.216 1.2-.648 1.608-.424.4-.988.6-1.692.6h-1.86zm1.5-1.38h.36c.288 0 .508-.072.66-.216.16-.144.24-.352.24-.624 0-.288-.08-.508-.24-.66-.152-.16-.372-.24-.66-.24h-.36v1.74zm3.24 1.38v-6.6h1.5V35h-1.5zM8.252 51.084v-1.62h.36c.208 0 .38-.088.516-.264.136-.176.208-.408.216-.696l.072-4.104h4.992V51h-1.8v-4.92H11.18l-.048 2.544c-.008.488-.116.92-.324 1.296-.2.368-.48.656-.84.864-.352.2-.764.3-1.236.3h-.48zm10.543.036c-.584 0-1.092-.108-1.524-.324a2.505 2.505 0 01-1.008-.924c-.232-.4-.348-.864-.348-1.392v-1.56c0-.528.116-.988.348-1.38.24-.4.576-.708 1.008-.924.432-.224.94-.336 1.524-.336.592 0 1.1.112 1.524.336.432.216.764.524.996.924.24.392.36.852.36 1.38v1.56c0 .528-.12.992-.36 1.392-.232.392-.564.7-.996.924-.424.216-.932.324-1.524.324zm0-1.56c.352 0 .62-.092.804-.276.184-.192.276-.46.276-.804v-1.56c0-.352-.092-.62-.276-.804-.184-.184-.452-.276-.804-.276-.344 0-.612.092-.804.276-.184.184-.276.452-.276.804v1.56c0 .344.092.612.276.804.192.184.46.276.804.276zM22.991 51l1.44-2.316a2.07 2.07 0 01-.996-.756 2.065 2.065 0 01-.36-1.212c0-.728.244-1.296.732-1.704.488-.408 1.164-.612 2.028-.612h2.964V51H27.01v-2.088h-.792L25.019 51H22.99zm2.952-3.456h1.08v-1.716h-1.08c-.336 0-.6.076-.792.228-.192.152-.288.364-.288.636s.092.484.276.636c.192.144.46.216.804.216zm3.895 3.54v-1.62h.36c.208 0 .38-.088.516-.264.136-.176.208-.408.216-.696l.072-4.104h4.992V51h-1.8v-4.92h-1.428l-.048 2.544c-.008.488-.116.92-.324 1.296-.2.368-.48.656-.84.864-.352.2-.764.3-1.236.3h-.48zM37.62 51v-6.6h1.8v1.98h1.548c.832 0 1.48.208 1.944.624.472.408.708.976.708 1.704 0 .704-.24 1.264-.72 1.68-.472.408-1.112.612-1.92.612h-3.36zm1.8-1.56h1.44c.304 0 .536-.064.696-.192a.673.673 0 00.252-.552c0-.24-.084-.424-.252-.552-.16-.136-.392-.204-.696-.204h-1.44v1.5zM44.77 51v-6.6h1.8v2.412h2.016V44.4h1.8V51h-1.8v-2.508H46.57V51h-1.8zm10.003.12c-.584 0-1.092-.108-1.524-.324a2.505 2.505 0 01-1.008-.924c-.232-.4-.348-.864-.348-1.392v-1.56c0-.528.116-.988.348-1.38.24-.4.576-.708 1.008-.924.432-.224.94-.336 1.524-.336.592 0 1.1.112 1.524.336.432.216.764.524.996.924.24.392.36.852.36 1.38v1.56c0 .528-.12.992-.36 1.392-.232.392-.564.7-.996.924-.424.216-.932.324-1.524.324zm0-1.56c.352 0 .62-.092.804-.276.184-.192.276-.46.276-.804v-1.56c0-.352-.092-.62-.276-.804-.184-.184-.452-.276-.804-.276-.344 0-.612.092-.804.276-.184.184-.276.452-.276.804v1.56c0 .344.092.612.276.804.192.184.46.276.804.276zm7.231 1.56c-.584 0-1.096-.108-1.536-.324a2.488 2.488 0 01-1.02-.924c-.24-.4-.36-.864-.36-1.392v-1.56c0-.536.12-1 .36-1.392.24-.392.58-.696 1.02-.912.44-.224.952-.336 1.536-.336.872 0 1.568.22 2.088.66.52.44.796 1.04.828 1.8h-1.8a.904.904 0 00-.336-.66c-.192-.16-.452-.24-.78-.24-.36 0-.636.092-.828.276-.192.184-.288.452-.288.804v1.56c0 .344.096.612.288.804.192.184.468.276.828.276.328 0 .588-.076.78-.228.2-.16.312-.384.336-.672h1.8c-.032.76-.308 1.36-.828 1.8-.52.44-1.216.66-2.088.66zm6.26-.12v-4.92h-2.16V44.4h6.12v1.68h-2.16V51h-1.8zm5.287 0v-6.6h1.584v3c0 .2-.012.452-.036.756-.024.296-.056.596-.096.9-.032.304-.068.572-.108.804l2.088-5.46h2.184V51h-1.584v-3c0-.208.012-.444.036-.708.024-.272.052-.544.084-.816.032-.272.064-.504.096-.696L75.734 51H73.55zm10.003-4.56c-.36 0-.652-.1-.876-.3-.216-.2-.324-.46-.324-.78 0-.328.108-.588.324-.78.224-.2.516-.3.876-.3s.648.1.864.3c.224.192.336.452.336.78 0 .32-.112.58-.336.78-.216.2-.504.3-.864.3zm0 4.68c-.36 0-.652-.1-.876-.3-.216-.2-.324-.46-.324-.78 0-.328.108-.588.324-.78.224-.2.516-.3.876-.3s.648.1.864.3c.224.192.336.452.336.78 0 .32-.112.58-.336.78-.216.2-.504.3-.864.3zm-68.35 12.94c-.417 0-.76-.136-1.033-.408-.272-.272-.408-.616-.408-1.032 0-.424.136-.768.408-1.032.272-.272.616-.408 1.032-.408.424 0 .768.136 1.032.408.272.264.408.608.408 1.032 0 .416-.136.76-.408 1.032-.264.272-.608.408-1.032.408zM23.515 67v-8.76h1.08v3.744h2.808V58.24h1.08V67h-1.08v-4.032h-2.808V67h-1.08zm7.207 0v-6.6h1.032V64c0 .232-.008.476-.024.732-.008.256-.024.5-.048.732a7.615 7.615 0 01-.06.576l2.664-5.64h1.38V67h-1.032v-3.6c0-.232.004-.476.012-.732.016-.256.036-.5.06-.732l.06-.588L32.103 67h-1.38zm9.356.084c-.696 0-1.268-.148-1.716-.444a1.764 1.764 0 01-.792-1.2h1.14c.056.2.204.364.444.492.248.128.556.192.924.192h.564c.392 0 .696-.092.912-.276a.887.887 0 00.336-.72c0-.32-.108-.572-.324-.756-.208-.184-.516-.276-.924-.276H39.19v-.936h1.416c.368 0 .648-.088.84-.264a.9.9 0 00.288-.696c0-.2-.044-.368-.132-.504a.763.763 0 00-.372-.312 1.551 1.551 0 00-.612-.108h-.6c-.32 0-.596.072-.828.216-.232.144-.372.32-.42.528h-1.14c.08-.496.34-.904.78-1.224.44-.32.976-.48 1.608-.48h.6c.472 0 .876.076 1.212.228.336.144.592.352.768.624.184.272.276.596.276.972 0 .392-.128.716-.384.972-.256.248-.616.388-1.08.42v.048c.568.04.98.192 1.236.456s.384.644.384 1.14c0 .584-.216 1.048-.648 1.392-.432.344-1.012.516-1.74.516h-.564zm5.07-.084v-6.6h1.08v2.724h1.129l1.92-2.724h1.236l-2.22 3.144L50.55 67h-1.26l-1.92-2.94h-1.14V67h-1.08zm7.16 0v-6.6h1.032V64c0 .232-.008.476-.024.732-.008.256-.024.5-.048.732a7.615 7.615 0 01-.06.576l2.664-5.64h1.38V67H56.22v-3.6c0-.232.004-.476.012-.732.016-.256.036-.5.06-.732l.06-.588L53.69 67h-1.38zm7.196 0v-6.6h1.032V64c0 .232-.008.476-.024.732-.008.256-.024.5-.048.732a7.615 7.615 0 01-.06.576l2.664-5.64h1.38V67h-1.032v-3.6c0-.232.004-.476.012-.732.016-.256.036-.5.06-.732l.06-.588L60.885 67h-1.38zm2.52-7.68c-.576 0-1.04-.16-1.392-.48-.352-.32-.528-.74-.528-1.26h.852c0 .312.096.564.288.756.192.192.448.288.768.288.328 0 .588-.096.78-.288.2-.192.3-.444.3-.756h.852c0 .52-.176.94-.528 1.26-.352.32-.816.48-1.392.48zm12.878 9.84l.972-2.568-2.448-6.192h1.2l1.536 4.08c.056.136.108.3.156.492l.12.468.12-.468c.048-.192.096-.356.144-.492l1.44-4.08h1.164l-3.252 8.76h-1.152zm6.163 0V60.4h1.08v1.26h.216l-.215.252c0-.504.163-.9.491-1.188.337-.296.776-.444 1.32-.444.665 0 1.192.22 1.585.66.4.432.6 1.028.6 1.788v1.932c0 .504-.093.94-.276 1.308a1.962 1.962 0 01-.757.852c-.32.2-.704.3-1.151.3-.537 0-.972-.148-1.309-.444-.336-.296-.504-.692-.504-1.188l.216.252h-.24l.025 1.5v1.92h-1.08zm2.532-2.976c.457 0 .813-.136 1.069-.408.263-.272.395-.664.395-1.176v-1.8c0-.512-.132-.904-.395-1.176-.257-.272-.612-.408-1.069-.408-.44 0-.791.14-1.055.42-.265.28-.397.668-.397 1.164v1.8c0 .496.132.884.397 1.164.263.28.615.42 1.055.42zm7.16.912c-.528 0-.984-.1-1.368-.3a2.178 2.178 0 01-.9-.864c-.208-.384-.312-.836-.312-1.356v-1.752c0-.528.104-.98.312-1.356.216-.376.516-.664.9-.864.384-.2.84-.3 1.368-.3.528 0 .984.1 1.368.3.384.2.68.488.888.864.216.376.324.824.324 1.344v1.764c0 .52-.108.972-.324 1.356a2.103 2.103 0 01-.888.864c-.384.2-.84.3-1.368.3zm0-.96c.472 0 .84-.132 1.104-.396.264-.264.396-.652.396-1.164v-1.752c0-.512-.132-.9-.396-1.164-.264-.264-.632-.396-1.104-.396-.464 0-.832.132-1.104.396-.264.264-.396.652-.396 1.164v1.752c0 .512.132.9.396 1.164.272.264.64.396 1.104.396zM95.48 67v-6.6h2.856c.688 0 1.22.156 1.596.468.376.304.564.732.564 1.284 0 .456-.156.824-.468 1.104-.312.272-.724.408-1.236.408v-.096c.56 0 1.008.14 1.344.42.344.28.516.656.516 1.128 0 .592-.2 1.056-.6 1.392-.4.328-.96.492-1.68.492H95.48zm1.056-.948h1.836c.384 0 .68-.084.888-.252.216-.168.324-.404.324-.708 0-.312-.108-.552-.324-.72-.208-.168-.504-.252-.888-.252h-1.836v1.932zm0-2.868h1.8c.336 0 .6-.08.792-.24.2-.16.3-.384.3-.672 0-.288-.096-.512-.288-.672-.192-.168-.46-.252-.804-.252h-1.8v1.836zm8.611 3.936c-.52 0-.976-.104-1.368-.312a2.258 2.258 0 01-.9-.876c-.208-.384-.312-.828-.312-1.332v-1.8c0-.512.104-.956.312-1.332.216-.376.516-.668.9-.876.392-.208.848-.312 1.368-.312.52 0 .972.104 1.356.312.392.208.692.5.9.876.216.376.324.82.324 1.332v1.164h-4.104v.636c0 .52.132.92.396 1.2.264.272.64.408 1.128.408.416 0 .752-.072 1.008-.216a.953.953 0 00.468-.672h1.08c-.072.552-.344.992-.816 1.32-.464.32-1.044.48-1.74.48zm1.524-3.876V62.8c0-.52-.132-.92-.396-1.2-.256-.28-.632-.42-1.128-.42-.488 0-.864.14-1.128.42-.264.28-.396.68-.396 1.2v.348h3.132l-.084.096zm3.2 3.756v-6.6h1.08v2.748h2.784V60.4h1.08V67h-1.08v-2.868h-2.784V67h-1.08zm7.243 0v-6.6h1.08v2.424h1.944c.744 0 1.328.188 1.752.564.432.368.648.876.648 1.524 0 .64-.216 1.148-.648 1.524-.432.376-1.016.564-1.752.564h-3.024zm1.08-.984h1.944c.416 0 .732-.092.948-.276.224-.192.336-.468.336-.828 0-.36-.112-.632-.336-.816-.216-.192-.532-.288-.948-.288h-1.944v2.208zM24.536 85.16l.972-2.568L23.06 76.4h1.2l1.536 4.08c.056.136.108.3.156.492l.12.468.12-.468c.048-.192.096-.356.144-.492l1.44-4.08h1.164l-3.252 8.76h-1.152zm5.42-.48v-2.604h.54c.135-.136.275-.404.42-.804.151-.4.231-.908.24-1.524l.071-3.348h4.308v5.676h.84v2.604h-.96V83h-4.5v1.68h-.96zm1.68-2.604h2.82V77.36h-2.209l-.048 2.412c-.008.632-.076 1.144-.204 1.536-.128.392-.248.648-.36.768zm8.755 1.044c-.52 0-.976-.104-1.368-.312a2.258 2.258 0 01-.9-.876c-.208-.384-.312-.828-.312-1.332v-1.8c0-.512.104-.956.312-1.332.216-.376.516-.668.9-.876.392-.208.848-.312 1.368-.312.52 0 .972.104 1.356.312.392.208.692.5.9.876.216.376.324.82.324 1.332v1.164h-4.104v.636c0 .52.132.92.396 1.2.264.272.64.408 1.128.408.416 0 .752-.072 1.008-.216a.953.953 0 00.468-.672h1.08c-.072.552-.344.992-.816 1.32-.464.32-1.044.48-1.74.48zm1.524-3.876V78.8c0-.52-.132-.92-.396-1.2-.256-.28-.632-.42-1.128-.42-.488 0-.864.14-1.128.42-.264.28-.396.68-.396 1.2v.348h3.132l-.084.096zm3.175 5.916V76.4h1.08v1.26h.216l-.216.252c0-.504.164-.9.492-1.188.336-.296.776-.444 1.32-.444.664 0 1.192.22 1.584.66.4.432.6 1.028.6 1.788v1.932c0 .504-.092.94-.276 1.308a1.962 1.962 0 01-.756.852c-.32.2-.704.3-1.152.3-.536 0-.972-.148-1.308-.444-.336-.296-.504-.692-.504-1.188l.216.252h-.24l.024 1.5v1.92h-1.08zm2.532-2.976c.456 0 .812-.136 1.068-.408.264-.272.396-.664.396-1.176v-1.8c0-.512-.132-.904-.396-1.176-.256-.272-.612-.408-1.068-.408-.44 0-.792.14-1.056.42-.264.28-.396.668-.396 1.164v1.8c0 .496.132.884.396 1.164.264.28.616.42 1.056.42zm3.775.816l1.44-3.384-1.344-3.216h1.044l1.152 2.88h.636V76.4h.912v2.88h.612l1.188-2.88h1.032l-1.344 3.18 1.44 3.42h-1.08l-1.2-3h-.648v3h-.912v-3h-.648l-1.212 3h-1.068zm10.004.12c-.696 0-1.244-.176-1.644-.528-.4-.36-.6-.844-.6-1.452 0-.616.2-1.1.6-1.452.4-.352.94-.528 1.62-.528h2.04v-.66c0-.408-.124-.72-.372-.936-.24-.224-.584-.336-1.032-.336-.392 0-.72.084-.984.252-.264.16-.416.38-.456.66h-1.08c.072-.568.34-1.02.804-1.356.464-.336 1.044-.504 1.74-.504.76 0 1.36.196 1.8.588.44.392.66.924.66 1.596V83H63.44v-1.26h-.18l.18-.18c0 .48-.188.86-.564 1.14-.368.28-.86.42-1.476.42zm.264-.852c.512 0 .932-.128 1.26-.384.328-.256.492-.584.492-.984v-.936H61.4c-.36 0-.644.1-.852.3-.208.2-.312.472-.312.816 0 .368.124.66.372.876.256.208.608.312 1.056.312zM66.7 83v-6.6h1.08v2.748h2.784V76.4h1.08V83h-1.08v-2.868H67.78V83H66.7zm7.195 0v-6.6h1.032V80c0 .232-.008.476-.024.732-.008.256-.024.5-.048.732a7.615 7.615 0 01-.06.576l2.664-5.64h1.38V83h-1.032v-3.6c0-.232.004-.476.012-.732.016-.256.036-.5.06-.732l.06-.588L75.275 83h-1.38zm6.788 0l1.691-2.544c-.503-.12-.895-.352-1.175-.696-.272-.344-.409-.772-.409-1.284 0-.648.212-1.156.636-1.524.433-.368 1.02-.552 1.764-.552h2.844V83h-1.08v-2.46h-1.451L81.942 83h-1.26zm2.507-3.42h1.764v-2.22h-1.763c-.4 0-.716.1-.948.3-.233.192-.349.464-.349.816 0 .344.116.616.349.816.232.192.547.288.948.288zM23.565 99v-6.6h1.08v2.724h1.128l1.92-2.724h1.236l-2.22 3.144L28.964 99h-1.26l-1.92-2.94h-1.14V99h-1.08zm6.331.084v-1.008h.216c.368 0 .624-.144.768-.432.152-.288.232-.804.24-1.548l.072-3.696h4.476V99h-1.08v-5.616H32.26l-.06 2.76c-.016.696-.096 1.26-.24 1.692-.136.432-.352.748-.648.948-.288.2-.668.3-1.14.3h-.276zM37.92 99v-6.6h1.032V96c0 .232-.008.476-.024.732-.008.256-.024.5-.048.732a7.615 7.615 0 01-.06.576l2.664-5.64h1.38V99H41.83v-3.6c0-.232.004-.476.012-.732.016-.256.036-.5.06-.732l.06-.588L39.299 99h-1.38zm9.667.12c-.52 0-.976-.104-1.368-.312a2.258 2.258 0 01-.9-.876c-.208-.384-.312-.828-.312-1.332v-1.8c0-.512.104-.956.312-1.332.216-.376.516-.668.9-.876.392-.208.848-.312 1.368-.312.52 0 .972.104 1.356.312.392.208.692.5.9.876.216.376.324.82.324 1.332v1.164h-4.104v.636c0 .52.132.92.396 1.2.264.272.64.408 1.128.408.416 0 .752-.072 1.008-.216a.953.953 0 00.468-.672h1.08c-.072.552-.344.992-.816 1.32-.464.32-1.044.48-1.74.48zm1.524-3.876V94.8c0-.52-.132-.92-.396-1.2-.256-.28-.632-.42-1.128-.42-.488 0-.864.14-1.128.42-.264.28-.396.68-.396 1.2v.348h3.132l-.084.096zM52.31 99v-6.6h1.08v2.748h2.783V92.4h1.08V99h-1.08v-2.868H53.39V99h-1.08zm9.127 0v-5.652h-2.4V92.4h5.88v.948h-2.4V99h-1.08zm7.735.096c-.528 0-.984-.1-1.368-.3a2.178 2.178 0 01-.9-.864c-.208-.384-.312-.836-.312-1.356v-1.752c0-.528.104-.98.312-1.356.216-.376.516-.664.9-.864.384-.2.84-.3 1.368-.3.528 0 .984.1 1.368.3.384.2.68.488.888.864.216.376.324.824.324 1.344v1.764c0 .52-.108.972-.324 1.356a2.103 2.103 0 01-.888.864c-.384.2-.84.3-1.368.3zm0-.96c.472 0 .84-.132 1.104-.396.264-.264.396-.652.396-1.164v-1.752c0-.512-.132-.9-.396-1.164-.264-.264-.632-.396-1.104-.396-.464 0-.832.132-1.104.396-.264.264-.396.652-.396 1.164v1.752c0 .512.132.9.396 1.164.272.264.64.396 1.104.396zm4.723.864v-6.6h2.856c.688 0 1.22.156 1.596.468.376.304.564.732.564 1.284 0 .456-.156.824-.468 1.104-.312.272-.724.408-1.236.408v-.096c.56 0 1.008.14 1.344.42.344.28.516.656.516 1.128 0 .592-.2 1.056-.6 1.392-.4.328-.96.492-1.68.492h-2.892zm1.056-.948h1.836c.384 0 .68-.084.888-.252.216-.168.324-.404.324-.708 0-.312-.108-.552-.324-.72-.208-.168-.504-.252-.888-.252h-1.836v1.932zm0-2.868h1.8c.336 0 .6-.08.792-.24.2-.16.3-.384.3-.672 0-.288-.096-.512-.288-.672-.192-.168-.46-.252-.804-.252h-1.8v1.836zm8.612 3.936c-.305 0-.549-.088-.733-.264-.175-.176-.263-.412-.263-.708 0-.312.088-.56.264-.744.183-.184.427-.276.731-.276.305 0 .544.092.72.276.184.184.276.432.276.744 0 .296-.092.532-.276.708-.175.176-.415.264-.72.264zm-68.36 12.94c-.417 0-.76-.136-1.033-.408-.272-.272-.408-.616-.408-1.032 0-.424.136-.768.408-1.032.272-.272.616-.408 1.032-.408.424 0 .768.136 1.032.408.272.264.408.608.408 1.032 0 .416-.136.76-.408 1.032-.264.272-.608.408-1.032.408zM26 115.12c-.528 0-.984-.1-1.368-.3a2.12 2.12 0 01-.876-.864c-.2-.384-.3-.836-.3-1.356v-3.96c0-.528.1-.98.3-1.356.208-.376.5-.664.876-.864.384-.2.84-.3 1.368-.3.528 0 .98.1 1.356.3.384.2.676.488.876.864.208.376.312.824.312 1.344v3.972c0 .52-.104.972-.312 1.356a2.03 2.03 0 01-.876.864c-.376.2-.828.3-1.356.3zm0-.972c.472 0 .832-.132 1.08-.396.256-.272.384-.656.384-1.152v-3.96c0-.496-.128-.876-.384-1.14-.248-.272-.608-.408-1.08-.408-.464 0-.824.136-1.08.408-.256.264-.384.644-.384 1.14v3.96c0 .496.128.88.384 1.152.256.264.616.396 1.08.396zm6.655.852v-5.652h-2.4v-.948h5.88v.948h-2.4V115h-1.08zm7.76.12c-.528 0-.992-.1-1.392-.3a2.161 2.161 0 01-.912-.864c-.216-.384-.324-.836-.324-1.356v-1.8c0-.528.108-.98.324-1.356.216-.376.52-.664.912-.864.4-.2.864-.3 1.392-.3.76 0 1.372.204 1.836.612.464.408.708.964.732 1.668h-1.08c-.024-.424-.168-.748-.432-.972-.256-.232-.608-.348-1.056-.348-.472 0-.848.136-1.128.408-.28.264-.42.644-.42 1.14v1.812c0 .496.14.88.42 1.152.28.272.656.408 1.128.408.448 0 .8-.116 1.056-.348.264-.232.408-.556.432-.972h1.08c-.024.704-.268 1.26-.732 1.668-.464.408-1.076.612-1.836.612zm5.707 2.04l.972-2.568-2.448-6.192h1.2l1.536 4.08c.056.136.108.3.156.492l.12.468.12-.468c.048-.192.096-.356.144-.492l1.44-4.08h1.164l-3.252 8.76h-1.152zm8.12-2.16v-5.652h-2.4v-.948h5.88v.948h-2.4V115h-1.08zm7.759.12c-.528 0-.992-.1-1.392-.3a2.161 2.161 0 01-.912-.864c-.216-.384-.324-.836-.324-1.356v-1.8c0-.528.108-.98.324-1.356.216-.376.52-.664.912-.864.4-.2.864-.3 1.392-.3.76 0 1.372.204 1.836.612.464.408.708.964.732 1.668h-1.08c-.024-.424-.168-.748-.432-.972-.256-.232-.608-.348-1.056-.348-.472 0-.848.136-1.128.408-.28.264-.42.644-.42 1.14v1.812c0 .496.14.88.42 1.152.28.272.656.408 1.128.408.448 0 .8-.116 1.056-.348.264-.232.408-.556.432-.972h1.08c-.024.704-.268 1.26-.732 1.668-.464.408-1.076.612-1.836.612zm6.63-.12v-5.652h-2.4v-.948h5.88v.948h-2.4V115h-1.08zm5.264 0v-6.6h2.856c.688 0 1.22.156 1.596.468.376.304.564.732.564 1.284 0 .456-.156.824-.468 1.104-.312.272-.724.408-1.236.408v-.096c.56 0 1.008.14 1.344.42.344.28.516.656.516 1.128 0 .592-.2 1.056-.6 1.392-.4.328-.96.492-1.68.492h-2.892zm1.056-.948h1.836c.384 0 .68-.084.888-.252.216-.168.324-.404.324-.708 0-.312-.108-.552-.324-.72-.208-.168-.504-.252-.888-.252h-1.836v1.932zm0-2.868h1.8c.336 0 .6-.08.792-.24.2-.16.3-.384.3-.672 0-.288-.096-.512-.288-.672-.192-.168-.46-.252-.804-.252h-1.8v1.836zm6.14 3.816v-6.6h1.032v3.6c0 .232-.008.476-.025.732-.007.256-.023.5-.047.732a7.615 7.615 0 01-.06.576l2.663-5.64h1.38v6.6h-1.032v-3.6c0-.232.005-.476.013-.732a38.794 38.794 0 01.12-1.32L82.47 115h-1.38zm9.667.12c-.52 0-.976-.104-1.368-.312a2.258 2.258 0 01-.9-.876c-.208-.384-.312-.828-.312-1.332v-1.8c0-.512.104-.956.312-1.332.216-.376.516-.668.9-.876.392-.208.848-.312 1.368-.312.52 0 .972.104 1.356.312.392.208.692.5.9.876.216.376.324.82.324 1.332v1.164h-4.104v.636c0 .52.132.92.396 1.2.264.272.64.408 1.128.408.416 0 .752-.072 1.008-.216a.953.953 0 00.468-.672h1.08c-.072.552-.344.992-.816 1.32-.464.32-1.044.48-1.74.48zm1.524-3.876v-.444c0-.52-.132-.92-.396-1.2-.256-.28-.632-.42-1.128-.42-.488 0-.864.14-1.128.42-.264.28-.396.68-.396 1.2v.348h3.132l-.084.096zM26.024 131.12c-.528 0-.992-.1-1.392-.3a2.161 2.161 0 01-.912-.864c-.216-.384-.324-.836-.324-1.356v-1.8c0-.528.108-.98.324-1.356.216-.376.52-.664.912-.864.4-.2.864-.3 1.392-.3.76 0 1.372.204 1.836.612.464.408.708.964.732 1.668h-1.08c-.024-.424-.168-.748-.432-.972-.256-.232-.608-.348-1.056-.348-.472 0-.848.136-1.128.408-.28.264-.42.644-.42 1.14v1.812c0 .496.14.88.42 1.152.28.272.656.408 1.128.408.448 0 .8-.116 1.056-.348.264-.232.408-.556.432-.972h1.08c-.024.704-.268 1.26-.732 1.668-.464.408-1.076.612-1.836.612zm6.631-.12v-5.652h-2.4v-.948h5.88v.948h-2.4V131h-1.08zm5.264 0v-6.6h1.032v3.6c0 .232-.008.476-.024.732-.008.256-.024.5-.048.732a7.615 7.615 0 01-.06.576l2.664-5.64h1.38v6.6H41.83v-3.6c0-.232.004-.476.012-.732.016-.256.036-.5.06-.732l.06-.588L39.299 131h-1.38zm6.979 0v-6.6h1.464l.864 2.532c.088.256.168.512.24.768.072.248.124.44.156.576.032-.136.08-.328.144-.576.072-.256.148-.516.228-.78l.816-2.52h1.464v6.6H49.23v-1.02c0-.36.004-.752.012-1.176l.024-1.284.048-1.224c.016-.392.028-.736.036-1.032l-1.176 3.756h-1.14l-1.188-3.732c.016.36.028.808.036 1.344.016.536.028 1.096.036 1.68.016.584.024 1.14.024 1.668V131h-1.044zm8.42 2.16l.971-2.568-2.448-6.192h1.2l1.536 4.08c.056.136.108.3.156.492l.12.468.12-.468c.048-.192.096-.356.144-.492l1.44-4.08h1.164l-3.252 8.76h-1.152zm5.359-2.076v-1.008h.216c.368 0 .624-.144.768-.432.152-.288.232-.804.24-1.548l.072-3.696h4.476v6.6h-1.08v-5.616H61.04l-.06 2.76c-.016.696-.096 1.26-.24 1.692-.136.432-.352.748-.648.948-.288.2-.668.3-1.14.3h-.276zm10.495.012c-.528 0-.984-.1-1.368-.3a2.178 2.178 0 01-.9-.864c-.208-.384-.312-.836-.312-1.356v-1.752c0-.528.104-.98.312-1.356.216-.376.516-.664.9-.864.384-.2.84-.3 1.368-.3.528 0 .984.1 1.368.3.384.2.68.488.888.864.216.376.324.824.324 1.344v1.764c0 .52-.108.972-.324 1.356a2.103 2.103 0 01-.888.864c-.384.2-.84.3-1.368.3zm0-.96c.472 0 .84-.132 1.104-.396.264-.264.396-.652.396-1.164v-1.752c0-.512-.132-.9-.396-1.164-.264-.264-.632-.396-1.104-.396-.464 0-.832.132-1.104.396-.264.264-.396.652-.396 1.164v1.752c0 .512.132.9.396 1.164.272.264.64.396 1.104.396zm4.723.864v-6.6h2.856c.688 0 1.22.156 1.596.468.376.304.564.732.564 1.284 0 .456-.156.824-.468 1.104-.312.272-.724.408-1.236.408v-.096c.56 0 1.008.14 1.344.42.344.28.516.656.516 1.128 0 .592-.2 1.056-.6 1.392-.4.328-.96.492-1.68.492h-2.892zm1.056-.948h1.836c.384 0 .68-.084.888-.252.216-.168.324-.404.324-.708 0-.312-.108-.552-.324-.72-.208-.168-.504-.252-.888-.252h-1.836v1.932zm0-2.868h1.8c.336 0 .6-.08.792-.24.2-.16.3-.384.3-.672 0-.288-.096-.512-.288-.672-.192-.168-.46-.252-.804-.252h-1.8v1.836zm12.567 5.496v-2.604h.54c.136-.136.276-.404.42-.804.152-.4.232-.908.24-1.524l.072-3.348h4.308v5.676h.84v2.604h-.96V131h-4.5v1.68h-.96zm1.68-2.604h2.82v-4.716H89.81l-.048 2.412c-.008.632-.076 1.144-.204 1.536-.128.392-.248.648-.36.768zm5.455 1.008v-1.008h.216c.368 0 .624-.144.768-.432.152-.288.232-.804.24-1.548l.072-3.696h4.476v6.6h-1.08v-5.616h-2.328l-.06 2.76c-.016.696-.096 1.26-.24 1.692-.136.432-.352.748-.648.948-.288.2-.668.3-1.14.3h-.276zm7.615-.084l1.692-2.544c-.504-.12-.896-.352-1.176-.696-.272-.344-.408-.772-.408-1.284 0-.648.212-1.156.636-1.524.432-.368 1.02-.552 1.764-.552h2.844v6.6h-1.08v-2.46h-1.452l-1.56 2.46h-1.26zm2.508-3.42h1.764v-2.22h-1.764c-.4 0-.716.1-.948.3-.232.192-.348.464-.348.816 0 .344.116.616.348.816.232.192.548.288.948.288zM23.528 147v-6.6h4.944v6.6h-1.08v-5.616h-2.784V147h-1.08zm9.667.096c-.528 0-.984-.1-1.368-.3a2.178 2.178 0 01-.9-.864c-.208-.384-.312-.836-.312-1.356v-1.752c0-.528.104-.98.312-1.356.216-.376.516-.664.9-.864.384-.2.84-.3 1.368-.3.528 0 .984.1 1.368.3.384.2.68.488.888.864.216.376.324.824.324 1.344v1.764c0 .52-.108.972-.324 1.356a2.103 2.103 0 01-.888.864c-.384.2-.84.3-1.368.3zm0-.96c.472 0 .84-.132 1.104-.396.264-.264.396-.652.396-1.164v-1.752c0-.512-.132-.9-.396-1.164-.264-.264-.632-.396-1.104-.396-.464 0-.832.132-1.104.396-.264.264-.396.652-.396 1.164v1.752c0 .512.132.9.396 1.164.272.264.64.396 1.104.396zm4.724.864v-6.6h2.856c.688 0 1.22.156 1.596.468.376.304.564.732.564 1.284 0 .456-.156.824-.468 1.104-.312.272-.724.408-1.236.408v-.096c.56 0 1.008.14 1.344.42.344.28.516.656.516 1.128 0 .592-.2 1.056-.6 1.392-.4.328-.96.492-1.68.492h-2.892zm1.056-.948h1.836c.384 0 .68-.084.888-.252.216-.168.324-.404.324-.708 0-.312-.108-.552-.324-.72-.208-.168-.504-.252-.888-.252h-1.836v1.932zm0-2.868h1.8c.336 0 .6-.08.792-.24.2-.16.3-.384.3-.672 0-.288-.096-.512-.288-.672-.192-.168-.46-.252-.804-.252h-1.8v1.836zm8.07 3.816v-5.652h-2.4v-.948h5.88v.948h-2.4V147h-1.08zm7.736.096c-.528 0-.984-.1-1.368-.3a2.178 2.178 0 01-.9-.864c-.208-.384-.312-.836-.312-1.356v-1.752c0-.528.104-.98.312-1.356.216-.376.516-.664.9-.864.384-.2.84-.3 1.368-.3.528 0 .984.1 1.368.3.384.2.68.488.888.864.216.376.324.824.324 1.344v1.764c0 .52-.108.972-.324 1.356a2.103 2.103 0 01-.888.864c-.384.2-.84.3-1.368.3zm0-.96c.472 0 .84-.132 1.104-.396.264-.264.396-.652.396-1.164v-1.752c0-.512-.132-.9-.396-1.164-.264-.264-.632-.396-1.104-.396-.464 0-.832.132-1.104.396-.264.264-.396.652-.396 1.164v1.752c0 .512.132.9.396 1.164.272.264.64.396 1.104.396zm4.7 3.024v-8.76h1.08v1.26h.216l-.216.252c0-.504.164-.9.492-1.188.336-.296.776-.444 1.32-.444.664 0 1.192.22 1.584.66.4.432.6 1.028.6 1.788v1.932c0 .504-.092.94-.276 1.308a1.962 1.962 0 01-.756.852c-.32.2-.704.3-1.152.3-.536 0-.972-.148-1.308-.444-.336-.296-.504-.692-.504-1.188l.216.252h-.24l.024 1.5v1.92h-1.08zm2.532-2.976c.456 0 .812-.136 1.068-.408.264-.272.396-.664.396-1.176v-1.8c0-.512-.132-.904-.396-1.176-.256-.272-.612-.408-1.068-.408-.44 0-.792.14-1.056.42-.264.28-.396.668-.396 1.164v1.8c0 .496.132.884.396 1.164.264.28.616.42 1.056.42zM66.7 147v-6.6h1.08v2.748h2.784V140.4h1.08v6.6h-1.08v-2.868H67.78V147H66.7zm6.847 0v-6.6h1.008v2.424h.54c.712 0 1.272.188 1.68.564.416.368.624.876.624 1.524s-.208 1.16-.624 1.536c-.408.368-.968.552-1.68.552h-1.548zm1.008-.864h.54c.424 0 .752-.108.984-.324.24-.216.36-.516.36-.9s-.12-.684-.36-.9c-.232-.216-.56-.324-.984-.324h-.54v2.448zm3.624.864v-6.6h1.008v6.6H78.18zm2.383 0l2.34-3.396-2.195-3.204h1.272l1.308 2.04c.055.088.107.184.155.288.057.104.1.188.133.252.023-.064.06-.148.108-.252.055-.104.111-.2.167-.288l1.32-2.04h1.26l-2.196 3.216L86.563 147H85.29l-1.416-2.16a3.356 3.356 0 01-.167-.3 2.599 2.599 0 00-.132-.288c-.032.072-.08.168-.145.288a2.125 2.125 0 01-.18.3L81.823 147h-1.26zm-57.034 16v-6.6h4.944v6.6h-1.08v-5.616h-2.784V163h-1.08zm9.667.096c-.528 0-.984-.1-1.368-.3a2.178 2.178 0 01-.9-.864c-.208-.384-.312-.836-.312-1.356v-1.752c0-.528.104-.98.312-1.356.216-.376.516-.664.9-.864.384-.2.84-.3 1.368-.3.528 0 .984.1 1.368.3.384.2.68.488.888.864.216.376.324.824.324 1.344v1.764c0 .52-.108.972-.324 1.356a2.103 2.103 0 01-.888.864c-.384.2-.84.3-1.368.3zm0-.96c.472 0 .84-.132 1.104-.396.264-.264.396-.652.396-1.164v-1.752c0-.512-.132-.9-.396-1.164-.264-.264-.632-.396-1.104-.396-.464 0-.832.132-1.104.396-.264.264-.396.652-.396 1.164v1.752c0 .512.132.9.396 1.164.272.264.64.396 1.104.396zm4.76.864v-6.6h1.08v2.724h1.128l1.92-2.724h1.236l-2.22 3.144L43.355 163h-1.26l-1.92-2.94h-1.14V163h-1.08zm8.167 2.16l.972-2.568-2.448-6.192h1.2l1.536 4.08c.056.136.108.3.156.492l.12.468.12-.468c.048-.192.096-.356.144-.492l1.44-4.08h1.164l-3.252 8.76h-1.152zm6.187-2.16v-6.6h4.944v6.6h-1.08v-5.616H53.39V163h-1.08zm9.668.096c-.528 0-.984-.1-1.368-.3a2.178 2.178 0 01-.9-.864c-.208-.384-.312-.836-.312-1.356v-1.752c0-.528.104-.98.312-1.356.216-.376.516-.664.9-.864.384-.2.84-.3 1.368-.3.528 0 .984.1 1.368.3.384.2.68.488.888.864.216.376.324.824.324 1.344v1.764c0 .52-.108.972-.324 1.356a2.103 2.103 0 01-.888.864c-.384.2-.84.3-1.368.3zm0-.96c.472 0 .84-.132 1.104-.396.264-.264.396-.652.396-1.164v-1.752c0-.512-.132-.9-.396-1.164-.264-.264-.632-.396-1.104-.396-.464 0-.832.132-1.104.396-.264.264-.396.652-.396 1.164v1.752c0 .512.132.9.396 1.164.272.264.64.396 1.104.396zm4.759.864v-6.6h1.08v2.724h1.128l1.92-2.724H72.1l-2.22 3.144L72.136 163h-1.26l-1.92-2.94h-1.14V163h-1.08zm9.631.12c-.304 0-.548-.088-.732-.264-.176-.176-.264-.412-.264-.708 0-.312.088-.56.264-.744.184-.184.428-.276.732-.276s.544.092.72.276c.184.184.276.432.276.744 0 .296-.092.532-.276.708-.176.176-.416.264-.72.264z" fill="#000"/><defs><linearGradient id="paint0_linear_2002_5" x1="0" y1="114.185" x2="223.615" y2="114.185" gradientUnits="userSpaceOnUse"><stop stop-color="#F1FFF7"/><stop offset="1" stop-color="#C1A678"/></linearGradient><linearGradient id="paint1_linear_2002_5" x1="11.769" y1="13.702" x2="218.691" y2="141.577" gradientUnits="userSpaceOnUse"><stop stop-color="#CCEC60"/><stop offset="1" stop-color="#fff" stop-opacity=".7"/></linearGradient><linearGradient id="paint2_linear_2002_5" x1="0" y1="170.472" x2="223.615" y2="170.472" gradientUnits="userSpaceOnUse"><stop stop-color="#F1FFF7"/><stop offset="1" stop-color="#546A65"/></linearGradient><linearGradient id="paint3_linear_2002_5" x1="11.769" y1="106.697" x2="158.553" y2="249.619" gradientUnits="userSpaceOnUse"><stop stop-color="#475E59" stop-opacity=".7"/><stop offset="1" stop-color="#fff" stop-opacity=".7"/></linearGradient><filter id="filter0_f_2002_5" x="-18.273" y="222.187" width="116.682" height="79.728" filterUnits="userSpaceOnUse" color-interpolation-filters="sRGB"><feFlood flood-opacity="0" result="BackgroundImageFix"/><feBlend in="SourceGraphic" in2="BackgroundImageFix" result="shape"/><feGaussianBlur stdDeviation="2" result="effect1_foregroundBlur_2002_5"/></filter></defs></svg>