<svg width="154" height="214" fill="none" xmlns="http://www.w3.org/2000/svg"><rect x=".421" y=".421" width="152.36" height="212.79" rx="19.579" fill="url(#paint0_linear_2004_113)" fill-opacity=".53" stroke="url(#paint1_linear_2004_113)" stroke-width=".842"/><mask id="a" style="mask-type:alpha" maskUnits="userSpaceOnUse" x="0" y="0" width="154" height="214"><rect x=".421" y=".421" width="152.36" height="212.79" rx="19.579" fill="url(#paint2_linear_2004_113)" fill-opacity=".53" stroke="url(#paint3_linear_2004_113)" stroke-width=".842"/></mask><g filter="url(#filter0_f_2004_113)" mask="url(#a)"><path d="M10 236.955c-5.136 0-9.511-1.398-13.125-4.194-3.614-2.818-6.375-6.897-8.284-12.238-1.91-5.364-2.864-11.841-2.864-19.432 0-7.546.955-13.989 2.864-19.33 1.932-5.363 4.704-9.454 8.318-12.272 3.636-2.841 8-4.262 13.091-4.262 5.09 0 9.443 1.421 13.057 4.262 3.636 2.818 6.409 6.909 8.318 12.272 1.932 5.341 2.898 11.784 2.898 19.33 0 7.591-.955 14.068-2.864 19.432-1.909 5.341-4.67 9.42-8.284 12.238-3.614 2.796-7.989 4.194-13.125 4.194zm0-7.5c5.09 0 9.046-2.455 11.864-7.364 2.818-4.909 4.227-11.909 4.227-21 0-6.046-.648-11.193-1.943-15.443-1.273-4.25-3.114-7.489-5.523-9.716-2.386-2.227-5.261-3.341-8.625-3.341-5.045 0-8.989 2.489-11.83 7.466-2.84 4.954-4.26 11.966-4.26 21.034 0 6.045.635 11.182 1.908 15.409s3.102 7.443 5.489 9.648c2.409 2.204 5.307 3.307 8.693 3.307zm60.41 7.5c-2.864-.046-5.728-.591-8.592-1.637-2.863-1.045-5.477-2.807-7.84-5.284-2.364-2.5-4.262-5.875-5.694-10.125-1.432-4.273-2.148-9.636-2.148-16.091 0-6.182.58-11.659 1.739-16.432 1.16-4.795 2.84-8.829 5.045-12.102 2.205-3.295 4.864-5.795 7.978-7.5 3.136-1.704 6.67-2.557 10.602-2.557 3.91 0 7.386.784 10.432 2.353 3.068 1.545 5.568 3.704 7.5 6.477 1.932 2.773 3.182 5.966 3.75 9.579h-8.318c-.773-3.136-2.273-5.738-4.5-7.806-2.228-2.069-5.182-3.103-8.864-3.103-5.41 0-9.67 2.353-12.784 7.057-3.091 4.705-4.648 11.307-4.67 19.807h.545c1.273-1.932 2.784-3.58 4.534-4.943a20.434 20.434 0 015.864-3.205c2.136-.75 4.397-1.125 6.784-1.125 4 0 7.659 1 10.977 3 3.318 1.977 5.977 4.716 7.977 8.216 2 3.477 3 7.466 3 11.966 0 4.318-.966 8.273-2.898 11.864-1.931 3.568-4.647 6.409-8.147 8.522-3.478 2.091-7.568 3.114-12.273 3.069zm0-7.5c2.863 0 5.43-.716 7.704-2.148 2.295-1.432 4.102-3.352 5.42-5.762 1.341-2.409 2.011-5.09 2.011-8.045 0-2.886-.647-5.511-1.943-7.875-1.273-2.386-3.034-4.284-5.284-5.693-2.227-1.409-4.772-2.114-7.636-2.114-2.16 0-4.17.432-6.034 1.296-1.864.841-3.5 2-4.91 3.477a16.792 16.792 0 00-3.272 5.079 15.202 15.202 0 00-1.193 5.966c0 2.773.647 5.364 1.943 7.773 1.318 2.409 3.114 4.352 5.386 5.83 2.296 1.477 4.898 2.216 7.807 2.216z" fill="#CCEC60"/></g><mask id="b" style="mask-type:alpha" maskUnits="userSpaceOnUse" x="0" y="0" width="153" height="176"><rect x=".494" y=".494" width="152.011" height="175.011" rx="19.506" fill="url(#paint4_linear_2004_113)" fill-opacity=".53" stroke="url(#paint5_linear_2004_113)" stroke-width=".989"/></mask><g mask="url(#b)"><path fill="#C9D9CD" d="M0 0h153.038v52H0z"/></g><path d="M10.04 71.1c-.44 0-.823-.083-1.15-.25a1.815 1.815 0 01-.75-.72c-.173-.32-.26-.697-.26-1.13v-3.3c0-.44.087-.817.26-1.13.18-.313.43-.553.75-.72.327-.167.71-.25 1.15-.25.44 0 .82.087 1.14.26.32.167.567.407.74.72.173.313.26.687.26 1.12h-.9c0-.413-.11-.73-.33-.95-.213-.227-.517-.34-.91-.34s-.703.11-.93.33c-.22.22-.33.537-.33.95V69c0 .413.11.733.33.96.227.22.537.33.93.33s.697-.11.91-.33c.22-.227.33-.547.33-.96h.9c0 .427-.087.8-.26 1.12-.173.313-.42.557-.74.73-.32.167-.7.25-1.14.25zm5.956-.02c-.44 0-.82-.083-1.14-.25a1.815 1.815 0 01-.75-.72c-.173-.32-.26-.697-.26-1.13v-1.46c0-.44.087-.817.26-1.13.18-.313.43-.553.75-.72.32-.167.7-.25 1.14-.25.44 0 .82.083 1.14.25.32.167.567.407.74.72.18.313.27.687.27 1.12v1.47c0 .433-.09.81-.27 1.13-.173.313-.42.553-.74.72-.32.167-.7.25-1.14.25zm0-.8c.393 0 .7-.11.92-.33.22-.22.33-.543.33-.97v-1.46c0-.427-.11-.75-.33-.97-.22-.22-.527-.33-.92-.33-.387 0-.693.11-.92.33-.22.22-.33.543-.33.97v1.46c0 .427.11.75.33.97.227.22.533.33.92.33zm3.966.72v-5.5h.9v2.27h.94l1.6-2.27h1.03l-1.85 2.62 1.88 2.88h-1.05l-1.6-2.45h-.95V71h-.9zm5.946 1.8v-7.3h.9v1.05h.18l-.18.21c0-.42.137-.75.41-.99.28-.247.647-.37 1.1-.37.554 0 .994.183 1.32.55.334.36.5.857.5 1.49v1.61c0 .42-.076.783-.23 1.09a1.636 1.636 0 01-.63.71c-.266.167-.586.25-.96.25-.446 0-.81-.123-1.09-.37s-.42-.577-.42-.99l.18.21h-.2l.02 1.25v1.6h-.9zm2.11-2.48c.38 0 .677-.113.89-.34.22-.227.33-.553.33-.98v-1.5c0-.427-.11-.753-.33-.98-.213-.227-.51-.34-.89-.34-.366 0-.66.117-.88.35-.22.233-.33.557-.33.97V69c0 .413.11.737.33.97.22.233.514.35.88.35zm5.486.78c-.58 0-1.036-.147-1.37-.44-.333-.3-.5-.703-.5-1.21 0-.513.167-.917.5-1.21.334-.293.784-.44 1.35-.44h1.7v-.55c0-.34-.103-.6-.31-.78-.2-.187-.486-.28-.86-.28-.326 0-.6.07-.82.21a.747.747 0 00-.38.55h-.9c.06-.473.284-.85.67-1.13.387-.28.87-.42 1.45-.42.634 0 1.134.163 1.5.49.367.327.55.77.55 1.33V71h-.88v-1.05h-.15l.15-.15c0 .4-.156.717-.47.95-.306.233-.716.35-1.23.35zm.22-.71c.427 0 .777-.107 1.05-.32a.996.996 0 00.41-.82v-.78h-1.68c-.3 0-.536.083-.71.25-.173.167-.26.393-.26.68 0 .307.104.55.31.73.214.173.507.26.88.26zm5.807.61v-4.71h-2v-.79h4.9v.79h-2V71h-.9zm4.386 0v-5.5h.86v3c0 .193-.007.397-.02.61a8.72 8.72 0 01-.04.61 6.67 6.67 0 01-.05.48l2.22-4.7h1.15V71h-.86v-3c0-.193.003-.397.01-.61.013-.213.03-.417.05-.61.02-.2.036-.363.05-.49L45.067 71h-1.15zm7.606 0v-4.71h-2v-.79h4.9v.79h-2V71h-.9zm6.446.1c-.434 0-.814-.087-1.14-.26a1.881 1.881 0 01-.75-.73c-.174-.32-.26-.69-.26-1.11v-1.5c0-.427.086-.797.26-1.11.18-.313.43-.557.75-.73.326-.173.706-.26 1.14-.26.433 0 .81.087 1.13.26.326.173.576.417.75.73.18.313.27.683.27 1.11v.97h-3.42V69c0 .433.11.767.33 1 .22.227.533.34.94.34.346 0 .626-.06.84-.18a.795.795 0 00.39-.56h.9c-.06.46-.287.827-.68 1.1-.387.267-.87.4-1.45.4zm1.27-3.23v-.37c0-.433-.11-.767-.33-1-.214-.233-.527-.35-.94-.35-.407 0-.72.117-.94.35-.22.233-.33.567-.33 1v.29h2.61l-.07.08zm10.462 3.2c-.58 0-1.057-.123-1.43-.37a1.47 1.47 0 01-.66-1h.95c.047.167.17.303.37.41.207.107.463.16.77.16h.47c.327 0 .58-.077.76-.23a.74.74 0 00.28-.6c0-.267-.09-.477-.27-.63-.173-.153-.43-.23-.77-.23h-1.21v-.78h1.18c.307 0 .54-.073.7-.22a.75.75 0 00.24-.58.757.757 0 00-.11-.42.636.636 0 00-.31-.26c-.14-.06-.31-.09-.51-.09h-.5c-.267 0-.497.06-.69.18-.193.12-.31.267-.35.44h-.95c.067-.413.283-.753.65-1.02.367-.267.813-.4 1.34-.4h.5c.393 0 .73.063 1.01.19.28.12.493.293.64.52.153.227.23.497.23.81 0 .327-.107.597-.32.81-.213.207-.513.323-.9.35v.04c.473.033.817.16 1.03.38.213.22.32.537.32.95 0 .487-.18.873-.54 1.16-.36.287-.843.43-1.45.43h-.47zm5.776.03c-.58 0-1.037-.147-1.37-.44-.333-.3-.5-.703-.5-1.21 0-.513.167-.917.5-1.21.333-.293.783-.44 1.35-.44h1.7v-.55c0-.34-.103-.6-.31-.78-.2-.187-.487-.28-.86-.28-.327 0-.6.07-.82.21a.747.747 0 00-.38.55h-.9c.06-.473.283-.85.67-1.13.387-.28.87-.42 1.45-.42.633 0 1.133.163 1.5.49.367.327.55.77.55 1.33V71h-.88v-1.05h-.15l.15-.15c0 .4-.157.717-.47.95-.307.233-.717.35-1.23.35zm.22-.71c.427 0 .777-.107 1.05-.32a.995.995 0 00.41-.82v-.78h-1.68c-.3 0-.537.083-.71.25-.173.167-.26.393-.26.68 0 .307.103.55.31.73.213.173.507.26.88.26zm5.806.61v-4.71h-2v-.79h4.9v.79h-2V71h-.9zm4.366 1.8v-7.3h.9v1.05h.18l-.18.21c0-.42.137-.75.41-.99.28-.247.647-.37 1.1-.37.554 0 .994.183 1.32.55.334.36.5.857.5 1.49v1.61c0 .42-.076.783-.23 1.09a1.634 1.634 0 01-.63.71c-.266.167-.586.25-.96.25-.446 0-.81-.123-1.09-.37s-.42-.577-.42-.99l.18.21h-.2l.02 1.25v1.6h-.9zm2.11-2.48c.38 0 .677-.113.89-.34.22-.227.33-.553.33-.98v-1.5c0-.427-.11-.753-.33-.98-.213-.227-.51-.34-.89-.34-.366 0-.66.117-.88.35-.22.233-.33.557-.33.97V69c0 .413.11.737.33.97.22.233.514.35.88.35zm5.486.78c-.58 0-1.036-.147-1.37-.44-.333-.3-.5-.703-.5-1.21 0-.513.167-.917.5-1.21.334-.293.784-.44 1.35-.44h1.7v-.55c0-.34-.103-.6-.31-.78-.2-.187-.486-.28-.86-.28-.326 0-.6.07-.82.21a.747.747 0 00-.38.55h-.9c.06-.473.284-.85.67-1.13.387-.28.87-.42 1.45-.42.634 0 1.134.163 1.5.49.367.327.55.77.55 1.33V71h-.88v-1.05h-.15l.15-.15c0 .4-.156.717-.47.95-.306.233-.716.35-1.23.35zm.22-.71c.427 0 .777-.107 1.05-.32a.996.996 0 00.41-.82v-.78h-1.68c-.3 0-.536.083-.71.25-.173.167-.26.393-.26.68 0 .307.104.55.31.73.214.173.507.26.88.26zm5.806.61v-4.71h-2v-.79h4.9v.79h-2V71h-.9zm4.097 0v-5.5h.84v2.02h.45c.593 0 1.06.157 1.4.47.346.307.52.73.52 1.27s-.174.967-.52 1.28c-.34.307-.807.46-1.4.46h-1.29zm.84-.72h.45c.353 0 .626-.09.82-.27.2-.18.3-.43.3-.75s-.1-.57-.3-.75c-.194-.18-.467-.27-.82-.27h-.45v2.04zm3.02.72v-5.5h.84V71h-.84zm8.422 0v-5.5h.9v2.29h2.32V65.5h.9V71h-.9v-2.39h-2.32V71h-.9zm7.576.1c-.58 0-1.037-.147-1.37-.44-.334-.3-.5-.703-.5-1.21 0-.513.166-.917.5-1.21.333-.293.783-.44 1.35-.44h1.7v-.55c0-.34-.104-.6-.31-.78-.2-.187-.487-.28-.86-.28-.327 0-.6.07-.82.21a.746.746 0 00-.38.55h-.9c.06-.473.283-.85.67-1.13.386-.28.87-.42 1.45-.42.633 0 1.133.163 1.5.49.366.327.55.77.55 1.33V71h-.88v-1.05h-.15l.15-.15c0 .4-.157.717-.47.95-.307.233-.717.35-1.23.35zm.22-.71c.426 0 .776-.107 1.05-.32a.996.996 0 00.41-.82v-.78h-1.68c-.3 0-.537.083-.71.25-.174.167-.26.393-.26.68 0 .307.103.55.31.73.213.173.506.26.88.26zM7.94 84v-5.5h4.12V84h-.9v-4.68H8.84V84h-.9zm8.056.08c-.44 0-.82-.083-1.14-.25a1.815 1.815 0 01-.75-.72c-.173-.32-.26-.697-.26-1.13v-1.46c0-.44.087-.817.26-1.13.18-.313.43-.553.75-.72.32-.167.7-.25 1.14-.25.44 0 .82.083 1.14.25.32.167.567.407.74.72.18.313.27.687.27 1.12v1.47c0 .433-.09.81-.27 1.13-.173.313-.42.553-.74.72-.32.167-.7.25-1.14.25zm0-.8c.393 0 .7-.11.92-.33.22-.22.33-.543.33-.97v-1.46c0-.427-.11-.75-.33-.97-.22-.22-.527-.33-.92-.33-.387 0-.693.11-.92.33-.22.22-.33.543-.33.97v1.46c0 .427.11.75.33.97.227.22.533.33.92.33zm3.296 2.12v-2.17h.45c.113-.113.23-.337.35-.67.127-.333.194-.757.2-1.27l.06-2.79h3.59v4.73h.7v2.17h-.8V84h-3.75v1.4h-.8zm1.4-2.17h2.35V79.3h-1.84l-.04 2.01c-.006.527-.063.953-.17 1.28-.107.327-.207.54-.3.64zm4.596 2.17v-2.17h.45c.114-.113.23-.337.35-.67.127-.333.194-.757.2-1.27l.06-2.79h3.59v4.73h.7v2.17h-.8V84h-3.75v1.4h-.8zm1.4-2.17h2.35V79.3h-1.84l-.04 2.01c-.006.527-.063.953-.17 1.28-.106.327-.206.54-.3.64zm7.296.87c-.433 0-.813-.087-1.14-.26a1.881 1.881 0 01-.75-.73c-.173-.32-.26-.69-.26-1.11v-1.5c0-.427.087-.797.26-1.11.18-.313.43-.557.75-.73.327-.173.707-.26 1.14-.26.434 0 .81.087 1.13.26.327.173.577.417.75.73.18.313.27.683.27 1.11v.97h-3.42V82c0 .433.11.767.33 1 .22.227.534.34.94.34.347 0 .627-.06.84-.18a.795.795 0 00.39-.56h.9a1.53 1.53 0 01-.68 1.1c-.386.267-.87.4-1.45.4zm1.27-3.23v-.37c0-.433-.11-.767-.33-1-.213-.233-.526-.35-.94-.35-.406 0-.72.117-.94.35-.22.233-.33.567-.33 1v.29h2.61l-.07.08zm2.647 4.93v-7.3h.9v1.05h.18l-.18.21c0-.42.136-.75.41-.99.28-.247.646-.37 1.1-.37.553 0 .993.183 1.32.55.333.36.5.857.5 1.49v1.61c0 .42-.077.783-.23 1.09a1.636 1.636 0 01-.63.71c-.267.167-.587.25-.96.25-.447 0-.81-.123-1.09-.37s-.42-.577-.42-.99l.18.21h-.2l.02 1.25v1.6h-.9zm2.11-2.48c.38 0 .676-.113.89-.34.22-.227.33-.553.33-.98v-1.5c0-.427-.11-.753-.33-.98-.214-.227-.51-.34-.89-.34-.367 0-.66.117-.88.35-.22.233-.33.557-.33.97V82c0 .413.11.737.33.97.22.233.513.35.88.35zm3.146.68l1.2-2.82-1.12-2.68h.87l.96 2.4h.53v-2.4h.76v2.4h.51l.99-2.4h.86l-1.12 2.65 1.2 2.85h-.9l-1-2.5h-.54V84h-.76v-2.5h-.54l-1.01 2.5h-.89zm6.786 0v-5.5h.9v2.27h.94l1.6-2.27h1.03l-1.85 2.62 1.88 2.88h-1.05l-1.6-2.45h-.95V84h-.9zm6.806 1.8l.81-2.14-2.04-5.16h1l1.28 3.4c.046.113.09.25.13.41l.1.39c.026-.107.06-.237.1-.39.04-.16.08-.297.12-.41l1.2-3.4h.97l-2.71 7.3h-.96zM67.93 84v-5.5h.9v2.27h.94l1.6-2.27h1.03l-1.85 2.62L72.43 84h-1.05l-1.6-2.45h-.95V84h-.9zm5.276.07v-.84h.18c.307 0 .52-.12.64-.36.127-.24.193-.67.2-1.29l.06-3.08h3.73V84h-.9v-4.68h-1.94l-.05 2.3c-.013.58-.08 1.05-.2 1.41-.113.36-.293.623-.54.79-.24.167-.557.25-.95.25h-.23zm6.686-.07v-5.5h.86v3c0 .193-.007.397-.02.61a8.72 8.72 0 01-.04.61c-.013.187-.03.347-.05.48l2.22-4.7h1.15V84h-.86v-3c0-.193.003-.397.01-.61.014-.213.03-.417.05-.61l.05-.49-2.22 4.71h-1.15zm8.056.1c-.433 0-.813-.087-1.14-.26a1.881 1.881 0 01-.75-.73c-.173-.32-.26-.69-.26-1.11v-1.5c0-.427.087-.797.26-1.11.18-.313.43-.557.75-.73.327-.173.707-.26 1.14-.26.434 0 .81.087 1.13.26a1.8 1.8 0 01.75.73c.18.313.27.683.27 1.11v.97h-3.42V82c0 .433.11.767.33 1 .22.227.534.34.94.34.347 0 .627-.06.84-.18a.794.794 0 00.39-.56h.9a1.53 1.53 0 01-.68 1.1c-.386.267-.87.4-1.45.4zm1.27-3.23v-.37c0-.433-.11-.767-.33-1-.213-.233-.526-.35-.94-.35-.406 0-.72.117-.94.35-.22.233-.33.567-.33 1v.29h2.61l-.07.08zM91.885 84v-5.5h.9v2.29h2.32V78.5h.9V84h-.9v-2.39h-2.32V84h-.9zm7.606 0v-4.71h-2v-.79h4.9v.79h-2V84h-.9zm6.447.08c-.44 0-.82-.083-1.14-.25a1.815 1.815 0 01-.75-.72c-.174-.32-.26-.697-.26-1.13v-1.46c0-.44.086-.817.26-1.13.18-.313.43-.553.75-.72.32-.167.7-.25 1.14-.25.44 0 .82.083 1.14.25.32.167.566.407.74.72.18.313.27.687.27 1.12v1.47c0 .433-.09.81-.27 1.13a1.76 1.76 0 01-.74.72c-.32.167-.7.25-1.14.25zm0-.8c.393 0 .7-.11.92-.33.22-.22.33-.543.33-.97v-1.46c0-.427-.11-.75-.33-.97-.22-.22-.527-.33-.92-.33-.387 0-.694.11-.92.33-.22.22-.33.543-.33.97v1.46c0 .427.11.75.33.97.226.22.533.33.92.33zm3.936.72v-5.5h2.38c.573 0 1.016.13 1.33.39.313.253.47.61.47 1.07 0 .38-.13.687-.39.92-.26.227-.604.34-1.03.34v-.08c.466 0 .84.117 1.12.35.286.233.43.547.43.94 0 .493-.167.88-.5 1.16-.334.273-.8.41-1.4.41h-2.41zm.88-.79h1.53c.32 0 .566-.07.74-.21.18-.14.27-.337.27-.59 0-.26-.09-.46-.27-.6-.174-.14-.42-.21-.74-.21h-1.53v1.61zm0-2.39h1.5c.28 0 .5-.067.66-.2.166-.133.25-.32.25-.56 0-.24-.08-.427-.24-.56-.16-.14-.384-.21-.67-.21h-1.5v1.53zM121.866 84v-5.5h.86v3c0 .193-.007.397-.02.61a8.72 8.72 0 01-.04.61 6.67 6.67 0 01-.05.48l2.22-4.7h1.15V84h-.86v-3c0-.193.003-.397.01-.61.013-.213.03-.417.05-.61.02-.2.036-.363.05-.49l-2.22 4.71h-1.15zM7.94 97v-5.5h4.12V97h-.9v-4.68H8.84V97h-.9zm8.056.08c-.44 0-.82-.083-1.14-.25a1.815 1.815 0 01-.75-.72c-.173-.32-.26-.697-.26-1.13v-1.46c0-.44.087-.817.26-1.13.18-.313.43-.553.75-.72.32-.167.7-.25 1.14-.25.44 0 .82.083 1.14.25.32.167.567.407.74.72.18.313.27.687.27 1.12v1.47c0 .433-.09.81-.27 1.13-.173.313-.42.553-.74.72-.32.167-.7.25-1.14.25zm0-.8c.393 0 .7-.11.92-.33.22-.22.33-.543.33-.97v-1.46c0-.427-.11-.75-.33-.97-.22-.22-.527-.33-.92-.33-.387 0-.693.11-.92.33-.22.22-.33.543-.33.97v1.46c0 .427.11.75.33.97.227.22.533.33.92.33zm3.936.72v-5.5h2.38c.573 0 1.017.13 1.33.39.314.253.47.61.47 1.07 0 .38-.13.687-.39.92-.26.227-.603.34-1.03.34v-.08c.467 0 .84.117 1.12.35.287.233.43.547.43.94 0 .493-.166.88-.5 1.16-.333.273-.8.41-1.4.41h-2.41zm.88-.79h1.53c.32 0 .567-.07.74-.21.18-.14.27-.337.27-.59 0-.26-.09-.46-.27-.6-.173-.14-.42-.21-.74-.21h-1.53v1.61zm0-2.39h1.5c.28 0 .5-.067.66-.2.167-.133.25-.32.25-.56 0-.24-.08-.427-.24-.56-.16-.14-.383-.21-.67-.21h-1.5v1.53zM25.638 97v-5.5h.84v2.02h.45c.594 0 1.06.157 1.4.47.347.307.52.73.52 1.27s-.173.967-.52 1.28c-.34.307-.806.46-1.4.46h-1.29zm.84-.72h.45c.354 0 .627-.09.82-.27.2-.18.3-.43.3-.75s-.1-.57-.3-.75c-.193-.18-.466-.27-.82-.27h-.45v2.04zm3.02.72v-5.5h.84V97h-.84zm4.506.1a2.56 2.56 0 01-1.16-.25 1.801 1.801 0 01-.76-.72c-.18-.32-.27-.697-.27-1.13v-1.5c0-.44.09-.817.27-1.13.18-.313.434-.553.76-.72a2.56 2.56 0 011.16-.25c.634 0 1.144.17 1.53.51.387.34.59.803.61 1.39h-.9c-.02-.353-.14-.623-.36-.81-.213-.193-.506-.29-.88-.29-.393 0-.706.113-.94.34-.233.22-.35.537-.35.95V95c0 .413.117.733.35.96.234.227.547.34.94.34.374 0 .667-.097.88-.29.22-.193.34-.463.36-.81h.9c-.02.587-.223 1.05-.61 1.39-.386.34-.896.51-1.53.51zm3.957-.1v-5.5h.9v2.02h1.62c.62 0 1.106.157 1.46.47.36.307.54.73.54 1.27 0 .533-.18.957-.54 1.27-.36.313-.847.47-1.46.47h-2.52zm.9-.82h1.62c.346 0 .61-.077.79-.23.186-.16.28-.39.28-.69 0-.3-.094-.527-.28-.68-.18-.16-.444-.24-.79-.24h-1.62v1.84zm6.666.82v-4.71h-2v-.79h4.9v.79h-2V97h-.9zm6.446.1c-.434 0-.814-.087-1.14-.26a1.881 1.881 0 01-.75-.73c-.174-.32-.26-.69-.26-1.11v-1.5c0-.427.086-.797.26-1.11.18-.313.43-.557.75-.73.326-.173.706-.26 1.14-.26.433 0 .81.087 1.13.26.326.173.576.417.75.73.18.313.27.683.27 1.11v.97h-3.42V95c0 .433.11.767.33 1 .22.227.533.34.94.34.346 0 .626-.06.84-.18a.795.795 0 00.39-.56h.9c-.06.46-.287.827-.68 1.1-.387.267-.87.4-1.45.4zm1.27-3.23v-.37c0-.433-.11-.767-.33-1-.214-.233-.527-.35-.94-.35-.407 0-.72.117-.94.35-.22.233-.33.567-.33 1v.29h2.61l-.07.08zM7.94 110v-5.5h4.12v5.5h-.9v-4.68H8.84V110h-.9zm5.976 1.8v-7.3h.9v1.05h.18l-.18.21c0-.42.137-.75.41-.99.28-.247.647-.37 1.1-.37.553 0 .993.183 1.32.55.333.36.5.857.5 1.49v1.61c0 .42-.077.783-.23 1.09a1.636 1.636 0 01-.63.71c-.267.167-.587.25-.96.25-.447 0-.81-.123-1.09-.37s-.42-.577-.42-.99l.18.21h-.2l.02 1.25v1.6h-.9zm2.11-2.48c.38 0 .677-.113.89-.34.22-.227.33-.553.33-.98v-1.5c0-.427-.11-.753-.33-.98-.213-.227-.51-.34-.89-.34-.367 0-.66.117-.88.35-.22.233-.33.557-.33.97v1.5c0 .413.11.737.33.97.22.233.513.35.88.35zm5.966.76c-.44 0-.82-.083-1.14-.25a1.82 1.82 0 01-.75-.72c-.173-.32-.26-.697-.26-1.13v-1.46c0-.44.087-.817.26-1.13.18-.313.43-.553.75-.72.32-.167.7-.25 1.14-.25.44 0 .82.083 1.14.25.32.167.567.407.74.72.18.313.27.687.27 1.12v1.47c0 .433-.09.81-.27 1.13-.173.313-.42.553-.74.72-.32.167-.7.25-1.14.25zm0-.8c.393 0 .7-.11.92-.33.22-.22.33-.543.33-.97v-1.46c0-.427-.11-.75-.33-.97-.22-.22-.526-.33-.92-.33-.387 0-.693.11-.92.33-.22.22-.33.543-.33.97v1.46c0 .427.11.75.33.97.227.22.534.33.92.33zm3.936.72v-5.5h.86v3c0 .193-.006.397-.02.61-.006.213-.02.417-.04.61-.013.187-.03.347-.05.48l2.22-4.7h1.15v5.5h-.86v-3c0-.193.004-.397.01-.61.014-.213.03-.417.05-.61l.05-.49-2.22 4.71h-1.15zm7.796.07c-.58 0-1.056-.123-1.43-.37a1.47 1.47 0 01-.66-1h.95c.047.167.17.303.37.41.207.107.464.16.77.16h.47c.327 0 .58-.077.76-.23a.739.739 0 00.28-.6c0-.267-.09-.477-.27-.63-.173-.153-.43-.23-.77-.23h-1.21v-.78h1.18c.307 0 .54-.073.7-.22a.75.75 0 00.24-.58.756.756 0 00-.11-.42.638.638 0 00-.31-.26c-.14-.06-.31-.09-.51-.09h-.5c-.266 0-.496.06-.69.18-.193.12-.31.267-.35.44h-.95c.067-.413.284-.753.65-1.02.367-.267.814-.4 1.34-.4h.5c.394 0 .73.063 1.01.19.28.12.494.293.64.52.154.227.23.497.23.81 0 .327-.106.597-.32.81-.213.207-.513.323-.9.35v.04c.474.033.817.16 1.03.38.214.22.32.537.32.95 0 .487-.18.873-.54 1.16-.36.287-.843.43-1.45.43h-.47zm4.197-.07v-5.5h2.38c.573 0 1.016.13 1.33.39.313.253.47.61.47 1.07 0 .38-.13.687-.39.92-.26.227-.604.34-1.03.34v-.08c.466 0 .84.117 1.12.35.286.233.43.547.43.94 0 .493-.167.88-.5 1.16-.334.273-.8.41-1.4.41h-2.41zm.88-.79h1.53c.32 0 .566-.07.74-.21.18-.14.27-.337.27-.59 0-.26-.09-.46-.27-.6-.174-.14-.42-.21-.74-.21H38.8v1.61zm0-2.39h1.5c.28 0 .5-.067.66-.2.166-.133.25-.32.25-.56 0-.24-.08-.427-.24-.56-.16-.14-.384-.21-.67-.21h-1.5v1.53zm7.176 3.26c-.44 0-.82-.083-1.14-.25a1.82 1.82 0 01-.75-.72c-.174-.32-.26-.697-.26-1.13v-1.46c0-.44.086-.817.26-1.13.18-.313.43-.553.75-.72.32-.167.7-.25 1.14-.25.44 0 .82.083 1.14.25.32.167.566.407.74.72.18.313.27.687.27 1.12v1.47c0 .433-.09.81-.27 1.13a1.76 1.76 0 01-.74.72c-.32.167-.7.25-1.14.25zm0-.8c.393 0 .7-.11.92-.33.22-.22.33-.543.33-.97v-1.46c0-.427-.11-.75-.33-.97-.22-.22-.527-.33-.92-.33-.387 0-.694.11-.92.33-.22.22-.33.543-.33.97v1.46c0 .427.11.75.33.97.226.22.533.33.92.33zm3.296 2.12v-2.17h.45c.113-.113.23-.337.35-.67.126-.333.193-.757.2-1.27l.06-2.79h3.59v4.73h.7v2.17h-.8V110h-3.75v1.4h-.8zm1.4-2.17h2.35v-3.93h-1.84l-.04 2.01c-.007.527-.064.953-.17 1.28-.107.327-.207.54-.3.64zm5.236.77v-5.5h.86v3c0 .193-.007.397-.02.61a8.72 8.72 0 01-.04.61 6.67 6.67 0 01-.05.48l2.22-4.7h1.15v5.5h-.86v-3c0-.193.003-.397.01-.61.013-.213.03-.417.05-.61.02-.2.036-.363.05-.49l-2.22 4.71h-1.15zm7.606 0v-4.71h-2v-.79h4.9v.79h-2V110h-.9zm6.446.1c-.433 0-.813-.087-1.14-.26a1.881 1.881 0 01-.75-.73c-.173-.32-.26-.69-.26-1.11v-1.5c0-.427.087-.797.26-1.11.18-.313.43-.557.75-.73.327-.173.707-.26 1.14-.26.433 0 .81.087 1.13.26a1.8 1.8 0 01.75.73c.18.313.27.683.27 1.11v.97h-3.42v.53c0 .433.11.767.33 1 .22.227.533.34.94.34.347 0 .627-.06.84-.18a.794.794 0 00.39-.56h.9c-.06.46-.287.827-.68 1.1-.387.267-.87.4-1.45.4zm1.27-3.23v-.37c0-.433-.11-.767-.33-1-.213-.233-.527-.35-.94-.35-.407 0-.72.117-.94.35-.22.233-.33.567-.33 1v.29h2.61l-.07.08zm1.976 3.2v-.84h.18c.307 0 .52-.12.64-.36.127-.24.193-.67.2-1.29l.06-3.08h3.73v5.5h-.9v-4.68h-1.94l-.05 2.3c-.013.58-.08 1.05-.2 1.41-.113.36-.293.623-.54.79-.24.167-.557.25-.95.25h-.23zm6.726-.07v-5.5h.9v2.02h1.62c.62 0 1.107.157 1.46.47.36.307.54.73.54 1.27 0 .533-.18.957-.54 1.27-.36.313-.846.47-1.46.47h-2.52zm.9-.82h1.62c.347 0 .61-.077.79-.23.187-.16.28-.39.28-.69 0-.3-.093-.527-.28-.68-.18-.16-.443-.24-.79-.24h-1.62v1.84zm5.056.82v-5.5h.9v2.29h2.32v-2.29h.9v5.5h-.9v-2.39h-2.32V110h-.9zm8.056.08c-.44 0-.82-.083-1.14-.25a1.82 1.82 0 01-.75-.72c-.173-.32-.26-.697-.26-1.13v-1.46c0-.44.087-.817.26-1.13.18-.313.43-.553.75-.72.32-.167.7-.25 1.14-.25.44 0 .82.083 1.14.25.32.167.567.407.74.72.18.313.27.687.27 1.12v1.47c0 .433-.09.81-.27 1.13-.173.313-.42.553-.74.72-.32.167-.7.25-1.14.25zm0-.8c.394 0 .7-.11.92-.33.22-.22.33-.543.33-.97v-1.46c0-.427-.11-.75-.33-.97-.22-.22-.526-.33-.92-.33-.386 0-.693.11-.92.33-.22.22-.33.543-.33.97v1.46c0 .427.11.75.33.97.227.22.534.33.92.33zm6.016.82a2.56 2.56 0 01-1.16-.25 1.805 1.805 0 01-.76-.72c-.18-.32-.27-.697-.27-1.13v-1.5c0-.44.09-.817.27-1.13.18-.313.434-.553.76-.72a2.56 2.56 0 011.16-.25c.634 0 1.144.17 1.53.51.387.34.59.803.61 1.39h-.9c-.02-.353-.14-.623-.36-.81-.213-.193-.506-.29-.88-.29-.393 0-.706.113-.94.34-.233.22-.35.537-.35.95V108c0 .413.117.733.35.96.234.227.547.34.94.34.374 0 .667-.097.88-.29.22-.193.34-.463.36-.81h.9c-.02.587-.223 1.05-.61 1.39-.386.34-.896.51-1.53.51zm5.527-.1v-4.71h-2v-.79h4.9v.79h-2V110h-.9zm4.426 0v-5.5h.9v2.02h1.62c.62 0 1.106.157 1.46.47.36.307.54.73.54 1.27 0 .533-.18.957-.54 1.27-.36.313-.847.47-1.46.47h-2.52zm.9-.82h1.62c.346 0 .61-.077.79-.23.186-.16.28-.39.28-.69 0-.3-.094-.527-.28-.68-.18-.16-.444-.24-.79-.24h-1.62v1.84zm13.112.92c-.647 0-1.16-.19-1.54-.57-.374-.387-.56-.913-.56-1.58v-2.5c0-.88.22-1.557.66-2.03.44-.48 1.07-.72 1.89-.72h1.4v.9h-1.4c-.54 0-.95.16-1.23.48-.28.313-.42.77-.42 1.37v.65h.14l-.14.2c.006-.393.14-.7.4-.92.26-.22.613-.33 1.06-.33.58 0 1.03.187 1.35.56.326.373.49.887.49 1.54v.8c0 .447-.084.83-.25 1.15-.167.32-.407.567-.72.74-.314.173-.69.26-1.13.26zm0-.8c.386 0 .683-.117.89-.35.206-.233.31-.567.31-1v-.8c0-.433-.104-.767-.31-1-.207-.233-.504-.35-.89-.35-.387 0-.684.117-.89.35-.207.227-.31.56-.31 1v.8c0 .433.103.767.31 1 .206.233.503.35.89.35zm5.996.8c-.433 0-.813-.087-1.14-.26a1.881 1.881 0 01-.75-.73c-.173-.32-.26-.69-.26-1.11v-1.5c0-.427.087-.797.26-1.11.18-.313.43-.557.75-.73.327-.173.707-.26 1.14-.26.433 0 .81.087 1.13.26.327.173.577.417.75.73.18.313.27.683.27 1.11v.97h-3.42v.53c0 .433.11.767.33 1 .22.227.533.34.94.34.347 0 .627-.06.84-.18a.796.796 0 00.39-.56h.9c-.06.46-.287.827-.68 1.1-.387.267-.87.4-1.45.4zm1.27-3.23v-.37c0-.433-.11-.767-.33-1-.213-.233-.527-.35-.94-.35-.407 0-.72.117-.94.35-.22.233-.33.567-.33 1v.29h2.61l-.07.08zm4.466 3.2c-.58 0-1.057-.123-1.43-.37a1.468 1.468 0 01-.66-1h.95c.047.167.17.303.37.41.207.107.463.16.77.16h.47c.327 0 .58-.077.76-.23a.738.738 0 00.28-.6c0-.267-.09-.477-.27-.63-.173-.153-.43-.23-.77-.23h-1.21v-.78h1.18c.307 0 .54-.073.7-.22a.75.75 0 00.24-.58.759.759 0 00-.11-.42.639.639 0 00-.31-.26c-.14-.06-.31-.09-.51-.09h-.5c-.267 0-.497.06-.69.18-.193.12-.31.267-.35.44h-.95c.067-.413.283-.753.65-1.02.367-.267.813-.4 1.34-.4h.5c.393 0 .73.063 1.01.19.28.12.493.293.64.52.153.227.23.497.23.81 0 .327-.107.597-.32.81-.213.207-.513.323-.9.35v.04c.473.033.817.16 1.03.38.213.22.32.537.32.95 0 .487-.18.873-.54 1.16-.36.287-.843.43-1.45.43h-.47zM7.3 124.4v-2.17h.45c.113-.113.23-.337.35-.67.127-.333.193-.757.2-1.27l.06-2.79h3.59v4.73h.7v2.17h-.8V123H8.1v1.4h-.8zm1.4-2.17h2.35v-3.93H9.21l-.04 2.01c-.007.527-.063.953-.17 1.28-.107.327-.207.54-.3.64zm7.296.85c-.44 0-.82-.083-1.14-.25a1.82 1.82 0 01-.75-.72c-.173-.32-.26-.697-.26-1.13v-1.46c0-.44.087-.817.26-1.13.18-.313.43-.553.75-.72.32-.167.7-.25 1.14-.25.44 0 .82.083 1.14.25.32.167.567.407.74.72.18.313.27.687.27 1.12v1.47c0 .433-.09.81-.27 1.13-.173.313-.42.553-.74.72-.32.167-.7.25-1.14.25zm0-.8c.393 0 .7-.11.92-.33.22-.22.33-.543.33-.97v-1.46c0-.427-.11-.75-.33-.97-.22-.22-.527-.33-.92-.33-.387 0-.693.11-.92.33-.22.22-.33.543-.33.97v1.46c0 .427.11.75.33.97.227.22.533.33.92.33zm3.936.72v-5.5h4.12v5.5h-.9v-4.68h-2.32V123h-.9zm8.056.08c-.44 0-.82-.083-1.14-.25a1.82 1.82 0 01-.75-.72c-.173-.32-.26-.697-.26-1.13v-1.46c0-.44.087-.817.26-1.13.18-.313.43-.553.75-.72.32-.167.7-.25 1.14-.25.44 0 .82.083 1.14.25.32.167.567.407.74.72.18.313.27.687.27 1.12v1.47c0 .433-.09.81-.27 1.13-.173.313-.42.553-.74.72-.32.167-.7.25-1.14.25zm0-.8c.394 0 .7-.11.92-.33.22-.22.33-.543.33-.97v-1.46c0-.427-.11-.75-.33-.97-.22-.22-.526-.33-.92-.33-.386 0-.693.11-.92.33-.22.22-.33.543-.33.97v1.46c0 .427.11.75.33.97.227.22.534.33.92.33zm3.246.79v-.84h.18c.307 0 .52-.12.64-.36.127-.24.194-.67.2-1.29l.06-3.08h3.73v5.5h-.9v-4.68h-1.94l-.05 2.3c-.013.58-.08 1.05-.2 1.41-.113.36-.293.623-.54.79-.24.167-.556.25-.95.25h-.23zm6.686-.07v-5.5h.9v2.29h2.32v-2.29h.9v5.5h-.9v-2.39h-2.32V123h-.9zm5.997 0v-5.5h.86v3c0 .193-.007.397-.02.61a8.72 8.72 0 01-.04.61 6.67 6.67 0 01-.05.48l2.22-4.7h1.15v5.5h-.86v-3c0-.193.003-.397.01-.61.013-.213.03-.417.05-.61.02-.2.036-.363.05-.49l-2.22 4.71h-1.15zm7.606 0v-4.71h-2v-.79h4.9v.79h-2V123h-.9zm6.446.1a2.4 2.4 0 01-1.14-.26 1.881 1.881 0 01-.75-.73c-.174-.32-.26-.69-.26-1.11v-1.5c0-.427.086-.797.26-1.11.18-.313.43-.557.75-.73a2.4 2.4 0 011.14-.26c.433 0 .81.087 1.13.26.326.173.576.417.75.73.18.313.27.683.27 1.11v.97h-3.42v.53c0 .433.11.767.33 1 .22.227.533.34.94.34.346 0 .626-.06.84-.18a.795.795 0 00.39-.56h.9c-.06.46-.287.827-.68 1.1-.387.267-.87.4-1.45.4zm1.27-3.23v-.37c0-.433-.11-.767-.33-1-.214-.233-.527-.35-.94-.35-.407 0-.72.117-.94.35-.22.233-.33.567-.33 1v.29h2.61l-.07.08zm1.976 3.2v-.84h.18c.306 0 .52-.12.64-.36.127-.24.193-.67.2-1.29l.06-3.08h3.73v5.5h-.9v-4.68h-1.94l-.05 2.3c-.014.58-.08 1.05-.2 1.41-.114.36-.294.623-.54.79-.24.167-.557.25-.95.25h-.23zm6.726-.07v-5.5h.9v2.02h1.62c.62 0 1.107.157 1.46.47.36.307.54.73.54 1.27 0 .533-.18.957-.54 1.27-.36.313-.847.47-1.46.47h-2.52zm.9-.82h1.62c.347 0 .61-.077.79-.23.187-.16.28-.39.28-.69 0-.3-.093-.527-.28-.68-.18-.16-.443-.24-.79-.24h-1.62v1.84zm5.056.82v-5.5h.9v2.29h2.32v-2.29h.9v5.5h-.9v-2.39h-2.32V123h-.9zm5.706 0v-5.5h.84v2.02h.45c.594 0 1.06.157 1.4.47.347.307.52.73.52 1.27s-.173.967-.52 1.28c-.34.307-.806.46-1.4.46h-1.29zm.84-.72h.45c.353 0 .627-.09.82-.27.2-.18.3-.43.3-.75s-.1-.57-.3-.75c-.193-.18-.466-.27-.82-.27h-.45v2.04zm3.02.72v-5.5h.84v5.5h-.84zm1.986 0l1.95-2.83-1.83-2.67h1.06l1.09 1.7c.047.073.09.153.13.24.047.087.084.157.11.21.02-.053.05-.123.09-.21a3.69 3.69 0 01.14-.24l1.1-1.7h1.05l-1.83 2.68 1.94 2.82h-1.06l-1.18-1.8a2.822 2.822 0 01-.14-.25 2.05 2.05 0 00-.11-.24c-.026.06-.066.14-.12.24a1.758 1.758 0 01-.15.25L86.5 123h-1.05zM7.94 136v-5.5h2.38c.573 0 1.017.13 1.33.39.313.253.47.61.47 1.07 0 .38-.13.687-.39.92-.26.227-.603.34-1.03.34v-.08c.467 0 .84.117 1.12.35.287.233.43.547.43.94 0 .493-.167.88-.5 1.16-.333.273-.8.41-1.4.41H7.94zm.88-.79h1.53c.32 0 .567-.07.74-.21.18-.14.27-.337.27-.59 0-.26-.09-.46-.27-.6-.173-.14-.42-.21-.74-.21H8.82v1.61zm0-2.39h1.5c.28 0 .5-.067.66-.2.167-.133.25-.32.25-.56 0-.24-.08-.427-.24-.56-.16-.14-.383-.21-.67-.21h-1.5v1.53zm4.426 3.25v-.84h.18c.307 0 .52-.12.64-.36.127-.24.193-.67.2-1.29l.06-3.08h3.73v5.5h-.9v-4.68h-1.94l-.05 2.3c-.013.58-.08 1.05-.2 1.41-.113.36-.293.623-.54.79-.24.167-.557.25-.95.25h-.23zm8.746.01c-.44 0-.82-.083-1.14-.25a1.82 1.82 0 01-.75-.72c-.173-.32-.26-.697-.26-1.13v-1.46c0-.44.087-.817.26-1.13.18-.313.43-.553.75-.72.32-.167.7-.25 1.14-.25.44 0 .82.083 1.14.25.32.167.567.407.74.72.18.313.27.687.27 1.12v1.47c0 .433-.09.81-.27 1.13-.173.313-.42.553-.74.72-.32.167-.7.25-1.14.25zm0-.8c.393 0 .7-.11.92-.33.22-.22.33-.543.33-.97v-1.46c0-.427-.11-.75-.33-.97-.22-.22-.526-.33-.92-.33-.387 0-.693.11-.92.33-.22.22-.33.543-.33.97v1.46c0 .427.11.75.33.97.227.22.534.33.92.33zm3.176.72l1.2-2.82-1.12-2.68h.87l.96 2.4h.53v-2.4h.76v2.4h.51l.99-2.4h.86l-1.12 2.65 1.2 2.85h-.9l-1-2.5h-.54v2.5h-.76v-2.5h-.54l-1.01 2.5h-.89zm8.816.1a2.4 2.4 0 01-1.14-.26 1.881 1.881 0 01-.75-.73c-.173-.32-.26-.69-.26-1.11v-1.5c0-.427.087-.797.26-1.11.18-.313.43-.557.75-.73a2.4 2.4 0 011.14-.26c.434 0 .81.087 1.13.26.327.173.577.417.75.73.18.313.27.683.27 1.11v.97h-3.42v.53c0 .433.11.767.33 1 .22.227.534.34.94.34.347 0 .627-.06.84-.18a.795.795 0 00.39-.56h.9a1.53 1.53 0 01-.68 1.1c-.386.267-.87.4-1.45.4zm1.27-3.23v-.37c0-.433-.11-.767-.33-1-.213-.233-.526-.35-.94-.35-.406 0-.72.117-.94.35-.22.233-.33.567-.33 1v.29h2.61l-.07.08zM37.92 136v-5.5h.9v2.29h2.32v-2.29h.9v5.5h-.9v-2.39h-2.32V136h-.9zm5.997 0v-5.5h.86v3c0 .193-.007.397-.02.61a8.72 8.72 0 01-.04.61 6.67 6.67 0 01-.05.48l2.22-4.7h1.15v5.5h-.86v-3c0-.193.003-.397.01-.61.013-.213.03-.417.05-.61.02-.2.036-.363.05-.49l-2.22 4.71h-1.15zm5.996 0v-5.5h.86v3c0 .193-.007.397-.02.61a8.72 8.72 0 01-.04.61 6.67 6.67 0 01-.05.48l2.22-4.7h1.15v5.5h-.86v-3c0-.193.003-.397.01-.61.013-.213.03-.417.05-.61.02-.2.036-.363.05-.49l-2.22 4.71h-1.15zm2.1-6.4c-.48 0-.867-.133-1.16-.4-.294-.267-.44-.617-.44-1.05h.71c0 .26.08.47.24.63.16.16.373.24.64.24.273 0 .49-.08.65-.24.166-.16.25-.37.25-.63h.71c0 .433-.147.783-.44 1.05-.294.267-.68.4-1.16.4zm9.892 6.4v-5.5h2.38c.573 0 1.017.13 1.33.39.313.253.47.61.47 1.07 0 .38-.13.687-.39.92-.26.227-.603.34-1.03.34v-.08c.466 0 .84.117 1.12.35.287.233.43.547.43.94 0 .493-.167.88-.5 1.16-.334.273-.8.41-1.4.41h-2.41zm.88-.79h1.53c.32 0 .567-.07.74-.21.18-.14.27-.337.27-.59 0-.26-.09-.46-.27-.6-.174-.14-.42-.21-.74-.21h-1.53v1.61zm0-2.39h1.5c.28 0 .5-.067.66-.2.167-.133.25-.32.25-.56 0-.24-.08-.427-.24-.56-.16-.14-.383-.21-.67-.21h-1.5v1.53zM73.897 136v-5.5h4.12v5.5h-.9v-4.68h-2.32V136h-.9zm8.056.1c-.433 0-.813-.087-1.14-.26a1.881 1.881 0 01-.75-.73c-.173-.32-.26-.69-.26-1.11v-1.5c0-.427.087-.797.26-1.11.18-.313.43-.557.75-.73.327-.173.707-.26 1.14-.26.433 0 .81.087 1.13.26a1.8 1.8 0 01.75.73c.18.313.27.683.27 1.11v.97h-3.42v.53c0 .433.11.767.33 1 .22.227.533.34.94.34.347 0 .627-.06.84-.18a.794.794 0 00.39-.56h.9c-.06.46-.287.827-.68 1.1-.387.267-.87.4-1.45.4zm1.27-3.23v-.37c0-.433-.11-.767-.33-1-.213-.233-.526-.35-.94-.35-.407 0-.72.117-.94.35-.22.233-.33.567-.33 1v.29h2.61l-.07.08zm2.646 4.93v-7.3h.9v1.05h.18l-.18.21c0-.42.137-.75.41-.99.28-.247.647-.37 1.1-.37.554 0 .994.183 1.32.55.334.36.5.857.5 1.49v1.61c0 .42-.076.783-.23 1.09a1.634 1.634 0 01-.63.71c-.266.167-.586.25-.96.25-.446 0-.81-.123-1.09-.37s-.42-.577-.42-.99l.18.21h-.2l.02 1.25v1.6h-.9zm2.11-2.48c.38 0 .677-.113.89-.34.22-.227.33-.553.33-.98v-1.5c0-.427-.11-.753-.33-.98-.213-.227-.51-.34-.89-.34-.366 0-.66.117-.88.35-.22.233-.33.557-.33.97v1.5c0 .413.11.737.33.97.22.233.514.35.88.35zm5.986.78a2.56 2.56 0 01-1.16-.25 1.805 1.805 0 01-.76-.72c-.18-.32-.27-.697-.27-1.13v-1.5c0-.44.09-.817.27-1.13.18-.313.434-.553.76-.72a2.56 2.56 0 011.16-.25c.634 0 1.144.17 1.53.51.387.34.59.803.61 1.39h-.9c-.02-.353-.14-.623-.36-.81-.213-.193-.506-.29-.88-.29-.393 0-.706.113-.94.34-.233.22-.35.537-.35.95V134c0 .413.117.733.35.96.234.227.547.34.94.34.374 0 .667-.097.88-.29.22-.193.34-.463.36-.81h.9c-.02.587-.223 1.05-.61 1.39-.386.34-.896.51-1.53.51zm5.976-.02c-.44 0-.82-.083-1.14-.25a1.82 1.82 0 01-.75-.72c-.173-.32-.26-.697-.26-1.13v-1.46c0-.44.087-.817.26-1.13.18-.313.43-.553.75-.72.32-.167.7-.25 1.14-.25.44 0 .82.083 1.14.25.32.167.567.407.74.72.18.313.27.687.27 1.12v1.47c0 .433-.09.81-.27 1.13-.173.313-.42.553-.74.72-.32.167-.7.25-1.14.25zm0-.8c.394 0 .7-.11.92-.33.22-.22.33-.543.33-.97v-1.46c0-.427-.11-.75-.33-.97-.22-.22-.526-.33-.92-.33-.386 0-.693.11-.92.33-.22.22-.33.543-.33.97v1.46c0 .427.11.75.33.97.227.22.534.33.92.33zm3.937.72v-5.5h.9v2.29h2.32v-2.29h.9v5.5h-.9v-2.39h-2.32V136h-.9zm7.576.1c-.58 0-1.037-.147-1.37-.44-.334-.3-.5-.703-.5-1.21 0-.513.166-.917.5-1.21.333-.293.783-.44 1.35-.44h1.7v-.55c0-.34-.104-.6-.31-.78-.2-.187-.487-.28-.86-.28-.327 0-.6.07-.82.21a.746.746 0 00-.38.55h-.9c.06-.473.283-.85.67-1.13.386-.28.87-.42 1.45-.42.633 0 1.133.163 1.5.49.366.327.55.77.55 1.33V136h-.88v-1.05h-.15l.15-.15c0 .4-.157.717-.47.95-.307.233-.717.35-1.23.35zm.22-.71c.426 0 .776-.107 1.05-.32a.996.996 0 00.41-.82v-.78h-1.68c-.3 0-.537.083-.71.25-.174.167-.26.393-.26.68 0 .307.103.55.31.73.213.173.506.26.88.26zm3.506.68v-.84h.18c.306 0 .52-.12.64-.36.126-.24.193-.67.2-1.29l.06-3.08h3.73v5.5h-.9v-4.68h-1.94l-.05 2.3c-.014.58-.08 1.05-.2 1.41-.114.36-.294.623-.54.79-.24.167-.557.25-.95.25h-.23z" fill="#000"/><path d="M26.993 30.1c-.486 0-.913-.09-1.28-.27a2.144 2.144 0 01-.86-.77c-.2-.333-.3-.72-.3-1.16h1.5c0 .287.08.51.24.67.167.153.4.23.7.23.3 0 .53-.077.69-.23.167-.16.25-.383.25-.67V27h-2.05v-1.35h2.05v-.85c0-.293-.083-.517-.25-.67-.16-.153-.39-.23-.69-.23-.3 0-.533.077-.7.23-.16.153-.24.377-.24.67h-1.5c0-.447.1-.833.3-1.16.207-.327.493-.58.86-.76.367-.187.793-.28 1.28-.28.494 0 .92.093 1.28.28.367.18.65.433.85.76.207.327.31.713.31 1.16v3.1c0 .44-.103.827-.31 1.16a2.07 2.07 0 01-.85.77c-.36.18-.787.27-1.28.27zm3.726-.1v-5.5h1.5v2.08h.74l1.15-2.08h1.67l-1.53 2.69L35.81 30h-1.7l-1.16-2.16h-.73V30h-1.5zm8.306.1c-.486 0-.91-.09-1.27-.27a2.087 2.087 0 01-.84-.77 2.27 2.27 0 01-.29-1.16v-1.3c0-.44.097-.823.29-1.15a2 2 0 01.84-.77c.36-.187.784-.28 1.27-.28.494 0 .917.093 1.27.28.36.18.637.437.83.77.2.327.3.71.3 1.15v1.3c0 .44-.1.827-.3 1.16-.193.327-.47.583-.83.77-.353.18-.776.27-1.27.27zm0-1.3c.294 0 .517-.077.67-.23.154-.16.23-.383.23-.67v-1.3c0-.293-.076-.517-.23-.67-.153-.153-.376-.23-.67-.23-.286 0-.51.077-.67.23-.153.153-.23.377-.23.67v1.3c0 .287.077.51.23.67.16.153.384.23.67.23zm3.657 1.2v-5.5h1.5v2.01h1.68V24.5h1.5V30h-1.5v-2.09h-1.68V30h-1.5zm8.336.1c-.487 0-.91-.09-1.27-.27a2.087 2.087 0 01-.84-.77 2.27 2.27 0 01-.29-1.16v-1.3c0-.44.096-.823.29-1.15a2 2 0 01.84-.77c.36-.187.783-.28 1.27-.28.493 0 .916.093 1.27.28.36.18.636.437.83.77.2.327.3.71.3 1.15v1.3c0 .44-.1.827-.3 1.16-.194.327-.47.583-.83.77-.354.18-.777.27-1.27.27zm0-1.3c.293 0 .516-.077.67-.23.153-.16.23-.383.23-.67v-1.3c0-.293-.077-.517-.23-.67-.154-.153-.377-.23-.67-.23-.287 0-.51.077-.67.23-.154.153-.23.377-.23.67v1.3c0 .287.076.51.23.67.16.153.383.23.67.23zm3.416 1.2v-5.5h1.69l.65 2.05c.073.233.13.447.17.64.046.187.073.327.08.42.013-.093.036-.233.07-.42.04-.193.096-.407.17-.64l.64-2.05h1.69V30h-1.37v-1c0-.22.003-.467.01-.74l.04-.86c.02-.3.036-.587.05-.86.02-.28.04-.527.06-.74l-.73 2.65h-1.27l-.77-2.65c.026.273.053.6.08.98.033.38.06.767.08 1.16.02.387.03.74.03 1.06v1h-1.37zm6.236 0v-5.5h1.32V27c0 .167-.01.377-.03.63-.02.247-.047.497-.08.75-.027.253-.057.477-.09.67l1.74-4.55h1.82V30h-1.32v-2.5c0-.173.01-.37.03-.59.02-.227.043-.453.07-.68.026-.227.053-.42.08-.58L62.49 30h-1.82zm5.836 0l1.2-1.93a1.724 1.724 0 01-.83-.63 1.72 1.72 0 01-.3-1.01c0-.607.203-1.08.61-1.42.406-.34.97-.51 1.69-.51h2.47V30h-1.49v-1.74h-.66l-1 1.74h-1.69zm2.46-2.88h.9v-1.43h-.9c-.28 0-.5.063-.66.19a.638.638 0 00-.24.53c0 .227.076.403.23.53.16.12.383.18.67.18zm9.692 4.68v-7.3h1.45v1.05h.35l-.35.35c0-.473.13-.84.39-1.1.26-.267.617-.4 1.07-.4.553 0 .997.197 1.33.59.333.387.5.907.5 1.56v1.4c0 .433-.077.813-.23 1.14-.147.32-.357.57-.63.75-.273.173-.597.26-.97.26-.453 0-.81-.13-1.07-.39-.26-.267-.39-.637-.39-1.11l.35.35h-.35l.05 1.35v1.5h-1.5zm2.37-3c.28 0 .493-.077.64-.23.153-.16.23-.383.23-.67v-1.3c0-.293-.077-.517-.23-.67-.147-.153-.36-.23-.64-.23-.273 0-.487.08-.64.24-.153.153-.23.373-.23.66v1.3c0 .287.077.51.23.67.153.153.367.23.64.23zm5.976 1.3c-.487 0-.913-.09-1.28-.27a2.087 2.087 0 01-.84-.77 2.27 2.27 0 01-.29-1.16v-1.3c0-.44.097-.823.29-1.15a2 2 0 01.84-.77c.367-.187.793-.28 1.28-.28s.907.093 1.26.28c.36.18.637.437.83.77.2.327.3.71.3 1.15v1h-3.37v.3c0 .347.084.61.25.79.167.173.417.26.75.26.233 0 .42-.04.56-.12a.581.581 0 00.29-.33h1.47c-.12.48-.393.867-.82 1.16-.42.293-.927.44-1.52.44zm.96-3.27v-.25c0-.34-.08-.6-.24-.78-.153-.18-.393-.27-.72-.27-.327 0-.573.093-.74.28-.16.187-.24.45-.24.79v.15l2.04-.02-.1.1zm5.056 3.27c-.486 0-.913-.09-1.28-.27a2.073 2.073 0 01-.85-.77c-.2-.333-.3-.72-.3-1.16v-1.3c0-.447.1-.833.3-1.16.2-.327.484-.58.85-.76.367-.187.794-.28 1.28-.28.727 0 1.307.183 1.74.55.434.367.664.867.69 1.5h-1.5a.754.754 0 00-.28-.55c-.16-.133-.376-.2-.65-.2-.3 0-.53.077-.69.23-.16.153-.24.377-.24.67v1.3c0 .287.08.51.24.67.16.153.39.23.69.23.274 0 .49-.063.65-.19a.763.763 0 00.28-.56h1.5c-.026.633-.256 1.133-.69 1.5-.433.367-1.013.55-1.74.55zm4.536 1.7l.75-2.07-2.06-5.23h1.63l.83 2.4c.06.18.12.4.18.66.067.253.117.46.15.62.034-.16.08-.367.14-.62.067-.26.13-.48.19-.66l.8-2.4h1.56l-2.6 7.3h-1.57zm5.086 0v-7.3h1.45v1.05h.35l-.35.35c0-.473.13-.84.39-1.1.26-.267.617-.4 1.07-.4.554 0 .997.197 1.33.59.334.387.5.907.5 1.56v1.4c0 .433-.076.813-.23 1.14-.146.32-.356.57-.63.75a1.77 1.77 0 01-.97.26c-.453 0-.81-.13-1.07-.39-.26-.267-.39-.637-.39-1.11l.35.35h-.35l.05 1.35v1.5h-1.5zm2.37-3c.28 0 .494-.077.64-.23.154-.16.23-.383.23-.67v-1.3c0-.293-.076-.517-.23-.67-.146-.153-.36-.23-.64-.23-.273 0-.486.08-.64.24-.153.153-.23.373-.23.66v1.3c0 .287.077.51.23.67.154.153.367.23.64.23zm5.997 1.3c-.487 0-.914-.09-1.28-.27a2.07 2.07 0 01-.85-.77c-.2-.333-.3-.72-.3-1.16v-1.3c0-.447.1-.833.3-1.16.2-.327.483-.58.85-.76.366-.187.793-.28 1.28-.28.726 0 1.306.183 1.74.55.433.367.663.867.69 1.5h-1.5a.756.756 0 00-.28-.55c-.16-.133-.377-.2-.65-.2-.3 0-.53.077-.69.23-.16.153-.24.377-.24.67v1.3c0 .287.08.51.24.67.16.153.39.23.69.23.273 0 .49-.063.65-.19a.765.765 0 00.28-.56h1.5c-.027.633-.257 1.133-.69 1.5-.434.367-1.014.55-1.74.55zm5.966 0c-.487 0-.91-.09-1.27-.27a2.087 2.087 0 01-.84-.77 2.263 2.263 0 01-.29-1.16v-1.3c0-.44.096-.823.29-1.15a2 2 0 01.84-.77c.36-.187.783-.28 1.27-.28.493 0 .916.093 1.27.28.36.18.636.437.83.77.2.327.3.71.3 1.15v1.3c0 .44-.1.827-.3 1.16-.194.327-.47.583-.83.77-.354.18-.777.27-1.27.27zm0-1.3c.293 0 .516-.077.67-.23.153-.16.23-.383.23-.67v-1.3c0-.293-.077-.517-.23-.67-.154-.153-.377-.23-.67-.23-.287 0-.51.077-.67.23-.154.153-.23.377-.23.67v1.3c0 .287.076.51.23.67.16.153.383.23.67.23zm3.646 1.2v-5.5h2.49c.673 0 1.206.137 1.6.41.4.267.6.63.6 1.09 0 .367-.15.663-.45.89-.3.22-.697.33-1.19.33v-.1c.54 0 .97.12 1.29.36.326.24.49.557.49.95 0 .487-.2.87-.6 1.15-.394.28-.93.42-1.61.42h-2.62zm1.47-1.06h1.08c.246 0 .443-.057.59-.17a.56.56 0 00.23-.46.58.58 0 00-.23-.48c-.147-.12-.344-.18-.59-.18h-1.08v1.29zm0-2.17h1.03c.226 0 .406-.053.54-.16.133-.113.2-.26.2-.44a.562.562 0 00-.2-.45c-.134-.113-.314-.17-.54-.17h-1.03v1.22z" fill="#fff"/><defs><linearGradient id="paint0_linear_2004_113" x1="0" y1="90.013" x2="223.91" y2="90.013" gradientUnits="userSpaceOnUse"><stop stop-color="#F1FFF7"/><stop offset="1" stop-color="#546A65"/></linearGradient><linearGradient id="paint1_linear_2004_113" x1="11.785" y1="10.802" x2="188.944" y2="149.868" gradientUnits="userSpaceOnUse"><stop stop-color="#475E59" stop-opacity=".7"/><stop offset="1" stop-color="#fff" stop-opacity=".7"/></linearGradient><linearGradient id="paint2_linear_2004_113" x1="0" y1="90.013" x2="223.91" y2="90.013" gradientUnits="userSpaceOnUse"><stop stop-color="#F1FFF7"/><stop offset="1" stop-color="#546A65"/></linearGradient><linearGradient id="paint3_linear_2004_113" x1="11.785" y1="10.802" x2="188.944" y2="149.868" gradientUnits="userSpaceOnUse"><stop stop-color="#475E59" stop-opacity=".7"/><stop offset="1" stop-color="#fff" stop-opacity=".7"/></linearGradient><linearGradient id="paint4_linear_2004_113" x1="0" y1="74.157" x2="223.615" y2="74.157" gradientUnits="userSpaceOnUse"><stop stop-color="#F1FFF7"/><stop offset="1" stop-color="#546A65"/></linearGradient><linearGradient id="paint5_linear_2004_113" x1="11.769" y1="8.899" x2="161.835" y2="151.696" gradientUnits="userSpaceOnUse"><stop stop-color="#475E59" stop-opacity=".7"/><stop offset="1" stop-color="#fff" stop-opacity=".7"/></linearGradient><filter id="filter0_f_2004_113" x="-18.273" y="161.227" width="116" height="79.796" filterUnits="userSpaceOnUse" color-interpolation-filters="sRGB"><feFlood flood-opacity="0" result="BackgroundImageFix"/><feBlend in="SourceGraphic" in2="BackgroundImageFix" result="shape"/><feGaussianBlur stdDeviation="2" result="effect1_foregroundBlur_2004_113"/></filter></defs></svg>