<svg width="180" height="179" fill="none" xmlns="http://www.w3.org/2000/svg"><g filter="url(#filter0_d_2004_47)"><rect x="4" width="171.961" height="171" rx="16.011" fill="#AB9F85"/></g><mask id="a" style="mask-type:alpha" maskUnits="userSpaceOnUse" x="4" y="0" width="172" height="43"><path fill="#C9D9CD" d="M4 0h171.961v42.27H4z"/></mask><g mask="url(#a)"><rect x="4" y="-1.69" width="171.961" height="118.355" rx="16.011" fill="#F5ECDB"/></g><path d="M14.51 61.034V54.02h3.958v7.013h-.865v-6.225h-2.229v6.225h-.865zm5.67 1.729V55.75h.864v1.009h.173l-.172.201c0-.403.13-.72.393-.95.27-.238.622-.356 1.057-.356.532 0 .954.176 1.268.528.32.346.48.823.48 1.432v1.546c0 .404-.073.753-.22 1.048a1.57 1.57 0 01-.606.682c-.256.16-.563.24-.922.24-.429 0-.778-.119-1.047-.356-.269-.237-.404-.554-.404-.95l.173.201h-.192l.02 1.2v1.538h-.865zm2.027-2.383c.365 0 .65-.108.855-.326.211-.218.317-.532.317-.942v-1.44c0-.41-.106-.724-.317-.942-.205-.218-.49-.327-.855-.327-.352 0-.634.112-.846.337-.21.224-.317.534-.317.931v1.441c0 .397.106.708.317.932.212.224.494.336.846.336zm5.66.73c-.422 0-.787-.08-1.094-.24a1.744 1.744 0 01-.72-.691c-.167-.308-.25-.67-.25-1.086V57.69c0-.422.083-.784.25-1.085.172-.301.412-.532.72-.692.307-.16.672-.24 1.095-.24.423 0 .788.08 1.095.24.307.16.544.391.71.692.174.301.26.66.26 1.076v1.412c0 .416-.086.778-.26 1.086a1.683 1.683 0 01-.71.691c-.308.16-.672.24-1.095.24zm0-.768c.379 0 .673-.106.885-.317.21-.211.317-.522.317-.932V57.69c0-.41-.106-.72-.317-.931-.212-.212-.506-.317-.884-.317-.372 0-.666.105-.884.317-.211.211-.317.522-.317.931v1.403c0 .41.106.72.317.932.218.211.512.317.884.317zm3.711.692V55.75h2.287c.55 0 .977.125 1.277.375.302.243.452.586.452 1.028 0 .365-.125.66-.375.883-.25.218-.58.327-.99.327v-.077c.45 0 .808.112 1.077.336.275.225.413.526.413.903 0 .474-.16.846-.48 1.115-.32.262-.769.394-1.345.394h-2.316zm.846-.76h1.47c.307 0 .544-.066.71-.201.174-.135.26-.323.26-.567 0-.25-.086-.442-.26-.576-.166-.135-.403-.202-.71-.202h-1.47v1.547zm0-2.295h1.44c.27 0 .481-.064.635-.192a.652.652 0 00.24-.538c0-.23-.077-.41-.23-.538-.154-.135-.369-.202-.644-.202h-1.441v1.47zm6.823 3.15c-.416 0-.781-.082-1.095-.249a1.807 1.807 0 01-.72-.701 2.204 2.204 0 01-.25-1.067v-1.44c0-.41.083-.766.25-1.067.172-.301.412-.535.72-.701.314-.167.679-.25 1.095-.25.416 0 .778.083 1.086.25.314.166.554.4.72.701.173.301.26.656.26 1.066v.932h-3.286v.51c0 .416.106.736.317.96.211.218.512.327.903.327.333 0 .602-.058.807-.173a.763.763 0 00.375-.538h.864a1.472 1.472 0 01-.653 1.056c-.371.257-.836.385-1.393.385zm1.22-3.102v-.356c0-.416-.105-.736-.317-.96-.205-.224-.506-.337-.903-.337-.39 0-.692.112-.903.337-.211.224-.317.544-.317.96v.279h2.507l-.067.077zm1.828 3.074v-.807h.173c.294 0 .5-.115.615-.346.121-.23.185-.644.192-1.24l.057-2.958h3.584v5.284h-.865v-4.496h-1.864l-.048 2.21c-.012.556-.077 1.008-.192 1.354-.109.346-.282.599-.519.759-.23.16-.534.24-.912.24h-.221zm6.352-.067V55.75h.827v2.882c0 .186-.007.381-.02.586-.006.205-.019.4-.038.586a6.1 6.1 0 01-.048.461L51.5 55.75h1.104v5.284h-.826v-2.882c0-.186.003-.381.01-.586.013-.205.029-.4.048-.586l.048-.471-2.133 4.525h-1.105zm11.36 0v-.884l2.143-2.277c.365-.39.63-.736.797-1.037.167-.308.25-.602.25-.884 0-.39-.109-.698-.327-.922-.211-.225-.502-.337-.874-.337-.41 0-.733.116-.97.346-.23.23-.346.548-.346.951h-.865c.013-.422.11-.788.289-1.095.185-.314.438-.554.758-.72a2.46 2.46 0 011.134-.25c.423 0 .788.083 1.095.25.314.16.554.39.72.691.167.301.25.66.25 1.076 0 .397-.105.791-.317 1.182-.21.39-.557.835-1.037 1.335l-1.73 1.787h3.2v.788h-4.17zm7.688.096c-.429 0-.803-.084-1.124-.25a1.838 1.838 0 01-.73-.72 2.232 2.232 0 01-.26-1.096V55.99c0-.422.087-.788.26-1.095.173-.307.417-.544.73-.71.32-.174.695-.26 1.124-.26.436 0 .81.086 1.124.26.314.166.557.403.73.71.173.307.26.672.26 1.095v3.074c0 .417-.087.782-.26 1.096a1.82 1.82 0 01-.74.72c-.313.166-.684.25-1.114.25zm0-.74c.385 0 .692-.122.923-.365.237-.25.355-.57.355-.96V55.99c0-.39-.118-.708-.355-.95-.231-.25-.538-.376-.923-.376-.384 0-.694.125-.931.375-.231.243-.346.56-.346.951v3.074c0 .391.115.711.345.961.237.243.548.365.932.365zm0-2.296a.572.572 0 01-.422-.163.605.605 0 01-.154-.433c0-.172.051-.31.154-.413a.572.572 0 01.422-.163.54.54 0 01.414.163.54.54 0 01.163.413c0 .18-.055.324-.163.433a.54.54 0 01-.414.163zm9.747 2.94V55.75h3.794v.788h-2.93v4.496h-.864zm4.68.067v-.807h.173c.295 0 .5-.115.615-.346.122-.23.186-.644.192-1.24l.058-2.958h3.583v5.284h-.864v-4.496h-1.864l-.048 2.21c-.013.556-.077 1.008-.192 1.354-.109.346-.282.599-.519.759-.23.16-.535.24-.913.24h-.22zm7.16 1.662l.778-2.056-1.96-4.957h.961l1.23 3.266c.044.11.086.24.125.394l.096.375c.025-.103.057-.227.096-.375.038-.154.076-.285.115-.394l1.153-3.266h.932l-2.604 7.013h-.922zm6.862-1.633c-.622 0-1.115-.183-1.48-.548-.359-.371-.538-.877-.538-1.518v-2.401c0-.846.212-1.496.634-1.95.423-.462 1.028-.692 1.816-.692h1.345v.864h-1.345c-.519 0-.913.154-1.182.462-.269.3-.403.74-.403 1.316v.624h.134l-.134.192c.006-.378.134-.672.384-.884.25-.211.59-.317 1.018-.317.558 0 .99.18 1.297.538.314.359.471.852.471 1.48v.768c0 .43-.08.798-.24 1.105-.16.308-.39.545-.692.711-.3.166-.663.25-1.085.25zm0-.769c.371 0 .656-.112.855-.336.198-.224.297-.544.297-.96v-.77c0-.416-.099-.736-.297-.96-.199-.224-.484-.336-.855-.336-.372 0-.657.112-.855.336-.199.218-.298.538-.298.96v.77c0 .416.1.736.298.96.198.224.483.336.855.336zm3.71.673V55.75h.826v2.882c0 .186-.006.381-.019.586a8.08 8.08 0 01-.038.586c-.013.18-.029.333-.048.461l2.132-4.515h1.105v5.284h-.826v-2.882c0-.186.003-.381.01-.586.013-.205.029-.4.048-.586l.048-.471-2.133 4.525h-1.105zm5.69 0V55.75h.865v2.2h2.228v-2.2h.865v5.284h-.865v-2.296h-2.228v2.296h-.865zm5.69 0V55.75h.864v2.2h2.229v-2.2h.865v5.284h-.865v-2.296h-2.229v2.296h-.864zm5.411 0V55.75h.807v1.94h.432c.57 0 1.018.151 1.345.452.333.295.499.701.499 1.22s-.166.929-.499 1.23c-.327.294-.775.442-1.345.442h-1.239zm.807-.692h.432c.339 0 .602-.087.788-.26.192-.172.288-.413.288-.72s-.096-.547-.288-.72c-.186-.173-.449-.26-.788-.26h-.432v1.96zm2.901.692V55.75h.807v5.284h-.807zm1.837 0l1.874-2.719-1.758-2.565h1.018l1.047 1.633c.045.07.086.147.125.23l.106.202c.019-.05.048-.118.086-.201.045-.084.09-.16.134-.23l1.057-1.634h1.009l-1.758 2.575 1.864 2.709h-1.019l-1.133-1.73c-.045-.07-.09-.15-.135-.24a2.024 2.024 0 00-.105-.23 4.299 4.299 0 01-.116.23c-.045.09-.093.17-.144.24l-1.143 1.73h-1.009zm-107.68 19V74.75h.826v2.882c0 .186-.007.381-.02.586-.006.205-.019.4-.038.586a6.1 6.1 0 01-.048.461l2.133-4.515h1.105v5.284h-.827v-2.882c0-.186.004-.381.01-.586.013-.205.029-.4.048-.586l.048-.471-2.133 4.525H14.51zm5.69 0V74.75h.864v2.2h2.229v-2.2h.864v5.284h-.864v-2.296h-2.23v2.296H20.2zm7.236 0v-4.525h-1.922v-.759h4.707v.759h-1.92v4.525h-.865zm6.121.096c-.416 0-.78-.084-1.095-.25a1.807 1.807 0 01-.72-.701 2.203 2.203 0 01-.25-1.067v-1.44c0-.41.083-.766.25-1.067.173-.301.413-.535.72-.701a2.3 2.3 0 011.095-.25c.417 0 .779.083 1.086.25.314.166.554.4.72.701.173.301.26.656.26 1.066v.932h-3.286v.51c0 .416.106.736.317.96.212.218.513.327.903.327.334 0 .602-.058.807-.173a.764.764 0 00.375-.538h.865a1.472 1.472 0 01-.654 1.057c-.371.256-.835.384-1.393.384zm1.22-3.103v-.356c0-.416-.105-.736-.316-.96-.206-.224-.506-.337-.904-.337-.39 0-.691.113-.903.337-.211.224-.317.544-.317.96v.279h2.508l-.067.077zm2.472 4.736V74.75h.864v1.009h.173l-.172.201c0-.403.13-.72.393-.95.27-.238.622-.356 1.057-.356.532 0 .954.176 1.268.528.32.346.48.823.48 1.432v1.546c0 .404-.073.753-.22 1.047a1.57 1.57 0 01-.606.683c-.256.16-.563.24-.922.24-.429 0-.778-.119-1.047-.356-.269-.237-.404-.554-.404-.95l.173.201h-.192l.02 1.2v1.538h-.865zm2.027-2.383c.365 0 .65-.108.855-.326.211-.218.317-.532.317-.942v-1.44c0-.41-.106-.724-.317-.942-.205-.218-.49-.327-.855-.327-.352 0-.634.112-.846.337-.21.224-.316.534-.316.931v1.441c0 .397.105.708.317.932.21.224.493.336.845.336zm3.682.654V74.75h2.286c.55 0 .977.125 1.278.375.3.243.451.586.451 1.028 0 .365-.124.66-.374.883-.25.218-.58.327-.99.327v-.077c.448 0 .807.112 1.076.336.276.225.413.526.413.903 0 .474-.16.846-.48 1.115-.32.262-.769.394-1.345.394h-2.315zm.845-.76h1.47c.307 0 .544-.067.71-.201.174-.134.26-.323.26-.567 0-.25-.086-.442-.26-.576-.166-.135-.403-.202-.71-.202h-1.47v1.547zm0-2.295h1.441c.27 0 .48-.064.634-.192a.652.652 0 00.24-.538c0-.23-.077-.41-.23-.538-.154-.135-.368-.202-.644-.202h-1.44v1.47zm4.883 3.055V74.75h.864v1.94h1.557c.595 0 1.063.151 1.402.452.346.295.52.701.52 1.22 0 .513-.174.92-.52 1.22-.346.301-.813.452-1.402.452h-2.421zm.864-.788h1.557c.333 0 .586-.074.759-.221.179-.154.269-.375.269-.663 0-.288-.09-.506-.27-.653-.172-.154-.425-.23-.758-.23H49.55v1.767zm7.592.884c-.442 0-.797-.15-1.066-.452-.27-.3-.404-.695-.404-1.181v-.798h-.845v2.335h-.797V74.75h.797v2.258h.845v-.72c0-.494.132-.888.394-1.183.27-.3.628-.451 1.076-.451.474 0 .855.15 1.143.451.289.295.433.689.433 1.182v2.21c0 .486-.144.88-.433 1.181-.288.301-.669.452-1.143.452zm0-.673c.244 0 .432-.083.567-.25.14-.172.211-.41.211-.71v-2.21c0-.3-.07-.535-.211-.701a.677.677 0 00-.567-.26.667.667 0 00-.557.26c-.135.166-.202.4-.202.701v2.21c0 .3.067.538.202.71.134.167.32.25.557.25zm10.573.673c-.423 0-.795-.08-1.115-.24a1.73 1.73 0 01-.73-.692c-.173-.307-.26-.67-.26-1.086v-1.44c0-.423.087-.785.26-1.086a1.73 1.73 0 01.73-.692c.32-.16.692-.24 1.115-.24.608 0 1.098.163 1.47.49.37.326.566.772.585 1.335h-.864c-.02-.34-.135-.599-.346-.778-.205-.186-.487-.278-.845-.278-.378 0-.68.108-.904.326-.224.211-.336.516-.336.913v1.45c0 .397.112.705.337.923.224.217.525.326.903.326.358 0 .64-.093.845-.278.211-.186.327-.445.346-.778h.864c-.019.563-.214 1.008-.586 1.335-.371.326-.861.49-1.47.49zm11.379 0a2.46 2.46 0 01-1.114-.24 1.73 1.73 0 01-.73-.692c-.174-.307-.26-.67-.26-1.086v-1.44c0-.423.087-.785.26-1.086a1.73 1.73 0 01.73-.692c.32-.16.691-.24 1.114-.24.608 0 1.098.163 1.47.49.371.326.567.772.586 1.335h-.865c-.02-.34-.134-.599-.346-.778-.205-.186-.486-.278-.845-.278-.378 0-.679.108-.903.326-.224.211-.336.516-.336.913v1.45c0 .397.112.705.336.923.224.217.525.326.903.326.359 0 .64-.093.845-.278.212-.186.327-.445.346-.778h.865c-.02.563-.215 1.008-.586 1.335-.372.326-.862.49-1.47.49zm4.498 1.633l.778-2.056-1.96-4.957h.961l1.23 3.266c.045.11.087.24.125.394l.096.375.096-.375a4.46 4.46 0 01.115-.394l1.153-3.266h.932l-2.603 7.013h-.923zm8.735-.384v-1.345h-4.14V74.75h.778v4.554h1.114V74.75h.673v4.554h1.114V74.75h.778v4.554h.452v2.075h-.769zm3.817-1.25a2.31 2.31 0 01-1.096-.249 1.807 1.807 0 01-.72-.701 2.203 2.203 0 01-.25-1.067v-1.44c0-.41.083-.766.25-1.067.173-.301.413-.535.72-.701.314-.167.68-.25 1.096-.25.416 0 .778.083 1.085.25.314.166.554.4.72.701.174.301.26.656.26 1.066v.932h-3.285v.51c0 .416.105.736.317.96.21.218.512.327.903.327.333 0 .602-.058.807-.173a.764.764 0 00.374-.538h.865a1.472 1.472 0 01-.653 1.057c-.372.256-.836.384-1.393.384zm1.22-3.102v-.356c0-.416-.106-.736-.317-.96-.205-.224-.506-.337-.903-.337-.391 0-.692.113-.903.337-.212.224-.317.544-.317.96v.279h2.507l-.067.077zm4.488 3.103a2.46 2.46 0 01-1.114-.24 1.73 1.73 0 01-.73-.692c-.173-.307-.26-.67-.26-1.086v-1.44c0-.423.087-.785.26-1.086a1.73 1.73 0 01.73-.692c.32-.16.692-.24 1.114-.24.609 0 1.099.163 1.47.49.372.326.567.772.586 1.335h-.864c-.019-.34-.135-.599-.346-.778-.205-.186-.487-.278-.846-.278-.377 0-.678.108-.903.326-.224.211-.336.516-.336.913v1.45c0 .397.112.705.336.923.225.217.526.326.903.326.359 0 .641-.093.846-.278.211-.186.327-.445.346-.778h.864c-.019.563-.214 1.008-.586 1.335-.371.326-.861.49-1.47.49zm5.239-.096v-4.525h-1.922v-.759h4.708v.759h-1.922v4.525h-.864zm4.143 0V74.75h2.286c.551 0 .977.125 1.278.375.301.243.451.586.451 1.028 0 .365-.125.66-.374.883-.25.218-.58.327-.99.327v-.077c.448 0 .807.112 1.076.336.275.225.413.526.413.903 0 .474-.16.846-.48 1.115-.32.262-.769.394-1.345.394h-2.315zm.845-.76h1.47c.307 0 .544-.067.711-.201.173-.134.259-.323.259-.567 0-.25-.086-.442-.259-.576-.167-.135-.404-.202-.711-.202h-1.47v1.547zm0-2.295h1.441c.269 0 .48-.064.634-.192a.652.652 0 00.24-.538c0-.23-.077-.41-.23-.538-.154-.135-.369-.202-.644-.202h-1.441v1.47zm5.651 4.784l.778-2.056-1.959-4.957h.96l1.23 3.266c.045.11.086.24.125.394l.096.375.096-.375c.038-.154.077-.285.115-.394l1.153-3.266h.932l-2.604 7.013h-.922zm7.688-1.633c-.442 0-.797-.15-1.066-.452-.269-.3-.404-.695-.404-1.181v-.798h-.845v2.335h-.797V74.75h.797v2.258h.845v-.72c0-.494.132-.888.394-1.183.269-.3.628-.451 1.076-.451.474 0 .855.15 1.143.451.288.295.433.689.433 1.182v2.21c0 .486-.145.88-.433 1.181-.288.301-.669.452-1.143.452zm0-.673c.243 0 .432-.083.567-.25.141-.172.211-.41.211-.71v-2.21c0-.3-.07-.535-.211-.701a.679.679 0 00-.567-.26.665.665 0 00-.557.26c-.135.166-.202.4-.202.701v2.21c0 .3.067.538.202.71.134.167.32.25.557.25zm6.737 1.922v-1.345h-4.141V74.75h.779v4.554h1.114V74.75h.672v4.554h1.115V74.75h.778v4.554h.451v2.075h-.768zm1.837-1.345V74.75h.826v2.882c0 .186-.006.381-.019.586a8.08 8.08 0 01-.038.586c-.013.18-.029.333-.048.461l2.132-4.515h1.105v5.284h-.826v-2.882c0-.186.003-.381.01-.586.012-.205.028-.4.048-.586l.048-.471-2.133 4.525h-1.105zm5.517 0V74.75h1.172l.692 2.027c.07.205.134.41.192.615.057.198.099.352.125.461a20.9 20.9 0 01.115-.461c.058-.205.118-.413.182-.625l.654-2.017h1.172v5.284h-.836v-.817c0-.288.003-.602.01-.941l.019-1.028c.013-.346.025-.673.038-.98.013-.314.023-.59.029-.826l-.941 3.007h-.913l-.951-2.988c.013.288.022.647.029 1.076.013.429.022.877.029 1.345.012.467.019.912.019 1.335v.817h-.836zm5.863 0V74.75h.826v2.882c0 .186-.007.381-.019.586-.007.205-.02.4-.039.586-.013.18-.029.333-.048.461l2.133-4.515h1.105v5.284h-.827v-2.882c0-.186.004-.381.01-.586.013-.205.029-.4.048-.586l.048-.471-2.133 4.525h-1.104zm-130.834 19V93.75h.865v2.18h.903l1.537-2.18h.99l-1.778 2.517 1.806 2.767h-1.008l-1.538-2.354h-.912v2.354h-.865zm4.998.067v-.807h.173c.295 0 .5-.115.615-.346.122-.23.186-.643.192-1.24l.058-2.958h3.583v5.284h-.864v-4.496h-1.864l-.048 2.21c-.013.556-.077 1.008-.192 1.354-.11.346-.282.599-.52.759-.23.16-.534.24-.912.24h-.22zm6.353-.067V93.75h.826v2.882c0 .186-.006.381-.02.586-.006.205-.018.4-.038.586a6.1 6.1 0 01-.048.461l2.133-4.515h1.105v5.284h-.826v-2.882c0-.186.003-.381.01-.586.012-.205.028-.4.047-.586l.048-.471-2.132 4.525h-1.105zm7.668.096c-.416 0-.78-.084-1.095-.25a1.807 1.807 0 01-.72-.701 2.203 2.203 0 01-.25-1.067v-1.44c0-.41.083-.766.25-1.067.173-.301.413-.535.72-.701a2.3 2.3 0 011.095-.25c.417 0 .779.083 1.086.25.314.166.554.4.72.701.173.301.26.656.26 1.066v.932h-3.286v.51c0 .416.106.736.317.96.212.218.513.327.903.327.334 0 .602-.058.807-.173a.764.764 0 00.375-.538h.865a1.472 1.472 0 01-.654 1.057c-.371.256-.835.384-1.393.384zm1.22-3.103v-.356c0-.416-.105-.736-.316-.96-.206-.224-.506-.337-.904-.337-.39 0-.691.113-.903.337-.211.224-.317.544-.317.96v.279h2.508l-.067.077zm2.491 3.007V93.75h.865v2.2h2.228v-2.2h.865v5.284h-.864v-2.296h-2.23v2.296h-.864zm7.236 0v-4.525h-1.92v-.759h4.706v.759h-1.92v4.525h-.865zm5.661.096c-.557 0-.996-.141-1.316-.423-.32-.288-.48-.676-.48-1.162 0-.493.16-.881.48-1.163.32-.282.753-.422 1.297-.422h1.633v-.529c0-.326-.1-.576-.298-.75-.192-.178-.467-.268-.826-.268-.314 0-.576.067-.788.202a.717.717 0 00-.365.528h-.864c.057-.455.272-.817.644-1.086.37-.269.835-.403 1.392-.403.609 0 1.09.157 1.441.47.353.315.529.74.529 1.278v3.632h-.846v-1.009h-.144l.144-.144c0 .384-.15.688-.451.912-.295.225-.689.337-1.182.337zm.212-.682c.41 0 .746-.103 1.008-.308a.957.957 0 00.394-.787v-.75h-1.614c-.288 0-.515.08-.682.24-.166.16-.25.378-.25.654 0 .294.1.528.298.7.205.167.487.25.846.25zm3.787.586V93.75h1.172l.692 2.027c.07.205.134.41.192.615.058.198.1.352.125.461.026-.109.064-.263.115-.461.058-.205.119-.413.183-.625l.653-2.017h1.172v5.284h-.836v-.817c0-.288.003-.602.01-.941l.019-1.028.038-.98c.013-.314.023-.59.03-.826l-.942 3.007h-.913l-.95-2.988c.012.288.022.647.028 1.076.013.429.022.877.029 1.345.012.467.019.912.019 1.335v.817h-.836zm5.863 0V93.75h.826v2.882c0 .186-.007.381-.02.586-.006.205-.018.4-.038.586-.013.18-.029.333-.048.461l2.133-4.515h1.105v5.284h-.827v-2.882c0-.186.004-.381.01-.586.013-.205.029-.4.048-.586l.048-.471-2.133 4.525h-1.104zm6.371 1.537l.769-2.988h1.249l-1.249 2.988h-.769zm13.733-1.537v-1.922a4.18 4.18 0 01-.47.077c-.205.02-.423.029-.654.029-.653.006-1.162-.15-1.527-.47-.359-.327-.538-.782-.538-1.365V93.75h.865v1.633c0 .327.108.586.326.778.224.186.532.279.922.279.27 0 .497-.01.682-.029.193-.026.324-.048.394-.067V93.75h.865v5.284h-.865zm4.201 0v-4.525h-1.921v-.759h4.707v.759h-1.921v4.525h-.865zm6.122.076c-.423 0-.788-.08-1.095-.24a1.744 1.744 0 01-.72-.691c-.167-.308-.25-.67-.25-1.086V95.69c0-.422.083-.784.25-1.085.172-.301.412-.532.72-.692.307-.16.672-.24 1.095-.24.423 0 .788.08 1.095.24.308.16.544.391.711.692.173.301.26.66.26 1.076v1.412c0 .416-.087.778-.26 1.086a1.684 1.684 0 01-.71.691c-.308.16-.673.24-1.096.24zm0-.768c.378 0 .672-.106.884-.317.211-.211.317-.522.317-.932V95.69c0-.41-.106-.72-.317-.931-.212-.212-.506-.317-.884-.317-.371 0-.666.105-.884.317-.211.211-.317.522-.317.931v1.403c0 .41.106.72.317.932.218.211.513.317.884.317zm5.69.788c-.622 0-1.115-.183-1.48-.548-.359-.371-.538-.877-.538-1.518v-2.401c0-.846.212-1.496.634-1.95.423-.462 1.028-.692 1.816-.692h1.345v.864h-1.345c-.519 0-.913.154-1.182.462-.269.3-.403.74-.403 1.316v.624h.134l-.134.192c.006-.378.134-.672.384-.884.25-.211.59-.317 1.018-.317.558 0 .99.18 1.297.538.314.359.471.852.471 1.48v.768c0 .43-.08.798-.24 1.105-.16.308-.39.544-.692.711-.3.166-.663.25-1.085.25zm0-.769c.371 0 .656-.112.855-.336.198-.224.297-.544.297-.96v-.77c0-.416-.099-.736-.297-.96-.199-.224-.484-.336-.855-.336-.372 0-.657.112-.855.336-.199.218-.298.538-.298.96v.77c0 .416.1.736.298.96.198.224.483.336.855.336zm3.432.673V93.75h.807v1.94h.432c.57 0 1.018.151 1.345.452.333.295.499.701.499 1.22s-.166.929-.499 1.23c-.327.294-.775.442-1.345.442h-1.24zm.807-.692h.432c.339 0 .602-.087.788-.26.192-.172.288-.412.288-.72 0-.307-.096-.547-.288-.72-.186-.173-.449-.26-.788-.26h-.432v1.96zm2.901.692V93.75h.807v5.284h-.807zm7.95 0V93.75h3.958v5.284h-.865v-4.496h-2.229v4.496h-.864zm7.668.076c-.422 0-.787-.08-1.095-.24a1.745 1.745 0 01-.72-.691c-.167-.308-.25-.67-.25-1.086V95.69c0-.422.083-.784.25-1.085.173-.301.413-.532.72-.692.308-.16.673-.24 1.095-.24.423 0 .788.08 1.095.24.308.16.545.391.711.692.173.301.26.66.26 1.076v1.412c0 .416-.087.778-.26 1.086a1.677 1.677 0 01-.711.691c-.307.16-.672.24-1.095.24zm0-.768c.378 0 .673-.106.884-.317.211-.211.317-.522.317-.932V95.69c0-.41-.106-.72-.317-.931-.211-.212-.506-.317-.884-.317-.371 0-.666.105-.884.317-.211.211-.317.522-.317.931v1.403c0 .41.106.72.317.932.218.211.513.317.884.317zm3.711.692V93.75h.865v2.2h2.228v-2.2h.865v5.284h-.865v-2.296h-2.228v2.296h-.865zm5.363 0l1.354-2.037c-.403-.096-.717-.282-.941-.557-.218-.275-.327-.618-.327-1.028 0-.519.17-.925.51-1.22.345-.295.816-.442 1.412-.442h2.277v5.284h-.865v-1.97h-1.162l-1.249 1.97h-1.009zm2.008-2.738h1.412v-1.778h-1.412c-.32 0-.573.08-.759.24-.186.154-.279.372-.279.654 0 .275.093.493.279.653.186.154.439.23.759.23zm5.555 2.738v-4.525h-1.921v-.759h4.707v.759h-1.921v4.525h-.865zm4.181 0V93.75h.865v1.94h1.556c.596 0 1.063.151 1.403.452.346.295.519.701.519 1.22 0 .513-.173.92-.519 1.22-.346.301-.814.452-1.403.452h-2.421zm.865-.788h1.556c.333 0 .586-.074.759-.221.179-.154.269-.375.269-.663 0-.288-.09-.506-.269-.653-.173-.154-.426-.23-.759-.23h-1.556v1.767zm10.476.788V93.75h.826v2.882c0 .186-.006.381-.019.586a8.08 8.08 0 01-.038.586c-.013.18-.029.333-.048.461l2.132-4.515h1.105v5.284h-.826v-2.882c0-.186.003-.381.01-.586.012-.205.028-.4.048-.586l.048-.471-2.133 4.525h-1.105zm5.267 0l1.873-2.719-1.758-2.565h1.019l1.047 1.633c.045.07.086.147.125.23.045.084.08.151.105.202.02-.05.048-.118.087-.201.045-.084.09-.16.134-.23l1.057-1.634h1.009l-1.758 2.575 1.864 2.709h-1.019l-1.133-1.73c-.045-.07-.09-.15-.135-.24a2.005 2.005 0 00-.106-.23 3.547 3.547 0 01-.115.23c-.045.09-.093.17-.144.24l-1.143 1.73h-1.009zm-141.819 20v-5.284h3.959v5.284h-.865v-4.496h-2.229v4.496h-.865zm7.67.077c-.424 0-.789-.081-1.096-.241a1.742 1.742 0 01-.72-.691c-.167-.308-.25-.67-.25-1.086v-1.402c0-.423.083-.785.25-1.086a1.74 1.74 0 01.72-.692c.307-.16.672-.24 1.095-.24.423 0 .788.08 1.095.24.308.16.545.391.711.692.173.301.26.66.26 1.076v1.412c0 .416-.087.778-.26 1.086a1.681 1.681 0 01-.71.691c-.308.16-.673.241-1.096.241zm0-.769c.377 0 .672-.106.883-.317.211-.211.317-.522.317-.932v-1.402c0-.41-.106-.721-.317-.932-.211-.212-.506-.317-.884-.317-.371 0-.666.105-.884.317-.211.211-.317.522-.317.932v1.402c0 .41.106.721.317.932.218.211.513.317.884.317zm5.257.692v-4.525h-1.922v-.759h4.707v.759h-1.92v4.525h-.865zm4.123 1.729v-7.013h.865v1.009h.173l-.173.201c0-.403.131-.72.394-.951.269-.237.62-.355 1.056-.355.532 0 .955.176 1.268.528.32.346.48.823.48 1.432v1.546c0 .404-.073.753-.22 1.048a1.583 1.583 0 01-.605.682c-.256.16-.564.24-.922.24-.43 0-.779-.119-1.048-.356s-.403-.554-.403-.951l.173.202h-.192l.019 1.201v1.537h-.865zm2.027-2.383c.365 0 .65-.108.855-.326.212-.218.317-.532.317-.942v-1.441c0-.41-.105-.723-.317-.941-.205-.218-.49-.327-.855-.327-.352 0-.634.112-.845.336-.212.225-.317.535-.317.932v1.441c0 .397.105.708.317.932.211.224.493.336.845.336zm5.661.75c-.416 0-.781-.083-1.095-.25a1.81 1.81 0 01-.72-.701 2.207 2.207 0 01-.25-1.067v-1.441c0-.41.083-.765.25-1.066.172-.301.412-.535.72-.701.314-.167.679-.25 1.095-.25.416 0 .778.083 1.086.25.314.166.554.4.72.701.173.301.26.656.26 1.066v.932h-3.286v.509c0 .417.106.737.317.961.211.218.512.327.903.327.333 0 .602-.058.807-.173a.764.764 0 00.375-.538h.864a1.47 1.47 0 01-.653 1.056c-.371.257-.836.385-1.393.385zm1.22-3.103v-.356c0-.416-.105-.736-.317-.96-.205-.224-.506-.337-.903-.337-.39 0-.692.113-.903.337-.211.224-.317.544-.317.96v.279h2.507l-.067.077zm4.47 3.103c-.621 0-1.115-.183-1.48-.548-.358-.371-.538-.877-.538-1.518v-2.401c0-.846.212-1.496.634-1.951.423-.461 1.028-.691 1.816-.691h1.345v.864h-1.345c-.519 0-.913.154-1.182.462-.269.301-.403.739-.403 1.316v.624h.134l-.134.192c.006-.378.134-.672.384-.884.25-.211.59-.317 1.019-.317.557 0 .989.18 1.296.538.314.359.471.852.471 1.48v.768c0 .429-.08.798-.24 1.105-.16.308-.39.544-.692.711-.3.167-.663.25-1.085.25zm0-.769c.371 0 .656-.112.855-.336.198-.224.297-.544.297-.961v-.768c0-.417-.099-.737-.297-.961-.199-.224-.484-.336-.855-.336-.372 0-.657.112-.855.336-.199.218-.298.538-.298.961v.768c0 .417.1.737.298.961.198.224.483.336.855.336zm3.71.673v-5.284h.865v2.2h2.229v-2.2h.864v5.284h-.864v-2.296h-2.229v2.296h-.865zm7.67.077c-.424 0-.789-.081-1.096-.241a1.741 1.741 0 01-.72-.691c-.167-.308-.25-.67-.25-1.086v-1.402c0-.423.083-.785.25-1.086a1.74 1.74 0 01.72-.692c.307-.16.672-.24 1.095-.24.423 0 .788.08 1.095.24.308.16.545.391.711.692.173.301.26.66.26 1.076v1.412c0 .416-.087.778-.26 1.086a1.681 1.681 0 01-.71.691c-.308.16-.673.241-1.096.241zm0-.769c.377 0 .672-.106.883-.317.211-.211.317-.522.317-.932v-1.402c0-.41-.106-.721-.317-.932-.212-.212-.506-.317-.884-.317-.371 0-.666.105-.884.317-.211.211-.317.522-.317.932v1.402c0 .41.106.721.317.932.218.211.513.317.884.317zm5.708.788a2.46 2.46 0 01-1.114-.24 1.736 1.736 0 01-.73-.692c-.173-.308-.26-.669-.26-1.086v-1.441c0-.422.087-.784.26-1.085a1.73 1.73 0 01.73-.692c.32-.16.691-.24 1.114-.24.608 0 1.098.163 1.47.49.371.326.566.772.586 1.335h-.865c-.02-.339-.134-.599-.346-.778-.205-.186-.486-.279-.845-.279-.378 0-.679.109-.903.327-.224.211-.336.516-.336.913v1.45c0 .397.112.705.336.923.224.217.525.326.903.326.359 0 .64-.093.845-.278.212-.186.327-.445.346-.779h.865c-.02.564-.215 1.009-.586 1.336-.372.326-.862.49-1.47.49zm5.238-.096v-4.525h-1.921v-.759h4.707v.759h-1.921v4.525h-.865zm4.143 0v-5.284h.826v2.882c0 .186-.006.381-.019.586a8.2 8.2 0 01-.038.586 6.105 6.105 0 01-.049.461l2.133-4.515h1.105v5.284h-.826v-2.882c0-.186.003-.381.01-.586.012-.205.028-.401.047-.586l.049-.471-2.133 4.525h-1.105zm11.38 0v-5.284h.826v2.882c0 .186-.007.381-.02.586a8.2 8.2 0 01-.038.586 6.053 6.053 0 01-.048.461l2.132-4.515h1.105v5.284h-.826v-2.882c0-.186.003-.381.01-.586.012-.205.029-.401.048-.586l.048-.471-2.133 4.525h-1.105zm11.379 0v-5.284h3.958v5.284h-.865v-4.496h-2.229v4.496h-.864zm5.67 1.729v-7.013h.865v1.009h.173l-.173.201c0-.403.131-.72.394-.951.269-.237.621-.355 1.056-.355.532 0 .955.176 1.268.528.321.346.481.823.481 1.432v1.546c0 .404-.074.753-.221 1.048a1.583 1.583 0 01-.605.682c-.257.16-.564.24-.923.24-.429 0-.778-.119-1.047-.356-.269-.237-.403-.554-.403-.951l.173.202h-.193l.02 1.201v1.537h-.865zm2.027-2.383c.365 0 .65-.108.855-.326.211-.218.317-.532.317-.942v-1.441c0-.41-.106-.723-.317-.941-.205-.218-.49-.327-.855-.327-.352 0-.634.112-.845.336-.212.225-.317.535-.317.932v1.441c0 .397.105.708.317.932.211.224.493.336.845.336zm5.661.75c-.416 0-.781-.083-1.095-.25a1.808 1.808 0 01-.721-.701 2.213 2.213 0 01-.25-1.067v-1.441c0-.41.084-.765.25-1.066.173-.301.413-.535.721-.701.314-.167.679-.25 1.095-.25.416 0 .778.083 1.086.25.313.166.553.4.72.701.173.301.259.656.259 1.066v.932h-3.285v.509c0 .417.106.737.317.961.211.218.512.327.903.327.333 0 .602-.058.807-.173a.765.765 0 00.375-.538h.864a1.466 1.466 0 01-.653 1.056c-.372.257-.836.385-1.393.385zm1.22-3.103v-.356c0-.416-.106-.736-.317-.96-.205-.224-.506-.337-.903-.337-.391 0-.692.113-.903.337-.211.224-.317.544-.317.96v.279h2.507l-.067.077zm1.876 4.352v-2.085h.432c.109-.109.221-.323.336-.644.122-.32.186-.727.192-1.22l.058-2.68h3.449v4.544h.672v2.085h-.768v-1.345h-3.603v1.345h-.768zm1.345-2.085h2.257v-3.775h-1.767l-.039 1.93c-.006.506-.061.916-.163 1.23-.103.314-.199.519-.288.615zm4.959.74v-5.284h3.958v5.284h-.864v-4.496h-2.229v4.496h-.865zm7.669.077c-.423 0-.788-.081-1.095-.241a1.74 1.74 0 01-.721-.691 2.256 2.256 0 01-.25-1.086v-1.402c0-.423.084-.785.25-1.086.173-.301.413-.532.721-.692.307-.16.672-.24 1.095-.24.423 0 .788.08 1.095.24.307.16.544.391.711.692.173.301.259.66.259 1.076v1.412c0 .416-.086.778-.259 1.086a1.686 1.686 0 01-.711.691c-.307.16-.672.241-1.095.241zm0-.769c.378 0 .672-.106.884-.317.211-.211.317-.522.317-.932v-1.402c0-.41-.106-.721-.317-.932-.212-.212-.506-.317-.884-.317-.372 0-.666.105-.884.317-.211.211-.317.522-.317.932v1.402c0 .41.106.721.317.932.218.211.512.317.884.317zm6.746.692v-1.922a3.95 3.95 0 01-.47.077 7.093 7.093 0 01-.654.029c-.653.006-1.162-.15-1.527-.471-.359-.326-.538-.781-.538-1.364v-1.633h.864v1.633c0 .327.109.586.327.778.224.186.532.279.922.279.269 0 .497-.01.682-.029.193-.026.324-.048.394-.067v-2.594h.865v5.284h-.865zm4.201 0v-4.525h-1.921v-.759h4.707v.759h-1.921v4.525h-.865zm6.122.096c-.416 0-.781-.083-1.095-.25a1.808 1.808 0 01-.721-.701 2.213 2.213 0 01-.25-1.067v-1.441c0-.41.084-.765.25-1.066.173-.301.413-.535.721-.701.314-.167.679-.25 1.095-.25.416 0 .778.083 1.085.25.314.166.554.4.721.701.173.301.259.656.259 1.066v.932h-3.285v.509c0 .417.105.737.317.961.211.218.512.327.903.327.333 0 .602-.058.807-.173a.76.76 0 00.374-.538h.865a1.47 1.47 0 01-.653 1.056c-.372.257-.836.385-1.393.385zm1.22-3.103v-.356c0-.416-.106-.736-.317-.96-.205-.224-.506-.337-.903-.337-.391 0-.692.113-.903.337-.212.224-.317.544-.317.96v.279h2.507l-.067.077zm2.491 3.007v-5.284h.864v2.2h2.229v-2.2h.865v5.284h-.865v-2.296h-2.229v2.296h-.864zm5.689 0v-5.284h.826v2.882c0 .186-.006.381-.019.586-.006.205-.019.4-.038.586a6.326 6.326 0 01-.048.461l2.132-4.515h1.105v5.284h-.826v-2.882c0-.186.003-.381.01-.586.012-.205.028-.401.048-.586l.048-.471-2.133 4.525h-1.105zm5.363 0l1.355-2.037c-.404-.096-.718-.282-.942-.557-.217-.276-.326-.618-.326-1.028 0-.519.169-.926.509-1.22.346-.295.816-.442 1.412-.442h2.277v5.284h-.865v-1.97h-1.162l-1.249 1.97h-1.009zm2.008-2.738h1.412v-1.777h-1.412c-.32 0-.573.08-.759.24-.186.153-.279.371-.279.653 0 .275.093.493.279.653.186.154.439.231.759.231zm5.987 2.834c-.243 0-.438-.071-.586-.212-.14-.14-.211-.329-.211-.566 0-.25.071-.449.211-.596.148-.147.343-.221.586-.221.244 0 .436.074.577.221.147.147.221.346.221.596 0 .237-.074.426-.221.566-.141.141-.333.212-.577.212zM14.577 24.528v-7.013h4.198v1.115h-2.997v5.898h-1.201zm4.94.068V23.5h.24a.54.54 0 00.49-.259c.115-.18.176-.461.183-.845l.057-3.151h3.824v5.283H23.11V20.36h-1.441l-.038 2.104c-.013.461-.09.852-.231 1.172-.14.314-.343.554-.605.72-.263.16-.583.24-.96.24h-.318zm7.064 1.662l.74-2.018-1.97-4.995h1.316l.98 2.7a9.438 9.438 0 01.269 1.047c.032-.135.074-.305.125-.51a5.89 5.89 0 01.153-.538l.923-2.7h1.268l-2.546 7.014h-1.258zm6.976-1.634c-.672-.006-1.207-.195-1.604-.566-.39-.372-.586-.881-.586-1.528v-2.373c0-.845.227-1.495.682-1.95.455-.461 1.102-.692 1.94-.692h1.49v1.172h-1.49c-.46 0-.813.125-1.056.375-.237.25-.355.615-.355 1.095v.654h.134l-.125.153c0-.365.122-.653.365-.864.244-.212.586-.317 1.028-.317.557 0 .99.182 1.297.547.314.359.47.858.47 1.499v.701c0 .43-.089.804-.268 1.124a1.85 1.85 0 01-.76.73c-.32.167-.707.247-1.162.24zm0-1.047c.32 0 .564-.09.73-.269.167-.186.25-.445.25-.778v-.701c0-.34-.083-.599-.25-.778-.166-.18-.41-.27-.73-.27-.313 0-.557.09-.73.27-.166.173-.25.432-.25.778v.701c0 .333.084.592.25.778.173.18.417.27.73.27zm3.557.951v-5.283H38.2v2.603c0 .167-.01.365-.029.596a13.805 13.805 0 01-.135 1.23l1.864-4.43h1.48v5.284h-1.086v-2.603c0-.173.007-.365.02-.576l.057-.625c.026-.205.051-.378.077-.519l-1.854 4.323h-1.48zm5.69 0v-5.283h1.2v2.046h1.865v-2.046h1.2v5.283h-1.2v-2.123h-1.864v2.123h-1.201zm5.69 0v-5.283h1.2v2.046h1.864v-2.046h1.201v5.283h-1.2v-2.123h-1.864v2.123h-1.201zm5.42 0v-5.283h1.038v1.787h.355c.57 0 1.022.16 1.355.48.333.32.5.75.5 1.287 0 .525-.17.945-.51 1.259-.333.313-.781.47-1.345.47h-1.393zm1.038-.931h.355c.276 0 .487-.071.634-.212.154-.14.231-.336.231-.586 0-.262-.077-.467-.23-.615-.148-.147-.36-.22-.635-.22h-.355v1.633zm2.728.931v-5.283h1.038v5.283H57.68zm4.335.096c-.448 0-.839-.086-1.172-.259a1.924 1.924 0 01-.778-.72 2.17 2.17 0 01-.269-1.096v-1.325c0-.417.09-.779.27-1.086.185-.314.444-.557.777-.73.333-.173.724-.26 1.172-.26.442 0 .827.087 1.153.26.333.173.59.416.769.73.185.307.278.67.278 1.086v.95H60.96v.375c0 .372.09.654.269.846.179.186.445.278.797.278.269 0 .487-.044.653-.134a.641.641 0 00.317-.413h1.182c-.09.454-.333.82-.73 1.095-.391.269-.868.403-1.432.403zm1.038-3.122v-.288c0-.365-.087-.644-.26-.836-.172-.198-.432-.298-.778-.298-.346 0-.608.1-.787.298-.18.199-.27.48-.27.846v.201l2.181-.019-.086.096zm8.2 3.026v-5.283h1.085v2.603c0 .167-.01.365-.029.596a13.998 13.998 0 01-.135 1.23l1.864-4.43h1.48v5.284h-1.086v-2.603c0-.173.007-.365.02-.576l.057-.625c.026-.205.051-.378.077-.519l-1.854 4.323h-1.48zm5.689 0v-5.283h1.2v2.046h1.865v-2.046h1.2v5.283h-1.2v-2.123h-1.864v2.123h-1.201zm7.217 0V20.35h-1.806v-1.104h4.823v1.104H85.37v4.18h-1.21zm6.305.096c-.449 0-.84-.086-1.172-.259a1.923 1.923 0 01-.779-.72 2.17 2.17 0 01-.269-1.096v-1.325c0-.417.09-.779.27-1.086.185-.314.445-.557.778-.73.333-.173.723-.26 1.172-.26.442 0 .826.087 1.152.26.333.173.59.416.769.73.186.307.278.67.278 1.086v.95h-3.256v.375c0 .372.09.654.269.846.18.186.445.278.797.278.27 0 .487-.044.653-.134a.641.641 0 00.317-.413h1.182c-.09.454-.333.82-.73 1.095-.39.269-.868.403-1.431.403zm1.037-3.122v-.288c0-.365-.086-.644-.26-.836-.172-.198-.432-.298-.777-.298-.346 0-.609.1-.788.298-.18.199-.27.48-.27.846v.201l2.182-.019-.087.096zm2.5 4.756v-7.013h1.172v1.008h.27l-.27.279c0-.43.128-.765.385-1.009.256-.25.602-.375 1.037-.375.532 0 .958.183 1.278.548.32.365.48.855.48 1.47v1.431c0 .41-.073.769-.22 1.076a1.633 1.633 0 01-.606.702c-.263.166-.573.25-.932.25-.435 0-.781-.122-1.037-.366-.257-.25-.385-.589-.385-1.018l.27.279h-.28l.04 1.258v1.48H94zm2.171-2.671c.308 0 .548-.09.721-.27.173-.178.26-.435.26-.768v-1.325c0-.333-.087-.59-.26-.769-.173-.18-.413-.269-.72-.269-.302 0-.538.093-.711.279-.173.179-.26.432-.26.759v1.325c0 .327.087.583.26.769.172.18.41.269.71.269zm3.519.941v-5.283h2.344c.608 0 1.086.128 1.431.384.353.25.529.595.529 1.037 0 .36-.138.647-.413.865-.269.218-.628.327-1.076.327v-.087c.486 0 .877.116 1.172.346.294.224.442.525.442.903 0 .468-.18.836-.538 1.105-.353.269-.839.403-1.461.403h-2.43zm1.182-.912h1.21c.269 0 .48-.061.634-.183a.592.592 0 00.231-.49.612.612 0 00-.231-.509c-.154-.122-.365-.183-.634-.183h-1.21v1.365zm0-2.171h1.172c.237 0 .426-.058.566-.173a.576.576 0 00.212-.471.576.576 0 00-.212-.47c-.134-.122-.323-.183-.566-.183h-1.172v1.297zm4.556 3.083v-5.283h1.201v1.729h1.364c.64 0 1.14.16 1.498.48.365.314.548.75.548 1.307 0 .544-.186.976-.557 1.297-.365.313-.858.47-1.48.47h-2.574zm1.201-1.056h1.316c.281 0 .496-.061.643-.183.154-.128.231-.307.231-.538 0-.23-.077-.407-.231-.528-.147-.128-.362-.192-.643-.192h-1.316v1.44zm7.447 1.152c-.48 0-.858-.147-1.133-.441-.269-.295-.404-.686-.404-1.172v-.74h-.768v2.257h-1.028v-5.283h1.028v2.2h.768v-.692c0-.48.135-.868.404-1.163.269-.294.646-.442 1.133-.442.493 0 .89.148 1.191.442.308.289.462.676.462 1.163v2.258c0 .486-.154.877-.462 1.172-.307.294-.704.441-1.191.441zm0-.893a.58.58 0 00.452-.192.785.785 0 00.173-.529v-2.257a.734.734 0 00-.173-.51.568.568 0 00-.452-.201.576.576 0 00-.461.202c-.109.128-.163.297-.163.509v2.258c0 .217.054.393.163.528a.59.59 0 00.461.192zm4.825-2.969c-.269 0-.486-.073-.653-.22a.778.778 0 01-.24-.587c0-.243.08-.438.24-.585.167-.148.384-.222.653-.222s.484.074.644.221c.166.148.25.343.25.587a.765.765 0 01-.25.585c-.16.148-.375.221-.644.221zm0 3.862c-.269 0-.486-.073-.653-.22a.758.758 0 01-.24-.587.76.76 0 01.24-.586c.167-.147.384-.22.653-.22s.484.073.644.22c.166.148.25.343.25.586a.746.746 0 01-.25.586c-.16.148-.375.221-.644.221z" fill="#000"/><defs><filter id="filter0_d_2004_47" x=".157" y="0" width="179.646" height="178.685" filterUnits="userSpaceOnUse" color-interpolation-filters="sRGB"><feFlood flood-opacity="0" result="BackgroundImageFix"/><feColorMatrix in="SourceAlpha" values="0 0 0 0 0 0 0 0 0 0 0 0 0 0 0 0 0 0 127 0" result="hardAlpha"/><feOffset dy="3.843"/><feGaussianBlur stdDeviation="1.921"/><feComposite in2="hardAlpha" operator="out"/><feColorMatrix values="0 0 0 0 0 0 0 0 0 0 0 0 0 0 0 0 0 0 0.25 0"/><feBlend in2="BackgroundImageFix" result="effect1_dropShadow_2004_47"/><feBlend in="SourceGraphic" in2="effect1_dropShadow_2004_47" result="shape"/></filter></defs></svg>