<svg width="181" height="179" fill="none" xmlns="http://www.w3.org/2000/svg"><g filter="url(#filter0_d_2004_56)"><rect x="4.646" width="171.961" height="171" rx="16.011" fill="#F5ECDB"/></g><mask id="a" style="mask-type:alpha" maskUnits="userSpaceOnUse" x="4" y="0" width="173" height="43"><path fill="#C9D9CD" d="M4.646 0h171.961v42.27H4.646z"/></mask><g mask="url(#a)"><rect x="4.646" y="-1.69" width="171.961" height="118.355" rx="16.011" fill="#AB9F85"/></g><path d="M17.135 60.17c-.423 0-.788-.08-1.095-.24a1.697 1.697 0 01-.701-.693c-.16-.307-.24-.669-.24-1.085v-3.17c0-.423.08-.785.24-1.086.166-.3.4-.532.7-.692.308-.16.673-.24 1.096-.24.423 0 .784.08 1.085.24.308.16.542.391.702.692.166.301.25.66.25 1.076v3.18c0 .416-.084.778-.25 1.085-.16.301-.394.532-.701.692-.302.16-.663.24-1.086.24zm0-.779c.378 0 .666-.105.865-.317.204-.218.307-.525.307-.922v-3.17c0-.397-.102-.702-.307-.913-.199-.218-.487-.327-.865-.327-.372 0-.66.11-.865.327-.205.211-.307.516-.307.913v3.17c0 .397.102.704.307.922.205.212.494.317.865.317zm5.69.778c-.622 0-1.115-.182-1.48-.547-.358-.372-.538-.878-.538-1.518v-2.402c0-.845.212-1.495.634-1.95.423-.461 1.028-.692 1.816-.692h1.345v.865h-1.345c-.519 0-.913.154-1.182.461-.269.301-.403.74-.403 1.316v.625h.134l-.134.192c.006-.378.134-.673.384-.884.25-.211.59-.317 1.018-.317.558 0 .99.18 1.297.538.314.358.471.852.471 1.48v.768c0 .429-.08.797-.24 1.105-.16.307-.39.544-.692.71-.3.167-.663.25-1.085.25zm0-.768c.371 0 .656-.112.855-.337.198-.224.297-.544.297-.96v-.769c0-.416-.099-.736-.297-.96-.199-.224-.484-.337-.855-.337-.372 0-.657.113-.855.337-.199.217-.298.538-.298.96v.769c0 .416.1.736.298.96.198.225.483.337.855.337zm5.69.768c-.417 0-.782-.083-1.096-.25a1.807 1.807 0 01-.72-.7 2.204 2.204 0 01-.25-1.067V56.71c0-.41.083-.765.25-1.066.172-.302.413-.535.72-.702a2.31 2.31 0 011.095-.25c.417 0 .778.084 1.086.25.314.167.554.4.72.702.173.3.26.656.26 1.066v.932h-3.286v.509c0 .416.106.736.317.96.212.218.513.327.903.327.333 0 .602-.057.807-.173a.763.763 0 00.375-.538h.864a1.471 1.471 0 01-.653 1.057c-.371.256-.835.384-1.393.384zm1.22-3.103v-.355c0-.416-.106-.737-.318-.96-.205-.225-.506-.337-.903-.337-.39 0-.691.112-.903.336-.211.224-.317.545-.317.96v.28h2.508l-.068.076zm4.488 3.103a2.46 2.46 0 01-1.114-.24 1.73 1.73 0 01-.73-.692c-.173-.307-.26-.669-.26-1.085V56.71c0-.423.087-.785.26-1.086a1.73 1.73 0 01.73-.691c.32-.16.691-.24 1.114-.24.609 0 1.099.163 1.47.49.371.326.567.771.586 1.335h-.865c-.019-.34-.134-.6-.346-.778-.204-.186-.486-.279-.845-.279-.378 0-.679.109-.903.327-.224.211-.336.515-.336.912v1.45c0 .398.112.705.336.923.224.218.525.327.903.327.359 0 .64-.093.846-.279.21-.186.326-.445.345-.778h.865c-.02.564-.215 1.009-.586 1.335-.371.327-.861.49-1.47.49zm3.692-.096V54.79h3.958v5.284h-.865v-4.496h-2.229v4.496h-.864zm7.668.096c-.416 0-.781-.083-1.095-.25a1.806 1.806 0 01-.72-.7 2.203 2.203 0 01-.25-1.067V56.71c0-.41.083-.765.25-1.066.172-.302.413-.535.72-.702a2.31 2.31 0 011.095-.25c.416 0 .778.084 1.086.25.314.167.554.4.72.702.173.3.26.656.26 1.066v.932h-3.286v.509c0 .416.106.736.317.96.212.218.513.327.903.327.333 0 .602-.057.807-.173a.764.764 0 00.375-.538h.864a1.472 1.472 0 01-.653 1.057c-.371.256-.836.384-1.393.384zm1.22-3.103v-.355c0-.416-.105-.737-.317-.96-.205-.225-.506-.337-.903-.337-.39 0-.691.112-.903.336-.211.224-.317.545-.317.96v.28h2.508l-.068.076zm5.527 3.007v-1.921c-.103.026-.26.051-.471.077a7.087 7.087 0 01-.653.029c-.654.006-1.163-.15-1.528-.471-.358-.327-.538-.782-.538-1.364v-1.634h.865v1.634c0 .326.109.586.326.778.225.186.532.278.923.278.269 0 .496-.01.682-.028.192-.026.323-.048.394-.068V54.79h.864v5.284h-.864zm2.654 0V54.79h.826v2.883c0 .185-.007.38-.02.586a8.13 8.13 0 01-.038.586 6.233 6.233 0 01-.048.46l2.133-4.515h1.104v5.284h-.826v-2.882c0-.186.003-.38.01-.586.013-.205.029-.4.048-.586l.048-.47-2.133 4.524h-1.105zm5.026.068v-.807h.173c.295 0 .5-.116.615-.346.122-.23.186-.644.192-1.24l.058-2.959h3.583v5.284h-.864v-4.496h-1.864l-.048 2.21c-.013.557-.077 1.008-.192 1.354-.11.346-.282.6-.52.76-.23.16-.534.24-.912.24h-.22zm6.353-.068V54.79h.826v2.883c0 .185-.006.38-.02.586-.006.204-.018.4-.038.586a5.306 5.306 0 01-.048.46l2.133-4.515h1.105v5.284h-.826v-2.882c0-.186.003-.38.01-.586.012-.205.028-.4.047-.586l.048-.47-2.132 4.524h-1.105zm11.408 0V54.79h.865v2.181h.903l1.537-2.18h.99l-1.778 2.517 1.806 2.766h-1.009l-1.537-2.353h-.912v2.353h-.865zm7.64.077c-.423 0-.788-.08-1.095-.24a1.744 1.744 0 01-.72-.692c-.167-.307-.25-.669-.25-1.085V56.73c0-.423.083-.784.25-1.085.172-.302.412-.532.72-.692.307-.16.672-.24 1.095-.24.422 0 .788.08 1.095.24.307.16.544.39.71.691.174.302.26.66.26 1.077v1.412c0 .416-.086.778-.26 1.085a1.683 1.683 0 01-.71.692c-.307.16-.672.24-1.095.24zm0-.768c.378 0 .672-.106.884-.317.211-.212.317-.522.317-.932V56.73c0-.41-.106-.72-.317-.932-.212-.211-.506-.317-.884-.317-.372 0-.666.106-.884.317-.211.212-.317.522-.317.932v1.403c0 .41.106.72.317.931.218.212.512.318.884.318zm3.71.691V54.79h.865v2.2h2.229v-2.2h.864v5.284h-.864v-2.296h-2.229v2.296h-.865zm7.237 0v-4.525h-1.922v-.759h4.708v.76h-1.922v4.524h-.864zm4.124 1.73v-7.014h.864v1.01h.173l-.173.201c0-.404.131-.72.394-.951.269-.237.621-.355 1.057-.355.531 0 .954.176 1.268.528.32.346.48.823.48 1.431V58.2c0 .403-.073.752-.221 1.047a1.568 1.568 0 01-.605.682c-.256.16-.564.24-.922.24-.429 0-.778-.118-1.047-.355-.269-.237-.404-.554-.404-.951l.173.202h-.192l.019 1.2v1.538h-.864zm2.027-2.383c.365 0 .65-.109.855-.327.211-.217.317-.531.317-.941V56.71c0-.41-.106-.724-.317-.942-.205-.217-.49-.326-.855-.326-.353 0-.634.112-.846.336-.211.224-.317.535-.317.932v1.44c0 .398.106.709.317.933.212.224.493.336.846.336zm5.66.73c-.422 0-.787-.08-1.095-.24a1.745 1.745 0 01-.72-.692c-.167-.307-.25-.669-.25-1.085V56.73c0-.423.083-.784.25-1.085a1.74 1.74 0 01.72-.692c.308-.16.673-.24 1.095-.24.423 0 .788.08 1.096.24.307.16.544.39.71.691.173.302.26.66.26 1.077v1.412c0 .416-.087.778-.26 1.085a1.68 1.68 0 01-.71.692c-.308.16-.673.24-1.096.24zm0-.768c.378 0 .673-.106.884-.317.212-.212.317-.522.317-.932V56.73c0-.41-.105-.72-.317-.932-.211-.211-.506-.317-.884-.317-.371 0-.666.106-.883.317-.212.212-.317.522-.317.932v1.403c0 .41.105.72.317.931.217.212.512.318.883.318zm3.048.759v-.807h.173c.295 0 .5-.116.615-.346.122-.23.186-.644.192-1.24l.058-2.959h3.583v5.284h-.865v-4.496h-1.863l-.048 2.21c-.013.557-.077 1.008-.192 1.354-.109.346-.282.6-.519.76-.231.16-.535.24-.913.24h-.221zm6.391-.068V54.79h.865v1.941h1.556c.596 0 1.063.15 1.403.452.346.294.518.7.518 1.22 0 .512-.172.919-.518 1.22-.346.3-.814.451-1.403.451h-2.421zm.865-.788h1.556c.333 0 .586-.073.759-.22.179-.154.269-.375.269-.663 0-.288-.09-.506-.269-.654-.173-.153-.426-.23-.759-.23h-1.556v1.767zm12.205.856c-.557 0-1.015-.119-1.373-.356a1.413 1.413 0 01-.635-.96h.913c.045.16.163.29.356.393.198.103.445.154.739.154h.452c.314 0 .557-.074.73-.221a.711.711 0 00.269-.576c0-.257-.087-.458-.259-.606-.167-.147-.414-.22-.74-.22h-1.163v-.75h1.134c.295 0 .519-.07.672-.211a.72.72 0 00.231-.557.723.723 0 00-.106-.404.61.61 0 00-.297-.25 1.243 1.243 0 00-.49-.086h-.481c-.256 0-.477.057-.663.173-.185.115-.297.256-.336.422h-.913c.065-.397.273-.723.625-.98.352-.256.781-.384 1.287-.384h.481c.377 0 .701.061.97.183.269.115.474.282.615.5.147.217.221.477.221.777 0 .314-.103.574-.308.779-.205.198-.493.31-.864.336v.038c.454.032.784.154.989.365.205.212.308.516.308.913 0 .468-.173.839-.519 1.114-.346.276-.81.414-1.393.414h-.452zm5.479.028c-.558 0-.996-.14-1.317-.422-.32-.289-.48-.676-.48-1.163 0-.493.16-.88.48-1.162.321-.282.753-.423 1.297-.423h1.634v-.528c0-.327-.1-.577-.298-.75-.192-.179-.468-.269-.826-.269-.314 0-.577.068-.788.202a.716.716 0 00-.365.528h-.865c.058-.454.272-.816.644-1.085.371-.269.836-.404 1.393-.404.608 0 1.089.157 1.441.471.352.314.528.74.528 1.278v3.631h-.845v-1.008h-.144l.144-.145c0 .385-.151.689-.452.913-.294.224-.688.336-1.181.336zm.211-.682c.41 0 .746-.102 1.009-.307a.958.958 0 00.394-.788v-.75h-1.614c-.289 0-.516.08-.683.24-.166.161-.249.379-.249.654 0 .295.099.529.298.701.204.167.486.25.845.25zM15.156 79.073V73.79h3.958v5.283h-.865v-4.496h-2.228v4.496h-.865zm5.67 1.73V73.79h.865v1.008h.173L21.69 75c0-.403.131-.72.394-.951.269-.237.621-.356 1.057-.356.531 0 .954.177 1.268.529.32.346.48.823.48 1.431V77.2c0 .403-.074.752-.22 1.047a1.57 1.57 0 01-.606.682c-.256.16-.564.24-.922.24-.43 0-.779-.118-1.047-.355-.27-.237-.404-.554-.404-.951l.173.201h-.192l.019 1.201v1.537h-.865zm2.027-2.383c.365 0 .65-.109.855-.327.212-.217.317-.531.317-.941V75.71c0-.41-.105-.724-.317-.942-.204-.217-.49-.326-.855-.326-.352 0-.634.112-.845.336-.211.224-.317.535-.317.932v1.44c0 .398.106.709.317.933.211.224.493.336.845.336zm5.661.73c-.422 0-.787-.08-1.095-.24a1.743 1.743 0 01-.72-.692c-.167-.307-.25-.669-.25-1.085V75.73c0-.423.083-.785.25-1.086.172-.3.413-.531.72-.691.308-.16.673-.24 1.095-.24.423 0 .788.08 1.095.24.308.16.545.39.711.691.173.301.26.66.26 1.076v1.413c0 .416-.087.778-.26 1.085a1.683 1.683 0 01-.71.692c-.308.16-.673.24-1.096.24zm0-.768c.378 0 .673-.106.884-.318.211-.21.317-.521.317-.931V75.73c0-.41-.106-.72-.317-.932-.211-.211-.506-.317-.884-.317-.371 0-.666.106-.884.317-.21.212-.317.522-.317.932v1.403c0 .41.106.72.317.931.218.212.513.318.884.318zm7.467 2.036v-1.345h-3.756V73.79h.864v4.515h2.076v-4.516h.864v4.516h.72v2.113h-.768zm3.913-1.249c-.417 0-.782-.083-1.096-.25a1.807 1.807 0 01-.72-.7 2.204 2.204 0 01-.25-1.067V75.71c0-.41.083-.766.25-1.067.173-.3.413-.534.72-.7.314-.167.68-.25 1.096-.25.416 0 .778.083 1.085.25.314.166.554.4.72.7.174.301.26.657.26 1.067v.932h-3.286v.509c0 .416.106.736.317.96.212.218.513.327.904.327.333 0 .602-.057.806-.173a.763.763 0 00.375-.538h.865a1.471 1.471 0 01-.654 1.057c-.37.256-.835.384-1.392.384zm1.22-3.103v-.355c0-.416-.106-.737-.317-.96-.205-.225-.506-.337-.903-.337-.391 0-.692.112-.904.336-.21.224-.317.545-.317.96v.28h2.508l-.067.076zm4.488 3.103a2.46 2.46 0 01-1.114-.24 1.73 1.73 0 01-.73-.692c-.173-.307-.26-.669-.26-1.085V75.71c0-.423.087-.785.26-1.086a1.73 1.73 0 01.73-.691c.32-.16.692-.24 1.114-.24.609 0 1.099.163 1.47.49.372.326.567.771.586 1.335h-.864c-.02-.34-.135-.6-.346-.778-.205-.186-.487-.279-.846-.279-.377 0-.678.109-.903.327-.224.211-.336.515-.336.912v1.45c0 .398.112.705.336.923.225.218.526.327.903.327.36 0 .64-.093.846-.279.211-.186.327-.445.346-.778h.864c-.019.564-.214 1.009-.586 1.335-.371.327-.861.49-1.47.49zm5.69 0a2.46 2.46 0 01-1.114-.24 1.73 1.73 0 01-.73-.692c-.173-.307-.26-.669-.26-1.085V75.71c0-.423.087-.785.26-1.086a1.73 1.73 0 01.73-.691c.32-.16.691-.24 1.114-.24.608 0 1.099.163 1.47.49.371.326.567.771.586 1.335h-.865c-.019-.34-.134-.6-.345-.778-.206-.186-.487-.279-.846-.279-.378 0-.679.109-.903.327-.224.211-.336.515-.336.912v1.45c0 .398.112.705.336.923.224.218.525.327.903.327.359 0 .64-.093.846-.279.21-.186.326-.445.345-.778h.865c-.02.564-.215 1.009-.586 1.335-.371.327-.861.49-1.47.49zm5.67-.019c-.422 0-.787-.08-1.095-.24a1.743 1.743 0 01-.72-.692c-.167-.307-.25-.669-.25-1.085V75.73c0-.423.083-.785.25-1.086.173-.3.413-.531.72-.691.308-.16.673-.24 1.096-.24.422 0 .787.08 1.095.24.307.16.544.39.71.691.173.301.26.66.26 1.076v1.413c0 .416-.087.778-.26 1.085a1.683 1.683 0 01-.71.692c-.308.16-.673.24-1.096.24zm0-.768c.378 0 .673-.106.884-.318.212-.21.317-.521.317-.931V75.73c0-.41-.105-.72-.317-.932-.211-.211-.506-.317-.883-.317-.372 0-.666.106-.884.317-.212.212-.317.522-.317.932v1.403c0 .41.105.72.317.931.218.212.512.318.883.318zm3.538.691V73.79h1.172l.692 2.027c.07.205.135.41.192.614.058.199.1.353.125.462.026-.11.064-.263.115-.462.058-.205.119-.413.183-.624l.653-2.017h1.172v5.283h-.836v-.816c0-.288.003-.602.01-.942l.02-1.028c.012-.346.025-.672.038-.98.012-.313.022-.589.028-.826l-.941 3.007h-.913l-.95-2.988c.012.289.022.647.028 1.076.013.43.022.878.029 1.345.013.468.02.913.02 1.336v.816H60.5zm11.552 0V73.79h.827v2.882c0 .185-.007.38-.02.586-.006.205-.019.4-.038.586a6.233 6.233 0 01-.048.46l2.133-4.514h1.104v5.283h-.826v-2.882c0-.186.004-.38.01-.586.013-.205.029-.4.048-.586l.048-.47-2.133 4.524h-1.105zm5.69 0V73.79h.865v2.2h2.228v-2.2h.865v5.283h-.865v-2.296h-2.228v2.296h-.865zm7.236 0V74.55h-1.92v-.76h4.706v.76h-1.92v4.524h-.865zm6.123.096c-.417 0-.782-.083-1.096-.25a1.807 1.807 0 01-.72-.7 2.204 2.204 0 01-.25-1.067V75.71c0-.41.083-.766.25-1.067.173-.3.413-.534.72-.7.314-.167.68-.25 1.096-.25.416 0 .778.083 1.085.25.314.166.554.4.72.7.173.301.26.657.26 1.067v.932H89.88v.509c0 .416.106.736.317.96.212.218.513.327.903.327.334 0 .603-.057.807-.173a.763.763 0 00.375-.538h.865a1.471 1.471 0 01-.654 1.057c-.371.256-.835.384-1.392.384zm1.22-3.103v-.355c0-.416-.106-.737-.317-.96-.205-.225-.507-.337-.904-.337-.39 0-.691.112-.903.336-.21.224-.317.545-.317.96v.28h2.508l-.068.076zm2.836 3.007V73.79h3.795v.787h-2.93v4.496h-.865zm5.325 1.73V73.79h.864v1.008h.173l-.173.202c0-.403.131-.72.394-.951.269-.237.621-.356 1.057-.356.531 0 .954.177 1.268.529.32.346.48.823.48 1.431V77.2c0 .403-.073.752-.221 1.047a1.568 1.568 0 01-.605.682c-.256.16-.564.24-.922.24-.429 0-.778-.118-1.047-.355-.269-.237-.404-.554-.404-.951l.173.201h-.192l.019 1.201v1.537h-.864zm2.027-2.383c.365 0 .65-.109.855-.327.211-.217.317-.531.317-.941V75.71c0-.41-.106-.724-.317-.942-.205-.217-.49-.326-.855-.326-.353 0-.634.112-.846.336-.211.224-.317.535-.317.932v1.44c0 .398.106.709.317.933.212.224.493.336.846.336zm5.199.75c-.557 0-.996-.142-1.316-.423-.32-.289-.48-.676-.48-1.163 0-.493.16-.88.48-1.162.32-.282.753-.423 1.297-.423h1.633v-.528c0-.327-.099-.577-.298-.75-.192-.179-.467-.269-.826-.269-.314 0-.576.068-.788.202a.719.719 0 00-.365.529h-.864c.057-.455.272-.817.643-1.086.372-.269.836-.403 1.393-.403.609 0 1.089.156 1.441.47.353.314.529.74.529 1.278v3.631h-.846v-1.008h-.144l.144-.145c0 .385-.15.689-.451.913-.295.224-.689.336-1.182.336zm.212-.683c.41 0 .746-.102 1.008-.307a.955.955 0 00.394-.788v-.75h-1.614c-.288 0-.515.08-.682.24-.166.161-.25.379-.25.654 0 .295.1.528.298.701.205.167.487.25.846.25zm7.716 1.931v-1.345h-3.756V73.79h.865v4.515h2.075v-4.516h.864v4.516h.721v2.113h-.769zm1.934-1.345V73.79h.826v2.882c0 .185-.006.38-.019.586-.007.205-.019.4-.039.586a6.233 6.233 0 01-.048.46l2.133-4.514h1.105v5.283h-.826v-2.882c0-.186.003-.38.009-.586.013-.205.029-.4.048-.586l.048-.47-2.132 4.524h-1.105zm5.689 0V73.79h.827v2.882c0 .185-.007.38-.02.586-.006.205-.019.4-.038.586a6.233 6.233 0 01-.048.46l2.133-4.514h1.104v5.283h-.826v-2.882c0-.186.003-.38.01-.586.013-.205.029-.4.048-.586l.048-.47-2.133 4.524h-1.105zm6.372 1.537l.769-2.987h1.249L130.4 80.61h-.769zm13.733-1.537v-1.921a4.167 4.167 0 01-.471.077 7.071 7.071 0 01-.653.029c-.653.006-1.162-.15-1.527-.471-.359-.327-.538-.782-.538-1.364V73.79h.864v1.633c0 .326.109.586.327.778.224.186.531.278.922.278.269 0 .496-.01.682-.028.192-.026.324-.048.394-.068V73.79h.865v5.283h-.865zm4.201 0V74.55h-1.922v-.76h4.708v.76h-1.922v4.524h-.864zm6.122.077c-.423 0-.788-.08-1.096-.24a1.745 1.745 0 01-.72-.692c-.167-.307-.25-.669-.25-1.085V75.73c0-.423.083-.785.25-1.086.173-.3.413-.531.72-.691.308-.16.673-.24 1.096-.24.422 0 .787.08 1.095.24.307.16.544.39.711.691.173.301.259.66.259 1.076v1.413c0 .416-.086.778-.259 1.085a1.688 1.688 0 01-.711.692c-.308.16-.673.24-1.095.24zm0-.768c.378 0 .672-.106.883-.318.212-.21.318-.521.318-.931V75.73c0-.41-.106-.72-.318-.932-.211-.211-.505-.317-.883-.317-.372 0-.666.106-.884.317-.212.212-.317.522-.317.932v1.403c0 .41.105.72.317.931.218.212.512.318.884.318zm5.689.787c-.621 0-1.114-.182-1.479-.547-.359-.372-.538-.878-.538-1.518v-2.402c0-.845.211-1.495.634-1.95.423-.461 1.028-.692 1.816-.692h1.345v.865h-1.345c-.519 0-.913.154-1.182.461-.269.301-.403.74-.403 1.316v.625h.134l-.134.192c.006-.378.134-.673.384-.884.25-.211.589-.317 1.018-.317.557 0 .99.18 1.297.538.314.359.471.852.471 1.48v.768c0 .429-.08.797-.24 1.105a1.689 1.689 0 01-.692.71c-.301.167-.663.25-1.086.25zm0-.768c.372 0 .657-.112.855-.337.199-.224.298-.544.298-.96v-.769c0-.416-.099-.736-.298-.96-.198-.225-.483-.337-.855-.337-.371 0-.656.112-.855.337-.198.217-.297.538-.297.96v.769c0 .416.099.736.297.96.199.225.484.337.855.337zm3.432.672V73.79h.807v1.94h.433c.57 0 1.018.15 1.345.452.333.294.499.7.499 1.22 0 .518-.166.928-.499 1.23-.327.294-.775.441-1.345.441h-1.24zm.807-.691h.433c.339 0 .602-.087.787-.26.193-.173.289-.413.289-.72 0-.308-.096-.548-.289-.72-.185-.174-.448-.26-.787-.26h-.433v1.96zm2.902.691V73.79h.807v5.283h-.807zm-151.015 19V92.79h3.795v.787h-2.93v4.496h-.865zm6.861.096c-.557 0-.995-.14-1.316-.422-.32-.289-.48-.676-.48-1.163 0-.493.16-.88.48-1.162.32-.282.753-.423 1.297-.423h1.633v-.528c0-.327-.099-.577-.297-.75-.192-.179-.468-.269-.827-.269-.313 0-.576.068-.787.202a.718.718 0 00-.365.529h-.865c.058-.455.272-.817.644-1.086.371-.269.835-.403 1.393-.403.608 0 1.088.156 1.44.47.353.314.529.74.529 1.278v3.631h-.845v-1.008h-.145l.145-.145c0 .385-.15.689-.452.913-.295.224-.688.336-1.182.336zm.212-.682c.41 0 .746-.102 1.009-.307a.956.956 0 00.393-.788v-.75h-1.614c-.288 0-.515.08-.682.24-.166.161-.25.379-.25.654 0 .295.1.528.298.701.205.167.487.25.846.25zm3.941 2.316V92.79h.865v1.008h.173L27.38 94c0-.403.131-.72.393-.951.27-.237.622-.356 1.057-.356.532 0 .955.177 1.268.529.32.346.48.823.48 1.431V96.2c0 .403-.073.752-.22 1.047a1.57 1.57 0 01-.606.682c-.256.16-.563.24-.922.24-.429 0-.778-.118-1.047-.355-.269-.237-.403-.554-.403-.951l.173.201h-.192l.019 1.201v1.537h-.865zm2.027-2.383c.365 0 .65-.109.855-.327.211-.217.317-.531.317-.941V94.71c0-.41-.106-.724-.317-.942-.205-.217-.49-.326-.855-.326-.352 0-.634.112-.845.336-.212.224-.317.535-.317.932v1.44c0 .398.105.709.317.933.211.224.493.336.845.336zm5.2.75c-.557 0-.996-.142-1.316-.423-.32-.289-.48-.676-.48-1.163 0-.493.16-.88.48-1.162.32-.282.752-.423 1.297-.423h1.633v-.528c0-.327-.1-.577-.298-.75-.192-.179-.468-.269-.826-.269-.314 0-.577.068-.788.202a.718.718 0 00-.365.529h-.865c.058-.455.272-.817.644-1.086.371-.269.836-.403 1.393-.403.608 0 1.089.156 1.441.47.352.314.528.74.528 1.278v3.631h-.845v-1.008h-.144l.144-.145c0 .385-.15.689-.452.913-.294.224-.688.336-1.181.336zm.211-.683c.41 0 .746-.102 1.009-.307a.956.956 0 00.394-.788v-.75h-1.614c-.288 0-.516.08-.682.24-.167.161-.25.379-.25.654 0 .295.1.528.298.701.205.167.486.25.845.25zm3.96.586V92.79h.865v2.2h2.229v-2.2h.865v5.283h-.865v-2.296h-2.229v2.296h-.864zm7.237 0V93.55H43.23v-.76h4.707v.76h-1.921v4.524h-.865zm4.143 0V92.79h.826v2.882c0 .185-.006.38-.02.586-.006.205-.018.4-.038.586a5.306 5.306 0 01-.048.46l2.133-4.514h1.105v5.283h-.826v-2.882c0-.186.003-.38.01-.586.012-.205.028-.4.047-.586l.048-.47-2.132 4.524h-1.105zm5.67 1.73V92.79h.865v1.008h.173l-.173.202c0-.403.131-.72.394-.951.269-.237.621-.356 1.057-.356.531 0 .954.177 1.268.529.32.346.48.823.48 1.431V96.2c0 .403-.074.752-.221 1.047a1.57 1.57 0 01-.605.682c-.256.16-.564.24-.922.24-.43 0-.779-.118-1.048-.355s-.403-.554-.403-.951l.173.201h-.192l.019 1.201v1.537h-.865zm2.027-2.383c.365 0 .65-.109.855-.327.212-.217.317-.531.317-.941V94.71c0-.41-.105-.724-.317-.942-.205-.217-.49-.326-.855-.326-.352 0-.634.112-.845.336-.211.224-.317.535-.317.932v1.44c0 .398.106.709.317.933.211.224.493.336.845.336zm5.661.73c-.422 0-.788-.08-1.095-.24a1.743 1.743 0 01-.72-.692c-.167-.307-.25-.669-.25-1.085V94.73c0-.423.083-.785.25-1.086.172-.3.413-.531.72-.691.307-.16.672-.24 1.095-.24.423 0 .788.08 1.095.24.308.16.545.39.711.691.173.301.26.66.26 1.076v1.413c0 .416-.087.778-.26 1.085a1.683 1.683 0 01-.71.692c-.308.16-.673.24-1.096.24zm0-.768c.378 0 .673-.106.884-.318.211-.21.317-.521.317-.931V94.73c0-.41-.106-.72-.317-.932-.211-.211-.506-.317-.884-.317-.371 0-.666.106-.884.317-.211.212-.317.522-.317.932v1.403c0 .41.106.72.317.931.218.212.513.318.884.318zm3.71.691V92.79h2.287c.551 0 .977.124 1.278.374.301.244.451.586.451 1.028 0 .365-.124.66-.374.884-.25.218-.58.327-.99.327v-.077c.449 0 .807.112 1.076.336.276.224.413.525.413.903 0 .474-.16.845-.48 1.114-.32.263-.769.394-1.345.394h-2.315zm.846-.759h1.47c.308 0 .544-.067.711-.201a.679.679 0 00.26-.567c0-.25-.087-.442-.26-.577-.166-.134-.403-.201-.71-.201h-1.47v1.546zm0-2.296h1.441c.27 0 .48-.064.634-.192.16-.128.24-.307.24-.538 0-.23-.076-.41-.23-.538-.154-.134-.368-.201-.644-.201h-1.44v1.47zm6.362 3.151c-.557 0-.995-.14-1.316-.422-.32-.289-.48-.676-.48-1.163 0-.493.16-.88.48-1.162.32-.282.753-.423 1.297-.423h1.633v-.528c0-.327-.099-.577-.297-.75-.193-.179-.468-.269-.827-.269-.314 0-.576.068-.787.202a.718.718 0 00-.365.529h-.865c.057-.455.272-.817.644-1.086.371-.269.835-.403 1.392-.403.609 0 1.09.156 1.442.47.352.314.528.74.528 1.278v3.631h-.846v-1.008h-.144l.145-.145c0 .385-.151.689-.452.913-.295.224-.688.336-1.182.336zm.212-.682c.41 0 .746-.102 1.008-.307a.956.956 0 00.394-.788v-.75H73.57c-.288 0-.515.08-.682.24-.166.161-.25.379-.25.654 0 .295.1.528.298.701.205.167.487.25.846.25zm5.507.586V93.55h-1.921v-.76h4.707v.76h-1.922v4.524h-.864zm4.181 0V92.79h.865v1.94h1.556c.596 0 1.063.15 1.403.452.346.294.519.7.519 1.22 0 .512-.173.919-.52 1.22-.345.3-.813.451-1.402.451h-2.42zm.865-.787h1.556c.333 0 .586-.074.76-.222.178-.153.268-.374.268-.662 0-.288-.09-.506-.269-.654-.173-.153-.426-.23-.759-.23h-1.556v1.767zm12.417.883c-.609 0-1.096-.163-1.46-.49-.366-.326-.558-.771-.577-1.335h.865c.019.333.131.592.336.778.205.186.483.279.836.279.378 0 .669-.11.874-.327.211-.218.317-.525.317-.922v-.384H96.07v-.769h1.873v-.298c0-.397-.106-.701-.317-.912-.205-.218-.496-.327-.874-.327-.353 0-.631.093-.836.279-.205.179-.317.438-.336.778h-.865c.02-.564.211-1.009.576-1.336.365-.326.852-.49 1.46-.49.43 0 .795.08 1.096.24.307.16.544.391.71.692.167.301.25.663.25 1.086v1.44c0 .417-.083.779-.25 1.087a1.684 1.684 0 01-.71.691c-.301.16-.666.24-1.095.24zm5.344 1.633v-1.729c-.615 0-1.099-.173-1.451-.518-.352-.346-.528-.82-.528-1.422V94.71c0-.596.176-1.063.528-1.403.359-.346.842-.519 1.451-.519V91.06h.768v1.73c.615 0 1.098.172 1.451.518.352.34.528.807.528 1.403v1.422c0 .602-.176 1.076-.528 1.422-.353.345-.836.518-1.451.518v1.73h-.768zm.019-2.41v-3.92c-.372 0-.663.109-.874.326-.212.218-.318.522-.318.913v1.422c0 .39.106.698.318.922.211.224.502.336.874.336zm.73 0c.378 0 .669-.113.874-.337.211-.224.317-.532.317-.922V94.71c0-.39-.106-.695-.317-.913-.205-.218-.496-.326-.874-.326v3.92zm4.94 2.41v-1.729c-.615 0-1.098-.173-1.45-.518-.353-.346-.529-.82-.529-1.422V94.71c0-.596.176-1.063.529-1.403.358-.346.842-.519 1.45-.519V91.06h.769v1.73c.615 0 1.098.172 1.45.518.353.34.529.807.529 1.403v1.422c0 .602-.176 1.076-.529 1.422-.352.345-.835.518-1.45.518v1.73h-.769zm.019-2.41v-3.92c-.371 0-.662.109-.874.326-.211.218-.317.522-.317.913v1.422c0 .39.106.698.317.922.212.224.503.336.874.336zm.73 0c.378 0 .67-.113.875-.337.211-.224.317-.532.317-.922V94.71c0-.39-.106-.695-.317-.913-.205-.218-.497-.326-.875-.326v3.92zm5.325.777c-.416 0-.781-.083-1.095-.25a1.805 1.805 0 01-.721-.7 2.21 2.21 0 01-.249-1.067V94.71c0-.41.083-.766.249-1.067.173-.3.413-.534.721-.7.314-.167.679-.25 1.095-.25.416 0 .778.083 1.086.25.313.166.554.4.72.7.173.301.26.657.26 1.067v.932h-3.286v.509c0 .416.106.736.317.96.211.218.512.327.903.327.333 0 .602-.057.807-.173a.764.764 0 00.375-.538h.864a1.469 1.469 0 01-.653 1.057c-.371.256-.836.384-1.393.384zm1.22-3.103v-.355c0-.416-.106-.737-.317-.96-.205-.225-.506-.337-.903-.337-.391 0-.692.112-.903.336-.211.224-.317.545-.317.96v.28h2.507l-.067.076zm2.52 3.007V92.79h.864v2.18h.903l1.537-2.18h.99l-1.777 2.516 1.806 2.767h-1.009l-1.537-2.353h-.913v2.353h-.864zm7.207 0V93.55h-1.921v-.76h4.707v.76h-1.921v4.524h-.865zm4.143 0V92.79h.826v2.882c0 .185-.006.38-.019.586-.006.205-.019.4-.038.586a6.233 6.233 0 01-.048.46l2.132-4.514h1.105v5.283h-.826v-2.882c0-.186.003-.38.009-.586.013-.205.029-.4.048-.586l.049-.47-2.133 4.524h-1.105zm5.69 0V92.79h2.286c.551 0 .977.124 1.278.374.301.244.451.586.451 1.028 0 .365-.125.66-.374.884-.25.218-.58.327-.99.327v-.077c.448 0 .807.112 1.076.336.276.224.413.525.413.903 0 .474-.16.845-.48 1.114-.32.263-.769.394-1.345.394h-2.315zm.845-.759h1.47c.307 0 .544-.067.711-.201.173-.135.259-.324.259-.567 0-.25-.086-.442-.259-.577-.167-.134-.404-.201-.711-.201h-1.47v1.546zm0-2.296h1.441c.269 0 .48-.064.634-.192.16-.128.24-.307.24-.538 0-.23-.077-.41-.23-.538-.154-.134-.368-.201-.644-.201h-1.441v1.47zm4.844 3.055V92.79h.865v2.2h2.229v-2.2h.864v5.283h-.864v-2.296h-2.229v2.296h-.865zm7.669.077c-.423 0-.788-.08-1.095-.24a1.741 1.741 0 01-.721-.692c-.166-.307-.249-.669-.249-1.085V94.73c0-.423.083-.785.249-1.086.173-.3.413-.531.721-.691.307-.16.672-.24 1.095-.24.423 0 .788.08 1.095.24.308.16.545.39.711.691.173.301.259.66.259 1.076v1.413c0 .416-.086.778-.259 1.085a1.677 1.677 0 01-.711.692c-.307.16-.672.24-1.095.24zm0-.768c.378 0 .672-.106.884-.318.211-.21.317-.521.317-.931V94.73c0-.41-.106-.72-.317-.932-.212-.211-.506-.317-.884-.317-.371 0-.666.106-.884.317-.211.212-.317.522-.317.932v1.403c0 .41.106.72.317.931.218.212.513.318.884.318zm5.709.787c-.423 0-.794-.08-1.115-.24a1.735 1.735 0 01-.73-.692c-.173-.307-.259-.669-.259-1.085V94.71c0-.423.086-.785.259-1.086.173-.3.417-.531.73-.691.321-.16.692-.24 1.115-.24.608 0 1.098.163 1.47.49.371.326.567.771.586 1.335h-.865c-.019-.34-.134-.6-.346-.778-.205-.186-.486-.279-.845-.279-.378 0-.679.109-.903.327-.224.211-.336.515-.336.912v1.45c0 .398.112.705.336.923.224.218.525.327.903.327.359 0 .64-.093.845-.279.212-.186.327-.445.346-.778h.865c-.019.564-.215 1.009-.586 1.335-.372.327-.862.49-1.47.49zm5.238-.096V93.55h-1.921v-.76h4.707v.76h-1.921v4.524h-.865zm4.181 0V92.79h.865v1.94h1.556c.596 0 1.063.15 1.403.452.346.294.519.7.519 1.22 0 .512-.173.919-.519 1.22-.346.3-.813.451-1.403.451h-2.421zm.865-.787h1.556c.333 0 .586-.074.759-.222.18-.153.269-.374.269-.662 0-.288-.089-.506-.269-.654-.173-.153-.426-.23-.759-.23h-1.556v1.767zM15.156 118.072v-5.283h.826v2.882c0 .185-.006.381-.02.586a8.2 8.2 0 01-.037.586 6.11 6.11 0 01-.049.461l2.133-4.515h1.105v5.283h-.826v-2.882c0-.186.003-.381.01-.586.012-.205.028-.4.047-.586l.048-.471-2.132 4.525h-1.105zm7.688.096c-.423 0-.794-.08-1.115-.24a1.73 1.73 0 01-.73-.692c-.173-.307-.26-.669-.26-1.085v-1.441c0-.423.087-.785.26-1.086.173-.301.417-.531.73-.691.32-.16.692-.241 1.115-.241.608 0 1.098.164 1.47.49.371.327.567.772.586 1.336h-.865c-.02-.34-.134-.599-.346-.778-.205-.186-.486-.279-.845-.279-.378 0-.68.109-.903.327-.224.211-.336.515-.336.912v1.451c0 .397.112.704.336.922.224.218.525.327.903.327.358 0 .64-.093.845-.279.212-.186.327-.445.346-.778h.865c-.02.564-.215 1.009-.586 1.335-.372.327-.862.49-1.47.49zm3.691-.096v-5.283h3.958v5.283h-.864v-4.496h-2.23v4.496h-.864zm7.669.077c-.423 0-.788-.08-1.095-.24a1.744 1.744 0 01-.72-.692c-.167-.307-.25-.669-.25-1.085v-1.403c0-.423.083-.784.25-1.085.172-.301.412-.532.72-.692.307-.16.672-.24 1.095-.24.423 0 .788.08 1.095.24.307.16.544.391.711.692.173.301.26.659.26 1.075v1.413c0 .416-.087.778-.26 1.085a1.683 1.683 0 01-.71.692c-.308.16-.673.24-1.096.24zm0-.768c.378 0 .672-.106.884-.317.211-.212.317-.522.317-.932v-1.403c0-.41-.106-.72-.317-.932-.212-.211-.506-.317-.884-.317-.371 0-.666.106-.884.317-.211.212-.317.522-.317.932v1.403c0 .41.106.72.317.932.218.211.513.317.884.317zm3.048.758v-.806h.173c.294 0 .5-.116.614-.346.122-.231.186-.644.193-1.24l.057-2.958h3.584v5.283h-.865v-4.496h-1.864l-.048 2.21c-.013.557-.077 1.009-.192 1.354-.109.346-.282.599-.519.759-.23.16-.535.24-.912.24h-.221zm6.39-.067v-5.283h.865v1.94h1.557c.595 0 1.063.151 1.402.452.346.294.519.701.519 1.22 0 .512-.173.919-.519 1.22-.346.301-.813.451-1.402.451h-2.421zm.865-.788h1.557c.333 0 .586-.073.758-.22.18-.154.27-.375.27-.663 0-.289-.09-.506-.27-.654-.172-.153-.425-.23-.758-.23h-1.557v1.767zm6.516.855c-.557 0-1.015-.118-1.374-.355a1.412 1.412 0 01-.634-.961h.913c.045.16.163.292.355.394.199.103.445.154.74.154h.452c.313 0 .557-.074.73-.221a.709.709 0 00.269-.576c0-.257-.087-.458-.26-.606-.166-.147-.413-.221-.74-.221h-1.162v-.749h1.134c.294 0 .519-.07.672-.211a.72.72 0 00.23-.557.728.728 0 00-.105-.404.613.613 0 00-.298-.25 1.254 1.254 0 00-.49-.086h-.48c-.256 0-.477.057-.663.173-.185.115-.298.256-.336.422h-.913c.064-.397.273-.723.625-.979.352-.257.781-.385 1.287-.385h.48c.378 0 .702.061.97.183.27.115.475.282.616.499.147.218.22.478.22.779 0 .313-.102.573-.307.778-.205.198-.493.31-.864.336v.038c.454.032.784.154.989.365.205.212.307.516.307.913 0 .468-.173.839-.518 1.114-.346.276-.81.413-1.393.413h-.452zm5.94.01c-.423 0-.788-.08-1.096-.24a1.744 1.744 0 01-.72-.692c-.167-.307-.25-.669-.25-1.085v-1.403c0-.423.083-.784.25-1.085.173-.301.413-.532.72-.692.308-.16.673-.24 1.096-.24.422 0 .787.08 1.095.24.307.16.544.391.71.692.173.301.26.659.26 1.075v1.413c0 .416-.087.778-.26 1.085a1.683 1.683 0 01-.71.692c-.308.16-.673.24-1.096.24zm0-.768c.377 0 .672-.106.883-.317.212-.212.317-.522.317-.932v-1.403c0-.41-.105-.72-.317-.932-.211-.211-.506-.317-.883-.317-.372 0-.666.106-.884.317-.212.212-.317.522-.317.932v1.403c0 .41.105.72.317.932.218.211.512.317.883.317zm3.71.691v-5.283h2.287c.55 0 .976.124 1.277.374.301.244.452.586.452 1.028 0 .365-.125.66-.375.884-.25.218-.58.327-.99.327v-.077c.449 0 .808.112 1.077.336.275.224.413.525.413.903 0 .474-.16.845-.48 1.114-.32.263-.77.394-1.346.394h-2.315zm.846-.759h1.47c.307 0 .544-.067.71-.201a.679.679 0 00.26-.567c0-.25-.087-.442-.26-.577-.166-.134-.403-.201-.71-.201h-1.47v1.546zm0-2.296h1.44c.27 0 .48-.064.635-.192.16-.128.24-.307.24-.538 0-.23-.077-.41-.23-.538-.154-.134-.369-.202-.644-.202h-1.441v1.47zm6.362 3.151c-.558 0-.996-.141-1.316-.422-.32-.289-.48-.676-.48-1.163 0-.493.16-.88.48-1.162.32-.282.752-.423 1.297-.423h1.633v-.528c0-.327-.1-.577-.298-.75-.192-.179-.468-.269-.826-.269-.314 0-.577.068-.788.202a.717.717 0 00-.365.529h-.865c.058-.455.272-.817.644-1.086.371-.269.836-.404 1.393-.404.608 0 1.089.157 1.44.471.353.314.53.74.53 1.278v3.631h-.846v-1.008h-.144l.144-.145c0 .385-.15.689-.452.913-.294.224-.688.336-1.181.336zm.211-.682c.41 0 .746-.102 1.009-.307a.957.957 0 00.394-.788v-.749H67.88c-.288 0-.516.08-.682.24-.167.16-.25.378-.25.653 0 .295.1.529.298.701.205.167.486.25.845.25zm3.96.586v-5.283h.865v2.199h2.229v-2.199h.864v5.283h-.864v-2.296h-2.229v2.296h-.865zm5.69 0v-5.283h.826v2.882c0 .185-.006.381-.019.586a8.2 8.2 0 01-.038.586 6.11 6.11 0 01-.048.461l2.132-4.515H81.7v5.283h-.826v-2.882c0-.186.003-.381.01-.586.012-.205.028-.4.048-.586l.048-.471-2.133 4.525h-1.105zm5.363 0l1.355-2.036c-.404-.096-.718-.282-.942-.558-.218-.275-.326-.618-.326-1.027 0-.519.17-.926.509-1.221.346-.294.816-.441 1.412-.441h2.277v5.283h-.865v-1.969h-1.162l-1.25 1.969h-1.008zm2.008-2.738h1.412v-1.777h-1.412c-.32 0-.573.08-.759.24-.186.154-.278.372-.278.654 0 .275.092.493.278.653.186.153.439.23.759.23zm11.696 2.834c-.422 0-.794-.08-1.114-.24a1.73 1.73 0 01-.73-.692c-.173-.307-.26-.669-.26-1.085v-1.441c0-.423.087-.785.26-1.086.173-.301.416-.531.73-.691.32-.16.692-.241 1.114-.241.609 0 1.099.164 1.47.49.372.327.567.772.586 1.336h-.864c-.02-.34-.135-.599-.346-.778-.205-.186-.487-.279-.846-.279-.377 0-.678.109-.903.327-.224.211-.336.515-.336.912v1.451c0 .397.112.704.336.922.224.218.525.327.903.327.359 0 .64-.093.846-.279.211-.186.326-.445.346-.778h.864c-.019.564-.214 1.009-.586 1.335-.371.327-.861.49-1.47.49zm3.692-.096v-5.283h.826v2.882c0 .185-.006.381-.019.586-.007.205-.019.4-.039.586a5.376 5.376 0 01-.048.461l2.133-4.515h1.105v5.283h-.826v-2.882c0-.186.003-.381.009-.586.013-.205.029-.4.048-.586l.048-.471-2.132 4.525h-1.105zm7.688.096c-.423 0-.795-.08-1.115-.24a1.73 1.73 0 01-.73-.692c-.173-.307-.259-.669-.259-1.085v-1.441c0-.423.086-.785.259-1.086.173-.301.416-.531.73-.691.32-.16.692-.241 1.115-.241.608 0 1.098.164 1.469.49.372.327.567.772.586 1.336h-.864c-.019-.34-.135-.599-.346-.778-.205-.186-.487-.279-.845-.279-.378 0-.679.109-.903.327-.225.211-.337.515-.337.912v1.451c0 .397.112.704.337.922.224.218.525.327.903.327.358 0 .64-.093.845-.279.211-.186.327-.445.346-.778h.864c-.019.564-.214 1.009-.586 1.335-.371.327-.861.49-1.469.49zm5.238-.096v-4.525h-1.922v-.758h4.708v.758h-1.922v4.525h-.864zm6.122.096c-.417 0-.782-.083-1.095-.249a1.81 1.81 0 01-.721-.702 2.209 2.209 0 01-.25-1.066v-1.441c0-.41.084-.765.25-1.066a1.81 1.81 0 01.721-.702c.313-.166.678-.25 1.095-.25.416 0 .778.084 1.085.25.314.167.554.401.721.702.173.301.259.656.259 1.066v.932h-3.285v.509c0 .416.105.736.317.961.211.217.512.326.903.326.333 0 .602-.057.807-.173a.758.758 0 00.374-.538h.865a1.473 1.473 0 01-.653 1.057c-.372.256-.836.384-1.393.384zm1.22-3.103v-.355c0-.416-.106-.737-.317-.961-.205-.224-.506-.336-.903-.336-.391 0-.692.112-.903.336-.212.224-.317.545-.317.961v.278h2.507l-.067.077zm2.317 3.007v-5.283h1.173l.691 2.027c.071.205.135.409.192.614.058.199.1.353.125.462.026-.109.064-.263.115-.462.058-.205.119-.413.183-.624l.653-2.017h1.172v5.283h-.835v-.816c0-.289.003-.602.009-.942l.019-1.028.039-.98c.013-.313.022-.589.029-.826l-.942 3.007h-.913l-.951-2.988c.013.289.023.647.029 1.076.013.429.023.878.029 1.345.013.468.019.913.019 1.336v.816h-.836zm7.842.096c-.243 0-.439-.07-.586-.211-.141-.141-.211-.33-.211-.567 0-.25.07-.448.211-.595.147-.148.343-.221.586-.221.243 0 .436.073.576.221.148.147.221.345.221.595 0 .237-.073.426-.221.567-.14.141-.333.211-.576.211zM14.73 28v-7.013h1.201v2.834h.836l1.316-2.834h1.306l-1.566 3.362L19.466 28h-1.335l-1.384-3.084h-.816V28h-1.2zm7.842.087c-.449 0-.84-.084-1.172-.25a1.938 1.938 0 01-.769-.72c-.18-.315-.269-.683-.269-1.106v-1.306c0-.423.09-.788.27-1.095a1.84 1.84 0 01.768-.72c.333-.174.723-.26 1.172-.26.454 0 .845.086 1.172.26.326.166.58.406.759.72.185.307.278.669.278 1.085v1.316c0 .423-.093.791-.278 1.105-.18.308-.433.548-.76.72-.326.167-.717.25-1.171.25zm0-1.048c.32 0 .567-.086.74-.26.179-.178.268-.435.268-.768v-1.306c0-.34-.09-.596-.269-.769-.172-.173-.42-.259-.74-.259-.313 0-.56.086-.739.26-.18.172-.269.428-.269.768v1.306c0 .333.09.59.269.769.18.173.426.26.74.26zm3.557.961v-5.284h1.2v2.046h1.864v-2.046h1.201V28h-1.2v-2.123H27.33V28h-1.201zm7.217 0v-4.179H31.54v-1.105h4.822v1.105h-1.806V28h-1.21zm4.152 1.73v-7.014h1.172v1.009h.27l-.27.279c0-.43.128-.766.385-1.01.256-.249.602-.374 1.037-.374.532 0 .958.183 1.278.548.32.365.48.855.48 1.47v1.431c0 .41-.074.769-.22 1.076a1.625 1.625 0 01-.606.701 1.7 1.7 0 01-.932.25c-.435 0-.781-.122-1.037-.365-.257-.25-.385-.59-.385-1.018l.27.278h-.28l.04 1.259v1.48h-1.202zm2.172-2.672c.307 0 .547-.09.72-.268.173-.18.26-.436.26-.769v-1.326c0-.333-.087-.589-.26-.768-.173-.18-.413-.27-.72-.27-.302 0-.538.094-.711.28-.173.179-.26.432-.26.758v1.326c0 .327.087.583.26.769.172.179.41.268.71.268zm5.66 1.029c-.448 0-.839-.084-1.172-.25a1.939 1.939 0 01-.768-.72c-.18-.315-.27-.683-.27-1.106v-1.306c0-.423.09-.788.27-1.095.185-.314.442-.554.768-.72.333-.174.724-.26 1.172-.26.455 0 .846.086 1.172.26.327.166.58.406.76.72.185.307.278.669.278 1.085v1.316c0 .423-.093.791-.279 1.105-.18.308-.432.548-.759.72-.326.167-.717.25-1.172.25zm0-1.048c.32 0 .567-.086.74-.26.18-.178.269-.435.269-.768v-1.306c0-.34-.09-.596-.269-.769-.173-.173-.42-.259-.74-.259-.313 0-.56.086-.74.26-.179.172-.268.428-.268.768v1.306c0 .333.09.59.269.769.179.173.425.26.74.26zm3.029 1.028v-1.095h.24a.54.54 0 00.49-.26c.115-.179.176-.46.183-.845l.057-3.15h3.824V28h-1.201v-4.17H50.51l-.039 2.105c-.012.46-.09.851-.23 1.172a1.609 1.609 0 01-.605.72c-.263.16-.583.24-.961.24h-.317zM54.615 28v-5.284h1.201v1.73h1.364c.64 0 1.14.16 1.499.48.365.314.548.75.548 1.306 0 .545-.186.977-.558 1.297-.365.314-.858.471-1.48.471h-2.574zm1.201-1.057h1.316c.282 0 .497-.06.644-.182.154-.128.23-.308.23-.538 0-.23-.076-.407-.23-.529-.147-.128-.362-.192-.644-.192h-1.316v1.441zM65.946 28v-5.284h2.345c.608 0 1.085.128 1.431.385.352.25.528.595.528 1.037 0 .359-.137.647-.413.865-.269.217-.627.326-1.076.326v-.086c.487 0 .878.115 1.172.346.295.224.442.525.442.903 0 .467-.179.835-.538 1.104-.352.27-.839.404-1.46.404h-2.43zm1.182-.913h1.21c.27 0 .481-.06.635-.182a.593.593 0 00.23-.49.613.613 0 00-.23-.51c-.154-.121-.365-.182-.634-.182h-1.21v1.364zm0-2.17H68.3c.237 0 .426-.058.567-.174a.576.576 0 00.211-.47.576.576 0 00-.21-.471c-.135-.122-.324-.183-.568-.183h-1.172v1.297zM71.646 28v-5.284h1.2v2.046h1.864v-2.046h1.201V28h-1.2v-2.123h-1.864V28h-1.201zm7.832.096c-.448 0-.84-.086-1.172-.26a1.923 1.923 0 01-.778-.72 2.168 2.168 0 01-.27-1.095v-1.326c0-.416.09-.778.27-1.085a1.89 1.89 0 01.778-.73c.333-.173.724-.26 1.172-.26.442 0 .826.087 1.153.26.333.172.589.416.768.73.186.307.279.669.279 1.085v.951H78.42v.375c0 .371.09.653.27.845.178.186.444.279.796.279.27 0 .487-.045.654-.134a.642.642 0 00.317-.414h1.181c-.09.455-.333.82-.73 1.096-.39.269-.868.403-1.431.403zm1.037-3.122v-.288c0-.365-.086-.644-.259-.836-.173-.199-.432-.298-.778-.298-.346 0-.609.1-.788.298-.18.198-.269.48-.269.845v.202l2.18-.02-.086.097zm2.001 4.37v-2.362h.355c.11-.11.221-.308.337-.596.121-.294.185-.66.192-1.095l.057-2.575h3.7v4.266h.624v2.363h-1.105V28H83.62v1.345h-1.105zm1.575-2.362h1.922v-3.219h-1.441l-.039 1.528c-.006.429-.06.79-.163 1.085-.096.289-.189.49-.279.606zm4.614 2.747v-7.013h1.172v1.009h.27l-.27.279c0-.43.128-.766.385-1.01.256-.249.602-.374 1.037-.374.532 0 .957.183 1.278.548.32.365.48.855.48 1.47v1.431c0 .41-.074.769-.22 1.076a1.631 1.631 0 01-.606.701 1.7 1.7 0 01-.932.25c-.436 0-.781-.122-1.038-.365-.256-.25-.384-.59-.384-1.018l.27.278h-.28l.04 1.259v1.48h-1.202zm2.171-2.67c.308 0 .548-.09.72-.27.174-.179.26-.435.26-.768v-1.326c0-.333-.086-.589-.26-.768-.172-.18-.412-.27-.72-.27-.3 0-.538.094-.71.28-.173.179-.26.432-.26.758v1.326c0 .327.087.583.26.769.172.179.41.268.71.268zm5.67 1.037c-.448 0-.838-.086-1.171-.26a1.923 1.923 0 01-.778-.72 2.17 2.17 0 01-.27-1.095v-1.326c0-.416.09-.778.27-1.085a1.89 1.89 0 01.778-.73c.333-.173.724-.26 1.172-.26.442 0 .826.087 1.153.26.333.172.589.416.768.73.186.307.279.669.279 1.085v.951H95.49v.375c0 .371.09.653.269.845.18.186.445.279.797.279.27 0 .487-.045.654-.134a.642.642 0 00.317-.414h1.181c-.09.455-.333.82-.73 1.096-.39.269-.868.403-1.431.403zm1.038-3.122v-.288c0-.365-.086-.644-.26-.836-.172-.199-.431-.298-.777-.298-.346 0-.609.1-.788.298-.18.198-.269.48-.269.845v.202l2.18-.02-.086.097zm2.51 3.026v-5.284h1.201v2.046h1.864v-2.046h1.201V28h-1.201v-2.123h-1.864V28h-1.201zm5.69 0v-5.284h1.085v2.604c0 .166-.009.365-.028.595a13.964 13.964 0 01-.135 1.23l1.864-4.429h1.479V28h-1.085v-2.603c0-.173.006-.365.019-.577l.057-.624c.026-.205.052-.378.077-.519L107.263 28h-1.479zm5.459 0l1.239-1.931a1.65 1.65 0 01-.855-.586 1.61 1.61 0 01-.307-.99c0-.557.185-.992.557-1.306.371-.314.884-.47 1.537-.47h2.325V28h-1.191v-1.797h-.855L112.617 28h-1.374zm2.219-2.757h1.086v-1.537h-1.086c-.295 0-.525.067-.692.201-.166.135-.249.327-.249.577 0 .237.083.423.249.557.167.135.397.202.692.202zm5.834-1.009c-.269 0-.487-.074-.653-.22a.775.775 0 01-.241-.587c0-.243.08-.439.241-.586.166-.147.384-.22.653-.22s.483.073.643.22c.167.147.25.343.25.586a.761.761 0 01-.25.586c-.16.147-.374.221-.643.221zm0 3.862c-.269 0-.487-.074-.653-.22a.756.756 0 01-.241-.587c0-.243.08-.439.241-.586.166-.147.384-.22.653-.22s.483.073.643.22c.167.147.25.343.25.586a.743.743 0 01-.25.586c-.16.147-.374.221-.643.221z" fill="#000"/><defs><filter id="filter0_d_2004_56" x=".804" y="0" width="179.646" height="178.685" filterUnits="userSpaceOnUse" color-interpolation-filters="sRGB"><feFlood flood-opacity="0" result="BackgroundImageFix"/><feColorMatrix in="SourceAlpha" values="0 0 0 0 0 0 0 0 0 0 0 0 0 0 0 0 0 0 127 0" result="hardAlpha"/><feOffset dy="3.843"/><feGaussianBlur stdDeviation="1.921"/><feComposite in2="hardAlpha" operator="out"/><feColorMatrix values="0 0 0 0 0 0 0 0 0 0 0 0 0 0 0 0 0 0 0.25 0"/><feBlend in2="BackgroundImageFix" result="effect1_dropShadow_2004_56"/><feBlend in="SourceGraphic" in2="effect1_dropShadow_2004_56" result="shape"/></filter></defs></svg>