<svg width="181" height="179" fill="none" xmlns="http://www.w3.org/2000/svg"><g filter="url(#filter0_d_2004_58)"><rect x="4.646" width="171.961" height="171" rx="16.011" fill="#AB9F85"/></g><mask id="a" style="mask-type:alpha" maskUnits="userSpaceOnUse" x="4" y="0" width="173" height="43"><path fill="#C9D9CD" d="M4.646 0h171.961v42.27H4.646z"/></mask><g mask="url(#a)"><rect x="4.646" y="-1.69" width="171.961" height="118.355" rx="16.011" fill="#F5ECDB"/></g><path d="M15.156 60.073V53.06h3.958v7.013h-.865v-6.225h-2.228v6.225h-.865zm7.669.077c-.423 0-.788-.08-1.096-.24a1.744 1.744 0 01-.72-.692c-.167-.307-.25-.669-.25-1.085V56.73c0-.423.083-.784.25-1.085a1.74 1.74 0 01.72-.692c.308-.16.673-.24 1.096-.24.422 0 .787.08 1.095.24.307.16.544.39.71.691.174.302.26.66.26 1.077v1.412c0 .416-.086.778-.26 1.085a1.683 1.683 0 01-.71.692c-.308.16-.673.24-1.095.24zm0-.768c.378 0 .672-.106.883-.317.212-.212.317-.522.317-.932V56.73c0-.41-.105-.72-.317-.932-.21-.211-.505-.317-.883-.317-.372 0-.666.106-.884.317-.212.212-.317.522-.317.932v1.403c0 .41.105.72.317.931.218.212.512.318.884.318zm3.095 2.036v-2.084h.433c.109-.11.22-.324.336-.644.122-.32.186-.727.192-1.22l.058-2.68h3.449v4.544h.672v2.084h-.768v-1.345h-3.603v1.345h-.769zm1.345-2.084h2.258v-3.776h-1.768l-.038 1.931c-.006.506-.06.916-.163 1.23-.103.313-.199.518-.289.614zm5.306.74v-5.285h3.794v.788h-2.93v4.496h-.864zm7.323.076c-.423 0-.788-.08-1.096-.24a1.743 1.743 0 01-.72-.692c-.167-.307-.25-.669-.25-1.085V56.73c0-.423.083-.784.25-1.085a1.74 1.74 0 01.72-.692c.308-.16.673-.24 1.096-.24.422 0 .787.08 1.095.24.307.16.544.39.71.691.174.302.26.66.26 1.077v1.412c0 .416-.086.778-.26 1.085a1.682 1.682 0 01-.71.692c-.308.16-.673.24-1.095.24zm0-.768c.377 0 .672-.106.883-.317.212-.212.317-.522.317-.932V56.73c0-.41-.105-.72-.317-.932-.211-.211-.506-.317-.883-.317-.372 0-.666.106-.884.317-.212.212-.317.522-.317.932v1.403c0 .41.105.72.317.931.218.212.512.318.884.318zm5.257.691v-4.525H43.23v-.759h4.707v.76h-1.921v4.524h-.865zm6.122.077c-.423 0-.788-.08-1.095-.24a1.743 1.743 0 01-.72-.692c-.167-.307-.25-.669-.25-1.085V56.73c0-.423.083-.784.25-1.085.172-.302.412-.532.72-.692.307-.16.672-.24 1.095-.24.423 0 .788.08 1.095.24.307.16.544.39.71.691.174.302.26.66.26 1.077v1.412c0 .416-.086.778-.26 1.085a1.682 1.682 0 01-.71.692c-.307.16-.672.24-1.095.24zm0-.768c.378 0 .672-.106.884-.317.211-.212.317-.522.317-.932V56.73c0-.41-.106-.72-.317-.932-.212-.211-.506-.317-.884-.317-.372 0-.666.106-.884.317-.211.212-.317.522-.317.932v1.403c0 .41.106.72.317.931.218.212.512.318.884.318zm3.71.691V54.79h2.287c.55 0 .977.125 1.278.375.3.244.451.586.451 1.028 0 .365-.125.66-.375.884-.25.218-.58.327-.989.327v-.077c.448 0 .807.112 1.076.336.275.224.413.525.413.903 0 .474-.16.845-.48 1.114-.32.263-.769.394-1.345.394h-2.316zm.846-.759h1.47c.307 0 .544-.067.71-.201.174-.135.26-.324.26-.567 0-.25-.086-.442-.26-.577-.166-.134-.403-.201-.71-.201h-1.47v1.546zm0-2.296h1.441c.269 0 .48-.064.634-.192.16-.128.24-.307.24-.538 0-.23-.077-.41-.23-.538-.154-.134-.369-.202-.644-.202h-1.441v1.47zm4.844 3.055V54.79h.826v2.883c0 .185-.006.38-.019.586a8.13 8.13 0 01-.038.586 6.83 6.83 0 01-.048.46l2.132-4.515h1.105v5.284h-.826v-2.882c0-.186.003-.38.01-.586.012-.205.028-.4.048-.586l.048-.47-2.133 4.524h-1.105zm5.027.068v-.807h.173c.294 0 .5-.116.615-.346.121-.23.186-.644.192-1.24l.057-2.959h3.584v5.284h-.865v-4.496h-1.864l-.047 2.21c-.013.557-.077 1.008-.193 1.354-.109.346-.281.6-.518.76-.231.16-.535.24-.913.24H65.7zm6.352-.068V54.79h.827v2.883c0 .185-.007.38-.02.586a8.13 8.13 0 01-.038.586 6.233 6.233 0 01-.048.46l2.133-4.515h1.104v5.284h-.826v-2.882c0-.186.004-.38.01-.586.013-.205.029-.4.048-.586l.048-.47-2.133 4.524h-1.105zm11.38 0V54.79h.826v2.883c0 .185-.006.38-.02.586-.006.204-.018.4-.038.586a6.233 6.233 0 01-.048.46l2.133-4.515h1.105v5.284h-.826v-2.882c0-.186.003-.38.01-.586.012-.205.028-.4.047-.586l.048-.47-2.132 4.524h-1.105zm5.69 0V54.79h.864v2.2h2.229v-2.2h.864v5.284h-.864v-2.296h-2.229v2.296h-.865zm7.687.096a2.46 2.46 0 01-1.114-.24 1.73 1.73 0 01-.73-.692c-.173-.307-.26-.669-.26-1.085V56.71c0-.423.087-.785.26-1.086a1.73 1.73 0 01.73-.691c.32-.16.692-.24 1.114-.24.609 0 1.099.163 1.47.49.372.326.567.771.586 1.335h-.864c-.02-.34-.135-.6-.346-.778-.205-.186-.487-.279-.846-.279-.377 0-.678.109-.903.327-.224.211-.336.515-.336.912v1.45c0 .398.112.705.336.923.224.218.525.327.903.327.359 0 .64-.093.846-.279.211-.186.326-.445.346-.778h.864c-.019.564-.214 1.009-.586 1.335-.371.327-.861.49-1.47.49zm5.238-.096v-4.525h-1.921v-.759h4.707v.76h-1.921v4.524h-.865zm4.124 1.73v-7.014h.865v1.01h.173l-.173.201c0-.404.131-.72.394-.951.269-.237.621-.355 1.056-.355.532 0 .955.176 1.269.528.32.346.48.823.48 1.431V58.2c0 .403-.074.752-.221 1.047a1.574 1.574 0 01-.605.682c-.256.16-.564.24-.923.24-.429 0-.778-.118-1.047-.355-.269-.237-.403-.554-.403-.951l.173.202h-.192l.019 1.2v1.538h-.865zm2.027-2.383c.365 0 .65-.109.855-.327.212-.217.317-.531.317-.941V56.71c0-.41-.105-.724-.317-.942-.205-.217-.49-.326-.855-.326-.352 0-.634.112-.845.336-.211.224-.317.535-.317.932v1.44c0 .398.106.709.317.933.211.224.493.336.845.336zm4.489 2.383l.778-2.056-1.96-4.958h.961l1.23 3.267c.045.109.086.24.125.394l.096.374c.025-.102.057-.227.096-.374.038-.154.077-.285.115-.394l1.153-3.267h.932l-2.604 7.014h-.922zm4.912-1.73V54.79h.864v2.181h.903l1.537-2.18h.99l-1.777 2.517 1.806 2.766h-1.009l-1.537-2.353h-.913v2.353h-.864zm7.207 0v-4.525h-1.921v-.759h4.707v.76h-1.921v4.524h-.865zm5.661.096c-.557 0-.996-.14-1.316-.422-.32-.289-.481-.676-.481-1.163 0-.493.161-.88.481-1.162.32-.282.752-.423 1.297-.423h1.633v-.528c0-.327-.099-.577-.298-.75-.192-.179-.467-.269-.826-.269-.314 0-.577.068-.788.202a.719.719 0 00-.365.528h-.865c.058-.454.273-.816.644-1.085.372-.269.836-.404 1.393-.404.609 0 1.089.157 1.441.471.352.314.528.74.528 1.278v3.631h-.845v-1.008h-.144l.144-.145c0 .385-.15.689-.451.913-.295.224-.689.336-1.182.336zm.211-.682c.41 0 .746-.102 1.009-.307a.955.955 0 00.394-.788v-.75h-1.614c-.288 0-.516.08-.682.24-.167.161-.25.379-.25.654 0 .295.099.529.298.701.205.167.487.25.845.25zm3.231.586l1.152-2.709-1.076-2.575h.836l.922 2.306h.51V54.79h.73v2.306h.49l.951-2.306h.826l-1.076 2.546 1.153 2.738h-.865l-.96-2.401h-.519v2.401h-.73v-2.401h-.519l-.97 2.401h-.855zm-118.753 19V73.79h.826v2.882c0 .185-.006.38-.02.586-.005.205-.018.4-.037.586-.013.179-.03.333-.049.46l2.133-4.514h1.105v5.283h-.826v-2.882c0-.186.003-.38.01-.586.012-.205.028-.4.047-.586l.048-.47-2.132 4.524h-1.105zm11.36 1.73V73.79h.865v1.008h.173L27.38 75c0-.403.131-.72.393-.951.27-.237.622-.356 1.057-.356.532 0 .955.177 1.268.529.32.346.48.823.48 1.431V77.2c0 .403-.073.752-.22 1.047a1.57 1.57 0 01-.606.682c-.256.16-.563.24-.922.24-.429 0-.778-.118-1.047-.355-.269-.237-.403-.554-.403-.951l.173.201h-.192l.019 1.201v1.537h-.865zm2.027-2.383c.365 0 .65-.109.855-.327.211-.217.317-.531.317-.941V75.71c0-.41-.106-.724-.317-.942-.205-.217-.49-.326-.855-.326-.352 0-.634.112-.845.336-.212.224-.317.535-.317.932v1.44c0 .398.105.709.317.933.211.224.493.336.845.336zm4.489 2.382l.778-2.055-1.96-4.957h.96l1.23 3.266c.045.109.087.24.126.394l.096.374c.025-.102.057-.227.096-.374a4.47 4.47 0 01.115-.394l1.153-3.266h.932l-2.604 7.012h-.922zm4.911-1.729V73.79h.865v2.18h.903l1.537-2.18h.99l-1.778 2.516 1.806 2.767h-1.008L39.72 76.72h-.913v2.353h-.865zm7.64.077c-.422 0-.788-.08-1.095-.24a1.742 1.742 0 01-.72-.692c-.167-.307-.25-.669-.25-1.085V75.73c0-.423.083-.785.25-1.086.172-.3.413-.531.72-.691.307-.16.672-.24 1.095-.24.423 0 .788.08 1.095.24.308.16.545.39.711.691.173.301.26.66.26 1.076v1.413c0 .416-.087.778-.26 1.085a1.683 1.683 0 01-.71.692c-.308.16-.673.24-1.096.24zm0-.768c.378 0 .673-.106.884-.318.211-.21.317-.521.317-.931V75.73c0-.41-.106-.72-.317-.932-.211-.211-.506-.317-.884-.317-.371 0-.666.106-.884.317-.21.212-.317.522-.317.932v1.403c0 .41.106.72.317.931.218.212.513.318.884.318zm3.71.691V73.79h2.287c.551 0 .977.124 1.278.374.301.244.452.586.452 1.028 0 .365-.125.66-.375.884-.25.218-.58.327-.99.327v-.077c.449 0 .807.112 1.076.336.276.224.413.525.413.903 0 .474-.16.845-.48 1.114-.32.263-.769.394-1.345.394h-2.315zm.846-.759h1.47c.307 0 .544-.067.711-.201a.679.679 0 00.26-.567c0-.25-.087-.442-.26-.577-.166-.134-.404-.201-.71-.201h-1.47v1.546zm0-2.296h1.441c.27 0 .48-.064.634-.192.16-.128.24-.307.24-.538 0-.23-.076-.41-.23-.538-.154-.134-.368-.201-.644-.201h-1.44v1.47zm6.823 3.132c-.422 0-.787-.08-1.095-.24a1.743 1.743 0 01-.72-.692c-.167-.307-.25-.669-.25-1.085V75.73c0-.423.083-.785.25-1.086.173-.3.413-.531.72-.691.308-.16.673-.24 1.096-.24.422 0 .787.08 1.095.24.307.16.544.39.71.691.173.301.26.66.26 1.076v1.413c0 .416-.087.778-.26 1.085a1.683 1.683 0 01-.71.692c-.308.16-.673.24-1.096.24zm0-.768c.378 0 .673-.106.884-.318.212-.21.317-.521.317-.931V75.73c0-.41-.105-.72-.317-.932-.211-.211-.506-.317-.883-.317-.372 0-.666.106-.884.317-.212.212-.317.522-.317.932v1.403c0 .41.105.72.317.931.218.212.512.318.883.318zm3.096 2.036v-2.085h.433c.109-.108.22-.323.336-.643.122-.32.186-.727.192-1.22l.058-2.68h3.448v4.543h.673v2.085h-.769v-1.345h-3.602v1.345h-.769zm1.345-2.085h2.258v-3.775h-1.768l-.038 1.931c-.007.506-.061.916-.163 1.23-.103.314-.199.519-.289.615zm6.958.836a2.46 2.46 0 01-1.114-.24 1.73 1.73 0 01-.73-.692c-.173-.307-.26-.669-.26-1.085V75.71c0-.423.087-.785.26-1.086a1.73 1.73 0 01.73-.691c.32-.16.691-.24 1.114-.24.608 0 1.098.163 1.47.49.371.326.567.771.586 1.335h-.865c-.019-.34-.134-.6-.346-.778-.205-.186-.486-.279-.845-.279-.378 0-.679.109-.903.327-.224.211-.336.515-.336.912v1.45c0 .398.112.705.336.923.224.218.525.327.903.327.359 0 .64-.093.846-.279.21-.186.326-.445.345-.778h.865c-.02.564-.215 1.009-.586 1.335-.372.327-.862.49-1.47.49zm5.238-.096V74.55h-1.921v-.76h4.707v.76h-1.921v4.524h-.865zm4.143 0V73.79h2.287c.55 0 .976.124 1.277.374.301.244.452.586.452 1.028 0 .365-.125.66-.375.884-.25.218-.58.327-.99.327v-.077c.449 0 .808.112 1.077.336.275.224.413.525.413.903 0 .474-.16.845-.48 1.114-.32.263-.77.394-1.346.394h-2.315zm.846-.759h1.47c.307 0 .544-.067.71-.201a.679.679 0 00.26-.567c0-.25-.087-.442-.26-.577-.166-.134-.403-.201-.71-.201h-1.47v1.546zm0-2.296h1.44c.27 0 .48-.064.635-.192.16-.128.24-.307.24-.538 0-.23-.077-.41-.23-.538-.154-.134-.369-.201-.644-.201h-1.441v1.47zm6.823 3.132c-.423 0-.788-.08-1.095-.24a1.744 1.744 0 01-.72-.692c-.167-.307-.25-.669-.25-1.085V75.73c0-.423.083-.785.25-1.086.172-.3.412-.531.72-.691.307-.16.672-.24 1.095-.24.422 0 .788.08 1.095.24.307.16.544.39.71.691.174.301.26.66.26 1.076v1.413c0 .416-.086.778-.26 1.085a1.683 1.683 0 01-.71.692c-.307.16-.672.24-1.095.24zm0-.768c.378 0 .672-.106.884-.318.211-.21.317-.521.317-.931V75.73c0-.41-.106-.72-.317-.932-.212-.211-.506-.317-.884-.317-.372 0-.666.106-.884.317-.211.212-.317.522-.317.932v1.403c0 .41.106.72.317.931.218.212.512.318.884.318zm8.785 2.036v-2.085h.433c.108-.108.22-.323.336-.643.121-.32.186-.727.192-1.22l.058-2.68h3.448v4.543h.673v2.085h-.769v-1.345h-3.602v1.345h-.769zm1.345-2.085H97.8v-3.775h-1.77l-.038 1.931c-.007.506-.061.916-.164 1.23-.102.314-.198.519-.288.615zm4.297.808v-.808h.173c.294 0 .499-.115.615-.345.121-.23.185-.644.192-1.24l.057-2.959h3.584v5.284h-.865v-4.496h-1.864l-.048 2.21c-.012.557-.076 1.008-.192 1.354-.109.346-.282.6-.518.76-.231.16-.535.24-.913.24h-.221zm6.026-.068l1.354-2.036c-.403-.097-.717-.282-.941-.558-.218-.275-.327-.618-.327-1.028 0-.518.17-.925.509-1.22.346-.294.817-.441 1.413-.441h2.276v5.283h-.864v-1.97h-1.163l-1.248 1.97h-1.009zm2.008-2.738h1.412v-1.777h-1.412c-.321 0-.574.08-.759.24-.186.154-.279.372-.279.653 0 .276.093.494.279.654.185.153.438.23.759.23zm-93.33 23.083v-2.085h.431c.11-.108.221-.323.337-.643.121-.32.185-.727.192-1.22l.057-2.68h3.45v4.543h.672v2.085h-.769v-1.345H15.31v1.345h-.769zm1.344-2.085h2.258v-3.775h-1.768l-.038 1.931c-.007.506-.061.916-.164 1.23-.102.314-.198.519-.288.615zm6.477.836c-.557 0-.995-.14-1.316-.422-.32-.289-.48-.676-.48-1.163 0-.493.16-.88.48-1.162.32-.282.753-.423 1.297-.423h1.633v-.528c0-.327-.099-.577-.297-.75-.192-.179-.468-.269-.827-.269-.313 0-.576.068-.787.202a.718.718 0 00-.365.529h-.865c.058-.455.272-.817.644-1.086.371-.269.835-.403 1.393-.403.608 0 1.088.156 1.44.47.353.314.529.74.529 1.278v3.631h-.845v-1.008h-.145l.145-.145c0 .385-.15.689-.452.913-.295.224-.688.336-1.182.336zm.212-.682c.41 0 .746-.102 1.009-.307a.956.956 0 00.393-.788v-.75h-1.614c-.288 0-.515.08-.682.24-.166.161-.25.379-.25.654 0 .295.1.528.298.701.205.167.487.25.846.25zm3.297.654v-.808h.173c.295 0 .5-.115.615-.345.122-.23.186-.644.192-1.24l.058-2.959h3.583v5.284h-.864v-4.496h-1.864l-.048 2.21c-.013.557-.077 1.008-.192 1.354-.11.346-.282.6-.519.76-.23.16-.535.24-.913.24h-.22zm6.391-.068V92.79h.865v1.94h1.556c.596 0 1.063.15 1.403.452.346.294.519.7.519 1.22 0 .512-.173.919-.52 1.22-.345.3-.813.451-1.402.451h-2.42zm.865-.787h1.556c.333 0 .586-.074.76-.222.178-.153.268-.374.268-.662 0-.288-.09-.506-.269-.654-.173-.153-.426-.23-.759-.23h-1.556v1.767zm4.787.787V92.79h.864v2.2h2.229v-2.2h.865v5.283h-.865v-2.296h-2.229v2.296h-.864zm7.668.096c-.416 0-.781-.083-1.095-.25a1.806 1.806 0 01-.72-.7 2.203 2.203 0 01-.25-1.067V94.71c0-.41.083-.766.25-1.067.172-.3.413-.534.72-.7.314-.167.679-.25 1.095-.25.416 0 .778.083 1.086.25.314.166.554.4.72.7.173.301.26.657.26 1.067v.932h-3.286v.509c0 .416.106.736.317.96.212.218.513.327.903.327.333 0 .602-.057.807-.173a.764.764 0 00.375-.538h.864a1.472 1.472 0 01-.653 1.057c-.371.256-.836.384-1.393.384zm1.22-3.103v-.355c0-.416-.105-.737-.317-.96-.205-.225-.506-.337-.903-.337-.39 0-.691.112-.903.336-.211.224-.317.545-.317.96v.28h2.508l-.068.076zm2.49 3.007V92.79h.827v2.882c0 .185-.006.38-.02.586-.006.205-.018.4-.038.586a5.306 5.306 0 01-.048.46l2.133-4.514h1.105v5.283h-.826v-2.882c0-.186.003-.38.01-.586.012-.205.028-.4.047-.586l.048-.47-2.132 4.524h-1.105zm2.018-6.148c-.46 0-.832-.128-1.114-.384-.282-.257-.423-.593-.423-1.01h.682c0 .25.077.453.23.606.155.154.36.23.616.23.262 0 .47-.076.624-.23a.8.8 0 00.24-.605h.682c0 .416-.14.752-.422 1.009-.282.256-.654.384-1.115.384zm3.404 6.148l-.02-5.283h.807v4.63h1.124v-4.63h.692v4.63h1.114v-4.63h.798v5.283h-4.515zm7.937.096c-.416 0-.781-.083-1.095-.25a1.807 1.807 0 01-.72-.7 2.204 2.204 0 01-.25-1.067V94.71c0-.41.083-.766.25-1.067.172-.3.413-.534.72-.7.314-.167.679-.25 1.095-.25.416 0 .778.083 1.086.25.314.166.554.4.72.7.173.301.26.657.26 1.067v.932h-3.286v.509c0 .416.106.736.317.96.212.218.512.327.903.327.333 0 .602-.057.807-.173a.763.763 0 00.375-.538h.864a1.472 1.472 0 01-.653 1.057c-.371.256-.836.384-1.393.384zm1.22-3.103v-.355c0-.416-.105-.737-.317-.96-.205-.225-.506-.337-.903-.337-.39 0-.691.112-.903.336-.211.224-.317.545-.317.96v.28h2.508l-.068.076zm2.837 3.007V92.79h3.794v.787h-2.93v4.496h-.864zm7.322.077c-.422 0-.787-.08-1.095-.24a1.743 1.743 0 01-.72-.692c-.167-.307-.25-.669-.25-1.085V94.73c0-.423.083-.785.25-1.086.173-.3.413-.531.72-.691.308-.16.673-.24 1.095-.24.423 0 .788.08 1.096.24.307.16.544.39.71.691.173.301.26.66.26 1.076v1.413c0 .416-.087.778-.26 1.085a1.683 1.683 0 01-.71.692c-.308.16-.673.24-1.096.24zm0-.768c.378 0 .673-.106.884-.318.212-.21.317-.521.317-.931V94.73c0-.41-.105-.72-.317-.932-.211-.211-.506-.317-.884-.317-.371 0-.666.106-.883.317-.212.212-.317.522-.317.932v1.403c0 .41.105.72.317.931.217.212.512.318.883.318zm11.341.787c-.608 0-1.095-.163-1.46-.49-.365-.326-.557-.771-.576-1.335h.864c.02.333.132.592.337.778.204.186.483.279.835.279.378 0 .67-.11.875-.327.21-.218.317-.525.317-.922v-.384H84.69v-.769h1.874v-.298c0-.397-.106-.701-.317-.912-.205-.218-.497-.327-.875-.327-.352 0-.63.093-.835.279-.205.179-.317.438-.337.778h-.864c.019-.564.211-1.009.576-1.336.365-.326.852-.49 1.46-.49.43 0 .794.08 1.096.24.307.16.544.391.71.692.167.301.25.663.25 1.086v1.44c0 .417-.083.779-.25 1.087a1.683 1.683 0 01-.71.691c-.302.16-.666.24-1.096.24zm5.344 1.633v-1.729c-.615 0-1.098-.173-1.45-.518-.353-.346-.529-.82-.529-1.422V94.71c0-.596.176-1.063.529-1.403.358-.346.842-.519 1.45-.519V91.06h.769v1.73c.615 0 1.098.172 1.45.518.353.34.529.807.529 1.403v1.422c0 .602-.176 1.076-.529 1.422-.352.345-.835.518-1.45.518v1.73h-.769zm.02-2.41v-3.92c-.372 0-.663.109-.875.326-.211.218-.317.522-.317.913v1.422c0 .39.106.698.317.922.212.224.503.336.874.336zm.73 0c.377 0 .669-.113.874-.337.211-.224.317-.532.317-.922V94.71c0-.39-.106-.695-.317-.913-.205-.218-.497-.326-.874-.326v3.92zm4.94 2.41v-1.729c-.615 0-1.099-.173-1.45-.518-.353-.346-.53-.82-.53-1.422V94.71c0-.596.177-1.063.53-1.403.358-.346.841-.519 1.45-.519V91.06h.768v1.73c.615 0 1.099.172 1.451.518.352.34.528.807.528 1.403v1.422c0 .602-.176 1.076-.528 1.422-.352.345-.836.518-1.45.518v1.73h-.77zm.02-2.41v-3.92c-.372 0-.664.109-.875.326-.212.218-.317.522-.317.913v1.422c0 .39.106.698.317.922.211.224.503.336.874.336zm.73 0c.377 0 .668-.113.873-.337.212-.224.317-.532.317-.922V94.71c0-.39-.105-.695-.317-.913-.205-.218-.496-.326-.874-.326v3.92zm5.324.777c-.417 0-.782-.083-1.095-.25a1.805 1.805 0 01-.721-.7 2.21 2.21 0 01-.25-1.067V94.71c0-.41.084-.766.25-1.067.173-.3.413-.534.721-.7.313-.167.678-.25 1.095-.25.416 0 .778.083 1.085.25.314.166.554.4.721.7.173.301.259.657.259 1.067v.932h-3.285v.509c0 .416.105.736.317.96.211.218.512.327.903.327.333 0 .602-.057.807-.173a.76.76 0 00.374-.538h.865a1.472 1.472 0 01-.653 1.057c-.372.256-.836.384-1.393.384zm1.22-3.103v-.355c0-.416-.106-.737-.317-.96-.205-.225-.506-.337-.903-.337-.391 0-.692.112-.903.336-.212.224-.317.545-.317.96v.28h2.507l-.067.076zm2.519 3.007V92.79h.865v2.18h.903l1.537-2.18h.989l-1.777 2.516 1.806 2.767h-1.008l-1.537-2.353h-.913v2.353h-.865zm7.208 0V93.55h-1.922v-.76h4.708v.76h-1.922v4.524h-.864zm4.143 0V92.79h.826v2.882c0 .185-.006.38-.019.586-.007.205-.019.4-.039.586a6.233 6.233 0 01-.048.46l2.133-4.514h1.105v5.283h-.826v-2.882c0-.186.003-.38.009-.586.013-.205.029-.4.048-.586l.048-.47-2.132 4.524h-1.105zm5.689 0V92.79h2.287c.551 0 .976.124 1.278.374.301.244.451.586.451 1.028 0 .365-.125.66-.375.884-.249.218-.579.327-.989.327v-.077c.448 0 .807.112 1.076.336.275.224.413.525.413.903 0 .474-.16.845-.48 1.114-.321.263-.769.394-1.345.394h-2.316zm.846-.759h1.47c.307 0 .544-.067.711-.201a.68.68 0 00.259-.567c0-.25-.087-.442-.259-.577-.167-.134-.404-.201-.711-.201h-1.47v1.546zm0-2.296h1.441c.269 0 .48-.064.634-.192.16-.128.24-.307.24-.538 0-.23-.077-.41-.231-.538-.153-.134-.368-.201-.643-.201h-1.441v1.47zm4.844 3.055V92.79h.865v2.2h2.228v-2.2h.865v5.283h-.865v-2.296h-2.228v2.296h-.865zm7.669.077c-.423 0-.788-.08-1.095-.24a1.741 1.741 0 01-.721-.692c-.166-.307-.25-.669-.25-1.085V94.73c0-.423.084-.785.25-1.086.173-.3.413-.531.721-.691.307-.16.672-.24 1.095-.24.422 0 .787.08 1.095.24.307.16.544.39.711.691.173.301.259.66.259 1.076v1.413c0 .416-.086.778-.259 1.085a1.688 1.688 0 01-.711.692c-.308.16-.673.24-1.095.24zm0-.768c.378 0 .672-.106.884-.318.211-.21.317-.521.317-.931V94.73c0-.41-.106-.72-.317-.932-.212-.211-.506-.317-.884-.317-.372 0-.666.106-.884.317-.211.212-.317.522-.317.932v1.403c0 .41.106.72.317.931.218.212.512.318.884.318zm4.056.691V92.79h3.795v.787h-2.93v4.496h-.865zm7.323.077c-.423 0-.788-.08-1.095-.24a1.741 1.741 0 01-.721-.692c-.166-.307-.249-.669-.249-1.085V94.73c0-.423.083-.785.249-1.086.173-.3.413-.531.721-.691.307-.16.672-.24 1.095-.24.423 0 .788.08 1.095.24.308.16.545.39.711.691.173.301.259.66.259 1.076v1.413c0 .416-.086.778-.259 1.085a1.677 1.677 0 01-.711.692c-.307.16-.672.24-1.095.24zm0-.768c.378 0 .672-.106.884-.318.211-.21.317-.521.317-.931V94.73c0-.41-.106-.72-.317-.932-.212-.211-.506-.317-.884-.317-.371 0-.666.106-.884.317-.211.212-.317.522-.317.932v1.403c0 .41.106.72.317.931.218.212.513.318.884.318zM15.156 118.073v-5.283h.826v2.882c0 .185-.006.381-.02.586a8.2 8.2 0 01-.037.586 6.11 6.11 0 01-.049.461l2.133-4.515h1.105v5.283h-.826v-2.882c0-.186.003-.381.01-.586.012-.205.028-.4.047-.586l.048-.471-2.132 4.525h-1.105zm7.688.096c-.423 0-.794-.08-1.115-.24a1.73 1.73 0 01-.73-.692c-.173-.307-.26-.669-.26-1.085v-1.441c0-.423.087-.785.26-1.086.173-.301.417-.531.73-.691.32-.16.692-.241 1.115-.241.608 0 1.098.164 1.47.49.371.327.567.772.586 1.336h-.865c-.02-.34-.134-.599-.346-.778-.205-.186-.486-.279-.845-.279-.378 0-.68.109-.903.327-.224.211-.336.515-.336.912v1.451c0 .397.112.704.336.922.224.218.525.327.903.327.358 0 .64-.093.845-.279.212-.186.327-.445.346-.778h.865c-.02.564-.215 1.009-.586 1.335-.372.327-.862.49-1.47.49zm3.691-.096v-5.283h3.958v5.283h-.864v-4.496h-2.23v4.496h-.864zm7.669.077c-.423 0-.788-.08-1.095-.24a1.744 1.744 0 01-.72-.692c-.167-.307-.25-.669-.25-1.085v-1.403c0-.423.083-.784.25-1.085.172-.301.412-.532.72-.692.307-.16.672-.24 1.095-.24.423 0 .788.08 1.095.24.307.16.544.391.711.692.173.301.26.659.26 1.075v1.413c0 .416-.087.778-.26 1.085a1.683 1.683 0 01-.71.692c-.308.16-.673.24-1.096.24zm0-.768c.378 0 .672-.106.884-.317.211-.212.317-.522.317-.932v-1.403c0-.41-.106-.72-.317-.932-.212-.211-.506-.317-.884-.317-.371 0-.666.106-.884.317-.211.212-.317.522-.317.932v1.403c0 .41.106.72.317.932.218.211.513.317.884.317zm3.048.758v-.806h.173c.294 0 .5-.116.614-.346.122-.231.186-.644.193-1.24l.057-2.958h3.584v5.283h-.865v-4.496h-1.864l-.048 2.21c-.013.557-.077 1.009-.192 1.354-.109.346-.282.599-.519.759-.23.16-.535.24-.912.24h-.221zm6.39-.067v-5.283h.865v1.94h1.557c.595 0 1.063.151 1.402.452.346.294.519.701.519 1.22 0 .512-.173.919-.519 1.22-.346.301-.813.451-1.402.451h-2.421zm.865-.788h1.557c.333 0 .586-.073.758-.22.18-.154.27-.375.27-.663 0-.289-.09-.506-.27-.654-.172-.153-.425-.23-.758-.23h-1.557v1.767zm6.516.855c-.557 0-1.015-.118-1.374-.355a1.412 1.412 0 01-.634-.961h.913c.045.16.163.292.355.394.199.103.445.154.74.154h.452c.313 0 .557-.074.73-.221a.709.709 0 00.269-.576c0-.257-.087-.458-.26-.606-.166-.147-.413-.221-.74-.221h-1.162v-.749h1.134c.294 0 .519-.07.672-.211a.72.72 0 00.23-.557.728.728 0 00-.105-.404.613.613 0 00-.298-.25 1.254 1.254 0 00-.49-.086h-.48c-.256 0-.477.057-.663.173-.185.115-.298.256-.336.422h-.913c.064-.397.273-.723.625-.979.352-.257.781-.385 1.287-.385h.48c.378 0 .702.061.97.183.27.115.475.282.616.499.147.218.22.478.22.779 0 .313-.102.573-.307.778-.205.198-.493.31-.864.336v.038c.454.032.784.154.989.365.205.212.307.516.307.913 0 .468-.173.839-.518 1.114-.346.276-.81.413-1.393.413h-.452zm5.94.01c-.423 0-.788-.08-1.096-.24a1.744 1.744 0 01-.72-.692c-.167-.307-.25-.669-.25-1.085v-1.403c0-.423.083-.784.25-1.085.173-.301.413-.532.72-.692.308-.16.673-.24 1.096-.24.422 0 .787.08 1.095.24.307.16.544.391.71.692.173.301.26.659.26 1.075v1.413c0 .416-.087.778-.26 1.085a1.683 1.683 0 01-.71.692c-.308.16-.673.24-1.096.24zm0-.768c.377 0 .672-.106.883-.317.212-.212.317-.522.317-.932v-1.403c0-.41-.105-.72-.317-.932-.211-.211-.506-.317-.883-.317-.372 0-.666.106-.884.317-.212.212-.317.522-.317.932v1.403c0 .41.105.72.317.932.218.211.512.317.883.317zm3.71.691v-5.283h2.287c.55 0 .976.124 1.277.374.301.244.452.586.452 1.028 0 .365-.125.66-.375.884-.25.218-.58.327-.99.327v-.077c.449 0 .808.112 1.077.336.275.224.413.525.413.903 0 .474-.16.845-.48 1.114-.32.263-.77.394-1.346.394h-2.315zm.846-.759h1.47c.307 0 .544-.067.71-.201a.679.679 0 00.26-.567c0-.25-.087-.442-.26-.577-.166-.134-.403-.201-.71-.201h-1.47v1.546zm0-2.296h1.44c.27 0 .48-.064.635-.192.16-.128.24-.307.24-.538 0-.23-.077-.41-.23-.538-.154-.134-.369-.202-.644-.202h-1.441v1.47zm6.362 3.151c-.558 0-.996-.141-1.316-.422-.32-.289-.48-.676-.48-1.163 0-.493.16-.88.48-1.162.32-.282.752-.423 1.297-.423h1.633v-.528c0-.327-.1-.577-.298-.75-.192-.179-.468-.269-.826-.269-.314 0-.577.068-.788.202a.717.717 0 00-.365.529h-.865c.058-.455.272-.817.644-1.086.371-.269.836-.404 1.393-.404.608 0 1.089.157 1.44.471.353.314.53.74.53 1.278v3.631h-.846v-1.008h-.144l.144-.145c0 .385-.15.689-.452.913-.294.224-.688.336-1.181.336zm.211-.682c.41 0 .746-.102 1.009-.307a.957.957 0 00.394-.788v-.749H67.88c-.288 0-.516.08-.682.24-.167.16-.25.378-.25.653 0 .295.1.529.298.701.205.167.486.25.845.25zm3.96.586v-5.283h.865v2.199h2.229v-2.199h.864v5.283h-.864v-2.296h-2.229v2.296h-.865zm5.69 0v-5.283h.826v2.882c0 .185-.006.381-.019.586a8.2 8.2 0 01-.038.586 6.11 6.11 0 01-.048.461l2.132-4.515H81.7v5.283h-.826v-2.882c0-.186.003-.381.01-.586.012-.205.028-.4.048-.586l.048-.471-2.133 4.525h-1.105zm5.363 0l1.355-2.036c-.404-.096-.718-.282-.942-.558-.218-.275-.326-.618-.326-1.027 0-.519.17-.926.509-1.221.346-.294.816-.441 1.412-.441h2.277v5.283h-.865v-1.969h-1.162l-1.25 1.969h-1.008zm2.008-2.738h1.412v-1.777h-1.412c-.32 0-.573.08-.759.24-.186.154-.278.372-.278.654 0 .275.092.493.278.653.186.153.439.23.759.23zm-69.957 21.738v-5.283h2.286c.551 0 .977.124 1.278.374.301.244.452.586.452 1.028 0 .365-.125.66-.375.884-.25.218-.58.327-.99.327v-.077c.449 0 .807.112 1.076.336.276.224.414.525.414.903 0 .474-.16.845-.48 1.114-.321.263-.77.394-1.346.394h-2.315zm.845-.759h1.47c.308 0 .545-.067.711-.201a.679.679 0 00.26-.567c0-.25-.087-.442-.26-.577-.166-.134-.403-.201-.71-.201h-1.47v1.546zm0-2.296h1.441c.27 0 .48-.064.634-.192.16-.128.24-.307.24-.538 0-.23-.076-.41-.23-.538-.154-.134-.368-.202-.644-.202h-1.44v1.47zm10.515 4.784v-7.012h.865v1.008h.173l-.173.202c0-.403.131-.721.393-.951.27-.237.622-.356 1.057-.356.532 0 .955.177 1.268.529.32.346.48.823.48 1.431v1.547c0 .403-.073.752-.22 1.047a1.568 1.568 0 01-.606.682c-.256.16-.563.24-.922.24-.429 0-.778-.118-1.047-.355-.269-.237-.403-.554-.403-.951l.173.202h-.192l.019 1.2v1.537h-.865zm2.027-2.382c.365 0 .65-.109.855-.327.211-.217.317-.531.317-.941v-1.441c0-.41-.106-.724-.317-.942-.205-.217-.49-.326-.855-.326-.352 0-.634.112-.845.336-.212.224-.317.535-.317.932v1.441c0 .397.105.708.317.932.211.224.493.336.845.336zm5.2.749c-.557 0-.996-.141-1.316-.422-.32-.289-.48-.676-.48-1.163 0-.493.16-.88.48-1.162.32-.282.752-.423 1.297-.423h1.633v-.528c0-.327-.1-.577-.298-.75-.192-.179-.468-.269-.826-.269-.314 0-.577.068-.788.202a.717.717 0 00-.365.529h-.865c.058-.455.272-.817.644-1.086.371-.269.836-.404 1.393-.404.608 0 1.089.157 1.441.471.352.314.528.74.528 1.278v3.631h-.845v-1.008h-.144l.144-.145c0 .385-.15.689-.452.913-.294.224-.688.336-1.181.336zm.211-.682c.41 0 .746-.102 1.009-.307a.957.957 0 00.394-.788v-.749h-1.614c-.288 0-.516.08-.682.24-.167.16-.25.378-.25.653 0 .295.1.529.298.701.205.167.486.25.845.25zm5.94.682c-.622 0-1.115-.182-1.48-.547-.358-.372-.538-.878-.538-1.518v-2.402c0-.845.212-1.495.634-1.95.423-.461 1.028-.692 1.816-.692h1.345v.865h-1.345c-.519 0-.913.154-1.182.461-.269.301-.403.74-.403 1.316v.625h.134l-.134.192c.006-.378.134-.673.384-.884.25-.211.59-.317 1.018-.317.557 0 .99.179 1.297.538.314.359.471.852.471 1.479v.769c0 .429-.08.797-.24 1.105-.16.307-.39.544-.692.711-.3.166-.663.249-1.085.249zm0-.768c.371 0 .656-.112.855-.336.198-.225.297-.545.297-.961v-.769c0-.416-.099-.736-.297-.96-.199-.225-.484-.337-.855-.337-.372 0-.657.112-.855.337-.199.217-.298.538-.298.96v.769c0 .416.099.736.298.961.198.224.483.336.855.336zm5.69.749c-.424 0-.789-.08-1.096-.24a1.743 1.743 0 01-.72-.692c-.167-.307-.25-.669-.25-1.085v-1.403c0-.423.083-.784.25-1.085a1.74 1.74 0 01.72-.692c.307-.16.672-.24 1.095-.24.423 0 .788.08 1.095.24.308.16.545.391.711.692.173.301.26.659.26 1.075v1.413c0 .416-.087.778-.26 1.085a1.683 1.683 0 01-.71.692c-.308.16-.673.24-1.096.24zm0-.768c.377 0 .672-.106.883-.317.211-.212.317-.522.317-.932v-1.403c0-.41-.106-.72-.317-.932-.211-.211-.506-.317-.884-.317-.371 0-.666.106-.884.317-.21.212-.317.522-.317.932v1.403c0 .41.106.72.317.932.218.211.513.317.884.317zm5.257.691v-4.525h-1.922v-.758h4.708v.758h-1.922v4.525h-.864zm6.121.096c-.416 0-.78-.083-1.095-.249a1.812 1.812 0 01-.72-.702 2.202 2.202 0 01-.25-1.066v-1.441c0-.41.083-.765.25-1.066.173-.301.413-.535.72-.702.314-.166.68-.25 1.096-.25.416 0 .778.084 1.085.25.314.167.554.401.72.702.173.301.26.656.26 1.066v.932h-3.285v.509c0 .416.105.736.316.961.212.217.513.326.904.326.333 0 .602-.057.806-.173a.762.762 0 00.375-.538h.865a1.473 1.473 0 01-.654 1.057c-.37.256-.835.384-1.392.384zm1.22-3.103v-.355c0-.416-.105-.737-.316-.961-.205-.224-.506-.336-.904-.336-.39 0-.691.112-.903.336-.21.224-.316.545-.316.961v.278h2.507l-.067.077zm4.47 3.103c-.243 0-.438-.07-.586-.211-.14-.141-.211-.33-.211-.567 0-.25.07-.448.211-.595.148-.148.343-.221.586-.221.244 0 .436.073.577.221.147.147.22.345.22.595 0 .237-.073.426-.22.567-.141.141-.333.211-.577.211zM14.74 18v-7.013h2.334c.468 0 .874.09 1.22.27.352.178.625.431.817.758.192.32.288.698.288 1.134 0 .429-.1.807-.298 1.133a1.96 1.96 0 01-.807.76c-.346.178-.752.268-1.22.268h-1.133V18H14.74zm1.2-3.775h1.134c.333 0 .599-.096.797-.289.206-.198.308-.46.308-.787 0-.333-.102-.596-.307-.788-.199-.192-.465-.288-.798-.288h-1.133v2.152zm6.046 3.871c-.545 0-.974-.144-1.288-.432-.314-.288-.47-.676-.47-1.163 0-.518.173-.919.518-1.2.346-.282.836-.423 1.47-.423h1.316v-.452c0-.256-.083-.454-.25-.595-.166-.148-.393-.221-.681-.221-.263 0-.48.057-.654.173a.675.675 0 00-.307.47h-1.172c.057-.5.282-.896.672-1.19.39-.296.89-.443 1.499-.443.647 0 1.156.164 1.527.49.378.32.567.756.567 1.307V18h-1.162v-.922h-.192l.192-.26c0 .391-.144.702-.433.932-.288.23-.672.346-1.152.346zm.393-.903c.34 0 .615-.086.827-.26a.82.82 0 00.326-.672v-.643h-1.297c-.243 0-.438.07-.586.21a.736.736 0 00-.22.558c0 .25.083.448.25.596.172.14.406.211.7.211zm5.623.874c-.576 0-1.054-.131-1.431-.394a1.62 1.62 0 01-.683-1.095h1.201a.645.645 0 00.308.375c.166.09.368.134.605.134h.51c.249 0 .444-.057.585-.173a.592.592 0 00.221-.48.586.586 0 00-.211-.48c-.141-.116-.34-.173-.596-.173h-1.21v-.96h1.162c.237 0 .42-.055.548-.164a.55.55 0 00.192-.442.525.525 0 00-.336-.519 1.062 1.062 0 00-.404-.067h-.451a1.1 1.1 0 00-.577.144.612.612 0 00-.288.384h-1.2c.076-.454.3-.82.672-1.095.371-.275.835-.413 1.393-.413h.451c.404 0 .75.06 1.038.183.294.115.522.281.682.5.16.21.24.467.24.768 0 .333-.122.605-.365.816-.244.212-.567.324-.97.336v-.038c.46.013.82.134 1.075.365.257.224.385.535.385.932 0 .474-.186.852-.557 1.134-.366.281-.859.422-1.48.422h-.509zm3.807 1.662v-7.013h1.172v1.009h.269l-.27.279c0-.43.129-.766.385-1.01.256-.249.602-.374 1.038-.374.531 0 .957.183 1.277.548.32.365.48.855.48 1.47v1.431c0 .41-.073.769-.22 1.076a1.618 1.618 0 01-.606.701c-.262.167-.573.25-.931.25-.436 0-.782-.122-1.038-.365-.256-.25-.384-.59-.384-1.018l.269.278h-.279l.039 1.259v1.48h-1.201zm2.17-2.67c.308 0 .548-.09.721-.27.173-.179.26-.435.26-.768v-1.326c0-.333-.087-.589-.26-.768-.173-.18-.413-.27-.72-.27-.301 0-.538.094-.711.28-.173.179-.26.432-.26.758v1.326c0 .327.087.583.26.769.173.179.41.268.71.268zm5.076 1.037c-.545 0-.974-.144-1.288-.432-.314-.288-.47-.676-.47-1.163 0-.518.172-.919.518-1.2.346-.282.836-.423 1.47-.423h1.316v-.452c0-.256-.083-.454-.25-.595-.166-.148-.393-.221-.681-.221-.263 0-.48.057-.654.173a.675.675 0 00-.307.47h-1.172c.057-.5.282-.896.672-1.19.39-.296.89-.443 1.499-.443.647 0 1.156.164 1.527.49.378.32.567.756.567 1.307V18H40.64v-.922h-.192l.192-.26c0 .391-.144.702-.433.932-.288.23-.672.346-1.152.346zm.394-.903c.339 0 .614-.086.826-.26a.82.82 0 00.326-.672v-.643h-1.297c-.243 0-.438.07-.586.21a.736.736 0 00-.22.558c0 .25.083.448.25.596.172.14.406.211.7.211zm5.881.903c-.672-.006-1.207-.195-1.604-.567-.39-.371-.586-.88-.586-1.527v-2.373c0-.845.227-1.495.682-1.95.455-.461 1.102-.692 1.94-.692h1.49v1.172h-1.49c-.46 0-.813.125-1.056.375-.237.25-.356.615-.356 1.095v.653h.135l-.125.154c0-.365.122-.653.365-.865.243-.211.586-.317 1.028-.317.557 0 .99.183 1.297.548.314.359.47.858.47 1.498v.702c0 .429-.089.804-.268 1.124-.18.314-.433.557-.76.73-.32.166-.707.246-1.162.24zm0-1.047c.32 0 .564-.09.73-.27.167-.185.25-.444.25-.777V15.3c0-.34-.083-.6-.25-.779-.166-.179-.41-.269-.73-.269-.313 0-.557.09-.73.27-.166.172-.25.432-.25.777v.702c0 .333.084.592.25.778.173.18.416.269.73.269zm5.69 1.038c-.448 0-.839-.084-1.172-.25a1.938 1.938 0 01-.769-.72 2.2 2.2 0 01-.269-1.106v-1.306c0-.423.09-.788.27-1.095a1.84 1.84 0 01.768-.72c.333-.174.724-.26 1.172-.26.455 0 .845.086 1.172.26.327.166.58.406.759.72.186.307.279.669.279 1.085v1.316c0 .423-.093.791-.28 1.105a1.848 1.848 0 01-.758.72c-.327.167-.717.25-1.172.25zm0-1.048c.32 0 .567-.086.74-.26.179-.178.269-.435.269-.768v-1.306c0-.34-.09-.596-.27-.769-.172-.173-.419-.259-.739-.259-.314 0-.56.086-.74.26-.18.172-.269.428-.269.768v1.306c0 .333.09.59.27.769.179.173.425.26.739.26zm5.084.961v-4.179h-1.806v-1.105h4.823v1.105h-1.806V18h-1.21zm4.191 0v-5.284h1.201v2.075h.788l1.287-2.075h1.345l-1.594 2.556L64.945 18h-1.374l-1.287-2.19h-.788V18h-1.2zm7.208.096c-.544 0-.974-.144-1.287-.432-.314-.288-.471-.676-.471-1.163 0-.518.173-.919.519-1.2.346-.282.835-.423 1.47-.423h1.316v-.452c0-.256-.084-.454-.25-.595-.167-.148-.394-.221-.682-.221-.263 0-.48.057-.653.173a.675.675 0 00-.308.47h-1.172c.058-.5.282-.896.672-1.19.391-.296.89-.443 1.5-.443.646 0 1.155.164 1.527.49.377.32.566.756.566 1.307V18h-1.162v-.922h-.192l.192-.26c0 .391-.144.702-.432.932-.288.23-.673.346-1.153.346zm.394-.903c.34 0 .615-.086.826-.26a.82.82 0 00.327-.672v-.643h-1.297c-.244 0-.439.07-.586.21a.736.736 0 00-.221.558c0 .25.083.448.25.596.172.14.406.211.7.211zm9.227.807v-5.284h1.441l.653 1.989c.07.218.129.423.173.615.052.192.084.336.096.432l.087-.432c.045-.192.102-.397.173-.615l.624-1.989h1.441V18h-1.114v-.903a45.428 45.428 0 01.038-1.71l.039-.893.048-.76-.798 2.739H78.93l-.826-2.729c.02.27.038.602.058 1 .025.39.044.793.057 1.21.013.41.02.79.02 1.143V18h-1.115zm8.044.096c-.449 0-.84-.086-1.172-.26a1.923 1.923 0 01-.779-.72 2.17 2.17 0 01-.269-1.095v-1.326c0-.416.09-.778.27-1.085.185-.314.444-.557.778-.73.333-.173.723-.26 1.172-.26.441 0 .826.087 1.152.26.333.172.59.416.769.73.186.307.278.669.278 1.085v.951h-3.256v.375c0 .371.09.653.269.845.18.186.445.279.797.279.27 0 .487-.045.653-.134a.642.642 0 00.317-.414h1.182c-.09.455-.333.82-.73 1.096-.39.269-.868.403-1.431.403zm1.037-3.122v-.288c0-.365-.086-.644-.26-.836-.172-.199-.432-.298-.777-.298-.346 0-.609.1-.788.298-.18.198-.27.48-.27.845v.202l2.181-.02-.086.097zM90.242 18v-4.179h-1.806v-1.105h4.823v1.105h-1.806V18h-1.21zm6.295.087c-.448 0-.839-.084-1.172-.25a1.939 1.939 0 01-.768-.72c-.18-.315-.27-.683-.27-1.106v-1.306c0-.423.09-.788.27-1.095.185-.314.442-.554.768-.72.333-.174.724-.26 1.172-.26.455 0 .846.086 1.172.26.327.166.58.406.76.72.185.307.278.669.278 1.085v1.316c0 .423-.093.791-.279 1.105-.18.308-.432.548-.759.72-.326.167-.717.25-1.172.25zm0-1.048c.32 0 .567-.086.74-.26.18-.178.269-.435.269-.768v-1.306c0-.34-.09-.596-.27-.769-.172-.173-.419-.259-.739-.259-.314 0-.56.086-.74.26-.179.172-.269.428-.269.768v1.306c0 .333.09.59.27.769.179.173.425.26.74.26zm3.048 2.306v-2.363h.355c.109-.11.221-.308.337-.596.121-.294.185-.66.192-1.095l.057-2.575h3.699v4.266h.624v2.363h-1.104V18h-3.055v1.345h-1.105zm1.575-2.363h1.922v-3.219h-1.441l-.039 1.528c-.006.429-.06.79-.163 1.085-.096.289-.189.49-.279.606zM105.784 18v-5.284h1.085v2.604c0 .166-.009.365-.028.595a13.964 13.964 0 01-.135 1.23l1.864-4.429h1.479V18h-1.085v-2.603c0-.173.006-.366.019-.577l.057-.624c.026-.205.052-.378.077-.519L107.263 18h-1.479zm8.706 0v-1.777a5.424 5.424 0 01-.404.067 5.4 5.4 0 01-.595.029c-.679 0-1.211-.167-1.595-.5-.384-.34-.576-.81-.576-1.412v-1.69h1.201v1.632c0 .276.096.494.288.654.192.153.455.23.788.23.217 0 .406-.01.566-.029.16-.025.269-.048.327-.067v-2.42h1.21V18h-1.21zm4.815.096c-.448 0-.839-.086-1.172-.26a1.925 1.925 0 01-.778-.72 2.172 2.172 0 01-.269-1.095v-1.326c0-.416.09-.778.269-1.085.186-.314.445-.557.778-.73.333-.173.724-.26 1.172-.26.442 0 .827.087 1.153.26.333.172.589.416.769.73.185.307.278.669.278 1.085v.951h-3.256v.375c0 .371.089.653.269.845.179.186.445.279.797.279.269 0 .487-.045.653-.134a.64.64 0 00.317-.414h1.182c-.09.455-.333.82-.73 1.096-.391.269-.868.403-1.432.403zm1.038-3.122v-.288c0-.365-.087-.644-.259-.836-.173-.199-.433-.298-.779-.298-.345 0-.608.1-.787.298-.18.198-.269.48-.269.845v.202l2.18-.02-.086.097zm4.662 3.122c-.449 0-.843-.083-1.182-.25a1.925 1.925 0 01-.778-.72c-.186-.314-.279-.682-.279-1.105v-1.326c0-.429.093-.797.279-1.104a1.86 1.86 0 01.778-.711c.339-.173.733-.26 1.182-.26.666 0 1.197.173 1.594.519.397.34.606.804.625 1.393h-1.201c-.019-.275-.118-.487-.298-.634-.173-.154-.413-.23-.72-.23-.321 0-.574.089-.759.268-.186.173-.279.423-.279.75v1.335c0 .327.093.58.279.759.185.18.438.269.759.269.307 0 .547-.074.72-.221.18-.154.279-.368.298-.644h1.201c-.019.59-.228 1.057-.625 1.403-.397.34-.928.51-1.594.51zm3.566-.096v-5.284h1.201v2.075h.788l1.287-2.075h1.345l-1.595 2.556L133.221 18h-1.374l-1.287-2.19h-.788V18h-1.201zm5.661 0v-5.284h1.086v2.604c0 .166-.01.365-.029.595a12.385 12.385 0 01-.135 1.23l1.864-4.429h1.479V18h-1.085v-2.603c0-.173.006-.366.019-.577l.058-.624c.025-.205.051-.378.077-.519L135.712 18h-1.48zm5.286 0l1.845-2.728-1.72-2.556h1.355l.816 1.297c.051.077.096.164.135.26.045.096.08.172.105.23l.106-.23c.045-.096.09-.183.135-.26l.826-1.297h1.354l-1.719 2.556L144.591 18h-1.365l-.912-1.45a2.74 2.74 0 01-.144-.27 3.884 3.884 0 00-.116-.23 8.69 8.69 0 01-.105.23 2.74 2.74 0 01-.144.27l-.932 1.45h-1.355zM14.538 37v-5.284h1.441l.653 1.989c.07.218.128.423.173.615.051.192.083.336.096.432l.087-.432c.044-.192.102-.397.173-.615l.624-1.989h1.441V37h-1.114v-.903a45.428 45.428 0 01.038-1.71l.039-.894.048-.758-.798 2.737h-1.095l-.826-2.728c.02.27.038.602.057 1a36.489 36.489 0 01.077 2.354V37h-1.114zm7.448.096c-.545 0-.974-.144-1.288-.432-.314-.288-.47-.676-.47-1.163 0-.518.173-.919.518-1.2.346-.282.836-.423 1.47-.423h1.316v-.452c0-.256-.083-.454-.25-.595-.166-.148-.393-.221-.681-.221-.263 0-.48.057-.654.173a.675.675 0 00-.307.47h-1.172c.057-.5.282-.896.672-1.19.39-.296.89-.443 1.499-.443.647 0 1.156.163 1.527.49.378.32.567.756.567 1.307V37h-1.162v-.922h-.192l.192-.26c0 .391-.144.702-.433.932-.288.23-.672.346-1.152.346zm.393-.903c.34 0 .615-.086.827-.26a.82.82 0 00.326-.672v-.644h-1.297c-.243 0-.438.071-.586.212a.736.736 0 00-.22.557c0 .25.083.448.25.596.172.14.406.211.7.211zm5.277.807v-4.179H25.85v-1.105h4.823v1.105h-1.806V37h-1.21zm6.305.096c-.449 0-.84-.086-1.172-.26a1.923 1.923 0 01-.779-.72 2.17 2.17 0 01-.269-1.095v-1.326c0-.416.09-.778.27-1.085.185-.314.444-.557.778-.73.333-.173.723-.26 1.172-.26.442 0 .826.087 1.152.26.333.173.59.416.769.73.186.307.279.669.279 1.085v.951h-3.257v.375c0 .371.09.653.269.845.18.186.445.279.797.279.27 0 .487-.045.654-.135a.642.642 0 00.316-.413h1.182c-.09.455-.333.82-.73 1.096-.39.269-.868.403-1.431.403zm1.037-3.122v-.288c0-.365-.086-.644-.26-.836-.172-.199-.432-.298-.777-.298-.346 0-.609.1-.788.298-.18.198-.27.48-.27.845v.202l2.182-.02-.087.097zm2.5 4.755v-7.013h1.172v1.009h.27l-.27.279c0-.43.128-.766.385-1.01.256-.249.602-.374 1.037-.374.532 0 .958.183 1.278.548.32.365.48.855.48 1.47v1.431c0 .41-.074.769-.22 1.076a1.625 1.625 0 01-.606.701 1.7 1.7 0 01-.932.25c-.435 0-.781-.122-1.037-.365-.257-.25-.385-.59-.385-1.018l.27.278h-.28l.04 1.259v1.48h-1.202zm2.172-2.67c.307 0 .547-.09.72-.27.173-.179.26-.435.26-.768v-1.326c0-.333-.087-.589-.26-.768-.173-.18-.413-.27-.72-.27-.302 0-.538.094-.711.28-.173.179-.26.432-.26.758v1.326c0 .327.087.583.26.769.172.179.41.269.71.269zm3.528.941v-5.284h1.085v2.604c0 .166-.01.365-.029.595-.012.224-.032.445-.057.663-.026.218-.052.407-.077.567l1.864-4.429h1.479V37h-1.086v-2.603c0-.173.007-.365.02-.577l.057-.624c.026-.205.051-.378.077-.519L44.677 37h-1.48zm7.236.096c-.544 0-.973-.144-1.287-.432-.314-.288-.471-.676-.471-1.163 0-.518.173-.919.519-1.2.346-.282.836-.423 1.47-.423h1.316v-.452c0-.256-.084-.454-.25-.595-.167-.148-.394-.221-.682-.221-.263 0-.48.057-.654.173a.675.675 0 00-.307.47h-1.172c.058-.5.282-.896.673-1.19.39-.296.89-.443 1.498-.443.647 0 1.156.163 1.528.49.377.32.566.756.566 1.307V37H52.02v-.922h-.192l.192-.26c0 .391-.144.702-.432.932-.289.23-.673.346-1.153.346zm.394-.903c.34 0 .615-.086.826-.26a.82.82 0 00.327-.672v-.644h-1.297c-.244 0-.439.071-.586.212a.736.736 0 00-.221.557c0 .25.083.448.25.596.172.14.406.211.7.211zm3.22.874v-1.095h.24a.54.54 0 00.49-.26c.116-.179.177-.46.183-.845l.058-3.15h3.823V37h-1.2v-4.17H56.2l-.038 2.105c-.013.46-.09.851-.23 1.172a1.604 1.604 0 01-.606.72c-.262.16-.583.24-.96.24h-.318zm8.351.02c-.448 0-.839-.084-1.172-.25a1.938 1.938 0 01-.768-.72c-.18-.315-.27-.683-.27-1.106v-1.306c0-.423.09-.788.27-1.095.185-.314.442-.554.768-.72.333-.174.724-.26 1.172-.26.455 0 .846.086 1.172.26.327.166.58.406.76.72.185.307.278.669.278 1.085v1.316c0 .423-.093.791-.279 1.105-.18.308-.432.548-.759.72-.326.167-.717.25-1.172.25zm0-1.048c.32 0 .567-.086.74-.26.18-.178.269-.435.269-.768v-1.306c0-.34-.09-.596-.269-.769-.173-.173-.42-.259-.74-.259-.314 0-.56.086-.74.26-.179.172-.268.428-.268.768v1.306c0 .333.09.59.269.769.179.173.425.26.74.26zm3.548.961v-5.284h2.344c.608 0 1.085.128 1.431.385.352.25.528.595.528 1.037 0 .359-.137.647-.413.865-.269.217-.627.326-1.076.326v-.086c.487 0 .878.115 1.172.346.295.224.442.525.442.903 0 .467-.179.836-.538 1.105-.352.268-.839.403-1.46.403h-2.43zm1.181-.913h1.21c.27 0 .481-.06.635-.182a.593.593 0 00.23-.49.613.613 0 00-.23-.51c-.154-.121-.365-.182-.634-.182h-1.21v1.364zm0-2.17H68.3c.237 0 .426-.058.567-.174a.576.576 0 00.211-.47.576.576 0 00-.21-.471c-.135-.122-.324-.183-.568-.183h-1.172v1.297zm6.65-.683c-.268 0-.486-.074-.653-.22a.777.777 0 01-.24-.587c0-.243.08-.439.24-.586.167-.147.385-.22.654-.22s.483.073.643.22c.167.147.25.343.25.586a.763.763 0 01-.25.586c-.16.148-.374.221-.643.221zm0 3.862c-.268 0-.486-.074-.653-.22a.758.758 0 01-.24-.587c0-.243.08-.439.24-.586.167-.147.385-.22.654-.22s.483.073.643.22c.167.147.25.343.25.586a.744.744 0 01-.25.586c-.16.147-.374.221-.643.221z" fill="#000"/><defs><filter id="filter0_d_2004_58" x=".804" y="0" width="179.646" height="178.685" filterUnits="userSpaceOnUse" color-interpolation-filters="sRGB"><feFlood flood-opacity="0" result="BackgroundImageFix"/><feColorMatrix in="SourceAlpha" values="0 0 0 0 0 0 0 0 0 0 0 0 0 0 0 0 0 0 127 0" result="hardAlpha"/><feOffset dy="3.843"/><feGaussianBlur stdDeviation="1.921"/><feComposite in2="hardAlpha" operator="out"/><feColorMatrix values="0 0 0 0 0 0 0 0 0 0 0 0 0 0 0 0 0 0 0.25 0"/><feBlend in2="BackgroundImageFix" result="effect1_dropShadow_2004_58"/><feBlend in="SourceGraphic" in2="effect1_dropShadow_2004_58" result="shape"/></filter></defs></svg>