<svg width="181" height="179" fill="none" xmlns="http://www.w3.org/2000/svg"><g filter="url(#filter0_d_2004_48)"><rect x="4.646" width="171.961" height="171" rx="16.011" fill="#AB9F85"/></g><mask id="a" style="mask-type:alpha" maskUnits="userSpaceOnUse" x="4" y="0" width="173" height="43"><path fill="#C9D9CD" d="M4.646 0h171.961v42.27H4.646z"/></mask><g mask="url(#a)"><rect x="4.646" y="-1.69" width="171.961" height="118.355" rx="16.011" fill="#F5ECDB"/></g><path d="M15.137 60.073V53.06h2.257c.436 0 .814.087 1.134.26.32.166.567.403.74.71.179.308.269.673.269 1.096 0 .416-.09.781-.27 1.095a1.82 1.82 0 01-.74.72c-.32.167-.697.25-1.133.25h-1.393v2.882h-.864zm.864-3.66h1.393c.378 0 .68-.115.903-.346.23-.237.346-.55.346-.941 0-.397-.115-.711-.346-.942-.224-.23-.525-.345-.903-.345h-1.393v2.574zm6.362 3.756c-.557 0-.995-.14-1.316-.422-.32-.289-.48-.676-.48-1.163 0-.493.16-.88.48-1.162.32-.282.753-.423 1.297-.423h1.633v-.528c0-.327-.099-.577-.297-.75-.192-.179-.468-.269-.827-.269-.313 0-.576.068-.787.202a.718.718 0 00-.365.528h-.865c.058-.454.272-.816.644-1.085.371-.269.835-.404 1.393-.404.608 0 1.088.157 1.44.471.353.314.529.74.529 1.278v3.631h-.845v-1.008h-.145l.145-.145c0 .385-.15.689-.452.913-.295.224-.688.336-1.182.336zm.212-.682c.41 0 .746-.102 1.009-.307a.956.956 0 00.393-.788v-.75h-1.614c-.288 0-.515.08-.682.24-.166.161-.25.379-.25.654 0 .295.1.529.298.701.205.167.487.25.846.25zm5.69.654c-.558 0-1.016-.119-1.374-.356a1.412 1.412 0 01-.634-.96h.912c.045.16.164.29.356.393.198.103.445.154.74.154h.451c.314 0 .557-.074.73-.221a.71.71 0 00.27-.576c0-.257-.087-.458-.26-.606-.167-.147-.413-.22-.74-.22h-1.162v-.75h1.133c.295 0 .519-.07.673-.211a.72.72 0 00.23-.557.727.727 0 00-.105-.404.61.61 0 00-.298-.25 1.24 1.24 0 00-.49-.086h-.48c-.257 0-.478.057-.663.173-.186.115-.298.256-.337.422h-.912c.064-.397.272-.723.624-.98.352-.256.782-.384 1.288-.384h.48c.378 0 .701.061.97.183.27.115.474.282.615.5.147.217.22.477.22.777 0 .314-.102.574-.307.779-.204.198-.493.31-.864.336v.038c.455.032.784.154.99.365.204.212.307.516.307.913 0 .468-.173.839-.519 1.114-.346.276-.81.414-1.393.414h-.451zm3.94 1.662v-7.014h.865v1.01h.173L33.07 56c0-.404.132-.72.394-.951.27-.237.621-.355 1.057-.355.532 0 .954.176 1.268.528.32.346.48.823.48 1.431V58.2c0 .403-.073.752-.22 1.047a1.57 1.57 0 01-.606.682c-.256.16-.563.24-.922.24-.43 0-.778-.118-1.047-.355-.27-.237-.404-.554-.404-.951l.173.202h-.192l.02 1.2v1.538h-.865zm2.028-2.383c.365 0 .65-.109.855-.327.211-.217.317-.531.317-.941V56.71c0-.41-.106-.724-.317-.942-.205-.217-.49-.326-.855-.326-.352 0-.634.112-.846.336-.211.224-.317.535-.317.932v1.44c0 .398.106.709.317.933.212.224.493.336.846.336zm5.2.75c-.558 0-.996-.142-1.317-.423-.32-.289-.48-.676-.48-1.163 0-.493.16-.88.48-1.162.32-.282.753-.423 1.297-.423h1.633v-.528c0-.327-.099-.577-.297-.75-.193-.179-.468-.269-.827-.269-.313 0-.576.068-.787.202a.718.718 0 00-.365.528h-.865c.058-.454.272-.816.644-1.085.371-.269.835-.404 1.393-.404.608 0 1.088.157 1.44.471.353.314.529.74.529 1.278v3.631h-.845v-1.008h-.145l.145-.145c0 .385-.15.689-.452.913-.294.224-.688.336-1.182.336zm.21-.683c.41 0 .747-.102 1.01-.307a.956.956 0 00.393-.788v-.75h-1.614c-.288 0-.515.08-.682.24-.166.161-.25.379-.25.654 0 .295.1.529.298.701.205.167.487.25.846.25zm5.94.682c-.621 0-1.114-.182-1.48-.547-.358-.372-.537-.878-.537-1.518v-2.402c0-.845.211-1.495.634-1.95.423-.461 1.028-.692 1.816-.692h1.345v.865h-1.345c-.52 0-.913.154-1.182.461-.27.301-.404.74-.404 1.316v.625h.135l-.135.192c.007-.378.135-.673.385-.884.25-.211.589-.317 1.018-.317.557 0 .99.18 1.297.538.314.358.47.852.47 1.48v.768c0 .429-.08.797-.24 1.105-.16.307-.39.544-.691.71-.301.167-.663.25-1.086.25zm0-.768c.372 0 .657-.112.855-.337.199-.224.298-.544.298-.96v-.769c0-.416-.1-.736-.298-.96-.198-.224-.483-.337-.855-.337-.371 0-.656.113-.855.337-.198.217-.298.538-.298.96v.769c0 .416.1.736.298.96.199.225.484.337.855.337zm5.69.75c-.423 0-.788-.081-1.095-.241a1.743 1.743 0 01-.72-.692c-.167-.307-.25-.669-.25-1.085V56.73c0-.423.083-.784.25-1.085.172-.302.412-.532.72-.692.307-.16.672-.24 1.095-.24.423 0 .788.08 1.095.24.307.16.544.39.71.691.174.302.26.66.26 1.077v1.412c0 .416-.086.778-.26 1.085a1.682 1.682 0 01-.71.692c-.307.16-.672.24-1.095.24zm0-.77c.378 0 .672-.105.884-.316.211-.212.317-.522.317-.932V56.73c0-.41-.106-.72-.317-.932-.212-.211-.506-.317-.884-.317-.372 0-.666.106-.884.317-.211.212-.317.522-.317.932v1.403c0 .41.106.72.317.931.218.212.512.318.884.318zm5.257.692v-4.525h-1.92v-.759h4.707v.76h-1.921v4.524h-.865zm5.661.096c-.557 0-.996-.14-1.316-.422-.32-.289-.48-.676-.48-1.163 0-.493.16-.88.48-1.162.32-.282.752-.423 1.297-.423h1.633v-.528c0-.327-.1-.577-.298-.75-.192-.179-.467-.269-.826-.269-.314 0-.576.068-.788.202a.718.718 0 00-.365.528h-.864c.057-.454.272-.816.643-1.085.372-.269.836-.404 1.393-.404.609 0 1.089.157 1.441.471.352.314.529.74.529 1.278v3.631h-.846v-1.008h-.144l.144-.145c0 .385-.15.689-.451.913-.295.224-.689.336-1.182.336zm.211-.682c.41 0 .746-.102 1.01-.307a.956.956 0 00.393-.788v-.75h-1.614c-.288 0-.516.08-.682.24-.166.161-.25.379-.25.654 0 .295.1.529.298.701.205.167.487.25.845.25zm3.298.654v-.807h.173c.294 0 .5-.116.615-.346.121-.23.186-.644.192-1.24l.057-2.959h3.584v5.284h-.865v-4.496h-1.864l-.047 2.21c-.013.557-.077 1.008-.193 1.354-.109.346-.281.6-.518.76-.231.16-.535.24-.913.24H65.7zm6.352-.068V54.79h.827v2.883c0 .185-.007.38-.02.586a8.13 8.13 0 01-.038.586 6.233 6.233 0 01-.048.46l2.133-4.515h1.104v5.284h-.826v-2.882c0-.186.004-.38.01-.586.013-.205.029-.4.048-.586l.048-.47-2.133 4.524h-1.105zm11.409 0V54.79h.864v2.181h.903l1.537-2.18h.99l-1.777 2.517 1.806 2.766h-1.009l-1.537-2.353h-.913v2.353h-.864zm7.178.096c-.557 0-.996-.14-1.316-.422-.32-.289-.48-.676-.48-1.163 0-.493.16-.88.48-1.162.32-.282.753-.423 1.297-.423h1.633v-.528c0-.327-.099-.577-.297-.75-.193-.179-.468-.269-.827-.269-.314 0-.576.068-.788.202a.718.718 0 00-.364.528h-.865c.058-.454.272-.816.644-1.085.371-.269.835-.404 1.392-.404.609 0 1.09.157 1.442.471.352.314.528.74.528 1.278v3.631h-.846v-1.008h-.144l.144-.145c0 .385-.15.689-.451.913-.295.224-.689.336-1.182.336zm.212-.682c.41 0 .746-.102 1.008-.307a.956.956 0 00.394-.788v-.75H90.64c-.288 0-.515.08-.682.24-.166.161-.25.379-.25.654 0 .295.1.529.298.701.205.167.487.25.846.25zm3.94 2.316v-7.014h.865v1.01h.173l-.172.201c0-.404.13-.72.393-.951.27-.237.622-.355 1.057-.355.532 0 .954.176 1.268.528.32.346.48.823.48 1.431V58.2c0 .403-.073.752-.22 1.047a1.57 1.57 0 01-.606.682c-.256.16-.563.24-.922.24-.429 0-.778-.118-1.047-.355-.269-.237-.404-.554-.404-.951l.173.202h-.192l.02 1.2v1.538h-.865zm2.028-2.383c.365 0 .65-.109.855-.327.211-.217.317-.531.317-.941V56.71c0-.41-.106-.724-.317-.942-.205-.217-.49-.326-.855-.326-.352 0-.634.112-.846.336-.21.224-.317.535-.317.932v1.44c0 .398.106.709.317.933.212.224.494.336.846.336zm5.228.653v-4.525h-1.921v-.759h4.707v.76h-1.921v4.524h-.865zm4.95 1.73l.779-2.056-1.96-4.958h.96l1.23 3.267c.045.109.087.24.125.394l.096.374.096-.374c.039-.154.077-.285.115-.394l1.153-3.267h.932l-2.603 7.014h-.923zm12.6-6.197l1.249-2.988h.768l-.768 2.988h-1.249zm-2.21 0l1.249-2.988h.769l-.769 2.988h-1.249zm5.872 4.467V54.79h3.958v5.284h-.864v-4.496h-2.229v4.496h-.865zm6.497 1.73l.778-2.056-1.96-4.958h.961l1.23 3.267c.045.109.086.24.125.394l.096.374c.025-.102.057-.227.096-.374.038-.154.077-.285.115-.394l1.153-3.267h.932l-2.604 7.014h-.922zm6.429-1.73v-4.525h-1.921v-.759h4.707v.76h-1.921v4.524h-.865zm4.143 0V54.79h.827v2.883c0 .185-.007.38-.02.586a8.13 8.13 0 01-.038.586 6.233 6.233 0 01-.048.46l2.133-4.515h1.104v5.284h-.826v-2.882c0-.186.003-.38.01-.586.013-.205.029-.4.048-.586l.048-.47-2.133 4.524h-1.105zm-125.143 19V73.79h.864v2.18h.903l1.537-2.18h.99l-1.777 2.516 1.806 2.767h-1.009l-1.537-2.353h-.913v2.353h-.864zm4.998.068v-.808h.173c.294 0 .5-.115.614-.345.122-.23.186-.644.193-1.24l.057-2.959h3.584v5.284h-.865v-4.496h-1.864l-.048 2.21c-.013.557-.077 1.008-.192 1.354-.109.346-.282.6-.519.76-.23.16-.534.24-.912.24h-.221zm6.352-.068V73.79h.826v2.882c0 .185-.006.38-.019.586-.006.205-.019.4-.038.586a6.233 6.233 0 01-.048.46l2.133-4.514h1.104v5.283h-.826v-2.882c0-.186.003-.38.01-.586.012-.205.029-.4.048-.586l.048-.47-2.133 4.524h-1.105zm7.669.096c-.416 0-.781-.083-1.095-.25a1.807 1.807 0 01-.72-.7 2.204 2.204 0 01-.25-1.067V75.71c0-.41.083-.766.25-1.067.172-.3.412-.534.72-.7.314-.167.679-.25 1.095-.25.416 0 .778.083 1.085.25.314.166.554.4.721.7.173.301.26.657.26 1.067v.932h-3.286v.509c0 .416.105.736.317.96.211.218.512.327.903.327.333 0 .602-.057.807-.173a.763.763 0 00.374-.538h.865a1.472 1.472 0 01-.653 1.057c-.372.256-.836.384-1.393.384zm1.22-3.103v-.355c0-.416-.106-.737-.317-.96-.205-.225-.506-.337-.903-.337-.39 0-.692.112-.903.336-.212.224-.317.545-.317.96v.28h2.507l-.067.076zm2.49 3.007V73.79h.865v2.2h2.229v-2.2h.865v5.283h-.865v-2.296h-2.229v2.296h-.864zm7.237 0V74.55H43.23v-.76h4.707v.76h-1.921v4.524h-.865zm5.66.096c-.556 0-.995-.14-1.315-.422-.32-.289-.48-.676-.48-1.163 0-.493.16-.88.48-1.162.32-.282.752-.423 1.296-.423h1.634v-.528c0-.327-.1-.577-.298-.75-.192-.179-.468-.269-.826-.269-.314 0-.577.068-.788.202a.718.718 0 00-.365.529h-.865c.058-.455.273-.817.644-1.086.371-.269.836-.403 1.393-.403.608 0 1.089.156 1.44.47.353.314.53.74.53 1.278v3.631h-.846v-1.008H52.3l.144-.145c0 .385-.15.689-.452.913-.294.224-.688.336-1.181.336zm.212-.682c.41 0 .746-.102 1.009-.307a.956.956 0 00.394-.788v-.75h-1.614c-.288 0-.516.08-.682.24-.167.161-.25.379-.25.654 0 .295.1.528.298.701.205.167.486.25.845.25zm6.084-3.88l.768-2.989h1.25l-1.25 2.988h-.768zm-2.21 0l.769-2.989h1.248l-1.248 2.988h-.769zm6.458 6.003l.769-2.987h1.249l-1.25 2.987h-.768zm10.726-1.537V73.79h.865v2.18h.903l1.537-2.18h.99l-1.778 2.516 1.806 2.767h-1.008l-1.537-2.353h-.913v2.353h-.865zm7.64.077c-.422 0-.788-.08-1.095-.24a1.743 1.743 0 01-.72-.692c-.167-.307-.25-.669-.25-1.085V75.73c0-.423.083-.785.25-1.086.172-.3.413-.531.72-.691.307-.16.672-.24 1.095-.24.423 0 .788.08 1.095.24.308.16.545.39.711.691.173.301.26.66.26 1.076v1.413c0 .416-.087.778-.26 1.085a1.683 1.683 0 01-.71.692c-.308.16-.673.24-1.096.24zm0-.768c.378 0 .673-.106.884-.318.211-.21.317-.521.317-.931V75.73c0-.41-.106-.72-.317-.932-.211-.211-.506-.317-.884-.317-.371 0-.666.106-.884.317-.211.212-.317.522-.317.932v1.403c0 .41.106.72.317.931.218.212.513.318.884.318zm5.257.691V74.55h-1.92v-.76h4.706v.76h-1.92v4.524h-.865zm6.123.077c-.423 0-.788-.08-1.096-.24a1.743 1.743 0 01-.72-.692c-.167-.307-.25-.669-.25-1.085V75.73c0-.423.083-.785.25-1.086.173-.3.413-.531.72-.691.308-.16.673-.24 1.096-.24.422 0 .787.08 1.095.24.307.16.544.39.71.691.173.301.26.66.26 1.076v1.413c0 .416-.087.778-.26 1.085a1.682 1.682 0 01-.71.692c-.308.16-.673.24-1.096.24zm0-.768c.377 0 .672-.106.883-.318.212-.21.317-.521.317-.931V75.73c0-.41-.105-.72-.317-.932-.211-.211-.506-.317-.883-.317-.372 0-.667.106-.884.317-.212.212-.317.522-.317.932v1.403c0 .41.105.72.317.931.217.212.512.318.883.318zm3.69 2.42V73.79h.865v1.01h.173l-.172.201c0-.403.13-.72.393-.951.27-.237.622-.356 1.057-.356.532 0 .954.177 1.268.529.32.346.48.823.48 1.431V77.2c0 .403-.073.752-.22 1.047a1.57 1.57 0 01-.606.682c-.256.16-.563.24-.922.24-.429 0-.778-.118-1.047-.355-.269-.237-.404-.554-.404-.951l.173.201h-.192l.02 1.201v1.537h-.865zm2.028-2.382c.365 0 .65-.109.855-.327.211-.217.317-.531.317-.941V75.71c0-.41-.106-.724-.317-.942-.205-.217-.49-.326-.855-.326-.352 0-.634.112-.846.336-.21.224-.317.535-.317.932v1.44c0 .398.106.709.317.933.212.224.494.336.846.336zm5.2.75c-.558 0-.996-.142-1.316-.423-.321-.289-.481-.676-.481-1.163 0-.493.16-.88.481-1.162.32-.282.752-.423 1.296-.423h1.634v-.528c0-.327-.1-.577-.298-.75-.192-.179-.468-.269-.826-.269-.314 0-.577.068-.788.202a.716.716 0 00-.365.529h-.865c.058-.455.272-.817.644-1.086.371-.269.836-.403 1.393-.403.608 0 1.089.156 1.441.47.352.314.528.74.528 1.278v3.631h-.845v-1.008h-.144l.144-.145c0 .385-.151.689-.452.913-.294.224-.688.336-1.181.336zm.211-.683c.41 0 .746-.102 1.009-.307a.958.958 0 00.394-.788v-.75h-1.614c-.289 0-.516.08-.682.24-.167.161-.25.379-.25.654 0 .295.099.528.298.701.205.167.486.25.845.25zm3.634.586l1.354-2.036c-.403-.097-.717-.282-.941-.558-.218-.275-.327-.618-.327-1.028 0-.518.17-.925.509-1.22.346-.294.817-.441 1.413-.441h2.276v5.283h-.864v-1.97h-1.163l-1.248 1.97h-1.009zm2.008-2.738h1.412v-1.777h-1.412c-.321 0-.574.08-.759.24-.186.154-.279.372-.279.653 0 .276.093.494.279.654.185.153.438.23.759.23zm11.677 2.815c-.423 0-.788-.08-1.095-.24a1.741 1.741 0 01-.721-.692c-.166-.307-.25-.669-.25-1.085V75.73c0-.423.084-.785.25-1.086.173-.3.413-.531.721-.691.307-.16.672-.24 1.095-.24.422 0 .787.08 1.095.24.307.16.544.39.711.691.173.301.259.66.259 1.076v1.413c0 .416-.086.778-.259 1.085a1.688 1.688 0 01-.711.692c-.308.16-.673.24-1.095.24zm0-.768c.378 0 .672-.106.884-.318.211-.21.317-.521.317-.931V75.73c0-.41-.106-.72-.317-.932-.212-.211-.506-.317-.884-.317-.372 0-.666.106-.884.317-.211.212-.317.522-.317.932v1.403c0 .41.106.72.317.931.218.212.512.318.884.318zm5.257.691V74.55h-1.921v-.76h4.707v.76h-1.921v4.524h-.865zm6.122.077c-.423 0-.788-.08-1.095-.24a1.741 1.741 0 01-.721-.692c-.166-.307-.249-.669-.249-1.085V75.73c0-.423.083-.785.249-1.086.173-.3.413-.531.721-.691.307-.16.672-.24 1.095-.24.423 0 .788.08 1.095.24.308.16.545.39.711.691.173.301.259.66.259 1.076v1.413c0 .416-.086.778-.259 1.085a1.677 1.677 0 01-.711.692c-.307.16-.672.24-1.095.24zm0-.768c.378 0 .673-.106.884-.318.211-.21.317-.521.317-.931V75.73c0-.41-.106-.72-.317-.932-.211-.211-.506-.317-.884-.317-.371 0-.666.106-.884.317-.211.212-.317.522-.317.932v1.403c0 .41.106.72.317.931.218.212.513.318.884.318zm5.69.787c-.622 0-1.115-.182-1.48-.547-.358-.372-.538-.878-.538-1.518v-2.402c0-.845.212-1.495.634-1.95.423-.461 1.028-.692 1.816-.692h1.345v.865h-1.345c-.519 0-.913.154-1.182.461-.269.301-.403.74-.403 1.316v.625h.134l-.134.192c.006-.378.134-.673.384-.884.25-.211.589-.317 1.018-.317.558 0 .99.18 1.297.538.314.359.471.852.471 1.48v.768c0 .429-.08.797-.24 1.105a1.68 1.68 0 01-.692.71c-.301.167-.663.25-1.085.25zm0-.768c.371 0 .656-.112.855-.337.198-.224.298-.544.298-.96v-.769c0-.416-.1-.736-.298-.96-.199-.225-.484-.337-.855-.337-.372 0-.657.112-.855.337-.199.217-.298.538-.298.96v.769c0 .416.099.736.298.96.198.225.483.337.855.337zm3.691 2.401V73.79h.865v1.01h.173l-.173.201c0-.403.131-.72.394-.951.269-.237.621-.356 1.056-.356.532 0 .955.177 1.268.529.321.346.481.823.481 1.431V77.2c0 .403-.074.752-.221 1.047a1.574 1.574 0 01-.605.682c-.257.16-.564.24-.923.24-.429 0-.778-.118-1.047-.355-.269-.237-.403-.554-.403-.951l.173.201h-.192l.019 1.201v1.537h-.865zm2.027-2.382c.365 0 .65-.109.855-.327.212-.217.317-.531.317-.941V75.71c0-.41-.105-.724-.317-.942-.205-.217-.49-.326-.855-.326-.352 0-.634.112-.845.336-.212.224-.317.535-.317.932v1.44c0 .398.105.709.317.933.211.224.493.336.845.336zm5.2.75c-.557 0-.996-.142-1.316-.423-.32-.289-.481-.676-.481-1.163 0-.493.161-.88.481-1.162.32-.282.752-.423 1.297-.423h1.633v-.528c0-.327-.099-.577-.298-.75-.192-.179-.468-.269-.826-.269-.314 0-.577.068-.788.202a.719.719 0 00-.365.529h-.865c.058-.455.273-.817.644-1.086.372-.269.836-.403 1.393-.403.608 0 1.089.156 1.441.47.352.314.528.74.528 1.278v3.631h-.845v-1.008h-.144l.144-.145c0 .385-.15.689-.451.913-.295.224-.689.336-1.182.336zm.211-.683c.41 0 .746-.102 1.009-.307a.955.955 0 00.394-.788v-.75h-1.614c-.288 0-.516.08-.682.24-.167.161-.25.379-.25.654 0 .295.099.528.298.701.205.167.487.25.845.25zm3.231.586l1.152-2.709-1.076-2.575h.836l.922 2.306h.51V73.79h.73v2.305h.49l.951-2.305h.826l-1.076 2.545 1.153 2.738h-.865l-.961-2.401h-.518v2.401h-.73v-2.401h-.519l-.97 2.401h-.855zm7.937.096c-.557 0-.996-.14-1.316-.422-.32-.289-.48-.676-.48-1.163 0-.493.16-.88.48-1.162.32-.282.753-.423 1.297-.423h1.633v-.528c0-.327-.099-.577-.298-.75-.192-.179-.467-.269-.826-.269-.314 0-.576.068-.788.202a.719.719 0 00-.365.529h-.864c.057-.455.272-.817.643-1.086.372-.269.836-.403 1.393-.403.609 0 1.089.156 1.441.47.353.314.529.74.529 1.278v3.631h-.846v-1.008h-.144l.144-.145c0 .385-.15.689-.451.913-.295.224-.689.336-1.182.336zm.212-.682c.409 0 .746-.102 1.008-.307a.955.955 0 00.394-.788v-.75h-1.614c-.288 0-.515.08-.682.24-.166.161-.25.379-.25.654 0 .295.1.528.298.701.205.167.487.25.846.25zm5.939.682c-.416 0-.781-.083-1.095-.25a1.805 1.805 0 01-.721-.7 2.21 2.21 0 01-.249-1.067V75.71c0-.41.083-.766.249-1.067.173-.3.413-.534.721-.7.314-.167.679-.25 1.095-.25.416 0 .778.083 1.086.25.313.166.554.4.72.7.173.301.259.657.259 1.067v.932h-3.285v.509c0 .416.106.736.317.96.211.218.512.327.903.327.333 0 .602-.057.807-.173a.764.764 0 00.375-.538h.864a1.469 1.469 0 01-.653 1.057c-.372.256-.836.384-1.393.384zm1.22-3.103v-.355c0-.416-.106-.737-.317-.96-.205-.225-.506-.337-.903-.337-.391 0-.692.112-.903.336-.211.224-.317.545-.317.96v.28h2.507l-.067.076zm4.037 3.007V74.55h-1.921v-.76h4.707v.76h-1.921v4.524h-.865zm-155.138 19V92.79h.864v2.18h.903l1.537-2.18h.99l-1.777 2.516 1.806 2.767h-1.009l-1.537-2.353h-.913v2.353h-.864zm4.998.068v-.808h.173c.294 0 .5-.115.614-.345.122-.23.186-.644.193-1.24l.057-2.959h3.584v5.284h-.865v-4.496h-1.864l-.048 2.21c-.013.557-.077 1.008-.192 1.354-.109.346-.282.6-.519.76-.23.16-.534.24-.912.24h-.221zm9.157.028c-.442 0-.797-.15-1.066-.451-.269-.301-.403-.695-.403-1.182v-.797h-.846v2.334h-.797V92.79h.797v2.257h.846v-.72c0-.493.13-.887.394-1.182.268-.301.627-.451 1.075-.451.474 0 .855.15 1.144.451.288.295.432.689.432 1.182v2.21c0 .486-.144.88-.432 1.18-.289.302-.67.452-1.144.452zm0-.672c.244 0 .433-.083.567-.25.141-.173.212-.41.212-.71v-2.21c0-.301-.07-.535-.212-.702-.134-.173-.323-.26-.567-.26a.667.667 0 00-.557.26c-.134.167-.202.4-.202.702v2.21c0 .3.068.537.202.71.135.167.32.25.557.25zm5.92.576v-1.921a4.418 4.418 0 01-.47.077 6.98 6.98 0 01-.653.029c-.654.006-1.163-.15-1.528-.471-.358-.327-.538-.782-.538-1.364V92.79h.865v1.633c0 .326.109.586.327.778.224.186.531.278.922.278.269 0 .496-.01.682-.028.192-.026.323-.048.394-.068V92.79h.864v5.283h-.864zm4.634.096c-.417 0-.782-.083-1.096-.25a1.807 1.807 0 01-.72-.7 2.204 2.204 0 01-.25-1.067V94.71c0-.41.083-.766.25-1.067.173-.3.413-.534.72-.7.314-.167.68-.25 1.096-.25.416 0 .778.083 1.085.25.314.166.554.4.72.7.174.301.26.657.26 1.067v.932h-3.286v.509c0 .416.106.736.317.96.212.218.513.327.904.327.333 0 .602-.057.806-.173a.763.763 0 00.375-.538h.865a1.471 1.471 0 01-.654 1.057c-.37.256-.835.384-1.392.384zm1.22-3.103v-.355c0-.416-.106-.737-.317-.96-.205-.225-.506-.337-.903-.337-.391 0-.692.112-.904.336-.21.224-.317.545-.317.96v.28h2.508l-.067.076zm2.49 3.007V92.79h2.287c.55 0 .976.124 1.277.374.301.244.452.586.452 1.028 0 .365-.125.66-.375.884-.25.218-.58.327-.99.327v-.077c.449 0 .808.112 1.077.336.275.224.413.525.413.903 0 .474-.16.845-.48 1.114-.32.263-.77.394-1.346.394h-2.315zm.846-.759h1.47c.307 0 .544-.067.71-.201a.679.679 0 00.26-.567c0-.25-.087-.442-.26-.577-.166-.134-.403-.201-.71-.201h-1.47v1.546zm0-2.296h1.44c.27 0 .481-.064.635-.192.16-.128.24-.307.24-.538 0-.23-.077-.41-.23-.538-.154-.134-.369-.201-.644-.201H44.45v1.47zm4.565 3.055V92.79h.807v1.94h.433c.57 0 1.018.15 1.344.452.334.294.5.7.5 1.22 0 .518-.166.928-.5 1.23-.326.294-.774.441-1.344.441h-1.24zm.807-.691h.433c.339 0 .602-.087.787-.26.192-.173.288-.413.288-.72 0-.308-.096-.548-.288-.72-.185-.174-.448-.26-.787-.26h-.433v1.96zm2.901.691V92.79h.808v5.283h-.807zm4.24.096c-.417 0-.782-.083-1.096-.25a1.807 1.807 0 01-.72-.7 2.203 2.203 0 01-.25-1.067V94.71c0-.41.083-.766.25-1.067.173-.3.413-.534.72-.7.314-.167.68-.25 1.096-.25.416 0 .778.083 1.085.25.314.166.554.4.72.7.173.301.26.657.26 1.067v.932h-3.285v.509c0 .416.105.736.316.96.212.218.513.327.904.327.333 0 .602-.057.806-.173a.764.764 0 00.375-.538h.865a1.472 1.472 0 01-.654 1.057c-.37.256-.835.384-1.392.384zm1.22-3.103v-.355c0-.416-.106-.737-.317-.96-.205-.225-.506-.337-.904-.337-.39 0-.691.112-.903.336-.21.224-.316.545-.316.96v.28h2.507l-.067.076zm9.726 3.007V93.55h-1.92v-.76h4.706v.76h-1.92v4.524h-.866zm6.122.077c-.422 0-.787-.08-1.095-.24a1.743 1.743 0 01-.72-.692c-.167-.307-.25-.669-.25-1.085V94.73c0-.423.083-.785.25-1.086.173-.3.413-.531.72-.691.308-.16.673-.24 1.095-.24.423 0 .788.08 1.096.24.307.16.544.39.71.691.173.301.26.66.26 1.076v1.413c0 .416-.087.778-.26 1.085a1.683 1.683 0 01-.71.692c-.308.16-.673.24-1.096.24zm0-.768c.378 0 .673-.106.884-.318.212-.21.317-.521.317-.931V94.73c0-.41-.105-.72-.317-.932-.211-.211-.506-.317-.884-.317-.371 0-.666.106-.883.317-.212.212-.317.522-.317.932v1.403c0 .41.105.72.317.931.217.212.512.318.883.318zm6.747.691v-1.921a4.51 4.51 0 01-.47.077 7.126 7.126 0 01-.654.029c-.653.006-1.162-.15-1.528-.471-.358-.327-.538-.782-.538-1.364V92.79h.865v1.633c0 .326.109.586.327.778.224.186.531.278.922.278.269 0 .496-.01.682-.028.192-.026.323-.048.394-.068V92.79h.864v5.283h-.864zm2.683 0V92.79h.864v2.18h.903l1.537-2.18h.99l-1.777 2.516 1.806 2.767h-1.009l-1.537-2.353h-.913v2.353h-.864zm5.66 0V92.79h.827v2.882c0 .185-.007.38-.02.586-.006.205-.019.4-.038.586a6.233 6.233 0 01-.048.46l2.133-4.514h1.105v5.283h-.827v-2.882c0-.186.004-.38.01-.586.013-.205.029-.4.048-.586l.048-.47-2.133 4.524h-1.105zm-73.965 20v-5.283h2.286c.551 0 .977.124 1.278.374.301.244.452.586.452 1.028 0 .365-.125.66-.375.884-.25.218-.58.327-.99.327v-.077c.449 0 .807.112 1.076.336.276.224.414.525.414.903 0 .474-.16.845-.48 1.114-.321.263-.77.394-1.346.394h-2.315zm.845-.759h1.47c.308 0 .545-.067.711-.201a.679.679 0 00.26-.567c0-.25-.087-.442-.26-.577-.166-.134-.403-.201-.71-.201h-1.47v1.546zm0-2.296h1.441c.27 0 .48-.064.634-.192.16-.128.24-.307.24-.538 0-.23-.076-.41-.23-.538-.154-.134-.368-.202-.644-.202h-1.44v1.47zm6.574 3.122c-.557 0-1.015-.118-1.374-.355a1.412 1.412 0 01-.634-.961h.913c.044.16.163.292.355.394.199.103.445.154.74.154h.451c.314 0 .558-.074.73-.221a.71.71 0 00.27-.576c0-.257-.087-.458-.26-.606-.166-.147-.413-.221-.74-.221h-1.162v-.749h1.133c.295 0 .52-.07.673-.211a.72.72 0 00.23-.557.728.728 0 00-.105-.404.612.612 0 00-.298-.25 1.254 1.254 0 00-.49-.086h-.48c-.256 0-.477.057-.663.173-.186.115-.298.256-.336.422h-.913c.064-.397.272-.723.625-.979.352-.257.78-.385 1.287-.385h.48c.378 0 .701.061.97.183.27.115.474.282.615.499.148.218.221.478.221.779 0 .313-.102.573-.307.778-.205.198-.493.31-.865.336v.038c.455.032.785.154.99.365.205.212.307.516.307.913 0 .468-.173.839-.519 1.114-.346.276-.81.413-1.393.413h-.451zm5.478.029c-.557 0-.996-.141-1.316-.422-.32-.289-.48-.676-.48-1.163 0-.493.16-.88.48-1.162.32-.282.753-.423 1.297-.423h1.633v-.528c0-.327-.1-.577-.298-.75-.192-.179-.467-.269-.826-.269-.314 0-.576.068-.788.202a.717.717 0 00-.365.529h-.864c.057-.455.272-.817.643-1.086.372-.269.836-.404 1.393-.404.609 0 1.09.157 1.441.471.353.314.529.74.529 1.278v3.631h-.846v-1.008h-.144l.144-.145c0 .385-.15.689-.451.913-.295.224-.689.336-1.182.336zm.212-.682c.41 0 .746-.102 1.008-.307a.957.957 0 00.394-.788v-.749h-1.614c-.288 0-.515.08-.682.24-.166.16-.25.378-.25.653 0 .295.1.529.298.701.205.167.487.25.846.25zm3.96.586v-5.283h.826v2.882c0 .185-.006.381-.02.586a8.2 8.2 0 01-.038.586 6.105 6.105 0 01-.048.461l2.133-4.515h1.105v5.283h-.826v-2.882c0-.186.003-.381.01-.586.012-.205.028-.4.047-.586l.048-.471-2.132 4.525h-1.105zm5.517 0v-5.283h1.172l.691 2.027a12.064 12.064 0 01.317 1.076c.026-.109.064-.263.116-.462a31.6 31.6 0 01.182-.624l.654-2.017h1.171v5.283h-.835v-.816c0-.289.003-.602.01-.942l.019-1.028c.012-.346.025-.672.038-.98.013-.313.022-.589.029-.826l-.942 3.007h-.912L38.5 113.5c.012.289.022.647.028 1.076.013.429.023.878.03 1.345.012.468.018.913.018 1.336v.816h-.835zm7.841.077c-.422 0-.788-.08-1.095-.24a1.743 1.743 0 01-.72-.692c-.167-.307-.25-.669-.25-1.085v-1.403c0-.423.083-.784.25-1.085a1.74 1.74 0 01.72-.692c.307-.16.672-.24 1.095-.24.423 0 .788.08 1.095.24.308.16.545.391.711.692.173.301.26.659.26 1.075v1.413c0 .416-.087.778-.26 1.085a1.683 1.683 0 01-.71.692c-.308.16-.673.24-1.096.24zm0-.768c.378 0 .673-.106.884-.317.211-.212.317-.522.317-.932v-1.403c0-.41-.106-.72-.317-.932-.211-.211-.506-.317-.884-.317-.371 0-.666.106-.884.317-.21.212-.317.522-.317.932v1.403c0 .41.106.72.317.932.218.211.513.317.884.317zm3.096 2.036v-2.084h.432c.11-.109.221-.324.337-.644.121-.32.185-.727.192-1.22l.057-2.68h3.45v4.544h.672v2.084h-.769v-1.345h-3.602v1.345h-.769zm1.345-2.084h2.258v-3.776h-1.768l-.039 1.931c-.006.506-.06.916-.163 1.23-.102.314-.198.518-.288.615zm6.938.835c-.416 0-.78-.083-1.095-.249a1.812 1.812 0 01-.72-.702 2.202 2.202 0 01-.25-1.066v-1.441c0-.41.083-.765.25-1.066.173-.301.413-.535.72-.702.314-.166.68-.25 1.096-.25.416 0 .778.084 1.085.25.314.167.554.401.72.702.173.301.26.656.26 1.066v.932h-3.285v.509c0 .416.105.736.316.961.212.217.513.326.904.326.333 0 .602-.057.806-.173a.762.762 0 00.375-.538h.865a1.473 1.473 0 01-.654 1.057c-.37.256-.835.384-1.392.384zm1.22-3.103v-.355c0-.416-.105-.737-.316-.961-.205-.224-.506-.336-.904-.336-.39 0-.691.112-.903.336-.21.224-.316.545-.316.961v.278h2.507l-.067.077zm2.491 3.007v-5.283h.826v2.882c0 .185-.006.381-.019.586-.006.205-.019.4-.038.586a6.11 6.11 0 01-.048.461l2.132-4.515h1.105v5.283h-.826v-2.882c0-.186.003-.381.01-.586.012-.205.028-.4.048-.586l.048-.471-2.133 4.525h-1.105zm2.018-6.148c-.462 0-.833-.128-1.115-.384-.282-.257-.422-.593-.422-1.009h.682c0 .25.077.451.23.605.154.154.359.231.615.231.263 0 .47-.077.624-.231a.8.8 0 00.24-.605h.683c0 .416-.141.752-.423 1.009-.282.256-.653.384-1.114.384zm5.67 6.244a2.46 2.46 0 01-1.114-.24 1.73 1.73 0 01-.73-.692c-.173-.307-.26-.669-.26-1.085v-1.441c0-.423.087-.785.26-1.086.172-.301.416-.531.73-.691a2.46 2.46 0 011.114-.241c.608 0 1.098.164 1.47.49.371.327.567.772.586 1.336h-.865c-.019-.34-.134-.599-.346-.778-.205-.186-.486-.279-.845-.279-.378 0-.679.109-.903.327-.224.211-.336.515-.336.912v1.451c0 .397.112.704.336.922.224.218.525.327.903.327.359 0 .64-.093.846-.279.21-.186.326-.445.345-.778h.865c-.02.564-.215 1.009-.586 1.335-.372.327-.862.49-1.47.49zm5.238-.096v-4.525h-1.921v-.758h4.707v.758h-1.921v4.525h-.865zm4.143 0v-5.283h2.287c.55 0 .976.124 1.277.374.301.244.452.586.452 1.028 0 .365-.125.66-.375.884-.25.218-.58.327-.99.327v-.077c.449 0 .808.112 1.077.336.275.224.413.525.413.903 0 .474-.16.845-.48 1.114-.32.263-.77.394-1.346.394h-2.315zm.846-.759h1.47c.307 0 .544-.067.71-.201a.679.679 0 00.26-.567c0-.25-.087-.442-.26-.577-.166-.134-.403-.201-.71-.201h-1.47v1.546zm0-2.296h1.44c.27 0 .48-.064.635-.192.16-.128.24-.307.24-.538 0-.23-.077-.41-.23-.538-.154-.134-.369-.202-.644-.202h-1.441v1.47zm4.844 3.055v-5.283h.826v2.882c0 .185-.006.381-.02.586a8.2 8.2 0 01-.038.586 6.157 6.157 0 01-.048.461l2.133-4.515h1.105v5.283h-.826v-2.882c0-.186.003-.381.01-.586.012-.205.028-.4.047-.586l.048-.471-2.132 4.525h-1.105zm5.363 0l1.354-2.036c-.403-.096-.717-.282-.941-.558-.218-.275-.327-.618-.327-1.027 0-.519.17-.926.51-1.221.345-.294.816-.441 1.412-.441h2.276v5.283h-.864v-1.969h-1.163l-1.248 1.969h-1.01zm2.008-2.738h1.412v-1.777h-1.412c-.32 0-.573.08-.76.24-.185.154-.278.372-.278.654 0 .275.093.493.279.653.186.153.438.23.759.23zm9.698 2.738v-5.283h.826v2.882c0 .185-.006.381-.019.586-.007.205-.019.4-.039.586a5.376 5.376 0 01-.048.461l2.133-4.515h1.105v5.283h-.826v-2.882c0-.186.003-.381.009-.586.013-.205.029-.4.048-.586l.048-.471-2.132 4.525h-1.105zm13.32.096c-.609 0-1.096-.163-1.461-.49-.365-.326-.557-.771-.576-1.335h.865c.019.333.131.592.336.778.205.186.483.279.836.279.378 0 .669-.109.874-.327.211-.218.317-.525.317-.922v-.384h-1.873v-.769h1.873v-.298c0-.397-.106-.701-.317-.912-.205-.218-.496-.327-.874-.327-.353 0-.631.093-.836.279-.205.179-.317.438-.336.778h-.865c.019-.564.211-1.009.576-1.336.365-.326.852-.49 1.461-.49.429 0 .794.081 1.095.241.307.16.544.39.711.691.166.301.249.663.249 1.086v1.441c0 .416-.083.778-.249 1.085a1.689 1.689 0 01-.711.692c-.301.16-.666.24-1.095.24zm3.576-.096v-5.283h1.172l.692 2.027c.07.205.134.409.192.614.057.199.099.353.125.462.025-.109.064-.263.115-.462.057-.205.118-.413.182-.624l.654-2.017h1.172v5.283h-.836v-.816c0-.289.003-.602.009-.942l.02-1.028c.012-.346.025-.672.038-.98.013-.313.023-.589.029-.826l-.942 3.007h-.912l-.951-2.988c.013.289.022.647.029 1.076.012.429.022.878.028 1.345.013.468.02.913.02 1.336v.816h-.836zm7.841.077c-.422 0-.787-.08-1.095-.24a1.745 1.745 0 01-.72-.692c-.167-.307-.25-.669-.25-1.085v-1.403c0-.423.083-.784.25-1.085.173-.301.413-.532.72-.692.308-.16.673-.24 1.095-.24.423 0 .788.08 1.096.24.307.16.544.391.71.692.173.301.26.659.26 1.075v1.413c0 .416-.087.778-.26 1.085a1.68 1.68 0 01-.71.692c-.308.16-.673.24-1.096.24zm0-.768c.378 0 .673-.106.884-.317.212-.212.317-.522.317-.932v-1.403c0-.41-.105-.72-.317-.932-.211-.211-.506-.317-.884-.317-.371 0-.666.106-.883.317-.212.212-.317.522-.317.932v1.403c0 .41.105.72.317.932.217.211.512.317.883.317zm7.467 2.036v-1.345h-3.756v-5.283h.865v4.515h2.075v-4.515h.864v4.515h.721v2.113h-.769zm1.934-1.345v-5.283h.826v2.882c0 .185-.007.381-.019.586-.007.205-.02.4-.039.586a6.326 6.326 0 01-.048.461l2.133-4.515h1.105v5.283h-.826v-2.882c0-.186.003-.381.009-.586.013-.205.029-.4.048-.586l.048-.471-2.133 4.525h-1.104zm5.689 0v-5.283h.827v2.882c0 .185-.007.381-.02.586-.006.205-.019.4-.038.586a6.326 6.326 0 01-.048.461l2.133-4.515h1.104v5.283h-.826v-2.882c0-.186.003-.381.01-.586.013-.205.029-.4.048-.586l.048-.471-2.133 4.525h-1.105zm11.38 0v-5.283h.864v2.199h2.229v-2.199h.865v5.283h-.865v-2.296h-2.229v2.296h-.864zm7.207.096c-.557 0-.996-.141-1.316-.422-.32-.289-.48-.676-.48-1.163 0-.493.16-.88.48-1.162.32-.282.753-.423 1.297-.423h1.633v-.528c0-.327-.099-.577-.298-.75-.192-.179-.467-.269-.826-.269-.314 0-.576.068-.788.202a.718.718 0 00-.365.529h-.864c.057-.455.272-.817.643-1.086.372-.269.836-.404 1.393-.404.609 0 1.089.157 1.441.471.353.314.529.74.529 1.278v3.631h-.846v-1.008h-.144l.144-.145c0 .385-.15.689-.451.913-.295.224-.689.336-1.182.336zm.212-.682c.409 0 .746-.102 1.008-.307a.956.956 0 00.394-.788v-.749h-1.614c-.288 0-.515.08-.682.24-.166.16-.25.378-.25.653 0 .295.1.529.298.701.205.167.487.25.846.25zM15.185 137.073v-5.283h.864v2.18h.903l1.537-2.18h.99l-1.777 2.517 1.806 2.766h-1.009l-1.537-2.353h-.913v2.353h-.864zm7.178.096c-.557 0-.995-.141-1.316-.422-.32-.289-.48-.676-.48-1.163 0-.493.16-.88.48-1.162.32-.282.753-.423 1.297-.423h1.633v-.528c0-.327-.099-.577-.297-.75-.192-.179-.468-.269-.827-.269-.313 0-.576.068-.787.202a.717.717 0 00-.365.529h-.865c.058-.455.272-.817.644-1.086.371-.269.835-.404 1.393-.404.608 0 1.088.157 1.44.471.353.314.529.74.529 1.278v3.631h-.845v-1.008h-.145l.145-.145c0 .385-.15.689-.452.913-.295.224-.688.336-1.182.336zm.212-.682c.41 0 .746-.102 1.009-.307a.957.957 0 00.393-.788v-.749h-1.614c-.288 0-.515.08-.682.24-.166.16-.25.378-.25.653 0 .295.1.529.298.701.205.167.487.25.846.25zm3.23.586l1.153-2.709-1.076-2.574h.836l.922 2.305h.51v-2.305h.73v2.305h.49l.95-2.305h.826l-1.075 2.545 1.152 2.738h-.864l-.96-2.401h-.52v2.401h-.73v-2.401h-.519l-.97 2.401h-.855zm5.805 1.345v-2.084h.432c.11-.109.221-.324.337-.644.121-.32.185-.727.192-1.22l.057-2.68h3.45v4.544h.672v2.084h-.769v-1.345H32.38v1.345h-.769zm1.345-2.084h2.258v-3.776h-1.768l-.038 1.931c-.007.506-.061.916-.164 1.23-.102.314-.198.518-.288.615zm6.939.816c-.423 0-.788-.08-1.096-.24a1.744 1.744 0 01-.72-.692c-.167-.307-.25-.669-.25-1.085v-1.403c0-.423.083-.784.25-1.085.173-.301.413-.532.72-.692.308-.16.673-.24 1.096-.24.422 0 .787.08 1.095.24.307.16.544.391.71.692.174.301.26.659.26 1.075v1.413c0 .416-.086.778-.26 1.085a1.683 1.683 0 01-.71.692c-.308.16-.673.24-1.095.24zm0-.768c.377 0 .672-.106.883-.317.212-.212.317-.522.317-.932v-1.403c0-.41-.105-.72-.317-.932-.211-.211-.506-.317-.883-.317-.372 0-.666.106-.884.317-.212.212-.317.522-.317.932v1.403c0 .41.105.72.317.932.218.211.512.317.884.317zm3.537.691v-5.283h1.172l.692 2.027c.07.205.134.409.192.614.058.199.1.353.125.462.026-.109.064-.263.115-.462.058-.205.119-.413.183-.624l.653-2.017h1.172v5.283H46.9v-.816c0-.289.004-.602.01-.942l.02-1.028c.012-.346.025-.672.038-.98.012-.313.022-.589.028-.826l-.941 3.007h-.913l-.95-2.988c.012.289.022.647.028 1.076.013.429.023.878.029 1.345.013.468.02.913.02 1.336v.816h-.837zm13.493.096c-.608 0-1.095-.163-1.46-.49-.365-.326-.557-.771-.576-1.335h.864c.02.333.131.592.336.778.205.186.484.279.836.279.378 0 .67-.109.874-.327.212-.218.317-.525.317-.922v-.384h-1.873v-.769h1.873v-.298c0-.397-.105-.701-.317-.912-.205-.218-.496-.327-.874-.327-.352 0-.63.093-.836.279-.205.179-.317.438-.336.778h-.864c.019-.564.21-1.009.576-1.336.365-.326.852-.49 1.46-.49.43 0 .794.081 1.095.241.308.16.545.39.711.691.167.301.25.663.25 1.086v1.441c0 .416-.083.778-.25 1.085a1.683 1.683 0 01-.71.692c-.302.16-.667.24-1.096.24zm5.296-.096v-4.525h-1.922v-.758h4.708v.758h-1.922v4.525h-.864zm5.66.096c-.556 0-.995-.141-1.315-.422-.32-.289-.48-.676-.48-1.163 0-.493.16-.88.48-1.162.32-.282.752-.423 1.297-.423h1.633v-.528c0-.327-.1-.577-.298-.75-.192-.179-.468-.269-.826-.269-.314 0-.577.068-.788.202a.717.717 0 00-.365.529h-.865c.058-.455.272-.817.644-1.086.371-.269.836-.404 1.393-.404.608 0 1.089.157 1.44.471.353.314.53.74.53 1.278v3.631h-.846v-1.008h-.144l.144-.145c0 .385-.15.689-.452.913-.294.224-.688.336-1.181.336zm.212-.682c.41 0 .746-.102 1.009-.307a.957.957 0 00.394-.788v-.749H67.88c-.288 0-.516.08-.682.24-.167.16-.25.378-.25.653 0 .295.1.529.298.701.205.167.486.25.845.25zm3.96.586v-5.283h3.958v5.283h-.864v-4.496h-2.229v4.496h-.865zm7.67.096a2.31 2.31 0 01-1.096-.249 1.812 1.812 0 01-.72-.702 2.203 2.203 0 01-.25-1.066v-1.441c0-.41.083-.765.25-1.066.172-.301.413-.535.72-.702a2.31 2.31 0 011.095-.25c.416 0 .778.084 1.086.25.314.167.554.401.72.702.173.301.26.656.26 1.066v.932H78.5v.509c0 .416.106.736.317.961.212.217.513.326.903.326.333 0 .602-.057.807-.173a.762.762 0 00.375-.538h.864a1.473 1.473 0 01-.653 1.057c-.371.256-.836.384-1.393.384zm1.22-3.103v-.355c0-.416-.106-.737-.318-.961-.205-.224-.506-.336-.903-.336-.39 0-.692.112-.903.336-.211.224-.317.545-.317.961v.278h2.507l-.067.077zm8.18 3.007v-5.283h3.957v5.283h-.864v-4.496h-2.229v4.496h-.865zm7.668.077c-.423 0-.788-.08-1.095-.24a1.744 1.744 0 01-.72-.692c-.167-.307-.25-.669-.25-1.085v-1.403c0-.423.083-.784.25-1.085a1.74 1.74 0 01.72-.692c.307-.16.672-.24 1.095-.24.423 0 .788.08 1.095.24.308.16.545.391.711.692.173.301.26.659.26 1.075v1.413c0 .416-.087.778-.26 1.085a1.683 1.683 0 01-.71.692c-.308.16-.673.24-1.096.24zm0-.768c.378 0 .673-.106.884-.317.211-.212.317-.522.317-.932v-1.403c0-.41-.106-.72-.317-.932-.211-.211-.506-.317-.884-.317-.371 0-.666.106-.884.317-.211.212-.317.522-.317.932v1.403c0 .41.106.72.317.932.218.211.513.317.884.317zm3.74.691v-5.283h.864v2.18h.903l1.537-2.18h.99l-1.777 2.517 1.806 2.766h-1.009l-1.537-2.353h-.913v2.353h-.864zm6.467 1.729l.779-2.055-1.96-4.957h.96l1.23 3.266c.045.109.087.24.125.394l.096.374.096-.374c.039-.154.077-.285.115-.394l1.153-3.266h.932l-2.603 7.012h-.923zm4.883-1.729v-5.283h3.958v5.283h-.865v-4.496h-2.228v4.496h-.865zm5.719 0v-5.283h.864v2.18h.903l1.537-2.18h.99l-1.777 2.517 1.806 2.766h-1.009l-1.537-2.353h-.913v2.353h-.864zm5.66 0v-5.283h.827v2.882c0 .185-.007.381-.02.586-.006.205-.019.4-.038.586a6.326 6.326 0 01-.048.461l2.133-4.515h1.104v5.283h-.826v-2.882c0-.186.003-.381.01-.586.013-.205.029-.4.048-.586l.048-.471-2.133 4.525h-1.105zm7.669.096c-.243 0-.439-.07-.586-.211-.141-.141-.211-.33-.211-.567 0-.25.07-.448.211-.595.147-.148.343-.221.586-.221.243 0 .436.073.576.221.148.147.221.345.221.595 0 .237-.073.426-.221.567-.14.141-.333.211-.576.211zM16.92 27.096c-.448 0-.842-.083-1.181-.25a1.923 1.923 0 01-.778-.72c-.18-.314-.27-.682-.27-1.105v-3.055c0-.429.09-.797.27-1.105.185-.307.445-.544.778-.71.34-.174.733-.26 1.181-.26.455 0 .846.087 1.172.26.334.166.593.403.779.71.185.308.278.676.278 1.105h-1.21c0-.333-.09-.586-.27-.759-.172-.173-.422-.26-.749-.26-.326 0-.58.087-.759.26-.179.173-.269.423-.269.75v3.064c0 .327.09.58.27.759.179.173.432.26.758.26.327 0 .577-.087.75-.26.18-.18.269-.432.269-.759h1.21c0 .416-.093.781-.278 1.095a1.903 1.903 0 01-.778.73c-.327.167-.718.25-1.173.25zm5.652-.01c-.449 0-.84-.083-1.172-.25a1.938 1.938 0 01-.769-.72c-.18-.314-.269-.682-.269-1.105v-1.306c0-.423.09-.788.27-1.095a1.84 1.84 0 01.768-.72c.333-.174.723-.26 1.172-.26.454 0 .845.086 1.172.26.326.166.58.406.759.72.185.307.278.669.278 1.085v1.316c0 .423-.093.791-.278 1.105-.18.308-.433.548-.76.72-.326.167-.717.25-1.171.25zm0-1.047c.32 0 .567-.086.74-.26.179-.178.268-.435.268-.768v-1.306c0-.34-.09-.596-.269-.769-.172-.173-.42-.259-.74-.259-.313 0-.56.086-.739.26-.18.172-.269.428-.269.768v1.306c0 .333.09.59.269.769.18.173.426.26.74.26zm5.709 1.057c-.449 0-.843-.083-1.182-.25a1.923 1.923 0 01-.778-.72c-.186-.314-.279-.682-.279-1.105v-1.326c0-.429.093-.797.279-1.105.185-.307.445-.544.778-.71.34-.173.733-.26 1.181-.26.667 0 1.198.173 1.595.519.397.34.605.804.625 1.393h-1.201c-.02-.275-.119-.487-.298-.634-.173-.154-.413-.23-.72-.23-.32 0-.574.089-.76.268-.185.173-.278.423-.278.75v1.335c0 .327.093.58.279.759.185.18.438.269.759.269.307 0 .547-.074.72-.221.18-.154.279-.368.298-.644h1.2c-.018.59-.227 1.057-.624 1.403-.397.34-.928.51-1.595.51zM33.346 27v-4.179H31.54v-1.105h4.822v1.105h-1.806V27h-1.21zm5.709.096c-.545 0-.974-.144-1.288-.432-.314-.288-.47-.676-.47-1.163 0-.518.172-.919.518-1.2.346-.282.836-.423 1.47-.423h1.316v-.452c0-.256-.083-.454-.25-.595-.166-.148-.393-.221-.681-.221-.263 0-.48.057-.654.173a.675.675 0 00-.307.47h-1.172c.057-.5.282-.896.672-1.19.39-.296.89-.443 1.499-.443.647 0 1.156.163 1.527.49.378.32.567.756.567 1.307V27H40.64v-.922h-.192l.192-.26c0 .391-.144.702-.433.932-.288.23-.672.346-1.152.346zm.394-.903c.339 0 .614-.086.826-.26a.82.82 0 00.326-.672v-.643h-1.297c-.243 0-.438.07-.586.21a.736.736 0 00-.22.558c0 .25.083.448.25.596.172.14.406.211.7.211zm3.739.807v-5.284h2.344c.609 0 1.086.128 1.431.385.353.25.529.595.529 1.037 0 .359-.138.647-.413.865-.27.217-.628.326-1.076.326v-.086c.486 0 .877.115 1.172.346.294.224.442.525.442.903 0 .467-.18.835-.538 1.104-.352.27-.84.404-1.46.404h-2.431zm1.182-.913h1.21c.27 0 .48-.06.634-.182a.593.593 0 00.23-.49.613.613 0 00-.23-.51c-.154-.121-.365-.182-.634-.182h-1.21v1.364zm0-2.17h1.172c.237 0 .425-.058.566-.174a.576.576 0 00.212-.47.576.576 0 00-.212-.471c-.134-.122-.323-.183-.566-.183H44.37v1.297zm3.989 3.15v-1.095h.24a.54.54 0 00.49-.26c.115-.179.176-.46.183-.845l.057-3.15h3.824V27h-1.201v-4.17H50.51l-.039 2.105c-.012.46-.09.851-.23 1.172a1.609 1.609 0 01-.605.72c-.263.16-.583.24-.961.24h-.317zm8.36.03c-.448 0-.839-.087-1.172-.26a1.924 1.924 0 01-.778-.72 2.17 2.17 0 01-.269-1.096v-1.326c0-.416.09-.778.269-1.085.186-.314.445-.558.778-.73.333-.173.724-.26 1.172-.26.442 0 .826.087 1.153.26.333.172.59.416.769.73.185.307.278.669.278 1.085v.951h-3.256v.375c0 .371.09.653.269.845.179.186.445.279.797.279.269 0 .487-.045.653-.134a.642.642 0 00.317-.414h1.182c-.09.455-.333.82-.73 1.096-.391.269-.868.403-1.432.403zm1.038-3.123v-.288c0-.365-.087-.644-.26-.836-.173-.199-.432-.298-.778-.298-.346 0-.608.1-.788.298-.179.198-.268.48-.268.845v.202l2.18-.02-.086.097zM60.267 27v-5.284h1.2v2.046h1.864v-2.046h1.201V27h-1.2v-2.123h-1.865V27h-1.2zm5.69 0v-5.284h1.085v2.604c0 .166-.01.365-.029.595a13.998 13.998 0 01-.135 1.23l1.864-4.429h1.48V27h-1.086v-2.603c0-.173.007-.365.02-.577.018-.211.038-.42.057-.624.026-.205.051-.378.077-.519L67.436 27h-1.48zm7.831.096c-.448 0-.839-.086-1.172-.26a1.923 1.923 0 01-.778-.72 2.17 2.17 0 01-.269-1.095v-1.326c0-.416.09-.778.269-1.085.186-.314.445-.558.778-.73.333-.173.724-.26 1.172-.26.442 0 .826.087 1.153.26.333.172.59.416.769.73.185.307.278.669.278 1.085v.951h-3.257v.375c0 .371.09.653.27.845.179.186.444.279.797.279.269 0 .486-.045.653-.134a.642.642 0 00.317-.414h1.182c-.09.455-.333.82-.73 1.096-.391.269-.868.403-1.432.403zm1.038-3.122v-.288c0-.365-.087-.644-.26-.836-.173-.199-.432-.298-.778-.298-.346 0-.608.1-.788.298-.179.198-.269.48-.269.845v.202l2.181-.02-.086.097zm10.37 3.122c-.448 0-.842-.083-1.181-.25a1.923 1.923 0 01-.778-.72c-.18-.314-.27-.682-.27-1.105v-3.055c0-.429.09-.797.27-1.105.185-.307.445-.544.778-.71.34-.174.733-.26 1.181-.26.455 0 .846.087 1.172.26.333.166.593.403.779.71.185.308.278.676.278 1.105h-1.21c0-.333-.09-.586-.27-.759-.172-.173-.422-.26-.749-.26-.326 0-.58.087-.759.26-.179.173-.269.423-.269.75v3.064c0 .327.09.58.27.759.179.173.432.26.758.26.327 0 .577-.087.75-.26.179-.18.269-.432.269-.759h1.21c0 .416-.093.781-.278 1.095a1.903 1.903 0 01-.779.73c-.326.167-.717.25-1.172.25zm5.363.01c-.71 0-1.274-.196-1.69-.586-.41-.397-.615-.929-.615-1.595h1.2c0 .352.1.628.298.826.199.199.468.298.807.298.34 0 .609-.096.807-.288.199-.199.298-.474.298-.826v-3.833h-1.633v-1.115h2.834v4.948c0 .672-.208 1.204-.624 1.594-.41.384-.97.577-1.682.577zM94.193 27v-7.013h1.422l.682 2.229c.07.224.128.429.173.615.045.185.074.32.086.403.013-.083.042-.218.087-.403.045-.186.1-.391.163-.615l.653-2.229h1.422V27h-1.124v-2.18c0-.321.01-.67.03-1.048a53.372 53.372 0 01.153-2.209c.038-.34.07-.638.096-.894l-.942 3.314H96l-.97-3.314a35.763 35.763 0 01.183 1.921c.031.372.057.75.076 1.134.02.384.03.75.03 1.095V27h-1.125zm11.62 0v-5.284h1.2v2.075h.788l1.288-2.075h1.344l-1.594 2.556L110.462 27h-1.373l-1.288-2.19h-.788V27h-1.2zm5.132.067v-1.095h.24a.54.54 0 00.49-.26c.115-.179.176-.46.183-.845l.057-3.15h3.824V27h-1.201v-4.17h-1.441l-.038 2.105c-.013.46-.09.851-.231 1.172a1.609 1.609 0 01-.605.72c-.263.16-.583.24-.961.24h-.317zm6.218-.067v-5.284h1.086v2.604c0 .166-.01.365-.029.595a12.385 12.385 0 01-.135 1.23l1.864-4.429h1.48V27h-1.086v-2.603c0-.173.006-.365.019-.577l.058-.624c.025-.205.051-.378.077-.519L118.643 27h-1.48zm7.832.096c-.448 0-.839-.086-1.172-.26a1.925 1.925 0 01-.778-.72 2.172 2.172 0 01-.269-1.095v-1.326c0-.416.09-.778.269-1.085.186-.314.445-.558.778-.73.333-.173.724-.26 1.172-.26.442 0 .826.087 1.153.26.333.172.589.416.768.73.186.307.279.669.279 1.085v.951h-3.257v.375c0 .371.09.653.269.845.18.186.445.279.798.279.269 0 .486-.045.653-.134a.644.644 0 00.317-.414h1.182c-.09.455-.333.82-.731 1.096-.39.269-.867.403-1.431.403zm1.038-3.122v-.288c0-.365-.087-.644-.26-.836-.173-.199-.432-.298-.778-.298-.346 0-.608.1-.788.298-.179.198-.269.48-.269.845v.202l2.181-.02-.086.097zM128.542 27v-5.284h1.201v2.046h1.864v-2.046h1.201V27h-1.201v-2.123h-1.864V27h-1.201zm7.218 0v-4.179h-1.807v-1.105h4.823v1.105h-1.806V27h-1.21zm5.708.096c-.544 0-.973-.144-1.287-.432-.314-.288-.471-.676-.471-1.163 0-.518.173-.919.519-1.2.346-.282.836-.423 1.47-.423h1.316v-.452c0-.256-.083-.454-.25-.595-.166-.148-.394-.221-.682-.221-.262 0-.48.057-.653.173a.674.674 0 00-.307.47h-1.172c.057-.5.281-.896.672-1.19.391-.296.89-.443 1.499-.443.647 0 1.156.163 1.527.49.378.32.567.756.567 1.307V27h-1.162v-.922h-.193l.193-.26c0 .391-.145.702-.433.932-.288.23-.672.346-1.153.346zm.394-.903c.34 0 .615-.086.826-.26a.82.82 0 00.327-.672v-.643h-1.297c-.243 0-.439.07-.586.21a.737.737 0 00-.221.558c0 .25.083.448.25.596.173.14.407.211.701.211zm5.882-2.959c-.269 0-.487-.074-.653-.22a.778.778 0 01-.24-.587c0-.243.08-.439.24-.586.166-.147.384-.22.653-.22s.484.073.644.22c.166.147.25.343.25.586a.765.765 0 01-.25.586c-.16.147-.375.221-.644.221zm0 3.862c-.269 0-.487-.074-.653-.22a.758.758 0 01-.24-.587c0-.243.08-.439.24-.586.166-.147.384-.22.653-.22s.484.073.644.22c.166.147.25.343.25.586a.746.746 0 01-.25.586c-.16.147-.375.221-.644.221z" fill="#000"/><defs><filter id="filter0_d_2004_48" x=".804" y="0" width="179.646" height="178.685" filterUnits="userSpaceOnUse" color-interpolation-filters="sRGB"><feFlood flood-opacity="0" result="BackgroundImageFix"/><feColorMatrix in="SourceAlpha" values="0 0 0 0 0 0 0 0 0 0 0 0 0 0 0 0 0 0 127 0" result="hardAlpha"/><feOffset dy="3.843"/><feGaussianBlur stdDeviation="1.921"/><feComposite in2="hardAlpha" operator="out"/><feColorMatrix values="0 0 0 0 0 0 0 0 0 0 0 0 0 0 0 0 0 0 0.25 0"/><feBlend in2="BackgroundImageFix" result="effect1_dropShadow_2004_48"/><feBlend in="SourceGraphic" in2="effect1_dropShadow_2004_48" result="shape"/></filter></defs></svg>