<svg width="181" height="179" fill="none" xmlns="http://www.w3.org/2000/svg"><g filter="url(#filter0_d_2004_51)"><rect x="4.646" width="171.961" height="171" rx="16.011" fill="#F5ECDB"/></g><mask id="a" style="mask-type:alpha" maskUnits="userSpaceOnUse" x="4" y="0" width="173" height="43"><path fill="#C9D9CD" d="M4.646 0h171.961v42.27H4.646z"/></mask><g mask="url(#a)"><rect x="4.646" y="-1.69" width="171.961" height="118.355" rx="16.011" fill="#AB9F85"/></g><path d="M15.137 60.073V53.06h2.257c.436 0 .814.087 1.134.26.32.166.567.403.74.71.179.308.269.673.269 1.096 0 .416-.09.781-.27 1.095a1.82 1.82 0 01-.74.72c-.32.167-.697.25-1.133.25h-1.393v2.882h-.864zm.864-3.66h1.393c.378 0 .68-.115.903-.346.23-.237.346-.55.346-.941 0-.397-.115-.711-.346-.942-.224-.23-.525-.345-.903-.345h-1.393v2.574zm6.362 3.756c-.557 0-.995-.14-1.316-.422-.32-.289-.48-.676-.48-1.163 0-.493.16-.88.48-1.162.32-.282.753-.423 1.297-.423h1.633v-.528c0-.327-.099-.577-.297-.75-.192-.179-.468-.269-.827-.269-.313 0-.576.068-.787.202a.718.718 0 00-.365.528h-.865c.058-.454.272-.816.644-1.085.371-.269.835-.404 1.393-.404.608 0 1.088.157 1.44.471.353.314.529.74.529 1.278v3.631h-.845v-1.008h-.145l.145-.145c0 .385-.15.689-.452.913-.295.224-.688.336-1.182.336zm.212-.682c.41 0 .746-.102 1.009-.307a.956.956 0 00.393-.788v-.75h-1.614c-.288 0-.515.08-.682.24-.166.161-.25.379-.25.654 0 .295.1.529.298.701.205.167.487.25.846.25zm5.69.654c-.558 0-1.016-.119-1.374-.356a1.412 1.412 0 01-.634-.96h.912c.045.16.164.29.356.393.198.103.445.154.74.154h.451c.314 0 .557-.074.73-.221a.71.71 0 00.27-.576c0-.257-.087-.458-.26-.606-.167-.147-.413-.22-.74-.22h-1.162v-.75h1.133c.295 0 .519-.07.673-.211a.72.72 0 00.23-.557.727.727 0 00-.105-.404.61.61 0 00-.298-.25 1.24 1.24 0 00-.49-.086h-.48c-.257 0-.478.057-.663.173-.186.115-.298.256-.337.422h-.912c.064-.397.272-.723.624-.98.352-.256.782-.384 1.288-.384h.48c.378 0 .701.061.97.183.27.115.474.282.615.5.147.217.22.477.22.777 0 .314-.102.574-.307.779-.204.198-.493.31-.864.336v.038c.455.032.784.154.99.365.204.212.307.516.307.913 0 .468-.173.839-.519 1.114-.346.276-.81.414-1.393.414h-.451zm3.94 1.662v-7.014h.865v1.01h.173L33.07 56c0-.404.132-.72.394-.951.27-.237.621-.355 1.057-.355.532 0 .954.176 1.268.528.32.346.48.823.48 1.431V58.2c0 .403-.073.752-.22 1.047a1.57 1.57 0 01-.606.682c-.256.16-.563.24-.922.24-.43 0-.778-.118-1.047-.355-.27-.237-.404-.554-.404-.951l.173.202h-.192l.02 1.2v1.538h-.865zm2.028-2.383c.365 0 .65-.109.855-.327.211-.217.317-.531.317-.941V56.71c0-.41-.106-.724-.317-.942-.205-.217-.49-.326-.855-.326-.352 0-.634.112-.846.336-.211.224-.317.535-.317.932v1.44c0 .398.106.709.317.933.212.224.493.336.846.336zm5.2.75c-.558 0-.996-.142-1.317-.423-.32-.289-.48-.676-.48-1.163 0-.493.16-.88.48-1.162.32-.282.753-.423 1.297-.423h1.633v-.528c0-.327-.099-.577-.297-.75-.193-.179-.468-.269-.827-.269-.313 0-.576.068-.787.202a.718.718 0 00-.365.528h-.865c.058-.454.272-.816.644-1.085.371-.269.835-.404 1.393-.404.608 0 1.088.157 1.44.471.353.314.529.74.529 1.278v3.631h-.845v-1.008h-.145l.145-.145c0 .385-.15.689-.452.913-.294.224-.688.336-1.182.336zm.21-.683c.41 0 .747-.102 1.01-.307a.956.956 0 00.393-.788v-.75h-1.614c-.288 0-.515.08-.682.24-.166.161-.25.379-.25.654 0 .295.1.529.298.701.205.167.487.25.846.25zm5.94.682c-.621 0-1.114-.182-1.48-.547-.358-.372-.537-.878-.537-1.518v-2.402c0-.845.211-1.495.634-1.95.423-.461 1.028-.692 1.816-.692h1.345v.865h-1.345c-.52 0-.913.154-1.182.461-.27.301-.404.74-.404 1.316v.625h.135l-.135.192c.007-.378.135-.673.385-.884.25-.211.589-.317 1.018-.317.557 0 .99.18 1.297.538.314.358.47.852.47 1.48v.768c0 .429-.08.797-.24 1.105-.16.307-.39.544-.691.71-.301.167-.663.25-1.086.25zm0-.768c.372 0 .657-.112.855-.337.199-.224.298-.544.298-.96v-.769c0-.416-.1-.736-.298-.96-.198-.224-.483-.337-.855-.337-.371 0-.656.113-.855.337-.198.217-.298.538-.298.96v.769c0 .416.1.736.298.96.199.225.484.337.855.337zm5.69.75c-.423 0-.788-.081-1.095-.241a1.743 1.743 0 01-.72-.692c-.167-.307-.25-.669-.25-1.085V56.73c0-.423.083-.784.25-1.085.172-.302.412-.532.72-.692.307-.16.672-.24 1.095-.24.423 0 .788.08 1.095.24.307.16.544.39.71.691.174.302.26.66.26 1.077v1.412c0 .416-.086.778-.26 1.085a1.682 1.682 0 01-.71.692c-.307.16-.672.24-1.095.24zm0-.77c.378 0 .672-.105.884-.316.211-.212.317-.522.317-.932V56.73c0-.41-.106-.72-.317-.932-.212-.211-.506-.317-.884-.317-.372 0-.666.106-.884.317-.211.212-.317.522-.317.932v1.403c0 .41.106.72.317.931.218.212.512.318.884.318zm5.257.692v-4.525h-1.92v-.759h4.707v.76h-1.921v4.524h-.865zm5.661.096c-.557 0-.996-.14-1.316-.422-.32-.289-.48-.676-.48-1.163 0-.493.16-.88.48-1.162.32-.282.752-.423 1.297-.423h1.633v-.528c0-.327-.1-.577-.298-.75-.192-.179-.467-.269-.826-.269-.314 0-.576.068-.788.202a.718.718 0 00-.365.528h-.864c.057-.454.272-.816.643-1.085.372-.269.836-.404 1.393-.404.609 0 1.089.157 1.441.471.352.314.529.74.529 1.278v3.631h-.846v-1.008h-.144l.144-.145c0 .385-.15.689-.451.913-.295.224-.689.336-1.182.336zm.211-.682c.41 0 .746-.102 1.01-.307a.956.956 0 00.393-.788v-.75h-1.614c-.288 0-.516.08-.682.24-.166.161-.25.379-.25.654 0 .295.1.529.298.701.205.167.487.25.845.25zm3.298.654v-.807h.173c.294 0 .5-.116.615-.346.121-.23.186-.644.192-1.24l.057-2.959h3.584v5.284h-.865v-4.496h-1.864l-.047 2.21c-.013.557-.077 1.008-.193 1.354-.109.346-.281.6-.518.76-.231.16-.535.24-.913.24H65.7zm6.352-.068V54.79h.827v2.883c0 .185-.007.38-.02.586a8.13 8.13 0 01-.038.586 6.233 6.233 0 01-.048.46l2.133-4.515h1.104v5.284h-.826v-2.882c0-.186.004-.38.01-.586.013-.205.029-.4.048-.586l.048-.47-2.133 4.524h-1.105zm11.207 0V54.79h1.172l.692 2.028c.07.205.134.41.192.614.057.199.099.353.125.462.025-.11.064-.263.115-.462.057-.205.118-.413.182-.624l.654-2.018h1.172v5.284h-.836v-.816c0-.288.003-.602.01-.942l.019-1.028c.013-.346.025-.672.038-.98.013-.313.023-.589.029-.826l-.941 3.007h-.913l-.951-2.988c.013.289.022.647.029 1.076.013.43.022.878.029 1.345.012.468.019.913.019 1.336v.816h-.836zm7.38.096c-.557 0-.996-.14-1.316-.422-.32-.289-.48-.676-.48-1.163 0-.493.16-.88.48-1.162.32-.282.753-.423 1.297-.423h1.633v-.528c0-.327-.099-.577-.297-.75-.193-.179-.468-.269-.827-.269-.314 0-.576.068-.788.202a.718.718 0 00-.364.528h-.865c.058-.454.272-.816.644-1.085.371-.269.835-.404 1.392-.404.609 0 1.09.157 1.442.471.352.314.528.74.528 1.278v3.631h-.846v-1.008h-.144l.144-.145c0 .385-.15.689-.451.913-.295.224-.689.336-1.182.336zm.212-.682c.41 0 .746-.102 1.008-.307a.956.956 0 00.394-.788v-.75H90.64c-.288 0-.515.08-.682.24-.166.161-.25.379-.25.654 0 .295.1.529.298.701.205.167.487.25.846.25zm3.94 2.316v-7.014h.865v1.01h.173l-.172.201c0-.404.13-.72.393-.951.27-.237.622-.355 1.057-.355.532 0 .954.176 1.268.528.32.346.48.823.48 1.431V58.2c0 .403-.073.752-.22 1.047a1.57 1.57 0 01-.606.682c-.256.16-.563.24-.922.24-.429 0-.778-.118-1.047-.355-.269-.237-.404-.554-.404-.951l.173.202h-.192l.02 1.2v1.538h-.865zm2.028-2.383c.365 0 .65-.109.855-.327.211-.217.317-.531.317-.941V56.71c0-.41-.106-.724-.317-.942-.205-.217-.49-.326-.855-.326-.352 0-.634.112-.846.336-.21.224-.317.535-.317.932v1.44c0 .398.106.709.317.933.212.224.494.336.846.336zm3.711.653V54.79h.864v2.181h.903l1.537-2.18h.99l-1.777 2.517 1.806 2.766h-1.009l-1.537-2.353h-.913v2.353h-.864zm7.639.096c-.416 0-.781-.083-1.095-.25a1.809 1.809 0 01-.72-.7 2.198 2.198 0 01-.25-1.067V56.71c0-.41.083-.765.25-1.066a1.81 1.81 0 01.72-.702 2.31 2.31 0 011.095-.25c.417 0 .779.084 1.086.25.314.167.554.4.72.702.173.3.26.656.26 1.066v.932h-3.286v.509c0 .416.106.736.317.96.212.218.513.327.903.327.333 0 .602-.057.807-.173a.764.764 0 00.375-.538h.865a1.473 1.473 0 01-.654 1.057c-.371.256-.835.384-1.393.384zm1.22-3.103v-.355c0-.416-.105-.737-.317-.96-.204-.225-.505-.337-.903-.337-.39 0-.691.112-.903.336-.211.224-.317.545-.317.96v.28h2.508l-.068.076zm4.038 3.007v-4.525h-1.922v-.759h4.708v.76h-1.922v4.524h-.864zm4.143 0V54.79h.826v2.883c0 .185-.006.38-.019.586-.007.204-.019.4-.039.586a6.233 6.233 0 01-.048.46l2.133-4.515h1.105v5.284h-.826v-2.882c0-.186.003-.38.009-.586.013-.205.029-.4.048-.586l.048-.47-2.132 4.524h-1.105zm5.689 0V54.79h.865v2.2h2.229v-2.2h.864v5.284h-.864v-2.296h-2.229v2.296h-.865zm6.036 0V54.79h3.795v.788h-2.93v4.496h-.865zm7.323.077c-.423 0-.788-.08-1.095-.24a1.741 1.741 0 01-.721-.692c-.166-.307-.25-.669-.25-1.085V56.73c0-.423.084-.784.25-1.085.173-.302.413-.532.721-.692.307-.16.672-.24 1.095-.24.422 0 .787.08 1.095.24.307.16.544.39.711.691.173.302.259.66.259 1.077v1.412c0 .416-.086.778-.259 1.085a1.688 1.688 0 01-.711.692c-.308.16-.673.24-1.095.24zm0-.768c.378 0 .672-.106.884-.317.211-.212.317-.522.317-.932V56.73c0-.41-.106-.72-.317-.932-.212-.211-.506-.317-.884-.317-.372 0-.666.106-.884.317-.211.212-.317.522-.317.932v1.403c0 .41.106.72.317.931.218.212.512.318.884.318zm3.71.691V54.79h2.287c.551 0 .976.125 1.277.375.301.244.452.586.452 1.028 0 .365-.125.66-.375.884-.249.218-.579.327-.989.327v-.077c.448 0 .807.112 1.076.336.275.224.413.525.413.903 0 .474-.16.845-.48 1.114-.321.263-.769.394-1.345.394h-2.316zm.846-.759h1.47c.307 0 .544-.067.71-.201a.679.679 0 00.26-.567c0-.25-.087-.442-.26-.577-.166-.134-.403-.201-.71-.201h-1.47v1.546zm0-2.296h1.441c.269 0 .48-.064.634-.192.16-.128.24-.307.24-.538 0-.23-.077-.41-.231-.538-.153-.134-.368-.202-.643-.202h-1.441v1.47zm5.651 4.785l.778-2.056-1.96-4.958h.961l1.23 3.267c.045.109.086.24.125.394l.096.374c.025-.102.057-.227.096-.374.038-.154.077-.285.115-.394l1.153-3.267h.932l-2.604 7.014h-.922zm7.688-1.634c-.442 0-.798-.15-1.067-.451-.268-.301-.403-.695-.403-1.182v-.797h-.845v2.334h-.798V54.79h.798v2.258h.845v-.72c0-.493.131-.887.394-1.182.269-.301.628-.452 1.076-.452.474 0 .855.151 1.143.452.288.295.432.688.432 1.182v2.21c0 .486-.144.88-.432 1.18-.288.302-.669.452-1.143.452zm0-.672c.243 0 .432-.083.567-.25.141-.173.211-.41.211-.71v-2.21c0-.301-.07-.535-.211-.702a.679.679 0 00-.567-.26.666.666 0 00-.557.26c-.135.167-.202.4-.202.702v2.21c0 .3.067.537.202.71.134.167.32.25.557.25zM17.154 79.169a2.46 2.46 0 01-1.114-.24 1.73 1.73 0 01-.73-.692c-.173-.307-.26-.669-.26-1.085V75.71c0-.423.087-.785.26-1.086a1.73 1.73 0 01.73-.691c.32-.16.692-.24 1.114-.24.609 0 1.099.163 1.47.49.372.326.567.771.586 1.335h-.865c-.019-.34-.134-.6-.345-.778-.205-.186-.487-.279-.846-.279-.378 0-.679.109-.903.327-.224.211-.336.515-.336.912v1.45c0 .398.112.705.336.923.224.218.525.327.903.327.359 0 .64-.093.846-.279.21-.186.326-.445.345-.778h.865c-.02.564-.215 1.009-.586 1.335-.371.327-.861.49-1.47.49zm5.238-.096V74.55h-1.921v-.76h4.707v.76h-1.921v4.524h-.865zm4.124 1.73V73.79h.865v1.008h.173L27.38 75c0-.403.131-.72.393-.951.27-.237.622-.356 1.057-.356.532 0 .955.177 1.268.529.32.346.48.823.48 1.431V77.2c0 .403-.073.752-.22 1.047a1.57 1.57 0 01-.606.682c-.256.16-.563.24-.922.24-.429 0-.778-.118-1.047-.355-.269-.237-.403-.554-.403-.951l.173.201h-.192l.019 1.201v1.537h-.865zm2.027-2.383c.365 0 .65-.109.855-.327.211-.217.317-.531.317-.941V75.71c0-.41-.106-.724-.317-.942-.205-.217-.49-.326-.855-.326-.352 0-.634.112-.845.336-.212.224-.317.535-.317.932v1.44c0 .398.105.709.317.933.211.224.493.336.845.336zm5.2.75c-.557 0-.996-.142-1.316-.423-.32-.289-.48-.676-.48-1.163 0-.493.16-.88.48-1.162.32-.282.752-.423 1.297-.423h1.633v-.528c0-.327-.1-.577-.298-.75-.192-.179-.468-.269-.826-.269-.314 0-.577.068-.788.202a.718.718 0 00-.365.529h-.865c.058-.455.272-.817.644-1.086.371-.269.836-.403 1.393-.403.608 0 1.089.156 1.441.47.352.314.528.74.528 1.278v3.631h-.845v-1.008h-.144l.144-.145c0 .385-.15.689-.452.913-.294.224-.688.336-1.181.336zm.211-.683c.41 0 .746-.102 1.009-.307a.956.956 0 00.394-.788v-.75h-1.614c-.288 0-.516.08-.682.24-.167.161-.25.379-.25.654 0 .295.1.528.298.701.205.167.486.25.845.25zm5.507.586V74.55H37.54v-.76h4.707v.76h-1.921v4.524h-.865zm6.122.096c-.416 0-.781-.083-1.095-.25a1.806 1.806 0 01-.72-.7 2.203 2.203 0 01-.25-1.067V75.71c0-.41.083-.766.25-1.067.172-.3.413-.534.72-.7.314-.167.679-.25 1.095-.25.416 0 .778.083 1.086.25.314.166.554.4.72.7.173.301.26.657.26 1.067v.932h-3.286v.509c0 .416.106.736.317.96.212.218.513.327.903.327.333 0 .602-.057.807-.173a.764.764 0 00.375-.538h.864a1.472 1.472 0 01-.653 1.057c-.371.256-.836.384-1.393.384zm1.22-3.103v-.355c0-.416-.105-.737-.317-.96-.205-.225-.506-.337-.903-.337-.39 0-.691.112-.903.336-.211.224-.317.545-.317.96v.28h2.508l-.068.076zm2.837 3.007V73.79h3.794v.787h-2.93v4.496h-.864zm5.343 0V73.79h.827v2.882c0 .185-.007.38-.02.586-.006.205-.019.4-.038.586a6.233 6.233 0 01-.048.46l2.133-4.514h1.104v5.283h-.826v-2.882c0-.186.003-.38.01-.586.013-.205.029-.4.048-.586l.048-.47-2.133 4.524h-1.105zm8.495.096c-.442 0-.797-.15-1.066-.451-.269-.301-.404-.695-.404-1.182v-.797h-.845v2.334h-.797V73.79h.797v2.257h.846v-.72c0-.493.13-.887.393-1.182.27-.301.628-.451 1.076-.451.474 0 .855.15 1.144.451.288.295.432.689.432 1.182v2.21c0 .486-.144.88-.432 1.18-.289.302-.67.452-1.144.452zm0-.672c.244 0 .433-.083.567-.25.141-.173.212-.41.212-.71v-2.21c0-.301-.07-.535-.212-.702-.134-.173-.323-.26-.567-.26a.667.667 0 00-.557.26c-.134.167-.202.4-.202.702v2.21c0 .3.068.537.202.71.135.167.32.25.557.25zm3.567 2.113l.769-2.987h1.248l-1.248 2.987h-.77zm10.697-1.537V73.79h2.287c.55 0 .976.124 1.277.374.301.244.452.586.452 1.028 0 .365-.125.66-.375.884-.25.218-.58.327-.99.327v-.077c.449 0 .808.112 1.077.336.275.224.413.525.413.903 0 .474-.16.845-.48 1.114-.32.263-.77.394-1.346.394h-2.315zm.846-.759h1.47c.307 0 .544-.067.71-.201a.679.679 0 00.26-.567c0-.25-.087-.442-.26-.577-.166-.134-.403-.201-.71-.201h-1.47v1.546zm0-2.296h1.44c.27 0 .48-.064.635-.192.16-.128.24-.307.24-.538 0-.23-.077-.41-.23-.538-.154-.134-.369-.201-.644-.201h-1.441v1.47zm4.873 3.055V73.79h.864v2.18h.903l1.537-2.18h.99l-1.777 2.516 1.806 2.767h-1.009l-1.537-2.353h-.913v2.353h-.864zm4.998.068v-.808h.172c.295 0 .5-.115.615-.345.122-.23.186-.644.193-1.24l.057-2.959h3.584v5.284h-.865v-4.496H90.35l-.048 2.21c-.013.557-.077 1.008-.192 1.354-.109.346-.282.6-.519.76-.23.16-.535.24-.912.24h-.221zm9.157.028c-.442 0-.797-.15-1.066-.451-.269-.301-.403-.695-.403-1.182v-.797H95.3v2.334h-.797V73.79h.797v2.257h.846v-.72c0-.493.13-.887.393-1.182.27-.301.628-.451 1.076-.451.474 0 .855.15 1.144.451.288.295.432.689.432 1.182v2.21c0 .486-.144.88-.432 1.18-.289.302-.67.452-1.144.452zm0-.672c.244 0 .433-.083.567-.25.141-.173.211-.41.211-.71v-2.21c0-.301-.07-.535-.21-.702-.135-.173-.324-.26-.568-.26a.667.667 0 00-.557.26c-.134.167-.202.4-.202.702v2.21c0 .3.068.537.202.71.135.167.32.25.557.25zm5.921.576v-1.921c-.103.025-.26.051-.471.077a7.087 7.087 0 01-.653.029c-.654.006-1.163-.15-1.528-.471-.359-.327-.538-.782-.538-1.364V73.79h.865v1.633c0 .326.109.586.326.778.224.186.532.278.923.278.269 0 .496-.01.682-.028.192-.026.323-.048.394-.068V73.79h.864v5.283h-.864zm4.171.096c-.557 0-.996-.14-1.316-.422-.32-.289-.48-.676-.48-1.163 0-.493.16-.88.48-1.162.32-.282.753-.423 1.297-.423h1.633v-.528c0-.327-.099-.577-.298-.75-.192-.179-.467-.269-.826-.269-.314 0-.576.068-.788.202a.719.719 0 00-.365.529h-.864c.057-.455.272-.817.643-1.086.372-.269.836-.403 1.393-.403.609 0 1.089.156 1.441.47.353.314.529.74.529 1.278v3.631h-.846v-1.008h-.144l.144-.145c0 .385-.15.689-.451.913-.295.224-.689.336-1.182.336zm.212-.682c.41 0 .746-.102 1.008-.307a.955.955 0 00.394-.788v-.75h-1.614c-.288 0-.515.08-.682.24-.166.161-.25.379-.25.654 0 .295.1.528.298.701.205.167.487.25.846.25zm6.765.682c-.442 0-.797-.15-1.066-.451-.269-.301-.404-.695-.404-1.182v-.797h-.845v2.334h-.797V73.79h.797v2.257h.845v-.72c0-.493.132-.887.394-1.182.269-.301.628-.451 1.076-.451.474 0 .855.15 1.143.451.289.295.433.689.433 1.182v2.21c0 .486-.144.88-.433 1.18-.288.302-.669.452-1.143.452zm0-.672c.244 0 .433-.083.567-.25.141-.173.211-.41.211-.71v-2.21c0-.301-.07-.535-.211-.702-.134-.173-.323-.26-.567-.26a.667.667 0 00-.557.26c-.134.167-.202.4-.202.702v2.21c0 .3.068.537.202.71.135.167.32.25.557.25zm6.737 1.921v-1.345h-4.14V73.79h.778v4.553h1.114V73.79h.673v4.553h1.114V73.79h.778v4.553h.452v2.075h-.769zm2.644.384l.779-2.055-1.96-4.957h.96l1.23 3.266c.045.109.087.24.125.394l.096.374.096-.374c.039-.154.077-.285.115-.394l1.153-3.266h.932l-2.603 7.012h-.923zm7.688-1.633c-.442 0-.797-.15-1.066-.451-.269-.301-.404-.695-.404-1.182v-.797h-.845v2.334h-.797V73.79h.797v2.257h.845v-.72c0-.493.132-.887.394-1.182.269-.301.628-.451 1.076-.451.474 0 .855.15 1.143.451.289.295.433.689.433 1.182v2.21c0 .486-.144.88-.433 1.18-.288.302-.669.452-1.143.452zm0-.672c.244 0 .433-.083.567-.25.141-.173.211-.41.211-.71v-2.21c0-.301-.07-.535-.211-.702-.134-.173-.323-.26-.567-.26a.667.667 0 00-.557.26c-.134.167-.202.4-.202.702v2.21c0 .3.068.537.202.71.135.167.32.25.557.25zm8.574.576V73.79h.865v2.2h2.229v-2.2h.864v5.283h-.864v-2.296h-2.229v2.296h-.865zm7.669.077c-.423 0-.788-.08-1.095-.24a1.741 1.741 0 01-.721-.692c-.166-.307-.249-.669-.249-1.085V75.73c0-.423.083-.785.249-1.086.173-.3.413-.531.721-.691.307-.16.672-.24 1.095-.24.423 0 .788.08 1.095.24.308.16.545.39.711.691.173.301.259.66.259 1.076v1.413c0 .416-.086.778-.259 1.085a1.677 1.677 0 01-.711.692c-.307.16-.672.24-1.095.24zm0-.768c.378 0 .672-.106.884-.318.211-.21.317-.521.317-.931V75.73c0-.41-.106-.72-.317-.932-.212-.211-.506-.317-.884-.317-.371 0-.666.106-.884.317-.211.212-.317.522-.317.932v1.403c0 .41.106.72.317.931.218.212.513.318.884.318zm3.711.691V73.79h2.286c.551 0 .977.124 1.278.374.301.244.451.586.451 1.028 0 .365-.125.66-.374.884-.25.218-.58.327-.99.327v-.077c.448 0 .807.112 1.076.336.275.224.413.525.413.903 0 .474-.16.845-.48 1.114-.32.263-.769.394-1.345.394h-2.315zm.845-.759h1.47c.307 0 .544-.067.711-.201.173-.135.259-.324.259-.567 0-.25-.086-.442-.259-.577-.167-.134-.404-.201-.711-.201h-1.47v1.546zm0-2.296h1.441c.269 0 .48-.064.634-.192.16-.128.24-.307.24-.538 0-.23-.077-.41-.23-.538-.154-.134-.369-.201-.644-.201h-1.441v1.47zm4.566 3.055V73.79h.807v1.94h.432c.57 0 1.018.15 1.345.452.333.294.499.7.499 1.22 0 .518-.166.928-.499 1.23-.327.294-.775.441-1.345.441h-1.239zm.807-.691h.432c.339 0 .602-.087.788-.26.192-.173.288-.413.288-.72 0-.308-.096-.548-.288-.72-.186-.174-.449-.26-.788-.26h-.432v1.96zm2.901.691V73.79h.807v5.283h-.807zm4.239.096c-.416 0-.781-.083-1.095-.25a1.805 1.805 0 01-.721-.7 2.21 2.21 0 01-.249-1.067V75.71c0-.41.083-.766.249-1.067.173-.3.413-.534.721-.7.314-.167.679-.25 1.095-.25.416 0 .778.083 1.086.25.313.166.554.4.72.7.173.301.259.657.259 1.067v.932h-3.285v.509c0 .416.106.736.317.96.211.218.512.327.903.327.333 0 .602-.057.807-.173a.764.764 0 00.375-.538h.864a1.469 1.469 0 01-.653 1.057c-.372.256-.836.384-1.393.384zm1.22-3.103v-.355c0-.416-.106-.737-.317-.96-.205-.225-.506-.337-.903-.337-.391 0-.692.112-.903.336-.211.224-.317.545-.317.96v.28h2.507l-.067.076zM15.156 98.073V92.79h3.958v5.283h-.865v-4.496h-2.228v4.496h-.865zm7.669.077c-.423 0-.788-.08-1.096-.24a1.744 1.744 0 01-.72-.692c-.167-.307-.25-.669-.25-1.085V94.73c0-.423.083-.785.25-1.086.173-.3.413-.531.72-.691.308-.16.673-.24 1.096-.24.422 0 .787.08 1.095.24.307.16.544.39.71.691.174.301.26.66.26 1.076v1.413c0 .416-.086.778-.26 1.085a1.683 1.683 0 01-.71.692c-.308.16-.673.24-1.095.24zm0-.768c.378 0 .672-.106.883-.318.212-.21.317-.521.317-.931V94.73c0-.41-.105-.72-.317-.932-.21-.211-.505-.317-.883-.317-.372 0-.666.106-.884.317-.212.212-.317.522-.317.932v1.403c0 .41.105.72.317.931.218.212.512.318.884.318zm3.095 2.036v-2.085h.433c.109-.108.22-.323.336-.643.122-.32.186-.727.192-1.22l.058-2.68h3.449v4.543h.672v2.085h-.768v-1.345h-3.603v1.345h-.769zm1.345-2.085h2.258v-3.775h-1.768l-.038 1.931c-.006.506-.06.916-.163 1.23-.103.314-.199.519-.289.615zm4.537.74l1.873-2.718-1.757-2.566h1.018l1.047 1.634c.045.07.086.147.125.23.045.084.08.15.106.202a3.47 3.47 0 01.086-.202 3.6 3.6 0 01.135-.23l1.056-1.633H36.5l-1.758 2.574 1.864 2.71h-1.019l-1.133-1.73c-.045-.07-.09-.15-.135-.24a2.074 2.074 0 00-.105-.23 3.773 3.773 0 01-.26.47l-1.143 1.73h-1.009zm8.092.077c-.423 0-.788-.08-1.096-.24a1.743 1.743 0 01-.72-.692c-.167-.307-.25-.669-.25-1.085V94.73c0-.423.083-.785.25-1.086.173-.3.413-.531.72-.691.308-.16.673-.24 1.096-.24.422 0 .787.08 1.095.24.307.16.544.39.71.691.174.301.26.66.26 1.076v1.413c0 .416-.086.778-.26 1.085a1.682 1.682 0 01-.71.692c-.308.16-.673.24-1.095.24zm0-.768c.377 0 .672-.106.883-.318.212-.21.317-.521.317-.931V94.73c0-.41-.105-.72-.317-.932-.211-.211-.506-.317-.883-.317-.372 0-.666.106-.884.317-.212.212-.317.522-.317.932v1.403c0 .41.105.72.317.931.218.212.512.318.884.318zm3.095 2.036v-2.085h.433c.109-.108.22-.323.336-.643.122-.32.186-.727.192-1.22l.058-2.68h3.448v4.543h.673v2.085h-.768v-1.345h-3.603v1.345h-.769zm1.345-2.085h2.258v-3.775h-1.768l-.038 1.931c-.007.506-.061.916-.163 1.23-.103.314-.199.519-.289.615zm4.681.74V92.79h.807v1.94h.433c.57 0 1.018.15 1.344.452.334.294.5.7.5 1.22 0 .518-.166.928-.5 1.23-.326.294-.774.441-1.344.441h-1.24zm.807-.691h.433c.339 0 .602-.087.787-.26.192-.173.288-.413.288-.72 0-.308-.096-.548-.288-.72-.185-.174-.448-.26-.787-.26h-.433v1.96zm2.901.691V92.79h.808v5.283h-.807zm7.979 0V92.79h.865v2.18h.903l1.537-2.18h.99l-1.778 2.516 1.806 2.767h-1.009L62.48 95.72h-.912v2.353h-.865zm11.35 0V92.79h3.958v5.283h-.864v-4.496h-2.229v4.496h-.865zm5.671 1.73V92.79h.865v1.008h.172l-.172.202c0-.403.13-.72.393-.951.27-.237.622-.356 1.057-.356.532 0 .954.177 1.268.529.32.346.48.823.48 1.431V96.2c0 .403-.073.752-.22 1.047a1.57 1.57 0 01-.606.682c-.256.16-.563.24-.922.24-.429 0-.778-.118-1.047-.355-.269-.237-.403-.554-.403-.951l.172.201h-.192l.02 1.201v1.537h-.865zm2.027-2.383c.365 0 .65-.109.855-.327.211-.217.317-.531.317-.941V94.71c0-.41-.106-.724-.317-.942-.205-.217-.49-.326-.855-.326-.352 0-.634.112-.845.336-.212.224-.317.535-.317.932v1.44c0 .398.105.709.317.933.21.224.493.336.845.336zm3.682.653V92.79h.826v2.882c0 .185-.006.38-.02.586-.006.205-.018.4-.038.586a6.233 6.233 0 01-.048.46l2.133-4.514h1.105v5.283h-.826v-2.882c0-.186.003-.38.01-.586.012-.205.028-.4.047-.586l.048-.47-2.132 4.524h-1.105zm5.69 0V92.79h2.286c.55 0 .977.124 1.278.374.3.244.451.586.451 1.028 0 .365-.125.66-.375.884-.25.218-.58.327-.99.327v-.077c.45 0 .808.112 1.077.336.275.224.413.525.413.903 0 .474-.16.845-.48 1.114-.32.263-.769.394-1.345.394H89.12zm.845-.759h1.47c.307 0 .544-.067.71-.201a.679.679 0 00.26-.567c0-.25-.087-.442-.26-.577-.166-.134-.403-.201-.71-.201h-1.47v1.546zm0-2.296h1.44c.27 0 .481-.064.635-.192.16-.128.24-.307.24-.538 0-.23-.077-.41-.23-.538-.154-.134-.369-.201-.644-.201h-1.441v1.47zm4.181 3.123v-.808h.173c.295 0 .5-.115.615-.345.122-.23.186-.644.192-1.24l.058-2.959h3.583v5.284h-.865v-4.496h-1.863l-.048 2.21c-.013.557-.077 1.008-.192 1.354-.11.346-.282.6-.52.76-.23.16-.534.24-.912.24h-.22zm8.332.028c-.417 0-.782-.083-1.095-.25a1.805 1.805 0 01-.721-.7 2.21 2.21 0 01-.25-1.067V94.71c0-.41.084-.766.25-1.067.173-.3.413-.534.721-.7.313-.167.678-.25 1.095-.25.416 0 .778.083 1.085.25.314.166.554.4.721.7.173.301.259.657.259 1.067v.932h-3.285v.509c0 .416.105.736.317.96.211.218.512.327.903.327.333 0 .602-.057.807-.173a.76.76 0 00.374-.538h.865a1.472 1.472 0 01-.653 1.057c-.372.256-.836.384-1.393.384zm1.22-3.103v-.355c0-.416-.106-.737-.317-.96-.205-.225-.506-.337-.903-.337-.391 0-.692.112-.903.336-.212.224-.317.545-.317.96v.28h2.507l-.067.076zm5.526 3.007v-1.921a4.167 4.167 0 01-.471.077 7.071 7.071 0 01-.653.029c-.653.006-1.162-.15-1.527-.471-.359-.327-.538-.782-.538-1.364V92.79h.864v1.633c0 .326.109.586.327.778.224.186.532.278.922.278.269 0 .497-.01.682-.028.192-.026.324-.048.394-.068V92.79h.865v5.283h-.865zm4.633.096c-.416 0-.781-.083-1.095-.25a1.805 1.805 0 01-.721-.7 2.21 2.21 0 01-.249-1.067V94.71c0-.41.083-.766.249-1.067.173-.3.413-.534.721-.7.314-.167.679-.25 1.095-.25.416 0 .778.083 1.086.25.313.166.554.4.72.7.173.301.26.657.26 1.067v.932h-3.286v.509c0 .416.106.736.317.96.211.218.512.327.903.327.333 0 .602-.057.807-.173a.764.764 0 00.375-.538h.864a1.469 1.469 0 01-.653 1.057c-.371.256-.836.384-1.393.384zm1.22-3.103v-.355c0-.416-.106-.737-.317-.96-.205-.225-.506-.337-.903-.337-.391 0-.692.112-.903.336-.211.224-.317.545-.317.96v.28h2.507l-.067.076zm2.491 3.007V92.79h.864v2.2h2.229v-2.2h.865v5.283h-.865v-2.296h-2.229v2.296h-.864zm5.689 0V92.79h.827v2.882c0 .185-.007.38-.02.586-.006.205-.019.4-.038.586a6.233 6.233 0 01-.048.46l2.133-4.514h1.104v5.283h-.826v-2.882c0-.186.003-.38.01-.586.013-.205.029-.4.048-.586l.048-.47-2.133 4.524h-1.105zm8.495.096c-.442 0-.797-.15-1.066-.451-.269-.301-.404-.695-.404-1.182v-.797h-.845v2.334h-.797V92.79h.797v2.257h.845v-.72c0-.493.132-.887.394-1.182.269-.301.628-.451 1.076-.451.474 0 .855.15 1.143.451.289.295.433.689.433 1.182v2.21c0 .486-.144.88-.433 1.18-.288.302-.669.452-1.143.452zm0-.672c.244 0 .433-.083.567-.25.141-.173.211-.41.211-.71v-2.21c0-.301-.07-.535-.211-.702-.134-.173-.323-.26-.567-.26a.667.667 0 00-.557.26c-.134.167-.202.4-.202.702v2.21c0 .3.068.537.202.71.135.167.32.25.557.25zm-116.57 20.576v-5.283h.865v2.18h.903l1.537-2.18h.99l-1.777 2.517 1.806 2.766h-1.009l-1.537-2.353h-.913v2.353h-.864zm4.999.067v-.806h.173c.294 0 .5-.116.614-.346.122-.231.186-.644.193-1.24l.057-2.958h3.584v5.283h-.865v-4.496h-1.864l-.048 2.21c-.013.557-.077 1.009-.192 1.354-.109.346-.282.599-.519.759-.23.16-.534.24-.912.24h-.221zm6.352-.067v-5.283h.826v2.882c0 .185-.006.381-.019.586a8.2 8.2 0 01-.038.586 6.11 6.11 0 01-.048.461l2.133-4.515h1.104v5.283h-.826v-2.882c0-.186.003-.381.01-.586.012-.205.029-.4.048-.586l.048-.471-2.133 4.525h-1.105zm7.669.096a2.31 2.31 0 01-1.095-.249 1.813 1.813 0 01-.72-.702 2.203 2.203 0 01-.25-1.066v-1.441c0-.41.083-.765.25-1.066.172-.301.412-.535.72-.702a2.31 2.31 0 011.095-.25c.416 0 .778.084 1.085.25.314.167.554.401.721.702.173.301.26.656.26 1.066v.932h-3.286v.509c0 .416.105.736.317.961.211.217.512.326.903.326.333 0 .602-.057.807-.173a.762.762 0 00.374-.538h.865a1.473 1.473 0 01-.653 1.057c-.372.256-.836.384-1.393.384zm1.22-3.103v-.355c0-.416-.106-.737-.317-.961-.205-.224-.506-.336-.903-.336-.39 0-.692.112-.903.336-.212.224-.317.545-.317.961v.278h2.507l-.067.077zm2.49 3.007v-5.283h.865v2.199h2.229v-2.199h.865v5.283h-.865v-2.296h-2.229v2.296h-.864zm7.237 0v-4.525H43.23v-.758h4.707v.758h-1.921v4.525h-.865zm6.122.077c-.423 0-.788-.08-1.095-.24a1.744 1.744 0 01-.72-.692c-.167-.307-.25-.669-.25-1.085v-1.403c0-.423.083-.784.25-1.085.172-.301.412-.532.72-.692.307-.16.672-.24 1.095-.24.423 0 .788.08 1.095.24.307.16.544.391.71.692.174.301.26.659.26 1.075v1.413c0 .416-.086.778-.26 1.085a1.683 1.683 0 01-.71.692c-.307.16-.672.24-1.095.24zm0-.768c.378 0 .672-.106.884-.317.211-.212.317-.522.317-.932v-1.403c0-.41-.106-.72-.317-.932-.212-.211-.506-.317-.884-.317-.372 0-.666.106-.884.317-.211.212-.317.522-.317.932v1.403c0 .41.106.72.317.932.218.211.512.317.884.317zm3.71.691v-5.283h2.287c.55 0 .977.124 1.278.374.3.244.451.586.451 1.028 0 .365-.125.66-.375.884-.25.218-.58.327-.989.327v-.077c.448 0 .807.112 1.076.336.275.224.413.525.413.903 0 .474-.16.845-.48 1.114-.32.263-.769.394-1.345.394h-2.316zm.846-.759h1.47c.307 0 .544-.067.71-.201.174-.135.26-.324.26-.567 0-.25-.086-.442-.26-.577-.166-.134-.403-.201-.71-.201h-1.47v1.546zm0-2.296h1.441c.269 0 .48-.064.634-.192.16-.128.24-.307.24-.538 0-.23-.077-.41-.23-.538-.154-.134-.369-.202-.644-.202h-1.441v1.47zm10.534 3.055v-5.283h.826v2.882c0 .185-.006.381-.02.586a8.2 8.2 0 01-.038.586 6.11 6.11 0 01-.048.461l2.133-4.515h1.105v5.283h-.826v-2.882c0-.186.003-.381.01-.586.012-.205.028-.4.047-.586l.048-.471-2.132 4.525h-1.105zm11.38 0v-5.283H81.7v5.283h-.865v-4.496h-2.228v4.496h-.865zm7.668.077c-.423 0-.788-.08-1.095-.24a1.744 1.744 0 01-.72-.692c-.167-.307-.25-.669-.25-1.085v-1.403c0-.423.083-.784.25-1.085.172-.301.412-.532.72-.692.307-.16.672-.24 1.095-.24.422 0 .788.08 1.095.24.307.16.544.391.71.692.174.301.26.659.26 1.075v1.413c0 .416-.086.778-.26 1.085a1.683 1.683 0 01-.71.692c-.307.16-.672.24-1.095.24zm0-.768c.378 0 .672-.106.884-.317.211-.212.317-.522.317-.932v-1.403c0-.41-.106-.72-.317-.932-.212-.211-.506-.317-.884-.317-.372 0-.666.106-.884.317-.211.212-.317.522-.317.932v1.403c0 .41.106.72.317.932.218.211.512.317.884.317zm3.71.691v-5.283h2.287c.55 0 .977.124 1.278.374.3.244.451.586.451 1.028 0 .365-.125.66-.375.884-.25.218-.58.327-.99.327v-.077c.45 0 .808.112 1.077.336.275.224.413.525.413.903 0 .474-.16.845-.48 1.114-.32.263-.769.394-1.345.394H89.12zm.846-.759h1.47c.307 0 .544-.067.71-.201a.679.679 0 00.26-.567c0-.25-.087-.442-.26-.577-.166-.134-.403-.201-.71-.201h-1.47v1.546zm0-2.296h1.44c.27 0 .481-.064.635-.192.16-.128.24-.307.24-.538 0-.23-.077-.41-.23-.538-.154-.134-.369-.202-.644-.202h-1.441v1.47zm4.566 3.055v-5.283h.806v1.94h.433c.57 0 1.018.151 1.345.452.333.294.5.701.5 1.22 0 .518-.167.928-.5 1.229-.327.295-.775.442-1.345.442h-1.24zm.806-.691h.433c.34 0 .602-.087.788-.26.192-.173.288-.413.288-.72 0-.308-.096-.548-.288-.721-.186-.173-.449-.259-.788-.259h-.433v1.96zm2.902.691v-5.283h.807v5.283h-.807zm1.991 0l-.019-5.283h.807v4.63h1.124v-4.63h.691v4.63h1.115v-4.63h.797v5.283h-4.515zm7.937.096a2.31 2.31 0 01-1.095-.249 1.814 1.814 0 01-.72-.702 2.197 2.197 0 01-.25-1.066v-1.441c0-.41.083-.765.25-1.066.173-.301.413-.535.72-.702a2.31 2.31 0 011.095-.25c.417 0 .779.084 1.086.25.314.167.554.401.72.702.173.301.26.656.26 1.066v.932h-3.286v.509c0 .416.106.736.317.961.212.217.513.326.903.326.333 0 .602-.057.807-.173a.763.763 0 00.375-.538h.865a1.474 1.474 0 01-.654 1.057c-.371.256-.835.384-1.393.384zm1.22-3.103v-.355c0-.416-.105-.737-.317-.961-.204-.224-.505-.336-.903-.336-.39 0-.691.112-.903.336-.211.224-.317.545-.317.961v.278h2.508l-.068.077zm2.491 3.007v-5.283h.865v2.199h2.228v-2.199h.865v5.283h-.865v-2.296h-2.228v2.296h-.865zm5.69 0v-5.283h.826v2.882c0 .185-.006.381-.019.586-.007.205-.019.4-.039.586a6.326 6.326 0 01-.048.461l2.133-4.515h1.105v5.283h-.826v-2.882c0-.186.003-.381.009-.586.013-.205.029-.4.048-.586l.048-.471-2.132 4.525h-1.105zm8.495.096c-.442 0-.798-.15-1.067-.451-.269-.301-.403-.695-.403-1.182v-.797h-.846v2.334h-.797v-5.283h.797v2.257h.846v-.72c0-.494.131-.887.394-1.182.269-.301.627-.452 1.076-.452.474 0 .855.151 1.143.452.288.295.432.688.432 1.182v2.209c0 .487-.144.881-.432 1.182-.288.301-.669.451-1.143.451zm0-.672c.243 0 .432-.083.566-.25.141-.173.212-.41.212-.711v-2.209c0-.301-.071-.535-.212-.702-.134-.173-.323-.259-.566-.259a.668.668 0 00-.558.259c-.134.167-.201.401-.201.702v2.209c0 .301.067.538.201.711.135.167.321.25.558.25zm8.574.576v-5.283h.826v2.882c0 .185-.007.381-.019.586-.007.205-.02.4-.039.586a6.326 6.326 0 01-.048.461l2.133-4.515h1.105v5.283h-.826v-2.882c0-.186.003-.381.009-.586.013-.205.029-.4.048-.586l.048-.471-2.133 4.525h-1.104zm5.267 0l1.873-2.718-1.758-2.565h1.018l1.047 1.633c.045.07.087.147.125.23l.106.202a3.47 3.47 0 01.086-.202 3.6 3.6 0 01.135-.23l1.057-1.633h1.008l-1.758 2.574 1.864 2.709h-1.018l-1.134-1.729c-.045-.07-.09-.15-.134-.24a2.244 2.244 0 00-.106-.231 4.007 4.007 0 01-.115.231c-.045.09-.093.17-.144.24l-1.144 1.729h-1.008zM14.493 137.14v-.806h.173c.295 0 .5-.116.615-.346.121-.231.186-.644.192-1.24l.058-2.958h3.583v5.283h-.865v-4.496h-1.863l-.048 2.21c-.013.557-.077 1.009-.193 1.354-.108.346-.281.599-.518.759-.23.16-.535.24-.913.24h-.22zm8.332.01c-.423 0-.788-.08-1.096-.24a1.744 1.744 0 01-.72-.692c-.167-.307-.25-.669-.25-1.085v-1.403c0-.423.083-.784.25-1.085.173-.301.413-.532.72-.692.308-.16.673-.24 1.096-.24.422 0 .787.08 1.095.24.307.16.544.391.71.692.174.301.26.659.26 1.075v1.413c0 .416-.086.778-.26 1.085a1.683 1.683 0 01-.71.692c-.308.16-.673.24-1.095.24zm0-.768c.378 0 .672-.106.883-.317.212-.212.317-.522.317-.932v-1.403c0-.41-.105-.72-.317-.932-.21-.211-.505-.317-.883-.317-.372 0-.666.106-.884.317-.212.212-.317.522-.317.932v1.403c0 .41.105.72.317.932.218.211.512.317.884.317zm3.384.691l1.354-2.036c-.403-.096-.717-.282-.941-.558-.218-.275-.327-.618-.327-1.027 0-.519.17-.926.51-1.221.345-.294.816-.441 1.412-.441h2.276v5.283h-.864v-1.969h-1.163l-1.249 1.969H26.21zm2.008-2.738h1.412v-1.777h-1.413c-.32 0-.573.08-.759.24-.185.154-.278.372-.278.654 0 .275.093.493.279.653.185.153.438.23.759.23zm3.345 2.805v-.806h.173c.295 0 .5-.116.615-.346.121-.231.185-.644.192-1.24l.058-2.958h3.583v5.283h-.865v-4.496h-1.863l-.048 2.21c-.013.557-.077 1.009-.193 1.354-.108.346-.281.599-.518.759-.23.16-.535.24-.913.24h-.22zm6.391-.067v-5.283h.865v1.94h1.556c.595 0 1.063.151 1.402.452.346.294.52.701.52 1.22 0 .512-.174.919-.52 1.22-.345.301-.813.451-1.402.451h-2.421zm.865-.788h1.556c.333 0 .586-.073.759-.22.18-.154.269-.375.269-.663 0-.289-.09-.506-.27-.654-.172-.153-.425-.23-.758-.23h-1.556v1.767zm4.786.788v-5.283h.865v2.199h2.229v-2.199h.864v5.283h-.864v-2.296h-2.23v2.296h-.864zm7.669.077c-.423 0-.788-.08-1.095-.24a1.744 1.744 0 01-.72-.692c-.167-.307-.25-.669-.25-1.085v-1.403c0-.423.083-.784.25-1.085.172-.301.412-.532.72-.692.307-.16.672-.24 1.095-.24.423 0 .788.08 1.095.24.307.16.544.391.71.692.174.301.26.659.26 1.075v1.413c0 .416-.086.778-.26 1.085a1.683 1.683 0 01-.71.692c-.307.16-.672.24-1.095.24zm0-.768c.378 0 .672-.106.884-.317.211-.212.317-.522.317-.932v-1.403c0-.41-.106-.72-.317-.932-.212-.211-.506-.317-.884-.317-.372 0-.666.106-.884.317-.211.212-.317.522-.317.932v1.403c0 .41.106.72.317.932.218.211.512.317.884.317zm5.709.787c-.423 0-.794-.08-1.115-.24a1.73 1.73 0 01-.73-.692c-.173-.307-.26-.669-.26-1.085v-1.441c0-.423.087-.785.26-1.086.173-.301.416-.531.73-.691.32-.16.692-.241 1.115-.241.608 0 1.098.164 1.47.49.371.327.566.772.586 1.336h-.865c-.02-.34-.135-.599-.346-.778-.205-.186-.487-.279-.845-.279-.378 0-.68.109-.903.327-.224.211-.337.515-.337.912v1.451c0 .397.113.704.337.922.224.218.525.327.903.327.358 0 .64-.093.845-.279.212-.186.327-.445.346-.778h.865c-.02.564-.215 1.009-.586 1.335-.372.327-.862.49-1.47.49zm5.238-.096v-4.525h-1.922v-.758h4.708v.758h-1.922v4.525h-.864zm4.143 0v-5.283h.826v2.882c0 .185-.006.381-.02.586a8.2 8.2 0 01-.038.586 6.11 6.11 0 01-.048.461l2.133-4.515h1.105v5.283h-.826v-2.882c0-.186.003-.381.01-.586.012-.205.028-.4.047-.586l.048-.471-2.132 4.525h-1.105zm7.668.096c-.243 0-.438-.07-.586-.211-.14-.141-.21-.33-.21-.567 0-.25.07-.448.21-.595.148-.148.343-.221.587-.221.243 0 .435.073.576.221.147.147.22.345.22.595 0 .237-.073.426-.22.567-.141.141-.333.211-.577.211zM16.92 28.096c-.448 0-.842-.083-1.181-.25a1.923 1.923 0 01-.778-.72c-.18-.314-.27-.682-.27-1.105v-3.055c0-.429.09-.797.27-1.105.185-.307.445-.544.778-.71.34-.174.733-.26 1.181-.26.455 0 .846.087 1.172.26.334.166.593.403.779.71.185.308.278.676.278 1.105h-1.21c0-.333-.09-.586-.27-.759-.172-.173-.422-.26-.749-.26-.326 0-.58.087-.759.26-.179.173-.269.423-.269.75v3.064c0 .327.09.58.27.759.179.173.432.26.758.26.327 0 .577-.087.75-.26.18-.18.269-.432.269-.759h1.21c0 .416-.093.781-.278 1.095a1.903 1.903 0 01-.778.73c-.327.167-.718.25-1.173.25zm5.652-.01c-.449 0-.84-.083-1.172-.25a1.938 1.938 0 01-.769-.72c-.18-.314-.269-.682-.269-1.105v-1.306c0-.423.09-.788.27-1.095a1.84 1.84 0 01.768-.72c.333-.174.723-.26 1.172-.26.454 0 .845.086 1.172.26.326.166.58.406.759.72.185.307.278.669.278 1.085v1.316c0 .423-.093.791-.278 1.105-.18.308-.433.548-.76.72-.326.167-.717.25-1.171.25zm0-1.047c.32 0 .567-.086.74-.26.179-.178.268-.435.268-.768v-1.306c0-.34-.09-.596-.269-.769-.172-.173-.42-.259-.74-.259-.313 0-.56.086-.739.26-.18.172-.269.428-.269.768v1.306c0 .333.09.59.269.769.18.173.426.26.74.26zm5.43 1.028c-.576 0-1.054-.131-1.431-.394a1.62 1.62 0 01-.683-1.095h1.201a.645.645 0 00.308.375c.166.09.368.134.605.134h.51c.249 0 .444-.057.585-.173a.592.592 0 00.221-.48.586.586 0 00-.211-.48c-.141-.116-.34-.173-.596-.173h-1.21v-.96h1.162c.237 0 .42-.055.548-.164a.55.55 0 00.192-.442.525.525 0 00-.336-.519 1.062 1.062 0 00-.404-.067h-.451a1.1 1.1 0 00-.577.144.612.612 0 00-.288.384h-1.2c.076-.454.3-.82.672-1.095.371-.275.835-.413 1.393-.413h.451c.404 0 .75.06 1.038.183.294.115.522.281.682.5.16.21.24.467.24.768 0 .333-.122.605-.365.816-.244.212-.567.324-.97.337v-.039c.46.013.82.135 1.075.365.257.224.385.535.385.932 0 .474-.186.852-.557 1.134-.366.281-.859.422-1.48.422h-.509zm3.307 1.278v-2.363h.356c.108-.11.22-.308.336-.596.122-.294.186-.66.192-1.095l.058-2.575h3.698v4.266h.625v2.363h-1.105V28h-3.055v1.345h-1.105zm1.576-2.363h1.921v-3.219h-1.441l-.038 1.528c-.007.429-.061.79-.164 1.085-.096.289-.189.49-.278.606zm6.17 1.114c-.545 0-.974-.144-1.288-.432-.314-.288-.47-.676-.47-1.163 0-.518.172-.919.518-1.2.346-.282.836-.423 1.47-.423h1.316v-.452c0-.256-.083-.454-.25-.595-.166-.148-.393-.221-.681-.221-.263 0-.48.057-.654.173a.675.675 0 00-.307.47h-1.172c.057-.5.282-.896.672-1.19.39-.296.89-.443 1.499-.443.647 0 1.156.163 1.527.49.378.32.567.756.567 1.307V28H40.64v-.922h-.192l.192-.26c0 .391-.144.702-.433.932-.288.23-.672.346-1.152.346zm.394-.903c.339 0 .614-.086.826-.26a.82.82 0 00.326-.672v-.643h-1.297c-.243 0-.438.07-.586.21a.736.736 0 00-.22.558c0 .25.083.448.25.596.172.14.406.211.7.211zm3.749.807v-5.284h1.2v2.046h1.864v-2.046h1.201V28h-1.2v-2.123h-1.865V28h-1.2zm5.69 0v-5.284h1.085v2.604c0 .166-.01.365-.029.595a10.89 10.89 0 01-.058.663c-.025.218-.05.407-.077.567l1.864-4.429h1.48V28h-1.086v-2.603c0-.173.007-.365.02-.577.018-.211.038-.42.057-.624a9.79 9.79 0 01.077-.519L50.367 28h-1.48zm7.831.096c-.448 0-.839-.086-1.172-.26a1.924 1.924 0 01-.778-.72 2.17 2.17 0 01-.269-1.095v-1.326c0-.416.09-.778.269-1.085.186-.314.445-.558.778-.73.333-.173.724-.26 1.172-.26.442 0 .826.087 1.153.26.333.172.59.416.769.73.185.307.278.669.278 1.085v.951h-3.256v.375c0 .371.09.653.269.845.179.186.445.279.797.279.269 0 .487-.045.653-.134a.642.642 0 00.317-.414h1.182c-.09.455-.333.82-.73 1.096-.391.269-.868.403-1.432.403zm1.038-3.122v-.288c0-.365-.087-.644-.26-.836-.173-.199-.432-.298-.778-.298-.346 0-.608.1-.788.298-.179.198-.268.48-.268.845v.202l2.18-.02-.086.097zm10.351 3.122c-.448 0-.842-.083-1.181-.25a1.923 1.923 0 01-.779-.72c-.185-.314-.278-.682-.278-1.105v-1.326c0-.429.093-.797.278-1.105a1.86 1.86 0 01.779-.71c.339-.173.733-.26 1.181-.26.666 0 1.198.173 1.595.519.397.34.605.804.624 1.393h-1.2c-.02-.275-.119-.487-.298-.634-.173-.154-.413-.23-.72-.23-.321 0-.574.089-.76.268-.186.173-.278.423-.278.75v1.335c0 .327.093.58.278.759.186.18.439.269.76.269.306 0 .547-.074.72-.221.179-.154.278-.368.297-.644h1.201c-.019.59-.227 1.057-.624 1.403-.397.34-.929.51-1.595.51zM73.173 28v-4.179h-1.806v-1.105h4.823v1.105h-1.806V28h-1.21zm4.153 1.73v-7.014h1.172v1.009h.269l-.27.279c0-.43.129-.766.385-1.01.256-.249.602-.374 1.038-.374.531 0 .957.183 1.277.548.32.365.48.855.48 1.47v1.431c0 .41-.073.769-.22 1.076a1.623 1.623 0 01-.605.701c-.263.167-.574.25-.932.25-.436 0-.782-.122-1.038-.365-.256-.25-.384-.59-.384-1.018l.269.278h-.279l.039 1.259v1.48h-1.201zm2.171-2.672c.308 0 .548-.09.72-.268.174-.18.26-.436.26-.769v-1.326c0-.333-.087-.589-.26-.768-.172-.18-.412-.27-.72-.27-.301 0-.538.094-.71.28-.174.179-.26.432-.26.758v1.326c0 .327.086.583.26.769.172.179.409.268.71.268zm5.075 1.038c-.544 0-.974-.144-1.287-.432-.314-.288-.471-.676-.471-1.163 0-.518.173-.919.519-1.2.345-.282.835-.423 1.47-.423h1.316v-.452c0-.256-.084-.454-.25-.595-.167-.148-.394-.221-.682-.221-.263 0-.48.057-.654.173a.675.675 0 00-.307.47h-1.172c.058-.5.282-.896.672-1.19.391-.296.89-.443 1.5-.443.646 0 1.155.163 1.527.49.377.32.566.756.566 1.307V28h-1.162v-.922h-.192l.192-.26c0 .391-.144.702-.432.932-.288.23-.673.346-1.153.346zm.394-.903c.34 0 .615-.086.826-.26a.82.82 0 00.327-.672v-.643h-1.297c-.244 0-.44.07-.586.21a.736.736 0 00-.221.558c0 .25.083.448.25.596.172.14.406.211.7.211zm5.276.807v-4.179h-1.806v-1.105h4.823v1.105h-1.806V28h-1.21zm6.305.096c-.448 0-.84-.086-1.172-.26a1.923 1.923 0 01-.778-.72 2.17 2.17 0 01-.27-1.095v-1.326c0-.416.09-.778.27-1.085a1.89 1.89 0 01.778-.73c.333-.173.724-.26 1.172-.26.442 0 .826.087 1.153.26.333.172.589.416.768.73.186.307.279.669.279 1.085v.951H95.49v.375c0 .371.09.653.269.845.18.186.445.279.797.279.27 0 .487-.045.654-.134a.642.642 0 00.317-.414h1.181c-.09.455-.333.82-.73 1.096-.39.269-.868.403-1.431.403zm1.037-3.122v-.288c0-.365-.086-.644-.26-.836-.172-.199-.431-.298-.777-.298-.346 0-.609.1-.788.298-.18.198-.269.48-.269.845v.202l2.18-.02-.086.097zM100.507 28v-5.284h3.939v1.115h-2.738V28h-1.201zm5.277 0v-5.284h1.085v2.604c0 .166-.009.365-.028.595a13.964 13.964 0 01-.135 1.23l1.864-4.429h1.479V28h-1.085v-2.603c0-.173.006-.365.019-.577l.057-.624c.026-.205.052-.378.077-.519L107.263 28h-1.479zm5.689 0v-5.284h1.086v2.604c0 .166-.01.365-.029.595a11.803 11.803 0 01-.134 1.23l1.863-4.429h1.48V28h-1.086v-2.603c0-.173.007-.365.019-.577l.058-.624c.026-.205.051-.378.077-.519L112.953 28h-1.48zm7.823-3.766c-.269 0-.487-.074-.653-.22a.775.775 0 01-.241-.587c0-.243.08-.439.241-.586.166-.147.384-.22.653-.22s.483.073.643.22c.167.147.25.343.25.586a.761.761 0 01-.25.586c-.16.147-.374.221-.643.221zm0 3.862c-.269 0-.487-.074-.653-.22a.756.756 0 01-.241-.587c0-.243.08-.439.241-.586.166-.147.384-.22.653-.22s.483.073.643.22c.167.147.25.343.25.586a.743.743 0 01-.25.586c-.16.147-.374.221-.643.221z" fill="#000"/><defs><filter id="filter0_d_2004_51" x=".804" y="0" width="179.646" height="178.685" filterUnits="userSpaceOnUse" color-interpolation-filters="sRGB"><feFlood flood-opacity="0" result="BackgroundImageFix"/><feColorMatrix in="SourceAlpha" values="0 0 0 0 0 0 0 0 0 0 0 0 0 0 0 0 0 0 127 0" result="hardAlpha"/><feOffset dy="3.843"/><feGaussianBlur stdDeviation="1.921"/><feComposite in2="hardAlpha" operator="out"/><feColorMatrix values="0 0 0 0 0 0 0 0 0 0 0 0 0 0 0 0 0 0 0.25 0"/><feBlend in2="BackgroundImageFix" result="effect1_dropShadow_2004_51"/><feBlend in="SourceGraphic" in2="effect1_dropShadow_2004_51" result="shape"/></filter></defs></svg>