<svg width="180" height="193" fill="none" xmlns="http://www.w3.org/2000/svg"><g filter="url(#filter0_d_2004_53)"><rect x="4" width="172" height="185" rx="16.011" fill="#AB9F85"/></g><mask id="a" style="mask-type:alpha" maskUnits="userSpaceOnUse" x="3" y="0" width="173" height="43"><path fill="#C9D9CD" d="M3.646 0h171.961v42.27H3.646z"/></mask><g mask="url(#a)"><rect x="3.646" y="-1.69" width="171.961" height="118.355" rx="16.011" fill="#F5ECDB"/></g><path d="M15.882 60.096c-.423 0-.788-.08-1.095-.24a1.697 1.697 0 01-.701-.692c-.16-.307-.24-.67-.24-1.085v-3.17c0-.423.08-.785.24-1.086.166-.301.4-.532.7-.692.308-.16.673-.24 1.096-.24.423 0 .785.08 1.086.24.307.16.54.39.7.692.167.3.25.66.25 1.076v3.18c0 .416-.083.778-.25 1.085-.16.301-.393.532-.7.692-.301.16-.663.24-1.086.24zm0-.778c.378 0 .666-.106.865-.317.205-.218.307-.525.307-.922v-3.17c0-.398-.102-.702-.307-.913-.199-.218-.487-.327-.865-.327-.371 0-.66.109-.865.327-.204.211-.307.515-.307.912v3.17c0 .398.102.705.307.923.205.211.494.317.865.317zm3.71.682v-5.284h3.959V60h-.865v-4.496h-2.229V60h-.864zm5.671 1.73v-7.014h.865v1.009h.173l-.173.202c0-.404.131-.72.394-.951.269-.237.62-.356 1.056-.356.532 0 .955.176 1.268.529.32.345.48.823.48 1.431v1.547c0 .403-.073.752-.22 1.047a1.57 1.57 0 01-.605.682c-.257.16-.564.24-.923.24-.429 0-.778-.118-1.047-.355-.269-.237-.403-.554-.403-.951l.173.201h-.192l.019 1.201v1.537h-.865zm2.027-2.383c.365 0 .65-.11.855-.327.212-.218.317-.532.317-.941v-1.441c0-.41-.105-.724-.317-.942-.205-.218-.49-.326-.855-.326-.352 0-.634.112-.845.336-.212.224-.317.535-.317.932v1.44c0 .398.105.708.317.932.211.225.493.337.845.337zm5.661.75a2.31 2.31 0 01-1.095-.25 1.807 1.807 0 01-.72-.702 2.204 2.204 0 01-.25-1.066v-1.441c0-.41.083-.766.25-1.067a1.8 1.8 0 01.72-.701 2.31 2.31 0 011.095-.25c.416 0 .778.084 1.085.25.314.166.554.4.721.701.173.301.26.657.26 1.067v.931H31.73v.51c0 .416.106.736.317.96.211.218.512.327.903.327.333 0 .602-.058.807-.173a.763.763 0 00.375-.538h.864a1.472 1.472 0 01-.653 1.057c-.372.256-.836.384-1.393.384zm1.22-3.104v-.355c0-.417-.106-.737-.317-.961-.205-.224-.506-.336-.903-.336-.39 0-.692.112-.903.336-.211.224-.317.544-.317.96v.28h2.507l-.067.076zm1.876 4.352V59.26h.432c.109-.109.221-.323.336-.643.122-.32.186-.727.193-1.22l.057-2.68h3.449v4.543h.672v2.085h-.768V60h-3.603v1.345h-.768zm1.345-2.085h2.257v-3.775h-1.767l-.039 1.93c-.006.507-.06.917-.163 1.23-.102.314-.199.52-.288.615zm6.938.836c-.416 0-.781-.083-1.095-.25a1.807 1.807 0 01-.72-.701 2.204 2.204 0 01-.25-1.066v-1.441c0-.41.083-.766.25-1.067.172-.3.413-.535.72-.701a2.31 2.31 0 011.095-.25c.417 0 .778.084 1.086.25.314.166.554.4.72.701.173.301.26.657.26 1.067v.931H43.11v.51c0 .416.106.736.317.96.212.218.513.327.903.327.333 0 .602-.058.807-.173a.763.763 0 00.375-.538h.864a1.472 1.472 0 01-.653 1.057c-.371.256-.835.384-1.393.384zm1.22-3.103v-.355c0-.417-.105-.737-.317-.961-.205-.224-.506-.336-.903-.336-.39 0-.691.112-.903.336-.211.224-.317.544-.317.96v.28h2.508l-.068.076zm1.828 3.074v-.807h.173c.295 0 .5-.115.615-.346.122-.23.186-.643.192-1.239l.058-2.959h3.583V60h-.865v-4.496h-1.863l-.048 2.21c-.013.557-.077 1.008-.192 1.354-.11.346-.282.599-.52.76-.23.16-.534.24-.912.24h-.22zM53.731 60v-5.284h.826v2.882c0 .186-.007.381-.02.586-.006.205-.019.4-.038.586-.013.18-.029.333-.048.461l2.133-4.515h1.105V60h-.827v-2.882c0-.186.004-.381.01-.586.013-.205.029-.4.048-.586l.048-.47L54.835 60h-1.104zm5.026.067v-.807h.173c.295 0 .5-.115.615-.346.122-.23.186-.643.192-1.239l.058-2.959h3.583V60h-.864v-4.496H60.65l-.048 2.21c-.013.557-.077 1.008-.192 1.354-.11.346-.282.599-.519.76-.23.16-.535.24-.913.24h-.22zM65.11 60v-5.284h.826v2.882c0 .186-.006.381-.02.586-.005.205-.018.4-.037.586a6.21 6.21 0 01-.049.461l2.133-4.515h1.105V60h-.826v-2.882c0-.186.003-.381.01-.586.012-.205.028-.4.047-.586l.048-.47L66.215 60H65.11zm11.38 0v-5.284h.825v2.882c0 .186-.006.381-.019.586-.006.205-.019.4-.038.586-.013.18-.029.333-.048.461l2.132-4.515h1.105V60h-.826v-2.882c0-.186.003-.381.01-.586.012-.205.028-.4.048-.586l.048-.47L77.594 60h-1.105zm11.379 0v-5.284h2.286c.55 0 .977.125 1.278.375.3.243.451.586.451 1.028 0 .365-.125.66-.374.884-.25.217-.58.326-.99.326v-.077c.448 0 .807.113 1.076.337.275.224.413.525.413.903 0 .474-.16.845-.48 1.114-.32.263-.769.394-1.345.394h-2.316zm.845-.759h1.47c.307 0 .544-.067.71-.202.174-.134.26-.323.26-.567 0-.25-.086-.441-.26-.576-.166-.134-.403-.202-.71-.202h-1.47v1.547zm0-2.296h1.441c.269 0 .48-.064.634-.192.16-.128.24-.307.24-.538 0-.23-.077-.41-.23-.538-.154-.135-.369-.202-.644-.202h-1.441v1.47zM93.558 60v-5.284h.865v2.2h2.229v-2.2h.864V60h-.864v-2.296h-2.23V60h-.864zm7.669.096a2.3 2.3 0 01-1.095-.25 1.806 1.806 0 01-.72-.701 2.203 2.203 0 01-.25-1.066v-1.441c0-.41.083-.766.25-1.067a1.8 1.8 0 01.72-.701 2.3 2.3 0 011.095-.25c.416 0 .778.084 1.085.25.314.166.554.4.721.701.173.301.259.657.259 1.067v.931h-3.285v.51c0 .416.105.736.317.96.211.218.512.327.903.327.333 0 .602-.058.807-.173a.76.76 0 00.374-.538h.865a1.472 1.472 0 01-.653 1.057c-.372.256-.836.384-1.393.384zm1.22-3.103v-.355c0-.417-.106-.737-.317-.961-.205-.224-.506-.336-.903-.336-.391 0-.692.112-.903.336-.212.224-.317.544-.317.96v.28h2.507l-.067.076zm1.876 4.352V59.26h.432c.109-.109.221-.323.336-.643.122-.32.186-.727.192-1.22l.058-2.68h3.449v4.543h.672v2.085h-.768V60h-3.603v1.345h-.768zm1.345-2.085h2.257v-3.775h-1.767l-.039 1.93c-.006.507-.061.917-.163 1.23-.103.314-.199.52-.288.615zm4.94 2.47v-7.014h.865v1.009h.172l-.172.202c0-.404.131-.72.393-.951.269-.237.622-.356 1.057-.356.532 0 .954.176 1.268.529.32.345.481.823.481 1.431v1.547c0 .403-.074.752-.221 1.047a1.57 1.57 0 01-.606.682c-.256.16-.563.24-.922.24-.429 0-.778-.118-1.047-.355-.269-.237-.403-.554-.403-.951l.172.201h-.192l.02 1.201v1.537h-.865zm2.027-2.383c.365 0 .65-.11.855-.327.211-.218.317-.532.317-.941v-1.441c0-.41-.106-.724-.317-.942-.205-.218-.49-.326-.855-.326-.352 0-.634.112-.845.336-.212.224-.317.535-.317.932v1.44c0 .398.105.708.317.932.211.225.493.337.845.337zm3.682.653v-5.284h.826v2.882c0 .186-.006.381-.019.586-.007.205-.019.4-.039.586-.012.18-.028.333-.048.461l2.133-4.515h1.105V60h-.826v-2.882c0-.186.003-.381.009-.586.013-.205.029-.4.048-.586l.048-.47L117.422 60h-1.105zm5.027.067v-.807h.173c.294 0 .499-.115.614-.346.122-.23.186-.643.192-1.239l.058-2.959h3.583V60h-.864v-4.496h-1.864l-.048 2.21c-.013.557-.077 1.008-.192 1.354-.109.346-.282.599-.519.76-.23.16-.535.24-.912.24h-.221zm6.352-.067v-5.284h.826v2.882c0 .186-.006.381-.019.586a8.08 8.08 0 01-.038.586c-.013.18-.029.333-.048.461l2.132-4.515h1.105V60h-.826v-2.882c0-.186.003-.381.01-.586.012-.205.028-.4.048-.586l.048-.47L128.801 60h-1.105zM13.288 80.345V78.26h.432c.11-.109.221-.323.337-.643.121-.32.185-.727.192-1.22l.057-2.68h3.45v4.543h.672v2.085h-.769V79h-3.602v1.345h-.769zm1.345-2.085h2.258v-3.775h-1.768l-.038 1.93c-.007.507-.061.917-.164 1.23-.102.314-.198.52-.288.615zm6.939.817c-.423 0-.788-.08-1.095-.24a1.744 1.744 0 01-.721-.692c-.166-.307-.25-.67-.25-1.086v-1.402c0-.423.084-.785.25-1.086.173-.3.413-.531.72-.691.308-.16.673-.24 1.096-.24.422 0 .787.08 1.095.24.307.16.544.39.71.691.174.301.26.66.26 1.076v1.412c0 .417-.086.779-.26 1.086a1.683 1.683 0 01-.71.692c-.308.16-.673.24-1.095.24zm0-.769c.378 0 .672-.105.884-.317.21-.211.317-.522.317-.932v-1.402c0-.41-.106-.72-.317-.932-.212-.211-.506-.317-.884-.317-.372 0-.666.106-.884.317-.211.211-.317.522-.317.932v1.402c0 .41.106.72.317.932.218.212.512.317.884.317zm3.71.692v-5.284h3.958V79h-.864v-4.496h-2.229V79h-.865zm7.669.077c-.423 0-.788-.08-1.095-.24a1.744 1.744 0 01-.72-.692c-.167-.307-.25-.67-.25-1.086v-1.402c0-.423.083-.785.25-1.086.172-.3.412-.531.72-.691.307-.16.672-.24 1.095-.24.423 0 .788.08 1.095.24.308.16.544.39.711.691.173.301.26.66.26 1.076v1.412c0 .417-.087.779-.26 1.086a1.684 1.684 0 01-.71.692c-.308.16-.673.24-1.096.24zm0-.769c.378 0 .672-.105.884-.317.211-.211.317-.522.317-.932v-1.402c0-.41-.106-.72-.317-.932-.212-.211-.506-.317-.884-.317-.371 0-.666.106-.884.317-.211.211-.317.522-.317.932v1.402c0 .41.106.72.317.932.218.212.513.317.884.317zm3.048.76v-.808h.173c.294 0 .5-.115.614-.346.122-.23.186-.643.193-1.239l.057-2.959h3.584V79h-.865v-4.496h-1.864l-.048 2.21c-.013.557-.077 1.008-.192 1.354-.109.346-.282.599-.519.76-.23.16-.534.24-.912.24h-.221zM42.35 79v-5.284h.865v2.2h2.229v-2.2h.864V79h-.864v-2.296h-2.23V79h-.864zm5.69 0v-5.284h.826v2.882c0 .186-.006.381-.02.586-.005.205-.018.4-.038.586a6.1 6.1 0 01-.047.462l2.132-4.516H52V79h-.826v-2.882c0-.186.003-.381.01-.586.012-.205.028-.4.047-.586l.048-.47L49.146 79H48.04zm7.236 0v-4.525h-1.921v-.759h4.707v.76h-1.921V79h-.865zm6.122.096c-.416 0-.781-.083-1.095-.25a1.807 1.807 0 01-.72-.701 2.204 2.204 0 01-.25-1.066v-1.441c0-.41.083-.766.25-1.067.172-.3.413-.534.72-.701a2.31 2.31 0 011.095-.25c.417 0 .778.084 1.086.25.314.166.554.4.72.701.173.301.26.657.26 1.067v.931h-3.286v.51c0 .416.106.736.317.96.212.218.513.327.903.327.333 0 .602-.058.807-.173a.763.763 0 00.375-.538h.864a1.472 1.472 0 01-.653 1.057c-.371.256-.836.384-1.393.384zm1.22-3.103v-.355c0-.417-.105-.737-.317-.961-.205-.224-.506-.336-.903-.336-.39 0-.691.112-.903.336-.211.224-.317.544-.317.96v.28h2.508l-.068.076zm1.828 3.074v-.807h.173c.295 0 .5-.115.615-.346.121-.23.186-.643.192-1.239l.058-2.959h3.583V79h-.865v-4.496H66.34l-.048 2.21c-.013.557-.077 1.008-.193 1.354-.109.346-.281.599-.518.76-.23.16-.535.24-.913.24h-.22zM70.838 79v-5.284h.865v1.94h1.556c.596 0 1.063.151 1.403.452.345.295.518.702.518 1.22 0 .513-.173.92-.519 1.22-.345.302-.813.452-1.402.452h-2.421zm.865-.788h1.556c.333 0 .586-.073.759-.22.18-.154.269-.375.269-.664 0-.288-.09-.505-.27-.653-.172-.153-.425-.23-.758-.23h-1.556v1.767zm4.786.788v-5.284h.865v2.2h2.229v-2.2h.864V79h-.864v-2.296h-2.23V79h-.864zm5.411 0v-5.284h.807v1.94h.433c.57 0 1.018.151 1.344.452.334.295.5.702.5 1.22 0 .52-.166.93-.5 1.23-.326.295-.774.442-1.344.442H81.9zm.807-.692h.433c.339 0 .602-.086.787-.26.192-.172.288-.412.288-.72 0-.307-.096-.547-.288-.72-.185-.173-.448-.26-.787-.26h-.433v1.96zM85.61 79v-5.284h.806V79h-.806zm4.239.096c-.417 0-.782-.083-1.096-.25a1.807 1.807 0 01-.72-.701 2.203 2.203 0 01-.25-1.066v-1.441c0-.41.083-.766.25-1.067.173-.3.413-.534.72-.701.314-.166.68-.25 1.096-.25.416 0 .778.084 1.085.25.314.166.554.4.72.701.173.301.26.657.26 1.067v.931h-3.285v.51c0 .416.105.736.317.96.21.218.512.327.903.327.333 0 .602-.058.806-.173a.764.764 0 00.375-.538h.865a1.472 1.472 0 01-.654 1.057c-.37.256-.835.384-1.392.384zm1.22-3.103v-.355c0-.417-.106-.737-.317-.961-.205-.224-.506-.336-.904-.336-.39 0-.691.112-.902.336-.212.224-.317.544-.317.96v.28h2.507l-.067.076zM99.277 79v-5.284h.864v2.181h.903l1.537-2.18h.99l-1.777 2.516L103.6 79h-1.009l-1.537-2.354h-.913V79h-.864zm7.178.096c-.557 0-.996-.14-1.316-.423-.32-.288-.48-.675-.48-1.162 0-.493.16-.88.48-1.162.32-.282.753-.423 1.297-.423h1.633v-.529c0-.326-.099-.576-.297-.749-.193-.18-.468-.269-.827-.269-.314 0-.576.067-.787.202a.716.716 0 00-.365.528h-.865c.058-.454.272-.816.644-1.085.371-.27.835-.404 1.393-.404.608 0 1.088.157 1.441.471.352.314.528.74.528 1.278V79h-.845v-1.009h-.145l.145-.144c0 .385-.151.689-.452.913-.295.224-.688.336-1.182.336zm.212-.682c.41 0 .746-.103 1.008-.307a.956.956 0 00.394-.788v-.75h-1.614c-.288 0-.515.08-.682.24-.166.16-.249.379-.249.654 0 .294.099.528.297.701.205.167.487.25.846.25zm3.96.586v-5.284h.865v2.2h2.229v-2.2h.864V79h-.864v-2.296h-2.229V79h-.865zm7.208.096c-.558 0-.996-.14-1.316-.423-.321-.288-.481-.675-.481-1.162 0-.493.16-.88.481-1.162.32-.282.752-.423 1.296-.423h1.634v-.529c0-.326-.1-.576-.298-.749-.192-.18-.468-.269-.826-.269-.314 0-.577.067-.788.202a.718.718 0 00-.365.528h-.865c.058-.454.272-.816.644-1.085.371-.27.836-.404 1.393-.404.608 0 1.089.157 1.441.471.352.314.528.74.528 1.278V79h-.845v-1.009h-.144l.144-.144c0 .385-.151.689-.452.913-.294.224-.688.336-1.181.336zm.211-.682c.41 0 .746-.103 1.009-.307a.958.958 0 00.394-.788v-.75h-1.614c-.289 0-.516.08-.682.24-.167.16-.25.379-.25.654 0 .294.099.528.298.701.205.167.486.25.845.25zm3.298.653v-.807h.173c.294 0 .499-.115.614-.346.122-.23.186-.643.192-1.239l.058-2.959h3.583V79h-.864v-4.496h-1.864l-.048 2.21c-.013.557-.077 1.008-.192 1.354-.109.346-.282.599-.519.76-.23.16-.535.24-.912.24h-.221zm6.074-.067v-5.284h.806v1.94h.433c.57 0 1.018.151 1.345.452.333.295.499.702.499 1.22 0 .52-.166.93-.499 1.23-.327.295-.775.442-1.345.442h-1.239zm.806-.692h.433c.339 0 .602-.086.788-.26.192-.172.288-.412.288-.72 0-.307-.096-.547-.288-.72-.186-.173-.449-.26-.788-.26h-.433v1.96zm2.902.692v-5.284h.807V79h-.807zm7.335 1.345V78.26h.432c.109-.109.221-.323.336-.643.122-.32.186-.727.192-1.22l.058-2.68h3.449v4.543h.672v2.085h-.768V79h-3.603v1.345h-.768zm1.345-2.085h2.257v-3.775h-1.768l-.038 1.93c-.006.507-.061.917-.163 1.23-.103.314-.199.52-.288.615zm4.296.807v-.807h.173c.295 0 .5-.115.615-.346.122-.23.186-.643.192-1.239l.058-2.959h3.583V79h-.865v-4.496h-1.863l-.048 2.21c-.013.557-.077 1.008-.192 1.354-.109.346-.282.599-.519.76-.231.16-.535.24-.913.24h-.221zm6.026-.067l1.355-2.037c-.404-.096-.718-.281-.942-.557-.218-.275-.326-.618-.326-1.028 0-.519.169-.925.509-1.22.346-.294.816-.442 1.412-.442h2.277V79h-.865v-1.97h-1.162L151.137 79h-1.009zm2.008-2.738h1.412v-1.777h-1.412c-.32 0-.573.08-.759.24-.186.154-.279.372-.279.653 0 .276.093.493.279.653.186.154.439.231.759.231zM13.903 98v-5.284h3.958V98h-.865v-4.496h-2.228V98h-.865zm5.67 1.73v-7.014h.865v1.009h.173l-.173.202c0-.404.131-.72.394-.951.269-.237.621-.356 1.057-.356.531 0 .954.176 1.268.529.32.345.48.823.48 1.431v1.547c0 .403-.073.752-.22 1.047a1.57 1.57 0 01-.606.682c-.256.16-.564.24-.922.24-.43 0-.778-.118-1.047-.355-.27-.237-.404-.554-.404-.951l.173.201h-.192l.02 1.201v1.537h-.866zm2.027-2.383c.366 0 .65-.11.855-.327.212-.218.318-.531.318-.941v-1.441c0-.41-.106-.724-.317-.942-.205-.218-.49-.326-.855-.326-.353 0-.634.112-.846.336-.211.224-.317.535-.317.932v1.44c0 .398.106.708.317.932.212.225.493.337.846.337zm3.682.653v-5.284h.826v2.882c0 .186-.006.381-.019.586-.006.205-.019.4-.038.586a6.36 6.36 0 01-.048.462l2.133-4.516h1.104V98h-.826v-2.882c0-.186.003-.381.01-.586.013-.205.029-.4.048-.586l.048-.47L26.387 98h-1.105zm5.69 0v-5.284h2.286c.551 0 .977.125 1.278.375.301.243.452.586.452 1.028 0 .365-.125.66-.375.884-.25.217-.58.326-.99.326v-.076c.449 0 .807.112 1.076.336.276.224.413.525.413.903 0 .474-.16.845-.48 1.114-.32.263-.768.394-1.345.394h-2.315zm.845-.759h1.47c.308 0 .545-.067.711-.202.173-.134.26-.323.26-.567 0-.25-.087-.441-.26-.576-.166-.134-.403-.202-.71-.202h-1.47v1.547zm0-2.296h1.441c.27 0 .48-.064.634-.192.16-.128.24-.308.24-.538 0-.23-.076-.41-.23-.538-.154-.135-.368-.202-.644-.202h-1.44v1.47zM36 98.067v-.807h.173c.294 0 .5-.115.614-.346.122-.23.186-.643.193-1.239l.057-2.959h3.584V98h-.865v-4.496h-1.864l-.048 2.21c-.013.557-.077 1.008-.192 1.354-.109.346-.282.599-.519.76-.23.16-.534.24-.912.24H36zm8.331.03a2.31 2.31 0 01-1.095-.25 1.807 1.807 0 01-.72-.702 2.204 2.204 0 01-.25-1.066v-1.441c0-.41.083-.766.25-1.067.172-.3.413-.534.72-.701a2.31 2.31 0 011.095-.25c.417 0 .778.084 1.086.25.314.166.554.4.72.701.173.301.26.657.26 1.067v.931H43.11v.51c0 .416.106.736.317.96.212.218.513.327.903.327.333 0 .602-.058.807-.173a.763.763 0 00.375-.538h.864a1.472 1.472 0 01-.653 1.057c-.371.256-.835.384-1.393.384zm1.22-3.104v-.355c0-.417-.105-.737-.317-.961-.205-.224-.506-.336-.903-.336-.39 0-.691.112-.903.336-.211.224-.317.544-.317.96v.28h2.508l-.068.076zM51.077 98v-1.921c-.103.025-.26.05-.471.077a7.1 7.1 0 01-.653.028c-.654.007-1.163-.15-1.528-.47-.358-.327-.538-.782-.538-1.365v-1.633h.865v1.633c0 .327.109.586.326.779.225.185.532.278.923.278.269 0 .496-.01.682-.029a3.52 3.52 0 00.394-.067v-2.594h.864V98h-.864zm4.633.096c-.417 0-.782-.083-1.096-.25a1.808 1.808 0 01-.72-.701 2.204 2.204 0 01-.25-1.066v-1.441c0-.41.083-.766.25-1.067.173-.3.413-.534.72-.701.314-.166.68-.25 1.096-.25.416 0 .778.084 1.085.25.314.166.554.4.72.701.174.301.26.657.26 1.067v.931H54.49v.51c0 .416.105.736.317.96.21.218.512.327.903.327.333 0 .602-.058.807-.173a.763.763 0 00.374-.538h.865a1.472 1.472 0 01-.653 1.057c-.372.256-.836.384-1.393.384zm1.22-3.103v-.355c0-.417-.106-.737-.317-.961-.205-.224-.506-.336-.903-.336-.391 0-.692.112-.903.336-.212.224-.318.544-.318.96v.28h2.508l-.067.076zM59.42 98v-5.284h.865v2.2h2.229v-2.2h.864V98h-.864v-2.296h-2.23V98h-.864zm5.69 0v-5.284h.826v2.882c0 .186-.006.381-.02.586-.005.205-.018.4-.037.586-.013.18-.03.333-.049.462l2.133-4.516h1.105V98h-.826v-2.882c0-.186.003-.381.01-.586.012-.205.028-.4.047-.586l.048-.47L66.215 98H65.11zm5.363 0l1.355-2.037c-.404-.096-.718-.281-.942-.557-.218-.275-.327-.618-.327-1.028 0-.519.17-.925.51-1.22.345-.294.816-.442 1.412-.442h2.277V98h-.865v-1.97h-1.162L71.48 98h-1.008zm2.008-2.738h1.412v-1.777h-1.412c-.32 0-.573.08-.76.24-.185.154-.278.372-.278.653 0 .276.093.493.279.653.186.154.439.231.759.231zM82.208 98v-5.284h.864v2.181h.903l1.537-2.18h.99l-1.777 2.516L86.53 98h-1.009l-1.537-2.354h-.913V98h-.864zm4.998.067v-.807h.173c.294 0 .5-.115.614-.346.122-.23.186-.643.193-1.239l.057-2.959h3.584V98h-.865v-4.496h-1.864l-.048 2.21c-.013.557-.077 1.008-.192 1.354-.109.346-.282.599-.519.76-.23.16-.534.24-.912.24h-.221zM93.558 98v-5.284h.826v2.882c0 .186-.006.381-.019.586-.006.205-.019.4-.038.586a6.1 6.1 0 01-.048.462l2.132-4.516h1.105V98h-.826v-2.882c0-.186.003-.381.01-.586.012-.205.028-.4.048-.586l.048-.47L94.663 98h-1.105zm7.669.096a2.3 2.3 0 01-1.095-.25 1.806 1.806 0 01-.72-.701 2.203 2.203 0 01-.25-1.066v-1.441c0-.41.083-.766.25-1.067.172-.3.412-.534.72-.701a2.3 2.3 0 011.095-.25c.416 0 .778.084 1.085.25.314.166.554.4.721.701.173.301.259.657.259 1.067v.931h-3.285v.51c0 .416.105.736.317.96.211.218.512.327.903.327.333 0 .602-.058.807-.173a.76.76 0 00.374-.538h.865a1.472 1.472 0 01-.653 1.057c-.372.256-.836.384-1.393.384zm1.22-3.103v-.355c0-.417-.106-.737-.317-.961-.205-.224-.506-.336-.903-.336-.391 0-.692.112-.903.336-.212.224-.317.544-.317.96v.28h2.507l-.067.076zM104.938 98v-5.284h.864v2.2h2.229v-2.2h.864V98h-.864v-2.296h-2.229V98h-.864zm7.236 0v-4.525h-1.922v-.759h4.708v.76h-1.922V98h-.864zm6.122.077c-.423 0-.788-.08-1.095-.24a1.742 1.742 0 01-.721-.692c-.166-.307-.25-.67-.25-1.086v-1.402c0-.423.084-.785.25-1.086.173-.3.413-.531.721-.691.307-.16.672-.24 1.095-.24.423 0 .788.08 1.095.24.307.16.544.39.711.691.173.301.259.66.259 1.076v1.412c0 .417-.086.779-.259 1.086a1.689 1.689 0 01-.711.692c-.307.16-.672.24-1.095.24zm0-.769c.378 0 .672-.105.884-.317.211-.211.317-.522.317-.932v-1.402c0-.41-.106-.72-.317-.932-.212-.211-.506-.317-.884-.317-.372 0-.666.106-.884.317-.211.211-.317.522-.317.932v1.402c0 .41.106.72.317.932.218.212.512.317.884.317zm3.71.692v-5.284h2.287c.551 0 .977.125 1.278.375.301.243.451.586.451 1.028 0 .365-.125.66-.375.884-.249.217-.579.326-.989.326v-.076c.448 0 .807.112 1.076.336.275.224.413.525.413.903 0 .474-.16.845-.48 1.114-.321.263-.769.394-1.345.394h-2.316zm.846-.759h1.47c.307 0 .544-.067.711-.202.173-.134.259-.323.259-.567 0-.25-.086-.441-.259-.576-.167-.134-.404-.202-.711-.202h-1.47v1.547zm0-2.296h1.441c.269 0 .48-.064.634-.192.16-.128.24-.308.24-.538 0-.23-.077-.41-.23-.538-.154-.135-.369-.202-.644-.202h-1.441v1.47zm5.526 4.592l.769-2.988h1.249l-1.249 2.988h-.769zM13.903 118v-5.284h2.286c.551 0 .977.125 1.278.375.301.243.452.586.452 1.028 0 .365-.125.66-.375.884-.25.217-.58.326-.99.326v-.077c.449 0 .808.113 1.076.337.276.224.414.525.414.903 0 .474-.16.845-.48 1.114-.321.263-.77.394-1.346.394h-2.315zm.845-.759h1.47c.308 0 .545-.067.711-.202.173-.134.26-.323.26-.566 0-.25-.087-.442-.26-.577-.166-.134-.403-.202-.71-.202h-1.47v1.547zm0-2.296h1.441c.27 0 .48-.064.634-.192.16-.128.24-.307.24-.538 0-.231-.076-.41-.23-.538-.154-.135-.368-.202-.644-.202h-1.44v1.47zM19.622 118v-5.284h.864v2.181h.903l1.537-2.181h.99l-1.777 2.517L23.945 118h-1.01l-1.536-2.354h-.913V118h-.864zm4.997.067v-.807h.173c.295 0 .5-.115.615-.346.122-.23.186-.643.192-1.239l.058-2.959h3.583V118h-.864v-4.496h-1.864l-.048 2.21c-.013.557-.077 1.008-.192 1.354-.109.346-.282.599-.519.759-.23.16-.535.24-.913.24h-.22zm9.158.029c-.442 0-.797-.15-1.066-.451-.27-.301-.404-.695-.404-1.182v-.797h-.845V118h-.797v-5.284h.797v2.258h.845v-.721c0-.493.132-.887.394-1.181.27-.301.628-.452 1.076-.452.474 0 .855.151 1.143.452.289.294.433.688.433 1.181v2.21c0 .487-.144.881-.433 1.182-.288.301-.669.451-1.143.451zm0-.672c.243 0 .432-.084.567-.25.14-.173.211-.41.211-.711v-2.21c0-.301-.07-.534-.211-.701-.135-.173-.324-.259-.567-.259a.666.666 0 00-.557.259c-.134.167-.202.4-.202.701v2.21c0 .301.068.538.202.711.135.166.32.25.557.25zm5.92.576v-1.921a4.418 4.418 0 01-.47.077 7.097 7.097 0 01-.654.028c-.653.007-1.162-.15-1.527-.47-.359-.327-.538-.782-.538-1.365v-1.633h.865v1.633c0 .327.108.586.326.779.224.185.532.278.922.278.27 0 .497-.009.682-.029a3.49 3.49 0 00.394-.067v-2.594h.865V118h-.865zm4.172.096c-.557 0-.996-.141-1.316-.423-.32-.288-.48-.675-.48-1.162 0-.493.16-.881.48-1.162.32-.282.753-.423 1.297-.423h1.633v-.529c0-.326-.1-.576-.298-.749-.192-.179-.467-.269-.826-.269-.314 0-.576.067-.788.202a.717.717 0 00-.365.528h-.864c.057-.454.272-.816.643-1.085.372-.269.836-.404 1.393-.404.609 0 1.09.157 1.441.471.353.314.529.74.529 1.278V118h-.846v-1.009h-.144l.144-.144c0 .384-.15.689-.451.913-.295.224-.689.336-1.182.336zm.212-.682c.41 0 .746-.102 1.008-.307a.957.957 0 00.394-.788v-.75H43.87c-.288 0-.515.081-.682.241-.166.16-.25.378-.25.653 0 .295.1.528.298.701.205.167.487.25.846.25zm3.633.586l1.355-2.037c-.404-.096-.717-.281-.942-.557-.217-.275-.326-.618-.326-1.028 0-.519.17-.925.509-1.22.346-.294.816-.442 1.412-.442H52V118h-.865v-1.969h-1.162L48.723 118h-1.009zm2.008-2.738h1.412v-1.777h-1.412c-.32 0-.573.08-.759.24-.185.154-.278.371-.278.653 0 .276.093.493.278.654.186.153.439.23.76.23zm11.697 2.834c-.423 0-.795-.08-1.115-.24a1.73 1.73 0 01-.73-.692c-.173-.307-.26-.669-.26-1.085v-1.441c0-.423.087-.785.26-1.086.173-.301.416-.531.73-.692.32-.16.692-.24 1.114-.24.609 0 1.099.164 1.47.49.372.327.567.772.586 1.336h-.864c-.02-.34-.135-.599-.346-.779-.205-.185-.487-.278-.846-.278-.377 0-.678.109-.903.326-.224.212-.336.516-.336.913v1.451c0 .397.112.704.336.922.225.218.526.327.904.327.358 0 .64-.093.845-.279.211-.186.326-.445.346-.778h.864c-.019.563-.214 1.008-.586 1.335-.371.327-.861.49-1.47.49zm5.67-.019c-.423 0-.788-.08-1.095-.24a1.744 1.744 0 01-.72-.692c-.167-.307-.25-.669-.25-1.086v-1.402c0-.423.083-.785.25-1.086.172-.301.412-.531.72-.691.307-.161.672-.241 1.095-.241.423 0 .788.08 1.095.241.308.16.544.39.711.691.173.301.26.66.26 1.076v1.412c0 .417-.087.779-.26 1.086a1.683 1.683 0 01-.71.692c-.308.16-.673.24-1.096.24zm0-.769c.378 0 .672-.105.884-.317.211-.211.317-.522.317-.932v-1.402c0-.41-.106-.721-.317-.932-.212-.211-.506-.317-.884-.317-.371 0-.666.106-.884.317-.211.211-.317.522-.317.932v1.402c0 .41.106.721.317.932.218.212.513.317.884.317zm5.257.692v-4.525h-1.921v-.759h4.707v.759h-1.921V118h-.865zm4.124 1.729v-7.013h.865v1.009h.172l-.172.202c0-.404.13-.721.394-.951.269-.237.62-.356 1.056-.356.532 0 .955.176 1.268.529.32.345.48.823.48 1.431v1.547c0 .403-.073.752-.22 1.047a1.573 1.573 0 01-.606.682c-.256.16-.563.24-.922.24-.429 0-.778-.118-1.047-.355-.269-.237-.403-.554-.403-.951l.172.201h-.192l.02 1.201v1.537h-.865zm2.027-2.382c.365 0 .65-.109.855-.327.211-.218.317-.531.317-.941v-1.441c0-.41-.106-.724-.317-.942-.205-.218-.49-.326-.855-.326-.352 0-.634.112-.845.336-.212.224-.317.535-.317.932v1.441c0 .397.105.707.317.932.211.224.493.336.845.336zm4.489 2.382l.778-2.056-1.96-4.957h.96l1.23 3.267c.045.108.087.24.126.393l.096.375c.025-.102.057-.227.096-.375.038-.153.076-.285.115-.393l1.153-3.267h.931l-2.603 7.013h-.922zm4.268-.384v-2.085h.432c.109-.109.221-.323.336-.643.122-.321.186-.727.192-1.22l.058-2.681h3.449v4.544h.672v2.085h-.768V118h-3.603v1.345h-.768zm1.345-2.085h2.257v-3.775H89.09l-.039 1.931c-.006.506-.06.916-.163 1.229-.103.314-.199.519-.288.615zm4.96.74v-5.284h.864v2.2h2.229v-2.2h.864V118h-.864v-2.296h-2.23V118h-.864zm5.689 0v-5.284h.826v2.882c0 .186-.006.381-.019.586a8.038 8.038 0 01-.039.586 5.69 5.69 0 01-.048.461l2.133-4.515h1.105V118h-.826v-2.882c0-.186.003-.381.009-.586.013-.205.029-.4.048-.586l.048-.471-2.132 4.525h-1.105zm8.725 0v-1.921a4.418 4.418 0 01-.47.077 7.106 7.106 0 01-.654.028c-.653.007-1.162-.15-1.527-.47-.359-.327-.538-.782-.538-1.365v-1.633h.864v1.633c0 .327.109.586.327.779.224.185.532.278.922.278.269 0 .497-.009.682-.029.193-.025.324-.048.394-.067v-2.594h.865V118h-.865zm4.633.096c-.416 0-.781-.083-1.095-.25a1.808 1.808 0 01-.721-.701 2.208 2.208 0 01-.249-1.066v-1.441c0-.41.083-.766.249-1.067.173-.301.414-.534.721-.701.314-.167.679-.25 1.095-.25.416 0 .778.083 1.086.25.314.167.554.4.72.701.173.301.26.657.26 1.067v.931h-3.286v.51c0 .416.106.736.317.96.211.218.512.327.903.327.333 0 .602-.058.807-.173a.765.765 0 00.375-.538h.864a1.47 1.47 0 01-.653 1.057c-.371.256-.836.384-1.393.384zm1.22-3.103v-.355c0-.417-.105-.737-.317-.961-.205-.224-.506-.336-.903-.336-.391 0-.692.112-.903.336-.211.224-.317.544-.317.961v.278h2.507l-.067.077zm4.489 3.103a2.46 2.46 0 01-1.114-.24 1.724 1.724 0 01-.73-.692c-.173-.307-.26-.669-.26-1.085v-1.441c0-.423.087-.785.26-1.086a1.73 1.73 0 01.73-.692c.32-.16.691-.24 1.114-.24.608 0 1.098.164 1.47.49.371.327.567.772.586 1.336h-.865c-.019-.34-.134-.599-.346-.779-.205-.185-.486-.278-.845-.278-.378 0-.679.109-.903.326-.224.212-.336.516-.336.913v1.451c0 .397.112.704.336.922.224.218.525.327.903.327.359 0 .64-.093.845-.279.212-.186.327-.445.346-.778h.865c-.019.563-.215 1.008-.586 1.335-.372.327-.862.49-1.47.49zm5.238-.096v-4.525h-1.921v-.759h4.707v.759h-1.921V118h-.865zm4.143 0v-5.284h2.287c.55 0 .976.125 1.277.375.301.243.452.586.452 1.028 0 .365-.125.66-.375.884-.25.217-.58.326-.989.326v-.077c.448 0 .807.113 1.076.337.275.224.413.525.413.903 0 .474-.16.845-.481 1.114-.32.263-.768.394-1.345.394h-2.315zm.846-.759h1.469c.308 0 .545-.067.711-.202.173-.134.26-.323.26-.566 0-.25-.087-.442-.26-.577-.166-.134-.403-.202-.711-.202h-1.469v1.547zm0-2.296h1.441c.269 0 .48-.064.634-.192.16-.128.24-.307.24-.538 0-.231-.077-.41-.231-.538-.154-.135-.368-.202-.643-.202h-1.441v1.47zm6.823 3.132c-.423 0-.788-.08-1.095-.24a1.742 1.742 0 01-.721-.692c-.166-.307-.25-.669-.25-1.086v-1.402c0-.423.084-.785.25-1.086a1.74 1.74 0 01.721-.691c.307-.161.672-.241 1.095-.241.422 0 .788.08 1.095.241.307.16.544.39.711.691.173.301.259.66.259 1.076v1.412c0 .417-.086.779-.259 1.086a1.689 1.689 0 01-.711.692c-.307.16-.673.24-1.095.24zm0-.769c.378 0 .672-.105.884-.317.211-.211.317-.522.317-.932v-1.402c0-.41-.106-.721-.317-.932-.212-.211-.506-.317-.884-.317-.372 0-.666.106-.884.317-.211.211-.317.522-.317.932v1.402c0 .41.106.721.317.932.218.212.512.317.884.317zm11.398.788c-.422 0-.794-.08-1.114-.24a1.73 1.73 0 01-.73-.692c-.173-.307-.26-.669-.26-1.085v-1.441c0-.423.087-.785.26-1.086.173-.301.416-.531.73-.692.32-.16.692-.24 1.114-.24.609 0 1.099.164 1.47.49.372.327.567.772.586 1.336h-.864c-.02-.34-.135-.599-.346-.779-.205-.185-.487-.278-.846-.278-.378 0-.679.109-.903.326-.224.212-.336.516-.336.913v1.451c0 .397.112.704.336.922.224.218.525.327.903.327.359 0 .641-.093.846-.279.211-.186.326-.445.346-.778h.864c-.019.563-.214 1.008-.586 1.335-.371.327-.861.49-1.47.49zM13.24 137.067v-.807h.173c.295 0 .5-.115.615-.346.122-.23.186-.643.192-1.239l.058-2.959h3.583V137h-.865v-4.496h-1.863l-.048 2.21c-.013.557-.077 1.008-.193 1.354-.108.346-.281.599-.518.759-.23.16-.535.24-.913.24h-.22zm8.332.01c-.423 0-.788-.08-1.095-.24a1.744 1.744 0 01-.721-.692c-.166-.307-.25-.669-.25-1.086v-1.402c0-.423.084-.785.25-1.086.173-.301.413-.531.72-.691.308-.161.673-.241 1.096-.241.422 0 .787.08 1.095.241.307.16.544.39.71.691.174.301.26.66.26 1.076v1.412c0 .417-.086.779-.26 1.086a1.683 1.683 0 01-.71.692c-.308.16-.673.24-1.095.24zm0-.769c.378 0 .672-.105.884-.317.21-.211.317-.522.317-.932v-1.402c0-.41-.106-.721-.317-.932-.212-.211-.506-.317-.884-.317-.372 0-.666.106-.884.317-.211.211-.317.522-.317.932v1.402c0 .41.106.721.317.932.218.212.512.317.884.317zm3.74.692v-5.284h.864v2.181h.903l1.537-2.181h.99l-1.778 2.517L29.634 137h-1.009l-1.537-2.354h-.912V137h-.865zm7.178.096c-.557 0-.996-.141-1.316-.423-.32-.288-.48-.675-.48-1.162 0-.493.16-.881.48-1.162.32-.282.752-.423 1.297-.423h1.633v-.529c0-.326-.1-.576-.298-.749-.192-.179-.467-.269-.826-.269-.314 0-.577.067-.788.202a.717.717 0 00-.365.528h-.865c.058-.454.273-.816.644-1.085s.836-.404 1.393-.404c.608 0 1.089.157 1.441.471.352.314.528.74.528 1.278V137h-.845v-1.009h-.144l.144-.144c0 .384-.15.689-.451.913-.295.224-.689.336-1.182.336zm.211-.682c.41 0 .746-.102 1.009-.307a.957.957 0 00.394-.788v-.75H32.49c-.288 0-.516.081-.682.241-.167.16-.25.378-.25.653 0 .295.1.528.298.701.205.167.487.25.845.25zm3.298.653v-.807h.173c.294 0 .5-.115.614-.346.122-.23.186-.643.193-1.239l.057-2.959h3.584V137h-.865v-4.496h-1.864l-.048 2.21c-.013.557-.077 1.008-.192 1.354-.109.346-.282.599-.519.759-.23.16-.534.24-.912.24h-.221zm6.39-.067v-5.284h.865v1.941h1.557c.595 0 1.063.15 1.402.451.346.295.519.702.519 1.22 0 .513-.173.919-.519 1.22-.346.301-.813.452-1.402.452H42.39zm.865-.788h1.557c.333 0 .586-.073.759-.221.179-.153.269-.374.269-.663 0-.288-.09-.506-.27-.653-.172-.154-.425-.23-.758-.23h-1.557v1.767zm4.787.788v-5.284h.865v2.2h2.228v-2.2H52V137h-.865v-2.296h-2.228V137h-.865zm5.411 0v-5.284h.807v1.941h.432c.57 0 1.019.15 1.345.451.333.295.5.702.5 1.22 0 .519-.167.929-.5 1.23-.326.295-.775.442-1.345.442h-1.239zm.807-.692h.432c.34 0 .602-.086.788-.259.192-.173.288-.413.288-.721 0-.307-.096-.547-.288-.72-.186-.173-.448-.259-.788-.259h-.432v1.959zm2.901.692v-5.284h.807V137h-.807zm2.087 0v-5.284h1.172l.692 2.027c.07.205.135.41.192.615.058.199.1.352.125.461.026-.109.064-.262.115-.461.058-.205.119-.413.183-.624l.653-2.018h1.172V137h-.836v-.817c0-.288.004-.602.01-.941l.02-1.028c.012-.346.025-.672.038-.98.012-.314.022-.589.029-.826l-.942 3.007h-.913l-.95-2.988c.012.288.022.647.028 1.076.013.429.023.878.029 1.345.013.468.02.913.02 1.335V137h-.837zm5.863 0v-5.284h.826v2.882c0 .186-.006.381-.02.586a7.543 7.543 0 01-.037.586 6.05 6.05 0 01-.049.461l2.133-4.515h1.105V137h-.826v-2.882c0-.186.003-.381.01-.586.012-.205.028-.4.047-.586l.048-.471L66.215 137H65.11zm11.38 0v-5.284h3.957V137h-.864v-4.496h-2.23V137h-.864zm7.207.096c-.557 0-.996-.141-1.316-.423-.32-.288-.48-.675-.48-1.162 0-.493.16-.881.48-1.162.32-.282.752-.423 1.296-.423h1.634v-.529c0-.326-.1-.576-.298-.749-.192-.179-.468-.269-.826-.269-.314 0-.577.067-.788.202a.717.717 0 00-.365.528h-.865c.058-.454.273-.816.644-1.085s.836-.404 1.393-.404c.608 0 1.089.157 1.44.471.353.314.53.74.53 1.278V137h-.846v-1.009h-.144l.144-.144c0 .384-.15.689-.452.913-.294.224-.688.336-1.181.336zm.211-.682c.41 0 .746-.102 1.009-.307a.957.957 0 00.394-.788v-.75h-1.614c-.288 0-.516.081-.682.241-.167.16-.25.378-.25.653 0 .295.1.528.298.701.205.167.486.25.845.25zm3.941 2.315v-7.013h.865v1.009h.173l-.173.202c0-.404.131-.721.394-.951.269-.237.621-.356 1.057-.356.531 0 .954.176 1.268.529.32.345.48.823.48 1.431v1.547c0 .403-.074.752-.221 1.047-.14.294-.343.522-.605.682-.256.16-.564.24-.922.24-.43 0-.779-.118-1.048-.355s-.403-.554-.403-.951l.173.201h-.192l.019 1.201v1.537h-.865zm2.027-2.382c.365 0 .65-.109.855-.327.212-.218.317-.531.317-.941v-1.441c0-.41-.105-.724-.317-.942-.205-.218-.49-.326-.855-.326-.352 0-.634.112-.845.336-.211.224-.317.535-.317.932v1.441c0 .397.106.707.317.932.211.224.493.336.845.336zm5.229.653v-4.525h-1.922v-.759h4.708v.759h-1.922V137h-.864zm4.143 0v-5.284h.864v2.2h2.229v-2.2h.865V137h-.865v-2.296h-2.229V137h-.864zm8.735-6.235a.632.632 0 01-.452-.163.596.596 0 01-.163-.442c0-.192.054-.343.163-.452a.613.613 0 01.452-.172.58.58 0 01.442.172c.115.109.173.26.173.452a.58.58 0 01-.173.442.596.596 0 01-.442.163zm-2.133 0a.628.628 0 01-.451-.163.597.597 0 01-.164-.442c0-.192.055-.343.164-.452a.61.61 0 01.451-.172.58.58 0 01.442.172c.115.109.173.26.173.452a.58.58 0 01-.173.442.596.596 0 01-.442.163zm1.066 6.331c-.416 0-.781-.083-1.095-.25a1.805 1.805 0 01-.72-.701 2.197 2.197 0 01-.25-1.066v-1.441c0-.41.083-.766.25-1.067.173-.301.413-.534.72-.701.314-.167.679-.25 1.095-.25.417 0 .779.083 1.086.25.314.167.554.4.721.701.172.301.259.657.259 1.067v.931h-3.286v.51c0 .416.106.736.317.96.212.218.513.327.903.327.334 0 .603-.058.807-.173a.765.765 0 00.375-.538h.865a1.474 1.474 0 01-.654 1.057c-.371.256-.835.384-1.393.384zm1.221-3.103v-.355c0-.417-.106-.737-.317-.961-.205-.224-.506-.336-.904-.336-.39 0-.691.112-.903.336-.211.224-.317.544-.317.961v.278h2.508l-.067.077zm2.471 4.736v-7.013h.865v1.009h.172l-.172.202c0-.404.131-.721.393-.951.269-.237.622-.356 1.057-.356.532 0 .954.176 1.268.529.32.345.481.823.481 1.431v1.547c0 .403-.074.752-.221 1.047a1.573 1.573 0 01-.606.682c-.256.16-.563.24-.922.24-.429 0-.778-.118-1.047-.355-.269-.237-.403-.554-.403-.951l.172.201h-.192l.02 1.201v1.537h-.865zm2.027-2.382c.365 0 .65-.109.855-.327.211-.218.317-.531.317-.941v-1.441c0-.41-.106-.724-.317-.942-.205-.218-.49-.326-.855-.326-.352 0-.634.112-.845.336-.212.224-.317.535-.317.932v1.441c0 .397.105.707.317.932.211.224.493.336.845.336zm5.2.749c-.558 0-.996-.141-1.316-.423-.321-.288-.481-.675-.481-1.162 0-.493.16-.881.481-1.162.32-.282.752-.423 1.296-.423h1.634v-.529c0-.326-.1-.576-.298-.749-.192-.179-.468-.269-.826-.269-.314 0-.577.067-.788.202a.718.718 0 00-.365.528h-.865c.058-.454.272-.816.644-1.085.371-.269.836-.404 1.393-.404.608 0 1.089.157 1.441.471.352.314.528.74.528 1.278V137h-.845v-1.009h-.144l.144-.144c0 .384-.151.689-.452.913-.294.224-.688.336-1.181.336zm.211-.682c.41 0 .746-.102 1.009-.307a.959.959 0 00.394-.788v-.75h-1.614c-.289 0-.516.081-.682.241-.167.16-.25.378-.25.653 0 .295.099.528.298.701.205.167.486.25.845.25zm3.788.586v-5.284h1.172l.691 2.027c.071.205.135.41.192.615.058.199.1.352.125.461.026-.109.064-.262.116-.461.057-.205.118-.413.182-.624l.653-2.018h1.172V137h-.835v-.817c0-.288.003-.602.009-.941l.019-1.028.039-.98c.013-.314.022-.589.029-.826l-.942 3.007h-.912l-.952-2.988c.013.288.023.647.029 1.076.013.429.023.878.029 1.345.013.468.019.913.019 1.335V137h-.835zm5.862 0v-5.284h.826v2.882c0 .186-.006.381-.019.586a8.055 8.055 0 01-.038.586c-.013.18-.029.333-.048.461l2.132-4.515h1.105V137h-.826v-2.882c0-.186.003-.381.01-.586.012-.205.028-.4.048-.586l.048-.471-2.133 4.525h-1.105zm11.379 0v-5.284h.827v2.882c0 .186-.007.381-.02.586a8.055 8.055 0 01-.038.586c-.013.18-.029.333-.048.461l2.133-4.515h1.104V137h-.826v-2.882c0-.186.003-.381.01-.586.013-.205.029-.4.048-.586l.048-.471L140.18 137h-1.105zM15.421 156.096c-.557 0-.996-.141-1.316-.423-.32-.288-.48-.675-.48-1.162 0-.493.16-.881.48-1.162.32-.282.752-.423 1.297-.423h1.633v-.529c0-.326-.1-.576-.298-.749-.192-.179-.467-.269-.826-.269-.314 0-.577.067-.788.202a.717.717 0 00-.365.528h-.865c.058-.454.273-.816.644-1.085s.836-.404 1.393-.404c.608 0 1.089.157 1.441.471.352.314.528.74.528 1.278V156h-.845v-1.009h-.144l.144-.144c0 .384-.15.689-.451.913-.295.224-.689.336-1.182.336zm.211-.682c.41 0 .746-.102 1.009-.307a.957.957 0 00.394-.788v-.75H15.42c-.288 0-.516.081-.682.241-.167.16-.25.378-.25.653 0 .295.1.528.298.701.205.167.487.25.845.25zm3.99.586v-5.284h.864v2.181h.903l1.537-2.181h.99l-1.777 2.517L23.945 156h-1.01l-1.536-2.354h-.913V156h-.864zm7.207 0v-4.525h-1.921v-.759h4.707v.759h-1.921V156h-.865zm4.143 0v-5.284h.826v2.882c0 .186-.006.381-.019.586a8.66 8.66 0 01-.038.586 6.21 6.21 0 01-.049.461l2.133-4.515h1.105V156h-.826v-2.882c0-.186.003-.381.01-.586.012-.205.028-.4.047-.586l.048-.471L32.078 156h-1.105zm5.69 0v-5.284h2.286c.55 0 .977.125 1.278.375.3.243.451.586.451 1.028 0 .365-.125.66-.374.884-.25.217-.58.326-.99.326v-.077c.448 0 .807.113 1.076.337.275.224.413.525.413.903 0 .474-.16.845-.48 1.114-.32.263-.769.394-1.345.394h-2.315zm.845-.759h1.47c.307 0 .544-.067.71-.202.174-.134.26-.323.26-.566 0-.25-.086-.442-.26-.577-.166-.134-.403-.202-.71-.202h-1.47v1.547zm0-2.296h1.441c.269 0 .48-.064.634-.192.16-.128.24-.307.24-.538 0-.231-.077-.41-.23-.538-.154-.135-.368-.202-.644-.202h-1.441v1.47zM42.351 156v-5.284h.865v2.2h2.229v-2.2h.864V156h-.864v-2.296h-2.23V156h-.864zm7.669.077c-.423 0-.788-.08-1.095-.24a1.744 1.744 0 01-.72-.692c-.167-.307-.25-.669-.25-1.086v-1.402c0-.423.083-.785.25-1.086.172-.301.412-.531.72-.691.307-.161.672-.241 1.095-.241.423 0 .788.08 1.095.241.307.16.544.39.711.691.173.301.26.66.26 1.076v1.412c0 .417-.087.779-.26 1.086a1.683 1.683 0 01-.71.692c-.308.16-.673.24-1.096.24zm0-.769c.378 0 .672-.105.884-.317.211-.211.317-.522.317-.932v-1.402c0-.41-.106-.721-.317-.932-.212-.211-.506-.317-.884-.317-.372 0-.666.106-.884.317-.211.211-.317.522-.317.932v1.402c0 .41.106.721.317.932.218.212.512.317.884.317zm5.69.788c-.417 0-.782-.083-1.096-.25a1.804 1.804 0 01-.72-.701 2.203 2.203 0 01-.25-1.066v-1.441c0-.41.083-.766.25-1.067a1.81 1.81 0 01.72-.701c.314-.167.68-.25 1.096-.25.416 0 .778.083 1.085.25.314.167.554.4.72.701.174.301.26.657.26 1.067v.931H54.49v.51c0 .416.105.736.317.96.21.218.512.327.903.327.333 0 .602-.058.807-.173a.764.764 0 00.374-.538h.865a1.473 1.473 0 01-.653 1.057c-.372.256-.836.384-1.393.384zm1.22-3.103v-.355c0-.417-.106-.737-.317-.961-.205-.224-.506-.336-.903-.336-.391 0-.692.112-.903.336-.212.224-.318.544-.318.961v.278h2.508l-.067.077zM65.11 156v-5.284h.826v2.882c0 .186-.006.381-.02.586a7.543 7.543 0 01-.037.586 6.05 6.05 0 01-.049.461l2.133-4.515h1.105V156h-.826v-2.882c0-.186.003-.381.01-.586.012-.205.028-.4.047-.586l.048-.471L66.215 156H65.11zm7.688.096c-.423 0-.794-.08-1.115-.24a1.73 1.73 0 01-.73-.692c-.173-.307-.26-.669-.26-1.085v-1.441c0-.423.087-.785.26-1.086.173-.301.417-.531.73-.692.32-.16.692-.24 1.115-.24.608 0 1.098.164 1.47.49.371.327.566.772.586 1.336h-.865c-.02-.34-.135-.599-.346-.779-.205-.185-.487-.278-.845-.278-.378 0-.68.109-.903.326-.224.212-.337.516-.337.913v1.451c0 .397.113.704.337.922.224.218.525.327.903.327.358 0 .64-.093.845-.279.212-.186.327-.445.346-.778h.865c-.02.563-.215 1.008-.586 1.335-.372.327-.862.49-1.47.49zm3.691-.096v-5.284h3.958V156h-.864v-4.496h-2.23V156h-.864zm7.669.077c-.423 0-.788-.08-1.095-.24a1.744 1.744 0 01-.72-.692c-.167-.307-.25-.669-.25-1.086v-1.402c0-.423.083-.785.25-1.086.172-.301.412-.531.72-.691.307-.161.672-.241 1.095-.241.423 0 .788.08 1.095.241.308.16.544.39.71.691.174.301.26.66.26 1.076v1.412c0 .417-.086.779-.26 1.086a1.683 1.683 0 01-.71.692c-.307.16-.672.24-1.095.24zm0-.769c.378 0 .672-.105.884-.317.211-.211.317-.522.317-.932v-1.402c0-.41-.106-.721-.317-.932-.212-.211-.506-.317-.884-.317-.372 0-.666.106-.884.317-.211.211-.317.522-.317.932v1.402c0 .41.106.721.317.932.218.212.512.317.884.317zm3.048.759v-.807h.173c.294 0 .5-.115.614-.346.122-.23.186-.643.193-1.239l.057-2.959h3.584V156h-.865v-4.496h-1.864l-.048 2.21c-.013.557-.077 1.008-.192 1.354-.109.346-.282.599-.519.759-.23.16-.534.24-.912.24h-.221zm6.39-.067v-5.284h.865v1.941h1.556c.596 0 1.064.15 1.403.451.346.295.519.702.519 1.22 0 .513-.173.919-.519 1.22-.346.301-.813.452-1.403.452h-2.42zm.865-.788h1.556c.334 0 .587-.073.76-.221.179-.153.268-.374.268-.663 0-.288-.09-.506-.269-.653-.172-.154-.425-.23-.758-.23H94.46v1.767zm6.516.855c-.557 0-1.015-.118-1.374-.355a1.412 1.412 0 01-.634-.961h.913c.045.16.163.292.355.394.199.102.445.154.74.154h.452c.313 0 .557-.074.73-.221a.713.713 0 00.269-.577c0-.256-.087-.458-.26-.605-.166-.147-.413-.221-.739-.221h-1.163v-.749h1.134c.294 0 .519-.071.672-.212a.717.717 0 00.231-.557.722.722 0 00-.106-.403.61.61 0 00-.298-.25 1.232 1.232 0 00-.49-.086h-.48c-.256 0-.477.057-.663.173-.186.115-.298.256-.336.422h-.913c.064-.397.273-.724.625-.98s.781-.384 1.287-.384h.48c.378 0 .702.061.971.183a1.323 1.323 0 01.835 1.277c0 .314-.102.573-.307.778-.205.199-.493.311-.865.337v.038c.455.032.785.154.99.365.205.211.307.516.307.913 0 .467-.173.839-.518 1.114-.346.276-.811.413-1.393.413h-.452zm5.939.01c-.422 0-.787-.08-1.095-.24a1.745 1.745 0 01-.72-.692c-.167-.307-.25-.669-.25-1.086v-1.402c0-.423.083-.785.25-1.086.173-.301.413-.531.72-.691.308-.161.673-.241 1.095-.241.423 0 .788.08 1.096.241.307.16.544.39.711.691.172.301.259.66.259 1.076v1.412c0 .417-.087.779-.259 1.086a1.689 1.689 0 01-.711.692c-.308.16-.673.24-1.096.24zm0-.769c.378 0 .673-.105.884-.317.212-.211.317-.522.317-.932v-1.402c0-.41-.105-.721-.317-.932-.211-.211-.506-.317-.884-.317-.371 0-.666.106-.883.317-.212.211-.317.522-.317.932v1.402c0 .41.105.721.317.932.217.212.512.317.883.317zm3.711.692v-5.284h2.287c.55 0 .976.125 1.277.375.301.243.452.586.452 1.028 0 .365-.125.66-.375.884-.25.217-.579.326-.989.326v-.077c.448 0 .807.113 1.076.337.275.224.413.525.413.903 0 .474-.16.845-.481 1.114-.32.263-.768.394-1.345.394h-2.315zm.846-.759h1.469c.308 0 .545-.067.711-.202.173-.134.26-.323.26-.566 0-.25-.087-.442-.26-.577-.166-.134-.403-.202-.711-.202h-1.469v1.547zm0-2.296h1.441c.269 0 .48-.064.634-.192.16-.128.24-.307.24-.538 0-.231-.077-.41-.231-.538-.153-.135-.368-.202-.643-.202h-1.441v1.47zm6.362 3.151c-.558 0-.996-.141-1.316-.423-.321-.288-.481-.675-.481-1.162 0-.493.16-.881.481-1.162.32-.282.752-.423 1.296-.423h1.634v-.529c0-.326-.1-.576-.298-.749-.192-.179-.468-.269-.826-.269-.314 0-.577.067-.788.202a.718.718 0 00-.365.528h-.865c.058-.454.272-.816.644-1.085.371-.269.836-.404 1.393-.404.608 0 1.089.157 1.441.471.352.314.528.74.528 1.278V156h-.845v-1.009h-.144l.144-.144c0 .384-.151.689-.452.913-.294.224-.688.336-1.181.336zm.211-.682c.41 0 .746-.102 1.009-.307a.959.959 0 00.394-.788v-.75h-1.614c-.289 0-.516.081-.682.241-.167.16-.25.378-.25.653 0 .295.099.528.298.701.205.167.486.25.845.25zm3.96.586v-5.284h.865v2.2h2.229v-2.2h.864V156h-.864v-2.296h-2.229V156h-.865zm5.69 0v-5.284h.826v2.882c0 .186-.006.381-.019.586a8.055 8.055 0 01-.038.586c-.013.18-.029.333-.048.461l2.132-4.515h1.105V156h-.826v-2.882c0-.186.003-.381.01-.586.012-.205.028-.4.048-.586l.048-.471-2.133 4.525h-1.105zm7.669.096c-.417 0-.782-.083-1.095-.25a1.802 1.802 0 01-.721-.701 2.209 2.209 0 01-.25-1.066v-1.441c0-.41.084-.766.25-1.067.173-.301.413-.534.721-.701.313-.167.678-.25 1.095-.25.416 0 .778.083 1.085.25.314.167.554.4.721.701.173.301.259.657.259 1.067v.931h-3.285v.51c0 .416.105.736.317.96.211.218.512.327.903.327.333 0 .602-.058.807-.173a.76.76 0 00.374-.538h.865a1.473 1.473 0 01-.653 1.057c-.372.256-.836.384-1.393.384zm1.22-3.103v-.355c0-.417-.106-.737-.317-.961-.205-.224-.506-.336-.903-.336-.391 0-.692.112-.903.336-.212.224-.317.544-.317.961v.278h2.507l-.067.077zM15.901 175.096c-.422 0-.794-.08-1.114-.24a1.73 1.73 0 01-.73-.692c-.173-.307-.26-.669-.26-1.085v-1.441c0-.423.087-.785.26-1.086.173-.301.416-.531.73-.692.32-.16.691-.24 1.114-.24.609 0 1.099.164 1.47.49.372.327.567.772.586 1.336h-.864c-.02-.34-.135-.599-.346-.779-.205-.185-.487-.278-.846-.278-.378 0-.679.109-.903.326-.224.212-.336.516-.336.913v1.451c0 .397.112.704.336.922.224.218.525.327.903.327.359 0 .64-.093.846-.279.211-.186.326-.445.346-.778h.864c-.02.563-.215 1.008-.586 1.335-.371.327-.861.49-1.47.49zm5.67-.019c-.422 0-.787-.08-1.095-.24a1.744 1.744 0 01-.72-.692c-.166-.307-.25-.669-.25-1.086v-1.402c0-.423.084-.785.25-1.086.173-.301.413-.531.72-.691.308-.161.673-.241 1.096-.241.422 0 .787.08 1.095.241.307.16.544.39.71.691.174.301.26.66.26 1.076v1.412c0 .417-.086.779-.26 1.086a1.683 1.683 0 01-.71.692c-.308.16-.673.24-1.095.24zm0-.769c.378 0 .673-.105.884-.317.212-.211.318-.522.318-.932v-1.402c0-.41-.106-.721-.317-.932-.212-.211-.506-.317-.884-.317-.372 0-.666.106-.884.317-.211.211-.317.522-.317.932v1.402c0 .41.106.721.317.932.218.212.512.317.884.317zm7.468 2.037V175h-3.757v-5.284h.865v4.515h2.075v-4.515h.865v4.515h.72v2.114h-.768zM30.972 175v-5.284h.826v2.882c0 .186-.006.381-.019.586a8.66 8.66 0 01-.038.586 6.21 6.21 0 01-.049.461l2.133-4.515h1.105V175h-.826v-2.882c0-.186.003-.381.01-.586.012-.205.028-.4.047-.586l.048-.471L32.078 175h-1.105zm7.207.096c-.557 0-.995-.141-1.316-.423-.32-.288-.48-.675-.48-1.162 0-.493.16-.881.48-1.162.32-.282.753-.423 1.297-.423h1.634v-.529c0-.326-.1-.576-.298-.749-.193-.179-.468-.269-.827-.269-.313 0-.576.067-.787.202a.717.717 0 00-.365.528h-.865c.058-.454.272-.816.644-1.085.371-.269.836-.404 1.393-.404.608 0 1.088.157 1.44.471.353.314.53.74.53 1.278V175h-.846v-1.009h-.144l.144-.144c0 .384-.15.689-.452.913-.294.224-.688.336-1.181.336zm.212-.682c.41 0 .746-.102 1.009-.307a.957.957 0 00.394-.788v-.75H38.18c-.289 0-.516.081-.683.241-.166.16-.25.378-.25.653 0 .295.1.528.298.701.205.167.487.25.846.25zm3.297.653v-.807h.173c.295 0 .5-.115.615-.346.122-.23.186-.643.192-1.239l.058-2.959h3.583V175h-.864v-4.496H43.58l-.048 2.21c-.013.557-.077 1.008-.192 1.354-.11.346-.282.599-.519.759-.23.16-.535.24-.913.24h-.22zM48.08 175v-5.284h.865v1.941H50.5c.596 0 1.063.15 1.403.451.346.295.519.702.519 1.22 0 .513-.173.919-.52 1.22-.345.301-.813.452-1.402.452h-2.42zm.865-.788H50.5c.333 0 .586-.073.76-.221.178-.153.268-.374.268-.663 0-.288-.09-.506-.269-.653-.173-.154-.426-.23-.759-.23h-1.556v1.767zm4.787.788v-5.284h.864v2.2h2.229v-2.2h.865V175h-.865v-2.296h-2.229V175h-.864zm5.41 0v-5.284h.808v1.941h.432c.57 0 1.018.15 1.345.451.333.295.5.702.5 1.22 0 .519-.167.929-.5 1.23-.327.295-.775.442-1.345.442h-1.24zm.808-.692h.432c.34 0 .602-.086.788-.259.192-.173.288-.413.288-.721 0-.307-.096-.547-.288-.72-.186-.173-.449-.259-.788-.259h-.432v1.959zm2.9.692v-5.284h.808V175h-.807zm1.838 0l1.874-2.719-1.759-2.565h1.019l1.047 1.633c.045.071.086.148.125.231.045.083.08.151.106.202.019-.051.048-.119.086-.202.045-.083.09-.16.135-.231l1.056-1.633h1.009l-1.758 2.575L69.49 175h-1.019l-1.133-1.729a2.864 2.864 0 01-.135-.24 2.129 2.129 0 00-.105-.231 3.625 3.625 0 01-.26.471L65.696 175h-1.009zm13.8.096c-.422 0-.794-.08-1.114-.24a1.73 1.73 0 01-.73-.692c-.173-.307-.26-.669-.26-1.085v-1.441c0-.423.087-.785.26-1.086.173-.301.416-.531.73-.692.32-.16.692-.24 1.114-.24.609 0 1.099.164 1.47.49.372.327.567.772.586 1.336h-.864c-.02-.34-.135-.599-.346-.779-.205-.185-.487-.278-.846-.278-.377 0-.678.109-.903.326-.224.212-.336.516-.336.913v1.451c0 .397.112.704.336.922.225.218.526.327.903.327.36 0 .64-.093.846-.279.211-.186.326-.445.346-.778h.864c-.019.563-.214 1.008-.586 1.335-.371.327-.861.49-1.47.49zm5.67 0c-.415 0-.78-.083-1.094-.25a1.803 1.803 0 01-.72-.701 2.203 2.203 0 01-.25-1.066v-1.441c0-.41.083-.766.25-1.067a1.81 1.81 0 01.72-.701c.313-.167.679-.25 1.095-.25.416 0 .778.083 1.085.25.314.167.554.4.72.701.174.301.26.657.26 1.067v.931h-3.285v.51c0 .416.105.736.317.96.211.218.512.327.903.327.333 0 .602-.058.807-.173a.764.764 0 00.374-.538h.865a1.473 1.473 0 01-.653 1.057c-.372.256-.836.384-1.393.384zm1.22-3.103v-.355c0-.417-.105-.737-.316-.961-.205-.224-.506-.336-.903-.336-.39 0-.692.112-.903.336-.212.224-.317.544-.317.961v.278h2.507l-.067.077zM89.416 175v-4.525h-1.921v-.759H92.2v.759h-1.92V175h-.865zm6.122.096c-.416 0-.781-.083-1.095-.25a1.803 1.803 0 01-.72-.701 2.203 2.203 0 01-.25-1.066v-1.441c0-.41.083-.766.25-1.067a1.81 1.81 0 01.72-.701c.314-.167.679-.25 1.095-.25.416 0 .778.083 1.086.25.314.167.554.4.72.701.173.301.26.657.26 1.067v.931h-3.286v.51c0 .416.106.736.317.96.212.218.513.327.903.327.333 0 .602-.058.807-.173a.764.764 0 00.375-.538h.864a1.473 1.473 0 01-.653 1.057c-.371.256-.836.384-1.393.384zm1.22-3.103v-.355c0-.417-.105-.737-.317-.961-.205-.224-.506-.336-.903-.336-.39 0-.692.112-.903.336-.211.224-.317.544-.317.961v.278h2.508l-.068.077zm2.49 3.007v-5.284h.827v2.882c0 .186-.006.381-.019.586a8.038 8.038 0 01-.039.586 5.69 5.69 0 01-.048.461l2.133-4.515h1.105V175h-.826v-2.882c0-.186.003-.381.009-.586.013-.205.029-.4.048-.586l.048-.471-2.132 4.525h-1.105zm2.018-6.148c-.461 0-.832-.128-1.114-.385-.282-.256-.423-.592-.423-1.008h.682c0 .249.077.451.231.605.154.154.358.23.615.23.262 0 .47-.076.624-.23a.802.802 0 00.24-.605h.682c0 .416-.141.752-.422 1.008-.282.257-.654.385-1.115.385zm5.651 6.244c-.243 0-.438-.07-.586-.211-.14-.141-.211-.33-.211-.567 0-.25.071-.448.211-.596.148-.147.343-.221.586-.221.244 0 .436.074.577.221.147.148.221.346.221.596 0 .237-.074.426-.221.567-.141.141-.333.211-.577.211zM13.74 18v-7.013h2.152c.678 0 1.216.163 1.614.49.397.32.595.759.595 1.316 0 .314-.07.586-.211.817a1.46 1.46 0 01-.577.538 1.71 1.71 0 01-.826.192v-.04c.34-.006.64.058.903.192.27.129.48.32.634.577.16.256.24.567.24.932 0 .403-.092.756-.278 1.056a1.866 1.866 0 01-.788.702c-.333.16-.733.24-1.2.24H13.74zm1.172-1h1.008c.353 0 .628-.092.827-.278.205-.192.307-.451.307-.778s-.102-.59-.307-.788c-.199-.205-.474-.307-.827-.307h-1.008v2.152zm0-3.121h.96c.32 0 .57-.084.75-.25.186-.173.278-.407.278-.701 0-.295-.092-.526-.278-.692-.18-.167-.43-.25-.75-.25h-.96v1.893zM19.439 18v-5.284h1.2v2.046h1.864v-2.046h1.201V18h-1.2v-2.123H20.64V18h-1.201zm7.832.096c-.448 0-.839-.086-1.172-.26a1.923 1.923 0 01-.778-.72 2.168 2.168 0 01-.27-1.095v-1.326c0-.416.09-.778.27-1.085.185-.314.445-.557.778-.73.333-.173.724-.26 1.172-.26.442 0 .826.087 1.153.26.333.172.589.416.768.73.186.307.279.669.279 1.085v.951h-3.257v.375c0 .371.09.653.27.845.178.186.444.279.796.279.27 0 .487-.045.654-.134a.642.642 0 00.317-.414h1.181c-.09.455-.333.82-.73 1.096-.39.269-.868.403-1.431.403zm1.037-3.122v-.288c0-.365-.086-.644-.259-.836-.173-.199-.432-.298-.778-.298-.346 0-.608.1-.788.298-.18.198-.269.48-.269.845v.202l2.18-.02-.085.097zm2.001 4.37v-2.362h.356c.108-.11.22-.308.336-.596.121-.294.185-.66.192-1.095l.058-2.575h3.698v4.266h.625v2.363h-1.105V18h-3.055v1.345h-1.105zm1.576-2.362h1.921v-3.219h-1.441l-.038 1.528c-.007.429-.061.79-.164 1.085-.096.289-.189.49-.278.606zm4.613 2.747v-7.013h1.172v1.009h.27l-.27.279c0-.43.128-.766.385-1.01.256-.249.602-.374 1.037-.374.532 0 .958.183 1.278.548.32.365.48.855.48 1.47v1.431c0 .41-.074.769-.22 1.076a1.625 1.625 0 01-.606.701 1.7 1.7 0 01-.932.25c-.435 0-.781-.122-1.037-.365-.257-.25-.385-.59-.385-1.018l.27.278h-.28l.04 1.259v1.48h-1.202zm2.172-2.67c.307 0 .547-.09.72-.27.173-.179.26-.435.26-.768v-1.326c0-.333-.087-.589-.26-.768-.173-.18-.413-.27-.72-.27-.302 0-.538.094-.711.28-.173.179-.26.432-.26.758v1.326c0 .327.087.583.26.769.172.179.41.268.71.268zm5.67 1.037c-.448 0-.84-.086-1.172-.26a1.923 1.923 0 01-.778-.72 2.17 2.17 0 01-.27-1.095v-1.326c0-.416.09-.778.27-1.085.185-.314.445-.557.778-.73.333-.173.724-.26 1.172-.26.442 0 .826.087 1.153.26.333.172.589.416.768.73.186.307.279.669.279 1.085v.951h-3.257v.375c0 .371.09.653.27.845.178.186.444.279.797.279.268 0 .486-.045.653-.134a.642.642 0 00.317-.414h1.18c-.09.455-.333.82-.73 1.096-.39.269-.867.403-1.431.403zm1.037-3.122v-.288c0-.365-.086-.644-.259-.836-.173-.199-.432-.298-.778-.298-.346 0-.609.1-.788.298-.18.198-.269.48-.269.845v.202l2.18-.02-.086.097zM47.887 18v-5.284h1.201v2.046h1.864v-2.046h1.2V18h-1.2v-2.123h-1.864V18h-1.2zm5.69 0v-5.284h1.086v2.604c0 .166-.01.365-.03.595-.012.225-.031.445-.057.663-.026.218-.051.407-.077.567l1.864-4.429h1.48V18h-1.086v-2.603c0-.173.006-.366.019-.577.02-.211.038-.42.058-.624.025-.205.05-.378.076-.519L55.056 18h-1.48zm7.832.096c-.448 0-.84-.086-1.172-.26a1.923 1.923 0 01-.778-.72 2.17 2.17 0 01-.27-1.095v-1.326c0-.416.09-.778.27-1.085.185-.314.445-.557.778-.73.333-.173.724-.26 1.172-.26.442 0 .826.087 1.153.26.333.172.589.416.768.73.186.307.279.669.279 1.085v.951h-3.257v.375c0 .371.09.653.27.845.178.186.444.279.797.279.269 0 .486-.045.653-.134a.642.642 0 00.317-.414h1.181c-.09.455-.333.82-.73 1.096-.39.269-.868.403-1.431.403zm1.037-3.122v-.288c0-.365-.086-.644-.259-.836-.173-.199-.432-.298-.778-.298-.346 0-.609.1-.788.298-.18.198-.269.48-.269.845v.202l2.18-.02-.086.097zm8.2 3.026v-5.284h1.2v2.046h1.864v-2.046h1.201V18h-1.2v-2.123h-1.864V18h-1.201zm7.822.087c-.448 0-.839-.084-1.172-.25a1.938 1.938 0 01-.768-.72c-.18-.315-.27-.683-.27-1.106v-1.306c0-.423.09-.788.27-1.095.185-.314.442-.554.768-.72.333-.174.724-.26 1.172-.26.455 0 .846.086 1.172.26.327.166.58.406.76.72.185.307.278.669.278 1.085v1.316c0 .423-.093.791-.279 1.105-.18.308-.432.548-.759.72-.326.167-.717.25-1.172.25zm0-1.048c.32 0 .567-.086.74-.26.18-.178.269-.435.269-.768v-1.306c0-.34-.09-.596-.27-.769-.172-.173-.419-.259-.739-.259-.314 0-.56.086-.74.26-.179.172-.268.428-.268.768v1.306c0 .333.09.59.269.769.179.173.425.26.74.26zm3.548.961v-5.284h2.344c.608 0 1.085.128 1.431.385.352.25.528.595.528 1.037 0 .359-.137.647-.413.865-.269.217-.627.326-1.076.326v-.086c.487 0 .878.115 1.172.346.295.224.442.525.442.903 0 .467-.179.835-.538 1.104-.352.27-.839.404-1.46.404h-2.43zm1.181-.913h1.21c.27 0 .481-.06.635-.182a.593.593 0 00.23-.49.613.613 0 00-.23-.51c-.154-.121-.365-.182-.634-.182h-1.21v1.364zm0-2.17h1.172c.237 0 .426-.058.567-.174a.576.576 0 00.211-.47.576.576 0 00-.211-.471c-.135-.122-.323-.183-.567-.183h-1.172v1.297zM87.446 18v-5.284h1.037v1.787h.356c.57 0 1.021.16 1.354.48.333.32.5.75.5 1.288 0 .525-.17.944-.51 1.258-.332.314-.78.471-1.344.471h-1.393zm1.037-.932h.356c.275 0 .487-.07.634-.211.154-.141.23-.336.23-.586 0-.263-.076-.468-.23-.615-.147-.147-.359-.221-.634-.221h-.356v1.633zm2.729.932v-5.284h1.037V18h-1.037zM93 18l1.844-2.728-1.72-2.556h1.355l.817 1.297c.051.077.096.164.135.26.044.096.08.172.105.23l.106-.23c.045-.096.09-.183.134-.26l.826-1.297h1.355l-1.72 2.556L98.073 18H96.71l-.912-1.45a2.638 2.638 0 01-.144-.27 3.88 3.88 0 00-.116-.23 6.64 6.64 0 01-.106.23 2.657 2.657 0 01-.144.27L94.356 18H93zM13.749 37v-5.284h1.086v2.604c0 .166-.01.365-.029.595a13.998 13.998 0 01-.135 1.23l1.864-4.429h1.48V37h-1.086v-2.603c0-.173.007-.365.02-.577l.057-.624c.026-.205.051-.378.077-.519L15.229 37h-1.48zm7.842.096c-.448 0-.842-.083-1.182-.25a1.923 1.923 0 01-.778-.72c-.186-.314-.279-.682-.279-1.105v-1.326c0-.429.093-.797.28-1.105.185-.307.444-.544.777-.71.34-.173.734-.26 1.182-.26.666 0 1.197.173 1.595.519.397.34.605.804.624 1.393h-1.2c-.02-.275-.12-.487-.299-.634-.172-.154-.413-.23-.72-.23-.32 0-.573.089-.759.268-.186.173-.279.423-.279.75v1.335c0 .327.093.58.279.759.186.18.439.269.759.269.307 0 .547-.074.72-.221.18-.154.279-.368.298-.644h1.201c-.02.59-.227 1.057-.624 1.403-.398.34-.929.51-1.595.51zM26.656 37v-4.179H24.85v-1.105h4.823v1.105h-1.806V37h-1.21zm6.295.087c-.448 0-.839-.084-1.172-.25a1.939 1.939 0 01-.769-.72 2.2 2.2 0 01-.269-1.106v-1.306c0-.423.09-.788.27-1.095a1.84 1.84 0 01.768-.72c.333-.174.724-.26 1.172-.26.455 0 .845.086 1.172.26.327.166.58.406.759.72.186.307.279.669.279 1.085v1.316c0 .423-.093.791-.28 1.105a1.848 1.848 0 01-.758.72c-.327.167-.717.25-1.172.25zm0-1.048c.32 0 .567-.086.74-.26.179-.178.269-.435.269-.768v-1.306c0-.34-.09-.596-.27-.769-.172-.173-.419-.259-.739-.259-.314 0-.56.086-.74.26-.18.172-.269.428-.269.768v1.306c0 .333.09.59.27.769.179.173.425.26.739.26zm6.574.961v-1.777a5.518 5.518 0 01-.404.067 5.43 5.43 0 01-.596.029c-.678 0-1.21-.167-1.594-.5-.385-.34-.577-.81-.577-1.412v-1.69h1.201v1.632c0 .276.096.494.288.654.192.153.455.23.788.23.218 0 .407-.01.567-.029a2.45 2.45 0 00.327-.067v-2.42h1.21V37h-1.21zm2.673 0v-5.284h1.2v2.047h1.864v-2.047h1.201V37h-1.2v-2.123h-1.865V37h-1.2zm5.69 0v-5.284h1.085v2.604c0 .166-.01.365-.029.595a10.96 10.96 0 01-.058.663c-.025.218-.05.407-.077.567l1.864-4.429h1.48V37h-1.086v-2.603c0-.173.007-.365.02-.577.018-.211.038-.42.057-.624a9.79 9.79 0 01.077-.519L49.367 37h-1.48zm5.718 0v-5.284h1.2v2.075h.788l1.288-2.075h1.345l-1.595 2.556L58.255 37h-1.373l-1.288-2.19h-.787V37h-1.201zm7.793.087c-.448 0-.839-.084-1.172-.25a1.938 1.938 0 01-.768-.72c-.18-.315-.27-.683-.27-1.106v-1.306c0-.423.09-.788.27-1.095.185-.314.442-.554.768-.72.333-.174.724-.26 1.172-.26.455 0 .846.086 1.172.26.327.166.58.406.76.72.185.307.278.669.278 1.085v1.316c0 .423-.093.791-.279 1.105-.18.308-.432.548-.759.72-.326.167-.717.25-1.172.25zm0-1.048c.32 0 .567-.086.74-.26.18-.178.269-.435.269-.768v-1.306c0-.34-.09-.596-.269-.769-.173-.173-.42-.259-.74-.259-.314 0-.56.086-.74.26-.179.172-.268.428-.268.768v1.306c0 .333.09.59.269.769.179.173.425.26.74.26zm3.548.961v-5.284h2.344c.608 0 1.085.128 1.431.385.352.25.528.595.528 1.037 0 .359-.137.647-.413.865-.269.217-.627.326-1.076.326v-.086c.487 0 .878.115 1.172.346.295.224.442.525.442.903 0 .467-.179.836-.538 1.105-.352.268-.839.403-1.46.403h-2.43zm1.181-.913h1.21c.27 0 .481-.06.635-.182a.593.593 0 00.23-.49.613.613 0 00-.23-.51c-.154-.121-.365-.182-.634-.182h-1.21v1.364zm0-2.17H67.3c.237 0 .426-.058.567-.174a.576.576 0 00.211-.47.576.576 0 00-.21-.471c-.135-.122-.324-.183-.568-.183h-1.172v1.297zM77.863 37v-4.179h-1.806v-1.105h4.822v1.105h-1.806V37h-1.21zm4.153 1.73v-7.014h1.172v1.009h.269l-.27.279c0-.43.129-.766.385-1.01.256-.249.602-.374 1.037-.374.532 0 .958.183 1.278.548.32.365.48.855.48 1.47v1.431c0 .41-.073.769-.22 1.076a1.618 1.618 0 01-.606.701c-.262.167-.573.25-.932.25-.435 0-.781-.122-1.037-.365-.256-.25-.384-.59-.384-1.018l.269.278h-.279l.038 1.259v1.48h-1.2zm2.17-2.671c.308 0 .548-.09.721-.27.173-.179.26-.435.26-.768v-1.326c0-.333-.087-.589-.26-.768-.173-.18-.413-.27-.72-.27-.301 0-.538.094-.711.28-.173.179-.26.432-.26.758v1.326c0 .327.087.583.26.769.173.179.41.269.71.269zm5.075 1.037c-.544 0-.973-.144-1.287-.432-.314-.288-.47-.676-.47-1.163 0-.518.172-.919.518-1.2.346-.282.836-.423 1.47-.423h1.316v-.452c0-.256-.083-.454-.25-.595-.166-.148-.393-.221-.682-.221-.262 0-.48.057-.653.173a.675.675 0 00-.307.47h-1.172c.057-.5.281-.896.672-1.19.39-.296.89-.443 1.499-.443.647 0 1.156.163 1.527.49.378.32.567.756.567 1.307V37h-1.162v-.922h-.192l.192-.26c0 .391-.144.702-.433.932-.288.23-.672.346-1.153.346zm.394-.903c.34 0 .615-.086.827-.26a.82.82 0 00.326-.672v-.644h-1.297c-.243 0-.438.071-.586.212a.736.736 0 00-.22.557c0 .25.083.448.25.596.172.14.406.211.7.211zm5.383 2.536V37c-.615 0-1.099-.176-1.451-.528-.346-.353-.519-.833-.519-1.441v-1.355c0-.608.176-1.086.529-1.431.352-.353.832-.529 1.44-.529v-1.729h1v1.73c.615 0 1.095.175 1.44.528.353.346.53.823.53 1.431v1.355c0 .608-.177 1.088-.53 1.44-.345.353-.825.529-1.44.529v1.73h-1zm.048-2.67v-3.401c-.301 0-.538.09-.711.269-.173.18-.26.429-.26.75v1.354c0 .32.087.573.26.759.173.179.41.269.71.269zm.903 0c.307 0 .544-.09.71-.27.174-.185.26-.438.26-.758v-1.355c0-.32-.087-.57-.26-.75-.166-.179-.403-.268-.71-.268v3.4zm4.738 2.67V37c-.615 0-1.098-.176-1.45-.528-.346-.353-.52-.833-.52-1.441v-1.355c0-.608.177-1.086.53-1.431.351-.353.832-.529 1.44-.529v-1.729h.999v1.73c.615 0 1.096.175 1.441.528.353.346.529.823.529 1.431v1.355c0 .608-.176 1.088-.529 1.44-.345.353-.826.529-1.441.529v1.73h-.999zm.048-2.67v-3.401c-.301 0-.538.09-.711.269-.172.18-.259.429-.259.75v1.354c0 .32.086.573.259.759.173.179.41.269.711.269zm.903 0c.308 0 .545-.09.711-.27.173-.185.26-.438.26-.758v-1.355c0-.32-.087-.57-.26-.75-.166-.179-.403-.268-.711-.268v3.4zm3.106.941v-5.284h1.085v2.604c0 .166-.009.365-.028.595a13.964 13.964 0 01-.135 1.23l1.864-4.429h1.479V37h-1.085v-2.603c0-.173.006-.365.019-.577l.057-.624c.026-.205.052-.378.077-.519L106.263 37h-1.479zm5.718 0v-5.284h1.201v2.075h.788l1.287-2.075h1.345l-1.595 2.556L115.152 37h-1.374l-1.287-2.19h-.788V37h-1.201zm7.208.096c-.545 0-.974-.144-1.288-.432-.313-.288-.47-.676-.47-1.163 0-.518.173-.919.519-1.2.345-.282.835-.423 1.469-.423h1.316v-.452c0-.256-.083-.454-.249-.595-.167-.148-.394-.221-.682-.221-.263 0-.481.057-.654.173a.674.674 0 00-.307.47h-1.172c.058-.5.282-.896.672-1.19.391-.296.891-.443 1.499-.443.647 0 1.156.163 1.528.49.377.32.566.756.566 1.307V37h-1.162v-.922h-.192l.192-.26c0 .391-.144.702-.432.932-.289.23-.673.346-1.153.346zm.394-.903c.339 0 .615-.086.826-.26a.818.818 0 00.326-.672v-.644h-1.296c-.244 0-.439.071-.586.212a.733.733 0 00-.221.557c0 .25.083.448.249.596.173.14.407.211.702.211zm5.881-2.959c-.269 0-.486-.074-.653-.22a.778.778 0 01-.24-.587c0-.243.08-.439.24-.586.167-.147.384-.22.653-.22s.484.073.644.22c.167.147.25.343.25.586a.761.761 0 01-.25.586c-.16.148-.375.221-.644.221zm0 3.862c-.269 0-.486-.074-.653-.22a.758.758 0 01-.24-.587c0-.243.08-.439.24-.586.167-.147.384-.22.653-.22s.484.073.644.22c.167.147.25.343.25.586a.743.743 0 01-.25.586c-.16.147-.375.221-.644.221z" fill="#000"/><defs><filter id="filter0_d_2004_53" x=".157" y="0" width="179.685" height="192.685" filterUnits="userSpaceOnUse" color-interpolation-filters="sRGB"><feFlood flood-opacity="0" result="BackgroundImageFix"/><feColorMatrix in="SourceAlpha" values="0 0 0 0 0 0 0 0 0 0 0 0 0 0 0 0 0 0 127 0" result="hardAlpha"/><feOffset dy="3.843"/><feGaussianBlur stdDeviation="1.921"/><feComposite in2="hardAlpha" operator="out"/><feColorMatrix values="0 0 0 0 0 0 0 0 0 0 0 0 0 0 0 0 0 0 0.25 0"/><feBlend in2="BackgroundImageFix" result="effect1_dropShadow_2004_53"/><feBlend in="SourceGraphic" in2="effect1_dropShadow_2004_53" result="shape"/></filter></defs></svg>