<svg width="180" height="193" fill="none" xmlns="http://www.w3.org/2000/svg"><g filter="url(#filter0_d_2004_54)"><rect x="4" width="172" height="185" rx="16.011" fill="#AB9F85"/></g><mask id="a" style="mask-type:alpha" maskUnits="userSpaceOnUse" x="4" y="0" width="173" height="43"><path fill="#C9D9CD" d="M4.292 0h171.961v42.27H4.292z"/></mask><g mask="url(#a)"><rect x="4.292" y="-1.69" width="171.961" height="118.355" rx="16.011" fill="#F5ECDB"/></g><path d="M14.782 60.073V53.06h2.258c.435 0 .813.087 1.133.26.32.166.567.403.74.71.18.308.27.673.27 1.096 0 .416-.09.781-.27 1.095a1.82 1.82 0 01-.74.72c-.32.167-.698.25-1.133.25h-1.393v2.882h-.865zm.865-3.66h1.393c.378 0 .679-.115.903-.346.23-.237.346-.55.346-.941 0-.397-.116-.711-.346-.942-.224-.23-.525-.345-.903-.345h-1.393v2.574zm6.362 3.756c-.557 0-.996-.14-1.316-.422-.32-.289-.48-.676-.48-1.163 0-.493.16-.88.48-1.162.32-.282.752-.423 1.297-.423h1.633v-.528c0-.327-.1-.577-.298-.75-.192-.179-.467-.269-.826-.269-.314 0-.576.068-.788.202a.718.718 0 00-.365.528h-.864c.057-.454.272-.816.643-1.085.372-.269.836-.404 1.393-.404.609 0 1.089.157 1.441.471.352.314.529.74.529 1.278v3.631h-.846v-1.008h-.144l.144-.145c0 .385-.15.689-.451.913-.295.224-.689.336-1.182.336zm.211-.682c.41 0 .747-.102 1.009-.307a.956.956 0 00.394-.788v-.75h-1.614c-.288 0-.516.08-.682.24-.167.161-.25.379-.25.654 0 .295.1.529.298.701.205.167.487.25.845.25zm5.69.654c-.557 0-1.015-.119-1.374-.356a1.412 1.412 0 01-.634-.96h.913c.045.16.163.29.355.393.199.103.445.154.74.154h.451c.314 0 .558-.074.73-.221a.71.71 0 00.27-.576c0-.257-.087-.458-.26-.606-.166-.147-.413-.22-.74-.22H27.2v-.75h1.134c.294 0 .519-.07.672-.211a.72.72 0 00.23-.557.728.728 0 00-.105-.404.61.61 0 00-.298-.25 1.24 1.24 0 00-.49-.086h-.48c-.256 0-.477.057-.663.173-.186.115-.298.256-.336.422h-.913c.064-.397.272-.723.625-.98.352-.256.781-.384 1.287-.384h.48c.378 0 .702.061.97.183a1.327 1.327 0 01.836 1.277c0 .314-.102.574-.307.779-.205.198-.493.31-.865.336v.038c.455.032.785.154.99.365.205.212.307.516.307.913 0 .468-.173.839-.518 1.114-.346.276-.81.414-1.393.414h-.452zm3.941 1.662v-7.014h.865v1.01h.173l-.173.201c0-.404.131-.72.394-.951.269-.237.62-.355 1.056-.355.532 0 .955.176 1.269.528.32.346.48.823.48 1.431V58.2c0 .403-.074.752-.221 1.047a1.57 1.57 0 01-.605.682c-.256.16-.564.24-.923.24-.429 0-.778-.118-1.047-.355-.269-.237-.403-.554-.403-.951l.173.202h-.192l.019 1.2v1.538h-.865zm2.027-2.383c.365 0 .65-.109.855-.327.212-.217.317-.531.317-.941V56.71c0-.41-.105-.724-.317-.942-.205-.217-.49-.326-.855-.326-.352 0-.634.112-.845.336-.212.224-.317.535-.317.932v1.44c0 .398.105.709.317.933.211.224.493.336.845.336zm5.2.75c-.557 0-.996-.142-1.316-.423-.32-.289-.48-.676-.48-1.163 0-.493.16-.88.48-1.162.32-.282.752-.423 1.297-.423h1.633v-.528c0-.327-.1-.577-.298-.75-.192-.179-.467-.269-.826-.269-.314 0-.576.068-.788.202a.718.718 0 00-.365.528h-.864c.057-.454.272-.816.643-1.085.372-.269.836-.404 1.393-.404.608 0 1.089.157 1.441.471.352.314.529.74.529 1.278v3.631h-.846v-1.008h-.144l.144-.145c0 .385-.15.689-.451.913-.295.224-.689.336-1.182.336zm.211-.683c.41 0 .746-.102 1.009-.307a.956.956 0 00.394-.788v-.75h-1.614c-.288 0-.516.08-.682.24-.167.161-.25.379-.25.654 0 .295.1.529.298.701.205.167.487.25.845.25zm5.94.682c-.621 0-1.115-.182-1.48-.547-.358-.372-.538-.878-.538-1.518v-2.402c0-.845.212-1.495.634-1.95.423-.461 1.028-.692 1.816-.692h1.345v.865h-1.345c-.519 0-.913.154-1.182.461-.269.301-.403.74-.403 1.316v.625h.134l-.134.192c.006-.378.134-.673.384-.884.25-.211.59-.317 1.018-.317.558 0 .99.18 1.297.538.314.358.471.852.471 1.48v.768c0 .429-.08.797-.24 1.105-.16.307-.39.544-.692.71-.3.167-.663.25-1.085.25zm0-.768c.371 0 .656-.112.855-.337.198-.224.297-.544.297-.96v-.769c0-.416-.099-.736-.297-.96-.199-.224-.484-.337-.855-.337-.372 0-.657.113-.855.337-.199.217-.298.538-.298.96v.769c0 .416.1.736.298.96.198.225.483.337.855.337zm5.69.75c-.423 0-.788-.081-1.096-.241a1.743 1.743 0 01-.72-.692c-.167-.307-.25-.669-.25-1.085V56.73c0-.423.083-.784.25-1.085a1.74 1.74 0 01.72-.692c.308-.16.673-.24 1.095-.24.423 0 .788.08 1.096.24.307.16.544.39.71.691.173.302.26.66.26 1.077v1.412c0 .416-.087.778-.26 1.085a1.683 1.683 0 01-.71.692c-.308.16-.673.24-1.096.24zm0-.77c.377 0 .672-.105.883-.316.212-.212.317-.522.317-.932V56.73c0-.41-.105-.72-.317-.932-.211-.211-.506-.317-.884-.317-.371 0-.666.106-.883.317-.212.212-.317.522-.317.932v1.403c0 .41.105.72.317.931.217.212.512.318.883.318zm5.257.692v-4.525h-1.922v-.759h4.708v.76H57.04v4.524h-.864zm5.66.096c-.557 0-.995-.14-1.316-.422-.32-.289-.48-.676-.48-1.163 0-.493.16-.88.48-1.162.32-.282.753-.423 1.297-.423h1.633v-.528c0-.327-.099-.577-.297-.75-.192-.179-.468-.269-.826-.269-.314 0-.577.068-.788.202a.718.718 0 00-.365.528h-.865c.058-.454.272-.816.644-1.085.371-.269.835-.404 1.393-.404.608 0 1.089.157 1.44.471.353.314.53.74.53 1.278v3.631h-.846v-1.008h-.144l.144-.145c0 .385-.15.689-.452.913-.294.224-.688.336-1.181.336zm.212-.682c.41 0 .746-.102 1.009-.307a.956.956 0 00.393-.788v-.75h-1.613c-.289 0-.516.08-.683.24-.166.161-.25.379-.25.654 0 .295.1.529.298.701.206.167.487.25.846.25zm3.297.654v-.807h.173c.295 0 .5-.116.615-.346.122-.23.186-.644.192-1.24l.058-2.959h3.583v5.284h-.864v-4.496h-1.864l-.048 2.21c-.013.557-.077 1.008-.192 1.354-.109.346-.282.6-.519.76-.23.16-.535.24-.912.24h-.221zm6.353-.068V54.79h.826v2.883c0 .185-.006.38-.019.586-.006.204-.02.4-.038.586-.013.179-.03.333-.049.46l2.133-4.515h1.105v5.284h-.826v-2.882c0-.186.003-.38.01-.586.012-.205.028-.4.047-.586l.049-.47-2.133 4.524h-1.105zm11.206 0V54.79h1.172l.692 2.028c.07.205.135.41.192.614.058.199.1.353.125.462.026-.11.064-.263.115-.462.058-.205.119-.413.183-.624l.653-2.018h1.172v5.284h-.836v-.816c0-.288.004-.602.01-.942l.02-1.028c.012-.346.025-.672.038-.98.013-.313.022-.589.029-.826l-.942 3.007h-.913l-.95-2.988c.012.289.022.647.028 1.076.013.43.023.878.029 1.345.013.468.02.913.02 1.336v.816h-.837zm7.842.096c-.416 0-.781-.083-1.095-.25a1.807 1.807 0 01-.72-.7 2.204 2.204 0 01-.25-1.067V56.71c0-.41.083-.765.25-1.066.172-.302.412-.535.72-.702a2.31 2.31 0 011.095-.25c.416 0 .778.084 1.086.25.313.167.553.4.72.702.173.3.26.656.26 1.066v.932h-3.286v.509c0 .416.106.736.317.96.211.218.512.327.903.327.333 0 .602-.057.807-.173a.763.763 0 00.375-.538h.864a1.472 1.472 0 01-.653 1.057c-.371.256-.836.384-1.393.384zm1.22-3.103v-.355c0-.416-.106-.737-.317-.96-.205-.225-.506-.337-.903-.337-.39 0-.692.112-.903.336-.211.224-.317.545-.317.96v.28h2.507l-.067.076zm2.068 3.007l1.873-2.718-1.758-2.566h1.019l1.047 1.634c.044.07.086.147.125.23.044.084.08.15.105.202.02-.051.048-.118.087-.202.044-.083.09-.16.134-.23l1.057-1.634h1.009l-1.758 2.575 1.863 2.71H97.82l-1.134-1.73a2.58 2.58 0 01-.134-.24 2.056 2.056 0 00-.106-.23 3.82 3.82 0 01-.26.47l-1.142 1.73h-1.01zm7.63.096c-.557 0-.996-.14-1.316-.422-.32-.289-.48-.676-.48-1.163 0-.493.16-.88.48-1.162.32-.282.753-.423 1.297-.423h1.633v-.528c0-.327-.099-.577-.298-.75-.192-.179-.467-.269-.826-.269-.314 0-.576.068-.788.202a.719.719 0 00-.365.528h-.864c.057-.454.272-.816.643-1.085.372-.269.836-.404 1.393-.404.609 0 1.089.157 1.441.471.353.314.529.74.529 1.278v3.631h-.846v-1.008h-.144l.144-.145c0 .385-.15.689-.451.913-.295.224-.689.336-1.182.336zm.212-.682c.409 0 .746-.102 1.008-.307a.955.955 0 00.394-.788v-.75h-1.614c-.288 0-.515.08-.682.24-.166.161-.25.379-.25.654 0 .295.1.529.298.701.205.167.487.25.846.25zm3.96.586V54.79h.865v2.2h2.228v-2.2h.865v5.284h-.865v-2.296h-2.228v2.296h-.865zm5.69 0V54.79h.826v2.883c0 .185-.007.38-.019.586-.007.204-.02.4-.039.586a6.233 6.233 0 01-.048.46l2.133-4.515h1.105v5.284h-.827v-2.882c0-.186.004-.38.01-.586.013-.205.029-.4.048-.586l.048-.47-2.133 4.524h-1.104zm7.418.068c-.557 0-1.015-.119-1.373-.356a1.408 1.408 0 01-.634-.96h.912c.045.16.164.29.356.393.198.103.445.154.739.154h.452c.314 0 .557-.074.73-.221a.711.711 0 00.269-.576c0-.257-.086-.458-.259-.606-.167-.147-.413-.22-.74-.22h-1.162v-.75h1.133c.295 0 .519-.07.673-.211a.722.722 0 00.23-.557.73.73 0 00-.105-.404.617.617 0 00-.298-.25 1.243 1.243 0 00-.49-.086h-.481c-.256 0-.477.057-.662.173-.186.115-.298.256-.337.422h-.912c.064-.397.272-.723.624-.98.352-.256.781-.384 1.287-.384h.481c.378 0 .701.061.97.183.269.115.474.282.615.5.147.217.221.477.221.777 0 .314-.103.574-.308.779-.205.198-.493.31-.864.336v.038c.455.032.784.154.989.365.205.212.308.516.308.913 0 .468-.173.839-.519 1.114-.346.276-.81.414-1.393.414h-.452zm3.788-.068V54.79h1.172l.692 2.028c.07.205.134.41.192.614.057.199.099.353.125.462.025-.11.064-.263.115-.462.058-.205.118-.413.183-.624l.653-2.018h1.172v5.284h-.836v-.816c0-.288.003-.602.01-.942l.019-1.028c.013-.346.025-.672.038-.98.013-.313.023-.589.029-.826l-.941 3.007h-.913l-.951-2.988c.013.289.022.647.029 1.076.013.43.022.878.029 1.345.012.468.019.913.019 1.336v.816h-.836zm5.584 0V54.79h.807v1.941h.432c.57 0 1.019.15 1.345.452.333.294.5.7.5 1.22 0 .518-.167.928-.5 1.23-.326.294-.775.441-1.345.441h-1.239zm.807-.691h.432c.34 0 .602-.087.788-.26.192-.173.288-.413.288-.72 0-.308-.096-.548-.288-.72-.186-.174-.448-.26-.788-.26h-.432v1.96zm2.901.691V54.79h.807v5.284h-.807zm7.335 1.345v-2.084h.432c.109-.11.221-.324.337-.644.121-.32.185-.727.192-1.22l.057-2.68h3.449v4.544h.673v2.084h-.769v-1.345h-3.602v1.345h-.769zm1.345-2.084h2.258v-3.776h-1.768l-.038 1.931c-.007.506-.061.916-.164 1.23-.102.313-.198.518-.288.614zm4.297.806v-.806h.173c.294 0 .499-.116.614-.346.122-.23.186-.644.193-1.24l.057-2.959h3.584v5.284h-.865v-4.496h-1.864l-.048 2.21c-.013.557-.077 1.008-.192 1.354-.109.346-.282.6-.519.76-.23.16-.535.24-.912.24h-.221zm6.026-.067l1.354-2.036c-.403-.096-.717-.282-.941-.558-.218-.275-.327-.618-.327-1.027 0-.52.17-.926.509-1.22.346-.295.817-.443 1.412-.443h2.277v5.284h-.864v-1.97h-1.163l-1.249 1.97h-1.008zm2.007-2.738h1.413v-1.777h-1.413c-.32 0-.573.08-.759.24-.185.154-.278.372-.278.654 0 .275.093.493.278.653.186.154.439.23.759.23zM16.8 79.17a2.46 2.46 0 01-1.115-.24 1.73 1.73 0 01-.73-.692c-.173-.307-.26-.669-.26-1.085V75.71c0-.423.087-.785.26-1.086a1.73 1.73 0 01.73-.691c.32-.16.692-.24 1.115-.24.608 0 1.098.163 1.47.49.371.326.566.771.585 1.335h-.864c-.02-.34-.135-.6-.346-.778-.205-.186-.487-.279-.845-.279-.378 0-.68.109-.903.327-.225.211-.337.515-.337.912v1.45c0 .398.112.705.337.923.224.218.525.327.903.327.358 0 .64-.093.845-.279.211-.186.327-.445.346-.778h.864c-.019.564-.214 1.009-.585 1.335-.372.327-.862.49-1.47.49zm3.691-.096V73.79h.826v2.882c0 .185-.006.38-.019.586-.006.205-.02.4-.038.586a6.83 6.83 0 01-.048.46l2.132-4.514h1.105v5.283h-.826v-2.882c0-.186.003-.38.01-.586.012-.205.028-.4.048-.586l.048-.47-2.133 4.524H20.49zm7.688.096a2.46 2.46 0 01-1.114-.24 1.73 1.73 0 01-.73-.692c-.173-.307-.26-.669-.26-1.085V75.71c0-.423.087-.785.26-1.086a1.73 1.73 0 01.73-.691c.32-.16.691-.24 1.114-.24.608 0 1.098.163 1.47.49.371.326.567.771.586 1.335h-.865c-.019-.34-.134-.6-.346-.778-.205-.186-.486-.279-.845-.279-.378 0-.679.109-.903.327-.224.211-.336.515-.336.912v1.45c0 .398.112.705.336.923.224.218.525.327.903.327.359 0 .64-.093.845-.279.212-.186.327-.445.346-.778h.865c-.02.564-.215 1.009-.586 1.335-.372.327-.862.49-1.47.49zm5.238-.096V74.55h-1.921v-.76h4.707v.76h-1.921v4.524h-.865zm6.122.096c-.416 0-.781-.083-1.095-.25a1.807 1.807 0 01-.72-.7 2.204 2.204 0 01-.25-1.067V75.71c0-.41.083-.766.25-1.067.172-.3.413-.534.72-.7.314-.167.679-.25 1.095-.25.416 0 .778.083 1.086.25.313.166.554.4.72.7.173.301.26.657.26 1.067v.932h-3.286v.509c0 .416.106.736.317.96.211.218.512.327.903.327.333 0 .602-.057.807-.173a.763.763 0 00.375-.538h.864a1.472 1.472 0 01-.653 1.057c-.371.256-.836.384-1.393.384zm1.22-3.103v-.355c0-.416-.105-.737-.317-.96-.205-.225-.506-.337-.903-.337-.39 0-.692.112-.903.336-.211.224-.317.545-.317.96v.28h2.507l-.067.076zm2.318 3.007V73.79h1.172l.691 2.027c.071.205.135.41.193.614.057.199.099.353.125.462.025-.11.064-.263.115-.462.058-.205.118-.413.182-.624l.654-2.017h1.172v5.283h-.836v-.816c0-.288.003-.602.01-.942l.019-1.028c.013-.346.025-.672.038-.98.013-.313.023-.589.029-.826l-.941 3.007h-.913l-.951-2.988c.013.289.022.647.029 1.076.012.43.022.878.028 1.345.013.468.02.913.02 1.336v.816h-.836zm7.38.096c-.557 0-.996-.14-1.316-.422-.32-.289-.48-.676-.48-1.163 0-.493.16-.88.48-1.162.32-.282.753-.423 1.297-.423h1.633v-.528c0-.327-.1-.577-.298-.75-.192-.179-.467-.269-.826-.269-.314 0-.576.068-.788.202a.718.718 0 00-.365.529h-.864c.057-.455.272-.817.643-1.086.372-.269.836-.403 1.393-.403.609 0 1.09.156 1.441.47.353.314.529.74.529 1.278v3.631h-.846v-1.008h-.144l.144-.145c0 .385-.15.689-.451.913-.295.224-.689.336-1.182.336zm.212-.682c.41 0 .746-.102 1.008-.307a.956.956 0 00.394-.788v-.75h-1.614c-.288 0-.515.08-.682.24-.166.161-.25.379-.25.654 0 .295.1.528.298.701.205.167.487.25.846.25zm5.507.586V74.55h-1.922v-.76h4.708v.76H57.04v4.524h-.864zm4.143 0V73.79h.826v2.882c0 .185-.007.38-.02.586-.006.205-.019.4-.038.586a6.233 6.233 0 01-.048.46l2.133-4.514h1.105v5.283h-.827v-2.882c0-.186.004-.38.01-.586.013-.205.029-.4.048-.586l.048-.47-2.133 4.524H60.32zm7.419.068c-.558 0-1.016-.119-1.374-.356a1.412 1.412 0 01-.634-.96h.912c.045.16.164.29.356.393.198.103.445.154.74.154h.451c.314 0 .557-.074.73-.221a.71.71 0 00.27-.576c0-.257-.087-.458-.26-.606-.167-.147-.413-.22-.74-.22h-1.162V76h1.133c.295 0 .519-.07.673-.211a.72.72 0 00.23-.557.727.727 0 00-.105-.404.61.61 0 00-.298-.25 1.24 1.24 0 00-.49-.086h-.48a1.23 1.23 0 00-.663.173c-.186.115-.298.256-.337.422h-.912c.064-.397.272-.723.624-.98.352-.256.782-.384 1.287-.384h.48c.379 0 .702.061.971.183.27.115.474.282.615.5.147.217.22.477.22.778 0 .313-.101.573-.306.778-.205.198-.494.31-.865.336v.038c.455.032.784.154.99.365.204.212.307.516.307.913 0 .468-.173.839-.519 1.114-.346.276-.81.413-1.393.413h-.451zm5.478.028c-.557 0-.996-.14-1.316-.422-.32-.289-.48-.676-.48-1.163 0-.493.16-.88.48-1.162.32-.282.752-.423 1.297-.423h1.633v-.528c0-.327-.1-.577-.298-.75-.192-.179-.468-.269-.826-.269-.314 0-.577.068-.788.202a.718.718 0 00-.365.529h-.865c.058-.455.273-.817.644-1.086.372-.269.836-.403 1.393-.403.609 0 1.089.156 1.441.47.352.314.528.74.528 1.278v3.631h-.845v-1.008h-.144l.144-.145c0 .385-.15.689-.452.913-.294.224-.688.336-1.181.336zm.211-.682c.41 0 .746-.102 1.009-.307a.956.956 0 00.394-.788v-.75h-1.614c-.288 0-.516.08-.682.24-.167.161-.25.379-.25.654 0 .295.1.528.298.701.205.167.487.25.845.25zm7.717 1.931v-1.345h-3.756V73.79h.864v4.515h2.075v-4.516h.865v4.516h.72v2.113h-.768zm1.933-1.345V73.79h.826v2.882c0 .185-.006.38-.019.586-.006.205-.019.4-.038.586a6.233 6.233 0 01-.048.46l2.132-4.514h1.105v5.283h-.826v-2.882c0-.186.003-.38.01-.586.013-.205.029-.4.048-.586l.048-.47-2.133 4.524h-1.105zm5.69 0V73.79h.826v2.882c0 .185-.006.38-.019.586-.007.205-.02.4-.038.586-.013.179-.03.333-.049.46l2.133-4.514h1.105v5.283h-.826v-2.882c0-.186.003-.38.01-.586.012-.205.028-.4.047-.586l.048-.47-2.132 4.524h-1.105zm11.379 0V73.79h.826v2.882c0 .185-.006.38-.019.586-.006.205-.019.4-.038.586a6.233 6.233 0 01-.048.46l2.132-4.514h1.105v5.283h-.826v-2.882c0-.186.003-.38.01-.586.013-.205.029-.4.048-.586l.048-.47-2.133 4.524h-1.105zm12.187 1.73l.778-2.056-1.96-4.957h.961l1.229 3.266c.045.109.087.24.125.394.039.147.071.272.096.374l.096-.374a4.4 4.4 0 01.116-.394l1.152-3.266h.932l-2.603 7.012h-.922zm4.882-1.73V73.79h3.958v5.283h-.864v-4.496h-2.229v4.496h-.865zm5.671 1.73V73.79h.864v1.008h.173l-.173.202c0-.403.132-.72.394-.951.269-.237.621-.356 1.057-.356.531 0 .954.177 1.268.529.32.346.48.823.48 1.431V77.2c0 .403-.073.752-.221 1.047a1.568 1.568 0 01-.605.682c-.256.16-.563.24-.922.24-.429 0-.778-.118-1.047-.355-.269-.237-.404-.554-.404-.951l.173.201h-.192l.019 1.201v1.537h-.864zm2.027-2.383c.365 0 .65-.109.855-.327.211-.217.317-.531.317-.941V75.71c0-.41-.106-.724-.317-.942-.205-.217-.49-.326-.855-.326-.353 0-.634.112-.846.336-.211.224-.317.535-.317.932v1.44c0 .398.106.709.317.933.212.224.493.336.846.336zm5.199.75c-.557 0-.995-.142-1.316-.423-.32-.289-.48-.676-.48-1.163 0-.493.16-.88.48-1.162.321-.282.753-.423 1.297-.423h1.633v-.528c0-.327-.099-.577-.297-.75-.193-.179-.468-.269-.827-.269-.313 0-.576.068-.787.202a.716.716 0 00-.365.529h-.865c.058-.455.272-.817.644-1.086.371-.269.835-.403 1.393-.403.608 0 1.088.156 1.441.47.352.314.528.74.528 1.278v3.631h-.845v-1.008h-.145l.145-.145c0 .385-.151.689-.452.913-.295.224-.688.336-1.182.336zm.212-.683c.41 0 .746-.102 1.008-.307a.955.955 0 00.394-.788v-.75h-1.614c-.288 0-.515.08-.682.24-.166.161-.249.379-.249.654 0 .295.099.528.297.701.205.167.487.25.846.25zm3.96.586V73.79h2.287c.55 0 .976.124 1.277.374.301.244.452.586.452 1.028 0 .365-.125.66-.375.884-.25.218-.579.327-.989.327v-.077c.448 0 .807.112 1.076.336.275.224.413.525.413.903 0 .474-.16.845-.481 1.114-.32.263-.768.394-1.345.394h-2.315zm.846-.759h1.469c.308 0 .545-.067.711-.201a.679.679 0 00.26-.567c0-.25-.087-.442-.26-.577-.166-.134-.403-.201-.711-.201h-1.469v1.546zm0-2.296h1.441c.269 0 .48-.064.634-.192.16-.128.24-.307.24-.538 0-.23-.077-.41-.231-.538-.153-.134-.368-.201-.643-.201h-1.441v1.47zm4.181 3.123v-.808h.173c.295 0 .499-.115.615-.345.121-.23.185-.644.192-1.24l.058-2.959h3.583v5.284h-.865v-4.496h-1.863l-.048 2.21c-.013.557-.077 1.008-.193 1.354-.109.346-.281.6-.518.76-.231.16-.535.24-.913.24h-.221zm8.332.028c-.417 0-.782-.083-1.096-.25a1.809 1.809 0 01-.72-.7 2.198 2.198 0 01-.25-1.067V75.71c0-.41.083-.766.25-1.067a1.81 1.81 0 01.72-.7c.314-.167.679-.25 1.096-.25.416 0 .778.083 1.085.25.314.166.554.4.721.7.173.301.259.657.259 1.067v.932h-3.286v.509c0 .416.106.736.317.96.212.218.513.327.904.327.333 0 .602-.057.806-.173a.764.764 0 00.375-.538h.865a1.473 1.473 0 01-.654 1.057c-.371.256-.835.384-1.392.384zm1.22-3.103v-.355c0-.416-.106-.737-.317-.96-.205-.225-.506-.337-.903-.337-.391 0-.692.112-.904.336-.211.224-.317.545-.317.96v.28h2.508l-.067.076zm2.49 3.007V73.79h.865v2.2h2.229v-2.2h.864v5.283h-.864v-2.296h-2.229v2.296h-.865zm5.69 0V73.79h.826v2.882c0 .185-.006.38-.019.586-.007.205-.019.4-.039.586a5.37 5.37 0 01-.048.46l2.133-4.514h1.105v5.283h-.826v-2.882c0-.186.003-.38.009-.586.013-.205.029-.4.048-.586l.048-.47-2.132 4.524h-1.105zm5.363 0l1.354-2.036c-.403-.097-.717-.282-.941-.558-.218-.275-.327-.618-.327-1.028 0-.518.17-.925.509-1.22.346-.294.817-.441 1.413-.441h2.276v5.283h-.864v-1.97h-1.163l-1.248 1.97h-1.009zm2.008-2.738h1.412v-1.777h-1.412c-.321 0-.574.08-.759.24-.186.154-.279.372-.279.653 0 .276.093.494.279.654.185.153.438.23.759.23zM14.83 98.073V92.79h.865v2.18h.903l1.537-2.18h.99l-1.778 2.516 1.806 2.767h-1.008l-1.537-2.353h-.913v2.353h-.865zm4.998.068v-.808h.173c.295 0 .5-.115.615-.345.122-.23.186-.644.192-1.24l.058-2.959h3.583v5.284h-.865v-4.496h-1.863l-.048 2.21c-.013.557-.077 1.008-.192 1.354-.11.346-.282.6-.52.76-.23.16-.534.24-.912.24h-.22zm6.353-.068V92.79h.826v2.882c0 .185-.006.38-.02.586-.006.205-.018.4-.038.586a6.233 6.233 0 01-.048.46l2.133-4.514h1.105v5.283h-.826v-2.882c0-.186.003-.38.01-.586.012-.205.028-.4.047-.586l.048-.47-2.132 4.524H26.18zm7.668.096a2.3 2.3 0 01-1.095-.25 1.807 1.807 0 01-.72-.7 2.204 2.204 0 01-.25-1.067V94.71c0-.41.083-.766.25-1.067.173-.3.413-.534.72-.7a2.3 2.3 0 011.095-.25c.417 0 .779.083 1.086.25.314.166.554.4.72.7.173.301.26.657.26 1.067v.932h-3.286v.509c0 .416.106.736.317.96.212.218.513.327.903.327.334 0 .602-.057.807-.173a.764.764 0 00.375-.538h.865a1.472 1.472 0 01-.654 1.057c-.371.256-.835.384-1.393.384zm1.22-3.103v-.355c0-.416-.105-.737-.317-.96-.205-.225-.506-.337-.903-.337-.39 0-.691.112-.903.336-.211.224-.317.545-.317.96v.28h2.508l-.068.076zm2.491 3.007V92.79h.865v2.2h2.229v-2.2h.864v5.283h-.864v-2.296h-2.23v2.296h-.864zm7.236 0V93.55h-1.92v-.76h4.706v.76h-1.921v4.524h-.865zm6.142.096a2.46 2.46 0 01-1.115-.24 1.73 1.73 0 01-.73-.692c-.173-.307-.26-.669-.26-1.085V94.71c0-.423.087-.785.26-1.086a1.73 1.73 0 01.73-.691c.32-.16.692-.24 1.115-.24.608 0 1.098.163 1.47.49.37.326.566.771.585 1.335h-.864c-.02-.34-.135-.6-.346-.778-.205-.186-.487-.279-.845-.279-.378 0-.68.109-.903.327-.225.211-.337.515-.337.912v1.45c0 .398.112.705.337.923.224.218.525.327.903.327.358 0 .64-.093.845-.279.211-.186.327-.445.346-.778h.864c-.019.564-.214 1.009-.586 1.335-.371.327-.861.49-1.47.49zm3.72-.096V92.79h.864v2.18h.904l1.537-2.18h.99l-1.778 2.516 1.806 2.767h-1.009l-1.537-2.353h-.913v2.353h-.864zm5.66 0V92.79h.827v2.882c0 .185-.007.38-.02.586-.006.205-.019.4-.038.586a6.233 6.233 0 01-.048.46l2.133-4.514h1.105v5.283h-.827v-2.882c0-.186.004-.38.01-.586.013-.205.029-.4.048-.586l.048-.47-2.133 4.524H60.32zm5.517 0V92.79h1.172l.692 2.027c.07.205.135.41.192.614.058.199.1.353.125.462.026-.11.064-.263.115-.462.058-.205.119-.413.183-.624l.653-2.017h1.172v5.283h-.835v-.816c0-.288.003-.602.01-.942l.018-1.028.039-.98c.013-.313.022-.589.029-.826l-.942 3.007h-.913l-.95-2.988c.012.289.022.647.028 1.076.013.43.023.878.029 1.345.013.468.02.913.02 1.336v.816h-.837zm5.863 0V92.79h.826v2.882c0 .185-.006.38-.019.586-.006.205-.02.4-.038.586-.013.179-.03.333-.049.46l2.133-4.514h1.105v5.283h-.826v-2.882c0-.186.003-.38.01-.586.012-.205.028-.4.047-.586l.049-.47-2.133 4.524h-1.105zm10.765 1.345v-2.085h.432c.109-.108.22-.323.336-.643.122-.32.186-.727.192-1.22l.058-2.68h3.449v4.543h.672v2.085h-.768v-1.345H83.23v1.345h-.768zm1.344-2.085h2.258v-3.775h-1.768l-.038 1.931c-.006.506-.06.916-.163 1.23-.103.314-.199.519-.289.615zm6.478.836c-.557 0-.996-.14-1.316-.422-.32-.289-.48-.676-.48-1.163 0-.493.16-.88.48-1.162.32-.282.752-.423 1.297-.423h1.633v-.528c0-.327-.1-.577-.298-.75-.192-.179-.468-.269-.826-.269-.314 0-.577.068-.788.202a.718.718 0 00-.365.529h-.865c.058-.455.273-.817.644-1.086.371-.269.836-.403 1.393-.403.608 0 1.089.156 1.441.47.352.314.528.74.528 1.278v3.631h-.845v-1.008h-.144l.144-.145c0 .385-.15.689-.452.913-.294.224-.688.336-1.181.336zm.211-.682c.41 0 .746-.102 1.009-.307a.956.956 0 00.394-.788v-.75h-1.614c-.288 0-.516.08-.682.24-.167.161-.25.379-.25.654 0 .295.1.528.298.701.205.167.487.25.845.25zm3.96.586V92.79h.865v2.2h2.229v-2.2h.865v5.283h-.865v-2.296h-2.229v2.296h-.864zm5.69 0V92.79h.865v2.2h2.229v-2.2h.864v5.283h-.864v-2.296h-2.229v2.296h-.865zm5.411 0V92.79h.807v1.94h.433c.57 0 1.018.15 1.345.452.333.294.499.7.499 1.22 0 .518-.166.928-.499 1.23-.327.294-.775.441-1.345.441h-1.24zm.807-.691h.433c.339 0 .602-.087.787-.26.193-.173.289-.413.289-.72 0-.308-.096-.548-.289-.72-.185-.174-.448-.26-.787-.26h-.433v1.96zm2.902.691V92.79h.807v5.283h-.807zm2.087 0V92.79h1.172l.691 2.027c.071.205.135.41.193.614.057.199.099.353.124.462.026-.11.064-.263.116-.462.057-.205.118-.413.182-.624l.653-2.017h1.172v5.283h-.835v-.816c0-.288.003-.602.009-.942l.02-1.028c.012-.346.025-.672.038-.98.013-.313.022-.589.029-.826l-.942 3.007h-.912l-.951-2.988c.012.289.022.647.028 1.076.013.43.023.878.029 1.345.013.468.019.913.019 1.336v.816h-.835zm5.862 0V92.79h.826v2.882c0 .185-.006.38-.019.586-.006.205-.019.4-.038.586a6.233 6.233 0 01-.048.46l2.132-4.514h1.105v5.283h-.826v-2.882c0-.186.003-.38.01-.586.012-.205.028-.4.048-.586l.048-.47-2.133 4.524h-1.105zm6.372 1.537l.769-2.987h1.248l-1.248 2.987h-.769zm13.733-1.537v-1.921a4.207 4.207 0 01-.471.077 7.071 7.071 0 01-.653.029c-.653.006-1.162-.15-1.528-.471-.358-.327-.537-.782-.537-1.364V92.79h.864v1.633c0 .326.109.586.327.778.224.186.531.278.922.278.269 0 .496-.01.682-.028.192-.026.324-.048.394-.068V92.79h.865v5.283h-.865zm4.201 0V93.55h-1.922v-.76h4.708v.76h-1.922v4.524h-.864zm6.122.077c-.423 0-.788-.08-1.096-.24a1.745 1.745 0 01-.72-.692c-.167-.307-.25-.669-.25-1.085V94.73c0-.423.083-.785.25-1.086.173-.3.413-.531.72-.691.308-.16.673-.24 1.096-.24.422 0 .787.08 1.095.24.307.16.544.39.711.691.173.301.259.66.259 1.076v1.413c0 .416-.086.778-.259 1.085a1.688 1.688 0 01-.711.692c-.308.16-.673.24-1.095.24zm0-.768c.377 0 .672-.106.883-.318.212-.21.317-.521.317-.931V94.73c0-.41-.105-.72-.317-.932-.211-.211-.506-.317-.883-.317-.372 0-.667.106-.884.317-.212.212-.317.522-.317.932v1.403c0 .41.105.72.317.931.217.212.512.318.884.318zM16.78 118.15c-.422 0-.787-.08-1.095-.24a1.744 1.744 0 01-.72-.692c-.167-.307-.25-.669-.25-1.085v-1.403c0-.423.083-.784.25-1.085.173-.301.413-.532.72-.692.308-.16.673-.24 1.095-.24.423 0 .788.08 1.096.24.307.16.544.391.71.692.173.301.26.659.26 1.075v1.413c0 .416-.087.778-.26 1.085a1.683 1.683 0 01-.71.692c-.308.16-.673.24-1.096.24zm0-.768c.378 0 .673-.106.884-.317.212-.212.317-.522.317-.932v-1.403c0-.41-.105-.72-.317-.932-.211-.211-.506-.317-.884-.317-.371 0-.666.106-.883.317-.212.212-.317.522-.317.932v1.403c0 .41.105.72.317.932.217.211.512.317.883.317zm5.69.787c-.621 0-1.114-.182-1.48-.547-.358-.372-.537-.878-.537-1.518v-2.402c0-.845.211-1.495.634-1.95.422-.461 1.028-.692 1.815-.692h1.345v.865h-1.345c-.518 0-.912.154-1.181.461-.27.301-.404.74-.404 1.316v.625h.135l-.135.192c.007-.378.135-.673.385-.884.25-.211.589-.317 1.018-.317.557 0 .99.179 1.297.538.314.359.47.852.47 1.479v.769c0 .429-.08.797-.24 1.105a1.69 1.69 0 01-.691.711c-.301.166-.663.249-1.086.249zm0-.768c.372 0 .657-.112.855-.336.199-.225.298-.545.298-.961v-.769c0-.416-.1-.736-.298-.96-.198-.225-.483-.337-.855-.337-.371 0-.656.112-.855.337-.198.217-.298.538-.298.96v.769c0 .416.1.736.298.961.199.224.484.336.855.336zm3.048.739v-.806h.173c.294 0 .5-.116.615-.346.121-.231.185-.644.192-1.24l.057-2.958h3.584v5.283h-.865v-4.496H27.41l-.048 2.21c-.012.557-.076 1.009-.192 1.354-.109.346-.282.599-.519.759-.23.16-.534.24-.912.24h-.221zm8.331.029c-.416 0-.78-.083-1.095-.249a1.813 1.813 0 01-.72-.702 2.203 2.203 0 01-.25-1.066v-1.441c0-.41.083-.765.25-1.066.173-.301.413-.535.72-.702.314-.166.68-.25 1.095-.25.417 0 .779.084 1.086.25.314.167.554.401.72.702.173.301.26.656.26 1.066v.932h-3.286v.509c0 .416.106.736.317.961.212.217.513.326.903.326.334 0 .602-.057.807-.173a.762.762 0 00.375-.538h.865a1.473 1.473 0 01-.654 1.057c-.371.256-.835.384-1.393.384zm1.22-3.103v-.355c0-.416-.105-.737-.317-.961-.205-.224-.506-.336-.903-.336-.39 0-.691.112-.903.336-.211.224-.317.545-.317.961v.278h2.508l-.068.077zm2.837 3.007v-5.283H41.7v.787h-2.93v4.496h-.865zm8.38 0v-1.921c-.103.026-.26.051-.471.077a7.082 7.082 0 01-.654.029c-.653.006-1.162-.151-1.527-.471-.359-.327-.538-.782-.538-1.364v-1.633h.865v1.633c0 .326.108.586.326.778.224.186.532.278.922.278.27 0 .497-.009.683-.028a3.38 3.38 0 00.393-.068v-2.593h.865v5.283h-.864zm2.653 0v-5.283h.827v2.882c0 .185-.007.381-.02.586-.006.205-.019.4-.038.586a6.11 6.11 0 01-.048.461l2.133-4.515h1.104v5.283h-.826v-2.882c0-.186.003-.381.01-.586.013-.205.029-.4.048-.586l.048-.471-2.133 4.525H48.94zm5.027.067v-.806h.173c.295 0 .5-.116.615-.346.122-.231.186-.644.192-1.24l.058-2.958h3.583v5.283h-.865v-4.496H55.86l-.048 2.21c-.013.557-.077 1.009-.193 1.354-.108.346-.281.599-.518.759-.23.16-.535.24-.913.24h-.22zm8.332.01c-.423 0-.788-.08-1.096-.24a1.744 1.744 0 01-.72-.692c-.166-.307-.25-.669-.25-1.085v-1.403c0-.423.084-.784.25-1.085.173-.301.413-.532.72-.692.308-.16.673-.24 1.096-.24.422 0 .788.08 1.095.24.307.16.544.391.71.692.174.301.26.659.26 1.075v1.413c0 .416-.086.778-.26 1.085a1.684 1.684 0 01-.71.692c-.307.16-.673.24-1.095.24zm0-.768c.378 0 .672-.106.883-.317.212-.212.318-.522.318-.932v-1.403c0-.41-.106-.72-.318-.932-.21-.211-.505-.317-.883-.317-.372 0-.666.106-.884.317-.212.212-.317.522-.317.932v1.403c0 .41.105.72.317.932.218.211.512.317.884.317zm8.785 2.036v-2.084h.433c.108-.109.22-.324.336-.644.121-.32.185-.727.192-1.22l.058-2.68h3.448v4.544h.673v2.084h-.769v-1.345h-3.602v1.345h-.769zm1.345-2.084h2.258v-3.776h-1.768l-.038 1.931c-.007.506-.061.916-.164 1.23-.102.314-.198.518-.288.615zm6.478.835c-.558 0-.996-.141-1.317-.422-.32-.289-.48-.676-.48-1.163 0-.493.16-.88.48-1.162.32-.282.753-.423 1.297-.423h1.633v-.528c0-.327-.099-.577-.297-.75-.192-.179-.468-.269-.826-.269-.314 0-.577.068-.788.202a.717.717 0 00-.365.529h-.865c.058-.455.272-.817.644-1.086.371-.269.835-.404 1.393-.404.608 0 1.088.157 1.44.471.353.314.53.74.53 1.278v3.631h-.846v-1.008h-.144l.144-.145c0 .385-.15.689-.452.913-.294.224-.688.336-1.181.336zm.21-.682c.41 0 .747-.102 1.01-.307a.957.957 0 00.393-.788v-.749h-1.614c-.288 0-.515.08-.681.24-.167.16-.25.378-.25.653 0 .295.099.529.297.701.205.167.487.25.846.25zm3.299.653v-.806h.172c.295 0 .5-.116.615-.346.122-.231.186-.644.192-1.24l.058-2.958h3.583v5.283h-.864v-4.496h-1.864l-.048 2.21c-.013.557-.077 1.009-.192 1.354-.11.346-.282.599-.519.759-.23.16-.535.24-.913.24h-.22zm6.39-.067v-5.283h.865v1.94h1.556c.596 0 1.064.151 1.403.452.346.294.519.701.519 1.22 0 .512-.173.919-.52 1.22-.345.301-.813.451-1.402.451h-2.42zm.865-.788h1.556c.333 0 .586-.073.76-.22.179-.154.268-.375.268-.663 0-.289-.09-.506-.269-.654-.173-.153-.426-.23-.759-.23H89.67v1.767zm4.787.788v-5.283h.864v2.199h2.229v-2.199h.865v5.283h-.865v-2.296h-2.229v2.296h-.864zm7.668.096a2.31 2.31 0 01-1.095-.249 1.814 1.814 0 01-.72-.702 2.197 2.197 0 01-.25-1.066v-1.441c0-.41.083-.765.25-1.066.173-.301.413-.535.72-.702a2.31 2.31 0 011.095-.25c.417 0 .778.084 1.086.25.314.167.554.401.72.702.173.301.26.656.26 1.066v.932h-3.286v.509c0 .416.106.736.317.961.212.217.513.326.903.326.333 0 .602-.057.807-.173a.763.763 0 00.375-.538h.865a1.474 1.474 0 01-.654 1.057c-.371.256-.836.384-1.393.384zm1.22-3.103v-.355c0-.416-.105-.737-.317-.961-.205-.224-.506-.336-.903-.336-.39 0-.691.112-.903.336-.211.224-.317.545-.317.961v.278h2.508l-.068.077zm2.491 3.007v-5.283h.826v2.882c0 .185-.006.381-.019.586-.006.205-.019.4-.039.586a5.376 5.376 0 01-.048.461l2.133-4.515h1.105v5.283h-.826v-2.882c0-.186.003-.381.009-.586.013-.205.029-.4.048-.586l.048-.471-2.132 4.525h-1.105zm2.017-6.148c-.461 0-.832-.128-1.114-.384-.282-.257-.423-.593-.423-1.009h.682c0 .25.077.451.231.605.154.154.359.231.615.231.262 0 .47-.077.624-.231a.8.8 0 00.24-.605h.682c0 .416-.14.752-.422 1.009-.282.256-.654.384-1.115.384zm3.404 6.148l-.02-5.283h.807v4.63h1.124v-4.63h.692v4.63h1.114v-4.63h.798v5.283h-4.515zm6.765 1.729l.778-2.055-1.959-4.957h.96l1.23 3.266c.045.109.086.24.125.394l.096.374.096-.374c.038-.154.077-.285.115-.394l1.153-3.266h.932l-2.604 7.012h-.922zm7.688-1.633c-.442 0-.797-.15-1.066-.451-.269-.301-.404-.695-.404-1.182v-.797h-.845v2.334h-.798v-5.283h.798v2.257h.845v-.72c0-.494.132-.887.394-1.182.269-.301.628-.452 1.076-.452.474 0 .855.151 1.143.452.288.295.433.688.433 1.182v2.209c0 .487-.145.881-.433 1.182-.288.301-.669.451-1.143.451zm0-.672c.243 0 .432-.083.567-.25.141-.173.211-.41.211-.711v-2.209c0-.301-.07-.535-.211-.702-.135-.173-.324-.259-.567-.259a.665.665 0 00-.557.259c-.135.167-.202.401-.202.702v2.209c0 .301.067.538.202.711.134.167.32.25.557.25zm8.555 2.305v-7.012h.865v1.008h.173l-.173.202c0-.403.131-.721.393-.951.269-.237.622-.356 1.057-.356.532 0 .955.177 1.268.529.321.346.481.823.481 1.431v1.547c0 .403-.074.752-.221 1.047a1.568 1.568 0 01-.606.682c-.256.16-.563.24-.922.24-.429 0-.778-.118-1.047-.355-.269-.237-.403-.554-.403-.951l.173.202h-.193l.02 1.2v1.537h-.865zm2.027-2.382c.365 0 .65-.109.855-.327.211-.217.317-.531.317-.941v-1.441c0-.41-.106-.724-.317-.942-.205-.217-.49-.326-.855-.326-.352 0-.634.112-.845.336-.212.224-.317.535-.317.932v1.441c0 .397.105.708.317.932.211.224.493.336.845.336zm5.2.749c-.557 0-.996-.141-1.316-.422-.321-.289-.481-.676-.481-1.163 0-.493.16-.88.481-1.162.32-.282.752-.423 1.297-.423h1.633v-.528c0-.327-.1-.577-.298-.75-.192-.179-.468-.269-.826-.269-.314 0-.577.068-.788.202a.718.718 0 00-.365.529h-.865c.058-.455.272-.817.644-1.086.371-.269.836-.404 1.393-.404.608 0 1.089.157 1.441.471.352.314.528.74.528 1.278v3.631h-.845v-1.008h-.144l.144-.145c0 .385-.151.689-.452.913-.294.224-.688.336-1.181.336zm.211-.682c.41 0 .746-.102 1.009-.307a.959.959 0 00.394-.788v-.749h-1.614c-.288 0-.516.08-.682.24-.167.16-.25.378-.25.653 0 .295.099.529.298.701.205.167.486.25.845.25zm5.94.682c-.622 0-1.115-.182-1.48-.547-.359-.372-.538-.878-.538-1.518v-2.402c0-.845.211-1.495.634-1.95.423-.461 1.028-.692 1.816-.692h1.345v.865h-1.345c-.519 0-.913.154-1.182.461-.269.301-.403.74-.403 1.316v.625h.134l-.134.192c.006-.378.134-.673.384-.884.25-.211.589-.317 1.018-.317.557 0 .99.179 1.297.538.314.359.471.852.471 1.479v.769c0 .429-.08.797-.24 1.105-.16.307-.391.544-.692.711-.301.166-.663.249-1.085.249zm0-.768c.371 0 .656-.112.855-.336.198-.225.297-.545.297-.961v-.769c0-.416-.099-.736-.297-.96-.199-.225-.484-.337-.855-.337-.372 0-.657.112-.855.337-.199.217-.298.538-.298.96v.769c0 .416.099.736.298.961.198.224.483.336.855.336zm5.689.749c-.423 0-.788-.08-1.095-.24a1.748 1.748 0 01-.721-.692c-.166-.307-.249-.669-.249-1.085v-1.403c0-.423.083-.784.249-1.085.173-.301.414-.532.721-.692.307-.16.672-.24 1.095-.24.423 0 .788.08 1.095.24.308.16.545.391.711.692.173.301.26.659.26 1.075v1.413c0 .416-.087.778-.26 1.085a1.677 1.677 0 01-.711.692c-.307.16-.672.24-1.095.24zm0-.768c.378 0 .673-.106.884-.317.211-.212.317-.522.317-.932v-1.403c0-.41-.106-.72-.317-.932-.211-.211-.506-.317-.884-.317-.371 0-.666.106-.884.317-.211.212-.317.522-.317.932v1.403c0 .41.106.72.317.932.218.211.513.317.884.317zm5.258.691v-4.525h-1.922v-.758h4.707v.758h-1.921v4.525h-.864zm4.949 1.729l.779-2.055-1.96-4.957h.961l1.229 3.266c.045.109.087.24.125.394.038.147.071.272.096.374l.096-.374c.039-.154.077-.285.115-.394l1.153-3.266h.932l-2.603 7.012h-.923zm6.862-1.633c-.243 0-.439-.07-.586-.211-.141-.141-.211-.33-.211-.567 0-.25.07-.448.211-.595.147-.148.343-.221.586-.221.244 0 .436.073.577.221.147.147.221.345.221.595 0 .237-.074.426-.221.567-.141.141-.333.211-.577.211zM17.882 17.096c-.448 0-.839-.083-1.172-.25a1.872 1.872 0 01-.759-.72c-.173-.314-.26-.682-.26-1.105v-3.055c0-.423.087-.788.26-1.095.18-.314.432-.554.759-.72.333-.174.724-.26 1.172-.26.455 0 .845.086 1.172.26.327.166.576.406.75.72.179.307.268.67.268 1.085v3.065c0 .423-.09.791-.269 1.105a1.808 1.808 0 01-.749.72c-.327.167-.717.25-1.172.25zm0-1.057c.327 0 .573-.086.74-.26.166-.178.25-.431.25-.758v-3.055c0-.333-.084-.586-.25-.759-.167-.173-.413-.26-.74-.26s-.573.087-.74.26c-.166.173-.25.426-.25.76v3.054c0 .327.084.58.25.759.173.173.42.26.74.26zm3.557.961v-5.284h4.265V17h-1.2v-4.17H22.64V17h-1.201zm7.217 0v-4.179H26.85v-1.105h4.823v1.105h-1.806V17h-1.21zm4.162 0v-5.284h1.086v2.604c0 .166-.01.365-.029.595a13.805 13.805 0 01-.135 1.23l1.864-4.429h1.48V17h-1.086v-2.603c0-.173.007-.366.02-.577.018-.211.038-.42.057-.624.026-.205.051-.378.077-.519L34.298 17h-1.48zm5.479 0v-5.284h1.44l.654 1.989c.07.218.128.423.173.615.051.192.083.336.096.432l.086-.432c.045-.192.103-.397.173-.615l.625-1.989h1.44V17H41.87v-.903a45.428 45.428 0 01.038-1.71c.014-.314.026-.612.04-.893a98.7 98.7 0 00.047-.76l-.797 2.739h-1.095l-.827-2.729c.02.27.039.602.058 1a36.781 36.781 0 01.077 2.354V17h-1.114zm5.9 0v-5.284h1.086v2.604c0 .166-.01.365-.029.595-.012.225-.032.445-.057.663-.026.218-.052.407-.077.567l1.864-4.429h1.479V17h-1.086v-2.603c0-.173.007-.366.02-.577l.057-.624c.026-.205.051-.378.077-.519L45.677 17h-1.48zm7.564.067c-.577 0-1.054-.131-1.432-.394a1.62 1.62 0 01-.682-1.095h1.2a.646.646 0 00.308.375c.167.09.369.134.606.134h.509c.25 0 .445-.057.586-.173a.592.592 0 00.22-.48.586.586 0 00-.21-.48c-.142-.116-.34-.173-.596-.173h-1.21v-.96h1.162c.237 0 .42-.055.547-.164a.55.55 0 00.192-.442.525.525 0 00-.336-.519 1.062 1.062 0 00-.403-.067h-.452a1.1 1.1 0 00-.576.144.613.613 0 00-.288.384h-1.201c.077-.454.3-.82.672-1.095.372-.275.836-.413 1.393-.413h.452c.403 0 .749.06 1.037.183.295.115.522.281.682.5.16.21.24.467.24.768 0 .333-.121.605-.365.816-.243.212-.566.324-.97.336v-.038c.461.013.82.134 1.076.365.256.224.384.535.384.932 0 .474-.185.852-.557 1.134-.365.281-.858.422-1.48.422h-.508zm5.363.03c-.545 0-.974-.145-1.288-.433-.313-.288-.47-.676-.47-1.163 0-.518.172-.919.518-1.2.346-.282.836-.423 1.47-.423h1.316v-.452c0-.256-.083-.454-.25-.595-.166-.148-.393-.221-.682-.221-.262 0-.48.057-.653.173a.675.675 0 00-.307.47h-1.172c.057-.5.282-.896.672-1.19.39-.296.89-.443 1.499-.443.647 0 1.156.164 1.527.49.378.32.567.756.567 1.307V17H58.71v-.922h-.192l.192-.26c0 .391-.144.702-.433.932-.288.23-.672.346-1.152.346zm.393-.904c.34 0 .615-.086.827-.26a.82.82 0 00.326-.672v-.643h-1.297c-.243 0-.438.07-.586.21a.736.736 0 00-.22.558c0 .25.083.448.25.596.172.14.406.211.7.211zm7.4 2.152V17h-3.65v-5.284h1.2v4.18h1.634v-4.18h1.2v4.18h.72v2.449h-1.104zM66.957 17v-5.284h1.085v2.604c0 .166-.01.365-.029.595a13.998 13.998 0 01-.135 1.23l1.864-4.429h1.48V17h-1.086v-2.603c0-.173.007-.366.02-.577.018-.211.038-.42.057-.624.026-.205.051-.378.077-.519L68.436 17h-1.48zm5.458 0l1.24-1.931a1.648 1.648 0 01-.855-.586 1.61 1.61 0 01-.308-.99c0-.557.186-.992.557-1.306.372-.314.884-.47 1.537-.47h2.325V17H75.72v-1.796h-.855L73.789 17h-1.374zm2.22-2.757h1.085v-1.537h-1.085c-.295 0-.526.067-.692.202-.167.134-.25.326-.25.576 0 .237.083.423.25.557.166.135.397.202.692.202zm9.38 4.486v-7.013h1.173v1.009h.269l-.27.279c0-.43.129-.766.385-1.01.256-.249.602-.374 1.037-.374.532 0 .958.183 1.278.548.32.365.48.855.48 1.47v1.431c0 .41-.073.769-.22 1.076a1.618 1.618 0 01-.606.701c-.262.167-.573.25-.932.25-.435 0-.781-.122-1.037-.365-.256-.25-.384-.59-.384-1.018l.269.278h-.279l.038 1.259v1.48h-1.2zm2.172-2.67c.307 0 .547-.09.72-.27.173-.179.26-.435.26-.768v-1.326c0-.333-.087-.589-.26-.768-.173-.18-.413-.27-.72-.27-.301 0-.538.094-.711.28-.173.179-.26.432-.26.758v1.326c0 .327.087.583.26.769.173.179.41.268.71.268zm5.075 1.037c-.545 0-.974-.144-1.288-.432-.314-.288-.47-.676-.47-1.163 0-.518.172-.919.518-1.2.346-.282.836-.423 1.47-.423h1.316v-.452c0-.256-.083-.454-.25-.595-.166-.148-.393-.221-.682-.221-.262 0-.48.057-.653.173a.675.675 0 00-.307.47h-1.172c.057-.5.281-.896.672-1.19.39-.296.89-.443 1.499-.443.647 0 1.156.164 1.527.49.378.32.567.756.567 1.307V17h-1.162v-.922h-.192l.192-.26c0 .391-.144.702-.433.932-.288.23-.672.346-1.153.346zm.393-.903c.34 0 .615-.086.827-.26a.82.82 0 00.326-.672v-.643h-1.297c-.243 0-.438.07-.586.21a.736.736 0 00-.22.558c0 .25.083.448.25.596.172.14.406.211.7.211zm5.882.903c-.672-.006-1.207-.195-1.604-.567-.39-.371-.586-.88-.586-1.527v-2.373c0-.845.227-1.495.682-1.95.455-.461 1.102-.692 1.94-.692h1.49v1.172h-1.49c-.46 0-.813.125-1.056.375-.237.25-.356.615-.356 1.095v.653h.135l-.125.154c0-.365.122-.653.365-.865.243-.211.586-.317 1.028-.317.557 0 .99.183 1.297.548.314.359.47.858.47 1.498v.702c0 .429-.09.804-.269 1.124a1.852 1.852 0 01-.758.73c-.32.166-.708.246-1.163.24zm0-1.047c.32 0 .564-.09.73-.27.167-.185.25-.444.25-.777V14.3c0-.339-.083-.598-.25-.778-.166-.179-.41-.269-.73-.269-.314 0-.557.09-.73.27-.166.172-.25.432-.25.777v.702c0 .333.084.592.25.778.173.18.416.269.73.269zm5.69 1.038c-.448 0-.839-.084-1.172-.25a1.939 1.939 0 01-.769-.72 2.2 2.2 0 01-.269-1.106v-1.306c0-.423.09-.788.269-1.095.186-.314.442-.554.769-.72.333-.174.724-.26 1.172-.26.455 0 .845.086 1.172.26a1.8 1.8 0 01.759.72c.186.307.278.669.278 1.085v1.316c0 .423-.092.791-.278 1.105a1.88 1.88 0 01-.759.72c-.327.167-.717.25-1.172.25zm0-1.048c.32 0 .567-.086.74-.26.179-.178.269-.435.269-.768v-1.306c0-.34-.09-.596-.269-.769-.173-.173-.42-.259-.74-.259-.314 0-.561.086-.74.26-.179.172-.269.428-.269.768v1.306c0 .333.09.59.269.769.179.173.426.26.74.26zm5.084.961v-4.179h-1.806v-1.105h4.823v1.105h-1.806V17h-1.211zm3.893 0v-5.284h1.038v1.787h.355c.57 0 1.022.16 1.355.48.333.32.5.75.5 1.288 0 .525-.17.944-.51 1.258-.333.314-.781.471-1.345.471h-1.393zm1.038-.932h.355c.276 0 .487-.07.634-.211.154-.141.231-.336.231-.586 0-.263-.077-.468-.231-.615-.147-.147-.358-.221-.634-.221h-.355v1.633zm2.728.932v-5.284h1.038V17h-1.038zm10.035.096c-.449 0-.843-.083-1.182-.25a1.925 1.925 0 01-.778-.72c-.186-.314-.279-.682-.279-1.105v-1.326c0-.429.093-.797.279-1.104a1.86 1.86 0 01.778-.711c.339-.173.733-.26 1.182-.26.666 0 1.197.173 1.594.519.397.34.606.804.625 1.393h-1.201c-.019-.275-.118-.487-.298-.634-.173-.154-.413-.23-.72-.23-.321 0-.574.089-.759.268-.186.173-.279.423-.279.75v1.335c0 .327.093.58.279.759.185.18.438.269.759.269.307 0 .547-.074.72-.221.18-.154.279-.368.298-.644h1.201c-.019.59-.228 1.057-.625 1.403-.397.34-.928.51-1.594.51zm11.36 0c-.673-.006-1.207-.195-1.605-.567-.39-.371-.586-.88-.586-1.527v-2.373c0-.845.228-1.495.683-1.95.454-.461 1.101-.692 1.94-.692h1.489v1.172h-1.489c-.461 0-.813.125-1.057.375-.237.25-.355.615-.355 1.095v.653h.134l-.125.154c0-.365.122-.653.366-.865.243-.211.586-.317 1.027-.317.558 0 .99.183 1.297.548.314.359.471.858.471 1.498v.702c0 .429-.09.804-.269 1.124a1.85 1.85 0 01-.759.73c-.32.166-.708.246-1.162.24zm0-1.047c.32 0 .563-.09.73-.27.166-.185.25-.444.25-.777V14.3c0-.339-.084-.598-.25-.778-.167-.179-.41-.269-.73-.269-.314 0-.557.09-.73.27-.167.172-.25.432-.25.777v.702c0 .333.083.592.25.778.173.18.416.269.73.269zm5.103 1.047c-.544 0-.973-.144-1.287-.432-.314-.288-.471-.676-.471-1.163 0-.518.173-.919.519-1.2.346-.282.836-.423 1.47-.423h1.316v-.452c0-.256-.083-.454-.25-.595-.166-.148-.394-.221-.682-.221-.262 0-.48.057-.653.173a.674.674 0 00-.307.47h-1.172c.057-.5.281-.896.672-1.19.391-.296.89-.443 1.499-.443.647 0 1.156.164 1.527.49.378.32.567.756.567 1.307V17h-1.162v-.922h-.193l.193-.26c0 .391-.145.702-.433.932-.288.23-.672.346-1.153.346zm.394-.903c.34 0 .615-.086.826-.26a.82.82 0 00.327-.672v-.643h-1.297c-.243 0-.439.07-.586.21a.737.737 0 00-.221.558c0 .25.083.448.25.596.173.14.407.211.701.211zm5.623.874c-.577 0-1.054-.131-1.432-.394a1.62 1.62 0 01-.682-1.095h1.201a.646.646 0 00.307.375c.167.09.369.134.606.134h.509c.25 0 .445-.057.586-.173a.593.593 0 00.221-.48.586.586 0 00-.212-.48c-.14-.116-.339-.173-.595-.173h-1.211v-.96h1.163c.237 0 .419-.055.547-.164a.551.551 0 00.193-.442.526.526 0 00-.337-.519 1.06 1.06 0 00-.403-.067h-.452a1.1 1.1 0 00-.576.144.61.61 0 00-.288.384h-1.201c.077-.454.301-.82.672-1.095.372-.275.836-.413 1.393-.413h.452c.403 0 .749.06 1.037.183.295.115.522.281.682.5.161.21.241.467.241.768 0 .333-.122.605-.365.816-.244.212-.567.324-.971.336v-.038c.461.013.82.134 1.076.365.256.224.384.535.384.932 0 .474-.185.852-.557 1.134-.365.281-.858.422-1.479.422h-.509zm5.949.02c-.449 0-.839-.084-1.172-.25a1.939 1.939 0 01-.769-.72 2.2 2.2 0 01-.269-1.106v-1.306c0-.423.09-.788.269-1.095.186-.314.442-.554.769-.72.333-.174.723-.26 1.172-.26.454 0 .845.086 1.172.26a1.8 1.8 0 01.759.72c.185.307.278.669.278 1.085v1.316c0 .423-.093.791-.278 1.105a1.88 1.88 0 01-.759.72c-.327.167-.718.25-1.172.25zm0-1.048c.32 0 .567-.086.739-.26.18-.178.269-.435.269-.768v-1.306c0-.34-.089-.596-.269-.769-.172-.173-.419-.259-.739-.259-.314 0-.561.086-.74.26-.179.172-.269.428-.269.768v1.306c0 .333.09.59.269.769.179.173.426.26.74.26zm3.557.961v-5.284h1.085v2.604c0 .166-.009.365-.029.595-.012.225-.032.445-.057.663-.026.218-.051.407-.077.567l1.864-4.429h1.479V17h-1.085v-2.603c0-.173.006-.366.019-.577l.057-.624c.026-.205.052-.378.077-.519L159.47 17h-1.479zm2.171-6.12c-.5 0-.906-.13-1.22-.393-.308-.263-.461-.606-.461-1.028h.931c0 .211.068.38.202.509a.784.784 0 00.548.192c.224 0 .403-.064.538-.192a.654.654 0 00.211-.51h.932c0 .423-.154.766-.461 1.029-.308.262-.714.393-1.22.393zM15.778 36v-5.284h1.201v2.075h.788l1.287-2.075h1.345l-1.595 2.556L20.428 36h-1.374l-1.287-2.19h-.788V36h-1.2zm5.133.067v-1.095h.24a.54.54 0 00.49-.26c.115-.179.176-.46.182-.845l.058-3.15h3.823V36h-1.2v-4.17h-1.442l-.038 2.105c-.013.46-.09.851-.23 1.172a1.604 1.604 0 01-.606.72c-.262.16-.582.24-.96.24h-.317zM27.129 36v-5.284h1.085v2.604c0 .166-.01.365-.029.595-.012.224-.032.445-.057.663-.026.218-.052.407-.077.567l1.864-4.429h1.479V36h-1.085v-2.603c0-.173.006-.365.019-.577l.057-.624c.026-.205.052-.378.077-.519L28.608 36h-1.48zm7.832.096c-.449 0-.84-.086-1.172-.26a1.923 1.923 0 01-.779-.72 2.17 2.17 0 01-.269-1.095v-1.326c0-.416.09-.778.27-1.085.185-.314.444-.558.778-.73.333-.173.723-.26 1.172-.26.442 0 .826.087 1.152.26.333.172.59.416.769.73.186.307.279.669.279 1.085v.951h-3.257v.375c0 .371.09.653.269.845.18.186.445.279.797.279.27 0 .487-.045.654-.135a.642.642 0 00.316-.413h1.182c-.09.455-.333.82-.73 1.096-.39.269-.868.403-1.431.403zm1.037-3.122v-.288c0-.365-.086-.644-.26-.836-.172-.199-.432-.298-.777-.298-.346 0-.609.1-.788.298-.18.198-.27.48-.27.845v.202l2.182-.02-.087.097zM38.508 36v-5.284h1.2v2.047h1.864v-2.047h1.201V36h-1.2v-2.123h-1.864V36h-1.201zm7.217 0v-4.179H43.92v-1.105h4.823v1.105h-1.806V36h-1.21zm6.295.087c-.448 0-.839-.084-1.172-.25a1.938 1.938 0 01-.769-.72 2.2 2.2 0 01-.269-1.106v-1.306c0-.423.09-.788.27-1.095a1.84 1.84 0 01.768-.72c.333-.174.724-.26 1.172-.26.455 0 .845.086 1.172.26.327.166.58.406.759.72.186.307.279.669.279 1.085v1.316c0 .423-.093.791-.28 1.105a1.848 1.848 0 01-.758.72c-.327.167-.717.25-1.172.25zm0-1.048c.32 0 .567-.086.74-.26.179-.178.269-.435.269-.768v-1.306c0-.34-.09-.596-.27-.769-.172-.173-.419-.259-.739-.259-.314 0-.56.086-.74.26-.18.172-.269.428-.269.768v1.306c0 .333.09.59.27.769.179.173.425.26.739.26zm3.547.961v-5.284h2.344c.609 0 1.086.128 1.432.385.352.25.528.595.528 1.037 0 .359-.138.647-.413.865-.269.217-.628.326-1.076.326v-.086c.487 0 .878.115 1.172.346.295.224.442.525.442.903 0 .467-.18.836-.538 1.105-.352.268-.839.403-1.46.403h-2.43zm1.182-.913h1.21c.27 0 .48-.06.634-.182a.593.593 0 00.231-.49.613.613 0 00-.23-.51c-.154-.121-.366-.182-.635-.182h-1.21v1.364zm0-2.17h1.172c.237 0 .426-.058.567-.174a.576.576 0 00.211-.47.576.576 0 00-.211-.471c-.135-.122-.324-.183-.567-.183h-1.172v1.297zm6.65-.683c-.269 0-.486-.074-.653-.22a.777.777 0 01-.24-.587c0-.243.08-.439.24-.586.166-.147.384-.22.653-.22.27 0 .484.073.644.22.166.147.25.343.25.586a.763.763 0 01-.25.586c-.16.148-.375.221-.644.221zm0 3.862c-.269 0-.486-.074-.653-.22a.758.758 0 01-.24-.587c0-.243.08-.439.24-.586.166-.147.384-.22.653-.22.27 0 .484.073.644.22.166.147.25.343.25.586a.744.744 0 01-.25.586c-.16.147-.375.221-.644.221z" fill="#000"/><defs><filter id="filter0_d_2004_54" x=".157" y="0" width="179.685" height="192.685" filterUnits="userSpaceOnUse" color-interpolation-filters="sRGB"><feFlood flood-opacity="0" result="BackgroundImageFix"/><feColorMatrix in="SourceAlpha" values="0 0 0 0 0 0 0 0 0 0 0 0 0 0 0 0 0 0 127 0" result="hardAlpha"/><feOffset dy="3.843"/><feGaussianBlur stdDeviation="1.921"/><feComposite in2="hardAlpha" operator="out"/><feColorMatrix values="0 0 0 0 0 0 0 0 0 0 0 0 0 0 0 0 0 0 0.25 0"/><feBlend in2="BackgroundImageFix" result="effect1_dropShadow_2004_54"/><feBlend in="SourceGraphic" in2="effect1_dropShadow_2004_54" result="shape"/></filter></defs></svg>