<svg width="153" height="173" fill="none" xmlns="http://www.w3.org/2000/svg"><rect x=".421" y=".421" width="152.158" height="172.158" rx="19.579" fill="url(#paint0_linear_394_891)" fill-opacity=".53" stroke="url(#paint1_linear_394_891)" stroke-width=".842"/><mask id="a" style="mask-type:alpha" maskUnits="userSpaceOnUse" x="0" y="0" width="153" height="172"><rect x=".421" y=".421" width="152.158" height="171.158" rx="19.579" fill="url(#paint2_linear_394_891)" fill-opacity=".53" stroke="url(#paint3_linear_394_891)" stroke-width=".842"/></mask><g filter="url(#filter0_f_394_891)" mask="url(#a)"><path d="M10 199.914c-5.136 0-9.511-1.398-13.125-4.193-3.614-2.818-6.375-6.898-8.284-12.239-1.91-5.363-2.864-11.841-2.864-19.432 0-7.545.955-13.988 2.864-19.329 1.932-5.364 4.704-9.455 8.318-12.273 3.636-2.841 8-4.261 13.091-4.261 5.09 0 9.443 1.42 13.057 4.261 3.636 2.818 6.409 6.909 8.318 12.273 1.932 5.341 2.898 11.784 2.898 19.329 0 7.591-.955 14.069-2.864 19.432-1.909 5.341-4.67 9.421-8.284 12.239-3.614 2.795-7.989 4.193-13.125 4.193zm0-7.5c5.09 0 9.046-2.455 11.864-7.364 2.818-4.909 4.227-11.909 4.227-21 0-6.045-.648-11.193-1.943-15.443-1.273-4.25-3.114-7.488-5.523-9.716-2.386-2.227-5.261-3.341-8.625-3.341-5.045 0-8.989 2.489-11.83 7.466-2.84 4.955-4.26 11.966-4.26 21.034 0 6.046.635 11.182 1.908 15.409 1.273 4.228 3.102 7.444 5.489 9.648 2.409 2.205 5.307 3.307 8.693 3.307zm61.773-63.273v69.818h-8.455v-60.954h-.409l-17.045 11.318v-8.591l17.454-11.591h8.455z" fill="#CCEC60"/></g><path d="M14.6 22.12c-.528 0-.984-.1-1.368-.3a2.12 2.12 0 01-.876-.864c-.2-.384-.3-.836-.3-1.356v-3.96c0-.528.1-.98.3-1.356.208-.376.5-.664.876-.864.384-.2.84-.3 1.368-.3.528 0 .98.1 1.356.3.384.2.676.488.876.864.208.376.312.824.312 1.344V19.6c0 .52-.104.972-.312 1.356a2.03 2.03 0 01-.876.864c-.376.2-.828.3-1.356.3zm0-.972c.472 0 .832-.132 1.08-.396.256-.272.384-.656.384-1.152v-3.96c0-.496-.128-.876-.384-1.14-.248-.272-.608-.408-1.08-.408-.464 0-.824.136-1.08.408-.256.264-.384.644-.384 1.14v3.96c0 .496.128.88.384 1.152.256.264.616.396 1.08.396zm6.655.852v-5.652h-2.4V15.4h5.88v.948h-2.4V22h-1.08zm5.264 0v-6.6h2.856c.688 0 1.22.156 1.596.468.376.304.564.732.564 1.284 0 .456-.156.824-.468 1.104-.312.272-.724.408-1.236.408v-.096c.56 0 1.008.14 1.344.42.344.28.516.656.516 1.128 0 .592-.2 1.056-.6 1.392-.4.328-.96.492-1.68.492h-2.892zm1.056-.948h1.836c.384 0 .68-.084.888-.252.216-.168.324-.404.324-.708 0-.312-.108-.552-.324-.72-.208-.168-.504-.252-.888-.252h-1.836v1.932zm0-2.868h1.8c.336 0 .6-.08.792-.24.2-.16.3-.384.3-.672 0-.288-.096-.512-.288-.672-.192-.168-.46-.252-.804-.252h-1.8v1.836zm8.61 3.936c-.52 0-.975-.104-1.367-.312a2.258 2.258 0 01-.9-.876c-.208-.384-.312-.828-.312-1.332v-1.8c0-.512.104-.956.312-1.332.216-.376.516-.668.9-.876.392-.208.848-.312 1.368-.312.52 0 .972.104 1.356.312.392.208.692.5.9.876.216.376.324.82.324 1.332v1.164h-4.104v.636c0 .52.132.92.396 1.2.264.272.64.408 1.128.408.416 0 .752-.072 1.008-.216a.953.953 0 00.468-.672h1.08c-.072.552-.344.992-.816 1.32-.464.32-1.044.48-1.74.48zm1.525-3.876V17.8c0-.52-.132-.92-.396-1.2-.256-.28-.632-.42-1.128-.42-.488 0-.864.14-1.128.42-.264.28-.396.68-.396 1.2v.348h3.132l-.084.096zM42.84 22v-5.652h-2.4V15.4h5.88v.948h-2.4V22h-1.08zm7.76.12c-.528 0-.992-.1-1.392-.3a2.161 2.161 0 01-.912-.864c-.216-.384-.324-.836-.324-1.356v-1.8c0-.528.108-.98.324-1.356.216-.376.52-.664.912-.864.4-.2.864-.3 1.392-.3.76 0 1.372.204 1.836.612.464.408.708.964.732 1.668h-1.08c-.024-.424-.168-.748-.432-.972-.256-.232-.608-.348-1.056-.348-.472 0-.848.136-1.128.408-.28.264-.42.644-.42 1.14V19.6c0 .496.14.88.42 1.152.28.272.656.408 1.128.408.448 0 .8-.116 1.056-.348.264-.232.408-.556.432-.972h1.08c-.024.704-.268 1.26-.732 1.668-.464.408-1.076.612-1.836.612zm6.63-.12v-5.652h-2.4V15.4h5.88v.948h-2.4V22h-1.08zm5.264 0v-6.6h2.856c.688 0 1.22.156 1.596.468.376.304.564.732.564 1.284 0 .456-.156.824-.468 1.104-.312.272-.724.408-1.236.408v-.096c.56 0 1.008.14 1.344.42.344.28.516.656.516 1.128 0 .592-.2 1.056-.6 1.392-.4.328-.96.492-1.68.492h-2.892zm1.056-.948h1.836c.384 0 .68-.084.888-.252.216-.168.324-.404.324-.708 0-.312-.108-.552-.324-.72-.208-.168-.504-.252-.888-.252H63.55v1.932zm0-2.868h1.8c.336 0 .6-.08.792-.24.2-.16.3-.384.3-.672 0-.288-.096-.512-.288-.672-.192-.168-.46-.252-.804-.252h-1.8v1.836zm8.611 3.936c-.52 0-.976-.104-1.368-.312a2.258 2.258 0 01-.9-.876c-.208-.384-.312-.828-.312-1.332v-1.8c0-.512.105-.956.313-1.332.216-.376.516-.668.9-.876.391-.208.847-.312 1.367-.312s.972.104 1.356.312c.392.208.692.5.9.876.216.376.325.82.325 1.332v1.164h-4.105v.636c0 .52.132.92.396 1.2.264.272.64.408 1.128.408.416 0 .752-.072 1.008-.216a.953.953 0 00.468-.672h1.08c-.072.552-.344.992-.816 1.32-.463.32-1.043.48-1.74.48zm1.524-3.876V17.8c0-.52-.132-.92-.396-1.2-.256-.28-.632-.42-1.128-.42-.488 0-.864.14-1.128.42-.264.28-.396.68-.396 1.2v.348h3.132l-.084.096zm3.2 3.756v-6.6h1.08v2.748h2.784V15.4h1.08V22h-1.08v-2.868h-2.784V22h-1.08zm7.195 0v-6.6h1.08v2.748h2.784V15.4h1.08V22h-1.08v-2.868H85.16V22h-1.08zm9.667.096c-.528 0-.984-.1-1.368-.3a2.178 2.178 0 01-.9-.864c-.208-.384-.312-.836-.312-1.356v-1.752c0-.528.104-.98.312-1.356.216-.376.516-.664.9-.864.384-.2.84-.3 1.368-.3.528 0 .984.1 1.368.3.384.2.68.488.888.864.216.376.324.824.324 1.344v1.764c0 .52-.108.972-.324 1.356a2.103 2.103 0 01-.888.864c-.384.2-.84.3-1.368.3zm0-.96c.472 0 .84-.132 1.104-.396.264-.264.396-.652.396-1.164v-1.752c0-.512-.132-.9-.396-1.164-.264-.264-.632-.396-1.104-.396-.464 0-.832.132-1.104.396-.264.264-.396.652-.396 1.164v1.752c0 .512.132.9.396 1.164.272.264.64.396 1.104.396zm7.22.984c-.528 0-.992-.1-1.392-.3a2.161 2.161 0 01-.912-.864c-.216-.384-.324-.836-.324-1.356v-1.8c0-.528.108-.98.324-1.356.216-.376.52-.664.912-.864.4-.2.864-.3 1.392-.3.76 0 1.372.204 1.836.612.464.408.708.964.732 1.668h-1.08c-.024-.424-.168-.748-.432-.972-.256-.232-.608-.348-1.056-.348-.472 0-.848.136-1.128.408-.28.264-.42.644-.42 1.14V19.6c0 .496.14.88.42 1.152.28.272.656.408 1.128.408.448 0 .8-.116 1.056-.348.264-.232.408-.556.432-.972h1.08c-.024.704-.268 1.26-.732 1.668-.464.408-1.076.612-1.836.612zm6.631-.12v-5.652h-2.4V15.4h5.88v.948h-2.4V22h-1.08zm5.311 0v-6.6h1.08v2.424h1.944c.744 0 1.328.188 1.752.564.432.368.648.876.648 1.524 0 .64-.216 1.148-.648 1.524-.432.376-1.016.564-1.752.564h-3.024zm1.08-.984h1.944c.416 0 .732-.092.948-.276.224-.192.336-.468.336-.828 0-.36-.112-.632-.336-.816-.216-.192-.532-.288-.948-.288h-1.944v2.208zm15.423 1.068c-.696 0-1.268-.148-1.716-.444a1.764 1.764 0 01-.792-1.2h1.14c.056.2.204.364.444.492.248.128.556.192.924.192h.564c.392 0 .696-.092.912-.276a.887.887 0 00.336-.72c0-.32-.108-.572-.324-.756-.208-.184-.516-.276-.924-.276h-1.452v-.936h1.416c.368 0 .648-.088.84-.264a.9.9 0 00.288-.696c0-.2-.044-.368-.132-.504a.763.763 0 00-.372-.312 1.551 1.551 0 00-.612-.108h-.6c-.32 0-.596.072-.828.216-.232.144-.372.32-.42.528h-1.14c.08-.496.34-.904.78-1.224.44-.32.976-.48 1.608-.48h.6c.472 0 .876.076 1.212.228.336.144.592.352.768.624.184.272.276.596.276.972 0 .392-.128.716-.384.972-.256.248-.616.388-1.08.42v.048c.568.04.98.192 1.236.456s.384.644.384 1.14c0 .584-.216 1.048-.648 1.392-.432.344-1.012.516-1.74.516h-.564zm6.931.036c-.696 0-1.244-.176-1.644-.528-.4-.36-.6-.844-.6-1.452 0-.616.2-1.1.6-1.452.4-.352.94-.528 1.62-.528h2.04v-.66c0-.408-.124-.72-.372-.936-.24-.224-.584-.336-1.032-.336-.392 0-.72.084-.984.252-.264.16-.416.38-.456.66h-1.08c.072-.568.34-1.02.804-1.356.464-.336 1.044-.504 1.74-.504.76 0 1.36.196 1.8.588.44.392.66.924.66 1.596V22h-1.056v-1.26h-.18l.18-.18c0 .48-.188.86-.564 1.14-.368.28-.86.42-1.476.42zm.264-.852c.512 0 .932-.128 1.26-.384.328-.256.492-.584.492-.984v-.936h-2.016c-.36 0-.644.1-.852.3-.208.2-.312.472-.312.816 0 .368.124.66.372.876.256.208.608.312 1.056.312zM12.104 40.16V31.4h1.08v1.26h.216l-.216.252c0-.504.164-.9.492-1.188.336-.296.776-.444 1.32-.444.664 0 1.192.22 1.584.66.4.432.6 1.028.6 1.788v1.932c0 .504-.092.94-.276 1.308a1.962 1.962 0 01-.756.852c-.32.2-.704.3-1.152.3-.536 0-.972-.148-1.308-.444-.336-.296-.504-.692-.504-1.188l.216.252h-.24l.024 1.5v1.92h-1.08zm2.532-2.976c.456 0 .812-.136 1.068-.408.264-.272.396-.664.396-1.176v-1.8c0-.512-.132-.904-.396-1.176-.256-.272-.612-.408-1.068-.408-.44 0-.792.14-1.056.42-.264.28-.396.668-.396 1.164v1.8c0 .496.132.884.396 1.164.264.28.616.42 1.056.42zm7.16.936c-.52 0-.977-.104-1.369-.312a2.258 2.258 0 01-.9-.876c-.208-.384-.312-.828-.312-1.332v-1.8c0-.512.104-.956.312-1.332.216-.376.516-.668.9-.876.392-.208.848-.312 1.368-.312.52 0 .972.104 1.356.312.392.208.692.5.9.876.216.376.324.82.324 1.332v1.164h-4.104v.636c0 .52.132.92.396 1.2.264.272.64.408 1.128.408.416 0 .752-.072 1.008-.216a.953.953 0 00.468-.672h1.08c-.072.552-.344.992-.816 1.32-.464.32-1.044.48-1.74.48zm1.523-3.876V33.8c0-.52-.132-.92-.396-1.2-.256-.28-.632-.42-1.128-.42-.488 0-.864.14-1.128.42-.264.28-.396.68-.396 1.2v.348h3.132l-.084.096zm5.36 3.84c-.696 0-1.268-.148-1.716-.444a1.764 1.764 0 01-.792-1.2h1.14c.056.2.204.364.444.492.248.128.556.192.924.192h.564c.392 0 .696-.092.912-.276a.887.887 0 00.336-.72c0-.32-.108-.572-.324-.756-.208-.184-.516-.276-.924-.276H27.79v-.936h1.416c.368 0 .648-.088.84-.264a.9.9 0 00.288-.696c0-.2-.044-.368-.132-.504a.763.763 0 00-.372-.312 1.551 1.551 0 00-.612-.108h-.6c-.32 0-.596.072-.828.216-.232.144-.372.32-.42.528h-1.14c.08-.496.34-.904.78-1.224.44-.32.976-.48 1.608-.48h.6c.472 0 .876.076 1.212.228.336.144.592.352.768.624.184.272.276.596.276.972 0 .392-.128.716-.384.972-.256.248-.616.388-1.08.42v.048c.568.04.98.192 1.236.456s.384.644.384 1.14c0 .584-.216 1.048-.648 1.392-.432.344-1.012.516-1.74.516h-.564zm6.043 2.076l.972-2.568-2.448-6.192h1.2l1.536 4.08c.056.136.108.3.156.492l.12.468.12-.468c.048-.192.096-.356.144-.492l1.44-4.08h1.164l-3.252 8.76h-1.152zm5.36-2.076v-1.008h.215c.368 0 .624-.144.768-.432.152-.288.232-.804.24-1.548l.072-3.696h4.476V38h-1.08v-5.616h-2.328l-.06 2.76c-.016.696-.096 1.26-.24 1.692-.136.432-.352.748-.648.948-.288.2-.668.3-1.14.3h-.276zm8.07-.084v-6.6h1.08v2.424h1.945c.744 0 1.328.188 1.752.564.432.368.648.876.648 1.524 0 .64-.216 1.148-.648 1.524-.432.376-1.016.564-1.752.564h-3.024zm1.08-.984h1.945c.416 0 .732-.092.948-.276.224-.192.336-.468.336-.828 0-.36-.112-.632-.336-.816-.216-.192-.532-.288-.948-.288h-1.944v2.208zm8 .984v-5.652h-2.4V31.4h5.88v.948h-2.4V38h-1.08zm7.16.12c-.697 0-1.245-.176-1.645-.528-.4-.36-.6-.844-.6-1.452 0-.616.2-1.1.6-1.452.4-.352.94-.528 1.62-.528h2.04v-.66c0-.408-.124-.72-.372-.936-.24-.224-.584-.336-1.032-.336-.392 0-.72.084-.984.252-.264.16-.416.38-.456.66h-1.08c.072-.568.34-1.02.804-1.356.464-.336 1.044-.504 1.74-.504.76 0 1.36.196 1.8.588.44.392.66.924.66 1.596V38h-1.056v-1.26h-.18l.18-.18c0 .48-.188.86-.564 1.14-.368.28-.86.42-1.476.42zm.263-.852c.512 0 .932-.128 1.26-.384.328-.256.492-.584.492-.984v-.936h-2.016c-.36 0-.644.1-.852.3-.208.2-.312.472-.312.816 0 .368.124.66.372.876.256.208.608.312 1.056.312zm6.968.732v-5.652h-2.4V31.4h5.88v.948h-2.4V38h-1.08zm7.735.12c-.304 0-.548-.088-.732-.264-.176-.176-.264-.412-.264-.708 0-.312.088-.56.264-.744.184-.184.428-.276.732-.276s.544.092.72.276c.184.184.276.432.276.744 0 .296-.092.532-.276.708-.176.176-.416.264-.72.264zM91.06 38v-8.76h1.416l.912 2.832c.088.256.168.512.24.768.072.248.124.44.156.576.04-.136.092-.328.156-.576.064-.256.136-.516.216-.78l.864-2.82h1.416V38H95.38v-3.18c0-.352.012-.752.036-1.2.024-.448.056-.904.096-1.368.04-.472.08-.92.12-1.344.048-.432.088-.808.12-1.128l-1.416 4.38h-1.14l-1.428-4.38a45.595 45.595 0 01.228 2.4c.032.456.06.912.084 1.368.024.456.036.88.036 1.272V38H91.06zm7.064 0v-6.6h1.008v2.424h.54c.712 0 1.272.188 1.68.564.416.368.624.876.624 1.524s-.208 1.16-.624 1.536c-.408.368-.968.552-1.68.552h-1.548zm1.008-.864h.54c.424 0 .752-.108.984-.324.24-.216.36-.516.36-.9s-.12-.684-.36-.9c-.232-.216-.56-.324-.984-.324h-.54v2.448zm3.624.864v-6.6h1.008V38h-1.008zM12.56 54v-6.6h4.74v.984h-3.66V54h-1.08zm8.66.12c-.697 0-1.245-.176-1.645-.528-.4-.36-.6-.844-.6-1.452 0-.616.2-1.1.6-1.452.4-.352.94-.528 1.62-.528h2.04v-.66c0-.408-.124-.72-.372-.936-.24-.224-.584-.336-1.032-.336-.392 0-.72.084-.984.252-.264.16-.416.38-.456.66h-1.08c.072-.568.34-1.02.804-1.356.464-.336 1.044-.504 1.74-.504.76 0 1.36.196 1.8.588.44.392.66.924.66 1.596V54H23.26v-1.26h-.18l.18-.18c0 .48-.188.86-.564 1.14-.368.28-.86.42-1.476.42zm.263-.852c.512 0 .932-.128 1.26-.384.328-.256.492-.584.492-.984v-.936H21.22c-.36 0-.644.1-.852.3-.208.2-.312.472-.312.816 0 .368.124.66.372.876.256.208.608.312 1.056.312zm5.012 2.892V47.4h1.08v1.26h.216l-.216.252c0-.504.164-.9.492-1.188.336-.296.776-.444 1.32-.444.664 0 1.192.22 1.584.66.4.432.6 1.028.6 1.788v1.932c0 .504-.092.94-.276 1.308a1.962 1.962 0 01-.756.852c-.32.2-.704.3-1.152.3-.536 0-.972-.148-1.308-.444-.336-.296-.504-.692-.504-1.188l.216.252h-.24l.024 1.5v1.92h-1.08zm2.532-2.976c.456 0 .812-.136 1.068-.408.264-.272.396-.664.396-1.176v-1.8c0-.512-.132-.904-.396-1.176-.256-.272-.612-.408-1.068-.408-.44 0-.792.14-1.056.42-.264.28-.396.668-.396 1.164v1.8c0 .496.132.884.396 1.164.264.28.616.42 1.056.42zm6.583.936c-.696 0-1.244-.176-1.644-.528-.4-.36-.6-.844-.6-1.452 0-.616.2-1.1.6-1.452.4-.352.94-.528 1.62-.528h2.04v-.66c0-.408-.124-.72-.372-.936-.24-.224-.584-.336-1.032-.336-.392 0-.72.084-.984.252-.264.16-.416.38-.456.66h-1.08c.072-.568.34-1.02.804-1.356.464-.336 1.044-.504 1.74-.504.76 0 1.36.196 1.8.588.44.392.66.924.66 1.596V54H37.65v-1.26h-.18l.18-.18c0 .48-.188.86-.564 1.14-.368.28-.86.42-1.476.42zm.264-.852c.512 0 .932-.128 1.26-.384.328-.256.492-.584.492-.984v-.936H35.61c-.36 0-.644.1-.852.3-.208.2-.312.472-.312.816 0 .368.124.66.372.876.256.208.608.312 1.056.312zm5.035.732v-6.6h1.08v2.748h2.784V47.4h1.08V54h-1.08v-2.868H41.99V54h-1.08zm9.128 0v-5.652h-2.4V47.4h5.88v.948h-2.4V54h-1.08zm5.263 0v-6.6h1.032V51c0 .232-.008.476-.024.732-.008.256-.024.5-.048.732a7.615 7.615 0 01-.06.576l2.664-5.64h1.38V54h-1.032v-3.6c0-.232.004-.476.012-.732.016-.256.036-.5.06-.732l.06-.588L56.68 54H55.3zm7.171 2.16V47.4h1.08v1.26h.216l-.216.252c0-.504.164-.9.492-1.188.336-.296.776-.444 1.32-.444.664 0 1.192.22 1.584.66.4.432.6 1.028.6 1.788v1.932c0 .504-.092.94-.276 1.308a1.962 1.962 0 01-.756.852c-.32.2-.704.3-1.152.3-.536 0-.972-.148-1.308-.444-.336-.296-.504-.692-.504-1.188l.216.252h-.24l.024 1.5v1.92h-1.08zm2.532-2.976c.456 0 .812-.136 1.068-.408.264-.272.396-.664.396-1.176v-1.8c0-.512-.132-.904-.396-1.176-.256-.272-.612-.408-1.068-.408-.44 0-.792.14-1.056.42-.264.28-.396.668-.396 1.164v1.8c0 .496.132.884.396 1.164.264.28.616.42 1.056.42zm5.695 2.976l.973-2.568-2.449-6.192h1.2l1.537 4.08c.055.136.108.3.156.492l.12.468c.031-.128.072-.284.12-.468a5.22 5.22 0 01.144-.492l1.44-4.08h1.164l-3.252 8.76h-1.153zm8.66-2.04c-.52 0-.976-.104-1.368-.312a2.258 2.258 0 01-.9-.876c-.208-.384-.312-.828-.312-1.332v-1.8c0-.512.104-.956.312-1.332.216-.376.516-.668.9-.876.392-.208.848-.312 1.368-.312.52 0 .972.104 1.356.312.392.208.692.5.9.876.216.376.324.82.324 1.332v1.164h-4.104v.636c0 .52.132.92.396 1.2.264.272.64.408 1.128.408.416 0 .752-.072 1.008-.216a.953.953 0 00.468-.672h1.08c-.072.552-.344.992-.816 1.32-.464.32-1.044.48-1.74.48zm1.524-3.876V49.8c0-.52-.132-.92-.396-1.2-.256-.28-.632-.42-1.128-.42-.488 0-.864.14-1.128.42-.264.28-.396.68-.396 1.2v.348h3.132l-.084.096zM83.865 54v-6.6h1.464l.864 2.532c.088.256.168.512.24.768.072.248.124.44.156.576.032-.136.08-.328.144-.576.072-.256.148-.516.228-.78l.816-2.52h1.464V54h-1.044v-1.02c0-.36.004-.752.012-1.176l.024-1.284.048-1.224c.016-.392.028-.736.036-1.032l-1.176 3.756h-1.14l-1.188-3.732c.016.36.028.808.036 1.344.016.536.028 1.096.036 1.68.016.584.024 1.14.024 1.668V54h-1.044zM11.36 71.68v-2.604h.54c.136-.136.276-.404.42-.804.152-.4.232-.908.24-1.524l.072-3.348h4.308v5.676h.84v2.604h-.96V70h-4.5v1.68h-.96zm1.68-2.604h2.82V64.36h-2.208l-.048 2.412c-.008.632-.076 1.144-.204 1.536-.128.392-.248.648-.36.768zm8.755 1.02c-.528 0-.984-.1-1.368-.3a2.178 2.178 0 01-.9-.864c-.208-.384-.312-.836-.312-1.356v-1.752c0-.528.104-.98.312-1.356.216-.376.516-.664.9-.864.384-.2.84-.3 1.368-.3.528 0 .984.1 1.368.3.384.2.68.488.888.864.216.376.324.824.324 1.344v1.764c0 .52-.108.972-.324 1.356a2.103 2.103 0 01-.888.864c-.384.2-.84.3-1.368.3zm0-.96c.472 0 .84-.132 1.104-.396.264-.264.396-.652.396-1.164v-1.752c0-.512-.132-.9-.396-1.164-.264-.264-.632-.396-1.104-.396-.464 0-.832.132-1.104.396-.264.264-.396.652-.396 1.164v1.752c0 .512.132.9.396 1.164.272.264.64.396 1.104.396zm7.22.984c-.528 0-.992-.1-1.392-.3a2.161 2.161 0 01-.912-.864c-.216-.384-.324-.836-.324-1.356v-1.8c0-.528.108-.98.324-1.356.216-.376.52-.664.912-.864.4-.2.864-.3 1.392-.3.76 0 1.372.204 1.836.612.464.408.708.964.732 1.668h-1.08c-.024-.424-.168-.748-.432-.972-.256-.232-.608-.348-1.056-.348-.472 0-.848.136-1.128.408-.28.264-.42.644-.42 1.14V67.6c0 .496.14.88.42 1.152.28.272.656.408 1.128.408.448 0 .8-.116 1.056-.348.264-.232.408-.556.432-.972h1.08c-.024.704-.268 1.26-.732 1.668-.464.408-1.076.612-1.836.612zm6.63-.12v-5.652h-2.4V63.4h5.88v.948h-2.4V70h-1.08zm5.264 0v-6.6h1.032V67c0 .232-.008.476-.024.732-.008.256-.024.5-.048.732a7.615 7.615 0 01-.06.576l2.664-5.64h1.38V70h-1.032v-3.6c0-.232.004-.476.012-.732.016-.256.036-.5.06-.732l.06-.588L42.29 70h-1.38zm6.284 0l1.44-3.384-1.344-3.216h1.044l1.152 2.88h.636V63.4h.912v2.88h.612l1.188-2.88h1.032l-1.344 3.18L53.96 70h-1.08l-1.2-3h-.648v3h-.912v-3h-.648l-1.212 3h-1.068zm10.579.12c-.52 0-.976-.104-1.368-.312a2.258 2.258 0 01-.9-.876c-.208-.384-.312-.828-.312-1.332v-1.8c0-.512.104-.956.312-1.332.216-.376.516-.668.9-.876.392-.208.848-.312 1.368-.312.52 0 .972.104 1.356.312.392.208.692.5.9.876.216.376.324.82.324 1.332v1.164h-4.104v.636c0 .52.132.92.396 1.2.264.272.64.408 1.128.408.416 0 .752-.072 1.008-.216a.953.953 0 00.468-.672h1.08c-.072.552-.344.992-.816 1.32-.464.32-1.044.48-1.74.48zm1.524-3.876V65.8c0-.52-.132-.92-.396-1.2-.256-.28-.632-.42-1.128-.42-.488 0-.864.14-1.128.42-.264.28-.396.68-.396 1.2v.348h3.132l-.084.096zm3.2 3.756v-6.6h1.08v2.748h2.783V63.4h1.08V70h-1.08v-2.868h-2.784V70h-1.08zm7.194 0v-6.6h1.032V67c0 .232-.007.476-.023.732-.008.256-.025.5-.049.732a7.615 7.615 0 01-.06.576l2.664-5.64h1.38V70h-1.031v-3.6c0-.232.004-.476.012-.732.016-.256.035-.5.06-.732.023-.24.044-.436.06-.588L71.07 70h-1.38zm9.668.12c-.52 0-.976-.104-1.368-.312a2.258 2.258 0 01-.9-.876c-.208-.384-.312-.828-.312-1.332v-1.8c0-.512.104-.956.312-1.332.216-.376.516-.668.9-.876.392-.208.848-.312 1.368-.312.52 0 .972.104 1.356.312.392.208.692.5.9.876.216.376.324.82.324 1.332v1.164h-4.104v.636c0 .52.132.92.396 1.2.264.272.64.408 1.128.408.416 0 .752-.072 1.008-.216a.953.953 0 00.468-.672h1.08c-.072.552-.344.992-.816 1.32-.464.32-1.044.48-1.74.48zm1.524-3.876V65.8c0-.52-.132-.92-.396-1.2-.256-.28-.632-.42-1.128-.42-.488 0-.864.14-1.128.42-.264.28-.396.68-.396 1.2v.348h3.132l-.084.096zM12.128 86v-6.6h4.944V86h-1.08v-5.616h-2.784V86h-1.08zm9.667.096c-.528 0-.984-.1-1.368-.3a2.178 2.178 0 01-.9-.864c-.208-.384-.312-.836-.312-1.356v-1.752c0-.528.104-.98.312-1.356.216-.376.516-.664.9-.864.384-.2.84-.3 1.368-.3.528 0 .984.1 1.368.3.384.2.68.488.888.864.216.376.324.824.324 1.344v1.764c0 .52-.108.972-.324 1.356a2.103 2.103 0 01-.888.864c-.384.2-.84.3-1.368.3zm0-.96c.472 0 .84-.132 1.104-.396.264-.264.396-.652.396-1.164v-1.752c0-.512-.132-.9-.396-1.164-.264-.264-.632-.396-1.104-.396-.464 0-.832.132-1.104.396-.264.264-.396.652-.396 1.164v1.752c0 .512.132.9.396 1.164.272.264.64.396 1.104.396zm7.22.984c-.528 0-.992-.1-1.392-.3a2.161 2.161 0 01-.912-.864c-.216-.384-.324-.836-.324-1.356v-1.8c0-.528.108-.98.324-1.356.216-.376.52-.664.912-.864.4-.2.864-.3 1.392-.3.76 0 1.372.204 1.836.612.464.408.708.964.732 1.668h-1.08c-.024-.424-.168-.748-.432-.972-.256-.232-.608-.348-1.056-.348-.472 0-.848.136-1.128.408-.28.264-.42.644-.42 1.14V83.6c0 .496.14.88.42 1.152.28.272.656.408 1.128.408.448 0 .8-.116 1.056-.348.264-.232.408-.556.432-.972h1.08c-.024.704-.268 1.26-.732 1.668-.464.408-1.076.612-1.836.612zm6.63-.12v-5.652h-2.4V79.4h5.88v.948h-2.4V86h-1.08zm7.16.12c-.696 0-1.244-.176-1.644-.528-.4-.36-.6-.844-.6-1.452 0-.616.2-1.1.6-1.452.4-.352.94-.528 1.62-.528h2.04v-.66c0-.408-.124-.72-.372-.936-.24-.224-.584-.336-1.032-.336-.392 0-.72.084-.984.252-.264.16-.416.38-.456.66h-1.08c.072-.568.34-1.02.804-1.356.464-.336 1.044-.504 1.74-.504.76 0 1.36.196 1.8.588.44.392.66.924.66 1.596V86h-1.056v-1.26h-.18l.18-.18c0 .48-.188.86-.564 1.14-.368.28-.86.42-1.476.42zm.264-.852c.512 0 .932-.128 1.26-.384.328-.256.492-.584.492-.984v-.936h-2.016c-.36 0-.644.1-.852.3-.208.2-.312.472-.312.816 0 .368.124.66.372.876.256.208.608.312 1.056.312zm5.036.732v-6.6h2.856c.688 0 1.22.156 1.596.468.376.304.564.732.564 1.284 0 .456-.156.824-.468 1.104-.312.272-.724.408-1.236.408v-.096c.56 0 1.008.14 1.344.42.344.28.516.656.516 1.128 0 .592-.2 1.056-.6 1.392-.4.328-.96.492-1.68.492h-2.892zm1.056-.948h1.836c.384 0 .68-.084.888-.252.216-.168.324-.404.324-.708 0-.312-.108-.552-.324-.72-.208-.168-.504-.252-.888-.252H49.16v1.932zm0-2.868h1.8c.336 0 .6-.08.792-.24.2-.16.3-.384.3-.672 0-.288-.096-.512-.288-.672-.192-.168-.46-.252-.804-.252h-1.8v1.836zm5.31 3.9v-1.008h.217c.368 0 .624-.144.768-.432.152-.288.232-.804.24-1.548l.072-3.696h4.476V86h-1.08v-5.616h-2.328l-.06 2.76c-.016.696-.096 1.26-.24 1.692-.136.432-.352.748-.648.948-.288.2-.668.3-1.14.3h-.276zm10.496.036c-.52 0-.976-.104-1.368-.312a2.258 2.258 0 01-.9-.876c-.208-.384-.312-.828-.312-1.332v-1.8c0-.512.104-.956.312-1.332.216-.376.516-.668.9-.876.392-.208.848-.312 1.368-.312.52 0 .972.104 1.356.312.392.208.692.5.9.876.216.376.324.82.324 1.332v1.164h-4.104v.636c0 .52.132.92.396 1.2.264.272.64.408 1.128.408.416 0 .752-.072 1.008-.216a.953.953 0 00.468-.672h1.08c-.072.552-.344.992-.816 1.32-.464.32-1.044.48-1.74.48zm1.524-3.876V81.8c0-.52-.132-.92-.396-1.2-.256-.28-.632-.42-1.128-.42-.488 0-.864.14-1.128.42-.264.28-.396.68-.396 1.2v.348h3.132l-.084.096zm3.2 3.756v-6.6h1.08v2.748h2.784V79.4h1.08V86h-1.08v-2.868H70.77V86h-1.08zm7.195 0v-6.6h1.08v2.748h2.784V79.4h1.08V86h-1.08v-2.868h-2.784V86h-1.08zm6.847 0v-6.6h1.008v2.424h.54c.712 0 1.272.188 1.68.564.416.368.624.876.624 1.524s-.208 1.16-.624 1.536c-.408.368-.968.552-1.68.552h-1.548zm1.008-.864h.54c.424 0 .752-.108.984-.324.24-.216.36-.516.36-.9s-.12-.684-.36-.9c-.232-.216-.56-.324-.984-.324h-.54v2.448zm3.624.864v-6.6h1.008V86h-1.008zm2.383 0l2.34-3.396-2.196-3.204h1.272l1.308 2.04c.056.088.108.184.156.288.056.104.1.188.132.252.024-.064.06-.148.108-.252.056-.104.112-.2.168-.288l1.32-2.04h1.26l-2.196 3.216L96.748 86h-1.272l-1.416-2.16a3.356 3.356 0 01-.168-.3 2.599 2.599 0 00-.132-.288c-.032.072-.08.168-.144.288a2.125 2.125 0 01-.18.3L92.008 86h-1.26zm19.611 1.68V86h-4.692v-6.6h1.08v5.64h2.592V79.4h1.08v5.64h.9v2.64h-.96zm4.975-1.56c-.52 0-.976-.104-1.368-.312a2.258 2.258 0 01-.9-.876c-.208-.384-.312-.828-.312-1.332v-1.8c0-.512.104-.956.312-1.332.216-.376.516-.668.9-.876.392-.208.848-.312 1.368-.312.52 0 .972.104 1.356.312.392.208.692.5.9.876.216.376.324.82.324 1.332v1.164h-4.104v.636c0 .52.132.92.396 1.2.264.272.64.408 1.128.408.416 0 .752-.072 1.008-.216a.953.953 0 00.468-.672h1.08c-.072.552-.344.992-.816 1.32-.464.32-1.044.48-1.74.48zm1.524-3.876V81.8c0-.52-.132-.92-.396-1.2-.256-.28-.632-.42-1.128-.42-.488 0-.864.14-1.128.42-.264.28-.396.68-.396 1.2v.348h3.132l-.084.096zm2.372 3.84v-1.008h.216c.368 0 .624-.144.768-.432.152-.288.232-.804.24-1.548l.072-3.696h4.476V86h-1.08v-5.616h-2.328l-.06 2.76c-.016.696-.096 1.26-.24 1.692-.136.432-.352.748-.648.948-.288.2-.668.3-1.14.3h-.276zm10.495.036c-.52 0-.976-.104-1.368-.312a2.258 2.258 0 01-.9-.876c-.208-.384-.312-.828-.312-1.332v-1.8c0-.512.104-.956.312-1.332.216-.376.516-.668.9-.876.392-.208.848-.312 1.368-.312.52 0 .972.104 1.356.312.392.208.692.5.9.876.216.376.324.82.324 1.332v1.164h-4.104v.636c0 .52.132.92.396 1.2.264.272.64.408 1.128.408.416 0 .752-.072 1.008-.216a.953.953 0 00.468-.672h1.08c-.072.552-.344.992-.816 1.32-.464.32-1.044.48-1.74.48zm1.524-3.876V81.8c0-.52-.132-.92-.396-1.2-.256-.28-.632-.42-1.128-.42-.488 0-.864.14-1.128.42-.264.28-.396.68-.396 1.2v.348h3.132l-.084.096zM134.448 86v-6.6h1.032V83c0 .232-.008.476-.024.732-.008.256-.024.5-.048.732a7.615 7.615 0 01-.06.576l2.664-5.64h1.38V86h-1.032v-3.6c0-.232.004-.476.012-.732.016-.256.036-.5.06-.732l.06-.588L135.828 86h-1.38zm2.52-7.68c-.576 0-1.04-.16-1.392-.48-.352-.32-.528-.74-.528-1.26h.852c0 .312.096.564.288.756.192.192.448.288.768.288.328 0 .588-.096.78-.288.2-.192.3-.444.3-.756h.852c0 .52-.176.94-.528 1.26-.352.32-.816.48-1.392.48zM12.128 102v-6.6h1.032V99c0 .232-.008.476-.024.732-.008.256-.024.5-.048.732a7.615 7.615 0 01-.06.576l2.664-5.64h1.38v6.6H16.04v-3.6c0-.232.004-.476.012-.732.016-.256.036-.5.06-.732l.06-.588L13.508 102h-1.38zm16.863.12c-.776 0-1.392-.228-1.848-.684-.448-.464-.672-1.096-.672-1.896v-3c0-1.056.264-1.868.792-2.436.528-.576 1.284-.864 2.268-.864h1.68v1.08h-1.68c-.648 0-1.14.192-1.476.576-.336.376-.504.924-.504 1.644v.78h.168l-.168.24c.008-.472.168-.84.48-1.104.312-.264.736-.396 1.272-.396.696 0 1.236.224 1.62.672.392.448.588 1.064.588 1.848v.96c0 .536-.1.996-.3 1.38-.2.384-.488.68-.864.888-.376.208-.828.312-1.356.312zm0-.96c.464 0 .82-.14 1.068-.42.248-.28.372-.68.372-1.2v-.96c0-.52-.124-.92-.372-1.2-.248-.28-.604-.42-1.068-.42-.464 0-.82.14-1.068.42-.248.272-.372.672-.372 1.2v.96c0 .52.124.92.372 1.2.248.28.604.42 1.068.42zm7.195.96c-.52 0-.976-.104-1.368-.312a2.258 2.258 0 01-.9-.876c-.208-.384-.312-.828-.312-1.332v-1.8c0-.512.104-.956.312-1.332.216-.376.516-.668.9-.876.392-.208.848-.312 1.368-.312.52 0 .972.104 1.356.312.392.208.692.5.9.876.216.376.324.82.324 1.332v1.164h-4.104v.636c0 .52.132.92.396 1.2.264.272.64.408 1.128.408.416 0 .752-.072 1.008-.216a.953.953 0 00.468-.672h1.08c-.072.552-.344.992-.816 1.32-.464.32-1.044.48-1.74.48zm1.524-3.876V97.8c0-.52-.132-.92-.396-1.2-.256-.28-.632-.42-1.128-.42-.488 0-.864.14-1.128.42-.264.28-.396.68-.396 1.2v.348h3.132l-.084.096zm3.175 5.916V95.4h1.08v1.26h.216l-.216.252c0-.504.164-.9.492-1.188.336-.296.776-.444 1.32-.444.664 0 1.192.22 1.584.66.4.432.6 1.028.6 1.788v1.932c0 .504-.092.94-.276 1.308a1.962 1.962 0 01-.756.852c-.32.2-.704.3-1.152.3-.536 0-.972-.148-1.308-.444-.336-.296-.504-.692-.504-1.188l.216.252h-.24l.024 1.5v1.92h-1.08zm2.532-2.976c.456 0 .812-.136 1.068-.408.264-.272.396-.664.396-1.176v-1.8c0-.512-.132-.904-.396-1.176-.256-.272-.612-.408-1.068-.408-.44 0-.792.14-1.056.42-.264.28-.396.668-.396 1.164v1.8c0 .496.132.884.396 1.164.264.28.616.42 1.056.42zm8.492-6.972a.788.788 0 01-.564-.204c-.136-.136-.204-.32-.204-.552 0-.24.068-.428.204-.564a.763.763 0 01.564-.216c.232 0 .416.072.552.216.144.136.216.324.216.564 0 .232-.072.416-.216.552-.136.136-.32.204-.552.204zm-2.664 0a.788.788 0 01-.564-.204c-.136-.136-.204-.32-.204-.552 0-.24.068-.428.204-.564a.763.763 0 01.564-.216c.232 0 .416.072.552.216.144.136.216.324.216.564 0 .232-.072.416-.216.552-.136.136-.32.204-.552.204zm1.332 7.908c-.52 0-.976-.104-1.368-.312a2.258 2.258 0 01-.9-.876c-.208-.384-.312-.828-.312-1.332v-1.8c0-.512.104-.956.312-1.332.216-.376.516-.668.9-.876.392-.208.848-.312 1.368-.312.52 0 .972.104 1.356.312.392.208.692.5.9.876.216.376.324.82.324 1.332v1.164h-4.104v.636c0 .52.132.92.396 1.2.264.272.64.408 1.128.408.416 0 .752-.072 1.008-.216a.953.953 0 00.468-.672h1.08c-.072.552-.344.992-.816 1.32-.464.32-1.044.48-1.74.48zm1.524-3.876V97.8c0-.52-.132-.92-.396-1.2-.256-.28-.632-.42-1.128-.42-.488 0-.864.14-1.128.42-.264.28-.396.68-.396 1.2v.348h3.132l-.084.096zM55.084 102v-6.6h1.464l.864 2.532c.088.256.168.512.24.768.072.248.124.44.156.576.032-.136.08-.328.144-.576.072-.256.148-.516.228-.78l.816-2.52h1.464v6.6h-1.044v-1.02c0-.36.004-.752.012-1.176l.024-1.284.048-1.224c.016-.392.028-.736.036-1.032l-1.176 3.756h-1.14l-1.188-3.732c.016.36.028.808.036 1.344.016.536.028 1.096.036 1.68.016.584.024 1.14.024 1.668V102h-1.044zm14.606 0v-6.6h1.08v2.748h2.785V95.4h1.08v6.6h-1.08v-2.868H70.77V102h-1.08zm9.092.12c-.696 0-1.244-.176-1.644-.528-.4-.36-.6-.844-.6-1.452 0-.616.2-1.1.6-1.452.4-.352.94-.528 1.62-.528h2.04v-.66c0-.408-.124-.72-.372-.936-.24-.224-.584-.336-1.032-.336-.392 0-.72.084-.984.252-.264.16-.416.38-.456.66h-1.08c.072-.568.34-1.02.804-1.356.464-.336 1.044-.504 1.74-.504.76 0 1.36.196 1.8.588.44.392.66.924.66 1.596V102h-1.056v-1.26h-.18l.18-.18c0 .48-.188.86-.564 1.14-.368.28-.86.42-1.476.42zm.264-.852c.512 0 .932-.128 1.26-.384.328-.256.492-.584.492-.984v-.936h-2.016c-.36 0-.644.1-.852.3-.208.2-.312.472-.312.816 0 .368.124.66.372.876.256.208.608.312 1.056.312zm14.726.852c-.528 0-.992-.1-1.392-.3a2.161 2.161 0 01-.912-.864c-.216-.384-.324-.836-.324-1.356v-1.8c0-.528.108-.98.324-1.356.216-.376.52-.664.912-.864.4-.2.864-.3 1.392-.3.76 0 1.372.204 1.836.612.464.408.708.964.732 1.668h-1.08c-.024-.424-.168-.748-.432-.972-.256-.232-.608-.348-1.056-.348-.472 0-.848.136-1.128.408-.28.264-.42.644-.42 1.14V99.6c0 .496.14.88.42 1.152.28.272.656.408 1.128.408.448 0 .8-.116 1.056-.348.264-.232.408-.556.432-.972h1.08c-.024.704-.268 1.26-.732 1.668-.464.408-1.076.612-1.836.612zm7.172 0c-.52 0-.976-.104-1.368-.312a2.258 2.258 0 01-.9-.876c-.208-.384-.312-.828-.312-1.332v-1.8c0-.512.104-.956.312-1.332.216-.376.516-.668.9-.876.392-.208.848-.312 1.368-.312.52 0 .972.104 1.356.312.392.208.692.5.9.876.216.376.324.82.324 1.332v1.164H99.42v.636c0 .52.132.92.396 1.2.264.272.64.408 1.128.408.416 0 .752-.072 1.008-.216a.953.953 0 00.468-.672h1.08c-.072.552-.344.992-.816 1.32-.464.32-1.044.48-1.74.48zm1.524-3.876V97.8c0-.52-.132-.92-.396-1.2-.256-.28-.632-.42-1.128-.42-.488 0-.864.14-1.128.42-.264.28-.396.68-.396 1.2v.348h3.132l-.084.096zm5.671 3.876c-.776 0-1.392-.228-1.848-.684-.448-.464-.672-1.096-.672-1.896v-3c0-1.056.264-1.868.792-2.436.528-.576 1.284-.864 2.268-.864h1.68v1.08h-1.68c-.648 0-1.14.192-1.476.576-.336.376-.504.924-.504 1.644v.78h.168l-.168.24c.008-.472.168-.84.48-1.104.312-.264.736-.396 1.272-.396.696 0 1.236.224 1.62.672.392.448.588 1.064.588 1.848v.96c0 .536-.1.996-.3 1.38-.2.384-.488.68-.864.888-.376.208-.828.312-1.356.312zm0-.96c.464 0 .82-.14 1.068-.42.248-.28.372-.68.372-1.2v-.96c0-.52-.124-.92-.372-1.2-.248-.28-.604-.42-1.068-.42-.464 0-.82.14-1.068.42-.248.272-.372.672-.372 1.2v.96c0 .52.124.92.372 1.2.248.28.604.42 1.068.42zm4.315.84l1.692-2.544c-.504-.12-.896-.352-1.176-.696-.272-.344-.408-.772-.408-1.284 0-.648.212-1.156.636-1.524.432-.368 1.02-.552 1.764-.552h2.844v6.6h-1.08v-2.46h-1.452l-1.56 2.46h-1.26zm2.508-3.42h1.764v-2.22h-1.764c-.4 0-.716.1-.948.3-.232.192-.348.464-.348.816 0 .344.116.616.348.816.232.192.548.288.948.288zM12.128 118v-6.6h4.944v6.6h-1.08v-5.616h-2.784V118h-1.08zm9.667.096c-.528 0-.984-.1-1.368-.3a2.178 2.178 0 01-.9-.864c-.208-.384-.312-.836-.312-1.356v-1.752c0-.528.104-.98.312-1.356.216-.376.516-.664.9-.864.384-.2.84-.3 1.368-.3.528 0 .984.1 1.368.3.384.2.68.488.888.864.216.376.324.824.324 1.344v1.764c0 .52-.108.972-.324 1.356a2.103 2.103 0 01-.888.864c-.384.2-.84.3-1.368.3zm0-.96c.472 0 .84-.132 1.104-.396.264-.264.396-.652.396-1.164v-1.752c0-.512-.132-.9-.396-1.164-.264-.264-.632-.396-1.104-.396-.464 0-.832.132-1.104.396-.264.264-.396.652-.396 1.164v1.752c0 .512.132.9.396 1.164.272.264.64.396 1.104.396zm3.896.948v-1.008h.216c.368 0 .624-.144.768-.432.152-.288.232-.804.24-1.548l.072-3.696h4.476v6.6h-1.08v-5.616h-2.328l-.06 2.76c-.016.696-.096 1.26-.24 1.692-.136.432-.352.748-.648.948-.288.2-.668.3-1.14.3h-.276zm8.023-.084v-6.6h1.08v2.748h2.784V111.4h1.08v6.6h-1.08v-2.868h-2.784V118h-1.08zm8.203 2.16l.972-2.568-2.448-6.192h1.2l1.536 4.08c.056.136.108.3.156.492l.12.468.12-.468c.048-.192.096-.356.144-.492l1.44-4.08h1.164l-3.252 8.76h-1.152zm9.692-2.04c-.552 0-.996-.188-1.332-.564-.336-.376-.504-.868-.504-1.476v-.996h-1.056V118h-.996v-6.6h.996v2.82h1.056v-.9c0-.616.164-1.108.492-1.476.336-.376.784-.564 1.344-.564.592 0 1.068.188 1.428.564.36.368.54.86.54 1.476v2.76c0 .608-.18 1.1-.54 1.476-.36.376-.836.564-1.428.564zm0-.84c.304 0 .54-.104.708-.312.176-.216.264-.512.264-.888v-2.76c0-.376-.088-.668-.264-.876-.168-.216-.404-.324-.708-.324-.296 0-.528.108-.696.324-.168.208-.252.5-.252.876v2.76c0 .376.084.672.252.888.168.208.4.312.696.312zM14.6 134.096c-.528 0-.984-.1-1.368-.3a2.178 2.178 0 01-.9-.864c-.208-.384-.312-.836-.312-1.356v-1.752c0-.528.104-.98.312-1.356.216-.376.516-.664.9-.864.384-.2.84-.3 1.368-.3.528 0 .984.1 1.368.3.384.2.68.488.888.864.216.376.324.824.324 1.344v1.764c0 .52-.108.972-.324 1.356a2.103 2.103 0 01-.888.864c-.384.2-.84.3-1.368.3zm0-.96c.472 0 .84-.132 1.104-.396.264-.264.396-.652.396-1.164v-1.752c0-.512-.132-.9-.396-1.164-.264-.264-.632-.396-1.104-.396-.464 0-.832.132-1.104.396-.264.264-.396.652-.396 1.164v1.752c0 .512.132.9.396 1.164.272.264.64.396 1.104.396zm6.655.864v-5.652h-2.4v-.948h5.88v.948h-2.4V134h-1.08zm5.264 0v-6.6h2.856c.688 0 1.22.156 1.596.468.376.304.564.732.564 1.284 0 .456-.156.824-.468 1.104-.312.272-.724.408-1.236.408v-.096c.56 0 1.008.14 1.344.42.344.28.516.656.516 1.128 0 .592-.2 1.056-.6 1.392-.4.328-.96.492-1.68.492h-2.892zm1.056-.948h1.836c.384 0 .68-.084.888-.252.216-.168.324-.404.324-.708 0-.312-.108-.552-.324-.72-.208-.168-.504-.252-.888-.252h-1.836v1.932zm0-2.868h1.8c.336 0 .6-.08.792-.24.2-.16.3-.384.3-.672 0-.288-.096-.512-.288-.672-.192-.168-.46-.252-.804-.252h-1.8v1.836zm8.61 3.936c-.52 0-.975-.104-1.367-.312a2.258 2.258 0 01-.9-.876c-.208-.384-.312-.828-.312-1.332v-1.8c0-.512.104-.956.312-1.332.216-.376.516-.668.9-.876.392-.208.848-.312 1.368-.312.52 0 .972.104 1.356.312.392.208.692.5.9.876.216.376.324.82.324 1.332v1.164h-4.104v.636c0 .52.132.92.396 1.2.264.272.64.408 1.128.408.416 0 .752-.072 1.008-.216a.953.953 0 00.468-.672h1.08c-.072.552-.344.992-.816 1.32-.464.32-1.044.48-1.74.48zm1.525-3.876v-.444c0-.52-.132-.92-.396-1.2-.256-.28-.632-.42-1.128-.42-.488 0-.864.14-1.128.42-.264.28-.396.68-.396 1.2v.348h3.132l-.084.096zM42.84 134v-5.652h-2.4v-.948h5.88v.948h-2.4V134h-1.08zm7.76.12c-.528 0-.992-.1-1.392-.3a2.161 2.161 0 01-.912-.864c-.216-.384-.324-.836-.324-1.356v-1.8c0-.528.108-.98.324-1.356.216-.376.52-.664.912-.864.4-.2.864-.3 1.392-.3.76 0 1.372.204 1.836.612.464.408.708.964.732 1.668h-1.08c-.024-.424-.168-.748-.432-.972-.256-.232-.608-.348-1.056-.348-.472 0-.848.136-1.128.408-.28.264-.42.644-.42 1.14v1.812c0 .496.14.88.42 1.152.28.272.656.408 1.128.408.448 0 .8-.116 1.056-.348.264-.232.408-.556.432-.972h1.08c-.024.704-.268 1.26-.732 1.668-.464.408-1.076.612-1.836.612zm6.63-.12v-5.652h-2.4v-.948h5.88v.948h-2.4V134h-1.08zm5.264 0v-6.6h2.856c.688 0 1.22.156 1.596.468.376.304.564.732.564 1.284 0 .456-.156.824-.468 1.104-.312.272-.724.408-1.236.408v-.096c.56 0 1.008.14 1.344.42.344.28.516.656.516 1.128 0 .592-.2 1.056-.6 1.392-.4.328-.96.492-1.68.492h-2.892zm1.056-.948h1.836c.384 0 .68-.084.888-.252.216-.168.324-.404.324-.708 0-.312-.108-.552-.324-.72-.208-.168-.504-.252-.888-.252H63.55v1.932zm0-2.868h1.8c.336 0 .6-.08.792-.24.2-.16.3-.384.3-.672 0-.288-.096-.512-.288-.672-.192-.168-.46-.252-.804-.252h-1.8v1.836zm8.611 3.936c-.52 0-.976-.104-1.368-.312a2.258 2.258 0 01-.9-.876c-.208-.384-.312-.828-.312-1.332v-1.8c0-.512.105-.956.313-1.332.216-.376.516-.668.9-.876.391-.208.847-.312 1.367-.312s.972.104 1.356.312c.392.208.692.5.9.876.216.376.325.82.325 1.332v1.164h-4.105v.636c0 .52.132.92.396 1.2.264.272.64.408 1.128.408.416 0 .752-.072 1.008-.216a.953.953 0 00.468-.672h1.08c-.072.552-.344.992-.816 1.32-.463.32-1.043.48-1.74.48zm1.524-3.876v-.444c0-.52-.132-.92-.396-1.2-.256-.28-.632-.42-1.128-.42-.488 0-.864.14-1.128.42-.264.28-.396.68-.396 1.2v.348h3.132l-.084.096zm3.2 3.756v-6.6h1.08v2.748h2.784V127.4h1.08v6.6h-1.08v-2.868h-2.784V134h-1.08zm7.195 0v-6.6h1.08v2.748h2.784V127.4h1.08v6.6h-1.08v-2.868H85.16V134h-1.08zm9.667.096c-.528 0-.984-.1-1.368-.3a2.178 2.178 0 01-.9-.864c-.208-.384-.312-.836-.312-1.356v-1.752c0-.528.104-.98.312-1.356.216-.376.516-.664.9-.864.384-.2.84-.3 1.368-.3.528 0 .984.1 1.368.3.384.2.68.488.888.864.216.376.324.824.324 1.344v1.764c0 .52-.108.972-.324 1.356a2.103 2.103 0 01-.888.864c-.384.2-.84.3-1.368.3zm0-.96c.472 0 .84-.132 1.104-.396.264-.264.396-.652.396-1.164v-1.752c0-.512-.132-.9-.396-1.164-.264-.264-.632-.396-1.104-.396-.464 0-.832.132-1.104.396-.264.264-.396.652-.396 1.164v1.752c0 .512.132.9.396 1.164.272.264.64.396 1.104.396zm7.22.984c-.528 0-.992-.1-1.392-.3a2.161 2.161 0 01-.912-.864c-.216-.384-.324-.836-.324-1.356v-1.8c0-.528.108-.98.324-1.356.216-.376.52-.664.912-.864.4-.2.864-.3 1.392-.3.76 0 1.372.204 1.836.612.464.408.708.964.732 1.668h-1.08c-.024-.424-.168-.748-.432-.972-.256-.232-.608-.348-1.056-.348-.472 0-.848.136-1.128.408-.28.264-.42.644-.42 1.14v1.812c0 .496.14.88.42 1.152.28.272.656.408 1.128.408.448 0 .8-.116 1.056-.348.264-.232.408-.556.432-.972h1.08c-.024.704-.268 1.26-.732 1.668-.464.408-1.076.612-1.836.612zm6.631-.12v-5.652h-2.4v-.948h5.88v.948h-2.4V134h-1.08zm5.311 0v-6.6h1.08v2.424h1.944c.744 0 1.328.188 1.752.564.432.368.648.876.648 1.524 0 .64-.216 1.148-.648 1.524-.432.376-1.016.564-1.752.564h-3.024zm1.08-.984h1.944c.416 0 .732-.092.948-.276.224-.192.336-.468.336-.828 0-.36-.112-.632-.336-.816-.216-.192-.532-.288-.948-.288h-1.944v2.208zm15.423 1.068c-.696 0-1.268-.148-1.716-.444a1.764 1.764 0 01-.792-1.2h1.14c.056.2.204.364.444.492.248.128.556.192.924.192h.564c.392 0 .696-.092.912-.276a.887.887 0 00.336-.72c0-.32-.108-.572-.324-.756-.208-.184-.516-.276-.924-.276h-1.452v-.936h1.416c.368 0 .648-.088.84-.264a.9.9 0 00.288-.696c0-.2-.044-.368-.132-.504a.763.763 0 00-.372-.312 1.551 1.551 0 00-.612-.108h-.6c-.32 0-.596.072-.828.216-.232.144-.372.32-.42.528h-1.14c.08-.496.34-.904.78-1.224.44-.32.976-.48 1.608-.48h.6c.472 0 .876.076 1.212.228.336.144.592.352.768.624.184.272.276.596.276.972 0 .392-.128.716-.384.972-.256.248-.616.388-1.08.42v.048c.568.04.98.192 1.236.456s.384.644.384 1.14c0 .584-.216 1.048-.648 1.392-.432.344-1.012.516-1.74.516h-.564zm6.931.036c-.696 0-1.244-.176-1.644-.528-.4-.36-.6-.844-.6-1.452 0-.616.2-1.1.6-1.452.4-.352.94-.528 1.62-.528h2.04v-.66c0-.408-.124-.72-.372-.936-.24-.224-.584-.336-1.032-.336-.392 0-.72.084-.984.252-.264.16-.416.38-.456.66h-1.08c.072-.568.34-1.02.804-1.356.464-.336 1.044-.504 1.74-.504.76 0 1.36.196 1.8.588.44.392.66.924.66 1.596V134h-1.056v-1.26h-.18l.18-.18c0 .48-.188.86-.564 1.14-.368.28-.86.42-1.476.42zm.264-.852c.512 0 .932-.128 1.26-.384.328-.256.492-.584.492-.984v-.936h-2.016c-.36 0-.644.1-.852.3-.208.2-.312.472-.312.816 0 .368.124.66.372.876.256.208.608.312 1.056.312zM13.136 152.16l.972-2.568-2.448-6.192h1.2l1.536 4.08c.056.136.108.3.156.492l.12.468.12-.468c.048-.192.096-.356.144-.492l1.44-4.08h1.164l-3.252 8.76h-1.152zm8.683-2.04c-.528 0-.992-.1-1.392-.3a2.161 2.161 0 01-.912-.864c-.216-.384-.324-.836-.324-1.356v-1.8c0-.528.108-.98.324-1.356.216-.376.52-.664.912-.864.4-.2.864-.3 1.392-.3.76 0 1.372.204 1.836.612.464.408.708.964.732 1.668h-1.08c-.024-.424-.168-.748-.432-.972-.256-.232-.608-.348-1.056-.348-.472 0-.848.136-1.128.408-.28.264-.42.644-.42 1.14v1.812c0 .496.14.88.42 1.152.28.272.656.408 1.128.408.448 0 .8-.116 1.056-.348.264-.232.408-.556.432-.972h1.08c-.024.704-.268 1.26-.732 1.668-.464.408-1.076.612-1.836.612zm4.7-.12v-6.6h4.944v6.6h-1.08v-5.616h-2.784V150h-1.08zm9.667.12c-.52 0-.976-.104-1.368-.312a2.258 2.258 0 01-.9-.876c-.208-.384-.312-.828-.312-1.332v-1.8c0-.512.104-.956.312-1.332.216-.376.516-.668.9-.876.392-.208.848-.312 1.368-.312.52 0 .972.104 1.356.312.392.208.692.5.9.876.216.376.324.82.324 1.332v1.164h-4.104v.636c0 .52.132.92.396 1.2.264.272.64.408 1.128.408.416 0 .752-.072 1.008-.216a.953.953 0 00.468-.672h1.08c-.072.552-.344.992-.816 1.32-.464.32-1.044.48-1.74.48zm1.524-3.876v-.444c0-.52-.132-.92-.396-1.2-.256-.28-.632-.42-1.128-.42-.488 0-.864.14-1.128.42-.264.28-.396.68-.396 1.2v.348h3.132l-.084.096zM40.38 150l2.34-3.396-2.196-3.204h1.272l1.308 2.04c.056.088.108.184.156.288.056.104.1.188.132.252.024-.064.06-.148.108-.252.056-.104.112-.2.168-.288l1.32-2.04h1.26l-2.196 3.216L46.381 150H45.11l-1.416-2.16a3.356 3.356 0 01-.168-.3 2.599 2.599 0 00-.132-.288c-.032.072-.08.168-.144.288a2.125 2.125 0 01-.18.3L41.641 150h-1.26zm14.955 0v-6.6h1.08v2.724h1.128l1.92-2.724H60.7l-2.22 3.144L60.736 150h-1.26l-1.92-2.94h-1.14V150h-1.08zm9.055.12c-.696 0-1.244-.176-1.644-.528-.4-.36-.6-.844-.6-1.452 0-.616.2-1.1.6-1.452.4-.352.94-.528 1.62-.528h2.04v-.66c0-.408-.124-.72-.372-.936-.24-.224-.584-.336-1.032-.336-.392 0-.72.084-.984.252-.264.16-.416.38-.456.66h-1.08c.072-.568.34-1.02.804-1.356.464-.336 1.044-.504 1.74-.504.76 0 1.36.196 1.8.588.44.392.66.924.66 1.596V150H66.43v-1.26h-.18l.18-.18c0 .48-.188.86-.564 1.14-.368.28-.86.42-1.476.42zm.264-.852c.512 0 .932-.128 1.26-.384.328-.256.492-.584.492-.984v-.936H64.39c-.36 0-.644.1-.852.3-.208.2-.312.472-.312.816 0 .368.124.66.372.876.256.208.608.312 1.056.312zm4.123.732l1.44-3.384-1.344-3.216h1.044l1.152 2.88h.637v-2.88h.912v2.88h.612l1.188-2.88h1.032l-1.344 3.18 1.44 3.42h-1.08l-1.2-3h-.648v3h-.912v-3h-.648l-1.212 3h-1.069zm7.34 1.68v-2.604h.54c.136-.136.276-.404.42-.804.152-.4.232-.908.24-1.524l.072-3.348h4.308v5.676h.84v2.604h-.96V150h-4.5v1.68h-.96zm1.68-2.604h2.82v-4.716H78.41l-.048 2.412c-.008.632-.076 1.144-.204 1.536-.128.392-.248.648-.36.768zm8.755 1.02c-.528 0-.984-.1-1.368-.3a2.178 2.178 0 01-.9-.864c-.208-.384-.312-.836-.312-1.356v-1.752c0-.528.104-.98.312-1.356.216-.376.516-.664.9-.864.384-.2.84-.3 1.368-.3.528 0 .984.1 1.368.3.384.2.68.488.888.864.216.376.324.824.324 1.344v1.764c0 .52-.108.972-.324 1.356a2.103 2.103 0 01-.888.864c-.384.2-.84.3-1.368.3zm0-.96c.472 0 .84-.132 1.104-.396.264-.264.396-.652.396-1.164v-1.752c0-.512-.132-.9-.396-1.164-.264-.264-.632-.396-1.104-.396-.464 0-.832.132-1.104.396-.264.264-.396.652-.396 1.164v1.752c0 .512.132.9.396 1.164.272.264.64.396 1.104.396zm5.155.864v-6.6h4.74v.984h-3.66V150h-1.08zm9.236.096c-.528 0-.984-.1-1.368-.3a2.178 2.178 0 01-.9-.864c-.208-.384-.312-.836-.312-1.356v-1.752c0-.528.104-.98.312-1.356.216-.376.516-.664.9-.864.384-.2.84-.3 1.368-.3.528 0 .984.1 1.368.3.384.2.68.488.888.864.216.376.324.824.324 1.344v1.764c0 .52-.108.972-.324 1.356a2.103 2.103 0 01-.888.864c-.384.2-.84.3-1.368.3zm0-.96c.472 0 .84-.132 1.104-.396.264-.264.396-.652.396-1.164v-1.752c0-.512-.132-.9-.396-1.164-.264-.264-.632-.396-1.104-.396-.464 0-.832.132-1.104.396-.264.264-.396.652-.396 1.164v1.752c0 .512.132.9.396 1.164.272.264.64.396 1.104.396zM12.128 166v-6.6h4.944v6.6h-1.08v-5.616h-2.784V166h-1.08zm7.171 2.16v-8.76h1.08v1.26h.216l-.216.252c0-.504.164-.9.492-1.188.336-.296.776-.444 1.32-.444.664 0 1.192.22 1.584.66.4.432.6 1.028.6 1.788v1.932c0 .504-.092.94-.276 1.308a1.962 1.962 0 01-.756.852c-.32.2-.704.3-1.152.3-.536 0-.972-.148-1.308-.444-.336-.296-.504-.692-.504-1.188l.216.252h-.24l.024 1.5v1.92H19.3zm2.532-2.976c.456 0 .812-.136 1.068-.408.264-.272.396-.664.396-1.176v-1.8c0-.512-.132-.904-.396-1.176-.256-.272-.612-.408-1.068-.408-.44 0-.792.14-1.056.42-.264.28-.396.668-.396 1.164v1.8c0 .496.132.884.396 1.164.264.28.616.42 1.056.42zm7.16.912c-.528 0-.984-.1-1.368-.3a2.178 2.178 0 01-.9-.864c-.208-.384-.312-.836-.312-1.356v-1.752c0-.528.104-.98.312-1.356.216-.376.516-.664.9-.864.384-.2.84-.3 1.368-.3.528 0 .984.1 1.368.3.384.2.68.488.888.864.216.376.324.824.324 1.344v1.764c0 .52-.108.972-.324 1.356a2.103 2.103 0 01-.888.864c-.384.2-.84.3-1.368.3zm0-.96c.472 0 .84-.132 1.104-.396.264-.264.396-.652.396-1.164v-1.752c0-.512-.132-.9-.396-1.164-.264-.264-.632-.396-1.104-.396-.464 0-.832.132-1.104.396-.264.264-.396.652-.396 1.164v1.752c0 .512.132.9.396 1.164.272.264.64.396 1.104.396zm7.195.984c-.52 0-.976-.104-1.368-.312a2.258 2.258 0 01-.9-.876c-.208-.384-.312-.828-.312-1.332v-1.8c0-.512.104-.956.312-1.332.216-.376.516-.668.9-.876.392-.208.848-.312 1.368-.312.52 0 .972.104 1.356.312.392.208.692.5.9.876.216.376.324.82.324 1.332v1.164h-4.104v.636c0 .52.132.92.396 1.2.264.272.64.408 1.128.408.416 0 .752-.072 1.008-.216a.953.953 0 00.468-.672h1.08c-.072.552-.344.992-.816 1.32-.464.32-1.044.48-1.74.48zm1.524-3.876v-.444c0-.52-.132-.92-.396-1.2-.256-.28-.632-.42-1.128-.42-.488 0-.864.14-1.128.42-.264.28-.396.68-.396 1.2v.348h3.132l-.084.096zM40.945 166v-6.6h1.08v2.724h1.128l1.92-2.724h1.236l-2.22 3.144L46.345 166h-1.26l-1.92-2.94h-1.14V166h-1.08zm9.092 0v-5.652h-2.4v-.948h5.88v.948h-2.4V166h-1.08zm7.159.12c-.696 0-1.244-.176-1.644-.528-.4-.36-.6-.844-.6-1.452 0-.616.2-1.1.6-1.452.4-.352.94-.528 1.62-.528h2.04v-.66c0-.408-.124-.72-.372-.936-.24-.224-.584-.336-1.032-.336-.392 0-.72.084-.984.252-.264.16-.416.38-.456.66h-1.08c.072-.568.34-1.02.804-1.356.464-.336 1.044-.504 1.74-.504.76 0 1.36.196 1.8.588.44.392.66.924.66 1.596V166h-1.056v-1.26h-.18l.18-.18c0 .48-.188.86-.564 1.14-.368.28-.86.42-1.476.42zm.264-.852c.512 0 .932-.128 1.26-.384.328-.256.492-.584.492-.984v-.936h-2.016c-.36 0-.644.1-.852.3-.208.2-.312.472-.312.816 0 .368.124.66.372.876.256.208.608.312 1.056.312zm7.507.852c-.304 0-.548-.088-.732-.264-.176-.176-.264-.412-.264-.708 0-.312.088-.56.264-.744.184-.184.428-.276.732-.276s.544.092.72.276c.184.184.276.432.276.744 0 .296-.092.532-.276.708-.176.176-.416.264-.72.264z" fill="#000"/><defs><linearGradient id="paint0_linear_394_891" x1="0" y1="72.893" x2="223.615" y2="72.893" gradientUnits="userSpaceOnUse"><stop stop-color="#F1FFF7"/><stop offset="1" stop-color="#546A65"/></linearGradient><linearGradient id="paint1_linear_394_891" x1="11.769" y1="8.747" x2="159.382" y2="151.645" gradientUnits="userSpaceOnUse"><stop stop-color="#475E59" stop-opacity=".7"/><stop offset="1" stop-color="#fff" stop-opacity=".7"/></linearGradient><linearGradient id="paint2_linear_394_891" x1="0" y1="72.472" x2="223.615" y2="72.472" gradientUnits="userSpaceOnUse"><stop stop-color="#F1FFF7"/><stop offset="1" stop-color="#546A65"/></linearGradient><linearGradient id="paint3_linear_394_891" x1="11.769" y1="8.697" x2="158.553" y2="151.619" gradientUnits="userSpaceOnUse"><stop stop-color="#475E59" stop-opacity=".7"/><stop offset="1" stop-color="#fff" stop-opacity=".7"/></linearGradient><filter id="filter0_f_394_891" x="-18.273" y="124.187" width="94.045" height="79.728" filterUnits="userSpaceOnUse" color-interpolation-filters="sRGB"><feFlood flood-opacity="0" result="BackgroundImageFix"/><feBlend in="SourceGraphic" in2="BackgroundImageFix" result="shape"/><feGaussianBlur stdDeviation="2" result="effect1_foregroundBlur_394_891"/></filter></defs></svg>