<svg width="186" height="145" fill="none" xmlns="http://www.w3.org/2000/svg"><g filter="url(#filter0_d_441_1263)"><rect x="4" width="172" height="137" rx="16.011" fill="#4F8348"/></g><path d="M14.903 46v-7.013h3.958V46h-.865v-6.225h-2.228V46h-.865zm5.67 1.73v-7.014h.865v1.009h.173l-.173.202c0-.404.131-.72.394-.951.269-.237.621-.356 1.057-.356.531 0 .954.176 1.268.529.32.345.48.823.48 1.431v1.547c0 .403-.073.752-.22 1.047a1.57 1.57 0 01-.606.682c-.256.16-.564.24-.922.24-.43 0-.778-.118-1.047-.355-.27-.237-.404-.554-.404-.951l.173.201h-.192l.02 1.201v1.537h-.866zm2.027-2.383c.366 0 .65-.11.855-.327.212-.218.318-.532.318-.941v-1.441c0-.41-.106-.724-.317-.942-.205-.218-.49-.326-.855-.326-.353 0-.634.112-.846.336-.211.224-.317.535-.317.932v1.44c0 .398.106.708.317.932.212.225.493.337.846.337zm5.661.75a2.31 2.31 0 01-1.095-.25 1.807 1.807 0 01-.72-.702 2.203 2.203 0 01-.25-1.066v-1.441c0-.41.083-.766.25-1.067.173-.3.413-.535.72-.701a2.31 2.31 0 011.095-.25c.417 0 .779.084 1.086.25.314.166.554.4.72.701.173.301.26.657.26 1.067v.931H27.04v.51c0 .416.106.736.317.96.212.218.513.327.903.327.333 0 .602-.058.807-.173a.764.764 0 00.375-.538h.865a1.472 1.472 0 01-.654 1.057c-.371.256-.835.384-1.393.384zm1.22-3.104v-.355c0-.417-.105-.737-.317-.961-.205-.224-.506-.336-.903-.336-.39 0-.691.112-.903.336-.211.224-.317.544-.317.96v.28h2.508l-.068.076zm1.876 4.352V45.26h.433c.108-.109.22-.323.336-.643.121-.32.185-.727.192-1.22l.058-2.68h3.448v4.543h.673v2.085h-.769V46h-3.602v1.345h-.769zm1.345-2.085h2.258v-3.775h-1.768l-.038 1.93c-.007.507-.061.917-.164 1.23-.102.314-.198.52-.288.615zm6.939.817c-.423 0-.788-.08-1.096-.24a1.744 1.744 0 01-.72-.692c-.167-.307-.25-.67-.25-1.086v-1.402c0-.423.083-.785.25-1.086.173-.3.413-.531.72-.691.308-.16.673-.24 1.096-.24.422 0 .787.08 1.095.24.307.16.544.39.71.691.174.301.26.66.26 1.076v1.412c0 .417-.086.779-.26 1.086a1.683 1.683 0 01-.71.692c-.308.16-.673.24-1.095.24zm0-.769c.378 0 .672-.105.884-.317.21-.211.317-.522.317-.932v-1.402c0-.41-.106-.72-.317-.932-.212-.211-.506-.317-.884-.317-.372 0-.666.106-.884.317-.212.211-.317.522-.317.932v1.402c0 .41.105.72.317.932.218.212.512.317.884.317zm5.709.788c-.423 0-.795-.08-1.115-.24a1.73 1.73 0 01-.73-.692c-.173-.307-.26-.67-.26-1.085v-1.441c0-.423.087-.785.26-1.086a1.73 1.73 0 01.73-.692c.32-.16.692-.24 1.114-.24.609 0 1.099.163 1.47.49.372.327.567.772.586 1.336h-.864c-.02-.34-.135-.6-.346-.779-.205-.185-.487-.278-.846-.278-.377 0-.678.109-.902.326-.225.212-.337.516-.337.913v1.45c0 .398.112.705.337.923.224.218.525.327.902.327.36 0 .641-.093.846-.28.211-.185.327-.444.346-.777h.864c-.019.563-.214 1.008-.586 1.335-.371.327-.861.49-1.47.49zM50.587 46v-4.525h-1.922v-.759h4.708v.76h-1.922V46h-.864zm5.66.096c-.557 0-.995-.14-1.316-.423-.32-.288-.48-.675-.48-1.162 0-.493.16-.88.48-1.163.32-.281.753-.422 1.297-.422h1.633v-.529c0-.326-.099-.576-.297-.749-.192-.18-.468-.269-.827-.269-.313 0-.576.067-.787.202a.717.717 0 00-.365.528h-.865c.058-.454.272-.816.644-1.085.371-.27.835-.404 1.393-.404.608 0 1.088.157 1.44.471.353.314.529.74.529 1.278V46h-.845v-1.009h-.145l.145-.144c0 .384-.15.689-.452.913-.294.224-.688.336-1.181.336zm.212-.682c.41 0 .746-.102 1.008-.307a.957.957 0 00.394-.788v-.75h-1.614c-.288 0-.515.08-.682.24-.166.16-.25.379-.25.654 0 .294.1.528.298.701.205.167.487.25.846.25zm3.96.586v-5.284h2.287c.55 0 .976.125 1.277.375.301.243.452.586.452 1.028 0 .365-.125.66-.375.884-.25.217-.58.326-.99.326v-.077c.449 0 .808.113 1.077.337.275.224.413.525.413.903 0 .474-.16.845-.48 1.114-.32.263-.77.394-1.346.394H60.42zm.846-.759h1.47c.307 0 .544-.067.71-.202.173-.134.26-.323.26-.567 0-.25-.087-.441-.26-.576-.166-.134-.403-.202-.71-.202h-1.47v1.547zm0-2.296h1.44c.27 0 .481-.064.635-.192.16-.128.24-.307.24-.538 0-.23-.077-.41-.23-.538-.154-.135-.369-.202-.644-.202h-1.441v1.47zM66.11 46v-5.284h.826v2.882c0 .186-.006.381-.02.586-.005.205-.018.4-.037.586a6.21 6.21 0 01-.049.461l2.133-4.515h1.105V46h-.826v-2.882c0-.186.003-.381.01-.586.012-.205.028-.4.047-.586l.048-.47L67.215 46H66.11zm5.027.067v-.807h.173c.294 0 .5-.115.614-.346.122-.23.186-.643.193-1.239l.057-2.959h3.584V46h-.865v-4.496h-1.864l-.048 2.21c-.013.557-.077 1.008-.192 1.354-.109.346-.282.599-.519.76-.23.16-.534.24-.912.24h-.221zM77.489 46v-5.284h.826v2.882c0 .186-.006.381-.019.586-.006.205-.019.4-.038.586-.013.18-.029.333-.048.461l2.132-4.515h1.105V46h-.826v-2.882c0-.186.003-.381.01-.586.012-.205.028-.4.048-.586l.048-.47L78.594 46h-1.105zm13.378.096c-.423 0-.794-.08-1.115-.24a1.73 1.73 0 01-.73-.692c-.173-.307-.26-.67-.26-1.085v-1.441c0-.423.087-.785.26-1.086a1.73 1.73 0 01.73-.692c.32-.16.692-.24 1.115-.24.608 0 1.098.163 1.47.49.371.327.566.772.586 1.336h-.865c-.02-.34-.135-.6-.346-.779-.205-.185-.487-.278-.845-.278-.378 0-.68.109-.903.326-.224.212-.337.516-.337.913v1.45c0 .398.113.705.337.923.224.218.525.327.903.327.358 0 .64-.093.845-.28.212-.185.327-.444.346-.777h.865c-.02.563-.215 1.008-.586 1.335-.372.327-.862.49-1.47.49zm3.72-.096v-5.284h.865v2.181h.903l1.537-2.18h.99l-1.778 2.516L98.91 46h-1.009l-1.537-2.354h-.912V46h-.865zm5.642 1.73v-7.014h.864v1.009h.173l-.173.202c0-.404.132-.72.394-.951.269-.237.621-.356 1.057-.356.531 0 .954.176 1.268.529.32.345.48.823.48 1.431v1.547c0 .403-.073.752-.221 1.047a1.568 1.568 0 01-.605.682c-.256.16-.563.24-.922.24-.429 0-.778-.118-1.047-.355-.269-.237-.404-.554-.404-.951l.173.201h-.192l.019 1.201v1.537h-.864zm2.027-2.383c.365 0 .65-.11.855-.327.211-.218.317-.532.317-.941v-1.441c0-.41-.106-.724-.317-.942-.205-.218-.49-.326-.855-.326-.353 0-.634.112-.846.336-.211.224-.317.535-.317.932v1.44c0 .398.106.708.317.932.212.225.493.337.846.337zm3.682.653v-5.284h.826v2.882c0 .186-.007.381-.02.586a8.08 8.08 0 01-.038.586c-.013.18-.029.333-.048.461l2.133-4.515h1.104V46h-.826v-2.882c0-.186.004-.381.01-.586.013-.205.029-.4.048-.586l.048-.47L107.042 46h-1.104zm5.689 0v-5.284h3.958V46h-.864v-4.496h-2.229V46h-.865zm7.237 0v-4.525h-1.922v-.759h4.707v.76h-1.921V46h-.864zm3.864 0v-5.284h.807v1.94h.432c.57 0 1.018.151 1.345.452.333.295.5.702.5 1.22 0 .52-.167.93-.5 1.23-.327.295-.775.442-1.345.442h-1.239zm.807-.692h.432c.34 0 .602-.086.788-.26.192-.172.288-.412.288-.72 0-.307-.096-.547-.288-.72-.186-.173-.448-.26-.788-.26h-.432v1.96zm2.901.692v-5.284h.807V46h-.807zm7.95 0v-5.284h.826v2.882c0 .186-.006.381-.019.586-.007.205-.019.4-.039.586-.012.18-.028.333-.048.461l2.133-4.515h1.105V46h-.826v-2.882c0-.186.003-.381.009-.586.013-.205.029-.4.048-.586l.048-.47L135.491 46h-1.105zM16.901 65.096a2.46 2.46 0 01-1.114-.24 1.73 1.73 0 01-.73-.692c-.173-.307-.26-.67-.26-1.085v-1.441c0-.423.087-.785.26-1.086a1.73 1.73 0 01.73-.692c.32-.16.691-.24 1.114-.24.609 0 1.099.163 1.47.49.372.327.567.772.586 1.336h-.864c-.02-.34-.135-.6-.346-.779-.205-.185-.487-.278-.846-.278-.378 0-.679.109-.903.326-.224.212-.336.516-.336.913v1.45c0 .398.112.705.336.923.224.218.525.326.903.326.359 0 .64-.092.846-.278.211-.186.326-.445.346-.778h.864c-.02.563-.215 1.008-.586 1.335-.371.327-.861.49-1.47.49zM22.14 65v-4.525h-1.921v-.759h4.707v.76h-1.921V65h-.865zm5.661.096c-.557 0-.996-.14-1.316-.423-.32-.288-.48-.675-.48-1.162 0-.493.16-.88.48-1.163.32-.281.753-.422 1.297-.422h1.633v-.529c0-.326-.1-.576-.298-.749-.192-.18-.467-.269-.826-.269-.314 0-.576.067-.788.202a.718.718 0 00-.365.528h-.864c.057-.454.272-.816.643-1.085.372-.27.836-.404 1.393-.404.609 0 1.09.157 1.441.471.353.314.529.74.529 1.278V65h-.846v-1.009h-.144l.144-.144c0 .384-.15.689-.451.913-.295.224-.689.336-1.182.336zm.212-.682c.41 0 .746-.103 1.008-.307a.957.957 0 00.394-.788v-.75H27.8c-.288 0-.515.08-.682.24-.166.16-.25.379-.25.654 0 .294.1.528.298.701.205.167.487.25.846.25zm3.96.586v-5.284h.865v2.2h2.228v-2.2h.865V65h-.865v-2.296h-2.228V65h-.865zm5.075 1.345V64.26h.432c.109-.109.221-.323.336-.643.122-.32.186-.727.193-1.22l.057-2.68h3.449v4.543h.672v2.085h-.768V65h-3.603v1.345h-.768zm1.345-2.085h2.257v-3.775h-1.767l-.039 1.93c-.006.507-.06.917-.163 1.23-.102.314-.199.52-.288.615zm6.477.836c-.557 0-.996-.14-1.316-.423-.32-.288-.48-.675-.48-1.162 0-.493.16-.88.48-1.163.32-.281.753-.422 1.297-.422h1.633v-.529c0-.326-.1-.576-.298-.749-.192-.18-.467-.269-.826-.269-.314 0-.576.067-.788.202a.717.717 0 00-.365.528h-.864c.057-.454.272-.816.643-1.085.372-.27.836-.404 1.393-.404.609 0 1.09.157 1.441.471.353.314.529.74.529 1.278V65h-.846v-1.009h-.144l.144-.144c0 .384-.15.689-.451.913-.295.224-.689.336-1.182.336zm.212-.682c.41 0 .746-.103 1.008-.307a.957.957 0 00.394-.788v-.75H44.87c-.288 0-.515.08-.682.24-.166.16-.25.379-.25.654 0 .294.1.528.298.701.205.167.487.25.846.25zm3.94 2.315v-7.013h.865v1.009h.173l-.173.202c0-.404.132-.72.394-.951.27-.237.621-.356 1.057-.356.531 0 .954.176 1.268.529.32.345.48.823.48 1.431v1.547c0 .403-.073.752-.22 1.047a1.57 1.57 0 01-.606.682c-.256.16-.563.24-.922.24-.43 0-.778-.118-1.047-.355-.27-.237-.404-.554-.404-.951l.173.201h-.192l.02 1.201v1.537h-.865zm2.028-2.382c.365 0 .65-.11.855-.327.211-.218.317-.531.317-.941v-1.441c0-.41-.106-.724-.317-.942-.205-.218-.49-.326-.855-.326-.352 0-.634.112-.846.336-.211.224-.317.535-.317.932v1.44c0 .398.106.708.317.932.212.225.493.337.846.337zm5.228.653v-4.525h-1.921v-.759h4.707v.76h-1.921V65h-.865zm3.865 0v-5.284h.807v1.94h.432c.57 0 1.018.151 1.345.452.333.295.5.702.5 1.22 0 .52-.167.93-.5 1.23-.327.295-.775.442-1.345.442h-1.24zm.807-.692h.432c.34 0 .602-.086.788-.26.192-.172.288-.412.288-.72 0-.307-.096-.547-.288-.72-.186-.173-.449-.26-.788-.26h-.432v1.96zm2.9.692v-5.284h.808V65h-.807zm9.93.077c-.423 0-.788-.08-1.096-.24a1.744 1.744 0 01-.72-.692c-.167-.307-.25-.67-.25-1.086v-1.402c0-.423.083-.785.25-1.086.173-.3.413-.531.72-.691.308-.16.673-.24 1.096-.24.422 0 .787.08 1.095.24.307.16.544.39.71.691.174.301.26.66.26 1.076v1.412c0 .417-.086.779-.26 1.086a1.683 1.683 0 01-.71.692c-.308.16-.673.24-1.095.24zm0-.769c.377 0 .672-.105.883-.317.212-.211.317-.522.317-.932v-1.402c0-.41-.105-.72-.317-.932-.211-.211-.506-.317-.883-.317-.372 0-.666.106-.884.317-.212.211-.317.522-.317.932v1.402c0 .41.105.72.317.932.218.212.512.317.884.317zm5.69.788c-.622 0-1.115-.183-1.48-.547-.359-.372-.538-.878-.538-1.518v-2.402c0-.846.211-1.495.634-1.95.422-.461 1.028-.692 1.816-.692h1.345v.865H79.9c-.518 0-.912.153-1.181.46-.27.302-.404.74-.404 1.317v.624h.135l-.135.193c.007-.378.135-.673.385-.884.25-.212.589-.317 1.018-.317.557 0 .99.179 1.297.538.314.358.47.851.47 1.48v.768c0 .429-.08.797-.24 1.104-.16.308-.39.545-.691.711-.301.167-.663.25-1.086.25zm0-.769c.37 0 .656-.112.854-.336.199-.224.298-.544.298-.96v-.769c0-.416-.1-.736-.298-.96-.198-.225-.483-.337-.855-.337-.371 0-.656.112-.855.336-.198.218-.298.538-.298.961v.769c0 .416.1.736.298.96.199.224.484.337.855.337zm7.562 2.018V65h-4.14v-5.284h.778v4.554h1.114v-4.554h.673v4.554h1.114v-4.554h.778v4.554h.452v2.075h-.769zm3.816-1.249a2.3 2.3 0 01-1.095-.25 1.807 1.807 0 01-.72-.701 2.203 2.203 0 01-.25-1.066v-1.441c0-.41.083-.766.25-1.067.173-.3.413-.535.72-.701.314-.166.68-.25 1.096-.25.416 0 .778.084 1.085.25.314.166.554.4.72.701.173.301.26.657.26 1.067v.931h-3.285v.51c0 .416.105.736.317.96.21.218.512.327.903.327.333 0 .602-.058.806-.173a.764.764 0 00.375-.538h.865a1.472 1.472 0 01-.654 1.057c-.37.256-.835.384-1.392.384zm1.22-3.103v-.355c0-.417-.105-.737-.316-.961-.205-.224-.506-.336-.904-.336-.39 0-.691.112-.902.336-.212.224-.317.544-.317.96v.28h2.507l-.067.076zM94.559 65v-5.284h.865v2.2h2.229v-2.2h.864V65h-.864v-2.296h-2.23V65h-.864zm5.69 0v-5.284h.826v2.882c0 .186-.006.381-.019.586-.007.205-.019.4-.039.586-.012.18-.028.333-.048.461l2.133-4.515h1.105V65h-.826v-2.882c0-.186.003-.381.009-.586.013-.205.029-.4.048-.586l.048-.47L101.353 65h-1.105zm5.363 0l1.354-2.037c-.403-.096-.717-.281-.941-.557-.218-.275-.327-.618-.327-1.028 0-.519.17-.925.509-1.22.346-.294.817-.442 1.413-.442h2.276V65h-.864v-1.97h-1.163L106.62 65h-1.009zm2.008-2.738h1.412v-1.777h-1.412c-.321 0-.574.08-.759.24-.186.154-.279.371-.279.653 0 .276.093.493.279.654.185.153.438.23.759.23zM16.901 84.096a2.46 2.46 0 01-1.114-.24 1.73 1.73 0 01-.73-.692c-.173-.307-.26-.67-.26-1.085v-1.441c0-.423.087-.785.26-1.086a1.73 1.73 0 01.73-.692c.32-.16.691-.24 1.114-.24.609 0 1.099.163 1.47.49.372.327.567.772.586 1.335h-.864c-.02-.339-.135-.598-.346-.778-.205-.185-.487-.278-.846-.278-.378 0-.679.109-.903.326-.224.212-.336.516-.336.913v1.45c0 .398.112.705.336.923.224.218.525.326.903.326.359 0 .64-.092.846-.278.211-.186.326-.445.346-.778h.864c-.02.563-.215 1.008-.586 1.335-.371.327-.861.49-1.47.49zm9.41-.096v-5.284h.865v2.181h.903l1.537-2.18h.99l-1.778 2.516L30.634 84h-1.009l-1.537-2.354h-.912V84h-.865zm4.998.067v-.807h.173c.295 0 .5-.115.615-.346.122-.23.186-.643.192-1.239l.058-2.959h3.583V84h-.865v-4.496h-1.863l-.048 2.21c-.013.557-.077 1.008-.193 1.354-.108.346-.281.599-.518.76-.23.16-.535.24-.913.24h-.22zM37.662 84v-5.284h.826v2.882c0 .186-.007.381-.02.586-.006.205-.019.4-.038.586a6.1 6.1 0 01-.048.462l2.133-4.516h1.105V84h-.826v-2.882c0-.186.003-.381.01-.586.012-.205.028-.4.047-.586l.048-.47L38.766 84h-1.104zm7.668.096c-.416 0-.781-.083-1.095-.25a1.807 1.807 0 01-.72-.701 2.204 2.204 0 01-.25-1.066v-1.441c0-.41.083-.766.25-1.067.172-.3.413-.534.72-.701a2.31 2.31 0 011.095-.25c.417 0 .778.084 1.086.25.314.166.554.4.72.701.173.301.26.657.26 1.067v.931H44.11v.51c0 .416.106.736.317.96.212.218.513.327.903.327.333 0 .602-.058.807-.173a.763.763 0 00.375-.538h.864a1.472 1.472 0 01-.653 1.057c-.371.256-.835.384-1.393.384zm1.22-3.103v-.355c0-.417-.105-.737-.317-.961-.205-.224-.506-.336-.903-.336-.39 0-.691.112-.903.336-.211.224-.317.544-.317.96v.28h2.508l-.068.076zM49.041 84v-5.284h.865v2.2h2.228v-2.2H53V84h-.865v-2.296h-2.228V84h-.865zm7.236 0v-4.525h-1.921v-.759h4.707v.76h-1.921V84h-.865zm5.661.096c-.557 0-.996-.14-1.316-.423-.32-.288-.48-.675-.48-1.162 0-.493.16-.88.48-1.162.32-.282.752-.423 1.297-.423h1.633v-.529c0-.326-.1-.576-.298-.749-.192-.18-.467-.269-.826-.269-.314 0-.576.067-.788.202a.718.718 0 00-.365.528h-.864c.057-.454.272-.816.643-1.085.372-.27.836-.404 1.393-.404.609 0 1.09.157 1.441.471.353.314.529.74.529 1.278V84h-.846v-1.009h-.144l.144-.144c0 .385-.15.689-.451.913-.295.224-.689.336-1.182.336zm.212-.682c.41 0 .746-.103 1.008-.307a.957.957 0 00.394-.788v-.75h-1.614c-.288 0-.515.08-.682.24-.166.16-.25.379-.25.654 0 .294.1.528.298.701.205.167.487.25.846.25zm3.787.586v-5.284h1.172l.692 2.027c.07.205.134.41.192.615.058.199.1.352.125.461.025-.109.064-.262.115-.46.058-.206.118-.414.182-.625l.654-2.018h1.172V84h-.836v-.817c0-.288.003-.602.01-.941l.019-1.028.038-.98c.013-.314.023-.59.03-.826l-.942 3.007h-.913l-.951-2.988c.013.288.022.647.029 1.076.013.43.022.878.029 1.345.012.468.019.913.019 1.335V84h-.836zm5.863 0v-5.284h.826v2.882c0 .186-.007.381-.02.586-.006.205-.019.4-.038.586a6.1 6.1 0 01-.048.462l2.133-4.516h1.105V84h-.827v-2.882c0-.186.004-.381.01-.586.013-.205.029-.4.048-.586l.048-.47L72.904 84H71.8zm7.668.096c-.243 0-.439-.07-.586-.211-.14-.141-.211-.33-.211-.567 0-.25.07-.448.211-.596.147-.147.343-.22.586-.22.244 0 .436.073.577.22.147.148.22.346.22.596 0 .237-.073.426-.22.567-.141.14-.333.211-.577.211z" fill="#fff"/><defs><filter id="filter0_d_441_1263" x=".157" y="0" width="179.685" height="144.685" filterUnits="userSpaceOnUse" color-interpolation-filters="sRGB"><feFlood flood-opacity="0" result="BackgroundImageFix"/><feColorMatrix in="SourceAlpha" values="0 0 0 0 0 0 0 0 0 0 0 0 0 0 0 0 0 0 127 0" result="hardAlpha"/><feOffset dy="3.843"/><feGaussianBlur stdDeviation="1.921"/><feComposite in2="hardAlpha" operator="out"/><feColorMatrix values="0 0 0 0 0 0 0 0 0 0 0 0 0 0 0 0 0 0 0.25 0"/><feBlend in2="BackgroundImageFix" result="effect1_dropShadow_441_1263"/><feBlend in="SourceGraphic" in2="effect1_dropShadow_441_1263" result="shape"/></filter></defs></svg>