<svg width="180" height="145" fill="none" xmlns="http://www.w3.org/2000/svg"><g filter="url(#filter0_d_441_1291)"><rect x="4" width="172" height="137" rx="16.011" fill="#F8EEDA"/></g><path d="M15.92 43.096c-.422 0-.79-.08-1.104-.24a1.744 1.744 0 01-.72-.692c-.167-.307-.25-.67-.25-1.085v-3.17c0-.423.083-.785.25-1.086.172-.301.412-.532.72-.692.313-.16.682-.24 1.104-.24.423 0 .788.083 1.096.25.307.16.544.39.71.692.167.3.25.66.25 1.075h-.864c0-.397-.106-.7-.317-.912-.205-.218-.497-.327-.875-.327-.377 0-.675.106-.893.317-.211.212-.317.516-.317.913v3.18c0 .397.106.704.317.922.218.211.516.317.893.317.378 0 .67-.106.875-.317.211-.218.317-.525.317-.922h.864c0 .41-.083.768-.25 1.076a1.744 1.744 0 01-.71.7c-.308.161-.673.241-1.096.241zM25.282 43v-5.284h3.958V43h-.864v-4.496h-2.229V43h-.865zm7.669.077c-.423 0-.788-.08-1.095-.24a1.744 1.744 0 01-.72-.692c-.167-.307-.25-.67-.25-1.086v-1.402c0-.423.083-.785.25-1.086.172-.3.412-.531.72-.691.307-.16.672-.24 1.095-.24.423 0 .788.08 1.095.24.308.16.544.39.711.691.173.301.26.66.26 1.076v1.412c0 .417-.087.779-.26 1.086a1.684 1.684 0 01-.71.692c-.308.16-.673.24-1.096.24zm0-.769c.378 0 .672-.105.884-.317.211-.211.317-.522.317-.932v-1.402c0-.41-.106-.72-.317-.932-.212-.211-.506-.317-.884-.317-.371 0-.666.106-.884.317-.211.211-.317.522-.317.932v1.402c0 .41.106.72.317.932.218.212.513.317.884.317zm3.538.692v-5.284h1.172l.691 2.027c.07.205.135.41.193.615.057.199.099.352.124.461.026-.109.065-.262.116-.46.057-.206.118-.414.182-.625l.654-2.018h1.172V43h-.836v-.817c0-.288.003-.602.01-.941l.019-1.028c.012-.346.025-.672.038-.98.013-.314.022-.59.029-.826l-.942 3.007H38.2l-.951-2.988c.013.288.022.647.029 1.076.012.43.022.878.028 1.345.013.468.02.913.02 1.335V43h-.836zm7.841.077c-.422 0-.788-.08-1.095-.24a1.744 1.744 0 01-.72-.692c-.167-.307-.25-.67-.25-1.086v-1.402c0-.423.083-.785.25-1.086.172-.3.413-.531.72-.691.307-.16.673-.24 1.095-.24.423 0 .788.08 1.096.24.307.16.544.39.71.691.173.301.26.66.26 1.076v1.412c0 .417-.087.779-.26 1.086a1.684 1.684 0 01-.71.692c-.308.16-.673.24-1.096.24zm0-.769c.378 0 .673-.105.884-.317.212-.211.317-.522.317-.932v-1.402c0-.41-.105-.72-.317-.932-.211-.211-.506-.317-.884-.317-.371 0-.666.106-.883.317-.212.211-.318.522-.318.932v1.402c0 .41.106.72.318.932.217.212.512.317.883.317zm7.563 2.037V43h-4.14v-5.284h.778v4.554h1.114v-4.554h.673v4.554h1.114v-4.554h.778v4.554h.452v2.075h-.769zM53.77 43v-5.284h.865v1.94h1.556c.596 0 1.063.151 1.403.452.345.295.518.702.518 1.22 0 .513-.173.92-.518 1.22-.346.301-.814.452-1.403.452H53.77zm.865-.788h1.556c.333 0 .586-.073.759-.22.18-.154.269-.375.269-.664 0-.288-.09-.506-.27-.653-.172-.153-.425-.23-.758-.23h-1.556v1.767zm7.591.884c-.442 0-.797-.15-1.066-.451-.269-.302-.403-.695-.403-1.182v-.797h-.846V43h-.797v-5.284h.797v2.258h.846v-.72c0-.494.13-.888.394-1.182.269-.301.627-.452 1.075-.452.474 0 .855.15 1.144.452.288.294.432.688.432 1.181v2.21c0 .487-.144.88-.432 1.182-.289.3-.67.451-1.144.451zm0-.672c.244 0 .433-.084.567-.25.141-.173.212-.41.212-.711v-2.21c0-.3-.07-.534-.212-.7-.134-.174-.323-.26-.567-.26a.667.667 0 00-.557.26c-.134.166-.201.4-.201.7v2.21c0 .3.067.538.201.71.135.167.32.25.557.25zm10.12.576v-6.235h-1.921v-.788h4.707v.788h-1.921V43h-.865zm6.122.096c-.416 0-.781-.083-1.095-.25a1.808 1.808 0 01-.72-.701 2.204 2.204 0 01-.25-1.066v-1.441c0-.41.083-.766.25-1.067.172-.3.413-.535.72-.701a2.31 2.31 0 011.095-.25c.416 0 .778.084 1.086.25.314.166.554.4.72.701.173.301.26.657.26 1.067v.931h-3.286v.51c0 .416.106.736.317.96.212.218.513.327.903.327.333 0 .602-.058.807-.173a.764.764 0 00.375-.538h.864a1.472 1.472 0 01-.653 1.057c-.371.256-.836.384-1.393.384zm1.22-3.103v-.355c0-.417-.105-.737-.317-.961-.205-.224-.506-.336-.903-.336-.39 0-.692.112-.903.336-.211.224-.317.544-.317.96v.28h2.507l-.067.076zM84.878 43c-.307 0-.576-.06-.807-.182a1.312 1.312 0 01-.538-.52 1.561 1.561 0 01-.192-.787v-4.736h-1.777v-.788h2.642v5.524c0 .218.06.39.182.519a.662.662 0 00.49.182h1.682V43h-1.682zm4.97.096c-.417 0-.782-.083-1.096-.25a1.807 1.807 0 01-.72-.701 2.203 2.203 0 01-.25-1.066v-1.441c0-.41.083-.766.25-1.067.173-.3.413-.535.72-.701.314-.166.68-.25 1.096-.25.416 0 .778.084 1.085.25.314.166.554.4.72.701.173.301.26.657.26 1.067v.931h-3.285v.51c0 .416.105.736.317.96.21.218.512.327.903.327.333 0 .602-.058.806-.173a.764.764 0 00.375-.538h.865a1.472 1.472 0 01-.654 1.057c-.37.256-.835.384-1.392.384zm1.22-3.103v-.355c0-.417-.106-.737-.317-.961-.205-.224-.506-.336-.904-.336-.39 0-.691.112-.902.336-.212.224-.317.544-.317.96v.28h2.507l-.067.076zm3.134 4.736v-.788h1.681c.269 0 .464-.06.586-.182.128-.122.192-.31.192-.567v-.672l.02-.961h-.174l.164-.144c0 .384-.128.688-.385.913-.256.224-.598.336-1.027.336-.545 0-.974-.176-1.288-.529-.314-.358-.47-.839-.47-1.44V39.58c0-.602.156-1.08.47-1.431.314-.353.743-.529 1.288-.529.429 0 .771.112 1.028.337.256.224.384.528.384.912l-.164-.144h.164v-1.009h.855v5.476c0 .474-.147.849-.442 1.124-.288.276-.692.413-1.21.413h-1.672zm1.316-2.815c.359 0 .64-.112.845-.336.205-.224.308-.535.308-.932v-1.008c0-.397-.103-.708-.308-.932-.205-.224-.486-.336-.845-.336-.365 0-.65.108-.855.326-.199.218-.298.532-.298.942v1.008c0 .41.1.724.298.942.205.218.49.326.855.326zM99.411 43v-5.284h.846v1.009h.201l-.278.624c0-.57.121-.999.365-1.287.25-.294.618-.442 1.105-.442.557 0 .999.176 1.325.529.333.345.5.816.5 1.412v.317h-.865v-.24c0-.417-.102-.734-.307-.951-.199-.225-.484-.337-.855-.337-.365 0-.653.112-.865.337-.205.224-.307.54-.307.95V43h-.865zm7.044.096c-.557 0-.996-.14-1.316-.423-.32-.288-.48-.675-.48-1.162 0-.493.16-.88.48-1.163.32-.281.753-.422 1.297-.422h1.633v-.529c0-.326-.099-.576-.297-.749-.193-.18-.468-.269-.827-.269-.314 0-.576.067-.787.202a.716.716 0 00-.365.528h-.865c.058-.454.272-.816.644-1.085.371-.27.835-.404 1.393-.404.608 0 1.088.157 1.441.471.352.314.528.74.528 1.278V43h-.845v-1.009h-.145l.145-.144c0 .384-.151.689-.452.913-.295.224-.688.336-1.182.336zm.212-.682c.41 0 .746-.102 1.008-.307a.956.956 0 00.394-.788v-.75h-1.614c-.288 0-.515.08-.682.24-.166.16-.249.379-.249.654 0 .294.099.528.297.701.205.167.487.25.846.25zm3.691.586v-5.284h.759v.634h.173l-.134.23c0-.294.076-.527.23-.7.16-.173.375-.26.644-.26.294 0 .522.11.682.327.16.218.24.525.24.922l-.259-.519h.403l-.182.23c0-.294.08-.527.24-.7a.865.865 0 01.653-.26c.333 0 .589.125.769.375.185.25.278.58.278.99V43h-.797v-4.025c0-.218-.048-.388-.144-.51-.09-.121-.224-.182-.404-.182a.51.51 0 00-.413.183c-.096.115-.144.281-.144.5V43h-.692v-4.025c0-.224-.051-.394-.153-.51a.495.495 0 00-.413-.182c-.18 0-.314.06-.404.183-.09.115-.134.281-.134.5V43h-.798zm6.401-2.786v-.768h3.074v.768h-3.074zm7.226 2.882c-.621 0-1.114-.182-1.479-.547-.359-.372-.538-.878-.538-1.518v-2.402c0-.846.211-1.495.634-1.95.423-.461 1.028-.692 1.816-.692h1.345v.865h-1.345c-.519 0-.913.153-1.182.46-.269.302-.403.74-.403 1.317v.624h.134l-.134.193c.006-.378.134-.673.384-.884.25-.212.589-.317 1.018-.317.557 0 .99.179 1.297.538.314.358.471.851.471 1.48v.768c0 .429-.08.797-.24 1.104-.16.308-.391.545-.692.711-.301.167-.663.25-1.086.25zm0-.768c.372 0 .657-.113.855-.337.199-.224.298-.544.298-.96v-.769c0-.416-.099-.736-.298-.96-.198-.225-.483-.337-.855-.337-.371 0-.656.112-.855.336-.198.218-.297.538-.297.961v.769c0 .416.099.736.297.96.199.224.484.337.855.337zm5.69.749c-.423 0-.788-.08-1.095-.24a1.748 1.748 0 01-.721-.692c-.166-.307-.249-.67-.249-1.086v-1.402c0-.423.083-.785.249-1.086.173-.3.414-.531.721-.691.307-.16.672-.24 1.095-.24.423 0 .788.08 1.095.24.308.16.545.39.711.691.173.301.26.66.26 1.076v1.412c0 .417-.087.779-.26 1.086a1.677 1.677 0 01-.711.692c-.307.16-.672.24-1.095.24zm0-.769c.378 0 .673-.105.884-.317.211-.211.317-.522.317-.932v-1.402c0-.41-.106-.72-.317-.932-.211-.211-.506-.317-.884-.317-.371 0-.666.106-.884.317-.211.211-.317.522-.317.932v1.402c0 .41.106.72.317.932.218.212.513.317.884.317zm5.257.692v-4.525h-1.921v-.759h4.707v.76h-1.921V43h-.865zm5.661.096c-.557 0-.996-.14-1.316-.423-.32-.288-.48-.675-.48-1.162 0-.493.16-.88.48-1.163.32-.281.753-.422 1.297-.422h1.633v-.529c0-.326-.099-.576-.298-.749-.192-.18-.467-.269-.826-.269-.314 0-.576.067-.788.202a.718.718 0 00-.365.528h-.864c.057-.454.272-.816.643-1.085.372-.27.836-.404 1.393-.404.609 0 1.089.157 1.441.471.353.314.529.74.529 1.278V43h-.846v-1.009h-.144l.144-.144c0 .384-.15.689-.451.913-.295.224-.689.336-1.182.336zm.212-.682c.41 0 .746-.102 1.008-.307a.956.956 0 00.394-.788v-.75h-1.614c-.288 0-.515.08-.682.24-.166.16-.25.379-.25.654 0 .294.1.528.298.701.205.167.487.25.846.25zm4.642 2.123l.769-2.988h1.249l-1.249 2.988h-.769zM13.884 63.73v-7.013h.864v1.009h.173l-.173.202c0-.404.132-.72.394-.951.27-.237.622-.356 1.057-.356.532 0 .954.176 1.268.529.32.345.48.823.48 1.431v1.547c0 .403-.073.752-.22 1.047a1.57 1.57 0 01-.606.682c-.256.16-.563.24-.922.24-.43 0-.778-.118-1.047-.355-.27-.237-.404-.554-.404-.951l.173.201h-.192l.02 1.201v1.537h-.865zm2.027-2.382c.365 0 .65-.11.855-.327.211-.218.317-.532.317-.941v-1.441c0-.41-.106-.724-.317-.942-.205-.218-.49-.326-.855-.326-.352 0-.634.112-.846.336-.21.224-.317.535-.317.932v1.44c0 .398.106.708.317.932.212.225.494.337.846.337zm5.2.75c-.558 0-.996-.142-1.317-.424-.32-.288-.48-.675-.48-1.162 0-.493.16-.88.48-1.163.32-.281.753-.422 1.297-.422h1.633v-.529c0-.326-.099-.576-.297-.749-.192-.18-.468-.269-.826-.269-.314 0-.577.067-.788.202a.718.718 0 00-.365.528h-.865c.058-.454.272-.816.644-1.085.371-.27.835-.404 1.393-.404.608 0 1.088.157 1.44.471.353.314.53.74.53 1.278V62h-.846v-1.009H22.6l.144-.144c0 .384-.15.689-.452.913-.294.224-.688.336-1.181.336zm.21-.683c.41 0 .747-.102 1.01-.307a.957.957 0 00.393-.788v-.75h-1.613c-.289 0-.516.08-.683.24-.166.16-.25.379-.25.654 0 .294.1.528.299.701.204.167.486.25.845.25zm5.69.653c-.557 0-1.015-.118-1.373-.355a1.412 1.412 0 01-.634-.96h.912c.045.16.164.29.356.393.198.102.445.154.74.154h.451c.314 0 .557-.074.73-.221a.71.71 0 00.27-.577c0-.256-.087-.458-.26-.605-.167-.147-.413-.22-.74-.22h-1.162v-.75h1.133c.295 0 .519-.07.673-.212a.72.72 0 00.23-.557.727.727 0 00-.105-.403.61.61 0 00-.298-.25 1.243 1.243 0 00-.49-.086h-.48a1.23 1.23 0 00-.663.172c-.186.116-.298.257-.337.423h-.912c.064-.397.272-.724.624-.98.353-.256.782-.384 1.288-.384h.48c.378 0 .701.06.97.183a1.321 1.321 0 01.835 1.277c0 .314-.101.573-.306.778-.205.199-.494.311-.865.337v.038c.455.032.785.154.99.365.204.212.307.516.307.913 0 .467-.173.839-.519 1.114-.346.276-.81.413-1.393.413h-.451zM30.694 62v-5.284h.807v1.94h.433c.57 0 1.018.151 1.345.452.333.295.5.702.5 1.22 0 .52-.167.93-.5 1.23-.327.295-.775.442-1.345.442h-1.24zm.807-.692h.433c.34 0 .602-.086.787-.26.193-.172.289-.412.289-.72 0-.307-.096-.547-.289-.72-.185-.173-.448-.26-.787-.26H31.5v1.96zm2.902.692v-5.284h.807V62h-.807zm2.605 0v-5.284h3.795v.788h-2.93V62h-.864zm5.325 1.73v-7.014h.865v1.009h.173l-.173.202c0-.404.131-.72.394-.951.269-.237.62-.356 1.056-.356.532 0 .955.176 1.268.529.32.345.48.823.48 1.431v1.547c0 .403-.073.752-.22 1.047a1.577 1.577 0 01-.605.682c-.257.16-.564.24-.923.24-.429 0-.778-.118-1.047-.355-.269-.237-.403-.554-.403-.951l.173.201h-.192l.019 1.201v1.537h-.865zm2.027-2.383c.365 0 .65-.11.855-.327.212-.218.317-.532.317-.941v-1.441c0-.41-.105-.724-.317-.942-.205-.218-.49-.326-.855-.326-.352 0-.634.112-.845.336-.212.224-.317.535-.317.932v1.44c0 .398.105.708.317.932.211.225.493.337.845.337zm3.403.653v-5.284h.807v1.94h.433c.57 0 1.018.151 1.345.452.333.295.5.702.5 1.22 0 .52-.167.93-.5 1.23-.327.295-.775.442-1.345.442h-1.24zm.807-.692h.433c.34 0 .602-.086.787-.26.192-.172.289-.412.289-.72 0-.307-.097-.547-.289-.72-.185-.173-.448-.26-.787-.26h-.433v1.96zm2.902.692v-5.284h.807V62h-.807zm2.26 0v-5.284h2.286c.55 0 .977.125 1.278.375.3.243.451.586.451 1.028 0 .365-.125.66-.374.884-.25.217-.58.326-.99.326v-.077c.448 0 .807.113 1.076.337.275.224.413.525.413.903 0 .474-.16.845-.48 1.114-.32.263-.769.394-1.345.394H53.73zm.845-.759h1.47c.307 0 .544-.067.71-.202.174-.134.26-.323.26-.567 0-.25-.086-.441-.26-.576-.166-.134-.403-.202-.71-.202h-1.47v1.547zm0-2.296h1.441c.269 0 .48-.064.634-.192.16-.128.24-.307.24-.538 0-.23-.077-.41-.23-.538-.154-.135-.369-.202-.644-.202h-1.441v1.47zm6.362 3.151c-.557 0-.996-.14-1.316-.423-.32-.288-.48-.675-.48-1.162 0-.493.16-.88.48-1.163.32-.281.752-.422 1.297-.422h1.633v-.529c0-.326-.1-.576-.298-.749-.192-.18-.467-.269-.826-.269-.314 0-.576.067-.788.202a.718.718 0 00-.365.528h-.864c.057-.454.272-.816.643-1.085.372-.27.836-.404 1.393-.404.609 0 1.09.157 1.441.471.353.314.529.74.529 1.278V62h-.846v-1.009h-.144l.144-.144c0 .384-.15.689-.451.913-.295.224-.689.336-1.182.336zm.212-.682c.41 0 .746-.102 1.008-.307a.957.957 0 00.394-.788v-.75h-1.614c-.288 0-.515.08-.682.24-.166.16-.25.379-.25.654 0 .294.1.528.298.701.205.167.487.25.846.25zm6.765.682c-.442 0-.797-.15-1.066-.451-.27-.302-.404-.695-.404-1.182v-.797H65.6V62h-.797v-5.284h.797v2.258h.845v-.72c0-.494.132-.888.394-1.182.27-.301.628-.452 1.076-.452.474 0 .855.15 1.143.452.288.294.433.688.433 1.181v2.21c0 .487-.144.88-.433 1.182-.288.3-.669.451-1.143.451zm0-.672c.243 0 .432-.084.567-.25.14-.173.211-.41.211-.711v-2.21c0-.3-.07-.534-.211-.7-.135-.174-.323-.26-.567-.26a.667.667 0 00-.557.26c-.135.166-.202.4-.202.7v2.21c0 .3.067.538.202.71.134.167.32.25.557.25zm6.737 1.92V62h-4.14v-5.284h.778v4.554h1.114v-4.554h.672v4.554h1.115v-4.554h.778v4.554h.451v2.075h-.768zm3.816-1.248c-.416 0-.781-.083-1.095-.25a1.808 1.808 0 01-.72-.701 2.204 2.204 0 01-.25-1.066v-1.441c0-.41.083-.766.25-1.067.172-.3.413-.535.72-.701a2.31 2.31 0 011.095-.25c.416 0 .778.084 1.086.25.314.166.554.4.72.701.173.301.26.657.26 1.067v.931h-3.286v.51c0 .416.106.736.317.96.212.218.513.327.903.327.333 0 .602-.058.807-.173a.764.764 0 00.375-.538h.864a1.472 1.472 0 01-.653 1.057c-.371.256-.836.384-1.393.384zm1.22-3.103v-.355c0-.417-.105-.737-.317-.961-.205-.224-.506-.336-.903-.336-.39 0-.692.112-.903.336-.211.224-.317.544-.317.96v.28h2.507l-.067.076zM82.525 62v-5.284h3.794v.788h-2.93V62h-.864zm7.322.077c-.422 0-.787-.08-1.095-.24a1.744 1.744 0 01-.72-.692c-.167-.307-.25-.67-.25-1.086v-1.402c0-.423.083-.785.25-1.086.173-.3.413-.531.72-.691.308-.16.673-.24 1.096-.24.422 0 .787.08 1.095.24.307.16.544.39.71.691.173.301.26.66.26 1.076v1.412c0 .417-.087.779-.26 1.086a1.683 1.683 0 01-.71.692c-.308.16-.673.24-1.096.24zm0-.769c.378 0 .673-.105.884-.317.212-.211.317-.522.317-.932v-1.402c0-.41-.105-.72-.317-.932-.211-.211-.506-.317-.883-.317-.372 0-.666.106-.884.317-.212.211-.317.522-.317.932v1.402c0 .41.105.72.317.932.218.212.512.317.883.317zm9.4.692v-5.284h3.959V62h-.865v-4.496h-2.229V62h-.864zm7.669.077c-.422 0-.787-.08-1.095-.24a1.745 1.745 0 01-.72-.692c-.167-.307-.25-.67-.25-1.086v-1.402c0-.423.083-.785.25-1.086.173-.3.413-.531.72-.691.308-.16.673-.24 1.095-.24.423 0 .788.08 1.096.24.307.16.544.39.711.691.172.301.259.66.259 1.076v1.412c0 .417-.087.779-.259 1.086a1.689 1.689 0 01-.711.692c-.308.16-.673.24-1.096.24zm0-.769c.378 0 .673-.105.884-.317.212-.211.317-.522.317-.932v-1.402c0-.41-.105-.72-.317-.932-.211-.211-.506-.317-.884-.317-.371 0-.666.106-.883.317-.212.211-.317.522-.317.932v1.402c0 .41.105.72.317.932.217.212.512.317.883.317zm3.096 2.037V61.26h.433c.109-.109.221-.323.336-.643.122-.32.186-.727.192-1.22l.058-2.68h3.448v4.543h.673v2.085h-.769V62h-3.602v1.345h-.769zm1.345-2.085h2.258v-3.775h-1.768l-.038 1.93c-.007.507-.061.917-.164 1.23-.102.314-.198.52-.288.615zm6.478.836c-.558 0-.996-.14-1.316-.423-.321-.288-.481-.675-.481-1.162 0-.493.16-.88.481-1.163.32-.281.752-.422 1.296-.422h1.634v-.529c0-.326-.1-.576-.298-.749-.192-.18-.468-.269-.826-.269-.314 0-.577.067-.788.202a.718.718 0 00-.365.528h-.865c.058-.454.272-.816.644-1.085.371-.27.836-.404 1.393-.404.608 0 1.089.157 1.441.471.352.314.528.74.528 1.278V62h-.845v-1.009h-.144l.144-.144c0 .384-.151.689-.452.913-.294.224-.688.336-1.181.336zm.211-.682c.41 0 .746-.102 1.009-.307a.958.958 0 00.394-.788v-.75h-1.614c-.289 0-.516.08-.682.24-.167.16-.25.379-.25.654 0 .294.099.528.298.701.205.167.486.25.845.25zm3.941 2.315v-7.013h.865v1.009h.173l-.173.202c0-.404.131-.72.394-.951.269-.237.621-.356 1.056-.356.532 0 .955.176 1.269.529.32.345.48.823.48 1.431v1.547c0 .403-.074.752-.221 1.047a1.575 1.575 0 01-.605.682c-.256.16-.564.24-.923.24-.429 0-.778-.118-1.047-.355-.269-.237-.403-.554-.403-.951l.173.201h-.192l.019 1.201v1.537h-.865zm2.027-2.382c.365 0 .65-.11.855-.327.212-.218.317-.532.317-.941v-1.441c0-.41-.105-.724-.317-.942-.205-.218-.49-.326-.855-.326-.352 0-.634.112-.845.336-.211.224-.317.535-.317.932v1.44c0 .398.106.708.317.932.211.225.493.337.845.337zm3.711.653v-5.284h.865v2.181h.903l1.537-2.18h.989l-1.777 2.516L132.048 62h-1.009l-1.537-2.354h-.912V62h-.865zm5.661 0v-5.284h.826v2.882c0 .186-.006.381-.019.586-.007.205-.019.4-.039.586-.012.18-.028.333-.048.461l2.133-4.515h1.105V62h-.826v-2.882c0-.186.003-.381.009-.586.013-.205.029-.4.048-.586l.048-.47L134.491 62h-1.105zm6.372 1.537l.768-2.988h1.249l-1.249 2.988h-.768zM13.903 81v-5.284h3.958V81h-.865v-4.496h-2.228V81h-.865zm7.669.096c-.417 0-.782-.083-1.095-.25a1.807 1.807 0 01-.721-.701 2.204 2.204 0 01-.25-1.066v-1.441c0-.41.084-.766.25-1.067.173-.3.413-.534.72-.701.314-.166.68-.25 1.096-.25.416 0 .778.084 1.085.25.314.166.554.4.72.701.174.301.26.657.26 1.067v.931h-3.285v.51c0 .416.105.736.317.96.211.218.512.327.903.327.333 0 .602-.058.807-.173a.763.763 0 00.374-.538h.865a1.472 1.472 0 01-.653 1.057c-.372.256-.836.384-1.393.384zm1.22-3.103v-.355c0-.417-.106-.737-.317-.961-.205-.224-.506-.336-.903-.336-.391 0-.692.112-.903.336-.212.224-.317.544-.317.96v.28h2.507l-.067.076zm2.471 4.736v-7.013h.865v1.009h.173l-.173.202c0-.404.131-.72.394-.951.269-.237.62-.356 1.056-.356.532 0 .955.176 1.268.529.32.345.48.823.48 1.431v1.547c0 .403-.073.752-.22 1.047a1.57 1.57 0 01-.605.682c-.257.16-.564.24-.923.24-.429 0-.778-.118-1.047-.355-.269-.237-.403-.554-.403-.951l.173.201h-.192l.019 1.201v1.537h-.865zm2.027-2.382c.365 0 .65-.11.855-.327.212-.218.317-.531.317-.941v-1.441c0-.41-.105-.724-.317-.942-.205-.218-.49-.326-.855-.326-.352 0-.634.112-.845.336-.212.224-.317.535-.317.932v1.44c0 .398.105.708.317.932.211.225.493.337.845.337zm5.661.75a2.31 2.31 0 01-1.095-.25 1.807 1.807 0 01-.72-.702 2.204 2.204 0 01-.25-1.066v-1.441c0-.41.083-.766.25-1.067.172-.3.412-.534.72-.701a2.31 2.31 0 011.095-.25c.416 0 .778.084 1.085.25.314.166.554.4.721.701.173.301.26.657.26 1.067v.931H31.73v.51c0 .416.106.736.317.96.211.218.512.327.903.327.333 0 .602-.058.807-.173a.763.763 0 00.375-.538h.864a1.472 1.472 0 01-.653 1.057c-.372.256-.836.384-1.393.384zm1.22-3.104v-.355c0-.417-.106-.737-.317-.961-.205-.224-.506-.336-.903-.336-.39 0-.692.112-.903.336-.211.224-.317.544-.317.96v.28h2.507l-.067.076zM36.661 81v-5.284h.865v2.2h2.229v-2.2h.865V81h-.865v-2.296h-2.229V81h-.864zm7.67.096c-.417 0-.782-.083-1.096-.25a1.807 1.807 0 01-.72-.701 2.204 2.204 0 01-.25-1.066v-1.441c0-.41.083-.766.25-1.067.172-.3.413-.534.72-.701a2.31 2.31 0 011.095-.25c.417 0 .778.084 1.086.25.314.166.554.4.72.701.173.301.26.657.26 1.067v.931H43.11v.51c0 .416.106.736.317.96.212.218.513.327.903.327.333 0 .602-.058.807-.173a.763.763 0 00.375-.538h.864a1.472 1.472 0 01-.653 1.057c-.371.256-.835.384-1.393.384zm1.22-3.103v-.355c0-.417-.106-.737-.318-.961-.205-.224-.506-.336-.903-.336-.39 0-.691.112-.903.336-.211.224-.317.544-.317.96v.28h2.508l-.068.076zm4.488 3.103c-.422 0-.794-.08-1.114-.24a1.73 1.73 0 01-.73-.692c-.173-.307-.26-.67-.26-1.085v-1.441c0-.423.087-.785.26-1.086a1.73 1.73 0 01.73-.692c.32-.16.692-.24 1.114-.24.609 0 1.099.163 1.47.49.371.327.567.772.586 1.335h-.865c-.019-.339-.134-.598-.345-.778-.205-.185-.487-.278-.846-.278-.378 0-.679.109-.903.326-.224.212-.336.516-.336.913v1.45c0 .398.112.705.336.923.224.218.525.326.903.326.359 0 .64-.092.846-.278.21-.186.326-.445.345-.778h.865c-.02.563-.215 1.008-.586 1.335-.371.327-.861.49-1.47.49zm3.029-.029v-.807h.173c.294 0 .5-.115.614-.346.122-.23.186-.643.193-1.239l.057-2.959h3.584V81h-.865v-4.496H54.96l-.048 2.21c-.013.557-.077 1.008-.192 1.354-.109.346-.282.599-.519.76-.23.16-.534.24-.912.24h-.221zM59.42 81v-5.284h.826v2.882c0 .186-.006.381-.019.586-.006.205-.019.4-.038.586a6.1 6.1 0 01-.048.462l2.133-4.516h1.104V81h-.826v-2.882c0-.186.003-.381.01-.586.013-.205.029-.4.048-.586l.048-.47L60.525 81H59.42zm13.378.096c-.423 0-.794-.08-1.115-.24a1.73 1.73 0 01-.73-.692c-.173-.307-.26-.67-.26-1.085v-1.441c0-.423.087-.785.26-1.086a1.73 1.73 0 01.73-.692c.32-.16.692-.24 1.115-.24.608 0 1.098.163 1.47.49.371.327.566.772.586 1.335h-.865c-.02-.339-.135-.598-.346-.778-.205-.185-.487-.278-.845-.278-.378 0-.68.109-.903.326-.224.212-.337.516-.337.913v1.45c0 .398.113.705.337.923.224.218.525.326.903.326.358 0 .64-.092.845-.278.212-.186.327-.445.346-.778h.865c-.02.563-.215 1.008-.586 1.335-.372.327-.862.49-1.47.49zm4.498 1.633l.778-2.056-1.96-4.957h.961l1.23 3.267c.045.108.086.24.125.393l.096.375.096-.375a4.47 4.47 0 01.115-.393l1.153-3.267h.932l-2.604 7.013h-.922zm8.735-.384V81h-4.14v-5.284h.778v4.554h1.114v-4.554h.673v4.554h1.114v-4.554h.778v4.554h.452v2.075h-.769zm3.816-1.249a2.3 2.3 0 01-1.095-.25 1.807 1.807 0 01-.72-.701 2.203 2.203 0 01-.25-1.066v-1.441c0-.41.083-.766.25-1.067.173-.3.413-.534.72-.701.314-.166.68-.25 1.096-.25.416 0 .778.084 1.085.25.314.166.554.4.72.701.173.301.26.657.26 1.067v.931h-3.285v.51c0 .416.105.736.317.96.21.218.512.327.903.327.333 0 .602-.058.806-.173a.764.764 0 00.375-.538h.865a1.472 1.472 0 01-.654 1.057c-.37.256-.835.384-1.392.384zm1.22-3.103v-.355c0-.417-.105-.737-.316-.961-.205-.224-.506-.336-.904-.336-.39 0-.691.112-.902.336-.212.224-.317.544-.317.96v.28h2.507l-.067.076zm4.49 3.103c-.423 0-.795-.08-1.115-.24a1.73 1.73 0 01-.73-.692c-.173-.307-.26-.67-.26-1.085v-1.441c0-.423.087-.785.26-1.086a1.73 1.73 0 01.73-.692c.32-.16.692-.24 1.114-.24.609 0 1.099.163 1.47.49.372.327.567.772.586 1.335h-.864c-.02-.339-.135-.598-.346-.778-.205-.185-.487-.278-.846-.278-.377 0-.678.109-.903.326-.224.212-.336.516-.336.913v1.45c0 .398.112.705.336.923.224.218.525.326.903.326.36 0 .64-.092.846-.278.211-.186.326-.445.346-.778h.864c-.019.563-.214 1.008-.586 1.335-.371.327-.861.49-1.47.49zm5.238-.096v-4.525h-1.922v-.759h4.707v.76h-1.921V81h-.864zm4.143 0v-5.284h2.286c.551 0 .977.125 1.278.375.301.243.451.586.451 1.028 0 .365-.125.66-.375.884-.249.217-.579.326-.989.326v-.076c.448 0 .807.112 1.076.336.275.224.413.525.413.903 0 .474-.16.845-.48 1.114-.321.263-.769.394-1.345.394h-2.315zm.845-.759h1.47c.307 0 .544-.067.711-.202.173-.134.259-.323.259-.567 0-.25-.086-.441-.259-.576-.167-.134-.404-.202-.711-.202h-1.47v1.547zm0-2.296h1.441c.269 0 .48-.064.634-.192.16-.128.24-.308.24-.538 0-.23-.077-.41-.23-.538-.154-.135-.369-.202-.644-.202h-1.441v1.47zm5.651 4.784l.778-2.056-1.96-4.957h.961l1.23 3.267c.045.108.086.24.125.393l.096.375c.025-.102.057-.227.096-.375.038-.153.077-.285.115-.393l1.153-3.267h.932l-2.604 7.013h-.922zm7.688-1.633c-.442 0-.797-.15-1.066-.451-.269-.301-.404-.695-.404-1.182v-.797h-.845V81h-.798v-5.284h.798v2.258h.845v-.72c0-.494.131-.888.394-1.182.269-.301.628-.452 1.076-.452.474 0 .855.15 1.143.452.288.294.432.688.432 1.181v2.21c0 .487-.144.88-.432 1.182-.288.3-.669.451-1.143.451zm0-.672c.243 0 .432-.084.567-.25.141-.173.211-.41.211-.711v-2.21c0-.3-.07-.534-.211-.7-.135-.174-.324-.26-.567-.26a.666.666 0 00-.557.26c-.135.166-.202.4-.202.7v2.21c0 .3.067.538.202.71.134.167.32.25.557.25zm6.737 1.92V81h-4.141v-5.284h.778v4.554h1.115v-4.554h.672v4.554h1.115v-4.554h.778v4.554h.451v2.075h-.768zm2.644.385l.778-2.056-1.96-4.957h.961l1.23 3.267c.045.108.086.24.125.393l.096.375c.025-.102.057-.227.096-.375.038-.153.077-.285.115-.393l1.153-3.267h.932l-2.604 7.013h-.922zm7.688-1.633c-.442 0-.797-.15-1.066-.451-.269-.301-.404-.695-.404-1.182v-.797h-.845V81h-.798v-5.284h.798v2.258h.845v-.72c0-.494.131-.888.394-1.182.269-.301.628-.452 1.076-.452.474 0 .855.15 1.143.452.288.294.432.688.432 1.181v2.21c0 .487-.144.88-.432 1.182-.288.3-.669.451-1.143.451zm0-.672c.243 0 .432-.084.567-.25.141-.173.211-.41.211-.711v-2.21c0-.3-.07-.534-.211-.7-.135-.174-.324-.26-.567-.26a.666.666 0 00-.557.26c-.135.166-.202.4-.202.7v2.21c0 .3.067.538.202.71.134.167.32.25.557.25zm10.553.672c-.621 0-1.114-.183-1.479-.547-.359-.372-.538-.878-.538-1.518v-2.402c0-.846.211-1.496.634-1.95.422-.461 1.028-.692 1.815-.692h1.345v.865h-1.345c-.518 0-.912.153-1.181.46-.269.302-.404.74-.404 1.317v.624h.135l-.135.192c.007-.377.135-.672.385-.883.249-.212.589-.317 1.018-.317.557 0 .989.179 1.297.538.314.358.47.851.47 1.48v.768c0 .429-.08.797-.24 1.104-.16.308-.39.545-.691.711-.301.167-.663.25-1.086.25zm0-.769c.372 0 .657-.112.855-.336.199-.224.298-.544.298-.96v-.769c0-.416-.099-.736-.298-.96-.198-.225-.483-.337-.855-.337-.371 0-.656.112-.855.336-.198.218-.298.538-.298.961v.769c0 .416.1.736.298.96.199.224.484.337.855.337zm5.229.77c-.558 0-.996-.142-1.317-.424-.32-.288-.48-.675-.48-1.162 0-.493.16-.88.48-1.162.321-.282.753-.423 1.297-.423h1.634v-.529c0-.326-.1-.576-.298-.749-.192-.18-.468-.269-.826-.269-.314 0-.577.067-.788.202a.716.716 0 00-.365.528h-.865c.058-.454.272-.816.644-1.085.371-.27.836-.404 1.393-.404.608 0 1.089.157 1.441.471.352.314.528.74.528 1.278V81h-.845v-1.009h-.144l.144-.144c0 .385-.151.689-.452.913-.294.224-.688.336-1.181.336zm.211-.683c.41 0 .746-.103 1.009-.307a.958.958 0 00.394-.788v-.75h-1.614c-.289 0-.516.08-.682.24-.167.16-.25.379-.25.654 0 .294.099.528.298.701.205.167.486.25.845.25zm5.69.653c-.558 0-1.016-.118-1.374-.355a1.411 1.411 0 01-.634-.96h.912c.045.16.164.29.356.393.198.103.445.154.74.154h.451c.314 0 .557-.074.73-.221a.709.709 0 00.269-.577c0-.256-.086-.458-.259-.605-.167-.147-.413-.22-.74-.22h-1.162v-.75h1.133c.295 0 .519-.07.673-.212a.722.722 0 00.23-.557.731.731 0 00-.105-.403.613.613 0 00-.298-.25 1.245 1.245 0 00-.49-.086h-.48a1.23 1.23 0 00-.663.172c-.186.116-.298.257-.337.423h-.912c.064-.397.272-.724.624-.98.353-.256.782-.384 1.288-.384h.48c.378 0 .701.06.97.183a1.326 1.326 0 01.836 1.277c0 .314-.102.574-.307.778-.205.199-.494.311-.865.337v.038c.455.032.785.154.989.365.205.212.308.516.308.913 0 .467-.173.839-.519 1.114-.346.276-.81.413-1.393.413h-.451zm4.767 1.662l.778-2.056-1.96-4.957h.961l1.23 3.267c.045.108.086.24.125.393l.096.375c.025-.102.057-.227.096-.375.038-.153.077-.285.115-.393l1.153-3.267h.932l-2.604 7.013h-.922zM13.931 101v-5.284h.866v2.181h.902l1.538-2.18h.99l-1.778 2.516L18.255 101h-1.009l-1.537-2.354h-.912V101h-.865zm4.999.067v-.807h.173c.294 0 .5-.115.615-.346.121-.23.185-.643.192-1.239l.057-2.959h3.584V101h-.865v-4.496h-1.864l-.048 2.21c-.012.557-.076 1.008-.192 1.354-.109.346-.282.599-.519.759-.23.16-.534.24-.912.24h-.221zm6.352-.067v-5.284h.826v2.882c0 .186-.006.381-.019.586-.006.205-.019.4-.038.586-.013.18-.029.333-.048.461l2.133-4.515h1.104V101h-.826v-2.882c0-.186.003-.381.01-.586.013-.205.029-.4.048-.586l.048-.47L26.387 101h-1.105zm7.669.096c-.416 0-.781-.083-1.095-.25a1.803 1.803 0 01-.72-.701 2.204 2.204 0 01-.25-1.066v-1.441c0-.41.083-.766.25-1.067.172-.3.412-.534.72-.701a2.31 2.31 0 011.095-.25c.416 0 .778.084 1.085.25.314.166.554.4.721.701.173.301.26.657.26 1.067v.931H31.73v.51c0 .416.106.736.317.96.211.218.512.327.903.327.333 0 .602-.058.807-.173a.764.764 0 00.375-.538h.864a1.473 1.473 0 01-.653 1.057c-.372.256-.836.384-1.393.384zm1.22-3.103v-.355c0-.417-.106-.737-.317-.961-.205-.224-.506-.336-.903-.336-.39 0-.692.112-.903.336-.211.224-.317.544-.317.96v.28h2.507l-.067.076zm2.49 3.007v-5.284h.865v2.2h2.229v-2.2h.865V101h-.865v-2.296h-2.229V101h-.864zm7.237 0v-4.525h-1.921v-.759h4.707v.76h-1.921V101h-.865zm6.122.077c-.423 0-.788-.08-1.095-.24a1.744 1.744 0 01-.72-.692c-.167-.307-.25-.67-.25-1.086v-1.402c0-.423.083-.785.25-1.086.172-.3.412-.531.72-.691.307-.16.672-.24 1.095-.24.423 0 .788.08 1.095.24.307.16.544.39.711.691.173.301.26.66.26 1.076v1.412c0 .417-.087.779-.26 1.086a1.683 1.683 0 01-.71.692c-.308.16-.673.24-1.096.24zm0-.769c.378 0 .672-.105.884-.317.211-.211.317-.522.317-.932v-1.402c0-.41-.106-.72-.317-.932-.212-.211-.506-.317-.884-.317-.372 0-.666.106-.884.317-.211.211-.317.522-.317.932v1.402c0 .41.106.72.317.932.218.212.512.317.884.317zm3.71.692v-5.284h2.287c.55 0 .977.125 1.278.375.3.243.451.586.451 1.028 0 .365-.125.66-.374.884-.25.217-.58.326-.99.326v-.076c.448 0 .807.112 1.076.336.275.224.413.525.413.903 0 .474-.16.845-.48 1.114-.32.263-.769.394-1.345.394H53.73zm.846-.759h1.47c.307 0 .544-.067.71-.202.174-.134.26-.323.26-.567 0-.25-.086-.441-.26-.576-.166-.134-.403-.202-.71-.202h-1.47v1.547zm0-2.296h1.441c.269 0 .48-.064.634-.192.16-.128.24-.308.24-.538 0-.23-.077-.41-.23-.538-.154-.135-.369-.202-.644-.202h-1.441v1.47zM65.11 101v-5.284h2.286c.551 0 .977.125 1.278.375.301.243.451.586.451 1.028 0 .365-.124.66-.374.884-.25.217-.58.326-.99.326v-.076c.449 0 .807.112 1.076.336.276.224.413.525.413.903 0 .474-.16.845-.48 1.114-.32.263-.768.394-1.345.394H65.11zm.845-.759h1.47c.308 0 .544-.067.711-.202.173-.134.26-.323.26-.567 0-.25-.087-.441-.26-.576-.166-.134-.403-.202-.71-.202h-1.47v1.547zm0-2.296h1.441c.27 0 .48-.064.634-.192.16-.128.24-.308.24-.538 0-.23-.076-.41-.23-.538-.154-.135-.368-.202-.644-.202h-1.44v1.47zM78.035 101v-6.235h-1.92v-.787h4.707v.787H78.9V101h-.864zm6.123.096c-.416 0-.782-.083-1.095-.25a1.803 1.803 0 01-.72-.701 2.204 2.204 0 01-.25-1.066v-1.441c0-.41.083-.766.25-1.067.172-.3.412-.534.72-.701.313-.166.679-.25 1.095-.25.416 0 .778.084 1.085.25.314.166.554.4.72.701.174.301.26.657.26 1.067v.931h-3.285v.51c0 .416.105.736.317.96.211.218.512.327.903.327.333 0 .602-.058.807-.173a.764.764 0 00.374-.538h.865a1.473 1.473 0 01-.653 1.057c-.372.256-.836.384-1.393.384zm1.22-3.103v-.355c0-.417-.106-.737-.317-.961-.205-.224-.506-.336-.903-.336-.39 0-.692.112-.903.336-.212.224-.317.544-.317.96v.28h2.507l-.067.076zm5.19 3.007a1.7 1.7 0 01-.807-.183 1.307 1.307 0 01-.538-.518 1.561 1.561 0 01-.192-.788v-4.736h-1.777v-.788h2.642v5.524c0 .218.06.39.182.519a.664.664 0 00.49.182h1.681V101h-1.681zm4.97.096c-.417 0-.782-.083-1.096-.25a1.803 1.803 0 01-.72-.701 2.204 2.204 0 01-.25-1.066v-1.441c0-.41.083-.766.25-1.067.172-.3.413-.534.72-.701a2.31 2.31 0 011.095-.25c.416 0 .778.084 1.086.25.314.166.554.4.72.701.173.301.26.657.26 1.067v.931h-3.286v.51c0 .416.106.736.317.96.212.218.513.327.903.327.333 0 .602-.058.807-.173a.764.764 0 00.375-.538h.864a1.473 1.473 0 01-.653 1.057c-.371.256-.836.384-1.393.384zm1.22-3.103v-.355c0-.417-.106-.737-.318-.961-.205-.224-.506-.336-.903-.336-.39 0-.692.112-.903.336-.211.224-.317.544-.317.96v.28h2.508l-.068.076zm3.133 4.736v-.788h1.682c.269 0 .464-.06.586-.182.128-.122.192-.311.192-.567v-.672l.019-.961h-.173l.163-.144c0 .384-.128.688-.384.913-.256.224-.599.336-1.028.336-.544 0-.973-.176-1.287-.529-.314-.358-.47-.839-.47-1.44V97.58c0-.602.156-1.08.47-1.431.314-.353.743-.529 1.287-.529.429 0 .772.112 1.028.337.256.224.384.528.384.912l-.163-.144h.163v-1.009h.855v5.476c0 .474-.147.849-.441 1.124-.289.276-.692.413-1.211.413h-1.672zm1.317-2.815c.358 0 .64-.112.845-.336.205-.224.307-.535.307-.932v-1.008c0-.397-.102-.708-.307-.932-.205-.224-.487-.336-.845-.336-.365 0-.65.108-.855.326-.199.218-.298.532-.298.942v1.008c0 .41.099.724.298.942.205.218.49.326.855.326zm3.893 1.086v-5.284h.845v1.009h.202l-.279.624c0-.57.122-.999.365-1.287.25-.294.618-.442 1.105-.442.557 0 .999.176 1.326.529.333.345.499.816.499 1.412v.317h-.864v-.24c0-.417-.103-.734-.308-.951-.198-.225-.483-.337-.855-.337-.365 0-.653.112-.864.337-.205.224-.308.54-.308.95V101h-.864zm7.044.096c-.557 0-.996-.141-1.316-.423-.32-.288-.48-.675-.48-1.162 0-.493.16-.88.48-1.162.32-.282.752-.423 1.297-.423h1.633v-.529c0-.326-.099-.576-.298-.749-.192-.18-.467-.269-.826-.269-.314 0-.576.067-.788.202a.718.718 0 00-.365.528h-.864c.057-.454.272-.816.643-1.085.372-.27.836-.404 1.393-.404.609 0 1.089.157 1.441.471.352.314.529.74.529 1.278V101h-.846v-1.009h-.144l.144-.144c0 .384-.15.689-.451.913-.295.224-.689.336-1.182.336zm.211-.682c.41 0 .746-.102 1.009-.307a.957.957 0 00.394-.788v-.75h-1.614c-.288 0-.516.08-.682.24-.167.16-.25.379-.25.654 0 .294.099.528.298.701.205.167.487.25.845.25zm3.692.586v-5.284h.759v.634h.173l-.135.23c0-.294.077-.528.231-.7.16-.173.374-.26.643-.26.295 0 .522.11.682.327.161.218.241.525.241.922l-.26-.519h.404l-.183.23c0-.294.08-.528.24-.7a.868.868 0 01.654-.26c.333 0 .589.125.768.375.186.25.279.58.279.99V101h-.798v-4.025c0-.218-.048-.388-.144-.51-.089-.121-.224-.182-.403-.182a.511.511 0 00-.413.183c-.096.115-.144.281-.144.5V101h-.692v-4.025c0-.224-.051-.394-.154-.51a.495.495 0 00-.413-.182c-.179 0-.314.06-.403.183-.09.115-.135.281-.135.5V101h-.797zm6.4-2.786v-.769h3.075v.769h-3.075zm5.277 2.786v-5.284h.865v2.181h.903l1.537-2.18h.989l-1.777 2.516 1.806 2.767h-1.009l-1.537-2.354h-.912V101h-.865zm7.179.096c-.558 0-.996-.141-1.316-.423-.321-.288-.481-.675-.481-1.162 0-.493.16-.88.481-1.162.32-.282.752-.423 1.296-.423h1.634v-.529c0-.326-.1-.576-.298-.749-.192-.18-.468-.269-.826-.269-.314 0-.577.067-.788.202a.716.716 0 00-.365.528h-.865c.058-.454.272-.816.644-1.085.371-.27.836-.404 1.393-.404.608 0 1.089.157 1.441.471.352.314.528.74.528 1.278V101h-.845v-1.009h-.144l.144-.144c0 .384-.151.689-.452.913-.294.224-.688.336-1.181.336zm.211-.682c.41 0 .746-.102 1.009-.307a.96.96 0 00.394-.788v-.75h-1.614c-.289 0-.516.08-.682.24-.167.16-.25.379-.25.654 0 .294.099.528.298.701.205.167.486.25.845.25zm3.96.586v-5.284h.865v2.2h2.229v-2.2h.864V101h-.864v-2.296h-2.229V101h-.865zm7.208.096c-.557 0-.996-.141-1.316-.423-.32-.288-.481-.675-.481-1.162 0-.493.161-.88.481-1.162.32-.282.752-.423 1.297-.423h1.633v-.529c0-.326-.099-.576-.298-.749-.192-.18-.467-.269-.826-.269-.314 0-.577.067-.788.202a.718.718 0 00-.365.528h-.865c.058-.454.273-.816.644-1.085.372-.27.836-.404 1.393-.404.609 0 1.089.157 1.441.471.352.314.528.74.528 1.278V101h-.845v-1.009h-.144l.144-.144c0 .384-.15.689-.451.913-.295.224-.689.336-1.182.336zm.211-.682c.41 0 .746-.102 1.009-.307a.957.957 0 00.394-.788v-.75h-1.614c-.288 0-.516.08-.682.24-.167.16-.25.379-.25.654 0 .294.099.528.298.701.205.167.487.25.845.25zm3.298.653v-.807h.173c.294 0 .499-.115.615-.346.121-.23.185-.643.192-1.239l.057-2.959h3.584V101h-.865v-4.496h-1.864l-.048 2.21c-.012.557-.076 1.008-.192 1.354-.109.346-.282.599-.519.759-.23.16-.534.24-.912.24h-.221zm8.331.029c-.243 0-.438-.07-.586-.211-.141-.141-.211-.33-.211-.567 0-.25.07-.448.211-.596.148-.147.343-.22.586-.22.244 0 .436.073.577.22.147.148.221.346.221.596 0 .237-.074.426-.221.567-.141.141-.333.211-.577.211z" fill="#000"/><defs><filter id="filter0_d_441_1291" x=".157" y="0" width="179.685" height="144.685" filterUnits="userSpaceOnUse" color-interpolation-filters="sRGB"><feFlood flood-opacity="0" result="BackgroundImageFix"/><feColorMatrix in="SourceAlpha" values="0 0 0 0 0 0 0 0 0 0 0 0 0 0 0 0 0 0 127 0" result="hardAlpha"/><feOffset dy="3.843"/><feGaussianBlur stdDeviation="1.921"/><feComposite in2="hardAlpha" operator="out"/><feColorMatrix values="0 0 0 0 0 0 0 0 0 0 0 0 0 0 0 0 0 0 0.25 0"/><feBlend in2="BackgroundImageFix" result="effect1_dropShadow_441_1291"/><feBlend in="SourceGraphic" in2="effect1_dropShadow_441_1291" result="shape"/></filter></defs></svg>