<svg width="180" height="145" fill="none" xmlns="http://www.w3.org/2000/svg"><g filter="url(#filter0_d_441_1316)"><rect x="4" width="172" height="137" rx="16.011" fill="#4F8348"/></g><path d="M12.865 53v-7.013h.835v3.939c0 .23-.006.477-.019.74a25.581 25.581 0 01-.067 1.325l2.133-6.004h1.152V53h-.835v-3.939c0-.237.003-.483.01-.74.012-.262.025-.509.038-.74l.048-.585L14.017 53h-1.152zm7.457.067c-.557 0-1.015-.118-1.374-.355a1.412 1.412 0 01-.634-.96h.913c.045.16.163.29.355.393.199.102.445.154.74.154h.451c.314 0 .558-.074.73-.221a.71.71 0 00.27-.577c0-.256-.087-.458-.26-.605-.166-.147-.413-.22-.74-.22h-1.162v-.75h1.134c.294 0 .518-.07.672-.212a.72.72 0 00.23-.557.728.728 0 00-.105-.403.611.611 0 00-.298-.25 1.242 1.242 0 00-.49-.086h-.48c-.256 0-.477.057-.663.172-.186.116-.298.257-.336.423h-.913c.064-.397.272-.724.625-.98.352-.256.78-.384 1.287-.384h.48c.378 0 .701.06.97.183.27.115.474.281.615.5.148.217.221.476.221.777 0 .314-.102.573-.307.778-.205.199-.493.311-.865.337v.038c.455.032.785.154.99.365.205.212.307.516.307.913 0 .467-.173.839-.519 1.114-.345.276-.81.413-1.393.413h-.451zm3.96-.067v-5.284h.865v2.2h2.229v-2.2h.864V53h-.864v-2.296h-2.229V53h-.865zm7.208.096c-.557 0-.996-.14-1.316-.423-.32-.288-.48-.675-.48-1.162 0-.493.16-.88.48-1.163.32-.281.752-.422 1.297-.422h1.633v-.529c0-.326-.1-.576-.298-.749-.192-.18-.467-.269-.826-.269-.314 0-.577.067-.788.202a.717.717 0 00-.365.528h-.865c.058-.454.273-.816.644-1.085.371-.27.836-.404 1.393-.404.608 0 1.089.157 1.441.471.352.314.528.74.528 1.278V53h-.845v-1.009h-.144l.144-.144c0 .384-.15.689-.451.913-.295.224-.689.336-1.182.336zm.211-.682c.41 0 .746-.102 1.009-.307a.957.957 0 00.394-.788v-.75H31.49c-.288 0-.516.08-.682.24-.167.16-.25.379-.25.654 0 .294.1.528.298.701.205.167.487.25.845.25zm6.996.586v-1.921c-.102.025-.259.05-.47.077a7.106 7.106 0 01-.654.028c-.653.007-1.162-.15-1.527-.47-.359-.327-.538-.782-.538-1.365v-1.633h.865v1.633c0 .327.108.586.326.779.224.185.532.278.922.278.27 0 .497-.01.682-.029a3.59 3.59 0 00.394-.067v-2.594h.865V53h-.865zm4.172.096c-.557 0-.996-.14-1.316-.423-.32-.288-.48-.675-.48-1.162 0-.493.16-.88.48-1.163.32-.281.753-.422 1.297-.422h1.633v-.529c0-.326-.1-.576-.298-.749-.192-.18-.467-.269-.826-.269-.314 0-.576.067-.788.202a.717.717 0 00-.365.528h-.864c.057-.454.272-.816.643-1.085.372-.27.836-.404 1.393-.404.609 0 1.09.157 1.441.471.353.314.529.74.529 1.278V53h-.846v-1.009h-.144l.144-.144c0 .384-.15.689-.451.913-.295.224-.689.336-1.182.336zm.212-.682c.41 0 .746-.102 1.008-.307a.957.957 0 00.394-.788v-.75H42.87c-.288 0-.515.08-.682.24-.166.16-.25.379-.25.654 0 .294.1.528.298.701.205.167.487.25.846.25zm3.297.653v-.807h.173c.295 0 .5-.115.615-.346.122-.23.186-.643.192-1.239l.058-2.959h3.583V53h-.865v-4.496h-1.863l-.048 2.21c-.013.557-.077 1.008-.192 1.354-.11.346-.282.599-.52.76-.23.16-.534.24-.912.24h-.22zM52.77 53v-5.284h.865v1.94h1.556c.596 0 1.063.151 1.403.452.345.295.518.702.518 1.22 0 .513-.173.92-.518 1.22-.346.301-.814.452-1.403.452H52.77zm.865-.788h1.556c.333 0 .586-.073.759-.22.18-.154.269-.375.269-.664 0-.288-.09-.506-.27-.653-.172-.153-.425-.23-.758-.23h-1.556v1.767zM58.42 53v-5.284h.865v2.2h2.229v-2.2h.864V53h-.864v-2.296h-2.23V53h-.864zm7.669.077c-.423 0-.788-.08-1.095-.24a1.744 1.744 0 01-.72-.692c-.167-.307-.25-.67-.25-1.086v-1.402c0-.423.083-.785.25-1.086.172-.3.412-.531.72-.691.307-.16.672-.24 1.095-.24.423 0 .788.08 1.095.24.308.16.544.39.711.691.173.301.26.66.26 1.076v1.412c0 .417-.087.779-.26 1.086a1.683 1.683 0 01-.71.692c-.308.16-.673.24-1.096.24zm0-.769c.378 0 .672-.105.884-.317.211-.211.317-.522.317-.932v-1.402c0-.41-.106-.72-.317-.932-.212-.211-.506-.317-.884-.317-.371 0-.666.106-.884.317-.211.211-.317.522-.317.932v1.402c0 .41.106.72.317.932.218.212.513.317.884.317zm9.4.692v-5.284h3.958V53h-.864v-4.496h-2.23V53h-.864zm7.669.077c-.423 0-.788-.08-1.095-.24a1.744 1.744 0 01-.72-.692c-.167-.307-.25-.67-.25-1.086v-1.402c0-.423.083-.785.25-1.086.172-.3.412-.531.72-.691.307-.16.672-.24 1.095-.24.423 0 .788.08 1.095.24.308.16.544.39.71.691.174.301.26.66.26 1.076v1.412c0 .417-.086.779-.26 1.086a1.683 1.683 0 01-.71.692c-.307.16-.672.24-1.095.24zm0-.769c.378 0 .672-.105.884-.317.211-.211.317-.522.317-.932v-1.402c0-.41-.106-.72-.317-.932-.212-.211-.506-.317-.884-.317-.372 0-.666.106-.884.317-.211.211-.317.522-.317.932v1.402c0 .41.106.72.317.932.218.212.512.317.884.317zm3.096 2.037V52.26h.432c.109-.109.221-.323.336-.643.122-.32.186-.727.192-1.22l.058-2.68h3.449v4.543h.672v2.085h-.768V53h-3.603v1.345h-.768zm1.345-2.085h2.257v-3.775H88.09l-.039 1.93c-.006.507-.06.917-.163 1.23-.103.314-.199.52-.288.615zm4.96.74v-5.284h.864v2.2h2.229v-2.2h.864V53h-.864v-2.296h-2.23V53h-.864zm5.362 0l1.355-2.037c-.404-.096-.718-.281-.942-.557-.217-.275-.326-.618-.326-1.028 0-.519.17-.925.509-1.22.346-.294.816-.442 1.412-.442h2.277V53h-.865v-1.97h-1.162L98.929 53h-1.008zm2.008-2.738h1.412v-1.777h-1.412c-.32 0-.573.08-.759.24-.186.154-.279.371-.279.653 0 .276.093.493.28.654.185.153.438.23.758.23zm3.346 2.805v-.807h.173c.294 0 .499-.115.614-.346.122-.23.186-.643.193-1.239l.057-2.959h3.583V53h-.864v-4.496h-1.864l-.048 2.21c-.013.557-.077 1.008-.192 1.354-.109.346-.282.599-.519.76-.23.16-.535.24-.912.24h-.221zm6.352-.067v-5.284h.826v2.882c0 .186-.006.381-.019.586a8.08 8.08 0 01-.038.586c-.013.18-.029.333-.048.461l2.132-4.515h1.105V53h-.826v-2.882c0-.186.003-.381.01-.586.012-.205.028-.4.048-.586l.048-.47L110.732 53h-1.105zm15.136 1.345V53h-3.757v-5.284h.865v4.515h2.075v-4.515h.865v4.515h.72v2.114h-.768zm3.912-1.249c-.416 0-.781-.083-1.095-.25a1.812 1.812 0 01-.721-.701 2.21 2.21 0 01-.249-1.066v-1.441c0-.41.083-.766.249-1.067.173-.3.414-.535.721-.701a2.31 2.31 0 011.095-.25c.416 0 .778.084 1.086.25.313.166.554.4.72.701.173.301.26.657.26 1.067v.931h-3.286v.51c0 .416.106.736.317.96.211.218.512.327.903.327.333 0 .602-.058.807-.173a.764.764 0 00.375-.538h.864a1.469 1.469 0 01-.653 1.057c-.371.256-.836.384-1.393.384zm1.22-3.103v-.355c0-.417-.106-.737-.317-.961-.205-.224-.506-.336-.903-.336-.391 0-.692.112-.903.336-.211.224-.317.544-.317.96v.28h2.507l-.067.076zM132.386 53v-5.284h.864v2.2h2.229v-2.2h.865V53h-.865v-2.296h-2.229V53h-.864zm6.496 1.73l.779-2.057-1.96-4.957h.96l1.23 3.267c.045.109.087.24.125.394l.096.374.096-.374c.039-.154.077-.285.115-.394l1.153-3.267h.932l-2.603 7.013h-.923zM149.455 53v-5.284h.864v2.2h2.229v-2.2h.865V53h-.865v-2.296h-2.229V53h-.864zm7.207.096c-.557 0-.996-.14-1.316-.423-.32-.288-.48-.675-.48-1.162 0-.493.16-.88.48-1.163.32-.281.753-.422 1.297-.422h1.633v-.529c0-.326-.099-.576-.298-.749-.192-.18-.467-.269-.826-.269-.314 0-.576.067-.788.202a.718.718 0 00-.365.528h-.864c.057-.454.272-.816.643-1.085.372-.27.836-.404 1.393-.404.609 0 1.089.157 1.441.471.353.314.529.74.529 1.278V53h-.846v-1.009h-.144l.144-.144c0 .384-.15.689-.451.913-.295.224-.689.336-1.182.336zm.212-.682c.409 0 .746-.102 1.008-.307a.956.956 0 00.394-.788v-.75h-1.614c-.288 0-.515.08-.682.24-.166.16-.25.379-.25.654 0 .294.1.528.298.701.205.167.487.25.846.25zM12.932 72v-5.284h.864v2.181h.904l1.537-2.18h.99l-1.778 2.516L17.255 72h-1.009l-1.537-2.354h-.912V72h-.865zm6.468 1.73l.778-2.057-1.96-4.957h.96l1.23 3.267a2.9 2.9 0 01.125.393c.039.148.07.273.096.375l.096-.375c.039-.153.077-.285.116-.393l1.152-3.267h.932l-2.603 7.013H19.4zm4.863 0v-7.014h.865v1.009h.173l-.173.202c0-.404.131-.72.394-.951.269-.237.62-.356 1.056-.356.532 0 .955.176 1.268.529.32.345.48.823.48 1.431v1.547c0 .403-.073.752-.22 1.047a1.57 1.57 0 01-.605.682c-.257.16-.564.24-.923.24-.429 0-.778-.118-1.047-.355-.269-.237-.403-.554-.403-.951l.173.201h-.192l.019 1.201v1.537h-.865zm2.027-2.383c.365 0 .65-.11.855-.327.212-.218.317-.531.317-.941v-1.441c0-.41-.105-.724-.317-.942-.205-.218-.49-.326-.855-.326-.352 0-.634.112-.845.336-.212.224-.317.535-.317.932v1.44c0 .398.105.708.317.932.211.225.493.337.845.337zm5.68.75c-.422 0-.794-.081-1.114-.241a1.73 1.73 0 01-.73-.692c-.173-.307-.26-.67-.26-1.085v-1.441c0-.423.087-.785.26-1.086a1.73 1.73 0 01.73-.692c.32-.16.691-.24 1.114-.24.609 0 1.099.163 1.47.49.372.327.567.772.586 1.335h-.865c-.019-.339-.134-.598-.345-.778-.205-.185-.487-.278-.846-.278-.378 0-.679.109-.903.326-.224.212-.336.516-.336.913v1.45c0 .398.112.705.336.923.224.218.525.326.903.326.359 0 .64-.092.846-.278.21-.186.326-.445.345-.778h.865c-.02.563-.215 1.008-.586 1.335-.371.327-.861.49-1.47.49zm4.374 1.44l.768-2.988h1.25l-1.25 2.988h-.768zM50.077 72v-1.921c-.103.025-.26.05-.471.077a7.1 7.1 0 01-.653.028c-.654.007-1.163-.15-1.528-.47-.358-.327-.538-.782-.538-1.365v-1.633h.865v1.633c0 .327.109.586.326.779.225.185.532.278.923.278.269 0 .496-.01.682-.029a3.52 3.52 0 00.394-.067v-2.594h.864V72h-.864zm4.2 0v-4.525h-1.921v-.759h4.707v.76h-1.921V72h-.865zm6.122.077c-.422 0-.788-.08-1.095-.24a1.744 1.744 0 01-.72-.692c-.167-.307-.25-.67-.25-1.086v-1.402c0-.423.083-.785.25-1.086.172-.3.413-.531.72-.691.307-.16.673-.24 1.095-.24.423 0 .788.08 1.095.24.308.16.545.39.711.691.173.301.26.66.26 1.076v1.412c0 .417-.087.779-.26 1.086a1.683 1.683 0 01-.71.692c-.308.16-.673.24-1.096.24zm0-.769c.378 0 .673-.105.884-.317.211-.211.317-.522.317-.932v-1.402c0-.41-.106-.72-.317-.932-.211-.211-.506-.317-.884-.317-.371 0-.666.106-.884.317-.21.211-.317.522-.317.932v1.402c0 .41.106.72.317.932.218.212.513.317.884.317zm5.69.788c-.621 0-1.114-.183-1.48-.547-.358-.372-.537-.878-.537-1.518v-2.402c0-.846.21-1.496.633-1.95.423-.461 1.029-.692 1.816-.692h1.345v.865h-1.345c-.519 0-.912.153-1.181.46-.27.302-.404.74-.404 1.317v.624h.135l-.135.192c.006-.377.135-.672.384-.883.25-.212.59-.317 1.019-.317.557 0 .99.179 1.297.538.313.358.47.851.47 1.48v.768c0 .429-.08.797-.24 1.104-.16.308-.39.545-.692.711-.3.167-.662.25-1.085.25zm0-.769c.371 0 .656-.112.855-.336.198-.224.298-.544.298-.96v-.769c0-.416-.1-.736-.298-.96-.199-.225-.484-.337-.855-.337s-.656.112-.855.336c-.199.218-.298.538-.298.961v.769c0 .416.1.736.298.96.199.224.484.337.855.337zM69.52 72v-5.284h.807v1.94h.432c.57 0 1.019.151 1.345.452.333.295.5.702.5 1.22 0 .52-.167.93-.5 1.23-.326.295-.775.442-1.345.442H69.52zm.807-.692h.432c.34 0 .602-.086.788-.26.192-.172.288-.412.288-.72 0-.307-.096-.547-.288-.72-.186-.173-.448-.26-.788-.26h-.432v1.96zm2.901.692v-5.284h.807V72h-.807zm9.948.096a2.46 2.46 0 01-1.114-.24 1.73 1.73 0 01-.73-.692c-.173-.307-.26-.67-.26-1.085v-1.441c0-.423.087-.785.26-1.086a1.73 1.73 0 01.73-.692c.32-.16.691-.24 1.114-.24.608 0 1.098.163 1.47.49.371.327.567.772.586 1.335h-.865c-.019-.339-.134-.598-.346-.778-.205-.185-.486-.278-.845-.278-.378 0-.679.109-.903.326-.224.212-.336.516-.336.913v1.45c0 .398.112.705.336.923.224.218.525.326.903.326.359 0 .64-.092.845-.278.212-.186.327-.445.346-.778h.865c-.02.563-.215 1.008-.586 1.335-.372.327-.862.49-1.47.49zm5.67-.02c-.422 0-.787-.08-1.095-.24a1.744 1.744 0 01-.72-.691c-.167-.307-.25-.67-.25-1.086v-1.402c0-.423.083-.785.25-1.086.173-.3.413-.531.72-.691.308-.16.673-.24 1.096-.24.422 0 .787.08 1.095.24.307.16.544.39.71.691.173.301.26.66.26 1.076v1.412c0 .417-.087.779-.26 1.086a1.683 1.683 0 01-.71.692c-.308.16-.673.24-1.096.24zm0-.768c.378 0 .673-.105.884-.317.212-.211.317-.522.317-.932v-1.402c0-.41-.105-.72-.317-.932-.211-.211-.506-.317-.883-.317-.372 0-.666.106-.884.317-.212.211-.317.522-.317.932v1.402c0 .41.105.72.317.932.218.212.512.317.883.317zm5.44.76c-.557 0-1.015-.12-1.373-.356a1.412 1.412 0 01-.634-.96h.912c.045.16.164.29.356.393.198.103.445.154.74.154h.45c.315 0 .558-.074.731-.221a.71.71 0 00.269-.577c0-.256-.086-.458-.26-.605-.166-.147-.412-.22-.74-.22h-1.162v-.75h1.134c.295 0 .519-.07.673-.212a.72.72 0 00.23-.557.728.728 0 00-.106-.403.611.611 0 00-.297-.25 1.243 1.243 0 00-.49-.086h-.48a1.23 1.23 0 00-.663.172c-.186.116-.298.257-.337.423h-.912c.064-.397.272-.724.624-.98s.781-.384 1.287-.384h.48c.379 0 .702.06.971.183.269.115.474.281.615.5.147.217.22.476.22.777 0 .314-.102.574-.307.778-.205.199-.493.311-.864.337v.038c.454.032.784.154.99.365.204.212.307.516.307.913 0 .467-.173.839-.52 1.114-.345.276-.81.413-1.392.413h-.452zm3.346 1.277V71.26h.432c.11-.109.221-.323.337-.643.121-.32.185-.727.192-1.22l.057-2.68h3.449v4.543h.673v2.085h-.769V72h-3.602v1.345h-.769zm1.345-2.085h2.258v-3.775h-1.768l-.038 1.93c-.007.507-.061.917-.164 1.23-.102.314-.198.52-.288.615zm6.477.836c-.557 0-.996-.14-1.316-.423-.32-.288-.48-.675-.48-1.162 0-.493.16-.88.48-1.162.32-.282.753-.423 1.297-.423h1.633v-.529c0-.326-.099-.576-.297-.749-.193-.18-.468-.269-.827-.269-.314 0-.576.067-.787.202a.716.716 0 00-.365.528h-.865c.058-.454.272-.816.644-1.085.371-.27.835-.404 1.393-.404.608 0 1.088.157 1.441.471.352.314.528.74.528 1.278V72h-.845v-1.009h-.145l.145-.144c0 .385-.151.689-.452.913-.295.224-.688.336-1.182.336zm.212-.682c.41 0 .746-.103 1.008-.307a.956.956 0 00.394-.788v-.75h-1.614c-.288 0-.515.08-.682.24-.166.16-.249.379-.249.654 0 .294.099.528.297.701.205.167.487.25.846.25zm5.507.586v-4.525h-1.922v-.759h4.708v.76h-1.922V72h-.864zm4.181 0v-5.284h.865v1.94h1.556c.596 0 1.063.151 1.403.452.346.295.518.702.518 1.22 0 .513-.172.92-.518 1.22-.346.302-.814.452-1.403.452h-2.421zm.865-.788h1.556c.333 0 .586-.073.759-.22.179-.154.269-.375.269-.664 0-.288-.09-.505-.269-.653-.173-.153-.426-.23-.759-.23h-1.556v1.767zm12.455.865c-.423 0-.788-.08-1.095-.24a1.748 1.748 0 01-.721-.692c-.166-.307-.249-.67-.249-1.086v-1.402c0-.423.083-.785.249-1.086.173-.3.414-.531.721-.691.307-.16.672-.24 1.095-.24.423 0 .788.08 1.095.24.308.16.545.39.711.691.173.301.26.66.26 1.076v1.412c0 .417-.087.779-.26 1.086a1.677 1.677 0 01-.711.692c-.307.16-.672.24-1.095.24zm0-.769c.378 0 .673-.105.884-.317.211-.211.317-.522.317-.932v-1.402c0-.41-.106-.72-.317-.932-.211-.211-.506-.317-.884-.317-.371 0-.666.106-.884.317-.211.211-.317.522-.317.932v1.402c0 .41.106.72.317.932.218.212.513.317.884.317zm7.563 2.037V72h-4.14v-5.284h.778v4.554h1.114v-4.554h.673v4.554h1.114v-4.554h.778v4.554h.452v2.075h-.769zm2.644.384l.779-2.056-1.96-4.957h.96l1.23 3.267c.045.108.087.24.125.393l.096.375.096-.375c.039-.153.077-.285.115-.393l1.153-3.267h.932l-2.603 7.013h-.923zm8.735-.384V72h-4.14v-5.284h.778v4.554h1.114v-4.554h.673v4.554h1.114v-4.554h.778v4.554h.452v2.075h-.769zm3.817-1.249c-.417 0-.782-.083-1.095-.25a1.806 1.806 0 01-.721-.701 2.21 2.21 0 01-.25-1.066v-1.441c0-.41.084-.766.25-1.067.173-.3.413-.534.721-.701.313-.166.678-.25 1.095-.25.416 0 .778.084 1.085.25.314.166.554.4.721.701.173.301.259.657.259 1.067v.931h-3.285v.51c0 .416.105.736.317.96.211.218.512.327.903.327.333 0 .602-.058.807-.173a.76.76 0 00.374-.538h.865a1.472 1.472 0 01-.653 1.057c-.372.256-.836.384-1.393.384zm1.22-3.103v-.355c0-.417-.106-.737-.317-.961-.205-.224-.506-.336-.903-.336-.391 0-.692.112-.903.336-.212.224-.317.544-.317.96v.28h2.507l-.067.076zm2.49 3.007v-5.284h.865v2.2h2.229v-2.2h.864V72h-.864v-2.296h-2.229V72h-.865zm5.69 0v-5.284h.826v2.882c0 .186-.006.381-.019.586a8.08 8.08 0 01-.038.586 6.36 6.36 0 01-.048.462l2.132-4.516h1.105V72h-.826v-2.882c0-.186.003-.381.009-.586.013-.205.029-.4.049-.586l.048-.47L161.939 72h-1.105zm7.669.096c-.417 0-.782-.083-1.095-.25a1.806 1.806 0 01-.721-.701 2.21 2.21 0 01-.25-1.066v-1.441c0-.41.084-.766.25-1.067.173-.3.413-.534.721-.701.313-.166.678-.25 1.095-.25.416 0 .778.084 1.085.25.314.166.554.4.721.701.173.301.259.657.259 1.067v.931h-3.285v.51c0 .416.105.736.317.96.211.218.512.327.903.327.333 0 .602-.058.807-.173a.76.76 0 00.374-.538h.865a1.472 1.472 0 01-.653 1.057c-.372.256-.836.384-1.393.384zm1.22-3.103v-.355c0-.417-.106-.737-.317-.961-.205-.224-.506-.336-.903-.336-.391 0-.692.112-.903.336-.212.224-.317.544-.317.96v.28h2.507l-.067.076zM16.659 92.345V91h-3.756v-5.284h.865v4.516h2.075v-4.516h.864v4.516h.72v2.113h-.768zm3.913-1.249c-.417 0-.782-.083-1.095-.25a1.807 1.807 0 01-.721-.701 2.204 2.204 0 01-.25-1.066v-1.441c0-.41.084-.766.25-1.067.173-.3.413-.534.72-.701.314-.166.68-.25 1.096-.25.416 0 .778.084 1.085.25.314.166.554.4.72.701.174.301.26.657.26 1.067v.931h-3.285v.51c0 .416.105.736.317.96.211.218.512.327.903.327.333 0 .602-.058.807-.173a.763.763 0 00.374-.538h.865a1.472 1.472 0 01-.653 1.057c-.372.256-.836.384-1.393.384zm1.22-3.103v-.355c0-.417-.106-.737-.317-.961-.205-.224-.506-.336-.903-.336-.391 0-.692.112-.903.336-.212.224-.317.544-.317.96v.28h2.507l-.067.076zM24.282 91v-5.284h.865v2.2h2.229v-2.2h.864V91h-.864v-2.296h-2.229V91h-.865zm5.69 0v-5.284h.865v2.2h2.228v-2.2h.865V91h-.865v-2.296h-2.228V91h-.865zm7.669.077c-.423 0-.788-.08-1.096-.24a1.744 1.744 0 01-.72-.692c-.167-.307-.25-.67-.25-1.086v-1.402c0-.423.083-.785.25-1.086.173-.3.413-.531.72-.691.308-.16.673-.24 1.096-.24.422 0 .787.08 1.095.24.307.16.544.39.71.691.174.301.26.66.26 1.076v1.412c0 .417-.086.779-.26 1.086a1.683 1.683 0 01-.71.692c-.308.16-.673.24-1.095.24zm0-.769c.378 0 .672-.105.884-.317.21-.211.317-.522.317-.932v-1.402c0-.41-.106-.72-.317-.932-.212-.211-.506-.317-.884-.317-.372 0-.666.106-.884.317-.212.211-.317.522-.317.932v1.402c0 .41.105.72.317.932.218.212.512.317.884.317zm5.709.788c-.423 0-.795-.08-1.115-.24a1.73 1.73 0 01-.73-.692c-.173-.307-.26-.67-.26-1.085v-1.441c0-.423.087-.785.26-1.086a1.73 1.73 0 01.73-.692c.32-.16.692-.24 1.114-.24.609 0 1.099.163 1.47.49.372.327.567.772.586 1.335h-.864c-.02-.339-.135-.598-.346-.778-.205-.185-.487-.278-.846-.278-.377 0-.678.109-.902.326-.225.212-.337.516-.337.913v1.45c0 .398.112.705.337.923.224.218.525.326.902.326.36 0 .641-.092.846-.278.211-.186.327-.445.346-.778h.864c-.019.563-.214 1.008-.586 1.335-.371.327-.861.49-1.47.49zM48.587 91v-4.525h-1.922v-.759h4.708v.76h-1.922V91h-.864zm4.143 0v-5.284h.826v2.882c0 .186-.007.381-.02.586-.006.205-.019.4-.038.586a6.36 6.36 0 01-.048.462l2.133-4.516h1.105V91h-.827v-2.882c0-.186.004-.381.01-.586.013-.205.029-.4.048-.586l.048-.47L53.835 91h-1.104zm11.379 0v-5.284h.826v2.882c0 .186-.006.381-.02.586-.005.205-.018.4-.037.586-.013.18-.03.333-.049.462l2.133-4.516h1.105V91h-.826v-2.882c0-.186.003-.381.01-.586.012-.205.028-.4.047-.586l.048-.47L65.215 91H64.11zm13.32.096c-.609 0-1.095-.163-1.46-.49-.365-.326-.558-.772-.577-1.335h.865c.019.333.131.592.336.778.205.186.484.278.836.278.378 0 .67-.108.874-.326.211-.218.317-.525.317-.922v-.385h-1.873v-.768h1.873v-.298c0-.397-.106-.701-.317-.913-.205-.217-.496-.326-.874-.326-.353 0-.631.093-.836.278-.205.18-.317.44-.336.778h-.865c.02-.563.212-1.008.577-1.335.365-.326.851-.49 1.46-.49.429 0 .794.08 1.095.24.307.16.544.391.71.692.167.301.25.663.25 1.086v1.44c0 .417-.083.779-.25 1.086a1.684 1.684 0 01-.71.692c-.301.16-.666.24-1.095.24zM81.208 91v-5.284h.864v2.181h.903l1.537-2.18h.99l-1.777 2.516L85.53 91h-1.009l-1.537-2.354h-.913V91h-.864zm7.659.096c-.423 0-.794-.08-1.115-.24a1.73 1.73 0 01-.73-.692c-.173-.307-.26-.67-.26-1.085v-1.441c0-.423.087-.785.26-1.086a1.73 1.73 0 01.73-.692c.32-.16.692-.24 1.115-.24.608 0 1.098.163 1.47.49.371.327.566.772.586 1.335h-.865c-.02-.339-.135-.598-.346-.778-.205-.185-.487-.278-.845-.278-.378 0-.68.109-.903.326-.224.212-.337.516-.337.913v1.45c0 .398.113.705.337.923.224.218.525.326.903.326.358 0 .64-.092.845-.278.212-.186.327-.445.346-.778h.865c-.02.563-.215 1.008-.586 1.335-.372.327-.862.49-1.47.49zm3.72-.096v-5.284h.865v2.181h.903l1.537-2.18h.99l-1.778 2.516L96.91 91h-1.009l-1.537-2.354h-.912V91h-.865zm4.998.067v-.807h.173c.294 0 .5-.115.615-.346.121-.23.185-.643.192-1.239l.058-2.959h3.583V91h-.865v-4.496h-1.863l-.048 2.21c-.013.557-.077 1.008-.193 1.354-.108.346-.281.599-.518.76-.231.16-.535.24-.913.24h-.221zm9.158.03c-.442 0-.798-.151-1.067-.452-.269-.301-.403-.695-.403-1.182v-.797h-.846V91h-.797v-5.284h.797v2.258h.846v-.72c0-.494.131-.888.394-1.182.269-.301.627-.452 1.076-.452.474 0 .855.15 1.143.452.288.294.432.688.432 1.181v2.21c0 .487-.144.88-.432 1.182-.288.3-.669.451-1.143.451zm0-.673c.243 0 .432-.084.566-.25.141-.173.212-.41.212-.711v-2.21c0-.3-.071-.534-.212-.7-.134-.174-.323-.26-.566-.26a.669.669 0 00-.558.26c-.134.166-.201.4-.201.7v2.21c0 .3.067.538.201.71a.68.68 0 00.558.25zm4.613.643c-.557 0-1.015-.118-1.373-.355a1.408 1.408 0 01-.634-.96h.912c.045.16.164.29.356.393.198.103.445.154.739.154h.452c.314 0 .557-.074.73-.221a.712.712 0 00.269-.577c0-.256-.086-.458-.259-.605-.167-.147-.413-.22-.74-.22h-1.163v-.75h1.134c.295 0 .519-.07.673-.212a.722.722 0 00.23-.557.723.723 0 00-.106-.403.61.61 0 00-.297-.25 1.245 1.245 0 00-.49-.086h-.481c-.256 0-.477.057-.663.172-.185.116-.297.257-.336.423h-.912c.064-.397.272-.724.624-.98s.781-.384 1.287-.384h.481c.378 0 .701.06.97.183a1.326 1.326 0 01.836 1.277c0 .314-.103.574-.308.778-.205.199-.493.311-.864.337v.038c.454.032.784.154.989.365.205.212.308.516.308.913 0 .467-.173.839-.519 1.114-.346.276-.81.413-1.393.413h-.452zm3.961-.067v-5.284h.826v2.882c0 .186-.006.381-.019.586-.007.205-.019.4-.039.586-.012.18-.028.333-.048.462l2.133-4.516h1.105V91h-.826v-2.882c0-.186.003-.381.009-.586.013-.205.029-.4.048-.586l.048-.47L116.422 91h-1.105zm5.689 0v-5.284h2.287c.551 0 .977.125 1.278.375.301.243.451.586.451 1.028 0 .365-.125.66-.375.884-.249.217-.579.326-.989.326v-.076c.448 0 .807.112 1.076.336.275.224.413.525.413.903 0 .474-.16.845-.48 1.114-.321.263-.769.394-1.345.394h-2.316zm.846-.759h1.47c.307 0 .544-.067.711-.202.173-.134.259-.323.259-.567 0-.25-.086-.441-.259-.576-.167-.134-.404-.202-.711-.202h-1.47v1.547zm0-2.296h1.441c.269 0 .48-.064.634-.192.16-.128.24-.308.24-.538 0-.23-.077-.41-.23-.538-.154-.135-.369-.202-.644-.202h-1.441v1.47zM126.696 91v-5.284h.865v2.2h2.228v-2.2h.865V91h-.865v-2.296h-2.228V91h-.865zm7.669.077c-.423 0-.788-.08-1.095-.24a1.742 1.742 0 01-.721-.692c-.166-.307-.25-.67-.25-1.086v-1.402c0-.423.084-.785.25-1.086.173-.3.413-.531.721-.691.307-.16.672-.24 1.095-.24.422 0 .788.08 1.095.24.307.16.544.39.711.691.173.301.259.66.259 1.076v1.412c0 .417-.086.779-.259 1.086a1.689 1.689 0 01-.711.692c-.307.16-.673.24-1.095.24zm0-.769c.378 0 .672-.105.884-.317.211-.211.317-.522.317-.932v-1.402c0-.41-.106-.72-.317-.932-.212-.211-.506-.317-.884-.317-.372 0-.666.106-.884.317-.211.211-.317.522-.317.932v1.402c0 .41.106.72.317.932.218.212.512.317.884.317zm5.709.788c-.423 0-.795-.08-1.115-.24a1.73 1.73 0 01-.73-.692c-.173-.307-.259-.67-.259-1.085v-1.441c0-.423.086-.785.259-1.086a1.73 1.73 0 01.73-.692c.32-.16.692-.24 1.115-.24.608 0 1.098.163 1.469.49.372.327.567.772.586 1.335h-.864c-.019-.339-.135-.598-.346-.778-.205-.185-.487-.278-.845-.278-.378 0-.679.109-.903.326-.225.212-.337.516-.337.913v1.45c0 .398.112.705.337.923.224.218.525.326.903.326.358 0 .64-.092.845-.278.211-.186.327-.445.346-.778h.864c-.019.563-.214 1.008-.586 1.335-.371.327-.861.49-1.469.49zm5.238-.096v-4.525h-1.922v-.759h4.708v.76h-1.922V91h-.864zm4.143 0v-5.284h.826v2.882c0 .186-.006.381-.019.586-.007.205-.02.4-.039.586a6.36 6.36 0 01-.048.462l2.133-4.516h1.105V91h-.826v-2.882c0-.186.003-.381.009-.586.013-.205.029-.4.048-.586l.048-.47L150.56 91h-1.105zm7.668.096c-.243 0-.438-.07-.586-.211-.141-.141-.211-.33-.211-.567 0-.25.07-.448.211-.596.148-.147.343-.22.586-.22.244 0 .436.073.577.22.147.148.221.346.221.596 0 .237-.074.426-.221.567-.141.14-.333.211-.577.211z" fill="#fff"/><defs><filter id="filter0_d_441_1316" x=".157" y="0" width="179.685" height="144.685" filterUnits="userSpaceOnUse" color-interpolation-filters="sRGB"><feFlood flood-opacity="0" result="BackgroundImageFix"/><feColorMatrix in="SourceAlpha" values="0 0 0 0 0 0 0 0 0 0 0 0 0 0 0 0 0 0 127 0" result="hardAlpha"/><feOffset dy="3.843"/><feGaussianBlur stdDeviation="1.921"/><feComposite in2="hardAlpha" operator="out"/><feColorMatrix values="0 0 0 0 0 0 0 0 0 0 0 0 0 0 0 0 0 0 0.25 0"/><feBlend in2="BackgroundImageFix" result="effect1_dropShadow_441_1316"/><feBlend in="SourceGraphic" in2="effect1_dropShadow_441_1316" result="shape"/></filter></defs></svg>