<svg width="180" height="145" fill="none" xmlns="http://www.w3.org/2000/svg"><g filter="url(#filter0_d_441_1337)"><rect x="4" width="172" height="137" rx="16.011" fill="#4F8348"/></g><path d="M12.884 53v-7.013h2.257c.436 0 .814.087 1.134.26.32.166.567.403.74.71.179.308.269.673.269 1.096 0 .416-.09.78-.27 1.095a1.818 1.818 0 01-.739.72c-.32.167-.698.25-1.134.25h-1.393V53h-.864zm.864-3.66h1.393c.378 0 .68-.115.903-.346.231-.237.346-.55.346-.941 0-.398-.115-.711-.346-.942-.224-.23-.525-.346-.903-.346h-1.393v2.575zm6.363 3.756c-.558 0-.996-.14-1.317-.423-.32-.288-.48-.675-.48-1.162 0-.493.16-.88.48-1.163.32-.281.753-.422 1.297-.422h1.633v-.529c0-.326-.099-.576-.297-.749-.192-.18-.468-.269-.826-.269-.314 0-.577.067-.788.202a.718.718 0 00-.365.528h-.865c.058-.454.272-.816.644-1.085.371-.27.835-.404 1.393-.404.608 0 1.088.157 1.44.471.353.314.53.74.53 1.278V53h-.846v-1.009H21.6l.144-.144c0 .384-.15.689-.452.913-.294.224-.688.336-1.181.336zm.21-.682c.41 0 .747-.102 1.01-.307a.957.957 0 00.393-.788v-.75h-1.613c-.289 0-.516.08-.683.24-.166.16-.25.379-.25.654 0 .294.1.528.299.701.204.167.486.25.845.25zm5.69.653c-.557 0-1.015-.118-1.373-.355a1.412 1.412 0 01-.634-.96h.912c.045.16.164.29.356.393.198.102.445.154.74.154h.451c.314 0 .557-.074.73-.221a.71.71 0 00.27-.577c0-.256-.087-.458-.26-.605-.167-.147-.413-.22-.74-.22h-1.162v-.75h1.133c.295 0 .519-.07.673-.212a.72.72 0 00.23-.557.727.727 0 00-.105-.403.61.61 0 00-.298-.25 1.243 1.243 0 00-.49-.086h-.48a1.23 1.23 0 00-.663.172c-.186.116-.298.257-.337.423h-.912c.064-.397.272-.724.624-.98.353-.256.782-.384 1.288-.384h.48c.378 0 .701.06.97.183a1.321 1.321 0 01.835 1.277c0 .314-.101.573-.306.778-.205.199-.494.311-.865.337v.038c.455.032.785.154.99.365.204.212.307.516.307.913 0 .467-.173.839-.519 1.114-.346.276-.81.413-1.393.413h-.451zm5.94.01c-.423 0-.788-.08-1.095-.24a1.744 1.744 0 01-.72-.692c-.167-.307-.25-.67-.25-1.086v-1.402c0-.423.083-.785.25-1.086.172-.3.412-.531.72-.691.307-.16.672-.24 1.095-.24.423 0 .788.08 1.095.24.308.16.544.39.711.691.173.301.26.66.26 1.076v1.412c0 .417-.087.779-.26 1.086a1.684 1.684 0 01-.71.692c-.308.16-.673.24-1.096.24zm0-.769c.378 0 .672-.105.884-.317.211-.211.317-.522.317-.932v-1.402c0-.41-.106-.72-.317-.932-.212-.211-.506-.317-.884-.317-.372 0-.666.106-.884.317-.211.211-.317.522-.317.932v1.402c0 .41.106.72.317.932.218.212.512.317.884.317zm5.709.788a2.46 2.46 0 01-1.114-.24 1.73 1.73 0 01-.73-.692c-.174-.307-.26-.67-.26-1.085v-1.441c0-.423.086-.785.26-1.086a1.73 1.73 0 01.73-.692c.32-.16.691-.24 1.114-.24.608 0 1.098.163 1.47.49.371.327.566.772.586 1.336h-.865c-.02-.34-.134-.6-.346-.779-.205-.185-.486-.278-.845-.278-.378 0-.679.109-.903.326-.224.212-.336.516-.336.913v1.45c0 .398.112.705.336.923.224.218.525.327.903.327.359 0 .64-.093.845-.28.212-.185.327-.444.346-.777h.865c-.02.563-.215 1.008-.586 1.335-.372.327-.862.49-1.47.49zm3.028-.029v-.807h.173c.295 0 .5-.115.615-.346.122-.23.186-.643.192-1.239l.058-2.959h3.583V53h-.864v-4.496H42.58l-.048 2.21c-.013.557-.077 1.008-.192 1.354-.11.346-.282.599-.519.76-.23.16-.535.24-.913.24h-.22zm7.87.03c-.556 0-.995-.142-1.315-.424-.32-.288-.48-.675-.48-1.162 0-.493.16-.88.48-1.163.32-.281.752-.422 1.297-.422h1.633v-.529c0-.326-.1-.576-.298-.749-.192-.18-.468-.269-.826-.269-.314 0-.577.067-.788.202a.718.718 0 00-.365.528h-.865c.058-.454.273-.816.644-1.085.372-.27.836-.404 1.393-.404.608 0 1.089.157 1.441.471.352.314.528.74.528 1.278V53h-.845v-1.009h-.144l.144-.144c0 .384-.15.689-.452.913-.294.224-.688.336-1.181.336zm.212-.683c.41 0 .746-.102 1.009-.307a.957.957 0 00.394-.788v-.75h-1.614c-.288 0-.516.08-.682.24-.167.16-.25.379-.25.654 0 .294.1.528.298.701.205.167.486.25.845.25zm3.298.653v-.807h.173c.294 0 .5-.115.614-.346.122-.23.186-.643.193-1.239l.057-2.959h3.584V53h-.865v-4.496H53.96l-.048 2.21c-.013.557-.077 1.008-.192 1.354-.109.346-.282.599-.519.76-.23.16-.534.24-.912.24h-.221zM58.42 53v-5.284h.826v2.882c0 .186-.006.381-.019.586-.006.205-.019.4-.038.586a6.1 6.1 0 01-.048.461l2.133-4.515h1.104V53h-.826v-2.882c0-.186.003-.381.01-.586.013-.205.029-.4.048-.586l.048-.47L59.525 53H58.42zm13.359.077c-.423 0-.788-.08-1.096-.24a1.744 1.744 0 01-.72-.692c-.167-.307-.25-.67-.25-1.086v-1.402c0-.423.083-.785.25-1.086.173-.3.413-.531.72-.691.308-.16.673-.24 1.096-.24.422 0 .787.08 1.095.24.307.16.544.39.71.691.174.301.26.66.26 1.076v1.412c0 .417-.086.779-.26 1.086a1.683 1.683 0 01-.71.692c-.308.16-.673.24-1.095.24zm0-.769c.377 0 .672-.105.883-.317.212-.211.317-.522.317-.932v-1.402c0-.41-.105-.72-.317-.932-.211-.211-.506-.317-.883-.317-.372 0-.666.106-.884.317-.212.211-.317.522-.317.932v1.402c0 .41.105.72.317.932.218.212.512.317.884.317zm5.305 2.421V53c-.615 0-1.098-.173-1.45-.519-.353-.346-.529-.82-.529-1.422v-1.421c0-.596.176-1.063.528-1.403.359-.346.843-.519 1.451-.519v-1.729h.769v1.73c.614 0 1.098.172 1.45.518.352.34.529.807.529 1.403v1.421c0 .602-.177 1.076-.529 1.422-.352.346-.836.519-1.45.519v1.73h-.769zm.02-2.411v-3.92c-.372 0-.664.11-.875.327-.211.218-.317.522-.317.913v1.421c0 .391.106.699.317.923.211.224.503.336.874.336zm.73 0c.377 0 .668-.112.873-.336.212-.224.318-.532.318-.923v-1.421c0-.391-.106-.695-.318-.913-.204-.218-.496-.327-.874-.327v3.92zm4.94 2.411V53c-.615 0-1.099-.173-1.451-.519-.352-.346-.528-.82-.528-1.422v-1.421c0-.596.176-1.063.528-1.403.359-.346.842-.519 1.45-.519v-1.729h.77v1.73c.614 0 1.097.172 1.45.518.352.34.528.807.528 1.403v1.421c0 .602-.176 1.076-.528 1.422-.352.346-.836.519-1.45.519v1.73h-.77zm.019-2.411v-3.92c-.372 0-.663.11-.874.327-.212.218-.317.522-.317.913v1.421c0 .391.105.699.317.923.211.224.502.336.874.336zm.73 0c.378 0 .67-.112.874-.336.212-.224.317-.532.317-.923v-1.421c0-.391-.105-.695-.317-.913-.205-.218-.496-.327-.874-.327v3.92zm5.325.778c-.417 0-.782-.083-1.096-.25a1.807 1.807 0 01-.72-.701 2.203 2.203 0 01-.25-1.066v-1.441c0-.41.083-.766.25-1.067.173-.3.413-.535.72-.701.314-.166.68-.25 1.096-.25.416 0 .778.084 1.085.25.314.166.554.4.72.701.173.301.26.657.26 1.067v.931h-3.285v.51c0 .416.105.736.317.96.21.218.512.327.903.327.333 0 .602-.058.806-.173a.764.764 0 00.375-.538h.865a1.472 1.472 0 01-.654 1.057c-.37.256-.835.384-1.392.384zm1.22-3.103v-.355c0-.417-.106-.737-.317-.961-.205-.224-.506-.336-.904-.336-.39 0-.691.112-.902.336-.212.224-.317.544-.317.96v.28h2.507l-.067.076zm2.471 4.736v-7.013h.865v1.009h.172l-.172.202c0-.404.13-.72.394-.951.269-.237.62-.356 1.056-.356.532 0 .954.176 1.268.529.32.345.48.823.48 1.431v1.547c0 .403-.073.752-.22 1.047a1.573 1.573 0 01-.606.682c-.256.16-.563.24-.922.24-.429 0-.778-.118-1.047-.355-.269-.237-.403-.554-.403-.951l.172.201h-.192l.02 1.201v1.537h-.865zm2.027-2.382c.365 0 .65-.11.855-.327.211-.218.317-.532.317-.941v-1.441c0-.41-.106-.724-.317-.942-.205-.218-.49-.326-.855-.326-.352 0-.634.112-.845.336-.212.224-.317.535-.317.932v1.44c0 .398.105.708.317.932.211.225.493.337.845.337zm9.372.653v-5.284h3.957V53h-.864v-4.496h-2.229V53h-.864zm7.668.077c-.423 0-.788-.08-1.095-.24a1.748 1.748 0 01-.721-.692c-.166-.307-.249-.67-.249-1.086v-1.402c0-.423.083-.785.249-1.086.173-.3.414-.531.721-.691.307-.16.672-.24 1.095-.24.423 0 .788.08 1.095.24.308.16.545.39.711.691.173.301.26.66.26 1.076v1.412c0 .417-.087.779-.26 1.086a1.677 1.677 0 01-.711.692c-.307.16-.672.24-1.095.24zm0-.769c.378 0 .673-.105.884-.317.211-.211.317-.522.317-.932v-1.402c0-.41-.106-.72-.317-.932-.211-.211-.506-.317-.884-.317-.371 0-.666.106-.884.317-.211.211-.317.522-.317.932v1.402c0 .41.106.72.317.932.218.212.513.317.884.317zm11.379.788c-.621 0-1.114-.182-1.479-.547-.359-.372-.538-.878-.538-1.518v-2.402c0-.846.211-1.495.634-1.95.423-.461 1.028-.692 1.816-.692h1.345v.865h-1.345c-.519 0-.913.153-1.182.46-.269.302-.403.74-.403 1.317v.624h.134l-.134.193c.006-.378.134-.673.384-.884.25-.212.589-.317 1.018-.317.557 0 .99.179 1.297.538.314.358.471.851.471 1.48v.768c0 .429-.08.797-.24 1.104-.16.308-.391.545-.692.711-.301.167-.663.25-1.086.25zm0-.768c.372 0 .657-.113.855-.337.199-.224.298-.544.298-.96v-.769c0-.416-.099-.736-.298-.96-.198-.225-.483-.337-.855-.337-.371 0-.656.112-.855.336-.198.218-.297.538-.297.961v.769c0 .416.099.736.297.96.199.224.484.337.855.337zm5.229.768c-.557 0-.996-.14-1.316-.423-.32-.288-.48-.675-.48-1.162 0-.493.16-.88.48-1.163.32-.281.752-.422 1.297-.422h1.633v-.529c0-.326-.099-.576-.298-.749-.192-.18-.467-.269-.826-.269-.314 0-.576.067-.788.202a.718.718 0 00-.365.528h-.864c.057-.454.272-.816.643-1.085.372-.27.836-.404 1.393-.404.609 0 1.089.157 1.441.471.352.314.529.74.529 1.278V53h-.846v-1.009h-.144l.144-.144c0 .384-.15.689-.451.913-.295.224-.689.336-1.182.336zm.211-.682c.41 0 .746-.102 1.009-.307a.956.956 0 00.394-.788v-.75h-1.614c-.288 0-.516.08-.682.24-.167.16-.25.379-.25.654 0 .294.099.528.298.701.205.167.487.25.845.25zm5.69.653c-.557 0-1.015-.118-1.374-.355a1.415 1.415 0 01-.634-.96h.913c.045.16.163.29.355.393.199.102.445.154.74.154h.452c.313 0 .557-.074.73-.221a.712.712 0 00.269-.577c0-.256-.087-.458-.26-.605-.166-.147-.413-.22-.739-.22h-1.163v-.75h1.134c.294 0 .518-.07.672-.212a.72.72 0 00.231-.557.723.723 0 00-.106-.403.609.609 0 00-.298-.25 1.242 1.242 0 00-.49-.086h-.48c-.256 0-.477.057-.663.172-.186.116-.298.257-.336.423h-.913c.064-.397.272-.724.625-.98.352-.256.781-.384 1.287-.384h.48c.378 0 .702.06.971.183a1.327 1.327 0 01.835 1.277c0 .314-.102.573-.307.778-.205.199-.493.311-.865.337v.038c.455.032.785.154.99.365.205.212.307.516.307.913 0 .467-.173.839-.519 1.114-.345.276-.81.413-1.392.413h-.452zm5.939.03a2.31 2.31 0 01-1.095-.25 1.81 1.81 0 01-.72-.702 2.199 2.199 0 01-.25-1.066v-1.441c0-.41.083-.766.25-1.067a1.81 1.81 0 01.72-.701 2.31 2.31 0 011.095-.25c.417 0 .779.084 1.086.25.314.166.554.4.72.701.173.301.26.657.26 1.067v.931h-3.286v.51c0 .416.106.736.317.96.212.218.513.327.903.327.333 0 .602-.058.807-.173a.764.764 0 00.375-.538h.865a1.473 1.473 0 01-.654 1.057c-.371.256-.835.384-1.393.384zm1.22-3.104v-.355c0-.417-.105-.737-.317-.961-.204-.224-.505-.336-.903-.336-.39 0-.691.112-.903.336-.211.224-.317.544-.317.96v.28h2.508l-.068.076zM16.659 73.345V72h-3.756v-5.284h.865v4.516h2.075v-4.516h.864v4.516h.72v2.113h-.768zm3.913-1.249c-.417 0-.782-.083-1.095-.25a1.807 1.807 0 01-.721-.701 2.204 2.204 0 01-.25-1.066v-1.441c0-.41.084-.766.25-1.067.173-.3.413-.534.72-.701.314-.166.68-.25 1.096-.25.416 0 .778.084 1.085.25.314.166.554.4.72.701.174.301.26.657.26 1.067v.931h-3.285v.51c0 .416.105.736.317.96.211.218.512.327.903.327.333 0 .602-.058.807-.173a.763.763 0 00.374-.538h.865a1.472 1.472 0 01-.653 1.057c-.372.256-.836.384-1.393.384zm1.22-3.103v-.355c0-.417-.106-.737-.317-.961-.205-.224-.506-.336-.903-.336-.391 0-.692.112-.903.336-.212.224-.317.544-.317.96v.28h2.507l-.067.076zm1.827 3.074v-.807h.173c.295 0 .5-.115.615-.346.122-.23.186-.643.192-1.239l.058-2.959h3.583V72h-.864v-4.496h-1.864l-.048 2.21c-.013.557-.077 1.008-.192 1.354-.109.346-.282.599-.519.76-.23.16-.535.24-.913.24h-.22zm8.332.03a2.31 2.31 0 01-1.095-.25 1.807 1.807 0 01-.72-.702 2.204 2.204 0 01-.25-1.066v-1.441c0-.41.083-.766.25-1.067.172-.3.412-.534.72-.701a2.31 2.31 0 011.095-.25c.416 0 .778.084 1.085.25.314.166.554.4.721.701.173.301.26.657.26 1.067v.931H30.73v.51c0 .416.106.736.317.96.211.218.512.327.903.327.333 0 .602-.058.807-.173a.763.763 0 00.375-.538h.864a1.472 1.472 0 01-.653 1.057c-.372.256-.836.384-1.393.384zm1.22-3.104v-.355c0-.417-.106-.737-.317-.961-.205-.224-.506-.336-.903-.336-.39 0-.692.112-.903.336-.211.224-.317.544-.317.96v.28h2.507l-.067.076zM35.661 72v-5.284h2.287c.55 0 .977.125 1.278.375.3.243.451.586.451 1.028 0 .365-.125.66-.374.884-.25.217-.58.326-.99.326v-.076c.448 0 .807.112 1.076.336.275.224.413.525.413.903 0 .474-.16.845-.48 1.114-.32.263-.769.394-1.345.394h-2.315zm.846-.759h1.47c.307 0 .544-.067.71-.202.174-.134.26-.323.26-.567 0-.25-.086-.441-.26-.576-.166-.134-.403-.202-.71-.202h-1.47v1.547zm0-2.296h1.441c.269 0 .48-.064.634-.192.16-.128.24-.308.24-.538 0-.23-.077-.41-.23-.538-.154-.135-.368-.202-.644-.202h-1.441v1.47zm6.823 3.132c-.422 0-.788-.08-1.095-.24a1.744 1.744 0 01-.72-.692c-.167-.307-.25-.67-.25-1.086v-1.402c0-.423.083-.785.25-1.086.172-.3.413-.531.72-.691.307-.16.673-.24 1.095-.24.423 0 .788.08 1.096.24.307.16.544.39.71.691.173.301.26.66.26 1.076v1.412c0 .417-.087.779-.26 1.086a1.684 1.684 0 01-.71.692c-.308.16-.673.24-1.096.24zm0-.769c.378 0 .673-.105.884-.317.212-.211.317-.522.317-.932v-1.402c0-.41-.105-.72-.317-.932-.211-.211-.506-.317-.884-.317-.371 0-.666.106-.883.317-.212.211-.318.522-.318.932v1.402c0 .41.106.72.318.932.217.212.512.317.883.317zm3.711.692v-5.284h.826v2.882c0 .186-.006.381-.02.586-.005.205-.018.4-.038.586a6.1 6.1 0 01-.047.462l2.132-4.516H51V72h-.826v-2.882c0-.186.003-.381.01-.586.012-.205.028-.4.047-.586l.048-.47L48.146 72H47.04zm2.017-6.148c-.46 0-.832-.128-1.114-.385-.282-.256-.423-.592-.423-1.008h.682c0 .25.077.451.23.605.155.154.36.23.616.23.262 0 .47-.076.624-.23a.8.8 0 00.24-.605h.683c0 .416-.141.752-.423 1.008-.282.257-.654.385-1.115.385zm10.88 6.244c-.557 0-.996-.14-1.316-.423-.32-.288-.48-.675-.48-1.162 0-.493.16-.88.48-1.162.32-.282.752-.423 1.297-.423h1.633v-.529c0-.326-.1-.576-.298-.749-.192-.18-.467-.269-.826-.269-.314 0-.576.067-.788.202a.718.718 0 00-.365.528h-.864c.057-.454.272-.816.643-1.085.372-.27.836-.404 1.393-.404.609 0 1.09.157 1.441.471.353.314.529.74.529 1.278V72h-.846v-1.009h-.144l.144-.144c0 .385-.15.689-.451.913-.295.224-.689.336-1.182.336zm.212-.682c.41 0 .746-.103 1.008-.307a.957.957 0 00.394-.788v-.75h-1.614c-.288 0-.515.08-.682.24-.166.16-.25.379-.25.654 0 .294.1.528.298.701.205.167.487.25.846.25zm4.767 2.315l.778-2.056-1.96-4.957h.96l1.23 3.267c.045.108.087.24.126.393l.096.375c.025-.102.057-.227.096-.375a4.47 4.47 0 01.115-.393l1.153-3.267h.932l-2.604 7.013h-.922zm4.268-.384V71.26h.432c.109-.109.221-.323.336-.643.122-.32.186-.727.192-1.22l.058-2.68h3.449v4.543h.672v2.085h-.768V72h-3.603v1.345h-.768zm1.345-2.085h2.257v-3.775H71.02l-.039 1.93c-.006.507-.06.917-.163 1.23-.103.314-.199.52-.288.615zm4.96.74v-5.284h.825v2.882c0 .186-.006.381-.019.586-.006.205-.019.4-.038.586a6.36 6.36 0 01-.048.462l2.132-4.516h1.105V72h-.826v-2.882c0-.186.003-.381.01-.586.012-.205.028-.4.048-.586l.048-.47L76.594 72h-1.105zm7.236 0v-4.525h-1.922v-.759h4.707v.76h-1.92V72h-.865zm6.121.077c-.422 0-.787-.08-1.095-.24a1.744 1.744 0 01-.72-.692c-.167-.307-.25-.67-.25-1.086v-1.402c0-.423.083-.785.25-1.086.173-.3.413-.531.72-.691.308-.16.673-.24 1.096-.24.422 0 .787.08 1.095.24.307.16.544.39.71.691.173.301.26.66.26 1.076v1.412c0 .417-.087.779-.26 1.086a1.683 1.683 0 01-.71.692c-.308.16-.673.24-1.096.24zm0-.769c.378 0 .673-.105.884-.317.212-.211.317-.522.317-.932v-1.402c0-.41-.105-.72-.317-.932-.211-.211-.506-.317-.883-.317-.372 0-.666.106-.884.317-.212.211-.317.522-.317.932v1.402c0 .41.105.72.317.932.218.212.512.317.883.317zm3.692 2.421v-7.013h.865v1.009h.172l-.172.202c0-.404.13-.72.394-.951.269-.237.62-.356 1.056-.356.532 0 .954.176 1.268.529.32.345.48.823.48 1.431v1.547c0 .403-.073.752-.22 1.047a1.573 1.573 0 01-.606.682c-.256.16-.563.24-.922.24-.429 0-.778-.118-1.047-.355-.269-.237-.403-.554-.403-.951l.172.201h-.192l.02 1.201v1.537h-.865zm2.027-2.382c.365 0 .65-.11.855-.327.211-.218.317-.531.317-.941v-1.441c0-.41-.106-.724-.317-.942-.205-.218-.49-.326-.855-.326-.352 0-.634.112-.845.336-.212.224-.317.535-.317.932v1.44c0 .398.105.708.317.932.211.225.493.337.845.337zm3.682.653v-5.284h.826v2.882c0 .186-.006.381-.02.586-.006.205-.018.4-.038.586a6.1 6.1 0 01-.048.462l2.133-4.516h1.105V72h-.826v-2.882c0-.186.003-.381.009-.586.013-.205.029-.4.048-.586l.048-.47L99.353 72h-1.105zm5.69 0v-5.284h.826v2.882c0 .186-.007.381-.02.586a8.08 8.08 0 01-.038.586 6.36 6.36 0 01-.048.462l2.133-4.516h1.104V72h-.826v-2.882c0-.186.004-.381.01-.586.013-.205.029-.4.048-.586l.048-.47L105.042 72h-1.104zm7.668.096c-.243 0-.439-.07-.586-.211-.141-.141-.211-.33-.211-.567 0-.25.07-.448.211-.596.147-.147.343-.22.586-.22.244 0 .436.073.577.22.147.148.221.346.221.596 0 .237-.074.426-.221.567-.141.14-.333.211-.577.211z" fill="#fff"/><defs><filter id="filter0_d_441_1337" x=".157" y="0" width="179.685" height="144.685" filterUnits="userSpaceOnUse" color-interpolation-filters="sRGB"><feFlood flood-opacity="0" result="BackgroundImageFix"/><feColorMatrix in="SourceAlpha" values="0 0 0 0 0 0 0 0 0 0 0 0 0 0 0 0 0 0 127 0" result="hardAlpha"/><feOffset dy="3.843"/><feGaussianBlur stdDeviation="1.921"/><feComposite in2="hardAlpha" operator="out"/><feColorMatrix values="0 0 0 0 0 0 0 0 0 0 0 0 0 0 0 0 0 0 0.25 0"/><feBlend in2="BackgroundImageFix" result="effect1_dropShadow_441_1337"/><feBlend in="SourceGraphic" in2="effect1_dropShadow_441_1337" result="shape"/></filter></defs></svg>