<svg width="180" height="145" fill="none" xmlns="http://www.w3.org/2000/svg"><g filter="url(#filter0_d_441_1037)"><rect x="4" width="172" height="137" rx="16.011" fill="#4F8348"/></g><path d="M13.893 31.073V24.06h1.989c.64 0 1.14.16 1.499.48.365.32.547.766.547 1.336 0 .32-.067.599-.201.836a1.36 1.36 0 01-.577.547c-.243.128-.538.19-.884.183v-.144c.372-.007.692.064.961.211.275.147.487.359.634.634.154.276.23.602.23.98 0 .397-.083.743-.25 1.038a1.699 1.699 0 01-.71.682c-.308.153-.676.23-1.105.23h-2.133zm.846-.778h1.191c.404 0 .72-.106.951-.317.237-.218.356-.512.356-.884 0-.384-.119-.695-.356-.932-.23-.243-.547-.365-.95-.365h-1.192v2.498zm0-3.247h1.133c.372 0 .663-.1.875-.298.217-.198.326-.467.326-.807s-.105-.608-.317-.807c-.211-.198-.503-.297-.874-.297h-1.143v2.209zm4.575 4.025V25.79h.807v1.941h.432c.57 0 1.019.15 1.345.452.333.294.5.7.5 1.22 0 .518-.167.928-.5 1.23-.326.294-.775.441-1.345.441h-1.239zm.807-.691h.432c.34 0 .602-.087.788-.26.192-.173.288-.413.288-.72 0-.308-.096-.548-.288-.72-.186-.174-.448-.26-.788-.26h-.432v1.96zm2.901.691V25.79h.807v5.284h-.807zm1.934 0l1.354-2.036c-.403-.096-.717-.282-.941-.558-.218-.275-.327-.618-.327-1.027 0-.52.17-.926.51-1.22.345-.295.816-.442 1.412-.442h2.276v5.283h-.864v-1.97h-1.163l-1.249 1.97h-1.008zm2.008-2.738h1.412v-1.777h-1.413c-.32 0-.573.08-.758.24-.186.154-.279.372-.279.654 0 .275.093.493.279.653.185.154.438.23.759.23zm6.006 2.834a2.46 2.46 0 01-1.114-.24 1.73 1.73 0 01-.73-.691c-.173-.308-.26-.67-.26-1.086V27.71c0-.423.087-.785.26-1.086a1.73 1.73 0 01.73-.691c.32-.16.691-.24 1.114-.24.609 0 1.099.163 1.47.49.372.326.567.771.586 1.335h-.865c-.019-.34-.134-.6-.345-.778-.205-.186-.487-.279-.846-.279-.378 0-.679.109-.903.327-.224.211-.336.515-.336.912v1.45c0 .398.112.705.336.923.224.218.525.327.903.327.359 0 .64-.093.846-.279.21-.186.326-.445.345-.778h.865c-.02.564-.215 1.009-.586 1.335-.371.327-.861.49-1.47.49zm3.692-.096V25.79h.864v2.2h2.229v-2.2h.865v5.284h-.865v-2.296h-2.229v2.296h-.864zm5.69 0V25.79h.826v2.883c0 .185-.007.38-.02.586a8.13 8.13 0 01-.038.586 6.233 6.233 0 01-.048.46l2.133-4.514h1.104v5.283h-.826v-2.882c0-.185.003-.38.01-.586.012-.205.029-.4.048-.586l.048-.47-2.133 4.524h-1.105zm5.026.067v-.806h.173c.295 0 .5-.116.615-.346.122-.23.186-.644.192-1.24l.058-2.959h3.583v5.284h-.865v-4.496h-1.863l-.048 2.21c-.013.557-.077 1.009-.192 1.354-.11.346-.282.6-.52.76-.23.16-.534.24-.912.24h-.22zm6.353-.067V25.79h.826v2.883c0 .185-.007.38-.02.586a8.13 8.13 0 01-.038.586 6.233 6.233 0 01-.048.46l2.133-4.514h1.105v5.283h-.827v-2.882c0-.185.004-.38.01-.586.013-.205.029-.4.048-.586l.048-.47-2.133 4.524h-1.104zm13.358.077c-.423 0-.788-.08-1.095-.24a1.744 1.744 0 01-.72-.692c-.167-.307-.25-.669-.25-1.085V27.73c0-.423.083-.785.25-1.085.172-.302.412-.532.72-.692.307-.16.672-.24 1.095-.24.423 0 .788.08 1.095.24.308.16.544.39.711.692.173.3.26.66.26 1.076v1.412c0 .416-.087.778-.26 1.085a1.683 1.683 0 01-.71.692c-.308.16-.673.24-1.096.24zm0-.768c.378 0 .672-.106.884-.318.211-.21.317-.521.317-.931V27.73c0-.41-.106-.72-.317-.932-.212-.211-.506-.317-.884-.317-.371 0-.666.106-.884.317-.211.212-.317.522-.317.932v1.403c0 .41.106.72.317.931.218.212.513.318.884.318zm5.709.787a2.46 2.46 0 01-1.115-.24 1.73 1.73 0 01-.73-.691c-.173-.308-.26-.67-.26-1.086V27.71c0-.423.087-.785.26-1.086a1.73 1.73 0 01.73-.691c.32-.16.692-.24 1.115-.24.608 0 1.098.163 1.47.49.371.326.566.771.586 1.335h-.865c-.02-.34-.135-.6-.346-.778-.205-.186-.487-.279-.845-.279-.378 0-.68.109-.903.327-.224.211-.337.515-.337.912v1.45c0 .398.113.705.337.923.224.218.525.327.903.327.358 0 .64-.093.845-.279.212-.186.327-.445.346-.778h.865c-.02.564-.215 1.009-.586 1.335-.372.327-.862.49-1.47.49zm3.691-.096V25.79h.865v2.2h2.229v-2.2h.864v5.284h-.864v-2.296h-2.23v2.296h-.864zm7.669.077c-.423 0-.788-.08-1.095-.24a1.743 1.743 0 01-.72-.692c-.167-.307-.25-.669-.25-1.085V27.73c0-.423.083-.785.25-1.085.172-.302.412-.532.72-.692.307-.16.672-.24 1.095-.24.423 0 .788.08 1.095.24.308.16.544.39.71.692.174.3.26.66.26 1.076v1.412c0 .416-.086.778-.26 1.085a1.682 1.682 0 01-.71.692c-.307.16-.672.24-1.095.24zm0-.768c.378 0 .672-.106.884-.318.211-.21.317-.521.317-.931V27.73c0-.41-.106-.72-.317-.932-.212-.211-.506-.317-.884-.317-.372 0-.666.106-.884.317-.211.212-.317.522-.317.932v1.403c0 .41.106.72.317.931.218.212.512.318.884.318zm3.71.691V25.79h2.287c.55 0 .977.125 1.278.375.3.244.451.586.451 1.028 0 .365-.125.66-.374.884-.25.218-.58.327-.99.327v-.077c.448 0 .807.112 1.076.336.275.224.413.525.413.903 0 .474-.16.845-.48 1.114-.32.263-.769.394-1.345.394h-2.316zm.846-.759h1.47c.307 0 .544-.067.71-.201.174-.135.26-.324.26-.567 0-.25-.086-.442-.26-.577-.166-.134-.403-.201-.71-.201h-1.47v1.546zm0-2.296h1.441c.269 0 .48-.064.634-.192.16-.128.24-.307.24-.538 0-.23-.077-.41-.23-.538-.154-.134-.369-.201-.644-.201h-1.441v1.47zm4.844 3.055V25.79h.865v2.2h2.229v-2.2h.864v5.284h-.864v-2.296h-2.23v2.296h-.864zm5.411 0V25.79h.807v1.941h.433c.57 0 1.018.15 1.344.452.334.294.5.7.5 1.22 0 .518-.166.928-.5 1.23-.326.294-.774.441-1.344.441h-1.24zm.807-.691h.433c.339 0 .602-.087.787-.26.192-.173.288-.413.288-.72 0-.308-.096-.548-.288-.72-.185-.174-.448-.26-.787-.26h-.433v1.96zm2.901.691V25.79h.807v5.284h-.807zm4.239.096c-.416 0-.781-.083-1.095-.25a1.809 1.809 0 01-.72-.7 2.198 2.198 0 01-.25-1.067V27.71c0-.41.083-.765.25-1.066a1.81 1.81 0 01.72-.702 2.31 2.31 0 011.095-.25c.417 0 .779.084 1.086.25.314.167.554.4.721.701.172.302.259.657.259 1.067v.932h-3.286v.509c0 .416.106.736.317.96.212.218.513.327.903.327.334 0 .603-.057.807-.173a.764.764 0 00.375-.538h.865a1.473 1.473 0 01-.654 1.057c-.371.256-.835.384-1.393.384zm1.221-3.103v-.355c0-.416-.106-.737-.317-.96-.205-.225-.506-.337-.904-.337-.39 0-.691.112-.903.336-.211.224-.317.545-.317.96v.28h2.508l-.067.076zM13.903 50.073V44.79h3.958v5.284h-.865v-4.496h-2.228v4.496h-.865zm7.669.077c-.423 0-.788-.08-1.095-.24a1.743 1.743 0 01-.721-.692c-.166-.307-.25-.669-.25-1.085V46.73c0-.423.084-.784.25-1.085a1.74 1.74 0 01.72-.692c.308-.16.673-.24 1.096-.24.422 0 .787.08 1.095.24.307.16.544.39.71.691.174.302.26.66.26 1.077v1.412c0 .416-.086.778-.26 1.085a1.682 1.682 0 01-.71.692c-.308.16-.673.24-1.095.24zm0-.768c.378 0 .672-.106.884-.317.21-.212.317-.522.317-.932V46.73c0-.41-.106-.72-.317-.932-.212-.211-.506-.317-.884-.317-.372 0-.666.106-.884.317-.211.212-.317.522-.317.932v1.403c0 .41.106.72.317.931.218.212.512.318.884.318zm5.257.691v-4.525h-1.921v-.759h4.707v.76h-1.921v4.524h-.865zm4.124 1.73v-7.014h.864v1.01h.173l-.173.201c0-.404.132-.72.394-.951.27-.237.622-.355 1.057-.355.532 0 .954.176 1.268.528.32.346.48.823.48 1.431V48.2c0 .403-.073.752-.22 1.047a1.568 1.568 0 01-.606.682c-.256.16-.563.24-.922.24-.43 0-.778-.118-1.047-.355-.27-.237-.404-.554-.404-.951l.173.202h-.192l.02 1.2v1.538h-.865zm2.027-2.383c.365 0 .65-.109.855-.327.211-.217.317-.531.317-.941V46.71c0-.41-.106-.724-.317-.942-.205-.217-.49-.326-.855-.326-.352 0-.634.112-.846.336-.21.224-.317.535-.317.932v1.44c0 .398.106.709.317.933.212.224.494.336.846.336zm5.66.75c-.416 0-.78-.084-1.095-.25a1.807 1.807 0 01-.72-.702 2.204 2.204 0 01-.25-1.066V46.71c0-.41.083-.765.25-1.066.173-.302.413-.535.72-.702.314-.166.68-.25 1.096-.25.416 0 .778.084 1.085.25.314.167.554.4.72.702.174.3.26.656.26 1.066v.932h-3.285v.509c0 .416.105.736.317.96.211.218.512.327.903.327.333 0 .602-.057.807-.173a.763.763 0 00.374-.538h.865a1.472 1.472 0 01-.653 1.057c-.372.256-.836.384-1.393.384zm1.22-3.104v-.355c0-.416-.105-.737-.316-.96-.205-.225-.506-.337-.903-.337-.391 0-.692.112-.903.336-.212.224-.317.545-.317.96v.28h2.507l-.067.076zm4.47 3.103c-.62 0-1.114-.182-1.48-.547-.358-.372-.537-.878-.537-1.518v-2.402c0-.845.211-1.495.634-1.95.423-.461 1.028-.692 1.816-.692h1.345v.865h-1.345c-.52 0-.913.154-1.182.461-.269.301-.404.74-.404 1.316v.625h.135l-.134.192c.006-.378.134-.673.384-.884.25-.211.589-.317 1.018-.317.557 0 .99.18 1.297.538.314.358.47.852.47 1.48v.768c0 .429-.08.797-.24 1.105-.16.307-.39.544-.691.71-.301.167-.663.25-1.086.25zm0-.768c.372 0 .657-.112.855-.337.199-.224.298-.544.298-.96v-.769c0-.416-.1-.736-.298-.96-.198-.224-.483-.337-.855-.337-.371 0-.656.113-.855.337-.198.217-.297.538-.297.96v.769c0 .416.099.736.297.96.199.225.484.337.855.337zm3.711.672V44.79h.865v2.2h2.228v-2.2H52v5.284h-.865v-2.296h-2.228v2.296h-.865zm7.669.077c-.423 0-.788-.08-1.096-.24a1.744 1.744 0 01-.72-.692c-.167-.307-.25-.669-.25-1.085V46.73c0-.423.083-.784.25-1.085a1.74 1.74 0 01.72-.692c.308-.16.673-.24 1.096-.24.422 0 .787.08 1.095.24.307.16.544.39.71.691.174.302.26.66.26 1.077v1.412c0 .416-.086.778-.26 1.085a1.683 1.683 0 01-.71.692c-.308.16-.673.24-1.095.24zm0-.768c.377 0 .672-.106.883-.317.212-.212.317-.522.317-.932V46.73c0-.41-.105-.72-.317-.932-.21-.211-.506-.317-.883-.317-.372 0-.666.106-.884.317-.212.212-.317.522-.317.932v1.403c0 .41.105.72.317.931.218.212.512.318.884.318zm5.709.787a2.46 2.46 0 01-1.115-.24 1.73 1.73 0 01-.73-.692c-.173-.307-.26-.669-.26-1.085V46.71c0-.423.087-.785.26-1.086a1.73 1.73 0 01.73-.691c.32-.16.692-.24 1.114-.24.609 0 1.099.163 1.47.49.372.326.567.771.586 1.335h-.864c-.02-.34-.135-.6-.346-.778-.205-.186-.487-.279-.846-.279-.377 0-.678.109-.903.327-.224.211-.336.515-.336.912v1.45c0 .398.112.705.336.923.225.218.526.327.904.327.358 0 .64-.093.845-.279.211-.186.326-.445.346-.778h.864c-.019.564-.214 1.009-.586 1.335-.371.327-.861.49-1.47.49zm5.238-.096v-4.525h-1.922v-.759h4.708v.76H67.52v4.524h-.864zm4.143 0V44.79h.826v2.883c0 .185-.007.38-.02.586a8.13 8.13 0 01-.038.586 6.233 6.233 0 01-.048.46l2.133-4.515h1.105v5.284h-.827v-2.882c0-.186.004-.38.01-.586.013-.205.029-.4.048-.586l.048-.47-2.133 4.524H70.8zm6.371 1.537l.769-2.987h1.249l-1.25 2.987h-.768zm10.525-1.537V44.79h1.172l.691 2.028c.07.205.135.41.192.614.058.199.1.353.125.462.026-.11.064-.263.116-.462.057-.205.118-.413.182-.624l.653-2.018H92v5.284h-.835v-.816c0-.288.003-.602.01-.942l.018-1.028.039-.98c.013-.313.022-.589.029-.826l-.942 3.007h-.912l-.951-2.988c.012.289.022.647.028 1.076.013.43.023.878.03 1.345.012.468.018.913.018 1.336v.816h-.835zm7.841.077c-.422 0-.788-.08-1.095-.24a1.743 1.743 0 01-.72-.692c-.167-.307-.25-.669-.25-1.085V46.73c0-.423.083-.784.25-1.085.172-.302.413-.532.72-.692.307-.16.673-.24 1.095-.24.423 0 .788.08 1.095.24.308.16.545.39.711.691.173.302.26.66.26 1.077v1.412c0 .416-.087.778-.26 1.085a1.683 1.683 0 01-.71.692c-.308.16-.673.24-1.096.24zm0-.768c.378 0 .673-.106.884-.317.211-.212.317-.522.317-.932V46.73c0-.41-.106-.72-.317-.932-.211-.211-.506-.317-.884-.317-.371 0-.666.106-.884.317-.211.212-.317.522-.317.932v1.403c0 .41.106.72.317.931.218.212.513.318.884.318zm5.258.691v-4.525h-1.922v-.759h4.707v.76h-1.921v4.524h-.864zm4.143 0V44.79h.826v2.883c0 .185-.007.38-.02.586a8.13 8.13 0 01-.038.586 6.233 6.233 0 01-.048.46l2.133-4.515h1.104v5.284h-.826v-2.882c0-.186.004-.38.01-.586.013-.205.029-.4.048-.586l.048-.47-2.133 4.524h-1.104zm5.689 0V44.79h2.287c.55 0 .976.125 1.277.375.301.244.452.586.452 1.028 0 .365-.125.66-.375.884-.25.218-.579.327-.989.327v-.077c.448 0 .807.112 1.076.336.275.224.413.525.413.903 0 .474-.16.845-.481 1.114-.32.263-.768.394-1.345.394h-2.315zm.846-.759h1.469c.308 0 .545-.067.711-.201a.679.679 0 00.26-.567c0-.25-.087-.442-.26-.577-.166-.134-.403-.201-.711-.201h-1.469v1.546zm0-2.296h1.441c.269 0 .48-.064.634-.192.16-.128.24-.307.24-.538 0-.23-.077-.41-.231-.538-.153-.134-.368-.202-.643-.202h-1.441v1.47zm4.565 3.055V44.79h.807v1.941h.432c.57 0 1.019.15 1.345.452.333.294.5.7.5 1.22 0 .518-.167.928-.5 1.23-.326.294-.775.441-1.345.441h-1.239zm.807-.691h.432c.34 0 .603-.087.788-.26.192-.173.288-.413.288-.72 0-.308-.096-.548-.288-.72-.185-.174-.448-.26-.788-.26h-.432v1.96zm2.901.691V44.79h.807v5.284h-.807zm-105.843 19V63.79h.826v2.882c0 .185-.006.38-.019.586-.006.205-.02.4-.038.586-.013.179-.03.333-.049.46l2.133-4.515h1.105v5.284h-.826v-2.882c0-.186.003-.38.01-.586.012-.205.028-.4.047-.586l.049-.47-2.133 4.524h-1.105zm11.38 0V63.79h2.286c.55 0 .976.124 1.277.374.302.244.452.586.452 1.028 0 .365-.125.66-.375.884-.25.218-.58.327-.99.327v-.077c.45 0 .808.112 1.077.336.275.224.413.525.413.903 0 .474-.16.845-.48 1.114-.32.263-.769.394-1.345.394h-2.316zm.845-.759h1.47c.307 0 .544-.067.71-.201a.679.679 0 00.26-.567c0-.25-.087-.442-.26-.577-.166-.134-.403-.201-.71-.201h-1.47v1.546zm0-2.296h1.44c.27 0 .481-.064.635-.192.16-.128.24-.307.24-.538 0-.23-.077-.41-.23-.538-.154-.134-.369-.201-.644-.201h-1.441v1.47zm6.823 3.132c-.423 0-.788-.08-1.095-.24a1.743 1.743 0 01-.72-.692c-.167-.307-.25-.669-.25-1.085V65.73c0-.423.083-.785.25-1.086.172-.3.412-.531.72-.691.307-.16.672-.24 1.095-.24.423 0 .788.08 1.095.24.308.16.544.39.711.691.173.301.26.66.26 1.076v1.413c0 .416-.087.778-.26 1.085a1.683 1.683 0 01-.71.692c-.308.16-.673.24-1.096.24zm0-.768c.378 0 .672-.106.884-.318.211-.21.317-.521.317-.931V65.73c0-.41-.106-.72-.317-.932-.212-.211-.506-.317-.884-.317-.371 0-.666.106-.884.317-.211.212-.317.522-.317.932v1.403c0 .41.106.72.317.931.218.212.513.318.884.318zm5.44.758c-.557 0-1.015-.118-1.374-.355a1.412 1.412 0 01-.634-.96h.913c.044.16.163.29.355.393.199.103.445.154.74.154h.451c.314 0 .558-.074.73-.221a.71.71 0 00.27-.576c0-.257-.087-.458-.26-.606-.166-.147-.413-.22-.74-.22H37.68v-.75h1.134c.294 0 .518-.07.672-.211a.72.72 0 00.23-.557.727.727 0 00-.105-.404.61.61 0 00-.298-.25 1.24 1.24 0 00-.49-.086h-.48c-.256 0-.477.058-.663.173-.186.115-.298.256-.336.422h-.913c.064-.397.272-.723.625-.98.352-.256.78-.384 1.287-.384h.48c.378 0 .702.061.97.183a1.327 1.327 0 01.836 1.278c0 .313-.102.573-.307.778-.205.198-.493.31-.865.336v.038c.455.032.785.154.99.365.205.212.307.516.307.913 0 .468-.173.839-.519 1.114-.346.276-.81.413-1.393.413h-.451zm3.941 1.662V63.79h.865v1.01h.173l-.173.201c0-.403.131-.72.394-.951.269-.237.62-.356 1.056-.356.532 0 .955.177 1.268.529.32.346.48.823.48 1.431V67.2c0 .403-.073.752-.22 1.047a1.572 1.572 0 01-.605.682c-.257.16-.564.24-.923.24-.429 0-.778-.118-1.047-.355-.269-.237-.403-.554-.403-.951l.173.201h-.192l.019 1.201v1.537h-.865zm2.027-2.382c.365 0 .65-.109.855-.327.212-.217.317-.531.317-.941V65.71c0-.41-.105-.724-.317-.942-.205-.217-.49-.326-.855-.326-.352 0-.634.112-.845.336-.212.224-.317.535-.317.932v1.44c0 .398.105.709.317.933.211.224.493.336.845.336zm5.2.75c-.557 0-.996-.142-1.316-.423-.32-.289-.48-.676-.48-1.163 0-.493.16-.88.48-1.162.32-.282.752-.423 1.297-.423h1.633v-.528c0-.327-.1-.577-.298-.75-.192-.179-.468-.269-.826-.269-.314 0-.577.068-.788.202a.718.718 0 00-.365.529h-.865c.058-.455.273-.817.644-1.086.372-.269.836-.403 1.393-.403.608 0 1.089.156 1.441.47.352.314.528.74.528 1.278v3.631h-.845v-1.008h-.144l.144-.145c0 .385-.15.689-.452.913-.294.224-.688.336-1.181.336zm.211-.683c.41 0 .746-.102 1.009-.307a.956.956 0 00.394-.788v-.75h-1.614c-.288 0-.516.08-.682.24-.167.161-.25.379-.25.654 0 .295.1.528.298.701.205.167.486.25.845.25zm3.23.586l1.153-2.709-1.076-2.575h.836l.922 2.306h.51V63.79h.73v2.306h.49l.95-2.306h.827l-1.076 2.546 1.153 2.738h-.865l-.96-2.401h-.52v2.401h-.73v-2.401h-.518l-.97 2.401H53zm8.4.096c-.417 0-.782-.083-1.096-.25a1.807 1.807 0 01-.72-.7 2.204 2.204 0 01-.25-1.067V65.71c0-.41.083-.766.25-1.067.172-.3.413-.534.72-.7.314-.167.679-.25 1.095-.25.417 0 .778.083 1.086.25.314.166.554.4.72.7.173.301.26.657.26 1.067v.932h-3.286v.509c0 .416.106.736.317.96.212.218.513.327.903.327.333 0 .602-.057.807-.173a.763.763 0 00.375-.538h.864a1.471 1.471 0 01-.653 1.057c-.371.256-.836.384-1.393.384zm1.22-3.103v-.355c0-.416-.106-.737-.318-.96-.205-.225-.506-.337-.903-.337-.39 0-.691.112-.903.336-.211.224-.317.545-.317.96v.28h2.508l-.068.076zm2.49 3.007V63.79h.865v2.2h2.228v-2.2h.865v5.283h-.865v-2.296h-2.228v2.296h-.865zm5.69 0V63.79h.826v2.882c0 .185-.007.38-.02.586-.006.205-.019.4-.038.586a6.233 6.233 0 01-.048.46l2.133-4.515h1.105v5.284h-.827v-2.882c0-.186.004-.38.01-.586.013-.205.029-.4.048-.586l.048-.47-2.133 4.524H70.8zm5.363 0l1.354-2.036c-.403-.097-.717-.282-.941-.558-.218-.275-.327-.618-.327-1.028 0-.518.17-.925.51-1.22.345-.294.816-.441 1.411-.441h2.277v5.283h-.864v-1.97H78.42l-1.249 1.97h-1.008zm2.007-2.738h1.413v-1.777H78.17c-.32 0-.573.08-.758.24-.186.154-.28.372-.28.653 0 .276.094.494.28.654.185.153.438.23.758.23zm9.698 2.738V63.79h3.959v5.283h-.865v-4.496h-2.229v4.496h-.865zm7.67.077c-.423 0-.789-.08-1.096-.24a1.743 1.743 0 01-.72-.692c-.167-.307-.25-.669-.25-1.085V65.73c0-.423.083-.785.25-1.086.172-.3.413-.531.72-.691.307-.16.673-.24 1.095-.24.423 0 .788.08 1.095.24.308.16.545.39.711.691.173.301.26.66.26 1.076v1.413c0 .416-.087.778-.26 1.085a1.683 1.683 0 01-.71.692c-.308.16-.673.24-1.096.24zm0-.768c.377 0 .672-.106.883-.318.211-.21.317-.521.317-.931V65.73c0-.41-.106-.72-.317-.932-.211-.211-.506-.317-.884-.317-.371 0-.666.106-.884.317-.211.212-.317.522-.317.932v1.403c0 .41.106.72.317.931.218.212.513.318.884.318zm5.257.691V64.55h-1.922v-.76h4.707v.76h-1.921v4.524h-.864zm6.121.096c-.416 0-.781-.083-1.095-.25a1.809 1.809 0 01-.72-.7 2.198 2.198 0 01-.25-1.067V65.71c0-.41.083-.766.25-1.067a1.81 1.81 0 01.72-.7c.314-.167.679-.25 1.095-.25.417 0 .779.083 1.086.25.314.166.554.4.721.7.172.301.259.657.259 1.067v.932h-3.286v.509c0 .416.106.736.317.96.212.218.513.327.903.327.334 0 .603-.057.807-.173a.764.764 0 00.375-.538h.865a1.473 1.473 0 01-.654 1.057c-.371.256-.835.384-1.393.384zm1.221-3.103v-.355c0-.416-.106-.737-.317-.96-.205-.225-.506-.337-.904-.337-.39 0-.691.112-.903.336-.211.224-.317.545-.317.96v.28h2.508l-.067.076zm2.49 3.007V63.79h.865v2.2h2.229v-2.2h.864v5.283h-.864v-2.296h-2.229v2.296h-.865zm9.446 1.345v-1.345h-3.756V63.79h.864v4.515h2.075v-4.516h.865v4.516h.721v2.113h-.769zm1.933-1.345V63.79h.827v2.882c0 .185-.007.38-.02.586-.006.205-.019.4-.038.586a6.233 6.233 0 01-.048.46l2.133-4.515h1.104v5.284h-.826v-2.882c0-.186.003-.38.01-.586.013-.205.029-.4.048-.586l.048-.47-2.133 4.524h-1.105zm7.208.096c-.557 0-.996-.14-1.316-.422-.32-.289-.48-.676-.48-1.163 0-.493.16-.88.48-1.162.32-.282.752-.423 1.297-.423h1.633v-.528c0-.327-.099-.577-.298-.75-.192-.179-.467-.269-.826-.269-.314 0-.576.068-.788.202a.719.719 0 00-.365.529h-.864c.057-.455.272-.817.643-1.086.372-.269.836-.403 1.393-.403.609 0 1.089.156 1.441.47.352.314.529.74.529 1.278v3.631h-.846v-1.008h-.144l.144-.145c0 .385-.15.689-.451.913-.295.224-.689.336-1.182.336zm.211-.682c.41 0 .746-.102 1.009-.307a.955.955 0 00.394-.788v-.75h-1.614c-.288 0-.516.08-.682.24-.167.161-.25.379-.25.654 0 .295.099.528.298.701.205.167.487.25.845.25zm3.298.654v-.808h.173c.294 0 .499-.115.615-.345.121-.23.185-.644.192-1.24l.057-2.959h3.584v5.284h-.865v-4.496h-1.864l-.048 2.21c-.012.557-.076 1.008-.192 1.354-.109.346-.282.6-.518.76-.231.16-.535.24-.913.24h-.221zm6.391-.068V63.79h.864v1.94h1.557c.595 0 1.063.15 1.402.452.346.294.519.7.519 1.22 0 .512-.173.919-.519 1.22-.345.3-.813.451-1.402.451h-2.421zm.864-.787h1.557c.333 0 .586-.074.759-.222.179-.153.269-.374.269-.662 0-.288-.09-.506-.269-.654-.173-.153-.426-.23-.759-.23h-1.557v1.767zm4.787.787V63.79h.865v2.2h2.228v-2.2h.865v5.283h-.865v-2.296h-2.228v2.296h-.865zm5.411 0V63.79h.807v1.94h.432c.57 0 1.019.15 1.345.452.333.294.5.7.5 1.22 0 .518-.167.928-.5 1.23-.326.294-.775.441-1.345.441h-1.239zm.807-.691h.432c.34 0 .602-.087.788-.26.192-.173.288-.413.288-.72 0-.308-.096-.548-.288-.72-.186-.174-.448-.26-.788-.26h-.432v1.96zm2.901.691V63.79h.807v5.283h-.807zm1.838 0l1.873-2.718-1.758-2.566h1.018l1.047 1.634c.045.07.087.147.125.23.045.084.08.15.106.202a3.2 3.2 0 01.086-.202 3.6 3.6 0 01.135-.23l1.057-1.634h1.008l-1.758 2.575 1.864 2.71h-1.018l-1.134-1.73a2.46 2.46 0 01-.134-.24 2.183 2.183 0 00-.106-.23 4.19 4.19 0 01-.115.23 1.74 1.74 0 01-.144.24l-1.144 1.73h-1.008zm-141.79 20V83.79h.864v2.18h.904l1.537-2.18h.99l-1.778 2.516 1.806 2.767h-1.009L15.71 86.72h-.912v2.353h-.865zm4.998.068v-.808h.173c.294 0 .5-.115.615-.345.121-.23.185-.644.192-1.24l.057-2.959h3.584v5.284h-.865v-4.496h-1.864l-.048 2.21c-.012.557-.076 1.008-.192 1.354-.109.346-.282.6-.519.76-.23.16-.534.24-.912.24h-.221zm6.352-.068V83.79h.826v2.882c0 .185-.006.38-.019.586-.006.205-.019.4-.038.586a6.233 6.233 0 01-.048.46l2.133-4.514h1.104v5.283h-.826v-2.882c0-.186.003-.38.01-.586.013-.205.029-.4.048-.586l.048-.47-2.133 4.524h-1.105zm7.669.096c-.416 0-.781-.083-1.095-.25a1.807 1.807 0 01-.72-.7 2.204 2.204 0 01-.25-1.067V85.71c0-.41.083-.766.25-1.067.172-.3.412-.534.72-.7.314-.167.679-.25 1.095-.25.416 0 .778.083 1.085.25.314.166.554.4.721.7.173.301.26.657.26 1.067v.932H31.73v.509c0 .416.106.736.317.96.211.218.512.327.903.327.333 0 .602-.057.807-.173a.763.763 0 00.375-.538h.864a1.472 1.472 0 01-.653 1.057c-.372.256-.836.384-1.393.384zm1.22-3.103v-.355c0-.416-.106-.737-.317-.96-.205-.225-.506-.337-.903-.337-.39 0-.692.112-.903.336-.211.224-.317.545-.317.96v.28h2.507l-.067.076zm2.49 3.007V83.79h.865v2.2h2.229v-2.2h.865v5.283h-.865v-2.296h-2.229v2.296h-.864zm7.237 0V84.55h-1.921v-.76h4.707v.76h-1.921v4.524h-.865zm6.122.077c-.423 0-.788-.08-1.095-.24a1.743 1.743 0 01-.72-.692c-.167-.307-.25-.669-.25-1.085V85.73c0-.423.083-.785.25-1.086.172-.3.412-.531.72-.691.307-.16.672-.24 1.095-.24.423 0 .788.08 1.095.24.307.16.544.39.711.691.173.301.26.66.26 1.076v1.413c0 .416-.087.778-.26 1.085a1.683 1.683 0 01-.71.692c-.308.16-.673.24-1.096.24zm0-.768c.378 0 .672-.106.884-.318.211-.21.317-.521.317-.931V85.73c0-.41-.106-.72-.317-.932-.212-.211-.506-.317-.884-.317-.372 0-.666.106-.884.317-.211.212-.317.522-.317.932v1.403c0 .41.106.72.317.931.218.212.512.318.884.318zm3.71.691V83.79h2.287c.55 0 .977.124 1.278.374.3.244.451.586.451 1.028 0 .365-.125.66-.374.884-.25.218-.58.327-.99.327v-.077c.448 0 .807.112 1.076.336.275.224.413.525.413.903 0 .474-.16.845-.48 1.114-.32.263-.769.394-1.345.394H53.73zm.846-.759h1.47c.307 0 .544-.067.71-.201.174-.135.26-.324.26-.567 0-.25-.086-.442-.26-.577-.166-.134-.403-.201-.71-.201h-1.47v1.546zm0-2.296h1.441c.269 0 .48-.064.634-.192.16-.128.24-.307.24-.538 0-.23-.077-.41-.23-.538-.154-.134-.369-.201-.644-.201h-1.441v1.47zm6.823 3.151c-.243 0-.438-.07-.586-.211-.14-.14-.211-.33-.211-.567 0-.25.07-.448.211-.596.148-.147.343-.22.586-.22.244 0 .436.073.577.22.147.148.22.346.22.596 0 .237-.073.426-.22.567-.141.14-.333.211-.577.211z" fill="#fff"/><defs><filter id="filter0_d_441_1037" x=".157" y="0" width="179.685" height="144.685" filterUnits="userSpaceOnUse" color-interpolation-filters="sRGB"><feFlood flood-opacity="0" result="BackgroundImageFix"/><feColorMatrix in="SourceAlpha" values="0 0 0 0 0 0 0 0 0 0 0 0 0 0 0 0 0 0 127 0" result="hardAlpha"/><feOffset dy="3.843"/><feGaussianBlur stdDeviation="1.921"/><feComposite in2="hardAlpha" operator="out"/><feColorMatrix values="0 0 0 0 0 0 0 0 0 0 0 0 0 0 0 0 0 0 0.25 0"/><feBlend in2="BackgroundImageFix" result="effect1_dropShadow_441_1037"/><feBlend in="SourceGraphic" in2="effect1_dropShadow_441_1037" result="shape"/></filter></defs></svg>