<svg width="180" height="145" fill="none" xmlns="http://www.w3.org/2000/svg"><g filter="url(#filter0_d_441_1364)"><rect x="4" width="172" height="137" rx="16.011" fill="#F8EEDA"/></g><path d="M16.73 40v-7.013h1.134l.73 2.267c.07.205.134.41.192.615.058.199.1.352.125.461.032-.109.073-.262.125-.46.051-.206.109-.414.173-.625l.691-2.258h1.134V40h-.845v-2.546c0-.282.01-.602.028-.96.02-.36.045-.724.077-1.096.032-.378.064-.736.096-1.076.039-.345.07-.646.096-.903l-1.133 3.507h-.913l-1.143-3.507a36.533 36.533 0 01.182 1.921c.026.366.049.73.068 1.096.019.365.029.704.029 1.018V40h-.846zm7.842.096c-.417 0-.782-.083-1.095-.25a1.807 1.807 0 01-.721-.701 2.204 2.204 0 01-.25-1.066v-1.441c0-.41.084-.766.25-1.067.173-.3.413-.535.72-.701.314-.166.68-.25 1.096-.25.416 0 .778.084 1.085.25.314.166.554.4.72.701.174.301.26.657.26 1.067v.931h-3.285v.51c0 .416.105.736.317.96.211.218.512.327.903.327.333 0 .602-.058.807-.173a.763.763 0 00.374-.538h.865a1.472 1.472 0 01-.653 1.057c-.372.256-.836.384-1.393.384zm1.22-3.103v-.355c0-.417-.106-.737-.317-.961-.205-.224-.506-.336-.903-.336-.391 0-.692.112-.903.336-.212.224-.317.544-.317.96v.28h2.507l-.067.076zM28.282 40v-5.284h.865v2.2h2.229v-2.2h.864V40h-.864v-2.296h-2.229V40h-.865zm7.669.096c-.416 0-.781-.083-1.095-.25a1.807 1.807 0 01-.72-.701 2.204 2.204 0 01-.25-1.066v-1.441c0-.41.083-.766.25-1.067a1.8 1.8 0 01.72-.701 2.31 2.31 0 011.095-.25c.416 0 .778.084 1.085.25.314.166.554.4.721.701.173.301.26.657.26 1.067v.931H34.73v.51c0 .416.106.736.317.96.211.218.512.327.903.327.333 0 .602-.058.807-.173a.763.763 0 00.375-.538h.864a1.472 1.472 0 01-.653 1.057c-.372.256-.836.384-1.393.384zm1.22-3.103v-.355c0-.417-.106-.737-.317-.961-.205-.224-.506-.336-.903-.336-.39 0-.692.112-.903.336-.211.224-.317.544-.317.96v.28h2.507l-.067.076zm1.876 4.352V39.26h.432c.109-.109.221-.323.336-.643.122-.32.186-.727.193-1.22l.057-2.68h3.449v4.543h.672v2.085h-.768V40h-3.603v1.345h-.768zm1.345-2.085h2.257v-3.775h-1.767l-.039 1.93c-.006.507-.06.917-.163 1.23-.102.314-.199.52-.288.615zm4.23.74l1.152-2.71-1.076-2.574h.836l.922 2.306h.51v-2.306h.73v2.306h.49l.95-2.306h.826l-1.075 2.546L50.039 40h-.864l-.96-2.402h-.52V40h-.73v-2.402h-.519L45.477 40h-.855zm8.398.096c-.416 0-.781-.083-1.095-.25a1.807 1.807 0 01-.72-.701 2.204 2.204 0 01-.25-1.066v-1.441c0-.41.083-.766.25-1.067a1.8 1.8 0 01.72-.701 2.31 2.31 0 011.095-.25c.416 0 .778.084 1.085.25.314.166.555.4.721.701.173.301.26.657.26 1.067v.931H51.8v.51c0 .416.106.736.317.96.211.218.512.327.903.327.333 0 .602-.058.807-.173a.763.763 0 00.375-.538h.864a1.472 1.472 0 01-.653 1.057c-.371.256-.836.384-1.393.384zm1.22-3.103v-.355c0-.417-.106-.737-.317-.961-.205-.224-.506-.336-.903-.336-.39 0-.692.112-.903.336-.211.224-.317.544-.317.96v.28h2.507l-.067.076zm2.471 4.736v-7.013h.865v1.009h.173l-.173.202c0-.404.131-.72.394-.951.269-.237.621-.356 1.057-.356.531 0 .954.176 1.268.529.32.345.48.823.48 1.431v1.547c0 .403-.074.752-.22 1.047a1.57 1.57 0 01-.606.682c-.256.16-.564.24-.922.24-.43 0-.779-.118-1.047-.355-.27-.237-.404-.554-.404-.951l.173.201h-.192l.019 1.201v1.537h-.865zm2.027-2.382c.365 0 .65-.11.855-.327.212-.218.317-.532.317-.941v-1.441c0-.41-.105-.724-.317-.942-.205-.218-.49-.326-.855-.326-.352 0-.634.112-.845.336-.211.224-.317.535-.317.932v1.44c0 .398.106.708.317.932.211.225.493.337.845.337zm3.404.653v-5.284h.807v1.94h.432c.57 0 1.018.151 1.345.452.333.295.5.702.5 1.22 0 .52-.167.93-.5 1.23-.327.295-.775.442-1.345.442h-1.24zm.807-.692h.432c.34 0 .602-.086.788-.26.192-.172.288-.412.288-.72 0-.307-.096-.547-.288-.72-.186-.173-.449-.26-.788-.26h-.432v1.96zm2.9.692v-5.284h.808V40h-.807zm9.93.077c-.423 0-.788-.08-1.096-.24a1.744 1.744 0 01-.72-.692c-.167-.307-.25-.67-.25-1.086v-1.402c0-.423.083-.785.25-1.086.173-.3.413-.531.72-.691.308-.16.673-.24 1.096-.24.422 0 .787.08 1.095.24.307.16.544.39.71.691.174.301.26.66.26 1.076v1.412c0 .417-.086.779-.26 1.086a1.683 1.683 0 01-.71.692c-.308.16-.673.24-1.095.24zm0-.769c.377 0 .672-.105.883-.317.212-.211.317-.522.317-.932v-1.402c0-.41-.105-.72-.317-.932-.211-.211-.506-.317-.883-.317-.372 0-.666.106-.884.317-.212.211-.317.522-.317.932v1.402c0 .41.105.72.317.932.218.212.512.317.884.317zm3.71.692v-5.284h3.958V40h-.864v-4.496h-2.23V40h-.864zm7.669.096c-.416 0-.782-.083-1.095-.25a1.807 1.807 0 01-.72-.701 2.204 2.204 0 01-.25-1.066v-1.441c0-.41.083-.766.25-1.067a1.8 1.8 0 01.72-.701c.313-.166.679-.25 1.095-.25.416 0 .778.084 1.085.25.314.166.554.4.72.701.174.301.26.657.26 1.067v.931h-3.285v.51c0 .416.105.736.317.96.211.218.512.327.903.327.333 0 .602-.058.807-.173a.763.763 0 00.374-.538h.865a1.472 1.472 0 01-.653 1.057c-.372.256-.836.384-1.393.384zm1.22-3.103v-.355c0-.417-.106-.737-.317-.961-.205-.224-.506-.336-.903-.336-.39 0-.692.112-.903.336-.212.224-.317.544-.317.96v.28h2.507l-.067.076zm2.471 4.736v-7.013h.865v1.009h.173l-.173.202c0-.404.131-.72.394-.951.269-.237.621-.356 1.057-.356.531 0 .954.176 1.268.529.32.345.48.823.48 1.431v1.547c0 .403-.074.752-.221 1.047a1.57 1.57 0 01-.605.682c-.256.16-.564.24-.922.24-.43 0-.779-.118-1.048-.355s-.403-.554-.403-.951l.173.201h-.192l.019 1.201v1.537h-.865zm2.027-2.382c.365 0 .65-.11.855-.327.212-.218.317-.532.317-.941v-1.441c0-.41-.105-.724-.317-.942-.205-.218-.49-.326-.855-.326-.352 0-.634.112-.845.336-.211.224-.317.535-.317.932v1.44c0 .398.106.708.317.932.211.225.493.337.845.337zm5.2.75c-.557 0-.996-.142-1.316-.424-.32-.288-.48-.675-.48-1.162 0-.493.16-.88.48-1.163.32-.281.752-.422 1.297-.422h1.633v-.529c0-.326-.1-.576-.298-.749-.192-.18-.467-.269-.826-.269-.314 0-.576.067-.788.202a.717.717 0 00-.365.528h-.864c.057-.454.272-.816.643-1.085.372-.27.836-.404 1.393-.404.609 0 1.089.157 1.441.471.352.314.529.74.529 1.278V40h-.846v-1.009h-.144l.144-.144c0 .384-.15.689-.451.913-.295.224-.689.336-1.182.336zm.211-.683c.41 0 .746-.102 1.01-.307a.957.957 0 00.393-.788v-.75h-1.614c-.288 0-.515.08-.682.24-.166.16-.25.379-.25.654 0 .294.1.528.298.701.205.167.487.25.845.25zm5.508.586v-4.525h-1.922v-.759h4.707v.76h-1.921V40h-.864zm4.143 0v-5.284h.826v2.882c0 .186-.007.381-.02.586a8.08 8.08 0 01-.038.586c-.013.18-.029.333-.048.461l2.133-4.515h1.104V40h-.826v-2.882c0-.186.004-.381.01-.586.013-.205.029-.4.048-.586l.048-.47L109.042 40h-1.104zm5.689 0v-5.284h2.287c.55 0 .976.125 1.277.375.301.243.452.586.452 1.028 0 .365-.125.66-.375.884-.25.217-.579.326-.989.326v-.077c.448 0 .807.113 1.076.337.275.224.413.525.413.903 0 .474-.16.845-.481 1.114-.32.263-.768.394-1.345.394h-2.315zm.846-.759h1.469c.308 0 .545-.067.711-.202.173-.134.26-.323.26-.567 0-.25-.087-.441-.26-.576-.166-.134-.403-.202-.711-.202h-1.469v1.547zm0-2.296h1.441c.269 0 .48-.064.634-.192.16-.128.24-.307.24-.538 0-.23-.077-.41-.231-.538-.153-.135-.368-.202-.643-.202h-1.441v1.47zM119.317 40v-5.284h.864v2.2h2.229v-2.2h.865V40h-.865v-2.296h-2.229V40h-.864zm7.668.077c-.422 0-.787-.08-1.095-.24a1.745 1.745 0 01-.72-.692c-.167-.307-.25-.67-.25-1.086v-1.402c0-.423.083-.785.25-1.086.173-.3.413-.531.72-.691.308-.16.673-.24 1.095-.24.423 0 .788.08 1.096.24.307.16.544.39.711.691.172.301.259.66.259 1.076v1.412c0 .417-.087.779-.259 1.086a1.689 1.689 0 01-.711.692c-.308.16-.673.24-1.096.24zm0-.769c.378 0 .673-.105.884-.317.212-.211.317-.522.317-.932v-1.402c0-.41-.105-.72-.317-.932-.211-.211-.506-.317-.884-.317-.371 0-.666.106-.883.317-.212.211-.317.522-.317.932v1.402c0 .41.105.72.317.932.217.212.512.317.883.317zM18.901 59.096a2.46 2.46 0 01-1.114-.24 1.73 1.73 0 01-.73-.692c-.173-.307-.26-.67-.26-1.085v-1.441c0-.423.087-.785.26-1.086a1.73 1.73 0 01.73-.692c.32-.16.692-.24 1.114-.24.609 0 1.099.163 1.47.49.372.327.567.772.586 1.336h-.864c-.02-.34-.135-.6-.346-.779-.205-.185-.487-.278-.846-.278-.378 0-.679.109-.903.326-.224.212-.336.516-.336.913v1.45c0 .398.112.705.336.923.224.218.525.327.903.327.359 0 .64-.093.846-.28.211-.185.326-.444.346-.777h.864c-.02.563-.215 1.008-.586 1.335-.371.327-.861.49-1.47.49zM22.593 59v-5.284h2.286c.55 0 .977.125 1.278.375.3.243.451.586.451 1.028 0 .365-.125.66-.374.884-.25.217-.58.326-.99.326v-.077c.448 0 .807.113 1.076.337.276.224.413.525.413.903 0 .474-.16.845-.48 1.114-.32.263-.769.394-1.345.394h-2.315zm.845-.759h1.47c.307 0 .544-.067.71-.202.174-.134.26-.323.26-.567 0-.25-.086-.441-.26-.576-.166-.134-.403-.202-.71-.202h-1.47v1.547zm0-2.296h1.441c.27 0 .48-.064.634-.192.16-.128.24-.307.24-.538 0-.23-.076-.41-.23-.538-.154-.135-.369-.202-.644-.202h-1.44v1.47zM27.956 59l1.354-2.037c-.403-.096-.717-.281-.941-.557-.218-.275-.327-.618-.327-1.028 0-.519.17-.925.51-1.22.345-.294.816-.442 1.412-.442h2.276V59h-.864v-1.97h-1.163L28.964 59h-1.008zm2.008-2.738h1.412v-1.777h-1.413c-.32 0-.573.08-.758.24-.186.154-.279.371-.279.653 0 .276.093.493.279.654.185.153.438.23.759.23zm5.737 2.805c-.557 0-1.015-.118-1.374-.355a1.412 1.412 0 01-.634-.96h.913c.045.16.163.29.355.393.199.102.446.154.74.154h.452c.314 0 .557-.074.73-.221a.71.71 0 00.269-.577c0-.256-.087-.458-.26-.605-.166-.147-.413-.22-.74-.22H34.99v-.75h1.134c.294 0 .519-.07.672-.212a.72.72 0 00.23-.557.728.728 0 00-.105-.403.611.611 0 00-.297-.25 1.243 1.243 0 00-.49-.086h-.48c-.257 0-.478.057-.664.172-.185.116-.297.257-.336.423h-.913c.065-.397.273-.724.625-.98s.781-.384 1.287-.384h.48c.378 0 .702.06.97.183a1.324 1.324 0 01.836 1.277c0 .314-.102.573-.307.778-.205.199-.493.311-.864.337v.038c.454.032.784.154.99.365.204.212.306.516.306.913 0 .467-.172.839-.518 1.114-.346.276-.81.413-1.393.413H35.7zM39.383 59v-5.284h.807v1.94h.432c.57 0 1.019.151 1.345.452.333.295.5.702.5 1.22 0 .52-.167.93-.5 1.23-.326.295-.775.442-1.345.442h-1.239zm.807-.692h.432c.34 0 .602-.086.788-.26.192-.172.288-.412.288-.72 0-.307-.096-.547-.288-.72-.186-.173-.448-.26-.788-.26h-.432v1.96zm2.901.692v-5.284h.807V59h-.807zm2.26 0v-5.284h2.287c.55 0 .976.125 1.277.375.301.243.452.586.452 1.028 0 .365-.125.66-.375.884-.25.217-.58.326-.99.326v-.077c.45 0 .808.113 1.077.337.275.224.413.525.413.903 0 .474-.16.845-.48 1.114-.32.263-.77.394-1.346.394h-2.315zm.846-.759h1.47c.307 0 .544-.067.71-.202.173-.134.26-.323.26-.567 0-.25-.087-.441-.26-.576-.166-.134-.403-.202-.71-.202h-1.47v1.547zm0-2.296h1.44c.27 0 .481-.064.635-.192.16-.128.24-.307.24-.538 0-.23-.077-.41-.23-.538-.154-.135-.369-.202-.644-.202h-1.441v1.47zm6.362 3.151c-.557 0-.996-.14-1.316-.423-.32-.288-.48-.675-.48-1.162 0-.493.16-.88.48-1.163.32-.281.752-.422 1.297-.422h1.633v-.529c0-.326-.1-.576-.298-.749-.192-.18-.468-.269-.826-.269-.314 0-.577.067-.788.202a.718.718 0 00-.365.528h-.865c.058-.454.273-.816.644-1.085.372-.27.836-.404 1.393-.404.608 0 1.089.157 1.441.471.352.314.528.74.528 1.278V59h-.845v-1.009h-.144l.144-.144c0 .384-.15.689-.452.913-.294.224-.688.336-1.181.336zm.211-.682c.41 0 .746-.102 1.009-.307a.957.957 0 00.394-.788v-.75h-1.614c-.288 0-.516.08-.682.24-.167.16-.25.379-.25.654 0 .294.1.528.298.701.205.167.486.25.845.25zm3.298.653v-.807h.173c.294 0 .5-.115.614-.346.122-.23.186-.643.193-1.239l.057-2.959h3.584V59h-.865v-4.496H57.96l-.048 2.21c-.013.557-.077 1.008-.192 1.354-.109.346-.282.599-.519.76-.23.16-.534.24-.912.24h-.221zM62.42 59v-5.284h.826v2.882c0 .186-.006.381-.019.586-.006.205-.019.4-.038.586a6.1 6.1 0 01-.048.461l2.133-4.515h1.104V59h-.826v-2.882c0-.186.003-.381.01-.586.013-.205.029-.4.048-.586l.048-.47L63.525 59H62.42zm7.688.096a2.46 2.46 0 01-1.114-.24 1.73 1.73 0 01-.73-.692c-.173-.307-.26-.67-.26-1.085v-1.441c0-.423.087-.785.26-1.086a1.73 1.73 0 01.73-.692c.32-.16.691-.24 1.114-.24.609 0 1.099.163 1.47.49.371.327.567.772.586 1.336h-.865c-.019-.34-.134-.6-.346-.779-.204-.185-.486-.278-.845-.278-.378 0-.679.109-.903.326-.224.212-.336.516-.336.913v1.45c0 .398.112.705.336.923.224.218.525.327.903.327.359 0 .64-.093.846-.28.21-.185.326-.444.345-.777h.865c-.02.563-.215 1.008-.586 1.335-.371.327-.861.49-1.47.49zm3.73-.096v-5.284h.865v1.94h1.556c.596 0 1.063.151 1.403.452.345.295.518.702.518 1.22 0 .513-.173.92-.519 1.22-.345.301-.813.452-1.402.452h-2.421zm.865-.788h1.556c.333 0 .586-.073.759-.22.18-.154.269-.375.269-.664 0-.288-.09-.506-.27-.653-.172-.153-.425-.23-.758-.23h-1.556v1.767zm12.474.884a2.46 2.46 0 01-1.114-.24 1.73 1.73 0 01-.73-.692c-.173-.307-.26-.67-.26-1.085v-1.441c0-.423.087-.785.26-1.086a1.73 1.73 0 01.73-.692c.32-.16.691-.24 1.114-.24.608 0 1.098.163 1.47.49.371.327.567.772.586 1.336h-.865c-.019-.34-.134-.6-.346-.779-.205-.185-.486-.278-.845-.278-.378 0-.679.109-.903.326-.224.212-.336.516-.336.913v1.45c0 .398.112.705.336.923.224.218.525.327.903.327.359 0 .64-.093.845-.28.212-.185.327-.444.346-.777h.865c-.02.563-.215 1.008-.586 1.335-.372.327-.862.49-1.47.49zm9.41-.096v-5.284h.865v2.181h.903l1.537-2.18h.989l-1.777 2.516L100.91 59h-1.009l-1.537-2.354h-.912V59h-.865zm4.998.067v-.807h.173c.295 0 .499-.115.615-.346.121-.23.185-.643.192-1.239l.058-2.959h3.583V59h-.865v-4.496h-1.863l-.049 2.21c-.012.557-.076 1.008-.192 1.354-.109.346-.281.599-.518.76-.231.16-.535.24-.913.24h-.221zm6.353-.067v-5.284h.826v2.882c0 .186-.007.381-.02.586a8.08 8.08 0 01-.038.586c-.013.18-.029.333-.048.461l2.133-4.515h1.104V59h-.826v-2.882c0-.186.004-.381.01-.586.013-.205.029-.4.048-.586l.048-.47L109.042 59h-1.104zm7.668.096c-.416 0-.781-.083-1.095-.25a1.812 1.812 0 01-.721-.701 2.21 2.21 0 01-.249-1.066v-1.441c0-.41.083-.766.249-1.067.173-.3.414-.535.721-.701a2.31 2.31 0 011.095-.25c.416 0 .778.084 1.086.25.314.166.554.4.72.701.173.301.26.657.26 1.067v.931h-3.286v.51c0 .416.106.736.317.96.211.218.512.327.903.327.333 0 .602-.058.807-.173a.764.764 0 00.375-.538h.864a1.469 1.469 0 01-.653 1.057c-.371.256-.836.384-1.393.384zm1.22-3.103v-.355c0-.417-.105-.737-.317-.961-.205-.224-.506-.336-.903-.336-.391 0-.692.112-.903.336-.211.224-.317.544-.317.96v.28h2.507l-.067.076zM119.317 59v-5.284h.864v2.2h2.229v-2.2h.865V59h-.865v-2.296h-2.229V59h-.864zm7.236 0v-4.525h-1.921v-.759h4.707v.76h-1.921V59h-.865zm5.661.096c-.557 0-.996-.14-1.316-.423-.32-.288-.48-.675-.48-1.162 0-.493.16-.88.48-1.163.32-.281.752-.422 1.297-.422h1.633v-.529c0-.326-.099-.576-.298-.749-.192-.18-.467-.269-.826-.269-.314 0-.576.067-.788.202a.718.718 0 00-.365.528h-.864c.057-.454.272-.816.643-1.085.372-.27.836-.404 1.393-.404.609 0 1.089.157 1.441.471.352.314.529.74.529 1.278V59h-.846v-1.009h-.144l.144-.144c0 .384-.15.689-.451.913-.295.224-.689.336-1.182.336zm.211-.682c.41 0 .746-.102 1.009-.307a.956.956 0 00.394-.788v-.75h-1.614c-.288 0-.516.08-.682.24-.167.16-.25.379-.25.654 0 .294.099.528.298.701.205.167.487.25.845.25zm3.788.586v-5.284h1.172l.692 2.027c.07.205.134.41.192.615.057.199.099.352.125.461a20.9 20.9 0 01.115-.46c.058-.206.118-.414.182-.625l.654-2.018h1.172V59h-.836v-.817c0-.288.003-.602.01-.941l.019-1.028c.013-.346.025-.672.038-.98.013-.314.023-.59.029-.826l-.941 3.007h-.913l-.951-2.988c.013.288.022.647.029 1.076.012.43.022.878.028 1.345.013.468.02.913.02 1.335V59h-.836zm5.862 0v-5.284h.827v2.882c0 .186-.007.381-.02.586a8.08 8.08 0 01-.038.586c-.013.18-.029.333-.048.461l2.133-4.515h1.104V59h-.826v-2.882c0-.186.003-.381.01-.586.013-.205.029-.4.048-.586l.048-.47L143.18 59h-1.105zm6.372 1.537l.769-2.988h1.249l-1.249 2.988h-.769zM16.903 78v-5.284h3.958V78h-.865v-4.496h-2.228V78h-.865zm5.67 1.73v-7.014h.865v1.009h.173l-.173.202c0-.404.131-.72.394-.951.269-.237.621-.356 1.057-.356.531 0 .954.176 1.268.529.32.345.48.823.48 1.431v1.547c0 .403-.073.752-.22 1.047a1.57 1.57 0 01-.606.682c-.256.16-.564.24-.922.24-.43 0-.778-.118-1.047-.355-.27-.237-.404-.554-.404-.951l.173.201h-.192l.02 1.201v1.537h-.866zm2.027-2.383c.366 0 .65-.11.855-.327.212-.218.318-.531.318-.941v-1.441c0-.41-.106-.724-.317-.942-.205-.218-.49-.326-.855-.326-.353 0-.634.112-.846.336-.211.224-.317.535-.317.932v1.44c0 .398.106.708.317.932.212.225.493.337.846.337zm5.661.75a2.31 2.31 0 01-1.095-.25 1.807 1.807 0 01-.72-.702 2.203 2.203 0 01-.25-1.066v-1.441c0-.41.083-.766.25-1.067.173-.3.413-.534.72-.701a2.31 2.31 0 011.095-.25c.417 0 .779.084 1.086.25.314.166.554.4.72.701.173.301.26.657.26 1.067v.931H29.04v.51c0 .416.106.736.317.96.212.218.513.327.903.327.333 0 .602-.058.807-.173a.764.764 0 00.375-.538h.865a1.472 1.472 0 01-.654 1.057c-.371.256-.835.384-1.393.384zm1.22-3.104v-.355c0-.417-.105-.737-.317-.961-.205-.224-.506-.336-.903-.336-.39 0-.691.112-.903.336-.211.224-.317.544-.317.96v.28h2.508l-.068.076zm1.876 4.352V77.26h.432c.11-.109.221-.323.337-.643.121-.32.185-.727.192-1.22l.058-2.68h3.448v4.543h.673v2.085h-.769V78h-3.602v1.345h-.769zm1.345-2.085h2.258v-3.775h-1.768l-.038 1.93c-.007.507-.061.917-.164 1.23-.102.314-.198.52-.288.615zm6.939.817c-.423 0-.788-.08-1.096-.24a1.744 1.744 0 01-.72-.692c-.167-.307-.25-.67-.25-1.086v-1.402c0-.423.083-.785.25-1.086.173-.3.413-.531.72-.691.308-.16.673-.24 1.096-.24.422 0 .787.08 1.095.24.307.16.544.39.71.691.174.301.26.66.26 1.076v1.412c0 .417-.086.779-.26 1.086a1.683 1.683 0 01-.71.692c-.308.16-.673.24-1.095.24zm0-.769c.378 0 .672-.105.884-.317.21-.211.317-.522.317-.932v-1.402c0-.41-.106-.72-.317-.932-.212-.211-.506-.317-.884-.317-.372 0-.666.106-.884.317-.212.211-.317.522-.317.932v1.402c0 .41.105.72.317.932.218.212.512.317.884.317zm5.709.788c-.423 0-.795-.08-1.115-.24a1.73 1.73 0 01-.73-.692c-.173-.307-.26-.67-.26-1.085v-1.441c0-.423.087-.785.26-1.086a1.73 1.73 0 01.73-.692c.32-.16.692-.24 1.114-.24.609 0 1.099.163 1.47.49.372.327.567.772.586 1.335h-.864c-.02-.339-.135-.598-.346-.778-.205-.185-.487-.278-.846-.278-.377 0-.678.109-.902.326-.225.212-.337.516-.337.913v1.45c0 .398.112.705.337.923.224.218.525.326.902.326.36 0 .641-.092.846-.278.211-.186.327-.445.346-.778h.864c-.019.563-.214 1.008-.586 1.335-.371.327-.861.49-1.47.49zM52.587 78v-4.525h-1.922v-.759h4.708v.76h-1.922V78h-.864zm5.66.096c-.557 0-.995-.14-1.316-.423-.32-.288-.48-.675-.48-1.162 0-.493.16-.88.48-1.162.32-.282.753-.423 1.297-.423h1.633v-.529c0-.326-.099-.576-.297-.749-.192-.18-.468-.269-.827-.269-.313 0-.576.067-.787.202a.717.717 0 00-.365.528h-.865c.058-.454.272-.816.644-1.085.371-.27.835-.404 1.393-.404.608 0 1.088.157 1.44.471.353.314.529.74.529 1.278V78h-.845v-1.009h-.145l.145-.144c0 .385-.15.689-.452.913-.294.224-.688.336-1.181.336zm.212-.682c.41 0 .746-.103 1.008-.307a.957.957 0 00.394-.788v-.75h-1.614c-.288 0-.515.08-.682.24-.166.16-.25.379-.25.654 0 .294.1.528.298.701.205.167.487.25.846.25zm3.96.586v-5.284h2.287c.55 0 .976.125 1.277.375.301.243.452.586.452 1.028 0 .365-.125.66-.375.884-.25.217-.58.326-.99.326v-.076c.449 0 .808.112 1.077.336.275.224.413.525.413.903 0 .474-.16.845-.48 1.114-.32.263-.77.394-1.346.394H62.42zm.846-.759h1.47c.307 0 .544-.067.71-.202.173-.134.26-.323.26-.567 0-.25-.087-.441-.26-.576-.166-.134-.403-.202-.71-.202h-1.47v1.547zm0-2.296h1.44c.27 0 .481-.064.635-.192.16-.128.24-.308.24-.538 0-.23-.077-.41-.23-.538-.154-.135-.369-.202-.644-.202h-1.441v1.47zm4.181 3.122v-.807h.173c.295 0 .5-.115.615-.346.121-.23.186-.643.192-1.239l.058-2.959h3.583V78h-.865v-4.496H69.34l-.048 2.21c-.013.557-.077 1.008-.193 1.354-.109.346-.281.599-.518.76-.23.16-.535.24-.913.24h-.22zM73.473 78l1.355-2.037c-.404-.096-.718-.281-.942-.557-.218-.275-.327-.618-.327-1.028 0-.519.17-.925.51-1.22.345-.294.816-.442 1.412-.442h2.277V78h-.865v-1.97h-1.162L74.48 78h-1.008zm2.008-2.738h1.412v-1.777h-1.412c-.32 0-.573.08-.76.24-.185.154-.278.372-.278.653 0 .276.093.493.279.653.186.154.439.231.759.231zM79.163 78l1.354-2.037c-.403-.096-.717-.281-.941-.557-.218-.275-.327-.618-.327-1.028 0-.519.17-.925.51-1.22.345-.294.816-.442 1.411-.442h2.277V78h-.864v-1.97H81.42L80.171 78h-1.008zm2.007-2.738h1.413v-1.777H81.17c-.32 0-.573.08-.758.24-.186.154-.28.372-.28.653 0 .276.094.493.28.653.185.154.438.231.758.231zm9.084 4.083V77.26h.432c.109-.109.221-.323.336-.643.122-.32.186-.727.192-1.22l.058-2.68h3.449v4.543h.672v2.085h-.768V78h-3.603v1.345h-.768zm1.345-2.085h2.257v-3.775H92.09l-.039 1.93c-.006.507-.06.917-.163 1.23-.103.314-.199.52-.288.615zm6.938.817c-.422 0-.788-.08-1.095-.24a1.744 1.744 0 01-.72-.692c-.167-.307-.25-.67-.25-1.086v-1.402c0-.423.083-.785.25-1.086.172-.3.413-.531.72-.691.307-.16.673-.24 1.095-.24.423 0 .788.08 1.095.24.308.16.545.39.711.691.173.301.26.66.26 1.076v1.412c0 .417-.087.779-.26 1.086a1.68 1.68 0 01-.71.692c-.308.16-.673.24-1.096.24zm0-.769c.378 0 .673-.105.884-.317.211-.211.317-.522.317-.932v-1.402c0-.41-.106-.72-.317-.932-.211-.211-.506-.317-.884-.317-.371 0-.666.106-.884.317-.211.211-.317.522-.317.932v1.402c0 .41.106.72.317.932.218.212.513.317.884.317zm3.711.692v-5.284h3.958V78h-.865v-4.496h-2.229V78h-.864zm7.668.077c-.422 0-.787-.08-1.095-.24a1.745 1.745 0 01-.72-.692c-.167-.307-.25-.67-.25-1.086v-1.402c0-.423.083-.785.25-1.086.173-.3.413-.531.72-.691.308-.16.673-.24 1.095-.24.423 0 .788.08 1.096.24.307.16.544.39.711.691.172.301.259.66.259 1.076v1.412c0 .417-.087.779-.259 1.086a1.689 1.689 0 01-.711.692c-.308.16-.673.24-1.096.24zm0-.769c.378 0 .673-.105.884-.317.212-.211.317-.522.317-.932v-1.402c0-.41-.105-.72-.317-.932-.211-.211-.506-.317-.884-.317-.371 0-.666.106-.883.317-.212.211-.317.522-.317.932v1.402c0 .41.105.72.317.932.217.212.512.317.883.317zm3.048.76v-.808h.173c.295 0 .5-.115.615-.346.122-.23.186-.643.192-1.239l.058-2.959h3.583V78h-.864v-4.496h-1.864l-.048 2.21c-.013.557-.077 1.008-.192 1.354-.109.346-.282.599-.519.76-.231.16-.535.24-.913.24h-.221zm6.353-.068v-5.284h.864v2.2h2.229v-2.2h.865V78h-.865v-2.296h-2.229V78h-.864zm5.689 0v-5.284h.827v2.882c0 .186-.007.381-.02.586a8.08 8.08 0 01-.038.586 6.36 6.36 0 01-.048.462l2.133-4.516h1.104V78h-.826v-2.882c0-.186.003-.381.01-.586.013-.205.029-.4.048-.586l.048-.47L126.111 78h-1.105zm7.237 0v-4.525h-1.922v-.759h4.708v.76h-1.922V78h-.864zm6.122.096c-.417 0-.782-.083-1.095-.25a1.806 1.806 0 01-.721-.701 2.21 2.21 0 01-.25-1.066v-1.441c0-.41.084-.766.25-1.067.173-.3.413-.534.721-.701.313-.166.678-.25 1.095-.25.416 0 .778.084 1.085.25.314.166.554.4.721.701.173.301.259.657.259 1.067v.931h-3.285v.51c0 .416.105.736.317.96.211.218.512.327.903.327.333 0 .602-.058.807-.173a.76.76 0 00.374-.538h.865a1.472 1.472 0 01-.653 1.057c-.372.256-.836.384-1.393.384zm1.22-3.103v-.355c0-.417-.106-.737-.317-.961-.205-.224-.506-.336-.903-.336-.391 0-.692.112-.903.336-.212.224-.317.544-.317.96v.28h2.507l-.067.076zm1.828 3.074v-.807h.172c.295 0 .5-.115.615-.346.122-.23.186-.643.192-1.239l.058-2.959h3.583V78h-.864v-4.496h-1.864l-.048 2.21c-.013.557-.077 1.008-.192 1.354-.109.346-.282.599-.519.76-.23.16-.535.24-.912.24h-.221zm6.391-.067v-5.284h.864v1.94h1.556c.596 0 1.064.151 1.403.452.346.295.519.702.519 1.22 0 .513-.173.92-.519 1.22-.346.302-.813.452-1.403.452h-2.42zm.864-.788h1.556c.333 0 .586-.073.759-.22.18-.154.269-.375.269-.664 0-.288-.089-.505-.269-.653-.173-.153-.426-.23-.759-.23h-1.556v1.767zm4.787.788v-5.284h.864v2.2h2.229v-2.2h.865V78h-.865v-2.296h-2.229V78h-.864zm6.496 1.73l.779-2.057-1.96-4.957h.96l1.23 3.267c.045.108.087.24.125.393l.096.375.096-.375c.039-.153.077-.285.115-.393l1.153-3.267h.932l-2.603 7.013h-.923zm7.688-1.634c-.442 0-.797-.15-1.066-.451-.269-.301-.404-.695-.404-1.182v-.797h-.845V78h-.797v-5.284h.797v2.258h.845v-.72c0-.494.132-.888.394-1.182.269-.301.628-.452 1.076-.452.474 0 .855.15 1.143.452.289.294.433.688.433 1.181v2.21c0 .487-.144.88-.433 1.182-.288.3-.669.451-1.143.451zm0-.672c.244 0 .433-.084.567-.25.141-.173.211-.41.211-.711v-2.21c0-.3-.07-.534-.211-.7-.134-.174-.323-.26-.567-.26a.667.667 0 00-.557.26c-.134.166-.202.4-.202.7v2.21c0 .3.068.538.202.71.135.167.32.25.557.25zM16.903 98v-5.284h.826v2.882c0 .186-.006.381-.019.586-.006.205-.02.4-.038.586-.013.18-.03.333-.049.462l2.133-4.516h1.105V98h-.826v-2.882c0-.186.003-.381.01-.586.012-.205.028-.4.047-.586l.049-.47L18.008 98h-1.105zm5.69 0v-5.284h.864v2.2h2.23v-2.2h.864V98h-.865v-2.296h-2.229V98h-.864zm7.284 1.73V98c-.615 0-1.098-.173-1.45-.519-.353-.346-.529-.82-.529-1.422v-1.421c0-.596.176-1.064.528-1.403.36-.346.843-.519 1.451-.519v-1.729h.769v1.73c.614 0 1.098.172 1.45.518.353.34.529.807.529 1.403v1.421c0 .603-.176 1.076-.529 1.422-.352.346-.836.519-1.45.519v1.73h-.769zm.02-2.412v-3.92c-.372 0-.664.11-.875.327-.211.218-.317.522-.317.913v1.421c0 .391.106.698.317.923.211.224.503.336.874.336zm.73 0c.377 0 .669-.112.874-.336.211-.225.317-.532.317-.923v-1.421c0-.391-.106-.695-.317-.913-.205-.218-.497-.327-.875-.327v3.92zm5.324.759c-.423 0-.788-.08-1.095-.24a1.744 1.744 0 01-.72-.692c-.167-.307-.25-.67-.25-1.086v-1.402c0-.423.083-.785.25-1.086.172-.3.412-.531.72-.691.307-.16.672-.24 1.095-.24.423 0 .788.08 1.095.24.308.16.544.39.711.691.173.301.26.66.26 1.076v1.412c0 .417-.087.779-.26 1.086a1.684 1.684 0 01-.71.692c-.308.16-.673.24-1.096.24zm0-.769c.378 0 .672-.105.884-.317.211-.211.317-.522.317-.932v-1.402c0-.41-.106-.72-.317-.932-.212-.211-.506-.317-.884-.317-.371 0-.666.106-.884.317-.211.211-.317.522-.317.932v1.402c0 .41.106.72.317.932.218.212.513.317.884.317zm3.691 2.421v-7.013h.865v1.009h.173l-.173.202c0-.404.131-.72.394-.951.269-.237.621-.356 1.057-.356.531 0 .954.176 1.268.529.32.345.48.823.48 1.431v1.547c0 .403-.074.752-.22 1.047a1.57 1.57 0 01-.606.682c-.256.16-.564.24-.922.24-.43 0-.779-.118-1.047-.355-.27-.237-.404-.554-.404-.951l.173.201h-.192l.019 1.201v1.537h-.865zm2.027-2.382c.366 0 .65-.11.856-.327.21-.218.317-.531.317-.941v-1.441c0-.41-.106-.724-.317-.942-.206-.218-.49-.326-.855-.326-.353 0-.635.112-.846.336-.211.224-.317.535-.317.932v1.44c0 .398.106.708.317.932.211.225.493.337.846.337zm3.51.653v-5.284h1.171l.692 2.027c.07.205.135.41.192.615.058.199.1.352.125.461.026-.109.064-.262.115-.46.058-.206.119-.414.183-.625l.653-2.018h1.172V98h-.836v-.817c0-.288.004-.602.01-.941l.02-1.028c.012-.346.025-.672.038-.98.013-.314.022-.59.029-.826l-.942 3.007h-.913l-.95-2.988c.012.288.022.647.028 1.076.013.43.023.878.029 1.345.013.468.02.913.02 1.335V98h-.837zm7.38.096c-.557 0-.996-.14-1.316-.423-.32-.288-.48-.675-.48-1.162 0-.493.16-.88.48-1.162.32-.282.752-.423 1.297-.423h1.633v-.529c0-.326-.1-.576-.298-.749-.192-.18-.468-.269-.826-.269-.314 0-.577.067-.788.202a.718.718 0 00-.365.528h-.865c.058-.454.273-.816.644-1.085.372-.27.836-.404 1.393-.404.608 0 1.089.157 1.441.471.352.314.528.74.528 1.278V98h-.845v-1.009h-.144l.144-.144c0 .385-.15.689-.452.913-.294.224-.688.336-1.181.336zm.211-.682c.41 0 .746-.103 1.009-.307a.957.957 0 00.394-.788v-.75h-1.614c-.288 0-.516.08-.682.24-.167.16-.25.379-.25.654 0 .294.1.528.298.701.205.167.486.25.845.25zm7.717 1.93V98H56.73v-5.284h.864v4.516h2.075v-4.516h.865v4.516h.72v2.113h-.768zM62.42 98v-5.284h.826v2.882c0 .186-.006.381-.019.586-.006.205-.019.4-.038.586a6.1 6.1 0 01-.048.462l2.133-4.516h1.104V98h-.826v-2.882c0-.186.003-.381.01-.586.013-.205.029-.4.048-.586l.048-.47L63.525 98H62.42zm8.495.096c-.442 0-.797-.15-1.066-.451-.27-.301-.404-.695-.404-1.182v-.797H68.6V98h-.797v-5.284h.797v2.258h.845v-.72c0-.494.132-.888.394-1.182.27-.301.628-.452 1.076-.452.474 0 .855.15 1.143.452.288.294.433.688.433 1.181v2.21c0 .487-.144.88-.433 1.182-.288.3-.669.451-1.143.451zm0-.672c.243 0 .432-.084.567-.25.14-.173.211-.41.211-.711v-2.21c0-.3-.07-.534-.211-.7-.135-.174-.323-.26-.567-.26a.667.667 0 00-.557.26c-.135.166-.202.4-.202.7v2.21c0 .3.067.538.202.71.134.167.32.25.557.25zM79.49 98v-5.284h.826v2.882c0 .186-.006.381-.019.586-.006.205-.019.4-.038.586a6.36 6.36 0 01-.048.462l2.132-4.516h1.105V98h-.826v-2.882c0-.186.003-.381.01-.586.012-.205.028-.4.048-.586l.048-.47L80.594 98h-1.105zm13.109.067c-.557 0-1.015-.118-1.374-.355a1.412 1.412 0 01-.634-.96h.913c.044.16.163.29.355.393.199.103.445.154.74.154h.451c.314 0 .557-.074.73-.221a.71.71 0 00.27-.577c0-.256-.087-.458-.26-.605-.166-.147-.413-.22-.74-.22h-1.162v-.75h1.133c.295 0 .52-.07.673-.212a.72.72 0 00.23-.557.727.727 0 00-.105-.403.61.61 0 00-.298-.25 1.243 1.243 0 00-.49-.086h-.48c-.257 0-.477.057-.663.172-.186.116-.298.257-.336.423h-.913c.064-.397.272-.724.624-.98.353-.256.782-.384 1.288-.384h.48c.378 0 .701.06.97.183.27.115.474.281.615.5.148.217.221.476.221.777 0 .314-.102.574-.307.778-.205.199-.493.311-.865.337v.038c.455.032.785.154.99.365.205.212.307.516.307.913 0 .467-.173.839-.519 1.114-.346.276-.81.413-1.393.413h-.451zm5.478.03c-.557 0-.996-.142-1.316-.424-.32-.288-.48-.675-.48-1.162 0-.493.16-.88.48-1.162.32-.282.752-.423 1.297-.423h1.633v-.529c0-.326-.1-.576-.298-.749-.192-.18-.467-.269-.826-.269-.314 0-.576.067-.788.202a.717.717 0 00-.365.528h-.864c.057-.454.272-.816.643-1.085.372-.27.836-.404 1.393-.404.609 0 1.089.157 1.441.471.352.314.529.74.529 1.278V98h-.846v-1.009h-.144l.144-.144c0 .385-.15.689-.451.913-.295.224-.689.336-1.182.336zm.211-.683c.41 0 .746-.103 1.01-.307a.957.957 0 00.393-.788v-.75h-1.614c-.288 0-.515.08-.682.24-.166.16-.25.379-.25.654 0 .294.1.528.298.701.205.167.487.25.845.25zm3.99.586v-5.284h.864v2.181h.903l1.537-2.18h.99l-1.777 2.516L106.6 98h-1.009l-1.537-2.354h-.913V98h-.864zm5.641 1.73v-7.014h.865v1.009h.173l-.173.202c0-.404.131-.72.394-.951.269-.237.621-.356 1.057-.356.531 0 .954.176 1.268.529.32.345.48.823.48 1.431v1.547c0 .403-.074.752-.221 1.047a1.575 1.575 0 01-.605.682c-.256.16-.564.24-.922.24-.43 0-.779-.118-1.048-.355s-.403-.554-.403-.951l.173.201h-.192l.019 1.201v1.537h-.865zm2.027-2.383c.365 0 .65-.11.855-.327.212-.218.317-.531.317-.941v-1.441c0-.41-.105-.724-.317-.942-.205-.218-.49-.326-.855-.326-.352 0-.634.112-.845.336-.211.224-.317.535-.317.932v1.44c0 .398.106.708.317.932.211.225.493.337.845.337zm3.404.653v-5.284h.807v1.94h.432c.57 0 1.018.151 1.345.452.333.295.499.702.499 1.22 0 .52-.166.93-.499 1.23-.327.295-.775.442-1.345.442h-1.239zm.807-.692h.432c.339 0 .602-.086.788-.26.192-.172.288-.412.288-.72 0-.307-.096-.547-.288-.72-.186-.173-.449-.26-.788-.26h-.432v1.96zm2.901.692v-5.284h.807V98h-.807zm2.26 0v-5.284h2.286c.551 0 .977.125 1.278.375.301.243.451.586.451 1.028 0 .365-.124.66-.374.884-.25.217-.58.326-.99.326v-.076c.449 0 .807.112 1.076.336.276.224.413.525.413.903 0 .474-.16.845-.48 1.114-.32.263-.769.394-1.345.394h-2.315zm.845-.759h1.47c.307 0 .544-.067.711-.202.173-.134.259-.323.259-.567 0-.25-.086-.441-.259-.576-.167-.134-.404-.202-.711-.202h-1.47v1.547zm0-2.296h1.441c.269 0 .481-.064.634-.192.16-.128.24-.308.24-.538 0-.23-.076-.41-.23-.538-.154-.135-.368-.202-.644-.202h-1.441v1.47zm6.362 3.151c-.557 0-.996-.14-1.316-.423-.32-.288-.48-.675-.48-1.162 0-.493.16-.88.48-1.162.32-.282.753-.423 1.297-.423h1.633v-.529c0-.326-.099-.576-.298-.749-.192-.18-.467-.269-.826-.269-.314 0-.576.067-.787.202a.717.717 0 00-.366.528h-.864c.058-.454.272-.816.644-1.085.371-.27.835-.404 1.392-.404.609 0 1.089.157 1.442.471.352.314.528.74.528 1.278V98h-.846v-1.009h-.144l.144-.144c0 .385-.15.689-.451.913-.295.224-.689.336-1.182.336zm.212-.682c.41 0 .746-.103 1.008-.307a.956.956 0 00.394-.788v-.75h-1.614c-.288 0-.515.08-.682.24-.166.16-.25.379-.25.654 0 .294.1.528.298.701.205.167.487.25.846.25zm3.633.586l1.355-2.037c-.403-.096-.717-.281-.941-.557-.218-.275-.327-.618-.327-1.028 0-.519.17-.925.509-1.22.346-.294.817-.442 1.412-.442h2.277V98h-.865v-1.97h-1.162l-1.25 1.97h-1.009zm2.008-2.738h1.412v-1.777h-1.412c-.32 0-.573.08-.759.24-.185.154-.278.372-.278.653 0 .276.093.493.278.653.186.154.439.231.759.231zM18.901 117.096c-.422 0-.794-.08-1.114-.24a1.73 1.73 0 01-.73-.692c-.173-.307-.26-.669-.26-1.085v-1.441c0-.423.087-.785.26-1.086.173-.301.416-.531.73-.692.32-.16.692-.24 1.114-.24.609 0 1.099.164 1.47.49.372.327.567.772.586 1.336h-.864c-.02-.34-.135-.599-.346-.779-.205-.185-.487-.278-.846-.278-.378 0-.679.109-.903.326-.224.212-.336.516-.336.913v1.451c0 .397.112.704.336.922.224.218.525.327.903.327.359 0 .64-.093.846-.279.211-.186.326-.445.346-.778h.864c-.02.563-.215 1.008-.586 1.335-.371.327-.861.49-1.47.49zm3.077 1.249v-2.085h.432c.109-.109.221-.323.336-.643.122-.321.186-.727.193-1.22l.057-2.681h3.449v4.544h.672v2.085h-.768V117h-3.603v1.345h-.768zm1.345-2.085h2.257v-3.775h-1.767l-.039 1.931c-.006.506-.06.916-.163 1.229-.102.314-.198.519-.288.615zm6.938.836c-.416 0-.781-.083-1.095-.25a1.803 1.803 0 01-.72-.701 2.202 2.202 0 01-.25-1.066v-1.441c0-.41.083-.766.25-1.067a1.81 1.81 0 01.72-.701c.314-.167.679-.25 1.095-.25.417 0 .779.083 1.086.25.314.167.554.4.72.701.173.301.26.657.26 1.067v.931H29.04v.51c0 .416.106.736.317.96.212.218.513.327.903.327.333 0 .602-.058.807-.173a.764.764 0 00.375-.538h.865a1.473 1.473 0 01-.654 1.057c-.371.256-.835.384-1.393.384zm1.22-3.103v-.355c0-.417-.105-.737-.317-.961-.205-.224-.506-.336-.903-.336-.39 0-.691.112-.903.336-.211.224-.317.544-.317.961v.278h2.508l-.068.077zm1.828 3.074v-.807h.173c.295 0 .5-.115.615-.346.122-.23.186-.643.192-1.239l.058-2.959h3.583V117h-.865v-4.496h-1.863l-.048 2.21c-.013.557-.077 1.008-.193 1.354-.108.346-.281.599-.518.759-.23.16-.535.24-.913.24h-.22zm6.382-.067v-5.284h.864v2.181h.903l1.537-2.181h.99l-1.778 2.517L44.013 117h-1.008l-1.537-2.354h-.913V117h-.864zm5.66 0v-5.284h.827v2.882c0 .186-.007.381-.02.586a8.055 8.055 0 01-.038.586c-.013.18-.029.333-.048.461l2.133-4.515h1.104V117h-.826v-2.882c0-.186.003-.381.01-.586.012-.205.029-.4.048-.586l.048-.471L46.456 117h-1.105zm7.669.096c-.243 0-.439-.07-.586-.211-.141-.141-.211-.33-.211-.567 0-.25.07-.448.21-.596.148-.147.344-.221.587-.221s.435.074.576.221c.148.148.221.346.221.596 0 .237-.073.426-.22.567-.142.141-.334.211-.577.211z" fill="#000"/><defs><filter id="filter0_d_441_1364" x=".157" y="0" width="179.685" height="144.685" filterUnits="userSpaceOnUse" color-interpolation-filters="sRGB"><feFlood flood-opacity="0" result="BackgroundImageFix"/><feColorMatrix in="SourceAlpha" values="0 0 0 0 0 0 0 0 0 0 0 0 0 0 0 0 0 0 127 0" result="hardAlpha"/><feOffset dy="3.843"/><feGaussianBlur stdDeviation="1.921"/><feComposite in2="hardAlpha" operator="out"/><feColorMatrix values="0 0 0 0 0 0 0 0 0 0 0 0 0 0 0 0 0 0 0.25 0"/><feBlend in2="BackgroundImageFix" result="effect1_dropShadow_441_1364"/><feBlend in="SourceGraphic" in2="effect1_dropShadow_441_1364" result="shape"/></filter></defs></svg>