<svg width="189" height="145" fill="none" xmlns="http://www.w3.org/2000/svg"><g filter="url(#filter0_d_441_1186)"><rect x="4" width="172" height="137" rx="16.011" fill="#F8EEDA"/></g><path d="M28.893 50v-7.013h1.989c.64 0 1.14.16 1.499.48.365.32.547.766.547 1.336 0 .32-.067.599-.201.836a1.36 1.36 0 01-.577.547c-.243.128-.538.19-.884.183v-.144c.372-.007.692.064.961.21.275.148.487.36.634.635.154.275.23.602.23.98 0 .397-.083.743-.25 1.037a1.699 1.699 0 01-.71.682c-.308.154-.676.231-1.105.231h-2.133zm.846-.778h1.191c.404 0 .72-.106.951-.317.237-.218.356-.513.356-.884 0-.384-.119-.695-.356-.932-.23-.243-.547-.365-.95-.365h-1.192v2.498zm0-3.247h1.133c.372 0 .663-.1.875-.298.217-.199.326-.468.326-.807 0-.34-.105-.608-.317-.807-.211-.199-.503-.298-.874-.298h-1.143v2.21zM34.314 50v-5.284h.807v1.94h.432c.57 0 1.019.151 1.345.452.333.295.5.702.5 1.22 0 .52-.167.93-.5 1.23-.326.295-.775.442-1.345.442h-1.239zm.807-.692h.432c.34 0 .602-.086.788-.26.192-.172.288-.412.288-.72 0-.307-.096-.547-.288-.72-.186-.173-.448-.26-.788-.26h-.432v1.96zm2.901.692v-5.284h.807V50h-.807zm1.934 0l1.354-2.037c-.403-.096-.717-.281-.941-.557-.218-.275-.327-.618-.327-1.028 0-.519.17-.925.51-1.22.345-.294.816-.442 1.412-.442h2.276V50h-.864v-1.97h-1.163L40.964 50h-1.008zm2.008-2.738h1.412v-1.777h-1.412c-.32 0-.574.08-.76.24-.185.154-.278.371-.278.653 0 .276.093.493.279.654.185.153.438.23.759.23zM45.972 50v-5.284h2.286c.551 0 .977.125 1.278.375.301.243.452.586.452 1.028 0 .365-.125.66-.375.884-.25.217-.58.326-.99.326v-.077c.449 0 .807.113 1.076.337.276.224.413.525.413.903 0 .474-.16.845-.48 1.114-.32.263-.768.394-1.345.394h-2.315zm.845-.759h1.47c.308 0 .545-.067.711-.202.173-.134.26-.323.26-.567 0-.25-.087-.441-.26-.576-.166-.134-.403-.202-.71-.202h-1.47v1.547zm0-2.296h1.441c.27 0 .48-.064.634-.192.16-.128.24-.307.24-.538 0-.23-.076-.41-.23-.538-.154-.135-.368-.202-.644-.202h-1.44v1.47zM51.662 50v-5.284h.826v2.882c0 .186-.007.381-.02.586-.006.205-.019.4-.038.586a6.1 6.1 0 01-.048.461l2.133-4.515h1.105V50h-.826v-2.882c0-.186.003-.381.01-.586.012-.205.028-.4.047-.586l.048-.47L52.766 50h-1.104zm5.026.067v-.807h.173c.295 0 .5-.115.615-.346.122-.23.186-.643.192-1.239l.058-2.959h3.583V50h-.864v-4.496H58.58l-.048 2.21c-.013.557-.077 1.008-.192 1.354-.11.346-.282.599-.519.76-.23.16-.535.24-.913.24h-.22zM63.041 50v-5.284h.826v2.882c0 .186-.006.381-.02.586-.005.205-.018.4-.038.586a6.1 6.1 0 01-.047.461l2.132-4.515H67V50h-.826v-2.882c0-.186.003-.381.01-.586.012-.205.028-.4.047-.586l.048-.47L64.146 50H63.04zm11.38 0v-5.284h.864v2.2h2.229v-2.2h.864V50h-.864v-2.296h-2.23V50h-.864zm7.668.096c-.416 0-.781-.083-1.095-.25a1.808 1.808 0 01-.72-.701 2.204 2.204 0 01-.25-1.066v-1.441c0-.41.083-.766.25-1.067a1.8 1.8 0 01.72-.701 2.31 2.31 0 011.095-.25c.416 0 .778.084 1.085.25.314.166.554.4.721.701.173.301.26.657.26 1.067v.931h-3.286v.51c0 .416.106.736.317.96.211.218.512.327.903.327.333 0 .602-.058.807-.173a.763.763 0 00.374-.538h.865a1.472 1.472 0 01-.653 1.057c-.372.256-.836.384-1.393.384zm1.22-3.103v-.355c0-.417-.106-.737-.317-.961-.205-.224-.506-.336-.903-.336-.39 0-.692.112-.903.336-.212.224-.317.544-.317.96v.28h2.507l-.067.076zm1.876 4.352V49.26h.432c.109-.109.221-.323.336-.643.122-.32.186-.727.192-1.22l.058-2.68h3.449v4.543h.672v2.085h-.768V50h-3.603v1.345h-.768zm1.345-2.085h2.257v-3.775H87.02l-.039 1.93c-.006.507-.06.917-.163 1.23-.103.314-.199.52-.288.615zm6.938.817c-.422 0-.788-.08-1.095-.24a1.744 1.744 0 01-.72-.692c-.167-.307-.25-.67-.25-1.086v-1.402c0-.423.083-.785.25-1.086.172-.3.413-.531.72-.691.307-.16.672-.24 1.095-.24.423 0 .788.08 1.095.24.308.16.545.39.711.691.173.301.26.66.26 1.076v1.412c0 .417-.087.779-.26 1.086a1.683 1.683 0 01-.71.692c-.308.16-.673.24-1.096.24zm0-.769c.378 0 .673-.105.884-.317.211-.211.317-.522.317-.932v-1.402c0-.41-.106-.72-.317-.932-.211-.211-.506-.317-.884-.317-.371 0-.666.106-.884.317-.21.211-.317.522-.317.932v1.402c0 .41.106.72.317.932.218.212.513.317.884.317zm5.71.788a2.46 2.46 0 01-1.115-.24 1.73 1.73 0 01-.73-.692c-.173-.307-.26-.67-.26-1.085v-1.441c0-.423.087-.785.26-1.086a1.73 1.73 0 01.73-.692c.32-.16.691-.24 1.114-.24.608 0 1.098.163 1.47.49.371.327.567.772.586 1.336h-.865c-.019-.34-.134-.6-.346-.779-.205-.185-.486-.278-.845-.278-.378 0-.679.109-.903.326-.224.212-.336.516-.336.913v1.45c0 .398.112.705.336.923.224.218.525.327.903.327.359 0 .64-.093.845-.28.212-.185.327-.444.346-.777h.865c-.019.563-.215 1.008-.586 1.335-.372.327-.862.49-1.47.49zm5.237-.096v-4.525h-1.921v-.759h4.707v.76h-1.921V50h-.865zm5.661.096c-.557 0-.996-.14-1.316-.423-.32-.288-.48-.675-.48-1.162 0-.493.16-.88.48-1.163.32-.281.752-.422 1.297-.422h1.633v-.529c0-.326-.099-.576-.298-.749-.192-.18-.467-.269-.826-.269-.314 0-.576.067-.788.202a.718.718 0 00-.365.528h-.864c.057-.454.272-.816.643-1.085.372-.27.836-.404 1.393-.404.609 0 1.089.157 1.441.471.352.314.529.74.529 1.278V50h-.846v-1.009h-.144l.144-.144c0 .384-.15.689-.451.913-.295.224-.689.336-1.182.336zm.211-.682c.41 0 .747-.102 1.009-.307a.956.956 0 00.394-.788v-.75h-1.614c-.288 0-.515.08-.682.24-.167.16-.25.379-.25.654 0 .294.099.528.298.701.205.167.487.25.845.25zm5.508.586v-4.525h-1.922v-.759h4.707v.76h-1.921V50h-.864zm4.171 0v-5.284h.865v2.181h.903l1.537-2.18h.99l-1.778 2.516L124.289 50h-1.008l-1.537-2.354h-.913V50h-.865zm5.661 0v-5.284h.826v2.882c0 .186-.006.381-.019.586a8.08 8.08 0 01-.038.586c-.013.18-.029.333-.048.461l2.132-4.515h1.105V50h-.826v-2.882c0-.186.003-.381.01-.586.012-.205.028-.4.048-.586l.048-.47L126.732 50h-1.105zm11.379 0v-5.284h2.287c.551 0 .977.125 1.278.375.301.243.451.586.451 1.028 0 .365-.125.66-.375.884-.249.217-.579.326-.989.326v-.077c.448 0 .807.113 1.076.337.275.224.413.525.413.903 0 .474-.16.845-.48 1.114-.321.263-.769.394-1.345.394h-2.316zm.846-.759h1.47c.307 0 .544-.067.711-.202.173-.134.259-.323.259-.567 0-.25-.086-.441-.259-.576-.167-.134-.404-.202-.711-.202h-1.47v1.547zm0-2.296h1.441c.269 0 .48-.064.634-.192.16-.128.24-.307.24-.538 0-.23-.077-.41-.23-.538-.154-.135-.369-.202-.644-.202h-1.441v1.47zM30.902 69.096a2.46 2.46 0 01-1.115-.24 1.73 1.73 0 01-.73-.692c-.173-.307-.26-.67-.26-1.085v-1.441c0-.423.087-.785.26-1.086a1.73 1.73 0 01.73-.692c.32-.16.692-.24 1.114-.24.609 0 1.099.163 1.47.49.371.327.567.772.586 1.335h-.864c-.02-.339-.135-.598-.346-.778-.205-.185-.487-.278-.846-.278-.378 0-.679.109-.903.326-.224.212-.336.516-.336.913v1.45c0 .398.112.705.336.923.224.218.525.326.903.326.359 0 .64-.092.846-.278.211-.186.326-.445.346-.778h.864c-.02.563-.215 1.008-.586 1.335-.371.327-.861.49-1.47.49zM36.138 69v-4.525h-1.921v-.759h4.707v.76h-1.921V69h-.865zm4.124 1.73v-7.014h.865v1.009h.173l-.173.202c0-.404.131-.72.394-.951.269-.237.62-.356 1.056-.356.532 0 .955.176 1.268.529.32.345.48.823.48 1.431v1.547c0 .403-.073.752-.22 1.047a1.57 1.57 0 01-.605.682c-.257.16-.564.24-.923.24-.429 0-.778-.118-1.047-.355-.269-.237-.403-.554-.403-.951l.173.201h-.193l.02 1.201v1.537h-.865zm2.027-2.383c.365 0 .65-.11.855-.327.211-.218.317-.531.317-.941v-1.441c0-.41-.106-.724-.317-.942-.205-.218-.49-.326-.855-.326-.352 0-.634.112-.845.336-.212.224-.317.535-.317.932v1.44c0 .398.105.708.317.932.211.225.493.337.845.337zm4.489 2.382l.778-2.056-1.96-4.957h.961l1.23 3.267a2.9 2.9 0 01.125.393l.096.375c.025-.102.057-.227.096-.375.038-.153.077-.285.115-.393l1.153-3.267h.932L47.7 70.73h-.922zM51.69 69v-5.284h.865v2.181h.903l1.537-2.18h.99l-1.778 2.516L56.013 69h-1.008l-1.537-2.354h-.913V69h-.864zm7.208 0v-4.525h-1.921v-.759h4.707v.76h-1.921V69h-.865zm4.95 1.73l.778-2.057-1.96-4.957h.961l1.23 3.267c.044.108.086.24.124.393l.097.375c.025-.102.057-.227.096-.375a4.44 4.44 0 01.115-.393l1.153-3.267h.932L64.77 70.73h-.922zm4.863 0v-7.014h.865v1.009h.173l-.173.202c0-.404.131-.72.394-.951.269-.237.621-.356 1.057-.356.531 0 .954.176 1.268.529.32.345.48.823.48 1.431v1.547c0 .403-.074.752-.22 1.047a1.57 1.57 0 01-.606.682c-.256.16-.564.24-.922.24-.43 0-.778-.118-1.047-.355-.27-.237-.404-.554-.404-.951l.173.201h-.192l.019 1.201v1.537h-.865zm2.027-2.383c.365 0 .65-.11.855-.327.212-.218.317-.531.317-.941v-1.441c0-.41-.105-.724-.317-.942-.205-.218-.49-.326-.855-.326-.352 0-.634.112-.845.336-.211.224-.317.535-.317.932v1.44c0 .398.106.708.317.932.211.225.493.337.845.337zm5.661.75a2.31 2.31 0 01-1.095-.25 1.807 1.807 0 01-.72-.702 2.204 2.204 0 01-.25-1.066v-1.441c0-.41.083-.766.25-1.067.172-.3.413-.534.72-.701a2.31 2.31 0 011.095-.25c.417 0 .778.084 1.086.25.314.167.554.4.72.701.173.301.26.657.26 1.067v.931h-3.286v.51c0 .416.106.736.317.96.212.218.513.327.903.327.333 0 .602-.058.807-.173a.763.763 0 00.375-.538h.864a1.472 1.472 0 01-.653 1.057c-.371.256-.835.384-1.393.384zm1.22-3.104v-.355c0-.417-.105-.737-.317-.961-.205-.224-.506-.336-.903-.336-.39 0-.691.112-.903.336-.211.224-.317.544-.317.96v.28h2.508l-.068.076zm3.173 4.544l.769-2.988h1.248l-1.248 2.988h-.769zM91.518 69v-5.284h.865v2.181h.903l1.537-2.18h.99l-1.778 2.516L95.841 69h-1.009l-1.537-2.354h-.912V69h-.865zm7.64.077c-.423 0-.788-.08-1.095-.24a1.744 1.744 0 01-.72-.692c-.167-.307-.25-.67-.25-1.086v-1.402c0-.423.083-.785.25-1.086.172-.3.412-.531.72-.691.307-.16.672-.24 1.095-.24.423 0 .788.08 1.095.24.307.16.544.39.711.691.173.301.259.66.259 1.076v1.412c0 .417-.086.779-.259 1.086a1.689 1.689 0 01-.711.692c-.307.16-.672.24-1.095.24zm0-.769c.378 0 .672-.105.884-.317.211-.211.317-.522.317-.932v-1.402c0-.41-.106-.72-.317-.932-.212-.211-.506-.317-.884-.317-.372 0-.666.106-.884.317-.211.211-.317.522-.317.932v1.402c0 .41.106.72.317.932.218.212.512.317.884.317zm3.711.692v-5.284h.864v2.2h2.229v-2.2h.865V69h-.865v-2.296h-2.229V69h-.864zm7.236 0v-4.525h-1.921v-.759h4.707v.76h-1.922V69h-.864zm6.122.096a2.3 2.3 0 01-1.095-.25 1.806 1.806 0 01-.721-.701 2.21 2.21 0 01-.25-1.066v-1.441c0-.41.084-.766.25-1.067.173-.3.413-.534.721-.701a2.3 2.3 0 011.095-.25c.416 0 .778.084 1.085.25.314.167.554.4.721.701.173.301.259.657.259 1.067v.931h-3.285v.51c0 .416.105.736.317.96.211.218.512.327.903.327.333 0 .602-.058.807-.173a.76.76 0 00.374-.538h.865a1.472 1.472 0 01-.653 1.057c-.372.256-.836.384-1.393.384zm1.22-3.103v-.355c0-.417-.106-.737-.317-.961-.205-.224-.506-.336-.903-.336-.391 0-.692.112-.903.336-.212.224-.317.544-.317.96v.28h2.507l-.067.076zM119.938 69v-5.284h.864v2.2h2.229v-2.2h.864V69h-.864v-2.296h-2.229V69h-.864zm7.236 0v-4.525h-1.922v-.759h4.708v.76h-1.922V69h-.864zm6.122.096a2.3 2.3 0 01-1.095-.25 1.806 1.806 0 01-.721-.701 2.21 2.21 0 01-.25-1.066v-1.441c0-.41.084-.766.25-1.067.173-.3.413-.534.721-.701a2.3 2.3 0 011.095-.25c.416 0 .778.084 1.085.25.314.167.554.4.721.701.173.301.259.657.259 1.067v.931h-3.285v.51c0 .416.105.736.317.96.211.218.512.327.903.327.333 0 .602-.058.807-.173a.76.76 0 00.374-.538h.865a1.472 1.472 0 01-.653 1.057c-.372.256-.836.384-1.393.384zm1.22-3.103v-.355c0-.417-.106-.737-.317-.961-.205-.224-.506-.336-.903-.336-.391 0-.692.112-.903.336-.212.224-.317.544-.317.96v.28h2.507l-.067.076zM28.903 88v-5.284h.826v2.882c0 .186-.006.381-.019.586-.006.205-.02.4-.038.586-.013.18-.03.333-.049.462l2.133-4.516h1.105V88h-.826v-2.882c0-.186.003-.381.01-.586.012-.205.028-.4.047-.586l.049-.47L30.008 88h-1.105zm11.38 0v-5.284h3.957V88h-.864v-4.496h-2.229V88h-.865zm5.67 1.73v-7.014h.864v1.009h.173l-.173.202c0-.404.132-.72.394-.951.27-.237.622-.356 1.057-.356.532 0 .954.176 1.268.529.32.345.48.823.48 1.431v1.547c0 .403-.073.752-.22 1.047a1.573 1.573 0 01-.606.682c-.256.16-.563.24-.922.24-.43 0-.778-.118-1.047-.355-.27-.237-.404-.554-.404-.951l.173.201h-.192l.02 1.201v1.537h-.865zm2.027-2.383c.365 0 .65-.11.855-.327.211-.218.317-.531.317-.941v-1.441c0-.41-.106-.724-.317-.942-.205-.218-.49-.326-.855-.326-.352 0-.634.112-.846.336-.21.224-.317.535-.317.932v1.44c0 .398.106.708.317.932.212.225.494.337.846.337zm3.682.653v-5.284h.826v2.882c0 .186-.007.381-.02.586-.006.205-.019.4-.038.586a6.1 6.1 0 01-.048.462l2.133-4.516h1.105V88h-.826v-2.882c0-.186.003-.381.01-.586.012-.205.028-.4.047-.586l.048-.47L52.766 88h-1.104zm7.419.067c-.558 0-1.016-.118-1.374-.355a1.412 1.412 0 01-.634-.96h.912c.045.16.164.29.356.393.198.103.445.154.74.154h.451c.314 0 .557-.074.73-.221a.71.71 0 00.27-.577c0-.256-.087-.458-.26-.605-.167-.147-.413-.22-.74-.22H58.37v-.75h1.133c.295 0 .519-.07.673-.212a.72.72 0 00.23-.557.728.728 0 00-.105-.403.611.611 0 00-.298-.25 1.243 1.243 0 00-.49-.086h-.48a1.23 1.23 0 00-.663.172c-.186.116-.298.257-.337.423h-.912c.064-.397.272-.724.624-.98s.782-.384 1.288-.384h.48c.378 0 .701.06.97.183a1.321 1.321 0 01.835 1.277c0 .314-.102.574-.306.778-.206.199-.494.311-.865.337v.038c.455.032.784.154.99.365.204.212.307.516.307.913 0 .467-.173.839-.519 1.114-.346.276-.81.413-1.393.413h-.451zm3.68-.067v-5.284h.807v1.94h.433c.57 0 1.018.151 1.345.452.333.295.5.702.5 1.22 0 .52-.167.93-.5 1.23-.327.295-.775.442-1.345.442h-1.24zm.807-.692h.433c.34 0 .602-.086.787-.26.192-.172.289-.412.289-.72 0-.307-.097-.547-.289-.72-.185-.173-.448-.26-.787-.26h-.433v1.96zM66.47 88v-5.284h.806V88h-.806zm2.26 0v-5.284h2.286c.55 0 .977.125 1.278.375.3.243.451.586.451 1.028 0 .365-.125.66-.374.884-.25.217-.58.326-.99.326v-.076c.448 0 .807.112 1.076.336.275.224.413.525.413.903 0 .474-.16.845-.48 1.114-.32.263-.769.394-1.345.394H68.73zm.845-.759h1.47c.307 0 .544-.067.71-.202.174-.134.26-.323.26-.567 0-.25-.086-.441-.26-.576-.166-.134-.403-.202-.71-.202h-1.47v1.547zm0-2.296h1.441c.269 0 .48-.064.634-.192.16-.128.24-.308.24-.538 0-.23-.077-.41-.23-.538-.154-.135-.369-.202-.644-.202h-1.441v1.47zm6.362 3.151c-.557 0-.996-.14-1.316-.423-.32-.288-.48-.675-.48-1.162 0-.493.16-.88.48-1.162.32-.282.752-.423 1.297-.423h1.633v-.529c0-.326-.1-.576-.298-.749-.192-.18-.467-.269-.826-.269-.314 0-.576.067-.788.202a.718.718 0 00-.365.528h-.864c.057-.454.272-.816.643-1.085.372-.27.836-.404 1.393-.404.609 0 1.09.157 1.441.471.353.314.529.74.529 1.278V88h-.846v-1.009h-.144l.144-.144c0 .385-.15.689-.451.913-.295.224-.689.336-1.182.336zm.212-.682c.41 0 .746-.103 1.008-.307a.957.957 0 00.394-.788v-.75h-1.614c-.288 0-.515.08-.682.24-.166.16-.25.379-.25.654 0 .294.1.528.298.701.205.167.487.25.846.25zm3.537.586l1.874-2.719-1.759-2.565h1.019l1.047 1.633c.045.07.086.148.125.231.045.083.08.15.106.202.019-.051.048-.119.086-.202a3.6 3.6 0 01.135-.23l1.056-1.634h1.009l-1.758 2.575L84.49 88h-1.019l-1.133-1.73a2.69 2.69 0 01-.135-.24 2.08 2.08 0 00-.105-.23 3.747 3.747 0 01-.26.47L80.696 88h-1.009zm11.831 0v-5.284h.865v2.181h.903l1.537-2.18h.99l-1.778 2.516L95.841 88h-1.009l-1.537-2.354h-.912V88h-.865zm10.736 1.345V87.26h.432c.109-.109.221-.323.336-.643.122-.32.186-.727.192-1.22l.058-2.68h3.449v4.543h.672v2.085h-.768V88h-3.603v1.345h-.768zm1.345-2.085h2.257v-3.775h-1.767l-.039 1.93c-.006.507-.061.917-.163 1.23-.103.314-.199.52-.288.615zm6.938.836c-.416 0-.781-.083-1.095-.25a1.803 1.803 0 01-.72-.701 2.199 2.199 0 01-.25-1.066v-1.441c0-.41.083-.766.25-1.067.172-.3.413-.534.72-.701a2.31 2.31 0 011.095-.25c.416 0 .778.084 1.086.25.314.166.554.4.72.701.173.301.26.657.26 1.067v.931h-3.286v.51c0 .416.106.736.317.96.212.218.513.327.903.327.333 0 .602-.058.807-.173a.764.764 0 00.375-.538h.864a1.469 1.469 0 01-.653 1.057c-.371.256-.836.384-1.393.384zm1.22-3.103v-.355c0-.417-.105-.737-.317-.961-.205-.224-.506-.336-.903-.336-.39 0-.691.112-.903.336-.211.224-.317.544-.317.96v.28h2.507l-.067.076zM114.248 88v-5.284h.826v2.882c0 .186-.006.381-.019.586-.007.205-.019.4-.039.586-.012.18-.028.333-.048.462l2.133-4.516h1.105V88h-.826v-2.882c0-.186.003-.381.009-.586.013-.205.029-.4.048-.586l.048-.47L115.353 88h-1.105zm2.017-6.148c-.461 0-.832-.128-1.114-.385-.282-.256-.423-.592-.423-1.008h.682c0 .25.077.451.231.605.154.154.358.23.615.23.262 0 .47-.076.624-.23a.8.8 0 00.24-.605h.682c0 .416-.141.752-.422 1.008-.282.257-.654.385-1.115.385zm5.671 6.244c-.423 0-.794-.08-1.115-.24a1.735 1.735 0 01-.73-.692c-.173-.307-.259-.67-.259-1.085v-1.441c0-.423.086-.785.259-1.086.173-.3.417-.532.73-.692.321-.16.692-.24 1.115-.24.608 0 1.098.163 1.47.49.371.327.566.772.586 1.335h-.865c-.019-.339-.135-.598-.346-.778-.205-.185-.487-.278-.845-.278-.378 0-.679.109-.903.326-.224.212-.337.516-.337.913v1.45c0 .398.113.705.337.923.224.218.525.326.903.326.358 0 .64-.092.845-.278.211-.186.327-.445.346-.778h.865c-.02.563-.215 1.008-.586 1.335-.372.327-.862.49-1.47.49zm5.238-.096v-4.525h-1.922v-.759h4.708v.76h-1.922V88h-.864zm4.143 0v-5.284h2.286c.551 0 .977.125 1.278.375.301.243.451.586.451 1.028 0 .365-.124.66-.374.884-.25.217-.58.326-.99.326v-.076c.449 0 .807.112 1.076.336.276.224.413.525.413.903 0 .474-.16.845-.48 1.114-.32.263-.769.394-1.345.394h-2.315zm.845-.759h1.47c.307 0 .544-.067.711-.202.173-.134.259-.323.259-.567 0-.25-.086-.441-.259-.576-.167-.134-.404-.202-.711-.202h-1.47v1.547zm0-2.296h1.441c.269 0 .481-.064.634-.192.16-.128.24-.308.24-.538 0-.23-.076-.41-.23-.538-.154-.135-.368-.202-.644-.202h-1.441v1.47zM137.006 88v-5.284h.827v2.882c0 .186-.007.381-.02.586a8.08 8.08 0 01-.038.586 6.36 6.36 0 01-.048.462l2.133-4.516h1.104V88h-.826v-2.882c0-.186.003-.381.01-.586.013-.205.029-.4.048-.586l.048-.47L138.111 88h-1.105zm8.495.096c-.442 0-.797-.15-1.066-.451-.269-.301-.404-.695-.404-1.182v-.797h-.845V88h-.797v-5.284h.797v2.258h.845v-.72c0-.494.132-.888.394-1.182.269-.301.628-.452 1.076-.452.474 0 .855.15 1.143.452.289.294.433.688.433 1.181v2.21c0 .487-.144.88-.433 1.182-.288.3-.669.451-1.143.451zm0-.672c.244 0 .433-.084.567-.25.141-.173.211-.41.211-.711v-2.21c0-.3-.07-.534-.211-.7-.134-.174-.323-.26-.567-.26a.667.667 0 00-.557.26c-.134.166-.202.4-.202.7v2.21c0 .3.068.538.202.71.135.167.32.25.557.25zm4.864.672c-.244 0-.439-.07-.586-.211-.141-.141-.212-.33-.212-.567 0-.25.071-.448.212-.596.147-.147.342-.22.586-.22.243 0 .435.073.576.22.147.148.221.346.221.596 0 .237-.074.426-.221.567-.141.14-.333.211-.576.211z" fill="#000"/><defs><filter id="filter0_d_441_1186" x=".157" y="0" width="179.685" height="144.685" filterUnits="userSpaceOnUse" color-interpolation-filters="sRGB"><feFlood flood-opacity="0" result="BackgroundImageFix"/><feColorMatrix in="SourceAlpha" values="0 0 0 0 0 0 0 0 0 0 0 0 0 0 0 0 0 0 127 0" result="hardAlpha"/><feOffset dy="3.843"/><feGaussianBlur stdDeviation="1.921"/><feComposite in2="hardAlpha" operator="out"/><feColorMatrix values="0 0 0 0 0 0 0 0 0 0 0 0 0 0 0 0 0 0 0.25 0"/><feBlend in2="BackgroundImageFix" result="effect1_dropShadow_441_1186"/><feBlend in="SourceGraphic" in2="effect1_dropShadow_441_1186" result="shape"/></filter></defs></svg>