<svg width="180" height="145" fill="none" xmlns="http://www.w3.org/2000/svg"><g filter="url(#filter0_d_441_1227)"><rect x="4" width="172" height="137" rx="16.011" fill="#F8EEDA"/></g><path d="M14.893 61v-7.013h1.989c.64 0 1.14.16 1.499.48.365.32.547.766.547 1.336 0 .32-.067.599-.201.836a1.36 1.36 0 01-.577.547c-.243.128-.538.19-.884.183v-.144c.372-.007.692.064.961.21.275.148.487.36.634.635.154.275.23.602.23.98 0 .397-.083.743-.25 1.037a1.699 1.699 0 01-.71.682c-.308.154-.676.231-1.105.231h-2.133zm.846-.778h1.191c.404 0 .72-.106.951-.317.237-.218.356-.513.356-.884 0-.384-.119-.695-.356-.932-.23-.243-.547-.365-.95-.365h-1.192v2.498zm0-3.247h1.133c.372 0 .663-.1.875-.298.217-.199.326-.468.326-.807 0-.34-.105-.608-.317-.807-.211-.199-.503-.298-.874-.298h-1.143v2.21zM20.593 61v-5.284h.864v2.2h2.23v-2.2h.864V61h-.865v-2.296h-2.229V61h-.864zm7.668.096c-.416 0-.781-.083-1.095-.25a1.807 1.807 0 01-.72-.701 2.203 2.203 0 01-.25-1.066v-1.441c0-.41.083-.766.25-1.067.173-.3.413-.535.72-.701a2.31 2.31 0 011.095-.25c.417 0 .779.084 1.086.25.314.166.554.4.72.701.173.301.26.657.26 1.067v.931H27.04v.51c0 .416.106.736.317.96.212.218.513.327.903.327.333 0 .602-.058.807-.173a.764.764 0 00.375-.538h.865a1.472 1.472 0 01-.654 1.057c-.371.256-.835.384-1.393.384zm1.22-3.103v-.355c0-.417-.105-.737-.317-.961-.205-.224-.506-.336-.903-.336-.39 0-.691.112-.903.336-.211.224-.317.544-.317.96v.28h2.508l-.068.076zm4.49 3.103c-.423 0-.795-.08-1.115-.24a1.73 1.73 0 01-.73-.692c-.173-.307-.26-.67-.26-1.085v-1.441c0-.423.087-.785.26-1.086a1.73 1.73 0 01.73-.692c.32-.16.691-.24 1.114-.24.609 0 1.099.163 1.47.49.372.327.567.772.586 1.336h-.865c-.019-.34-.134-.6-.345-.779-.205-.185-.487-.278-.846-.278-.378 0-.679.109-.903.326-.224.212-.336.516-.336.913v1.45c0 .398.112.705.336.923.224.218.525.327.903.327.359 0 .64-.093.846-.28.21-.185.326-.444.345-.777h.865c-.02.563-.215 1.008-.586 1.335-.371.327-.861.49-1.47.49zm3.028-.029v-.807h.173c.294 0 .5-.115.614-.346.122-.23.186-.643.193-1.239l.057-2.959h3.584V61h-.865v-4.496h-1.864l-.048 2.21c-.013.557-.077 1.008-.192 1.354-.109.346-.282.599-.519.76-.23.16-.534.24-.912.24h-.221zM43.35 61v-5.284h.827v2.882c0 .186-.007.381-.02.586-.006.205-.019.4-.038.586a6.1 6.1 0 01-.048.461l2.133-4.515h1.104V61h-.826v-2.882c0-.186.003-.381.01-.586.012-.205.029-.4.048-.586l.048-.47L44.456 61h-1.105zm11.38 0v-5.284h.826v2.882c0 .186-.007.381-.02.586-.006.205-.019.4-.038.586-.013.18-.029.333-.048.461l2.133-4.515h1.105V61h-.827v-2.882c0-.186.004-.381.01-.586.013-.205.029-.4.048-.586l.048-.47L55.835 61h-1.104zm7.419.067c-.558 0-1.016-.118-1.374-.355a1.412 1.412 0 01-.634-.96h.912c.045.16.164.29.356.393.198.102.445.154.74.154h.451c.314 0 .557-.074.73-.221a.71.71 0 00.27-.577c0-.256-.087-.458-.26-.605-.167-.147-.413-.22-.74-.22h-1.162v-.75h1.133c.295 0 .519-.07.673-.212a.72.72 0 00.23-.557.727.727 0 00-.105-.403.61.61 0 00-.298-.25 1.243 1.243 0 00-.49-.086h-.48a1.23 1.23 0 00-.663.172c-.186.116-.298.257-.337.423h-.912c.064-.397.272-.724.624-.98s.782-.384 1.288-.384h.48c.378 0 .701.06.97.183a1.321 1.321 0 01.835 1.277c0 .314-.102.573-.307.778-.204.199-.493.311-.864.337v.038c.455.032.784.154.99.365.204.212.307.516.307.913 0 .467-.173.839-.519 1.114-.346.276-.81.413-1.393.413h-.451zM65.937 61v-5.284h1.172l.692 2.027c.07.205.134.41.192.615.058.199.1.352.125.461.025-.109.064-.262.115-.46.058-.206.118-.414.182-.625l.654-2.018h1.172V61h-.836v-.817c0-.288.003-.602.01-.941l.019-1.028.038-.98c.013-.314.023-.59.03-.826l-.942 3.007h-.913l-.951-2.988c.013.288.022.647.029 1.076.013.43.022.878.029 1.345.012.468.019.913.019 1.335V61h-.836zm7.842.096c-.417 0-.782-.083-1.096-.25a1.807 1.807 0 01-.72-.701 2.204 2.204 0 01-.25-1.066v-1.441c0-.41.083-.766.25-1.067.173-.3.413-.535.72-.701.314-.166.68-.25 1.096-.25.416 0 .778.084 1.085.25.314.166.554.4.72.701.174.301.26.657.26 1.067v.931h-3.285v.51c0 .416.105.736.317.96.21.218.512.327.903.327.333 0 .602-.058.806-.173a.763.763 0 00.375-.538h.865a1.472 1.472 0 01-.654 1.057c-.37.256-.835.384-1.392.384zm1.22-3.103v-.355c0-.417-.106-.737-.317-.961-.205-.224-.506-.336-.903-.336-.391 0-.692.112-.903.336-.212.224-.318.544-.318.96v.28h2.508l-.067.076zM77.489 61v-5.284h.865v2.2h2.229v-2.2h.864V61h-.864v-2.296h-2.23V61h-.864zm7.669.096c-.416 0-.782-.083-1.095-.25a1.807 1.807 0 01-.72-.701 2.204 2.204 0 01-.25-1.066v-1.441c0-.41.083-.766.25-1.067a1.8 1.8 0 01.72-.701c.313-.166.679-.25 1.095-.25.416 0 .778.084 1.085.25.314.166.554.4.72.701.174.301.26.657.26 1.067v.931h-3.285v.51c0 .416.105.736.317.96.211.218.512.327.903.327.333 0 .602-.058.807-.173a.763.763 0 00.374-.538h.865a1.472 1.472 0 01-.653 1.057c-.372.256-.836.384-1.393.384zm1.22-3.103v-.355c0-.417-.106-.737-.317-.961-.205-.224-.506-.336-.903-.336-.39 0-.692.112-.903.336-.212.224-.317.544-.317.96v.28h2.507l-.067.076zM88.868 61v-5.284h.865v2.2h2.229v-2.2h.864V61h-.864v-2.296h-2.229V61h-.865zm5.69 0v-5.284h.826v2.882c0 .186-.006.381-.019.586-.006.205-.019.4-.038.586a6.1 6.1 0 01-.048.461l2.132-4.515h1.105V61h-.826v-2.882c0-.186.003-.381.01-.586.012-.205.028-.4.048-.586l.048-.47L95.663 61h-1.105zm5.363 0l1.355-2.037c-.404-.096-.718-.281-.942-.557-.217-.275-.326-.618-.326-1.028 0-.519.169-.925.509-1.22.346-.294.816-.442 1.412-.442h2.277V61h-.865v-1.97h-1.162L100.93 61h-1.009zm2.008-2.738h1.412v-1.777h-1.412c-.32 0-.573.08-.759.24-.186.154-.278.371-.278.653 0 .276.092.493.278.654.186.153.439.23.759.23zM111.627 61v-5.284h.865v2.2h2.229v-2.2h.864V61h-.864v-2.296h-2.229V61h-.865zm7.208.096c-.558 0-.996-.14-1.316-.423-.321-.288-.481-.675-.481-1.162 0-.493.16-.88.481-1.163.32-.281.752-.422 1.296-.422h1.634v-.529c0-.326-.1-.576-.298-.749-.192-.18-.468-.269-.826-.269-.314 0-.577.067-.788.202a.718.718 0 00-.365.528h-.865c.058-.454.272-.816.644-1.085.371-.27.836-.404 1.393-.404.608 0 1.089.157 1.441.471.352.314.528.74.528 1.278V61h-.845v-1.009h-.144l.144-.144c0 .384-.151.689-.452.913-.294.224-.688.336-1.181.336zm.211-.682c.41 0 .746-.102 1.009-.307a.958.958 0 00.394-.788v-.75h-1.614c-.289 0-.516.08-.682.24-.167.16-.25.379-.25.654 0 .294.099.528.298.701.205.167.486.25.845.25zm11.629.663c-.423 0-.788-.08-1.095-.24a1.748 1.748 0 01-.721-.692c-.166-.307-.249-.67-.249-1.086v-1.402c0-.423.083-.785.249-1.086.173-.3.414-.531.721-.691.307-.16.672-.24 1.095-.24.423 0 .788.08 1.095.24.308.16.545.39.711.691.173.301.26.66.26 1.076v1.412c0 .417-.087.779-.26 1.086a1.677 1.677 0 01-.711.692c-.307.16-.672.24-1.095.24zm0-.769c.378 0 .673-.105.884-.317.211-.211.317-.522.317-.932v-1.402c0-.41-.106-.72-.317-.932-.211-.211-.506-.317-.884-.317-.371 0-.666.106-.884.317-.211.211-.317.522-.317.932v1.402c0 .41.106.72.317.932.218.212.513.317.884.317zm5.709.788a2.46 2.46 0 01-1.114-.24 1.732 1.732 0 01-.731-.692c-.172-.307-.259-.67-.259-1.085v-1.441c0-.423.087-.785.259-1.086.173-.3.417-.532.731-.692.32-.16.691-.24 1.114-.24.608 0 1.098.163 1.47.49.371.327.567.772.586 1.336h-.865c-.019-.34-.134-.6-.346-.779-.205-.185-.486-.278-.845-.278-.378 0-.679.109-.903.326-.224.212-.336.516-.336.913v1.45c0 .398.112.705.336.923.224.218.525.327.903.327.359 0 .64-.093.845-.28.212-.185.327-.444.346-.777h.865c-.019.563-.215 1.008-.586 1.335-.372.327-.862.49-1.47.49zm3.691-.096v-5.284h.865v2.2h2.229v-2.2h.864V61h-.864v-2.296h-2.229V61h-.865zm7.669.077c-.423 0-.788-.08-1.095-.24a1.742 1.742 0 01-.721-.692c-.166-.307-.249-.67-.249-1.086v-1.402c0-.423.083-.785.249-1.086.173-.3.413-.531.721-.691.307-.16.672-.24 1.095-.24.423 0 .788.08 1.095.24.308.16.545.39.711.691.173.301.26.66.26 1.076v1.412c0 .417-.087.779-.26 1.086a1.677 1.677 0 01-.711.692c-.307.16-.672.24-1.095.24zm0-.769c.378 0 .673-.105.884-.317.211-.211.317-.522.317-.932v-1.402c0-.41-.106-.72-.317-.932-.211-.211-.506-.317-.884-.317-.371 0-.666.106-.884.317-.211.211-.317.522-.317.932v1.402c0 .41.106.72.317.932.218.212.513.317.884.317zm3.711.692v-5.284h2.286c.551 0 .977.125 1.278.375.301.243.451.586.451 1.028 0 .365-.125.66-.374.884-.25.217-.58.326-.99.326v-.077c.449 0 .807.113 1.076.337.276.224.413.525.413.903 0 .474-.16.845-.48 1.114-.32.263-.769.394-1.345.394h-2.315zm.845-.759h1.47c.307 0 .544-.067.711-.202.173-.134.259-.323.259-.567 0-.25-.086-.441-.259-.576-.167-.134-.404-.202-.711-.202h-1.47v1.547zm0-2.296h1.441c.269 0 .48-.064.634-.192.16-.128.24-.307.24-.538 0-.23-.076-.41-.23-.538-.154-.135-.368-.202-.644-.202H152.3v1.47zm6.823 3.151c-.416 0-.781-.083-1.095-.25a1.81 1.81 0 01-.72-.701 2.199 2.199 0 01-.25-1.066v-1.441c0-.41.083-.766.25-1.067a1.81 1.81 0 01.72-.701 2.31 2.31 0 011.095-.25c.417 0 .779.084 1.086.25.314.166.554.4.72.701.173.301.26.657.26 1.067v.931h-3.286v.51c0 .416.106.736.317.96.212.218.513.327.903.327.333 0 .602-.058.807-.173a.764.764 0 00.375-.538h.865a1.473 1.473 0 01-.654 1.057c-.371.256-.835.384-1.393.384zm1.22-3.103v-.355c0-.417-.105-.737-.317-.961-.205-.224-.506-.336-.903-.336-.39 0-.691.112-.903.336-.211.224-.317.544-.317.96v.28h2.508l-.068.076zM14.883 81.73v-7.013h.865v1.009h.173l-.173.202c0-.404.132-.72.394-.951.27-.237.622-.356 1.057-.356.532 0 .954.176 1.268.529.32.345.48.823.48 1.431v1.547c0 .403-.073.752-.22 1.047a1.57 1.57 0 01-.606.682c-.256.16-.563.24-.922.24-.43 0-.778-.118-1.047-.355-.27-.237-.404-.554-.404-.951l.173.201h-.192l.02 1.201v1.537h-.865zm2.028-2.382c.365 0 .65-.11.855-.327.211-.218.317-.531.317-.941v-1.441c0-.41-.106-.724-.317-.942-.205-.218-.49-.326-.855-.326-.352 0-.634.112-.846.336-.21.224-.317.535-.317.932v1.44c0 .398.106.708.317.932.212.225.494.337.846.337zm5.66.75c-.416 0-.78-.084-1.095-.25a1.807 1.807 0 01-.72-.702 2.204 2.204 0 01-.25-1.066v-1.441c0-.41.084-.766.25-1.067.173-.3.413-.534.72-.701.314-.166.68-.25 1.096-.25.416 0 .778.084 1.085.25.314.166.554.4.72.701.174.301.26.657.26 1.067v.931h-3.285v.51c0 .416.105.736.317.96.211.218.512.327.903.327.333 0 .602-.058.807-.173a.763.763 0 00.374-.538h.865a1.472 1.472 0 01-.653 1.057c-.372.256-.836.384-1.393.384zm1.22-3.104v-.355c0-.417-.105-.737-.316-.961-.205-.224-.506-.336-.903-.336-.391 0-.692.112-.903.336-.212.224-.317.544-.317.96v.28h2.507l-.067.076zm4.22 3.074c-.557 0-1.015-.118-1.373-.355a1.412 1.412 0 01-.634-.96h.912c.045.16.164.29.356.393.198.103.445.154.74.154h.451c.314 0 .557-.074.73-.221a.71.71 0 00.27-.577c0-.256-.087-.458-.26-.605-.167-.147-.413-.22-.74-.22h-1.162v-.75h1.133c.295 0 .519-.07.673-.212a.72.72 0 00.23-.557.727.727 0 00-.105-.403.61.61 0 00-.298-.25 1.243 1.243 0 00-.49-.086h-.48a1.23 1.23 0 00-.663.172c-.186.116-.298.257-.337.423h-.912c.064-.397.272-.724.624-.98.353-.256.782-.384 1.288-.384h.48c.378 0 .701.06.97.183a1.321 1.321 0 01.835 1.277c0 .314-.101.574-.306.778-.205.199-.494.311-.865.337v.038c.455.032.785.154.99.365.204.212.307.516.307.913 0 .467-.173.839-.519 1.114-.346.276-.81.413-1.393.413h-.451zm4.768 1.662l.778-2.056-1.96-4.957h.961l1.23 3.267a2.9 2.9 0 01.125.393l.096.375c.025-.102.057-.227.096-.375.038-.153.077-.285.115-.393l1.153-3.267h.932L33.7 81.73h-.922zm4.22-1.662v-.807h.173c.294 0 .5-.115.614-.346.122-.23.186-.643.193-1.239l.057-2.959h3.584V80h-.865v-4.496h-1.864l-.048 2.21c-.013.557-.077 1.008-.192 1.354-.109.346-.282.599-.519.76-.23.16-.534.24-.912.24h-.221zm6.39-.067v-5.284h.865v1.94h1.557c.595 0 1.063.151 1.402.452.346.295.519.702.519 1.22 0 .513-.173.92-.519 1.22-.346.302-.813.452-1.402.452H43.39zm.865-.788h1.557c.333 0 .586-.073.759-.22.179-.154.269-.375.269-.664 0-.288-.09-.505-.27-.653-.172-.153-.425-.23-.758-.23h-1.557v1.767zm6.334.788v-4.525h-1.922v-.759h4.708v.76h-1.922V80h-.864zm5.66.096c-.557 0-.995-.14-1.316-.423-.32-.288-.48-.675-.48-1.162 0-.493.16-.88.48-1.162.32-.282.753-.423 1.297-.423h1.633v-.529c0-.326-.099-.576-.297-.749-.192-.18-.468-.269-.827-.269-.313 0-.576.067-.787.202a.717.717 0 00-.365.528h-.865c.058-.454.272-.816.644-1.085.371-.27.835-.404 1.393-.404.608 0 1.088.157 1.44.471.353.314.529.74.529 1.278V80h-.845v-1.009h-.145l.145-.144c0 .385-.15.689-.452.913-.294.224-.688.336-1.181.336zm.212-.682c.41 0 .746-.103 1.008-.307a.957.957 0 00.394-.788v-.75h-1.614c-.288 0-.515.08-.682.24-.166.16-.25.379-.25.654 0 .294.1.528.298.701.205.167.487.25.846.25zm5.507.586v-4.525h-1.921v-.759h4.707v.76h-1.921V80h-.865zm6.122.077c-.423 0-.788-.08-1.095-.24a1.744 1.744 0 01-.72-.692c-.167-.307-.25-.67-.25-1.086v-1.402c0-.423.083-.785.25-1.086.172-.3.412-.531.72-.691.307-.16.672-.24 1.095-.24.423 0 .788.08 1.095.24.308.16.544.39.711.691.173.301.26.66.26 1.076v1.412c0 .417-.087.779-.26 1.086a1.683 1.683 0 01-.71.692c-.308.16-.673.24-1.096.24zm0-.769c.378 0 .672-.105.884-.317.211-.211.317-.522.317-.932v-1.402c0-.41-.106-.72-.317-.932-.212-.211-.506-.317-.884-.317-.371 0-.666.106-.884.317-.211.211-.317.522-.317.932v1.402c0 .41.106.72.317.932.218.212.513.317.884.317zm3.71.692v-5.284h2.287c.55 0 .977.125 1.278.375.3.243.451.586.451 1.028 0 .365-.125.66-.374.884-.25.217-.58.326-.99.326v-.076c.448 0 .807.112 1.076.336.275.224.413.525.413.903 0 .474-.16.845-.48 1.114-.32.263-.769.394-1.345.394H71.8zm.846-.759h1.47c.307 0 .544-.067.71-.202.174-.134.26-.323.26-.567 0-.25-.086-.441-.26-.576-.166-.134-.403-.202-.71-.202h-1.47v1.547zm0-2.296h1.441c.269 0 .48-.064.634-.192.16-.128.24-.308.24-.538 0-.23-.077-.41-.23-.538-.154-.135-.369-.202-.644-.202h-1.441v1.47zm12.551 3.151c-.422 0-.79-.08-1.105-.24a1.744 1.744 0 01-.72-.692c-.166-.307-.25-.67-.25-1.085v-3.17c0-.423.084-.785.25-1.086.173-.301.413-.532.72-.692.314-.16.683-.24 1.105-.24.423 0 .788.083 1.096.25.307.16.544.39.71.691.167.302.25.66.25 1.076h-.864c0-.397-.106-.7-.318-.912-.204-.218-.496-.327-.874-.327s-.675.106-.893.317c-.212.212-.317.516-.317.913v3.18c0 .397.105.704.317.922.218.211.515.317.893.317s.67-.106.874-.317c.212-.218.318-.525.318-.922h.864c0 .41-.083.768-.25 1.076a1.744 1.744 0 01-.71.7c-.308.161-.673.241-1.096.241zm5.642 0c-.608 0-1.095-.18-1.46-.538-.365-.365-.548-.858-.548-1.48v-3.362h.865v3.363c0 .397.102.707.307.931.205.218.484.327.836.327.359 0 .64-.109.845-.327.212-.224.317-.534.317-.931v-3.363h.865v3.363c0 .62-.186 1.114-.557 1.48-.372.358-.862.537-1.47.537zm5.536-.02c-.359 0-.673-.054-.942-.162a1.605 1.605 0 01-.634-.48 1.468 1.468 0 01-.278-.73h.864a.677.677 0 00.308.441c.173.109.4.163.682.163h.403c.34 0 .593-.067.76-.201a.694.694 0 00.25-.558.65.65 0 00-.232-.528c-.147-.135-.368-.224-.662-.269l-.711-.115c-.519-.09-.907-.25-1.163-.48-.25-.238-.374-.58-.374-1.028 0-.474.15-.84.451-1.096.301-.262.753-.394 1.355-.394h.365c.506 0 .912.119 1.22.356.307.237.493.557.557.96h-.865a.615.615 0 00-.288-.393c-.153-.103-.362-.154-.624-.154h-.365c-.327 0-.567.06-.72.183-.148.121-.222.304-.222.547 0 .218.064.378.192.48.129.103.33.177.606.221l.71.116c.57.09.984.256 1.24.5.262.243.394.595.394 1.056 0 .487-.157.871-.471 1.153-.308.275-.775.413-1.403.413h-.403zm6.429-.076c-.454 0-.81-.122-1.066-.365-.25-.243-.375-.586-.375-1.028v-3.103h-1.489v-.788h1.489v-1.489h.865v1.49h2.113v.787h-2.113v3.103c0 .403.192.605.576.605h1.441V80h-1.441zm3.115 0v-7.013h1.816c.455 0 .845.087 1.172.26.333.172.589.416.769.73.185.313.278.685.278 1.114v2.796c0 .429-.093.803-.278 1.123-.18.314-.436.558-.769.73-.327.174-.717.26-1.172.26h-1.816zm.865-.769h.951c.423 0 .752-.118.989-.355.244-.237.366-.567.366-.99v-2.795c0-.416-.122-.743-.366-.98-.237-.237-.566-.355-.989-.355h-.951v5.475zm6.823.865c-.416 0-.781-.083-1.095-.25a1.812 1.812 0 01-.721-.701 2.21 2.21 0 01-.249-1.066v-1.441c0-.41.083-.766.249-1.067.173-.3.414-.534.721-.701a2.31 2.31 0 011.095-.25c.416 0 .778.084 1.086.25.314.166.554.4.72.701.173.301.26.657.26 1.067v.931h-3.286v.51c0 .416.106.736.317.96.211.218.512.327.903.327.333 0 .602-.058.807-.173a.764.764 0 00.375-.538h.864a1.469 1.469 0 01-.653 1.057c-.371.256-.836.384-1.393.384zm1.22-3.103v-.355c0-.417-.105-.737-.317-.961-.205-.224-.506-.336-.903-.336-.391 0-.692.112-.903.336-.211.224-.317.544-.317.96v.28h2.507l-.067.076zM118.71 80l-1.768-5.284h.884l1.172 3.555a18.098 18.098 0 01.317 1.066l.135-.451c.057-.199.118-.404.182-.615l1.143-3.555h.874L119.882 80h-1.172zm6.275.096c-.243 0-.438-.07-.586-.211-.14-.141-.211-.33-.211-.567 0-.25.071-.448.211-.596.148-.147.343-.22.586-.22.244 0 .436.073.577.22.147.148.221.346.221.596 0 .237-.074.426-.221.567-.141.14-.333.211-.577.211z" fill="#000"/><defs><filter id="filter0_d_441_1227" x=".157" y="0" width="179.685" height="144.685" filterUnits="userSpaceOnUse" color-interpolation-filters="sRGB"><feFlood flood-opacity="0" result="BackgroundImageFix"/><feColorMatrix in="SourceAlpha" values="0 0 0 0 0 0 0 0 0 0 0 0 0 0 0 0 0 0 127 0" result="hardAlpha"/><feOffset dy="3.843"/><feGaussianBlur stdDeviation="1.921"/><feComposite in2="hardAlpha" operator="out"/><feColorMatrix values="0 0 0 0 0 0 0 0 0 0 0 0 0 0 0 0 0 0 0.25 0"/><feBlend in2="BackgroundImageFix" result="effect1_dropShadow_441_1227"/><feBlend in="SourceGraphic" in2="effect1_dropShadow_441_1227" result="shape"/></filter></defs></svg>