<svg width="180" height="145" fill="none" xmlns="http://www.w3.org/2000/svg"><g filter="url(#filter0_d_441_1230)"><rect x="4" width="172" height="137" rx="16.011" fill="#F8EEDA"/></g><path d="M11.903 50v-7.013h3.958V50h-.865v-6.225h-2.228V50h-.865zm7.669.077c-.423 0-.788-.08-1.095-.24a1.744 1.744 0 01-.721-.692c-.166-.307-.25-.67-.25-1.086v-1.402c0-.423.084-.785.25-1.086.173-.3.413-.531.72-.691.308-.16.673-.24 1.096-.24.422 0 .787.08 1.095.24.307.16.544.39.71.691.174.301.26.66.26 1.076v1.412c0 .417-.086.779-.26 1.086a1.683 1.683 0 01-.71.692c-.308.16-.673.24-1.095.24zm0-.769c.378 0 .672-.105.884-.317.21-.211.317-.522.317-.932v-1.402c0-.41-.106-.72-.317-.932-.212-.211-.506-.317-.884-.317-.372 0-.666.106-.884.317-.211.211-.317.522-.317.932v1.402c0 .41.106.72.317.932.218.212.512.317.884.317zm3.096 2.037V49.26h.432c.109-.109.22-.323.336-.643.122-.32.186-.727.192-1.22l.058-2.68h3.449v4.543h.672v2.085h-.768V50h-3.603v1.345h-.768zm1.345-2.085h2.257v-3.775h-1.768l-.038 1.93c-.006.507-.06.917-.163 1.23-.103.314-.199.52-.288.615zm7.995.74v-1.921c-.103.025-.26.05-.471.077a7.1 7.1 0 01-.653.028c-.654.007-1.163-.15-1.528-.47-.358-.327-.538-.782-.538-1.365v-1.633h.865v1.633c0 .327.109.586.326.779.225.185.532.278.923.278.269 0 .496-.01.682-.029a3.52 3.52 0 00.394-.067v-2.594h.864V50h-.864zm4.633.096c-.417 0-.782-.083-1.096-.25a1.807 1.807 0 01-.72-.701 2.204 2.204 0 01-.25-1.066v-1.441c0-.41.083-.766.25-1.067.173-.3.413-.535.72-.701.314-.166.68-.25 1.096-.25.416 0 .778.084 1.085.25.314.166.554.4.72.701.174.301.26.657.26 1.067v.931h-3.285v.51c0 .416.105.736.317.96.211.218.512.327.903.327.333 0 .602-.058.807-.173a.763.763 0 00.374-.538h.865a1.472 1.472 0 01-.653 1.057c-.372.256-.836.384-1.393.384zm1.22-3.103v-.355c0-.417-.106-.737-.317-.961-.205-.224-.506-.336-.903-.336-.391 0-.692.112-.903.336-.212.224-.317.544-.317.96v.28h2.507l-.067.076zm2.471 4.736v-7.013h.865v1.009h.173l-.173.202c0-.404.131-.72.394-.951.269-.237.62-.356 1.056-.356.532 0 .955.176 1.268.529.32.345.48.823.48 1.431v1.547c0 .403-.073.752-.22 1.047a1.577 1.577 0 01-.605.682c-.257.16-.564.24-.923.24-.429 0-.778-.118-1.047-.355-.269-.237-.403-.554-.403-.951l.173.201h-.192l.019 1.201v1.537h-.865zm2.027-2.382c.365 0 .65-.11.855-.327.212-.218.317-.532.317-.941v-1.441c0-.41-.105-.724-.317-.942-.205-.218-.49-.326-.855-.326-.352 0-.634.112-.845.336-.212.224-.317.535-.317.932v1.44c0 .398.105.708.317.932.211.225.493.337.845.337zm3.71.653v-5.284h.865v2.181h.903l1.537-2.18h.99l-1.777 2.516L50.393 50h-1.009l-1.537-2.354h-.913V50h-.864zm5.662 0v-5.284h.864v2.2h2.229v-2.2h.865V50h-.865v-2.296h-2.229V50h-.864zm6.496 1.73l.778-2.057-1.96-4.957h.961l1.23 3.267c.045.109.086.24.125.394l.096.374c.026-.102.057-.227.096-.374.038-.154.077-.285.115-.394l1.153-3.267h.932L59.15 51.73h-.923zm4.22-1.663v-.807h.173c.295 0 .5-.115.615-.346.121-.23.185-.643.192-1.239l.058-2.959h3.583V50h-.865v-4.496H64.34l-.048 2.21c-.013.557-.077 1.008-.193 1.354-.109.346-.281.599-.518.76-.23.16-.535.24-.913.24h-.22zM68.8 50v-5.284h.826v2.882c0 .186-.007.381-.02.586-.006.205-.019.4-.038.586a6.1 6.1 0 01-.048.461l2.133-4.515h1.105V50h-.827v-2.882c0-.186.004-.381.01-.586.013-.205.029-.4.048-.586l.048-.47L69.904 50H68.8zm15.135 1.345V50H80.18v-5.284h.864v4.515h2.076v-4.515h.864v4.515h.72v2.114h-.768zm3.912-1.249a2.3 2.3 0 01-1.095-.25 1.807 1.807 0 01-.72-.701 2.203 2.203 0 01-.25-1.066v-1.441c0-.41.083-.766.25-1.067.173-.3.413-.535.72-.701.314-.166.68-.25 1.096-.25.416 0 .778.084 1.085.25.314.166.554.4.72.701.173.301.26.657.26 1.067v.931h-3.285v.51c0 .416.105.736.317.96.21.218.512.327.903.327.333 0 .602-.058.806-.173a.764.764 0 00.375-.538h.865a1.472 1.472 0 01-.654 1.057c-.37.256-.835.384-1.392.384zm1.22-3.103v-.355c0-.417-.105-.737-.316-.961-.205-.224-.506-.336-.904-.336-.39 0-.691.112-.902.336-.212.224-.317.544-.317.96v.28h2.507l-.067.076zM91.559 50v-5.284h.865v2.2h2.229v-2.2h.864V50h-.864v-2.296h-2.23V50h-.864zm5.69 0v-5.284h.864v2.2h2.229v-2.2h.865V50h-.865v-2.296h-2.228V50h-.865zm7.668.077c-.422 0-.787-.08-1.095-.24a1.745 1.745 0 01-.72-.692c-.167-.307-.25-.67-.25-1.086v-1.402c0-.423.083-.785.25-1.086.173-.3.413-.531.72-.691.308-.16.673-.24 1.095-.24.423 0 .788.08 1.096.24.307.16.544.39.711.691.172.301.259.66.259 1.076v1.412c0 .417-.087.779-.259 1.086a1.689 1.689 0 01-.711.692c-.308.16-.673.24-1.096.24zm0-.769c.378 0 .673-.105.884-.317.212-.211.317-.522.317-.932v-1.402c0-.41-.105-.72-.317-.932-.211-.211-.506-.317-.884-.317-.371 0-.666.106-.883.317-.212.211-.317.522-.317.932v1.402c0 .41.105.72.317.932.217.212.512.317.883.317zm5.709.788a2.46 2.46 0 01-1.114-.24 1.73 1.73 0 01-.73-.692c-.173-.307-.26-.67-.26-1.085v-1.441c0-.423.087-.785.26-1.086a1.73 1.73 0 01.73-.692c.32-.16.692-.24 1.114-.24.609 0 1.099.163 1.47.49.372.327.567.772.586 1.336h-.864c-.02-.34-.135-.6-.346-.779-.205-.185-.487-.278-.846-.278-.378 0-.679.109-.903.326-.224.212-.336.516-.336.913v1.45c0 .398.112.705.336.923.224.218.525.327.903.327.359 0 .641-.093.846-.28.211-.185.326-.444.346-.777h.864c-.019.563-.214 1.008-.586 1.335-.371.327-.861.49-1.47.49zm5.239-.096v-4.525h-1.922v-.759h4.707v.76h-1.921V50h-.864zm4.181 0v-5.284h.865v1.94h1.556c.595 0 1.063.151 1.402.452.346.295.519.702.519 1.22 0 .513-.173.92-.519 1.22-.345.301-.813.452-1.402.452h-2.421zm.865-.788h1.556c.333 0 .586-.073.759-.22.179-.154.269-.375.269-.664 0-.288-.09-.506-.269-.653-.173-.153-.426-.23-.759-.23h-1.556v1.767zm10.505.788v-5.284h.864v2.181h.903l1.537-2.18h.99l-1.777 2.516L135.738 50h-1.009l-1.537-2.354h-.913V50h-.864zm6.467 1.73l.779-2.057-1.96-4.957h.96l1.23 3.267c.045.109.087.24.125.394l.096.374.096-.374c.039-.154.077-.285.115-.394l1.153-3.267h.932l-2.603 7.013h-.923zm4.864 0v-7.014h.864v1.009h.173l-.173.202c0-.404.132-.72.394-.951.269-.237.622-.356 1.057-.356.532 0 .954.176 1.268.529.32.345.481.823.481 1.431v1.547c0 .403-.074.752-.221 1.047a1.57 1.57 0 01-.606.682c-.256.16-.563.24-.922.24-.429 0-.778-.118-1.047-.355-.269-.237-.404-.554-.404-.951l.173.201h-.192l.019 1.201v1.537h-.864zm2.027-2.383c.365 0 .65-.11.855-.327.211-.218.317-.532.317-.941v-1.441c0-.41-.106-.724-.317-.942-.205-.218-.49-.326-.855-.326-.352 0-.634.112-.845.336-.212.224-.318.535-.318.932v1.44c0 .398.106.708.318.932.211.225.493.337.845.337zm5.68.75a2.46 2.46 0 01-1.114-.241 1.732 1.732 0 01-.731-.692c-.172-.307-.259-.67-.259-1.085v-1.441c0-.423.087-.785.259-1.086.173-.3.417-.532.731-.692.32-.16.691-.24 1.114-.24.608 0 1.098.163 1.47.49.371.327.567.772.586 1.336h-.865c-.019-.34-.134-.6-.346-.779-.205-.185-.486-.278-.845-.278-.378 0-.679.109-.903.326-.224.212-.336.516-.336.913v1.45c0 .398.112.705.336.923.224.218.525.327.903.327.359 0 .64-.093.845-.28.212-.185.327-.444.346-.777h.865c-.019.563-.215 1.008-.586 1.335-.372.327-.862.49-1.47.49zm5.209 0c-.557 0-.996-.142-1.316-.424-.32-.288-.48-.675-.48-1.162 0-.493.16-.88.48-1.163.32-.281.753-.422 1.297-.422h1.633v-.529c0-.326-.099-.576-.298-.749-.192-.18-.467-.269-.826-.269-.314 0-.576.067-.788.202a.718.718 0 00-.365.528h-.864c.057-.454.272-.816.643-1.085.372-.27.836-.404 1.393-.404.609 0 1.089.157 1.441.471.353.314.529.74.529 1.278V50h-.846v-1.009h-.144l.144-.144c0 .384-.15.689-.451.913-.295.224-.689.336-1.182.336zm.212-.683c.409 0 .746-.102 1.008-.307a.956.956 0 00.394-.788v-.75h-1.614c-.288 0-.515.08-.682.24-.166.16-.25.379-.25.654 0 .294.1.528.298.701.205.167.487.25.846.25zm4.642 2.123l.769-2.988h1.249l-1.249 2.988h-.769zM13.882 69.097a2.31 2.31 0 01-1.095-.25 1.808 1.808 0 01-.72-.702 2.204 2.204 0 01-.25-1.066v-1.441c0-.41.083-.766.25-1.067.172-.3.412-.534.72-.701a2.31 2.31 0 011.095-.25c.416 0 .778.084 1.086.25.313.167.554.4.72.701.173.301.26.657.26 1.067v.931h-3.286v.51c0 .416.106.736.317.96.211.218.512.327.903.327.333 0 .602-.058.807-.173a.764.764 0 00.375-.538h.864a1.472 1.472 0 01-.653 1.057c-.372.256-.836.384-1.393.384zm1.22-3.104v-.355c0-.417-.106-.737-.317-.961-.205-.224-.506-.336-.903-.336-.39 0-.692.112-.903.336-.211.224-.317.544-.317.96v.28h2.507l-.067.076zM17.94 69v-5.284h3.794v.788h-2.93V69h-.864zm7.322.077c-.422 0-.787-.08-1.095-.24a1.743 1.743 0 01-.72-.692c-.167-.307-.25-.67-.25-1.086v-1.402c0-.423.083-.785.25-1.086.173-.3.413-.531.72-.691.308-.16.673-.24 1.095-.24.423 0 .788.08 1.096.24.307.16.544.39.71.691.173.301.26.66.26 1.076v1.412c0 .417-.087.779-.26 1.086a1.683 1.683 0 01-.71.692c-.308.16-.673.24-1.096.24zm0-.769c.378 0 .673-.105.884-.317.212-.211.317-.522.317-.932v-1.402c0-.41-.105-.72-.317-.932-.211-.211-.506-.317-.884-.317-.371 0-.666.106-.883.317-.212.211-.317.522-.317.932v1.402c0 .41.105.72.317.932.217.212.512.317.883.317zM35.47 70.73l.778-2.056-1.96-4.957h.96l1.23 3.267c.045.108.087.24.125.393.039.148.07.273.096.375l.096-.375a4.47 4.47 0 01.116-.393l1.152-3.267h.932l-2.603 7.013h-.922zM40.35 69v-5.284h.865v2.2h2.229v-2.2h.864V69h-.864v-2.296h-2.23V69h-.864zm5.69 0v-5.284h.826v2.882c0 .186-.006.381-.02.586-.005.205-.018.4-.038.586a6.1 6.1 0 01-.047.462l2.132-4.516H50V69h-.826v-2.882c0-.186.003-.381.01-.586.012-.205.028-.4.047-.586l.048-.47L47.146 69H46.04zm5.718 0v-5.284h.865v2.181h.903l1.537-2.18h.99l-1.778 2.516L56.082 69h-1.008l-1.537-2.354h-.913V69h-.865zm7.18.096c-.558 0-.997-.14-1.317-.423-.32-.288-.48-.675-.48-1.162 0-.493.16-.88.48-1.162.32-.282.752-.423 1.297-.423h1.633v-.529c0-.326-.1-.576-.298-.749-.192-.18-.467-.269-.826-.269-.314 0-.576.067-.788.202a.718.718 0 00-.365.528h-.864c.057-.454.272-.816.643-1.085.372-.27.836-.404 1.393-.404.609 0 1.09.157 1.441.471.353.314.529.74.529 1.278V69h-.846v-1.009h-.144l.144-.144c0 .385-.15.689-.451.913-.295.224-.689.336-1.182.336zm.21-.682c.41 0 .747-.103 1.01-.307a.957.957 0 00.393-.788v-.75h-1.614c-.288 0-.515.08-.682.24-.166.16-.25.379-.25.654 0 .294.1.528.298.701.205.167.487.25.846.25zm3.298.653v-.807h.173c.295 0 .5-.115.615-.346.121-.23.185-.643.192-1.239l.058-2.959h3.583V69h-.865v-4.496H64.34l-.048 2.21c-.013.557-.077 1.008-.193 1.354-.109.346-.281.599-.518.76-.23.16-.535.24-.913.24h-.22zM68.838 69v-5.284h.865v1.94h1.556c.596 0 1.063.151 1.403.452.345.295.518.702.518 1.22 0 .513-.173.92-.519 1.22-.345.302-.813.452-1.402.452h-2.421zm.865-.788h1.556c.333 0 .586-.073.759-.22.18-.154.269-.375.269-.664 0-.288-.09-.505-.27-.653-.172-.153-.425-.23-.758-.23h-1.556v1.767zm4.786.788v-5.284h.865v2.2h2.229v-2.2h.864V69h-.864v-2.296h-2.23V69h-.864zm5.411 0v-5.284h.807v1.94h.433c.57 0 1.018.151 1.344.452.334.295.5.702.5 1.22 0 .52-.166.93-.5 1.23-.326.295-.774.442-1.344.442H79.9zm.807-.692h.433c.339 0 .602-.086.787-.26.192-.172.288-.412.288-.72 0-.307-.096-.547-.288-.72-.185-.173-.448-.26-.787-.26h-.433v1.96zM83.61 69v-5.284h.806V69h-.806zm4.239.096c-.417 0-.782-.083-1.096-.25a1.807 1.807 0 01-.72-.701 2.203 2.203 0 01-.25-1.066v-1.441c0-.41.083-.766.25-1.067.173-.3.413-.534.72-.701.314-.166.68-.25 1.096-.25.416 0 .778.084 1.085.25.314.167.554.4.72.701.173.301.26.657.26 1.067v.931h-3.285v.51c0 .416.105.736.317.96.21.218.512.327.903.327.333 0 .602-.058.806-.173a.764.764 0 00.375-.538h.865a1.472 1.472 0 01-.654 1.057c-.37.256-.835.384-1.392.384zm1.22-3.103v-.355c0-.417-.106-.737-.317-.961-.205-.224-.506-.336-.904-.336-.39 0-.691.112-.902.336-.212.224-.317.544-.317.96v.28h2.507l-.067.076zM97.248 69v-5.284h3.958V69h-.865v-4.496h-2.228V69h-.865zm5.67 1.73v-7.014h.865v1.009h.173l-.173.202c0-.404.131-.72.394-.951.269-.237.621-.356 1.057-.356.531 0 .954.176 1.268.529.32.345.48.823.48 1.431v1.547c0 .403-.074.752-.221 1.047a1.575 1.575 0 01-.605.682c-.256.16-.564.24-.922.24-.43 0-.779-.118-1.048-.355s-.403-.554-.403-.951l.173.201h-.192l.019 1.201v1.537h-.865zm2.027-2.383c.365 0 .65-.11.855-.327.212-.218.317-.531.317-.941v-1.441c0-.41-.105-.724-.317-.942-.205-.218-.49-.326-.855-.326-.352 0-.634.112-.845.336-.211.224-.317.535-.317.932v1.44c0 .398.106.708.317.932.211.225.493.337.845.337zm5.661.75a2.31 2.31 0 01-1.095-.25 1.812 1.812 0 01-.721-.702 2.21 2.21 0 01-.249-1.066v-1.441c0-.41.083-.766.249-1.067.173-.3.414-.534.721-.701a2.31 2.31 0 011.095-.25c.416 0 .778.084 1.086.25.314.167.554.4.72.701.173.301.26.657.26 1.067v.931h-3.286v.51c0 .416.106.736.317.96.211.218.512.327.903.327.333 0 .602-.058.807-.173a.764.764 0 00.375-.538h.864a1.469 1.469 0 01-.653 1.057c-.371.256-.836.384-1.393.384zm1.22-3.104v-.355c0-.417-.105-.737-.317-.961-.205-.224-.506-.336-.903-.336-.391 0-.692.112-.903.336-.211.224-.317.544-.317.96v.28h2.507l-.067.076zM114.317 69v-5.284h.826v2.882c0 .186-.006.381-.019.586-.007.205-.019.4-.039.586-.012.18-.028.333-.048.462l2.133-4.516h1.105V69h-.826v-2.882c0-.186.003-.381.009-.586.013-.205.029-.4.048-.586l.048-.47L115.422 69h-1.105zm5.517 0v-5.284h1.172l.691 2.027c.071.205.135.41.192.615.058.199.1.352.125.461.026-.109.064-.262.116-.46.057-.206.118-.414.182-.625l.653-2.018h1.172V69h-.835v-.817c0-.288.003-.602.009-.941l.019-1.028.039-.98c.013-.314.022-.59.029-.826l-.942 3.007h-.912l-.952-2.988c.013.288.023.647.029 1.076.013.43.023.878.029 1.345.013.468.019.913.019 1.335V69h-.835zm6.669 1.73l.778-2.057-1.96-4.957h.961l1.23 3.267c.045.108.086.24.125.393l.096.375c.025-.102.057-.227.096-.375.038-.153.077-.285.115-.393l1.153-3.267h.932l-2.604 7.013h-.922zm8.735-.385V69h-4.14v-5.284h.778v4.554h1.114v-4.554h.673v4.554h1.114v-4.554h.778v4.554h.452v2.075h-.769zm3.816-1.249c-.416 0-.781-.083-1.095-.25a1.81 1.81 0 01-.72-.701 2.199 2.199 0 01-.25-1.066v-1.441c0-.41.083-.766.25-1.067a1.81 1.81 0 01.72-.701 2.31 2.31 0 011.095-.25c.417 0 .779.084 1.086.25.314.167.554.4.72.701.173.301.26.657.26 1.067v.931h-3.286v.51c0 .416.106.736.317.96.212.218.513.327.903.327.333 0 .602-.058.807-.173a.764.764 0 00.375-.538h.865a1.473 1.473 0 01-.654 1.057c-.371.256-.835.384-1.393.384zm1.22-3.103v-.355c0-.417-.105-.737-.317-.961-.204-.224-.505-.336-.903-.336-.39 0-.691.112-.903.336-.211.224-.317.544-.317.96v.28h2.508l-.068.076zm4.489 3.103a2.46 2.46 0 01-1.114-.24 1.73 1.73 0 01-.73-.692c-.173-.307-.26-.67-.26-1.085v-1.441c0-.423.087-.785.26-1.086a1.73 1.73 0 01.73-.692c.32-.16.692-.24 1.114-.24.609 0 1.099.163 1.47.49.372.327.567.772.586 1.335h-.864c-.02-.339-.135-.598-.346-.778-.205-.185-.487-.278-.846-.278-.378 0-.679.109-.903.326-.224.212-.336.516-.336.913v1.45c0 .398.112.705.336.923.224.218.525.326.903.326.359 0 .641-.092.846-.278.211-.186.326-.445.346-.778h.864c-.019.563-.214 1.008-.586 1.335-.371.327-.861.49-1.47.49zm5.238-.096v-4.525h-1.921v-.759h4.707v.76h-1.921V69h-.865zm4.143 0v-5.284h2.287c.551 0 .976.125 1.277.375.302.243.452.586.452 1.028 0 .365-.125.66-.375.884-.249.217-.579.326-.989.326v-.076c.448 0 .807.112 1.076.336.275.224.413.525.413.903 0 .474-.16.845-.48 1.114-.321.263-.769.394-1.345.394h-2.316zm.846-.759h1.47c.307 0 .544-.067.711-.202a.679.679 0 00.259-.567c0-.25-.087-.441-.259-.576-.167-.134-.404-.202-.711-.202h-1.47v1.547zm0-2.296h1.441c.269 0 .48-.064.634-.192.16-.128.24-.308.24-.538 0-.23-.077-.41-.231-.538-.153-.135-.368-.202-.643-.202h-1.441v1.47zm6.362 3.151c-.557 0-.996-.14-1.316-.423-.32-.288-.481-.675-.481-1.162 0-.493.161-.88.481-1.162.32-.282.752-.423 1.297-.423h1.633v-.529c0-.326-.099-.576-.298-.749-.192-.18-.467-.269-.826-.269-.314 0-.577.067-.788.202a.718.718 0 00-.365.528h-.865c.058-.454.273-.816.644-1.085.372-.27.836-.404 1.393-.404.609 0 1.089.157 1.441.471.352.314.528.74.528 1.278V69h-.845v-1.009h-.144l.144-.144c0 .385-.15.689-.451.913-.295.224-.689.336-1.182.336zm.211-.682c.41 0 .746-.103 1.009-.307a.956.956 0 00.394-.788v-.75h-1.614c-.288 0-.516.08-.682.24-.167.16-.25.379-.25.654 0 .294.099.528.298.701.205.167.487.25.845.25zM11.903 88v-5.284h.826v2.882c0 .186-.006.381-.019.586-.006.205-.02.4-.038.586-.013.18-.03.333-.049.462l2.133-4.516h1.105V88h-.826v-2.882c0-.186.003-.381.01-.586.012-.205.028-.4.047-.586l.048-.47L13.008 88h-1.105zm11.36 1.73v-7.014h.865v1.009h.173l-.173.202c0-.404.131-.72.394-.951.269-.237.62-.356 1.056-.356.532 0 .955.176 1.268.529.32.345.48.823.48 1.431v1.547c0 .403-.073.752-.22 1.047a1.57 1.57 0 01-.605.682c-.257.16-.564.24-.923.24-.429 0-.778-.118-1.047-.355-.269-.237-.403-.554-.403-.951l.173.201h-.192l.019 1.201v1.537h-.865zm2.027-2.383c.365 0 .65-.11.855-.327.212-.218.317-.531.317-.941v-1.441c0-.41-.105-.724-.317-.942-.205-.218-.49-.326-.855-.326-.352 0-.634.112-.845.336-.212.224-.317.535-.317.932v1.44c0 .398.105.708.317.932.211.225.493.337.845.337zm5.661.75a2.31 2.31 0 01-1.095-.25 1.807 1.807 0 01-.72-.702 2.204 2.204 0 01-.25-1.066v-1.441c0-.41.083-.766.25-1.067.172-.3.412-.534.72-.701a2.31 2.31 0 011.095-.25c.416 0 .778.084 1.085.25.314.166.554.4.721.701.173.301.26.657.26 1.067v.931H29.73v.51c0 .416.106.736.317.96.211.218.512.327.903.327.333 0 .602-.058.807-.173a.763.763 0 00.375-.538h.864a1.472 1.472 0 01-.653 1.057c-.372.256-.836.384-1.393.384zm1.22-3.104v-.355c0-.417-.106-.737-.317-.961-.205-.224-.506-.336-.903-.336-.39 0-.692.112-.903.336-.211.224-.317.544-.317.96v.28h2.507l-.067.076zm4.22 3.074c-.557 0-1.015-.118-1.374-.355a1.412 1.412 0 01-.634-.96h.913c.044.16.163.29.355.393.199.103.445.154.74.154h.451c.314 0 .558-.074.73-.221a.71.71 0 00.27-.577c0-.256-.087-.458-.26-.605-.166-.147-.413-.22-.74-.22H35.68v-.75h1.134c.294 0 .518-.07.672-.212a.72.72 0 00.23-.557.727.727 0 00-.105-.403.61.61 0 00-.298-.25 1.243 1.243 0 00-.49-.086h-.48c-.256 0-.477.057-.663.172-.186.116-.298.257-.336.423h-.913c.064-.397.272-.724.625-.98.352-.256.78-.384 1.287-.384h.48c.378 0 .702.06.97.183.27.115.474.281.615.5.148.217.221.476.221.777 0 .314-.102.574-.307.778-.205.199-.493.311-.865.337v.038c.455.032.785.154.99.365.205.212.307.516.307.913 0 .467-.173.839-.519 1.114-.346.276-.81.413-1.393.413h-.451zm4.767 1.662l.778-2.056-1.96-4.957h.961l1.23 3.267a2.9 2.9 0 01.125.393l.096.375.096-.375c.038-.153.077-.285.115-.393l1.153-3.267h.932L42.08 89.73h-.923zm4.22-1.662v-.807h.173c.295 0 .5-.115.615-.346.122-.23.186-.643.192-1.239l.058-2.959h3.583V88h-.865v-4.496h-1.863l-.048 2.21c-.013.557-.077 1.008-.192 1.354-.11.346-.282.599-.52.76-.23.16-.534.24-.912.24h-.22zM51.77 88v-5.284h.865v1.94h1.556c.596 0 1.063.151 1.403.452.345.295.518.702.518 1.22 0 .513-.173.92-.518 1.22-.346.302-.814.452-1.403.452H51.77zm.865-.788h1.556c.333 0 .586-.073.759-.22.18-.154.269-.375.269-.664 0-.288-.09-.505-.27-.653-.172-.153-.425-.23-.758-.23h-1.556v1.767zm6.333.788v-4.525h-1.921v-.759h4.707v.76h-1.921V88h-.865zm5.66.096c-.556 0-.995-.14-1.315-.423-.32-.288-.48-.675-.48-1.162 0-.493.16-.88.48-1.162.32-.282.752-.423 1.297-.423h1.633v-.529c0-.326-.1-.576-.298-.749-.192-.18-.468-.269-.826-.269-.314 0-.577.067-.788.202a.718.718 0 00-.365.528H63.1c.058-.454.273-.816.644-1.085.371-.27.836-.404 1.393-.404.608 0 1.089.157 1.441.471.352.314.528.74.528 1.278V88h-.845v-1.009h-.144l.144-.144c0 .385-.15.689-.452.913-.294.224-.688.336-1.181.336zm.212-.682c.41 0 .746-.103 1.009-.307a.957.957 0 00.394-.788v-.75h-1.614c-.288 0-.516.08-.682.24-.167.16-.25.379-.25.654 0 .294.1.528.298.701.205.167.487.25.845.25zm5.507.586v-4.525h-1.921v-.759h4.707v.76h-1.921V88h-.865zm3.865 0v-5.284h.807v1.94h.432c.57 0 1.018.151 1.345.452.333.295.5.702.5 1.22 0 .52-.167.93-.5 1.23-.327.295-.775.442-1.345.442h-1.24zm.807-.692h.432c.34 0 .602-.086.788-.26.192-.172.288-.412.288-.72 0-.307-.096-.547-.288-.72-.186-.173-.449-.26-.788-.26h-.432v1.96zm2.9.692v-5.284h.808V88h-.807zm7.336 1.345V87.26h.432c.109-.109.221-.323.336-.643.122-.32.186-.727.192-1.22l.058-2.68h3.449v4.543h.672v2.085h-.768V88h-3.603v1.345h-.768zM86.6 87.26h2.257v-3.775H87.09l-.039 1.93c-.006.507-.06.917-.163 1.23-.103.314-.199.52-.288.615zm4.296.807v-.807h.173c.295 0 .5-.115.615-.346.122-.23.186-.643.192-1.239l.058-2.959h3.583V88h-.864v-4.496h-1.864l-.048 2.21c-.013.557-.077 1.008-.192 1.354-.11.346-.282.599-.52.76-.23.16-.534.24-.912.24h-.22zM96.921 88l1.355-2.037c-.404-.096-.718-.281-.942-.557-.217-.275-.326-.618-.326-1.028 0-.519.17-.925.509-1.22.346-.294.816-.442 1.412-.442h2.277V88h-.865v-1.97h-1.162L97.929 88h-1.008zm2.008-2.738h1.412v-1.777h-1.412c-.32 0-.573.08-.759.24-.186.154-.279.372-.279.653 0 .276.093.493.28.653.185.154.438.231.758.231zm10.505 4.467l.778-2.056-1.96-4.957h.961l1.23 3.267c.045.108.086.24.125.393l.096.375c.025-.102.057-.227.096-.375.038-.153.077-.285.115-.393l1.153-3.267h.932l-2.604 7.013h-.922zM117.353 88v-1.921c-.103.025-.26.05-.471.077a7.02 7.02 0 01-.653.028c-.654.007-1.163-.15-1.528-.47-.359-.327-.538-.782-.538-1.365v-1.633h.865v1.633c0 .327.109.586.326.779.225.185.532.278.923.278.269 0 .496-.01.682-.029a3.52 3.52 0 00.394-.067v-2.594h.864V88h-.864zm4.171.096c-.557 0-.996-.14-1.316-.423-.32-.288-.48-.675-.48-1.162 0-.493.16-.88.48-1.162.32-.282.753-.423 1.297-.423h1.633v-.529c0-.326-.099-.576-.298-.749-.192-.18-.467-.269-.826-.269-.314 0-.576.067-.787.202a.717.717 0 00-.366.528h-.864c.058-.454.272-.816.644-1.085.371-.27.835-.404 1.392-.404.609 0 1.089.157 1.442.471.352.314.528.74.528 1.278V88h-.846v-1.009h-.144l.144-.144c0 .385-.15.689-.451.913-.295.224-.689.336-1.182.336zm.212-.682c.41 0 .746-.103 1.008-.307a.956.956 0 00.394-.788v-.75h-1.614c-.288 0-.515.08-.682.24-.166.16-.25.379-.25.654 0 .294.1.528.298.701.205.167.487.25.846.25zm5.958.682a2.46 2.46 0 01-1.114-.24 1.73 1.73 0 01-.73-.692c-.173-.307-.26-.67-.26-1.085v-1.441c0-.423.087-.785.26-1.086a1.73 1.73 0 01.73-.692c.32-.16.692-.24 1.114-.24.609 0 1.099.163 1.47.49.372.327.567.772.586 1.335h-.864c-.02-.339-.135-.598-.346-.778-.205-.185-.487-.278-.846-.278-.378 0-.679.109-.903.326-.224.212-.336.516-.336.913v1.45c0 .398.112.705.336.923.224.218.525.326.903.326.359 0 .641-.092.846-.278.211-.186.326-.445.346-.778h.864c-.019.563-.214 1.008-.586 1.335-.371.327-.861.49-1.47.49zm5.238-.096v-4.525h-1.921v-.759h4.707v.76h-1.921V88h-.865zm4.143 0v-5.284h.865v2.2h2.229v-2.2h.864V88h-.864v-2.296h-2.229V88h-.865zm5.69 0v-5.284h.826v2.882c0 .186-.006.381-.019.586a8.08 8.08 0 01-.038.586 6.36 6.36 0 01-.048.462l2.132-4.516h1.105V88h-.826v-2.882c0-.186.003-.381.009-.586.013-.205.029-.4.049-.586l.048-.47L143.87 88h-1.105zm5.719 0v-5.284h.864v2.181h.903l1.537-2.18h.99l-1.777 2.516L152.807 88h-1.009l-1.537-2.354h-.913V88h-.864zm7.639.077c-.422 0-.787-.08-1.095-.24a1.745 1.745 0 01-.72-.692c-.167-.307-.25-.67-.25-1.086v-1.402c0-.423.083-.785.25-1.086.173-.3.413-.531.72-.691.308-.16.673-.24 1.095-.24.423 0 .788.08 1.096.24.307.16.544.39.71.691.173.301.26.66.26 1.076v1.412c0 .417-.087.779-.26 1.086a1.68 1.68 0 01-.71.692c-.308.16-.673.24-1.096.24zm0-.769c.378 0 .673-.105.884-.317.212-.211.317-.522.317-.932v-1.402c0-.41-.105-.72-.317-.932-.211-.211-.506-.317-.884-.317-.371 0-.666.106-.883.317-.212.211-.317.522-.317.932v1.402c0 .41.105.72.317.932.217.212.512.317.883.317zm3.711.692v-5.284h2.286c.551 0 .977.125 1.278.375.301.243.452.586.452 1.028 0 .365-.125.66-.375.884-.25.217-.58.326-.989.326v-.076c.448 0 .806.112 1.075.336.276.224.414.525.414.903 0 .474-.161.845-.481 1.114-.32.263-.768.394-1.345.394h-2.315zm.845-.759h1.47c.308 0 .545-.067.711-.202.173-.134.26-.323.26-.567 0-.25-.087-.441-.26-.576-.166-.134-.403-.202-.711-.202h-1.47v1.547zm0-2.296h1.441c.269 0 .481-.064.635-.192.16-.128.24-.308.24-.538 0-.23-.077-.41-.231-.538-.154-.135-.368-.202-.644-.202h-1.441v1.47zm6.824 3.151c-.244 0-.439-.07-.586-.211-.141-.141-.212-.33-.212-.567 0-.25.071-.448.212-.596.147-.147.342-.22.586-.22.243 0 .435.073.576.22.147.148.221.346.221.596 0 .237-.074.426-.221.567-.141.14-.333.211-.576.211z" fill="#000"/><defs><filter id="filter0_d_441_1230" x=".157" y="0" width="179.685" height="144.685" filterUnits="userSpaceOnUse" color-interpolation-filters="sRGB"><feFlood flood-opacity="0" result="BackgroundImageFix"/><feColorMatrix in="SourceAlpha" values="0 0 0 0 0 0 0 0 0 0 0 0 0 0 0 0 0 0 127 0" result="hardAlpha"/><feOffset dy="3.843"/><feGaussianBlur stdDeviation="1.921"/><feComposite in2="hardAlpha" operator="out"/><feColorMatrix values="0 0 0 0 0 0 0 0 0 0 0 0 0 0 0 0 0 0 0.25 0"/><feBlend in2="BackgroundImageFix" result="effect1_dropShadow_441_1230"/><feBlend in="SourceGraphic" in2="effect1_dropShadow_441_1230" result="shape"/></filter></defs></svg>