<svg width="180" height="145" fill="none" xmlns="http://www.w3.org/2000/svg"><g filter="url(#filter0_d_441_1236)"><rect x="4" width="172" height="137" rx="16.011" fill="#F8EEDA"/></g><path d="M16.882 50.096c-.423 0-.788-.08-1.095-.24a1.697 1.697 0 01-.701-.692c-.16-.307-.24-.67-.24-1.085v-3.17c0-.423.08-.785.24-1.086.166-.301.4-.532.7-.692.308-.16.673-.24 1.096-.24.423 0 .785.08 1.086.24.307.16.54.39.7.692.167.3.25.66.25 1.076v3.18c0 .416-.083.778-.25 1.085-.16.301-.393.532-.7.692-.301.16-.663.24-1.086.24zm0-.778c.378 0 .666-.106.865-.317.205-.218.307-.525.307-.922v-3.17c0-.398-.102-.702-.307-.913-.199-.218-.487-.327-.865-.327-.371 0-.66.109-.865.327-.204.211-.307.515-.307.912v3.17c0 .398.102.705.307.923.205.211.494.317.865.317zm3.71.682v-5.284h3.959V50h-.865v-4.496h-2.229V50h-.864zm7.237 0v-4.525h-1.921v-.759h4.707v.76h-1.921V50h-.865zm4.143 0v-5.284h.826v2.882c0 .186-.006.381-.019.586-.006.205-.02.4-.039.586a6.1 6.1 0 01-.047.461l2.132-4.515h1.105V50h-.826v-2.882c0-.186.003-.381.01-.586.012-.205.028-.4.047-.586l.048-.47L33.078 50h-1.105zm5.517 0v-5.284h1.172l.691 2.027c.07.205.135.41.193.615.057.199.099.352.124.461.026-.109.065-.262.116-.46.057-.206.118-.414.182-.625l.654-2.018h1.172V50h-.836v-.817c0-.288.003-.602.01-.941l.019-1.028c.012-.346.025-.672.038-.98.013-.314.022-.59.029-.826l-.942 3.007H39.2l-.951-2.988c.013.288.022.647.029 1.076.012.43.022.878.028 1.345.013.468.02.913.02 1.335V50h-.836zm5.862 0v-5.284h.827v2.882c0 .186-.007.381-.02.586-.006.205-.019.4-.038.586a6.1 6.1 0 01-.048.461l2.133-4.515h1.104V50h-.826v-2.882c0-.186.003-.381.01-.586.012-.205.029-.4.048-.586l.048-.47L44.456 50h-1.105zm7.42.067c-.558 0-1.016-.118-1.375-.355a1.412 1.412 0 01-.634-.96h.913c.045.16.163.29.356.393.198.102.445.154.74.154h.45c.315 0 .558-.074.73-.221a.71.71 0 00.27-.577c0-.256-.087-.458-.26-.605-.166-.147-.413-.22-.74-.22H50.06v-.75h1.134c.294 0 .519-.07.672-.212a.72.72 0 00.23-.557.727.727 0 00-.105-.403.61.61 0 00-.298-.25 1.243 1.243 0 00-.49-.086h-.48c-.256 0-.477.057-.663.172-.185.116-.297.257-.336.423h-.913c.064-.397.273-.724.625-.98s.781-.384 1.287-.384h.48c.378 0 .702.06.97.183a1.324 1.324 0 01.836 1.277c0 .314-.102.573-.307.778-.205.199-.493.311-.864.337v.038c.454.032.784.154.989.365.205.212.307.516.307.913 0 .467-.172.839-.518 1.114-.346.276-.81.413-1.393.413h-.452zM54.73 50v-5.284h.826v2.882c0 .186-.007.381-.02.586-.006.205-.019.4-.038.586-.013.18-.029.333-.048.461l2.133-4.515h1.105V50h-.827v-2.882c0-.186.004-.381.01-.586.013-.205.029-.4.048-.586l.048-.47L55.835 50h-1.104zm5.67 1.73v-7.014h.865v1.009h.173l-.173.202c0-.404.131-.72.394-.951.269-.237.62-.356 1.056-.356.532 0 .955.176 1.268.529.32.345.48.823.48 1.431v1.547c0 .403-.073.752-.22 1.047a1.57 1.57 0 01-.605.682c-.257.16-.564.24-.923.24-.429 0-.778-.118-1.047-.355-.269-.237-.403-.554-.403-.951l.173.201h-.193l.02 1.201v1.537H60.4zm2.027-2.383c.365 0 .65-.11.855-.327.211-.218.317-.532.317-.941v-1.441c0-.41-.106-.724-.317-.942-.205-.218-.49-.326-.855-.326-.352 0-.634.112-.845.336-.212.224-.317.535-.317.932v1.44c0 .398.105.708.317.932.211.225.493.337.845.337zm5.66.73c-.422 0-.787-.08-1.094-.24a1.744 1.744 0 01-.72-.692c-.167-.307-.25-.67-.25-1.086v-1.402c0-.423.083-.785.25-1.086.172-.3.412-.531.72-.691.307-.16.672-.24 1.095-.24.423 0 .788.08 1.095.24.308.16.544.39.711.691.173.301.26.66.26 1.076v1.412c0 .417-.087.779-.26 1.086a1.683 1.683 0 01-.71.692c-.308.16-.673.24-1.096.24zm0-.769c.379 0 .673-.105.885-.317.211-.211.317-.522.317-.932v-1.402c0-.41-.106-.72-.317-.932-.212-.211-.506-.317-.884-.317-.371 0-.666.106-.884.317-.211.211-.317.522-.317.932v1.402c0 .41.106.72.317.932.218.212.513.317.884.317zM71.8 50v-5.284h2.286c.55 0 .977.125 1.278.375.3.243.451.586.451 1.028 0 .365-.125.66-.374.884-.25.217-.58.326-.99.326v-.077c.448 0 .807.113 1.076.337.275.224.413.525.413.903 0 .474-.16.845-.48 1.114-.32.263-.769.394-1.345.394H71.8zm.845-.759h1.47c.307 0 .544-.067.71-.202.174-.134.26-.323.26-.567 0-.25-.086-.441-.26-.576-.166-.134-.403-.202-.71-.202h-1.47v1.547zm0-2.296h1.441c.269 0 .48-.064.634-.192.16-.128.24-.307.24-.538 0-.23-.077-.41-.23-.538-.154-.135-.369-.202-.644-.202h-1.441v1.47zm6.362 3.151c-.557 0-.996-.14-1.316-.423-.32-.288-.48-.675-.48-1.162 0-.493.16-.88.48-1.163.32-.281.752-.422 1.297-.422h1.633v-.529c0-.326-.1-.576-.298-.749-.192-.18-.467-.269-.826-.269-.314 0-.576.067-.788.202a.718.718 0 00-.365.528h-.864c.057-.454.272-.816.643-1.085.372-.27.836-.404 1.393-.404.609 0 1.089.157 1.441.471.353.314.529.74.529 1.278V50h-.846v-1.009h-.144l.144-.144c0 .384-.15.689-.451.913-.295.224-.689.336-1.182.336zm.211-.682c.41 0 .747-.102 1.01-.307a.957.957 0 00.393-.788v-.75h-1.614c-.288 0-.516.08-.682.24-.166.16-.25.379-.25.654 0 .294.1.528.298.701.205.167.487.25.845.25zm3.298.653v-.807h.173c.295 0 .5-.115.615-.346.121-.23.186-.643.192-1.239l.058-2.959h3.583V50h-.865v-4.496H84.41l-.049 2.21c-.012.557-.076 1.008-.192 1.354-.109.346-.281.599-.518.76-.23.16-.535.24-.913.24h-.221zM88.868 50v-5.284h.827v2.882c0 .186-.007.381-.02.586-.006.205-.019.4-.038.586a6.1 6.1 0 01-.048.461l2.133-4.515h1.105V50H92v-2.882c0-.186.004-.381.01-.586.013-.205.029-.4.048-.586l.048-.47L89.973 50h-1.105zm11.38 0v-5.284h3.958V50h-.865v-4.496h-2.229V50h-.864zm5.67 1.73v-7.014h.865v1.009h.173l-.173.202c0-.404.131-.72.394-.951.269-.237.621-.356 1.057-.356.531 0 .954.176 1.268.529.32.345.48.823.48 1.431v1.547c0 .403-.074.752-.221 1.047a1.575 1.575 0 01-.605.682c-.256.16-.564.24-.922.24-.43 0-.779-.118-1.048-.355s-.403-.554-.403-.951l.173.201h-.192l.019 1.201v1.537h-.865zm2.027-2.383c.365 0 .65-.11.855-.327.212-.218.317-.532.317-.941v-1.441c0-.41-.105-.724-.317-.942-.205-.218-.49-.326-.855-.326-.352 0-.634.112-.845.336-.211.224-.317.535-.317.932v1.44c0 .398.106.708.317.932.211.225.493.337.845.337zm3.682.653v-5.284h.826v2.882c0 .186-.006.381-.019.586a8.08 8.08 0 01-.038.586c-.013.18-.029.333-.048.461l2.132-4.515h1.105V50h-.826v-2.882c0-.186.003-.381.01-.586.012-.205.028-.4.048-.586l.048-.47L112.732 50h-1.105zm7.419.067c-.557 0-1.015-.118-1.374-.355a1.415 1.415 0 01-.634-.96h.913c.045.16.163.29.355.393.199.102.445.154.74.154h.452c.313 0 .557-.074.73-.221a.712.712 0 00.269-.577c0-.256-.087-.458-.26-.605-.166-.147-.413-.22-.739-.22h-1.163v-.75h1.134c.294 0 .518-.07.672-.212a.72.72 0 00.231-.557.723.723 0 00-.106-.403.609.609 0 00-.298-.25 1.242 1.242 0 00-.49-.086h-.48c-.256 0-.477.057-.663.172-.186.116-.298.257-.336.423h-.913c.064-.397.272-.724.625-.98.352-.256.781-.384 1.287-.384h.48c.378 0 .702.06.971.183a1.327 1.327 0 01.835 1.277c0 .314-.102.573-.307.778-.205.199-.493.311-.865.337v.038c.455.032.785.154.99.365.205.212.307.516.307.913 0 .467-.173.839-.518 1.114-.346.276-.811.413-1.393.413h-.452zm3.682-.067v-5.284h.807v1.94h.432c.57 0 1.018.151 1.345.452.333.295.5.702.5 1.22 0 .52-.167.93-.5 1.23-.327.295-.775.442-1.345.442h-1.239zm.807-.692h.432c.34 0 .602-.086.788-.26.192-.172.288-.412.288-.72 0-.307-.096-.547-.288-.72-.186-.173-.448-.26-.788-.26h-.432v1.96zm2.901.692v-5.284h.807V50h-.807zm2.26 0v-5.284h2.287c.55 0 .976.125 1.277.375.301.243.452.586.452 1.028 0 .365-.125.66-.375.884-.25.217-.58.326-.989.326v-.077c.448 0 .807.113 1.076.337.275.224.413.525.413.903 0 .474-.16.845-.481 1.114-.32.263-.768.394-1.345.394h-2.315zm.846-.759h1.469c.308 0 .545-.067.711-.202.173-.134.26-.323.26-.567 0-.25-.087-.441-.26-.576-.166-.134-.403-.202-.711-.202h-1.469v1.547zm0-2.296h1.441c.269 0 .48-.064.634-.192.16-.128.24-.307.24-.538 0-.23-.077-.41-.231-.538-.154-.135-.368-.202-.643-.202h-1.441v1.47zM134.107 50v-5.284h.807v1.94h.432c.57 0 1.019.151 1.345.452.333.295.5.702.5 1.22 0 .52-.167.93-.5 1.23-.326.295-.775.442-1.345.442h-1.239zm.807-.692h.432c.34 0 .602-.086.788-.26.192-.172.288-.412.288-.72 0-.307-.096-.547-.288-.72-.186-.173-.448-.26-.788-.26h-.432v1.96zm2.901.692v-5.284h.807V50h-.807zm7.979 0v-5.284h.865v2.181h.903l1.537-2.18h.989l-1.777 2.516L150.117 50h-1.009l-1.537-2.354h-.912V50h-.865zM14.288 70.345V68.26h.432c.11-.109.221-.323.337-.643.121-.32.185-.727.192-1.22l.057-2.68h3.45v4.543h.672v2.085h-.769V69h-3.602v1.345h-.769zm1.345-2.085h2.258v-3.775h-1.768l-.038 1.93c-.007.507-.061.917-.164 1.23-.102.314-.198.52-.288.615zm6.939.836c-.417 0-.782-.083-1.095-.25a1.807 1.807 0 01-.721-.701 2.204 2.204 0 01-.25-1.066v-1.441c0-.41.084-.766.25-1.067.173-.3.413-.534.72-.701.314-.166.68-.25 1.096-.25.416 0 .778.084 1.085.25.314.167.554.4.72.701.174.301.26.657.26 1.067v.931h-3.285v.51c0 .416.105.736.317.96.211.218.512.327.903.327.333 0 .602-.058.807-.173a.763.763 0 00.374-.538h.865a1.472 1.472 0 01-.653 1.057c-.372.256-.836.384-1.393.384zm1.22-3.103v-.355c0-.417-.106-.737-.317-.961-.205-.224-.506-.336-.903-.336-.391 0-.692.112-.903.336-.212.224-.317.544-.317.96v.28h2.507l-.067.076zM26.282 69v-5.284h.826v2.882c0 .186-.006.381-.019.586-.006.205-.019.4-.038.586a6.36 6.36 0 01-.048.462l2.133-4.516h1.104V69h-.826v-2.882c0-.186.003-.381.01-.586.013-.205.029-.4.048-.586l.048-.47L27.387 69h-1.105zm2.018-6.148c-.461 0-.833-.128-1.115-.385-.281-.256-.422-.592-.422-1.008h.682c0 .25.077.451.23.605.154.154.359.23.615.23.263 0 .47-.076.625-.23a.8.8 0 00.24-.605h.682c0 .416-.141.752-.423 1.008-.282.257-.653.385-1.114.385zm5.67 6.244c-.422 0-.794-.08-1.114-.24a1.73 1.73 0 01-.73-.692c-.173-.307-.26-.67-.26-1.085v-1.441c0-.423.087-.785.26-1.086a1.73 1.73 0 01.73-.692c.32-.16.691-.24 1.114-.24.609 0 1.099.163 1.47.49.372.327.567.772.586 1.335h-.865c-.019-.339-.134-.598-.345-.778-.205-.185-.487-.278-.846-.278-.378 0-.679.109-.903.326-.224.212-.336.516-.336.913v1.45c0 .398.112.705.336.923.224.218.525.326.903.326.359 0 .64-.092.846-.278.21-.186.326-.445.345-.778h.865c-.02.563-.215 1.008-.586 1.335-.371.327-.861.49-1.47.49zM39.208 69v-4.525h-1.921v-.759h4.707v.76h-1.921V69h-.865zm4.143 0v-5.284h2.287c.55 0 .976.125 1.277.375.301.243.452.586.452 1.028 0 .365-.125.66-.375.884-.25.217-.58.326-.99.326v-.076c.45 0 .808.112 1.077.336.275.224.413.525.413.903 0 .474-.16.845-.48 1.114-.32.263-.77.394-1.346.394h-2.315zm.846-.759h1.47c.307 0 .544-.067.71-.202.173-.134.26-.323.26-.567 0-.25-.087-.441-.26-.576-.166-.134-.403-.202-.71-.202h-1.47v1.547zm0-2.296h1.44c.27 0 .481-.064.635-.192.16-.128.24-.308.24-.538 0-.23-.077-.41-.23-.538-.154-.135-.369-.202-.644-.202h-1.441v1.47zM49.04 69v-5.284h.826v2.882c0 .186-.006.381-.02.586-.005.205-.018.4-.038.586a6.1 6.1 0 01-.047.462l2.132-4.516H53V69h-.826v-2.882c0-.186.003-.381.01-.586.012-.205.028-.4.047-.586l.048-.47L50.146 69H49.04zm8.495.096c-.442 0-.798-.15-1.067-.451-.269-.301-.403-.695-.403-1.182v-.797h-.845V69h-.798v-5.284h.798v2.258h.845v-.72c0-.494.131-.888.394-1.182.269-.301.627-.452 1.076-.452.474 0 .855.15 1.143.452.288.294.432.688.432 1.181v2.21c0 .487-.144.88-.432 1.182-.288.3-.67.451-1.143.451zm0-.672c.243 0 .432-.084.567-.25.14-.173.21-.41.21-.711v-2.21c0-.3-.07-.534-.21-.7-.135-.174-.324-.26-.567-.26a.667.667 0 00-.557.26c-.135.166-.202.4-.202.7v2.21c0 .3.067.538.202.71.134.167.32.25.557.25zm7.96 1.92V68.26h.431c.11-.109.221-.323.337-.643.121-.32.185-.727.192-1.22l.057-2.68h3.45v4.543h.672v2.085h-.769V69h-3.602v1.345h-.769zm1.344-2.084h2.258v-3.775H67.33l-.038 1.93c-.007.507-.061.917-.164 1.23-.102.314-.198.52-.288.615zm4.297.807v-.807h.173c.294 0 .5-.115.614-.346.122-.23.186-.643.193-1.239l.057-2.959h3.584V69h-.865v-4.496h-1.864l-.048 2.21c-.013.557-.077 1.008-.192 1.354-.109.346-.282.599-.519.76-.23.16-.534.24-.912.24h-.221zM77.163 69l1.354-2.037c-.403-.096-.717-.281-.941-.557-.218-.275-.327-.618-.327-1.028 0-.519.17-.925.51-1.22.345-.294.816-.442 1.411-.442h2.277V69h-.864v-1.97H79.42L78.171 69h-1.008zm2.007-2.738h1.413v-1.777H79.17c-.32 0-.573.08-.758.24-.186.154-.28.372-.28.653 0 .276.094.493.28.653.185.154.438.231.758.231zM88.868 69v-5.284h3.959V69h-.865v-4.496h-2.229V69h-.865zm7.67.077c-.423 0-.789-.08-1.096-.24a1.744 1.744 0 01-.72-.692c-.167-.307-.25-.67-.25-1.086v-1.402c0-.423.083-.785.25-1.086.172-.3.413-.531.72-.691.307-.16.673-.24 1.095-.24.423 0 .788.08 1.095.24.308.16.545.39.711.691.173.301.26.66.26 1.076v1.412c0 .417-.087.779-.26 1.086a1.684 1.684 0 01-.71.692c-.308.16-.673.24-1.096.24zm0-.769c.377 0 .672-.105.883-.317.211-.211.317-.522.317-.932v-1.402c0-.41-.106-.72-.317-.932-.211-.211-.506-.317-.884-.317-.371 0-.666.106-.884.317-.211.211-.317.522-.317.932v1.402c0 .41.106.72.317.932.218.212.513.317.884.317zm3.71.692v-5.284h2.286c.551 0 .977.125 1.278.375.301.243.451.586.451 1.028 0 .365-.124.66-.374.884-.25.217-.58.326-.99.326v-.076c.449 0 .807.112 1.076.336.276.224.413.525.413.903 0 .474-.16.845-.48 1.114-.32.263-.769.394-1.345.394h-2.315zm.845-.759h1.47c.307 0 .544-.067.711-.202.173-.134.259-.323.259-.567 0-.25-.086-.441-.259-.576-.167-.134-.404-.202-.711-.202h-1.47v1.547zm0-2.296h1.441c.269 0 .481-.064.634-.192.16-.128.24-.308.24-.538 0-.23-.076-.41-.23-.538-.154-.135-.368-.202-.644-.202h-1.441v1.47zM105.659 69v-5.284h.807v1.94h.432c.57 0 1.019.151 1.345.452.333.295.5.702.5 1.22 0 .52-.167.93-.5 1.23-.326.295-.775.442-1.345.442h-1.239zm.807-.692h.432c.34 0 .602-.086.788-.26.192-.172.288-.412.288-.72 0-.307-.096-.547-.288-.72-.186-.173-.448-.26-.788-.26h-.432v1.96zm2.901.692v-5.284h.807V69h-.807zm1.991 0l-.019-5.284h.807v4.63h1.124v-4.63h.692v4.63h1.114v-4.63h.797V69h-4.515zm7.938.096a2.3 2.3 0 01-1.095-.25 1.806 1.806 0 01-.721-.701 2.21 2.21 0 01-.25-1.066v-1.441c0-.41.084-.766.25-1.067.173-.3.413-.534.721-.701a2.3 2.3 0 011.095-.25c.416 0 .778.084 1.085.25.314.167.554.4.721.701.173.301.259.657.259 1.067v.931h-3.285v.51c0 .416.105.736.317.96.211.218.512.327.903.327.333 0 .602-.058.807-.173a.76.76 0 00.374-.538h.865a1.472 1.472 0 01-.653 1.057c-.372.256-.836.384-1.393.384zm1.22-3.103v-.355c0-.417-.106-.737-.317-.961-.205-.224-.506-.336-.903-.336-.391 0-.692.112-.903.336-.212.224-.317.544-.317.96v.28h2.507l-.067.076zm2.49 3.007v-5.284h.865v2.2h2.229v-2.2h.864V69h-.864v-2.296h-2.229V69h-.865zm5.69 0v-5.284h.826v2.882c0 .186-.006.381-.019.586a8.08 8.08 0 01-.038.586 6.36 6.36 0 01-.048.462l2.132-4.516h1.105V69h-.826v-2.882c0-.186.003-.381.01-.586.012-.205.028-.4.048-.586l.048-.47L129.801 69h-1.105zm5.363 0l1.355-2.037c-.404-.096-.718-.281-.942-.557-.218-.275-.326-.618-.326-1.028 0-.519.169-.925.509-1.22.346-.294.816-.442 1.412-.442h2.277V69h-.865v-1.97h-1.162L135.068 69h-1.009zm2.008-2.738h1.412v-1.777h-1.412c-.32 0-.573.08-.759.24-.186.154-.279.372-.279.653 0 .276.093.493.279.653.186.154.439.231.759.231zM14.932 88v-5.284h.864v2.181h.904l1.537-2.18h.99l-1.778 2.516L19.255 88h-1.009l-1.537-2.354h-.912V88h-.865zm7.64.077c-.423 0-.788-.08-1.095-.24a1.744 1.744 0 01-.721-.692c-.166-.307-.25-.67-.25-1.086v-1.402c0-.423.084-.785.25-1.086.173-.3.413-.531.72-.691.308-.16.673-.24 1.096-.24.422 0 .787.08 1.095.24.307.16.544.39.71.691.174.301.26.66.26 1.076v1.412c0 .417-.086.779-.26 1.086a1.683 1.683 0 01-.71.692c-.308.16-.673.24-1.095.24zm0-.769c.378 0 .672-.105.884-.317.21-.211.317-.522.317-.932v-1.402c0-.41-.106-.72-.317-.932-.212-.211-.506-.317-.884-.317-.372 0-.666.106-.884.317-.211.211-.317.522-.317.932v1.402c0 .41.106.72.317.932.218.212.512.317.884.317zm3.71.692v-5.284h.865v2.2h2.229v-2.2h.864V88h-.864v-2.296h-2.229V88h-.865zm5.69 0v-5.284h2.286c.551 0 .977.125 1.278.375.301.243.452.586.452 1.028 0 .365-.125.66-.375.884-.25.217-.58.326-.99.326v-.076c.449 0 .807.112 1.076.336.276.224.413.525.413.903 0 .474-.16.845-.48 1.114-.32.263-.768.394-1.345.394h-2.315zm.845-.759h1.47c.308 0 .545-.067.711-.202.173-.134.26-.323.26-.567 0-.25-.087-.441-.26-.576-.166-.134-.403-.202-.71-.202h-1.47v1.547zm0-2.296h1.441c.27 0 .48-.064.634-.192.16-.128.24-.308.24-.538 0-.23-.076-.41-.23-.538-.154-.135-.368-.202-.644-.202h-1.44v1.47zm6.824 3.151c-.417 0-.782-.083-1.096-.25a1.807 1.807 0 01-.72-.701 2.204 2.204 0 01-.25-1.066v-1.441c0-.41.083-.766.25-1.067.173-.3.413-.534.72-.701.314-.166.68-.25 1.096-.25.416 0 .778.084 1.085.25.314.166.554.4.72.701.174.301.26.657.26 1.067v.931h-3.285v.51c0 .416.105.736.317.96.211.218.512.327.903.327.333 0 .602-.058.807-.173a.763.763 0 00.374-.538h.865a1.472 1.472 0 01-.653 1.057c-.372.256-.836.384-1.393.384zm1.22-3.103v-.355c0-.417-.106-.737-.317-.961-.205-.224-.506-.336-.903-.336-.391 0-.692.112-.903.336-.212.224-.317.544-.317.96v.28h2.507l-.067.076zm2.471 4.736v-7.013h.865v1.009h.173l-.173.202c0-.404.131-.72.394-.951.269-.237.62-.356 1.056-.356.532 0 .955.176 1.268.529.32.345.48.823.48 1.431v1.547c0 .403-.073.752-.22 1.047a1.577 1.577 0 01-.605.682c-.257.16-.564.24-.923.24-.429 0-.778-.118-1.047-.355-.269-.237-.403-.554-.403-.951l.173.201h-.192l.019 1.201v1.537h-.865zm2.027-2.382c.365 0 .65-.11.855-.327.212-.218.317-.531.317-.941v-1.441c0-.41-.105-.724-.317-.942-.205-.218-.49-.326-.855-.326-.352 0-.634.112-.845.336-.212.224-.317.535-.317.932v1.44c0 .398.105.708.317.932.211.225.493.337.845.337zm5.68.75c-.422 0-.794-.081-1.114-.241a1.73 1.73 0 01-.73-.692c-.173-.307-.26-.67-.26-1.085v-1.441c0-.423.087-.785.26-1.086a1.73 1.73 0 01.73-.692c.32-.16.692-.24 1.114-.24.609 0 1.099.163 1.47.49.371.327.567.772.586 1.335h-.865c-.019-.339-.134-.598-.345-.778-.205-.185-.487-.278-.846-.278-.378 0-.679.109-.903.326-.224.212-.336.516-.336.913v1.45c0 .398.112.705.336.923.224.218.525.326.903.326.359 0 .64-.092.846-.278.21-.186.326-.445.345-.778h.865c-.02.563-.215 1.008-.586 1.335-.371.327-.861.49-1.47.49zM54.731 88v-5.284h.826v2.882c0 .186-.007.381-.02.586-.006.205-.019.4-.038.586a6.36 6.36 0 01-.048.462l2.133-4.516h1.105V88h-.827v-2.882c0-.186.004-.381.01-.586.013-.205.029-.4.048-.586l.048-.47L55.835 88h-1.104zm5.69 0v-5.284h.825v2.882c0 .186-.006.381-.019.586-.006.205-.019.4-.038.586a6.1 6.1 0 01-.048.462l2.133-4.516h1.104V88h-.826v-2.882c0-.186.003-.381.01-.586.013-.205.029-.4.048-.586l.048-.47L61.525 88H60.42zm7.668.096c-.243 0-.439-.07-.586-.211-.141-.141-.211-.33-.211-.567 0-.25.07-.448.21-.596.148-.147.344-.22.587-.22s.435.073.576.22c.148.148.221.346.221.596 0 .237-.073.426-.22.567-.142.14-.334.211-.577.211z" fill="#000"/><defs><filter id="filter0_d_441_1236" x=".157" y="0" width="179.685" height="144.685" filterUnits="userSpaceOnUse" color-interpolation-filters="sRGB"><feFlood flood-opacity="0" result="BackgroundImageFix"/><feColorMatrix in="SourceAlpha" values="0 0 0 0 0 0 0 0 0 0 0 0 0 0 0 0 0 0 127 0" result="hardAlpha"/><feOffset dy="3.843"/><feGaussianBlur stdDeviation="1.921"/><feComposite in2="hardAlpha" operator="out"/><feColorMatrix values="0 0 0 0 0 0 0 0 0 0 0 0 0 0 0 0 0 0 0.25 0"/><feBlend in2="BackgroundImageFix" result="effect1_dropShadow_441_1236"/><feBlend in="SourceGraphic" in2="effect1_dropShadow_441_1236" result="shape"/></filter></defs></svg>