<svg width="153" height="173" fill="none" xmlns="http://www.w3.org/2000/svg"><rect x=".421" y=".421" width="152.158" height="172.158" rx="19.579" fill="url(#paint0_linear_2004_60)" fill-opacity=".53" stroke="url(#paint1_linear_2004_60)" stroke-width=".842"/><mask id="a" style="mask-type:alpha" maskUnits="userSpaceOnUse" x="0" y="0" width="153" height="172"><rect x=".421" y=".421" width="152.158" height="171.158" rx="19.579" fill="url(#paint2_linear_2004_60)" fill-opacity=".53" stroke="url(#paint3_linear_2004_60)" stroke-width=".842"/></mask><g filter="url(#filter0_f_2004_60)" mask="url(#a)"><path d="M10 199.914c-5.136 0-9.511-1.398-13.125-4.193-3.614-2.818-6.375-6.898-8.284-12.239-1.91-5.363-2.864-11.841-2.864-19.432 0-7.545.955-13.988 2.864-19.329 1.932-5.364 4.704-9.455 8.318-12.273 3.636-2.841 8-4.261 13.091-4.261 5.09 0 9.443 1.42 13.057 4.261 3.636 2.818 6.409 6.909 8.318 12.273 1.932 5.341 2.898 11.784 2.898 19.329 0 7.591-.955 14.069-2.864 19.432-1.909 5.341-4.67 9.421-8.284 12.239-3.614 2.795-7.989 4.193-13.125 4.193zm0-7.5c5.09 0 9.046-2.455 11.864-7.364 2.818-4.909 4.227-11.909 4.227-21 0-6.045-.648-11.193-1.943-15.443-1.273-4.25-3.114-7.488-5.523-9.716-2.386-2.227-5.261-3.341-8.625-3.341-5.045 0-8.989 2.489-11.83 7.466-2.84 4.955-4.26 11.966-4.26 21.034 0 6.046.635 11.182 1.908 15.409 1.273 4.228 3.102 7.444 5.489 9.648 2.409 2.205 5.307 3.307 8.693 3.307zm61.773-63.273v69.818h-8.455v-60.954h-.409l-17.045 11.318v-8.591l17.454-11.591h8.455z" fill="#CCEC60"/></g><path d="M12.932 39l.9-2.22-2.532-6.54h1.944l1.152 3.564c.064.192.12.412.168.66.056.248.096.452.12.612.016-.16.044-.364.084-.612.048-.256.1-.476.156-.66l1.092-3.564H17.9L14.816 39h-1.884zm6.043 0v-6.6h2.988c.808 0 1.448.164 1.92.492.48.32.72.756.72 1.308 0 .44-.18.796-.54 1.068-.36.264-.836.396-1.428.396v-.12c.648 0 1.164.144 1.548.432.392.288.588.668.588 1.14 0 .584-.24 1.044-.72 1.38-.472.336-1.116.504-1.932.504h-3.144zm1.764-1.272h1.296c.296 0 .532-.068.708-.204a.671.671 0 00.276-.552.694.694 0 00-.276-.576c-.176-.144-.412-.216-.708-.216H20.74v1.548zm0-2.604h1.236c.272 0 .488-.064.648-.192a.66.66 0 00.24-.528.674.674 0 00-.24-.54c-.16-.136-.376-.204-.648-.204H20.74v1.464zm8.264 3.996c-.584 0-1.096-.108-1.536-.324a2.505 2.505 0 01-1.008-.924c-.232-.4-.348-.864-.348-1.392v-1.56c0-.528.116-.988.348-1.38.24-.4.576-.708 1.008-.924.44-.224.952-.336 1.536-.336.584 0 1.088.112 1.512.336.432.216.764.524.996.924.24.392.36.852.36 1.38v1.2h-4.044v.36c0 .416.1.732.3.948.2.208.5.312.9.312.28 0 .504-.048.672-.144a.698.698 0 00.348-.396h1.764c-.144.576-.472 1.04-.984 1.392-.504.352-1.112.528-1.824.528zm1.152-3.924v-.3c0-.408-.096-.72-.288-.936-.184-.216-.472-.324-.864-.324s-.688.112-.888.336c-.192.224-.288.54-.288.948v.18l2.448-.024-.12.12zm2.683 3.888v-1.62h.36c.208 0 .38-.088.516-.264.136-.176.208-.408.216-.696l.072-4.104h4.992V39h-1.8v-4.92h-1.428l-.048 2.544c-.008.488-.116.92-.324 1.296-.2.368-.48.656-.84.864-.352.2-.764.3-1.236.3h-.48zM40.573 39v-6.6h1.584v3c0 .2-.012.452-.036.756-.024.296-.056.596-.096.9-.032.304-.068.572-.108.804l2.088-5.46h2.184V39h-1.584v-3c0-.208.012-.444.036-.708.024-.272.052-.544.084-.816.032-.272.064-.504.096-.696L42.757 39h-2.184zm10.964 0v-2.1a5.583 5.583 0 01-.456.084c-.2.024-.428.036-.684.036-.872 0-1.56-.216-2.064-.648-.504-.44-.756-1.044-.756-1.812V32.4h1.8v2.04c0 .296.108.532.324.708.216.168.508.252.876.252.224 0 .42-.012.588-.036.176-.032.3-.06.372-.084V32.4h1.8V39h-1.8zm3.427 0v-6.6h1.584v3c0 .2-.012.452-.036.756-.024.296-.056.596-.096.9-.032.304-.068.572-.108.804l2.088-5.46h2.184V39h-1.584v-3c0-.208.012-.444.036-.708.024-.272.052-.544.084-.816.032-.272.064-.504.096-.696L57.148 39h-2.184zm9.103 0v-4.92h-2.16V32.4h6.12v1.68h-2.16V39h-1.8zm5.336 0v-6.6h1.8v1.98h1.547c.832 0 1.48.208 1.945.624.472.408.708.976.708 1.704 0 .704-.24 1.264-.72 1.68-.473.408-1.113.612-1.92.612h-3.36zm1.8-1.56h1.44c.303 0 .535-.064.695-.192a.673.673 0 00.253-.552c0-.24-.084-.424-.252-.552-.16-.136-.392-.204-.697-.204h-1.44v1.5zm15.35 1.68c-.584 0-1.092-.108-1.524-.324a2.505 2.505 0 01-1.008-.924c-.232-.4-.348-.864-.348-1.392v-1.56c0-.528.116-.988.348-1.38.24-.4.576-.708 1.008-.924.432-.224.94-.336 1.524-.336.592 0 1.1.112 1.524.336.432.216.764.524.996.924.24.392.36.852.36 1.38v1.56c0 .528-.12.992-.36 1.392-.232.392-.564.7-.996.924-.424.216-.932.324-1.524.324zm0-1.56c.352 0 .62-.092.804-.276.184-.192.276-.46.276-.804v-1.56c0-.352-.092-.62-.276-.804-.184-.184-.452-.276-.804-.276-.344 0-.612.092-.804.276-.184.184-.276.452-.276.804v1.56c0 .344.092.612.276.804.192.184.46.276.804.276zM90.94 39v-6.6h1.8v2.412h2.016V32.4h1.8V39h-1.8v-2.508H92.74V39h-1.8zm6.656.084v-1.62h.36c.208 0 .38-.088.516-.264.136-.176.208-.408.216-.696l.072-4.104h4.992V39h-1.8v-4.92h-1.428l-.048 2.544c-.008.488-.116.92-.324 1.296-.2.368-.48.656-.84.864-.352.2-.764.3-1.236.3h-.48zm9.691.036c-.664 0-1.192-.18-1.584-.54-.384-.36-.576-.848-.576-1.464 0-.664.228-1.172.684-1.524.464-.36 1.128-.54 1.992-.54h1.368v-.492a.753.753 0 00-.276-.612c-.176-.152-.416-.228-.72-.228-.28 0-.512.064-.696.192a.787.787 0 00-.336.528h-1.74c.072-.664.36-1.188.864-1.572.512-.392 1.168-.588 1.968-.588.84 0 1.504.208 1.992.624.496.408.744.96.744 1.656V39h-1.74v-1.08h-.288l.3-.42c0 .496-.18.892-.54 1.188-.352.288-.824.432-1.416.432zm.672-1.32c.352 0 .64-.092.864-.276a.921.921 0 00.348-.744v-.708h-1.332c-.272 0-.492.08-.66.24-.168.152-.252.356-.252.612 0 .272.092.488.276.648.184.152.436.228.756.228zm4.567 1.2v-6.6h1.584v3c0 .2-.012.452-.036.756-.024.296-.056.596-.096.9-.032.304-.068.572-.108.804l2.088-5.46h2.184V39h-1.584v-3c0-.208.012-.444.036-.708.024-.272.052-.544.084-.816.032-.272.064-.504.096-.696L114.71 39h-2.184zm2.856-7.62c-.656 0-1.192-.164-1.608-.492a1.615 1.615 0 01-.612-1.308h1.38c0 .224.076.408.228.552.16.136.364.204.612.204.256 0 .46-.068.612-.204a.727.727 0 00.228-.552h1.38c0 .536-.204.972-.612 1.308-.408.328-.944.492-1.608.492zm4.34 7.62v-6.6h1.8v2.412h2.016V32.4h1.8V39h-1.8v-2.508h-2.016V39h-1.8zm8.083-3.12V34.2h3.84v1.68h-3.84zM11.792 55v-6.6h5.616V55h-1.8v-4.92h-2.016V55h-1.8zm7.195 2.16V48.4h1.74v1.26h.42l-.42.42c0-.568.156-1.008.468-1.32.312-.32.74-.48 1.284-.48.664 0 1.196.236 1.596.708.4.464.6 1.088.6 1.872v1.68c0 .52-.092.976-.276 1.368a2.093 2.093 0 01-.756.9c-.328.208-.716.312-1.164.312-.544 0-.972-.156-1.284-.468-.312-.32-.468-.764-.468-1.332l.42.42h-.42l.06 1.62v1.8h-1.8zm2.844-3.6c.336 0 .592-.092.768-.276.184-.192.276-.46.276-.804v-1.56c0-.352-.092-.62-.276-.804-.176-.184-.432-.276-.768-.276-.328 0-.584.096-.768.288-.184.184-.276.448-.276.792v1.56c0 .344.092.612.276.804.184.184.44.276.768.276zm7.16 1.56c-.584 0-1.092-.108-1.524-.324a2.505 2.505 0 01-1.008-.924c-.232-.4-.348-.864-.348-1.392v-1.56c0-.528.116-.988.348-1.38.24-.4.576-.708 1.008-.924.432-.224.94-.336 1.524-.336.592 0 1.1.112 1.524.336.432.216.764.524.996.924.24.392.36.852.36 1.38v1.56c0 .528-.12.992-.36 1.392-.232.392-.564.7-.996.924-.424.216-.932.324-1.524.324zm0-1.56c.352 0 .62-.092.804-.276.184-.192.276-.46.276-.804v-1.56c0-.352-.092-.62-.276-.804-.184-.184-.452-.276-.804-.276-.344 0-.612.092-.804.276-.184.184-.276.452-.276.804v1.56c0 .344.092.612.276.804.192.184.46.276.804.276zm3.859 3.12v-3.204h.372c.136-.136.276-.372.42-.708.152-.344.232-.76.24-1.248l.06-3.12h4.86v5.076h.72v3.204h-1.68V55H34.53v1.68h-1.68zm2.16-3.204h2.112v-3.528h-1.524l-.036 1.56a3.767 3.767 0 01-.204 1.224c-.12.344-.236.592-.348.744zm7.52 1.644c-.665 0-1.193-.18-1.585-.54-.384-.36-.576-.848-.576-1.464 0-.664.228-1.172.684-1.524.464-.36 1.128-.54 1.992-.54h1.368v-.492a.753.753 0 00-.276-.612c-.176-.152-.416-.228-.72-.228-.28 0-.512.064-.696.192a.787.787 0 00-.336.528h-1.74c.072-.664.36-1.188.864-1.572.512-.392 1.168-.588 1.968-.588.84 0 1.504.208 1.992.624.496.408.744.96.744 1.656V55h-1.74v-1.08h-.288l.3-.42c0 .496-.18.892-.54 1.188-.352.288-.824.432-1.416.432zm.671-1.32c.352 0 .64-.092.864-.276a.921.921 0 00.348-.744v-.708h-1.332c-.272 0-.492.08-.66.24-.168.152-.252.356-.252.612 0 .272.092.488.276.648.184.152.436.228.756.228zm3.812 1.2l1.26-3.384-1.164-3.216h1.56l.972 2.94h.324V48.4h1.224v2.94h.324l1.068-2.94h1.464l-1.164 3.18L54.14 55h-1.512l-1.104-3.06h-.336V55h-1.224v-3.06h-.348L48.609 55h-1.596zm7.95 0v-6.6h1.585v3c0 .2-.012.452-.036.756-.024.296-.056.596-.096.9-.032.304-.068.572-.108.804l2.088-5.46h2.184V55h-1.584v-3c0-.208.012-.444.036-.708.024-.272.052-.544.084-.816.032-.272.064-.504.096-.696L57.148 55h-2.184zm18.16 0v-2.1a5.583 5.583 0 01-.457.084c-.2.024-.427.036-.683.036-.873 0-1.56-.216-2.065-.648-.504-.44-.756-1.044-.756-1.812V48.4h1.8v2.04c0 .296.108.532.325.708.215.168.507.252.875.252.224 0 .42-.012.588-.036.177-.032.3-.06.373-.084V48.4h1.8V55h-1.8zm6.247.12c-.584 0-1.096-.108-1.536-.324a2.505 2.505 0 01-1.008-.924c-.232-.4-.348-.864-.348-1.392v-1.56c0-.528.116-.988.348-1.38.24-.4.576-.708 1.008-.924.44-.224.952-.336 1.536-.336.584 0 1.088.112 1.512.336.432.216.764.524.996.924.24.392.36.852.36 1.38v1.2h-4.044v.36c0 .416.1.732.3.948.2.208.5.312.9.312.28 0 .504-.048.672-.144a.698.698 0 00.348-.396h1.764c-.144.576-.472 1.04-.984 1.392-.504.352-1.112.528-1.824.528zm1.152-3.924v-.3c0-.408-.096-.72-.288-.936-.184-.216-.472-.324-.864-.324s-.688.112-.888.336c-.192.224-.288.54-.288.948v.18l2.448-.024-.12.12zm3.223 5.964V48.4h1.74v1.26h.42l-.42.42c0-.568.156-1.008.468-1.32.312-.32.74-.48 1.284-.48.664 0 1.196.236 1.596.708.4.464.6 1.088.6 1.872v1.68c0 .52-.092.976-.276 1.368a2.093 2.093 0 01-.756.9c-.328.208-.716.312-1.164.312-.544 0-.972-.156-1.284-.468-.312-.32-.468-.764-.468-1.332l.42.42h-.42l.06 1.62v1.8h-1.8zm2.844-3.6c.336 0 .592-.092.768-.276.184-.192.276-.46.276-.804v-1.56c0-.352-.092-.62-.276-.804-.176-.184-.432-.276-.768-.276-.328 0-.584.096-.768.288-.184.184-.276.448-.276.792v1.56c0 .344.092.612.276.804.184.184.44.276.768.276zm7.171 1.56c-.584 0-1.096-.108-1.536-.324a2.505 2.505 0 01-1.008-.924c-.232-.4-.348-.864-.348-1.392v-1.56c0-.528.116-.988.348-1.38.24-.4.576-.708 1.008-.924.44-.224.952-.336 1.536-.336.584 0 1.088.112 1.512.336.432.216.764.524.996.924.24.392.36.852.36 1.38v1.2h-4.044v.36c0 .416.1.732.3.948.2.208.5.312.9.312.28 0 .504-.048.672-.144a.698.698 0 00.348-.396h1.764c-.144.576-.472 1.04-.984 1.392-.504.352-1.112.528-1.824.528zm1.152-3.924v-.3c0-.408-.096-.72-.288-.936-.184-.216-.472-.324-.864-.324s-.688.112-.888.336c-.192.224-.288.54-.288.948v.18l2.448-.024-.12.12zm5.696 3.888c-.736 0-1.348-.18-1.836-.54a2.206 2.206 0 01-.888-1.464h1.74a.79.79 0 00.348.444c.176.104.388.156.636.156h.684c.264 0 .472-.06.624-.18a.64.64 0 00.228-.516.593.593 0 00-.228-.492c-.152-.12-.36-.18-.624-.18h-1.548v-1.368h1.476c.248 0 .44-.052.576-.156a.56.56 0 00.204-.456.557.557 0 00-.096-.336.536.536 0 00-.264-.204 1.07 1.07 0 00-.42-.072h-.552a1.1 1.1 0 00-.624.168.751.751 0 00-.336.432h-1.74c.104-.616.396-1.104.876-1.464.48-.36 1.088-.54 1.824-.54h.552c.528 0 .984.076 1.368.228.384.144.68.352.888.624.208.264.312.58.312.948 0 .44-.168.796-.504 1.068-.328.272-.764.408-1.308.408v-.12c.592 0 1.068.152 1.428.456.36.296.54.692.54 1.188 0 .6-.24 1.08-.72 1.44-.48.352-1.124.528-1.932.528h-.684zM11.792 71v-6.6h1.8v2.412h2.016V64.4h1.8V71h-1.8v-2.508h-2.016V71h-1.8zm10.003.12c-.584 0-1.092-.108-1.524-.324a2.505 2.505 0 01-1.008-.924c-.232-.4-.348-.864-.348-1.392v-1.56c0-.528.116-.988.348-1.38.24-.4.576-.708 1.008-.924.432-.224.94-.336 1.524-.336.592 0 1.1.112 1.524.336.432.216.764.524.996.924.24.392.36.852.36 1.38v1.56c0 .528-.12.992-.36 1.392-.232.392-.564.7-.996.924-.424.216-.932.324-1.524.324zm0-1.56c.352 0 .62-.092.804-.276.184-.192.276-.46.276-.804v-1.56c0-.352-.092-.62-.276-.804-.184-.184-.452-.276-.804-.276-.344 0-.612.092-.804.276-.184.184-.276.452-.276.804v1.56c0 .344.092.612.276.804.192.184.46.276.804.276zM26.171 71v-6.6h2.988c.808 0 1.448.164 1.92.492.48.32.72.756.72 1.308 0 .44-.18.796-.54 1.068-.36.264-.836.396-1.428.396v-.12c.648 0 1.164.144 1.548.432.392.288.588.668.588 1.14 0 .584-.24 1.044-.72 1.38-.472.336-1.116.504-1.932.504H26.17zm1.764-1.272h1.296c.296 0 .532-.068.708-.204a.671.671 0 00.276-.552.694.694 0 00-.276-.576c-.176-.144-.412-.216-.708-.216h-1.296v1.548zm0-2.604h1.236c.272 0 .488-.064.648-.192a.66.66 0 00.24-.528.674.674 0 00-.24-.54c-.16-.136-.376-.204-.648-.204h-1.236v1.464zM33.065 71v-6.6h1.5v2.1h.36c.713 0 1.28.208 1.705.624.424.416.636.972.636 1.668 0 .664-.216 1.2-.648 1.608-.424.4-.988.6-1.692.6h-1.86zm1.5-1.38h.36c.289 0 .509-.072.66-.216.16-.144.24-.352.24-.624 0-.288-.08-.508-.24-.66-.151-.16-.371-.24-.66-.24h-.36v1.74zm3.24 1.38v-6.6h1.5V71h-1.5zm2.768 0v-6.6h1.584v3c0 .2-.012.452-.036.756-.024.296-.056.596-.096.9-.032.304-.068.572-.108.804l2.088-5.46h2.184V71h-1.584v-3c0-.208.012-.444.036-.708.024-.272.052-.544.084-.816.032-.272.064-.504.096-.696L42.757 71h-2.184zm2.856-7.62c-.656 0-1.192-.164-1.608-.492a1.615 1.615 0 01-.612-1.308h1.38c0 .224.076.408.228.552.16.136.364.204.612.204.256 0 .46-.068.612-.204a.727.727 0 00.228-.552h1.38c0 .536-.204.972-.612 1.308-.408.328-.944.492-1.608.492zM55 71v-6.6h1.8v2.496h.889l1.38-2.496h2.004l-1.836 3.228L61.108 71h-2.04l-1.392-2.592H56.8V71H55zm9.116.12c-.664 0-1.192-.18-1.584-.54-.384-.36-.576-.848-.576-1.464 0-.664.228-1.172.684-1.524.464-.36 1.128-.54 1.992-.54H66v-.492a.753.753 0 00-.276-.612c-.176-.152-.416-.228-.72-.228-.28 0-.512.064-.696.192a.787.787 0 00-.336.528h-1.74c.072-.664.36-1.188.864-1.572.512-.392 1.168-.588 1.968-.588.84 0 1.504.208 1.992.624.496.408.744.96.744 1.656V71h-1.74v-1.08h-.288l.3-.42c0 .496-.18.892-.54 1.188-.352.288-.824.432-1.416.432zm.672-1.32c.352 0 .64-.092.864-.276A.921.921 0 0066 68.78v-.708h-1.332c-.272 0-.492.08-.66.24-.168.152-.252.356-.252.612 0 .272.092.488.276.648.184.152.436.228.756.228zm4.567 1.2v-6.6h1.8v2.412h2.017V64.4h1.8V71h-1.8v-2.508h-2.017V71h-1.8zm9.152.12c-.664 0-1.192-.18-1.584-.54-.384-.36-.576-.848-.576-1.464 0-.664.228-1.172.684-1.524.464-.36 1.128-.54 1.992-.54h1.368v-.492a.753.753 0 00-.276-.612c-.176-.152-.416-.228-.72-.228-.28 0-.512.064-.696.192a.787.787 0 00-.336.528h-1.74c.072-.664.36-1.188.864-1.572.512-.392 1.168-.588 1.968-.588.84 0 1.504.208 1.992.624.496.408.744.96.744 1.656V71h-1.74v-1.08h-.288l.3-.42c0 .496-.18.892-.54 1.188-.352.288-.824.432-1.416.432zm.672-1.32c.352 0 .64-.092.864-.276a.921.921 0 00.348-.744v-.708h-1.332c-.272 0-.492.08-.66.24-.168.152-.252.356-.252.612 0 .272.092.488.276.648.184.152.436.228.756.228zm4.027 1.284v-1.62h.36c.208 0 .38-.088.516-.264.136-.176.208-.408.216-.696l.072-4.104h4.992V71h-1.8v-4.92h-1.428l-.048 2.544c-.008.488-.116.92-.324 1.296-.2.368-.48.656-.84.864-.352.2-.764.3-1.236.3h-.48zm10.543.036c-.368 0-.664-.108-.888-.324-.216-.224-.324-.52-.324-.888 0-.376.108-.672.324-.888.224-.216.52-.324.888-.324.376 0 .672.108.888.324.216.216.324.512.324.888 0 .368-.108.664-.324.888-.216.216-.512.324-.888.324z" fill="#174756"/><defs><linearGradient id="paint0_linear_2004_60" x1="0" y1="72.893" x2="223.615" y2="72.893" gradientUnits="userSpaceOnUse"><stop stop-color="#F1FFF7"/><stop offset="1" stop-color="#C1A678"/></linearGradient><linearGradient id="paint1_linear_2004_60" x1="11.769" y1="8.747" x2="159.382" y2="151.645" gradientUnits="userSpaceOnUse"><stop stop-color="#CCEC60"/><stop offset="1" stop-color="#fff" stop-opacity=".7"/></linearGradient><linearGradient id="paint2_linear_2004_60" x1="0" y1="72.472" x2="223.615" y2="72.472" gradientUnits="userSpaceOnUse"><stop stop-color="#F1FFF7"/><stop offset="1" stop-color="#546A65"/></linearGradient><linearGradient id="paint3_linear_2004_60" x1="11.769" y1="8.697" x2="158.553" y2="151.619" gradientUnits="userSpaceOnUse"><stop stop-color="#475E59" stop-opacity=".7"/><stop offset="1" stop-color="#fff" stop-opacity=".7"/></linearGradient><filter id="filter0_f_2004_60" x="-18.273" y="124.187" width="94.045" height="79.728" filterUnits="userSpaceOnUse" color-interpolation-filters="sRGB"><feFlood flood-opacity="0" result="BackgroundImageFix"/><feBlend in="SourceGraphic" in2="BackgroundImageFix" result="shape"/><feGaussianBlur stdDeviation="2" result="effect1_foregroundBlur_2004_60"/></filter></defs></svg>