<svg width="153" height="173" fill="none" xmlns="http://www.w3.org/2000/svg"><rect x=".421" y=".421" width="152.158" height="172.158" rx="19.579" fill="url(#paint0_linear_2004_61)" fill-opacity=".53" stroke="url(#paint1_linear_2004_61)" stroke-width=".842"/><mask id="a" style="mask-type:alpha" maskUnits="userSpaceOnUse" x="0" y="0" width="153" height="172"><rect x=".421" y=".421" width="152.158" height="171.158" rx="19.579" fill="url(#paint2_linear_2004_61)" fill-opacity=".53" stroke="url(#paint3_linear_2004_61)" stroke-width=".842"/></mask><g filter="url(#filter0_f_2004_61)" mask="url(#a)"><path d="M10 199.914c-5.136 0-9.511-1.398-13.125-4.193-3.614-2.818-6.375-6.898-8.284-12.239-1.91-5.363-2.864-11.841-2.864-19.432 0-7.545.955-13.988 2.864-19.329 1.932-5.364 4.704-9.455 8.318-12.273 3.636-2.841 8-4.261 13.091-4.261 5.09 0 9.443 1.42 13.057 4.261 3.636 2.818 6.409 6.909 8.318 12.273 1.932 5.341 2.898 11.784 2.898 19.329 0 7.591-.955 14.069-2.864 19.432-1.909 5.341-4.67 9.421-8.284 12.239-3.614 2.795-7.989 4.193-13.125 4.193zm0-7.5c5.09 0 9.046-2.455 11.864-7.364 2.818-4.909 4.227-11.909 4.227-21 0-6.045-.648-11.193-1.943-15.443-1.273-4.25-3.114-7.488-5.523-9.716-2.386-2.227-5.261-3.341-8.625-3.341-5.045 0-8.989 2.489-11.83 7.466-2.84 4.955-4.26 11.966-4.26 21.034 0 6.046.635 11.182 1.908 15.409 1.273 4.228 3.102 7.444 5.489 9.648 2.409 2.205 5.307 3.307 8.693 3.307zm37.227 6.545v-6.136l23.046-25.227c2.704-2.955 4.931-5.523 6.681-7.705 1.75-2.204 3.046-4.272 3.887-6.204.864-1.955 1.295-4 1.295-6.137 0-2.454-.59-4.579-1.772-6.375-1.16-1.795-2.75-3.181-4.773-4.159-2.023-.977-4.295-1.466-6.818-1.466-2.682 0-5.023.557-7.023 1.671a11.501 11.501 0 00-4.602 4.602c-1.069 1.977-1.603 4.296-1.603 6.955H47.5c0-4.091.943-7.682 2.83-10.773 1.886-3.091 4.454-5.5 7.704-7.227 3.273-1.728 6.943-2.591 11.012-2.591 4.09 0 7.715.863 10.874 2.591 3.16 1.727 5.637 4.056 7.432 6.988 1.796 2.932 2.694 6.193 2.694 9.784 0 2.569-.467 5.08-1.398 7.534-.91 2.432-2.5 5.148-4.773 8.148-2.25 2.977-5.375 6.614-9.375 10.909l-15.682 16.773v.545h32.455v7.5H47.227z" fill="#CCEC60"/></g><path d="M10.6 39.12c-.584 0-1.092-.108-1.524-.324a2.505 2.505 0 01-1.008-.924c-.232-.4-.348-.864-.348-1.392v-3.72c0-.528.116-.988.348-1.38.24-.4.576-.708 1.008-.924.432-.224.94-.336 1.524-.336.592 0 1.1.112 1.524.336.432.216.764.524.996.924.24.392.36.852.36 1.38v3.72c0 .528-.12.992-.36 1.392-.232.392-.564.7-.996.924-.424.216-.932.324-1.524.324zm0-1.56c.36 0 .628-.092.804-.276.184-.192.276-.46.276-.804v-3.72c0-.352-.088-.62-.264-.804-.176-.184-.448-.276-.816-.276-.368 0-.64.092-.816.276-.176.184-.264.452-.264.804v3.72c0 .344.088.612.264.804.184.184.456.276.816.276zm7.195 1.56c-.88-.016-1.58-.256-2.1-.72-.52-.472-.78-1.112-.78-1.92v-2.94c0-1.056.296-1.868.888-2.436.592-.576 1.436-.864 2.532-.864h1.98v1.74h-1.98c-.528 0-.932.132-1.212.396-.272.264-.408.652-.408 1.164v.84h.168l-.144.168c-.008-.448.136-.804.432-1.068.304-.272.736-.408 1.296-.408.696 0 1.236.228 1.62.684.392.456.588 1.088.588 1.896v.828c0 .536-.12 1.008-.36 1.416-.232.4-.564.708-.996.924-.424.208-.932.308-1.524.3zm0-1.56c.352 0 .62-.092.804-.276.184-.192.276-.46.276-.804v-.828c0-.352-.092-.62-.276-.804-.184-.184-.452-.276-.804-.276-.344 0-.612.092-.804.276-.184.184-.276.452-.276.804v.828c0 .344.092.612.276.804.192.184.46.276.804.276zm7.208 1.56c-.584 0-1.096-.108-1.536-.324a2.505 2.505 0 01-1.008-.924c-.232-.4-.348-.864-.348-1.392v-1.56c0-.528.116-.988.348-1.38.24-.4.576-.708 1.008-.924.44-.224.952-.336 1.536-.336.584 0 1.088.112 1.512.336.432.216.764.524.996.924.24.392.36.852.36 1.38v1.2h-4.044v.36c0 .416.1.732.3.948.2.208.5.312.9.312.28 0 .504-.048.672-.144a.698.698 0 00.348-.396h1.764c-.144.576-.472 1.04-.984 1.392-.504.352-1.112.528-1.824.528zm1.152-3.924v-.3c0-.408-.096-.72-.288-.936-.184-.216-.472-.324-.864-.324s-.688.112-.888.336c-.192.224-.288.54-.288.948v.18l2.448-.024-.12.12zm6.067 3.924c-.584 0-1.096-.108-1.536-.324a2.488 2.488 0 01-1.02-.924c-.24-.4-.36-.864-.36-1.392v-1.56c0-.536.12-1 .36-1.392.24-.392.58-.696 1.02-.912.44-.224.952-.336 1.536-.336.872 0 1.568.22 2.088.66.52.44.796 1.04.828 1.8h-1.8a.904.904 0 00-.336-.66c-.192-.16-.452-.24-.78-.24-.36 0-.636.092-.828.276-.192.184-.288.452-.288.804v1.56c0 .344.096.612.288.804.192.184.468.276.828.276.328 0 .588-.076.78-.228.2-.16.312-.384.336-.672h1.8c-.032.76-.308 1.36-.828 1.8-.52.44-1.216.66-2.088.66zm4.351-.12v-6.6h5.616V39h-1.8v-4.92h-2.016V39h-1.8zm10.016.12c-.584 0-1.096-.108-1.536-.324a2.505 2.505 0 01-1.008-.924c-.232-.4-.348-.864-.348-1.392v-1.56c0-.528.116-.988.348-1.38.24-.4.576-.708 1.008-.924.44-.224.952-.336 1.536-.336.584 0 1.088.112 1.512.336.432.216.764.524.996.924.24.392.36.852.36 1.38v1.2h-4.044v.36c0 .416.1.732.3.948.2.208.5.312.9.312.28 0 .504-.048.672-.144a.698.698 0 00.348-.396h1.764c-.144.576-.472 1.04-.984 1.392-.504.352-1.112.528-1.824.528zm1.152-3.924v-.3c0-.408-.096-.72-.288-.936-.184-.216-.472-.324-.864-.324s-.688.112-.888.336c-.192.224-.288.54-.288.948v.18l2.448-.024-.12.12zM54.73 39v-2.1a5.583 5.583 0 01-.455.084c-.2.024-.428.036-.684.036-.872 0-1.56-.216-2.064-.648-.504-.44-.756-1.044-.756-1.812V32.4h1.8v2.04c0 .296.108.532.324.708.216.168.508.252.876.252.224 0 .42-.012.588-.036.176-.032.3-.06.372-.084V32.4h1.8V39h-1.8zm3.428 0v-6.6h1.584v3c0 .2-.012.452-.036.756-.024.296-.056.596-.096.9-.032.304-.068.572-.108.804l2.088-5.46h2.184V39H62.19v-3c0-.208.012-.444.036-.708.024-.272.052-.544.084-.816.032-.272.064-.504.096-.696L60.343 39H58.16zm9.104 0v-4.92h-2.16V32.4h6.12v1.68h-2.16V39h-1.8zm5.335 0v-6.6h1.8v1.98h1.548c.832 0 1.48.208 1.944.624.472.408.708.976.708 1.704 0 .704-.24 1.264-.72 1.68-.472.408-1.112.612-1.92.612h-3.36zm1.8-1.56h1.44c.304 0 .536-.064.696-.192a.673.673 0 00.252-.552c0-.24-.084-.424-.252-.552-.16-.136-.392-.204-.696-.204h-1.44v1.5zm13.634 3.72l.9-2.484L86.46 32.4h1.956l.996 2.88c.072.216.144.48.216.792.08.304.14.552.18.744.04-.192.096-.44.168-.744.08-.312.156-.576.228-.792l.96-2.88h1.872l-3.12 8.76h-1.884zm5.576-.48v-3.204h.372c.136-.136.276-.372.42-.708.152-.344.232-.76.24-1.248l.06-3.12h4.86v5.076h.72v3.204H98.6V39h-3.312v1.68h-1.68zm2.16-3.204h2.112v-3.528h-1.524l-.036 1.56a3.767 3.767 0 01-.204 1.224c-.12.344-.236.592-.348.744zm8.371 1.644c-.584 0-1.092-.108-1.524-.324a2.505 2.505 0 01-1.008-.924c-.232-.4-.348-.864-.348-1.392v-1.56c0-.528.116-.988.348-1.38.24-.4.576-.708 1.008-.924.432-.224.94-.336 1.524-.336.592 0 1.1.112 1.524.336.432.216.764.524.996.924.24.392.36.852.36 1.38v1.56c0 .528-.12.992-.36 1.392-.232.392-.564.7-.996.924-.424.216-.932.324-1.524.324zm0-1.56c.352 0 .62-.092.804-.276.184-.192.276-.46.276-.804v-1.56c0-.352-.092-.62-.276-.804-.184-.184-.452-.276-.804-.276-.344 0-.612.092-.804.276-.184.184-.276.452-.276.804v1.56c0 .344.092.612.276.804.192.184.46.276.804.276zm7.195 1.56c-.88-.016-1.58-.256-2.1-.72-.52-.472-.78-1.112-.78-1.92v-2.94c0-1.056.296-1.868.888-2.436.592-.576 1.436-.864 2.532-.864h1.98v1.74h-1.98c-.528 0-.932.132-1.212.396-.272.264-.408.652-.408 1.164v.84h.168l-.144.168c-.008-.448.136-.804.432-1.068.304-.272.736-.408 1.296-.408.696 0 1.236.228 1.62.684.392.456.588 1.088.588 1.896v.828c0 .536-.12 1.008-.36 1.416-.232.4-.564.708-.996.924-.424.208-.932.308-1.524.3zm0-1.56c.352 0 .62-.092.804-.276.184-.192.276-.46.276-.804v-.828c0-.352-.092-.62-.276-.804-.184-.184-.452-.276-.804-.276-.344 0-.612.092-.804.276-.184.184-.276.452-.276.804v.828c0 .344.092.612.276.804.192.184.46.276.804.276zm4.388 1.44v-6.6h1.8v2.412h2.016V32.4h1.8V39h-1.8v-2.508h-2.016V39h-1.8zm6.883 0v-6.6h1.5v2.1h.36c.712 0 1.28.208 1.704.624.424.416.636.972.636 1.668 0 .664-.216 1.2-.648 1.608-.424.4-.988.6-1.692.6h-1.86zm1.5-1.38h.36c.288 0 .508-.072.66-.216.16-.144.24-.352.24-.624 0-.288-.08-.508-.24-.66-.152-.16-.372-.24-.66-.24h-.36v1.74zm3.24 1.38v-6.6h1.5V39h-1.5zm2.767 0v-6.6h1.584v3c0 .2-.012.452-.036.756-.024.296-.056.596-.096.9-.032.304-.068.572-.108.804l2.088-5.46h2.184V39h-1.584v-3c0-.208.012-.444.036-.708.024-.272.052-.544.084-.816.032-.272.064-.504.096-.696L132.296 39h-2.184zm2.856-7.62c-.656 0-1.192-.164-1.608-.492a1.615 1.615 0 01-.612-1.308h1.38c0 .224.076.408.228.552.16.136.364.204.612.204.256 0 .46-.068.612-.204a.727.727 0 00.228-.552h1.38c0 .536-.204.972-.612 1.308-.408.328-.944.492-1.608.492zM7.264 56.68v-3.204h.372c.136-.136.276-.372.42-.708.152-.344.232-.76.24-1.248l.06-3.12h4.86v5.076h.72v3.204h-1.68V55H8.944v1.68h-1.68zm2.16-3.204h2.112v-3.528h-1.524l-.036 1.56a3.767 3.767 0 01-.204 1.224c-.12.344-.236.592-.348.744zm8.371 1.644c-.584 0-1.092-.108-1.524-.324a2.505 2.505 0 01-1.008-.924c-.232-.4-.348-.864-.348-1.392v-1.56c0-.528.116-.988.348-1.38.24-.4.576-.708 1.008-.924.432-.224.94-.336 1.524-.336.592 0 1.1.112 1.524.336.432.216.764.524.996.924.24.392.36.852.36 1.38v1.56c0 .528-.12.992-.36 1.392-.232.392-.564.7-.996.924-.424.216-.932.324-1.524.324zm0-1.56c.352 0 .62-.092.804-.276.184-.192.276-.46.276-.804v-1.56c0-.352-.092-.62-.276-.804-.184-.184-.452-.276-.804-.276-.344 0-.612.092-.804.276-.184.184-.276.452-.276.804v1.56c0 .344.092.612.276.804.192.184.46.276.804.276zm7.232 1.56c-.584 0-1.096-.108-1.536-.324a2.488 2.488 0 01-1.02-.924c-.24-.4-.36-.864-.36-1.392v-1.56c0-.536.12-1 .36-1.392.24-.392.58-.696 1.02-.912.44-.224.952-.336 1.536-.336.872 0 1.568.22 2.088.66.52.44.796 1.04.828 1.8h-1.8a.904.904 0 00-.336-.66c-.192-.16-.452-.24-.78-.24-.36 0-.636.092-.828.276-.192.184-.288.452-.288.804v1.56c0 .344.096.612.288.804.192.184.468.276.828.276.328 0 .588-.076.78-.228.2-.16.312-.384.336-.672h1.8c-.032.76-.308 1.36-.828 1.8-.52.44-1.216.66-2.088.66zm6.259-.12v-4.92h-2.16V48.4h6.12v1.68h-2.16V55h-1.8zm6.38 2.16l.9-2.484-2.473-6.276h1.956l.996 2.88c.072.216.144.48.216.792.08.304.14.552.18.744.04-.192.096-.44.168-.744.08-.312.156-.576.228-.792l.96-2.88h1.872l-3.12 8.76h-1.884zM43.768 55v-6.6h5.616V55h-1.8v-4.92h-2.016V55h-1.8zm14.426 0v-6.6h1.8v2.496h.888l1.38-2.496h2.004l-1.836 3.228L64.303 55h-2.04l-1.392-2.592h-.876V55h-1.8zm14.39 0v-6.6h1.8v2.496h.889l1.38-2.496h2.004l-1.836 3.228L78.694 55h-2.04l-1.392-2.592h-.876V55h-1.8zm9.116.12c-.664 0-1.192-.18-1.584-.54-.384-.36-.576-.848-.576-1.464 0-.664.228-1.172.684-1.524.464-.36 1.128-.54 1.992-.54h1.368v-.492a.753.753 0 00-.276-.612c-.176-.152-.416-.228-.72-.228-.28 0-.512.064-.696.192a.787.787 0 00-.336.528h-1.74c.072-.664.36-1.188.864-1.572.512-.392 1.168-.588 1.968-.588.84 0 1.504.208 1.992.624.496.408.744.96.744 1.656V55h-1.74v-1.08h-.288l.3-.42c0 .496-.18.892-.54 1.188-.352.288-.824.432-1.416.432zm.672-1.32c.352 0 .64-.092.864-.276a.921.921 0 00.348-.744v-.708h-1.332c-.272 0-.492.08-.66.24-.168.152-.252.356-.252.612 0 .272.092.488.276.648.184.152.436.228.756.228zm6.475 1.2v-4.92h-2.16V48.4h6.12v1.68h-2.16V55h-1.8zm7.244.12c-.664 0-1.192-.18-1.584-.54-.384-.36-.576-.848-.576-1.464 0-.664.228-1.172.684-1.524.464-.36 1.128-.54 1.992-.54h1.368v-.492a.753.753 0 00-.276-.612c-.176-.152-.416-.228-.72-.228-.28 0-.512.064-.696.192a.787.787 0 00-.336.528h-1.74c.072-.664.36-1.188.864-1.572.512-.392 1.168-.588 1.968-.588.84 0 1.504.208 1.992.624.496.408.744.96.744 1.656V55h-1.74v-1.08h-.288l.3-.42c0 .496-.18.892-.54 1.188-.352.288-.824.432-1.416.432zm.672-1.32c.352 0 .64-.092.864-.276a.921.921 0 00.348-.744v-.708h-1.332c-.272 0-.492.08-.66.24-.168.152-.252.356-.252.612 0 .272.092.488.276.648.184.152.436.228.756.228zm4.027 1.284v-1.62h.36c.208 0 .38-.088.516-.264.136-.176.208-.408.216-.696l.072-4.104h4.992V55h-1.8v-4.92h-1.428l-.048 2.544c-.008.488-.116.92-.324 1.296-.2.368-.48.656-.84.864-.352.2-.764.3-1.236.3h-.48zm10.543.036c-.584 0-1.092-.108-1.524-.324a2.505 2.505 0 01-1.008-.924c-.232-.4-.348-.864-.348-1.392v-1.56c0-.528.116-.988.348-1.38.24-.4.576-.708 1.008-.924.432-.224.94-.336 1.524-.336.592 0 1.1.112 1.524.336.432.216.764.524.996.924.24.392.36.852.36 1.38v1.56c0 .528-.12.992-.36 1.392-.232.392-.564.7-.996.924-.424.216-.932.324-1.524.324zm0-1.56c.352 0 .62-.092.804-.276.184-.192.276-.46.276-.804v-1.56c0-.352-.092-.62-.276-.804-.184-.184-.452-.276-.804-.276-.344 0-.612.092-.804.276-.184.184-.276.452-.276.804v1.56c0 .344.092.612.276.804.192.184.46.276.804.276zM116.31 55v-6.6h5.04v1.68h-3.24V55h-1.8zm7.699 2.16l.9-2.484-2.472-6.276h1.956l.996 2.88c.072.216.144.48.216.792.08.304.14.552.18.744.04-.192.096-.44.168-.744.08-.312.156-.576.228-.792l.96-2.88h1.872l-3.12 8.76h-1.884zM9.7 71v-4.92H7.54V64.4h6.12v1.68H11.5V71H9.7zm8.095.12c-.584 0-1.092-.108-1.524-.324a2.505 2.505 0 01-1.008-.924c-.232-.4-.348-.864-.348-1.392v-1.56c0-.528.116-.988.348-1.38.24-.4.576-.708 1.008-.924.432-.224.94-.336 1.524-.336.592 0 1.1.112 1.524.336.432.216.764.524.996.924.24.392.36.852.36 1.38v1.56c0 .528-.12.992-.36 1.392-.232.392-.564.7-.996.924-.424.216-.932.324-1.524.324zm0-1.56c.352 0 .62-.092.804-.276.184-.192.276-.46.276-.804v-1.56c0-.352-.092-.62-.276-.804-.184-.184-.452-.276-.804-.276-.344 0-.612.092-.804.276-.184.184-.276.452-.276.804v1.56c0 .344.092.612.276.804.192.184.46.276.804.276zM22.171 71v-6.6h2.988c.808 0 1.448.164 1.92.492.48.32.72.756.72 1.308 0 .44-.18.796-.54 1.068-.36.264-.836.396-1.428.396v-.12c.648 0 1.164.144 1.548.432.392.288.588.668.588 1.14 0 .584-.24 1.044-.72 1.38-.472.336-1.116.504-1.932.504H22.17zm1.764-1.272h1.296c.296 0 .532-.068.708-.204a.671.671 0 00.276-.552.694.694 0 00-.276-.576c-.176-.144-.412-.216-.708-.216h-1.296v1.548zm0-2.604h1.236c.272 0 .488-.064.648-.192a.66.66 0 00.24-.528.674.674 0 00-.24-.54c-.16-.136-.376-.204-.648-.204h-1.236v1.464zm7.399 3.996c-.664 0-1.192-.18-1.584-.54-.384-.36-.576-.848-.576-1.464 0-.664.228-1.172.684-1.524.464-.36 1.128-.54 1.992-.54h1.368v-.492a.753.753 0 00-.276-.612c-.176-.152-.416-.228-.72-.228-.28 0-.512.064-.696.192a.787.787 0 00-.336.528h-1.74c.072-.664.36-1.188.864-1.572.512-.392 1.168-.588 1.968-.588.84 0 1.504.208 1.992.624.496.408.744.96.744 1.656V71h-1.74v-1.08h-.288l.3-.42c0 .496-.18.892-.54 1.188-.352.288-.824.432-1.416.432zm.672-1.32c.352 0 .64-.092.864-.276a.921.921 0 00.348-.744v-.708h-1.332c-.272 0-.492.08-.66.24-.168.152-.252.356-.252.612 0 .272.092.488.276.648.184.152.436.228.756.228zm4.567 3.36V64.4h1.74v1.26h.42l-.42.42c0-.568.156-1.008.468-1.32.312-.32.74-.48 1.284-.48.664 0 1.196.236 1.596.708.4.464.6 1.088.6 1.872v1.68c0 .52-.092.976-.276 1.368a2.093 2.093 0 01-.756.9c-.328.208-.716.312-1.164.312-.544 0-.972-.156-1.284-.468-.312-.32-.468-.764-.468-1.332l.42.42h-.42l.06 1.62v1.8h-1.8zm2.844-3.6c.336 0 .592-.092.768-.276.184-.192.276-.46.276-.804v-1.56c0-.352-.092-.62-.276-.804-.176-.184-.432-.276-.768-.276-.328 0-.584.096-.768.288-.184.184-.276.448-.276.792v1.56c0 .344.092.612.276.804.184.184.44.276.768.276zm7.16 1.56c-.584 0-1.092-.108-1.524-.324a2.505 2.505 0 01-1.008-.924c-.232-.4-.348-.864-.348-1.392v-1.56c0-.528.116-.988.348-1.38.24-.4.576-.708 1.008-.924.432-.224.94-.336 1.524-.336.592 0 1.1.112 1.524.336.432.216.764.524.996.924.24.392.36.852.36 1.38v1.56c0 .528-.12.992-.36 1.392-.232.392-.564.7-.996.924-.424.216-.932.324-1.524.324zm0-1.56c.352 0 .62-.092.804-.276.184-.192.276-.46.276-.804v-1.56c0-.352-.092-.62-.276-.804-.184-.184-.452-.276-.804-.276-.344 0-.612.092-.804.276-.184.184-.276.452-.276.804v1.56c0 .344.092.612.276.804.192.184.46.276.804.276zM50.952 71v-6.6h2.988c.808 0 1.448.164 1.92.492.48.32.72.756.72 1.308 0 .44-.18.796-.54 1.068-.36.264-.836.396-1.428.396v-.12c.648 0 1.164.144 1.548.432.392.288.588.668.588 1.14 0 .584-.24 1.044-.72 1.38-.472.336-1.116.504-1.932.504h-3.144zm1.764-1.272h1.296c.296 0 .532-.068.708-.204a.671.671 0 00.276-.552.694.694 0 00-.276-.576c-.176-.144-.412-.216-.708-.216h-1.296v1.548zm0-2.604h1.236c.272 0 .488-.064.648-.192a.66.66 0 00.24-.528.674.674 0 00-.24-.54c-.16-.136-.376-.204-.648-.204h-1.236v1.464zM65.343 71v-6.6h2.987c.808 0 1.448.164 1.92.492.48.32.72.756.72 1.308 0 .44-.18.796-.54 1.068-.36.264-.836.396-1.428.396v-.12c.648 0 1.165.144 1.549.432.391.288.587.668.587 1.14 0 .584-.24 1.044-.72 1.38-.472.336-1.116.504-1.931.504h-3.144zm1.763-1.272h1.297c.295 0 .531-.068.707-.204a.671.671 0 00.276-.552.694.694 0 00-.275-.576c-.177-.144-.413-.216-.709-.216h-1.296v1.548zm0-2.604h1.237c.272 0 .487-.064.647-.192a.66.66 0 00.24-.528.674.674 0 00-.24-.54c-.16-.136-.375-.204-.647-.204h-1.237v1.464zM81.653 71v-7.08h-2.22v-1.68h6.24v1.68h-2.22V71h-1.8zm8.107.12c-.584 0-1.096-.108-1.536-.324a2.505 2.505 0 01-1.008-.924c-.232-.4-.348-.864-.348-1.392v-1.56c0-.528.116-.988.348-1.38.24-.4.576-.708 1.008-.924.44-.224.952-.336 1.536-.336.584 0 1.088.112 1.512.336.432.216.764.524.996.924.24.392.36.852.36 1.38v1.2h-4.044v.36c0 .416.1.732.3.948.2.208.5.312.9.312.28 0 .504-.048.672-.144a.698.698 0 00.348-.396h1.764c-.144.576-.472 1.04-.984 1.392-.504.352-1.112.528-1.824.528zm1.152-3.924v-.3c0-.408-.096-.72-.288-.936-.184-.216-.472-.324-.864-.324s-.688.112-.888.336c-.192.224-.288.54-.288.948v.18l2.448-.024-.12.12zM98.024 71c-.464 0-.872-.096-1.224-.288a2.167 2.167 0 01-.828-.828c-.192-.352-.288-.76-.288-1.224v-4.8h-2.04v-1.62h3.84v6.42a.74.74 0 00.192.528.74.74 0 00.528.192h1.92V71h-2.1zm6.127.12c-.584 0-1.096-.108-1.536-.324a2.505 2.505 0 01-1.008-.924c-.232-.4-.348-.864-.348-1.392v-1.56c0-.528.116-.988.348-1.38.24-.4.576-.708 1.008-.924.44-.224.952-.336 1.536-.336.584 0 1.088.112 1.512.336.432.216.764.524.996.924.24.392.36.852.36 1.38v1.2h-4.044v.36c0 .416.1.732.3.948.2.208.5.312.9.312.28 0 .504-.048.672-.144a.698.698 0 00.348-.396h1.764c-.144.576-.472 1.04-.984 1.392-.504.352-1.112.528-1.824.528zm1.152-3.924v-.3c0-.408-.096-.72-.288-.936-.184-.216-.472-.324-.864-.324s-.688.112-.888.336c-.192.224-.288.54-.288.948v.18l2.448-.024-.12.12zm4.171 5.964v-1.44h1.86c.336 0 .592-.084.768-.252.184-.168.276-.4.276-.696v-.252l.024-1.26h-.42l.42-.42c0 .568-.156 1.012-.468 1.332-.312.312-.74.468-1.284.468-.664 0-1.196-.232-1.596-.696-.4-.464-.6-1.092-.6-1.884v-1.2c0-.784.2-1.408.6-1.872.4-.472.932-.708 1.596-.708.544 0 .972.16 1.284.48.312.312.468.752.468 1.32l-.42-.42h.42l-.06-1.26h1.8v6.432c0 .72-.248 1.288-.744 1.704-.488.416-1.156.624-2.004.624h-1.92zm1.824-4.08c.328 0 .584-.092.768-.276.184-.192.276-.46.276-.804v-1.08c0-.344-.092-.608-.276-.792-.184-.192-.44-.288-.768-.288-.336 0-.596.096-.78.288-.176.184-.264.448-.264.792V68c0 .344.088.612.264.804.184.184.444.276.78.276zm4.616 1.92v-6.6h1.68v1.26h.456l-.516.768c0-.712.164-1.248.492-1.608.328-.36.808-.54 1.44-.54.728 0 1.292.22 1.692.66.408.44.612 1.06.612 1.86v.54h-1.92v-.42c0-.36-.1-.64-.3-.84-.192-.2-.452-.3-.78-.3-.344 0-.608.1-.792.3-.176.2-.264.48-.264.84V71h-1.8zm8.959.12c-.664 0-1.192-.18-1.584-.54-.384-.36-.576-.848-.576-1.464 0-.664.228-1.172.684-1.524.464-.36 1.128-.54 1.992-.54h1.368v-.492a.753.753 0 00-.276-.612c-.176-.152-.416-.228-.72-.228-.28 0-.512.064-.696.192a.787.787 0 00-.336.528h-1.74c.072-.664.36-1.188.864-1.572.512-.392 1.168-.588 1.968-.588.84 0 1.504.208 1.992.624.496.408.744.96.744 1.656V71h-1.74v-1.08h-.288l.3-.42c0 .496-.18.892-.54 1.188-.352.288-.824.432-1.416.432zm.672-1.32c.352 0 .64-.092.864-.276a.921.921 0 00.348-.744v-.708h-1.332c-.272 0-.492.08-.66.24-.168.152-.252.356-.252.612 0 .272.092.488.276.648.184.152.436.228.756.228zm4.279 1.2v-6.6h1.416v.96h.288l-.228.168c0-.376.108-.676.324-.9.216-.232.484-.348.804-.348.344 0 .612.148.804.444.192.296.288.688.288 1.176l-.216-.54h.336l-.108.168c0-.376.104-.676.312-.9.208-.232.488-.348.84-.348.4 0 .724.152.972.456.248.296.372.704.372 1.224V71h-1.548v-4.92c0-.184-.04-.324-.12-.42a.412.412 0 00-.348-.156.412.412 0 00-.348.156c-.08.096-.12.236-.12.42V71h-1.236v-4.92c0-.184-.04-.324-.12-.42a.412.412 0 00-.348-.156.412.412 0 00-.348.156c-.08.096-.12.236-.12.42V71h-1.548zm10.292.12c-.368 0-.664-.108-.888-.324-.216-.224-.324-.52-.324-.888 0-.376.108-.672.324-.888.224-.216.52-.324.888-.324.376 0 .672.108.888.324.216.216.324.512.324.888 0 .368-.108.664-.324.888-.216.216-.512.324-.888.324z" fill="#174756"/><defs><linearGradient id="paint0_linear_2004_61" x1="0" y1="72.893" x2="223.615" y2="72.893" gradientUnits="userSpaceOnUse"><stop stop-color="#F1FFF7"/><stop offset="1" stop-color="#C1A678"/></linearGradient><linearGradient id="paint1_linear_2004_61" x1="11.769" y1="8.747" x2="159.382" y2="151.645" gradientUnits="userSpaceOnUse"><stop stop-color="#CCEC60"/><stop offset="1" stop-color="#fff" stop-opacity=".7"/></linearGradient><linearGradient id="paint2_linear_2004_61" x1="0" y1="72.472" x2="223.615" y2="72.472" gradientUnits="userSpaceOnUse"><stop stop-color="#F1FFF7"/><stop offset="1" stop-color="#546A65"/></linearGradient><linearGradient id="paint3_linear_2004_61" x1="11.769" y1="8.697" x2="158.553" y2="151.619" gradientUnits="userSpaceOnUse"><stop stop-color="#475E59" stop-opacity=".7"/><stop offset="1" stop-color="#fff" stop-opacity=".7"/></linearGradient><filter id="filter0_f_2004_61" x="-18.273" y="124.187" width="113.545" height="79.728" filterUnits="userSpaceOnUse" color-interpolation-filters="sRGB"><feFlood flood-opacity="0" result="BackgroundImageFix"/><feBlend in="SourceGraphic" in2="BackgroundImageFix" result="shape"/><feGaussianBlur stdDeviation="2" result="effect1_foregroundBlur_2004_61"/></filter></defs></svg>