<svg width="20" height="17" fill="none" xmlns="http://www.w3.org/2000/svg"><path d="M19.999 1.478c-.067.566-.113 1.352-.262 2.117-.206 1.061-.311 2.136-.501 3.198-.184 1.031-.334 2.07-.505 3.103a1577.89 1577.89 0 01-.882 5.293 3.36 3.36 0 01-.336 1.038c-.298.558-.875.902-1.433.727a4.093 4.093 0 01-1.158-.565c-.415-.296-.837-.58-1.258-.867-.854-.581-1.726-1.136-2.56-1.746a44.1 44.1 0 00-1.625-1.138 3.123 3.123 0 01-.438-.36c-.496-.482-.522-.93-.084-1.468.41-.504.894-.934 1.36-1.383a337.38 337.38 0 002.427-2.362c.68-.668 1.35-1.344 2.025-2.017a2.46 2.46 0 00.212-.241c.105-.138.093-.278-.012-.411-.104-.133-.236-.174-.392-.117a.863.863 0 00-.173.094c-1.203.796-2.412 1.585-3.607 2.394-1.28.869-2.542 1.767-3.823 2.636-1.111.754-2.304.988-3.609.576-.871-.275-1.748-.53-2.617-.812a1.799 1.799 0 01-.449-.194.644.644 0 01-.118-.992c.137-.149.311-.24.49-.322.462-.21.93-.405 1.384-.633 1.364-.688 2.782-1.25 4.173-1.877 1.095-.494 2.212-.938 3.3-1.446a91.58 91.58 0 013.34-1.457c1.1-.462 2.207-.904 3.316-1.342.5-.199 1.016-.36 1.517-.556.287-.112.57-.223.87-.298.911-.224 1.466.307 1.427 1.428H20z" fill="#CBD6D1"/></svg>