<svg width="158" height="317" fill="none" xmlns="http://www.w3.org/2000/svg"><rect x=".355" y=".355" width="157.29" height="316.29" rx="16.508" fill="url(#paint0_linear_311_1399)" fill-opacity=".53" stroke="url(#paint1_linear_311_1399)" stroke-width=".71"/><path d="M38.027 81.496V75.34h3.946v6.155H40.71V76.52h-1.417v4.975h-1.265zm7.029.084c-.41 0-.767-.076-1.07-.227a1.76 1.76 0 01-.71-.65 1.913 1.913 0 01-.244-.978V78.63c0-.37.082-.694.245-.97.169-.28.405-.497.708-.649a2.3 2.3 0 011.07-.236c.417 0 .774.079 1.072.236.303.152.536.368.7.65.168.275.252.598.252.97v1.095c0 .371-.084.697-.252.978a1.702 1.702 0 01-.7.65c-.298.151-.655.227-1.071.227zm0-1.096c.247 0 .436-.065.565-.194.13-.135.194-.323.194-.565V78.63c0-.247-.065-.435-.194-.565-.13-.129-.318-.194-.565-.194-.242 0-.43.065-.565.194-.13.13-.194.318-.194.565v1.096c0 .242.065.43.194.565.135.13.323.194.565.194zm2.712 2.192v-2.25h.26c.096-.097.195-.262.296-.498a2.26 2.26 0 00.169-.877l.042-2.192h3.414v3.566h.506v2.251h-1.18v-1.18h-2.327v1.18h-1.18zm1.517-2.25h1.484v-2.48H49.7l-.026 1.096a2.644 2.644 0 01-.143.86c-.085.242-.166.416-.245.523zm3.538 2.25v-2.25h.261c.096-.097.194-.262.295-.498.107-.242.163-.534.17-.877l.041-2.192h3.415v3.566h.506v2.251h-1.18v-1.18h-2.328v1.18h-1.18zm1.518-2.25h1.484v-2.48h-1.071l-.026 1.096a2.647 2.647 0 01-.143.86 2.104 2.104 0 01-.244.523zm5.89 1.154c-.41 0-.77-.076-1.08-.227a1.761 1.761 0 01-.708-.65 1.914 1.914 0 01-.244-.978V78.63c0-.37.081-.694.244-.97a1.7 1.7 0 01.709-.649 2.353 2.353 0 011.079-.236c.41 0 .764.079 1.062.236.304.152.537.368.7.65.169.275.253.598.253.97v.842h-2.841v.253c0 .293.07.515.21.666.14.146.352.22.633.22a.95.95 0 00.472-.102.49.49 0 00.244-.278h1.24a1.64 1.64 0 01-.691.978c-.355.248-.782.371-1.282.371zm.81-2.757v-.21c0-.287-.068-.507-.203-.658-.13-.152-.332-.228-.607-.228-.276 0-.483.079-.624.236-.135.158-.202.38-.202.666v.127l1.72-.017-.085.084zm2.264 4.19V76.86h1.223v.885h.295l-.295.295c0-.4.11-.708.328-.927.22-.225.52-.338.903-.338.466 0 .84.166 1.121.498.281.326.422.764.422 1.315v1.18c0 .366-.065.686-.194.962a1.47 1.47 0 01-.532.632c-.23.146-.503.22-.817.22-.383 0-.683-.11-.903-.33-.219-.225-.328-.537-.328-.936l.295.296h-.295l.042 1.138v1.264h-1.265zm1.998-2.529c.236 0 .416-.065.54-.194.13-.135.194-.323.194-.565V78.63c0-.247-.065-.435-.194-.565-.124-.129-.304-.194-.54-.194-.23 0-.41.068-.54.203-.129.129-.193.315-.193.556v1.096c0 .242.064.43.194.565.129.13.309.194.54.194zm2.526 1.012l.886-2.378-.818-2.26h1.096l.683 2.066h.227V76.86h.86v2.065h.228l.75-2.065h1.03l-.819 2.234.886 2.403h-1.063L71 79.346h-.237v2.15h-.86v-2.15h-.244l-.708 2.15h-1.122zm5.612 0v-4.637h1.265v1.753h.624l.97-1.753h1.408l-1.29 2.268 1.315 2.369H76.3l-.978-1.821h-.616v1.82h-1.265zm6.405.084c-.467 0-.838-.126-1.113-.38-.27-.252-.405-.595-.405-1.028 0-.466.16-.823.48-1.07.327-.254.793-.38 1.4-.38h.962v-.346a.53.53 0 00-.194-.43c-.124-.107-.293-.16-.506-.16a.836.836 0 00-.49.135.553.553 0 00-.235.37h-1.223c.05-.466.253-.834.607-1.104.36-.275.82-.413 1.383-.413.59 0 1.057.146 1.4.439.348.286.522.674.522 1.163v3.12h-1.222v-.759h-.203l.211-.295c0 .348-.126.627-.38.835-.246.202-.578.303-.994.303zm.472-.927c.247 0 .45-.065.607-.194a.647.647 0 00.245-.523v-.497h-.936a.645.645 0 00-.464.168.551.551 0 00-.177.43c0 .191.065.343.194.456.13.106.306.16.531.16zm8.265.843v-4.637h1.113v2.107c0 .141-.009.318-.026.532-.017.208-.039.418-.067.632a8.778 8.778 0 01-.076.565l1.467-3.836h1.535v4.637h-1.113v-2.108c0-.146.008-.312.025-.497.017-.192.037-.383.059-.574.022-.19.045-.354.067-.489l-1.45 3.668h-1.534zm12.084.084c-.411 0-.768-.076-1.071-.227a1.76 1.76 0 01-.708-.65 1.914 1.914 0 01-.245-.978V78.63c0-.37.082-.694.245-.97.168-.28.404-.497.708-.649.303-.157.66-.236 1.071-.236.416 0 .773.079 1.07.236.304.152.537.368.7.65.169.275.253.598.253.97v1.095c0 .371-.084.697-.253.978a1.7 1.7 0 01-.7.65c-.297.151-.654.227-1.07.227zm0-1.096c.247 0 .435-.065.565-.194.129-.135.194-.323.194-.565V78.63c0-.247-.065-.435-.194-.565-.13-.129-.318-.194-.565-.194-.242 0-.43.065-.565.194-.13.13-.194.318-.194.565v1.096c0 .242.064.43.194.565.135.13.323.194.565.194zm3.082 1.012v-4.637h3.946v4.637h-1.265v-3.457h-1.416v3.457h-1.265zm4.837 0v-4.637h1.054v1.475h.252c.501 0 .9.146 1.198.438.298.293.447.683.447 1.172 0 .467-.152.844-.456 1.13-.298.281-.694.422-1.189.422h-1.306zm1.054-.97h.252c.203 0 .357-.05.464-.151.113-.102.169-.248.169-.439 0-.202-.056-.357-.169-.464-.107-.112-.261-.168-.464-.168h-.252v1.222zm2.276.97v-4.637h1.054v4.637h-1.054zm3.285 0v-3.457h-1.518v-1.18h4.3v1.18h-1.517v3.457h-1.265zm5.688-3.204c-.253 0-.458-.07-.616-.21a.715.715 0 01-.227-.549c0-.23.076-.413.227-.548.158-.14.363-.21.616-.21s.455.07.607.21a.685.685 0 01.236.548.701.701 0 01-.236.548c-.152.14-.354.21-.607.21zm0 3.288c-.253 0-.458-.07-.616-.21a.715.715 0 01-.227-.549c0-.23.076-.413.227-.548.158-.14.363-.21.616-.21s.455.07.607.21a.686.686 0 01.236.548.702.702 0 01-.236.548c-.152.14-.354.211-.607.211z" fill="#fff"/><path d="M24.72 109.476v-7.3h1.14v3.57c0 .233-.007.493-.02.78-.013.287-.03.567-.05.84-.02.273-.037.51-.05.71l2.01-5.9h1.53v7.3h-1.14v-3.46c0-.233.007-.5.02-.8.013-.3.03-.597.05-.89l.07-.75-2.03 5.9h-1.53zm6.056 0v-5.5h1.25v2.13h1.94v-2.13h1.25v5.5h-1.25v-2.21h-1.94v2.21h-1.25zm5.466 1.4v-2.46h.37c.113-.113.23-.32.35-.62.127-.307.194-.687.2-1.14l.06-2.68h3.85v4.44h.65v2.46h-1.15v-1.4h-3.18v1.4h-1.15zm1.64-2.46h2v-3.35h-1.5l-.04 1.59c-.006.447-.063.823-.17 1.13-.1.3-.197.51-.29.63zm4.886 1.06v-5.5h1.13v2.71c0 .173-.01.38-.03.62a11.7 11.7 0 01-.06.69c-.026.227-.053.423-.08.59l1.94-4.61h1.54v5.5h-1.13v-2.71c0-.18.007-.38.02-.6l.06-.65c.027-.213.054-.393.08-.54l-1.93 4.5h-1.54zm5.986 0v-5.5h2.44c.634 0 1.13.133 1.49.4.367.26.55.62.55 1.08 0 .373-.143.673-.43.9-.28.227-.653.34-1.12.34v-.09c.507 0 .914.12 1.22.36.307.233.46.547.46.94 0 .487-.186.87-.56 1.15-.366.28-.873.42-1.52.42h-2.53zm1.23-.95h1.26c.28 0 .5-.063.66-.19a.618.618 0 00.24-.51.638.638 0 00-.24-.53c-.16-.127-.38-.19-.66-.19h-1.26v1.42zm0-2.26h1.22c.247 0 .444-.06.59-.18a.6.6 0 00.22-.49.6.6 0 00-.22-.49c-.14-.127-.336-.19-.59-.19h-1.22v1.35zm4.776 3.21v-5.5h1.13v2.71c0 .173-.01.38-.03.62a11.7 11.7 0 01-.06.69c-.026.227-.053.423-.08.59l1.94-4.61h1.54v5.5h-1.13v-2.71c0-.18.007-.38.02-.6l.06-.65c.027-.213.054-.393.08-.54l-1.93 4.5h-1.54zm5.467 1.4v-2.46h.37c.113-.113.23-.32.35-.62.126-.307.193-.687.2-1.14l.06-2.68h3.85v4.44h.65v2.46h-1.15v-1.4h-3.18v1.4h-1.15zm1.64-2.46h2v-3.35h-1.5l-.04 1.59c-.007.447-.064.823-.17 1.13-.1.3-.197.51-.29.63zm5.766 2.86l.77-2.1-2.05-5.2h1.37l1.02 2.81a10.537 10.537 0 01.28 1.09c.033-.14.076-.317.13-.53.053-.22.106-.407.16-.56l.96-2.81h1.32l-2.65 7.3h-1.31zm6.726-1.7c-.567 0-1.014-.15-1.34-.45-.327-.3-.49-.703-.49-1.21 0-.54.18-.957.54-1.25.36-.293.87-.44 1.53-.44h1.37v-.47c0-.267-.087-.473-.26-.62-.174-.153-.41-.23-.71-.23-.274 0-.5.06-.68.18a.702.702 0 00-.32.49h-1.22c.06-.52.293-.933.7-1.24.406-.307.926-.46 1.56-.46.673 0 1.203.17 1.59.51.393.333.59.787.59 1.36v3.73h-1.21v-.96h-.2l.2-.27c0 .407-.15.73-.45.97-.3.24-.7.36-1.2.36zm.41-.94c.353 0 .64-.09.86-.27a.853.853 0 00.34-.7v-.67h-1.35c-.254 0-.457.073-.61.22a.766.766 0 00-.23.58c0 .26.086.467.26.62.18.147.423.22.73.22zm3.426.91v-1.14h.25c.227 0 .397-.09.51-.27.12-.187.183-.48.19-.88l.06-3.28h3.98v5.5h-1.25v-4.34h-1.5l-.04 2.19c-.013.48-.093.887-.24 1.22a1.666 1.666 0 01-.63.75c-.274.167-.607.25-1 .25h-.33zm6.586-.07v-5.5h1.25v1.8h1.42c.667 0 1.187.167 1.56.5.38.327.57.78.57 1.36 0 .567-.193 1.017-.58 1.35-.38.327-.893.49-1.54.49h-2.68zm1.25-1.1h1.37c.293 0 .517-.063.67-.19.16-.133.24-.32.24-.56 0-.24-.08-.423-.24-.55-.153-.133-.377-.2-.67-.2h-1.37v1.5zm4.706 1.1v-5.5h1.25v2.13h1.94v-2.13h1.25v5.5h-1.25v-2.21h-1.94v2.21h-1.25zm5.716 0v-5.5h1.08v1.86h.37c.593 0 1.063.167 1.41.5.347.333.52.78.52 1.34 0 .547-.177.983-.53 1.31-.346.327-.813.49-1.4.49h-1.45zm1.08-.97h.37c.287 0 .507-.073.66-.22.16-.147.24-.35.24-.61 0-.273-.08-.487-.24-.64-.153-.153-.373-.23-.66-.23h-.37v1.7zm2.84.97v-5.5h1.08v5.5h-1.08zm4.586.1c-.466 0-.873-.09-1.22-.27a2.01 2.01 0 01-.81-.75 2.266 2.266 0 01-.28-1.14v-1.38c0-.433.094-.81.28-1.13.194-.327.464-.58.81-.76.347-.18.754-.27 1.22-.27.46 0 .86.09 1.2.27.347.18.614.433.8.76.194.32.29.697.29 1.13v.99h-3.39v.39c0 .387.094.68.28.88.187.193.464.29.83.29.28 0 .507-.047.68-.14a.663.663 0 00.33-.43h1.23a1.76 1.76 0 01-.76 1.14c-.406.28-.903.42-1.49.42zm1.08-3.25v-.3c0-.38-.09-.67-.27-.87-.18-.207-.45-.31-.81-.31-.36 0-.633.103-.82.31-.186.207-.28.5-.28.88v.21l2.27-.02-.09.1zm-81.269 16.15v-5.5h2.44c.633 0 1.13.133 1.49.4.367.26.55.62.55 1.08 0 .373-.143.673-.43.9-.28.227-.653.34-1.12.34v-.09c.507 0 .913.12 1.22.36.307.233.46.547.46.94 0 .487-.187.87-.56 1.15-.367.28-.873.42-1.52.42h-2.53zm1.23-.95h1.26c.28 0 .5-.063.66-.19a.618.618 0 00.24-.51.638.638 0 00-.24-.53c-.16-.127-.38-.19-.66-.19H26v1.42zm0-2.26h1.22c.247 0 .443-.06.59-.18a.599.599 0 00.22-.49.599.599 0 00-.22-.49c-.14-.127-.337-.19-.59-.19H26v1.35zm7.016 3.31c-.467 0-.877-.087-1.23-.26a2.001 2.001 0 01-.81-.75c-.193-.327-.29-.71-.29-1.15v-1.38c0-.447.097-.83.29-1.15.193-.32.463-.567.81-.74.353-.18.763-.27 1.23-.27.693 0 1.247.18 1.66.54.413.353.63.837.65 1.45h-1.25c-.02-.287-.123-.507-.31-.66-.18-.16-.43-.24-.75-.24-.333 0-.597.093-.79.28-.193.18-.29.44-.29.78v1.39c0 .34.097.603.29.79.193.187.457.28.79.28.32 0 .57-.077.75-.23.187-.16.29-.383.31-.67h1.25c-.02.613-.237 1.1-.65 1.46-.413.353-.967.53-1.66.53zm5.346-.1v-4.35h-1.88v-1.15h5.02v1.15h-1.88v4.35h-1.26zm4.396 1.8v-7.3h1.22v1.05h.28l-.28.29c0-.447.134-.797.4-1.05.267-.26.627-.39 1.08-.39.554 0 .997.19 1.33.57.334.38.5.89.5 1.53v1.49c0 .427-.076.8-.23 1.12a1.69 1.69 0 01-.63.73c-.273.173-.596.26-.97.26-.453 0-.813-.127-1.08-.38-.266-.26-.4-.613-.4-1.06l.28.29h-.29l.04 1.31v1.54h-1.25zm2.26-2.78c.32 0 .57-.093.75-.28.18-.187.27-.453.27-.8v-1.38c0-.347-.09-.613-.27-.8-.18-.187-.43-.28-.75-.28-.313 0-.56.097-.74.29-.18.187-.27.45-.27.79v1.38c0 .34.09.607.27.8.18.187.427.28.74.28zm5.976 1.08c-.466 0-.873-.09-1.22-.27a2.001 2.001 0 01-.81-.75 2.26 2.26 0 01-.28-1.14v-1.38c0-.433.094-.81.28-1.13.194-.327.464-.58.81-.76.347-.18.754-.27 1.22-.27.46 0 .86.09 1.2.27.347.18.614.433.8.76.194.32.29.697.29 1.13v.99h-3.39v.39c0 .387.094.68.28.88.187.193.464.29.83.29.28 0 .507-.047.68-.14a.667.667 0 00.33-.43h1.23a1.763 1.763 0 01-.76 1.14c-.406.28-.903.42-1.49.42zm1.08-3.25v-.3c0-.38-.09-.67-.27-.87-.18-.207-.45-.31-.81-.31-.36 0-.633.103-.82.31-.186.207-.28.5-.28.88v.21l2.27-.02-.09.1zm5.827 3.15v-1.85c-.087.02-.227.043-.42.07-.187.02-.394.03-.62.03-.707 0-1.26-.173-1.66-.52-.4-.353-.6-.843-.6-1.47v-1.76h1.25v1.7c0 .287.1.513.3.68.2.16.473.24.82.24.226 0 .423-.01.59-.03.166-.027.28-.05.34-.07v-2.52h1.26v5.5H57.9zm2.856 0v-5.5h1.13v2.71c0 .173-.01.38-.03.62a11.7 11.7 0 01-.06.69c-.027.227-.054.423-.08.59l1.94-4.61h1.54v5.5h-1.13v-2.71c0-.18.006-.38.02-.6l.06-.65c.026-.213.053-.393.08-.54l-1.93 4.5h-1.54zm8.216-3.92c-.28 0-.507-.077-.68-.23a.809.809 0 01-.25-.61.79.79 0 01.25-.61c.173-.153.4-.23.68-.23s.503.077.67.23c.173.153.26.357.26.61 0 .247-.087.45-.26.61-.167.153-.39.23-.67.23zm0 4.02c-.28 0-.507-.077-.68-.23a.79.79 0 01-.25-.61.79.79 0 01.25-.61c.173-.153.4-.23.68-.23s.503.077.67.23c.173.153.26.357.26.61a.775.775 0 01-.26.61c-.167.153-.39.23-.67.23zm9.932-.1v-7.3h4.06v.82h-3.16v2.2h1.21c.466 0 .867.09 1.2.27.333.173.59.42.77.74.186.32.28.697.28 1.13 0 .433-.094.81-.28 1.13-.18.32-.437.57-.77.75-.334.173-.734.26-1.2.26h-2.11zm.9-.82h1.21c.413 0 .736-.117.97-.35.233-.24.35-.563.35-.97 0-.413-.117-.737-.35-.97-.234-.233-.557-.35-.97-.35h-1.21v2.64zm5.936 2.62l.81-2.14-2.04-5.16h1l1.28 3.4c.047.113.09.25.13.41l.1.39.1-.39c.04-.16.08-.297.12-.41l1.2-3.4h.97l-2.71 7.3h-.96zm4.516-.4v-2.17h.45c.113-.113.23-.337.35-.67.127-.333.193-.757.2-1.27l.06-2.79h3.59v4.73h.7v2.17h-.8v-1.4h-3.75v1.4h-.8zm1.4-2.17h2.35v-3.93h-1.84l-.04 2.01c-.007.527-.063.953-.17 1.28-.107.327-.207.54-.3.64zm7.296.87c-.433 0-.813-.087-1.14-.26a1.881 1.881 0 01-.75-.73c-.173-.32-.26-.69-.26-1.11v-1.5c0-.427.087-.797.26-1.11.18-.313.43-.557.75-.73.327-.173.707-.26 1.14-.26.433 0 .81.087 1.13.26.327.173.577.417.75.73.18.313.27.683.27 1.11v.97h-3.42v.53c0 .433.11.767.33 1 .22.227.533.34.94.34.347 0 .627-.06.84-.18a.797.797 0 00.39-.56h.9c-.06.46-.287.827-.68 1.1-.387.267-.87.4-1.45.4zm1.27-3.23v-.37c0-.433-.11-.767-.33-1-.213-.233-.526-.35-.94-.35-.407 0-.72.117-.94.35-.22.233-.33.567-.33 1v.29h2.61l-.07.08zm2.486 3.13v-5.5h1.22l.72 2.11c.074.213.14.427.2.64.06.207.104.367.13.48.027-.113.067-.273.12-.48.06-.213.124-.43.19-.65l.68-2.1h1.22v5.5h-.87v-.85c0-.3.004-.627.01-.98l.02-1.07.04-1.02c.014-.327.024-.613.03-.86l-.98 3.13h-.95l-.99-3.11c.014.3.024.673.03 1.12.014.447.024.913.03 1.4.014.487.02.95.02 1.39v.85h-.87zm-77.789 14.8v-7.3h.9v1.05H26l-.18.21c0-.42.137-.75.41-.99.28-.247.647-.37 1.1-.37.553 0 .993.183 1.32.55.333.36.5.857.5 1.49v1.61c0 .42-.077.783-.23 1.09a1.636 1.636 0 01-.63.71c-.267.167-.587.25-.96.25-.447 0-.81-.123-1.09-.37s-.42-.577-.42-.99l.18.21h-.2l.02 1.25v1.6h-.9zm2.11-2.48c.38 0 .677-.113.89-.34.22-.227.33-.553.33-.98v-1.5c0-.427-.11-.753-.33-.98-.213-.227-.51-.34-.89-.34-.367 0-.66.117-.88.35-.22.233-.33.557-.33.97v1.5c0 .413.11.737.33.97.22.233.513.35.88.35zm5.966.78c-.433 0-.813-.087-1.14-.26a1.881 1.881 0 01-.75-.73c-.173-.32-.26-.69-.26-1.11v-1.5c0-.427.087-.797.26-1.11.18-.313.43-.557.75-.73.327-.173.707-.26 1.14-.26.433 0 .81.087 1.13.26a1.8 1.8 0 01.75.73c.18.313.27.683.27 1.11v.97h-3.42v.53c0 .433.11.767.33 1 .22.227.533.34.94.34.347 0 .627-.06.84-.18a.795.795 0 00.39-.56h.9c-.06.46-.287.827-.68 1.1-.387.267-.87.4-1.45.4zm1.27-3.23v-.37c0-.433-.11-.767-.33-1-.213-.233-.527-.35-.94-.35-.407 0-.72.117-.94.35-.22.233-.33.567-.33 1v.29h2.61l-.07.08zm3.026 3.13v-5.5h3.95v.82h-3.05v4.68h-.9zm6.476 1.8l.81-2.14-2.04-5.16h1l1.28 3.4c.047.113.09.25.13.41.04.153.074.283.1.39l.1-.39c.04-.16.08-.297.12-.41l1.2-3.4h.97l-2.71 7.3h-.96zm4.466-1.73v-.84h.18c.307 0 .52-.12.64-.36.127-.24.194-.67.2-1.29l.06-3.08h3.73v5.5h-.9v-4.68h-1.94l-.05 2.3c-.013.58-.08 1.05-.2 1.41-.113.36-.293.623-.54.79-.24.167-.556.25-.95.25h-.23zm6.346-.07l1.41-2.12c-.42-.1-.746-.293-.98-.58-.226-.287-.34-.643-.34-1.07 0-.54.177-.963.53-1.27.36-.307.85-.46 1.47-.46h2.37v5.5h-.9v-2.05h-1.21l-1.3 2.05h-1.05zm2.09-2.85h1.47v-1.85h-1.47c-.333 0-.596.083-.79.25-.193.16-.29.387-.29.68 0 .287.097.513.29.68.194.16.457.24.79.24zm4.227 4.65v-7.3h.9v1.05h.18l-.18.21c0-.42.136-.75.41-.99.28-.247.646-.37 1.1-.37.553 0 .993.183 1.32.55.333.36.5.857.5 1.49v1.61c0 .42-.077.783-.23 1.09a1.636 1.636 0 01-.63.71c-.267.167-.587.25-.96.25-.447 0-.81-.123-1.09-.37s-.42-.577-.42-.99l.18.21h-.2l.02 1.25v1.6h-.9zm2.11-2.48c.38 0 .676-.113.89-.34.22-.227.33-.553.33-.98v-1.5c0-.427-.11-.753-.33-.98-.214-.227-.51-.34-.89-.34-.367 0-.66.117-.88.35-.22.233-.33.557-.33.97v1.5c0 .413.11.737.33.97.22.233.513.35.88.35zm3.906.68v-5.5h.9v2.29h2.32v-2.29h.9v5.5h-.9v-2.39h-2.32v2.39h-.9zm8.056.08c-.44 0-.82-.083-1.14-.25a1.82 1.82 0 01-.75-.72c-.174-.32-.26-.697-.26-1.13v-1.46c0-.44.086-.817.26-1.13.18-.313.43-.553.75-.72.32-.167.7-.25 1.14-.25.44 0 .82.083 1.14.25.32.167.566.407.74.72.18.313.27.687.27 1.12v1.47c0 .433-.09.81-.27 1.13a1.76 1.76 0 01-.74.72c-.32.167-.7.25-1.14.25zm0-.8c.393 0 .7-.11.92-.33.22-.22.33-.543.33-.97v-1.46c0-.427-.11-.75-.33-.97-.22-.22-.527-.33-.92-.33-.387 0-.694.11-.92.33-.22.22-.33.543-.33.97v1.46c0 .427.11.75.33.97.226.22.533.33.92.33zm11.992.8c-.44 0-.82-.083-1.14-.25a1.82 1.82 0 01-.75-.72c-.173-.32-.26-.697-.26-1.13v-1.46c0-.44.087-.817.26-1.13.18-.313.43-.553.75-.72.32-.167.7-.25 1.14-.25.44 0 .82.083 1.14.25.32.167.567.407.74.72.18.313.27.687.27 1.12v1.47c0 .433-.09.81-.27 1.13-.173.313-.42.553-.74.72-.32.167-.7.25-1.14.25zm0-.8c.393 0 .7-.11.92-.33.22-.22.33-.543.33-.97v-1.46c0-.427-.11-.75-.33-.97-.22-.22-.527-.33-.92-.33-.387 0-.693.11-.92.33-.22.22-.33.543-.33.97v1.46c0 .427.11.75.33.97.227.22.533.33.92.33zm5.996.82c-.647 0-1.16-.19-1.54-.57-.373-.387-.56-.913-.56-1.58v-2.5c0-.88.22-1.557.66-2.03.44-.48 1.07-.72 1.89-.72h1.4v.9h-1.4c-.54 0-.95.16-1.23.48-.28.313-.42.77-.42 1.37v.65h.14l-.14.2c.007-.393.14-.7.4-.92.26-.22.613-.33 1.06-.33.58 0 1.03.187 1.35.56.327.373.49.887.49 1.54v.8c0 .447-.083.83-.25 1.15a1.75 1.75 0 01-.72.74c-.313.173-.69.26-1.13.26zm0-.8c.387 0 .683-.117.89-.35.207-.233.31-.567.31-1v-.8c0-.433-.103-.767-.31-1-.207-.233-.503-.35-.89-.35s-.683.117-.89.35c-.207.227-.31.56-.31 1v.8c0 .433.103.767.31 1 .207.233.503.35.89.35zm7.946 2.1v-1.4h-4.31v-5.5h.81v4.74h1.16v-4.74h.7v4.74h1.16v-4.74h.81v4.74h.47v2.16h-.8zm3.566-1.3c-.58 0-1.036-.147-1.37-.44-.333-.3-.5-.703-.5-1.21 0-.513.167-.917.5-1.21.334-.293.784-.44 1.35-.44h1.7v-.55c0-.34-.103-.6-.31-.78-.2-.187-.486-.28-.86-.28-.326 0-.6.07-.82.21a.749.749 0 00-.38.55h-.9c.06-.473.284-.85.67-1.13.387-.28.87-.42 1.45-.42.634 0 1.134.163 1.5.49.367.327.55.77.55 1.33v3.78h-.88v-1.05h-.15l.15-.15c0 .4-.156.717-.47.95-.306.233-.716.35-1.23.35zm.22-.71c.427 0 .777-.107 1.05-.32a.994.994 0 00.41-.82v-.78h-1.68c-.3 0-.536.083-.71.25-.173.167-.26.393-.26.68 0 .307.104.55.31.73.214.173.507.26.88.26zm5.806.61v-4.71h-2v-.79h4.9v.79h-2v4.71h-.9zm4.426 0v-5.5h.9v2.02h1.62c.62 0 1.107.157 1.46.47.36.307.54.73.54 1.27 0 .533-.18.957-.54 1.27-.36.313-.846.47-1.46.47h-2.52zm.9-.82h1.62c.347 0 .61-.077.79-.23.187-.16.28-.39.28-.69 0-.3-.093-.527-.28-.68-.18-.16-.443-.24-.79-.24h-1.62v1.84zm7.137.92c-.44 0-.827-.083-1.16-.25a1.803 1.803 0 01-.76-.72c-.18-.32-.27-.697-.27-1.13v-1.5c0-.44.09-.817.27-1.13.18-.313.433-.553.76-.72.333-.167.72-.25 1.16-.25.633 0 1.143.17 1.53.51.386.34.59.803.61 1.39h-.9c-.02-.353-.14-.623-.36-.81-.214-.193-.507-.29-.88-.29-.394 0-.707.113-.94.34-.234.22-.35.537-.35.95v1.51c0 .413.116.733.35.96.233.227.546.34.94.34.373 0 .666-.097.88-.29.22-.193.34-.463.36-.81h.9c-.02.587-.224 1.05-.61 1.39-.387.34-.897.51-1.53.51zm3.576-.1l1.41-2.12c-.42-.1-.747-.293-.98-.58-.227-.287-.34-.643-.34-1.07 0-.54.176-.963.53-1.27.36-.307.85-.46 1.47-.46h2.37v5.5h-.9v-2.05h-1.21l-1.3 2.05h-1.05zm2.09-2.85h1.47v-1.85h-1.47c-.334 0-.597.083-.79.25-.194.16-.29.387-.29.68 0 .287.096.513.29.68.193.16.456.24.79.24zM24.94 148.476v-5.5h.86v3c0 .193-.007.397-.02.61a8.72 8.72 0 01-.04.61c-.013.187-.03.347-.05.48l2.22-4.7h1.15v5.5h-.86v-3c0-.193.003-.397.01-.61.013-.213.03-.417.05-.61l.05-.49-2.22 4.71h-1.15zm11.972 1.8v-7.3h.9v1.05h.18l-.18.21c0-.42.137-.75.41-.99.28-.247.647-.37 1.1-.37.553 0 .993.183 1.32.55.333.36.5.857.5 1.49v1.61c0 .42-.077.783-.23 1.09a1.636 1.636 0 01-.63.71c-.266.167-.586.25-.96.25-.447 0-.81-.123-1.09-.37s-.42-.577-.42-.99l.18.21h-.2l.02 1.25v1.6h-.9zm2.11-2.48c.38 0 .677-.113.89-.34.22-.227.33-.553.33-.98v-1.5c0-.427-.11-.753-.33-.98-.213-.227-.51-.34-.89-.34-.366 0-.66.117-.88.35-.22.233-.33.557-.33.97v1.5c0 .413.11.737.33.97.22.233.514.35.88.35zm5.966.78a2.4 2.4 0 01-1.14-.26 1.881 1.881 0 01-.75-.73c-.173-.32-.26-.69-.26-1.11v-1.5c0-.427.087-.797.26-1.11.18-.313.43-.557.75-.73a2.4 2.4 0 011.14-.26c.434 0 .81.087 1.13.26.327.173.577.417.75.73.18.313.27.683.27 1.11v.97h-3.42v.53c0 .433.11.767.33 1 .22.227.534.34.94.34.347 0 .627-.06.84-.18a.795.795 0 00.39-.56h.9a1.53 1.53 0 01-.68 1.1c-.386.267-.87.4-1.45.4zm1.27-3.23v-.37c0-.433-.11-.767-.33-1-.213-.233-.526-.35-.94-.35-.406 0-.72.117-.94.35-.22.233-.33.567-.33 1v.29h2.61l-.07.08zm2.386 3.13l-.02-5.5h.84v4.82h1.17v-4.82h.72v4.82h1.16v-4.82h.83v5.5h-4.7zm7.857.1c-.58 0-1.037-.147-1.37-.44-.334-.3-.5-.703-.5-1.21 0-.513.166-.917.5-1.21.333-.293.783-.44 1.35-.44h1.7v-.55c0-.34-.104-.6-.31-.78-.2-.187-.487-.28-.86-.28-.327 0-.6.07-.82.21a.747.747 0 00-.38.55h-.9c.06-.473.283-.85.67-1.13.386-.28.87-.42 1.45-.42.633 0 1.133.163 1.5.49.366.327.55.77.55 1.33v3.78h-.88v-1.05h-.15l.15-.15c0 .4-.157.717-.47.95-.307.233-.717.35-1.23.35zm.22-.71c.426 0 .776-.107 1.05-.32a.996.996 0 00.41-.82v-.78H56.5c-.3 0-.537.083-.71.25-.174.167-.26.393-.26.68 0 .307.103.55.31.73.213.173.506.26.88.26zm5.806.61v-4.71h-2v-.79h4.9v.79h-2v4.71h-.9zm4.426 0v-5.5h.9v2.02h1.62c.62 0 1.106.157 1.46.47.36.307.54.73.54 1.27 0 .533-.18.957-.54 1.27-.36.313-.847.47-1.46.47h-2.52zm.9-.82h1.62c.346 0 .61-.077.79-.23.186-.16.28-.39.28-.69 0-.3-.094-.527-.28-.68-.18-.16-.444-.24-.79-.24h-1.62v1.84zm12.662.82v-4.71h-2v-.79h4.9v.79h-2v4.71h-.9zm6.446.1c-.433 0-.813-.087-1.14-.26a1.881 1.881 0 01-.75-.73c-.173-.32-.26-.69-.26-1.11v-1.5c0-.427.087-.797.26-1.11.18-.313.43-.557.75-.73.327-.173.707-.26 1.14-.26.433 0 .81.087 1.13.26a1.8 1.8 0 01.75.73c.18.313.27.683.27 1.11v.97h-3.42v.53c0 .433.11.767.33 1 .22.227.533.34.94.34.347 0 .627-.06.84-.18a.794.794 0 00.39-.56h.9c-.06.46-.287.827-.68 1.1-.387.267-.87.4-1.45.4zm1.27-3.23v-.37c0-.433-.11-.767-.33-1-.213-.233-.527-.35-.94-.35-.407 0-.72.117-.94.35-.22.233-.33.567-.33 1v.29h2.61l-.07.08zm2.696 3.13v-5.5h.9v2.27h.94l1.6-2.27h1.03l-1.85 2.62 1.88 2.88h-1.05l-1.6-2.45h-.95v2.45h-.9zm6.806 1.8l.81-2.14-2.04-5.16h1l1.28 3.4c.047.113.09.25.13.41.04.153.074.283.1.39l.1-.39c.04-.16.08-.297.12-.41l1.2-3.4h.97l-2.71 7.3h-.96zm9.166-.4v-1.4h-4.31v-5.5h.81v4.74h1.16v-4.74h.7v4.74h1.16v-4.74h.81v4.74h.47v2.16h-.8zm1.986-1.4v-5.5h.86v3c0 .193-.006.397-.02.61-.006.213-.02.417-.04.61-.013.187-.03.347-.05.48l2.22-4.7h1.15v5.5h-.86v-3c0-.193.004-.397.01-.61.014-.213.03-.417.05-.61l.05-.49-2.22 4.71h-1.15zm8.056.1c-.433 0-.813-.087-1.14-.26a1.881 1.881 0 01-.75-.73c-.173-.32-.26-.69-.26-1.11v-1.5c0-.427.087-.797.26-1.11.18-.313.43-.557.75-.73.327-.173.707-.26 1.14-.26.434 0 .81.087 1.13.26.327.173.577.417.75.73.18.313.27.683.27 1.11v.97h-3.42v.53c0 .433.11.767.33 1 .22.227.534.34.94.34.347 0 .627-.06.84-.18a.79.79 0 00.39-.56h.9a1.53 1.53 0 01-.68 1.1c-.386.267-.87.4-1.45.4zm1.27-3.23v-.37c0-.433-.11-.767-.33-1-.213-.233-.526-.35-.94-.35-.406 0-.72.117-.94.35-.22.233-.33.567-.33 1v.29h2.61l-.07.08zm-91.471 16.2c-.58 0-1.057-.123-1.43-.37a1.47 1.47 0 01-.66-1h.95c.047.167.17.303.37.41.207.107.463.16.77.16h.47c.327 0 .58-.077.76-.23a.739.739 0 00.28-.6c0-.267-.09-.477-.27-.63-.173-.153-.43-.23-.77-.23H26v-.78h1.18c.307 0 .54-.073.7-.22a.75.75 0 00.24-.58.756.756 0 00-.11-.42.638.638 0 00-.31-.26c-.14-.06-.31-.09-.51-.09h-.5c-.267 0-.497.06-.69.18-.193.12-.31.267-.35.44h-.95c.067-.413.283-.753.65-1.02.367-.267.813-.4 1.34-.4h.5c.393 0 .73.063 1.01.19.28.12.493.293.64.52.153.227.23.497.23.81 0 .327-.107.597-.32.81-.213.207-.513.323-.9.35v.04c.473.033.817.16 1.03.38.213.22.32.537.32.95 0 .487-.18.873-.54 1.16-.36.287-.843.43-1.45.43h-.47zm5.776.03c-.58 0-1.037-.147-1.37-.44-.333-.3-.5-.703-.5-1.21 0-.513.167-.917.5-1.21.333-.293.783-.44 1.35-.44h1.7v-.55c0-.34-.103-.6-.31-.78-.2-.187-.487-.28-.86-.28-.327 0-.6.07-.82.21a.747.747 0 00-.38.55h-.9c.06-.473.283-.85.67-1.13.387-.28.87-.42 1.45-.42.633 0 1.133.163 1.5.49.367.327.55.77.55 1.33v3.78h-.88v-1.05h-.15l.15-.15c0 .4-.157.717-.47.95-.307.233-.717.35-1.23.35zm.22-.71c.427 0 .777-.107 1.05-.32a.996.996 0 00.41-.82v-.78h-1.68c-.3 0-.537.083-.71.25-.173.167-.26.393-.26.68 0 .307.103.55.31.73.213.173.507.26.88.26zm3.556 2.01v-2.17h.45c.114-.113.23-.337.35-.67.127-.333.194-.757.2-1.27l.06-2.79h3.59v4.73h.7v2.17h-.8v-1.4h-3.75v1.4h-.8zm1.4-2.17h2.35v-3.93h-1.84l-.04 2.01c-.006.527-.063.953-.17 1.28-.106.327-.206.54-.3.64zm6.816.87c-.58 0-1.036-.147-1.37-.44-.333-.3-.5-.703-.5-1.21 0-.513.167-.917.5-1.21.334-.293.784-.44 1.35-.44h1.7v-.55c0-.34-.103-.6-.31-.78-.2-.187-.486-.28-.86-.28-.326 0-.6.07-.82.21a.747.747 0 00-.38.55h-.9c.06-.473.284-.85.67-1.13.387-.28.87-.42 1.45-.42.634 0 1.134.163 1.5.49.367.327.55.77.55 1.33v3.78h-.88v-1.05h-.15l.15-.15c0 .4-.156.717-.47.95-.306.233-.716.35-1.23.35zm.22-.71c.427 0 .777-.107 1.05-.32a.996.996 0 00.41-.82v-.78h-1.68c-.3 0-.536.083-.71.25-.173.167-.26.393-.26.68 0 .307.104.55.31.73.214.173.507.26.88.26zm7.356.61v-2c-.106.027-.27.053-.49.08-.213.02-.44.03-.68.03-.68.007-1.21-.157-1.59-.49-.373-.34-.56-.813-.56-1.42v-1.7h.9v1.7c0 .34.114.61.34.81.234.193.554.29.96.29.28 0 .517-.01.71-.03a3.8 3.8 0 00.41-.07v-2.7h.9v5.5h-.9zm2.836 0v-5.5h.86v3c0 .193-.006.397-.02.61-.006.213-.02.417-.04.61-.013.187-.03.347-.05.48l2.22-4.7h1.15v5.5h-.86v-3c0-.193.004-.397.01-.61.014-.213.03-.417.05-.61l.05-.49-2.22 4.71h-1.15zm8.057.1c-.254 0-.457-.073-.61-.22-.147-.147-.22-.343-.22-.59 0-.26.073-.467.22-.62.153-.153.356-.23.61-.23.253 0 .453.077.6.23.153.153.23.36.23.62 0 .247-.077.443-.23.59-.147.147-.347.22-.6.22zM24.23 179.4v-2.47h.37a3.53 3.53 0 00.23-.51c.087-.22.16-.47.22-.75s.09-.58.09-.9l.06-4.07h3.93v6.23h.64v2.47h-1.15V178h-3.24v1.4h-1.15zm1.62-2.47h2.08v-5.15h-1.56l-.05 2.99a5.2 5.2 0 01-.17 1.31c-.107.387-.207.67-.3.85zm7.146 1.16c-.467 0-.873-.087-1.22-.26-.34-.18-.607-.43-.8-.75-.187-.327-.28-.71-.28-1.15v-1.36c0-.44.093-.82.28-1.14.193-.327.46-.577.8-.75.347-.18.753-.27 1.22-.27.473 0 .88.09 1.22.27.34.173.603.423.79.75.193.32.29.697.29 1.13v1.37c0 .44-.097.823-.29 1.15-.187.32-.45.57-.79.75-.34.173-.747.26-1.22.26zm0-1.09c.333 0 .59-.09.77-.27.187-.187.28-.453.28-.8v-1.36c0-.353-.093-.62-.28-.8-.18-.18-.437-.27-.77-.27-.327 0-.583.09-.77.27-.187.18-.28.447-.28.8v1.36c0 .347.093.613.28.8.187.18.443.27.77.27zm6.016 1.1c-.467 0-.877-.087-1.23-.26a2.001 2.001 0 01-.81-.75c-.193-.327-.29-.71-.29-1.15v-1.38c0-.447.097-.83.29-1.15.194-.32.463-.567.81-.74.354-.18.764-.27 1.23-.27.694 0 1.247.18 1.66.54.414.353.63.837.65 1.45h-1.25c-.02-.287-.123-.507-.31-.66-.18-.16-.43-.24-.75-.24-.333 0-.596.093-.79.28-.193.18-.29.44-.29.78v1.39c0 .34.097.603.29.79.194.187.457.28.79.28.32 0 .57-.077.75-.23.187-.16.29-.383.31-.67h1.25c-.02.613-.236 1.1-.65 1.46-.413.353-.966.53-1.66.53zm5.346-.1v-4.35h-1.88v-1.15h5.02v1.15h-1.88V178h-1.26zm5.286 1.8l.77-2.1-2.05-5.2h1.37l1.02 2.81c.054.153.107.34.16.56a8.7 8.7 0 01.12.53l.13-.53a6.44 6.44 0 01.16-.56l.96-2.81h1.32l-2.65 7.3h-1.31zm5.117-1.8v-5.5h4.44v5.5h-1.25v-4.34h-1.94V178h-1.25zm5.996 0v-5.5h1.25v2.13h1.94v-2.13h1.25v5.5h-1.25v-2.21h-1.94V178h-1.25zm8.216.09c-.467 0-.874-.087-1.22-.26-.34-.18-.607-.43-.8-.75-.187-.327-.28-.71-.28-1.15v-1.36c0-.44.093-.82.28-1.14.193-.327.46-.577.8-.75.346-.18.753-.27 1.22-.27.473 0 .88.09 1.22.27.34.173.603.423.79.75.193.32.29.697.29 1.13v1.37c0 .44-.097.823-.29 1.15-.187.32-.45.57-.79.75-.34.173-.747.26-1.22.26zm0-1.09c.333 0 .59-.09.77-.27.186-.187.28-.453.28-.8v-1.36c0-.353-.094-.62-.28-.8-.18-.18-.437-.27-.77-.27-.327 0-.584.09-.77.27-.187.18-.28.447-.28.8v1.36c0 .347.093.613.28.8.186.18.443.27.77.27zm6.016 1.1c-.467 0-.877-.087-1.23-.26a2.001 2.001 0 01-.81-.75c-.194-.327-.29-.71-.29-1.15v-1.38c0-.447.096-.83.29-1.15.193-.32.463-.567.81-.74.353-.18.763-.27 1.23-.27.693 0 1.246.18 1.66.54.413.353.63.837.65 1.45h-1.25c-.02-.287-.124-.507-.31-.66-.18-.16-.43-.24-.75-.24-.334 0-.597.093-.79.28-.194.18-.29.44-.29.78v1.39c0 .34.096.603.29.79.193.187.456.28.79.28.32 0 .57-.077.75-.23.186-.16.29-.383.31-.67h1.25c-.02.613-.237 1.1-.65 1.46-.414.353-.967.53-1.66.53zm5.346-.1v-4.35h-1.88v-1.15h5.02v1.15h-1.88V178h-1.26zm4.446 0v-5.5h1.25v1.8h1.42c.667 0 1.187.167 1.56.5.38.327.57.78.57 1.36 0 .567-.193 1.017-.58 1.35-.38.327-.893.49-1.54.49h-2.68zm1.25-1.1h1.37c.293 0 .517-.063.67-.19.16-.133.24-.32.24-.56 0-.24-.08-.423-.24-.55-.153-.133-.377-.2-.67-.2h-1.37v1.5zm6.926-2.82c-.28 0-.507-.077-.68-.23a.809.809 0 01-.25-.61.79.79 0 01.25-.61c.173-.153.4-.23.68-.23s.503.077.67.23c.173.153.26.357.26.61 0 .247-.087.45-.26.61-.167.153-.39.23-.67.23zm0 4.02c-.28 0-.507-.077-.68-.23a.79.79 0 01-.25-.61.79.79 0 01.25-.61c.173-.153.4-.23.68-.23s.503.077.67.23c.173.153.26.357.26.61a.774.774 0 01-.26.61c-.167.153-.39.23-.67.23zm9.552-.1l1.5-3.2a1.929 1.929 0 01-1.04-.73c-.253-.353-.38-.777-.38-1.27 0-.42.09-.787.27-1.1a1.87 1.87 0 01.76-.73c.327-.18.707-.27 1.14-.27h2.24v7.3h-.9v-3.1h-1.16l-1.39 3.1h-1.04zm2.25-3.9h1.34v-2.6h-1.34c-.366 0-.666.12-.9.36-.226.233-.34.547-.34.94 0 .387.114.7.34.94.227.24.527.36.9.36zM24.94 191v-5.5h2.38c.573 0 1.017.13 1.33.39.313.253.47.61.47 1.07 0 .38-.13.687-.39.92-.26.227-.603.34-1.03.34v-.08c.467 0 .84.117 1.12.35.287.233.43.547.43.94 0 .493-.167.88-.5 1.16-.333.273-.8.41-1.4.41h-2.41zm.88-.79h1.53c.32 0 .567-.07.74-.21.18-.14.27-.337.27-.59 0-.26-.09-.46-.27-.6-.173-.14-.42-.21-.74-.21h-1.53v1.61zm0-2.39h1.5c.28 0 .5-.067.66-.2.167-.133.25-.32.25-.56 0-.24-.08-.427-.24-.56-.16-.14-.383-.21-.67-.21h-1.5v1.53zm7.196 3.28c-.44 0-.827-.083-1.16-.25a1.805 1.805 0 01-.76-.72c-.18-.32-.27-.697-.27-1.13v-1.5c0-.44.09-.817.27-1.13.18-.313.433-.553.76-.72.333-.167.72-.25 1.16-.25.633 0 1.143.17 1.53.51.387.34.59.803.61 1.39h-.9c-.02-.353-.14-.623-.36-.81-.213-.193-.507-.29-.88-.29-.393 0-.707.113-.94.34-.233.22-.35.537-.35.95V189c0 .413.117.733.35.96.233.227.547.34.94.34.373 0 .667-.097.88-.29.22-.193.34-.463.36-.81h.9c-.02.587-.223 1.05-.61 1.39-.387.34-.897.51-1.53.51zm5.976 0c-.433 0-.813-.087-1.14-.26a1.881 1.881 0 01-.75-.73c-.173-.32-.26-.69-.26-1.11v-1.5c0-.427.087-.797.26-1.11.18-.313.43-.557.75-.73.327-.173.707-.26 1.14-.26.434 0 .81.087 1.13.26a1.8 1.8 0 01.75.73c.18.313.27.683.27 1.11v.97h-3.42v.53c0 .433.11.767.33 1 .22.227.534.34.94.34.347 0 .627-.06.84-.18a.795.795 0 00.39-.56h.9a1.53 1.53 0 01-.68 1.1c-.386.267-.87.4-1.45.4zm1.27-3.23v-.37c0-.433-.11-.767-.33-1-.213-.233-.526-.35-.94-.35-.406 0-.72.117-.94.35-.22.233-.33.567-.33 1v.29h2.61l-.07.08zm3.026 3.13v-5.5h3.95v.82h-3.05V191h-.9zm4.996 1.4v-2.17h.45c.114-.113.23-.337.35-.67.127-.333.194-.757.2-1.27l.06-2.79h3.59v4.73h.7v2.17h-.8V191h-3.75v1.4h-.8zm1.4-2.17h2.35v-3.93h-1.84l-.04 2.01c-.006.527-.063.953-.17 1.28-.106.327-.206.54-.3.64zm6.817.87c-.58 0-1.037-.147-1.37-.44-.334-.3-.5-.703-.5-1.21 0-.513.166-.917.5-1.21.333-.293.783-.44 1.35-.44h1.7v-.55c0-.34-.104-.6-.31-.78-.2-.187-.487-.28-.86-.28-.327 0-.6.07-.82.21a.747.747 0 00-.38.55h-.9c.06-.473.283-.85.67-1.13.386-.28.87-.42 1.45-.42.633 0 1.133.163 1.5.49.366.327.55.77.55 1.33V191h-.88v-1.05h-.15l.15-.15c0 .4-.157.717-.47.95-.307.233-.717.35-1.23.35zm.22-.71c.426 0 .776-.107 1.05-.32a.996.996 0 00.41-.82v-.78H56.5c-.3 0-.537.083-.71.25-.174.167-.26.393-.26.68 0 .307.103.55.31.73.213.173.506.26.88.26zm10.192.61v-5.5h.9v2.29h2.32v-2.29h.9v5.5h-.9v-2.39h-2.32V191h-.9zm7.576.1c-.58 0-1.037-.147-1.37-.44-.334-.3-.5-.703-.5-1.21 0-.513.166-.917.5-1.21.333-.293.783-.44 1.35-.44h1.7v-.55c0-.34-.104-.6-.31-.78-.2-.187-.487-.28-.86-.28-.327 0-.6.07-.82.21a.747.747 0 00-.38.55h-.9c.06-.473.283-.85.67-1.13.386-.28.87-.42 1.45-.42.633 0 1.133.163 1.5.49.366.327.55.77.55 1.33V191h-.88v-1.05h-.15l.15-.15c0 .4-.157.717-.47.95-.307.233-.717.35-1.23.35zm.22-.71c.426 0 .776-.107 1.05-.32a.996.996 0 00.41-.82v-.78h-1.68c-.3 0-.537.083-.71.25-.174.167-.26.393-.26.68 0 .307.103.55.31.73.213.173.506.26.88.26zm12.272.71c-.44 0-.827-.083-1.16-.25a1.805 1.805 0 01-.76-.72c-.18-.32-.27-.697-.27-1.13v-1.5c0-.44.09-.817.27-1.13.18-.313.433-.553.76-.72.333-.167.72-.25 1.16-.25.633 0 1.143.17 1.53.51.387.34.59.803.61 1.39h-.9c-.02-.353-.14-.623-.36-.81-.213-.193-.507-.29-.88-.29-.393 0-.707.113-.94.34-.233.22-.35.537-.35.95V189c0 .413.117.733.35.96.233.227.547.34.94.34.373 0 .667-.097.88-.29.22-.193.34-.463.36-.81h.9c-.02.587-.223 1.05-.61 1.39-.387.34-.897.51-1.53.51zm3.916-.1v-5.5h2.38c.573 0 1.017.13 1.33.39.313.253.47.61.47 1.07 0 .38-.13.687-.39.92-.26.227-.603.34-1.03.34v-.08c.467 0 .84.117 1.12.35.287.233.43.547.43.94 0 .493-.167.88-.5 1.16-.333.273-.8.41-1.4.41h-2.41zm.88-.79h1.53c.32 0 .567-.07.74-.21.18-.14.27-.337.27-.59 0-.26-.09-.46-.27-.6-.173-.14-.42-.21-.74-.21h-1.53v1.61zm0-2.39h1.5c.28 0 .5-.067.66-.2.167-.133.25-.32.25-.56 0-.24-.08-.427-.24-.56-.16-.14-.383-.21-.67-.21h-1.5v1.53zm4.776 3.18l1.41-2.12c-.42-.1-.746-.293-.98-.58-.227-.287-.34-.643-.34-1.07 0-.54.177-.963.53-1.27.36-.307.85-.46 1.47-.46h2.37v5.5h-.9v-2.05h-1.21l-1.3 2.05h-1.05zm2.09-2.85h1.47v-1.85h-1.47c-.333 0-.597.083-.79.25-.193.16-.29.387-.29.68 0 .287.097.513.29.68.194.16.457.24.79.24zm6.046 2.92c-.58 0-1.056-.123-1.43-.37a1.475 1.475 0 01-.66-1h.95c.047.167.17.303.37.41.207.107.464.16.77.16h.47c.327 0 .58-.077.76-.23a.738.738 0 00.28-.6c0-.267-.09-.477-.27-.63-.173-.153-.43-.23-.77-.23h-1.21v-.78h1.18c.307 0 .54-.073.7-.22a.75.75 0 00.24-.58.75.75 0 00-.11-.42.634.634 0 00-.31-.26c-.14-.06-.31-.09-.51-.09h-.5c-.266 0-.496.06-.69.18-.193.12-.31.267-.35.44h-.95c.067-.413.284-.753.65-1.02.367-.267.814-.4 1.34-.4h.5c.394 0 .73.063 1.01.19.28.12.494.293.64.52.154.227.23.497.23.81 0 .327-.106.597-.32.81-.213.207-.513.323-.9.35v.04c.474.033.817.16 1.03.38.214.22.32.537.32.95 0 .487-.18.873-.54 1.16-.36.287-.843.43-1.45.43h-.47zm4.196-.07v-5.5h.86v3c0 .193-.006.397-.02.61-.006.213-.02.417-.04.61-.013.187-.03.347-.05.48l2.22-4.7h1.15v5.5h-.86v-3c0-.193.004-.397.01-.61.014-.213.03-.417.05-.61l.05-.49-2.22 4.71h-1.15zm6.706 1.6l.8-3.11h1.3l-1.3 3.11h-.8zM27 204.1c-.433 0-.813-.087-1.14-.26a1.881 1.881 0 01-.75-.73c-.173-.32-.26-.69-.26-1.11v-1.5c0-.427.087-.797.26-1.11.18-.313.43-.557.75-.73.327-.173.707-.26 1.14-.26.433 0 .81.087 1.13.26a1.8 1.8 0 01.75.73c.18.313.27.683.27 1.11v.97h-3.42v.53c0 .433.11.767.33 1 .22.227.533.34.94.34.347 0 .627-.06.84-.18a.795.795 0 00.39-.56h.9c-.06.46-.287.827-.68 1.1-.387.267-.87.4-1.45.4zm1.27-3.23v-.37c0-.433-.11-.767-.33-1-.213-.233-.527-.35-.94-.35-.407 0-.72.117-.94.35-.22.233-.33.567-.33 1v.29h2.61l-.07.08zm4.746 3.23c-.44 0-.827-.083-1.16-.25a1.805 1.805 0 01-.76-.72c-.18-.32-.27-.697-.27-1.13v-1.5c0-.44.09-.817.27-1.13.18-.313.433-.553.76-.72.333-.167.72-.25 1.16-.25.633 0 1.143.17 1.53.51.387.34.59.803.61 1.39h-.9c-.02-.353-.14-.623-.36-.81-.213-.193-.507-.29-.88-.29-.393 0-.707.113-.94.34-.233.22-.35.537-.35.95V202c0 .413.117.733.35.96.233.227.547.34.94.34.373 0 .667-.097.88-.29.22-.193.34-.463.36-.81h.9c-.02.587-.223 1.05-.61 1.39-.387.34-.897.51-1.53.51zm3.226-.03v-.84h.18c.307 0 .52-.12.64-.36.127-.24.194-.67.2-1.29l.06-3.08h3.73v5.5h-.9v-4.68h-1.94l-.05 2.3c-.013.58-.08 1.05-.2 1.41-.113.36-.293.623-.54.79-.24.167-.556.25-.95.25h-.23zm6.686-.07v-5.5h.86v3c0 .193-.006.397-.02.61-.006.213-.02.417-.04.61-.013.187-.03.347-.05.48l2.22-4.7h1.15v5.5h-.86v-3c0-.193.004-.397.01-.61.014-.213.03-.417.05-.61l.05-.49-2.22 4.71h-1.15zm11.992 0v-5.5h4.12v5.5h-.9v-4.68h-2.32V204h-.9zm8.057.08c-.44 0-.82-.083-1.14-.25a1.82 1.82 0 01-.75-.72c-.174-.32-.26-.697-.26-1.13v-1.46c0-.44.086-.817.26-1.13.18-.313.43-.553.75-.72.32-.167.7-.25 1.14-.25.44 0 .82.083 1.14.25.32.167.566.407.74.72.18.313.27.687.27 1.12v1.47c0 .433-.09.81-.27 1.13a1.76 1.76 0 01-.74.72c-.32.167-.7.25-1.14.25zm0-.8c.393 0 .7-.11.92-.33.22-.22.33-.543.33-.97v-1.46c0-.427-.11-.75-.33-.97-.22-.22-.527-.33-.92-.33-.387 0-.694.11-.92.33-.22.22-.33.543-.33.97v1.46c0 .427.11.75.33.97.226.22.533.33.92.33zm5.546.72v-4.71h-2v-.79h4.9v.79h-2V204h-.9zm4.366 1.8v-7.3h.9v1.05h.18l-.18.21c0-.42.136-.75.41-.99.28-.247.646-.37 1.1-.37.553 0 .993.183 1.32.55.333.36.5.857.5 1.49v1.61c0 .42-.077.783-.23 1.09a1.636 1.636 0 01-.63.71c-.267.167-.587.25-.96.25-.447 0-.81-.123-1.09-.37s-.42-.577-.42-.99l.18.21h-.2l.02 1.25v1.6h-.9zm2.11-2.48c.38 0 .676-.113.89-.34.22-.227.33-.553.33-.98v-1.5c0-.427-.11-.753-.33-.98-.214-.227-.51-.34-.89-.34-.367 0-.66.117-.88.35-.22.233-.33.557-.33.97v1.5c0 .413.11.737.33.97.22.233.513.35.88.35zm5.966.78c-.434 0-.814-.087-1.14-.26a1.881 1.881 0 01-.75-.73c-.174-.32-.26-.69-.26-1.11v-1.5c0-.427.087-.797.26-1.11.18-.313.43-.557.75-.73.326-.173.706-.26 1.14-.26.433 0 .81.087 1.13.26a1.8 1.8 0 01.75.73c.18.313.27.683.27 1.11v.97h-3.42v.53c0 .433.11.767.33 1 .22.227.533.34.94.34.346 0 .626-.06.84-.18a.794.794 0 00.39-.56h.9c-.06.46-.287.827-.68 1.1-.387.267-.87.4-1.45.4zm1.27-3.23v-.37c0-.433-.11-.767-.33-1-.213-.233-.527-.35-.94-.35-.407 0-.72.117-.94.35-.22.233-.33.567-.33 1v.29h2.61l-.07.08zm4.726 3.23c-.647 0-1.16-.19-1.54-.57-.373-.387-.56-.913-.56-1.58v-2.5c0-.88.22-1.557.66-2.03.44-.48 1.07-.72 1.89-.72h1.4v.9h-1.4c-.54 0-.95.16-1.23.48-.28.313-.42.77-.42 1.37v.65h.14l-.14.2c.007-.393.14-.7.4-.92.26-.22.613-.33 1.06-.33.58 0 1.03.187 1.35.56.327.373.49.887.49 1.54v.8c0 .447-.083.83-.25 1.15a1.75 1.75 0 01-.72.74c-.313.173-.69.26-1.13.26zm0-.8c.387 0 .683-.117.89-.35.207-.233.31-.567.31-1v-.8c0-.433-.103-.767-.31-1-.207-.233-.503-.35-.89-.35s-.683.117-.89.35c-.207.227-.31.56-.31 1v.8c0 .433.103.767.31 1 .207.233.503.35.89.35zm4.776 2.5l.81-2.14-2.04-5.16h1l1.28 3.4c.047.113.09.25.13.41l.1.39.1-.39c.04-.16.08-.297.12-.41l1.2-3.4h.97l-2.71 7.3h-.96zm7.216-1.7c-.433 0-.813-.087-1.14-.26a1.881 1.881 0 01-.75-.73c-.173-.32-.26-.69-.26-1.11v-1.5c0-.427.087-.797.26-1.11.18-.313.43-.557.75-.73.327-.173.707-.26 1.14-.26.433 0 .81.087 1.13.26.327.173.577.417.75.73.18.313.27.683.27 1.11v.97h-3.42v.53c0 .433.11.767.33 1 .22.227.533.34.94.34.347 0 .627-.06.84-.18a.797.797 0 00.39-.56h.9c-.06.46-.287.827-.68 1.1-.387.267-.87.4-1.45.4zm1.27-3.23v-.37c0-.433-.11-.767-.33-1-.213-.233-.526-.35-.94-.35-.407 0-.72.117-.94.35-.22.233-.33.567-.33 1v.29h2.61l-.07.08zm4.276 3.13v-4.71h-2v-.79h4.9v.79h-2V204h-.9zm6.466.1a2.56 2.56 0 01-1.16-.25 1.809 1.809 0 01-.76-.72c-.18-.32-.27-.697-.27-1.13v-1.5c0-.44.09-.817.27-1.13.18-.313.434-.553.76-.72a2.56 2.56 0 011.16-.25c.634 0 1.144.17 1.53.51.387.34.59.803.61 1.39h-.9c-.02-.353-.14-.623-.36-.81-.213-.193-.506-.29-.88-.29-.393 0-.706.113-.94.34-.233.22-.35.537-.35.95V202c0 .413.117.733.35.96.234.227.547.34.94.34.374 0 .667-.097.88-.29.22-.193.34-.463.36-.81h.9c-.02.587-.223 1.05-.61 1.39-.386.34-.896.51-1.53.51zm3.576-.1l1.41-2.12c-.42-.1-.746-.293-.98-.58-.226-.287-.34-.643-.34-1.07 0-.54.177-.963.53-1.27.36-.307.85-.46 1.47-.46h2.37v5.5h-.9v-2.05h-1.21l-1.3 2.05h-1.05zm2.09-2.85h1.47v-1.85h-1.47c-.333 0-.596.083-.79.25-.193.16-.29.387-.29.68 0 .287.097.513.29.68.194.16.457.24.79.24zM27.02 217.1c-.44 0-.827-.083-1.16-.25a1.805 1.805 0 01-.76-.72c-.18-.32-.27-.697-.27-1.13v-1.5c0-.44.09-.817.27-1.13.18-.313.433-.553.76-.72.333-.167.72-.25 1.16-.25.633 0 1.143.17 1.53.51.387.34.59.803.61 1.39h-.9c-.02-.353-.14-.623-.36-.81-.213-.193-.507-.29-.88-.29-.393 0-.707.113-.94.34-.233.22-.35.537-.35.95V215c0 .413.117.733.35.96.233.227.547.34.94.34.373 0 .667-.097.88-.29.22-.193.34-.463.36-.81h.9c-.02.587-.223 1.05-.61 1.39-.387.34-.897.51-1.53.51zm5.976-.02c-.44 0-.82-.083-1.14-.25a1.82 1.82 0 01-.75-.72c-.173-.32-.26-.697-.26-1.13v-1.46c0-.44.087-.817.26-1.13.18-.313.43-.553.75-.72.32-.167.7-.25 1.14-.25.44 0 .82.083 1.14.25.32.167.567.407.74.72.18.313.27.687.27 1.12v1.47c0 .433-.09.81-.27 1.13-.173.313-.42.553-.74.72-.32.167-.7.25-1.14.25zm0-.8c.393 0 .7-.11.92-.33.22-.22.33-.543.33-.97v-1.46c0-.427-.11-.75-.33-.97-.22-.22-.527-.33-.92-.33-.387 0-.693.11-.92.33-.22.22-.33.543-.33.97v1.46c0 .427.11.75.33.97.227.22.533.33.92.33zm3.936.72v-5.5h2.38c.574 0 1.017.13 1.33.39.313.253.47.61.47 1.07 0 .38-.13.687-.39.92-.26.227-.603.34-1.03.34v-.08c.467 0 .84.117 1.12.35.287.233.43.547.43.94 0 .493-.166.88-.5 1.16-.333.273-.8.41-1.4.41h-2.41zm.88-.79h1.53c.32 0 .567-.07.74-.21.18-.14.27-.337.27-.59 0-.26-.09-.46-.27-.6-.173-.14-.42-.21-.74-.21h-1.53v1.61zm0-2.39h1.5c.28 0 .5-.067.66-.2.167-.133.25-.32.25-.56 0-.24-.08-.427-.24-.56-.16-.14-.383-.21-.67-.21h-1.5v1.53zm7.176 3.28a2.4 2.4 0 01-1.14-.26 1.881 1.881 0 01-.75-.73c-.173-.32-.26-.69-.26-1.11v-1.5c0-.427.087-.797.26-1.11.18-.313.43-.557.75-.73a2.4 2.4 0 011.14-.26c.434 0 .81.087 1.13.26.327.173.577.417.75.73.18.313.27.683.27 1.11v.97h-3.42v.53c0 .433.11.767.33 1 .22.227.534.34.94.34.347 0 .627-.06.84-.18a.795.795 0 00.39-.56h.9a1.53 1.53 0 01-.68 1.1c-.386.267-.87.4-1.45.4zm1.27-3.23v-.37c0-.433-.11-.767-.33-1-.213-.233-.526-.35-.94-.35-.406 0-.72.117-.94.35-.22.233-.33.567-.33 1v.29h2.61l-.07.08zm4.276 3.13v-4.71h-2v-.79h4.9v.79h-2V217h-.9zm10.383 0v-5.5h.86v3c0 .193-.007.397-.02.61a8.72 8.72 0 01-.04.61 6.67 6.67 0 01-.05.48l2.22-4.7h1.15v5.5h-.86v-3c0-.193.003-.397.01-.61.013-.213.03-.417.05-.61.02-.2.036-.363.05-.49l-2.22 4.71h-1.15zm5.306.07v-.84h.18c.306 0 .52-.12.64-.36.126-.24.193-.67.2-1.29l.06-3.08h3.73v5.5h-.9v-4.68h-1.94l-.05 2.3c-.014.58-.08 1.05-.2 1.41-.114.36-.294.623-.54.79-.24.167-.557.25-.95.25h-.23zm6.686-.07v-5.5h.86v3c0 .193-.007.397-.02.61a8.72 8.72 0 01-.04.61 6.67 6.67 0 01-.05.48l2.22-4.7h1.15v5.5h-.86v-3c0-.193.003-.397.01-.61.013-.213.03-.417.05-.61.02-.2.036-.363.05-.49l-2.22 4.71h-1.15zm11.992 0v-5.5h4.12v5.5h-.9v-4.68H85.8V217h-.9zm8.056.08c-.44 0-.82-.083-1.14-.25a1.82 1.82 0 01-.75-.72c-.173-.32-.26-.697-.26-1.13v-1.46c0-.44.087-.817.26-1.13.18-.313.43-.553.75-.72.32-.167.7-.25 1.14-.25.44 0 .82.083 1.14.25.32.167.567.407.74.72.18.313.27.687.27 1.12v1.47c0 .433-.09.81-.27 1.13-.173.313-.42.553-.74.72-.32.167-.7.25-1.14.25zm0-.8c.393 0 .7-.11.92-.33.22-.22.33-.543.33-.97v-1.46c0-.427-.11-.75-.33-.97-.22-.22-.527-.33-.92-.33-.387 0-.693.11-.92.33-.22.22-.33.543-.33.97v1.46c0 .427.11.75.33.97.227.22.533.33.92.33zm3.756.72v-5.5h1.22l.72 2.11c.073.213.14.427.2.64.06.207.104.367.13.48.027-.113.067-.273.12-.48.06-.213.124-.43.19-.65l.68-2.1h1.22v5.5h-.87v-.85c0-.3.003-.627.01-.98l.02-1.07c.013-.36.027-.7.04-1.02.013-.327.023-.613.03-.86l-.98 3.13h-.95l-.99-3.11c.013.3.023.673.03 1.12.013.447.023.913.03 1.4.013.487.02.95.02 1.39v.85h-.87zm8.236.08c-.44 0-.82-.083-1.14-.25a1.82 1.82 0 01-.75-.72c-.173-.32-.26-.697-.26-1.13v-1.46c0-.44.087-.817.26-1.13.18-.313.43-.553.75-.72.32-.167.7-.25 1.14-.25.44 0 .82.083 1.14.25.32.167.567.407.74.72.18.313.27.687.27 1.12v1.47c0 .433-.09.81-.27 1.13-.173.313-.42.553-.74.72-.32.167-.7.25-1.14.25zm0-.8c.394 0 .7-.11.92-.33.22-.22.33-.543.33-.97v-1.46c0-.427-.11-.75-.33-.97-.22-.22-.526-.33-.92-.33-.386 0-.693.11-.92.33-.22.22-.33.543-.33.97v1.46c0 .427.11.75.33.97.227.22.534.33.92.33zm7.946 2.12V217h-4.31v-5.5h.81v4.74h1.16v-4.74h.7v4.74h1.16v-4.74h.81v4.74h.47v2.16h-.8zm2.026-1.4v-5.5h.9v2.02h1.62c.62 0 1.107.157 1.46.47.36.307.54.73.54 1.27 0 .533-.18.957-.54 1.27-.36.313-.846.47-1.46.47h-2.52zm.9-.82h1.62c.347 0 .61-.077.79-.23.187-.16.28-.39.28-.69 0-.3-.093-.527-.28-.68-.18-.16-.443-.24-.79-.24h-1.62v1.84zm7.117.92c-.254 0-.457-.073-.61-.22-.147-.147-.22-.343-.22-.59 0-.26.073-.467.22-.62.153-.153.356-.23.61-.23.253 0 .453.077.6.23.153.153.23.36.23.62 0 .247-.077.443-.23.59-.147.147-.347.22-.6.22zM24.78 234v-7.3h4.44v7.3h-1.25v-6.14h-1.94V234h-1.25zm5.986 1.8v-7.3h1.22v1.05h.28l-.28.29c0-.447.133-.797.4-1.05.267-.26.627-.39 1.08-.39.553 0 .997.19 1.33.57.333.38.5.89.5 1.53v1.49c0 .427-.077.8-.23 1.12a1.69 1.69 0 01-.63.73c-.273.173-.597.26-.97.26-.453 0-.813-.127-1.08-.38-.267-.26-.4-.613-.4-1.06l.28.29h-.29l.04 1.31v1.54h-1.25zm2.26-2.78c.32 0 .57-.093.75-.28.18-.187.27-.453.27-.8v-1.38c0-.347-.09-.613-.27-.8-.18-.187-.43-.28-.75-.28-.313 0-.56.097-.74.29-.18.187-.27.45-.27.79v1.38c0 .34.09.607.27.8.18.187.427.28.74.28zm5.356 1.08c-.566 0-1.013-.15-1.34-.45-.327-.3-.49-.703-.49-1.21 0-.54.18-.957.54-1.25.36-.293.87-.44 1.53-.44h1.37v-.47c0-.267-.086-.473-.26-.62-.173-.153-.41-.23-.71-.23-.273 0-.5.06-.68.18a.702.702 0 00-.32.49h-1.22c.06-.52.294-.933.7-1.24.407-.307.927-.46 1.56-.46.674 0 1.204.17 1.59.51.393.333.59.787.59 1.36V234h-1.21v-.96h-.2l.2-.27c0 .407-.15.73-.45.97-.3.24-.7.36-1.2.36zm.41-.94c.353 0 .64-.09.86-.27a.852.852 0 00.34-.7v-.67h-1.35c-.253 0-.457.073-.61.22a.766.766 0 00-.23.58c0 .26.087.467.26.62.18.147.424.22.73.22zm4.006.84v-5.5h1.25v2.16h.82l1.34-2.16h1.4l-1.66 2.66 1.69 2.84h-1.43l-1.34-2.28h-.82V234h-1.25zm7.556 0v-4.35h-1.88v-1.15h5.02v1.15h-1.88V234h-1.26zm4.407 0v-5.5h1.13v2.71c0 .173-.01.38-.03.62a11.7 11.7 0 01-.06.69c-.027.227-.054.423-.08.59l1.94-4.61h1.54v5.5h-1.13v-2.71c0-.18.006-.38.02-.6l.06-.65c.026-.213.053-.393.08-.54L56.3 234h-1.54zm9.136 0v-1.85c-.087.02-.227.043-.42.07-.187.02-.394.03-.62.03-.707 0-1.26-.173-1.66-.52-.4-.353-.6-.843-.6-1.47v-1.76h1.25v1.7c0 .287.1.513.3.68.2.16.473.24.82.24.226 0 .423-.01.59-.03.166-.027.28-.05.34-.07v-2.52h1.26v5.5h-1.26zm5.086.1c-.467 0-.874-.09-1.22-.27a2.001 2.001 0 01-.81-.75 2.26 2.26 0 01-.28-1.14v-1.38c0-.433.093-.81.28-1.13.193-.327.463-.58.81-.76.346-.18.753-.27 1.22-.27.46 0 .86.09 1.2.27.346.18.613.433.8.76.193.32.29.697.29 1.13v.99h-3.39v.39c0 .387.093.68.28.88.186.193.463.29.83.29.28 0 .506-.047.68-.14a.667.667 0 00.33-.43h1.23a1.763 1.763 0 01-.76 1.14c-.407.28-.904.42-1.49.42zm1.08-3.25v-.3c0-.38-.09-.67-.27-.87-.18-.207-.45-.31-.81-.31-.36 0-.634.103-.82.31-.187.207-.28.5-.28.88v.21l2.27-.02-.09.1zm4.926 3.25c-.467 0-.877-.087-1.23-.26a2.001 2.001 0 01-.81-.75c-.194-.327-.29-.71-.29-1.15v-1.38c0-.447.096-.83.29-1.15.193-.32.463-.567.81-.74.353-.18.763-.27 1.23-.27.693 0 1.246.18 1.66.54.413.353.63.837.65 1.45h-1.25c-.02-.287-.124-.507-.31-.66-.18-.16-.43-.24-.75-.24-.334 0-.597.093-.79.28-.194.18-.29.44-.29.78v1.39c0 .34.096.603.29.79.193.187.456.28.79.28.32 0 .57-.077.75-.23.186-.16.29-.383.31-.67h1.25c-.02.613-.237 1.1-.65 1.46-.414.353-.967.53-1.66.53zm3.786-.1v-5.5h1.25v2.16h.82l1.34-2.16h1.4l-1.66 2.66 1.69 2.84h-1.43l-1.34-2.28h-.82V234h-1.25zm5.966 0v-5.5h1.13v2.71c0 .173-.01.38-.03.62a14.4 14.4 0 01-.14 1.28l1.94-4.61h1.54v5.5h-1.13v-2.71c0-.18.007-.38.02-.6l.06-.65c.027-.213.053-.393.08-.54l-1.93 4.5h-1.54zm8.226.1c-.467 0-.873-.09-1.22-.27a2.003 2.003 0 01-.81-.75 2.26 2.26 0 01-.28-1.14v-1.38c0-.433.093-.81.28-1.13a1.98 1.98 0 01.81-.76c.347-.18.753-.27 1.22-.27.46 0 .86.09 1.2.27.347.18.613.433.8.76.193.32.29.697.29 1.13v.99h-3.39v.39c0 .387.093.68.28.88.187.193.463.29.83.29.28 0 .507-.047.68-.14a.666.666 0 00.33-.43h1.23a1.762 1.762 0 01-.76 1.14c-.407.28-.903.42-1.49.42zm1.08-3.25v-.3c0-.38-.09-.67-.27-.87-.18-.207-.45-.31-.81-.31-.36 0-.633.103-.82.31-.187.207-.28.5-.28.88v.21l2.27-.02-.09.1zM24.78 247v-5.5h1.13v2.71c0 .173-.01.38-.03.62-.013.233-.033.463-.06.69-.027.227-.053.423-.08.59l1.94-4.61h1.54v5.5h-1.13v-2.71c0-.18.007-.38.02-.6l.06-.65c.027-.213.053-.393.08-.54l-1.93 4.5h-1.54zm5.996 0v-5.5h1.25v2.13h1.94v-2.13h1.25v5.5h-1.25v-2.21h-1.94V247h-1.25zm8.236.1c-.467 0-.877-.087-1.23-.26a2.001 2.001 0 01-.81-.75c-.193-.327-.29-.71-.29-1.15v-1.38c0-.447.097-.83.29-1.15.194-.32.463-.567.81-.74.354-.18.764-.27 1.23-.27.694 0 1.247.18 1.66.54.414.353.63.837.65 1.45h-1.25c-.02-.287-.123-.507-.31-.66-.18-.16-.43-.24-.75-.24-.333 0-.596.093-.79.28-.193.18-.29.44-.29.78v1.39c0 .34.097.603.29.79.194.187.457.28.79.28.32 0 .57-.077.75-.23.187-.16.29-.383.31-.67h1.25c-.02.613-.236 1.1-.65 1.46-.413.353-.966.53-1.66.53zm5.346-.1v-4.35h-1.88v-1.15h5.02v1.15h-1.88V247h-1.26zm4.396 1.8v-7.3h1.22v1.05h.28l-.28.29c0-.447.134-.797.4-1.05.267-.26.627-.39 1.08-.39.554 0 .997.19 1.33.57.334.38.5.89.5 1.53v1.49c0 .427-.076.8-.23 1.12a1.69 1.69 0 01-.63.73c-.273.173-.596.26-.97.26-.453 0-.813-.127-1.08-.38-.266-.26-.4-.613-.4-1.06l.28.29h-.29l.04 1.31v1.54h-1.25zm2.26-2.78c.32 0 .57-.093.75-.28.18-.187.27-.453.27-.8v-1.38c0-.347-.09-.613-.27-.8-.18-.187-.43-.28-.75-.28-.313 0-.56.097-.74.29-.18.187-.27.45-.27.79v1.38c0 .34.09.607.27.8.18.187.427.28.74.28zm4.627 2.78l.77-2.1-2.05-5.2h1.37l1.02 2.81a10.537 10.537 0 01.28 1.09c.033-.14.076-.317.13-.53.053-.22.106-.407.16-.56l.96-2.81h1.32l-2.65 7.3h-1.31zm4.896-1.8v-5.5h1.5l.68 2.07c.073.227.133.44.18.64.053.2.086.35.1.45l.09-.45c.046-.2.106-.413.18-.64l.65-2.07h1.5v5.5h-1.16v-.94a46.195 46.195 0 01.04-1.78c.013-.327.026-.637.04-.93.02-.3.036-.563.05-.79l-.83 2.85h-1.14l-.86-2.84c.02.28.04.627.06 1.04a38.366 38.366 0 01.08 2.45v.94h-1.16zm8.446.1c-.467 0-.874-.09-1.22-.27a2.001 2.001 0 01-.81-.75 2.26 2.26 0 01-.28-1.14v-1.38c0-.433.093-.81.28-1.13.193-.327.463-.58.81-.76.346-.18.753-.27 1.22-.27.46 0 .86.09 1.2.27.346.18.613.433.8.76.193.32.29.697.29 1.13v.99h-3.39v.39c0 .387.093.68.28.88.186.193.463.29.83.29.28 0 .506-.047.68-.14a.667.667 0 00.33-.43h1.23a1.763 1.763 0 01-.76 1.14c-.407.28-.904.42-1.49.42zm1.08-3.25v-.3c0-.38-.09-.67-.27-.87-.18-.207-.45-.31-.81-.31-.36 0-.634.103-.82.31-.187.207-.28.5-.28.88v.21l2.27-.02-.09.1zm2.686 3.15v-5.5h1.25v2.13h1.94v-2.13h1.25v5.5h-1.25v-2.21h-1.94V247h-1.25zm7.586 0v-4.35h-1.88v-1.15h5.02v1.15h-1.88V247h-1.26zm4.126 0v-5.5h1.08v1.86h.37c.593 0 1.063.167 1.41.5.347.333.52.78.52 1.34 0 .547-.177.983-.53 1.31-.347.327-.813.49-1.4.49h-1.45zm1.08-.97h.37c.287 0 .507-.073.66-.22.16-.147.24-.35.24-.61 0-.273-.08-.487-.24-.64-.153-.153-.373-.23-.66-.23h-.37v1.7zm2.84.97v-5.5h1.08v5.5h-1.08zm4.576-3.92c-.28 0-.507-.077-.68-.23a.809.809 0 01-.25-.61.79.79 0 01.25-.61c.173-.153.4-.23.68-.23s.503.077.67.23c.173.153.26.357.26.61 0 .247-.087.45-.26.61-.167.153-.39.23-.67.23zm0 4.02c-.28 0-.507-.077-.68-.23a.79.79 0 01-.25-.61.79.79 0 01.25-.61c.173-.153.4-.23.68-.23s.503.077.67.23c.173.153.26.357.26.61a.774.774 0 01-.26.61c-.167.153-.39.23-.67.23zM24.94 260v-7.3h4.12v7.3h-.9v-6.48h-2.32V260h-.9zm8.056.08c-.44 0-.82-.083-1.14-.25a1.82 1.82 0 01-.75-.72c-.173-.32-.26-.697-.26-1.13v-1.46c0-.44.087-.817.26-1.13.18-.313.43-.553.75-.72.32-.167.7-.25 1.14-.25.44 0 .82.083 1.14.25.32.167.567.407.74.72.18.313.27.687.27 1.12v1.47c0 .433-.09.81-.27 1.13-.173.313-.42.553-.74.72-.32.167-.7.25-1.14.25zm0-.8c.393 0 .7-.11.92-.33.22-.22.33-.543.33-.97v-1.46c0-.427-.11-.75-.33-.97-.22-.22-.527-.33-.92-.33-.387 0-.693.11-.92.33-.22.22-.33.543-.33.97v1.46c0 .427.11.75.33.97.227.22.533.33.92.33zm3.296 2.12v-2.17h.45c.114-.113.23-.337.35-.67.127-.333.194-.757.2-1.27l.06-2.79h3.59v4.73h.7v2.17h-.8V260h-3.75v1.4h-.8zm1.4-2.17h2.35v-3.93h-1.84l-.04 2.01c-.006.527-.063.953-.17 1.28-.106.327-.206.54-.3.64zm7.296.87a2.4 2.4 0 01-1.14-.26 1.881 1.881 0 01-.75-.73c-.173-.32-.26-.69-.26-1.11v-1.5c0-.427.087-.797.26-1.11.18-.313.43-.557.75-.73a2.4 2.4 0 011.14-.26c.434 0 .81.087 1.13.26.327.173.577.417.75.73.18.313.27.683.27 1.11v.97h-3.42v.53c0 .433.11.767.33 1 .22.227.534.34.94.34.347 0 .627-.06.84-.18a.795.795 0 00.39-.56h.9a1.53 1.53 0 01-.68 1.1c-.386.267-.87.4-1.45.4zm1.27-3.23v-.37c0-.433-.11-.767-.33-1-.213-.233-.526-.35-.94-.35-.406 0-.72.117-.94.35-.22.233-.33.567-.33 1v.29h2.61l-.07.08zm1.976 3.2v-.84h.18c.307 0 .52-.12.64-.36.127-.24.194-.67.2-1.29l.06-3.08h3.73v5.5h-.9v-4.68h-1.94l-.05 2.3c-.013.58-.08 1.05-.2 1.41-.113.36-.293.623-.54.79-.24.167-.556.25-.95.25h-.23zm9.606.03c-.46 0-.83-.157-1.11-.47-.28-.313-.42-.723-.42-1.23v-.83h-.88V260h-.83v-5.5h.83v2.35h.88v-.75c0-.513.137-.923.41-1.23.28-.313.654-.47 1.12-.47.494 0 .89.157 1.19.47.3.307.45.717.45 1.23v2.3c0 .507-.15.917-.45 1.23-.3.313-.696.47-1.19.47zm0-.7c.254 0 .45-.087.59-.26.147-.18.22-.427.22-.74v-2.3c0-.313-.073-.557-.22-.73-.14-.18-.336-.27-.59-.27-.246 0-.44.09-.58.27-.14.173-.21.417-.21.73v2.3c0 .313.07.56.21.74.14.173.334.26.58.26zm5.157.7c-.44 0-.827-.083-1.16-.25a1.805 1.805 0 01-.76-.72c-.18-.32-.27-.697-.27-1.13v-1.5c0-.44.09-.817.27-1.13.18-.313.433-.553.76-.72.333-.167.72-.25 1.16-.25.633 0 1.143.17 1.53.51.386.34.59.803.61 1.39h-.9c-.02-.353-.14-.623-.36-.81-.214-.193-.507-.29-.88-.29-.394 0-.707.113-.94.34-.234.22-.35.537-.35.95V258c0 .413.116.733.35.96.233.227.546.34.94.34.373 0 .666-.097.88-.29.22-.193.34-.463.36-.81h.9c-.02.587-.224 1.05-.61 1.39-.387.34-.897.51-1.53.51zm3.956-.1v-5.5h.9v2.02h1.62c.62 0 1.106.157 1.46.47.36.307.54.73.54 1.27 0 .533-.18.957-.54 1.27-.36.313-.847.47-1.46.47h-2.52zm.9-.82h1.62c.346 0 .61-.077.79-.23.186-.16.28-.39.28-.69 0-.3-.094-.527-.28-.68-.18-.16-.444-.24-.79-.24h-1.62v1.84zm12.662.82v-4.71h-2v-.79h4.9v.79h-2V260h-.9zm6.446.1c-.433 0-.813-.087-1.14-.26a1.881 1.881 0 01-.75-.73c-.173-.32-.26-.69-.26-1.11v-1.5c0-.427.087-.797.26-1.11.18-.313.43-.557.75-.73.327-.173.707-.26 1.14-.26.433 0 .81.087 1.13.26a1.8 1.8 0 01.75.73c.18.313.27.683.27 1.11v.97h-3.42v.53c0 .433.11.767.33 1 .22.227.533.34.94.34.347 0 .627-.06.84-.18a.794.794 0 00.39-.56h.9c-.06.46-.287.827-.68 1.1-.387.267-.87.4-1.45.4zm1.27-3.23v-.37c0-.433-.11-.767-.33-1-.213-.233-.527-.35-.94-.35-.407 0-.72.117-.94.35-.22.233-.33.567-.33 1v.29h2.61l-.07.08zm2.486 3.13v-5.5h1.22l.72 2.11c.073.213.14.427.2.64.06.207.103.367.13.48.027-.113.067-.273.12-.48.06-.213.123-.43.19-.65l.68-2.1h1.22v5.5h-.87v-.85c0-.3.003-.627.01-.98l.02-1.07c.013-.36.027-.7.04-1.02.013-.327.023-.613.03-.86l-.98 3.13h-.95l-.99-3.11c.013.3.023.673.03 1.12.013.447.023.913.03 1.4.013.487.02.95.02 1.39v.85h-.87zm6.886 1.6l.8-3.11h1.3l-1.3 3.11h-.8zm14.442-1.6v-2c-.106.027-.27.053-.49.08-.213.02-.44.03-.68.03-.68.007-1.21-.157-1.59-.49-.373-.34-.56-.813-.56-1.42v-1.7h.9v1.7c0 .34.114.61.34.81.234.193.554.29.96.29.28 0 .517-.01.71-.03.2-.027.337-.05.41-.07v-2.7h.9v5.5h-.9zm4.446 0v-4.71h-2v-.79h4.9v.79h-2V260h-.9zm6.447.08c-.44 0-.82-.083-1.14-.25a1.82 1.82 0 01-.75-.72c-.174-.32-.26-.697-.26-1.13v-1.46c0-.44.086-.817.26-1.13.18-.313.43-.553.75-.72.32-.167.7-.25 1.14-.25.44 0 .82.083 1.14.25.32.167.566.407.74.72.18.313.27.687.27 1.12v1.47c0 .433-.09.81-.27 1.13a1.76 1.76 0 01-.74.72c-.32.167-.7.25-1.14.25zm0-.8c.393 0 .7-.11.92-.33.22-.22.33-.543.33-.97v-1.46c0-.427-.11-.75-.33-.97-.22-.22-.527-.33-.92-.33-.387 0-.694.11-.92.33-.22.22-.33.543-.33.97v1.46c0 .427.11.75.33.97.226.22.533.33.92.33zM24.92 274.8v-7.3h.9v1.05H26l-.18.21c0-.42.137-.75.41-.99.28-.247.647-.37 1.1-.37.553 0 .993.183 1.32.55.333.36.5.857.5 1.49v1.61c0 .42-.077.783-.23 1.09a1.636 1.636 0 01-.63.71c-.267.167-.587.25-.96.25-.447 0-.81-.123-1.09-.37s-.42-.577-.42-.99l.18.21h-.2l.02 1.25v1.6h-.9zm2.11-2.48c.38 0 .677-.113.89-.34.22-.227.33-.553.33-.98v-1.5c0-.427-.11-.753-.33-.98-.213-.227-.51-.34-.89-.34-.367 0-.66.117-.88.35-.22.233-.33.557-.33.97v1.5c0 .413.11.737.33.97.22.233.513.35.88.35zm5.966.78c-.433 0-.813-.087-1.14-.26a1.881 1.881 0 01-.75-.73c-.173-.32-.26-.69-.26-1.11v-1.5c0-.427.087-.797.26-1.11.18-.313.43-.557.75-.73.327-.173.707-.26 1.14-.26.433 0 .81.087 1.13.26a1.8 1.8 0 01.75.73c.18.313.27.683.27 1.11v.97h-3.42v.53c0 .433.11.767.33 1 .22.227.533.34.94.34.347 0 .627-.06.84-.18a.795.795 0 00.39-.56h.9c-.06.46-.287.827-.68 1.1-.387.267-.87.4-1.45.4zm1.27-3.23v-.37c0-.433-.11-.767-.33-1-.213-.233-.527-.35-.94-.35-.407 0-.72.117-.94.35-.22.233-.33.567-.33 1v.29h2.61l-.07.08zm4.246 3.23c-.58 0-1.037-.147-1.37-.44-.333-.3-.5-.703-.5-1.21 0-.513.167-.917.5-1.21.333-.293.783-.44 1.35-.44h1.7v-.55c0-.34-.103-.6-.31-.78-.2-.187-.486-.28-.86-.28-.326 0-.6.07-.82.21a.747.747 0 00-.38.55h-.9c.06-.473.284-.85.67-1.13.387-.28.87-.42 1.45-.42.633 0 1.133.163 1.5.49.367.327.55.77.55 1.33V273h-.88v-1.05h-.15l.15-.15c0 .4-.157.717-.47.95-.306.233-.716.35-1.23.35zm.22-.71c.427 0 .777-.107 1.05-.32a.996.996 0 00.41-.82v-.78h-1.68c-.3 0-.537.083-.71.25-.173.167-.26.393-.26.68 0 .307.103.55.31.73.214.173.507.26.88.26zm3.506.68v-.84h.18c.307 0 .52-.12.64-.36.127-.24.194-.67.2-1.29l.06-3.08h3.73v5.5h-.9v-4.68h-1.94l-.05 2.3c-.013.58-.08 1.05-.2 1.41-.113.36-.293.623-.54.79-.24.167-.556.25-.95.25h-.23zm6.726-.07v-5.5h.9v2.02h1.62c.62 0 1.107.157 1.46.47.36.307.54.73.54 1.27 0 .533-.18.957-.54 1.27-.36.313-.846.47-1.46.47h-2.52zm.9-.82h1.62c.347 0 .61-.077.79-.23.187-.16.28-.39.28-.69 0-.3-.093-.527-.28-.68-.18-.16-.443-.24-.79-.24h-1.62v1.84zm5.056.82v-5.5h.9v2.29h2.32v-2.29h.9v5.5h-.9v-2.39h-2.32V273h-.9zm8.057.08c-.44 0-.82-.083-1.14-.25a1.82 1.82 0 01-.75-.72c-.174-.32-.26-.697-.26-1.13v-1.46c0-.44.086-.817.26-1.13.18-.313.43-.553.75-.72.32-.167.7-.25 1.14-.25.44 0 .82.083 1.14.25.32.167.566.407.74.72.18.313.27.687.27 1.12v1.47c0 .433-.09.81-.27 1.13a1.76 1.76 0 01-.74.72c-.32.167-.7.25-1.14.25zm0-.8c.393 0 .7-.11.92-.33.22-.22.33-.543.33-.97v-1.46c0-.427-.11-.75-.33-.97-.22-.22-.527-.33-.92-.33-.387 0-.694.11-.92.33-.22.22-.33.543-.33.97v1.46c0 .427.11.75.33.97.226.22.533.33.92.33zm9.912 2.52v-7.3h.9v1.05h.18l-.18.21c0-.42.136-.75.41-.99.28-.247.646-.37 1.1-.37.553 0 .993.183 1.32.55.333.36.5.857.5 1.49v1.61c0 .42-.077.783-.23 1.09a1.636 1.636 0 01-.63.71c-.267.167-.587.25-.96.25-.447 0-.81-.123-1.09-.37s-.42-.577-.42-.99l.18.21h-.2l.02 1.25v1.6h-.9zm2.11-2.48c.38 0 .676-.113.89-.34.22-.227.33-.553.33-.98v-1.5c0-.427-.11-.753-.33-.98-.214-.227-.51-.34-.89-.34-.367 0-.66.117-.88.35-.22.233-.33.557-.33.97v1.5c0 .413.11.737.33.97.22.233.513.35.88.35zm5.486.78c-.58 0-1.037-.147-1.37-.44-.334-.3-.5-.703-.5-1.21 0-.513.166-.917.5-1.21.333-.293.783-.44 1.35-.44h1.7v-.55c0-.34-.104-.6-.31-.78-.2-.187-.487-.28-.86-.28-.327 0-.6.07-.82.21a.747.747 0 00-.38.55h-.9c.06-.473.283-.85.67-1.13.386-.28.87-.42 1.45-.42.633 0 1.133.163 1.5.49.367.327.55.77.55 1.33V273h-.88v-1.05h-.15l.15-.15c0 .4-.157.717-.47.95-.307.233-.717.35-1.23.35zm.22-.71c.427 0 .776-.107 1.05-.32a.995.995 0 00.41-.82v-.78h-1.68c-.3 0-.537.083-.71.25-.174.167-.26.393-.26.68 0 .307.103.55.31.73.213.173.507.26.88.26zm6.256.71c-.647 0-1.16-.19-1.54-.57-.373-.387-.56-.913-.56-1.58v-2.5c0-.88.22-1.557.66-2.03.44-.48 1.07-.72 1.89-.72h1.4v.9h-1.4c-.54 0-.95.16-1.23.48-.28.313-.42.77-.42 1.37v.65h.14l-.14.2c.007-.393.14-.7.4-.92.26-.22.613-.33 1.06-.33.58 0 1.03.187 1.35.56.327.373.49.887.49 1.54v.8c0 .447-.083.83-.25 1.15a1.75 1.75 0 01-.72.74c-.313.173-.69.26-1.13.26zm0-.8c.387 0 .683-.117.89-.35.207-.233.31-.567.31-1v-.8c0-.433-.103-.767-.31-1-.207-.233-.503-.35-.89-.35s-.683.117-.89.35c-.207.227-.31.56-.31 1v.8c0 .433.103.767.31 1 .207.233.503.35.89.35zm5.996.78c-.44 0-.82-.083-1.14-.25a1.82 1.82 0 01-.75-.72c-.173-.32-.26-.697-.26-1.13v-1.46c0-.44.087-.817.26-1.13.18-.313.43-.553.75-.72.32-.167.7-.25 1.14-.25.44 0 .82.083 1.14.25.32.167.567.407.74.72.18.313.27.687.27 1.12v1.47c0 .433-.09.81-.27 1.13-.173.313-.42.553-.74.72-.32.167-.7.25-1.14.25zm0-.8c.393 0 .7-.11.92-.33.22-.22.33-.543.33-.97v-1.46c0-.427-.11-.75-.33-.97-.22-.22-.527-.33-.92-.33-.387 0-.693.11-.92.33-.22.22-.33.543-.33.97v1.46c0 .427.11.75.33.97.227.22.533.33.92.33zm5.546.72v-4.71h-2v-.79h4.9v.79h-2V273h-.9zm5.966.1c-.58 0-1.036-.147-1.37-.44-.333-.3-.5-.703-.5-1.21 0-.513.167-.917.5-1.21.334-.293.784-.44 1.35-.44h1.7v-.55c0-.34-.103-.6-.31-.78-.2-.187-.486-.28-.86-.28-.326 0-.6.07-.82.21a.749.749 0 00-.38.55h-.9c.06-.473.284-.85.67-1.13.387-.28.87-.42 1.45-.42.634 0 1.134.163 1.5.49.367.327.55.77.55 1.33V273h-.88v-1.05h-.15l.15-.15c0 .4-.156.717-.47.95-.306.233-.716.35-1.23.35zm.22-.71c.427 0 .777-.107 1.05-.32a.994.994 0 00.41-.82v-.78h-1.68c-.3 0-.536.083-.71.25-.173.167-.26.393-.26.68 0 .307.104.55.31.73.214.173.507.26.88.26zm6.256.71c-.433 0-.813-.087-1.14-.26a1.881 1.881 0 01-.75-.73c-.173-.32-.26-.69-.26-1.11v-1.5c0-.427.087-.797.26-1.11.18-.313.43-.557.75-.73.327-.173.707-.26 1.14-.26.434 0 .81.087 1.13.26.327.173.577.417.75.73.18.313.27.683.27 1.11v.97h-3.42v.53c0 .433.11.767.33 1 .22.227.534.34.94.34.347 0 .627-.06.84-.18a.79.79 0 00.39-.56h.9a1.53 1.53 0 01-.68 1.1c-.386.267-.87.4-1.45.4zm1.27-3.23v-.37c0-.433-.11-.767-.33-1-.213-.233-.526-.35-.94-.35-.406 0-.72.117-.94.35-.22.233-.33.567-.33 1v.29h2.61l-.07.08zm4.276 3.13v-4.71h-2v-.79h4.9v.79h-2V273h-.9zm6.447.1c-.254 0-.457-.073-.61-.22-.147-.147-.22-.343-.22-.59 0-.26.073-.467.22-.62.153-.153.356-.23.61-.23.253 0 .453.077.6.23.153.153.23.36.23.62 0 .247-.077.443-.23.59-.147.147-.347.22-.6.22z" fill="#000"/><circle cx="17.372" cy="106.373" r="2.951" stroke="#CCEC60" stroke-width=".843"/><circle cx="17.372" cy="174.373" r="2.951" stroke="#CCEC60" stroke-width=".843"/><circle cx="17.372" cy="229.373" r="2.951" stroke="#CCEC60" stroke-width=".843"/><g filter="url(#filter0_d_311_1399)"><path stroke="#CCEC60" stroke-width=".843" d="M23.208 64.243h110.451"/></g><mask id="a" style="mask-type:alpha" maskUnits="userSpaceOnUse" x="29" y="6" width="125" height="59"><rect x="29.894" y="6.343" width="123.941" height="58.176" rx="9.275" fill="#D9D9D9"/></mask><g mask="url(#a)"><path d="M60.337 77.015c-3.528 0-6.609-.684-9.242-2.053-2.58-1.422-4.581-3.397-6.003-5.925-1.422-2.58-2.133-5.582-2.133-9.005V34.754c0-3.476.71-6.478 2.133-9.005 1.422-2.528 3.423-4.477 6.003-5.846 2.633-1.422 5.714-2.133 9.242-2.133 3.581 0 6.662.711 9.243 2.133 2.58 1.37 4.581 3.318 6.003 5.846 1.422 2.527 2.133 5.53 2.133 9.005v25.278c0 3.423-.71 6.425-2.133 9.005-1.422 2.528-3.45 4.503-6.082 5.924-2.58 1.37-5.635 2.054-9.164 2.054zm0-6.082c3.16 0 5.688-1 7.584-3.002 1.948-2.054 2.923-4.687 2.923-7.9V34.755c0-3.212-.975-5.82-2.923-7.82-1.896-2.054-4.424-3.081-7.584-3.081-3.16 0-5.713 1.027-7.662 3.08-1.896 2.002-2.844 4.608-2.844 7.82v25.279c0 3.212.948 5.845 2.844 7.9 1.949 2 4.503 3 7.663 3zm0-18.88c-1.421 0-2.58-.447-3.475-1.342-.843-.896-1.264-2.08-1.264-3.555 0-1.422.421-2.554 1.264-3.397.895-.895 2.054-1.343 3.475-1.343 1.422 0 2.555.448 3.397 1.343.895.843 1.343 1.975 1.343 3.397 0 1.474-.448 2.66-1.343 3.555-.842.895-1.975 1.342-3.397 1.342zm30.935 24.172v-7.267l17.615-18.721c3.002-3.213 5.188-6.057 6.557-8.532 1.369-2.527 2.054-4.95 2.054-7.267 0-3.213-.896-5.74-2.686-7.583-1.738-1.844-4.134-2.765-7.188-2.765-3.371 0-6.03.948-7.979 2.844-1.896 1.895-2.843 4.502-2.843 7.82h-7.11c.105-3.476.895-6.478 2.37-9.005 1.527-2.58 3.607-4.556 6.24-5.925 2.686-1.369 5.793-2.054 9.322-2.054 3.475 0 6.477.685 9.005 2.054 2.58 1.317 4.555 3.213 5.924 5.688 1.37 2.475 2.054 5.424 2.054 8.847 0 3.265-.869 6.504-2.607 9.716-1.737 3.212-4.581 6.872-8.531 10.98L99.25 69.748h26.305v6.477H91.272z" fill="#CCEC60"/></g><defs><linearGradient id="paint0_linear_311_1399" x1="0" y1="133.567" x2="230.923" y2="133.567" gradientUnits="userSpaceOnUse"><stop stop-color="#F1FFF7"/><stop offset="1" stop-color="#546A65"/></linearGradient><linearGradient id="paint1_linear_311_1399" x1="12.154" y1="16.028" x2="239.712" y2="140.178" gradientUnits="userSpaceOnUse"><stop stop-color="#475E59" stop-opacity=".7"/><stop offset="1" stop-color="#fff" stop-opacity=".7"/></linearGradient><filter id="filter0_d_311_1399" x="17.306" y="54.547" width="122.255" height="12.647" filterUnits="userSpaceOnUse" color-interpolation-filters="sRGB"><feFlood flood-opacity="0" result="BackgroundImageFix"/><feColorMatrix in="SourceAlpha" values="0 0 0 0 0 0 0 0 0 0 0 0 0 0 0 0 0 0 127 0" result="hardAlpha"/><feOffset dy="-3.373"/><feGaussianBlur stdDeviation="2.951"/><feComposite in2="hardAlpha" operator="out"/><feColorMatrix values="0 0 0 0 0 0 0 0 0 0 0 0 0 0 0 0 0 0 1 0"/><feBlend in2="BackgroundImageFix" result="effect1_dropShadow_311_1399"/><feBlend in="SourceGraphic" in2="effect1_dropShadow_311_1399" result="shape"/></filter></defs></svg>