<svg width="158" height="317" fill="none" xmlns="http://www.w3.org/2000/svg"><rect x=".355" y=".355" width="157.29" height="316.29" rx="16.508" fill="url(#paint0_linear_311_1425)" fill-opacity=".53" stroke="url(#paint1_linear_311_1425)" stroke-width=".71"/><path d="M40.545 81.496V75.34h2.1c.432 0 .809.082 1.13.245.325.163.575.39.75.682.18.293.27.636.27 1.029 0 .388-.09.73-.27 1.029-.18.292-.43.52-.75.683-.321.163-.698.244-1.13.244h-.835v2.243h-1.265zm1.265-3.381h.834c.27 0 .484-.073.641-.22a.78.78 0 00.245-.598.753.753 0 00-.245-.59c-.157-.152-.37-.228-.64-.228h-.835v1.636zm5.764 3.465c-.41 0-.768-.076-1.071-.227a1.76 1.76 0 01-.709-.65 1.914 1.914 0 01-.244-.978V78.63c0-.37.082-.694.245-.97.168-.28.404-.497.708-.649.303-.157.66-.236 1.07-.236.416 0 .773.079 1.071.236.304.152.537.368.7.65.169.275.253.598.253.97v1.095c0 .371-.084.697-.253.978a1.702 1.702 0 01-.7.65c-.298.151-.654.227-1.07.227zm0-1.096c.247 0 .435-.065.564-.194.13-.135.194-.323.194-.565V78.63c0-.247-.064-.435-.194-.565-.129-.129-.317-.194-.564-.194-.242 0-.43.065-.565.194-.13.13-.194.318-.194.565v1.096c0 .242.064.43.194.565.135.13.323.194.565.194zm5.08 1.096c-.41 0-.77-.076-1.079-.227a1.749 1.749 0 01-.717-.65 1.864 1.864 0 01-.252-.978V78.63c0-.376.084-.702.252-.978.17-.275.408-.489.717-.64.31-.158.669-.237 1.08-.237.612 0 1.101.155 1.466.464.366.31.56.73.582 1.265h-1.265a.635.635 0 00-.236-.464c-.134-.112-.317-.169-.548-.169-.253 0-.447.065-.581.194-.135.13-.203.318-.203.565v1.096c0 .242.068.43.203.565.135.13.328.194.581.194.23 0 .413-.053.548-.16.14-.112.22-.27.236-.472h1.265c-.022.534-.216.955-.582 1.264-.365.31-.854.464-1.467.464zm4.398-.084v-3.457h-1.517v-1.18h4.3v1.18h-1.518v3.457h-1.265zm8.77 0v-4.637h1.114v2.107c0 .141-.009.318-.026.532-.016.208-.039.418-.067.632a8.778 8.778 0 01-.076.565l1.467-3.836h1.535v4.637h-1.113v-2.108c0-.146.008-.312.025-.497.017-.192.037-.383.059-.574.022-.19.045-.354.067-.489l-1.45 3.668h-1.534zm10.112 1.517V76.86h1.222v.885h.295l-.295.295c0-.4.11-.708.33-.927.218-.225.519-.338.901-.338.467 0 .84.166 1.122.498.28.326.421.764.421 1.315v1.18c0 .366-.064.686-.194.962-.123.27-.3.48-.53.632-.231.146-.504.22-.819.22-.382 0-.683-.11-.902-.33-.22-.225-.329-.537-.329-.936l.295.296h-.295l.042 1.138v1.264h-1.264zm1.998-2.529c.236 0 .416-.065.54-.194.129-.135.194-.323.194-.565V78.63c0-.247-.065-.435-.194-.565-.124-.129-.304-.194-.54-.194-.23 0-.41.068-.54.203-.129.129-.194.315-.194.556v1.096c0 .242.065.43.194.565.13.13.31.194.54.194zm4.432 1.096c-.467 0-.838-.126-1.113-.38-.27-.252-.405-.595-.405-1.028 0-.466.16-.823.48-1.07.327-.254.793-.38 1.4-.38h.961v-.346a.53.53 0 00-.194-.43c-.123-.107-.292-.16-.505-.16a.837.837 0 00-.49.135.553.553 0 00-.236.37H81.04c.05-.466.253-.834.607-1.104.36-.275.82-.413 1.383-.413.59 0 1.056.146 1.4.439.348.286.522.674.522 1.163v3.12H83.73v-.759h-.203l.21-.295c0 .348-.126.627-.378.835-.248.202-.58.303-.995.303zm.472-.927c.247 0 .45-.065.607-.194a.647.647 0 00.244-.523v-.497h-.936a.645.645 0 00-.463.168.552.552 0 00-.177.43c0 .191.064.343.194.456.129.106.306.16.53.16zm4.946.902c-.517 0-.947-.127-1.29-.38a1.55 1.55 0 01-.624-1.028h1.222c.04.13.121.233.245.312.124.073.272.11.447.11h.48c.186 0 .332-.043.439-.127a.45.45 0 00.16-.363.417.417 0 00-.16-.345c-.107-.085-.253-.127-.439-.127h-1.087v-.961h1.037c.174 0 .309-.037.404-.11a.393.393 0 00.144-.32.39.39 0 00-.068-.236.376.376 0 00-.185-.143.752.752 0 00-.295-.051h-.388c-.174 0-.32.04-.439.118a.528.528 0 00-.236.304h-1.222a1.56 1.56 0 01.615-1.029c.337-.253.765-.38 1.282-.38h.388c.37 0 .691.054.96.16.27.102.479.248.625.44.146.185.219.407.219.665a.92.92 0 01-.354.75c-.23.192-.537.287-.92.287v-.084c.417 0 .751.107 1.004.32.253.208.38.487.38.835 0 .422-.169.759-.506 1.012-.338.247-.79.37-1.358.37h-.48zm3.31-.06V76.86h2.1c.567 0 1.017.115 1.348.345.338.225.506.532.506.92a.894.894 0 01-.38.75c-.252.185-.587.278-1.002.278v-.084c.455 0 .817.1 1.087.303a.95.95 0 01.413.801c0 .41-.168.734-.506.97-.331.236-.784.354-1.357.354h-2.21zm1.24-.893h.91c.208 0 .374-.048.497-.143a.472.472 0 00.194-.388.488.488 0 00-.194-.405c-.123-.1-.29-.151-.497-.151h-.91v1.087zm0-1.83h.868c.19 0 .343-.044.455-.134a.464.464 0 00.169-.371.473.473 0 00-.169-.38c-.112-.095-.264-.143-.455-.143h-.869v1.028zm3.824 2.724v-4.637h1.113v2.107c0 .141-.009.318-.026.532-.016.208-.039.418-.067.632a8.778 8.778 0 01-.076.565l1.467-3.836h1.535v4.637h-1.113v-2.108c0-.146.008-.312.025-.497a18.288 18.288 0 01.127-1.063l-1.45 3.668h-1.535zm6.396 0v-3.457h-1.518v-1.18h4.3v1.18h-1.517v3.457h-1.265zm3.715 0v-4.637h1.113v2.107c0 .141-.009.318-.025.532-.017.208-.04.418-.068.632a8.498 8.498 0 01-.076.565l1.467-3.836h1.535v4.637H109.1v-2.108c0-.146.008-.312.025-.497.017-.192.037-.383.059-.574.023-.19.045-.354.068-.489l-1.451 3.668h-1.534zm7.037.084c-.411 0-.77-.076-1.079-.227a1.762 1.762 0 01-.709-.65 1.914 1.914 0 01-.244-.978V78.63c0-.37.081-.694.244-.97.169-.28.405-.497.709-.649a2.345 2.345 0 011.079-.236c.41 0 .764.079 1.062.236.304.152.537.368.7.65.169.275.253.598.253.97v.842h-2.841v.253c0 .293.07.515.21.666.141.146.352.22.633.22a.951.951 0 00.472-.102.49.49 0 00.244-.278h1.24a1.64 1.64 0 01-.692.978c-.354.248-.781.371-1.281.371zm.809-2.757v-.21c0-.287-.067-.507-.202-.658-.129-.152-.332-.228-.607-.228-.276 0-.484.079-.624.236-.135.158-.202.38-.202.666v.127l1.72-.017-.085.084zm4.238-.531c-.253 0-.458-.07-.616-.21a.715.715 0 01-.227-.549c0-.23.076-.413.227-.548.158-.14.363-.21.616-.21s.455.07.607.21a.685.685 0 01.236.548.701.701 0 01-.236.548c-.152.14-.354.21-.607.21zm0 3.288c-.253 0-.458-.07-.616-.21a.715.715 0 01-.227-.549c0-.23.076-.413.227-.548.158-.14.363-.21.616-.21s.455.07.607.21a.686.686 0 01.236.548.702.702 0 01-.236.548c-.152.14-.354.211-.607.211z" fill="#fff"/><path d="M28.73 109.476l.75-1.87-2.13-5.43h1.36l1.1 3.22c.067.187.123.383.17.59.053.207.087.37.1.49a6.541 6.541 0 01.23-1.08l1.01-3.22h1.33l-2.6 7.3h-1.32zm7.286.1c-.467 0-.877-.087-1.23-.26a2.001 2.001 0 01-.81-.75c-.193-.327-.29-.71-.29-1.15v-1.38c0-.447.097-.83.29-1.15.193-.32.463-.567.81-.74.353-.18.763-.27 1.23-.27.693 0 1.247.18 1.66.54.413.353.63.837.65 1.45h-1.25c-.02-.287-.123-.507-.31-.66-.18-.16-.43-.24-.75-.24-.333 0-.597.093-.79.28-.193.18-.29.44-.29.78v1.39c0 .34.097.603.29.79.193.187.457.28.79.28.32 0 .57-.077.75-.23.187-.16.29-.383.31-.67h1.25c-.02.613-.237 1.1-.65 1.46-.413.353-.967.53-1.66.53zm3.756-.1v-5.5h1.13v2.71c0 .173-.01.38-.03.62a12.982 12.982 0 01-.14 1.28l1.94-4.61h1.54v5.5h-1.13v-2.71c0-.18.007-.38.02-.6l.06-.65c.027-.213.053-.393.08-.54l-1.93 4.5h-1.54zm5.446.07v-1.14h.25c.227 0 .397-.09.51-.27.12-.187.184-.48.19-.88l.06-3.28h3.98v5.5h-1.25v-4.34h-1.5l-.04 2.19c-.013.48-.093.887-.24 1.22a1.667 1.667 0 01-.63.75c-.273.167-.606.25-1 .25h-.33zm8.776.03c-.466 0-.873-.09-1.22-.27a2.001 2.001 0 01-.81-.75 2.26 2.26 0 01-.28-1.14v-1.38c0-.433.094-.81.28-1.13.194-.327.464-.58.81-.76.347-.18.754-.27 1.22-.27.46 0 .86.09 1.2.27.347.18.614.433.8.76.194.32.29.697.29 1.13v.99h-3.39v.39c0 .387.094.68.28.88.187.193.464.29.83.29.28 0 .507-.047.68-.14a.667.667 0 00.33-.43h1.23a1.763 1.763 0 01-.76 1.14c-.406.28-.903.42-1.49.42zm1.08-3.25v-.3c0-.38-.09-.67-.27-.87-.18-.207-.45-.31-.81-.31-.36 0-.633.103-.82.31-.186.207-.28.5-.28.88v.21l2.27-.02-.09.1zm2.687 3.15v-5.5h1.25v2.13h1.94v-2.13h1.25v5.5h-1.25v-2.21h-1.94v2.21h-1.25zm5.996 0v-5.5h1.13v2.71c0 .173-.01.38-.03.62a11.7 11.7 0 01-.06.69c-.027.227-.054.423-.08.59l1.94-4.61h1.54v5.5h-1.13v-2.71c0-.18.006-.38.02-.6l.06-.65c.026-.213.053-.393.08-.54l-1.93 4.5h-1.54zm8.226.1c-.467 0-.874-.09-1.22-.27a2.001 2.001 0 01-.81-.75 2.26 2.26 0 01-.28-1.14v-1.38c0-.433.093-.81.28-1.13.193-.327.463-.58.81-.76.346-.18.753-.27 1.22-.27.46 0 .86.09 1.2.27.346.18.613.433.8.76.193.32.29.697.29 1.13v.99h-3.39v.39c0 .387.093.68.28.88.186.193.463.29.83.29.28 0 .506-.047.68-.14a.667.667 0 00.33-.43h1.23a1.763 1.763 0 01-.76 1.14c-.407.28-.904.42-1.49.42zm1.08-3.25v-.3c0-.38-.09-.67-.27-.87-.18-.207-.45-.31-.81-.31-.36 0-.634.103-.82.31-.187.207-.28.5-.28.88v.21l2.27-.02-.09.1zm8.132 3.22v-1.14h.25c.227 0 .397-.09.51-.27.12-.187.183-.48.19-.88l.06-3.28h3.98v5.5h-1.25v-4.34h-1.5l-.04 2.19c-.013.48-.093.887-.24 1.22a1.666 1.666 0 01-.63.75c-.274.167-.607.25-1 .25h-.33zm6.546-.07v-5.5h1.13v2.71c0 .173-.01.38-.03.62a14.4 14.4 0 01-.14 1.28l1.94-4.61h1.54v5.5h-1.13v-2.71c0-.18.007-.38.02-.6l.06-.65c.027-.213.053-.393.08-.54l-1.93 4.5h-1.54zm5.466 1.4v-2.46h.37c.113-.113.23-.32.35-.62.127-.307.193-.687.2-1.14l.06-2.68h3.85v4.44h.65v2.46h-1.15v-1.4h-3.18v1.4h-1.15zm1.64-2.46h2v-3.35h-1.5l-.04 1.59c-.007.447-.063.823-.17 1.13-.1.3-.197.51-.29.63zm7.116 1.16c-.467 0-.873-.09-1.22-.27a1.997 1.997 0 01-.81-.75 2.26 2.26 0 01-.28-1.14v-1.38c0-.433.093-.81.28-1.13.193-.327.463-.58.81-.76.347-.18.753-.27 1.22-.27.46 0 .86.09 1.2.27.347.18.613.433.8.76.193.32.29.697.29 1.13v.99h-3.39v.39c0 .387.093.68.28.88.187.193.463.29.83.29.28 0 .507-.047.68-.14a.669.669 0 00.33-.43h1.23a1.763 1.763 0 01-.76 1.14c-.407.28-.903.42-1.49.42zm1.08-3.25v-.3c0-.38-.09-.67-.27-.87-.18-.207-.45-.31-.81-.31-.36 0-.633.103-.82.31-.187.207-.28.5-.28.88v.21l2.27-.02-.09.1zm2.676 4.95v-7.3h1.22v1.05h.28l-.28.29c0-.447.134-.797.4-1.05.267-.26.627-.39 1.08-.39.554 0 .997.19 1.33.57.334.38.5.89.5 1.53v1.49c0 .427-.076.8-.23 1.12a1.68 1.68 0 01-.63.73c-.273.173-.596.26-.97.26-.453 0-.813-.127-1.08-.38-.266-.26-.4-.613-.4-1.06l.28.29h-.29l.04 1.31v1.54h-1.25zm2.26-2.78c.32 0 .57-.093.75-.28.18-.187.27-.453.27-.8v-1.38c0-.347-.09-.613-.27-.8-.18-.187-.43-.28-.75-.28-.313 0-.56.097-.74.29-.18.187-.27.45-.27.79v1.38c0 .34.09.607.27.8.18.187.427.28.74.28zm5.986 1.08c-.466 0-.876-.087-1.23-.26a2.01 2.01 0 01-.81-.75c-.193-.327-.29-.71-.29-1.15v-1.38c0-.447.097-.83.29-1.15a1.94 1.94 0 01.81-.74c.354-.18.764-.27 1.23-.27.694 0 1.247.18 1.66.54.414.353.63.837.65 1.45h-1.25c-.02-.287-.123-.507-.31-.66-.18-.16-.43-.24-.75-.24-.333 0-.596.093-.79.28-.193.18-.29.44-.29.78v1.39c0 .34.097.603.29.79.194.187.457.28.79.28.32 0 .57-.077.75-.23.187-.16.29-.383.31-.67h1.25c-.02.613-.236 1.1-.65 1.46-.413.353-.966.53-1.66.53zm3.786-.1v-5.5h1.25v2.16h.82l1.34-2.16h1.4l-1.66 2.66 1.69 2.84h-1.43l-1.34-2.28h-.82v2.28h-1.25zm5.967 0v-5.5h1.13v2.71c0 .173-.01.38-.03.62a12.82 12.82 0 01-.14 1.28l1.94-4.61h1.54v5.5h-1.13v-2.71c0-.18.006-.38.02-.6l.06-.65c.026-.213.053-.393.08-.54l-1.93 4.5h-1.54zm5.576 0l1.92-2.84-1.79-2.66h1.41l.85 1.35c.053.08.1.17.14.27l.11.24c.026-.06.063-.14.11-.24.046-.1.093-.19.14-.27l.86-1.35h1.41l-1.79 2.66 1.91 2.84h-1.42l-.95-1.51a2.551 2.551 0 01-.15-.28c-.047-.1-.087-.18-.12-.24l-.11.24c-.047.1-.097.193-.15.28l-.97 1.51h-1.41zm-101.484 13v-5.5h1.25v2.16h.82l1.34-2.16h1.4l-1.66 2.66 1.69 2.84h-1.43l-1.34-2.28h-.82v2.28h-1.25zm7.576.1c-.567 0-1.013-.15-1.34-.45-.327-.3-.49-.703-.49-1.21 0-.54.18-.957.54-1.25.36-.293.87-.44 1.53-.44h1.37v-.47c0-.267-.087-.473-.26-.62-.173-.153-.41-.23-.71-.23-.273 0-.5.06-.68.18a.702.702 0 00-.32.49h-1.22c.06-.52.293-.933.7-1.24.407-.307.927-.46 1.56-.46.673 0 1.203.17 1.59.51.393.333.59.787.59 1.36v3.73h-1.21v-.96h-.2l.2-.27c0 .407-.15.73-.45.97-.3.24-.7.36-1.2.36zm.41-.94c.353 0 .64-.09.86-.27a.852.852 0 00.34-.7v-.67h-1.35c-.253 0-.457.073-.61.22a.766.766 0 00-.23.58c0 .26.087.467.26.62.18.147.423.22.73.22zm7.116.84v-1.85c-.087.02-.227.043-.42.07a5.84 5.84 0 01-.62.03c-.706 0-1.26-.173-1.66-.52-.4-.353-.6-.843-.6-1.47v-1.76h1.25v1.7c0 .287.1.513.3.68.2.16.474.24.82.24.227 0 .424-.01.59-.03a2.6 2.6 0 00.34-.07v-2.52h1.26v5.5h-1.26zm5.086.1c-.466 0-.873-.09-1.22-.27a2.001 2.001 0 01-.81-.75 2.26 2.26 0 01-.28-1.14v-1.38c0-.433.094-.81.28-1.13.194-.327.464-.58.81-.76.347-.18.754-.27 1.22-.27.46 0 .86.09 1.2.27.347.18.614.433.8.76.194.32.29.697.29 1.13v.99h-3.39v.39c0 .387.094.68.28.88.187.193.464.29.83.29.28 0 .507-.047.68-.14a.667.667 0 00.33-.43h1.23a1.763 1.763 0 01-.76 1.14c-.406.28-.903.42-1.49.42zm1.08-3.25v-.3c0-.38-.09-.67-.27-.87-.18-.207-.45-.31-.81-.31-.36 0-.633.103-.82.31-.186.207-.28.5-.28.88v.21l2.27-.02-.09.1zm4.926 3.25c-.466 0-.876-.087-1.23-.26a2.001 2.001 0 01-.81-.75c-.193-.327-.29-.71-.29-1.15v-1.38c0-.447.097-.83.29-1.15a1.94 1.94 0 01.81-.74c.354-.18.764-.27 1.23-.27.694 0 1.247.18 1.66.54.414.353.63.837.65 1.45h-1.25c-.02-.287-.123-.507-.31-.66-.18-.16-.43-.24-.75-.24-.333 0-.596.093-.79.28-.193.18-.29.44-.29.78v1.39c0 .34.097.603.29.79.194.187.457.28.79.28.32 0 .57-.077.75-.23.187-.16.29-.383.31-.67h1.25c-.02.613-.236 1.1-.65 1.46-.413.353-.966.53-1.66.53zm5.346-.1v-4.35h-1.88v-1.15h5.02v1.15h-1.88v4.35h-1.26zm4.397 0v-5.5h2.44c.633 0 1.13.133 1.49.4.366.26.55.62.55 1.08 0 .373-.144.673-.43.9-.28.227-.654.34-1.12.34v-.09c.506 0 .913.12 1.22.36.306.233.46.547.46.94 0 .487-.187.87-.56 1.15-.367.28-.874.42-1.52.42h-2.53zm1.23-.95h1.26c.28 0 .5-.063.66-.19a.618.618 0 00.24-.51.638.638 0 00-.24-.53c-.16-.127-.38-.19-.66-.19h-1.26v1.42zm0-2.26h1.22c.246 0 .443-.06.59-.18a.6.6 0 00.22-.49.6.6 0 00-.22-.49c-.14-.127-.337-.19-.59-.19h-1.22v1.35zm6.996-.71c-.28 0-.507-.077-.68-.23a.809.809 0 01-.25-.61.79.79 0 01.25-.61c.173-.153.4-.23.68-.23s.503.077.67.23c.173.153.26.357.26.61 0 .247-.087.45-.26.61-.167.153-.39.23-.67.23zm0 4.02c-.28 0-.507-.077-.68-.23a.79.79 0 01-.25-.61.79.79 0 01.25-.61c.173-.153.4-.23.68-.23s.503.077.67.23c.173.153.26.357.26.61a.775.775 0 01-.26.61c-.167.153-.39.23-.67.23zm9.932-.1v-7.3h4.12v7.3h-.9v-6.48h-2.32v6.48h-.9zm8.056.08c-.44 0-.82-.083-1.14-.25a1.82 1.82 0 01-.75-.72c-.173-.32-.26-.697-.26-1.13v-1.46c0-.44.087-.817.26-1.13.18-.313.43-.553.75-.72.32-.167.7-.25 1.14-.25.44 0 .82.083 1.14.25.32.167.567.407.74.72.18.313.27.687.27 1.12v1.47c0 .433-.09.81-.27 1.13-.173.313-.42.553-.74.72-.32.167-.7.25-1.14.25zm0-.8c.393 0 .7-.11.92-.33.22-.22.33-.543.33-.97v-1.46c0-.427-.11-.75-.33-.97-.22-.22-.527-.33-.92-.33-.387 0-.693.11-.92.33-.22.22-.33.543-.33.97v1.46c0 .427.11.75.33.97.227.22.533.33.92.33zm3.756.72v-5.5h1.22l.72 2.11c.073.213.14.427.2.64.06.207.103.367.13.48.027-.113.067-.273.12-.48.06-.213.123-.43.19-.65l.68-2.1h1.22v5.5h-.87v-.85c0-.3.003-.627.01-.98l.02-1.07c.013-.36.027-.7.04-1.02.013-.327.023-.613.03-.86l-.98 3.13h-.95l-.99-3.11c.013.3.023.673.03 1.12.013.447.023.913.03 1.4.013.487.02.95.02 1.39v.85h-.87zm8.236.08c-.44 0-.82-.083-1.14-.25a1.82 1.82 0 01-.75-.72c-.173-.32-.26-.697-.26-1.13v-1.46c0-.44.087-.817.26-1.13.18-.313.43-.553.75-.72.32-.167.7-.25 1.14-.25.44 0 .82.083 1.14.25.32.167.567.407.74.72.18.313.27.687.27 1.12v1.47c0 .433-.09.81-.27 1.13-.173.313-.42.553-.74.72-.32.167-.7.25-1.14.25zm0-.8c.393 0 .7-.11.92-.33.22-.22.33-.543.33-.97v-1.46c0-.427-.11-.75-.33-.97-.22-.22-.527-.33-.92-.33-.387 0-.693.11-.92.33-.22.22-.33.543-.33.97v1.46c0 .427.11.75.33.97.227.22.533.33.92.33zm4.296.72v-5.5h3.95v.82h-3.05v4.68h-.9zm6.476 1.8l.81-2.14-2.04-5.16h1l1.28 3.4c.047.113.09.25.13.41.04.153.074.283.1.39l.1-.39c.04-.16.08-.297.12-.41l1.2-3.4h.97l-2.71 7.3h-.96zm-82.705 11.3c-.44 0-.827-.083-1.16-.25a1.805 1.805 0 01-.76-.72c-.18-.32-.27-.697-.27-1.13v-1.5c0-.44.09-.817.27-1.13.18-.313.433-.553.76-.72.333-.167.72-.25 1.16-.25.633 0 1.143.17 1.53.51.387.34.59.803.61 1.39h-.9c-.02-.353-.14-.623-.36-.81-.213-.193-.507-.29-.88-.29-.393 0-.707.113-.94.34-.233.22-.35.537-.35.95v1.51c0 .413.117.733.35.96.233.227.547.34.94.34.373 0 .667-.097.88-.29.22-.193.34-.463.36-.81h.9c-.02.587-.223 1.05-.61 1.39-.387.34-.897.51-1.53.51zm5.526-.1v-4.71h-2v-.79h4.9v.79h-2v4.71h-.9zm5.966.1c-.58 0-1.037-.147-1.37-.44-.333-.3-.5-.703-.5-1.21 0-.513.167-.917.5-1.21.333-.293.783-.44 1.35-.44h1.7v-.55c0-.34-.103-.6-.31-.78-.2-.187-.486-.28-.86-.28-.326 0-.6.07-.82.21a.747.747 0 00-.38.55h-.9c.06-.473.284-.85.67-1.13.387-.28.87-.42 1.45-.42.633 0 1.133.163 1.5.49.367.327.55.77.55 1.33v3.78h-.88v-1.05h-.15l.15-.15c0 .4-.157.717-.47.95-.306.233-.716.35-1.23.35zm.22-.71c.427 0 .777-.107 1.05-.32a.996.996 0 00.41-.82v-.78h-1.68c-.3 0-.537.083-.71.25-.173.167-.26.393-.26.68 0 .307.103.55.31.73.214.173.507.26.88.26zm5.806.61v-4.71h-2v-.79h4.9v.79h-2v4.71h-.9zm4.426 0v-5.5h.9v2.02h1.62c.62 0 1.107.157 1.46.47.36.307.54.73.54 1.27 0 .533-.18.957-.54 1.27-.36.313-.846.47-1.46.47h-2.52zm.9-.82h1.62c.347 0 .61-.077.79-.23.187-.16.28-.39.28-.69 0-.3-.093-.527-.28-.68-.18-.16-.443-.24-.79-.24h-1.62v1.84zm11.893 2.62l.81-2.14-2.04-5.16h1l1.28 3.4c.046.113.09.25.13.41l.1.39c.026-.107.06-.237.1-.39.04-.16.08-.297.12-.41l1.2-3.4h.97l-2.71 7.3h-.96zm5.156-1.8v-5.5h2.38c.573 0 1.016.13 1.33.39.313.253.47.61.47 1.07 0 .38-.13.687-.39.92-.26.227-.604.34-1.03.34v-.08c.466 0 .84.117 1.12.35.286.233.43.547.43.94 0 .493-.167.88-.5 1.16-.334.273-.8.41-1.4.41h-2.41zm.88-.79h1.53c.32 0 .566-.07.74-.21.18-.14.27-.337.27-.59 0-.26-.09-.46-.27-.6-.174-.14-.42-.21-.74-.21h-1.53v1.61zm0-2.39h1.5c.28 0 .5-.067.66-.2.166-.133.25-.32.25-.56 0-.24-.08-.427-.24-.56-.16-.14-.384-.21-.67-.21h-1.5v1.53zm7.176 3.28a2.4 2.4 0 01-1.14-.26 1.881 1.881 0 01-.75-.73c-.174-.32-.26-.69-.26-1.11v-1.5c0-.427.086-.797.26-1.11.18-.313.43-.557.75-.73a2.4 2.4 0 011.14-.26c.433 0 .81.087 1.13.26.326.173.576.417.75.73.18.313.27.683.27 1.11v.97h-3.42v.53c0 .433.11.767.33 1 .22.227.533.34.94.34.346 0 .626-.06.84-.18a.795.795 0 00.39-.56h.9c-.06.46-.287.827-.68 1.1-.387.267-.87.4-1.45.4zm1.27-3.23v-.37c0-.433-.11-.767-.33-1-.214-.233-.527-.35-.94-.35-.407 0-.72.117-.94.35-.22.233-.33.567-.33 1v.29h2.61l-.07.08zm2.646 4.93v-7.3h.9v1.05h.18l-.18.21c0-.42.136-.75.41-.99.28-.247.647-.37 1.1-.37.553 0 .993.183 1.32.55.333.36.5.857.5 1.49v1.61c0 .42-.077.783-.23 1.09a1.634 1.634 0 01-.63.71c-.267.167-.587.25-.96.25-.447 0-.81-.123-1.09-.37s-.42-.577-.42-.99l.18.21h-.2l.02 1.25v1.6h-.9zm2.11-2.48c.38 0 .676-.113.89-.34.22-.227.33-.553.33-.98v-1.5c0-.427-.11-.753-.33-.98-.214-.227-.51-.34-.89-.34-.367 0-.66.117-.88.35-.22.233-.33.557-.33.97v1.5c0 .413.11.737.33.97.22.233.513.35.88.35zm5.966.78c-.433 0-.813-.087-1.14-.26a1.881 1.881 0 01-.75-.73c-.173-.32-.26-.69-.26-1.11v-1.5c0-.427.087-.797.26-1.11.18-.313.43-.557.75-.73.327-.173.707-.26 1.14-.26.433 0 .81.087 1.13.26a1.8 1.8 0 01.75.73c.18.313.27.683.27 1.11v.97h-3.42v.53c0 .433.11.767.33 1 .22.227.533.34.94.34.347 0 .627-.06.84-.18a.794.794 0 00.39-.56h.9c-.06.46-.287.827-.68 1.1-.387.267-.87.4-1.45.4zm1.27-3.23v-.37c0-.433-.11-.767-.33-1-.213-.233-.527-.35-.94-.35-.407 0-.72.117-.94.35-.22.233-.33.567-.33 1v.29h2.61l-.07.08zm2.666 3.13v-5.5h.9v2.29h2.32v-2.29h.9v5.5h-.9v-2.39h-2.32v2.39h-.9zm5.996 0v-5.5h.9v2.29h2.32v-2.29h.9v5.5h-.9v-2.39h-2.32v2.39h-.9zm5.706 0v-5.5h.84v2.02h.45c.594 0 1.06.157 1.4.47.347.307.52.73.52 1.27s-.173.967-.52 1.28c-.34.307-.806.46-1.4.46h-1.29zm.84-.72h.45c.354 0 .627-.09.82-.27.2-.18.3-.43.3-.75s-.1-.57-.3-.75c-.193-.18-.466-.27-.82-.27h-.45v2.04zm3.02.72v-5.5h.84v5.5h-.84zm2.246 0v-5.5h1.22l.72 2.11c.074.213.14.427.2.64.06.207.104.367.13.48.027-.113.067-.273.12-.48.06-.213.124-.43.19-.65l.68-2.1h1.22v5.5h-.87v-.85c0-.3.004-.627.01-.98l.02-1.07.04-1.02c.014-.327.024-.613.03-.86l-.98 3.13h-.95l-.99-3.11c.014.3.024.673.03 1.12.014.447.024.913.03 1.4.014.487.02.95.02 1.39v.85h-.87zm-84.455 13.07v-.84h.18c.307 0 .52-.12.64-.36.127-.24.193-.67.2-1.29l.06-3.08h3.73v5.5h-.9v-4.68h-1.94l-.05 2.3c-.013.58-.08 1.05-.2 1.41-.113.36-.293.623-.54.79-.24.167-.557.25-.95.25h-.23zm6.686-.07v-5.5h.86v3c0 .193-.007.397-.02.61a8.72 8.72 0 01-.04.61c-.013.187-.03.347-.05.48l2.22-4.7h1.15v5.5h-.86v-3c0-.193.003-.397.01-.61.013-.213.03-.417.05-.61l.05-.49-2.22 4.71h-1.15zm5.356 1.4v-2.17h.45c.114-.113.23-.337.35-.67.127-.333.194-.757.2-1.27l.06-2.79h3.59v4.73h.7v2.17h-.8v-1.4h-3.75v1.4h-.8zm1.4-2.17h2.35v-3.93h-1.84l-.04 2.01c-.006.527-.063.953-.17 1.28-.106.327-.206.54-.3.64zm7.296.87a2.4 2.4 0 01-1.14-.26 1.881 1.881 0 01-.75-.73c-.173-.32-.26-.69-.26-1.11v-1.5c0-.427.087-.797.26-1.11.18-.313.43-.557.75-.73a2.4 2.4 0 011.14-.26c.434 0 .81.087 1.13.26.327.173.577.417.75.73.18.313.27.683.27 1.11v.97h-3.42v.53c0 .433.11.767.33 1 .22.227.534.34.94.34.347 0 .627-.06.84-.18a.795.795 0 00.39-.56h.9a1.53 1.53 0 01-.68 1.1c-.386.267-.87.4-1.45.4zm1.27-3.23v-.37c0-.433-.11-.767-.33-1-.213-.233-.526-.35-.94-.35-.406 0-.72.117-.94.35-.22.233-.33.567-.33 1v.29h2.61l-.07.08zm2.646 4.93v-7.3h.9v1.05h.18l-.18.21c0-.42.137-.75.41-.99.28-.247.647-.37 1.1-.37.554 0 .994.183 1.32.55.334.36.5.857.5 1.49v1.61c0 .42-.076.783-.23 1.09a1.636 1.636 0 01-.63.71c-.266.167-.586.25-.96.25-.446 0-.81-.123-1.09-.37s-.42-.577-.42-.99l.18.21h-.2l.02 1.25v1.6h-.9zm2.11-2.48c.38 0 .677-.113.89-.34.22-.227.33-.553.33-.98v-1.5c0-.427-.11-.753-.33-.98-.213-.227-.51-.34-.89-.34-.366 0-.66.117-.88.35-.22.233-.33.557-.33.97v1.5c0 .413.11.737.33.97.22.233.514.35.88.35zm5.966.76c-.44 0-.82-.083-1.14-.25a1.82 1.82 0 01-.75-.72c-.173-.32-.26-.697-.26-1.13v-1.46c0-.44.087-.817.26-1.13.18-.313.43-.553.75-.72.32-.167.7-.25 1.14-.25.44 0 .82.083 1.14.25.32.167.567.407.74.72.18.313.27.687.27 1.12v1.47c0 .433-.09.81-.27 1.13-.173.313-.42.553-.74.72-.32.167-.7.25-1.14.25zm0-.8c.394 0 .7-.11.92-.33.22-.22.33-.543.33-.97v-1.46c0-.427-.11-.75-.33-.97-.22-.22-.526-.33-.92-.33-.386 0-.693.11-.92.33-.22.22-.33.543-.33.97v1.46c0 .427.11.75.33.97.227.22.534.33.92.33zm3.757.72v-5.5h1.22l.72 2.11c.073.213.14.427.2.64.06.207.103.367.13.48.026-.113.066-.273.12-.48.06-.213.123-.43.19-.65l.68-2.1h1.22v5.5h-.87v-.85c0-.3.003-.627.01-.98l.02-1.07c.013-.36.026-.7.04-1.02.013-.327.023-.613.03-.86l-.98 3.13h-.95l-.99-3.11c.013.3.023.673.03 1.12.013.447.023.913.03 1.4.013.487.02.95.02 1.39v.85h-.87zm11.532 1.4v-2.17h.45c.113-.113.23-.337.35-.67.126-.333.193-.757.2-1.27l.06-2.79h3.59v4.73h.7v2.17h-.8v-1.4h-3.75v1.4h-.8zm1.4-2.17h2.35v-3.93h-1.84l-.04 2.01c-.007.527-.064.953-.17 1.28-.107.327-.207.54-.3.64zm4.546.84v-.84h.18c.306 0 .52-.12.64-.36.127-.24.193-.67.2-1.29l.06-3.08h3.73v5.5h-.9v-4.68h-1.94l-.05 2.3c-.014.58-.08 1.05-.2 1.41-.114.36-.294.623-.54.79-.24.167-.557.25-.95.25h-.23zm6.346-.07l1.41-2.12c-.42-.1-.747-.293-.98-.58-.227-.287-.34-.643-.34-1.07 0-.54.177-.963.53-1.27.36-.307.85-.46 1.47-.46h2.37v5.5h-.9v-2.05h-1.21l-1.3 2.05h-1.05zm2.09-2.85h1.47v-1.85h-1.47c-.333 0-.597.083-.79.25-.193.16-.29.387-.29.68 0 .287.097.513.29.68.193.16.457.24.79.24zm12.322 2.95c-.44 0-.827-.083-1.16-.25a1.803 1.803 0 01-.76-.72c-.18-.32-.27-.697-.27-1.13v-1.5c0-.44.09-.817.27-1.13.18-.313.433-.553.76-.72.333-.167.72-.25 1.16-.25.633 0 1.143.17 1.53.51.387.34.59.803.61 1.39h-.9c-.02-.353-.14-.623-.36-.81-.213-.193-.507-.29-.88-.29-.393 0-.707.113-.94.34-.233.22-.35.537-.35.95v1.51c0 .413.117.733.35.96.233.227.547.34.94.34.373 0 .667-.097.88-.29.22-.193.34-.463.36-.81h.9c-.02.587-.223 1.05-.61 1.39-.387.34-.897.51-1.53.51zm3.916-.1v-5.5h2.38c.574 0 1.017.13 1.33.39.314.253.47.61.47 1.07 0 .38-.13.687-.39.92-.26.227-.603.34-1.03.34v-.08c.467 0 .84.117 1.12.35.287.233.43.547.43.94 0 .493-.166.88-.5 1.16-.333.273-.8.41-1.4.41h-2.41zm.88-.79h1.53c.32 0 .567-.07.74-.21.18-.14.27-.337.27-.59 0-.26-.09-.46-.27-.6-.173-.14-.42-.21-.74-.21h-1.53v1.61zm0-2.39h1.5c.28 0 .5-.067.66-.2.167-.133.25-.32.25-.56 0-.24-.08-.427-.24-.56-.16-.14-.383-.21-.67-.21h-1.5v1.53zm7.176 3.26c-.44 0-.82-.083-1.14-.25a1.82 1.82 0 01-.75-.72c-.173-.32-.26-.697-.26-1.13v-1.46c0-.44.087-.817.26-1.13.18-.313.43-.553.75-.72.32-.167.7-.25 1.14-.25.44 0 .82.083 1.14.25.32.167.567.407.74.72.18.313.27.687.27 1.12v1.47c0 .433-.09.81-.27 1.13-.173.313-.42.553-.74.72-.32.167-.7.25-1.14.25zm0-.8c.394 0 .7-.11.92-.33.22-.22.33-.543.33-.97v-1.46c0-.427-.11-.75-.33-.97-.22-.22-.526-.33-.92-.33-.386 0-.693.11-.92.33-.22.22-.33.543-.33.97v1.46c0 .427.11.75.33.97.227.22.534.33.92.33zm5.996.82c-.433 0-.813-.087-1.14-.26a1.881 1.881 0 01-.75-.73c-.173-.32-.26-.69-.26-1.11v-1.5c0-.427.087-.797.26-1.11.18-.313.43-.557.75-.73.327-.173.707-.26 1.14-.26.434 0 .81.087 1.13.26.327.173.577.417.75.73.18.313.27.683.27 1.11v.97h-3.42v.53c0 .433.11.767.33 1 .22.227.534.34.94.34.347 0 .627-.06.84-.18a.79.79 0 00.39-.56h.9a1.53 1.53 0 01-.68 1.1c-.386.267-.87.4-1.45.4zm1.27-3.23v-.37c0-.433-.11-.767-.33-1-.213-.233-.526-.35-.94-.35-.406 0-.72.117-.94.35-.22.233-.33.567-.33 1v.29h2.61l-.07.08zm2.667 3.13v-5.5h.86v3c0 .193-.007.397-.02.61a8.72 8.72 0 01-.04.61 6.67 6.67 0 01-.05.48l2.22-4.7h1.15v5.5h-.86v-3c0-.193.003-.397.01-.61.013-.213.03-.417.05-.61.02-.2.036-.363.05-.49l-2.22 4.71h-1.15zm2.1-6.4c-.48 0-.867-.133-1.16-.4-.294-.267-.44-.617-.44-1.05h.71c0 .26.08.47.24.63.16.16.373.24.64.24.273 0 .49-.08.65-.24.166-.16.25-.37.25-.63h.71c0 .433-.147.783-.44 1.05-.294.267-.68.4-1.16.4zm-98.008 19.4v-5.5h.9v2.27h.94l1.6-2.27h1.03l-1.85 2.62 1.88 2.88h-1.05l-1.6-2.45h-.95v2.45h-.9zm8.026.08c-.44 0-.82-.083-1.14-.25a1.82 1.82 0 01-.75-.72c-.173-.32-.26-.697-.26-1.13v-1.46c0-.44.087-.817.26-1.13.18-.313.43-.553.75-.72.32-.167.7-.25 1.14-.25.44 0 .82.083 1.14.25.32.167.567.407.74.72.18.313.27.687.27 1.12v1.47c0 .433-.09.81-.27 1.13-.173.313-.42.553-.74.72-.32.167-.7.25-1.14.25zm0-.8c.393 0 .7-.11.92-.33.22-.22.33-.543.33-.97v-1.46c0-.427-.11-.75-.33-.97-.22-.22-.527-.33-.92-.33-.387 0-.693.11-.92.33-.22.22-.33.543-.33.97v1.46c0 .427.11.75.33.97.227.22.533.33.92.33zm3.756.72v-5.5h1.22l.72 2.11c.074.213.14.427.2.64.06.207.103.367.13.48.027-.113.067-.273.12-.48.06-.213.123-.43.19-.65l.68-2.1h1.22v5.5h-.87v-.85c0-.3.003-.627.01-.98l.02-1.07.04-1.02c.014-.327.023-.613.03-.86l-.98 3.13h-.95l-.99-3.11c.014.3.023.673.03 1.12.014.447.023.913.03 1.4.014.487.02.95.02 1.39v.85h-.87zm7.756.1c-.58 0-1.036-.147-1.37-.44-.333-.3-.5-.703-.5-1.21 0-.513.167-.917.5-1.21.334-.293.784-.44 1.35-.44h1.7v-.55c0-.34-.103-.6-.31-.78-.2-.187-.486-.28-.86-.28-.326 0-.6.07-.82.21a.747.747 0 00-.38.55h-.9c.06-.473.284-.85.67-1.13.387-.28.87-.42 1.45-.42.634 0 1.134.163 1.5.49.367.327.55.77.55 1.33v3.78h-.88v-1.05h-.15l.15-.15c0 .4-.156.717-.47.95-.306.233-.716.35-1.23.35zm.22-.71c.427 0 .777-.107 1.05-.32a.996.996 0 00.41-.82v-.78h-1.68c-.3 0-.536.083-.71.25-.173.167-.26.393-.26.68 0 .307.104.55.31.73.214.173.507.26.88.26zm4.196.61v-5.5h.9v2.29h2.32v-2.29h.9v5.5h-.9v-2.39h-2.32v2.39h-.9zm5.357 1.4v-2.17h.45c.113-.113.23-.337.35-.67.126-.333.193-.757.2-1.27l.06-2.79h3.59v4.73h.7v2.17h-.8v-1.4h-3.75v1.4h-.8zm1.4-2.17h2.35v-3.93h-1.84l-.04 2.01c-.007.527-.064.953-.17 1.28-.107.327-.207.54-.3.64zm4.946.77v-5.5h.84v2.02h.45c.593 0 1.06.157 1.4.47.346.307.52.73.52 1.27s-.174.967-.52 1.28c-.34.307-.807.46-1.4.46h-1.29zm.84-.72h.45c.353 0 .626-.09.82-.27.2-.18.3-.43.3-.75s-.1-.57-.3-.75c-.194-.18-.467-.27-.82-.27h-.45v2.04zm3.02.72v-5.5h.84v5.5h-.84zm4.486.1c-.254 0-.457-.073-.61-.22-.147-.147-.22-.343-.22-.59 0-.26.073-.467.22-.62.153-.153.356-.23.61-.23.253 0 .453.077.6.23.153.153.23.36.23.62 0 .247-.077.443-.23.59-.147.147-.347.22-.6.22zM27.77 179v-7.3h1.25v2.93h1.96v-2.93h1.25v7.3h-1.25v-3.21h-1.96V179h-1.25zm8.226.09c-.467 0-.873-.087-1.22-.26-.34-.18-.607-.43-.8-.75-.187-.327-.28-.71-.28-1.15v-1.36c0-.44.093-.82.28-1.14.193-.327.46-.577.8-.75.347-.18.753-.27 1.22-.27.473 0 .88.09 1.22.27.34.173.603.423.79.75.193.32.29.697.29 1.13v1.37c0 .44-.097.823-.29 1.15-.187.32-.45.57-.79.75-.34.173-.747.26-1.22.26zm0-1.09c.333 0 .59-.09.77-.27.187-.187.28-.453.28-.8v-1.36c0-.353-.093-.62-.28-.8-.18-.18-.437-.27-.77-.27-.327 0-.583.09-.77.27-.187.18-.28.447-.28.8v1.36c0 .347.093.613.28.8.187.18.443.27.77.27zm3.766 1v-5.5h2.44c.634 0 1.13.133 1.49.4.367.26.55.62.55 1.08 0 .373-.143.673-.43.9-.28.227-.653.34-1.12.34v-.09c.507 0 .913.12 1.22.36.307.233.46.547.46.94 0 .487-.187.87-.56 1.15-.366.28-.873.42-1.52.42h-2.53zm1.23-.95h1.26c.28 0 .5-.063.66-.19a.618.618 0 00.24-.51.638.638 0 00-.24-.53c-.16-.127-.38-.19-.66-.19h-1.26v1.42zm0-2.26h1.22c.247 0 .444-.06.59-.18a.599.599 0 00.22-.49.599.599 0 00-.22-.49c-.14-.127-.337-.19-.59-.19h-1.22v1.35zm4.496 3.21v-5.5h1.08v1.86h.37c.594 0 1.064.167 1.41.5.347.333.52.78.52 1.34 0 .547-.176.983-.53 1.31-.346.327-.813.49-1.4.49h-1.45zm1.08-.97h.37c.287 0 .507-.073.66-.22.16-.147.24-.35.24-.61 0-.273-.08-.487-.24-.64-.153-.153-.373-.23-.66-.23h-.37v1.7zm2.84.97v-5.5h1.08v5.5h-1.08zm4.586.1c-.466 0-.873-.09-1.22-.27a2.001 2.001 0 01-.81-.75 2.26 2.26 0 01-.28-1.14v-1.38c0-.433.094-.81.28-1.13.194-.327.464-.58.81-.76.347-.18.754-.27 1.22-.27.46 0 .86.09 1.2.27.347.18.614.433.8.76.194.32.29.697.29 1.13v.99h-3.39v.39c0 .387.094.68.28.88.187.193.464.29.83.29.28 0 .507-.047.68-.14a.667.667 0 00.33-.43h1.23a1.763 1.763 0 01-.76 1.14c-.406.28-.903.42-1.49.42zm1.08-3.25v-.3c0-.38-.09-.67-.27-.87-.18-.207-.45-.31-.81-.31-.36 0-.633.103-.82.31-.186.207-.28.5-.28.88v.21l2.27-.02-.09.1zm8.683 3.15v-5.5h1.13v2.71c0 .173-.01.38-.03.62a11.7 11.7 0 01-.06.69c-.027.227-.054.423-.08.59l1.94-4.61h1.54v5.5h-1.13v-2.71c0-.18.006-.38.02-.6l.06-.65c.026-.213.053-.393.08-.54l-1.93 4.5h-1.54zm5.466 1.4v-2.46h.37c.113-.113.23-.32.35-.62.126-.307.193-.687.2-1.14l.06-2.68h3.85v4.44h.65v2.46h-1.15V179h-3.18v1.4h-1.15zm1.64-2.46h2v-3.35h-1.5l-.04 1.59c-.007.447-.064.823-.17 1.13-.1.3-.197.51-.29.63zm7.116 1.16c-.467 0-.874-.09-1.22-.27a2.001 2.001 0 01-.81-.75 2.26 2.26 0 01-.28-1.14v-1.38c0-.433.093-.81.28-1.13.193-.327.463-.58.81-.76.346-.18.753-.27 1.22-.27.46 0 .86.09 1.2.27.346.18.613.433.8.76.193.32.29.697.29 1.13v.99h-3.39v.39c0 .387.093.68.28.88.186.193.463.29.83.29.28 0 .506-.047.68-.14a.667.667 0 00.33-.43h1.23a1.763 1.763 0 01-.76 1.14c-.407.28-.904.42-1.49.42zm1.08-3.25v-.3c0-.38-.09-.67-.27-.87-.18-.207-.45-.31-.81-.31-.36 0-.634.103-.82.31-.187.207-.28.5-.28.88v.21l2.27-.02-.09.1zm2.686 3.15v-5.5h1.13v2.71c0 .173-.01.38-.03.62a14.4 14.4 0 01-.14 1.28l1.94-4.61h1.54v5.5h-1.13v-2.71c0-.18.006-.38.02-.6l.06-.65c.026-.213.053-.393.08-.54l-1.93 4.5h-1.54zM27.78 192v-5.5h1.13v2.71c0 .173-.01.38-.03.62-.013.233-.033.463-.06.69-.027.227-.053.423-.08.59l1.94-4.61h1.54v5.5h-1.13v-2.71c0-.18.007-.38.02-.6l.06-.65c.027-.213.053-.393.08-.54l-1.93 4.5h-1.54zm11.992 0v-5.5h4.44v5.5h-1.25v-4.34h-1.94V192h-1.25zm8.216.09c-.466 0-.873-.087-1.22-.26-.34-.18-.606-.43-.8-.75-.186-.327-.28-.71-.28-1.15v-1.36c0-.44.094-.82.28-1.14.194-.327.46-.577.8-.75.347-.18.754-.27 1.22-.27.474 0 .88.09 1.22.27.34.173.604.423.79.75.194.32.29.697.29 1.13v1.37c0 .44-.096.823-.29 1.15-.186.32-.45.57-.79.75-.34.173-.746.26-1.22.26zm0-1.09c.334 0 .59-.09.77-.27.187-.187.28-.453.28-.8v-1.36c0-.353-.093-.62-.28-.8-.18-.18-.436-.27-.77-.27-.326 0-.583.09-.77.27-.186.18-.28.447-.28.8v1.36c0 .347.094.613.28.8.187.18.444.27.77.27zm3.246 2.4v-2.46h.37c.114-.113.23-.32.35-.62.127-.307.194-.687.2-1.14l.06-2.68h3.85v4.44h.65v2.46h-1.15V192h-3.18v1.4h-1.15zm1.64-2.46h2v-3.35h-1.5l-.04 1.59c-.006.447-.063.823-.17 1.13-.1.3-.196.51-.29.63zM57.34 192l1.92-2.84-1.79-2.66h1.41l.85 1.35c.054.08.1.17.14.27.047.1.084.18.11.24l.11-.24a3.7 3.7 0 01.14-.27l.86-1.35h1.41l-1.79 2.66 1.91 2.84H61.2l-.95-1.51a2.773 2.773 0 01-.15-.28c-.046-.1-.086-.18-.12-.24-.026.06-.063.14-.11.24-.046.1-.096.193-.15.28l-.97 1.51h-1.41zm8.637.09c-.467 0-.874-.087-1.22-.26-.34-.18-.607-.43-.8-.75-.187-.327-.28-.71-.28-1.15v-1.36c0-.44.093-.82.28-1.14.193-.327.46-.577.8-.75.346-.18.753-.27 1.22-.27.473 0 .88.09 1.22.27.34.173.603.423.79.75.193.32.29.697.29 1.13v1.37c0 .44-.097.823-.29 1.15-.187.32-.45.57-.79.75-.34.173-.747.26-1.22.26zm0-1.09c.333 0 .59-.09.77-.27.186-.187.28-.453.28-.8v-1.36c0-.353-.094-.62-.28-.8-.18-.18-.437-.27-.77-.27-.327 0-.584.09-.77.27-.187.18-.28.447-.28.8v1.36c0 .347.093.613.28.8.186.18.443.27.77.27zm3.246 2.4v-2.46h.37c.113-.113.23-.32.35-.62.126-.307.193-.687.2-1.14l.06-2.68h3.85v4.44h.65v2.46h-1.15V192h-3.18v1.4h-1.15zm1.64-2.46h2v-3.35h-1.5l-.04 1.59c-.007.447-.064.823-.17 1.13-.1.3-.197.51-.29.63zm4.606 1.06v-5.5h1.08v1.86h.37c.593 0 1.063.167 1.41.5.346.333.52.78.52 1.34 0 .547-.177.983-.53 1.31-.347.327-.814.49-1.4.49h-1.45zm1.08-.97h.37c.286 0 .506-.073.66-.22.16-.147.24-.35.24-.61 0-.273-.08-.487-.24-.64-.154-.153-.374-.23-.66-.23h-.37v1.7zm2.84.97v-5.5h1.08v5.5h-1.08zm4.576-3.92c-.28 0-.507-.077-.68-.23a.809.809 0 01-.25-.61.79.79 0 01.25-.61c.173-.153.4-.23.68-.23s.503.077.67.23c.173.153.26.357.26.61 0 .247-.087.45-.26.61-.167.153-.39.23-.67.23zm0 4.02c-.28 0-.507-.077-.68-.23a.79.79 0 01-.25-.61.79.79 0 01.25-.61c.173-.153.4-.23.68-.23s.503.077.67.23c.173.153.26.357.26.61a.774.774 0 01-.26.61c-.167.153-.39.23-.67.23zm9.922-.1v-7.3h2.07c.667 0 1.187.167 1.56.5.38.333.57.797.57 1.39 0 .333-.07.623-.21.87-.14.247-.34.437-.6.57-.253.133-.56.197-.92.19v-.15c.387-.007.72.067 1 .22.287.153.507.373.66.66.16.287.24.627.24 1.02 0 .413-.087.773-.26 1.08-.173.307-.42.543-.74.71-.32.16-.703.24-1.15.24h-2.22zm.88-.81h1.24c.42 0 .75-.11.99-.33.247-.227.37-.533.37-.92 0-.4-.123-.723-.37-.97-.24-.253-.57-.38-.99-.38h-1.24v2.6zm0-3.38h1.18c.387 0 .69-.103.91-.31.227-.207.34-.487.34-.84s-.11-.633-.33-.84c-.22-.207-.523-.31-.91-.31h-1.19v2.3zm5.126 4.19v-5.5h.9v2.29h2.32v-2.29h.9v5.5h-.9v-2.39h-2.32V192h-.9zm8.056.1c-.433 0-.813-.087-1.14-.26a1.881 1.881 0 01-.75-.73c-.173-.32-.26-.69-.26-1.11v-1.5c0-.427.087-.797.26-1.11.18-.313.43-.557.75-.73.327-.173.707-.26 1.14-.26.434 0 .81.087 1.13.26.327.173.577.417.75.73.18.313.27.683.27 1.11v.97h-3.42v.53c0 .433.11.767.33 1 .22.227.534.34.94.34.347 0 .627-.06.84-.18a.79.79 0 00.39-.56h.9a1.53 1.53 0 01-.68 1.1c-.386.267-.87.4-1.45.4zm1.27-3.23v-.37c0-.433-.11-.767-.33-1-.213-.233-.526-.35-.94-.35-.406 0-.72.117-.94.35-.22.233-.33.567-.33 1v.29h2.61l-.07.08zm2.026 4.53v-2.17h.45c.114-.113.23-.337.35-.67.127-.333.194-.757.2-1.27l.06-2.79h3.59v4.73h.7v2.17h-.8V192h-3.75v1.4h-.8zm1.4-2.17h2.35v-3.93h-1.84l-.04 2.01c-.006.527-.063.953-.17 1.28-.106.327-.206.54-.3.64zm5.216 2.57v-7.3h.9v1.05h.18l-.18.21c0-.42.137-.75.41-.99.28-.247.647-.37 1.1-.37.554 0 .994.183 1.32.55.334.36.5.857.5 1.49v1.61c0 .42-.076.783-.23 1.09a1.627 1.627 0 01-.63.71c-.266.167-.586.25-.96.25-.446 0-.81-.123-1.09-.37s-.42-.577-.42-.99l.18.21h-.2l.02 1.25v1.6h-.9zm2.11-2.48c.38 0 .677-.113.89-.34.22-.227.33-.553.33-.98v-1.5c0-.427-.11-.753-.33-.98-.213-.227-.51-.34-.89-.34-.366 0-.66.117-.88.35-.22.233-.33.557-.33.97v1.5c0 .413.11.737.33.97.22.233.514.35.88.35zm3.907.68v-5.5h.86v3c0 .193-.007.397-.02.61a8.72 8.72 0 01-.04.61 6.67 6.67 0 01-.05.48l2.22-4.7h1.15v5.5h-.86v-3c0-.193.003-.397.01-.61.013-.213.03-.417.05-.61.02-.2.036-.363.05-.49l-2.22 4.71h-1.15zm5.816 0v-5.5h1.22l.72 2.11c.073.213.14.427.2.64.06.207.103.367.13.48.026-.113.066-.273.12-.48.06-.213.123-.43.19-.65l.68-2.1h1.22v5.5h-.87v-.85c0-.3.003-.627.01-.98l.02-1.07c.013-.36.026-.7.04-1.02.013-.327.023-.613.03-.86l-.98 3.13h-.95l-.99-3.11c.013.3.023.673.03 1.12.013.447.023.913.03 1.4.013.487.02.95.02 1.39v.85h-.87zM30.02 205.1c-.44 0-.827-.083-1.16-.25a1.805 1.805 0 01-.76-.72c-.18-.32-.27-.697-.27-1.13v-1.5c0-.44.09-.817.27-1.13.18-.313.433-.553.76-.72.333-.167.72-.25 1.16-.25.633 0 1.143.17 1.53.51.387.34.59.803.61 1.39h-.9c-.02-.353-.14-.623-.36-.81-.213-.193-.507-.29-.88-.29-.393 0-.707.113-.94.34-.233.22-.35.537-.35.95V203c0 .413.117.733.35.96.233.227.547.34.94.34.373 0 .667-.097.88-.29.22-.193.34-.463.36-.81h.9c-.02.587-.223 1.05-.61 1.39-.387.34-.897.51-1.53.51zm3.916-.1v-5.5h2.38c.573 0 1.017.13 1.33.39.313.253.47.61.47 1.07 0 .38-.13.687-.39.92-.26.227-.603.34-1.03.34v-.08c.467 0 .84.117 1.12.35.287.233.43.547.43.94 0 .493-.167.88-.5 1.16-.333.273-.8.41-1.4.41h-2.41zm.88-.79h1.53c.32 0 .567-.07.74-.21.18-.14.27-.337.27-.59 0-.26-.09-.46-.27-.6-.173-.14-.42-.21-.74-.21h-1.53v1.61zm0-2.39h1.5c.28 0 .5-.067.66-.2.167-.133.25-.32.25-.56 0-.24-.08-.427-.24-.56-.16-.14-.383-.21-.67-.21h-1.5v1.53zm7.176 3.28c-.433 0-.813-.087-1.14-.26a1.881 1.881 0 01-.75-.73c-.173-.32-.26-.69-.26-1.11v-1.5c0-.427.087-.797.26-1.11.18-.313.43-.557.75-.73.327-.173.707-.26 1.14-.26.434 0 .81.087 1.13.26a1.8 1.8 0 01.75.73c.18.313.27.683.27 1.11v.97h-3.42v.53c0 .433.11.767.33 1 .22.227.534.34.94.34.347 0 .627-.06.84-.18a.795.795 0 00.39-.56h.9a1.53 1.53 0 01-.68 1.1c-.386.267-.87.4-1.45.4zm1.27-3.23v-.37c0-.433-.11-.767-.33-1-.213-.233-.526-.35-.94-.35-.406 0-.72.117-.94.35-.22.233-.33.567-.33 1v.29h2.61l-.07.08zm1.906 3.13l1.2-2.82-1.12-2.68h.87l.96 2.4h.53v-2.4h.76v2.4h.51l.99-2.4h.86l-1.12 2.65 1.2 2.85h-.9l-1-2.5h-.54v2.5h-.76v-2.5h-.54l-1.01 2.5h-.89zm6.756 0v-5.5h.86v3c0 .193-.006.397-.02.61-.006.213-.02.417-.04.61-.013.187-.03.347-.05.48l2.22-4.7h1.15v5.5h-.86v-3c0-.193.004-.397.01-.61.014-.213.03-.417.05-.61l.05-.49-2.22 4.71h-1.15zm8.056.1a2.4 2.4 0 01-1.14-.26 1.881 1.881 0 01-.75-.73c-.173-.32-.26-.69-.26-1.11v-1.5c0-.427.087-.797.26-1.11.18-.313.43-.557.75-.73a2.4 2.4 0 011.14-.26c.434 0 .81.087 1.13.26.327.173.577.417.75.73.18.313.27.683.27 1.11v.97h-3.42v.53c0 .433.11.767.33 1 .22.227.534.34.94.34.347 0 .627-.06.84-.18a.795.795 0 00.39-.56h.9a1.53 1.53 0 01-.68 1.1c-.386.267-.87.4-1.45.4zm1.27-3.23v-.37c0-.433-.11-.767-.33-1-.213-.233-.526-.35-.94-.35-.406 0-.72.117-.94.35-.22.233-.33.567-.33 1v.29h2.61l-.07.08zm8.643 4.93v-7.3h.9v1.05h.18l-.18.21c0-.42.136-.75.41-.99.28-.247.646-.37 1.1-.37.553 0 .993.183 1.32.55.333.36.5.857.5 1.49v1.61c0 .42-.077.783-.23 1.09a1.636 1.636 0 01-.63.71c-.267.167-.587.25-.96.25-.447 0-.81-.123-1.09-.37s-.42-.577-.42-.99l.18.21h-.2l.02 1.25v1.6h-.9zm2.11-2.48c.38 0 .676-.113.89-.34.22-.227.33-.553.33-.98v-1.5c0-.427-.11-.753-.33-.98-.214-.227-.51-.34-.89-.34-.367 0-.66.117-.88.35-.22.233-.33.557-.33.97v1.5c0 .413.11.737.33.97.22.233.513.35.88.35zm5.966.78a2.4 2.4 0 01-1.14-.26 1.881 1.881 0 01-.75-.73c-.174-.32-.26-.69-.26-1.11v-1.5c0-.427.086-.797.26-1.11.18-.313.43-.557.75-.73a2.4 2.4 0 011.14-.26c.433 0 .81.087 1.13.26.326.173.576.417.75.73.18.313.27.683.27 1.11v.97h-3.42v.53c0 .433.11.767.33 1 .22.227.533.34.94.34.346 0 .626-.06.84-.18a.795.795 0 00.39-.56h.9c-.06.46-.287.827-.68 1.1-.387.267-.87.4-1.45.4zm1.27-3.23v-.37c0-.433-.11-.767-.33-1-.214-.233-.527-.35-.94-.35-.407 0-.72.117-.94.35-.22.233-.33.567-.33 1v.29h2.61l-.07.08zm2.386 3.13l-.02-5.5h.84v4.82h1.17v-4.82h.72v4.82h1.16v-4.82h.83v5.5h-4.7zm8.336.1c-.433 0-.813-.087-1.14-.26a1.881 1.881 0 01-.75-.73c-.173-.32-.26-.69-.26-1.11v-1.5c0-.427.087-.797.26-1.11.18-.313.43-.557.75-.73.327-.173.707-.26 1.14-.26.433 0 .81.087 1.13.26a1.8 1.8 0 01.75.73c.18.313.27.683.27 1.11v.97h-3.42v.53c0 .433.11.767.33 1 .22.227.533.34.94.34.347 0 .627-.06.84-.18a.794.794 0 00.39-.56h.9c-.06.46-.287.827-.68 1.1-.387.267-.87.4-1.45.4zm1.27-3.23v-.37c0-.433-.11-.767-.33-1-.213-.233-.527-.35-.94-.35-.407 0-.72.117-.94.35-.22.233-.33.567-.33 1v.29h2.61l-.07.08zm2.666 3.13v-5.5h.9v2.29h2.32v-2.29h.9v5.5h-.9v-2.39h-2.32V205h-.9zm5.996 0v-5.5h.86v3c0 .193-.007.397-.02.61a8.72 8.72 0 01-.04.61c-.013.187-.03.347-.05.48l2.22-4.7h1.15v5.5h-.86v-3c0-.193.003-.397.01-.61.013-.213.03-.417.05-.61l.05-.49-2.22 4.71h-1.15zm5.656 0l1.41-2.12c-.42-.1-.746-.293-.98-.58-.226-.287-.34-.643-.34-1.07 0-.54.177-.963.53-1.27.36-.307.85-.46 1.47-.46h2.37v5.5h-.9v-2.05h-1.21l-1.3 2.05h-1.05zm2.09-2.85h1.47v-1.85h-1.47c-.333 0-.596.083-.79.25-.193.16-.29.387-.29.68 0 .287.097.513.29.68.194.16.457.24.79.24zm9.602 4.25v-2.17h.45c.114-.113.23-.337.35-.67.127-.333.194-.757.2-1.27l.06-2.79h3.59v4.73h.7v2.17h-.8V205h-3.75v1.4h-.8zm1.4-2.17h2.35v-3.93h-1.84l-.04 2.01c-.006.527-.063.953-.17 1.28-.106.327-.206.54-.3.64zm4.547.84v-.84h.18c.306 0 .52-.12.64-.36.126-.24.193-.67.2-1.29l.06-3.08h3.73v5.5h-.9v-4.68h-1.94l-.05 2.3c-.014.58-.08 1.05-.2 1.41-.114.36-.294.623-.54.79-.24.167-.557.25-.95.25h-.23zm6.346-.07l1.41-2.12c-.42-.1-.747-.293-.98-.58-.227-.287-.34-.643-.34-1.07 0-.54.176-.963.53-1.27.36-.307.85-.46 1.47-.46h2.37v5.5h-.9v-2.05h-1.21l-1.3 2.05h-1.05zm2.09-2.85h1.47v-1.85h-1.47c-.334 0-.597.083-.79.25-.194.16-.29.387-.29.68 0 .287.096.513.29.68.193.16.456.24.79.24zM29.55 218v-4.71h-2v-.79h4.9v.79h-2V218h-.9zm4.386 0v-5.5h2.38c.573 0 1.017.13 1.33.39.313.253.47.61.47 1.07 0 .38-.13.687-.39.92-.26.227-.603.34-1.03.34v-.08c.467 0 .84.117 1.12.35.287.233.43.547.43.94 0 .493-.167.88-.5 1.16-.333.273-.8.41-1.4.41h-2.41zm.88-.79h1.53c.32 0 .567-.07.74-.21.18-.14.27-.337.27-.59 0-.26-.09-.46-.27-.6-.173-.14-.42-.21-.74-.21h-1.53v1.61zm0-2.39h1.5c.28 0 .5-.067.66-.2.167-.133.25-.32.25-.56 0-.24-.08-.427-.24-.56-.16-.14-.383-.21-.67-.21h-1.5v1.53zm7.176 3.26c-.44 0-.82-.083-1.14-.25a1.82 1.82 0 01-.75-.72c-.173-.32-.26-.697-.26-1.13v-1.46c0-.44.087-.817.26-1.13.18-.313.43-.553.75-.72.32-.167.7-.25 1.14-.25.44 0 .82.083 1.14.25.32.167.567.407.74.72.18.313.27.687.27 1.12v1.47c0 .433-.09.81-.27 1.13-.173.313-.42.553-.74.72-.32.167-.7.25-1.14.25zm0-.8c.394 0 .7-.11.92-.33.22-.22.33-.543.33-.97v-1.46c0-.427-.11-.75-.33-.97-.22-.22-.526-.33-.92-.33-.386 0-.693.11-.92.33-.22.22-.33.543-.33.97v1.46c0 .427.11.75.33.97.227.22.533.33.92.33zm5.996.82a2.4 2.4 0 01-1.14-.26 1.881 1.881 0 01-.75-.73c-.173-.32-.26-.69-.26-1.11v-1.5c0-.427.087-.797.26-1.11.18-.313.43-.557.75-.73a2.4 2.4 0 011.14-.26c.434 0 .81.087 1.13.26.327.173.577.417.75.73.18.313.27.683.27 1.11v.97h-3.42v.53c0 .433.11.767.33 1 .22.227.534.34.94.34.347 0 .627-.06.84-.18a.795.795 0 00.39-.56h.9a1.53 1.53 0 01-.68 1.1c-.386.267-.87.4-1.45.4zm1.27-3.23v-.37c0-.433-.11-.767-.33-1-.213-.233-.526-.35-.94-.35-.406 0-.72.117-.94.35-.22.233-.33.567-.33 1v.29h2.61l-.07.08zm3.026 3.13v-5.5h3.95v.82h-3.05V218h-.9zm7.697.08c-.44 0-.82-.083-1.14-.25a1.82 1.82 0 01-.75-.72c-.174-.32-.26-.697-.26-1.13v-1.46c0-.44.086-.817.26-1.13.18-.313.43-.553.75-.72.32-.167.7-.25 1.14-.25.44 0 .82.083 1.14.25.32.167.566.407.74.72.18.313.27.687.27 1.12v1.47c0 .433-.09.81-.27 1.13a1.76 1.76 0 01-.74.72c-.32.167-.7.25-1.14.25zm0-.8c.393 0 .7-.11.92-.33.22-.22.33-.543.33-.97v-1.46c0-.427-.11-.75-.33-.97-.22-.22-.527-.33-.92-.33-.387 0-.694.11-.92.33-.22.22-.33.543-.33.97v1.46c0 .427.11.75.33.97.226.22.533.33.92.33zm11.992.82c-.647 0-1.16-.19-1.54-.57-.374-.387-.56-.913-.56-1.58v-2.5c0-.88.22-1.557.66-2.03.44-.48 1.07-.72 1.89-.72h1.4v.9h-1.4c-.54 0-.95.16-1.23.48-.28.313-.42.77-.42 1.37v.65h.14l-.14.2c.006-.393.14-.7.4-.92.26-.22.613-.33 1.06-.33.58 0 1.03.187 1.35.56.326.373.49.887.49 1.54v.8c0 .447-.084.83-.25 1.15a1.75 1.75 0 01-.72.74c-.314.173-.69.26-1.13.26zm0-.8c.386 0 .683-.117.89-.35.206-.233.31-.567.31-1v-.8c0-.433-.104-.767-.31-1-.207-.233-.504-.35-.89-.35-.387 0-.684.117-.89.35-.207.227-.31.56-.31 1v.8c0 .433.103.767.31 1 .206.233.503.35.89.35zm3.936.7v-5.5h.86v3c0 .193-.007.397-.02.61a8.72 8.72 0 01-.04.61 6.67 6.67 0 01-.05.48l2.22-4.7h1.15v5.5h-.86v-3c0-.193.003-.397.01-.61.013-.213.03-.417.05-.61.02-.2.036-.363.05-.49l-2.22 4.71h-1.15zm7.796.07c-.58 0-1.057-.123-1.43-.37a1.471 1.471 0 01-.66-1h.95c.047.167.17.303.37.41.206.107.463.16.77.16h.47c.326 0 .58-.077.76-.23a.739.739 0 00.28-.6c0-.267-.09-.477-.27-.63-.173-.153-.43-.23-.77-.23h-1.21v-.78h1.18c.306 0 .54-.073.7-.22a.75.75 0 00.24-.58.755.755 0 00-.11-.42.637.637 0 00-.31-.26c-.14-.06-.31-.09-.51-.09h-.5c-.267 0-.497.06-.69.18-.194.12-.31.267-.35.44h-.95c.066-.413.283-.753.65-1.02.367-.267.813-.4 1.34-.4h.5c.393 0 .73.063 1.01.19.28.12.493.293.64.52.153.227.23.497.23.81 0 .327-.107.597-.32.81-.214.207-.514.323-.9.35v.04c.473.033.817.16 1.03.38.213.22.32.537.32.95 0 .487-.18.873-.54 1.16-.36.287-.844.43-1.45.43h-.47zM87.9 218v-5.5h.9v2.29h2.32v-2.29h.9v5.5h-.9v-2.39H88.8V218h-.9zm8.056.1c-.433 0-.813-.087-1.14-.26a1.881 1.881 0 01-.75-.73c-.173-.32-.26-.69-.26-1.11v-1.5c0-.427.087-.797.26-1.11.18-.313.43-.557.75-.73.327-.173.707-.26 1.14-.26.433 0 .81.087 1.13.26a1.8 1.8 0 01.75.73c.18.313.27.683.27 1.11v.97h-3.42v.53c0 .433.11.767.33 1 .22.227.533.34.94.34.347 0 .627-.06.84-.18a.794.794 0 00.39-.56h.9c-.06.46-.287.827-.68 1.1-.387.267-.87.4-1.45.4zm1.27-3.23v-.37c0-.433-.11-.767-.33-1-.213-.233-.527-.35-.94-.35-.407 0-.72.117-.94.35-.22.233-.33.567-.33 1v.29h2.61l-.07.08zm4.746 3.23c-.44 0-.827-.083-1.16-.25a1.803 1.803 0 01-.76-.72c-.18-.32-.27-.697-.27-1.13v-1.5c0-.44.09-.817.27-1.13.18-.313.433-.553.76-.72.333-.167.72-.25 1.16-.25.633 0 1.143.17 1.53.51.387.34.59.803.61 1.39h-.9c-.02-.353-.14-.623-.36-.81-.213-.193-.507-.29-.88-.29-.393 0-.707.113-.94.34-.233.22-.35.537-.35.95V216c0 .413.117.733.35.96.233.227.547.34.94.34.373 0 .667-.097.88-.29.22-.193.34-.463.36-.81h.9c-.02.587-.223 1.05-.61 1.39-.387.34-.897.51-1.53.51zm5.496 0c-.58 0-1.036-.147-1.37-.44-.333-.3-.5-.703-.5-1.21 0-.513.167-.917.5-1.21.334-.293.784-.44 1.35-.44h1.7v-.55c0-.34-.103-.6-.31-.78-.2-.187-.486-.28-.86-.28-.326 0-.6.07-.82.21a.749.749 0 00-.38.55h-.9c.06-.473.284-.85.67-1.13.387-.28.87-.42 1.45-.42.634 0 1.134.163 1.5.49.367.327.55.77.55 1.33V218h-.88v-1.05h-.15l.15-.15c0 .4-.156.717-.47.95-.306.233-.716.35-1.23.35zm.22-.71c.427 0 .777-.107 1.05-.32a.994.994 0 00.41-.82v-.78h-1.68c-.3 0-.536.083-.71.25-.173.167-.26.393-.26.68 0 .307.104.55.31.73.214.173.507.26.88.26zm6.256.71c-.253 0-.456-.073-.61-.22-.146-.147-.22-.343-.22-.59 0-.26.074-.467.22-.62.154-.153.357-.23.61-.23.254 0 .454.077.6.23.154.153.23.36.23.62 0 .247-.076.443-.23.59-.146.147-.346.22-.6.22zM27.17 236.05v-1.14h.25c.227 0 .4-.107.52-.32.12-.22.183-.55.19-.99l.08-4.9h4.01v7.3h-1.25v-6.14h-1.53l-.07 3.74c-.007.793-.173 1.4-.5 1.82-.327.42-.783.63-1.37.63h-.33zm6.606-.05v-5.5h1.13v2.71c0 .173-.01.38-.03.62-.013.233-.033.463-.06.69-.027.227-.053.423-.08.59l1.94-4.61h1.54v5.5h-1.13v-2.71c0-.18.007-.38.02-.6l.06-.65c.027-.213.053-.393.08-.54l-1.93 4.5h-1.54zm9.136 0v-1.85c-.087.02-.227.043-.42.07a5.84 5.84 0 01-.62.03c-.706 0-1.26-.173-1.66-.52-.4-.353-.6-.843-.6-1.47v-1.76h1.25v1.7c0 .287.1.513.3.68.2.16.474.24.82.24.227 0 .424-.01.59-.03a2.6 2.6 0 00.34-.07v-2.52h1.26v5.5h-1.26zm2.856 0v-5.5h1.25v2.13h1.94v-2.13h1.25v5.5h-1.25v-2.21h-1.94V236h-1.25zm8.216.09c-.466 0-.873-.087-1.22-.26-.34-.18-.606-.43-.8-.75-.186-.327-.28-.71-.28-1.15v-1.36c0-.44.094-.82.28-1.14.194-.327.46-.577.8-.75.347-.18.754-.27 1.22-.27.474 0 .88.09 1.22.27.34.173.604.423.79.75.194.32.29.697.29 1.13v1.37c0 .44-.096.823-.29 1.15-.186.32-.45.57-.79.75-.34.173-.746.26-1.22.26zm0-1.09c.334 0 .59-.09.77-.27.187-.187.28-.453.28-.8v-1.36c0-.353-.093-.62-.28-.8-.18-.18-.436-.27-.77-.27-.326 0-.583.09-.77.27-.186.18-.28.447-.28.8v1.36c0 .347.094.613.28.8.187.18.444.27.77.27zm6.017 1.1c-.467 0-.877-.087-1.23-.26a2.001 2.001 0 01-.81-.75c-.194-.327-.29-.71-.29-1.15v-1.38c0-.447.096-.83.29-1.15.193-.32.463-.567.81-.74.353-.18.763-.27 1.23-.27.693 0 1.246.18 1.66.54.413.353.63.837.65 1.45h-1.25c-.02-.287-.124-.507-.31-.66-.18-.16-.43-.24-.75-.24-.334 0-.597.093-.79.28-.194.18-.29.44-.29.78v1.39c0 .34.096.603.29.79.193.187.456.28.79.28.32 0 .57-.077.75-.23.186-.16.29-.383.31-.67h1.25c-.02.613-.237 1.1-.65 1.46-.414.353-.967.53-1.66.53zm5.346-.1v-4.35h-1.88v-1.15h5.02v1.15h-1.88V236h-1.26zm4.406 0v-5.5h1.25v2.13h1.94v-2.13h1.25v5.5h-1.25v-2.21h-1.94V236h-1.25zm5.716 0v-5.5h1.08v1.86h.37c.593 0 1.063.167 1.41.5.346.333.52.78.52 1.34 0 .547-.177.983-.53 1.31-.347.327-.814.49-1.4.49h-1.45zm1.08-.97h.37c.286 0 .506-.073.66-.22.16-.147.24-.35.24-.61 0-.273-.08-.487-.24-.64-.154-.153-.374-.23-.66-.23h-.37v1.7zm2.84.97v-5.5h1.08v5.5h-1.08zm2.356 0v-5.5h1.13v2.71c0 .173-.01.38-.03.62a14.4 14.4 0 01-.14 1.28l1.94-4.61h1.54v5.5h-1.13v-2.71c0-.18.006-.38.02-.6l.06-.65c.026-.213.053-.393.08-.54l-1.93 4.5h-1.54zm2.26-6.37c-.52 0-.944-.137-1.27-.41-.32-.273-.48-.63-.48-1.07h.97c0 .22.07.397.21.53.147.133.337.2.57.2.233 0 .42-.067.56-.2a.681.681 0 00.22-.53h.97c0 .44-.16.797-.48 1.07-.32.273-.744.41-1.27.41zm9.722 8.17v-7.3h1.22v1.05h.28l-.28.29c0-.447.133-.797.4-1.05.267-.26.627-.39 1.08-.39.553 0 .997.19 1.33.57.333.38.5.89.5 1.53v1.49c0 .427-.077.8-.23 1.12a1.688 1.688 0 01-.63.73c-.273.173-.597.26-.97.26-.453 0-.813-.127-1.08-.38-.267-.26-.4-.613-.4-1.06l.28.29h-.29l.04 1.31v1.54h-1.25zm2.26-2.78c.32 0 .57-.093.75-.28.18-.187.27-.453.27-.8v-1.38c0-.347-.09-.613-.27-.8-.18-.187-.43-.28-.75-.28-.313 0-.56.097-.74.29-.18.187-.27.45-.27.79v1.38c0 .34.09.607.27.8.18.187.427.28.74.28zm5.966 1.07c-.467 0-.873-.087-1.22-.26-.34-.18-.607-.43-.8-.75-.187-.327-.28-.71-.28-1.15v-1.36c0-.44.093-.82.28-1.14.193-.327.46-.577.8-.75.347-.18.753-.27 1.22-.27.473 0 .88.09 1.22.27.34.173.603.423.79.75.193.32.29.697.29 1.13v1.37c0 .44-.097.823-.29 1.15-.187.32-.45.57-.79.75-.34.173-.747.26-1.22.26zm0-1.09c.333 0 .59-.09.77-.27.187-.187.28-.453.28-.8v-1.36c0-.353-.093-.62-.28-.8-.18-.18-.437-.27-.77-.27-.327 0-.583.09-.77.27-.187.18-.28.447-.28.8v1.36c0 .347.093.613.28.8.187.18.443.27.77.27zm6.016 1.1c-.466 0-.876-.087-1.23-.26a2.01 2.01 0 01-.81-.75c-.193-.327-.29-.71-.29-1.15v-1.38c0-.447.097-.83.29-1.15a1.94 1.94 0 01.81-.74c.354-.18.764-.27 1.23-.27.694 0 1.247.18 1.66.54.414.353.63.837.65 1.45h-1.25c-.02-.287-.123-.507-.31-.66-.18-.16-.43-.24-.75-.24-.333 0-.596.093-.79.28-.193.18-.29.44-.29.78v1.39c0 .34.097.603.29.79.194.187.457.28.79.28.32 0 .57-.077.75-.23.187-.16.29-.383.31-.67h1.25c-.02.613-.236 1.1-.65 1.46-.413.353-.966.53-1.66.53zm5.346-.1v-4.35h-1.88v-1.15h5.02v1.15h-1.88V236h-1.26zm6.626-3.92c-.28 0-.506-.077-.68-.23a.811.811 0 01-.25-.61c0-.253.084-.457.25-.61.174-.153.4-.23.68-.23s.504.077.67.23c.174.153.26.357.26.61 0 .247-.086.45-.26.61-.166.153-.39.23-.67.23zm0 4.02c-.28 0-.506-.077-.68-.23a.792.792 0 01-.25-.61c0-.253.084-.457.25-.61.174-.153.4-.23.68-.23s.504.077.67.23c.174.153.26.357.26.61a.772.772 0 01-.26.61c-.166.153-.39.23-.67.23zM27.94 249v-7.3H32v.82h-3.16v2.2h1.21c.467 0 .867.09 1.2.27.333.173.59.42.77.74.187.32.28.697.28 1.13 0 .433-.093.81-.28 1.13-.18.32-.437.57-.77.75-.333.173-.733.26-1.2.26h-2.11zm.9-.82h1.21c.413 0 .737-.117.97-.35.233-.24.35-.563.35-.97 0-.413-.117-.737-.35-.97-.233-.233-.557-.35-.97-.35h-1.21v2.64zm5.936 2.62l.81-2.14-2.04-5.16h1l1.28 3.4c.047.113.09.25.13.41l.1.39.1-.39c.04-.16.08-.297.12-.41l1.2-3.4h.97l-2.71 7.3h-.96zm4.516-.4v-2.17h.45c.114-.113.23-.337.35-.67.127-.333.194-.757.2-1.27l.06-2.79h3.59v4.73h.7v2.17h-.8V249h-3.75v1.4h-.8zm1.4-2.17h2.35v-3.93h-1.84l-.04 2.01c-.006.527-.063.953-.17 1.28-.106.327-.206.54-.3.64zm7.296.87a2.4 2.4 0 01-1.14-.26 1.881 1.881 0 01-.75-.73c-.173-.32-.26-.69-.26-1.11v-1.5c0-.427.087-.797.26-1.11.18-.313.43-.557.75-.73a2.4 2.4 0 011.14-.26c.434 0 .81.087 1.13.26.327.173.577.417.75.73.18.313.27.683.27 1.11v.97h-3.42v.53c0 .433.11.767.33 1 .22.227.534.34.94.34.347 0 .627-.06.84-.18a.795.795 0 00.39-.56h.9a1.53 1.53 0 01-.68 1.1c-.386.267-.87.4-1.45.4zm1.27-3.23v-.37c0-.433-.11-.767-.33-1-.213-.233-.526-.35-.94-.35-.406 0-.72.117-.94.35-.22.233-.33.567-.33 1v.29h2.61l-.07.08zm2.486 3.13v-5.5h1.22l.72 2.11c.074.213.14.427.2.64.06.207.104.367.13.48.027-.113.067-.273.12-.48.06-.213.124-.43.19-.65l.68-2.1h1.22v5.5h-.87v-.85c0-.3.004-.627.01-.98l.02-1.07.04-1.02c.014-.327.024-.613.03-.86l-.98 3.13h-.95l-.99-3.11c.014.3.024.673.03 1.12.014.447.024.913.03 1.4.014.487.02.95.02 1.39v.85h-.87zm12.153 1.8v-7.3h.9v1.05h.18l-.18.21c0-.42.136-.75.41-.99.28-.247.646-.37 1.1-.37.553 0 .993.183 1.32.55.333.36.5.857.5 1.49v1.61c0 .42-.077.783-.23 1.09a1.636 1.636 0 01-.63.71c-.267.167-.587.25-.96.25-.447 0-.81-.123-1.09-.37s-.42-.577-.42-.99l.18.21h-.2l.02 1.25v1.6h-.9zm2.11-2.48c.38 0 .676-.113.89-.34.22-.227.33-.553.33-.98v-1.5c0-.427-.11-.753-.33-.98-.214-.227-.51-.34-.89-.34-.367 0-.66.117-.88.35-.22.233-.33.557-.33.97v1.5c0 .413.11.737.33.97.22.233.513.35.88.35zm5.486.78c-.58 0-1.037-.147-1.37-.44-.334-.3-.5-.703-.5-1.21 0-.513.166-.917.5-1.21.333-.293.783-.44 1.35-.44h1.7v-.55c0-.34-.104-.6-.31-.78-.2-.187-.487-.28-.86-.28-.327 0-.6.07-.82.21a.747.747 0 00-.38.55h-.9c.06-.473.283-.85.67-1.13.386-.28.87-.42 1.45-.42.633 0 1.133.163 1.5.49.366.327.55.77.55 1.33V249h-.88v-1.05h-.15l.15-.15c0 .4-.157.717-.47.95-.307.233-.717.35-1.23.35zm.22-.71c.426 0 .776-.107 1.05-.32a.996.996 0 00.41-.82v-.78h-1.68c-.3 0-.537.083-.71.25-.174.167-.26.393-.26.68 0 .307.103.55.31.73.213.173.506.26.88.26zm6.256.71c-.647 0-1.16-.19-1.54-.57-.374-.387-.56-.913-.56-1.58v-2.5c0-.88.22-1.557.66-2.03.44-.48 1.07-.72 1.89-.72h1.4v.9h-1.4c-.54 0-.95.16-1.23.48-.28.313-.42.77-.42 1.37v.65h.14l-.14.2c.006-.393.14-.7.4-.92.26-.22.613-.33 1.06-.33.58 0 1.03.187 1.35.56.326.373.49.887.49 1.54v.8c0 .447-.084.83-.25 1.15a1.75 1.75 0 01-.72.74c-.314.173-.69.26-1.13.26zm0-.8c.386 0 .683-.117.89-.35.206-.233.31-.567.31-1v-.8c0-.433-.104-.767-.31-1-.207-.233-.504-.35-.89-.35-.387 0-.684.117-.89.35-.207.227-.31.56-.31 1v.8c0 .433.103.767.31 1 .206.233.503.35.89.35zm5.996.78c-.44 0-.82-.083-1.14-.25a1.82 1.82 0 01-.75-.72c-.174-.32-.26-.697-.26-1.13v-1.46c0-.44.087-.817.26-1.13.18-.313.43-.553.75-.72.32-.167.7-.25 1.14-.25.44 0 .82.083 1.14.25.32.167.566.407.74.72.18.313.27.687.27 1.12v1.47c0 .433-.09.81-.27 1.13a1.76 1.76 0 01-.74.72c-.32.167-.7.25-1.14.25zm0-.8c.393 0 .7-.11.92-.33.22-.22.33-.543.33-.97v-1.46c0-.427-.11-.75-.33-.97-.22-.22-.527-.33-.92-.33-.387 0-.694.11-.92.33-.22.22-.33.543-.33.97v1.46c0 .427.11.75.33.97.227.22.533.33.92.33zm5.546.72v-4.71h-2v-.79h4.9v.79h-2V249h-.9zm5.966.1c-.58 0-1.037-.147-1.37-.44-.333-.3-.5-.703-.5-1.21 0-.513.167-.917.5-1.21.333-.293.783-.44 1.35-.44h1.7v-.55c0-.34-.103-.6-.31-.78-.2-.187-.487-.28-.86-.28-.327 0-.6.07-.82.21a.747.747 0 00-.38.55h-.9c.06-.473.283-.85.67-1.13.387-.28.87-.42 1.45-.42.633 0 1.133.163 1.5.49.367.327.55.77.55 1.33V249h-.88v-1.05h-.15l.15-.15c0 .4-.157.717-.47.95-.307.233-.717.35-1.23.35zm.22-.71c.427 0 .777-.107 1.05-.32a.995.995 0 00.41-.82v-.78h-1.68c-.3 0-.537.083-.71.25-.173.167-.26.393-.26.68 0 .307.103.55.31.73.213.173.507.26.88.26zm5.806.61v-4.71h-2v-.79h4.9v.79h-2V249h-.9zm4.426 0v-5.5h.9v2.02h1.62c.62 0 1.107.157 1.46.47.36.307.54.73.54 1.27 0 .533-.18.957-.54 1.27-.36.313-.846.47-1.46.47h-2.52zm.9-.82h1.62c.347 0 .61-.077.79-.23.187-.16.28-.39.28-.69 0-.3-.093-.527-.28-.68-.18-.16-.443-.24-.79-.24h-1.62v1.84zm11.052.82v-5.5h.9v2.29h2.32v-2.29h.9v5.5h-.9v-2.39h-2.32V249h-.9zm8.057.1c-.434 0-.814-.087-1.14-.26a1.881 1.881 0 01-.75-.73c-.174-.32-.26-.69-.26-1.11v-1.5c0-.427.086-.797.26-1.11.18-.313.43-.557.75-.73.326-.173.706-.26 1.14-.26.433 0 .81.087 1.13.26.326.173.576.417.75.73.18.313.27.683.27 1.11v.97h-3.42v.53c0 .433.11.767.33 1 .22.227.533.34.94.34.346 0 .626-.06.84-.18a.796.796 0 00.39-.56h.9c-.06.46-.287.827-.68 1.1-.387.267-.87.4-1.45.4zm1.27-3.23v-.37c0-.433-.11-.767-.33-1-.214-.233-.527-.35-.94-.35-.407 0-.72.117-.94.35-.22.233-.33.567-.33 1v.29h2.61l-.07.08zM29.55 262v-4.71h-2v-.79h4.9v.79h-2V262h-.9zm6.446.08c-.44 0-.82-.083-1.14-.25a1.82 1.82 0 01-.75-.72c-.173-.32-.26-.697-.26-1.13v-1.46c0-.44.087-.817.26-1.13.18-.313.43-.553.75-.72.32-.167.7-.25 1.14-.25.44 0 .82.083 1.14.25.32.167.567.407.74.72.18.313.27.687.27 1.12v1.47c0 .433-.09.81-.27 1.13-.173.313-.42.553-.74.72-.32.167-.7.25-1.14.25zm0-.8c.393 0 .7-.11.92-.33.22-.22.33-.543.33-.97v-1.46c0-.427-.11-.75-.33-.97-.22-.22-.527-.33-.92-.33-.387 0-.693.11-.92.33-.22.22-.33.543-.33.97v1.46c0 .427.11.75.33.97.227.22.533.33.92.33zm3.246.79v-.84h.18c.307 0 .52-.12.64-.36.127-.24.194-.67.2-1.29l.06-3.08h3.73v5.5h-.9v-4.68h-1.94l-.05 2.3c-.013.58-.08 1.05-.2 1.41-.113.36-.293.623-.54.79-.24.167-.556.25-.95.25h-.23zm6.726-.07v-5.5h.9v2.02h1.62c.62 0 1.107.157 1.46.47.36.307.54.73.54 1.27 0 .533-.18.957-.54 1.27-.36.313-.846.47-1.46.47h-2.52zm.9-.82h1.62c.347 0 .61-.077.79-.23.187-.16.28-.39.28-.69 0-.3-.093-.527-.28-.68-.18-.16-.443-.24-.79-.24h-1.62v1.84zm5.086.82v-5.5h.9v2.27h.94l1.6-2.27h1.03l-1.85 2.62 1.88 2.88h-1.05l-1.6-2.45h-.95V262h-.9zm8.026.08c-.44 0-.82-.083-1.14-.25a1.82 1.82 0 01-.75-.72c-.173-.32-.26-.697-.26-1.13v-1.46c0-.44.087-.817.26-1.13.18-.313.43-.553.75-.72.32-.167.7-.25 1.14-.25.44 0 .82.083 1.14.25.32.167.567.407.74.72.18.313.27.687.27 1.12v1.47c0 .433-.09.81-.27 1.13-.173.313-.42.553-.74.72-.32.167-.7.25-1.14.25zm0-.8c.394 0 .7-.11.92-.33.22-.22.33-.543.33-.97v-1.46c0-.427-.11-.75-.33-.97-.22-.22-.526-.33-.92-.33-.386 0-.693.11-.92.33-.22.22-.33.543-.33.97v1.46c0 .427.11.75.33.97.227.22.534.33.92.33zm9.933.72v-5.5h.9v2.29h2.32v-2.29h.9v5.5h-.9v-2.39h-2.32V262h-.9zm7.576.1c-.58 0-1.037-.147-1.37-.44-.334-.3-.5-.703-.5-1.21 0-.513.166-.917.5-1.21.333-.293.783-.44 1.35-.44h1.7v-.55c0-.34-.104-.6-.31-.78-.2-.187-.487-.28-.86-.28-.327 0-.6.07-.82.21a.747.747 0 00-.38.55h-.9c.06-.473.283-.85.67-1.13.386-.28.87-.42 1.45-.42.633 0 1.133.163 1.5.49.366.327.55.77.55 1.33V262h-.88v-1.05h-.15l.15-.15c0 .4-.157.717-.47.95-.307.233-.717.35-1.23.35zm.22-.71c.426 0 .776-.107 1.05-.32a.996.996 0 00.41-.82v-.78h-1.68c-.3 0-.537.083-.71.25-.174.167-.26.393-.26.68 0 .307.103.55.31.73.213.173.506.26.88.26zm3.556 2.01v-2.17h.45c.113-.113.23-.337.35-.67.127-.333.193-.757.2-1.27l.06-2.79h3.59v4.73h.7v2.17h-.8V262h-3.75v1.4h-.8zm1.4-2.17h2.35v-3.93h-1.84l-.04 2.01c-.007.527-.064.953-.17 1.28-.107.327-.207.54-.3.64zm13.292.87c-.647 0-1.16-.19-1.54-.57-.373-.387-.56-.913-.56-1.58v-2.5c0-.88.22-1.557.66-2.03.44-.48 1.07-.72 1.89-.72h1.4v.9h-1.4c-.54 0-.95.16-1.23.48-.28.313-.42.77-.42 1.37v.65h.14l-.14.2c.007-.393.14-.7.4-.92.26-.22.613-.33 1.06-.33.58 0 1.03.187 1.35.56.327.373.49.887.49 1.54v.8c0 .447-.083.83-.25 1.15a1.75 1.75 0 01-.72.74c-.313.173-.69.26-1.13.26zm0-.8c.387 0 .683-.117.89-.35.207-.233.31-.567.31-1v-.8c0-.433-.103-.767-.31-1-.207-.233-.503-.35-.89-.35s-.683.117-.89.35c-.207.227-.31.56-.31 1v.8c0 .433.103.767.31 1 .207.233.503.35.89.35zm3.936.7v-5.5h.86v3c0 .193-.007.397-.02.61a8.72 8.72 0 01-.04.61c-.013.187-.03.347-.05.48l2.22-4.7h1.15v5.5h-.86v-3c0-.193.003-.397.01-.61.013-.213.03-.417.05-.61l.05-.49-2.22 4.71h-1.15zm7.796.07c-.58 0-1.056-.123-1.43-.37a1.475 1.475 0 01-.66-1h.95c.047.167.17.303.37.41.207.107.464.16.77.16h.47c.327 0 .58-.077.76-.23a.738.738 0 00.28-.6c0-.267-.09-.477-.27-.63-.173-.153-.43-.23-.77-.23h-1.21v-.78h1.18c.307 0 .54-.073.7-.22a.75.75 0 00.24-.58.75.75 0 00-.11-.42.634.634 0 00-.31-.26c-.14-.06-.31-.09-.51-.09h-.5c-.266 0-.496.06-.69.18-.193.12-.31.267-.35.44h-.95c.067-.413.284-.753.65-1.02.367-.267.814-.4 1.34-.4h.5c.394 0 .73.063 1.01.19.28.12.494.293.64.52.154.227.23.497.23.81 0 .327-.106.597-.32.81-.213.207-.513.323-.9.35v.04c.474.033.817.16 1.03.38.214.22.32.537.32.95 0 .487-.18.873-.54 1.16-.36.287-.843.43-1.45.43h-.47zm4.196-.07v-5.5h.9v2.29h2.32v-2.29h.9v5.5h-.9v-2.39h-2.32V262h-.9zm8.056.1c-.433 0-.813-.087-1.14-.26a1.881 1.881 0 01-.75-.73c-.173-.32-.26-.69-.26-1.11v-1.5c0-.427.087-.797.26-1.11.18-.313.43-.557.75-.73.327-.173.707-.26 1.14-.26.434 0 .81.087 1.13.26.327.173.577.417.75.73.18.313.27.683.27 1.11v.97h-3.42v.53c0 .433.11.767.33 1 .22.227.534.34.94.34.347 0 .627-.06.84-.18a.79.79 0 00.39-.56h.9a1.53 1.53 0 01-.68 1.1c-.386.267-.87.4-1.45.4zm1.27-3.23v-.37c0-.433-.11-.767-.33-1-.213-.233-.526-.35-.94-.35-.406 0-.72.117-.94.35-.22.233-.33.567-.33 1v.29h2.61l-.07.08zm4.747 3.23c-.44 0-.827-.083-1.16-.25a1.803 1.803 0 01-.76-.72c-.18-.32-.27-.697-.27-1.13v-1.5c0-.44.09-.817.27-1.13.18-.313.433-.553.76-.72.333-.167.72-.25 1.16-.25.633 0 1.143.17 1.53.51.386.34.59.803.61 1.39h-.9c-.02-.353-.14-.623-.36-.81-.214-.193-.507-.29-.88-.29-.394 0-.707.113-.94.34-.234.22-.35.537-.35.95V260c0 .413.116.733.35.96.233.227.546.34.94.34.373 0 .666-.097.88-.29.22-.193.34-.463.36-.81h.9c-.02.587-.224 1.05-.61 1.39-.387.34-.897.51-1.53.51zm5.976-.02c-.44 0-.82-.083-1.14-.25a1.82 1.82 0 01-.75-.72c-.174-.32-.26-.697-.26-1.13v-1.46c0-.44.086-.817.26-1.13.18-.313.43-.553.75-.72.32-.167.7-.25 1.14-.25.44 0 .82.083 1.14.25.32.167.566.407.74.72.18.313.27.687.27 1.12v1.47c0 .433-.09.81-.27 1.13a1.76 1.76 0 01-.74.72c-.32.167-.7.25-1.14.25zm0-.8c.393 0 .7-.11.92-.33.22-.22.33-.543.33-.97v-1.46c0-.427-.11-.75-.33-.97-.22-.22-.527-.33-.92-.33-.387 0-.694.11-.92.33-.22.22-.33.543-.33.97v1.46c0 .427.11.75.33.97.226.22.533.33.92.33zm3.756.72v-5.5h1.22l.72 2.11c.073.213.14.427.2.64.06.207.103.367.13.48.026-.113.066-.273.12-.48.06-.213.123-.43.19-.65l.68-2.1h1.22v5.5h-.87v-.85c0-.3.003-.627.01-.98l.02-1.07c.013-.36.026-.7.04-1.02.013-.327.023-.613.03-.86l-.98 3.13h-.95l-.99-3.11c.013.3.023.673.03 1.12.013.447.023.913.03 1.4.013.487.02.95.02 1.39v.85h-.87zm6.886 1.6l.8-3.11h1.3l-1.3 3.11h-.8zM27.94 275v-5.5h.9v2.29h2.32v-2.29h.9v5.5h-.9v-2.39h-2.32V275h-.9zm8.056.08c-.44 0-.82-.083-1.14-.25a1.82 1.82 0 01-.75-.72c-.173-.32-.26-.697-.26-1.13v-1.46c0-.44.087-.817.26-1.13.18-.313.43-.553.75-.72.32-.167.7-.25 1.14-.25.44 0 .82.083 1.14.25.32.167.567.407.74.72.18.313.27.687.27 1.12v1.47c0 .433-.09.81-.27 1.13-.173.313-.42.553-.74.72-.32.167-.7.25-1.14.25zm0-.8c.393 0 .7-.11.92-.33.22-.22.33-.543.33-.97v-1.46c0-.427-.11-.75-.33-.97-.22-.22-.527-.33-.92-.33-.387 0-.693.11-.92.33-.22.22-.33.543-.33.97v1.46c0 .427.11.75.33.97.227.22.533.33.92.33zm9.932.72v-5.5h.86v3c0 .193-.006.397-.02.61-.006.213-.02.417-.04.61-.013.187-.03.347-.05.48l2.22-4.7h1.15v5.5h-.86v-3c0-.193.004-.397.01-.61.014-.213.03-.417.05-.61l.05-.49-2.22 4.71h-1.15zm11.992 0v-5.5h.9v2.29h2.32v-2.29h.9v5.5h-.9v-2.39h-2.32V275h-.9zm7.577.1c-.58 0-1.037-.147-1.37-.44-.334-.3-.5-.703-.5-1.21 0-.513.166-.917.5-1.21.333-.293.783-.44 1.35-.44h1.7v-.55c0-.34-.104-.6-.31-.78-.2-.187-.487-.28-.86-.28-.327 0-.6.07-.82.21a.747.747 0 00-.38.55h-.9c.06-.473.283-.85.67-1.13.386-.28.87-.42 1.45-.42.633 0 1.133.163 1.5.49.366.327.55.77.55 1.33V275h-.88v-1.05h-.15l.15-.15c0 .4-.157.717-.47.95-.307.233-.717.35-1.23.35zm.22-.71c.426 0 .776-.107 1.05-.32a.996.996 0 00.41-.82v-.78h-1.68c-.3 0-.537.083-.71.25-.174.167-.26.393-.26.68 0 .307.103.55.31.73.213.173.506.26.88.26zm3.556 2.01v-2.17h.45c.113-.113.23-.337.35-.67.126-.333.193-.757.2-1.27l.06-2.79h3.59v4.73h.7v2.17h-.8V275h-3.75v1.4h-.8zm1.4-2.17h2.35v-3.93h-1.84l-.04 2.01c-.007.527-.064.953-.17 1.28-.107.327-.207.54-.3.64zm12.842.77v-4.71h-2v-.79h4.9v.79h-2V275h-.9zm4.386 0v-5.5h2.38c.573 0 1.017.13 1.33.39.313.253.47.61.47 1.07 0 .38-.13.687-.39.92-.26.227-.603.34-1.03.34v-.08c.467 0 .84.117 1.12.35.287.233.43.547.43.94 0 .493-.167.88-.5 1.16-.333.273-.8.41-1.4.41H87.9zm.88-.79h1.53c.32 0 .567-.07.74-.21.18-.14.27-.337.27-.59 0-.26-.09-.46-.27-.6-.173-.14-.42-.21-.74-.21h-1.53v1.61zm0-2.39h1.5c.28 0 .5-.067.66-.2.167-.133.25-.32.25-.56 0-.24-.08-.427-.24-.56-.16-.14-.383-.21-.67-.21h-1.5v1.53zm7.176 3.26c-.44 0-.82-.083-1.14-.25a1.82 1.82 0 01-.75-.72c-.173-.32-.26-.697-.26-1.13v-1.46c0-.44.087-.817.26-1.13.18-.313.43-.553.75-.72.32-.167.7-.25 1.14-.25.44 0 .82.083 1.14.25.32.167.567.407.74.72.18.313.27.687.27 1.12v1.47c0 .433-.09.81-.27 1.13-.173.313-.42.553-.74.72-.32.167-.7.25-1.14.25zm0-.8c.393 0 .7-.11.92-.33.22-.22.33-.543.33-.97v-1.46c0-.427-.11-.75-.33-.97-.22-.22-.527-.33-.92-.33-.387 0-.693.11-.92.33-.22.22-.33.543-.33.97v1.46c0 .427.11.75.33.97.227.22.533.33.92.33zm3.936.72v-5.5h.86v3c0 .193-.007.397-.02.61a8.72 8.72 0 01-.04.61c-.013.187-.03.347-.05.48l2.22-4.7h1.15v5.5h-.86v-3c0-.193.003-.397.01-.61.013-.213.03-.417.05-.61l.05-.49-2.22 4.71h-1.15zm5.816 0v-5.5h1.22l.72 2.11c.074.213.14.427.2.64.06.207.104.367.13.48.027-.113.067-.273.12-.48.06-.213.124-.43.19-.65l.68-2.1h1.22v5.5h-.87v-.85c0-.3.004-.627.01-.98l.02-1.07.04-1.02c.014-.327.024-.613.03-.86l-.98 3.13h-.95l-.99-3.11c.014.3.024.673.03 1.12.014.447.024.913.03 1.4.014.487.02.95.02 1.39v.85h-.87zM27.76 288v-5.5h1.22l.72 2.11c.073.213.14.427.2.64.06.207.103.367.13.48.027-.113.067-.273.12-.48.06-.213.123-.43.19-.65l.68-2.1h1.22v5.5h-.87v-.85c0-.3.003-.627.01-.98l.02-1.07c.013-.36.027-.7.04-1.02.013-.327.023-.613.03-.86l-.98 3.13h-.95l-.99-3.11c.013.3.023.673.03 1.12.013.447.023.913.03 1.4.013.487.02.95.02 1.39v.85h-.87zm5.886 0v-5.5h.84v2.02h.45c.593 0 1.06.157 1.4.47.347.307.52.73.52 1.27s-.173.967-.52 1.28c-.34.307-.807.46-1.4.46h-1.29zm.84-.72h.45c.353 0 .627-.09.82-.27.2-.18.3-.43.3-.75s-.1-.57-.3-.75c-.193-.18-.467-.27-.82-.27h-.45v2.04zm3.02.72v-5.5h.84v5.5h-.84zm2.146 0l-.02-5.5h.84v4.82h1.17v-4.82h.72v4.82h1.16v-4.82h.83v5.5h-4.7zm5.586.07v-.84h.18c.307 0 .52-.12.64-.36.127-.24.194-.67.2-1.29l.06-3.08h3.73v5.5h-.9v-4.68h-1.94l-.05 2.3c-.013.58-.08 1.05-.2 1.41-.113.36-.293.623-.54.79-.24.167-.556.25-.95.25h-.23zm8.746.03a2.4 2.4 0 01-1.14-.26 1.881 1.881 0 01-.75-.73c-.173-.32-.26-.69-.26-1.11v-1.5c0-.427.087-.797.26-1.11.18-.313.43-.557.75-.73a2.4 2.4 0 011.14-.26c.434 0 .81.087 1.13.26.327.173.577.417.75.73.18.313.27.683.27 1.11v.97h-3.42v.53c0 .433.11.767.33 1 .22.227.534.34.94.34.347 0 .627-.06.84-.18a.795.795 0 00.39-.56h.9a1.53 1.53 0 01-.68 1.1c-.386.267-.87.4-1.45.4zm1.27-3.23v-.37c0-.433-.11-.767-.33-1-.213-.233-.526-.35-.94-.35-.406 0-.72.117-.94.35-.22.233-.33.567-.33 1v.29h2.61l-.07.08zM57.92 288v-5.5h.9v2.29h2.32v-2.29h.9v5.5h-.9v-2.39h-2.32V288h-.9zm5.997 0v-5.5h.86v3c0 .193-.007.397-.02.61a8.72 8.72 0 01-.04.61 6.67 6.67 0 01-.05.48l2.22-4.7h1.15v5.5h-.86v-3c0-.193.003-.397.01-.61.013-.213.03-.417.05-.61.02-.2.036-.363.05-.49l-2.22 4.71h-1.15zm8.056.1a2.4 2.4 0 01-1.14-.26 1.881 1.881 0 01-.75-.73c-.174-.32-.26-.69-.26-1.11v-1.5c0-.427.086-.797.26-1.11.18-.313.43-.557.75-.73a2.4 2.4 0 011.14-.26c.433 0 .81.087 1.13.26.326.173.576.417.75.73.18.313.27.683.27 1.11v.97h-3.42v.53c0 .433.11.767.33 1 .22.227.533.34.94.34.346 0 .626-.06.84-.18a.795.795 0 00.39-.56h.9c-.06.46-.287.827-.68 1.1-.387.267-.87.4-1.45.4zm1.27-3.23v-.37c0-.433-.11-.767-.33-1-.214-.233-.527-.35-.94-.35-.407 0-.72.117-.94.35-.22.233-.33.567-.33 1v.29h2.61l-.07.08zm2.486 3.13v-5.5h1.22l.72 2.11c.073.213.14.427.2.64.06.207.103.367.13.48.026-.113.066-.273.12-.48.06-.213.123-.43.19-.65l.68-2.1h1.22v5.5h-.87v-.85c0-.3.003-.627.01-.98l.02-1.07c.013-.36.026-.7.04-1.02.013-.327.023-.613.03-.86l-.98 3.13h-.95l-.99-3.11c.013.3.023.673.03 1.12.013.447.023.913.03 1.4.013.487.02.95.02 1.39v.85h-.87zm8.236.1c-.254 0-.457-.073-.61-.22-.147-.147-.22-.343-.22-.59 0-.26.073-.467.22-.62.153-.153.356-.23.61-.23.253 0 .453.077.6.23.153.153.23.36.23.62 0 .247-.077.443-.23.59-.147.147-.347.22-.6.22z" fill="#000"/><circle cx="20.57" cy="104.535" r="2.951" stroke="#CCEC60" stroke-width=".843"/><circle cx="20.372" cy="174.059" r="2.951" stroke="#CCEC60" stroke-width=".843"/><circle cx="20.372" cy="231.059" r="2.951" stroke="#CCEC60" stroke-width=".843"/><g filter="url(#filter0_d_311_1425)"><path stroke="#CCEC60" stroke-width=".843" d="M23.198 64.243h110.45"/></g><mask id="a" style="mask-type:alpha" maskUnits="userSpaceOnUse" x="29" y="6" width="125" height="59"><rect x="29.884" y="6.343" width="123.941" height="58.176" rx="9.275" fill="#D9D9D9"/></mask><g mask="url(#a)"><path d="M60.327 77.015c-3.528 0-6.609-.684-9.242-2.053-2.58-1.422-4.581-3.397-6.003-5.925-1.422-2.58-2.133-5.582-2.133-9.005V34.754c0-3.476.71-6.478 2.133-9.005 1.422-2.528 3.423-4.477 6.003-5.846 2.633-1.422 5.714-2.133 9.242-2.133 3.581 0 6.662.711 9.243 2.133 2.58 1.37 4.581 3.318 6.003 5.846 1.422 2.527 2.133 5.53 2.133 9.005v25.278c0 3.423-.711 6.425-2.133 9.005-1.422 2.528-3.45 4.503-6.082 5.924-2.58 1.37-5.635 2.054-9.164 2.054zm0-6.082c3.16 0 5.688-1 7.584-3.002 1.948-2.054 2.922-4.687 2.922-7.9V34.755c0-3.212-.974-5.82-2.922-7.82-1.896-2.054-4.424-3.081-7.584-3.081-3.16 0-5.713 1.027-7.662 3.08-1.896 2.002-2.844 4.608-2.844 7.82v25.279c0 3.212.948 5.845 2.844 7.9 1.949 2 4.503 3 7.662 3zm0-18.88c-1.421 0-2.58-.447-3.475-1.342-.843-.896-1.264-2.08-1.264-3.555 0-1.422.421-2.554 1.264-3.397.895-.895 2.054-1.343 3.475-1.343 1.422 0 2.555.448 3.397 1.343.895.843 1.343 1.975 1.343 3.397 0 1.474-.448 2.66-1.343 3.555-.842.895-1.975 1.342-3.397 1.342zm46.497 24.962c-3.476 0-6.531-.684-9.164-2.053-2.58-1.422-4.581-3.37-6.003-5.846-1.422-2.475-2.133-5.372-2.133-8.69h7.11c0 3.213.895 5.74 2.685 7.584 1.843 1.79 4.371 2.686 7.584 2.686 3.265 0 5.792-.948 7.583-2.844 1.79-1.896 2.686-4.37 2.686-7.425v-4.108c0-3.265-.896-5.793-2.686-7.583-1.791-1.79-4.318-2.686-7.583-2.686h-5.925v-7.11l14.298-13.902H91.894V18.56h30.57v7.11L107.061 40.6v-.87c5.266 0 9.452 1.501 12.559 4.503 3.107 3.002 4.661 7.03 4.661 12.086v4.108c0 3.317-.737 6.214-2.212 8.689-1.422 2.475-3.449 4.424-6.082 5.846-2.633 1.369-5.688 2.053-9.163 2.053z" fill="#CCEC60"/></g><defs><linearGradient id="paint0_linear_311_1425" x1="0" y1="133.567" x2="230.923" y2="133.567" gradientUnits="userSpaceOnUse"><stop stop-color="#F1FFF7"/><stop offset="1" stop-color="#546A65"/></linearGradient><linearGradient id="paint1_linear_311_1425" x1="12.154" y1="16.028" x2="239.712" y2="140.178" gradientUnits="userSpaceOnUse"><stop stop-color="#475E59" stop-opacity=".7"/><stop offset="1" stop-color="#fff" stop-opacity=".7"/></linearGradient><filter id="filter0_d_311_1425" x="17.296" y="54.547" width="122.255" height="12.647" filterUnits="userSpaceOnUse" color-interpolation-filters="sRGB"><feFlood flood-opacity="0" result="BackgroundImageFix"/><feColorMatrix in="SourceAlpha" values="0 0 0 0 0 0 0 0 0 0 0 0 0 0 0 0 0 0 127 0" result="hardAlpha"/><feOffset dy="-3.373"/><feGaussianBlur stdDeviation="2.951"/><feComposite in2="hardAlpha" operator="out"/><feColorMatrix values="0 0 0 0 0 0 0 0 0 0 0 0 0 0 0 0 0 0 1 0"/><feBlend in2="BackgroundImageFix" result="effect1_dropShadow_311_1425"/><feBlend in="SourceGraphic" in2="effect1_dropShadow_311_1425" result="shape"/></filter></defs></svg>