<svg width="204" height="338" fill="none" xmlns="http://www.w3.org/2000/svg"><rect width="204" height="338" rx="20" fill="#223B38"/><path d="M20.078 42.001v-8.03h4.444v8.03h-.88v-7.238h-2.684v7.238h-.88zm8.744.099c-.47 0-.876-.092-1.22-.275a1.943 1.943 0 01-.804-.792c-.19-.345-.286-.752-.286-1.221V38.14c0-.477.096-.884.286-1.221a1.94 1.94 0 01.803-.792c.345-.183.752-.275 1.221-.275.47 0 .877.092 1.221.275.345.183.613.447.803.792.19.337.286.74.286 1.21v1.683c0 .47-.095.876-.286 1.221-.19.345-.458.609-.803.792-.345.183-.752.275-1.22.275zm0-.781c.455 0 .807-.128 1.056-.385.25-.257.374-.63.374-1.122V38.14c0-.491-.128-.865-.385-1.122-.25-.257-.598-.385-1.045-.385-.447 0-.8.128-1.056.385-.25.257-.374.63-.374 1.122v1.672c0 .491.125.865.374 1.122.257.257.609.385 1.056.385zm4.3.682v-6.05h2.596c.602 0 1.075.143 1.42.429.344.279.516.667.516 1.166 0 .418-.143.755-.429 1.012-.278.25-.652.374-1.122.374v-.077c.506 0 .913.132 1.221.396.308.257.462.601.462 1.034 0 .535-.183.957-.55 1.265-.359.3-.858.451-1.496.451h-2.618zm.858-.77h1.76c.36 0 .646-.084.858-.253a.867.867 0 00.32-.704c0-.308-.107-.546-.32-.715-.212-.176-.498-.264-.858-.264h-1.76v1.936zm0-2.695h1.738c.323 0 .58-.08.77-.242a.806.806 0 00.297-.66c0-.279-.099-.499-.297-.66-.19-.169-.447-.253-.77-.253H33.98v1.815zm5.346 3.465v-6.05h.825v2.244h.538c.646 0 1.155.172 1.53.517.38.337.572.8.572 1.386 0 .587-.188 1.052-.561 1.397-.374.337-.888.506-1.54.506h-1.364zm.825-.715h.538c.411 0 .73-.103.958-.308.234-.213.352-.506.352-.88s-.118-.664-.352-.869c-.228-.213-.547-.319-.957-.319h-.54v2.376zm3.431.715v-6.05h.825v6.05h-.824zm2.266 0l-.022-6.05h.825v5.379h1.386v-5.379h.726v5.379h1.375v-5.379h.814v6.05h-5.104zm9.063.11c-.47 0-.877-.092-1.221-.275a2.015 2.015 0 01-.803-.803 2.437 2.437 0 01-.286-1.199v-1.716c0-.462.095-.862.286-1.199.19-.345.458-.609.803-.792.345-.19.752-.286 1.22-.286.47 0 .877.095 1.222.286.345.183.612.447.803.792.19.337.286.737.286 1.199v1.067h-3.762v.649c0 .491.124.873.374 1.144.257.264.616.396 1.078.396.389 0 .704-.077.946-.231a1.02 1.02 0 00.473-.671h.869c-.08.506-.326.906-.737 1.199-.41.293-.928.44-1.551.44zm1.452-3.509v-.484c0-.491-.125-.869-.374-1.133-.25-.271-.609-.407-1.078-.407-.462 0-.822.136-1.078.407-.25.264-.374.642-.374 1.133v.385h2.992l-.088.099zm2.848 3.399v-6.05h.88v2.574h2.684v-2.574h.88v6.05h-.88v-2.684h-2.684v2.684h-.88zm6.522 0v-6.05h.847v3.443c0 .205-.007.425-.022.66a16.547 16.547 0 01-.077 1.166l2.563-5.269h1.133v6.05h-.847v-3.443c0-.213.004-.433.011-.66l.044-.649c.022-.213.037-.389.044-.528l-2.574 5.28h-1.122zm8.744.11c-.469 0-.876-.092-1.22-.275a2.015 2.015 0 01-.804-.803 2.437 2.437 0 01-.286-1.199v-1.716c0-.462.096-.862.286-1.199.191-.345.459-.609.803-.792.345-.19.752-.286 1.221-.286.47 0 .877.095 1.221.286.345.183.613.447.803.792.191.337.286.737.286 1.199v1.067h-3.762v.649c0 .491.125.873.374 1.144.257.264.616.396 1.078.396.39 0 .704-.077.946-.231a1.02 1.02 0 00.473-.671h.87a1.756 1.756 0 01-.738 1.199c-.41.293-.927.44-1.55.44zm1.452-3.509v-.484c0-.491-.124-.869-.374-1.133-.249-.271-.608-.407-1.078-.407-.462 0-.82.136-1.078.407-.249.264-.374.642-.374 1.133v.385h2.992l-.088.099zm8.667 4.939v-2.288h.495c.124-.14.253-.389.385-.748.14-.367.212-.81.22-1.331l.066-3.223h3.85v5.302h.78v2.288h-.78v-1.54h-4.235v1.54h-.781zm1.43-2.288h2.717v-4.521h-2.156l-.044 2.453c-.008.55-.07 1.001-.187 1.353-.118.352-.228.59-.33.715zm8.018.847c-.47 0-.876-.092-1.221-.275a1.944 1.944 0 01-.803-.792c-.19-.345-.286-.752-.286-1.221V38.14c0-.477.095-.884.286-1.221.19-.345.458-.609.803-.792.345-.183.752-.275 1.22-.275.47 0 .877.092 1.222.275.345.183.612.447.803.792.19.337.286.74.286 1.21v1.683c0 .47-.095.876-.286 1.221-.19.345-.458.609-.803.792-.345.183-.752.275-1.221.275zm0-.781c.455 0 .807-.128 1.056-.385.25-.257.374-.63.374-1.122V38.14c0-.491-.128-.865-.385-1.122-.25-.257-.598-.385-1.045-.385-.447 0-.8.128-1.056.385-.25.257-.374.63-.374 1.122v1.672c0 .491.125.865.374 1.122.257.257.609.385 1.056.385zm3.85.682l2.144-3.113-2.013-2.937h1.023l1.276 1.958c.044.073.088.158.132.253l.121.209c.029-.051.066-.121.11-.209a5.87 5.87 0 01.143-.253l1.276-1.958h1.012l-2.013 2.948 2.134 3.102h-1.023l-1.364-2.068a2.111 2.111 0 01-.154-.264 1.79 1.79 0 00-.121-.242 4.753 4.753 0 01-.297.506l-1.375 2.068h-1.012zm9.194.099c-.469 0-.876-.092-1.221-.275a1.95 1.95 0 01-.803-.792c-.19-.345-.286-.752-.286-1.221V38.14c0-.477.096-.884.286-1.221.191-.345.459-.609.803-.792.345-.183.752-.275 1.221-.275.47 0 .877.092 1.221.275.345.183.613.447.803.792.191.337.286.74.286 1.21v1.683c0 .47-.095.876-.286 1.221-.19.345-.458.609-.803.792-.344.183-.751.275-1.221.275zm0-.781c.455 0 .807-.128 1.056-.385.25-.257.374-.63.374-1.122V38.14c0-.491-.128-.865-.385-1.122-.249-.257-.597-.385-1.045-.385-.447 0-.799.128-1.056.385-.249.257-.374.63-.374 1.122v1.672c0 .491.125.865.374 1.122.257.257.609.385 1.056.385zm3.596 2.222v-2.288h.495c.125-.14.253-.389.385-.748.14-.367.213-.81.22-1.331l.066-3.223h3.85v5.302h.781v2.288h-.781v-1.54h-4.235v1.54h-.781zm1.43-2.288h2.717v-4.521h-2.156l-.044 2.453c-.007.55-.069 1.001-.187 1.353-.117.352-.227.59-.33.715zm8.019.847c-.47 0-.877-.092-1.221-.275a1.938 1.938 0 01-.803-.792c-.191-.345-.286-.752-.286-1.221V38.14c0-.477.095-.884.286-1.221.19-.345.458-.609.803-.792.344-.183.751-.275 1.221-.275.469 0 .876.092 1.221.275.344.183.612.447.803.792.19.337.286.74.286 1.21v1.683c0 .47-.096.876-.286 1.221a1.95 1.95 0 01-.803.792c-.345.183-.752.275-1.221.275zm0-.781c.454 0 .806-.128 1.056-.385.249-.257.374-.63.374-1.122V38.14c0-.491-.129-.865-.385-1.122-.25-.257-.598-.385-1.045-.385-.448 0-.8.128-1.056.385-.25.257-.374.63-.374 1.122v1.672c0 .491.124.865.374 1.122.256.257.608.385 1.056.385zm4.3.682v-6.05h2.596c.601 0 1.074.143 1.419.429.344.279.517.667.517 1.166 0 .418-.143.755-.429 1.012-.279.25-.653.374-1.122.374v-.077c.506 0 .913.132 1.221.396.308.257.462.601.462 1.034 0 .535-.184.957-.55 1.265-.36.3-.858.451-1.496.451h-2.618zm.858-.77h1.76c.359 0 .645-.084.858-.253a.87.87 0 00.319-.704c0-.308-.107-.546-.319-.715-.213-.176-.499-.264-.858-.264h-1.76v1.936zm0-2.695h1.738c.322 0 .579-.08.77-.242a.806.806 0 00.297-.66c0-.279-.099-.499-.297-.66-.191-.169-.448-.253-.77-.253h-1.738v1.815zm7.886-1.067c-.264 0-.477-.073-.638-.22-.161-.147-.242-.345-.242-.594 0-.242.081-.436.242-.583.161-.154.374-.231.638-.231.271 0 .484.077.638.231a.751.751 0 01.242.583c0 .25-.081.447-.242.594-.154.147-.367.22-.638.22zm0 4.642c-.264 0-.477-.073-.638-.22a.786.786 0 01-.242-.594c0-.25.081-.447.242-.594.161-.147.374-.22.638-.22.271 0 .484.073.638.22.161.147.242.345.242.594 0 .242-.081.44-.242.594-.154.147-.367.22-.638.22z" fill="#CCEC60"/><path d="M23.565 77.229c-.366 0-.667-.114-.902-.341-.227-.235-.34-.535-.34-.902s.113-.664.34-.891c.235-.235.536-.352.902-.352.367 0 .664.117.891.352.235.227.352.524.352.891s-.117.667-.352.902c-.227.227-.524.341-.89.341zm7.64 2.772v-8.03h.869v3.476h2.706v-3.476h.868v8.03h-.869V76.25h-2.706v3.751h-.869zm8.27.11c-.637 0-1.14-.161-1.506-.484-.367-.33-.55-.774-.55-1.331 0-.55.18-.983.539-1.298.359-.323.843-.484 1.452-.484h1.925v-.638c0-.403-.118-.715-.352-.935-.235-.22-.569-.33-1.001-.33-.382 0-.7.084-.957.253a.938.938 0 00-.43.682h-.88c.074-.52.316-.935.727-1.243.418-.308.938-.462 1.562-.462.674 0 1.21.183 1.606.55.396.36.594.847.594 1.463v4.147h-.858v-1.177h-.143l.165-.176c0 .447-.173.803-.517 1.067-.345.264-.803.396-1.375.396zm.21-.704c.484 0 .88-.121 1.188-.363.308-.242.462-.557.462-.946v-.913H39.42c-.345 0-.62.095-.825.286-.206.19-.308.451-.308.781 0 .352.124.634.374.847.249.205.59.308 1.023.308zm4.564.594v-6.05h4.444v6.05h-.88v-5.258h-2.684v5.258h-.88zm8.744.099c-.47 0-.876-.092-1.221-.275a1.944 1.944 0 01-.803-.792c-.19-.345-.286-.752-.286-1.221V76.14c0-.477.095-.884.286-1.221.19-.345.458-.609.803-.792.345-.183.752-.275 1.221-.275.47 0 .876.092 1.221.275.345.183.612.447.803.792.19.337.286.74.286 1.21v1.683c0 .47-.095.876-.286 1.221-.19.345-.458.609-.803.792-.345.183-.752.275-1.221.275zm0-.781c.455 0 .807-.128 1.056-.385.25-.257.374-.63.374-1.122V76.14c0-.491-.128-.865-.385-1.122-.25-.257-.598-.385-1.045-.385-.447 0-.8.128-1.056.385-.25.257-.374.63-.374 1.122v1.672c0 .491.125.865.374 1.122.257.257.609.385 1.056.385zm4.102.682v-6.05h1.21l.88 2.464c.073.213.143.429.21.649.065.22.113.392.142.517.037-.125.084-.297.143-.517.066-.22.136-.44.21-.66l.846-2.453h1.2v6.05h-.848v-1.452c0-.315.004-.653.011-1.012l.022-1.078c.008-.36.018-.697.033-1.012.015-.323.026-.605.033-.847l-1.199 3.586h-.924l-1.199-3.564c.015.293.026.664.033 1.111.008.44.015.906.022 1.397.015.491.022.964.022 1.419v1.452h-.847zm6.72 0v-6.05h.847v3.443c0 .205-.007.425-.022.66a16.547 16.547 0 01-.077 1.166l2.563-5.269h1.133v6.05h-.847v-3.443c0-.213.004-.433.011-.66l.044-.649c.022-.213.037-.389.044-.528l-2.574 5.28h-1.122zm6.523 0v-6.05h.88v2.574H73.9v-2.574h.88v6.05h-.88v-2.684h-2.683v2.684h-.88zm8.27.11c-.637 0-1.14-.161-1.506-.484-.367-.33-.55-.774-.55-1.331 0-.55.18-.983.539-1.298.359-.323.843-.484 1.452-.484h1.925v-.638c0-.403-.118-.715-.352-.935-.235-.22-.569-.33-1.001-.33-.382 0-.7.084-.957.253a.938.938 0 00-.43.682h-.88c.074-.52.316-.935.727-1.243.418-.308.938-.462 1.562-.462.674 0 1.21.183 1.606.55.396.36.594.847.594 1.463v4.147h-.858v-1.177h-.143l.165-.176c0 .447-.173.803-.517 1.067-.345.264-.803.396-1.375.396zm.21-.704c.484 0 .88-.121 1.188-.363.308-.242.462-.557.462-.946v-.913h-1.914c-.345 0-.62.095-.825.286-.206.19-.308.451-.308.781 0 .352.124.634.374.847.249.205.59.308 1.023.308zm4.564.594v-6.05h.88v2.574h2.684v-2.574h.88v6.05h-.88v-2.684h-2.684v2.684h-.88zm6.522 0v-6.05h.847v3.443c0 .205-.007.425-.022.66a16.547 16.547 0 01-.077 1.166l2.563-5.269h1.133v6.05h-.847v-3.443c0-.213.004-.433.011-.66l.044-.649c.022-.213.037-.389.044-.528l-2.574 5.28h-1.122zm6.181 0l1.54-2.343c-.47-.103-.832-.312-1.089-.627s-.385-.711-.385-1.188c0-.587.195-1.049.583-1.386.396-.337.931-.506 1.606-.506h2.53v6.05h-.88v-2.266h-1.463l-1.43 2.266h-1.012zm2.255-3.047h1.65v-2.222h-1.65c-.396 0-.711.099-.946.297-.235.198-.352.47-.352.814 0 .345.117.616.352.814.235.198.55.297.946.297zm13.353 3.146c-.47 0-.877-.092-1.221-.275a1.938 1.938 0 01-.803-.792c-.191-.345-.286-.752-.286-1.221V76.14c0-.477.095-.884.286-1.221.19-.345.458-.609.803-.792.344-.183.751-.275 1.221-.275.469 0 .876.092 1.221.275.344.183.612.447.803.792.19.337.286.74.286 1.21v1.683c0 .47-.096.876-.286 1.221a1.95 1.95 0 01-.803.792c-.345.183-.752.275-1.221.275zm0-.781c.454 0 .806-.128 1.056-.385.249-.257.374-.63.374-1.122V76.14c0-.491-.129-.865-.385-1.122-.25-.257-.598-.385-1.045-.385-.448 0-.8.128-1.056.385-.25.257-.374.63-.374 1.122v1.672c0 .491.124.865.374 1.122.256.257.608.385 1.056.385zm6.522.792c-.704 0-1.258-.209-1.661-.627-.404-.418-.605-.994-.605-1.727v-2.816c0-.953.238-1.687.715-2.2.476-.513 1.158-.77 2.046-.77h1.496v.869h-1.496c-.616 0-1.086.183-1.408.55-.323.36-.484.876-.484 1.551v.759h.154l-.154.264c.007-.44.154-.785.44-1.034.293-.25.693-.374 1.199-.374.645 0 1.144.205 1.496.616.352.403.528.968.528 1.694v.891c0 .491-.092.913-.275 1.265a1.88 1.88 0 01-.77.814c-.338.183-.745.275-1.221.275zm0-.781c.447 0 .792-.136 1.034-.407.242-.271.363-.66.363-1.166v-.891c0-.499-.121-.887-.363-1.166-.242-.279-.587-.418-1.034-.418-.448 0-.792.14-1.034.418-.242.279-.363.667-.363 1.166v.891c0 .506.121.895.363 1.166.249.271.594.407 1.034.407zm13.044.77c-.469 0-.876-.092-1.221-.275a1.944 1.944 0 01-.803-.792c-.191-.345-.286-.752-.286-1.221V76.14c0-.477.095-.884.286-1.221a1.94 1.94 0 01.803-.792c.345-.183.752-.275 1.221-.275.469 0 .876.092 1.221.275.345.183.612.447.803.792.191.337.286.74.286 1.21v1.683c0 .47-.095.876-.286 1.221a1.944 1.944 0 01-.803.792c-.345.183-.752.275-1.221.275zm0-.781c.455 0 .807-.128 1.056-.385s.374-.63.374-1.122V76.14c0-.491-.128-.865-.385-1.122-.249-.257-.598-.385-1.045-.385-.447 0-.799.128-1.056.385-.249.257-.374.63-.374 1.122v1.672c0 .491.125.865.374 1.122.257.257.609.385 1.056.385zm4.3.682v-6.05h4.444v6.05h-.88v-5.258h-2.684v5.258h-.88zm5.752.077v-.825h.22c.316 0 .547-.128.693-.385.147-.264.224-.7.231-1.309l.077-3.608h3.993v6.05h-.88v-5.258h-2.255l-.066 2.849c-.007.572-.077 1.041-.209 1.408-.124.367-.315.638-.572.814-.249.176-.575.264-.979.264h-.253zm9.042.033c-.638 0-1.141-.161-1.507-.484-.367-.33-.55-.774-.55-1.331 0-.55.179-.983.539-1.298.359-.323.843-.484 1.452-.484h1.925v-.638c0-.403-.118-.715-.352-.935-.235-.22-.569-.33-1.001-.33-.382 0-.701.084-.957.253a.934.934 0 00-.429.682h-.88c.073-.52.315-.935.726-1.243.418-.308.938-.462 1.562-.462.674 0 1.21.183 1.606.55.396.36.594.847.594 1.463v4.147h-.858v-1.177h-.143l.165-.176c0 .447-.173.803-.517 1.067-.345.264-.803.396-1.375.396zm.209-.704c.484 0 .88-.121 1.188-.363.308-.242.462-.557.462-.946v-.913h-1.914c-.345 0-.62.095-.825.286-.206.19-.308.451-.308.781 0 .352.124.634.374.847.249.205.59.308 1.023.308zm6.346.594v-5.269h-2.2v-.781h5.28v.781h-2.2v5.269h-.88zm6.962.11c-.469 0-.876-.092-1.221-.275a2.015 2.015 0 01-.803-.803c-.191-.345-.286-.744-.286-1.199v-1.716c0-.462.095-.862.286-1.199a1.94 1.94 0 01.803-.792c.345-.19.752-.286 1.221-.286.469 0 .876.095 1.221.286.345.183.612.447.803.792.191.337.286.737.286 1.199v1.067h-3.762v.649c0 .491.125.873.374 1.144.257.264.616.396 1.078.396.389 0 .704-.077.946-.231a1.02 1.02 0 00.473-.671h.869a1.756 1.756 0 01-.737 1.199c-.411.293-.928.44-1.551.44zm1.452-3.509v-.484c0-.491-.125-.869-.374-1.133-.249-.271-.609-.407-1.078-.407-.462 0-.821.136-1.078.407-.249.264-.374.642-.374 1.133v.385h2.992l-.088.099zm9.37 3.399v-6.05h.847v3.443c0 .205-.007.425-.022.66a15.458 15.458 0 01-.077 1.166l2.563-5.269h1.133v6.05h-.847v-3.443c0-.213.004-.433.011-.66l.044-.649c.022-.213.037-.389.044-.528l-2.574 5.28h-1.122zM32.15 108.981l.892-2.365-2.245-5.665h.968l1.43 3.773c.06.147.114.312.166.495.058.176.102.323.132.44.036-.117.08-.268.131-.451.052-.183.103-.348.154-.495l1.343-3.762h.934l-2.98 8.03h-.925zm4.873-.44v-2.288h.495c.124-.139.253-.389.385-.748.139-.367.212-.81.22-1.331l.066-3.223h3.85v5.302h.78v2.288h-.78v-1.54h-4.235v1.54h-.781zm1.43-2.288h2.717v-4.521h-2.156l-.044 2.453c-.008.55-.07 1.001-.187 1.353-.118.352-.228.59-.33.715zm8.018.847c-.47 0-.877-.092-1.221-.275a1.94 1.94 0 01-.803-.792c-.19-.345-.286-.752-.286-1.221v-1.672c0-.477.095-.884.286-1.221a1.94 1.94 0 01.803-.792c.344-.183.752-.275 1.22-.275.47 0 .877.092 1.222.275.344.183.612.447.803.792.19.337.286.741.286 1.21v1.683c0 .469-.096.876-.286 1.221a1.94 1.94 0 01-.803.792c-.345.183-.752.275-1.221.275zm0-.781c.455 0 .807-.128 1.056-.385.25-.257.374-.631.374-1.122v-1.672c0-.491-.129-.865-.385-1.122-.25-.257-.598-.385-1.045-.385-.447 0-.8.128-1.056.385-.25.257-.374.631-.374 1.122v1.672c0 .491.125.865.374 1.122.257.257.608.385 1.056.385zm6.522.792c-.704 0-1.258-.209-1.661-.627-.403-.418-.605-.994-.605-1.727v-2.816c0-.953.238-1.687.715-2.2.477-.513 1.159-.77 2.046-.77h1.496v.869h-1.496c-.616 0-1.085.183-1.408.55-.323.359-.484.876-.484 1.551v.759h.154l-.154.264c.007-.44.154-.785.44-1.034.293-.249.693-.374 1.199-.374.645 0 1.144.205 1.496.616.352.403.528.968.528 1.694v.891c0 .491-.092.913-.275 1.265a1.88 1.88 0 01-.77.814c-.337.183-.744.275-1.221.275zm0-.781c.447 0 .792-.136 1.034-.407.242-.271.363-.66.363-1.166v-.891c0-.499-.121-.887-.363-1.166-.242-.279-.587-.418-1.034-.418-.447 0-.792.139-1.034.418-.242.279-.363.667-.363 1.166v.891c0 .506.121.895.363 1.166.25.271.594.407 1.034.407zm6.533.781c-.47 0-.88-.092-1.232-.275a2.017 2.017 0 01-.825-.781c-.19-.345-.286-.752-.286-1.221v-1.716c0-.469.096-.873.286-1.21.198-.345.473-.609.825-.792.352-.183.763-.275 1.232-.275.69 0 1.243.187 1.661.561.418.374.635.884.65 1.529h-.87c-.014-.418-.15-.741-.407-.968-.25-.227-.594-.341-1.034-.341-.447 0-.803.132-1.067.396-.264.257-.396.623-.396 1.1v1.716c0 .469.132.836.396 1.1.264.264.62.396 1.067.396.44 0 .785-.114 1.034-.341.257-.235.392-.557.407-.968h.87c-.016.645-.232 1.155-.65 1.529-.418.374-.971.561-1.66.561zm6.071-.11v-5.269h-2.2v-.781h5.28v.781h-2.2v5.269h-.88zm4.74 0v-6.05h2.596c.602 0 1.075.143 1.42.429.344.279.517.667.517 1.166 0 .418-.144.755-.43 1.012-.278.249-.652.374-1.121.374v-.077c.505 0 .912.132 1.22.396.308.257.462.601.462 1.034 0 .535-.183.957-.55 1.265-.359.301-.857.451-1.495.451h-2.618zm.858-.77h1.76c.36 0 .646-.084.859-.253a.868.868 0 00.319-.704c0-.308-.107-.546-.32-.715-.212-.176-.498-.264-.858-.264h-1.76v1.936zm0-2.695h1.739c.322 0 .579-.081.77-.242.198-.161.297-.381.297-.66s-.1-.499-.297-.66c-.191-.169-.448-.253-.77-.253h-1.739v1.815zm7.887 3.564c-.47 0-.877-.092-1.221-.275a1.94 1.94 0 01-.803-.792c-.191-.345-.286-.752-.286-1.221v-1.672c0-.477.095-.884.286-1.221a1.94 1.94 0 01.803-.792c.344-.183.751-.275 1.22-.275.47 0 .877.092 1.222.275.344.183.612.447.803.792.19.337.286.741.286 1.21v1.683c0 .469-.096.876-.286 1.221a1.94 1.94 0 01-.803.792c-.345.183-.752.275-1.221.275zm0-.781c.454 0 .806-.128 1.056-.385.249-.257.374-.631.374-1.122v-1.672c0-.491-.129-.865-.385-1.122-.25-.257-.598-.385-1.045-.385-.448 0-.8.128-1.056.385-.25.257-.374.631-.374 1.122v1.672c0 .491.124.865.374 1.122.256.257.608.385 1.056.385zm10.822.682v-6.05h4.444v6.05h-.88v-5.258h-2.684v5.258h-.88zm6.511 1.98v-8.03h.87v1.067h.23l-.264.363c0-.477.154-.851.462-1.122.316-.279.73-.418 1.243-.418.609 0 1.093.202 1.452.605.367.396.55.939.55 1.628v1.793c0 .462-.084.862-.253 1.199-.168.33-.403.587-.704.77-.293.183-.642.275-1.045.275-.506 0-.916-.139-1.232-.418-.315-.279-.473-.653-.473-1.122l.231.363h-.209l.011 1.232v1.815h-.869zm2.266-2.629c.44 0 .781-.132 1.023-.396.25-.264.374-.638.374-1.122v-1.716c0-.491-.124-.865-.374-1.122-.242-.264-.583-.396-1.023-.396-.425 0-.766.136-1.023.407-.25.264-.374.634-.374 1.111v1.716c0 .477.125.851.374 1.122.257.264.598.396 1.023.396zm6.489.748c-.469 0-.876-.092-1.221-.275a1.945 1.945 0 01-.803-.792c-.19-.345-.286-.752-.286-1.221v-1.672c0-.477.096-.884.286-1.221.191-.345.459-.609.803-.792.345-.183.752-.275 1.221-.275.47 0 .877.092 1.221.275.345.183.613.447.803.792.191.337.286.741.286 1.21v1.683c0 .469-.095.876-.286 1.221-.19.345-.458.609-.803.792-.344.183-.751.275-1.221.275zm0-.781c.455 0 .807-.128 1.056-.385.25-.257.374-.631.374-1.122v-1.672c0-.491-.128-.865-.385-1.122-.249-.257-.597-.385-1.045-.385-.447 0-.799.128-1.056.385-.249.257-.374.631-.374 1.122v1.672c0 .491.125.865.374 1.122.257.257.609.385 1.056.385zm3.597 2.222v-2.288h.495c.124-.139.253-.389.385-.748.139-.367.212-.81.22-1.331l.066-3.223h3.85v5.302h.781v2.288h-.781v-1.54h-4.235v1.54h-.781zm1.43-2.288h2.717v-4.521h-2.156l-.044 2.453c-.008.55-.07 1.001-.187 1.353-.118.352-.228.59-.33.715zm5.026.825v-.825h.22c.315 0 .546-.128.693-.385.146-.264.223-.7.231-1.309l.077-3.608h3.993v6.05h-.88v-5.258h-2.255l-.066 2.849c-.008.572-.077 1.041-.209 1.408-.125.367-.316.638-.572.814-.25.176-.576.264-.979.264h-.253zm9.514.033c-.469 0-.876-.092-1.221-.275a2.015 2.015 0 01-.803-.803c-.191-.345-.286-.744-.286-1.199v-1.716c0-.462.095-.862.286-1.199a1.94 1.94 0 01.803-.792c.345-.191.752-.286 1.221-.286.469 0 .876.095 1.221.286.345.183.612.447.803.792.191.337.286.737.286 1.199v1.067h-3.762v.649c0 .491.125.873.374 1.144.257.264.616.396 1.078.396.389 0 .704-.077.946-.231.249-.154.407-.378.473-.671h.869a1.755 1.755 0 01-.737 1.199c-.411.293-.928.44-1.551.44zm1.452-3.509v-.484c0-.491-.125-.869-.374-1.133-.249-.271-.609-.407-1.078-.407-.462 0-.821.136-1.078.407-.249.264-.374.642-.374 1.133v.385h2.992l-.088.099zm2.848 3.399v-6.05h.88v2.574h2.684v-2.574h.88v6.05h-.88v-2.684h-2.684v2.684h-.88zm6.522 0v-6.05h.847v3.443c0 .205-.007.425-.022.66a15.449 15.449 0 01-.077 1.166l2.563-5.269h1.133v6.05h-.847v-3.443c0-.213.004-.433.011-.66l.044-.649c.022-.213.037-.389.044-.528l-2.574 5.28h-1.122zm6.181 0l1.54-2.343c-.469-.103-.832-.312-1.089-.627-.256-.315-.385-.711-.385-1.188 0-.587.195-1.049.583-1.386.396-.337.932-.506 1.606-.506h2.53v6.05h-.88v-2.266h-1.463l-1.43 2.266h-1.012zm2.255-3.047h1.65v-2.222h-1.65c-.396 0-.711.099-.946.297-.234.198-.352.469-.352.814s.118.616.352.814c.235.198.55.297.946.297zM33.437 133.111c-.469 0-.88-.092-1.231-.275a2.017 2.017 0 01-.826-.781c-.19-.345-.285-.752-.285-1.221v-1.716c0-.469.095-.873.286-1.21.197-.345.473-.609.825-.792.351-.183.762-.275 1.231-.275.69 0 1.244.187 1.662.561.418.374.634.884.649 1.529h-.87c-.014-.418-.15-.741-.407-.968-.249-.227-.593-.341-1.033-.341-.448 0-.803.132-1.068.396-.264.257-.395.623-.395 1.1v1.716c0 .469.131.836.395 1.1.265.264.62.396 1.068.396.44 0 .784-.114 1.033-.341.257-.235.393-.557.408-.968h.869c-.015.645-.231 1.155-.65 1.529-.417.374-.971.561-1.66.561zm4.29-.11v-6.05h4.444v6.05h-.88v-5.258h-2.684v5.258h-.88zm8.744.099c-.47 0-.877-.092-1.221-.275a1.94 1.94 0 01-.803-.792c-.19-.345-.286-.752-.286-1.221v-1.672c0-.477.095-.884.286-1.221a1.94 1.94 0 01.803-.792c.344-.183.752-.275 1.22-.275.47 0 .877.092 1.222.275.344.183.612.447.803.792.19.337.286.741.286 1.21v1.683c0 .469-.096.876-.286 1.221a1.94 1.94 0 01-.803.792c-.345.183-.752.275-1.221.275zm0-.781c.455 0 .807-.128 1.056-.385.25-.257.374-.631.374-1.122v-1.672c0-.491-.129-.865-.385-1.122-.25-.257-.598-.385-1.045-.385-.447 0-.8.128-1.056.385-.25.257-.374.631-.374 1.122v1.672c0 .491.125.865.374 1.122.257.257.608.385 1.056.385zm6.533.792c-.47 0-.88-.092-1.232-.275a2.017 2.017 0 01-.825-.781c-.19-.345-.286-.752-.286-1.221v-1.716c0-.469.095-.873.286-1.21.198-.345.473-.609.825-.792.352-.183.763-.275 1.232-.275.69 0 1.243.187 1.661.561.418.374.634.884.649 1.529h-.869c-.015-.418-.15-.741-.407-.968-.25-.227-.594-.341-1.034-.341-.447 0-.803.132-1.067.396-.264.257-.396.623-.396 1.1v1.716c0 .469.132.836.396 1.1.264.264.62.396 1.067.396.44 0 .785-.114 1.034-.341.257-.235.392-.557.407-.968h.869c-.015.645-.231 1.155-.649 1.529-.418.374-.972.561-1.661.561zm6.511-.011c-.47 0-.876-.092-1.22-.275a1.939 1.939 0 01-.804-.792c-.19-.345-.286-.752-.286-1.221v-1.672c0-.477.096-.884.286-1.221a1.94 1.94 0 01.803-.792c.345-.183.752-.275 1.221-.275.47 0 .877.092 1.221.275.345.183.613.447.803.792.19.337.286.741.286 1.21v1.683c0 .469-.095.876-.286 1.221a1.94 1.94 0 01-.803.792c-.344.183-.752.275-1.22.275zm0-.781c.455 0 .807-.128 1.056-.385.25-.257.374-.631.374-1.122v-1.672c0-.491-.128-.865-.385-1.122-.25-.257-.598-.385-1.045-.385-.447 0-.8.128-1.056.385-.25.257-.374.631-.374 1.122v1.672c0 .491.125.865.374 1.122.257.257.609.385 1.056.385zm6.522.792c-.704 0-1.257-.209-1.66-.627-.404-.418-.606-.994-.606-1.727v-2.816c0-.953.239-1.687.715-2.2.477-.513 1.159-.77 2.046-.77h1.496v.869h-1.496c-.616 0-1.085.183-1.408.55-.322.359-.484.876-.484 1.551v.759h.154l-.154.264c.008-.44.154-.785.44-1.034.294-.249.693-.374 1.2-.374.645 0 1.143.205 1.495.616.352.403.528.968.528 1.694v.891c0 .491-.091.913-.275 1.265a1.88 1.88 0 01-.77.814c-.337.183-.744.275-1.22.275zm0-.781c.448 0 .792-.136 1.034-.407.242-.271.363-.66.363-1.166v-.891c0-.499-.12-.887-.363-1.166-.242-.279-.586-.418-1.034-.418-.447 0-.792.139-1.034.418-.242.279-.363.667-.363 1.166v.891c0 .506.121.895.363 1.166.25.271.594.407 1.034.407zm6.533.781c-.469 0-.88-.092-1.231-.275a2.017 2.017 0 01-.826-.781c-.19-.345-.285-.752-.285-1.221v-1.716c0-.469.095-.873.285-1.21.198-.345.474-.609.825-.792.353-.183.763-.275 1.233-.275.689 0 1.243.187 1.66.561.419.374.635.884.65 1.529h-.87c-.014-.418-.15-.741-.406-.968-.25-.227-.595-.341-1.035-.341-.447 0-.802.132-1.066.396-.264.257-.397.623-.397 1.1v1.716c0 .469.133.836.397 1.1.263.264.62.396 1.066.396.44 0 .785-.114 1.035-.341.256-.235.392-.557.406-.968h.87c-.015.645-.231 1.155-.65 1.529-.417.374-.971.561-1.66.561zm6.072-.11v-5.269h-2.2v-.781h5.28v.781h-2.2v5.269h-.88zm4.74 0v-6.05h2.596c.601 0 1.074.143 1.419.429.344.279.517.667.517 1.166 0 .418-.143.755-.43 1.012-.278.249-.652.374-1.121.374v-.077c.506 0 .913.132 1.22.396.309.257.463.601.463 1.034 0 .535-.184.957-.55 1.265-.36.301-.858.451-1.496.451h-2.618zm.858-.77H86c.36 0 .645-.084.858-.253a.868.868 0 00.319-.704c0-.308-.107-.546-.32-.715-.212-.176-.498-.264-.857-.264h-1.76v1.936zm0-2.695h1.738c.323 0 .58-.081.77-.242.198-.161.297-.381.297-.66s-.1-.499-.297-.66c-.19-.169-.448-.253-.77-.253H84.24v1.815zm6.61 5.445l.891-2.365-2.244-5.665h.968l1.43 3.773c.059.147.114.312.165.495.059.176.103.323.132.44.037-.117.08-.268.132-.451.051-.183.103-.348.154-.495l1.342-3.762h.935l-2.981 8.03h-.924zm8.744-1.87c-.506 0-.913-.169-1.22-.506-.301-.345-.452-.799-.452-1.364v-.957h-1.045v2.717h-.803v-6.05h.803v2.629h1.045v-.869c0-.572.15-1.027.451-1.364.3-.337.708-.506 1.221-.506.536 0 .965.169 1.287.506.323.337.484.792.484 1.364v2.53c0 .565-.161 1.019-.484 1.364-.322.337-.751.506-1.287.506zm0-.693c.3 0 .536-.103.704-.308.169-.213.253-.502.253-.869v-2.53c0-.367-.084-.653-.253-.858-.168-.213-.403-.319-.704-.319-.293 0-.524.106-.693.319-.168.205-.253.491-.253.858v2.53c0 .367.085.656.253.869.169.205.4.308.693.308zm5.136.583v-5.269h-2.2v-.781h5.28v.781h-2.2v5.269h-.88zm12.209 1.98l.891-2.365-2.244-5.665h.968l1.43 3.773c.058.147.113.312.165.495.058.176.102.323.132.44.036-.117.08-.268.132-.451.051-.183.102-.348.154-.495l1.342-3.762h.935l-2.981 8.03h-.924zm5.576-1.98v-6.05h2.596c.601 0 1.074.143 1.419.429.345.279.517.667.517 1.166 0 .418-.143.755-.429 1.012-.279.249-.653.374-1.122.374v-.077c.506 0 .913.132 1.221.396.308.257.462.601.462 1.034 0 .535-.183.957-.55 1.265-.359.301-.858.451-1.496.451h-2.618zm.858-.77h1.76c.359 0 .645-.084.858-.253a.867.867 0 00.319-.704c0-.308-.106-.546-.319-.715-.213-.176-.499-.264-.858-.264h-1.76v1.936zm0-2.695h1.738c.323 0 .579-.081.77-.242.198-.161.297-.381.297-.66s-.099-.499-.297-.66c-.191-.169-.447-.253-.77-.253h-1.738v1.815zm7.886 3.575c-.469 0-.876-.092-1.221-.275a2.015 2.015 0 01-.803-.803c-.191-.345-.286-.744-.286-1.199v-1.716c0-.462.095-.862.286-1.199a1.94 1.94 0 01.803-.792c.345-.191.752-.286 1.221-.286.469 0 .876.095 1.221.286.345.183.612.447.803.792.191.337.286.737.286 1.199v1.067h-3.762v.649c0 .491.125.873.374 1.144.257.264.616.396 1.078.396.389 0 .704-.077.946-.231.249-.154.407-.378.473-.671h.869a1.755 1.755 0 01-.737 1.199c-.411.293-.928.44-1.551.44zm1.452-3.509v-.484c0-.491-.125-.869-.374-1.133-.249-.271-.609-.407-1.078-.407-.462 0-.821.136-1.078.407-.249.264-.374.642-.374 1.133v.385h2.992l-.088.099zm2.078 3.476v-.825h.22c.316 0 .547-.128.693-.385.147-.264.224-.7.231-1.309l.077-3.608h3.993v6.05h-.88v-5.258h-2.255l-.066 2.849c-.007.572-.077 1.041-.209 1.408-.124.367-.315.638-.572.814-.249.176-.575.264-.979.264h-.253zm7.292-.077v-6.05h.847v3.443c0 .205-.007.425-.022.66a15.449 15.449 0 01-.077 1.166l2.563-5.269h1.133v6.05h-.847v-3.443c0-.213.004-.433.011-.66l.044-.649c.022-.213.037-.389.044-.528l-2.574 5.28h-1.122zm10.032 0v-2.233a4.85 4.85 0 01-.55.088c-.25.022-.528.033-.836.033-.726.007-1.291-.172-1.694-.539-.396-.367-.594-.884-.594-1.551v-1.848h.869v1.848c0 .411.124.73.374.957.256.227.619.341 1.089.341.337 0 .623-.011.858-.033.234-.029.396-.055.484-.077v-3.036h.869v6.05h-.869zm5.235.11c-.47 0-.877-.092-1.221-.275a2.008 2.008 0 01-.803-.803c-.191-.345-.286-.744-.286-1.199v-1.716c0-.462.095-.862.286-1.199.19-.345.458-.609.803-.792.344-.191.751-.286 1.221-.286.469 0 .876.095 1.221.286.344.183.612.447.803.792.19.337.286.737.286 1.199v1.067h-3.762v.649c0 .491.124.873.374 1.144.256.264.616.396 1.078.396.388 0 .704-.077.946-.231.249-.154.407-.378.473-.671h.869a1.759 1.759 0 01-.737 1.199c-.411.293-.928.44-1.551.44zm1.452-3.509v-.484c0-.491-.125-.869-.374-1.133-.25-.271-.609-.407-1.078-.407-.462 0-.822.136-1.078.407-.25.264-.374.642-.374 1.133v.385h2.992l-.088.099zm2.848 3.399v-6.05h.88v2.574h2.684v-2.574h.88v6.05h-.88v-2.684h-2.684v2.684h-.88zm6.522 0v-6.05h.847v3.443c0 .205-.007.425-.022.66a15.449 15.449 0 01-.077 1.166l2.563-5.269h1.133v6.05h-.847v-3.443c0-.213.004-.433.011-.66.015-.227.029-.444.044-.649.022-.213.037-.389.044-.528l-2.574 5.28h-1.122zm9.69.11c-.506 0-.913-.169-1.221-.506-.3-.345-.451-.799-.451-1.364v-.957h-1.045v2.717h-.803v-6.05h.803v2.629h1.045v-.869c0-.572.151-1.027.451-1.364.301-.337.708-.506 1.221-.506.536 0 .965.169 1.287.506.323.337.484.792.484 1.364v2.53c0 .565-.161 1.019-.484 1.364-.322.337-.751.506-1.287.506zm0-.693c.301 0 .536-.103.704-.308.169-.213.253-.502.253-.869v-2.53c0-.367-.084-.653-.253-.858-.168-.213-.403-.319-.704-.319-.293 0-.524.106-.693.319-.168.205-.253.491-.253.858v2.53c0 .367.085.656.253.869.169.205.4.308.693.308zM31.237 160.001v-6.05h.88v2.541h1.145l1.792-2.541h1.002l-2.035 2.882 2.078 3.168h-1.022l-1.816-2.75h-1.144v2.75h-.88zm8.712.099c-.47 0-.877-.092-1.221-.275a1.94 1.94 0 01-.803-.792c-.191-.345-.286-.752-.286-1.221v-1.672c0-.477.095-.884.286-1.221a1.94 1.94 0 01.803-.792c.344-.183.751-.275 1.22-.275.47 0 .877.092 1.222.275.344.183.612.447.803.792.19.337.286.741.286 1.21v1.683c0 .469-.096.876-.286 1.221a1.945 1.945 0 01-.803.792c-.345.183-.752.275-1.221.275zm0-.781c.454 0 .806-.128 1.056-.385.249-.257.374-.631.374-1.122v-1.672c0-.491-.129-.865-.385-1.122-.25-.257-.598-.385-1.045-.385-.448 0-.8.128-1.056.385-.25.257-.374.631-.374 1.122v1.672c0 .491.124.865.374 1.122.256.257.608.385 1.056.385zm3.53.759v-.825h.22c.315 0 .546-.128.693-.385.146-.264.223-.7.23-1.309l.078-3.608h3.993v6.05h-.88v-5.258h-2.255l-.066 2.849c-.008.572-.077 1.041-.21 1.408-.124.367-.314.638-.571.814-.25.176-.576.264-.98.264h-.252zm7.292-.077v-6.05h.847v3.443c0 .205-.007.425-.022.66a16.537 16.537 0 01-.077 1.166l2.563-5.269h1.133v6.05h-.847v-3.443c0-.213.004-.433.011-.66l.044-.649c.022-.213.037-.389.044-.528l-2.574 5.28h-1.122zm10.031 0v-2.233c-.117.029-.3.059-.55.088-.25.022-.528.033-.836.033-.726.007-1.29-.172-1.694-.539-.396-.367-.594-.884-.594-1.551v-1.848h.87v1.848c0 .411.124.73.373.957.257.227.62.341 1.09.341.337 0 .623-.011.857-.033.235-.029.396-.055.484-.077v-3.036h.87v6.05h-.87zm5.235.11c-.469 0-.876-.092-1.22-.275a2.015 2.015 0 01-.804-.803 2.437 2.437 0 01-.286-1.199v-1.716c0-.462.096-.862.286-1.199a1.94 1.94 0 01.803-.792c.345-.191.752-.286 1.221-.286.47 0 .877.095 1.221.286.345.183.613.447.803.792.191.337.286.737.286 1.199v1.067h-3.762v.649c0 .491.125.873.374 1.144.257.264.616.396 1.078.396.389 0 .704-.077.946-.231a1.02 1.02 0 00.473-.671h.87a1.756 1.756 0 01-.738 1.199c-.41.293-.927.44-1.55.44zm1.452-3.509v-.484c0-.491-.124-.869-.374-1.133-.249-.271-.608-.407-1.078-.407-.462 0-.821.136-1.078.407-.249.264-.374.642-.374 1.133v.385h2.992l-.088.099zm5.081 3.509c-.469 0-.88-.092-1.231-.275a2.017 2.017 0 01-.826-.781c-.19-.345-.285-.752-.285-1.221v-1.716c0-.469.095-.873.285-1.21.198-.345.474-.609.825-.792.353-.183.763-.275 1.233-.275.689 0 1.243.187 1.66.561.419.374.635.884.65 1.529h-.87c-.014-.418-.15-.741-.406-.968-.25-.227-.595-.341-1.035-.341-.447 0-.802.132-1.066.396-.264.257-.397.623-.397 1.1v1.716c0 .469.133.836.397 1.1.263.264.62.396 1.066.396.44 0 .785-.114 1.035-.341.256-.235.392-.557.406-.968h.87c-.015.645-.231 1.155-.65 1.529-.417.374-.971.561-1.66.561zm6.072-.11v-5.269h-2.2v-.781h5.28v.781h-2.2v5.269h-.88zm4.74 0v-6.05h2.596c.601 0 1.074.143 1.419.429.344.279.517.667.517 1.166 0 .418-.143.755-.43 1.012-.278.249-.652.374-1.121.374v-.077c.506 0 .913.132 1.22.396.309.257.463.601.463 1.034 0 .535-.184.957-.55 1.265-.36.301-.858.451-1.496.451h-2.618zm.858-.77H86c.36 0 .645-.084.858-.253a.868.868 0 00.319-.704c0-.308-.107-.546-.32-.715-.212-.176-.498-.264-.857-.264h-1.76v1.936zm0-2.695h1.738c.323 0 .58-.081.77-.242.198-.161.297-.381.297-.66s-.1-.499-.297-.66c-.19-.169-.448-.253-.77-.253H84.24v1.815zm7.413 3.575c-.638 0-1.14-.161-1.507-.484-.367-.33-.55-.774-.55-1.331 0-.55.18-.983.539-1.298.36-.323.843-.484 1.452-.484h1.925v-.638c0-.403-.117-.715-.352-.935-.235-.22-.568-.33-1.001-.33-.381 0-.7.084-.957.253a.939.939 0 00-.429.682h-.88c.073-.521.315-.935.726-1.243.418-.308.939-.462 1.562-.462.675 0 1.21.183 1.606.55.396.359.594.847.594 1.463v4.147h-.858v-1.177h-.143l.165-.176c0 .447-.172.803-.517 1.067-.345.264-.803.396-1.375.396zm.209-.704c.484 0 .88-.121 1.188-.363.308-.242.462-.557.462-.946v-.913h-1.914c-.345 0-.62.095-.825.286-.205.191-.308.451-.308.781 0 .352.125.634.374.847.25.205.59.308 1.023.308zm11.086.594v-6.05h4.444v6.05h-.88v-5.258h-2.684v5.258h-.88zm6.512 1.98v-8.03h.869v1.067h.231l-.264.363c0-.477.154-.851.462-1.122.315-.279.729-.418 1.243-.418.608 0 1.092.202 1.452.605.366.396.55.939.55 1.628v1.793c0 .462-.085.862-.253 1.199-.169.33-.404.587-.704.77-.294.183-.642.275-1.045.275-.506 0-.917-.139-1.232-.418-.316-.279-.473-.653-.473-1.122l.231.363h-.209l.011 1.232v1.815h-.869zm2.266-2.629c.44 0 .781-.132 1.023-.396.249-.264.374-.638.374-1.122v-1.716c0-.491-.125-.865-.374-1.122-.242-.264-.583-.396-1.023-.396-.426 0-.767.136-1.023.407-.25.264-.374.634-.374 1.111v1.716c0 .477.124.851.374 1.122.256.264.597.396 1.023.396zm6.489.748c-.47 0-.877-.092-1.221-.275a1.933 1.933 0 01-.803-.792c-.191-.345-.286-.752-.286-1.221v-1.672c0-.477.095-.884.286-1.221.19-.345.458-.609.803-.792.344-.183.751-.275 1.221-.275.469 0 .876.092 1.221.275.344.183.612.447.803.792.19.337.286.741.286 1.21v1.683c0 .469-.096.876-.286 1.221a1.945 1.945 0 01-.803.792c-.345.183-.752.275-1.221.275zm0-.781c.454 0 .806-.128 1.056-.385.249-.257.374-.631.374-1.122v-1.672c0-.491-.129-.865-.385-1.122-.25-.257-.598-.385-1.045-.385-.448 0-.8.128-1.056.385-.25.257-.374.631-.374 1.122v1.672c0 .491.124.865.374 1.122.256.257.608.385 1.056.385zm3.596 2.222v-2.288h.495c.125-.139.253-.389.385-.748.139-.367.213-.81.22-1.331l.066-3.223h3.85v5.302h.781v2.288h-.781v-1.54h-4.235v1.54h-.781zm1.43-2.288h2.717v-4.521h-2.156l-.044 2.453c-.007.55-.07 1.001-.187 1.353-.117.352-.227.59-.33.715zm5.026.825v-.825h.22c.315 0 .546-.128.693-.385.147-.264.224-.7.231-1.309l.077-3.608h3.993v6.05h-.88v-5.258h-2.255l-.066 2.849c-.007.572-.077 1.041-.209 1.408-.125.367-.315.638-.572.814-.249.176-.576.264-.979.264h-.253zm9.514.033c-.469 0-.876-.092-1.221-.275a2.02 2.02 0 01-.803-.803 2.444 2.444 0 01-.286-1.199v-1.716c0-.462.096-.862.286-1.199.191-.345.459-.609.803-.792.345-.191.752-.286 1.221-.286.47 0 .877.095 1.221.286.345.183.613.447.803.792.191.337.286.737.286 1.199v1.067h-3.762v.649c0 .491.125.873.374 1.144.257.264.616.396 1.078.396.389 0 .704-.077.946-.231.25-.154.407-.378.473-.671h.869c-.08.506-.326.906-.737 1.199-.41.293-.927.44-1.551.44zm1.452-3.509v-.484c0-.491-.124-.869-.374-1.133-.249-.271-.608-.407-1.078-.407-.462 0-.821.136-1.078.407-.249.264-.374.642-.374 1.133v.385h2.992l-.088.099zm2.848 3.399v-6.05h.88v2.574h2.684v-2.574h.88v6.05h-.88v-2.684h-2.684v2.684h-.88zm6.523 0v-6.05h.88v2.574h2.684v-2.574h.88v6.05h-.88v-2.684h-2.684v2.684h-.88zm6.203 0v-6.05h.825v2.244h.539c.645 0 1.155.172 1.529.517.381.337.572.799.572 1.386 0 .587-.187 1.052-.561 1.397-.374.337-.888.506-1.54.506h-1.364zm.825-.715h.539c.41 0 .729-.103.957-.308.234-.213.352-.506.352-.88s-.118-.664-.352-.869c-.228-.213-.547-.319-.957-.319h-.539v2.376zm3.432.715v-6.05h.825v6.05h-.825zm2.133 0l2.145-3.113-2.013-2.937h1.023l1.276 1.958c.044.073.088.158.132.253l.121.209c.029-.051.066-.121.11-.209a5.93 5.93 0 01.143-.253l1.276-1.958h1.012l-2.013 2.948 2.134 3.102h-1.023l-1.364-2.068a2.054 2.054 0 01-.154-.264 1.796 1.796 0 00-.121-.242 4.71 4.71 0 01-.297.506l-1.375 2.068h-1.012zm-129.993 26v-6.05h4.444v6.05h-.88v-5.258h-2.684v5.258h-.88zm8.745.099c-.47 0-.877-.092-1.221-.275a1.94 1.94 0 01-.803-.792c-.191-.345-.286-.752-.286-1.221v-1.672c0-.477.095-.884.286-1.221a1.94 1.94 0 01.803-.792c.344-.183.751-.275 1.22-.275.47 0 .877.092 1.222.275.344.183.612.447.803.792.19.337.286.741.286 1.21v1.683c0 .469-.096.876-.286 1.221a1.945 1.945 0 01-.803.792c-.345.183-.752.275-1.221.275zm0-.781c.454 0 .806-.128 1.056-.385.249-.257.374-.631.374-1.122v-1.672c0-.491-.129-.865-.385-1.122-.25-.257-.598-.385-1.045-.385-.448 0-.8.128-1.056.385-.25.257-.374.631-.374 1.122v1.672c0 .491.124.865.374 1.122.256.257.608.385 1.056.385zm3.596 2.222v-2.288h.495c.124-.139.253-.389.385-.748.14-.367.213-.81.22-1.331l.066-3.223h3.85v5.302h.78v2.288h-.78v-1.54h-4.235v1.54h-.781zm1.43-2.288h2.717v-4.521h-2.156l-.044 2.453c-.008.55-.07 1.001-.187 1.353-.117.352-.227.59-.33.715zm5.796.748v-6.05h4.444v6.05h-.88v-5.258h-2.684v5.258h-.88zm6.522 0v-6.05h.847v3.443c0 .205-.007.425-.022.66a16.934 16.934 0 01-.077 1.166l2.563-5.269h1.133v6.05h-.847v-3.443c0-.213.004-.433.011-.66l.044-.649c.022-.213.037-.389.044-.528l-2.574 5.28h-1.122zm8.755.11c-.469 0-.88-.092-1.232-.275a2.017 2.017 0 01-.825-.781c-.19-.345-.286-.752-.286-1.221v-1.716c0-.469.096-.873.286-1.21.198-.345.473-.609.825-.792.352-.183.763-.275 1.232-.275.69 0 1.243.187 1.661.561.418.374.635.884.65 1.529h-.87c-.014-.418-.15-.741-.407-.968-.249-.227-.594-.341-1.034-.341-.447 0-.803.132-1.067.396-.264.257-.396.623-.396 1.1v1.716c0 .469.132.836.396 1.1.264.264.62.396 1.067.396.44 0 .785-.114 1.034-.341.257-.235.393-.557.407-.968h.87c-.015.645-.232 1.155-.65 1.529-.418.374-.971.561-1.66.561zm6.511-.011c-.469 0-.876-.092-1.22-.275a1.94 1.94 0 01-.803-.792c-.191-.345-.287-.752-.287-1.221v-1.672c0-.477.096-.884.287-1.221a1.94 1.94 0 01.802-.792c.345-.183.752-.275 1.222-.275.469 0 .876.092 1.22.275.345.183.613.447.803.792.191.337.287.741.287 1.21v1.683c0 .469-.096.876-.287 1.221a1.94 1.94 0 01-.802.792c-.345.183-.752.275-1.222.275zm0-.781c.455 0 .807-.128 1.056-.385.25-.257.375-.631.375-1.122v-1.672c0-.491-.129-.865-.385-1.122-.25-.257-.598-.385-1.046-.385-.447 0-.799.128-1.055.385-.25.257-.375.631-.375 1.122v1.672c0 .491.125.865.374 1.122.257.257.61.385 1.056.385zm4.334.682v-6.05h.88v2.541h1.144l1.793-2.541h1l-2.034 2.882 2.079 3.168h-1.023l-1.815-2.75h-1.144v2.75h-.88zm8.71.11c-.27 0-.487-.077-.648-.231-.154-.161-.231-.374-.231-.638 0-.279.077-.499.23-.66.162-.161.379-.242.65-.242s.484.081.638.242c.161.161.242.381.242.66 0 .264-.08.477-.242.638-.154.154-.367.231-.638.231zm-62.038 24.118c-.366 0-.667-.114-.902-.341-.227-.235-.34-.535-.34-.902s.113-.664.34-.891c.235-.235.536-.352.902-.352.367 0 .664.117.891.352.235.227.352.524.352.891s-.117.667-.352.902c-.227.227-.524.341-.89.341zm7.64 2.772v-8.03h2.21c.72 0 1.284.187 1.694.561.411.367.616.873.616 1.518 0 .367-.077.689-.23.968-.147.271-.36.484-.639.638-.27.147-.6.216-.99.209v-.154c.419 0 .778.084 1.078.253.308.161.547.4.715.715.17.308.254.675.254 1.1 0 .455-.096.851-.286 1.188-.191.33-.463.587-.815.77-.351.176-.773.264-1.264.264h-2.344zm.846-.792h1.42c.49 0 .876-.128 1.155-.385.285-.264.428-.62.428-1.067 0-.462-.143-.832-.428-1.111-.28-.286-.664-.429-1.155-.429h-1.42v2.992zm0-3.751h1.364c.448 0 .8-.121 1.056-.363.257-.242.386-.572.386-.99 0-.418-.129-.744-.386-.979-.249-.242-.6-.363-1.055-.363h-1.364v2.695zm7.898 4.642c-.47 0-.877-.092-1.221-.275a1.94 1.94 0 01-.803-.792c-.191-.345-.286-.752-.286-1.221v-1.672c0-.477.095-.884.286-1.221a1.94 1.94 0 01.803-.792c.344-.183.751-.275 1.22-.275.47 0 .877.092 1.222.275.344.183.612.447.803.792.19.337.286.741.286 1.21v1.683c0 .469-.096.876-.286 1.221a1.945 1.945 0 01-.803.792c-.345.183-.752.275-1.221.275zm0-.781c.454 0 .806-.128 1.056-.385.249-.257.374-.631.374-1.122v-1.672c0-.491-.129-.865-.385-1.122-.25-.257-.598-.385-1.045-.385-.448 0-.8.128-1.056.385-.25.257-.374.631-.374 1.122v1.672c0 .491.124.865.374 1.122.256.257.608.385 1.056.385zm6.236.77c-.63 0-1.14-.136-1.53-.407a1.637 1.637 0 01-.703-1.1h.913c.058.213.201.389.429.528.235.132.532.198.89.198h.54c.374 0 .667-.092.88-.275a.908.908 0 00.33-.715.975.975 0 00-.308-.748c-.206-.191-.499-.286-.88-.286h-1.353v-.759h1.33c.346 0 .61-.088.793-.264a.885.885 0 00.286-.682.906.906 0 00-.132-.495.833.833 0 00-.385-.319 1.331 1.331 0 00-.583-.121h-.572c-.33 0-.602.073-.814.22a.87.87 0 00-.396.539h-.913c.073-.455.297-.825.67-1.111.382-.286.866-.429 1.453-.429h.572c.41 0 .766.07 1.067.209.3.139.532.334.693.583.168.249.253.543.253.88 0 .367-.114.671-.341.913-.22.235-.532.367-.935.396v.044c.484.029.84.172 1.067.429.227.249.34.594.34 1.034 0 .521-.193.942-.582 1.265-.382.315-.895.473-1.54.473h-.54zm4.388-.088v-6.05h1.21l.88 2.464c.073.213.143.429.209.649.066.22.114.392.143.517.037-.125.084-.297.143-.517.066-.22.136-.44.209-.66l.847-2.453h1.199v6.05h-.847v-1.452a50 50 0 01.011-1.012l.022-1.078c.007-.359.018-.697.033-1.012.015-.323.026-.605.033-.847l-1.199 3.586h-.924l-1.199-3.564c.015.293.026.664.033 1.111l.022 1.397c.015.491.022.964.022 1.419v1.452h-.847zm8.942.099c-.47 0-.876-.092-1.22-.275a1.939 1.939 0 01-.804-.792c-.19-.345-.286-.752-.286-1.221v-1.672c0-.477.096-.884.286-1.221a1.94 1.94 0 01.803-.792c.345-.183.752-.275 1.221-.275.47 0 .877.092 1.221.275.345.183.613.447.803.792.19.337.286.741.286 1.21v1.683c0 .469-.095.876-.286 1.221a1.94 1.94 0 01-.803.792c-.344.183-.752.275-1.22.275zm0-.781c.455 0 .807-.128 1.056-.385.25-.257.374-.631.374-1.122v-1.672c0-.491-.128-.865-.385-1.122-.25-.257-.598-.385-1.045-.385-.447 0-.8.128-1.056.385-.25.257-.374.631-.374 1.122v1.672c0 .491.125.865.374 1.122.257.257.609.385 1.056.385zm3.475.682l1.32-3.102-1.232-2.948h.847l1.09 2.673h.648v-2.673h.748v2.673h.627l1.122-2.673h.836l-1.232 2.915 1.32 3.135h-.88l-1.133-2.783h-.66v2.783h-.748v-2.783h-.66l-1.155 2.783h-.858zm7.348 0v-6.05h.88v2.574H73.9v-2.574h.88v6.05h-.88v-2.684h-2.683v2.684h-.88zm8.744.099c-.47 0-.877-.092-1.221-.275a1.94 1.94 0 01-.803-.792c-.191-.345-.286-.752-.286-1.221v-1.672c0-.477.095-.884.286-1.221a1.94 1.94 0 01.803-.792c.344-.183.751-.275 1.22-.275.47 0 .877.092 1.222.275.344.183.612.447.803.792.19.337.286.741.286 1.21v1.683c0 .469-.096.876-.286 1.221a1.94 1.94 0 01-.803.792c-.345.183-.752.275-1.221.275zm0-.781c.454 0 .806-.128 1.056-.385.249-.257.374-.631.374-1.122v-1.672c0-.491-.129-.865-.385-1.122-.25-.257-.598-.385-1.045-.385-.448 0-.8.128-1.056.385-.25.257-.374.631-.374 1.122v1.672c0 .491.124.865.374 1.122.256.257.608.385 1.056.385zm6.533.792c-.47 0-.88-.092-1.232-.275a2.017 2.017 0 01-.825-.781c-.19-.345-.286-.752-.286-1.221v-1.716c0-.469.095-.873.286-1.21.198-.345.473-.609.825-.792.352-.183.763-.275 1.232-.275.69 0 1.243.187 1.66.561.419.374.635.884.65 1.529h-.87c-.014-.418-.15-.741-.406-.968-.25-.227-.594-.341-1.034-.341-.447 0-.803.132-1.067.396-.264.257-.396.623-.396 1.1v1.716c0 .469.132.836.396 1.1.264.264.62.396 1.067.396.44 0 .785-.114 1.034-.341.257-.235.392-.557.407-.968h.869c-.015.645-.231 1.155-.65 1.529-.417.374-.97.561-1.66.561zm6.071-.11v-5.269h-2.2v-.781h5.28v.781h-2.2v5.269h-.88zm4.795 0v-6.05h.87v2.222h1.814c.675 0 1.207.172 1.595.517.396.337.594.803.594 1.397 0 .587-.198 1.052-.594 1.397-.388.345-.92.517-1.595.517h-2.684zm.87-.792h1.814c.418 0 .737-.095.957-.286.22-.198.33-.477.33-.836s-.11-.634-.33-.825c-.22-.198-.539-.297-.957-.297H97.35v2.244zm12.12.792v-6.05h2.596c.601 0 1.074.143 1.419.429.344.279.517.667.517 1.166 0 .418-.143.755-.429 1.012-.279.249-.653.374-1.122.374v-.077c.506 0 .913.132 1.221.396.308.257.462.601.462 1.034 0 .535-.184.957-.55 1.265-.36.301-.858.451-1.496.451h-2.618zm.858-.77h1.76c.359 0 .645-.084.858-.253a.87.87 0 00.319-.704c0-.308-.107-.546-.319-.715-.213-.176-.499-.264-.858-.264h-1.76v1.936zm0-2.695h1.738c.322 0 .579-.081.77-.242.198-.161.297-.381.297-.66s-.099-.499-.297-.66c-.191-.169-.448-.253-.77-.253h-1.738v1.815zm5.664 3.465v-6.05h.88v2.574h2.684v-2.574h.88v6.05h-.88v-2.684h-2.684v2.684h-.88zm8.744.11c-.469 0-.876-.092-1.221-.275a2.015 2.015 0 01-.803-.803c-.191-.345-.286-.744-.286-1.199v-1.716c0-.462.095-.862.286-1.199a1.94 1.94 0 01.803-.792c.345-.191.752-.286 1.221-.286.469 0 .876.095 1.221.286.345.183.612.447.803.792.191.337.286.737.286 1.199v1.067h-3.762v.649c0 .491.125.873.374 1.144.257.264.616.396 1.078.396.389 0 .704-.077.946-.231.249-.154.407-.378.473-.671h.869a1.755 1.755 0 01-.737 1.199c-.411.293-.928.44-1.551.44zm1.452-3.509v-.484c0-.491-.125-.869-.374-1.133-.249-.271-.609-.407-1.078-.407-.462 0-.821.136-1.078.407-.249.264-.374.642-.374 1.133v.385h2.992l-.088.099zm2.144 4.939v-2.288h.495c.125-.139.253-.389.385-.748.139-.367.213-.81.22-1.331l.066-3.223h3.85v5.302h.781v2.288h-.781v-1.54h-4.235v1.54h-.781zm1.43-2.288h2.717v-4.521h-2.156l-.044 2.453c-.007.55-.07 1.001-.187 1.353-.117.352-.227.59-.33.715zm5.785 2.728v-8.03h.869v1.067h.231l-.264.363c0-.477.154-.851.462-1.122.316-.279.73-.418 1.243-.418.609 0 1.093.202 1.452.605.367.396.55.939.55 1.628v1.793c0 .462-.084.862-.253 1.199-.168.33-.403.587-.704.77-.293.183-.641.275-1.045.275-.506 0-.916-.139-1.232-.418-.315-.279-.473-.653-.473-1.122l.231.363h-.209l.011 1.232v1.815h-.869zm2.266-2.629c.44 0 .781-.132 1.023-.396.25-.264.374-.638.374-1.122v-1.716c0-.491-.124-.865-.374-1.122-.242-.264-.583-.396-1.023-.396-.425 0-.766.136-1.023.407-.249.264-.374.634-.374 1.111v1.716c0 .477.125.851.374 1.122.257.264.598.396 1.023.396zm6.489.759c-.469 0-.876-.092-1.221-.275a2.02 2.02 0 01-.803-.803 2.444 2.444 0 01-.286-1.199v-1.716c0-.462.096-.862.286-1.199.191-.345.459-.609.803-.792.345-.191.752-.286 1.221-.286.47 0 .877.095 1.221.286.345.183.613.447.803.792.191.337.286.737.286 1.199v1.067h-3.762v.649c0 .491.125.873.374 1.144.257.264.616.396 1.078.396.389 0 .704-.077.946-.231.25-.154.407-.378.473-.671h.869c-.08.506-.326.906-.737 1.199-.41.293-.927.44-1.551.44zm1.452-3.509v-.484c0-.491-.124-.869-.374-1.133-.249-.271-.608-.407-1.078-.407-.462 0-.821.136-1.078.407-.249.264-.374.642-.374 1.133v.385h2.992l-.088.099zm2.849 3.399v-6.05h.88v2.574h2.684v-2.574h.88v6.05h-.88v-2.684h-2.684v2.684h-.88zm6.522 0v-6.05h.847v3.443c0 .205-.008.425-.022.66a19.788 19.788 0 01-.077 1.166l2.563-5.269h1.133v6.05h-.847v-3.443c0-.213.003-.433.011-.66.014-.227.029-.444.044-.649.022-.213.036-.389.044-.528l-2.574 5.28h-1.122zm6.181 0l1.54-2.343c-.469-.103-.832-.312-1.089-.627s-.385-.711-.385-1.188c0-.587.194-1.049.583-1.386.396-.337.931-.506 1.606-.506h2.53v6.05h-.88v-2.266h-1.463l-1.43 2.266h-1.012zm2.255-3.047h1.65v-2.222h-1.65c-.396 0-.711.099-.946.297-.235.198-.352.469-.352.814s.117.616.352.814c.235.198.55.297.946.297zM31.204 239.001v-6.05h4.444v6.05h-.88v-5.258h-2.684v5.258h-.88zm6.512 1.98v-8.03h.869v1.067h.23l-.263.363c0-.477.154-.851.462-1.122.315-.279.73-.418 1.243-.418.608 0 1.092.202 1.452.605.366.396.55.939.55 1.628v1.793c0 .462-.085.862-.253 1.199-.169.33-.404.587-.704.77-.294.183-.642.275-1.045.275-.506 0-.917-.139-1.232-.418-.316-.279-.473-.653-.473-1.122l.23.363h-.208l.01 1.232v1.815h-.868zm2.266-2.629c.44 0 .78-.132 1.023-.396.249-.264.374-.638.374-1.122v-1.716c0-.491-.125-.865-.374-1.122-.242-.264-.583-.396-1.023-.396-.426 0-.767.136-1.023.407-.25.264-.374.634-.374 1.111v1.716c0 .477.124.851.374 1.122.256.264.597.396 1.023.396zm6.489.748c-.47 0-.877-.092-1.221-.275a1.94 1.94 0 01-.803-.792c-.19-.345-.286-.752-.286-1.221v-1.672c0-.477.095-.884.286-1.221a1.94 1.94 0 01.803-.792c.344-.183.752-.275 1.22-.275.47 0 .877.092 1.222.275.344.183.612.447.803.792.19.337.286.741.286 1.21v1.683c0 .469-.096.876-.286 1.221a1.94 1.94 0 01-.803.792c-.345.183-.752.275-1.221.275zm0-.781c.455 0 .807-.128 1.056-.385.25-.257.374-.631.374-1.122v-1.672c0-.491-.129-.865-.385-1.122-.25-.257-.598-.385-1.045-.385-.447 0-.8.128-1.056.385-.25.257-.374.631-.374 1.122v1.672c0 .491.125.865.374 1.122.257.257.608.385 1.056.385zm4.696.682v-6.05h4.29v.792h-3.421v5.258h-.869zm6.115 1.98v-8.03h.87v1.067h.23l-.264.363c0-.477.154-.851.462-1.122.316-.279.73-.418 1.243-.418.609 0 1.093.202 1.452.605.367.396.55.939.55 1.628v1.793c0 .462-.084.862-.253 1.199-.169.33-.403.587-.704.77-.293.183-.642.275-1.045.275-.506 0-.916-.139-1.232-.418-.315-.279-.473-.653-.473-1.122l.231.363h-.209l.011 1.232v1.815h-.869zm2.266-2.629c.44 0 .781-.132 1.023-.396.25-.264.374-.638.374-1.122v-1.716c0-.491-.124-.865-.374-1.122-.242-.264-.583-.396-1.023-.396-.425 0-.766.136-1.023.407-.25.264-.374.634-.374 1.111v1.716c0 .477.125.851.374 1.122.257.264.598.396 1.023.396zm6.016.759c-.638 0-1.14-.161-1.507-.484-.366-.33-.55-.774-.55-1.331 0-.55.18-.983.54-1.298.359-.323.843-.484 1.451-.484h1.925v-.638c0-.403-.117-.715-.352-.935-.234-.22-.568-.33-1-.33-.382 0-.701.084-.958.253a.939.939 0 00-.429.682h-.88c.074-.521.316-.935.726-1.243.418-.308.939-.462 1.562-.462.675 0 1.21.183 1.606.55.396.359.594.847.594 1.463v4.147h-.858v-1.177h-.143l.165-.176c0 .447-.172.803-.517 1.067-.344.264-.803.396-1.375.396zm.21-.704c.483 0 .88-.121 1.187-.363.308-.242.462-.557.462-.946v-.913H65.51c-.344 0-.62.095-.825.286-.205.191-.308.451-.308.781 0 .352.125.634.374.847.25.205.59.308 1.023.308zm4.365.594v-6.05h1.21l.88 2.464c.074.213.144.429.21.649.066.22.113.392.143.517.036-.125.084-.297.143-.517.066-.22.135-.44.209-.66l.847-2.453h1.198v6.05h-.847v-1.452a50 50 0 01.011-1.012l.022-1.078c.008-.359.019-.697.033-1.012.015-.323.026-.605.034-.847l-1.2 3.586h-.923l-1.2-3.564c.015.293.026.664.033 1.111l.023 1.397c.014.491.022.964.022 1.419v1.452h-.847zm6.523 0v-6.05h1.21l.88 2.464c.073.213.143.429.209.649.066.22.113.392.143.517.036-.125.084-.297.143-.517.066-.22.135-.44.209-.66l.847-2.453h1.199v6.05h-.847v-1.452a50 50 0 01.01-1.012l.023-1.078c.007-.359.018-.697.033-1.012.014-.323.025-.605.033-.847l-1.2 3.586h-.923l-1.2-3.564c.015.293.026.664.034 1.111l.022 1.397c.014.491.022.964.022 1.419v1.452h-.847zm12.472.077v-.825h.22c.315 0 .546-.128.693-.385.147-.264.224-.7.231-1.309l.077-3.608h3.993v6.05h-.88v-5.258h-2.255l-.066 2.849c-.007.572-.077 1.041-.209 1.408-.125.367-.315.638-.572.814-.25.176-.576.264-.979.264h-.253zm9.514.022c-.47 0-.876-.092-1.22-.275a1.94 1.94 0 01-.804-.792c-.19-.345-.286-.752-.286-1.221v-1.672c0-.477.096-.884.286-1.221a1.94 1.94 0 01.803-.792c.345-.183.752-.275 1.221-.275.47 0 .877.092 1.221.275.345.183.613.447.803.792.191.337.286.741.286 1.21v1.683c0 .469-.095.876-.286 1.221-.19.345-.458.609-.803.792-.344.183-.751.275-1.22.275zm0-.781c.455 0 .807-.128 1.056-.385.25-.257.374-.631.374-1.122v-1.672c0-.491-.128-.865-.385-1.122-.25-.257-.597-.385-1.045-.385-.447 0-.8.128-1.056.385-.25.257-.374.631-.374 1.122v1.672c0 .491.125.865.374 1.122.257.257.609.385 1.056.385zm3.959.682l1.54-2.343c-.469-.103-.832-.312-1.089-.627-.256-.315-.385-.711-.385-1.188 0-.587.195-1.049.583-1.386.396-.337.932-.506 1.606-.506h2.53v6.05h-.88v-2.266h-1.463l-1.43 2.266h-1.012zm2.255-3.047h1.65v-2.222h-1.65c-.396 0-.711.099-.946.297-.234.198-.352.469-.352.814s.118.616.352.814c.235.198.55.297.946.297zm3.839 3.124v-.825h.22c.315 0 .546-.128.693-.385.146-.264.223-.7.231-1.309l.077-3.608h3.993v6.05h-.88v-5.258h-2.255l-.066 2.849c-.008.572-.077 1.041-.209 1.408-.125.367-.316.638-.572.814-.25.176-.576.264-.979.264h-.253zm7.347-.077v-6.05h.869v2.222h1.815c.674 0 1.206.172 1.595.517.396.337.594.803.594 1.397 0 .587-.198 1.052-.594 1.397-.389.345-.921.517-1.595.517h-2.684zm.869-.792h1.815c.418 0 .737-.095.957-.286.22-.198.33-.477.33-.836s-.11-.634-.33-.825c-.22-.198-.539-.297-.957-.297h-1.815v2.244zm5.598.792v-6.05h.88v2.574h2.684v-2.574h.88v6.05h-.88v-2.684h-2.684v2.684h-.88zm8.744.099c-.469 0-.876-.092-1.221-.275a1.94 1.94 0 01-.803-.792c-.191-.345-.286-.752-.286-1.221v-1.672c0-.477.095-.884.286-1.221a1.94 1.94 0 01.803-.792c.345-.183.752-.275 1.221-.275.469 0 .876.092 1.221.275.345.183.612.447.803.792.191.337.286.741.286 1.21v1.683c0 .469-.095.876-.286 1.221a1.94 1.94 0 01-.803.792c-.345.183-.752.275-1.221.275zm0-.781c.455 0 .807-.128 1.056-.385s.374-.631.374-1.122v-1.672c0-.491-.128-.865-.385-1.122-.249-.257-.598-.385-1.045-.385-.447 0-.799.128-1.056.385-.249.257-.374.631-.374 1.122v1.672c0 .491.125.865.374 1.122.257.257.609.385 1.056.385zm6.533.792c-.469 0-.88-.092-1.232-.275a2.017 2.017 0 01-.825-.781c-.19-.345-.286-.752-.286-1.221v-1.716c0-.469.096-.873.286-1.21.198-.345.473-.609.825-.792.352-.183.763-.275 1.232-.275.69 0 1.243.187 1.661.561.418.374.635.884.649 1.529h-.869c-.014-.418-.15-.741-.407-.968-.249-.227-.594-.341-1.034-.341-.447 0-.803.132-1.067.396-.264.257-.396.623-.396 1.1v1.716c0 .469.132.836.396 1.1.264.264.62.396 1.067.396.44 0 .785-.114 1.034-.341.257-.235.393-.557.407-.968h.869c-.014.645-.231 1.155-.649 1.529-.418.374-.971.561-1.661.561zm6.071-.11v-5.269h-2.2v-.781h5.28v.781h-2.2v5.269h-.88zm4.741 0v-6.05h.847v3.443c0 .205-.008.425-.022.66a19.788 19.788 0 01-.077 1.166l2.563-5.269h1.133v6.05h-.847v-3.443c0-.213.003-.433.011-.66.014-.227.029-.444.044-.649.022-.213.036-.389.044-.528l-2.574 5.28h-1.122zm13.044 0v-6.05h.847v3.443c0 .205-.007.425-.022.66a15.449 15.449 0 01-.077 1.166l2.563-5.269h1.133v6.05h-.847v-3.443c0-.213.004-.433.011-.66.015-.227.029-.444.044-.649.022-.213.037-.389.044-.528l-2.574 5.28h-1.122zm-128.21 26.11c-.47 0-.88-.092-1.233-.275a2.017 2.017 0 01-.824-.781c-.191-.345-.287-.752-.287-1.221v-1.716c0-.469.096-.873.287-1.21.197-.345.473-.609.825-.792.351-.183.762-.275 1.231-.275.69 0 1.244.187 1.662.561.418.374.634.884.649 1.529h-.87c-.014-.418-.15-.741-.407-.968-.249-.227-.593-.341-1.033-.341-.448 0-.803.132-1.068.396-.264.257-.395.623-.395 1.1v1.716c0 .469.131.836.395 1.1.265.264.62.396 1.068.396.44 0 .784-.114 1.033-.341.257-.235.393-.557.408-.968h.869c-.015.645-.231 1.155-.65 1.529-.417.374-.971.561-1.66.561zm4.289-.11v-6.05h4.444v6.05h-.88v-5.258h-2.684v5.258h-.88zm8.744.11c-.47 0-.877-.092-1.221-.275a2.015 2.015 0 01-.803-.803 2.437 2.437 0 01-.286-1.199v-1.716c0-.462.095-.862.286-1.199a1.94 1.94 0 01.803-.792c.344-.191.752-.286 1.22-.286.47 0 .877.095 1.222.286.344.183.612.447.803.792.19.337.286.737.286 1.199v1.067h-3.762v.649c0 .491.125.873.374 1.144.257.264.616.396 1.078.396.389 0 .704-.077.946-.231a1.02 1.02 0 00.473-.671h.869c-.08.506-.327.906-.737 1.199-.41.293-.928.44-1.551.44zm1.452-3.509v-.484c0-.491-.125-.869-.374-1.133-.25-.271-.609-.407-1.078-.407-.462 0-.821.136-1.078.407-.25.264-.374.642-.374 1.133v.385h2.992l-.088.099zm7.149 4.939v-1.54h-4.301v-6.05h.88v5.269h2.508v-5.269h.869v5.269h.836v2.321h-.792zm2.221-1.54v-6.05h.847v3.443c0 .205-.007.425-.022.66a16.934 16.934 0 01-.077 1.166l2.563-5.269h1.133v6.05h-.847v-3.443c0-.213.004-.433.011-.66l.044-.649c.022-.213.037-.389.044-.528l-2.574 5.28h-1.122zm8.271.11c-.638 0-1.14-.161-1.507-.484-.366-.33-.55-.774-.55-1.331 0-.55.18-.983.54-1.298.359-.323.843-.484 1.451-.484h1.925v-.638c0-.403-.117-.715-.352-.935-.234-.22-.568-.33-1-.33-.382 0-.701.084-.958.253a.939.939 0 00-.429.682h-.88c.074-.521.316-.935.726-1.243.418-.308.939-.462 1.562-.462.675 0 1.21.183 1.606.55.396.359.594.847.594 1.463v4.147h-.858v-1.177h-.143l.165-.176c0 .447-.172.803-.517 1.067-.344.264-.803.396-1.375.396zm.21-.704c.483 0 .88-.121 1.187-.363.308-.242.462-.557.462-.946v-.913H65.51c-.344 0-.62.095-.825.286-.205.191-.308.451-.308.781 0 .352.125.634.374.847.25.205.59.308 1.023.308zm3.793.671v-.825h.22c.316 0 .547-.128.694-.385.146-.264.223-.7.23-1.309l.078-3.608h3.992v6.05h-.88v-5.258h-2.254l-.067 2.849c-.007.572-.076 1.041-.209 1.408-.124.367-.315.638-.572.814-.249.176-.575.264-.979.264h-.252zm7.348-.077v-6.05h.869v2.222h1.815c.674 0 1.206.172 1.595.517.396.337.594.803.594 1.397 0 .587-.198 1.052-.594 1.397-.389.345-.92.517-1.595.517h-2.684zm.869-.792h1.815c.418 0 .737-.095.957-.286.22-.198.33-.477.33-.836s-.11-.634-.33-.825c-.22-.198-.54-.297-.957-.297h-1.815v2.244zm5.598.792v-6.05h.88v2.574h2.684v-2.574h.88v6.05h-.88v-2.684h-2.684v2.684h-.88zm6.203 0v-6.05h.825v2.244h.539c.645 0 1.155.172 1.529.517.381.337.572.799.572 1.386 0 .587-.187 1.052-.561 1.397-.374.337-.887.506-1.54.506h-1.364zm.825-.715h.539c.41 0 .73-.103.957-.308.235-.213.352-.506.352-.88s-.117-.664-.352-.869c-.227-.213-.546-.319-.957-.319h-.539v2.376zm3.432.715v-6.05h.825v6.05h-.825zm2.133 0l2.145-3.113-2.013-2.937h1.023l1.276 1.958c.044.073.088.158.132.253l.121.209a7.267 7.267 0 01.253-.462l1.276-1.958h1.012l-2.013 2.948 2.134 3.102h-1.023l-1.364-2.068a2.054 2.054 0 01-.154-.264 1.833 1.833 0 00-.12-.242 5.234 5.234 0 01-.298.506l-1.375 2.068h-1.012zm13.496 0v-6.05h4.444v6.05h-.88v-5.258h-2.684v5.258h-.88zm6.511 1.98v-8.03h.869v1.067h.231l-.264.363c0-.477.154-.851.462-1.122.315-.279.729-.418 1.243-.418.608 0 1.092.202 1.452.605.366.396.55.939.55 1.628v1.793c0 .462-.085.862-.253 1.199-.169.33-.404.587-.704.77-.294.183-.642.275-1.045.275-.506 0-.917-.139-1.232-.418-.316-.279-.473-.653-.473-1.122l.231.363h-.209l.011 1.232v1.815h-.869zm2.266-2.629c.44 0 .781-.132 1.023-.396.249-.264.374-.638.374-1.122v-1.716c0-.491-.125-.865-.374-1.122-.242-.264-.583-.396-1.023-.396-.426 0-.767.136-1.023.407-.25.264-.374.634-.374 1.111v1.716c0 .477.124.851.374 1.122.256.264.597.396 1.023.396zm6.489.759c-.469 0-.876-.092-1.221-.275a2.015 2.015 0 01-.803-.803c-.191-.345-.286-.744-.286-1.199v-1.716c0-.462.095-.862.286-1.199a1.94 1.94 0 01.803-.792c.345-.191.752-.286 1.221-.286.469 0 .876.095 1.221.286.345.183.612.447.803.792.191.337.286.737.286 1.199v1.067h-3.762v.649c0 .491.125.873.374 1.144.257.264.616.396 1.078.396.389 0 .704-.077.946-.231.249-.154.407-.378.473-.671h.869a1.755 1.755 0 01-.737 1.199c-.411.293-.928.44-1.551.44zm1.452-3.509v-.484c0-.491-.125-.869-.374-1.133-.249-.271-.609-.407-1.078-.407-.462 0-.821.136-1.078.407-.249.264-.374.642-.374 1.133v.385h2.992l-.088.099zm2.144 4.939v-2.288h.495c.125-.139.253-.389.385-.748.139-.367.213-.81.22-1.331l.066-3.223h3.85v5.302h.781v2.288h-.781v-1.54h-4.235v1.54h-.781zm1.43-2.288h2.717v-4.521h-2.156l-.044 2.453c-.007.55-.07 1.001-.187 1.353-.117.352-.227.59-.33.715zm5.026.825v-.825h.22c.316 0 .547-.128.693-.385.147-.264.224-.7.231-1.309l.077-3.608h3.993v6.05h-.88v-5.258h-2.255l-.066 2.849c-.007.572-.077 1.041-.209 1.408-.124.367-.315.638-.572.814-.249.176-.575.264-.979.264h-.253zm9.514.022c-.469 0-.876-.092-1.221-.275a1.945 1.945 0 01-.803-.792c-.19-.345-.286-.752-.286-1.221v-1.672c0-.477.096-.884.286-1.221.191-.345.459-.609.803-.792.345-.183.752-.275 1.221-.275.47 0 .877.092 1.221.275.345.183.613.447.803.792.191.337.286.741.286 1.21v1.683c0 .469-.095.876-.286 1.221-.19.345-.458.609-.803.792-.344.183-.751.275-1.221.275zm0-.781c.455 0 .807-.128 1.056-.385.25-.257.374-.631.374-1.122v-1.672c0-.491-.128-.865-.385-1.122-.249-.257-.597-.385-1.045-.385-.447 0-.799.128-1.056.385-.249.257-.374.631-.374 1.122v1.672c0 .491.125.865.374 1.122.257.257.609.385 1.056.385zm3.476.682l1.32-3.102-1.232-2.948h.847l1.089 2.673h.649v-2.673h.748v2.673h.627l1.122-2.673h.836l-1.232 2.915 1.32 3.135h-.88l-1.133-2.783h-.66v2.783h-.748v-2.783h-.66l-1.155 2.783h-.858zm9.569.11c-.47 0-.877-.092-1.221-.275a2.008 2.008 0 01-.803-.803c-.191-.345-.286-.744-.286-1.199v-1.716c0-.462.095-.862.286-1.199.19-.345.458-.609.803-.792.344-.191.751-.286 1.221-.286.469 0 .876.095 1.221.286.344.183.612.447.803.792.19.337.286.737.286 1.199v1.067h-3.762v.649c0 .491.124.873.374 1.144.256.264.616.396 1.078.396.388 0 .704-.077.946-.231.249-.154.407-.378.473-.671h.869a1.759 1.759 0 01-.737 1.199c-.411.293-.928.44-1.551.44zm1.452-3.509v-.484c0-.491-.125-.869-.374-1.133-.25-.271-.609-.407-1.078-.407-.462 0-.822.136-1.078.407-.25.264-.374.642-.374 1.133v.385h2.992l-.088.099zm2.848 3.399v-6.05h.88v2.574h2.684v-2.574h.88v6.05h-.88v-2.684h-2.684v2.684h-.88zm6.522 0v-6.05h.847v3.443c0 .205-.007.425-.022.66a15.449 15.449 0 01-.077 1.166l2.563-5.269h1.133v6.05h-.847v-3.443c0-.213.004-.433.011-.66.015-.227.029-.444.044-.649.022-.213.037-.389.044-.528l-2.574 5.28h-1.122zm6.522 0v-6.05h.847v3.443c0 .205-.007.425-.022.66a15.449 15.449 0 01-.077 1.166l2.563-5.269h1.133v6.05h-.847v-3.443c0-.213.004-.433.011-.66l.044-.649c.022-.213.037-.389.044-.528l-2.574 5.28h-1.122zm2.266-7.051c-.52 0-.938-.143-1.254-.429-.308-.293-.462-.678-.462-1.155h.704c0 .301.088.543.264.726.184.183.429.275.737.275.316 0 .565-.092.748-.275.184-.183.275-.425.275-.726h.704c0 .477-.157.862-.473 1.155-.308.286-.722.429-1.243.429zM30.5 293.541v-2.288h.495c.125-.139.253-.389.386-.748.139-.367.212-.81.22-1.331l.066-3.223h3.85v5.302h.78v2.288h-.78v-1.54H31.28v1.54h-.78zm1.43-2.288h2.718v-4.521H32.49l-.044 2.453c-.007.55-.07 1.001-.187 1.353-.117.352-.227.59-.33.715zm5.027.825v-.825h.22c.315 0 .546-.128.693-.385.146-.264.223-.7.23-1.309l.078-3.608h3.993v6.05h-.88v-5.258h-2.255l-.066 2.849c-.008.572-.077 1.041-.21 1.408-.124.367-.315.638-.571.814-.25.176-.576.264-.98.264h-.252zm6.95-.077l1.54-2.343c-.469-.103-.832-.312-1.088-.627-.257-.315-.385-.711-.385-1.188 0-.587.194-1.049.583-1.386.396-.337.931-.506 1.606-.506h2.53v6.05h-.88v-2.266H46.35l-1.43 2.266h-1.012zm2.256-3.047h1.65v-2.222h-1.65c-.396 0-.711.099-.946.297-.235.198-.352.469-.352.814s.117.616.352.814c.235.198.55.297.946.297zm11.13 3.047v-6.05h4.444v6.05h-.88v-5.258h-2.684v5.258h-.88zm8.744.099c-.469 0-.876-.092-1.22-.275a1.94 1.94 0 01-.804-.792c-.19-.345-.286-.752-.286-1.221v-1.672c0-.477.096-.884.286-1.221a1.94 1.94 0 01.803-.792c.345-.183.752-.275 1.221-.275.47 0 .877.092 1.221.275.345.183.613.447.803.792.191.337.286.741.286 1.21v1.683c0 .469-.095.876-.286 1.221-.19.345-.458.609-.803.792-.344.183-.751.275-1.22.275zm0-.781c.455 0 .807-.128 1.056-.385.25-.257.374-.631.374-1.122v-1.672c0-.491-.128-.865-.385-1.122-.249-.257-.597-.385-1.045-.385-.447 0-.799.128-1.056.385-.249.257-.374.631-.374 1.122v1.672c0 .491.125.865.374 1.122.257.257.609.385 1.056.385zm6.533.792c-.469 0-.88-.092-1.231-.275a2.017 2.017 0 01-.826-.781c-.19-.345-.285-.752-.285-1.221v-1.716c0-.469.095-.873.285-1.21.198-.345.474-.609.825-.792.353-.183.763-.275 1.233-.275.689 0 1.243.187 1.66.561.419.374.635.884.65 1.529h-.87c-.014-.418-.15-.741-.406-.968-.25-.227-.595-.341-1.035-.341-.447 0-.802.132-1.066.396-.264.257-.397.623-.397 1.1v1.716c0 .469.133.836.397 1.1.263.264.62.396 1.066.396.44 0 .785-.114 1.035-.341.256-.235.392-.557.406-.968h.87c-.015.645-.231 1.155-.65 1.529-.417.374-.971.561-1.66.561zm6.072-.11v-5.269h-2.2v-.781h5.28v.781h-2.2v5.269h-.88zm6.962.099c-.47 0-.876-.092-1.221-.275a1.939 1.939 0 01-.803-.792c-.19-.345-.286-.752-.286-1.221v-1.672c0-.477.095-.884.286-1.221.19-.345.458-.609.803-.792.345-.183.752-.275 1.22-.275.47 0 .877.092 1.222.275.344.183.612.447.803.792.19.337.286.741.286 1.21v1.683c0 .469-.096.876-.286 1.221a1.94 1.94 0 01-.803.792c-.345.183-.752.275-1.221.275zm0-.781c.454 0 .806-.128 1.056-.385s.374-.631.374-1.122v-1.672c0-.491-.129-.865-.385-1.122-.25-.257-.598-.385-1.045-.385-.448 0-.8.128-1.056.385-.25.257-.374.631-.374 1.122v1.672c0 .491.124.865.374 1.122.257.257.608.385 1.056.385zm3.959.682l1.54-2.343c-.47-.103-.832-.312-1.089-.627s-.385-.711-.385-1.188c0-.587.194-1.049.583-1.386.396-.337.931-.506 1.606-.506h2.53v6.05h-.88v-2.266h-1.463l-1.43 2.266h-1.012zm2.255-3.047h1.65v-2.222h-1.65c-.396 0-.711.099-.946.297-.235.198-.352.469-.352.814s.117.616.352.814c.235.198.55.297.946.297zm4.608 3.047v-6.05h.88v2.574h2.684v-2.574h.88v6.05h-.88v-2.684h-2.684v2.684h-.88zm6.522 0v-6.05h.88v2.574h2.684v-2.574h.88v6.05h-.88v-2.684h-2.684v2.684h-.88zm6.204 0v-6.05h.825v2.244h.539c.645 0 1.155.172 1.529.517.381.337.572.799.572 1.386 0 .587-.187 1.052-.561 1.397-.374.337-.888.506-1.54.506h-1.364zm.825-.715h.539c.41 0 .729-.103.957-.308.234-.213.352-.506.352-.88s-.118-.664-.352-.869c-.228-.213-.547-.319-.957-.319h-.539v2.376zm3.432.715v-6.05h.825v6.05h-.825zm2.133 0l2.145-3.113-2.013-2.937h1.023l1.276 1.958c.044.073.088.158.132.253l.121.209c.029-.051.066-.121.11-.209a5.93 5.93 0 01.143-.253l1.276-1.958h1.012l-2.013 2.948 2.134 3.102h-1.023l-1.364-2.068a1.944 1.944 0 01-.154-.264 1.924 1.924 0 00-.121-.242 7.07 7.07 0 01-.132.242 3.528 3.528 0 01-.165.264l-1.375 2.068h-1.012zm13.528 0v-6.05h.88v2.541h1.144l1.793-2.541h1.001l-2.035 2.882 2.079 3.168h-1.023l-1.815-2.75h-1.144v2.75h-.88zm5.719.077v-.825h.22c.316 0 .547-.128.693-.385.147-.264.224-.7.231-1.309l.077-3.608h3.993v6.05h-.88v-5.258h-2.255l-.066 2.849c-.007.572-.077 1.041-.209 1.408-.124.367-.315.638-.572.814-.249.176-.575.264-.979.264h-.253zm7.292-.077v-6.05h.847v3.443c0 .205-.007.425-.022.66a15.449 15.449 0 01-.077 1.166l2.563-5.269h1.133v6.05h-.847v-3.443c0-.213.004-.433.011-.66l.044-.649c.022-.213.037-.389.044-.528l-2.574 5.28h-1.122zm8.745.11c-.47 0-.877-.092-1.221-.275a2.008 2.008 0 01-.803-.803c-.191-.345-.286-.744-.286-1.199v-1.716c0-.462.095-.862.286-1.199.19-.345.458-.609.803-.792.344-.191.751-.286 1.221-.286.469 0 .876.095 1.221.286.344.183.612.447.803.792.19.337.286.737.286 1.199v1.067h-3.762v.649c0 .491.124.873.374 1.144.256.264.616.396 1.078.396.388 0 .704-.077.946-.231.249-.154.407-.378.473-.671h.869a1.759 1.759 0 01-.737 1.199c-.411.293-.928.44-1.551.44zm1.452-3.509v-.484c0-.491-.125-.869-.374-1.133-.25-.271-.609-.407-1.078-.407-.462 0-.822.136-1.078.407-.25.264-.374.642-.374 1.133v.385h2.992l-.088.099zm2.848 3.399v-6.05h.88v2.574h2.684v-2.574h.88v6.05h-.88v-2.684h-2.684v2.684h-.88zm8.304 0v-5.269h-2.2v-.781h5.28v.781h-2.2v5.269h-.88zm6.962.099c-.469 0-.876-.092-1.221-.275a1.94 1.94 0 01-.803-.792c-.191-.345-.286-.752-.286-1.221v-1.672c0-.477.095-.884.286-1.221a1.94 1.94 0 01.803-.792c.345-.183.752-.275 1.221-.275.469 0 .876.092 1.221.275.345.183.612.447.803.792.191.337.286.741.286 1.21v1.683c0 .469-.095.876-.286 1.221a1.94 1.94 0 01-.803.792c-.345.183-.752.275-1.221.275zm0-.781c.455 0 .807-.128 1.056-.385s.374-.631.374-1.122v-1.672c0-.491-.128-.865-.385-1.122-.249-.257-.598-.385-1.045-.385-.447 0-.799.128-1.056.385-.249.257-.374.631-.374 1.122v1.672c0 .491.125.865.374 1.122.257.257.609.385 1.056.385zm4.3.682v-6.05h2.596c.602 0 1.075.143 1.419.429.345.279.517.667.517 1.166 0 .418-.143.755-.429 1.012-.278.249-.652.374-1.122.374v-.077c.506 0 .913.132 1.221.396.308.257.462.601.462 1.034 0 .535-.183.957-.55 1.265-.359.301-.858.451-1.496.451h-2.618zm.858-.77h1.76c.36 0 .646-.084.858-.253a.867.867 0 00.319-.704c0-.308-.106-.546-.319-.715-.212-.176-.498-.264-.858-.264h-1.76v1.936zm0-2.695h1.738c.323 0 .58-.081.77-.242.198-.161.297-.381.297-.66s-.099-.499-.297-.66c-.19-.169-.447-.253-.77-.253h-1.738v1.815zm7.886 3.575c-.271 0-.487-.077-.649-.231-.154-.161-.231-.374-.231-.638 0-.279.077-.499.231-.66.162-.161.378-.242.649-.242.272 0 .484.081.638.242.162.161.242.381.242.66 0 .264-.08.477-.242.638-.154.154-.366.231-.638.231z" fill="#fff"/></svg>