<svg width="81" height="47" fill="none" xmlns="http://www.w3.org/2000/svg"><path d="M60.373 20.418v.736c0 5.487-.03 10.974.025 16.46.014 1.275-.489 2.105-1.49 2.782-1.76 1.184-3.686 2-5.672 2.68-3.661 1.257-7.427 1.994-11.288 2.297-6.268.49-12.39-.223-18.362-2.18-1.996-.657-3.937-1.45-5.713-2.598a11.467 11.467 0 01-.713-.51c-.677-.512-1.03-1.127-1.022-2.052.045-5.64.02-11.28.02-16.924v-.68c.625.202 1.163.373 1.697.551 6.513 2.206 13.026 4.408 19.535 6.621.6.203 1.166.199 1.763 0 6.82-2.314 13.643-4.621 20.467-6.932.209-.07.422-.136.764-.247l-.01-.004z" fill="#223B38" stroke="#CCEC60" stroke-width="1.745" stroke-miterlimit="10"/><path d="M3.89 12.363A31803.38 31803.38 0 0037.69.974a1.666 1.666 0 011.14 0A37142.77 37142.77 0 0072.104 12.18c.193.066.381.14.706.258-.894.307-1.665.58-2.44.841l-15.14 5.12c-5.488 1.858-10.97 3.728-16.465 5.568-.324.108-.757.087-1.085-.025-9.965-3.368-19.926-6.753-29.887-10.136-1.299-.44-2.6-.872-3.899-1.312v-.136l-.003.004z" fill="#223B38" stroke="#CCEC60" stroke-width="1.745" stroke-miterlimit="10"/><path d="M71.762 46.647c-.178 0-.356.007-.53 0-.21-.014-.423-.02-.622-.094a.539.539 0 01-.335-.349c-.087-.269-.181-.534-.255-.806-.031-.115-.097-.143-.192-.175a12.387 12.387 0 01-.785-.286c-.206-.087-.405-.195-.604-.296a.08.08 0 00-.087 0c-.188.097-.377.195-.565.29-.126.062-.248.128-.377.174a.51.51 0 01-.457-.073c-.392-.262-.723-.59-1.04-.936a6.163 6.163 0 01-.447-.551c-.13-.178-.13-.38-.035-.576.132-.27.275-.534.415-.8.025-.041.025-.08 0-.125a6.312 6.312 0 01-.45-.974 11.044 11.044 0 01-.157-.478c-.014-.045-.035-.07-.08-.084-.3-.094-.604-.185-.905-.293a.516.516 0 01-.349-.416c-.094-.488-.097-.98-.073-1.472.007-.175.032-.35.053-.524.038-.293.185-.475.474-.558.272-.08.541-.171.813-.255.035-.01.053-.032.063-.067a6.592 6.592 0 01.608-1.469c.02-.038.024-.07 0-.108l-.398-.764a.6.6 0 01.045-.681c.304-.422.67-.785 1.061-1.127.108-.095.224-.182.342-.27.213-.16.44-.163.674-.041.258.136.516.272.775.401.02.01.062.01.083 0a6.854 6.854 0 011.04-.474c.14-.05.283-.095.426-.133.056-.014.08-.042.098-.094.049-.164.101-.325.15-.485l.115-.363c.077-.238.248-.367.489-.405.499-.084 1.002-.08 1.508-.056.17.007.338.031.506.06.265.045.415.216.492.47.07.238.147.472.223.709.004.014.014.031.014.045.007.084.063.109.136.13.168.048.335.104.5.164.296.108.586.237.862.398.087.048.146.045.23 0 .258-.14.52-.276.785-.405a.52.52 0 01.548.052c.15.105.297.22.437.342.31.276.603.569.862.893.09.116.192.227.24.374.046.15.05.3-.024.443-.133.262-.265.52-.401.775-.039.07-.035.119 0 .192.136.269.265.541.383.82.084.2.14.412.207.618a.09.09 0 00.059.063c.202.063.408.129.61.195.13.042.262.08.381.136.15.074.24.206.272.37.095.496.105.995.074 1.498-.01.167-.028.335-.05.502-.02.175-.08.335-.23.444a.799.799 0 01-.195.1c-.29.099-.583.186-.873.284a.095.095 0 00-.049.048 6.22 6.22 0 01-.565 1.39c-.066.115-.06.198 0 .307.133.233.258.474.373.719a.548.548 0 01-.038.569c-.24.36-.54.67-.855.963-.164.153-.339.293-.513.436-.143.119-.304.196-.5.175-.11-.014-.209-.067-.306-.116-.238-.122-.475-.247-.716-.366a.106.106 0 00-.08 0c-.192.09-.377.192-.569.283a5.6 5.6 0 01-.914.328.11.11 0 00-.084.08c-.091.297-.178.593-.28.883a.542.542 0 01-.44.37c-.338.07-.683.07-1.025.063l.024-.01zm4.98-7.888a4.983 4.983 0 00-4.949-5.008 4.989 4.989 0 00-5.026 4.97 5.002 5.002 0 004.985 5.012c2.733.004 4.99-2.22 4.994-4.974h-.003z" fill="#223B38" stroke="#CCEC60" stroke-width=".698" stroke-miterlimit="10"/><path d="M71.755 15.773v12.236-12.236z" fill="#223B38"/><path d="M71.755 15.773v12.236" stroke="#CCEC60" stroke-width="1.047" stroke-miterlimit="10"/></svg>