<svg width="46" height="74" fill="none" xmlns="http://www.w3.org/2000/svg"><path d="M9.867 40.28c.204.154.413.129.647.064 2.14-.578 4.286-1.14 6.427-1.732.403-.11.662-.02.946.268 1.548 1.574 3.126 3.122 4.67 4.7.293.299.437.269.716-.01 1.538-1.563 3.107-3.102 4.635-4.67.338-.348.642-.383 1.08-.258 2.12.587 4.252 1.144 6.377 1.722.324.09.498.03.588-.344.259-1.07.562-2.13.841-3.196.035-.13.065-.248.19-.323.462 2.225.935 4.45 1.393 6.68 1.772 8.643 3.54 17.285 5.307 25.928.02.094.04.189.055.288.045.254-.035.344-.284.22a34.108 34.108 0 00-.742-.369c-2.549-1.264-5.098-2.524-7.636-3.803-.334-.17-.503-.1-.727.164a1985.67 1985.67 0 01-5.95 6.97c-.099.114-.174.338-.348.283-.164-.055-.124-.284-.154-.433-1.28-6.238-2.554-12.476-3.833-18.713-.065-.314-.145-.623-.314-.936-.229 1.1-.458 2.2-.682 3.3-1.115 5.462-2.235 10.918-3.355 16.379-.03.134 0 .343-.145.388-.179.055-.264-.154-.358-.269-1.942-2.27-3.888-4.54-5.81-6.83-.309-.368-.528-.473-.995-.229-2.664 1.354-5.352 2.669-8.03 3.998-.14.07-.3.239-.444.14-.179-.125-.03-.33 0-.494l4.466-21.82 1.389-6.825c.015-.08.055-.15.08-.224v-.015z" fill="#CCEC60" stroke="#223B38" stroke-width=".996" stroke-miterlimit="10"/><path d="M22.836 37.775c-8.055.055-14.78-6.61-14.8-14.81C8.015 14.77 14.655 8.05 22.89 8.04c8.235-.015 14.95 6.73 14.895 14.98-.05 8.154-6.78 14.89-14.95 14.755z" fill="#223B38"/><path d="M22.875 45.317c-.93 0-1.862-.035-2.788-.199-.731-.13-1.204-.537-1.423-1.25-.23-.741-.473-1.473-.697-2.215-.06-.199-.15-.308-.364-.368a17.939 17.939 0 01-3.967-1.643c-.17-.095-.3-.085-.458 0-.692.368-1.4.717-2.091 1.085-.657.349-1.29.319-1.887-.124a18.954 18.954 0 01-3.948-3.933c-.478-.637-.513-1.3-.13-1.996.37-.672.703-1.36 1.066-2.031.1-.18.085-.314-.015-.493a17.382 17.382 0 01-1.623-3.903c-.064-.234-.184-.339-.408-.408-.742-.224-1.479-.468-2.215-.697-.687-.214-1.1-.668-1.21-1.38-.289-1.856-.279-3.713-.025-5.57.11-.817.563-1.32 1.36-1.543.726-.204 1.433-.458 2.155-.677.179-.055.274-.14.323-.329a17.845 17.845 0 011.658-3.993c.095-.169.085-.298 0-.463-.373-.701-.737-1.408-1.105-2.115-.334-.637-.304-1.255.12-1.832A18.67 18.67 0 019.15 5.267c.637-.473 1.3-.508 2.001-.13.672.364 1.36.698 2.037 1.056.164.09.293.095.462 0a18.328 18.328 0 013.968-1.643.455.455 0 00.354-.343c.229-.762.478-1.519.717-2.275.214-.672.657-1.086 1.354-1.2a17.958 17.958 0 015.725 0c.721.114 1.18.542 1.394 1.24.229.751.483 1.493.712 2.245.054.179.134.273.323.328 1.394.393 2.728.946 3.998 1.653.154.085.273.095.433.01.692-.368 1.394-.722 2.09-1.085.668-.354 1.305-.329 1.917.12a18.395 18.395 0 014.018 4.037c.408.557.428 1.165.11 1.777-.37.717-.737 1.434-1.12 2.145a.432.432 0 000 .463 17.829 17.829 0 011.652 3.993c.05.19.154.269.328.324.762.234 1.519.483 2.276.721.687.215 1.1.672 1.21 1.384a18.673 18.673 0 010 5.696c-.11.706-.528 1.165-1.215 1.378-.772.24-1.534.493-2.305.732-.16.05-.24.125-.284.29a18.38 18.38 0 01-1.683 4.051c-.084.15-.07.26.01.404.379.712.747 1.428 1.115 2.145.329.637.304 1.255-.12 1.832a18.52 18.52 0 01-4.002 4.008c-.597.438-1.23.478-1.886.124-.692-.368-1.4-.717-2.091-1.085-.165-.085-.29-.1-.458 0a17.867 17.867 0 01-3.998 1.653c-.19.05-.269.154-.323.328-.235.762-.483 1.519-.722 2.275-.22.702-.697 1.096-1.414 1.22-.941.164-1.892.204-2.848.2l-.01-.02zm.045-8.303c7.761 0 14.084-6.318 14.089-14.07 0-7.81-6.288-14.117-14.094-14.127C15.14 8.807 8.817 15.119 8.812 22.9c-.005 7.796 6.307 14.114 14.108 14.114z" fill="#CCEC60" stroke="#223B38" stroke-width=".996" stroke-miterlimit="10"/><path d="M22.89 34.709c-.478 0-.956-.02-1.424-.1-.373-.065-.617-.274-.731-.637-.12-.379-.244-.757-.359-1.135-.03-.105-.08-.16-.184-.19a9.066 9.066 0 01-2.031-.84c-.09-.05-.155-.04-.234 0-.354.188-.717.368-1.07.557-.339.179-.663.164-.966-.065a9.678 9.678 0 01-2.021-2.011c-.244-.324-.264-.662-.07-1.026.189-.343.358-.697.542-1.04.05-.095.045-.16-.005-.25a8.804 8.804 0 01-.83-2c-.036-.12-.095-.175-.21-.21-.378-.114-.757-.238-1.135-.358-.354-.11-.563-.343-.617-.707a9.781 9.781 0 01-.015-2.852c.055-.418.289-.677.697-.792.373-.104.736-.234 1.105-.348.09-.03.14-.07.164-.17a8.98 8.98 0 01.851-2.046c.05-.084.045-.154 0-.239a179.77 179.77 0 01-.567-1.085c-.17-.323-.154-.642.06-.94a9.56 9.56 0 012.02-2.037c.33-.244.668-.259 1.026-.065.344.185.697.359 1.04.543.086.045.15.05.235 0a9.3 9.3 0 012.03-.841c.1-.03.15-.075.18-.175.12-.388.244-.776.369-1.165.11-.343.333-.557.692-.612a9.195 9.195 0 012.932 0c.368.06.602.279.712.637.12.384.244.767.363 1.15.03.09.07.14.164.17a9.433 9.433 0 012.046.846c.08.045.14.045.22 0 .353-.19.716-.368 1.07-.558.343-.179.667-.169.98.06a9.41 9.41 0 012.056 2.066c.21.284.22.598.055.911-.189.368-.378.732-.572 1.1a.22.22 0 000 .234 9.19 9.19 0 01.846 2.046c.025.095.08.14.17.165.388.12.776.249 1.164.368.349.11.563.344.618.707.149.97.149 1.947 0 2.917-.055.364-.27.598-.623.707-.393.125-.786.254-1.18.373-.08.025-.124.065-.144.15a9.468 9.468 0 01-.861 2.076c-.045.075-.035.134 0 .204.194.363.383.732.572 1.1.17.324.155.642-.06.941a9.517 9.517 0 01-2.046 2.051c-.303.224-.627.244-.965.065-.354-.19-.717-.369-1.07-.558-.085-.045-.15-.05-.235 0a9.19 9.19 0 01-2.046.847c-.094.024-.139.08-.164.169-.12.388-.249.776-.368 1.165a.852.852 0 01-.722.622 7.92 7.92 0 01-1.459.1l.005.005zm.025-4.252c3.973 0 7.214-3.23 7.214-7.204a7.22 7.22 0 00-7.214-7.233 7.224 7.224 0 00-7.223 7.214 7.22 7.22 0 007.223 7.223z" fill="#CCEC60" stroke="#223B38" stroke-width=".996" stroke-miterlimit="10"/></svg>