<svg width="65" height="55" fill="none" xmlns="http://www.w3.org/2000/svg"><path d="M32.489 53.358H3.634a3.57 3.57 0 01-.903-.09c-.884-.232-1.481-.763-1.783-1.63a2.66 2.66 0 01-.153-.89C.798 39.69.8 28.631.8 17.574V3.424c0-.598.153-1.132.509-1.605.464-.617 1.087-.942 1.847-1.011.102-.01.204 0 .305 0 8.791 0 17.582 0 26.37-.007.489 0 .937.096 1.354.34.674.395 1.122.95 1.262 1.743.06.333.095.664.092 1.004 0 .334.032.36.388.366.136.003.27 0 .407 0h28.197c.356 0 .702.019 1.042.152.776.309 1.272.865 1.517 1.65.086.277.108.56.108.85v7.204c0 12.157 0 24.311.003 36.469 0 .32 0 .639-.102.95-.25.789-.737 1.355-1.52 1.644a3.284 3.284 0 01-1.188.19c-9.637-.002-19.27-.002-28.906-.002l.003-.003zm.327-45.464H4.213c-.604 0-.582-.019-.582.582v6.594c0 .696-.054.645.667.645h25.765c.118 0 .239-.006.356 0 .178.01.27-.067.33-.238.22-.64.45-1.275.681-1.908.105-.286.194-.582.344-.842.49-.846 1.25-1.247 2.212-1.279.204-.006.407 0 .608 0H61.27c.168 0 .337 0 .505-.006.118-.006.178-.082.188-.197.006-.083.006-.168.006-.254V8.35c0-.085 0-.168-.006-.253-.01-.115-.07-.191-.19-.198-.185-.006-.373-.01-.557-.01H32.813l.003.004zm-7.468 26.458V21.778c0-.169 0-.337-.01-.506-.002-.092-.06-.155-.158-.165-.118-.01-.235-.01-.353-.01h-4.105c-.546 0-.534-.025-.534.519v25.5c0 .118 0 .24.007.357.006.092.063.159.159.165.133.01.27.013.404.013h3.954c.7 0 .636.047.636-.62V34.352zm9.846 3.882h-.006v-8.772c0-.152 0-.305-.006-.454-.007-.093-.06-.16-.16-.166a4.382 4.382 0 00-.352-.012h-4.105c-.581 0-.55-.013-.55.556v17.743c0 .118 0 .239.007.356a.168.168 0 00.159.166c.102.01.203.012.302.012h4.206c.5 0 .5-.003.505-.502v-8.927zm4.674 4.721h-.006v4.108c0 .136 0 .27.006.406.006.093.06.16.156.169.117.01.235.013.353.013h4.107c.553 0 .531.006.528-.525 0-2.788-.003-5.58-.006-8.368v-.254c-.01-.203-.048-.245-.232-.254-.067-.004-.137-.004-.204-.004h-4.26c-.442 0-.445.007-.445.452v4.26l.003-.003z" fill="#223B38" stroke="#CCEC60" stroke-width="1.59" stroke-miterlimit="10"/><path d="M25.348 34.352v12.676c0 .667.064.62-.636.62h-3.955c-.133 0-.27 0-.404-.013-.095-.006-.152-.07-.159-.165-.01-.118-.006-.236-.006-.356V21.613c0-.544-.013-.519.534-.519h4.105c.117 0 .235 0 .352.01.096.006.153.07.16.165.009.169.009.337.009.506v12.577zm9.846 3.882v8.924c-.003.5-.003.502-.505.502h-4.206c-.102 0-.204 0-.303-.012-.095-.01-.152-.074-.159-.166-.009-.117-.006-.235-.006-.356V29.383c0-.57-.032-.557.55-.557h4.105c.117 0 .235.003.352.013.1.01.153.073.16.165.009.153.006.306.006.455v8.772h.006v.003zm4.674 4.721v-4.26c0-.445.003-.449.445-.452h4.26c.067 0 .137 0 .204.003.184.013.222.051.232.255.003.086 0 .168 0 .254 0 2.788.003 5.58.006 8.368 0 .53.022.525-.528.525H40.38c-.118 0-.236 0-.353-.013-.096-.01-.153-.073-.156-.169-.01-.133-.006-.27-.006-.407v-4.107h.006l-.003.003zm11.042-8.148c-.232 0-.468.012-.7 0-.273-.016-.553-.029-.817-.124a.707.707 0 01-.438-.458c-.118-.353-.239-.703-.334-1.062-.042-.15-.128-.188-.255-.229a16.586 16.586 0 01-1.03-.378c-.27-.115-.53-.258-.795-.391a.107.107 0 00-.114 0c-.248.127-.493.257-.744.381-.162.083-.324.172-.496.229a.677.677 0 01-.6-.095c-.516-.344-.955-.776-1.368-1.23a7.141 7.141 0 01-.585-.729c-.168-.235-.172-.502-.044-.76.174-.352.362-.702.546-1.052.029-.057.035-.105 0-.165a7.963 7.963 0 01-.59-1.285c-.074-.206-.14-.42-.204-.632-.02-.06-.045-.093-.105-.109-.398-.123-.795-.244-1.19-.384a.688.688 0 01-.46-.547c-.128-.642-.128-1.288-.099-1.936.01-.23.041-.461.07-.69.048-.385.245-.626.626-.738.36-.105.713-.225 1.069-.337.047-.015.07-.041.082-.089a8.58 8.58 0 01.801-1.936.13.13 0 00.004-.143c-.175-.334-.347-.674-.525-1.008-.165-.311-.15-.607.06-.896.401-.557.884-1.037 1.4-1.485.142-.124.295-.242.448-.353.282-.21.575-.22.883-.054.337.181.678.356 1.021.531a.134.134 0 00.111-.003 8.717 8.717 0 011.37-.623c.185-.067.373-.121.56-.175.07-.02.105-.057.127-.127.064-.213.13-.426.2-.64.051-.158.1-.317.153-.476.105-.312.328-.48.645-.534.659-.112 1.32-.105 1.981-.073.223.009.445.04.668.079.35.06.55.286.645.62.092.311.194.623.293.931.006.02.019.042.019.06.01.112.083.14.178.17.222.063.442.136.658.216a7 7 0 011.132.524c.114.067.194.06.305 0 .34-.184.684-.366 1.036-.53a.684.684 0 01.719.07c.197.139.391.288.572.447.407.363.795.748 1.135 1.177.121.152.255.299.315.49a.762.762 0 01-.032.584c-.172.344-.35.684-.53 1.02-.048.09-.048.157 0 .255.177.356.349.712.502 1.081.108.264.184.54.273.81a.116.116 0 00.08.084c.267.082.537.168.8.254.17.057.344.105.503.181.2.096.318.27.36.49.126.651.14 1.31.095 1.97-.016.22-.039.443-.064.662-.025.232-.105.442-.302.585a.99.99 0 01-.258.134c-.381.127-.766.244-1.147.368a.12.12 0 00-.064.067 8.173 8.173 0 01-.744 1.828c-.086.153-.08.261 0 .407.175.309.337.623.49.944a.727.727 0 01-.051.748c-.318.473-.712.88-1.126 1.268-.216.2-.445.388-.674.576-.187.155-.4.257-.654.228-.15-.015-.277-.085-.404-.152a87.522 87.522 0 00-.941-.483.15.15 0 00-.105 0c-.251.12-.496.254-.747.372a7.963 7.963 0 01-1.202.432c-.064.016-.092.054-.108.108-.121.388-.235.779-.366 1.164-.092.27-.295.429-.578.486-.446.09-.9.092-1.352.086l.007-.006zm6.552-10.38a6.562 6.562 0 00-6.514-6.595c-3.672-.025-6.6 2.941-6.616 6.54-.016 3.605 2.922 6.59 6.559 6.594 3.599.006 6.568-2.919 6.571-6.543v.003z" fill="#223B38" stroke="#CCEC60" stroke-width="1.59" stroke-miterlimit="10"/></svg>