<svg width="68" height="68" fill="none" xmlns="http://www.w3.org/2000/svg"><path d="M34.03 66.89c-.738 0-1.476.037-2.215-.008-.87-.054-1.753-.095-2.578-.396-.685-.252-1.16-.755-1.39-1.453-.368-1.114-.756-2.223-1.061-3.358-.128-.475-.405-.594-.805-.726-1.097-.367-2.195-.751-3.26-1.197-.858-.359-1.679-.813-2.508-1.238-.132-.066-.235-.066-.359 0-.78.405-1.56.817-2.348 1.21-.515.26-1.027.544-1.572.726-.66.222-1.316.082-1.897-.306-1.63-1.085-3.012-2.455-4.324-3.89A24.19 24.19 0 017.86 53.95c-.532-.743-.545-1.588-.14-2.401.557-1.118 1.147-2.22 1.728-3.33.095-.181.108-.334 0-.52a25.383 25.383 0 01-1.864-4.056 43.308 43.308 0 01-.648-1.996c-.058-.186-.145-.29-.33-.347-1.255-.396-2.517-.776-3.755-1.213-.8-.285-1.291-.891-1.456-1.733-.4-2.026-.405-4.076-.31-6.123.033-.73.128-1.456.219-2.178.152-1.218.771-1.98 1.98-2.332 1.135-.33 2.253-.713 3.38-1.064.148-.046.218-.136.255-.277a27.165 27.165 0 012.534-6.118c.086-.153.103-.29.012-.458-.557-1.06-1.098-2.125-1.655-3.186-.52-.99-.466-1.922.194-2.838 1.271-1.758 2.794-3.276 4.423-4.696.454-.396.933-.759 1.416-1.118.89-.664 1.823-.689 2.797-.169 1.069.574 2.145 1.126 3.226 1.68.095.049.26.04.351-.013 1.387-.78 2.83-1.44 4.332-1.972a29.17 29.17 0 011.766-.553c.227-.062.335-.182.4-.396.203-.677.417-1.35.628-2.026.157-.503.317-1.007.483-1.506.325-.986 1.035-1.518 2.038-1.688 2.08-.354 4.175-.326 6.267-.226a17.39 17.39 0 012.108.251c1.11.19 1.733.904 2.043 1.96.289.99.619 1.968.928 2.95.02.066.054.128.062.194.025.355.26.446.565.532a30.28 30.28 0 012.08.685 21.86 21.86 0 013.581 1.659c.36.206.615.185.961 0a69.932 69.932 0 013.272-1.684c.78-.37 1.572-.276 2.274.223.627.442 1.237.912 1.811 1.42 1.291 1.147 2.513 2.364 3.594 3.717.384.479.804.945.994 1.547.194.623.198 1.255-.103 1.845a158.908 158.908 0 01-1.675 3.226c-.153.285-.153.495 0 .8a52.323 52.323 0 011.592 3.417c.347.83.582 1.708.863 2.566.045.136.111.215.251.256.846.264 1.696.528 2.538.809.536.177 1.085.33 1.588.573.632.305 1.007.858 1.14 1.543.4 2.063.44 4.147.296 6.235a39.184 39.184 0 01-.198 2.087c-.086.735-.33 1.403-.957 1.849a3.056 3.056 0 01-.817.416c-1.205.4-2.422.776-3.63 1.172a.338.338 0 00-.199.207c-.561 2.017-1.324 3.956-2.352 5.78-.272.487-.247.825.009 1.283a47.58 47.58 0 011.547 2.987c.375.797.346 1.614-.157 2.365-1.003 1.501-2.253 2.789-3.56 4.014-.681.636-1.412 1.226-2.13 1.82-.598.495-1.262.817-2.07.722-.471-.054-.872-.273-1.28-.483-.99-.516-1.976-1.027-2.97-1.53a.418.418 0 00-.33.008c-.793.383-1.569.804-2.365 1.171a24.69 24.69 0 01-3.8 1.37c-.198.054-.289.165-.342.343-.384 1.225-.743 2.463-1.16 3.68-.293.854-.936 1.362-1.828 1.539-1.41.285-2.842.297-4.274.268zm20.73-32.822c.058-11.429-9.143-20.762-20.601-20.844-11.61-.083-20.87 9.296-20.923 20.683-.054 11.404 9.234 20.836 20.737 20.853 11.38.016 20.77-9.234 20.783-20.692h.004z" fill="#223B38" stroke="#CCEC60" stroke-width="2.063" stroke-miterlimit="10"/><path d="M19.63 28.51c.01-.759.867-1.15 1.375-.841.507.31 1.015.619 1.518.94 1.518.97 3.037 1.944 4.555 2.917 1.056.677 2.117 1.354 3.177 2.03.945.607 1.894 1.21 2.835 1.824.194.124.326.136.52-.012 2.07-1.58 4.154-3.144 6.23-4.716 1.592-1.21 3.18-2.426 4.778-3.631 1.832-1.386 3.672-2.769 5.504-4.155.978-.738 1.943-1.485 2.92-2.224 1.792-1.357 3.59-2.71 5.381-4.064 1.358-1.027 2.715-2.059 4.072-3.086.702-.532 1.556-.231 1.647.598a.984.984 0 01-.194.636c-.396.515-.834.998-1.259 1.49-.705.82-1.41 1.637-2.12 2.458l-2.179 2.513c-1.023 1.18-2.046 2.356-3.065 3.536-.978 1.13-1.956 2.26-2.938 3.391-1.523 1.754-3.05 3.507-4.572 5.26-1.46 1.688-2.917 3.38-4.381 5.063-.954 1.098-1.91 2.187-2.864 3.285-.961 1.105-1.914 2.215-2.871 3.321-1.032 1.193-2.063 2.39-3.107 3.573-.561.632-1.296.574-1.77-.12-.43-.627-.85-1.262-1.271-1.893l-2.166-3.235c-1.42-2.125-2.839-4.25-4.258-6.37-1.007-1.506-2.026-3.004-3.033-4.506a299.464 299.464 0 01-2.212-3.325c-.123-.19-.169-.438-.247-.657h-.004z" fill="#223B38" stroke="#CCEC60" stroke-width="2.063" stroke-miterlimit="10"/></svg>