<svg width="70" height="70" fill="none" xmlns="http://www.w3.org/2000/svg"><path d="M34.351 1.004c4.625.078 9.25.149 13.874.24 2.763.057 5.54.004 8.285.27 3.164.302 5.905 1.625 8.04 4.107 1.348 1.568 2.508 3.238 2.94 5.26.366 1.698.62 3.458.635 5.192.04 5.09-.07 10.182-.11 15.271-.018 2.327-.035 4.657.018 6.98.05 2.245-.305 4.44-.688 6.628-.117.66-.468 1.302-.812 1.894-1.344 2.327-3.128 4.203-5.526 5.501-1.908 1.032-3.933 1.419-6.057 1.49-1.749.06-3.494.138-5.242.18-.38.008-.497.139-.486.49.018.677.014 1.355.018 2.028.007 2.89.021 5.785.017 8.675 0 .564-.028 1.132-.113 1.689-.294 1.876-1.639 2.517-3.359 1.837-.73-.288-1.322-.823-1.876-1.408-2.848-3.015-5.727-5.998-8.59-8.998a431.994 431.994 0 01-3.72-3.933c-.198-.213-.404-.294-.698-.298-3.285-.035-6.572-.096-9.856-.128-2.763-.028-5.53-.021-8.292-.042-2.447-.018-4.561-1.004-6.466-2.426-1.9-1.422-3.21-3.302-4.092-5.536-.777-1.969-1.121-3.965-1.125-6.061-.014-8.913-.099-17.829-.06-26.741.014-3.068 1.128-5.774 3.359-7.973C5.876 3.706 7.582 2.529 9.547 1.77c1.393-.54 2.89-.639 4.373-.653 6.486-.05 12.976-.082 19.463-.117h.972v.014l-.004-.01z" fill="#223B38" stroke="#CCEC60" stroke-width="1.773" stroke-miterlimit="10"/><path d="M34.58 40.388c-.32 0-.643.014-.962-.003-.376-.025-.763-.04-1.12-.174a.965.965 0 01-.604-.632c-.16-.482-.33-.968-.46-1.457-.058-.206-.175-.26-.348-.316a19.86 19.86 0 01-1.415-.521c-.373-.156-.727-.355-1.09-.536a.153.153 0 00-.155 0c-.34.178-.678.355-1.022.525-.223.114-.447.238-.684.316-.287.096-.571.035-.823-.131-.71-.472-1.309-1.068-1.88-1.692a10.915 10.915 0 01-.805-1c-.23-.323-.234-.692-.06-1.043.241-.486.497-.965.752-1.447a.21.21 0 000-.227 11.162 11.162 0 01-.812-1.763 18.866 18.866 0 01-.28-.865c-.025-.082-.064-.124-.146-.149-.546-.17-1.092-.337-1.631-.528-.348-.124-.56-.387-.631-.752-.174-.88-.178-1.77-.135-2.66.014-.316.057-.631.096-.947.067-.528.336-.858.861-1.01.493-.143.98-.31 1.469-.462a.15.15 0 00.11-.12c.258-.93.624-1.816 1.099-2.657.039-.067.046-.124.007-.198-.241-.461-.475-.922-.72-1.384-.227-.429-.202-.833.085-1.234.553-.762 1.213-1.422 1.922-2.039.195-.17.405-.33.614-.486.387-.287.79-.298 1.216-.074.465.248.933.49 1.401.727a.19.19 0 00.153-.004 12.18 12.18 0 011.883-.858c.252-.089.51-.167.766-.241.1-.029.145-.078.174-.174a74.07 74.07 0 01.483-1.532c.141-.43.45-.66.886-.734.904-.153 1.812-.142 2.724-.1.305.014.613.057.915.11.482.082.752.394.886.851.124.43.27.855.405 1.28.01.03.024.057.024.086.011.152.114.195.245.23.305.09.607.188.904.298a9.68 9.68 0 011.557.72c.157.092.266.082.419 0 .468-.255.94-.5 1.422-.73.34-.163.681-.12.99.095.273.192.539.398.787.618a13.16 13.16 0 011.56 1.613c.167.21.352.412.433.674.085.27.085.543-.043.802-.237.471-.478.936-.727 1.4-.067.125-.067.217 0 .348.245.486.483.979.692 1.482.149.362.252.742.376 1.114.018.06.05.092.11.11.369.114.734.23 1.103.351.234.078.472.142.692.248a.896.896 0 01.492.67c.174.898.192 1.802.132 2.71-.022.302-.05.607-.086.908-.035.32-.141.61-.414.805-.107.078-.23.142-.355.181-.525.174-1.053.337-1.578.507a.147.147 0 00-.085.093c-.245.876-.575 1.72-1.022 2.51-.12.21-.11.359.004.557.237.426.464.859.674 1.298.163.348.148.699-.068 1.029-.436.652-.979 1.213-1.546 1.745-.294.276-.614.532-.926.79-.259.217-.55.355-.9.316-.203-.025-.38-.117-.557-.209-.43-.223-.859-.447-1.291-.663a.196.196 0 00-.142 0c-.344.166-.681.347-1.029.51a10.89 10.89 0 01-1.649.596c-.085.025-.124.071-.149.15-.166.531-.322 1.07-.503 1.599-.128.372-.408.592-.795.67-.613.124-1.234.128-1.858.117l-.018-.007zm9.004-14.257a9.01 9.01 0 00-8.948-9.055c-5.043-.035-9.065 4.04-9.087 8.984-.02 4.955 4.012 9.05 9.009 9.058 4.944.007 9.022-4.011 9.03-8.987h-.004z" fill="#223B38" stroke="#CCEC60" stroke-width="1.064" stroke-miterlimit="10"/></svg>